<?xml version="1.0" encoding="utf-8"?>
<!-- Generator: Adobe Illustrator 21.0.2, SVG Export Plug-In . SVG Version: 6.00 Build 0)  -->
<svg version="1.1" id="NAVBAR" xmlns="http://www.w3.org/2000/svg" xmlns:xlink="http://www.w3.org/1999/xlink" x="0px" y="0px"
	 viewBox="0 0 1920 240" style="enable-background:new 0 0 1920 240;" xml:space="preserve">
<style type="text/css">
	.st0{fill:none;stroke:#FFFFFF;stroke-width:2.25;stroke-miterlimit:10;}
	.st1{fill:#FFFFFF;}
	.st2{fill:none;stroke:#FFFFFF;stroke-width:2.1213;stroke-miterlimit:10;}
	.st3{fill:url(#SVGID_1_);stroke:#FFFFFF;stroke-width:1.5;stroke-miterlimit:10;}
	.st4{fill:#FFFFFF;stroke:#FFFFFF;stroke-width:1.5;stroke-miterlimit:10;}
	.st5{fill:url(#SVGID_2_);stroke:#FFFFFF;stroke-width:1.5;stroke-miterlimit:10;}
	.st6{fill:url(#SVGID_3_);stroke:#FFFFFF;stroke-width:1.5;stroke-miterlimit:10;}
	.st7{fill:none;stroke:#FFFFFF;stroke-width:1.5;stroke-miterlimit:10;}
</style>
<g id="Landing_x5F_Button">
	<circle class="st0" cx="160" cy="112.4" r="18"/>
	<g>
		<path class="st1" d="M157.7,105.9v10.6h6.1l-0.3,2.3h-8.5v-12.9H157.7z"/>
		<path class="st1" d="M162.9,108.7c0.3-0.2,0.7-0.5,1.2-1c0.3-0.3,0.5-0.5,0.8-0.7c0.2-0.2,0.4-0.4,0.5-0.5
			c0.1-0.2,0.2-0.3,0.3-0.5c0.1-0.2,0.1-0.4,0.1-0.6c0-0.2-0.1-0.4-0.2-0.6c-0.1-0.1-0.4-0.2-0.6-0.2c-0.3,0-0.6,0.1-0.7,0.2
			c-0.2,0.2-0.3,0.5-0.4,1l-1.8-0.2c0.1-0.3,0.2-0.7,0.3-1c0.1-0.3,0.3-0.6,0.6-0.8c0.2-0.2,0.5-0.4,0.9-0.6
			c0.4-0.1,0.8-0.2,1.3-0.2c0.9,0,1.5,0.2,2,0.6s0.7,1,0.7,1.7c0,0.2,0,0.5-0.1,0.7c-0.1,0.2-0.1,0.4-0.3,0.6
			c-0.1,0.2-0.3,0.4-0.4,0.6c-0.2,0.2-0.4,0.4-0.6,0.7c-0.2,0.2-0.4,0.3-0.6,0.5c-0.2,0.2-0.5,0.4-0.7,0.6h2.8l-0.2,1.6h-5.4v-1.3
			C162.4,109.1,162.6,108.9,162.9,108.7z"/>
	</g>
</g>
<g id="Question">
	<path class="st1" d="M547.9,94.2v5h5.1v-5h2.7v12.9H553v-5.4h-5.1v5.4h-2.7V94.2H547.9z"/>
	<path class="st1" d="M559,106.1c-0.8-0.9-1.2-2.1-1.2-3.7c0-0.8,0.1-1.5,0.3-2.1c0.2-0.6,0.5-1.1,1-1.6c0.4-0.4,0.9-0.7,1.5-1
		s1.2-0.3,2-0.3c0.7,0,1.4,0.1,2,0.3s1.1,0.6,1.5,1c0.4,0.4,0.7,1,0.9,1.6c0.2,0.6,0.3,1.3,0.3,2.1c0,0.8-0.1,1.5-0.3,2.1
		c-0.2,0.6-0.5,1.2-1,1.6c-0.4,0.4-0.9,0.8-1.5,1c-0.6,0.2-1.2,0.3-2,0.3C561,107.4,559.9,106.9,559,106.1z M564.2,104.6
		c0.3-0.5,0.5-1.3,0.5-2.2c0-1-0.2-1.7-0.5-2.2c-0.4-0.5-0.9-0.8-1.6-0.8c-0.7,0-1.3,0.3-1.6,0.8c-0.4,0.5-0.5,1.2-0.5,2.2
		c0,1,0.2,1.7,0.5,2.2c0.3,0.5,0.9,0.8,1.6,0.8C563.3,105.4,563.8,105.1,564.2,104.6z"/>
	<path class="st1" d="M570.9,97.7l1.3,6.2l1.8-6.2h2.2l1.7,6.2l1.3-6.2h2.6l-2.7,9.4h-2.4l-1.7-6.2l-1.7,6.2h-2.4l-2.7-9.4H570.9z"
		/>
	<path class="st1" d="M594.4,106.4c-0.7,0.7-1.7,1-3.1,1c-0.8,0-1.5-0.1-2.1-0.4c-0.6-0.2-1-0.6-1.4-1c-0.4-0.4-0.6-1-0.8-1.6
		c-0.2-0.6-0.3-1.3-0.3-2s0.1-1.4,0.3-2.1c0.2-0.6,0.5-1.1,0.9-1.6c0.4-0.4,0.9-0.8,1.5-1c0.6-0.2,1.2-0.4,2-0.4
		c0.6,0,1.2,0.1,1.7,0.2c0.5,0.2,0.9,0.4,1.2,0.7c0.3,0.3,0.6,0.6,0.8,1c0.2,0.4,0.3,0.8,0.4,1.3l-2.5,0.3c-0.1-0.5-0.2-0.9-0.4-1.2
		c-0.2-0.3-0.6-0.4-1.1-0.4c-0.4,0-0.7,0.1-1,0.2c-0.3,0.2-0.4,0.4-0.6,0.7c-0.2,0.3-0.3,0.6-0.3,0.9c-0.1,0.4-0.1,0.7-0.1,1.1
		c0,0.4,0,0.8,0.1,1.1c0.1,0.4,0.2,0.7,0.3,1c0.1,0.3,0.3,0.5,0.6,0.6c0.3,0.2,0.6,0.3,1,0.3c0.5,0,0.9-0.1,1.2-0.4
		c0.3-0.3,0.4-0.7,0.5-1.2h2.6C595.5,104.8,595.1,105.7,594.4,106.4z"/>
	<path class="st1" d="M598.3,106.1c-0.8-0.9-1.2-2.1-1.2-3.7c0-0.8,0.1-1.5,0.3-2.1c0.2-0.6,0.5-1.1,1-1.6c0.4-0.4,0.9-0.7,1.5-1
		s1.2-0.3,2-0.3c0.7,0,1.4,0.1,2,0.3s1.1,0.6,1.5,1c0.4,0.4,0.7,1,0.9,1.6c0.2,0.6,0.3,1.3,0.3,2.1c0,0.8-0.1,1.5-0.3,2.1
		c-0.2,0.6-0.5,1.2-1,1.6c-0.4,0.4-0.9,0.8-1.5,1c-0.6,0.2-1.2,0.3-2,0.3C600.3,107.4,599.1,106.9,598.3,106.1z M603.4,104.6
		c0.3-0.5,0.5-1.3,0.5-2.2c0-1-0.2-1.7-0.5-2.2c-0.4-0.5-0.9-0.8-1.6-0.8c-0.7,0-1.3,0.3-1.6,0.8c-0.4,0.5-0.5,1.2-0.5,2.2
		c0,1,0.2,1.7,0.5,2.2c0.3,0.5,0.9,0.8,1.6,0.8C602.5,105.4,603,105.1,603.4,104.6z"/>
	<path class="st1" d="M610.9,97.7v1.3c0.3-0.5,0.8-0.9,1.2-1.2s1-0.4,1.5-0.4c0.7,0,1.2,0.1,1.7,0.4c0.4,0.3,0.7,0.7,0.9,1.2
		c0.4-0.6,0.9-1,1.4-1.2s1-0.4,1.6-0.4c1,0,1.7,0.3,2.2,0.8c0.5,0.5,0.7,1.4,0.7,2.6v6.3h-2.5v-5.9c0-0.3,0-0.6-0.1-0.8
		c-0.1-0.2-0.1-0.4-0.2-0.5c-0.1-0.1-0.2-0.2-0.4-0.3c-0.1-0.1-0.3-0.1-0.5-0.1c-0.3,0-0.5,0-0.7,0.1c-0.2,0.1-0.4,0.2-0.6,0.4
		c-0.2,0.2-0.3,0.4-0.4,0.6c-0.1,0.2-0.2,0.5-0.2,0.7v5.8H614v-5.9c0-0.3,0-0.6-0.1-0.8c-0.1-0.2-0.1-0.4-0.2-0.5
		c-0.1-0.1-0.2-0.2-0.4-0.3c-0.1-0.1-0.3-0.1-0.5-0.1c-0.3,0-0.5,0-0.7,0.1c-0.2,0.1-0.4,0.2-0.6,0.4c-0.2,0.2-0.3,0.4-0.4,0.6
		c-0.1,0.2-0.2,0.5-0.2,0.8v5.7h-2.5v-9.4H610.9z"/>
	<path class="st1" d="M626.6,97.7v1.2c0.7-1,1.7-1.5,3-1.5c1.3,0,2.3,0.5,2.9,1.3c0.6,0.9,1,2.1,1,3.7c0,0.7-0.1,1.4-0.3,2
		c-0.2,0.6-0.5,1.1-0.8,1.6c-0.4,0.5-0.8,0.8-1.3,1c-0.5,0.2-1.1,0.4-1.7,0.4c-0.5,0-0.9-0.1-1.4-0.3c-0.5-0.2-0.9-0.5-1.3-1v4.5
		h-2.5V97.7H626.6z M626.9,103.9c0.1,0.4,0.3,0.7,0.5,0.9c0.2,0.2,0.5,0.4,0.7,0.4c0.2,0.1,0.5,0.1,0.7,0.1c0.3,0,0.5-0.1,0.8-0.2
		c0.3-0.1,0.5-0.3,0.7-0.5c0.2-0.2,0.3-0.5,0.4-0.9s0.2-0.8,0.2-1.4c0-0.6-0.1-1-0.1-1.4c-0.1-0.4-0.3-0.7-0.4-0.9
		c-0.2-0.2-0.4-0.4-0.6-0.5c-0.3-0.1-0.5-0.1-0.8-0.1c-0.3,0-0.6,0-0.8,0.1c-0.2,0.1-0.5,0.2-0.7,0.4c-0.2,0.2-0.4,0.5-0.5,0.9
		c-0.1,0.3-0.2,0.8-0.2,1.3v0.3C626.7,103.1,626.8,103.6,626.9,103.9z"/>
	<path class="st1" d="M639.8,106.9c-0.5,0.3-1.1,0.4-1.8,0.4c-0.4,0-0.8-0.1-1.2-0.2c-0.4-0.1-0.7-0.3-1-0.5
		c-0.3-0.2-0.5-0.5-0.7-0.9c-0.2-0.3-0.3-0.8-0.3-1.3c0-0.6,0.1-1.2,0.4-1.6s0.7-0.7,1.1-1c0.5-0.2,1-0.4,1.6-0.5
		c0.6-0.1,1.2-0.2,1.8-0.2l1.2-0.1v-0.5c0-0.6-0.2-1-0.5-1.2c-0.3-0.2-0.7-0.3-1.1-0.3c-1,0-1.6,0.4-1.7,1.1l-2.3-0.2
		c0.2-1,0.6-1.7,1.3-2.1c0.7-0.4,1.6-0.6,2.8-0.6c0.7,0,1.3,0.1,1.8,0.3c0.5,0.2,0.9,0.4,1.2,0.8s0.5,0.7,0.7,1.2
		c0.1,0.5,0.2,1,0.2,1.6v5.9H641v-1.2C640.6,106.3,640.2,106.7,639.8,106.9z M639.8,102.9c-0.5,0-1,0.1-1.3,0.2
		c-0.3,0.1-0.6,0.2-0.7,0.3c-0.2,0.1-0.3,0.3-0.4,0.5s-0.1,0.4-0.1,0.6c0,0.3,0.1,0.6,0.3,0.7c0.2,0.2,0.5,0.3,0.9,0.3
		c0.6,0,1.2-0.1,1.6-0.5c0.2-0.2,0.4-0.4,0.6-0.6c0.1-0.3,0.2-0.6,0.2-1v-0.5L639.8,102.9z"/>
	<path class="st1" d="M648,97.7V99c0.4-0.6,0.8-1,1.3-1.2c0.5-0.3,1-0.4,1.6-0.4c1.1,0,1.9,0.3,2.4,0.8c0.5,0.6,0.8,1.4,0.8,2.6v6.2
		h-2.5v-5.9c0-0.7-0.1-1.1-0.4-1.3c-0.3-0.2-0.6-0.4-1-0.4c-0.3,0-0.6,0.1-0.8,0.1c-0.2,0.1-0.5,0.2-0.7,0.4
		c-0.2,0.2-0.3,0.4-0.4,0.6c-0.1,0.2-0.2,0.5-0.2,0.8v5.7h-2.5v-9.4H648z"/>
	<path class="st1" d="M658.7,94.2v2.3h-2.6v-2.3H658.7z M658.7,97.7v9.4h-2.5v-9.4H658.7z"/>
	<path class="st1" d="M668.3,106.5c-0.7,0.6-1.7,0.8-3,0.8c-1.6,0-2.7-0.4-3.5-1.3c-0.8-0.9-1.2-2.1-1.2-3.7c0-0.8,0.1-1.5,0.3-2.1
		c0.2-0.6,0.6-1.1,1-1.6c0.4-0.4,0.9-0.8,1.5-1c0.6-0.2,1.2-0.3,1.9-0.3c1.4,0,2.5,0.4,3.3,1.2c0.7,0.8,1.1,1.9,1.1,3.3v1h-6.5
		c0,0.8,0.2,1.4,0.6,1.8c0.4,0.4,0.9,0.6,1.6,0.6c1,0,1.6-0.4,1.8-1.3h2.4C669.4,105.2,669,106,668.3,106.5z M666.8,99.8
		c-0.3-0.4-0.8-0.5-1.5-0.5c-0.3,0-0.6,0.1-0.9,0.2c-0.3,0.1-0.5,0.3-0.6,0.4c-0.2,0.2-0.3,0.4-0.4,0.6c-0.1,0.3-0.1,0.5-0.2,0.8
		h4.1C667.2,100.7,667.1,100.2,666.8,99.8z"/>
	<path class="st1" d="M674,105.2c0.4,0.2,0.8,0.3,1.3,0.3c0.6,0,1-0.1,1.3-0.2c0.3-0.1,0.4-0.4,0.4-0.7c0-0.2-0.1-0.5-0.2-0.6
		c-0.2-0.2-0.5-0.3-0.9-0.4l-1.3-0.2c-1.1-0.2-2-0.5-2.5-0.9c-0.6-0.4-0.8-1.1-0.8-2c0-0.5,0.1-0.9,0.3-1.2s0.5-0.7,0.8-0.9
		c0.4-0.3,0.8-0.5,1.3-0.6c0.5-0.1,1-0.2,1.6-0.2c0.7,0,1.4,0.1,1.9,0.2c0.5,0.2,0.9,0.4,1.2,0.6c0.3,0.3,0.6,0.6,0.7,0.9
		c0.2,0.3,0.3,0.7,0.3,1.1l-2.3,0.3c-0.1-0.4-0.3-0.8-0.6-1c-0.3-0.2-0.7-0.3-1.3-0.3c-0.3,0-0.6,0-0.8,0.1
		c-0.2,0.1-0.4,0.1-0.5,0.2s-0.2,0.2-0.3,0.3c-0.1,0.1-0.1,0.2-0.1,0.3c0,0.3,0.1,0.5,0.3,0.6c0.2,0.1,0.5,0.3,1.1,0.4l1.2,0.2
		c0.7,0.1,1.2,0.3,1.6,0.4s0.8,0.4,1,0.6c0.3,0.3,0.4,0.5,0.5,0.9c0.1,0.3,0.1,0.7,0.1,1.2c0,0.9-0.3,1.6-1,2.1
		c-0.7,0.5-1.7,0.8-3.1,0.8c-0.6,0-1.1-0.1-1.6-0.1c-0.5-0.1-1-0.3-1.4-0.5c-0.4-0.3-0.7-0.6-1-1c-0.3-0.4-0.4-1-0.5-1.6h2.4
		C673.5,104.7,673.7,105,674,105.2z"/>
	<path class="st1" d="M689.6,106.9c-0.5,0.3-1.1,0.4-1.8,0.4c-0.4,0-0.8-0.1-1.2-0.2c-0.4-0.1-0.7-0.3-1-0.5
		c-0.3-0.2-0.5-0.5-0.7-0.9c-0.2-0.3-0.3-0.8-0.3-1.3c0-0.6,0.1-1.2,0.4-1.6s0.7-0.7,1.1-1c0.5-0.2,1-0.4,1.6-0.5
		c0.6-0.1,1.2-0.2,1.8-0.2l1.2-0.1v-0.5c0-0.6-0.2-1-0.5-1.2c-0.3-0.2-0.7-0.3-1.1-0.3c-1,0-1.6,0.4-1.7,1.1l-2.3-0.2
		c0.2-1,0.6-1.7,1.3-2.1c0.7-0.4,1.6-0.6,2.8-0.6c0.7,0,1.3,0.1,1.8,0.3c0.5,0.2,0.9,0.4,1.2,0.8s0.5,0.7,0.7,1.2
		c0.1,0.5,0.2,1,0.2,1.6v5.9h-2.4v-1.2C690.4,106.3,690,106.7,689.6,106.9z M689.6,102.9c-0.5,0-1,0.1-1.3,0.2
		c-0.3,0.1-0.6,0.2-0.7,0.3c-0.2,0.1-0.3,0.3-0.4,0.5c-0.1,0.2-0.1,0.4-0.1,0.6c0,0.3,0.1,0.6,0.3,0.7c0.2,0.2,0.5,0.3,0.9,0.3
		c0.6,0,1.2-0.1,1.6-0.5c0.2-0.2,0.4-0.4,0.6-0.6c0.1-0.3,0.2-0.6,0.2-1v-0.5L689.6,102.9z"/>
	<path class="st1" d="M697.8,97.7V99c0.3-0.5,0.7-0.9,1.1-1.1c0.5-0.2,0.9-0.4,1.4-0.4c0.2,0,0.4,0,0.6,0c0.2,0,0.3,0.1,0.4,0.1
		l-0.3,2.3c-0.3-0.1-0.6-0.1-1.1-0.1c-0.3,0-0.5,0-0.8,0.1c-0.3,0.1-0.5,0.2-0.7,0.4c-0.2,0.2-0.4,0.4-0.5,0.6
		c-0.1,0.2-0.2,0.5-0.2,0.7v5.4h-2.5v-9.4H697.8z"/>
	<path class="st1" d="M710.2,106.5c-0.7,0.6-1.7,0.8-3,0.8c-1.6,0-2.7-0.4-3.5-1.3c-0.8-0.9-1.2-2.1-1.2-3.7c0-0.8,0.1-1.5,0.3-2.1
		c0.2-0.6,0.6-1.1,1-1.6c0.4-0.4,0.9-0.8,1.5-1c0.6-0.2,1.2-0.3,1.9-0.3c1.4,0,2.5,0.4,3.3,1.2c0.7,0.8,1.1,1.9,1.1,3.3v1h-6.5
		c0,0.8,0.2,1.4,0.6,1.8c0.4,0.4,0.9,0.6,1.6,0.6c1,0,1.6-0.4,1.8-1.3h2.4C711.3,105.2,710.9,106,710.2,106.5z M708.7,99.8
		c-0.3-0.4-0.8-0.5-1.5-0.5c-0.3,0-0.6,0.1-0.9,0.2c-0.3,0.1-0.5,0.3-0.6,0.4c-0.2,0.2-0.3,0.4-0.4,0.6c-0.1,0.3-0.1,0.5-0.2,0.8
		h4.1C709.1,100.7,709,100.2,708.7,99.8z"/>
	<path class="st1" d="M720,94.2v12.9h-2.5V94.2H720z"/>
	<path class="st1" d="M726.6,106.9c-0.5,0.3-1.1,0.4-1.8,0.4c-0.4,0-0.8-0.1-1.2-0.2c-0.4-0.1-0.7-0.3-1-0.5
		c-0.3-0.2-0.5-0.5-0.7-0.9c-0.2-0.3-0.3-0.8-0.3-1.3c0-0.6,0.1-1.2,0.4-1.6s0.7-0.7,1.1-1c0.5-0.2,1-0.4,1.6-0.5
		c0.6-0.1,1.2-0.2,1.8-0.2l1.2-0.1v-0.5c0-0.6-0.2-1-0.5-1.2c-0.3-0.2-0.7-0.3-1.1-0.3c-1,0-1.6,0.4-1.7,1.1l-2.3-0.2
		c0.2-1,0.6-1.7,1.3-2.1c0.7-0.4,1.6-0.6,2.8-0.6c0.7,0,1.3,0.1,1.8,0.3c0.5,0.2,0.9,0.4,1.2,0.8s0.5,0.7,0.7,1.2
		c0.1,0.5,0.2,1,0.2,1.6v5.9h-2.4v-1.2C727.4,106.3,727,106.7,726.6,106.9z M726.7,102.9c-0.5,0-1,0.1-1.3,0.2
		c-0.3,0.1-0.6,0.2-0.7,0.3c-0.2,0.1-0.3,0.3-0.4,0.5s-0.1,0.4-0.1,0.6c0,0.3,0.1,0.6,0.3,0.7c0.2,0.2,0.5,0.3,0.9,0.3
		c0.6,0,1.2-0.1,1.6-0.5c0.2-0.2,0.4-0.4,0.6-0.6c0.1-0.3,0.2-0.6,0.2-1v-0.5L726.7,102.9z"/>
	<path class="st1" d="M734.8,97.7v5.9c0,0.7,0.1,1.1,0.4,1.4c0.2,0.2,0.6,0.4,1,0.4c0.3,0,0.6-0.1,0.8-0.1c0.2-0.1,0.4-0.2,0.6-0.4
		c0.2-0.2,0.3-0.4,0.5-0.6c0.1-0.2,0.2-0.5,0.2-0.8v-5.7h2.5v9.4h-2.4v-1.3c-0.4,0.6-0.8,1-1.3,1.2c-0.5,0.3-1,0.4-1.6,0.4
		c-1.1,0-1.9-0.3-2.4-0.8c-0.5-0.6-0.8-1.4-0.8-2.6v-6.2H734.8z"/>
	<path class="st1" d="M745.4,97.7V99c0.4-0.6,0.8-1,1.3-1.2c0.5-0.3,1-0.4,1.6-0.4c1.1,0,1.9,0.3,2.4,0.8c0.5,0.6,0.8,1.4,0.8,2.6
		v6.2h-2.5v-5.9c0-0.7-0.1-1.1-0.4-1.3c-0.3-0.2-0.6-0.4-1-0.4c-0.3,0-0.6,0.1-0.8,0.1c-0.2,0.1-0.5,0.2-0.7,0.4
		c-0.2,0.2-0.3,0.4-0.4,0.6c-0.1,0.2-0.2,0.5-0.2,0.8v5.7h-2.5v-9.4H745.4z"/>
	<path class="st1" d="M760.9,106.4c-0.7,0.7-1.7,1-3.1,1c-0.8,0-1.5-0.1-2.1-0.4c-0.6-0.2-1-0.6-1.4-1c-0.4-0.4-0.6-1-0.8-1.6
		c-0.2-0.6-0.3-1.3-0.3-2s0.1-1.4,0.3-2.1c0.2-0.6,0.5-1.1,0.9-1.6c0.4-0.4,0.9-0.8,1.5-1c0.6-0.2,1.2-0.4,2-0.4
		c0.6,0,1.2,0.1,1.7,0.2c0.5,0.2,0.9,0.4,1.2,0.7s0.6,0.6,0.8,1c0.2,0.4,0.3,0.8,0.4,1.3l-2.5,0.3c-0.1-0.5-0.2-0.9-0.4-1.2
		c-0.2-0.3-0.6-0.4-1.1-0.4c-0.4,0-0.7,0.1-1,0.2c-0.3,0.2-0.5,0.4-0.6,0.7c-0.2,0.3-0.3,0.6-0.3,0.9c-0.1,0.4-0.1,0.7-0.1,1.1
		c0,0.4,0,0.8,0.1,1.1c0.1,0.4,0.2,0.7,0.3,1c0.1,0.3,0.3,0.5,0.6,0.6c0.3,0.2,0.6,0.3,1,0.3c0.5,0,0.9-0.1,1.2-0.4
		c0.3-0.3,0.4-0.7,0.5-1.2h2.6C761.9,104.8,761.5,105.7,760.9,106.4z"/>
	<path class="st1" d="M766.3,94.2v4.6c0.4-0.5,0.8-0.9,1.3-1.1c0.5-0.2,1-0.4,1.5-0.4c1.1,0,1.9,0.3,2.4,0.8
		c0.5,0.6,0.8,1.4,0.8,2.6v6.2h-2.5v-5.9c0-0.7-0.1-1.1-0.4-1.3c-0.3-0.2-0.6-0.4-1-0.4c-0.3,0-0.6,0.1-0.8,0.1
		c-0.2,0.1-0.5,0.2-0.7,0.4c-0.2,0.2-0.3,0.4-0.4,0.6c-0.1,0.2-0.2,0.5-0.2,0.8v5.7h-2.5V94.2H766.3z"/>
	<path class="st1" d="M777,94.2v2.3h-2.6v-2.3H777z M777,97.7v9.4h-2.5v-9.4H777z"/>
	<path class="st1" d="M781.7,97.7V99c0.4-0.6,0.8-1,1.3-1.2c0.5-0.3,1-0.4,1.6-0.4c1.1,0,1.9,0.3,2.4,0.8c0.5,0.6,0.8,1.4,0.8,2.6
		v6.2h-2.5v-5.9c0-0.7-0.1-1.1-0.4-1.3c-0.3-0.2-0.6-0.4-1-0.4c-0.3,0-0.6,0.1-0.8,0.1c-0.2,0.1-0.5,0.2-0.7,0.4
		c-0.2,0.2-0.3,0.4-0.4,0.6c-0.1,0.2-0.2,0.5-0.2,0.8v5.7h-2.5v-9.4H781.7z"/>
	<path class="st1" d="M792.7,108.3c0.1,0.1,0.2,0.3,0.4,0.3c0.1,0.1,0.3,0.1,0.5,0.2c0.2,0,0.5,0,0.8,0c0.5,0,0.8-0.1,1.1-0.3
		c0.3-0.2,0.5-0.4,0.6-0.7s0.2-0.6,0.2-1c0-0.4,0-0.8,0-1.2v-0.3c-0.3,0.5-0.7,0.8-1.2,1c-0.5,0.2-1,0.4-1.7,0.4
		c-1.3,0-2.3-0.4-3-1.3c-0.7-0.8-1-2-1-3.4c0-0.7,0.1-1.3,0.3-1.9c0.2-0.6,0.4-1.1,0.8-1.5c0.3-0.4,0.8-0.7,1.3-1
		c0.5-0.2,1.1-0.3,1.7-0.3c0.5,0,1,0.1,1.5,0.3c0.5,0.2,0.9,0.5,1.3,1.1v-1.1h2.4v8.1c0,0.8-0.1,1.5-0.2,2.1
		c-0.2,0.6-0.4,1.1-0.8,1.6c-0.4,0.4-0.8,0.8-1.4,1c-0.6,0.2-1.3,0.3-2.1,0.3c-0.8,0-1.4-0.1-1.9-0.2c-0.5-0.1-1-0.3-1.3-0.6
		c-0.3-0.3-0.6-0.6-0.8-1c-0.2-0.4-0.3-0.8-0.4-1.4h2.6C792.6,107.9,792.7,108.1,792.7,108.3z M796.2,100.7
		c-0.1-0.3-0.3-0.6-0.5-0.8c-0.2-0.2-0.4-0.3-0.7-0.4c-0.3-0.1-0.5-0.1-0.8-0.1c-0.3,0-0.5,0.1-0.8,0.1c-0.3,0.1-0.5,0.3-0.6,0.5
		c-0.2,0.2-0.3,0.5-0.5,0.8s-0.2,0.7-0.2,1.2c0,1,0.2,1.7,0.6,2.1s0.8,0.6,1.4,0.6c0.3,0,0.6-0.1,0.9-0.1c0.3-0.1,0.5-0.2,0.7-0.4
		c0.2-0.2,0.3-0.5,0.5-0.8c0.1-0.3,0.2-0.7,0.2-1.2v-0.3C796.4,101.5,796.3,101,796.2,100.7z"/>
	<path class="st1" d="M612.4,130.9c-0.5,0.3-1.1,0.4-1.8,0.4c-0.4,0-0.8-0.1-1.2-0.2c-0.4-0.1-0.7-0.3-1-0.5
		c-0.3-0.2-0.5-0.5-0.7-0.9c-0.2-0.3-0.3-0.8-0.3-1.3c0-0.6,0.1-1.2,0.4-1.6s0.7-0.7,1.1-1c0.5-0.2,1-0.4,1.6-0.5
		c0.6-0.1,1.2-0.2,1.8-0.2l1.2-0.1v-0.5c0-0.6-0.2-1-0.5-1.2c-0.3-0.2-0.7-0.3-1.1-0.3c-1,0-1.6,0.4-1.7,1.1l-2.3-0.2
		c0.2-1,0.6-1.7,1.3-2.1c0.7-0.4,1.6-0.6,2.8-0.6c0.7,0,1.3,0.1,1.8,0.3c0.5,0.2,0.9,0.4,1.2,0.8s0.5,0.7,0.7,1.2
		c0.1,0.5,0.2,1,0.2,1.6v5.9h-2.4v-1.2C613.3,130.3,612.9,130.7,612.4,130.9z M612.5,126.9c-0.5,0-1,0.1-1.3,0.2
		c-0.3,0.1-0.6,0.2-0.7,0.3c-0.2,0.1-0.3,0.3-0.4,0.5c-0.1,0.2-0.1,0.4-0.1,0.6c0,0.3,0.1,0.6,0.3,0.7c0.2,0.2,0.5,0.3,0.9,0.3
		c0.6,0,1.2-0.1,1.6-0.5c0.2-0.2,0.4-0.4,0.6-0.6c0.1-0.3,0.2-0.6,0.2-1v-0.5L612.5,126.9z"/>
	<path class="st1" d="M624.6,121.7v1.3c0.4-0.6,0.8-1,1.3-1.2c0.5-0.3,1-0.4,1.6-0.4c1.1,0,1.9,0.3,2.4,0.8c0.5,0.6,0.8,1.4,0.8,2.6
		v6.2h-2.5v-5.9c0-0.7-0.1-1.1-0.4-1.3c-0.3-0.2-0.6-0.4-1-0.4c-0.3,0-0.6,0.1-0.8,0.1c-0.2,0.1-0.5,0.2-0.7,0.4
		c-0.2,0.2-0.3,0.4-0.4,0.6c-0.1,0.2-0.2,0.5-0.2,0.8v5.7h-2.5v-9.4H624.6z"/>
	<path class="st1" d="M640.2,130.5c-0.7,0.6-1.7,0.8-3,0.8c-1.6,0-2.7-0.4-3.5-1.3c-0.8-0.9-1.2-2.1-1.2-3.7c0-0.8,0.1-1.5,0.3-2.1
		c0.2-0.6,0.6-1.1,1-1.6c0.4-0.4,0.9-0.8,1.5-1c0.6-0.2,1.2-0.3,1.9-0.3c1.4,0,2.5,0.4,3.3,1.2c0.7,0.8,1.1,1.9,1.1,3.3v1H635
		c0,0.8,0.2,1.4,0.6,1.8c0.4,0.4,0.9,0.6,1.6,0.6c1,0,1.6-0.4,1.8-1.3h2.4C641.3,129.2,640.9,130,640.2,130.5z M638.7,123.8
		c-0.3-0.4-0.8-0.5-1.5-0.5c-0.3,0-0.6,0.1-0.9,0.2c-0.3,0.1-0.5,0.3-0.6,0.4c-0.2,0.2-0.3,0.4-0.4,0.6c-0.1,0.3-0.1,0.5-0.2,0.8
		h4.1C639.1,124.7,639,124.2,638.7,123.8z"/>
	<path class="st1" d="M645.2,121.7l1.3,6.2l1.8-6.2h2.2l1.7,6.2l1.3-6.2h2.6l-2.7,9.4h-2.4l-1.7-6.2l-1.7,6.2h-2.4l-2.7-9.4H645.2z"
		/>
	<path class="st1" d="M663.8,129.2c0.4,0.2,0.8,0.3,1.3,0.3c0.6,0,1-0.1,1.3-0.2c0.3-0.1,0.4-0.4,0.4-0.7c0-0.2-0.1-0.5-0.2-0.6
		c-0.2-0.2-0.5-0.3-0.9-0.4l-1.3-0.2c-1.1-0.2-2-0.5-2.5-0.9c-0.6-0.4-0.8-1.1-0.8-2c0-0.5,0.1-0.9,0.3-1.2c0.2-0.4,0.5-0.7,0.8-0.9
		c0.4-0.3,0.8-0.5,1.3-0.6c0.5-0.1,1-0.2,1.6-0.2c0.7,0,1.4,0.1,1.9,0.2c0.5,0.2,0.9,0.4,1.2,0.6c0.3,0.3,0.6,0.6,0.7,0.9
		c0.2,0.3,0.3,0.7,0.3,1.1l-2.3,0.3c-0.1-0.4-0.3-0.8-0.6-1c-0.3-0.2-0.7-0.3-1.3-0.3c-0.3,0-0.6,0-0.8,0.1
		c-0.2,0.1-0.4,0.1-0.5,0.2s-0.2,0.2-0.3,0.3c-0.1,0.1-0.1,0.2-0.1,0.3c0,0.3,0.1,0.5,0.3,0.6c0.2,0.1,0.5,0.3,1.1,0.4l1.2,0.2
		c0.7,0.1,1.2,0.3,1.6,0.4s0.8,0.4,1,0.6c0.3,0.3,0.4,0.5,0.5,0.9c0.1,0.3,0.1,0.7,0.1,1.2c0,0.9-0.3,1.6-1,2.1
		c-0.7,0.5-1.7,0.8-3.1,0.8c-0.6,0-1.1-0.1-1.6-0.1c-0.5-0.1-1-0.3-1.4-0.5c-0.4-0.3-0.7-0.6-1-1c-0.3-0.4-0.4-1-0.5-1.6h2.4
		C663.3,128.7,663.5,129,663.8,129.2z"/>
	<path class="st1" d="M673.5,121.7v1.2c0.7-1,1.7-1.5,3-1.5c1.3,0,2.3,0.5,2.9,1.3c0.6,0.9,1,2.1,1,3.7c0,0.7-0.1,1.4-0.3,2
		c-0.2,0.6-0.5,1.1-0.8,1.6c-0.4,0.5-0.8,0.8-1.3,1c-0.5,0.2-1.1,0.4-1.7,0.4c-0.5,0-0.9-0.1-1.4-0.3c-0.5-0.2-0.9-0.5-1.3-1v4.5
		H671v-12.9H673.5z M673.7,127.9c0.1,0.4,0.3,0.7,0.5,0.9c0.2,0.2,0.5,0.4,0.7,0.4c0.2,0.1,0.5,0.1,0.7,0.1c0.3,0,0.5-0.1,0.8-0.2
		c0.3-0.1,0.5-0.3,0.7-0.5c0.2-0.2,0.3-0.5,0.4-0.9s0.2-0.8,0.2-1.4c0-0.6-0.1-1-0.1-1.4c-0.1-0.4-0.3-0.7-0.4-0.9
		c-0.2-0.2-0.4-0.4-0.6-0.5c-0.3-0.1-0.5-0.1-0.8-0.1c-0.3,0-0.6,0-0.8,0.1c-0.2,0.1-0.5,0.2-0.7,0.4c-0.2,0.2-0.4,0.5-0.5,0.9
		c-0.1,0.3-0.2,0.8-0.2,1.3v0.3C673.5,127.1,673.6,127.6,673.7,127.9z"/>
	<path class="st1" d="M686.6,130.9c-0.5,0.3-1.1,0.4-1.8,0.4c-0.4,0-0.8-0.1-1.2-0.2c-0.4-0.1-0.7-0.3-1-0.5
		c-0.3-0.2-0.5-0.5-0.7-0.9c-0.2-0.3-0.3-0.8-0.3-1.3c0-0.6,0.1-1.2,0.4-1.6s0.7-0.7,1.1-1c0.5-0.2,1-0.4,1.6-0.5
		c0.6-0.1,1.2-0.2,1.8-0.2l1.2-0.1v-0.5c0-0.6-0.2-1-0.5-1.2c-0.3-0.2-0.7-0.3-1.1-0.3c-1,0-1.6,0.4-1.7,1.1l-2.3-0.2
		c0.2-1,0.6-1.7,1.3-2.1c0.7-0.4,1.6-0.6,2.8-0.6c0.7,0,1.3,0.1,1.8,0.3c0.5,0.2,0.9,0.4,1.2,0.8s0.5,0.7,0.7,1.2
		c0.1,0.5,0.2,1,0.2,1.6v5.9h-2.4v-1.2C687.4,130.3,687,130.7,686.6,130.9z M686.6,126.9c-0.5,0-1,0.1-1.3,0.2
		c-0.3,0.1-0.6,0.2-0.7,0.3c-0.2,0.1-0.3,0.3-0.4,0.5s-0.1,0.4-0.1,0.6c0,0.3,0.1,0.6,0.3,0.7c0.2,0.2,0.5,0.3,0.9,0.3
		c0.6,0,1.2-0.1,1.6-0.5c0.2-0.2,0.4-0.4,0.6-0.6c0.1-0.3,0.2-0.6,0.2-1v-0.5L686.6,126.9z"/>
	<path class="st1" d="M699.6,130.4c-0.7,0.7-1.7,1-3.1,1c-0.8,0-1.5-0.1-2.1-0.4c-0.6-0.2-1-0.6-1.4-1c-0.4-0.4-0.6-1-0.8-1.6
		c-0.2-0.6-0.3-1.3-0.3-2s0.1-1.4,0.3-2.1c0.2-0.6,0.5-1.1,0.9-1.6c0.4-0.4,0.9-0.8,1.5-1c0.6-0.2,1.2-0.4,2-0.4
		c0.6,0,1.2,0.1,1.7,0.2c0.5,0.2,0.9,0.4,1.2,0.7s0.6,0.6,0.8,1c0.2,0.4,0.3,0.8,0.4,1.3l-2.5,0.3c-0.1-0.5-0.2-0.9-0.4-1.2
		c-0.2-0.3-0.6-0.4-1.1-0.4c-0.4,0-0.7,0.1-1,0.2c-0.3,0.2-0.5,0.4-0.6,0.7c-0.2,0.3-0.3,0.6-0.3,0.9c-0.1,0.4-0.1,0.7-0.1,1.1
		c0,0.4,0,0.8,0.1,1.1c0.1,0.4,0.2,0.7,0.3,1c0.1,0.3,0.3,0.5,0.6,0.6c0.3,0.2,0.6,0.3,1,0.3c0.5,0,0.9-0.1,1.2-0.4
		c0.3-0.3,0.4-0.7,0.5-1.2h2.6C700.7,128.8,700.3,129.7,699.6,130.4z"/>
	<path class="st1" d="M709.9,130.5c-0.7,0.6-1.7,0.8-3,0.8c-1.6,0-2.7-0.4-3.5-1.3c-0.8-0.9-1.2-2.1-1.2-3.7c0-0.8,0.1-1.5,0.3-2.1
		c0.2-0.6,0.6-1.1,1-1.6c0.4-0.4,0.9-0.8,1.5-1c0.6-0.2,1.2-0.3,1.9-0.3c1.4,0,2.5,0.4,3.3,1.2c0.7,0.8,1.1,1.9,1.1,3.3v1h-6.5
		c0,0.8,0.2,1.4,0.6,1.8c0.4,0.4,0.9,0.6,1.6,0.6c1,0,1.6-0.4,1.8-1.3h2.4C711,129.2,710.6,130,709.9,130.5z M708.4,123.8
		c-0.3-0.4-0.8-0.5-1.5-0.5c-0.3,0-0.6,0.1-0.9,0.2c-0.3,0.1-0.5,0.3-0.6,0.4c-0.2,0.2-0.3,0.4-0.4,0.6c-0.1,0.3-0.1,0.5-0.2,0.8
		h4.1C708.9,124.7,708.7,124.2,708.4,123.8z"/>
	<path class="st1" d="M719.6,121.7v1.3c0.3-0.5,0.7-0.9,1.1-1.1c0.5-0.2,0.9-0.4,1.4-0.4c0.2,0,0.4,0,0.6,0c0.2,0,0.3,0.1,0.4,0.1
		l-0.3,2.3c-0.3-0.1-0.6-0.1-1.1-0.1c-0.3,0-0.5,0-0.8,0.1c-0.3,0.1-0.5,0.2-0.7,0.4c-0.2,0.2-0.4,0.4-0.5,0.6
		c-0.1,0.2-0.2,0.5-0.2,0.7v5.4h-2.5v-9.4H719.6z"/>
	<path class="st1" d="M729,130.9c-0.5,0.3-1.1,0.4-1.8,0.4c-0.4,0-0.8-0.1-1.2-0.2c-0.4-0.1-0.7-0.3-1-0.5c-0.3-0.2-0.5-0.5-0.7-0.9
		c-0.2-0.3-0.3-0.8-0.3-1.3c0-0.6,0.1-1.2,0.4-1.6s0.7-0.7,1.1-1c0.5-0.2,1-0.4,1.6-0.5c0.6-0.1,1.2-0.2,1.8-0.2l1.2-0.1v-0.5
		c0-0.6-0.2-1-0.5-1.2c-0.3-0.2-0.7-0.3-1.1-0.3c-1,0-1.6,0.4-1.7,1.1l-2.3-0.2c0.2-1,0.6-1.7,1.3-2.1c0.7-0.4,1.6-0.6,2.8-0.6
		c0.7,0,1.3,0.1,1.8,0.3c0.5,0.2,0.9,0.4,1.2,0.8s0.5,0.7,0.7,1.2c0.1,0.5,0.2,1,0.2,1.6v5.9h-2.4v-1.2
		C729.9,130.3,729.5,130.7,729,130.9z M729.1,126.9c-0.5,0-1,0.1-1.3,0.2c-0.3,0.1-0.6,0.2-0.7,0.3c-0.2,0.1-0.3,0.3-0.4,0.5
		c-0.1,0.2-0.1,0.4-0.1,0.6c0,0.3,0.1,0.6,0.3,0.7c0.2,0.2,0.5,0.3,0.9,0.3c0.6,0,1.2-0.1,1.6-0.5c0.2-0.2,0.4-0.4,0.6-0.6
		c0.1-0.3,0.2-0.6,0.2-1v-0.5L729.1,126.9z"/>
	<path class="st1" d="M742.1,130.4c-0.7,0.7-1.7,1-3.1,1c-0.8,0-1.5-0.1-2.1-0.4c-0.6-0.2-1-0.6-1.4-1c-0.4-0.4-0.6-1-0.8-1.6
		c-0.2-0.6-0.3-1.3-0.3-2s0.1-1.4,0.3-2.1c0.2-0.6,0.5-1.1,0.9-1.6c0.4-0.4,0.9-0.8,1.5-1c0.6-0.2,1.2-0.4,2-0.4
		c0.6,0,1.2,0.1,1.7,0.2c0.5,0.2,0.9,0.4,1.2,0.7c0.3,0.3,0.6,0.6,0.8,1c0.2,0.4,0.3,0.8,0.4,1.3l-2.5,0.3c-0.1-0.5-0.2-0.9-0.4-1.2
		c-0.2-0.3-0.6-0.4-1.1-0.4c-0.4,0-0.7,0.1-1,0.2c-0.3,0.2-0.4,0.4-0.6,0.7c-0.2,0.3-0.3,0.6-0.3,0.9c-0.1,0.4-0.1,0.7-0.1,1.1
		c0,0.4,0,0.8,0.1,1.1c0.1,0.4,0.2,0.7,0.3,1c0.1,0.3,0.3,0.5,0.6,0.6c0.3,0.2,0.6,0.3,1,0.3c0.5,0,0.9-0.1,1.2-0.4
		c0.3-0.3,0.4-0.7,0.5-1.2h2.6C743.2,128.8,742.8,129.7,742.1,130.4z"/>
	<path class="st1" d="M752.4,130.5c-0.7,0.6-1.7,0.8-3,0.8c-1.6,0-2.7-0.4-3.5-1.3c-0.8-0.9-1.2-2.1-1.2-3.7c0-0.8,0.1-1.5,0.3-2.1
		c0.2-0.6,0.6-1.1,1-1.6c0.4-0.4,0.9-0.8,1.5-1c0.6-0.2,1.2-0.3,1.9-0.3c1.4,0,2.5,0.4,3.3,1.2c0.7,0.8,1.1,1.9,1.1,3.3v1h-6.5
		c0,0.8,0.2,1.4,0.6,1.8c0.4,0.4,0.9,0.6,1.6,0.6c1,0,1.6-0.4,1.8-1.3h2.4C753.5,129.2,753.1,130,752.4,130.5z M750.9,123.8
		c-0.3-0.4-0.8-0.5-1.5-0.5c-0.3,0-0.6,0.1-0.9,0.2c-0.3,0.1-0.5,0.3-0.6,0.4c-0.2,0.2-0.3,0.4-0.4,0.6c-0.1,0.3-0.1,0.5-0.2,0.8
		h4.1C751.3,124.7,751.2,124.2,750.9,123.8z"/>
	<path class="st1" d="M767,130.5c-0.7,0.6-1.7,0.8-3,0.8c-1.6,0-2.7-0.4-3.5-1.3c-0.8-0.9-1.2-2.1-1.2-3.7c0-0.8,0.1-1.5,0.3-2.1
		c0.2-0.6,0.6-1.1,1-1.6c0.4-0.4,0.9-0.8,1.5-1c0.6-0.2,1.2-0.3,1.9-0.3c1.4,0,2.5,0.4,3.3,1.2c0.7,0.8,1.1,1.9,1.1,3.3v1h-6.5
		c0,0.8,0.2,1.4,0.6,1.8c0.4,0.4,0.9,0.6,1.6,0.6c1,0,1.6-0.4,1.8-1.3h2.4C768.1,129.2,767.7,130,767,130.5z M765.5,123.8
		c-0.3-0.4-0.8-0.5-1.5-0.5c-0.3,0-0.6,0.1-0.9,0.2c-0.3,0.1-0.5,0.3-0.6,0.4c-0.2,0.2-0.3,0.4-0.4,0.6c-0.1,0.3-0.1,0.5-0.2,0.8
		h4.1C765.9,124.7,765.8,124.2,765.5,123.8z"/>
	<path class="st1" d="M772.7,121.7v1.3c0.3-0.5,0.7-0.9,1.1-1.1c0.5-0.2,0.9-0.4,1.4-0.4c0.2,0,0.4,0,0.6,0c0.2,0,0.3,0.1,0.4,0.1
		l-0.3,2.3c-0.3-0.1-0.6-0.1-1.1-0.1c-0.3,0-0.5,0-0.8,0.1c-0.3,0.1-0.5,0.2-0.7,0.4c-0.2,0.2-0.4,0.4-0.5,0.6
		c-0.1,0.2-0.2,0.5-0.2,0.7v5.4h-2.5v-9.4H772.7z"/>
	<path class="st1" d="M782.1,130.9c-0.5,0.3-1.1,0.4-1.8,0.4c-0.4,0-0.8-0.1-1.2-0.2c-0.4-0.1-0.7-0.3-1-0.5
		c-0.3-0.2-0.5-0.5-0.7-0.9c-0.2-0.3-0.3-0.8-0.3-1.3c0-0.6,0.1-1.2,0.4-1.6s0.7-0.7,1.1-1c0.5-0.2,1-0.4,1.6-0.5
		c0.6-0.1,1.2-0.2,1.8-0.2l1.2-0.1v-0.5c0-0.6-0.2-1-0.5-1.2c-0.3-0.2-0.7-0.3-1.1-0.3c-1,0-1.6,0.4-1.7,1.1l-2.3-0.2
		c0.2-1,0.6-1.7,1.3-2.1c0.7-0.4,1.6-0.6,2.8-0.6c0.7,0,1.3,0.1,1.8,0.3c0.5,0.2,0.9,0.4,1.2,0.8s0.5,0.7,0.7,1.2
		c0.1,0.5,0.2,1,0.2,1.6v5.9h-2.4v-1.2C783,130.3,782.6,130.7,782.1,130.9z M782.2,126.9c-0.5,0-1,0.1-1.3,0.2
		c-0.3,0.1-0.6,0.2-0.7,0.3c-0.2,0.1-0.3,0.3-0.4,0.5s-0.1,0.4-0.1,0.6c0,0.3,0.1,0.6,0.3,0.7c0.2,0.2,0.5,0.3,0.9,0.3
		c0.6,0,1.2-0.1,1.6-0.5c0.2-0.2,0.4-0.4,0.6-0.6c0.1-0.3,0.2-0.6,0.2-1v-0.5L782.2,126.9z"/>
	<path class="st1" d="M794.2,125.7c0.1-0.3,0.2-0.5,0.4-0.8c0.2-0.2,0.3-0.5,0.5-0.6c0.2-0.2,0.4-0.4,0.6-0.6l0.5-0.5
		c0.1-0.1,0.3-0.3,0.4-0.5s0.2-0.3,0.3-0.5c0.1-0.2,0.1-0.4,0.1-0.7c0-0.5-0.1-0.8-0.4-1.1c-0.3-0.3-0.6-0.4-1.1-0.4
		c-0.6,0-1.1,0.1-1.4,0.4c-0.3,0.3-0.6,0.8-0.7,1.5l-2.3-0.3c0.1-0.5,0.3-1,0.5-1.5c0.2-0.5,0.5-0.8,0.8-1.2
		c0.3-0.3,0.8-0.6,1.3-0.8c0.5-0.2,1.1-0.3,1.9-0.3c1.3,0,2.3,0.3,3,0.9c0.7,0.6,1.1,1.4,1.1,2.4c0,0.4,0,0.7-0.1,1
		c-0.1,0.3-0.2,0.5-0.3,0.8c-0.1,0.2-0.3,0.4-0.5,0.6c-0.2,0.2-0.3,0.4-0.5,0.5l-0.6,0.6c-0.2,0.2-0.4,0.4-0.5,0.6s-0.3,0.4-0.3,0.6
		c-0.1,0.2-0.1,0.5-0.1,0.7v0.3H794v-0.4C794,126.3,794.1,126,794.2,125.7z M796.5,128.2v2.9H794v-2.9H796.5z"/>
</g>
<g id="Focus_x5F_Button">
	
		<rect x="843" y="95.4" transform="matrix(0.7071 0.7071 -0.7071 0.7071 331.3782 -575.1876)" class="st2" width="33.9" height="33.9"/>
	<path class="st1" d="M853.9,114v-3.1h4.5V106h3.2v4.8h4.5v3.1h-4.5v4.8h-3.2V114H853.9z"/>
</g>
<g id="_x30_3-HABITAT">
	
		<linearGradient id="SVGID_1_" gradientUnits="userSpaceOnUse" x1="1011.1688" y1="-621.1498" x2="1011.1688" y2="-655.5674" gradientTransform="matrix(1 0 0 -1 0 -490.7373)">
		<stop  offset="0" style="stop-color:#FFFFFF;stop-opacity:0.15"/>
		<stop  offset="4.311527e-02" style="stop-color:#F4F4F4;stop-opacity:0.1371"/>
		<stop  offset="0.1189" style="stop-color:#D7D7D7;stop-opacity:0.1143"/>
		<stop  offset="0.2185" style="stop-color:#A7A7A7;stop-opacity:8.446471e-02"/>
		<stop  offset="0.3379" style="stop-color:#656565;stop-opacity:4.862081e-02"/>
		<stop  offset="0.4729" style="stop-color:#121212;stop-opacity:8.116245e-03"/>
		<stop  offset="0.5" style="stop-color:#000000;stop-opacity:0"/>
		<stop  offset="0.5401" style="stop-color:#1A1A1A;stop-opacity:1.187765e-02"/>
		<stop  offset="0.6695" style="stop-color:#686868;stop-opacity:5.020666e-02"/>
		<stop  offset="0.7848" style="stop-color:#A6A6A6;stop-opacity:8.434800e-02"/>
		<stop  offset="0.8817" style="stop-color:#D2D2D2;stop-opacity:0.113"/>
		<stop  offset="0.9564" style="stop-color:#EEEEEE;stop-opacity:0.1352"/>
		<stop  offset="1" style="stop-color:#F8F8F8;stop-opacity:0.1481"/>
	</linearGradient>
	<polygon class="st3" points="1102.4,130.4 937.2,130.4 920,147.6 920,164.8 1093.8,164.8 1102.4,156.2 	"/>
	<polygon class="st4" points="930.7,130.4 920,130.4 920,141.2 	"/>
	<g>
		<path class="st1" d="M1102.2,176.8c-1.1-1.4-1.7-3.6-1.7-6.6c0-1.5,0.1-2.8,0.5-3.9c0.3-1.1,0.7-2,1.3-2.7c0.6-0.7,1.2-1.2,2-1.6
			c0.8-0.3,1.7-0.5,2.6-0.5c2,0,3.5,0.7,4.6,2.1c1.1,1.4,1.6,3.6,1.6,6.6c0,3-0.6,5.2-1.7,6.6c-1.1,1.4-2.7,2.1-4.7,2.1
			C1104.8,178.9,1103.3,178.2,1102.2,176.8z M1108.2,175.5c0.4-0.3,0.6-0.6,0.9-1.2s0.4-1.1,0.5-1.8c0.1-0.7,0.1-1.5,0.1-2.4
			s0-1.7-0.1-2.4c-0.1-0.7-0.3-1.3-0.5-1.8s-0.5-0.9-0.9-1.2s-0.8-0.4-1.3-0.4c-0.5,0-1,0.1-1.3,0.4c-0.4,0.3-0.6,0.6-0.8,1.2
			c-0.2,0.5-0.4,1.1-0.5,1.8c-0.1,0.7-0.1,1.5-0.1,2.4s0,1.7,0.1,2.4c0.1,0.7,0.3,1.3,0.5,1.8c0.2,0.5,0.5,0.9,0.8,1.2
			c0.4,0.3,0.8,0.4,1.3,0.4C1107.4,175.9,1107.8,175.8,1108.2,175.5z"/>
		<path class="st1" d="M1117.9,175.4c0.5,0.4,1.1,0.6,2,0.6c0.8,0,1.4-0.2,1.9-0.6c0.5-0.4,0.7-0.9,0.7-1.8c0-0.8-0.2-1.4-0.6-1.8
			c-0.4-0.4-1.1-0.5-2-0.5h-1.7v-3h1.9c1.4,0,2.1-0.7,2.1-2.1c0-0.3,0-0.5-0.1-0.8c-0.1-0.2-0.2-0.5-0.4-0.6
			c-0.2-0.2-0.4-0.3-0.7-0.4c-0.3-0.1-0.6-0.1-1.1-0.1c-0.8,0-1.4,0.2-1.8,0.5c-0.5,0.4-0.8,1-1,1.9l-3.2-0.4
			c0.1-0.7,0.4-1.3,0.6-1.9c0.3-0.6,0.6-1.1,1.2-1.5c0.5-0.4,1.1-0.8,1.8-1c0.7-0.2,1.5-0.4,2.5-0.4c0.9,0,1.8,0.1,2.5,0.3
			c0.7,0.2,1.3,0.6,1.8,1c0.5,0.4,0.8,0.9,1.1,1.4c0.2,0.6,0.3,1.2,0.3,1.8c0,0.8-0.2,1.5-0.5,2.2c-0.4,0.6-0.9,1.2-1.7,1.6
			c1,0.4,1.6,0.9,2,1.6c0.4,0.7,0.6,1.5,0.6,2.3c0,0.8-0.1,1.5-0.3,2.2c-0.2,0.6-0.6,1.2-1.1,1.7c-0.5,0.5-1.1,0.8-1.9,1.1
			c-0.7,0.3-1.7,0.4-2.7,0.4c-1.2,0-2.2-0.2-3-0.5c-0.8-0.3-1.4-0.8-1.9-1.3c-0.5-0.6-0.8-1.2-1-1.8c-0.2-0.7-0.3-1.3-0.4-2h3.4
			C1117.2,174.2,1117.4,175,1117.9,175.4z"/>
	</g>
</g>
<g id="_x30_2-COMPANIES">
	
		<linearGradient id="SVGID_2_" gradientUnits="userSpaceOnUse" x1="1242.0634" y1="-621.1498" x2="1242.0634" y2="-655.5674" gradientTransform="matrix(1 0 0 -1 0 -490.7373)">
		<stop  offset="0" style="stop-color:#FFFFFF;stop-opacity:0.15"/>
		<stop  offset="4.311527e-02" style="stop-color:#F4F4F4;stop-opacity:0.1371"/>
		<stop  offset="0.1189" style="stop-color:#D7D7D7;stop-opacity:0.1143"/>
		<stop  offset="0.2185" style="stop-color:#A7A7A7;stop-opacity:8.446471e-02"/>
		<stop  offset="0.3379" style="stop-color:#656565;stop-opacity:4.862081e-02"/>
		<stop  offset="0.4729" style="stop-color:#121212;stop-opacity:8.116245e-03"/>
		<stop  offset="0.5" style="stop-color:#000000;stop-opacity:0"/>
		<stop  offset="0.5401" style="stop-color:#1A1A1A;stop-opacity:1.187765e-02"/>
		<stop  offset="0.6695" style="stop-color:#686868;stop-opacity:5.020666e-02"/>
		<stop  offset="0.7848" style="stop-color:#A6A6A6;stop-opacity:8.434800e-02"/>
		<stop  offset="0.8817" style="stop-color:#D2D2D2;stop-opacity:0.113"/>
		<stop  offset="0.9564" style="stop-color:#EEEEEE;stop-opacity:0.1352"/>
		<stop  offset="1" style="stop-color:#F8F8F8;stop-opacity:0.1481"/>
	</linearGradient>
	<polygon class="st5" points="1333.3,130.4 1168.1,130.4 1150.9,147.6 1150.9,164.8 1324.7,164.8 1333.3,156.2 	"/>
	<polygon class="st4" points="1161.6,130.4 1150.9,130.4 1150.9,141.2 	"/>
	<g>
		<path class="st1" d="M1333.1,176.8c-1.1-1.4-1.7-3.6-1.7-6.6c0-1.5,0.1-2.8,0.5-3.9c0.3-1.1,0.7-2,1.3-2.7c0.6-0.7,1.2-1.2,2-1.6
			c0.8-0.3,1.7-0.5,2.6-0.5c2,0,3.5,0.7,4.6,2.1c1.1,1.4,1.6,3.6,1.6,6.6c0,3-0.6,5.2-1.7,6.6c-1.1,1.4-2.7,2.1-4.7,2.1
			C1335.7,178.9,1334.2,178.2,1333.1,176.8z M1339.1,175.5c0.4-0.3,0.6-0.6,0.9-1.2s0.4-1.1,0.5-1.8c0.1-0.7,0.1-1.5,0.1-2.4
			s0-1.7-0.1-2.4c-0.1-0.7-0.3-1.3-0.5-1.8s-0.5-0.9-0.9-1.2s-0.8-0.4-1.3-0.4c-0.5,0-1,0.1-1.3,0.4c-0.4,0.3-0.6,0.6-0.8,1.2
			c-0.2,0.5-0.4,1.1-0.5,1.8c-0.1,0.7-0.1,1.5-0.1,2.4s0,1.7,0.1,2.4c0.1,0.7,0.3,1.3,0.5,1.8c0.2,0.5,0.5,0.9,0.8,1.2
			c0.4,0.3,0.8,0.4,1.3,0.4C1338.3,175.9,1338.7,175.8,1339.1,175.5z"/>
		<path class="st1" d="M1346.9,174.2c0.7-0.6,1.3-1.1,2-1.7c0.7-0.6,1.3-1.1,1.8-1.6c0.5-0.5,0.9-0.9,1.2-1.4s0.6-0.9,0.8-1.3
			c0.2-0.4,0.2-0.9,0.2-1.4c0-0.7-0.2-1.2-0.6-1.7c-0.4-0.4-0.9-0.6-1.6-0.6c-0.8,0-1.4,0.2-1.9,0.5s-0.8,1.1-1,2.1l-3.3-0.4
			c0.1-0.7,0.4-1.3,0.6-2c0.3-0.6,0.6-1.2,1.1-1.6c0.5-0.5,1.1-0.8,1.8-1.1s1.6-0.4,2.7-0.4c1.8,0,3.3,0.5,4.2,1.4s1.4,2.2,1.4,3.7
			c0,0.7-0.1,1.3-0.2,1.8c-0.2,0.6-0.4,1.1-0.8,1.7s-0.8,1.1-1.3,1.6c-0.5,0.6-1.2,1.2-1.9,1.8c-0.4,0.3-0.8,0.6-1.2,1
			c-0.4,0.3-0.8,0.7-1.3,1.1h6.8l-0.4,2.9h-11.5v-2.5C1345.5,175.3,1346.2,174.7,1346.9,174.2z"/>
	</g>
</g>
<g id="_x30_1_x2013_DESTINATION">
	
		<linearGradient id="SVGID_3_" gradientUnits="userSpaceOnUse" x1="1468.8027" y1="-621.1498" x2="1468.8027" y2="-655.5674" gradientTransform="matrix(1 0 0 -1 0 -490.7373)">
		<stop  offset="0" style="stop-color:#FFFFFF;stop-opacity:0.15"/>
		<stop  offset="4.311527e-02" style="stop-color:#F4F4F4;stop-opacity:0.1371"/>
		<stop  offset="0.1189" style="stop-color:#D7D7D7;stop-opacity:0.1143"/>
		<stop  offset="0.2185" style="stop-color:#A7A7A7;stop-opacity:8.446471e-02"/>
		<stop  offset="0.3379" style="stop-color:#656565;stop-opacity:4.862081e-02"/>
		<stop  offset="0.4729" style="stop-color:#121212;stop-opacity:8.116245e-03"/>
		<stop  offset="0.5" style="stop-color:#000000;stop-opacity:0"/>
		<stop  offset="0.5401" style="stop-color:#1A1A1A;stop-opacity:1.187765e-02"/>
		<stop  offset="0.6695" style="stop-color:#686868;stop-opacity:5.020666e-02"/>
		<stop  offset="0.7848" style="stop-color:#A6A6A6;stop-opacity:8.434800e-02"/>
		<stop  offset="0.8817" style="stop-color:#D2D2D2;stop-opacity:0.113"/>
		<stop  offset="0.9564" style="stop-color:#EEEEEE;stop-opacity:0.1352"/>
		<stop  offset="1" style="stop-color:#F8F8F8;stop-opacity:0.1481"/>
	</linearGradient>
	<polygon class="st6" points="1560,130.4 1394.8,130.4 1377.6,147.6 1377.6,164.8 1551.4,164.8 1560,156.2 	"/>
	<polygon class="st4" points="1388.4,130.4 1377.6,130.4 1377.6,141.2 	"/>
	<g>
		<path class="st1" d="M1559.9,176.8c-1.1-1.4-1.7-3.6-1.7-6.6c0-1.5,0.1-2.8,0.5-3.9c0.3-1.1,0.7-2,1.3-2.7c0.6-0.7,1.2-1.2,2-1.6
			c0.8-0.3,1.7-0.5,2.6-0.5c2,0,3.5,0.7,4.6,2.1c1.1,1.4,1.6,3.6,1.6,6.6c0,3-0.6,5.2-1.7,6.6c-1.1,1.4-2.7,2.1-4.7,2.1
			C1562.5,178.9,1560.9,178.2,1559.9,176.8z M1565.8,175.5c0.4-0.3,0.6-0.6,0.9-1.2s0.4-1.1,0.5-1.8c0.1-0.7,0.1-1.5,0.1-2.4
			s0-1.7-0.1-2.4c-0.1-0.7-0.3-1.3-0.5-1.8s-0.5-0.9-0.9-1.2s-0.8-0.4-1.3-0.4c-0.5,0-1,0.1-1.3,0.4c-0.4,0.3-0.6,0.6-0.8,1.2
			c-0.2,0.5-0.4,1.1-0.5,1.8c-0.1,0.7-0.1,1.5-0.1,2.4s0,1.7,0.1,2.4c0.1,0.7,0.3,1.3,0.5,1.8c0.2,0.5,0.5,0.9,0.8,1.2
			c0.4,0.3,0.8,0.4,1.3,0.4C1565,175.9,1565.5,175.8,1565.8,175.5z"/>
		<path class="st1" d="M1573.8,167.7l-1.5-2.5l5.3-3.4h2.9v16.6h-3.4v-12.7L1573.8,167.7z"/>
	</g>
</g>
<line id="Line" class="st7" x1="920" y1="112.4" x2="1560" y2="112.4"/>
<g id="COMPANIES">
	<path class="st1" d="M1307.7,88c-0.7,1.6-1.6,2.9-2.8,4c-1.2,1.2-2.7,2.1-4.4,2.7c-1.8,0.6-3.8,1-6.1,1c-2.6,0-4.8-0.4-6.8-1.3
		c-2-0.9-3.6-2.1-4.9-3.6c-1.3-1.6-2.4-3.5-3-5.7c-0.7-2.2-1-4.7-1-7.3c0-2.8,0.4-5.3,1.1-7.5c0.7-2.2,1.8-4.1,3.2-5.7
		c1.4-1.6,3-2.8,5-3.6c2-0.8,4.2-1.2,6.6-1.2c2.2,0,4.1,0.3,5.7,0.8c1.6,0.5,3,1.3,4.1,2.4c1.1,1,2,2.3,2.6,3.7s1.2,3.1,1.5,4.8
		l-7.1,0.9c-0.3-2-1-3.6-2-4.8c-1-1.2-2.6-1.7-4.8-1.7c-2.7,0-4.8,1-6.2,3.1c-1.4,2.1-2.2,5-2.2,8.8c0,3.8,0.8,6.7,2.3,8.8
		c1.5,2.1,3.6,3.1,6.1,3.1c2.2,0,3.8-0.6,4.9-1.7c1-1.1,1.7-2.7,1.9-4.8h7.7C1308.9,84.8,1308.4,86.4,1307.7,88z"/>
	<path class="st1" d="M1322.3,94.4c-2-0.8-3.7-2-5.1-3.6c-1.4-1.6-2.5-3.5-3.2-5.7c-0.8-2.2-1.2-4.7-1.2-7.5s0.4-5.3,1.2-7.5
		c0.7-2.2,1.8-4.1,3.3-5.7c1.4-1.6,3.1-2.8,5.1-3.6c2-0.8,4.3-1.2,6.8-1.2c2.5,0,4.8,0.4,6.9,1.2c2,0.8,3.7,2,5.1,3.6
		c1.4,1.6,2.4,3.5,3.2,5.7c0.7,2.2,1.1,4.7,1.1,7.5s-0.3,5.3-1.1,7.5c-0.7,2.2-1.8,4.1-3.2,5.7c-1.4,1.6-3.1,2.8-5.1,3.6
		c-2,0.8-4.3,1.2-6.9,1.2C1326.7,95.7,1324.4,95.2,1322.3,94.4z M1335.9,86.4c1.5-2.1,2.2-5,2.2-8.8c0-3.8-0.7-6.7-2.2-8.8
		c-1.5-2.1-3.7-3.1-6.7-3.1s-5.2,1-6.7,3.1c-1.5,2.1-2.2,5-2.2,8.8c0,3.8,0.7,6.7,2.2,8.8s3.7,3.1,6.7,3.1S1334.4,88.5,1335.9,86.4z
		"/>
	<path class="st1" d="M1360,60.5l8.5,25.6l8.8-25.6h8.4v34.3h-6.6V71.9l-7.8,22.8h-5.6l-7.9-22.8v22.8h-6.4V60.5H1360z"/>
	<path class="st1" d="M1404.9,60.5c2.6,0,4.8,0.3,6.5,0.9c1.7,0.6,3.1,1.4,4.1,2.4c1,1,1.7,2.1,2.1,3.4c0.4,1.3,0.6,2.7,0.6,4.1
		c0,1.5-0.2,2.9-0.6,4.3c-0.4,1.4-1.1,2.6-2.1,3.6c-1,1.1-2.4,1.9-4,2.5c-1.7,0.6-3.8,0.9-6.4,0.9h-5.4v12.2h-7.1V60.5H1404.9z
		 M1408,76.2c0.8-0.2,1.4-0.6,1.9-1.1c0.5-0.4,0.8-1,1-1.7c0.1-0.6,0.2-1.3,0.2-2.1c0-0.8-0.1-1.5-0.3-2.1c-0.2-0.6-0.5-1.1-1-1.5
		c-0.5-0.4-1.1-0.7-1.9-1c-0.8-0.2-1.9-0.3-3.1-0.3h-5.1v10.2h5.1C1406.1,76.6,1407.2,76.5,1408,76.2z"/>
	<path class="st1" d="M1440,60.5l12.9,34.3h-7.7l-2.7-7.9h-12l-2.7,7.9h-7.4l12.9-34.3H1440z M1436.4,68.7l-4.1,12.3h8.3
		L1436.4,68.7z"/>
	<path class="st1" d="M1463.3,60.5l14.1,22.5V60.5h7v34.3h-6.4l-14.2-22.3v22.3h-7V60.5H1463.3z"/>
	<path class="st1" d="M1498.5,60.5v34.3h-7.2V60.5H1498.5z"/>
	<path class="st1" d="M1528.9,60.5v6.1h-16.2v7.5h15.3v6.1h-15.3v8.4h17.2l-0.7,6.1h-23.7V60.5H1528.9z"/>
	<path class="st1" d="M1541.7,88.2c1.2,1,2.9,1.4,5.3,1.4c1.1,0,2.1-0.1,2.8-0.4c0.8-0.2,1.4-0.5,1.9-1c0.5-0.4,0.8-0.9,1.1-1.4
		c0.2-0.5,0.3-1.2,0.3-1.8c0-0.9-0.3-1.7-1-2.5c-0.7-0.8-1.9-1.3-3.7-1.7l-4.5-0.8c-1.8-0.3-3.3-0.7-4.7-1.2c-1.3-0.5-2.4-1.2-3.4-2
		c-0.9-0.8-1.6-1.8-2.1-3s-0.7-2.6-0.7-4.2s0.3-3.1,1-4.3c0.6-1.2,1.5-2.3,2.7-3.1c1.2-0.8,2.5-1.5,4.2-1.9c1.6-0.4,3.4-0.6,5.4-0.6
		c2.5,0,4.6,0.3,6.2,0.9c1.7,0.6,3,1.3,4,2.3c1,1,1.8,2.1,2.3,3.3c0.5,1.2,0.8,2.5,1,3.9l-6.8,0.9c-0.3-1.9-1-3.3-2-4.1
		c-1-0.8-2.5-1.2-4.6-1.2c-1.2,0-2.2,0.1-3,0.3c-0.8,0.2-1.4,0.5-1.9,0.8c-0.5,0.3-0.8,0.8-1,1.2c-0.2,0.4-0.3,0.9-0.3,1.4
		c0,1.3,0.4,2.3,1.1,2.9c0.7,0.6,1.9,1.2,3.6,1.5l4.7,0.9c3.7,0.7,6.4,1.9,8.2,3.6c1.7,1.7,2.6,4,2.6,7.2c0,1.5-0.3,2.9-0.8,4.1
		c-0.6,1.3-1.4,2.4-2.5,3.3c-1.1,1-2.5,1.7-4.2,2.3c-1.7,0.5-3.6,0.8-5.9,0.8c-4.7,0-8.3-1-10.7-3c-2.5-2-3.8-5-4-9h7.2
		C1539.8,85.7,1540.5,87.3,1541.7,88.2z"/>
</g>
<g id="_x30_2">
	<path class="st7" d="M1610.2,152c-6.6-8.5-9.9-21.7-9.9-39.7c0-9.1,0.9-16.8,2.7-23.5c1.7-6.5,4.3-12,7.6-16.3
		c3.3-4.3,7.2-7.5,12-9.6c4.8-2,9.9-3,15.8-3c12,0,21.2,4.2,27.8,12.7c6.5,8.5,9.8,21.7,9.8,39.7c0,18-3.3,31.2-9.9,39.7
		c-6.8,8.5-16.1,12.7-28.2,12.7C1625.9,164.7,1616.7,160.5,1610.2,152z M1646,144.6c2.2-1.6,3.9-3.9,5.2-6.9c1.3-3,2.3-6.6,2.9-10.9
		c0.6-4.2,0.9-9.1,0.9-14.5s-0.3-10.4-0.9-14.7c-0.6-4.2-1.6-7.9-2.9-10.9c-1.3-3-3-5.3-5.2-6.9s-4.9-2.3-8.1-2.3s-5.8,0.7-7.9,2.3
		s-3.7,3.9-5,6.9c-1.3,3-2.3,6.8-2.9,10.9c-0.6,4.3-0.9,9.2-0.9,14.7s0.3,10.4,0.9,14.5c0.6,4.3,1.6,7.9,2.9,10.9
		c1.3,3,2.9,5.3,5,6.9s4.8,2.4,7.9,2.4S1643.9,146.2,1646,144.6z"/>
	<path class="st7" d="M1699.9,136.4c4-3.3,8.1-6.8,12.2-10.4c4-3.6,7.6-6.8,10.7-9.6c3-2.9,5.5-5.6,7.5-8.4s3.6-5.3,4.6-8.1
		c1-2.6,1.4-5.5,1.4-8.6c0-4.2-1.2-7.5-3.5-10.2c-2.4-2.6-5.6-3.9-9.6-3.9c-4.8,0-8.5,1-11.2,3.2c-2.7,2.2-4.9,6.3-6.2,12.4
		l-19.6-2.3c0.9-4.2,2.2-8.1,3.7-11.8c1.6-3.6,3.9-6.9,6.8-9.8c2.7-2.7,6.3-5,10.7-6.6s9.6-2.4,16-2.4c11.1,0,19.6,2.7,25.3,8.2
		s8.6,13,8.6,22.3c0,4-0.4,7.8-1.4,11.1c-1,3.5-2.6,6.8-4.6,10.1c-2,3.3-4.6,6.5-7.6,9.8c-3.2,3.3-6.9,6.9-11.2,10.8
		c-2.3,1.9-4.6,3.9-6.9,5.8c-2.4,1.9-4.9,4.2-7.6,6.6h40.9l-2.2,17.6h-69v-15.1C1691.8,143.3,1695.9,139.7,1699.9,136.4z"/>
</g>
</svg>
