<?xml version="1.0" encoding="utf-8"?>
<!-- Generator: Adobe Illustrator 23.0.1, SVG Export Plug-In . SVG Version: 6.00 Build 0)  -->
<svg version="1.1" id="Livello_1" xmlns="http://www.w3.org/2000/svg" xmlns:xlink="http://www.w3.org/1999/xlink" x="0px" y="0px"
	 viewBox="0 0 1953 125" style="enable-background:new 0 0 1953 125;" xml:space="preserve">
<style type="text/css">
	.st0{fill:#1B2029;}
	.st1{fill:#4A74FF;}
	.st2{fill:#FF3603;}
	.st3{fill:#F2D51E;}
	.st4{enable-background:new    ;}
	.st5{fill:#FFFFFF;}
	.st6{fill:#58626B;}
</style>
<g>
	<rect x="1" class="st0" width="1952.2" height="125"/>
</g>
<g>
	<rect x="0.9" y="52.3" class="st1" width="1501.8" height="4.3"/>
	<rect x="1572.9" y="52.1" class="st2" width="192" height="4.6"/>
	<rect x="1835.8" y="52.1" class="st3" width="117.2" height="4.9"/>
	<g>
		<g class="st4">
			<path class="st5" d="M8.3,20.8l4.5,14.4h-2.2l-1-3.4H3.8l-1,3.4H0.5L5,20.8H8.3z M9,29.9l-2.2-7.2H6.5l-2.2,7.2H9z"/>
			<path class="st5" d="M19.4,20.8l4.5,12.5h0.2V20.8h2.1v14.4h-3.8l-4.4-12.5h-0.2v12.5h-2.1V20.8H19.4z"/>
			<path class="st5" d="M40.4,20.8v1.9h-4.6v12.5h-2.1V22.7H29v-1.9H40.4z"/>
			<path class="st5" d="M45.3,20.8v14.4h-2.1V20.8H45.3z"/>
			<path class="st5" d="M58.2,20.8v1.9h-6.9V27h6.5v1.9h-6.5v6.3h-2.1V20.8H58.2z"/>
			<path class="st5" d="M70.3,20.8v1.9h-7.1V27h6.6v1.9h-6.6v4.4h7.2v1.9h-9.3V20.8H70.3z"/>
			<path class="st5" d="M77.3,20.8L81,33.1h0.2l3.7-12.2h3.7v14.4h-2.1V23h-0.2l-3.6,12.2h-3.1L75.9,23h-0.2v12.2h-2.1V20.8H77.3z"
				/>
			<path class="st5" d="M94.6,20.8v14.4h-2.1V20.8H94.6z"/>
			<path class="st5" d="M102.3,20.8l4.5,12.5h0.2V20.8h2.1v14.4h-3.8l-4.4-12.5h-0.2v12.5h-2.1V20.8H102.3z"/>
			<path class="st5" d="M115,20.8v14.4H113V20.8H115z"/>
			<path class="st5" d="M128.9,25.1v0.7h-2.1v-0.5c0-1.8-1.3-2.8-3.2-2.8c-1.6,0-2.8,0.8-2.8,2.1c0,1.3,0.9,1.8,2.9,2.3l0.9,0.2
				c2.7,0.6,4.3,1.7,4.3,4.2c0,2.6-2.2,4.3-5.1,4.3c-3.5,0-5.7-2.1-5.7-5.2v-0.7h2.1v0.5c0,2.3,1.3,3.5,3.7,3.5c1.9,0,3.1-1,3.1-2.4
				s-0.9-1.9-2.8-2.3l-0.9-0.2c-2.6-0.6-4.4-1.5-4.4-4.2c0-2.4,2.1-4,4.8-4C126.6,20.5,128.9,22.1,128.9,25.1z"/>
			<path class="st5" d="M142.4,20.8v1.9h-4.6v12.5h-2.1V22.7h-4.6v-1.9H142.4z"/>
		</g>
		<g class="st4">
			<path class="st6" d="M10.8,70v1.8L5.2,84.4H2.9l5.6-12.5H0.6V70H10.8z"/>
			<path class="st6" d="M18.2,69.7c3,0,5,1.6,5,3.9c0,2-1.4,2.9-2.4,3.2V77c1.1,0.3,2.7,1.4,2.7,3.5c0,2.5-2.2,4.2-5.3,4.2
				c-3.1,0-5.3-1.7-5.3-4.2c0-2.1,1.6-3.2,2.7-3.5v-0.2c-1-0.3-2.4-1.2-2.4-3.2C13.2,71.3,15.2,69.7,18.2,69.7z M18.2,82.8
				c1.9,0,3.2-0.9,3.2-2.5s-1.3-2.5-3.2-2.5S15,78.8,15,80.3S16.3,82.8,18.2,82.8z M18.2,76c1.8,0,3-0.9,3-2.2s-1.1-2.2-3-2.2
				c-1.8,0-3,0.9-3,2.2S16.4,76,18.2,76z"/>
			<path class="st6" d="M35,70l3.7,12.5h0.2L42.6,70h2.2l-4.4,14.4h-3.2L32.7,70H35z"/>
			<path class="st6" d="M49.6,70v14.4h-2.1V70H49.6z"/>
			<path class="st6" d="M58,70c3.7,0,5.8,1.8,5.8,5.6v3.2c0,3.7-2.2,5.6-5.8,5.6h-4.4V70H58z M55.6,82.5h2.3c2.5,0,3.8-1.1,3.8-3.7
				v-3.1c0-2.6-1.3-3.7-3.8-3.7h-2.3V82.5z"/>
			<path class="st6" d="M76.4,70v1.9h-7.1v4.3h6.6v1.9h-6.6v4.4h7.2v1.9h-9.3V70H76.4z"/>
			<path class="st6" d="M84.9,69.7c3.4,0,5.6,2.2,5.6,5.9v3.2c0,3.7-2.1,5.9-5.6,5.9s-5.6-2.2-5.6-5.9v-3.2
				C79.3,71.9,81.4,69.7,84.9,69.7z M81.4,78.9c0,2.5,1.1,3.9,3.5,3.9s3.5-1.4,3.5-3.9v-3.3c0-2.5-1.1-3.9-3.5-3.9s-3.5,1.4-3.5,3.9
				V78.9z"/>
			<path class="st6" d="M103.8,74.3v0.7h-2.1v-0.5c0-1.8-1.3-2.8-3.2-2.8c-1.6,0-2.8,0.8-2.8,2.1c0,1.3,0.9,1.8,2.9,2.3l0.9,0.2
				c2.7,0.6,4.3,1.7,4.3,4.2c0,2.6-2.2,4.3-5.1,4.3c-3.5,0-5.7-2.1-5.7-5.2v-0.7h2.1v0.5c0,2.3,1.3,3.5,3.7,3.5c1.9,0,3.1-1,3.1-2.4
				s-0.9-1.9-2.8-2.3l-0.9-0.2c-2.6-0.6-4.4-1.5-4.4-4.2c0-2.4,2.1-4,4.8-4C101.5,69.7,103.8,71.3,103.8,74.3z"/>
		</g>
	</g>
	<g>
		<g class="st4">
			<path class="st5" d="M1583.3,20.8v1.9h-6.9V27h6.5v1.9h-6.5v6.3h-2.1V20.8H1583.3z"/>
			<path class="st5" d="M1595.4,20.8v1.9h-7.1V27h6.6v1.9h-6.6v4.4h7.2v1.9h-9.3V20.8H1595.4z"/>
			<path class="st5" d="M1602.5,20.8l3.7,12.2h0.2l3.7-12.2h3.7v14.4h-2.1V23h-0.2l-3.6,12.2h-3.1l-3.6-12.2h-0.2v12.2h-2.1V20.8
				H1602.5z"/>
			<path class="st5" d="M1619.7,20.8v14.4h-2.1V20.8H1619.7z"/>
			<path class="st5" d="M1627.4,20.8l4.5,12.5h0.2V20.8h2.1v14.4h-3.8l-4.4-12.5h-0.2v12.5h-2.1V20.8H1627.4z"/>
			<path class="st5" d="M1640.2,20.8v14.4h-2.1V20.8H1640.2z"/>
			<path class="st5" d="M1654,25.1v0.7h-2.1v-0.5c0-1.8-1.3-2.8-3.2-2.8c-1.6,0-2.8,0.8-2.8,2.1c0,1.3,0.9,1.8,2.9,2.3l0.9,0.2
				c2.7,0.6,4.3,1.7,4.3,4.2c0,2.6-2.2,4.3-5.1,4.3c-3.5,0-5.7-2.1-5.7-5.2v-0.7h2.1v0.5c0,2.3,1.3,3.5,3.7,3.5c1.9,0,3.1-1,3.1-2.4
				s-0.9-1.9-2.8-2.3l-0.9-0.2c-2.6-0.6-4.4-1.5-4.4-4.2c0-2.4,2.1-4,4.8-4C1651.7,20.5,1654,22.1,1654,25.1z"/>
			<path class="st5" d="M1667.5,20.8v1.9h-4.6v12.5h-2.1V22.7h-4.6v-1.9H1667.5z"/>
		</g>
		<g class="st4">
			<path class="st6" d="M1580.2,70v14.4h-2.1V71.9h-0.2l-2.7,4.4h-2.3l4-6.3H1580.2z"/>
			<path class="st6" d="M1588.8,69.7c2.8,0,4.9,1.8,4.9,4.6c0,3.1-2.3,4.2-5,5.1c-2,0.7-3,1.1-3,2.8v0.2h7.9v1.9h-10v-1.8
				c0-2.7,1.7-3.8,4.3-4.7c2.4-0.8,3.9-1.5,3.9-3.6c0-1.7-1.3-2.7-2.9-2.7c-2.1,0-3.2,1.1-3.2,3.1v0.5h-2.1v-0.6
				C1583.6,71.6,1585.7,69.7,1588.8,69.7z"/>
			<path class="st6" d="M1605.2,70l3.7,12.5h0.2l3.7-12.5h2.2l-4.4,14.4h-3.2L1603,70H1605.2z"/>
			<path class="st6" d="M1619.9,70v14.4h-2.1V70H1619.9z"/>
			<path class="st6" d="M1628.2,70c3.7,0,5.8,1.8,5.8,5.6v3.2c0,3.7-2.2,5.6-5.8,5.6h-4.4V70H1628.2z M1625.8,82.5h2.3
				c2.5,0,3.8-1.1,3.8-3.7v-3.1c0-2.6-1.3-3.7-3.8-3.7h-2.3V82.5z"/>
			<path class="st6" d="M1646.7,70v1.9h-7.1v4.3h6.6v1.9h-6.6v4.4h7.2v1.9h-9.3V70H1646.7z"/>
			<path class="st6" d="M1655.1,69.7c3.4,0,5.6,2.2,5.6,5.9v3.2c0,3.7-2.1,5.9-5.6,5.9c-3.5,0-5.6-2.2-5.6-5.9v-3.2
				C1649.6,71.9,1651.7,69.7,1655.1,69.7z M1651.6,78.9c0,2.5,1.1,3.9,3.5,3.9s3.5-1.4,3.5-3.9v-3.3c0-2.5-1.1-3.9-3.5-3.9
				s-3.5,1.4-3.5,3.9V78.9z"/>
			<path class="st6" d="M1674.1,74.3v0.7h-2.1v-0.5c0-1.8-1.3-2.8-3.2-2.8c-1.6,0-2.8,0.8-2.8,2.1c0,1.3,0.9,1.8,2.9,2.3l0.9,0.2
				c2.7,0.6,4.3,1.7,4.3,4.2c0,2.6-2.2,4.3-5.1,4.3c-3.5,0-5.7-2.1-5.7-5.2v-0.7h2.1v0.5c0,2.3,1.3,3.5,3.7,3.5c1.9,0,3.1-1,3.1-2.4
				s-0.9-1.9-2.8-2.3l-0.9-0.2c-2.6-0.6-4.4-1.5-4.4-4.2c0-2.4,2.1-4,4.8-4C1671.8,69.7,1674.1,71.3,1674.1,74.3z"/>
		</g>
	</g>
	<g>
		<g class="st4">
			<path class="st5" d="M1839.6,20.8l4.5,12.5h0.2V20.8h2.1v14.4h-3.8l-4.4-12.5h-0.2v12.5h-2.1V20.8H1839.6z"/>
			<path class="st5" d="M1859.5,20.8v1.9h-7.1V27h6.6v1.9h-6.6v4.4h7.2v1.9h-9.3V20.8H1859.5z"/>
			<path class="st5" d="M1864.9,20.8v9.5c0,2.1,1.1,3.2,3.3,3.2c2.2,0,3.3-1.1,3.3-3.2v-9.5h2.1v9.5c0,3.3-2,5.1-5.4,5.1
				c-3.4,0-5.4-1.8-5.4-5.1v-9.5H1864.9z"/>
			<path class="st5" d="M1887.8,20.8v1.9h-4.6v12.5h-2.1V22.7h-4.6v-1.9H1887.8z"/>
			<path class="st5" d="M1897.6,29.2l3.2,6h-2.3l-3-5.9h-2.8v5.9h-2.1V20.8h6c2.6,0,4.4,1.7,4.4,4.2
				C1901.1,27.3,1899.7,28.9,1897.6,29.2z M1892.7,27.4h3.7c1.7,0,2.6-0.8,2.6-2.4s-0.9-2.4-2.6-2.4h-3.7V27.4z"/>
			<path class="st5" d="M1910.8,20.8l4.5,14.4h-2.2l-1-3.4h-5.8l-1,3.4h-2.2l4.5-14.4H1910.8z M1911.5,29.9l-2.2-7.2h-0.2l-2.2,7.2
				H1911.5z"/>
			<path class="st5" d="M1920.2,20.8v12.5h7.1v1.9h-9.1V20.8H1920.2z"/>
		</g>
		<g class="st4">
			<path class="st6" d="M1841.7,70v14.4h-2.1V71.9h-0.2l-2.7,4.4h-2.3l4-6.3H1841.7z"/>
			<path class="st6" d="M1850.5,69.7c3.2,0,5.4,2.2,5.4,5.9v3.2c0,3.7-2.1,5.9-5.4,5.9c-3.3,0-5.4-2.2-5.4-5.9v-3.2
				C1845.1,71.9,1847.2,69.7,1850.5,69.7z M1847.2,78.9c0,2.5,1.1,3.9,3.3,3.9s3.3-1.4,3.3-3.9v-3.3c0-2.5-1.1-3.9-3.3-3.9
				s-3.3,1.4-3.3,3.9V78.9z"/>
			<path class="st6" d="M1867.5,70l3.7,12.5h0.2l3.7-12.5h2.2l-4.4,14.4h-3.2l-4.4-14.4H1867.5z"/>
			<path class="st6" d="M1882.2,70v14.4h-2.1V70H1882.2z"/>
			<path class="st6" d="M1890.5,70c3.7,0,5.8,1.8,5.8,5.6v3.2c0,3.7-2.2,5.6-5.8,5.6h-4.4V70H1890.5z M1888.1,82.5h2.3
				c2.5,0,3.8-1.1,3.8-3.7v-3.1c0-2.6-1.3-3.7-3.8-3.7h-2.3V82.5z"/>
			<path class="st6" d="M1909,70v1.9h-7.1v4.3h6.6v1.9h-6.6v4.4h7.2v1.9h-9.3V70H1909z"/>
			<path class="st6" d="M1917.4,69.7c3.4,0,5.6,2.2,5.6,5.9v3.2c0,3.7-2.1,5.9-5.6,5.9c-3.5,0-5.6-2.2-5.6-5.9v-3.2
				C1911.9,71.9,1914,69.7,1917.4,69.7z M1913.9,78.9c0,2.5,1.1,3.9,3.5,3.9s3.5-1.4,3.5-3.9v-3.3c0-2.5-1.1-3.9-3.5-3.9
				s-3.5,1.4-3.5,3.9V78.9z"/>
			<path class="st6" d="M1936.4,74.3v0.7h-2.1v-0.5c0-1.8-1.3-2.8-3.2-2.8c-1.6,0-2.8,0.8-2.8,2.1c0,1.3,0.9,1.8,2.9,2.3l0.9,0.2
				c2.7,0.6,4.3,1.7,4.3,4.2c0,2.6-2.2,4.3-5.1,4.3c-3.5,0-5.7-2.1-5.7-5.2v-0.7h2.1v0.5c0,2.3,1.3,3.5,3.7,3.5c1.9,0,3.1-1,3.1-2.4
				s-0.9-1.9-2.8-2.3l-0.9-0.2c-2.6-0.6-4.4-1.5-4.4-4.2c0-2.4,2.1-4,4.8-4C1934.1,69.7,1936.4,71.3,1936.4,74.3z"/>
		</g>
	</g>
</g>
</svg>
