<svg xmlns="http://www.w3.org/2000/svg" viewBox="0 0 1408.88 1415.52"><defs><style>.cls-1{fill:#1a2029;}.cls-2,.cls-3,.cls-4,.cls-5,.cls-6,.cls-7,.cls-8{fill:none;}.cls-2{stroke:#58626b;}.cls-2,.cls-3,.cls-4,.cls-41,.cls-5,.cls-6,.cls-7,.cls-8{stroke-miterlimit:10;}.cls-3{stroke:#f6c;opacity:0.3;}.cls-4{stroke:#f2d51c;}.cls-4,.cls-5,.cls-6,.cls-7,.cls-8{opacity:0.5;}.cls-5{stroke:#9d77fc;}.cls-6{stroke:#e63e1f;}.cls-7{stroke:#5bb03f;}.cls-8{stroke:#4a74ff;}.cls-9{font-size:18px;font-family:SpaceGrotesk-Medium, Space Grotesk;font-weight:500;}.cls-24,.cls-25,.cls-27,.cls-36,.cls-37,.cls-41,.cls-9{fill:#fff;}.cls-10{letter-spacing:0em;}.cls-11{letter-spacing:0em;}.cls-12{letter-spacing:-0.01em;}.cls-13{letter-spacing:-0.01em;}.cls-14{letter-spacing:-0.04em;}.cls-15{letter-spacing:-0.02em;}.cls-16{letter-spacing:-0.02em;}.cls-17{letter-spacing:-0.08em;}.cls-18{letter-spacing:-0.06em;}.cls-19{letter-spacing:-0.03em;}.cls-20{letter-spacing:0em;}.cls-21{letter-spacing:-0.01em;}.cls-22{letter-spacing:-0.01em;}.cls-23{letter-spacing:-0.14em;}.cls-24,.cls-25,.cls-27{font-size:16.3px;font-family:SpaceGrotesk-Bold, Space Grotesk;font-weight:700;}.cls-24{letter-spacing:0.12em;}.cls-25,.cls-28{letter-spacing:0.12em;}.cls-26{letter-spacing:0.1em;}.cls-27{letter-spacing:0.11em;}.cls-29{letter-spacing:0.06em;}.cls-30{fill:#9d77fc;}.cls-31{fill:#e63e1f;}.cls-32{fill:#5bb03f;}.cls-33{fill:#4a74ff;}.cls-34{fill:#f2d51c;}.cls-35{fill:#f6c;}.cls-37{font-size:28.91px;font-family:SpaceGrotesk-Regular, Space Grotesk;}.cls-37,.cls-39{letter-spacing:0.12em;}.cls-38{letter-spacing:0.11em;}.cls-40{letter-spacing:0.12em;}.cls-41{stroke:#fff;stroke-width:2px;}</style></defs><title>manosphere</title><g id="Livello_6" data-name="Livello 6"><rect class="cls-1" width="1415.52" height="1415.52"/></g><g id="Livello_5" data-name="Livello 5"><circle class="cls-2" cx="617.28" cy="707.76" r="496.51"/><circle class="cls-2" cx="323.19" cy="707.76" r="202.42"/><path class="cls-3" d="M196,707.76s165.15,62.88,257.34,155.07"/><path class="cls-3" d="M453.31,862.83c82,77.28,164,216.21,164,341.44"/><path class="cls-4" d="M498.5,809c109.71,76.1,205,262.52,205,387.76"/><path class="cls-4" d="M498.5,809c167.39,24.12,288.6,234.51,288.6,365.36"/><path class="cls-5" d="M522.54,742.91c149.26,45.19,343,259.88,343,390.72"/><path class="cls-5" d="M522.54,742.91c190.13,4,389,229.82,413.89,345.2"/><path class="cls-5" d="M522.54,742.91c207-44.22,445,182.77,475.09,284"/><path class="cls-4" d="M196,707.76S380.34,753.88,498.5,809"/><path class="cls-5" d="M196,707.76s196.7,23.79,326.57,35.15"/><path class="cls-6" d="M196,707.76s200.64-1.41,326.57-35.15"/><path class="cls-7" d="M196,707.76S391.71,681.32,498.5,606.55"/><path class="cls-8" d="M196,707.76s182.56-48.27,257.34-155.07"/><path class="cls-8" d="M617.28,211.25c0,88.62-164,341.44-164,341.44"/><path class="cls-8" d="M703.5,218.79c0,88.62-153.64,244.4-250.19,333.9"/><path class="cls-8" d="M787.1,241.19c0,88.62-236.1,260.83-333.79,311.5"/><path class="cls-7" d="M997.63,388.61C919.46,502,654.66,570.12,498.5,606.55"/><path class="cls-7" d="M1083.85,537.94C945.5,630.61,498.5,606.55,498.5,606.55"/><path class="cls-7" d="M1047.27,459.5c-119.91,122.16-548.77,147-548.77,147"/><path class="cls-7" d="M936.43,327.41C870.21,423.06,613.52,570.63,498.5,606.55"/><path class="cls-7" d="M865.53,277.77c-32.88,90.73-269.35,278.1-367,328.78"/><path class="cls-6" d="M522.54,672.61c120.26-60.14,404.82-19.85,583.71-51.07"/><path class="cls-6" d="M522.54,672.61c177.36-46,452.41-.77,591.25,35.15"/><path class="cls-6" d="M522.54,672.61c167-25.53,446.64,39.76,583.71,121.37"/><path class="cls-6" d="M522.54,672.61C725.75,705.22,944.27,845.19,1047.27,956"/><path class="cls-6" d="M522.54,672.61c190,1.36,448.47,95.47,561.31,205"/><text class="cls-9" transform="translate(623.37 187.7) rotate(-90)">ROOSH V</text><text class="cls-9" transform="matrix(0.17, -0.98, 0.98, 0.17, 713.59, 196.66)">COUNTE<tspan class="cls-10" x="67.39" y="0">R</tspan><tspan class="cls-11" x="78.39" y="0">-FEMINI</tspan><tspan class="cls-12" x="142.68" y="0">S</tspan><tspan x="153.38" y="0">T</tspan></text><text class="cls-9" transform="translate(800.87 221.15) rotate(-70)">DEVLIN DON<tspan class="cls-13" x="98.21" y="0">O</tspan><tspan class="cls-14" x="109.55" y="0">V</tspan><tspan class="cls-11" x="119.83" y="0">AN</tspan></text><text class="cls-9" transform="translate(882.58 260.42) rotate(-60)">A <tspan class="cls-13" x="16.78" y="0">V</tspan><tspan x="27.68" y="0">OICE FOR MEN</tspan></text><text class="cls-9" transform="translate(956.23 313.29) rotate(-50)">M<tspan class="cls-15" x="15.7" y="0">GT</tspan><tspan x="37.08" y="0">OW / MAN GOING THEIR OWN </tspan><tspan class="cls-16" x="279.1" y="0">W</tspan><tspan class="cls-17" x="293.43" y="0">A</tspan><tspan x="303.37" y="0">Y</tspan></text><text class="cls-9" transform="matrix(0.77, -0.64, 0.64, 0.77, 1019.58, 378.14)"><tspan class="cls-13">V</tspan><tspan class="cls-16" x="10.91" y="0">O</tspan><tspan x="22.07" y="0">X POPULI</tspan></text><text class="cls-9" transform="translate(1070.71 453) rotate(-30)">THE ANTIFEMINI<tspan class="cls-12" x="132.15" y="0">S</tspan><tspan x="142.85" y="0">T</tspan></text><text class="cls-9" transform="matrix(0.94, -0.34, 0.34, 0.94, 1108.06, 535.61)">CH<tspan class="cls-18" x="22.93" y="0">A</tspan><tspan x="33.23" y="0">TE</tspan><tspan class="cls-13" x="54.04" y="0">A</tspan><tspan class="cls-11" x="65.23" y="0">U HEA</tspan><tspan class="cls-10" x="115.77" y="0">R</tspan><tspan x="126.77" y="0">TI</tspan><tspan class="cls-12" x="141.82" y="0">S</tspan><tspan x="152.51" y="0">TE</tspan></text><text class="cls-9" transform="matrix(0.98, -0.17, 0.17, 0.98, 1130.5, 623.45)">/R/PUS<tspan class="cls-19" x="60.88" y="0">S</tspan><tspan class="cls-20" x="71.3" y="0">Y</tspan><tspan class="cls-18" x="82.24" y="0">P</tspan><tspan x="91.71" y="0">ASS</tspan></text><text class="cls-9" transform="translate(1137.34 713.85)">/R/M<tspan class="cls-21" x="43.2" y="0">GT</tspan><tspan class="cls-20" x="64.58" y="0">OW</tspan></text><text class="cls-9" transform="matrix(0.98, 0.17, -0.17, 0.98, 1128.38, 804.07)">/R/REDPILLWOMEN</text><text class="cls-9" transform="translate(1103.89 891.36) rotate(20)">/R/THEREDPILL</text><text class="cls-9" transform="translate(1064.62 973.07) rotate(30)">/R/MENSRIGHT</text><text class="cls-9" transform="translate(1011.75 1046.72) rotate(40)">SLUTH<tspan class="cls-18" x="54.79" y="0">A</tspan><tspan x="65.09" y="0">TE</tspan><tspan class="cls-19" x="85.89" y="0">.</tspan><tspan class="cls-20" x="90.05" y="0">COM</tspan></text><text class="cls-9" transform="matrix(0.64, 0.77, -0.77, 0.64, 946.9, 1110.07)">4CHAN</text><text class="cls-9" transform="translate(872.03 1161.19) rotate(60)">L<tspan class="cls-22" x="9.65" y="0">O</tspan><tspan x="20.99" y="0">VE</tspan><tspan class="cls-10" x="42.23" y="0">-</tspan><tspan x="50.42" y="0">SH</tspan><tspan class="cls-23" x="72.95" y="0">Y</tspan><tspan class="cls-19" x="81.38" y="0">.</tspan><tspan class="cls-20" x="85.54" y="0">COM</tspan></text><text class="cls-9" transform="matrix(0.34, 0.94, -0.94, 0.34, 789.43, 1198.54)">WHITERIBBON<tspan class="cls-19" x="112.5" y="0">.</tspan><tspan x="116.66" y="0">COM</tspan></text><text class="cls-9" transform="matrix(0.17, 0.98, -0.98, 0.17, 701.59, 1220.98)">REGI<tspan class="cls-13" x="36.9" y="0">S</tspan><tspan class="cls-11" x="47.59" y="0">TERHER</tspan><tspan class="cls-19" x="112.39" y="0">.</tspan><tspan x="116.55" y="0">COM</tspan></text><text class="cls-9" transform="translate(611.19 1227.82) rotate(90)">THE SPEARHEAD</text><text class="cls-24" transform="translate(357.91 561.76)">PEOPLE</text><text class="cls-25" transform="translate(429.08 609.36)">BLOG</text><text class="cls-25" transform="translate(388.25 680.43)">SUBREDDI<tspan class="cls-26" x="89.37" y="0">T</tspan><tspan x="100.41" y="0">S</tspan></text><text class="cls-24" transform="translate(420.93 747.14)">WEBSITE</text><text class="cls-27" transform="translate(383.06 808.97)">C<tspan class="cls-28" x="11.85" y="0">AM</tspan><tspan class="cls-29" x="39.96" y="0">P</tspan><tspan class="cls-28" x="50.42" y="0">AIGN</tspan></text><text class="cls-24" transform="translate(349.31 868.5)">WEBZINE</text><rect class="cls-1" x="44.95" y="681.68" width="151.02" height="52.94"/><path class="cls-30" d="M522.55,756.48a13.36,13.36,0,0,1-2.36-.21,13.55,13.55,0,1,1,2.36.21Z"/><path class="cls-1" d="M522.53,733.84a8.69,8.69,0,0,1,1.59.14,9.07,9.07,0,0,1-1.57,18,8.51,8.51,0,0,1-1.58-.14,9.07,9.07,0,0,1,1.56-18m0-9h0a18.07,18.07,0,0,0-3.13,35.87,18.52,18.52,0,0,0,3.15.27,18.07,18.07,0,0,0,3.13-35.87,18.52,18.52,0,0,0-3.15-.27Z"/><path class="cls-31" d="M522.53,686.18a13.59,13.59,0,1,1,2.37-.21A13.54,13.54,0,0,1,522.53,686.18Z"/><path class="cls-1" d="M522.55,663.54a9.07,9.07,0,0,1,1.57,18,8.69,8.69,0,0,1-1.59.14,9.07,9.07,0,0,1-1.56-18,8.51,8.51,0,0,1,1.58-.14m0-9h0a18.52,18.52,0,0,0-3.15.27,18.07,18.07,0,0,0,3.13,35.87,17.57,17.57,0,0,0,3.15-.28,18.07,18.07,0,0,0-3.13-35.86Z"/><path class="cls-32" d="M498.5,620.12a13.58,13.58,0,1,1,13.1-10.06,13.57,13.57,0,0,1-13.1,10.06Z"/><path class="cls-1" d="M498.49,597.48a9.06,9.06,0,1,1-4.53,1.21,9.06,9.06,0,0,1,4.53-1.21m0-9h0a18.06,18.06,0,1,0,15.66,9,18.05,18.05,0,0,0-15.66-9Z"/><path class="cls-33" d="M453.3,566.26a13.57,13.57,0,1,1,10.4-4.84A13.55,13.55,0,0,1,453.3,566.26Z"/><path class="cls-1" d="M453.31,543.62a9.07,9.07,0,1,1-6.95,3.24,9,9,0,0,1,6.95-3.24m0-9h0a18.08,18.08,0,1,0,11.61,4.23,18,18,0,0,0-11.61-4.23Z"/><path class="cls-33" d="M617.27,224.82a13.57,13.57,0,0,1-13.51-12.39,13.57,13.57,0,0,1,13.52-14.75,13.57,13.57,0,0,1,0,27.14Z"/><path class="cls-1" d="M617.28,202.18a9.07,9.07,0,1,1-6.95,3.24,9.07,9.07,0,0,1,6.95-3.24m0-9h0a18.08,18.08,0,1,0,11.61,4.23,18,18,0,0,0-11.61-4.23Z"/><path class="cls-33" d="M703.5,232.36a13.57,13.57,0,1,1,8.72-3.17A13.55,13.55,0,0,1,703.5,232.36Z"/><path class="cls-1" d="M703.49,209.72a9.08,9.08,0,1,1-5.82,2.13,9.06,9.06,0,0,1,5.82-2.13m0-9h0a18.07,18.07,0,1,0,13.85,6.46,18.07,18.07,0,0,0-13.85-6.46Z"/><path class="cls-33" d="M787.1,254.76A13.63,13.63,0,0,1,775.34,248a13.59,13.59,0,1,1,11.76,6.78Z"/><path class="cls-1" d="M787.09,232.12a9.08,9.08,0,1,1-4.53,1.22,9.07,9.07,0,0,1,4.53-1.22m0-9h0a18.06,18.06,0,0,0-17.45,13.4,17.92,17.92,0,0,0,1.81,13.71,18.07,18.07,0,0,0,33.1-4.36,18.08,18.08,0,0,0-17.46-22.75Z"/><path class="cls-32" d="M865.53,291.34A13.57,13.57,0,0,1,860.89,265a13.43,13.43,0,0,1,4.64-.82,13.57,13.57,0,0,1,4.64,26.32A13.34,13.34,0,0,1,865.53,291.34Z"/><path class="cls-1" d="M865.53,268.7a9.07,9.07,0,0,1,3.11,17.59,9,9,0,0,1-3.11.55,9.07,9.07,0,0,1-3.1-17.59,8.9,8.9,0,0,1,3.1-.55m0-9a17.88,17.88,0,0,0-6.18,1.09,18.07,18.07,0,1,0,6.18-1.09Z"/><path class="cls-32" d="M936.42,341a13.49,13.49,0,1,1,2.37-.2A14.58,14.58,0,0,1,936.42,341Z"/><path class="cls-1" d="M936.44,318.34a9.07,9.07,0,0,1,1.56,18,8.51,8.51,0,0,1-1.58.14,9.07,9.07,0,0,1-1.57-18,9.68,9.68,0,0,1,1.59-.14m0-9a17.57,17.57,0,0,0-3.15.28,18.07,18.07,0,0,0,3.13,35.86,18.52,18.52,0,0,0,3.15-.27,18.07,18.07,0,0,0-3.13-35.87Z"/><path class="cls-32" d="M997.63,402.18a13.57,13.57,0,1,1,13.57-13.57A13.58,13.58,0,0,1,997.63,402.18Z"/><path class="cls-1" d="M997.63,379.54a9.07,9.07,0,1,1-9.07,9.07,9.07,9.07,0,0,1,9.07-9.07m0-9a18.07,18.07,0,1,0,18.07,18.07,18.09,18.09,0,0,0-18.07-18.07Z"/><path class="cls-32" d="M1047.28,473.08a13.57,13.57,0,1,1,13.35-11.22A13.47,13.47,0,0,1,1047.28,473.08Z"/><path class="cls-1" d="M1047.26,450.43a9.46,9.46,0,0,1,1.58.14,9.07,9.07,0,0,1-1.56,18,9.68,9.68,0,0,1-1.59-.14,9.07,9.07,0,0,1,1.57-18m0-9h0a18.07,18.07,0,0,0-3.13,35.87,18.54,18.54,0,0,0,3.15.28,18.07,18.07,0,0,0,3.13-35.87,18.54,18.54,0,0,0-3.15-.28Z"/><path class="cls-32" d="M1083.84,551.52a13.44,13.44,0,0,1-4.64-.83,13.54,13.54,0,1,1,4.64.83Z"/><path class="cls-1" d="M1083.85,528.87a9.07,9.07,0,1,1-8.53,6,9.14,9.14,0,0,1,8.53-6m0-9h0A18.07,18.07,0,1,0,1090,521a18.14,18.14,0,0,0-6.18-1.09Z"/><path class="cls-31" d="M1106.24,635.11a13.59,13.59,0,0,1-6.78-1.82,13.57,13.57,0,0,1-5-18.53,13.57,13.57,0,0,1,18.54-5,13.58,13.58,0,0,1,5,18.54A13.63,13.63,0,0,1,1106.24,635.11Z"/><path class="cls-1" d="M1106.25,612.47a9.07,9.07,0,1,1-7.86,4.54,9,9,0,0,1,7.86-4.54m0-9h0a18.07,18.07,0,1,0,9,2.42,18.1,18.1,0,0,0-9-2.42Z"/><path class="cls-31" d="M1113.78,721.33a13.57,13.57,0,1,1,8.73-24,13.57,13.57,0,0,1-8.73,24Z"/><path class="cls-1" d="M1113.79,698.69a9.07,9.07,0,1,1-7,3.24,9.07,9.07,0,0,1,7-3.24m0-9h0a18.08,18.08,0,1,0,11.61,4.23,18,18,0,0,0-11.61-4.23Z"/><path class="cls-31" d="M1106.25,807.55a13.58,13.58,0,1,1,8.72-3.18A13.53,13.53,0,0,1,1106.25,807.55Z"/><path class="cls-1" d="M1106.24,784.91a9.07,9.07,0,1,1-5.82,2.12,9,9,0,0,1,5.82-2.12m0-9h0a18.06,18.06,0,1,0,13.85,6.45,18.07,18.07,0,0,0-13.85-6.45Z"/><path class="cls-31" d="M1083.85,891.15a13.58,13.58,0,1,1,6.78-1.82A13.62,13.62,0,0,1,1083.85,891.15Z"/><path class="cls-1" d="M1083.84,868.5a9.08,9.08,0,1,1-4.53,1.22,9.07,9.07,0,0,1,4.53-1.22m0-9h0a18.08,18.08,0,1,0,15.65,9,18,18,0,0,0-15.65-9Z"/><path class="cls-31" d="M1047.27,969.59a13.58,13.58,0,1,1,4.64-.82A13.61,13.61,0,0,1,1047.27,969.59Z"/><path class="cls-1" d="M1047.27,946.94a9.08,9.08,0,1,1-3.1.55,9.08,9.08,0,0,1,3.1-.55m0-9a18.08,18.08,0,0,0,0,36.15,18.07,18.07,0,0,0,17-24.26,18.13,18.13,0,0,0-17-11.89Z"/><path class="cls-30" d="M997.62,1040.48a13.62,13.62,0,1,1,2.36-.21A13.36,13.36,0,0,1,997.62,1040.48Z"/><path class="cls-1" d="M997.64,1017.84a9.07,9.07,0,0,1,1.56,18,8.51,8.51,0,0,1-1.58.14,9.07,9.07,0,0,1-1.57-18,8.69,8.69,0,0,1,1.59-.14m0-9h0a18.52,18.52,0,0,0-3.15.27,18.07,18.07,0,0,0,3.13,35.87,18.52,18.52,0,0,0,3.15-.27,18.07,18.07,0,0,0-3.13-35.87Z"/><path class="cls-30" d="M936.43,1101.68A13.57,13.57,0,1,1,950,1088.11,13.59,13.59,0,0,1,936.43,1101.68Z"/><path class="cls-1" d="M936.43,1079a9.07,9.07,0,1,1-9.07,9.07,9.07,9.07,0,0,1,9.07-9.07m0-9a18.07,18.07,0,1,0,18.07,18.07A18.09,18.09,0,0,0,936.43,1070Z"/><path class="cls-30" d="M865.55,1151.32a13.57,13.57,0,1,1,13.35-11.21A13.47,13.47,0,0,1,865.55,1151.32Z"/><path class="cls-1" d="M865.52,1128.68a8.54,8.54,0,0,1,1.59.14,9.07,9.07,0,0,1-1.57,18,8.51,8.51,0,0,1-1.58-.14,9.07,9.07,0,0,1,1.56-18m0-9h0a18.07,18.07,0,0,0-3.12,35.86,17.38,17.38,0,0,0,3.14.28,18.07,18.07,0,0,0,3.13-35.87,18.52,18.52,0,0,0-3.15-.27Z"/><path class="cls-34" d="M787.09,1187.9a13.66,13.66,0,0,1-4.64-.82,13.59,13.59,0,0,1-8.11-17.4,13.57,13.57,0,1,1,12.75,18.22Z"/><path class="cls-1" d="M787.1,1165.25a9.07,9.07,0,1,1-8.53,6,9.14,9.14,0,0,1,8.53-6m0-9h0a18.1,18.1,0,1,0,6.18,1.1,17.94,17.94,0,0,0-6.18-1.1Z"/><path class="cls-34" d="M703.49,1210.3a13.57,13.57,0,1,1,11.76-6.79A13.59,13.59,0,0,1,703.49,1210.3Z"/><path class="cls-1" d="M703.51,1187.65a9.08,9.08,0,0,1,0,18.15,9.08,9.08,0,0,1,0-18.15m0-9h0a18.15,18.15,0,0,0-15.66,9,18.07,18.07,0,0,0,6.61,24.69,18.08,18.08,0,0,0,24.69-6.62,18.09,18.09,0,0,0-15.64-27.11Z"/><path class="cls-35" d="M617.27,1217.84a13.57,13.57,0,1,1,10.4-4.85A13.56,13.56,0,0,1,617.27,1217.84Z"/><path class="cls-1" d="M617.28,1195.2a9.07,9.07,0,1,1-6.95,3.24,9.07,9.07,0,0,1,6.95-3.24m0-9h0a18.08,18.08,0,1,0,11.61,4.23,18,18,0,0,0-11.61-4.23Z"/><path class="cls-34" d="M498.49,822.54a13.57,13.57,0,1,1,11.76-6.78A13.59,13.59,0,0,1,498.49,822.54Z"/><path class="cls-1" d="M498.51,799.9a9.07,9.07,0,0,1,0,18.14,9.07,9.07,0,1,1,0-18.14m0-9h0a18.12,18.12,0,0,0-15.66,9A18.06,18.06,0,0,0,498.49,827a18.07,18.07,0,0,0,0-36.14Z"/><path class="cls-35" d="M453.31,876.4a13.58,13.58,0,1,1,8.72-3.18A13.56,13.56,0,0,1,453.31,876.4Z"/><path class="cls-1" d="M453.3,853.75a9.08,9.08,0,1,1-5.82,2.13,9.08,9.08,0,0,1,5.82-2.13m0-9h0a18.08,18.08,0,1,0,11.62,31.92,18.07,18.07,0,0,0-11.62-31.92Z"/><path class="cls-36" d="M196,721.33a13.57,13.57,0,1,1,13.57-13.57A13.59,13.59,0,0,1,196,721.33Z"/><path class="cls-1" d="M196,698.69a9.07,9.07,0,1,1-9.07,9.07,9.07,9.07,0,0,1,9.07-9.07m0-9A18.07,18.07,0,1,0,214,707.76,18.1,18.1,0,0,0,196,689.69Z"/><text class="cls-24" transform="translate(58.34 713.83)">MANOSPHERE</text><text class="cls-37" transform="translate(56.69 81.27)">MANOSPHERE<tspan class="cls-38"><tspan x="0" y="34.69">T</tspan><tspan class="cls-39" x="20.09" y="34.69">OUCHG</tspan><tspan class="cls-40" x="130.41" y="34.69">R</tspan><tspan class="cls-39" x="151.52" y="34.69">APH</tspan></tspan></text><line class="cls-41" x1="56.69" y1="136.82" x2="473.46" y2="136.82"/></g></svg>