<?xml version="1.0" encoding="utf-8"?>
<!-- Generator: Adobe Illustrator 23.0.1, SVG Export Plug-In . SVG Version: 6.00 Build 0)  -->
<svg version="1.1" id="Livello_1" xmlns="http://www.w3.org/2000/svg" xmlns:xlink="http://www.w3.org/1999/xlink" x="0px" y="0px"
	 viewBox="0 0 830.1 481.5" style="enable-background:new 0 0 830.1 481.5;" xml:space="preserve">
<style type="text/css">
	.st0{fill:none;stroke:#C6C6C6;stroke-miterlimit:10;}
	.st1{fill:#F6F6F6;}
	.st2{fill:#FF3603;}
	.st3{fill:#FFFFFF;}
	.st4{fill:none;stroke:#1D1D1B;stroke-miterlimit:10;}
	.st5{fill:#1D1D1B;}
	.st6{fill:none;stroke:#FF3603;stroke-miterlimit:10;}
	.st7{fill:#B2B2B2;}
	.st8{fill:#C6C6C6;}
	.st9{fill:#666666;}
</style>
<title>Tavola disegno 1</title>
<line class="st0" x1="669.6" y1="252" x2="669.6" y2="368.9"/>
<rect y="240.8" class="st1" width="656.7" height="143.7"/>
<rect x="10.2" y="253.3" class="st2" width="134.3" height="22.1"/>
<g>
	<path class="st3" d="M21.7,260.8c2.3,0,3.6,1.2,3.6,3.5v1.8c0,2.3-1.3,3.5-3.6,3.5h-2.9v-8.9h2.9V260.8z M20.2,268.3h1.4
		c1.5,0,2.1-0.7,2.1-2.2v-1.9c0-1.5-0.6-2.2-2.1-2.2h-1.4V268.3z"/>
	<path class="st3" d="M31.2,260.8l2.6,8.9h-1.6l-0.6-2h-3.4l-0.6,2H26l2.6-8.9H31.2z M31.3,266.3l-1.3-4.2H30l-1.3,4.2H31.3z"/>
	<path class="st3" d="M40.8,260.8v1.4h-2.7v7.5h-1.5v-7.5h-2.7v-1.4H40.8z"/>
	<path class="st3" d="M45.9,260.8l2.6,8.9H47l-0.6-2H43l-0.6,2h-1.6l2.6-8.9H45.9z M46,266.3l-1.3-4.2h-0.1l-1.3,4.2H46z"/>
	<path class="st3" d="M59.9,260.8v1.4h-4.3v2.4h4v1.4h-3.9v2.4H60v1.4h-5.8v-8.9h5.7V260.8z"/>
	<path class="st3" d="M62.7,260.8l2,3.4H65l1.9-3.4h1.7l-2.5,4.3v0.2l2.5,4.4h-1.7l-2-3.4h-0.2l-2,3.4h-1.7l2.6-4.4v-0.2l-2.5-4.3
		H62.7z"/>
	<path class="st3" d="M73.6,260.8c1.7,0,2.7,1.1,2.7,2.7s-1.2,2.7-2.7,2.7h-2.1v3.4h-1.4v-8.9H73.6L73.6,260.8z M71.6,265h1.9
		c1,0,1.5-0.5,1.5-1.4s-0.5-1.4-1.5-1.4h-1.9V265z"/>
	<path class="st3" d="M79.4,260.8v7.5h4.2v1.4H78v-8.9H79.4L79.4,260.8z"/>
	<path class="st3" d="M88.5,260.6c2.2,0,3.6,1.4,3.6,3.7v1.9c0,2.3-1.4,3.7-3.6,3.7c-2.2,0-3.6-1.4-3.6-3.7v-1.9
		C84.9,262,86.3,260.6,88.5,260.6z M86.4,266.2c0,1.4,0.6,2.2,2.1,2.2c1.5,0,2.1-0.8,2.1-2.2v-2c0-1.4-0.7-2.2-2.1-2.2
		c-1.4,0-2.1,0.8-2.1,2.2V266.2z"/>
	<path class="st3" d="M98.5,266.1l1.9,3.6h-1.7l-1.8-3.5h-1.6v3.5h-1.5v-8.9h3.8c1.7,0,2.7,1.1,2.7,2.7
		C100.5,264.8,99.6,265.8,98.5,266.1z M95.3,264.8h2.2c1,0,1.5-0.5,1.5-1.4s-0.5-1.4-1.5-1.4h-2.2V264.8z"/>
	<path class="st3" d="M106.4,260.8l2.6,8.9h-1.6l-0.6-2h-3.4l-0.6,2h-1.6l2.6-8.9H106.4z M106.5,266.3l-1.3-4.2h-0.1l-1.3,4.2H106.5
		z"/>
	<path class="st3" d="M116.1,260.8v1.4h-2.7v7.5h-1.5v-7.5h-2.7v-1.4H116.1z"/>
	<path class="st3" d="M119.1,260.8v8.9h-1.5v-8.9H119.1z"/>
	<path class="st3" d="M124.5,260.6c2.2,0,3.6,1.4,3.6,3.7v1.9c0,2.3-1.4,3.7-3.6,3.7c-2.2,0-3.6-1.4-3.6-3.7v-1.9
		C120.9,262,122.3,260.6,124.5,260.6z M122.4,266.2c0,1.4,0.6,2.2,2.1,2.2c1.5,0,2.1-0.8,2.1-2.2v-2c0-1.4-0.7-2.2-2.1-2.2
		s-2.1,0.8-2.1,2.2V266.2z"/>
	<path class="st3" d="M132.5,260.8l2.4,7.5h0.1v-7.5h1.5v8.9h-2.6l-2.4-7.5h-0.1v7.5h-1.5v-8.9H132.5z"/>
</g>
<g>
	<g>
		<line class="st4" x1="379.2" y1="304.3" x2="379.2" y2="318.4"/>
		<g>
			<polygon class="st5" points="375.1,315.1 375.9,314.4 379.2,318 382.6,314.4 383.3,315.1 379.2,319.5 			"/>
		</g>
	</g>
</g>
<g>
	<g>
		<line class="st4" x1="379.2" y1="385" x2="379.2" y2="399.1"/>
		<g>
			<polygon class="st5" points="375.1,395.8 375.9,395.1 379.2,398.7 382.6,395.1 383.3,395.8 379.2,400.2 			"/>
		</g>
	</g>
</g>
<rect y="0.8" class="st1" width="657.7" height="224.5"/>
<line class="st6" x1="352.7" y1="49.1" x2="403.9" y2="49.1"/>
<rect x="10.2" y="12.3" class="st2" width="125.7" height="22.1"/>
<g>
	<path class="st3" d="M20.4,18.7c2.3,0,3.6,1.2,3.6,3.5V24c0,2.3-1.3,3.5-3.6,3.5h-2.9v-8.9h2.9V18.7z M19,26.3h1.5
		c1.5,0,2.1-0.7,2.1-2.2v-1.9c0-1.5-0.6-2.2-2.1-2.2h-1.4v6.3H19z"/>
	<path class="st3" d="M30,18.7l2.6,8.9H31l-0.6-2H27l-0.6,2h-1.6l2.6-8.9H30z M30.1,24.2L28.8,20h-0.1l-1.3,4.2H30.1z"/>
	<path class="st3" d="M39.7,18.7v1.4h-2.7v7.5h-1.5v-7.5h-2.7v-1.4H39.7z"/>
	<path class="st3" d="M44.7,18.7l2.6,8.9h-1.6l-0.6-2h-3.4l-0.6,2h-1.6l2.6-8.9H44.7z M44.8,24.2L43.5,20h-0.1l-1.3,4.2H44.8z"/>
	<path class="st3" d="M56.1,18.5c2.2,0,3.4,1.3,3.4,3.2V22H58v-0.2c0-1.2-0.6-1.9-1.9-1.9c-1.4,0-2.1,0.8-2.1,2.2v2.1
		c0,1.4,0.7,2.2,2.1,2.2c1.4,0,1.9-0.7,1.9-1.9v-0.2h1.6v0.2c0,2-1.2,3.3-3.4,3.3s-3.6-1.3-3.6-3.6v-2
		C52.5,19.9,53.9,18.5,56.1,18.5z"/>
	<path class="st3" d="M64.5,18.5c2.2,0,3.6,1.4,3.6,3.7v1.9c0,2.3-1.4,3.7-3.6,3.7s-3.6-1.4-3.6-3.7v-1.9
		C60.9,19.9,62.3,18.5,64.5,18.5z M62.4,24.2c0,1.4,0.6,2.2,2.1,2.2c1.5,0,2.1-0.8,2.1-2.2v-2c0-1.4-0.7-2.2-2.1-2.2
		s-2.1,0.8-2.1,2.2V24.2z"/>
	<path class="st3" d="M71.4,18.7v7.5h4.2v1.4h-5.7v-8.9H71.4z"/>
	<path class="st3" d="M78.6,18.7v7.5h4.2v1.4h-5.7v-8.9H78.6z"/>
	<path class="st3" d="M90.1,18.7v1.4h-4.3v2.4h3.9v1.4h-3.9v2.4h4.3v1.4h-5.8v-8.9h5.8V18.7z"/>
	<path class="st3" d="M95.2,18.5c2.2,0,3.4,1.3,3.4,3.2V22h-1.5v-0.2c0-1.2-0.6-1.9-1.9-1.9c-1.4,0-2.1,0.8-2.1,2.2v2.1
		c0,1.4,0.7,2.2,2.1,2.2s1.9-0.7,1.9-1.9v-0.2h1.5v0.2c0,2-1.2,3.3-3.4,3.3s-3.6-1.3-3.6-3.6v-2C91.6,19.9,93,18.5,95.2,18.5z"/>
	<path class="st3" d="M106.6,18.7v1.4h-2.7v7.5h-1.5v-7.5h-2.7v-1.4H106.6z"/>
	<path class="st3" d="M109.6,18.7v8.9h-1.5v-8.9H109.6z"/>
	<path class="st3" d="M115,18.5c2.2,0,3.6,1.4,3.6,3.7v1.9c0,2.3-1.4,3.7-3.6,3.7s-3.6-1.4-3.6-3.7v-1.9
		C111.4,19.9,112.8,18.5,115,18.5z M112.9,24.2c0,1.4,0.6,2.2,2.1,2.2c1.5,0,2.1-0.8,2.1-2.2v-2c0-1.4-0.7-2.2-2.1-2.2
		s-2.1,0.8-2.1,2.2L112.9,24.2z"/>
	<path class="st3" d="M123,18.7l2.4,7.5h0.1v-7.5h1.5v8.9h-2.6l-2.4-7.5h-0.1v7.5h-1.5v-8.9H123z"/>
</g>
<line class="st0" x1="669.5" y1="9.5" x2="669.5" y2="136"/>
<g>
	<g>
		<path class="st7" d="M681.8,74.5c0-2.6,1.6-4.2,4.2-4.2c2.5,0,4,1.5,4,3.8v0.1h-1.7v-0.1c0-1.4-0.7-2.2-2.2-2.2
			c-1.6,0-2.5,1-2.5,2.6v2.5c0,1.6,0.9,2.6,2.5,2.6c1.6,0,2.2-0.9,2.2-2.2v-0.1h-2.7v-1.5h4.4v1.6c0,2.4-1.4,3.8-4,3.8
			c-2.5,0-4.2-1.5-4.2-4.2V74.5z"/>
		<path class="st7" d="M695.9,70.3c2.6,0,4.1,1.6,4.1,4.3v2.2c0,2.7-1.6,4.3-4.1,4.3c-2.6,0-4.1-1.6-4.1-4.3v-2.2
			C691.7,71.9,693.3,70.3,695.9,70.3z M693.4,76.8c0,1.7,0.8,2.6,2.4,2.6c1.7,0,2.4-1,2.4-2.6v-2.4c0-1.7-0.8-2.6-2.4-2.6
			c-1.6,0-2.4,1-2.4,2.6V76.8z"/>
		<path class="st7" d="M705.9,70.3c2.6,0,4.1,1.6,4.1,4.3v2.2c0,2.7-1.6,4.3-4.1,4.3c-2.6,0-4.1-1.6-4.1-4.3v-2.2
			C701.8,71.9,703.3,70.3,705.9,70.3z M703.5,76.8c0,1.7,0.8,2.6,2.4,2.6c1.7,0,2.4-1,2.4-2.6v-2.4c0-1.7-0.8-2.6-2.4-2.6
			c-1.6,0-2.4,1-2.4,2.6V76.8z"/>
		<path class="st7" d="M711.8,74.5c0-2.6,1.6-4.2,4.2-4.2c2.5,0,4,1.5,4,3.8v0.1h-1.7v-0.1c0-1.4-0.7-2.2-2.2-2.2
			c-1.6,0-2.5,1-2.5,2.6v2.5c0,1.6,0.9,2.6,2.5,2.6c1.6,0,2.2-0.9,2.2-2.2v-0.1h-2.6v-1.5h4.4v1.6c0,2.4-1.4,3.8-4,3.8
			c-2.5,0-4.2-1.5-4.2-4.2V74.5z"/>
		<path class="st7" d="M723.8,70.5v8.8h4.9v1.6h-6.7V70.5H723.8z"/>
		<path class="st7" d="M737.2,70.5V72h-5v2.8h4.6v1.6h-4.6v2.9h5.1v1.6h-6.8V70.5H737.2z"/>
	</g>
	<g>
		<path class="st8" d="M681.8,74.5c0-2.6,1.6-4.2,4.2-4.2c2.5,0,4,1.5,4,3.8v0.1h-1.7v-0.1c0-1.4-0.7-2.2-2.2-2.2
			c-1.6,0-2.5,1-2.5,2.6v2.5c0,1.6,0.9,2.6,2.5,2.6c1.6,0,2.2-0.9,2.2-2.2v-0.1h-2.7v-1.5h4.4v1.6c0,2.4-1.4,3.8-4,3.8
			c-2.5,0-4.2-1.5-4.2-4.2V74.5z"/>
		<path class="st8" d="M695.9,70.3c2.6,0,4.1,1.6,4.1,4.3v2.2c0,2.7-1.6,4.3-4.1,4.3c-2.6,0-4.1-1.6-4.1-4.3v-2.2
			C691.7,71.9,693.3,70.3,695.9,70.3z M693.4,76.8c0,1.7,0.8,2.6,2.4,2.6c1.7,0,2.4-1,2.4-2.6v-2.4c0-1.7-0.8-2.6-2.4-2.6
			c-1.6,0-2.4,1-2.4,2.6V76.8z"/>
		<path class="st8" d="M705.9,70.3c2.6,0,4.1,1.6,4.1,4.3v2.2c0,2.7-1.6,4.3-4.1,4.3c-2.6,0-4.1-1.6-4.1-4.3v-2.2
			C701.8,71.9,703.3,70.3,705.9,70.3z M703.5,76.8c0,1.7,0.8,2.6,2.4,2.6c1.7,0,2.4-1,2.4-2.6v-2.4c0-1.7-0.8-2.6-2.4-2.6
			c-1.6,0-2.4,1-2.4,2.6V76.8z"/>
		<path class="st8" d="M711.8,74.5c0-2.6,1.6-4.2,4.2-4.2c2.5,0,4,1.5,4,3.8v0.1h-1.7v-0.1c0-1.4-0.7-2.2-2.2-2.2
			c-1.6,0-2.5,1-2.5,2.6v2.5c0,1.6,0.9,2.6,2.5,2.6c1.6,0,2.2-0.9,2.2-2.2v-0.1h-2.6v-1.5h4.4v1.6c0,2.4-1.4,3.8-4,3.8
			c-2.5,0-4.2-1.5-4.2-4.2V74.5z"/>
		<path class="st8" d="M723.8,70.5v8.8h4.9v1.6h-6.7V70.5H723.8z"/>
		<path class="st8" d="M737.2,70.5V72h-5v2.8h4.6v1.6h-4.6v2.9h5.1v1.6h-6.8V70.5H737.2z"/>
	</g>
</g>
<g>
	<path class="st7" d="M369.5,29.8v-3h-0.1c-0.3,0.5-0.8,1-1.9,1c-1.4,0-2.4-1.1-2.4-2.7c0-1.6,1.1-2.7,2.4-2.7c1.1,0,1.6,0.5,1.9,1
		h0.1v-0.9h0.8v7.3H369.5z M369.5,25.1c0-1.2-0.7-2-1.8-2c-1.1,0-1.8,0.8-1.8,2c0,1.3,0.8,2,1.8,2C368.8,27.1,369.5,26.3,369.5,25.1
		z"/>
	<path class="st7" d="M375.8,27.7v-0.9h-0.1c-0.3,0.5-0.8,1-1.8,1c-1.1,0-2-0.7-2-2.1v-3.1h0.8v3.1c0,1,0.5,1.5,1.4,1.5
		c1,0,1.7-0.7,1.7-1.9v-2.7h0.8v5.2H375.8z"/>
	<path class="st7" d="M380.4,22.3c1.5,0,2.5,1,2.5,2.6v0.4h-4.2c0.1,1.1,0.8,1.7,1.8,1.7c0.8,0,1.3-0.4,1.6-1l0.7,0.4
		c-0.4,0.7-1,1.4-2.3,1.4c-1.6,0-2.7-1.2-2.7-2.8C377.8,23.5,378.9,22.3,380.4,22.3z M382.1,24.7c0-1-0.7-1.6-1.6-1.6
		c-1,0-1.6,0.6-1.7,1.6H382.1z"/>
	<path class="st7" d="M384.9,23.3h0.1c0.2-0.5,0.6-0.8,1.3-0.8h0.6v0.8h-0.9c-0.8,0-1.2,0.4-1.2,1.3v3.1h-0.8v-5.2h0.8V23.3z"/>
	<path class="st7" d="M393.1,22.5l-3.1,7.3h-0.9l0.9-2l-2.2-5.2h0.9l1.7,4.1h0.1l1.7-4.1H393.1z"/>
	<path class="st5" d="M338.4,36.1c2,0,3.1,1.1,3.1,2.9v4.6h-1.1v-1.2h-0.2c-0.4,0.7-1.2,1.4-2.7,1.4c-1.6,0-2.7-0.8-2.7-2.1
		c0-1.3,1.1-2,2.8-2.1l2.9-0.3v-0.3c0-1.1-0.7-1.8-2-1.8c-1.3,0-2.1,0.7-2.5,1.6l-1-0.5C335.5,37.1,336.6,36.1,338.4,36.1z
		 M337.7,42.8c1.7,0,2.8-1,2.8-2.5v-0.1l-2.7,0.3c-1,0.1-1.8,0.4-1.8,1.2C336,42.4,336.7,42.8,337.7,42.8z"/>
	<path class="st5" d="M345.4,36.3v1.3h0.2c0.4-0.7,1.1-1.4,2.5-1.4c1.5,0,2.9,1,2.9,3v4.4h-1.1v-4.3c0-1.4-0.8-2.1-2-2.1
		c-1.4,0-2.4,0.9-2.4,2.6v3.7h-1.1v-7.2H345.4z"/>
	<path class="st5" d="M354.8,36.3v-2.6h1.1v2.6h2.3v1H356v4.8c0,0.3,0.1,0.4,0.4,0.4h1.5v1H356c-0.7,0-1.1-0.4-1.1-1.1v-5.1h-2.2v-1
		H354.8z"/>
	<path class="st5" d="M361,33.1c0.5,0,1,0.4,1,1s-0.4,1-1,1c-0.5,0-1-0.4-1-1S360.5,33.1,361,33.1z M361.6,43.5h-1.1v-7.2h1.1V43.5z
		"/>
	<path class="st5" d="M365.8,36.3v-2c0-0.7,0.4-1.2,1.1-1.2h1.8v1h-1.5c-0.3,0-0.4,0.1-0.4,0.4v1.7h2.2v1h-2.2v6.2h-1.1v-6.2h-2.2
		v-1H365.8z"/>
	<path class="st5" d="M374.2,36.1c2.1,0,3.5,1.5,3.5,3.6v0.6h-5.9c0.1,1.5,1.1,2.4,2.5,2.4c1.2,0,1.8-0.6,2.2-1.4l1,0.5
		c-0.5,0.9-1.4,1.9-3.2,1.9c-2.2,0-3.7-1.7-3.7-3.9C370.6,37.7,372.1,36.1,374.2,36.1z M376.5,39.4c0-1.4-0.9-2.3-2.3-2.3
		c-1.4,0-2.3,0.8-2.4,2.3H376.5z"/>
	<path class="st5" d="M381.1,36.3v1h0.2c0.4-0.7,1.1-1.1,2-1.1c1.1,0,1.7,0.5,2.1,1.3h0.2c0.4-0.7,1.1-1.3,2.2-1.3
		c1.4,0,2.5,0.9,2.5,2.4v5h-1.1v-4.9c0-0.9-0.7-1.5-1.6-1.5c-1,0-1.8,0.7-1.8,1.9v4.5h-1.1v-4.9c0-0.9-0.6-1.5-1.6-1.5
		c-1,0-1.8,0.7-1.8,1.9v4.5H380v-7.2H381.1z"/>
	<path class="st5" d="M393.5,33.1c0.5,0,1,0.4,1,1s-0.4,1-1,1c-0.5,0-1-0.4-1-1S393,33.1,393.5,33.1z M394.1,43.5h-1.1v-7.2h1.1
		V43.5z"/>
	<path class="st5" d="M398,36.3v1.3h0.2c0.4-0.7,1.1-1.4,2.5-1.4c1.5,0,2.9,1,2.9,3v4.4h-1.1v-4.3c0-1.4-0.8-2.1-2-2.1
		c-1.4,0-2.4,0.9-2.4,2.6v3.7h-1.1v-7.2H398z"/>
	<path class="st5" d="M406.8,33.1c0.5,0,1,0.4,1,1s-0.4,1-1,1c-0.5,0-1-0.4-1-1S406.3,33.1,406.8,33.1z M407.4,43.5h-1.1v-7.2h1.1
		V43.5z"/>
	<path class="st5" d="M412.8,36.1c1.5,0,2.5,0.6,3.6,1.9l-0.9,0.6c-0.8-1.1-1.7-1.5-2.7-1.5c-0.9,0-1.6,0.4-1.6,1.1
		c0,0.8,0.8,0.9,1.7,1.1l0.7,0.1c1.7,0.3,2.9,0.7,2.9,2.1s-1.3,2.3-3.2,2.3c-2,0-3.2-1.2-3.7-2.4l1-0.5c0.5,1.2,1.5,1.9,2.8,1.9
		c1.2,0,2-0.5,2-1.3c0-0.8-0.9-0.9-1.9-1.1l-0.7-0.1c-1.6-0.2-2.7-0.7-2.7-2.1C410.1,36.9,411.3,36.1,412.8,36.1z"/>
	<path class="st5" d="M420,36.3v-2.6h1.1v2.6h2.3v1h-2.3v4.8c0,0.3,0.1,0.4,0.4,0.4h1.5v1h-1.9c-0.7,0-1.1-0.4-1.1-1.1v-5.1h-2.2v-1
		H420z"/>
</g>
<g>
	<line class="st4" x1="379.2" y1="65.8" x2="379.2" y2="79.7"/>
	<g>
		<polygon class="st5" points="374.8,76.2 375.6,75.4 379.2,79.2 382.8,75.4 383.5,76.2 379.2,80.8 		"/>
	</g>
</g>
<g>
	<line class="st4" x1="379.2" y1="145.3" x2="379.2" y2="159.2"/>
	<g>
		<polygon class="st5" points="374.8,155.7 375.6,155 379.2,158.8 382.8,155 383.5,155.7 379.2,160.4 		"/>
	</g>
</g>
<g>
	<line class="st4" x1="379.2" y1="225.2" x2="379.2" y2="239.1"/>
	<g>
		<polygon class="st5" points="374.9,235.6 375.6,234.9 379.2,238.7 382.8,234.9 383.5,235.6 379.2,240.2 		"/>
	</g>
</g>
<g>
	<path class="st2" d="M250.4,101.5c1.5,0,2.5,0.6,3.6,1.9l-0.9,0.6c-0.8-1.1-1.7-1.5-2.7-1.5c-0.9,0-1.6,0.4-1.6,1.1
		c0,0.8,0.8,0.9,1.7,1.1l0.7,0.1c1.7,0.3,2.9,0.7,2.9,2.1s-1.3,2.3-3.2,2.3c-2,0-3.2-1.2-3.7-2.4l1-0.5c0.5,1.2,1.5,1.9,2.8,1.9
		c1.2,0,2-0.5,2-1.3c0-0.8-0.9-0.9-1.9-1.1l-0.7-0.1c-1.6-0.2-2.7-0.7-2.7-2.1C247.6,102.3,248.9,101.5,250.4,101.5z"/>
	<path class="st2" d="M259.4,101.5c2.1,0,3.5,1.5,3.5,3.6v0.6H257c0.1,1.5,1.1,2.4,2.5,2.4c1.2,0,1.8-0.6,2.2-1.4l1,0.5
		c-0.5,0.9-1.4,1.9-3.2,1.9c-2.2,0-3.7-1.7-3.7-3.9C255.8,103.2,257.3,101.5,259.4,101.5z M261.7,104.8c0-1.4-0.9-2.3-2.3-2.3
		c-1.4,0-2.3,0.8-2.4,2.3H261.7z"/>
	<path class="st2" d="M266.3,108.9h-1.1V98.6h1.1V108.9z"/>
	<path class="st2" d="M272.2,101.5c2.1,0,3.5,1.5,3.5,3.6v0.6h-5.9c0.1,1.5,1.1,2.4,2.5,2.4c1.2,0,1.8-0.6,2.2-1.4l1,0.5
		c-0.5,0.9-1.4,1.9-3.2,1.9c-2.2,0-3.7-1.7-3.7-3.9C268.6,103.2,270.1,101.5,272.2,101.5z M274.5,104.8c0-1.4-0.9-2.3-2.3-2.3
		c-1.4,0-2.3,0.8-2.4,2.3H274.5z"/>
	<path class="st2" d="M281.2,101.5c1.9,0,3.2,1.2,3.4,2.8l-1.1,0.2c-0.1-1.1-1-2-2.3-2c-1.5,0-2.6,1.1-2.6,2.8
		c0,1.6,1.1,2.8,2.6,2.8c1.5,0,2.1-0.9,2.3-2l1.1,0.2c-0.3,1.4-1.4,2.8-3.4,2.8c-2.2,0-3.8-1.6-3.8-3.8
		C277.5,103.1,279.1,101.5,281.2,101.5z"/>
	<path class="st2" d="M288.2,101.7v-2.6h1.1v2.6h2.3v1h-2.3v4.8c0,0.3,0.1,0.4,0.4,0.4h1.5v1h-1.9c-0.7,0-1.1-0.4-1.1-1.1v-5.1H286
		v-1H288.2z"/>
	<path class="st5" d="M302.3,101.5c2.1,0,3.7,1.6,3.7,3.8c0,2.2-1.5,3.8-3.7,3.8c-2.2,0-3.7-1.6-3.7-3.8
		C298.6,103.1,300.1,101.5,302.3,101.5z M302.3,108.1c1.5,0,2.5-1.1,2.5-2.8s-1-2.8-2.5-2.8c-1.5,0-2.6,1.1-2.6,2.8
		C299.7,107,300.7,108.1,302.3,108.1z"/>
	<path class="st5" d="M309.4,101.7v1.3h0.2c0.4-0.7,1.1-1.4,2.5-1.4c1.5,0,2.9,1,2.9,3v4.4h-1.1v-4.3c0-1.4-0.8-2.1-2-2.1
		c-1.4,0-2.4,0.9-2.4,2.6v3.7h-1.1v-7.2H309.4z"/>
	<path class="st5" d="M324.2,101.7v-2.6h1.1v2.6h2.3v1h-2.3v4.8c0,0.3,0.1,0.4,0.4,0.4h1.5v1h-1.9c-0.7,0-1.1-0.4-1.1-1.1v-5.1H322
		v-1H324.2z"/>
	<path class="st5" d="M330.9,98.6v4.4h0.2c0.4-0.7,1.1-1.4,2.5-1.4c1.5,0,2.9,1,2.9,3v4.4h-1.1v-4.3c0-1.4-0.8-2.1-2-2.1
		c-1.4,0-2.4,0.9-2.4,2.6v3.7h-1.1V98.6H330.9z"/>
	<path class="st5" d="M342.3,101.5c2.1,0,3.5,1.5,3.5,3.6v0.6h-5.9c0.1,1.5,1.1,2.4,2.5,2.4c1.2,0,1.8-0.6,2.2-1.4l1,0.5
		c-0.5,0.9-1.4,1.9-3.2,1.9c-2.2,0-3.7-1.7-3.7-3.9C338.7,103.2,340.2,101.5,342.3,101.5z M344.6,104.8c0-1.4-0.9-2.3-2.3-2.3
		c-1.4,0-2.3,0.8-2.4,2.3H344.6z"/>
	<path class="st5" d="M354.4,102.8h0.2c0.3-0.7,0.8-1.1,1.9-1.1h0.9v1.1h-1.2c-1.1,0-1.7,0.6-1.7,1.8v4.4h-1.1v-7.2h1.1V102.8z"/>
	<path class="st5" d="M362.1,101.5c2.1,0,3.5,1.5,3.5,3.6v0.6h-5.9c0.1,1.5,1.1,2.4,2.5,2.4c1.2,0,1.8-0.6,2.2-1.4l1,0.5
		c-0.5,0.9-1.4,1.9-3.2,1.9c-2.2,0-3.7-1.7-3.7-3.9C358.5,103.2,360,101.5,362.1,101.5z M364.4,104.8c0-1.4-0.9-2.3-2.3-2.3
		c-1.4,0-2.3,0.8-2.4,2.3H364.4z"/>
	<path class="st5" d="M370.4,101.5c1.5,0,2.5,0.6,3.6,1.9l-0.9,0.6c-0.8-1.1-1.7-1.5-2.7-1.5c-0.9,0-1.6,0.4-1.6,1.1
		c0,0.8,0.8,0.9,1.7,1.1l0.7,0.1c1.7,0.3,2.9,0.7,2.9,2.1s-1.3,2.3-3.2,2.3c-2,0-3.2-1.2-3.7-2.4l1-0.5c0.5,1.2,1.5,1.9,2.8,1.9
		c1.2,0,2-0.5,2-1.3c0-0.8-0.9-0.9-1.9-1.1l-0.7-0.1c-1.6-0.2-2.7-0.7-2.7-2.1C367.6,102.3,368.9,101.5,370.4,101.5z"/>
	<path class="st5" d="M381.7,108.9v-1.3h-0.2c-0.4,0.7-1.1,1.4-2.5,1.4c-1.5,0-2.8-1-2.8-3v-4.4h1.1v4.3c0,1.4,0.8,2.1,2,2.1
		c1.4,0,2.4-0.9,2.4-2.6v-3.7h1.1v7.2H381.7z"/>
	<path class="st5" d="M386.8,108.9h-1.1V98.6h1.1V108.9z"/>
	<path class="st5" d="M390.9,101.7v-2.6h1.1v2.6h2.3v1H392v4.8c0,0.3,0.1,0.4,0.4,0.4h1.5v1H392c-0.7,0-1.1-0.4-1.1-1.1v-5.1h-2.2
		v-1H390.9z"/>
	<path class="st5" d="M399.1,101.5c1.5,0,2.5,0.6,3.6,1.9l-0.9,0.6c-0.8-1.1-1.7-1.5-2.7-1.5c-0.9,0-1.6,0.4-1.6,1.1
		c0,0.8,0.8,0.9,1.7,1.1l0.7,0.1c1.7,0.3,2.9,0.7,2.9,2.1s-1.3,2.3-3.2,2.3c-2,0-3.2-1.2-3.7-2.4l1-0.5c0.5,1.2,1.5,1.9,2.8,1.9
		c1.2,0,2-0.5,2-1.3c0-0.8-0.9-0.9-1.9-1.1l-0.7-0.1c-1.6-0.2-2.7-0.7-2.7-2.1C396.4,102.3,397.6,101.5,399.1,101.5z"/>
	<path class="st5" d="M411.5,101.7v-2.6h1.1v2.6h2.3v1h-2.3v4.8c0,0.3,0.1,0.4,0.4,0.4h1.5v1h-1.9c-0.7,0-1.1-0.4-1.1-1.1v-5.1h-2.2
		v-1H411.5z"/>
	<path class="st5" d="M418.2,98.6v4.4h0.2c0.4-0.7,1.1-1.4,2.5-1.4c1.5,0,2.9,1,2.9,3v4.4h-1.1v-4.3c0-1.4-0.8-2.1-2-2.1
		c-1.4,0-2.4,0.9-2.4,2.6v3.7h-1.1V98.6H418.2z"/>
	<path class="st5" d="M429.6,101.5c2.1,0,3.5,1.5,3.5,3.6v0.6h-5.9c0.1,1.5,1.1,2.4,2.5,2.4c1.2,0,1.8-0.6,2.2-1.4l1,0.5
		c-0.5,0.9-1.4,1.9-3.2,1.9c-2.2,0-3.7-1.7-3.7-3.9C426,103.2,427.5,101.5,429.6,101.5z M431.9,104.8c0-1.4-0.9-2.3-2.3-2.3
		c-1.4,0-2.3,0.8-2.4,2.3H431.9z"/>
	<path class="st5" d="M447,98.6v1.1h-5.2v3.5h4.9v1.1h-4.9v4.6h-1.2V98.6H447z"/>
	<path class="st5" d="M452.2,101.5c2,0,3.1,1.1,3.1,2.9v4.6h-1.1v-1.2H454c-0.4,0.7-1.2,1.4-2.7,1.4c-1.6,0-2.7-0.8-2.7-2.1
		c0-1.3,1.1-2,2.8-2.1l2.9-0.3v-0.3c0-1.1-0.7-1.8-2-1.8c-1.3,0-2.1,0.7-2.5,1.6l-1-0.5C449.3,102.6,450.4,101.5,452.2,101.5z
		 M451.5,108.2c1.7,0,2.8-1,2.8-2.5v-0.1l-2.7,0.3c-1,0.1-1.8,0.4-1.8,1.2C449.8,107.8,450.5,108.2,451.5,108.2z"/>
	<path class="st5" d="M461.3,101.5c1.9,0,3.2,1.2,3.4,2.8l-1.1,0.2c-0.1-1.1-1-2-2.3-2c-1.5,0-2.6,1.1-2.6,2.8
		c0,1.6,1.1,2.8,2.6,2.8c1.5,0,2.1-0.9,2.3-2l1.1,0.2c-0.3,1.4-1.4,2.8-3.4,2.8c-2.2,0-3.8-1.6-3.8-3.8
		C457.6,103.1,459.2,101.5,461.3,101.5z"/>
	<path class="st5" d="M470.2,101.5c2.1,0,3.5,1.5,3.5,3.6v0.6h-5.9c0.1,1.5,1.1,2.4,2.5,2.4c1.2,0,1.8-0.6,2.2-1.4l1,0.5
		c-0.5,0.9-1.4,1.9-3.2,1.9c-2.2,0-3.7-1.7-3.7-3.9C466.6,103.2,468.1,101.5,470.2,101.5z M472.5,104.8c0-1.4-0.9-2.3-2.3-2.3
		c-1.4,0-2.3,0.8-2.4,2.3H472.5z"/>
	<path class="st5" d="M477.1,98.6v4.4h0.2c0.4-0.7,1.1-1.5,2.6-1.5c1.9,0,3.4,1.6,3.4,3.8s-1.5,3.8-3.4,3.8c-1.5,0-2.2-0.7-2.6-1.4
		h-0.2v1.2H476V98.6H477.1z M477.1,105.3c0,1.7,1,2.8,2.5,2.8c1.5,0,2.5-1,2.5-2.8c0-1.7-1-2.8-2.5-2.8
		C478.1,102.5,477.1,103.6,477.1,105.3z"/>
	<path class="st5" d="M488.9,101.5c2.1,0,3.7,1.6,3.7,3.8c0,2.2-1.5,3.8-3.7,3.8c-2.2,0-3.7-1.6-3.7-3.8
		C485.2,103.1,486.7,101.5,488.9,101.5z M488.9,108.1c1.5,0,2.5-1.1,2.5-2.8s-1-2.8-2.5-2.8c-1.5,0-2.6,1.1-2.6,2.8
		C486.3,107,487.4,108.1,488.9,108.1z"/>
	<path class="st5" d="M498.1,101.5c2.1,0,3.7,1.6,3.7,3.8c0,2.2-1.5,3.8-3.7,3.8c-2.2,0-3.7-1.6-3.7-3.8
		C494.4,103.1,496,101.5,498.1,101.5z M498.1,108.1c1.5,0,2.5-1.1,2.5-2.8s-1-2.8-2.5-2.8c-1.5,0-2.6,1.1-2.6,2.8
		C495.6,107,496.6,108.1,498.1,108.1z"/>
	<path class="st5" d="M507.7,104.6l3.3,4.4h-1.4l-2.7-3.7l-1.6,1.4v2.3h-1.1V98.6h1.1v6.5h0.2l3.9-3.4h1.7L507.7,104.6z"/>
	<path class="st5" d="M265.9,117.6h1.1v1.2h0.2c0.4-0.7,1.1-1.5,2.6-1.5c1.9,0,3.4,1.6,3.4,3.8s-1.5,3.8-3.4,3.8
		c-1.5,0-2.2-0.7-2.6-1.4H267v4.2h-1.1V117.6z M272.1,121.2c0-1.7-1-2.8-2.5-2.8c-1.5,0-2.5,1.1-2.5,2.8c0,1.7,1,2.8,2.5,2.8
		C271.1,124,272.1,123,272.1,121.2z"/>
	<path class="st5" d="M278.7,117.4c2,0,3.1,1.1,3.1,2.9v4.6h-1.1v-1.2h-0.2c-0.4,0.7-1.2,1.4-2.7,1.4c-1.6,0-2.7-0.8-2.7-2.1
		c0-1.3,1.1-2,2.8-2.1l2.9-0.3v-0.3c0-1.1-0.7-1.8-2-1.8c-1.3,0-2.1,0.7-2.5,1.6l-1-0.5C275.8,118.4,276.9,117.4,278.7,117.4z
		 M278,124.1c1.7,0,2.8-1,2.8-2.5v-0.1l-2.7,0.3c-1,0.1-1.8,0.4-1.8,1.2C276.3,123.6,277,124.1,278,124.1z"/>
	<path class="st5" d="M291.5,117.6v7c0,2-1.3,3.4-3.5,3.4c-1.9,0-3-0.9-3.7-2l1-0.6c0.4,0.8,1.3,1.6,2.6,1.6c1.4,0,2.5-0.8,2.5-2.5
		v-1.1h-0.2c-0.4,0.7-1.1,1.5-2.6,1.5c-1.9,0-3.4-1.5-3.4-3.7c0-2.2,1.5-3.7,3.4-3.7c1.5,0,2.2,0.7,2.6,1.5h0.2v-1.2H291.5z
		 M290.4,121.1c0-1.7-1-2.7-2.5-2.7c-1.5,0-2.5,1-2.5,2.7s1.1,2.7,2.5,2.7C289.3,123.8,290.4,122.8,290.4,121.1z"/>
	<path class="st5" d="M297.4,117.4c2.1,0,3.5,1.5,3.5,3.6v0.6H295c0.1,1.5,1.1,2.4,2.5,2.4c1.2,0,1.8-0.6,2.2-1.4l1,0.5
		c-0.5,0.9-1.4,1.9-3.2,1.9c-2.2,0-3.7-1.7-3.7-3.9C293.8,119,295.3,117.4,297.4,117.4z M299.7,120.6c0-1.4-0.9-2.3-2.3-2.3
		c-1.4,0-2.3,0.8-2.4,2.3H299.7z"/>
	<path class="st5" d="M309.1,117.8c-0.6,0-1-0.4-1-1v-1.5c0-0.7,0.5-1.1,1.1-1.1h0.9v0.7h-0.8c-0.3,0-0.4,0.1-0.4,0.4v0.5
		c0,0,0.1,0,0.3,0c0.5,0,1,0.4,1,1C310.1,117.4,309.7,117.8,309.1,117.8z M311.5,117.8c-0.6,0-1-0.4-1-1v-1.5c0-0.7,0.5-1.1,1.1-1.1
		h0.9v0.7h-0.8c-0.3,0-0.4,0.1-0.4,0.4v0.5c0.1,0,0.1,0,0.3,0c0.5,0,1,0.4,1,1C312.6,117.4,312.1,117.8,311.5,117.8z"/>
	<path class="st5" d="M322.4,114.4v1.1h-3.5v9.3h-1.2v-9.3h-3.4v-1.1H322.4z"/>
	<path class="st5" d="M325.5,114.4v4.4h0.2c0.4-0.7,1.1-1.4,2.5-1.4c1.5,0,2.9,1,2.9,3v4.4h-1.1v-4.3c0-1.4-0.8-2.1-2-2.1
		c-1.4,0-2.4,0.9-2.4,2.6v3.7h-1.1v-10.4H325.5z"/>
	<path class="st5" d="M336.9,117.4c2.1,0,3.5,1.5,3.5,3.6v0.6h-5.9c0.1,1.5,1.1,2.4,2.5,2.4c1.2,0,1.8-0.6,2.2-1.4l1,0.5
		c-0.5,0.9-1.4,1.9-3.2,1.9c-2.2,0-3.7-1.7-3.7-3.9C333.3,119,334.8,117.4,336.9,117.4z M339.2,120.6c0-1.4-0.9-2.3-2.3-2.3
		c-1.4,0-2.3,0.8-2.4,2.3H339.2z"/>
	<path class="st5" d="M352.3,114.4l3.4,10.4h-1.3l-0.8-2.6h-4.4l-0.8,2.6H347l3.4-10.4H352.3z M353.2,121.1l-1.8-5.6h-0.2l-1.8,5.6
		H353.2z"/>
	<path class="st5" d="M358.8,117.6v1.3h0.2c0.4-0.7,1.1-1.4,2.5-1.4c1.5,0,2.9,1,2.9,3v4.4h-1.1v-4.3c0-1.4-0.8-2.1-2-2.1
		c-1.4,0-2.4,0.9-2.4,2.6v3.7h-1.1v-7.2H358.8z"/>
	<path class="st5" d="M368.2,117.6V115h1.1v2.6h2.3v1h-2.3v4.8c0,0.3,0.1,0.4,0.4,0.4h1.5v1h-1.9c-0.7,0-1.1-0.4-1.1-1.1v-5.1H366
		v-1H368.2z"/>
	<path class="st5" d="M374.4,114.4c0.5,0,1,0.4,1,1s-0.4,1-1,1c-0.5,0-1-0.4-1-1S373.9,114.4,374.4,114.4z M375,124.8h-1.1v-7.2h1.1
		V124.8z"/>
	<path class="st5" d="M389.4,114.4v1.1h-5.2v3.5h4.9v1.1h-4.9v4.6H383v-10.4H389.4z"/>
	<path class="st5" d="M394.6,117.4c2.1,0,3.5,1.5,3.5,3.6v0.6h-5.9c0.1,1.5,1.1,2.4,2.5,2.4c1.2,0,1.8-0.6,2.2-1.4l1,0.5
		c-0.5,0.9-1.4,1.9-3.2,1.9c-2.2,0-3.7-1.7-3.7-3.9C391,119,392.5,117.4,394.6,117.4z M396.9,120.6c0-1.4-0.9-2.3-2.3-2.3
		c-1.4,0-2.3,0.8-2.4,2.3H396.9z"/>
	<path class="st5" d="M401.5,117.6v1h0.2c0.4-0.7,1.1-1.1,2-1.1c1.1,0,1.7,0.5,2.1,1.3h0.2c0.4-0.7,1.1-1.3,2.2-1.3
		c1.4,0,2.5,0.9,2.5,2.4v5h-1.1v-4.9c0-0.9-0.7-1.5-1.6-1.5c-1,0-1.8,0.7-1.8,1.9v4.5h-1.1v-4.9c0-0.9-0.6-1.5-1.6-1.5
		c-1,0-1.8,0.7-1.8,1.9v4.5h-1.1v-7.2H401.5z"/>
	<path class="st5" d="M413.9,114.4c0.5,0,1,0.4,1,1s-0.4,1-1,1c-0.5,0-1-0.4-1-1S413.4,114.4,413.9,114.4z M414.5,124.8h-1.1v-7.2
		h1.1V124.8z"/>
	<path class="st5" d="M418.4,117.6v1.3h0.2c0.4-0.7,1.1-1.4,2.5-1.4c1.5,0,2.9,1,2.9,3v4.4h-1.1v-4.3c0-1.4-0.8-2.1-2-2.1
		c-1.4,0-2.4,0.9-2.4,2.6v3.7h-1.1v-7.2H418.4z"/>
	<path class="st5" d="M427.3,114.4c0.5,0,1,0.4,1,1s-0.4,1-1,1s-1-0.4-1-1S426.7,114.4,427.3,114.4z M427.8,124.8h-1.1v-7.2h1.1
		V124.8z"/>
	<path class="st5" d="M433.2,117.4c1.5,0,2.5,0.6,3.6,1.9l-0.9,0.6c-0.8-1.1-1.7-1.5-2.7-1.5c-0.9,0-1.6,0.4-1.6,1.1
		c0,0.8,0.8,0.9,1.7,1.1l0.7,0.1c1.7,0.3,2.9,0.7,2.9,2.1c0,1.4-1.3,2.3-3.2,2.3c-2,0-3.2-1.2-3.7-2.4l1-0.5
		c0.5,1.2,1.4,1.9,2.8,1.9c1.2,0,2-0.5,2-1.3c0-0.8-0.9-0.9-1.9-1.1l-0.7-0.1c-1.6-0.2-2.7-0.7-2.7-2.1
		C430.5,118.1,431.7,117.4,433.2,117.4z"/>
	<path class="st5" d="M440.4,117.6V115h1.1v2.6h2.3v1h-2.3v4.8c0,0.3,0.1,0.4,0.4,0.4h1.5v1h-1.9c-0.7,0-1.1-0.4-1.1-1.1v-5.1h-2.2
		v-1H440.4z"/>
	<path class="st5" d="M455.4,114.4c1.8,0,3,1,3,2.7c0,1.3-0.8,2.1-1.8,2.3v0.2c0.9,0.2,1.8,1,1.8,2.3c0,1.7-1.3,2.8-3.1,2.8h-4.2
		v-10.4H455.4z M452.5,119h2.9c1.2,0,2-0.7,2-1.8c0-1-0.8-1.7-2-1.7h-2.9V119z M452.5,123.7h2.9c1.2,0,2-0.7,2-1.8
		c0-1.1-0.7-1.8-2-1.8h-2.9V123.7z"/>
	<path class="st5" d="M464.2,117.4c2,0,3.1,1.1,3.1,2.9v4.6h-1.1v-1.2H466c-0.4,0.7-1.2,1.4-2.7,1.4c-1.6,0-2.7-0.8-2.7-2.1
		c0-1.3,1.1-2,2.8-2.1l2.9-0.3v-0.3c0-1.1-0.7-1.8-2-1.8c-1.3,0-2.1,0.7-2.5,1.6l-1-0.5C461.2,118.4,462.4,117.4,464.2,117.4z
		 M463.4,124.1c1.7,0,2.8-1,2.8-2.5v-0.1l-2.7,0.3c-1,0.1-1.8,0.4-1.8,1.2C461.7,123.6,462.4,124.1,463.4,124.1z"/>
	<path class="st5" d="M471.1,117.6v1.3h0.2c0.4-0.7,1.1-1.4,2.5-1.4c1.5,0,2.9,1,2.9,3v4.4h-1.1v-4.3c0-1.4-0.8-2.1-2-2.1
		c-1.4,0-2.4,0.9-2.4,2.6v3.7H470v-7.2H471.1z"/>
	<path class="st5" d="M483,120.4l3.3,4.4h-1.4l-2.7-3.7l-1.6,1.4v2.3h-1.1v-10.4h1.1v6.5h0.2l3.9-3.4h1.7L483,120.4z"/>
	<path class="st5" d="M489,114.2c0.6,0,1,0.4,1,1v1.5c0,0.7-0.5,1.1-1.1,1.1H488v-0.7h0.8c0.3,0,0.4-0.1,0.4-0.4v-0.5
		c-0.1,0-0.1,0-0.3,0c-0.5,0-1-0.4-1-1C488,114.6,488.4,114.2,489,114.2z M491.4,114.2c0.6,0,1,0.4,1,1v1.5c0,0.7-0.5,1.1-1.1,1.1
		h-0.9v-0.7h0.8c0.3,0,0.4-0.1,0.4-0.4v-0.5c0,0-0.1,0-0.3,0c-0.5,0-1-0.4-1-1C490.4,114.6,490.9,114.2,491.4,114.2z"/>
</g>
<g>
	<path class="st2" d="M319.2,181.8c2.1,0,3.5,1.5,3.5,3.6v0.6h-5.9c0.1,1.5,1.1,2.4,2.5,2.4c1.2,0,1.8-0.6,2.2-1.4l1,0.5
		c-0.5,0.9-1.4,1.9-3.2,1.9c-2.2,0-3.7-1.7-3.7-3.9C315.6,183.4,317.1,181.8,319.2,181.8z M321.5,185c0-1.4-0.9-2.3-2.3-2.3
		c-1.4,0-2.3,0.8-2.4,2.3H321.5z"/>
	<path class="st2" d="M325.6,182l2.1,2.8h0.2l2.1-2.8h1.4l-2.8,3.5l2.9,3.7h-1.4l-2.2-3h-0.2l-2.2,3h-1.4l2.9-3.7l-2.8-3.5H325.6z"
		/>
	<path class="st2" d="M335,182v-2.6h1.1v2.6h2.3v1h-2.3v4.8c0,0.3,0.1,0.4,0.4,0.4h1.5v1h-1.9c-0.7,0-1.1-0.4-1.1-1.1V183h-2.2v-1
		H335z"/>
	<path class="st2" d="M341.8,183.1h0.2c0.3-0.7,0.8-1.1,1.9-1.1h0.9v1.1h-1.2c-1.1,0-1.7,0.6-1.7,1.8v4.4h-1.1V182h1.1V183.1z"/>
	<path class="st2" d="M349.9,181.8c2,0,3.1,1.1,3.1,2.9v4.6h-1.1V188h-0.2c-0.4,0.7-1.2,1.4-2.7,1.4c-1.6,0-2.7-0.8-2.7-2.1
		c0-1.3,1.1-2,2.8-2.1l2.9-0.3v-0.3c0-1.1-0.7-1.8-2-1.8c-1.3,0-2.1,0.7-2.5,1.6l-1-0.5C346.9,182.8,348.1,181.8,349.9,181.8z
		 M349.1,188.5c1.7,0,2.8-1,2.8-2.5v-0.1l-2.7,0.3c-1,0.1-1.8,0.4-1.8,1.2C347.4,188.1,348.1,188.5,349.1,188.5z"/>
	<path class="st2" d="M359,181.8c1.9,0,3.2,1.2,3.4,2.8l-1.1,0.2c-0.1-1.1-1-2-2.3-2c-1.5,0-2.6,1.1-2.6,2.8c0,1.6,1.1,2.8,2.6,2.8
		c1.5,0,2.1-0.9,2.3-2l1.1,0.2c-0.3,1.4-1.4,2.8-3.4,2.8c-2.2,0-3.8-1.6-3.8-3.8C355.3,183.4,356.9,181.8,359,181.8z"/>
	<path class="st2" d="M366,182v-2.6h1.1v2.6h2.3v1h-2.3v4.8c0,0.3,0.1,0.4,0.4,0.4h1.5v1h-1.9c-0.7,0-1.1-0.4-1.1-1.1V183h-2.2v-1
		H366z"/>
	<path class="st5" d="M378.1,182v-2.6h1.1v2.6h2.3v1h-2.3v4.8c0,0.3,0.1,0.4,0.4,0.4h1.5v1h-1.9c-0.7,0-1.1-0.4-1.1-1.1V183h-2.2v-1
		H378.1z"/>
	<path class="st5" d="M384.9,178.9v4.4h0.2c0.4-0.7,1.1-1.4,2.5-1.4c1.5,0,2.9,1,2.9,3v4.4h-1.1v-4.3c0-1.4-0.8-2.1-2-2.1
		c-1.4,0-2.4,0.9-2.4,2.6v3.7h-1.1v-10.4H384.9z"/>
	<path class="st5" d="M396.3,181.8c2.1,0,3.5,1.5,3.5,3.6v0.6h-5.9c0.1,1.5,1.1,2.4,2.5,2.4c1.2,0,1.8-0.6,2.2-1.4l1,0.5
		c-0.5,0.9-1.4,1.9-3.2,1.9c-2.2,0-3.7-1.7-3.7-3.9C392.7,183.4,394.2,181.8,396.3,181.8z M398.6,185c0-1.4-0.9-2.3-2.3-2.3
		c-1.4,0-2.3,0.8-2.4,2.3H398.6z"/>
	<path class="st5" d="M408.3,182v1h0.2c0.4-0.7,1.1-1.1,2-1.1c1.1,0,1.7,0.5,2.1,1.3h0.2c0.4-0.7,1.1-1.3,2.2-1.3
		c1.4,0,2.5,0.9,2.5,2.4v5h-1.1v-4.9c0-0.9-0.7-1.5-1.6-1.5c-1,0-1.8,0.7-1.8,1.9v4.5h-1.1v-4.9c0-0.9-0.6-1.5-1.6-1.5
		c-1,0-1.8,0.7-1.8,1.9v4.5h-1.1V182H408.3z"/>
	<path class="st5" d="M423.4,181.8c2.1,0,3.7,1.6,3.7,3.8c0,2.2-1.5,3.8-3.7,3.8c-2.2,0-3.7-1.6-3.7-3.8
		C419.8,183.4,421.3,181.8,423.4,181.8z M423.4,188.4c1.5,0,2.5-1.1,2.5-2.8c0-1.7-1-2.8-2.5-2.8c-1.5,0-2.6,1.1-2.6,2.8
		C420.9,187.3,421.9,188.4,423.4,188.4z"/>
	<path class="st5" d="M431.9,181.8c1.4,0,2.5,0.6,3.6,1.9l-0.9,0.6c-0.8-1.1-1.7-1.5-2.7-1.5c-0.9,0-1.6,0.4-1.6,1.1
		c0,0.8,0.8,0.9,1.7,1.1l0.7,0.1c1.7,0.3,2.9,0.7,2.9,2.1c0,1.4-1.3,2.3-3.2,2.3c-2,0-3.2-1.2-3.7-2.4l1-0.5
		c0.5,1.2,1.5,1.9,2.8,1.9c1.2,0,2-0.5,2-1.3c0-0.8-0.9-0.9-1.8-1.1l-0.7-0.1c-1.6-0.2-2.7-0.7-2.7-2.1
		C429.2,182.5,430.5,181.8,431.9,181.8z"/>
	<path class="st5" d="M439.1,182v-2.6h1.1v2.6h2.3v1h-2.3v4.8c0,0.3,0.1,0.4,0.4,0.4h1.5v1h-1.9c-0.7,0-1.1-0.4-1.1-1.1V183h-2.2v-1
		H439.1z"/>
	<path class="st5" d="M308.8,198.9h0.2c0.3-0.7,0.8-1.1,1.9-1.1h0.9v1.1h-1.2c-1.1,0-1.7,0.6-1.7,1.8v4.4h-1.1v-7.2h1.1V198.9z"/>
	<path class="st5" d="M316.5,197.6c2.1,0,3.5,1.5,3.5,3.6v0.6h-5.9c0.1,1.5,1.1,2.4,2.5,2.4c1.2,0,1.8-0.6,2.2-1.4l1,0.5
		c-0.5,0.9-1.4,1.9-3.2,1.9c-2.2,0-3.7-1.7-3.7-3.9C312.9,199.3,314.4,197.6,316.5,197.6z M318.8,200.9c0-1.4-0.9-2.3-2.3-2.3
		c-1.4,0-2.3,0.8-2.4,2.3H318.8z"/>
	<path class="st5" d="M325.5,197.7c1.9,0,3.2,1.2,3.4,2.8l-1.1,0.2c-0.1-1.1-1-2-2.3-2c-1.5,0-2.6,1.1-2.6,2.8
		c0,1.6,1.1,2.8,2.6,2.8c1.5,0,2.1-0.9,2.3-2l1.1,0.2c-0.3,1.4-1.4,2.8-3.4,2.8c-2.2,0-3.8-1.6-3.8-3.8
		C321.8,199.3,323.4,197.7,325.5,197.7z"/>
	<path class="st5" d="M334.4,197.6c2.1,0,3.5,1.5,3.5,3.6v0.6H332c0.1,1.5,1.1,2.4,2.5,2.4c1.2,0,1.8-0.6,2.2-1.4l1,0.5
		c-0.5,0.9-1.4,1.9-3.2,1.9c-2.2,0-3.7-1.7-3.7-3.9C330.8,199.3,332.3,197.6,334.4,197.6z M336.7,200.9c0-1.4-0.9-2.3-2.3-2.3
		c-1.4,0-2.3,0.8-2.4,2.3H336.7z"/>
	<path class="st5" d="M341.3,197.9v1.3h0.2c0.4-0.7,1.1-1.4,2.5-1.4c1.5,0,2.9,1,2.9,3v4.4h-1.1v-4.3c0-1.4-0.8-2.1-2-2.1
		c-1.4,0-2.4,0.9-2.4,2.6v3.7h-1.1v-7.2H341.3z"/>
	<path class="st5" d="M350.7,197.9v-2.6h1.1v2.6h2.3v1h-2.3v4.8c0,0.3,0.1,0.4,0.4,0.4h1.5v1h-1.9c-0.7,0-1.1-0.4-1.1-1.1v-5.1h-2.2
		v-1H350.7z"/>
	<path class="st5" d="M364.9,194.5c2.1,0,3.5,1.3,3.5,3.3c0,2.1-1.5,3-3.5,3.6c-1.7,0.5-2.5,0.9-2.5,2.3v0.2h6v1.1h-7.2v-1.2
		c0-2.1,1.3-2.8,3.2-3.4c1.8-0.5,2.8-1.2,2.8-2.7c0-1.4-1-2.2-2.3-2.2c-1.6,0-2.5,0.9-2.5,2.5v0.3h-1.2V198
		C361.2,195.9,362.8,194.5,364.9,194.5z"/>
	<path class="st5" d="M377.4,194.7v1.1l-3.3,2.9v0.2h0.4c1.7,0,3.1,1.2,3.1,3.1c0,2-1.6,3.3-3.6,3.3c-2.2,0-3.8-1.3-3.8-3.5v-0.6
		h1.2v0.6c0,1.6,1,2.4,2.6,2.4c1.5,0,2.4-1,2.4-2.2c0-1.4-1-2.1-2.3-2.1h-1.5v-1.1l3.2-2.8h-5.3v-1.1H377.4z"/>
	<path class="st5" d="M383.4,194.5c2.3,0,3.8,1.5,3.8,4.2v2.3c0,2.7-1.4,4.2-3.8,4.2c-2.4,0-3.8-1.5-3.8-4.2v-2.3
		C379.6,196,381,194.5,383.4,194.5z M380.8,201.1c0,2,0.9,3.1,2.6,3.1c1.7,0,2.6-1.1,2.6-3.1v-2.4c0-2-0.9-3.1-2.6-3.1
		c-1.7,0-2.6,1.1-2.6,3.1V201.1z"/>
	<path class="st5" d="M395.5,194.6c0.5,0,1,0.4,1,1s-0.4,1-1,1c-0.5,0-1-0.4-1-1S394.9,194.6,395.5,194.6z M396.1,205.1h-1.1v-7.2
		h1.1V205.1z"/>
	<path class="st5" d="M400,197.9v1h0.2c0.4-0.7,1.1-1.1,2-1.1c1.1,0,1.7,0.5,2.1,1.3h0.2c0.4-0.7,1.1-1.3,2.2-1.3
		c1.4,0,2.5,0.9,2.5,2.4v5H408v-4.9c0-0.9-0.7-1.5-1.6-1.5c-1,0-1.8,0.7-1.8,1.9v4.5h-1.1v-4.9c0-0.9-0.6-1.5-1.6-1.5
		c-1,0-1.8,0.7-1.8,1.9v4.5h-1.1v-7.2H400z"/>
	<path class="st5" d="M415.1,197.7c2,0,3.1,1.1,3.1,2.9v4.6h-1.1v-1.2h-0.2c-0.4,0.7-1.2,1.4-2.7,1.4c-1.6,0-2.7-0.8-2.7-2.1
		c0-1.3,1.1-2,2.8-2.1l2.9-0.3v-0.3c0-1.1-0.7-1.8-2-1.8c-1.3,0-2.1,0.7-2.5,1.6l-1-0.5C412.1,198.7,413.3,197.7,415.1,197.7z
		 M414.3,204.3c1.7,0,2.8-1,2.8-2.5v-0.1l-2.7,0.3c-1,0.1-1.8,0.4-1.8,1.2C412.6,203.9,413.3,204.3,414.3,204.3z"/>
	<path class="st5" d="M427.8,197.9v7c0,2-1.3,3.4-3.5,3.4c-1.9,0-3-0.9-3.7-2l1-0.6c0.4,0.8,1.3,1.6,2.6,1.6c1.4,0,2.5-0.8,2.5-2.5
		v-1.1h-0.2c-0.4,0.7-1.1,1.5-2.6,1.5c-1.9,0-3.4-1.5-3.4-3.7c0-2.2,1.5-3.7,3.4-3.7c1.5,0,2.2,0.7,2.6,1.5h0.2v-1.2H427.8z
		 M426.7,201.4c0-1.7-1-2.7-2.5-2.7c-1.5,0-2.5,1-2.5,2.7s1.1,2.7,2.5,2.7C425.7,204.1,426.7,203.1,426.7,201.4z"/>
	<path class="st5" d="M433.7,197.6c2.1,0,3.5,1.5,3.5,3.6v0.6h-5.9c0.1,1.5,1.1,2.4,2.5,2.4c1.2,0,1.8-0.6,2.2-1.4l1,0.5
		c-0.5,0.9-1.4,1.9-3.2,1.9c-2.2,0-3.7-1.7-3.7-3.9C430.2,199.3,431.7,197.6,433.7,197.6z M436.1,200.9c0-1.4-0.9-2.3-2.3-2.3
		c-1.4,0-2.3,0.8-2.4,2.3H436.1z"/>
	<path class="st5" d="M442,197.7c1.5,0,2.5,0.6,3.6,1.9l-0.9,0.6c-0.8-1.1-1.7-1.5-2.7-1.5c-0.9,0-1.6,0.4-1.6,1.1
		c0,0.8,0.8,0.9,1.7,1.1l0.7,0.1c1.7,0.3,2.9,0.7,2.9,2.1s-1.3,2.3-3.2,2.3c-2,0-3.2-1.2-3.7-2.4l1-0.5c0.5,1.2,1.4,1.9,2.8,1.9
		c1.2,0,2-0.5,2-1.3c0-0.8-0.9-0.9-1.9-1.1l-0.7-0.1c-1.6-0.2-2.7-0.7-2.7-2.1C439.3,198.4,440.5,197.7,442,197.7z"/>
</g>
<g>
	<path class="st2" d="M348.7,269.2h-1.1v-1.2h-0.2c-0.4,0.7-1.1,1.5-2.6,1.5c-1.9,0-3.4-1.6-3.4-3.8s1.5-3.8,3.4-3.8
		c1.5,0,2.2,0.7,2.6,1.4h0.2v-4.4h1.1V269.2z M342.5,265.6c0,1.7,1.1,2.8,2.5,2.8c1.5,0,2.5-1.1,2.5-2.8c0-1.7-1-2.8-2.5-2.8
		C343.6,262.8,342.5,263.8,342.5,265.6z"/>
	<path class="st2" d="M354.7,261.7c2.1,0,3.5,1.5,3.5,3.6v0.6h-5.9c0.1,1.5,1.1,2.4,2.5,2.4c1.2,0,1.8-0.6,2.2-1.4l1,0.5
		c-0.5,0.9-1.4,1.9-3.2,1.9c-2.2,0-3.7-1.7-3.7-3.9C351.1,263.4,352.6,261.7,354.7,261.7z M357,265c0-1.4-0.9-2.3-2.3-2.3
		c-1.4,0-2.3,0.8-2.4,2.3H357z"/>
	<path class="st2" d="M361.6,269.2h-1.1v-10.4h1.1V269.2z"/>
	<path class="st2" d="M367.5,261.7c2.1,0,3.5,1.5,3.5,3.6v0.6h-5.9c0.1,1.5,1.1,2.4,2.5,2.4c1.2,0,1.8-0.6,2.2-1.4l1,0.5
		c-0.5,0.9-1.4,1.9-3.2,1.9c-2.2,0-3.7-1.7-3.7-3.9C363.9,263.4,365.4,261.7,367.5,261.7z M369.8,265c0-1.4-0.9-2.3-2.3-2.3
		c-1.4,0-2.3,0.8-2.4,2.3H369.8z"/>
	<path class="st2" d="M374.5,262v-2.6h1.1v2.6h2.3v1h-2.3v4.8c0,0.3,0.1,0.4,0.4,0.4h1.5v1h-1.9c-0.7,0-1.1-0.4-1.1-1.1v-5.1h-2.2
		v-1H374.5z"/>
	<path class="st2" d="M383.2,261.7c2.1,0,3.5,1.5,3.5,3.6v0.6h-5.9c0.1,1.5,1.1,2.4,2.5,2.4c1.2,0,1.8-0.6,2.2-1.4l1,0.5
		c-0.5,0.9-1.4,1.9-3.2,1.9c-2.2,0-3.7-1.7-3.7-3.9C379.6,263.4,381.1,261.7,383.2,261.7z M385.5,265c0-1.4-0.9-2.3-2.3-2.3
		c-1.4,0-2.3,0.8-2.4,2.3H385.5z"/>
	<path class="st5" d="M395.4,262v-2.6h1.1v2.6h2.3v1h-2.3v4.8c0,0.3,0.1,0.4,0.4,0.4h1.5v1h-1.9c-0.7,0-1.1-0.4-1.1-1.1v-5.1h-2.2
		v-1H395.4z"/>
	<path class="st5" d="M402.2,258.8v4.4h0.2c0.4-0.7,1.1-1.4,2.5-1.4c1.5,0,2.9,1,2.9,3v4.4h-1.1v-4.3c0-1.4-0.8-2.1-2-2.1
		c-1.4,0-2.4,0.9-2.4,2.6v3.7h-1.1v-10.4H402.2z"/>
	<path class="st5" d="M413.6,261.7c2.1,0,3.5,1.5,3.5,3.6v0.6h-5.9c0.1,1.5,1.1,2.4,2.5,2.4c1.2,0,1.8-0.6,2.2-1.4l1,0.5
		c-0.5,0.9-1.4,1.9-3.2,1.9c-2.2,0-3.7-1.7-3.7-3.9C410,263.4,411.5,261.7,413.6,261.7z M415.9,265c0-1.4-0.9-2.3-2.3-2.3
		c-1.4,0-2.3,0.8-2.4,2.3H415.9z"/>
	<path class="st5" d="M348.1,285h-1.1v-1.2h-0.2c-0.4,0.7-1.1,1.5-2.6,1.5c-1.9,0-3.4-1.6-3.4-3.8s1.5-3.8,3.4-3.8
		c1.5,0,2.2,0.7,2.6,1.4h0.2v-4.4h1.1V285z M341.9,281.4c0,1.7,1.1,2.8,2.5,2.8c1.5,0,2.5-1.1,2.5-2.8c0-1.7-1-2.8-2.5-2.8
		C343,278.6,341.9,279.7,341.9,281.4z"/>
	<path class="st5" d="M356.5,285v-1.3h-0.2c-0.4,0.7-1.1,1.4-2.5,1.4c-1.5,0-2.8-1-2.8-3v-4.4h1.1v4.3c0,1.4,0.8,2.1,2,2.1
		c1.4,0,2.4-0.9,2.4-2.6v-3.7h1.1v7.2H356.5z"/>
	<path class="st5" d="M360.4,277.8h1.1v1.2h0.2c0.4-0.7,1.1-1.5,2.6-1.5c1.9,0,3.4,1.6,3.4,3.8s-1.5,3.8-3.4,3.8
		c-1.5,0-2.2-0.7-2.6-1.4h-0.2v4.2h-1.1V277.8z M366.6,281.4c0-1.7-1-2.8-2.5-2.8c-1.5,0-2.5,1.1-2.5,2.8c0,1.7,1,2.8,2.5,2.8
		C365.5,284.2,366.6,283.2,366.6,281.4z"/>
	<path class="st5" d="M371.2,285h-1.1v-10.4h1.1V285z"/>
	<path class="st5" d="M374.6,274.6c0.5,0,1,0.4,1,1s-0.4,1-1,1c-0.5,0-1-0.4-1-1S374,274.6,374.6,274.6z M375.1,285H374v-7.2h1.1
		V285z"/>
	<path class="st5" d="M381.2,277.6c1.9,0,3.2,1.2,3.4,2.8l-1.1,0.2c-0.1-1.1-1-2-2.3-2c-1.5,0-2.6,1.1-2.6,2.8
		c0,1.6,1.1,2.8,2.6,2.8c1.5,0,2.1-0.9,2.3-2l1.1,0.2c-0.3,1.4-1.4,2.8-3.4,2.8c-2.2,0-3.8-1.6-3.8-3.8
		C377.5,279.2,379.1,277.6,381.2,277.6z"/>
	<path class="st5" d="M390.1,277.6c2,0,3.1,1.1,3.1,2.9v4.6h-1.1v-1.2h-0.2c-0.4,0.7-1.2,1.4-2.7,1.4c-1.6,0-2.7-0.8-2.7-2.1
		c0-1.3,1.1-2,2.8-2.1l2.9-0.3v-0.3c0-1.1-0.7-1.8-2-1.8c-1.3,0-2.1,0.7-2.5,1.6l-1-0.5C387.1,278.7,388.3,277.6,390.1,277.6z
		 M389.4,284.3c1.7,0,2.8-1,2.8-2.5v-0.1l-2.7,0.3c-1,0.1-1.8,0.4-1.8,1.2C387.7,283.9,388.3,284.3,389.4,284.3z"/>
	<path class="st5" d="M397.1,277.8v-2.6h1.1v2.6h2.3v1h-2.3v4.8c0,0.3,0.1,0.4,0.4,0.4h1.5v1h-1.9c-0.7,0-1.1-0.4-1.1-1.1v-5.1h-2.2
		v-1H397.1z"/>
	<path class="st5" d="M405.8,277.6c2.1,0,3.5,1.5,3.5,3.6v0.6h-5.9c0.1,1.5,1.1,2.4,2.5,2.4c1.2,0,1.8-0.6,2.2-1.4l1,0.5
		c-0.5,0.9-1.4,1.9-3.2,1.9c-2.2,0-3.7-1.7-3.7-3.9C402.2,279.3,403.7,277.6,405.8,277.6z M408.1,280.9c0-1.4-0.9-2.3-2.3-2.3
		c-1.4,0-2.3,0.8-2.4,2.3H408.1z"/>
	<path class="st5" d="M414.1,277.6c1.5,0,2.5,0.6,3.6,1.9l-0.9,0.6c-0.8-1.1-1.7-1.5-2.7-1.5c-0.9,0-1.6,0.4-1.6,1.1
		c0,0.8,0.8,0.9,1.7,1.1l0.7,0.1c1.7,0.3,2.9,0.7,2.9,2.1c0,1.4-1.3,2.3-3.2,2.3c-2,0-3.2-1.2-3.7-2.4l1-0.5
		c0.5,1.2,1.5,1.9,2.8,1.9c1.2,0,2-0.5,2-1.3c0-0.8-0.9-0.9-1.9-1.1l-0.7-0.1c-1.6-0.2-2.7-0.7-2.7-2.1
		C411.3,278.4,412.6,277.6,414.1,277.6z"/>
</g>
<g>
	<path class="st2" d="M306.9,340.4c1.9,0,3.2,1.2,3.4,2.8l-1.1,0.2c-0.1-1.1-1-2-2.3-2c-1.5,0-2.6,1.1-2.6,2.8
		c0,1.6,1.1,2.8,2.6,2.8c1.5,0,2.1-0.9,2.3-2l1.1,0.2c-0.3,1.4-1.4,2.8-3.4,2.8c-2.2,0-3.8-1.6-3.8-3.8
		C303.2,342,304.8,340.4,306.9,340.4z"/>
	<path class="st2" d="M313.8,347.9h-1.1v-10.4h1.1V347.9z"/>
	<path class="st2" d="M322.1,347.9v-1.3h-0.2c-0.4,0.7-1.1,1.4-2.5,1.4c-1.5,0-2.8-1-2.8-3v-4.4h1.1v4.3c0,1.4,0.8,2.1,2,2.1
		c1.4,0,2.4-0.9,2.4-2.6v-3.7h1.1v7.2H322.1z"/>
	<path class="st2" d="M328.6,340.4c1.5,0,2.5,0.6,3.6,1.9l-0.9,0.6c-0.8-1.1-1.7-1.5-2.7-1.5c-0.9,0-1.6,0.4-1.6,1.1
		c0,0.8,0.8,0.9,1.7,1.1l0.7,0.1c1.7,0.3,2.9,0.7,2.9,2.1s-1.3,2.3-3.2,2.3c-2,0-3.2-1.2-3.7-2.4l1-0.5c0.5,1.2,1.5,1.9,2.8,1.9
		c1.2,0,2-0.5,2-1.3c0-0.8-0.9-0.9-1.9-1.1l-0.7-0.1c-1.6-0.2-2.7-0.7-2.7-2.1C325.9,341.2,327.1,340.4,328.6,340.4z"/>
	<path class="st2" d="M335.8,340.6V338h1.1v2.6h2.3v1h-2.3v4.8c0,0.3,0.1,0.4,0.4,0.4h1.5v1h-1.9c-0.7,0-1.1-0.4-1.1-1.1v-5.1h-2.2
		v-1H335.8z"/>
	<path class="st2" d="M344.4,340.4c2.1,0,3.5,1.5,3.5,3.6v0.6H342c0.1,1.5,1.1,2.4,2.5,2.4c1.2,0,1.8-0.6,2.2-1.4l1,0.5
		c-0.5,0.9-1.4,1.9-3.2,1.9c-2.2,0-3.7-1.7-3.7-3.9C340.8,342.1,342.4,340.4,344.4,340.4z M346.7,343.7c0-1.4-0.9-2.3-2.3-2.3
		c-1.4,0-2.3,0.8-2.4,2.3H346.7z"/>
	<path class="st2" d="M351.3,341.7h0.2c0.3-0.7,0.8-1.1,1.9-1.1h0.9v1.1H353c-1.1,0-1.7,0.6-1.7,1.8v4.4h-1.1v-7.2h1.1V341.7z"/>
	<path class="st2" d="M356.8,337.4c0.5,0,1,0.4,1,1s-0.4,1-1,1c-0.5,0-1-0.4-1-1S356.3,337.4,356.8,337.4z M357.4,347.9h-1.1v-7.2
		h1.1V347.9z"/>
	<path class="st2" d="M366.1,340.6v0.9l-4.8,5.3h4.9v1h-6.3V347l4.8-5.3H360v-1H366.1z"/>
	<path class="st2" d="M371.4,340.4c2.1,0,3.5,1.5,3.5,3.6v0.6H369c0.1,1.5,1.1,2.4,2.5,2.4c1.2,0,1.8-0.6,2.2-1.4l1,0.5
		c-0.5,0.9-1.4,1.9-3.2,1.9c-2.2,0-3.7-1.7-3.7-3.9C367.8,342.1,369.3,340.4,371.4,340.4z M373.7,343.7c0-1.4-0.9-2.3-2.3-2.3
		c-1.4,0-2.3,0.8-2.4,2.3H373.7z"/>
	<path class="st5" d="M385.6,340.4c2,0,3.1,1.1,3.1,2.9v4.6h-1.1v-1.2h-0.2c-0.4,0.7-1.2,1.4-2.7,1.4c-1.6,0-2.7-0.8-2.7-2.1
		c0-1.3,1.1-2,2.8-2.1l2.9-0.3v-0.3c0-1.1-0.7-1.8-2-1.8c-1.3,0-2.1,0.7-2.5,1.6l-1-0.5C382.7,341.5,383.8,340.4,385.6,340.4z
		 M384.9,347.1c1.7,0,2.8-1,2.8-2.5v-0.1l-2.7,0.3c-1,0.1-1.8,0.4-1.8,1.2C383.2,346.7,383.9,347.1,384.9,347.1z"/>
	<path class="st5" d="M394.7,340.4c1.9,0,3.2,1.2,3.4,2.8l-1.1,0.2c-0.1-1.1-1-2-2.3-2c-1.5,0-2.6,1.1-2.6,2.8
		c0,1.6,1.1,2.8,2.6,2.8c1.5,0,2.1-0.9,2.3-2l1.1,0.2c-0.3,1.4-1.4,2.8-3.4,2.8c-2.2,0-3.8-1.6-3.8-3.8
		C391,342,392.6,340.4,394.7,340.4z"/>
	<path class="st5" d="M403.8,340.4c1.9,0,3.2,1.2,3.4,2.8l-1.1,0.2c-0.1-1.1-1-2-2.3-2c-1.5,0-2.6,1.1-2.6,2.8
		c0,1.6,1.1,2.8,2.6,2.8c1.5,0,2.1-0.9,2.3-2l1.1,0.2c-0.3,1.4-1.4,2.8-3.4,2.8c-2.2,0-3.8-1.6-3.8-3.8
		C400,342,401.6,340.4,403.8,340.4z"/>
	<path class="st5" d="M412.7,340.4c2.1,0,3.7,1.6,3.7,3.8c0,2.2-1.5,3.8-3.7,3.8c-2.2,0-3.7-1.6-3.7-3.8
		C409.1,342,410.6,340.4,412.7,340.4z M412.7,347c1.5,0,2.5-1.1,2.5-2.8s-1-2.8-2.5-2.8c-1.5,0-2.6,1.1-2.6,2.8
		C410.2,346,411.2,347,412.7,347z"/>
	<path class="st5" d="M419.8,341.7h0.2c0.3-0.7,0.8-1.1,1.9-1.1h0.9v1.1h-1.2c-1.1,0-1.7,0.6-1.7,1.8v4.4h-1.1v-7.2h1.1V341.7z"/>
	<path class="st5" d="M431.3,347.9h-1.1v-1.2H430c-0.4,0.7-1.1,1.5-2.6,1.5c-1.9,0-3.4-1.6-3.4-3.8s1.5-3.8,3.4-3.8
		c1.5,0,2.2,0.7,2.6,1.4h0.2v-4.4h1.1V347.9z M425.1,344.3c0,1.7,1.1,2.8,2.5,2.8c1.5,0,2.5-1.1,2.5-2.8c0-1.7-1-2.8-2.5-2.8
		C426.1,341.5,425.1,342.5,425.1,344.3z"/>
	<path class="st5" d="M434.7,337.4c0.5,0,1,0.4,1,1s-0.4,1-1,1s-1-0.4-1-1S434.1,337.4,434.7,337.4z M435.2,347.9h-1.1v-7.2h1.1
		V347.9z"/>
	<path class="st5" d="M439.2,340.6v1.3h0.2c0.4-0.7,1.1-1.4,2.5-1.4c1.5,0,2.9,1,2.9,3v4.4h-1.1v-4.3c0-1.4-0.8-2.1-2-2.1
		c-1.4,0-2.4,0.9-2.4,2.6v3.7h-1.1v-7.2H439.2z"/>
	<path class="st5" d="M454.3,340.6v7c0,2-1.3,3.4-3.5,3.4c-1.9,0-3-0.9-3.7-2l1-0.6c0.4,0.8,1.3,1.6,2.6,1.6c1.4,0,2.5-0.8,2.5-2.5
		v-1.1H453c-0.4,0.7-1.1,1.5-2.6,1.5c-1.9,0-3.4-1.5-3.4-3.7c0-2.2,1.5-3.7,3.4-3.7c1.5,0,2.2,0.7,2.6,1.5h0.2v-1.2H454.3z
		 M453.2,344.2c0-1.7-1-2.7-2.5-2.7c-1.5,0-2.5,1-2.5,2.7s1.1,2.7,2.5,2.7C452.2,346.9,453.2,345.9,453.2,344.2z"/>
	<path class="st5" d="M306.9,358.4v-2.6h1.1v2.6h2.3v1h-2.3v4.8c0,0.3,0.1,0.4,0.4,0.4h1.5v1h-1.9c-0.7,0-1.1-0.4-1.1-1.1v-5.1h-2.2
		v-1H306.9z"/>
	<path class="st5" d="M315.7,358.2c2.1,0,3.7,1.6,3.7,3.8c0,2.2-1.5,3.8-3.7,3.8c-2.2,0-3.7-1.6-3.7-3.8
		C312,359.8,313.5,358.2,315.7,358.2z M315.7,364.8c1.5,0,2.5-1.1,2.5-2.8s-1-2.8-2.5-2.8c-1.5,0-2.6,1.1-2.6,2.8
		C313.1,363.7,314.2,364.8,315.7,364.8z"/>
	<path class="st5" d="M328.2,358.4v-2.6h1.1v2.6h2.3v1h-2.3v4.8c0,0.3,0.1,0.4,0.4,0.4h1.5v1h-1.9c-0.7,0-1.1-0.4-1.1-1.1v-5.1H326
		v-1H328.2z"/>
	<path class="st5" d="M335,355.3v4.4h0.2c0.4-0.7,1.1-1.4,2.5-1.4c1.5,0,2.9,1,2.9,3v4.4h-1.1v-4.3c0-1.4-0.8-2.1-2-2.1
		c-1.4,0-2.4,0.9-2.4,2.6v3.7h-1.1v-10.4H335z"/>
	<path class="st5" d="M346.4,358.2c2.1,0,3.5,1.5,3.5,3.6v0.6H344c0.1,1.5,1.1,2.4,2.5,2.4c1.2,0,1.8-0.6,2.2-1.4l1,0.5
		c-0.5,0.9-1.4,1.9-3.2,1.9c-2.2,0-3.7-1.7-3.7-3.9C342.8,359.8,344.3,358.2,346.4,358.2z M348.7,361.5c0-1.4-0.9-2.3-2.3-2.3
		c-1.4,0-2.3,0.8-2.4,2.3H348.7z"/>
	<path class="st5" d="M352.7,355.2c0.5,0,1,0.4,1,1s-0.4,1-1,1c-0.5,0-1-0.4-1-1S352.2,355.2,352.7,355.2z M353.3,365.6h-1.1v-7.2
		h1.1V365.6z"/>
	<path class="st5" d="M357.2,359.5h0.2c0.3-0.7,0.8-1.1,1.9-1.1h0.9v1.1h-1.2c-1.1,0-1.7,0.6-1.7,1.8v4.4h-1.1v-7.2h1.1V359.5z"/>
	<path class="st5" d="M370.6,358.2c2,0,3.1,1.1,3.1,2.9v4.6h-1.1v-1.2h-0.2c-0.4,0.7-1.2,1.4-2.7,1.4c-1.6,0-2.7-0.8-2.7-2.1
		c0-1.3,1.1-2,2.8-2.1l2.9-0.3V361c0-1.1-0.7-1.8-2-1.8c-1.3,0-2.1,0.7-2.5,1.6l-1-0.5C367.6,359.3,368.8,358.2,370.6,358.2z
		 M369.8,364.9c1.7,0,2.8-1,2.8-2.5v-0.1l-2.7,0.3c-1,0.1-1.8,0.4-1.8,1.2C368.1,364.5,368.8,364.9,369.8,364.9z"/>
	<path class="st5" d="M377.5,359.5h0.2c0.3-0.7,0.8-1.1,1.9-1.1h0.9v1.1h-1.2c-1.1,0-1.7,0.6-1.7,1.8v4.4h-1.1v-7.2h1.1V359.5z"/>
	<path class="st5" d="M389,358.4v7c0,2-1.3,3.4-3.5,3.4c-1.9,0-3-0.9-3.7-2l1-0.6c0.4,0.8,1.3,1.6,2.6,1.6c1.4,0,2.5-0.8,2.5-2.5
		v-1.1h-0.2c-0.4,0.7-1.1,1.5-2.6,1.5c-1.9,0-3.4-1.5-3.4-3.7c0-2.2,1.5-3.7,3.4-3.7c1.5,0,2.2,0.7,2.6,1.5h0.2v-1.2H389z
		 M387.9,361.9c0-1.7-1-2.7-2.5-2.7c-1.5,0-2.5,1-2.5,2.7s1.1,2.7,2.5,2.7C386.8,364.7,387.9,363.6,387.9,361.9z"/>
	<path class="st5" d="M397.3,365.6v-1.3h-0.2c-0.4,0.7-1.1,1.4-2.5,1.4c-1.5,0-2.8-1-2.8-3v-4.4h1.1v4.3c0,1.4,0.8,2.1,2,2.1
		c1.4,0,2.4-0.9,2.4-2.6v-3.7h1.1v7.2H397.3z"/>
	<path class="st5" d="M402.3,358.4v1h0.2c0.4-0.7,1.1-1.1,2-1.1c1.1,0,1.7,0.5,2.1,1.3h0.2c0.4-0.7,1.1-1.3,2.2-1.3
		c1.4,0,2.5,0.9,2.5,2.4v5h-1.1v-4.9c0-0.9-0.7-1.5-1.6-1.5c-1,0-1.8,0.7-1.8,1.9v4.5h-1.1v-4.9c0-0.9-0.6-1.5-1.6-1.5
		c-1,0-1.8,0.7-1.8,1.9v4.5h-1.1v-7.2H402.3z"/>
	<path class="st5" d="M417.3,358.2c2.1,0,3.5,1.5,3.5,3.6v0.6h-5.9c0.1,1.5,1.1,2.4,2.5,2.4c1.2,0,1.8-0.6,2.2-1.4l1,0.5
		c-0.5,0.9-1.4,1.9-3.2,1.9c-2.2,0-3.7-1.7-3.7-3.9C413.7,359.8,415.2,358.2,417.3,358.2z M419.6,361.5c0-1.4-0.9-2.3-2.3-2.3
		c-1.4,0-2.3,0.8-2.4,2.3H419.6z"/>
	<path class="st5" d="M424.2,358.4v1.3h0.2c0.4-0.7,1.1-1.4,2.5-1.4c1.5,0,2.9,1,2.9,3v4.4h-1.1v-4.3c0-1.4-0.8-2.1-2-2.1
		c-1.4,0-2.4,0.9-2.4,2.6v3.7h-1.1v-7.2H424.2z"/>
	<path class="st5" d="M433.6,358.4v-2.6h1.1v2.6h2.3v1h-2.3v4.8c0,0.3,0.1,0.4,0.4,0.4h1.5v1h-1.9c-0.7,0-1.1-0.4-1.1-1.1v-5.1h-2.2
		v-1H433.6z"/>
	<path class="st5" d="M441.8,358.2c1.5,0,2.5,0.6,3.6,1.9l-0.9,0.6c-0.8-1.1-1.7-1.5-2.7-1.5c-0.9,0-1.6,0.4-1.6,1.1
		c0,0.8,0.8,0.9,1.7,1.1l0.7,0.1c1.7,0.3,2.9,0.7,2.9,2.1s-1.3,2.3-3.2,2.3c-2,0-3.2-1.2-3.7-2.4l1-0.5c0.5,1.2,1.4,1.9,2.8,1.9
		c1.2,0,2-0.5,2-1.3c0-0.8-0.9-0.9-1.9-1.1l-0.7-0.1c-1.6-0.2-2.7-0.7-2.7-2.1C439.1,359,440.4,358.2,441.8,358.2z"/>
	<path class="st2" d="M449.7,355.3v5.2h-1v-4h-0.1l-0.8,1.1h-1v-0.1l1.5-2.2H449.7z"/>
</g>
<line class="st0" x1="669.5" y1="169.6" x2="669.5" y2="216.5"/>
<g>
	<g>
		<path class="st7" d="M686.7,179.2c1.8,0,3.1,1,3.1,2.8c0,1.2-0.7,2-1.7,2.3v0.2c1,0.3,1.7,1.1,1.7,2.3c0,1.7-1.3,2.8-3.1,2.8h-4.5
			v-10.4H686.7z M683.9,183.5h2.6c0.9,0,1.6-0.5,1.6-1.4c0-0.9-0.6-1.4-1.6-1.4h-2.6V183.5z M683.9,188h2.6c0.9,0,1.6-0.5,1.6-1.4
			c0-0.9-0.6-1.4-1.6-1.4h-2.7V188z"/>
		<path class="st7" d="M698.6,179.2v1.6h-5v2.8h4.6v1.6h-4.6v2.9h5.1v1.6h-6.8v-10.4H698.6z"/>
		<path class="st7" d="M705.7,179.2l3,10.4H707l-0.7-2.4h-3.9l-0.7,2.4h-1.8l3.1-10.4H705.7z M705.9,185.6l-1.4-4.9h-0.2l-1.4,4.9
			H705.9z"/>
		<path class="st7" d="M712,179.2v6.8c0,1.4,0.8,2.2,2.2,2.2c1.5,0,2.2-0.8,2.2-2.2v-6.8h1.7v6.8c0,2.4-1.4,3.8-4,3.8
			c-2.5,0-4-1.4-4-3.8v-6.8H712z"/>
		<path class="st7" d="M728.2,179.2v1.6h-3.2v8.8h-1.7v-8.8H720v-1.6H728.2z"/>
		<path class="st7" d="M731.6,179.2v10.4h-1.7v-10.4H731.6z"/>
		<path class="st7" d="M740.7,179.2v1.6h-4.8v2.8h4.5v1.6h-4.5v4.4h-1.7v-10.4H740.7z"/>
		<path class="st7" d="M744.2,179.2v6.8c0,1.4,0.8,2.2,2.2,2.2c1.5,0,2.2-0.8,2.2-2.2v-6.8h1.7v6.8c0,2.4-1.4,3.8-4,3.8
			c-2.5,0-4-1.4-4-3.8v-6.8H744.2z"/>
		<path class="st7" d="M754.6,179.2v8.8h4.9v1.6h-6.7v-10.4H754.6z"/>
		<path class="st7" d="M689.5,200v0.5h-1.7v-0.3c0-1.3-0.8-1.9-2.1-1.9c-1.1,0-1.8,0.6-1.8,1.4c0,1,0.8,1.2,2.1,1.5l0.4,0.1
			c2,0.4,3.2,1.2,3.2,3.1c0,2-1.6,3.2-3.8,3.2c-2.5,0-4.1-1.4-4.1-3.8v-0.4h1.7v0.3c0,1.5,0.8,2.3,2.5,2.3c1.3,0,2-0.7,2-1.6
			c0-0.9-0.7-1.3-2.1-1.6l-0.4-0.1c-2-0.4-3.3-1.2-3.3-3.1c0-1.8,1.6-2.9,3.5-2.9C687.8,196.7,689.5,197.9,689.5,200z"/>
		<path class="st7" d="M695.5,196.7c2.6,0,4.1,1.6,4.1,4.3v2.2c0,2.7-1.6,4.3-4.1,4.3c-2.6,0-4.1-1.6-4.1-4.3V201
			C691.4,198.3,692.9,196.7,695.5,196.7z M693.1,203.3c0,1.7,0.8,2.6,2.4,2.6c1.7,0,2.4-1,2.4-2.6v-2.4c0-1.7-0.8-2.6-2.4-2.6
			c-1.6,0-2.4,1-2.4,2.6V203.3z"/>
		<path class="st7" d="M703.5,196.9v6.8c0,1.4,0.8,2.2,2.2,2.2c1.5,0,2.2-0.8,2.2-2.2v-6.8h1.7v6.8c0,2.4-1.4,3.8-4,3.8
			c-2.5,0-4-1.4-4-3.8v-6.8H703.5z"/>
		<path class="st7" d="M716.3,196.9c1.9,0,3.3,1.3,3.3,3.2c0,1.9-1.4,3.2-3.3,3.2h-2.4v4h-1.7v-10.4H716.3z M713.9,201.8h2.2
			c1.1,0,1.7-0.6,1.7-1.6c0-1-0.6-1.6-1.7-1.6h-2.2V201.8z"/>
	</g>
	<g>
		<path class="st8" d="M686.7,179.2c1.8,0,3.1,1,3.1,2.8c0,1.2-0.7,2-1.7,2.3v0.2c1,0.3,1.7,1.1,1.7,2.3c0,1.7-1.3,2.8-3.1,2.8h-4.5
			v-10.4H686.7z M683.9,183.5h2.6c0.9,0,1.6-0.5,1.6-1.4c0-0.9-0.6-1.4-1.6-1.4h-2.6V183.5z M683.9,188h2.6c0.9,0,1.6-0.5,1.6-1.4
			c0-0.9-0.6-1.4-1.6-1.4h-2.7V188z"/>
		<path class="st8" d="M698.6,179.2v1.6h-5v2.8h4.6v1.6h-4.6v2.9h5.1v1.6h-6.8v-10.4H698.6z"/>
		<path class="st8" d="M705.7,179.2l3,10.4H707l-0.7-2.4h-3.9l-0.7,2.4h-1.8l3.1-10.4H705.7z M705.9,185.6l-1.4-4.9h-0.2l-1.4,4.9
			H705.9z"/>
		<path class="st8" d="M712,179.2v6.8c0,1.4,0.8,2.2,2.2,2.2c1.5,0,2.2-0.8,2.2-2.2v-6.8h1.7v6.8c0,2.4-1.4,3.8-4,3.8
			c-2.5,0-4-1.4-4-3.8v-6.8H712z"/>
		<path class="st8" d="M728.2,179.2v1.6h-3.2v8.8h-1.7v-8.8H720v-1.6H728.2z"/>
		<path class="st8" d="M731.6,179.2v10.4h-1.7v-10.4H731.6z"/>
		<path class="st8" d="M740.7,179.2v1.6h-4.8v2.8h4.5v1.6h-4.5v4.4h-1.7v-10.4H740.7z"/>
		<path class="st8" d="M744.2,179.2v6.8c0,1.4,0.8,2.2,2.2,2.2c1.5,0,2.2-0.8,2.2-2.2v-6.8h1.7v6.8c0,2.4-1.4,3.8-4,3.8
			c-2.5,0-4-1.4-4-3.8v-6.8H744.2z"/>
		<path class="st8" d="M754.6,179.2v8.8h4.9v1.6h-6.7v-10.4H754.6z"/>
		<path class="st8" d="M689.5,200v0.5h-1.7v-0.3c0-1.3-0.8-1.9-2.1-1.9c-1.1,0-1.8,0.6-1.8,1.4c0,1,0.8,1.2,2.1,1.5l0.4,0.1
			c2,0.4,3.2,1.2,3.2,3.1c0,2-1.6,3.2-3.8,3.2c-2.5,0-4.1-1.4-4.1-3.8v-0.4h1.7v0.3c0,1.5,0.8,2.3,2.5,2.3c1.3,0,2-0.7,2-1.6
			c0-0.9-0.7-1.3-2.1-1.6l-0.4-0.1c-2-0.4-3.3-1.2-3.3-3.1c0-1.8,1.6-2.9,3.5-2.9C687.8,196.7,689.5,197.9,689.5,200z"/>
		<path class="st8" d="M695.5,196.7c2.6,0,4.1,1.6,4.1,4.3v2.2c0,2.7-1.6,4.3-4.1,4.3c-2.6,0-4.1-1.6-4.1-4.3V201
			C691.4,198.3,692.9,196.7,695.5,196.7z M693.1,203.3c0,1.7,0.8,2.6,2.4,2.6c1.7,0,2.4-1,2.4-2.6v-2.4c0-1.7-0.8-2.6-2.4-2.6
			c-1.6,0-2.4,1-2.4,2.6V203.3z"/>
		<path class="st8" d="M703.5,196.9v6.8c0,1.4,0.8,2.2,2.2,2.2c1.5,0,2.2-0.8,2.2-2.2v-6.8h1.7v6.8c0,2.4-1.4,3.8-4,3.8
			c-2.5,0-4-1.4-4-3.8v-6.8H703.5z"/>
		<path class="st8" d="M716.3,196.9c1.9,0,3.3,1.3,3.3,3.2c0,1.9-1.4,3.2-3.3,3.2h-2.4v4h-1.7v-10.4H716.3z M713.9,201.8h2.2
			c1.1,0,1.7-0.6,1.7-1.6c0-1-0.6-1.6-1.7-1.6h-2.2V201.8z"/>
	</g>
</g>
<g>
	<g>
		<path class="st7" d="M687.3,296.8l2.4,8.6h0.2l2.4-8.6h3v10.4h-1.7v-8.5h-0.2l-2.4,8.5h-2.5l-2.4-8.5H686v8.5h-1.7v-10.4H687.3z"
			/>
		<path class="st7" d="M702.8,296.8l3,10.4h-1.8l-0.7-2.4h-3.9l-0.7,2.4H697l3.1-10.4H702.8z M703,303.2l-1.4-4.9h-0.2l-1.4,4.9H703
			z"/>
		<path class="st7" d="M710.7,296.8l2.8,8.8h0.2v-8.8h1.7v10.4h-3.1l-2.8-8.8h-0.2v8.8h-1.7v-10.4H710.7z"/>
		<path class="st7" d="M719.6,296.8v6.8c0,1.4,0.8,2.2,2.2,2.2c1.5,0,2.2-0.8,2.2-2.2v-6.8h1.7v6.8c0,2.4-1.4,3.8-4,3.8
			c-2.5,0-4-1.4-4-3.8v-6.8H719.6z"/>
		<path class="st7" d="M733.1,296.8l3,10.4h-1.8l-0.7-2.4h-3.9l-0.7,2.4h-1.8l3.1-10.4H733.1z M733.2,303.2l-1.4-4.9h-0.2l-1.4,4.9
			H733.2z"/>
		<path class="st7" d="M739.6,296.8v8.8h4.9v1.6h-6.7v-10.4H739.6z"/>
		<path class="st7" d="M689.3,314.6l3,10.4h-1.8l-0.7-2.4H686l-0.7,2.4h-1.8l3.1-10.4H689.3z M689.4,321L688,316h-0.2l-1.4,4.9
			H689.4z"/>
		<path class="st7" d="M697.1,314.6l2.8,8.8h0.2v-8.8h1.7v10.4h-3.1l-2.8-8.8h-0.2v8.8H694v-10.4H697.1z"/>
		<path class="st7" d="M709.3,314.6l3,10.4h-1.8l-0.7-2.4H706l-0.7,2.4h-1.8l3.1-10.4H709.3z M709.5,321L708,316h-0.2l-1.4,4.9
			H709.5z"/>
		<path class="st7" d="M715.8,314.6v8.8h4.9v1.6h-6.7v-10.4H715.8z"/>
		<path class="st7" d="M721.5,314.6l2.4,4.6h0.2l2.4-4.6h2l-3.6,6.7v3.7h-1.7v-3.7l-3.6-6.7H721.5z"/>
		<path class="st7" d="M736.8,317.6v0.5h-1.7v-0.3c0-1.3-0.8-1.9-2.1-1.9c-1.1,0-1.8,0.6-1.8,1.4c0,1,0.8,1.2,2.1,1.5l0.4,0.1
			c2,0.4,3.2,1.2,3.2,3.1c0,2-1.6,3.2-3.8,3.2c-2.5,0-4.1-1.4-4.1-3.8V321h1.7v0.3c0,1.5,0.8,2.3,2.5,2.3c1.3,0,2-0.7,2-1.6
			c0-0.9-0.7-1.3-2.1-1.6l-0.4-0.1c-2-0.4-3.3-1.2-3.3-3.1c0-1.8,1.6-2.9,3.5-2.9C735.2,314.4,736.8,315.5,736.8,317.6z"/>
		<path class="st7" d="M740.8,314.6v10.4h-1.7v-10.4H740.8z"/>
		<path class="st7" d="M750.6,317.6v0.5h-1.7v-0.3c0-1.3-0.8-1.9-2.1-1.9c-1.1,0-1.8,0.6-1.8,1.4c0,1,0.8,1.2,2.1,1.5l0.4,0.1
			c2,0.4,3.2,1.2,3.2,3.1c0,2-1.6,3.2-3.8,3.2c-2.5,0-4.1-1.4-4.1-3.8V321h1.7v0.3c0,1.5,0.8,2.3,2.5,2.3c1.3,0,2-0.7,2-1.6
			c0-0.9-0.7-1.3-2.1-1.6l-0.4-0.1c-2-0.4-3.3-1.2-3.3-3.1c0-1.8,1.6-2.9,3.5-2.9C749,314.4,750.6,315.5,750.6,317.6z"/>
	</g>
	<g>
		<path class="st8" d="M687.3,296.8l2.4,8.6h0.2l2.4-8.6h3v10.4h-1.7v-8.5h-0.2l-2.4,8.5h-2.5l-2.4-8.5H686v8.5h-1.7v-10.4H687.3z"
			/>
		<path class="st8" d="M702.8,296.8l3,10.4h-1.8l-0.7-2.4h-3.9l-0.7,2.4H697l3.1-10.4H702.8z M703,303.2l-1.4-4.9h-0.2l-1.4,4.9H703
			z"/>
		<path class="st8" d="M710.7,296.8l2.8,8.8h0.2v-8.8h1.7v10.4h-3.1l-2.8-8.8h-0.2v8.8h-1.7v-10.4H710.7z"/>
		<path class="st8" d="M719.6,296.8v6.8c0,1.4,0.8,2.2,2.2,2.2c1.5,0,2.2-0.8,2.2-2.2v-6.8h1.7v6.8c0,2.4-1.4,3.8-4,3.8
			c-2.5,0-4-1.4-4-3.8v-6.8H719.6z"/>
		<path class="st8" d="M733.1,296.8l3,10.4h-1.8l-0.7-2.4h-3.9l-0.7,2.4h-1.8l3.1-10.4H733.1z M733.2,303.2l-1.4-4.9h-0.2l-1.4,4.9
			H733.2z"/>
		<path class="st8" d="M739.6,296.8v8.8h4.9v1.6h-6.7v-10.4H739.6z"/>
		<path class="st8" d="M689.3,314.6l3,10.4h-1.8l-0.7-2.4H686l-0.7,2.4h-1.8l3.1-10.4H689.3z M689.4,321L688,316h-0.2l-1.4,4.9
			H689.4z"/>
		<path class="st8" d="M697.1,314.6l2.8,8.8h0.2v-8.8h1.7v10.4h-3.1l-2.8-8.8h-0.2v8.8H694v-10.4H697.1z"/>
		<path class="st8" d="M709.3,314.6l3,10.4h-1.8l-0.7-2.4H706l-0.7,2.4h-1.8l3.1-10.4H709.3z M709.5,321L708,316h-0.2l-1.4,4.9
			H709.5z"/>
		<path class="st8" d="M715.8,314.6v8.8h4.9v1.6h-6.7v-10.4H715.8z"/>
		<path class="st8" d="M721.5,314.6l2.4,4.6h0.2l2.4-4.6h2l-3.6,6.7v3.7h-1.7v-3.7l-3.6-6.7H721.5z"/>
		<path class="st8" d="M736.8,317.6v0.5h-1.7v-0.3c0-1.3-0.8-1.9-2.1-1.9c-1.1,0-1.8,0.6-1.8,1.4c0,1,0.8,1.2,2.1,1.5l0.4,0.1
			c2,0.4,3.2,1.2,3.2,3.1c0,2-1.6,3.2-3.8,3.2c-2.5,0-4.1-1.4-4.1-3.8V321h1.7v0.3c0,1.5,0.8,2.3,2.5,2.3c1.3,0,2-0.7,2-1.6
			c0-0.9-0.7-1.3-2.1-1.6l-0.4-0.1c-2-0.4-3.3-1.2-3.3-3.1c0-1.8,1.6-2.9,3.5-2.9C735.2,314.4,736.8,315.5,736.8,317.6z"/>
		<path class="st8" d="M740.8,314.6v10.4h-1.7v-10.4H740.8z"/>
		<path class="st8" d="M750.6,317.6v0.5h-1.7v-0.3c0-1.3-0.8-1.9-2.1-1.9c-1.1,0-1.8,0.6-1.8,1.4c0,1,0.8,1.2,2.1,1.5l0.4,0.1
			c2,0.4,3.2,1.2,3.2,3.1c0,2-1.6,3.2-3.8,3.2c-2.5,0-4.1-1.4-4.1-3.8V321h1.7v0.3c0,1.5,0.8,2.3,2.5,2.3c1.3,0,2-0.7,2-1.6
			c0-0.9-0.7-1.3-2.1-1.6l-0.4-0.1c-2-0.4-3.3-1.2-3.3-3.1c0-1.8,1.6-2.9,3.5-2.9C749,314.4,750.6,315.5,750.6,317.6z"/>
	</g>
</g>
<line class="st0" x1="669.4" y1="409.6" x2="669.4" y2="456.5"/>
<g>
	<g>
		<path class="st7" d="M681.9,420.6c0-2.6,1.6-4.2,4.2-4.2c2.5,0,4,1.5,4,3.8v0.1h-1.7v-0.1c0-1.4-0.7-2.2-2.2-2.2
			c-1.6,0-2.5,1-2.5,2.6v2.5c0,1.6,0.9,2.6,2.5,2.6c1.6,0,2.2-0.9,2.2-2.2v-0.1h-2.6v-1.5h4.4v1.6c0,2.4-1.4,3.8-4,3.8
			c-2.5,0-4.2-1.5-4.2-4.2V420.6z"/>
		<path class="st7" d="M698.9,416.6v1.6h-5v2.8h4.6v1.6h-4.6v2.9h5.1v1.6h-6.8v-10.4H698.9z"/>
		<path class="st7" d="M705.2,416.6c1.9,0,3.3,1.3,3.3,3.2c0,1.9-1.4,3.2-3.3,3.2h-2.4v4H701v-10.4H705.2z M702.7,421.4h2.2
			c1.1,0,1.7-0.6,1.7-1.6s-0.6-1.6-1.7-1.6h-2.2V421.4z"/>
		<path class="st7" d="M712,416.6v4.4h4.2v-4.4h1.7v10.4h-1.7v-4.4H712v4.4h-1.7v-10.4H712z"/>
		<path class="st7" d="M722.1,416.6v10.4h-1.7v-10.4H722.1z"/>
		<path class="st7" d="M683.3,439.1v-0.2c-0.4-0.6-0.7-1.2-0.7-1.9v-0.1c0-1.7,1.3-2.8,3.1-2.8c1.8,0,3.1,1.2,3.1,2.9v0.3h-1.7v-0.3
			c0-0.8-0.5-1.4-1.4-1.4c-0.9,0-1.4,0.5-1.4,1.2v0.1c0,0.8,0.6,1.4,1.7,2.4l1.7,1.7h0.3l1.4-2.4h1.8l-2.1,3.6v0.3l2.2,2.2h-2.2
			l-0.9-0.9h-0.2c-0.7,0.7-1.5,1.2-2.7,1.2c-2.1,0-3.4-1.4-3.4-3.2C681.8,440.6,682.5,439.7,683.3,439.1z M685.3,443.3
			c0.7,0,1.2-0.3,1.5-0.6v-0.2l-2.3-2.2h-0.2c-0.5,0.3-0.8,0.8-0.8,1.4v0.1C683.6,442.5,684.2,443.3,685.3,443.3z"/>
		<path class="st7" d="M699.6,434.3v10.4h-1.7v-10.4H699.6z"/>
		<path class="st7" d="M703.8,434.3v8.8h4.9v1.6h-6.7v-10.4H703.8z"/>
		<path class="st7" d="M712.3,434.3v8.8h4.9v1.6h-6.7v-10.4H712.3z"/>
		<path class="st7" d="M720.7,434.3v6.8c0,1.4,0.8,2.2,2.2,2.2c1.5,0,2.2-0.8,2.2-2.2v-6.8h1.7v6.8c0,2.4-1.4,3.8-4,3.8
			c-2.5,0-4-1.4-4-3.8v-6.8H720.7z"/>
		<path class="st7" d="M736.7,437.4v0.5H735v-0.3c0-1.3-0.8-1.9-2.1-1.9c-1.1,0-1.8,0.6-1.8,1.4c0,1,0.8,1.2,2.1,1.5l0.4,0.1
			c2,0.4,3.2,1.2,3.2,3.1c0,2-1.6,3.2-3.8,3.2c-2.5,0-4.1-1.4-4.1-3.8v-0.4h1.7v0.3c0,1.5,0.8,2.3,2.5,2.3c1.3,0,2-0.7,2-1.6
			c0-0.9-0.7-1.3-2.1-1.6l-0.4-0.1c-2-0.4-3.3-1.2-3.3-3.1c0-1.8,1.6-2.9,3.5-2.9C735,434.1,736.7,435.3,736.7,437.4z"/>
		<path class="st7" d="M746.3,434.3v1.6H743v8.8h-1.7v-8.8h-3.2v-1.6H746.3z"/>
		<path class="st7" d="M753.4,440.6l2.2,4.1h-1.9l-2.1-4h-1.9v4H748v-10.4h4.4c1.9,0,3.3,1.3,3.3,3.2
			C755.7,439.1,754.8,440.2,753.4,440.6z M749.7,439.1h2.5c1.1,0,1.7-0.6,1.7-1.6c0-1-0.6-1.6-1.7-1.6h-2.5V439.1z"/>
		<path class="st7" d="M762.6,434.3l3,10.4h-1.8l-0.7-2.4h-3.9l-0.7,2.4h-1.8l3.1-10.4H762.6z M762.8,440.7l-1.4-4.9h-0.2l-1.4,4.9
			H762.8z"/>
		<path class="st7" d="M774,434.3v1.6h-3.2v8.8H769v-8.8h-3.2v-1.6H774z"/>
		<path class="st7" d="M779.3,434.1c2.6,0,4.1,1.6,4.1,4.3v2.2c0,2.7-1.6,4.3-4.1,4.3c-2.6,0-4.1-1.6-4.1-4.3v-2.2
			C775.1,435.7,776.7,434.1,779.3,434.1z M776.8,440.7c0,1.7,0.8,2.6,2.4,2.6c1.7,0,2.4-1,2.4-2.6v-2.4c0-1.7-0.8-2.6-2.4-2.6
			c-1.6,0-2.4,1-2.4,2.6V440.7z"/>
		<path class="st7" d="M790.9,440.6l2.2,4.1h-1.9l-2.1-4h-1.9v4h-1.7v-10.4h4.4c1.9,0,3.3,1.3,3.3,3.2
			C793.2,439.1,792.3,440.2,790.9,440.6z M787.3,439.1h2.5c1.1,0,1.7-0.6,1.7-1.6c0-1-0.6-1.6-1.7-1.6h-2.5V439.1z"/>
	</g>
	<g>
		<path class="st8" d="M681.9,420.6c0-2.6,1.6-4.2,4.2-4.2c2.5,0,4,1.5,4,3.8v0.1h-1.7v-0.1c0-1.4-0.7-2.2-2.2-2.2
			c-1.6,0-2.5,1-2.5,2.6v2.5c0,1.6,0.9,2.6,2.5,2.6c1.6,0,2.2-0.9,2.2-2.2v-0.1h-2.6v-1.5h4.4v1.6c0,2.4-1.4,3.8-4,3.8
			c-2.5,0-4.2-1.5-4.2-4.2V420.6z"/>
		<path class="st8" d="M698.9,416.6v1.6h-5v2.8h4.6v1.6h-4.6v2.9h5.1v1.6h-6.8v-10.4H698.9z"/>
		<path class="st8" d="M705.2,416.6c1.9,0,3.3,1.3,3.3,3.2c0,1.9-1.4,3.2-3.3,3.2h-2.4v4H701v-10.4H705.2z M702.7,421.4h2.2
			c1.1,0,1.7-0.6,1.7-1.6s-0.6-1.6-1.7-1.6h-2.2V421.4z"/>
		<path class="st8" d="M712,416.6v4.4h4.2v-4.4h1.7v10.4h-1.7v-4.4H712v4.4h-1.7v-10.4H712z"/>
		<path class="st8" d="M722.1,416.6v10.4h-1.7v-10.4H722.1z"/>
		<path class="st8" d="M683.3,439.1v-0.2c-0.4-0.6-0.7-1.2-0.7-1.9v-0.1c0-1.7,1.3-2.8,3.1-2.8c1.8,0,3.1,1.2,3.1,2.9v0.3h-1.7v-0.3
			c0-0.8-0.5-1.4-1.4-1.4c-0.9,0-1.4,0.5-1.4,1.2v0.1c0,0.8,0.6,1.4,1.7,2.4l1.7,1.7h0.3l1.4-2.4h1.8l-2.1,3.6v0.3l2.2,2.2h-2.2
			l-0.9-0.9h-0.2c-0.7,0.7-1.5,1.2-2.7,1.2c-2.1,0-3.4-1.4-3.4-3.2C681.8,440.6,682.5,439.7,683.3,439.1z M685.3,443.3
			c0.7,0,1.2-0.3,1.5-0.6v-0.2l-2.3-2.2h-0.2c-0.5,0.3-0.8,0.8-0.8,1.4v0.1C683.6,442.5,684.2,443.3,685.3,443.3z"/>
		<path class="st8" d="M699.6,434.3v10.4h-1.7v-10.4H699.6z"/>
		<path class="st8" d="M703.8,434.3v8.8h4.9v1.6h-6.7v-10.4H703.8z"/>
		<path class="st8" d="M712.3,434.3v8.8h4.9v1.6h-6.7v-10.4H712.3z"/>
		<path class="st8" d="M720.7,434.3v6.8c0,1.4,0.8,2.2,2.2,2.2c1.5,0,2.2-0.8,2.2-2.2v-6.8h1.7v6.8c0,2.4-1.4,3.8-4,3.8
			c-2.5,0-4-1.4-4-3.8v-6.8H720.7z"/>
		<path class="st8" d="M736.7,437.4v0.5H735v-0.3c0-1.3-0.8-1.9-2.1-1.9c-1.1,0-1.8,0.6-1.8,1.4c0,1,0.8,1.2,2.1,1.5l0.4,0.1
			c2,0.4,3.2,1.2,3.2,3.1c0,2-1.6,3.2-3.8,3.2c-2.5,0-4.1-1.4-4.1-3.8v-0.4h1.7v0.3c0,1.5,0.8,2.3,2.5,2.3c1.3,0,2-0.7,2-1.6
			c0-0.9-0.7-1.3-2.1-1.6l-0.4-0.1c-2-0.4-3.3-1.2-3.3-3.1c0-1.8,1.6-2.9,3.5-2.9C735,434.1,736.7,435.3,736.7,437.4z"/>
		<path class="st8" d="M746.3,434.3v1.6H743v8.8h-1.7v-8.8h-3.2v-1.6H746.3z"/>
		<path class="st8" d="M753.4,440.6l2.2,4.1h-1.9l-2.1-4h-1.9v4H748v-10.4h4.4c1.9,0,3.3,1.3,3.3,3.2
			C755.7,439.1,754.8,440.2,753.4,440.6z M749.7,439.1h2.5c1.1,0,1.7-0.6,1.7-1.6c0-1-0.6-1.6-1.7-1.6h-2.5V439.1z"/>
		<path class="st8" d="M762.6,434.3l3,10.4h-1.8l-0.7-2.4h-3.9l-0.7,2.4h-1.8l3.1-10.4H762.6z M762.8,440.7l-1.4-4.9h-0.2l-1.4,4.9
			H762.8z"/>
		<path class="st8" d="M774,434.3v1.6h-3.2v8.8H769v-8.8h-3.2v-1.6H774z"/>
		<path class="st8" d="M779.3,434.1c2.6,0,4.1,1.6,4.1,4.3v2.2c0,2.7-1.6,4.3-4.1,4.3c-2.6,0-4.1-1.6-4.1-4.3v-2.2
			C775.1,435.7,776.7,434.1,779.3,434.1z M776.8,440.7c0,1.7,0.8,2.6,2.4,2.6c1.7,0,2.4-1,2.4-2.6v-2.4c0-1.7-0.8-2.6-2.4-2.6
			c-1.6,0-2.4,1-2.4,2.6V440.7z"/>
		<path class="st8" d="M790.9,440.6l2.2,4.1h-1.9l-2.1-4h-1.9v4h-1.7v-10.4h4.4c1.9,0,3.3,1.3,3.3,3.2
			C793.2,439.1,792.3,440.2,790.9,440.6z M787.3,439.1h2.5c1.1,0,1.7-0.6,1.7-1.6c0-1-0.6-1.6-1.7-1.6h-2.5V439.1z"/>
	</g>
</g>
<rect y="400" class="st1" width="656.7" height="65.3"/>
<rect x="11.3" y="411.7" class="st2" width="107.1" height="22.1"/>
<g>
	<path class="st3" d="M19.7,419.1l2.1,7.5H22l2.1-7.5h1.6L23,428h-2.3l-2.6-8.9H19.7z"/>
	<path class="st3" d="M28.6,419.1v8.9h-1.5v-8.9H28.6z"/>
	<path class="st3" d="M37,421.7v0.4h-1.5v-0.3c0-1.1-0.7-1.6-1.8-1.6c-1,0-1.6,0.5-1.6,1.2c0,0.8,0.6,1.1,1.8,1.3l0.3,0.1
		c1.7,0.4,2.7,1.1,2.7,2.6c0,1.7-1.4,2.7-3.2,2.7c-2.2,0-3.6-1.3-3.6-3.3v-0.3h1.5v0.3c0,1.3,0.7,2,2.1,2c1.2,0,1.7-0.6,1.7-1.4
		c0-0.8-0.6-1.2-1.8-1.4l-0.3-0.1c-1.7-0.4-2.9-1-2.9-2.6c0-1.6,1.4-2.5,3.1-2.5C35.6,418.9,37,419.9,37,421.7z"/>
	<path class="st3" d="M40.4,419.1v5.8c0,1.2,0.6,1.9,1.9,1.9s1.9-0.6,1.9-1.9v-5.8h1.5v5.8c0,2-1.3,3.3-3.4,3.3s-3.4-1.2-3.4-3.3
		v-5.8H40.4z"/>
	<path class="st3" d="M52,419.1l2.6,8.9h-1.6l-0.6-2H49l-0.6,2h-1.6l2.6-8.9H52z M52.1,424.6l-1.3-4.2h-0.1l-1.3,4.2H52.1z"/>
	<path class="st3" d="M57.5,419.1v7.5h4.2v1.4H56v-8.9H57.5z"/>
	<path class="st3" d="M64.8,419.1v8.9h-1.5v-8.9H64.8z"/>
	<path class="st3" d="M72.8,419.1v1.3l-4.5,6.2h4.5v1.4h-6.3v-1.3l4.5-6.2h-4.3v-1.4H72.8z"/>
	<path class="st3" d="M79,419.1l2.6,8.9H80l-0.6-2H76l-0.6,2h-1.6l2.6-8.9H79z M79.1,424.6l-1.3-4.2h-0.1l-1.3,4.2H79.1z"/>
	<path class="st3" d="M88.7,419.1v1.4h-2.7v7.5h-1.5v-7.5h-2.7v-1.4H88.7z"/>
	<path class="st3" d="M91.7,419.1v8.9h-1.5v-8.9H91.7z"/>
	<path class="st3" d="M97.1,418.9c2.2,0,3.6,1.4,3.6,3.7v1.9c0,2.3-1.4,3.7-3.6,3.7c-2.2,0-3.6-1.4-3.6-3.7v-1.9
		C93.5,420.3,94.8,418.9,97.1,418.9z M94.9,424.6c0,1.4,0.6,2.2,2.1,2.2c1.5,0,2.1-0.8,2.1-2.2v-2c0-1.4-0.7-2.2-2.1-2.2
		c-1.4,0-2.1,0.8-2.1,2.2V424.6z"/>
	<path class="st3" d="M105.1,419.1l2.4,7.5h0.1v-7.5h1.5v8.9h-2.6l-2.4-7.5h-0.1v7.5h-1.5v-8.9H105.1z"/>
</g>
<rect x="266.7" y="413.1" class="st6" width="227.2" height="40"/>
<g>
	<path class="st5" d="M285.5,421.9c2,0,3.1,1.1,3.1,2.9v4.6h-1.1v-1.2h-0.2c-0.4,0.7-1.2,1.4-2.7,1.4c-1.6,0-2.7-0.8-2.7-2.1
		c0-1.3,1.1-2,2.8-2.1l2.9-0.3v-0.3c0-1.1-0.7-1.8-2-1.8c-1.3,0-2.1,0.7-2.5,1.6l-1-0.5C282.5,423,283.7,421.9,285.5,421.9z
		 M284.7,428.6c1.7,0,2.8-1,2.8-2.5V426l-2.7,0.3c-1,0.1-1.8,0.4-1.8,1.2C283,428.2,283.7,428.6,284.7,428.6z"/>
	<path class="st5" d="M292.4,423.2h0.2c0.3-0.7,0.8-1.1,1.9-1.1h0.9v1.1h-1.2c-1.1,0-1.7,0.6-1.7,1.8v4.4h-1.1v-7.2h1.1V423.2z"/>
	<path class="st5" d="M303.9,422.2v7c0,2-1.3,3.4-3.5,3.4c-1.9,0-3-0.9-3.7-2l1-0.6c0.4,0.8,1.3,1.6,2.6,1.6c1.4,0,2.5-0.8,2.5-2.5
		V428h-0.2c-0.4,0.7-1.1,1.5-2.6,1.5c-1.9,0-3.4-1.5-3.4-3.7c0-2.2,1.5-3.7,3.4-3.7c1.5,0,2.2,0.7,2.6,1.5h0.2v-1.2H303.9z
		 M302.8,425.7c0-1.7-1-2.7-2.5-2.7c-1.5,0-2.5,1-2.5,2.7s1.1,2.7,2.5,2.7C301.7,428.4,302.8,427.4,302.8,425.7z"/>
	<path class="st5" d="M312.2,429.4v-1.3H312c-0.4,0.7-1.1,1.4-2.5,1.4c-1.5,0-2.8-1-2.8-3v-4.4h1.1v4.3c0,1.4,0.8,2.1,2,2.1
		c1.4,0,2.4-0.9,2.4-2.6v-3.7h1.1v7.2H312.2z"/>
	<path class="st5" d="M317.2,422.2v1h0.2c0.4-0.7,1.1-1.1,2-1.1c1.1,0,1.7,0.5,2.1,1.3h0.2c0.4-0.7,1.1-1.3,2.2-1.3
		c1.4,0,2.5,0.9,2.5,2.4v5h-1.1v-4.9c0-0.9-0.7-1.5-1.6-1.5c-1,0-1.8,0.7-1.8,1.9v4.5h-1.1v-4.9c0-0.9-0.6-1.5-1.6-1.5
		c-1,0-1.8,0.7-1.8,1.9v4.5h-1.1v-7.2H317.2z"/>
	<path class="st5" d="M332.2,421.9c2.1,0,3.5,1.5,3.5,3.6v0.6h-5.9c0.1,1.5,1.1,2.4,2.5,2.4c1.2,0,1.8-0.6,2.2-1.4l1,0.5
		c-0.5,0.9-1.4,1.9-3.2,1.9c-2.2,0-3.7-1.7-3.7-3.9C328.6,423.6,330.1,421.9,332.2,421.9z M334.5,425.2c0-1.4-0.9-2.3-2.3-2.3
		c-1.4,0-2.3,0.8-2.4,2.3H334.5z"/>
	<path class="st5" d="M339.1,422.2v1.3h0.2c0.4-0.7,1.1-1.4,2.5-1.4c1.5,0,2.9,1,2.9,3v4.4h-1.1v-4.3c0-1.4-0.8-2.1-2-2.1
		c-1.4,0-2.4,0.9-2.4,2.6v3.7H338v-7.2H339.1z"/>
	<path class="st5" d="M348.5,422.2v-2.6h1.1v2.6h2.3v1h-2.3v4.8c0,0.3,0.1,0.4,0.4,0.4h1.5v1h-1.9c-0.7,0-1.1-0.4-1.1-1.1v-5.1h-2.2
		v-1H348.5z"/>
	<path class="st5" d="M356.7,421.9c1.5,0,2.5,0.6,3.6,1.9l-0.9,0.6c-0.8-1.1-1.7-1.5-2.7-1.5c-0.9,0-1.6,0.4-1.6,1.1
		c0,0.8,0.8,0.9,1.7,1.1l0.7,0.1c1.7,0.3,2.9,0.7,2.9,2.1s-1.3,2.3-3.2,2.3c-2,0-3.2-1.2-3.7-2.4l1-0.5c0.5,1.2,1.5,1.9,2.8,1.9
		c1.2,0,2-0.5,2-1.3c0-0.8-0.9-0.9-1.9-1.1l-0.7-0.1c-1.6-0.2-2.7-0.7-2.7-2.1C354,422.7,355.2,421.9,356.7,421.9z"/>
	<path class="st5" d="M371,421.9c2.1,0,3.7,1.6,3.7,3.8c0,2.2-1.5,3.8-3.7,3.8c-2.2,0-3.7-1.6-3.7-3.8
		C367.3,423.5,368.9,421.9,371,421.9z M371,428.5c1.5,0,2.5-1.1,2.5-2.8s-1-2.8-2.5-2.8c-1.5,0-2.6,1.1-2.6,2.8
		C368.5,427.5,369.5,428.5,371,428.5z"/>
	<path class="st5" d="M378.3,422.2v-2c0-0.7,0.4-1.2,1.1-1.2h1.8v1h-1.5c-0.3,0-0.4,0.1-0.4,0.4v1.7h2.2v1h-2.2v6.2h-1.1v-6.2h-2.2
		v-1H378.3z"/>
	<path class="st5" d="M392.1,421.9c2,0,3.1,1.1,3.1,2.9v4.6h-1.1v-1.2h-0.2c-0.4,0.7-1.2,1.4-2.7,1.4c-1.6,0-2.7-0.8-2.7-2.1
		c0-1.3,1.1-2,2.8-2.1l2.9-0.3v-0.3c0-1.1-0.7-1.8-2-1.8c-1.3,0-2.1,0.7-2.5,1.6l-1-0.5C389.1,423,390.3,421.9,392.1,421.9z
		 M391.4,428.6c1.7,0,2.8-1,2.8-2.5V426l-2.7,0.3c-1,0.1-1.8,0.4-1.8,1.2C389.7,428.2,390.3,428.6,391.4,428.6z"/>
	<path class="st5" d="M399.1,422.2v1.3h0.2c0.4-0.7,1.1-1.4,2.5-1.4c1.5,0,2.9,1,2.9,3v4.4h-1.1v-4.3c0-1.4-0.8-2.1-2-2.1
		c-1.4,0-2.4,0.9-2.4,2.6v3.7H398v-7.2H399.1z"/>
	<path class="st5" d="M408.5,422.2v-2.6h1.1v2.6h2.3v1h-2.3v4.8c0,0.3,0.1,0.4,0.4,0.4h1.5v1h-1.9c-0.7,0-1.1-0.4-1.1-1.1v-5.1h-2.2
		v-1H408.5z"/>
	<path class="st5" d="M414.7,418.9c0.5,0,1,0.4,1,1s-0.4,1-1,1c-0.5,0-1-0.4-1-1S414.2,418.9,414.7,418.9z M415.3,429.4h-1.1v-7.2
		h1.1V429.4z"/>
	<path class="st5" d="M419.4,422.2v-2c0-0.7,0.4-1.2,1.1-1.2h1.8v1H421c-0.3,0-0.4,0.1-0.4,0.4v1.7h2.2v1h-2.2v6.2h-1.1v-6.2h-2.2
		v-1H419.4z"/>
	<path class="st5" d="M427.9,421.9c2.1,0,3.5,1.5,3.5,3.6v0.6h-5.9c0.1,1.5,1.1,2.4,2.5,2.4c1.2,0,1.8-0.6,2.2-1.4l1,0.5
		c-0.5,0.9-1.4,1.9-3.2,1.9c-2.2,0-3.7-1.7-3.7-3.9C424.3,423.6,425.8,421.9,427.9,421.9z M430.2,425.2c0-1.4-0.9-2.3-2.3-2.3
		c-1.4,0-2.3,0.8-2.4,2.3H430.2z"/>
	<path class="st5" d="M434.7,422.2v1h0.2c0.4-0.7,1.1-1.1,2-1.1c1.1,0,1.7,0.5,2.1,1.3h0.2c0.4-0.7,1.1-1.3,2.2-1.3
		c1.4,0,2.5,0.9,2.5,2.4v5h-1.1v-4.9c0-0.9-0.7-1.5-1.6-1.5c-1,0-1.8,0.7-1.8,1.9v4.5h-1.1v-4.9c0-0.9-0.6-1.5-1.6-1.5
		c-1,0-1.8,0.7-1.8,1.9v4.5h-1.1v-7.2H434.7z"/>
	<path class="st5" d="M447.2,418.9c0.5,0,1,0.4,1,1s-0.4,1-1,1c-0.5,0-1-0.4-1-1S446.6,418.9,447.2,418.9z M447.7,429.4h-1.1v-7.2
		h1.1V429.4z"/>
	<path class="st5" d="M451.6,422.2v1.3h0.2c0.4-0.7,1.1-1.4,2.5-1.4c1.5,0,2.9,1,2.9,3v4.4h-1.1v-4.3c0-1.4-0.8-2.1-2-2.1
		c-1.4,0-2.4,0.9-2.4,2.6v3.7h-1.1v-7.2H451.6z"/>
	<path class="st5" d="M460.5,418.9c0.5,0,1,0.4,1,1s-0.4,1-1,1c-0.5,0-1-0.4-1-1S460,418.9,460.5,418.9z M461.1,429.4H460v-7.2h1.1
		V429.4z"/>
	<path class="st5" d="M466.5,421.9c1.4,0,2.5,0.6,3.6,1.9l-0.9,0.6c-0.8-1.1-1.7-1.5-2.7-1.5c-0.9,0-1.6,0.4-1.6,1.1
		c0,0.8,0.8,0.9,1.7,1.1l0.7,0.1c1.7,0.3,2.9,0.7,2.9,2.1s-1.3,2.3-3.2,2.3c-2,0-3.2-1.2-3.7-2.4l1-0.5c0.5,1.2,1.5,1.9,2.8,1.9
		c1.2,0,2-0.5,2-1.3c0-0.8-0.9-0.9-1.8-1.1l-0.7-0.1c-1.6-0.2-2.7-0.7-2.7-2.1C463.7,422.7,465,421.9,466.5,421.9z"/>
	<path class="st5" d="M473.6,422.2v-2.6h1.1v2.6h2.3v1h-2.3v4.8c0,0.3,0.1,0.4,0.4,0.4h1.5v1h-1.9c-0.7,0-1.1-0.4-1.1-1.1v-5.1h-2.2
		v-1H473.6z"/>
	<path class="st5" d="M322.4,439.9l2.3,6.1h0.2l2.3-6.1h1.2l-2.8,7.2h-1.6l-2.8-7.2H322.4z"/>
	<path class="st5" d="M331,436.7c0.5,0,1,0.4,1,1s-0.4,1-1,1c-0.5,0-1-0.4-1-1S330.4,436.7,331,436.7z M331.5,447.1h-1.1v-7.2h1.1
		V447.1z"/>
	<path class="st5" d="M336.9,439.7c1.5,0,2.5,0.6,3.6,1.9l-0.9,0.6c-0.8-1.1-1.7-1.5-2.7-1.5c-0.9,0-1.6,0.4-1.6,1.1
		c0,0.8,0.8,0.9,1.7,1.1l0.7,0.1c1.7,0.3,2.9,0.7,2.9,2.1s-1.3,2.3-3.2,2.3c-2,0-3.2-1.2-3.7-2.4l1-0.5c0.5,1.2,1.5,1.9,2.8,1.9
		c1.2,0,2-0.5,2-1.3c0-0.8-0.9-0.9-1.9-1.1l-0.7-0.1c-1.6-0.2-2.7-0.7-2.7-2.1C334.2,440.5,335.4,439.7,336.9,439.7z"/>
	<path class="st5" d="M348.3,447.1v-1.3h-0.2c-0.4,0.7-1.1,1.4-2.5,1.4c-1.5,0-2.8-1-2.8-3v-4.4h1.1v4.3c0,1.4,0.8,2.1,2,2.1
		c1.4,0,2.4-0.9,2.4-2.6v-3.7h1.1v7.2H348.3z"/>
	<path class="st5" d="M355.4,439.7c2,0,3.1,1.1,3.1,2.9v4.6h-1.1v-1.2h-0.2c-0.4,0.7-1.2,1.4-2.7,1.4c-1.6,0-2.7-0.8-2.7-2.1
		c0-1.3,1.1-2,2.8-2.1l2.9-0.3v-0.3c0-1.1-0.7-1.8-2-1.8c-1.3,0-2.1,0.7-2.5,1.6l-1-0.5C352.4,440.8,353.6,439.7,355.4,439.7z
		 M354.7,446.4c1.7,0,2.8-1,2.8-2.5v-0.1l-2.7,0.3c-1,0.1-1.8,0.4-1.8,1.2C352.9,446,353.6,446.4,354.7,446.4z"/>
	<path class="st5" d="M362.4,447.1h-1.1v-10.4h1.1V447.1z"/>
	<path class="st5" d="M371.5,447.1h-1.1v-10.4h1.1V447.1z"/>
	<path class="st5" d="M377.6,439.7c2,0,3.1,1.1,3.1,2.9v4.6h-1.1v-1.2h-0.2c-0.4,0.7-1.2,1.4-2.7,1.4c-1.6,0-2.7-0.8-2.7-2.1
		c0-1.3,1.1-2,2.8-2.1l2.9-0.3v-0.3c0-1.1-0.7-1.8-2-1.8c-1.3,0-2.1,0.7-2.5,1.6l-1-0.5C374.6,440.8,375.8,439.7,377.6,439.7z
		 M376.8,446.4c1.7,0,2.8-1,2.8-2.5v-0.1l-2.7,0.3c-1,0.1-1.8,0.4-1.8,1.2C375.1,446,375.8,446.4,376.8,446.4z"/>
	<path class="st5" d="M384.5,439.9v1.3h0.2c0.4-0.7,1.1-1.4,2.5-1.4c1.5,0,2.9,1,2.9,3v4.4H389v-4.3c0-1.4-0.8-2.1-2-2.1
		c-1.4,0-2.4,0.9-2.4,2.6v3.7h-1.1v-7.2H384.5z"/>
	<path class="st5" d="M399.7,439.9v7c0,2-1.3,3.4-3.5,3.4c-1.9,0-3-0.9-3.7-2l1-0.6c0.4,0.8,1.3,1.6,2.6,1.6c1.4,0,2.5-0.8,2.5-2.5
		v-1.1h-0.2c-0.4,0.7-1.1,1.5-2.6,1.5c-1.9,0-3.4-1.5-3.4-3.7c0-2.2,1.5-3.7,3.4-3.7c1.5,0,2.2,0.7,2.6,1.5h0.2v-1.2H399.7z
		 M398.6,443.5c0-1.7-1-2.7-2.5-2.7c-1.5,0-2.5,1-2.5,2.7s1.1,2.7,2.5,2.7C397.6,446.2,398.6,445.1,398.6,443.5z"/>
	<path class="st5" d="M408,447.1v-1.3h-0.2c-0.4,0.7-1.1,1.4-2.5,1.4c-1.5,0-2.8-1-2.8-3v-4.4h1.1v4.3c0,1.4,0.8,2.1,2,2.1
		c1.4,0,2.4-0.9,2.4-2.6v-3.7h1.1v7.2H408z"/>
	<path class="st5" d="M415.1,439.7c2,0,3.1,1.1,3.1,2.9v4.6h-1.1v-1.2H417c-0.4,0.7-1.2,1.4-2.7,1.4c-1.6,0-2.7-0.8-2.7-2.1
		c0-1.3,1.1-2,2.8-2.1l2.9-0.3v-0.3c0-1.1-0.7-1.8-2-1.8c-1.3,0-2.1,0.7-2.5,1.6l-1-0.5C412.2,440.8,413.3,439.7,415.1,439.7z
		 M414.4,446.4c1.7,0,2.8-1,2.8-2.5v-0.1l-2.7,0.3c-1,0.1-1.8,0.4-1.8,1.2C412.7,446,413.4,446.4,414.4,446.4z"/>
	<path class="st5" d="M427.9,439.9v7c0,2-1.3,3.4-3.5,3.4c-1.9,0-3-0.9-3.7-2l1-0.6c0.4,0.8,1.3,1.6,2.6,1.6c1.4,0,2.5-0.8,2.5-2.5
		v-1.1h-0.2c-0.4,0.7-1.1,1.5-2.6,1.5c-1.9,0-3.4-1.5-3.4-3.7c0-2.2,1.5-3.7,3.4-3.7c1.5,0,2.2,0.7,2.6,1.5h0.2v-1.2H427.9z
		 M426.8,443.5c0-1.7-1-2.7-2.5-2.7c-1.5,0-2.5,1-2.5,2.7s1.1,2.7,2.5,2.7C425.8,446.2,426.8,445.1,426.8,443.5z"/>
	<path class="st5" d="M433.8,439.7c2.1,0,3.5,1.5,3.5,3.6v0.6h-5.9c0.1,1.5,1.1,2.4,2.5,2.4c1.2,0,1.8-0.6,2.2-1.4l1,0.5
		c-0.5,0.9-1.4,1.9-3.2,1.9c-2.2,0-3.7-1.7-3.7-3.9C430.2,441.4,431.7,439.7,433.8,439.7z M436.1,443c0-1.4-0.9-2.3-2.3-2.3
		c-1.4,0-2.3,0.8-2.4,2.3H436.1z"/>
</g>
<g>
	<path class="st2" d="M13.1,286.4v5.2h-1v-4H12l-0.8,1.1h-1v-0.1l1.5-2.2H13.1z"/>
	<path class="st9" d="M20.7,290.6c1.6,0,2.6,0.9,2.6,2.3v3.8H22v-0.9h-0.2c-0.2,0.5-0.7,1.1-2,1.1c-1.3,0-2.2-0.7-2.2-1.8
		c0-1,0.8-1.6,2.1-1.8l2.2-0.2v-0.2c0-0.7-0.5-1.1-1.4-1.1c-0.9,0-1.4,0.4-1.7,1.1l-1.1-0.6C18.4,291.4,19.2,290.6,20.7,290.6z
		 M20.2,295.8c1.2,0,1.8-0.7,1.8-1.6v-0.1l-1.9,0.2c-0.6,0.1-1,0.3-1,0.7C19.1,295.5,19.5,295.8,20.2,295.8z"/>
	<path class="st9" d="M26.5,291.7h0.2c0.2-0.6,0.7-0.9,1.5-0.9h0.6v1.2h-1c-0.8,0-1.3,0.4-1.3,1.3v3.4h-1.3v-5.9h1.3V291.7z"/>
	<path class="st9" d="M35.8,290.8v5.7c0,1.6-1.2,2.8-3,2.8c-1.6,0-2.5-0.8-3.1-1.7l1.1-0.7c0.3,0.6,0.9,1.2,1.9,1.2
		c1,0,1.7-0.5,1.7-1.7v-0.8h-0.1c-0.3,0.5-0.9,1.1-2,1.1c-1.5,0-2.7-1.3-2.7-3c0-1.8,1.2-3,2.7-3c1.1,0,1.6,0.5,2,1h0.2v-0.9H35.8z
		 M34.5,293.7c0-1.2-0.7-1.9-1.8-1.9c-1,0-1.8,0.7-1.8,1.9c0,1.2,0.8,1.9,1.8,1.9C33.8,295.5,34.5,294.8,34.5,293.7z"/>
	<path class="st9" d="M42.1,296.7v-1h-0.2c-0.3,0.6-0.8,1.1-1.9,1.1c-1.3,0-2.3-0.9-2.3-2.5v-3.5H39v3.4c0,0.9,0.5,1.4,1.4,1.4
		c1,0,1.6-0.6,1.6-1.8v-3.1h1.3v5.9H42.1z"/>
	<path class="st9" d="M46.7,290.8v0.8h0.2c0.3-0.5,0.8-0.9,1.6-0.9c0.8,0,1.3,0.4,1.6,1h0.2c0.3-0.5,0.7-1,1.7-1c1.1,0,2,0.8,2,2v4
		h-1.3v-3.9c0-0.6-0.5-1-1.1-1c-0.7,0-1.2,0.4-1.2,1.2v3.6H49v-3.9c0-0.6-0.4-1-1.1-1c-0.7,0-1.2,0.4-1.2,1.2v3.6h-1.3v-5.9H46.7z"
		/>
	<path class="st9" d="M58.4,290.6c1.7,0,2.9,1.2,2.9,3v0.6h-4.5c0.1,0.9,0.7,1.6,1.7,1.6c0.9,0,1.3-0.5,1.6-1l1.1,0.6
		c-0.4,0.7-1.2,1.5-2.7,1.5c-1.8,0-3.1-1.4-3.1-3.2C55.5,291.9,56.7,290.6,58.4,290.6z M59.9,293.2c-0.1-0.9-0.6-1.4-1.5-1.4
		c-0.9,0-1.5,0.6-1.6,1.4H59.9z"/>
	<path class="st9" d="M64.2,290.8v1h0.2c0.3-0.6,0.8-1.1,1.9-1.1c1.3,0,2.3,0.9,2.3,2.5v3.6h-1.3v-3.4c0-0.9-0.5-1.4-1.4-1.4
		c-1,0-1.6,0.6-1.6,1.8v3.1h-1.3v-5.9H64.2z"/>
	<path class="st9" d="M71.3,290.8v-1.9h1.3v1.9h1.7v1.1h-1.7v3.3c0,0.2,0.1,0.3,0.3,0.3h1v1.1h-1.6c-0.6,0-1.1-0.4-1.1-1.1v-3.7
		h-1.6v-1.1H71.3z"/>
	<path class="st9" d="M78,290.6c1.2,0,2,0.5,2.9,1.4l-1,0.7c-0.6-0.7-1.2-1.1-2-1.1c-0.6,0-1,0.3-1,0.7c0,0.5,0.5,0.6,1.1,0.7l0.3,0
		c1.6,0.2,2.5,0.6,2.5,1.8c0,1.2-1.1,2-2.6,2c-1.7,0-2.6-0.9-3.1-1.8l1.1-0.6c0.4,0.8,1.2,1.3,2,1.3c0.7,0,1.3-0.3,1.3-0.8
		c0-0.5-0.7-0.6-1.3-0.7l-0.3,0c-1.5-0.2-2.3-0.7-2.3-1.8C75.7,291.3,76.7,290.6,78,290.6z"/>
	<path class="st9" d="M11,307.6h3.5v0.9H11V307.6z"/>
	<path class="st9" d="M26.7,311.1h-0.9v-1h-0.2c-0.3,0.6-0.9,1.2-2.1,1.2c-1.6,0-2.8-1.3-2.8-3.1s1.2-3.1,2.8-3.1
		c1.2,0,1.8,0.6,2.1,1.2h0.1v-3.5h0.9V311.1z M21.7,308.2c0,1.4,0.9,2.3,2.1,2.3c1.2,0,2.1-0.9,2.1-2.3c0-1.4-0.8-2.3-2.1-2.3
		C22.6,305.9,21.7,306.8,21.7,308.2z"/>
	<path class="st9" d="M31.6,305.1c1.7,0,3,1.3,3,3.1c0,1.8-1.2,3.1-3,3.1c-1.8,0-3-1.3-3-3.1C28.6,306.4,29.9,305.1,31.6,305.1z
		 M31.6,310.4c1.2,0,2.1-0.9,2.1-2.3s-0.8-2.2-2.1-2.2c-1.2,0-2.1,0.9-2.1,2.2C29.6,309.6,30.4,310.4,31.6,310.4z"/>
	<path class="st9" d="M41,311.1v-1h-0.2c-0.3,0.6-0.9,1.2-2.1,1.2c-1.2,0-2.3-0.8-2.3-2.4v-3.5h0.9v3.5c0,1.1,0.6,1.7,1.6,1.7
		c1.2,0,1.9-0.7,1.9-2.1v-3h0.9v5.9H41z"/>
	<path class="st9" d="M45,302.7v3.6h0.1c0.3-0.6,0.9-1.2,2.1-1.2c1.6,0,2.8,1.3,2.8,3.1s-1.2,3.1-2.8,3.1c-1.2,0-1.8-0.6-2.1-1.2H45
		v1h-0.9v-8.4H45z M45,308.2c0,1.4,0.8,2.3,2.1,2.3c1.2,0,2.1-0.8,2.1-2.3c0-1.4-0.8-2.3-2.1-2.3C45.9,305.9,45,306.8,45,308.2z"/>
	<path class="st9" d="M52.9,311.1H52v-8.4h0.9V311.1z"/>
	<path class="st9" d="M57.7,305.1c1.7,0,2.8,1.2,2.8,2.9v0.5h-4.8c0.1,1.2,0.9,2,2.1,2c1,0,1.5-0.5,1.8-1.2l0.8,0.4
		c-0.4,0.8-1.1,1.6-2.6,1.6c-1.8,0-3-1.4-3-3.1C54.8,306.4,56,305.1,57.7,305.1z M59.6,307.7c0-1.2-0.8-1.8-1.9-1.8
		c-1.1,0-1.8,0.7-2,1.8H59.6z"/>
	<path class="st9" d="M68.7,305.1c1.2,0,2,0.5,2.9,1.5l-0.7,0.5c-0.6-0.9-1.4-1.2-2.2-1.2c-0.8,0-1.3,0.3-1.3,0.9
		c0,0.6,0.6,0.8,1.4,0.9l0.6,0.1c1.4,0.2,2.3,0.6,2.3,1.7s-1,1.9-2.6,1.9c-1.7,0-2.6-1-3-1.9l0.8-0.4c0.4,1,1.2,1.5,2.2,1.5
		c1,0,1.6-0.4,1.6-1.1c0-0.6-0.7-0.8-1.5-0.9l-0.6-0.1c-1.3-0.2-2.2-0.6-2.2-1.7C66.5,305.7,67.5,305.1,68.7,305.1z"/>
	<path class="st9" d="M74.5,305.3v-2.1h0.9v2.1h1.9v0.8h-1.9v3.9c0,0.2,0.1,0.3,0.3,0.3H77v0.8h-1.5c-0.5,0-0.9-0.4-0.9-0.9v-4.1
		h-1.8v-0.8H74.5z"/>
	<path class="st9" d="M81.7,305.1c1.6,0,2.5,0.9,2.5,2.3v3.7h-0.9v-1h-0.2c-0.3,0.6-0.9,1.2-2.2,1.2c-1.3,0-2.2-0.7-2.2-1.7
		c0-1.1,0.9-1.6,2.2-1.7l2.3-0.2v-0.2c0-0.9-0.6-1.5-1.7-1.5c-1.1,0-1.7,0.5-2,1.3l-0.8-0.4C79.3,305.9,80.2,305.1,81.7,305.1z
		 M81.1,310.5c1.4,0,2.2-0.8,2.2-2v-0.1l-2.2,0.2c-0.8,0.1-1.4,0.3-1.4,1C79.7,310.2,80.2,310.5,81.1,310.5z"/>
	<path class="st9" d="M87.3,305.3v1h0.2c0.3-0.6,0.9-1.1,2.1-1.1c1.2,0,2.3,0.8,2.3,2.4v3.5h-0.9v-3.5c0-1.1-0.6-1.7-1.6-1.7
		c-1.2,0-1.9,0.7-1.9,2.1v3h-0.9v-5.9H87.3z"/>
	<path class="st9" d="M99.6,311.1h-0.9v-1h-0.2c-0.3,0.6-0.9,1.2-2.1,1.2c-1.6,0-2.8-1.3-2.8-3.1s1.2-3.1,2.8-3.1
		c1.2,0,1.8,0.6,2.1,1.2h0.1v-3.5h0.9V311.1z M94.6,308.2c0,1.4,0.9,2.3,2.1,2.3c1.2,0,2.1-0.9,2.1-2.3c0-1.4-0.8-2.3-2.1-2.3
		C95.4,305.9,94.6,306.8,94.6,308.2z"/>
	<path class="st9" d="M104.5,305.1c1.6,0,2.5,0.9,2.5,2.3v3.7h-0.9v-1H106c-0.3,0.6-0.9,1.2-2.2,1.2c-1.3,0-2.2-0.7-2.2-1.7
		c0-1.1,0.9-1.6,2.2-1.7l2.3-0.2v-0.2c0-0.9-0.6-1.5-1.7-1.5c-1.1,0-1.7,0.5-2,1.3l-0.8-0.4C102.1,305.9,103,305.1,104.5,305.1z
		 M103.9,310.5c1.4,0,2.2-0.8,2.2-2v-0.1l-2.2,0.2c-0.8,0.1-1.4,0.3-1.4,1C102.5,310.2,103.1,310.5,103.9,310.5z"/>
	<path class="st9" d="M110.1,306.1h0.2c0.2-0.6,0.7-0.9,1.5-0.9h0.7v0.9h-1c-0.9,0-1.4,0.5-1.4,1.5v3.5h-0.9v-5.9h0.9V306.1z"/>
	<path class="st9" d="M119.4,311.1h-0.9v-1h-0.2c-0.3,0.6-0.9,1.2-2.1,1.2c-1.6,0-2.8-1.3-2.8-3.1s1.2-3.1,2.8-3.1
		c1.2,0,1.8,0.6,2.1,1.2h0.1v-3.5h0.9V311.1z M114.4,308.2c0,1.4,0.9,2.3,2.1,2.3c1.2,0,2.1-0.9,2.1-2.3c0-1.4-0.8-2.3-2.1-2.3
		C115.2,305.9,114.4,306.8,114.4,308.2z"/>
	<path class="st9" d="M123.8,305.1c1.2,0,2,0.5,2.9,1.5l-0.7,0.5c-0.6-0.9-1.4-1.2-2.2-1.2c-0.8,0-1.3,0.3-1.3,0.9
		c0,0.6,0.6,0.8,1.4,0.9l0.6,0.1c1.4,0.2,2.3,0.6,2.3,1.7s-1,1.9-2.6,1.9c-1.7,0-2.6-1-3-1.9l0.8-0.4c0.4,1,1.2,1.5,2.2,1.5
		c1,0,1.6-0.4,1.6-1.1c0-0.6-0.7-0.8-1.5-0.9l-0.6-0.1c-1.3-0.2-2.2-0.6-2.2-1.7C121.6,305.7,122.6,305.1,123.8,305.1z"/>
	<path class="st9" d="M11,322h3.5v0.9H11V322z"/>
	<path class="st9" d="M22.3,319.7v-1.6c0-0.6,0.4-0.9,0.9-0.9h1.5v0.8h-1.2c-0.2,0-0.3,0.1-0.3,0.3v1.4H25v0.8h-1.8v5h-0.9v-5h-1.8
		v-0.8H22.3z"/>
	<path class="st9" d="M29.1,319.5c1.7,0,2.8,1.2,2.8,2.9v0.5h-4.8c0.1,1.2,0.9,2,2.1,2c1,0,1.5-0.5,1.8-1.2l0.8,0.4
		c-0.4,0.8-1.1,1.6-2.6,1.6c-1.8,0-3-1.4-3-3.1C26.2,320.8,27.4,319.5,29.1,319.5z M31,322.1c0-1.2-0.8-1.8-1.9-1.8
		c-1.1,0-1.8,0.7-2,1.8H31z"/>
	<path class="st9" d="M34.7,319.7v0.8h0.2c0.3-0.5,0.9-0.9,1.7-0.9c0.9,0,1.4,0.4,1.7,1h0.2c0.3-0.6,0.9-1,1.8-1c1.1,0,2,0.8,2,1.9
		v4h-0.9v-3.9c0-0.7-0.5-1.2-1.3-1.2c-0.8,0-1.4,0.5-1.4,1.5v3.6h-0.9v-3.9c0-0.7-0.5-1.2-1.3-1.2c-0.8,0-1.5,0.5-1.5,1.5v3.6h-0.9
		v-5.9H34.7z"/>
	<path class="st9" d="M44.7,317.1c0.4,0,0.8,0.3,0.8,0.8c0,0.4-0.3,0.8-0.8,0.8c-0.4,0-0.8-0.3-0.8-0.8
		C44,317.4,44.3,317.1,44.7,317.1z M45.2,325.5h-0.9v-5.9h0.9V325.5z"/>
	<path class="st9" d="M48.4,319.7v1h0.2c0.3-0.6,0.9-1.1,2.1-1.1c1.2,0,2.3,0.8,2.3,2.4v3.5H52V322c0-1.1-0.6-1.7-1.6-1.7
		c-1.2,0-1.9,0.7-1.9,2.1v3h-0.9v-5.9H48.4z"/>
	<path class="st9" d="M55.6,317.1c0.4,0,0.8,0.3,0.8,0.8c0,0.4-0.3,0.8-0.8,0.8c-0.4,0-0.8-0.3-0.8-0.8
		C54.8,317.4,55.1,317.1,55.6,317.1z M56,325.5h-0.9v-5.9H56V325.5z"/>
	<path class="st9" d="M60.4,319.5c1.2,0,2,0.5,2.9,1.5l-0.7,0.5c-0.6-0.9-1.4-1.2-2.2-1.2c-0.8,0-1.3,0.3-1.3,0.9
		c0,0.6,0.6,0.8,1.4,0.9l0.6,0.1c1.4,0.2,2.3,0.6,2.3,1.7c0,1.1-1,1.9-2.6,1.9c-1.7,0-2.6-1-3-1.9l0.8-0.4c0.4,1,1.2,1.5,2.2,1.5
		c1,0,1.6-0.4,1.6-1.1c0-0.6-0.7-0.8-1.5-0.9l-0.6-0.1c-1.3-0.2-2.2-0.6-2.2-1.7C58.2,320.1,59.2,319.5,60.4,319.5z"/>
	<path class="st9" d="M66,319.7v0.8h0.2c0.3-0.5,0.9-0.9,1.7-0.9c0.9,0,1.4,0.4,1.7,1h0.2c0.3-0.6,0.9-1,1.8-1c1.1,0,2,0.8,2,1.9v4
		h-0.9v-3.9c0-0.7-0.5-1.2-1.3-1.2c-0.8,0-1.4,0.5-1.4,1.5v3.6h-0.9v-3.9c0-0.7-0.5-1.2-1.3-1.2c-0.8,0-1.5,0.5-1.5,1.5v3.6h-0.9
		v-5.9H66z"/>
	<path class="st9" d="M76.2,316.9c0.5,0,0.8,0.3,0.8,0.8v1.2c0,0.6-0.4,0.9-0.9,0.9h-0.7v-0.6h0.6c0.2,0,0.3-0.1,0.3-0.3v-0.4
		c0,0-0.1,0-0.2,0c-0.4,0-0.8-0.3-0.8-0.8C75.4,317.2,75.8,316.9,76.2,316.9z"/>
	<path class="st9" d="M80.6,319.5c1.2,0,2,0.5,2.9,1.5l-0.7,0.5c-0.6-0.9-1.4-1.2-2.2-1.2c-0.8,0-1.3,0.3-1.3,0.9
		c0,0.6,0.6,0.8,1.4,0.9l0.6,0.1c1.4,0.2,2.3,0.6,2.3,1.7c0,1.1-1,1.9-2.6,1.9c-1.7,0-2.6-1-3-1.9l0.8-0.4c0.4,1,1.2,1.5,2.2,1.5
		c1,0,1.6-0.4,1.6-1.1c0-0.6-0.7-0.8-1.5-0.9l-0.6-0.1c-1.3-0.2-2.2-0.6-2.2-1.7C78.4,320.1,79.4,319.5,80.6,319.5z"/>
	<path class="st9" d="M89.6,319.7h0.9v1h0.2c0.3-0.6,0.9-1.2,2.1-1.2c1.6,0,2.8,1.3,2.8,3.1s-1.2,3.1-2.8,3.1
		c-1.2,0-1.8-0.6-2.1-1.2h-0.1v3.4h-0.9V319.7z M94.7,322.6c0-1.4-0.8-2.3-2.1-2.3c-1.2,0-2.1,0.9-2.1,2.3c0,1.4,0.8,2.3,2.1,2.3
		C93.8,324.9,94.7,324,94.7,322.6z"/>
	<path class="st9" d="M100,319.5c1.7,0,2.8,1.2,2.8,2.9v0.5h-4.8c0.1,1.2,0.9,2,2.1,2c1,0,1.5-0.5,1.8-1.2l0.8,0.4
		c-0.4,0.8-1.1,1.6-2.6,1.6c-1.8,0-3-1.4-3-3.1C97.1,320.8,98.3,319.5,100,319.5z M101.9,322.1c0-1.2-0.8-1.8-1.9-1.8
		c-1.1,0-1.8,0.7-2,1.8H101.9z"/>
	<path class="st9" d="M105.6,320.5h0.2c0.2-0.6,0.7-0.9,1.5-0.9h0.7v0.9h-1c-0.9,0-1.4,0.5-1.4,1.5v3.5h-0.9v-5.9h0.9V320.5z"/>
	<path class="st9" d="M111.9,319.5c1.5,0,2.6,1,2.8,2.3l-0.9,0.2c-0.1-0.9-0.8-1.6-1.9-1.6c-1.2,0-2.1,0.9-2.1,2.2
		c0,1.3,0.9,2.3,2.1,2.3c1.2,0,1.7-0.7,1.9-1.6l0.9,0.2c-0.2,1.2-1.2,2.3-2.8,2.3c-1.8,0-3-1.3-3-3.1S110.2,319.5,111.9,319.5z"/>
	<path class="st9" d="M119.1,319.5c1.7,0,2.8,1.2,2.8,2.9v0.5h-4.8c0.1,1.2,0.9,2,2.1,2c1,0,1.5-0.5,1.8-1.2l0.8,0.4
		c-0.4,0.8-1.1,1.6-2.6,1.6c-1.8,0-3-1.4-3-3.1C116.2,320.8,117.4,319.5,119.1,319.5z M121,322.1c0-1.2-0.8-1.8-1.9-1.8
		c-1.1,0-1.8,0.7-2,1.8H121z"/>
	<path class="st9" d="M123.8,319.7h0.9v1h0.2c0.3-0.6,0.9-1.2,2.1-1.2c1.6,0,2.8,1.3,2.8,3.1s-1.2,3.1-2.8,3.1
		c-1.2,0-1.8-0.6-2.1-1.2h-0.1v3.4h-0.9V319.7z M128.8,322.6c0-1.4-0.8-2.3-2.1-2.3c-1.2,0-2.1,0.9-2.1,2.3c0,1.4,0.8,2.3,2.1,2.3
		C128,324.9,128.8,324,128.8,322.6z"/>
	<path class="st9" d="M132.6,319.7v-2.1h0.9v2.1h1.9v0.8h-1.9v3.9c0,0.2,0.1,0.3,0.3,0.3h1.2v0.8h-1.5c-0.5,0-0.9-0.4-0.9-0.9v-4.1
		h-1.8v-0.8H132.6z"/>
	<path class="st9" d="M137.7,317.1c0.4,0,0.8,0.3,0.8,0.8c0,0.4-0.3,0.8-0.8,0.8c-0.4,0-0.8-0.3-0.8-0.8
		C136.9,317.4,137.2,317.1,137.7,317.1z M138.1,325.5h-0.9v-5.9h0.9V325.5z"/>
	<path class="st9" d="M143,319.5c1.7,0,3,1.3,3,3.1c0,1.8-1.2,3.1-3,3.1c-1.8,0-3-1.3-3-3.1C140,320.8,141.2,319.5,143,319.5z
		 M143,324.8c1.2,0,2.1-0.9,2.1-2.3s-0.8-2.2-2.1-2.2c-1.2,0-2.1,0.9-2.1,2.2C140.9,324,141.8,324.8,143,324.8z"/>
	<path class="st9" d="M148.8,319.7v1h0.2c0.3-0.6,0.9-1.1,2.1-1.1c1.2,0,2.3,0.8,2.3,2.4v3.5h-0.9V322c0-1.1-0.6-1.7-1.6-1.7
		c-1.2,0-1.9,0.7-1.9,2.1v3h-0.9v-5.9H148.8z"/>
	<path class="st9" d="M11,336.4h3.5v0.9H11V336.4z"/>
	<path class="st9" d="M22.3,334.1v-1.6c0-0.6,0.4-0.9,0.9-0.9h1.5v0.8h-1.2c-0.2,0-0.3,0.1-0.3,0.3v1.4H25v0.8h-1.8v5h-0.9v-5h-1.8
		v-0.8H22.3z"/>
	<path class="st9" d="M29.2,333.9c1.6,0,2.5,0.9,2.5,2.3v3.7h-0.9v-1h-0.2c-0.3,0.6-0.9,1.2-2.2,1.2c-1.3,0-2.2-0.7-2.2-1.7
		c0-1.1,0.9-1.6,2.2-1.7l2.3-0.2v-0.2c0-0.9-0.6-1.5-1.7-1.5c-1.1,0-1.7,0.5-2,1.3l-0.8-0.4C26.8,334.7,27.8,333.9,29.2,333.9z
		 M28.6,339.3c1.4,0,2.2-0.8,2.2-2v-0.1l-2.2,0.2c-0.8,0.1-1.4,0.3-1.4,1C27.2,339,27.8,339.3,28.6,339.3z"/>
	<path class="st9" d="M34.9,339.9H34v-8.4h0.9V339.9z"/>
	<path class="st9" d="M39.2,333.9c1.2,0,2,0.5,2.9,1.5l-0.7,0.5c-0.6-0.9-1.4-1.2-2.2-1.2c-0.8,0-1.3,0.3-1.3,0.9
		c0,0.6,0.6,0.8,1.4,0.9l0.6,0.1c1.4,0.2,2.3,0.6,2.3,1.7c0,1.1-1,1.9-2.6,1.9c-1.7,0-2.6-1-3-1.9l0.8-0.4c0.4,1,1.2,1.5,2.2,1.5
		c1,0,1.6-0.4,1.6-1.1c0-0.6-0.7-0.8-1.5-0.9l-0.6-0.1c-1.3-0.2-2.2-0.6-2.2-1.7C37,334.5,38.1,333.9,39.2,333.9z"/>
	<path class="st9" d="M46.5,333.9c1.7,0,2.8,1.2,2.8,2.9v0.5h-4.8c0.1,1.2,0.9,2,2.1,2c1,0,1.5-0.5,1.8-1.2l0.8,0.4
		c-0.4,0.8-1.1,1.6-2.6,1.6c-1.8,0-3-1.4-3-3.1C43.6,335.2,44.9,333.9,46.5,333.9z M48.4,336.5c0-1.2-0.8-1.8-1.9-1.8
		c-1.1,0-1.8,0.7-2,1.8H48.4z"/>
	<path class="st9" d="M58.1,333.9c1.6,0,2.5,0.9,2.5,2.3v3.7h-0.9v-1h-0.2c-0.3,0.6-0.9,1.2-2.2,1.2c-1.3,0-2.2-0.7-2.2-1.7
		c0-1.1,0.9-1.6,2.2-1.7l2.3-0.2v-0.2c0-0.9-0.6-1.5-1.7-1.5c-1.1,0-1.7,0.5-2,1.3l-0.8-0.4C55.7,334.7,56.6,333.9,58.1,333.9z
		 M57.4,339.3c1.4,0,2.2-0.8,2.2-2v-0.1l-2.2,0.2c-0.8,0.1-1.4,0.3-1.4,1C56.1,339,56.6,339.3,57.4,339.3z"/>
	<path class="st9" d="M65.4,333.9c1.5,0,2.6,1,2.8,2.3l-0.9,0.2c-0.1-0.9-0.8-1.6-1.9-1.6c-1.2,0-2.1,0.9-2.1,2.2
		c0,1.3,0.9,2.3,2.1,2.3c1.2,0,1.7-0.7,1.9-1.6l0.9,0.2c-0.2,1.2-1.2,2.3-2.8,2.3c-1.8,0-3-1.3-3-3.1S63.7,333.9,65.4,333.9z"/>
	<path class="st9" d="M72.8,333.9c1.5,0,2.6,1,2.8,2.3l-0.9,0.2c-0.1-0.9-0.8-1.6-1.9-1.6c-1.2,0-2.1,0.9-2.1,2.2
		c0,1.3,0.9,2.3,2.1,2.3c1.2,0,1.7-0.7,1.9-1.6l0.9,0.2c-0.2,1.2-1.2,2.3-2.8,2.3c-1.8,0-3-1.3-3-3.1S71,333.9,72.8,333.9z"/>
	<path class="st9" d="M81.9,339.9v-1h-0.2c-0.3,0.6-0.9,1.2-2.1,1.2c-1.2,0-2.3-0.8-2.3-2.4v-3.6h0.9v3.5c0,1.1,0.6,1.7,1.6,1.7
		c1.2,0,1.9-0.7,1.9-2.1v-3h0.9v5.9H81.9z"/>
	<path class="st9" d="M87.1,333.9c1.2,0,2,0.5,2.9,1.5l-0.7,0.5c-0.6-0.9-1.4-1.2-2.2-1.2c-0.8,0-1.3,0.3-1.3,0.9
		c0,0.6,0.6,0.8,1.4,0.9l0.6,0.1c1.4,0.2,2.3,0.6,2.3,1.7c0,1.1-1,1.9-2.6,1.9c-1.7,0-2.6-1-3-1.9l0.8-0.4c0.4,1,1.2,1.5,2.2,1.5
		c1,0,1.6-0.4,1.6-1.1c0-0.6-0.7-0.8-1.5-0.9l-0.6-0.1c-1.3-0.2-2.2-0.6-2.2-1.7C84.9,334.5,85.9,333.9,87.1,333.9z"/>
	<path class="st9" d="M94.5,333.9c1.6,0,2.5,0.9,2.5,2.3v3.7h-0.9v-1H96c-0.3,0.6-0.9,1.2-2.2,1.2c-1.3,0-2.2-0.7-2.2-1.7
		c0-1.1,0.9-1.6,2.2-1.7l2.3-0.2v-0.2c0-0.9-0.6-1.5-1.7-1.5c-1.1,0-1.7,0.5-2,1.3l-0.8-0.4C92.1,334.7,93,333.9,94.5,333.9z
		 M93.9,339.3c1.4,0,2.2-0.8,2.2-2v-0.1l-2.2,0.2c-0.8,0.1-1.4,0.3-1.4,1C92.5,339,93.1,339.3,93.9,339.3z"/>
	<path class="st9" d="M100.2,334.1V332h0.9v2.1h1.9v0.8h-1.9v3.9c0,0.2,0.1,0.3,0.3,0.3h1.2v0.8h-1.5c-0.5,0-0.9-0.4-0.9-0.9v-4.1
		h-1.8v-0.8H100.2z"/>
	<path class="st9" d="M105.2,331.5c0.4,0,0.8,0.3,0.8,0.8c0,0.4-0.3,0.8-0.8,0.8c-0.4,0-0.8-0.3-0.8-0.8
		C104.4,331.8,104.7,331.5,105.2,331.5z M105.6,339.9h-0.9v-5.9h0.9V339.9z"/>
	<path class="st9" d="M110.5,333.9c1.7,0,3,1.3,3,3.1c0,1.8-1.2,3.1-3,3.1c-1.8,0-3-1.3-3-3.1C107.5,335.2,108.8,333.9,110.5,333.9z
		 M110.5,339.2c1.2,0,2.1-0.9,2.1-2.3s-0.8-2.2-2.1-2.2c-1.2,0-2.1,0.9-2.1,2.2C108.5,338.4,109.3,339.2,110.5,339.2z"/>
	<path class="st9" d="M116.3,334.1v1h0.2c0.3-0.6,0.9-1.1,2.1-1.1c1.2,0,2.3,0.8,2.3,2.4v3.5h-0.9v-3.5c0-1.1-0.6-1.7-1.6-1.7
		c-1.2,0-1.9,0.7-1.9,2.1v3h-0.9v-5.9H116.3z"/>
	<path class="st9" d="M125.1,333.9c1.2,0,2,0.5,2.9,1.5l-0.7,0.5c-0.6-0.9-1.4-1.2-2.2-1.2c-0.8,0-1.3,0.3-1.3,0.9
		c0,0.6,0.6,0.8,1.4,0.9l0.6,0.1c1.4,0.2,2.3,0.6,2.3,1.7c0,1.1-1,1.9-2.6,1.9c-1.7,0-2.6-1-3-1.9l0.8-0.4c0.4,1,1.2,1.5,2.2,1.5
		c1,0,1.6-0.4,1.6-1.1c0-0.6-0.7-0.8-1.5-0.9l-0.6-0.1c-1.3-0.2-2.2-0.6-2.2-1.7C122.9,334.5,123.9,333.9,125.1,333.9z"/>
	<path class="st9" d="M11,350.8h3.5v0.9H11V350.8z"/>
	<path class="st9" d="M25.6,354.3v-1h-0.2c-0.3,0.6-0.9,1.2-2.1,1.2c-1.2,0-2.3-0.8-2.3-2.4v-3.5H22v3.5c0,1.1,0.6,1.7,1.6,1.7
		c1.2,0,1.9-0.7,1.9-2.1v-3h0.9v5.9H25.6z"/>
	<path class="st9" d="M29.7,348.5v1h0.2c0.3-0.6,0.9-1.1,2.1-1.1c1.2,0,2.3,0.8,2.3,2.4v3.5h-0.9v-3.5c0-1.1-0.6-1.7-1.6-1.7
		c-1.2,0-1.9,0.7-1.9,2.1v3h-0.9v-5.9H29.7z"/>
	<path class="st9" d="M37.4,355.8c0,0.6-0.4,0.9-0.9,0.9H35v-0.8h1.1c0.2,0,0.3-0.1,0.3-0.4v-7.1h0.9V355.8z M36.9,345.9
		c0.4,0,0.8,0.3,0.8,0.8c0,0.4-0.3,0.8-0.8,0.8c-0.4,0-0.8-0.3-0.8-0.8C36.1,346.2,36.5,345.9,36.9,345.9z"/>
	<path class="st9" d="M44.1,354.3v-1h-0.2c-0.3,0.6-0.9,1.2-2.1,1.2c-1.2,0-2.3-0.8-2.3-2.4v-3.5h0.9v3.5c0,1.1,0.6,1.7,1.6,1.7
		c1.2,0,1.9-0.7,1.9-2.1v-3H45v5.9H44.1z"/>
	<path class="st9" d="M49.3,348.3c1.2,0,2,0.5,2.9,1.5l-0.7,0.5c-0.6-0.9-1.4-1.2-2.2-1.2c-0.8,0-1.3,0.3-1.3,0.9
		c0,0.6,0.6,0.8,1.4,0.9l0.6,0.1c1.4,0.2,2.3,0.6,2.3,1.7s-1,1.9-2.6,1.9c-1.7,0-2.6-1-3-1.9l0.8-0.4c0.4,1,1.2,1.5,2.2,1.5
		c1,0,1.6-0.4,1.6-1.1c0-0.6-0.7-0.8-1.5-0.9l-0.6-0.1c-1.3-0.2-2.2-0.6-2.2-1.7C47.1,348.9,48.1,348.3,49.3,348.3z"/>
	<path class="st9" d="M55.1,348.5v-2.1h0.9v2.1h1.9v0.8h-1.9v3.9c0,0.2,0.1,0.3,0.3,0.3h1.2v0.8H56c-0.5,0-0.9-0.4-0.9-0.9v-4.1
		h-1.8v-0.8H55.1z"/>
	<path class="st9" d="M60.2,345.9c0.4,0,0.8,0.3,0.8,0.8c0,0.4-0.3,0.8-0.8,0.8c-0.4,0-0.8-0.3-0.8-0.8
		C59.4,346.2,59.7,345.9,60.2,345.9z M60.6,354.3h-0.9v-5.9h0.9V354.3z"/>
	<path class="st9" d="M68.4,348.5v5.9h-0.9v-5h-2.6v5H64v-5h-1.8v-0.8H64v-1.6c0-0.6,0.4-0.9,0.9-0.9h1.4v0.8h-1.1
		c-0.2,0-0.3,0.1-0.3,0.3v1.4H68.4z M68.8,346.6c0,0.4-0.3,0.8-0.8,0.8c-0.5,0-0.8-0.3-0.8-0.8c0-0.4,0.3-0.8,0.8-0.8
		C68.4,345.9,68.8,346.2,68.8,346.6z"/>
	<path class="st9" d="M73.2,348.3c1.7,0,2.8,1.2,2.8,2.9v0.5h-4.8c0.1,1.2,0.9,2,2.1,2c1,0,1.5-0.5,1.8-1.2l0.8,0.4
		c-0.4,0.8-1.1,1.6-2.6,1.6c-1.8,0-3-1.4-3-3.1C70.3,349.6,71.5,348.3,73.2,348.3z M75.1,350.9c0-1.2-0.8-1.8-1.9-1.8
		c-1.1,0-1.8,0.7-2,1.8H75.1z"/>
	<path class="st9" d="M83.5,354.3h-0.9v-1h-0.2c-0.3,0.6-0.9,1.2-2.1,1.2c-1.6,0-2.8-1.3-2.8-3.1s1.2-3.1,2.8-3.1
		c1.2,0,1.8,0.6,2.1,1.2h0.1v-3.5h0.9V354.3z M78.5,351.4c0,1.4,0.9,2.3,2.1,2.3c1.2,0,2.1-0.9,2.1-2.3c0-1.4-0.8-2.3-2.1-2.3
		C79.3,349.1,78.5,350,78.5,351.4z"/>
	<path class="st9" d="M90.9,345.9v3.6h0.1c0.3-0.6,0.9-1.1,2.1-1.1c1.2,0,2.3,0.8,2.3,2.4v3.5h-0.9v-3.5c0-1.1-0.6-1.7-1.6-1.7
		c-1.2,0-1.9,0.7-1.9,2.1v3H90v-8.4H90.9z"/>
	<path class="st9" d="M100.2,348.3c1.6,0,2.5,0.9,2.5,2.3v3.7h-0.9v-1h-0.2c-0.3,0.6-0.9,1.2-2.2,1.2c-1.3,0-2.2-0.7-2.2-1.7
		c0-1.1,0.9-1.6,2.2-1.7l2.3-0.2v-0.2c0-0.9-0.6-1.5-1.7-1.5c-1.1,0-1.7,0.5-2,1.3l-0.8-0.4C97.8,349.1,98.8,348.3,100.2,348.3z
		 M99.6,353.7c1.4,0,2.2-0.8,2.2-2v-0.1l-2.2,0.2c-0.8,0.1-1.4,0.3-1.4,1C98.2,353.4,98.8,353.7,99.6,353.7z"/>
	<path class="st9" d="M105.9,348.5v-2.1h0.9v2.1h1.9v0.8h-1.9v3.9c0,0.2,0.1,0.3,0.3,0.3h1.2v0.8h-1.5c-0.5,0-0.9-0.4-0.9-0.9v-4.1
		h-1.8v-0.8H105.9z"/>
	<path class="st9" d="M112.9,348.3c1.7,0,2.8,1.2,2.8,2.9v0.5H111c0.1,1.2,0.9,2,2.1,2c1,0,1.5-0.5,1.8-1.2l0.8,0.4
		c-0.4,0.8-1.1,1.6-2.6,1.6c-1.8,0-3-1.4-3-3.1C110,349.6,111.2,348.3,112.9,348.3z M114.8,350.9c0-1.2-0.8-1.8-1.9-1.8
		c-1.1,0-1.8,0.7-2,1.8H114.8z"/>
	<path class="st9" d="M13.5,362.7c1.7,0,3,1.3,3,3.1c0,1.8-1.2,3.1-3,3.1c-1.8,0-3-1.3-3-3.1C10.6,364,11.8,362.7,13.5,362.7z
		 M13.5,368c1.2,0,2.1-0.9,2.1-2.3s-0.8-2.2-2.1-2.2c-1.2,0-2.1,0.9-2.1,2.2C11.5,367.2,12.3,368,13.5,368z"/>
	<path class="st9" d="M19.4,362.9v-2.1h0.9v2.1h1.9v0.8h-1.9v3.9c0,0.2,0.1,0.3,0.3,0.3h1.2v0.8h-1.5c-0.5,0-0.9-0.4-0.9-0.9v-4.1
		h-1.8v-0.8H19.4z"/>
	<path class="st9" d="M24.9,360.3v3.6H25c0.3-0.6,0.9-1.1,2.1-1.1c1.2,0,2.3,0.8,2.3,2.4v3.5h-0.9v-3.5c0-1.1-0.6-1.7-1.6-1.7
		c-1.2,0-1.9,0.7-1.9,2.1v3H24v-8.4H24.9z"/>
	<path class="st9" d="M34.1,362.7c1.7,0,2.8,1.2,2.8,2.9v0.5h-4.8c0.1,1.2,0.9,2,2.1,2c1,0,1.5-0.5,1.8-1.2l0.8,0.4
		c-0.4,0.8-1.1,1.6-2.6,1.6c-1.8,0-3-1.4-3-3.1C31.2,364,32.4,362.7,34.1,362.7z M36,365.3c0-1.2-0.8-1.8-1.9-1.8
		c-1.1,0-1.8,0.7-2,1.8H36z"/>
	<path class="st9" d="M39.7,363.7h0.2c0.2-0.6,0.7-0.9,1.5-0.9h0.7v0.9h-1c-0.9,0-1.4,0.5-1.4,1.5v3.5h-0.9v-5.9h0.9V363.7z"/>
</g>
</svg>
