<?xml version="1.0" encoding="utf-8"?>
<!-- Generator: Adobe Illustrator 22.0.0, SVG Export Plug-In . SVG Version: 6.00 Build 0)  -->
<svg version="1.1" id="Livello_1" xmlns="http://www.w3.org/2000/svg" xmlns:xlink="http://www.w3.org/1999/xlink" x="0px" y="0px"
	 viewBox="0 0 830.1 404.5" style="enable-background:new 0 0 830.1 404.5;" xml:space="preserve">
<style type="text/css">
	.st0{fill:#F6F6F6;}
	.st1{fill:#FF3603;}
	.st2{fill:#FFFFFF;}
	.st3{fill:#666666;}
	.st4{fill:none;stroke:#FF3603;stroke-miterlimit:10;}
	.st5{fill:#B2B2B2;}
	.st6{fill:#1D1D1B;}
	.st7{fill:none;stroke:#1D1D1B;stroke-miterlimit:10;}
	.st8{fill:none;stroke:#C6C6C6;stroke-miterlimit:10;}
	.st9{fill:#C6C6C6;}
	.st10{fill:none;stroke:#FF3603;stroke-width:1.1116;stroke-miterlimit:10;}
</style>
<title>Tavola disegno 1</title>
<rect y="322.2" class="st0" width="659.2" height="65.4"/>
<rect y="241.8" class="st0" width="659.2" height="65.4"/>
<rect class="st0" width="658.1" height="226.8"/>
<g>
	<rect x="11.5" y="11.4" class="st1" width="125.7" height="22.1"/>
	<g>
		<path class="st2" d="M21.8,18c2.3,0,3.6,1.2,3.6,3.5v1.8c0,2.3-1.3,3.5-3.6,3.5h-2.9v-8.9h2.9V18z M20.3,25.5h1.5
			c1.5,0,2.1-0.7,2.1-2.2v-1.9c0-1.5-0.6-2.2-2.1-2.2h-1.4v6.3H20.3z"/>
		<path class="st2" d="M31.3,18l2.6,8.9h-1.6l-0.6-2h-3.4l-0.6,2h-1.6l2.6-8.9H31.3z M31.4,23.5l-1.3-4.2H30l-1.3,4.2H31.4z"/>
		<path class="st2" d="M41,18v1.4h-2.7v7.5h-1.5v-7.5H34V18H41z"/>
		<path class="st2" d="M46,18l2.6,8.9H47l-0.6-2H43l-0.6,2h-1.6l2.6-8.9H46z M46.1,23.5l-1.3-4.2h-0.1l-1.3,4.2H46.1z"/>
		<path class="st2" d="M57.4,17.7c2.2,0,3.4,1.3,3.4,3.2v0.3h-1.5V21c0-1.2-0.6-1.9-1.9-1.9c-1.4,0-2.1,0.8-2.1,2.2v2.1
			c0,1.4,0.7,2.2,2.1,2.2s1.9-0.7,1.9-1.9v-0.2h1.6v0.2c0,2-1.2,3.3-3.4,3.3s-3.6-1.3-3.6-3.6v-2C53.8,19.1,55.2,17.7,57.4,17.7z"/>
		<path class="st2" d="M65.9,17.7c2.2,0,3.6,1.4,3.6,3.7v1.9c0,2.3-1.4,3.7-3.6,3.7c-2.2,0-3.6-1.4-3.6-3.7v-1.9
			C62.3,19.1,63.6,17.7,65.9,17.7z M63.7,23.5c0,1.4,0.6,2.2,2.1,2.2s2.1-0.8,2.1-2.2v-2c0-1.4-0.7-2.2-2.1-2.2
			c-1.4,0-2.1,0.8-2.1,2.2V23.5z"/>
		<path class="st2" d="M72.7,18v7.5H77v1.4h-5.7V18H72.7z"/>
		<path class="st2" d="M79.9,18v7.5h4.2v1.4h-5.7V18H79.9z"/>
		<path class="st2" d="M91.4,18v1.4h-4.3v2.4H91v1.4h-3.9v2.4h4.3v1.4h-5.8v-8.9h5.8V18z"/>
		<path class="st2" d="M96.5,17.7c2.2,0,3.4,1.3,3.4,3.2v0.3h-1.5V21c0-1.2-0.6-1.9-1.9-1.9c-1.4,0-2.1,0.8-2.1,2.2v2.1
			c0,1.4,0.7,2.2,2.1,2.2s1.9-0.7,1.9-1.9v-0.2h1.5v0.2c0,2-1.2,3.3-3.4,3.3c-2.2,0-3.6-1.3-3.6-3.6v-2
			C92.9,19.1,94.3,17.7,96.5,17.7z"/>
		<path class="st2" d="M107.9,18v1.4h-2.7v7.5h-1.5v-7.5H101V18H107.9z"/>
		<path class="st2" d="M110.9,18v8.9h-1.5V18H110.9z"/>
		<path class="st2" d="M116.3,17.7c2.2,0,3.6,1.4,3.6,3.7v1.9c0,2.3-1.4,3.7-3.6,3.7s-3.6-1.4-3.6-3.7v-1.9
			C112.7,19.1,114.1,17.7,116.3,17.7z M114.2,23.5c0,1.4,0.6,2.2,2.1,2.2s2.1-0.8,2.1-2.2v-2c0-1.4-0.7-2.2-2.1-2.2
			s-2.1,0.8-2.1,2.2L114.2,23.5z"/>
		<path class="st2" d="M124.3,18l2.4,7.5h0.1V18h1.5v8.9h-2.6l-2.4-7.5h-0.1v7.5h-1.5V18H124.3z"/>
	</g>
</g>
<g>
	<path class="st1" d="M14.6,46.8V52h-1v-4h-0.1l-0.8,1.1h-1V49l1.5-2.2H14.6z"/>
	<path class="st3" d="M26.7,57.2h-1.3v-0.9h-0.2c-0.3,0.5-0.9,1.1-2,1.1c-1.5,0-2.7-1.3-2.7-3.1c0-1.8,1.2-3.1,2.7-3.1
		c1.1,0,1.6,0.5,2,1h0.1v-3.4h1.3V57.2z M21.9,54.3c0,1.2,0.8,2,1.8,2c1,0,1.8-0.7,1.8-2c0-1.2-0.7-1.9-1.8-1.9
		C22.6,52.3,21.9,53,21.9,54.3z"/>
	<path class="st3" d="M31.4,51.1c1.6,0,2.6,0.9,2.6,2.3v3.8h-1.3v-0.9h-0.2c-0.2,0.5-0.7,1.1-2,1.1c-1.3,0-2.2-0.7-2.2-1.8
		c0-1,0.8-1.6,2.1-1.8l2.2-0.2v-0.2c0-0.7-0.5-1.1-1.4-1.1c-0.9,0-1.4,0.4-1.7,1.1l-1.1-0.6C29.1,51.9,29.9,51.1,31.4,51.1z
		 M30.9,56.3c1.2,0,1.8-0.7,1.8-1.6v-0.1l-1.9,0.2c-0.6,0.1-1,0.3-1,0.7C29.8,56,30.2,56.3,30.9,56.3z"/>
	<path class="st3" d="M36.8,51.3v-1.9h1.3v1.9h1.7v1.1h-1.7v3.3c0,0.2,0.1,0.3,0.3,0.3h1v1.1h-1.6c-0.6,0-1.1-0.4-1.1-1.1v-3.7h-1.6
		v-1.1H36.8z"/>
	<path class="st3" d="M44,51.1c1.6,0,2.6,0.9,2.6,2.3v3.8h-1.3v-0.9h-0.2c-0.2,0.5-0.7,1.1-2,1.1c-1.3,0-2.2-0.7-2.2-1.8
		c0-1,0.8-1.6,2.1-1.8l2.2-0.2v-0.2c0-0.7-0.5-1.1-1.4-1.1c-0.9,0-1.4,0.4-1.7,1.1l-1.1-0.6C41.7,51.9,42.6,51.1,44,51.1z
		 M43.5,56.3c1.2,0,1.8-0.7,1.8-1.6v-0.1l-1.9,0.2c-0.6,0.1-1,0.3-1,0.7C42.4,56,42.8,56.3,43.5,56.3z"/>
	<path class="st3" d="M18.4,63.2v0.9h-2.8v7.5h-1v-7.5h-2.8v-0.9H18.4z"/>
	<path class="st3" d="M20.4,63.2c0.4,0,0.8,0.3,0.8,0.8c0,0.4-0.3,0.8-0.8,0.8c-0.4,0-0.8-0.3-0.8-0.8C19.6,63.5,20,63.2,20.4,63.2z
		 M20.9,71.6H20v-5.9h0.9V71.6z"/>
	<path class="st3" d="M24.2,65.8v-2.1h0.9v2.1H27v0.8h-1.9v3.9c0,0.2,0.1,0.3,0.3,0.3h1.2v0.8h-1.5c-0.5,0-0.9-0.4-0.9-0.9v-4.1
		h-1.8v-0.8H24.2z"/>
	<path class="st3" d="M29.7,71.6h-0.9v-8.4h0.9V71.6z"/>
	<path class="st3" d="M34.5,65.6c1.7,0,2.8,1.2,2.8,2.9V69h-4.8c0.1,1.2,0.9,2,2.1,2c1,0,1.5-0.5,1.8-1.2l0.8,0.4
		c-0.4,0.8-1.1,1.6-2.6,1.6c-1.8,0-3-1.4-3-3.1C31.6,66.9,32.8,65.6,34.5,65.6z M36.4,68.2c0-1.2-0.8-1.8-1.9-1.8
		c-1.1,0-1.8,0.7-2,1.8H36.4z"/>
	<path class="st3" d="M39.6,70.1c0.5,0,0.8,0.3,0.8,0.8v1.2c0,0.6-0.4,0.9-0.9,0.9h-0.7v-0.6h0.6c0.2,0,0.3-0.1,0.3-0.3v-0.4
		c0,0-0.1,0-0.2,0c-0.4,0-0.8-0.3-0.8-0.8C38.8,70.4,39.1,70.1,39.6,70.1z"/>
	<path class="st3" d="M47.1,65.8l1.8,5H49l1.8-5h1l-2.3,5.9h-1.3l-2.3-5.9H47.1z"/>
	<path class="st3" d="M54,63.2c0.4,0,0.8,0.3,0.8,0.8c0,0.4-0.3,0.8-0.8,0.8c-0.4,0-0.8-0.3-0.8-0.8C53.2,63.5,53.6,63.2,54,63.2z
		 M54.5,71.6h-0.9v-5.9h0.9V71.6z"/>
	<path class="st3" d="M59.3,65.6c1.7,0,2.8,1.2,2.8,2.9V69h-4.8c0.1,1.2,0.9,2,2.1,2c1,0,1.5-0.5,1.8-1.2l0.8,0.4
		c-0.4,0.8-1.1,1.6-2.6,1.6c-1.8,0-3-1.4-3-3.1C56.4,66.9,57.6,65.6,59.3,65.6z M61.1,68.2c0-1.2-0.8-1.8-1.9-1.8
		c-1.1,0-1.8,0.7-2,1.8H61.1z"/>
	<path class="st3" d="M64.4,65.8l1.1,4.9h0.2l1.3-4.9h1.4l1.3,4.9h0.2l1.1-4.9h1l-1.4,5.9H69l-1.3-4.9h-0.2l-1.3,4.9h-1.4l-1.4-5.9
		H64.4z"/>
	<path class="st3" d="M75.6,65.6c1.2,0,2,0.5,2.9,1.5l-0.7,0.5c-0.6-0.9-1.4-1.2-2.2-1.2c-0.8,0-1.3,0.3-1.3,0.9
		c0,0.6,0.6,0.8,1.4,0.9l0.6,0.1c1.4,0.2,2.3,0.6,2.3,1.7s-1,1.9-2.6,1.9c-1.7,0-2.6-1-3-1.9l0.8-0.4c0.4,1,1.2,1.5,2.2,1.5
		c1,0,1.6-0.4,1.6-1.1c0-0.6-0.7-0.8-1.5-0.9L75.6,69c-1.3-0.2-2.2-0.6-2.2-1.7C73.4,66.2,74.4,65.6,75.6,65.6z"/>
	<path class="st3" d="M81,70.1c0.5,0,0.8,0.3,0.8,0.8v1.2c0,0.6-0.4,0.9-0.9,0.9h-0.7v-0.6h0.6c0.2,0,0.3-0.1,0.3-0.3v-0.4
		c0,0-0.1,0-0.2,0c-0.4,0-0.8-0.3-0.8-0.8C80.1,70.4,80.5,70.1,81,70.1z"/>
	<path class="st3" d="M88.9,71.6H88v-8.4h0.9V71.6z"/>
	<path class="st3" d="M91.7,63.2c0.4,0,0.8,0.3,0.8,0.8c0,0.4-0.3,0.8-0.8,0.8c-0.4,0-0.8-0.3-0.8-0.8
		C90.9,63.5,91.2,63.2,91.7,63.2z M92.1,71.6h-0.9v-5.9h0.9V71.6z"/>
	<path class="st3" d="M97.3,68.1l2.7,3.5h-1.1l-2.2-3l-1.3,1.1v1.9h-0.9v-8.4h0.9v5.3h0.1l3.2-2.7h1.4L97.3,68.1z"/>
	<path class="st3" d="M103.7,65.6c1.7,0,2.8,1.2,2.8,2.9V69h-4.8c0.1,1.2,0.9,2,2.1,2c1,0,1.5-0.5,1.8-1.2l0.8,0.4
		c-0.4,0.8-1.1,1.6-2.6,1.6c-1.8,0-3-1.4-3-3.1C100.7,66.9,102,65.6,103.7,65.6z M105.5,68.2c0-1.2-0.8-1.8-1.9-1.8
		c-1.1,0-1.8,0.7-2,1.8H105.5z"/>
	<path class="st3" d="M110.4,65.6c1.2,0,2,0.5,2.9,1.5l-0.7,0.5c-0.6-0.9-1.4-1.2-2.2-1.2c-0.8,0-1.3,0.3-1.3,0.9
		c0,0.6,0.6,0.8,1.4,0.9l0.6,0.1c1.4,0.2,2.3,0.6,2.3,1.7s-1,1.9-2.6,1.9c-1.7,0-2.6-1-3-1.9l0.8-0.4c0.4,1,1.2,1.5,2.2,1.5
		c1,0,1.6-0.4,1.6-1.1c0-0.6-0.7-0.8-1.5-0.9l-0.6-0.1c-1.3-0.2-2.2-0.6-2.2-1.7C108.1,66.2,109.2,65.6,110.4,65.6z"/>
	<path class="st3" d="M115.7,70.1c0.5,0,0.8,0.3,0.8,0.8v1.2c0,0.6-0.4,0.9-0.9,0.9h-0.7v-0.6h0.6c0.2,0,0.3-0.1,0.3-0.3v-0.4
		c0,0-0.1,0-0.2,0c-0.4,0-0.8-0.3-0.8-0.8C114.8,70.4,115.2,70.1,115.7,70.1z"/>
	<path class="st3" d="M18,86h-0.9v-1h-0.2c-0.3,0.6-0.9,1.2-2.1,1.2c-1.6,0-2.8-1.3-2.8-3.1s1.2-3.1,2.8-3.1c1.2,0,1.8,0.6,2.1,1.2
		h0.1v-3.5H18V86z M13,83.1c0,1.4,0.9,2.3,2.1,2.3c1.2,0,2.1-0.9,2.1-2.3c0-1.4-0.8-2.3-2.1-2.3C13.8,80.8,13,81.7,13,83.1z"/>
	<path class="st3" d="M20.7,77.6c0.4,0,0.8,0.3,0.8,0.8c0,0.4-0.3,0.8-0.8,0.8c-0.4,0-0.8-0.3-0.8-0.8
		C19.9,77.9,20.3,77.6,20.7,77.6z M21.2,86h-0.9v-5.9h0.9V86z"/>
	<path class="st3" d="M25.6,80c1.2,0,2,0.5,2.9,1.5L27.8,82c-0.6-0.9-1.4-1.2-2.2-1.2c-0.8,0-1.3,0.3-1.3,0.9c0,0.6,0.6,0.8,1.4,0.9
		l0.6,0.1c1.4,0.2,2.3,0.6,2.3,1.7c0,1.1-1,1.9-2.6,1.9c-1.7,0-2.6-1-3-1.9l0.8-0.4c0.4,1,1.2,1.5,2.2,1.5c1,0,1.6-0.4,1.6-1.1
		c0-0.6-0.7-0.8-1.5-0.9l-0.6-0.1c-1.3-0.2-2.2-0.6-2.2-1.7C23.4,80.6,24.4,80,25.6,80z"/>
	<path class="st3" d="M31.2,86h-0.9v-8.4h0.9V86z"/>
	<path class="st3" d="M34,77.6c0.4,0,0.8,0.3,0.8,0.8c0,0.4-0.3,0.8-0.8,0.8c-0.4,0-0.8-0.3-0.8-0.8C33.2,77.9,33.5,77.6,34,77.6z
		 M34.4,86h-0.9v-5.9h0.9V86z"/>
	<path class="st3" d="M39.6,82.5l2.7,3.6h-1.1l-2.2-3l-1.3,1.1V86h-0.9v-8.4h0.9v5.3h0.1l3.2-2.7h1.4L39.6,82.5z"/>
	<path class="st3" d="M46,80c1.7,0,2.8,1.2,2.8,2.9v0.5H44c0.1,1.2,0.9,2,2.1,2c1,0,1.5-0.5,1.8-1.2l0.8,0.4
		c-0.4,0.8-1.1,1.6-2.6,1.6c-1.8,0-3-1.4-3-3.1C43,81.3,44.3,80,46,80z M47.8,82.6c0-1.2-0.8-1.8-1.9-1.8c-1.1,0-1.8,0.7-2,1.8H47.8
		z"/>
	<path class="st3" d="M52.7,80c1.2,0,2,0.5,2.9,1.5L54.9,82c-0.6-0.9-1.4-1.2-2.2-1.2c-0.8,0-1.3,0.3-1.3,0.9c0,0.6,0.6,0.8,1.4,0.9
		l0.6,0.1c1.4,0.2,2.3,0.6,2.3,1.7c0,1.1-1,1.9-2.6,1.9c-1.7,0-2.6-1-3-1.9l0.8-0.4c0.4,1,1.2,1.5,2.2,1.5c1,0,1.6-0.4,1.6-1.1
		c0-0.6-0.7-0.8-1.5-0.9l-0.6-0.1c-1.3-0.2-2.2-0.6-2.2-1.7C50.4,80.6,51.5,80,52.7,80z"/>
	<path class="st3" d="M58,84.5c0.5,0,0.8,0.3,0.8,0.8v1.2c0,0.6-0.4,0.9-0.9,0.9h-0.7v-0.6h0.6c0.2,0,0.3-0.1,0.3-0.3v-0.4
		c0,0-0.1,0-0.2,0c-0.4,0-0.8-0.3-0.8-0.8C57.1,84.8,57.5,84.5,58,84.5z"/>
	<path class="st3" d="M67.1,80c1.2,0,2,0.5,2.9,1.5L69.3,82c-0.6-0.9-1.4-1.2-2.2-1.2c-0.8,0-1.3,0.3-1.3,0.9c0,0.6,0.6,0.8,1.4,0.9
		l0.6,0.1c1.4,0.2,2.3,0.6,2.3,1.7c0,1.1-1,1.9-2.6,1.9c-1.7,0-2.6-1-3-1.9l0.8-0.4c0.4,1,1.2,1.5,2.2,1.5c1,0,1.6-0.4,1.6-1.1
		c0-0.6-0.7-0.8-1.5-0.9l-0.6-0.1c-1.3-0.2-2.2-0.6-2.2-1.7C64.9,80.6,65.9,80,67.1,80z"/>
	<path class="st3" d="M74.5,80c1.7,0,3,1.3,3,3.1c0,1.8-1.2,3.1-3,3.1c-1.8,0-3-1.3-3-3.1C71.5,81.3,72.7,80,74.5,80z M74.5,85.3
		c1.2,0,2.1-0.9,2.1-2.3s-0.8-2.2-2.1-2.2c-1.2,0-2.1,0.9-2.1,2.2C72.4,84.5,73.2,85.3,74.5,85.3z"/>
	<path class="st3" d="M83.8,86v-1h-0.2c-0.3,0.6-0.9,1.2-2.1,1.2c-1.2,0-2.3-0.8-2.3-2.4v-3.6h0.9v3.5c0,1.1,0.6,1.7,1.6,1.7
		c1.2,0,1.9-0.7,1.9-2.1v-3h0.9V86H83.8z"/>
	<path class="st3" d="M87.9,81H88c0.2-0.6,0.7-0.9,1.5-0.9h0.7V81h-1c-0.9,0-1.4,0.5-1.4,1.5V86H87v-5.9h0.9V81z"/>
	<path class="st3" d="M94.2,80c1.5,0,2.6,1,2.8,2.3l-0.9,0.2c-0.1-0.9-0.8-1.6-1.9-1.6c-1.2,0-2.1,0.9-2.1,2.2
		c0,1.3,0.9,2.3,2.1,2.3c1.2,0,1.7-0.7,1.9-1.6l0.9,0.2c-0.2,1.2-1.2,2.3-2.8,2.3c-1.8,0-3-1.3-3-3.1S92.5,80,94.2,80z"/>
	<path class="st3" d="M101.4,80c1.7,0,2.8,1.2,2.8,2.9v0.5h-4.8c0.1,1.2,0.9,2,2.1,2c1,0,1.5-0.5,1.8-1.2l0.8,0.4
		c-0.4,0.8-1.1,1.6-2.6,1.6c-1.8,0-3-1.4-3-3.1C98.5,81.3,99.7,80,101.4,80z M103.3,82.6c0-1.2-0.8-1.8-1.9-1.8
		c-1.1,0-1.8,0.7-2,1.8H103.3z"/>
	<path class="st3" d="M15,94.4c1.6,0,2.5,0.9,2.5,2.3v3.7h-0.9v-1h-0.2c-0.3,0.6-0.9,1.2-2.2,1.2c-1.3,0-2.2-0.7-2.2-1.7
		c0-1.1,0.9-1.6,2.2-1.7l2.3-0.2v-0.2c0-0.9-0.6-1.5-1.7-1.5c-1.1,0-1.7,0.5-2,1.3l-0.8-0.4C12.6,95.2,13.6,94.4,15,94.4z
		 M14.4,99.8c1.4,0,2.2-0.8,2.2-2v-0.1l-2.2,0.2c-0.8,0.1-1.4,0.3-1.4,1C13,99.5,13.6,99.8,14.4,99.8z"/>
	<path class="st3" d="M20.7,94.6v1h0.2c0.3-0.6,0.9-1.1,2.1-1.1c1.2,0,2.3,0.8,2.3,2.4v3.5h-0.9v-3.5c0-1.1-0.6-1.7-1.6-1.7
		c-1.2,0-1.9,0.7-1.9,2.1v3h-0.9v-5.9H20.7z"/>
	<path class="st3" d="M33,100.4h-0.9v-1h-0.2c-0.3,0.6-0.9,1.2-2.1,1.2c-1.6,0-2.8-1.3-2.8-3.1s1.2-3.1,2.8-3.1
		c1.2,0,1.8,0.6,2.1,1.2h0.1V92H33V100.4z M27.9,97.5c0,1.4,0.9,2.3,2.1,2.3c1.2,0,2.1-0.9,2.1-2.3c0-1.4-0.8-2.3-2.1-2.3
		C28.8,95.2,27.9,96.1,27.9,97.5z"/>
	<path class="st3" d="M42.1,94.4c1.5,0,2.6,1,2.8,2.3L44,96.8c-0.1-0.9-0.8-1.6-1.9-1.6c-1.2,0-2.1,0.9-2.1,2.2
		c0,1.3,0.9,2.3,2.1,2.3c1.2,0,1.7-0.7,1.9-1.6l0.9,0.2c-0.2,1.2-1.2,2.3-2.8,2.3c-1.8,0-3-1.3-3-3.1S40.4,94.4,42.1,94.4z"/>
	<path class="st3" d="M49.4,94.4c1.7,0,3,1.3,3,3.1c0,1.8-1.2,3.1-3,3.1c-1.8,0-3-1.3-3-3.1C46.4,95.7,47.6,94.4,49.4,94.4z
		 M49.4,99.7c1.2,0,2.1-0.9,2.1-2.3s-0.8-2.2-2.1-2.2c-1.2,0-2.1,0.9-2.1,2.2C47.3,98.9,48.1,99.7,49.4,99.7z"/>
	<path class="st3" d="M55.2,94.6v0.8h0.2c0.3-0.5,0.9-0.9,1.7-0.9c0.9,0,1.4,0.4,1.7,1h0.2c0.3-0.6,0.9-1,1.8-1c1.1,0,2,0.8,2,1.9v4
		h-0.9v-3.9c0-0.7-0.5-1.2-1.3-1.2c-0.8,0-1.4,0.5-1.4,1.5v3.6H58v-3.9c0-0.7-0.5-1.2-1.3-1.2c-0.8,0-1.5,0.5-1.5,1.5v3.6h-0.9v-5.9
		H55.2z"/>
	<path class="st3" d="M65.7,94.6v0.8h0.2c0.3-0.5,0.9-0.9,1.7-0.9c0.9,0,1.4,0.4,1.7,1h0.2c0.3-0.6,0.9-1,1.8-1c1.1,0,2,0.8,2,1.9v4
		h-0.9v-3.9c0-0.7-0.5-1.2-1.3-1.2c-0.8,0-1.4,0.5-1.4,1.5v3.6h-0.9v-3.9c0-0.7-0.5-1.2-1.3-1.2c-0.8,0-1.5,0.5-1.5,1.5v3.6h-0.9
		v-5.9H65.7z"/>
	<path class="st3" d="M77.8,94.4c1.7,0,2.8,1.2,2.8,2.9v0.5h-4.8c0.1,1.2,0.9,2,2.1,2c1,0,1.5-0.5,1.8-1.2l0.8,0.4
		c-0.4,0.8-1.1,1.6-2.6,1.6c-1.8,0-3-1.4-3-3.1C74.9,95.7,76.2,94.4,77.8,94.4z M79.7,97c0-1.2-0.8-1.8-1.9-1.8
		c-1.1,0-1.8,0.7-2,1.8H79.7z"/>
	<path class="st3" d="M83.4,94.6v1h0.2c0.3-0.6,0.9-1.1,2.1-1.1c1.2,0,2.3,0.8,2.3,2.4v3.5H87v-3.5c0-1.1-0.6-1.7-1.6-1.7
		c-1.2,0-1.9,0.7-1.9,2.1v3h-0.9v-5.9H83.4z"/>
	<path class="st3" d="M91.1,94.6v-2.1H92v2.1h1.9v0.8H92v3.9c0,0.2,0.1,0.3,0.3,0.3h1.2v0.8H92c-0.5,0-0.9-0.4-0.9-0.9v-4.1h-1.8
		v-0.8H91.1z"/>
	<path class="st3" d="M97.7,94.4c1.2,0,2,0.5,2.9,1.5l-0.7,0.5c-0.6-0.9-1.4-1.2-2.2-1.2c-0.8,0-1.3,0.3-1.3,0.9
		c0,0.6,0.6,0.8,1.4,0.9l0.6,0.1c1.4,0.2,2.3,0.6,2.3,1.7c0,1.1-1,1.9-2.6,1.9c-1.7,0-2.6-1-3-1.9l0.8-0.4c0.4,1,1.2,1.5,2.2,1.5
		c1,0,1.6-0.4,1.6-1.1c0-0.6-0.7-0.8-1.5-0.9l-0.6-0.1c-1.3-0.2-2.2-0.6-2.2-1.7C95.5,95,96.5,94.4,97.7,94.4z"/>
</g>
<line class="st4" x1="348.2" y1="48.8" x2="415.7" y2="48.8"/>
<g>
	<path class="st5" d="M372.4,28.5v-3h-0.1c-0.3,0.5-0.8,1-1.9,1c-1.4,0-2.4-1.1-2.4-2.7s1.1-2.7,2.4-2.7c1.1,0,1.6,0.5,1.9,1h0.1
		v-0.9h0.8v7.3H372.4z M372.4,23.8c0-1.2-0.7-2-1.8-2c-1.1,0-1.8,0.8-1.8,2c0,1.3,0.8,2,1.8,2C371.7,25.8,372.4,25,372.4,23.8z"/>
	<path class="st5" d="M378.7,26.4v-0.9h-0.1c-0.3,0.5-0.8,1-1.8,1c-1.1,0-2-0.7-2-2.1v-3.1h0.8v3.1c0,1,0.5,1.5,1.4,1.5
		c1,0,1.7-0.7,1.7-1.9v-2.7h0.8v5.2H378.7z"/>
	<path class="st5" d="M383.3,21.1c1.5,0,2.5,1,2.5,2.6v0.4h-4.2c0.1,1.1,0.8,1.7,1.8,1.7c0.8,0,1.3-0.4,1.6-1l0.7,0.4
		c-0.4,0.7-1,1.4-2.3,1.4c-1.6,0-2.7-1.2-2.7-2.8C380.8,22.3,381.8,21.1,383.3,21.1z M385,23.4c0-1-0.7-1.6-1.6-1.6
		c-1,0-1.6,0.6-1.7,1.6H385z"/>
	<path class="st5" d="M387.8,22h0.1c0.2-0.5,0.6-0.8,1.3-0.8h0.6V22H389c-0.8,0-1.2,0.4-1.2,1.3v3.1H387v-5.2h0.8V22z"/>
	<path class="st5" d="M396.1,21.2l-3.1,7.3h-0.9l0.9-2l-2.2-5.2h0.9l1.7,4.1h0.1l1.7-4.1H396.1z"/>
	<path class="st6" d="M351.1,35v-2c0-0.7,0.4-1.2,1.1-1.2h1.8v1h-1.5c-0.3,0-0.4,0.1-0.4,0.4V35h2.2v1h-2.2v6.2h-1.1V36h-2.2v-1
		H351.1z"/>
	<path class="st6" d="M359.5,34.8c2.1,0,3.5,1.5,3.5,3.6V39h-5.9c0.1,1.5,1.1,2.4,2.5,2.4c1.2,0,1.8-0.6,2.2-1.4l1,0.5
		c-0.5,0.9-1.4,1.9-3.2,1.9c-2.2,0-3.7-1.7-3.7-3.9C355.9,36.5,357.4,34.8,359.5,34.8z M361.8,38.1c0-1.4-0.9-2.3-2.3-2.3
		c-1.4,0-2.3,0.8-2.4,2.3H361.8z"/>
	<path class="st6" d="M366.4,35v1h0.2c0.4-0.7,1.1-1.1,2-1.1c1.1,0,1.7,0.5,2.1,1.3h0.2c0.4-0.7,1.1-1.3,2.2-1.3
		c1.4,0,2.5,0.9,2.5,2.4v5h-1.1v-4.9c0-0.9-0.7-1.5-1.6-1.5c-1,0-1.8,0.7-1.8,1.9v4.5h-1.1v-4.9c0-0.9-0.6-1.5-1.6-1.5
		c-1,0-1.8,0.7-1.8,1.9v4.5h-1.1V35H366.4z"/>
	<path class="st6" d="M378.8,31.8c0.5,0,1,0.4,1,1s-0.4,1-1,1c-0.5,0-1-0.4-1-1S378.3,31.8,378.8,31.8z M379.4,42.3h-1.1V35h1.1
		V42.3z"/>
	<path class="st6" d="M383.3,35v1.3h0.2c0.4-0.7,1.1-1.4,2.5-1.4c1.5,0,2.9,1,2.9,3v4.4h-1.1V38c0-1.4-0.8-2.1-2-2.1
		c-1.4,0-2.4,0.9-2.4,2.6v3.7h-1.1V35H383.3z"/>
	<path class="st6" d="M392.1,31.8c0.5,0,1,0.4,1,1s-0.4,1-1,1c-0.5,0-1-0.4-1-1S391.6,31.8,392.1,31.8z M392.7,42.3h-1.1V35h1.1
		V42.3z"/>
	<path class="st6" d="M398.1,34.8c1.5,0,2.5,0.6,3.6,1.9l-0.9,0.6c-0.8-1.1-1.7-1.5-2.7-1.5c-0.9,0-1.6,0.4-1.6,1.1
		c0,0.8,0.8,0.9,1.7,1.1l0.7,0.1c1.7,0.3,2.9,0.7,2.9,2.1s-1.3,2.3-3.2,2.3c-2,0-3.2-1.2-3.7-2.4l1-0.5c0.5,1.2,1.5,1.9,2.8,1.9
		c1.2,0,2-0.5,2-1.3c0-0.8-0.9-0.9-1.9-1.1L398,39c-1.6-0.2-2.7-0.7-2.7-2.1C395.4,35.6,396.6,34.8,398.1,34.8z"/>
	<path class="st6" d="M405.1,35v1h0.2c0.4-0.7,1.1-1.1,2-1.1c1.1,0,1.7,0.5,2.1,1.3h0.2c0.4-0.7,1.1-1.3,2.2-1.3
		c1.4,0,2.5,0.9,2.5,2.4v5h-1.1v-4.9c0-0.9-0.7-1.5-1.6-1.5c-1,0-1.8,0.7-1.8,1.9v4.5h-1.1v-4.9c0-0.9-0.6-1.5-1.6-1.5
		c-1,0-1.8,0.7-1.8,1.9v4.5H404V35H405.1z"/>
</g>
<g>
	<line class="st7" x1="381.5" y1="65.5" x2="381.5" y2="79.3"/>
	<g>
		<polygon class="st6" points="377.1,75.8 377.9,75.1 381.5,78.9 385.1,75.1 385.8,75.8 381.5,80.5 		"/>
	</g>
</g>
<g>
	<path class="st1" d="M322.8,100.9c2.1,0,3.7,1.6,3.7,3.8c0,2.2-1.5,3.8-3.7,3.8c-2.2,0-3.7-1.6-3.7-3.8
		C319.1,102.5,320.6,100.9,322.8,100.9z M322.8,107.5c1.5,0,2.5-1.1,2.5-2.8s-1-2.8-2.5-2.8c-1.5,0-2.6,1.1-2.6,2.8
		C320.2,106.5,321.3,107.5,322.8,107.5z"/>
	<path class="st1" d="M329.9,102.2h0.2c0.3-0.7,0.8-1.1,1.9-1.1h0.9v1.1h-1.2c-1.1,0-1.7,0.6-1.7,1.8v4.4h-1.1v-7.2h1.1V102.2z"/>
	<path class="st1" d="M341.4,108.4h-1.1v-1.2h-0.2c-0.4,0.7-1.1,1.5-2.6,1.5c-1.9,0-3.4-1.6-3.4-3.8s1.5-3.8,3.4-3.8
		c1.5,0,2.2,0.7,2.6,1.4h0.2V98h1.1V108.4z M335.2,104.8c0,1.7,1.1,2.8,2.5,2.8c1.5,0,2.5-1.1,2.5-2.8c0-1.7-1-2.8-2.5-2.8
		C336.2,102,335.2,103,335.2,104.8z"/>
	<path class="st1" d="M347.3,100.9c2.1,0,3.5,1.5,3.5,3.6v0.6h-5.9c0.1,1.5,1.1,2.4,2.5,2.4c1.2,0,1.8-0.6,2.2-1.4l1,0.5
		c-0.5,0.9-1.4,1.9-3.2,1.9c-2.2,0-3.7-1.7-3.7-3.9C343.7,102.6,345.2,100.9,347.3,100.9z M349.6,104.2c0-1.4-0.9-2.3-2.3-2.3
		c-1.4,0-2.3,0.8-2.4,2.3H349.6z"/>
	<path class="st1" d="M354.2,102.2h0.2c0.3-0.7,0.8-1.1,1.9-1.1h0.9v1.1h-1.2c-1.1,0-1.7,0.6-1.7,1.8v4.4h-1.1v-7.2h1.1V102.2z"/>
	<path class="st6" d="M365.5,98v4.4h0.2c0.4-0.7,1.1-1.5,2.6-1.5c1.9,0,3.4,1.6,3.4,3.8s-1.5,3.8-3.4,3.8c-1.5,0-2.2-0.7-2.6-1.4
		h-0.2v1.2h-1.1V98H365.5z M365.5,104.8c0,1.7,1,2.8,2.5,2.8c1.5,0,2.5-1,2.5-2.8c0-1.7-1-2.8-2.5-2.8
		C366.5,102,365.5,103.1,365.5,104.8z"/>
	<path class="st6" d="M380.6,101.2l-4.4,10.2H375l1.3-2.9l-3.1-7.3h1.2l2.4,5.8h0.2l2.4-5.8H380.6z"/>
	<path class="st6" d="M389,101.2v1.3h0.2c0.4-0.7,1.1-1.4,2.5-1.4c1.5,0,2.9,1,2.9,3v4.4h-1.1v-4.3c0-1.4-0.8-2.1-2-2.1
		c-1.4,0-2.4,0.9-2.4,2.6v3.7h-1.1v-7.2H389z"/>
	<path class="st6" d="M402.7,108.4v-1.3h-0.2c-0.4,0.7-1.1,1.4-2.5,1.4c-1.5,0-2.8-1-2.8-3v-4.4h1.1v4.3c0,1.4,0.8,2.1,2,2.1
		c1.4,0,2.4-0.9,2.4-2.6v-3.7h1.1v7.2H402.7z"/>
	<path class="st6" d="M407.7,101.2v1h0.2c0.4-0.7,1.1-1.1,2-1.1c1.1,0,1.7,0.5,2.1,1.3h0.2c0.4-0.7,1.1-1.3,2.2-1.3
		c1.4,0,2.5,0.9,2.5,2.4v5h-1.1v-4.9c0-0.9-0.7-1.5-1.6-1.5c-1,0-1.8,0.7-1.8,1.9v4.5h-1.1v-4.9c0-0.9-0.6-1.5-1.6-1.5
		c-1,0-1.8,0.7-1.8,1.9v4.5h-1.1v-7.2H407.7z"/>
	<path class="st6" d="M420.8,98v4.4h0.2c0.4-0.7,1.1-1.5,2.6-1.5c1.9,0,3.4,1.6,3.4,3.8s-1.5,3.8-3.4,3.8c-1.5,0-2.2-0.7-2.6-1.4
		h-0.2v1.2h-1.1V98H420.8z M420.8,104.8c0,1.7,1,2.8,2.5,2.8c1.5,0,2.5-1,2.5-2.8c0-1.7-1-2.8-2.5-2.8
		C421.8,102,420.8,103.1,420.8,104.8z"/>
	<path class="st6" d="M432.4,100.9c2.1,0,3.5,1.5,3.5,3.6v0.6H430c0.1,1.5,1.1,2.4,2.5,2.4c1.2,0,1.8-0.6,2.2-1.4l1,0.5
		c-0.5,0.9-1.4,1.9-3.2,1.9c-2.2,0-3.7-1.7-3.7-3.9C428.8,102.6,430.4,100.9,432.4,100.9z M434.8,104.2c0-1.4-0.9-2.3-2.3-2.3
		c-1.4,0-2.3,0.8-2.4,2.3H434.8z"/>
	<path class="st6" d="M439.3,102.2h0.2c0.3-0.7,0.8-1.1,1.9-1.1h0.9v1.1H441c-1.1,0-1.7,0.6-1.7,1.8v4.4h-1.1v-7.2h1.1V102.2z"/>
	<path class="st6" d="M353.8,116.8c2.1,0,3.7,1.6,3.7,3.8c0,2.2-1.5,3.8-3.7,3.8c-2.2,0-3.7-1.6-3.7-3.8
		C350.1,118.4,351.6,116.8,353.8,116.8z M353.8,123.4c1.5,0,2.5-1.1,2.5-2.8s-1-2.8-2.5-2.8c-1.5,0-2.6,1.1-2.6,2.8
		C351.2,122.3,352.3,123.4,353.8,123.4z"/>
	<path class="st6" d="M361.1,117v-2c0-0.7,0.4-1.2,1.1-1.2h1.8v1h-1.5c-0.3,0-0.4,0.1-0.4,0.4v1.7h2.2v1h-2.2v6.2h-1.1V118h-2.2v-1
		H361.1z"/>
	<path class="st6" d="M372.2,117l2.3,6.1h0.2l2.3-6.1h1.2l-2.8,7.2h-1.6l-2.8-7.2H372.2z"/>
	<path class="st6" d="M380.7,113.8c0.5,0,1,0.4,1,1s-0.4,1-1,1c-0.5,0-1-0.4-1-1S380.2,113.8,380.7,113.8z M381.3,124.2h-1.1V117
		h1.1V124.2z"/>
	<path class="st6" d="M387.2,116.8c2.1,0,3.5,1.5,3.5,3.6v0.6h-5.9c0.1,1.5,1.1,2.4,2.5,2.4c1.2,0,1.8-0.6,2.2-1.4l1,0.5
		c-0.5,0.9-1.4,1.9-3.2,1.9c-2.2,0-3.7-1.7-3.7-3.9C383.6,118.4,385.1,116.8,387.2,116.8z M389.5,120.1c0-1.4-0.9-2.3-2.3-2.3
		c-1.4,0-2.3,0.8-2.4,2.3H389.5z"/>
	<path class="st6" d="M393.6,117l1.3,6h0.2l1.6-6h1.7l1.6,6h0.2l1.3-6h1.2l-1.7,7.2h-1.7l-1.6-6h-0.2l-1.6,6h-1.7l-1.7-7.2H393.6z"
		/>
	<path class="st6" d="M407.4,116.8c1.5,0,2.5,0.6,3.6,1.9l-0.9,0.6c-0.8-1.1-1.7-1.5-2.7-1.5c-0.9,0-1.6,0.4-1.6,1.1
		c0,0.8,0.8,0.9,1.7,1.1l0.7,0.1c1.7,0.3,2.9,0.7,2.9,2.1s-1.3,2.3-3.2,2.3c-2,0-3.2-1.2-3.7-2.4l1-0.5c0.5,1.2,1.5,1.9,2.8,1.9
		c1.2,0,2-0.5,2-1.3c0-0.8-0.9-0.9-1.9-1.1l-0.7-0.1c-1.6-0.2-2.7-0.7-2.7-2.1C404.7,117.6,405.9,116.8,407.4,116.8z"/>
</g>
<g>
	<line class="st7" x1="381.5" y1="143.7" x2="381.5" y2="157.5"/>
	<g>
		<polygon class="st6" points="377.1,154 377.9,153.3 381.5,157.1 385.1,153.3 385.8,154 381.5,158.7 		"/>
	</g>
</g>
<g>
	<line class="st7" x1="381.5" y1="226.8" x2="381.5" y2="240.6"/>
	<g>
		<polygon class="st6" points="377.1,237.1 377.9,236.4 381.5,240.2 385.1,236.4 385.8,237.1 381.5,241.8 		"/>
	</g>
</g>
<g>
	<path class="st1" d="M315.3,179.1c2.1,0,3.5,1.5,3.5,3.6v0.6h-5.9c0.1,1.5,1.1,2.4,2.5,2.4c1.2,0,1.8-0.6,2.2-1.4l1,0.5
		c-0.5,0.9-1.4,1.9-3.2,1.9c-2.2,0-3.7-1.7-3.7-3.9C311.7,180.8,313.2,179.1,315.3,179.1z M317.6,182.4c0-1.4-0.9-2.3-2.3-2.3
		c-1.4,0-2.3,0.8-2.4,2.3H317.6z"/>
	<path class="st1" d="M321.7,179.3l2.1,2.8h0.2l2.1-2.8h1.4l-2.8,3.5l2.9,3.7h-1.4l-2.2-3h-0.2l-2.2,3h-1.4l2.9-3.7l-2.8-3.5H321.7z
		"/>
	<path class="st1" d="M331.1,179.3v-2.6h1.1v2.6h2.3v1h-2.3v4.8c0,0.3,0.1,0.4,0.4,0.4h1.5v1h-1.9c-0.7,0-1.1-0.4-1.1-1.1v-5.1h-2.2
		v-1H331.1z"/>
	<path class="st1" d="M337.8,180.4h0.2c0.3-0.7,0.8-1.1,1.9-1.1h0.9v1.1h-1.2c-1.1,0-1.7,0.6-1.7,1.8v4.4h-1.1v-7.2h1.1V180.4z"/>
	<path class="st1" d="M345.9,179.1c2,0,3.1,1.1,3.1,2.9v4.6H348v-1.2h-0.2c-0.4,0.7-1.2,1.4-2.7,1.4c-1.6,0-2.7-0.8-2.7-2.1
		c0-1.3,1.1-2,2.8-2.1l2.9-0.3v-0.3c0-1.1-0.7-1.8-2-1.8c-1.3,0-2.1,0.7-2.5,1.6l-1-0.5C343,180.2,344.1,179.1,345.9,179.1z
		 M345.2,185.8c1.7,0,2.8-1,2.8-2.5v-0.1l-2.7,0.3c-1,0.1-1.8,0.4-1.8,1.2C343.5,185.4,344.2,185.8,345.2,185.8z"/>
	<path class="st1" d="M355.1,179.1c1.9,0,3.2,1.2,3.4,2.8l-1.1,0.2c-0.1-1.1-1-2-2.3-2c-1.5,0-2.6,1.1-2.6,2.8
		c0,1.6,1.1,2.8,2.6,2.8c1.5,0,2.1-0.9,2.3-2l1.1,0.2c-0.3,1.4-1.4,2.8-3.4,2.8c-2.2,0-3.8-1.6-3.8-3.8S352.9,179.1,355.1,179.1z"/>
	<path class="st1" d="M362,179.3v-2.6h1.1v2.6h2.3v1h-2.3v4.8c0,0.3,0.1,0.4,0.4,0.4h1.5v1h-1.9c-0.7,0-1.1-0.4-1.1-1.1v-5.1h-2.2
		v-1H362z"/>
	<path class="st6" d="M379.8,186.6h-1.1v-1.2h-0.2c-0.4,0.7-1.1,1.5-2.6,1.5c-1.9,0-3.4-1.6-3.4-3.8s1.5-3.8,3.4-3.8
		c1.5,0,2.2,0.7,2.6,1.4h0.2v-4.4h1.1V186.6z M373.5,182.9c0,1.7,1.1,2.8,2.5,2.8c1.5,0,2.5-1.1,2.5-2.8c0-1.7-1-2.8-2.5-2.8
		C374.6,180.1,373.5,181.2,373.5,182.9z"/>
	<path class="st6" d="M385.8,179.1c2,0,3.1,1.1,3.1,2.9v4.6h-1.1v-1.2h-0.2c-0.4,0.7-1.2,1.4-2.7,1.4c-1.6,0-2.7-0.8-2.7-2.1
		c0-1.3,1.1-2,2.8-2.1l2.9-0.3v-0.3c0-1.1-0.7-1.8-2-1.8c-1.3,0-2.1,0.7-2.5,1.6l-1-0.5C382.8,180.2,384,179.1,385.8,179.1z
		 M385,185.8c1.7,0,2.8-1,2.8-2.5v-0.1l-2.7,0.3c-1,0.1-1.8,0.4-1.8,1.2C383.3,185.4,384,185.8,385,185.8z"/>
	<path class="st6" d="M392.8,179.3v-2.6h1.1v2.6h2.3v1h-2.3v4.8c0,0.3,0.1,0.4,0.4,0.4h1.5v1h-1.9c-0.7,0-1.1-0.4-1.1-1.1v-5.1h-2.2
		v-1H392.8z"/>
	<path class="st6" d="M401.6,179.1c2,0,3.1,1.1,3.1,2.9v4.6h-1.1v-1.2h-0.2c-0.4,0.7-1.2,1.4-2.7,1.4c-1.6,0-2.7-0.8-2.7-2.1
		c0-1.3,1.1-2,2.8-2.1l2.9-0.3v-0.3c0-1.1-0.7-1.8-2-1.8c-1.3,0-2.1,0.7-2.5,1.6l-1-0.5C398.7,180.2,399.8,179.1,401.6,179.1z
		 M400.9,185.8c1.7,0,2.8-1,2.8-2.5v-0.1l-2.7,0.3c-1,0.1-1.8,0.4-1.8,1.2C399.2,185.4,399.9,185.8,400.9,185.8z"/>
	<path class="st1" d="M409.4,176.2v5.2h-1v-4h-0.1l-0.8,1.1h-1v-0.1l1.5-2.2H409.4z"/>
	<path class="st6" d="M418.5,179.3v-2c0-0.7,0.4-1.2,1.1-1.2h1.8v1H420c-0.3,0-0.4,0.1-0.4,0.4v1.7h2.2v1h-2.2v6.2h-1.1v-6.2h-2.2
		v-1H418.5z"/>
	<path class="st6" d="M424.9,180.4h0.2c0.3-0.7,0.8-1.1,1.9-1.1h0.9v1.1h-1.2c-1.1,0-1.7,0.6-1.7,1.8v4.4h-1.1v-7.2h1.1V180.4z"/>
	<path class="st6" d="M432.7,179.1c2.1,0,3.7,1.6,3.7,3.8s-1.5,3.8-3.7,3.8c-2.2,0-3.7-1.6-3.7-3.8S430.6,179.1,432.7,179.1z
		 M432.7,185.7c1.5,0,2.5-1.1,2.5-2.8c0-1.7-1-2.8-2.5-2.8c-1.5,0-2.6,1.1-2.6,2.8C430.2,184.7,431.2,185.7,432.7,185.7z"/>
	<path class="st6" d="M439.8,179.3v1h0.2c0.4-0.7,1.1-1.1,2-1.1c1.1,0,1.7,0.5,2.1,1.3h0.2c0.4-0.7,1.1-1.3,2.2-1.3
		c1.4,0,2.5,0.9,2.5,2.4v5h-1.1v-4.9c0-0.9-0.7-1.5-1.6-1.5c-1,0-1.8,0.7-1.8,1.9v4.5h-1.1v-4.9c0-0.9-0.6-1.5-1.6-1.5
		c-1,0-1.8,0.7-1.8,1.9v4.5h-1.1v-7.2H439.8z"/>
	<path class="st6" d="M309.9,195.2v-2.6h1.1v2.6h2.3v1H311v4.8c0,0.3,0.1,0.4,0.4,0.4h1.5v1H311c-0.7,0-1.1-0.4-1.1-1.1v-5.1h-2.2
		v-1H309.9z"/>
	<path class="st6" d="M316.7,192.1v4.4h0.2c0.4-0.7,1.1-1.4,2.5-1.4c1.5,0,2.9,1,2.9,3v4.4h-1.1v-4.3c0-1.4-0.8-2.1-2-2.1
		c-1.4,0-2.4,0.9-2.4,2.6v3.7h-1.1v-10.4H316.7z"/>
	<path class="st6" d="M328.1,195c2.1,0,3.5,1.5,3.5,3.6v0.6h-5.9c0.1,1.5,1.1,2.4,2.5,2.4c1.2,0,1.8-0.6,2.2-1.4l1,0.5
		c-0.5,0.9-1.4,1.9-3.2,1.9c-2.2,0-3.7-1.7-3.7-3.9C324.5,196.6,326,195,328.1,195z M330.4,198.2c0-1.4-0.9-2.3-2.3-2.3
		c-1.4,0-2.3,0.8-2.4,2.3H330.4z"/>
	<path class="st6" d="M345.8,195.2v7.2h-1.1v-6.2h-3.2v6.2h-1.1v-6.2h-2.2v-1h2.2v-2c0-0.7,0.4-1.2,1.1-1.2h1.7v1h-1.3
		c-0.3,0-0.4,0.1-0.4,0.4v1.7H345.8z M346.3,192.9c0,0.5-0.4,1-1,1c-0.6,0-1-0.4-1-1s0.4-1,1-1C345.8,192,346.3,192.4,346.3,192.9z"
		/>
	<path class="st6" d="M349.7,196.3h0.2c0.3-0.7,0.8-1.1,1.9-1.1h0.9v1.1h-1.2c-1.1,0-1.7,0.6-1.7,1.8v4.4h-1.1v-7.2h1.1V196.3z"/>
	<path class="st6" d="M357.2,195c1.5,0,2.5,0.6,3.6,1.9l-0.9,0.6c-0.8-1.1-1.7-1.5-2.7-1.5c-0.9,0-1.6,0.4-1.6,1.1
		c0,0.8,0.8,0.9,1.7,1.1l0.7,0.1c1.7,0.3,2.9,0.7,2.9,2.1c0,1.4-1.3,2.3-3.2,2.3c-2,0-3.2-1.2-3.7-2.4l1-0.5
		c0.5,1.2,1.5,1.9,2.8,1.9c1.2,0,2-0.5,2-1.3c0-0.8-0.9-0.9-1.9-1.1l-0.7-0.1c-1.6-0.2-2.7-0.7-2.7-2.1
		C354.4,195.7,355.7,195,357.2,195z"/>
	<path class="st6" d="M364.3,195.2v-2.6h1.1v2.6h2.3v1h-2.3v4.8c0,0.3,0.1,0.4,0.4,0.4h1.5v1h-1.9c-0.7,0-1.1-0.4-1.1-1.1v-5.1h-2.2
		v-1H364.3z"/>
	<path class="st6" d="M379,192.1l0,10.4h-1.2v-9.2h-0.2l-2.1,3.3h-1.4l3-4.5H379z"/>
	<path class="st6" d="M385.3,191.8c2.3,0,3.8,1.5,3.8,4.2v2.3c0,2.7-1.4,4.2-3.8,4.2c-2.4,0-3.8-1.5-3.8-4.2v-2.3
		C381.5,193.4,383,191.8,385.3,191.8z M382.7,198.4c0,2,0.9,3.1,2.6,3.1c1.7,0,2.6-1.1,2.6-3.1V196c0-2-0.9-3.1-2.6-3.1
		c-1.7,0-2.6,1.1-2.6,3.1V198.4z"/>
	<path class="st6" d="M395.1,191.8c2.3,0,3.8,1.5,3.8,4.2v2.3c0,2.7-1.4,4.2-3.8,4.2c-2.4,0-3.8-1.5-3.8-4.2v-2.3
		C391.3,193.4,392.8,191.8,395.1,191.8z M392.5,198.4c0,2,0.9,3.1,2.6,3.1c1.7,0,2.6-1.1,2.6-3.1V196c0-2-0.9-3.1-2.6-3.1
		c-1.7,0-2.6,1.1-2.6,3.1V198.4z"/>
	<path class="st6" d="M407.1,195.2l2.3,6.1h0.2l2.3-6.1h1.2l-2.8,7.2h-1.6l-2.8-7.2H407.1z"/>
	<path class="st6" d="M415.7,192c0.5,0,1,0.4,1,1s-0.4,1-1,1c-0.5,0-1-0.4-1-1S415.2,192,415.7,192z M416.3,202.4h-1.1v-7.2h1.1
		V202.4z"/>
	<path class="st6" d="M426,202.4h-1.1v-1.2h-0.2c-0.4,0.7-1.1,1.5-2.6,1.5c-1.9,0-3.4-1.6-3.4-3.8s1.5-3.8,3.4-3.8
		c1.5,0,2.2,0.7,2.6,1.4h0.2v-4.4h1.1V202.4z M419.8,198.8c0,1.7,1.1,2.8,2.5,2.8c1.5,0,2.5-1.1,2.5-2.8c0-1.7-1-2.8-2.5-2.8
		C420.8,196,419.8,197,419.8,198.8z"/>
	<path class="st6" d="M431.9,195c2.1,0,3.5,1.5,3.5,3.6v0.6h-5.9c0.1,1.5,1.1,2.4,2.5,2.4c1.2,0,1.8-0.6,2.2-1.4l1,0.5
		c-0.5,0.9-1.4,1.9-3.2,1.9c-2.2,0-3.7-1.7-3.7-3.9C428.3,196.6,429.8,195,431.9,195z M434.2,198.2c0-1.4-0.9-2.3-2.3-2.3
		c-1.4,0-2.3,0.8-2.4,2.3H434.2z"/>
	<path class="st6" d="M440.9,195c2.1,0,3.7,1.6,3.7,3.8s-1.5,3.8-3.7,3.8c-2.2,0-3.7-1.6-3.7-3.8S438.7,195,440.9,195z M440.9,201.6
		c1.5,0,2.5-1.1,2.5-2.8c0-1.7-1-2.8-2.5-2.8c-1.5,0-2.6,1.1-2.6,2.8C438.3,200.5,439.3,201.6,440.9,201.6z"/>
	<path class="st6" d="M449.4,195c1.5,0,2.5,0.6,3.6,1.9l-0.9,0.6c-0.8-1.1-1.7-1.5-2.7-1.5c-0.9,0-1.6,0.4-1.6,1.1
		c0,0.8,0.8,0.9,1.7,1.1l0.7,0.1c1.7,0.3,2.9,0.7,2.9,2.1c0,1.4-1.3,2.3-3.2,2.3c-2,0-3.2-1.2-3.7-2.4l1-0.5
		c0.5,1.2,1.5,1.9,2.8,1.9c1.2,0,2-0.5,2-1.3c0-0.8-0.9-0.9-1.9-1.1l-0.7-0.1c-1.6-0.2-2.7-0.7-2.7-2.1
		C446.7,195.7,447.9,195,449.4,195z"/>
</g>
<line class="st8" x1="670.9" y1="9.6" x2="670.9" y2="218.4"/>
<g>
	<g>
		<path class="st5" d="M686.4,99.2l2.4,4.6h0.2l2.4-4.6h2l-3.6,6.7v3.7h-1.7v-3.7l-3.6-6.7H686.4z"/>
		<path class="st5" d="M698.4,99c2.6,0,4.1,1.6,4.1,4.3v2.2c0,2.7-1.6,4.3-4.1,4.3c-2.6,0-4.1-1.6-4.1-4.3v-2.2
			C694.3,100.6,695.8,99,698.4,99z M696,105.6c0,1.7,0.8,2.6,2.4,2.6c1.7,0,2.4-1,2.4-2.6v-2.4c0-1.7-0.8-2.6-2.4-2.6
			c-1.6,0-2.4,1-2.4,2.6V105.6z"/>
		<path class="st5" d="M706.4,99.2v6.8c0,1.4,0.8,2.2,2.2,2.2c1.5,0,2.2-0.8,2.2-2.2v-6.8h1.7v6.8c0,2.4-1.4,3.8-4,3.8
			c-2.5,0-4-1.4-4-3.8v-6.8H706.4z"/>
		<path class="st5" d="M722.5,99.2v1.6h-3.2v8.8h-1.7v-8.8h-3.2v-1.6H722.5z"/>
		<path class="st5" d="M725.9,99.2v6.8c0,1.4,0.8,2.2,2.2,2.2c1.5,0,2.2-0.8,2.2-2.2v-6.8h1.7v6.8c0,2.4-1.4,3.8-4,3.8
			c-2.5,0-4-1.4-4-3.8v-6.8H725.9z"/>
		<path class="st5" d="M739.1,99.2c1.8,0,3.1,1,3.1,2.8c0,1.2-0.7,2-1.7,2.3v0.2c1,0.3,1.7,1.1,1.7,2.3c0,1.7-1.3,2.8-3.1,2.8h-4.5
			V99.2H739.1z M736.3,103.6h2.6c0.9,0,1.6-0.5,1.6-1.4c0-0.9-0.6-1.4-1.6-1.4h-2.6V103.6z M736.3,108h2.6c0.9,0,1.6-0.5,1.6-1.4
			c0-0.9-0.6-1.4-1.6-1.4h-2.6V108z"/>
		<path class="st5" d="M751,99.2v1.6h-5v2.8h4.6v1.6H746v2.9h5.1v1.6h-6.8V99.2H751z"/>
		<path class="st5" d="M687.5,116.9c1.5,0,2.5,1,2.5,2.6v0.4h-4.2c0.1,1.1,0.8,1.7,1.8,1.7c0.8,0,1.3-0.4,1.6-1l0.7,0.4
			c-0.4,0.7-1,1.4-2.3,1.4c-1.6,0-2.7-1.2-2.7-2.8C684.9,118.1,686,116.9,687.5,116.9z M689.1,119.3c0-1-0.7-1.6-1.7-1.6
			c-1,0-1.6,0.6-1.7,1.6H689.1z"/>
		<path class="st5" d="M692.4,117.1v0.9h0.1c0.3-0.5,0.8-1,1.8-1c1.1,0,2,0.7,2,2.1v3.1h-0.8v-3.1c0-1-0.6-1.5-1.4-1.5
			c-1,0-1.7,0.7-1.7,1.9v2.7h-0.8v-5.2H692.4z"/>
		<path class="st5" d="M703.2,117.1v5c0,1.4-1,2.5-2.5,2.5c-1.4,0-2.2-0.7-2.7-1.4l0.7-0.4c0.3,0.6,0.9,1.1,1.9,1.1
			c1,0,1.8-0.6,1.8-1.8v-0.8h-0.1c-0.3,0.5-0.8,1-1.9,1c-1.4,0-2.4-1.1-2.4-2.7s1.1-2.7,2.4-2.7c1.1,0,1.6,0.5,1.9,1h0.1v-0.9H703.2
			z M702.4,119.6c0-1.2-0.7-1.9-1.8-1.9c-1.1,0-1.8,0.7-1.8,1.9c0,1.2,0.8,1.9,1.8,1.9C701.7,121.6,702.4,120.8,702.4,119.6z"/>
		<path class="st5" d="M706,122.3h-0.8v-7.4h0.8V122.3z"/>
		<path class="st5" d="M708.4,114.8c0.4,0,0.7,0.3,0.7,0.7c0,0.4-0.3,0.7-0.7,0.7s-0.7-0.3-0.7-0.7
			C707.7,115.1,708,114.8,708.4,114.8z M708.8,122.3H708v-5.2h0.8V122.3z"/>
		<path class="st5" d="M712.7,116.9c1,0,1.8,0.4,2.6,1.4l-0.6,0.4c-0.5-0.8-1.2-1.1-1.9-1.1c-0.7,0-1.2,0.3-1.2,0.8
			c0,0.6,0.6,0.7,1.2,0.8l0.5,0.1c1.2,0.2,2,0.5,2,1.5s-0.9,1.7-2.3,1.7c-1.5,0-2.3-0.9-2.7-1.7l0.7-0.4c0.3,0.9,1,1.4,2,1.4
			c0.8,0,1.4-0.4,1.4-0.9c0-0.6-0.6-0.7-1.3-0.8l-0.5-0.1c-1.1-0.2-1.9-0.5-1.9-1.5C710.7,117.5,711.6,116.9,712.7,116.9z"/>
		<path class="st5" d="M717.7,114.9v3.2h0.1c0.3-0.5,0.8-1,1.8-1c1.1,0,2,0.7,2,2.1v3.1h-0.8v-3.1c0-1-0.5-1.5-1.4-1.5
			c-1,0-1.7,0.7-1.7,1.9v2.7h-0.8v-7.4H717.7z"/>
		<path class="st5" d="M728.1,122.3h-0.8v-7.4h0.8V122.3z"/>
		<path class="st5" d="M732.4,116.9c1.4,0,2.2,0.8,2.2,2.1v3.3h-0.8v-0.9h-0.1c-0.3,0.5-0.8,1-1.9,1c-1.1,0-1.9-0.6-1.9-1.5
			c0-0.9,0.8-1.4,2-1.5l2-0.2V119c0-0.8-0.5-1.3-1.5-1.3c-0.9,0-1.5,0.5-1.8,1.2l-0.7-0.3C730.3,117.7,731.1,116.9,732.4,116.9z
			 M731.9,121.7c1.2,0,2-0.7,2-1.8v-0.1l-1.9,0.2c-0.7,0.1-1.3,0.3-1.3,0.9C730.7,121.4,731.2,121.7,731.9,121.7z"/>
		<path class="st5" d="M737.4,117.1v0.9h0.1c0.3-0.5,0.8-1,1.8-1c1.1,0,2,0.7,2,2.1v3.1h-0.8v-3.1c0-1-0.6-1.5-1.4-1.5
			c-1,0-1.7,0.7-1.7,1.9v2.7h-0.8v-5.2H737.4z"/>
		<path class="st5" d="M748.2,117.1v5c0,1.4-1,2.5-2.5,2.5c-1.4,0-2.2-0.7-2.7-1.4l0.7-0.4c0.3,0.6,0.9,1.1,1.9,1.1
			c1,0,1.8-0.6,1.8-1.8v-0.8h-0.1c-0.3,0.5-0.8,1-1.9,1c-1.4,0-2.4-1.1-2.4-2.7s1.1-2.7,2.4-2.7c1.1,0,1.6,0.5,1.9,1h0.1v-0.9H748.2
			z M747.4,119.6c0-1.2-0.7-1.9-1.8-1.9c-1.1,0-1.8,0.7-1.8,1.9c0,1.2,0.8,1.9,1.8,1.9C746.7,121.6,747.4,120.8,747.4,119.6z"/>
		<path class="st5" d="M754.2,122.3v-0.9H754c-0.3,0.5-0.8,1-1.8,1c-1.1,0-2-0.7-2-2.1v-3.1h0.8v3.1c0,1,0.6,1.5,1.4,1.5
			c1,0,1.7-0.7,1.7-1.9v-2.7h0.8v5.2H754.2z"/>
		<path class="st5" d="M759.3,116.9c1.4,0,2.2,0.8,2.2,2.1v3.3h-0.8v-0.9h-0.1c-0.3,0.5-0.8,1-1.9,1c-1.1,0-1.9-0.6-1.9-1.5
			c0-0.9,0.8-1.4,2-1.5l2-0.2V119c0-0.8-0.5-1.3-1.5-1.3c-0.9,0-1.5,0.5-1.8,1.2l-0.7-0.3C757.1,117.7,758,116.9,759.3,116.9z
			 M758.7,121.7c1.2,0,2-0.7,2-1.8v-0.1l-1.9,0.2c-0.7,0.1-1.3,0.3-1.3,0.9C757.5,121.4,758,121.7,758.7,121.7z"/>
		<path class="st5" d="M768.4,117.1v5c0,1.4-1,2.5-2.5,2.5c-1.4,0-2.2-0.7-2.7-1.4l0.7-0.4c0.3,0.6,0.9,1.1,1.9,1.1
			c1,0,1.8-0.6,1.8-1.8v-0.8h-0.1c-0.3,0.5-0.8,1-1.9,1c-1.4,0-2.4-1.1-2.4-2.7s1.1-2.7,2.4-2.7c1.1,0,1.6,0.5,1.9,1h0.1v-0.9H768.4
			z M767.6,119.6c0-1.2-0.7-1.9-1.8-1.9c-1.1,0-1.8,0.7-1.8,1.9c0,1.2,0.8,1.9,1.8,1.9C766.8,121.6,767.6,120.8,767.6,119.6z"/>
		<path class="st5" d="M772.6,116.9c1.5,0,2.5,1,2.5,2.6v0.4h-4.2c0.1,1.1,0.8,1.7,1.8,1.7c0.8,0,1.3-0.4,1.6-1l0.7,0.4
			c-0.4,0.7-1,1.4-2.3,1.4c-1.6,0-2.7-1.2-2.7-2.8C770,118.1,771.1,116.9,772.6,116.9z M774.3,119.3c0-1-0.7-1.6-1.7-1.6
			c-1,0-1.6,0.6-1.7,1.6H774.3z"/>
	</g>
	<g>
		<path class="st9" d="M686.4,99.2l2.4,4.6h0.2l2.4-4.6h2l-3.6,6.7v3.7h-1.7v-3.7l-3.6-6.7H686.4z"/>
		<path class="st9" d="M698.4,99c2.6,0,4.1,1.6,4.1,4.3v2.2c0,2.7-1.6,4.3-4.1,4.3c-2.6,0-4.1-1.6-4.1-4.3v-2.2
			C694.3,100.6,695.8,99,698.4,99z M696,105.6c0,1.7,0.8,2.6,2.4,2.6c1.7,0,2.4-1,2.4-2.6v-2.4c0-1.7-0.8-2.6-2.4-2.6
			c-1.6,0-2.4,1-2.4,2.6V105.6z"/>
		<path class="st9" d="M706.4,99.2v6.8c0,1.4,0.8,2.2,2.2,2.2c1.5,0,2.2-0.8,2.2-2.2v-6.8h1.7v6.8c0,2.4-1.4,3.8-4,3.8
			c-2.5,0-4-1.4-4-3.8v-6.8H706.4z"/>
		<path class="st9" d="M722.5,99.2v1.6h-3.2v8.8h-1.7v-8.8h-3.2v-1.6H722.5z"/>
		<path class="st9" d="M725.9,99.2v6.8c0,1.4,0.8,2.2,2.2,2.2c1.5,0,2.2-0.8,2.2-2.2v-6.8h1.7v6.8c0,2.4-1.4,3.8-4,3.8
			c-2.5,0-4-1.4-4-3.8v-6.8H725.9z"/>
		<path class="st9" d="M739.1,99.2c1.8,0,3.1,1,3.1,2.8c0,1.2-0.7,2-1.7,2.3v0.2c1,0.3,1.7,1.1,1.7,2.3c0,1.7-1.3,2.8-3.1,2.8h-4.5
			V99.2H739.1z M736.3,103.6h2.6c0.9,0,1.6-0.5,1.6-1.4c0-0.9-0.6-1.4-1.6-1.4h-2.6V103.6z M736.3,108h2.6c0.9,0,1.6-0.5,1.6-1.4
			c0-0.9-0.6-1.4-1.6-1.4h-2.6V108z"/>
		<path class="st9" d="M751,99.2v1.6h-5v2.8h4.6v1.6H746v2.9h5.1v1.6h-6.8V99.2H751z"/>
		<path class="st9" d="M687.5,116.9c1.5,0,2.5,1,2.5,2.6v0.4h-4.2c0.1,1.1,0.8,1.7,1.8,1.7c0.8,0,1.3-0.4,1.6-1l0.7,0.4
			c-0.4,0.7-1,1.4-2.3,1.4c-1.6,0-2.7-1.2-2.7-2.8C684.9,118.1,686,116.9,687.5,116.9z M689.1,119.3c0-1-0.7-1.6-1.7-1.6
			c-1,0-1.6,0.6-1.7,1.6H689.1z"/>
		<path class="st9" d="M692.4,117.1v0.9h0.1c0.3-0.5,0.8-1,1.8-1c1.1,0,2,0.7,2,2.1v3.1h-0.8v-3.1c0-1-0.6-1.5-1.4-1.5
			c-1,0-1.7,0.7-1.7,1.9v2.7h-0.8v-5.2H692.4z"/>
		<path class="st9" d="M703.2,117.1v5c0,1.4-1,2.5-2.5,2.5c-1.4,0-2.2-0.7-2.7-1.4l0.7-0.4c0.3,0.6,0.9,1.1,1.9,1.1
			c1,0,1.8-0.6,1.8-1.8v-0.8h-0.1c-0.3,0.5-0.8,1-1.9,1c-1.4,0-2.4-1.1-2.4-2.7s1.1-2.7,2.4-2.7c1.1,0,1.6,0.5,1.9,1h0.1v-0.9H703.2
			z M702.4,119.6c0-1.2-0.7-1.9-1.8-1.9c-1.1,0-1.8,0.7-1.8,1.9c0,1.2,0.8,1.9,1.8,1.9C701.7,121.6,702.4,120.8,702.4,119.6z"/>
		<path class="st9" d="M706,122.3h-0.8v-7.4h0.8V122.3z"/>
		<path class="st9" d="M708.4,114.8c0.4,0,0.7,0.3,0.7,0.7c0,0.4-0.3,0.7-0.7,0.7s-0.7-0.3-0.7-0.7
			C707.7,115.1,708,114.8,708.4,114.8z M708.8,122.3H708v-5.2h0.8V122.3z"/>
		<path class="st9" d="M712.7,116.9c1,0,1.8,0.4,2.6,1.4l-0.6,0.4c-0.5-0.8-1.2-1.1-1.9-1.1c-0.7,0-1.2,0.3-1.2,0.8
			c0,0.6,0.6,0.7,1.2,0.8l0.5,0.1c1.2,0.2,2,0.5,2,1.5s-0.9,1.7-2.3,1.7c-1.5,0-2.3-0.9-2.7-1.7l0.7-0.4c0.3,0.9,1,1.4,2,1.4
			c0.8,0,1.4-0.4,1.4-0.9c0-0.6-0.6-0.7-1.3-0.8l-0.5-0.1c-1.1-0.2-1.9-0.5-1.9-1.5C710.7,117.5,711.6,116.9,712.7,116.9z"/>
		<path class="st9" d="M717.7,114.9v3.2h0.1c0.3-0.5,0.8-1,1.8-1c1.1,0,2,0.7,2,2.1v3.1h-0.8v-3.1c0-1-0.5-1.5-1.4-1.5
			c-1,0-1.7,0.7-1.7,1.9v2.7h-0.8v-7.4H717.7z"/>
		<path class="st9" d="M728.1,122.3h-0.8v-7.4h0.8V122.3z"/>
		<path class="st9" d="M732.4,116.9c1.4,0,2.2,0.8,2.2,2.1v3.3h-0.8v-0.9h-0.1c-0.3,0.5-0.8,1-1.9,1c-1.1,0-1.9-0.6-1.9-1.5
			c0-0.9,0.8-1.4,2-1.5l2-0.2V119c0-0.8-0.5-1.3-1.5-1.3c-0.9,0-1.5,0.5-1.8,1.2l-0.7-0.3C730.3,117.7,731.1,116.9,732.4,116.9z
			 M731.9,121.7c1.2,0,2-0.7,2-1.8v-0.1l-1.9,0.2c-0.7,0.1-1.3,0.3-1.3,0.9C730.7,121.4,731.2,121.7,731.9,121.7z"/>
		<path class="st9" d="M737.4,117.1v0.9h0.1c0.3-0.5,0.8-1,1.8-1c1.1,0,2,0.7,2,2.1v3.1h-0.8v-3.1c0-1-0.6-1.5-1.4-1.5
			c-1,0-1.7,0.7-1.7,1.9v2.7h-0.8v-5.2H737.4z"/>
		<path class="st9" d="M748.2,117.1v5c0,1.4-1,2.5-2.5,2.5c-1.4,0-2.2-0.7-2.7-1.4l0.7-0.4c0.3,0.6,0.9,1.1,1.9,1.1
			c1,0,1.8-0.6,1.8-1.8v-0.8h-0.1c-0.3,0.5-0.8,1-1.9,1c-1.4,0-2.4-1.1-2.4-2.7s1.1-2.7,2.4-2.7c1.1,0,1.6,0.5,1.9,1h0.1v-0.9H748.2
			z M747.4,119.6c0-1.2-0.7-1.9-1.8-1.9c-1.1,0-1.8,0.7-1.8,1.9c0,1.2,0.8,1.9,1.8,1.9C746.7,121.6,747.4,120.8,747.4,119.6z"/>
		<path class="st9" d="M754.2,122.3v-0.9H754c-0.3,0.5-0.8,1-1.8,1c-1.1,0-2-0.7-2-2.1v-3.1h0.8v3.1c0,1,0.6,1.5,1.4,1.5
			c1,0,1.7-0.7,1.7-1.9v-2.7h0.8v5.2H754.2z"/>
		<path class="st9" d="M759.3,116.9c1.4,0,2.2,0.8,2.2,2.1v3.3h-0.8v-0.9h-0.1c-0.3,0.5-0.8,1-1.9,1c-1.1,0-1.9-0.6-1.9-1.5
			c0-0.9,0.8-1.4,2-1.5l2-0.2V119c0-0.8-0.5-1.3-1.5-1.3c-0.9,0-1.5,0.5-1.8,1.2l-0.7-0.3C757.1,117.7,758,116.9,759.3,116.9z
			 M758.7,121.7c1.2,0,2-0.7,2-1.8v-0.1l-1.9,0.2c-0.7,0.1-1.3,0.3-1.3,0.9C757.5,121.4,758,121.7,758.7,121.7z"/>
		<path class="st9" d="M768.4,117.1v5c0,1.4-1,2.5-2.5,2.5c-1.4,0-2.2-0.7-2.7-1.4l0.7-0.4c0.3,0.6,0.9,1.1,1.9,1.1
			c1,0,1.8-0.6,1.8-1.8v-0.8h-0.1c-0.3,0.5-0.8,1-1.9,1c-1.4,0-2.4-1.1-2.4-2.7s1.1-2.7,2.4-2.7c1.1,0,1.6,0.5,1.9,1h0.1v-0.9H768.4
			z M767.6,119.6c0-1.2-0.7-1.9-1.8-1.9c-1.1,0-1.8,0.7-1.8,1.9c0,1.2,0.8,1.9,1.8,1.9C766.8,121.6,767.6,120.8,767.6,119.6z"/>
		<path class="st9" d="M772.6,116.9c1.5,0,2.5,1,2.5,2.6v0.4h-4.2c0.1,1.1,0.8,1.7,1.8,1.7c0.8,0,1.3-0.4,1.6-1l0.7,0.4
			c-0.4,0.7-1,1.4-2.3,1.4c-1.6,0-2.7-1.2-2.7-2.8C770,118.1,771.1,116.9,772.6,116.9z M774.3,119.3c0-1-0.7-1.6-1.7-1.6
			c-1,0-1.6,0.6-1.7,1.6H774.3z"/>
	</g>
</g>
<g>
	<g>
		<path class="st5" d="M688.8,345.6c2.7,0,4.2,1.3,4.2,4.1v2.1c0,2.8-1.5,4.1-4.2,4.1h-3.4v-10.4H688.8z M687.1,354.4h1.7
			c1.7,0,2.5-0.8,2.5-2.5v-2.2c0-1.7-0.8-2.5-2.5-2.5h-1.7V354.4z"/>
		<path class="st5" d="M702.1,345.6v1.5l-3,2.5v0.2h0.4c1.5,0,2.8,1.1,2.8,2.9c0,2.1-1.6,3.4-3.8,3.4c-2.4,0-3.9-1.5-3.9-3.5v-0.6
			h1.7v0.5c0,1.2,0.8,2,2.2,2c1.3,0,2.1-0.8,2.1-1.9c0-1.1-0.8-1.7-1.8-1.7H697v-1.6l2.7-2.3h-4.8v-1.6H702.1z"/>
		<path class="st5" d="M705.3,353.6c0.7,0,1.3,0.5,1.3,1.3s-0.6,1.3-1.3,1.3c-0.7,0-1.3-0.5-1.3-1.3S704.6,353.6,705.3,353.6z"/>
		<path class="st5" d="M715,352.9c0,2.1-1.2,3.3-3.3,3.3c-2.2,0-3.5-1.2-3.5-3.3V352h1.7v0.9c0,1.1,0.6,1.7,1.7,1.7
			c1.1,0,1.6-0.7,1.6-1.7v-7.3h1.7V352.9z"/>
		<path class="st5" d="M724.8,348.7v0.5h-1.7v-0.3c0-1.3-0.8-1.9-2.1-1.9c-1.1,0-1.8,0.6-1.8,1.4c0,1,0.8,1.2,2.1,1.5l0.4,0.1
			c2,0.4,3.2,1.2,3.2,3.1c0,2-1.6,3.2-3.8,3.2c-2.5,0-4.1-1.4-4.1-3.8V352h1.7v0.3c0,1.5,0.8,2.3,2.5,2.3c1.3,0,2-0.7,2-1.6
			c0-0.9-0.7-1.3-2.1-1.6l-0.4-0.1c-2-0.4-3.3-1.2-3.3-3.1c0-1.8,1.6-2.9,3.5-2.9C723.1,345.4,724.8,346.6,724.8,348.7z"/>
	</g>
	<g>
		<path class="st9" d="M688.8,345.6c2.7,0,4.2,1.3,4.2,4.1v2.1c0,2.8-1.5,4.1-4.2,4.1h-3.4v-10.4H688.8z M687.1,354.4h1.7
			c1.7,0,2.5-0.8,2.5-2.5v-2.2c0-1.7-0.8-2.5-2.5-2.5h-1.7V354.4z"/>
		<path class="st9" d="M702.1,345.6v1.5l-3,2.5v0.2h0.4c1.5,0,2.8,1.1,2.8,2.9c0,2.1-1.6,3.4-3.8,3.4c-2.4,0-3.9-1.5-3.9-3.5v-0.6
			h1.7v0.5c0,1.2,0.8,2,2.2,2c1.3,0,2.1-0.8,2.1-1.9c0-1.1-0.8-1.7-1.8-1.7H697v-1.6l2.7-2.3h-4.8v-1.6H702.1z"/>
		<path class="st9" d="M705.3,353.6c0.7,0,1.3,0.5,1.3,1.3s-0.6,1.3-1.3,1.3c-0.7,0-1.3-0.5-1.3-1.3S704.6,353.6,705.3,353.6z"/>
		<path class="st9" d="M715,352.9c0,2.1-1.2,3.3-3.3,3.3c-2.2,0-3.5-1.2-3.5-3.3V352h1.7v0.9c0,1.1,0.6,1.7,1.7,1.7
			c1.1,0,1.6-0.7,1.6-1.7v-7.3h1.7V352.9z"/>
		<path class="st9" d="M724.8,348.7v0.5h-1.7v-0.3c0-1.3-0.8-1.9-2.1-1.9c-1.1,0-1.8,0.6-1.8,1.4c0,1,0.8,1.2,2.1,1.5l0.4,0.1
			c2,0.4,3.2,1.2,3.2,3.1c0,2-1.6,3.2-3.8,3.2c-2.5,0-4.1-1.4-4.1-3.8V352h1.7v0.3c0,1.5,0.8,2.3,2.5,2.3c1.3,0,2-0.7,2-1.6
			c0-0.9-0.7-1.3-2.1-1.6l-0.4-0.1c-2-0.4-3.3-1.2-3.3-3.1c0-1.8,1.6-2.9,3.5-2.9C723.1,345.4,724.8,346.6,724.8,348.7z"/>
	</g>
</g>
<g>
	<rect x="11.5" y="252.2" class="st1" width="134.6" height="22.2"/>
	<g>
		<path class="st2" d="M23.1,259.2c2.3,0,3.6,1.2,3.6,3.5v1.8c0,2.3-1.3,3.5-3.6,3.5h-2.9v-8.9h2.9V259.2z M21.6,266.8H23
			c1.5,0,2.1-0.7,2.1-2.2v-1.9c0-1.5-0.6-2.2-2.1-2.2h-1.4V266.8z"/>
		<path class="st2" d="M32.6,259.2l2.7,8.9h-1.6l-0.6-2h-3.4l-0.6,2h-1.6l2.7-8.9H32.6z M32.7,264.8l-1.3-4.2h-0.1l-1.3,4.2H32.7z"
			/>
		<path class="st2" d="M42.3,259.2v1.4h-2.8v7.5H38v-7.5h-2.8v-1.4H42.3z"/>
		<path class="st2" d="M47.4,259.2l2.7,8.9h-1.6l-0.6-2h-3.4l-0.6,2h-1.6l2.7-8.9H47.4z M47.5,264.8l-1.3-4.2h-0.1l-1.3,4.2H47.5z"
			/>
		<path class="st2" d="M61.3,259.2v1.4H57v2.4h4v1.4h-3.9v2.4h4.3v1.4h-5.8v-8.9h5.7V259.2z"/>
		<path class="st2" d="M64.2,259.2l2,3.4h0.2l1.9-3.4H70l-2.5,4.3v0.2l2.5,4.5h-1.7l-2-3.4h-0.2l-2,3.4h-1.7l2.7-4.5v-0.2l-2.5-4.3
			H64.2z"/>
		<path class="st2" d="M75.1,259.2c1.7,0,2.8,1.1,2.8,2.8c0,1.7-1.2,2.8-2.8,2.8H73v3.4h-1.4v-8.9L75.1,259.2L75.1,259.2z
			 M73.1,263.4H75c1,0,1.5-0.5,1.5-1.4s-0.5-1.4-1.5-1.4h-1.9V263.4z"/>
		<path class="st2" d="M81,259.2v7.5h4.2v1.4h-5.7v-8.9L81,259.2L81,259.2z"/>
		<path class="st2" d="M90.1,259c2.2,0,3.6,1.4,3.6,3.7v1.9c0,2.3-1.4,3.7-3.6,3.7s-3.6-1.4-3.6-3.7v-1.9
			C86.5,260.4,87.9,259,90.1,259z M88,264.6c0,1.4,0.6,2.2,2.1,2.2c1.5,0,2.1-0.8,2.1-2.2v-2c0-1.4-0.7-2.2-2.1-2.2
			s-2.1,0.8-2.1,2.2V264.6z"/>
		<path class="st2" d="M100,264.5l1.9,3.6h-1.7l-1.8-3.5h-1.6v3.5h-1.5v-8.9h3.8c1.7,0,2.8,1.1,2.8,2.8
			C102.1,263.3,101.2,264.2,100,264.5z M96.9,263.3h2.2c1,0,1.5-0.5,1.5-1.4c0-0.8-0.5-1.4-1.5-1.4h-2.2V263.3z"/>
		<path class="st2" d="M108,259.2l2.7,8.9h-1.6l-0.6-2H105l-0.6,2h-1.6l2.7-8.9H108z M108.1,264.8l-1.3-4.2h-0.1l-1.3,4.2H108.1z"/>
		<path class="st2" d="M117.7,259.2v1.4H115v7.5h-1.5v-7.5h-2.8v-1.4H117.7z"/>
		<path class="st2" d="M120.7,259.2v8.9h-1.5v-8.9H120.7z"/>
		<path class="st2" d="M126.1,259c2.2,0,3.6,1.4,3.6,3.7v1.9c0,2.3-1.4,3.7-3.6,3.7c-2.2,0-3.6-1.4-3.6-3.7v-1.9
			C122.5,260.4,123.9,259,126.1,259z M124,264.6c0,1.4,0.6,2.2,2.1,2.2c1.5,0,2.1-0.8,2.1-2.2v-2c0-1.4-0.7-2.2-2.1-2.2
			s-2.1,0.8-2.1,2.2V264.6z"/>
		<path class="st2" d="M134.2,259.2l2.4,7.5h0.1v-7.5h1.5v8.9h-2.7l-2.4-7.5H133v7.5h-1.5v-8.9H134.2z"/>
	</g>
</g>
<g>
	<path class="st1" d="M275.8,263.7c1.9,0,3.2,1.2,3.5,2.8l-1.1,0.2c-0.1-1.1-1-2-2.3-2c-1.5,0-2.6,1.1-2.6,2.8
		c0,1.6,1.1,2.8,2.6,2.8c1.5,0,2.1-0.9,2.3-2l1.1,0.2c-0.3,1.4-1.4,2.8-3.5,2.8c-2.2,0-3.8-1.6-3.8-3.8
		C272.1,265.3,273.7,263.7,275.8,263.7z"/>
	<path class="st1" d="M282.7,271.1h-1.1v-10.4h1.1V271.1z"/>
	<path class="st1" d="M291,271.1v-1.3h-0.2c-0.4,0.7-1.1,1.4-2.5,1.4c-1.5,0-2.9-1-2.9-3v-4.4h1.1v4.3c0,1.4,0.8,2.1,2,2.1
		c1.4,0,2.4-0.9,2.4-2.6v-3.7h1.1v7.2H291z"/>
	<path class="st1" d="M297.5,263.7c1.5,0,2.5,0.6,3.6,1.9l-0.9,0.6c-0.8-1.1-1.7-1.5-2.7-1.5c-0.9,0-1.6,0.4-1.6,1.1
		c0,0.8,0.8,0.9,1.7,1.1l0.7,0.1c1.7,0.3,2.9,0.7,2.9,2.1s-1.3,2.3-3.2,2.3c-2,0-3.2-1.2-3.8-2.4l1-0.5c0.5,1.2,1.5,1.9,2.8,1.9
		c1.2,0,2-0.5,2-1.3c0-0.8-0.9-0.9-1.9-1.1l-0.7-0.1c-1.6-0.2-2.7-0.7-2.7-2.1C294.8,264.4,296.1,263.7,297.5,263.7z"/>
	<path class="st1" d="M304.7,263.9v-2.6h1.1v2.6h2.3v1h-2.3v4.8c0,0.3,0.1,0.4,0.4,0.4h1.5v1h-1.9c-0.7,0-1.1-0.4-1.1-1.1v-5.1h-2.2
		v-1H304.7z"/>
	<path class="st1" d="M313.4,263.7c2.1,0,3.5,1.5,3.5,3.6v0.6H311c0.1,1.5,1.1,2.4,2.6,2.4c1.2,0,1.8-0.6,2.2-1.4l1,0.5
		c-0.5,0.9-1.4,1.9-3.2,1.9c-2.3,0-3.8-1.7-3.8-3.9C309.8,265.3,311.3,263.7,313.4,263.7z M315.7,266.9c0-1.4-0.9-2.3-2.3-2.3
		c-1.4,0-2.3,0.8-2.4,2.3H315.7z"/>
	<path class="st1" d="M320.3,265h0.2c0.3-0.7,0.8-1.1,1.9-1.1h0.9v1.1H322c-1.1,0-1.7,0.6-1.7,1.8v4.4h-1.1v-7.2h1.1V265z"/>
	<path class="st6" d="M331.8,263.9v-2.6h1.1v2.6h2.3v1H333v4.8c0,0.3,0.1,0.4,0.4,0.4h1.5v1h-1.9c-0.7,0-1.1-0.4-1.1-1.1v-5.1h-2.2
		v-1H331.8z"/>
	<path class="st6" d="M338.6,260.7v4.4h0.2c0.4-0.7,1.1-1.4,2.5-1.4c1.5,0,2.9,1,2.9,3v4.4H343v-4.3c0-1.4-0.8-2.1-2-2.1
		c-1.4,0-2.4,0.9-2.4,2.6v3.7h-1.1v-10.4H338.6z"/>
	<path class="st6" d="M350,263.7c2.1,0,3.5,1.5,3.5,3.6v0.6h-5.9c0.1,1.5,1.1,2.4,2.6,2.4c1.2,0,1.8-0.6,2.2-1.4l1,0.5
		c-0.5,0.9-1.4,1.9-3.2,1.9c-2.3,0-3.8-1.7-3.8-3.9C346.4,265.3,347.9,263.7,350,263.7z M352.3,266.9c0-1.4-0.9-2.3-2.3-2.3
		c-1.4,0-2.3,0.8-2.4,2.3H352.3z"/>
	<path class="st6" d="M356.9,263.9v1h0.2c0.4-0.7,1.1-1.1,2-1.1c1.1,0,1.7,0.5,2.1,1.3h0.2c0.4-0.7,1.1-1.3,2.2-1.3
		c1.4,0,2.5,0.9,2.5,2.4v5h-1.1v-4.9c0-0.9-0.7-1.5-1.6-1.5c-1,0-1.8,0.7-1.8,1.9v4.5h-1.1v-4.9c0-0.9-0.6-1.5-1.6-1.5
		c-1,0-1.8,0.7-1.8,1.9v4.5h-1.1v-7.2H356.9z"/>
	<path class="st6" d="M375.2,260.7v4.4h0.2c0.4-0.7,1.1-1.5,2.6-1.5c1.9,0,3.4,1.6,3.4,3.8s-1.5,3.8-3.4,3.8c-1.5,0-2.2-0.7-2.6-1.4
		h-0.2v1.2H374v-10.4H375.2z M375.2,267.5c0,1.7,1,2.8,2.6,2.8c1.5,0,2.6-1,2.6-2.8c0-1.8-1-2.8-2.6-2.8
		C376.2,264.7,375.2,265.8,375.2,267.5z"/>
	<path class="st6" d="M390.3,263.9l-4.4,10.2h-1.2l1.3-2.9l-3.1-7.3h1.2l2.4,5.8h0.2l2.4-5.8H390.3z"/>
	<path class="st6" d="M400.9,263.7c2.2,0,3.7,1.6,3.7,3.8c0,2.2-1.5,3.8-3.7,3.8c-2.2,0-3.7-1.6-3.7-3.8
		C397.2,265.3,398.7,263.7,400.9,263.7z M400.9,270.3c1.5,0,2.6-1.1,2.6-2.8c0-1.7-1-2.8-2.6-2.8c-1.5,0-2.6,1.1-2.6,2.8
		C398.3,269.2,399.3,270.3,400.9,270.3z"/>
	<path class="st6" d="M408,265h0.2c0.3-0.7,0.8-1.1,1.9-1.1h0.9v1.1h-1.2c-1.1,0-1.7,0.6-1.7,1.8v4.4h-1.1v-7.2h1.1V265z"/>
	<path class="st6" d="M413.5,260.7c0.5,0,1,0.4,1,1s-0.4,1-1,1c-0.5,0-1-0.4-1-1S413,260.7,413.5,260.7z M414.1,271.1H413v-7.2h1.1
		V271.1z"/>
	<path class="st6" d="M420.1,263.7c2.1,0,3.5,1.5,3.5,3.6v0.6h-5.9c0.1,1.5,1.1,2.4,2.6,2.4c1.2,0,1.8-0.6,2.2-1.4l1,0.5
		c-0.5,0.9-1.4,1.9-3.2,1.9c-2.3,0-3.8-1.7-3.8-3.9C416.5,265.3,418,263.7,420.1,263.7z M422.4,266.9c0-1.4-0.9-2.3-2.3-2.3
		c-1.4,0-2.3,0.8-2.4,2.3H422.4z"/>
	<path class="st6" d="M426.9,263.9v1.3h0.2c0.4-0.7,1.1-1.4,2.5-1.4c1.5,0,2.9,1,2.9,3v4.4h-1.1v-4.3c0-1.4-0.8-2.1-2-2.1
		c-1.4,0-2.4,0.9-2.4,2.6v3.7h-1.1v-7.2H426.9z"/>
	<path class="st6" d="M436.4,263.9v-2.6h1.1v2.6h2.3v1h-2.3v4.8c0,0.3,0.1,0.4,0.4,0.4h1.5v1h-1.9c-0.7,0-1.1-0.4-1.1-1.1v-5.1h-2.2
		v-1H436.4z"/>
	<path class="st6" d="M445.3,263.7c2,0,3.1,1.1,3.1,2.9v4.6h-1.1v-1.2h-0.2c-0.4,0.7-1.2,1.4-2.7,1.4c-1.6,0-2.7-0.8-2.7-2.1
		c0-1.3,1.1-2,2.8-2.2l2.9-0.3v-0.3c0-1.1-0.7-1.8-2-1.8s-2.1,0.7-2.5,1.6l-1-0.5C442.3,264.7,443.5,263.7,445.3,263.7z
		 M444.5,270.4c1.8,0,2.8-1,2.8-2.5v-0.1l-2.7,0.3c-1,0.1-1.8,0.4-1.8,1.2C442.8,269.9,443.5,270.4,444.5,270.4z"/>
	<path class="st6" d="M452.2,263.9v1.3h0.2c0.4-0.7,1.1-1.4,2.5-1.4c1.5,0,2.9,1,2.9,3v4.4h-1.1v-4.3c0-1.4-0.8-2.1-2-2.1
		c-1.4,0-2.4,0.9-2.4,2.6v3.7h-1.1v-7.2H452.2z"/>
	<path class="st6" d="M461.7,263.9v-2.6h1.1v2.6h2.3v1h-2.3v4.8c0,0.3,0.1,0.4,0.4,0.4h1.5v1h-1.9c-0.7,0-1.1-0.4-1.1-1.1v-5.1h-2.2
		v-1H461.7z"/>
	<path class="st6" d="M467.9,260.7c0.5,0,1,0.4,1,1s-0.4,1-1,1c-0.5,0-1-0.4-1-1S467.4,260.7,467.9,260.7z M468.5,271.1h-1.1v-7.2
		h1.1V271.1z"/>
	<path class="st6" d="M474.5,263.7c2.2,0,3.7,1.6,3.7,3.8c0,2.2-1.5,3.8-3.7,3.8c-2.2,0-3.7-1.6-3.7-3.8
		C470.8,265.3,472.4,263.7,474.5,263.7z M474.5,270.3c1.5,0,2.6-1.1,2.6-2.8c0-1.7-1-2.8-2.6-2.8c-1.5,0-2.6,1.1-2.6,2.8
		C472,269.2,473,270.3,474.5,270.3z"/>
	<path class="st6" d="M481.7,263.9v1.3h0.2c0.4-0.7,1.1-1.4,2.5-1.4c1.5,0,2.9,1,2.9,3v4.4h-1.1v-4.3c0-1.4-0.8-2.1-2-2.1
		c-1.4,0-2.4,0.9-2.4,2.6v3.7h-1.1v-7.2H481.7z"/>
	<path class="st6" d="M490.7,263.6c0.6,0,1,0.4,1,1c0,0.6-0.4,1-1,1c-0.6,0-1-0.4-1-1C489.6,264,490.1,263.6,490.7,263.6z
		 M490.7,269.3c0.6,0,1,0.4,1,1s-0.4,1-1,1c-0.6,0-1-0.4-1-1S490.1,269.3,490.7,269.3z"/>
	<path class="st6" d="M274.5,279.8v-2c0-0.7,0.4-1.2,1.1-1.2h1.9v1H276c-0.3,0-0.4,0.1-0.4,0.4v1.7h2.2v1h-2.2v6.3h-1.1v-6.3h-2.2
		v-1H274.5z"/>
	<path class="st6" d="M282.9,279.6c2.1,0,3.5,1.5,3.5,3.6v0.6h-5.9c0.1,1.5,1.1,2.4,2.6,2.4c1.2,0,1.8-0.6,2.2-1.4l1,0.5
		c-0.5,0.9-1.4,1.9-3.2,1.9c-2.3,0-3.8-1.7-3.8-3.9C279.3,281.2,280.8,279.6,282.9,279.6z M285.2,282.8c0-1.4-0.9-2.3-2.3-2.3
		c-1.4,0-2.3,0.8-2.4,2.3H285.2z"/>
	<path class="st6" d="M289.8,279.8v1h0.2c0.4-0.7,1.1-1.1,2-1.1c1.1,0,1.7,0.5,2.1,1.3h0.2c0.4-0.7,1.1-1.3,2.2-1.3
		c1.4,0,2.5,0.9,2.5,2.4v5h-1.1v-4.9c0-0.9-0.7-1.5-1.6-1.5c-1,0-1.8,0.7-1.8,1.9v4.5h-1.1v-4.9c0-0.9-0.6-1.5-1.6-1.5
		c-1,0-1.8,0.7-1.8,1.9v4.5h-1.1v-7.2H289.8z"/>
	<path class="st6" d="M302.3,276.6c0.5,0,1,0.4,1,1s-0.4,1-1,1c-0.5,0-1-0.4-1-1S301.7,276.6,302.3,276.6z M302.9,287h-1.1v-7.2h1.1
		V287z"/>
	<path class="st6" d="M306.8,279.8v1.3h0.2c0.4-0.7,1.1-1.4,2.5-1.4c1.5,0,2.9,1,2.9,3v4.4h-1.1v-4.3c0-1.4-0.8-2.1-2-2.1
		c-1.4,0-2.4,0.9-2.4,2.6v3.7h-1.1v-7.2H306.8z"/>
	<path class="st6" d="M315.7,276.6c0.5,0,1,0.4,1,1s-0.4,1-1,1c-0.5,0-1-0.4-1-1S315.1,276.6,315.7,276.6z M316.2,287h-1.1v-7.2h1.1
		V287z"/>
	<path class="st6" d="M321.6,279.6c1.5,0,2.5,0.6,3.6,1.9l-0.9,0.6c-0.8-1.1-1.7-1.5-2.7-1.5c-0.9,0-1.6,0.4-1.6,1.1
		c0,0.8,0.8,0.9,1.7,1.1l0.7,0.1c1.7,0.3,2.9,0.7,2.9,2.1s-1.3,2.3-3.2,2.3c-2,0-3.2-1.2-3.8-2.4l1-0.5c0.5,1.2,1.5,1.9,2.8,1.9
		c1.2,0,2-0.5,2-1.3c0-0.8-0.9-0.9-1.9-1.1l-0.7-0.1c-1.6-0.2-2.7-0.7-2.7-2.1C318.9,280.3,320.1,279.6,321.6,279.6z"/>
	<path class="st6" d="M328.8,279.8v-2.6h1.1v2.6h2.3v1H330v4.8c0,0.3,0.1,0.4,0.4,0.4h1.5v1h-1.9c-0.7,0-1.1-0.4-1.1-1.1v-5.1h-2.2
		v-1H328.8z"/>
	<path class="st6" d="M339.3,276.6L335,290h-1.2l4.4-13.4H339.3z"/>
	<path class="st6" d="M345.1,279.6c2,0,3.1,1.1,3.1,2.9v4.6h-1.1v-1.2h-0.2c-0.4,0.7-1.2,1.4-2.7,1.4c-1.6,0-2.7-0.8-2.7-2.1
		c0-1.3,1.1-2,2.8-2.2l2.9-0.3v-0.3c0-1.1-0.7-1.8-2-1.8s-2.1,0.7-2.5,1.6l-1-0.5C342.1,280.6,343.3,279.6,345.1,279.6z
		 M344.3,286.3c1.8,0,2.8-1,2.8-2.5v-0.1l-2.7,0.3c-1,0.1-1.8,0.4-1.8,1.2C342.6,285.9,343.3,286.3,344.3,286.3z"/>
	<path class="st6" d="M352.1,279.8v1.3h0.2c0.4-0.7,1.1-1.4,2.5-1.4c1.5,0,2.9,1,2.9,3v4.4h-1.1v-4.3c0-1.4-0.8-2.1-2-2.1
		c-1.4,0-2.4,0.9-2.4,2.6v3.7H351v-7.2H352.1z"/>
	<path class="st6" d="M361.5,279.8v-2.6h1.1v2.6h2.3v1h-2.3v4.8c0,0.3,0.1,0.4,0.4,0.4h1.5v1h-1.9c-0.7,0-1.1-0.4-1.1-1.1v-5.1h-2.2
		v-1H361.5z"/>
	<path class="st6" d="M367.7,276.6c0.5,0,1,0.4,1,1s-0.4,1-1,1c-0.5,0-1-0.4-1-1S367.2,276.6,367.7,276.6z M368.3,287h-1.1v-7.2h1.1
		V287z"/>
	<path class="st6" d="M372.5,279.8v-2c0-0.7,0.4-1.2,1.1-1.2h1.9v1H374c-0.3,0-0.4,0.1-0.4,0.4v1.7h2.2v1h-2.2v6.3h-1.1v-6.3h-2.2
		v-1H372.5z"/>
	<path class="st6" d="M380.9,279.6c2.1,0,3.5,1.5,3.5,3.6v0.6h-5.9c0.1,1.5,1.1,2.4,2.6,2.4c1.2,0,1.8-0.6,2.2-1.4l1,0.5
		c-0.5,0.9-1.4,1.9-3.2,1.9c-2.3,0-3.8-1.7-3.8-3.9C377.3,281.2,378.8,279.6,380.9,279.6z M383.2,282.8c0-1.4-0.9-2.3-2.3-2.3
		c-1.4,0-2.3,0.8-2.4,2.3H383.2z"/>
	<path class="st6" d="M387.8,279.8v1h0.2c0.4-0.7,1.1-1.1,2-1.1c1.1,0,1.7,0.5,2.1,1.3h0.2c0.4-0.7,1.1-1.3,2.2-1.3
		c1.4,0,2.5,0.9,2.5,2.4v5h-1.1v-4.9c0-0.9-0.7-1.5-1.6-1.5c-1,0-1.8,0.7-1.8,1.9v4.5h-1.1v-4.9c0-0.9-0.6-1.5-1.6-1.5
		c-1,0-1.8,0.7-1.8,1.9v4.5h-1.1v-7.2H387.8z"/>
	<path class="st6" d="M400.3,276.6c0.5,0,1,0.4,1,1s-0.4,1-1,1c-0.5,0-1-0.4-1-1S399.7,276.6,400.3,276.6z M400.8,287h-1.1v-7.2h1.1
		V287z"/>
	<path class="st6" d="M404.8,279.8v1.3h0.2c0.4-0.7,1.1-1.4,2.5-1.4c1.5,0,2.9,1,2.9,3v4.4h-1.1v-4.3c0-1.4-0.8-2.1-2-2.1
		c-1.4,0-2.4,0.9-2.4,2.6v3.7h-1.1v-7.2H404.8z"/>
	<path class="st6" d="M413.6,276.6c0.5,0,1,0.4,1,1s-0.4,1-1,1c-0.5,0-1-0.4-1-1S413.1,276.6,413.6,276.6z M414.2,287h-1.1v-7.2h1.1
		V287z"/>
	<path class="st6" d="M419.6,279.6c1.5,0,2.5,0.6,3.6,1.9l-0.9,0.6c-0.8-1.1-1.7-1.5-2.7-1.5c-0.9,0-1.6,0.4-1.6,1.1
		c0,0.8,0.8,0.9,1.7,1.1l0.7,0.1c1.7,0.3,2.9,0.7,2.9,2.1s-1.3,2.3-3.2,2.3c-2,0-3.2-1.2-3.8-2.4l1-0.5c0.5,1.2,1.5,1.9,2.8,1.9
		c1.2,0,2-0.5,2-1.3c0-0.8-0.9-0.9-1.9-1.1l-0.7-0.1c-1.6-0.2-2.7-0.7-2.7-2.1C416.9,280.3,418.1,279.6,419.6,279.6z"/>
	<path class="st6" d="M426.8,279.8v-2.6h1.1v2.6h2.3v1h-2.3v4.8c0,0.3,0.1,0.4,0.4,0.4h1.5v1h-1.9c-0.7,0-1.1-0.4-1.1-1.1v-5.1h-2.2
		v-1H426.8z"/>
	<path class="st6" d="M437.3,276.6L433,290h-1.2l4.4-13.4H437.3z"/>
	<path class="st6" d="M440.9,279.8v1.3h0.2c0.4-0.7,1.1-1.4,2.5-1.4c1.5,0,2.9,1,2.9,3v4.4h-1.1v-4.3c0-1.4-0.8-2.1-2-2.1
		c-1.4,0-2.4,0.9-2.4,2.6v3.7h-1.1v-7.2H440.9z"/>
	<path class="st6" d="M452.4,279.6c2.1,0,3.5,1.5,3.5,3.6v0.6H450c0.1,1.5,1.1,2.4,2.6,2.4c1.2,0,1.8-0.6,2.2-1.4l1,0.5
		c-0.5,0.9-1.4,1.9-3.2,1.9c-2.3,0-3.8-1.7-3.8-3.9C448.8,281.2,450.3,279.6,452.4,279.6z M454.7,282.8c0-1.4-0.9-2.3-2.3-2.3
		c-1.4,0-2.3,0.8-2.4,2.3H454.7z"/>
	<path class="st6" d="M463.7,287v-1.3h-0.2c-0.4,0.7-1.1,1.4-2.5,1.4c-1.5,0-2.9-1-2.9-3v-4.4h1.1v4.3c0,1.4,0.8,2.1,2,2.1
		c1.4,0,2.4-0.9,2.4-2.6v-3.7h1.1v7.2H463.7z"/>
	<path class="st6" d="M468.9,279.8v-2.6h1.1v2.6h2.3v1H470v4.8c0,0.3,0.1,0.4,0.4,0.4h1.5v1H470c-0.7,0-1.1-0.4-1.1-1.1v-5.1h-2.2
		v-1H468.9z"/>
	<path class="st6" d="M475.6,280.9h0.2c0.3-0.7,0.8-1.1,1.9-1.1h0.9v1.1h-1.2c-1.1,0-1.7,0.6-1.7,1.8v4.4h-1.1v-7.2h1.1V280.9z"/>
	<path class="st6" d="M483.8,279.6c2,0,3.1,1.1,3.1,2.9v4.6h-1.1v-1.2h-0.2c-0.4,0.7-1.2,1.4-2.7,1.4c-1.6,0-2.7-0.8-2.7-2.1
		c0-1.3,1.1-2,2.8-2.2l2.9-0.3v-0.3c0-1.1-0.7-1.8-2-1.8s-2.1,0.7-2.5,1.6l-1-0.5C480.8,280.6,482,279.6,483.8,279.6z M483,286.3
		c1.8,0,2.8-1,2.8-2.5v-0.1l-2.7,0.3c-1,0.1-1.8,0.4-1.8,1.2C481.3,285.9,482,286.3,483,286.3z"/>
	<path class="st6" d="M490.8,287h-1.1v-10.4h1.1V287z"/>
</g>
<g>
	<path class="st6" d="M249.1,341.2c2.2,0,3.7,1.6,3.7,3.8c0,2.2-1.5,3.8-3.7,3.8c-2.2,0-3.7-1.6-3.7-3.8
		C245.4,342.7,246.9,341.2,249.1,341.2z M249.1,347.8c1.5,0,2.6-1.1,2.6-2.8c0-1.7-1-2.8-2.6-2.8c-1.5,0-2.6,1.1-2.6,2.8
		C246.5,346.7,247.6,347.8,249.1,347.8z"/>
	<path class="st6" d="M256.2,342.4h0.2c0.3-0.7,0.8-1.1,1.9-1.1h0.9v1.1H258c-1.1,0-1.7,0.6-1.7,1.8v4.4h-1.1v-7.2h1.1V342.4z"/>
	<path class="st6" d="M261.8,338.1c0.5,0,1,0.4,1,1s-0.4,1-1,1c-0.5,0-1-0.4-1-1S261.2,338.1,261.8,338.1z M262.3,348.6h-1.1v-7.2
		h1.1V348.6z"/>
	<path class="st6" d="M268.3,341.1c2.1,0,3.5,1.5,3.5,3.6v0.6h-5.9c0.1,1.5,1.1,2.4,2.6,2.4c1.2,0,1.8-0.6,2.2-1.4l1,0.5
		c-0.5,0.9-1.4,1.9-3.2,1.9c-2.3,0-3.8-1.7-3.8-3.9C264.7,342.8,266.2,341.1,268.3,341.1z M270.6,344.4c0-1.4-0.9-2.3-2.3-2.3
		c-1.4,0-2.3,0.8-2.4,2.3H270.6z"/>
	<path class="st6" d="M275.2,341.4v1.3h0.2c0.4-0.7,1.1-1.4,2.5-1.4c1.5,0,2.9,1,2.9,3v4.4h-1.1v-4.3c0-1.4-0.8-2.1-2-2.1
		c-1.4,0-2.4,0.9-2.4,2.6v3.7h-1.1v-7.2H275.2z"/>
	<path class="st6" d="M284.7,341.4v-2.6h1.1v2.6h2.3v1h-2.3v4.8c0,0.3,0.1,0.4,0.4,0.4h1.5v1h-1.9c-0.7,0-1.1-0.4-1.1-1.1v-5.1h-2.2
		v-1H284.7z"/>
	<path class="st6" d="M293.5,341.2c2,0,3.1,1.1,3.1,2.9v4.6h-1.1v-1.2h-0.2c-0.4,0.7-1.2,1.4-2.7,1.4c-1.6,0-2.7-0.8-2.7-2.1
		c0-1.3,1.1-2,2.8-2.2l2.9-0.3V344c0-1.1-0.7-1.8-2-1.8s-2.1,0.7-2.5,1.6l-1-0.5C290.5,342.2,291.7,341.2,293.5,341.2z M292.8,347.9
		c1.8,0,2.8-1,2.8-2.5v-0.1l-2.7,0.3c-1,0.1-1.8,0.4-1.8,1.2C291.1,347.4,291.8,347.9,292.8,347.9z"/>
	<path class="st6" d="M300.5,341.4v-2.6h1.1v2.6h2.3v1h-2.3v4.8c0,0.3,0.1,0.4,0.4,0.4h1.5v1h-1.9c-0.7,0-1.1-0.4-1.1-1.1v-5.1h-2.2
		v-1H300.5z"/>
	<path class="st6" d="M306.7,338.1c0.5,0,1,0.4,1,1s-0.4,1-1,1c-0.5,0-1-0.4-1-1S306.2,338.1,306.7,338.1z M307.3,348.6h-1.1v-7.2
		h1.1V348.6z"/>
	<path class="st6" d="M313.3,341.2c2.2,0,3.7,1.6,3.7,3.8c0,2.2-1.5,3.8-3.7,3.8c-2.2,0-3.7-1.6-3.7-3.8
		C309.6,342.7,311.2,341.2,313.3,341.2z M313.3,347.8c1.5,0,2.6-1.1,2.6-2.8c0-1.7-1-2.8-2.6-2.8c-1.5,0-2.6,1.1-2.6,2.8
		C310.8,346.7,311.8,347.8,313.3,347.8z"/>
	<path class="st6" d="M320.5,341.4v1.3h0.2c0.4-0.7,1.1-1.4,2.5-1.4c1.5,0,2.9,1,2.9,3v4.4h-1.1v-4.3c0-1.4-0.8-2.1-2-2.1
		c-1.4,0-2.4,0.9-2.4,2.6v3.7h-1.1v-7.2H320.5z"/>
	<path class="st6" d="M337.2,341.2c2.2,0,3.7,1.6,3.7,3.8c0,2.2-1.5,3.8-3.7,3.8c-2.2,0-3.7-1.6-3.7-3.8
		C333.5,342.7,335.1,341.2,337.2,341.2z M337.2,347.8c1.5,0,2.6-1.1,2.6-2.8c0-1.7-1-2.8-2.6-2.8c-1.5,0-2.6,1.1-2.6,2.8
		C334.7,346.7,335.7,347.8,337.2,347.8z"/>
	<path class="st6" d="M344.5,341.4v-2c0-0.7,0.4-1.2,1.1-1.2h1.9v1h-1.5c-0.3,0-0.4,0.1-0.4,0.4v1.7h2.2v1h-2.2v6.3h-1.1v-6.3h-2.2
		v-1H344.5z"/>
	<path class="st6" d="M356.4,341.4v-2.6h1.1v2.6h2.3v1h-2.3v4.8c0,0.3,0.1,0.4,0.4,0.4h1.5v1h-1.9c-0.7,0-1.1-0.4-1.1-1.1v-5.1h-2.2
		v-1H356.4z"/>
	<path class="st6" d="M363.2,338.2v4.4h0.2c0.4-0.7,1.1-1.4,2.5-1.4c1.5,0,2.9,1,2.9,3v4.4h-1.1v-4.3c0-1.4-0.8-2.1-2-2.1
		c-1.4,0-2.4,0.9-2.4,2.6v3.7h-1.1v-10.4H363.2z"/>
	<path class="st6" d="M374.6,341.1c2.1,0,3.5,1.5,3.5,3.6v0.6h-5.9c0.1,1.5,1.1,2.4,2.6,2.4c1.2,0,1.8-0.6,2.2-1.4l1,0.5
		c-0.5,0.9-1.4,1.9-3.2,1.9c-2.3,0-3.8-1.7-3.8-3.9C371,342.8,372.5,341.1,374.6,341.1z M377,344.4c0-1.4-0.9-2.3-2.3-2.3
		c-1.4,0-2.3,0.8-2.4,2.3H377z"/>
	<path class="st6" d="M386.1,341.4l2.3,6.1h0.2l2.3-6.1h1.2l-2.8,7.2h-1.6l-2.8-7.2H386.1z"/>
	<path class="st6" d="M394.7,338.1c0.5,0,1,0.4,1,1s-0.4,1-1,1c-0.5,0-1-0.4-1-1S394.2,338.1,394.7,338.1z M395.3,348.6h-1.1v-7.2
		h1.1V348.6z"/>
	<path class="st6" d="M405,348.6h-1.1v-1.2h-0.2c-0.4,0.7-1.1,1.5-2.6,1.5c-1.9,0-3.4-1.6-3.4-3.8s1.5-3.8,3.4-3.8
		c1.5,0,2.2,0.7,2.6,1.4h0.2v-4.4h1.1V348.6z M398.8,345c0,1.8,1.1,2.8,2.6,2.8c1.5,0,2.6-1.1,2.6-2.8c0-1.7-1-2.8-2.6-2.8
		C399.8,342.2,398.8,343.2,398.8,345z"/>
	<path class="st6" d="M411,341.1c2.1,0,3.5,1.5,3.5,3.6v0.6h-5.9c0.1,1.5,1.1,2.4,2.6,2.4c1.2,0,1.8-0.6,2.2-1.4l1,0.5
		c-0.5,0.9-1.4,1.9-3.2,1.9c-2.3,0-3.8-1.7-3.8-3.9C407.4,342.8,408.9,341.1,411,341.1z M413.3,344.4c0-1.4-0.9-2.3-2.3-2.3
		c-1.4,0-2.3,0.8-2.4,2.3H413.3z"/>
	<path class="st6" d="M420,341.2c2.2,0,3.7,1.6,3.7,3.8c0,2.2-1.5,3.8-3.7,3.8c-2.2,0-3.7-1.6-3.7-3.8
		C416.3,342.7,417.8,341.2,420,341.2z M420,347.8c1.5,0,2.6-1.1,2.6-2.8c0-1.7-1-2.8-2.6-2.8c-1.5,0-2.6,1.1-2.6,2.8
		C417.4,346.7,418.4,347.8,420,347.8z"/>
	<path class="st6" d="M428.5,341.2c1.5,0,2.5,0.6,3.6,1.9l-0.9,0.6c-0.8-1.1-1.7-1.5-2.7-1.5c-0.9,0-1.6,0.4-1.6,1.1
		c0,0.8,0.8,0.9,1.7,1.1l0.7,0.1c1.7,0.3,2.9,0.7,2.9,2.1s-1.3,2.3-3.2,2.3c-2,0-3.2-1.2-3.8-2.4l1-0.5c0.5,1.2,1.5,1.9,2.8,1.9
		c1.2,0,2-0.5,2-1.3c0-0.8-0.9-0.9-1.9-1.1l-0.7-0.1c-1.6-0.2-2.7-0.7-2.7-2.1C425.8,341.9,427,341.2,428.5,341.2z"/>
	<path class="st6" d="M435.1,346.8c0.6,0,1,0.4,1,1v1.5c0,0.7-0.5,1.1-1.1,1.1h-0.9v-0.7h0.8c0.3,0,0.4-0.1,0.4-0.4v-0.5
		c-0.1,0-0.1,0-0.3,0c-0.5,0-1-0.4-1-1C434.1,347.2,434.5,346.8,435.1,346.8z"/>
	<path class="st6" d="M444.9,342.4h0.2c0.3-0.7,0.8-1.1,1.9-1.1h0.9v1.1h-1.2c-1.1,0-1.7,0.6-1.7,1.8v4.4h-1.1v-7.2h1.1V342.4z"/>
	<path class="st6" d="M452.6,341.1c2.1,0,3.5,1.5,3.5,3.6v0.6h-5.9c0.1,1.5,1.1,2.4,2.6,2.4c1.2,0,1.8-0.6,2.2-1.4l1,0.5
		c-0.5,0.9-1.4,1.9-3.2,1.9c-2.3,0-3.8-1.7-3.8-3.9C449,342.8,450.5,341.1,452.6,341.1z M455,344.4c0-1.4-0.9-2.3-2.3-2.3
		c-1.4,0-2.3,0.8-2.4,2.3H455z"/>
	<path class="st6" d="M461.6,341.2c2,0,3.1,1.1,3.1,2.9v4.6h-1.1v-1.2h-0.2c-0.4,0.7-1.2,1.4-2.7,1.4c-1.6,0-2.7-0.8-2.7-2.1
		c0-1.3,1.1-2,2.8-2.2l2.9-0.3V344c0-1.1-0.7-1.8-2-1.8s-2.1,0.7-2.5,1.6l-1-0.5C458.6,342.2,459.8,341.2,461.6,341.2z M460.8,347.9
		c1.8,0,2.8-1,2.8-2.5v-0.1l-2.7,0.3c-1,0.1-1.8,0.4-1.8,1.2C459.1,347.4,459.8,347.9,460.8,347.9z"/>
	<path class="st6" d="M470.7,341.2c1.9,0,3.2,1.2,3.5,2.8l-1.1,0.2c-0.1-1.1-1-2-2.3-2c-1.5,0-2.6,1.1-2.6,2.8
		c0,1.6,1.1,2.8,2.6,2.8c1.5,0,2.1-0.9,2.3-2l1.1,0.2c-0.3,1.4-1.4,2.8-3.5,2.8c-2.2,0-3.8-1.6-3.8-3.8
		C467,342.8,468.6,341.2,470.7,341.2z"/>
	<path class="st6" d="M477.7,341.4v-2.6h1.1v2.6h2.3v1h-2.3v4.8c0,0.3,0.1,0.4,0.4,0.4h1.5v1h-1.9c-0.7,0-1.1-0.4-1.1-1.1v-5.1h-2.2
		v-1H477.7z"/>
	<path class="st6" d="M483.9,338.1c0.5,0,1,0.4,1,1s-0.4,1-1,1c-0.5,0-1-0.4-1-1S483.4,338.1,483.9,338.1z M484.5,348.6h-1.1v-7.2
		h1.1V348.6z"/>
	<path class="st6" d="M490.5,341.2c2.2,0,3.7,1.6,3.7,3.8c0,2.2-1.5,3.8-3.7,3.8c-2.2,0-3.7-1.6-3.7-3.8
		C486.8,342.7,488.4,341.2,490.5,341.2z M490.5,347.8c1.5,0,2.6-1.1,2.6-2.8c0-1.7-1-2.8-2.6-2.8c-1.5,0-2.6,1.1-2.6,2.8
		C488,346.7,489,347.8,490.5,347.8z"/>
	<path class="st6" d="M497.7,341.4v1.3h0.2c0.4-0.7,1.1-1.4,2.5-1.4c1.5,0,2.9,1,2.9,3v4.4h-1.1v-4.3c0-1.4-0.8-2.1-2-2.1
		c-1.4,0-2.4,0.9-2.4,2.6v3.7h-1.1v-7.2H497.7z"/>
	<path class="st6" d="M508.6,341.2c1.5,0,2.5,0.6,3.6,1.9l-0.9,0.6c-0.8-1.1-1.7-1.5-2.7-1.5c-0.9,0-1.6,0.4-1.6,1.1
		c0,0.8,0.8,0.9,1.7,1.1l0.7,0.1c1.7,0.3,2.9,0.7,2.9,2.1s-1.3,2.3-3.2,2.3c-2,0-3.2-1.2-3.8-2.4l1-0.5c0.5,1.2,1.5,1.9,2.8,1.9
		c1.2,0,2-0.5,2-1.3c0-0.8-0.9-0.9-1.9-1.1l-0.7-0.1c-1.6-0.2-2.7-0.7-2.7-2.1C505.8,341.9,507.1,341.2,508.6,341.2z"/>
	<path class="st6" d="M515.1,346.8c0.6,0,1,0.4,1,1v1.5c0,0.7-0.5,1.1-1.1,1.1h-0.9v-0.7h0.8c0.3,0,0.4-0.1,0.4-0.4v-0.5
		c-0.1,0-0.1,0-0.3,0c-0.5,0-1-0.4-1-1C514.1,347.2,514.6,346.8,515.1,346.8z"/>
	<path class="st6" d="M262.8,357.1c1.9,0,3.2,1.2,3.5,2.8l-1.1,0.2c-0.1-1.1-1-2-2.3-2c-1.5,0-2.6,1.1-2.6,2.8
		c0,1.6,1.1,2.8,2.6,2.8c1.5,0,2.1-0.9,2.3-2l1.1,0.2c-0.3,1.4-1.4,2.8-3.5,2.8c-2.2,0-3.8-1.6-3.8-3.8
		C259.1,358.7,260.7,357.1,262.8,357.1z"/>
	<path class="st6" d="M271.8,357.1c2.2,0,3.7,1.6,3.7,3.8c0,2.2-1.5,3.8-3.7,3.8c-2.2,0-3.7-1.6-3.7-3.8
		C268.1,358.6,269.6,357.1,271.8,357.1z M271.8,363.7c1.5,0,2.6-1.1,2.6-2.8c0-1.7-1-2.8-2.6-2.8c-1.5,0-2.6,1.1-2.6,2.8
		C269.2,362.6,270.3,363.7,271.8,363.7z"/>
	<path class="st6" d="M278.9,357.3v1h0.2c0.4-0.7,1.1-1.1,2-1.1c1.1,0,1.7,0.5,2.1,1.3h0.2c0.4-0.7,1.1-1.3,2.2-1.3
		c1.4,0,2.5,0.9,2.5,2.4v5H287v-4.9c0-0.9-0.7-1.5-1.6-1.5c-1,0-1.8,0.7-1.8,1.9v4.5h-1.1v-4.9c0-0.9-0.6-1.5-1.6-1.5
		c-1,0-1.8,0.7-1.8,1.9v4.5h-1.1v-7.2H278.9z"/>
	<path class="st6" d="M292,357.3v1h0.2c0.4-0.7,1.1-1.1,2-1.1c1.1,0,1.7,0.5,2.1,1.3h0.2c0.4-0.7,1.1-1.3,2.2-1.3
		c1.4,0,2.5,0.9,2.5,2.4v5H300v-4.9c0-0.9-0.7-1.5-1.6-1.5c-1,0-1.8,0.7-1.8,1.9v4.5h-1.1v-4.9c0-0.9-0.6-1.5-1.6-1.5
		c-1,0-1.8,0.7-1.8,1.9v4.5h-1.1v-7.2H292z"/>
	<path class="st6" d="M307,357c2.1,0,3.5,1.5,3.5,3.6v0.6h-5.9c0.1,1.5,1.1,2.4,2.6,2.4c1.2,0,1.8-0.6,2.2-1.4l1,0.5
		c-0.5,0.9-1.4,1.9-3.2,1.9c-2.3,0-3.8-1.7-3.8-3.9C303.4,358.7,304.9,357,307,357z M309.3,360.3c0-1.4-0.9-2.3-2.3-2.3
		c-1.4,0-2.3,0.8-2.4,2.3H309.3z"/>
	<path class="st6" d="M313.9,357.3v1.3h0.2c0.4-0.7,1.1-1.4,2.5-1.4c1.5,0,2.9,1,2.9,3v4.4h-1.1v-4.3c0-1.4-0.8-2.1-2-2.1
		c-1.4,0-2.4,0.9-2.4,2.6v3.7h-1.1v-7.2H313.9z"/>
	<path class="st6" d="M323.4,357.3v-2.6h1.1v2.6h2.3v1h-2.3v4.8c0,0.3,0.1,0.4,0.4,0.4h1.5v1h-1.9c-0.7,0-1.1-0.4-1.1-1.1v-5.1h-2.2
		v-1H323.4z"/>
	<path class="st6" d="M331.6,357.1c1.5,0,2.5,0.6,3.6,1.9l-0.9,0.6c-0.8-1.1-1.7-1.5-2.7-1.5c-0.9,0-1.6,0.4-1.6,1.1
		c0,0.8,0.8,0.9,1.7,1.1l0.7,0.1c1.7,0.3,2.9,0.7,2.9,2.1s-1.3,2.3-3.2,2.3c-2,0-3.2-1.2-3.8-2.4l1-0.5c0.5,1.2,1.5,1.9,2.8,1.9
		c1.2,0,2-0.5,2-1.3c0-0.8-0.9-0.9-1.9-1.1l-0.7-0.1c-1.6-0.2-2.7-0.7-2.7-2.1C328.8,357.8,330.1,357.1,331.6,357.1z"/>
	<path class="st6" d="M338.2,362.7c0.6,0,1,0.4,1,1v1.5c0,0.7-0.5,1.1-1.1,1.1h-0.9v-0.7h0.8c0.3,0,0.4-0.1,0.4-0.4v-0.5
		c-0.1,0-0.1,0-0.3,0c-0.5,0-1-0.4-1-1C337.1,363.1,337.6,362.7,338.2,362.7z"/>
	<path class="st6" d="M350.1,357.1c2,0,3.1,1.1,3.1,2.9v4.6h-1.1v-1.2h-0.2c-0.4,0.7-1.2,1.4-2.7,1.4c-1.6,0-2.7-0.8-2.7-2.1
		c0-1.3,1.1-2,2.8-2.2l2.9-0.3v-0.3c0-1.1-0.7-1.8-2-1.8s-2.1,0.7-2.5,1.6l-1-0.5C347.1,358.1,348.3,357.1,350.1,357.1z
		 M349.4,363.8c1.8,0,2.8-1,2.8-2.5v-0.1l-2.7,0.3c-1,0.1-1.8,0.4-1.8,1.2C347.7,363.3,348.4,363.8,349.4,363.8z"/>
	<path class="st6" d="M357.1,357.3v1.3h0.2c0.4-0.7,1.1-1.4,2.5-1.4c1.5,0,2.9,1,2.9,3v4.4h-1.1v-4.3c0-1.4-0.8-2.1-2-2.1
		c-1.4,0-2.4,0.9-2.4,2.6v3.7H356v-7.2H357.1z"/>
	<path class="st6" d="M372.3,364.5h-1.1v-1.2H371c-0.4,0.7-1.1,1.5-2.6,1.5c-1.9,0-3.4-1.6-3.4-3.8s1.5-3.8,3.4-3.8
		c1.5,0,2.2,0.7,2.6,1.4h0.2v-4.4h1.1V364.5z M366.1,360.9c0,1.8,1.1,2.8,2.6,2.8c1.5,0,2.6-1.1,2.6-2.8c0-1.7-1-2.8-2.6-2.8
		C367.1,358.1,366.1,359.1,366.1,360.9z"/>
	<path class="st6" d="M381.5,357.3v1.3h0.2c0.4-0.7,1.1-1.4,2.5-1.4c1.5,0,2.9,1,2.9,3v4.4h-1.1v-4.3c0-1.4-0.8-2.1-2-2.1
		c-1.4,0-2.4,0.9-2.4,2.6v3.7h-1.1v-7.2H381.5z"/>
	<path class="st6" d="M395.2,364.5v-1.3H395c-0.4,0.7-1.1,1.4-2.5,1.4c-1.5,0-2.9-1-2.9-3v-4.4h1.1v4.3c0,1.4,0.8,2.1,2,2.1
		c1.4,0,2.4-0.9,2.4-2.6v-3.7h1.1v7.2H395.2z"/>
	<path class="st6" d="M400.3,357.3v1h0.2c0.4-0.7,1.1-1.1,2-1.1c1.1,0,1.7,0.5,2.1,1.3h0.2c0.4-0.7,1.1-1.3,2.2-1.3
		c1.4,0,2.5,0.9,2.5,2.4v5h-1.1v-4.9c0-0.9-0.7-1.5-1.6-1.5c-1,0-1.8,0.7-1.8,1.9v4.5h-1.1v-4.9c0-0.9-0.6-1.5-1.6-1.5
		c-1,0-1.8,0.7-1.8,1.9v4.5h-1.1v-7.2H400.3z"/>
	<path class="st6" d="M413.3,354.1v4.4h0.2c0.4-0.7,1.1-1.5,2.6-1.5c1.9,0,3.4,1.6,3.4,3.8s-1.5,3.8-3.4,3.8c-1.5,0-2.2-0.7-2.6-1.4
		h-0.2v1.2h-1.1v-10.4H413.3z M413.3,360.9c0,1.7,1,2.8,2.6,2.8c1.5,0,2.6-1,2.6-2.8c0-1.8-1-2.8-2.6-2.8
		C414.3,358.1,413.3,359.2,413.3,360.9z"/>
	<path class="st6" d="M425,357c2.1,0,3.5,1.5,3.5,3.6v0.6h-5.9c0.1,1.5,1.1,2.4,2.6,2.4c1.2,0,1.8-0.6,2.2-1.4l1,0.5
		c-0.5,0.9-1.4,1.9-3.2,1.9c-2.3,0-3.8-1.7-3.8-3.9C421.4,358.7,422.9,357,425,357z M427.3,360.3c0-1.4-0.9-2.3-2.3-2.3
		c-1.4,0-2.3,0.8-2.4,2.3H427.3z"/>
	<path class="st6" d="M431.9,358.4h0.2c0.3-0.7,0.8-1.1,1.9-1.1h0.9v1.1h-1.2c-1.1,0-1.7,0.6-1.7,1.8v4.4h-1.1v-7.2h1.1V358.4z"/>
	<path class="st6" d="M445.3,357.1c2.2,0,3.7,1.6,3.7,3.8c0,2.2-1.5,3.8-3.7,3.8c-2.2,0-3.7-1.6-3.7-3.8
		C441.6,358.6,443.2,357.1,445.3,357.1z M445.3,363.7c1.5,0,2.6-1.1,2.6-2.8c0-1.7-1-2.8-2.6-2.8c-1.5,0-2.6,1.1-2.6,2.8
		C442.8,362.6,443.8,363.7,445.3,363.7z"/>
	<path class="st6" d="M452.6,357.3v-2c0-0.7,0.4-1.2,1.1-1.2h1.9v1h-1.5c-0.3,0-0.4,0.1-0.4,0.4v1.7h2.2v1h-2.2v6.3h-1.1v-6.3h-2.2
		v-1H452.6z"/>
	<path class="st6" d="M463.7,357.3l2.3,6.1h0.2l2.3-6.1h1.2l-2.8,7.2h-1.6l-2.8-7.2H463.7z"/>
	<path class="st6" d="M472.3,354c0.5,0,1,0.4,1,1s-0.4,1-1,1c-0.5,0-1-0.4-1-1S471.8,354,472.3,354z M472.9,364.5h-1.1v-7.2h1.1
		V364.5z"/>
	<path class="st6" d="M478.9,357c2.1,0,3.5,1.5,3.5,3.6v0.6h-5.9c0.1,1.5,1.1,2.4,2.6,2.4c1.2,0,1.8-0.6,2.2-1.4l1,0.5
		c-0.5,0.9-1.4,1.9-3.2,1.9c-2.3,0-3.8-1.7-3.8-3.9C475.2,358.7,476.8,357,478.9,357z M481.2,360.3c0-1.4-0.9-2.3-2.3-2.3
		c-1.4,0-2.3,0.8-2.4,2.3H481.2z"/>
	<path class="st6" d="M485.2,357.3l1.3,6h0.2l1.6-6h1.7l1.6,6h0.2l1.3-6h1.2l-1.7,7.2h-1.7l-1.6-6h-0.2l-1.6,6h-1.7l-1.7-7.2H485.2z
		"/>
	<path class="st6" d="M499.1,357.1c1.5,0,2.5,0.6,3.6,1.9l-0.9,0.6c-0.8-1.1-1.7-1.5-2.7-1.5c-0.9,0-1.6,0.4-1.6,1.1
		c0,0.8,0.8,0.9,1.7,1.1l0.7,0.1c1.7,0.3,2.9,0.7,2.9,2.1s-1.3,2.3-3.2,2.3c-2,0-3.2-1.2-3.8-2.4l1-0.5c0.5,1.2,1.5,1.9,2.8,1.9
		c1.2,0,2-0.5,2-1.3c0-0.8-0.9-0.9-1.9-1.1l-0.7-0.1c-1.6-0.2-2.7-0.7-2.7-2.1C496.4,357.8,497.6,357.1,499.1,357.1z"/>
</g>
<g>
	<line class="st7" x1="381.9" y1="307.2" x2="381.9" y2="321"/>
	<g>
		<polygon class="st6" points="377.6,317.6 378.3,316.8 381.9,320.6 385.5,316.8 386.3,317.6 381.9,322.2 		"/>
	</g>
</g>
<g>
	<g>
		<path class="st5" d="M688.4,258l2.4,8.6h0.2l2.4-8.6h3v10.4h-1.7v-8.6h-0.2l-2.4,8.6h-2.6l-2.4-8.6H687v8.6h-1.7V258H688.4z"/>
		<path class="st5" d="M703.9,258l3.1,10.4h-1.8l-0.7-2.4h-3.9l-0.7,2.4h-1.8l3.1-10.4H703.9z M704.1,264.4l-1.4-4.9h-0.2l-1.4,4.9
			H704.1z"/>
		<path class="st5" d="M711.8,258l2.8,8.8h0.2V258h1.7v10.4h-3.1l-2.8-8.8h-0.2v8.8h-1.7V258H711.8z"/>
		<path class="st5" d="M720.7,258v6.8c0,1.4,0.8,2.2,2.3,2.2c1.5,0,2.3-0.8,2.3-2.2V258h1.7v6.8c0,2.4-1.4,3.8-4,3.8
			c-2.5,0-4-1.4-4-3.8V258H720.7z"/>
		<path class="st5" d="M734.3,258l3.1,10.4h-1.8l-0.7-2.4H731l-0.7,2.4h-1.8l3.1-10.4H734.3z M734.4,264.4l-1.4-4.9h-0.2l-1.4,4.9
			H734.4z"/>
		<path class="st5" d="M740.8,258v8.8h5v1.6H739V258H740.8z"/>
		<path class="st5" d="M690.4,275.8l3.1,10.4h-1.8l-0.7-2.4H687l-0.7,2.4h-1.8l3.1-10.4H690.4z M690.5,282.2l-1.4-4.9h-0.2l-1.4,4.9
			H690.5z"/>
		<path class="st5" d="M698.2,275.8l2.8,8.8h0.2v-8.8h1.7v10.4h-3.1l-2.8-8.8h-0.2v8.8h-1.7v-10.4H698.2z"/>
		<path class="st5" d="M710.4,275.8l3.1,10.4h-1.8l-0.7-2.4h-3.9l-0.7,2.4h-1.8l3.1-10.4H710.4z M710.6,282.2l-1.4-4.9H709l-1.4,4.9
			H710.6z"/>
		<path class="st5" d="M716.9,275.8v8.8h5v1.6h-6.7v-10.4H716.9z"/>
		<path class="st5" d="M722.6,275.8l2.5,4.6h0.2l2.4-4.6h2l-3.7,6.7v3.7h-1.7v-3.7l-3.7-6.7H722.6z"/>
		<path class="st5" d="M738,278.9v0.5h-1.7V279c0-1.3-0.8-1.9-2.1-1.9c-1.1,0-1.8,0.6-1.8,1.4c0,1,0.8,1.2,2.1,1.5l0.4,0.1
			c2,0.4,3.3,1.2,3.3,3.1c0,2-1.6,3.2-3.8,3.2c-2.5,0-4.2-1.4-4.2-3.8v-0.4h1.7v0.3c0,1.5,0.8,2.3,2.5,2.3c1.3,0,2-0.7,2-1.6
			c0-0.9-0.7-1.3-2.1-1.6l-0.4-0.1c-2-0.4-3.3-1.2-3.3-3.1c0-1.8,1.6-2.9,3.5-2.9C736.4,275.6,738,276.8,738,278.9z"/>
		<path class="st5" d="M742,275.8v10.4h-1.7v-10.4H742z"/>
		<path class="st5" d="M751.8,278.9v0.5h-1.7V279c0-1.3-0.8-1.9-2.1-1.9c-1.1,0-1.8,0.6-1.8,1.4c0,1,0.8,1.2,2.1,1.5l0.4,0.1
			c2,0.4,3.3,1.2,3.3,3.1c0,2-1.6,3.2-3.8,3.2c-2.5,0-4.2-1.4-4.2-3.8v-0.4h1.7v0.3c0,1.5,0.8,2.3,2.5,2.3c1.3,0,2-0.7,2-1.6
			c0-0.9-0.7-1.3-2.1-1.6l-0.4-0.1c-2-0.4-3.3-1.2-3.3-3.1c0-1.8,1.6-2.9,3.5-2.9C750.2,275.6,751.8,276.8,751.8,278.9z"/>
	</g>
	<g>
		<path class="st9" d="M688.4,258l2.4,8.6h0.2l2.4-8.6h3v10.4h-1.7v-8.6h-0.2l-2.4,8.6h-2.6l-2.4-8.6H687v8.6h-1.7V258H688.4z"/>
		<path class="st9" d="M703.9,258l3.1,10.4h-1.8l-0.7-2.4h-3.9l-0.7,2.4h-1.8l3.1-10.4H703.9z M704.1,264.4l-1.4-4.9h-0.2l-1.4,4.9
			H704.1z"/>
		<path class="st9" d="M711.8,258l2.8,8.8h0.2V258h1.7v10.4h-3.1l-2.8-8.8h-0.2v8.8h-1.7V258H711.8z"/>
		<path class="st9" d="M720.7,258v6.8c0,1.4,0.8,2.2,2.3,2.2c1.5,0,2.3-0.8,2.3-2.2V258h1.7v6.8c0,2.4-1.4,3.8-4,3.8
			c-2.5,0-4-1.4-4-3.8V258H720.7z"/>
		<path class="st9" d="M734.3,258l3.1,10.4h-1.8l-0.7-2.4H731l-0.7,2.4h-1.8l3.1-10.4H734.3z M734.4,264.4l-1.4-4.9h-0.2l-1.4,4.9
			H734.4z"/>
		<path class="st9" d="M740.8,258v8.8h5v1.6H739V258H740.8z"/>
		<path class="st9" d="M690.4,275.8l3.1,10.4h-1.8l-0.7-2.4H687l-0.7,2.4h-1.8l3.1-10.4H690.4z M690.5,282.2l-1.4-4.9h-0.2l-1.4,4.9
			H690.5z"/>
		<path class="st9" d="M698.2,275.8l2.8,8.8h0.2v-8.8h1.7v10.4h-3.1l-2.8-8.8h-0.2v8.8h-1.7v-10.4H698.2z"/>
		<path class="st9" d="M710.4,275.8l3.1,10.4h-1.8l-0.7-2.4h-3.9l-0.7,2.4h-1.8l3.1-10.4H710.4z M710.6,282.2l-1.4-4.9H709l-1.4,4.9
			H710.6z"/>
		<path class="st9" d="M716.9,275.8v8.8h5v1.6h-6.7v-10.4H716.9z"/>
		<path class="st9" d="M722.6,275.8l2.5,4.6h0.2l2.4-4.6h2l-3.7,6.7v3.7h-1.7v-3.7l-3.7-6.7H722.6z"/>
		<path class="st9" d="M738,278.9v0.5h-1.7V279c0-1.3-0.8-1.9-2.1-1.9c-1.1,0-1.8,0.6-1.8,1.4c0,1,0.8,1.2,2.1,1.5l0.4,0.1
			c2,0.4,3.3,1.2,3.3,3.1c0,2-1.6,3.2-3.8,3.2c-2.5,0-4.2-1.4-4.2-3.8v-0.4h1.7v0.3c0,1.5,0.8,2.3,2.5,2.3c1.3,0,2-0.7,2-1.6
			c0-0.9-0.7-1.3-2.1-1.6l-0.4-0.1c-2-0.4-3.3-1.2-3.3-3.1c0-1.8,1.6-2.9,3.5-2.9C736.4,275.6,738,276.8,738,278.9z"/>
		<path class="st9" d="M742,275.8v10.4h-1.7v-10.4H742z"/>
		<path class="st9" d="M751.8,278.9v0.5h-1.7V279c0-1.3-0.8-1.9-2.1-1.9c-1.1,0-1.8,0.6-1.8,1.4c0,1,0.8,1.2,2.1,1.5l0.4,0.1
			c2,0.4,3.3,1.2,3.3,3.1c0,2-1.6,3.2-3.8,3.2c-2.5,0-4.2-1.4-4.2-3.8v-0.4h1.7v0.3c0,1.5,0.8,2.3,2.5,2.3c1.3,0,2-0.7,2-1.6
			c0-0.9-0.7-1.3-2.1-1.6l-0.4-0.1c-2-0.4-3.3-1.2-3.3-3.1c0-1.8,1.6-2.9,3.5-2.9C750.2,275.6,751.8,276.8,751.8,278.9z"/>
	</g>
</g>
<line class="st8" x1="671.2" y1="249.4" x2="671.2" y2="296.4"/>
<line class="st8" x1="671.2" y1="328.8" x2="671.2" y2="375.8"/>
<rect x="11.6" y="334" class="st1" width="107.4" height="22.2"/>
<g>
	<path class="st2" d="M20.1,340.5l2.1,7.5h0.1l2.1-7.5H26l-2.7,8.9H21l-2.7-8.9H20.1z"/>
	<path class="st2" d="M29,340.5v8.9h-1.5v-8.9H29z"/>
	<path class="st2" d="M37.4,343.1v0.4h-1.5v-0.3c0-1.1-0.7-1.6-1.8-1.6c-1,0-1.6,0.5-1.6,1.2c0,0.8,0.6,1.1,1.8,1.3l0.3,0.1
		c1.7,0.4,2.8,1.1,2.8,2.7c0,1.7-1.4,2.8-3.2,2.8c-2.2,0-3.6-1.3-3.6-3.3V346H32v0.3c0,1.3,0.7,2,2.1,2c1.2,0,1.7-0.6,1.7-1.4
		c0-0.8-0.6-1.2-1.8-1.4l-0.3-0.1c-1.7-0.4-2.9-1-2.9-2.7c0-1.6,1.4-2.5,3.1-2.5C36,340.3,37.4,341.3,37.4,343.1z"/>
	<path class="st2" d="M40.7,340.5v5.8c0,1.2,0.6,1.9,1.9,1.9c1.3,0,1.9-0.6,1.9-1.9v-5.8H46v5.8c0,2-1.3,3.3-3.4,3.3
		c-2.1,0-3.4-1.2-3.4-3.3v-5.8H40.7z"/>
	<path class="st2" d="M52.4,340.5l2.7,8.9h-1.6l-0.6-2h-3.4l-0.6,2h-1.6l2.7-8.9H52.4z M52.5,346l-1.3-4.2h-0.1l-1.3,4.2H52.5z"/>
	<path class="st2" d="M57.9,340.5v7.5h4.2v1.4h-5.7v-8.9H57.9z"/>
	<path class="st2" d="M65.2,340.5v8.9h-1.5v-8.9H65.2z"/>
	<path class="st2" d="M73.3,340.5v1.3l-4.6,6.3h4.6v1.4h-6.4v-1.3l4.6-6.3h-4.3v-1.4H73.3z"/>
	<path class="st2" d="M79.4,340.5l2.7,8.9h-1.6l-0.6-2h-3.4l-0.6,2h-1.6l2.7-8.9H79.4z M79.5,346l-1.3-4.2h-0.1l-1.3,4.2H79.5z"/>
	<path class="st2" d="M89.2,340.5v1.4h-2.8v7.5H85v-7.5h-2.8v-1.4H89.2z"/>
	<path class="st2" d="M92.2,340.5v8.9h-1.5v-8.9H92.2z"/>
	<path class="st2" d="M97.6,340.3c2.2,0,3.6,1.4,3.6,3.7v1.9c0,2.3-1.4,3.7-3.6,3.7s-3.6-1.4-3.6-3.7V344
		C94,341.6,95.3,340.3,97.6,340.3z M95.4,346c0,1.4,0.6,2.2,2.1,2.2s2.1-0.8,2.1-2.2v-2c0-1.4-0.7-2.2-2.1-2.2s-2.1,0.8-2.1,2.2V346
		z"/>
	<path class="st2" d="M105.6,340.5l2.4,7.5h0.1v-7.5h1.5v8.9H107l-2.4-7.5h-0.1v7.5H103v-8.9H105.6z"/>
</g>
<rect x="234.1" y="332.3" class="st10" width="292.9" height="40.1"/>
</svg>
