<?xml version="1.0" encoding="utf-8"?>
<!-- Generator: Adobe Illustrator 22.1.0, SVG Export Plug-In . SVG Version: 6.00 Build 0)  -->
<svg version="1.1" id="Livello_1" xmlns="http://www.w3.org/2000/svg" xmlns:xlink="http://www.w3.org/1999/xlink" x="0px" y="0px"
	 viewBox="0 0 830 606.2" style="enable-background:new 0 0 830 606.2;" xml:space="preserve">
<style type="text/css">
	.st0{fill:none;stroke:#C6C6C6;stroke-miterlimit:10;}
	.st1{fill:#B2B2B2;}
	.st2{fill:#C6C6C6;}
	.st3{fill:#F6F6F6;}
	.st4{fill:#1D1D1B;}
	.st5{fill:#FF3603;}
	.st6{opacity:0.1;fill:#B2B2B2;}
	.st7{fill:none;stroke:#1D1D1B;stroke-miterlimit:10;}
	.st8{fill:none;stroke:#FF3603;stroke-miterlimit:10;}
	.st9{fill:#FFFFFF;}
	.st10{font-family:'SpaceGrotesk-Regular';}
	.st11{font-size:14px;}
	.st12{fill:#B2B2B2;stroke:#1D1D1B;stroke-miterlimit:10;}
	.st13{fill:#FFFFFF;stroke:#1D1D1B;stroke-miterlimit:10;}
	.st14{font-size:10px;}
	.st15{font-family:'SpaceGrotesk-SemiBold';}
</style>
<rect x="0.4" y="-0.5" class="st6" width="620.3" height="212.6"/>
<line class="st0" x1="634.5" y1="8" x2="634.5" y2="52.4"/>
<rect x="0.2" y="227" class="st3" width="621.1" height="288.5"/>
<g>
	<g>
		<line class="st7" x1="187.3" y1="136.2" x2="187.3" y2="149.3"/>
		<g>
			<polygon class="st4" points="183.2,146 184,145.3 187.3,148.9 190.7,145.3 191.4,146 187.3,150.4 			"/>
		</g>
	</g>
</g>
<g>
	<g>
		<line class="st7" x1="296.8" y1="136.2" x2="296.8" y2="149.2"/>
		<g>
			<polygon class="st4" points="292.7,145.9 293.4,145.2 296.8,148.9 300.1,145.2 300.9,145.9 296.8,150.3 			"/>
		</g>
	</g>
</g>
<g>
	<g>
		<line class="st7" x1="406" y1="136.2" x2="406" y2="149.4"/>
		<g>
			<polygon class="st4" points="401.9,146.1 402.7,145.4 406,149.1 409.4,145.4 410.1,146.1 406,150.5 			"/>
		</g>
	</g>
</g>
<g>
	<g>
		<line class="st7" x1="350.9" y1="287" x2="350.9" y2="300.3"/>
		<g>
			<polygon class="st4" points="346.8,297 347.5,296.3 350.9,299.9 354.2,296.3 354.9,297 350.9,301.4 			"/>
		</g>
	</g>
</g>
<g>
	<g>
		<line class="st7" x1="515.3" y1="362.8" x2="515.3" y2="376.1"/>
		<g>
			<polygon class="st4" points="511.2,372.7 511.9,372.1 515.3,375.7 518.7,372.1 519.4,372.7 515.3,377.1 			"/>
		</g>
	</g>
</g>
<g>
	<g>
		<line class="st7" x1="515.6" y1="136.2" x2="515.6" y2="149.2"/>
		<g>
			<polygon class="st4" points="511.5,145.9 512.2,145.2 515.6,148.8 519,145.2 519.7,145.9 515.6,150.3 			"/>
		</g>
	</g>
</g>
<text transform="matrix(1 0 0 1 173.6174 178.1879)"><tspan x="0" y="0" class="st5 st10 st11">extract</tspan><tspan x="0" y="15" class="st4 st10 st11">timeline</tspan></text>
<g>
	<rect x="322.6" y="247.2" class="st12" width="7.6" height="4.2"/>
	<rect x="322.6" y="251.4" class="st13" width="7.6" height="4.2"/>
	<rect x="307.4" y="259.9" class="st13" width="7.6" height="4.2"/>
	<rect x="315" y="259.9" class="st13" width="7.6" height="4.2"/>
	<rect x="322.6" y="255.6" class="st13" width="7.6" height="4.2"/>
	<rect x="322.6" y="259.9" class="st13" width="7.6" height="4.2"/>
	<rect x="302.9" y="243.9" class="st12" width="7.6" height="4.2"/>
	<rect x="310.5" y="243.9" class="st12" width="7.6" height="4.2"/>
	<rect x="302.9" y="248.1" class="st13" width="7.6" height="4.2"/>
	<rect x="310.5" y="248.1" class="st13" width="7.6" height="4.2"/>
	<rect x="318.1" y="243.9" class="st12" width="7.6" height="4.2"/>
	<rect x="318.1" y="248.1" class="st13" width="7.6" height="4.2"/>
	<rect x="302.9" y="252.4" class="st13" width="7.6" height="4.2"/>
	<rect x="310.5" y="252.4" class="st13" width="7.6" height="4.2"/>
	<rect x="302.9" y="256.6" class="st13" width="7.6" height="4.2"/>
	<rect x="310.5" y="256.6" class="st13" width="7.6" height="4.2"/>
	<rect x="318.1" y="252.4" class="st13" width="7.6" height="4.2"/>
	<rect x="318.1" y="256.6" class="st13" width="7.6" height="4.2"/>
</g>
<text transform="matrix(1 0 0 1 336.5844 251.8585)"><tspan x="0" y="0" class="st5 st10 st11">merge</tspan><tspan x="0" y="15" class="st4 st10 st11">datasets</tspan></text>
<text transform="matrix(1 0 0 1 272.3565 326.6786)"><tspan x="0" y="0" class="st5 st10 st11">categorize </tspan><tspan x="80.6" y="0" class="st4 st10 st11">the events</tspan><tspan x="32.2" y="15" class="st4 st10 st11">in categories</tspan></text>
<text transform="matrix(1 0 0 1 470.3965 326.6791)"><tspan x="0" y="0" class="st5 st10 st11">select </tspan><tspan x="48.5" y="0" class="st4 st10 st11">online</tspan><tspan x="7" y="15" class="st4 st10 st11">campaigns</tspan></text>
<text transform="matrix(1 0 0 1 444.6187 404.0777)"><tspan x="0" y="0" class="st5 st10 st11">map</tspan><tspan x="30" y="0" class="st4 st10 st11"> their relevance</tspan><tspan x="-6.6" y="15" class="st4 st10 st11">over the recent years</tspan></text>
<text transform="matrix(1 0 0 1 436.5972 480.39)"><tspan x="0" y="0" class="st5 st10 st11">connect</tspan><tspan x="58.5" y="0" class="st4 st10 st11"> them to their</tspan><tspan x="21.7" y="15" class="st4 st10 st11">causative event</tspan></text>
<g>
	<rect x="148" y="173.3" class="st12" width="6.8" height="3.8"/>
	<rect x="154.8" y="173.3" class="st12" width="6.8" height="3.8"/>
	<rect x="161.7" y="173.3" class="st12" width="6.8" height="3.8"/>
	<g>
		<rect x="148" y="177.1" class="st13" width="6.8" height="3.8"/>
		<rect x="154.8" y="177.1" class="st13" width="6.8" height="3.8"/>
		<rect x="161.7" y="177.1" class="st13" width="6.8" height="3.8"/>
		<rect x="148" y="180.9" class="st13" width="6.8" height="3.8"/>
		<rect x="154.8" y="180.9" class="st13" width="6.8" height="3.8"/>
		<rect x="148" y="184.7" class="st13" width="6.8" height="3.8"/>
		<rect x="154.8" y="184.7" class="st13" width="6.8" height="3.8"/>
		<rect x="161.7" y="180.9" class="st13" width="6.8" height="3.8"/>
		<rect x="161.7" y="184.7" class="st13" width="6.8" height="3.8"/>
	</g>
</g>
<text transform="matrix(1 0 0 1 283.4736 177.4487)"><tspan x="0" y="0" class="st5 st10 st11">extract</tspan><tspan x="0" y="15" class="st4 st10 st11">timeline</tspan></text>
<g>
	<rect x="255.9" y="172.6" class="st12" width="6.8" height="3.8"/>
	<rect x="262.7" y="172.6" class="st12" width="6.8" height="3.8"/>
	<rect x="269.5" y="172.6" class="st12" width="6.8" height="3.8"/>
	<g>
		<rect x="255.9" y="176.4" class="st13" width="6.8" height="3.8"/>
		<rect x="262.7" y="176.4" class="st13" width="6.8" height="3.8"/>
		<rect x="269.5" y="176.4" class="st13" width="6.8" height="3.8"/>
		<rect x="255.9" y="180.2" class="st13" width="6.8" height="3.8"/>
		<rect x="262.7" y="180.2" class="st13" width="6.8" height="3.8"/>
		<rect x="255.9" y="183.9" class="st13" width="6.8" height="3.8"/>
		<rect x="262.7" y="183.9" class="st13" width="6.8" height="3.8"/>
		<rect x="269.5" y="180.2" class="st13" width="6.8" height="3.8"/>
		<rect x="269.5" y="183.9" class="st13" width="6.8" height="3.8"/>
	</g>
</g>
<g>
	<rect x="473.5" y="173.3" class="st12" width="6.8" height="3.8"/>
	<rect x="480.3" y="173.3" class="st12" width="6.8" height="3.8"/>
	<rect x="487.2" y="173.3" class="st12" width="6.8" height="3.8"/>
	<g>
		<rect x="473.5" y="177.1" class="st13" width="6.8" height="3.8"/>
		<rect x="480.3" y="177.1" class="st13" width="6.8" height="3.8"/>
		<rect x="487.2" y="177.1" class="st13" width="6.8" height="3.8"/>
		<rect x="473.5" y="180.9" class="st13" width="6.8" height="3.8"/>
		<rect x="480.3" y="180.9" class="st13" width="6.8" height="3.8"/>
		<rect x="473.5" y="184.7" class="st13" width="6.8" height="3.8"/>
		<rect x="480.3" y="184.7" class="st13" width="6.8" height="3.8"/>
		<rect x="487.2" y="180.9" class="st13" width="6.8" height="3.8"/>
		<rect x="487.2" y="184.7" class="st13" width="6.8" height="3.8"/>
	</g>
</g>
<g>
	<rect x="364.1" y="173.3" class="st12" width="6.8" height="3.8"/>
	<rect x="371" y="173.3" class="st12" width="6.8" height="3.8"/>
	<rect x="377.8" y="173.3" class="st12" width="6.8" height="3.8"/>
	<g>
		<rect x="364.1" y="177.1" class="st13" width="6.8" height="3.8"/>
		<rect x="371" y="177.1" class="st13" width="6.8" height="3.8"/>
		<rect x="377.8" y="177.1" class="st13" width="6.8" height="3.8"/>
		<rect x="364.1" y="180.9" class="st13" width="6.8" height="3.8"/>
		<rect x="371" y="180.9" class="st13" width="6.8" height="3.8"/>
		<rect x="364.1" y="184.7" class="st13" width="6.8" height="3.8"/>
		<rect x="371" y="184.7" class="st13" width="6.8" height="3.8"/>
		<rect x="377.8" y="180.9" class="st13" width="6.8" height="3.8"/>
		<rect x="377.8" y="184.7" class="st13" width="6.8" height="3.8"/>
	</g>
</g>
<text transform="matrix(1 0 0 1 391.0663 178.1688)"><tspan x="0" y="0" class="st5 st10 st11">extract</tspan><tspan x="0" y="15" class="st4 st10 st11">timeline</tspan></text>
<text transform="matrix(1 0 0 1 500.9716 178.1688)"><tspan x="0" y="0" class="st5 st10 st11">extract</tspan><tspan x="0" y="15" class="st4 st10 st11">timeline</tspan></text>
<text transform="matrix(1 0 0 1 164.7578 92.2903)"><tspan x="0" y="0" class="st1 st10 st14">Wikipedia</tspan><tspan x="-13.9" y="15" class="st4 st10 st11">first-wave</tspan><tspan x="-9.3" y="30" class="st4 st10 st11">feminism</tspan></text>
<text transform="matrix(1 0 0 1 274.2941 92.2905)"><tspan x="0" y="0" class="st1 st10 st14">Wikipedia</tspan><tspan x="-17.8" y="15" class="st4 st10 st11">timeline of </tspan><tspan x="-12.6" y="30" class="st4 st10 st11">2nd-wave</tspan></text>
<text transform="matrix(1 0 0 1 383.8307 93.6797)"><tspan x="0" y="0" class="st1 st10 st14">Wikipedia</tspan><tspan x="-16.2" y="15" class="st4 st10 st11">third-wave</tspan><tspan x="-9.3" y="30" class="st4 st10 st11">feminism</tspan></text>
<text transform="matrix(1 0 0 1 493.3671 92.9796)"><tspan x="0" y="0" class="st1 st10 st14">Wikipedia</tspan><tspan x="-21.9" y="15" class="st4 st10 st11">tourth-wave</tspan><tspan x="-9.3" y="30" class="st4 st10 st11">feminism</tspan></text>
<line class="st0" x1="634.5" y1="8.5" x2="634.5" y2="128.8"/>
<text transform="matrix(1 0 0 1 328.4509 25.8285)"><tspan x="0" y="0" class="st1 st10 st14">Wikipedia</tspan><tspan x="-10.2" y="15" class="st4 st10 st11">Feminism</tspan></text>
<g>
	<text transform="matrix(1 0 0 1 645.6691 64.3629)"><tspan x="0" y="0" class="st1 st15 st11">Google search</tspan><tspan x="0" y="12" class="st1 st10 st14">english language</tspan></text>
	<text transform="matrix(1 0 0 1 645.6691 64.3629)"><tspan x="0" y="0" class="st2 st15 st11">Google search</tspan><tspan x="0" y="12" class="st2 st10 st14">english language</tspan></text>
</g>
<line class="st0" x1="634.5" y1="159.8" x2="634.5" y2="204.2"/>
<g>
	<text transform="matrix(1 0 0 1 645.7253 178.0208)"><tspan x="0" y="0" class="st1 st15 st11">BEAUTIFUL</tspan><tspan x="0" y="16.8" class="st1 st15 st11">SOUP</tspan></text>
	<text transform="matrix(1 0 0 1 645.7253 178.0208)"><tspan x="0" y="0" class="st2 st15 st11">BEAUTIFUL</tspan><tspan x="0" y="16.8" class="st2 st15 st11">SOUP</tspan></text>
</g>
<g>
	<text transform="matrix(1 0 0 1 645.725 290.0576)"><tspan x="0" y="0" class="st1 st15 st11">MANUAL </tspan><tspan x="0" y="16.8" class="st1 st15 st11">ANALYSIS</tspan></text>
	<text transform="matrix(1 0 0 1 645.725 290.0576)"><tspan x="0" y="0" class="st2 st15 st11">MANUAL </tspan><tspan x="0" y="16.8" class="st2 st15 st11">ANALYSIS</tspan></text>
</g>
<g>
	<g>
		<g>
			<g>
				<polyline class="st7" points="187.2,75 187.2,65.1 296.8,65.1 296.8,75 				"/>
				<g>
					<polygon class="st4" points="191.3,71.6 190.6,71 187.2,74.6 183.9,71 183.1,71.6 187.2,76 					"/>
				</g>
				<g>
					<polygon class="st4" points="292.7,71.6 293.4,71 296.8,74.6 300.1,71 300.8,71.6 296.8,76 					"/>
				</g>
			</g>
		</g>
		<g>
			<g>
				<polyline class="st7" points="406.3,75 406.3,65.1 515.8,65.1 515.8,75 				"/>
				<g>
					<polygon class="st4" points="410.4,71.6 409.7,71 406.3,74.6 402.9,71 402.2,71.6 406.3,76 					"/>
				</g>
				<g>
					<polygon class="st4" points="511.7,71.6 512.5,71 515.8,74.6 519.2,71 519.9,71.6 515.8,76 					"/>
				</g>
			</g>
		</g>
		<polyline class="st7" points="296.8,65.1 351.5,65.1 406.3,65.1 		"/>
	</g>
	<line class="st7" x1="351.5" y1="56.6" x2="351.5" y2="65.1"/>
</g>
<g>
	<g>
		<line class="st7" x1="350.7" y1="218.4" x2="350.7" y2="228.3"/>
		<g>
			<polygon class="st4" points="346.6,225 347.4,224.3 350.7,227.9 354.1,224.3 354.8,225 350.7,229.4 			"/>
		</g>
	</g>
	<polyline class="st7" points="296.8,209.9 296.8,218.4 350.6,218.4 406,218.4 406,209.9 	"/>
</g>
<g>
	<polyline class="st7" points="406,218.4 456.4,218.4 507.5,218.4 507.5,209.9 	"/>
</g>
<g>
	<polyline class="st7" points="187.3,209.9 187.3,218.4 242.4,218.4 296.8,218.4 	"/>
</g>
<g>
	<text transform="matrix(1 0 0 1 642.9697 404.731)"><tspan x="0" y="0" class="st1 st15 st11">google trends</tspan><tspan x="0" y="12" class="st1 st10 st14">2012-2018</tspan></text>
	<text transform="matrix(1 0 0 1 642.9697 404.731)"><tspan x="0" y="0" class="st2 st15 st11">google trends</tspan><tspan x="0" y="12" class="st2 st10 st14">2012-2018</tspan></text>
</g>
<line class="st0" x1="634.5" y1="235.3" x2="634.5" y2="353.1"/>
<line class="st0" x1="634.5" y1="385.7" x2="634.5" y2="430.1"/>
<rect x="10.9" y="10.9" class="st5" width="118.9" height="20.9"/>
<g>
	<path class="st9" d="M20.6,17c2.2,0,3.4,1.1,3.4,3.3V22c0,2.2-1.2,3.3-3.4,3.3h-2.7v-8.4h2.7V17z M19.2,24.1h1.4c1.4,0,2-0.7,2-2.1
		v-1.8c0-1.4-0.6-2.1-2-2.1h-1.3v6H19.2z"/>
	<path class="st9" d="M29.6,17l2.5,8.4h-1.5L30,23.5h-3.2l-0.6,1.9h-1.5l2.5-8.4H29.6z M29.7,22.2l-1.2-4h-0.1l-1.2,4H29.7z"/>
	<path class="st9" d="M38.8,17v1.3h-2.6v7.1h-1.4v-7.1h-2.6V17H38.8z"/>
	<path class="st9" d="M43.5,17l2.5,8.4h-1.5l-0.6-1.9h-3.2l-0.6,1.9h-1.5l2.5-8.4H43.5z M43.6,22.2l-1.2-4h-0.1l-1.2,4H43.6z"/>
	<path class="st9" d="M54.3,16.8c2.1,0,3.2,1.2,3.2,3v0.3h-1.4v-0.2c0-1.1-0.6-1.8-1.8-1.8c-1.3,0-2,0.8-2,2.1v2
		c0,1.3,0.7,2.1,2,2.1s1.8-0.7,1.8-1.8v-0.2h1.5v0.2c0,1.9-1.1,3.1-3.2,3.1S51,24.4,51,22.2v-1.9C50.9,18.1,52.2,16.8,54.3,16.8z"/>
	<path class="st9" d="M62.3,16.8c2.1,0,3.4,1.3,3.4,3.5v1.8c0,2.2-1.3,3.5-3.4,3.5s-3.4-1.3-3.4-3.5v-1.8
		C58.9,18.1,60.2,16.8,62.3,16.8z M60.3,22.2c0,1.3,0.6,2.1,2,2.1s2-0.8,2-2.1v-1.9c0-1.3-0.7-2.1-2-2.1s-2,0.8-2,2.1V22.2z"/>
	<path class="st9" d="M68.8,17v7.1h4v1.3h-5.4V17H68.8z"/>
	<path class="st9" d="M75.6,17v7.1h4v1.3h-5.4V17H75.6z"/>
	<path class="st9" d="M86.5,17v1.3h-4.1v2.3h3.7v1.3h-3.7v2.3h4.1v1.3H81v-8.4L86.5,17L86.5,17z"/>
	<path class="st9" d="M91.3,16.8c2.1,0,3.2,1.2,3.2,3v0.3h-1.4v-0.2c0-1.1-0.6-1.8-1.8-1.8c-1.3,0-2,0.8-2,2.1v2
		c0,1.3,0.7,2.1,2,2.1s1.8-0.7,1.8-1.8v-0.2h1.4v0.2c0,1.9-1.1,3.1-3.2,3.1s-3.4-1.2-3.4-3.4v-1.9C87.9,18.1,89.2,16.8,91.3,16.8z"
		/>
	<path class="st9" d="M102.1,17v1.3h-2.6v7.1h-1.4v-7.1h-2.6V17H102.1z"/>
	<path class="st9" d="M104.9,17v8.4h-1.4V17H104.9z"/>
	<path class="st9" d="M110,16.8c2.1,0,3.4,1.3,3.4,3.5v1.8c0,2.2-1.3,3.5-3.4,3.5s-3.4-1.3-3.4-3.5v-1.8
		C106.6,18.1,107.9,16.8,110,16.8z M108,22.2c0,1.3,0.6,2.1,2,2.1s2-0.8,2-2.1v-1.9c0-1.3-0.7-2.1-2-2.1s-2,0.8-2,2.1
		C108,20.3,108,22.2,108,22.2z"/>
	<path class="st9" d="M117.6,17l2.3,7.1h0.1V17h1.4v8.4h-2.5l-2.3-7.1h-0.1v7.1h-1.4V17H117.6z"/>
</g>
<rect x="10.9" y="237.2" class="st5" width="127" height="20.9"/>
<g>
	<path class="st9" d="M21.8,244.3c2.2,0,3.4,1.1,3.4,3.3v1.7c0,2.2-1.2,3.3-3.4,3.3h-2.7v-8.4L21.8,244.3L21.8,244.3z M20.4,251.4
		h1.3c1.4,0,2-0.7,2-2.1v-1.8c0-1.4-0.6-2.1-2-2.1h-1.3V251.4z"/>
	<path class="st9" d="M30.8,244.3l2.5,8.4h-1.5l-0.6-1.9H28l-0.6,1.9h-1.5l2.5-8.4H30.8z M30.9,249.5l-1.2-4h-0.1l-1.2,4H30.9z"/>
	<path class="st9" d="M39.9,244.3v1.3h-2.6v7.1h-1.4v-7.1h-2.6v-1.3H39.9z"/>
	<path class="st9" d="M44.7,244.3l2.5,8.4h-1.5l-0.6-1.9h-3.2l-0.6,1.9h-1.5l2.5-8.4H44.7z M44.8,249.5l-1.2-4h-0.1l-1.2,4H44.8z"/>
	<path class="st9" d="M57.9,244.3v1.3h-4.1v2.3h3.8v1.3h-3.7v2.3H58v1.3h-5.5v-8.4h5.4V244.3z"/>
	<path class="st9" d="M60.6,244.3l1.9,3.2h0.2l1.8-3.2h1.6l-2.4,4.1v0.2l2.4,4.2h-1.6l-1.9-3.2h-0.2l-1.9,3.2h-1.6l2.5-4.2v-0.2
		l-2.4-4.1H60.6z"/>
	<path class="st9" d="M70.9,244.3c1.6,0,2.6,1,2.6,2.6s-1.1,2.6-2.6,2.6h-2v3.2h-1.3v-8.4L70.9,244.3L70.9,244.3z M69,248.2h1.8
		c0.9,0,1.4-0.5,1.4-1.3s-0.5-1.3-1.4-1.3H69V248.2z"/>
	<path class="st9" d="M76.4,244.3v7.1h4v1.3H75v-8.4L76.4,244.3L76.4,244.3z"/>
	<path class="st9" d="M85,244.1c2.1,0,3.4,1.3,3.4,3.5v1.8c0,2.2-1.3,3.5-3.4,3.5s-3.4-1.3-3.4-3.5v-1.8
		C81.6,245.4,82.9,244.1,85,244.1z M83,249.4c0,1.3,0.6,2.1,2,2.1s2-0.8,2-2.1v-1.9c0-1.3-0.7-2.1-2-2.1s-2,0.8-2,2.1V249.4z"/>
	<path class="st9" d="M94.4,249.3l1.8,3.4h-1.6l-1.7-3.3h-1.5v3.3H90v-8.4h3.6c1.6,0,2.6,1,2.6,2.6C96.3,248.1,95.5,249,94.4,249.3z
		 M91.4,248.1h2.1c0.9,0,1.4-0.5,1.4-1.3s-0.5-1.3-1.4-1.3h-2.1V248.1z"/>
	<path class="st9" d="M101.9,244.3l2.5,8.4h-1.5l-0.6-1.9h-3.2l-0.6,1.9H97l2.5-8.4H101.9z M102,249.5l-1.2-4h-0.1l-1.2,4H102z"/>
	<path class="st9" d="M111.1,244.3v1.3h-2.6v7.1h-1.4v-7.1h-2.6v-1.3H111.1z"/>
	<path class="st9" d="M113.9,244.3v8.4h-1.4v-8.4H113.9z"/>
	<path class="st9" d="M119,244.1c2.1,0,3.4,1.3,3.4,3.5v1.8c0,2.2-1.3,3.5-3.4,3.5c-2.1,0-3.4-1.3-3.4-3.5v-1.8
		C115.6,245.4,116.9,244.1,119,244.1z M117,249.4c0,1.3,0.6,2.1,2,2.1s2-0.8,2-2.1v-1.9c0-1.3-0.7-2.1-2-2.1s-2,0.8-2,2.1V249.4z"/>
	<path class="st9" d="M126.6,244.3l2.3,7.1h0.1v-7.1h1.4v8.4h-2.5l-2.3-7.1h-0.1v7.1h-1.4v-8.4H126.6z"/>
</g>
<g>
	<text transform="matrix(1 0 0 1 642.8007 482.2899)"><tspan x="0" y="0" class="st1 st15 st11">GOOGLE SEARCH</tspan><tspan x="0" y="12" class="st1 st10 st14">2012-2018</tspan></text>
	<text transform="matrix(1 0 0 1 642.8007 482.2899)"><tspan x="0" y="0" class="st2 st15 st11">GOOGLE SEARCH</tspan><tspan x="0" y="12" class="st2 st10 st14">2012-2018</tspan></text>
</g>
<line class="st0" x1="634.5" y1="462.3" x2="634.5" y2="506.7"/>
<g>
	<g>
		<line class="st7" x1="515.4" y1="209.9" x2="515.4" y2="300.3"/>
		<g>
			<polygon class="st4" points="511.3,297 512,296.3 515.4,299.9 518.8,296.3 519.5,297 515.4,301.4 			"/>
		</g>
	</g>
</g>
<g>
	<g>
		<line class="st7" x1="350.9" y1="360.1" x2="350.9" y2="528.9"/>
		<g>
			<polygon class="st4" points="346.8,525.6 347.5,525 350.9,528.6 354.2,525 354.9,525.6 350.9,530 			"/>
		</g>
	</g>
</g>
<g>
	<line class="st7" x1="515.3" y1="439" x2="515.3" y2="452.1"/>
	<g>
		<polygon class="st4" points="511.2,448.8 511.9,448.1 515.3,451.7 518.6,448.1 519.4,448.8 515.3,453.2 		"/>
	</g>
</g>
<rect x="0" y="530" class="st3" width="621.2" height="61.7"/>
<rect x="271.8" y="541" class="st8" width="156.7" height="37.8"/>
<rect x="451.4" y="541" class="st8" width="125.5" height="37.8"/>
<text transform="matrix(1 0 0 1 307.486 556.2122)"><tspan x="0" y="0" class="st4 st10 st11">differences </tspan><tspan x="-30.6" y="15" class="st4 st10 st11">between the phases</tspan></text>
<text transform="matrix(1 0 0 1 477.8229 556.2119)"><tspan x="0" y="0" class="st4 st10 st11">timeline of</tspan><tspan x="-15.5" y="15" class="st4 st10 st11">online activism</tspan></text>
<g>
	<text transform="matrix(1 0 0 1 642.8012 555.4647)"><tspan x="0" y="0" class="st1 st15 st11">RAW GRAPHS</tspan><tspan x="0" y="16.8" class="st1 st15 st11">&amp; ILLUSTRATOR</tspan></text>
	<text transform="matrix(1 0 0 1 642.8012 555.4647)"><tspan x="0" y="0" class="st2 st15 st11">RAW GRAPHS</tspan><tspan x="0" y="16.8" class="st2 st15 st11">&amp; ILLUSTRATOR</tspan></text>
</g>
<line class="st0" x1="634.4" y1="537.6" x2="634.4" y2="582"/>
<rect x="10.8" y="541.5" class="st5" width="101.3" height="20.9"/>
<g>
	<path class="st9" d="M18.8,548.5l2,7.1h0.1l2-7.1h1.5l-2.5,8.4h-2.2l-2.5-8.4H18.8z"/>
	<path class="st9" d="M27.2,548.5v8.4h-1.4v-8.4H27.2z"/>
	<path class="st9" d="M35.1,551v0.4h-1.4v-0.3c0-1-0.7-1.5-1.7-1.5c-0.9,0-1.5,0.5-1.5,1.1c0,0.8,0.6,1,1.7,1.2l0.3,0.1
		c1.6,0.4,2.6,1,2.6,2.5c0,1.6-1.3,2.6-3,2.6c-2.1,0-3.4-1.2-3.4-3.1v-0.3h1.4v0.3c0,1.2,0.7,1.9,2,1.9c1.1,0,1.6-0.6,1.6-1.3
		c0-0.8-0.6-1.1-1.7-1.3l-0.3-0.1c-1.6-0.4-2.7-0.9-2.7-2.5c0-1.5,1.3-2.4,2.9-2.4C33.8,548.3,35.1,549.3,35.1,551z"/>
	<path class="st9" d="M38.3,548.5v5.5c0,1.1,0.6,1.8,1.8,1.8s1.8-0.6,1.8-1.8v-5.5h1.4v5.5c0,1.9-1.2,3.1-3.2,3.1s-3.2-1.1-3.2-3.1
		v-5.5H38.3z"/>
	<path class="st9" d="M49.3,548.5l2.5,8.4h-1.5l-0.6-1.9h-3.2l-0.6,1.9h-1.5l2.5-8.4H49.3z M49.4,553.7l-1.2-4h-0.1l-1.2,4H49.4z"/>
	<path class="st9" d="M54.5,548.5v7.1h4v1.3h-5.4v-8.4H54.5z"/>
	<path class="st9" d="M61.4,548.5v8.4H60v-8.4H61.4z"/>
	<path class="st9" d="M69,548.5v1.2l-4.3,5.9H69v1.3h-6v-1.2l4.3-5.9h-4.1v-1.3H69z"/>
	<path class="st9" d="M74.8,548.5l2.5,8.4h-1.5l-0.6-1.9H72l-0.6,1.9h-1.5l2.5-8.4H74.8z M74.9,553.7l-1.2-4h-0.1l-1.2,4H74.9z"/>
	<path class="st9" d="M84,548.5v1.3h-2.6v7.1H80v-7.1h-2.6v-1.3H84z"/>
	<path class="st9" d="M86.8,548.5v8.4h-1.4v-8.4H86.8z"/>
	<path class="st9" d="M91.9,548.3c2.1,0,3.4,1.3,3.4,3.5v1.8c0,2.2-1.3,3.5-3.4,3.5s-3.4-1.3-3.4-3.5v-1.8
		C88.5,549.6,89.8,548.3,91.9,548.3z M89.9,553.7c0,1.3,0.6,2.1,2,2.1s2-0.8,2-2.1v-1.9c0-1.3-0.7-2.1-2-2.1s-2,0.8-2,2.1V553.7z"/>
	<path class="st9" d="M99.5,548.5l2.3,7.1h0.1v-7.1h1.4v8.4h-2.5l-2.3-7.1h-0.1v7.1H97v-8.4H99.5z"/>
</g>
<g>
	<line class="st7" x1="515.3" y1="515.5" x2="515.3" y2="528.6"/>
	<g>
		<polygon class="st4" points="511.2,525.3 511.9,524.6 515.3,528.2 518.6,524.6 519.4,525.3 515.3,529.7 		"/>
	</g>
</g>
</svg>
