<?xml version="1.0" encoding="utf-8"?>
<!-- Generator: Adobe Illustrator 22.1.0, SVG Export Plug-In . SVG Version: 6.00 Build 0)  -->
<svg version="1.1" id="图层_1" xmlns="http://www.w3.org/2000/svg" xmlns:xlink="http://www.w3.org/1999/xlink" x="0px" y="0px"
	 viewBox="0 0 1344.9 1017.3" style="enable-background:new 0 0 1344.9 1017.3;" xml:space="preserve">
<style type="text/css">
	.st0{fill:none;}
	.st1{fill:#F8B232;}
	.st2{fill:#BEBB32;}
	.st3{fill:#95C13D;}
	.st4{fill:#65BC46;stroke:#65BC46;stroke-miterlimit:10;}
	.st5{fill:#C7C6C5;}
	.st6{fill:#FFFFFF;}
	.st7{font-family:'Fira Sans', sans-serif; font-weight:400;}
	.st8{font-size:15px;}
	.st9{opacity:0.85;fill:url(#SVGID_1_);stroke:#65BC46;stroke-width:2;stroke-miterlimit:10;}
	.st10{opacity:0.85;fill:url(#SVGID_2_);stroke:#65BC46;stroke-width:2;stroke-miterlimit:10;}
	.st11{opacity:0.85;fill:url(#SVGID_3_);stroke:#ACBD37;stroke-width:2;stroke-miterlimit:10;}
	.st12{opacity:0.85;fill:url(#SVGID_4_);stroke:#95C13D;stroke-width:2;stroke-miterlimit:10;}
	.st13{opacity:0.85;fill:url(#SVGID_5_);stroke:#65BC46;stroke-width:2;stroke-miterlimit:10;}
	.st14{opacity:0.85;fill:url(#SVGID_6_);stroke:#ACBD37;stroke-width:2;stroke-miterlimit:10;}
	.st15{opacity:0.85;}
	.st16{fill:url(#SVGID_7_);}
	.st17{opacity:0.85;fill:url(#SVGID_8_);stroke:#ACBD37;stroke-width:2;stroke-miterlimit:10;}
	.st18{opacity:0.85;fill:url(#SVGID_9_);stroke:#C7C6C5;stroke-width:2;stroke-miterlimit:10;}
	.st19{opacity:0.85;fill:url(#SVGID_10_);stroke:#95C13D;stroke-width:2;stroke-miterlimit:10;}
	.st20{font-family:'Fira Sans', sans-serif; font-weight:400; font-style: italic;}
	.st21{font-size:12px;}
	.st22{fill:#ACBD37;}
	.st23{font-size:14px;}
	.st24{fill:#65BC46;}
	.st25{opacity:0.4;fill:none;stroke:#FFFFFF;stroke-miterlimit:10;stroke-dasharray:2,2;}
	.st26{font-size:9px;}
	.st27{font-size:11px;}
</style>
<pattern  x="4.3" y="-245.9" width="172" height="172" patternUnits="userSpaceOnUse" id="Nueva_muestra_de_motivo_2" viewBox="0 -242.2 172 172" style="overflow:visible;">
	<g>
		<rect x="0" y="-242.2" class="st0" width="172" height="172"/>
		<g>
			<polygon class="st1" points="172,-5.2 237,-70.3 242.3,-70.3 172,0 			"/>
		</g>
		<g>
			<polygon class="st1" points="0,-5.2 65,-70.3 70.3,-70.3 0,0 			"/>
		</g>
		<g>
			<polygon class="st1" points="172,-201.8 212.4,-242.2 217.6,-242.2 172,-196.6 			"/>
			<polygon class="st1" points="172,-177.2 237,-242.3 242.3,-242.3 172,-172 			"/>
			<polygon class="st1" points="172,-164.9 249.3,-242.2 254.5,-242.2 172,-159.7 			"/>
			<polygon class="st1" points="172,-189.5 224.7,-242.2 229.9,-242.2 172,-184.3 			"/>
			<polygon class="st1" points="172,-214.1 200.1,-242.2 205.3,-242.2 172,-208.9 			"/>
			<polygon class="st1" points="172,-238.6 175.6,-242.2 180.8,-242.2 172,-233.4 			"/>
			<polygon class="st1" points="172,-226.4 187.8,-242.2 193.1,-242.2 172,-221.1 			"/>
		</g>
		<g>
			<polygon class="st1" points="0,-201.8 40.4,-242.2 45.6,-242.2 0,-196.6 			"/>
			<polygon class="st1" points="0,-78.9 163.3,-242.2 168.5,-242.2 0,-73.7 			"/>
			<polygon class="st1" points="0,-128.1 114.1,-242.2 119.3,-242.2 0,-122.9 			"/>
			<polygon class="st1" points="0,-91.2 151,-242.2 156.2,-242.2 0,-86 			"/>
			<polygon class="st1" points="0,-115.8 126.4,-242.2 131.6,-242.2 0,-110.6 			"/>
			<polygon class="st1" points="3.6,-70.2 172,-238.6 172,-233.4 8.8,-70.2 			"/>
			<polygon class="st1" points="0,-177.2 65,-242.3 70.3,-242.3 0,-172 			"/>
			<polygon class="st1" points="0,-164.9 77.3,-242.2 82.5,-242.2 0,-159.7 			"/>
			<polygon class="st1" points="0,-189.5 52.7,-242.2 57.9,-242.2 0,-184.3 			"/>
			<polygon class="st1" points="0,-152.7 89.6,-242.2 94.8,-242.2 0,-147.4 			"/>
			<polygon class="st1" points="0,-140.4 101.8,-242.2 107.1,-242.2 0,-135.2 			"/>
			<polygon class="st1" points="0,-103.5 138.7,-242.2 143.9,-242.2 0,-98.3 			"/>
			<polygon class="st1" points="0,-214.1 28.1,-242.2 33.3,-242.2 0,-208.9 			"/>
			<polygon class="st1" points="77.3,-70.2 172,-164.9 172,-159.7 82.5,-70.2 			"/>
			<polygon class="st1" points="101.8,-70.2 172,-140.3 172,-135.1 107.1,-70.2 			"/>
			<polygon class="st1" points="65,-70.2 172,-177.2 172,-172 70.2,-70.2 			"/>
			<polygon class="st1" points="52.7,-70.2 172,-189.5 172,-184.3 57.9,-70.2 			"/>
			<polygon class="st1" points="40.4,-70.2 172,-201.8 172,-196.6 45.6,-70.2 			"/>
			<polygon class="st1" points="163.3,-70.2 172,-78.9 172,-73.7 168.5,-70.2 			"/>
			<polygon class="st1" points="114.1,-70.2 172,-128.1 172,-122.8 119.3,-70.2 			"/>
			<polygon class="st1" points="151,-70.2 172,-91.2 172,-86 156.2,-70.2 			"/>
			<polygon class="st1" points="126.4,-70.2 172,-115.8 172,-110.6 131.6,-70.2 			"/>
			<polygon class="st1" points="138.7,-70.2 172,-103.5 172,-98.3 143.9,-70.2 			"/>
			<polygon class="st1" points="89.6,-70.2 172,-152.6 172,-147.4 94.8,-70.2 			"/>
			<polygon class="st1" points="28.1,-70.2 172,-214.1 172,-208.8 33.3,-70.2 			"/>
			<polygon class="st1" points="0,-238.6 3.6,-242.2 8.8,-242.2 0,-233.4 			"/>
			<polygon class="st1" points="15.8,-70.2 172,-226.3 172,-221.1 21.1,-70.2 			"/>
			<polygon class="st1" points="0,-226.4 15.8,-242.2 21.1,-242.2 0,-221.1 			"/>
		</g>
	</g>
</pattern>
<pattern  x="4.3" y="-245.9" width="172" height="172" patternUnits="userSpaceOnUse" id="Nueva_muestra_de_motivo_copia_3" viewBox="0 -242.2 172 172" style="overflow:visible;">
	<g>
		<rect x="0" y="-242.2" class="st0" width="172" height="172"/>
		<g>
			<polygon class="st2" points="172,-5.2 237,-70.3 242.3,-70.3 172,0 			"/>
		</g>
		<g>
			<polygon class="st2" points="0,-5.2 65,-70.3 70.3,-70.3 0,0 			"/>
		</g>
		<g>
			<polygon class="st2" points="172,-201.8 212.4,-242.2 217.6,-242.2 172,-196.6 			"/>
			<polygon class="st2" points="172,-177.2 237,-242.3 242.3,-242.3 172,-172 			"/>
			<polygon class="st2" points="172,-164.9 249.3,-242.2 254.5,-242.2 172,-159.7 			"/>
			<polygon class="st2" points="172,-189.5 224.7,-242.2 229.9,-242.2 172,-184.3 			"/>
			<polygon class="st2" points="172,-214.1 200.1,-242.2 205.3,-242.2 172,-208.9 			"/>
			<polygon class="st2" points="172,-238.6 175.6,-242.2 180.8,-242.2 172,-233.4 			"/>
			<polygon class="st2" points="172,-226.4 187.8,-242.2 193.1,-242.2 172,-221.1 			"/>
		</g>
		<g>
			<polygon class="st2" points="0,-201.8 40.4,-242.2 45.6,-242.2 0,-196.6 			"/>
			<polygon class="st2" points="0,-78.9 163.3,-242.2 168.5,-242.2 0,-73.7 			"/>
			<polygon class="st2" points="0,-128.1 114.1,-242.2 119.3,-242.2 0,-122.9 			"/>
			<polygon class="st2" points="0,-91.2 151,-242.2 156.2,-242.2 0,-86 			"/>
			<polygon class="st2" points="0,-115.8 126.4,-242.2 131.6,-242.2 0,-110.6 			"/>
			<polygon class="st2" points="3.6,-70.2 172,-238.6 172,-233.4 8.8,-70.2 			"/>
			<polygon class="st2" points="0,-177.2 65,-242.3 70.3,-242.3 0,-172 			"/>
			<polygon class="st2" points="0,-164.9 77.3,-242.2 82.5,-242.2 0,-159.7 			"/>
			<polygon class="st2" points="0,-189.5 52.7,-242.2 57.9,-242.2 0,-184.3 			"/>
			<polygon class="st2" points="0,-152.7 89.6,-242.2 94.8,-242.2 0,-147.4 			"/>
			<polygon class="st2" points="0,-140.4 101.8,-242.2 107.1,-242.2 0,-135.2 			"/>
			<polygon class="st2" points="0,-103.5 138.7,-242.2 143.9,-242.2 0,-98.3 			"/>
			<polygon class="st2" points="0,-214.1 28.1,-242.2 33.3,-242.2 0,-208.9 			"/>
			<polygon class="st2" points="77.3,-70.2 172,-164.9 172,-159.7 82.5,-70.2 			"/>
			<polygon class="st2" points="101.8,-70.2 172,-140.3 172,-135.1 107.1,-70.2 			"/>
			<polygon class="st2" points="65,-70.2 172,-177.2 172,-172 70.2,-70.2 			"/>
			<polygon class="st2" points="52.7,-70.2 172,-189.5 172,-184.3 57.9,-70.2 			"/>
			<polygon class="st2" points="40.4,-70.2 172,-201.8 172,-196.6 45.6,-70.2 			"/>
			<polygon class="st2" points="163.3,-70.2 172,-78.9 172,-73.7 168.5,-70.2 			"/>
			<polygon class="st2" points="114.1,-70.2 172,-128.1 172,-122.8 119.3,-70.2 			"/>
			<polygon class="st2" points="151,-70.2 172,-91.2 172,-86 156.2,-70.2 			"/>
			<polygon class="st2" points="126.4,-70.2 172,-115.8 172,-110.6 131.6,-70.2 			"/>
			<polygon class="st2" points="138.7,-70.2 172,-103.5 172,-98.3 143.9,-70.2 			"/>
			<polygon class="st2" points="89.6,-70.2 172,-152.6 172,-147.4 94.8,-70.2 			"/>
			<polygon class="st2" points="28.1,-70.2 172,-214.1 172,-208.8 33.3,-70.2 			"/>
			<polygon class="st2" points="0,-238.6 3.6,-242.2 8.8,-242.2 0,-233.4 			"/>
			<polygon class="st2" points="15.8,-70.2 172,-226.3 172,-221.1 21.1,-70.2 			"/>
			<polygon class="st2" points="0,-226.4 15.8,-242.2 21.1,-242.2 0,-221.1 			"/>
		</g>
	</g>
</pattern>
<pattern  x="4.3" y="-245.9" width="172" height="172" patternUnits="userSpaceOnUse" id="Nueva_muestra_de_motivo_copia_4" viewBox="0 -242.2 172 172" style="overflow:visible;">
	<g>
		<rect x="0" y="-242.2" class="st0" width="172" height="172"/>
		<g>
			<polygon class="st3" points="172,-5.2 237,-70.3 242.3,-70.3 172,0 			"/>
		</g>
		<g>
			<polygon class="st3" points="0,-5.2 65,-70.3 70.3,-70.3 0,0 			"/>
		</g>
		<g>
			<polygon class="st3" points="172,-201.8 212.4,-242.2 217.6,-242.2 172,-196.6 			"/>
			<polygon class="st3" points="172,-177.2 237,-242.3 242.3,-242.3 172,-172 			"/>
			<polygon class="st3" points="172,-164.9 249.3,-242.2 254.5,-242.2 172,-159.7 			"/>
			<polygon class="st3" points="172,-189.5 224.7,-242.2 229.9,-242.2 172,-184.3 			"/>
			<polygon class="st3" points="172,-214.1 200.1,-242.2 205.3,-242.2 172,-208.9 			"/>
			<polygon class="st3" points="172,-238.6 175.6,-242.2 180.8,-242.2 172,-233.4 			"/>
			<polygon class="st3" points="172,-226.4 187.8,-242.2 193.1,-242.2 172,-221.1 			"/>
		</g>
		<g>
			<polygon class="st3" points="0,-201.8 40.4,-242.2 45.6,-242.2 0,-196.6 			"/>
			<polygon class="st3" points="0,-78.9 163.3,-242.2 168.5,-242.2 0,-73.7 			"/>
			<polygon class="st3" points="0,-128.1 114.1,-242.2 119.3,-242.2 0,-122.9 			"/>
			<polygon class="st3" points="0,-91.2 151,-242.2 156.2,-242.2 0,-86 			"/>
			<polygon class="st3" points="0,-115.8 126.4,-242.2 131.6,-242.2 0,-110.6 			"/>
			<polygon class="st3" points="3.6,-70.2 172,-238.6 172,-233.4 8.8,-70.2 			"/>
			<polygon class="st3" points="0,-177.2 65,-242.3 70.3,-242.3 0,-172 			"/>
			<polygon class="st3" points="0,-164.9 77.3,-242.2 82.5,-242.2 0,-159.7 			"/>
			<polygon class="st3" points="0,-189.5 52.7,-242.2 57.9,-242.2 0,-184.3 			"/>
			<polygon class="st3" points="0,-152.7 89.6,-242.2 94.8,-242.2 0,-147.4 			"/>
			<polygon class="st3" points="0,-140.4 101.8,-242.2 107.1,-242.2 0,-135.2 			"/>
			<polygon class="st3" points="0,-103.5 138.7,-242.2 143.9,-242.2 0,-98.3 			"/>
			<polygon class="st3" points="0,-214.1 28.1,-242.2 33.3,-242.2 0,-208.9 			"/>
			<polygon class="st3" points="77.3,-70.2 172,-164.9 172,-159.7 82.5,-70.2 			"/>
			<polygon class="st3" points="101.8,-70.2 172,-140.3 172,-135.1 107.1,-70.2 			"/>
			<polygon class="st3" points="65,-70.2 172,-177.2 172,-172 70.2,-70.2 			"/>
			<polygon class="st3" points="52.7,-70.2 172,-189.5 172,-184.3 57.9,-70.2 			"/>
			<polygon class="st3" points="40.4,-70.2 172,-201.8 172,-196.6 45.6,-70.2 			"/>
			<polygon class="st3" points="163.3,-70.2 172,-78.9 172,-73.7 168.5,-70.2 			"/>
			<polygon class="st3" points="114.1,-70.2 172,-128.1 172,-122.8 119.3,-70.2 			"/>
			<polygon class="st3" points="151,-70.2 172,-91.2 172,-86 156.2,-70.2 			"/>
			<polygon class="st3" points="126.4,-70.2 172,-115.8 172,-110.6 131.6,-70.2 			"/>
			<polygon class="st3" points="138.7,-70.2 172,-103.5 172,-98.3 143.9,-70.2 			"/>
			<polygon class="st3" points="89.6,-70.2 172,-152.6 172,-147.4 94.8,-70.2 			"/>
			<polygon class="st3" points="28.1,-70.2 172,-214.1 172,-208.8 33.3,-70.2 			"/>
			<polygon class="st3" points="0,-238.6 3.6,-242.2 8.8,-242.2 0,-233.4 			"/>
			<polygon class="st3" points="15.8,-70.2 172,-226.3 172,-221.1 21.1,-70.2 			"/>
			<polygon class="st3" points="0,-226.4 15.8,-242.2 21.1,-242.2 0,-221.1 			"/>
		</g>
	</g>
</pattern>
<pattern  x="4.3" y="-245.9" width="172" height="172" patternUnits="userSpaceOnUse" id="Nueva_muestra_de_motivo_copia_5" viewBox="169.7 -341.7 172 172" style="overflow:visible;">
	<g>
		<rect x="169.7" y="-341.7" class="st0" width="172" height="172"/>
		<g>
			<polygon class="st4" points="341.7,-129.3 382.1,-169.7 387.3,-169.7 341.7,-124 			"/>
			<polygon class="st4" points="341.7,-6.4 504.9,-169.7 510.1,-169.7 341.7,-1.2 			"/>
			<polygon class="st4" points="341.7,-55.6 455.8,-169.7 461,-169.7 341.7,-50.3 			"/>
			<polygon class="st4" points="341.7,-18.7 492.6,-169.7 497.9,-169.7 341.7,-13.5 			"/>
			<polygon class="st4" points="341.7,-43.3 468.1,-169.7 473.3,-169.7 341.7,-38.1 			"/>
			<polygon class="st4" points="341.7,-104.7 406.7,-169.7 411.9,-169.7 341.7,-99.5 			"/>
			<polygon class="st4" points="341.7,-92.4 418.9,-169.7 424.1,-169.7 341.7,-87.2 			"/>
			<polygon class="st4" points="341.7,-117 394.3,-169.7 399.6,-169.7 341.7,-111.8 			"/>
			<polygon class="st4" points="341.7,-80.1 431.2,-169.7 436.4,-169.7 341.7,-74.9 			"/>
			<polygon class="st4" points="341.7,-67.9 443.5,-169.7 448.7,-169.7 341.7,-62.6 			"/>
			<polygon class="st4" points="341.7,-31 480.3,-169.7 485.6,-169.7 341.7,-25.8 			"/>
			<polygon class="st4" points="341.7,-141.5 369.8,-169.7 375,-169.7 341.7,-136.3 			"/>
			<polygon class="st4" points="341.7,-166.1 345.2,-169.7 350.4,-169.7 341.7,-160.9 			"/>
			<polygon class="st4" points="341.7,-153.8 357.5,-169.7 362.7,-169.7 341.7,-148.6 			"/>
		</g>
		<g>
			<polygon class="st4" points="169.7,-129.3 210.1,-169.7 215.3,-169.7 169.7,-124 			"/>
			<polygon class="st4" points="169.7,-6.4 332.9,-169.7 338.1,-169.7 169.7,-1.2 			"/>
			<polygon class="st4" points="169.7,-55.6 283.8,-169.7 289,-169.7 169.7,-50.3 			"/>
			<polygon class="st4" points="169.7,-18.7 320.6,-169.7 325.9,-169.7 169.7,-13.5 			"/>
			<polygon class="st4" points="169.7,-43.3 296.1,-169.7 301.3,-169.7 169.7,-38.1 			"/>
			<polygon class="st4" points="169.7,-104.7 234.7,-169.7 239.9,-169.7 169.7,-99.5 			"/>
			<polygon class="st4" points="169.7,-92.4 246.9,-169.7 252.1,-169.7 169.7,-87.2 			"/>
			<polygon class="st4" points="169.7,-117 222.3,-169.7 227.6,-169.7 169.7,-111.8 			"/>
			<polygon class="st4" points="169.7,-80.1 259.2,-169.7 264.4,-169.7 169.7,-74.9 			"/>
			<polygon class="st4" points="169.7,-67.9 271.5,-169.7 276.7,-169.7 169.7,-62.6 			"/>
			<polygon class="st4" points="169.7,-31 308.3,-169.7 313.6,-169.7 169.7,-25.8 			"/>
			<polygon class="st4" points="169.7,-141.5 197.8,-169.7 203,-169.7 169.7,-136.3 			"/>
			<polygon class="st4" points="169.7,-166.1 173.2,-169.7 178.4,-169.7 169.7,-160.9 			"/>
			<polygon class="st4" points="169.7,-153.8 185.5,-169.7 190.7,-169.7 169.7,-148.6 			"/>
		</g>
		<g>
			<polygon class="st4" points="341.7,-301.3 382.1,-341.7 387.3,-341.7 341.7,-296 			"/>
			<polygon class="st4" points="341.7,-178.4 504.9,-341.7 510.1,-341.7 341.7,-173.2 			"/>
			<polygon class="st4" points="341.7,-227.6 455.8,-341.7 461,-341.7 341.7,-222.3 			"/>
			<polygon class="st4" points="341.7,-190.7 492.6,-341.7 497.9,-341.7 341.7,-185.5 			"/>
			<polygon class="st4" points="341.7,-215.3 468.1,-341.7 473.3,-341.7 341.7,-210.1 			"/>
			<polygon class="st4" points="341.7,-276.7 406.7,-341.7 411.9,-341.7 341.7,-271.5 			"/>
			<polygon class="st4" points="341.7,-264.4 418.9,-341.7 424.1,-341.7 341.7,-259.2 			"/>
			<polygon class="st4" points="341.7,-289 394.3,-341.7 399.6,-341.7 341.7,-283.8 			"/>
			<polygon class="st4" points="341.7,-252.1 431.2,-341.7 436.4,-341.7 341.7,-246.9 			"/>
			<polygon class="st4" points="341.7,-239.9 443.5,-341.7 448.7,-341.7 341.7,-234.6 			"/>
			<polygon class="st4" points="341.7,-203 480.3,-341.7 485.6,-341.7 341.7,-197.8 			"/>
			<polygon class="st4" points="341.7,-313.5 369.8,-341.7 375,-341.7 341.7,-308.3 			"/>
			<polygon class="st4" points="341.7,-338.1 345.2,-341.7 350.4,-341.7 341.7,-332.9 			"/>
			<polygon class="st4" points="341.7,-325.8 357.5,-341.7 362.7,-341.7 341.7,-320.6 			"/>
		</g>
		<g>
			<polygon class="st4" points="169.7,-301.3 210.1,-341.7 215.3,-341.7 169.7,-296 			"/>
			<polygon class="st4" points="169.7,-178.4 332.9,-341.7 338.1,-341.7 169.7,-173.2 			"/>
			<polygon class="st4" points="169.7,-227.6 283.8,-341.7 289,-341.7 169.7,-222.3 			"/>
			<polygon class="st4" points="169.7,-190.7 320.6,-341.7 325.9,-341.7 169.7,-185.5 			"/>
			<polygon class="st4" points="169.7,-215.3 296.1,-341.7 301.3,-341.7 169.7,-210.1 			"/>
			<polygon class="st4" points="173.2,-169.7 341.6,-338.1 341.6,-332.9 178.4,-169.7 			"/>
			<polygon class="st4" points="169.7,-276.7 234.7,-341.7 239.9,-341.7 169.7,-271.5 			"/>
			<polygon class="st4" points="169.7,-264.4 246.9,-341.7 252.1,-341.7 169.7,-259.2 			"/>
			<polygon class="st4" points="169.7,-289 222.3,-341.7 227.6,-341.7 169.7,-283.8 			"/>
			<polygon class="st4" points="169.7,-252.1 259.2,-341.7 264.4,-341.7 169.7,-246.9 			"/>
			<polygon class="st4" points="169.7,-239.9 271.5,-341.7 276.7,-341.7 169.7,-234.6 			"/>
			<polygon class="st4" points="169.7,-203 308.3,-341.7 313.6,-341.7 169.7,-197.8 			"/>
			<polygon class="st4" points="169.7,-313.5 197.8,-341.7 203,-341.7 169.7,-308.3 			"/>
			<polygon class="st4" points="246.9,-169.7 341.6,-264.4 341.6,-259.2 252.1,-169.7 			"/>
			<polygon class="st4" points="271.5,-169.7 341.6,-239.8 341.6,-234.6 276.7,-169.7 			"/>
			<polygon class="st4" points="234.6,-169.7 341.6,-276.7 341.6,-271.5 239.9,-169.7 			"/>
			<polygon class="st4" points="222.3,-169.7 341.6,-289 341.6,-283.7 227.6,-169.7 			"/>
			<polygon class="st4" points="210.1,-169.7 341.6,-301.2 341.6,-296 215.3,-169.7 			"/>
			<polygon class="st4" points="332.9,-169.7 341.6,-178.4 341.6,-173.2 338.1,-169.7 			"/>
			<polygon class="st4" points="283.8,-169.7 341.6,-227.5 341.6,-222.3 289,-169.7 			"/>
			<polygon class="st4" points="320.6,-169.7 341.6,-190.7 341.6,-185.5 325.9,-169.7 			"/>
			<polygon class="st4" points="296.1,-169.7 341.6,-215.2 341.6,-210 301.3,-169.7 			"/>
			<polygon class="st4" points="308.3,-169.7 341.6,-203 341.6,-197.7 313.6,-169.7 			"/>
			<polygon class="st4" points="259.2,-169.7 341.6,-252.1 341.6,-246.9 264.4,-169.7 			"/>
			<polygon class="st4" points="197.8,-169.7 341.6,-313.5 341.6,-308.3 203,-169.7 			"/>
			<polygon class="st4" points="169.7,-338.1 173.2,-341.7 178.4,-341.7 169.7,-332.9 			"/>
			<polygon class="st4" points="185.5,-169.7 341.6,-325.8 341.6,-320.6 190.7,-169.7 			"/>
			<polygon class="st4" points="169.7,-325.8 185.5,-341.7 190.7,-341.7 169.7,-320.6 			"/>
		</g>
		<g>
			<polygon class="st4" points="1.2,-169.7 169.6,-338.1 169.6,-332.9 6.4,-169.7 			"/>
			<polygon class="st4" points="74.9,-169.7 169.6,-264.4 169.6,-259.2 80.1,-169.7 			"/>
			<polygon class="st4" points="99.5,-169.7 169.6,-239.8 169.6,-234.6 104.7,-169.7 			"/>
			<polygon class="st4" points="62.6,-169.7 169.6,-276.7 169.6,-271.5 67.9,-169.7 			"/>
			<polygon class="st4" points="50.3,-169.7 169.6,-289 169.6,-283.7 55.6,-169.7 			"/>
			<polygon class="st4" points="38.1,-169.7 169.6,-301.2 169.6,-296 43.3,-169.7 			"/>
			<polygon class="st4" points="160.9,-169.7 169.6,-178.4 169.6,-173.2 166.1,-169.7 			"/>
			<polygon class="st4" points="111.8,-169.7 169.6,-227.5 169.6,-222.3 117,-169.7 			"/>
			<polygon class="st4" points="148.6,-169.7 169.6,-190.7 169.6,-185.5 153.9,-169.7 			"/>
			<polygon class="st4" points="124.1,-169.7 169.6,-215.2 169.6,-210 129.3,-169.7 			"/>
			<polygon class="st4" points="136.3,-169.7 169.6,-203 169.6,-197.7 141.6,-169.7 			"/>
			<polygon class="st4" points="87.2,-169.7 169.6,-252.1 169.6,-246.9 92.4,-169.7 			"/>
			<polygon class="st4" points="25.8,-169.7 169.6,-313.5 169.6,-308.3 31,-169.7 			"/>
			<polygon class="st4" points="13.5,-169.7 169.6,-325.8 169.6,-320.6 18.7,-169.7 			"/>
		</g>
		<g>
			<polygon class="st4" points="173.2,-341.7 341.6,-510.1 341.6,-504.9 178.4,-341.7 			"/>
			<polygon class="st4" points="246.9,-341.7 341.6,-436.4 341.6,-431.2 252.1,-341.7 			"/>
			<polygon class="st4" points="271.5,-341.7 341.6,-411.8 341.6,-406.6 276.7,-341.7 			"/>
			<polygon class="st4" points="234.6,-341.7 341.6,-448.7 341.6,-443.5 239.9,-341.7 			"/>
			<polygon class="st4" points="222.3,-341.7 341.6,-461 341.6,-455.7 227.6,-341.7 			"/>
			<polygon class="st4" points="210.1,-341.7 341.6,-473.2 341.6,-468 215.3,-341.7 			"/>
			<polygon class="st4" points="332.9,-341.7 341.6,-350.4 341.6,-345.2 338.1,-341.7 			"/>
			<polygon class="st4" points="283.8,-341.7 341.6,-399.5 341.6,-394.3 289,-341.7 			"/>
			<polygon class="st4" points="320.6,-341.7 341.6,-362.7 341.6,-357.5 325.9,-341.7 			"/>
			<polygon class="st4" points="296.1,-341.7 341.6,-387.2 341.6,-382 301.3,-341.7 			"/>
			<polygon class="st4" points="308.3,-341.7 341.6,-375 341.6,-369.7 313.6,-341.7 			"/>
			<polygon class="st4" points="259.2,-341.7 341.6,-424.1 341.6,-418.9 264.4,-341.7 			"/>
			<polygon class="st4" points="197.8,-341.7 341.6,-485.5 341.6,-480.3 203,-341.7 			"/>
			<polygon class="st4" points="185.5,-341.7 341.6,-497.8 341.6,-492.6 190.7,-341.7 			"/>
		</g>
		<g>
			<polygon class="st4" points="1.2,-341.7 169.6,-510.1 169.6,-504.9 6.4,-341.7 			"/>
			<polygon class="st4" points="74.9,-341.7 169.6,-436.4 169.6,-431.2 80.1,-341.7 			"/>
			<polygon class="st4" points="99.5,-341.7 169.6,-411.8 169.6,-406.6 104.7,-341.7 			"/>
			<polygon class="st4" points="62.6,-341.7 169.6,-448.7 169.6,-443.5 67.9,-341.7 			"/>
			<polygon class="st4" points="50.3,-341.7 169.6,-461 169.6,-455.7 55.6,-341.7 			"/>
			<polygon class="st4" points="38.1,-341.7 169.6,-473.2 169.6,-468 43.3,-341.7 			"/>
			<polygon class="st4" points="160.9,-341.7 169.6,-350.4 169.6,-345.2 166.1,-341.7 			"/>
			<polygon class="st4" points="111.8,-341.7 169.6,-399.5 169.6,-394.3 117,-341.7 			"/>
			<polygon class="st4" points="148.6,-341.7 169.6,-362.7 169.6,-357.5 153.9,-341.7 			"/>
			<polygon class="st4" points="124.1,-341.7 169.6,-387.2 169.6,-382 129.3,-341.7 			"/>
			<polygon class="st4" points="136.3,-341.7 169.6,-375 169.6,-369.7 141.6,-341.7 			"/>
			<polygon class="st4" points="87.2,-341.7 169.6,-424.1 169.6,-418.9 92.4,-341.7 			"/>
			<polygon class="st4" points="25.8,-341.7 169.6,-485.5 169.6,-480.3 31,-341.7 			"/>
			<polygon class="st4" points="13.5,-341.7 169.6,-497.8 169.6,-492.6 18.7,-341.7 			"/>
		</g>
	</g>
</pattern>
<pattern  x="4.3" y="-245.9" width="172" height="172" patternUnits="userSpaceOnUse" id="Nueva_muestra_de_motivo_copia_6" viewBox="0 -242.2 172 172" style="overflow:visible;">
	<g>
		<rect x="0" y="-242.2" class="st0" width="172" height="172"/>
		<g>
			<polygon class="st5" points="172,-5.2 237,-70.3 242.3,-70.3 172,0 			"/>
		</g>
		<g>
			<polygon class="st5" points="0,-5.2 65,-70.3 70.3,-70.3 0,0 			"/>
		</g>
		<g>
			<polygon class="st5" points="172,-201.8 212.4,-242.2 217.6,-242.2 172,-196.6 			"/>
			<polygon class="st5" points="172,-177.2 237,-242.3 242.3,-242.3 172,-172 			"/>
			<polygon class="st5" points="172,-164.9 249.3,-242.2 254.5,-242.2 172,-159.7 			"/>
			<polygon class="st5" points="172,-189.5 224.7,-242.2 229.9,-242.2 172,-184.3 			"/>
			<polygon class="st5" points="172,-214.1 200.1,-242.2 205.3,-242.2 172,-208.9 			"/>
			<polygon class="st5" points="172,-238.6 175.6,-242.2 180.8,-242.2 172,-233.4 			"/>
			<polygon class="st5" points="172,-226.4 187.8,-242.2 193.1,-242.2 172,-221.1 			"/>
		</g>
		<g>
			<polygon class="st5" points="0,-201.8 40.4,-242.2 45.6,-242.2 0,-196.6 			"/>
			<polygon class="st5" points="0,-78.9 163.3,-242.2 168.5,-242.2 0,-73.7 			"/>
			<polygon class="st5" points="0,-128.1 114.1,-242.2 119.3,-242.2 0,-122.9 			"/>
			<polygon class="st5" points="0,-91.2 151,-242.2 156.2,-242.2 0,-86 			"/>
			<polygon class="st5" points="0,-115.8 126.4,-242.2 131.6,-242.2 0,-110.6 			"/>
			<polygon class="st5" points="3.6,-70.2 172,-238.6 172,-233.4 8.8,-70.2 			"/>
			<polygon class="st5" points="0,-177.2 65,-242.3 70.3,-242.3 0,-172 			"/>
			<polygon class="st5" points="0,-164.9 77.3,-242.2 82.5,-242.2 0,-159.7 			"/>
			<polygon class="st5" points="0,-189.5 52.7,-242.2 57.9,-242.2 0,-184.3 			"/>
			<polygon class="st5" points="0,-152.7 89.6,-242.2 94.8,-242.2 0,-147.4 			"/>
			<polygon class="st5" points="0,-140.4 101.8,-242.2 107.1,-242.2 0,-135.2 			"/>
			<polygon class="st5" points="0,-103.5 138.7,-242.2 143.9,-242.2 0,-98.3 			"/>
			<polygon class="st5" points="0,-214.1 28.1,-242.2 33.3,-242.2 0,-208.9 			"/>
			<polygon class="st5" points="77.3,-70.2 172,-164.9 172,-159.7 82.5,-70.2 			"/>
			<polygon class="st5" points="101.8,-70.2 172,-140.3 172,-135.1 107.1,-70.2 			"/>
			<polygon class="st5" points="65,-70.2 172,-177.2 172,-172 70.2,-70.2 			"/>
			<polygon class="st5" points="52.7,-70.2 172,-189.5 172,-184.3 57.9,-70.2 			"/>
			<polygon class="st5" points="40.4,-70.2 172,-201.8 172,-196.6 45.6,-70.2 			"/>
			<polygon class="st5" points="163.3,-70.2 172,-78.9 172,-73.7 168.5,-70.2 			"/>
			<polygon class="st5" points="114.1,-70.2 172,-128.1 172,-122.8 119.3,-70.2 			"/>
			<polygon class="st5" points="151,-70.2 172,-91.2 172,-86 156.2,-70.2 			"/>
			<polygon class="st5" points="126.4,-70.2 172,-115.8 172,-110.6 131.6,-70.2 			"/>
			<polygon class="st5" points="138.7,-70.2 172,-103.5 172,-98.3 143.9,-70.2 			"/>
			<polygon class="st5" points="89.6,-70.2 172,-152.6 172,-147.4 94.8,-70.2 			"/>
			<polygon class="st5" points="28.1,-70.2 172,-214.1 172,-208.8 33.3,-70.2 			"/>
			<polygon class="st5" points="0,-238.6 3.6,-242.2 8.8,-242.2 0,-233.4 			"/>
			<polygon class="st5" points="15.8,-70.2 172,-226.3 172,-221.1 21.1,-70.2 			"/>
			<polygon class="st5" points="0,-226.4 15.8,-242.2 21.1,-242.2 0,-221.1 			"/>
		</g>
	</g>
</pattern>
<text transform="matrix(1 0 0 1 229.4317 238.9065)" class="st6 st7 st8">NOT AGREEING</text>
<pattern  id="SVGID_1_" xlink:href="#Nueva_muestra_de_motivo_copia_5" patternTransform="matrix(1 0 0 1 172 157)">
</pattern>
<circle class="st9" cx="457.9" cy="930.1" r="78.5"/>
<pattern  id="SVGID_2_" xlink:href="#Nueva_muestra_de_motivo_copia_5" patternTransform="matrix(1 0 0 1 172 157)">
</pattern>
<circle class="st10" cx="844.1" cy="939.1" r="50.7"/>
<pattern  id="SVGID_3_" xlink:href="#Nueva_muestra_de_motivo_copia_3" patternTransform="matrix(1 0 0 1 172 157)">
</pattern>
<circle class="st11" cx="457.9" cy="484.5" r="101.4"/>
<pattern  id="SVGID_4_" xlink:href="#Nueva_muestra_de_motivo_copia_4" patternTransform="matrix(1 0 0 1 172 157)">
</pattern>
<circle class="st12" cx="457.9" cy="825.8" r="93.5"/>
<pattern  id="SVGID_5_" xlink:href="#Nueva_muestra_de_motivo_copia_5" patternTransform="matrix(1 0 0 1 172 157)">
</pattern>
<circle class="st13" cx="1152.4" cy="939.1" r="55.5"/>
<pattern  id="SVGID_6_" xlink:href="#Nueva_muestra_de_motivo_copia_3" patternTransform="matrix(1 0 0 1 172 157)">
</pattern>
<circle class="st14" cx="457.9" cy="683.2" r="68"/>
<g class="st15">
	<pattern  id="SVGID_7_" xlink:href="#Nueva_muestra_de_motivo_2" patternTransform="matrix(1 0 0 1 47 37)"  class="st15">
	</pattern>
	<circle class="st16" cx="457.9" cy="235.5" r="92.5"/>
	<path class="st1" d="M457.9,144c50.4,0,91.5,41,91.5,91.5s-41,91.5-91.5,91.5s-91.5-41-91.5-91.5S407.5,144,457.9,144 M457.9,142
		c-51.6,0-93.5,41.8-93.5,93.5s41.8,93.5,93.5,93.5s93.5-41.8,93.5-93.5S509.5,142,457.9,142L457.9,142z"/>
</g>
<pattern  id="SVGID_8_" xlink:href="#Nueva_muestra_de_motivo_copia_3" patternTransform="matrix(1 0 0 1 172 157)">
</pattern>
<circle class="st17" cx="844.4" cy="719.2" r="32.1"/>
<pattern  id="SVGID_9_" xlink:href="#Nueva_muestra_de_motivo_copia_6" patternTransform="matrix(1 0 0 1 172 157)">
</pattern>
<circle class="st18" cx="34.7" cy="37.4" r="32.1"/>
<pattern  id="SVGID_10_" xlink:href="#Nueva_muestra_de_motivo_copia_4" patternTransform="matrix(1 0 0 1 172 157)">
</pattern>
<circle class="st19" cx="844.1" cy="826" r="32.1"/>
<text transform="matrix(1 0 0 1 583.3326 947.9437)"><tspan x="0" y="0" class="st6 st20 st21">Esos maricones de los sierra  </tspan><tspan x="0" y="14.4" class="st6 st20 st21">santana !</tspan></text>
<text transform="matrix(1 0 0 1 582.5834 711.9509)"><tspan x="0" y="0" class="st6 st20 st21">Y como siempre estas cosas  </tspan><tspan x="0" y="14.4" class="st6 st20 st21">solo pasan en México...</tspan></text>
<g>
	<text transform="matrix(1 0 0 1 582.5829 504.2914)"><tspan x="0" y="0" class="st6 st20 st21">No entiendo por que los  </tspan><tspan x="0" y="14.4" class="st6 st20 st21">narcotraficantes venden  </tspan><tspan x="0" y="28.8" class="st6 st20 st21">droga, sí existe el aguacate!</tspan></text>
</g>
<text transform="matrix(1 0 0 1 582.5832 831.9282)"><tspan x="0" y="0" class="st6 st20 st21">Las  extorsiones no deberían  </tspan><tspan x="0" y="14.4" class="st6 st20 st21">existir ya en 2013,ni nunca  </tspan><tspan x="0" y="28.8" class="st6 st20 st21">deberían haber existido</tspan></text>
<text transform="matrix(1 0 0 1 582.5837 257.6659)"><tspan x="0" y="0" class="st6 st20 st21">ya ni saben q inventar!</tspan><tspan x="0" y="14.4" class="st6 st20 st21">pinche envidiosos el aguacate  </tspan><tspan x="0" y="28.8" class="st6 st20 st21">es de México</tspan></text>
<text transform="matrix(1 0 0 1 910.8065 694.4442)"><tspan x="0" y="0" class="st22 st7 st23">   SUPPORTIVE</tspan><tspan x="0" y="28.8" class="st6 st20 st21">7 años contra nosotros y  </tspan><tspan x="0" y="43.2" class="st6 st20 st21">seguimos más unidos  </tspan><tspan x="0" y="57.6" class="st6 st20 st21">que nunca</tspan></text>
<text transform="matrix(1 0 0 1 910.8069 812.6461)"><tspan x="0" y="0" class="st3 st7 st23">   WORRIED</tspan><tspan x="0" y="28.8" class="st6 st20 st21">Esta tan mal...</tspan></text>
<text transform="matrix(1 0 0 1 910.8065 947.9437)"><tspan x="0" y="0" class="st6 st20 st21">Esto es resultado de un  </tspan><tspan x="0" y="14.4" class="st6 st20 st21">gobierno irrespon </tspan><tspan x="0" y="28.8" class="st6 st20 st21">sable,cómplice,un estado  </tspan><tspan x="0" y="43.2" class="st6 st20 st21">fallido</tspan></text>
<text transform="matrix(1 0 0 1 1225.9849 922.3792)"><tspan x="0" y="0" class="st24 st7 st23">   PROVOCATIVE</tspan><tspan x="0" y="28.8" class="st6 st20 st21">y si ya se sabe, dónde  </tspan><tspan x="0" y="43.2" class="st6 st20 st21">esta el gobierno?</tspan></text>
<line class="st25" x1="346.5" y1="235.5" x2="648.5" y2="235.5"/>
<line class="st25" x1="346.5" y1="235.5" x2="346.5" y2="327.7"/>
<text transform="matrix(1 0 0 1 268.0118 487.9892)" class="st6 st7 st8">NEUTRAL</text>
<line class="st25" x1="346.5" y1="484.5" x2="346.5" y2="919.9"/>
<line class="st25" x1="346.5" y1="484.5" x2="648.5" y2="484.5"/>
<rect x="579.5" y="217.4" class="st0" width="69" height="23"/>
<text transform="matrix(1 0 0 1 582.809 227.8661)" class="st1 st7 st23">SKEPTICAL</text>
<text transform="matrix(1 0 0 1 229.4317 935.7147)" class="st6 st7 st8">NOT AGREEING</text>
<line class="st25" x1="346.5" y1="932.3" x2="1322.5" y2="932.3"/>
<line class="st25" x1="346.5" y1="932.3" x2="346.5" y2="1008.6"/>
<rect x="579.5" y="916.4" class="st0" width="69" height="23"/>
<text transform="matrix(1 0 0 1 605.9222 926.8924)" class="st24 st7 st23">ANGRY</text>
<rect x="907.8" y="916.4" class="st0" width="103.7" height="23"/>
<text transform="matrix(1 0 0 1 918.9865 926.8924)" class="st24 st7 st23">DISPREGIATIVE</text>
<rect x="579.5" y="801.1" class="st0" width="69" height="23"/>
<text transform="matrix(1 0 0 1 608.8622 811.646)" class="st3 st7 st23">CRITIC</text>
<rect x="579.5" y="682.9" class="st0" width="69" height="23"/>
<text transform="matrix(1 0 0 1 585.8885 693.4441)" class="st22 st7 st23">RESIGNED</text>
<rect x="579.5" y="467.7" class="st0" width="69" height="23"/>
<text transform="matrix(1 0 0 1 604.6903 478.2417)" class="st22 st7 st23">IRONIC</text>
<rect x="73.1" y="61.7" class="st0" width="92" height="18"/>
<text transform="matrix(1 0 0 1 73.0834 68.4518)" class="st6 st7 st26">2 comments</text>
<rect x="73.1" y="-1" class="st0" width="130" height="18"/>
<text transform="matrix(1 0 0 1 73.0834 7.2851)" class="st6 st7 st27">Number of comments</text>
</svg>
