<?xml version="1.0" encoding="utf-8"?>
<!-- Generator: Adobe Illustrator 22.1.0, SVG Export Plug-In . SVG Version: 6.00 Build 0)  -->
<svg version="1.1" id="图层_1" xmlns="http://www.w3.org/2000/svg" xmlns:xlink="http://www.w3.org/1999/xlink" x="0px" y="0px"
	 viewBox="0 0 1133 654.2" style="enable-background:new 0 0 1133 654.2;" xml:space="preserve">
<style type="text/css">
	.st0{fill:#F37122;}
	.st1{fill:none;stroke:#F37122;stroke-width:0.5;stroke-miterlimit:10;}
	.st2{fill:#8BC53F;}
	.st3{fill:none;stroke:#8BC53F;stroke-width:0.5;stroke-miterlimit:10;}
	.st4{fill:#808184;}
	.st5{fill:none;stroke:#808184;stroke-width:0.5;stroke-miterlimit:10;}
	.st6{fill:#009345;}
	.st7{fill:none;stroke:#009345;stroke-width:0.5;stroke-miterlimit:10;}
	.st8{fill:#8A5D3B;}
	.st9{fill:none;stroke:#8A5D3B;stroke-width:0.5;stroke-miterlimit:10;}
	.st10{fill:#652D90;}
	.st11{fill:none;stroke:#652D90;stroke-width:0.5;stroke-miterlimit:10;}
	.st12{fill:none;stroke:#652D90;stroke-miterlimit:10;}
	.st13{fill:#4EB749;}
	.st14{fill:none;stroke:#37B34A;stroke-width:0.5;stroke-miterlimit:10;}
	.st15{fill:#006838;}
	.st16{fill:none;stroke:#006838;stroke-width:0.5;stroke-miterlimit:10;}
	.st17{fill:#F05A28;}
	.st18{fill:none;stroke:#F05A28;stroke-width:0.5;stroke-miterlimit:10;}
	.st19{fill:#FFFFFF;}
	.st20{font-family:'Fira Sans', sans-serif; font-weight:400;}
	.st21{font-size:11px;}
	.st22{fill:none;stroke:#F37122;stroke-miterlimit:10;}
	.st23{fill:none;stroke:#92C83E;stroke-miterlimit:10;}
	.st24{fill:none;stroke:#009345;stroke-miterlimit:10;}
	.st25{fill:none;stroke:#808184;stroke-miterlimit:10;}
	.st26{fill:none;stroke:#603813;stroke-miterlimit:10;}
	.st27{fill:none;stroke:#006838;stroke-miterlimit:10;}
	.st28{fill:none;stroke:#4EB749;stroke-miterlimit:10;}
	.st29{fill:none;stroke:#F05A28;stroke-miterlimit:10;}
	.st30{font-size:12px;}
</style>
<path class="st0" d="M203.6,349.3l0-1c169.5-0.4,256-52,339.7-102c41.9-25,85.2-50.8,138.4-70c59.7-21.5,125.7-32,201.8-32.2l0,1
	c-169.5,0.4-256,52-339.7,102c-41.9,25-85.2,50.8-138.4,70C345.8,338.6,279.8,349.1,203.6,349.3z"/>
<g>
	<path class="st1" d="M201.8,350.7c-1.1,0-1.9-0.8-2-1.9c0-1.1,0.8-1.9,1.9-2c1.1,0,1.9,0.8,2,1.9
		C203.7,349.8,202.9,350.7,201.8,350.7z"/>
	<path class="st1" d="M201.8,351c1.2,0,2.2-1,2.1-2.2c0-1.2-1-2.2-2.2-2.1c-1.2,0-2.2,1-2.1,2.2C199.6,350,200.6,351,201.8,351
		C203,350.9,200.6,351,201.8,351z M201.8,347.1c0.9,0,1.7,0.7,1.7,1.6c0,0.9-0.7,1.7-1.6,1.7c-0.9,0-1.7-0.7-1.7-1.6
		C200.1,347.9,200.8,347.1,201.8,347.1C202.7,347.1,200.8,347.1,201.8,347.1z"/>
</g>
<path class="st2" d="M203.6,354.5l0-1c169.6-0.2,256.1-30.3,339.8-59.4c83.8-29.1,170.4-59.2,340.1-59.4l0,1
	C714,235.9,627.5,266,543.8,295.1C460,324.2,373.3,354.3,203.6,354.5z"/>
<g>
	<path class="st3" d="M201.8,355.9c-1.1,0-1.9-0.8-1.9-1.9c0-1.1,0.8-1.9,1.9-1.9c1.1,0,1.9,0.8,1.9,1.9
		C203.7,355,202.9,355.9,201.8,355.9z"/>
	<path class="st3" d="M201.8,356.2c1.2,0,2.2-1,2.2-2.2c0-1.2-1-2.2-2.2-2.2c-1.2,0-2.2,1-2.2,2.2
		C199.6,355.2,200.6,356.2,201.8,356.2S200.6,356.2,201.8,356.2z M201.8,352.3c0.9,0,1.7,0.7,1.7,1.6c0,0.9-0.7,1.7-1.6,1.7
		c-0.9,0-1.7-0.7-1.7-1.6C200.1,353.1,200.9,352.3,201.8,352.3C202.7,352.3,200.9,352.3,201.8,352.3z"/>
</g>
<path class="st4" d="M883.6,406.3c-169.7-0.1-256.3-11.9-340.1-23.3c-83.7-11.4-170.3-23.2-339.9-23.3v-1
	c169.7,0.1,256.3,11.9,340,23.3c83.7,11.4,170.3,23.2,339.9,23.3V406.3z"/>
<g>
	<path class="st5" d="M201.8,361.1c-1.1,0-1.9-0.9-1.9-1.9s0.9-1.9,1.9-1.9c1.1,0,1.9,0.9,1.9,1.9S202.8,361.1,201.8,361.1z"/>
	<path class="st5" d="M201.8,361.4c1.2,0,2.2-1,2.2-2.2s-1-2.2-2.2-2.2c-1.2,0-2.2,1-2.2,2.2S200.6,361.4,201.8,361.4
		C203,361.4,200.6,361.4,201.8,361.4z M201.8,357.5c0.9,0,1.7,0.8,1.7,1.7c0,0.9-0.8,1.7-1.7,1.7s-1.7-0.8-1.7-1.7
		C200.1,358.3,200.9,357.5,201.8,357.5S200.9,357.5,201.8,357.5z"/>
</g>
<path class="st0" d="M203.6,120.1v-1c169.6,0,256.2-0.2,340-0.4c83.7-0.2,170.3-0.4,340-0.4v1c-169.6,0-256.2,0.2-340,0.4
	S373.3,120.1,203.6,120.1z"/>
<g>
	<path class="st1" d="M201.8,121.5c-1.1,0-1.9-0.9-1.9-1.9c0-1.1,0.9-1.9,1.9-1.9c1.1,0,1.9,0.9,1.9,1.9
		C203.7,120.6,202.9,121.5,201.8,121.5z"/>
	<path class="st1" d="M201.8,121.7c1.2,0,2.2-1,2.2-2.2c0-1.2-1-2.2-2.2-2.2s-2.2,1-2.2,2.2S200.6,121.7,201.8,121.7
		S200.6,121.7,201.8,121.7z M201.8,117.9c0.9,0,1.7,0.7,1.7,1.7s-0.7,1.7-1.7,1.7c-0.9,0-1.7-0.7-1.7-1.7
		C200.1,118.6,200.9,117.9,201.8,117.9C202.7,117.9,200.9,117.9,201.8,117.9z"/>
</g>
<path class="st2" d="M883.6,215c-169.7-0.2-256.3-22.9-340.1-44.9c-83.7-22-170.3-44.7-339.9-44.9l0-1
	c169.7,0.2,256.3,22.9,340.1,44.9c83.7,22,170.3,44.7,339.9,44.9L883.6,215z"/>
<g>
	<path class="st3" d="M201.8,126.7c-1.1,0-1.9-0.9-1.9-1.9s0.9-1.9,1.9-1.9c1.1,0,1.9,0.9,1.9,1.9
		C203.7,125.8,202.8,126.7,201.8,126.7z"/>
	<path class="st3" d="M201.8,126.9c1.2,0,2.2-1,2.2-2.2c0-1.2-1-2.2-2.2-2.2c-1.2,0-2.2,1-2.2,2.2
		C199.6,125.9,200.6,126.9,201.8,126.9S200.6,126.9,201.8,126.9z M201.8,123.1c0.9,0,1.7,0.8,1.7,1.7s-0.8,1.7-1.7,1.7
		c-0.9,0-1.7-0.8-1.7-1.7C200.1,123.8,200.9,123.1,201.8,123.1C202.7,123.1,200.9,123.1,201.8,123.1z"/>
</g>
<path class="st6" d="M883.6,300.3c-169.8-0.3-256.4-43.4-340.2-85c-83.7-41.6-170.2-84.5-339.8-84.9l0-1
	c169.8,0.3,256.4,43.4,340.2,85c83.7,41.6,170.2,84.5,339.8,84.9L883.6,300.3z"/>
<g>
	<path class="st7" d="M201.8,131.9c-1.1,0-1.9-0.9-1.9-2s0.9-1.9,2-1.9c1.1,0,1.9,0.9,1.9,2C203.7,131,202.8,131.9,201.8,131.9z"/>
	<path class="st7" d="M201.8,132.1c1.2,0,2.2-0.9,2.2-2.1c0-1.2-0.9-2.2-2.1-2.2c-1.2,0-2.2,0.9-2.2,2.1
		C199.6,131.1,200.6,132.1,201.8,132.1C203,132.1,200.6,132.1,201.8,132.1z M201.8,128.3c0.9,0,1.7,0.8,1.6,1.7
		c0,0.9-0.8,1.7-1.7,1.6c-0.9,0-1.7-0.8-1.6-1.7C200.1,129,200.9,128.3,201.8,128.3C202.7,128.3,200.9,128.3,201.8,128.3z"/>
</g>
<path class="st4" d="M883.6,380.4c-76.2-0.2-142.2-12.8-201.9-38.6c-53.2-22.9-96.5-53.9-138.4-83.9
	C459.6,198,373.1,136.1,203.6,135.6l0-1c76.2,0.2,142.2,12.8,201.9,38.6c53.2,22.9,96.5,53.9,138.4,83.9
	c83.7,59.9,170.2,121.8,339.7,122.3L883.6,380.4z"/>
<g>
	<path class="st5" d="M201.8,137c-1.1,0-1.9-0.9-1.9-1.9c0-1.1,0.9-1.9,1.9-1.9c1.1,0,1.9,0.9,1.9,1.9
		C203.7,136.2,202.8,137,201.8,137z"/>
	<path class="st5" d="M201.8,137.3c1.2,0,2.2-1,2.2-2.2s-1-2.2-2.2-2.2c-1.2,0-2.2,1-2.2,2.2C199.6,136.3,200.6,137.3,201.8,137.3
		C203,137.3,200.6,137.3,201.8,137.3z M201.8,133.4c0.9,0,1.7,0.8,1.6,1.7c0,0.9-0.8,1.7-1.7,1.6c-0.9,0-1.7-0.8-1.6-1.7
		C200.1,134.2,200.9,133.4,201.8,133.4C202.7,133.5,200.9,133.4,201.8,133.4z"/>
</g>
<path class="st0" d="M203.6,153.5v-1c169.6-0.1,256.2-7.4,339.9-14.5c83.8-7.1,170.4-14.5,340-14.5v1
	c-169.6,0.1-256.2,7.4-339.9,14.5C459.9,146.1,373.3,153.5,203.6,153.5z"/>
<g>
	<path class="st1" d="M201.8,154.9c-1.1,0-1.9-0.8-1.9-1.9s0.8-1.9,1.9-1.9c1.1,0,1.9,0.8,1.9,1.9S202.9,154.9,201.8,154.9z"/>
	<path class="st1" d="M201.8,155.2c1.2,0,2.2-1,2.2-2.2c0-1.2-1-2.2-2.2-2.2c-1.2,0-2.2,1-2.2,2.2S200.6,155.2,201.8,155.2
		C203,155.2,200.6,155.2,201.8,155.2z M201.8,151.4c0.9,0,1.7,0.7,1.7,1.7c0,0.9-0.7,1.7-1.7,1.7c-0.9,0-1.7-0.7-1.7-1.7
		C200.1,152.1,200.9,151.4,201.8,151.4C202.7,151.4,200.9,151.4,201.8,151.4z"/>
</g>
<path class="st6" d="M883.6,305.5c-169.8-0.3-256.4-37.5-340.2-73.4c-83.7-35.9-170.2-73-339.8-73.3l0-1
	c169.8,0.3,256.4,37.5,340.2,73.4c83.7,35.9,170.2,73,339.8,73.3L883.6,305.5z"/>
<g>
	<path class="st7" d="M201.8,160.2c-1.1,0-1.9-0.9-1.9-1.9s0.9-1.9,1.9-1.9s1.9,0.9,1.9,1.9C203.7,159.3,202.8,160.2,201.8,160.2z"
		/>
	<path class="st7" d="M201.8,160.4c1.2,0,2.2-0.9,2.2-2.1s-0.9-2.2-2.1-2.2c-1.2,0-2.2,0.9-2.2,2.1S200.6,160.4,201.8,160.4
		C203,160.4,200.6,160.4,201.8,160.4z M201.8,156.6c0.9,0,1.7,0.8,1.6,1.7c0,0.9-0.8,1.7-1.7,1.6c-0.9,0-1.7-0.8-1.6-1.7
		C200.1,157.3,200.9,156.6,201.8,156.6C202.7,156.6,200.9,156.6,201.8,156.6z"/>
</g>
<path class="st8" d="M883.6,439.8c-76.2-0.2-142.2-14.2-201.9-42.7c-53.2-25.4-96.5-59.7-138.4-92.8
	c-83.7-66.2-170.2-134.7-339.7-135.2l0-1c76.2,0.2,142.2,14.2,201.9,42.7c53.2,25.4,96.5,59.7,138.4,92.8
	c83.7,66.2,170.2,134.7,339.7,135.2L883.6,439.8z"/>
<g>
	<path class="st9" d="M201.8,170.5c-1.1,0-1.9-0.9-1.9-1.9c0-1.1,0.9-1.9,1.9-1.9c1.1,0,1.9,0.9,1.9,1.9S202.8,170.5,201.8,170.5z"
		/>
	<path class="st9" d="M201.8,170.8c1.2,0,2.2-0.9,2.2-2.1c0-1.2-0.9-2.2-2.1-2.2c-1.2,0-2.2,0.9-2.2,2.1S200.6,170.8,201.8,170.8
		C203,170.8,200.6,170.8,201.8,170.8z M201.8,166.9c0.9,0,1.7,0.8,1.6,1.7s-0.8,1.7-1.7,1.6c-0.9,0-1.7-0.8-1.6-1.7
		C200.1,167.7,200.9,166.9,201.8,166.9C202.7,167,200.9,166.9,201.8,166.9z"/>
</g>
<path class="st4" d="M883.6,385.6c-76.2-0.2-142.2-11.6-201.9-34.9c-53.2-20.8-96.5-48.8-138.4-76
	c-83.7-54.2-170.2-110.3-339.7-110.8l0-1c76.2,0.2,142.2,11.6,201.9,34.9c53.2,20.8,96.5,48.8,138.4,76
	c83.7,54.2,170.2,110.3,339.7,110.8L883.6,385.6z"/>
<g>
	<path class="st5" d="M201.8,165.4c-1.1,0-1.9-0.9-1.9-2c0-1.1,0.9-1.9,2-1.9c1.1,0,1.9,0.9,1.9,2
		C203.7,164.5,202.8,165.4,201.8,165.4z"/>
	<path class="st5" d="M201.8,165.6c1.2,0,2.2-0.9,2.2-2.1s-0.9-2.2-2.1-2.2s-2.2,0.9-2.2,2.1S200.6,165.6,201.8,165.6
		S200.6,165.6,201.8,165.6z M201.8,161.8c0.9,0,1.6,0.8,1.6,1.7c0,0.9-0.8,1.6-1.7,1.6c-0.9,0-1.6-0.8-1.6-1.7
		C200.1,162.5,200.9,161.8,201.8,161.8C202.7,161.8,200.9,161.8,201.8,161.8z"/>
</g>
<path class="st0" d="M203.6,377.6l0-1c169.5-0.5,256-57.9,339.7-113.5c41.9-27.8,85.2-56.6,138.4-77.9
	c59.7-23.9,125.7-35.6,201.9-35.8l0,1c-169.5,0.5-256,57.9-339.7,113.5c-41.9,27.8-85.2,56.6-138.4,77.9
	C345.8,365.7,279.8,377.4,203.6,377.6z"/>
<g>
	<path class="st1" d="M201.8,379c-1.1,0-1.9-0.8-2-1.9c0-1.1,0.8-1.9,1.9-2c1.1,0,1.9,0.8,2,1.9C203.7,378.1,202.9,379,201.8,379z"
		/>
	<path class="st1" d="M201.8,379.3c1.2,0,2.2-1,2.1-2.2s-1-2.2-2.2-2.1c-1.2,0-2.2,1-2.1,2.2S200.6,379.3,201.8,379.3
		C203,379.2,200.6,379.3,201.8,379.3z M201.8,375.4c0.9,0,1.7,0.7,1.7,1.6c0,0.9-0.7,1.7-1.6,1.7c-0.9,0-1.7-0.7-1.7-1.6
		C200.1,376.2,200.8,375.4,201.8,375.4C202.7,375.4,200.8,375.4,201.8,375.4z"/>
</g>
<path class="st6" d="M203.6,388v-1c169.6-0.1,256.2-15.8,339.9-30.9c83.8-15.1,170.4-30.8,340.1-30.9v1
	C714,326.3,627.4,342,543.7,357.1C459.9,372.2,373.3,387.9,203.6,388z"/>
<g>
	<path class="st7" d="M201.8,389.4c-1.1,0-1.9-0.8-1.9-1.9s0.8-1.9,1.9-1.9c1.1,0,1.9,0.8,1.9,1.9S202.9,389.4,201.8,389.4z"/>
	<path class="st7" d="M201.8,389.6c1.2,0,2.2-1,2.2-2.2s-1-2.2-2.2-2.2c-1.2,0-2.2,1-2.2,2.2S200.6,389.7,201.8,389.6
		C203,389.6,200.6,389.7,201.8,389.6z M201.8,385.8c0.9,0,1.7,0.7,1.7,1.6s-0.7,1.7-1.6,1.7c-0.9,0-1.7-0.7-1.7-1.6
		S200.9,385.8,201.8,385.8C202.7,385.8,200.9,385.8,201.8,385.8z"/>
</g>
<path class="st2" d="M203.6,382.8l0-1c169.5-0.3,256.1-36.2,339.8-70.9c83.8-34.8,170.4-70.7,340.2-71l0,1
	c-169.5,0.3-256.1,36.2-339.8,70.9C460,346.6,373.4,382.5,203.6,382.8z"/>
<g>
	<path class="st3" d="M201.8,384.2c-1.1,0-1.9-0.8-1.9-1.9c0-1.1,0.8-1.9,1.9-1.9c1.1,0,1.9,0.8,1.9,1.9
		C203.7,383.3,202.9,384.2,201.8,384.2z"/>
	<path class="st3" d="M201.8,384.5c1.2,0,2.2-1,2.1-2.2c0-1.2-1-2.2-2.2-2.1c-1.2,0-2.2,1-2.1,2.2
		C199.6,383.5,200.6,384.5,201.8,384.5C203,384.4,200.6,384.5,201.8,384.5z M201.8,380.6c0.9,0,1.7,0.7,1.7,1.6
		c0,0.9-0.7,1.7-1.6,1.7c-0.9,0-1.7-0.7-1.7-1.6C200.1,381.4,200.9,380.6,201.8,380.6S200.9,380.6,201.8,380.6z"/>
</g>
<path class="st6" d="M883.6,310.7c-169.7-0.2-256.4-31.6-340.2-61.8c-83.7-30.2-170.2-61.5-339.8-61.8l0-1
	c169.7,0.2,256.4,31.6,340.2,61.8c83.7,30.2,170.3,61.5,339.8,61.8L883.6,310.7z"/>
<g>
	<path class="st7" d="M201.8,188.5c-1.1,0-1.9-0.9-1.9-1.9c0-1.1,0.9-1.9,1.9-1.9s1.9,0.9,1.9,1.9S202.8,188.5,201.8,188.5z"/>
	<path class="st7" d="M201.8,188.7c1.2,0,2.2-1,2.2-2.2s-1-2.2-2.2-2.2c-1.2,0-2.2,1-2.2,2.2S200.6,188.7,201.8,188.7
		C203,188.7,200.6,188.7,201.8,188.7z M201.8,184.9c0.9,0,1.7,0.8,1.6,1.7s-0.8,1.7-1.7,1.6c-0.9,0-1.7-0.8-1.6-1.7
		C200.1,185.6,200.9,184.9,201.8,184.9C202.7,184.9,200.9,184.9,201.8,184.9z"/>
</g>
<path class="st8" d="M883.6,445c-76.2-0.2-142.2-13.3-201.9-39.8c-53.2-23.7-96.5-55.7-138.4-86.7
	c-83.7-61.8-170.2-125.8-339.7-126.3l0-1c76.2,0.2,142.2,13.3,201.9,39.8c53.2,23.7,96.5,55.7,138.4,86.7
	c83.7,61.8,170.2,125.8,339.7,126.3L883.6,445z"/>
<g>
	<path class="st9" d="M201.8,193.7c-1.1,0-1.9-0.9-1.9-1.9s0.9-1.9,1.9-1.9c1.1,0,1.9,0.9,1.9,1.9S202.8,193.7,201.8,193.7z"/>
	<path class="st9" d="M201.8,193.9c1.2,0,2.2-1,2.2-2.2s-1-2.2-2.2-2.2c-1.2,0-2.2,1-2.2,2.2C199.6,192.9,200.6,193.9,201.8,193.9
		C203,193.9,200.6,193.9,201.8,193.9z M201.8,190.1c0.9,0,1.7,0.8,1.6,1.7s-0.8,1.7-1.7,1.6c-0.9,0-1.7-0.8-1.6-1.7
		C200.1,190.8,200.9,190.1,201.8,190.1C202.7,190.1,200.9,190.1,201.8,190.1z"/>
</g>
<path class="st10" d="M883.6,558.2c-76.2-0.3-142.3-18.7-201.9-56.1c-53.2-33.3-96.5-78.4-138.4-121.9
	c-83.7-87-170.2-177-339.6-177.7l0-1c76.2,0.3,142.3,18.7,201.9,56.1c53.2,33.3,96.5,78.4,138.4,121.9
	c83.7,87,170.2,177,339.6,177.7L883.6,558.2z"/>
<g>
	<path class="st11" d="M201.8,204c-1.1,0-1.9-0.9-1.9-2c0-1.1,0.9-1.9,2-1.9c1.1,0,1.9,0.9,1.9,2C203.7,203.2,202.8,204,201.8,204z"
		/>
	<path class="st11" d="M201.8,204.3c1.2,0,2.2-0.9,2.2-2.1c0-1.2-0.9-2.2-2.1-2.2c-1.2,0-2.2,0.9-2.2,2.1
		C199.6,203.3,200.6,204.3,201.8,204.3C203,204.3,200.6,204.3,201.8,204.3z M201.8,200.4c0.9,0,1.7,0.8,1.6,1.7
		c0,0.9-0.8,1.7-1.7,1.6c-0.9,0-1.7-0.8-1.6-1.7C200.1,201.2,200.9,200.4,201.8,200.4C202.7,200.5,200.9,200.4,201.8,200.4z"/>
</g>
<g>
	<path class="st12" d="M885.4,559.6c1.1,0,1.9-0.8,2-1.9c0-1.1-0.8-1.9-1.9-2c-1.1,0-1.9,0.8-2,1.9
		C883.5,558.7,884.4,559.6,885.4,559.6z"/>
	<path class="st12" d="M885.4,559.9c-1.2,0-2.2-1-2.1-2.2c0-1.2,1-2.2,2.2-2.1c1.2,0,2.2,1,2.1,2.2
		C887.6,558.9,886.6,559.9,885.4,559.9C884.2,559.9,886.6,559.9,885.4,559.9z M885.5,556c-0.9,0-1.7,0.7-1.7,1.6
		c0,0.9,0.7,1.7,1.6,1.7c0.9,0,1.7-0.7,1.7-1.6C887.1,556.8,886.4,556.1,885.5,556S886.4,556.1,885.5,556z"/>
</g>
<path class="st13" d="M883.6,506.8c-76.2-0.3-142.2-16.2-201.9-48.8c-53.2-29-96.5-68.2-138.4-106.1
	C459.6,276.3,373.1,198,203.6,197.4l0-1c76.2,0.3,142.2,16.2,201.9,48.8c53.2,29,96.5,68.2,138.4,106.1
	c83.7,75.7,170.2,153.9,339.6,154.6L883.6,506.8z"/>
<g>
	<path class="st14" d="M201.8,198.8c-1.1,0-1.9-0.9-1.9-1.9s0.9-1.9,1.9-1.9s1.9,0.9,1.9,1.9C203.7,198,202.8,198.9,201.8,198.8z"/>
	<path class="st14" d="M201.8,199.1c1.2,0,2.2-0.9,2.2-2.1c0-1.2-0.9-2.2-2.1-2.2c-1.2,0-2.2,0.9-2.2,2.1S200.6,199.1,201.8,199.1
		C203,199.1,200.6,199.1,201.8,199.1z M201.8,195.3c0.9,0,1.7,0.8,1.6,1.7s-0.8,1.7-1.7,1.6c-0.9,0-1.7-0.8-1.6-1.7
		S200.9,195.2,201.8,195.3C202.7,195.3,200.9,195.2,201.8,195.3z"/>
</g>
<path class="st2" d="M883.6,204.6c-169.8-0.3-256.4-37.4-340.2-73.2c-83.7-35.8-170.2-72.8-339.8-73.1l0-1
	c169.8,0.3,256.4,37.4,340.2,73.2c83.7,35.8,170.2,72.9,339.8,73.1L883.6,204.6z"/>
<g>
	<path class="st3" d="M201.8,59.7c-1.1,0-1.9-0.9-1.9-1.9c0-1.1,0.9-1.9,1.9-1.9c1.1,0,1.9,0.9,1.9,1.9
		C203.7,58.9,202.8,59.7,201.8,59.7z"/>
	<path class="st3" d="M201.8,59.9c1.2,0,2.2-0.9,2.2-2.1c0-1.2-0.9-2.2-2.1-2.2c-1.2,0-2.2,0.9-2.2,2.1
		C199.6,58.9,200.6,59.9,201.8,59.9C203,60,200.6,59.9,201.8,59.9z M201.8,56.1c0.9,0,1.7,0.8,1.6,1.7c0,0.9-0.8,1.7-1.7,1.6
		c-0.9,0-1.7-0.8-1.6-1.7C200.1,56.8,200.9,56.1,201.8,56.1C202.7,56.1,200.9,56.1,201.8,56.1z"/>
</g>
<path class="st0" d="M883.6,108.9C713.9,108.8,627.3,94.7,543.5,81c-83.7-13.7-170.3-27.8-339.9-27.9v-1
	C373.3,52.2,459.9,66.3,543.7,80c83.7,13.7,170.3,27.8,339.9,27.9V108.9z"/>
<g>
	<path class="st1" d="M201.8,54.5c-1.1,0-1.9-0.9-1.9-1.9s0.9-1.9,1.9-1.9s1.9,0.9,1.9,1.9S202.8,54.5,201.8,54.5z"/>
	<path class="st1" d="M201.8,54.8c1.2,0,2.2-1,2.2-2.2c0-1.2-1-2.2-2.2-2.2c-1.2,0-2.2,1-2.2,2.2S200.6,54.7,201.8,54.8
		C203,54.8,200.6,54.7,201.8,54.8z M201.8,50.9c0.9,0,1.7,0.8,1.6,1.7c0,0.9-0.8,1.7-1.7,1.6c-0.9,0-1.7-0.8-1.6-1.7
		C200.1,51.6,200.9,50.9,201.8,50.9C202.7,50.9,200.9,50.9,201.8,50.9z"/>
</g>
<path class="st4" d="M883.6,370.1c-76.2-0.3-142.2-15.8-201.9-47.5c-53.2-28.2-96.5-66.4-138.4-103.3
	c-83.7-73.7-170.2-150-339.6-150.6l0-1c76.2,0.3,142.2,15.8,201.9,47.5c53.2,28.3,96.5,66.4,138.4,103.3
	c83.7,73.7,170.2,150,339.6,150.6L883.6,370.1z"/>
<g>
	<path class="st5" d="M201.8,70c-1.1,0-1.9-0.9-1.9-1.9s0.9-1.9,1.9-1.9c1.1,0,1.9,0.9,1.9,1.9S202.8,70.1,201.8,70z"/>
	<path class="st5" d="M201.8,70.3c1.2,0,2.2-0.9,2.2-2.1c0-1.2-0.9-2.2-2.1-2.2c-1.2,0-2.2,0.9-2.2,2.1
		C199.6,69.3,200.6,70.3,201.8,70.3C203,70.3,200.6,70.3,201.8,70.3z M201.8,66.5c0.9,0,1.7,0.8,1.6,1.7c0,0.9-0.8,1.7-1.7,1.6
		c-0.9,0-1.7-0.8-1.6-1.7C200.1,67.2,200.9,66.5,201.8,66.5C202.7,66.5,200.9,66.5,201.8,66.5z"/>
</g>
<path class="st6" d="M883.6,289.9c-76.2-0.2-142.2-11.9-201.9-35.7c-53.2-21.2-96.5-49.9-138.4-77.6
	C459.6,121.2,373.1,63.9,203.6,63.4l0-1c76.2,0.2,142.2,11.9,201.9,35.7c53.2,21.2,96.5,49.9,138.4,77.6
	c83.7,55.4,170.2,112.7,339.7,113.2L883.6,289.9z"/>
<g>
	<path class="st7" d="M201.8,64.9c-1.1,0-1.9-0.9-1.9-2c0-1.1,0.9-1.9,2-1.9c1.1,0,1.9,0.9,1.9,2S202.8,64.9,201.8,64.9z"/>
	<path class="st7" d="M201.7,65.1c1.2,0,2.2-0.9,2.2-2.1s-0.9-2.2-2.1-2.2c-1.2,0-2.2,0.9-2.2,2.1S200.6,65.1,201.7,65.1
		C202.9,65.2,200.6,65.1,201.7,65.1z M201.8,61.3c0.9,0,1.6,0.8,1.6,1.7c0,0.9-0.8,1.6-1.7,1.6c-0.9,0-1.6-0.8-1.6-1.7
		C200.1,62,200.9,61.3,201.8,61.3C202.7,61.3,200.9,61.3,201.8,61.3z"/>
</g>
<path class="st0" d="M203.6,547.5l0-1c169.4-0.7,255.9-94.6,339.6-185.4c41.9-45.5,85.2-92.5,138.4-127.3
	c59.7-39,125.7-58.2,202-58.5l0,1c-169.4,0.7-255.9,94.6-339.6,185.4c-41.9,45.5-85.2,92.5-138.4,127.3
	C345.9,528,279.8,547.2,203.6,547.5z"/>
<g>
	<path class="st1" d="M201.8,548.9c-1.1,0-1.9-0.8-2-1.9s0.8-1.9,1.9-2s1.9,0.8,2,1.9C203.7,548,202.9,548.9,201.8,548.9z"/>
	<path class="st1" d="M201.8,549.1c1.2,0,2.2-1,2.1-2.2s-1-2.2-2.2-2.1s-2.2,1-2.1,2.2S200.6,549.2,201.8,549.1
		S200.6,549.2,201.8,549.1z M201.8,545.3c0.9,0,1.7,0.7,1.7,1.6c0,0.9-0.7,1.7-1.6,1.7c-0.9,0-1.7-0.7-1.7-1.6
		C200.1,546.1,200.8,545.3,201.8,545.3C202.7,545.3,200.8,545.3,201.8,545.3z"/>
</g>
<path class="st4" d="M203.6,552.7l0-1c169.5-0.3,256.1-34.7,339.8-68c83.8-33.3,170.4-67.8,340.2-68l0,1
	c-169.6,0.3-256.1,34.7-339.8,68C460,518,373.4,552.4,203.6,552.7z"/>
<g>
	<path class="st5" d="M201.8,554.1c-1.1,0-1.9-0.8-1.9-1.9s0.8-1.9,1.9-1.9c1.1,0,1.9,0.8,1.9,1.9
		C203.7,553.2,202.9,554.1,201.8,554.1z"/>
	<path class="st5" d="M201.8,554.3c1.2,0,2.2-1,2.1-2.2s-1-2.2-2.2-2.1c-1.2,0-2.2,1-2.1,2.2C199.6,553.4,200.6,554.3,201.8,554.3
		C203,554.3,200.6,554.3,201.8,554.3z M201.8,550.5c0.9,0,1.7,0.7,1.7,1.6c0,0.9-0.7,1.7-1.6,1.7s-1.7-0.7-1.7-1.6
		C200.1,551.3,200.9,550.5,201.8,550.5C202.7,550.5,200.9,550.5,201.8,550.5z"/>
</g>
<path class="st13" d="M883.6,517.2c-169.7-0.2-256.4-27.1-340.1-53c-83.7-25.9-170.3-52.8-339.8-53l0-1
	c169.7,0.2,256.4,27.1,340.1,53c83.7,25.9,170.3,52.8,339.8,53L883.6,517.2z"/>
<g>
	<path class="st3" d="M201.8,412.6c-1.1,0-1.9-0.9-1.9-1.9c0-1.1,0.9-1.9,1.9-1.9c1.1,0,1.9,0.9,1.9,1.9S202.8,412.6,201.8,412.6z"
		/>
	<path class="st3" d="M201.8,412.8c1.2,0,2.2-1,2.2-2.2c0-1.2-1-2.2-2.2-2.2c-1.2,0-2.2,1-2.2,2.2
		C199.6,411.8,200.6,412.8,201.8,412.8C203,412.8,200.6,412.8,201.8,412.8z M201.8,409c0.9,0,1.7,0.8,1.6,1.7s-0.8,1.7-1.7,1.6
		c-0.9,0-1.7-0.8-1.6-1.7C200.1,409.7,200.9,409,201.8,409C202.7,409,200.9,409,201.8,409z"/>
</g>
<path class="st15" d="M883.6,488.9c-169.7-0.2-256.3-21.2-340.1-41.5c-83.7-20.3-170.3-41.3-339.9-41.4l0-1
	c169.7,0.2,256.3,21.2,340.1,41.5c83.7,20.3,170.3,41.3,339.9,41.4L883.6,488.9z"/>
<g>
	<path class="st16" d="M201.8,407.4c-1.1,0-1.9-0.9-1.9-1.9c0-1.1,0.9-1.9,1.9-1.9s1.9,0.9,1.9,1.9
		C203.7,406.5,202.8,407.4,201.8,407.4z"/>
	<path class="st16" d="M201.8,407.6c1.2,0,2.2-1,2.2-2.2c0-1.2-1-2.2-2.2-2.2c-1.2,0-2.2,1-2.2,2.2
		C199.6,406.6,200.6,407.6,201.8,407.6C203,407.6,200.6,407.6,201.8,407.6z M201.8,403.8c0.9,0,1.7,0.8,1.7,1.7
		c0,0.9-0.8,1.7-1.7,1.7c-0.9,0-1.7-0.8-1.7-1.7C200.1,404.5,200.9,403.8,201.8,403.8S200.9,403.8,201.8,403.8z"/>
</g>
<path class="st17" d="M883.6,535.1c-169.7-0.2-256.4-30.3-340.1-59.4c-83.7-29.1-170.3-59.1-339.8-59.4l0-1
	c169.7,0.2,256.4,30.3,340.1,59.4c83.7,29.1,170.3,59.1,339.8,59.4L883.6,535.1z"/>
<g>
	<path class="st18" d="M201.8,417.7c-1.1,0-1.9-0.9-1.9-1.9c0-1.1,0.9-1.9,1.9-1.9c1.1,0,1.9,0.9,1.9,1.9
		C203.7,416.9,202.8,417.8,201.8,417.7z"/>
	<path class="st18" d="M201.8,418c1.2,0,2.2-1,2.2-2.2c0-1.2-1-2.2-2.2-2.2s-2.2,1-2.2,2.2C199.6,417,200.6,418,201.8,418
		C203,418,200.6,418,201.8,418z M201.8,414.2c0.9,0,1.7,0.8,1.6,1.7s-0.8,1.7-1.7,1.6c-0.9,0-1.7-0.8-1.6-1.7
		S200.9,414.2,201.8,414.2C202.7,414.2,200.9,414.2,201.8,414.2z"/>
</g>
<path class="st15" d="M883.6,481.1c-76.2-0.2-142.2-13.3-201.9-39.8c-53.2-23.7-96.5-55.7-138.4-86.7
	c-83.7-61.8-170.2-125.8-339.7-126.3l0-1c76.2,0.2,142.2,13.3,201.9,39.8c53.2,23.7,96.5,55.7,138.4,86.7
	c83.7,61.8,170.2,125.8,339.7,126.3L883.6,481.1z"/>
<g>
	<path class="st16" d="M201.8,229.7c-1.1,0-1.9-0.9-1.9-1.9s0.9-1.9,1.9-1.9c1.1,0,1.9,0.9,1.9,1.9S202.8,229.8,201.8,229.7z"/>
	<path class="st16" d="M201.8,230c1.2,0,2.2-1,2.2-2.2s-1-2.2-2.2-2.2c-1.2,0-2.2,1-2.2,2.2S200.6,230,201.8,230
		C203,230,200.6,230,201.8,230z M201.8,226.2c0.9,0,1.7,0.8,1.6,1.7s-0.8,1.7-1.7,1.6c-0.9,0-1.7-0.8-1.6-1.7
		C200.1,226.9,200.9,226.1,201.8,226.2C202.7,226.2,200.9,226.1,201.8,226.2z"/>
</g>
<path class="st4" d="M883.6,390.8c-169.8-0.3-256.4-43.5-340.2-85.2c-83.7-41.7-170.2-84.7-339.8-85.1l0-1
	c169.8,0.3,256.4,43.5,340.2,85.2c83.7,41.7,170.2,84.7,339.8,85.1L883.6,390.8z"/>
<g>
	<path class="st5" d="M201.8,222c-1.1,0-1.9-0.9-1.9-2s0.9-1.9,2-1.9c1.1,0,1.9,0.9,1.9,2S202.8,222,201.8,222z"/>
	<path class="st5" d="M201.8,222.2c1.2,0,2.2-0.9,2.2-2.1c0-1.2-0.9-2.2-2.1-2.2c-1.2,0-2.2,0.9-2.2,2.1
		C199.6,221.2,200.6,222.2,201.8,222.2C203,222.3,200.6,222.2,201.8,222.2z M201.8,218.4c0.9,0,1.7,0.8,1.6,1.7
		c0,0.9-0.8,1.7-1.7,1.6c-0.9,0-1.7-0.8-1.6-1.7C200.1,219.1,200.9,218.4,201.8,218.4C202.7,218.4,200.9,218.4,201.8,218.4z"/>
</g>
<path class="st13" d="M883.6,512c-76.2-0.2-142.2-14.5-201.9-43.5c-53.2-25.9-96.5-60.8-138.4-94.6
	c-83.7-67.5-170.2-137.3-339.7-137.8l0-1c76.2,0.2,142.2,14.5,201.9,43.5c53.2,25.9,96.5,60.8,138.4,94.6
	c83.7,67.5,170.2,137.3,339.7,137.8L883.6,512z"/>
<g>
	
		<ellipse transform="matrix(0.8896 -0.4567 0.4567 0.8896 -85.3218 118.1629)" class="st14" cx="201.8" cy="235.6" rx="1.9" ry="1.9"/>
	<path class="st14" d="M201.8,237.8c1.2,0,2.2-0.9,2.2-2.1c0-1.2-0.9-2.2-2.1-2.2c-1.2,0-2.2,0.9-2.2,2.1
		C199.6,236.8,200.6,237.8,201.8,237.8C203,237.8,200.6,237.8,201.8,237.8z M201.8,233.9c0.9,0,1.7,0.8,1.6,1.7
		c0,0.9-0.8,1.7-1.7,1.6s-1.7-0.8-1.6-1.7C200.1,234.7,200.9,233.9,201.8,233.9C202.7,233.9,200.9,233.9,201.8,233.9z"/>
</g>
<path class="st0" d="M203.6,254l0-1c169.6-0.2,256.1-31.7,339.8-62.1c83.8-30.5,170.4-62,340.2-62.2l0,1
	c-169.6,0.2-256.1,31.7-339.8,62.1C460,222.3,373.3,253.8,203.6,254z"/>
<g>
	<path class="st1" d="M201.8,255.4c-1.1,0-1.9-0.8-1.9-1.9s0.8-1.9,1.9-1.9c1.1,0,1.9,0.8,1.9,1.9S202.9,255.4,201.8,255.4z"/>
	<path class="st1" d="M201.8,255.7c1.2,0,2.2-1,2.2-2.2c0-1.2-1-2.2-2.2-2.2s-2.2,1-2.2,2.2C199.6,254.7,200.6,255.7,201.8,255.7
		S200.6,255.7,201.8,255.7z M201.8,251.8c0.9,0,1.7,0.7,1.7,1.6s-0.7,1.7-1.6,1.7s-1.7-0.7-1.7-1.6S200.9,251.8,201.8,251.8
		S200.9,251.8,201.8,251.8z"/>
</g>
<path class="st2" d="M203.6,259.2v-1c169.6-0.1,256.2-10,339.9-19.5c83.8-9.6,170.4-19.4,340-19.5v1c-169.6,0.1-256.2,10-339.9,19.5
	C459.9,249.2,373.3,259.1,203.6,259.2z"/>
<g>
	<path class="st3" d="M201.8,260.6c-1.1,0-1.9-0.8-1.9-1.9c0-1.1,0.8-1.9,1.9-1.9c1.1,0,1.9,0.8,1.9,1.9
		C203.7,259.7,202.9,260.6,201.8,260.6z"/>
	<path class="st3" d="M201.8,260.9c1.2,0,2.2-1,2.2-2.2c0-1.2-1-2.2-2.2-2.2c-1.2,0-2.2,1-2.2,2.2
		C199.6,259.9,200.6,260.9,201.8,260.9C203,260.9,200.6,260.9,201.8,260.9z M201.8,257c0.9,0,1.7,0.7,1.7,1.7c0,0.9-0.7,1.7-1.7,1.7
		s-1.7-0.7-1.7-1.7C200.1,257.8,200.9,257,201.8,257S200.9,257,201.8,257z"/>
</g>
<path class="st6" d="M883.6,315.8c-169.7-0.1-256.3-13.1-340.1-25.7c-83.7-12.6-170.3-25.6-339.9-25.7v-1
	c169.7,0.1,256.3,13.1,340.1,25.7c83.7,12.6,170.3,25.6,339.9,25.7V315.8z"/>
<g>
	<path class="st7" d="M201.8,265.8c-1.1,0-1.9-0.9-1.9-1.9c0-1.1,0.9-1.9,1.9-1.9c1.1,0,1.9,0.9,1.9,1.9
		C203.7,265,202.8,265.8,201.8,265.8z"/>
	<path class="st7" d="M201.8,266.1c1.2,0,2.2-1,2.2-2.2c0-1.2-1-2.2-2.2-2.2c-1.2,0-2.2,1-2.2,2.2S200.6,266.1,201.8,266.1
		C203,266.1,200.6,266.1,201.8,266.1z M201.8,262.2c0.9,0,1.7,0.8,1.6,1.7s-0.8,1.7-1.7,1.6c-0.9,0-1.7-0.8-1.6-1.7
		C200.1,263,200.9,262.2,201.8,262.2S200.9,262.2,201.8,262.2z"/>
</g>
<path class="st4" d="M883.6,396c-169.7-0.3-256.4-32.3-340.2-63.2c-83.7-30.9-170.2-62.9-339.8-63.2l0-1
	c169.7,0.3,256.4,32.3,340.2,63.2c83.7,30.9,170.2,62.9,339.8,63.2L883.6,396z"/>
<g>
	<path class="st5" d="M201.8,271c-1.1,0-1.9-0.9-1.9-1.9s0.9-1.9,1.9-1.9c1.1,0,1.9,0.9,1.9,1.9S202.8,271,201.8,271z"/>
	<path class="st5" d="M201.8,271.3c1.2,0,2.2-1,2.2-2.2s-1-2.2-2.2-2.2c-1.2,0-2.2,1-2.2,2.2S200.6,271.2,201.8,271.3
		C203,271.3,200.6,271.2,201.8,271.3z M201.8,267.4c0.9,0,1.7,0.8,1.6,1.7c0,0.9-0.8,1.7-1.7,1.6c-0.9,0-1.7-0.8-1.6-1.7
		C200.1,268.1,200.9,267.4,201.8,267.4C202.7,267.4,200.9,267.4,201.8,267.4z"/>
</g>
<path class="st0" d="M203.6,434.3l0-1c169.5-0.6,256-71.1,339.7-139.2c41.9-34.1,85.2-69.4,138.4-95.5
	c59.7-29.3,125.7-43.7,201.9-43.9l0,1c-169.5,0.6-256,71.1-339.7,139.2c-41.9,34.1-85.2,69.4-138.4,95.5
	C345.8,419.6,279.8,434,203.6,434.3z"/>
<g>
	<path class="st1" d="M201.8,435.6c-1.1,0-1.9-0.8-1.9-1.9c0-1.1,0.8-1.9,1.9-1.9c1.1,0,1.9,0.8,1.9,1.9
		C203.7,434.8,202.9,435.6,201.8,435.6z"/>
	<path class="st1" d="M201.8,435.9c1.2,0,2.2-1,2.1-2.2c0-1.2-1-2.2-2.2-2.1c-1.2,0-2.2,1-2.1,2.2
		C199.6,435,200.6,435.9,201.8,435.9C203,435.9,200.6,435.9,201.8,435.9z M201.8,432.1c0.9,0,1.7,0.7,1.7,1.6c0,0.9-0.7,1.7-1.6,1.7
		c-0.9,0-1.7-0.7-1.7-1.6C200.1,432.8,200.9,432.1,201.8,432.1C202.7,432.1,200.9,432.1,201.8,432.1z"/>
</g>
<path class="st2" d="M203.6,439.4l0-1c169.5-0.4,256-49.3,339.7-96.6c41.9-23.7,85.2-48.2,138.4-66.3
	c59.7-20.3,125.7-30.3,201.8-30.5l0,1c-169.5,0.4-256,49.3-339.7,96.6c-41.9,23.7-85.2,48.2-138.4,66.3
	C345.8,429.3,279.8,439.3,203.6,439.4z"/>
<g>
	<path class="st3" d="M201.8,440.8c-1.1,0-1.9-0.8-2-1.9c0-1.1,0.8-1.9,1.9-2c1.1,0,1.9,0.8,2,1.9S202.9,440.8,201.8,440.8z"/>
	<path class="st3" d="M201.8,441.1c1.2,0,2.2-1,2.1-2.2c0-1.2-1-2.2-2.2-2.1c-1.2,0-2.2,1-2.1,2.2
		C199.6,440.1,200.6,441.1,201.8,441.1C203,441.1,200.6,441.1,201.8,441.1z M201.8,437.2c0.9,0,1.7,0.7,1.7,1.6
		c0,0.9-0.7,1.7-1.6,1.7c-0.9,0-1.7-0.7-1.7-1.6C200.1,438,200.8,437.2,201.8,437.2S200.8,437.2,201.8,437.2z"/>
</g>
<path class="st6" d="M203.6,444.6l0-1c169.6-0.2,256.1-28.9,339.8-56.6c83.8-27.7,170.4-56.4,340.1-56.6l0,1
	C714,331.6,627.5,360.3,543.8,388C460,415.7,373.3,444.4,203.6,444.6z"/>
<g>
	<path class="st7" d="M201.8,446c-1.1,0-1.9-0.8-1.9-1.9c0-1.1,0.8-1.9,1.9-1.9c1.1,0,1.9,0.8,1.9,1.9
		C203.7,445.1,202.9,446,201.8,446z"/>
	<path class="st7" d="M201.8,446.3c1.2,0,2.2-1,2.2-2.2c0-1.2-1-2.2-2.2-2.2c-1.2,0-2.2,1-2.2,2.2
		C199.6,445.3,200.6,446.3,201.8,446.3S200.6,446.3,201.8,446.3z M201.8,442.4c0.9,0,1.7,0.7,1.7,1.6c0,0.9-0.7,1.7-1.6,1.7
		c-0.9,0-1.7-0.7-1.7-1.6C200.1,443.2,200.9,442.4,201.8,442.4C202.7,442.4,200.9,442.4,201.8,442.4z"/>
</g>
<path class="st8" d="M203.6,593.8l0-1c169.5-0.3,256.1-35.3,339.8-69.2c83.8-33.9,170.4-69,340.2-69.2l0,1
	c-169.5,0.3-256.1,35.3-339.8,69.2C460,558.4,373.4,593.5,203.6,593.8z"/>
<g>
	<path class="st9" d="M201.8,595.2c-1.1,0-1.9-0.8-1.9-1.9s0.8-1.9,1.9-1.9c1.1,0,1.9,0.8,1.9,1.9S202.9,595.1,201.8,595.2z"/>
	<path class="st9" d="M201.8,595.4c1.2,0,2.2-1,2.1-2.2s-1-2.2-2.2-2.1c-1.2,0-2.2,1-2.1,2.2S200.6,595.4,201.8,595.4
		C203,595.4,200.6,595.4,201.8,595.4z M201.8,591.6c0.9,0,1.7,0.7,1.7,1.6c0,0.9-0.7,1.7-1.6,1.7c-0.9,0-1.7-0.7-1.7-1.6
		C200.1,592.3,200.9,591.6,201.8,591.6C202.7,591.6,200.9,591.6,201.8,591.6z"/>
</g>
<path class="st0" d="M883.6,114.1c-169.7-0.1-256.3-7-340-13.8c-83.7-6.7-170.3-13.7-339.9-13.8v-1c169.7,0.1,256.3,7,340,13.8
	c83.7,6.7,170.3,13.7,339.9,13.8V114.1z"/>
<g>
	<path class="st1" d="M201.8,88c-1.1,0-1.9-0.9-1.9-1.9c0-1.1,0.9-1.9,1.9-1.9c1.1,0,1.9,0.9,1.9,1.9S202.8,88,201.8,88z"/>
	<path class="st1" d="M201.8,88.2c1.2,0,2.2-1,2.2-2.2s-1-2.2-2.2-2.2c-1.2,0-2.2,1-2.2,2.2S200.6,88.2,201.8,88.2
		C203,88.3,200.6,88.2,201.8,88.2z M201.8,84.4c0.9,0,1.7,0.8,1.6,1.7c0,0.9-0.8,1.7-1.7,1.6c-0.9,0-1.7-0.8-1.6-1.7
		S200.9,84.4,201.8,84.4C202.7,84.4,200.9,84.4,201.8,84.4z"/>
</g>
<path class="st2" d="M883.6,209.8c-169.7-0.2-256.4-30.1-340.1-59.1c-83.7-28.9-170.3-58.8-339.8-59l0-1
	C373.3,91,460,120.9,543.8,149.8c83.7,28.9,170.3,58.8,339.8,59L883.6,209.8z"/>
<g>
	<path class="st3" d="M201.8,93.2c-1.1,0-1.9-0.9-1.9-1.9c0-1.1,0.9-1.9,1.9-1.9c1.1,0,1.9,0.9,1.9,1.9
		C203.7,92.3,202.8,93.2,201.8,93.2z"/>
	<path class="st3" d="M201.8,93.4c1.2,0,2.2-1,2.2-2.2c0-1.2-1-2.2-2.2-2.2c-1.2,0-2.2,1-2.2,2.2C199.6,92.4,200.6,93.4,201.8,93.4
		C203,93.4,200.6,93.4,201.8,93.4z M201.8,89.6c0.9,0,1.7,0.8,1.6,1.7c0,0.9-0.8,1.7-1.7,1.6s-1.7-0.8-1.6-1.7
		C200.1,90.3,200.9,89.6,201.8,89.6C202.7,89.6,200.9,89.6,201.8,89.6z"/>
</g>
<path class="st6" d="M883.6,295.1c-76.2-0.2-142.2-10.4-201.8-31.2c-53.2-18.6-96.5-43.7-138.4-67.9c-83.7-48.5-170.2-98.6-339.7-99
	l0-1c76.2,0.2,142.2,10.4,201.8,31.2c53.2,18.6,96.5,43.7,138.4,67.9c83.7,48.5,170.2,98.6,339.7,99L883.6,295.1z"/>
<g>
	<path class="st7" d="M201.8,98.4c-1.1,0-1.9-0.9-1.9-2c0-1.1,0.9-1.9,2-1.9s1.9,0.9,1.9,2C203.7,97.5,202.8,98.4,201.8,98.4z"/>
	<path class="st7" d="M201.8,98.6c1.2,0,2.2-0.9,2.2-2.1c0-1.2-0.9-2.2-2.1-2.2c-1.2,0-2.2,0.9-2.2,2.1S200.6,98.6,201.8,98.6
		C203,98.6,200.6,98.6,201.8,98.6z M201.8,94.8c0.9,0,1.7,0.8,1.6,1.7s-0.8,1.7-1.7,1.6c-0.9,0-1.7-0.8-1.6-1.7
		S200.9,94.8,201.8,94.8C202.7,94.8,200.9,94.8,201.8,94.8z"/>
</g>
<path class="st4" d="M883.6,375.2c-76.2-0.2-142.2-14.3-201.9-43c-53.2-25.6-96.5-60.2-138.4-93.6
	c-83.7-66.8-170.2-135.9-339.7-136.5l0-1c76.2,0.2,142.2,14.3,201.9,43c53.2,25.6,96.5,60.2,138.4,93.6
	c83.7,66.8,170.2,135.9,339.7,136.5L883.6,375.2z"/>
<g>
	<path class="st5" d="M201.8,103.5c-1.1,0-1.9-0.9-1.9-1.9s0.9-1.9,1.9-1.9c1.1,0,1.9,0.9,1.9,1.9S202.8,103.6,201.8,103.5z"/>
	<path class="st5" d="M201.8,103.8c1.2,0,2.2-0.9,2.2-2.1c0-1.2-0.9-2.2-2.1-2.2c-1.2,0-2.2,0.9-2.2,2.1
		C199.6,102.8,200.6,103.8,201.8,103.8C203,103.8,200.6,103.8,201.8,103.8z M201.8,100c0.9,0,1.7,0.8,1.6,1.7c0,0.9-0.8,1.7-1.7,1.6
		c-0.9,0-1.7-0.8-1.6-1.7C200.1,100.7,200.9,99.9,201.8,100C202.7,100,200.9,99.9,201.8,100z"/>
</g>
<path class="st0" d="M203.6,462.6l0-1c169.5-0.6,256-76.9,339.6-150.8c41.9-37,85.2-75.2,138.4-103.5
	c59.7-31.7,125.7-47.3,201.9-47.6l0,1c-169.5,0.6-256,76.9-339.6,150.8c-41.9,37-85.2,75.2-138.4,103.5
	C345.8,446.7,279.8,462.3,203.6,462.6z"/>
<g>
	<path class="st1" d="M201.8,464c-1.1,0-1.9-0.8-1.9-1.9s0.8-1.9,1.9-1.9c1.1,0,1.9,0.8,1.9,1.9S202.9,463.9,201.8,464z"/>
	<path class="st1" d="M201.8,464.2c1.2,0,2.2-1,2.1-2.2s-1-2.2-2.2-2.1s-2.2,1-2.1,2.2S200.6,464.2,201.8,464.2
		S200.6,464.2,201.8,464.2z M201.8,460.4c0.9,0,1.7,0.7,1.7,1.6c0,0.9-0.7,1.7-1.6,1.7s-1.7-0.7-1.7-1.6
		C200.1,461.1,200.9,460.4,201.8,460.4S200.9,460.4,201.8,460.4z"/>
</g>
<path class="st2" d="M203.6,467.8l0-1c169.5-0.4,256-55.2,339.7-108.2c41.9-26.5,85.2-53.9,138.4-74.2
	c59.7-22.8,125.7-33.9,201.9-34.1l0,1c-169.5,0.4-256,55.2-339.7,108.2c-41.9,26.5-85.2,53.9-138.4,74.2
	C345.8,456.4,279.8,467.6,203.6,467.8z"/>
<g>
	<path class="st3" d="M201.8,469.1c-1.1,0-1.9-0.8-2-1.9c0-1.1,0.8-1.9,1.9-2s1.9,0.8,2,1.9C203.7,468.2,202.9,469.1,201.8,469.1z"
		/>
	<path class="st3" d="M201.8,469.4c1.2,0,2.2-1,2.1-2.2c0-1.2-1-2.2-2.2-2.1s-2.2,1-2.1,2.2C199.6,468.4,200.6,469.4,201.8,469.4
		C203,469.4,200.6,469.4,201.8,469.4z M201.8,465.5c0.9,0,1.7,0.7,1.7,1.6c0,0.9-0.7,1.7-1.6,1.7c-0.9,0-1.7-0.7-1.7-1.6
		S200.8,465.6,201.8,465.5C202.7,465.5,200.8,465.6,201.8,465.5z"/>
</g>
<path class="st6" d="M203.6,472.9l0-1c169.5-0.3,256.1-34.8,339.8-68.2c83.8-33.4,170.4-68,340.2-68.2l0,1
	c-169.6,0.3-256.1,34.8-339.8,68.2C460,438.1,373.4,472.7,203.6,472.9z"/>
<g>
	<path class="st7" d="M201.8,474.3c-1.1,0-1.9-0.8-1.9-1.9s0.8-1.9,1.9-1.9c1.1,0,1.9,0.8,1.9,1.9
		C203.7,473.4,202.9,474.3,201.8,474.3z"/>
	<path class="st7" d="M201.8,474.6c1.2,0,2.2-1,2.1-2.2c0-1.2-1-2.2-2.2-2.1c-1.2,0-2.2,1-2.1,2.2S200.6,474.6,201.8,474.6
		C203,474.6,200.6,474.6,201.8,474.6z M201.8,470.7c0.9,0,1.7,0.7,1.7,1.6c0,0.9-0.7,1.7-1.6,1.7c-0.9,0-1.7-0.7-1.7-1.6
		C200.1,471.5,200.9,470.7,201.8,470.7C202.7,470.7,200.9,470.7,201.8,470.7z"/>
</g>
<path class="st17" d="M203.6,611.7v-1c169.6-0.1,256.2-18.2,339.9-35.7c83.8-17.5,170.4-35.6,340.1-35.7v1
	C714,540.4,627.4,558.5,543.7,576C459.9,593.5,373.3,611.6,203.6,611.7z"/>
<g>
	<path class="st18" d="M201.8,613.4c1.2,0,2.2-1,2.1-2.2c0-1.2-1-2.2-2.2-2.1c-1.2,0-2.2,1-2.1,2.2
		C199.6,612.4,200.6,613.4,201.8,613.4C203,613.3,200.6,613.4,201.8,613.4z M201.8,609.5c0.9,0,1.7,0.7,1.7,1.6
		c0,0.9-0.7,1.7-1.6,1.7s-1.7-0.7-1.7-1.6S200.9,609.5,201.8,609.5C202.7,609.5,200.9,609.5,201.8,609.5z"/>
</g>
<path class="st4" d="M883.6,364.9c-76.2-0.3-142.2-17.6-201.9-52.8c-53.2-31.4-96.5-73.8-138.4-114.8
	C459.6,115.3,373,30.6,203.6,29.9l0-1c76.2,0.3,142.2,17.6,201.9,52.8c53.2,31.4,96.5,73.8,138.4,114.8
	c83.7,81.9,170.2,166.6,339.6,167.3L883.6,364.9z"/>
<g>
	<path class="st5" d="M201.8,31.4c-1.1,0-1.9-0.9-1.9-1.9s0.9-1.9,1.9-1.9s1.9,0.9,1.9,1.9C203.7,30.5,202.8,31.4,201.8,31.4z"/>
	<path class="st5" d="M201.8,31.6c1.2,0,2.2-0.9,2.2-2.1c0-1.2-0.9-2.2-2.1-2.2c-1.2,0-2.2,0.9-2.2,2.1
		C199.6,30.6,200.6,31.6,201.8,31.6C203,31.7,200.6,31.6,201.8,31.6z M201.8,27.8c0.9,0,1.7,0.8,1.6,1.7c0,0.9-0.8,1.7-1.7,1.6
		c-0.9,0-1.7-0.8-1.6-1.7C200.1,28.5,200.9,27.8,201.8,27.8C202.7,27.8,200.9,27.8,201.8,27.8z"/>
</g>
<path class="st0" d="M883.6,103.8C713.9,103.6,627.2,81,543.5,59.1c-83.7-21.9-170.3-44.5-339.9-44.7l0-1
	c169.7,0.2,256.3,22.8,340.1,44.7c83.7,21.9,170.3,44.5,339.9,44.7L883.6,103.8z"/>
<g>
	<path class="st1" d="M201.8,15.8c-1.1,0-1.9-0.9-1.9-1.9c0-1.1,0.9-1.9,1.9-1.9s1.9,0.9,1.9,1.9C203.7,15,202.8,15.8,201.8,15.8z"
		/>
	<path class="st1" d="M201.8,16.1c1.2,0,2.2-1,2.2-2.2s-1-2.2-2.2-2.2c-1.2,0-2.2,1-2.2,2.2S200.6,16.1,201.8,16.1
		C203,16.1,200.6,16.1,201.8,16.1z M201.8,12.2c0.9,0,1.7,0.8,1.7,1.7s-0.8,1.7-1.7,1.7c-0.9,0-1.7-0.8-1.7-1.7
		C200.1,13,200.9,12.2,201.8,12.2C202.7,12.2,200.9,12.2,201.8,12.2z"/>
</g>
<path class="st8" d="M883.6,434.6c-40.8-0.2-77.7-5.9-112.9-17.6c-31.3-10.4-60.4-25.2-89.1-45.4c-53.2-37.4-96.5-88-138.4-137
	C459.5,137,373,35.9,203.6,35.1l0-1c40.8,0.2,77.7,5.9,112.9,17.6c31.3,10.4,60.4,25.2,89.1,45.4c53.2,37.4,96.5,88,138.4,137
	c83.7,97.7,170.2,198.8,339.6,199.6L883.6,434.6z"/>
<g>
	<path class="st9" d="M201.8,36.6c-1.1,0-1.9-0.9-1.9-2c0-1.1,0.9-1.9,2-1.9c1.1,0,1.9,0.9,1.9,2C203.7,35.7,202.8,36.6,201.8,36.6z
		"/>
	<path class="st9" d="M201.8,36.8c1.2,0,2.2-0.9,2.2-2.1c0-1.2-0.9-2.2-2.1-2.2c-1.2,0-2.2,0.9-2.2,2.1
		C199.6,35.8,200.6,36.8,201.8,36.8C203,36.8,200.6,36.8,201.8,36.8z M201.8,33c0.9,0,1.7,0.8,1.6,1.7s-0.8,1.7-1.7,1.6
		c-0.9,0-1.7-0.8-1.6-1.7C200.1,33.7,200.9,33,201.8,33C202.7,33,200.9,33,201.8,33z"/>
</g>
<path class="st2" d="M883.6,199.4c-76.2-0.2-142.2-9.4-201.8-28.3c-53.2-16.9-96.5-39.6-138.4-61.7c-83.7-44-170.2-89.5-339.7-89.9
	l0-1c76.2,0.2,142.2,9.4,201.8,28.3c53.2,16.9,96.5,39.6,138.4,61.7c83.7,44,170.2,89.5,339.7,89.9L883.6,199.4z"/>
<g>
	<path class="st3" d="M201.8,21c-1.1,0-1.9-0.9-1.9-2c0-1.1,0.9-1.9,2-1.9c1.1,0,1.9,0.9,1.9,2C203.7,20.2,202.8,21,201.8,21z"/>
	<path class="st3" d="M201.8,21.3c1.2,0,2.2-0.9,2.2-2.1c0-1.2-0.9-2.2-2.1-2.2s-2.2,0.9-2.2,2.1C199.6,20.3,200.6,21.3,201.8,21.3
		C203,21.3,200.6,21.3,201.8,21.3z M201.8,17.4c0.9,0,1.7,0.8,1.6,1.7c0,0.9-0.8,1.7-1.7,1.6c-0.9,0-1.7-0.8-1.6-1.7
		C200.1,18.2,200.9,17.4,201.8,17.4C202.7,17.4,200.9,17.4,201.8,17.4z"/>
</g>
<path class="st6" d="M883.6,284.7c-76.2-0.2-142.2-13.6-201.9-41c-53.2-24.4-96.5-57.3-138.4-89.1C459.6,91,373.1,25.3,203.6,24.8
	l0-1c76.2,0.2,142.2,13.6,201.9,41c53.2,24.4,96.5,57.3,138.4,89.1c83.7,63.6,170.2,129.4,339.7,129.9L883.6,284.7z"/>
<g>
	<path class="st7" d="M201.8,26.2c-1.1,0-1.9-0.9-1.9-1.9c0-1.1,0.9-1.9,1.9-1.9c1.1,0,1.9,0.9,1.9,1.9
		C203.7,25.4,202.8,26.2,201.8,26.2z"/>
	<path class="st7" d="M201.8,26.4c1.2,0,2.2-1,2.2-2.1c0-1.2-1-2.2-2.1-2.2c-1.2,0-2.2,1-2.2,2.1S200.6,26.4,201.8,26.4
		C203,26.5,200.6,26.4,201.8,26.4z M201.8,22.6c0.9,0,1.7,0.8,1.6,1.7c0,0.9-0.8,1.7-1.7,1.6c-0.9,0-1.7-0.8-1.6-1.7
		S200.9,22.6,201.8,22.6C202.7,22.6,200.9,22.6,201.8,22.6z"/>
</g>
<path class="st6" d="M203.6,529.6l0-1c169.5-0.4,256.1-47.9,339.7-93.8c41.9-23,85.2-46.8,138.4-64.4
	c59.7-19.7,125.7-29.4,201.8-29.6l0,1c-169.5,0.4-256.1,47.9-339.7,93.8c-41.9,23-85.2,46.8-138.4,64.4
	C345.8,519.7,279.8,529.4,203.6,529.6z"/>
<g>
	<path class="st7" d="M201.8,530.9c-1.1,0-1.9-0.8-2-1.9s0.8-1.9,1.9-2s1.9,0.8,2,1.9S202.9,530.9,201.8,530.9z"/>
	<path class="st7" d="M201.8,531.2c1.2,0,2.2-1,2.1-2.2s-1-2.2-2.2-2.1c-1.2,0-2.2,1-2.1,2.2C199.6,530.3,200.6,531.2,201.8,531.2
		C203,531.2,200.6,531.2,201.8,531.2z M201.8,527.4c0.9,0,1.7,0.7,1.7,1.6c0,0.9-0.7,1.7-1.6,1.7c-0.9,0-1.7-0.7-1.7-1.6
		C200.1,528.1,200.8,527.4,201.8,527.4C202.7,527.3,200.8,527.4,201.8,527.4z"/>
</g>
<path class="st0" d="M203.6,519.2l0-1c169.4-0.7,256-88.7,339.6-173.9c41.9-42.6,85.2-86.7,138.4-119.3
	c59.7-36.6,125.7-54.5,201.9-54.9l0,1c-169.4,0.7-256,88.7-339.6,173.9c-41.9,42.6-85.2,86.7-138.4,119.3
	C345.9,500.9,279.8,518.9,203.6,519.2z"/>
<g>
	<path class="st1" d="M201.8,520.6c-1.1,0-1.9-0.8-2-1.9c0-1.1,0.8-1.9,1.9-2c1.1,0,1.9,0.8,2,1.9
		C203.7,519.7,202.9,520.6,201.8,520.6z"/>
	<path class="st1" d="M201.8,520.8c1.2,0,2.2-1,2.1-2.2c0-1.2-1-2.2-2.2-2.1c-1.2,0-2.2,1-2.1,2.2S200.6,520.9,201.8,520.8
		C203,520.8,200.6,520.9,201.8,520.8z M201.8,517c0.9,0,1.7,0.7,1.7,1.6c0,0.9-0.7,1.7-1.6,1.7c-0.9,0-1.7-0.7-1.7-1.6
		C200.1,517.8,200.9,517,201.8,517C202.7,517,200.9,517,201.8,517z"/>
</g>
<path class="st2" d="M203.6,524.4l0-1c169.5-0.5,256-67,339.7-131.3c41.9-32.2,85.2-65.5,138.4-90.1
	c59.7-27.6,125.7-41.2,201.9-41.4l0,1c-169.5,0.5-256,67-339.7,131.3c-41.9,32.2-85.2,65.5-138.4,90.1
	C345.8,510.6,279.8,524.1,203.6,524.4z"/>
<g>
	<path class="st3" d="M201.8,525.8c-1.1,0-1.9-0.8-1.9-1.9s0.8-1.9,1.9-1.9c1.1,0,1.9,0.8,1.9,1.9
		C203.7,524.9,202.9,525.8,201.8,525.8z"/>
	<path class="st3" d="M201.8,526c1.2,0,2.2-1,2.1-2.2c0-1.2-1-2.2-2.2-2.1c-1.2,0-2.2,1-2.1,2.2C199.6,525.1,200.6,526,201.8,526
		C203,526,200.6,526,201.8,526z M201.8,522.2c0.9,0,1.7,0.7,1.7,1.6c0,0.9-0.7,1.7-1.6,1.7c-0.9,0-1.7-0.7-1.7-1.6
		C200.1,522.9,200.9,522.2,201.8,522.2C202.7,522.2,200.9,522.2,201.8,522.2z"/>
</g>
<path class="st8" d="M203.6,629.7l0-1c169.5-0.3,256.1-43.1,339.8-84.5c83.8-41.4,170.4-84.3,340.2-84.6l0,1
	c-169.5,0.3-256.1,43.1-339.8,84.5C460,586.5,373.4,629.3,203.6,629.7z"/>
<g>
	<path class="st9" d="M201.8,631.3c1.2,0,2.2-1,2.1-2.2c0-1.2-1-2.2-2.2-2.1c-1.2,0-2.2,1-2.1,2.2
		C199.6,630.4,200.6,631.3,201.8,631.3C203,631.3,200.6,631.3,201.8,631.3z M201.8,627.5c0.9,0,1.7,0.7,1.7,1.6
		c0,0.9-0.7,1.7-1.6,1.7s-1.7-0.7-1.7-1.6C200.1,628.2,200.9,627.5,201.8,627.5C202.7,627.5,200.9,627.5,201.8,627.5z"/>
</g>
<path class="st6" d="M203.6,575.8l0-1c169.5-0.5,256-58.4,339.7-114.4c41.9-28,85.2-57,138.4-78.5c59.7-24.1,125.7-35.9,201.9-36.1
	l0,1c-169.5,0.5-256,58.4-339.7,114.4c-41.9,28-85.2,57-138.4,78.5C345.8,563.8,279.8,575.6,203.6,575.8z"/>
<g>
	<path class="st7" d="M201.8,577.2c-1.1,0-1.9-0.8-2-1.9c0-1.1,0.8-1.9,1.9-2s1.9,0.8,2,1.9C203.7,576.3,202.9,577.2,201.8,577.2z"
		/>
	<path class="st7" d="M201.8,577.4c1.2,0,2.2-1,2.1-2.2c0-1.2-1-2.2-2.2-2.1c-1.2,0-2.2,1-2.1,2.2
		C199.6,576.5,200.6,577.5,201.8,577.4C203,577.4,200.6,577.5,201.8,577.4z M201.8,573.6c0.9,0,1.7,0.7,1.7,1.6s-0.7,1.7-1.6,1.7
		c-0.9,0-1.7-0.7-1.7-1.6C200.1,574.4,200.8,573.6,201.8,573.6C202.7,573.6,200.8,573.6,201.8,573.6z"/>
</g>
<path class="st0" d="M203.6,570.6l0-1c169.4-0.8,255.9-99.2,339.6-194.4c41.9-47.7,85.2-96.9,138.4-133.4
	c28.6-19.6,57.8-34.1,89.1-44.2c35.1-11.3,72-16.9,112.9-17.1l0,1c-169.4,0.8-255.9,99.2-339.6,194.4
	c-41.9,47.7-85.2,96.9-138.4,133.4c-28.6,19.6-57.8,34.1-89.1,44.2C281.4,564.8,244.4,570.5,203.6,570.6z"/>
<g>
	<path class="st1" d="M201.8,572c-1.1,0-1.9-0.8-2-1.9c0-1.1,0.8-1.9,1.9-2c1.1,0,1.9,0.8,2,1.9C203.7,571.1,202.9,572,201.8,572z"
		/>
	<path class="st1" d="M201.8,572.3c1.2,0,2.2-1,2.1-2.2c0-1.2-1-2.2-2.2-2.1s-2.2,1-2.1,2.2C199.6,571.3,200.6,572.3,201.8,572.3
		C203,572.3,200.6,572.3,201.8,572.3z M201.8,568.4c0.9,0,1.7,0.7,1.7,1.6c0,0.9-0.7,1.7-1.6,1.7s-1.7-0.7-1.7-1.6
		C200.1,569.2,200.8,568.4,201.8,568.4C202.7,568.4,200.8,568.4,201.8,568.4z"/>
</g>
<path class="st0" d="M203.6,321l0-1c169.5-0.4,256.1-46.1,339.7-90.4c41.9-22.2,85.2-45.1,138.4-62c59.7-19,125.7-28.3,201.8-28.5
	l0,1c-169.5,0.4-256.1,46.1-339.7,90.4c-41.9,22.2-85.2,45.1-138.4,62C345.8,311.5,279.8,320.9,203.6,321z"/>
<g>
	<path class="st1" d="M201.8,322.4c-1.1,0-1.9-0.8-2-1.9c0-1.1,0.8-1.9,1.9-2c1.1,0,1.9,0.8,2,1.9
		C203.7,321.5,202.9,322.4,201.8,322.4z"/>
	<path class="st1" d="M201.8,322.6c1.2,0,2.2-1,2.1-2.2s-1-2.2-2.2-2.1s-2.2,1-2.1,2.2S200.6,322.7,201.8,322.6
		C203,322.6,200.6,322.7,201.8,322.6z M201.8,318.8c0.9,0,1.7,0.7,1.7,1.6c0,0.9-0.7,1.7-1.6,1.7c-0.9,0-1.7-0.7-1.7-1.6
		C200.1,319.6,200.8,318.8,201.8,318.8C202.7,318.8,200.8,318.8,201.8,318.8z"/>
</g>
<path class="st2" d="M203.6,326.2l0-1c169.6-0.2,256.1-24.4,339.8-47.8c83.8-23.4,170.4-47.7,340.1-47.9l0,1
	c-169.6,0.2-256.1,24.4-339.8,47.8C460,301.8,373.3,326,203.6,326.2z"/>
<g>
	<path class="st3" d="M201.8,327.6c-1.1,0-1.9-0.8-1.9-1.9c0-1.1,0.8-1.9,1.9-1.9c1.1,0,1.9,0.8,1.9,1.9
		C203.7,326.7,202.9,327.6,201.8,327.6z"/>
	<path class="st3" d="M201.8,327.8c1.2,0,2.2-1,2.2-2.2s-1-2.2-2.2-2.2c-1.2,0-2.2,1-2.2,2.2C199.6,326.9,200.6,327.9,201.8,327.8
		C203,327.8,200.6,327.9,201.8,327.8z M201.8,324c0.9,0,1.7,0.7,1.7,1.7c0,0.9-0.7,1.7-1.7,1.7c-0.9,0-1.7-0.7-1.7-1.7
		C200.1,324.8,200.9,324,201.8,324C202.7,324,200.9,324,201.8,324z"/>
</g>
<path class="st6" d="M203.6,331.4v-1c169.6,0,256.2-2.6,340-5.2c83.7-2.5,170.3-5.2,340-5.2v1c-169.6,0-256.2,2.6-340,5.2
	C459.9,328.7,373.3,331.4,203.6,331.4z"/>
<g>
	<path class="st7" d="M201.8,332.8c-1.1,0-1.9-0.9-1.9-1.9s0.9-1.9,1.9-1.9c1.1,0,1.9,0.9,1.9,1.9S202.9,332.8,201.8,332.8z"/>
	<path class="st7" d="M201.8,333c1.2,0,2.2-1,2.2-2.2s-1-2.2-2.2-2.2c-1.2,0-2.2,1-2.2,2.2S200.6,333,201.8,333S200.6,333,201.8,333
		z M201.8,329.2c0.9,0,1.7,0.7,1.7,1.7c0,0.9-0.7,1.7-1.7,1.7c-0.9,0-1.7-0.7-1.7-1.7C200.1,329.9,200.9,329.2,201.8,329.2
		C202.7,329.2,200.9,329.2,201.8,329.2z"/>
</g>
<path class="st0" d="M203.6,490.9l0-1c169.4-0.7,256-82.8,339.6-162.3c41.9-39.8,85.2-81,138.4-111.4
	c59.7-34.2,125.7-50.9,201.9-51.2l0,1c-169.4,0.7-256,82.8-339.6,162.3c-41.9,39.8-85.2,81-138.4,111.4
	C345.9,473.8,279.8,490.6,203.6,490.9z"/>
<g>
	<path class="st1" d="M201.8,492.3c-1.1,0-1.9-0.8-1.9-1.9c0-1.1,0.8-1.9,1.9-1.9c1.1,0,1.9,0.8,1.9,1.9
		C203.7,491.4,202.9,492.3,201.8,492.3z"/>
	<path class="st1" d="M201.8,492.5c1.2,0,2.2-1,2.1-2.2c0-1.2-1-2.2-2.2-2.1c-1.2,0-2.2,1-2.1,2.2S200.6,492.5,201.8,492.5
		C203,492.5,200.6,492.5,201.8,492.5z M201.8,488.7c0.9,0,1.7,0.7,1.7,1.6c0,0.9-0.7,1.7-1.6,1.7c-0.9,0-1.7-0.7-1.7-1.6
		C200.1,489.5,200.9,488.7,201.8,488.7C202.7,488.7,200.9,488.7,201.8,488.7z"/>
</g>
<path class="st2" d="M203.6,496.1l0-1c169.5-0.5,256-61.1,339.7-119.7c41.9-29.4,85.2-59.7,138.4-82.2
	c59.7-25.2,125.7-37.5,201.9-37.8l0,1c-169.5,0.5-256,61.1-339.7,119.7c-41.9,29.3-85.2,59.7-138.4,82.2
	C345.8,483.5,279.8,495.9,203.6,496.1z"/>
<g>
	<path class="st3" d="M201.8,497.5c-1.1,0-1.9-0.8-1.9-1.9c0-1.1,0.8-1.9,1.9-1.9s1.9,0.8,1.9,1.9
		C203.7,496.6,202.9,497.4,201.8,497.5z"/>
	<path class="st3" d="M201.8,497.7c1.2,0,2.2-1,2.2-2.2c0-1.2-1-2.2-2.2-2.2s-2.2,1-2.2,2.2C199.6,496.8,200.6,497.7,201.8,497.7
		C203,497.7,200.6,497.7,201.8,497.7z M201.8,493.9c0.9,0,1.7,0.7,1.7,1.6c0,0.9-0.7,1.7-1.6,1.7c-0.9,0-1.7-0.7-1.7-1.6
		C200.1,494.6,200.9,493.9,201.8,493.9C202.7,493.9,200.9,493.9,201.8,493.9z"/>
</g>
<path class="st4" d="M203.6,501.3l0-1c169.6-0.2,256.1-22.9,339.9-44.9c83.8-22,170.4-44.7,340.1-44.9l0,1
	c-169.6,0.2-256.1,22.9-339.9,44.9C459.9,478.3,373.3,501.1,203.6,501.3z"/>
<g>
	<path class="st5" d="M201.8,502.6c-1.1,0-1.9-0.8-1.9-1.9s0.8-1.9,1.9-1.9s1.9,0.8,1.9,1.9S202.9,502.6,201.8,502.6z"/>
	<path class="st5" d="M201.8,502.9c1.2,0,2.2-1,2.2-2.2c0-1.2-1-2.2-2.2-2.2c-1.2,0-2.2,1-2.2,2.2S200.6,502.9,201.8,502.9
		C203,502.9,200.6,502.9,201.8,502.9z M201.8,499.1c0.9,0,1.7,0.7,1.7,1.7s-0.7,1.7-1.7,1.7c-0.9,0-1.7-0.7-1.7-1.7
		C200.1,499.8,200.9,499.1,201.8,499.1C202.7,499.1,200.9,499.1,201.8,499.1z"/>
</g>
<path class="st2" d="M203.6,292.7v-1c169.6-0.1,256.2-17.2,339.9-33.7c83.8-16.5,170.4-33.6,340.1-33.7v1
	C714,225.5,627.4,242.5,543.7,259C459.9,275.5,373.3,292.6,203.6,292.7z"/>
<g>
	<path class="st3" d="M201.8,294.1c-1.1,0-1.9-0.8-1.9-1.9c0-1.1,0.8-1.9,1.9-1.9c1.1,0,1.9,0.8,1.9,1.9
		C203.7,293.2,202.9,294.1,201.8,294.1z"/>
	<path class="st3" d="M201.8,294.3c1.2,0,2.2-1,2.1-2.2c0-1.2-1-2.2-2.2-2.1c-1.2,0-2.2,1-2.1,2.2
		C199.6,293.4,200.6,294.4,201.8,294.3C203,294.3,200.6,294.4,201.8,294.3z M201.8,290.5c0.9,0,1.7,0.7,1.7,1.6
		c0,0.9-0.7,1.7-1.6,1.7c-0.9,0-1.7-0.7-1.7-1.6S200.9,290.5,201.8,290.5C202.7,290.5,200.9,290.5,201.8,290.5z"/>
</g>
<path class="st4" d="M883.6,401.1c-169.7-0.2-256.4-26.4-340.1-51.6c-83.7-25.3-170.3-51.4-339.8-51.6l0-1
	c169.7,0.2,256.4,26.4,340.1,51.6c83.7,25.3,170.3,51.4,339.8,51.6L883.6,401.1z"/>
<g>
	<path class="st5" d="M201.8,299.3c-1.1,0-1.9-0.9-1.9-1.9c0-1.1,0.9-1.9,1.9-1.9c1.1,0,1.9,0.9,1.9,1.9
		C203.7,298.5,202.8,299.3,201.8,299.3z"/>
	<path class="st5" d="M201.8,299.6c1.2,0,2.2-1,2.2-2.2c0-1.2-1-2.2-2.2-2.2c-1.2,0-2.2,1-2.2,2.2
		C199.6,298.6,200.6,299.6,201.8,299.6C203,299.6,200.6,299.6,201.8,299.6z M201.8,295.7c0.9,0,1.7,0.8,1.6,1.7
		c0,0.9-0.8,1.7-1.7,1.6s-1.7-0.8-1.6-1.7C200.1,296.5,200.9,295.7,201.8,295.7C202.7,295.7,200.9,295.7,201.8,295.7z"/>
</g>
<path class="st8" d="M883.6,450.2c-169.8-0.3-256.4-37.6-340.2-73.6c-83.7-36-170.2-73.2-339.8-73.5l0-1
	c169.8,0.3,256.4,37.6,340.2,73.6c83.7,36,170.2,73.2,339.8,73.5L883.6,450.2z"/>
<g>
	<path class="st9" d="M201.8,304.5c-1.1,0-1.9-0.9-1.9-1.9c0-1.1,0.9-1.9,1.9-1.9c1.1,0,1.9,0.9,1.9,1.9S202.8,304.5,201.8,304.5z"
		/>
	<path class="st9" d="M201.8,304.8c1.2,0,2.2-0.9,2.2-2.1c0-1.2-0.9-2.2-2.1-2.2c-1.2,0-2.2,0.9-2.2,2.1S200.6,304.7,201.8,304.8
		C203,304.8,200.6,304.7,201.8,304.8z M201.8,300.9c0.9,0,1.7,0.8,1.6,1.7c0,0.9-0.8,1.7-1.7,1.6c-0.9,0-1.7-0.8-1.6-1.7
		S200.9,300.9,201.8,300.9C202.7,300.9,200.9,300.9,201.8,300.9z"/>
</g>
<path class="st0" d="M203.6,287.5l0-1c169.5-0.3,256.1-38.9,339.8-76.3c83.8-37.4,170.4-76.1,340.2-76.4l0,1
	c-169.5,0.3-256.1,38.9-339.8,76.3C460,248.5,373.4,287.2,203.6,287.5z"/>
<g>
	<path class="st1" d="M201.8,288.9c-1.1,0-1.9-0.8-1.9-1.9s0.8-1.9,1.9-1.9c1.1,0,1.9,0.8,1.9,1.9S202.9,288.9,201.8,288.9z"/>
	<path class="st1" d="M201.8,289.2c1.2,0,2.2-1,2.1-2.2s-1-2.2-2.2-2.1s-2.2,1-2.1,2.2C199.6,288.2,200.6,289.2,201.8,289.2
		S200.6,289.2,201.8,289.2z M201.8,285.3c0.9,0,1.7,0.7,1.7,1.6s-0.7,1.7-1.6,1.7c-0.9,0-1.7-0.7-1.7-1.6S200.9,285.3,201.8,285.3
		C202.7,285.3,200.9,285.3,201.8,285.3z"/>
</g>
<path class="st2" d="M203.6,647.6l0-1c169.4-0.8,255.9-97.1,339.6-190.2c41.9-46.6,85.2-94.9,138.4-130.6
	c28.6-19.2,57.8-33.4,89.1-43.3c35.1-11.1,72-16.6,112.9-16.8l0,1C714.2,267.6,627.6,363.9,544,457
	c-41.9,46.6-85.2,94.9-138.4,130.6c-28.6,19.2-57.8,33.4-89.1,43.3C281.4,642,244.4,647.4,203.6,647.6z"/>
<g>
	<path class="st3" d="M201.8,649.3c1.2,0,2.2-1,2.1-2.2c0-1.2-1-2.2-2.2-2.1c-1.2,0-2.2,1-2.1,2.2S200.6,649.3,201.8,649.3
		C203,649.2,200.6,649.3,201.8,649.3z M201.8,645.4c0.9,0,1.7,0.7,1.7,1.6c0,0.9-0.7,1.7-1.6,1.7s-1.7-0.7-1.7-1.6
		C200.1,646.2,200.8,645.4,201.8,645.4S200.8,645.4,201.8,645.4z"/>
</g>
<text transform="matrix(1 0 0 1 902.7161 560.4072)" class="st19 st20 st21">Enhance the image of Mexico</text>
<text transform="matrix(1 0 0 1 902.7161 392.7133)" class="st19 st20 st21">Enhancement and support of local production</text>
<text transform="matrix(1 0 0 1 902.7166 235.314)" class="st19 st20 st21">Food safety</text>
<text transform="matrix(1 0 0 1 902.7161 317.7813)" class="st19 st20 st21">Helping producers in improving their lives</text>
<text transform="matrix(1 0 0 1 902.7161 540.158)" class="st19 st20 st21">Inspiring local action to solve local problems</text>
<text transform="matrix(1 0 0 1 902.7158 449.5967)" class="st19 st20 st21">Promote a fair-trade society</text>
<text transform="matrix(1 0 0 1 902.7161 486.8842)" class="st19 st20 st21">Promote certification labels</text>
<text transform="matrix(1 0 0 1 902.7158 513.8965)" class="st19 st20 st21">Raising awareness of consumers and retailers</text>
<path class="st22" d="M885.6,101.1L885.6,101.1c1.2,0,2.2,1,2.2,2.2v77.5c0,1.2-1,2.2-2.2,2.2l0,0c-1.2,0-2.2-1-2.2-2.2v-77.5
	C883.4,102.1,884.4,101.1,885.6,101.1z"/>
<path class="st23" d="M885.6,196.7L885.6,196.7c1.2,0,2.2,1,2.2,2.2v67.4c0,1.2-1,2.2-2.2,2.2l0,0c-1.2,0-2.2-1-2.2-2.2v-67.4
	C883.4,197.7,884.4,196.7,885.6,196.7z"/>
<path class="st24" d="M885.6,282L885.6,282c1.2,0,2.2,1,2.2,2.2v61.7c0,1.2-1,2.2-2.2,2.2l0,0c-1.2,0-2.2-1-2.2-2.2v-61.7
	C883.4,283,884.4,282,885.6,282z"/>
<path class="st25" d="M885.6,362.2L885.6,362.2c1.2,0,2.2,1,2.2,2.2v51.4c0,1.2-1,2.2-2.2,2.2l0,0c-1.2,0-2.2-1-2.2-2.2v-51.4
	C883.4,363.1,884.4,362.2,885.6,362.2z"/>
<path class="st26" d="M885.6,432L885.6,432c1.2,0,2.2,1,2.2,2.2v25.5c0,1.2-1,2.2-2.2,2.2l0,0c-1.2,0-2.2-1-2.2-2.2v-25.5
	C883.4,433,884.4,432,885.6,432z"/>
<path class="st27" d="M885.5,478.4L885.5,478.4c1.2,0,2.2,1,2.2,2.2v7.3c0,1.2-1,2.2-2.2,2.2l0,0c-1.2,0-2.2-1-2.2-2.2v-7.3
	C883.3,479.3,884.3,478.4,885.5,478.4z"/>
<path class="st28" d="M885.5,504.1L885.5,504.1c1.2,0,2.2,1,2.2,2.2v9.9c0,1.2-1,2.2-2.2,2.2l0,0c-1.2,0-2.2-1-2.2-2.2v-9.9
	C883.3,505.1,884.3,504.1,885.5,504.1z"/>
<path class="st29" d="M885.6,532.9L885.6,532.9c1.2,0,2.2,1,2.2,2.2v4.7c0,1.2-1,2.2-2.2,2.2l0,0c-1.2,0-2.2-1-2.2-2.2v-4.7
	C883.4,533.9,884.4,532.9,885.6,532.9z"/>
<text transform="matrix(1 0 0 1 902.7156 144.715)" class="st19 st20 st21">Sustainable cultivation</text>
<g>
	<text transform="matrix(1 0 0 1 88.2424 356.4901)" class="st19 st20 st30">Abudance Coop</text>
</g>
<g>
	<text transform="matrix(1 0 0 1 111.1122 128.696)" class="st19 st20 st30">Bio Planeta</text>
</g>
<g>
	<text transform="matrix(1 0 0 1 109.4705 163.441)" class="st19 st20 st30">Campo Vivo</text>
</g>
<g>
	<text transform="matrix(1 0 0 1 102.9426 384.6046)" class="st19 st20 st30">Central Coop</text>
</g>
<g>
	<text transform="matrix(1 0 0 1 128.9099 196.8929)" class="st19 st20 st30">Conecto</text>
</g>
<g>
	<text transform="matrix(1 0 0 1 29.4192 62.4099)" class="st19 st20 st30">Del Rey Avocado Company</text>
</g>
<g>
	<text transform="matrix(1 0 0 1 57.0911 552.1566)" class="st19 st20 st30">Equal Exchange Coop</text>
</g>
<g>
	<text transform="matrix(1 0 0 1 75.6672 413.6531)" class="st19 st20 st30">Fair World Project</text>
</g>
<g>
	<text transform="matrix(1 0 0 1 76.4831 230.5919)" class="st19 st20 st30">Fairtrade America</text>
</g>
<g>
	<text transform="matrix(1 0 0 1 125.2268 263.9029)" class="st19 st20 st30">Fairtrasa</text>
</g>
<g>
	<text transform="matrix(1 0 0 1 90.8953 441.9186)" class="st19 st20 st30">Harvest Market</text>
</g>
<g>
	<text transform="matrix(1 0 0 1 99.7507 594.9035)" class="st19 st20 st30">La Coperacha</text>
</g>
<g>
	<text transform="matrix(1 0 0 1 109.5066 96.4546)" class="st19 st20 st30">La Cupanda</text>
</g>
<g>
	<text transform="matrix(1 0 0 1 2.2756 470.7341)" class="st19 st20 st30">Middleburt Natural Food Coops</text>
</g>
<g>
	<text transform="matrix(1 0 0 1 105.3904 612.8515)" class="st19 st20 st30">Peace Geeks</text>
</g>
<g>
	<text transform="matrix(1 0 0 1 137.2747 27.3535)" class="st19 st20 st30">Pragor</text>
</g>
<g>
	<text transform="matrix(1 0 0 1 78.283 526.6453)" class="st19 st20 st30">Prometo Produce</text>
</g>
<g>
	<text transform="matrix(1 0 0 1 146.5261 631.7888)" class="st19 st20 st30">RSES</text>
</g>
<g>
	<text transform="matrix(1 0 0 1 64.1951 575.8244)" class="st19 st20 st30">Untours Foundation</text>
</g>
<g>
	<text transform="matrix(1 0 0 1 60.8469 328.6834)" class="st19 st20 st30">Valley Natural Foods</text>
</g>
<g>
	<text transform="matrix(1 0 0 1 31.7351 498.1942)" class="st19 st20 st30">Viroqua Food Cooperative</text>
</g>
<g>
	<text transform="matrix(1 0 0 1 56.4431 297.5382)" class="st19 st20 st30">Weaver Street Market</text>
</g>
<g>
	<text transform="matrix(1 0 0 1 21.1516 649.9092)" class="st19 st20 st30">West Pack Avocado Growers</text>
</g>
</svg>
