<svg xmlns="http://www.w3.org/2000/svg" viewBox="0 0 1918 1407"><defs><style>.cls-1,.cls-25,.cls-27{font-size:60px;font-family:FiraSans-Bold, Fira Sans;}.cls-1,.cls-12,.cls-7,.cls-8{fill:#333;}.cls-1,.cls-25,.cls-27,.cls-8{font-weight:700;}.cls-2{letter-spacing:-0.07em;}.cls-3{letter-spacing:-0.02em;}.cls-4{letter-spacing:-0.02em;}.cls-5{letter-spacing:-0.01em;}.cls-6{letter-spacing:-0.07em;}.cls-8{font-size:37px;font-family:Merriweather-Bold, Merriweather;}.cls-9{letter-spacing:-0.01em;}.cls-10{letter-spacing:0em;}.cls-11{letter-spacing:0em;}.cls-12{font-size:36px;font-family:FiraSans-Medium, Fira Sans;}.cls-13{letter-spacing:-0.03em;}.cls-14{letter-spacing:-0.06em;}.cls-15{letter-spacing:0em;}.cls-16{letter-spacing:-0.09em;}.cls-17{letter-spacing:-0.02em;}.cls-18{letter-spacing:-0.01em;}.cls-19{letter-spacing:-0.01em;}.cls-20,.cls-24,.cls-35{fill:none;}.cls-20,.cls-24{stroke:#333;}.cls-20,.cls-22,.cls-24{stroke-miterlimit:10;}.cls-20{stroke-width:8px;}.cls-21{letter-spacing:-0.01em;}.cls-22{fill:#f2f2f2;stroke:#fff;}.cls-23{fill:#67baa7;}.cls-24{stroke-width:3px;}.cls-25{fill:#236861;}.cls-26{letter-spacing:-0.1em;}.cls-27{fill:#3a6d52;}.cls-28{fill:#a4dd7f;}.cls-29{fill:#85c68a;}.cls-30{fill:#4c936e;}.cls-31{fill:#54a07a;}.cls-32{fill:#352b2b;}.cls-33{fill:#61af86;}.cls-34{fill:#91ce6a;}</style></defs><title>pool_park</title><g id="Livello_2" data-name="Livello 2"><g id="Livello_1-2" data-name="Livello 1"><text class="cls-1" transform="translate(1260.05 644.62)"><tspan class="cls-2">4</tspan><tspan x="29.58" y="0">1,</tspan><tspan class="cls-3" x="71.82" y="0">8</tspan><tspan class="cls-4" x="105.72" y="0">9</tspan><tspan x="138.06" y="0">2</tspan><tspan class="cls-5" x="169.08" y="0">,</tspan><tspan x="182.88" y="0">6</tspan><tspan class="cls-6" x="216.72" y="0">4</tspan><tspan x="246.3" y="0" xml:space="preserve">1,777  l</tspan></text><path class="cls-7" d="M1427.57,1292.27q5.81-3.33,9.38-5.72a43.8,43.8,0,0,0,7.28-6.34,28.82,28.82,0,0,0,5.31-7.75,35.39,35.39,0,0,0,2.59-10.46h-5.92q-7.67,0-12-3.76t-4.38-11a14.58,14.58,0,0,1,3.89-9.69q3.88-4.51,10.68-4.51,10.61,0,15.18,7t4.57,18.3a31,31,0,0,1-3.46,14.6,51.77,51.77,0,0,1-8.39,11.77,60.88,60.88,0,0,1-10.74,9q-5.68,3.71-9.51,6Zm-45.68,0q5.8-3.33,9.39-5.72a44.21,44.21,0,0,0,7.28-6.34,28.7,28.7,0,0,0,5.37-7.81,36.36,36.36,0,0,0,2.53-10.4h-5.93q-7.65,0-12-3.76t-4.38-11a14.56,14.56,0,0,1,3.88-9.69q3.9-4.51,10.68-4.51,10.62,0,15.19,7t4.56,18.3a31,31,0,0,1-3.45,14.6,52.11,52.11,0,0,1-8.4,11.77,60.17,60.17,0,0,1-10.74,9q-5.67,3.71-9.5,6Z"/><text class="cls-8" transform="translate(246.35 1170.81)">Avocado consumption has increased exponentially in recent <tspan x="0" y="44.4">years. A fundamental element of our healthy diet, 101,733 </tspan><tspan x="0" y="88.8">tons of avocados are produced worldwide each week... soon </tspan><tspan x="0" y="133.2">the whole planet will be covered... </tspan></text><text class="cls-1" transform="translate(252.89 368.4) rotate(0.34)">95,<tspan class="cls-9" x="80.16" y="0">7</tspan><tspan x="107.52" y="0">54</tspan><tspan class="cls-5" x="173.58" y="0">,</tspan><tspan class="cls-10" x="187.38" y="0">6</tspan><tspan class="cls-5" x="221.22" y="0">0</tspan><tspan class="cls-11" x="255.72" y="0" xml:space="preserve">9  m</tspan></text><text class="cls-1" transform="matrix(0.58, 0, 0, 0.58, 621.46, 350.58)">2</text><text class="cls-12" transform="translate(253.1 442.81) rotate(0.34)">NEW <tspan class="cls-13" x="82.4" y="0">Y</tspan><tspan x="101.84" y="0">ORK </tspan><tspan x="0" y="44">CENTRAL </tspan><tspan class="cls-14" x="153" y="44">P</tspan><tspan class="cls-15" x="172.11" y="44">ARK</tspan></text><text class="cls-12" transform="translate(1529.79 699.63) rotate(0.24)">O<tspan class="cls-16" x="24.88" y="0">L</tspan><tspan class="cls-17" x="39.85" y="0">Y</tspan><tspan x="59.83" y="0">MPIC </tspan><tspan class="cls-18" x="-143.21" y="44">S</tspan><tspan class="cls-15" x="-123.41" y="44">WIMMING POO</tspan><tspan class="cls-19" x="111.38" y="44">L</tspan><tspan x="129.13" y="44">S</tspan></text><line class="cls-20" x1="250" y1="169" x2="381" y2="169"/><text class="cls-1" transform="translate(249.64 141.76)">1 WEEK P<tspan class="cls-21" x="244.2" y="0">R</tspan><tspan x="280.44" y="0">ODU</tspan><tspan class="cls-5" x="400.01" y="0">C</tspan><tspan x="433.91" y="0">TION</tspan></text><polygon class="cls-22" points="1308.5 99.5 1614 221 1316 550 1008 403 1308.5 99.5"/><polygon class="cls-23" points="1048 393 1307.6 127 1573 236 1317 515 1048 393"/><path class="cls-24" d="M1238.35,170.35S1254,152,1260,170v46"/><path class="cls-24" d="M1251.35,157.85S1267,139.5,1273,157.5v46"/><text class="cls-25" transform="translate(1471 470.54)">x 22<tspan class="cls-26" x="106.98" y="0">,</tspan><tspan x="115.38" y="0">166</tspan></text><text class="cls-27" transform="translate(863 910.54)">x 28</text><path class="cls-28" d="M567.54,676.78c-47.51-28.16-103.95-36-156.38-20-53.69,16.35-107.92,57.31-112.23,155.75C290.77,998.87,379.12,1130.65,556.67,993a215.62,215.62,0,0,1,75.58-38.1l122.3.16c34.26-9.29,61.47-36.47,71.92-71.84h0c16.83-56.93-14.12-117.25-68.76-134L649.45,725.35Z"/><path class="cls-29" d="M454.31,810.8s17.49-24.39,42.55-24.39,36.75,23.1,36.75,23.1Z"/><path class="cls-29" d="M629.94,855.78s17.49-24.39,42.55-24.39,36.75,23.09,36.75,23.09Z"/><circle class="cls-30" cx="421.08" cy="696.42" r="31.34" transform="translate(-353.87 944.96) rotate(-76.62)"/><circle class="cls-31" cx="462.45" cy="617.68" r="74.47" transform="translate(-222.03 973.86) rotate(-80.67)"/><path class="cls-32" d="M439.12,619.28l27.54,24.89a2.94,2.94,0,1,1-4,4.36,2.28,2.28,0,0,1-.22-.22l-24.72-27.69a1,1,0,0,1,1.35-1.34Z"/><path class="cls-32" d="M435.32,701.35l29.25,28.49a2.94,2.94,0,0,1-4.1,4.21.93.93,0,0,1-.14-.14l-27.25-30.42a1.55,1.55,0,0,1,2.24-2.14Z"/><path class="cls-32" d="M484.65,643.54l-17,20.48a2.94,2.94,0,1,1-4.52-3.76,2.72,2.72,0,0,1,.29-.3l19.75-17.86a1,1,0,0,1,1.5,1.44Z"/><path class="cls-32" d="M446.37,716.93l-18.7-1.13a.7.7,0,0,1,0-1.39l18.7-1.13a1.83,1.83,0,0,1,.22,3.65A.81.81,0,0,1,446.37,716.93Z"/><path class="cls-33" d="M412.9,591.82s.78,16.33,20.41,22C433.31,613.79,434.09,596.29,412.9,591.82Z"/><path class="cls-33" d="M450.18,571.48s-17.48,14.19-7.71,40.58C442.47,612.06,462.52,598.64,450.18,571.48Z"/><path class="cls-33" d="M405.43,626.74s12.41,9.74,28.92-1C434.35,625.71,422.08,614.09,405.43,626.74Z"/><path class="cls-33" d="M485.16,651.71s9.28,5.29,19.27-3.57C504.43,648.14,495.05,641.58,485.16,651.71Z"/><path class="cls-33" d="M483.08,610s-11.8,9.57-5.21,27.38C477.87,637.38,491.4,628.32,483.08,610Z"/><path class="cls-32" d="M466.52,602.6a1.95,1.95,0,0,0-3.89,0L456,791.74h17.11Z"/><path class="cls-34" d="M394.84,821.05S424,778.4,465.68,778.4s61.18,40.38,61.18,40.38Z"/><path class="cls-34" d="M369.75,821.07s11.07-18.48,26.93-18.48,23.25,17.5,23.25,17.5Z"/><rect class="cls-35" width="1918" height="1407"/></g></g></svg>