<?xml version="1.0" encoding="utf-8"?>
<!-- Generator: Adobe Illustrator 21.0.2, SVG Export Plug-In . SVG Version: 6.00 Build 0)  -->
<svg version="1.1" id="Layer_1" xmlns="http://www.w3.org/2000/svg" xmlns:xlink="http://www.w3.org/1999/xlink" x="0px" y="0px"
	 viewBox="0 0 125 92" style="enable-background:new 0 0 125 92;" xml:space="preserve">
<style type="text/css">
	.st0{fill:none;stroke:#FFFFFF;stroke-width:0.463;stroke-miterlimit:10;}
	.st1{fill:#8AB0C7;}
	.st2{fill:none;stroke:#FFFFFF;stroke-width:0.263;stroke-linecap:round;stroke-linejoin:round;}
	.st3{fill:none;stroke:#FFFFFF;stroke-width:0.238;stroke-linecap:round;stroke-linejoin:round;}
	.st4{fill:#FFFFFF;}
</style>
<g>
	<path class="st0" d="M90.3,30.1l-2.5-0.2 M90.1,31.4l-2.5-0.3 M90,32.6l-2.4-0.4 M89.7,33.9l-2.4-0.5 M89.4,35.2L87,34.6
		 M89.1,36.5l-2.4-0.7 M88.7,37.7l-2.3-0.8 M88.2,38.9L85.9,38 M87.7,40.1L85.4,39 M87.1,41.3l-2.2-1.2 M86.4,42.4l-2.1-1.3
		 M85.7,43.5l-2.1-1.4 M85,44.6l-2-1.4 M84.2,45.6l-1.9-1.5 M83.4,46.6L81.5,45 M82.5,47.6l-1.8-1.7 M81.6,48.5l-1.7-1.8 M80.6,49.3
		L79,47.5 M79.6,50.2l-1.5-2 M78.5,51l-1.4-2 M77.5,51.7l-1.3-2.1 M76.4,52.4l-1.2-2.1 M75.2,53l-1.1-2.2 M74,53.6l-1-2.2
		 M72.8,54.1l-0.9-2.3 M71.6,54.5l-0.8-2.3 M70.4,54.9l-0.7-2.4 M69.1,55.3l-0.6-2.4 M67.9,55.6l-0.5-2.4 M66.6,55.8l-0.4-2.4
		 M65.3,55.9L65,53.5 M64,56.1l-0.1-2.5 M62.7,56.1v-2.5 M61.4,56.1l0.1-2.5 M60.1,56l0.2-2.5 M58.8,55.9l0.3-2.5 M57.5,55.7
		l0.4-2.4 M56.2,55.4l0.5-2.4 M55,55.1l0.7-2.4 M53.7,54.7l0.8-2.4 M52.5,54.3l0.9-2.3 M51.3,53.8l1-2.3 M50.1,53.3l1.1-2.2
		 M48.9,52.7l1.2-2.2 M47.8,52l1.3-2.1 M46.7,51.3l1.4-2 M45.7,50.5l1.5-2 M44.6,49.7l1.6-1.9 M43.7,48.9l1.7-1.8 M42.7,48l1.7-1.8
		 M41.8,47l1.8-1.7 M40.9,46.1l1.9-1.6 M40.1,45l2-1.5 M39.4,44l2-1.4 M38.7,42.9l2.1-1.3 M38,41.8l2.2-1.2 M37.4,40.6l2.2-1.1
		 M36.8,39.5l2.3-1 M36.3,38.2l2.3-0.9 M35.9,37l2.3-0.8 M35.5,35.8l2.4-0.7 M35.2,34.5l2.4-0.5 M34.9,33.2l2.4-0.5 M34.7,32
		l2.5-0.3 M34.6,30.7l2.5-0.2 M34.5,29.4l2.5-0.1 M34.4,28.1h2.5 M34.5,26.8l2.5,0.1 M34.6,25.5l2.5,0.2 M34.7,24.2l2.4,0.4
		 M34.9,22.9l2.4,0.5 M35.2,21.6l2.4,0.6 M35.6,20.4l2.4,0.7 M35.9,19.1l2.3,0.8 M36.4,17.9l2.3,0.9 M36.9,16.7l2.2,1 M37.5,15.5
		l2.2,1.1 M38.1,14.4l2.2,1.2 M38.8,13.2l2.1,1.3 M39.5,12.2l2,1.4 M40.3,11.1l2,1.5 M41.1,10.1l1.9,1.6 M41.9,9.1l1.8,1.7
		 M42.8,8.2l1.7,1.8 M43.8,7.3l1.7,1.8 M44.8,6.5l1.6,1.9 M45.8,5.7l1.5,2 M46.9,4.9L48.3,7 M48,4.2l1.3,2.1 M49.1,3.6l1.2,2.2
		 M50.3,3l1.1,2.2 M51.5,2.4l1,2.3 M52.7,2l0.9,2.3 M53.9,1.5l0.8,2.4 M55.2,1.2l0.6,2.4 M56.4,0.9l0.5,2.4 M57.7,0.6L58.1,3
		 M59,0.4l0.3,2.5 M60.3,0.3l0.2,2.5 M61.6,0.2l0.1,2.5 M62.9,0.2v2.5 M64.2,0.3L64,2.7 M65.5,0.4l-0.3,2.5 M66.8,0.6L66.4,3
		 M68.1,0.8l-0.5,2.4 M69.3,1.1l-0.6,2.4 M70.6,1.4l-0.7,2.4 M71.8,1.8L71,4.2 M73,2.3l-0.9,2.3 M74.2,2.8l-1,2.2 M75.4,3.4
		l-1.2,2.2 M76.5,4.1l-1.3,2.1 M77.6,4.7l-1.4,2.1 M78.7,5.5l-1.5,2 M79.8,6.3l-1.5,1.9 M80.7,7.1L79.1,9 M81.7,8L80,9.8 M82.6,8.9
		l-1.8,1.7 M83.5,9.9l-1.9,1.6 M84.3,10.9l-1.9,1.5 M85.1,11.9l-2,1.4 M85.9,13l-2.1,1.3 M86.5,14.1l-2.1,1.2 M87.2,15.2L85,16.4
		 M87.7,16.4l-2.2,1 M88.3,17.6L86,18.5 M88.7,18.8l-2.3,0.8 M89.1,20l-2.4,0.7 M89.5,21.3l-2.4,0.6 M89.8,22.6l-2.4,0.5 M90,23.8
		l-2.4,0.4 M90.2,25.1l-2.5,0.3 M90.3,26.4l-2.5,0.2 M90.3,27.7h-2.5 M90.3,29h-2.5"/>
	<polyline class="st1" points="63.8,30.7 63.8,30.7 63.8,30.7 63.8,30.7 	"/>
	<path class="st1" d="M63.8,30.7L63.8,30.7L63.8,30.7z"/>
	<path class="st1" d="M63.8,30.7L63.8,30.7L63.8,30.7z"/>
	<path class="st2" d="M42.9,21.5c0,0-1.2,0.8-1.2,2.9c0,1.9,0.3,4.5-0.5,5.9c-0.1,0.1-0.1,0.2-0.2,0.3c0,0-0.6,0.7-0.1,0.7
		s0.8,0,1,0.3c0.1,0.1,0.2,0.2,0.3,0.3c0,0,0.5,0.1,1.1,0 M44.6,21.6c0,0-0.8,0.9-0.8,2.2c0,1.4,0.4,3.4,0.4,3.8
		c0,0.3-0.1,1-0.3,1.7c-0.1,0.4-0.3,1.4,0.1,2.4 M41.4,19.4L41.4,19.4c-0.1,0.1-0.6,0.5,0.2,1.7 M48.3,19.2c0,0-0.1,0-0.2,0.1
		c-0.3,0.2-0.8,0.6-1.4,1c-0.8,0.6-1.6-0.2-2-0.5s-1.3,0-2.1,0.1c-0.5,0.1-0.9-0.2-1.2-0.5C41.2,19.2,41,19,41,18.9
		c-0.2-0.2-0.3-1-0.1-1.1c0.2-0.2,0.8-0.9,0.8-0.9c1-1.7,1.9-1.9,1.9-1.9 M52.5,26.4c0,0-0.1,0.3-0.1,0.4s-0.1,0.4-0.1,0.6
		c0,0.1,0,0.3-0.1,0.4c0,0-0.3,0.2-0.4,0.2c-0.1,0-0.4,0-0.5-0.1s-0.3-0.3-0.4-0.4l-0.1-0.1c-0.1-0.1-0.2-0.4-0.2-0.8
		c0.1-0.4,0.3-0.8,0.3-0.9s-0.5-1.4-0.5-1.4s-0.7-1-0.9-1.3c-0.1-0.2-0.5-0.6-0.8-1.7c-0.1-0.4-0.2-0.8-0.2-1.3c0,0-0.1-0.3-0.1-0.9
		c0-0.1,0-0.3,0-0.4c0.1-0.8,0.1-1.9,0.1-2.1c0,0,0-0.1,0-0.3c0.1-0.4,0.2-1.1,0.3-1.6c0.2-0.6,1.2-2.2,1.2-2.2 M52.5,26.4
		L52.5,26.4 M48.1,19.3l-1.2-0.4c-0.2-0.1-1.3-0.5-1.6-0.5c-0.2,0-0.8-0.2-1.1-0.4c-0.3-0.2-0.8-1-0.8-1.2s0.1-1.1,0.2-1.8
		c0-0.2,0.1-0.3,0.1-0.4c0.2-0.6,0.7-0.8,1.1-1.1c0.4-0.2,0.8-1,1.2-1.3s1.5-0.5,2.4-0.7s2.5,0,2.5,0H51c0.2,0,0.8,0.1,1.3,0.3
		c0.1,0.1,0.3,0.2,0.4,0.3c0.3,0.2,0.5,0.5,0.7,0.8c0.3,0.5,0.3,1.1,0.1,1.6c-0.1,0.3-0.3,0.6-0.4,0.9c-0.3,0.4-0.5,0.6-0.7,0.7
		c-0.3,0.1-0.6,0.2-0.7,0.6c-0.1,0.4-0.4,1.4-0.8,1.8c0,0-0.1,0,0,0.2c0,0.1,0,0.1,0.1,0.2c0.2,0.4,0.8,1.5,0.7,2.4
		c0,0.8,0.1,1.7,0.3,2.3c0.2,0.7,0.6,1.5,0.8,1.5s0.5,0.1,0.6,0.2s0.5,0.3,0.7,0.4c0.1,0,0.2,0.1,0.3,0.2c0,0.1,0,0.1-0.2,0.2
		c-0.4,0.1-0.8,0-0.8,0S53.2,26,53.1,26s-0.2,0.1-0.2,0.1c-0.1,0-0.3,0.1-0.4,0.2l0,0l0,0 M48.5,16.4c-0.7,0.2-1.3-0.4-2-1.2
		c-0.6-0.8-0.2-1.5,0.8-2.5c0.8-0.9,3.3-1.1,3.8-1.2 M50.9,18.8l1-0.5l0.8-0.4c0,0,1.2-0.4,1.9-0.7C54.8,17.1,55,17,55,17
		c0-0.2,0-0.7,0-0.7 M55.3,15c0,0,0.1,0.7-0.3,1.2c-0.1,0.1-0.1,0.2-0.2,0.2l-0.7,0.4 M57.9,14.8c0,0,0.3,0.3,0.4-0.1
		c0.1-0.4,0.5-1.4,0.6-1.6c0.1-0.2,0.2-0.3,0.2-0.3 M53.3,15.4l2-0.5l0.1,0.1l0.8,0.4c0,0,0.5,0.3,0.7,0.2c0.2,0,0.2-0.1,0.2-0.2
		c0-0.1,0.1-0.2,0.2-0.2c0.1,0,0.2-0.2,0.2-0.2s0.2,0,0.3-0.1s0.2-0.2,0.2-0.2 M52.4,11.8c-0.1-0.3,0.2-0.6,0.3-0.7l0.2-0.1
		c0,0,0,0,0-0.1c0-0.4,1.3-0.7,1.3-0.7c0-0.9,2.1-0.5,2.1-0.5c1-0.2,1.9,0.6,1.9,0.6c0.8-0.1,1.2,0.8,1.2,0.8
		c0.7,0.2,0.4,1.3,0.4,1.4c0,0.1,0,0.3-0.4,0.3c-0.1,0-0.3,0-0.4-0.1c-0.3-0.1-0.3-0.1-0.8-0.3L57.7,12c0,0,0,0.4-0.1,0.6
		c-0.2,0.2-0.3,0.2-0.4,0.2c-0.1,0-0.4,0.3-0.6,0.4c-0.2,0.1-0.4,0.4-0.9,0.4c0,0-0.8,0.2-1,0c-0.2-0.1-0.7,0.1-0.8-0.1
		c0-0.1-0.2-0.3-0.4-0.5 M57.1,14.7l0.3,0.3 M52,18.3c0,0-0.1,0.5,0,0.8c0,0,0.4,1.2,1.7,1.2c0.1,0,1.3,0.1,1.3,0.1 M54.8,17.2
		c0,0,0.8,0.6,0.9,0.8 M50.7,27.4L49.4,28c0,0-1.3,0.3-1.6,0.4c-0.3,0-1.6,0.3-1.5,1c0,0.7-0.1,1,0.2,1.2s0.5,0.3,0.5,0.3
		 M47.9,30.4c0,0-0.5,0.2-1,0.5c-0.2,0.1-0.4,0.3-0.6,0.5c-0.3,0.4-0.6,0.8-0.7,1.2c0,0.1,0,0.1,0,0.2c0,0.4,0.3,0.7,0.5,0.9
		 M45.6,32.6c0,0-0.9-0.6-1-0.6s-0.3,0-0.6-0.1c-0.3,0-0.6-0.1-0.7-0.1c-0.3,0-1.2,0.6-1.3,1.1c-0.1,0.6-0.5,2.1,0.9,2
		c0,0,0.5-0.3,0.8-0.5l0.1-0.1c0.2-0.2,1.2-0.8,1.4-0.8c0.1,0,0.6,0,1,0c0.3,0,0.5,0.1,0.6,0.2c0.2,0.2,0.3,1,0.4,1.1
		c0.1,0.1,0.9,0.8,0.9,0.8 M53,38.7L53,38.7l0.6,0.8l0.3,0.5c0,0,0.2,0.2,0.3,0.1c0.1,0,0.2-0.1,0.1-0.3c-0.1-0.2-0.3-0.7-0.3-0.7
		s-0.3-0.5-0.5-0.7l0.6,0.2l0.8,0.5c0,0,0.1,0,0.2-0.1c0-0.1,0-0.2-0.1-0.2c-0.1-0.1-0.6-0.8-0.6-0.8s-0.3-0.2-0.4-0.2
		c0,0-0.1-0.1-0.2-0.2c0-0.1-0.3-0.4-0.4-0.4c-0.1-0.1-0.6-0.4-0.7-0.4c-0.2,0-0.6-0.1-0.6-0.4c0-0.3,0.6-1.5,0.6-1.5l0.4-0.8
		c0,0,0.1-0.1,0.2-0.3c0.2-0.4,0.5-1,0.5-1.2c0,0,0.9-0.1,1-0.6c0-0.5,0.4-1.1-2.4-2.1c0,0-0.8,0.5-1.2,1.4
		c-0.2,0.4-0.4,0.9-0.6,1.5c-0.1,0.6-0.2,1.2-0.2,1.9c0,0.6,0,1.2,0.1,1.7 M52.6,39.2L52.6,39.2l0.6,1.3c0,0,0.2,0.1,0.2,0
		c0.1,0,0.1-0.1,0.1-0.2c0-0.1-0.1-0.5-0.1-0.5l-0.2-0.5L53.1,39L53,38.7 M50.4,36.4c0.1,0.9,0.2,1.6,0.6,1.9c0,0,0.4,0.3,0.5,0.4
		c0,0,0.4,0.3,0.5,0.4c0,0.1,0.1,0.4,0.1,0.4c-0.1,0.1-0.3,0.2-0.3,0.2S51.7,40,51.9,40c0,0,0.1,0.1,0.1,0c0.1-0.1,0.2-0.1,0.3-0.1
		s0.4-0.2,0.5-0.3c0-0.2,0-0.3,0-0.3 M47.6,30.1c0,0,0.1,0.1,0.3,0.3c0.6,0.6,1.9,2,2.5,2.4 M43.8,34.5c0,0,0.1,0.8,0.4,1.2l0.1,0.1
		c0.4,0.4,1.4,1,2.6,1.1c1.3,0.1,2.7,0.3,3.5-0.5l0,0l0,0 M44.3,35.8c0,0-0.3,1.5,0.6,2.4c0,0,0,0,0.1,0.1c1.1,0.9,2,1.9,3.2,2.5
		s3.9,1.7,4.2,1.8c0.1,0,0.2,0.1,0.3,0.1c0.5,0.2,1.5,0.6,1.7,0.8 M44.9,38.2c0,0-0.2,0.2-0.2,0.5s0,0.8-0.2,1.3s-0.7,1.5-0.6,1.8
		c0,0.2,0.6,1.3,0.6,1.3c0,0.1,0.2,0.2,0.2,0.2H45c0.1,0,0.2,0,0.3,0s0.2-0.1,0.2-0.1c0-0.1,0-0.2,0.1-0.2s0.4-0.4,0.3-0.4
		c-0.1,0-0.3-0.1-0.4-0.1c-0.1,0-0.2,0-0.3-0.2C45,42.1,45,42.1,45,41.9c0-0.1,0.2-0.2,0.3-0.3s1.2-0.9,1.4-0.8
		c0.2,0,0.6,0.1,0.8,0.3s1.7,1.5,2.1,1.6c0.3,0.2,1.7,1,2.4,1c0.7,0.1,1.9,0.3,2.4,0.5c0.5,0.1,1.6,0.4,2.1-0.2
		c0.5-0.5,0.7-0.6,0.7-0.9c0-0.3,0.2-1.3-0.1-1.8s-0.6-0.8-0.6-0.8 M54.3,26c0,0,1.4,0.4,2.1,0.8l0,0c0.1,0.1,0.1,0.1,0.2,0.2
		 M54.6,34.4c0,0,0.6,1.2,0.6,1.6c0,0.2,0.4,1.3,0.6,2.1c0.2,0.5,0.3,0.9,0.3,1c0.1,0.2,0.4,0.6,0.3,1.2v0.1c0,0.1-0.1,0.2-0.1,0.3
		c-0.5,0.9-0.6,2-3,1.9l-0.6-0.1 M56.7,33.1c1.4-0.2,1.6-1.9,1.7-2.4c0-0.1-0.1-0.5-0.1-0.5s-0.1-0.5-0.2-1C58,28.9,56.6,27,56.6,27
		 M56.4,26.8c0,0-0.2-0.9,0.2-1c0,0,0,0,0.1,0c0.1-0.1,0.2-0.2,0.3-0.3c0.1-0.1,0.4-0.4,0.5-0.5c0.2,0,0.3-0.2,0.4-0.3
		c0.1-0.1,0.5-0.6,1-0.5s1.7,0.1,1.9,0.2s0.9,0.6,1,0.6c0,0,0.1,0,0.3,0s0.5,0.1,0.6,0.4c0,0,0.3,0.2,0,0.6c0,0,0.6,0.3,0.7,0.6
		c0.1,0.3,0.2,0.8-0.3,1c0,0-0.6,0.1-0.7,0.1c0,0,0-0.2-0.2-0.3c-0.1,0-0.3,0-0.4,0.1c-0.1,0.1-0.6,0.4-0.8,0.4
		c-0.1,0-0.4,0.1-0.4,0.2s-0.1,0.3-0.6,0.5L58.2,29 M58.5,29.3c0,0,0.2,0.4,0.4,0.6s0.9,0.5,1.3,0.4c0.2-0.1,0.2-0.2,0.3-0.2
		s0.3-0.2,0.4-0.2c0.1,0,0.3-0.3,0.3-0.3s0.5,0.1,0.5-0.2c0-0.3,0-0.9,0-0.9s0.4-0.2,0.4-0.7 M60.7,29.9l-0.2-0.1 M61.3,29.6
		c0,0-0.3-0.1-0.3-0.2 M53.3,33.9c0,0,0.4,0.5,1.2,0.5l0,0c1-0.2,1.8-0.8,2.1-1.2c0.4-0.8,0.7-1.9-0.5-3.5 M62.8,20.4
		c0,0.7,0.3,0.8,0.4,0.9c0.1,0.1,0.1,0.2,0.1,0.2s0.2,0,0.4-0.1s0.5-0.3,0.5-0.3c0.4-0.3,0.1-0.5,0.2-0.8s-0.2-0.5-0.2-0.5
		s0.1,0,0.1-0.1S64,19.4,64,19.4s0-0.2,0-0.3c-0.1-0.1-0.1-0.5-0.1-0.5l-0.1-0.3c-0.1-0.3-0.3-0.4-0.3-0.4c0-0.2-0.2-0.3-0.2-0.3
		c0.1-0.4-0.4-0.4-0.4-0.6s-0.4-0.4-0.4-0.4c-0.2-0.3-0.6-0.3-0.6-0.3c-0.1,0-0.8,0.2-0.8,0.2s-0.3-0.1-0.6,0.1c0,0-0.6-0.1-1,0.5
		c0,0-0.3,0.2-0.5,0.5c0,0-0.5,1.5-0.6,2s0,0.4-0.1,0.6s-1.1,1.2-0.6,1.5c0.5,0.4,0.7,0.4,0.8,0.7c0.1,0.2,1.6,0.4,1.9,0.3
		c0.3-0.1,0.5-1.2,0.5-1.2c0-0.2,0-0.5-0.1-0.8c0-0.1-0.1-0.3-0.1-0.4c-0.2-0.4-0.2-0.8-0.2-1s-0.1-0.5-0.3-0.7
		c-0.1-0.2-0.4-0.4-0.3-0.8c0.1-0.4,0.4-0.9,0.5-1c0.2-0.1,0.6-0.3,1.4-0.1c0,0,0.3,0.3,0.4,0.3c0.1,0,0.3,0.2,0.5,0.3
		c0.2,0.1,0.2,0.3,0.2,0.4 M63.2,18.3c0,0.1,0.1,0.9,0.1,1s0.2,0.7,0.1,0.8c-0.2,0.1-0.4,0.3-0.6,0.4c-1.4,0-2.2-0.3-2.2-0.3
		 M57.6,21.7c0,0-2.2,1.3-1.8,4.8 M61.9,22.5L62,25 M57.7,37.5c0,0-0.2-3-0.1-3.5 M60.5,13.4c0,0,0-0.8,0.2-1
		c0.2-0.1,0.4-0.4,0.7-0.4c0.1,0,0.2,0,0.3,0c0.4,0.2,1.5,0.7,1.8,1.3c0.2,0.4,0.1,0.7,0,0.8s-0.2,0.2-0.2,0.2
		c-0.2,0.1-0.7,0.2-0.7,0.2 M65.5,9.2L65.5,9.2 M61.4,11.9c0,0-0.4-0.7,0.3-1.5s0.9-0.9,1.2-0.9s0.8-0.1,0.8-0.1s0.9-0.7,1.8-0.1
		 M63.7,18.4c0,0,0.5-1.1,0.5-1.2c0,0,0.8-1.2,0-3.3c-0.1-0.3-0.6,0.3-0.7,0.3l0,0 M68.7,15.7c0,0-0.1,0.6-0.2,0.6s-0.4-0.5-0.4-0.5
		l0.3-1l0.1-1.2v-0.1l0.9-1.5c0-0.1-0.1-0.7-0.2-0.8s-0.4-0.5-0.5-0.6c0-0.1-0.1-0.6-0.1-0.6s-0.7,0.6-0.8,0.7c-0.2,0.1-0.7,0-0.8,0
		c-0.1,0-0.4,0.1-0.5,0.2c-0.1,0.2-0.3,0.6-0.4,0.7c-0.1,0.1-0.2,0.6-0.2,0.9c0,0.1-0.1,0.2-0.1,0.3c-0.1,0.1-0.1,0.2-0.2,0.3
		c-0.1,0.2,0,0.3,0.1,0.6c0,0.3,0,0.7-0.1,0.9c0,0.1-0.3,0.1-0.3,0.1c-0.1,0-0.3,0.2-0.3,0.2s0.1-0.4,0.1-0.5s-0.2-0.6-0.3-0.8
		c-0.1-0.2-0.2-1.5-0.2-1.8s0.3-1.1,0.3-1.2c0-0.1,0.2-0.8,0.4-1c0.1-0.1,0.2-0.2,0.3-0.4l0,0C65.8,9,66,8.7,66.1,8.6
		c0.1-0.1,1-0.3,1-0.3s1.1-0.1,1.7,0.5c0,0,0.7,0,0.8,0.4c0.2,0.4,0.6,1.1,0.5,1.3c0,0.2-0.2,0.4-0.1,0.5c0,0.1,0,0.7-0.1,0.9
		c0,0,0,0,0,0.1c-0.1,0.1-0.1,0.3-0.1,0.4c0,0.2,0.2,0.6,0.1,0.7c-0.1,0.1-0.2,0.2-0.2,0.3s0,0.5-0.1,0.7c-0.1,0.1-0.2,0.3-0.2,0.4
		c0,0.1,0.1,0.7-0.1,0.9c-0.1,0.1-0.1,0.1-0.2,0.2l0,0c-0.1,0-0.1,0-0.2,0.1L68.7,15.7z M65.9,12.9c0,0,0.3,1.1,0.9,1.3
		c0,0,0.9,0,1.7-0.5 M73.3,15.8v-0.1 M70,12c0,0,1.8,0.6,2.9,2.5c0,0,0.4,0.7,0.4,1.1c0,0.1,0,0.2,0,0.2 M74.2,16.7
		c0,0-0.2-0.4-0.9-0.9c-0.3-0.2-0.7-0.5-1.1-0.6 M69.1,15.5c0,0-0.3,1.2,1.4,2.4 M66.1,21.5l-1.7-0.8 M65.4,38.5
		c0.2-0.3,0.5-0.8,0.3-1.4c-0.3-1.1-0.2-1.3-0.1-1.6c0.1-0.2,1.4-1.8,2.4-3.5c0.1-0.2,0.2-0.4,0.3-0.5c0.4-0.8,0.6-1.6,0.6-2.2
		l0.8-1.8l0,0 M63.6,42.4l-0.3,1.3l0.5-1.4l1-2.5L66,43l-0.7-4.6v-0.5c0,0-0.5,0-0.7,0.4s-0.5,1.2-0.5,1.5c-0.1,0.3-0.2,0.5-0.2,0.6
		l0,0c-0.3,0-0.3-0.4-0.3-0.4l-0.1-1.7c-0.1-0.1-0.2-0.2-0.2-0.2c-0.2-0.3-0.1-0.7-0.1-1c0-0.4,0.4-0.9,0.6-1.4
		c0.1-0.3,0.3-1,0.5-1.6c0.2-0.8,0.5-1.6,0.5-1.6c0.1-1,0.3-1.7,0.5-2.3c0.4-1.1,0.8-1.4,0.9-1.5s0.4-0.8,0.4-0.8 M63.9,40.5
		l-0.3,1.9 M66.8,24.2c0,0-0.1,0.4-0.3,0.5c-0.1,0.1-0.8,1-0.7,1.5s0.4,1.6,0.4,1.6h0.3l2.6-0.3c0,0,0.2,0,0.4-0.1
		c0.2-0.1,0.6-0.2,0.7-0.4c0.3-0.4,1.2-1.8,1.2-1.8 M59.4,43.3l4,1.3l7.5-2.1l-4.3-0.9l-2.7,0.6l-0.3,0.1L59.4,43.3L59.4,43.3
		 M59.4,43.3v1.1l4.1,1.4l7.4-2.2v-1.1 M63.4,44.7v1 M66.3,22.3c0,0-0.2-0.2-0.2-0.4c0.1-0.2-0.2-0.7,0-0.8c0.1-0.1,0.1-0.4,0.3-0.6
		c0.1-0.1,0.2-0.2,0.3-0.3c0.5-0.1,0.3-0.6,0.7-0.7c0.4-0.1,0.7-0.4,0.8-0.4c0.1,0,0.6-0.2,0.7-0.2s0.2,0,0.4-0.1c0.2,0,0.4,0,0.5,0
		s0.3,0.2,0.5,0.2c0.2,0.1,0.3,0.1,0.4,0.1c0.2,0,0.8,0.3,0.9,0.3s0.5,0,0.4,0.2c0,0.1-0.1,0.3-0.1,0.3c0.1,0,0.3,0.2,0.3,0.2
		c0,0.1-0.1,0.3-0.1,0.4s0.3,0.4,0.3,0.6c0,0.1,0.1,0.3,0,0.4s-0.2,0.1-0.1,0.2s0,0.2-0.1,0.3c-0.1,0.1-0.2,0.2-0.2,0.3
		c-0.1,0.1-0.3,0.4-0.4,0.5s-0.4,0-0.4,0.2c0,0.1-0.4,0.3-0.5,0.2c-0.1,0-0.6,0.3-0.7,0.1c-0.1-0.2-0.1-0.5,0-0.7
		c0-0.1,0.2-0.2,0.2-0.3c0-0.1,0-0.2,0-0.3c0-0.1-0.3-0.3-0.1-0.5c0.2-0.2,0.6-1,0.7-1.2s0-0.4,0-0.5s-0.6-0.3-0.7-0.4
		c-0.1,0-0.7-0.2-0.9-0.2c-0.1,0-0.6,0-0.7,0.1c-0.2,0.1-0.6,0.3-0.7,0.3c-0.1,0.1-0.4,0.4-0.4,0.4L67,20.6
		C67,20.6,66.4,21.1,66.3,22.3c0.1,0.3,0.1,0.6,0.1,0.9c0,0,0.1,0.5,0.4,0.9c0.1,0.1,0.8,0.6,0.8,0.6l0.3,0.1c0.1,0,0.3,0.1,0.3,0.3
		c0.1,0.2,0.3,0.9,0.7,0.8l0.3-0.3c0,0,0.4,0.2,0.5,0.2s0.8,0.4,1.6-0.8c0.1-0.1,0.2-0.3,0.3-0.4c0,0,0.3-0.7,0.6-1.3
		c0.1,0,0.3-0.2,0.4-0.2c0.9-0.3,1.2-1.5,1.2-1.5s0-0.2,0-0.4 M73.1,24.2c0,0.2-0.4,1.6-0.4,1.9s-0.1,0.6,0.1,0.9
		c0.1,0.4,0.3,1.2,0.3,1.6s-0.2,1.4-0.3,2c0,0.1,0,0.2-0.1,0.3l-0.1,0.3l-0.6,1c0,0-0.8,1.6-1,2c-0.1,0.4-0.8,1.6-0.1,3.4l0.3,1
		c0.5,1.5,0.6,1.6,1.2,1.7 M73.8,35c0,0-0.2,2.5-0.6,3.2c-0.3,0.7-0.5,1.3-0.5,1.6s-0.2,1-0.3,1.2c-0.1,0.1-0.2,0.3-0.2,0.6
		c0,0.1-0.1,0.3,0,0.4c0,0.4,0.1,0.7,0.3,0.7c0.3,0,0.7-0.1,0.7-0.1s0.4,0.1,0.6,0.2c0.2,0,0.4,0,0.6,0c0.1-0.1,0.4-0.2,0.6-0.3
		c0.1-0.1,0.5-0.4,0.5-0.7c0-0.2-0.6-1.1-0.6-1.1s0-0.1-0.1-0.3c-0.1-0.4-0.2-1.1,0-1.5c0.3-0.5,3.3-4.8,3.1-7.7 M79.6,30.9
		c0,0-1-0.1-1.8,0.4l0,0c-0.2,0.1-0.3,0.2-0.4,0.4c-0.5,0.7-2.4,2.2-3.6,3.3c-0.4,0.3-0.8,0.6-1,0.8c-0.1,0.1-0.5,0.6-0.5,0.6
		s0.4-7.1,5.1-12.6 M69.4,18.9c0,0,0.4-0.6,1.1-0.8c0.2-0.1,3.3-1.7,6.1-1.2 M73.8,20.3c0-0.1,0.8-2.7,2.5-3.4
		c0.6-0.3,1.3-0.1,1.3-0.1c0.3,0.1,1.3-0.2,2.4,0.6l0.9-0.3c1.5-0.2,2.3,1.1,2.3,1.9s-1.1,1.9-1.1,1.9L80.9,22
		c-0.3,0.6-1.5,1.2-1.9,1.4c-0.5,0.4-1.1,0.4-1.7,0.3c-1.8-0.4-3.4-2.5-3.4-2.5 M75.8,39.2c0,0,1.1,1.3,2.1,1.5 M69.7,25.7l0.3-0.2
		 M63.9,28.5c0,0-0.1-1.4-0.1-1.9c0-0.3,0.3-1.8,0.6-3 M64.9,27.8c0,0-2.2,0.9-1.3,2.9 M63.8,30.7c-0.4,0.5-0.4,0.5-0.4,0.6
		s-0.2,0.9-0.2,1c0,0.1,0,0.3-0.1,0.4c-0.1,0-0.4,0.3-0.4,0.2s-0.3-0.4-0.4-0.5c-0.1,0-0.3,0-0.2,0.1c0.1,0.2-0.5,0.1-0.1,0.4
		l0.4,0.3c0,0,0.4,0.3,0.6,0.4c0.2,0.1,0.6,0,0.8-0.3 M63.8,30.7L63.8,30.7 M65.2,30.1c0,0-0.4-0.4-1,0.1c-0.4,0.4-0.5,0.4-0.5,0.4
		l0,0l0,0l0,0l0,0l0,0 M63.6,32.1c0,0.1-0.1,0.7,0.2,0.7c0,0,0.3,0,0.3-0.3s0.2-0.5,0.2-0.6 M63.8,32.9c0,0,0,0.2-0.1,0.5
		c0,0.2-0.1,0.4-0.1,0.5c-0.1,0.1-0.2,0.6-0.2,0.7c0,0,0.2,0.5,0.4,0.1l0.3-0.3l0.3-0.4 M66.8,13.6c0,0,0.2,0.1,0.4,0.2 M67.1,13.2
		c0,0,0,0.1,0.2,0.1 M62.5,19.2c0,0,0.4-0.1,0.7-0.3 M60.8,18c0,0,0.5-0.6,0.7-0.4 M61.3,17.8L61.3,17.8 M61.1,28.7L61.1,28.7
		 M57.8,13.5l-0.1,0.2 M66.8,12.1v0.1 M68.4,12.7v0.2 M69.2,24.6l0.1,0.1 M68.7,24.6l1.1-0.2 M78.2,23.8l-1,3.9 M79,23.4
		c-6.2-1.7-2.2-5.8-1.5-6.4 M57.5,13.3l0.7,0.4 M66.5,11.9c0,0,0.4,0.2,0.8,0.2 M68.1,12.6c0,0,0.4,0.2,0.8,0.2 M61.4,28.7
		c0,0-0.5-0.1-0.6-0.3 M56.1,18.3h0.3l0.7,0.1c0.1,0,0.7,0.1,0.7,0.1c0.1,0.2-0.3,0.3-0.3,0.3l-0.6,0.1l0.2,0.3
		c0.2,0.3-0.2,0.6-0.2,0.6c0.1,0.6-0.3,0.8-0.3,0.8C56,21,55.4,20.7,55,20.4c-0.1-0.1-0.2-0.1-0.3-0.1c-0.4-0.2-0.3-0.6-0.3-0.9
		c0-0.4,0.2-0.7,0.3-0.9c0.1-0.1,0.6-0.3,0.6-0.3l0.4,0.1H56.1L56.1,18.3c0,0,0.2,0.3,0.1,0.4c-0.1,0.1-0.4,0.2-0.6,0.1l-0.1-0.1
		 M64,12.6l0.4,1.5 M81.1,40.8c0,0-2.4-0.5-2.5-4.3 M56.5,36.3c0,0,2.2,2.3,2.9,2.4 M60.6,33c-0.1,1.2-0.2,2-0.2,2
		c-0.2,1.6-1,3.8-1,3.8s0.9,0,1.7-0.3s1.3-0.9,2.1-0.5 M68.3,31.4c1.1-0.3,2.1-0.4,2.9-0.5l0,0c0.9-0.1,1.4-0.1,1.4-0.1 M68.2,31.4
		c0,0,0,2.5,0,2.7c0,0.2,0.1,1-0.2,1.4c-0.2,0.3-0.5,0.9-0.5,1.2c0,0.2,0,0.7,0,0.8s-0.3,0.9-0.3,0.9s-0.1,0.6,0.5,0.7
		c0.6,0.1,1.4,0.1,1.7-0.1c0.3-0.2,0.6-0.5,0.5-0.7s-0.3-0.4-0.5-0.6c-0.2-0.2-0.3-0.6-0.3-0.8c0,0,0.1-0.3,0.1-0.5
		c0-0.1,0-0.7,0.1-0.9s1.2-1.7,1.2-1.7s0.5-0.7,0.7-2.8 M62.1,14.2c0,0-0.1-0.2-0.2-0.3c-0.1-0.1-0.1-0.2-0.1-0.2
		c0-0.1-0.1-0.1,0-0.3c0.1-0.1,0.3,0,0.3,0s0.1,0.2,0.3,0.3s0.1,0,0.3,0.6c0,0.1,0,0.2,0,0.3c0,0.3-0.4,0.2-0.8,0.5
		c-0.5,0.3-1.1,0-1.1,0L60,14.3c-0.1-0.1-0.1-0.1-0.2,0c-0.1,0.1,0,0.1-0.3,0.1S59,14.2,59,14.1s0.4-0.3,0.4-0.3s0.5-0.3,1-0.3
		c0.1,0,0.2,0,0.2,0c0.4,0,0.6-0.1,0.9,0.1l0.5,0.3 M40.8,31.2c0,0-1.3-0.3-1.4-0.5c0,0,0-0.1,0-0.2c0.1-0.1,0.3-0.3,0.4-0.4
		c0-0.1,0-0.1,0.2-0.4c0.2-0.4,0.5-1.1,0.5-1.1c0.3-0.7,0.2-0.8,0.2-0.8L41,24c0-1.7,1.1-2.7,1.1-2.7 M48.7,21.4c0,0-2,0.3-4.1,0.2
		c-0.5,0-1.1-0.1-1.6-0.2c-0.3-0.1-0.6-0.1-0.9-0.2c-0.1,0-0.3-0.1-0.4-0.1c0,0-0.9,0.3-1.2,2.6c0,0-0.1,2.2-0.4,3.1
		c-0.6,1.2-1.8,2.4-1.8,2.4s-0.3,0.4,0.1,0.7l0.9,0.6 M82.7,20.4c0.5,1.3,0.9,3.1,1.1,5.6c0.6,4.7-0.7,9-1.1,10.6s0.2,3.8,0.9,4
		c0,0-2.7,0.3-3.9,0.3c-0.5,0-0.5,0-1.1,0c-1.9-0.1-3.8-0.2-3.9-0.3"/>
	<path class="st3" d="M72.6,35.8c0,0-1.2,1,0.6,1.5"/>
	<path class="st2" d="M82.5,24.5c0,0,0.3,1.7,0,3.6s0.4,7.4,0.2,8.5"/>
	<line class="st2" x1="78.6" y1="19.6" x2="79.6" y2="18.6"/>
	<path class="st2" d="M63.8,27c0,0,0.9-2.9,1.5-3.2 M55.7,28c0,0,2.2,0.9,2.6,1.9 M49.2,22.7c0,0-0.1,1,0.2,2.4s0.7,2.7,0.7,2.7
		 M60.5,22.4c0,0,2.2,0.5,2.6-1.1 M58.1,32.1c-0.1,0.5-0.1,1.1-0.5,2.1c0,0-0.2,0.6-0.4,1C57,35.8,55.6,37,55.6,37 M52.3,29.9
		c0,0,0.5-0.7,1.8-0.7c0,0,0.5,0,1,0 M72.1,19.6c0,0,1.7-0.3,1.8,1.5 M62.7,18.6c0.4-0.2,0.5-0.4,0.5-0.4s-0.6-0.4-0.9-0.5
		c-0.3-0.1,0-0.4,0-0.4 M72.1,23.1c0,0-0.1,0.9-0.3,1.4 M72.4,24.2l2.4-0.1c0,0,0.5-0.1,0.9-0.3 M77.2,34.8c1.4,1.6,3,3.2,3,3.2
		 M74.1,26.8c0,0,0,0.8,0.1,2"/>
	<line class="st2" x1="58.5" y1="29.6" x2="58.3" y2="29.8"/>
	<path class="st4" d="M98.3,90.6c0.3,0.3,1.1,1.2,2.8,1.2c1.9,0,3-1.1,3-2.6c0-1.2-1-2-1.6-2.2l0,0c0.6-0.3,1.4-1.1,1.4-2.1
		c0-1.5-1.2-2.5-2.8-2.5c-1.5,0-2.5,1.2-2.5,1.2c-0.1,0.1-0.1,0.3,0,0.3l0.5,0.4c0.1,0.1,0.3,0.1,0.3,0c0.3-0.3,0.8-0.8,1.6-0.8
		c0.8,0,1.5,0.6,1.5,1.5c0,0.8-0.6,1.4-1.9,1.4h-0.8c-0.2,0-0.3,0.1-0.3,0.3v0.6c0,0.2,0.1,0.3,0.3,0.3h0.8c1.4,0,2.1,0.8,2.1,1.6
		c0,0.9-0.8,1.5-1.7,1.5c-1,0-1.7-0.7-1.8-0.8c-0.1-0.1-0.2-0.1-0.4,0l-0.5,0.5C98.2,90.3,98.2,90.5,98.3,90.6 M94.3,90.6
		c-1.5,0-2-1.5-1.9-2.7c0.1-0.2,0.8-1,1.8-1s1.8,0.8,1.8,1.8S95.3,90.6,94.3,90.6 M91.1,88c0,2.1,1,3.8,3.2,3.8c1.6,0,3-1.4,3-3.1
		c0-1.9-1.4-2.9-2.8-2.9c-0.9,0-1.7,0.4-1.8,0.5c0.4-1.7,2.6-2.8,3.2-3c0.3-0.1,0.3-0.2,0.2-0.4l-0.2-0.6c-0.1-0.1-0.2-0.2-0.3-0.2
		C94.3,82.7,91.1,84.3,91.1,88 M84.9,89.2c0-0.7,0.6-1.5,1.7-1.6c1.1,0.2,1.7,0.9,1.7,1.6c0,0.9-0.8,1.5-1.7,1.5
		C85.7,90.7,84.9,90.1,84.9,89.2 M86.6,86.3c-1-0.2-1.5-0.7-1.5-1.4c0-0.8,0.7-1.4,1.5-1.4c0.9,0,1.5,0.6,1.5,1.4
		C88.1,85.6,87.7,86.2,86.6,86.3 M83.5,89.2c0,1.5,1.2,2.6,3.1,2.6s3.1-1.1,3.1-2.6c0-1.2-1-2-1.6-2.2v-0.1c0.6-0.3,1.4-1,1.4-2.1
		c0-1.5-1.2-2.5-2.9-2.5c-1.6,0-2.8,1-2.8,2.5c0,1,0.8,1.8,1.4,2.1l0,0C84.6,87.2,83.5,88,83.5,89.2 M77.1,91.6h4.7
		c0.1,0,0.3-0.1,0.3-0.2v-0.6c0-0.1-0.1-0.3-0.3-0.3h-1.5v-7.8c0-0.1-0.1-0.3-0.2-0.3h-0.7l-2,1.8c-0.1,0.1-0.1,0.2,0,0.3l0.2,0.5
		c0,0.1,0.2,0.1,0.3,0.1l1.2-0.6v6h-1.9c-0.1,0-0.3,0.1-0.3,0.3v0.6C76.8,91.5,76.9,91.6,77.1,91.6 M64.8,87c0-1.9,1.6-3.5,3.5-3.5
		s3.5,1.6,3.5,3.5s-1.6,3.5-3.5,3.5C66.4,90.4,64.8,88.9,64.8,87 M63.5,87c0,2.7,2.1,4.8,4.8,4.8c2.7,0,4.8-2.1,4.8-4.8
		c0-2.7-2.1-4.9-4.8-4.9S63.5,84.3,63.5,87 M53.7,91.4c0,0.1,0.1,0.3,0.3,0.3h0.8c0.1,0,0.3-0.1,0.3-0.3v-6.5l0,0l5.8,6.9h0.4
		c0.1,0,0.3-0.1,0.3-0.2v-9c0-0.1-0.1-0.3-0.3-0.3h-0.9c-0.1,0-0.3,0.1-0.3,0.3V89l0,0l-5.8-6.7H54c-0.1,0-0.3,0.1-0.3,0.2V91.4z
		 M46.3,88.4l1.6-3.7H48l1.7,3.7H46.3z M43.8,91.6h0.8c0.2,0,0.3-0.1,0.3-0.2c0.3-0.6,0.6-1.2,0.8-1.8h4.4l0.8,1.8
		c0.1,0.1,0.1,0.2,0.3,0.2H52c0.2,0,0.3-0.2,0.2-0.3l-4.1-9c0-0.1-0.2-0.1-0.2-0.1h-0.1c-0.1,0-0.2,0.1-0.2,0.1l-4.1,9
		C43.5,91.5,43.6,91.6,43.8,91.6 M37.5,91.4c0,0.1,0.1,0.3,0.3,0.3h4.8c0.1,0,0.3-0.1,0.3-0.3v-0.7c0-0.1-0.1-0.3-0.3-0.3H39v-7.9
		c0-0.1-0.1-0.3-0.3-0.3h-0.9c-0.1,0-0.3,0.1-0.3,0.3V91.4z M33.5,91.4c0,0.1,0.1,0.3,0.3,0.3h0.9c0.1,0,0.3-0.1,0.3-0.3v-8.9
		c0-0.1-0.1-0.3-0.3-0.3h-0.9c-0.1,0-0.3,0.1-0.3,0.3V91.4z M21.1,91.3c0,0.2,0.1,0.3,0.3,0.3h0.9c0.1,0,0.2-0.1,0.2-0.2l1-6h0.1
		l2.4,6.2c0,0.1,0.1,0.1,0.2,0.1h0.2c0.1,0,0.2-0.1,0.2-0.1l2.4-6.2l0,0l1,6c0,0.1,0.1,0.2,0.3,0.2h0.9c0.2,0,0.3-0.1,0.2-0.3
		l-1.7-9c0-0.1-0.1-0.2-0.2-0.2h-0.2c-0.1,0-0.2,0.1-0.2,0.1l-2.8,6.9h-0.1l-2.8-6.9c0-0.1-0.1-0.1-0.2-0.1H23
		c-0.1,0-0.2,0.1-0.2,0.2L21.1,91.3z"/>
	<path class="st4" d="M113.4,69.2c0-2.4,2-4.4,4.4-4.4s4.4,2,4.4,4.4s-2,4.4-4.4,4.4S113.4,71.6,113.4,69.2 M110.9,69.2
		c0,3.8,3.1,6.9,6.9,6.9s6.9-3.1,6.9-6.9s-3.1-6.9-6.9-6.9C114,62.2,110.9,65.3,110.9,69.2 M97.6,69.2c0,3.8,3.1,6.9,6.9,6.9
		c1.7,0,3.4-0.6,4.7-1.9c0.1-0.1,0.2-0.4,0-0.5l-1.2-1.2c-0.1-0.1-0.3-0.1-0.5,0c-0.8,0.7-1.8,1.1-2.9,1.1c-2.5,0-4.3-2-4.3-4.4
		s1.8-4.5,4.3-4.5c1.1,0,2.1,0.4,3,1.1c0.2,0.2,0.3,0.2,0.5,0l1.2-1.2c0.2-0.2,0.2-0.4,0-0.5c-1.3-1.2-2.7-1.8-4.6-1.8
		C100.6,62.2,97.6,65.3,97.6,69.2 M92.5,75.5c0,0.2,0.2,0.4,0.4,0.4h1.8c0.2,0,0.4-0.2,0.4-0.4V62.8c0-0.2-0.2-0.4-0.4-0.4h-1.8
		c-0.2,0-0.4,0.2-0.4,0.4V75.5z M77.9,75.5c0,0.2,0.2,0.4,0.4,0.4H80c0.2,0,0.4-0.2,0.4-0.4v-8.3l0,0l8,8.8h0.5
		c0.2,0,0.4-0.2,0.4-0.3V62.8c0-0.2-0.2-0.4-0.4-0.4h-1.8c-0.2,0-0.4,0.2-0.4,0.4v7.9l0,0l-8-8.5h-0.5c-0.2,0-0.4,0.2-0.4,0.3v13
		H77.9z M63.7,69.2c0,3.8,3.1,6.9,6.9,6.9c1.7,0,3.4-0.6,4.7-1.9c0.1-0.1,0.2-0.4,0-0.5l-1.2-1.2c-0.1-0.1-0.3-0.1-0.5,0
		c-0.8,0.7-1.8,1.1-2.9,1.1c-2.5,0-4.3-2-4.3-4.4s1.8-4.5,4.3-4.5c1.1,0,2.1,0.4,3,1.1c0.2,0.2,0.3,0.2,0.5,0l1.2-1.2
		c0.2-0.2,0.2-0.4,0-0.5c-1.3-1.2-2.7-1.8-4.6-1.8C66.8,62.2,63.7,65.3,63.7,69.2 M53.2,75.5c0,0.2,0.2,0.4,0.4,0.4h7.8
		c0.2,0,0.4-0.2,0.4-0.4v-1.6c0-0.2-0.2-0.4-0.4-0.4h-5.7v-3.4h4.7c0.2,0,0.4-0.2,0.4-0.4v-1.6c0-0.2-0.2-0.4-0.4-0.4h-4.7v-3.1h5.7
		c0.2,0,0.4-0.2,0.4-0.4v-1.6c0-0.2-0.2-0.4-0.4-0.4h-7.8c-0.2,0-0.4,0.2-0.4,0.4V75.5z M45.2,75.5c0,0.2,0.2,0.4,0.4,0.4h1.8
		c0.2,0,0.4-0.2,0.4-0.4V64.7h2.9c0.2,0,0.4-0.2,0.4-0.4v-1.6c0-0.2-0.2-0.4-0.4-0.4h-8.4c-0.2,0-0.4,0.2-0.4,0.4v1.6
		c0,0.2,0.2,0.4,0.4,0.4h2.9C45.2,64.7,45.2,75.5,45.2,75.5z M37,75.5c0,0.2,0.2,0.4,0.4,0.4h1.8c0.2,0,0.4-0.2,0.4-0.4V62.8
		c0-0.2-0.2-0.4-0.4-0.4h-1.8c-0.2,0-0.4,0.2-0.4,0.4V75.5z M26.7,75.5c0,0.2,0.2,0.4,0.4,0.4h7c0.2,0,0.4-0.2,0.4-0.4v-1.6
		c0-0.2-0.2-0.4-0.4-0.4h-4.9V62.8c0-0.2-0.2-0.4-0.4-0.4H27c-0.2,0-0.4,0.2-0.4,0.4v12.7H26.7z M13.4,69.2c0-2.4,2-4.4,4.4-4.4
		s4.4,2,4.4,4.4s-2,4.4-4.4,4.4S13.4,71.6,13.4,69.2 M10.9,69.2c0,3.8,3.1,6.9,6.9,6.9s6.9-3.1,6.9-6.9s-3.1-6.9-6.9-6.9
		C14,62.2,10.9,65.3,10.9,69.2 M2.8,68.6v-3.9H5c1.1,0,2,0.8,2,1.9s-0.9,2-2,2H2.8z M0.3,75.5c0,0.2,0.2,0.4,0.4,0.4h1.8
		c0.2,0,0.4-0.2,0.4-0.4V71h2.4c2.3,0,4.3-1.9,4.3-4.3c0-2.3-1.9-4.2-4.3-4.2H0.6c-0.2,0-0.4,0.2-0.4,0.4L0.3,75.5L0.3,75.5z"/>
</g>
</svg>
