<?xml version="1.0" encoding="utf-8"?>
<!-- Generator: Adobe Illustrator 22.1.0, SVG Export Plug-In . SVG Version: 6.00 Build 0)  -->
<svg version="1.1" xmlns="http://www.w3.org/2000/svg" xmlns:xlink="http://www.w3.org/1999/xlink" x="0px" y="0px"
	 viewBox="0 0 250 300" style="enable-background:new 0 0 250 300;" xml:space="preserve">
<style type="text/css">
	.st0{enable-background:new    ;}
	.st1{fill:#666666;}
	.st2{font-family:'IBMPlexSansCond-SemiBold';}
	.st3{font-size:16px;}
	.st4{fill:#FFFFFF;}
	.st5{fill:#A8BAA9;}
	.st6{fill:#AFD7EF;}
	.st7{fill:#DDD492;}
	.st8{fill:#2B5681;}
	.st9{fill:#89703F;}
	.st10{fill:#508AB5;}
	.st11{opacity:0.5;fill:#A8BAA9;}
	.st12{opacity:0.5;fill:#AFD7EF;}
	.st13{opacity:0.5;fill:#DDD492;}
	.st14{opacity:0.5;fill:#2B5681;}
	.st15{opacity:0.5;fill:#89703F;}
	.st16{opacity:0.5;fill:#508AB5;}
	.st17{fill:#617263;}
	.st18{opacity:0.5;fill:#617263;}
	.st19{opacity:0.5;}
	.st20{opacity:0.5;fill:#2B5681;stroke:#666666;stroke-miterlimit:10;}
	.st21{fill:none;stroke:#B3B3B3;stroke-width:0.5;stroke-miterlimit:10;}
	.st22{fill:none;stroke:#666666;stroke-width:0.5;stroke-miterlimit:10;}
	.st23{fill:none;}
	.st24{font-family:'IBMPlexSans';}
	.st25{font-size:9.0724px;}
</style>
<g id="labels">
	<text transform="matrix(1 0 0 1 22.3772 23.9277)" class="st0"><tspan x="0" y="0" class="st1 st2 st3">Word Recurrence </tspan><tspan x="0" y="19.2" class="st1 st2 st3">per Website Category</tspan></text>
</g>
<g id="barcharts">
	<g>
		<rect x="23.4" y="243.9" class="st4" width="2.9" height="24"/>
		<path class="st5" d="M25.3,244.9v22h-0.9v-22H25.3 M27.3,242.9h-4.9v26h4.9V242.9L27.3,242.9z"/>
	</g>
	<g>
		<rect x="23.4" y="69.9" class="st4" width="17.6" height="24"/>
		<path class="st17" d="M40,70.9v22H24.4v-22H40 M42,68.9H22.4v26H42V68.9L42,68.9z"/>
	</g>
	<g>
		<rect x="23.4" y="214.9" class="st4" width="94.3" height="24"/>
		<path class="st6" d="M116.7,215.9v22H24.4v-22H116.7 M118.7,213.9H22.4v26h96.3V213.9L118.7,213.9z"/>
	</g>
	<g>
		<rect x="23.4" y="185.9" class="st4" width="12.7" height="24"/>
		<path class="st7" d="M35.1,186.9v22H24.4v-22H35.1 M37.1,184.9H22.4v26h14.7V184.9L37.1,184.9z"/>
	</g>
	<g>
		<rect x="23.4" y="156.9" class="st4" width="51.9" height="24"/>
		<path class="st8" d="M74.3,157.9v22H24.4v-22H74.3 M76.3,155.9H22.4v26h53.9V155.9L76.3,155.9z"/>
	</g>
	<g>
	</g>
	<g>
		<rect x="23.4" y="98.9" class="st4" width="58.4" height="24"/>
		<path class="st10" d="M80.8,99.9v22H24.4v-22H80.8 M82.8,97.9H22.4v26h60.4V97.9L82.8,97.9z"/>
	</g>
	<rect x="22.4" y="242.9" class="st11" width="4.9" height="26"/>
	<rect x="22.4" y="68.9" class="st18" width="19.6" height="26"/>
	<rect x="22.4" y="213.9" class="st12" width="96.3" height="26"/>
	<rect x="22.4" y="184.9" class="st13" width="14.7" height="26"/>
	<rect x="22.4" y="155.9" class="st14" width="53.9" height="26"/>
	<rect x="22.4" y="97.9" class="st16" width="60.4" height="26"/>
</g>
<g id="scale">
	<g>
	</g>
	<polygon class="st20" points="22.4,181.9 22.4,155.9 22.4,155.9 	"/>
	<polygon class="st1" points="192,278.9 189.5,283.3 194.6,283.3 	"/>
	<polygon class="st1" points="22.3,279.1 19.8,283.5 24.8,283.5 	"/>
	<polygon class="st1" points="64.7,279.1 62.2,283.5 67.3,283.5 	"/>
	<rect x="173.7" y="288.9" class="st23" width="36.7" height="7.2"/>
	<text transform="matrix(1 0 0 1 183.8818 295.5864)" class="st1 st24 st25">100</text>
	<rect x="4" y="288.9" class="st23" width="36.7" height="7.2"/>
	<text transform="matrix(1 0 0 1 19.658 295.5864)" class="st1 st24 st25">0</text>
	<polygon class="st1" points="107.2,278.9 104.6,283.3 109.7,283.3 	"/>
	<polygon class="st1" points="149.6,278.9 147.1,283.3 152.1,283.3 	"/>
	<line class="st21" x1="64.7" y1="279.1" x2="64.7" y2="63.9"/>
	<line class="st22" x1="192" y1="279.1" x2="192" y2="63.9"/>
	<line class="st21" x1="107.2" y1="279.1" x2="107.2" y2="63.9"/>
	<line class="st22" x1="22.3" y1="279.1" x2="22.3" y2="63.9"/>
	<rect x="88.8" y="288.9" class="st23" width="36.7" height="7.2"/>
	<text transform="matrix(1 0 0 1 101.7335 295.5864)" class="st1 st24 st25">50</text>
	<rect x="131.3" y="288.9" class="st23" width="36.7" height="7.2"/>
	<text transform="matrix(1 0 0 1 144.1688 295.5864)" class="st1 st24 st25">75</text>
	<rect x="46.4" y="288.9" class="st23" width="36.7" height="7.2"/>
	<text transform="matrix(1 0 0 1 59.2925 295.5864)" class="st1 st24 st25">25</text>
	<line class="st21" x1="149.6" y1="279.1" x2="149.6" y2="63.9"/>
</g>
</svg>
