<?xml version="1.0" encoding="utf-8"?>
<!-- Generator: Adobe Illustrator 22.1.0, SVG Export Plug-In . SVG Version: 6.00 Build 0)  -->
<svg version="1.1" id="Livello_1" xmlns="http://www.w3.org/2000/svg" xmlns:xlink="http://www.w3.org/1999/xlink" x="0px" y="0px"
	 viewBox="0 0 860.2 695.1" style="enable-background:new 0 0 860.2 695.1;" xml:space="preserve">
<style type="text/css">
	.st0{fill:#111111;stroke:#111111;stroke-width:2;}
	.st1{fill:none;stroke:#565656;stroke-width:2;stroke-miterlimit:10;}
	.st2{enable-background:new    ;}
	.st3{fill:#493C6D;}
	.st4{fill:#111111;}
	.st5{fill:#FFFFFF;}
	.st6{fill:none;}
	.st7{fill:none;stroke:#FFFFFF;stroke-width:3;}
	.st8{fill:none;stroke:#FFFFFF;stroke-width:3;stroke-dasharray:19.6122,9.8061;}
	.st9{fill:none;stroke:#FFFFFF;stroke-width:2;}
</style>
<g id="Livello_1_1_">
	<rect x="-39" y="-14" class="st0" width="905.9" height="813.7"/>
</g>
<line class="st1" x1="834.3" y1="31.5" x2="74" y2="31.5"/>
<line class="st1" x1="834.3" y1="185.9" x2="74" y2="185.9"/>
<line class="st1" x1="834.3" y1="338.8" x2="74" y2="338.8"/>
<line class="st1" x1="834.3" y1="491.6" x2="74" y2="491.6"/>
<g class="st2">
	<rect x="324.5" y="186.1" class="st3" width="14.5" height="461.3"/>
	<path class="st4" d="M337.5,187.6v458.3H326V187.6H337.5 M340.5,184.6h-3H326h-3v3v458.3v3h3h11.5h3v-3V187.6V184.6L340.5,184.6z"
		/>
</g>
<g class="st2">
	<path class="st5" d="M331.2,672.4l-8.9-4.1l2.5-5.4l1.4,0.6l-1.7,3.7l2.4,1.1l1.3-2.8l1.4,0.6l-1.3,2.8l3.8,1.8L331.2,672.4
		L331.2,672.4z"/>
	<path class="st5" d="M331.7,662.2l3.5,1.6l-0.8,1.8l-8.9-4.1l1.5-3.3c0.5-1,1.1-1.7,1.8-2c0.7-0.3,1.6-0.3,2.3,0.1
		c0.5,0.3,1,0.7,1.3,1.3c0.3,0.6,0.4,1.3,0.2,2.1l4.7-0.6l-1,2.1l-4.5,0.4L331.7,662.2L331.7,662.2z M327.7,660.3l2.6,1.2l0.7-1.5
		c0.2-0.5,0.3-0.9,0.1-1.2c-0.1-0.4-0.4-0.6-0.7-0.8c-0.4-0.2-0.8-0.2-1.1-0.1c-0.4,0.1-0.6,0.4-0.8,0.8L327.7,660.3L327.7,660.3z"
		/>
</g>
<g class="st2">
	<rect x="766.5" y="94.4" class="st3" width="14.5" height="553"/>
	<path class="st4" d="M779.5,95.9v550H768v-550L779.5,95.9 M782.5,92.9h-3H768h-3v3v550v3h3h11.5h3v-3v-550V92.9L782.5,92.9z"/>
</g>
<g class="st2">
	<path class="st5" d="M767.1,665.6c-0.2,0.4-0.2,0.7-0.2,1c0.1,0.3,0.3,0.6,0.6,0.7c0.4,0.2,0.6,0.2,0.9,0.1s0.5-0.2,0.7-0.4
		c0.2-0.2,0.4-0.5,0.7-0.8c0.3-0.3,0.5-0.5,0.7-0.9c0.3-0.3,0.6-0.5,0.8-0.7c0.3-0.2,0.6-0.3,1-0.3c0.4,0,0.9,0.1,1.2,0.2
		c0.7,0.3,1.2,0.9,1.5,1.8c0.3,0.8,0.2,1.7-0.2,2.6c-0.5,1-1,1.6-1.7,2.1s-1.5,0.4-2.3,0l0.9-1.9c0.9,0.3,1.4,0,1.8-0.8
		c0.2-0.4,0.2-0.8,0.1-1.2c-0.1-0.4-0.3-0.6-0.6-0.7s-0.7-0.1-1,0.1c-0.3,0.2-0.7,0.6-1,1s-0.6,0.8-1,1.2c-0.4,0.4-0.7,0.6-1.3,0.8
		c-0.5,0.1-1,0.1-1.7-0.2c-0.8-0.4-1.3-0.9-1.5-1.8c-0.2-0.8-0.1-1.7,0.3-2.6c0.4-0.9,0.9-1.5,1.6-1.9c0.7-0.3,1.5-0.4,2.3,0l-0.9,2
		c-0.4-0.2-0.7-0.1-1,0C767.5,665.1,767.2,665.3,767.1,665.6z"/>
	<path class="st5" d="M770.5,654.9l1.4,0.6l-1.6,3.4l2.4,1.1l1.4-2.9l1.4,0.6l-1.4,2.9l2.4,1.1l1.6-3.4l1.4,0.6l-2.4,5.1l-8.9-4.1
		L770.5,654.9z"/>
</g>
<g class="st2">
	<rect x="740.5" y="338.9" class="st3" width="14.5" height="308.6"/>
	<path class="st4" d="M753.5,340.4V646H742V340.4H753.5 M756.5,337.4h-3H742h-3v3V646v3h3h11.5h3v-3V340.4V337.4L756.5,337.4z"/>
</g>
<g class="st2">
	<path class="st5" d="M740.7,662.7l1.4,0.6l-1.6,3.4l2.4,1.1l1.4-2.9l1.4,0.6l-1.4,2.9l2.4,1.1l1.6-3.4l1.4,0.6l-2.4,5.1l-8.9-4.1
		L740.7,662.7z"/>
	<path class="st5" d="M744.2,658.6c-0.2,0.4-0.2,0.7-0.2,1c0.1,0.3,0.3,0.6,0.6,0.7c0.4,0.2,0.6,0.2,0.9,0.1s0.5-0.2,0.7-0.4
		c0.2-0.2,0.4-0.5,0.7-0.8c0.3-0.3,0.5-0.5,0.7-0.9c0.3-0.3,0.6-0.5,0.8-0.7c0.3-0.2,0.6-0.3,1-0.3c0.4,0,0.9,0.1,1.2,0.2
		c0.7,0.3,1.2,0.9,1.5,1.8c0.3,0.8,0.2,1.7-0.2,2.6c-0.5,1-1,1.6-1.7,2.1c-0.7,0.4-1.5,0.4-2.3,0l0.9-1.9c0.9,0.3,1.4,0,1.8-0.8
		c0.2-0.4,0.2-0.8,0.1-1.2c-0.1-0.4-0.3-0.6-0.6-0.7s-0.7-0.1-1,0.1c-0.3,0.2-0.7,0.6-1,1c-0.3,0.4-0.6,0.8-1,1.2
		c-0.4,0.4-0.7,0.6-1.3,0.8c-0.5,0.1-1,0.1-1.7-0.2c-0.8-0.4-1.3-0.9-1.5-1.8c-0.2-0.8-0.1-1.7,0.3-2.6c0.4-0.9,0.9-1.5,1.6-1.9
		c0.7-0.3,1.5-0.4,2.3,0l-0.9,2c-0.4-0.2-0.7-0.1-1,0C744.7,658.1,744.4,658.3,744.2,658.6z"/>
</g>
<g class="st2">
	<rect x="714.5" y="430.5" class="st3" width="14.5" height="216.9"/>
	<path class="st4" d="M727.5,432v213.9H716V432H727.5 M730.5,429h-3H716h-3v3v213.9v3h3h11.5h3v-3V432V429L730.5,429z"/>
</g>
<g class="st2">
	<path class="st5" d="M715.8,662.2c-0.2,0.4-0.2,0.7-0.2,1c0.1,0.3,0.3,0.6,0.6,0.7c0.4,0.2,0.6,0.2,0.9,0.1
		c0.3-0.1,0.5-0.2,0.7-0.4c0.2-0.2,0.4-0.5,0.7-0.8c0.3-0.3,0.5-0.5,0.7-0.9c0.3-0.3,0.6-0.5,0.8-0.7c0.3-0.2,0.6-0.3,1-0.3
		c0.4,0,0.9,0.1,1.2,0.2c0.7,0.3,1.2,0.9,1.5,1.8c0.3,0.8,0.2,1.7-0.2,2.6c-0.5,1-1,1.6-1.7,2.1c-0.7,0.4-1.5,0.4-2.3,0l0.9-1.9
		c0.9,0.3,1.4,0,1.8-0.8c0.2-0.4,0.2-0.8,0.1-1.2c-0.1-0.4-0.3-0.6-0.6-0.7s-0.7-0.1-1,0.1c-0.3,0.2-0.7,0.6-1,1
		c-0.3,0.4-0.6,0.8-1,1.2c-0.4,0.4-0.7,0.6-1.3,0.8c-0.5,0.1-1,0.1-1.7-0.2c-0.8-0.4-1.3-0.9-1.5-1.8c-0.2-0.8-0.1-1.7,0.3-2.6
		s0.9-1.5,1.6-1.9c0.7-0.3,1.5-0.4,2.3,0l-0.9,2c-0.4-0.2-0.7-0.1-1,0C716.3,661.6,716,661.8,715.8,662.2z"/>
	<path class="st5" d="M725.8,660.7l-8.9-4.1l0.8-1.8l8.9,4.1L725.8,660.7z"/>
</g>
<g class="st2">
	<rect x="688.5" y="125" class="st3" width="14.5" height="522.4"/>
	<path class="st4" d="M701.5,126.5v519.4H690V126.5H701.5 M704.5,123.5h-3H690h-3v3v519.4v3h3h11.5h3v-3V126.5V123.5L704.5,123.5z"
		/>
</g>
<g class="st2">
	<path class="st5" d="M688.5,667.3c-0.2,0.4-0.2,0.7-0.2,1c0.1,0.3,0.3,0.6,0.6,0.7c0.4,0.2,0.6,0.2,0.9,0.1s0.5-0.2,0.7-0.4
		c0.2-0.2,0.4-0.5,0.7-0.8c0.3-0.3,0.5-0.5,0.7-0.9c0.3-0.3,0.6-0.5,0.8-0.7c0.3-0.2,0.6-0.3,1-0.3c0.4,0,0.9,0.1,1.2,0.2
		c0.7,0.3,1.2,0.9,1.5,1.8c0.3,0.8,0.2,1.7-0.2,2.6c-0.5,1-1,1.6-1.7,2.1s-1.5,0.4-2.3,0l0.9-1.9c0.9,0.3,1.4,0,1.8-0.8
		c0.2-0.4,0.2-0.8,0.1-1.2c-0.1-0.4-0.3-0.6-0.6-0.7s-0.7-0.1-1,0.1c-0.3,0.2-0.7,0.6-1,1c-0.3,0.4-0.6,0.8-1,1.2
		c-0.4,0.4-0.7,0.6-1.3,0.8c-0.5,0.1-1,0.1-1.7-0.2c-0.8-0.4-1.3-0.9-1.5-1.8c-0.2-0.8-0.1-1.7,0.3-2.6s0.9-1.5,1.6-1.9
		c0.7-0.3,1.5-0.4,2.3,0l-0.9,2c-0.4-0.2-0.7-0.1-1,0C689.1,666.7,688.7,666.9,688.5,667.3z"/>
	<path class="st5" d="M699.4,664l-0.8,1.8l-8.9-4.1l0.8-1.8l4,1.9l-2.5-5l1.1-2.4l2.7,5.9l6.2-1.7l-1.1,2.4l-5.4,1.4L699.4,664z"/>
</g>
<g class="st2">
	<rect x="662.5" y="491.7" class="st3" width="14.5" height="155.8"/>
	<path class="st4" d="M675.5,493.2V646H664V493.2H675.5 M678.5,490.2h-3H664h-3v3V646v3h3h11.5h3v-3V493.2V490.2L678.5,490.2z"/>
</g>
<g class="st2">
	<path class="st5" d="M665.7,672.5l3.5,1.6l-0.8,1.8l-8.9-4.1l1.5-3.3c0.5-1,1.1-1.7,1.8-2s1.6-0.3,2.3,0.1c0.5,0.3,1,0.7,1.3,1.3
		c0.3,0.6,0.4,1.3,0.2,2.1l4.7-0.6l-1,2.1l-4.5,0.4L665.7,672.5L665.7,672.5L665.7,672.5z M661.7,670.6l2.6,1.2l0.7-1.5
		c0.2-0.5,0.3-0.9,0.1-1.2c-0.1-0.4-0.4-0.6-0.7-0.8c-0.4-0.2-0.8-0.2-1.1-0.1c-0.4,0.1-0.6,0.4-0.8,0.8L661.7,670.6L661.7,670.6z"
		/>
	<path class="st5" d="M674.3,663.7c-0.6,1.3-1.6,2.1-2.8,2.7c-1.2,0.5-2.5,0.4-3.9-0.3c-1.4-0.6-2.1-1.6-2.7-2.8
		c-0.5-1.2-0.3-2.6,0.3-3.9s1.6-2.1,2.7-2.6c1.2-0.4,2.5-0.4,3.9,0.3c1.4,0.6,2.1,1.6,2.7,2.8C674.9,661.1,674.9,662.4,674.3,663.7z
		 M672.7,660.6c-0.3-0.7-0.9-1.3-1.7-1.7c-0.8-0.4-1.7-0.4-2.4-0.2c-0.8,0.3-1.4,0.8-1.7,1.6c-0.4,0.8-0.4,1.6-0.1,2.4
		c0.3,0.8,0.9,1.3,1.7,1.7c0.8,0.4,1.7,0.4,2.4,0.2c0.8-0.2,1.4-0.8,1.7-1.6C673,662.2,673,661.3,672.7,660.6z"/>
</g>
<g class="st2">
	<rect x="636.5" y="461.1" class="st3" width="14.5" height="186.3"/>
	<path class="st4" d="M649.5,462.6v183.3H638V462.6H649.5 M652.5,459.6h-3H638h-3v3v183.3v3h3h11.5h3v-3V462.6V459.6L652.5,459.6z"
		/>
</g>
<g class="st2">
	<path class="st5" d="M641.4,664.7c0.1,0.4,0.3,0.8,0.2,1.3c0,0.5-0.2,1-0.4,1.7l-0.7,1.5l3.5,1.6l-0.8,1.8l-8.9-4.1l1.5-3.3
		c0.5-1,1.1-1.7,1.8-2c0.7-0.3,1.5-0.3,2.2,0C640.5,663.5,641.1,664,641.4,664.7z M639.1,668.5l0.7-1.5c0.2-0.5,0.3-0.9,0.1-1.2
		c-0.1-0.4-0.4-0.6-0.7-0.8c-0.4-0.2-0.8-0.2-1.1-0.1c-0.4,0.1-0.6,0.4-0.8,0.8l-0.7,1.5L639.1,668.5z"/>
	<path class="st5" d="M639,661.8l-1.4-0.6l3-6.5l1.4,0.6l-1.1,2.4l7.5,3.5l-0.8,1.8l-7.5-3.5L639,661.8z"/>
</g>
<g class="st2">
	<rect x="610.5" y="430.5" class="st3" width="14.5" height="216.9"/>
	<path class="st4" d="M623.5,432v213.9H612V432H623.5 M626.5,429h-3H612h-3v3v213.9v3h3h11.5h3v-3V432V429L626.5,429z"/>
</g>
<g class="st2">
	<path class="st5" d="M615.7,663.5c0.1,0.4,0.3,0.8,0.2,1.3c-0.1,0.5-0.2,1-0.4,1.7l-0.7,1.5l3.5,1.6l-0.8,1.8l-8.9-4.1l1.5-3.3
		c0.5-1,1.1-1.7,1.8-2c0.7-0.3,1.5-0.3,2.2,0C614.8,662.2,615.3,662.8,615.7,663.5z M613.4,667.3l0.7-1.5c0.2-0.5,0.3-0.9,0.1-1.2
		c-0.1-0.4-0.4-0.6-0.7-0.8c-0.4-0.2-0.8-0.2-1.1-0.1c-0.4,0.1-0.6,0.4-0.8,0.8l-0.7,1.5L613.4,667.3z"/>
	<path class="st5" d="M612.2,659.3l0.8-1.8l7.5,3.5l1.3-2.8l1.4,0.6l-2.2,4.6L612.2,659.3z"/>
</g>
<g class="st2">
	<rect x="584.5" y="125" class="st3" width="14.5" height="522.4"/>
	<path class="st4" d="M597.5,126.5v519.4H586V126.5H597.5 M600.5,123.5h-3H586h-3v3v519.4v3h3h11.5h3v-3V126.5V123.5L600.5,123.5z"
		/>
</g>
<g class="st2">
	<path class="st5" d="M584.9,663l0.8-1.8l8.9,4.1l-0.8,1.8l-8,1.1l6.2,2.9L591,673l-8.9-4.1l0.8-1.8l8-1.1L584.9,663z"/>
	<path class="st5" d="M586.6,659.3l0.8-1.8l7.5,3.5l1.3-2.8l1.4,0.6l-2.2,4.6L586.6,659.3z"/>
</g>
<g class="st2">
	<rect x="558.5" y="400" class="st3" width="14.5" height="247.4"/>
	<path class="st4" d="M571.5,401.5v244.4H560V401.5H571.5 M574.5,398.5h-3H560h-3v3v244.4v3h3h11.5h3v-3V401.5V398.5L574.5,398.5z"
		/>
</g>
<g class="st2">
	<path class="st5" d="M559.9,662.7l8.9,4.1l-0.8,1.8l-5.6-2.6l4.5,5.1l-0.6,1.3l-6.6-0.2l5.5,2.6l-0.8,1.8l-8.9-4.1l0.9-2l7.8,0.2
		l-5.2-5.9L559.9,662.7z"/>
	<path class="st5" d="M561.9,661.8l-1.4-0.6l3-6.5l1.4,0.6l-1.1,2.4l7.5,3.5l-0.8,1.8l-7.5-3.5L561.9,661.8z"/>
</g>
<g class="st2">
	<rect x="532.5" y="277.8" class="st3" width="14.5" height="369.7"/>
	<path class="st4" d="M545.5,279.3V646H534V279.3H545.5 M548.5,276.3h-3H534h-3v3V646v3h3h11.5h3v-3V279.3V276.3L548.5,276.3z"/>
</g>
<g class="st2">
	<path class="st5" d="M530.4,668.3l0.8-1.8l7.5,3.5l1.3-2.8l1.4,0.6l-2.2,4.6L530.4,668.3z"/>
	<path class="st5" d="M538.6,665l-5.4-2.5l0.8-1.8l5.4,2.5c0.6,0.3,1.2,0.3,1.6,0.2c0.4-0.1,0.8-0.5,1.1-1.1
		c0.3-0.5,0.3-1.1,0.2-1.6c-0.1-0.4-0.6-0.8-1.1-1.1l-5.4-2.5l0.8-1.8l5.4,2.5c1.1,0.5,1.8,1.3,2,2.3c0.3,1,0.2,2-0.3,3
		c-0.5,1-1.1,1.7-2.1,2.1C540.7,665.6,539.7,665.6,538.6,665z"/>
</g>
<g class="st2">
	<rect x="506.5" y="461.1" class="st3" width="14.5" height="186.3"/>
	<path class="st4" d="M519.5,462.6v183.3H508V462.6H519.5 M522.5,459.6h-3H508h-3v3v183.3v3h3h11.5h3v-3V462.6V459.6L522.5,459.6z"
		/>
</g>
<g class="st2">
	<path class="st5" d="M504.7,666.6l0.8-1.8l7.5,3.5l1.3-2.8l1.4,0.6l-2.2,4.6L504.7,666.6z"/>
	<path class="st5" d="M508.5,661.9l-1.4-0.6l3-6.5l1.4,0.6l-1.1,2.4l7.5,3.5l-0.8,1.8l-7.5-3.5L508.5,661.9L508.5,661.9z"/>
</g>
<g class="st2">
	<rect x="480.5" y="308.3" class="st3" width="14.5" height="339.1"/>
	<path class="st4" d="M493.5,309.8v336.1H482V309.8H493.5 M496.5,306.8h-3H482h-3v3v336.1v3h3h11.5h3v-3V309.8V306.8L496.5,306.8z"
		/>
</g>
<g class="st2">
	<path class="st5" d="M478.2,668.6l0.8-1.8l7.5,3.5l1.3-2.8l1.4,0.6l-2.2,4.6L478.2,668.6z"/>
	<path class="st5" d="M491,664.4l-10.4-0.9l0.9-1.9l8.2,0.8l-5.9-5.7l0.9-1.9l7.4,7.4L491,664.4z"/>
</g>
<g class="st2">
	<rect x="454.5" y="338.9" class="st3" width="14.5" height="308.6"/>
	<path class="st4" d="M467.5,340.4V646H456V340.4H467.5 M470.5,337.4h-3H456h-3v3V646v3h3h11.5h3v-3V340.4V337.4L470.5,337.4z"/>
</g>
<g class="st2">
	<path class="st5" d="M462.1,669.5l-8.9-4.1l0.8-1.8l8.9,4.1L462.1,669.5z"/>
	<path class="st5" d="M456,662.8l-1.4-0.6l3-6.5l1.4,0.6l-1.1,2.4l7.5,3.5l-0.8,1.8l-7.5-3.5L456,662.8z"/>
</g>
<g class="st2">
	<rect x="428.5" y="338.9" class="st3" width="14.5" height="308.6"/>
	<path class="st4" d="M441.5,340.4V646H430V340.4H441.5 M444.5,337.4h-3H430h-3v3V646v3h3h11.5h3v-3V340.4V337.4L444.5,337.4z"/>
</g>
<g class="st2">
	<path class="st5" d="M436.3,667.8l-8.9-4.1l0.8-1.8l8.9,4.1L436.3,667.8z"/>
	<path class="st5" d="M431.5,654.8l1.4,0.6l-1.6,3.4l2.4,1.1l1.4-2.9l1.4,0.6l-1.4,2.9l2.4,1.1l1.6-3.4l1.4,0.6L438,664l-8.9-4.1
		L431.5,654.8L431.5,654.8z"/>
</g>
<g class="st2">
	<rect x="402.5" y="430.5" class="st3" width="14.5" height="216.9"/>
	<path class="st4" d="M415.5,432v213.9H404V432H415.5 M418.5,429h-3H404h-3v3v213.9v3h3h11.5h3v-3V432V429L418.5,429z"/>
</g>
<g class="st2">
	<path class="st5" d="M402.2,666l0.8-1.8l8.9,4.1l-0.8,1.8l-3.8-1.8l-1.8,3.8l3.8,1.8l-0.8,1.8l-8.9-4.1l0.8-1.8l3.7,1.7l1.8-3.8
		L402.2,666z"/>
	<path class="st5" d="M409.4,664.9l-5.4-2.5l0.8-1.8l5.4,2.5c0.6,0.3,1.2,0.3,1.6,0.2c0.4-0.1,0.8-0.5,1.1-1.1
		c0.3-0.6,0.3-1.1,0.2-1.6c-0.1-0.4-0.6-0.8-1.1-1.1l-5.4-2.5l0.8-1.8l5.4,2.5c1.1,0.5,1.8,1.3,2,2.3c0.3,1,0.2,2-0.3,3
		c-0.5,1-1.1,1.7-2.1,2.1C411.5,665.5,410.5,665.5,409.4,664.9z"/>
</g>
<g class="st2">
	<rect x="376.5" y="400" class="st3" width="14.5" height="247.4"/>
	<path class="st4" d="M389.5,401.5v244.4H378V401.5H389.5 M392.5,398.5h-3H378h-3v3v244.4v3h3h11.5h3v-3V401.5V398.5L392.5,398.5z"
		/>
</g>
<g class="st2">
	<path class="st5" d="M377.1,661l1.4,0.6l-1.6,3.4l2.4,1.1l1.4-2.9l1.4,0.6l-1.4,2.9l2.4,1.1l1.6-3.4l1.4,0.6l-2.4,5.1l-8.9-4.1
		L377.1,661L377.1,661z"/>
	<path class="st5" d="M378,659.2l0.8-1.8l7.5,3.5l1.3-2.8l1.4,0.6l-2.2,4.6L378,659.2z"/>
</g>
<g class="st2">
	<rect x="350.5" y="247.2" class="st3" width="14.5" height="400.2"/>
	<path class="st4" d="M363.5,248.7v397.2H352V248.7H363.5 M366.5,245.7h-3H352h-3v3v397.2v3h3h11.5h3v-3V248.7V245.7L366.5,245.7z"
		/>
</g>
<g class="st2">
	<path class="st5" d="M349.5,666.8c0.7-1.5,1.5-2.4,2.8-2.9c1.2-0.5,2.5-0.4,3.9,0.3s2.2,1.6,2.6,2.7c0.3,1.2,0.2,2.5-0.4,4l-1.4,3
		l-8.9-4.1L349.5,666.8L349.5,666.8z M356.5,671.4l0.5-1.2c0.4-0.9,0.5-1.8,0.2-2.6s-0.9-1.4-1.9-1.9c-1-0.5-1.8-0.5-2.6-0.2
		c-0.8,0.3-1.4,0.9-1.8,1.8l-0.5,1.2L356.5,671.4z"/>
	<path class="st5" d="M354.8,655.4l1.4,0.6l-1.6,3.4l2.4,1.1l1.4-2.9l1.4,0.6l-1.4,2.9l2.4,1.1l1.6-3.4l1.4,0.6l-2.4,5.1l-8.9-4.1
		L354.8,655.4L354.8,655.4z"/>
</g>
<g id="FR">
</g>
<g class="st2">
	<rect x="298.5" y="216.7" class="st3" width="14.5" height="430.8"/>
	<path class="st4" d="M311.5,218.2V646H300V218.2H311.5 M314.5,215.2h-3H300h-3v3V646v3h3h11.5h3v-3V218.2V215.2L314.5,215.2z"/>
</g>
<g class="st2">
	<path class="st5" d="M306.3,667.9l-8.9-4.1l2.5-5.4l1.4,0.6l-1.7,3.7l2.4,1.1l1.3-2.8l1.4,0.6l-1.3,2.8l3.8,1.8L306.3,667.9
		L306.3,667.9z"/>
	<path class="st5" d="M309.5,661l-8.9-4.1l0.8-1.8l8.9,4.1L309.5,661z"/>
</g>
<g class="st2">
	<rect x="272.5" y="308.3" class="st3" width="14.5" height="339.1"/>
	<path class="st4" d="M285.5,309.8v336.1H274V309.8H285.5 M288.5,306.8h-3H274h-3v3v336.1v3h3h11.5h3v-3V309.8V306.8L288.5,306.8z"
		/>
</g>
<g class="st2">
	<path class="st5" d="M273,661.9l1.4,0.6l-1.6,3.4l2.4,1.1l1.4-2.9l1.4,0.6l-1.4,2.9l2.4,1.1l1.6-3.4l1.4,0.6l-2.4,5.1l-8.9-4.1
		L273,661.9L273,661.9z"/>
	<path class="st5" d="M276.2,655l1.4,0.6L276,659l2.4,1.1l1.4-2.9l1.4,0.6l-1.4,2.9l2.4,1.1l1.6-3.4l1.4,0.6l-2.4,5.1l-8.9-4.1
		L276.2,655L276.2,655z"/>
</g>
<g class="st2">
	<rect x="246.5" y="94.4" class="st3" width="14.5" height="553"/>
	<path class="st4" d="M259.5,95.9v550H248v-550L259.5,95.9 M262.5,92.9h-3H248h-3v3v550v3h3h11.5h3v-3v-550V92.9L262.5,92.9z"/>
</g>
<g class="st2">
	<path class="st5" d="M245,668.4c0.7-1.5,1.5-2.4,2.8-2.9c1.2-0.5,2.5-0.4,3.9,0.3c1.4,0.6,2.2,1.6,2.6,2.7c0.3,1.2,0.2,2.5-0.4,4
		l-1.4,3l-8.9-4.1L245,668.4L245,668.4z M251.9,673.1l0.5-1.2c0.4-0.9,0.5-1.8,0.2-2.6c-0.3-0.8-0.9-1.4-1.9-1.9s-1.8-0.5-2.6-0.2
		c-0.8,0.3-1.4,0.9-1.8,1.8l-0.5,1.2L251.9,673.1z"/>
	<path class="st5" d="M257.6,664.6l-0.8,1.8l-8.9-4.1l0.8-1.8l4,1.9l-2.5-5l1.1-2.4l2.7,5.9l6.2-1.7l-1.1,2.4l-5.4,1.4L257.6,664.6z
		"/>
</g>
<g class="st2">
	<rect x="220.5" y="430.5" class="st3" width="14.5" height="216.9"/>
	<path class="st4" d="M233.5,432v213.9H222V432H233.5 M236.5,429h-3H222h-3v3v213.9v3h3h11.5h3v-3V432V429L236.5,429z"/>
</g>
<g class="st2">
	<path class="st5" d="M225.9,673.6c-1.2,0.5-2.5,0.4-3.9-0.3c-1.3-0.6-2.1-1.6-2.7-2.8c-0.4-1.3-0.4-2.5,0.2-3.8
		c0.5-1,1.1-1.7,1.9-2.2c0.8-0.5,1.8-0.7,2.8-0.7l-1,2.2c-1,0-1.7,0.5-2.1,1.4c-0.4,0.8-0.4,1.6-0.1,2.4c0.3,0.8,0.9,1.3,1.7,1.7
		c0.8,0.4,1.7,0.4,2.4,0.2s1.4-0.8,1.7-1.6c0.4-0.9,0.4-1.8-0.2-2.5l1-2.2c0.7,0.8,1.2,1.5,1.3,2.6c0.1,0.9,0,2-0.5,2.9
		C228.2,672.3,227.2,673.2,225.9,673.6z"/>
	<path class="st5" d="M225.2,655.3l1.4,0.6l4.2,6.8l1.9-4l1.4,0.6l-2.8,6.1l-1.4-0.6l-4.2-6.8l-1.9,4l-1.4-0.6L225.2,655.3z"/>
</g>
<g class="st2">
	<rect x="194.5" y="430.5" class="st3" width="14.5" height="216.9"/>
	<path class="st4" d="M207.5,432v213.9H196V432H207.5 M210.5,429h-3H196h-3v3v213.9v3h3h11.5h3v-3V432V429L210.5,429z"/>
</g>
<g class="st2">
	<path class="st5" d="M199.6,674.5c-1.2,0.5-2.5,0.4-3.9-0.3c-1.3-0.6-2.1-1.6-2.7-2.8c-0.4-1.3-0.4-2.5,0.2-3.8
		c0.5-1,1.1-1.7,1.9-2.2s1.8-0.7,2.8-0.7l-1,2.2c-1,0-1.7,0.5-2.1,1.4c-0.4,0.8-0.4,1.6-0.1,2.4c0.3,0.8,0.9,1.3,1.7,1.7
		s1.7,0.4,2.4,0.2c0.8-0.2,1.4-0.8,1.7-1.6c0.4-0.9,0.4-1.8-0.2-2.5l1-2.2c0.7,0.8,1.2,1.5,1.3,2.6c0.1,0.9,0,2-0.5,2.9
		C201.9,673.2,200.9,674.1,199.6,674.5z"/>
	<path class="st5" d="M206.9,662.1l-0.8,1.8l-3.1-1.4l-7.2,0.3l0.9-2l5.1,0l-3.3-3.8l0.9-2l4.4,5.7L206.9,662.1z"/>
</g>
<g class="st2">
	<rect x="168.5" y="277.8" class="st3" width="14.5" height="369.7"/>
	<path class="st4" d="M181.5,279.3V646H170V279.3H181.5 M184.5,276.3h-3H170h-3v3V646v3h3h11.5h3v-3V279.3V276.3L184.5,276.3z"/>
</g>
<g class="st2">
	<path class="st5" d="M168.4,665.1l0.8-1.8l8.9,4.1l-0.8,1.8l-3.8-1.8l-1.8,3.8l3.8,1.8l-0.8,1.8l-8.9-4.1l0.8-1.8l3.7,1.7l1.8-3.8
		L168.4,665.1z"/>
	<path class="st5" d="M176.3,662.1l3.5,1.6l-0.8,1.8l-8.9-4.1l1.5-3.3c0.5-1,1.1-1.7,1.8-2s1.6-0.3,2.3,0.1c0.5,0.3,1,0.7,1.3,1.3
		c0.3,0.6,0.4,1.3,0.2,2.1l4.7-0.6l-1,2.1l-4.5,0.4L176.3,662.1L176.3,662.1z M172.3,660.2l2.6,1.2l0.7-1.5c0.2-0.5,0.3-0.9,0.1-1.2
		c-0.1-0.4-0.4-0.6-0.7-0.8s-0.8-0.2-1.1-0.1c-0.4,0.1-0.6,0.4-0.8,0.8L172.3,660.2L172.3,660.2z"/>
</g>
<g class="st2">
	<rect x="142.5" y="400" class="st3" width="14.5" height="247.4"/>
	<path class="st4" d="M155.5,401.5v244.4H144V401.5H155.5 M158.5,398.5h-3H144h-3v3v244.4v3h3h11.5h3v-3V401.5V398.5L158.5,398.5z"
		/>
</g>
<g class="st2">
	<path class="st5" d="M139.6,671.8l1.7-3.6c0.4-0.9,0.9-1.5,1.6-1.9c0.7-0.3,1.4-0.4,2-0.1c1,0.5,1.4,1.3,1.2,2.7
		c0.3-0.5,0.9-0.9,1.4-1c0.5-0.1,1.2-0.1,1.7,0.1c0.7,0.3,1.1,0.9,1.3,1.6c0.2,0.8,0,1.6-0.4,2.5l-1.8,3.8L139.6,671.8L139.6,671.8z
		 M141.8,670.6l2.3,1.1l0.8-1.6c0.2-0.4,0.2-0.8,0.2-1c-0.1-0.4-0.3-0.6-0.6-0.7c-0.4-0.2-0.7-0.2-1,0c-0.3,0.2-0.5,0.4-0.7,0.8
		L141.8,670.6L141.8,670.6z M147.9,673.5l0.8-1.8c0.2-0.4,0.2-0.8,0.1-1.2c-0.1-0.4-0.4-0.6-0.7-0.8c-0.4-0.2-0.8-0.2-1.1-0.1
		c-0.3,0.2-0.6,0.4-0.8,0.8l-0.8,1.8L147.9,673.5z"/>
	<path class="st5" d="M151.4,666.2c-1.2,0.5-2.5,0.4-3.9-0.3c-1.3-0.6-2.1-1.6-2.7-2.8c-0.4-1.3-0.4-2.5,0.2-3.8
		c0.5-1,1.1-1.7,1.9-2.2s1.8-0.7,2.8-0.7l-1,2.2c-1,0-1.7,0.5-2.1,1.4c-0.4,0.8-0.4,1.6-0.1,2.4c0.3,0.8,0.9,1.3,1.7,1.7
		c0.8,0.4,1.7,0.4,2.4,0.2c0.8-0.3,1.3-0.7,1.7-1.4s0.4-1.4,0.3-2s-0.5-1-1.1-1.5l-1.4,2.9l-1.4-0.6l2.3-4.9l1.4,0.6
		c0.9,0.6,1.5,1.5,1.9,2.6c0.3,1.2,0.2,2.3-0.3,3.5C153.6,664.9,152.7,665.8,151.4,666.2z"/>
</g>
<g class="st2">
	<rect x="792.5" y="247.2" class="st3" width="14.5" height="400.2"/>
	<path class="st4" d="M805.5,248.7v397.2H794V248.7H805.5 M808.5,245.7h-3H794h-3v3v397.2v3h3h11.5h3v-3V248.7V245.7L808.5,245.7z"
		/>
</g>
<g class="st2">
	<path class="st5" d="M795.1,673.4l-5.4-2.5l0.8-1.8l5.4,2.5c0.6,0.3,1.2,0.3,1.6,0.2c0.4-0.1,0.8-0.5,1.1-1.1
		c0.3-0.5,0.3-1.1,0.2-1.6c-0.1-0.4-0.6-0.8-1.1-1.1l-5.4-2.5l0.8-1.8l5.4,2.5c1.1,0.5,1.8,1.3,2,2.3c0.3,1,0.2,2-0.3,3
		c-0.5,1-1.1,1.7-2.1,2.1C797.2,673.9,796.2,673.9,795.1,673.4z"/>
	<path class="st5" d="M803.6,664.1l-0.8,1.8l-8.9-4.1l0.8-1.8l4,1.9l-2.5-5l1.1-2.4l2.7,5.9l6.2-1.7l-1.1,2.4l-5.4,1.4L803.6,664.1z
		"/>
</g>
<g class="st2">
	<rect x="116.5" y="247.2" class="st3" width="14.5" height="400.2"/>
	<path class="st4" d="M129.5,248.7v397.2H118V248.7H129.5 M132.5,245.7h-3H118h-3v3v397.2v3h3h11.5h3v-3V248.7V245.7L132.5,245.7z"
		/>
</g>
<g class="st2">
	<path class="st5" d="M122.2,664.7c0.5-0.2,1.1,0,1.7,0.2c0.7,0.3,1.2,0.9,1.5,1.6c0.2,0.8,0,1.6-0.4,2.5l-1.8,3.8l-9-4.2l1.8-3.8
		c0.4-0.9,0.9-1.5,1.6-1.8c0.6-0.3,1.3-0.3,2,0c0.5,0.3,0.9,0.6,1.1,1.1c0.2,0.4,0.2,0.9,0.2,1.5
		C121.3,665.1,121.8,664.8,122.2,664.7z M118.8,668.6l0.8-1.6c0.2-0.5,0.3-0.9,0.2-1.1c-0.1-0.4-0.3-0.6-0.6-0.7
		c-0.4-0.2-0.7-0.2-1.1-0.1c-0.3,0.2-0.5,0.4-0.8,1l-0.8,1.6L118.8,668.6C118.7,668.6,118.8,668.6,118.8,668.6z M123.5,667.3
		c-0.1-0.4-0.4-0.6-0.7-0.8c-0.4-0.2-0.8-0.2-1.1-0.1c-0.3,0.2-0.7,0.5-0.9,0.9l-0.8,1.7l2.4,1.1l0.8-1.7
		C123.6,668.2,123.6,667.7,123.5,667.3z"/>
	<path class="st5" d="M120.3,659.4l2.4,1.1l1.5-3.2l1.4,0.6l-1.5,3.2l2.4,1.1l1.6-3.5l1.5,0.7l-2.5,5.3l-9-4.2l2.5-5.3l1.5,0.7
		L120.3,659.4L120.3,659.4z"/>
</g>
<g>
	<g class="st2">
		<rect x="90.5" y="400" class="st3" width="14.5" height="247.4"/>
		<path class="st4" d="M103.5,401.5v244.4H92V401.5H103.5 M106.5,398.5h-3H92h-3v3v244.4v3h3h11.5h3v-3V401.5V398.5L106.5,398.5z"/>
	</g>
	<g class="st2">
		<path class="st5" d="M99.4,669.9l-1.9-0.2l-1.6,3.4l1.4,1.3l-0.9,1.9L89,669l1-2.1l10.3,1.1L99.4,669.9z M94.7,672l1.2-2.5
			l-4.3-0.5L94.7,672z"/>
		<path class="st5" d="M97.4,665.1l-5.4-2.5l0.8-1.8l5.4,2.5c0.6,0.3,1.2,0.3,1.6,0.2s0.8-0.5,1.1-1.1c0.3-0.6,0.3-1.1,0.2-1.6
			c-0.1-0.4-0.6-0.8-1.1-1.1l-5.4-2.5l0.8-1.8l5.4,2.5c1.1,0.5,1.8,1.3,2,2.3c0.3,1,0.2,2-0.3,3c-0.5,1-1.1,1.7-2.1,2.1
			C99.6,665.7,98.6,665.7,97.4,665.1z"/>
	</g>
</g>
<path id="SVGID_x5F_1_x5F_" class="st6" d="M-33.1,294.1h742.2"/>
<g class="st2">
	<path class="st5" d="M257.8,280.1v2.2h-5.2v3.7h4.6v2.2h-4.6v3.9h5.2v2.2h-8.1v-14h8.1V280.1z"/>
</g>
<g class="st2">
	<path class="st5" d="M260.2,288.7v-8.6h2.8v8.6c0,1,0.2,1.7,0.7,2.2s1.2,0.7,2.1,0.7s1.6-0.2,2.1-0.7s0.7-1.2,0.7-2.2v-8.6h2.8v8.6
		c0,1.8-0.6,3.1-1.7,4.1s-2.5,1.4-4,1.4c-1.6,0-2.9-0.5-4-1.4C260.7,291.9,260.2,290.5,260.2,288.7z"/>
</g>
<g class="st2">
	<path class="st5" d="M287.4,294.1l-0.9-2.6h-5.4l-0.9,2.6h-3l4.9-14h3.3l4.9,14H287.4z M281.8,289.3h4l-2-5.8L281.8,289.3z"/>
</g>
<g class="st2">
	<path class="st5" d="M296.2,294.1l-5.1-14h3l3.8,11.1l3.8-11.1h3l-5.1,14H296.2z"/>
</g>
<g class="st2">
	<path class="st5" d="M314.5,280.1v2.2h-5.2v3.7h4.6v2.2h-4.6v3.9h5.2v2.2h-8.1v-14h8.1V280.1z"/>
</g>
<g class="st2">
	<path class="st5" d="M319.8,288.5v5.6H317v-14h5.1c1.6,0,2.9,0.4,3.7,1.2c0.9,0.8,1.3,1.8,1.3,3c0,0.9-0.3,1.7-0.8,2.5
		s-1.4,1.3-2.5,1.6l3.6,5.7H324l-3.3-5.6L319.8,288.5L319.8,288.5z M319.8,282.3v4.1h2.3c0.7,0,1.2-0.2,1.6-0.5
		c0.4-0.4,0.6-0.9,0.6-1.5s-0.2-1.1-0.6-1.5s-0.9-0.5-1.6-0.5h-2.3V282.3z"/>
</g>
<g class="st2">
	<path class="st5" d="M338.4,294.1l-0.9-2.6h-5.4l-0.9,2.6h-3l4.9-14h3.3l4.9,14H338.4z M332.8,289.3h4l-2-5.8L332.8,289.3z"/>
</g>
<g class="st2">
	<path class="st5" d="M344.6,292.2c-1.4-1.3-2.1-3.1-2.1-5.1c0-2.1,0.7-3.8,2.1-5.1s3.1-2,5.1-2c1.5,0,2.9,0.4,4.1,1.2
		c1.2,0.8,2,1.9,2.5,3.3h-3.4c-0.6-1.2-1.7-1.8-3.2-1.8c-1.3,0-2.3,0.4-3.1,1.2c-0.8,0.8-1.2,1.9-1.2,3.3s0.4,2.5,1.2,3.3
		c0.8,0.8,1.8,1.2,2.9,1.2s2.1-0.3,2.7-0.8c0.7-0.6,1.1-1.3,1.2-2.3h-4.6v-2.1h7.7v2.1c-0.2,1.5-1,2.8-2.2,4
		c-1.3,1.1-2.8,1.7-4.7,1.7S346,293.5,344.6,292.2z"/>
</g>
<g class="st2">
	<path class="st5" d="M366.8,280.1v2.2h-5.2v3.7h4.6v2.2h-4.6v3.9h5.2v2.2h-8.1v-14h8.1V280.1z"/>
</g>
<g>
	<line class="st6" x1="69" y1="309.8" x2="834.3" y2="309.8"/>
	<g>
		<line class="st7" x1="69" y1="309.8" x2="79" y2="309.8"/>
		<line class="st8" x1="88.8" y1="309.8" x2="819.4" y2="309.8"/>
		<line class="st7" x1="824.3" y1="309.8" x2="834.3" y2="309.8"/>
	</g>
</g>
<line class="st9" x1="68.3" y1="645.7" x2="25.8" y2="645.7"/>
<g class="st2">
	<path class="st5" d="M25.9,636.7c0-3.4,1.3-5.1,3.8-5.1s3.8,1.7,3.8,5.1c0,3.4-1.3,5.1-3.8,5.1C27.1,641.8,25.9,640.1,25.9,636.7z
		 M30.5,633.6c-0.2-0.1-0.5-0.2-0.8-0.2s-0.6,0.1-0.8,0.2s-0.4,0.3-0.5,0.5s-0.2,0.4-0.3,0.7c-0.1,0.3-0.1,0.6-0.1,0.9
		c0,0.3,0,0.6,0,1s0,0.7,0,1s0.1,0.6,0.1,0.9c0.1,0.3,0.2,0.6,0.3,0.7c0.1,0.2,0.3,0.3,0.5,0.5c0.2,0.1,0.5,0.2,0.8,0.2
		s0.6-0.1,0.8-0.2c0.2-0.1,0.4-0.3,0.5-0.5s0.2-0.4,0.3-0.7c0.1-0.3,0.1-0.6,0.1-0.9s0-0.6,0-1s0-0.7,0-1s-0.1-0.6-0.1-0.9
		c-0.1-0.3-0.2-0.5-0.3-0.7S30.7,633.7,30.5,633.6z"/>
	<path class="st5" d="M35.3,635.7c-0.4-0.4-0.6-1-0.6-1.7s0.2-1.2,0.6-1.6c0.4-0.4,0.9-0.6,1.6-0.6c0.6,0,1.2,0.2,1.6,0.6
		c0.4,0.4,0.6,0.9,0.6,1.6s-0.2,1.3-0.6,1.7c-0.4,0.4-0.9,0.6-1.6,0.6S35.7,636.1,35.3,635.7z M35.8,641.8l5.5-9.8h1.9l-5.5,9.8
		H35.8z M37.7,634.1c0-0.7-0.3-1.1-0.8-1.1s-0.8,0.4-0.8,1.1c0,0.7,0.3,1.1,0.8,1.1C37.4,635.2,37.7,634.8,37.7,634.1z M42.2,641.9
		c-0.7,0-1.2-0.2-1.6-0.6c-0.4-0.4-0.6-0.9-0.6-1.7c0-0.7,0.2-1.3,0.6-1.7c0.4-0.4,0.9-0.6,1.6-0.6c0.6,0,1.2,0.2,1.6,0.6
		c0.4,0.4,0.6,0.9,0.6,1.7c0,0.7-0.2,1.3-0.6,1.7S42.8,641.9,42.2,641.9z M42.9,639.7c0-0.7-0.3-1.1-0.8-1.1s-0.8,0.4-0.8,1.1
		c0,0.7,0.3,1.1,0.8,1.1C42.7,640.8,42.9,640.4,42.9,639.7z"/>
</g>
<line class="st9" x1="68.3" y1="31.5" x2="25.7" y2="31.5"/>
<line class="st9" x1="68.3" y1="186" x2="25.7" y2="186"/>
<line class="st9" x1="68.3" y1="338.8" x2="25.8" y2="338.8"/>
<g class="st2">
	<path class="st5" d="M25.8,477.4h6.3v1.7h-4.5v2.3c0.2-0.2,0.5-0.4,0.8-0.5s0.8-0.2,1.3-0.2s1,0.1,1.4,0.3s0.8,0.5,1,0.8
		c0.5,0.7,0.7,1.4,0.7,2.2c0,1.1-0.3,1.9-0.9,2.6c-0.6,0.6-1.5,1-2.6,1s-2-0.3-2.6-0.8s-1-1.2-1.1-2h1.9c0.1,0.4,0.3,0.7,0.6,0.9
		c0.3,0.2,0.7,0.3,1.2,0.3s0.9-0.2,1.2-0.5c0.3-0.3,0.4-0.8,0.4-1.4s-0.1-1-0.4-1.3s-0.7-0.5-1.1-0.5c-0.9,0-1.4,0.4-1.7,1.1h-1.9
		V477.4z"/>
	<path class="st5" d="M34.7,481.6c-0.4-0.4-0.6-1-0.6-1.7s0.2-1.2,0.6-1.6c0.4-0.4,0.9-0.6,1.6-0.6c0.6,0,1.2,0.2,1.6,0.6
		c0.4,0.4,0.6,0.9,0.6,1.6s-0.2,1.3-0.6,1.7c-0.4,0.4-0.9,0.6-1.6,0.6S35.1,482,34.7,481.6z M35.2,487.7l5.5-9.8h1.9l-5.5,9.8H35.2z
		 M37.1,480c0-0.7-0.3-1.1-0.8-1.1s-0.8,0.4-0.8,1.1s0.3,1.1,0.8,1.1C36.8,481,37.1,480.7,37.1,480z M41.6,487.8
		c-0.7,0-1.2-0.2-1.6-0.6c-0.4-0.4-0.6-0.9-0.6-1.7c0-0.7,0.2-1.3,0.6-1.7c0.4-0.4,0.9-0.6,1.6-0.6c0.6,0,1.2,0.2,1.6,0.6
		c0.4,0.4,0.6,0.9,0.6,1.7c0,0.7-0.2,1.3-0.6,1.7S42.2,487.8,41.6,487.8z M42.3,485.6c0-0.7-0.3-1.1-0.8-1.1s-0.8,0.4-0.8,1.1
		s0.3,1.1,0.8,1.1C42.1,486.6,42.3,486.3,42.3,485.6z"/>
</g>
<g class="st2">
	<path class="st5" d="M27.7,334.9v-8.1h-1.5V325h3.5v9.9H27.7z"/>
	<path class="st5" d="M31.9,329.8c0-3.4,1.3-5.1,3.8-5.1s3.8,1.7,3.8,5.1s-1.3,5.1-3.8,5.1C33.1,334.9,31.9,333.2,31.9,329.8z
		 M36.5,326.7c-0.2-0.1-0.5-0.2-0.8-0.2s-0.6,0.1-0.8,0.2s-0.4,0.3-0.5,0.5s-0.2,0.4-0.3,0.7c-0.1,0.3-0.1,0.6-0.1,0.9s0,0.6,0,1
		s0,0.7,0,1s0.1,0.6,0.1,0.9c0.1,0.3,0.2,0.6,0.3,0.7c0.1,0.2,0.3,0.3,0.5,0.5c0.2,0.1,0.5,0.2,0.8,0.2s0.6-0.1,0.8-0.2
		s0.4-0.3,0.5-0.5s0.2-0.4,0.3-0.7c0.1-0.3,0.1-0.6,0.1-0.9s0-0.6,0-1s0-0.7,0-1s-0.1-0.6-0.1-0.9c-0.1-0.3-0.2-0.5-0.3-0.7
		S36.7,326.8,36.5,326.7z"/>
	<path class="st5" d="M41.3,328.8c-0.4-0.4-0.6-1-0.6-1.7s0.2-1.2,0.6-1.6c0.4-0.4,0.9-0.6,1.6-0.6c0.6,0,1.2,0.2,1.6,0.6
		c0.4,0.4,0.6,0.9,0.6,1.6s-0.2,1.3-0.6,1.7c-0.4,0.4-0.9,0.6-1.6,0.6S41.7,329.2,41.3,328.8z M41.8,334.9l5.5-9.8h1.9l-5.5,9.8
		H41.8z M43.7,327.2c0-0.7-0.3-1.1-0.8-1.1s-0.8,0.4-0.8,1.1s0.3,1.1,0.8,1.1C43.4,328.3,43.7,327.9,43.7,327.2z M48.1,335
		c-0.7,0-1.2-0.2-1.6-0.6c-0.4-0.4-0.6-0.9-0.6-1.7c0-0.7,0.2-1.3,0.6-1.7c0.4-0.4,0.9-0.6,1.6-0.6c0.6,0,1.2,0.2,1.6,0.6
		c0.4,0.4,0.6,0.9,0.6,1.7c0,0.7-0.2,1.3-0.6,1.7S48.8,335,48.1,335z M48.9,332.8c0-0.7-0.3-1.1-0.8-1.1s-0.8,0.4-0.8,1.1
		s0.3,1.1,0.8,1.1C48.7,333.9,48.9,333.5,48.9,332.8z"/>
</g>
<g class="st2">
	<path class="st5" d="M27.7,182.1V174h-1.5v-1.8h3.5v9.9L27.7,182.1L27.7,182.1z"/>
	<path class="st5" d="M32.4,171.9h6.3v1.7h-4.5v2.3c0.2-0.2,0.5-0.4,0.8-0.5s0.8-0.2,1.3-0.2s1,0.1,1.4,0.3s0.8,0.5,1,0.8
		c0.5,0.7,0.7,1.4,0.7,2.2c0,1.1-0.3,1.9-0.9,2.6c-0.6,0.6-1.5,1-2.6,1s-2-0.3-2.6-0.8s-1-1.2-1.1-2h1.9c0.1,0.4,0.3,0.7,0.6,0.9
		s0.7,0.3,1.2,0.3s0.9-0.2,1.2-0.5s0.4-0.8,0.4-1.4s-0.1-1-0.4-1.3s-0.7-0.5-1.1-0.5c-0.9,0-1.4,0.4-1.7,1.1h-1.9
		C32.4,177.9,32.4,171.9,32.4,171.9z"/>
	<path class="st5" d="M41.3,176.1c-0.4-0.4-0.6-1-0.6-1.7s0.2-1.2,0.6-1.6c0.4-0.4,0.9-0.6,1.6-0.6c0.6,0,1.2,0.2,1.6,0.6
		c0.4,0.4,0.6,0.9,0.6,1.6s-0.2,1.3-0.6,1.7c-0.4,0.4-0.9,0.6-1.6,0.6S41.7,176.5,41.3,176.1z M41.8,182.1l5.5-9.8h1.9l-5.5,9.8
		H41.8z M43.6,174.4c0-0.7-0.3-1.1-0.8-1.1s-0.8,0.4-0.8,1.1c0,0.7,0.3,1.1,0.8,1.1C43.4,175.5,43.6,175.1,43.6,174.4z M48.1,182.3
		c-0.7,0-1.2-0.2-1.6-0.6c-0.4-0.4-0.6-0.9-0.6-1.7c0-0.7,0.2-1.3,0.6-1.7c0.4-0.4,0.9-0.6,1.6-0.6c0.6,0,1.2,0.2,1.6,0.6
		c0.4,0.4,0.6,0.9,0.6,1.7c0,0.7-0.2,1.3-0.6,1.7S48.8,182.3,48.1,182.3z M48.9,180c0-0.7-0.3-1.1-0.8-1.1s-0.8,0.4-0.8,1.1
		c0,0.7,0.3,1.1,0.8,1.1C48.6,181.1,48.9,180.7,48.9,180z"/>
</g>
<g class="st2">
	<path class="st5" d="M26.4,27.4V26c0.2-0.2,0.6-0.5,1.1-1c0.5-0.4,0.9-0.8,1.1-1s0.6-0.5,0.9-0.9c0.4-0.4,0.6-0.7,0.8-0.9
		c0.5-0.7,0.7-1.2,0.7-1.7c0-1-0.5-1.5-1.4-1.5c-0.4,0-0.8,0.1-1,0.4s-0.4,0.7-0.4,1.2h-1.9c0-1.1,0.3-1.9,1-2.5
		c0.6-0.6,1.5-0.9,2.5-0.9s1.8,0.3,2.4,0.9c0.6,0.6,0.9,1.3,0.9,2.2c0,0.7-0.2,1.3-0.5,1.8c-0.2,0.3-0.3,0.6-0.5,0.8
		s-0.4,0.5-0.7,0.8c-0.3,0.3-0.5,0.5-0.7,0.7s-0.4,0.4-0.8,0.7c-0.3,0.3-0.6,0.5-0.7,0.6h4.1v1.6L26.4,27.4L26.4,27.4z"/>
	<path class="st5" d="M34.5,22.5c0-3.4,1.3-5.1,3.8-5.1s3.8,1.7,3.8,5.1s-1.3,5.1-3.8,5.1S34.5,25.9,34.5,22.5z M39.1,19.4
		c-0.2-0.1-0.5-0.2-0.8-0.2s-0.6,0.1-0.8,0.2s-0.4,0.3-0.5,0.5s-0.2,0.4-0.3,0.7c-0.1,0.3-0.1,0.6-0.1,0.9s0,0.6,0,1s0,0.7,0,1
		s0.1,0.6,0.1,0.9c0.1,0.3,0.2,0.6,0.3,0.7c0.1,0.2,0.3,0.3,0.5,0.5c0.2,0.1,0.5,0.2,0.8,0.2s0.6-0.1,0.8-0.2s0.4-0.3,0.5-0.5
		s0.2-0.4,0.3-0.7c0.1-0.3,0.1-0.6,0.1-0.9s0-0.6,0-1s0-0.7,0-1s-0.1-0.6-0.1-0.9c-0.1-0.3-0.2-0.5-0.3-0.7S39.4,19.5,39.1,19.4z"/>
	<path class="st5" d="M44,21.5c-0.4-0.4-0.6-1-0.6-1.7s0.2-1.2,0.6-1.6c0.4-0.4,0.9-0.6,1.6-0.6c0.6,0,1.2,0.2,1.6,0.6
		c0.4,0.4,0.6,0.9,0.6,1.6s-0.2,1.3-0.6,1.7c-0.4,0.4-0.9,0.6-1.6,0.6S44.4,21.9,44,21.5z M44.5,27.6l5.5-9.8h1.9l-5.5,9.8
		C46.4,27.6,44.5,27.6,44.5,27.6z M46.3,19.9c0-0.7-0.3-1.1-0.8-1.1s-0.8,0.4-0.8,1.1S45,21,45.5,21C46.1,21,46.3,20.6,46.3,19.9z
		 M50.8,27.7c-0.7,0-1.2-0.2-1.6-0.6c-0.4-0.4-0.6-0.9-0.6-1.7c0-0.7,0.2-1.3,0.6-1.7c0.4-0.4,0.9-0.6,1.6-0.6
		c0.6,0,1.2,0.2,1.6,0.6c0.4,0.4,0.6,0.9,0.6,1.7c0,0.7-0.2,1.3-0.6,1.7S51.5,27.7,50.8,27.7z M51.6,25.5c0-0.7-0.3-1.1-0.8-1.1
		S50,24.8,50,25.5s0.3,1.1,0.8,1.1C51.3,26.5,51.6,26.2,51.6,25.5z"/>
</g>
<line class="st9" x1="68.3" y1="491.6" x2="25.8" y2="491.6"/>
</svg>
