<?xml version="1.0" encoding="utf-8"?>
<!-- Generator: Adobe Illustrator 22.1.0, SVG Export Plug-In . SVG Version: 6.00 Build 0)  -->
<svg version="1.1" id="Livello_1" xmlns="http://www.w3.org/2000/svg" xmlns:xlink="http://www.w3.org/1999/xlink" x="0px" y="0px"
	 viewBox="0 0 936 682" style="enable-background:new 0 0 936 682;" xml:space="preserve">
<style type="text/css">
	.st0{fill:#9377F2;}
	.st1{opacity:0.6;fill:#9377F2;enable-background:new    ;}
	.st2{opacity:0.3;fill:#9377F2;enable-background:new    ;}
	.st3{fill:none;stroke:#999999;}
	.st4{fill:#999999;}
	.st5{fill:none;}
</style>
<g>
	<g>
		<rect x="2.1" y="191.8" class="st0" width="313" height="77.9"/>
		<rect x="310" y="191.8" class="st1" width="313" height="77.9"/>
		<rect x="623" y="191.8" class="st2" width="313" height="77.9"/>
	</g>
	<line class="st3" x1="2.1" y1="106.3" x2="936" y2="106.3"/>
	<g>
		<path class="st4" d="M140.3-0.6c10.1,0,16.3,6.3,16.3,16.3v2.5c0,10.1-6.3,16.3-16.3,16.3c-10.1,0-16.3-6.3-16.3-16.3v-2.5
			C124,5.7,130.3-0.6,140.3-0.6z M136.6,72.3l-8.8-6.3l20.1-22.6l6.3,5L136.6,72.3z M132.8,18.3c0,5,2.5,7.5,7.5,7.5
			c5,0,7.5-2.5,7.5-7.5v-2.5c0-5-2.5-7.5-7.5-7.5c-5,0-7.5,2.5-7.5,7.5V18.3z M175.5,38.4c10.1,0,16.3,6.3,16.3,16.3v2.5
			c0,10.1-6.3,16.3-16.3,16.3c-10.1,0-16.3-6.3-16.3-16.3v-2.5C159.2,44.7,165.5,38.4,175.5,38.4z M178-0.6l8.8,6.3l-20.1,22.6
			l-6.3-5L178-0.6z M168,57.3c0,5,2.5,7.5,7.5,7.5c5,0,7.5-2.5,7.5-7.5v-2.5c0-5-2.5-7.5-7.5-7.5c-5,0-7.5,2.5-7.5,7.5V57.3z"/>
		<path class="st4" d="M283.6,0.7V12h-32.7v18.9h30.2v11.3h-30.2v30.2h-11.3V2h44V0.7z"/>
		<path class="st4" d="M332.6,43.4l15.1,27.7h-12.6l-13.8-27.7h-12.6v27.7h-11.3V0.7h30.2c12.6,0,22.6,8.8,22.6,21.4
			C349,33.4,342.7,40.9,332.6,43.4z M308.8,33.4h17.6c7.5,0,11.3-3.8,11.3-10.1s-3.8-10.1-11.3-10.1h-17.6V33.4z"/>
		<path class="st4" d="M409.3,0.7V12h-33.9v18.9h31.4v10.1h-31.4v18.9h33.9v11.3h-46.5V0.7L409.3,0.7L409.3,0.7z"/>
		<path class="st4" d="M477.2,28.3v15.1c0,16.3-8.8,26.4-22.6,28.9v3.8c0,2.5,1.3,2.5,2.5,2.5h5v10.1h-11.3c-5,0-8.8-3.8-8.8-8.8
			v-7.5c-13.8-2.5-22.6-12.6-22.6-28.9V28.3c0-17.6,10.1-28.9,27.7-28.9C467.1-0.6,477.2,10.7,477.2,28.3z M465.9,28.3
			c0-11.3-6.3-17.6-16.3-17.6c-11.3,0-16.3,7.5-16.3,17.6v16.3c0,11.3,5,17.6,16.3,17.6c11.3,0,16.3-7.5,16.3-17.6V28.3z"/>
		<path class="st4" d="M503.6,0.7v46.5c0,10.1,5,15.1,15.1,15.1c10.1,0,15.1-5,15.1-15.1V0.7h11.3v46.5c0,16.3-10.1,25.1-26.4,25.1
			c-17.6,0-26.4-10.1-26.4-25.1V0.7H503.6z"/>
		<path class="st4" d="M609.2,0.7V12h-33.9v18.9h31.4v10.1h-31.4v18.9h33.9v11.3h-46.5V0.7L609.2,0.7L609.2,0.7z"/>
		<path class="st4" d="M644.4,0.7l18.9,59.1h1.3V0.7h11.3v70.4h-21.4L635.6,12h-1.3v59.1H623V0.7H644.4z"/>
		<path class="st4" d="M719.8-0.6c17.6,0,27.7,10.1,27.7,25.1v2.5h-11.3v-2.5c0-8.8-5-15.1-15.1-15.1c-10.1,0-16.3,7.5-16.3,17.6
			v16.3c0,11.3,6.3,17.6,16.3,17.6c11.3,0,15.1-6.3,15.1-15.1v-1.3h11.3v2.5c0,15.1-8.8,25.1-27.7,25.1c-17.6,0-28.9-10.1-28.9-28.9
			V27.1C690.9,9.5,702.2-0.6,719.8-0.6z"/>
		<path class="st4" d="M766.3,0.7l16.3,31.4h1.3l16.3-31.4h13.8l-25.1,45.3v25.1h-11.3V45.9L752.5,0.7H766.3z"/>
	</g>
	<g>
		<rect x="0.8" y="356.4" class="st5" width="314.2" height="145.8"/>
		<path class="st4" d="M125.2,429.3c-15.1,0-25.1-10.1-25.1-23.9v-25.1c0-15.1,11.3-25.1,26.4-25.1c15.1,0,23.9,8.8,23.9,22.6h-11.3
			c0-6.3-3.8-11.3-12.6-11.3s-13.8,5-13.8,13.8v8.8h1.3c2.5-2.5,6.3-7.5,16.3-7.5c12.6,0,22.6,10.1,22.6,23.9
			C150.4,419.3,139.1,429.3,125.2,429.3z M111.4,405.4c0,8.8,6.3,13.8,13.8,13.8c8.8,0,13.8-5,13.8-13.8c0-8.8-5-13.8-13.8-13.8
			C116.4,391.6,111.4,396.6,111.4,405.4z"/>
		<path class="st4" d="M183.1,387.8v-16.3h10.1v16.3h16.3v10.1h-16.3v16.3h-10.1v-16.3h-16.3v-10.1H183.1z"/>
	</g>
	<g>
		<rect x="311.3" y="356.4" class="st5" width="314.2" height="145.8"/>
		<path class="st4" d="M413.1,356.4c13.8,0,25.1,8.8,25.1,22.6c0,15.1-10.1,20.1-23.9,25.1c-10.1,2.5-15.1,5-15.1,12.6v1.3H437v10.1
			h-50.3V418c0-12.6,8.8-18.9,21.4-22.6c11.3-3.8,17.6-6.3,17.6-16.3c0-7.5-5-11.3-12.6-11.3c-8.8,0-15.1,5-15.1,13.8v2.5h-11.3
			v-2.5C386.7,365.2,398,356.4,413.1,356.4z"/>
		<path class="st4" d="M453.3,387.8h30.2v10.1h-30.2V387.8z"/>
		<path class="st4" d="M548.8,357.7V369h-35.2v20.1h1.3c2.5-3.8,6.3-7.5,16.3-7.5c11.3,0,21.4,8.8,21.4,22.6
			c0,15.1-10.1,26.4-26.4,26.4c-15.1,0-26.4-10.1-26.4-25.1v-1.3h11.3v1.3c0,8.8,5,15.1,15.1,15.1c8.8,0,13.8-6.3,13.8-15.1
			c0-8.8-5-12.6-12.6-12.6c-5,0-8.8,2.5-10.1,5h-16.3v-39h47.8V357.7z"/>
	</g>
	<g>
		<rect x="621.8" y="356.4" class="st5" width="314.2" height="145.8"/>
		<path class="st4" d="M794,357.7v70.4h-11.3V369h-1.3l-11.3,20.1h-12.6l18.9-31.4L794,357.7L794,357.7z"/>
	</g>
	<polyline class="st3" points="157.9,475.8 157.9,541.2 778.9,541.2 778.9,475.8 	"/>
	<line class="st3" x1="468.4" y1="475.8" x2="468.4" y2="541.2"/>
	<g>
		<path class="st4" d="M384.2,611.6v11.3h-22.6V682h-11.3v-59.1h-22.6v-11.3H384.2z"/>
		<path class="st4" d="M408.1,611.6V682h-11.3v-70.4H408.1z"/>
		<path class="st4" d="M445.8,611.6l16.3,57.8h1.3l16.3-57.8h20.1V682h-11.3v-59.1h-1.3l-16.3,57.8h-17.6L437,622.9h-1.3v57.8h-11.3
			v-70.4h21.4V611.6z"/>
		<path class="st4" d="M563.9,611.6v11.3H530v18.9h31.4v10.1H530v18.9h33.9V682h-46.5v-70.4L563.9,611.6L563.9,611.6z"/>
		<path class="st4" d="M628,631.7v2.5h-11.3v-2.5c0-8.8-6.3-12.6-13.8-12.6s-12.6,3.8-12.6,8.8c0,6.3,5,8.8,15.1,10.1h2.5
			c13.8,2.5,22.6,8.8,22.6,21.4c0,13.8-11.3,21.4-25.1,21.4c-17.6,0-27.7-10.1-27.7-25.1v-2.5h11.3v2.5c0,10.1,6.3,16.3,16.3,16.3
			c8.8,0,13.8-5,13.8-11.3c0-6.3-5-8.8-13.8-10.1h-2.5c-13.8-2.5-22.6-7.5-22.6-21.4c0-12.6,10.1-20.1,23.9-20.1
			C616.7,610.3,628,617.9,628,631.7z"/>
	</g>
</g>
<g>
</g>
<g>
</g>
<g>
</g>
<g>
</g>
<g>
</g>
<g>
</g>
<g>
</g>
<g>
</g>
<g>
</g>
<g>
</g>
<g>
</g>
<g>
</g>
<g>
</g>
<g>
</g>
<g>
</g>
</svg>
