<?xml version="1.0" encoding="utf-8"?>
<!-- Generator: Adobe Illustrator 22.1.0, SVG Export Plug-In . SVG Version: 6.00 Build 0)  -->
<svg version="1.1" id="Livello_1" xmlns="http://www.w3.org/2000/svg" xmlns:xlink="http://www.w3.org/1999/xlink" x="0px" y="0px"
	 viewBox="0 0 258.3 105.3" style="enable-background:new 0 0 258.3 105.3;" xml:space="preserve">
<style type="text/css">
	.st0{fill:#111111;}
	.st1{fill:#393939;}
	.st2{fill:none;stroke:#393939;stroke-width:2;stroke-miterlimit:10;}
	.st3{fill:#9D77FC;}
	.st4{fill:none;stroke:#989898;stroke-width:1.5;stroke-miterlimit:10;}
	.st5{fill:#989898;}
</style>
<title>legenda-perpetrator</title>
<rect x="-861.8" y="-485.7" class="st0" width="1920" height="1080"/>
<path class="st1" d="M126.7,95.4L126.7,95.4c1.7,0,3,1.3,3,3l0,0c0,1.7-1.3,3-3,3l0,0c-1.7,0-3-1.3-3-3l0,0
	C123.7,96.7,125.1,95.4,126.7,95.4z"/>
<path class="st2" d="M108.3,65.4c11.6-6.7,25.8-6.7,37.4,0"/>
<path class="st2" d="M96.9,44.6c18.7-10.8,41.8-10.8,60.5,0"/>
<path class="st2" d="M84.8,23.8c26.3-15.2,58.6-15.2,84.9,0"/>
<path class="st2" d="M77.3,12.4l41.1,71.6c5.2-3,11.5-3,16.7,0l41.1-71.6"/>
<path class="st3" d="M127.2,46.8c-4.7,0-8.6-3.9-8.6-8.6s3.9-8.6,8.6-8.6s8.6,3.9,8.6,8.6c0,2.4-1,4.6-2.7,6.2
	C131.5,46,129.4,46.8,127.2,46.8z"/>
<path class="st0" d="M127.2,30.7c4.2,0,7.6,3.4,7.6,7.5s-3.4,7.6-7.5,7.6c-4.2,0-7.6-3.4-7.6-7.5c0-2.1,0.9-4.1,2.4-5.5l0,0
	C123.4,31.4,125.2,30.7,127.2,30.7 M127.2,28.7L127.2,28.7c-5.3,0-9.5,4.3-9.5,9.6s4.3,9.5,9.6,9.5s9.5-4.3,9.5-9.6
	c0-2.4-0.9-4.8-2.6-6.5C132.4,29.8,129.8,28.7,127.2,28.7z"/>
<path class="st3" d="M127.2,17.3c-1.3,0-2.6-0.5-3.5-1.5c-1.8-1.9-1.7-5,0.2-6.8c0.9-0.8,2.1-1.3,3.3-1.3c2.7,0,4.8,2.2,4.8,4.8
	S129.8,17.3,127.2,17.3z"/>
<path class="st0" d="M127.2,8.6c1,0,2,0.4,2.8,1.2c1.4,1.5,1.4,3.9-0.2,5.4s-3.9,1.4-5.4-0.2c-1.4-1.5-1.4-3.9,0.2-5.4l0,0
	C125.3,9,126.2,8.7,127.2,8.6 M127.2,6.7L127.2,6.7c-3.1,0-5.7,2.5-5.8,5.6c0,1.5,0.5,3,1.6,4.2c1.1,1.2,2.6,1.8,4.2,1.8
	c3.2,0,5.8-2.6,5.8-5.8c0-1.5-0.6-2.9-1.6-4C130.3,7.3,128.8,6.7,127.2,6.7L127.2,6.7z"/>
<path class="st3" d="M127.2,66.3c-1.6,0-3.2-0.6-4.3-1.8c-2.2-2.4-2.1-6.1,0.2-8.3c2.4-2.2,6.1-2.1,8.3,0.2c2.2,2.4,2.1,6.1-0.2,8.3
	C130.1,65.8,128.7,66.3,127.2,66.3L127.2,66.3z"/>
<path class="st0" d="M127.2,55.5c2.7,0,4.9,2.2,4.9,4.9s-2.2,4.9-4.9,4.9c-2.7,0-4.9-2.2-4.9-4.9c0-1.3,0.6-2.6,1.5-3.5l0,0
	C124.7,56,125.9,55.5,127.2,55.5 M127.2,53.5L127.2,53.5c-3.8,0-6.9,3.1-6.9,6.9c0,1.7,0.7,3.4,1.9,4.7c1.3,1.4,3.1,2.2,5,2.2
	c3.8-0.1,6.8-3.3,6.6-7.1C133.7,56.5,130.8,53.6,127.2,53.5z"/>
<rect x="92.2" y="54.3" class="st0" width="29.9" height="12.2"/>
<line class="st4" x1="90.7" y1="60.4" x2="118.5" y2="60.4"/>
<g>
	<path class="st5" d="M196.4,12.4v0.4H195v-0.3c0-1-0.7-1.5-1.7-1.5c-0.9,0-1.5,0.5-1.5,1.1c0,0.8,0.6,1,1.7,1.2l0.3,0.1
		c1.6,0.4,2.6,1,2.6,2.5c0,1.6-1.3,2.6-3,2.6c-2.1,0-3.4-1.2-3.4-3.1v-0.3h1.4v0.2c0,1.2,0.7,1.9,2,1.9c1.1,0,1.6-0.6,1.6-1.3
		c0-0.8-0.6-1-1.7-1.3l-0.3-0.1c-1.7-0.4-2.7-0.9-2.7-2.5c0-1.5,1.3-2.4,2.9-2.4C195.1,9.7,196.4,10.7,196.4,12.4z"/>
	<path class="st5" d="M204.3,9.9v1.3h-2.6v7.1h-1.4v-7.1h-2.6V9.9H204.3z"/>
	<path class="st5" d="M210.1,14.9l1.8,3.4h-1.5l-1.7-3.3h-1.5v3.3h-1.4V9.9h3.6c1.6,0,2.6,1,2.6,2.6C212,13.8,211.2,14.7,210.1,14.9
		z M207.1,13.7h2.1c0.9,0,1.4-0.5,1.4-1.3c0-0.8-0.5-1.3-1.4-1.3h-2.1V13.7z"/>
	<path class="st5" d="M217.6,9.9l2.5,8.4h-1.5l-0.6-1.9h-3.2l-0.6,1.9h-1.5l2.5-8.4H217.6z M217.8,15.1l-1.2-4h-0.1l-1.2,4H217.8z"
		/>
	<path class="st5" d="M224,9.9l2.3,7.1h0.1V9.9h1.4v8.4h-2.5l-2.3-7.1h-0.1v7.1h-1.4V9.9H224z"/>
	<path class="st5" d="M229.6,13.2c0-2.1,1.3-3.4,3.4-3.4c2.1,0,3.2,1.2,3.2,3.1v0.1h-1.4v-0.1c0-1.1-0.6-1.8-1.8-1.8
		c-1.3,0-2,0.8-2,2.1v2c0,1.3,0.7,2.1,2,2.1c1.3,0,1.8-0.7,1.8-1.8v-0.1h-2.1v-1.2h3.5v1.3c0,1.9-1.1,3.1-3.2,3.1
		c-2.1,0-3.4-1.2-3.4-3.4V13.2z"/>
	<path class="st5" d="M243.4,9.9v1.3h-4.1v2.3h3.7v1.3h-3.7V17h4.1v1.3H238V9.9H243.4z"/>
	<path class="st5" d="M249.5,14.9l1.8,3.4h-1.5l-1.7-3.3h-1.5v3.3h-1.4V9.9h3.6c1.6,0,2.6,1,2.6,2.6
		C251.4,13.8,250.7,14.7,249.5,14.9z M246.6,13.7h2.1c0.9,0,1.4-0.5,1.4-1.3c0-0.8-0.5-1.3-1.4-1.3h-2.1V13.7z"/>
</g>
<g>
	<path class="st5" d="M193.7,77v8.4h-1.4V77H193.7z"/>
	<path class="st5" d="M198.3,77l2.3,7.1h0.1V77h1.4v8.4h-2.5l-2.3-7.1h-0.1v7.1h-1.4V77H198.3z"/>
	<path class="st5" d="M210.3,77v1.3h-2.6v7.1h-1.4v-7.1h-2.6V77H210.3z"/>
	<path class="st5" d="M213.2,77v8.4h-1.4V77H213.2z"/>
	<path class="st5" d="M217.7,77l1.9,6.9h0.1l1.9-6.9h2.5v8.4h-1.4v-6.9h-0.1l-1.9,6.9h-2.1l-1.9-6.9h-0.1v6.9h-1.4V77H217.7z"/>
	<path class="st5" d="M230.3,77l2.5,8.4h-1.5l-0.6-1.9h-3.2l-0.6,1.9h-1.5l2.5-8.4H230.3z M230.4,82.2l-1.2-4h-0.1l-1.2,4H230.4z"/>
	<path class="st5" d="M239.5,77v1.3h-2.6v7.1h-1.4v-7.1h-2.6V77H239.5z"/>
	<path class="st5" d="M246.5,77v1.3h-4.1v2.3h3.7v1.3h-3.7v2.3h4.1v1.3H241V77H246.5z"/>
</g>
<g>
	<g>
		<polygon class="st5" points="184.6,86.3 183.1,84.6 183.1,8.6 184.6,8.6 		"/>
	</g>
	<g>
		<polyline class="st5" points="183.9,85.4 177.8,78.8 178.9,77.8 183.9,83.2 		"/>
	</g>
</g>
<g>
	<path class="st5" d="M21.4,49.1l2.5,8.4h-1.5l-0.6-1.9h-3.2l-0.6,1.9h-1.5l2.5-8.4H21.4z M21.5,54.3l-1.2-4h-0.1l-1.2,4H21.5z"/>
	<path class="st5" d="M27.7,49.1l1.9,6.9h0.1l1.9-6.9h2.5v8.4h-1.4v-6.9h-0.1l-1.9,6.9h-2.1l-1.9-6.9h-0.1v6.9h-1.4v-8.4H27.7z"/>
	<path class="st5" d="M39.4,48.9c2.1,0,3.4,1.3,3.4,3.5v1.8c0,2.2-1.3,3.5-3.4,3.5c-2.1,0-3.4-1.3-3.4-3.5v-1.8
		C36,50.2,37.3,48.9,39.4,48.9z M37.4,54.2c0,1.3,0.6,2.1,2,2.1c1.4,0,2-0.8,2-2.1v-1.9c0-1.3-0.7-2.1-2-2.1c-1.3,0-2,0.8-2,2.1
		V54.2z"/>
	<path class="st5" d="M45.9,49.1v5.5c0,1.1,0.6,1.8,1.8,1.8c1.2,0,1.8-0.6,1.8-1.8v-5.5h1.4v5.5c0,1.9-1.2,3.1-3.2,3.1
		c-2,0-3.2-1.1-3.2-3.1v-5.5H45.9z"/>
	<path class="st5" d="M55.5,49.1l2.3,7.1h0.1v-7.1h1.4v8.4h-2.5l-2.3-7.1h-0.1v7.1H53v-8.4H55.5z"/>
	<path class="st5" d="M67.4,49.1v1.3h-2.6v7.1h-1.4v-7.1h-2.6v-1.3H67.4z"/>
	<path class="st5" d="M75.8,48.9c2.1,0,3.4,1.3,3.4,3.5v1.8c0,2.2-1.3,3.5-3.4,3.5c-2.1,0-3.4-1.3-3.4-3.5v-1.8
		C72.5,50.2,73.8,48.9,75.8,48.9z M73.9,54.2c0,1.3,0.6,2.1,2,2.1c1.4,0,2-0.8,2-2.1v-1.9c0-1.3-0.7-2.1-2-2.1c-1.3,0-2,0.8-2,2.1
		V54.2z"/>
	<path class="st5" d="M86.3,49.1v1.3h-3.9v2.2H86v1.3h-3.7v3.6H81v-8.4H86.3z"/>
	<path class="st5" d="M7.7,63.5c1.6,0,2.6,1,2.6,2.6c0,1.6-1.1,2.6-2.6,2.6h-2v3.2H4.3v-8.4H7.7z M5.7,67.4h1.8
		c0.9,0,1.4-0.5,1.4-1.3c0-0.8-0.5-1.3-1.4-1.3H5.7V67.4z"/>
	<path class="st5" d="M17.3,63.5v1.3h-4.1V67h3.7v1.3h-3.7v2.3h4.1v1.3h-5.5v-8.4H17.3z"/>
	<path class="st5" d="M23.4,68.5l1.8,3.4h-1.5L22,68.6h-1.5v3.3h-1.4v-8.4h3.6c1.6,0,2.6,1,2.6,2.6C25.3,67.3,24.5,68.2,23.4,68.5z
		 M20.5,67.3h2.1c0.9,0,1.4-0.5,1.4-1.3c0-0.8-0.5-1.3-1.4-1.3h-2.1V67.3z"/>
	<path class="st5" d="M30.4,63.5c1.6,0,2.6,1,2.6,2.6c0,1.6-1.1,2.6-2.6,2.6h-2v3.2H27v-8.4H30.4z M28.4,67.4h1.8
		c0.9,0,1.4-0.5,1.4-1.3c0-0.8-0.5-1.3-1.4-1.3h-1.8V67.4z"/>
	<path class="st5" d="M40,63.5v1.3h-4.1V67h3.7v1.3h-3.7v2.3H40v1.3h-5.5v-8.4H40z"/>
	<path class="st5" d="M47.8,63.5v1.3h-2.6v7.1h-1.4v-7.1h-2.6v-1.3H47.8z"/>
	<path class="st5" d="M53.6,68.5l1.8,3.4h-1.5l-1.7-3.3h-1.5v3.3h-1.4v-8.4h3.6c1.6,0,2.6,1,2.6,2.6C55.5,67.3,54.8,68.2,53.6,68.5z
		 M50.7,67.3h2.1c0.9,0,1.4-0.5,1.4-1.3c0-0.8-0.5-1.3-1.4-1.3h-2.1V67.3z"/>
	<path class="st5" d="M61.2,63.5l2.5,8.4h-1.5l-0.6-1.9h-3.2l-0.6,1.9h-1.5l2.5-8.4H61.2z M61.3,68.7l-1.2-4H60l-1.2,4H61.3z"/>
	<path class="st5" d="M70.4,63.5v1.3h-2.6v7.1h-1.4v-7.1h-2.6v-1.3H70.4z"/>
	<path class="st5" d="M74.8,63.3c2.1,0,3.4,1.3,3.4,3.5v1.8c0,2.2-1.3,3.5-3.4,3.5c-2.1,0-3.4-1.3-3.4-3.5v-1.8
		C71.4,64.6,72.7,63.3,74.8,63.3z M72.8,68.6c0,1.3,0.6,2.1,2,2.1c1.4,0,2-0.8,2-2.1v-1.9c0-1.3-0.7-2.1-2-2.1c-1.3,0-2,0.8-2,2.1
		V68.6z"/>
	<path class="st5" d="M84.2,68.5l1.8,3.4h-1.5l-1.7-3.3h-1.5v3.3h-1.4v-8.4h3.6c1.6,0,2.6,1,2.6,2.6C86.1,67.3,85.4,68.2,84.2,68.5z
		 M81.3,67.3h2.1c0.9,0,1.4-0.5,1.4-1.3c0-0.8-0.5-1.3-1.4-1.3h-2.1V67.3z"/>
</g>
</svg>
