<?xml version="1.0" encoding="utf-8"?>
<!-- Generator: Adobe Illustrator 22.1.0, SVG Export Plug-In . SVG Version: 6.00 Build 0)  -->
<svg version="1.1" id="Livello_1" xmlns="http://www.w3.org/2000/svg" xmlns:xlink="http://www.w3.org/1999/xlink" x="0px" y="0px"
	 viewBox="0 0 307 650" style="enable-background:new 0 0 307 650;" xml:space="preserve">
<style type="text/css">
	.st0{opacity:0.4;fill:#9D77FC;stroke:#111111;stroke-width:0.5;stroke-linecap:round;stroke-miterlimit:10;}
	.st1{opacity:0.55;fill:#9D77FC;stroke:#111111;stroke-width:0.5;stroke-linecap:round;stroke-miterlimit:10;}
	.st2{opacity:0.85;fill:#9D77FC;stroke:#111111;stroke-width:0.5;stroke-linecap:round;stroke-miterlimit:10;}
	.st3{fill:#9D77FC;stroke:#111111;stroke-width:0.5;stroke-linecap:round;stroke-miterlimit:10;}
	.st4{opacity:0.7;fill:#9D77FC;stroke:#111111;stroke-width:0.5;stroke-linecap:round;stroke-miterlimit:10;}
	.st5{fill:#999999;}
</style>
<g>
	<rect x="132.8" y="519.8" class="st0" width="71.5" height="129.9"/>
	<rect x="132.8" y="389.9" class="st1" width="71.5" height="129.9"/>
	<rect x="132.8" y="130.3" class="st2" width="71.5" height="129.9"/>
	<rect x="132.8" y="0.4" class="st3" width="71.5" height="129.9"/>
	<rect x="132.8" y="259.9" class="st4" width="71.5" height="129.9"/>
</g>
<g>
	<path class="st5" d="M18,434l2.7-3.7l9.4,8.1l-1.8,2.4L18,434z M18.1,449.6c0-4,2.5-6.6,6.5-6.6h0.8c4,0,6.5,2.5,6.5,6.6
		s-2.5,6.6-6.5,6.6h-0.8C20.5,456.2,18.1,453.7,18.1,449.6z M25.5,452.4c1.9,0,3.1-1,3.1-2.9c0-1.9-1.2-2.9-3.1-2.9h-1.1
		c-1.9,0-3.1,0.9-3.1,2.9c0,1.9,1.2,2.9,3.1,2.9H25.5z M34,435.2c0-4,2.5-6.6,6.5-6.6h0.8c4,0,6.5,2.5,6.5,6.6s-2.5,6.6-6.5,6.6
		h-0.8C36.4,441.8,34,439.3,34,435.2z M47.7,450.8l-2.7,3.6l-9.4-8.1l1.8-2.4L47.7,450.8z M41.4,438c1.9,0,3.1-0.9,3.1-2.9
		c0-1.9-1.2-2.9-3.1-2.9h-1.1c-1.9,0-3.1,1-3.1,2.9c0,1.9,1.2,2.9,3.1,2.9H41.4z"/>
	<path class="st5" d="M18,398.8c0-7.1,4.4-11.4,11.8-11.4H36c7.4,0,11.8,4.3,11.8,11.4c0,7.1-4.3,11.4-11.8,11.4h-6.2
		C22.4,410.2,18,405.9,18,398.8z M36.1,405.5c4.6,0,7.3-2.2,7.3-6.7c0-4.6-2.8-6.7-7.3-6.7h-6.5c-4.6,0-7.3,2.3-7.3,6.7
		c0,4.4,2.8,6.7,7.3,6.7H36.1z"/>
	<path class="st5" d="M18.6,363.3H23v13.3h7.6v-12.5h4.4v12.5h12.1v4.7H18.6V363.3z"/>
	<path class="st5" d="M27,324.6h1.3v4.7h-0.9c-3.5,0-5.1,2.3-5.1,5.8c0,3,1.6,5.1,3.8,5.1c2.7,0,3.4-2.1,4.2-5.9l0.2-1.1
		c1.2-5.6,3.4-8.9,8.5-8.9c5.5,0,8.8,4.4,8.8,10.4c0,7-3.9,11.4-10.4,11.4h-1.1v-4.7h0.8c4,0,6.5-2.3,6.5-6.8c0-3.6-2-5.6-4.4-5.6
		c-2.6,0-3.6,2-4.3,5.7l-0.2,1.1c-1.2,5.6-3.2,9.2-8.5,9.2c-5,0-8.1-4.3-8.1-9.8C18,329.1,21.2,324.6,27,324.6z"/>
	<path class="st5" d="M18.6,299.6H23v13.8h7.7v-12.7H35v12.7h7.8v-14h4.4v18.8H18.6V299.6z"/>
	<path class="st5" d="M18.6,290.1l10.6-6.3v-0.7l-10.6-6.2v-5.4l13.9,8.2h0.6l14.1-8.3v5.4l-10.9,6.3v0.7l10.9,6.3v5.4l-14.1-8.3
		h-0.6l-13.9,8.2V290.1z"/>
	<path class="st5" d="M18.6,261.7h18.8c3.8,0,6-2.2,6-6.2c0-4.1-2.2-6.2-6-6.2H18.6v-4.7h18.7c6.6,0,10.5,4,10.5,11
		c0,6.9-3.9,11-10.5,11H18.6V261.7z"/>
	<path class="st5" d="M18.6,224.2l28.6-8.4v4.9l-6.6,1.9v10.8l6.6,1.9v4.9l-28.6-8.5V224.2z M36.2,223.8l-13.6,4v0.5l13.6,3.9V223.8
		z"/>
	<path class="st5" d="M18.6,206.2h24.2v-13.6h4.4V211H18.6V206.2z"/>
	<path class="st5" d="M67.6,468.7h12.1v-11.6H67.6v-4.7h28.6v4.7H84.1v11.6h12.1v4.7H67.6V468.7z"/>
	<path class="st5" d="M67.6,431.6l28.6-8.4v4.9l-6.6,1.9v10.8l6.6,1.9v4.9l-28.6-8.5V431.6z M85.3,431.1l-13.6,4v0.5l13.6,3.9V431.1
		z"/>
	<path class="st5" d="M84.8,403.6l11.4-6.1v5.2l-11.2,5.7v5.2h11.2v4.7H67.6v-12.3c0-5.3,3.5-9,8.7-9
		C80.7,397.1,83.8,399.7,84.8,403.6z M80.7,413.6v-7c0-2.9-1.6-4.7-4.3-4.7c-2.7,0-4.3,1.8-4.3,4.7v7H80.7z"/>
	<path class="st5" d="M67.6,377.8l28.6-8.4v4.9l-6.6,1.9V387l6.6,1.9v4.9l-28.6-8.5V377.8z M85.3,377.4l-13.6,4v0.5l13.6,3.9V377.4z
		"/>
	<path class="st5" d="M76.1,344.5h1.3v4.7h-0.9c-3.5,0-5.1,2.3-5.1,5.8c0,3,1.6,5.1,3.8,5.1c2.7,0,3.4-2.1,4.2-5.9l0.2-1.1
		c1.2-5.6,3.4-8.9,8.5-8.9c5.5,0,8.8,4.4,8.8,10.4c0,7-3.9,11.4-10.4,11.4h-1.1v-4.7h0.8c4,0,6.5-2.3,6.5-6.8c0-3.6-2-5.6-4.4-5.6
		c-2.6,0-3.6,2-4.3,5.7l-0.2,1.1c-1.2,5.6-3.2,9.2-8.5,9.2c-5,0-8.1-4.3-8.1-9.8C67.1,349,70.3,344.5,76.1,344.5z"/>
	<path class="st5" d="M76.1,317.9h1.3v4.7h-0.9c-3.5,0-5.1,2.3-5.1,5.8c0,3,1.6,5.1,3.8,5.1c2.7,0,3.4-2.1,4.2-5.9l0.2-1.1
		c1.2-5.6,3.4-8.9,8.5-8.9c5.5,0,8.8,4.4,8.8,10.4c0,7-3.9,11.4-10.4,11.4h-1.1v-4.7h0.8c4,0,6.5-2.3,6.5-6.8c0-3.6-2-5.6-4.4-5.6
		c-2.6,0-3.6,2-4.3,5.7l-0.2,1.1c-1.2,5.6-3.2,9.2-8.5,9.2c-5,0-8.1-4.3-8.1-9.8C67.1,322.4,70.3,317.9,76.1,317.9z"/>
	<path class="st5" d="M67.6,303l23.7-6.6v-0.5l-23.7-6.6v-8.4h28.6v4.7H72.7v0.5l23.6,6.6v7l-23.6,6.6v0.5h23.6v4.7H67.6V303z"/>
	<path class="st5" d="M67.6,255.3H72v13.8h7.7v-12.7H84v12.7h7.8v-14h4.4v18.8H67.6V255.3z"/>
	<path class="st5" d="M67.6,240.7l24.2-7.7v-0.5H67.6v-4.7h28.6v8.6L72,244v0.5h24.2v4.7H67.6V240.7z"/>
	<path class="st5" d="M67.6,200H72v8.9h24.2v4.7H72v8.9h-4.4V200z"/>
	<path class="st5" d="M76.1,175.6h1.3v4.7h-0.9c-3.5,0-5.1,2.3-5.1,5.8c0,3,1.6,5.1,3.8,5.1c2.7,0,3.4-2.1,4.2-5.9l0.2-1.1
		c1.2-5.6,3.4-8.9,8.5-8.9c5.5,0,8.8,4.4,8.8,10.4c0,7-3.9,11.4-10.4,11.4h-1.1v-4.7h0.8c4,0,6.5-2.3,6.5-6.8c0-3.6-2-5.6-4.4-5.6
		c-2.6,0-3.6,2-4.3,5.7l-0.2,1.1c-1.2,5.6-3.2,9.2-8.5,9.2c-5,0-8.1-4.3-8.1-9.8C67.1,180.1,70.3,175.6,76.1,175.6z"/>
</g>
<g>
	<g>
		<path class="st5" d="M240.8,566.2c4.8,0,8.7,3.1,8.7,8.1c0,5.1-3.4,7.2-8.4,8.6c-3.5,1-5.3,1.8-5.3,4.4v0.4h13.4v3.8h-17.6v-3.7
			c0-4.6,3-6.7,7.6-8c3.8-1.2,6.2-2.4,6.2-5.6c0-2.7-1.9-4.2-4.6-4.2c-3,0-5.1,1.6-5.1,5v0.8h-4.1v-0.9
			C231.6,569.4,235.6,566.2,240.8,566.2z"/>
		<path class="st5" d="M261.6,566.2c5.6,0,9.4,3.7,9.4,10v5.7c0,6.4-3.7,10-9.4,10c-5.7,0-9.4-3.6-9.4-10v-5.7
			C252.2,570,255.9,566.2,261.6,566.2z M256.3,582.1c0,3.9,1.8,6.2,5.3,6.2c3.6,0,5.3-2.3,5.3-6.2v-5.9c0-3.9-1.9-6.2-5.3-6.2
			c-3.4,0-5.3,2.3-5.3,6.2V582.1z"/>
		<path class="st5" d="M279.6,566.3c3.5,0,5.7,2.1,5.7,5.6v0.7c0,3.5-2.1,5.6-5.7,5.6s-5.7-2.1-5.7-5.6v-0.7
			C273.9,568.4,276,566.3,279.6,566.3z M278.5,592l-3.1-2.4l7-8.1l2.1,1.6L278.5,592z M277.1,572.7c0,1.6,0.8,2.7,2.5,2.7
			c1.7,0,2.5-1.1,2.5-2.7v-1c0-1.7-0.8-2.7-2.5-2.7c-1.6,0-2.5,1-2.5,2.7V572.7z M292.1,580.1c3.5,0,5.7,2.1,5.7,5.6v0.7
			c0,3.5-2.1,5.6-5.7,5.6c-3.6,0-5.7-2.1-5.7-5.6v-0.7C286.4,582.2,288.5,580.1,292.1,580.1z M293.1,566.2l3.2,2.4l-7,8.1l-2.1-1.6
			L293.1,566.2z M289.6,586.5c0,1.6,0.8,2.7,2.5,2.7c1.6,0,2.5-1.1,2.5-2.7v-1c0-1.7-0.8-2.7-2.5-2.7c-1.7,0-2.5,1-2.5,2.7V586.5z"
			/>
	</g>
	<g>
		<path class="st5" d="M247.2,311.3v16.2h4.1v3.8h-4.1v4.8h-4.1v-4.8h-12.3v-3.6l9.8-16.3H247.2z M235.2,327.5h7.9v-12.8h-0.4
			L235.2,327.5z"/>
		<path class="st5" d="M262.5,310.8c5.6,0,9.4,3.7,9.4,10v5.7c0,6.4-3.7,10-9.4,10c-5.7,0-9.4-3.6-9.4-10v-5.7
			C253.1,314.6,256.8,310.8,262.5,310.8z M257.2,326.7c0,3.9,1.8,6.2,5.3,6.2c3.6,0,5.3-2.3,5.3-6.2v-5.9c0-3.9-1.9-6.2-5.3-6.2
			c-3.4,0-5.3,2.3-5.3,6.2V326.7z"/>
		<path class="st5" d="M280.5,310.9c3.5,0,5.7,2.1,5.7,5.6v0.7c0,3.5-2.1,5.6-5.7,5.6s-5.7-2.1-5.7-5.6v-0.7
			C274.8,313,276.9,310.9,280.5,310.9z M279.4,336.6l-3.1-2.4l7-8.1l2.1,1.6L279.4,336.6z M278.1,317.3c0,1.6,0.8,2.7,2.5,2.7
			c1.7,0,2.5-1.1,2.5-2.7v-1c0-1.7-0.8-2.7-2.5-2.7c-1.6,0-2.5,1-2.5,2.7V317.3z M293,324.7c3.5,0,5.7,2.1,5.7,5.6v0.7
			c0,3.5-2.1,5.6-5.7,5.6c-3.6,0-5.7-2.1-5.7-5.6v-0.7C287.3,326.8,289.4,324.7,293,324.7z M294,310.8l3.2,2.4l-7,8.1l-2.1-1.6
			L294,310.8z M290.5,331.1c0,1.6,0.8,2.7,2.5,2.7c1.6,0,2.5-1.1,2.5-2.7v-1c0-1.7-0.8-2.7-2.5-2.7c-1.7,0-2.5,1-2.5,2.7V331.1z"/>
	</g>
	<g>
		<path class="st5" d="M240.6,55.7c5.3,0,8.8,2.8,8.8,6.7c0,3.3-2.2,4.8-4.1,5.5v0.4c1.9,0.5,4.5,2.4,4.5,5.9c0,4.3-3.8,7.2-9.2,7.2
			s-9.2-2.9-9.2-7.2c0-3.5,2.5-5.4,4.5-5.9v-0.4c-1.9-0.7-4.1-2.3-4.1-5.5C231.8,58.5,235.3,55.7,240.6,55.7z M240.6,77.7
			c3.2,0,5.1-1.5,5.1-3.8c0-2.3-1.9-3.8-5.1-3.8c-3.1,0-5.1,1.5-5.1,3.8C235.5,76.2,237.4,77.7,240.6,77.7z M240.6,66.3
			c2.8,0,4.7-1.3,4.7-3.4c0-2.1-1.8-3.4-4.7-3.4s-4.7,1.3-4.7,3.4C235.9,65,237.8,66.3,240.6,66.3z"/>
		<path class="st5" d="M261.8,55.7c5.6,0,9.4,3.7,9.4,10v5.7c0,6.4-3.7,10-9.4,10c-5.7,0-9.4-3.6-9.4-10v-5.7
			C252.4,59.4,256.1,55.7,261.8,55.7z M256.5,71.5c0,3.9,1.8,6.2,5.3,6.2c3.6,0,5.3-2.3,5.3-6.2v-5.9c0-3.9-1.9-6.2-5.3-6.2
			c-3.4,0-5.3,2.3-5.3,6.2V71.5z"/>
		<path class="st5" d="M279.9,55.8c3.5,0,5.7,2.1,5.7,5.6v0.7c0,3.5-2.1,5.6-5.7,5.6s-5.7-2.1-5.7-5.6v-0.7
			C274.1,57.9,276.3,55.8,279.9,55.8z M278.8,81.5l-3.1-2.4l7-8.1l2.1,1.6L278.8,81.5z M277.4,62.2c0,1.6,0.8,2.7,2.5,2.7
			c1.7,0,2.5-1.1,2.5-2.7v-1c0-1.7-0.8-2.7-2.5-2.7c-1.6,0-2.5,1-2.5,2.7V62.2z M292.4,69.6c3.5,0,5.7,2.1,5.7,5.6v0.7
			c0,3.5-2.1,5.6-5.7,5.6c-3.6,0-5.7-2.1-5.7-5.6v-0.7C286.6,71.7,288.7,69.6,292.4,69.6z M293.3,55.7l3.2,2.4l-7,8.1l-2.1-1.6
			L293.3,55.7z M289.9,76c0,1.6,0.8,2.7,2.5,2.7c1.6,0,2.5-1.1,2.5-2.7v-1c0-1.7-0.8-2.7-2.5-2.7c-1.7,0-2.5,1-2.5,2.7V76z"/>
	</g>
</g>
<g>
</g>
<g>
</g>
<g>
</g>
<g>
</g>
<g>
</g>
<g>
</g>
<g>
</g>
<g>
</g>
<g>
</g>
<g>
</g>
<g>
</g>
<g>
</g>
<g>
</g>
<g>
</g>
<g>
</g>
</svg>
