<?xml version="1.0" encoding="utf-8"?>
<!-- Generator: Adobe Illustrator 22.1.0, SVG Export Plug-In . SVG Version: 6.00 Build 0)  -->
<svg version="1.1" xmlns="http://www.w3.org/2000/svg" xmlns:xlink="http://www.w3.org/1999/xlink" x="0px" y="0px"
	 viewBox="0 0 322.2 132.5" style="enable-background:new 0 0 322.2 132.5;" xml:space="preserve">
<style type="text/css">
	.st0{fill:#111111;}
	.st1{opacity:0.15;fill:#9D77FC;}
	.st2{opacity:0.3;fill:#9D77FC;}
	.st3{opacity:0.5;fill:#9D77FC;}
	.st4{opacity:0.75;fill:#9D77FC;}
	.st5{fill:#9D77FC;}
	.st6{fill:none;}
	.st7{fill:#999999;}
	.st8{font-family:'SpaceGrotesk-Bold';}
	.st9{font-size:14px;}
	.st10{fill:none;stroke:#999999;stroke-miterlimit:10;}
</style>
<g id="Livello_1">
	<rect class="st0" width="322.2" height="132.5"/>
</g>
<g id="PL">
</g>
<g id="SW">
</g>
<g id="SP">
</g>
<g id="DK">
</g>
<g id="UK">
</g>
<g id="IT">
</g>
<g id="legenda">
	<rect x="-3.8" y="58.2" class="st6" width="112.4" height="28.8"/>
	<text transform="matrix(1 0 0 1 27.1651 67.9898)"><tspan x="0" y="0" class="st7 st8 st9">AMOUNT OF </tspan><tspan x="-25.7" y="16.8" class="st7 st8 st9">PERPETRATORS</tspan></text>
	<polyline class="st10" points="234.9,18.3 234.9,122.7 229.9,113.9 	"/>
	<rect x="244.6" y="114.7" class="st6" width="81" height="11.5"/>
	<text transform="matrix(1 0 0 1 244.5775 124.4508)" class="st7 st8 st9">INTIMATE</text>
	<rect x="241.9" y="18.3" class="st6" width="80.3" height="28.8"/>
	<text transform="matrix(1 0 0 1 241.8577 28.0632)" class="st7 st8 st9">STRANGER</text>
	<path class="st1" d="M156.9,122.7l-4-7.9c5.6-2.8,12.1-2.8,17.7,0l-4,7.9C163.5,121.1,159.9,121.1,156.9,122.7z"/>
	<path class="st2" d="M151.2,111.5l-4.4-8.6c9.4-4.8,20.5-4.8,29.8,0l-4.4,8.6C165.6,108.2,157.8,108.2,151.2,111.5z"/>
	<path class="st3" d="M145.1,99.6l-6-11.8c14.2-7.2,31-7.2,45.2,0l-6,11.8C167.9,94.3,155.5,94.3,145.1,99.6z"/>
	<path class="st4" d="M137.4,84.6l-6.8-13.3c19.5-9.9,42.6-9.9,62.2,0L186,84.6C170.7,76.8,152.7,76.8,137.4,84.6z"/>
	<path class="st5" d="M129,67.9l-24.8-48.7c36.2-18.4,79-18.4,115.1,0l-24.8,48.7C173.9,57.4,149.5,57.4,129,67.9z"/>
	<line class="st10" x1="111" y1="70.8" x2="138.7" y2="70.8"/>
</g>
</svg>
