<?xml version="1.0" encoding="utf-8"?>
<!-- Generator: Adobe Illustrator 22.1.0, SVG Export Plug-In . SVG Version: 6.00 Build 0)  -->
<svg version="1.1" xmlns="http://www.w3.org/2000/svg" xmlns:xlink="http://www.w3.org/1999/xlink" x="0px" y="0px"
	 viewBox="0 0 1792 1137" style="enable-background:new 0 0 1792 1137;" xml:space="preserve">
<style type="text/css">
	.st0{fill:#111111;}
	.st1{fill:none;stroke:#999999;stroke-width:0.5;stroke-miterlimit:10;}
	.st2{fill:none;stroke:#FFFFFF;stroke-width:2;stroke-linecap:round;stroke-miterlimit:10;stroke-dasharray:0,10.0408;}
	.st3{opacity:0.25;}
	.st4{fill:#9D77FC;}
	.st5{fill:#4D4D4D;}
	.st6{fill:#FFFFFF;}
	.st7{fill:none;stroke:#FFFFFF;stroke-width:3;stroke-miterlimit:10;}
	.st8{fill:none;stroke:#FFFFFF;stroke-width:3;stroke-miterlimit:10;stroke-dasharray:9.5556,9.5556;}
</style>
<g id="Sfondo">
	<rect class="st0" width="1792" height="1137"/>
	<g>
		<line class="st1" x1="97" y1="508.2" x2="1706" y2="508.2"/>
		<line class="st1" x1="97" y1="801.2" x2="1706" y2="801.2"/>
	</g>
</g>
<g id="TW-Sample">
	<g>
		
			<ellipse transform="matrix(0.7071 -0.7071 0.7071 0.7071 -613.1618 418.8369)" class="st2" cx="199" cy="949.6" rx="102.3" ry="102.3"/>
	</g>
</g>
<g id="TW-Percentage_active_users">
	<g class="st3">
		<circle class="st4" cx="199" cy="949.6" r="46.9"/>
	</g>
</g>
<g id="TW-Number_of_harassments">
	<circle class="st4" cx="199" cy="949.6" r="9.7"/>
</g>
<g id="FB-Sample">
	<g>
		
			<ellipse transform="matrix(0.7071 -0.7071 0.7071 0.7071 -404.6924 332.4861)" class="st2" cx="199" cy="654.8" rx="102.3" ry="102.3"/>
	</g>
</g>
<g id="FB-Percentage_active_users">
	<g class="st3">
		<circle class="st4" cx="199" cy="654.7" r="64.6"/>
	</g>
</g>
<g id="FB-Number_of_harassments">
	<circle class="st4" cx="199" cy="654.7" r="27.5"/>
</g>
<g id="IG-Sample">
	<g>
		
			<ellipse transform="matrix(0.7071 -0.7071 0.7071 0.7071 -196.2229 246.1352)" class="st2" cx="199" cy="359.9" rx="102.3" ry="102.3"/>
	</g>
</g>
<g id="IG-Percentage_active_users">
	<g class="st3">
		<circle class="st4" cx="199" cy="359.9" r="46.9"/>
	</g>
</g>
<g id="IG-Number_of_harassments">
	<circle class="st4" cx="199" cy="359.9" r="9.7"/>
</g>
<g id="Very_atequate-TW">
	<g class="st3">
		<circle class="st4" cx="461.3" cy="949.6" r="17.6"/>
	</g>
</g>
<g id="Very_atequate-FB">
	<g class="st3">
		<circle class="st4" cx="460.9" cy="654.7" r="83.6"/>
	</g>
</g>
<g id="Very_atequate-IG">
	<g class="st3">
		<circle class="st4" cx="461.4" cy="359.9" r="59.7"/>
	</g>
</g>
<g id="Fairly_atequate-TW">
	<g class="st3">
		<circle class="st4" cx="693" cy="949.6" r="22.7"/>
	</g>
</g>
<g id="Fairly_atequate-FB">
	<g class="st3">
		<circle class="st4" cx="693.5" cy="654.7" r="33.1"/>
	</g>
</g>
<g id="Fairly_atequate-IG">
	<g class="st3">
		<circle class="st4" cx="693.5" cy="359.9" r="24.6"/>
	</g>
</g>
<g id="Neither_atequate_or_inatequate-TW">
	<g class="st3">
		<circle class="st4" cx="922.2" cy="949.6" r="29.3"/>
	</g>
</g>
<g id="Neither_atequate_or_inatequate-FB">
	<g class="st3">
		<circle class="st4" cx="922.4" cy="654.7" r="34.8"/>
	</g>
</g>
<g id="Neither_atequate_or_inatequate-IG">
	<g class="st3">
		<circle class="st4" cx="925.5" cy="359.9" r="29.9"/>
	</g>
</g>
<g id="Fairly_inatequate-TW">
	<g class="st3">
		<circle class="st4" cx="1157.8" cy="949.6" r="25.1"/>
	</g>
</g>
<g id="Fairly_inatequate-FB">
	<g class="st3">
		<circle class="st4" cx="1158" cy="654.7" r="34.1"/>
	</g>
</g>
<g id="Fairly_inatequate-IG">
	<g class="st3">
		<circle class="st4" cx="1157.6" cy="359.9" r="23.9"/>
	</g>
</g>
<g id="Very_inatequate-TW">
	<g class="st3">
		<circle class="st4" cx="1389.6" cy="949.6" r="30.4"/>
	</g>
</g>
<g id="Very_inatequate-FB">
	<g class="st3">
		<circle class="st4" cx="1389.6" cy="654.7" r="38.8"/>
	</g>
</g>
<g id="Very_inatequate-IG">
	<g class="st3">
		<circle class="st4" cx="1389.6" cy="359.9" r="30.1"/>
	</g>
</g>
<g id="Don_x27_t_know-TW">
	<g class="st3">
		<circle class="st5" cx="1622" cy="949.6" r="65.9"/>
	</g>
</g>
<g id="Don_x27_t_know-FB">
	<g class="st3">
		<circle class="st5" cx="1622.1" cy="654.7" r="43.8"/>
	</g>
</g>
<g id="Don_x27_t_know-IG">
	<g class="st3">
		<circle class="st5" cx="1620.6" cy="359.9" r="65.3"/>
	</g>
</g>
<g id="Text">
	<g>
		<g>
			<path class="st6" d="M58.9,410.7h-9.7v-1.6h9.7V410.7z"/>
			<path class="st6" d="M49.1,399.2v-1.6h9.7v1.6l-7.3,4.8h7.3v1.6h-9.7V404l7.3-4.8H49.1z"/>
			<path class="st6" d="M50.3,391c0,0.5,0.1,0.9,0.4,1.2c0.2,0.3,0.6,0.4,1.1,0.4s0.8-0.2,1.1-0.5c0.2-0.4,0.4-0.8,0.5-1.3
				c0.1-0.5,0.2-1,0.4-1.5s0.4-0.9,0.8-1.3c0.4-0.4,0.9-0.5,1.7-0.5c0.7,0,1.4,0.3,1.9,0.9s0.9,1.4,0.9,2.4s-0.2,1.8-0.7,2.5
				c-0.5,0.6-1.1,1-2,1v-1.7c0.4,0,0.8-0.2,1-0.5c0.3-0.3,0.4-0.7,0.4-1.2s-0.1-1-0.4-1.3c-0.3-0.3-0.6-0.5-1-0.5s-0.7,0.1-0.9,0.3
				s-0.4,0.4-0.5,0.7c-0.1,0.3-0.2,0.6-0.3,1c-0.1,0.4-0.2,0.7-0.3,1.1c-0.1,0.4-0.3,0.7-0.4,1c-0.2,0.3-0.4,0.6-0.8,0.7
				c-0.3,0.2-0.8,0.3-1.3,0.3c-0.8,0-1.5-0.3-2.1-0.9c-0.5-0.6-0.8-1.4-0.8-2.4c0-1,0.2-1.8,0.7-2.3c0.4-0.6,1.1-0.9,1.9-1v1.8
				c-0.4,0-0.7,0.2-0.9,0.5S50.3,390.6,50.3,391z"/>
			<path class="st6" d="M50.4,384.7h-1.2v-6.8h1.2v2.6h8.5v1.6h-8.5V384.7z"/>
			<path class="st6" d="M58.9,368.4l-2,0.7v4.1l2,0.7v1.7l-9.7-3.5v-1.8l9.7-3.5V368.4z M55.6,372.7v-3.2l-4.6,1.6L55.6,372.7z"/>
			<path class="st6" d="M59,359.4c0,1.3-0.5,2.5-1.4,3.4c-0.9,1-2.1,1.4-3.6,1.4s-2.6-0.5-3.6-1.4c-0.9-1-1.4-2.1-1.4-3.5
				c0-1,0.3-2,0.8-2.8s1.2-1.4,2.2-1.8v1.9c-1,0.5-1.5,1.4-1.5,2.6c0,1,0.3,1.8,1,2.4c0.6,0.6,1.5,0.9,2.6,0.9s1.9-0.3,2.6-0.9
				c0.6-0.6,1-1.4,1-2.3c0-0.9-0.2-1.7-0.7-2.2c-0.5-0.5-1.2-0.9-2-1v3.7h-1.2v-5.4h1.2c1.2,0.1,2.2,0.7,3,1.6
				C58.6,357,59,358.1,59,359.4z"/>
			<path class="st6" d="M54.9,349.9h3.9v1.6h-9.7v-3.4c0-1.1,0.3-2,0.8-2.5c0.5-0.6,1.2-0.9,2.1-0.9c0.7,0,1.2,0.2,1.8,0.6
				c0.5,0.4,0.9,1,1,1.8l4-2.6v1.9l-3.9,2.4V349.9z M50.4,349.9h3.3v-1.8c0-0.6-0.1-1.1-0.4-1.4c-0.3-0.3-0.7-0.4-1.2-0.4
				c-0.5,0-0.9,0.2-1.2,0.4c-0.3,0.3-0.4,0.8-0.4,1.4V349.9z"/>
			<path class="st6" d="M58.9,334.7l-2,0.7v4.1l2,0.7v1.7l-9.7-3.5v-1.8l9.7-3.5V334.7z M55.6,339.1v-3.2l-4.6,1.6L55.6,339.1z"/>
			<path class="st6" d="M49.1,319.9h9.7v1.6h-6.7l6.7,3v1.1l-6.7,3h6.7v1.6h-9.7v-1.7l7.6-3.4l-7.6-3.4V319.9z"/>
		</g>
	</g>
	<g>
		<g>
			<path class="st6" d="M58.9,696.7h-9.7V691h1.2v4.1h3v-3.2h1.2v3.2h4.3V696.7z"/>
			<path class="st6" d="M58.9,681.5l-2,0.7v4.1l2,0.7v1.7l-9.7-3.5v-1.8l9.7-3.5V681.5z M55.6,685.8v-3.2l-4.6,1.6L55.6,685.8z"/>
			<path class="st6" d="M57.6,676c-0.9,1-2.1,1.4-3.6,1.4s-2.6-0.5-3.6-1.4c-0.9-1-1.4-2.1-1.4-3.5c0-1,0.3-2,0.8-2.8
				s1.2-1.4,2.2-1.8v1.9c-1,0.5-1.5,1.4-1.5,2.6c0,1,0.3,1.8,1,2.4c0.6,0.6,1.5,0.9,2.6,0.9s1.9-0.3,2.6-0.9c0.6-0.6,1-1.4,1-2.4
				c0-1.2-0.5-2.1-1.5-2.6V668c0.9,0.4,1.7,0.9,2.2,1.8s0.8,1.7,0.8,2.8C59,673.9,58.5,675,57.6,676z"/>
			<path class="st6" d="M49.1,659.3h1.2v3.8h3v-3.4h1.2v3.4h3.1v-3.8h1.2v5.4h-9.7V659.3z"/>
			<path class="st6" d="M49.1,656v-3.7c0-1,0.2-1.8,0.7-2.3s1.1-0.8,1.8-0.8c1.1,0,1.8,0.6,2.2,1.9c0.1-0.6,0.4-1.1,0.8-1.5
				s1-0.6,1.6-0.6c0.7,0,1.4,0.3,1.8,0.9s0.7,1.4,0.7,2.3v3.9H49.1z M50.4,654.4h2.9v-2c0-0.5-0.1-0.9-0.4-1.2
				c-0.3-0.3-0.6-0.4-1.1-0.4c-0.5,0-0.8,0.1-1.1,0.4c-0.3,0.3-0.4,0.7-0.4,1.2V654.4z M57.6,654.4v-2.2c0-0.5-0.1-1-0.4-1.3
				c-0.3-0.3-0.6-0.5-1.1-0.5c-0.5,0-0.9,0.2-1.1,0.5c-0.3,0.3-0.4,0.8-0.4,1.3v2.1H57.6z"/>
			<path class="st6" d="M59,641.3c0,1.4-0.5,2.6-1.4,3.5c-0.9,1-2.1,1.4-3.6,1.4s-2.6-0.5-3.6-1.4c-0.9-1-1.4-2.1-1.4-3.5
				c0-1.4,0.5-2.6,1.4-3.5c0.9-1,2.1-1.4,3.6-1.4s2.6,0.5,3.6,1.4C58.5,638.7,59,639.9,59,641.3z M57.5,641.3c0-1-0.3-1.8-1-2.4
				c-0.6-0.6-1.5-0.9-2.6-0.9s-1.9,0.3-2.6,0.9c-0.6,0.6-1,1.4-1,2.4s0.3,1.8,1,2.4c0.6,0.6,1.5,0.9,2.6,0.9s1.9-0.3,2.6-0.9
				C57.2,643.1,57.5,642.3,57.5,641.3z"/>
			<path class="st6" d="M59,628.9c0,1.4-0.5,2.6-1.4,3.5c-0.9,1-2.1,1.4-3.6,1.4s-2.6-0.5-3.6-1.4c-0.9-1-1.4-2.1-1.4-3.5
				c0-1.4,0.5-2.6,1.4-3.5c0.9-1,2.1-1.4,3.6-1.4s2.6,0.5,3.6,1.4C58.5,626.3,59,627.5,59,628.9z M57.5,628.9c0-1-0.3-1.8-1-2.4
				c-0.6-0.6-1.5-0.9-2.6-0.9s-1.9,0.3-2.6,0.9c-0.6,0.6-1,1.4-1,2.4s0.3,1.8,1,2.4c0.6,0.6,1.5,0.9,2.6,0.9s1.9-0.3,2.6-0.9
				C57.2,630.7,57.5,629.9,57.5,628.9z"/>
			<path class="st6" d="M58.9,619.4v1.6h-9.7v-1.6h4.4l-4.4-3.8v-2.1l4.9,4.4l4.8-4.4v2.1l-4.4,3.8H58.9z"/>
		</g>
	</g>
	<g>
		<g>
			<path class="st6" d="M50.2,981.7h-1v-6.4h1v2.6h8.7v1.3h-8.7V981.7z"/>
			<path class="st6" d="M49.2,961.3v-1.3l9.7,2.9v1.4l-7.8,2.2l7.8,2.3l0,1.4l-9.7,2.7v-1.3l8.2-2.2l-8.2-2.4v-1.4l8.2-2.2
				L49.2,961.3z"/>
			<path class="st6" d="M58.9,957.1h-9.7v-1.3h9.7V957.1z"/>
			<path class="st6" d="M50.2,952.8h-1v-6.4h1v2.6h8.7v1.3h-8.7V952.8z"/>
			<path class="st6" d="M50.2,943.7h-1v-6.4h1v2.6h8.7v1.3h-8.7V943.7z"/>
			<path class="st6" d="M49.2,929.1h1v3.9h3.3v-3.4h1v3.4h3.4v-3.9h1v5.1h-9.7V929.1z"/>
			<path class="st6" d="M54.9,924.5h4v1.3h-9.7v-3.2c0-1.1,0.3-1.9,0.8-2.5c0.5-0.6,1.2-0.9,2-0.9c0.8,0,1.4,0.2,1.9,0.6
				c0.5,0.4,0.8,1.1,1,1.9l4.1-2.7v1.6l-4,2.5V924.5z M50.2,924.5h3.7v-1.9c0-0.7-0.2-1.2-0.5-1.6c-0.3-0.3-0.8-0.5-1.4-0.5
				c-1.2,0-1.8,0.7-1.8,2.1V924.5z"/>
		</g>
	</g>
	<g>
		<path class="st6" d="M445.4,222l-3.7-9.7h1.7l2.9,8.1l2.9-8.1h1.7l-3.7,9.7H445.4z"/>
		<path class="st6" d="M459,212.3v1.2h-3.8v3h3.4v1.2h-3.4v3.1h3.8v1.2h-5.4v-9.7H459z"/>
		<path class="st6" d="M463.9,218.1v3.9h-1.6v-9.7h3.4c1.1,0,2,0.3,2.5,0.8c0.6,0.5,0.9,1.2,0.9,2.1c0,0.7-0.2,1.2-0.6,1.8
			c-0.4,0.5-1,0.9-1.8,1l2.6,4h-1.9l-2.4-3.9H463.9z M463.9,213.6v3.3h1.8c0.6,0,1.1-0.1,1.4-0.4c0.3-0.3,0.4-0.7,0.4-1.2
			c0-0.5-0.1-0.9-0.4-1.2c-0.3-0.3-0.8-0.4-1.4-0.4H463.9z"/>
		<path class="st6" d="M476.6,222H475v-3.5l-3.2-6.2h1.8l2.2,4.7l2.2-4.7h1.8l-3.2,6.2V222z"/>
		<path class="st6" d="M427.1,238.8l-0.7-2h-4.1l-0.7,2H420l3.5-9.7h1.8l3.5,9.7H427.1z M422.8,235.6h3.2l-1.6-4.6L422.8,235.6z"/>
		<path class="st6" d="M434.9,229.1c1.6,0,2.8,0.4,3.8,1.3s1.4,2.1,1.4,3.6s-0.5,2.7-1.4,3.5s-2.2,1.3-3.8,1.3h-3.2v-9.7H434.9z
			 M433.3,237.6h1.6c1.1,0,2-0.3,2.6-1c0.6-0.6,0.9-1.5,0.9-2.7s-0.3-2-0.9-2.6c-0.6-0.6-1.5-1-2.6-1h-1.6V237.6z"/>
		<path class="st6" d="M448.4,229.1v1.2h-3.8v3h3.4v1.2h-3.4v3.1h3.8v1.2H443v-9.7H448.4z"/>
		<path class="st6" d="M456.2,238.9c-1.4,0-2.6-0.5-3.5-1.4c-1-0.9-1.4-2.1-1.4-3.6s0.5-2.6,1.4-3.6c1-0.9,2.1-1.4,3.5-1.4
			c1.4,0,2.6,0.5,3.5,1.4c1,0.9,1.4,2.1,1.4,3.6c0,0.9-0.2,1.7-0.6,2.4s-0.9,1.3-1.6,1.7l2.3,2.5h-2l-1.7-1.8
			C457.2,238.9,456.7,238.9,456.2,238.9z M456.2,230.4c-1,0-1.8,0.3-2.4,1c-0.6,0.6-0.9,1.5-0.9,2.6s0.3,1.9,0.9,2.6
			c0.6,0.6,1.4,1,2.4,1s1.8-0.3,2.4-1c0.6-0.6,0.9-1.5,0.9-2.6s-0.3-1.9-0.9-2.6C458,230.8,457.2,230.4,456.2,230.4z"/>
		<path class="st6" d="M464.2,235.3v-6.2h1.6v6.2c0,0.7,0.2,1.3,0.6,1.7c0.4,0.4,0.9,0.6,1.6,0.6s1.2-0.2,1.6-0.6
			c0.4-0.4,0.6-0.9,0.6-1.7v-6.2h1.6v6.2c0,1.2-0.4,2.1-1.1,2.7c-0.7,0.6-1.6,0.9-2.7,0.9c-1.1,0-2-0.3-2.7-0.9
			S464.2,236.5,464.2,235.3z"/>
		<path class="st6" d="M481.8,238.8l-0.7-2H477l-0.7,2h-1.7l3.5-9.7h1.8l3.5,9.7H481.8z M477.5,235.6h3.2l-1.6-4.6L477.5,235.6z"/>
		<path class="st6" d="M485.9,230.4v-1.2h6.8v1.2h-2.6v8.5h-1.6v-8.5H485.9z"/>
		<path class="st6" d="M501.1,229.1v1.2h-3.8v3h3.4v1.2h-3.4v3.1h3.8v1.2h-5.4v-9.7H501.1z"/>
	</g>
	<g>
		<path class="st6" d="M144.5,84.2c1,0.9,1.5,2.1,1.5,3.5c0,1.4-0.5,2.6-1.5,3.6c-1,1-2.5,1.5-4.5,1.5h-3v6.8h-2.7V82.8h5.8
			C142,82.8,143.4,83.2,144.5,84.2z M137.1,90.5h3c1,0,1.8-0.2,2.3-0.7c0.5-0.5,0.8-1.2,0.8-2.1c0-0.9-0.3-1.6-0.8-2.1
			c-0.5-0.5-1.3-0.7-2.3-0.7h-3V90.5z"/>
		<path class="st6" d="M151,82.8h2.7v14.6h5.6v2.1H151V82.8z"/>
		<path class="st6" d="M175.3,99.4l-1.2-3.4h-7l-1.2,3.4h-2.9l6-16.7h3.2l6,16.7H175.3z M167.9,93.9h5.5l-2.7-7.8L167.9,93.9z"/>
		<path class="st6" d="M182.3,84.9v-2.1H194v2.1h-4.4v14.5h-2.7V84.9H182.3z"/>
		<path class="st6" d="M199.1,99.4V82.8h9.8v2.1h-7.1V90h5.5v2.1h-5.5v7.4H199.1z"/>
		<path class="st6" d="M221.5,99.6c-2.4,0-4.4-0.8-6.1-2.4c-1.6-1.6-2.5-3.6-2.5-6.1c0-2.5,0.8-4.5,2.5-6.1c1.6-1.6,3.7-2.4,6.1-2.4
			c2.4,0,4.4,0.8,6,2.4c1.6,1.6,2.5,3.6,2.5,6.1c0,2.5-0.8,4.5-2.5,6.1C225.9,98.8,223.9,99.6,221.5,99.6z M221.5,97.1
			c1.7,0,3.1-0.6,4.1-1.7s1.6-2.6,1.6-4.4c0-1.8-0.5-3.3-1.6-4.4c-1.1-1.1-2.4-1.7-4.1-1.7c-1.7,0-3.1,0.6-4.1,1.7
			c-1.1,1.1-1.6,2.6-1.6,4.4c0,1.8,0.5,3.3,1.6,4.4C218.5,96.6,219.8,97.1,221.5,97.1z"/>
		<path class="st6" d="M237.9,92.7v6.8h-2.7V82.8h5.8c1.9,0,3.3,0.5,4.4,1.4c1,0.9,1.5,2.1,1.5,3.6c0,1.1-0.3,2.1-1,3
			c-0.7,0.9-1.7,1.5-3.1,1.8l4.4,6.9h-3.3l-4.2-6.8H237.9z M237.9,84.9v5.6h3c1,0,1.8-0.2,2.3-0.7c0.5-0.5,0.8-1.2,0.8-2.1
			c0-0.9-0.3-1.6-0.8-2.1c-0.5-0.5-1.3-0.7-2.3-0.7H237.9z"/>
		<path class="st6" d="M270.3,82.8v16.7h-2.7V88l-5.1,11.4h-1.9L255.4,88v11.4h-2.7V82.8h3l5.9,13.1l5.8-13.1H270.3z"/>
	</g>
	<g>
		<path class="st6" d="M909.3,84.2c1,0.9,1.5,2.1,1.5,3.5c0,1.4-0.5,2.6-1.5,3.6c-1,1-2.5,1.5-4.5,1.5h-3v6.8h-2.7V82.8h5.8
			C906.8,82.8,908.3,83.2,909.3,84.2z M901.9,90.5h3c1,0,1.8-0.2,2.3-0.7c0.5-0.5,0.8-1.2,0.8-2.1c0-0.9-0.3-1.6-0.8-2.1
			c-0.5-0.5-1.3-0.7-2.3-0.7h-3V90.5z"/>
		<path class="st6" d="M923.5,99.6c-2.4,0-4.4-0.8-6.1-2.4c-1.6-1.6-2.5-3.6-2.5-6.1c0-2.5,0.8-4.5,2.5-6.1c1.6-1.6,3.7-2.4,6.1-2.4
			s4.4,0.8,6,2.4c1.6,1.6,2.5,3.6,2.5,6.1c0,2.5-0.8,4.5-2.5,6.1C927.9,98.8,925.9,99.6,923.5,99.6z M923.5,97.1
			c1.7,0,3.1-0.6,4.1-1.7c1.1-1.1,1.6-2.6,1.6-4.4c0-1.8-0.5-3.3-1.6-4.4c-1.1-1.1-2.4-1.7-4.1-1.7s-3.1,0.6-4.1,1.7
			c-1.1,1.1-1.6,2.6-1.6,4.4c0,1.8,0.5,3.3,1.6,4.4S921.8,97.1,923.5,97.1z"/>
		<path class="st6" d="M937.1,82.8h2.7v14.6h5.6v2.1h-8.4V82.8z"/>
		<path class="st6" d="M950.1,99.4V82.8h2.7v16.7H950.1z"/>
		<path class="st6" d="M960.4,97.2c-1.6-1.6-2.5-3.6-2.5-6.1c0-2.5,0.8-4.5,2.5-6.1c1.6-1.6,3.7-2.4,6-2.4c1.8,0,3.4,0.4,4.7,1.3
			s2.4,2.1,3,3.7h-3.3c-0.9-1.7-2.4-2.5-4.5-2.5c-1.7,0-3.1,0.6-4.1,1.7c-1.1,1.1-1.6,2.6-1.6,4.4c0,1.8,0.5,3.3,1.6,4.4
			c1.1,1.1,2.4,1.7,4.1,1.7c2.1,0,3.6-0.8,4.5-2.5h3.3c-0.6,1.6-1.6,2.8-3,3.7c-1.4,0.9-3,1.3-4.7,1.3
			C964.1,99.6,962.1,98.8,960.4,97.2z"/>
		<path class="st6" d="M979.8,99.4V82.8h2.7v16.7H979.8z"/>
		<path class="st6" d="M997.8,82.7v2.1h-6.5v5.1h5.8V92h-5.8v5.3h6.5v2.1h-9.2V82.7H997.8z"/>
		<path class="st6" d="M1008.7,84.8c-0.8,0-1.5,0.2-2,0.6s-0.8,1-0.8,1.8s0.3,1.4,0.9,1.8c0.6,0.4,1.3,0.7,2.2,0.9
			c0.9,0.2,1.7,0.4,2.6,0.7c0.9,0.2,1.6,0.7,2.2,1.4c0.6,0.7,0.9,1.6,0.9,2.9c0,1.2-0.5,2.3-1.6,3.3s-2.4,1.5-4.2,1.5
			s-3.2-0.4-4.2-1.2c-1.1-0.8-1.6-1.9-1.6-3.4h2.9c0.1,0.7,0.3,1.3,0.8,1.8c0.5,0.4,1.2,0.6,2.1,0.6s1.7-0.2,2.2-0.7
			c0.5-0.5,0.8-1,0.8-1.7s-0.2-1.2-0.5-1.5c-0.3-0.4-0.8-0.6-1.3-0.8c-0.5-0.2-1.1-0.3-1.7-0.5c-0.6-0.1-1.3-0.3-1.9-0.5
			c-0.6-0.2-1.2-0.4-1.7-0.7c-0.5-0.3-0.9-0.7-1.3-1.3c-0.3-0.6-0.5-1.3-0.5-2.1c0-1.5,0.5-2.6,1.6-3.5c1-0.9,2.4-1.3,4.1-1.3
			s3,0.4,4,1.2c1,0.8,1.6,1.9,1.7,3.3h-3c-0.1-0.6-0.3-1.2-0.8-1.6C1010.2,85,1009.5,84.8,1008.7,84.8z"/>
		<path class="st6" d="M1040.1,84.2c1,0.9,1.5,2.1,1.5,3.5c0,1.4-0.5,2.6-1.5,3.6c-1,1-2.5,1.5-4.5,1.5h-3v6.8h-2.7V82.8h5.8
			C1037.7,82.8,1039.1,83.2,1040.1,84.2z M1032.7,90.5h3c1,0,1.8-0.2,2.3-0.7c0.5-0.5,0.8-1.2,0.8-2.1c0-0.9-0.3-1.6-0.8-2.1
			c-0.5-0.5-1.3-0.7-2.3-0.7h-3V90.5z"/>
		<path class="st6" d="M1055.9,82.7v2.1h-6.5v5.1h5.8V92h-5.8v5.3h6.5v2.1h-9.2V82.7H1055.9z"/>
		<path class="st6" d="M1064.4,92.7v6.8h-2.7V82.8h5.8c1.9,0,3.3,0.5,4.4,1.4c1,0.9,1.5,2.1,1.5,3.6c0,1.1-0.3,2.1-1,3
			c-0.7,0.9-1.7,1.5-3.1,1.8l4.4,6.9h-3.3l-4.2-6.8H1064.4z M1064.4,84.9v5.6h3c1,0,1.8-0.2,2.3-0.7c0.5-0.5,0.8-1.2,0.8-2.1
			c0-0.9-0.3-1.6-0.8-2.1c-0.5-0.5-1.3-0.7-2.3-0.7H1064.4z"/>
		<path class="st6" d="M1080.8,97.2c-1.6-1.6-2.5-3.6-2.5-6.1c0-2.5,0.8-4.5,2.5-6.1c1.6-1.6,3.7-2.4,6-2.4c1.8,0,3.4,0.4,4.7,1.3
			s2.4,2.1,3,3.7h-3.3c-0.9-1.7-2.4-2.5-4.5-2.5c-1.7,0-3.1,0.6-4.1,1.7c-1.1,1.1-1.6,2.6-1.6,4.4c0,1.8,0.5,3.3,1.6,4.4
			c1.1,1.1,2.4,1.7,4.1,1.7c2.1,0,3.6-0.8,4.5-2.5h3.3c-0.6,1.6-1.6,2.8-3,3.7c-1.4,0.9-3,1.3-4.7,1.3
			C1084.5,99.6,1082.4,98.8,1080.8,97.2z"/>
		<path class="st6" d="M1109.4,82.7v2.1h-6.5v5.1h5.8V92h-5.8v5.3h6.5v2.1h-9.2V82.7H1109.4z"/>
		<path class="st6" d="M1125.3,84.2c1,0.9,1.5,2.1,1.5,3.5c0,1.4-0.5,2.6-1.5,3.6s-2.5,1.5-4.5,1.5h-3v6.8h-2.7V82.8h5.8
			C1122.8,82.8,1124.3,83.2,1125.3,84.2z M1117.9,90.5h3c1,0,1.8-0.2,2.3-0.7c0.5-0.5,0.8-1.2,0.8-2.1c0-0.9-0.3-1.6-0.8-2.1
			s-1.3-0.7-2.3-0.7h-3V90.5z"/>
		<path class="st6" d="M1131,84.9v-2.1h11.6v2.1h-4.4v14.5h-2.7V84.9H1131z"/>
		<path class="st6" d="M1147.8,99.4V82.8h2.7v16.7H1147.8z"/>
		<path class="st6" d="M1164.1,99.6c-2.4,0-4.4-0.8-6.1-2.4c-1.6-1.6-2.5-3.6-2.5-6.1c0-2.5,0.8-4.5,2.5-6.1
			c1.6-1.6,3.7-2.4,6.1-2.4s4.4,0.8,6,2.4c1.6,1.6,2.5,3.6,2.5,6.1c0,2.5-0.8,4.5-2.5,6.1C1168.5,98.8,1166.5,99.6,1164.1,99.6z
			 M1164.1,97.1c1.7,0,3.1-0.6,4.1-1.7c1.1-1.1,1.6-2.6,1.6-4.4c0-1.8-0.5-3.3-1.6-4.4c-1.1-1.1-2.4-1.7-4.1-1.7s-3.1,0.6-4.1,1.7
			c-1.1,1.1-1.6,2.6-1.6,4.4c0,1.8,0.5,3.3,1.6,4.4S1162.4,97.1,1164.1,97.1z"/>
		<path class="st6" d="M1188.7,82.7h2.7v16.7h-2.7l-8.2-12.5v12.5h-2.7V82.7h2.7l8.2,12.4V82.7z"/>
	</g>
	<g>
		<path class="st6" d="M665.4,222v-9.7h5.7v1.2H667v3h3.2v1.2H667v4.3H665.4z"/>
		<path class="st6" d="M680.6,222l-0.7-2h-4.1l-0.7,2h-1.7l3.5-9.7h1.8l3.5,9.7H680.6z M676.3,218.8h3.2l-1.6-4.6L676.3,218.8z"/>
		<path class="st6" d="M685.2,222v-9.7h1.6v9.7H685.2z"/>
		<path class="st6" d="M691.9,218.1v3.9h-1.6v-9.7h3.4c1.1,0,2,0.3,2.5,0.8c0.6,0.5,0.9,1.2,0.9,2.1c0,0.7-0.2,1.2-0.6,1.8
			c-0.4,0.5-1,0.9-1.8,1l2.6,4h-1.9l-2.4-3.9H691.9z M691.9,213.6v3.3h1.8c0.6,0,1.1-0.1,1.4-0.4c0.3-0.3,0.4-0.7,0.4-1.2
			c0-0.5-0.1-0.9-0.4-1.2c-0.3-0.3-0.8-0.4-1.4-0.4H691.9z"/>
		<path class="st6" d="M700.5,212.3h1.6v8.5h3.3v1.2h-4.9V212.3z"/>
		<path class="st6" d="M712.1,222h-1.6v-3.5l-3.2-6.2h1.8l2.2,4.7l2.2-4.7h1.8l-3.2,6.2V222z"/>
		<path class="st6" d="M659.1,238.8l-0.7-2h-4.1l-0.7,2H652l3.5-9.7h1.8l3.5,9.7H659.1z M654.8,235.6h3.2l-1.6-4.6L654.8,235.6z"/>
		<path class="st6" d="M666.9,229.1c1.6,0,2.8,0.4,3.8,1.3s1.4,2.1,1.4,3.6s-0.5,2.7-1.4,3.5s-2.2,1.3-3.8,1.3h-3.2v-9.7H666.9z
			 M665.3,237.6h1.6c1.1,0,2-0.3,2.6-1c0.6-0.6,0.9-1.5,0.9-2.7s-0.3-2-0.9-2.6c-0.6-0.6-1.5-1-2.6-1h-1.6V237.6z"/>
		<path class="st6" d="M680.4,229.1v1.2h-3.8v3h3.4v1.2h-3.4v3.1h3.8v1.2h-5.4v-9.7H680.4z"/>
		<path class="st6" d="M688.2,238.9c-1.4,0-2.6-0.5-3.5-1.4c-1-0.9-1.4-2.1-1.4-3.6s0.5-2.6,1.4-3.6c1-0.9,2.1-1.4,3.5-1.4
			c1.4,0,2.6,0.5,3.5,1.4c1,0.9,1.4,2.1,1.4,3.6c0,0.9-0.2,1.7-0.6,2.4s-0.9,1.3-1.6,1.7l2.3,2.5h-2l-1.7-1.8
			C689.2,238.9,688.7,238.9,688.2,238.9z M688.2,230.4c-1,0-1.8,0.3-2.4,1c-0.6,0.6-0.9,1.5-0.9,2.6s0.3,1.9,0.9,2.6
			c0.6,0.6,1.4,1,2.4,1s1.8-0.3,2.4-1c0.6-0.6,0.9-1.5,0.9-2.6s-0.3-1.9-0.9-2.6C690,230.8,689.2,230.4,688.2,230.4z"/>
		<path class="st6" d="M696.2,235.3v-6.2h1.6v6.2c0,0.7,0.2,1.3,0.6,1.7c0.4,0.4,0.9,0.6,1.6,0.6s1.2-0.2,1.6-0.6
			c0.4-0.4,0.6-0.9,0.6-1.7v-6.2h1.6v6.2c0,1.2-0.4,2.1-1.1,2.7c-0.7,0.6-1.6,0.9-2.7,0.9c-1.1,0-2-0.3-2.7-0.9
			S696.2,236.5,696.2,235.3z"/>
		<path class="st6" d="M713.8,238.8l-0.7-2h-4.1l-0.7,2h-1.7l3.5-9.7h1.8l3.5,9.7H713.8z M709.5,235.6h3.2l-1.6-4.6L709.5,235.6z"/>
		<path class="st6" d="M717.9,230.4v-1.2h6.8v1.2h-2.6v8.5h-1.6v-8.5H717.9z"/>
		<path class="st6" d="M733.1,229.1v1.2h-3.8v3h3.4v1.2h-3.4v3.1h3.8v1.2h-5.4v-9.7H733.1z"/>
	</g>
	<g>
		<path class="st6" d="M853.1,212.3h1.6v9.7h-1.6l-4.8-7.3v7.3h-1.6v-9.7h1.6l4.8,7.3V212.3z"/>
		<path class="st6" d="M863.5,212.3v1.2h-3.8v3h3.4v1.2h-3.4v3.1h3.8v1.2h-5.4v-9.7H863.5z"/>
		<path class="st6" d="M866.9,222v-9.7h1.6v9.7H866.9z"/>
		<path class="st6" d="M871.5,213.6v-1.2h6.8v1.2h-2.6v8.5h-1.6v-8.5H871.5z"/>
		<path class="st6" d="M887.5,212.3h1.6v9.7h-1.6v-4.3h-4.6v4.3h-1.6v-9.7h1.6v4.2h4.6V212.3z"/>
		<path class="st6" d="M897.9,212.3v1.2h-3.8v3h3.4v1.2h-3.4v3.1h3.8v1.2h-5.4v-9.7H897.9z"/>
		<path class="st6" d="M902.9,218.1v3.9h-1.6v-9.7h3.4c1.1,0,2,0.3,2.5,0.8c0.6,0.5,0.9,1.2,0.9,2.1c0,0.7-0.2,1.2-0.6,1.8
			c-0.4,0.5-1,0.9-1.8,1l2.6,4h-1.9l-2.4-3.9H902.9z M902.9,213.6v3.3h1.8c0.6,0,1.1-0.1,1.4-0.4s0.4-0.7,0.4-1.2
			c0-0.5-0.1-0.9-0.4-1.2s-0.8-0.4-1.4-0.4H902.9z"/>
		<path class="st6" d="M923.7,222l-0.7-2h-4.1l-0.7,2h-1.7l3.5-9.7h1.8l3.5,9.7H923.7z M919.4,218.8h3.2l-1.6-4.6L919.4,218.8z"/>
		<path class="st6" d="M931.5,212.3c1.6,0,2.8,0.4,3.8,1.3c0.9,0.9,1.4,2.1,1.4,3.6s-0.5,2.7-1.4,3.5c-0.9,0.9-2.2,1.3-3.8,1.3h-3.2
			v-9.7H931.5z M929.9,220.8h1.6c1.1,0,2-0.3,2.6-1c0.6-0.6,0.9-1.5,0.9-2.7s-0.3-2-0.9-2.6c-0.6-0.6-1.5-1-2.6-1h-1.6V220.8z"/>
		<path class="st6" d="M945,212.3v1.2h-3.8v3h3.4v1.2h-3.4v3.1h3.8v1.2h-5.4v-9.7H945z"/>
		<path class="st6" d="M952.7,222.1c-1.3,0-2.5-0.5-3.4-1.4c-1-0.9-1.4-2.1-1.4-3.6s0.5-2.6,1.4-3.6c1-0.9,2.1-1.4,3.5-1.4
			c1,0,2,0.3,2.8,0.8c0.8,0.5,1.4,1.2,1.8,2.2h-1.9c-0.5-1-1.4-1.5-2.6-1.5c-1,0-1.8,0.3-2.4,1c-0.6,0.6-0.9,1.5-0.9,2.6
			s0.3,1.9,0.9,2.6c0.6,0.6,1.4,1,2.3,1c0.9,0,1.7-0.2,2.2-0.7s0.9-1.2,1-2h-3.7v-1.2h5.4v1.2c-0.1,1.2-0.7,2.2-1.6,3
			C955.2,221.7,954.1,222.1,952.7,222.1z"/>
		<path class="st6" d="M960.6,218.5v-6.2h1.6v6.2c0,0.7,0.2,1.3,0.6,1.7c0.4,0.4,0.9,0.6,1.6,0.6s1.2-0.2,1.6-0.6
			c0.4-0.4,0.6-0.9,0.6-1.7v-6.2h1.6v6.2c0,1.2-0.4,2.1-1.1,2.7s-1.6,0.9-2.7,0.9c-1.1,0-2-0.3-2.7-0.9S960.6,219.7,960.6,218.5z"/>
		<path class="st6" d="M978.2,222l-0.7-2h-4.1l-0.7,2h-1.7l3.5-9.7h1.8l3.5,9.7H978.2z M973.9,218.8h3.2l-1.6-4.6L973.9,218.8z"/>
		<path class="st6" d="M982.3,213.6v-1.2h6.8v1.2h-2.6v8.5h-1.6v-8.5H982.3z"/>
		<path class="st6" d="M997.5,212.3v1.2h-3.8v3h3.4v1.2h-3.4v3.1h3.8v1.2h-5.4v-9.7H997.5z"/>
		<path class="st6" d="M866.7,238.9c-1.4,0-2.6-0.5-3.5-1.4c-1-0.9-1.4-2.1-1.4-3.6s0.5-2.6,1.4-3.6c1-0.9,2.1-1.4,3.5-1.4
			c1.4,0,2.6,0.5,3.5,1.4c1,0.9,1.4,2.1,1.4,3.6s-0.5,2.6-1.4,3.6C869.2,238.5,868.1,238.9,866.7,238.9z M866.6,237.5
			c1,0,1.8-0.3,2.4-1c0.6-0.6,0.9-1.5,0.9-2.6s-0.3-1.9-0.9-2.6c-0.6-0.6-1.4-1-2.4-1s-1.8,0.3-2.4,1c-0.6,0.6-0.9,1.5-0.9,2.6
			s0.3,1.9,0.9,2.6C864.9,237.2,865.7,237.5,866.6,237.5z"/>
		<path class="st6" d="M876.2,234.9v3.9h-1.6v-9.7h3.4c1.1,0,2,0.3,2.5,0.8c0.6,0.5,0.9,1.2,0.9,2.1c0,0.7-0.2,1.2-0.6,1.8
			c-0.4,0.5-1,0.9-1.8,1l2.6,4h-1.9l-2.4-3.9H876.2z M876.2,230.4v3.3h1.8c0.6,0,1.1-0.1,1.4-0.4c0.3-0.3,0.4-0.7,0.4-1.2
			c0-0.5-0.1-0.9-0.4-1.2c-0.3-0.3-0.8-0.4-1.4-0.4H876.2z"/>
		<path class="st6" d="M890.4,238.8v-9.7h1.6v9.7H890.4z"/>
		<path class="st6" d="M901.9,229.1h1.6v9.7h-1.6l-4.8-7.3v7.3h-1.6v-9.7h1.6l4.8,7.3V229.1z"/>
		<path class="st6" d="M913.6,238.8l-0.7-2h-4.1l-0.7,2h-1.7l3.5-9.7h1.8l3.5,9.7H913.6z M909.3,235.6h3.2l-1.6-4.6L909.3,235.6z"/>
		<path class="st6" d="M921.4,229.1c1.6,0,2.8,0.4,3.8,1.3c0.9,0.9,1.4,2.1,1.4,3.6s-0.5,2.7-1.4,3.5c-0.9,0.9-2.2,1.3-3.8,1.3h-3.2
			v-9.7H921.4z M919.8,237.6h1.6c1.1,0,2-0.3,2.6-1c0.6-0.6,0.9-1.5,0.9-2.7s-0.3-2-0.9-2.6c-0.6-0.6-1.5-1-2.6-1h-1.6V237.6z"/>
		<path class="st6" d="M934.9,229.1v1.2h-3.8v3h3.4v1.2h-3.4v3.1h3.8v1.2h-5.4v-9.7H934.9z"/>
		<path class="st6" d="M942.7,238.9c-1.4,0-2.6-0.5-3.5-1.4c-1-0.9-1.4-2.1-1.4-3.6s0.5-2.6,1.4-3.6c1-0.9,2.1-1.4,3.5-1.4
			c1.4,0,2.6,0.5,3.5,1.4c1,0.9,1.4,2.1,1.4,3.6c0,0.9-0.2,1.7-0.6,2.4c-0.4,0.7-0.9,1.3-1.6,1.7l2.3,2.5h-2l-1.7-1.8
			C943.6,238.9,943.2,238.9,942.7,238.9z M942.7,230.4c-1,0-1.8,0.3-2.4,1c-0.6,0.6-0.9,1.5-0.9,2.6s0.3,1.9,0.9,2.6
			c0.6,0.6,1.4,1,2.4,1c1,0,1.8-0.3,2.4-1c0.6-0.6,0.9-1.5,0.9-2.6s-0.3-1.9-0.9-2.6C944.5,230.8,943.7,230.4,942.7,230.4z"/>
		<path class="st6" d="M950.6,235.3v-6.2h1.6v6.2c0,0.7,0.2,1.3,0.6,1.7c0.4,0.4,0.9,0.6,1.6,0.6s1.2-0.2,1.6-0.6
			c0.4-0.4,0.6-0.9,0.6-1.7v-6.2h1.6v6.2c0,1.2-0.4,2.1-1.1,2.7s-1.6,0.9-2.7,0.9c-1.1,0-2-0.3-2.7-0.9S950.6,236.5,950.6,235.3z"/>
		<path class="st6" d="M968.3,238.8l-0.7-2h-4.1l-0.7,2h-1.7l3.5-9.7h1.8l3.5,9.7H968.3z M963.9,235.6h3.2l-1.6-4.6L963.9,235.6z"/>
		<path class="st6" d="M972.4,230.4v-1.2h6.8v1.2h-2.6v8.5H975v-8.5H972.4z"/>
		<path class="st6" d="M987.6,229.1v1.2h-3.8v3h3.4v1.2h-3.4v3.1h3.8v1.2h-5.4v-9.7H987.6z"/>
	</g>
	<g>
		<path class="st6" d="M1132.3,222v-9.7h5.7v1.2h-4.1v3h3.2v1.2h-3.2v4.3H1132.3z"/>
		<path class="st6" d="M1147.5,222l-0.7-2h-4.1l-0.7,2h-1.7l3.5-9.7h1.8l3.5,9.7H1147.5z M1143.1,218.8h3.2l-1.6-4.6L1143.1,218.8z"
			/>
		<path class="st6" d="M1152.1,222v-9.7h1.6v9.7H1152.1z"/>
		<path class="st6" d="M1158.8,218.1v3.9h-1.6v-9.7h3.4c1.1,0,2,0.3,2.5,0.8c0.6,0.5,0.9,1.2,0.9,2.1c0,0.7-0.2,1.2-0.6,1.8
			c-0.4,0.5-1,0.9-1.8,1l2.6,4h-1.9l-2.4-3.9H1158.8z M1158.8,213.6v3.3h1.8c0.6,0,1.1-0.1,1.4-0.4s0.4-0.7,0.4-1.2
			c0-0.5-0.1-0.9-0.4-1.2s-0.8-0.4-1.4-0.4H1158.8z"/>
		<path class="st6" d="M1167.4,212.3h1.6v8.5h3.3v1.2h-4.9V212.3z"/>
		<path class="st6" d="M1179,222h-1.6v-3.5l-3.2-6.2h1.8l2.2,4.7l2.2-4.7h1.8l-3.2,6.2V222z"/>
		<path class="st6" d="M1108.4,238.8v-9.7h1.6v9.7H1108.4z"/>
		<path class="st6" d="M1119.9,229.1h1.6v9.7h-1.6l-4.8-7.3v7.3h-1.6v-9.7h1.6l4.8,7.3V229.1z"/>
		<path class="st6" d="M1131.5,238.8l-0.7-2h-4.1l-0.7,2h-1.7l3.5-9.7h1.8l3.5,9.7H1131.5z M1127.2,235.6h3.2l-1.6-4.6L1127.2,235.6
			z"/>
		<path class="st6" d="M1139.3,229.1c1.6,0,2.8,0.4,3.8,1.3c0.9,0.9,1.4,2.1,1.4,3.6s-0.5,2.7-1.4,3.5c-0.9,0.9-2.2,1.3-3.8,1.3
			h-3.2v-9.7H1139.3z M1137.7,237.6h1.6c1.1,0,2-0.3,2.6-1c0.6-0.6,0.9-1.5,0.9-2.7s-0.3-2-0.9-2.6c-0.6-0.6-1.5-1-2.6-1h-1.6V237.6
			z"/>
		<path class="st6" d="M1152.8,229.1v1.2h-3.8v3h3.4v1.2h-3.4v3.1h3.8v1.2h-5.4v-9.7H1152.8z"/>
		<path class="st6" d="M1160.6,238.9c-1.4,0-2.6-0.5-3.5-1.4c-1-0.9-1.4-2.1-1.4-3.6s0.5-2.6,1.4-3.6c1-0.9,2.1-1.4,3.5-1.4
			c1.4,0,2.6,0.5,3.5,1.4c1,0.9,1.4,2.1,1.4,3.6c0,0.9-0.2,1.7-0.6,2.4c-0.4,0.7-0.9,1.3-1.6,1.7l2.3,2.5h-2l-1.7-1.8
			C1161.6,238.9,1161.1,238.9,1160.6,238.9z M1160.6,230.4c-1,0-1.8,0.3-2.4,1c-0.6,0.6-0.9,1.5-0.9,2.6s0.3,1.9,0.9,2.6
			c0.6,0.6,1.4,1,2.4,1c1,0,1.8-0.3,2.4-1c0.6-0.6,0.9-1.5,0.9-2.6s-0.3-1.9-0.9-2.6C1162.4,230.8,1161.6,230.4,1160.6,230.4z"/>
		<path class="st6" d="M1168.6,235.3v-6.2h1.6v6.2c0,0.7,0.2,1.3,0.6,1.7c0.4,0.4,0.9,0.6,1.6,0.6s1.2-0.2,1.6-0.6
			c0.4-0.4,0.6-0.9,0.6-1.7v-6.2h1.6v6.2c0,1.2-0.4,2.1-1.1,2.7c-0.7,0.6-1.6,0.9-2.7,0.9s-2-0.3-2.7-0.9S1168.6,236.5,1168.6,235.3
			z"/>
		<path class="st6" d="M1186.2,238.8l-0.7-2h-4.1l-0.7,2h-1.7l3.5-9.7h1.8l3.5,9.7H1186.2z M1181.9,235.6h3.2l-1.6-4.6L1181.9,235.6
			z"/>
		<path class="st6" d="M1190.3,230.4v-1.2h6.8v1.2h-2.6v8.5h-1.6v-8.5H1190.3z"/>
		<path class="st6" d="M1205.5,229.1v1.2h-3.8v3h3.4v1.2h-3.4v3.1h3.8v1.2h-5.4v-9.7H1205.5z"/>
	</g>
	<g>
		<path class="st6" d="M1373.6,222l-3.7-9.7h1.7l2.9,8.1l2.9-8.1h1.7l-3.7,9.7H1373.6z"/>
		<path class="st6" d="M1387.2,212.3v1.2h-3.8v3h3.4v1.2h-3.4v3.1h3.8v1.2h-5.4v-9.7H1387.2z"/>
		<path class="st6" d="M1392.1,218.1v3.9h-1.6v-9.7h3.4c1.1,0,2,0.3,2.5,0.8c0.6,0.5,0.9,1.2,0.9,2.1c0,0.7-0.2,1.2-0.6,1.8
			c-0.4,0.5-1,0.9-1.8,1l2.6,4h-1.9l-2.4-3.9H1392.1z M1392.1,213.6v3.3h1.8c0.6,0,1.1-0.1,1.4-0.4s0.4-0.7,0.4-1.2
			c0-0.5-0.1-0.9-0.4-1.2s-0.8-0.4-1.4-0.4H1392.1z"/>
		<path class="st6" d="M1404.8,222h-1.6v-3.5l-3.2-6.2h1.8l2.2,4.7l2.2-4.7h1.8l-3.2,6.2V222z"/>
		<path class="st6" d="M1340.4,238.8v-9.7h1.6v9.7H1340.4z"/>
		<path class="st6" d="M1351.9,229.1h1.6v9.7h-1.6l-4.8-7.3v7.3h-1.6v-9.7h1.6l4.8,7.3V229.1z"/>
		<path class="st6" d="M1363.6,238.8l-0.7-2h-4.1l-0.7,2h-1.7l3.5-9.7h1.8l3.5,9.7H1363.6z M1359.2,235.6h3.2l-1.6-4.6L1359.2,235.6
			z"/>
		<path class="st6" d="M1371.3,229.1c1.6,0,2.8,0.4,3.8,1.3c0.9,0.9,1.4,2.1,1.4,3.6s-0.5,2.7-1.4,3.5c-0.9,0.9-2.2,1.3-3.8,1.3
			h-3.2v-9.7H1371.3z M1369.8,237.6h1.6c1.1,0,2-0.3,2.6-1c0.6-0.6,0.9-1.5,0.9-2.7s-0.3-2-0.9-2.6c-0.6-0.6-1.5-1-2.6-1h-1.6V237.6
			z"/>
		<path class="st6" d="M1384.9,229.1v1.2h-3.8v3h3.4v1.2h-3.4v3.1h3.8v1.2h-5.4v-9.7H1384.9z"/>
		<path class="st6" d="M1392.7,238.9c-1.4,0-2.6-0.5-3.5-1.4c-1-0.9-1.4-2.1-1.4-3.6s0.5-2.6,1.4-3.6c1-0.9,2.1-1.4,3.5-1.4
			c1.4,0,2.6,0.5,3.5,1.4c1,0.9,1.4,2.1,1.4,3.6c0,0.9-0.2,1.7-0.6,2.4c-0.4,0.7-0.9,1.3-1.6,1.7l2.3,2.5h-2l-1.7-1.8
			C1393.6,238.9,1393.2,238.9,1392.7,238.9z M1392.7,230.4c-1,0-1.8,0.3-2.4,1c-0.6,0.6-0.9,1.5-0.9,2.6s0.3,1.9,0.9,2.6
			c0.6,0.6,1.4,1,2.4,1c1,0,1.8-0.3,2.4-1c0.6-0.6,0.9-1.5,0.9-2.6s-0.3-1.9-0.9-2.6C1394.4,230.8,1393.6,230.4,1392.7,230.4z"/>
		<path class="st6" d="M1400.6,235.3v-6.2h1.6v6.2c0,0.7,0.2,1.3,0.6,1.7c0.4,0.4,0.9,0.6,1.6,0.6s1.2-0.2,1.6-0.6
			c0.4-0.4,0.6-0.9,0.6-1.7v-6.2h1.6v6.2c0,1.2-0.4,2.1-1.1,2.7c-0.7,0.6-1.6,0.9-2.7,0.9s-2-0.3-2.7-0.9S1400.6,236.5,1400.6,235.3
			z"/>
		<path class="st6" d="M1418.3,238.8l-0.7-2h-4.1l-0.7,2h-1.7l3.5-9.7h1.8l3.5,9.7H1418.3z M1413.9,235.6h3.2l-1.6-4.6L1413.9,235.6
			z"/>
		<path class="st6" d="M1422.4,230.4v-1.2h6.8v1.2h-2.6v8.5h-1.6v-8.5H1422.4z"/>
		<path class="st6" d="M1437.5,229.1v1.2h-3.8v3h3.4v1.2h-3.4v3.1h3.8v1.2h-5.4v-9.7H1437.5z"/>
	</g>
	<g>
		<path class="st6" d="M1574.1,220.7c1.6,0,2.8,0.4,3.8,1.3c0.9,0.9,1.4,2.1,1.4,3.6s-0.5,2.7-1.4,3.5c-0.9,0.9-2.2,1.3-3.8,1.3
			h-3.2v-9.7H1574.1z M1572.6,229.2h1.6c1.1,0,2-0.3,2.6-1c0.6-0.6,0.9-1.5,0.9-2.7s-0.3-2-0.9-2.6c-0.6-0.6-1.5-1-2.6-1h-1.6V229.2
			z"/>
		<path class="st6" d="M1586.7,230.5c-1.4,0-2.6-0.5-3.5-1.4c-1-0.9-1.4-2.1-1.4-3.6s0.5-2.6,1.4-3.6c1-0.9,2.1-1.4,3.5-1.4
			s2.6,0.5,3.5,1.4c1,0.9,1.4,2.1,1.4,3.6s-0.5,2.6-1.4,3.6C1589.3,230.1,1588.1,230.5,1586.7,230.5z M1586.7,229.1
			c1,0,1.8-0.3,2.4-1c0.6-0.6,0.9-1.5,0.9-2.6s-0.3-1.9-0.9-2.6c-0.6-0.6-1.4-1-2.4-1c-1,0-1.8,0.3-2.4,1c-0.6,0.6-0.9,1.5-0.9,2.6
			s0.3,1.9,0.9,2.6C1585,228.8,1585.8,229.1,1586.7,229.1z"/>
		<path class="st6" d="M1601.1,220.7h1.6v9.7h-1.6l-4.8-7.3v7.3h-1.6v-9.7h1.6l4.8,7.3V220.7z"/>
		<path class="st6" d="M1605.5,219.3h1.4c0.1,0.5,0.2,1,0.2,1.4c0,1.2-0.5,1.8-1.6,1.8v-0.7c0.4,0,0.7-0.3,0.7-0.8v-0.3h-0.7V219.3z
			"/>
		<path class="st6" d="M1609.5,222v-1.2h6.8v1.2h-2.6v8.5h-1.6V222H1609.5z"/>
		<path class="st6" d="M1626.5,230.4h-1.6v-9.7h1.6v4.4l3.8-4.4h2.1l-4.4,4.9l4.4,4.8h-2.1l-3.8-4.4V230.4z"/>
		<path class="st6" d="M1641.6,220.7h1.6v9.7h-1.6l-4.8-7.3v7.3h-1.6v-9.7h1.6l4.8,7.3V220.7z"/>
		<path class="st6" d="M1651.1,230.5c-1.4,0-2.6-0.5-3.5-1.4c-1-0.9-1.4-2.1-1.4-3.6s0.5-2.6,1.4-3.6c1-0.9,2.1-1.4,3.5-1.4
			s2.6,0.5,3.5,1.4c1,0.9,1.4,2.1,1.4,3.6s-0.5,2.6-1.4,3.6C1653.7,230.1,1652.5,230.5,1651.1,230.5z M1651.1,229.1
			c1,0,1.8-0.3,2.4-1c0.6-0.6,0.9-1.5,0.9-2.6s-0.3-1.9-0.9-2.6c-0.6-0.6-1.4-1-2.4-1c-1,0-1.8,0.3-2.4,1c-0.6,0.6-0.9,1.5-0.9,2.6
			s0.3,1.9,0.9,2.6C1649.3,228.8,1650.1,229.1,1651.1,229.1z"/>
		<path class="st6" d="M1670,220.7h1.7l-2.9,9.7h-1.8l-2-7.4l-2.2,7.4l-1.8,0l-2.8-9.7h1.7l2,7.9l2.2-7.9h1.8l2,7.9L1670,220.7z"/>
	</g>
	<line class="st7" x1="106" y1="122" x2="301" y2="122"/>
	<line class="st7" x1="387" y1="122" x2="1706" y2="122"/>
	<g>
		<g>
			<line class="st7" x1="295.5" y1="122" x2="300.5" y2="122"/>
			<line class="st8" x1="310.1" y1="122" x2="381.7" y2="122"/>
			<line class="st7" x1="386.5" y1="122" x2="391.5" y2="122"/>
		</g>
	</g>
	<g>
	</g>
	<g>
	</g>
	<g>
	</g>
	<g>
	</g>
	<g>
	</g>
	<g>
	</g>
	<g>
	</g>
	<g>
	</g>
	<g>
	</g>
	<g>
	</g>
	<g>
	</g>
	<g>
	</g>
	<g>
	</g>
	<g>
	</g>
	<g>
	</g>
</g>
</svg>
