<?xml version="1.0" encoding="utf-8"?>
<!-- Generator: Adobe Illustrator 22.1.0, SVG Export Plug-In . SVG Version: 6.00 Build 0)  -->
<svg version="1.2" baseProfile="tiny" id="Livello_1"
	 xmlns="http://www.w3.org/2000/svg" xmlns:xlink="http://www.w3.org/1999/xlink" x="0px" y="0px" viewBox="0 0 1363.2 382.8"
	 xml:space="preserve">
<g>
	<path fill="#9D77FC" d="M2.3,93.3c0-41.8,32.1-69.6,84.1-69.6c52.1,0,84.3,27.8,84.3,69.6s-32.1,69.6-84.3,69.6
		C34.5,162.9,2.3,135.1,2.3,93.3z M137.9,93.3c0-27-19.6-41.8-51.5-41.8c-31.8,0-51.4,14.8-51.4,41.8c0,26.8,19.6,41.8,51.4,41.8
		C118.4,135.1,137.9,120.1,137.9,93.3z"/>
	<path fill="#9D77FC" d="M199.8,26.7h105.9c27.6,0,42.8,14.8,42.8,35.2c0,21.3-17.1,33.5-42.8,33.5H292c32,2.1,44.3,21.1,66.2,64.5
		h-41.5c-24.7-44.3-29.9-55.2-52.3-55.2h-32.1l0.2,55.2h-32.7V26.7z M299,79.2c11.6,0,16.7-4.2,16.7-12.6c0-9.5-5.3-13.5-16.7-13.5
		h-66.9l0.2,26.1H299z"/>
	<path fill="#9D77FC" d="M386.3,26.7h63.3c48.1,0,77.6,23,77.6,66.6c0,44.1-29.7,66.6-77.6,66.6h-63.3V26.7z M449.7,132.1
		c29.3,0,45.6-13.3,45.6-38.8c0-25.9-16.7-38.8-45.6-38.8H419v77.6H449.7z"/>
	<path fill="#9D77FC" d="M558.8,26.7h32.7v133.1h-32.7V26.7z"/>
	<path fill="#9D77FC" d="M631.1,26.7h27.4l93.4,84.6V26.7h32.7v133.1H757l-93.2-84.6v84.6h-32.7V26.7z"/>
	<path fill="#9D77FC" d="M884.4,26.7h36.9l80.4,133.1h-38.4l-14.5-25.3h-92.2l-14.5,25.3H804L884.4,26.7z M933.3,106.8l-30.4-53.3
		l-30.4,53.3H933.3z"/>
	<path fill="#9D77FC" d="M1021.4,26.7h105.9c27.6,0,42.8,14.8,42.8,35.2c0,21.3-17.1,33.5-42.8,33.5h-13.7
		c32,2.1,44.3,21.1,66.2,64.5h-41.5c-24.7-44.3-29.9-55.2-52.3-55.2h-32.1l0.2,55.2h-32.7V26.7z M1120.6,79.2
		c11.6,0,16.7-4.2,16.7-12.6c0-9.5-5.3-13.5-16.7-13.5h-66.9l0.2,26.1H1120.6z"/>
	<path fill="#9D77FC" d="M1253.8,116.9l-74.2-90.1h40.3l50.2,62.8l50.4-62.8h40.3l-74.4,90v43.2h-32.7V116.9z"/>
	<path fill="#9D77FC" d="M211.4,312.7H246c-0.2,8.9,11.2,18.3,38.6,18.6c25.5,0.2,45.1-3.2,45.1-15c0-25.9-115.4,4.4-115.4-52.7
		c0-27.2,28.3-43.7,70.4-43.7c43.6,0,73.2,18.3,73.6,46.4h-34.8c0.2-9.1-9.7-18.4-36.3-18.6c-23-0.4-39.7,3.2-39.7,14.5
		c0,24.9,115.3-2.7,115.3,53.1c0,27.4-30.2,43.9-75.1,43.9C241,359.1,210.8,340.7,211.4,312.7z"/>
	<path fill="#9D77FC" d="M390.3,222.9H520v27.8h-97v24.7h95.3v26.1H423v26.8h97v27.8H390.3V222.9z"/>
	<path fill="#9D77FC" d="M604.7,288.9l-59.3-66h44.3l37.8,42.2l38-42.2h44.1l-60.1,67.1l58.8,66h-43.6l-38.2-42.4l-38.2,42.4h-43.6
		L604.7,288.9z"/>
	<path fill="#9D77FC" d="M733.4,222.9h32.7v133.1h-32.7V222.9z"/>
	<path fill="#9D77FC" d="M793.9,312.7h34.6c-0.2,8.9,11.2,18.3,38.6,18.6c25.5,0.2,45.1-3.2,45.1-15c0-25.9-115.4,4.4-115.4-52.7
		c0-27.2,28.3-43.7,70.4-43.7c43.6,0,73.2,18.3,73.6,46.4h-34.8c0.2-9.1-9.7-18.4-36.3-18.6c-23-0.4-39.7,3.2-39.7,14.5
		c0,24.9,115.3-2.7,115.3,53.1c0,27.4-30.2,43.9-75.1,43.9C823.6,359.1,793.3,340.7,793.9,312.7z"/>
	<path fill="#9D77FC" d="M972.9,222.9h29.1l54.8,86.3l54.6-86.3h29.3v133.1h-32.7v-76.8l-47.9,76.8h-6.5l-47.9-76.6v76.6h-32.7
		V222.9z"/>
</g>
<g>
</g>
<g>
</g>
<g>
</g>
<g>
</g>
<g>
</g>
<g>
</g>
<g>
</g>
<g>
</g>
<g>
</g>
<g>
</g>
<g>
</g>
<g>
</g>
<g>
</g>
<g>
</g>
<g>
</g>
</svg>
