<?xml version="1.0" encoding="utf-8"?>
<!-- Generator: Adobe Illustrator 23.0.1, SVG Export Plug-In . SVG Version: 6.00 Build 0)  -->
<svg version="1.1" xmlns="http://www.w3.org/2000/svg" xmlns:xlink="http://www.w3.org/1999/xlink" x="0px" y="0px"
	 viewBox="0 0 1020 570" style="enable-background:new 0 0 1020 570;" xml:space="preserve">
<style type="text/css">
	.st0{font-family:'IBMPlexMono';}
	.st1{font-size:11px;}
	.st2{font-size:12px;}
	.st3{fill:none;stroke:#CCCCCC;stroke-width:0.5;stroke-miterlimit:10;}
	.st4{fill:none;stroke:#999999;stroke-width:0.75;stroke-miterlimit:10;}
	.st5{fill:#DCDCFF;stroke:#0000FF;stroke-width:0.5;}
	.st6{fill:#FF9600;stroke:#0000FF;}
</style>
<g id="Testo">
	<text transform="matrix(1 0 0 1 187.0453 525.9933)" class="st0 st1">1</text>
	<text transform="matrix(1 0 0 1 186.2068 549.9034)" class="st0 st2">Comment nesting level</text>
	<text transform="matrix(1 0 0 1 237.6353 525.9933)" class="st0 st1">2</text>
	<text transform="matrix(1 0 0 1 288.2259 525.9933)" class="st0 st1">3</text>
	<text transform="matrix(1 0 0 1 338.8159 525.9933)" class="st0 st1">4</text>
	<text transform="matrix(1 0 0 1 389.4065 525.9933)" class="st0 st1">5</text>
	<text transform="matrix(1 0 0 1 439.9965 525.9933)" class="st0 st1">6</text>
	<text transform="matrix(1 0 0 1 490.5871 525.9933)" class="st0 st1">7</text>
	<text transform="matrix(1 0 0 1 541.1772 525.9933)" class="st0 st1">8</text>
	<text transform="matrix(1 0 0 1 591.7677 525.9933)" class="st0 st1">9</text>
	<text transform="matrix(1 0 0 1 639.0574 525.9933)" class="st0 st1">10</text>
	<text transform="matrix(1 0 0 1 689.6475 525.9933)" class="st0 st1">11</text>
	<text transform="matrix(1 0 0 1 740.2381 525.9933)" class="st0 st1">12</text>
	<text transform="matrix(1 0 0 1 790.8286 525.9933)" class="st0 st1">13</text>
	<text transform="matrix(1 0 0 1 841.4182 525.9933)" class="st0 st1">14</text>
	<text transform="matrix(1 0 0 1 892.0087 525.9933)" class="st0 st1">16</text>
	<text transform="matrix(1 0 0 1 942.5993 525.9933)" class="st0 st1">17</text>
	<text transform="matrix(1 0 0 1 993.1893 525.9933)" class="st0 st1">18</text>
</g>
<g id="Griglia">
	<g>
		<line class="st3" x1="139.75" y1="505.99" x2="139.75" y2="20"/>
		<line class="st3" x1="190.34" y1="505.99" x2="190.34" y2="20"/>
		<line class="st3" x1="240.93" y1="505.99" x2="240.93" y2="20"/>
		<line class="st3" x1="291.51" y1="505.99" x2="291.51" y2="20"/>
		<line class="st3" x1="342.1" y1="505.99" x2="342.1" y2="20"/>
		<line class="st3" x1="392.69" y1="505.99" x2="392.69" y2="20"/>
		<line class="st3" x1="443.28" y1="505.99" x2="443.28" y2="20"/>
		<line class="st3" x1="493.87" y1="505.99" x2="493.87" y2="20"/>
		<line class="st3" x1="544.46" y1="505.99" x2="544.46" y2="20"/>
		<line class="st3" x1="595.04" y1="505.99" x2="595.04" y2="20"/>
		<line class="st3" x1="645.63" y1="505.99" x2="645.63" y2="20"/>
		<line class="st3" x1="696.22" y1="505.99" x2="696.22" y2="20"/>
		<line class="st3" x1="746.81" y1="505.99" x2="746.81" y2="20"/>
		<line class="st3" x1="797.4" y1="505.99" x2="797.4" y2="20"/>
		<line class="st3" x1="847.99" y1="505.99" x2="847.99" y2="20"/>
		<line class="st3" x1="898.57" y1="505.99" x2="898.57" y2="20"/>
		<line class="st3" x1="949.16" y1="505.99" x2="949.16" y2="20"/>
		<line class="st3" x1="999.75" y1="505.99" x2="999.75" y2="20"/>
	</g>
	<line class="st3" x1="139.75" y1="505.99" x2="999.75" y2="505.99"/>
	<line class="st3" x1="139.75" y1="20" x2="999.75" y2="20"/>
</g>
<g id="Livello_2">
	<g>
		<polyline class="st4" points="139.75,276.08 129.75,276.08 129.75,412.91 94.99,412.91 		"/>
		<g>
			<text transform="matrix(1 0 0 1 61.6302 415.9937)" class="st0 st2">Fear</text>
		</g>
		<path class="st5" d="M139.75,275.26c25.28,0,25.28,140.8,50.56,140.8s25.28,61.9,50.56,61.9s25.28-11.41,50.56-11.41
			c25.35,0,25.35-82.47,50.69-82.47c25.28,0,25.28-18.47,50.56-18.47c25.28,0,25.28-12.28,50.56-12.28s25.28-9.86,50.56-9.86
			c25.35,0,25.35-21.86,50.69-21.86c25.28,0,25.28-0.63,50.56-0.63s25.28-7.98,50.56-7.98c25.28,0,25.28,17.1,50.56,17.1
			c25.35,0,25.35-14.01,50.69-14.01c25.28,0,25.28,5.11,50.56,5.11s25.28-10.61,50.56-10.61c25.28,0,25.28-12.3,50.56-12.3
			c25.35,0,25.35,6.39,50.69,6.39c25.28,0,25.28-5.36,50.56-5.36l0,0c-25.28,0-25.28,5.36-50.56,5.36
			c-25.35,0-25.35-6.39-50.69-6.39c-25.28,0-25.28,12.3-50.56,12.3c-25.28,0-25.28,14.97-50.56,14.97s-25.28-7.95-50.56-7.95
			c-25.35,0-25.35,20.27-50.69,20.27c-25.28,0-25.28-23.52-50.56-23.52c-25.28,0-25.28,6.62-50.56,6.62s-25.28,0.63-50.56,0.63
			c-25.35,0-25.35,26.29-50.69,26.29c-25.28,0-25.28,17.16-50.56,17.16s-25.28,19.62-50.56,19.62c-25.28,0-25.28,19.61-50.56,19.61
			c-25.35,0-25.35,79.41-50.69,79.41c-25.28,0-25.28,13.28-50.56,13.28s-25.28-73.55-50.56-73.55s-25.28-146.83-50.56-146.83V275.26
			z"/>
	</g>
	<path class="st5" d="M139.75,261.05c25.28,0,25.28,13.92,50.56,13.92s25.28,9.81,50.56,9.81s25.28-7.09,50.56-7.09
		c25.35,0,25.35,7.64,50.69,7.64c25.28,0,25.28-12.55,50.56-12.55c25.28,0,25.28,5.72,50.56,5.72s25.28-2.41,50.56-2.41
		c25.35,0,25.35,12.45,50.69,12.45c25.28,0,25.28,1.8,50.56,1.8s25.28,5.33,50.56,5.33c25.28,0,25.28-13.67,50.56-13.67
		c25.35,0,25.35,8.59,50.69,8.59c25.28,0,25.28-4.93,50.56-4.93s25.28,6.6,50.56,6.6c25.28,0,25.28-1.1,50.56-1.1
		c25.35,0,25.35-0.66,50.69-0.66c25.28,0,25.28,0.46,50.56,0.46l0,0c-25.28,0-25.28-0.46-50.56-0.46c-25.35,0-25.35,0.66-50.69,0.66
		c-25.28,0-25.28,1.1-50.56,1.1c-25.28,0-25.28-6.6-50.56-6.6s-25.28,4.93-50.56,4.93c-25.35,0-25.35-8.59-50.69-8.59
		c-25.28,0-25.28,13.67-50.56,13.67c-25.28,0-25.28-5.33-50.56-5.33s-25.28-1.8-50.56-1.8c-25.35,0-25.35-12.45-50.69-12.45
		c-25.28,0-25.28,2.41-50.56,2.41s-25.28-5.72-50.56-5.72c-25.28,0-25.28,12.55-50.56,12.55c-25.35,0-25.35-7.64-50.69-7.64
		c-25.28,0-25.28,7.09-50.56,7.09s-25.28-9.81-50.56-9.81S165.03,261.05,139.75,261.05z"/>
	<g>
		<polyline class="st4" points="139.75,258.71 89.75,258.71 89.75,313.58 74.99,313.58 		"/>
		<g>
			<text transform="matrix(1 0 0 1 5.6308 316.996)" class="st0 st2">Tentative</text>
		</g>
		<path class="st5" d="M139.75,256.51c25.28,0,25.28-13.29,50.56-13.29s25.28-31.54,50.56-31.54s25.28-5.35,50.56-5.35
			c25.35,0,25.35,29.76,50.69,29.76c25.28,0,25.28,14.64,50.56,14.64c25.28,0,25.28,10.87,50.56,10.87s25.28,5.38,50.56,5.38
			c25.35,0,25.35,21.57,50.69,21.57c25.28,0,25.28-1.06,50.56-1.06s25.28,4.24,50.56,4.24c25.28,0,25.28-11.84,50.56-11.84
			c25.35,0,25.35,5.63,50.69,5.63c25.28,0,25.28-2.01,50.56-2.01s25.28,4.53,50.56,4.53c25.28,0,25.28,1.67,50.56,1.67
			c25.35,0,25.35-5.49,50.69-5.49c25.28,0,25.28,4.51,50.56,4.51v2.24c-25.28,0-25.28-0.46-50.56-0.46
			c-25.35,0-25.35,0.66-50.69,0.66c-25.28,0-25.28,1.1-50.56,1.1c-25.28,0-25.28-6.6-50.56-6.6s-25.28,4.93-50.56,4.93
			c-25.35,0-25.35-8.59-50.69-8.59c-25.28,0-25.28,13.67-50.56,13.67c-25.28,0-25.28-5.33-50.56-5.33s-25.28-1.8-50.56-1.8
			c-25.35,0-25.35-12.45-50.69-12.45c-25.28,0-25.28,2.41-50.56,2.41s-25.28-5.72-50.56-5.72c-25.28,0-25.28,12.55-50.56,12.55
			c-25.35,0-25.35-7.64-50.69-7.64c-25.28,0-25.28,7.09-50.56,7.09s-25.28-9.81-50.56-9.81s-25.28-13.92-50.56-13.92V256.51z"/>
	</g>
	<g>
		<polyline class="st4" points="139.75,255.07 109.75,255.07 109.75,255.07 69.55,255.07 		"/>
		<g>
			<text transform="matrix(1 0 0 1 14.5911 257.4663)" class="st0 st2">Sadness</text>
		</g>
		<path class="st5" d="M139.75,253.6c25.28,0,25.28-41.13,50.56-41.13s25.28-47.77,50.56-47.77s25.28,17.84,50.56,17.84
			c25.35,0,25.35,27.31,50.69,27.31c25.28,0,25.28,28.17,50.56,28.17c25.28,0,25.28,2.28,50.56,2.28s25.28,10.37,50.56,10.37
			c25.35,0,25.35,36.48,50.69,36.48c25.28,0,25.28-2.31,50.56-2.31s25.28,1.34,50.56,1.34c25.28,0,25.28-9.25,50.56-9.25
			c25.35,0,25.35,7.19,50.69,7.19c25.28,0,25.28-4.03,50.56-4.03s25.28-1.02,50.56-1.02c25.28,0,25.28,5.82,50.56,5.82
			c25.35,0,25.35-5.02,50.69-5.02c25.28,0,25.28,6.01,50.56,6.01v2.85c-25.28,0-25.28-4.51-50.56-4.51
			c-25.35,0-25.35,5.49-50.69,5.49c-25.28,0-25.28-1.67-50.56-1.67c-25.28,0-25.28-4.53-50.56-4.53s-25.28,2.01-50.56,2.01
			c-25.35,0-25.35-5.63-50.69-5.63c-25.28,0-25.28,11.84-50.56,11.84c-25.28,0-25.28-4.24-50.56-4.24s-25.28,1.06-50.56,1.06
			c-25.35,0-25.35-21.57-50.69-21.57c-25.28,0-25.28-5.38-50.56-5.38s-25.28-10.87-50.56-10.87c-25.28,0-25.28-14.64-50.56-14.64
			c-25.35,0-25.35-29.76-50.69-29.76c-25.28,0-25.28,5.35-50.56,5.35s-25.28,31.54-50.56,31.54s-25.28,13.29-50.56,13.29V253.6z"/>
	</g>
	<g>
		<polyline class="st4" points="139.75,237.37 89.75,237.37 89.75,194.86 74.99,194.86 		"/>
		<g>
			<text transform="matrix(1 0 0 1 34.43 197.9979)" class="st0 st2">Anger</text>
		</g>
		<path class="st5" d="M139.75,220.99c25.28,0,25.28-112.8,50.56-112.8s25.28-29.97,50.56-29.97s25.28,21.13,50.56,21.13
			c25.35,0,25.35,63.99,50.69,63.99c25.28,0,25.28,52.62,50.56,52.62c25.28,0,25.28,7.97,50.56,7.97s25.28,23.07,50.56,23.07
			c25.35,0,25.35,38.72,50.69,38.72c25.28,0,25.28-3.7,50.56-3.7s25.28-0.77,50.56-0.77c25.28,0,25.28-11.7,50.56-11.7
			c25.35,0,25.35,12.11,50.69,12.11c25.28,0,25.28-4.71,50.56-4.71s25.28-0.72,50.56-0.72c25.28,0,25.28,4.21,50.56,4.21
			c25.35,0,25.35-0.57,50.69-0.57c25.28,0,25.28,6.01,50.56,6.01l0,0c-25.28,0-25.28-6.01-50.56-6.01
			c-25.35,0-25.35,5.02-50.69,5.02c-25.28,0-25.28-5.82-50.56-5.82c-25.28,0-25.28,1.02-50.56,1.02s-25.28,4.03-50.56,4.03
			c-25.35,0-25.35-7.19-50.69-7.19c-25.28,0-25.28,9.25-50.56,9.25c-25.28,0-25.28-1.34-50.56-1.34s-25.28,2.31-50.56,2.31
			c-25.35,0-25.35-36.48-50.69-36.48c-25.28,0-25.28-10.37-50.56-10.37s-25.28-2.28-50.56-2.28c-25.28,0-25.28-28.17-50.56-28.17
			c-25.35,0-25.35-27.31-50.69-27.31c-25.28,0-25.28-17.84-50.56-17.84s-25.28,47.77-50.56,47.77s-25.28,41.13-50.56,41.13V220.99z"
			/>
	</g>
	<g>
		<polyline class="st4" points="139.75,219.01 109.75,219.01 109.75,144.88 84.99,144.88 		"/>
		<g>
			<text transform="matrix(1 0 0 1 15.6307 148.4991)" class="st0 st2">Confident</text>
		</g>
		<path class="st5" d="M139.75,216.83c25.28,0,25.28-120.67,50.56-120.67s25.28-52.07,50.56-52.07s25.28,38.5,50.56,38.5
			c25.35,0,25.35,57.91,50.69,57.91c25.28,0,25.28,70.55,50.56,70.55c25.28,0,25.28,4.79,50.56,4.79s25.28,20.31,50.56,20.31
			c25.35,0,25.35,48.15,50.69,48.15c25.28,0,25.28-3.87,50.56-3.87s25.28-0.75,50.56-0.75c25.28,0,25.28-16.09,50.56-16.09
			c25.35,0,25.35,18.05,50.69,18.05c25.28,0,25.28-4.71,50.56-4.71s25.28-0.72,50.56-0.72c25.28,0,25.28,1.85,50.56,1.85
			c25.35,0,25.35,1.79,50.69,1.79c25.28,0,25.28,6.01,50.56,6.01l0,0c-25.28,0-25.28-6.01-50.56-6.01
			c-25.35,0-25.35,0.57-50.69,0.57c-25.28,0-25.28-4.21-50.56-4.21c-25.28,0-25.28,0.72-50.56,0.72s-25.28,4.71-50.56,4.71
			c-25.35,0-25.35-12.11-50.69-12.11c-25.28,0-25.28,11.7-50.56,11.7c-25.28,0-25.28,0.77-50.56,0.77s-25.28,3.7-50.56,3.7
			c-25.35,0-25.35-38.72-50.69-38.72c-25.28,0-25.28-23.07-50.56-23.07s-25.28-7.97-50.56-7.97c-25.28,0-25.28-52.62-50.56-52.62
			c-25.35,0-25.35-63.99-50.69-63.99c-25.28,0-25.28-21.13-50.56-21.13s-25.28,29.97-50.56,29.97s-25.28,112.8-50.56,112.8V216.83z"
			/>
	</g>
	<g>
		<polyline class="st4" points="139.75,216.79 129.75,216.79 129.75,85.39 94.99,85.39 		"/>
		<g>
			<text transform="matrix(1 0 0 1 68.8299 88.9998)" class="st0 st2">Joy</text>
		</g>
		<path class="st5" d="M139.75,216.83c25.28,0,25.28-134.17,50.56-134.17S215.58,29,240.86,29s25.28,50.61,50.56,50.61
			c25.35,0,25.35,58.37,50.69,58.37c25.28,0,25.28,68.56,50.56,68.56c25.28,0,25.28,6.22,50.56,6.22s25.28,21.75,50.56,21.75
			c25.35,0,25.35,49.81,50.69,49.81c25.28,0,25.28-3.87,50.56-3.87s25.28-1.99,50.56-1.99c25.28,0,25.28-16.24,50.56-16.24
			c25.35,0,25.35,17.99,50.69,17.99c25.28,0,25.28-3.25,50.56-3.25s25.28-0.72,50.56-0.72c25.28,0,25.28,1.85,50.56,1.85
			c25.35,0,25.35,0.54,50.69,0.54c25.28,0,25.28,7.26,50.56,7.26l0,0c-25.28,0-25.28-6.01-50.56-6.01
			c-25.35,0-25.35-1.79-50.69-1.79c-25.28,0-25.28-1.85-50.56-1.85c-25.28,0-25.28,0.72-50.56,0.72s-25.28,4.71-50.56,4.71
			c-25.35,0-25.35-18.05-50.69-18.05c-25.28,0-25.28,16.09-50.56,16.09c-25.28,0-25.28,0.75-50.56,0.75s-25.28,3.87-50.56,3.87
			c-25.35,0-25.35-48.15-50.69-48.15c-25.28,0-25.28-20.31-50.56-20.31s-25.28-4.79-50.56-4.79c-25.28,0-25.28-70.55-50.56-70.55
			c-25.35,0-25.35-57.91-50.69-57.91c-25.28,0-25.28-38.5-50.56-38.5s-25.28,52.07-50.56,52.07S165.03,216.83,139.75,216.83z"/>
	</g>
	<g>
		<polyline class="st4" points="139.75,268.91 109.75,268.91 109.75,362.69 84.99,362.69 		"/>
		<g>
			<text transform="matrix(1 0 0 1 8.431 366.4948)" class="st0 st2">Analytical</text>
		</g>
		<path class="st6" d="M139.75,261.05c25.28,0,25.28,13.92,50.56,13.92s25.28,9.81,50.56,9.81s25.28-7.09,50.56-7.09
			c25.35,0,25.35,7.64,50.69,7.64c25.28,0,25.28-12.55,50.56-12.55c25.28,0,25.28,5.72,50.56,5.72s25.28-2.41,50.56-2.41
			c25.35,0,25.35,12.45,50.69,12.45c25.28,0,25.28,1.8,50.56,1.8s25.28,5.33,50.56,5.33c25.28,0,25.28-13.67,50.56-13.67
			c25.35,0,25.35,8.59,50.69,8.59c25.28,0,25.28-4.93,50.56-4.93s25.28,6.6,50.56,6.6c25.28,0,25.28-1.1,50.56-1.1
			c25.35,0,25.35-0.66,50.69-0.66c25.28,0,25.28,0.46,50.56,0.46v8.37c-25.28,0-25.28,5.36-50.56,5.36
			c-25.35,0-25.35-6.39-50.69-6.39c-25.28,0-25.28,12.3-50.56,12.3c-25.28,0-25.28,10.61-50.56,10.61s-25.28-5.11-50.56-5.11
			c-25.35,0-25.35,14.01-50.69,14.01c-25.28,0-25.28-17.1-50.56-17.1c-25.28,0-25.28,7.98-50.56,7.98s-25.28,0.63-50.56,0.63
			c-25.35,0-25.35,21.86-50.69,21.86c-25.28,0-25.28,9.86-50.56,9.86s-25.28,12.28-50.56,12.28c-25.28,0-25.28,18.47-50.56,18.47
			c-25.35,0-25.35,82.47-50.69,82.47c-25.28,0-25.28,11.41-50.56,11.41s-25.28-61.9-50.56-61.9s-25.28-140.8-50.56-140.8V261.05z"/>
	</g>
</g>
</svg>
