<?xml version="1.0" encoding="utf-8"?>
<!DOCTYPE svg PUBLIC "-//W3C//DTD SVG 1.1//EN" "http://www.w3.org/Graphics/SVG/1.1/DTD/svg11.dtd">
<svg version="1.1" id="DensityDesign_Logo" xmlns="http://www.w3.org/2000/svg" xmlns:xlink="http://www.w3.org/1999/xlink" x="0px" y="0px" width="500px" height="500px" viewBox="0 0 500 500" enable-background="new 0 0 500 500" xml:space="preserve">
<rect id="background" fill="#EFEFEF" width="500" height="500"/>
<rect x="359.87" y="111.396" width="47.21" height="7.691"/>
<path d="M203.648,161.391V76.012h27.698v12.303h-14.494v23.34h9.617v11.661h-9.617v25.377h14.488v12.698H203.648z"/>
<path d="M313.432,161.391l-14.497-43.199l-4.1-13.729v56.918h-8.704V76.012h8.331l13.201,43.834l3.846,13.858V76.012h8.728v85.379H313.432z"/>
<path d="M210.192,289.133V203.76h13.203v85.373H210.192z"/>
<path d="M139.575,413.103l-1.413-4.491c-1.797,3.84-5.513,5.769-9.358,5.769c-8.976,0-14.741-6.546-14.741-16.8v-54.353c0-9.223,7.056-16.788,16.537-16.788c9.488,0,16.017,7.565,16.017,16.788v15.78h-12.288v-16.287c0-2.05-1.16-3.46-3.463-3.46c-2.191,0-3.599,1.41-3.599,3.46v56.011c0,2.188,1.407,3.731,3.599,3.731c2.297,0,3.58-1.543,3.58-3.731v-17.42h-3.327v-10.26h16.148v42.051H139.575z"/>
<path d="M222.537,413.103l-9.605-38.585l-2.951-11.664v50.249h-11.284v-85.373h12.557l8.469,38.319l2.556,11.935v-50.254h11.167v85.373H222.537z"/>
<path d="M307.916,212.419v76.653h-9.09v-76.653h-11.411v-8.716h31.532v8.716H307.916z"/>
<path d="M387.779,255.365v33.707h-9.235v-33.707l-13.194-51.662h9.234l9.096,39.741l9.097-39.741h8.837L387.779,255.365z"/>
<rect x="279.572" y="363.602" width="47.211" height="10.042"/>
<rect x="298.163" y="345.023" width="10.03" height="47.198"/>
<path d="M124.698,161.508h-9.895v-85.49h9.895c23.265,0.117,25.007,9.304,25.007,42.798C149.705,152.191,147.963,161.391,124.698,161.508z M127.378,148.939c8.837,0,9.412-2.206,9.307-30.235c0.112-27.915-0.47-30.124-9.307-30.124V148.939z"/>
<path d="M135.802,241.835c-5.389-9.487-8.333-12.96-8.333-22.815c0-2.956,1.784-4.364,3.969-4.364c2.05,0,3.593,1.537,3.593,4.364v6.48l11.408-1.073v-4.129c0-11.284-6.02-17.821-15.001-17.821c-11.537,0-17.037,8.599-17.037,19.234c0,9.871,6.79,21.667,11.784,29.609c5,8.59,8.074,14.611,8.074,22.303c0,3.201-1.407,5.13-4.229,5.13c-2.95,0-4.358-2.05-4.358-5.13v-6.901l-11.537,1.097v4.78c0,11.41,6.284,17.824,16.537,17.824c8.328,0,16.402-5.521,16.402-18.849C147.074,261.567,141.444,251.438,135.802,241.835z"/>
</svg>
