<?xml version="1.0" encoding="utf-8"?>
<!-- Generator: Adobe Illustrator 23.0.1, SVG Export Plug-In . SVG Version: 6.00 Build 0)  -->
<svg version="1.1" id="Livello_1" xmlns="http://www.w3.org/2000/svg" xmlns:xlink="http://www.w3.org/1999/xlink" x="0px" y="0px" viewBox="0 0 1086 267" style="enable-background:new 0 0 1086 267;" xml:space="preserve">
<!--
<style type="text/css">
    fill: #B3B3B3;
    }

    .st1 {
        fill: #FFFFFF;
    }

    .st2 {
        fill: #58626B;
    }

    .st3 {
        fill: #F2D51E;
    }

    .st4 {
        fill: #30D840;
    }

    .st5 {
        fill: #00DAFF;
    }

    .st6 {
        fill: #FF7BAC;
    }

    .st7 {
        fill: #F70679;
    }

    .st8 {
        fill: #FF52E7;
    }

    .st9 {
        fill: #FFBB99;
    }

    .st10 {
        fill: #1F3BE5;
    }

    .st11 {
        fill: #E31A1C;
    }
</style>-->

    <g class="first">
        <g>
            <path class="st0" d="M2,212L2,212c0-2.3,1.8-4.1,4.1-4.1l0,0c2.3,0,4.1,1.8,4.1,4.1l0,0c0,2.3-1.8,4.1-4.1,4.1l0,0
			C3.8,216.1,2,214.3,2,212z" />
            <path class="st0" d="M2,188.9L2,188.9c0-2.3,1.8-4.1,4.1-4.1l0,0c2.3,0,4.1,1.8,4.1,4.1l0,0c0,2.3-1.8,4.1-4.1,4.1l0,0
			C3.8,193,2,191.2,2,188.9z" />
            <path class="st0" d="M2,165.8L2,165.8c0-2.3,1.8-4.1,4.1-4.1l0,0c2.3,0,4.1,1.8,4.1,4.1l0,0c0,2.3-1.8,4.1-4.1,4.1l0,0
			C3.8,169.9,2,168.1,2,165.8z" />
            <path class="st0" d="M2,142.7L2,142.7c0-2.3,1.8-4.1,4.1-4.1l0,0c2.3,0,4.1,1.8,4.1,4.1l0,0c0,2.3-1.8,4.1-4.1,4.1l0,0
			C3.8,146.8,2,145,2,142.7z" />
            <path class="st0" d="M2,119.6L2,119.6c0-2.3,1.8-4.1,4.1-4.1l0,0c2.3,0,4.1,1.8,4.1,4.1l0,0c0,2.3-1.8,4.1-4.1,4.1l0,0
			C3.8,123.7,2,121.9,2,119.6z" />
            <path class="st0" d="M2,96.5L2,96.5c0-2.3,1.8-4.1,4.1-4.1l0,0c2.3,0,4.1,1.8,4.1,4.1l0,0c0,2.3-1.8,4.1-4.1,4.1l0,0
			C3.8,100.6,2,98.8,2,96.5z" />
            <path class="st0" d="M2,73.4L2,73.4c0-2.3,1.8-4.1,4.1-4.1l0,0c2.3,0,4.1,1.8,4.1,4.1l0,0c0,2.3-1.8,4.1-4.1,4.1l0,0
			C3.8,77.5,2,75.7,2,73.4z" />
            <path class="st0" d="M2,50.3L2,50.3c0-2.3,1.8-4.1,4.1-4.1l0,0c2.3,0,4.1,1.8,4.1,4.1l0,0c0,2.3-1.8,4.1-4.1,4.1l0,0
			C3.8,54.4,2,52.6,2,50.3z" />
            <path class="st0" d="M2,27.2L2,27.2c0-2.3,1.8-4.1,4.1-4.1l0,0c2.3,0,4.1,1.8,4.1,4.1l0,0c0,2.3-1.8,4.1-4.1,4.1l0,0
			C3.8,31.3,2,29.5,2,27.2z" />
            <path class="st0" d="M2,4.1L2,4.1C2,1.8,3.8,0,6.1,0l0,0c2.3,0,4.1,1.8,4.1,4.1l0,0c0,2.3-1.8,4.1-4.1,4.1l0,0
			C3.8,8.3,2,6.4,2,4.1z" />
            <path class="st0" d="M25.1,212L25.1,212c0-2.3,1.8-4.1,4.1-4.1l0,0c2.3,0,4.1,1.8,4.1,4.1l0,0c0,2.3-1.8,4.1-4.1,4.1l0,0
			C26.9,216.1,25.1,214.3,25.1,212z" />
            <path class="st0" d="M25.1,188.9L25.1,188.9c0-2.3,1.8-4.1,4.1-4.1l0,0c2.3,0,4.1,1.8,4.1,4.1l0,0c0,2.3-1.8,4.1-4.1,4.1l0,0
			C26.9,193,25.1,191.2,25.1,188.9z" />
            <path class="st0" d="M25.1,165.8L25.1,165.8c0-2.3,1.8-4.1,4.1-4.1l0,0c2.3,0,4.1,1.8,4.1,4.1l0,0c0,2.3-1.8,4.1-4.1,4.1l0,0
			C26.9,169.9,25.1,168.1,25.1,165.8z" />
            <path class="st0" d="M25.1,142.7L25.1,142.7c0-2.3,1.8-4.1,4.1-4.1l0,0c2.3,0,4.1,1.8,4.1,4.1l0,0c0,2.3-1.8,4.1-4.1,4.1l0,0
			C26.9,146.8,25.1,145,25.1,142.7z" />
            <path class="st0" d="M25.1,119.6L25.1,119.6c0-2.3,1.8-4.1,4.1-4.1l0,0c2.3,0,4.1,1.8,4.1,4.1l0,0c0,2.3-1.8,4.1-4.1,4.1l0,0
			C26.9,123.7,25.1,121.9,25.1,119.6z" />
            <path class="st0" d="M25.1,96.5L25.1,96.5c0-2.3,1.8-4.1,4.1-4.1l0,0c2.3,0,4.1,1.8,4.1,4.1l0,0c0,2.3-1.8,4.1-4.1,4.1l0,0
			C26.9,100.6,25.1,98.8,25.1,96.5z" />
            <path class="st0" d="M25.1,73.4L25.1,73.4c0-2.3,1.8-4.1,4.1-4.1l0,0c2.3,0,4.1,1.8,4.1,4.1l0,0c0,2.3-1.8,4.1-4.1,4.1l0,0
			C26.9,77.5,25.1,75.7,25.1,73.4z" />
            <path class="st0" d="M25.1,50.3L25.1,50.3c0-2.3,1.8-4.1,4.1-4.1l0,0c2.3,0,4.1,1.8,4.1,4.1l0,0c0,2.3-1.8,4.1-4.1,4.1l0,0
			C26.9,54.4,25.1,52.6,25.1,50.3z" />
            <path class="st0" d="M25.1,27.2L25.1,27.2c0-2.3,1.8-4.1,4.1-4.1l0,0c2.3,0,4.1,1.8,4.1,4.1l0,0c0,2.3-1.8,4.1-4.1,4.1l0,0
			C26.9,31.3,25.1,29.5,25.1,27.2z" />
            <path class="st0" d="M25.1,4.1L25.1,4.1c0-2.3,1.8-4.1,4.1-4.1l0,0c2.3,0,4.1,1.8,4.1,4.1l0,0c0,2.3-1.8,4.1-4.1,4.1l0,0
			C26.9,8.3,25.1,6.4,25.1,4.1z" />
        </g>
        <g id="testo_7_">
            <path class="st1" d="M2.5,231.7v8.3h4.7v1.5H0.9v-9.8H2.5z" />
            <path class="st1" d="M11.4,234.4c1.8,0,3.1,1.1,3.1,2.7v4.4H13v-1h-0.2c-0.3,0.5-0.9,1.2-2.3,1.2c-1.6,0-2.6-0.8-2.6-2.1
			c0-1.2,0.9-1.9,2.5-2l2.6-0.3v-0.2c0-0.8-0.6-1.4-1.6-1.4s-1.6,0.6-2,1.4L8,236.3C8.6,235.5,9.6,234.4,11.4,234.4z M10.8,240.4
			c1.4,0,2.2-0.9,2.2-1.9v-0.1l-2.3,0.2c-0.7,0.1-1.2,0.3-1.2,0.9C9.5,240.1,10,240.4,10.8,240.4z" />
            <path class="st1" d="M21.2,241.5v-1.1H21c-0.3,0.6-0.9,1.3-2.3,1.3c-1.5,0-2.7-1-2.7-2.9v-4.1h1.5v4c0,1.1,0.6,1.7,1.7,1.7
			c1.2,0,1.9-0.8,1.9-2.1v-3.6h1.5v6.9L21.2,241.5L21.2,241.5z" />
            <path class="st1" d="M25.9,234.6v1.1h0.2c0.3-0.6,0.9-1.2,2.3-1.2c1.5,0,2.7,1,2.7,2.9v4.1h-1.5v-4c0-1.1-0.6-1.7-1.7-1.7
			c-1.2,0-1.9,0.8-1.9,2.1v3.6h-1.5v-6.9L25.9,234.6L25.9,234.6z" />
            <path class="st1" d="M35.9,234.4c1.9,0,3.1,1.1,3.4,2.7l-1.5,0.4c-0.1-0.9-0.7-1.6-1.9-1.6s-2.1,0.9-2.1,2.3
			c0,1.4,0.8,2.3,2.1,2.3c1.2,0,1.7-0.7,1.9-1.6l1.5,0.4c-0.3,1.4-1.4,2.7-3.4,2.7s-3.6-1.5-3.6-3.7
			C32.3,235.9,33.9,234.4,35.9,234.4z" />
            <path class="st1" d="M42.2,231.7v4h0.2c0.3-0.6,0.9-1.2,2.3-1.2c1.5,0,2.7,1,2.7,2.9v4.1h-1.5v-4c0-1.1-0.6-1.7-1.7-1.7
			c-1.2,0-1.9,0.8-1.9,2.1v3.6h-1.5v-9.8L42.2,231.7L42.2,231.7z" />
            <path class="st1" d="M56.1,234.4c2,0,3.6,1.5,3.6,3.6s-1.6,3.7-3.6,3.7s-3.6-1.5-3.6-3.7S54.1,234.4,56.1,234.4z M56.1,240.3
			c1.2,0,2-0.9,2-2.3s-0.8-2.3-2-2.3s-2,0.9-2,2.3S54.9,240.3,56.1,240.3z" />
            <path class="st1" d="M62.1,234.6V233c0-0.8,0.5-1.3,1.3-1.3h1.8v1.3H64c-0.3,0-0.4,0.1-0.4,0.4v1.2h1.9v1.3h-1.9v5.6h-1.5v-5.6
			h-1.8v-1.3L62.1,234.6L62.1,234.6z" />
            <path class="st1" d="M71.7,234.6v-2.3h1.5v2.3h2v1.3h-2v3.9c0,0.3,0.1,0.4,0.4,0.4h1.2v1.3H73c-0.7,0-1.3-0.5-1.3-1.3v-4.3h-1.8
			v-1.3L71.7,234.6L71.7,234.6z" />
            <path class="st1" d="M78,231.7v4h0.2c0.3-0.6,0.9-1.2,2.3-1.2c1.5,0,2.7,1,2.7,2.9v4.1h-1.5v-4c0-1.1-0.6-1.7-1.7-1.7
			c-1.2,0-1.9,0.8-1.9,2.1v3.6h-1.5v-9.8L78,231.7L78,231.7z" />
            <path class="st1" d="M87.8,234.4c2,0,3.4,1.4,3.4,3.5v0.7H86c0.1,1.1,0.8,1.8,2,1.8c1,0,1.5-0.5,1.8-1.1L91,240
			c-0.5,0.8-1.3,1.7-3.1,1.7c-2.1,0-3.6-1.6-3.6-3.7C84.4,236,85.8,234.4,87.8,234.4z M89.6,237.4c-0.1-1.1-0.7-1.7-1.8-1.7
			c-1.1,0-1.7,0.6-1.8,1.7H89.6z" />
            <path class="st1" d="M99.6,234.4c1.9,0,3.1,1.1,3.4,2.7l-1.5,0.4c-0.1-0.9-0.7-1.6-1.9-1.6c-1.2,0-2.1,0.9-2.1,2.3
			c0,1.4,0.8,2.3,2.1,2.3c1.2,0,1.7-0.7,1.9-1.6l1.5,0.4c-0.3,1.4-1.4,2.7-3.4,2.7s-3.6-1.5-3.6-3.7C96,235.9,97.6,234.4,99.6,234.4
			z" />
            <path class="st1" d="M107.4,234.4c1.8,0,3.1,1.1,3.1,2.7v4.4H109v-1h-0.2c-0.3,0.5-0.9,1.2-2.3,1.2c-1.6,0-2.6-0.8-2.6-2.1
			c0-1.2,0.9-1.9,2.5-2l2.6-0.3v-0.2c0-0.8-0.6-1.4-1.6-1.4s-1.6,0.6-2,1.4l-1.3-0.7C104.5,235.5,105.5,234.4,107.4,234.4z
			 M106.8,240.4c1.4,0,2.2-0.9,2.2-1.9v-0.1l-2.3,0.2c-0.7,0.1-1.2,0.3-1.2,0.9C105.4,240.1,105.9,240.4,106.8,240.4z" />
            <path class="st1" d="M113.6,234.6v1h0.2c0.3-0.6,0.9-1.1,1.9-1.1s1.6,0.5,1.9,1.2h0.2c0.3-0.6,0.9-1.2,2-1.2
			c1.2,0,2.3,0.9,2.3,2.3v4.7h-1.5V237c0-0.7-0.5-1.1-1.3-1.1s-1.4,0.5-1.4,1.4v4.3h-1.5V237c0-0.7-0.5-1.1-1.2-1.1
			c-0.8,0-1.4,0.5-1.4,1.4v4.3h-1.5v-6.9L113.6,234.6L113.6,234.6z" />
            <path class="st1" d="M123.7,234.6h1.5v1h0.2c0.4-0.6,1-1.2,2.3-1.2c1.8,0,3.2,1.5,3.2,3.6s-1.4,3.7-3.2,3.7
			c-1.3,0-1.9-0.6-2.3-1.2h-0.2v3.8h-1.5V234.6z M129.4,238.1c0-1.5-0.9-2.3-2.1-2.3c-1.2,0-2,0.9-2,2.3c0,1.4,0.8,2.3,2,2.3
			C128.5,240.4,129.4,239.5,129.4,238.1z" />
            <path class="st1" d="M135.3,234.4c1.8,0,3.1,1.1,3.1,2.7v4.4h-1.5v-1h-0.2c-0.3,0.5-0.9,1.2-2.3,1.2c-1.6,0-2.6-0.8-2.6-2.1
			c0-1.2,0.9-1.9,2.5-2l2.6-0.3v-0.2c0-0.8-0.6-1.4-1.6-1.4s-1.6,0.6-2,1.4l-1.3-0.7C132.5,235.5,133.5,234.4,135.3,234.4z
			 M134.7,240.4c1.4,0,2.2-0.9,2.2-1.9v-0.1l-2.3,0.2c-0.7,0.1-1.2,0.3-1.2,0.9C133.4,240.1,133.9,240.4,134.7,240.4z" />
            <path class="st1" d="M140.8,231.4c0.6,0,1.1,0.5,1.1,1.1s-0.5,1.1-1.1,1.1s-1.2-0.5-1.2-1.1C139.7,231.9,140.2,231.4,140.8,231.4z
			 M141.6,241.5h-1.5v-6.9h1.5V241.5z" />
            <path class="st1" d="M150.1,234.6v6.7c0,1.9-1.3,3.2-3.5,3.2c-1.9,0-2.9-0.9-3.6-1.9l1.3-0.8c0.4,0.7,1.1,1.4,2.2,1.4
			c1.2,0,2-0.6,2-1.9v-0.9h-0.2c-0.4,0.6-1,1.2-2.3,1.2c-1.8,0-3.2-1.5-3.2-3.6s1.4-3.5,3.2-3.5c1.3,0,1.9,0.6,2.3,1.2h0.2v-1
			L150.1,234.6L150.1,234.6z M148.6,238c0-1.4-0.8-2.2-2-2.2s-2.1,0.8-2.1,2.2s0.9,2.2,2.1,2.2C147.8,240.2,148.6,239.3,148.6,238z" />
            <path class="st1" d="M153.4,234.6v1.1h0.2c0.3-0.6,0.9-1.2,2.3-1.2c1.5,0,2.7,1,2.7,2.9v4.1H157v-4c0-1.1-0.6-1.7-1.7-1.7
			c-1.2,0-1.9,0.8-1.9,2.1v3.6h-1.5v-6.9L153.4,234.6L153.4,234.6z" />
            <path class="st1" d="M165.9,231.7v4.1h4v-4.1h1.6v9.8h-1.6v-4.2h-4v4.2h-1.6v-9.8H165.9z" />
            <path class="st1" d="M176.3,234.4c2,0,3.4,1.4,3.4,3.5v0.7h-5.2c0.1,1.1,0.8,1.8,2,1.8c1,0,1.5-0.5,1.8-1.1l1.3,0.7
			c-0.5,0.8-1.3,1.7-3.1,1.7c-2.1,0-3.6-1.6-3.6-3.7C172.8,236,174.3,234.4,176.3,234.4z M178.1,237.4c-0.1-1.1-0.7-1.7-1.8-1.7
			s-1.7,0.6-1.8,1.7H178.1z" />
            <path class="st1" d="M187.1,231.7v1.5h-4.6v2.7h4.3v1.5h-4.3v4.2h-1.6v-9.8L187.1,231.7L187.1,231.7z" />
            <path class="st1" d="M191.4,234.4c2,0,3.6,1.5,3.6,3.6s-1.6,3.7-3.6,3.7s-3.6-1.5-3.6-3.7S189.4,234.4,191.4,234.4z M191.4,240.3
			c1.2,0,2-0.9,2-2.3s-0.8-2.3-2-2.3s-2,0.9-2,2.3S190.2,240.3,191.4,240.3z" />
            <path class="st1" d="M197.8,235.7h0.2c0.3-0.8,0.8-1.1,1.8-1.1h0.7v1.4h-1.1c-0.9,0-1.5,0.5-1.5,1.5v4h-1.5v-6.9h1.5L197.8,235.7
			L197.8,235.7z" />
            <path class="st1" d="M208.5,234.6v0.4h-1.6v-0.3c0-1.2-0.8-1.8-2-1.8c-1,0-1.7,0.5-1.7,1.3c0,0.9,0.7,1.2,2,1.5l0.4,0.1
			c1.9,0.4,3.1,1.2,3.1,2.9c0,1.9-1.5,3-3.6,3c-2.4,0-3.9-1.3-3.9-3.6v-0.4h1.6v0.3c0,1.4,0.8,2.2,2.3,2.2c1.2,0,1.9-0.7,1.9-1.5
			c0-0.9-0.7-1.2-1.9-1.5l-0.4-0.1c-1.9-0.4-3.1-1.1-3.1-2.9c0-1.7,1.5-2.8,3.3-2.8C206.9,231.5,208.5,232.6,208.5,234.6z" />
            <path class="st1" d="M211.6,231.7v4h0.2c0.3-0.6,0.9-1.2,2.3-1.2c1.5,0,2.7,1,2.7,2.9v4.1h-1.5v-4c0-1.1-0.6-1.7-1.7-1.7
			c-1.2,0-1.9,0.8-1.9,2.1v3.6h-1.5v-9.8L211.6,231.7L211.6,231.7z" />
            <path class="st1" d="M221.4,234.4c2,0,3.4,1.4,3.4,3.5v0.7h-5.2c0.1,1.1,0.8,1.8,2,1.8c1,0,1.5-0.5,1.8-1.1l1.3,0.7
			c-0.5,0.8-1.3,1.7-3.1,1.7c-2.1,0-3.6-1.6-3.6-3.7C217.9,236,219.4,234.4,221.4,234.4z M223.2,237.4c-0.1-1.1-0.7-1.7-1.8-1.7
			s-1.7,0.6-1.8,1.7H223.2z" />
            <path class="st2" d="M3.3,247.5l2.3,7.1h0.1v-7.1h1.4v8.4H4.6l-2.3-7.1H2.2v7.1H0.8v-8.4H3.3z" />
            <path class="st2" d="M11.7,247.4c2.1,0,3.4,1.3,3.4,3.5v1.8c0,2.2-1.3,3.5-3.4,3.5s-3.4-1.3-3.4-3.5v-1.8
			C8.3,248.7,9.6,247.4,11.7,247.4z M9.7,252.7c0,1.3,0.6,2.1,2,2.1s2-0.8,2-2.1v-1.9c0-1.3-0.7-2.1-2-2.1s-2,0.8-2,2.1V252.7z" />
            <path class="st2" d="M22.2,247.5v1.3h-2.6v7.1h-1.4v-7.1h-2.6v-1.3H22.2z" />
            <path class="st2" d="M30.9,252.6l1.8,3.4h-1.5l-1.7-3.3H28v3.3h-1.4v-8.4h3.6c1.6,0,2.6,1,2.6,2.6C32.8,251.4,32,252.3,30.9,252.6
			z M27.9,251.4H30c0.9,0,1.4-0.5,1.4-1.3s-0.5-1.3-1.4-1.3h-2.1V251.4z" />
            <path class="st2" d="M39.4,247.5v1.3h-4.1v2.3H39v1.3h-3.7v2.3h4.1v1.3h-5.5v-8.4h5.5V247.5z" />
            <path class="st2" d="M42,247.5v7.1h4v1.3h-5.4v-8.4L42,247.5L42,247.5z" />
            <path class="st2" d="M52.4,247.5v1.3h-4.1v2.3H52v1.3h-3.7v2.3h4.1v1.3H47v-8.4h5.4V247.5z" />
            <path class="st2" d="M54.5,247.5l2,7.1h0.1l2-7.1h1.5l-2.5,8.4h-2.2l-2.5-8.4H54.5z" />
            <path class="st2" d="M64.5,247.5l2.5,8.4h-1.5L65,254h-3.2l-0.6,1.9h-1.5l2.5-8.4H64.5z M64.6,252.7l-1.2-4h-0.1l-1.2,4H64.6z" />
            <path class="st2" d="M70.4,247.5l2.3,7.1h0.1v-7.1h1.4v8.4h-2.5l-2.3-7.1h-0.1v7.1h-1.4v-8.4H70.4z" />
            <path class="st2" d="M81.8,247.5v1.3h-2.6v7.1h-1.4v-7.1h-2.6v-1.3H81.8z" />
        </g>
    </g>
    <g data-start="151" data-end="190">
        <g>
            <path class="st3" d="M64.9,212L64.9,212c0-2.3,1.8-4.1,4.1-4.1l0,0c2.3,0,4.1,1.8,4.1,4.1l0,0c0,2.3-1.8,4.1-4.1,4.1l0,0
			C66.8,216.1,64.9,214.3,64.9,212z" />
            <path class="st3" d="M64.9,188.9L64.9,188.9c0-2.3,1.8-4.1,4.1-4.1l0,0c2.3,0,4.1,1.8,4.1,4.1l0,0c0,2.3-1.8,4.1-4.1,4.1l0,0
			C66.8,193,64.9,191.2,64.9,188.9z" />
            <path class="st3" d="M64.9,165.8L64.9,165.8c0-2.3,1.8-4.1,4.1-4.1l0,0c2.3,0,4.1,1.8,4.1,4.1l0,0c0,2.3-1.8,4.1-4.1,4.1l0,0
			C66.8,169.9,64.9,168.1,64.9,165.8z" />
            <path class="st3" d="M64.9,142.7L64.9,142.7c0-2.3,1.8-4.1,4.1-4.1l0,0c2.3,0,4.1,1.8,4.1,4.1l0,0c0,2.3-1.8,4.1-4.1,4.1l0,0
			C66.8,146.8,64.9,145,64.9,142.7z" />
            <path class="st3" d="M64.9,119.6L64.9,119.6c0-2.3,1.8-4.1,4.1-4.1l0,0c2.3,0,4.1,1.8,4.1,4.1l0,0c0,2.3-1.8,4.1-4.1,4.1l0,0
			C66.8,123.7,64.9,121.9,64.9,119.6z" />
            <path class="st3" d="M64.9,96.5L64.9,96.5c0-2.3,1.8-4.1,4.1-4.1l0,0c2.3,0,4.1,1.8,4.1,4.1l0,0c0,2.3-1.8,4.1-4.1,4.1l0,0
			C66.8,100.6,64.9,98.8,64.9,96.5z" />
            <path class="st3" d="M64.9,73.4L64.9,73.4c0-2.3,1.8-4.1,4.1-4.1l0,0c2.3,0,4.1,1.8,4.1,4.1l0,0c0,2.3-1.8,4.1-4.1,4.1l0,0
			C66.8,77.5,64.9,75.7,64.9,73.4z" />
        </g>
        <g id="testo_8_">
            <path class="st1" d="M72.1,231v1.5h-4.6v2.7h4.3v1.5h-4.3v4.2h-1.6V231H72.1z" />
            <path class="st1" d="M76.3,233.7c2,0,3.4,1.4,3.4,3.5v0.7h-5.2c0.1,1.1,0.8,1.8,2,1.8c1,0,1.5-0.5,1.8-1.1l1.3,0.7
			c-0.5,0.8-1.3,1.7-3.1,1.7c-2.1,0-3.6-1.6-3.6-3.7C72.8,235.3,74.3,233.7,76.3,233.7z M78.1,236.8c-0.1-1.1-0.7-1.7-1.8-1.7
			c-1.1,0-1.7,0.6-1.8,1.7H78.1z" />
            <path class="st1" d="M82.4,233.9v1h0.2c0.3-0.6,0.9-1.1,1.9-1.1s1.6,0.5,1.9,1.2h0.2c0.3-0.6,0.9-1.2,2-1.2c1.2,0,2.3,0.9,2.3,2.3
			v4.7h-1.5v-4.6c0-0.7-0.5-1.1-1.3-1.1s-1.4,0.5-1.4,1.4v4.3h-1.5v-4.6c0-0.7-0.5-1.1-1.2-1.1c-0.8,0-1.4,0.5-1.4,1.4v4.3h-1.5
			v-6.9L82.4,233.9L82.4,233.9z" />
            <path class="st1" d="M93.3,230.8c0.6,0,1.1,0.5,1.1,1.1s-0.5,1.1-1.1,1.1s-1.2-0.5-1.2-1.1C92.1,231.2,92.6,230.8,93.3,230.8z
			 M94.1,240.8h-1.5v-6.9h1.5V240.8z" />
            <path class="st1" d="M97.3,233.9v1.1h0.2c0.3-0.6,0.9-1.2,2.3-1.2c1.5,0,2.7,1,2.7,2.9v4.1H101v-4c0-1.1-0.6-1.7-1.7-1.7
			c-1.2,0-1.9,0.8-1.9,2.1v3.6h-1.5v-6.9L97.3,233.9L97.3,233.9z" />
            <path class="st1" d="M104.9,230.8c0.6,0,1.1,0.5,1.1,1.1s-0.5,1.1-1.1,1.1s-1.2-0.5-1.2-1.1C103.8,231.2,104.3,230.8,104.9,230.8z
			 M105.7,240.8h-1.5v-6.9h1.5V240.8z" />
            <path class="st1" d="M110,233.7c1.6,0,2.7,0.7,3.5,1.7l-1.1,0.9c-0.7-1-1.5-1.3-2.3-1.3s-1.2,0.3-1.2,0.8c0,0.4,0.4,0.7,1.1,0.8
			l0.8,0.1c1.5,0.3,2.7,0.8,2.7,2.1s-1.2,2.2-2.9,2.2c-1.8,0-3.1-0.9-3.8-2.1l1.3-0.7c0.6,1.2,1.5,1.6,2.5,1.6
			c0.9,0,1.4-0.4,1.4-0.9s-0.5-0.7-1.3-0.9l-0.8-0.1c-1.5-0.3-2.6-0.8-2.6-2.1S108.4,233.7,110,233.7z" />
            <path class="st1" d="M116.3,233.9v1h0.2c0.3-0.6,0.9-1.1,1.9-1.1s1.6,0.5,1.9,1.2h0.2c0.3-0.6,0.9-1.2,2-1.2
			c1.2,0,2.3,0.9,2.3,2.3v4.7h-1.5v-4.6c0-0.7-0.5-1.1-1.3-1.1s-1.4,0.5-1.4,1.4v4.3H119v-4.6c0-0.7-0.5-1.1-1.2-1.1
			c-0.8,0-1.4,0.5-1.4,1.4v4.3h-1.5v-6.9L116.3,233.9L116.3,233.9z" />
            <path class="st1" d="M137.2,240.8h-1.5v-1h-0.2c-0.4,0.6-1,1.2-2.3,1.2c-1.8,0-3.2-1.5-3.2-3.7c0-2.1,1.4-3.6,3.2-3.6
			c1.3,0,1.9,0.6,2.3,1.2h0.2V231h1.5V240.8z M131.5,237.4c0,1.5,0.9,2.3,2.1,2.3c1.2,0,2-0.9,2-2.3c0-1.4-0.8-2.3-2-2.3
			C132.4,235.1,131.5,235.9,131.5,237.4z" />
            <path class="st1" d="M141.9,233.7c2,0,3.4,1.4,3.4,3.5v0.7h-5.2c0.1,1.1,0.8,1.8,2,1.8c1,0,1.5-0.5,1.8-1.1l1.3,0.7
			c-0.5,0.8-1.3,1.7-3.1,1.7c-2.1,0-3.6-1.6-3.6-3.7C138.5,235.3,139.9,233.7,141.9,233.7z M143.7,236.8c-0.1-1.1-0.7-1.7-1.8-1.7
			s-1.7,0.6-1.8,1.7H143.7z" />
            <path class="st1" d="M153.4,233.9v6.9h-1.5v-5.6h-2.7v5.6h-1.5v-5.6h-1.8v-1.3h1.8v-1.6c0-0.8,0.5-1.3,1.3-1.3h1.6v1.3h-1
			c-0.3,0-0.4,0.1-0.4,0.4v1.2L153.4,233.9L153.4,233.9z M153.8,231.9c0,0.6-0.5,1.1-1.1,1.1s-1.2-0.5-1.2-1.1
			c0-0.7,0.5-1.1,1.2-1.1S153.8,231.2,153.8,231.9z" />
            <path class="st1" d="M156.7,233.9v1.1h0.2c0.3-0.6,0.9-1.2,2.3-1.2c1.5,0,2.7,1,2.7,2.9v4.1h-1.5v-4c0-1.1-0.6-1.7-1.7-1.7
			c-1.2,0-1.9,0.8-1.9,2.1v3.6h-1.5v-6.9L156.7,233.9L156.7,233.9z" />
            <path class="st1" d="M164.3,230.8c0.6,0,1.1,0.5,1.1,1.1s-0.5,1.1-1.1,1.1s-1.2-0.5-1.2-1.1C163.1,231.2,163.6,230.8,164.3,230.8z
			 M165,240.8h-1.5v-6.9h1.5V240.8z" />
            <path class="st1" d="M167.9,233.9v-2.3h1.5v2.3h2v1.3h-2v3.9c0,0.3,0.1,0.4,0.4,0.4h1.2v1.3h-1.8c-0.7,0-1.3-0.5-1.3-1.3v-4.3H166
			v-1.3L167.9,233.9L167.9,233.9z" />
            <path class="st1" d="M173.4,230.8c0.6,0,1.1,0.5,1.1,1.1s-0.5,1.1-1.1,1.1s-1.2-0.5-1.2-1.1C172.3,231.2,172.8,230.8,173.4,230.8z
			 M174.2,240.8h-1.5v-6.9h1.5V240.8z" />
            <path class="st1" d="M179.1,233.7c2,0,3.6,1.5,3.6,3.6s-1.6,3.7-3.6,3.7s-3.6-1.5-3.6-3.7S177.1,233.7,179.1,233.7z M179.1,239.7
			c1.2,0,2-0.9,2-2.3s-0.8-2.3-2-2.3s-2,0.9-2,2.3S177.9,239.7,179.1,239.7z" />
            <path class="st1" d="M185.5,233.9v1.1h0.2c0.3-0.6,0.9-1.2,2.3-1.2c1.5,0,2.7,1,2.7,2.9v4.1h-1.5v-4c0-1.1-0.6-1.7-1.7-1.7
			c-1.2,0-1.9,0.8-1.9,2.1v3.6H184v-6.9L185.5,233.9L185.5,233.9z" />
        </g>
    </g>
    <g data-start="191" data-end="190">
        <g>
            <path class="st4" d="M104.8,212L104.8,212c0-2.3,1.8-4.1,4.1-4.1l0,0c2.3,0,4.1,1.8,4.1,4.1l0,0c0,2.3-1.8,4.1-4.1,4.1l0,0
			C106.6,216.1,104.8,214.3,104.8,212z" />
            <path class="st4" d="M104.8,188.9L104.8,188.9c0-2.3,1.8-4.1,4.1-4.1l0,0c2.3,0,4.1,1.8,4.1,4.1l0,0c0,2.3-1.8,4.1-4.1,4.1l0,0
			C106.6,193,104.8,191.2,104.8,188.9z" />
            <path class="st4" d="M104.8,165.8L104.8,165.8c0-2.3,1.8-4.1,4.1-4.1l0,0c2.3,0,4.1,1.8,4.1,4.1l0,0c0,2.3-1.8,4.1-4.1,4.1l0,0
			C106.6,169.9,104.8,168.1,104.8,165.8z" />
            <path class="st4" d="M104.8,142.7L104.8,142.7c0-2.3,1.8-4.1,4.1-4.1l0,0c2.3,0,4.1,1.8,4.1,4.1l0,0c0,2.3-1.8,4.1-4.1,4.1l0,0
			C106.6,146.8,104.8,145,104.8,142.7z" />
            <path class="st4" d="M104.8,119.6L104.8,119.6c0-2.3,1.8-4.1,4.1-4.1l0,0c2.3,0,4.1,1.8,4.1,4.1l0,0c0,2.3-1.8,4.1-4.1,4.1l0,0
			C106.6,123.7,104.8,121.9,104.8,119.6z" />
            <path class="st4" d="M104.8,96.5L104.8,96.5c0-2.3,1.8-4.1,4.1-4.1l0,0c2.3,0,4.1,1.8,4.1,4.1l0,0c0,2.3-1.8,4.1-4.1,4.1l0,0
			C106.6,100.6,104.8,98.8,104.8,96.5z" />
        </g>
        <g id="testo_9_">
            <path class="st1" d="M109.9,229.9c1.8,0,3.1,1.2,3.1,3s-1.3,3-3.1,3h-2.3v3.8H106v-9.8H109.9z M107.6,234.4h2.1
			c1,0,1.6-0.6,1.6-1.5c0-1-0.6-1.5-1.6-1.5h-2.1V234.4z" />
            <path class="st1" d="M117,232.6c2,0,3.4,1.4,3.4,3.5v0.7h-5.2c0.1,1.1,0.8,1.8,2,1.8c1,0,1.5-0.5,1.8-1.1l1.3,0.7
			c-0.5,0.8-1.3,1.7-3.1,1.7c-2.1,0-3.6-1.6-3.6-3.7C113.5,234.1,115,232.6,117,232.6z M118.8,235.6c-0.1-1.1-0.7-1.7-1.8-1.7
			c-1.1,0-1.7,0.6-1.8,1.7H118.8z" />
            <path class="st1" d="M123.1,233.8h0.2c0.3-0.8,0.8-1.1,1.8-1.1h0.7v1.4h-1.1c-0.9,0-1.5,0.5-1.5,1.5v4h-1.5v-6.9h1.5L123.1,233.8
			L123.1,233.8z" />
            <path class="st1" d="M129.2,232.6c1.6,0,2.7,0.7,3.5,1.7l-1.1,0.9c-0.7-1-1.5-1.3-2.3-1.3s-1.2,0.3-1.2,0.8c0,0.4,0.4,0.7,1.1,0.8
			l0.8,0.1c1.5,0.3,2.7,0.8,2.7,2.1s-1.2,2.2-2.9,2.2c-1.8,0-3.1-0.9-3.8-2.1l1.3-0.7c0.6,1.2,1.5,1.6,2.5,1.6
			c0.9,0,1.4-0.4,1.4-0.9s-0.5-0.7-1.3-0.9l-0.8-0.1c-1.5-0.3-2.6-0.8-2.6-2.1S127.7,232.6,129.2,232.6z" />
            <path class="st1" d="M137.2,232.6c2,0,3.6,1.5,3.6,3.6s-1.6,3.7-3.6,3.7s-3.6-1.5-3.6-3.7S135.2,232.6,137.2,232.6z M137.2,238.5
			c1.2,0,2-0.9,2-2.3s-0.8-2.3-2-2.3s-2,0.9-2,2.3S136,238.5,137.2,238.5z" />
            <path class="st1" d="M143.6,232.8v1.1h0.2c0.3-0.6,0.9-1.2,2.3-1.2c1.5,0,2.7,1,2.7,2.9v4.1h-1.5v-4c0-1.1-0.6-1.7-1.7-1.7
			c-1.2,0-1.9,0.8-1.9,2.1v3.6h-1.5v-6.9L143.6,232.8L143.6,232.8z" />
            <path class="st1" d="M153.5,232.6c1.8,0,3.1,1.1,3.1,2.7v4.4h-1.5v-1h-0.2c-0.3,0.5-0.9,1.2-2.3,1.2c-1.6,0-2.6-0.8-2.6-2.1
			c0-1.2,0.9-1.9,2.5-2l2.6-0.3v-0.2c0-0.8-0.6-1.4-1.6-1.4s-1.6,0.6-2,1.4l-1.3-0.7C150.7,233.7,151.7,232.6,153.5,232.6z
			 M152.9,238.6c1.4,0,2.2-0.9,2.2-1.9v-0.1l-2.3,0.2c-0.7,0.1-1.2,0.3-1.2,0.9C151.6,238.2,152.1,238.6,152.9,238.6z" />
            <path class="st1" d="M159.8,239.7h-1.5v-9.8h1.5V239.7z" />
            <path class="st1" d="M168.1,232.6c1.6,0,2.7,0.7,3.5,1.7l-1.1,0.9c-0.7-1-1.5-1.3-2.3-1.3s-1.2,0.3-1.2,0.8c0,0.4,0.4,0.7,1.1,0.8
			l0.8,0.1c1.5,0.3,2.7,0.8,2.7,2.1s-1.2,2.2-2.9,2.2c-1.8,0-3.1-0.9-3.8-2.1l1.3-0.7c0.6,1.2,1.5,1.6,2.5,1.6
			c0.9,0,1.4-0.4,1.4-0.9s-0.5-0.7-1.3-0.9l-0.8-0.1c-1.5-0.3-2.6-0.8-2.6-2.1S166.5,232.6,168.1,232.6z" />
            <path class="st1" d="M175.9,232.6c2,0,3.4,1.4,3.4,3.5v0.7h-5.2c0.1,1.1,0.8,1.8,2,1.8c1,0,1.5-0.5,1.8-1.1l1.3,0.7
			c-0.5,0.8-1.3,1.7-3.1,1.7c-2.1,0-3.6-1.6-3.6-3.7C172.5,234.1,173.9,232.6,175.9,232.6z M177.7,235.6c-0.1-1.1-0.7-1.7-1.8-1.7
			s-1.7,0.6-1.8,1.7H177.7z" />
            <path class="st1" d="M181.6,232.8l1.7,2.5h0.2l1.7-2.5h1.8l-2.5,3.4l2.6,3.5h-1.8l-1.8-2.5h-0.2l-1.8,2.5h-1.8l2.6-3.5l-2.5-3.4
			H181.6z" />
            <path class="st1" d="M189,229.6c0.6,0,1.1,0.5,1.1,1.1s-0.5,1.1-1.1,1.1s-1.2-0.5-1.2-1.1C187.9,230,188.4,229.6,189,229.6z
			 M189.8,239.7h-1.5v-6.9h1.5V239.7z" />
            <path class="st1" d="M194,232.6c1.6,0,2.7,0.7,3.5,1.7l-1.1,0.9c-0.7-1-1.5-1.3-2.3-1.3s-1.2,0.3-1.2,0.8c0,0.4,0.4,0.7,1.1,0.8
			l0.8,0.1c1.5,0.3,2.7,0.8,2.7,2.1s-1.2,2.2-2.9,2.2c-1.8,0-3.1-0.9-3.8-2.1l1.3-0.7c0.6,1.2,1.5,1.6,2.5,1.6
			c0.9,0,1.4-0.4,1.4-0.9s-0.5-0.7-1.3-0.9l-0.8-0.1c-1.5-0.3-2.6-0.8-2.6-2.1S192.5,232.6,194,232.6z" />
            <path class="st1" d="M200.4,232.8v1h0.2c0.3-0.6,0.9-1.1,1.9-1.1s1.6,0.5,1.9,1.2h0.2c0.3-0.6,0.9-1.2,2-1.2
			c1.2,0,2.3,0.9,2.3,2.3v4.7h-1.5v-4.6c0-0.7-0.5-1.1-1.3-1.1s-1.4,0.5-1.4,1.4v4.3h-1.5v-4.6c0-0.7-0.5-1.1-1.2-1.1
			c-0.8,0-1.4,0.5-1.4,1.4v4.3h-1.5v-6.9L200.4,232.8L200.4,232.8z" />
            <path class="st1" d="M217.5,232.6c2,0,3.4,1.4,3.4,3.5v0.7h-5.2c0.1,1.1,0.8,1.8,2,1.8c1,0,1.5-0.5,1.8-1.1l1.3,0.7
			c-0.5,0.8-1.3,1.7-3.1,1.7c-2.1,0-3.6-1.6-3.6-3.7C214,234.1,215.5,232.6,217.5,232.6z M219.3,235.6c-0.1-1.1-0.7-1.7-1.8-1.7
			s-1.7,0.6-1.8,1.7H219.3z" />
            <path class="st1" d="M223.1,232.8l1.7,2.5h0.2l1.7-2.5h1.8l-2.5,3.4l2.6,3.5h-1.8l-1.8-2.5h-0.2l-1.8,2.5h-1.8l2.6-3.5l-2.5-3.4
			H223.1z" />
            <path class="st1" d="M229.8,232.8h1.5v1h0.2c0.4-0.6,1-1.2,2.3-1.2c1.8,0,3.2,1.5,3.2,3.6s-1.4,3.7-3.2,3.7
			c-1.3,0-1.9-0.6-2.3-1.2h-0.2v3.8h-1.5V232.8z M235.5,236.2c0-1.5-0.9-2.3-2.1-2.3c-1.2,0-2,0.9-2,2.3c0,1.4,0.8,2.3,2,2.3
			C234.6,238.5,235.5,237.7,235.5,236.2z" />
            <path class="st1" d="M241.4,232.6c2,0,3.4,1.4,3.4,3.5v0.7h-5.2c0.1,1.1,0.8,1.8,2,1.8c1,0,1.5-0.5,1.8-1.1l1.3,0.7
			c-0.5,0.8-1.3,1.7-3.1,1.7c-2.1,0-3.6-1.6-3.6-3.7C237.9,234.1,239.3,232.6,241.4,232.6z M243.1,235.6c-0.1-1.1-0.7-1.7-1.8-1.7
			s-1.7,0.6-1.8,1.7H243.1z" />
            <path class="st1" d="M247.5,233.8h0.2c0.3-0.8,0.8-1.1,1.8-1.1h0.7v1.4h-1.1c-0.9,0-1.5,0.5-1.5,1.5v4H246v-6.9h1.5V233.8z" />
            <path class="st1" d="M252,229.6c0.6,0,1.1,0.5,1.1,1.1s-0.5,1.1-1.1,1.1s-1.2-0.5-1.2-1.1C250.8,230,251.4,229.6,252,229.6z
			 M252.8,239.7h-1.5v-6.9h1.5V239.7z" />
            <path class="st1" d="M257.6,232.6c2,0,3.4,1.4,3.4,3.5v0.7h-5.2c0.1,1.1,0.8,1.8,2,1.8c1,0,1.5-0.5,1.8-1.1l1.3,0.7
			c-0.5,0.8-1.3,1.7-3.1,1.7c-2.1,0-3.6-1.6-3.6-3.7C254.1,234.1,255.6,232.6,257.6,232.6z M259.4,235.6c-0.1-1.1-0.7-1.7-1.8-1.7
			c-1.1,0-1.7,0.6-1.8,1.7H259.4z" />
            <path class="st1" d="M263.7,232.8v1.1h0.2c0.3-0.6,0.9-1.2,2.3-1.2c1.5,0,2.7,1,2.7,2.9v4.1h-1.5v-4c0-1.1-0.6-1.7-1.7-1.7
			c-1.2,0-1.9,0.8-1.9,2.1v3.6h-1.5v-6.9L263.7,232.8L263.7,232.8z" />
            <path class="st1" d="M273.7,232.6c1.9,0,3.1,1.1,3.4,2.7l-1.5,0.4c-0.1-0.9-0.7-1.6-1.9-1.6c-1.2,0-2.1,0.9-2.1,2.3
			c0,1.4,0.8,2.3,2.1,2.3c1.2,0,1.7-0.7,1.9-1.6l1.5,0.4c-0.3,1.4-1.4,2.7-3.4,2.7s-3.6-1.5-3.6-3.7
			C270.1,234.1,271.7,232.6,273.7,232.6z" />
            <path class="st1" d="M281.4,232.6c2,0,3.4,1.4,3.4,3.5v0.7h-5.2c0.1,1.1,0.8,1.8,2,1.8c1,0,1.5-0.5,1.8-1.1l1.3,0.7
			c-0.5,0.8-1.3,1.7-3.1,1.7c-2.1,0-3.6-1.6-3.6-3.7C278,234.1,279.4,232.6,281.4,232.6z M283.2,235.6c-0.1-1.1-0.7-1.7-1.8-1.7
			c-1.1,0-1.7,0.6-1.8,1.7H283.2z" />
        </g>
    </g>
    <g>
        <g>
            <path class="st5" d="M144.7,212L144.7,212c0-2.3,1.8-4.1,4.1-4.1l0,0c2.3,0,4.1,1.8,4.1,4.1l0,0c0,2.3-1.8,4.1-4.1,4.1l0,0
			C146.5,216.1,144.7,214.3,144.7,212z" />
            <path class="st5" d="M144.7,188.9L144.7,188.9c0-2.3,1.8-4.1,4.1-4.1l0,0c2.3,0,4.1,1.8,4.1,4.1l0,0c0,2.3-1.8,4.1-4.1,4.1l0,0
			C146.5,193,144.7,191.2,144.7,188.9z" />
            <path class="st5" d="M144.7,165.8L144.7,165.8c0-2.3,1.8-4.1,4.1-4.1l0,0c2.3,0,4.1,1.8,4.1,4.1l0,0c0,2.3-1.8,4.1-4.1,4.1l0,0
			C146.5,169.9,144.7,168.1,144.7,165.8z" />
            <path class="st5" d="M144.7,142.7L144.7,142.7c0-2.3,1.8-4.1,4.1-4.1l0,0c2.3,0,4.1,1.8,4.1,4.1l0,0c0,2.3-1.8,4.1-4.1,4.1l0,0
			C146.5,146.8,144.7,145,144.7,142.7z" />
            <path class="st5" d="M144.7,119.6L144.7,119.6c0-2.3,1.8-4.1,4.1-4.1l0,0c2.3,0,4.1,1.8,4.1,4.1l0,0c0,2.3-1.8,4.1-4.1,4.1l0,0
			C146.5,123.7,144.7,121.9,144.7,119.6z" />
            <path class="st5" d="M144.7,96.5L144.7,96.5c0-2.3,1.8-4.1,4.1-4.1l0,0c2.3,0,4.1,1.8,4.1,4.1l0,0c0,2.3-1.8,4.1-4.1,4.1l0,0
			C146.5,100.6,144.7,98.8,144.7,96.5z" />
        </g>
        <g id="testo_10_">
            <path class="st1" d="M151.1,230v1.5h-4.6v2.7h4.3v1.5h-4.3v4.2h-1.6V230H151.1z" />
            <path class="st1" d="M155.3,232.7c2,0,3.4,1.4,3.4,3.5v0.7h-5.2c0.1,1.1,0.8,1.8,2,1.8c1,0,1.5-0.5,1.8-1.1l1.3,0.7
			c-0.5,0.8-1.3,1.7-3.1,1.7c-2.1,0-3.6-1.6-3.6-3.7C151.8,234.3,153.3,232.7,155.3,232.7z M157.1,235.8c-0.1-1.1-0.7-1.7-1.8-1.7
			s-1.7,0.6-1.8,1.7H157.1z" />
            <path class="st1" d="M161.4,232.9v1h0.2c0.3-0.6,0.9-1.1,1.9-1.1s1.6,0.5,1.9,1.2h0.2c0.3-0.6,0.9-1.2,2-1.2
			c1.2,0,2.3,0.9,2.3,2.3v4.7h-1.5v-4.6c0-0.7-0.5-1.1-1.3-1.1s-1.4,0.5-1.4,1.4v4.3h-1.5v-4.6c0-0.7-0.5-1.1-1.2-1.1
			c-0.8,0-1.4,0.5-1.4,1.4v4.3h-1.5v-6.9L161.4,232.9L161.4,232.9z" />
            <path class="st1" d="M172.3,229.8c0.6,0,1.1,0.5,1.1,1.1s-0.5,1.1-1.1,1.1s-1.2-0.5-1.2-1.1C171.1,230.2,171.7,229.8,172.3,229.8z
			 M173.1,239.8h-1.5v-6.9h1.5V239.8z" />
            <path class="st1" d="M176.3,232.9v1.1h0.2c0.3-0.6,0.9-1.2,2.3-1.2c1.5,0,2.7,1,2.7,2.9v4.1H180v-4c0-1.1-0.6-1.7-1.7-1.7
			c-1.2,0-1.9,0.8-1.9,2.1v3.6h-1.5v-6.9L176.3,232.9L176.3,232.9z" />
            <path class="st1" d="M183.9,229.8c0.6,0,1.1,0.5,1.1,1.1s-0.5,1.1-1.1,1.1s-1.2-0.5-1.2-1.1C182.8,230.2,183.3,229.8,183.9,229.8z
			 M184.7,239.8h-1.5v-6.9h1.5V239.8z" />
            <path class="st1" d="M189,232.7c1.6,0,2.7,0.7,3.5,1.7l-1.1,0.9c-0.7-1-1.5-1.3-2.3-1.3s-1.2,0.3-1.2,0.8c0,0.4,0.4,0.7,1.1,0.8
			l0.8,0.1c1.5,0.3,2.7,0.8,2.7,2.1s-1.2,2.2-2.9,2.2c-1.8,0-3.1-0.9-3.8-2.1l1.3-0.7c0.6,1.2,1.5,1.6,2.5,1.6
			c0.9,0,1.4-0.4,1.4-0.9s-0.5-0.7-1.3-0.9l-0.8-0.1c-1.5-0.3-2.6-0.8-2.6-2.1S187.4,232.7,189,232.7z" />
            <path class="st1" d="M195.3,232.9v1h0.2c0.3-0.6,0.9-1.1,1.9-1.1s1.6,0.5,1.9,1.2h0.2c0.3-0.6,0.9-1.2,2-1.2
			c1.2,0,2.3,0.9,2.3,2.3v4.7h-1.5v-4.6c0-0.7-0.5-1.1-1.3-1.1s-1.4,0.5-1.4,1.4v4.3H198v-4.6c0-0.7-0.5-1.1-1.2-1.1
			c-0.8,0-1.4,0.5-1.4,1.4v4.3h-1.5v-6.9L195.3,232.9L195.3,232.9z" />
            <path class="st1" d="M210.9,232.9v1h0.2c0.3-0.6,0.9-1.1,1.9-1.1s1.6,0.5,1.9,1.2h0.2c0.3-0.6,0.9-1.2,2-1.2
			c1.2,0,2.3,0.9,2.3,2.3v4.7h-1.5v-4.6c0-0.7-0.5-1.1-1.3-1.1s-1.4,0.5-1.4,1.4v4.3h-1.5v-4.6c0-0.7-0.5-1.1-1.2-1.1
			c-0.8,0-1.4,0.5-1.4,1.4v4.3h-1.5v-6.9L210.9,232.9L210.9,232.9z" />
            <path class="st1" d="M221.8,229.8c0.6,0,1.1,0.5,1.1,1.1s-0.5,1.1-1.1,1.1s-1.2-0.5-1.2-1.1C220.6,230.2,221.1,229.8,221.8,229.8z
			 M222.5,239.8H221v-6.9h1.5V239.8z" />
            <path class="st1" d="M226.8,232.7c1.6,0,2.7,0.7,3.5,1.7l-1.1,0.9c-0.7-1-1.5-1.3-2.3-1.3s-1.2,0.3-1.2,0.8c0,0.4,0.4,0.7,1.1,0.8
			l0.8,0.1c1.5,0.3,2.7,0.8,2.7,2.1s-1.2,2.2-2.9,2.2c-1.8,0-3.1-0.9-3.8-2.1l1.3-0.7c0.6,1.2,1.5,1.6,2.5,1.6
			c0.9,0,1.4-0.4,1.4-0.9s-0.5-0.7-1.3-0.9l-0.8-0.1c-1.5-0.3-2.6-0.8-2.6-2.1S225.3,232.7,226.8,232.7z" />
            <path class="st1" d="M234.8,232.7c1.9,0,3.1,1.1,3.4,2.7l-1.5,0.4c-0.1-0.9-0.7-1.6-1.9-1.6s-2.1,0.9-2.1,2.3
			c0,1.4,0.8,2.3,2.1,2.3c1.2,0,1.7-0.7,1.9-1.6l1.5,0.4c-0.3,1.4-1.4,2.7-3.4,2.7s-3.6-1.5-3.6-3.7
			C231.2,234.3,232.8,232.7,234.8,232.7z" />
            <path class="st1" d="M242.6,232.7c2,0,3.6,1.5,3.6,3.6s-1.6,3.7-3.6,3.7s-3.6-1.5-3.6-3.7S240.6,232.7,242.6,232.7z M242.6,238.7
			c1.2,0,2-0.9,2-2.3s-0.8-2.3-2-2.3s-2,0.9-2,2.3S241.4,238.7,242.6,238.7z" />
            <path class="st1" d="M249.1,232.9v1.1h0.2c0.3-0.6,0.9-1.2,2.3-1.2c1.5,0,2.7,1,2.7,2.9v4.1h-1.5v-4c0-1.1-0.6-1.7-1.7-1.7
			c-1.2,0-1.9,0.8-1.9,2.1v3.6h-1.5v-6.9L249.1,232.9L249.1,232.9z" />
            <path class="st1" d="M259,232.7c1.9,0,3.1,1.1,3.4,2.7l-1.5,0.4c-0.1-0.9-0.7-1.6-1.9-1.6c-1.2,0-2.1,0.9-2.1,2.3
			c0,1.4,0.8,2.3,2.1,2.3c1.2,0,1.7-0.7,1.9-1.6l1.5,0.4c-0.3,1.4-1.4,2.7-3.4,2.7s-3.6-1.5-3.6-3.7
			C255.5,234.3,257,232.7,259,232.7z" />
            <path class="st1" d="M266.8,232.7c2,0,3.4,1.4,3.4,3.5v0.7H265c0.1,1.1,0.8,1.8,2,1.8c1,0,1.5-0.5,1.8-1.1l1.3,0.7
			c-0.5,0.8-1.3,1.7-3.1,1.7c-2.1,0-3.6-1.6-3.6-3.7C263.3,234.3,264.8,232.7,266.8,232.7z M268.6,235.8c-0.1-1.1-0.7-1.7-1.8-1.7
			c-1.1,0-1.7,0.6-1.8,1.7H268.6z" />
            <path class="st1" d="M271.4,232.9h1.5v1h0.2c0.4-0.6,1-1.2,2.3-1.2c1.8,0,3.2,1.5,3.2,3.6s-1.4,3.7-3.2,3.7
			c-1.3,0-1.9-0.6-2.3-1.2h-0.2v3.8h-1.5V232.9z M277.1,236.4c0-1.5-0.9-2.3-2.1-2.3s-2,0.9-2,2.3c0,1.4,0.8,2.3,2,2.3
			S277.1,237.8,277.1,236.4z" />
            <path class="st1" d="M280.9,232.9v-2.3h1.5v2.3h2v1.3h-2v3.9c0,0.3,0.1,0.4,0.4,0.4h1.2v1.3h-1.8c-0.7,0-1.3-0.5-1.3-1.3v-4.3
			h-1.8v-1.3L280.9,232.9L280.9,232.9z" />
            <path class="st1" d="M286.5,229.8c0.6,0,1.1,0.5,1.1,1.1s-0.5,1.1-1.1,1.1s-1.2-0.5-1.2-1.1C285.3,230.2,285.8,229.8,286.5,229.8z
			 M287.3,239.8h-1.5v-6.9h1.5V239.8z" />
            <path class="st1" d="M292.2,232.7c2,0,3.6,1.5,3.6,3.6s-1.6,3.7-3.6,3.7s-3.6-1.5-3.6-3.7S290.1,232.7,292.2,232.7z M292.2,238.7
			c1.2,0,2-0.9,2-2.3s-0.8-2.3-2-2.3s-2,0.9-2,2.3S290.9,238.7,292.2,238.7z" />
            <path class="st1" d="M298.6,232.9v1.1h0.2c0.3-0.6,0.9-1.2,2.3-1.2c1.5,0,2.7,1,2.7,2.9v4.1h-1.5v-4c0-1.1-0.6-1.7-1.7-1.7
			c-1.2,0-1.9,0.8-1.9,2.1v3.6h-1.5v-6.9L298.6,232.9L298.6,232.9z" />
        </g>
    </g>
    <g>
        <g>
            <path class="st6" d="M184.5,73.4L184.5,73.4c0-2.3,1.8-4.1,4.1-4.1l0,0c2.3,0,4.1,1.8,4.1,4.1l0,0c0,2.3-1.8,4.1-4.1,4.1l0,0
			C186.4,77.5,184.5,75.7,184.5,73.4z" />
            <path class="st6" d="M184.5,212L184.5,212c0-2.3,1.8-4.1,4.1-4.1l0,0c2.3,0,4.1,1.8,4.1,4.1l0,0c0,2.3-1.8,4.1-4.1,4.1l0,0
			C186.4,216.1,184.5,214.3,184.5,212z" />
            <path class="st6" d="M184.5,188.9L184.5,188.9c0-2.3,1.8-4.1,4.1-4.1l0,0c2.3,0,4.1,1.8,4.1,4.1l0,0c0,2.3-1.8,4.1-4.1,4.1l0,0
			C186.4,193,184.5,191.2,184.5,188.9z" />
            <path class="st6" d="M184.5,165.8L184.5,165.8c0-2.3,1.8-4.1,4.1-4.1l0,0c2.3,0,4.1,1.8,4.1,4.1l0,0c0,2.3-1.8,4.1-4.1,4.1l0,0
			C186.4,169.9,184.5,168.1,184.5,165.8z" />
            <path class="st6" d="M184.5,142.7L184.5,142.7c0-2.3,1.8-4.1,4.1-4.1l0,0c2.3,0,4.1,1.8,4.1,4.1l0,0c0,2.3-1.8,4.1-4.1,4.1l0,0
			C186.4,146.8,184.5,145,184.5,142.7z" />
            <path class="st6" d="M184.5,119.6L184.5,119.6c0-2.3,1.8-4.1,4.1-4.1l0,0c2.3,0,4.1,1.8,4.1,4.1l0,0c0,2.3-1.8,4.1-4.1,4.1l0,0
			C186.4,123.7,184.5,121.9,184.5,119.6z" />
            <path class="st6" d="M184.5,96.5L184.5,96.5c0-2.3,1.8-4.1,4.1-4.1l0,0c2.3,0,4.1,1.8,4.1,4.1l0,0c0,2.3-1.8,4.1-4.1,4.1l0,0
			C186.4,100.6,184.5,98.8,184.5,96.5z" />
        </g>
        <g id="testo_11_">
            <path class="st1" d="M189.8,230.5v1.5h-4.7v2.6h4.3v1.5h-4.3v2.7h4.8v1.5h-6.4v-9.8H189.8z" />
            <path class="st1" d="M196.5,243.1v-3.8h-0.2c-0.4,0.6-1,1.2-2.3,1.2c-1.8,0-3.2-1.5-3.2-3.7c0-2.1,1.4-3.6,3.2-3.6
			c1.3,0,1.9,0.6,2.3,1.2h0.2v-1h1.5v9.7L196.5,243.1L196.5,243.1z M196.5,236.8c0-1.4-0.8-2.3-2-2.3s-2.1,0.8-2.1,2.3
			s0.9,2.3,2.1,2.3C195.7,239.1,196.5,238.3,196.5,236.8z" />
            <path class="st1" d="M204.8,240.3v-1.1h-0.2c-0.3,0.6-0.9,1.3-2.3,1.3c-1.5,0-2.7-1-2.7-2.9v-4.1h1.5v4c0,1.1,0.6,1.7,1.7,1.7
			c1.2,0,1.9-0.8,1.9-2.1v-3.6h1.5v6.9L204.8,240.3L204.8,240.3z" />
            <path class="st1" d="M211.2,233.2c1.8,0,3.1,1.1,3.1,2.7v4.4h-1.5v-1h-0.2c-0.3,0.5-0.9,1.2-2.3,1.2c-1.6,0-2.6-0.8-2.6-2.1
			c0-1.2,0.9-1.9,2.5-2l2.6-0.3v-0.2c0-0.8-0.6-1.4-1.6-1.4s-1.6,0.6-2,1.4l-1.3-0.7C208.4,234.3,209.4,233.2,211.2,233.2z
			 M210.6,239.2c1.4,0,2.2-0.9,2.2-1.9v-0.1l-2.3,0.2c-0.7,0.1-1.2,0.3-1.2,0.9C209.3,238.9,209.8,239.2,210.6,239.2z" />
            <path class="st1" d="M217.5,240.3H216v-9.8h1.5V240.3z" />
            <path class="st1" d="M220,230.2c0.6,0,1.1,0.5,1.1,1.1s-0.5,1.1-1.1,1.1s-1.2-0.5-1.2-1.1C218.9,230.7,219.4,230.2,220,230.2z
			 M220.8,240.3h-1.5v-6.9h1.5V240.3z" />
            <path class="st1" d="M223.6,233.4v-2.3h1.5v2.3h2v1.3h-2v3.9c0,0.3,0.1,0.4,0.4,0.4h1.2v1.3h-1.8c-0.7,0-1.3-0.5-1.3-1.3v-4.3
			h-1.8v-1.3L223.6,233.4L223.6,233.4z" />
            <path class="st1" d="M235.1,233.4l-3.9,9.7h-1.7l1.1-2.5l-2.9-7.2h1.7l2,5.1h0.2l2-5.1H235.1z" />
            <path class="st1" d="M241.1,233.4l1.8,5.5h0.2l1.8-5.5h1.7l-2.5,6.9h-2.2l-2.5-6.9H241.1z" />
            <path class="st1" d="M250.6,233.2c1.8,0,3.1,1.1,3.1,2.7v4.4h-1.5v-1H252c-0.3,0.5-0.9,1.2-2.3,1.2c-1.6,0-2.6-0.8-2.6-2.1
			c0-1.2,0.9-1.9,2.5-2l2.6-0.3v-0.2c0-0.8-0.6-1.4-1.6-1.4s-1.6,0.6-2,1.4l-1.3-0.7C247.8,234.3,248.8,233.2,250.6,233.2z
			 M250,239.2c1.4,0,2.2-0.9,2.2-1.9v-0.1l-2.3,0.2c-0.7,0.1-1.2,0.3-1.2,0.9C248.7,238.9,249.1,239.2,250,239.2z" />
            <path class="st1" d="M256.9,240.3h-1.5v-9.8h1.5V240.3z" />
            <path class="st1" d="M263.7,240.3v-1.1h-0.2c-0.3,0.6-0.9,1.3-2.3,1.3c-1.5,0-2.7-1-2.7-2.9v-4.1h1.5v4c0,1.1,0.6,1.7,1.7,1.7
			c1.2,0,1.9-0.8,1.9-2.1v-3.6h1.5v6.9L263.7,240.3L263.7,240.3z" />
            <path class="st1" d="M270,233.2c2,0,3.4,1.4,3.4,3.5v0.7h-5.2c0.1,1.1,0.8,1.8,2,1.8c1,0,1.5-0.5,1.8-1.1l1.3,0.7
			c-0.5,0.8-1.3,1.7-3.1,1.7c-2.1,0-3.6-1.6-3.6-3.7C266.6,234.7,268,233.2,270,233.2z M271.8,236.2c-0.1-1.1-0.7-1.7-1.8-1.7
			c-1.1,0-1.7,0.6-1.8,1.7H271.8z" />
            <path class="st1" d="M277.1,233.2c1.6,0,2.7,0.7,3.5,1.7l-1.1,0.9c-0.7-1-1.5-1.3-2.3-1.3s-1.2,0.3-1.2,0.8c0,0.4,0.4,0.7,1.1,0.8
			l0.8,0.1c1.5,0.3,2.7,0.8,2.7,2.1s-1.2,2.2-2.9,2.2c-1.8,0-3.1-0.9-3.8-2.1l1.3-0.7c0.6,1.2,1.5,1.6,2.5,1.6
			c0.9,0,1.4-0.4,1.4-0.9s-0.5-0.7-1.3-0.9l-0.8-0.1c-1.5-0.3-2.6-0.8-2.6-2.1S275.6,233.2,277.1,233.2z" />
        </g>
    </g>
    <g>
        <g>
            <path class="st7" d="M224.4,188.9L224.4,188.9c0-2.3,1.8-4.1,4.1-4.1l0,0c2.3,0,4.1,1.8,4.1,4.1l0,0c0,2.3-1.8,4.1-4.1,4.1l0,0
			C226.2,193,224.4,191.2,224.4,188.9z" />
            <path class="st7" d="M224.4,165.8L224.4,165.8c0-2.3,1.8-4.1,4.1-4.1l0,0c2.3,0,4.1,1.8,4.1,4.1l0,0c0,2.3-1.8,4.1-4.1,4.1l0,0
			C226.2,169.9,224.4,168.1,224.4,165.8z" />
            <path class="st7" d="M224.4,142.7L224.4,142.7c0-2.3,1.8-4.1,4.1-4.1l0,0c2.3,0,4.1,1.8,4.1,4.1l0,0c0,2.3-1.8,4.1-4.1,4.1l0,0
			C226.2,146.8,224.4,145,224.4,142.7z" />
            <path class="st7" d="M224.4,119.6L224.4,119.6c0-2.3,1.8-4.1,4.1-4.1l0,0c2.3,0,4.1,1.8,4.1,4.1l0,0c0,2.3-1.8,4.1-4.1,4.1l0,0
			C226.2,123.7,224.4,121.9,224.4,119.6z" />
            <path class="st7" d="M224.4,212L224.4,212c0-2.3,1.8-4.1,4.1-4.1l0,0c2.3,0,4.1,1.8,4.1,4.1l0,0c0,2.3-1.8,4.1-4.1,4.1l0,0
			C226.2,216.1,224.4,214.3,224.4,212z" />
        </g>
        <g id="testo_12_">
            <path class="st1" d="M225.2,231l1.1,8.3h0.2l1.5-8.3h2.6l1.5,8.3h0.2l1.1-8.3h1.6l-1.4,9.8h-2.7l-1.5-8.3h-0.2l-1.5,8.3H225
			l-1.5-9.8H225.2z" />
            <path class="st1" d="M239.2,233.7c2,0,3.6,1.5,3.6,3.6s-1.6,3.7-3.6,3.7s-3.6-1.5-3.6-3.7S237.1,233.7,239.2,233.7z M239.2,239.6
			c1.2,0,2-0.9,2-2.3s-0.8-2.3-2-2.3s-2,0.9-2,2.3S237.9,239.6,239.2,239.6z" />
            <path class="st1" d="M245.6,233.9v1h0.2c0.3-0.6,0.9-1.1,1.9-1.1s1.6,0.5,1.9,1.2h0.2c0.3-0.6,0.9-1.2,2-1.2
			c1.2,0,2.3,0.9,2.3,2.3v4.7h-1.5v-4.6c0-0.7-0.5-1.1-1.3-1.1s-1.4,0.5-1.4,1.4v4.3h-1.5v-4.6c0-0.7-0.5-1.1-1.2-1.1
			c-0.8,0-1.4,0.5-1.4,1.4v4.3h-1.5v-6.9L245.6,233.9L245.6,233.9z" />
            <path class="st1" d="M258.8,233.7c1.8,0,3.1,1.1,3.1,2.7v4.4h-1.5v-1h-0.2c-0.3,0.5-0.9,1.2-2.3,1.2c-1.6,0-2.6-0.8-2.6-2.1
			c0-1.2,0.9-1.9,2.5-2l2.6-0.3v-0.2c0-0.8-0.6-1.4-1.6-1.4s-1.6,0.6-2,1.4l-1.3-0.7C255.9,234.8,256.9,233.7,258.8,233.7z
			 M258.1,239.7c1.4,0,2.2-0.9,2.2-1.9v-0.1l-2.3,0.2c-0.7,0.1-1.2,0.3-1.2,0.9C256.8,239.4,257.3,239.7,258.1,239.7z" />
            <path class="st1" d="M265,233.9v1.1h0.2c0.3-0.6,0.9-1.2,2.3-1.2c1.5,0,2.7,1,2.7,2.9v4.1h-1.5v-4c0-1.1-0.6-1.7-1.7-1.7
			c-1.2,0-1.9,0.8-1.9,2.1v3.6h-1.5v-6.9L265,233.9L265,233.9z" />
            <path class="st1" d="M272.4,230.8c0.7,0,1.2,0.5,1.2,1.2v1.7c0,0.7-0.5,1.2-1.2,1.2h-1.2V234h1c0.3,0,0.4-0.1,0.4-0.4v-0.4
			c-0.1,0-0.1,0-0.3,0c-0.6,0-1.2-0.4-1.2-1.1C271.2,231.3,271.7,230.8,272.4,230.8z" />
            <path class="st1" d="M277.2,233.7c1.6,0,2.7,0.7,3.5,1.7l-1.1,0.9c-0.7-1-1.5-1.3-2.3-1.3s-1.2,0.3-1.2,0.8c0,0.4,0.4,0.7,1.1,0.8
			l0.8,0.1c1.5,0.3,2.7,0.8,2.7,2.1s-1.2,2.2-2.9,2.2c-1.8,0-3.1-0.9-3.8-2.1l1.3-0.7c0.6,1.2,1.5,1.6,2.5,1.6
			c0.9,0,1.4-0.4,1.4-0.9s-0.5-0.7-1.3-0.9l-0.8-0.1c-1.5-0.3-2.6-0.8-2.6-2.1S275.6,233.7,277.2,233.7z" />
            <path class="st1" d="M289.2,233.7c1.9,0,3.1,1.1,3.4,2.7l-1.5,0.4c-0.1-0.9-0.7-1.6-1.9-1.6c-1.2,0-2.1,0.9-2.1,2.3
			c0,1.4,0.8,2.3,2.1,2.3c1.2,0,1.7-0.7,1.9-1.6l1.5,0.4c-0.3,1.4-1.4,2.7-3.4,2.7s-3.6-1.5-3.6-3.7
			C285.6,235.2,287.1,233.7,289.2,233.7z" />
            <path class="st1" d="M297,233.7c2,0,3.6,1.5,3.6,3.6S299,241,297,241s-3.6-1.5-3.6-3.7S295,233.7,297,233.7z M297,239.6
			c1.2,0,2-0.9,2-2.3s-0.8-2.3-2-2.3s-2,0.9-2,2.3S295.8,239.6,297,239.6z" />
            <path class="st1" d="M303.5,233.9v1.1h0.2c0.3-0.6,0.9-1.2,2.3-1.2c1.5,0,2.7,1,2.7,2.9v4.1h-1.5v-4c0-1.1-0.6-1.7-1.7-1.7
			c-1.2,0-1.9,0.8-1.9,2.1v3.6h-1.5v-6.9L303.5,233.9L303.5,233.9z" />
            <path class="st1" d="M317,240.8h-1.5v-1h-0.2c-0.4,0.6-1,1.2-2.3,1.2c-1.8,0-3.2-1.5-3.2-3.7c0-2.1,1.4-3.6,3.2-3.6
			c1.3,0,1.9,0.6,2.3,1.2h0.2V231h1.5V240.8z M311.4,237.3c0,1.5,0.9,2.3,2.1,2.3s2-0.9,2-2.3c0-1.4-0.8-2.3-2-2.3
			C312.3,235.1,311.4,235.9,311.4,237.3z" />
            <path class="st1" d="M319.6,230.7c0.6,0,1.1,0.5,1.1,1.1s-0.5,1.1-1.1,1.1s-1.2-0.5-1.2-1.1S318.9,230.7,319.6,230.7z
			 M320.3,240.8h-1.5v-6.9h1.5V240.8z" />
            <path class="st1" d="M323.2,233.9v-2.3h1.5v2.3h2v1.3h-2v3.9c0,0.3,0.1,0.4,0.4,0.4h1.2v1.3h-1.8c-0.7,0-1.3-0.5-1.3-1.3v-4.3
			h-1.8v-1.3L323.2,233.9L323.2,233.9z" />
            <path class="st1" d="M328.7,230.7c0.6,0,1.1,0.5,1.1,1.1s-0.5,1.1-1.1,1.1s-1.2-0.5-1.2-1.1C327.6,231.2,328.1,230.7,328.7,230.7z
			 M329.5,240.8H328v-6.9h1.5V240.8z" />
            <path class="st1" d="M334.4,233.7c2,0,3.6,1.5,3.6,3.6s-1.6,3.7-3.6,3.7s-3.6-1.5-3.6-3.7S332.4,233.7,334.4,233.7z M334.4,239.6
			c1.2,0,2-0.9,2-2.3s-0.8-2.3-2-2.3s-2,0.9-2,2.3S333.2,239.6,334.4,239.6z" />
            <path class="st1" d="M340.8,233.9v1.1h0.2c0.3-0.6,0.9-1.2,2.3-1.2c1.5,0,2.7,1,2.7,2.9v4.1h-1.5v-4c0-1.1-0.6-1.7-1.7-1.7
			c-1.2,0-1.9,0.8-1.9,2.1v3.6h-1.5v-6.9L340.8,233.9L340.8,233.9z" />
            <path class="st1" d="M352.4,230.7c0.6,0,1.1,0.5,1.1,1.1s-0.5,1.1-1.1,1.1s-1.2-0.5-1.2-1.1C351.2,231.2,351.8,230.7,352.4,230.7z
			 M353.2,240.8h-1.5v-6.9h1.5V240.8z" />
            <path class="st1" d="M356.5,233.9v1.1h0.2c0.3-0.6,0.9-1.2,2.3-1.2c1.5,0,2.7,1,2.7,2.9v4.1h-1.5v-4c0-1.1-0.6-1.7-1.7-1.7
			c-1.2,0-1.9,0.8-1.9,2.1v3.6h-1.5v-6.9L356.5,233.9L356.5,233.9z" />
            <path class="st1" d="M368.3,233.9v-2.3h1.5v2.3h2v1.3h-2v3.9c0,0.3,0.1,0.4,0.4,0.4h1.2v1.3h-1.8c-0.7,0-1.3-0.5-1.3-1.3v-4.3
			h-1.8v-1.3L368.3,233.9L368.3,233.9z" />
            <path class="st1" d="M374.7,231v4h0.2c0.3-0.6,0.9-1.2,2.3-1.2c1.5,0,2.7,1,2.7,2.9v4.1h-1.5v-4c0-1.1-0.6-1.7-1.7-1.7
			c-1.2,0-1.9,0.8-1.9,2.1v3.6h-1.5V231H374.7z" />
            <path class="st1" d="M384.5,233.7c2,0,3.4,1.4,3.4,3.5v0.7h-5.2c0.1,1.1,0.8,1.8,2,1.8c1,0,1.5-0.5,1.8-1.1l1.3,0.7
			c-0.5,0.8-1.3,1.7-3.1,1.7c-2.1,0-3.6-1.6-3.6-3.7C381,235.2,382.5,233.7,384.5,233.7z M386.2,236.7c-0.1-1.1-0.7-1.7-1.8-1.7
			c-1.1,0-1.7,0.6-1.8,1.7H386.2z" />
            <path class="st1" d="M394.1,233.9l1,5.5h0.2l1.2-5.5h2.2l1.2,5.5h0.2l1-5.5h1.6l-1.4,6.9H399l-1.2-5.5h-0.2l-1.2,5.5h-2.2
			l-1.5-6.9H394.1z" />
            <path class="st1" d="M406.7,233.7c2,0,3.6,1.5,3.6,3.6s-1.6,3.7-3.6,3.7s-3.6-1.5-3.6-3.7S404.6,233.7,406.7,233.7z M406.7,239.6
			c1.2,0,2-0.9,2-2.3s-0.8-2.3-2-2.3s-2,0.9-2,2.3S405.4,239.6,406.7,239.6z" />
            <path class="st1" d="M413.1,235h0.2c0.3-0.8,0.8-1.1,1.8-1.1h0.7v1.4h-1.1c-0.9,0-1.5,0.5-1.5,1.5v4h-1.5v-6.9h1.5v1.1H413.1z" />
            <path class="st1" d="M418.4,240.8h-1.5V231h1.5V240.8z" />
            <path class="st1" d="M426.9,240.8h-1.5v-1h-0.2c-0.4,0.6-1,1.2-2.3,1.2c-1.8,0-3.2-1.5-3.2-3.7c0-2.1,1.4-3.6,3.2-3.6
			c1.3,0,1.9,0.6,2.3,1.2h0.2V231h1.5V240.8z M421.2,237.3c0,1.5,0.9,2.3,2.1,2.3s2-0.9,2-2.3c0-1.4-0.8-2.3-2-2.3
			C422.1,235.1,421.2,235.9,421.2,237.3z" />
        </g>
    </g>
    <g>
        <g>
            <path class="st8" d="M264.3,188.9L264.3,188.9c0-2.3,1.8-4.1,4.1-4.1l0,0c2.3,0,4.1,1.8,4.1,4.1l0,0c0,2.3-1.8,4.1-4.1,4.1l0,0
			C266.1,193,264.3,191.2,264.3,188.9z" />
            <path class="st8" d="M264.3,165.8L264.3,165.8c0-2.3,1.8-4.1,4.1-4.1l0,0c2.3,0,4.1,1.8,4.1,4.1l0,0c0,2.3-1.8,4.1-4.1,4.1l0,0
			C266.1,169.9,264.3,168.1,264.3,165.8z" />
            <path class="st8" d="M264.3,142.7L264.3,142.7c0-2.3,1.8-4.1,4.1-4.1l0,0c2.3,0,4.1,1.8,4.1,4.1l0,0c0,2.3-1.8,4.1-4.1,4.1l0,0
			C266.1,146.8,264.3,145,264.3,142.7z" />
            <path class="st8" d="M264.3,119.6L264.3,119.6c0-2.3,1.8-4.1,4.1-4.1l0,0c2.3,0,4.1,1.8,4.1,4.1l0,0c0,2.3-1.8,4.1-4.1,4.1l0,0
			C266.1,123.7,264.3,121.9,264.3,119.6z" />
            <path class="st8" d="M264.3,96.5L264.3,96.5c0-2.3,1.8-4.1,4.1-4.1l0,0c2.3,0,4.1,1.8,4.1,4.1l0,0c0,2.3-1.8,4.1-4.1,4.1l0,0
			C266.1,100.6,264.3,98.8,264.3,96.5z" />
            <path class="st8" d="M264.3,73.4L264.3,73.4c0-2.3,1.8-4.1,4.1-4.1l0,0c2.3,0,4.1,1.8,4.1,4.1l0,0c0,2.3-1.8,4.1-4.1,4.1l0,0
			C266.1,77.5,264.3,75.7,264.3,73.4z" />
            <path class="st8" d="M264.3,50.3L264.3,50.3c0-2.3,1.8-4.1,4.1-4.1l0,0c2.3,0,4.1,1.8,4.1,4.1l0,0c0,2.3-1.8,4.1-4.1,4.1l0,0
			C266.1,54.4,264.3,52.6,264.3,50.3z" />
            <path class="st8" d="M264.3,27.2L264.3,27.2c0-2.3,1.8-4.1,4.1-4.1l0,0c2.3,0,4.1,1.8,4.1,4.1l0,0c0,2.3-1.8,4.1-4.1,4.1l0,0
			C266.1,31.3,264.3,29.5,264.3,27.2z" />
            <path class="st8" d="M264.3,4.1L264.3,4.1c0-2.3,1.8-4.1,4.1-4.1l0,0c2.3,0,4.1,1.8,4.1,4.1l0,0c0,2.3-1.8,4.1-4.1,4.1l0,0
			C266.1,8.3,264.3,6.4,264.3,4.1z" />
            <path class="st8" d="M287.4,212L287.4,212c0-2.3,1.8-4.1,4.1-4.1l0,0c2.3,0,4.1,1.8,4.1,4.1l0,0c0,2.3-1.8,4.1-4.1,4.1l0,0
			C289.2,216.1,287.4,214.3,287.4,212z" />
            <path class="st8" d="M287.4,188.9L287.4,188.9c0-2.3,1.8-4.1,4.1-4.1l0,0c2.3,0,4.1,1.8,4.1,4.1l0,0c0,2.3-1.8,4.1-4.1,4.1l0,0
			C289.2,193,287.4,191.2,287.4,188.9z" />
            <path class="st8" d="M287.4,165.8L287.4,165.8c0-2.3,1.8-4.1,4.1-4.1l0,0c2.3,0,4.1,1.8,4.1,4.1l0,0c0,2.3-1.8,4.1-4.1,4.1l0,0
			C289.2,169.9,287.4,168.1,287.4,165.8z" />
            <path class="st8" d="M264.3,212L264.3,212c0-2.3,1.8-4.1,4.1-4.1l0,0c2.3,0,4.1,1.8,4.1,4.1l0,0c0,2.3-1.8,4.1-4.1,4.1l0,0
			C266.1,216.1,264.3,214.3,264.3,212z" />
        </g>
        <g id="testo_13_">
            <path class="st1" d="M271.5,232.7v0.4h-1.6v-0.3c0-1.2-0.8-1.8-2-1.8c-1,0-1.7,0.5-1.7,1.3c0,0.9,0.7,1.2,2,1.5l0.4,0.1
			c1.9,0.4,3.1,1.2,3.1,2.9c0,1.9-1.5,3-3.6,3c-2.4,0-3.9-1.3-3.9-3.6v-0.4h1.6v0.3c0,1.4,0.8,2.2,2.3,2.2c1.2,0,1.9-0.7,1.9-1.5
			c0-0.9-0.7-1.2-1.9-1.5l-0.4-0.1c-1.9-0.4-3.1-1.1-3.1-2.9c0-1.7,1.5-2.8,3.3-2.8C270,229.6,271.5,230.8,271.5,232.7z" />
            <path class="st1" d="M274.6,229.8v4h0.2c0.3-0.6,0.9-1.2,2.3-1.2c1.5,0,2.7,1,2.7,2.9v4.1h-1.5v-4c0-1.1-0.6-1.7-1.7-1.7
			c-1.2,0-1.9,0.8-1.9,2.1v3.6h-1.5v-9.8L274.6,229.8L274.6,229.8z" />
            <path class="st1" d="M284.5,232.5c2,0,3.4,1.4,3.4,3.5v0.7h-5.2c0.1,1.1,0.8,1.8,2,1.8c1,0,1.5-0.5,1.8-1.1l1.3,0.7
			c-0.5,0.8-1.3,1.7-3.1,1.7c-2.1,0-3.6-1.6-3.6-3.7C281,234.1,282.4,232.5,284.5,232.5z M286.2,235.6c-0.1-1.1-0.7-1.7-1.8-1.7
			c-1.1,0-1.7,0.6-1.8,1.7H286.2z" />
            <path class="st1" d="M292.1,232.5c2,0,3.4,1.4,3.4,3.5v0.7h-5.2c0.1,1.1,0.8,1.8,2,1.8c1,0,1.5-0.5,1.8-1.1l1.3,0.7
			c-0.5,0.8-1.3,1.7-3.1,1.7c-2.1,0-3.6-1.6-3.6-3.7C288.6,234.1,290.1,232.5,292.1,232.5z M293.9,235.6c-0.1-1.1-0.7-1.7-1.8-1.7
			c-1.1,0-1.7,0.6-1.8,1.7H293.9z" />
            <path class="st1" d="M298.2,233.8h0.2c0.3-0.8,0.8-1.1,1.8-1.1h0.7v1.4h-1.1c-0.9,0-1.5,0.5-1.5,1.5v4h-1.5v-6.9h1.5v1.1H298.2z" />
            <path class="st1" d="M306,232.7h1.5v1h0.2c0.4-0.6,1-1.2,2.3-1.2c1.8,0,3.2,1.5,3.2,3.6s-1.4,3.7-3.2,3.7c-1.3,0-1.9-0.6-2.3-1.2
			h-0.2v3.8H306V232.7z M311.6,236.2c0-1.5-0.9-2.3-2.1-2.3s-2,0.9-2,2.3c0,1.4,0.8,2.3,2,2.3C310.8,238.5,311.6,237.6,311.6,236.2z
			" />
            <path class="st1" d="M316,233.8h0.2c0.3-0.8,0.8-1.1,1.8-1.1h0.7v1.4h-1.1c-0.9,0-1.5,0.5-1.5,1.5v4h-1.5v-6.9h1.5v1.1H316z" />
            <path class="st1" d="M320.5,229.6c0.6,0,1.1,0.5,1.1,1.1s-0.5,1.1-1.1,1.1s-1.2-0.5-1.2-1.1C319.4,230,319.9,229.6,320.5,229.6z
			 M321.3,239.6h-1.5v-6.9h1.5V239.6z" />
            <path class="st1" d="M324,232.7l1.8,5.5h0.2l1.8-5.5h1.7l-2.5,6.9h-2.2l-2.5-6.9H324z" />
            <path class="st1" d="M331.3,229.6c0.6,0,1.1,0.5,1.1,1.1s-0.5,1.1-1.1,1.1s-1.2-0.5-1.2-1.1C330.2,230,330.7,229.6,331.3,229.6z
			 M332.1,239.6h-1.5v-6.9h1.5V239.6z" />
            <path class="st1" d="M335.4,239.6h-1.5v-9.8h1.5V239.6z" />
            <path class="st1" d="M340.2,232.5c2,0,3.4,1.4,3.4,3.5v0.7h-5.2c0.1,1.1,0.8,1.8,2,1.8c1,0,1.5-0.5,1.8-1.1l1.3,0.7
			c-0.5,0.8-1.3,1.7-3.1,1.7c-2.1,0-3.6-1.6-3.6-3.7C336.7,234.1,338.2,232.5,340.2,232.5z M342,235.6c-0.1-1.1-0.7-1.7-1.8-1.7
			c-1.1,0-1.7,0.6-1.8,1.7H342z" />
            <path class="st1" d="M351.6,232.7v6.7c0,1.9-1.3,3.2-3.5,3.2c-1.9,0-2.9-0.9-3.6-1.9l1.3-0.8c0.4,0.7,1.1,1.4,2.2,1.4
			c1.2,0,2-0.6,2-1.9v-0.9h-0.2c-0.4,0.6-1,1.2-2.3,1.2c-1.8,0-3.2-1.5-3.2-3.6s1.4-3.5,3.2-3.5c1.3,0,1.9,0.6,2.3,1.2h0.2v-1
			L351.6,232.7L351.6,232.7z M350.1,236.1c0-1.4-0.8-2.2-2-2.2s-2.1,0.8-2.1,2.2s0.9,2.2,2.1,2.2
			C349.2,238.3,350.1,237.5,350.1,236.1z" />
            <path class="st1" d="M356.4,232.5c2,0,3.4,1.4,3.4,3.5v0.7h-5.2c0.1,1.1,0.8,1.8,2,1.8c1,0,1.5-0.5,1.8-1.1l1.3,0.7
			c-0.5,0.8-1.3,1.7-3.1,1.7c-2.1,0-3.6-1.6-3.6-3.7C352.9,234.1,354.4,232.5,356.4,232.5z M358.2,235.6c-0.1-1.1-0.7-1.7-1.8-1.7
			c-1.1,0-1.7,0.6-1.8,1.7H358.2z" />
            <path class="st1" d="M368.2,232.5c2,0,3.6,1.5,3.6,3.6s-1.6,3.7-3.6,3.7s-3.6-1.5-3.6-3.7S366.1,232.5,368.2,232.5z M368.2,238.5
			c1.2,0,2-0.9,2-2.3s-0.8-2.3-2-2.3s-2,0.9-2,2.3S366.9,238.5,368.2,238.5z" />
            <path class="st1" d="M374.2,232.7v-1.6c0-0.8,0.5-1.3,1.3-1.3h1.8v1.3h-1.1c-0.3,0-0.4,0.1-0.4,0.4v1.2h1.9v1.3h-1.9v5.6h-1.5V234
			h-1.8v-1.3L374.2,232.7L374.2,232.7z" />
            <path class="st1" d="M383.7,232.7l1,5.5h0.2l1.2-5.5h2.2l1.2,5.5h0.2l1-5.5h1.6l-1.4,6.9h-2.3l-1.2-5.5H387l-1.2,5.5h-2.2
			l-1.5-6.9H383.7z" />
            <path class="st1" d="M396.1,232.5c2,0,3.4,1.4,3.4,3.5v0.7h-5.2c0.1,1.1,0.8,1.8,2,1.8c1,0,1.5-0.5,1.8-1.1l1.3,0.7
			c-0.5,0.8-1.3,1.7-3.1,1.7c-2.1,0-3.6-1.6-3.6-3.7C392.7,234.1,394.1,232.5,396.1,232.5z M397.9,235.6c-0.1-1.1-0.7-1.7-1.8-1.7
			c-1.1,0-1.7,0.6-1.8,1.7H397.9z" />
            <path class="st1" d="M403.2,232.5c1.6,0,2.7,0.7,3.5,1.7l-1.1,0.9c-0.7-1-1.5-1.3-2.3-1.3s-1.2,0.3-1.2,0.8c0,0.4,0.4,0.7,1.1,0.8
			l0.8,0.1c1.5,0.3,2.7,0.8,2.7,2.1s-1.2,2.2-2.9,2.2c-1.8,0-3.1-0.9-3.8-2.1l1.3-0.7c0.6,1.2,1.5,1.6,2.5,1.6
			c0.9,0,1.4-0.4,1.4-0.9s-0.5-0.7-1.3-0.9l-0.8-0.1c-1.5-0.3-2.6-0.8-2.6-2.1S401.7,232.5,403.2,232.5z" />
            <path class="st1" d="M409.1,232.7v-2.3h1.5v2.3h2v1.3h-2v3.9c0,0.3,0.1,0.4,0.4,0.4h1.2v1.3h-1.8c-0.7,0-1.3-0.5-1.3-1.3V234h-1.8
			v-1.3L409.1,232.7L409.1,232.7z" />
            <path class="st1" d="M416.9,232.5c2,0,3.4,1.4,3.4,3.5v0.7H415c0.1,1.1,0.8,1.8,2,1.8c1,0,1.5-0.5,1.8-1.1l1.3,0.7
			c-0.5,0.8-1.3,1.7-3.1,1.7c-2.1,0-3.6-1.6-3.6-3.7C413.4,234.1,414.9,232.5,416.9,232.5z M418.7,235.6c-0.1-1.1-0.7-1.7-1.8-1.7
			c-1.1,0-1.7,0.6-1.8,1.7H418.7z" />
            <path class="st1" d="M423,233.8h0.2c0.3-0.8,0.8-1.1,1.8-1.1h0.7v1.4h-1.1c-0.9,0-1.5,0.5-1.5,1.5v4h-1.5v-6.9h1.5v1.1H423z" />
            <path class="st1" d="M428.3,232.7v1.1h0.2c0.3-0.6,0.9-1.2,2.3-1.2c1.5,0,2.7,1,2.7,2.9v4.1H432v-4c0-1.1-0.6-1.7-1.7-1.7
			c-1.2,0-1.9,0.8-1.9,2.1v3.6h-1.5v-6.9L428.3,232.7L428.3,232.7z" />
            <path class="st1" d="M440,232.7l1,5.5h0.2l1.2-5.5h2.2l1.2,5.5h0.2l1-5.5h1.6l-1.4,6.9h-2.3l-1.2-5.5h-0.2l-1.2,5.5h-2.2l-1.5-6.9
			H440z" />
            <path class="st1" d="M452.6,232.5c2,0,3.6,1.5,3.6,3.6s-1.6,3.7-3.6,3.7s-3.6-1.5-3.6-3.7S450.6,232.5,452.6,232.5z M452.6,238.5
			c1.2,0,2-0.9,2-2.3s-0.8-2.3-2-2.3s-2,0.9-2,2.3S451.4,238.5,452.6,238.5z" />
            <path class="st1" d="M459.1,232.7v1h0.2c0.3-0.6,0.9-1.1,1.9-1.1s1.6,0.5,1.9,1.2h0.2c0.3-0.6,0.9-1.2,2-1.2
			c1.2,0,2.3,0.9,2.3,2.3v4.7h-1.5V235c0-0.7-0.5-1.1-1.3-1.1s-1.4,0.5-1.4,1.4v4.3h-1.5V235c0-0.7-0.5-1.1-1.2-1.1
			c-0.8,0-1.4,0.5-1.4,1.4v4.3h-1.5v-6.9L459.1,232.7L459.1,232.7z" />
            <path class="st1" d="M472.2,232.5c2,0,3.4,1.4,3.4,3.5v0.7h-5.2c0.1,1.1,0.8,1.8,2,1.8c1,0,1.5-0.5,1.8-1.1l1.3,0.7
			c-0.5,0.8-1.3,1.7-3.1,1.7c-2.1,0-3.6-1.6-3.6-3.7C468.7,234.1,470.2,232.5,472.2,232.5z M474,235.6c-0.1-1.1-0.7-1.7-1.8-1.7
			c-1.1,0-1.7,0.6-1.8,1.7H474z" />
            <path class="st1" d="M478.3,232.7v1.1h0.2c0.3-0.6,0.9-1.2,2.3-1.2c1.5,0,2.7,1,2.7,2.9v4.1H482v-4c0-1.1-0.6-1.7-1.7-1.7
			c-1.2,0-1.9,0.8-1.9,2.1v3.6h-1.5v-6.9L478.3,232.7L478.3,232.7z" />
        </g>
    </g>
    <g>
        <g>
            <path class="st9" d="M327.2,165.8L327.2,165.8c0-2.3,1.8-4.1,4.1-4.1l0,0c2.3,0,4.1,1.8,4.1,4.1l0,0c0,2.3-1.8,4.1-4.1,4.1l0,0
			C329.1,169.9,327.2,168.1,327.2,165.8z" />
            <path class="st9" d="M327.2,142.7L327.2,142.7c0-2.3,1.8-4.1,4.1-4.1l0,0c2.3,0,4.1,1.8,4.1,4.1l0,0c0,2.3-1.8,4.1-4.1,4.1l0,0
			C329.1,146.8,327.2,145,327.2,142.7z" />
            <path class="st9" d="M327.2,119.6L327.2,119.6c0-2.3,1.8-4.1,4.1-4.1l0,0c2.3,0,4.1,1.8,4.1,4.1l0,0c0,2.3-1.8,4.1-4.1,4.1l0,0
			C329.1,123.7,327.2,121.9,327.2,119.6z" />
            <path class="st9" d="M327.2,96.5L327.2,96.5c0-2.3,1.8-4.1,4.1-4.1l0,0c2.3,0,4.1,1.8,4.1,4.1l0,0c0,2.3-1.8,4.1-4.1,4.1l0,0
			C329.1,100.6,327.2,98.8,327.2,96.5z" />
            <path class="st9" d="M327.2,73.4L327.2,73.4c0-2.3,1.8-4.1,4.1-4.1l0,0c2.3,0,4.1,1.8,4.1,4.1l0,0c0,2.3-1.8,4.1-4.1,4.1l0,0
			C329.1,77.5,327.2,75.7,327.2,73.4z" />
            <path class="st9" d="M327.2,50.3L327.2,50.3c0-2.3,1.8-4.1,4.1-4.1l0,0c2.3,0,4.1,1.8,4.1,4.1l0,0c0,2.3-1.8,4.1-4.1,4.1l0,0
			C329.1,54.4,327.2,52.6,327.2,50.3z" />
            <path class="st9" d="M326.9,212L326.9,212c0-2.3,1.8-4.1,4.1-4.1l0,0c2.3,0,4.1,1.8,4.1,4.1l0,0c0,2.3-1.8,4.1-4.1,4.1l0,0
			C328.7,216.1,326.9,214.3,326.9,212z" />
            <path class="st9" d="M326.9,188.9L326.9,188.9c0-2.3,1.8-4.1,4.1-4.1l0,0c2.3,0,4.1,1.8,4.1,4.1l0,0c0,2.3-1.8,4.1-4.1,4.1l0,0
			C328.7,193,326.9,191.2,326.9,188.9z" />
        </g>
        <g id="testo_14_">
            <path class="st1" d="M331.9,229.8v1.5h-4.6v2.7h4.3v1.5h-4.3v4.2h-1.6v-9.8L331.9,229.8L331.9,229.8z" />
            <path class="st1" d="M336.1,232.5c2,0,3.4,1.4,3.4,3.5v0.7h-5.2c0.1,1.1,0.8,1.8,2,1.8c1,0,1.5-0.5,1.8-1.1l1.3,0.7
			c-0.5,0.8-1.3,1.7-3.1,1.7c-2.1,0-3.6-1.6-3.6-3.7C332.6,234,334.1,232.5,336.1,232.5z M337.9,235.5c-0.1-1.1-0.7-1.7-1.8-1.7
			c-1.1,0-1.7,0.6-1.8,1.7H337.9z" />
            <path class="st1" d="M342.3,232.7v1h0.2c0.3-0.6,0.9-1.1,1.9-1.1s1.6,0.5,1.9,1.2h0.2c0.3-0.6,0.9-1.2,2-1.2
			c1.2,0,2.3,0.9,2.3,2.3v4.7h-1.5V235c0-0.7-0.5-1.1-1.3-1.1s-1.4,0.5-1.4,1.4v4.3h-1.5V235c0-0.7-0.5-1.1-1.2-1.1
			c-0.8,0-1.4,0.5-1.4,1.4v4.3H341v-6.9H342.3z" />
            <path class="st1" d="M353.1,229.5c0.6,0,1.1,0.5,1.1,1.1s-0.5,1.1-1.1,1.1s-1.2-0.5-1.2-1.1C352,230,352.5,229.5,353.1,229.5z
			 M353.9,239.6h-1.5v-6.9h1.5V239.6z" />
            <path class="st1" d="M357.2,232.7v1.1h0.2c0.3-0.6,0.9-1.2,2.3-1.2c1.5,0,2.7,1,2.7,2.9v4.1h-1.5v-4c0-1.1-0.6-1.7-1.7-1.7
			c-1.2,0-1.9,0.8-1.9,2.1v3.6h-1.5v-6.9L357.2,232.7L357.2,232.7z" />
            <path class="st1" d="M364.8,229.5c0.6,0,1.1,0.5,1.1,1.1s-0.5,1.1-1.1,1.1s-1.2-0.5-1.2-1.1C363.6,230,364.1,229.5,364.8,229.5z
			 M365.5,239.6H364v-6.9h1.5V239.6z" />
            <path class="st1" d="M369.8,232.5c1.6,0,2.7,0.7,3.5,1.7l-1.1,0.9c-0.7-1-1.5-1.3-2.3-1.3s-1.2,0.3-1.2,0.8c0,0.4,0.4,0.7,1.1,0.8
			l0.8,0.1c1.5,0.3,2.7,0.8,2.7,2.1s-1.2,2.2-2.9,2.2c-1.8,0-3.1-0.9-3.8-2.1l1.3-0.7c0.6,1.2,1.5,1.6,2.5,1.6
			c0.9,0,1.4-0.4,1.4-0.9s-0.5-0.7-1.3-0.9l-0.8-0.1c-1.5-0.3-2.6-0.8-2.6-2.1S368.2,232.5,369.8,232.5z" />
            <path class="st1" d="M376.1,232.7v1h0.2c0.3-0.6,0.9-1.1,1.9-1.1s1.6,0.5,1.9,1.2h0.2c0.3-0.6,0.9-1.2,2-1.2
			c1.2,0,2.3,0.9,2.3,2.3v4.7H383V235c0-0.7-0.5-1.1-1.3-1.1s-1.4,0.5-1.4,1.4v4.3h-1.5V235c0-0.7-0.5-1.1-1.2-1.1
			c-0.8,0-1.4,0.5-1.4,1.4v4.3h-1.5v-6.9H376.1z" />
            <path class="st1" d="M391,229.5c0.6,0,1.1,0.5,1.1,1.1s-0.5,1.1-1.1,1.1s-1.2-0.5-1.2-1.1S390.3,229.5,391,229.5z M391.8,239.6
			h-1.5v-6.9h1.5V239.6z" />
            <path class="st1" d="M396,232.5c1.6,0,2.7,0.7,3.5,1.7l-1.1,0.9c-0.7-1-1.5-1.3-2.3-1.3s-1.2,0.3-1.2,0.8c0,0.4,0.4,0.7,1.1,0.8
			l0.8,0.1c1.5,0.3,2.7,0.8,2.7,2.1s-1.2,2.2-2.9,2.2c-1.8,0-3.1-0.9-3.8-2.1l1.3-0.7c0.6,1.2,1.5,1.6,2.5,1.6
			c0.9,0,1.4-0.4,1.4-0.9s-0.5-0.7-1.3-0.9l-0.8-0.1c-1.5-0.3-2.6-0.8-2.6-2.1S394.5,232.5,396,232.5z" />
            <path class="st1" d="M406,232.7v-1.6c0-0.8,0.5-1.3,1.3-1.3h1.8v1.3H408c-0.3,0-0.4,0.1-0.4,0.4v1.2h1.9v1.3h-1.9v5.6H406V234
			h-1.8v-1.3H406z" />
            <path class="st1" d="M413.6,232.5c2,0,3.6,1.5,3.6,3.6s-1.6,3.7-3.6,3.7s-3.6-1.5-3.6-3.7S411.6,232.5,413.6,232.5z M413.6,238.4
			c1.2,0,2-0.9,2-2.3s-0.8-2.3-2-2.3s-2,0.9-2,2.3S412.4,238.4,413.6,238.4z" />
            <path class="st1" d="M420,233.7h0.2c0.3-0.8,0.8-1.1,1.8-1.1h0.7v1.4h-1.1c-0.9,0-1.5,0.5-1.5,1.5v4h-1.5v-6.9h1.5v1.1H420z" />
            <path class="st1" d="M429.3,232.7v1h0.2c0.3-0.6,0.9-1.1,1.9-1.1s1.6,0.5,1.9,1.2h0.2c0.3-0.6,0.9-1.2,2-1.2
			c1.2,0,2.3,0.9,2.3,2.3v4.7h-1.5V235c0-0.7-0.5-1.1-1.3-1.1s-1.4,0.5-1.4,1.4v4.3H432V235c0-0.7-0.5-1.1-1.2-1.1
			c-0.8,0-1.4,0.5-1.4,1.4v4.3h-1.5v-6.9H429.3z" />
            <path class="st1" d="M442.4,232.5c2,0,3.4,1.4,3.4,3.5v0.7h-5.2c0.1,1.1,0.8,1.8,2,1.8c1,0,1.5-0.5,1.8-1.1l1.3,0.7
			c-0.5,0.8-1.3,1.7-3.1,1.7c-2.1,0-3.6-1.6-3.6-3.7C438.9,234,440.4,232.5,442.4,232.5z M444.2,235.5c-0.1-1.1-0.7-1.7-1.8-1.7
			c-1.1,0-1.7,0.6-1.8,1.7H444.2z" />
            <path class="st1" d="M448.6,232.7v1.1h0.2c0.3-0.6,0.9-1.2,2.3-1.2c1.5,0,2.7,1,2.7,2.9v4.1h-1.5v-4c0-1.1-0.6-1.7-1.7-1.7
			c-1.2,0-1.9,0.8-1.9,2.1v3.6H447v-6.9L448.6,232.7L448.6,232.7z" />
            <path class="st1" d="M460.4,232.7v-2.3h1.5v2.3h2v1.3h-2v3.9c0,0.3,0.1,0.4,0.4,0.4h1.2v1.3h-1.8c-0.7,0-1.3-0.5-1.3-1.3V234h-1.8
			v-1.3H460.4z" />
            <path class="st1" d="M468.3,232.5c2,0,3.6,1.5,3.6,3.6s-1.6,3.7-3.6,3.7s-3.6-1.5-3.6-3.7S466.3,232.5,468.3,232.5z M468.3,238.4
			c1.2,0,2-0.9,2-2.3s-0.8-2.3-2-2.3s-2,0.9-2,2.3S467.1,238.4,468.3,238.4z" />
            <path class="st1" d="M476.4,232.5c2,0,3.6,1.5,3.6,3.6s-1.6,3.7-3.6,3.7s-3.6-1.5-3.6-3.7S474.3,232.5,476.4,232.5z M476.4,238.4
			c1.2,0,2-0.9,2-2.3s-0.8-2.3-2-2.3s-2,0.9-2,2.3S475.1,238.4,476.4,238.4z" />
        </g>
    </g>
    <g>
        <g>
            <path class="st10" d="M375,4.1L375,4.1c0,2.3-1.8,4.1-4.1,4.1l0,0c-2.3,0-4.1-1.8-4.1-4.1l0,0c0-2.3,1.8-4.1,4.1-4.1l0,0
			C373.1,0,375,1.8,375,4.1z" />
            <path class="st10" d="M421.2,73.4L421.2,73.4c0,2.3-1.8,4.1-4.1,4.1l0,0c-2.3,0-4.1-1.8-4.1-4.1l0,0c0-2.3,1.8-4.1,4.1-4.1l0,0
			C419.3,69.3,421.2,71.1,421.2,73.4z" />
            <path class="st10" d="M421.2,96.5L421.2,96.5c0,2.3-1.8,4.1-4.1,4.1l0,0c-2.3,0-4.1-1.8-4.1-4.1l0,0c0-2.3,1.8-4.1,4.1-4.1l0,0
			C419.3,92.4,421.2,94.2,421.2,96.5z" />
            <path class="st10" d="M421.2,119.6L421.2,119.6c0,2.3-1.8,4.1-4.1,4.1l0,0c-2.3,0-4.1-1.8-4.1-4.1l0,0c0-2.3,1.8-4.1,4.1-4.1l0,0
			C419.3,115.5,421.2,117.3,421.2,119.6z" />
            <path class="st10" d="M421.2,142.7L421.2,142.7c0,2.3-1.8,4.1-4.1,4.1l0,0c-2.3,0-4.1-1.8-4.1-4.1l0,0c0-2.3,1.8-4.1,4.1-4.1l0,0
			C419.3,138.6,421.2,140.4,421.2,142.7z" />
            <path class="st10" d="M421.2,165.8L421.2,165.8c0,2.3-1.8,4.1-4.1,4.1l0,0c-2.3,0-4.1-1.8-4.1-4.1l0,0c0-2.3,1.8-4.1,4.1-4.1l0,0
			C419.3,161.7,421.2,163.5,421.2,165.8z" />
            <path class="st10" d="M421.2,188.9L421.2,188.9c0,2.3-1.8,4.1-4.1,4.1l0,0c-2.3,0-4.1-1.8-4.1-4.1l0,0c0-2.3,1.8-4.1,4.1-4.1l0,0
			C419.3,184.8,421.2,186.6,421.2,188.9z" />
            <path class="st10" d="M398.1,4.1L398.1,4.1c0,2.3-1.8,4.1-4.1,4.1l0,0c-2.3,0-4.1-1.8-4.1-4.1l0,0c0-2.3,1.8-4.1,4.1-4.1l0,0
			C396.2,0,398.1,1.8,398.1,4.1z" />
            <path class="st10" d="M398.1,27.2L398.1,27.2c0,2.3-1.8,4.1-4.1,4.1l0,0c-2.3,0-4.1-1.8-4.1-4.1l0,0c0-2.3,1.8-4.1,4.1-4.1l0,0
			C396.2,23.1,398.1,24.9,398.1,27.2z" />
            <path class="st10" d="M398.1,50.3L398.1,50.3c0,2.3-1.8,4.1-4.1,4.1l0,0c-2.3,0-4.1-1.8-4.1-4.1l0,0c0-2.3,1.8-4.1,4.1-4.1l0,0
			C396.2,46.2,398.1,48,398.1,50.3z" />
            <path class="st10" d="M398.1,73.4L398.1,73.4c0,2.3-1.8,4.1-4.1,4.1l0,0c-2.3,0-4.1-1.8-4.1-4.1l0,0c0-2.3,1.8-4.1,4.1-4.1l0,0
			C396.2,69.3,398.1,71.1,398.1,73.4z" />
            <path class="st10" d="M398.1,96.5L398.1,96.5c0,2.3-1.8,4.1-4.1,4.1l0,0c-2.3,0-4.1-1.8-4.1-4.1l0,0c0-2.3,1.8-4.1,4.1-4.1l0,0
			C396.2,92.4,398.1,94.2,398.1,96.5z" />
            <path class="st10" d="M398.1,119.6L398.1,119.6c0,2.3-1.8,4.1-4.1,4.1l0,0c-2.3,0-4.1-1.8-4.1-4.1l0,0c0-2.3,1.8-4.1,4.1-4.1l0,0
			C396.2,115.5,398.1,117.3,398.1,119.6z" />
            <path class="st10" d="M398.1,142.7L398.1,142.7c0,2.3-1.8,4.1-4.1,4.1l0,0c-2.3,0-4.1-1.8-4.1-4.1l0,0c0-2.3,1.8-4.1,4.1-4.1l0,0
			C396.2,138.6,398.1,140.4,398.1,142.7z" />
            <path class="st10" d="M398.1,165.8L398.1,165.8c0,2.3-1.8,4.1-4.1,4.1l0,0c-2.3,0-4.1-1.8-4.1-4.1l0,0c0-2.3,1.8-4.1,4.1-4.1l0,0
			C396.2,161.7,398.1,163.5,398.1,165.8z" />
            <path class="st10" d="M398.1,188.9L398.1,188.9c0,2.3-1.8,4.1-4.1,4.1l0,0c-2.3,0-4.1-1.8-4.1-4.1l0,0c0-2.3,1.8-4.1,4.1-4.1l0,0
			C396.2,184.8,398.1,186.6,398.1,188.9z" />
            <path class="st10" d="M398.1,212L398.1,212c0,2.3-1.8,4.1-4.1,4.1l0,0c-2.3,0-4.1-1.8-4.1-4.1l0,0c0-2.3,1.8-4.1,4.1-4.1l0,0
			C396.2,207.9,398.1,209.7,398.1,212z" />
            <path class="st10" d="M375,212L375,212c0,2.3-1.8,4.1-4.1,4.1l0,0c-2.3,0-4.1-1.8-4.1-4.1l0,0c0-2.3,1.8-4.1,4.1-4.1l0,0
			C373.1,207.9,375,209.7,375,212z" />
            <path class="st10" d="M375,27.2L375,27.2c0,2.3-1.8,4.1-4.1,4.1l0,0c-2.3,0-4.1-1.8-4.1-4.1l0,0c0-2.3,1.8-4.1,4.1-4.1l0,0
			C373.1,23.1,375,24.9,375,27.2z" />
            <path class="st10" d="M375,50.3L375,50.3c0,2.3-1.8,4.1-4.1,4.1l0,0c-2.3,0-4.1-1.8-4.1-4.1l0,0c0-2.3,1.8-4.1,4.1-4.1l0,0
			C373.1,46.2,375,48,375,50.3z" />
            <path class="st10" d="M375,73.4L375,73.4c0,2.3-1.8,4.1-4.1,4.1l0,0c-2.3,0-4.1-1.8-4.1-4.1l0,0c0-2.3,1.8-4.1,4.1-4.1l0,0
			C373.1,69.3,375,71.1,375,73.4z" />
            <path class="st10" d="M375,96.5L375,96.5c0,2.3-1.8,4.1-4.1,4.1l0,0c-2.3,0-4.1-1.8-4.1-4.1l0,0c0-2.3,1.8-4.1,4.1-4.1l0,0
			C373.1,92.4,375,94.2,375,96.5z" />
            <path class="st10" d="M375,119.6L375,119.6c0,2.3-1.8,4.1-4.1,4.1l0,0c-2.3,0-4.1-1.8-4.1-4.1l0,0c0-2.3,1.8-4.1,4.1-4.1l0,0
			C373.1,115.5,375,117.3,375,119.6z" />
            <path class="st10" d="M375,142.7L375,142.7c0,2.3-1.8,4.1-4.1,4.1l0,0c-2.3,0-4.1-1.8-4.1-4.1l0,0c0-2.3,1.8-4.1,4.1-4.1l0,0
			C373.1,138.6,375,140.4,375,142.7z" />
            <path class="st10" d="M375,165.8L375,165.8c0,2.3-1.8,4.1-4.1,4.1l0,0c-2.3,0-4.1-1.8-4.1-4.1l0,0c0-2.3,1.8-4.1,4.1-4.1l0,0
			C373.1,161.7,375,163.5,375,165.8z" />
            <path class="st10" d="M375,188.9L375,188.9c0,2.3-1.8,4.1-4.1,4.1l0,0c-2.3,0-4.1-1.8-4.1-4.1l0,0c0-2.3,1.8-4.1,4.1-4.1l0,0
			C373.1,184.8,375,186.6,375,188.9z" />
            <path class="st10" d="M421.2,212L421.2,212c0,2.3-1.8,4.1-4.1,4.1l0,0c-2.3,0-4.1-1.8-4.1-4.1l0,0c0-2.3,1.8-4.1,4.1-4.1l0,0
			C419.3,207.9,421.2,209.7,421.2,212z" />
        </g>
        <g id="testo_15_">
            <path class="st1" d="M371.8,230.5v1.5h-4.6v2.7h4.3v1.5h-4.3v4.2h-1.6v-9.8L371.8,230.5L371.8,230.5z" />
            <path class="st1" d="M374.4,234.5h0.2c0.3-0.8,0.8-1.1,1.8-1.1h0.7v1.4H376c-0.9,0-1.5,0.5-1.5,1.5v4H373v-6.9h1.5v1.1H374.4z" />
            <path class="st1" d="M380.9,233.2c2,0,3.4,1.4,3.4,3.5v0.7h-5.2c0.1,1.1,0.8,1.8,2,1.8c1,0,1.5-0.5,1.8-1.1l1.3,0.7
			c-0.5,0.8-1.3,1.7-3.1,1.7c-2.1,0-3.6-1.6-3.6-3.7C377.5,234.7,378.9,233.2,380.9,233.2z M382.7,236.2c-0.1-1.1-0.7-1.7-1.8-1.7
			c-1.1,0-1.7,0.6-1.8,1.7H382.7z" />
            <path class="st1" d="M388.6,233.2c2,0,3.4,1.4,3.4,3.5v0.7h-5.2c0.1,1.1,0.8,1.8,2,1.8c1,0,1.5-0.5,1.8-1.1l1.3,0.7
			c-0.5,0.8-1.3,1.7-3.1,1.7c-2.1,0-3.6-1.6-3.6-3.7C385.1,234.7,386.6,233.2,388.6,233.2z M390.4,236.2c-0.1-1.1-0.7-1.7-1.8-1.7
			c-1.1,0-1.7,0.6-1.8,1.7H390.4z" />
            <path class="st1" d="M398.4,233.4v-1.6c0-0.8,0.5-1.3,1.3-1.3h1.8v1.3h-1.1c-0.3,0-0.4,0.1-0.4,0.4v1.2h1.9v1.3H400v5.6h-1.5v-5.6
			h-1.8v-1.3L398.4,233.4L398.4,233.4z" />
            <path class="st1" d="M404.4,234.5h0.2c0.3-0.8,0.8-1.1,1.8-1.1h0.7v1.4H406c-0.9,0-1.5,0.5-1.5,1.5v4H403v-6.9h1.5v1.1H404.4z" />
            <path class="st1" d="M411,233.2c2,0,3.6,1.5,3.6,3.6s-1.6,3.7-3.6,3.7s-3.6-1.5-3.6-3.7S409,233.2,411,233.2z M411,239.1
			c1.2,0,2-0.9,2-2.3s-0.8-2.3-2-2.3s-2,0.9-2,2.3S409.8,239.1,411,239.1z" />
            <path class="st1" d="M417.5,233.4v1h0.2c0.3-0.6,0.9-1.1,1.9-1.1s1.6,0.5,1.9,1.2h0.2c0.3-0.6,0.9-1.2,2-1.2
			c1.2,0,2.3,0.9,2.3,2.3v4.7h-1.5v-4.6c0-0.7-0.5-1.1-1.3-1.1s-1.4,0.5-1.4,1.4v4.3h-1.5v-4.6c0-0.7-0.5-1.1-1.2-1.1
			c-0.8,0-1.4,0.5-1.4,1.4v4.3h-1.5v-6.9L417.5,233.4L417.5,233.4z" />
            <path class="st1" d="M438.3,233.4v6.7c0,1.9-1.3,3.2-3.5,3.2c-1.9,0-2.9-0.9-3.6-1.9l1.3-0.8c0.4,0.7,1.1,1.4,2.2,1.4
			c1.2,0,2-0.6,2-1.9v-0.9h-0.2c-0.4,0.6-1,1.2-2.3,1.2c-1.8,0-3.2-1.5-3.2-3.6s1.4-3.5,3.2-3.5c1.3,0,1.9,0.6,2.3,1.2h0.2v-1
			L438.3,233.4L438.3,233.4z M436.8,236.8c0-1.4-0.8-2.2-2-2.2s-2.1,0.8-2.1,2.2s0.9,2.2,2.1,2.2
			C435.9,238.9,436.8,238.1,436.8,236.8z" />
            <path class="st1" d="M443.1,233.2c2,0,3.4,1.4,3.4,3.5v0.7h-5.2c0.1,1.1,0.8,1.8,2,1.8c1,0,1.5-0.5,1.8-1.1l1.3,0.7
			c-0.5,0.8-1.3,1.7-3.1,1.7c-2.1,0-3.6-1.6-3.6-3.7C439.6,234.7,441.1,233.2,443.1,233.2z M444.9,236.2c-0.1-1.1-0.7-1.7-1.8-1.7
			c-1.1,0-1.7,0.6-1.8,1.7H444.9z" />
            <path class="st1" d="M449.2,233.4v1.1h0.2c0.3-0.6,0.9-1.2,2.3-1.2c1.5,0,2.7,1,2.7,2.9v4.1h-1.5v-4c0-1.1-0.6-1.7-1.7-1.7
			c-1.2,0-1.9,0.8-1.9,2.1v3.6h-1.5v-6.9L449.2,233.4L449.2,233.4z" />
            <path class="st1" d="M462.8,240.3h-1.5v-1h-0.2c-0.4,0.6-1,1.2-2.3,1.2c-1.8,0-3.2-1.5-3.2-3.7c0-2.1,1.4-3.6,3.2-3.6
			c1.3,0,1.9,0.6,2.3,1.2h0.2v-3.9h1.5V240.3z M457.2,236.9c0,1.5,0.9,2.3,2.1,2.3s2-0.9,2-2.3c0-1.4-0.8-2.3-2-2.3
			C458,234.6,457.2,235.4,457.2,236.9z" />
            <path class="st1" d="M467.6,233.2c2,0,3.4,1.4,3.4,3.5v0.7h-5.2c0.1,1.1,0.8,1.8,2,1.8c1,0,1.5-0.5,1.8-1.1l1.3,0.7
			c-0.5,0.8-1.3,1.7-3.1,1.7c-2.1,0-3.6-1.6-3.6-3.7C464.1,234.7,465.6,233.2,467.6,233.2z M469.4,236.2c-0.1-1.1-0.7-1.7-1.8-1.7
			c-1.1,0-1.7,0.6-1.8,1.7H469.4z" />
            <path class="st1" d="M473.7,234.5h0.2c0.3-0.8,0.8-1.1,1.8-1.1h0.7v1.4h-1.1c-0.9,0-1.5,0.5-1.5,1.5v4h-1.5v-6.9h1.5v1.1H473.7z" />
            <path class="st1" d="M484,233.2c1.6,0,2.7,0.7,3.5,1.7l-1.1,0.9c-0.7-1-1.5-1.3-2.3-1.3s-1.2,0.3-1.2,0.8c0,0.4,0.4,0.7,1.1,0.8
			l0.8,0.1c1.5,0.3,2.7,0.8,2.7,2.1s-1.2,2.2-2.9,2.2c-1.8,0-3.1-0.9-3.8-2.1l1.3-0.7c0.6,1.2,1.5,1.6,2.5,1.6
			c0.9,0,1.4-0.4,1.4-0.9s-0.5-0.7-1.3-0.9l-0.8-0.1c-1.5-0.3-2.6-0.8-2.6-2.1S482.4,233.2,484,233.2z" />
            <path class="st1" d="M489.9,233.4v-2.3h1.5v2.3h2v1.3h-2v3.9c0,0.3,0.1,0.4,0.4,0.4h1.2v1.3h-1.8c-0.7,0-1.3-0.5-1.3-1.3v-4.3
			h-1.8v-1.3L489.9,233.4L489.9,233.4z" />
            <path class="st1" d="M497.6,233.2c2,0,3.4,1.4,3.4,3.5v0.7h-5.2c0.1,1.1,0.8,1.8,2,1.8c1,0,1.5-0.5,1.8-1.1l1.3,0.7
			c-0.5,0.8-1.3,1.7-3.1,1.7c-2.1,0-3.6-1.6-3.6-3.7C494.2,234.7,495.6,233.2,497.6,233.2z M499.4,236.2c-0.1-1.1-0.7-1.7-1.8-1.7
			c-1.1,0-1.7,0.6-1.8,1.7H499.4z" />
            <path class="st1" d="M503.7,234.5h0.2c0.3-0.8,0.8-1.1,1.8-1.1h0.7v1.4h-1.1c-0.9,0-1.5,0.5-1.5,1.5v4h-1.5v-6.9h1.5v1.1H503.7z" />
            <path class="st1" d="M510.2,233.2c2,0,3.4,1.4,3.4,3.5v0.7h-5.2c0.1,1.1,0.8,1.8,2,1.8c1,0,1.5-0.5,1.8-1.1l1.3,0.7
			c-0.5,0.8-1.3,1.7-3.1,1.7c-2.1,0-3.6-1.6-3.6-3.7S508.2,233.2,510.2,233.2z M512,236.2c-0.1-1.1-0.7-1.7-1.8-1.7
			c-1.1,0-1.7,0.6-1.8,1.7H512z" />
            <path class="st1" d="M518,233.2c2,0,3.6,1.5,3.6,3.6s-1.6,3.7-3.6,3.7s-3.6-1.5-3.6-3.7S516,233.2,518,233.2z M518,239.1
			c1.2,0,2-0.9,2-2.3s-0.8-2.3-2-2.3s-2,0.9-2,2.3S516.8,239.1,518,239.1z" />
            <path class="st1" d="M523.9,233.4v-2.3h1.5v2.3h2v1.3h-2v3.9c0,0.3,0.1,0.4,0.4,0.4h1.2v1.3h-1.8c-0.7,0-1.3-0.5-1.3-1.3v-4.3
			h-1.8v-1.3L523.9,233.4L523.9,233.4z" />
            <path class="st1" d="M535.4,233.4l-3.9,9.7h-1.7l1.1-2.5l-2.9-7.2h1.7l2,5.1h0.2l2-5.1H535.4z" />
            <path class="st1" d="M536.5,233.4h1.5v1h0.2c0.4-0.6,1-1.2,2.3-1.2c1.8,0,3.2,1.5,3.2,3.6s-1.4,3.7-3.2,3.7
			c-1.3,0-1.9-0.6-2.3-1.2H538v3.8h-1.5V233.4z M542.1,236.9c0-1.5-0.9-2.3-2.1-2.3c-1.2,0-2,0.9-2,2.3c0,1.4,0.8,2.3,2,2.3
			C541.2,239.1,542.1,238.3,542.1,236.9z" />
            <path class="st1" d="M548,233.2c2,0,3.4,1.4,3.4,3.5v0.7h-5.2c0.1,1.1,0.8,1.8,2,1.8c1,0,1.5-0.5,1.8-1.1l1.3,0.7
			c-0.5,0.8-1.3,1.7-3.1,1.7c-2.1,0-3.6-1.6-3.6-3.7C544.6,234.7,546,233.2,548,233.2z M549.8,236.2c-0.1-1.1-0.7-1.7-1.8-1.7
			s-1.7,0.6-1.8,1.7H549.8z" />
            <path class="st1" d="M555.1,233.2c1.6,0,2.7,0.7,3.5,1.7l-1.1,0.9c-0.7-1-1.5-1.3-2.3-1.3s-1.2,0.3-1.2,0.8c0,0.4,0.4,0.7,1.1,0.8
			l0.8,0.1c1.5,0.3,2.7,0.8,2.7,2.1s-1.2,2.2-2.9,2.2c-1.8,0-3.1-0.9-3.8-2.1l1.3-0.7c0.6,1.2,1.5,1.6,2.5,1.6
			c0.9,0,1.4-0.4,1.4-0.9s-0.5-0.7-1.3-0.9l-0.8-0.1c-1.5-0.3-2.6-0.8-2.6-2.1S553.6,233.2,555.1,233.2z" />
        </g>
    </g>
    <g>
        <g>
            <path class="st11" d="M499,212L499,212c0-2.3,1.8-4.1,4.1-4.1l0,0c2.3,0,4.1,1.8,4.1,4.1l0,0c0,2.3-1.8,4.1-4.1,4.1l0,0
			C500.8,216.1,499,214.3,499,212z" />
            <path class="st11" d="M499,188.9L499,188.9c0-2.3,1.8-4.1,4.1-4.1l0,0c2.3,0,4.1,1.8,4.1,4.1l0,0c0,2.3-1.8,4.1-4.1,4.1l0,0
			C500.8,193,499,191.2,499,188.9z" />
            <path class="st11" d="M499,165.8L499,165.8c0-2.3,1.8-4.1,4.1-4.1l0,0c2.3,0,4.1,1.8,4.1,4.1l0,0c0,2.3-1.8,4.1-4.1,4.1l0,0
			C500.8,169.9,499,168.1,499,165.8z" />
            <path class="st11" d="M499,142.7L499,142.7c0-2.3,1.8-4.1,4.1-4.1l0,0c2.3,0,4.1,1.8,4.1,4.1l0,0c0,2.3-1.8,4.1-4.1,4.1l0,0
			C500.8,146.8,499,145,499,142.7z" />
            <path class="st11" d="M499,119.6L499,119.6c0-2.3,1.8-4.1,4.1-4.1l0,0c2.3,0,4.1,1.8,4.1,4.1l0,0c0,2.3-1.8,4.1-4.1,4.1l0,0
			C500.8,123.7,499,121.9,499,119.6z" />
            <path class="st11" d="M452.8,212L452.8,212c0-2.3,1.8-4.1,4.1-4.1l0,0c2.3,0,4.1,1.8,4.1,4.1l0,0c0,2.3-1.8,4.1-4.1,4.1l0,0
			C454.6,216.1,452.8,214.3,452.8,212z" />
            <path class="st11" d="M452.8,188.9L452.8,188.9c0-2.3,1.8-4.1,4.1-4.1l0,0c2.3,0,4.1,1.8,4.1,4.1l0,0c0,2.3-1.8,4.1-4.1,4.1l0,0
			C454.6,193,452.8,191.2,452.8,188.9z" />
            <path class="st11" d="M452.8,165.8L452.8,165.8c0-2.3,1.8-4.1,4.1-4.1l0,0c2.3,0,4.1,1.8,4.1,4.1l0,0c0,2.3-1.8,4.1-4.1,4.1l0,0
			C454.6,169.9,452.8,168.1,452.8,165.8z" />
            <path class="st11" d="M452.8,142.7L452.8,142.7c0-2.3,1.8-4.1,4.1-4.1l0,0c2.3,0,4.1,1.8,4.1,4.1l0,0c0,2.3-1.8,4.1-4.1,4.1l0,0
			C454.6,146.8,452.8,145,452.8,142.7z" />
            <path class="st11" d="M452.8,119.6L452.8,119.6c0-2.3,1.8-4.1,4.1-4.1l0,0c2.3,0,4.1,1.8,4.1,4.1l0,0c0,2.3-1.8,4.1-4.1,4.1l0,0
			C454.6,123.7,452.8,121.9,452.8,119.6z" />
            <path class="st11" d="M452.8,96.5L452.8,96.5c0-2.3,1.8-4.1,4.1-4.1l0,0c2.3,0,4.1,1.8,4.1,4.1l0,0c0,2.3-1.8,4.1-4.1,4.1l0,0
			C454.6,100.6,452.8,98.8,452.8,96.5z" />
            <path class="st11" d="M452.8,73.4L452.8,73.4c0-2.3,1.8-4.1,4.1-4.1l0,0c2.3,0,4.1,1.8,4.1,4.1l0,0c0,2.3-1.8,4.1-4.1,4.1l0,0
			C454.6,77.5,452.8,75.7,452.8,73.4z" />
            <path class="st11" d="M452.8,50.3L452.8,50.3c0-2.3,1.8-4.1,4.1-4.1l0,0c2.3,0,4.1,1.8,4.1,4.1l0,0c0,2.3-1.8,4.1-4.1,4.1l0,0
			C454.6,54.4,452.8,52.6,452.8,50.3z" />
            <path class="st11" d="M452.8,27.2L452.8,27.2c0-2.3,1.8-4.1,4.1-4.1l0,0c2.3,0,4.1,1.8,4.1,4.1l0,0c0,2.3-1.8,4.1-4.1,4.1l0,0
			C454.6,31.3,452.8,29.5,452.8,27.2z" />
            <path class="st11" d="M452.8,4.1L452.8,4.1c0-2.3,1.8-4.1,4.1-4.1l0,0c2.3,0,4.1,1.8,4.1,4.1l0,0c0,2.3-1.8,4.1-4.1,4.1l0,0
			C454.6,8.3,452.8,6.4,452.8,4.1z" />
            <path class="st11" d="M475.9,212L475.9,212c0-2.3,1.8-4.1,4.1-4.1l0,0c2.3,0,4.1,1.8,4.1,4.1l0,0c0,2.3-1.8,4.1-4.1,4.1l0,0
			C477.7,216.1,475.9,214.3,475.9,212z" />
            <path class="st11" d="M475.9,188.9L475.9,188.9c0-2.3,1.8-4.1,4.1-4.1l0,0c2.3,0,4.1,1.8,4.1,4.1l0,0c0,2.3-1.8,4.1-4.1,4.1l0,0
			C477.7,193,475.9,191.2,475.9,188.9z" />
            <path class="st11" d="M475.9,165.8L475.9,165.8c0-2.3,1.8-4.1,4.1-4.1l0,0c2.3,0,4.1,1.8,4.1,4.1l0,0c0,2.3-1.8,4.1-4.1,4.1l0,0
			C477.7,169.9,475.9,168.1,475.9,165.8z" />
            <path class="st11" d="M475.9,142.7L475.9,142.7c0-2.3,1.8-4.1,4.1-4.1l0,0c2.3,0,4.1,1.8,4.1,4.1l0,0c0,2.3-1.8,4.1-4.1,4.1l0,0
			C477.7,146.8,475.9,145,475.9,142.7z" />
            <path class="st11" d="M475.9,119.6L475.9,119.6c0-2.3,1.8-4.1,4.1-4.1l0,0c2.3,0,4.1,1.8,4.1,4.1l0,0c0,2.3-1.8,4.1-4.1,4.1l0,0
			C477.7,123.7,475.9,121.9,475.9,119.6z" />
            <path class="st11" d="M475.9,96.5L475.9,96.5c0-2.3,1.8-4.1,4.1-4.1l0,0c2.3,0,4.1,1.8,4.1,4.1l0,0c0,2.3-1.8,4.1-4.1,4.1l0,0
			C477.7,100.6,475.9,98.8,475.9,96.5z" />
            <path class="st11" d="M475.9,73.4L475.9,73.4c0-2.3,1.8-4.1,4.1-4.1l0,0c2.3,0,4.1,1.8,4.1,4.1l0,0c0,2.3-1.8,4.1-4.1,4.1l0,0
			C477.7,77.5,475.9,75.7,475.9,73.4z" />
            <path class="st11" d="M475.9,50.3L475.9,50.3c0-2.3,1.8-4.1,4.1-4.1l0,0c2.3,0,4.1,1.8,4.1,4.1l0,0c0,2.3-1.8,4.1-4.1,4.1l0,0
			C477.7,54.4,475.9,52.6,475.9,50.3z" />
            <path class="st11" d="M475.9,27.2L475.9,27.2c0-2.3,1.8-4.1,4.1-4.1l0,0c2.3,0,4.1,1.8,4.1,4.1l0,0c0,2.3-1.8,4.1-4.1,4.1l0,0
			C477.7,31.3,475.9,29.5,475.9,27.2z" />
            <path class="st11" d="M475.9,4.1L475.9,4.1c0-2.3,1.8-4.1,4.1-4.1l0,0c2.3,0,4.1,1.8,4.1,4.1l0,0c0,2.3-1.8,4.1-4.1,4.1l0,0
			C477.7,8.3,475.9,6.4,475.9,4.1z" />
        </g>
        <g id="testo_16_">
            <path class="st1" d="M455.8,229.6c2.4,0,3.8,1.4,3.8,3.5v0.3H458v-0.3c0-1.2-0.7-2.1-2.1-2.1c-1.5,0-2.3,1-2.3,2.5v2.4
			c0,1.5,0.8,2.5,2.3,2.5s2.1-0.9,2.1-2.1V236h1.6v0.3c0,2.2-1.3,3.6-3.8,3.6c-2.4,0-4-1.4-4-4v-2.2
			C451.9,231.1,453.4,229.6,455.8,229.6z" />
            <path class="st1" d="M464,232.5c1.8,0,3.1,1.1,3.1,2.7v4.4h-1.5v-1h-0.2c-0.3,0.5-0.9,1.2-2.3,1.2c-1.6,0-2.6-0.8-2.6-2.1
			c0-1.2,0.9-1.9,2.5-2l2.6-0.3v-0.2c0-0.8-0.6-1.4-1.6-1.4s-1.6,0.6-2,1.4l-1.3-0.7C461.2,233.6,462.2,232.5,464,232.5z
			 M463.4,238.5c1.4,0,2.2-0.9,2.2-1.9v-0.1l-2.3,0.2c-0.7,0.1-1.2,0.3-1.2,0.9C462.1,238.1,462.6,238.5,463.4,238.5z" />
            <path class="st1" d="M470.3,239.6h-1.5v-9.8h1.5V239.6z" />
            <path class="st1" d="M473.6,239.6h-1.5v-9.8h1.5V239.6z" />
            <path class="st1" d="M480.4,232.7v-2.3h1.5v2.3h2v1.3h-2v3.9c0,0.3,0.1,0.4,0.4,0.4h1.2v1.3h-1.8c-0.7,0-1.3-0.5-1.3-1.3V234h-1.8
			v-1.3H480.4z" />
            <path class="st1" d="M488.3,232.5c2,0,3.6,1.5,3.6,3.6s-1.6,3.7-3.6,3.7s-3.6-1.5-3.6-3.7S486.3,232.5,488.3,232.5z M488.3,238.4
			c1.2,0,2-0.9,2-2.3s-0.8-2.3-2-2.3s-2,0.9-2,2.3S487.1,238.4,488.3,238.4z" />
            <path class="st1" d="M500.3,232.5c1.8,0,3.1,1.1,3.1,2.7v4.4h-1.5v-1h-0.2c-0.3,0.5-0.9,1.2-2.3,1.2c-1.6,0-2.6-0.8-2.6-2.1
			c0-1.2,0.9-1.9,2.5-2l2.6-0.3v-0.2c0-0.8-0.6-1.4-1.6-1.4s-1.6,0.6-2,1.4l-1.3-0.7C497.5,233.6,498.4,232.5,500.3,232.5z
			 M499.7,238.5c1.4,0,2.2-0.9,2.2-1.9v-0.1l-2.3,0.2c-0.7,0.1-1.2,0.3-1.2,0.9C498.4,238.1,498.8,238.5,499.7,238.5z" />
            <path class="st1" d="M508.2,232.5c1.9,0,3.1,1.1,3.4,2.7l-1.5,0.4c-0.1-0.9-0.7-1.6-1.9-1.6c-1.2,0-2.1,0.9-2.1,2.3
			c0,1.4,0.8,2.3,2.1,2.3c1.2,0,1.7-0.7,1.9-1.6l1.5,0.4c-0.3,1.4-1.4,2.7-3.4,2.7s-3.6-1.5-3.6-3.7
			C504.6,234,506.2,232.5,508.2,232.5z" />
            <path class="st1" d="M513.9,232.7v-2.3h1.5v2.3h2v1.3h-2v3.9c0,0.3,0.1,0.4,0.4,0.4h1.2v1.3h-1.8c-0.7,0-1.3-0.5-1.3-1.3V234h-1.8
			v-1.3H513.9z" />
            <path class="st1" d="M519.4,229.5c0.6,0,1.1,0.5,1.1,1.1s-0.5,1.1-1.1,1.1s-1.2-0.5-1.2-1.1C518.3,230,518.8,229.5,519.4,229.5z
			 M520.2,239.6h-1.5v-6.9h1.5V239.6z" />
            <path class="st1" d="M525.1,232.5c2,0,3.6,1.5,3.6,3.6s-1.6,3.7-3.6,3.7s-3.6-1.5-3.6-3.7S523.1,232.5,525.1,232.5z M525.1,238.4
			c1.2,0,2-0.9,2-2.3s-0.8-2.3-2-2.3s-2,0.9-2,2.3S523.9,238.4,525.1,238.4z" />
            <path class="st1" d="M531.6,232.7v1.1h0.2c0.3-0.6,0.9-1.2,2.3-1.2c1.5,0,2.7,1,2.7,2.9v4.1h-1.5v-4c0-1.1-0.6-1.7-1.7-1.7
			c-1.2,0-1.9,0.8-1.9,2.1v3.6H530v-6.9L531.6,232.7L531.6,232.7z" />
        </g>
    </g>
</svg>
