<?xml version="1.0" encoding="utf-8"?>
<!-- Generator: Adobe Illustrator 23.0.1, SVG Export Plug-In . SVG Version: 6.00 Build 0)  -->
<svg version="1.1" id="Livello_1" xmlns="http://www.w3.org/2000/svg" xmlns:xlink="http://www.w3.org/1999/xlink" x="0px" y="0px" viewBox="0 0 1086 267" style="enable-background:new 0 0 1086 267;" xml:space="preserve">
<!--
<style type="text/css">
    .st0 {
        fill: #1B2128;
    }

    .st1 {
        fill: #B3B3B3;
    }

    .st2 {
        fill: #FFFFFF;
    }

    .st3 {
        fill: #58626B;
    }

    .st4 {
        fill: #F9A973;
    }

    .st5 {
        fill: #30D840;
    }

    .st6 {
        fill: #9D77FC;
    }

    .st7 {
        fill: #FF7900;
    }

    .st8 {
        fill: #E31A1C;
    }
</style>
-->
    <g>
        <g>
            <path class="st1" d="M1,211.4L1,211.4c0-2.3,1.8-4.1,4.1-4.1l0,0c2.3,0,4.1,1.8,4.1,4.1l0,0c0,2.3-1.8,4.1-4.1,4.1l0,0
			C2.8,215.5,1,213.6,1,211.4z" />
            <path class="st1" d="M1,188.3L1,188.3c0-2.3,1.8-4.1,4.1-4.1l0,0c2.3,0,4.1,1.8,4.1,4.1l0,0c0,2.3-1.8,4.1-4.1,4.1l0,0
			C2.8,192.4,1,190.6,1,188.3z" />
            <path class="st1" d="M1,165.3L1,165.3c0-2.3,1.8-4.1,4.1-4.1l0,0c2.3,0,4.1,1.8,4.1,4.1l0,0c0,2.3-1.8,4.1-4.1,4.1l0,0
			C2.8,169.4,1,167.5,1,165.3z" />
            <path class="st1" d="M1,142.2L1,142.2c0-2.3,1.8-4.1,4.1-4.1l0,0c2.3,0,4.1,1.8,4.1,4.1l0,0c0,2.3-1.8,4.1-4.1,4.1l0,0
			C2.8,146.3,1,144.5,1,142.2z" />
            <path class="st1" d="M1,119.2L1,119.2c0-2.3,1.8-4.1,4.1-4.1l0,0c2.3,0,4.1,1.8,4.1,4.1l0,0c0,2.3-1.8,4.1-4.1,4.1l0,0
			C2.8,123.3,1,121.5,1,119.2z" />
            <path class="st1" d="M1,96.1L1,96.1C1,93.9,2.8,92,5.1,92l0,0c2.3,0,4.1,1.8,4.1,4.1l0,0c0,2.3-1.8,4.1-4.1,4.1l0,0
			C2.8,100.3,1,98.4,1,96.1z" />
            <path class="st1" d="M1,73.1L1,73.1C1,70.8,2.8,69,5.1,69l0,0c2.3,0,4.1,1.8,4.1,4.1l0,0c0,2.3-1.8,4.1-4.1,4.1l0,0
			C2.8,77.2,1,75.4,1,73.1z" />
            <path class="st1" d="M1,50.2L1,50.2c0-2.3,1.8-4.1,4.1-4.1l0,0c2.3,0,4.1,1.8,4.1,4.1l0,0c0,2.3-1.8,4.1-4.1,4.1l0,0
			C2.8,54.3,1,52.5,1,50.2z" />
            <path class="st1" d="M1,27.2L1,27.2C1,24.9,2.8,23,5.1,23l0,0c2.3,0,4.1,1.8,4.1,4.1l0,0c0,2.3-1.8,4.1-4.1,4.1l0,0
			C2.8,31.3,1,29.4,1,27.2z" />
            <path class="st1" d="M1,4.1L1,4.1C1,1.8,2.8,0,5.1,0l0,0c2.3,0,4.1,1.8,4.1,4.1l0,0c0,2.3-1.8,4.1-4.1,4.1l0,0
			C2.8,8.2,1,6.4,1,4.1z" />
            <path class="st1" d="M24,211.4L24,211.4c0-2.3,1.8-4.1,4.1-4.1l0,0c2.3,0,4.1,1.8,4.1,4.1l0,0c0,2.3-1.8,4.1-4.1,4.1l0,0
			C25.9,215.5,24,213.6,24,211.4z" />
            <path class="st1" d="M24,188.3L24,188.3c0-2.3,1.8-4.1,4.1-4.1l0,0c2.3,0,4.1,1.8,4.1,4.1l0,0c0,2.3-1.8,4.1-4.1,4.1l0,0
			C25.9,192.4,24,190.6,24,188.3z" />
            <path class="st1" d="M24,165.3L24,165.3c0-2.3,1.8-4.1,4.1-4.1l0,0c2.3,0,4.1,1.8,4.1,4.1l0,0c0,2.3-1.8,4.1-4.1,4.1l0,0
			C25.9,169.4,24,167.5,24,165.3z" />
            <path class="st1" d="M24,142.2L24,142.2c0-2.3,1.8-4.1,4.1-4.1l0,0c2.3,0,4.1,1.8,4.1,4.1l0,0c0,2.3-1.8,4.1-4.1,4.1l0,0
			C25.9,146.3,24,144.5,24,142.2z" />
            <path class="st1" d="M24,119.2L24,119.2c0-2.3,1.8-4.1,4.1-4.1l0,0c2.3,0,4.1,1.8,4.1,4.1l0,0c0,2.3-1.8,4.1-4.1,4.1l0,0
			C25.9,123.3,24,121.5,24,119.2z" />
            <path class="st1" d="M24,96.1L24,96.1c0-2.3,1.8-4.1,4.1-4.1l0,0c2.3,0,4.1,1.8,4.1,4.1l0,0c0,2.3-1.8,4.1-4.1,4.1l0,0
			C25.9,100.3,24,98.4,24,96.1z" />
            <path class="st1" d="M24,73.1L24,73.1c0-2.3,1.8-4.1,4.1-4.1l0,0c2.3,0,4.1,1.8,4.1,4.1l0,0c0,2.3-1.8,4.1-4.1,4.1l0,0
			C25.9,77.2,24,75.4,24,73.1z" />
            <path class="st1" d="M24,50.2L24,50.2c0-2.3,1.8-4.1,4.1-4.1l0,0c2.3,0,4.1,1.8,4.1,4.1l0,0c0,2.3-1.8,4.1-4.1,4.1l0,0
			C25.9,54.3,24,52.5,24,50.2z" />
            <path class="st1" d="M24,27.2L24,27.2c0-2.3,1.8-4.1,4.1-4.1l0,0c2.3,0,4.1,1.8,4.1,4.1l0,0c0,2.3-1.8,4.1-4.1,4.1l0,0
			C25.9,31.3,24,29.4,24,27.2z" />
        </g>
        <g id="testo">
            <path class="st2" d="M7.3,231.9v1.5H2.5v2.6h4.3v1.5H2.5v2.7h4.8v1.5H0.9v-9.8H7.3z" />
            <path class="st2" d="M10,234.8l1.7,2.5h0.2l1.7-2.5h1.8l-2.5,3.4l2.6,3.5h-1.8l-1.8-2.5h-0.2l-1.8,2.5H8.1l2.6-3.5l-2.5-3.4H10z" />
            <path class="st2" d="M19.5,234.6c1.9,0,3.1,1.1,3.4,2.7l-1.5,0.4c-0.1-0.9-0.7-1.6-1.9-1.6c-1.2,0-2.1,0.9-2.1,2.3
			c0,1.4,0.8,2.3,2.1,2.3c1.2,0,1.7-0.7,1.9-1.6l1.5,0.4c-0.3,1.4-1.4,2.7-3.4,2.7s-3.6-1.5-3.6-3.7
			C15.9,236.1,17.5,234.6,19.5,234.6z" />
            <path class="st2" d="M29.3,241.7v-1.1h-0.2c-0.3,0.6-0.9,1.3-2.3,1.3c-1.5,0-2.7-1-2.7-2.9v-4.1h1.5v4c0,1.1,0.6,1.7,1.7,1.7
			c1.2,0,1.9-0.8,1.9-2.1v-3.6h1.5v6.9L29.3,241.7L29.3,241.7z" />
            <path class="st2" d="M34,235.9h0.2c0.3-0.8,0.8-1.1,1.8-1.1h0.7v1.4h-1.1c-0.9,0-1.5,0.5-1.5,1.5v4h-1.5v-6.9H34V235.9z" />
            <path class="st2" d="M40.2,234.6c1.6,0,2.7,0.7,3.5,1.7l-1.1,0.9c-0.7-1-1.5-1.3-2.3-1.3s-1.2,0.3-1.2,0.8c0,0.4,0.4,0.7,1.1,0.8
			l0.8,0.1c1.5,0.3,2.7,0.8,2.7,2.1s-1.2,2.2-2.9,2.2c-1.8,0-3.1-0.9-3.8-2.1l1.3-0.7c0.6,1.2,1.5,1.6,2.5,1.6
			c0.9,0,1.4-0.4,1.4-0.9s-0.5-0.7-1.3-0.9l-0.8-0.1c-1.5-0.3-2.6-0.8-2.6-2.1S38.6,234.6,40.2,234.6z" />
            <path class="st2" d="M50.1,241.7v-1.1h-0.2c-0.3,0.6-0.9,1.3-2.3,1.3c-1.5,0-2.7-1-2.7-2.9v-4.1h1.5v4c0,1.1,0.6,1.7,1.7,1.7
			c1.2,0,1.9-0.8,1.9-2.1v-3.6h1.5v6.9L50.1,241.7L50.1,241.7z" />
            <path class="st2" d="M55.8,234.6c1.6,0,2.7,0.7,3.5,1.7l-1.1,0.9c-0.7-1-1.5-1.3-2.3-1.3s-1.2,0.3-1.2,0.8c0,0.4,0.4,0.7,1.1,0.8
			l0.8,0.1c1.5,0.3,2.7,0.8,2.7,2.1s-1.2,2.2-2.9,2.2c-1.8,0-3.1-0.9-3.8-2.1l1.3-0.7c0.6,1.2,1.5,1.6,2.5,1.6
			c0.9,0,1.4-0.4,1.4-0.9s-0.5-0.7-1.3-0.9l-0.8-0.1c-1.5-0.3-2.6-0.8-2.6-2.1S54.3,234.6,55.8,234.6z" />
            <path class="st2" d="M67.8,234.6c2,0,3.6,1.5,3.6,3.6s-1.6,3.7-3.6,3.7s-3.6-1.5-3.6-3.7S65.8,234.6,67.8,234.6z M67.8,240.5
			c1.2,0,2-0.9,2-2.3s-0.8-2.3-2-2.3s-2,0.9-2,2.3S66.6,240.5,67.8,240.5z" />
            <path class="st2" d="M74.2,234.8v1.1h0.2c0.3-0.6,0.9-1.2,2.3-1.2c1.5,0,2.7,1,2.7,2.9v4.1h-1.5v-4c0-1.1-0.6-1.7-1.7-1.7
			c-1.2,0-1.9,0.8-1.9,2.1v3.6h-1.5v-6.9L74.2,234.8L74.2,234.8z" />
            <path class="st2" d="M91.9,234.8v0.4h-1.6v-0.3c0-1.2-0.8-1.8-2-1.8c-1,0-1.7,0.5-1.7,1.3c0,0.9,0.7,1.2,2,1.5L89,236
			c1.9,0.4,3.1,1.2,3.1,2.9c0,1.9-1.5,3-3.6,3c-2.4,0-3.9-1.3-3.9-3.6V238h1.6v0.3c0,1.4,0.8,2.2,2.3,2.2c1.2,0,1.9-0.7,1.9-1.5
			c0-0.9-0.7-1.2-1.9-1.5l-0.4-0.1c-1.9-0.4-3.1-1.1-3.1-2.9c0-1.7,1.5-2.8,3.3-2.8C90.4,231.7,91.9,232.8,91.9,234.8z" />
            <path class="st2" d="M100.2,234.8l-3.9,9.7h-1.7l1.1-2.5l-2.9-7.2h1.7l2,5.1h0.2l2-5.1H100.2z" />
            <path class="st2" d="M107.9,241.7h-1.5v-1h-0.2c-0.4,0.6-1,1.2-2.3,1.2c-1.8,0-3.2-1.5-3.2-3.7c0-2.1,1.4-3.6,3.2-3.6
			c1.3,0,1.9,0.6,2.3,1.2h0.2v-3.9h1.5V241.7z M102.2,238.3c0,1.5,0.9,2.3,2.1,2.3s2-0.9,2-2.3c0-1.4-0.8-2.3-2-2.3
			S102.2,236.8,102.2,238.3z" />
            <path class="st2" d="M111.1,234.8v1.1h0.2c0.3-0.6,0.9-1.2,2.3-1.2c1.5,0,2.7,1,2.7,2.9v4.1h-1.5v-4c0-1.1-0.6-1.7-1.7-1.7
			c-1.2,0-1.9,0.8-1.9,2.1v3.6h-1.5v-6.9L111.1,234.8L111.1,234.8z" />
            <path class="st2" d="M121,234.6c2,0,3.4,1.4,3.4,3.5v0.7h-5.2c0.1,1.1,0.8,1.8,2,1.8c1,0,1.5-0.5,1.8-1.1l1.3,0.7
			c-0.5,0.8-1.3,1.7-3.1,1.7c-2.1,0-3.6-1.6-3.6-3.7C117.5,236.2,119,234.6,121,234.6z M122.8,237.6c-0.1-1.1-0.7-1.7-1.8-1.7
			c-1.1,0-1.7,0.6-1.8,1.7H122.8z" />
            <path class="st2" d="M132.2,234.8l-3.9,9.7h-1.7l1.1-2.5l-2.9-7.2h1.7l2,5.1h0.2l2-5.1H132.2z" />
            <path class="st2" d="M141.1,231.9c1.8,0,3.1,1.2,3.1,3s-1.3,3-3.1,3h-2.3v3.8h-1.6v-9.8H141.1z M138.9,236.5h2.1
			c1,0,1.6-0.6,1.6-1.5c0-1-0.6-1.5-1.6-1.5h-2.1V236.5z" />
            <path class="st2" d="M148.4,234.6c2,0,3.6,1.5,3.6,3.6s-1.6,3.7-3.6,3.7s-3.6-1.5-3.6-3.7S146.4,234.6,148.4,234.6z M148.4,240.5
			c1.2,0,2-0.9,2-2.3s-0.8-2.3-2-2.3s-2,0.9-2,2.3S147.2,240.5,148.4,240.5z" />
            <path class="st2" d="M154.1,231.6c0.6,0,1.1,0.5,1.1,1.1s-0.5,1.1-1.1,1.1s-1.2-0.5-1.2-1.1C152.9,232.1,153.4,231.6,154.1,231.6z
			 M154.8,241.7h-1.5v-6.9h1.5V241.7z" />
            <path class="st2" d="M157.7,234.8v-2.3h1.5v2.3h2v1.3h-2v3.9c0,0.3,0.1,0.4,0.4,0.4h1.2v1.3H159c-0.7,0-1.3-0.5-1.3-1.3v-4.3h-1.8
			v-1.3L157.7,234.8L157.7,234.8z" />
            <path class="st2" d="M163.2,231.6c0.6,0,1.1,0.5,1.1,1.1s-0.5,1.1-1.1,1.1s-1.2-0.5-1.2-1.1C162.1,232.1,162.6,231.6,163.2,231.6z
			 M164,241.7h-1.5v-6.9h1.5V241.7z" />
            <path class="st2" d="M168.8,234.6c2,0,3.4,1.4,3.4,3.5v0.7H167c0.1,1.1,0.8,1.8,2,1.8c1,0,1.5-0.5,1.8-1.1l1.3,0.7
			c-0.5,0.8-1.3,1.7-3.1,1.7c-2.1,0-3.6-1.6-3.6-3.7C165.3,236.2,166.8,234.6,168.8,234.6z M170.6,237.6c-0.1-1.1-0.7-1.7-1.8-1.7
			s-1.7,0.6-1.8,1.7H170.6z" />
            <path class="st2" d="M174.9,235.9h0.2c0.3-0.8,0.8-1.1,1.8-1.1h0.7v1.4h-1.1c-0.9,0-1.5,0.5-1.5,1.5v4h-1.5v-6.9h1.5L174.9,235.9
			L174.9,235.9z" />
            <path class="st3" d="M3.3,247.7l2.3,7.1h0.1v-7.1h1.4v8.4H4.6L2.3,249H2.2v7.1H0.8v-8.4L3.3,247.7L3.3,247.7z" />
            <path class="st3" d="M11.7,247.6c2.1,0,3.4,1.3,3.4,3.5v1.8c0,2.2-1.3,3.5-3.4,3.5s-3.4-1.3-3.4-3.5V251
			C8.3,248.9,9.6,247.6,11.7,247.6z M9.7,252.9c0,1.3,0.6,2.1,2,2.1s2-0.8,2-2.1V251c0-1.3-0.7-2.1-2-2.1s-2,0.8-2,2.1V252.9z" />
            <path class="st3" d="M22.2,247.7v1.3h-2.6v7.1h-1.4V249h-2.6v-1.3H22.2z" />
            <path class="st3" d="M30.9,252.8l1.8,3.4h-1.5l-1.7-3.3H28v3.3h-1.4v-8.4h3.6c1.6,0,2.6,1,2.6,2.6C32.8,251.6,32,252.5,30.9,252.8
			z M27.9,251.6H30c0.9,0,1.4-0.5,1.4-1.3S30.9,249,30,249h-2.1V251.6z" />
            <path class="st3" d="M39.4,247.7v1.3h-4.1v2.3H39v1.3h-3.7v2.3h4.1v1.3h-5.5v-8.4h5.5V247.7z" />
            <path class="st3" d="M42,247.7v7.1h4v1.3h-5.4v-8.4L42,247.7L42,247.7z" />
            <path class="st3" d="M52.4,247.7v1.3h-4.1v2.3H52v1.3h-3.7v2.3h4.1v1.3H47v-8.4h5.4V247.7z" />
            <path class="st3" d="M54.5,247.7l2,7.1h0.1l2-7.1h1.5l-2.5,8.4h-2.2l-2.5-8.4L54.5,247.7L54.5,247.7z" />
            <path class="st3" d="M64.5,247.7l2.5,8.4h-1.5l-0.6-1.9h-3.2l-0.6,1.9h-1.5l2.5-8.4L64.5,247.7L64.5,247.7z M64.6,252.9l-1.2-4
			h-0.1l-1.2,4H64.6z" />
            <path class="st3" d="M70.4,247.7l2.3,7.1h0.1v-7.1h1.4v8.4h-2.5l-2.3-7.1h-0.1v7.1h-1.4v-8.4L70.4,247.7L70.4,247.7z" />
            <path class="st3" d="M81.8,247.7v1.3h-2.6v7.1h-1.4V249h-2.6v-1.3H81.8z" />
        </g>
    </g>
    <g>
        <g>
            <path class="st1" d="M63.9,211.4L63.9,211.4c0-2.3,1.8-4.1,4.1-4.1l0,0c2.3,0,4.1,1.8,4.1,4.1l0,0c0,2.3-1.8,4.1-4.1,4.1l0,0
			C65.7,215.5,63.9,213.6,63.9,211.4z" />
            <path class="st1" d="M63.9,142.3L63.9,142.3c0-2.3,1.8-4.1,4.1-4.1l0,0c2.3,0,4.1,1.8,4.1,4.1l0,0c0,2.3-1.8,4.1-4.1,4.1l0,0
			C65.7,146.4,63.9,144.5,63.9,142.3z" />
            <path class="st1" d="M63.9,4.1L63.9,4.1C63.9,1.8,65.7,0,68,0l0,0c2.3,0,4.1,1.8,4.1,4.1l0,0c0,2.3-1.8,4.1-4.1,4.1l0,0
			C65.7,8.2,63.9,6.4,63.9,4.1z" />
            <path class="st1" d="M63.9,188.3L63.9,188.3c0-2.3,1.8-4.1,4.1-4.1l0,0c2.3,0,4.1,1.8,4.1,4.1l0,0c0,2.3-1.8,4.1-4.1,4.1l0,0
			C65.7,192.4,63.9,190.6,63.9,188.3z" />
            <path class="st1" d="M63.9,119.3L63.9,119.3c0-2.3,1.8-4.1,4.1-4.1l0,0c2.3,0,4.1,1.8,4.1,4.1l0,0c0,2.3-1.8,4.1-4.1,4.1l0,0
			C65.7,123.4,63.9,121.5,63.9,119.3z" />
            <path class="st1" d="M63.9,96.2L63.9,96.2c0-2.3,1.8-4.1,4.1-4.1l0,0c2.3,0,4.1,1.8,4.1,4.1l0,0c0,2.3-1.8,4.1-4.1,4.1l0,0
			C65.7,100.3,63.9,98.5,63.9,96.2z" />
            <path class="st1" d="M63.9,73.2L63.9,73.2c0-2.3,1.8-4.1,4.1-4.1l0,0c2.3,0,4.1,1.8,4.1,4.1l0,0c0,2.3-1.8,4.1-4.1,4.1l0,0
			C65.7,77.3,63.9,75.4,63.9,73.2z" />
            <path class="st1" d="M63.9,27.2L63.9,27.2c0-2.3,1.8-4.1,4.1-4.1l0,0c2.3,0,4.1,1.8,4.1,4.1l0,0c0,2.3-1.8,4.1-4.1,4.1l0,0
			C65.7,31.3,63.9,29.4,63.9,27.2z" />
            <path class="st1" d="M63.9,50.2L63.9,50.2c0-2.3,1.8-4.1,4.1-4.1l0,0c2.3,0,4.1,1.8,4.1,4.1l0,0c0,2.3-1.8,4.1-4.1,4.1l0,0
			C65.7,54.3,63.9,52.5,63.9,50.2z" />
            <path class="st1" d="M86.9,211.4L86.9,211.4c0-2.3,1.8-4.1,4.1-4.1l0,0c2.3,0,4.1,1.8,4.1,4.1l0,0c0,2.3-1.8,4.1-4.1,4.1l0,0
			C88.8,215.5,86.9,213.6,86.9,211.4z" />
            <path class="st1" d="M86.9,188.3L86.9,188.3c0-2.3,1.8-4.1,4.1-4.1l0,0c2.3,0,4.1,1.8,4.1,4.1l0,0c0,2.3-1.8,4.1-4.1,4.1l0,0
			C88.8,192.4,86.9,190.6,86.9,188.3z" />
            <path class="st1" d="M63.9,165.3L63.9,165.3c0-2.3,1.8-4.1,4.1-4.1l0,0c2.3,0,4.1,1.8,4.1,4.1l0,0c0,2.3-1.8,4.1-4.1,4.1l0,0
			C65.7,169.4,63.9,167.5,63.9,165.3z" />
        </g>
        <g id="testo_1_">
            <path class="st2" d="M71.8,231.9v1.5h-3.1v8.3h-1.6v-8.3H64v-1.5H71.8z" />
            <path class="st2" d="M74.5,231.9v4h0.2c0.3-0.6,0.9-1.2,2.3-1.2c1.5,0,2.7,1,2.7,2.9v4.1H78v-4c0-1.1-0.6-1.7-1.7-1.7
			c-1.2,0-1.9,0.8-1.9,2.1v3.6h-1.5v-9.8L74.5,231.9L74.5,231.9z" />
            <path class="st2" d="M84.3,234.6c1.8,0,3.1,1.1,3.1,2.7v4.4h-1.5v-1h-0.2c-0.3,0.5-0.9,1.2-2.3,1.2c-1.6,0-2.6-0.8-2.6-2.1
			c0-1.2,0.9-1.9,2.5-2l2.6-0.3v-0.2c0-0.8-0.6-1.4-1.6-1.4s-1.6,0.6-2,1.4l-1.3-0.7C81.5,235.7,82.5,234.6,84.3,234.6z M83.7,240.6
			c1.4,0,2.2-0.9,2.2-1.9v-0.1l-2.3,0.2c-0.7,0.1-1.2,0.3-1.2,0.9C82.4,240.3,82.9,240.6,83.7,240.6z" />
            <path class="st2" d="M90.6,234.8v1.1h0.2c0.3-0.6,0.9-1.2,2.3-1.2c1.5,0,2.7,1,2.7,2.9v4.1h-1.5v-4c0-1.1-0.6-1.7-1.7-1.7
			c-1.2,0-1.9,0.8-1.9,2.1v3.6h-1.5v-6.9L90.6,234.8L90.6,234.8z" />
            <path class="st2" d="M101.3,237.5l3.1,4.3h-1.8l-2.4-3.3l-1.2,1v2.3h-1.5V232H99v5.5h0.2l3.1-2.6h2.2L101.3,237.5z" />
            <path class="st2" d="M116.1,234.8l-3.9,9.7h-1.7l1.1-2.5l-2.9-7.2h1.7l2,5.1h0.2l2-5.1H116.1z" />
            <path class="st2" d="M120.2,234.6c2,0,3.6,1.5,3.6,3.6s-1.6,3.7-3.6,3.7s-3.6-1.5-3.6-3.7S118.1,234.6,120.2,234.6z M120.2,240.5
			c1.2,0,2-0.9,2-2.3s-0.8-2.3-2-2.3s-2,0.9-2,2.3S119,240.5,120.2,240.5z" />
            <path class="st2" d="M130.2,241.7v-1.1H130c-0.3,0.6-0.9,1.3-2.3,1.3c-1.5,0-2.7-1-2.7-2.9v-4.1h1.5v4c0,1.1,0.6,1.7,1.7,1.7
			c1.2,0,1.9-0.8,1.9-2.1v-3.6h1.5v6.9L130.2,241.7L130.2,241.7z" />
            <path class="st2" d="M139.9,234.6c1.6,0,2.7,0.7,3.5,1.7l-1.1,0.9c-0.7-1-1.5-1.3-2.3-1.3s-1.2,0.3-1.2,0.8c0,0.4,0.4,0.7,1.1,0.8
			l0.8,0.1c1.5,0.3,2.7,0.8,2.7,2.1s-1.2,2.2-2.9,2.2c-1.8,0-3.1-0.9-3.8-2.1l1.3-0.7c0.6,1.2,1.5,1.6,2.5,1.6
			c0.9,0,1.4-0.4,1.4-0.9s-0.5-0.7-1.3-0.9l-0.8-0.1c-1.5-0.3-2.6-0.8-2.6-2.1S138.4,234.6,139.9,234.6z" />
            <path class="st2" d="M144.7,234.8h1.5v1h0.2c0.4-0.6,1-1.2,2.3-1.2c1.8,0,3.2,1.5,3.2,3.6s-1.4,3.7-3.2,3.7
			c-1.3,0-1.9-0.6-2.3-1.2h-0.2v3.8h-1.5V234.8z M150.4,238.3c0-1.5-0.9-2.3-2.1-2.3c-1.2,0-2,0.9-2,2.3c0,1.4,0.8,2.3,2,2.3
			C149.5,240.6,150.4,239.7,150.4,238.3z" />
            <path class="st2" d="M156.3,234.6c2,0,3.4,1.4,3.4,3.5v0.7h-5.2c0.1,1.1,0.8,1.8,2,1.8c1,0,1.5-0.5,1.8-1.1l1.3,0.7
			c-0.5,0.8-1.3,1.7-3.1,1.7c-2.1,0-3.6-1.6-3.6-3.7C152.8,236.2,154.3,234.6,156.3,234.6z M158.1,237.6c-0.1-1.1-0.7-1.7-1.8-1.7
			s-1.7,0.6-1.8,1.7H158.1z" />
            <path class="st2" d="M164,234.6c2,0,3.4,1.4,3.4,3.5v0.7h-5.2c0.1,1.1,0.8,1.8,2,1.8c1,0,1.5-0.5,1.8-1.1l1.3,0.7
			c-0.5,0.8-1.3,1.7-3.1,1.7c-2.1,0-3.6-1.6-3.6-3.7C160.5,236.2,161.9,234.6,164,234.6z M165.7,237.6c-0.1-1.1-0.7-1.7-1.8-1.7
			s-1.7,0.6-1.8,1.7H165.7z" />
            <path class="st2" d="M171.7,234.6c1.9,0,3.1,1.1,3.4,2.7l-1.5,0.4c-0.1-0.9-0.7-1.6-1.9-1.6s-2.1,0.9-2.1,2.3
			c0,1.4,0.8,2.3,2.1,2.3c1.2,0,1.7-0.7,1.9-1.6l1.5,0.4c-0.3,1.4-1.4,2.7-3.4,2.7s-3.6-1.5-3.6-3.7
			C168.2,236.1,169.7,234.6,171.7,234.6z" />
            <path class="st2" d="M178,231.9v4h0.2c0.3-0.6,0.9-1.2,2.3-1.2c1.5,0,2.7,1,2.7,2.9v4.1h-1.5v-4c0-1.1-0.6-1.7-1.7-1.7
			c-1.2,0-1.9,0.8-1.9,2.1v3.6h-1.5v-9.8L178,231.9L178,231.9z" />
            <path class="st3" d="M67.2,247.7l2.3,7.1h0.1v-7.1H71v8.4h-2.5l-2.3-7.1h-0.1v7.1h-1.4v-8.4L67.2,247.7L67.2,247.7z" />
            <path class="st3" d="M75.6,247.6c2.1,0,3.4,1.3,3.4,3.5v1.8c0,2.2-1.3,3.5-3.4,3.5s-3.4-1.3-3.4-3.5V251
			C72.2,248.9,73.5,247.6,75.6,247.6z M73.6,252.9c0,1.3,0.6,2.1,2,2.1s2-0.8,2-2.1V251c0-1.3-0.7-2.1-2-2.1s-2,0.8-2,2.1V252.9z" />
            <path class="st3" d="M86,247.7v1.3h-2.6v7.1H82V249h-2.6v-1.3H86z" />
            <path class="st3" d="M94.7,252.8l1.8,3.4H95l-1.7-3.3h-1.5v3.3h-1.4v-8.4H94c1.6,0,2.6,1,2.6,2.6
			C96.7,251.6,95.9,252.5,94.7,252.8z M91.8,251.6h2.1c0.9,0,1.4-0.5,1.4-1.3s-0.5-1.3-1.4-1.3h-2.1V251.6z" />
            <path class="st3" d="M103.3,247.7v1.3h-4.1v2.3h3.7v1.3h-3.7v2.3h4.1v1.3h-5.5v-8.4h5.5V247.7z" />
            <path class="st3" d="M105.9,247.7v7.1h4v1.3h-5.4v-8.4L105.9,247.7L105.9,247.7z" />
            <path class="st3" d="M116.3,247.7v1.3h-4.1v2.3h3.7v1.3h-3.7v2.3h4.1v1.3h-5.5v-8.4h5.5V247.7z" />
            <path class="st3" d="M118.4,247.7l2,7.1h0.1l2-7.1h1.5l-2.5,8.4h-2.2l-2.5-8.4L118.4,247.7L118.4,247.7z" />
            <path class="st3" d="M128.4,247.7l2.5,8.4h-1.5l-0.6-1.9h-3.2l-0.6,1.9h-1.5l2.5-8.4L128.4,247.7L128.4,247.7z M128.5,252.9
			l-1.2-4h-0.1l-1.2,4H128.5z" />
            <path class="st3" d="M134.3,247.7l2.3,7.1h0.1v-7.1h1.4v8.4h-2.5l-2.3-7.1h-0.1v7.1h-1.4v-8.4L134.3,247.7L134.3,247.7z" />
            <path class="st3" d="M145.6,247.7v1.3H143v7.1h-1.4V249H139v-1.3H145.6z" />
        </g>
    </g>
    <g>
        <g>
            <path class="st4" d="M149.8,211.4L149.8,211.4c0-2.3,1.8-4.1,4.1-4.1l0,0c2.3,0,4.1,1.8,4.1,4.1l0,0c0,2.3-1.8,4.1-4.1,4.1l0,0
			C151.7,215.5,149.8,213.6,149.8,211.4z" />
            <path class="st4" d="M149.8,188.3L149.8,188.3c0-2.3,1.8-4.1,4.1-4.1l0,0c2.3,0,4.1,1.8,4.1,4.1l0,0c0,2.3-1.8,4.1-4.1,4.1l0,0
			C151.7,192.4,149.8,190.6,149.8,188.3z" />
            <path class="st4" d="M149.8,165.3L149.8,165.3c0-2.3,1.8-4.1,4.1-4.1l0,0c2.3,0,4.1,1.8,4.1,4.1l0,0c0,2.3-1.8,4.1-4.1,4.1l0,0
			C151.7,169.4,149.8,167.5,149.8,165.3z" />
            <path class="st4" d="M149.8,142.2L149.8,142.2c0-2.3,1.8-4.1,4.1-4.1l0,0c2.3,0,4.1,1.8,4.1,4.1l0,0c0,2.3-1.8,4.1-4.1,4.1l0,0
			C151.7,146.3,149.8,144.5,149.8,142.2z" />
            <path class="st4" d="M149.8,119.2L149.8,119.2c0-2.3,1.8-4.1,4.1-4.1l0,0c2.3,0,4.1,1.8,4.1,4.1l0,0c0,2.3-1.8,4.1-4.1,4.1l0,0
			C151.7,123.3,149.8,121.5,149.8,119.2z" />
            <path class="st4" d="M149.8,96.1L149.8,96.1c0-2.3,1.8-4.1,4.1-4.1l0,0c2.3,0,4.1,1.8,4.1,4.1l0,0c0,2.3-1.8,4.1-4.1,4.1l0,0
			C151.7,100.3,149.8,98.4,149.8,96.1z" />
            <path class="st4" d="M149.8,73.1L149.8,73.1c0-2.3,1.8-4.1,4.1-4.1l0,0c2.3,0,4.1,1.8,4.1,4.1l0,0c0,2.3-1.8,4.1-4.1,4.1l0,0
			C151.7,77.2,149.8,75.4,149.8,73.1z" />
            <path class="st4" d="M149.8,50.2L149.8,50.2c0-2.3,1.8-4.1,4.1-4.1l0,0c2.3,0,4.1,1.8,4.1,4.1l0,0c0,2.3-1.8,4.1-4.1,4.1l0,0
			C151.7,54.3,149.8,52.5,149.8,50.2z" />
            <path class="st4" d="M149.8,27.2L149.8,27.2c0-2.3,1.8-4.1,4.1-4.1l0,0c2.3,0,4.1,1.8,4.1,4.1l0,0c0,2.3-1.8,4.1-4.1,4.1l0,0
			C151.7,31.3,149.8,29.4,149.8,27.2z" />
            <path class="st4" d="M172.9,211.4L172.9,211.4c0-2.3,1.8-4.1,4.1-4.1l0,0c2.3,0,4.1,1.8,4.1,4.1l0,0c0,2.3-1.8,4.1-4.1,4.1l0,0
			C174.7,215.5,172.9,213.6,172.9,211.4z" />
            <path class="st4" d="M172.9,188.3L172.9,188.3c0-2.3,1.8-4.1,4.1-4.1l0,0c2.3,0,4.1,1.8,4.1,4.1l0,0c0,2.3-1.8,4.1-4.1,4.1l0,0
			C174.7,192.4,172.9,190.6,172.9,188.3z" />
            <path class="st4" d="M126.8,188.3L126.8,188.3c0-2.3,1.8-4.1,4.1-4.1l0,0c2.3,0,4.1,1.8,4.1,4.1l0,0c0,2.3-1.8,4.1-4.1,4.1l0,0
			C128.6,192.4,126.8,190.6,126.8,188.3z" />
            <path class="st4" d="M126.8,165.3L126.8,165.3c0-2.3,1.8-4.1,4.1-4.1l0,0c2.3,0,4.1,1.8,4.1,4.1l0,0c0,2.3-1.8,4.1-4.1,4.1l0,0
			C128.6,169.4,126.8,167.5,126.8,165.3z" />
            <path class="st4" d="M126.8,142.2L126.8,142.2c0-2.3,1.8-4.1,4.1-4.1l0,0c2.3,0,4.1,1.8,4.1,4.1l0,0c0,2.3-1.8,4.1-4.1,4.1l0,0
			C128.6,146.3,126.8,144.5,126.8,142.2z" />
            <path class="st4" d="M126.8,119.2L126.8,119.2c0-2.3,1.8-4.1,4.1-4.1l0,0c2.3,0,4.1,1.8,4.1,4.1l0,0c0,2.3-1.8,4.1-4.1,4.1l0,0
			C128.6,123.3,126.8,121.5,126.8,119.2z" />
            <path class="st4" d="M149.8,4.1L149.8,4.1c0-2.3,1.8-4.1,4.1-4.1l0,0c2.3,0,4.1,1.8,4.1,4.1l0,0c0,2.3-1.8,4.1-4.1,4.1l0,0
			C151.7,8.2,149.8,6.4,149.8,4.1z" />
            <path class="st4" d="M126.8,96.2L126.8,96.2c0-2.3,1.8-4.1,4.1-4.1l0,0c2.3,0,4.1,1.8,4.1,4.1l0,0c0,2.3-1.8,4.1-4.1,4.1l0,0
			C128.6,100.3,126.8,98.5,126.8,96.2z" />
            <path class="st4" d="M126.8,73.2L126.8,73.2c0-2.3,1.8-4.1,4.1-4.1l0,0c2.3,0,4.1,1.8,4.1,4.1l0,0c0,2.3-1.8,4.1-4.1,4.1l0,0
			C128.6,77.4,126.8,75.5,126.8,73.2z" />
            <path class="st4" d="M126.8,50.2L126.8,50.2c0-2.3,1.8-4.1,4.1-4.1l0,0c2.3,0,4.1,1.8,4.1,4.1l0,0c0,2.3-1.8,4.1-4.1,4.1l0,0
			C128.6,54.3,126.8,52.5,126.8,50.2z" />
            <path class="st4" d="M126.8,27.2L126.8,27.2c0-2.3,1.8-4.1,4.1-4.1l0,0c2.3,0,4.1,1.8,4.1,4.1l0,0c0,2.3-1.8,4.1-4.1,4.1l0,0
			C128.6,31.3,126.8,29.4,126.8,27.2z" />
            <path class="st4" d="M126.8,4.1L126.8,4.1c0-2.3,1.8-4.1,4.1-4.1l0,0c2.3,0,4.1,1.8,4.1,4.1l0,0c0,2.3-1.8,4.1-4.1,4.1l0,0
			C128.6,8.2,126.8,6.4,126.8,4.1z" />
            <path class="st4" d="M172.9,165.3L172.9,165.3c0-2.3,1.8-4.1,4.1-4.1l0,0c2.3,0,4.1,1.8,4.1,4.1l0,0c0,2.3-1.8,4.1-4.1,4.1l0,0
			C174.7,169.4,172.9,167.5,172.9,165.3z" />
            <path class="st4" d="M172.9,142.2L172.9,142.2c0-2.3,1.8-4.1,4.1-4.1l0,0c2.3,0,4.1,1.8,4.1,4.1l0,0c0,2.3-1.8,4.1-4.1,4.1l0,0
			C174.7,146.3,172.9,144.5,172.9,142.2z" />
            <path class="st4" d="M172.9,119.2L172.9,119.2c0-2.3,1.8-4.1,4.1-4.1l0,0c2.3,0,4.1,1.8,4.1,4.1l0,0c0,2.3-1.8,4.1-4.1,4.1l0,0
			C174.7,123.3,172.9,121.5,172.9,119.2z" />
            <path class="st4" d="M126.8,211.4L126.8,211.4c0-2.3,1.8-4.1,4.1-4.1l0,0c2.3,0,4.1,1.8,4.1,4.1l0,0c0,2.3-1.8,4.1-4.1,4.1l0,0
			C128.6,215.5,126.8,213.6,126.8,211.4z" />
        </g>
        <g id="testo_2_">
            <path class="st2" d="M128.7,231.9l1.1,8.3h0.2l1.5-8.3h2.6l1.5,8.3h0.2l1.1-8.3h1.6l-1.4,9.8h-2.7l-1.5-8.3h-0.2l-1.5,8.3h-2.7
			l-1.5-9.8H128.7z" />
            <path class="st2" d="M142.6,234.6c2,0,3.6,1.5,3.6,3.6s-1.6,3.7-3.6,3.7s-3.6-1.5-3.6-3.7S140.5,234.6,142.6,234.6z M142.6,240.5
			c1.2,0,2-0.9,2-2.3s-0.8-2.3-2-2.3s-2,0.9-2,2.3S141.4,240.5,142.6,240.5z" />
            <path class="st2" d="M149,234.8v1h0.2c0.3-0.6,0.9-1.1,1.9-1.1s1.6,0.5,1.9,1.2h0.2c0.3-0.6,0.9-1.2,2-1.2c1.2,0,2.3,0.9,2.3,2.3
			v4.7H156v-4.6c0-0.7-0.5-1.1-1.3-1.1s-1.4,0.5-1.4,1.4v4.3h-1.5v-4.6c0-0.7-0.5-1.1-1.2-1.1c-0.8,0-1.4,0.5-1.4,1.4v4.3h-1.5v-6.9
			L149,234.8L149,234.8z" />
            <path class="st2" d="M162.1,234.6c2,0,3.4,1.4,3.4,3.5v0.7h-5.2c0.1,1.1,0.8,1.8,2,1.8c1,0,1.5-0.5,1.8-1.1l1.3,0.7
			c-0.5,0.8-1.3,1.7-3.1,1.7c-2.1,0-3.6-1.6-3.6-3.7C158.7,236.2,160.1,234.6,162.1,234.6z M163.9,237.6c-0.1-1.1-0.7-1.7-1.8-1.7
			s-1.7,0.6-1.8,1.7H163.9z" />
            <path class="st2" d="M168.3,234.8v1.1h0.2c0.3-0.6,0.9-1.2,2.3-1.2c1.5,0,2.7,1,2.7,2.9v4.1H172v-4c0-1.1-0.6-1.7-1.7-1.7
			c-1.2,0-1.9,0.8-1.9,2.1v3.6h-1.5v-6.9L168.3,234.8L168.3,234.8z" />
            <path class="st2" d="M175.7,231.7c0.7,0,1.2,0.5,1.2,1.2v1.7c0,0.7-0.5,1.2-1.2,1.2h-1.2v-0.9h1c0.3,0,0.4-0.1,0.4-0.4V234
			c-0.1,0-0.1,0-0.3,0c-0.6,0-1.2-0.4-1.2-1.1C174.5,232.2,175,231.7,175.7,231.7z" />
            <path class="st2" d="M180.4,234.6c1.6,0,2.7,0.7,3.5,1.7l-1.1,0.9c-0.7-1-1.5-1.3-2.3-1.3s-1.2,0.3-1.2,0.8c0,0.4,0.4,0.7,1.1,0.8
			l0.8,0.1c1.5,0.3,2.7,0.8,2.7,2.1s-1.2,2.2-2.9,2.2c-1.8,0-3.1-0.9-3.8-2.1l1.3-0.7c0.6,1.2,1.5,1.6,2.5,1.6
			c0.9,0,1.4-0.4,1.4-0.9s-0.5-0.7-1.3-0.9l-0.8-0.1c-1.5-0.3-2.6-0.8-2.6-2.1S178.9,234.6,180.4,234.6z" />
            <path class="st2" d="M196.2,234.8v6.9h-1.5v-5.6H192v5.6h-1.5v-5.6h-1.8v-1.3h1.8v-1.6c0-0.8,0.5-1.3,1.3-1.3h1.6v1.3h-1
			c-0.3,0-0.4,0.1-0.4,0.4v1.2L196.2,234.8L196.2,234.8z M196.6,232.8c0,0.6-0.5,1.1-1.1,1.1s-1.2-0.5-1.2-1.1
			c0-0.7,0.5-1.1,1.2-1.1S196.6,232.1,196.6,232.8z" />
            <path class="st2" d="M204.7,234.8v6.7c0,1.9-1.3,3.2-3.5,3.2c-1.9,0-2.9-0.9-3.6-1.9l1.3-0.8c0.4,0.7,1.1,1.4,2.2,1.4
			c1.2,0,2-0.6,2-1.9v-0.9H203c-0.4,0.6-1,1.2-2.3,1.2c-1.8,0-3.2-1.5-3.2-3.6s1.4-3.5,3.2-3.5c1.3,0,1.9,0.6,2.3,1.2h0.2v-1
			L204.7,234.8L204.7,234.8z M203.2,238.2c0-1.4-0.8-2.2-2-2.2s-2.1,0.8-2.1,2.2s0.9,2.2,2.1,2.2
			C202.3,240.4,203.2,239.5,203.2,238.2z" />
            <path class="st2" d="M208,231.9v4h0.2c0.3-0.6,0.9-1.2,2.3-1.2c1.5,0,2.7,1,2.7,2.9v4.1h-1.5v-4c0-1.1-0.6-1.7-1.7-1.7
			c-1.2,0-1.9,0.8-1.9,2.1v3.6h-1.5v-9.8L208,231.9L208,231.9z" />
            <path class="st2" d="M215.7,234.8v-2.3h1.5v2.3h2v1.3h-2v3.9c0,0.3,0.1,0.4,0.4,0.4h1.2v1.3H217c-0.7,0-1.3-0.5-1.3-1.3v-4.3h-1.8
			v-1.3L215.7,234.8L215.7,234.8z" />
            <path class="st2" d="M227.6,234.6c1.8,0,3.1,1.1,3.1,2.7v4.4h-1.5v-1H229c-0.3,0.5-0.9,1.2-2.3,1.2c-1.6,0-2.6-0.8-2.6-2.1
			c0-1.2,0.9-1.9,2.5-2l2.6-0.3v-0.2c0-0.8-0.6-1.4-1.6-1.4s-1.6,0.6-2,1.4l-1.3-0.7C224.7,235.7,225.7,234.6,227.6,234.6z
			 M227,240.7c1.4,0,2.2-0.9,2.2-1.9v-0.1l-2.3,0.2c-0.7,0.1-1.2,0.3-1.2,0.9C225.7,240.3,226.1,240.7,227,240.7z" />
            <path class="st2" d="M239.1,234.8v6.7c0,1.9-1.3,3.2-3.5,3.2c-1.9,0-2.9-0.9-3.6-1.9l1.3-0.8c0.4,0.7,1.1,1.4,2.2,1.4
			c1.2,0,2-0.6,2-1.9v-0.9h-0.2c-0.4,0.6-1,1.2-2.3,1.2c-1.8,0-3.2-1.5-3.2-3.6s1.4-3.5,3.2-3.5c1.3,0,1.9,0.6,2.3,1.2h0.2v-1
			L239.1,234.8L239.1,234.8z M237.6,238.2c0-1.4-0.8-2.2-2-2.2s-2.1,0.8-2.1,2.2s0.9,2.2,2.1,2.2
			C236.7,240.4,237.6,239.5,237.6,238.2z" />
            <path class="st2" d="M243.9,234.6c1.8,0,3.1,1.1,3.1,2.7v4.4h-1.5v-1h-0.2c-0.3,0.5-0.9,1.2-2.3,1.2c-1.6,0-2.6-0.8-2.6-2.1
			c0-1.2,0.9-1.9,2.5-2l2.6-0.3v-0.2c0-0.8-0.6-1.4-1.6-1.4s-1.6,0.6-2,1.4l-1.3-0.7C241.1,235.7,242.1,234.6,243.9,234.6z
			 M243.3,240.7c1.4,0,2.2-0.9,2.2-1.9v-0.1l-2.3,0.2c-0.7,0.1-1.2,0.3-1.2,0.9C242,240.3,242.5,240.7,243.3,240.7z" />
            <path class="st2" d="M249.5,231.6c0.6,0,1.1,0.5,1.1,1.1s-0.5,1.1-1.1,1.1s-1.2-0.5-1.2-1.1S248.8,231.6,249.5,231.6z
			 M250.2,241.7h-1.5v-6.9h1.5V241.7z" />
            <path class="st2" d="M253.5,234.8v1.1h0.2c0.3-0.6,0.9-1.2,2.3-1.2c1.5,0,2.7,1,2.7,2.9v4.1h-1.5v-4c0-1.1-0.6-1.7-1.7-1.7
			c-1.2,0-1.9,0.8-1.9,2.1v3.6H252v-6.9L253.5,234.8L253.5,234.8z" />
            <path class="st2" d="M262.8,234.6c1.6,0,2.7,0.7,3.5,1.7l-1.1,0.9c-0.7-1-1.5-1.3-2.3-1.3s-1.2,0.3-1.2,0.8c0,0.4,0.4,0.7,1.1,0.8
			l0.8,0.1c1.5,0.3,2.7,0.8,2.7,2.1s-1.2,2.2-2.9,2.2c-1.8,0-3.1-0.9-3.8-2.1l1.3-0.7c0.6,1.2,1.5,1.6,2.5,1.6
			c0.9,0,1.4-0.4,1.4-0.9s-0.5-0.7-1.3-0.9l-0.8-0.1c-1.5-0.3-2.6-0.8-2.6-2.1S261.3,234.6,262.8,234.6z" />
            <path class="st2" d="M268.7,234.8v-2.3h1.5v2.3h2v1.3h-2v3.9c0,0.3,0.1,0.4,0.4,0.4h1.2v1.3H270c-0.7,0-1.3-0.5-1.3-1.3v-4.3h-1.8
			v-1.3L268.7,234.8L268.7,234.8z" />
            <path class="st2" d="M278.3,231.6c0.6,0,1.1,0.5,1.1,1.1s-0.5,1.1-1.1,1.1s-1.2-0.5-1.2-1.1C277.1,232.1,277.6,231.6,278.3,231.6z
			 M279,241.7h-1.5v-6.9h1.5V241.7z" />
            <path class="st2" d="M282.3,234.8v1.1h0.2c0.3-0.6,0.9-1.2,2.3-1.2c1.5,0,2.7,1,2.7,2.9v4.1H286v-4c0-1.1-0.6-1.7-1.7-1.7
			c-1.2,0-1.9,0.8-1.9,2.1v3.6h-1.5v-6.9L282.3,234.8L282.3,234.8z" />
            <path class="st2" d="M290.7,243.3c0,0.7-0.5,1.3-1.3,1.3h-1.9v-1.3h1.2c0.3,0,0.4-0.1,0.4-0.4v-8h1.5L290.7,243.3L290.7,243.3z
			 M289.9,231.6c0.6,0,1.1,0.5,1.1,1.1s-0.5,1.1-1.1,1.1s-1.2-0.5-1.2-1.1C288.8,232.1,289.3,231.6,289.9,231.6z" />
            <path class="st2" d="M297.5,241.7v-1.1h-0.2c-0.3,0.6-0.9,1.3-2.3,1.3c-1.5,0-2.7-1-2.7-2.9v-4.1h1.5v4c0,1.1,0.6,1.7,1.7,1.7
			c1.2,0,1.9-0.8,1.9-2.1v-3.6h1.5v6.9L297.5,241.7L297.5,241.7z" />
            <path class="st2" d="M303.3,234.6c1.6,0,2.7,0.7,3.5,1.7l-1.1,0.9c-0.7-1-1.5-1.3-2.3-1.3s-1.2,0.3-1.2,0.8c0,0.4,0.4,0.7,1.1,0.8
			l0.8,0.1c1.5,0.3,2.7,0.8,2.7,2.1s-1.2,2.2-2.9,2.2c-1.8,0-3.1-0.9-3.8-2.1l1.3-0.7c0.6,1.2,1.5,1.6,2.5,1.6
			c0.9,0,1.4-0.4,1.4-0.9s-0.5-0.7-1.3-0.9l-0.8-0.1c-1.5-0.3-2.6-0.8-2.6-2.1S301.8,234.6,303.3,234.6z" />
            <path class="st2" d="M309.2,234.8v-2.3h1.5v2.3h2v1.3h-2v3.9c0,0.3,0.1,0.4,0.4,0.4h1.2v1.3h-1.8c-0.7,0-1.3-0.5-1.3-1.3v-4.3
			h-1.8v-1.3L309.2,234.8L309.2,234.8z" />
            <path class="st2" d="M314.8,231.6c0.6,0,1.1,0.5,1.1,1.1s-0.5,1.1-1.1,1.1s-1.2-0.5-1.2-1.1C313.6,232.1,314.1,231.6,314.8,231.6z
			 M315.5,241.7H314v-6.9h1.5V241.7z" />
            <path class="st2" d="M320.4,234.6c1.9,0,3.1,1.1,3.4,2.7l-1.5,0.4c-0.1-0.9-0.7-1.6-1.9-1.6c-1.2,0-2.1,0.9-2.1,2.3
			c0,1.4,0.8,2.3,2.1,2.3c1.2,0,1.7-0.7,1.9-1.6l1.5,0.4c-0.3,1.4-1.4,2.7-3.4,2.7s-3.6-1.5-3.6-3.7
			C316.9,236.1,318.4,234.6,320.4,234.6z" />
            <path class="st2" d="M328.2,234.6c2,0,3.4,1.4,3.4,3.5v0.7h-5.2c0.1,1.1,0.8,1.8,2,1.8c1,0,1.5-0.5,1.8-1.1l1.3,0.7
			c-0.5,0.8-1.3,1.7-3.1,1.7c-2.1,0-3.6-1.6-3.6-3.7C324.7,236.2,326.2,234.6,328.2,234.6z M330,237.6c-0.1-1.1-0.7-1.7-1.8-1.7
			c-1.1,0-1.7,0.6-1.8,1.7H330z" />
        </g>
    </g>
    <g>
        <g>
            <path class="st5" d="M235.7,188.2L235.7,188.2c0-2.3,1.8-4.1,4.1-4.1l0,0c2.3,0,4.1,1.8,4.1,4.1l0,0c0,2.3-1.8,4.1-4.1,4.1l0,0
			C237.6,192.3,235.7,190.5,235.7,188.2z" />
            <path class="st5" d="M235.7,165.2L235.7,165.2c0-2.3,1.8-4.1,4.1-4.1l0,0c2.3,0,4.1,1.8,4.1,4.1l0,0c0,2.3-1.8,4.1-4.1,4.1l0,0
			C237.6,169.3,235.7,167.5,235.7,165.2z" />
            <path class="st5" d="M235.7,142.2L235.7,142.2c0-2.3,1.8-4.1,4.1-4.1l0,0c2.3,0,4.1,1.8,4.1,4.1l0,0c0,2.3-1.8,4.1-4.1,4.1l0,0
			C237.6,146.3,235.7,144.5,235.7,142.2z" />
            <path class="st5" d="M235.7,119.2L235.7,119.2c0-2.3,1.8-4.1,4.1-4.1l0,0c2.3,0,4.1,1.8,4.1,4.1l0,0c0,2.3-1.8,4.1-4.1,4.1l0,0
			C237.6,123.3,235.7,121.4,235.7,119.2z" />
            <path class="st5" d="M212.7,211.4L212.7,211.4c0-2.3,1.8-4.1,4.1-4.1l0,0c2.3,0,4.1,1.8,4.1,4.1l0,0c0,2.3-1.8,4.1-4.1,4.1l0,0
			C214.5,215.5,212.7,213.6,212.7,211.4z" />
            <path class="st5" d="M212.7,188.3L212.7,188.3c0-2.3,1.8-4.1,4.1-4.1l0,0c2.3,0,4.1,1.8,4.1,4.1l0,0c0,2.3-1.8,4.1-4.1,4.1l0,0
			C214.5,192.4,212.7,190.6,212.7,188.3z" />
            <path class="st5" d="M212.7,165.3L212.7,165.3c0-2.3,1.8-4.1,4.1-4.1l0,0c2.3,0,4.1,1.8,4.1,4.1l0,0c0,2.3-1.8,4.1-4.1,4.1l0,0
			C214.5,169.4,212.7,167.5,212.7,165.3z" />
            <path class="st5" d="M212.7,142.3L212.7,142.3c0-2.3,1.8-4.1,4.1-4.1l0,0c2.3,0,4.1,1.8,4.1,4.1l0,0c0,2.3-1.8,4.1-4.1,4.1l0,0
			C214.5,146.4,212.7,144.5,212.7,142.3z" />
            <path class="st5" d="M212.7,119.3L212.7,119.3c0-2.3,1.8-4.1,4.1-4.1l0,0c2.3,0,4.1,1.8,4.1,4.1l0,0c0,2.3-1.8,4.1-4.1,4.1l0,0
			C214.5,123.4,212.7,121.5,212.7,119.3z" />
            <path class="st5" d="M212.7,96.2L212.7,96.2c0-2.3,1.8-4.1,4.1-4.1l0,0c2.3,0,4.1,1.8,4.1,4.1l0,0c0,2.3-1.8,4.1-4.1,4.1l0,0
			C214.5,100.3,212.7,98.5,212.7,96.2z" />
            <path class="st5" d="M212.7,73.2L212.7,73.2c0-2.3,1.8-4.1,4.1-4.1l0,0c2.3,0,4.1,1.8,4.1,4.1l0,0c0,2.3-1.8,4.1-4.1,4.1l0,0
			C214.5,77.3,212.7,75.4,212.7,73.2z" />
            <path class="st5" d="M212.7,50.2L212.7,50.2c0-2.3,1.8-4.1,4.1-4.1l0,0c2.3,0,4.1,1.8,4.1,4.1l0,0c0,2.3-1.8,4.1-4.1,4.1l0,0
			C214.5,54.3,212.7,52.5,212.7,50.2z" />
            <path class="st5" d="M212.7,27.2L212.7,27.2c0-2.3,1.8-4.1,4.1-4.1l0,0c2.3,0,4.1,1.8,4.1,4.1l0,0c0,2.3-1.8,4.1-4.1,4.1l0,0
			C214.5,31.3,212.7,29.4,212.7,27.2z" />
            <path class="st5" d="M212.7,4.1L212.7,4.1c0-2.3,1.8-4.1,4.1-4.1l0,0c2.3,0,4.1,1.8,4.1,4.1l0,0c0,2.3-1.8,4.1-4.1,4.1l0,0
			C214.5,8.2,212.7,6.4,212.7,4.1z" />
            <path class="st5" d="M235.7,211.4L235.7,211.4c0-2.3,1.8-4.1,4.1-4.1l0,0c2.3,0,4.1,1.8,4.1,4.1l0,0c0,2.3-1.8,4.1-4.1,4.1l0,0
			C237.6,215.5,235.7,213.6,235.7,211.4z" />
        </g>
        <g id="testo_3_">
            <g id="testo_7_">
                <path class="st2" d="M218.7,237.7l2.1,3.9H219l-1.9-3.8h-1.8v3.8h-1.6v-9.8h4.2c1.8,0,3.1,1.2,3.1,3
				C221,236.4,220.1,237.4,218.7,237.7z M215.3,236.4h2.4c1,0,1.6-0.6,1.6-1.5c0-1-0.6-1.5-1.6-1.5h-2.4V236.4z" />
                <path class="st2" d="M225.3,234.6c2,0,3.4,1.4,3.4,3.5v0.7h-5.2c0.1,1.1,0.8,1.8,2,1.8c1,0,1.5-0.5,1.8-1.1l1.3,0.7
				c-0.5,0.8-1.3,1.7-3.1,1.7c-2.1,0-3.6-1.6-3.6-3.7C221.9,236.1,223.3,234.6,225.3,234.6z M227.1,237.6c-0.1-1.1-0.7-1.7-1.8-1.7
				c-1.1,0-1.7,0.6-1.8,1.7H227.1z" />
                <path class="st2" d="M233.1,234.6c1.9,0,3.1,1.1,3.4,2.7l-1.5,0.4c-0.1-0.9-0.7-1.6-1.9-1.6c-1.2,0-2.1,0.9-2.1,2.3
				c0,1.4,0.8,2.3,2.1,2.3c1.2,0,1.7-0.7,1.9-1.6l1.5,0.4c-0.3,1.4-1.4,2.7-3.4,2.7c-2,0-3.6-1.5-3.6-3.7
				C229.5,236.1,231.1,234.6,233.1,234.6z" />
                <path class="st2" d="M244.4,234.8l-3.9,9.7h-1.7l1.1-2.5l-2.9-7.2h1.7l2,5.1h0.2l2-5.1H244.4z" />
                <path class="st2" d="M256.5,231.9v1.5h-3.1v8.3h-1.6v-8.3h-3.1v-1.5H256.5z" />
                <path class="st2" d="M259.2,234.6c1.8,0,3.1,1.1,3.1,2.7v4.4h-1.5v-1h-0.2c-0.3,0.5-0.9,1.2-2.3,1.2c-1.6,0-2.6-0.8-2.6-2.1
				c0-1.2,0.9-1.9,2.5-2l2.6-0.3v-0.2c0-0.8-0.6-1.4-1.6-1.4c-1,0-1.6,0.6-2,1.4l-1.3-0.7C256.4,235.7,257.4,234.6,259.2,234.6z
				 M258.6,240.6c1.4,0,2.2-0.9,2.2-1.9v-0.1l-2.3,0.2c-0.7,0.1-1.2,0.3-1.2,0.9S257.8,240.6,258.6,240.6z" />
                <path class="st2" d="M270.4,234.8l-3.9,9.7h-1.7l1.1-2.5l-2.9-7.2h1.7l2,5.1h0.2l2-5.1H270.4z" />
                <path class="st2" d="M272.9,241.7h-1.5v-9.8h1.5V241.7z" />
                <path class="st2" d="M277.9,234.6c2,0,3.6,1.5,3.6,3.6s-1.6,3.7-3.6,3.7s-3.6-1.5-3.6-3.7S275.8,234.6,277.9,234.6z M277.9,240.5
				c1.2,0,2-0.9,2-2.3s-0.8-2.3-2-2.3s-2,0.9-2,2.3S276.6,240.5,277.9,240.5z" />
                <path class="st2" d="M284.3,235.8h0.2c0.3-0.8,0.8-1.1,1.8-1.1h0.7v1.4h-1.1c-0.9,0-1.5,0.5-1.5,1.5v4h-1.5v-6.9h1.5V235.8z" />
                <path class="st2" d="M289,231.6c0.7,0,1.2,0.5,1.2,1.2v1.7c0,0.7-0.5,1.2-1.2,1.2h-1.2v-0.9h1c0.3,0,0.4-0.1,0.4-0.4V234
				c-0.1,0-0.1,0-0.3,0c-0.6,0-1.2-0.4-1.2-1.1C287.8,232.1,288.3,231.6,289,231.6z" />
                <path class="st2" d="M293.8,234.6c1.6,0,2.7,0.7,3.5,1.7l-1.1,0.9c-0.7-1-1.5-1.3-2.3-1.3s-1.2,0.3-1.2,0.8
				c0,0.4,0.4,0.7,1.1,0.8l0.8,0.1c1.5,0.3,2.7,0.8,2.7,2.1s-1.2,2.2-2.9,2.2c-1.8,0-3.1-0.9-3.8-2.1l1.3-0.7
				c0.6,1.2,1.5,1.6,2.5,1.6c0.9,0,1.4-0.4,1.4-0.9c0-0.5-0.5-0.7-1.3-0.9l-0.8-0.1c-1.5-0.3-2.6-0.8-2.6-2.1
				C291.1,235.4,292.2,234.6,293.8,234.6z" />
                <path class="st2" d="M305.6,234.6c2,0,3.4,1.4,3.4,3.5v0.7h-5.2c0.1,1.1,0.8,1.8,2,1.8c1,0,1.5-0.5,1.8-1.1l1.3,0.7
				c-0.5,0.8-1.3,1.7-3.1,1.7c-2.1,0-3.6-1.6-3.6-3.7C302.2,236.1,303.6,234.6,305.6,234.6z M307.4,237.6c-0.1-1.1-0.7-1.7-1.8-1.7
				c-1.1,0-1.7,0.6-1.8,1.7H307.4z" />
                <path class="st2" d="M311.3,234.8l1.7,2.5h0.2l1.7-2.5h1.8l-2.5,3.4l2.6,3.5H315l-1.8-2.5H313l-1.8,2.5h-1.8l2.6-3.5l-2.5-3.4
				H311.3z" />
                <path class="st2" d="M317.9,234.8h1.5v1h0.2c0.4-0.6,1-1.2,2.3-1.2c1.8,0,3.2,1.5,3.2,3.6c0,2.1-1.4,3.7-3.2,3.7
				c-1.3,0-1.9-0.6-2.3-1.2h-0.2v3.8h-1.5V234.8z M323.6,238.2c0-1.5-0.9-2.3-2.1-2.3c-1.2,0-2,0.9-2,2.3c0,1.4,0.8,2.3,2,2.3
				C322.7,240.5,323.6,239.7,323.6,238.2z" />
                <path class="st2" d="M329.5,234.6c2,0,3.4,1.4,3.4,3.5v0.7h-5.2c0.1,1.1,0.8,1.8,2,1.8c1,0,1.5-0.5,1.8-1.1l1.3,0.7
				c-0.5,0.8-1.3,1.7-3.1,1.7c-2.1,0-3.6-1.6-3.6-3.7C326,236.1,327.5,234.6,329.5,234.6z M331.3,237.6c-0.1-1.1-0.7-1.7-1.8-1.7
				c-1.1,0-1.7,0.6-1.8,1.7H331.3z" />
                <path class="st2" d="M335.6,235.8h0.2c0.3-0.8,0.8-1.1,1.8-1.1h0.7v1.4h-1.1c-0.9,0-1.5,0.5-1.5,1.5v4h-1.5v-6.9h1.5V235.8z" />
                <path class="st2" d="M340.2,231.6c0.6,0,1.1,0.5,1.1,1.1c0,0.6-0.5,1.1-1.1,1.1c-0.6,0-1.2-0.5-1.2-1.1
				C339,232,339.5,231.6,340.2,231.6z M340.9,241.7h-1.5v-6.9h1.5V241.7z" />
                <path class="st2" d="M345.7,234.6c2,0,3.4,1.4,3.4,3.5v0.7h-5.2c0.1,1.1,0.8,1.8,2,1.8c1,0,1.5-0.5,1.8-1.1l1.3,0.7
				c-0.5,0.8-1.3,1.7-3.1,1.7c-2.1,0-3.6-1.6-3.6-3.7C342.2,236.1,343.7,234.6,345.7,234.6z M347.5,237.6c-0.1-1.1-0.7-1.7-1.8-1.7
				c-1.1,0-1.7,0.6-1.8,1.7H347.5z" />
                <path class="st2" d="M351.9,234.8v1.1h0.2c0.3-0.6,0.9-1.2,2.3-1.2c1.5,0,2.7,1,2.7,2.9v4.1h-1.5v-4c0-1.1-0.6-1.7-1.7-1.7
				c-1.2,0-1.9,0.8-1.9,2.1v3.6h-1.5v-6.9H351.9z" />
                <path class="st2" d="M361.8,234.6c1.9,0,3.1,1.1,3.4,2.7l-1.5,0.4c-0.1-0.9-0.7-1.6-1.9-1.6c-1.2,0-2.1,0.9-2.1,2.3
				c0,1.4,0.8,2.3,2.1,2.3c1.2,0,1.7-0.7,1.9-1.6l1.5,0.4c-0.3,1.4-1.4,2.7-3.4,2.7c-2,0-3.6-1.5-3.6-3.7
				C358.2,236.1,359.8,234.6,361.8,234.6z" />
                <path class="st2" d="M369.6,234.6c2,0,3.4,1.4,3.4,3.5v0.7h-5.2c0.1,1.1,0.8,1.8,2,1.8c1,0,1.5-0.5,1.8-1.1l1.3,0.7
				c-0.5,0.8-1.3,1.7-3.1,1.7c-2.1,0-3.6-1.6-3.6-3.7C366.1,236.1,367.5,234.6,369.6,234.6z M371.3,237.6c-0.1-1.1-0.7-1.7-1.8-1.7
				c-1.1,0-1.7,0.6-1.8,1.7H371.3z" />
            </g>
        </g>
    </g>
    <g>
        <g>
            <path class="st6" d="M275.6,188.3L275.6,188.3c0-2.3,1.8-4.1,4.1-4.1l0,0c2.3,0,4.1,1.8,4.1,4.1l0,0c0,2.3-1.8,4.1-4.1,4.1l0,0
			C277.4,192.4,275.6,190.6,275.6,188.3z" />
            <path class="st6" d="M275.6,165.3L275.6,165.3c0-2.3,1.8-4.1,4.1-4.1l0,0c2.3,0,4.1,1.8,4.1,4.1l0,0c0,2.3-1.8,4.1-4.1,4.1l0,0
			C277.4,169.4,275.6,167.5,275.6,165.3z" />
            <path class="st6" d="M275.6,142.3L275.6,142.3c0-2.3,1.8-4.1,4.1-4.1l0,0c2.3,0,4.1,1.8,4.1,4.1l0,0c0,2.3-1.8,4.1-4.1,4.1l0,0
			C277.4,146.4,275.6,144.5,275.6,142.3z" />
            <path class="st6" d="M275.6,119.3L275.6,119.3c0-2.3,1.8-4.1,4.1-4.1l0,0c2.3,0,4.1,1.8,4.1,4.1l0,0c0,2.3-1.8,4.1-4.1,4.1l0,0
			C277.4,123.4,275.6,121.5,275.6,119.3z" />
            <path class="st6" d="M275.6,96.2L275.6,96.2c0-2.3,1.8-4.1,4.1-4.1l0,0c2.3,0,4.1,1.8,4.1,4.1l0,0c0,2.3-1.8,4.1-4.1,4.1l0,0
			C277.4,100.3,275.6,98.5,275.6,96.2z" />
            <path class="st6" d="M275.6,73.2L275.6,73.2c0-2.3,1.8-4.1,4.1-4.1l0,0c2.3,0,4.1,1.8,4.1,4.1l0,0c0,2.3-1.8,4.1-4.1,4.1l0,0
			C277.4,77.3,275.6,75.4,275.6,73.2z" />
            <path class="st6" d="M275.6,50.1L275.6,50.1c0-2.3,1.8-4.1,4.1-4.1l0,0c2.3,0,4.1,1.8,4.1,4.1l0,0c0,2.3-1.8,4.1-4.1,4.1l0,0
			C277.4,54.2,275.6,52.4,275.6,50.1z" />
            <path class="st6" d="M275.6,27.2L275.6,27.2c0-2.3,1.8-4.1,4.1-4.1l0,0c2.3,0,4.1,1.8,4.1,4.1l0,0c0,2.3-1.8,4.1-4.1,4.1l0,0
			C277.4,31.3,275.6,29.4,275.6,27.2z" />
            <path class="st6" d="M275.6,4.1L275.6,4.1c0-2.3,1.8-4.1,4.1-4.1l0,0c2.3,0,4.1,1.8,4.1,4.1l0,0c0,2.3-1.8,4.1-4.1,4.1l0,0
			C277.4,8.2,275.6,6.4,275.6,4.1z" />
            <path class="st6" d="M275.6,211.4L275.6,211.4c0-2.3,1.8-4.1,4.1-4.1l0,0c2.3,0,4.1,1.8,4.1,4.1l0,0c0,2.3-1.8,4.1-4.1,4.1l0,0
			C277.4,215.5,275.6,213.6,275.6,211.4z" />
            <path class="st6" d="M298.6,211.4L298.6,211.4c0-2.3,1.8-4.1,4.1-4.1l0,0c2.3,0,4.1,1.8,4.1,4.1l0,0c0,2.3-1.8,4.1-4.1,4.1l0,0
			C300.5,215.5,298.6,213.6,298.6,211.4z" />
        </g>
        <g id="testo_4_">
            <path class="st2" d="M282.5,231.9v1.5h-3.1v8.3h-1.6v-8.3h-3.1v-1.5H282.5z" />
            <path class="st2" d="M285.1,231.9v4h0.2c0.3-0.6,0.9-1.2,2.3-1.2c1.5,0,2.7,1,2.7,2.9v4.1h-1.5v-4c0-1.1-0.6-1.7-1.7-1.7
			c-1.2,0-1.9,0.8-1.9,2.1v3.6h-1.5v-9.8L285.1,231.9L285.1,231.9z" />
            <path class="st2" d="M295,234.6c2,0,3.4,1.4,3.4,3.5v0.7h-5.2c0.1,1.1,0.8,1.8,2,1.8c1,0,1.5-0.5,1.8-1.1l1.3,0.7
			c-0.5,0.8-1.3,1.7-3.1,1.7c-2.1,0-3.6-1.6-3.6-3.7C291.5,236.2,292.9,234.6,295,234.6z M296.7,237.6c-0.1-1.1-0.7-1.7-1.8-1.7
			c-1.1,0-1.7,0.6-1.8,1.7H296.7z" />
            <path class="st2" d="M304.4,231.6c0.6,0,1.1,0.5,1.1,1.1s-0.5,1.1-1.1,1.1s-1.2-0.5-1.2-1.1C303.2,232.1,303.7,231.6,304.4,231.6z
			 M305.1,241.7h-1.5v-6.9h1.5V241.7z" />
            <path class="st2" d="M308.4,234.8v1h0.2c0.3-0.6,0.9-1.1,1.9-1.1s1.6,0.5,1.9,1.2h0.2c0.3-0.6,0.9-1.2,2-1.2
			c1.2,0,2.3,0.9,2.3,2.3v4.7h-1.5v-4.6c0-0.7-0.5-1.1-1.3-1.1s-1.4,0.5-1.4,1.4v4.3h-1.5v-4.6c0-0.7-0.5-1.1-1.2-1.1
			c-0.8,0-1.4,0.5-1.4,1.4v4.3h-1.5v-6.9L308.4,234.8L308.4,234.8z" />
            <path class="st2" d="M318.5,234.8h1.5v1h0.2c0.4-0.6,1-1.2,2.3-1.2c1.8,0,3.2,1.5,3.2,3.6s-1.4,3.7-3.2,3.7
			c-1.3,0-1.9-0.6-2.3-1.2H320v3.8h-1.5V234.8z M324.2,238.3c0-1.5-0.9-2.3-2.1-2.3s-2,0.9-2,2.3c0,1.4,0.8,2.3,2,2.3
			C323.3,240.6,324.2,239.7,324.2,238.3z" />
            <path class="st2" d="M330.2,234.6c2,0,3.6,1.5,3.6,3.6s-1.6,3.7-3.6,3.7s-3.6-1.5-3.6-3.7S328.1,234.6,330.2,234.6z M330.2,240.5
			c1.2,0,2-0.9,2-2.3s-0.8-2.3-2-2.3s-2,0.9-2,2.3S329,240.5,330.2,240.5z" />
            <path class="st2" d="M336.6,235.9h0.2c0.3-0.8,0.8-1.1,1.8-1.1h0.7v1.4h-1.1c-0.9,0-1.5,0.5-1.5,1.5v4h-1.5v-6.9h1.5v1.1H336.6z" />
            <path class="st2" d="M341.6,234.8v-2.3h1.5v2.3h2v1.3h-2v3.9c0,0.3,0.1,0.4,0.4,0.4h1.2v1.3h-1.8c-0.7,0-1.3-0.5-1.3-1.3v-4.3
			h-1.8v-1.3L341.6,234.8L341.6,234.8z" />
            <path class="st2" d="M349.5,234.6c1.8,0,3.1,1.1,3.1,2.7v4.4H351v-1h-0.2c-0.3,0.5-0.9,1.2-2.3,1.2c-1.6,0-2.6-0.8-2.6-2.1
			c0-1.2,0.9-1.9,2.5-2l2.6-0.3v-0.2c0-0.8-0.6-1.4-1.6-1.4s-1.6,0.6-2,1.4l-1.3-0.7C346.6,235.7,347.6,234.6,349.5,234.6z
			 M348.9,240.7c1.4,0,2.2-0.9,2.2-1.9v-0.1l-2.3,0.2c-0.7,0.1-1.2,0.3-1.2,0.9C347.6,240.3,348,240.7,348.9,240.7z" />
            <path class="st2" d="M355.7,234.8v1.1h0.2c0.3-0.6,0.9-1.2,2.3-1.2c1.5,0,2.7,1,2.7,2.9v4.1h-1.5v-4c0-1.1-0.6-1.7-1.7-1.7
			c-1.2,0-1.9,0.8-1.9,2.1v3.6h-1.5v-6.9L355.7,234.8L355.7,234.8z" />
            <path class="st2" d="M365.7,234.6c1.9,0,3.1,1.1,3.4,2.7l-1.5,0.4c-0.1-0.9-0.7-1.6-1.9-1.6c-1.2,0-2.1,0.9-2.1,2.3
			c0,1.4,0.8,2.3,2.1,2.3c1.2,0,1.7-0.7,1.9-1.6l1.5,0.4c-0.3,1.4-1.4,2.7-3.4,2.7s-3.6-1.5-3.6-3.7
			C362.1,236.1,363.7,234.6,365.7,234.6z" />
            <path class="st2" d="M373.4,234.6c2,0,3.4,1.4,3.4,3.5v0.7h-5.2c0.1,1.1,0.8,1.8,2,1.8c1,0,1.5-0.5,1.8-1.1l1.3,0.7
			c-0.5,0.8-1.3,1.7-3.1,1.7c-2.1,0-3.6-1.6-3.6-3.7C370,236.2,371.4,234.6,373.4,234.6z M375.2,237.6c-0.1-1.1-0.7-1.7-1.8-1.7
			c-1.1,0-1.7,0.6-1.8,1.7H375.2z" />
            <path class="st2" d="M385.2,234.6c2,0,3.6,1.5,3.6,3.6s-1.6,3.7-3.6,3.7s-3.6-1.5-3.6-3.7S383.2,234.6,385.2,234.6z M385.2,240.5
			c1.2,0,2-0.9,2-2.3s-0.8-2.3-2-2.3s-2,0.9-2,2.3S384,240.5,385.2,240.5z" />
            <path class="st2" d="M391.2,234.8v-1.6c0-0.8,0.5-1.3,1.3-1.3h1.8v1.3h-1.1c-0.3,0-0.4,0.1-0.4,0.4v1.2h1.9v1.3h-1.9v5.6h-1.5
			v-5.6h-1.8v-1.3L391.2,234.8L391.2,234.8z" />
            <path class="st2" d="M402.2,234.6c1.6,0,2.7,0.7,3.5,1.7l-1.1,0.9c-0.7-1-1.5-1.3-2.3-1.3s-1.2,0.3-1.2,0.8c0,0.4,0.4,0.7,1.1,0.8
			l0.8,0.1c1.5,0.3,2.7,0.8,2.7,2.1s-1.2,2.2-2.9,2.2c-1.8,0-3.1-0.9-3.8-2.1l1.3-0.7c0.6,1.2,1.5,1.6,2.5,1.6
			c0.9,0,1.4-0.4,1.4-0.9s-0.5-0.7-1.3-0.9l-0.8-0.1c-1.5-0.3-2.6-0.8-2.6-2.1S400.7,234.6,402.2,234.6z" />
            <path class="st2" d="M407.1,234.8h1.5v1h0.2c0.4-0.6,1-1.2,2.3-1.2c1.8,0,3.2,1.5,3.2,3.6s-1.4,3.7-3.2,3.7
			c-1.3,0-1.9-0.6-2.3-1.2h-0.2v3.8h-1.5V234.8z M412.7,238.3c0-1.5-0.9-2.3-2.1-2.3s-2,0.9-2,2.3c0,1.4,0.8,2.3,2,2.3
			C411.9,240.6,412.7,239.7,412.7,238.3z" />
            <path class="st2" d="M418.6,234.6c2,0,3.4,1.4,3.4,3.5v0.7h-5.2c0.1,1.1,0.8,1.8,2,1.8c1,0,1.5-0.5,1.8-1.1l1.3,0.7
			c-0.5,0.8-1.3,1.7-3.1,1.7c-2.1,0-3.6-1.6-3.6-3.7C415.2,236.2,416.6,234.6,418.6,234.6z M420.4,237.6c-0.1-1.1-0.7-1.7-1.8-1.7
			c-1.1,0-1.7,0.6-1.8,1.7H420.4z" />
            <path class="st2" d="M426.3,234.6c1.8,0,3.1,1.1,3.1,2.7v4.4h-1.5v-1h-0.2c-0.3,0.5-0.9,1.2-2.3,1.2c-1.6,0-2.6-0.8-2.6-2.1
			c0-1.2,0.9-1.9,2.5-2l2.6-0.3v-0.2c0-0.8-0.6-1.4-1.6-1.4s-1.6,0.6-2,1.4l-1.3-0.7C423.5,235.7,424.5,234.6,426.3,234.6z
			 M425.7,240.7c1.4,0,2.2-0.9,2.2-1.9v-0.1l-2.3,0.2c-0.7,0.1-1.2,0.3-1.2,0.9C424.4,240.3,424.9,240.7,425.7,240.7z" />
            <path class="st2" d="M435,237.5l3.1,4.3h-1.8l-2.4-3.3l-1.2,1v2.3h-1.5V232h1.5v5.5h0.2l3.1-2.6h2.2L435,237.5z" />
            <path class="st2" d="M439.9,231.6c0.6,0,1.1,0.5,1.1,1.1s-0.5,1.1-1.1,1.1s-1.2-0.5-1.2-1.1C438.7,232.1,439.2,231.6,439.9,231.6z
			 M440.6,241.7h-1.5v-6.9h1.5V241.7z" />
            <path class="st2" d="M443.9,234.8v1.1h0.2c0.3-0.6,0.9-1.2,2.3-1.2c1.5,0,2.7,1,2.7,2.9v4.1h-1.5v-4c0-1.1-0.6-1.7-1.7-1.7
			c-1.2,0-1.9,0.8-1.9,2.1v3.6h-1.5v-6.9L443.9,234.8L443.9,234.8z" />
            <path class="st2" d="M457.5,234.8v6.7c0,1.9-1.3,3.2-3.5,3.2c-1.9,0-2.9-0.9-3.6-1.9l1.3-0.8c0.4,0.7,1.1,1.4,2.2,1.4
			c1.2,0,2-0.6,2-1.9v-0.9h-0.2c-0.4,0.6-1,1.2-2.3,1.2c-1.8,0-3.2-1.5-3.2-3.6s1.4-3.5,3.2-3.5c1.3,0,1.9,0.6,2.3,1.2h0.2v-1
			L457.5,234.8L457.5,234.8z M456,238.2c0-1.4-0.8-2.2-2-2.2s-2.1,0.8-2.1,2.2s0.9,2.2,2.1,2.2C455.1,240.4,456,239.5,456,238.2z" />
            <path class="st2" d="M468.3,241.7v-1.1h-0.2c-0.3,0.6-0.9,1.3-2.3,1.3c-1.5,0-2.7-1-2.7-2.9v-4.1h1.5v4c0,1.1,0.6,1.7,1.7,1.7
			c1.2,0,1.9-0.8,1.9-2.1v-3.6h1.5v6.9L468.3,241.7L468.3,241.7z" />
            <path class="st2" d="M471.6,234.8h1.5v1h0.2c0.4-0.6,1-1.2,2.3-1.2c1.8,0,3.2,1.5,3.2,3.6s-1.4,3.7-3.2,3.7
			c-1.3,0-1.9-0.6-2.3-1.2h-0.2v3.8h-1.5V234.8z M477.2,238.3c0-1.5-0.9-2.3-2.1-2.3s-2,0.9-2,2.3c0,1.4,0.8,2.3,2,2.3
			C476.4,240.6,477.2,239.7,477.2,238.3z" />
        </g>
    </g>
    <g>
        <g>
            <path class="st7" d="M338.5,211.4L338.5,211.4c0-2.3,1.8-4.1,4.1-4.1l0,0c2.3,0,4.1,1.8,4.1,4.1l0,0c0,2.3-1.8,4.1-4.1,4.1l0,0
			C340.3,215.5,338.5,213.6,338.5,211.4z" />
            <path class="st7" d="M338.5,188.3L338.5,188.3c0-2.3,1.8-4.1,4.1-4.1l0,0c2.3,0,4.1,1.8,4.1,4.1l0,0c0,2.3-1.8,4.1-4.1,4.1l0,0
			C340.3,192.4,338.5,190.6,338.5,188.3z" />
            <path class="st7" d="M338.5,165.3L338.5,165.3c0-2.3,1.8-4.1,4.1-4.1l0,0c2.3,0,4.1,1.8,4.1,4.1l0,0c0,2.3-1.8,4.1-4.1,4.1l0,0
			C340.3,169.4,338.5,167.5,338.5,165.3z" />
            <path class="st7" d="M338.5,142.2L338.5,142.2c0-2.3,1.8-4.1,4.1-4.1l0,0c2.3,0,4.1,1.8,4.1,4.1l0,0c0,2.3-1.8,4.1-4.1,4.1l0,0
			C340.3,146.3,338.5,144.5,338.5,142.2z" />
            <path class="st7" d="M338.5,119.3L338.5,119.3c0-2.3,1.8-4.1,4.1-4.1l0,0c2.3,0,4.1,1.8,4.1,4.1l0,0c0,2.3-1.8,4.1-4.1,4.1l0,0
			C340.3,123.4,338.5,121.5,338.5,119.3z" />
        </g>
        <g id="testo_5_">
            <path class="st2" d="M344.1,231.9l2.9,9.8h-1.7l-0.6-2.3H341l-0.7,2.3h-1.7l2.9-9.8H344.1z M344.2,238l-1.4-4.7h-0.2l-1.3,4.7
			H344.2z" />
            <path class="st2" d="M351.1,234.6c1.9,0,3.1,1.1,3.4,2.7l-1.5,0.4c-0.1-0.9-0.7-1.6-1.9-1.6c-1.2,0-2.1,0.9-2.1,2.3
			c0,1.4,0.8,2.3,2.1,2.3c1.2,0,1.7-0.7,1.9-1.6l1.5,0.4c-0.3,1.4-1.4,2.7-3.4,2.7s-3.6-1.5-3.6-3.7
			C347.5,236.1,349.1,234.6,351.1,234.6z" />
            <path class="st2" d="M356.8,234.8v-2.3h1.5v2.3h2v1.3h-2v3.9c0,0.3,0.1,0.4,0.4,0.4h1.2v1.3h-1.8c-0.7,0-1.3-0.5-1.3-1.3v-4.3H355
			v-1.3L356.8,234.8L356.8,234.8z" />
            <path class="st2" d="M362.3,231.6c0.6,0,1.1,0.5,1.1,1.1s-0.5,1.1-1.1,1.1s-1.2-0.5-1.2-1.1C361.2,232.1,361.7,231.6,362.3,231.6z
			 M363.1,241.7h-1.5v-6.9h1.5V241.7z" />
            <path class="st2" d="M366.4,234.8v1.1h0.2c0.3-0.6,0.9-1.2,2.3-1.2c1.5,0,2.7,1,2.7,2.9v4.1H370v-4c0-1.1-0.6-1.7-1.7-1.7
			c-1.2,0-1.9,0.8-1.9,2.1v3.6h-1.5v-6.9L366.4,234.8L366.4,234.8z" />
            <path class="st2" d="M380,234.8v6.7c0,1.9-1.3,3.2-3.5,3.2c-1.9,0-2.9-0.9-3.6-1.9l1.3-0.8c0.4,0.7,1.1,1.4,2.2,1.4
			c1.2,0,2-0.6,2-1.9v-0.9h-0.2c-0.4,0.6-1,1.2-2.3,1.2c-1.8,0-3.2-1.5-3.2-3.6s1.4-3.5,3.2-3.5c1.3,0,1.9,0.6,2.3,1.2h0.2v-1
			L380,234.8L380,234.8z M378.4,238.2c0-1.4-0.8-2.2-2-2.2s-2.1,0.8-2.1,2.2s0.9,2.2,2.1,2.2S378.4,239.5,378.4,238.2z" />
            <path class="st2" d="M386.8,234.8v-2.3h1.5v2.3h2v1.3h-2v3.9c0,0.3,0.1,0.4,0.4,0.4h1.2v1.3h-1.8c-0.7,0-1.3-0.5-1.3-1.3v-4.3H385
			v-1.3L386.8,234.8L386.8,234.8z" />
            <path class="st2" d="M394.7,234.6c2,0,3.6,1.5,3.6,3.6s-1.6,3.7-3.6,3.7s-3.6-1.5-3.6-3.7S392.6,234.6,394.7,234.6z M394.7,240.5
			c1.2,0,2-0.9,2-2.3s-0.8-2.3-2-2.3s-2,0.9-2,2.3S393.4,240.5,394.7,240.5z" />
            <path class="st2" d="M406.3,234.8v6.7c0,1.9-1.3,3.2-3.5,3.2c-1.9,0-2.9-0.9-3.6-1.9l1.3-0.8c0.4,0.7,1.1,1.4,2.2,1.4
			c1.2,0,2-0.6,2-1.9v-0.9h-0.2c-0.4,0.6-1,1.2-2.3,1.2c-1.8,0-3.2-1.5-3.2-3.6s1.4-3.5,3.2-3.5c1.3,0,1.9,0.6,2.3,1.2h0.2v-1
			L406.3,234.8L406.3,234.8z M404.8,238.2c0-1.4-0.8-2.2-2-2.2s-2.1,0.8-2.1,2.2s0.9,2.2,2.1,2.2S404.8,239.5,404.8,238.2z" />
            <path class="st2" d="M411.1,234.6c2,0,3.4,1.4,3.4,3.5v0.7h-5.2c0.1,1.1,0.8,1.8,2,1.8c1,0,1.5-0.5,1.8-1.1l1.3,0.7
			c-0.5,0.8-1.3,1.7-3.1,1.7c-2.1,0-3.6-1.6-3.6-3.7C407.7,236.2,409.1,234.6,411.1,234.6z M412.9,237.6c-0.1-1.1-0.7-1.7-1.8-1.7
			c-1.1,0-1.7,0.6-1.8,1.7H412.9z" />
            <path class="st2" d="M416.8,234.8v-2.3h1.5v2.3h2v1.3h-2v3.9c0,0.3,0.1,0.4,0.4,0.4h1.2v1.3H418c-0.7,0-1.3-0.5-1.3-1.3v-4.3h-1.8
			v-1.3L416.8,234.8L416.8,234.8z" />
            <path class="st2" d="M423.1,231.9v4h0.2c0.3-0.6,0.9-1.2,2.3-1.2c1.5,0,2.7,1,2.7,2.9v4.1h-1.5v-4c0-1.1-0.6-1.7-1.7-1.7
			c-1.2,0-1.9,0.8-1.9,2.1v3.6h-1.5v-9.8L423.1,231.9L423.1,231.9z" />
            <path class="st2" d="M432.9,234.6c2,0,3.4,1.4,3.4,3.5v0.7H431c0.1,1.1,0.8,1.8,2,1.8c1,0,1.5-0.5,1.8-1.1l1.3,0.7
			c-0.5,0.8-1.3,1.7-3.1,1.7c-2.1,0-3.6-1.6-3.6-3.7C429.4,236.2,430.9,234.6,432.9,234.6z M434.7,237.6c-0.1-1.1-0.7-1.7-1.8-1.7
			c-1.1,0-1.7,0.6-1.8,1.7H434.7z" />
            <path class="st2" d="M439,235.9h0.2c0.3-0.8,0.8-1.1,1.8-1.1h0.7v1.4h-1.1c-0.9,0-1.5,0.5-1.5,1.5v4h-1.5v-6.9h1.5v1.1H439z" />
            <path class="st2" d="M447.5,231.6c0.6,0,1.1,0.5,1.1,1.1s-0.5,1.1-1.1,1.1s-1.2-0.5-1.2-1.1C446.4,232.1,446.9,231.6,447.5,231.6z
			 M448.3,241.7h-1.5v-6.9h1.5V241.7z" />
            <path class="st2" d="M451.6,234.8v1.1h0.2c0.3-0.6,0.9-1.2,2.3-1.2c1.5,0,2.7,1,2.7,2.9v4.1h-1.5v-4c0-1.1-0.6-1.7-1.7-1.7
			c-1.2,0-1.9,0.8-1.9,2.1v3.6h-1.5v-6.9L451.6,234.8L451.6,234.8z" />
            <path class="st2" d="M465.4,234.6c2,0,3.4,1.4,3.4,3.5v0.7h-5.2c0.1,1.1,0.8,1.8,2,1.8c1,0,1.5-0.5,1.8-1.1l1.3,0.7
			c-0.5,0.8-1.3,1.7-3.1,1.7c-2.1,0-3.6-1.6-3.6-3.7C461.9,236.2,463.4,234.6,465.4,234.6z M467.2,237.6c-0.1-1.1-0.7-1.7-1.8-1.7
			c-1.1,0-1.7,0.6-1.8,1.7H467.2z" />
            <path class="st2" d="M475.3,244.5v-3.8h-0.2c-0.4,0.6-1,1.2-2.3,1.2c-1.8,0-3.2-1.5-3.2-3.7c0-2.1,1.4-3.6,3.2-3.6
			c1.3,0,1.9,0.6,2.3,1.2h0.2v-1h1.5v9.7L475.3,244.5L475.3,244.5z M475.3,238.3c0-1.4-0.8-2.3-2-2.3s-2.1,0.8-2.1,2.3
			s0.9,2.3,2.1,2.3C474.4,240.6,475.3,239.7,475.3,238.3z" />
            <path class="st2" d="M483.6,241.7v-1.1h-0.2c-0.3,0.6-0.9,1.3-2.3,1.3c-1.5,0-2.7-1-2.7-2.9v-4.1h1.5v4c0,1.1,0.6,1.7,1.7,1.7
			c1.2,0,1.9-0.8,1.9-2.1v-3.6h1.5v6.9L483.6,241.7L483.6,241.7z" />
            <path class="st2" d="M490,234.6c1.8,0,3.1,1.1,3.1,2.7v4.4h-1.5v-1h-0.2c-0.3,0.5-0.9,1.2-2.3,1.2c-1.6,0-2.6-0.8-2.6-2.1
			c0-1.2,0.9-1.9,2.5-2l2.6-0.3v-0.2c0-0.8-0.6-1.4-1.6-1.4s-1.6,0.6-2,1.4l-1.3-0.7C487.1,235.7,488.1,234.6,490,234.6z
			 M489.4,240.7c1.4,0,2.2-0.9,2.2-1.9v-0.1l-2.3,0.2c-0.7,0.1-1.2,0.3-1.2,0.9C488.1,240.3,488.5,240.7,489.4,240.7z" />
            <path class="st2" d="M496.3,241.7h-1.5v-9.8h1.5V241.7z" />
            <path class="st2" d="M498.8,231.6c0.6,0,1.1,0.5,1.1,1.1s-0.5,1.1-1.1,1.1s-1.2-0.5-1.2-1.1C497.6,232.1,498.2,231.6,498.8,231.6z
			 M499.6,241.7H498v-6.9h1.5v6.9H499.6z" />
            <path class="st2" d="M502.4,234.8v-2.3h1.5v2.3h2v1.3h-2v3.9c0,0.3,0.1,0.4,0.4,0.4h1.2v1.3h-1.8c-0.7,0-1.3-0.5-1.3-1.3v-4.3
			h-1.8v-1.3L502.4,234.8L502.4,234.8z" />
            <path class="st2" d="M513.9,234.8l-3.9,9.7h-1.7l1.1-2.5l-2.9-7.2h1.7l2,5.1h0.2l2-5.1H513.9z" />
        </g>
    </g>
    <g>
        <g>
            <path class="st8" d="M378.3,50.2L378.3,50.2c0-2.3,1.8-4.1,4.1-4.1l0,0c2.3,0,4.1,1.8,4.1,4.1l0,0c0,2.3-1.8,4.1-4.1,4.1l0,0
			C380.2,54.3,378.3,52.5,378.3,50.2z" />
            <path class="st8" d="M378.3,27.2L378.3,27.2c0-2.3,1.8-4.1,4.1-4.1l0,0c2.3,0,4.1,1.8,4.1,4.1l0,0c0,2.3-1.8,4.1-4.1,4.1l0,0
			C380.2,31.3,378.3,29.4,378.3,27.2z" />
            <path class="st8" d="M378.3,4.1L378.3,4.1c0-2.3,1.8-4.1,4.1-4.1l0,0c2.3,0,4.1,1.8,4.1,4.1l0,0c0,2.3-1.8,4.1-4.1,4.1l0,0
			C380.2,8.2,378.3,6.4,378.3,4.1z" />
            <path class="st8" d="M378.3,211.4L378.3,211.4c0-2.3,1.8-4.1,4.1-4.1l0,0c2.3,0,4.1,1.8,4.1,4.1l0,0c0,2.3-1.8,4.1-4.1,4.1l0,0
			C380.2,215.5,378.3,213.6,378.3,211.4z" />
            <path class="st8" d="M378.3,188.3L378.3,188.3c0-2.3,1.8-4.1,4.1-4.1l0,0c2.3,0,4.1,1.8,4.1,4.1l0,0c0,2.3-1.8,4.1-4.1,4.1l0,0
			C380.2,192.4,378.3,190.6,378.3,188.3z" />
            <path class="st8" d="M378.3,165.3L378.3,165.3c0-2.3,1.8-4.1,4.1-4.1l0,0c2.3,0,4.1,1.8,4.1,4.1l0,0c0,2.3-1.8,4.1-4.1,4.1l0,0
			C380.2,169.4,378.3,167.6,378.3,165.3z" />
            <path class="st8" d="M378.3,142.3L378.3,142.3c0-2.3,1.8-4.1,4.1-4.1l0,0c2.3,0,4.1,1.8,4.1,4.1l0,0c0,2.3-1.8,4.1-4.1,4.1l0,0
			C380.2,146.4,378.3,144.5,378.3,142.3z" />
            <path class="st8" d="M378.3,119.2L378.3,119.2c0-2.3,1.8-4.1,4.1-4.1l0,0c2.3,0,4.1,1.8,4.1,4.1l0,0c0,2.3-1.8,4.1-4.1,4.1l0,0
			C380.2,123.3,378.3,121.5,378.3,119.2z" />
            <path class="st8" d="M378.3,96.2L378.3,96.2c0-2.3,1.8-4.1,4.1-4.1l0,0c2.3,0,4.1,1.8,4.1,4.1l0,0c0,2.3-1.8,4.1-4.1,4.1l0,0
			C380.2,100.3,378.3,98.5,378.3,96.2z" />
            <path class="st8" d="M378.3,73.2L378.3,73.2c0-2.3,1.8-4.1,4.1-4.1l0,0c2.3,0,4.1,1.8,4.1,4.1l0,0c0,2.3-1.8,4.1-4.1,4.1l0,0
			C380.2,77.3,378.3,75.4,378.3,73.2z" />
        </g>
        <g id="testo_6_">
            <path class="st2" d="M382.8,231.7c2.4,0,3.8,1.4,3.8,3.5v0.3H385v-0.3c0-1.2-0.7-2.1-2.1-2.1c-1.5,0-2.3,1-2.3,2.5v2.4
			c0,1.5,0.8,2.5,2.3,2.5s2.1-0.9,2.1-2.1v-0.3h1.6v0.3c0,2.2-1.3,3.6-3.8,3.6c-2.4,0-4-1.4-4-4v-2.2
			C378.9,233.2,380.4,231.7,382.8,231.7z" />
            <path class="st2" d="M391,234.6c1.8,0,3.1,1.1,3.1,2.7v4.4h-1.5v-1h-0.2c-0.3,0.5-0.9,1.2-2.3,1.2c-1.6,0-2.6-0.8-2.6-2.1
			c0-1.2,0.9-1.9,2.5-2l2.6-0.3v-0.2c0-0.8-0.6-1.4-1.6-1.4s-1.6,0.6-2,1.4l-1.3-0.7C388.2,235.7,389.2,234.6,391,234.6z
			 M390.4,240.6c1.4,0,2.2-0.9,2.2-1.9v-0.1l-2.3,0.2c-0.7,0.1-1.2,0.3-1.2,0.9C389.1,240.3,389.6,240.6,390.4,240.6z" />
            <path class="st2" d="M397.3,241.7h-1.5v-9.8h1.5V241.7z" />
            <path class="st2" d="M400.6,241.7h-1.5v-9.8h1.5V241.7z" />
            <path class="st2" d="M407.5,234.8v-2.3h1.5v2.3h2v1.3h-2v3.9c0,0.3,0.1,0.4,0.4,0.4h1.2v1.3h-1.8c-0.7,0-1.3-0.5-1.3-1.3v-4.3
			h-1.8v-1.3L407.5,234.8L407.5,234.8z" />
            <path class="st2" d="M415.3,234.6c2,0,3.6,1.5,3.6,3.6s-1.6,3.7-3.6,3.7s-3.6-1.5-3.6-3.7S413.3,234.6,415.3,234.6z M415.3,240.5
			c1.2,0,2-0.9,2-2.3s-0.8-2.3-2-2.3s-2,0.9-2,2.3S414.1,240.5,415.3,240.5z" />
            <path class="st2" d="M427.3,234.6c1.8,0,3.1,1.1,3.1,2.7v4.4h-1.5v-1h-0.2c-0.3,0.5-0.9,1.2-2.3,1.2c-1.6,0-2.6-0.8-2.6-2.1
			c0-1.2,0.9-1.9,2.5-2l2.6-0.3v-0.2c0-0.8-0.6-1.4-1.6-1.4s-1.6,0.6-2,1.4l-1.3-0.7C424.5,235.7,425.5,234.6,427.3,234.6z
			 M426.7,240.6c1.4,0,2.2-0.9,2.2-1.9v-0.1l-2.3,0.2c-0.7,0.1-1.2,0.3-1.2,0.9C425.4,240.3,425.8,240.6,426.7,240.6z" />
            <path class="st2" d="M435.2,234.6c1.9,0,3.1,1.1,3.4,2.7l-1.5,0.4c-0.1-0.9-0.7-1.6-1.9-1.6c-1.2,0-2.1,0.9-2.1,2.3
			c0,1.4,0.8,2.3,2.1,2.3c1.2,0,1.7-0.7,1.9-1.6l1.5,0.4c-0.3,1.4-1.4,2.7-3.4,2.7s-3.6-1.5-3.6-3.7
			C431.6,236.1,433.2,234.6,435.2,234.6z" />
            <path class="st2" d="M440.9,234.8v-2.3h1.5v2.3h2v1.3h-2v3.9c0,0.3,0.1,0.4,0.4,0.4h1.2v1.3h-1.8c-0.7,0-1.3-0.5-1.3-1.3v-4.3
			h-1.8v-1.3L440.9,234.8L440.9,234.8z" />
            <path class="st2" d="M446.5,231.6c0.6,0,1.1,0.5,1.1,1.1s-0.5,1.1-1.1,1.1s-1.2-0.5-1.2-1.1S445.8,231.6,446.5,231.6z
			 M447.2,241.7h-1.5v-6.9h1.5V241.7z" />
            <path class="st2" d="M452.1,234.6c2,0,3.6,1.5,3.6,3.6s-1.6,3.7-3.6,3.7s-3.6-1.5-3.6-3.7S450.1,234.6,452.1,234.6z M452.1,240.5
			c1.2,0,2-0.9,2-2.3s-0.8-2.3-2-2.3s-2,0.9-2,2.3S450.9,240.5,452.1,240.5z" />
            <path class="st2" d="M458.6,234.8v1.1h0.2c0.3-0.6,0.9-1.2,2.3-1.2c1.5,0,2.7,1,2.7,2.9v4.1h-1.5v-4c0-1.1-0.6-1.7-1.7-1.7
			c-1.2,0-1.9,0.8-1.9,2.1v3.6h-1.5v-6.9L458.6,234.8L458.6,234.8z" />
            <path class="st2" d="M470.5,234.8v-2.3h1.5v2.3h2v1.3h-2v3.9c0,0.3,0.1,0.4,0.4,0.4h1.2v1.3h-1.8c-0.7,0-1.3-0.5-1.3-1.3v-4.3
			h-1.8v-1.3L470.5,234.8L470.5,234.8z" />
            <path class="st2" d="M478.3,234.6c2,0,3.6,1.5,3.6,3.6s-1.6,3.7-3.6,3.7s-3.6-1.5-3.6-3.7S476.3,234.6,478.3,234.6z M478.3,240.5
			c1.2,0,2-0.9,2-2.3s-0.8-2.3-2-2.3s-2,0.9-2,2.3S477.1,240.5,478.3,240.5z" />
            <path class="st2" d="M490.3,234.6c1.8,0,3.1,1.1,3.1,2.7v4.4h-1.5v-1h-0.2c-0.3,0.5-0.9,1.2-2.3,1.2c-1.6,0-2.6-0.8-2.6-2.1
			c0-1.2,0.9-1.9,2.5-2l2.6-0.3v-0.2c0-0.8-0.6-1.4-1.6-1.4s-1.6,0.6-2,1.4l-1.3-0.7C487.5,235.7,488.5,234.6,490.3,234.6z
			 M489.7,240.6c1.4,0,2.2-0.9,2.2-1.9v-0.1l-2.3,0.2c-0.7,0.1-1.2,0.3-1.2,0.9C488.4,240.3,488.8,240.6,489.7,240.6z" />
            <path class="st2" d="M500.6,234.8v1.1h0.2c0.3-0.6,0.9-1.2,2.3-1.2c1.5,0,2.7,1,2.7,2.9v4.1h-1.5v-4c0-1.1-0.6-1.7-1.7-1.7
			c-1.2,0-1.9,0.8-1.9,2.1v3.6H499v-6.9L500.6,234.8L500.6,234.8z" />
            <path class="st2" d="M510.4,234.6c2,0,3.4,1.4,3.4,3.5v0.7h-5.2c0.1,1.1,0.8,1.8,2,1.8c1,0,1.5-0.5,1.8-1.1l1.3,0.7
			c-0.5,0.8-1.3,1.7-3.1,1.7c-2.1,0-3.6-1.6-3.6-3.7C506.9,236.2,508.4,234.6,510.4,234.6z M512.2,237.6c-0.1-1.1-0.7-1.7-1.8-1.7
			c-1.1,0-1.7,0.6-1.8,1.7H512.2z" />
            <path class="st2" d="M515.9,234.8l1,5.5h0.2l1.2-5.5h2.2l1.2,5.5h0.2l1-5.5h1.6l-1.4,6.9h-2.3l-1.2-5.5h-0.2l-1.2,5.5H516
			l-1.5-6.9H515.9z" />
            <path class="st2" d="M536.2,241.7h-1.5v-1h-0.2c-0.4,0.6-1,1.2-2.3,1.2c-1.8,0-3.2-1.5-3.2-3.7c0-2.1,1.4-3.6,3.2-3.6
			c1.3,0,1.9,0.6,2.3,1.2h0.2v-3.9h1.5V241.7z M530.5,238.3c0,1.5,0.9,2.3,2.1,2.3c1.2,0,2-0.9,2-2.3c0-1.4-0.8-2.3-2-2.3
			C531.4,236,530.5,236.8,530.5,238.3z" />
            <path class="st2" d="M541,234.6c1.8,0,3.1,1.1,3.1,2.7v4.4h-1.5v-1h-0.2c-0.3,0.5-0.9,1.2-2.3,1.2c-1.6,0-2.6-0.8-2.6-2.1
			c0-1.2,0.9-1.9,2.5-2l2.6-0.3v-0.2c0-0.8-0.6-1.4-1.6-1.4s-1.6,0.6-2,1.4l-1.3-0.7C538.2,235.7,539.2,234.6,541,234.6z
			 M540.4,240.6c1.4,0,2.2-0.9,2.2-1.9v-0.1l-2.3,0.2c-0.7,0.1-1.2,0.3-1.2,0.9C539.1,240.3,539.6,240.6,540.4,240.6z" />
            <path class="st2" d="M552.2,234.8l-3.9,9.7h-1.7l1.1-2.5l-2.9-7.2h1.7l2,5.1h0.2l2-5.1H552.2z" />
        </g>
    </g>
</svg>
