<?xml version="1.0" standalone="no"?>
<!DOCTYPE svg PUBLIC "-//W3C//DTD SVG 20010904//EN"
 "http://www.w3.org/TR/2001/REC-SVG-20010904/DTD/svg10.dtd">
<svg version="1.0" xmlns="http://www.w3.org/2000/svg"
 width="1084.000000pt" height="1084.000000pt" viewBox="0 0 1084.000000 1084.000000"
 preserveAspectRatio="xMidYMid meet">
<metadata>
Created by potrace 1.11, written by Peter Selinger 2001-2013
</metadata>
<g transform="translate(0.000000,1084.000000) scale(0.100000,-0.100000)"
fill="#000000" stroke="none">
<path d="M110 9896 l0 -484 491 0 c319 0 494 -4 498 -10 5 -8 7 -7939 2 -7963
0 -4 -218 -7 -483 -7 -266 0 -489 -1 -495 -1 -10 -1 -13 -105 -13 -484 l0
-482 2217 0 2218 0 0 483 c0 320 -3 482 -10 483 -5 0 -229 1 -497 1 l-488 0 0
1803 0 1802 1865 0 c1694 0 1865 -2 1866 -16 0 -9 1 -819 1 -1801 l1 -1785
-492 -1 c-270 -1 -494 -4 -497 -7 -11 -10 -9 -957 1 -958 55 -7 4418 -2 4423
5 7 13 8 936 1 948 -5 7 -171 11 -499 12 l-492 1 0 3983 c0 2191 2 3985 5
3988 3 3 226 5 496 5 453 0 491 2 492 17 1 22 1 923 0 940 -1 9 -451 12 -2216
12 l-2215 0 -1 -47 c0 -60 0 -894 0 -910 1 -8 127 -11 492 -11 270 -1 494 -3
497 -6 4 -5 7 -3241 3 -3291 -1 -7 -623 -9 -1848 -8 -1017 1 -1856 2 -1866 3
-16 0 -17 83 -15 1651 l3 1650 495 2 495 2 0 480 0 480 -2217 3 -2218 2 0
-484z"/>
</g>
</svg>
