<?xml version="1.0" encoding="utf-8"?>
<!-- Generator: Adobe Illustrator 22.1.0, SVG Export Plug-In . SVG Version: 6.00 Build 0)  -->
<svg version="1.1" xmlns="http://www.w3.org/2000/svg" xmlns:xlink="http://www.w3.org/1999/xlink" x="0px" y="0px" width="1920px"
	 height="1080px" viewBox="0 0 1920 1080" style="enable-background:new 0 0 1920 1080;" xml:space="preserve">
<style type="text/css">
	.encounter-perc{fill:#FFFFFF;stroke:#0033FF;stroke-miterlimit:10;}
	.st1{fill:#0033FF;}
	.st2{font-family:'IBMPlexMono';}
	.st3{font-size:14px;}
</style>
<g id="estonia-perc" class="perc-labels">
	<rect x="471.8" y="677.9" class="encounter-perc" width="40.7" height="20.5"/>
	<text transform="matrix(1 0 0 1 479.5819 693.2206)" class="perc-text text-general">50%</text>
	<rect x="632" y="796.5" class="encounter-perc" width="40.7" height="20.5"/>
	<text transform="matrix(1 0 0 1 639.7577 811.8188)" class="perc-text text-general">15%</text>
	<rect x="792.6" y="829.4" class="encounter-perc" width="40.7" height="20.5"/>
	<text transform="matrix(1 0 0 1 804.5004 844.6904)" class="perc-text text-general">5%</text>
	<rect x="952.6" y="838.5" class="encounter-perc" width="40.7" height="20.5"/>
	<text transform="matrix(1 0 0 1 964.5004 853.8002)" class="perc-text text-general">2%</text>
	<rect x="1112.8" y="755" class="encounter-perc" width="40.7" height="20.5"/>
	<text transform="matrix(1 0 0 1 1120.4907 770.3002)" class="perc-text text-general">27%</text>
</g>
<g id="italy-perc" class="perc-labels">
	<rect x="481.3" y="669.4" class="encounter-perc" width="40.7" height="20.5"/>
	<text transform="matrix(1 0 0 1 489.0707 684.7026)" class="perc-text text-general">47%</text>
	<rect x="641.6" y="769.3" class="encounter-perc" width="40.7" height="20.5"/>
	<text transform="matrix(1 0 0 1 649.3106 784.6086)" class="perc-text text-general">17%</text>
	<rect x="801.8" y="807.7" class="encounter-perc" width="40.7" height="20.5"/>
	<text transform="matrix(1 0 0 1 813.7503 822.9935)" class="perc-text text-general">6%</text>
	<rect x="961.7" y="820" class="encounter-perc" width="40.7" height="20.5"/>
	<text transform="matrix(1 0 0 1 973.6 835.3625)" class="perc-text text-general">2%</text>
	<rect x="1122.3" y="733.3" class="encounter-perc" width="40.7" height="20.5"/>
	<text transform="matrix(1 0 0 1 1130.0671 748.6034)" class="perc-text text-general">28%</text>
</g>
<g id="lituania-perc" class="perc-labels">
	<rect x="490.2" y="652.1" class="encounter-perc" width="40.7" height="20.5"/>
	<text transform="matrix(1 0 0 1 497.9873 667.4614)" class="perc-text text-general">47%</text>
	<rect x="650.5" y="755" class="encounter-perc" width="40.7" height="20.5"/>
	<text transform="matrix(1 0 0 1 658.2273 770.3009)" class="perc-text text-general">15%</text>
	<rect x="810.7" y="791" class="encounter-perc" width="40.7" height="20.5"/>
	<text transform="matrix(1 0 0 1 822.667 806.3341)" class="perc-text text-general">5%</text>
	<rect x="971" y="802.5" class="encounter-perc" width="40.7" height="20.5"/>
	<text transform="matrix(1 0 0 1 982.907 817.8289)" class="perc-text text-general">2%</text>
	<rect x="1131.2" y="717.3" class="encounter-perc" width="40.7" height="20.5"/>
	<text transform="matrix(1 0 0 1 1138.9475 732.6328)" class="perc-text text-general">27%</text>
</g>
<g id="germany-perc" class="perc-labels">
	<rect x="500.7" y="663.1" class="encounter-perc" width="40.7" height="20.5"/>
	<text transform="matrix(1 0 0 1 508.4207 678.4491)" class="perc-text text-general">37%</text>
	<rect x="660.9" y="748.8" class="encounter-perc" width="40.7" height="20.5"/>
	<text transform="matrix(1 0 0 1 668.6606 764.1329)" class="perc-text text-general">12%</text>
	<rect x="821.2" y="763.1" class="encounter-perc" width="40.7" height="20.5"/>
	<text transform="matrix(1 0 0 1 833.087 778.3831)" class="perc-text text-general">7%</text>
	<rect x="981.4" y="775.9" class="encounter-perc" width="40.7" height="20.5"/>
	<text transform="matrix(1 0 0 1 993.3403 791.2623)" class="perc-text text-general">4%</text>
	<rect x="1141.6" y="656.5" class="encounter-perc" width="40.7" height="20.5"/>
	<text transform="matrix(1 0 0 1 1149.3816 671.8455)" class="perc-text text-general">39%</text>
</g>
<g id="cypro-perc" class="perc-labels">
	<rect x="510.6" y="673.4" class="encounter-perc" width="40.7" height="20.5"/>
	<text transform="matrix(1 0 0 1 518.3207 688.6979)" class="perc-text text-general">55%</text>
	<rect x="670.6" y="741.6" class="encounter-perc" width="40.7" height="20.5"/>
	<text transform="matrix(1 0 0 1 678.3036 756.8996)" class="perc-text text-general">15%</text>
	<rect x="831.7" y="758.6" class="encounter-perc" width="40.7" height="20.5"/>
	<text transform="matrix(1 0 0 1 843.587 773.8842)" class="perc-text text-general">5%</text>
	<rect x="991.3" y="764.9" class="encounter-perc" width="40.7" height="20.5"/>
	<text transform="matrix(1 0 0 1 1003.2403 780.2623)" class="perc-text text-general">2%</text>
	<rect x="1151.5" y="728.8" class="encounter-perc" width="40.7" height="20.5"/>
	<text transform="matrix(1 0 0 1 1159.281 744.1354)" class="perc-text text-general">23%</text>
</g>
<g id="hungary-perc" class="perc-labels">
	<rect x="520.2" y="577.6" class="encounter-perc" width="40.7" height="20.5"/>
	<text transform="matrix(1 0 0 1 527.9206 592.9516)" class="perc-text text-general">51%</text>
	<rect x="680.4" y="673.4" class="encounter-perc" width="40.7" height="20.5"/>
	<text transform="matrix(1 0 0 1 688.1605 688.6841)" class="perc-text text-general">22%</text>
	<rect x="840.7" y="724.2" class="encounter-perc" width="40.7" height="20.5"/>
	<text transform="matrix(1 0 0 1 852.6003 739.5644)" class="perc-text text-general">7%</text>
	<rect x="1000.9" y="740.8" class="encounter-perc" width="40.7" height="20.5"/>
	<text transform="matrix(1 0 0 1 1012.8403 756.0966)" class="perc-text text-general">2%</text>
	<rect x="1161.1" y="689.3" class="encounter-perc" width="40.7" height="20.5"/>
	<text transform="matrix(1 0 0 1 1168.881 704.6379)" class="perc-text text-general">17%</text>
</g>
<g id="luxemburg-perc" class="perc-labels">
	<rect x="528.9" y="662.2" class="encounter-perc" width="40.7" height="20.5"/>
	<text transform="matrix(1 0 0 1 536.6539 677.5082)" class="perc-text text-general">39%</text>
	<rect x="689.2" y="692.5" class="encounter-perc" width="40.7" height="20.5"/>
	<text transform="matrix(1 0 0 1 696.8938 707.8403)" class="perc-text text-general">22%</text>
	<rect x="849.4" y="714.9" class="encounter-perc" width="40.7" height="20.5"/>
	<text transform="matrix(1 0 0 1 861.3337 730.2507)" class="perc-text text-general">8%</text>
	<rect x="1009.6" y="721.8" class="encounter-perc" width="40.7" height="20.5"/>
	<text transform="matrix(1 0 0 1 1021.5736 737.0966)" class="perc-text text-general">4%</text>
	<rect x="1169.9" y="682.7" class="encounter-perc" width="40.7" height="20.5"/>
	<text transform="matrix(1 0 0 1 1177.6144 698.0129)" class="perc-text text-general">27%</text>
</g>
<g id="austria-perc" class="perc-labels">
	<rect x="539.5" y="585.7" class="encounter-perc" width="40.7" height="20.5"/>
	<text transform="matrix(1 0 0 1 547.2205 601.0082)" class="perc-text text-general">37%</text>
	<rect x="699.2" y="659.6" class="encounter-perc" width="40.7" height="20.5"/>
	<text transform="matrix(1 0 0 1 706.8939 674.9515)" class="perc-text text-general">15%</text>
	<rect x="859.8" y="677.3" class="encounter-perc" width="40.7" height="20.5"/>
	<text transform="matrix(1 0 0 1 871.7003 692.6094)" class="perc-text text-general">9%</text>
	<rect x="1020.2" y="693.8" class="encounter-perc" width="40.7" height="20.5"/>
	<text transform="matrix(1 0 0 1 1032.1401 709.0966)" class="perc-text text-general">5%</text>
	<rect x="1180.4" y="596.4" class="encounter-perc" width="40.7" height="20.5"/>
	<text transform="matrix(1 0 0 1 1188.1809 611.733)" class="perc-text text-general">33%</text>
</g>
<g id="ireland-perc" class="perc-labels">
	<rect x="549.1" y="527.3" class="encounter-perc" width="40.7" height="20.5"/>
	<text transform="matrix(1 0 0 1 556.8206 542.6353)" class="perc-text text-general">49%</text>
	<rect x="709.3" y="636.2" class="encounter-perc" width="40.7" height="20.5"/>
	<text transform="matrix(1 0 0 1 717.0604 651.5369)" class="perc-text text-general">16%</text>
	<rect x="869.6" y="666" class="encounter-perc" width="40.7" height="20.5"/>
	<text transform="matrix(1 0 0 1 881.5004 681.3594)" class="perc-text text-general">7%</text>
	<rect x="1029.8" y="680.6" class="encounter-perc" width="40.7" height="20.5"/>
	<text transform="matrix(1 0 0 1 1041.7402 695.8842)" class="perc-text text-general">3%</text>
	<rect x="1190" y="606.4" class="encounter-perc" width="40.7" height="20.5"/>
	<text transform="matrix(1 0 0 1 1197.781 621.733)" class="perc-text text-general">25%</text>
</g>
<g id="france-perc" class="perc-labels">
	<rect x="558.7" y="544.2" class="encounter-perc" width="40.7" height="20.5"/>
	<text transform="matrix(1 0 0 1 566.4206 559.4841)" class="perc-text text-general">38%</text>
	<rect x="718.9" y="636.5" class="encounter-perc" width="40.7" height="20.5"/>
	<text transform="matrix(1 0 0 1 726.6605 651.8702)" class="perc-text text-general">10%</text>
	<rect x="879" y="639.7" class="encounter-perc" width="40.7" height="20.5"/>
	<text transform="matrix(1 0 0 1 890.9004 655.0666)" class="perc-text text-general">9%</text>
	<rect x="1039.4" y="647.2" class="encounter-perc" width="40.7" height="20.5"/>
	<text transform="matrix(1 0 0 1 1051.3402 662.5508)" class="perc-text text-general">7%</text>
	<rect x="1199.2" y="548.7" class="encounter-perc" width="40.7" height="20.5"/>
	<text transform="matrix(1 0 0 1 1206.9443 564.0652)" class="perc-text text-general">36%</text>
</g>
<g id="united-kingdom-perc" class="perc-labels">
	<rect x="568.7" y="490.8" class="encounter-perc" width="40.7" height="20.5"/>
	<text transform="matrix(1 0 0 1 576.4456 506.1353)" class="perc-text text-general">48%</text>
	<rect x="728.9" y="602.1" class="encounter-perc" width="40.7" height="20.5"/>
	<text transform="matrix(1 0 0 1 736.6854 617.4227)" class="perc-text text-general">14%</text>
	<rect x="889.2" y="628.5" class="encounter-perc" width="40.7" height="20.5"/>
	<text transform="matrix(1 0 0 1 901.1254 643.8166)" class="perc-text text-general">7%</text>
	<rect x="1049.4" y="644.5" class="encounter-perc" width="40.7" height="20.5"/>
	<text transform="matrix(1 0 0 1 1061.3652 659.8008)" class="perc-text text-general">2%</text>
	<rect x="1209.7" y="553.8" class="encounter-perc" width="40.7" height="20.5"/>
	<text transform="matrix(1 0 0 1 1217.406 569.142)" class="perc-text text-general">29%</text>
</g>
<g id="sweden-perc" class="perc-labels">
	<rect x="577.3" y="432.1" class="encounter-perc" width="40.7" height="20.5"/>
	<text transform="matrix(1 0 0 1 584.9874 447.4353)" class="perc-text text-general">60%</text>
	<rect x="737.5" y="587" class="encounter-perc" width="40.7" height="20.5"/>
	<text transform="matrix(1 0 0 1 745.2271 602.2977)" class="perc-text text-general">13%</text>
	<rect x="898.3" y="613.7" class="encounter-perc" width="40.7" height="20.5"/>
	<text transform="matrix(1 0 0 1 910.2007 629.0048)" class="perc-text text-general">5%</text>
	<rect x="1058" y="623" class="encounter-perc" width="40.7" height="20.5"/>
	<text transform="matrix(1 0 0 1 1069.9069 638.3029)" class="perc-text text-general">2%</text>
	<rect x="1218.2" y="568.7" class="encounter-perc" width="40.7" height="20.5"/>
	<text transform="matrix(1 0 0 1 1225.9482 584.0663)" class="perc-text text-general">19%</text>
</g>
<g id="belgium-perc" class="perc-labels">
	<rect x="587.6" y="450.5" class="encounter-perc" width="40.7" height="20.5"/>
	<text transform="matrix(1 0 0 1 595.3206 465.8353)" class="perc-text text-general">48%</text>
	<rect x="747.8" y="562.5" class="encounter-perc" width="40.7" height="20.5"/>
	<text transform="matrix(1 0 0 1 755.5604 577.7977)" class="perc-text text-general">15%</text>
	<rect x="908.1" y="589.5" class="encounter-perc" width="40.7" height="20.5"/>
	<text transform="matrix(1 0 0 1 920.0004 604.8402)" class="perc-text text-general">7%</text>
	<rect x="1068.3" y="600.7" class="encounter-perc" width="40.7" height="20.5"/>
	<text transform="matrix(1 0 0 1 1080.2402 616.0529)" class="perc-text text-general">3%</text>
	<rect x="1228.5" y="522.1" class="encounter-perc" width="40.7" height="20.5"/>
	<text transform="matrix(1 0 0 1 1236.2816 537.4672)" class="perc-text text-general">27%</text>
</g>
<g id="latvia-perc" class="perc-labels">
	<rect x="597.3" y="435.5" class="encounter-perc" width="40.7" height="20.5"/>
	<text transform="matrix(1 0 0 1 605.0205 450.8353)" class="perc-text text-general">47%</text>
	<rect x="757.5" y="536.3" class="encounter-perc" width="40.7" height="20.5"/>
	<text transform="matrix(1 0 0 1 765.2604 551.631)" class="perc-text text-general">17%</text>
	<rect x="917.8" y="567.3" class="encounter-perc" width="40.7" height="20.5"/>
	<text transform="matrix(1 0 0 1 929.7003 582.6736)" class="perc-text text-general">7%</text>
	<rect x="1078" y="578.7" class="encounter-perc" width="40.7" height="20.5"/>
	<text transform="matrix(1 0 0 1 1089.9403 594.0757)" class="perc-text text-general">4%</text>
	<rect x="1238.2" y="509.3" class="encounter-perc" width="40.7" height="20.5"/>
	<text transform="matrix(1 0 0 1 1245.981 524.5842)" class="perc-text text-general">24%</text>
</g>
<g id="spain-perc" class="perc-labels">
	<rect x="606.8" y="412.5" class="encounter-perc" width="40.7" height="20.5"/>
	<text transform="matrix(1 0 0 1 614.5706 427.8353)" class="perc-text text-general">48%</text>
	<rect x="767.5" y="517.3" class="encounter-perc" width="40.7" height="20.5"/>
	<text transform="matrix(1 0 0 1 775.2604 532.631)" class="perc-text text-general">16%</text>
	<rect x="927.2" y="547.3" class="encounter-perc" width="40.7" height="20.5"/>
	<text transform="matrix(1 0 0 1 939.1004 562.6599)" class="perc-text text-general">8%</text>
	<rect x="1087.6" y="561.2" class="encounter-perc" width="40.7" height="20.5"/>
	<text transform="matrix(1 0 0 1 1099.4902 576.5757)" class="perc-text text-general">3%</text>
	<rect x="1247.8" y="487.8" class="encounter-perc" width="40.7" height="20.5"/>
	<text transform="matrix(1 0 0 1 1255.531 503.0842)" class="perc-text text-general">25%</text>
</g>
<g id="slovenia-perc" class="perc-labels">
	<rect x="616.5" y="419.4" class="encounter-perc" width="40.7" height="20.5"/>
	<text transform="matrix(1 0 0 1 624.2205 434.7354)" class="perc-text text-general">40%</text>
	<rect x="776.7" y="501.4" class="encounter-perc" width="40.7" height="20.5"/>
	<text transform="matrix(1 0 0 1 784.4604 516.7143)" class="perc-text text-general">16%</text>
	<rect x="936.8" y="532.3" class="encounter-perc" width="40.7" height="20.5"/>
	<text transform="matrix(1 0 0 1 948.7003 547.6599)" class="perc-text text-general">6%</text>
	<rect x="1097.2" y="544.2" class="encounter-perc" width="40.7" height="20.5"/>
	<text transform="matrix(1 0 0 1 1109.1401 559.4842)" class="perc-text text-general">3%</text>
	<rect x="1257.4" y="436.8" class="encounter-perc" width="40.7" height="20.5"/>
	<text transform="matrix(1 0 0 1 1265.1809 452.0844)" class="perc-text text-general">35%</text>
</g>
<g id="netherlands-perc" class="perc-labels">
	<rect x="625.7" y="354" class="encounter-perc" width="40.7" height="20.5"/>
	<text transform="matrix(1 0 0 1 633.4456 369.3353)" class="perc-text text-general">53%</text>
	<rect x="785.9" y="476.5" class="encounter-perc" width="40.7" height="20.5"/>
	<text transform="matrix(1 0 0 1 793.6855 491.8329)" class="perc-text text-general">17%</text>
	<rect x="946.2" y="512.2" class="encounter-perc" width="40.7" height="20.5"/>
	<text transform="matrix(1 0 0 1 958.1254 527.5817)" class="perc-text text-general">6%</text>
	<rect x="1106.4" y="521" class="encounter-perc" width="40.7" height="20.5"/>
	<text transform="matrix(1 0 0 1 1118.3652 536.3329)" class="perc-text text-general">4%</text>
	<rect x="1266.7" y="469.1" class="encounter-perc" width="40.7" height="20.5"/>
	<text transform="matrix(1 0 0 1 1274.406 484.4594)" class="perc-text text-general">20%</text>
</g>
<g id="greece-perc" class="perc-labels">
	<rect x="635.8" y="367" class="encounter-perc" width="40.7" height="20.5"/>
	<text transform="matrix(1 0 0 1 643.5205 382.3066)" class="perc-text text-general">44%</text>
	<rect x="796.4" y="454.3" class="encounter-perc" width="40.7" height="20.5"/>
	<text transform="matrix(1 0 0 1 804.1854 469.5849)" class="perc-text text-general">18%</text>
	<rect x="956.1" y="490.6" class="encounter-perc" width="40.7" height="20.5"/>
	<text transform="matrix(1 0 0 1 968.0003 505.9172)" class="perc-text text-general">7%</text>
	<rect x="1116.5" y="505.2" class="encounter-perc" width="40.7" height="20.5"/>
	<text transform="matrix(1 0 0 1 1128.4402 520.4842)" class="perc-text text-general">3%</text>
	<rect x="1276.7" y="423.6" class="encounter-perc" width="40.7" height="20.5"/>
	<text transform="matrix(1 0 0 1 1284.481 438.9594)" class="perc-text text-general">27%</text>
</g>
<g id="finland-perc" class="perc-labels">
	<rect x="645.4" y="317.9" class="encounter-perc" width="40.7" height="20.5"/>
	<text transform="matrix(1 0 0 1 653.1206 333.2354)" class="perc-text text-general">53%</text>
	<rect x="805.6" y="454.1" class="encounter-perc" width="40.7" height="20.5"/>
	<text transform="matrix(1 0 0 1 813.3605 469.4178)" class="perc-text text-general">12%</text>
	<rect x="965.9" y="476.1" class="encounter-perc" width="40.7" height="20.5"/>
	<text transform="matrix(1 0 0 1 977.8005 491.4172)" class="perc-text text-general">5%</text>
	<rect x="1126.1" y="479" class="encounter-perc" width="40.7" height="20.5"/>
	<text transform="matrix(1 0 0 1 1138.0403 494.3592)" class="perc-text text-general">5%</text>
	<rect x="1286.3" y="414.3" class="encounter-perc" width="40.7" height="20.5"/>
	<text transform="matrix(1 0 0 1 1294.0817 429.6261)" class="perc-text text-general">24%</text>
</g>
<g id="portugal-perc" class="perc-labels">
	<rect x="654.9" y="317.5" class="encounter-perc" width="40.7" height="20.5"/>
	<text transform="matrix(1 0 0 1 662.6206 332.8353)" class="perc-text text-general">47%</text>
	<rect x="815.1" y="419.3" class="encounter-perc" width="40.7" height="20.5"/>
	<text transform="matrix(1 0 0 1 822.8605 434.6579)" class="perc-text text-general">17%</text>
	<rect x="975.4" y="457.1" class="encounter-perc" width="40.7" height="20.5"/>
	<text transform="matrix(1 0 0 1 987.3003 472.4172)" class="perc-text text-general">5%</text>
	<rect x="1136.4" y="466.3" class="encounter-perc" width="40.7" height="20.5"/>
	<text transform="matrix(1 0 0 1 1148.3737 481.5842)" class="perc-text text-general">3%</text>
	<rect x="1295.8" y="383.7" class="encounter-perc" width="40.7" height="20.5"/>
	<text transform="matrix(1 0 0 1 1303.5809 398.9849)" class="perc-text text-general">28%</text>
</g>
<g id="romania-perc_1_" class="perc-labels">
	<rect x="663.9" y="301.4" class="encounter-perc" width="40.7" height="20.5"/>
	<text transform="matrix(1 0 0 1 671.6539 316.7352)" class="perc-text text-general">46%</text>
	<rect x="824.2" y="395.2" class="encounter-perc" width="40.7" height="20.5"/>
	<text transform="matrix(1 0 0 1 831.8938 410.4932)" class="perc-text text-general">18%</text>
	<rect x="984.4" y="427.8" class="encounter-perc" width="40.7" height="20.5"/>
	<text transform="matrix(1 0 0 1 996.3336 443.1684)" class="perc-text text-general">8%</text>
	<rect x="1144.6" y="447.3" class="encounter-perc" width="40.7" height="20.5"/>
	<text transform="matrix(1 0 0 1 1156.5736 462.5842)" class="perc-text text-general">3%</text>
	<rect x="1304.9" y="375.3" class="encounter-perc" width="40.7" height="20.5"/>
	<text transform="matrix(1 0 0 1 1312.6147 390.5925)" class="perc-text text-general">24%</text>
</g>
<g id="croatia-perc" class="perc-labels">
	<rect x="674.3" y="270.9" class="encounter-perc" width="40.7" height="20.5"/>
	<text transform="matrix(1 0 0 1 682.0206 286.2091)" class="perc-text text-general">50%</text>
	<rect x="835" y="388.3" class="encounter-perc" width="40.7" height="20.5"/>
	<text transform="matrix(1 0 0 1 842.7688 403.5841)" class="perc-text text-general">14%</text>
	<rect x="994.8" y="412.3" class="encounter-perc" width="40.7" height="20.5"/>
	<text transform="matrix(1 0 0 1 1006.7002 427.6685)" class="perc-text text-general">7%</text>
	<rect x="1155" y="430.4" class="encounter-perc" width="40.7" height="20.5"/>
	<text transform="matrix(1 0 0 1 1166.9402 445.7092)" class="perc-text text-general">2%</text>
	<rect x="1315.2" y="347" class="encounter-perc" width="40.7" height="20.5"/>
	<text transform="matrix(1 0 0 1 1322.9808 362.2937)" class="perc-text text-general">27%</text>
</g>
<g id="slovakia-perc" class="perc-labels">
	<rect x="684" y="262.2" class="encounter-perc" width="40.7" height="20.5"/>
	<text transform="matrix(1 0 0 1 691.7208 277.5228)" class="perc-text text-general">46%</text>
	<rect x="844.2" y="368.5" class="encounter-perc" width="40.7" height="20.5"/>
	<text transform="matrix(1 0 0 1 851.9604 383.816)" class="perc-text text-general">15%</text>
	<rect x="1004.5" y="387.5" class="encounter-perc" width="40.7" height="20.5"/>
	<text transform="matrix(1 0 0 1 1016.4001 402.8162)" class="perc-text text-general">9%</text>
	<rect x="1164.7" y="403.6" class="encounter-perc" width="40.7" height="20.5"/>
	<text transform="matrix(1 0 0 1 1176.6401 418.9171)" class="perc-text text-general">4%</text>
	<rect x="1324.9" y="329.8" class="encounter-perc" width="40.7" height="20.5"/>
	<text transform="matrix(1 0 0 1 1332.6808 345.0842)" class="perc-text text-general">26%</text>
</g>
<g id="denmark-perc" class="perc-labels">
	<rect x="693.6" y="189" class="encounter-perc" width="40.7" height="20.5"/>
	<text transform="matrix(1 0 0 1 701.3206 204.3354)" class="perc-text text-general">63%</text>
	<rect x="853.8" y="355.7" class="encounter-perc" width="40.7" height="20.5"/>
	<text transform="matrix(1 0 0 1 861.5605 371.0424)" class="perc-text text-general">12%</text>
	<rect x="1013.9" y="379" class="encounter-perc" width="40.7" height="20.5"/>
	<text transform="matrix(1 0 0 1 1025.8003 394.3331)" class="perc-text text-general">5%</text>
	<rect x="1174.3" y="390.3" class="encounter-perc" width="40.7" height="20.5"/>
	<text transform="matrix(1 0 0 1 1186.2402 405.5842)" class="perc-text text-general">2%</text>
	<rect x="1334.5" y="339.2" class="encounter-perc" width="40.7" height="20.5"/>
	<text transform="matrix(1 0 0 1 1342.2809 354.5361)" class="perc-text text-general">18%</text>
</g>
<g id="poland-perc" class="perc-labels">
	<rect x="702.4" y="260" class="encounter-perc" width="40.7" height="20.5"/>
	<text transform="matrix(1 0 0 1 710.1539 275.3354)" class="perc-text text-general">35%</text>
	<rect x="862.7" y="323.8" class="encounter-perc" width="40.7" height="20.5"/>
	<text transform="matrix(1 0 0 1 870.3938 339.1226)" class="perc-text text-general">17%</text>
	<rect x="1022.4" y="336.7" class="encounter-perc" width="40.7" height="20.5"/>
	<text transform="matrix(1 0 0 1 1030.1638 352.0425)" class="perc-text text-general">12%</text>
	<rect x="1183.1" y="354.8" class="encounter-perc" width="40.7" height="20.5"/>
	<text transform="matrix(1 0 0 1 1195.0736 370.1685)" class="perc-text text-general">7%</text>
	<rect x="1343.4" y="279.7" class="encounter-perc" width="40.7" height="20.5"/>
	<text transform="matrix(1 0 0 1 1351.1143 295.0361)" class="perc-text text-general">29%</text>
</g>
<g id="bulgary-perc" class="perc-labels">
	<rect x="712.9" y="192.2" class="encounter-perc" width="40.7" height="20.5"/>
	<text transform="matrix(1 0 0 1 720.6207 207.5353)" class="perc-text text-general">50%</text>
	<rect x="873.1" y="298.8" class="encounter-perc" width="40.7" height="20.5"/>
	<text transform="matrix(1 0 0 1 880.8605 314.1226)" class="perc-text text-general">18%</text>
	<rect x="1033.4" y="335.5" class="encounter-perc" width="40.7" height="20.5"/>
	<text transform="matrix(1 0 0 1 1045.3003 350.795)" class="perc-text text-general">7%</text>
	<rect x="1192.9" y="348.5" class="encounter-perc" width="40.7" height="20.5"/>
	<text transform="matrix(1 0 0 1 1204.8236 363.7967)" class="perc-text text-general">3%</text>
	<rect x="1353.8" y="287.2" class="encounter-perc" width="40.7" height="20.5"/>
	<text transform="matrix(1 0 0 1 1361.5809 302.5432)" class="perc-text text-general">21%</text>
</g>
<g id="czech-republic-perc" class="perc-labels">
	<rect x="722.2" y="208.4" class="encounter-perc" width="40.7" height="20.5"/>
	<text transform="matrix(1 0 0 1 729.9406 223.7354)" class="perc-text text-general">39%</text>
	<rect x="882.4" y="285.5" class="encounter-perc" width="40.7" height="20.5"/>
	<text transform="matrix(1 0 0 1 890.1805 300.8328)" class="perc-text text-general">16%</text>
	<rect x="1042.8" y="306.2" class="encounter-perc" width="40.7" height="20.5"/>
	<text transform="matrix(1 0 0 1 1054.7002 321.5462)" class="perc-text text-general">9%</text>
	<rect x="1204.1" y="324.2" class="encounter-perc" width="40.7" height="20.5"/>
	<text transform="matrix(1 0 0 1 1216.0737 339.5354)" class="perc-text text-general">4%</text>
	<rect x="1362.6" y="235.7" class="encounter-perc" width="40.7" height="20.5"/>
	<text transform="matrix(1 0 0 1 1370.3309 251.0432)" class="perc-text text-general">31%</text>
</g>
<g id="malta-perc" class="perc-labels">
	<rect x="732.1" y="209.9" class="encounter-perc" width="40.7" height="20.5"/>
	<text transform="matrix(1 0 0 1 739.8206 225.2329)" class="perc-text text-general">63%</text>
	<rect x="892.3" y="294.6" class="encounter-perc" width="40.7" height="20.5"/>
	<text transform="matrix(1 0 0 1 900.0605 309.9578)" class="perc-text text-general">14%</text>
	<rect x="1052.6" y="313.8" class="encounter-perc" width="40.7" height="20.5"/>
	<text transform="matrix(1 0 0 1 1064.5002 329.1712)" class="perc-text text-general">3%</text>
	<rect x="1212.8" y="316.7" class="encounter-perc" width="40.7" height="20.5"/>
	<text transform="matrix(1 0 0 1 1224.7402 332.0688)" class="perc-text text-general">2%</text>
	<rect x="1373" y="287.2" class="encounter-perc" width="40.7" height="20.5"/>
	<text transform="matrix(1 0 0 1 1380.7809 302.5432)" class="perc-text text-general">18%</text>
</g>
</svg>
