<?xml version="1.0" encoding="utf-8"?>
<!-- Generator: Adobe Illustrator 22.1.0, SVG Export Plug-In . SVG Version: 6.00 Build 0)  -->
<svg version="1.1" xmlns="http://www.w3.org/2000/svg" xmlns:xlink="http://www.w3.org/1999/xlink" x="0px" y="0px"
	 viewBox="0 0 1920 1080" style="enable-background:new 0 0 1920 1080;" xml:space="preserve">
<style type="text/css">
	.st0{fill:#0F0F0F;}
	.st1{fill:none;stroke:#FFFFFF;stroke-width:0.25;stroke-miterlimit:10;}
	.st2{fill:none;stroke:#FFFFFF;stroke-width:1.5;stroke-miterlimit:10;}
	.st3{fill:none;stroke:#FFFFFF;stroke-width:1.5;stroke-miterlimit:10;stroke-dasharray:11.9548,11.9548;}
	.st4{fill:#0F0F0F;stroke:#FFFFFF;stroke-width:1.5;stroke-miterlimit:10;}
	.st5{fill:#FFFFFF;}
	.st6{fill:#5A6467;}
	.st7{fill:#FFFFFF;stroke:#000000;stroke-width:0.1297;stroke-miterlimit:10;}
	.st8{fill:#FFFFFF;stroke:#000000;stroke-width:9.726130e-02;stroke-miterlimit:10;}
	.st9{fill:#78909A;}
	.st10{fill:#E8AC49;}
	.st11{display:none;}
	.st12{display:inline;}
	.st13{fill:#ECB035;}
	.st14{fill:#FFFFFF;stroke:#000000;stroke-width:0.1358;stroke-linejoin:round;stroke-miterlimit:10;}
	.st15{fill:#FFFFFF;stroke:#000000;stroke-width:0.4491;stroke-miterlimit:10;}
	.st16{fill:none;}
	.st17{font-family:'AktivGrotesk-Bold';}
	.st18{font-size:18px;}
	.st19{fill:#FFFFFF;stroke:#000000;stroke-width:0.45;stroke-linejoin:round;stroke-miterlimit:10;}
	.st20{fill:#FFFFFF;stroke:#000000;stroke-width:0.45;stroke-miterlimit:10;}
	.st21{fill:#76929C;}
	.st22{fill:#FFFFFF;stroke:#000000;stroke-width:0.4491;stroke-linejoin:round;stroke-miterlimit:10;}
	.st23{fill:#FFFFFF;stroke:#000000;stroke-width:0.3312;stroke-linejoin:round;stroke-miterlimit:10;}
	.st24{display:inline;opacity:0.5;}
	.st25{display:inline;opacity:0.25;}
	.st26{display:inline;opacity:0.125;}
	.st27{display:inline;opacity:0.8;}
	.st28{display:inline;fill:url(#SVGID_1_);}
	.st29{display:inline;fill:url(#SVGID_2_);}
	.st30{fill:#FFFFFF;stroke:#000000;stroke-width:0.6027;stroke-linejoin:round;stroke-miterlimit:10;}
	.st31{fill:#FFFFFF;stroke:#000000;stroke-width:0.762;stroke-linejoin:round;stroke-miterlimit:10;}
	.st32{fill:none;stroke:#000000;stroke-width:0.25;stroke-miterlimit:10;}
	.st33{fill:none;stroke:#FFFFFF;stroke-width:3;stroke-miterlimit:10;}
	.st34{fill:#FFFFFF;stroke:#FFFFFF;stroke-width:2.7553;stroke-miterlimit:10;}
	.st35{fill:#FFFFFF;stroke:#FFFFFF;stroke-width:1.0227;stroke-miterlimit:10;}
	.st36{fill:none;stroke:#FFFFFF;stroke-width:1.0227;stroke-miterlimit:10;}
</style>
<g id="Background">
	<rect class="st0" width="1920" height="1080"/>
</g>
<g id="Grid">
	<g>
		<rect class="st1" width="1920" height="1080"/>
		<line class="st1" x1="0" y1="900" x2="1920" y2="900"/>
		<line class="st1" x1="0" y1="720" x2="1920" y2="720"/>
		<line class="st1" x1="0" y1="540" x2="1920" y2="540"/>
		<line class="st1" x1="0" y1="360" x2="1920" y2="360"/>
		<line class="st1" x1="0" y1="180" x2="1920" y2="180"/>
		<line class="st1" x1="1760" y1="0" x2="1760" y2="1080"/>
		<line class="st1" x1="1600" y1="0" x2="1600" y2="1080"/>
		<line class="st1" x1="1440" y1="0" x2="1440" y2="1080"/>
		<line class="st1" x1="1280" y1="0" x2="1280" y2="1080"/>
		<line class="st1" x1="1120" y1="0" x2="1120" y2="1080"/>
		<line class="st1" x1="960" y1="0" x2="960" y2="1080"/>
		<line class="st1" x1="800" y1="0" x2="800" y2="1080"/>
		<line class="st1" x1="640" y1="0" x2="640" y2="1080"/>
		<line class="st1" x1="480" y1="0" x2="480" y2="1080"/>
		<line class="st1" x1="320" y1="0" x2="320" y2="1080"/>
		<line class="st1" x1="160" y1="0" x2="160" y2="1080"/>
	</g>
</g>
<g id="Orbit">
	<path class="st2" d="M160,720C192,197,947,90,1920,90"/>
	<g>
		<g>
			<path class="st2" d="M640,223.5c1.9-0.5,3.8-1.1,5.8-1.6"/>
			<path class="st3" d="M657.3,218.7C750.2,193.9,852.2,180,960,180c433.5,0,698.5,173,794.4,349.4"/>
			<path class="st2" d="M1757.3,534.7c0.9,1.8,1.8,3.6,2.7,5.3"/>
		</g>
	</g>
</g>
<g id="Buttons">
	<circle class="st4" cx="160" cy="720.1" r="10"/>
	<circle class="st4" cx="1760" cy="540" r="10"/>
	<circle class="st5" cx="320" cy="393" r="10"/>
	<circle class="st5" cx="640" cy="223.8" r="10"/>
	<circle class="st5" cx="960" cy="180" r="10"/>
	<circle class="st5" cx="1280" cy="111.4" r="10"/>
	<circle class="st5" cx="1760" cy="91.4" r="10"/>
	<circle class="st5" cx="1600" cy="360" r="10"/>
	<circle class="st5" cx="1440" cy="268.4" r="10"/>
	<circle class="st5" cx="1280" cy="215.7" r="10"/>
</g>
<g id="Launch">
	<g>
		<path class="st6" d="M212.9,900c0,0,5.8-17.9-10.2-23c0,0-8-2.2-13.9,3.6c0,0-3.6-3.6-8-1.4c0,0-4.4-11.6-17.5-12.3l-2.2-18.1
			h-2.2l-2.2,18.1c-13.1,0.7-17.5,12.3-17.5,12.3c-4.4-2.2-8,1.4-8,1.4c-5.8-5.8-13.9-3.6-13.9-3.6c-16,5.1-10.2,23-10.2,23H212.9z"
			/>
		<rect x="120.5" y="886.7" class="st7" width="79.8" height="13.3"/>
		<g>
			<g>
				<path class="st8" d="M146.4,884.2l-0.7-23.8h-0.9l-0.7,23.8l-0.6,0l0.7-24.1c0-0.1,0.1-0.3,0.3-0.3h1.5c0.1,0,0.3,0.1,0.3,0.3
					l0.7,24.1L146.4,884.2z"/>
			</g>
			<g>
				<polygon class="st8" points="143.9,884.4 143.6,883.9 146.5,881.7 146.8,882.2 				"/>
			</g>
			<g>
				<polygon class="st8" points="144.1,879.7 143.7,879.3 146.3,877.3 146.7,877.7 				"/>
			</g>
			<g>
				<polygon class="st8" points="144.2,876.7 143.8,876.2 146.2,874.4 146.6,874.8 				"/>
			</g>
			<g>
				<polygon class="st8" points="144.2,873.6 143.9,873.1 146.2,871.4 146.5,871.9 				"/>
			</g>
			<g>
				<polygon class="st8" points="144.3,870.5 144,870 146.1,868.5 146.4,868.9 				"/>
			</g>
			<g>
				<polygon class="st8" points="144.5,866.6 144.1,866.2 145.9,864.8 146.3,865.2 				"/>
			</g>
			<g>
				<polygon class="st8" points="144.6,863.5 144.2,863.1 145.9,861.8 146.2,862.3 				"/>
			</g>
			<g>
				<rect x="145" y="849.5" class="st8" width="0.6" height="10.5"/>
			</g>
		</g>
		<g>
			<g>
				<path class="st8" d="M176.1,884.2l-0.7-23.8h-0.9l-0.7,23.8l-0.6,0l0.7-24.1c0-0.1,0.1-0.3,0.3-0.3h1.5c0.1,0,0.3,0.1,0.3,0.3
					l0.7,24.1L176.1,884.2z"/>
			</g>
			<g>
				<polygon class="st8" points="173.6,884.4 173.2,883.9 176.1,881.7 176.5,882.2 				"/>
			</g>
			<g>
				<polygon class="st8" points="173.7,879.7 173.4,879.3 176,877.3 176.3,877.7 				"/>
			</g>
			<g>
				<polygon class="st8" points="173.8,876.7 173.5,876.2 175.9,874.4 176.2,874.8 				"/>
			</g>
			<g>
				<polygon class="st8" points="173.9,873.6 173.6,873.1 175.8,871.4 176.2,871.9 				"/>
			</g>
			<g>
				<polygon class="st8" points="174,870.5 173.7,870 175.7,868.5 176.1,868.9 				"/>
			</g>
			<g>
				<polygon class="st8" points="174.1,866.6 173.8,866.2 175.6,864.8 176,865.2 				"/>
			</g>
			<g>
				<polygon class="st8" points="174.2,863.5 173.9,863.1 175.5,861.8 175.9,862.3 				"/>
			</g>
			<g>
				<rect x="174.6" y="849.5" class="st8" width="0.6" height="10.5"/>
			</g>
		</g>
		<rect x="120.5" y="883.8" class="st7" width="79.8" height="2.2"/>
		<rect x="158.2" y="796.9" class="st9" width="3.9" height="5.1"/>
		<rect x="158.4" y="822.5" class="st9" width="3.2" height="22.2"/>
		<path class="st9" d="M158.7,845.4c0,0-0.6,1.6-0.5,2.6c0.1,1,3.8,0.8,3.9,0.4s-0.4-2.3-0.4-2.3s0-0.8-0.4-0.9
			c-0.4-0.1-2.2-0.3-2.3-0.1C158.8,845.1,158.7,845.4,158.7,845.4z"/>
		<path class="st10" d="M160.1,857.5c2.7-6.6,2.1-7.5,2.2-8.8s-2.2-2.2-2.2-2.2h0c0,0-2.3,0.9-2.2,2.2S157.4,850.9,160.1,857.5
			L160.1,857.5z"/>
		<g>
			<path class="st5" d="M158.1,823.2c-0.1,0-0.2-0.1-0.2-0.2v-22.9c0-0.1,0.1-0.2,0.1-0.2l0.9-0.1c0.1,0,0.3-0.1,0.3-0.3V798
				c0-0.2-0.1-0.3-0.3-0.3h-0.8c-0.1,0-0.2-0.1-0.2-0.2v-16.8c0-0.1,0.1-0.2,0.2-0.2h4.1c0.1,0,0.2,0.1,0.2,0.2v16.8
				c0,0.1-0.1,0.2-0.2,0.2h-0.8c-0.2,0-0.3,0.1-0.3,0.3v1.6c0,0.2,0.1,0.3,0.3,0.3l0.9,0c0.1,0,0.2,0.1,0.2,0.2v23
				c0,0.1-0.1,0.2-0.2,0.2H158.1z"/>
			<path d="M162.1,780.6C162.2,780.6,162.2,780.7,162.1,780.6l0.1,16.9c0,0.1,0,0.1-0.1,0.1h-0.8c-0.2,0-0.4,0.2-0.4,0.4v1.6
				c0,0.2,0.1,0.3,0.3,0.4l0.9,0c0.1,0,0.1,0,0.1,0.1v23c0,0.1,0,0.1-0.1,0.1h-4.1c-0.1,0-0.1,0-0.1-0.1v-22.9c0,0,0-0.1,0.1-0.1
				l0.9-0.1c0.2,0,0.3-0.2,0.3-0.4V798c0-0.2-0.2-0.4-0.4-0.4h-0.8c-0.1,0-0.1,0-0.1-0.1v-16.8c0-0.1,0-0.1,0.1-0.1H162.1
				 M162.1,780.5h-4.1c-0.1,0-0.2,0.1-0.2,0.2v16.8c0,0.1,0.1,0.2,0.2,0.2h0.8c0.1,0,0.2,0.1,0.2,0.2v1.6c0,0.1-0.1,0.2-0.2,0.2
				l-0.9,0.1c-0.1,0-0.2,0.1-0.2,0.2v22.9c0,0.1,0.1,0.2,0.2,0.2h4.1c0.1,0,0.2-0.1,0.2-0.2v-23c0-0.1-0.1-0.2-0.2-0.2l-0.9,0
				c-0.1,0-0.2-0.1-0.2-0.2V798c0-0.1,0.1-0.2,0.2-0.2h0.8c0.1,0,0.2-0.1,0.2-0.2v-16.8C162.4,780.6,162.3,780.5,162.1,780.5
				L162.1,780.5z"/>
		</g>
		<g>
			<path class="st5" d="M158,844.1c-0.1,0-0.1-0.1-0.1-0.1v-19.7c0-0.1,0.1-0.1,0.1-0.1h4.1c0.1,0,0.1,0.1,0.1,0.1V844
				c0,0.1-0.1,0.1-0.1,0.1H158z"/>
			<path d="M162.2,824.2C162.2,824.2,162.2,824.2,162.2,824.2l0.1,19.8c0,0,0,0.1-0.1,0.1H158c0,0-0.1,0-0.1-0.1v-19.7
				c0,0,0-0.1,0.1-0.1H162.2 M162.2,824.1H158c-0.1,0-0.2,0.1-0.2,0.2V844c0,0.1,0.1,0.2,0.2,0.2h4.1c0.1,0,0.2-0.1,0.2-0.2v-19.7
				C162.4,824.2,162.3,824.1,162.2,824.1L162.2,824.1z"/>
		</g>
		<g>
			<path class="st5" d="M161.5,846C161.5,846,161.5,846,161.5,846c-0.4-0.2-0.9-0.4-1.5-0.4c-0.6,0-1.1,0.3-1.4,0.4c0,0,0,0-0.1,0
				c-0.1,0-0.1,0-0.1-0.1c-0.2-0.3-0.3-0.6-0.3-0.7v-0.4c0-0.1,0.1-0.1,0.1-0.1h3.5c0.1,0,0.1,0.1,0.1,0.1v0.4
				c0,0.1-0.1,0.4-0.3,0.7C161.6,845.9,161.6,846,161.5,846z"/>
			<path d="M161.8,844.7C161.8,844.7,161.9,844.7,161.8,844.7l0.1,0.5c0,0.1-0.1,0.4-0.3,0.7c0,0,0,0-0.1,0c0,0,0,0,0,0
				c-0.3-0.2-0.9-0.4-1.4-0.4c-0.6,0-1.2,0.3-1.4,0.4c0,0,0,0,0,0c0,0-0.1,0-0.1,0c-0.2-0.3-0.3-0.6-0.3-0.7v-0.4c0,0,0-0.1,0.1-0.1
				h1.7H161.8 M161.8,844.6H160h-1.7c-0.1,0-0.2,0.1-0.2,0.2v0.4c0,0.2,0.2,0.5,0.3,0.7c0,0.1,0.1,0.1,0.2,0.1c0,0,0.1,0,0.1,0
				c0.3-0.2,0.8-0.4,1.4-0.4s1.1,0.3,1.4,0.4c0,0,0.1,0,0.1,0c0.1,0,0.1,0,0.2-0.1c0.1-0.2,0.3-0.6,0.3-0.7v-0.4
				C162,844.7,161.9,844.6,161.8,844.6L161.8,844.6z"/>
		</g>
		<path class="st7" d="M160.1,779.2l2.2,0c0,0,0.3,0,0.3,0.3c0,0,0.3,0,0.3-0.4c0,0,0.5-5.4,0.3-8c-0.2-2.6-1.7-5.5-2.1-5.7
			s-0.9-0.3-0.9-0.3l0.1,0c0,0-0.5,0-0.9,0.3c-0.4,0.3-1.8,3.1-2.1,5.7c-0.3,2.6,0.2,8,0.2,8c0,0.4,0.3,0.4,0.3,0.4
			c0-0.3,0.3-0.3,0.3-0.3L160.1,779.2"/>
		<rect x="158" y="779.2" class="st10" width="2.2" height="1.3"/>
		<rect x="160.1" y="779.2" class="st9" width="2.1" height="1.3"/>
	</g>
</g>
<g id="Landing" class="st11">
	<g class="st12">
		<path class="st9" d="M1756.1,694.2c0,0-1,1.2-1.1,2.6c-0.1,1.4,2.2,2,3,2c0.8,0,2.2,0,2.2,0v-4.6H1756.1z"/>
		<path class="st9" d="M1764.3,694.2c0,0,1,1.2,1.1,2.6c0.1,1.4-2.2,2-3,2c-0.8,0-2.2,0-2.2,0v-4.6H1764.3z"/>
		<polyline class="st13" points="1758.4,694.6 1759.3,701.8 1761.3,701.8 1762,694.6 		"/>
		<rect x="1806.7" y="691.5" class="st9" width="27.7" height="10.2"/>
		<rect x="1685.7" y="691.3" class="st9" width="27.7" height="10.2"/>
		<polygon class="st13" points="1755.1,686.2 1742.9,701.8 1744.8,701.8 1755.8,693 		"/>
		<polygon class="st13" points="1765,685.9 1777.2,701.5 1775.3,701.5 1764.3,692.7 		"/>
		<rect x="1756.3" y="645.4" class="st13" width="8.1" height="5.2"/>
		<rect x="1803" y="682.8" class="st13" width="27.7" height="10.2"/>
		<rect x="1689.6" y="682.5" class="st13" width="27.7" height="10.2"/>
		<g>
			<polygon class="st5" points="1680.2,706.3 1680.3,701.5 1839.9,701.6 1839.8,706.3 			"/>
			<path d="M1839.8,701.6v4.6h-159.4v-4.6H1839.8 M1839.9,701.5h-159.7v4.9h159.7V701.5L1839.9,701.5z"/>
		</g>
		<g>
			<polygon class="st5" points="1680.1,720 1680.2,708.4 1839.8,708.5 1839.7,720 			"/>
			<path d="M1839.6,708.5V720h-159.4v-11.4H1839.6 M1839.8,708.4h-159.7v11.7h159.7V708.4L1839.8,708.4z"/>
		</g>
		<path class="st14" d="M1760.3,584h-4.4c-0.3,0-0.5,0.2-0.5,0.5l-0.1,3.2c0,0.3-0.2,0.5-0.5,0.5h-3.7c-0.3,0-0.5,0.2-0.5,0.5v0.8
			c0,0.3,0.2,0.5,0.5,0.5h3.7c0.3,0,0.5,0.2,0.5,0.5l-0.3,55.5c0,0.3,0.2,0.5,0.5,0.5h9.5c0.3,0,0.5-0.2,0.5-0.5l-0.3-55.5
			c0-0.3,0.2-0.5,0.5-0.5h3.7c0.3,0,0.5-0.2,0.5-0.5v-0.8c0-0.3-0.2-0.5-0.5-0.5h-3.7c-0.3,0-0.5-0.2-0.5-0.5l-0.1-3.2
			c0-0.3-0.2-0.5-0.5-0.5H1760.3z"/>
		<path class="st14" d="M1760.3,694.5h-5.5c-0.4,0-0.6-0.4-0.5-0.7c0.3-0.8,0.7-2.1,0.7-3.5c0-2.2-0.7-3-0.5-3.4
			c0.1-0.4,1-32.8,1.1-37.4c0-0.3,0.2-0.5,0.5-0.5h4.2h-0.1h4.2c0.3,0,0.5,0.2,0.5,0.5c0.1,4.5,0.9,37,1.1,37.4
			c0.1,0.4-0.5,1.2-0.5,3.4c0,1.4,0.4,2.7,0.7,3.5c0.1,0.4-0.1,0.7-0.5,0.7H1760.3"/>
	</g>
</g>
<g id="Rocket_Ascent_1_">
	<g>
		
			<rect x="1314.2" y="711.1" transform="matrix(-1.836970e-16 1 -1 -1.836970e-16 2040.8782 -601.0864)" class="st9" width="13.5" height="17.5"/>
		
			<rect x="1197.2" y="681.3" transform="matrix(-1.836970e-16 1 -1 -1.836970e-16 1922.5344 -483.1918)" class="st9" width="11.2" height="76.8"/>
		<path class="st9" d="M1161.8,715c0,0-5.4-2.2-9-1.8c-3.6,0.4-2.7,13-1.3,13.5c1.3,0.4,8.1-1.3,8.1-1.3s2.7,0,3.1-1.3
			c0.4-1.3,0.9-7.6,0.4-8.1C1162.7,715.4,1161.8,715,1161.8,715z"/>
		<path class="st10" d="M1120,719.9c22.9,9.4,26,7.2,30.5,7.6c4.5,0.4,7.6-7.6,7.6-7.6v0c0,0-3.1-8.1-7.6-7.6
			C1146,712.7,1142.9,710.5,1120,719.9L1120,719.9z"/>
		<g>
			<path class="st5" d="M1327.6,727.5c-0.3,0-0.6-0.3-0.6-0.6V724c0-0.6-0.5-1-1-1h-5.7c-0.5,0-1,0.4-1,1l-0.2,3
				c0,0.3-0.3,0.5-0.6,0.5h-79.5c-0.3,0-0.6-0.3-0.6-0.6v-14.1c0-0.3,0.3-0.6,0.6-0.6h79.3c0.3,0,0.5,0.2,0.6,0.5l0.4,3.1
				c0.1,0.5,0.5,0.9,1,0.9h5.7c0.6,0,1-0.5,1-1v-2.9c0-0.3,0.3-0.6,0.6-0.6h58.2c0.3,0,0.6,0.3,0.6,0.6V727c0,0.3-0.3,0.6-0.6,0.6
				H1327.6z"/>
			<path d="M1385.8,712.5c0.2,0,0.3,0.2,0.3,0.3V727c0,0.2-0.2,0.3-0.3,0.3h-58.2c-0.2,0-0.3-0.2-0.3-0.3v-2.9
				c0-0.7-0.6-1.2-1.2-1.2h-5.7c-0.7,0-1.2,0.5-1.2,1.2l-0.1,3c0,0.2-0.2,0.3-0.3,0.3h-79.5c-0.2,0-0.3-0.2-0.3-0.3v-14.1
				c0-0.2,0.2-0.3,0.3-0.3h79.3c0.2,0,0.3,0.1,0.3,0.3l0.4,3.1c0.1,0.6,0.6,1.1,1.2,1.1h5.7c0.7,0,1.2-0.6,1.2-1.2v-2.9
				c0-0.2,0.2-0.3,0.3-0.3H1385.8 M1385.8,712h-58.2c-0.4,0-0.8,0.4-0.8,0.8v2.9c0,0.4-0.4,0.8-0.8,0.8h-5.7c-0.4,0-0.7-0.3-0.8-0.7
				l-0.4-3.1c0-0.4-0.4-0.7-0.8-0.7h-79.3c-0.4,0-0.8,0.4-0.8,0.8V727c0,0.4,0.4,0.8,0.8,0.8h79.5c0.4,0,0.8-0.3,0.8-0.7l0.1-3
				c0-0.4,0.4-0.7,0.8-0.7h5.7c0.4,0,0.8,0.4,0.8,0.8v2.9c0,0.4,0.4,0.8,0.8,0.8h58.2c0.4,0,0.8-0.4,0.8-0.8v-14.1
				C1386.6,712.4,1386.2,712,1385.8,712L1385.8,712z"/>
		</g>
		<g>
			<path class="st5" d="M1166.8,727.5c-0.3,0-0.5-0.2-0.5-0.5v-14.3c0-0.3,0.2-0.5,0.5-0.5h68.2c0.3,0,0.5,0.2,0.5,0.5V727
				c0,0.3-0.2,0.5-0.5,0.5H1166.8z"/>
			<path d="M1234.9,712.5c0.1,0,0.3,0.1,0.3,0.3V727c0,0.1-0.1,0.3-0.3,0.3h-68.2c-0.1,0-0.3-0.1-0.3-0.3v-14.3
				c0-0.1,0.1-0.3,0.3-0.3H1234.9 M1234.9,712h-68.2c-0.4,0-0.7,0.3-0.7,0.7V727c0,0.4,0.3,0.7,0.7,0.7h68.2c0.4,0,0.7-0.3,0.7-0.7
				v-14.3C1235.6,712.4,1235.3,712,1234.9,712L1234.9,712z"/>
		</g>
		<g>
			<path class="st5" d="M1162.4,726.2c-0.4,0-1.3-0.4-2.4-1c-0.1-0.1-0.2-0.2-0.2-0.3c0-0.1,0-0.3,0-0.4c0.5-1,1.5-2.9,1.5-4.9
				c0-2-0.9-3.9-1.5-4.9c-0.1-0.1-0.1-0.2,0-0.4c0-0.1,0.1-0.2,0.2-0.3c1.1-0.6,2-1,2.4-1h1.5c0.3,0,0.5,0.2,0.5,0.5v12.1
				c0,0.3-0.2,0.5-0.5,0.5H1162.4z"/>
			<path d="M1164,713.4c0.1,0,0.3,0.1,0.3,0.3v6v6c0,0.1-0.1,0.3-0.3,0.3h-1.5c-0.4,0-1.2-0.3-2.3-0.9c-0.1,0-0.1-0.1-0.1-0.1
				c0-0.1,0-0.1,0-0.2c0.6-1,1.5-3,1.5-5c0-2-0.9-4-1.5-5c0-0.1,0-0.1,0-0.2c0-0.1,0.1-0.1,0.1-0.1c1.1-0.6,1.9-0.9,2.3-0.9H1164
				 M1164,712.9h-1.5c-0.6,0-1.8,0.6-2.5,1c-0.3,0.2-0.5,0.6-0.3,1c0.5,0.9,1.4,2.9,1.4,4.8c0,1.9-0.9,3.8-1.4,4.8
				c-0.2,0.3-0.1,0.8,0.3,1c0.7,0.4,1.9,1,2.5,1h1.5c0.4,0,0.7-0.3,0.7-0.7v-6v-6C1164.7,713.2,1164.4,712.9,1164,712.9L1164,712.9z
				"/>
		</g>
		<path class="st15" d="M1391,719.8l0,7.6c0,0,0,0.9-0.9,0.9c0,0,0,0.9,1.3,0.9c0,0,18.9,1.9,27.8,1s18.9-5.8,19.8-7.1
			c0.9-1.3,0.9-3.1,0.9-3.1l0,0.2c0,0,0-1.8-0.9-3.1c-0.9-1.4-10.8-6.3-19.7-7.3c-9-0.9-27.8,0.8-27.8,0.8c-1.3,0-1.4,0.9-1.4,0.9
			c0.9,0,0.9,0.9,0.9,0.9l0,7.6"/>
		
			<rect x="1384.9" y="713.9" transform="matrix(-1.836970e-16 1 -1 -1.836970e-16 2104.9141 -672.4164)" class="st10" width="7.5" height="4.7"/>
		
			<rect x="1385" y="721.3" transform="matrix(-1.836970e-16 1 -1 -1.836970e-16 2112.3303 -665.0001)" class="st9" width="7.3" height="4.7"/>
	</g>
	<g id="Rocket_Ascent">
		<rect x="108.7" y="350.6" class="st16" width="211.3" height="16.8"/>
		<text transform="matrix(1 0 0 1 171.2132 366.0551)" class="st5 st17 st18">ROCKET ASCENT</text>
		<rect x="1082.1" y="562.2" class="st16" width="395.8" height="39.1"/>
		<text transform="matrix(1 0 0 1 1087.2596 577.5771)"><tspan x="0" y="0" class="st5 st17 st18">During the ascent, rocket use all of its engine </tspan><tspan x="43.5" y="19.6" class="st5 st17 st18">power to leave Earth’s atmosphere</tspan></text>
	</g>
</g>
<g id="Stage_Separation_1_" class="st11">
	<g class="st12">
		<g>
			<line class="st9" x1="1352.6" y1="713" x2="1352.6" y2="726.5"/>
			<path class="st19" d="M1343.2,716.4h5.7c0.4,0,0.8-0.4,0.8-0.8v-2.9c0-0.4,0.4-0.8,0.8-0.8h58.3c0.4,0,0.8,0.4,0.8,0.8v14.2
				c0,0.4-0.4,0.8-0.8,0.8h-58.3c-0.4,0-0.8-0.4-0.8-0.8V724c0-0.4-0.4-0.8-0.8-0.8h-5.7L1343.2,716.4z"/>
			<path class="st20" d="M1414,719.7l0,7.7c0,0,0,0.9-0.9,0.9c0,0,0,0.9,1.3,0.9c0,0,18.9,1.9,27.9,1s18.9-5.8,19.8-7.1
				c0.9-1.3,0.9-3.1,0.9-3.1l0,0.2c0,0,0-1.8-0.9-3.2c-0.9-1.4-10.8-6.3-19.8-7.3s-27.9,0.8-27.9,0.8c-1.3,0-1.4,0.9-1.4,0.9
				c0.9,0,0.9,0.9,0.9,0.9l0,7.7"/>
			
				<rect x="1407.9" y="713.8" transform="matrix(-1.836970e-16 1 -1 -1.836970e-16 2127.7732 -695.4988)" class="st10" width="7.5" height="4.7"/>
			
				<rect x="1408" y="721.2" transform="matrix(-1.836970e-16 1 -1 -1.836970e-16 2135.2041 -688.0677)" class="st9" width="7.3" height="4.7"/>
		</g>
		<polygon class="st21" points="1342.9,721.5 1337.2,723.2 1337.2,716.4 1342.9,718.1 		"/>
		<path class="st10" d="M1318.1,719.9c11.5,4.7,13,3.6,15.3,3.8c2.2,0.2,3.8-3.8,3.8-3.8v0c0,0-1.6-4-3.8-3.8
			S1329.6,715.2,1318.1,719.9L1318.1,719.9z"/>
		<g>
			
				<rect x="1289.4" y="713" transform="matrix(-1.836970e-16 1 -1 -1.836970e-16 2016.0636 -576.2719)" class="st9" width="13.5" height="13.8"/>
			
				<rect x="1174.3" y="681.3" transform="matrix(-1.836970e-16 1 -1 -1.836970e-16 1899.5725 -460.2299)" class="st9" width="11.2" height="76.8"/>
			<path class="st9" d="M1138.8,715c0,0-5.4-2.2-9-1.8c-3.6,0.4-2.7,13-1.3,13.5s8.1-1.3,8.1-1.3s2.7,0,3.1-1.3
				c0.4-1.3,0.9-7.6,0.4-8.1C1139.7,715.4,1138.8,715,1138.8,715z"/>
			<path class="st10" d="M1097,719.9c22.9,9.4,26,7.2,30.5,7.6c4.5,0.4,7.6-7.6,7.6-7.6v0c0,0-3.1-8.1-7.6-7.6
				C1123.1,712.7,1119.9,710.5,1097,719.9L1097,719.9z"/>
			<path class="st22" d="M1303.1,723.3h-5.7c-0.4,0-0.8,0.3-0.8,0.7l-0.1,3c0,0.4-0.4,0.7-0.8,0.7h-79.5c-0.4,0-0.8-0.4-0.8-0.8
				v-14.1c0-0.4,0.4-0.8,0.8-0.8h79.3c0.4,0,0.7,0.3,0.8,0.7l0.4,3.1c0,0.4,0.4,0.7,0.8,0.7h5.7V723.3z"/>
			<g>
				<path class="st5" d="M1143.8,727.5c-0.3,0-0.5-0.2-0.5-0.5v-14.3c0-0.3,0.2-0.5,0.5-0.5h68.2c0.3,0,0.5,0.2,0.5,0.5V727
					c0,0.3-0.2,0.5-0.5,0.5H1143.8z"/>
				<path d="M1212,712.5c0.1,0,0.3,0.1,0.3,0.3V727c0,0.1-0.1,0.3-0.3,0.3h-68.2c-0.1,0-0.3-0.1-0.3-0.3v-14.3
					c0-0.1,0.1-0.3,0.3-0.3H1212 M1212,712h-68.2c-0.4,0-0.7,0.3-0.7,0.7V727c0,0.4,0.3,0.7,0.7,0.7h68.2c0.4,0,0.7-0.3,0.7-0.7
					v-14.3C1212.7,712.4,1212.4,712,1212,712L1212,712z"/>
			</g>
			<g>
				<path class="st5" d="M1139.5,726.2c-0.4,0-1.3-0.4-2.4-1c-0.1-0.1-0.2-0.2-0.2-0.3c0-0.1,0-0.3,0-0.4c0.5-1,1.5-2.9,1.5-4.9
					c0-2-0.9-3.9-1.5-4.9c-0.1-0.1-0.1-0.2,0-0.4c0-0.1,0.1-0.2,0.2-0.3c1.1-0.6,2-1,2.4-1h1.5c0.3,0,0.5,0.2,0.5,0.5v12.1
					c0,0.3-0.2,0.5-0.5,0.5H1139.5z"/>
				<path d="M1141,713.4c0.1,0,0.3,0.1,0.3,0.3v6v6c0,0.1-0.1,0.3-0.3,0.3h-1.5c-0.4,0-1.2-0.3-2.3-0.9c-0.1,0-0.1-0.1-0.1-0.1
					c0-0.1,0-0.1,0-0.2c0.6-1,1.5-3,1.5-5c0-2-0.9-4-1.5-5c0-0.1,0-0.1,0-0.2c0-0.1,0.1-0.1,0.1-0.1c1.1-0.6,1.9-0.9,2.3-0.9H1141
					 M1141,712.9h-1.5c-0.6,0-1.8,0.6-2.5,1c-0.3,0.2-0.5,0.6-0.3,1c0.5,0.9,1.4,2.9,1.4,4.8c0,1.9-0.9,3.8-1.4,4.8
					c-0.2,0.3-0.1,0.8,0.3,1c0.7,0.4,1.9,1,2.5,1h1.5c0.4,0,0.7-0.3,0.7-0.7v-6v-6C1141.7,713.2,1141.4,712.9,1141,712.9L1141,712.9
					z"/>
			</g>
		</g>
	</g>
	<g id="Stage_Separation" class="st12">
		<rect x="442.3" y="181.2" class="st16" width="197.7" height="15.9"/>
		<text transform="matrix(1 0 0 1 462.3953 196.646)" class="st5 st17 st18">STAGE SEPARATION</text>
		<rect x="1082.1" y="562.2" class="st16" width="395.8" height="39.1"/>
		<text transform="matrix(1 0 0 1 1110.245 577.5771)"><tspan x="0" y="0" class="st5 st17 st18">First stage overtakes atmosphere while </tspan><tspan x="18.2" y="19.6" class="st5 st17 st18">second stage keeps its way to orbit</tspan></text>
	</g>
</g>
<g id="Flip_Maneuver" class="st11">
	<g class="st12">
		<polygon class="st21" points="1406.1,756.6 1413.8,760.8 1406.7,767.8 1402.5,760.1 		"/>
		
			<rect x="1317" y="671" transform="matrix(0.7071 -0.7071 0.7071 0.7071 -90.8407 1132.8087)" class="st9" width="9.9" height="10.2"/>
		
			<rect x="1378.4" y="708.5" transform="matrix(0.7071 -0.7071 0.7071 0.7071 -116.0718 1193.3909)" class="st9" width="8.3" height="56.6"/>
		<path class="st23" d="M1320.2,670.7l2.9,2.9c0.2,0.2,0.6,0.2,0.8,0l1.6-1.5c0.2-0.2,0.6-0.2,0.8,0l41.5,41.5
			c0.2,0.2,0.2,0.6,0,0.8l-7.4,7.4c-0.2,0.2-0.6,0.2-0.8,0l-41.3-41.3c-0.2-0.2-0.2-0.5,0-0.8l1.4-1.8c0.2-0.2,0.2-0.6,0-0.8l-3-3
			L1320.2,670.7z"/>
		<g>
			<path class="st5" d="M1397.7,759.6c-0.1,0-0.2,0-0.3-0.1l-35.6-35.6c-0.1-0.1-0.1-0.2-0.1-0.3s0-0.2,0.1-0.3l7.5-7.5
				c0.1-0.1,0.2-0.1,0.3-0.1s0.2,0,0.3,0.1l35.6,35.6c0.1,0.1,0.1,0.4,0,0.5l-7.5,7.5C1397.9,759.6,1397.8,759.6,1397.7,759.6z"/>
			<path d="M1369.6,716c0.1,0,0.1,0,0.1,0.1l35.6,35.6c0,0,0.1,0.1,0.1,0.1c0,0.1,0,0.1-0.1,0.1l-7.5,7.5c0,0-0.1,0.1-0.1,0.1
				s-0.1,0-0.1-0.1l-35.6-35.6c0,0-0.1-0.1-0.1-0.1c0-0.1,0-0.1,0.1-0.1l7.5-7.5C1369.5,716.1,1369.6,716,1369.6,716 M1369.6,715.7
				c-0.1,0-0.3,0.1-0.4,0.2l-7.5,7.5c-0.2,0.2-0.2,0.5,0,0.7l35.6,35.6c0.1,0.1,0.2,0.2,0.4,0.2s0.3-0.1,0.4-0.2l7.5-7.5
				c0.2-0.2,0.2-0.5,0-0.7l-35.6-35.6C1369.9,715.8,1369.8,715.7,1369.6,715.7L1369.6,715.7z"/>
		</g>
		<g>
			<path class="st5" d="M1402.1,762c0,0-0.1,0-0.1,0c-0.9-0.3-1.5-0.5-1.8-0.8l-0.8-0.8c-0.1-0.1-0.1-0.2-0.1-0.2
				c0-0.1,0-0.2,0.1-0.2l6.3-6.3c0.1-0.1,0.2-0.1,0.2-0.1c0.1,0,0.2,0,0.2,0.1l0.8,0.8c0.2,0.2,0.5,0.8,0.8,1.8c0,0.1,0,0.2,0,0.3
				c0,0.1-0.1,0.1-0.2,0.2c-0.8,0.2-2.3,0.8-3.3,1.8c-1,1-1.6,2.5-1.8,3.3C1402.3,761.9,1402.2,762,1402.1,762L1402.1,762z"/>
			<path d="M1405.9,753.7c0,0,0.1,0,0.1,0.1l0.8,0.8c0.2,0.2,0.5,0.8,0.7,1.7c0,0,0,0.1,0,0.1c0,0-0.1,0.1-0.1,0.1
				c-0.8,0.2-2.3,0.8-3.4,1.8c-1.1,1.1-1.6,2.6-1.8,3.4c0,0.1-0.1,0.1-0.2,0.1c0,0,0,0-0.1,0c-0.9-0.3-1.5-0.5-1.7-0.7l-0.8-0.8
				c-0.1-0.1-0.1-0.2,0-0.3l3.1-3.1l3.1-3.1C1405.8,753.8,1405.9,753.7,1405.9,753.7 M1405.9,753.4c-0.1,0-0.3,0.1-0.4,0.2l-3.1,3.1
				l-3.1,3.1c-0.2,0.2-0.2,0.5,0,0.7l0.8,0.8c0.3,0.3,1.2,0.6,1.8,0.8c0,0,0.1,0,0.1,0c0.2,0,0.4-0.1,0.5-0.4
				c0.2-0.8,0.7-2.2,1.7-3.3c1-1,2.5-1.5,3.3-1.7c0.3-0.1,0.4-0.4,0.4-0.6c-0.2-0.6-0.5-1.5-0.8-1.8l-0.8-0.8
				C1406.2,753.5,1406.1,753.4,1405.9,753.4L1405.9,753.4z"/>
		</g>
	</g>
	<g class="st24">
		<polygon class="st21" points="1356,744.5 1364.5,746.6 1359.5,755.2 1353.5,748.8 		"/>
		
			<rect x="1249" y="683.4" transform="matrix(0.5001 -0.866 0.866 0.5001 30.6966 1430.0793)" class="st9" width="9.9" height="10.2"/>
		
			<rect x="1324" y="703.2" transform="matrix(0.5001 -0.866 0.866 0.5001 30.5233 1515.8195)" class="st9" width="8.3" height="56.6"/>
		<path class="st23" d="M1250.8,683.8l3.6,2.1c0.3,0.2,0.6,0.1,0.8-0.2l1.2-1.9c0.2-0.3,0.5-0.3,0.8-0.2l50.8,29.3
			c0.3,0.2,0.4,0.5,0.2,0.8l-5.2,9c-0.2,0.3-0.5,0.4-0.8,0.2l-50.6-29.2c-0.3-0.1-0.4-0.5-0.2-0.7l0.9-2.1c0.1-0.3,0-0.6-0.2-0.7
			l-3.6-2.1L1250.8,683.8z"/>
		<g>
			<path class="st5" d="M1348.6,749.6c-0.1,0-0.1,0-0.2,0l-43.5-25.1c-0.2-0.1-0.2-0.3-0.1-0.5l5.3-9.1c0.1-0.1,0.2-0.2,0.3-0.2
				c0.1,0,0.1,0,0.2,0l43.5,25.1c0.2,0.1,0.2,0.3,0.1,0.5l-5.3,9.1C1348.9,749.5,1348.7,749.6,1348.6,749.6z"/>
			<path d="M1310.3,714.7C1310.4,714.7,1310.4,714.8,1310.3,714.7l43.6,25.2c0,0,0.1,0.1,0.1,0.1c0,0.1,0,0.1,0,0.1l-5.3,9.1
				c0,0.1-0.1,0.1-0.2,0.1c0,0-0.1,0-0.1,0l-43.5-25.1c0,0-0.1-0.1-0.1-0.1c0-0.1,0-0.1,0-0.1l5.3-9.1
				C1310.2,714.8,1310.3,714.7,1310.3,714.7 M1310.3,714.4c-0.2,0-0.4,0.1-0.5,0.3l-5.3,9.1c-0.1,0.3-0.1,0.6,0.2,0.7l43.5,25.1
				c0.1,0,0.2,0.1,0.3,0.1c0.2,0,0.4-0.1,0.5-0.3l5.3-9.1c0.1-0.3,0.1-0.6-0.2-0.7l-43.5-25.1
				C1310.5,714.4,1310.4,714.4,1310.3,714.4L1310.3,714.4z"/>
		</g>
		<g>
			<path class="st5" d="M1353.4,750.8c-0.9,0-1.6-0.1-1.9-0.3l-1-0.6c-0.2-0.1-0.2-0.3-0.1-0.5l4.5-7.7c0.1-0.1,0.2-0.2,0.3-0.2
				c0.1,0,0.1,0,0.2,0l1,0.6c0.3,0.1,0.7,0.7,1.2,1.5c0,0.1,0.1,0.2,0,0.3c0,0.1-0.1,0.2-0.2,0.2c-0.7,0.4-2,1.3-2.7,2.6
				c-0.7,1.3-0.9,2.8-0.9,3.7C1353.8,750.7,1353.6,750.8,1353.4,750.8L1353.4,750.8z"/>
			<path d="M1355.1,741.8C1355.2,741.8,1355.2,741.8,1355.1,741.8l1.1,0.6c0.2,0.1,0.7,0.7,1.1,1.4c0,0,0,0.1,0,0.1
				c0,0,0,0.1-0.1,0.1c-0.7,0.4-2.1,1.4-2.8,2.6c-0.7,1.3-0.9,2.9-0.9,3.8c0,0.1-0.1,0.2-0.2,0.2c-0.9,0-1.6-0.1-1.8-0.3l-1-0.6
				c0,0-0.1-0.1-0.1-0.1c0,0,0-0.1,0-0.1l2.2-3.9l2.2-3.9C1355,741.8,1355.1,741.8,1355.1,741.8 M1355.1,741.4
				c-0.2,0-0.4,0.1-0.4,0.3l-2.2,3.9l-2.2,3.9c-0.1,0.2-0.1,0.6,0.2,0.7l1,0.6c0.4,0.2,1.4,0.3,2,0.3c0,0,0,0,0,0
				c0.3,0,0.5-0.2,0.5-0.5c0-0.8,0.1-2.4,0.8-3.6c0.7-1.2,2-2.1,2.7-2.5c0.2-0.1,0.3-0.5,0.2-0.7c-0.3-0.5-0.9-1.3-1.2-1.6l-1-0.6
				C1355.3,741.5,1355.2,741.4,1355.1,741.4L1355.1,741.4z"/>
		</g>
	</g>
	<g class="st25">
		<polygon class="st21" points="1301.4,745.5 1310.2,745.2 1307.7,754.8 1300.2,750.3 		"/>
		
			<rect x="1183.1" y="713.9" transform="matrix(0.2481 -0.9687 0.9687 0.2481 196.7135 1691.4928)" class="st9" width="9.9" height="10.2"/>
		
			<rect x="1266.9" y="712.1" transform="matrix(0.2481 -0.9687 0.9687 0.2481 238.3699 1788.0356)" class="st9" width="8.3" height="56.6"/>
		<path class="st23" d="M1183.7,715.4l4,1c0.3,0.1,0.6-0.1,0.7-0.4l0.7-2.1c0.1-0.3,0.4-0.5,0.7-0.4l56.8,14.6
			c0.3,0.1,0.5,0.4,0.4,0.7l-2.6,10.1c-0.1,0.3-0.4,0.5-0.7,0.4l-56.6-14.5c-0.3-0.1-0.5-0.3-0.4-0.6l0.3-2.3c0-0.3-0.1-0.6-0.4-0.6
			l-4.1-1L1183.7,715.4z"/>
		<g>
			<path class="st5" d="M1295.6,752.4C1295.6,752.4,1295.5,752.4,1295.6,752.4l-48.8-12.5c-0.1,0-0.2-0.1-0.2-0.2
				c0-0.1-0.1-0.2,0-0.3l2.6-10.2c0-0.2,0.2-0.3,0.4-0.3l48.8,12.5c0.1,0,0.2,0.1,0.2,0.2c0,0.1,0.1,0.2,0,0.3l-2.6,10.2
				C1295.9,752.3,1295.8,752.4,1295.6,752.4z"/>
			<path d="M1249.5,729.1L1249.5,729.1l48.8,12.5c0.1,0,0.2,0.1,0.1,0.2l-2.6,10.2c0,0.1-0.1,0.1-0.2,0.1c0,0,0,0,0,0l-48.7-12.5
				c-0.1,0-0.1,0-0.1-0.1c0,0,0-0.1,0-0.1l2.6-10.2C1249.3,729.2,1249.4,729.1,1249.5,729.1 M1249.5,728.8c-0.2,0-0.4,0.2-0.5,0.4
				l-2.6,10.2c-0.1,0.3,0.1,0.6,0.4,0.6l48.7,12.5c0,0,0.1,0,0.1,0c0.2,0,0.4-0.2,0.5-0.4l2.6-10.2c0.1-0.3-0.1-0.6-0.4-0.6
				l-48.7-12.5C1249.6,728.8,1249.5,728.8,1249.5,728.8L1249.5,728.8z"/>
		</g>
		<g>
			<path class="st5" d="M1299,752.5c-0.1,0-0.2,0-0.3,0l-1.1-0.3c-0.1,0-0.2-0.1-0.2-0.2s-0.1-0.2,0-0.3l2.2-8.6
				c0-0.2,0.2-0.3,0.3-0.3l1.2,0.3c0.3,0.1,0.9,0.5,1.5,1.1c0.1,0.1,0.1,0.2,0.1,0.2c0,0.1,0,0.2-0.1,0.3c-0.6,0.6-1.6,1.8-1.9,3.2
				c-0.4,1.4-0.1,3,0.2,3.8c0,0.1,0,0.2,0,0.3c0,0.1-0.1,0.1-0.2,0.2C1300.2,752.4,1299.5,752.5,1299,752.5L1299,752.5z"/>
			<path d="M1299.9,743.1L1299.9,743.1l1.1,0.3c0.3,0.1,0.8,0.5,1.5,1.1c0,0,0.1,0.1,0.1,0.1c0,0,0,0.1-0.1,0.1
				c-0.6,0.6-1.6,1.9-2,3.3c-0.4,1.4-0.1,3,0.2,3.9c0,0,0,0.1,0,0.1c0,0-0.1,0.1-0.1,0.1c-0.7,0.2-1.2,0.3-1.6,0.3
				c-0.1,0-0.2,0-0.2,0l-1.1-0.3c0,0-0.1,0-0.1-0.1c0,0,0-0.1,0-0.1l1.1-4.3l1.1-4.3C1299.8,743.1,1299.8,743.1,1299.9,743.1
				 M1299.9,742.7c-0.2,0-0.4,0.2-0.5,0.4l-1.1,4.3l-1.1,4.3c-0.1,0.3,0.1,0.6,0.4,0.6l1.1,0.3c0.1,0,0.2,0,0.3,0
				c0.5,0,1.2-0.2,1.7-0.3c0.3-0.1,0.4-0.4,0.4-0.6c-0.2-0.8-0.5-2.3-0.2-3.7c0.4-1.4,1.4-2.6,1.9-3.2c0.2-0.2,0.2-0.5,0-0.7
				c-0.5-0.4-1.2-1.1-1.6-1.2l-1.1-0.3C1300,742.7,1300,742.7,1299.9,742.7L1299.9,742.7z"/>
		</g>
	</g>
	<g class="st25">
		<polygon class="st21" points="1267.3,759.9 1275.8,757.4 1275.7,767.4 1267.3,764.9 		"/>
		
			<rect x="1146" y="757" transform="matrix(2.542373e-03 -1 1 2.542373e-03 385.9467 1911.0703)" class="st9" width="9.9" height="10.2"/>
		
			<rect x="1232.5" y="734.1" transform="matrix(2.542373e-03 -1 1 2.542373e-03 471.0889 1997.1965)" class="st9" width="8.3" height="56.6"/>
		<path class="st23" d="M1145.9,759.6l4.2,0c0.3,0,0.6-0.2,0.6-0.5l0.1-2.2c0-0.3,0.3-0.5,0.6-0.5l58.7,0.1c0.3,0,0.6,0.3,0.6,0.6
			l0,10.4c0,0.3-0.3,0.6-0.6,0.6l-58.5-0.1c-0.3,0-0.5-0.2-0.6-0.5l-0.3-2.3c0-0.3-0.3-0.5-0.6-0.5l-4.2,0L1145.9,759.6z"/>
		<g>
			<path class="st5" d="M1213,767.9c-0.1,0-0.2,0-0.3-0.1s-0.1-0.2-0.1-0.3l0-10.5c0-0.2,0.2-0.4,0.4-0.4l50.3,0.1
				c0.1,0,0.2,0,0.3,0.1c0.1,0.1,0.1,0.2,0.1,0.3l0,10.5c0,0.2-0.2,0.4-0.4,0.4l0,0L1213,767.9z"/>
			<path d="M1213,756.8l50.3,0.1c0.1,0,0.2,0.1,0.2,0.2l0,10.5c0,0.1-0.1,0.2-0.2,0.2l-50.3-0.1c-0.1,0-0.1,0-0.1-0.1
				c0,0-0.1-0.1-0.1-0.1l0-10.5C1212.9,756.9,1212.9,756.8,1213,756.8L1213,756.8 M1213,756.4c-0.3,0-0.5,0.2-0.5,0.5l0,10.5
				c0,0.3,0.2,0.5,0.5,0.5l50.3,0.1c0,0,0,0,0,0c0.3,0,0.5-0.2,0.5-0.5l0-10.5c0-0.3-0.2-0.5-0.5-0.5L1213,756.4
				C1213,756.4,1213,756.4,1213,756.4L1213,756.4z"/>
		</g>
		<g>
			<path class="st5" d="M1265.3,767.3c-0.1,0-0.2,0-0.2-0.1s-0.1-0.2-0.1-0.2l0-8.9c0-0.2,0.2-0.4,0.4-0.4l1.1,0
				c0.3,0,0.9,0.3,1.8,0.7c0.1,0,0.1,0.1,0.2,0.2c0,0.1,0,0.2,0,0.3c-0.4,0.7-1.1,2.2-1.1,3.6c0,1.4,0.7,2.9,1.1,3.6
				c0,0.1,0.1,0.2,0,0.3s-0.1,0.2-0.2,0.2c-0.8,0.4-1.5,0.7-1.8,0.7L1265.3,767.3z"/>
			<path d="M1265.4,757.9l1.1,0c0.3,0,0.9,0.3,1.7,0.7c0,0,0.1,0.1,0.1,0.1c0,0,0,0.1,0,0.1c-0.4,0.7-1.1,2.2-1.1,3.7
				c0,1.5,0.7,3,1.1,3.7c0,0,0,0.1,0,0.1c0,0,0,0.1-0.1,0.1c-0.8,0.4-1.4,0.7-1.7,0.7l-1.1,0c-0.1,0-0.2-0.1-0.2-0.2l0-4.5l0-4.5
				C1265.2,758,1265.3,757.9,1265.4,757.9L1265.4,757.9 M1265.4,757.6c-0.3,0-0.5,0.2-0.5,0.5l0,4.5l0,4.5c0,0.3,0.2,0.5,0.5,0.5
				l1.1,0c0,0,0,0,0,0c0.4,0,1.3-0.4,1.9-0.7c0.3-0.1,0.3-0.5,0.2-0.7c-0.4-0.7-1.1-2.1-1.1-3.5c0-1.4,0.7-2.8,1.1-3.5
				c0.1-0.3,0.1-0.6-0.2-0.7c-0.5-0.3-1.4-0.7-1.9-0.7L1265.4,757.6C1265.4,757.6,1265.4,757.6,1265.4,757.6L1265.4,757.6z"/>
		</g>
	</g>
	<g id="Flip_Maneuver_1_" class="st12">
		<rect x="878" y="205.7" class="st16" width="164.1" height="18.5"/>
		<text transform="matrix(1 0 0 1 889.3236 221.1714)" class="st5 st17 st18">FLIP MANEUVER</text>
		<rect x="1082.1" y="562.2" class="st16" width="395.8" height="39.1"/>
		<text transform="matrix(1 0 0 1 1101.4618 577.5771)"><tspan x="0" y="0" class="st5 st17 st18">Cold gas thrusters flip rocket’s first stage</tspan><tspan x="26.5" y="19.6" class="st5 st17 st18">in order to start recovery operation</tspan></text>
	</g>
</g>
<g id="Boostback_Burn" class="st11">
	<g class="st12">
		
			<rect x="1518.6" y="755.6" transform="matrix(6.123234e-17 -1 1 6.123234e-17 762.8819 2287.7937)" class="st9" width="13.5" height="13.8"/>
		
			<rect x="1403.5" y="724.3" transform="matrix(6.123234e-17 -1 1 6.123234e-17 646.3907 2171.7517)" class="st9" width="11.2" height="76.8"/>
		<path class="st9" d="M1368,767.4c0,0-5.4,2.2-9,1.8c-3.6-0.4-2.7-13-1.3-13.5c1.3-0.4,8.1,1.3,8.1,1.3s2.7,0,3.1,1.3
			c0.4,1.3,0.9,7.6,0.4,8.1S1368,767.4,1368,767.4z"/>
		<path class="st10" d="M1326.2,762.5c22.9-9.4,26-7.2,30.5-7.6c4.5-0.4,7.6,7.6,7.6,7.6v0c0,0-3.1,8.1-7.6,7.6
			C1352.3,769.6,1349.1,771.9,1326.2,762.5L1326.2,762.5z"/>
		<path class="st22" d="M1532.2,759.1h-5.7c-0.4,0-0.8-0.3-0.8-0.7l-0.1-3c0-0.4-0.4-0.7-0.8-0.7h-79.5c-0.4,0-0.8,0.4-0.8,0.8v14.1
			c0,0.4,0.4,0.8,0.8,0.8h79.3c0.4,0,0.7-0.3,0.8-0.7l0.4-3.1c0-0.4,0.4-0.7,0.8-0.7h5.7V759.1z"/>
		<g>
			<path class="st5" d="M1373,770.1c-0.3,0-0.5-0.2-0.5-0.5v-14.3c0-0.3,0.2-0.5,0.5-0.5h68.2c0.3,0,0.5,0.2,0.5,0.5v14.3
				c0,0.3-0.2,0.5-0.5,0.5H1373z"/>
			<path d="M1441.1,755c0.1,0,0.3,0.1,0.3,0.3v14.3c0,0.1-0.1,0.3-0.3,0.3H1373c-0.1,0-0.3-0.1-0.3-0.3v-14.3c0-0.1,0.1-0.3,0.3-0.3
				H1441.1 M1441.1,754.6H1373c-0.4,0-0.7,0.3-0.7,0.7v14.3c0,0.4,0.3,0.7,0.7,0.7h68.2c0.4,0,0.7-0.3,0.7-0.7v-14.3
				C1441.9,754.9,1441.5,754.6,1441.1,754.6L1441.1,754.6z"/>
		</g>
		<g>
			<path class="st5" d="M1368.7,769.2c-0.4,0-1.3-0.4-2.4-1c-0.1-0.1-0.2-0.2-0.2-0.3s0-0.3,0-0.4c0.5-1,1.5-2.9,1.5-4.9
				c0-2-0.9-3.9-1.5-4.9c-0.1-0.1-0.1-0.2,0-0.4s0.1-0.2,0.2-0.3c1.1-0.6,2-1,2.4-1h1.5c0.3,0,0.5,0.2,0.5,0.5v12.1
				c0,0.3-0.2,0.5-0.5,0.5H1368.7z"/>
			<path d="M1370.2,756.4c0.1,0,0.3,0.1,0.3,0.3v6v6c0,0.1-0.1,0.3-0.3,0.3h-1.5c-0.4,0-1.2-0.3-2.3-0.9c-0.1,0-0.1-0.1-0.1-0.1
				c0-0.1,0-0.1,0-0.2c0.6-1,1.5-3,1.5-5c0-2-0.9-4-1.5-5c0-0.1,0-0.1,0-0.2c0-0.1,0.1-0.1,0.1-0.1c1.1-0.6,1.9-0.9,2.3-0.9H1370.2
				 M1370.2,755.9h-1.5c-0.6,0-1.8,0.6-2.5,1c-0.3,0.2-0.5,0.6-0.3,1c0.5,0.9,1.4,2.9,1.4,4.8c0,1.9-0.9,3.8-1.4,4.8
				c-0.2,0.3-0.1,0.8,0.3,1c0.7,0.4,1.9,1,2.5,1h1.5c0.4,0,0.7-0.3,0.7-0.7v-6v-6C1370.9,756.3,1370.6,755.9,1370.2,755.9
				L1370.2,755.9z"/>
		</g>
	</g>
	<g class="st26">
		<polygon class="st21" points="1035.5,758.3 1027.8,762.5 1034.8,769.5 1039,761.8 		"/>
		
			<rect x="1114.6" y="672.7" transform="matrix(-0.7071 -0.7071 0.7071 -0.7071 1431.9097 1948.6364)" class="st9" width="9.9" height="10.2"/>
		
			<rect x="1054.9" y="710.2" transform="matrix(-0.7071 -0.7071 0.7071 -0.7071 1285.6517 2009.5496)" class="st9" width="8.3" height="56.6"/>
		<path class="st23" d="M1121.4,672.4l-2.9,2.9c-0.2,0.2-0.6,0.2-0.8,0l-1.6-1.5c-0.2-0.2-0.6-0.2-0.8,0l-41.5,41.5
			c-0.2,0.2-0.2,0.6,0,0.8l7.4,7.4c0.2,0.2,0.6,0.2,0.8,0l41.3-41.3c0.2-0.2,0.2-0.5,0-0.8l-1.4-1.8c-0.2-0.2-0.2-0.6,0-0.8l3-3
			L1121.4,672.4z"/>
		<g>
			<path class="st5" d="M1043.8,761.3c-0.1,0-0.2,0-0.3-0.1l-7.5-7.5c-0.1-0.1-0.1-0.2-0.1-0.3s0-0.2,0.1-0.3l35.6-35.6
				c0.1-0.1,0.2-0.1,0.3-0.1c0.1,0,0.2,0,0.3,0.1l7.5,7.5c0.1,0.1,0.1,0.4,0,0.5l-35.6,35.6C1044,761.3,1043.9,761.3,1043.8,761.3z"
				/>
			<path d="M1071.9,717.7c0.1,0,0.1,0,0.1,0.1l7.5,7.5c0,0,0.1,0.1,0.1,0.1c0,0.1,0,0.1-0.1,0.1l-35.6,35.6c0,0-0.1,0.1-0.1,0.1
				s-0.1,0-0.1-0.1l-7.5-7.5c0,0-0.1-0.1-0.1-0.1c0-0.1,0-0.1,0.1-0.1l35.6-35.6C1071.8,717.8,1071.8,717.7,1071.9,717.7
				 M1071.9,717.4c-0.1,0-0.3,0.1-0.4,0.2l-35.6,35.6c-0.2,0.2-0.2,0.5,0,0.7l7.5,7.5c0.1,0.1,0.2,0.2,0.4,0.2s0.3-0.1,0.4-0.2
				l35.6-35.6c0.2-0.2,0.2-0.5,0-0.7l-7.5-7.5C1072.2,717.5,1072,717.4,1071.9,717.4L1071.9,717.4z"/>
		</g>
		<g>
			<path class="st5" d="M1039.5,763.8c-0.2,0-0.3-0.1-0.3-0.3c-0.2-0.8-0.8-2.3-1.8-3.3s-2.5-1.6-3.3-1.8c-0.1,0-0.2-0.1-0.2-0.2
				c0-0.1-0.1-0.2,0-0.3c0.3-0.9,0.5-1.5,0.8-1.8l0.8-0.8c0.1-0.1,0.2-0.1,0.2-0.1s0.2,0,0.2,0.1l6.3,6.3c0.1,0.1,0.1,0.2,0.1,0.2
				c0,0.1,0,0.2-0.1,0.2l-0.8,0.8c-0.2,0.2-0.9,0.5-1.8,0.8C1039.5,763.7,1039.5,763.8,1039.5,763.8z"/>
			<path d="M1035.6,755.4c0,0,0.1,0,0.1,0.1l3.1,3.1l3.1,3.1c0.1,0.1,0.1,0.2,0,0.3l-0.8,0.8c-0.2,0.2-0.8,0.5-1.7,0.7
				c0,0,0,0-0.1,0c-0.1,0-0.2-0.1-0.2-0.1c-0.2-0.8-0.8-2.3-1.8-3.4c-1.1-1.1-2.6-1.6-3.4-1.8c0,0-0.1,0-0.1-0.1c0,0,0-0.1,0-0.1
				c0.3-0.9,0.5-1.5,0.7-1.7l0.8-0.8C1035.5,755.5,1035.5,755.4,1035.6,755.4 M1035.6,755.1c-0.1,0-0.3,0.1-0.4,0.2l-0.8,0.8
				c-0.3,0.3-0.6,1.2-0.8,1.8c-0.1,0.3,0.1,0.6,0.4,0.6c0.8,0.2,2.2,0.7,3.3,1.7c1,1,1.5,2.5,1.7,3.3c0.1,0.2,0.3,0.4,0.5,0.4
				c0,0,0.1,0,0.1,0c0.6-0.2,1.5-0.5,1.8-0.8l0.8-0.8c0.2-0.2,0.2-0.5,0-0.7l-3.1-3.1l-3.1-3.1
				C1035.9,755.2,1035.7,755.1,1035.6,755.1L1035.6,755.1z"/>
		</g>
	</g>
	<g class="st25">
		<polygon class="st21" points="1085.6,746.2 1077,748.3 1082,756.9 1088.1,750.5 		"/>
		
			<rect x="1182.6" y="685.1" transform="matrix(-0.5001 -0.866 0.866 -0.5001 1183.8091 2063.7349)" class="st9" width="9.9" height="10.2"/>
		
			<rect x="1109.3" y="704.9" transform="matrix(-0.5001 -0.866 0.866 -0.5001 1035.2925 2064.0352)" class="st9" width="8.3" height="56.6"/>
		<path class="st23" d="M1190.8,685.5l-3.6,2.1c-0.3,0.2-0.6,0.1-0.8-0.2l-1.2-1.9c-0.2-0.3-0.5-0.3-0.8-0.2l-50.8,29.3
			c-0.3,0.2-0.4,0.5-0.2,0.8l5.2,9c0.2,0.3,0.5,0.4,0.8,0.2l50.6-29.2c0.3-0.1,0.4-0.5,0.2-0.7l-0.9-2.1c-0.1-0.3,0-0.6,0.2-0.7
			l3.6-2.1L1190.8,685.5z"/>
		<g>
			<path class="st5" d="M1092.9,751.3c-0.1,0-0.2-0.1-0.3-0.2l-5.3-9.1c-0.1-0.2,0-0.4,0.1-0.5l43.5-25.1c0.1,0,0.1,0,0.2,0
				c0.1,0,0.2,0.1,0.3,0.2l5.3,9.1c0.1,0.2,0,0.4-0.1,0.5l-43.5,25.1C1093.1,751.3,1093,751.3,1092.9,751.3z"/>
			<path d="M1131.2,716.4c0.1,0,0.1,0,0.2,0.1l5.3,9.1c0,0,0,0.1,0,0.1c0,0.1,0,0.1-0.1,0.1l-43.5,25.1c0,0-0.1,0-0.1,0
				c-0.1,0-0.1,0-0.2-0.1l-5.3-9.1c0,0,0-0.1,0-0.1c0-0.1,0-0.1,0.1-0.1L1131.2,716.4C1131.1,716.5,1131.2,716.4,1131.2,716.4
				 M1131.2,716.1c-0.1,0-0.2,0-0.3,0.1l-43.5,25.1c-0.3,0.1-0.3,0.5-0.2,0.7l5.3,9.1c0.1,0.2,0.3,0.3,0.5,0.3c0.1,0,0.2,0,0.3-0.1
				l43.5-25.1c0.3-0.1,0.3-0.5,0.2-0.7l-5.3-9.1C1131.6,716.2,1131.4,716.1,1131.2,716.1L1131.2,716.1z"/>
		</g>
		<g>
			<path class="st5" d="M1088.1,752.5c-0.2,0-0.3-0.2-0.4-0.3c0-0.8-0.1-2.4-0.9-3.7c-0.7-1.3-2-2.2-2.7-2.6c-0.1,0-0.1-0.1-0.2-0.2
				c0-0.1,0-0.2,0-0.3c0.5-0.8,0.9-1.4,1.2-1.5l1-0.6c0.1,0,0.1,0,0.2,0c0.1,0,0.2,0.1,0.3,0.2l4.5,7.7c0,0.1,0.1,0.2,0,0.3
				s-0.1,0.2-0.2,0.2l-1,0.6C1089.8,752.4,1089.1,752.5,1088.1,752.5L1088.1,752.5z"/>
			<path d="M1086.4,743.5c0.1,0,0.1,0,0.2,0.1l2.2,3.9l2.2,3.9c0,0,0,0.1,0,0.1c0,0,0,0.1-0.1,0.1l-1,0.6c-0.2,0.1-0.9,0.2-1.8,0.3
				c-0.1,0-0.2-0.1-0.2-0.2c0-0.8-0.1-2.5-0.9-3.8c-0.7-1.3-2.1-2.2-2.8-2.6c0,0-0.1-0.1-0.1-0.1c0,0,0-0.1,0-0.1
				c0.5-0.8,0.9-1.3,1.1-1.4L1086.4,743.5C1086.3,743.5,1086.4,743.5,1086.4,743.5 M1086.4,743.1c-0.1,0-0.2,0-0.3,0.1l-1,0.6
				c-0.4,0.2-0.9,1-1.2,1.6c-0.2,0.2-0.1,0.6,0.2,0.7c0.7,0.4,2,1.3,2.7,2.5c0.7,1.2,0.8,2.8,0.8,3.6c0,0.3,0.2,0.5,0.5,0.5
				c0,0,0,0,0,0c0.6,0,1.6-0.1,2-0.3l1-0.6c0.2-0.1,0.3-0.5,0.2-0.7l-2.2-3.9l-2.2-3.9C1086.7,743.2,1086.6,743.1,1086.4,743.1
				L1086.4,743.1z"/>
		</g>
	</g>
	<g class="st24">
		<polygon class="st21" points="1140.1,747.2 1131.4,746.9 1133.8,756.5 1141.4,752 		"/>
		
			<rect x="1248.5" y="715.6" transform="matrix(-0.2481 -0.9687 0.9687 -0.2481 866.3419 2113.8523)" class="st9" width="9.9" height="10.2"/>
		
			<rect x="1166.3" y="713.8" transform="matrix(-0.2481 -0.9687 0.9687 -0.2481 741.9542 2060.1814)" class="st9" width="8.3" height="56.6"/>
		<path class="st23" d="M1257.8,717.1l-4,1c-0.3,0.1-0.6-0.1-0.7-0.4l-0.7-2.1c-0.1-0.3-0.4-0.5-0.7-0.4l-56.8,14.6
			c-0.3,0.1-0.5,0.4-0.4,0.7l2.6,10.1c0.1,0.3,0.4,0.5,0.7,0.4l56.6-14.5c0.3-0.1,0.5-0.3,0.4-0.6l-0.3-2.3c0-0.3,0.1-0.6,0.4-0.6
			l4.1-1L1257.8,717.1z"/>
		<g>
			<path class="st5" d="M1145.9,754.1c-0.2,0-0.3-0.1-0.4-0.3l-2.6-10.2c0-0.2,0.1-0.4,0.3-0.4l48.7-12.5c0,0,0,0,0,0
				c0.2,0,0.4,0.1,0.4,0.3l2.6,10.2c0,0.2-0.1,0.4-0.3,0.4L1145.9,754.1L1145.9,754.1z"/>
			<path d="M1192,730.8c0.1,0,0.2,0.1,0.2,0.1l2.6,10.2c0,0.1,0,0.1,0,0.1c0,0-0.1,0.1-0.1,0.1l-48.8,12.5c-0.1,0-0.2-0.1-0.2-0.1
				l-2.6-10.2c0-0.1,0-0.2,0.1-0.2L1192,730.8C1192,730.8,1192,730.8,1192,730.8 M1192,730.5c0,0-0.1,0-0.1,0l-48.7,12.5
				c-0.3,0.1-0.5,0.4-0.4,0.6l2.6,10.2c0.1,0.2,0.3,0.4,0.5,0.4c0,0,0.1,0,0.1,0l48.7-12.5c0.3-0.1,0.5-0.4,0.4-0.6l-2.6-10.2
				C1192.5,730.7,1192.3,730.5,1192,730.5L1192,730.5z"/>
		</g>
		<g>
			<path class="st5" d="M1142.5,754.2c-0.4,0-0.9-0.1-1.6-0.3c-0.1,0-0.2-0.1-0.2-0.2c0-0.1-0.1-0.2,0-0.3c0.2-0.8,0.5-2.4,0.2-3.8
				c-0.4-1.4-1.4-2.6-1.9-3.2c-0.1-0.1-0.1-0.2-0.1-0.3s0-0.2,0.1-0.2c0.7-0.6,1.3-1.1,1.5-1.1l1.1-0.3c0,0,0,0,0,0
				c0.2,0,0.4,0.1,0.4,0.3l2.2,8.6c0,0.2-0.1,0.4-0.3,0.4l-1.1,0.3C1142.7,754.2,1142.6,754.2,1142.5,754.2z"/>
			<path d="M1141.6,744.8c0.1,0,0.2,0.1,0.2,0.1l1.1,4.3l1.1,4.3c0,0,0,0.1,0,0.1c0,0-0.1,0.1-0.1,0.1l-1.1,0.3c0,0-0.1,0-0.2,0
				c-0.3,0-0.9-0.1-1.6-0.3c0,0-0.1,0-0.1-0.1c0,0,0-0.1,0-0.1c0.2-0.8,0.5-2.4,0.2-3.9c-0.4-1.4-1.4-2.7-2-3.3c0,0-0.1-0.1-0.1-0.1
				c0,0,0-0.1,0.1-0.1c0.7-0.6,1.2-1,1.5-1.1L1141.6,744.8C1141.6,744.8,1141.6,744.8,1141.6,744.8 M1141.6,744.4c0,0-0.1,0-0.1,0
				l-1.1,0.3c-0.4,0.1-1.2,0.7-1.6,1.2c-0.2,0.2-0.2,0.5,0,0.7c0.5,0.6,1.6,1.8,1.9,3.2c0.4,1.4,0,2.9-0.2,3.7
				c-0.1,0.3,0.1,0.6,0.4,0.6c0.5,0.1,1.2,0.3,1.7,0.3c0.1,0,0.2,0,0.3,0l1.1-0.3c0.3-0.1,0.4-0.4,0.4-0.6l-1.1-4.3l-1.1-4.3
				C1142,744.6,1141.8,744.4,1141.6,744.4L1141.6,744.4z"/>
		</g>
	</g>
	<g class="st27">
		<polygon class="st21" points="1174.2,761.6 1165.8,759.1 1165.8,769.1 1174.2,766.6 		"/>
		
			<rect x="1285.6" y="758.7" transform="matrix(-2.542373e-03 -1 1 -2.542373e-03 530.1025 2056.2998)" class="st9" width="9.9" height="10.2"/>
		
			<rect x="1200.7" y="735.8" transform="matrix(-2.542373e-03 -1 1 -2.542373e-03 443.757 1970.9409)" class="st9" width="8.3" height="56.6"/>
		<path class="st23" d="M1295.7,761.3l-4.2,0c-0.3,0-0.6-0.2-0.6-0.5l-0.1-2.2c0-0.3-0.3-0.6-0.6-0.5l-58.7,0.1
			c-0.3,0-0.6,0.3-0.6,0.6l0,10.4c0,0.3,0.3,0.6,0.6,0.6l58.5-0.1c0.3,0,0.5-0.2,0.6-0.5l0.3-2.3c0-0.3,0.3-0.5,0.6-0.5l4.2,0
			L1295.7,761.3z"/>
		<g>
			<path class="st5" d="M1178.2,769.7c-0.2,0-0.4-0.2-0.4-0.4l0-10.5c0-0.2,0.2-0.4,0.4-0.4l50.3-0.1c0.2,0,0.4,0.2,0.4,0.4l0,10.5
				c0,0.1,0,0.2-0.1,0.3c-0.1,0.1-0.2,0.1-0.3,0.1L1178.2,769.7L1178.2,769.7z"/>
			<path d="M1228.5,758.5c0.1,0,0.2,0.1,0.2,0.2l0,10.5c0,0.1,0,0.1-0.1,0.1c0,0-0.1,0.1-0.1,0.1l-50.3,0.1c-0.1,0-0.2-0.1-0.2-0.2
				l0-10.5c0-0.1,0.1-0.2,0.2-0.2L1228.5,758.5L1228.5,758.5 M1228.5,758.1C1228.5,758.1,1228.5,758.1,1228.5,758.1l-50.3,0.1
				c-0.3,0-0.5,0.2-0.5,0.5l0,10.5c0,0.3,0.2,0.5,0.5,0.5c0,0,0,0,0,0l50.3-0.1c0.3,0,0.5-0.2,0.5-0.5l0-10.5
				C1229,758.4,1228.8,758.1,1228.5,758.1L1228.5,758.1z"/>
		</g>
		<g>
			<path class="st5" d="M1175,769c-0.3,0-0.9-0.3-1.8-0.7c-0.1,0-0.1-0.1-0.2-0.2s0-0.2,0-0.3c0.4-0.7,1.1-2.2,1.1-3.6
				c0-1.4-0.7-2.9-1.1-3.6c0-0.1-0.1-0.2,0-0.3c0-0.1,0.1-0.2,0.2-0.2c0.8-0.5,1.5-0.7,1.8-0.7l1.1,0c0.2,0,0.4,0.2,0.4,0.4l0,8.9
				c0,0.2-0.2,0.4-0.4,0.4L1175,769L1175,769z"/>
			<path d="M1176.2,759.6c0.1,0,0.2,0.1,0.2,0.2l0,4.5l0,4.5c0,0.1-0.1,0.2-0.2,0.2l-1.1,0c-0.3,0-0.9-0.3-1.7-0.7
				c0,0-0.1-0.1-0.1-0.1c0,0,0-0.1,0-0.1c0.4-0.7,1.1-2.2,1.1-3.7c0-1.5-0.7-3-1.1-3.7c0,0,0-0.1,0-0.1c0,0,0-0.1,0.1-0.1
				c0.8-0.4,1.4-0.7,1.7-0.7L1176.2,759.6L1176.2,759.6 M1176.2,759.3C1176.2,759.3,1176.2,759.3,1176.2,759.3l-1.1,0
				c-0.4,0-1.3,0.4-1.9,0.7c-0.3,0.1-0.3,0.5-0.2,0.7c0.4,0.7,1.1,2.1,1.1,3.5c0,1.4-0.7,2.8-1.1,3.5c-0.1,0.3,0,0.6,0.2,0.7
				c0.5,0.3,1.4,0.7,1.9,0.7c0,0,0,0,0,0l1.1,0c0.3,0,0.5-0.2,0.5-0.5l0-4.5l0-4.5C1176.7,759.5,1176.4,759.3,1176.2,759.3
				L1176.2,759.3z"/>
		</g>
	</g>
	<g id="Boostback_Burn_1_" class="st12">
		<rect x="1280" y="173.8" class="st16" width="184.8" height="16"/>
		<text transform="matrix(1 0 0 1 1279.9998 189.2533)" class="st5 st17 st18">BOOSTBACK BURN</text>
		<rect x="1082.1" y="562.2" class="st16" width="395.8" height="39.1"/>
		<text transform="matrix(1 0 0 1 1120.0009 577.5771)"><tspan x="0" y="0" class="st5 st17 st18">Engines light to bring first stage back </tspan><tspan x="23.4" y="19.6" class="st5 st17 st18">in trajectory toward landing site</tspan></text>
	</g>
</g>
<g id="Atmosphere_Entry" class="st11">
	<linearGradient id="SVGID_1_" gradientUnits="userSpaceOnUse" x1="1120.0001" y1="720" x2="1600.745" y2="720">
		<stop  offset="0" style="stop-color:#0F0F0F"/>
		<stop  offset="0.3818" style="stop-color:#11100F"/>
		<stop  offset="0.5193" style="stop-color:#181210"/>
		<stop  offset="0.6174" style="stop-color:#231611"/>
		<stop  offset="0.6967" style="stop-color:#341B12"/>
		<stop  offset="0.7646" style="stop-color:#4A2315"/>
		<stop  offset="0.8248" style="stop-color:#662C17"/>
		<stop  offset="0.8792" style="stop-color:#86371A"/>
		<stop  offset="0.9292" style="stop-color:#AC431E"/>
		<stop  offset="0.9737" style="stop-color:#D55121"/>
		<stop  offset="1" style="stop-color:#F15A24"/>
	</linearGradient>
	<polygon class="st28" points="1555,810 1120,810 1120,630 1600.7,630 1600.7,764.2 	"/>
	<g class="st12">
		
			<rect x="1369.4" y="712.9" transform="matrix(-1.836970e-16 1 -1 -1.836970e-16 2095.9431 -656.3923)" class="st9" width="13.5" height="13.8"/>
		
			<rect x="1254.3" y="681.2" transform="matrix(-1.836970e-16 1 -1 -1.836970e-16 1979.4521 -540.3503)" class="st9" width="11.2" height="76.8"/>
		<path class="st9" d="M1218.8,714.8c0,0-5.4-2.2-9-1.8c-3.6,0.4-2.7,13-1.3,13.5c1.3,0.4,8.1-1.3,8.1-1.3s2.7,0,3.1-1.3
			c0.4-1.3,0.9-7.6,0.4-8.1C1219.7,715.3,1218.8,714.8,1218.8,714.8z"/>
		<path class="st10" d="M1177,719.8c22.9,9.4,26,7.2,30.5,7.6c4.5,0.4,7.6-7.6,7.6-7.6v0c0,0-3.1-8.1-7.6-7.6
			C1203.1,712.6,1199.9,710.3,1177,719.8L1177,719.8z"/>
		<path class="st22" d="M1383.1,723.1h-5.7c-0.4,0-0.8,0.3-0.8,0.7l-0.1,3c0,0.4-0.4,0.7-0.8,0.7h-79.5c-0.4,0-0.8-0.4-0.8-0.8
			v-14.1c0-0.4,0.4-0.8,0.8-0.8h79.3c0.4,0,0.7,0.3,0.8,0.7l0.4,3.1c0,0.4,0.4,0.7,0.8,0.7h5.7V723.1z"/>
		<g>
			<path class="st5" d="M1223.8,727.4c-0.3,0-0.5-0.2-0.5-0.5v-14.3c0-0.3,0.2-0.5,0.5-0.5h68.2c0.3,0,0.5,0.2,0.5,0.5v14.3
				c0,0.3-0.2,0.5-0.5,0.5H1223.8z"/>
			<path d="M1292,712.4c0.1,0,0.3,0.1,0.3,0.3v14.3c0,0.1-0.1,0.3-0.3,0.3h-68.2c-0.1,0-0.3-0.1-0.3-0.3v-14.3
				c0-0.1,0.1-0.3,0.3-0.3H1292 M1292,711.9h-68.2c-0.4,0-0.7,0.3-0.7,0.7v14.3c0,0.4,0.3,0.7,0.7,0.7h68.2c0.4,0,0.7-0.3,0.7-0.7
				v-14.3C1292.7,712.2,1292.4,711.9,1292,711.9L1292,711.9z"/>
		</g>
		<g>
			<path class="st5" d="M1219.5,726.1c-0.4,0-1.3-0.4-2.4-1c-0.1-0.1-0.2-0.2-0.2-0.3c0-0.1,0-0.3,0-0.4c0.5-1,1.5-2.9,1.5-4.9
				c0-2-0.9-3.9-1.5-4.9c-0.1-0.1-0.1-0.2,0-0.4c0-0.1,0.1-0.2,0.2-0.3c1.1-0.6,2-1,2.4-1h1.5c0.3,0,0.5,0.2,0.5,0.5v12.1
				c0,0.3-0.2,0.5-0.5,0.5H1219.5z"/>
			<path d="M1221,713.3c0.1,0,0.3,0.1,0.3,0.3v6v6c0,0.1-0.1,0.3-0.3,0.3h-1.5c-0.4,0-1.2-0.3-2.3-0.9c-0.1,0-0.1-0.1-0.1-0.1
				c0-0.1,0-0.1,0-0.2c0.6-1,1.5-3,1.5-5c0-2-0.9-4-1.5-5c0-0.1,0-0.1,0-0.2c0-0.1,0.1-0.1,0.1-0.1c1.1-0.6,1.9-0.9,2.3-0.9H1221
				 M1221,712.8h-1.5c-0.6,0-1.8,0.6-2.5,1c-0.3,0.2-0.5,0.6-0.3,1c0.5,0.9,1.4,2.9,1.4,4.8c0,1.9-0.9,3.8-1.4,4.8
				c-0.2,0.3-0.1,0.8,0.3,1c0.7,0.4,1.9,1,2.5,1h1.5c0.4,0,0.7-0.3,0.7-0.7v-6v-6C1221.7,713.1,1221.4,712.8,1221,712.8L1221,712.8z
				"/>
		</g>
	</g>
	<g id="Atmosphere_Entry_1_" class="st12">
		<rect x="1440.5" y="226.6" class="st16" width="235.4" height="15.6"/>
		<text transform="matrix(1 0 0 1 1440.5081 242.005)" class="st5 st17 st18">ATMOSPHERE ENTRY </text>
		<rect x="1082.1" y="562.2" class="st16" width="395.8" height="39.1"/>
		<text transform="matrix(1 0 0 1 1110.1552 577.5771)"><tspan x="0" y="0" class="st5 st17 st18">First stage fly back in atmosphere while </tspan><tspan x="31.1" y="19.6" class="st5 st17 st18">engines light again to slow down</tspan></text>
	</g>
</g>
<g id="Dynamic_Guidance_1_" class="st11">
	<linearGradient id="SVGID_2_" gradientUnits="userSpaceOnUse" x1="960" y1="720" x2="1600.745" y2="720">
		<stop  offset="0" style="stop-color:#0F0F0F"/>
		<stop  offset="0.1907" style="stop-color:#0F1112"/>
		<stop  offset="0.3439" style="stop-color:#0E161C"/>
		<stop  offset="0.4841" style="stop-color:#0C202D"/>
		<stop  offset="0.6165" style="stop-color:#0A2E45"/>
		<stop  offset="0.7436" style="stop-color:#083F64"/>
		<stop  offset="0.8664" style="stop-color:#045489"/>
		<stop  offset="0.984" style="stop-color:#016DB5"/>
		<stop  offset="1" style="stop-color:#0071BC"/>
	</linearGradient>
	<polygon class="st29" points="1554.3,810 960,810 960,630 1600.7,630 1600.7,764.4 	"/>
	<g class="st12">
		<polygon class="st21" points="1203.4,716.6 1191.9,713.2 1191.9,726.8 1203.4,723.4 		"/>
		
			<rect x="1354.4" y="713.1" transform="matrix(4.522611e-11 -1 1 4.522611e-11 641.166 2081.166)" class="st9" width="13.5" height="13.8"/>
		
			<rect x="1239.3" y="681.8" transform="matrix(4.536111e-11 -1 1 4.536111e-11 524.6748 1965.1239)" class="st9" width="11.2" height="76.8"/>
		<path class="st22" d="M1368.1,716.6h-5.7c-0.4,0-0.8-0.3-0.8-0.7l-0.1-3c0-0.4-0.4-0.7-0.8-0.7h-79.5c-0.4,0-0.8,0.4-0.8,0.8v14.1
			c0,0.4,0.4,0.8,0.8,0.8h79.3c0.4,0,0.7-0.3,0.8-0.7l0.4-3.1c0-0.4,0.4-0.7,0.8-0.7h5.7V716.6z"/>
		<g>
			<path class="st5" d="M1208.8,727.6c-0.3,0-0.5-0.2-0.5-0.5v-14.3c0-0.3,0.2-0.5,0.5-0.5h68.2c0.3,0,0.5,0.2,0.5,0.5v14.3
				c0,0.3-0.2,0.5-0.5,0.5H1208.8z"/>
			<path d="M1277,712.6c0.1,0,0.3,0.1,0.3,0.3v14.3c0,0.1-0.1,0.3-0.3,0.3h-68.2c-0.1,0-0.3-0.1-0.3-0.3v-14.3
				c0-0.1,0.1-0.3,0.3-0.3H1277 M1277,712.1h-68.2c-0.4,0-0.7,0.3-0.7,0.7v14.3c0,0.4,0.3,0.7,0.7,0.7h68.2c0.4,0,0.7-0.3,0.7-0.7
				v-14.3C1277.7,712.5,1277.4,712.1,1277,712.1L1277,712.1z"/>
		</g>
		<g>
			<path class="st5" d="M1204.5,726.7c-0.4,0-1.3-0.4-2.4-1c-0.1-0.1-0.2-0.2-0.2-0.3c0-0.1,0-0.3,0-0.4c0.5-1,1.5-2.9,1.5-4.9
				s-0.9-3.9-1.5-4.9c-0.1-0.1-0.1-0.2,0-0.4c0-0.1,0.1-0.2,0.2-0.3c1.1-0.6,2-1,2.4-1h1.5c0.3,0,0.5,0.2,0.5,0.5v12.1
				c0,0.3-0.2,0.5-0.5,0.5H1204.5z"/>
			<path d="M1206,713.9c0.1,0,0.3,0.1,0.3,0.3v6v6c0,0.1-0.1,0.3-0.3,0.3h-1.5c-0.4,0-1.2-0.3-2.3-0.9c-0.1,0-0.1-0.1-0.1-0.1
				c0-0.1,0-0.1,0-0.2c0.6-1,1.5-3,1.5-5s-0.9-4-1.5-5c0-0.1,0-0.1,0-0.2c0-0.1,0.1-0.1,0.1-0.1c1.1-0.6,1.9-0.9,2.3-0.9H1206
				 M1206,713.5h-1.5c-0.6,0-1.8,0.6-2.5,1c-0.3,0.2-0.5,0.6-0.3,1c0.5,0.9,1.4,2.9,1.4,4.8c0,1.9-0.9,3.8-1.4,4.8
				c-0.2,0.3-0.1,0.8,0.3,1c0.7,0.4,1.9,1,2.5,1h1.5c0.4,0,0.7-0.3,0.7-0.7v-6v-6C1206.7,713.8,1206.4,713.5,1206,713.5L1206,713.5z
				"/>
		</g>
	</g>
	<g id="Dynamic_Guidance" class="st12">
		<rect x="1600" y="318.4" class="st16" width="211.4" height="15.8"/>
		<text transform="matrix(1 0 0 1 1599.9998 333.8469)" class="st5 st17 st18">DYNAMIC GUIDANCE</text>
		<rect x="1082.1" y="562.2" class="st16" width="395.8" height="39.1"/>
		<text transform="matrix(1 0 0 1 1102.9735 577.5771)"><tspan x="0" y="0" class="st5 st17 st18">Grid fins steer lift produced by first stage </tspan><tspan x="46.2" y="19.6" class="st5 st17 st18">bringing it to precision landing</tspan></text>
	</g>
</g>
<g id="Fairing_Separation" class="st11">
	<g class="st12">
		<path class="st30" d="M1305.7,730.4c0,0,40.7,21,40.7,21c-3.9,4.4-16.4,0-16.4,0l-27.6-14.6L1305.7,730.4z"/>
		<path class="st30" d="M1305.7,709.6c0,0,40.7-21,40.7-21c-3.9-4.4-16.4,0-16.4,0l-27.6,14.6L1305.7,709.6z"/>
		<g>
			<g>
				<g>
					<line class="st9" x1="1243.8" y1="713.2" x2="1243.8" y2="726.7"/>
					<path class="st19" d="M1234.4,716.6h5.7c0.4,0,0.8-0.4,0.8-0.8v-2.9c0-0.4,0.4-0.8,0.8-0.8h58.3c0.4,0,0.8,0.4,0.8,0.8v14.2
						c0,0.4-0.4,0.8-0.8,0.8h-58.3c-0.4,0-0.8-0.4-0.8-0.8v-2.9c0-0.4-0.4-0.8-0.8-0.8h-5.7L1234.4,716.6z"/>
					
						<rect x="1299.1" y="714" transform="matrix(-1.836970e-16 1 -1 -1.836970e-16 2019.1552 -586.4999)" class="st10" width="7.5" height="4.7"/>
					
						<rect x="1299.2" y="721.4" transform="matrix(-1.836970e-16 1 -1 -1.836970e-16 2026.5863 -579.0689)" class="st9" width="7.3" height="4.7"/>
				</g>
				<polygon class="st21" points="1234.1,721.7 1228.4,723.4 1228.4,716.6 1234.1,718.3 				"/>
				<path class="st10" d="M1209.3,720.1c11.5,4.7,13,3.6,15.3,3.8c2.2,0.2,3.8-3.8,3.8-3.8v0c0,0-1.6-4-3.8-3.8
					C1222.3,716.5,1220.8,715.4,1209.3,720.1L1209.3,720.1z"/>
			</g>
			<path class="st31" d="M1336.3,727.3l-31.3,0.3l-0.1-14.9l31.3-0.3c0,0,14.5,1.5,14.5,6.5l0,1.7
				C1350.7,725.6,1336.3,727.3,1336.3,727.3"/>
		</g>
	</g>
	<g id="Fairing_Separation_1_" class="st12">
		<rect x="1071" y="69.7" class="st16" width="211.4" height="15.5"/>
		<text transform="matrix(1 0 0 1 1092.6167 85.1535)" class="st5 st17 st18">FAIRING SEPARATION</text>
		<rect x="1082.1" y="562.2" class="st16" width="395.8" height="39.1"/>
		<text transform="matrix(1 0 0 1 1122.5302 577.5771)"><tspan x="0" y="0" class="st5 st17 st18">Fairing separates from second stage </tspan><tspan x="37.5" y="19.6" class="st5 st17 st18">and let space vehicle visible </tspan></text>
	</g>
</g>
<g id="Payload_separation" class="st11">
	<g class="st12">
		<g>
			<g>
				<g>
					<line class="st9" x1="1227.4" y1="713.1" x2="1227.4" y2="726.6"/>
					<path class="st19" d="M1218,716.5h5.7c0.4,0,0.8-0.4,0.8-0.8v-2.9c0-0.4,0.4-0.8,0.8-0.8h58.3c0.4,0,0.8,0.4,0.8,0.8V727
						c0,0.4-0.4,0.8-0.8,0.8h-58.3c-0.4,0-0.8-0.4-0.8-0.8V724c0-0.4-0.4-0.8-0.8-0.8h-5.7L1218,716.5z"/>
					
						<rect x="1282.7" y="713.9" transform="matrix(-1.836970e-16 1 -1 -1.836970e-16 2002.6696 -570.2175)" class="st10" width="7.5" height="4.7"/>
					
						<rect x="1282.8" y="721.3" transform="matrix(-1.836970e-16 1 -1 -1.836970e-16 2010.1006 -562.7864)" class="st9" width="7.3" height="4.7"/>
				</g>
				<polygon class="st21" points="1217.7,721.6 1212,723.3 1212,716.5 1217.7,718.2 				"/>
				<path class="st10" d="M1192.9,720c11.5,4.7,13,3.6,15.3,3.8c2.2,0.2,3.8-3.8,3.8-3.8v0c0,0-1.6-4-3.8-3.8
					C1206,716.4,1204.4,715.3,1192.9,720L1192.9,720z"/>
			</g>
		</g>
		<g>
			<path class="st31" d="M1353.5,727.2h-31.4v-14.7h31.3c0,0,14.5,1.3,14.5,6.3l0,1.7C1367.9,725.5,1353.5,727.2,1353.5,727.2"/>
			<rect x="1322.1" y="681.3" class="st21" width="31.3" height="31.3"/>
			<rect x="1322.1" y="727.2" class="st21" width="31.3" height="31.3"/>
			<g>
				<rect x="1322.1" y="681.3" class="st32" width="31.3" height="31.3"/>
				<line class="st32" x1="1322.1" y1="709.1" x2="1353.4" y2="709.1"/>
				<line class="st32" x1="1322.1" y1="705.6" x2="1353.4" y2="705.6"/>
				<line class="st32" x1="1322.1" y1="702.2" x2="1353.4" y2="702.2"/>
				<line class="st32" x1="1322.1" y1="698.7" x2="1353.4" y2="698.7"/>
				<line class="st32" x1="1322.1" y1="695.2" x2="1353.4" y2="695.2"/>
				<line class="st32" x1="1322.1" y1="691.7" x2="1353.4" y2="691.7"/>
				<line class="st32" x1="1322.1" y1="688.2" x2="1353.4" y2="688.2"/>
				<line class="st32" x1="1322.1" y1="684.8" x2="1353.4" y2="684.8"/>
				<line class="st32" x1="1349.9" y1="681.3" x2="1349.9" y2="712.6"/>
				<line class="st32" x1="1346.4" y1="681.3" x2="1346.4" y2="712.6"/>
				<line class="st32" x1="1343" y1="681.3" x2="1343" y2="712.6"/>
				<line class="st32" x1="1339.5" y1="681.3" x2="1339.5" y2="712.6"/>
				<line class="st32" x1="1336" y1="681.3" x2="1336" y2="712.6"/>
				<line class="st32" x1="1332.5" y1="681.3" x2="1332.5" y2="712.6"/>
				<line class="st32" x1="1329" y1="681.3" x2="1329" y2="712.6"/>
				<line class="st32" x1="1325.6" y1="681.3" x2="1325.6" y2="712.6"/>
			</g>
			<g>
				<rect x="1322.1" y="727.2" class="st32" width="31.3" height="31.3"/>
				<line class="st32" x1="1322.1" y1="755.1" x2="1353.4" y2="755.1"/>
				<line class="st32" x1="1322.1" y1="751.6" x2="1353.4" y2="751.6"/>
				<line class="st32" x1="1322.1" y1="748.1" x2="1353.4" y2="748.1"/>
				<line class="st32" x1="1322.1" y1="744.6" x2="1353.4" y2="744.6"/>
				<line class="st32" x1="1322.1" y1="741.1" x2="1353.4" y2="741.1"/>
				<line class="st32" x1="1322.1" y1="737.7" x2="1353.4" y2="737.7"/>
				<line class="st32" x1="1322.1" y1="734.2" x2="1353.4" y2="734.2"/>
				<line class="st32" x1="1322.1" y1="730.7" x2="1353.4" y2="730.7"/>
				<line class="st32" x1="1349.9" y1="727.2" x2="1349.9" y2="758.5"/>
				<line class="st32" x1="1346.4" y1="727.2" x2="1346.4" y2="758.5"/>
				<line class="st32" x1="1343" y1="727.2" x2="1343" y2="758.5"/>
				<line class="st32" x1="1339.5" y1="727.2" x2="1339.5" y2="758.5"/>
				<line class="st32" x1="1336" y1="727.2" x2="1336" y2="758.5"/>
				<line class="st32" x1="1332.5" y1="727.2" x2="1332.5" y2="758.5"/>
				<line class="st32" x1="1329" y1="727.2" x2="1329" y2="758.5"/>
				<line class="st32" x1="1325.6" y1="727.2" x2="1325.6" y2="758.5"/>
			</g>
			<polygon class="st21" points="1322.1,721.6 1316.4,723.3 1316.4,716.5 1322.1,718.2 			"/>
			<path class="st10" d="M1306.8,719.9c5.7,2.4,6.5,1.8,7.6,1.9c1.1,0.1,1.9-1.9,1.9-1.9v0c0,0-0.8-2-1.9-1.9
				C1313.3,718.1,1312.5,717.5,1306.8,719.9L1306.8,719.9z"/>
		</g>
	</g>
	<g id="Payload_Separation" class="st12">
		<rect x="1538.6" y="50.5" class="st16" width="224.4" height="15.5"/>
		<text transform="matrix(1 0 0 1 1558.3776 65.9488)" class="st5 st17 st18">PAYLOAD SEPARATION</text>
		<rect x="1082.1" y="562.2" class="st16" width="395.8" height="39.1"/>
		<text transform="matrix(1 0 0 1 1096.3143 577.5771)"><tspan x="0" y="0" class="st5 st17 st18">Payload, as weel as crew capsule, separate </tspan><tspan x="-9.8" y="19.6" class="st5 st17 st18">from second stage and fly to final destination</tspan></text>
	</g>
</g>
<g id="Frame">
	<polygon class="st33" points="960,585 1005,540 1600,540 1600,630 960,630 	"/>
	<polygon class="st34" points="960,573.1 960,540 993.1,540 	"/>
	<polygon class="st33" points="1600,765 1555,810 960,810 960,630 1600,630 	"/>
	<g>
		<rect id="rocket_ascent" x="960" y="821.7" class="st35" width="74.4" height="10"/>
		<rect id="stage_separation" x="1034.4" y="821.7" class="st36" width="74.4" height="10"/>
		<rect id="flip_maneuver" x="1108.8" y="821.7" class="st36" width="74.4" height="10"/>
		<rect id="boostback_burn" x="1183.1" y="821.7" class="st36" width="74.4" height="10"/>
		<rect id="atmosphere_entry" x="1257.5" y="821.7" class="st36" width="74.4" height="10"/>
		<rect id="dynamic_guidance" x="1331.9" y="821.7" class="st36" width="74.4" height="10"/>
		<rect id="fairing_separation" x="1406.2" y="821.7" class="st36" width="74.4" height="10"/>
		<rect id="payload_separation" x="1480.6" y="821.7" class="st36" width="74.4" height="10"/>
	</g>
</g>
<g id="Texts">
	<rect x="39.1" y="710.8" class="st16" width="94.2" height="18.5"/>
	<text transform="matrix(1 0 0 1 58.8265 726.2679)" class="st5 st17 st18">LAUNCH</text>
	<rect x="1786.7" y="530" class="st16" width="94.2" height="15.6"/>
	<text transform="matrix(1 0 0 1 1786.6736 545.4262)" class="st5 st17 st18">LANDING</text>
</g>
</svg>
