<?xml version="1.0" encoding="utf-8"?>
<!-- Generator: Adobe Illustrator 22.1.0, SVG Export Plug-In . SVG Version: 6.00 Build 0)  -->
<svg version="1.1" id="Livello_1" xmlns="http://www.w3.org/2000/svg" xmlns:xlink="http://www.w3.org/1999/xlink" x="0px" y="0px"
	 viewBox="0 0 831 377.8" style="enable-background:new 0 0 831 377.8;" xml:space="preserve">
<style type="text/css">
	.st0{fill:#FFFFFF;}
	.st1{fill:#F2652B;}
	.st2{fill:#2B317F;}
	.st3{fill:#C6C6C6;}
	.st4{enable-background:new    ;}
	.st5{fill:#312782;}
	.st6{fill:#E84E1B;}
	.st7{fill:#010000;}
	.st8{fill:#1D1E1C;}
</style>
<g>
	<g>
		<rect class="st0" width="831" height="377.8"/>
	</g>
</g>
<g>
	<rect x="163.2" y="276.2" class="st1" width="90.8" height="21.1"/>
</g>
<g>
	<path class="st1" d="M825.8,216.7h-232v-21.8c0-0.1,0.1-0.2,0.2-0.2s0.2,0.1,0.2,0.2v21.2h230.9v-21.2c0-0.1,0.1-0.2,0.2-0.2
		s0.2,0.1,0.2,0.2v21.8H825.8z"/>
</g>
<g>
	<rect x="675.8" y="122.8" class="st1" width="151.2" height="31.4"/>
</g>
<g>
	<rect x="567.1" y="122.8" class="st2" width="106.3" height="31.3"/>
</g>
<g>
	<rect x="91" y="122.8" class="st3" width="473.7" height="31.4"/>
</g>
<g class="st4">
	<path class="st0" d="M593.7,135c0.7,0.5,1,1.3,1,2.3c0,1.1-0.3,1.9-1,2.4s-1.6,0.8-2.8,0.8h-1.1v3.4H588v-9.7h2.9
		C592,134.2,593,134.5,593.7,135z M592.2,138.7c0.3-0.3,0.5-0.7,0.5-1.4c0-1.1-0.7-1.7-2-1.7h-1v3.6h1
		C591.4,139.2,591.9,139,592.2,138.7z"/>
	<path class="st0" d="M600.5,143.9l-0.6-2.2h-3.2l-0.6,2.2h-1.9l3-9.7h2.3l3,9.7H600.5z M597,140.3h2.5l-1.2-4.6L597,140.3z"/>
	<path class="st0" d="M606.5,140h-1.2v3.9h-1.8v-9.7h2.9c2.6,0,3.8,0.9,3.8,2.8c0,0.6-0.2,1.2-0.5,1.6s-0.8,0.8-1.5,1l2.5,4.2h-2.1
		L606.5,140z M605.4,138.7h1.1c0.6,0,1-0.1,1.3-0.4c0.3-0.3,0.5-0.7,0.5-1.2s-0.2-0.9-0.5-1.1c-0.3-0.2-0.8-0.4-1.5-0.4h-1v3.1
		H605.4z"/>
	<path class="st0" d="M618,134.2l-0.2,1.5h-2.5v8.2h-1.9v-8.2h-2.6v-1.5H618z"/>
	<path class="st0" d="M621,134.2v9.7h-1.8v-9.7H621z"/>
	<path class="st0" d="M628.4,143.9l-0.6-2.2h-3.2l-0.6,2.2h-1.9l3-9.7h2.3l3,9.7H628.4z M625,140.3h2.5l-1.2-4.6L625,140.3z"/>
	<path class="st0" d="M633.3,134.2v8.2h3.9l-0.2,1.5h-5.5v-9.7H633.3z"/>
	<path class="st0" d="M640.4,134.2v8.2h3.9l-0.2,1.5h-5.5v-9.7H640.4z"/>
	<path class="st0" d="M651.3,134.2l-3.1,6v3.7h-1.9v-3.7l-3.1-6h2l2,4.5l2-4.5H651.3z"/>
</g>
<g class="st4">
	<path class="st0" d="M326.8,143.9h-2.4l-3.3-7.8c0.1,0.7,0.1,1.3,0.2,1.9c0,0.6,0.1,1.2,0.1,2v3.9h-1.7v-9.7h2.3l3.4,7.8
		c-0.1-0.4-0.1-0.9-0.2-1.5s-0.1-1.2-0.1-1.8v-4.5h1.7V143.9z"/>
	<path class="st0" d="M335,134.6c0.6,0.4,1.1,1,1.5,1.7c0.3,0.8,0.5,1.7,0.5,2.7c0,1.1-0.2,2-0.5,2.7c-0.3,0.8-0.8,1.3-1.5,1.7
		c-0.6,0.4-1.4,0.6-2.2,0.6c-0.9,0-1.6-0.2-2.3-0.6s-1.1-1-1.5-1.7c-0.3-0.8-0.5-1.7-0.5-2.7s0.2-1.9,0.5-2.7s0.8-1.3,1.5-1.7
		c0.6-0.4,1.4-0.6,2.2-0.6C333.6,134,334.4,134.2,335,134.6z M331,136.3c-0.4,0.6-0.6,1.5-0.6,2.8c0,2.4,0.8,3.6,2.3,3.6
		c0.7,0,1.3-0.3,1.7-0.9c0.4-0.6,0.6-1.5,0.6-2.8s-0.2-2.2-0.6-2.8s-1-0.9-1.7-0.9C332,135.4,331.4,135.7,331,136.3z"/>
</g>
<g class="st4">
	<path class="st0" d="M747.8,134.2l-3.1,6v3.7h-1.9v-3.7l-3.1-6h2l2,4.5l2-4.5H747.8z"/>
	<path class="st0" d="M754.5,134.2l-0.2,1.4h-3.6v2.7h3.1v1.4h-3.1v2.8h3.8v1.4h-5.7v-9.7L754.5,134.2L754.5,134.2z"/>
	<path class="st0" d="M760.8,134.3c0.5,0.2,1,0.5,1.4,0.9l-0.9,1.1c-0.3-0.3-0.7-0.5-1-0.6c-0.4-0.1-0.7-0.2-1.1-0.2
		c-0.4,0-0.8,0.1-1.1,0.3s-0.4,0.5-0.4,0.8c0,0.2,0.1,0.4,0.2,0.6c0.1,0.2,0.3,0.3,0.6,0.4c0.3,0.1,0.7,0.3,1.2,0.5
		c1,0.3,1.7,0.7,2.1,1.1s0.7,1.1,0.7,1.9c0,0.6-0.1,1.1-0.4,1.5s-0.7,0.8-1.3,1s-1.2,0.4-2,0.4c-0.7,0-1.4-0.1-2-0.4
		c-0.6-0.2-1.1-0.6-1.5-1l1-1.1c0.4,0.3,0.8,0.6,1.2,0.7s0.8,0.2,1.3,0.2s1-0.1,1.3-0.4c0.3-0.3,0.5-0.6,0.5-1.1
		c0-0.3-0.1-0.5-0.2-0.7c-0.1-0.2-0.3-0.3-0.6-0.5s-0.7-0.3-1.2-0.5c-1-0.3-1.8-0.7-2.2-1.1c-0.5-0.4-0.7-1-0.7-1.8
		c0-0.5,0.1-1,0.4-1.4c0.3-0.4,0.7-0.7,1.2-0.9s1.1-0.3,1.7-0.3C759.7,134,760.3,134.1,760.8,134.3z"/>
</g>
<g>
	<g class="st4">
		<path class="st0" d="M196.2,290.4l-0.5-1.9H193l-0.5,1.9h-1.6l2.6-8.3h2l2.6,8.3H196.2z M193.3,287.3h2.1l-1.1-4L193.3,287.3z"/>
		<path class="st0" d="M204,283c0.8,0.6,1.2,1.7,1.2,3.2s-0.4,2.6-1.1,3.2c-0.8,0.6-1.7,0.9-2.9,0.9h-2.3V282h2
			C202.2,282.1,203.2,282.4,204,283z M200.4,283.3v5.9h0.8c0.7,0,1.3-0.2,1.7-0.7c0.4-0.4,0.6-1.2,0.6-2.3c0-0.8-0.1-1.4-0.3-1.8
			s-0.5-0.7-0.8-0.9s-0.7-0.2-1.2-0.2H200.4z"/>
		<path class="st0" d="M211.7,283c0.8,0.6,1.2,1.7,1.2,3.2s-0.4,2.6-1.1,3.2c-0.8,0.6-1.7,0.9-2.9,0.9h-2.3V282h2
			C209.9,282.1,211,282.4,211.7,283z M208.2,283.3v5.9h0.8c0.7,0,1.3-0.2,1.7-0.7c0.4-0.4,0.6-1.2,0.6-2.3c0-0.8-0.1-1.4-0.3-1.8
			s-0.5-0.7-0.8-0.9s-0.7-0.2-1.2-0.2H208.2z"/>
		<path class="st0" d="M219.2,282.1l-0.2,1.2h-3v2.3h2.7v1.2H216v2.4h3.3v1.2h-4.9v-8.3L219.2,282.1L219.2,282.1z"/>
		<path class="st0" d="M223.3,287.1h-1v3.3h-1.6v-8.3h2.5c2.2,0,3.3,0.8,3.3,2.4c0,0.6-0.1,1-0.4,1.4c-0.3,0.4-0.7,0.7-1.3,0.9
			l2.2,3.6h-1.8L223.3,287.1z M222.3,286h1c0.5,0,0.9-0.1,1.1-0.3c0.3-0.2,0.4-0.6,0.4-1.1c0-0.4-0.1-0.8-0.4-1s-0.7-0.3-1.3-0.3
			h-0.9L222.3,286L222.3,286z"/>
		<path class="st0" d="M232.5,290.4l-0.5-1.9h-2.7l-0.5,1.9h-1.6l2.6-8.3h2l2.6,8.3H232.5z M229.5,287.3h2.1l-1.1-4L229.5,287.3z"/>
		<path class="st0" d="M236.7,282.1v7h3.3l-0.2,1.3h-4.7v-8.3H236.7z"/>
		<path class="st0" d="M242.7,282.1v7h3.3l-0.2,1.3h-4.7v-8.3H242.7z"/>
	</g>
</g>
<g>
	<path class="st1" d="M575,216.7H343v-21.8c0-0.1,0.1-0.2,0.2-0.2s0.2,0.1,0.2,0.2v21.2h230.9v-21.2c0-0.1,0.1-0.2,0.2-0.2
		s0.2,0.1,0.2,0.2v21.8H575z"/>
</g>
<g>
	<path class="st1" d="M322.8,216.7H90.9v-21.8c0-0.1,0.1-0.2,0.2-0.2s0.2,0.1,0.2,0.2v21.2h230.9v-21.2c0-0.1,0.1-0.2,0.2-0.2
		s0.2,0.1,0.2,0.2v21.8H322.8z"/>
</g>
<g>
	<path class="st5" d="M728.6,179.6"/>
</g>
<g>
	<rect x="91.1" y="170.3" class="st3" width="114.4" height="19.9"/>
</g>
<g>
	<rect x="342.2" y="170.3" class="st3" width="169.2" height="20"/>
</g>
<g>
	<rect x="208.7" y="170.3" class="st1" width="114.5" height="19.9"/>
</g>
<g>
	<rect x="756" y="170.3" class="st2" width="64" height="20"/>
</g>
<g>
	<rect x="593.8" y="170.3" class="st3" width="159.9" height="20"/>
</g>
<g>
	<rect x="513.6" y="170.2" class="st2" width="36.6" height="20"/>
</g>
<g>
	<rect x="552.5" y="170.3" class="st1" width="22.7" height="20"/>
</g>
<g>
	<rect x="822.3" y="170.3" class="st1" width="4.5" height="20"/>
</g>
<g>
	<g>
		<path class="st0" d="M180,288.7c0.7-0.5,1.3-1.1,1.8-1.8c0,0,1,0.9,1,1c1,1,2,2,3,3c0.4,0.4,0.5,1,0.3,1.5c-0.3,0.8-1.4,1-2,0.4
			c-0.4-0.4-0.8-0.8-1.2-1.2C182.3,291,180.7,289.4,180,288.7z"/>
		<path class="st1" d="M185,293.7c-0.5,0-0.9-0.2-1.2-0.5l-4.5-4.5l0.5-0.4c0.6-0.5,1.2-1,1.7-1.7l0.3-0.5l0.4,0.4
			c0.7,0.6,1,0.9,1.1,1.1l2.9,2.9c0.5,0.5,0.7,1.3,0.4,2.1c-0.2,0.5-0.7,0.9-1.2,1C185.2,293.6,185.1,293.7,185,293.7z M180.8,288.8
			l3.7,3.7c0.2,0.2,0.4,0.2,0.7,0.2c0.1,0,0.4-0.1,0.5-0.4s0.1-0.7-0.2-1l-3.1-3.2c-0.1-0.1-0.2-0.2-0.4-0.4
			C181.5,288.1,181.2,288.4,180.8,288.8z"/>
	</g>
	<g>
		<path class="st0" d="M182.8,284.6c0,2.8-2.3,5.1-5.1,5.1s-5.1-2.3-5.1-5.1c0-2.8,2.3-5.1,5.1-5.1
			C180.6,279.5,182.8,281.8,182.8,284.6z M177.7,280.7c-2.1,0-3.8,1.7-3.8,3.8c0,2.1,1.7,3.8,3.8,3.8s3.8-1.7,3.8-3.8
			C181.6,282.5,179.8,280.7,177.7,280.7z"/>
	</g>
</g>
<g>
	<g class="st4">
		<path d="M448,290.4h-1.5l-0.2-3.5c-0.1-1.2-0.1-2.2-0.1-3v-0.4l-1.5,6h-1.5l-1.6-6c0,0.5,0,0.9,0,1.2c0,0.7,0,1.5-0.1,2.2
			l-0.2,3.4h-1.5l0.7-8.3h2l1.5,5.8l1.4-5.8h2.1L448,290.4z"/>
		<path d="M454.5,282.5c0.5,0.3,1,0.8,1.3,1.5c0.3,0.6,0.4,1.4,0.4,2.3s-0.1,1.7-0.4,2.3c-0.3,0.6-0.7,1.1-1.3,1.5s-1.2,0.5-1.9,0.5
			c-0.7,0-1.4-0.2-1.9-0.5s-1-0.8-1.3-1.5c-0.3-0.6-0.4-1.4-0.4-2.3s0.1-1.7,0.4-2.3c0.3-0.7,0.7-1.2,1.3-1.5s1.2-0.5,1.9-0.5
			S454,282.1,454.5,282.5z M451.1,283.9c-0.3,0.5-0.5,1.3-0.5,2.4c0,2.1,0.7,3.1,2,3.1c0.6,0,1.1-0.2,1.5-0.7
			c0.3-0.5,0.5-1.3,0.5-2.4s-0.2-1.9-0.5-2.4s-0.8-0.7-1.5-0.7S451.5,283.4,451.1,283.9z"/>
		<path d="M462.8,283c0.8,0.6,1.2,1.7,1.2,3.2s-0.4,2.6-1.1,3.2c-0.8,0.6-1.7,0.9-2.9,0.9h-2.3V282h2
			C461,282.1,462.1,282.4,462.8,283z M459.3,283.3v5.9h0.8c0.7,0,1.3-0.2,1.7-0.7c0.4-0.4,0.6-1.2,0.6-2.3c0-0.8-0.1-1.4-0.3-1.8
			c-0.2-0.4-0.5-0.7-0.8-0.9s-0.7-0.2-1.2-0.2H459.3z"/>
		<path d="M469.8,290.4l-0.5-1.9h-2.7l-0.5,1.9h-1.6l2.6-8.3h2l2.6,8.3H469.8z M466.8,287.3h2.1l-1.1-4L466.8,287.3z"/>
		<path d="M472.4,290.4v-8.3h4.7l-0.2,1.2H474v2.5h2.6v1.2H474v3.5h-1.6V290.4z"/>
		<path d="M479.8,282.1v8.3h-1.6v-8.3H479.8z"/>
		<path d="M487.9,290.4h-2.1l-2.8-6.7c0.1,0.6,0.1,1.1,0.2,1.6c0,0.5,0.1,1.1,0.1,1.7v3.4h-1.4v-8.3h2l2.9,6.7
			c0-0.3-0.1-0.7-0.1-1.3c0-0.5-0.1-1-0.1-1.6V282h1.4v8.4H487.9z"/>
		<path d="M491.4,282.1v8.3h-1.6v-8.3H491.4z"/>
		<path d="M494.9,282.1v7h3.3l-0.2,1.3h-4.7v-8.3H494.9z"/>
	</g>
</g>
<g>
	<path class="st1" d="M505.8,298.1h-93v-22.6h93V298.1z M414.3,296.5h90V277h-90V296.5z"/>
</g>
<g>
	<g>
		<path class="st6" d="M427.3,288.7c0.7-0.5,1.3-1.1,1.8-1.8c0,0,1,0.9,1,1c1,1,2,2,3,3c0.4,0.4,0.5,1,0.3,1.5c-0.3,0.8-1.4,1-2,0.4
			c-0.4-0.4-0.8-0.8-1.2-1.2C429.6,291,428,289.4,427.3,288.7z"/>
		<path class="st0" d="M432.3,293.7c-0.5,0-0.9-0.2-1.2-0.5l-4.5-4.5l0.5-0.4c0.6-0.5,1.2-1,1.7-1.7l0.3-0.5l0.4,0.4
			c0.7,0.6,1,0.9,1.1,1.1l2.9,2.9c0.5,0.5,0.7,1.3,0.4,2.1c-0.2,0.5-0.7,0.9-1.2,1C432.5,293.6,432.4,293.7,432.3,293.7z
			 M428.1,288.8l3.7,3.7c0.2,0.2,0.4,0.2,0.7,0.2c0.1,0,0.4-0.1,0.5-0.4s0.1-0.7-0.2-1l-3.2-3.2c-0.1-0.1-0.2-0.2-0.4-0.4
			C428.8,288.1,428.5,288.4,428.1,288.8z"/>
	</g>
	<g>
		<path class="st6" d="M430.1,284.6c0,2.8-2.3,5.1-5.1,5.1c-2.8,0-5.1-2.3-5.1-5.1c0-2.8,2.3-5.1,5.1-5.1
			C427.9,279.5,430.2,281.8,430.1,284.6z M425,280.7c-2.1,0-3.8,1.7-3.8,3.8c0,2.1,1.7,3.8,3.8,3.8c2.1,0,3.8-1.7,3.8-3.8
			C428.9,282.5,427.1,280.7,425,280.7z"/>
	</g>
</g>
<g>
	<g class="st4">
		<path d="M702.7,287.9h-1v3.3h-1.6v-8.3h2.5c2.2,0,3.3,0.8,3.3,2.4c0,0.6-0.1,1-0.4,1.4c-0.3,0.4-0.7,0.7-1.3,0.9l2.2,3.6h-1.8
			L702.7,287.9z M701.7,286.7h1c0.5,0,0.9-0.1,1.1-0.3s0.4-0.6,0.4-1.1c0-0.4-0.1-0.8-0.4-1s-0.7-0.3-1.3-0.3h-0.9v2.7H701.7z"/>
		<path d="M709,282.9v8.3h-1.6v-8.3H709z"/>
		<path d="M716.3,282.9l-0.2,1.3H714v7h-1.6v-7h-2.2v-1.3H716.3z"/>
		<path d="M721.1,291.2l-0.5-1.9h-2.7l-0.5,1.9h-1.6l2.6-8.3h2l2.6,8.3H721.1z M718.2,288.1h2.1l-1.1-4L718.2,288.1z"/>
		<path d="M725.3,282.9v7h3.3l-0.2,1.3h-4.7v-8.3H725.3z"/>
		<path d="M731.4,282.9v8.3h-1.6v-8.3H731.4z"/>
		<path d="M739.5,291.2h-2.1l-2.8-6.7c0.1,0.6,0.1,1.1,0.2,1.6c0,0.5,0.1,1.1,0.1,1.7v3.4h-1.4v-8.3h2l2.9,6.7
			c0-0.3-0.1-0.7-0.1-1.3c0-0.5-0.1-1-0.1-1.6v-3.9h1.4v8.4H739.5z"/>
	</g>
</g>
<g>
	<path class="st1" d="M749.8,298.3h-79v-22.6h79V298.3z M672.3,296.7h76v-19.6h-76V296.7z"/>
</g>
<g>
	<g>
		<path class="st6" d="M687.3,289.5c0.7-0.5,1.3-1.1,1.8-1.8c0,0,1,0.9,1,1c1,1,2,2,3,3c0.4,0.4,0.5,1,0.3,1.5c-0.3,0.8-1.4,1-2,0.4
			c-0.4-0.4-0.8-0.8-1.2-1.2C689.6,291.7,688,290.2,687.3,289.5z"/>
		<path class="st0" d="M692.3,294.5c-0.5,0-0.9-0.2-1.2-0.5l-1.2-1.2c-0.4-0.5-1.3-1.4-2.1-2.1c-0.3-0.3-0.6-0.6-0.8-0.8l-0.4-0.4
			l0.5-0.4c0.7-0.5,1.2-1,1.7-1.7l0.3-0.5l0.4,0.4c0.7,0.6,1,0.9,1.1,1.1l2.9,2.9c0.5,0.5,0.7,1.3,0.4,2.1c-0.2,0.5-0.7,0.9-1.2,1
			C692.5,294.4,692.4,294.5,692.3,294.5z M688.1,289.5c0.1,0.1,0.3,0.3,0.4,0.4c0.7,0.7,1.7,1.6,2.1,2.1l1.2,1.2
			c0.2,0.2,0.4,0.2,0.7,0.2c0.1,0,0.4-0.1,0.5-0.4s0.1-0.7-0.2-1l-3.2-3.2c-0.1-0.1-0.2-0.2-0.4-0.4
			C688.8,288.9,688.5,289.2,688.1,289.5z"/>
	</g>
	<g>
		<path class="st6" d="M690.1,285.3c0,2.8-2.3,5.1-5.1,5.1s-5.1-2.3-5.1-5.1c0-2.8,2.3-5.1,5.1-5.1S690.1,282.5,690.1,285.3z
			 M685,281.5c-2.1,0-3.8,1.7-3.8,3.8c0,2.1,1.7,3.8,3.8,3.8s3.8-1.7,3.8-3.8S687.1,281.5,685,281.5z"/>
	</g>
</g>
<g>
	<path class="st1" d="M208.7,276.2c-0.1,0-0.2-0.1-0.2-0.2v-59.5c0-0.1,0.1-0.2,0.2-0.2s0.2,0.1,0.2,0.2V276
		C209,276,208.8,276.2,208.7,276.2z"/>
</g>
<g>
	<path class="st1" d="M459.2,276c-0.1,0-0.2-0.1-0.2-0.2v-59.5c0-0.1,0.1-0.2,0.2-0.2s0.2,0.1,0.2,0.2v59.5
		C459.5,275.8,459.3,276,459.2,276z"/>
</g>
<g>
	<path class="st1" d="M709.9,276c-0.1,0-0.2-0.1-0.2-0.2v-59.5c0-0.1,0.1-0.2,0.2-0.2s0.2,0.1,0.2,0.2v59.5
		C710.2,275.8,710,276,709.9,276z"/>
</g>
<g>
	<rect x="207.8" y="274.6" class="st1" width="1.9" height="1.9"/>
</g>
<g>
	<rect x="458.2" y="273.6" class="st1" width="1.9" height="1.9"/>
</g>
<g>
	<rect x="709" y="273.8" class="st1" width="1.9" height="1.9"/>
</g>
<g>
	<rect x="146.8" y="297.5" class="st3" width="1.9" height="1.9"/>
</g>
<g>
	<g class="st4">
		<path d="M14,290.2c0.3,0.1,0.6,0.3,0.9,0.5l-0.6,0.8c-0.4-0.4-0.8-0.6-1.1-0.7c-0.4-0.1-0.8-0.2-1.5-0.2c-0.6,0-1.1-0.1-1.5-0.4
			s-0.8-0.7-1-1.2s-0.4-1.2-0.4-1.9c0-0.7,0.1-1.4,0.4-1.9c0.2-0.5,0.6-1,1-1.2s0.9-0.4,1.5-0.4s1.1,0.1,1.5,0.4s0.8,0.7,1,1.2
			s0.4,1.2,0.4,1.9c0,0.8-0.1,1.4-0.4,1.9c-0.3,0.5-0.7,0.9-1.2,1.1C13.4,290,13.7,290.1,14,290.2z M10.3,289.1
			c0.3,0.4,0.8,0.7,1.4,0.7c1.3,0,1.9-0.9,1.9-2.8s-0.6-2.8-1.9-2.8c-0.6,0-1.1,0.2-1.4,0.7c-0.3,0.5-0.5,1.2-0.5,2.1
			C9.8,287.9,10,288.6,10.3,289.1z"/>
		<path d="M20,290.4h-0.8l-0.1-0.8c-0.2,0.3-0.4,0.6-0.7,0.7c-0.3,0.2-0.6,0.2-0.9,0.2c-0.5,0-0.8-0.1-1.1-0.4
			c-0.3-0.3-0.4-0.7-0.4-1.2v-3.8h1v3.7c0,0.4,0.1,0.6,0.2,0.8c0.1,0.2,0.3,0.2,0.6,0.2c0.5,0,1-0.3,1.3-0.9v-3.8H20V290.4z"/>
		<path d="M25.9,288.1h-3.4c0,0.6,0.2,1,0.4,1.3c0.3,0.3,0.6,0.4,1,0.4c0.3,0,0.5,0,0.7-0.1s0.4-0.2,0.7-0.3l0.4,0.5
			c-0.6,0.4-1.2,0.7-1.8,0.7c-0.7,0-1.3-0.2-1.7-0.7c-0.4-0.5-0.6-1.1-0.6-2c0-0.5,0.1-1,0.3-1.5c0.2-0.4,0.4-0.8,0.8-1
			c0.3-0.2,0.7-0.4,1.2-0.4c0.7,0,1.2,0.2,1.6,0.7s0.6,1.1,0.6,1.9C25.9,287.8,25.9,287.9,25.9,288.1z M25,287.3
			c0-0.5-0.1-0.9-0.3-1.2s-0.5-0.4-0.9-0.4c-0.8,0-1.2,0.6-1.2,1.7L25,287.3L25,287.3z"/>
		<path d="M30.2,285.1L30,286c-0.2,0-0.3-0.1-0.5-0.1c-0.3,0-0.6,0.1-0.8,0.4c-0.2,0.2-0.4,0.6-0.5,1.1v3h-0.9v-5.3h0.8l0.1,1.1
			c0.1-0.4,0.3-0.7,0.6-0.9c0.2-0.2,0.5-0.3,0.8-0.3C29.8,285,30,285,30.2,285.1z"/>
		<path d="M32.2,282.8c0.1,0.1,0.2,0.3,0.2,0.5s-0.1,0.3-0.2,0.4c-0.1,0.1-0.3,0.2-0.5,0.2s-0.3-0.1-0.5-0.2
			c-0.1-0.1-0.2-0.3-0.2-0.4s0.1-0.3,0.2-0.5s0.3-0.2,0.5-0.2C31.9,282.6,32,282.7,32.2,282.8z M32.2,285.1v5.3h-0.9v-5.3H32.2z"/>
		<path d="M38,288.1h-3.4c0,0.6,0.2,1,0.4,1.3c0.3,0.3,0.6,0.4,1,0.4c0.3,0,0.5,0,0.7-0.1s0.4-0.2,0.7-0.3l0.4,0.5
			c-0.6,0.4-1.2,0.7-1.8,0.7c-0.7,0-1.3-0.2-1.7-0.7s-0.6-1.1-0.6-2c0-0.5,0.1-1,0.3-1.5c0.2-0.4,0.4-0.8,0.8-1
			c0.3-0.2,0.7-0.4,1.2-0.4c0.7,0,1.2,0.2,1.6,0.7c0.4,0.5,0.6,1.1,0.6,1.9C38,287.8,38,287.9,38,288.1z M37.1,287.3
			c0-0.5-0.1-0.9-0.3-1.2s-0.5-0.4-0.9-0.4c-0.8,0-1.2,0.6-1.2,1.7L37.1,287.3L37.1,287.3z"/>
		<path d="M41.9,285.2c0.3,0.1,0.6,0.2,0.8,0.5l-0.4,0.6c-0.2-0.2-0.5-0.3-0.7-0.3c-0.2-0.1-0.4-0.1-0.7-0.1s-0.5,0.1-0.7,0.2
			s-0.3,0.3-0.3,0.5s0.1,0.4,0.2,0.5c0.2,0.1,0.5,0.2,0.9,0.3c0.6,0.1,1,0.3,1.3,0.6c0.3,0.3,0.4,0.6,0.4,1c0,0.5-0.2,0.9-0.6,1.2
			s-0.9,0.4-1.5,0.4c-0.8,0-1.5-0.2-2-0.7l0.5-0.6c0.4,0.3,0.9,0.5,1.5,0.5c0.3,0,0.6-0.1,0.8-0.2s0.3-0.3,0.3-0.6
			c0-0.2,0-0.3-0.1-0.4s-0.2-0.2-0.4-0.3c-0.2-0.1-0.4-0.2-0.8-0.3c-0.6-0.1-1-0.3-1.2-0.6c-0.2-0.2-0.4-0.6-0.4-0.9
			s0.1-0.5,0.2-0.7c0.2-0.2,0.4-0.4,0.7-0.5s0.6-0.2,1-0.2C41.3,285,41.6,285.1,41.9,285.2z"/>
	</g>
</g>
<g class="st4">
	<path class="st7" d="M11.3,180.4h-1.1v2.9h-1v-6.9H11c0.9,0,1.5,0.2,2,0.5c0.4,0.3,0.7,0.8,0.7,1.5c0,0.5-0.1,0.9-0.4,1.2
		c-0.2,0.3-0.6,0.5-1.1,0.7l1.9,3.1H13L11.3,180.4z M11.2,179.7c0.5,0,0.9-0.1,1.1-0.3s0.4-0.5,0.4-1c0-0.4-0.1-0.7-0.4-0.9
		c-0.3-0.2-0.7-0.3-1.2-0.3h-0.8v2.5H11.2z"/>
	<path class="st7" d="M19.1,181h-3.4c0,0.6,0.2,1,0.4,1.3c0.3,0.3,0.6,0.4,1,0.4c0.3,0,0.5,0,0.7-0.1s0.4-0.2,0.7-0.3l0.4,0.5
		c-0.6,0.4-1.2,0.7-1.8,0.7c-0.7,0-1.3-0.2-1.7-0.7s-0.6-1.1-0.6-2c0-0.5,0.1-1,0.3-1.5c0.2-0.4,0.4-0.8,0.8-1
		c0.3-0.2,0.7-0.4,1.2-0.4c0.7,0,1.2,0.2,1.6,0.7s0.6,1.1,0.6,1.9C19.1,180.7,19.1,180.8,19.1,181z M18.2,180.2
		c0-0.5-0.1-0.9-0.3-1.2s-0.5-0.4-0.9-0.4c-0.8,0-1.2,0.6-1.2,1.7L18.2,180.2L18.2,180.2z"/>
	<path class="st7" d="M22.9,178.1c0.3,0.1,0.6,0.2,0.8,0.5l-0.4,0.6c-0.2-0.2-0.5-0.3-0.7-0.3c-0.2-0.1-0.4-0.1-0.7-0.1
		c-0.3,0-0.5,0.1-0.7,0.2c-0.2,0.1-0.3,0.3-0.3,0.5s0.1,0.4,0.2,0.5c0.2,0.1,0.5,0.2,0.9,0.3c0.6,0.1,1,0.3,1.3,0.6s0.4,0.6,0.4,1
		c0,0.5-0.2,0.9-0.6,1.2s-0.9,0.4-1.5,0.4c-0.8,0-1.5-0.2-2-0.7l0.5-0.6c0.4,0.3,0.9,0.5,1.5,0.5c0.3,0,0.6-0.1,0.8-0.2
		s0.3-0.3,0.3-0.6c0-0.2,0-0.3-0.1-0.4c-0.1-0.1-0.2-0.2-0.4-0.3c-0.2-0.1-0.4-0.2-0.8-0.3c-0.6-0.1-1-0.3-1.2-0.6
		c-0.2-0.2-0.4-0.6-0.4-0.9c0-0.3,0.1-0.5,0.2-0.7c0.2-0.2,0.4-0.4,0.7-0.5c0.3-0.1,0.6-0.2,1-0.2C22.3,177.9,22.7,178,22.9,178.1z"
		/>
	<path class="st7" d="M29.1,183.3h-0.8l-0.1-0.8c-0.2,0.3-0.4,0.6-0.7,0.7c-0.3,0.2-0.6,0.2-0.9,0.2c-0.5,0-0.8-0.1-1.1-0.4
		c-0.3-0.3-0.4-0.7-0.4-1.2V178H26v3.7c0,0.4,0.1,0.6,0.2,0.8s0.3,0.2,0.6,0.2c0.5,0,1-0.3,1.3-0.9V178H29v5.3H29.1z"/>
	<path class="st7" d="M31.3,183.1c-0.2-0.2-0.3-0.5-0.3-0.9v-6.3l0.9-0.1v6.4c0,0.1,0,0.3,0.1,0.3c0,0.1,0.1,0.1,0.3,0.1
		c0.1,0,0.2,0,0.3-0.1l0.2,0.6c-0.2,0.1-0.5,0.2-0.7,0.2C31.7,183.4,31.5,183.3,31.3,183.1z"/>
	<path class="st7" d="M36.6,183.1c-0.3,0.2-0.7,0.4-1.2,0.4c-0.4,0-0.8-0.1-1-0.4S34,182.5,34,182v-3.2h-0.9V178H34v-1.2l0.9-0.1
		v1.3h1.2l-0.1,0.7h-1.1v3.1c0,0.3,0,0.5,0.1,0.6s0.3,0.2,0.5,0.2s0.4-0.1,0.7-0.2L36.6,183.1z"/>
	<path class="st7" d="M40,178.1c0.3,0.1,0.6,0.2,0.8,0.5l-0.4,0.6c-0.2-0.2-0.5-0.3-0.7-0.3c-0.2-0.1-0.4-0.1-0.7-0.1
		s-0.5,0.1-0.7,0.2c-0.2,0.1-0.3,0.3-0.3,0.5s0.1,0.4,0.2,0.5c0.2,0.1,0.5,0.2,0.9,0.3c0.6,0.1,1,0.3,1.3,0.6s0.4,0.6,0.4,1
		c0,0.5-0.2,0.9-0.6,1.2s-0.9,0.4-1.5,0.4c-0.8,0-1.5-0.2-2-0.7l0.5-0.6c0.4,0.3,0.9,0.5,1.5,0.5c0.3,0,0.6-0.1,0.8-0.2
		s0.3-0.3,0.3-0.6c0-0.2,0-0.3-0.1-0.4c-0.1-0.1-0.2-0.2-0.4-0.3s-0.4-0.2-0.8-0.3c-0.6-0.1-1-0.3-1.2-0.6c-0.2-0.2-0.4-0.6-0.4-0.9
		c0-0.3,0.1-0.5,0.2-0.7c0.2-0.2,0.4-0.4,0.7-0.5s0.6-0.2,1-0.2C39.4,177.9,39.7,178,40,178.1z"/>
</g>
<g>
	<polygon class="st8" points="67.4,190.9 61.1,190.9 61.1,170.7 67.4,170.7 67.4,170.9 61.3,170.9 61.3,190.7 67.4,190.7 	"/>
</g>
<g class="st4">
	<path class="st7" d="M12,136l-0.2,0.9c-0.2,0-0.3-0.1-0.5-0.1c-0.3,0-0.6,0.1-0.8,0.4c-0.2,0.2-0.4,0.6-0.5,1.1v3H9.2V136H10
		l0.1,1.1c0.1-0.4,0.3-0.7,0.6-0.9c0.2-0.2,0.5-0.3,0.8-0.3C11.7,135.9,11.8,135.9,12,136z"/>
	<path class="st7" d="M16.7,139h-3.4c0,0.6,0.2,1,0.4,1.3c0.3,0.3,0.6,0.4,1,0.4c0.3,0,0.5,0,0.7-0.1s0.4-0.2,0.7-0.3l0.4,0.5
		c-0.6,0.4-1.2,0.7-1.8,0.7c-0.7,0-1.3-0.2-1.7-0.7s-0.6-1.1-0.6-2c0-0.5,0.1-1,0.3-1.5c0.2-0.4,0.4-0.8,0.8-1
		c0.3-0.2,0.7-0.4,1.2-0.4c0.7,0,1.2,0.2,1.6,0.7s0.6,1.1,0.6,1.9C16.7,138.7,16.7,138.8,16.7,139z M15.8,138.2
		c0-0.5-0.1-0.9-0.3-1.2s-0.5-0.4-0.9-0.4c-0.8,0-1.2,0.6-1.2,1.7L15.8,138.2L15.8,138.2z"/>
	<path class="st7" d="M18.4,141.1c-0.2-0.2-0.3-0.5-0.3-0.9v-6.3l0.9-0.1v6.4c0,0.1,0,0.3,0.1,0.3c0,0.1,0.1,0.1,0.3,0.1
		c0.1,0,0.2,0,0.3-0.1l0.2,0.6c-0.2,0.1-0.5,0.2-0.7,0.2C18.9,141.4,18.6,141.3,18.4,141.1z"/>
	<path class="st7" d="M24.7,140.6c0.1,0.1,0.2,0.2,0.3,0.2l-0.2,0.6c-0.3,0-0.5-0.1-0.7-0.2s-0.3-0.3-0.4-0.6
		c-0.4,0.5-0.9,0.8-1.6,0.8c-0.5,0-0.9-0.1-1.2-0.4c-0.3-0.3-0.4-0.7-0.4-1.1c0-0.6,0.2-1,0.6-1.3s1-0.5,1.7-0.5h0.8v-0.4
		c0-0.4-0.1-0.6-0.3-0.8c-0.2-0.2-0.5-0.2-0.8-0.2c-0.4,0-0.9,0.1-1.4,0.3l-0.2-0.7c0.7-0.2,1.3-0.4,1.8-0.4c0.6,0,1.1,0.2,1.4,0.5
		s0.5,0.7,0.5,1.3v2.4C24.6,140.3,24.7,140.4,24.7,140.6z M23.7,139.9v-1.2H23c-1,0-1.5,0.4-1.5,1.1c0,0.3,0.1,0.5,0.2,0.7
		c0.2,0.2,0.4,0.2,0.7,0.2C23,140.7,23.4,140.5,23.7,139.9z"/>
	<path class="st7" d="M29.2,141.1c-0.3,0.2-0.7,0.4-1.2,0.4c-0.4,0-0.8-0.1-1-0.4s-0.4-0.6-0.4-1.1v-3.2h-0.9V136h0.9v-1.2l0.9-0.1
		v1.3h1.2l-0.1,0.7h-1.1v3.1c0,0.3,0,0.5,0.1,0.6s0.3,0.2,0.5,0.2s0.4-0.1,0.7-0.2L29.2,141.1z"/>
	<path class="st7" d="M31.1,133.7c0.1,0.1,0.2,0.3,0.2,0.5s-0.1,0.3-0.2,0.4c-0.1,0.1-0.3,0.2-0.5,0.2s-0.3-0.1-0.5-0.2
		c-0.1-0.1-0.2-0.3-0.2-0.4s0.1-0.3,0.2-0.5s0.3-0.2,0.5-0.2C30.8,133.5,30.9,133.6,31.1,133.7z M31.1,136v5.3h-0.9V136H31.1z"/>
	<path class="st7" d="M36.7,136.7c0.4,0.5,0.6,1.2,0.6,2c0,0.5-0.1,1-0.3,1.4s-0.5,0.7-0.8,1c-0.4,0.2-0.8,0.3-1.3,0.3
		c-0.7,0-1.3-0.2-1.7-0.7s-0.6-1.2-0.6-2c0-0.5,0.1-1,0.3-1.4s0.5-0.7,0.8-1c0.4-0.2,0.8-0.3,1.3-0.3
		C35.7,135.9,36.2,136.2,36.7,136.7z M33.6,138.7c0,1.3,0.5,2,1.4,2s1.4-0.7,1.4-2s-0.4-2-1.3-2C34,136.7,33.6,137.3,33.6,138.7z"/>
	<path class="st7" d="M42.4,136.3c0.3,0.3,0.4,0.7,0.4,1.2v3.8h-0.9v-3.7c0-0.4-0.1-0.6-0.2-0.8c-0.1-0.2-0.3-0.2-0.6-0.2
		s-0.5,0.1-0.7,0.2c-0.2,0.2-0.4,0.4-0.6,0.7v3.7h-0.9V136h0.8l0.1,0.8c0.2-0.3,0.4-0.5,0.7-0.7s0.6-0.2,0.9-0.2
		C41.8,135.9,42.1,136.1,42.4,136.3z"/>
</g>
<g>
	<polygon class="st8" points="67.4,153.9 61.1,153.9 61.1,122.7 67.4,122.7 67.4,122.9 61.3,122.9 61.3,153.7 67.4,153.7 	"/>
</g>
<g>
	<polygon class="st8" points="67.4,297.8 61.2,297.8 61.2,276 67.4,276 67.4,276.2 61.4,276.2 61.4,297.6 67.4,297.6 	"/>
</g>
<g class="st4">
	<path class="st2" d="M24.7,40.5L21.5,56h-2.7l-2.9-13L13,56h-2.7L7.2,40.5h2.1l2.5,13.6l3-13.6h2.3l3.1,13.6l2.6-13.6H24.7z"/>
	<path class="st2" d="M35.5,44.8c0.6,0.6,0.9,1.5,0.9,2.7V56h-2.1v-8.2c0-0.8-0.2-1.4-0.5-1.8s-0.8-0.5-1.4-0.5s-1.2,0.2-1.6,0.5
		c-0.5,0.4-0.9,0.9-1.3,1.5V56h-2.1V39.4l2.1-0.2v6.6c0.9-1.3,2.1-1.9,3.5-1.9C34,43.9,34.9,44.2,35.5,44.8z"/>
	<path class="st2" d="M42.6,38.9c0.3,0.3,0.4,0.6,0.4,1s-0.1,0.7-0.4,1s-0.6,0.4-1.1,0.4c-0.4,0-0.8-0.1-1-0.4
		c-0.3-0.3-0.4-0.6-0.4-1s0.1-0.7,0.4-1s0.6-0.4,1-0.4C42,38.5,42.4,38.6,42.6,38.9z M42.6,44.1V56h-2.1V44.1H42.6z"/>
	<path class="st2" d="M53.2,44.2c0.6,0.2,1.1,0.5,1.7,1l-1,1.3c-0.4-0.3-0.8-0.5-1.2-0.7c-0.4-0.1-0.8-0.2-1.3-0.2
		c-1,0-1.7,0.4-2.2,1.1c-0.5,0.8-0.8,1.9-0.8,3.4s0.3,2.6,0.8,3.3s1.3,1.1,2.2,1.1c0.5,0,0.9-0.1,1.3-0.2c0.4-0.1,0.8-0.4,1.3-0.7
		l0.8,1.4c-1.1,0.9-2.3,1.3-3.6,1.3c-1.6,0-2.9-0.5-3.8-1.6c-0.9-1.1-1.4-2.6-1.4-4.5c0-1.3,0.2-2.4,0.6-3.3c0.4-0.9,1-1.7,1.8-2.2
		s1.7-0.8,2.8-0.8C51.9,43.9,52.6,44,53.2,44.2z"/>
	<path class="st2" d="M65.8,44.8c0.6,0.6,0.9,1.5,0.9,2.7V56h-2.1v-8.2c0-0.8-0.2-1.4-0.5-1.8c-0.3-0.4-0.8-0.5-1.4-0.5
		c-0.6,0-1.2,0.2-1.6,0.5c-0.5,0.4-0.9,0.9-1.3,1.5V56h-2.1V39.4l2.1-0.2v6.6c0.9-1.3,2.1-1.9,3.5-1.9
		C64.3,43.9,65.2,44.2,65.8,44.8z"/>
</g>
<g class="st4">
	<path class="st1" d="M82.2,44.2c0.6,0.2,1.3,0.6,1.8,1l-0.9,1.3c-0.5-0.3-1.1-0.6-1.5-0.8c-0.5-0.2-1-0.2-1.5-0.2
		c-0.7,0-1.2,0.1-1.6,0.4c-0.4,0.3-0.6,0.7-0.6,1.1s0.2,0.9,0.6,1.1c0.4,0.3,1,0.5,2,0.8c1.3,0.3,2.3,0.8,3,1.3c0.7,0.6,1,1.3,1,2.3
		c0,1.2-0.5,2.1-1.4,2.7c-0.9,0.6-2,0.9-3.3,0.9c-1.8,0-3.3-0.5-4.5-1.6l1.1-1.3c1,0.8,2.1,1.1,3.3,1.1c0.8,0,1.4-0.2,1.9-0.5
		s0.7-0.8,0.7-1.3c0-0.4-0.1-0.7-0.2-1c-0.2-0.2-0.4-0.5-0.9-0.7s-1-0.4-1.8-0.6c-1.3-0.3-2.2-0.8-2.7-1.3c-0.6-0.6-0.8-1.3-0.8-2.1
		c0-0.6,0.2-1.2,0.6-1.7c0.4-0.5,0.9-0.9,1.5-1.2c0.7-0.3,1.4-0.4,2.2-0.4S81.6,44,82.2,44.2z"/>
	<path class="st1" d="M93.3,55.5c-0.8,0.5-1.7,0.8-2.7,0.8s-1.8-0.3-2.4-0.9c-0.6-0.6-0.8-1.4-0.8-2.5v-7.2h-2.1v-1.6h2.1v-2.7
		l2.1-0.2v2.9h2.8l-0.2,1.6h-2.6v7.1c0,0.6,0.1,1.1,0.3,1.3c0.2,0.3,0.6,0.4,1.1,0.4s1-0.2,1.6-0.5L93.3,55.5z"/>
	<path class="st1" d="M104.2,56h-1.8l-0.2-1.8c-0.4,0.7-1,1.3-1.6,1.6s-1.3,0.5-2.1,0.5c-1,0-1.8-0.3-2.4-0.9
		c-0.6-0.6-0.9-1.5-0.9-2.7v-8.5h2.1v8.3c0,0.8,0.1,1.4,0.4,1.7c0.3,0.3,0.7,0.5,1.4,0.5c1.2,0,2.1-0.7,3-2v-8.5h2.1V56z"/>
	<path class="st1" d="M117.7,39.4V56h-1.8l-0.2-1.6c-0.4,0.6-0.9,1.1-1.5,1.4c-0.6,0.3-1.2,0.5-2,0.5c-1.4,0-2.5-0.6-3.3-1.7
		c-0.8-1.1-1.2-2.6-1.2-4.5c0-1.2,0.2-2.3,0.6-3.2c0.4-0.9,0.9-1.7,1.6-2.2c0.7-0.5,1.5-0.8,2.5-0.8c1.2,0,2.3,0.5,3.2,1.5v-6.2
		L117.7,39.4z M114.3,54.2c0.4-0.3,0.9-0.7,1.3-1.3v-5.8c-0.4-0.5-0.8-0.9-1.2-1.2s-0.9-0.4-1.5-0.4c-0.9,0-1.6,0.4-2.1,1.1
		c-0.5,0.8-0.8,1.9-0.8,3.4s0.2,2.7,0.7,3.4c0.5,0.8,1.1,1.1,2,1.1C113.3,54.6,113.9,54.5,114.3,54.2z"/>
	<path class="st1" d="M126.7,56.1c-0.5,1.4-1.1,2.5-1.9,3.3c-0.8,0.8-2,1.3-3.6,1.5l-0.2-1.6c0.8-0.1,1.4-0.3,1.9-0.6s0.8-0.6,1.1-1
		s0.5-0.9,0.8-1.6h-0.7l-4-11.9h2.2l3.2,10.3l3.1-10.3h2.1L126.7,56.1z"/>
	<path class="st1" d="M148.2,39.4V56h-1.8l-0.2-1.6c-0.4,0.6-0.9,1.1-1.5,1.4c-0.6,0.3-1.2,0.5-2,0.5c-1.4,0-2.5-0.6-3.3-1.7
		c-0.8-1.1-1.2-2.6-1.2-4.5c0-1.2,0.2-2.3,0.6-3.2c0.4-0.9,0.9-1.7,1.6-2.2c0.7-0.5,1.5-0.8,2.5-0.8c1.2,0,2.3,0.5,3.2,1.5v-6.2
		L148.2,39.4z M144.8,54.2c0.4-0.3,0.9-0.7,1.3-1.3v-5.8c-0.4-0.5-0.8-0.9-1.2-1.2s-0.9-0.4-1.5-0.4c-0.9,0-1.6,0.4-2.1,1.1
		c-0.5,0.8-0.8,1.9-0.8,3.4s0.2,2.7,0.7,3.4c0.5,0.8,1.1,1.1,2,1.1C143.8,54.6,144.3,54.5,144.8,54.2z"/>
	<path class="st1" d="M158.8,44l-0.4,2c-0.4-0.1-0.7-0.1-1-0.1c-0.7,0-1.3,0.3-1.8,0.8c-0.4,0.5-0.8,1.4-1.1,2.5V56h-2.1V44.1h1.8
		l0.2,2.4c0.3-0.9,0.7-1.6,1.3-2c0.5-0.5,1.2-0.7,1.9-0.7C158,43.9,158.4,43.9,158.8,44z"/>
	<path class="st1" d="M169.9,56h-1.8l-0.2-1.8c-0.4,0.7-1,1.3-1.6,1.6s-1.3,0.5-2.1,0.5c-1,0-1.8-0.3-2.4-0.9
		c-0.6-0.6-0.9-1.5-0.9-2.7v-8.5h2.1v8.3c0,0.8,0.1,1.4,0.4,1.7c0.3,0.3,0.7,0.5,1.4,0.5c1.2,0,2.1-0.7,3-2v-8.5h2.1V56z"/>
	<path class="st1" d="M183.8,44.7c-0.4,0.2-0.9,0.2-1.5,0.3c-0.5,0-1.2,0.1-2,0.1c1.4,0.6,2.1,1.6,2.1,3c0,1.2-0.4,2.2-1.2,2.9
		s-1.9,1.1-3.3,1.1c-0.5,0-1-0.1-1.5-0.2c-0.2,0.1-0.3,0.3-0.4,0.5s-0.2,0.4-0.2,0.6c0,0.6,0.5,1,1.6,1h1.9c0.8,0,1.5,0.1,2.1,0.4
		s1.1,0.7,1.4,1.2s0.5,1.1,0.5,1.7c0,1.2-0.5,2-1.4,2.7c-0.9,0.6-2.3,0.9-4.1,0.9c-1.3,0-2.3-0.1-3-0.4c-0.7-0.3-1.3-0.7-1.6-1.2
		c-0.3-0.5-0.5-1.2-0.5-2h1.9c0,0.5,0.1,0.9,0.3,1.1c0.2,0.3,0.5,0.5,1,0.6s1.1,0.2,2,0.2c1.2,0,2.1-0.2,2.7-0.5
		c0.5-0.3,0.8-0.8,0.8-1.4c0-0.6-0.2-1-0.6-1.3s-1-0.4-1.8-0.4h-1.9c-1,0-1.8-0.2-2.3-0.6c-0.5-0.4-0.8-1-0.8-1.6
		c0-0.4,0.1-0.8,0.3-1.1c0.2-0.4,0.5-0.7,1-1c-0.7-0.4-1.2-0.8-1.5-1.3s-0.5-1.2-0.5-1.9c0-0.8,0.2-1.5,0.6-2.1s0.9-1.1,1.6-1.5
		s1.5-0.5,2.3-0.5c0.9,0,1.7,0,2.3-0.1c0.6-0.1,1.2-0.2,1.6-0.3s0.9-0.3,1.5-0.6L183.8,44.7z M175.9,46.1c-0.4,0.5-0.6,1.1-0.6,1.9
		c0,0.8,0.2,1.5,0.7,1.9c0.4,0.5,1,0.7,1.8,0.7s1.4-0.2,1.9-0.7s0.6-1.1,0.6-2c0-1.8-0.8-2.6-2.5-2.6
		C177,45.4,176.4,45.6,175.9,46.1z"/>
</g>
<g class="st4">
	<path class="st2" d="M200,44.8c0.6,0.6,0.9,1.5,0.9,2.7V56h-2.1v-8.2c0-0.8-0.2-1.4-0.5-1.8s-0.8-0.5-1.4-0.5s-1.2,0.2-1.6,0.5
		c-0.5,0.4-0.9,0.9-1.3,1.5V56h-2.1V39.4l2.1-0.2v6.6c0.9-1.3,2.1-1.9,3.5-1.9C198.5,43.9,199.4,44.2,200,44.8z"/>
	<path class="st2" d="M213.3,54.3c0.2,0.2,0.4,0.4,0.7,0.5l-0.5,1.4c-0.6-0.1-1.1-0.2-1.5-0.5s-0.7-0.7-0.8-1.3
		c-0.8,1.2-2,1.8-3.5,1.8c-1.2,0-2.1-0.3-2.8-1c-0.7-0.7-1-1.5-1-2.6c0-1.3,0.5-2.2,1.4-2.9s2.2-1,3.9-1h1.8v-0.9
		c0-0.8-0.2-1.4-0.6-1.8c-0.4-0.4-1-0.5-1.9-0.5s-1.9,0.2-3.2,0.6l-0.5-1.5c1.5-0.5,2.8-0.8,4.1-0.8c1.4,0,2.4,0.3,3.1,1
		s1,1.7,1,2.9v5.4C213,53.7,213.1,54.1,213.3,54.3z M211,52.9v-2.7h-1.6c-2.2,0-3.3,0.8-3.3,2.4c0,0.7,0.2,1.2,0.5,1.6
		c0.3,0.4,0.9,0.5,1.5,0.5C209.4,54.7,210.3,54.1,211,52.9z"/>
	<path class="st2" d="M222.5,44.2c0.6,0.2,1.3,0.6,1.8,1l-0.9,1.3c-0.5-0.3-1.1-0.6-1.5-0.8c-0.5-0.2-1-0.2-1.5-0.2
		c-0.7,0-1.2,0.1-1.6,0.4c-0.4,0.3-0.6,0.7-0.6,1.1s0.2,0.9,0.6,1.1c0.4,0.3,1,0.5,2,0.8c1.3,0.3,2.3,0.8,3,1.3c0.7,0.6,1,1.3,1,2.3
		c0,1.2-0.5,2.1-1.4,2.7c-0.9,0.6-2,0.9-3.3,0.9c-1.8,0-3.3-0.5-4.5-1.6l1.1-1.3c1,0.8,2.1,1.1,3.3,1.1c0.8,0,1.4-0.2,1.9-0.5
		s0.7-0.8,0.7-1.3c0-0.4-0.1-0.7-0.2-1c-0.2-0.2-0.4-0.5-0.9-0.7s-1-0.4-1.8-0.6c-1.3-0.3-2.2-0.8-2.7-1.3c-0.6-0.6-0.8-1.3-0.8-2.1
		c0-0.6,0.2-1.2,0.6-1.7s0.9-0.9,1.5-1.2c0.7-0.3,1.4-0.4,2.2-0.4S221.8,44,222.5,44.2z"/>
	<path class="st2" d="M247.8,44.9c0.6,0.7,0.9,1.5,0.9,2.6V56h-2.1v-8.2c0-1.5-0.6-2.3-1.7-2.3c-0.6,0-1.1,0.2-1.5,0.5
		s-0.8,0.9-1.3,1.6V56H240v-8.2c0-1.5-0.6-2.3-1.7-2.3c-0.6,0-1.1,0.2-1.5,0.5s-0.8,0.9-1.3,1.6V56h-2.1V44.1h1.8l0.2,1.7
		c0.9-1.3,2-2,3.4-2c0.7,0,1.4,0.2,1.9,0.6c0.5,0.4,0.9,0.9,1.1,1.6c0.5-0.7,1-1.2,1.5-1.6s1.2-0.6,2-0.6
		C246.4,43.9,247.2,44.2,247.8,44.9z"/>
	<path class="st2" d="M261.1,45.5c0.9,1.1,1.4,2.6,1.4,4.5c0,1.2-0.2,2.3-0.6,3.2s-1,1.7-1.8,2.2s-1.7,0.8-2.8,0.8
		c-1.7,0-3-0.6-3.9-1.7c-0.9-1.1-1.4-2.6-1.4-4.5c0-1.2,0.2-2.3,0.6-3.2s1-1.7,1.8-2.2s1.7-0.8,2.9-0.8
		C258.9,43.9,260.2,44.4,261.1,45.5z M254.2,50.1c0,3,1,4.5,3.1,4.5c2.1,0,3.1-1.5,3.1-4.5s-1-4.5-3-4.5
		C255.2,45.5,254.2,47.1,254.2,50.1z"/>
	<path class="st2" d="M272.2,44l-0.4,2c-0.4-0.1-0.7-0.1-1-0.1c-0.7,0-1.3,0.3-1.8,0.8c-0.4,0.5-0.8,1.4-1.1,2.5V56h-2.1V44.1h1.8
		l0.2,2.4c0.3-0.9,0.7-1.6,1.3-2c0.5-0.5,1.2-0.7,1.9-0.7C271.5,43.9,271.9,43.9,272.2,44z"/>
	<path class="st2" d="M282.8,50.8h-7.6c0.1,1.3,0.4,2.3,1,2.9c0.6,0.6,1.3,0.9,2.2,0.9c0.6,0,1.1-0.1,1.6-0.2s1-0.4,1.5-0.8l0.9,1.2
		c-1.3,1-2.6,1.5-4.1,1.5c-1.6,0-2.9-0.5-3.9-1.6c-0.9-1.1-1.4-2.6-1.4-4.5c0-1.2,0.2-2.3,0.6-3.3s1-1.7,1.7-2.2s1.6-0.8,2.6-0.8
		c1.6,0,2.8,0.5,3.6,1.6c0.8,1,1.3,2.5,1.3,4.3C282.9,50.1,282.9,50.4,282.8,50.8z M280.8,49.1c0-1.2-0.2-2.1-0.7-2.7
		c-0.5-0.6-1.2-0.9-2.1-0.9c-1.7,0-2.6,1.2-2.8,3.7L280.8,49.1L280.8,49.1z"/>
	<path class="st2" d="M300.5,40.6c0.7,0.3,1.4,0.7,2.1,1.3l-1.3,1.3c-0.6-0.4-1.1-0.8-1.6-1s-1.1-0.3-1.8-0.3
		c-0.8,0-1.5,0.2-2.2,0.6c-0.7,0.4-1.2,1.1-1.6,2s-0.6,2.1-0.6,3.6c0,2.2,0.4,3.8,1.1,4.8s1.8,1.5,3.2,1.5c1.1,0,2.1-0.2,2.9-0.7V49
		H298l-0.2-1.7h5.1v7.5c-1.6,0.9-3.3,1.4-5.1,1.4c-2,0-3.6-0.7-4.8-2s-1.7-3.4-1.7-6c0-1.7,0.3-3.1,0.9-4.3s1.4-2.1,2.5-2.7
		s2.1-0.9,3.4-0.9C298.9,40.2,299.8,40.4,300.5,40.6z"/>
	<path class="st2" d="M314.7,45.5c0.9,1.1,1.4,2.6,1.4,4.5c0,1.2-0.2,2.3-0.6,3.2s-1,1.7-1.8,2.2s-1.7,0.8-2.8,0.8
		c-1.7,0-3-0.6-3.9-1.7c-0.9-1.1-1.4-2.6-1.4-4.5c0-1.2,0.2-2.3,0.6-3.2s1-1.7,1.8-2.2s1.7-0.8,2.9-0.8
		C312.4,43.9,313.7,44.4,314.7,45.5z M307.7,50.1c0,3,1,4.5,3.1,4.5s3.1-1.5,3.1-4.5s-1-4.5-3-4.5C308.7,45.5,307.7,47.1,307.7,50.1
		z"/>
	<path class="st2" d="M327.8,45.5c0.9,1.1,1.4,2.6,1.4,4.5c0,1.2-0.2,2.3-0.6,3.2s-1,1.7-1.8,2.2s-1.7,0.8-2.8,0.8
		c-1.7,0-3-0.6-3.9-1.7c-0.9-1.1-1.4-2.6-1.4-4.5c0-1.2,0.2-2.3,0.6-3.2s1-1.7,1.8-2.2s1.7-0.8,2.9-0.8
		C325.6,43.9,326.9,44.4,327.8,45.5z M320.8,50.1c0,3,1,4.5,3.1,4.5s3.1-1.5,3.1-4.5s-1-4.5-3-4.5C321.9,45.5,320.8,47.1,320.8,50.1
		z"/>
	<path class="st2" d="M342.2,44.7c-0.4,0.2-0.9,0.2-1.5,0.3c-0.5,0-1.2,0.1-2,0.1c1.4,0.6,2.1,1.6,2.1,3c0,1.2-0.4,2.2-1.2,2.9
		s-1.9,1.1-3.3,1.1c-0.5,0-1-0.1-1.5-0.2c-0.2,0.1-0.3,0.3-0.4,0.5s-0.2,0.4-0.2,0.6c0,0.6,0.5,1,1.6,1h1.9c0.8,0,1.5,0.1,2.1,0.4
		c0.6,0.3,1.1,0.7,1.4,1.2s0.5,1.1,0.5,1.7c0,1.2-0.5,2-1.4,2.7s-2.3,0.9-4.1,0.9c-1.3,0-2.3-0.1-3-0.4c-0.7-0.3-1.3-0.7-1.6-1.2
		c-0.3-0.5-0.5-1.2-0.5-2h1.9c0,0.5,0.1,0.9,0.3,1.1s0.5,0.5,1,0.6s1.1,0.2,2,0.2c1.2,0,2.1-0.2,2.7-0.5c0.5-0.3,0.8-0.8,0.8-1.4
		c0-0.6-0.2-1-0.6-1.3s-1-0.4-1.8-0.4h-1.9c-1,0-1.8-0.2-2.3-0.6c-0.5-0.4-0.8-1-0.8-1.6c0-0.4,0.1-0.8,0.3-1.1c0.2-0.4,0.5-0.7,1-1
		c-0.7-0.4-1.2-0.8-1.5-1.3s-0.5-1.2-0.5-1.9c0-0.8,0.2-1.5,0.6-2.1s0.9-1.1,1.6-1.5s1.5-0.5,2.3-0.5c0.9,0,1.7,0,2.3-0.1
		c0.6-0.1,1.2-0.2,1.6-0.3s0.9-0.3,1.5-0.6L342.2,44.7z M334.3,46.1c-0.4,0.5-0.6,1.1-0.6,1.9c0,0.8,0.2,1.5,0.7,1.9
		c0.4,0.5,1,0.7,1.8,0.7s1.4-0.2,1.9-0.7c0.4-0.5,0.6-1.1,0.6-2c0-1.8-0.8-2.6-2.5-2.6C335.3,45.4,334.7,45.6,334.3,46.1z"/>
	<path class="st2" d="M344.8,55.6c-0.4-0.5-0.7-1.1-0.7-1.9V39.4l2.1-0.2v14.5c0,0.3,0.1,0.6,0.2,0.7c0.1,0.2,0.3,0.2,0.6,0.2
		c0.3,0,0.5,0,0.8-0.1l0.5,1.4c-0.5,0.3-1,0.4-1.6,0.4C345.9,56.3,345.3,56,344.8,55.6z"/>
	<path class="st2" d="M359.7,50.8h-7.6c0.1,1.3,0.4,2.3,1,2.9c0.6,0.6,1.3,0.9,2.2,0.9c0.6,0,1.1-0.1,1.6-0.2c0.5-0.2,1-0.4,1.5-0.8
		l0.9,1.2c-1.3,1-2.6,1.5-4.1,1.5c-1.6,0-2.9-0.5-3.9-1.6c-0.9-1.1-1.4-2.6-1.4-4.5c0-1.2,0.2-2.3,0.6-3.3s1-1.7,1.7-2.2
		s1.6-0.8,2.6-0.8c1.6,0,2.8,0.5,3.6,1.6c0.8,1,1.3,2.5,1.3,4.3C359.7,50.1,359.7,50.4,359.7,50.8z M357.7,49.1
		c0-1.2-0.2-2.1-0.7-2.7c-0.5-0.6-1.2-0.9-2.1-0.9c-1.7,0-2.6,1.2-2.8,3.7L357.7,49.1L357.7,49.1z"/>
	<path class="st2" d="M375.3,44l-0.4,2c-0.4-0.1-0.7-0.1-1-0.1c-0.7,0-1.3,0.3-1.8,0.8c-0.4,0.5-0.8,1.4-1.1,2.5V56h-2.1V44.1h1.8
		l0.2,2.4c0.3-0.9,0.7-1.6,1.3-2c0.5-0.5,1.2-0.7,1.9-0.7C374.6,43.9,374.9,43.9,375.3,44z"/>
	<path class="st2" d="M385.9,50.8h-7.6c0.1,1.3,0.4,2.3,1,2.9c0.6,0.6,1.3,0.9,2.2,0.9c0.6,0,1.1-0.1,1.6-0.2c0.5-0.2,1-0.4,1.5-0.8
		l0.9,1.2c-1.3,1-2.6,1.5-4.1,1.5c-1.6,0-2.9-0.5-3.9-1.6c-0.9-1.1-1.4-2.6-1.4-4.5c0-1.2,0.2-2.3,0.6-3.3s1-1.7,1.7-2.2
		s1.6-0.8,2.6-0.8c1.6,0,2.8,0.5,3.6,1.6c0.8,1,1.3,2.5,1.3,4.3C385.9,50.1,385.9,50.4,385.9,50.8z M383.9,49.1
		c0-1.2-0.2-2.1-0.7-2.7c-0.5-0.6-1.2-0.9-2.1-0.9c-1.7,0-2.6,1.2-2.8,3.7L383.9,49.1L383.9,49.1z"/>
	<path class="st2" d="M394.6,44.2c0.6,0.2,1.3,0.6,1.8,1l-0.9,1.3c-0.5-0.3-1.1-0.6-1.5-0.8c-0.5-0.2-1-0.2-1.5-0.2
		c-0.7,0-1.2,0.1-1.6,0.4s-0.6,0.7-0.6,1.1s0.2,0.9,0.6,1.1c0.4,0.3,1,0.5,2,0.8c1.3,0.3,2.3,0.8,3,1.3c0.7,0.6,1,1.3,1,2.3
		c0,1.2-0.5,2.1-1.4,2.7c-0.9,0.6-2,0.9-3.3,0.9c-1.8,0-3.3-0.5-4.5-1.6l1.1-1.3c1,0.8,2.1,1.1,3.3,1.1c0.8,0,1.4-0.2,1.9-0.5
		s0.7-0.8,0.7-1.3c0-0.4-0.1-0.7-0.2-1c-0.2-0.2-0.4-0.5-0.9-0.7c-0.4-0.2-1-0.4-1.8-0.6c-1.3-0.3-2.2-0.8-2.7-1.3s-0.8-1.3-0.8-2.1
		c0-0.6,0.2-1.2,0.6-1.7s0.9-0.9,1.5-1.2c0.7-0.3,1.4-0.4,2.2-0.4S394,44,394.6,44.2z"/>
	<path class="st2" d="M408.6,56h-1.8l-0.2-1.8c-0.4,0.7-1,1.3-1.6,1.6s-1.3,0.5-2.1,0.5c-1,0-1.8-0.3-2.4-0.9s-0.9-1.5-0.9-2.7v-8.5
		h2.1v8.3c0,0.8,0.1,1.4,0.4,1.7s0.7,0.5,1.4,0.5c1.2,0,2.1-0.7,3-2v-8.5h2.1V56z"/>
	<path class="st2" d="M413.4,55.6c-0.4-0.5-0.7-1.1-0.7-1.9V39.4l2.1-0.2v14.5c0,0.3,0.1,0.6,0.2,0.7c0.1,0.2,0.3,0.2,0.6,0.2
		c0.3,0,0.5,0,0.8-0.1l0.5,1.4c-0.5,0.3-1,0.4-1.6,0.4C414.4,56.3,413.8,56,413.4,55.6z"/>
	<path class="st2" d="M425.4,55.5c-0.8,0.5-1.7,0.8-2.7,0.8s-1.8-0.3-2.3-0.9c-0.6-0.6-0.8-1.4-0.8-2.5v-7.2h-2.1v-1.6h2.1v-2.7
		l2.1-0.2v2.9h2.8l-0.2,1.6h-2.6v7.1c0,0.6,0.1,1.1,0.3,1.3c0.2,0.3,0.6,0.4,1.1,0.4s1-0.2,1.6-0.5L425.4,55.5z"/>
	<path class="st2" d="M432.9,44.2c0.6,0.2,1.3,0.6,1.8,1l-0.9,1.3c-0.5-0.3-1.1-0.6-1.5-0.8c-0.5-0.2-1-0.2-1.5-0.2
		c-0.7,0-1.2,0.1-1.6,0.4s-0.6,0.7-0.6,1.1s0.2,0.9,0.6,1.1c0.4,0.3,1,0.5,2,0.8c1.3,0.3,2.3,0.8,3,1.3c0.7,0.6,1,1.3,1,2.3
		c0,1.2-0.5,2.1-1.4,2.7c-0.9,0.6-2,0.9-3.3,0.9c-1.8,0-3.3-0.5-4.5-1.6l1.1-1.3c1,0.8,2.1,1.1,3.3,1.1c0.8,0,1.4-0.2,1.9-0.5
		s0.7-0.8,0.7-1.3c0-0.4-0.1-0.7-0.2-1c-0.2-0.2-0.4-0.5-0.9-0.7c-0.4-0.2-1-0.4-1.8-0.6c-1.3-0.3-2.2-0.8-2.7-1.3s-0.8-1.3-0.8-2.1
		c0-0.6,0.2-1.2,0.6-1.7s0.9-0.9,1.5-1.2c0.7-0.3,1.4-0.4,2.2-0.4S432.3,44,432.9,44.2z"/>
</g>
<g class="st4">
	<path class="st2" d="M15.1,71l-0.4,2c-0.4-0.1-0.7-0.1-1-0.1c-0.7,0-1.3,0.3-1.8,0.8c-0.4,0.5-0.8,1.4-1.1,2.5V83h-2V71.1h1.8
		l0.2,2.4c0.3-0.9,0.7-1.6,1.3-2c0.5-0.5,1.2-0.7,1.9-0.7C14.4,70.9,14.8,70.9,15.1,71z"/>
	<path class="st2" d="M25.7,77.8h-7.6c0.1,1.3,0.4,2.3,1,2.9s1.3,0.9,2.2,0.9c0.6,0,1.1-0.1,1.6-0.2s1-0.4,1.5-0.8l0.9,1.2
		c-1.3,1-2.6,1.5-4.1,1.5c-1.6,0-2.9-0.5-3.9-1.6c-0.9-1.1-1.4-2.6-1.4-4.5c0-1.2,0.2-2.3,0.6-3.3s1-1.7,1.7-2.2s1.6-0.8,2.6-0.8
		c1.6,0,2.8,0.5,3.6,1.6c0.8,1,1.3,2.5,1.3,4.3C25.8,77.1,25.7,77.4,25.7,77.8z M23.7,76.1c0-1.2-0.2-2.1-0.7-2.7s-1.2-0.9-2.1-0.9
		c-1.7,0-2.6,1.2-2.8,3.7L23.7,76.1L23.7,76.1z"/>
	<path class="st2" d="M29.6,82.6c-0.4-0.5-0.7-1.1-0.7-1.9V66.4l2.1-0.2v14.5c0,0.3,0.1,0.6,0.2,0.7c0.1,0.2,0.3,0.2,0.6,0.2
		c0.3,0,0.5,0,0.8-0.1l0.5,1.4c-0.5,0.3-1,0.4-1.6,0.4C30.7,83.3,30.1,83,29.6,82.6z"/>
	<path class="st2" d="M43.8,81.3c0.2,0.2,0.4,0.4,0.7,0.5L44,83.2c-0.6-0.1-1.1-0.2-1.5-0.5s-0.7-0.7-0.8-1.3
		c-0.8,1.2-2,1.8-3.5,1.8c-1.2,0-2.1-0.3-2.8-1c-0.7-0.7-1-1.5-1-2.6c0-1.3,0.5-2.2,1.4-2.9c0.9-0.7,2.2-1,3.9-1h1.8v-0.9
		c0-0.8-0.2-1.4-0.6-1.8s-1-0.5-1.9-0.5s-1.9,0.2-3.2,0.6l-0.5-1.5c1.5-0.5,2.8-0.8,4.1-0.8c1.4,0,2.4,0.3,3.1,1s1,1.7,1,2.9v5.4
		C43.5,80.7,43.6,81.1,43.8,81.3z M41.5,79.9v-2.7h-1.6c-2.2,0-3.3,0.8-3.3,2.4c0,0.7,0.2,1.2,0.5,1.6s0.9,0.5,1.5,0.5
		C39.9,81.7,40.8,81.1,41.5,79.9z"/>
	<path class="st2" d="M53.8,82.5c-0.8,0.5-1.7,0.8-2.7,0.8s-1.8-0.3-2.4-0.9c-0.6-0.6-0.8-1.4-0.8-2.5v-7.2h-2.1v-1.6h2.1v-2.7
		l2.1-0.2v2.9h2.8l-0.2,1.6H50v7.1c0,0.6,0.1,1.1,0.3,1.3c0.2,0.3,0.6,0.4,1.1,0.4s1-0.2,1.6-0.5L53.8,82.5z"/>
	<path class="st2" d="M64.5,77.8h-7.6c0.1,1.3,0.4,2.3,1,2.9s1.3,0.9,2.2,0.9c0.6,0,1.1-0.1,1.6-0.2s1-0.4,1.5-0.8l0.9,1.2
		c-1.3,1-2.6,1.5-4.1,1.5c-1.6,0-2.9-0.5-3.9-1.6c-0.9-1.1-1.4-2.6-1.4-4.5c0-1.2,0.2-2.3,0.6-3.3c0.4-1,1-1.7,1.7-2.2
		s1.6-0.8,2.6-0.8c1.6,0,2.8,0.5,3.6,1.6c0.8,1,1.3,2.5,1.3,4.3C64.5,77.1,64.5,77.4,64.5,77.8z M62.5,76.1c0-1.2-0.2-2.1-0.7-2.7
		s-1.2-0.9-2.1-0.9c-1.7,0-2.6,1.2-2.8,3.7L62.5,76.1L62.5,76.1z"/>
	<path class="st2" d="M77,66.4V83h-1.8L75,81.4c-0.4,0.6-0.9,1.1-1.5,1.4s-1.2,0.5-2,0.5c-1.4,0-2.5-0.6-3.3-1.7S67,79,67,77.1
		c0-1.2,0.2-2.3,0.6-3.2c0.4-0.9,0.9-1.7,1.6-2.2c0.7-0.5,1.5-0.8,2.5-0.8c1.2,0,2.3,0.5,3.2,1.5v-6.2L77,66.4z M73.6,81.2
		c0.4-0.3,0.9-0.7,1.3-1.3v-5.8c-0.4-0.5-0.8-0.9-1.2-1.2c-0.4-0.3-0.9-0.4-1.5-0.4c-0.9,0-1.6,0.4-2.1,1.1
		c-0.5,0.8-0.8,1.9-0.8,3.4s0.2,2.7,0.7,3.4c0.5,0.8,1.1,1.1,2,1.1C72.6,81.6,73.2,81.5,73.6,81.2z"/>
	<path class="st2" d="M93.2,82.5c-0.8,0.5-1.7,0.8-2.7,0.8s-1.8-0.3-2.4-0.9c-0.6-0.6-0.8-1.4-0.8-2.5v-7.2h-2.1v-1.6h2.1v-2.7
		l2.1-0.2v2.9h2.8L92,72.7h-2.6v7.1c0,0.6,0.1,1.1,0.3,1.3c0.2,0.3,0.6,0.4,1.1,0.4s1-0.2,1.6-0.5L93.2,82.5z"/>
	<path class="st2" d="M103.3,72.5c0.9,1.1,1.4,2.6,1.4,4.5c0,1.2-0.2,2.3-0.6,3.2c-0.4,0.9-1,1.7-1.8,2.2s-1.7,0.8-2.8,0.8
		c-1.7,0-3-0.6-3.9-1.7s-1.4-2.6-1.4-4.5c0-1.2,0.2-2.3,0.6-3.2c0.4-0.9,1-1.7,1.8-2.2s1.7-0.8,2.9-0.8
		C101.1,70.9,102.4,71.4,103.3,72.5z M96.4,77.1c0,3,1,4.5,3.1,4.5s3.1-1.5,3.1-4.5s-1-4.5-3-4.5C97.4,72.5,96.4,74.1,96.4,77.1z"/>
	<path class="st2" d="M120.1,82.5c-0.8,0.5-1.7,0.8-2.7,0.8s-1.8-0.3-2.4-0.9c-0.6-0.6-0.8-1.4-0.8-2.5v-7.2h-2.1v-1.6h2.1v-2.7
		l2.1-0.2v2.9h2.8l-0.2,1.6h-2.6v7.1c0,0.6,0.1,1.1,0.3,1.3c0.2,0.3,0.6,0.4,1.1,0.4s1-0.2,1.6-0.5L120.1,82.5z"/>
	<path class="st2" d="M130.3,71.8c0.6,0.6,0.9,1.5,0.9,2.7V83h-2.1v-8.2c0-0.8-0.2-1.4-0.5-1.8s-0.8-0.5-1.4-0.5
		c-0.6,0-1.2,0.2-1.6,0.5c-0.5,0.4-0.9,0.9-1.3,1.5V83h-2.1V66.4l2.1-0.2v6.6c0.9-1.3,2.1-1.9,3.5-1.9
		C128.9,70.9,129.7,71.2,130.3,71.8z"/>
	<path class="st2" d="M144.3,77.8h-7.6c0.1,1.3,0.4,2.3,1,2.9s1.3,0.9,2.2,0.9c0.6,0,1.1-0.1,1.6-0.2s1-0.4,1.5-0.8l0.9,1.2
		c-1.3,1-2.6,1.5-4.1,1.5c-1.6,0-2.9-0.5-3.9-1.6c-0.9-1.1-1.4-2.6-1.4-4.5c0-1.2,0.2-2.3,0.6-3.3c0.4-1,1-1.7,1.7-2.2
		s1.6-0.8,2.6-0.8c1.6,0,2.8,0.5,3.6,1.6c0.8,1,1.3,2.5,1.3,4.3C144.3,77.1,144.3,77.4,144.3,77.8z M142.3,76.1
		c0-1.2-0.2-2.1-0.7-2.7s-1.2-0.9-2.1-0.9c-1.7,0-2.6,1.2-2.8,3.7L142.3,76.1L142.3,76.1z"/>
	<path class="st2" d="M161.8,81.3c0.2,0.2,0.4,0.4,0.7,0.5l-0.5,1.4c-0.6-0.1-1.1-0.2-1.5-0.5s-0.7-0.7-0.8-1.3
		c-0.8,1.2-2,1.8-3.5,1.8c-1.2,0-2.1-0.3-2.8-1s-1-1.5-1-2.6c0-1.3,0.5-2.2,1.4-2.9c0.9-0.7,2.2-1,3.9-1h1.8v-0.9
		c0-0.8-0.2-1.4-0.6-1.8c-0.4-0.4-1-0.5-1.9-0.5s-1.9,0.2-3.2,0.6l-0.5-1.5c1.5-0.5,2.8-0.8,4.1-0.8c1.4,0,2.4,0.3,3.1,1
		c0.7,0.7,1,1.7,1,2.9v5.4C161.6,80.7,161.7,81.1,161.8,81.3z M159.5,79.9v-2.7h-1.6c-2.2,0-3.3,0.8-3.3,2.4c0,0.7,0.2,1.2,0.5,1.6
		s0.9,0.5,1.5,0.5C157.9,81.7,158.8,81.1,159.5,79.9z"/>
	<path class="st2" d="M172.1,71.2c0.6,0.2,1.1,0.5,1.7,1l-1,1.3c-0.4-0.3-0.8-0.5-1.2-0.7c-0.4-0.1-0.8-0.2-1.3-0.2
		c-1,0-1.7,0.4-2.2,1.1c-0.5,0.8-0.8,1.9-0.8,3.4s0.3,2.6,0.8,3.3c0.5,0.7,1.3,1.1,2.2,1.1c0.5,0,0.9-0.1,1.3-0.2s0.8-0.4,1.3-0.7
		l0.9,1.4c-1.1,0.9-2.3,1.3-3.6,1.3c-1.6,0-2.9-0.5-3.8-1.6c-0.9-1.1-1.4-2.6-1.4-4.5c0-1.3,0.2-2.4,0.6-3.3c0.4-0.9,1-1.7,1.8-2.2
		s1.7-0.8,2.8-0.8C170.9,70.9,171.5,71,172.1,71.2z"/>
	<path class="st2" d="M184.6,81.3c0.2,0.2,0.4,0.4,0.7,0.5l-0.5,1.4c-0.6-0.1-1.1-0.2-1.5-0.5s-0.7-0.7-0.8-1.3
		c-0.8,1.2-2,1.8-3.5,1.8c-1.2,0-2.1-0.3-2.8-1c-0.7-0.7-1-1.5-1-2.6c0-1.3,0.5-2.2,1.4-2.9c0.9-0.7,2.2-1,3.9-1h1.8v-0.9
		c0-0.8-0.2-1.4-0.6-1.8s-1-0.5-1.9-0.5s-1.9,0.2-3.2,0.6l-0.5-1.5c1.5-0.5,2.8-0.8,4.1-0.8c1.4,0,2.4,0.3,3.1,1s1,1.7,1,2.9v5.4
		C184.3,80.7,184.4,81.1,184.6,81.3z M182.3,79.9v-2.7h-1.6c-2.2,0-3.3,0.8-3.3,2.4c0,0.7,0.2,1.2,0.5,1.6s0.9,0.5,1.5,0.5
		C180.7,81.7,181.6,81.1,182.3,79.9z"/>
	<path class="st2" d="M197.8,66.4V83H196l-0.2-1.6c-0.4,0.6-0.9,1.1-1.5,1.4s-1.2,0.5-2,0.5c-1.4,0-2.5-0.6-3.3-1.7
		s-1.2-2.6-1.2-4.5c0-1.2,0.2-2.3,0.6-3.2c0.4-0.9,0.9-1.7,1.6-2.2s1.5-0.8,2.5-0.8c1.2,0,2.3,0.5,3.2,1.5v-6.2L197.8,66.4z
		 M194.4,81.2c0.4-0.3,0.9-0.7,1.3-1.3v-5.8c-0.4-0.5-0.8-0.9-1.2-1.2c-0.4-0.3-0.9-0.4-1.5-0.4c-0.9,0-1.6,0.4-2.1,1.1
		c-0.5,0.8-0.8,1.9-0.8,3.4s0.2,2.7,0.7,3.4c0.5,0.8,1.1,1.1,2,1.1C193.4,81.6,194,81.5,194.4,81.2z"/>
	<path class="st2" d="M211,77.8h-7.6c0.1,1.3,0.4,2.3,1,2.9s1.3,0.9,2.2,0.9c0.6,0,1.1-0.1,1.6-0.2s1-0.4,1.5-0.8l0.9,1.2
		c-1.3,1-2.6,1.5-4.1,1.5c-1.6,0-2.9-0.5-3.9-1.6c-0.9-1.1-1.4-2.6-1.4-4.5c0-1.2,0.2-2.3,0.6-3.3s1-1.7,1.7-2.2s1.6-0.8,2.6-0.8
		c1.6,0,2.8,0.5,3.6,1.6c0.8,1,1.3,2.5,1.3,4.3C211,77.1,211,77.4,211,77.8z M209,76.1c0-1.2-0.2-2.1-0.7-2.7s-1.2-0.9-2.1-0.9
		c-1.7,0-2.6,1.2-2.8,3.7L209,76.1L209,76.1z"/>
	<path class="st2" d="M228.5,71.9c0.6,0.7,0.9,1.5,0.9,2.6V83h-2.1v-8.2c0-1.5-0.6-2.3-1.7-2.3c-0.6,0-1.1,0.2-1.5,0.5
		s-0.8,0.9-1.3,1.6V83h-2v-8.2c0-1.5-0.6-2.3-1.7-2.3c-0.6,0-1.1,0.2-1.5,0.5s-0.8,0.9-1.3,1.6V83h-2.1V71.1h1.8l0.2,1.7
		c0.9-1.3,2-2,3.4-2c0.7,0,1.4,0.2,1.9,0.6s0.9,0.9,1.1,1.6c0.5-0.7,1-1.2,1.5-1.6s1.2-0.6,2-0.6C227.2,70.9,228,71.2,228.5,71.9z"
		/>
	<path class="st2" d="M235.6,65.9c0.3,0.3,0.4,0.6,0.4,1s-0.1,0.7-0.4,1s-0.6,0.4-1.1,0.4c-0.4,0-0.8-0.1-1-0.4
		c-0.3-0.3-0.4-0.6-0.4-1s0.1-0.7,0.4-1s0.6-0.4,1-0.4C235,65.5,235.4,65.6,235.6,65.9z M235.6,71.1V83h-2.1V71.1H235.6z"/>
	<path class="st2" d="M246.2,71.2c0.6,0.2,1.1,0.5,1.7,1l-1,1.3c-0.4-0.3-0.8-0.5-1.2-0.7c-0.4-0.1-0.8-0.2-1.3-0.2
		c-1,0-1.7,0.4-2.2,1.1c-0.5,0.8-0.8,1.9-0.8,3.4s0.3,2.6,0.8,3.3c0.5,0.7,1.3,1.1,2.2,1.1c0.5,0,0.9-0.1,1.3-0.2s0.8-0.4,1.3-0.7
		l0.9,1.3c-1.1,0.9-2.3,1.3-3.6,1.3c-1.6,0-2.9-0.5-3.8-1.6s-1.4-2.6-1.4-4.5c0-1.3,0.2-2.4,0.6-3.3s1-1.7,1.8-2.2s1.7-0.8,2.8-0.8
		C244.9,70.9,245.6,71,246.2,71.2z"/>
	<path class="st2" d="M270.2,71.1L267.5,83h-2.8l-2.1-10l-2.1,10h-2.7L255,71.1h2.1l2.1,10.4l2.3-10.4h2.3l2.2,10.4l2.2-10.4H270.2z
		"/>
	<path class="st2" d="M281.1,72.5c0.9,1.1,1.4,2.6,1.4,4.5c0,1.2-0.2,2.3-0.6,3.2c-0.4,0.9-1,1.7-1.8,2.2s-1.7,0.8-2.8,0.8
		c-1.7,0-3-0.6-3.9-1.7S272,78.9,272,77c0-1.2,0.2-2.3,0.6-3.2c0.4-0.9,1-1.7,1.8-2.2s1.7-0.8,2.9-0.8
		C278.9,70.9,280.2,71.4,281.1,72.5z M274.1,77.1c0,3,1,4.5,3.1,4.5s3.1-1.5,3.1-4.5s-1-4.5-3-4.5C275.1,72.5,274.1,74.1,274.1,77.1
		z"/>
	<path class="st2" d="M292.2,71l-0.4,2c-0.4-0.1-0.7-0.1-1-0.1c-0.7,0-1.3,0.3-1.8,0.8c-0.4,0.5-0.8,1.4-1.1,2.5V83h-2.1V71.1h1.8
		l0.2,2.4c0.3-0.9,0.7-1.6,1.3-2c0.5-0.5,1.2-0.7,1.9-0.7C291.5,70.9,291.8,70.9,292.2,71z"/>
	<path class="st2" d="M295.1,82.6c-0.4-0.5-0.7-1.1-0.7-1.9V66.4l2.1-0.2v14.5c0,0.3,0.1,0.6,0.2,0.7c0.1,0.2,0.3,0.2,0.6,0.2
		c0.3,0,0.5,0,0.8-0.1l0.5,1.4c-0.5,0.3-1,0.4-1.6,0.4C296.2,83.3,295.6,83,295.1,82.6z"/>
	<path class="st2" d="M310.2,66.4V83h-1.8l-0.2-1.6c-0.4,0.6-0.9,1.1-1.5,1.4s-1.2,0.5-2,0.5c-1.4,0-2.5-0.6-3.3-1.7
		s-1.2-2.6-1.2-4.5c0-1.2,0.2-2.3,0.6-3.2c0.4-0.9,0.9-1.7,1.6-2.2s1.5-0.8,2.5-0.8c1.2,0,2.3,0.5,3.2,1.5v-6.2L310.2,66.4z
		 M306.8,81.2c0.4-0.3,0.9-0.7,1.3-1.3v-5.8c-0.4-0.5-0.8-0.9-1.2-1.2c-0.4-0.3-0.9-0.4-1.5-0.4c-0.9,0-1.6,0.4-2.1,1.1
		c-0.5,0.8-0.8,1.9-0.8,3.4s0.2,2.7,0.7,3.4c0.5,0.8,1.1,1.1,2,1.1C305.9,81.6,306.4,81.5,306.8,81.2z"/>
	<path class="st2" d="M320,67.7c0.7,0.3,1.1,0.8,1.5,1.3c0.3,0.5,0.5,1.1,0.5,1.7s-0.1,1.1-0.3,1.5c-0.2,0.4-0.4,0.7-0.7,1
		s-0.7,0.6-1.1,0.9c-0.6,0.4-1.1,0.8-1.4,1.2s-0.5,0.9-0.5,1.5v1h-2v-1.1c0-0.6,0.1-1.2,0.3-1.6c0.2-0.4,0.5-0.8,0.8-1.1
		c0.3-0.3,0.7-0.6,1.2-0.9c0.6-0.4,1-0.7,1.3-1s0.4-0.7,0.4-1.2c0-0.6-0.2-1.1-0.6-1.4s-1-0.5-1.7-0.5c-1.2,0-2.2,0.5-3.1,1.6
		l-1.4-1.1c1.3-1.5,2.8-2.2,4.7-2.2C318.6,67.2,319.4,67.4,320,67.7z M318.1,80.6c0.3,0.3,0.4,0.7,0.4,1.1s-0.1,0.8-0.4,1.1
		c-0.3,0.3-0.7,0.5-1.1,0.5s-0.8-0.2-1.1-0.5c-0.3-0.3-0.4-0.7-0.4-1.1s0.1-0.8,0.4-1.1c0.3-0.3,0.7-0.5,1.1-0.5
		C317.4,80.1,317.8,80.3,318.1,80.6z"/>
</g>
</svg>
