<svg version="1" xmlns="http://www.w3.org/2000/svg" width="933.333" height="933.333" viewBox="0 0 700.000000 700.000000"><path d="M.8 157.2c-.2.7-.5 9.3-.7 19-.2 14.3 0 17.8 1.1 17.9.7.1 3.8.2 6.8.4 7.1.3 19.9 1.5 22.5 2 25.7 5.2 40.5 12.4 54.6 26.6 14.6 14.7 23.2 31.4 40.3 77.9 21.6 58.5 36.3 84.7 61.2 108.2 14.9 14.1 36.4 27.4 56 34.7l6.1 2.2.6 7.7c2.1 27.1 20.1 57 43.8 72.7 17 11.4 33.1 16.5 53.9 17.1 14.4.4 22.9-.8 35-4.7 36.9-12.2 65.8-47.9 68.7-85.1l.6-7.7 6.1-2.2c8.3-3.1 21.9-9.8 28.9-14.2 3.1-2 6.1-3.7 6.6-3.7s1.1-.3 1.3-.8c.2-.4 3-2.7 6.3-5.1 9.1-6.8 19.5-16.8 28-27.1 16.3-19.6 30.1-47.6 48-97.5 2-5.5 4-10.9 4.5-12 .5-1.1 2.9-7 5.4-13.2 19.7-49 45-69.6 91.6-74.7 5.8-.6 13.1-1.1 16.3-1.1h5.8l-.2-17.5c-.2-9.6-.5-18.3-.7-19.3-.4-1.7-1.4-1.8-12.6-1.3-63.3 3.2-103.2 29.6-130 86.1-2.1 4.4-4.5 9.8-5.3 12-.8 2.2-2.1 5.3-2.8 7-.7 1.6-3.6 9.3-6.5 17-22.4 60.9-31.4 78.3-51 98.9-6.4 6.8-13.2 12.3-22 18-4.9 3.2-21.5 11.6-22.8 11.6-.5 0-2.9-4.2-5.4-9.3-23-46.2-75.1-67.5-124.4-50.7-24.6 8.4-45.1 26.6-57.2 50.7-2.5 5.1-4.9 9.3-5.3 9.3-2.7 0-25.4-12.4-28.6-15.5-.8-.8-2.7-2.2-4.3-3.2-5.4-3.2-20.5-19.8-27.2-29.9-10.9-16.3-17.8-31.4-31.5-68.2-21.2-57.3-30.8-75.1-51.8-95.8-23.9-23.6-55.9-36-98.1-38-8.7-.4-11.2-.3-11.6.8zm364.5 224.3c20.3 5 37.7 21.2 44.5 41 3.9 11.3 4 27.4.4 39.2-8 25.5-31.7 43.2-58.7 43.8-26.8.7-50.6-15.2-60.4-40.2-2.8-7.2-3.2-9.4-3.8-20.3-.9-18.1 4.8-33.1 17.7-46.1 10.1-10.3 21.9-16.6 34.1-18.4 2.4-.4 4.5-.8 4.7-.9.7-.8 16.3.6 21.5 1.9z"/></svg>