<svg xmlns="http://www.w3.org/2000/svg" xmlns:xlink="http://www.w3.org/1999/xlink" viewBox="0 0 256 256"><defs><style>.cls-1,.cls-3{fill:none;}.cls-2{clip-path:url(#clip-path);}.cls-3{stroke:#fff;stroke-miterlimit:10;stroke-width:14px;}.cls-4{clip-path:url(#clip-path-2);}</style><clipPath id="clip-path"><path class="cls-1" d="M158.43,161.57A30.42,30.42,0,0,0,128,131.14V0H256V256H128V192A30.43,30.43,0,0,0,158.43,161.57Z"/></clipPath><clipPath id="clip-path-2"><path class="cls-1" d="M97.57,161.57A30.42,30.42,0,0,1,128,131.14V0H0V256H128V192A30.43,30.43,0,0,1,97.57,161.57Z"/></clipPath></defs><title>www-favicon</title><g id="favicon"><g class="cls-2"><path class="cls-3" d="M256,64c-78.91,0-23.31,97.57-128,97.57"/></g><g class="cls-4"><path class="cls-3" d="M0,64c78.91,0,23.31,97.57,128,97.57"/></g><circle class="cls-3" cx="128" cy="161.87" r="30.13"/></g></svg>