<?xml version="1.0" encoding="utf-8"?>
<!-- Generator: Adobe Illustrator 22.1.0, SVG Export Plug-In . SVG Version: 6.00 Build 0)  -->
<svg version="1.1" id="brazil" xmlns="http://www.w3.org/2000/svg" xmlns:xlink="http://www.w3.org/1999/xlink" x="0px" y="0px"
	 viewBox="0 0 285.2 255.8" style="enable-background:new 0 0 285.2 255.8;" xml:space="preserve">
<style type="text/css">
	.st0{fill:#FFFFFF;}
	.st1{fill:#666666;}
	.st2{font-family:'IBMPlexSansCond';}
	.st3{font-size:12px;}
	.st4{letter-spacing:12;}
	.st5{letter-spacing:33;}
	.st6{letter-spacing:19;}
	.st7{letter-spacing:3;}
	.st8{letter-spacing:20;}
	.st9{letter-spacing:28;}
	.st10{fill:#617263;}
	.st11{fill:#AFD7EF;}
	.st12{fill:#DDD492;}
	.st13{fill:#2B5681;}
	.st14{fill:#89703F;}
	.st15{fill:#508AB5;}
	.st16{fill:#A8BAA9;}
</style>
<rect x="-0.4" y="-0.1" class="st0" width="286" height="256"/>
<text transform="matrix(1 0 0 1 24.5864 158.5061)"><tspan x="0" y="0" class="st1 st2 st3">Educational and Academic</tspan><tspan x="128.9" y="0" class="st1 st2 st3 st4">	</tspan><tspan x="144" y="0" class="st1 st2 st3 st5">		</tspan><tspan x="216" y="0" class="st2 st3">32</tspan><tspan x="0" y="14.4" class="st1 st2 st3">Environmental Organisations</tspan><tspan x="140.5" y="14.4" class="st1 st2 st3">	</tspan><tspan x="144" y="14.4" class="st1 st2 st3 st5">		</tspan><tspan x="216" y="14.4" class="st2 st3">15</tspan><tspan x="0" y="28.8" class="st1 st2 st3">Governmetal Institutions</tspan><tspan x="121.8" y="28.8" class="st1 st2 st3 st6">	</tspan><tspan x="144" y="28.8" class="st1 st2 st3 st5">		</tspan><tspan x="216" y="28.8" class="st2 st3">1</tspan><tspan x="0" y="43.2" class="st1 st2 st3">Human Rights Organisations</tspan><tspan x="138.1" y="43.2" class="st1 st2 st3 st7">	</tspan><tspan x="144" y="43.2" class="st1 st2 st3 st5">		</tspan><tspan x="216" y="43.2" class="st2 st3">10</tspan><tspan x="229" y="43.2" class="st1 st2 st3 st8">	</tspan><tspan x="252" y="43.2" class="st1 st2 st3 st5">				</tspan><tspan x="0" y="57.6" class="st1 st2 st3">News </tspan><tspan x="29.8" y="57.6" class="st1 st2 st3 st7">	</tspan><tspan x="36" y="57.6" class="st1 st2 st3 st5">					</tspan><tspan x="216" y="57.6" class="st2 st3">104</tspan><tspan x="0" y="72" class="st1 st2 st3">Social Media and Publishing Platforms</tspan><tspan x="185.4" y="72" class="st1 st2 st3 st9">	</tspan><tspan x="216" y="72" class="st2 st3">1</tspan></text>
<path class="st10" d="M72.7,24.9l1.9,50L72.7,24.9z"/>
<path class="st11" d="M113.9,105.7c-17,21.7-48.5,25.5-70.2,8.5S18.2,65.8,35.2,44C44.3,32.5,58,25.5,72.7,24.9l1.9,50L113.9,105.7z
	"/>
<path class="st12" d="M122.6,88.7c-1.8,6.2-4.7,12-8.7,17.1L74.6,74.9L122.6,88.7z"/>
<path class="st13" d="M123.1,86.8c-0.2,0.6-0.3,1.2-0.5,1.9L74.6,74.9L123.1,86.8z"/>
<path class="st14" d="M121.8,58.3c3.2,9.2,3.7,19.1,1.4,28.5L74.6,74.9L121.8,58.3z"/>
<path class="st15" d="M74.6,24.9c21.2,0,40.2,13.4,47.2,33.5L74.6,74.9V24.9z"/>
<path class="st16" d="M72.7,24.9c0.6,0,1.3,0,1.9,0v50L72.7,24.9z"/>
</svg>
