<svg xmlns="http://www.w3.org/2000/svg" xmlns:xlink="http://www.w3.org/1999/xlink" viewBox="0 0 303.99 274.11"><defs><style>.cls-1,.cls-2{fill:none;}.cls-2{stroke:#fff;stroke-width:0.3px;}.cls-3{fill:#58626b;}.cls-4{fill:#ff3502;}.cls-5{fill:#73c000;}.cls-6{fill:#9d77fc;}.cls-7{fill:#fff;}.cls-8{fill:#4a74ff;}.cls-9{fill:#f2d51c;}.cls-10{fill:aqua;}.cls-11{fill:#ff52e7;}.cls-12{stroke:#58626b;stroke-miterlimit:10;fill:url(#Griglia_1_cm_righe);}</style><pattern id="Griglia_1_cm_righe" data-name="Griglia 1 cm righe" width="56.69" height="56.69" patternUnits="userSpaceOnUse" viewBox="0 0 56.69 56.69"><rect class="cls-1" width="56.69" height="56.69"/><line class="cls-2" x1="42.52" y1="113.63" x2="42.52" y2="56.44"/><line class="cls-2" x1="14.17" y1="56.44" x2="14.17" y2="113.63"/><line class="cls-2" x1="113.63" y1="14.17" x2="56.44" y2="14.17"/><line class="cls-2" x1="56.44" y1="42.52" x2="113.63" y2="42.52"/><line class="cls-2" x1="56.94" y1="14.17" x2="-0.25" y2="14.17"/><line class="cls-2" x1="-0.25" y1="42.52" x2="56.94" y2="42.52"/><line class="cls-2" x1="42.52" y1="56.94" x2="42.52" y2="-0.25"/><line class="cls-2" x1="14.17" y1="-0.25" x2="14.17" y2="56.94"/><line class="cls-2" x1="0.25" y1="14.17" x2="-56.94" y2="14.17"/><line class="cls-2" x1="-56.94" y1="42.52" x2="0.25" y2="42.52"/><line class="cls-2" x1="42.52" y1="0.25" x2="42.52" y2="-56.94"/><line class="cls-2" x1="14.17" y1="-56.94" x2="14.17" y2="0.25"/></pattern></defs><title>legend</title><g id="legend"><path class="cls-3" d="M8.1,7.7V20.3H6.3V7.7Z"/><path class="cls-3" d="M15,7.7l3.2,10.73h.22L21.63,7.7h3.25V20.3h-1.8V9.6h-.22L19.67,20.3H17L13.79,9.6h-.22V20.3h-1.8V7.7Z"/><path class="cls-3" d="M34.36,7.7,38.3,20.3H36.39l-.91-3H30.4l-.92,3H27.57L31.51,7.7ZM35,15.62,33.05,9.28h-.22l-1.95,6.34Z"/><path class="cls-3" d="M40.3,12.59c0-3.27,1.83-5.15,4.91-5.15a4.26,4.26,0,0,1,4.63,4.61v.17H48v-.17c0-1.78-.83-3-2.83-3s-3.11,1.23-3.11,3.42v3c0,2.2,1.11,3.43,3.11,3.43s2.83-1.19,2.83-3v-.21h-3.4V14.09h5.2v1.85a4.24,4.24,0,0,1-4.63,4.61c-3.08,0-4.91-1.87-4.91-5.15Z"/><path class="cls-3" d="M61.14,7.7V9.35H54.88v3.8h5.76v1.66H54.88v3.83h6.34V20.3H53.08V7.7Z"/><path class="cls-3" d="M75.29,7.44c3,0,4.72,1.84,4.72,4.54v.33h-1.8v-.26a2.66,2.66,0,0,0-2.92-3c-2,0-3.13,1.23-3.13,3.42v3c0,2.2,1.11,3.43,3.13,3.43a2.65,2.65,0,0,0,2.92-3v-.25H80v.25c0,2.81-1.69,4.61-4.72,4.61s-4.93-1.87-4.93-5.15V12.59C70.36,9.32,72.19,7.44,75.29,7.44Z"/><path class="cls-3" d="M88.68,7.7l3.95,12.6H90.72l-.92-3H84.72l-.92,3H81.9L85.84,7.7Zm.63,7.92L87.37,9.28h-.22l-1.94,6.34Z"/><path class="cls-3" d="M103.25,7.7V9.35H99.18v11h-1.8v-11H93.31V7.7Z"/><path class="cls-3" d="M114.05,7.7V9.35h-6.27v3.8h5.76v1.66h-5.76v3.83h6.34V20.3H106V7.7Z"/><path class="cls-3" d="M116.78,12.59c0-3.27,1.84-5.15,4.91-5.15a4.26,4.26,0,0,1,4.63,4.61v.17h-1.8v-.17c0-1.78-.83-3-2.83-3s-3.11,1.23-3.11,3.42v3c0,2.2,1.12,3.43,3.11,3.43s2.83-1.19,2.83-3v-.21h-3.4V14.09h5.2v1.85a4.24,4.24,0,0,1-4.63,4.61c-3.07,0-4.91-1.87-4.91-5.15Z"/><path class="cls-3" d="M134,7.44c3,0,4.9,1.91,4.9,5.15V15.4c0,3.24-1.84,5.15-4.9,5.15s-4.89-1.91-4.89-5.15V12.59C129.13,9.35,131,7.44,134,7.44Zm-3.09,8c0,2.23,1,3.46,3.09,3.46s3.1-1.23,3.1-3.46V12.56c0-2.23-1-3.46-3.1-3.46s-3.09,1.23-3.09,3.46Z"/><path class="cls-3" d="M148.28,15.08l2.81,5.22h-2l-2.67-5.15H144V20.3h-1.8V7.7h5.26a3.61,3.61,0,0,1,3.89,3.72A3.57,3.57,0,0,1,148.28,15.08ZM144,13.49h3.26c1.46,0,2.28-.73,2.28-2.07s-.79-2.07-2.28-2.07H144Z"/><path class="cls-3" d="M156.13,7.7V20.3h-1.8V7.7Z"/><path class="cls-3" d="M167.87,7.7V9.35H161.6v3.8h5.76v1.66H161.6v3.83h6.34V20.3H159.8V7.7Z"/><path class="cls-3" d="M179.71,11.41V12h-1.8v-.43c0-1.62-1.15-2.49-2.81-2.49-1.4,0-2.41.74-2.41,1.86s.75,1.6,2.54,2l.82.18c2.34.5,3.77,1.51,3.77,3.67,0,2.32-1.91,3.78-4.5,3.78-3.08,0-5-1.8-5-4.57V15.4h1.8v.43c0,2,1.15,3.1,3.22,3.1,1.68,0,2.69-.9,2.69-2.1s-.81-1.7-2.42-2l-.82-.18c-2.25-.49-3.89-1.33-3.89-3.67,0-2.15,1.87-3.5,4.21-3.5C177.71,7.44,179.71,8.83,179.71,11.41Z"/><path class="cls-4" d="M12.11,44.5l3.95,12.6H14.15l-.92-3H8.15l-.92,3H5.32L9.27,44.5Zm.63,7.92L10.8,46.08h-.22L8.64,52.42Z"/><path class="cls-4" d="M22.43,44.5l3.92,11h.22v-11h1.8V57.1H25l-3.89-11h-.22v11h-1.8V44.5Z"/><path class="cls-4" d="M41.4,44.5v1.65H37.33v11h-1.8v-11H31.46V44.5Z"/><path class="cls-4" d="M46.29,44.5V57.1h-1.8V44.5Z"/><path class="cls-4" d="M58.17,44.5v1.65H52.12V50h5.73v1.66H52.12V57.1h-1.8V44.5Z"/><path class="cls-4" d="M69.37,44.5v1.65H63.1V50h5.77v1.66H63.1v3.83h6.34V57.1H61.3V44.5Z"/><path class="cls-4" d="M76.14,44.5l3.2,10.73h.22l3.2-10.73H86V57.1H84.2V46.4H84L80.8,57.1H78.1L74.91,46.4H74.7V57.1H72.9V44.5Z"/><path class="cls-4" d="M91.83,44.5V57.1H90V44.5Z"/><path class="cls-4" d="M99.18,44.5l3.92,11h.22v-11h1.8V57.1h-3.35l-3.89-11h-.22v11h-1.8V44.5Z"/><path class="cls-4" d="M111,44.5V57.1h-1.8V44.5Z"/><path class="cls-4" d="M123.66,48.21v.57h-1.8v-.43c0-1.62-1.16-2.49-2.81-2.49-1.41,0-2.42.74-2.42,1.86s.76,1.6,2.54,2l.83.18c2.34.5,3.76,1.51,3.76,3.67,0,2.32-1.9,3.78-4.5,3.78-3.08,0-5-1.8-5-4.57V52.2h1.8v.43c0,2,1.15,3.1,3.22,3.1,1.68,0,2.68-.9,2.68-2.11s-.81-1.69-2.41-2l-.83-.18c-2.25-.49-3.89-1.33-3.89-3.67,0-2.15,1.88-3.5,4.22-3.5C121.66,44.24,123.66,45.63,123.66,48.21Z"/><path class="cls-4" d="M136.11,44.5v1.65H132v11h-1.8v-11h-4.07V44.5Z"/><path class="cls-4" d="M147.52,48.21v.57h-1.8v-.43c0-1.62-1.15-2.49-2.8-2.49-1.41,0-2.42.74-2.42,1.86s.76,1.6,2.54,2l.83.18c2.34.5,3.76,1.51,3.76,3.67,0,2.32-1.91,3.78-4.5,3.78-3.08,0-5-1.8-5-4.57V52.2h1.8v.43c0,2,1.15,3.1,3.22,3.1,1.67,0,2.68-.9,2.68-2.11s-.81-1.69-2.41-2l-.83-.18c-2.25-.49-3.89-1.33-3.89-3.67,0-2.15,1.87-3.5,4.22-3.5C145.53,44.24,147.52,45.63,147.52,48.21Z"/><path class="cls-3" d="M280.54,44.5v1.65h-6.61v4h.22a3.1,3.1,0,0,1,3-1.55,3.86,3.86,0,0,1,3.81,4.18,4.39,4.39,0,0,1-4.59,4.57c-2.77,0-4.7-1.73-4.7-4.5v-.22h1.8v.18a2.85,2.85,0,1,0,5.69,0,2.3,2.3,0,0,0-2.36-2.56,2,2,0,0,0-1.89,1.05h-2.73V44.5Z"/><path class="cls-3" d="M288.29,44.24a4,4,0,0,1,4.31,4.07c0,2.72-2,3.69-4.43,4.5-1.77.6-2.67,1-2.67,2.45v.18h6.92V57.1h-8.75V55.48c0-2.36,1.45-3.35,3.74-4.11,2.09-.68,3.39-1.35,3.39-3.13a2.3,2.3,0,0,0-2.51-2.34,2.51,2.51,0,0,0-2.82,2.74V49h-1.8v-.5C283.67,45.92,285.54,44.24,288.29,44.24Z"/><path class="cls-5" d="M10.19,73.3c3.2,0,5.11,1.62,5.11,4.89V81c0,3.28-1.91,4.9-5.11,4.9H6.3V73.3ZM8.1,84.24h2.05c2.2,0,3.35-1,3.35-3.27V78.23c0-2.31-1.15-3.28-3.35-3.28H8.1Z"/><path class="cls-5" d="M23.36,73c3,0,4.9,1.91,4.9,5.15V81c0,3.24-1.84,5.15-4.9,5.15s-4.9-1.91-4.9-5.15V78.19C18.46,75,20.3,73,23.36,73Zm-3.1,8c0,2.23,1,3.46,3.1,3.46s3.1-1.23,3.1-3.46V78.16c0-2.24-1-3.46-3.1-3.46s-3.1,1.22-3.1,3.46Z"/><path class="cls-5" d="M33.62,73.3v8.35c0,1.86,1,2.85,2.92,2.85s2.92-1,2.92-2.85V73.3h1.8v8.35c0,2.92-1.73,4.5-4.72,4.5s-4.72-1.58-4.72-4.5V73.3Z"/><path class="cls-5" d="M50.45,73.3c2.18,0,3.73,1.22,3.73,3.38a2.69,2.69,0,0,1-2.09,2.79v.22a2.81,2.81,0,0,1,2.12,2.81c0,2.12-1.56,3.4-3.72,3.4H45.25V73.3Zm-3.4,5.45h3.28a1.88,1.88,0,0,0,2.12-1.92A1.91,1.91,0,0,0,50.29,75H47.05Zm0,5.49h3.28a1.92,1.92,0,0,0,2.16-1.89,1.9,1.9,0,0,0-2.13-1.94H47.05Z"/><path class="cls-5" d="M59.54,73.3V84.24h6.19V85.9h-8V73.3Z"/><path class="cls-5" d="M76.89,73.3V75H70.63v3.8h5.76v1.66H70.63v3.83H77V85.9H68.83V73.3Z"/><path class="cls-5" d="M95.94,77v.57h-1.8v-.43c0-1.62-1.15-2.48-2.81-2.48-1.41,0-2.41.73-2.41,1.85s.75,1.6,2.54,2l.82.18c2.34.5,3.77,1.51,3.77,3.67,0,2.32-1.91,3.78-4.51,3.78-3.07,0-5-1.8-5-4.57V81h1.8v.43c0,2,1.15,3.1,3.22,3.1,1.68,0,2.69-.9,2.69-2.11s-.81-1.69-2.42-2L91,80.21c-2.25-.49-3.88-1.33-3.88-3.67,0-2.15,1.87-3.5,4.21-3.5C93.94,73,95.94,74.43,95.94,77Z"/><path class="cls-5" d="M108.39,73.3V75h-4.06v11h-1.81V75H98.46V73.3Z"/><path class="cls-5" d="M116.22,73.3l4,12.6h-1.91l-.92-3h-5.08l-.92,3h-1.9l3.94-12.6Zm.63,7.92-1.94-6.34h-.22l-1.94,6.34Z"/><path class="cls-5" d="M126.54,73.3l3.92,11h.22v-11h1.8V85.9h-3.35l-3.89-11H125v11h-1.8V73.3Z"/><path class="cls-5" d="M140.4,73.3c3.2,0,5.11,1.62,5.11,4.89V81c0,3.28-1.91,4.9-5.11,4.9h-3.89V73.3Zm-2.09,10.94h2.05c2.2,0,3.35-1,3.35-3.27V78.23c0-2.31-1.15-3.28-3.35-3.28h-2.05Z"/><path class="cls-5" d="M154.65,73.3l3.95,12.6h-1.91l-.92-3h-5.08l-.92,3h-1.91l3.95-12.6Zm.63,7.92-1.94-6.34h-.22l-1.94,6.34Z"/><path class="cls-5" d="M167.77,80.68l2.81,5.22h-2l-2.66-5.15h-2.49V85.9h-1.8V73.3h5.26A3.61,3.61,0,0,1,170.8,77,3.56,3.56,0,0,1,167.77,80.68Zm-4.32-1.59h3.26c1.46,0,2.29-.73,2.29-2.07S168.21,75,166.71,75h-3.26Z"/><path class="cls-5" d="M178.07,73.3c3.21,0,5.11,1.62,5.11,4.89V81c0,3.28-1.9,4.9-5.11,4.9h-3.89V73.3ZM176,84.24H178c2.2,0,3.35-1,3.35-3.27V78.23c0-2.31-1.15-3.28-3.35-3.28H176Z"/><path class="cls-5" d="M195.46,77v.57h-1.8v-.43c0-1.62-1.15-2.48-2.81-2.48-1.4,0-2.41.73-2.41,1.85s.75,1.6,2.54,2l.82.18c2.35.5,3.77,1.51,3.77,3.67,0,2.32-1.91,3.78-4.5,3.78-3.08,0-5-1.8-5-4.57V81h1.8v.43c0,2,1.15,3.1,3.22,3.1,1.68,0,2.69-.9,2.69-2.11s-.81-1.69-2.42-2l-.82-.18c-2.25-.49-3.89-1.33-3.89-3.67,0-2.15,1.87-3.5,4.21-3.5C193.46,73,195.46,74.43,195.46,77Z"/><path class="cls-3" d="M279.39,73.3v8.49h2.12v1.66h-2.12V85.9h-1.81V83.45h-6.26V81.87l5-8.57Zm-6.07,8.49h4.26V74.72h-.21Z"/><path class="cls-3" d="M288.28,73a4.24,4.24,0,0,1,4.46,4.34v4.41a4.27,4.27,0,0,1-4.53,4.36c-2.58,0-4.29-1.49-4.29-3.92h1.8c0,1.37.77,2.27,2.49,2.27a2.54,2.54,0,0,0,2.73-2.69V80.12h-.21a3.3,3.3,0,0,1-3,1.55,4,4,0,0,1-4-4.27A4.28,4.28,0,0,1,288.28,73Zm2.66,4.36a2.7,2.7,0,1,0-2.66,2.68A2.56,2.56,0,0,0,290.94,77.4Z"/><path class="cls-6" d="M8.06,102.1v8.35c0,1.86,1,2.85,2.92,2.85s2.91-1,2.91-2.85V102.1H15.7v8.35c0,2.92-1.73,4.5-4.72,4.5s-4.72-1.58-4.72-4.5V102.1Z"/><path class="cls-6" d="M23,102.1l3.93,11h.21v-11h1.8v12.6H25.59l-3.88-11h-.22v11h-1.8V102.1Z"/><path class="cls-6" d="M40.32,110.92c0,2.61-1.39,4-4,4s-4.25-1.44-4.25-4v-1h1.8v1a2.16,2.16,0,0,0,2.43,2.38c1.65,0,2.25-.94,2.25-2.38V102.1h1.8Z"/><path class="cls-6" d="M46.08,102.1v8.35c0,1.86,1,2.85,2.91,2.85s2.92-1,2.92-2.85V102.1h1.8v8.35c0,2.92-1.73,4.5-4.72,4.5s-4.71-1.58-4.71-4.5V102.1Z"/><path class="cls-6" d="M66.38,105.81v.57h-1.8V106c0-1.62-1.15-2.49-2.81-2.49-1.4,0-2.41.74-2.41,1.86s.76,1.6,2.54,2l.83.18c2.34.5,3.76,1.51,3.76,3.67,0,2.32-1.91,3.78-4.5,3.78-3.08,0-5-1.8-5-4.57v-.58h1.8v.43c0,2,1.16,3.1,3.23,3.1,1.67,0,2.68-.9,2.68-2.11s-.81-1.69-2.41-2l-.83-.18c-2.25-.49-3.89-1.33-3.89-3.67,0-2.15,1.87-3.5,4.21-3.5C64.38,101.84,66.38,103.23,66.38,105.81Z"/><path class="cls-6" d="M78.84,102.1v1.65H74.77v11H73v-11H68.9V102.1Z"/><path class="cls-6" d="M83.73,102.1v12.6h-1.8V102.1Z"/><path class="cls-6" d="M95.61,102.1v1.65h-6v3.8h5.73v1.66H89.56v5.49h-1.8V102.1Z"/><path class="cls-6" d="M100.54,102.1v12.6h-1.8V102.1Z"/><path class="cls-6" d="M112.64,102.1v1.65h-6.26v3.8h5.76v1.66h-5.76V113h6.33v1.66h-8.14V102.1Z"/><path class="cls-6" d="M120.06,102.1c3.2,0,5.11,1.62,5.11,4.89v2.81c0,3.28-1.91,4.9-5.11,4.9h-3.89V102.1ZM118,113h2c2.2,0,3.35-1,3.35-3.27V107c0-2.31-1.15-3.28-3.35-3.28h-2Z"/><path class="cls-6" d="M137.41,102.1v5.45h5.47V102.1h1.8v12.6h-1.8v-5.49h-5.47v5.49h-1.8V102.1Z"/><path class="cls-6" d="M154.53,102.1l3.94,12.6h-1.91l-.92-3h-5.07l-.92,3h-1.91l3.94-12.6Zm.63,7.92-1.95-6.34H153L151.05,110Z"/><path class="cls-6" d="M169.45,102.1v1.65h-4.07v11h-1.8v-11h-4.07V102.1Z"/><path class="cls-6" d="M180.61,102.1v1.65h-6.27v3.8h5.76v1.66h-5.76V113h6.34v1.66h-8.14V102.1Z"/><path class="cls-3" d="M280.47,102.1v1.6l-3.71,3.24v.22h.46a3.45,3.45,0,0,1,3.46,3.67,4.21,4.21,0,0,1-4.5,4.12c-2.74,0-4.72-1.73-4.72-4.21v-.85h1.8v.74a2.6,2.6,0,0,0,2.88,2.67,2.49,2.49,0,0,0,2.74-2.51,2.26,2.26,0,0,0-2.43-2.27h-2v-1.65l3.49-3.12h-6V102.1Z"/><path class="cls-3" d="M288.46,101.84c2.84,0,4.71,1.91,4.71,5.15v2.81c0,3.24-1.8,5.15-4.71,5.15s-4.72-1.91-4.72-5.15V107C283.74,103.75,285.54,101.84,288.46,101.84Zm-2.92,8c0,2.23,1,3.46,2.92,3.46s2.91-1.23,2.91-3.46V107c0-2.24-1-3.46-2.91-3.46s-2.92,1.22-2.92,3.46Z"/><path class="cls-7" d="M11.5,130.9c2.18,0,3.73,1.22,3.73,3.38a2.69,2.69,0,0,1-2.09,2.79v.22a2.82,2.82,0,0,1,2.12,2.81c0,2.12-1.56,3.4-3.72,3.4H6.3V130.9Zm-3.4,5.45h3.27a1.88,1.88,0,0,0,2.13-1.92,1.91,1.91,0,0,0-2.16-1.88H8.1Zm0,5.49h3.27A1.92,1.92,0,0,0,13.54,140,1.9,1.9,0,0,0,11.41,138H8.1Z"/><path class="cls-7" d="M20.59,130.9v10.94h6.19v1.66h-8V130.9Z"/><path class="cls-7" d="M35.69,130.9l3.94,12.6h-1.9l-.92-3H31.73l-.92,3H28.9l4-12.6Zm.63,7.92-1.94-6.34h-.22l-1.94,6.34Z"/><path class="cls-7" d="M45.93,130.9l3.21,10.73h.21l3.21-10.73H55.8v12.6H54V132.8h-.22L50.6,143.5H47.9l-3.19-10.7h-.22v10.7h-1.8V130.9Z"/><path class="cls-7" d="M61.63,130.9v12.6h-1.8V130.9Z"/><path class="cls-7" d="M69,130.9l3.93,11h.21v-11h1.81v12.6H71.57l-3.89-11h-.22v11h-1.8V130.9Z"/><path class="cls-7" d="M78.51,135.79c0-3.27,1.84-5.15,4.92-5.15a4.25,4.25,0,0,1,4.62,4.61v.17h-1.8v-.17c0-1.78-.82-2.95-2.82-2.95s-3.12,1.23-3.12,3.42v2.95c0,2.2,1.12,3.43,3.12,3.43s2.82-1.19,2.82-3v-.21h-3.4v-1.64h5.2v1.85a4.23,4.23,0,0,1-4.62,4.61c-3.08,0-4.92-1.87-4.92-5.15Z"/><path class="cls-7" d="M107.17,134.61v.57h-1.8v-.43c0-1.62-1.15-2.49-2.81-2.49-1.4,0-2.41.74-2.41,1.86s.75,1.6,2.54,2l.82.18c2.35.5,3.77,1.51,3.77,3.67,0,2.32-1.91,3.78-4.5,3.78-3.08,0-5-1.8-5-4.57v-.58h1.8V139c0,2,1.15,3.09,3.22,3.09,1.68,0,2.69-.9,2.69-2.1s-.81-1.7-2.42-2l-.82-.18c-2.25-.49-3.89-1.33-3.89-3.67,0-2.14,1.87-3.5,4.21-3.5C105.17,130.64,107.17,132,107.17,134.61Z"/><path class="cls-7" d="M115.27,130.64c3,0,4.9,1.91,4.9,5.15v2.81c0,3.24-1.84,5.15-4.9,5.15s-4.9-1.91-4.9-5.15v-2.81C110.37,132.55,112.21,130.64,115.27,130.64Zm-3.1,8c0,2.23,1,3.46,3.1,3.46s3.1-1.23,3.1-3.46v-2.88c0-2.23-1-3.46-3.1-3.46s-3.1,1.23-3.1,3.46Z"/><path class="cls-7" d="M128.26,130.64c3,0,4.72,1.84,4.72,4.54v.33h-1.8v-.26a2.66,2.66,0,0,0-2.92-2.95c-2,0-3.13,1.23-3.13,3.42v2.95c0,2.2,1.12,3.43,3.13,3.43a2.65,2.65,0,0,0,2.92-3v-.25H133v.25c0,2.81-1.69,4.61-4.72,4.61s-4.93-1.87-4.93-5.15v-2.81C123.33,132.52,125.17,130.64,128.26,130.64Z"/><path class="cls-7" d="M138.27,130.9v12.6h-1.8V130.9Z"/><path class="cls-7" d="M150.37,130.9v1.65H144.1v3.8h5.76V138H144.1v3.83h6.34v1.66H142.3V130.9Z"/><path class="cls-7" d="M162.9,130.9v1.65h-4.07V143.5H157V132.55H153V130.9Z"/><path class="cls-7" d="M166.89,130.9l3.17,5.85h.22l3.16-5.85h2.06l-4.43,7.94v4.66h-1.8v-4.66l-4.43-7.94Z"/><path class="cls-3" d="M276.34,130.64a4,4,0,0,1,4.31,4.07c0,2.72-2,3.69-4.43,4.5-1.77.6-2.67,1-2.67,2.45v.18h6.92v1.66h-8.76v-1.62c0-2.36,1.46-3.35,3.75-4.11,2.09-.68,3.39-1.35,3.39-3.13a2.3,2.3,0,0,0-2.51-2.34,2.51,2.51,0,0,0-2.82,2.74v.39h-1.81v-.5C271.71,132.32,273.59,130.64,276.34,130.64Z"/><path class="cls-3" d="M292.27,130.9v1.65h-6.6v4h.21a3.11,3.11,0,0,1,3-1.55,3.87,3.87,0,0,1,3.82,4.18,4.39,4.39,0,0,1-4.59,4.57c-2.77,0-4.7-1.73-4.7-4.5V139h1.8v.17a2.85,2.85,0,1,0,5.69,0,2.3,2.3,0,0,0-2.36-2.56,2,2,0,0,0-1.89,1h-2.74V130.9Z"/><path class="cls-8" d="M14.15,159.7v1.65H8.1v3.8h5.72v1.66H8.1v5.49H6.3V159.7Z"/><path class="cls-8" d="M25.34,159.7v1.65H19.08v3.8h5.76v1.66H19.08v3.83h6.34v1.66H17.28V159.7Z"/><path class="cls-8" d="M32.11,159.7l3.2,10.73h.22l3.21-10.73H42v12.6h-1.8V161.6H40l-3.19,10.7h-2.7l-3.19-10.7h-.21v10.7h-1.8V159.7Z"/><path class="cls-8" d="M47.8,159.7v12.6H46V159.7Z"/><path class="cls-8" d="M55.15,159.7l3.92,11h.22v-11h1.8v12.6H57.74l-3.89-11h-.21v11h-1.8V159.7Z"/><path class="cls-8" d="M66.92,159.7v12.6h-1.8V159.7Z"/><path class="cls-8" d="M79.63,163.41V164h-1.8v-.43c0-1.62-1.15-2.49-2.81-2.49-1.4,0-2.41.74-2.41,1.86s.75,1.6,2.54,2l.82.18c2.35.5,3.77,1.51,3.77,3.67,0,2.32-1.91,3.78-4.5,3.78-3.08,0-5-1.8-5-4.57v-.58H72v.43c0,2,1.15,3.1,3.22,3.1,1.68,0,2.69-.9,2.69-2.1s-.81-1.7-2.42-2l-.82-.18c-2.25-.49-3.89-1.33-3.89-3.67,0-2.15,1.87-3.5,4.21-3.5C77.63,159.44,79.63,160.83,79.63,163.41Z"/><path class="cls-8" d="M86.5,159.7l3.21,10.73h.21l3.21-10.73h3.24v12.6h-1.8V161.6h-.22l-3.18,10.7h-2.7l-3.19-10.7h-.22v10.7h-1.8V159.7Z"/><path class="cls-8" d="M101.41,159.41a1.32,1.32,0,0,1,1.4,1.37v2a1.42,1.42,0,0,1-1.46,1.47h-1.28v-1h1.14c.32,0,.49-.19.49-.54v-.56a2,2,0,0,1-.31,0,1.32,1.32,0,0,1-1.39-1.35A1.35,1.35,0,0,1,101.41,159.41Z"/><path class="cls-8" d="M114.77,163.41V164H113v-.43c0-1.62-1.15-2.49-2.8-2.49-1.41,0-2.42.74-2.42,1.86s.76,1.6,2.54,2l.83.18c2.34.5,3.76,1.51,3.76,3.67,0,2.32-1.91,3.78-4.5,3.78-3.08,0-5-1.8-5-4.57v-.58h1.8v.43c0,2,1.15,3.1,3.22,3.1,1.67,0,2.68-.9,2.68-2.1s-.81-1.7-2.41-2l-.83-.18c-2.25-.49-3.89-1.33-3.89-3.67,0-2.15,1.88-3.5,4.22-3.5C112.77,159.44,114.77,160.83,114.77,163.41Z"/><path class="cls-8" d="M130.14,159.7a3.78,3.78,0,1,1,0,7.56H127v5h-1.8V159.7Zm-3.1,5.9h2.9a2,2,0,0,0,2.28-2.12c0-1.37-.79-2.13-2.28-2.13H127Z"/><path class="cls-8" d="M145.29,159.7v1.65H139v3.8h5.76v1.66H139v3.83h6.33v1.66h-8.13V159.7Z"/><path class="cls-8" d="M154.94,167.08l2.81,5.22h-2l-2.67-5.15h-2.48v5.15h-1.8V159.7h5.26a3.73,3.73,0,0,1,.86,7.38Zm-4.32-1.59h3.26c1.46,0,2.28-.73,2.28-2.07s-.79-2.07-2.28-2.07h-3.26Z"/><path class="cls-8" d="M165.85,159.44c3,0,4.71,1.84,4.71,4.54v.33h-1.8v-.26a2.65,2.65,0,0,0-2.91-3c-2,0-3.14,1.23-3.14,3.42v2.95c0,2.2,1.12,3.43,3.14,3.43a2.65,2.65,0,0,0,2.91-3v-.25h1.8v.25c0,2.81-1.69,4.61-4.71,4.61s-4.94-1.87-4.94-5.15v-2.81C160.91,161.32,162.75,159.44,165.85,159.44Z"/><path class="cls-8" d="M182.12,159.7v1.65h-6.27v3.8h5.77v1.66h-5.77v3.83h6.34v1.66h-8.14V159.7Z"/><path class="cls-8" d="M190.54,159.7a3.63,3.63,0,0,1,3.89,3.78,3.66,3.66,0,0,1-3.89,3.78h-3.09v5h-1.8V159.7Zm-3.09,5.9h2.89a2,2,0,0,0,2.29-2.12c0-1.37-.79-2.13-2.29-2.13h-2.89Z"/><path class="cls-8" d="M206.64,159.7v1.65h-4.07v11h-1.8v-11H196.7V159.7Z"/><path class="cls-8" d="M211.53,159.7v12.6h-1.8V159.7Z"/><path class="cls-8" d="M220,159.44c3,0,4.89,1.91,4.89,5.15v2.81c0,3.24-1.83,5.15-4.89,5.15s-4.9-1.91-4.9-5.15v-2.81C215.13,161.35,217,159.44,220,159.44Zm-3.1,8c0,2.23,1,3.46,3.1,3.46s3.09-1.23,3.09-3.46v-2.88c0-2.23-1-3.46-3.09-3.46s-3.1,1.23-3.1,3.46Z"/><path class="cls-8" d="M231.83,159.7l3.93,11H236v-11h1.81v12.6h-3.35l-3.89-11h-.22v11h-1.8V159.7Z"/><path class="cls-8" d="M250.48,163.41V164h-1.8v-.43c0-1.62-1.15-2.49-2.81-2.49-1.4,0-2.41.74-2.41,1.86s.76,1.6,2.54,2l.83.18c2.34.5,3.76,1.51,3.76,3.67,0,2.32-1.91,3.78-4.5,3.78-3.08,0-5-1.8-5-4.57v-.58h1.8v.43c0,2,1.16,3.1,3.23,3.1,1.67,0,2.68-.9,2.68-2.1s-.81-1.7-2.41-2l-.83-.18c-2.25-.49-3.89-1.33-3.89-3.67,0-2.15,1.87-3.5,4.21-3.5C248.49,159.44,250.48,160.83,250.48,163.41Z"/><path class="cls-3" d="M278.74,159.7v12.6h-1.81V161.37h-.21l-2.34,3.84h-2l3.53-5.51Z"/><path class="cls-3" d="M286.62,159.44a4.24,4.24,0,0,1,4.46,4.34v4.41a4.27,4.27,0,0,1-4.53,4.36c-2.58,0-4.29-1.49-4.29-3.92h1.8c0,1.37.78,2.27,2.49,2.27a2.54,2.54,0,0,0,2.73-2.69v-1.69h-.21a3.28,3.28,0,0,1-3,1.55,4,4,0,0,1-4-4.27A4.28,4.28,0,0,1,286.62,159.44Zm2.66,4.36a2.56,2.56,0,0,0-2.66-2.7,2.69,2.69,0,1,0,0,5.38A2.54,2.54,0,0,0,289.28,163.8Z"/><path class="cls-9" d="M14.15,188.5v1.65H8.1V194h5.72v1.66H8.1v5.49H6.3V188.5Z"/><path class="cls-9" d="M25.34,188.5v1.65H19.08V194h5.76v1.66H19.08v3.83h6.34v1.66H17.28V188.5Z"/><path class="cls-9" d="M32.11,188.5l3.2,10.73h.22l3.21-10.73H42v12.6h-1.8V190.4H40l-3.19,10.7h-2.7l-3.19-10.7h-.21v10.7h-1.8V188.5Z"/><path class="cls-9" d="M47.8,188.5v12.6H46V188.5Z"/><path class="cls-9" d="M55.15,188.5l3.92,11h.22v-11h1.8v12.6H57.74l-3.89-11h-.21v11h-1.8V188.5Z"/><path class="cls-9" d="M66.92,188.5v12.6h-1.8V188.5Z"/><path class="cls-9" d="M79.63,192.21v.57h-1.8v-.43c0-1.62-1.15-2.49-2.81-2.49-1.4,0-2.41.74-2.41,1.86s.75,1.6,2.54,2l.82.18c2.35.5,3.77,1.51,3.77,3.67,0,2.32-1.91,3.78-4.5,3.78-3.08,0-5-1.8-5-4.57v-.58H72v.43c0,2,1.15,3.1,3.22,3.1,1.68,0,2.69-.9,2.69-2.11s-.81-1.69-2.42-2l-.82-.18c-2.25-.49-3.89-1.33-3.89-3.67,0-2.15,1.87-3.5,4.21-3.5C77.63,188.24,79.63,189.63,79.63,192.21Z"/><path class="cls-9" d="M92.09,188.5v1.65H88V201.1h-1.8V190.15H82.15V188.5Z"/><path class="cls-9" d="M103.5,192.21v.57h-1.8v-.43c0-1.62-1.16-2.49-2.81-2.49-1.41,0-2.41.74-2.41,1.86s.75,1.6,2.53,2l.83.18c2.34.5,3.77,1.51,3.77,3.67,0,2.32-1.91,3.78-4.51,3.78-3.07,0-5-1.8-5-4.57v-.58h1.8v.43c0,2,1.15,3.1,3.22,3.1,1.68,0,2.68-.9,2.68-2.11s-.8-1.69-2.41-2l-.83-.18c-2.25-.49-3.89-1.33-3.89-3.67,0-2.15,1.88-3.5,4.22-3.5C101.5,188.24,103.5,189.63,103.5,192.21Z"/><path class="cls-9" d="M119.79,188.5l3.94,12.6h-1.91l-.92-3h-5.07l-.92,3H113l3.94-12.6Zm.63,7.92-2-6.34h-.21l-2,6.34Z"/><path class="cls-9" d="M132.91,195.88l2.81,5.22h-2L131.07,196h-2.48v5.15h-1.8V188.5H132a3.6,3.6,0,0,1,3.89,3.72A3.56,3.56,0,0,1,132.91,195.88Zm-4.32-1.59h3.26c1.45,0,2.28-.73,2.28-2.07s-.79-2.07-2.28-2.07h-3.26Z"/><path class="cls-9" d="M147.38,188.5v1.65h-6.27V194h5.77v1.66h-5.77v3.83h6.34v1.66h-8.14V188.5Z"/><path class="cls-9" d="M166.42,192.21v.57h-1.8v-.43c0-1.62-1.15-2.49-2.8-2.49-1.41,0-2.42.74-2.42,1.86s.76,1.6,2.54,2l.83.18c2.34.5,3.76,1.51,3.76,3.67,0,2.32-1.91,3.78-4.5,3.78-3.08,0-5-1.8-5-4.57v-.58h1.8v.43c0,2,1.15,3.1,3.22,3.1,1.67,0,2.68-.9,2.68-2.11s-.81-1.69-2.41-2l-.83-.18c-2.25-.49-3.89-1.33-3.89-3.67,0-2.15,1.87-3.5,4.22-3.5C164.43,188.24,166.42,189.63,166.42,192.21Z"/><path class="cls-9" d="M178.88,188.5v1.65h-4.07V201.1H173V190.15h-4.07V188.5Z"/><path class="cls-9" d="M183.74,188.5v8.35c0,1.86,1,2.85,2.91,2.85s2.92-1,2.92-2.85V188.5h1.8v8.35c0,2.92-1.73,4.5-4.72,4.5s-4.71-1.58-4.71-4.5V188.5Z"/><path class="cls-9" d="M200.26,188.5a3.63,3.63,0,0,1,3.89,3.78,3.66,3.66,0,0,1-3.89,3.78h-3.09v5h-1.8V188.5Zm-3.09,5.9h2.89a2,2,0,0,0,2.29-2.12c0-1.37-.79-2.13-2.29-2.13h-2.89Z"/><path class="cls-9" d="M209.15,188.5v12.6h-1.8V188.5Z"/><path class="cls-9" d="M217.07,188.5c3.21,0,5.12,1.62,5.12,4.89v2.81c0,3.28-1.91,4.9-5.12,4.9h-3.89V188.5ZM215,199.44H217c2.19,0,3.35-1,3.35-3.27v-2.74c0-2.31-1.16-3.28-3.35-3.28H215Z"/><path class="cls-3" d="M277.29,188.5v12.6H275.5V190.17h-.22L272.94,194h-2l3.53-5.51Z"/><path class="cls-3" d="M285.18,188.24a4.24,4.24,0,0,1,4.46,4.34V197a4.27,4.27,0,0,1-4.53,4.36c-2.58,0-4.29-1.49-4.29-3.92h1.8c0,1.36.78,2.27,2.49,2.27a2.54,2.54,0,0,0,2.73-2.69v-1.69h-.21a3.28,3.28,0,0,1-3,1.55,4,4,0,0,1-4-4.27A4.28,4.28,0,0,1,285.18,188.24Zm2.66,4.36a2.56,2.56,0,0,0-2.66-2.7,2.69,2.69,0,1,0,0,5.38A2.54,2.54,0,0,0,287.84,192.6Z"/><path class="cls-10" d="M14.15,217.3V219H8.1v3.8h5.72v1.66H8.1v5.49H6.3V217.3Z"/><path class="cls-10" d="M22,217.3,26,229.9H24.05l-.92-3H18.05l-.92,3H15.22l4-12.6Zm.63,7.92-1.94-6.34h-.22l-1.94,6.34Z"/><path class="cls-10" d="M30.81,217.3v10.94H37v1.66H29V217.3Z"/><path class="cls-10" d="M48.78,221v.57H47v-.43c0-1.62-1.15-2.48-2.81-2.48-1.41,0-2.41.73-2.41,1.85s.75,1.6,2.54,2l.82.18c2.34.5,3.77,1.51,3.77,3.67,0,2.32-1.91,3.78-4.5,3.78-3.08,0-5-1.8-5-4.57V225h1.8v.43c0,2,1.15,3.1,3.22,3.1,1.68,0,2.69-.9,2.69-2.11s-.81-1.69-2.42-2l-.82-.18c-2.26-.49-3.89-1.33-3.89-3.67,0-2.15,1.87-3.5,4.21-3.5C46.78,217,48.78,218.43,48.78,221Z"/><path class="cls-10" d="M60.48,217.3V219H54.21v3.8H60v1.66H54.21v3.83h6.34v1.66H52.41V217.3Z"/><path class="cls-10" d="M76.66,217.3l3.94,12.6H78.69l-.91-3H72.7l-.92,3H69.87l3.94-12.6Zm.63,7.92-1.94-6.34h-.22l-1.95,6.34Z"/><path class="cls-10" d="M87.89,217c3,0,4.72,1.84,4.72,4.54v.33h-1.8v-.26a2.66,2.66,0,0,0-2.92-3c-2,0-3.13,1.22-3.13,3.42v2.95c0,2.2,1.12,3.43,3.13,3.43a2.65,2.65,0,0,0,2.92-3v-.25h1.8v.25c0,2.81-1.69,4.61-4.72,4.61S83,228.28,83,225v-2.81C83,218.92,84.79,217,87.89,217Z"/><path class="cls-10" d="M100.6,217c3,0,4.72,1.84,4.72,4.54v.33h-1.8v-.26a2.66,2.66,0,0,0-2.92-3c-2,0-3.13,1.22-3.13,3.42v2.95c0,2.2,1.11,3.43,3.13,3.43a2.65,2.65,0,0,0,2.92-3v-.25h1.8v.25c0,2.81-1.7,4.61-4.72,4.61s-4.93-1.87-4.93-5.15v-2.81C95.67,218.92,97.5,217,100.6,217Z"/><path class="cls-10" d="M110.57,217.3v8.35c0,1.86,1,2.85,2.92,2.85s2.91-1,2.91-2.85V217.3h1.81v8.35c0,2.92-1.73,4.5-4.72,4.5s-4.72-1.58-4.72-4.5V217.3Z"/><path class="cls-10" d="M130.88,221v.57h-1.8v-.43c0-1.62-1.16-2.48-2.81-2.48-1.41,0-2.42.73-2.42,1.85s.76,1.6,2.54,2l.83.18c2.34.5,3.76,1.51,3.76,3.67,0,2.32-1.9,3.78-4.5,3.78-3.08,0-5-1.8-5-4.57V225h1.8v.43c0,2,1.15,3.1,3.22,3.1,1.67,0,2.68-.9,2.68-2.11s-.81-1.69-2.41-2l-.83-.18c-2.25-.49-3.89-1.33-3.89-3.67,0-2.15,1.88-3.5,4.22-3.5C128.88,217,130.88,218.43,130.88,221Z"/><path class="cls-10" d="M140.15,217.3l3.94,12.6h-1.91l-.92-3h-5.08l-.91,3h-1.91l3.94-12.6Zm.63,7.92-1.95-6.34h-.22l-1.94,6.34Z"/><path class="cls-10" d="M155.07,217.3V219H151v11h-1.8V219h-4.07V217.3Z"/><path class="cls-10" d="M160,217.3v12.6h-1.8V217.3Z"/><path class="cls-10" d="M168.46,217c3,0,4.9,1.91,4.9,5.15V225c0,3.24-1.84,5.15-4.9,5.15s-4.9-1.91-4.9-5.15v-2.81C163.56,219,165.4,217,168.46,217Zm-3.1,8c0,2.23,1,3.46,3.1,3.46s3.09-1.23,3.09-3.46v-2.88c0-2.24-1-3.46-3.09-3.46s-3.1,1.22-3.1,3.46Z"/><path class="cls-10" d="M180.27,217.3l3.92,11h.22v-11h1.8v12.6h-3.35l-3.89-11h-.22v11H177V217.3Z"/><path class="cls-10" d="M198.92,221v.57h-1.81v-.43c0-1.62-1.15-2.48-2.8-2.48-1.41,0-2.42.73-2.42,1.85s.76,1.6,2.54,2l.83.18c2.34.5,3.76,1.51,3.76,3.67,0,2.32-1.91,3.78-4.5,3.78-3.08,0-5-1.8-5-4.57V225h1.8v.43c0,2,1.15,3.1,3.22,3.1,1.67,0,2.68-.9,2.68-2.11s-.81-1.69-2.41-2l-.83-.18c-2.25-.49-3.89-1.33-3.89-3.67,0-2.15,1.87-3.5,4.22-3.5C196.92,217,198.92,218.43,198.92,221Z"/><path class="cls-3" d="M277.3,217.3v12.6h-1.8V219h-.22l-2.34,3.84h-2l3.53-5.51Z"/><path class="cls-3" d="M289.32,217.3v1.58l-4.91,11h-2l4.88-11h-6.95V217.3Z"/><path class="cls-11" d="M9.54,246.1l3.2,10.73H13l3.2-10.73H19.4v12.6H17.6V248h-.21L14.2,258.7H11.5L8.31,248H8.1v10.7H6.3V246.1Z"/><path class="cls-11" d="M28.89,246.1l3.94,12.6H30.92l-.92-3H24.93l-.92,3H22.1L26,246.1Zm.63,7.92-1.95-6.34h-.21L25.41,254Z"/><path class="cls-11" d="M37.33,246.1V257h6.19v1.66h-8V246.1Z"/><path class="cls-11" d="M54.32,246.1v1.65H48.06v3.8h5.76v1.66H48.06V257h6.33v1.66H46.26V246.1Z"/><path class="cls-11" d="M68.87,246.1a3.78,3.78,0,1,1,0,7.56h-3.1v5H64V246.1Zm-3.1,5.9h2.9A2,2,0,0,0,71,249.88c0-1.37-.79-2.13-2.28-2.13h-2.9Z"/><path class="cls-11" d="M81.72,253.48l2.81,5.22h-2l-2.67-5.15H77.4v5.15H75.6V246.1h5.25a3.6,3.6,0,0,1,3.89,3.72A3.56,3.56,0,0,1,81.72,253.48Zm-4.32-1.59h3.26c1.45,0,2.28-.73,2.28-2.07s-.79-2.07-2.28-2.07H77.4Z"/><path class="cls-11" d="M89.56,246.1v12.6h-1.8V246.1Z"/><path class="cls-11" d="M94.14,246.1l3.24,11h.21l3.24-11h2l-3.87,12.6H96.06l-3.87-12.6Z"/><path class="cls-11" d="M107.2,246.1v12.6h-1.8V246.1Z"/><path class="cls-11" d="M112.67,246.1V257h6.2v1.66h-8V246.1Z"/><path class="cls-11" d="M129.67,246.1v1.65H123.4v3.8h5.77v1.66H123.4V257h6.34v1.66H121.6V246.1Z"/><path class="cls-11" d="M132.4,251c0-3.27,1.84-5.15,4.92-5.15a4.26,4.26,0,0,1,4.63,4.61v.17h-1.81v-.17c0-1.78-.82-2.95-2.82-2.95s-3.12,1.23-3.12,3.42v3c0,2.19,1.12,3.42,3.12,3.42s2.82-1.19,2.82-3v-.21h-3.4v-1.64H142v1.85a4.24,4.24,0,0,1-4.63,4.61c-3.08,0-4.92-1.87-4.92-5.15Z"/><path class="cls-11" d="M153.25,246.1v1.65H147v3.8h5.77v1.66H147V257h6.34v1.66h-8.14V246.1Z"/><path class="cls-11" d="M164.7,246.1v12.6h-1.81V246.1Z"/><path class="cls-11" d="M177,249.81v.57h-1.8V250c0-1.62-1.15-2.49-2.8-2.49-1.41,0-2.42.74-2.42,1.86s.76,1.6,2.54,2l.83.18c2.34.5,3.76,1.51,3.76,3.67,0,2.32-1.91,3.78-4.5,3.78-3.08,0-5-1.8-5-4.57v-.58h1.8v.43c0,2,1.15,3.1,3.22,3.1,1.67,0,2.68-.9,2.68-2.1s-.81-1.7-2.41-2l-.83-.18c-2.25-.49-3.89-1.33-3.89-3.67,0-2.15,1.87-3.5,4.22-3.5C175.05,245.84,177,247.23,177,249.81Z"/><path class="cls-11" d="M192.61,246.1l3.95,12.6h-1.91l-.92-3h-5.08l-.92,3h-1.9l3.94-12.6Zm.63,7.92-1.94-6.34h-.22L189.14,254Z"/><path class="cls-11" d="M209,246.1l3.21,10.73h.22l3.2-10.73h3.24v12.6H217V248h-.21l-3.19,10.7h-2.7L207.75,248h-.22v10.7h-1.8V246.1Z"/><path class="cls-11" d="M223.41,246.1l3.17,5.85h.21L230,246.1H232L227.59,254v4.66h-1.8V254l-4.43-7.94Z"/><path class="cls-11" d="M243.54,246.1v1.65h-4.07V258.7h-1.8V247.75H233.6V246.1Z"/><path class="cls-11" d="M248.07,246.1v5.45h5.47V246.1h1.8v12.6h-1.8v-5.49h-5.47v5.49h-1.8V246.1Z"/><path class="cls-3" d="M278.74,246.1v12.6h-1.8V247.77h-.22l-2.34,3.84h-2l3.53-5.51Z"/><path class="cls-3" d="M287.05,245.84c2.85,0,4.72,1.91,4.72,5.15v2.81c0,3.24-1.8,5.15-4.72,5.15s-4.71-1.91-4.71-5.15V251C282.34,247.75,284.14,245.84,287.05,245.84Zm-2.91,8c0,2.23,1,3.46,2.91,3.46s2.92-1.23,2.92-3.46V251c0-2.23-1-3.46-2.92-3.46s-2.91,1.23-2.91,3.46Z"/><line class="cls-12" x1="5" y1="28.75" x2="295.43" y2="28.75"/></g></svg>