<svg xmlns="http://www.w3.org/2000/svg" viewBox="0 0 1382.59 769.99"><defs><style>.cls-1,.cls-4{fill:#c8dc94;}.cls-2{fill:#329690;}.cls-2,.cls-3{opacity:0.7;}.cls-3{fill:#93833f;}.cls-4{font-size:16px;font-family:FiraSans-BoldItalic, Fira Sans;font-weight:700;font-style:italic;}.cls-5{letter-spacing:-0.03em;}.cls-6{letter-spacing:0.73em;}.cls-11,.cls-7{letter-spacing:1.27em;}.cls-10,.cls-11,.cls-20,.cls-21,.cls-22,.cls-26,.cls-27,.cls-8,.cls-9{fill:#6ab2ae;}.cls-8{letter-spacing:0.01em;}.cls-10{letter-spacing:1.23em;}.cls-12,.cls-13,.cls-28,.cls-29{fill:#a89957;}.cls-12{letter-spacing:0.01em;}.cls-14{letter-spacing:8.02em;}.cls-15{letter-spacing:-0.02em;}.cls-16{letter-spacing:-0.02em;}.cls-17{letter-spacing:0em;}.cls-18{letter-spacing:-0.09em;}.cls-19,.cls-22{letter-spacing:1.27em;}.cls-20{letter-spacing:-0.02em;}.cls-21{letter-spacing:1.19em;}.cls-23{letter-spacing:0.47em;}.cls-24{letter-spacing:-0.01em;}.cls-25{letter-spacing:1.17em;}.cls-26{letter-spacing:-0.01em;}.cls-27{letter-spacing:0.65em;}.cls-28{letter-spacing:0em;}.cls-29{letter-spacing:-0.04em;}.cls-30{letter-spacing:5.96em;}</style></defs><title>Risorsa 1</title><g id="Livello_2" data-name="Livello 2"><g id="background"><rect class="cls-1" x="380.88" width="3.33" height="536.68"/><rect class="cls-1" x="380.88" y="615.02" width="3.33" height="25.56"/><rect class="cls-1" x="380.88" y="564.02" width="3.33" height="37.66"/></g><g id="countries"><path class="cls-2" d="M400.89,613V629.5c164.18,0,329.36,35.61,489.11,70.06C1050.59,734.18,1216.65,770,1382.59,770V753.51c-164.19,0-329.37-35.62-489.12-70.06C732.88,648.82,566.83,613,400.89,613Z"/><path class="cls-3" d="M1382.59,342c-74.54,0-155.55,14.77-247.66,45.15-81.93,27-164.84,63.61-245,99C730.17,556.61,565,629.5,400.89,629.5v9.07c74.53,0,155.54-14.76,247.66-45.15,81.92-27,164.84-63.6,245-99,159.74-70.49,324.91-143.37,489-143.37Z"/><text class="cls-4" transform="translate(123 109.92)"><tspan class="cls-5">P</tspan><tspan x="8.98" y="0">eru</tspan><tspan class="cls-6" x="32.77" y="0">	</tspan><tspan class="cls-7" x="48.02" y="0">	</tspan><tspan x="72.03" y="0"> </tspan><tspan class="cls-8" x="75.66" y="0">7</tspan><tspan class="cls-9" x="83.15" y="0">%</tspan><tspan class="cls-10" x="96.73" y="0">	</tspan><tspan class="cls-11" x="120.05" y="0">	</tspan><tspan class="cls-12" x="144.05" y="0">7</tspan><tspan class="cls-13" x="151.54" y="0">%</tspan><tspan class="cls-14" x="165.13" y="0">	</tspan></text><path class="cls-2" d="M400.89,563.35v18.16c163.88,0,328.92,43.57,488.53,85.7,80.22,21.18,163.17,43.07,245.17,59.25,92.23,18.2,173.35,27,248,27V735.35c-163.89,0-328.93-43.56-488.54-85.7-80.22-21.17-163.17-43.07-245.17-59.25C556.65,572.2,475.53,563.35,400.89,563.35Z"/><path class="cls-3" d="M1382.59,322.49c-75,0-156.46,13.37-249,40.88-82.14,24.4-165.15,57.41-245.44,89.32C728.82,516,564.08,581.51,400.89,581.51V601c75,0,156.45-13.37,249-40.87,82.14-24.41,165.16-57.41,245.44-89.33C1054.65,407.48,1219.39,342,1382.59,342Z"/><text class="cls-4" transform="translate(0 62.92)">Domini<tspan class="cls-15" x="50.7" y="0">c</tspan><tspan x="57.9" y="0">an </tspan><tspan class="cls-16" x="79.77" y="0">R</tspan><tspan class="cls-17" x="89.25" y="0">epublic</tspan><tspan class="cls-18" x="141.92" y="0">	</tspan><tspan class="cls-19" x="144.05" y="0" xml:space="preserve">		</tspan><tspan x="192.07" y="0"> </tspan><tspan class="cls-20" x="195.7" y="0">5</tspan><tspan class="cls-9" x="203.8" y="0">%</tspan><tspan class="cls-21" x="217.38" y="0">	</tspan><tspan class="cls-22" x="240.09" y="0">	</tspan><tspan class="cls-13" x="264.1" y="0">3%</tspan><tspan class="cls-23" x="285.84" y="0">	</tspan></text><path class="cls-3" d="M1382.59,115c-181.78,0-355.46,57.45-523.43,113C699.78,280.74,549.24,330.54,400.89,330.54V538c181.77,0,355.46-57.45,523.42-113,159.38-52.72,309.93-102.51,458.28-102.51Z"/><path class="cls-2" d="M400.89,1.33V330.54c118.09,0,257,86.27,404,177.62C889.12,560.5,976.25,614.63,1067,656.79c52.61,24.43,101.44,42.58,149.27,55.49,56.75,15.31,112.71,23.07,166.3,23.07V406.15c-118.1,0-257-86.28-404-177.62C894.35,176.18,807.23,122.06,716.46,79.9,663.84,55.47,615,37.31,567.19,24.41,510.43,9.1,454.48,1.33,400.89,1.33Z"/><text class="cls-4" transform="translate(100 24.92)">M<tspan class="cls-24" x="12.4" y="0">e</tspan><tspan x="20.8" y="0">xi</tspan><tspan class="cls-15" x="33.3" y="0">c</tspan><tspan x="40.5" y="0">o</tspan><tspan class="cls-25" x="49.68" y="0">	</tspan><tspan class="cls-7" x="72.03" y="0">	</tspan><tspan x="96.04" y="0"> </tspan><tspan class="cls-26" x="99.67" y="0">2</tspan><tspan class="cls-9" x="107.62" y="0">9%</tspan><tspan class="cls-27" x="130" y="0">	</tspan><tspan class="cls-22" x="144.05" y="0">	</tspan><tspan class="cls-28" x="168.06" y="0">3</tspan><tspan class="cls-29" x="176.19" y="0">4</tspan><tspan class="cls-13" x="184.43" y="0">%</tspan><tspan class="cls-30" x="198.01" y="0">	</tspan></text></g></g></svg>