<?xml version="1.0" encoding="utf-8"?>
<!-- Generator: Adobe Illustrator 23.0.1, SVG Export Plug-In . SVG Version: 6.00 Build 0)  -->
<svg version="1.1" id="DensityDesign_Logo" xmlns="http://www.w3.org/2000/svg" xmlns:xlink="http://www.w3.org/1999/xlink" x="0px"
	 y="0px" viewBox="0 0 68.4 80" style="enable-background:new 0 0 68.4 80;" xml:space="preserve">
<style type="text/css">
	.rec0{fill:#042E3A;}
</style>
<g>
	<rect x="57.8" y="8.6" class="rec0" width="10.7" height="2.3"/>
	<path class="rec0" d="M21.3,21.3V0h6.9v3.1h-3.6v5.8H27v2.9h-2.4v6.3h3.6v3.2H21.3z"/>
	<path class="rec0" d="M46.2,21.3l-3.8-10.8l-1.1-3.4v14.2H39V0h2.2l3.4,11l1,3.5V0H48v21.3H46.2z"/>
	<path class="rec0" d="M23.3,51.6V30.2h3.1v21.3h-3.1V51.6z"/>
	<path class="rec0" d="M6.2,79.7l-0.3-1.1C5.4,79.5,4.5,80,3.6,80C1.4,80,0,78.4,0,75.9V62.7c0-2.2,1.7-4.1,4-4.1s3.9,1.8,3.9,4.1
		v3.8h-3v-4c0-0.5-0.3-0.8-0.8-0.8S3.2,62,3.2,62.5v13.6c0,0.5,0.3,0.9,0.9,0.9S5,76.6,5,76.1V72H4.1v-2.5H8v10.2H6.2L6.2,79.7z"/>
	<path class="rec0" d="M27.4,80L25,70.4l-0.7-2.9V80h-2.8V58.7h3.1l2.1,9.6l0.6,3V58.7h2.8V80H27.4L27.4,80z"/>
	<path class="rec0" d="M44.7,32.4v19.2h-2.1V32.4h-2.7v-2.2h7.5v2.2H44.7z"/>
	<path class="rec0" d="M64.1,43.1v8.4h-2.2v-8.4l-3.1-12.9H61l2.2,9.9l2.2-9.9h2.1L64.1,43.1z"/>
	<rect x="38.2" y="67.3" class="rec0" width="10.7" height="2.3"/>
	<rect x="42.4" y="63.1" class="rec0" width="2.3" height="10.7"/>
	<path class="rec0" d="M2.5,21.3H0V0h2.5c5.8,0,6.2,2.3,6.2,10.7C8.7,19,8.3,21.3,2.5,21.3z M3.1,18.2c2.2,0,2.3-0.6,2.3-7.5
		c0-7-0.1-7.5-2.3-7.5C3.1,3.2,3.1,18.2,3.1,18.2z"/>
	<path class="rec0" d="M5.1,39.8c-1.3-2.3-2-3.1-2-5.5c0-0.7,0.4-1.1,0.9-1.1s0.8,0.4,0.8,1.1v1.6l2.7-0.3v-1c0-2.7-1.4-4.3-3.5-4.3
		c-2.7,0-4,2.1-4,4.7c0,2.4,1.6,5.3,2.8,7.2c1.2,2.1,1.9,3.5,1.9,5.4c0,0.8-0.3,1.2-1,1.2s-1-0.5-1-1.2v-1.7L0,46.1v1.2
		c0,2.8,1.5,4.3,3.9,4.3c2,0,3.9-1.3,3.9-4.6C7.8,44.6,6.5,42.1,5.1,39.8z"/>
</g>
</svg>
