<?xml version="1.0" encoding="utf-8"?>
<!-- Generator: Adobe Illustrator 22.1.0, SVG Export Plug-In . SVG Version: 6.00 Build 0)  -->
<svg version="1.1" id="图层_1" xmlns="http://www.w3.org/2000/svg" xmlns:xlink="http://www.w3.org/1999/xlink" x="0px" y="0px"
	 viewBox="0 0 1920 4021" style="enable-background:new 0 0 1920 4021;" xml:space="preserve">
<style type="text/css">
	.st0{fill:none;}
	.st1{fill:#FFFFFF;}
	.st2{fill:#6E82B2;}
	.st3{fill:#2A3083;}
	.st4{fill:#3B64A7;}
	.st5{fill:#231815;}
	.st6{font-family:'Comfortaa-Bold';}
	.st7{font-size:16.7745px;}
	.st8{fill:#C03F33;}
	.st9{fill:#22307D;}
	.st10{fill:#E7DFB8;}
	.st11{fill:#D99155;}
	.st12{font-size:28.7377px;}
	.st13{fill:none;stroke:#A23F43;stroke-width:0.8988;stroke-miterlimit:10;}
	.st14{fill:none;stroke:#C03F33;stroke-width:15.7419;stroke-miterlimit:10;}
	.st15{fill:none;stroke:#22307D;stroke-width:15.7419;stroke-miterlimit:10;}
	.st16{fill:none;stroke:#E7DFB8;stroke-width:15.7419;stroke-miterlimit:10;}
	.st17{fill:none;stroke:#D99155;stroke-width:15.7419;stroke-miterlimit:10;}
	.st18{fill:#070002;}
	.st19{font-size:12.5866px;}
	.st20{fill:#1C488B;stroke:#221714;stroke-width:0.8946;stroke-miterlimit:10;}
	.st21{font-size:12.5949px;}
	.st22{font-size:10.5137px;}
	.st23{font-size:15.4332px;}
	.st24{font-size:20.5776px;}
	.st25{fill:#FFE117;}
	.st26{fill:url(#SVGID_1_);stroke:#2A2F88;stroke-width:0.7748;stroke-miterlimit:10;}
	.st27{fill:url(#SVGID_2_);stroke:#2A2F88;stroke-width:1.4048;stroke-miterlimit:10;}
	.st28{fill:url(#SVGID_3_);stroke:#2A2F88;stroke-width:1.4048;stroke-miterlimit:10;}
	.st29{font-size:24px;}
	.st30{font-family:'AdobeSongStd-Light-GBpc-EUC-H';}
	.st31{fill:#A23F43;}
	.st32{fill:#B16268;}
	.st33{fill:#8193BB;}
	.st34{fill:#C58A8C;}
	.st35{fill:#DCB9BA;}
	.st36{fill:#667EAD;}
	.st37{fill:#395F9C;}
	.st38{font-size:17.7758px;}
	.st39{fill:none;stroke:#221714;stroke-width:0.5555;stroke-miterlimit:10;}
	.st40{font-size:12.2209px;}
	.st41{fill:none;stroke:#221714;stroke-width:0.5555;stroke-miterlimit:10;stroke-dasharray:3.333;}
	.st42{fill:#706E6D;}
	.st43{font-size:14.4042px;}
	.st44{font-size:19.2057px;}
	.st45{fill:none;stroke:#A23F43;stroke-width:1.2004;stroke-miterlimit:10;}
	.st46{fill:none;stroke:#706E6D;stroke-width:1.2004;stroke-miterlimit:10;}
	.st47{font-family:'Bebas';}
	.st48{font-size:48px;}
	.st49{font-size:30.1673px;}
	.st50{enable-background:new    ;}
	.st51{fill:url(#SVGID_4_);stroke:#2A2F88;stroke-width:1.4048;stroke-miterlimit:10;}
	.st52{fill:url(#SVGID_5_);stroke:#2A2F88;stroke-width:1.4048;stroke-miterlimit:10;}
	.st53{fill:url(#SVGID_6_);stroke:#2A2F88;stroke-width:1.4048;stroke-miterlimit:10;}
	.st54{fill:url(#SVGID_7_);stroke:#2A2F88;stroke-width:1.4048;stroke-miterlimit:10;}
	.st55{fill:url(#SVGID_8_);stroke:#2A2F88;stroke-width:1.4048;stroke-miterlimit:10;}
	.st56{fill:url(#SVGID_9_);stroke:#2A2F88;stroke-width:1.4048;stroke-miterlimit:10;}
	.st57{fill:url(#SVGID_10_);stroke:#2A2F88;stroke-width:1.4048;stroke-miterlimit:10;}
	.st58{fill:url(#SVGID_11_);stroke:#2A2F88;stroke-width:1.4048;stroke-miterlimit:10;}
	.st59{fill:url(#SVGID_12_);stroke:#2A2F88;stroke-width:1.4048;stroke-miterlimit:10;}
	.st60{fill:url(#SVGID_13_);stroke:#2A2F88;stroke-width:1.4048;stroke-miterlimit:10;}
	.st61{fill:url(#SVGID_14_);stroke:#2A2F88;stroke-width:1.4048;stroke-miterlimit:10;}
	.st62{fill:url(#SVGID_15_);stroke:#2A2F88;stroke-width:1.4048;stroke-miterlimit:10;}
	.st63{fill:url(#SVGID_16_);stroke:#2A2F88;stroke-width:1.4048;stroke-miterlimit:10;}
	.st64{fill:url(#SVGID_17_);stroke:#2A2F88;stroke-width:1.4048;stroke-miterlimit:10;}
	.st65{fill:url(#SVGID_18_);stroke:#2A2F88;stroke-width:1.4048;stroke-miterlimit:10;}
	.st66{fill:#FFFFFF;stroke:#2A2F88;stroke-width:1.4048;stroke-miterlimit:10;}
	.st67{fill:url(#SVGID_19_);stroke:#2A2F88;stroke-width:1.4048;stroke-miterlimit:10;}
	.st68{fill:url(#SVGID_20_);stroke:#2A2F88;stroke-width:1.4048;stroke-miterlimit:10;}
	.st69{fill:url(#SVGID_21_);stroke:#2A2F88;stroke-width:1.4048;stroke-miterlimit:10;}
	.st70{fill:url(#SVGID_22_);stroke:#2A2F88;stroke-width:1.4048;stroke-miterlimit:10;}
	.st71{fill:url(#SVGID_23_);stroke:#2A2F88;stroke-width:1.4048;stroke-miterlimit:10;}
	.st72{fill:url(#SVGID_24_);stroke:#2A2F88;stroke-width:1.4048;stroke-miterlimit:10;}
	.st73{fill:url(#SVGID_25_);stroke:#2A2F88;stroke-width:1.4048;stroke-miterlimit:10;}
	.st74{fill:url(#SVGID_26_);stroke:#2A2F88;stroke-width:1.4048;stroke-miterlimit:10;}
	.st75{fill:url(#SVGID_27_);stroke:#2A2F88;stroke-width:1.4048;stroke-miterlimit:10;}
	.st76{fill:url(#SVGID_28_);stroke:#2A2F88;stroke-width:1.4048;stroke-miterlimit:10;}
	.st77{fill:url(#SVGID_29_);stroke:#2A2F88;stroke-width:1.4048;stroke-miterlimit:10;}
	.st78{fill:url(#SVGID_30_);stroke:#2A2F88;stroke-width:1.4048;stroke-miterlimit:10;}
	.st79{fill:url(#SVGID_31_);stroke:#2A2F88;stroke-width:1.4048;stroke-miterlimit:10;}
	.st80{fill:url(#SVGID_32_);stroke:#2A2F88;stroke-width:1.4048;stroke-miterlimit:10;}
	.st81{fill:url(#SVGID_33_);stroke:#2A2F88;stroke-width:1.4048;stroke-miterlimit:10;}
	.st82{fill:url(#SVGID_34_);stroke:#2A2F88;stroke-width:1.4048;stroke-miterlimit:10;}
	.st83{fill:url(#SVGID_35_);stroke:#2A2F88;stroke-width:1.4048;stroke-miterlimit:10;}
	.st84{fill:url(#SVGID_36_);stroke:#2A2F88;stroke-width:1.4048;stroke-miterlimit:10;}
	.st85{fill:url(#SVGID_37_);stroke:#2A2F88;stroke-width:1.4048;stroke-miterlimit:10;}
	.st86{fill:url(#SVGID_38_);stroke:#2A2F88;stroke-width:1.4048;stroke-miterlimit:10;}
	.st87{fill:url(#SVGID_39_);stroke:#2A2F88;stroke-width:1.4048;stroke-miterlimit:10;}
	.st88{fill:url(#SVGID_40_);stroke:#2A2F88;stroke-width:1.4048;stroke-miterlimit:10;}
	.st89{fill:url(#SVGID_41_);stroke:#2A2F88;stroke-width:1.4048;stroke-miterlimit:10;}
	.st90{fill:url(#SVGID_42_);stroke:#2A2F88;stroke-width:1.4048;stroke-miterlimit:10;}
	.st91{fill:url(#SVGID_43_);stroke:#2A2F88;stroke-width:1.4048;stroke-miterlimit:10;}
	.st92{fill:url(#SVGID_44_);stroke:#2A2F88;stroke-width:1.4048;stroke-miterlimit:10;}
	.st93{fill:url(#SVGID_45_);stroke:#2A2F88;stroke-width:1.4048;stroke-miterlimit:10;}
	.st94{fill:url(#SVGID_46_);stroke:#2A2F88;stroke-width:1.4048;stroke-miterlimit:10;}
	.st95{fill:url(#SVGID_47_);stroke:#2A2F88;stroke-width:1.4048;stroke-miterlimit:10;}
	.st96{fill:url(#SVGID_48_);stroke:#2A2F88;stroke-width:1.4001;stroke-miterlimit:10;}
	.st97{fill:url(#SVGID_49_);stroke:#2A2F88;stroke-width:1.4048;stroke-miterlimit:10;}
	.st98{fill:#2E3192;}
	.st99{fill:url(#SVGID_50_);stroke:#2A2F88;stroke-width:1.2727;stroke-miterlimit:10;}
	.st100{fill:url(#SVGID_51_);stroke:#2A2F88;stroke-width:1.4048;stroke-miterlimit:10;}
</style>
<pattern  width="29" height="30" patternUnits="userSpaceOnUse" id="Motivo_nuevo_4" viewBox="4.5 -58.5 29 30" style="overflow:visible;">
	<g>
		<rect x="4.5" y="-58.5" class="st0" width="29" height="30"/>
		<g>
			<rect x="32" y="-30" class="st1" width="29" height="30"/>
		</g>
		<g>
			<rect x="3" y="-30" class="st1" width="29" height="30"/>
		</g>
		<g>
			<rect x="32" y="-60" class="st1" width="29" height="30"/>
		</g>
		<g>
			<rect x="3" y="-60" class="st1" width="29" height="30"/>
			<path class="st2" d="M20.5-45c0-1.7-1.3-3-3-3c-1.7,0-3,1.3-3,3s1.3,3,3,3C19.2-42,20.5-43.3,20.5-45z"/>
			<path class="st2" d="M35-30c0-1.7-1.3-3-3-3s-3,1.3-3,3s1.3,3,3,3S35-28.3,35-30z"/>
		</g>
		<g>
			<circle class="st2" cx="3" cy="-30" r="3"/>
		</g>
		<g>
			<path class="st2" d="M35-60c0-1.7-1.3-3-3-3s-3,1.3-3,3s1.3,3,3,3S35-58.3,35-60z"/>
		</g>
		<g>
			<circle class="st2" cx="3" cy="-60" r="3"/>
		</g>
	</g>
</pattern>
<rect x="-0.1" y="-134.9" class="st3" width="1920" height="1080"/>
<rect x="15.7" y="2622.8" class="st1" width="1920" height="1770"/>
<g>
	<path class="st4" d="M1133,3063.3c2.1,0,3.9-1.8,3.9-4.1s-1.7-4.1-3.9-4.1s-3.9,1.8-3.9,4.1S1130.8,3063.3,1133,3063.3z"/>
	<path class="st4" d="M1148.6,3063.3c2.1,0,3.9-1.8,3.9-4.1s-1.7-4.1-3.9-4.1c-2.1,0-3.9,1.8-3.9,4.1S1146.5,3063.3,1148.6,3063.3z"
		/>
	<text transform="matrix(1 0 0 1 720.1948 3152.4194)" class="st5 st6 st7">Mandarin Chinese</text>
	<rect x="697.7" y="3137.4" class="st8" width="19.3" height="19.3"/>
	<text transform="matrix(1 0 0 1 918.8003 3152.4194)" class="st5 st6 st7">Malaysian</text>
	<rect x="895.3" y="3137.4" class="st9" width="19.3" height="19.3"/>
	<text transform="matrix(1 0 0 1 1051.7153 3152.4194)" class="st5 st6 st7">English</text>
	<rect x="1028.2" y="3137.4" class="st10" width="19.3" height="19.3"/>
	<text transform="matrix(1 0 0 1 1166.396 3152.4194)" class="st5 st6 st7">Dialect</text>
	<rect x="1143.9" y="3137.4" class="st11" width="19.3" height="19.3"/>
	<text transform="matrix(1 0 0 1 601.7524 2587.7456)" class="st5 st6 st12">Chinese</text>
	<line class="st13" x1="727" y1="2553.8" x2="727" y2="3054.8"/>
	<line class="st14" x1="473.2" y1="2621.2" x2="727.6" y2="2621.2"/>
	<line class="st15" x1="727.6" y1="2636.8" x2="741.3" y2="2636.8"/>
	<line class="st16" x1="727.6" y1="2652.2" x2="746" y2="2652.2"/>
	<line class="st17" x1="727.6" y1="2667.5" x2="738.6" y2="2667.5"/>
	<line class="st14" x1="556.8" y1="2712.7" x2="726.4" y2="2712.7"/>
	<line class="st15" x1="797.9" y1="2728.3" x2="727.4" y2="2728.3"/>
	<line class="st17" x1="736.7" y1="2759.8" x2="727.4" y2="2759.8"/>
	<line class="st16" x1="775.6" y1="2743.9" x2="727.4" y2="2743.9"/>
	<line class="st17" x1="729.8" y1="2942.1" x2="727.5" y2="2942.1"/>
	<line class="st14" x1="727" y1="2895.2" x2="580" y2="2895.2"/>
	<line class="st15" x1="813.5" y1="2910.8" x2="727.5" y2="2910.8"/>
	<line class="st16" x1="789.7" y1="2926.4" x2="727.5" y2="2926.4"/>
	<line class="st17" x1="734.7" y1="3030.7" x2="727.5" y2="3030.7"/>
	<line class="st14" x1="727.2" y1="2984.1" x2="489.8" y2="2984.1"/>
	<line class="st15" x1="747.5" y1="2999.6" x2="727.5" y2="2999.6"/>
	<line class="st16" x1="763.2" y1="3015.1" x2="727.5" y2="3015.1"/>
	<line class="st14" x1="727.4" y1="2802.8" x2="619.7" y2="2802.8"/>
	<line class="st15" x1="835.2" y1="2818.7" x2="727.5" y2="2818.7"/>
	<line class="st16" x1="807.6" y1="2834.4" x2="727.5" y2="2834.4"/>
	<line class="st17" x1="729.6" y1="2850.2" x2="727.5" y2="2850.2"/>
	<text transform="matrix(1 0 0 1 1194.4067 2587.7456)" class="st5 st6 st12">Malays</text>
	<text transform="matrix(1 0 0 1 1126.2397 3022.1987)" class="st18 st6 st19">1.05%</text>
	<text transform="matrix(1 0 0 1 1131.2886 3037.9507)" class="st18 st6 st19">0.79%</text>
	<line class="st15" x1="1465.1" y1="3001" x2="1173.1" y2="3001"/>
	<line class="st16" x1="1173.1" y1="3016.9" x2="1167.3" y2="3016.9"/>
	<line class="st17" x1="1173.1" y1="3032.6" x2="1170.7" y2="3032.6"/>
	<line class="st20" x1="1173.1" y1="2549.9" x2="1173.1" y2="3052.3"/>
	<text transform="matrix(1 0 0 1 1118.3052 2656.5747)" class="st18 st6 st21">5.44%</text>
	<text transform="matrix(1 0 0 1 1132.2983 2622.9312)" class="st18 st6 st21">0.82%</text>
	<text transform="matrix(1 0 0 1 1128.3179 2672.5415)" class="st18 st6 st21">5.64</text>
	<line class="st15" x1="1435.8" y1="2634.9" x2="1173.6" y2="2634.9"/>
	<line class="st14" x1="1172.5" y1="2619" x2="1170.1" y2="2619"/>
	<line class="st16" x1="1172.5" y1="2650.5" x2="1156.3" y2="2650.5"/>
	<line class="st17" x1="1172.5" y1="2666.3" x2="1155.7" y2="2666.3"/>
	<text transform="matrix(1 0 0 1 1094.3052 2930.4194)" class="st18 st6 st19">10.52%</text>
	<text transform="matrix(1 0 0 1 1123.6743 2947.811)" class="st18 st6 st19">2.58%</text>
	<text transform="matrix(1 0 0 1 1130.5835 2898.2163)" class="st18 st6 st19">0.85%</text>
	<line class="st15" x1="1429.5" y1="2910.3" x2="1173.5" y2="2910.3"/>
	<line class="st14" x1="1172.6" y1="2894.5" x2="1170.2" y2="2894.5"/>
	<line class="st16" x1="1172.6" y1="2926.1" x2="1141.3" y2="2926.1"/>
	<line class="st17" x1="1172.6" y1="2941.8" x2="1164.9" y2="2941.8"/>
	<text transform="matrix(1 0 0 1 1095.0708 2748.6108)" class="st18 st6 st19">10.67%</text>
	<text transform="matrix(1 0 0 1 1109.7319 2764.8999)" class="st18 st6 st19">7.41%</text>
	<text transform="matrix(1 0 0 1 1130.5835 2717.7729)" class="st18 st6 st19">1.08%</text>
	<line class="st15" x1="1414" y1="2728.5" x2="1173.5" y2="2728.5"/>
	<line class="st14" x1="1172.7" y1="2712.8" x2="1169.5" y2="2712.8"/>
	<line class="st16" x1="1172.7" y1="2744.3" x2="1140.9" y2="2744.3"/>
	<line class="st17" x1="1172.7" y1="2760.1" x2="1150.6" y2="2760.1"/>
	<text transform="matrix(1 0 0 1 1093.8276 2840.1099)" class="st18 st6 st21">14.5%</text>
	<text transform="matrix(1 0 0 1 1136.4341 2854.6782)" class="st18 st6 st22">1.47%</text>
	<text transform="matrix(1 0 0 1 1132.2983 2807.436)" class="st18 st6 st19">0.63%</text>
	<line class="st15" x1="1421.7" y1="2819.2" x2="1173.5" y2="2819.2"/>
	<line class="st14" x1="1172.6" y1="2803.4" x2="1170.7" y2="2803.4"/>
	<line class="st16" x1="1172.6" y1="2835.1" x2="1129.5" y2="2835.1"/>
	<line class="st17" x1="1172.6" y1="2850.8" x2="1167.4" y2="2850.8"/>
	<text transform="matrix(1 0 0 1 913.5562 2739.4604)" class="st18 st6 st23">Friendship</text>
	<text transform="matrix(1 0 0 1 912.3853 2830.312)" class="st18 st6 st23">Education</text>
	<text transform="matrix(1 0 0 1 921.397 3012.0171)" class="st18 st6 st23">Religion</text>
	<text transform="matrix(1 0 0 1 908.1479 2921.1626)" class="st18 st6 st23">Transaction</text>
	<text transform="matrix(1 0 0 1 927.2036 2648.6079)" class="st18 st6 st23">Family</text>
	<text transform="matrix(1 0 0 1 410.2114 2627.4897)" class="st18 st6 st24">85.5%</text>
	<text transform="matrix(1 0 0 1 751.5347 2641.6821)" class="st18 st6 st21">4.6%</text>
	<text transform="matrix(1 0 0 1 508.5229 2719.4868)" class="st18 st6 st24">57%</text>
	<text transform="matrix(1 0 0 1 556.9468 2808.9565)" class="st18 st6 st24">36.2%</text>
	<text transform="matrix(1 0 0 1 516.3149 2902.8218)" class="st18 st6 st24">49.4%</text>
	<text transform="matrix(1 0 0 1 424.1655 2992.5005)" class="st18 st6 st24">78.9%</text>
	<text transform="matrix(1 0 0 1 754.0298 2656.5737)" class="st18 st6 st21">6.2%</text>
	<text transform="matrix(1 0 0 1 746.0464 2670.6245)" class="st18 st6 st21">3.7%</text>
	<text transform="matrix(1 0 0 1 801.6899 2731.9497)" class="st18 st6 st21">23.7%</text>
	<text transform="matrix(1 0 0 1 781.3755 2748.4204)" class="st18 st6 st21">16.2%</text>
	<text transform="matrix(1 0 0 1 741.2866 2764.8921)" class="st18 st6 st21">3.1%</text>
	<text transform="matrix(1 0 0 1 839.5474 2822.3755)" class="st18 st6 st21">36.2%</text>
	<text transform="matrix(1 0 0 1 810.3032 2838.3267)" class="st18 st6 st21">26.9%</text>
	<text transform="matrix(1 0 0 1 734.4438 2854.6792)" class="st18 st6 st21">0.7%</text>
	<text transform="matrix(1 0 0 1 818.2739 2914.1118)" class="st18 st6 st21">28.91%</text>
	<text transform="matrix(1 0 0 1 793.6216 2930.4829)" class="st18 st6 st21">20.9%</text>
	<text transform="matrix(1 0 0 1 734.4438 2946.0972)" class="st18 st6 st21">0.79%</text>
	<text transform="matrix(1 0 0 1 754.0298 3003.0884)" class="st18 st6 st21">6.7%</text>
	<text transform="matrix(1 0 0 1 767.5396 3020.4839)" class="st18 st6 st21">12%</text>
	<text transform="matrix(1 0 0 1 741.2866 3036.2358)" class="st18 st6 st21">2.4%</text>
	<text transform="matrix(1 0 0 1 1445.7368 2639.9673)" class="st18 st6 st24">88.1%</text>
	<text transform="matrix(1 0 0 1 1423.3892 2733.6646)" class="st18 st6 st24">80.84%</text>
	<text transform="matrix(1 0 0 1 1429.5249 2825.3423)" class="st18 st6 st24">83.4%</text>
	<text transform="matrix(1 0 0 1 1439.1011 2916.4009)" class="st18 st6 st24">86.05%</text>
	<text transform="matrix(1 0 0 1 1473.6929 3006.854)" class="st18 st6 st24">98.16%</text>
</g>
<rect x="-0.1" y="945.1" class="st3" width="1920" height="872.9"/>
<path class="st1" d="M1919.9,898.5c-154.2-56.3-274.2,17.1-309.3,172.4c-34.4,151.8-223.3,94.2-324.7,178.7
	C1126.5,1382.2,1186,1563,959.9,1563c-226.1,0-165.4-180.7-325.9-313.4c-101.8-84.1-290.4-26.8-324.7-178.7
	C274.1,915.6,154.1,842.2-0.1,898.5v929.3h1920V898.5z"/>
<circle class="st25" cx="638.6" cy="1032.8" r="37"/>
<pattern  id="SVGID_1_" xlink:href="#Motivo_nuevo_4" patternTransform="matrix(1 0 0 1 -5.0025 45)">
</pattern>
<path class="st26" d="M2207.6,3575.7V3722h-229.4c19.2-81.9,108.1-133.5,186.2-145.1C2178.5,3574.7,2193.4,3574,2207.6,3575.7z"/>
<path class="st3" d="M143.3,3557.6c0,9.6-7.7,17.3-17.3,17.3c-9.6,0-17.3-7.7-17.3-17.3c0-9.5,7.7-17.3,17.3-17.3
	C135.5,3540.3,143.3,3548,143.3,3557.6z"/>
<path class="st3" d="M1806.5,3246.6c0,4.3-3.5,7.8-7.8,7.8c-4.3,0-7.8-3.5-7.8-7.8s3.5-7.8,7.8-7.8
	C1803,3238.8,1806.5,3242.3,1806.5,3246.6z"/>
<path class="st3" d="M1959.5,3218.4c0,4.3-3.5,7.8-7.8,7.8c-4.3,0-7.8-3.5-7.8-7.8c0-4.3,3.5-7.8,7.8-7.8
	C1956,3210.6,1959.5,3214.1,1959.5,3218.4z"/>
<path class="st3" d="M2084.1,3258c0,6.3-5.1,11.4-11.4,11.4c-6.3,0-11.4-5.1-11.4-11.4c0-6.3,5.1-11.4,11.4-11.4
	C2079,3246.6,2084.1,3251.7,2084.1,3258z"/>
<path class="st3" d="M2161.3,3457.6c0,6.3-5.1,11.4-11.4,11.4c-6.3,0-11.4-5.1-11.4-11.4c0-6.3,5.1-11.4,11.4-11.4
	C2156.2,3446.2,2161.3,3451.3,2161.3,3457.6z"/>
<path class="st3" d="M2171.1,3630.8c0,6.3-5.1,11.4-11.4,11.4c-6.3,0-11.4-5.1-11.4-11.4c0-6.3,5.1-11.4,11.4-11.4
	C2166,3619.4,2171.1,3624.5,2171.1,3630.8z"/>
<path class="st3" d="M2176.6,3509.5c0,9.3-7.6,16.9-16.9,16.9c-9.3,0-16.9-7.6-16.9-16.9c0-9.3,7.6-16.9,16.9-16.9
	C2169.1,3492.6,2176.6,3500.2,2176.6,3509.5z"/>
<circle class="st3" cx="2119.7" cy="3240.2" r="19"/>
<circle class="st3" cx="1810.1" cy="3622" r="19"/>
<circle class="st3" cx="1810.1" cy="3622" r="19"/>
<path class="st3" d="M2094.1,3337.2l-1.2-4.1l-1.2,4.1c-1,3.5-3.3,6.4-6.5,8.2l0,0l0,0c3.2,1.7,5.5,4.7,6.5,8.2l1.2,4.1l1.2-4.1
	c1-3.5,3.3-6.4,6.5-8.2l0,0l0,0C2097.5,3343.6,2095.1,3340.7,2094.1,3337.2z"/>
<path class="st3" d="M2162.5,3664.1l-1.2-4.1l-1.2,4.1c-1,3.5-3.3,6.4-6.5,8.2l0,0l0,0c3.2,1.7,5.5,4.7,6.5,8.2l1.2,4.1l1.2-4.1
	c1-3.5,3.3-6.4,6.5-8.2l0,0l0,0C2165.8,3670.6,2163.5,3667.6,2162.5,3664.1z"/>
<path class="st3" d="M2134.8,3319.2l-0.8-2.9l-0.8,2.9c-0.7,2.5-2.4,4.6-4.6,5.8l0,0l0,0c2.3,1.2,3.9,3.3,4.6,5.8l0.8,2.9l0.8-2.9
	c0.7-2.5,2.4-4.6,4.6-5.8l0,0l0,0C2137.2,3323.7,2135.5,3321.7,2134.8,3319.2z"/>
<path class="st3" d="M2101.5,3575.3l-0.8-2.9l-0.8,2.9c-0.7,2.5-2.4,4.6-4.6,5.8l0,0l0,0c2.3,1.2,3.9,3.3,4.6,5.8l0.8,2.9l0.8-2.9
	c0.7-2.5,2.4-4.6,4.6-5.8l0,0l0,0C2103.9,3579.9,2102.2,3577.8,2101.5,3575.3z"/>
<pattern  id="SVGID_2_" xlink:href="#Motivo_nuevo_4" patternTransform="matrix(1 0 0 1 -5.0025 45)">
</pattern>
<circle class="st27" cx="620.5" cy="1039.7" r="37.3"/>
<pattern  id="SVGID_3_" xlink:href="#Motivo_nuevo_4" patternTransform="matrix(1 0 0 1 -5.0025 45)">
</pattern>
<circle class="st28" cx="364.7" cy="1151.2" r="25.8"/>
<circle class="st25" cx="636.6" cy="2334.1" r="37"/>
<path class="st1" d="M668.5,1282.2c0,0,7.7,14.8,94.2,71.5c15.1,9.9,115.6,45.7,209.5,9.3c93.9-36.4,205-106.2,268.8-132.8
	s109.6-39.2,199.9-37.7s-377.7,426.4-377.7,426.4l-364.3-85.8L668.5,1282.2z"/>
<rect x="446.3" y="1985.8" class="st0" width="1222.6" height="143.5"/>
<text transform="matrix(1 0 0 1 446.2812 2007.1798)"><tspan x="0" y="0" class="st3 st6 st29">The Chinese, who largely settled in urban areas</tspan><tspan x="599.4" y="0" class="st3 st30 st29">；</tspan><tspan x="623.4" y="0" class="st3 st6 st29">however, Malays mostly lived in rural areas.</tspan></text>
<g>
	<path class="st31" d="M1410.6,1421.4c2.7,0,4.8-2.2,4.8-4.9c0-2.7-2.2-4.9-4.8-4.9c-2.7,0-4.8,2.2-4.8,4.9
		C1405.8,1419.2,1407.9,1421.4,1410.6,1421.4z"/>
	<path class="st32" d="M1430.1,1421.4c2.7,0,4.8-2.2,4.8-4.9c0-2.7-2.2-4.9-4.8-4.9c-2.7,0-4.8,2.2-4.8,4.9
		C1425.3,1419.2,1427.4,1421.4,1430.1,1421.4z"/>
	<path class="st33" d="M514.8,1441.2c2.7,0,4.8-2.2,4.8-4.9s-2.2-4.9-4.8-4.9c-2.7,0-4.8,2.2-4.8,4.9S512.1,1441.2,514.8,1441.2z"/>
	<path class="st33" d="M534.3,1441.2c2.7,0,4.8-2.2,4.8-4.9s-2.2-4.9-4.8-4.9s-4.8,2.2-4.8,4.9S531.6,1441.2,534.3,1441.2z"/>
	<path class="st33" d="M514.8,1461c2.7,0,4.8-2.2,4.8-4.9c0-2.7-2.2-4.9-4.8-4.9c-2.7,0-4.8,2.2-4.8,4.9
		C510,1458.8,512.1,1461,514.8,1461z"/>
	<path class="st33" d="M534.3,1461c2.7,0,4.8-2.2,4.8-4.9c0-2.7-2.2-4.9-4.8-4.9s-4.8,2.2-4.8,4.9
		C529.5,1458.8,531.6,1461,534.3,1461z"/>
	<path class="st33" d="M1352.2,1461c2.7,0,4.8-2.2,4.8-4.9c0-2.7-2.2-4.9-4.8-4.9c-2.7,0-4.8,2.2-4.8,4.9
		C1347.4,1458.8,1349.5,1461,1352.2,1461z"/>
	<path class="st33" d="M1352.2,1480.7c2.7,0,4.8-2.2,4.8-4.9s-2.2-4.9-4.8-4.9c-2.7,0-4.8,2.2-4.8,4.9S1349.5,1480.7,1352.2,1480.7z
		"/>
	<path class="st33" d="M612.2,1500.5c2.7,0,4.8-2.2,4.8-4.9s-2.2-4.9-4.8-4.9c-2.7,0-4.8,2.2-4.8,4.9S609.5,1500.5,612.2,1500.5z"/>
	<path class="st33" d="M631.6,1500.5c2.7,0,4.8-2.2,4.8-4.9s-2.2-4.9-4.8-4.9c-2.7,0-4.8,2.2-4.8,4.9S629,1500.5,631.6,1500.5z"/>
	<path class="st33" d="M651.1,1500.5c2.7,0,4.8-2.2,4.8-4.9s-2.2-4.9-4.8-4.9c-2.7,0-4.8,2.2-4.8,4.9S648.5,1500.5,651.1,1500.5z"/>
	<path class="st33" d="M1332.7,1500.5c2.7,0,4.8-2.2,4.8-4.9s-2.2-4.9-4.8-4.9c-2.7,0-4.8,2.2-4.8,4.9S1330.1,1500.5,1332.7,1500.5z
		"/>
	<path class="st33" d="M1352.2,1500.5c2.7,0,4.8-2.2,4.8-4.9s-2.2-4.9-4.8-4.9c-2.7,0-4.8,2.2-4.8,4.9S1349.5,1500.5,1352.2,1500.5z
		"/>
	<path class="st33" d="M612.2,1520.3c2.7,0,4.8-2.2,4.8-4.9c0-2.7-2.2-4.9-4.8-4.9c-2.7,0-4.8,2.2-4.8,4.9
		C607.3,1518.1,609.5,1520.3,612.2,1520.3z"/>
	<path class="st33" d="M631.6,1520.3c2.7,0,4.8-2.2,4.8-4.9c0-2.7-2.2-4.9-4.8-4.9c-2.7,0-4.8,2.2-4.8,4.9
		C626.8,1518.1,629,1520.3,631.6,1520.3z"/>
	<path class="st33" d="M651.1,1520.3c2.7,0,4.8-2.2,4.8-4.9c0-2.7-2.2-4.9-4.8-4.9c-2.7,0-4.8,2.2-4.8,4.9
		C646.3,1518.1,648.5,1520.3,651.1,1520.3z"/>
	<path class="st33" d="M1352.2,1520.3c2.7,0,4.8-2.2,4.8-4.9c0-2.7-2.2-4.9-4.8-4.9c-2.7,0-4.8,2.2-4.8,4.9
		C1347.4,1518.1,1349.5,1520.3,1352.2,1520.3z"/>
	<path class="st33" d="M1371.7,1520.3c2.7,0,4.8-2.2,4.8-4.9c0-2.7-2.2-4.9-4.8-4.9c-2.7,0-4.8,2.2-4.8,4.9
		C1366.8,1518.1,1369,1520.3,1371.7,1520.3z"/>
	<path class="st33" d="M1391.1,1520.3c2.7,0,4.8-2.2,4.8-4.9c0-2.7-2.2-4.9-4.8-4.9c-2.7,0-4.8,2.2-4.8,4.9
		C1386.3,1518.1,1388.5,1520.3,1391.1,1520.3z"/>
	<path class="st33" d="M612.2,1540c2.7,0,4.8-2.2,4.8-4.9s-2.2-4.9-4.8-4.9c-2.7,0-4.8,2.2-4.8,4.9S609.5,1540,612.2,1540z"/>
	<path class="st33" d="M631.6,1540c2.7,0,4.8-2.2,4.8-4.9s-2.2-4.9-4.8-4.9c-2.7,0-4.8,2.2-4.8,4.9S629,1540,631.6,1540z"/>
	<path class="st33" d="M651.1,1540c2.7,0,4.8-2.2,4.8-4.9s-2.2-4.9-4.8-4.9c-2.7,0-4.8,2.2-4.8,4.9S648.5,1540,651.1,1540z"/>
	<path class="st33" d="M670.6,1540c2.7,0,4.8-2.2,4.8-4.9s-2.2-4.9-4.8-4.9c-2.7,0-4.8,2.2-4.8,4.9S667.9,1540,670.6,1540z"/>
	<path class="st33" d="M1391.1,1540c2.7,0,4.8-2.2,4.8-4.9s-2.2-4.9-4.8-4.9c-2.7,0-4.8,2.2-4.8,4.9S1388.5,1540,1391.1,1540z"/>
	<path class="st31" d="M553.7,1579.6c2.7,0,4.8-2.2,4.8-4.9c0-2.7-2.2-4.9-4.8-4.9s-4.8,2.2-4.8,4.9
		C548.9,1577.4,551.1,1579.6,553.7,1579.6z"/>
	<path class="st31" d="M1157.4,1619.1c2.7,0,4.8-2.2,4.8-4.9c0-2.7-2.2-4.9-4.8-4.9c-2.7,0-4.8,2.2-4.8,4.9
		C1152.6,1616.9,1154.8,1619.1,1157.4,1619.1z"/>
	<path class="st33" d="M729,1638.8c2.7,0,4.8-2.2,4.8-4.9s-2.2-4.9-4.8-4.9c-2.7,0-4.8,2.2-4.8,4.9S726.3,1638.8,729,1638.8z"/>
	<path class="st31" d="M1157.4,1638.8c2.7,0,4.8-2.2,4.8-4.9s-2.2-4.9-4.8-4.9c-2.7,0-4.8,2.2-4.8,4.9S1154.8,1638.8,1157.4,1638.8z
		"/>
	<path class="st31" d="M1176.9,1638.8c2.7,0,4.8-2.2,4.8-4.9s-2.2-4.9-4.8-4.9c-2.7,0-4.8,2.2-4.8,4.9S1174.3,1638.8,1176.9,1638.8z
		"/>
	<path class="st33" d="M709.5,1658.6c2.7,0,4.8-2.2,4.8-4.9s-2.2-4.9-4.8-4.9c-2.7,0-4.8,2.2-4.8,4.9S706.9,1658.6,709.5,1658.6z"/>
	<path class="st33" d="M729,1658.6c2.7,0,4.8-2.2,4.8-4.9s-2.2-4.9-4.8-4.9c-2.7,0-4.8,2.2-4.8,4.9S726.3,1658.6,729,1658.6z"/>
	<path class="st33" d="M749.5,1678.4c2.7,0,4.8-2.2,4.8-4.9c0-2.7-2.2-4.9-4.8-4.9c-2.7,0-4.8,2.2-4.8,4.9
		C744.7,1676.2,746.8,1678.4,749.5,1678.4z"/>
	<path class="st32" d="M514.8,1500.5c2.7,0,4.8-2.2,4.8-4.9s-2.2-4.9-4.8-4.9c-2.7,0-4.8,2.2-4.8,4.9S512.1,1500.5,514.8,1500.5z"/>
	<path class="st32" d="M553.7,1520.3c2.7,0,4.8-2.2,4.8-4.9c0-2.7-2.2-4.9-4.8-4.9s-4.8,2.2-4.8,4.9
		C548.9,1518.1,551.1,1520.3,553.7,1520.3z"/>
	<path class="st32" d="M553.7,1540c2.7,0,4.8-2.2,4.8-4.9s-2.2-4.9-4.8-4.9s-4.8,2.2-4.8,4.9S551.1,1540,553.7,1540z"/>
	<path class="st32" d="M573.2,1540c2.7,0,4.8-2.2,4.8-4.9s-2.2-4.9-4.8-4.9c-2.7,0-4.8,2.2-4.8,4.9S570.6,1540,573.2,1540z"/>
	<path class="st32" d="M573.2,1559.8c2.7,0,4.8-2.2,4.8-4.9c0-2.7-2.2-4.9-4.8-4.9c-2.7,0-4.8,2.2-4.8,4.9
		C568.4,1557.6,570.6,1559.8,573.2,1559.8z"/>
	<path class="st32" d="M631.6,1619.1c2.7,0,4.8-2.2,4.8-4.9c0-2.7-2.2-4.9-4.8-4.9c-2.7,0-4.8,2.2-4.8,4.9
		C626.8,1616.9,629,1619.1,631.6,1619.1z"/>
	<path class="st32" d="M651.1,1619.1c2.7,0,4.8-2.2,4.8-4.9c0-2.7-2.2-4.9-4.8-4.9c-2.7,0-4.8,2.2-4.8,4.9
		C646.3,1616.9,648.5,1619.1,651.1,1619.1z"/>
	<path class="st32" d="M670.6,1619.1c2.7,0,4.8-2.2,4.8-4.9c0-2.7-2.2-4.9-4.8-4.9c-2.7,0-4.8,2.2-4.8,4.9
		C665.8,1616.9,667.9,1619.1,670.6,1619.1z"/>
	<path class="st32" d="M651.1,1638.8c2.7,0,4.8-2.2,4.8-4.9s-2.2-4.9-4.8-4.9c-2.7,0-4.8,2.2-4.8,4.9S648.5,1638.8,651.1,1638.8z"/>
	<path class="st32" d="M670.6,1638.8c2.7,0,4.8-2.2,4.8-4.9s-2.2-4.9-4.8-4.9c-2.7,0-4.8,2.2-4.8,4.9S667.9,1638.8,670.6,1638.8z"/>
	<path class="st32" d="M690.1,1638.8c2.7,0,4.8-2.2,4.8-4.9s-2.2-4.9-4.8-4.9c-2.7,0-4.8,2.2-4.8,4.9S687.4,1638.8,690.1,1638.8z"/>
	<path class="st32" d="M670.6,1658.6c2.7,0,4.8-2.2,4.8-4.9s-2.2-4.9-4.8-4.9c-2.7,0-4.8,2.2-4.8,4.9S667.9,1658.6,670.6,1658.6z"/>
	<path class="st32" d="M690.1,1658.6c2.7,0,4.8-2.2,4.8-4.9s-2.2-4.9-4.8-4.9c-2.7,0-4.8,2.2-4.8,4.9S687.4,1658.6,690.1,1658.6z"/>
	<path class="st32" d="M690.1,1678.4c2.7,0,4.8-2.2,4.8-4.9c0-2.7-2.2-4.9-4.8-4.9c-2.7,0-4.8,2.2-4.8,4.9
		C685.2,1676.2,687.4,1678.4,690.1,1678.4z"/>
	<path class="st34" d="M514.8,1480.7c2.7,0,4.8-2.2,4.8-4.9s-2.2-4.9-4.8-4.9c-2.7,0-4.8,2.2-4.8,4.9S512.1,1480.7,514.8,1480.7z"/>
	<path class="st34" d="M514.8,1520.3c2.7,0,4.8-2.2,4.8-4.9c0-2.7-2.2-4.9-4.8-4.9c-2.7,0-4.8,2.2-4.8,4.9
		C510,1518.1,512.1,1520.3,514.8,1520.3z"/>
	<path class="st34" d="M534.3,1520.3c2.7,0,4.8-2.2,4.8-4.9c0-2.7-2.2-4.9-4.8-4.9s-4.8,2.2-4.8,4.9
		C529.5,1518.1,531.6,1520.3,534.3,1520.3z"/>
	<path class="st34" d="M534.3,1540c2.7,0,4.8-2.2,4.8-4.9s-2.2-4.9-4.8-4.9s-4.8,2.2-4.8,4.9S531.6,1540,534.3,1540z"/>
	<path class="st34" d="M553.7,1559.8c2.7,0,4.8-2.2,4.8-4.9c0-2.7-2.2-4.9-4.8-4.9s-4.8,2.2-4.8,4.9
		C548.9,1557.6,551.1,1559.8,553.7,1559.8z"/>
	<path class="st34" d="M573.2,1579.6c2.7,0,4.8-2.2,4.8-4.9c0-2.7-2.2-4.9-4.8-4.9c-2.7,0-4.8,2.2-4.8,4.9
		C568.4,1577.4,570.6,1579.6,573.2,1579.6z"/>
	<path class="st34" d="M592.7,1579.6c2.7,0,4.8-2.2,4.8-4.9c0-2.7-2.2-4.9-4.8-4.9s-4.8,2.2-4.8,4.9
		C587.9,1577.4,590,1579.6,592.7,1579.6z"/>
	<path class="st34" d="M709.5,1678.4c2.7,0,4.8-2.2,4.8-4.9c0-2.7-2.2-4.9-4.8-4.9c-2.7,0-4.8,2.2-4.8,4.9
		C704.7,1676.2,706.9,1678.4,709.5,1678.4z"/>
	<path class="st34" d="M709.8,1697.1c2.7,0,4.8-2.2,4.8-4.9c0-2.7-2.2-4.9-4.8-4.9c-2.7,0-4.8,2.2-4.8,4.9
		C705,1694.9,707.1,1697.1,709.8,1697.1z"/>
	<path class="st34" d="M729,1678.4c2.7,0,4.8-2.2,4.8-4.9c0-2.7-2.2-4.9-4.8-4.9c-2.7,0-4.8,2.2-4.8,4.9
		C724.2,1676.2,726.3,1678.4,729,1678.4z"/>
	<path class="st35" d="M534.3,1480.7c2.7,0,4.8-2.2,4.8-4.9s-2.2-4.9-4.8-4.9s-4.8,2.2-4.8,4.9S531.6,1480.7,534.3,1480.7z"/>
	<path class="st35" d="M534.3,1500.5c2.7,0,4.8-2.2,4.8-4.9s-2.2-4.9-4.8-4.9s-4.8,2.2-4.8,4.9S531.6,1500.5,534.3,1500.5z"/>
	<path class="st35" d="M553.7,1500.5c2.7,0,4.8-2.2,4.8-4.9s-2.2-4.9-4.8-4.9s-4.8,2.2-4.8,4.9S551.1,1500.5,553.7,1500.5z"/>
	<path class="st35" d="M573.2,1500.5c2.7,0,4.8-2.2,4.8-4.9s-2.2-4.9-4.8-4.9c-2.7,0-4.8,2.2-4.8,4.9S570.6,1500.5,573.2,1500.5z"/>
	<path class="st35" d="M573.2,1520.3c2.7,0,4.8-2.2,4.8-4.9c0-2.7-2.2-4.9-4.8-4.9c-2.7,0-4.8,2.2-4.8,4.9
		C568.4,1518.1,570.6,1520.3,573.2,1520.3z"/>
	<path class="st35" d="M592.7,1540c2.7,0,4.8-2.2,4.8-4.9s-2.2-4.9-4.8-4.9s-4.8,2.2-4.8,4.9S590,1540,592.7,1540z"/>
	<path class="st35" d="M592.7,1559.8c2.7,0,4.8-2.2,4.8-4.9c0-2.7-2.2-4.9-4.8-4.9s-4.8,2.2-4.8,4.9
		C587.9,1557.6,590,1559.8,592.7,1559.8z"/>
	<path class="st35" d="M612.2,1579.6c2.7,0,4.8-2.2,4.8-4.9c0-2.7-2.2-4.9-4.8-4.9c-2.7,0-4.8,2.2-4.8,4.9
		C607.3,1577.4,609.5,1579.6,612.2,1579.6z"/>
	<path class="st35" d="M573.2,1599.3c2.7,0,4.8-2.2,4.8-4.9c0-2.7-2.2-4.9-4.8-4.9c-2.7,0-4.8,2.2-4.8,4.9
		C568.4,1597.1,570.6,1599.3,573.2,1599.3z"/>
	<path class="st35" d="M573.2,1619.1c2.7,0,4.8-2.2,4.8-4.9c0-2.7-2.2-4.9-4.8-4.9c-2.7,0-4.8,2.2-4.8,4.9
		C568.4,1616.9,570.6,1619.1,573.2,1619.1z"/>
	<path class="st35" d="M592.7,1619.1c2.7,0,4.8-2.2,4.8-4.9c0-2.7-2.2-4.9-4.8-4.9s-4.8,2.2-4.8,4.9
		C587.9,1616.9,590,1619.1,592.7,1619.1z"/>
	<path class="st35" d="M729.6,1697.1c2.7,0,4.8-2.2,4.8-4.9c0-2.7-2.2-4.9-4.8-4.9c-2.7,0-4.8,2.2-4.8,4.9
		C724.7,1694.9,726.9,1697.1,729.6,1697.1z"/>
	<path class="st32" d="M1079.5,1678.4c2.7,0,4.8-2.2,4.8-4.9c0-2.7-2.2-4.9-4.8-4.9c-2.7,0-4.8,2.2-4.8,4.9
		C1074.7,1676.2,1076.9,1678.4,1079.5,1678.4z"/>
	<path class="st33" d="M1118.5,1678.4c2.7,0,4.8-2.2,4.8-4.9c0-2.7-2.2-4.9-4.8-4.9c-2.7,0-4.8,2.2-4.8,4.9
		C1113.7,1676.2,1115.8,1678.4,1118.5,1678.4z"/>
	<path class="st33" d="M1138,1678.4c2.7,0,4.8-2.2,4.8-4.9c0-2.7-2.2-4.9-4.8-4.9c-2.7,0-4.8,2.2-4.8,4.9
		C1133.1,1676.2,1135.3,1678.4,1138,1678.4z"/>
	<path class="st36" d="M1508,1421.4c2.7,0,4.8-2.2,4.8-4.9c0-2.7-2.2-4.9-4.8-4.9c-2.7,0-4.8,2.2-4.8,4.9
		C1503.2,1419.2,1505.3,1421.4,1508,1421.4z"/>
	<path class="st36" d="M1527.5,1421.4c2.7,0,4.8-2.2,4.8-4.9c0-2.7-2.2-4.9-4.8-4.9c-2.7,0-4.8,2.2-4.8,4.9
		C1522.6,1419.2,1524.8,1421.4,1527.5,1421.4z"/>
	<path class="st36" d="M475.8,1441.2c2.7,0,4.8-2.2,4.8-4.9s-2.2-4.9-4.8-4.9c-2.7,0-4.8,2.2-4.8,4.9S473.2,1441.2,475.8,1441.2z"/>
	<path class="st36" d="M573.2,1441.2c2.7,0,4.8-2.2,4.8-4.9s-2.2-4.9-4.8-4.9c-2.7,0-4.8,2.2-4.8,4.9S570.6,1441.2,573.2,1441.2z"/>
	<path class="st36" d="M1527.5,1441.2c2.7,0,4.8-2.2,4.8-4.9s-2.2-4.9-4.8-4.9c-2.7,0-4.8,2.2-4.8,4.9S1524.8,1441.2,1527.5,1441.2z
		"/>
	<path class="st32" d="M475.8,1461c2.7,0,4.8-2.2,4.8-4.9c0-2.7-2.2-4.9-4.8-4.9c-2.7,0-4.8,2.2-4.8,4.9
		C471,1458.8,473.2,1461,475.8,1461z"/>
	<path class="st36" d="M553.7,1461c2.7,0,4.8-2.2,4.8-4.9c0-2.7-2.2-4.9-4.8-4.9s-4.8,2.2-4.8,4.9
		C548.9,1458.8,551.1,1461,553.7,1461z"/>
	<path class="st36" d="M573.2,1461c2.7,0,4.8-2.2,4.8-4.9c0-2.7-2.2-4.9-4.8-4.9c-2.7,0-4.8,2.2-4.8,4.9
		C568.4,1458.8,570.6,1461,573.2,1461z"/>
	<path class="st36" d="M592.7,1461c2.7,0,4.8-2.2,4.8-4.9c0-2.7-2.2-4.9-4.8-4.9s-4.8,2.2-4.8,4.9C587.9,1458.8,590,1461,592.7,1461
		z"/>
	<path class="st36" d="M612.2,1461c2.7,0,4.8-2.2,4.8-4.9c0-2.7-2.2-4.9-4.8-4.9c-2.7,0-4.8,2.2-4.8,4.9
		C607.3,1458.8,609.5,1461,612.2,1461z"/>
	<path class="st36" d="M1410.6,1461c2.7,0,4.8-2.2,4.8-4.9c0-2.7-2.2-4.9-4.8-4.9c-2.7,0-4.8,2.2-4.8,4.9
		C1405.8,1458.8,1407.9,1461,1410.6,1461z"/>
	<path class="st36" d="M553.7,1480.7c2.7,0,4.8-2.2,4.8-4.9s-2.2-4.9-4.8-4.9s-4.8,2.2-4.8,4.9S551.1,1480.7,553.7,1480.7z"/>
	<path class="st36" d="M573.2,1480.7c2.7,0,4.8-2.2,4.8-4.9s-2.2-4.9-4.8-4.9c-2.7,0-4.8,2.2-4.8,4.9S570.6,1480.7,573.2,1480.7z"/>
	<path class="st36" d="M592.7,1480.7c2.7,0,4.8-2.2,4.8-4.9s-2.2-4.9-4.8-4.9s-4.8,2.2-4.8,4.9S590,1480.7,592.7,1480.7z"/>
	<path class="st36" d="M612.2,1480.7c2.7,0,4.8-2.2,4.8-4.9s-2.2-4.9-4.8-4.9c-2.7,0-4.8,2.2-4.8,4.9S609.5,1480.7,612.2,1480.7z"/>
	<path class="st36" d="M1410.6,1480.7c2.7,0,4.8-2.2,4.8-4.9s-2.2-4.9-4.8-4.9c-2.7,0-4.8,2.2-4.8,4.9S1407.9,1480.7,1410.6,1480.7z
		"/>
	<path class="st36" d="M592.7,1500.5c2.7,0,4.8-2.2,4.8-4.9s-2.2-4.9-4.8-4.9s-4.8,2.2-4.8,4.9S590,1500.5,592.7,1500.5z"/>
	<path class="st36" d="M1508,1500.5c2.7,0,4.8-2.2,4.8-4.9s-2.2-4.9-4.8-4.9c-2.7,0-4.8,2.2-4.8,4.9S1505.3,1500.5,1508,1500.5z"/>
	<path class="st36" d="M1527.5,1500.5c2.7,0,4.8-2.2,4.8-4.9s-2.2-4.9-4.8-4.9c-2.7,0-4.8,2.2-4.8,4.9S1524.8,1500.5,1527.5,1500.5z
		"/>
	<path class="st36" d="M592.7,1520.3c2.7,0,4.8-2.2,4.8-4.9c0-2.7-2.2-4.9-4.8-4.9s-4.8,2.2-4.8,4.9
		C587.9,1518.1,590,1520.3,592.7,1520.3z"/>
	<path class="st36" d="M1508,1520.3c2.7,0,4.8-2.2,4.8-4.9c0-2.7-2.2-4.9-4.8-4.9c-2.7,0-4.8,2.2-4.8,4.9
		C1503.2,1518.1,1505.3,1520.3,1508,1520.3z"/>
	<path class="st36" d="M1527.5,1520.3c2.7,0,4.8-2.2,4.8-4.9c0-2.7-2.2-4.9-4.8-4.9c-2.7,0-4.8,2.2-4.8,4.9
		C1522.6,1518.1,1524.8,1520.3,1527.5,1520.3z"/>
	<path class="st36" d="M514.8,1540c2.7,0,4.8-2.2,4.8-4.9s-2.2-4.9-4.8-4.9c-2.7,0-4.8,2.2-4.8,4.9S512.1,1540,514.8,1540z"/>
	<path class="st36" d="M1254.8,1559.8c2.7,0,4.8-2.2,4.8-4.9c0-2.7-2.2-4.9-4.8-4.9c-2.7,0-4.8,2.2-4.8,4.9
		C1250,1557.6,1252.2,1559.8,1254.8,1559.8z"/>
	<path class="st36" d="M1274.3,1559.8c2.7,0,4.8-2.2,4.8-4.9c0-2.7-2.2-4.9-4.8-4.9c-2.7,0-4.8,2.2-4.8,4.9
		C1269.5,1557.6,1271.6,1559.8,1274.3,1559.8z"/>
	<path class="st36" d="M1293.8,1559.8c2.7,0,4.8-2.2,4.8-4.9c0-2.7-2.2-4.9-4.8-4.9c-2.7,0-4.8,2.2-4.8,4.9
		C1288.9,1557.6,1291.1,1559.8,1293.8,1559.8z"/>
	<path class="st36" d="M1371.7,1559.8c2.7,0,4.8-2.2,4.8-4.9c0-2.7-2.2-4.9-4.8-4.9c-2.7,0-4.8,2.2-4.8,4.9
		C1366.8,1557.6,1369,1559.8,1371.7,1559.8z"/>
	<path class="st36" d="M1391.1,1559.8c2.7,0,4.8-2.2,4.8-4.9c0-2.7-2.2-4.9-4.8-4.9c-2.7,0-4.8,2.2-4.8,4.9
		C1386.3,1557.6,1388.5,1559.8,1391.1,1559.8z"/>
	<path class="st36" d="M1235.3,1579.6c2.7,0,4.8-2.2,4.8-4.9c0-2.7-2.2-4.9-4.8-4.9c-2.7,0-4.8,2.2-4.8,4.9
		C1230.5,1577.4,1232.7,1579.6,1235.3,1579.6z"/>
	<path class="st36" d="M1254.8,1579.6c2.7,0,4.8-2.2,4.8-4.9c0-2.7-2.2-4.9-4.8-4.9c-2.7,0-4.8,2.2-4.8,4.9
		C1250,1577.4,1252.2,1579.6,1254.8,1579.6z"/>
	<path class="st36" d="M1274.3,1579.6c2.7,0,4.8-2.2,4.8-4.9c0-2.7-2.2-4.9-4.8-4.9c-2.7,0-4.8,2.2-4.8,4.9
		C1269.5,1577.4,1271.6,1579.6,1274.3,1579.6z"/>
	<path class="st36" d="M553.7,1599.3c2.7,0,4.8-2.2,4.8-4.9c0-2.7-2.2-4.9-4.8-4.9s-4.8,2.2-4.8,4.9
		C548.9,1597.1,551.1,1599.3,553.7,1599.3z"/>
	<path class="st36" d="M1235.3,1599.3c2.7,0,4.8-2.2,4.8-4.9c0-2.7-2.2-4.9-4.8-4.9c-2.7,0-4.8,2.2-4.8,4.9
		C1230.5,1597.1,1232.7,1599.3,1235.3,1599.3z"/>
	<path class="st36" d="M1254.8,1599.3c2.7,0,4.8-2.2,4.8-4.9c0-2.7-2.2-4.9-4.8-4.9c-2.7,0-4.8,2.2-4.8,4.9
		C1250,1597.1,1252.2,1599.3,1254.8,1599.3z"/>
	<path class="st36" d="M1274.3,1599.3c2.7,0,4.8-2.2,4.8-4.9c0-2.7-2.2-4.9-4.8-4.9c-2.7,0-4.8,2.2-4.8,4.9
		C1269.5,1597.1,1271.6,1599.3,1274.3,1599.3z"/>
	<path class="st36" d="M612.2,1638.8c2.7,0,4.8-2.2,4.8-4.9s-2.2-4.9-4.8-4.9c-2.7,0-4.8,2.2-4.8,4.9S609.5,1638.8,612.2,1638.8z"/>
	<path class="st36" d="M631.6,1638.8c2.7,0,4.8-2.2,4.8-4.9s-2.2-4.9-4.8-4.9c-2.7,0-4.8,2.2-4.8,4.9S629,1638.8,631.6,1638.8z"/>
	<path class="st36" d="M631.6,1658.6c2.7,0,4.8-2.2,4.8-4.9s-2.2-4.9-4.8-4.9c-2.7,0-4.8,2.2-4.8,4.9S629,1658.6,631.6,1658.6z"/>
	<path class="st36" d="M651.1,1658.6c2.7,0,4.8-2.2,4.8-4.9s-2.2-4.9-4.8-4.9c-2.7,0-4.8,2.2-4.8,4.9S648.5,1658.6,651.1,1658.6z"/>
	<path class="st36" d="M1079.5,1698.1c2.7,0,4.8-2.2,4.8-4.9s-2.2-4.9-4.8-4.9c-2.7,0-4.8,2.2-4.8,4.9S1076.9,1698.1,1079.5,1698.1z
		"/>
	<path class="st33" d="M1118.5,1698.1c2.7,0,4.8-2.2,4.8-4.9s-2.2-4.9-4.8-4.9c-2.7,0-4.8,2.2-4.8,4.9S1115.8,1698.1,1118.5,1698.1z
		"/>
	<path class="st33" d="M1138,1698.1c2.7,0,4.8-2.2,4.8-4.9s-2.2-4.9-4.8-4.9c-2.7,0-4.8,2.2-4.8,4.9S1135.3,1698.1,1138,1698.1z"/>
	<path class="st37" d="M1449.6,1342.4c2.7,0,4.8-2.2,4.8-4.9s-2.2-4.9-4.8-4.9s-4.8,2.2-4.8,4.9S1446.9,1342.4,1449.6,1342.4z"/>
	<path class="st37" d="M1469,1342.4c2.7,0,4.8-2.2,4.8-4.9s-2.2-4.9-4.8-4.9c-2.7,0-4.8,2.2-4.8,4.9S1466.4,1342.4,1469,1342.4z"/>
	<path class="st37" d="M1449.6,1362.1c2.7,0,4.8-2.2,4.8-4.9c0-2.7-2.2-4.9-4.8-4.9s-4.8,2.2-4.8,4.9
		C1444.7,1360,1446.9,1362.1,1449.6,1362.1z"/>
	<path class="st37" d="M1469,1362.1c2.7,0,4.8-2.2,4.8-4.9c0-2.7-2.2-4.9-4.8-4.9c-2.7,0-4.8,2.2-4.8,4.9
		C1464.2,1360,1466.4,1362.1,1469,1362.1z"/>
	<path class="st37" d="M475.8,1381.9c2.7,0,4.8-2.2,4.8-4.9c0-2.7-2.2-4.9-4.8-4.9c-2.7,0-4.8,2.2-4.8,4.9
		C471,1379.7,473.2,1381.9,475.8,1381.9z"/>
	<path class="st37" d="M454.1,1381.9c2.7,0,4.8-2.2,4.8-4.9c0-2.7-2.2-4.9-4.8-4.9c-2.7,0-4.8,2.2-4.8,4.9
		C449.3,1379.7,451.4,1381.9,454.1,1381.9z"/>
	<path class="st37" d="M495.3,1381.9c2.7,0,4.8-2.2,4.8-4.9c0-2.7-2.2-4.9-4.8-4.9c-2.7,0-4.8,2.2-4.8,4.9
		C490.5,1379.7,492.7,1381.9,495.3,1381.9z"/>
	<path class="st37" d="M475.6,1362.1c2.7,0,4.8-2.2,4.8-4.9c0-2.7-2.2-4.9-4.8-4.9c-2.7,0-4.8,2.2-4.8,4.9
		C470.8,1360,473,1362.1,475.6,1362.1z"/>
	<path class="st37" d="M514.8,1381.9c2.7,0,4.8-2.2,4.8-4.9c0-2.7-2.2-4.9-4.8-4.9c-2.7,0-4.8,2.2-4.8,4.9
		C510,1379.7,512.1,1381.9,514.8,1381.9z"/>
	<path class="st37" d="M1430.1,1381.9c2.7,0,4.8-2.2,4.8-4.9c0-2.7-2.2-4.9-4.8-4.9c-2.7,0-4.8,2.2-4.8,4.9
		C1425.3,1379.7,1427.4,1381.9,1430.1,1381.9z"/>
	<path class="st37" d="M1449.6,1381.9c2.7,0,4.8-2.2,4.8-4.9c0-2.7-2.2-4.9-4.8-4.9s-4.8,2.2-4.8,4.9
		C1444.7,1379.7,1446.9,1381.9,1449.6,1381.9z"/>
	<path class="st37" d="M1469,1381.9c2.7,0,4.8-2.2,4.8-4.9c0-2.7-2.2-4.9-4.8-4.9c-2.7,0-4.8,2.2-4.8,4.9
		C1464.2,1379.7,1466.4,1381.9,1469,1381.9z"/>
	<path class="st37" d="M475.8,1401.7c2.7,0,4.8-2.2,4.8-4.9c0-2.7-2.2-4.9-4.8-4.9c-2.7,0-4.8,2.2-4.8,4.9
		C471,1399.5,473.2,1401.7,475.8,1401.7z"/>
	<path class="st37" d="M453.2,1401.9c2.7,0,4.8-2.2,4.8-4.9c0-2.7-2.2-4.9-4.8-4.9c-2.7,0-4.8,2.2-4.8,4.9
		C448.4,1399.7,450.5,1401.9,453.2,1401.9z"/>
	<path class="st37" d="M495.3,1401.7c2.7,0,4.8-2.2,4.8-4.9c0-2.7-2.2-4.9-4.8-4.9c-2.7,0-4.8,2.2-4.8,4.9
		C490.5,1399.5,492.7,1401.7,495.3,1401.7z"/>
	<path class="st37" d="M514.8,1401.7c2.7,0,4.8-2.2,4.8-4.9c0-2.7-2.2-4.9-4.8-4.9c-2.7,0-4.8,2.2-4.8,4.9
		C510,1399.5,512.1,1401.7,514.8,1401.7z"/>
	<path class="st37" d="M534.3,1401.7c2.7,0,4.8-2.2,4.8-4.9c0-2.7-2.2-4.9-4.8-4.9s-4.8,2.2-4.8,4.9
		C529.5,1399.5,531.6,1401.7,534.3,1401.7z"/>
	<path class="st37" d="M553.7,1401.7c2.7,0,4.8-2.2,4.8-4.9c0-2.7-2.2-4.9-4.8-4.9s-4.8,2.2-4.8,4.9
		C548.9,1399.5,551.1,1401.7,553.7,1401.7z"/>
	<path class="st37" d="M1410.6,1401.7c2.7,0,4.8-2.2,4.8-4.9c0-2.7-2.2-4.9-4.8-4.9c-2.7,0-4.8,2.2-4.8,4.9
		C1405.8,1399.5,1407.9,1401.7,1410.6,1401.7z"/>
	<path class="st37" d="M1430.1,1401.7c2.7,0,4.8-2.2,4.8-4.9c0-2.7-2.2-4.9-4.8-4.9c-2.7,0-4.8,2.2-4.8,4.9
		C1425.3,1399.5,1427.4,1401.7,1430.1,1401.7z"/>
	<path class="st37" d="M1449.6,1401.7c2.7,0,4.8-2.2,4.8-4.9c0-2.7-2.2-4.9-4.8-4.9s-4.8,2.2-4.8,4.9
		C1444.7,1399.5,1446.9,1401.7,1449.6,1401.7z"/>
	<path class="st37" d="M1469,1401.7c2.7,0,4.8-2.2,4.8-4.9c0-2.7-2.2-4.9-4.8-4.9c-2.7,0-4.8,2.2-4.8,4.9
		C1464.2,1399.5,1466.4,1401.7,1469,1401.7z"/>
	<path class="st37" d="M1488.5,1401.7c2.7,0,4.8-2.2,4.8-4.9c0-2.7-2.2-4.9-4.8-4.9c-2.7,0-4.8,2.2-4.8,4.9
		C1483.7,1399.5,1485.8,1401.7,1488.5,1401.7z"/>
	<path class="st37" d="M1508,1401.7c2.7,0,4.8-2.2,4.8-4.9c0-2.7-2.2-4.9-4.8-4.9c-2.7,0-4.8,2.2-4.8,4.9
		C1503.2,1399.5,1505.3,1401.7,1508,1401.7z"/>
	<path class="st37" d="M475.8,1421.4c2.7,0,4.8-2.2,4.8-4.9c0-2.7-2.2-4.9-4.8-4.9c-2.7,0-4.8,2.2-4.8,4.9
		C471,1419.2,473.2,1421.4,475.8,1421.4z"/>
	<path class="st37" d="M495.3,1421.4c2.7,0,4.8-2.2,4.8-4.9c0-2.7-2.2-4.9-4.8-4.9c-2.7,0-4.8,2.2-4.8,4.9
		C490.5,1419.2,492.7,1421.4,495.3,1421.4z"/>
	<path class="st37" d="M514.8,1421.4c2.7,0,4.8-2.2,4.8-4.9c0-2.7-2.2-4.9-4.8-4.9c-2.7,0-4.8,2.2-4.8,4.9
		C510,1419.2,512.1,1421.4,514.8,1421.4z"/>
	<path class="st37" d="M534.3,1421.4c2.7,0,4.8-2.2,4.8-4.9c0-2.7-2.2-4.9-4.8-4.9s-4.8,2.2-4.8,4.9
		C529.5,1419.2,531.6,1421.4,534.3,1421.4z"/>
	<path class="st37" d="M553.7,1421.4c2.7,0,4.8-2.2,4.8-4.9c0-2.7-2.2-4.9-4.8-4.9s-4.8,2.2-4.8,4.9
		C548.9,1419.2,551.1,1421.4,553.7,1421.4z"/>
	<path class="st37" d="M573.2,1421.4c2.7,0,4.8-2.2,4.8-4.9c0-2.7-2.2-4.9-4.8-4.9c-2.7,0-4.8,2.2-4.8,4.9
		C568.4,1419.2,570.6,1421.4,573.2,1421.4z"/>
	<path class="st37" d="M592.7,1421.4c2.7,0,4.8-2.2,4.8-4.9c0-2.7-2.2-4.9-4.8-4.9s-4.8,2.2-4.8,4.9
		C587.9,1419.2,590,1421.4,592.7,1421.4z"/>
	<path class="st37" d="M612.2,1421.4c2.7,0,4.8-2.2,4.8-4.9c0-2.7-2.2-4.9-4.8-4.9c-2.7,0-4.8,2.2-4.8,4.9
		C607.3,1419.2,609.5,1421.4,612.2,1421.4z"/>
	<path class="st37" d="M631.6,1421.4c2.7,0,4.8-2.2,4.8-4.9c0-2.7-2.2-4.9-4.8-4.9c-2.7,0-4.8,2.2-4.8,4.9
		C626.8,1419.2,629,1421.4,631.6,1421.4z"/>
	<path class="st37" d="M612.3,1401.9c2.7,0,4.8-2.2,4.8-4.9s-2.2-4.9-4.8-4.9c-2.7,0-4.8,2.2-4.8,4.9S609.7,1401.9,612.3,1401.9z"/>
	<path class="st37" d="M1449.6,1421.4c2.7,0,4.8-2.2,4.8-4.9c0-2.7-2.2-4.9-4.8-4.9s-4.8,2.2-4.8,4.9
		C1444.7,1419.2,1446.9,1421.4,1449.6,1421.4z"/>
	<path class="st37" d="M1469,1421.4c2.7,0,4.8-2.2,4.8-4.9c0-2.7-2.2-4.9-4.8-4.9c-2.7,0-4.8,2.2-4.8,4.9
		C1464.2,1419.2,1466.4,1421.4,1469,1421.4z"/>
	<path class="st37" d="M1488.5,1421.4c2.7,0,4.8-2.2,4.8-4.9c0-2.7-2.2-4.9-4.8-4.9c-2.7,0-4.8,2.2-4.8,4.9
		C1483.7,1419.2,1485.8,1421.4,1488.5,1421.4z"/>
	<path class="st37" d="M495.3,1441.2c2.7,0,4.8-2.2,4.8-4.9s-2.2-4.9-4.8-4.9c-2.7,0-4.8,2.2-4.8,4.9S492.7,1441.2,495.3,1441.2z"/>
	<path class="st37" d="M553.7,1441.2c2.7,0,4.8-2.2,4.8-4.9s-2.2-4.9-4.8-4.9s-4.8,2.2-4.8,4.9S551.1,1441.2,553.7,1441.2z"/>
	<ellipse class="st37" cx="592.7" cy="1436.3" rx="4.8" ry="4.9"/>
	<path class="st37" d="M612.2,1441.2c2.7,0,4.8-2.2,4.8-4.9s-2.2-4.9-4.8-4.9c-2.7,0-4.8,2.2-4.8,4.9S609.5,1441.2,612.2,1441.2z"/>
	<path class="st37" d="M631.6,1441.2c2.7,0,4.8-2.2,4.8-4.9s-2.2-4.9-4.8-4.9c-2.7,0-4.8,2.2-4.8,4.9S629,1441.2,631.6,1441.2z"/>
	<path class="st37" d="M651.1,1441.2c2.7,0,4.8-2.2,4.8-4.9s-2.2-4.9-4.8-4.9c-2.7,0-4.8,2.2-4.8,4.9S648.5,1441.2,651.1,1441.2z"/>
	<path class="st37" d="M1391.1,1441.2c2.7,0,4.8-2.2,4.8-4.9s-2.2-4.9-4.8-4.9c-2.7,0-4.8,2.2-4.8,4.9S1388.5,1441.2,1391.1,1441.2z
		"/>
	<path class="st37" d="M1410.6,1441.2c2.7,0,4.8-2.2,4.8-4.9s-2.2-4.9-4.8-4.9c-2.7,0-4.8,2.2-4.8,4.9S1407.9,1441.2,1410.6,1441.2z
		"/>
	<path class="st37" d="M1430.1,1441.2c2.7,0,4.8-2.2,4.8-4.9s-2.2-4.9-4.8-4.9c-2.7,0-4.8,2.2-4.8,4.9S1427.4,1441.2,1430.1,1441.2z
		"/>
	<path class="st37" d="M1449.6,1441.2c2.7,0,4.8-2.2,4.8-4.9s-2.2-4.9-4.8-4.9s-4.8,2.2-4.8,4.9S1446.9,1441.2,1449.6,1441.2z"/>
	<path class="st37" d="M1469,1441.2c2.7,0,4.8-2.2,4.8-4.9s-2.2-4.9-4.8-4.9c-2.7,0-4.8,2.2-4.8,4.9S1466.4,1441.2,1469,1441.2z"/>
	<path class="st37" d="M1488.5,1441.2c2.7,0,4.8-2.2,4.8-4.9s-2.2-4.9-4.8-4.9c-2.7,0-4.8,2.2-4.8,4.9S1485.8,1441.2,1488.5,1441.2z
		"/>
	<ellipse class="st37" cx="1508" cy="1436.3" rx="4.8" ry="4.9"/>
	<path class="st37" d="M1546.9,1441.2c2.7,0,4.8-2.2,4.8-4.9s-2.2-4.9-4.8-4.9c-2.7,0-4.8,2.2-4.8,4.9S1544.3,1441.2,1546.9,1441.2z
		"/>
	<path class="st37" d="M495.3,1461c2.7,0,4.8-2.2,4.8-4.9c0-2.7-2.2-4.9-4.8-4.9c-2.7,0-4.8,2.2-4.8,4.9
		C490.5,1458.8,492.7,1461,495.3,1461z"/>
	<path class="st37" d="M631.6,1461c2.7,0,4.8-2.2,4.8-4.9c0-2.7-2.2-4.9-4.8-4.9c-2.7,0-4.8,2.2-4.8,4.9
		C626.8,1458.8,629,1461,631.6,1461z"/>
	<path class="st37" d="M651.1,1461c2.7,0,4.8-2.2,4.8-4.9c0-2.7-2.2-4.9-4.8-4.9c-2.7,0-4.8,2.2-4.8,4.9
		C646.3,1458.8,648.5,1461,651.1,1461z"/>
	<path class="st37" d="M670.6,1461c2.7,0,4.8-2.2,4.8-4.9c0-2.7-2.2-4.9-4.8-4.9c-2.7,0-4.8,2.2-4.8,4.9
		C665.8,1458.8,667.9,1461,670.6,1461z"/>
	<path class="st37" d="M1371.7,1461c2.7,0,4.8-2.2,4.8-4.9c0-2.7-2.2-4.9-4.8-4.9c-2.7,0-4.8,2.2-4.8,4.9
		C1366.8,1458.8,1369,1461,1371.7,1461z"/>
	<path class="st37" d="M1391.1,1461c2.7,0,4.8-2.2,4.8-4.9c0-2.7-2.2-4.9-4.8-4.9c-2.7,0-4.8,2.2-4.8,4.9
		C1386.3,1458.8,1388.5,1461,1391.1,1461z"/>
	<path class="st37" d="M1430.1,1461c2.7,0,4.8-2.2,4.8-4.9c0-2.7-2.2-4.9-4.8-4.9c-2.7,0-4.8,2.2-4.8,4.9
		C1425.3,1458.8,1427.4,1461,1430.1,1461z"/>
	<path class="st37" d="M1449.6,1461c2.7,0,4.8-2.2,4.8-4.9c0-2.7-2.2-4.9-4.8-4.9s-4.8,2.2-4.8,4.9
		C1444.7,1458.8,1446.9,1461,1449.6,1461z"/>
	<path class="st37" d="M1469,1461c2.7,0,4.8-2.2,4.8-4.9c0-2.7-2.2-4.9-4.8-4.9c-2.7,0-4.8,2.2-4.8,4.9
		C1464.2,1458.8,1466.4,1461,1469,1461z"/>
	<path class="st37" d="M1488.5,1461c2.7,0,4.8-2.2,4.8-4.9c0-2.7-2.2-4.9-4.8-4.9c-2.7,0-4.8,2.2-4.8,4.9
		C1483.7,1458.8,1485.8,1461,1488.5,1461z"/>
	<path class="st37" d="M1508,1461c2.7,0,4.8-2.2,4.8-4.9c0-2.7-2.2-4.9-4.8-4.9c-2.7,0-4.8,2.2-4.8,4.9
		C1503.2,1458.8,1505.3,1461,1508,1461z"/>
	<path class="st37" d="M1527.5,1461c2.7,0,4.8-2.2,4.8-4.9c0-2.7-2.2-4.9-4.8-4.9c-2.7,0-4.8,2.2-4.8,4.9
		C1522.6,1458.8,1524.8,1461,1527.5,1461z"/>
	<path class="st37" d="M1546.9,1461c2.7,0,4.8-2.2,4.8-4.9c0-2.7-2.2-4.9-4.8-4.9c-2.7,0-4.8,2.2-4.8,4.9
		C1542.1,1458.8,1544.3,1461,1546.9,1461z"/>
	<path class="st37" d="M1566.4,1461c2.7,0,4.8-2.2,4.8-4.9c0-2.7-2.2-4.9-4.8-4.9c-2.7,0-4.8,2.2-4.8,4.9
		C1561.6,1458.8,1563.7,1461,1566.4,1461z"/>
	<path class="st37" d="M1585.9,1461c2.7,0,4.8-2.2,4.8-4.9c0-2.7-2.2-4.9-4.8-4.9c-2.7,0-4.8,2.2-4.8,4.9
		C1581.1,1458.8,1583.2,1461,1585.9,1461z"/>
	<path class="st37" d="M631.6,1480.7c2.7,0,4.8-2.2,4.8-4.9s-2.2-4.9-4.8-4.9c-2.7,0-4.8,2.2-4.8,4.9S629,1480.7,631.6,1480.7z"/>
	<path class="st37" d="M651.1,1480.7c2.7,0,4.8-2.2,4.8-4.9s-2.2-4.9-4.8-4.9c-2.7,0-4.8,2.2-4.8,4.9S648.5,1480.7,651.1,1480.7z"/>
	<path class="st37" d="M670.6,1480.7c2.7,0,4.8-2.2,4.8-4.9s-2.2-4.9-4.8-4.9c-2.7,0-4.8,2.2-4.8,4.9S667.9,1480.7,670.6,1480.7z"/>
	<path class="st37" d="M1371.7,1480.7c2.7,0,4.8-2.2,4.8-4.9s-2.2-4.9-4.8-4.9c-2.7,0-4.8,2.2-4.8,4.9S1369,1480.7,1371.7,1480.7z"
		/>
	<path class="st37" d="M1391.1,1480.7c2.7,0,4.8-2.2,4.8-4.9s-2.2-4.9-4.8-4.9c-2.7,0-4.8,2.2-4.8,4.9S1388.5,1480.7,1391.1,1480.7z
		"/>
	<path class="st37" d="M1430.1,1480.7c2.7,0,4.8-2.2,4.8-4.9s-2.2-4.9-4.8-4.9c-2.7,0-4.8,2.2-4.8,4.9S1427.4,1480.7,1430.1,1480.7z
		"/>
	<path class="st37" d="M1449.6,1480.7c2.7,0,4.8-2.2,4.8-4.9s-2.2-4.9-4.8-4.9s-4.8,2.2-4.8,4.9S1446.9,1480.7,1449.6,1480.7z"/>
	<path class="st37" d="M1469,1480.7c2.7,0,4.8-2.2,4.8-4.9s-2.2-4.9-4.8-4.9c-2.7,0-4.8,2.2-4.8,4.9S1466.4,1480.7,1469,1480.7z"/>
	<path class="st37" d="M1488.5,1480.7c2.7,0,4.8-2.2,4.8-4.9s-2.2-4.9-4.8-4.9c-2.7,0-4.8,2.2-4.8,4.9S1485.8,1480.7,1488.5,1480.7z
		"/>
	<path class="st37" d="M1508,1480.7c2.7,0,4.8-2.2,4.8-4.9s-2.2-4.9-4.8-4.9c-2.7,0-4.8,2.2-4.8,4.9S1505.3,1480.7,1508,1480.7z"/>
	<path class="st37" d="M1527.5,1480.7c2.7,0,4.8-2.2,4.8-4.9s-2.2-4.9-4.8-4.9c-2.7,0-4.8,2.2-4.8,4.9S1524.8,1480.7,1527.5,1480.7z
		"/>
	<path class="st37" d="M1546.9,1480.7c2.7,0,4.8-2.2,4.8-4.9s-2.2-4.9-4.8-4.9c-2.7,0-4.8,2.2-4.8,4.9S1544.3,1480.7,1546.9,1480.7z
		"/>
	<path class="st37" d="M1566.4,1480.7c2.7,0,4.8-2.2,4.8-4.9s-2.2-4.9-4.8-4.9c-2.7,0-4.8,2.2-4.8,4.9S1563.7,1480.7,1566.4,1480.7z
		"/>
	<path class="st37" d="M1585.9,1480.7c2.7,0,4.8-2.2,4.8-4.9s-2.2-4.9-4.8-4.9c-2.7,0-4.8,2.2-4.8,4.9S1583.2,1480.7,1585.9,1480.7z
		"/>
	<path class="st37" d="M670.6,1500.5c2.7,0,4.8-2.2,4.8-4.9s-2.2-4.9-4.8-4.9c-2.7,0-4.8,2.2-4.8,4.9S667.9,1500.5,670.6,1500.5z"/>
	<path class="st37" d="M690.1,1500.5c2.7,0,4.8-2.2,4.8-4.9s-2.2-4.9-4.8-4.9c-2.7,0-4.8,2.2-4.8,4.9S687.4,1500.5,690.1,1500.5z"/>
	<path class="st37" d="M1293.8,1500.5c2.7,0,4.8-2.2,4.8-4.9s-2.2-4.9-4.8-4.9c-2.7,0-4.8,2.2-4.8,4.9S1291.1,1500.5,1293.8,1500.5z
		"/>
	<path class="st37" d="M1313.2,1500.5c2.7,0,4.8-2.2,4.8-4.9s-2.2-4.9-4.8-4.9c-2.7,0-4.8,2.2-4.8,4.9S1310.6,1500.5,1313.2,1500.5z
		"/>
	<path class="st37" d="M1293.8,1480.7c2.7,0,4.8-2.2,4.8-4.9s-2.2-4.9-4.8-4.9c-2.7,0-4.8,2.2-4.8,4.9S1291.1,1480.7,1293.8,1480.7z
		"/>
	<path class="st37" d="M1371.7,1500.5c2.7,0,4.8-2.2,4.8-4.9s-2.2-4.9-4.8-4.9c-2.7,0-4.8,2.2-4.8,4.9S1369,1500.5,1371.7,1500.5z"
		/>
	<path class="st37" d="M1391.1,1500.5c2.7,0,4.8-2.2,4.8-4.9s-2.2-4.9-4.8-4.9c-2.7,0-4.8,2.2-4.8,4.9S1388.5,1500.5,1391.1,1500.5z
		"/>
	<path class="st37" d="M1410.6,1500.5c2.7,0,4.8-2.2,4.8-4.9s-2.2-4.9-4.8-4.9c-2.7,0-4.8,2.2-4.8,4.9S1407.9,1500.5,1410.6,1500.5z
		"/>
	<path class="st37" d="M1430.1,1500.5c2.7,0,4.8-2.2,4.8-4.9s-2.2-4.9-4.8-4.9c-2.7,0-4.8,2.2-4.8,4.9S1427.4,1500.5,1430.1,1500.5z
		"/>
	<path class="st37" d="M1449.6,1500.5c2.7,0,4.8-2.2,4.8-4.9s-2.2-4.9-4.8-4.9s-4.8,2.2-4.8,4.9S1446.9,1500.5,1449.6,1500.5z"/>
	<path class="st37" d="M1469,1500.5c2.7,0,4.8-2.2,4.8-4.9s-2.2-4.9-4.8-4.9c-2.7,0-4.8,2.2-4.8,4.9S1466.4,1500.5,1469,1500.5z"/>
	<path class="st37" d="M1488.5,1500.5c2.7,0,4.8-2.2,4.8-4.9s-2.2-4.9-4.8-4.9c-2.7,0-4.8,2.2-4.8,4.9S1485.8,1500.5,1488.5,1500.5z
		"/>
	<path class="st37" d="M1546.9,1500.5c2.7,0,4.8-2.2,4.8-4.9s-2.2-4.9-4.8-4.9c-2.7,0-4.8,2.2-4.8,4.9S1544.3,1500.5,1546.9,1500.5z
		"/>
	<path class="st37" d="M670.6,1520.3c2.7,0,4.8-2.2,4.8-4.9c0-2.7-2.2-4.9-4.8-4.9c-2.7,0-4.8,2.2-4.8,4.9
		C665.8,1518.1,667.9,1520.3,670.6,1520.3z"/>
	<path class="st37" d="M1274.3,1520.3c2.7,0,4.8-2.2,4.8-4.9c0-2.7-2.2-4.9-4.8-4.9c-2.7,0-4.8,2.2-4.8,4.9
		C1269.5,1518.1,1271.6,1520.3,1274.3,1520.3z"/>
	<path class="st37" d="M1293.8,1520.3c2.7,0,4.8-2.2,4.8-4.9c0-2.7-2.2-4.9-4.8-4.9c-2.7,0-4.8,2.2-4.8,4.9
		C1288.9,1518.1,1291.1,1520.3,1293.8,1520.3z"/>
	<path class="st37" d="M1313.2,1520.3c2.7,0,4.8-2.2,4.8-4.9c0-2.7-2.2-4.9-4.8-4.9c-2.7,0-4.8,2.2-4.8,4.9
		C1308.4,1518.1,1310.6,1520.3,1313.2,1520.3z"/>
	<path class="st37" d="M1332.7,1520.3c2.7,0,4.8-2.2,4.8-4.9c0-2.7-2.2-4.9-4.8-4.9c-2.7,0-4.8,2.2-4.8,4.9
		C1327.9,1518.1,1330.1,1520.3,1332.7,1520.3z"/>
	<path class="st37" d="M1410.6,1520.3c2.7,0,4.8-2.2,4.8-4.9c0-2.7-2.2-4.9-4.8-4.9c-2.7,0-4.8,2.2-4.8,4.9
		C1405.8,1518.1,1407.9,1520.3,1410.6,1520.3z"/>
	<path class="st37" d="M1430.1,1520.3c2.7,0,4.8-2.2,4.8-4.9c0-2.7-2.2-4.9-4.8-4.9c-2.7,0-4.8,2.2-4.8,4.9
		C1425.3,1518.1,1427.4,1520.3,1430.1,1520.3z"/>
	<path class="st37" d="M1449.6,1520.3c2.7,0,4.8-2.2,4.8-4.9c0-2.7-2.2-4.9-4.8-4.9s-4.8,2.2-4.8,4.9
		C1444.7,1518.1,1446.9,1520.3,1449.6,1520.3z"/>
	<path class="st37" d="M1469,1520.3c2.7,0,4.8-2.2,4.8-4.9c0-2.7-2.2-4.9-4.8-4.9c-2.7,0-4.8,2.2-4.8,4.9
		C1464.2,1518.1,1466.4,1520.3,1469,1520.3z"/>
	<path class="st37" d="M1488.5,1520.3c2.7,0,4.8-2.2,4.8-4.9c0-2.7-2.2-4.9-4.8-4.9c-2.7,0-4.8,2.2-4.8,4.9
		C1483.7,1518.1,1485.8,1520.3,1488.5,1520.3z"/>
	<path class="st37" d="M1546.9,1520.3c2.7,0,4.8-2.2,4.8-4.9c0-2.7-2.2-4.9-4.8-4.9c-2.7,0-4.8,2.2-4.8,4.9
		C1542.1,1518.1,1544.3,1520.3,1546.9,1520.3z"/>
	<path class="st37" d="M1274.3,1540c2.7,0,4.8-2.2,4.8-4.9s-2.2-4.9-4.8-4.9c-2.7,0-4.8,2.2-4.8,4.9S1271.6,1540,1274.3,1540z"/>
	<path class="st37" d="M1273.4,1500.7c2.7,0,4.8-2.2,4.8-4.9s-2.2-4.9-4.8-4.9c-2.7,0-4.8,2.2-4.8,4.9S1270.7,1500.7,1273.4,1500.7z
		"/>
	<path class="st37" d="M1293.8,1540c2.7,0,4.8-2.2,4.8-4.9s-2.2-4.9-4.8-4.9c-2.7,0-4.8,2.2-4.8,4.9S1291.1,1540,1293.8,1540z"/>
	<path class="st37" d="M1313.2,1540c2.7,0,4.8-2.2,4.8-4.9s-2.2-4.9-4.8-4.9c-2.7,0-4.8,2.2-4.8,4.9S1310.6,1540,1313.2,1540z"/>
	<path class="st37" d="M1332.7,1540c2.7,0,4.8-2.2,4.8-4.9s-2.2-4.9-4.8-4.9c-2.7,0-4.8,2.2-4.8,4.9S1330.1,1540,1332.7,1540z"/>
	<path class="st37" d="M1352.2,1540c2.7,0,4.8-2.2,4.8-4.9s-2.2-4.9-4.8-4.9c-2.7,0-4.8,2.2-4.8,4.9S1349.5,1540,1352.2,1540z"/>
	<path class="st37" d="M1371.7,1540c2.7,0,4.8-2.2,4.8-4.9s-2.2-4.9-4.8-4.9c-2.7,0-4.8,2.2-4.8,4.9S1369,1540,1371.7,1540z"/>
	<path class="st37" d="M534.3,1559.8c2.7,0,4.8-2.2,4.8-4.9c0-2.7-2.2-4.9-4.8-4.9s-4.8,2.2-4.8,4.9
		C529.5,1557.6,531.6,1559.8,534.3,1559.8z"/>
	<path class="st37" d="M612.2,1559.8c2.7,0,4.8-2.2,4.8-4.9c0-2.7-2.2-4.9-4.8-4.9c-2.7,0-4.8,2.2-4.8,4.9
		C607.3,1557.6,609.5,1559.8,612.2,1559.8z"/>
	<path class="st37" d="M631.6,1559.8c2.7,0,4.8-2.2,4.8-4.9c0-2.7-2.2-4.9-4.8-4.9c-2.7,0-4.8,2.2-4.8,4.9
		C626.8,1557.6,629,1559.8,631.6,1559.8z"/>
	<path class="st37" d="M651.1,1559.8c2.7,0,4.8-2.2,4.8-4.9c0-2.7-2.2-4.9-4.8-4.9c-2.7,0-4.8,2.2-4.8,4.9
		C646.3,1557.6,648.5,1559.8,651.1,1559.8z"/>
	<path class="st37" d="M670.6,1559.8c2.7,0,4.8-2.2,4.8-4.9c0-2.7-2.2-4.9-4.8-4.9c-2.7,0-4.8,2.2-4.8,4.9
		C665.8,1557.6,667.9,1559.8,670.6,1559.8z"/>
	<path class="st37" d="M690.1,1559.8c2.7,0,4.8-2.2,4.8-4.9c0-2.7-2.2-4.9-4.8-4.9c-2.7,0-4.8,2.2-4.8,4.9
		C685.2,1557.6,687.4,1559.8,690.1,1559.8z"/>
	<path class="st37" d="M1313.2,1559.8c2.7,0,4.8-2.2,4.8-4.9c0-2.7-2.2-4.9-4.8-4.9c-2.7,0-4.8,2.2-4.8,4.9
		C1308.4,1557.6,1310.6,1559.8,1313.2,1559.8z"/>
	<path class="st37" d="M1332.7,1559.8c2.7,0,4.8-2.2,4.8-4.9c0-2.7-2.2-4.9-4.8-4.9c-2.7,0-4.8,2.2-4.8,4.9
		C1327.9,1557.6,1330.1,1559.8,1332.7,1559.8z"/>
	<path class="st37" d="M1352.2,1559.8c2.7,0,4.8-2.2,4.8-4.9c0-2.7-2.2-4.9-4.8-4.9c-2.7,0-4.8,2.2-4.8,4.9
		C1347.4,1557.6,1349.5,1559.8,1352.2,1559.8z"/>
	<path class="st37" d="M631.6,1579.6c2.7,0,4.8-2.2,4.8-4.9c0-2.7-2.2-4.9-4.8-4.9c-2.7,0-4.8,2.2-4.8,4.9
		C626.8,1577.4,629,1579.6,631.6,1579.6z"/>
	<path class="st37" d="M651.1,1579.6c2.7,0,4.8-2.2,4.8-4.9c0-2.7-2.2-4.9-4.8-4.9c-2.7,0-4.8,2.2-4.8,4.9
		C646.3,1577.4,648.5,1579.6,651.1,1579.6z"/>
	<path class="st37" d="M670.6,1579.6c2.7,0,4.8-2.2,4.8-4.9c0-2.7-2.2-4.9-4.8-4.9c-2.7,0-4.8,2.2-4.8,4.9
		C665.8,1577.4,667.9,1579.6,670.6,1579.6z"/>
	<path class="st37" d="M690.1,1579.6c2.7,0,4.8-2.2,4.8-4.9c0-2.7-2.2-4.9-4.8-4.9c-2.7,0-4.8,2.2-4.8,4.9
		C685.2,1577.4,687.4,1579.6,690.1,1579.6z"/>
	<path class="st37" d="M1293.8,1579.6c2.7,0,4.8-2.2,4.8-4.9c0-2.7-2.2-4.9-4.8-4.9c-2.7,0-4.8,2.2-4.8,4.9
		C1288.9,1577.4,1291.1,1579.6,1293.8,1579.6z"/>
	<path class="st37" d="M1313.2,1579.6c2.7,0,4.8-2.2,4.8-4.9c0-2.7-2.2-4.9-4.8-4.9c-2.7,0-4.8,2.2-4.8,4.9
		C1308.4,1577.4,1310.6,1579.6,1313.2,1579.6z"/>
	<path class="st37" d="M1332.7,1579.6c2.7,0,4.8-2.2,4.8-4.9c0-2.7-2.2-4.9-4.8-4.9c-2.7,0-4.8,2.2-4.8,4.9
		C1327.9,1577.4,1330.1,1579.6,1332.7,1579.6z"/>
	<path class="st37" d="M1352.2,1579.6c2.7,0,4.8-2.2,4.8-4.9c0-2.7-2.2-4.9-4.8-4.9c-2.7,0-4.8,2.2-4.8,4.9
		C1347.4,1577.4,1349.5,1579.6,1352.2,1579.6z"/>
	<path class="st37" d="M1371.7,1579.6c2.7,0,4.8-2.2,4.8-4.9c0-2.7-2.2-4.9-4.8-4.9c-2.7,0-4.8,2.2-4.8,4.9
		C1366.8,1577.4,1369,1579.6,1371.7,1579.6z"/>
	<path class="st37" d="M1391.1,1579.6c2.7,0,4.8-2.2,4.8-4.9c0-2.7-2.2-4.9-4.8-4.9c-2.7,0-4.8,2.2-4.8,4.9
		C1386.3,1577.4,1388.5,1579.6,1391.1,1579.6z"/>
	<path class="st37" d="M592.7,1599.3c2.7,0,4.8-2.2,4.8-4.9c0-2.7-2.2-4.9-4.8-4.9s-4.8,2.2-4.8,4.9
		C587.9,1597.1,590,1599.3,592.7,1599.3z"/>
	<path class="st37" d="M612.2,1599.3c2.7,0,4.8-2.2,4.8-4.9c0-2.7-2.2-4.9-4.8-4.9c-2.7,0-4.8,2.2-4.8,4.9
		C607.3,1597.1,609.5,1599.3,612.2,1599.3z"/>
	<path class="st37" d="M631.6,1599.3c2.7,0,4.8-2.2,4.8-4.9c0-2.7-2.2-4.9-4.8-4.9c-2.7,0-4.8,2.2-4.8,4.9
		C626.8,1597.1,629,1599.3,631.6,1599.3z"/>
	<path class="st37" d="M651.1,1599.3c2.7,0,4.8-2.2,4.8-4.9c0-2.7-2.2-4.9-4.8-4.9c-2.7,0-4.8,2.2-4.8,4.9
		C646.3,1597.1,648.5,1599.3,651.1,1599.3z"/>
	<path class="st37" d="M670.6,1599.3c2.7,0,4.8-2.2,4.8-4.9c0-2.7-2.2-4.9-4.8-4.9c-2.7,0-4.8,2.2-4.8,4.9
		C665.8,1597.1,667.9,1599.3,670.6,1599.3z"/>
	<path class="st37" d="M690.1,1599.3c2.7,0,4.8-2.2,4.8-4.9c0-2.7-2.2-4.9-4.8-4.9c-2.7,0-4.8,2.2-4.8,4.9
		C685.2,1597.1,687.4,1599.3,690.1,1599.3z"/>
	<path class="st37" d="M709.5,1599.3c2.7,0,4.8-2.2,4.8-4.9c0-2.7-2.2-4.9-4.8-4.9c-2.7,0-4.8,2.2-4.8,4.9
		C704.7,1597.1,706.9,1599.3,709.5,1599.3z"/>
	<path class="st37" d="M1176.9,1599.3c2.7,0,4.8-2.2,4.8-4.9c0-2.7-2.2-4.9-4.8-4.9c-2.7,0-4.8,2.2-4.8,4.9
		C1172.1,1597.1,1174.3,1599.3,1176.9,1599.3z"/>
	<path class="st37" d="M1196.4,1599.3c2.7,0,4.8-2.2,4.8-4.9c0-2.7-2.2-4.9-4.8-4.9c-2.7,0-4.8,2.2-4.8,4.9
		C1191.6,1597.1,1193.7,1599.3,1196.4,1599.3z"/>
	<path class="st37" d="M1215.9,1599.3c2.7,0,4.8-2.2,4.8-4.9c0-2.7-2.2-4.9-4.8-4.9c-2.7,0-4.8,2.2-4.8,4.9
		C1211,1597.1,1213.2,1599.3,1215.9,1599.3z"/>
	<path class="st37" d="M1293.8,1599.3c2.7,0,4.8-2.2,4.8-4.9c0-2.7-2.2-4.9-4.8-4.9c-2.7,0-4.8,2.2-4.8,4.9
		C1288.9,1597.1,1291.1,1599.3,1293.8,1599.3z"/>
	<path class="st37" d="M1313.2,1599.3c2.7,0,4.8-2.2,4.8-4.9c0-2.7-2.2-4.9-4.8-4.9c-2.7,0-4.8,2.2-4.8,4.9
		C1308.4,1597.1,1310.6,1599.3,1313.2,1599.3z"/>
	<path class="st37" d="M1332.7,1599.3c2.7,0,4.8-2.2,4.8-4.9c0-2.7-2.2-4.9-4.8-4.9c-2.7,0-4.8,2.2-4.8,4.9
		C1327.9,1597.1,1330.1,1599.3,1332.7,1599.3z"/>
	<path class="st37" d="M1352.2,1599.3c2.7,0,4.8-2.2,4.8-4.9c0-2.7-2.2-4.9-4.8-4.9c-2.7,0-4.8,2.2-4.8,4.9
		C1347.4,1597.1,1349.5,1599.3,1352.2,1599.3z"/>
	<path class="st37" d="M1371.7,1599.3c2.7,0,4.8-2.2,4.8-4.9c0-2.7-2.2-4.9-4.8-4.9c-2.7,0-4.8,2.2-4.8,4.9
		C1366.8,1597.1,1369,1599.3,1371.7,1599.3z"/>
	<path class="st37" d="M612.2,1619.1c2.7,0,4.8-2.2,4.8-4.9c0-2.7-2.2-4.9-4.8-4.9c-2.7,0-4.8,2.2-4.8,4.9
		C607.3,1616.9,609.5,1619.1,612.2,1619.1z"/>
	<path class="st37" d="M690.1,1619.1c2.7,0,4.8-2.2,4.8-4.9c0-2.7-2.2-4.9-4.8-4.9c-2.7,0-4.8,2.2-4.8,4.9
		C685.2,1616.9,687.4,1619.1,690.1,1619.1z"/>
	<path class="st37" d="M709.5,1619.1c2.7,0,4.8-2.2,4.8-4.9c0-2.7-2.2-4.9-4.8-4.9c-2.7,0-4.8,2.2-4.8,4.9
		C704.7,1616.9,706.9,1619.1,709.5,1619.1z"/>
	<path class="st37" d="M1138,1619.1c2.7,0,4.8-2.2,4.8-4.9c0-2.7-2.2-4.9-4.8-4.9c-2.7,0-4.8,2.2-4.8,4.9
		C1133.1,1616.9,1135.3,1619.1,1138,1619.1z"/>
	<path class="st37" d="M1176.9,1619.1c2.7,0,4.8-2.2,4.8-4.9c0-2.7-2.2-4.9-4.8-4.9c-2.7,0-4.8,2.2-4.8,4.9
		C1172.1,1616.9,1174.3,1619.1,1176.9,1619.1z"/>
	<path class="st37" d="M1196.4,1619.1c2.7,0,4.8-2.2,4.8-4.9c0-2.7-2.2-4.9-4.8-4.9c-2.7,0-4.8,2.2-4.8,4.9
		C1191.6,1616.9,1193.7,1619.1,1196.4,1619.1z"/>
	<path class="st37" d="M1215.9,1619.1c2.7,0,4.8-2.2,4.8-4.9c0-2.7-2.2-4.9-4.8-4.9c-2.7,0-4.8,2.2-4.8,4.9
		C1211,1616.9,1213.2,1619.1,1215.9,1619.1z"/>
	<path class="st37" d="M1235.3,1619.1c2.7,0,4.8-2.2,4.8-4.9c0-2.7-2.2-4.9-4.8-4.9c-2.7,0-4.8,2.2-4.8,4.9
		C1230.5,1616.9,1232.7,1619.1,1235.3,1619.1z"/>
	<path class="st37" d="M1254.8,1619.1c2.7,0,4.8-2.2,4.8-4.9c0-2.7-2.2-4.9-4.8-4.9c-2.7,0-4.8,2.2-4.8,4.9
		C1250,1616.9,1252.2,1619.1,1254.8,1619.1z"/>
	<path class="st37" d="M1274.3,1619.1c2.7,0,4.8-2.2,4.8-4.9c0-2.7-2.2-4.9-4.8-4.9c-2.7,0-4.8,2.2-4.8,4.9
		C1269.5,1616.9,1271.6,1619.1,1274.3,1619.1z"/>
	<path class="st37" d="M1293.8,1619.1c2.7,0,4.8-2.2,4.8-4.9c0-2.7-2.2-4.9-4.8-4.9c-2.7,0-4.8,2.2-4.8,4.9
		C1288.9,1616.9,1291.1,1619.1,1293.8,1619.1z"/>
	<path class="st37" d="M1313.2,1619.1c2.7,0,4.8-2.2,4.8-4.9c0-2.7-2.2-4.9-4.8-4.9c-2.7,0-4.8,2.2-4.8,4.9
		C1308.4,1616.9,1310.6,1619.1,1313.2,1619.1z"/>
	<path class="st37" d="M1332.7,1619.1c2.7,0,4.8-2.2,4.8-4.9c0-2.7-2.2-4.9-4.8-4.9c-2.7,0-4.8,2.2-4.8,4.9
		C1327.9,1616.9,1330.1,1619.1,1332.7,1619.1z"/>
	<path class="st37" d="M1352.2,1619.1c2.7,0,4.8-2.2,4.8-4.9c0-2.7-2.2-4.9-4.8-4.9c-2.7,0-4.8,2.2-4.8,4.9
		C1347.4,1616.9,1349.5,1619.1,1352.2,1619.1z"/>
	<path class="st37" d="M1371.7,1619.1c2.7,0,4.8-2.2,4.8-4.9c0-2.7-2.2-4.9-4.8-4.9c-2.7,0-4.8,2.2-4.8,4.9
		C1366.8,1616.9,1369,1619.1,1371.7,1619.1z"/>
	<path class="st37" d="M709.5,1638.8c2.7,0,4.8-2.2,4.8-4.9s-2.2-4.9-4.8-4.9c-2.7,0-4.8,2.2-4.8,4.9S706.9,1638.8,709.5,1638.8z"/>
	<path class="st37" d="M1138,1638.8c2.7,0,4.8-2.2,4.8-4.9s-2.2-4.9-4.8-4.9c-2.7,0-4.8,2.2-4.8,4.9S1135.3,1638.8,1138,1638.8z"/>
	<path class="st37" d="M1196.4,1638.8c2.7,0,4.8-2.2,4.8-4.9s-2.2-4.9-4.8-4.9c-2.7,0-4.8,2.2-4.8,4.9S1193.7,1638.8,1196.4,1638.8z
		"/>
	<path class="st37" d="M1215.9,1638.8c2.7,0,4.8-2.2,4.8-4.9s-2.2-4.9-4.8-4.9c-2.7,0-4.8,2.2-4.8,4.9S1213.2,1638.8,1215.9,1638.8z
		"/>
	<path class="st37" d="M1235.3,1638.8c2.7,0,4.8-2.2,4.8-4.9s-2.2-4.9-4.8-4.9c-2.7,0-4.8,2.2-4.8,4.9S1232.7,1638.8,1235.3,1638.8z
		"/>
	<path class="st37" d="M1254.8,1638.8c2.7,0,4.8-2.2,4.8-4.9s-2.2-4.9-4.8-4.9c-2.7,0-4.8,2.2-4.8,4.9S1252.2,1638.8,1254.8,1638.8z
		"/>
	<path class="st37" d="M1274.3,1638.8c2.7,0,4.8-2.2,4.8-4.9s-2.2-4.9-4.8-4.9c-2.7,0-4.8,2.2-4.8,4.9S1271.6,1638.8,1274.3,1638.8z
		"/>
	<path class="st37" d="M1293.8,1638.8c2.7,0,4.8-2.2,4.8-4.9s-2.2-4.9-4.8-4.9c-2.7,0-4.8,2.2-4.8,4.9S1291.1,1638.8,1293.8,1638.8z
		"/>
	<path class="st37" d="M1313.2,1638.8c2.7,0,4.8-2.2,4.8-4.9s-2.2-4.9-4.8-4.9c-2.7,0-4.8,2.2-4.8,4.9S1310.6,1638.8,1313.2,1638.8z
		"/>
	<path class="st37" d="M1332.7,1638.8c2.7,0,4.8-2.2,4.8-4.9s-2.2-4.9-4.8-4.9c-2.7,0-4.8,2.2-4.8,4.9S1330.1,1638.8,1332.7,1638.8z
		"/>
	<path class="st37" d="M1352.2,1638.8c2.7,0,4.8-2.2,4.8-4.9s-2.2-4.9-4.8-4.9c-2.7,0-4.8,2.2-4.8,4.9S1349.5,1638.8,1352.2,1638.8z
		"/>
	<path class="st37" d="M1040.6,1658.6c2.7,0,4.8-2.2,4.8-4.9s-2.2-4.9-4.8-4.9c-2.7,0-4.8,2.2-4.8,4.9S1037.9,1658.6,1040.6,1658.6z
		"/>
	<path class="st37" d="M1060.1,1658.6c2.7,0,4.8-2.2,4.8-4.9s-2.2-4.9-4.8-4.9c-2.7,0-4.8,2.2-4.8,4.9S1057.4,1658.6,1060.1,1658.6z
		"/>
	<path class="st37" d="M1138,1658.6c2.7,0,4.8-2.2,4.8-4.9s-2.2-4.9-4.8-4.9c-2.7,0-4.8,2.2-4.8,4.9S1135.3,1658.6,1138,1658.6z"/>
	<path class="st37" d="M1157.4,1658.6c2.7,0,4.8-2.2,4.8-4.9s-2.2-4.9-4.8-4.9c-2.7,0-4.8,2.2-4.8,4.9S1154.8,1658.6,1157.4,1658.6z
		"/>
	<path class="st37" d="M1176.9,1658.6c2.7,0,4.8-2.2,4.8-4.9s-2.2-4.9-4.8-4.9c-2.7,0-4.8,2.2-4.8,4.9S1174.3,1658.6,1176.9,1658.6z
		"/>
	<path class="st37" d="M1196.4,1658.6c2.7,0,4.8-2.2,4.8-4.9s-2.2-4.9-4.8-4.9c-2.7,0-4.8,2.2-4.8,4.9S1193.7,1658.6,1196.4,1658.6z
		"/>
	<path class="st37" d="M1215.9,1658.6c2.7,0,4.8-2.2,4.8-4.9s-2.2-4.9-4.8-4.9c-2.7,0-4.8,2.2-4.8,4.9S1213.2,1658.6,1215.9,1658.6z
		"/>
	<path class="st37" d="M1235.3,1658.6c2.7,0,4.8-2.2,4.8-4.9s-2.2-4.9-4.8-4.9c-2.7,0-4.8,2.2-4.8,4.9S1232.7,1658.6,1235.3,1658.6z
		"/>
	<path class="st37" d="M1254.8,1658.6c2.7,0,4.8-2.2,4.8-4.9s-2.2-4.9-4.8-4.9c-2.7,0-4.8,2.2-4.8,4.9S1252.2,1658.6,1254.8,1658.6z
		"/>
	<path class="st37" d="M1274.3,1658.6c2.7,0,4.8-2.2,4.8-4.9s-2.2-4.9-4.8-4.9c-2.7,0-4.8,2.2-4.8,4.9S1271.6,1658.6,1274.3,1658.6z
		"/>
	<path class="st37" d="M1293.8,1658.6c2.7,0,4.8-2.2,4.8-4.9s-2.2-4.9-4.8-4.9c-2.7,0-4.8,2.2-4.8,4.9S1291.1,1658.6,1293.8,1658.6z
		"/>
	<path class="st37" d="M1313.2,1658.6c2.7,0,4.8-2.2,4.8-4.9s-2.2-4.9-4.8-4.9c-2.7,0-4.8,2.2-4.8,4.9S1310.6,1658.6,1313.2,1658.6z
		"/>
	<path class="st37" d="M1332.7,1658.6c2.7,0,4.8-2.2,4.8-4.9s-2.2-4.9-4.8-4.9c-2.7,0-4.8,2.2-4.8,4.9S1330.1,1658.6,1332.7,1658.6z
		"/>
	<path class="st37" d="M749.2,1697.1c2.7,0,4.8-2.2,4.8-4.9c0-2.7-2.2-4.9-4.8-4.9c-2.7,0-4.8,2.2-4.8,4.9
		C744.4,1694.9,746.6,1697.1,749.2,1697.1z"/>
	<path class="st37" d="M1060.1,1678.4c2.7,0,4.8-2.2,4.8-4.9c0-2.7-2.2-4.9-4.8-4.9c-2.7,0-4.8,2.2-4.8,4.9
		C1055.3,1676.2,1057.4,1678.4,1060.1,1678.4z"/>
	<path class="st37" d="M1099,1678.4c2.7,0,4.8-2.2,4.8-4.9c0-2.7-2.2-4.9-4.8-4.9c-2.7,0-4.8,2.2-4.8,4.9
		C1094.2,1676.2,1096.4,1678.4,1099,1678.4z"/>
	<path class="st37" d="M1157.4,1678.4c2.7,0,4.8-2.2,4.8-4.9c0-2.7-2.2-4.9-4.8-4.9c-2.7,0-4.8,2.2-4.8,4.9
		C1152.6,1676.2,1154.8,1678.4,1157.4,1678.4z"/>
	<path class="st37" d="M1176.9,1678.4c2.7,0,4.8-2.2,4.8-4.9c0-2.7-2.2-4.9-4.8-4.9c-2.7,0-4.8,2.2-4.8,4.9
		C1172.1,1676.2,1174.3,1678.4,1176.9,1678.4z"/>
	<path class="st37" d="M1196.4,1678.4c2.7,0,4.8-2.2,4.8-4.9c0-2.7-2.2-4.9-4.8-4.9c-2.7,0-4.8,2.2-4.8,4.9
		C1191.6,1676.2,1193.7,1678.4,1196.4,1678.4z"/>
	<path class="st37" d="M1215.9,1678.4c2.7,0,4.8-2.2,4.8-4.9c0-2.7-2.2-4.9-4.8-4.9c-2.7,0-4.8,2.2-4.8,4.9
		C1211,1676.2,1213.2,1678.4,1215.9,1678.4z"/>
	<path class="st37" d="M1235.3,1678.4c2.7,0,4.8-2.2,4.8-4.9c0-2.7-2.2-4.9-4.8-4.9c-2.7,0-4.8,2.2-4.8,4.9
		C1230.5,1676.2,1232.7,1678.4,1235.3,1678.4z"/>
	<path class="st37" d="M1254.8,1678.4c2.7,0,4.8-2.2,4.8-4.9c0-2.7-2.2-4.9-4.8-4.9c-2.7,0-4.8,2.2-4.8,4.9
		C1250,1676.2,1252.2,1678.4,1254.8,1678.4z"/>
	<path class="st37" d="M1274.3,1678.4c2.7,0,4.8-2.2,4.8-4.9c0-2.7-2.2-4.9-4.8-4.9c-2.7,0-4.8,2.2-4.8,4.9
		C1269.5,1676.2,1271.6,1678.4,1274.3,1678.4z"/>
	<path class="st37" d="M1293.8,1678.4c2.7,0,4.8-2.2,4.8-4.9c0-2.7-2.2-4.9-4.8-4.9c-2.7,0-4.8,2.2-4.8,4.9
		C1288.9,1676.2,1291.1,1678.4,1293.8,1678.4z"/>
	<path class="st37" d="M1313.2,1678.4c2.7,0,4.8-2.2,4.8-4.9c0-2.7-2.2-4.9-4.8-4.9c-2.7,0-4.8,2.2-4.8,4.9
		C1308.4,1676.2,1310.6,1678.4,1313.2,1678.4z"/>
	<path class="st37" d="M1332.7,1678.4c2.7,0,4.8-2.2,4.8-4.9c0-2.7-2.2-4.9-4.8-4.9c-2.7,0-4.8,2.2-4.8,4.9
		C1327.9,1676.2,1330.1,1678.4,1332.7,1678.4z"/>
	<path class="st37" d="M1099,1698.1c2.7,0,4.8-2.2,4.8-4.9s-2.2-4.9-4.8-4.9c-2.7,0-4.8,2.2-4.8,4.9S1096.4,1698.1,1099,1698.1z"/>
	<path class="st37" d="M1157.4,1698.1c2.7,0,4.8-2.2,4.8-4.9s-2.2-4.9-4.8-4.9c-2.7,0-4.8,2.2-4.8,4.9S1154.8,1698.1,1157.4,1698.1z
		"/>
	<path class="st37" d="M1176.9,1698.1c2.7,0,4.8-2.2,4.8-4.9s-2.2-4.9-4.8-4.9c-2.7,0-4.8,2.2-4.8,4.9S1174.3,1698.1,1176.9,1698.1z
		"/>
	<path class="st37" d="M1196.4,1698.1c2.7,0,4.8-2.2,4.8-4.9s-2.2-4.9-4.8-4.9c-2.7,0-4.8,2.2-4.8,4.9S1193.7,1698.1,1196.4,1698.1z
		"/>
	<path class="st37" d="M1215.9,1698.1c2.7,0,4.8-2.2,4.8-4.9s-2.2-4.9-4.8-4.9c-2.7,0-4.8,2.2-4.8,4.9S1213.2,1698.1,1215.9,1698.1z
		"/>
	<path class="st37" d="M1254.8,1698.1c2.7,0,4.8-2.2,4.8-4.9s-2.2-4.9-4.8-4.9c-2.7,0-4.8,2.2-4.8,4.9S1252.2,1698.1,1254.8,1698.1z
		"/>
	<ellipse class="st37" cx="1274.3" cy="1693.3" rx="4.8" ry="4.9"/>
	<ellipse class="st37" cx="1293.8" cy="1693.3" rx="4.8" ry="4.9"/>
	<path class="st37" d="M1099,1717.9c2.7,0,4.8-2.2,4.8-4.9c0-2.7-2.2-4.9-4.8-4.9c-2.7,0-4.8,2.2-4.8,4.9
		C1094.2,1715.7,1096.4,1717.9,1099,1717.9z"/>
	<path class="st37" d="M1118.5,1717.9c2.7,0,4.8-2.2,4.8-4.9c0-2.7-2.2-4.9-4.8-4.9c-2.7,0-4.8,2.2-4.8,4.9
		C1113.7,1715.7,1115.8,1717.9,1118.5,1717.9z"/>
	<text transform="matrix(1 0 0 1 553.0032 1823.46)"><tspan x="0" y="0" class="st5 st6 st38">Chinese population </tspan><tspan x="38.9" y="21.3" class="st5 st6 st38">Presentage </tspan></text>
	<text transform="matrix(1 0 0 1 1174.8196 1823.46)"><tspan x="0" y="0" class="st5 st6 st38">Malays population </tspan><tspan x="36.9" y="21.3" class="st5 st6 st38">Presentage</tspan></text>
	<circle class="st31" cx="793" cy="1847.1" r="8.9"/>
	<circle class="st34" cx="857.8" cy="1847.1" r="8.9"/>
	<circle class="st35" cx="922.5" cy="1847.1" r="8.9"/>
	<circle class="st33" cx="987.2" cy="1847.1" r="8.9"/>
	<circle class="st36" cx="1052" cy="1847.1" r="8.9"/>
	<circle class="st37" cx="1116.7" cy="1847.1" r="8.9"/>
	<line class="st39" x1="765" y1="1823" x2="923.8" y2="1823"/>
	<text transform="matrix(1 0 0 1 763.4246 1816.6147)" class="st5 st6 st40">100%</text>
	<text transform="matrix(1 0 0 1 901.1882 1816.6147)" class="st5 st6 st40">50%</text>
	<text transform="matrix(1 0 0 1 1118.9412 1816.6147)" class="st5 st6 st40">100%</text>
	<text transform="matrix(1 0 0 1 988.9558 1816.6147)" class="st5 st6 st40">50%</text>
	<line class="st39" x1="988.8" y1="1823" x2="1147.7" y2="1823"/>
	<line class="st41" x1="938.8" y1="1823" x2="973.8" y2="1823"/>
	<g>
		<rect x="297.2" y="1417.4" class="st0" width="105.2" height="28.7"/>
		<text transform="matrix(1 0 0 1 297.1726 1430.219)"><tspan x="0" y="0" class="st42 st6 st43">Bukit Merta</tspan><tspan x="88.4" y="0" class="st42 st6 st43">-</tspan></text>
	</g>
	<rect x="980.9" y="1560.2" class="st0" width="172.7" height="26.3"/>
	<text transform="matrix(1 0 0 1 980.9167 1577.3364)" class="st31 st6 st44">Sibu Sarawak</text>
	<g>
		<rect x="357.2" y="1461.8" class="st0" width="105.2" height="28.7"/>
		<text transform="matrix(1 0 0 1 357.1902 1474.6321)" class="st42 st6 st43">Butterworth</text>
	</g>
	<g>
		<rect x="550.4" y="1671.9" class="st0" width="105.2" height="28.7"/>
		<text transform="matrix(1 0 0 1 550.447 1684.6936)" class="st42 st6 st43">Nusajaya</text>
	</g>
	<rect x="307.5" y="1522.2" class="st0" width="141.6" height="34.3"/>
	<text transform="matrix(1 0 0 1 307.5183 1539.3518)" class="st31 st6 st44">Kuala </text>
	<rect x="1281" y="1371.8" class="st0" width="79.2" height="28.7"/>
	<text transform="matrix(1 0 0 1 1281.0051 1388.8811)" class="st31 st6 st44">Sabah</text>
	<polyline class="st45" points="528.4,1575.1 446.8,1547.5 300.3,1548.1 	"/>
	<polyline class="st46" points="671.8,1681.3 637,1690.9 545.2,1690.9 	"/>
	<polyline class="st46" points="452.8,1452 414.3,1436.4 293.1,1436.4 	"/>
	<polyline class="st46" points="494.8,1496.4 456.4,1480.8 354.3,1480.8 	"/>
	<polyline class="st45" points="1151.4,1602.1 1113,1584.1 976.1,1584.1 	"/>
	<polyline class="st45" points="1399.8,1411.9 1358.8,1394.4 1276.2,1394.4 	"/>
</g>
<circle class="st25" cx="432.1" cy="1998" r="9.2"/>
<circle class="st25" cx="432.1" cy="3278.6" r="9.2"/>
<g>
	<text transform="matrix(1 0 0 1 698.8423 3684.6177)"><tspan x="0" y="0" class="st3 st6 st29">As a multi-ethnic country, </tspan><tspan x="0" y="39" class="st3 st6 st29">Malaysia also has a peculiar appearance in education. </tspan><tspan x="0" y="78" class="st3 st6 st29">Primary and secondary schools are divided  </tspan><tspan x="0" y="117" class="st3 st6 st29">into chinese, indian, malay and religous type of schools.</tspan></text>
</g>
<text transform="matrix(1 0 0 1 698.8423 3619.3777)" class="st3 st47 st48">Unique      education     system     in  Malaysia     </text>
<g>
	<text transform="matrix(0.887 0 0 1 234.7668 440.3928)"><tspan x="0" y="0" class="st1 st6 st49">The Chinese population have the lowest poverty rate (0.1%), </tspan><tspan x="0" y="54.3" class="st1 st6 st49">the highest average income, and control over 70% of all </tspan><tspan x="0" y="108.6" class="st1 st6 st49">commercial real estate in the country, </tspan><tspan x="0" y="217.2" class="st1 st6 st49">but why are they still leaving Malaysia?</tspan></text>
</g>
<text transform="matrix(0.887 0 0 1 234.7668 234.3628)" class="st50"><tspan x="0" y="0" class="st25 st47 st48">Why      are     Malaysian      Chinese </tspan><tspan x="0" y="70" class="st25 st47 st48">leaving     Malaysia?</tspan></text>
<g>
	<g class="st50">
		<g>
			<pattern  id="SVGID_4_" xlink:href="#Motivo_nuevo_4" patternTransform="matrix(1 0 0 1 -5.0025 45)">
			</pattern>
			<path class="st51" d="M1286.3,614.3l11,6.4c-2.7-1.6-6.5-1.4-10.6,1l-11-6.4C1279.8,612.9,1283.5,612.7,1286.3,614.3z"/>
		</g>
		<g>
			<pattern  id="SVGID_5_" xlink:href="#Motivo_nuevo_4" patternTransform="matrix(1 0 0 1 -5.0025 45)">
			</pattern>
			<path class="st52" d="M1276,657.1l-11-6.4c-2.7-1.6-4.3-4.9-4.4-9.6c0-9.5,6.7-21.1,14.9-25.9l11,6.4c-8.3,4.8-15,16.4-14.9,25.9
				C1271.7,652.2,1273.4,655.6,1276,657.1z"/>
		</g>
		<g>
			<pattern  id="SVGID_6_" xlink:href="#Motivo_nuevo_4" patternTransform="matrix(1 0 0 1 -5.0025 45)">
			</pattern>
			<path class="st53" d="M1286.6,621.7c8.3-4.8,15-0.9,15,8.6c0,9.5-6.6,21-14.9,25.8c-8.3,4.8-15,1-15-8.5
				S1278.3,626.4,1286.6,621.7z"/>
		</g>
		<g>
			<pattern  id="SVGID_7_" xlink:href="#Motivo_nuevo_4" patternTransform="matrix(1 0 0 1 -5.0025 45)">
			</pattern>
			<path class="st54" d="M1287.2,632.2c3.8-2.2,6.9-0.4,6.9,3.9c0,4.3-3,9.6-6.8,11.8c-3.8,2.2-6.9,0.4-6.9-3.9
				C1280.3,639.7,1283.4,634.4,1287.2,632.2z"/>
		</g>
		<pattern  id="SVGID_8_" xlink:href="#Motivo_nuevo_4" patternTransform="matrix(1 0 0 1 -5.0025 45)"  class="st50">
		</pattern>
		<path class="st55" d="M1291.3,631.4c0.9,0.8,1.5,2.1,1.5,4c0,4.3-3,9.6-6.8,11.8c-1.6,0.9-3,1.1-4.2,0.7c1.3,1.1,3.2,1.2,5.4,0
			c3.8-2.2,6.8-7.5,6.8-11.8C1294,633.5,1293,631.9,1291.3,631.4z"/>
	</g>
	<g class="st50">
		<g>
			<pattern  id="SVGID_9_" xlink:href="#Motivo_nuevo_4" patternTransform="matrix(1 0 0 1 -5.0025 45)">
			</pattern>
			<path class="st56" d="M1412.5,685.8l11,6.4c-2.7-1.6-6.5-1.4-10.6,1l-11-6.4C1406,684.4,1409.8,684.2,1412.5,685.8z"/>
		</g>
		<g>
			<pattern  id="SVGID_10_" xlink:href="#Motivo_nuevo_4" patternTransform="matrix(1 0 0 1 -5.0025 45)">
			</pattern>
			<path class="st57" d="M1402.3,728.6l-11-6.4c-2.7-1.6-4.3-4.9-4.4-9.6c0-9.5,6.7-21.1,14.9-25.9l11,6.4
				c-8.3,4.8-15,16.4-14.9,25.9C1397.9,723.8,1399.6,727.1,1402.3,728.6z"/>
		</g>
		<g>
			<pattern  id="SVGID_11_" xlink:href="#Motivo_nuevo_4" patternTransform="matrix(1 0 0 1 -5.0025 45)">
			</pattern>
			<path class="st58" d="M1412.8,693.2c8.3-4.8,15-0.9,15,8.6c0,9.5-6.6,21-14.9,25.8c-8.3,4.8-15,1-15-8.5
				C1397.9,709.6,1404.6,698,1412.8,693.2z"/>
		</g>
		<g>
			<pattern  id="SVGID_12_" xlink:href="#Motivo_nuevo_4" patternTransform="matrix(1 0 0 1 -5.0025 45)">
			</pattern>
			<path class="st59" d="M1413.4,703.7c3.8-2.2,6.9-0.4,6.9,3.9c0,4.3-3,9.6-6.8,11.8c-3.8,2.2-6.9,0.4-6.9-3.9
				C1406.6,711.2,1409.6,705.9,1413.4,703.7z"/>
		</g>
		<pattern  id="SVGID_13_" xlink:href="#Motivo_nuevo_4" patternTransform="matrix(1 0 0 1 -5.0025 45)"  class="st50">
		</pattern>
		<path class="st60" d="M1417.6,702.9c0.9,0.8,1.5,2.1,1.5,4c0,4.3-3,9.6-6.8,11.8c-1.6,0.9-3,1.1-4.2,0.7c1.3,1.1,3.2,1.2,5.4,0
			c3.8-2.2,6.8-7.5,6.8-11.8C1420.3,705.1,1419.2,703.4,1417.6,702.9z"/>
	</g>
	<g class="st50">
		<g>
			<pattern  id="SVGID_14_" xlink:href="#Motivo_nuevo_4" patternTransform="matrix(1 0 0 1 -5.0025 45)">
			</pattern>
			<path class="st61" d="M1542.1,627.4l11,6.4c-2.7-1.6-6.5-1.4-10.6,1l-11-6.4C1535.6,626.1,1539.4,625.8,1542.1,627.4z"/>
		</g>
		<g>
			<pattern  id="SVGID_15_" xlink:href="#Motivo_nuevo_4" patternTransform="matrix(1 0 0 1 -5.0025 45)">
			</pattern>
			<path class="st62" d="M1531.9,670.3l-11-6.4c-2.7-1.6-4.3-4.9-4.4-9.6c0-9.5,6.7-21.1,14.9-25.9l11,6.4
				c-8.3,4.8-15,16.4-14.9,25.8C1527.5,665.4,1529.2,668.7,1531.9,670.3z"/>
		</g>
		<g>
			<pattern  id="SVGID_16_" xlink:href="#Motivo_nuevo_4" patternTransform="matrix(1 0 0 1 -5.0025 45)">
			</pattern>
			<path class="st63" d="M1542.4,634.8c8.3-4.8,15-0.9,15,8.6c0,9.5-6.6,21-14.9,25.8c-8.3,4.8-15,1-15-8.5
				C1527.5,651.2,1534.2,639.6,1542.4,634.8z"/>
		</g>
		<g>
			<pattern  id="SVGID_17_" xlink:href="#Motivo_nuevo_4" patternTransform="matrix(1 0 0 1 -5.0025 45)">
			</pattern>
			<path class="st64" d="M1543,645.3c3.8-2.2,6.9-0.4,6.9,3.9c0,4.3-3,9.6-6.8,11.8s-6.9,0.4-6.9-3.9
				C1536.1,652.8,1539.2,647.5,1543,645.3z"/>
		</g>
		<pattern  id="SVGID_18_" xlink:href="#Motivo_nuevo_4" patternTransform="matrix(1 0 0 1 -5.0025 45)"  class="st50">
		</pattern>
		<path class="st65" d="M1547.1,644.6c0.9,0.8,1.5,2.1,1.5,4c0,4.3-3,9.6-6.8,11.8c-1.6,0.9-3,1.1-4.2,0.7c1.3,1.1,3.2,1.2,5.4,0
			c3.8-2.2,6.8-7.5,6.8-11.8C1549.9,646.7,1548.8,645.1,1547.1,644.6z"/>
	</g>
	<g class="st50">
		<path class="st66" d="M1433.2,444l-0.7,258.9c0,5.4-1.9,9.1-4.9,10.9l131.9-76.6c3-1.8,4.9-5.5,4.9-10.9l0.7-258.9L1433.2,444z"/>
		<path class="st66" d="M1404.6,255.2c-4.7-2.7-9-3-12.1-1.2l-131.9,76.6c3.1-1.8,7.4-1.5,12.1,1.2l143.5,82.9l131.9-76.6
			L1404.6,255.2z"/>
		<g>
			<path class="st66" d="M1416.3,414.7l131.9-76.6c9.4,5.4,16.9,18.5,16.9,29.3L1433.2,444C1433.2,433.3,1425.7,420.1,1416.3,414.7z
				"/>
		</g>
		<g>
			<pattern  id="SVGID_19_" xlink:href="#Motivo_nuevo_4" patternTransform="matrix(1 0 0 1 -5.0025 45)">
			</pattern>
			<path class="st67" d="M1416.3,414.7c9.4,5.4,16.9,18.5,16.9,29.3l-0.7,258.9c0,10.8-7.6,15.1-17,9.7l-143.5-82.9
				c-9.4-5.4-16.9-18.5-16.9-29.3l0.7-258.9c0-10.8,7.6-15.1,17-9.7L1416.3,414.7z"/>
		</g>
		<g>
			<pattern  id="SVGID_20_" xlink:href="#Motivo_nuevo_4" patternTransform="matrix(1 0 0 1 -5.0025 45)">
			</pattern>
			<path class="st68" d="M1410.5,423.3c8.6,5,15.6,17.1,15.6,27l-0.7,238.2c0,9.9-7,13.9-15.7,8.9l-132.1-76.3
				c-8.6-5-15.6-17-15.6-27l0.7-238.2c0-9.9,7-13.9,15.7-8.9L1410.5,423.3z"/>
		</g>
	</g>
	<g>
		<g>
			<pattern  id="SVGID_21_" xlink:href="#Motivo_nuevo_4" patternTransform="matrix(1 0 0 1 -5.0025 45)">
			</pattern>
			<path class="st69" d="M1339,494.6c13.3,7.7,24,26.2,23.9,41.4c0,15.2-10.8,21.4-24.1,13.7c-13.2-7.6-24-26.2-23.9-41.4
				C1315,493.1,1325.8,487,1339,494.6z"/>
		</g>
	</g>
	<g>
		<pattern  id="SVGID_22_" xlink:href="#Motivo_nuevo_4" patternTransform="matrix(1 0 0 1 -5.0025 45)">
		</pattern>
		<polygon class="st70" points="1255.2,535.7 1255.1,553 1432.6,655.5 1432.6,638.2 		"/>
		<pattern  id="SVGID_23_" xlink:href="#Motivo_nuevo_4" patternTransform="matrix(1 0 0 1 -5.0025 45)">
		</pattern>
		<polygon class="st71" points="1432.6,655.5 1564.5,578.9 1564.5,561.5 1432.6,638.2 		"/>
	</g>
	<g>
		<pattern  id="SVGID_24_" xlink:href="#Motivo_nuevo_4" patternTransform="matrix(1 0 0 1 -5.0025 45)">
		</pattern>
		<polygon class="st72" points="1255.6,384 1255.6,401.3 1433,503.7 1433.1,486.5 		"/>
		<pattern  id="SVGID_25_" xlink:href="#Motivo_nuevo_4" patternTransform="matrix(1 0 0 1 -5.0025 45)">
		</pattern>
		<polygon class="st73" points="1433,503.7 1564.9,427.2 1564.9,409.8 1433.1,486.5 		"/>
	</g>
	<pattern  id="SVGID_26_" xlink:href="#Motivo_nuevo_4" patternTransform="matrix(1 0 0 1 -5.0025 45)">
	</pattern>
	<path class="st74" d="M1480.3,361.7l-137-79.1l-12.4,7.2l143.2,82.7c14.1,8.1,22.8,23.3,22.8,39.5v261.3l12.5-7.2V412.1
		C1509.4,391.4,1498.2,372.1,1480.3,361.7z"/>
	<g class="st50">
		<pattern  id="SVGID_27_" xlink:href="#Motivo_nuevo_4" patternTransform="matrix(1 0 0 1 -5.0025 45)"  class="st50">
		</pattern>
		<path class="st75" d="M1420.7,126.7c-0.8,0.4-1.2,1.4-1.2,2.8l-0.4,154.6l13.2-7.7l0.4-154.6c0-1.4,0.5-2.3,1.2-2.8L1420.7,126.7z
			"/>
		<g>
			<pattern  id="SVGID_28_" xlink:href="#Motivo_nuevo_4" patternTransform="matrix(1 0 0 1 -5.0025 45)">
			</pattern>
			<polygon class="st76" points="1496.8,165.4 1510,157.7 1509.5,321.1 1496.3,328.8 			"/>
		</g>
		<pattern  id="SVGID_29_" xlink:href="#Motivo_nuevo_4" patternTransform="matrix(1 0 0 1 -5.0025 45)"  class="st50">
		</pattern>
		<path class="st77" d="M1429.5,101.5c-2.4-1.4-4.5-1.5-6.1-0.6l-13.2,7.7c1.5-0.9,3.7-0.8,6.1,0.6l72,41.6l13.2-7.7L1429.5,101.5z"
			/>
		<g>
			<pattern  id="SVGID_30_" xlink:href="#Motivo_nuevo_4" patternTransform="matrix(1 0 0 1 -5.0025 45)">
			</pattern>
			<path class="st78" d="M1488.3,150.7l13.2-7.7c4.7,2.7,8.5,9.3,8.5,14.7l-13.2,7.7C1496.8,160,1493,153.4,1488.3,150.7z"/>
		</g>
		<g>
			<pattern  id="SVGID_31_" xlink:href="#Motivo_nuevo_4" patternTransform="matrix(1 0 0 1 -5.0025 45)">
			</pattern>
			<path class="st79" d="M1488.3,150.7c4.7,2.7,8.5,9.3,8.5,14.7l-0.5,163.4l-11.7-6.7l0.4-154.6c0-2.7-1.9-6-4.3-7.4l-57.1-33
				c-2.3-1.4-4.3-0.3-4.3,2.5l-0.4,154.6l-11.7-6.7l0.5-163.4c0-5.4,3.8-7.6,8.5-4.9L1488.3,150.7z"/>
		</g>
	</g>
	<g>
		<g>
			<g>
				<pattern  id="SVGID_32_" xlink:href="#Motivo_nuevo_4" patternTransform="matrix(1 0 0 1 -15.0005 25)">
				</pattern>
				<path class="st80" d="M1506.9,663l-6.2,3.8v-0.6l6.2-3.8V663z M1506.9,660.2l-6.2,3.8v-0.6l6.2-3.8V660.2z M1506.9,657.4
					l-6.2,3.8v-0.6l6.2-3.8V657.4z M1506.9,654.6l-6.2,3.8v-0.6l6.2-3.8V654.6z M1506.9,651.8l-6.2,3.8v-0.6l6.2-3.8V651.8z
					 M1506.9,649l-6.2,3.8v-0.6l6.2-3.8V649z M1506.9,646.2l-6.2,3.8v-0.6l6.2-3.8V646.2z M1506.9,643.4l-6.2,3.8v-0.6l6.2-3.8
					V643.4z M1506.9,640.6l-6.2,3.8v-0.6l6.2-3.8V640.6z M1506.9,637.8l-6.2,3.8v-0.6l6.2-3.8V637.8z M1506.9,635l-6.2,3.8v-0.6
					l6.2-3.8V635z M1506.9,632.2l-6.2,3.8v-0.6l6.2-3.8V632.2z M1506.9,629.4l-6.2,3.8v-0.6l6.2-3.8V629.4z M1506.9,626.6l-6.2,3.8
					v-0.6l6.2-3.8V626.6z M1506.9,623.7l-6.2,3.8v-0.6l6.2-3.8V623.7z M1506.9,620.9l-6.2,3.8v-0.6l6.2-3.8V620.9z M1506.9,618.1
					l-6.2,3.8v-0.6l6.2-3.8V618.1z M1506.9,615.3l-6.2,3.8v-0.6l6.2-3.8V615.3z M1506.9,612.5l-6.2,3.8v-0.6l6.2-3.8V612.5z
					 M1506.9,609.7l-6.2,3.8v-0.6l6.2-3.8V609.7z M1506.9,606.9l-6.2,3.8v-0.6l6.2-3.8V606.9z M1506.9,604.1l-6.2,3.8v-0.6l6.2-3.8
					V604.1z M1506.9,601.3l-6.2,3.8v-0.6l6.2-3.8V601.3z M1506.9,598.5l-6.2,3.8v-0.6l6.2-3.8V598.5z M1506.9,595.7l-6.2,3.8v-0.6
					l6.2-3.8V595.7z M1506.9,592.9l-6.2,3.8V596l6.2-3.8V592.9z M1506.9,590.1l-6.2,3.8v-0.6l6.2-3.8V590.1z M1506.9,587.3l-6.2,3.8
					v-0.6l6.2-3.8V587.3z M1506.9,584.5l-6.2,3.8v-0.6l6.2-3.8V584.5z M1506.9,581.7l-6.2,3.8v-0.6l6.2-3.8V581.7z M1506.9,578.9
					l-6.2,3.8V582l6.2-3.8V578.9z M1506.9,576.1l-6.2,3.8v-0.6l6.2-3.8V576.1z M1506.9,573.3l-6.2,3.8v-0.6l6.2-3.8V573.3z
					 M1506.9,570.5l-6.2,3.8v-0.6l6.2-3.8V570.5z M1506.9,567.7l-6.2,3.8v-0.6l6.2-3.8V567.7z M1506.9,564.9l-6.2,3.8V568l6.2-3.8
					V564.9z M1506.9,562.1l-6.2,3.8v-0.6l6.2-3.8V562.1z M1506.9,559.3l-6.2,3.8v-0.6l6.2-3.8V559.3z M1506.9,556.5l-6.2,3.8v-0.6
					l6.2-3.8V556.5z M1506.9,553.7l-6.2,3.8v-0.6l6.2-3.8V553.7z M1506.9,550.9l-6.2,3.8V554l6.2-3.8V550.9z M1506.9,548.1l-6.2,3.8
					v-0.6l6.2-3.8V548.1z M1506.9,545.3l-6.2,3.8v-0.6l6.2-3.8V545.3z M1506.9,542.5l-6.2,3.8v-0.6l6.2-3.8V542.5z M1506.9,539.6
					l-6.2,3.8v-0.6l6.2-3.8V539.6z M1506.9,536.8l-6.2,3.8V540l6.2-3.8V536.8z M1506.9,534l-6.2,3.8v-0.6l6.2-3.8V534z
					 M1506.9,531.2l-6.2,3.8v-0.6l6.2-3.8V531.2z M1506.9,528.4l-6.2,3.8v-0.6l6.2-3.8V528.4z M1506.9,525.6l-6.2,3.8v-0.6l6.2-3.8
					V525.6z M1506.9,522.8l-6.2,3.8V526l6.2-3.8V522.8z M1506.9,520l-6.2,3.8v-0.6l6.2-3.8V520z M1506.9,517.2l-6.2,3.8v-0.6
					l6.2-3.8V517.2z M1506.9,514.4l-6.2,3.8v-0.6l6.2-3.8V514.4z M1506.9,511.6l-6.2,3.8v-0.6l6.2-3.8V511.6z M1506.9,508.8
					l-6.2,3.8V512l6.2-3.8V508.8z M1506.9,506l-6.2,3.8v-0.6l6.2-3.8V506z M1506.9,503.2l-6.2,3.8v-0.6l6.2-3.8V503.2z
					 M1506.9,500.4l-6.2,3.8v-0.6l6.2-3.8V500.4z M1506.9,497.6l-6.2,3.8v-0.6l6.2-3.8V497.6z M1506.9,494.8l-6.2,3.8v-0.6l6.2-3.8
					V494.8z M1506.9,492l-6.2,3.8v-0.6l6.2-3.8V492z M1506.9,489.2l-6.2,3.8v-0.6l6.2-3.8V489.2z M1506.9,486.4l-6.2,3.8v-0.6
					l6.2-3.8V486.4z M1506.9,483.6l-6.2,3.8v-0.6l6.2-3.8V483.6z M1506.9,480.8l-6.2,3.8v-0.6l6.2-3.8V480.8z M1506.9,478l-6.2,3.8
					v-0.6l6.2-3.8V478z M1506.9,475.2l-6.2,3.8v-0.6l6.2-3.8V475.2z M1506.9,472.4l-6.2,3.8v-0.6l6.2-3.8V472.4z M1506.9,469.6
					l-6.2,3.8v-0.6l6.2-3.8V469.6z M1506.9,466.8l-6.2,3.8v-0.6l6.2-3.8V466.8z M1506.9,464l-6.2,3.8v-0.6l6.2-3.8V464z
					 M1506.9,461.2l-6.2,3.8v-0.6l6.2-3.8V461.2z M1506.9,458.4l-6.2,3.8v-0.6l6.2-3.8V458.4z M1506.9,455.5l-6.2,3.8v-0.6l6.2-3.8
					V455.5z M1506.9,452.7l-6.2,3.8v-0.6l6.2-3.8V452.7z M1506.9,449.9l-6.2,3.8v-0.6l6.2-3.8V449.9z M1506.9,447.1l-6.2,3.8v-0.6
					l6.2-3.8V447.1z M1506.9,444.3l-6.2,3.8v-0.6l6.2-3.8V444.3z M1506.9,441.5l-6.2,3.8v-0.6l6.2-3.8V441.5z M1506.9,438.7
					l-6.2,3.8v-0.6l6.2-3.8V438.7z M1506.9,435.9l-6.2,3.8v-0.6l6.2-3.8V435.9z M1506.9,433.1l-6.2,3.8v-0.6l6.2-3.8V433.1z
					 M1506.9,430.3l-6.2,3.8v-0.6l6.2-3.8V430.3z M1506.9,427.5l-6.2,3.8v-0.6l6.2-3.8V427.5z M1506.9,424.7l-6.2,3.8v-0.6l6.2-3.8
					V424.7z M1506.9,421.9l-6.2,3.8V425l6.2-3.8V421.9z M1506.9,419.1l-6.2,3.8v-0.6l6.2-3.8V419.1z M1506.9,416.3l-6.2,3.8v-0.6
					l6.2-3.8V416.3z M1500.6,417.1l0-0.6l6.2-3.8l0,0.6L1500.6,417.1z M1500.6,413.9l-0.1-0.6l6.1-3.5l0.1,0.7L1500.6,413.9z
					 M1500.1,410.7l-0.1-0.5l6.2-3.4l0.1,0.7L1500.1,410.7z M1499.7,407.4l-0.1-0.6l6.1-2.8l0.1,0.6L1499.7,407.4z M1499.2,404.2
					l-0.1-0.6l6.1-2.6l0.1,0.6L1499.2,404.2z M1498.5,401l-0.2-0.6l6-2.3l0.2,0.6L1498.5,401z M1497.7,398.3l-0.2-0.5l5.8-2.4
					l0.2,0.6L1497.7,398.3z M1496.8,395.5l-0.2-0.5l5.8-2.4l0.2,0.6L1496.8,395.5z M1495.7,393.1l-0.2-0.5l5.7-2.6l0.3,0.6
					L1495.7,393.1z M1494.6,390.7l-0.3-0.5l5.5-2.9l0.3,0.6L1494.6,390.7z M1493.3,388.4l-0.3-0.5l5.4-3.2l0.3,0.6L1493.3,388.4z
					 M1491.9,386.1l2.6-1.7l-2.8,1.4l-0.2-0.3l5.2-3.4l0.3,0.5L1491.9,386.1z M1490.4,383.9l-0.3-0.5l5-3.7l0.4,0.5L1490.4,383.9z
					 M1488.8,381.6l-0.4-0.5l4.9-3.8l0.4,0.5L1488.8,381.6z M1487,379.6l-0.4-0.5l4.8-4l0.4,0.5L1487,379.6z M1485.1,377.4l-0.4-0.4
					l4.8-4.1l0.5,0.5L1485.1,377.4z M1483,375.3l-0.4-0.4l4.7-4l0.5,0.5L1483,375.3z M1480.6,373.2l-0.4-0.4l4.9-3.9l0.5,0.4
					L1480.6,373.2z M1478.1,371.3l-0.5-0.4l5.2-3.9l0.5,0.4L1478.1,371.3z M1475.5,369.5l-0.5-0.3l5.4-3.8l0.6,0.4L1475.5,369.5z
					 M1472.8,367.8l-0.5-0.3l5.7-3.8l0.6,0.4L1472.8,367.8z M1470,366l-0.5-0.3l6-3.5l0.5,0.3L1470,366z M1467.6,364.6l-0.5-0.3
					l6-3.5l0.5,0.3L1467.6,364.6z M1465.2,363.2l-0.5-0.3l6-3.5l0.5,0.3L1465.2,363.2z M1462.7,361.8l-0.5-0.3l6-3.5l0.5,0.3
					L1462.7,361.8z M1460.3,360.4l-0.5-0.3l6-3.5l0.5,0.3L1460.3,360.4z M1457.9,359l-0.5-0.3l6-3.5l0.5,0.3L1457.9,359z
					 M1455.5,357.6l-0.5-0.3l6-3.5l0.5,0.3L1455.5,357.6z M1453,356.2l-0.5-0.3l6-3.5l0.5,0.3L1453,356.2z M1450.6,354.8l-0.5-0.3
					l6-3.5l0.5,0.3L1450.6,354.8z M1448.2,353.4l-0.5-0.3l6-3.5l0.5,0.3L1448.2,353.4z M1445.8,352l-0.5-0.3l6-3.5l0.5,0.3
					L1445.8,352z M1443.3,350.6l-0.5-0.3l6-3.5l0.5,0.3L1443.3,350.6z M1440.9,349.2l-0.5-0.3l6-3.5l0.5,0.3L1440.9,349.2z
					 M1438.5,347.8l-0.5-0.3l6-3.5l0.5,0.3L1438.5,347.8z M1436,346.4l-0.5-0.3l6-3.5l0.5,0.3L1436,346.4z M1433.6,345l-0.5-0.3
					l6-3.5l0.5,0.3L1433.6,345z M1431.2,343.6l-0.5-0.3l6-3.5l0.5,0.3L1431.2,343.6z M1428.8,342.2l-0.5-0.3l6-3.5l0.5,0.3
					L1428.8,342.2z M1426.3,340.8l-0.5-0.3l6-3.5l0.5,0.3L1426.3,340.8z M1423.9,339.4l-0.5-0.3l6-3.5l0.5,0.3L1423.9,339.4z
					 M1421.5,338l-0.5-0.3l6-3.5l0.5,0.3L1421.5,338z M1419,336.6l-0.5-0.3l6-3.5l0.5,0.3L1419,336.6z M1416.6,335.2l-0.5-0.3l6-3.5
					l0.5,0.3L1416.6,335.2z M1414.2,333.8l-0.5-0.3l6-3.5l0.5,0.3L1414.2,333.8z M1411.8,332.4l-0.5-0.3l6-3.5l0.5,0.3L1411.8,332.4
					z M1409.3,331l-0.5-0.3l6-3.5l0.5,0.3L1409.3,331z M1406.9,329.6l-0.5-0.3l6-3.5l0.5,0.3L1406.9,329.6z M1404.5,328.2l-0.5-0.3
					l6-3.5l0.5,0.3L1404.5,328.2z M1402.1,326.8l-0.5-0.3l6-3.5l0.5,0.3L1402.1,326.8z M1399.6,325.4l-0.5-0.3l6-3.5l0.5,0.3
					L1399.6,325.4z M1397.2,324l-0.5-0.3l6-3.5l0.5,0.3L1397.2,324z M1394.8,322.6l-0.5-0.3l6-3.5l0.5,0.3L1394.8,322.6z
					 M1392.3,321.2l-0.5-0.3l6-3.5l0.5,0.3L1392.3,321.2z M1389.9,319.8l-0.5-0.3l6-3.5l0.5,0.3L1389.9,319.8z M1387.5,318.4
					l-0.5-0.3l6-3.5l0.5,0.3L1387.5,318.4z M1385.1,317l-0.5-0.3l6-3.5l0.5,0.3L1385.1,317z M1382.6,315.6l-0.5-0.3l6-3.5l0.5,0.3
					L1382.6,315.6z M1380.2,314.2l-0.5-0.3l6-3.5l0.5,0.3L1380.2,314.2z M1377.8,312.8l-0.5-0.3l6-3.5l0.5,0.3L1377.8,312.8z
					 M1375.3,311.4l-0.5-0.3l6-3.5l0.5,0.3L1375.3,311.4z M1372.9,310l-0.5-0.3l6-3.5l0.5,0.3L1372.9,310z M1370.5,308.6l-0.5-0.3
					l6-3.5l0.5,0.3L1370.5,308.6z M1368.1,307.2l-0.5-0.3l6-3.5l0.5,0.3L1368.1,307.2z M1365.6,305.8l-0.5-0.3l6-3.5l0.5,0.3
					L1365.6,305.8z M1363.2,304.4l-0.5-0.3l6-3.5l0.5,0.3L1363.2,304.4z M1360.8,303l-0.5-0.3l6-3.5l0.5,0.3L1360.8,303z
					 M1358.3,301.6l-0.5-0.3l6-3.5l0.5,0.3L1358.3,301.6z M1355.9,300.2l-0.5-0.3l6-3.5l0.5,0.3L1355.9,300.2z M1353.5,298.8
					l-0.5-0.3l6-3.5l0.5,0.3L1353.5,298.8z M1351.1,297.4l-0.5-0.3l6-3.5l0.5,0.3L1351.1,297.4z M1348.6,296l-0.5-0.3l6-3.5l0.5,0.3
					L1348.6,296z M1346.2,294.6l-0.5-0.3l6-3.5l0.5,0.3L1346.2,294.6z M1343.8,293.2l-0.5-0.3l6-3.5l0.5,0.3L1343.8,293.2z
					 M1341.4,291.8l-0.5-0.3l6-3.5l0.5,0.3L1341.4,291.8z M1338.9,290.4l-0.5-0.3l6-3.5l0.5,0.3L1338.9,290.4z"/>
			</g>
		</g>
	</g>
	<g class="st50">
		<pattern  id="SVGID_33_" xlink:href="#Motivo_nuevo_4" patternTransform="matrix(1 0 0 1 -5.0025 45)"  class="st50">
		</pattern>
		<path class="st81" d="M1372.5,299.4c-0.8,0.4-1.2,1.4-1.3,2.7l0,14.6l17.6-10.2l0-14.6c0-1.3,0.5-2.3,1.3-2.7L1372.5,299.4z"/>
		<g>
			<pattern  id="SVGID_34_" xlink:href="#Motivo_nuevo_4" patternTransform="matrix(1 0 0 1 -5.0025 45)">
			</pattern>
			<polygon class="st82" points="1448.6,338 1466.2,327.8 1466.1,351.2 1448.5,361.4 			"/>
		</g>
		<pattern  id="SVGID_35_" xlink:href="#Motivo_nuevo_4" patternTransform="matrix(1 0 0 1 -5.0025 45)"  class="st50">
		</pattern>
		<path class="st83" d="M1385.7,271.6c-2.4-1.4-4.5-1.5-6-0.6l-17.6,10.2c1.5-0.9,3.7-0.8,6,0.6l72,41.6l17.6-10.2L1385.7,271.6z"/>
		<g>
			<pattern  id="SVGID_36_" xlink:href="#Motivo_nuevo_4" patternTransform="matrix(1 0 0 1 -5.0025 45)">
			</pattern>
			<path class="st84" d="M1440.1,323.4l17.6-10.2c4.7,2.7,8.5,9.3,8.5,14.7l-17.6,10.2C1448.6,332.6,1444.8,326.1,1440.1,323.4z"/>
		</g>
		<g>
			<pattern  id="SVGID_37_" xlink:href="#Motivo_nuevo_4" patternTransform="matrix(1 0 0 1 -5.0025 45)">
			</pattern>
			<path class="st85" d="M1440.1,323.4c4.7,2.7,8.5,9.3,8.5,14.7l-0.1,23.4l-11.7-6.7l0-14.6c0-2.7-1.9-6-4.2-7.4l-57.1-33
				c-2.4-1.4-4.3-0.3-4.3,2.4l0,14.6l-11.7-6.7l0.1-23.4c0-5.4,3.9-7.6,8.5-4.9L1440.1,323.4z"/>
		</g>
	</g>
	<g>
		<g>
			<pattern  id="SVGID_38_" xlink:href="#Motivo_nuevo_4" patternTransform="matrix(1 0 0 1 -5.0025 45)">
			</pattern>
			<path class="st86" d="M1470.4,524.3c1.7-1,3.1-0.2,3.1,1.8l0.1,45.8c0,2-1.4,4.4-3.1,5.4l-16.7,9.6c-1.7,1-3.1,0.2-3.1-1.8
				l-0.1-45.8c0-2,1.4-4.4,3.1-5.4L1470.4,524.3z"/>
		</g>
		<g>
			<g>
				<pattern  id="SVGID_39_" xlink:href="#Motivo_nuevo_4" patternTransform="matrix(1 0 0 1 -5.0025 45)">
				</pattern>
				<path class="st87" d="M1456.8,538.5c-1.2,0.7-2.1,2.3-2.1,3.6c0,1.3,0.9,1.9,2.1,1.2c1.2-0.7,2.1-2.3,2.1-3.6
					C1458.9,538.4,1457.9,537.9,1456.8,538.5z"/>
			</g>
		</g>
		<g>
			<g>
				<pattern  id="SVGID_40_" xlink:href="#Motivo_nuevo_4" patternTransform="matrix(1 0 0 1 -5.0025 45)">
				</pattern>
				<path class="st88" d="M1469.1,531.3c-1.2,0.7-2.1,2.3-2.1,3.6c0,1.3,0.9,1.9,2.1,1.2c1.2-0.7,2.1-2.3,2.1-3.6
					C1471.2,531.1,1470.3,530.6,1469.1,531.3z"/>
			</g>
		</g>
		<g>
			<g>
				<pattern  id="SVGID_41_" xlink:href="#Motivo_nuevo_4" patternTransform="matrix(1 0 0 1 -5.0025 45)">
				</pattern>
				<path class="st89" d="M1456.8,575.4c-1.2,0.7-2.1,2.3-2.1,3.6c0,1.3,0.9,1.9,2.1,1.2c1.2-0.7,2.1-2.3,2.1-3.6
					C1458.9,575.3,1457.9,574.7,1456.8,575.4z"/>
			</g>
		</g>
		<g>
			<g>
				<pattern  id="SVGID_42_" xlink:href="#Motivo_nuevo_4" patternTransform="matrix(1 0 0 1 -5.0025 45)">
				</pattern>
				<path class="st90" d="M1469.1,568.1c-1.2,0.7-2.1,2.3-2.1,3.6c0,1.3,0.9,1.9,2.1,1.2c1.2-0.7,2.1-2.3,2.1-3.6
					C1471.2,568,1470.3,567.4,1469.1,568.1z"/>
			</g>
		</g>
	</g>
	<g>
		<g>
			<pattern  id="SVGID_43_" xlink:href="#Motivo_nuevo_4" patternTransform="matrix(1 0 0 1 -5.0025 45)">
			</pattern>
			<path class="st91" d="M1551.7,476.6c1.7-1,3.1-0.2,3.1,1.8l0.1,45.8c0,2-1.4,4.4-3.1,5.4l-16.7,9.6c-1.7,1-3.1,0.2-3.1-1.8
				l-0.1-45.8c0-2,1.4-4.4,3.1-5.4L1551.7,476.6z"/>
		</g>
		<g>
			<g>
				<pattern  id="SVGID_44_" xlink:href="#Motivo_nuevo_4" patternTransform="matrix(1 0 0 1 -5.0025 45)">
				</pattern>
				<path class="st92" d="M1538.1,490.8c-1.2,0.7-2.1,2.3-2.1,3.6c0,1.3,0.9,1.9,2.1,1.2c1.2-0.7,2.1-2.3,2.1-3.6
					C1540.2,490.7,1539.2,490.1,1538.1,490.8z"/>
			</g>
		</g>
		<g>
			<g>
				<pattern  id="SVGID_45_" xlink:href="#Motivo_nuevo_4" patternTransform="matrix(1 0 0 1 -5.0025 45)">
				</pattern>
				<path class="st93" d="M1550.4,483.5c-1.2,0.7-2.1,2.3-2.1,3.6c0,1.3,0.9,1.9,2.1,1.2c1.2-0.7,2.1-2.3,2.1-3.6
					C1552.5,483.4,1551.6,482.8,1550.4,483.5z"/>
			</g>
		</g>
		<g>
			<g>
				<pattern  id="SVGID_46_" xlink:href="#Motivo_nuevo_4" patternTransform="matrix(1 0 0 1 -5.0025 45)">
				</pattern>
				<path class="st94" d="M1538.1,527.7c-1.2,0.7-2.1,2.3-2.1,3.6c0,1.3,0.9,1.9,2.1,1.2c1.2-0.7,2.1-2.3,2.1-3.6
					C1540.2,527.5,1539.2,527,1538.1,527.7z"/>
			</g>
		</g>
		<g>
			<g>
				<pattern  id="SVGID_47_" xlink:href="#Motivo_nuevo_4" patternTransform="matrix(1 0 0 1 -5.0025 45)">
				</pattern>
				<path class="st95" d="M1550.4,520.4c-1.2,0.7-2.1,2.3-2.1,3.6c0,1.3,0.9,1.9,2.1,1.2c1.2-0.7,2.1-2.3,2.1-3.6
					C1552.5,520.2,1551.6,519.7,1550.4,520.4z"/>
			</g>
		</g>
	</g>
</g>
<path class="st1" d="M2085.7,3031.3c1.1,12.8,1.3,25.6-0.3,38.2c-4.9,38.2-28.2,73.6-61.4,93.1c-79.9,47-197.6,1.1-265.2,64.5
	c-36.4,34.1-44,89.2-40.7,139c3.3,49.8,15.2,99.7,8.9,149.2c-2.4,19-7.7,37.7-15.4,55.3c-78.8,125.3-218.9,130.9-218.9,130.9h538
	v96.1h261v-766.4H2085.7z"/>
<pattern  id="SVGID_48_" xlink:href="#Motivo_nuevo_4" patternTransform="matrix(1 0 0 1 -5.0025 45)">
</pattern>
<path class="st96" d="M1841.6,3205.9c178.3,175.2,44.1,371.9,144.5,501.3l125.6-12.5l9.7,97.1c124.2,34.5,252.9-9,252.9-9
	L2243.3,2472C2243.3,2472,1466.1,2836.8,1841.6,3205.9z"/>
<g>
	<path class="st3" d="M1813.3,2688.4c-354.6-404.6,497.4-690.4,497.4-690.4v1317.3c0,0-236.3,51.6-372.6-82.5
		C1793.8,3090.9,1994.7,2895.3,1813.3,2688.4z"/>
</g>
<text transform="matrix(1 0 0 1 694.0229 1029.5394)"><tspan x="0" y="0" class="st25 st47 st48">Population      Distribution       of   </tspan><tspan x="0" y="60" class="st25 st47 st48"> Chinese     and    Malay </tspan></text>
<g>
	<rect x="695.4" y="2400.2" class="st0" width="719" height="116.9"/>
	<text transform="matrix(1 0 0 1 695.4426 2421.5227)"><tspan x="0" y="0" class="st3 st6 st29">In terms of the spoken languages, different ethnic </tspan><tspan x="0" y="36" class="st3 st6 st29">groups skeak various languages in different situations.</tspan></text>
</g>
<g>
	<rect x="450.2" y="3265.4" class="st0" width="1237.8" height="136.8"/>
	<text transform="matrix(1 0 0 1 450.2295 3286.7229)"><tspan x="0" y="0" class="st3 st6 st29">Therefore,</tspan><tspan x="131.2" y="0" class="st3 st6 st29"> </tspan><tspan x="138.5" y="0" class="st3 st6 st29">whenever</tspan><tspan x="258.2" y="0" class="st3 st6 st29"> </tspan><tspan x="265.5" y="0" class="st3 st6 st29">choosing</tspan><tspan x="381.6" y="0" class="st3 st6 st29"> </tspan><tspan x="388.8" y="0" class="st3 st6 st29">a</tspan><tspan x="405" y="0" class="st3 st6 st29"> </tspan><tspan x="412.3" y="0" class="st3 st6 st29">school</tspan><tspan x="495.8" y="0" class="st3 st6 st29"> </tspan><tspan x="503" y="0" class="st3 st6 st29">to</tspan><tspan x="528.9" y="0" class="st3 st6 st29"> </tspan><tspan x="536.1" y="0" class="st3 st6 st29">attend,</tspan><tspan x="625.6" y="0" class="st3 st6 st29"> </tspan><tspan x="632.9" y="0" class="st3 st6 st29">each</tspan><tspan x="694.8" y="0" class="st3 st6 st29"> </tspan><tspan x="702.1" y="0" class="st3 st6 st29">ethnic</tspan><tspan x="781" y="0" class="st3 st6 st29"> </tspan><tspan x="788.3" y="0" class="st3 st6 st29">group</tspan><tspan x="865.6" y="0" class="st3 st6 st29">  </tspan><tspan x="880.2" y="0" class="st3 st6 st29">will</tspan><tspan x="919.3" y="0" class="st3 st6 st29">  </tspan><tspan x="933.8" y="0" class="st3 st6 st29">choose</tspan><tspan x="1025" y="0" class="st3 st6 st29"> </tspan><tspan x="1032.2" y="0" class="st3 st6 st29">a</tspan><tspan x="1048.4" y="0" class="st3 st6 st29"> </tspan><tspan x="1055.7" y="0" class="st3 st6 st29">school</tspan><tspan x="1139.2" y="0" class="st3 st6 st29"> </tspan><tspan x="1146.4" y="0" class="st3 st6 st29">related </tspan><tspan x="0" y="39" class="st3 st6 st29">to their own language.</tspan></text>
</g>
<pattern  id="SVGID_49_" xlink:href="#Motivo_nuevo_4" patternTransform="matrix(1 0 0 1 -5.0025 45)">
</pattern>
<circle class="st97" cx="615.1" cy="2341.5" r="37.3"/>
<text transform="matrix(1 0 0 1 695.4429 2354.1646)" class="st98 st47 st48">defferences     in      language      use </text>
<path class="st3" d="M-45.9,2902.8c0,0,110.6,386.7,175.1,413.4s164,201.3,47.1,368.4S45.9,3937,45.9,3937S-64.1,4125.9-75,4035.1
	C-85.9,3944.3-45.9,2902.8-45.9,2902.8z"/>
<pattern  id="SVGID_50_" xlink:href="#Motivo_nuevo_4" patternTransform="matrix(1 0 0 1 -5.0025 45)">
</pattern>
<path class="st99" d="M191.4,3287c-11.3-68.2-54.1-115.8-97.8-146.4c-43.7-30.6-91.5-50.8-130.3-93.1
	c-44.2-48.1-73.4-123.9-78.4-203.5c-6.2-98.6,12.4-195.6,3.5-295.2c-2.7-31.1-7-57.6-12.5-79.8l-422.9,1071.1l433.1,357v-137.9h33.8
	c28.5-9.7,154.7,11.4,198.3-103.8C161.8,3540.3,212.4,3413.6,191.4,3287z"/>
<circle class="st25" cx="636.5" cy="3597.5" r="37"/>
<pattern  id="SVGID_51_" xlink:href="#Motivo_nuevo_4" patternTransform="matrix(1 0 0 1 -5.0025 45)">
</pattern>
<circle class="st100" cx="615" cy="3604.9" r="37.3"/>
<text transform="matrix(0.887 0 0 1 698.8423 1139.3809)"><tspan x="0" y="0" class="st1 st6 st29">From the geographical point of view,</tspan><tspan x="0" y="36" class="st1 st6 st29">the area where they live is almost separate.</tspan></text>
</svg>
