<svg xmlns="http://www.w3.org/2000/svg" xmlns:xlink="http://www.w3.org/1999/xlink" viewBox="0 0 1920 637"><defs><style>.cls-1{fill:none;}.cls-2{fill:#fff;}.cls-3{fill:#6e82b2;}.cls-4{font-size:24px;}.cls-16,.cls-4{fill:#2a3083;font-family:Comfortaa-Bold, Comfortaa;font-weight:700;}.cls-5{letter-spacing:-0.04em;}.cls-6{letter-spacing:-0.02em;}.cls-7{letter-spacing:0em;}.cls-8{letter-spacing:-0.04em;}.cls-9{letter-spacing:-0.03em;}.cls-10{letter-spacing:-0.02em;}.cls-11{letter-spacing:-0.01em;}.cls-12{letter-spacing:0em;}.cls-13{letter-spacing:-0.03em;}.cls-14{letter-spacing:0em;}.cls-15{letter-spacing:-0.02em;}.cls-16{font-size:48px;}.cls-17{letter-spacing:-0.02em;}.cls-18{letter-spacing:0em;}.cls-19{letter-spacing:-0.03em;}.cls-20{fill:#ffe117;}.cls-21{stroke:#2a2f88;stroke-miterlimit:10;stroke-width:1.4px;fill:url(#Motivo_nuevo_4);}</style><pattern id="Motivo_nuevo_4" data-name="Motivo nuevo 4" width="29" height="30" patternTransform="translate(-5 45)" patternUnits="userSpaceOnUse" viewBox="0 0 29 30"><rect class="cls-1" width="29" height="30"/><rect class="cls-2" x="27.5" y="28.5" width="29" height="30"/><rect class="cls-2" x="-1.5" y="28.5" width="29" height="30"/><rect class="cls-2" x="27.5" y="-1.5" width="29" height="30"/><rect class="cls-2" x="-1.5" y="-1.5" width="29" height="30"/><path class="cls-3" d="M16,13.5a3,3,0,1,0-3,3A3,3,0,0,0,16,13.5Z"/><path class="cls-3" d="M30.5,28.5a3,3,0,1,0-3,3A3,3,0,0,0,30.5,28.5Z"/><circle class="cls-3" cx="-1.5" cy="28.5" r="3"/><path class="cls-3" d="M30.5-1.5a3,3,0,0,0-3-3,3,3,0,0,0-3,3,3,3,0,0,0,3,3A3,3,0,0,0,30.5-1.5Z"/><circle class="cls-3" cx="-1.5" cy="-1.5" r="3"/></pattern></defs><title>资源 6</title><g id="图层_2" data-name="图层 2"><g id="图层_1-2" data-name="图层 1"><rect class="cls-2" width="1920" height="637"/><text class="cls-4" transform="translate(603.55 102.72)">The<tspan class="cls-5" x="47.16" y="0">r</tspan><tspan x="57.86" y="0">e</tspan><tspan class="cls-6" x="72.77" y="0">f</tspan><tspan x="81.1" y="0">o</tspan><tspan class="cls-5" x="97.29" y="0">r</tspan><tspan x="108" y="0">e, when</tspan><tspan class="cls-6" x="200.95" y="0">ev</tspan><tspan x="228.05" y="0">er choosing a school to attend</tspan><tspan class="cls-6" x="-135.99" y="39">e</tspan><tspan class="cls-7" x="-121.57" y="39">ach ethnic g</tspan><tspan class="cls-8" x="34.67" y="39">r</tspan><tspan x="45.37" y="39" xml:space="preserve">oup  will  choose a school </tspan><tspan class="cls-5" x="373.95" y="39">r</tspan><tspan x="384.66" y="39">e</tspan><tspan class="cls-9" x="399.56" y="39">l</tspan><tspan class="cls-7" x="406.04" y="39">at</tspan><tspan class="cls-10" x="431.86" y="39">e</tspan><tspan x="446.29" y="39">d to their </tspan><tspan class="cls-9" x="569.91" y="39">o</tspan><tspan class="cls-7" x="585.39" y="39">wn </tspan><tspan class="cls-9" x="626.26" y="39">l</tspan><tspan x="632.74" y="39">anguage.</tspan></text><text class="cls-4" transform="translate(572.84 426.62)">As a multi<tspan class="cls-11" x="123.12" y="0">-</tspan><tspan class="cls-12" x="132.26" y="0">ethnic country, </tspan><tspan x="0" y="39">Ma</tspan><tspan class="cls-13" x="39.77" y="39">l</tspan><tspan x="46.25" y="39">aysia also has a p</tspan><tspan class="cls-10" x="271.32" y="39">e</tspan><tspan class="cls-14" x="285.74" y="39">culiar app</tspan><tspan class="cls-15" x="415.82" y="39">e</tspan><tspan x="430.24" y="39">a</tspan><tspan class="cls-5" x="446.44" y="39">r</tspan><tspan x="457.15" y="39">ance in </tspan><tspan class="cls-6" x="556.72" y="39">e</tspan><tspan class="cls-14" x="571.14" y="39">ducation. </tspan><tspan x="0" y="78">Primary and s</tspan><tspan class="cls-10" x="173.71" y="78">e</tspan><tspan class="cls-14" x="188.13" y="78">condary schools a</tspan><tspan class="cls-5" x="419.54" y="78">r</tspan><tspan x="430.24" y="78">e divid</tspan><tspan class="cls-15" x="513.57" y="78">e</tspan><tspan x="527.99" y="78" xml:space="preserve">d  </tspan><tspan x="0" y="117">into chinese, indian, ma</tspan><tspan class="cls-13" x="298.58" y="117">l</tspan><tspan x="305.06" y="117">ay and </tspan><tspan class="cls-5" x="397.7" y="117">r</tspan><tspan class="cls-12" x="408.4" y="117">eligous type of schools.</tspan></text><text class="cls-16" transform="translate(572.84 353.38) scale(0.89 1)">Unique <tspan class="cls-17" x="198.14" y="0">e</tspan><tspan class="cls-18" x="226.99" y="0">ducation system in Ma</tspan><tspan class="cls-19" x="794.63" y="0">l</tspan><tspan x="807.59" y="0" xml:space="preserve">aysia     </tspan></text><circle class="cls-20" cx="510.54" cy="331.51" r="36.95"/><circle class="cls-21" cx="489.04" cy="338.87" r="37.33"/></g></g></svg>