<?xml version="1.0" encoding="utf-8"?>
<!-- Generator: Adobe Illustrator 22.1.0, SVG Export Plug-In . SVG Version: 6.00 Build 0)  -->
<svg version="1.1" id="图层_1" xmlns="http://www.w3.org/2000/svg" xmlns:xlink="http://www.w3.org/1999/xlink" x="0px" y="0px"
	 viewBox="0 0 1231 708" style="enable-background:new 0 0 1231 708;" xml:space="preserve">
<style type="text/css">
	.st0{fill:none;}
	.st1{fill:#F2E4C0;}
	.st2{fill:#F7D772;}
	.st3{fill:#EA9B1C;}
	.st4{fill:#D87613;}
	.st5{fill:url(#SVGID_1_);}
	.st6{fill:url(#SVGID_2_);}
	.st7{fill:url(#SVGID_3_);}
	.st8{fill:url(#SVGID_4_);}
	.st9{fill:url(#SVGID_5_);}
	.st10{fill:url(#SVGID_6_);}
	.st11{fill:url(#SVGID_7_);}
	.st12{fill:url(#SVGID_8_);}
	.st13{fill:url(#SVGID_9_);}
	.st14{fill:url(#SVGID_10_);}
	.st15{fill:url(#SVGID_11_);}
	.st16{fill:url(#SVGID_12_);}
	.st17{fill:url(#SVGID_13_);}
	.st18{fill:url(#SVGID_14_);}
	.st19{fill:url(#SVGID_15_);}
	.st20{fill:url(#SVGID_16_);}
	.st21{fill:url(#SVGID_17_);}
	.st22{fill:url(#SVGID_18_);}
	.st23{fill:url(#SVGID_19_);}
	.st24{fill:url(#SVGID_20_);}
	.st25{fill:url(#SVGID_21_);}
	.st26{fill:url(#SVGID_22_);}
	.st27{fill:url(#SVGID_23_);}
	.st28{fill:url(#SVGID_24_);}
	.st29{fill:url(#SVGID_25_);}
	.st30{fill:url(#SVGID_26_);}
	.st31{fill:url(#SVGID_27_);}
	.st32{fill:url(#SVGID_28_);}
	.st33{fill:url(#SVGID_29_);}
	.st34{fill:url(#SVGID_30_);}
	.st35{fill:url(#SVGID_31_);}
	.st36{fill:url(#SVGID_32_);}
	.st37{fill:#FFFFFF;}
	.st38{font-family:'Fira Sans', sans-serif; font-weight:400;}
	.st39{font-size:10.45px;}
	.st40{font-family:'Fira Sans', sans-serif; font-weight:300;}
	.st41{fill:#CA9E67;}
	.st42{opacity:0.4;fill:none;stroke:#FFFFFF;stroke-miterlimit:10;stroke-dasharray:2,2;}
	.st43{font-size:11.4px;}
	.st44{fill:#B17F4A;}
	.st45{fill:none;stroke:#F7931E;stroke-miterlimit:10;}
	.st46{font-size:7.6px;}
	.st47{fill:url(#SVGID_33_);}
	.st48{fill:url(#SVGID_34_);}
	.st49{fill:url(#SVGID_35_);}
	.st50{fill:url(#SVGID_36_);}
	.st51{font-size:10.2472px;}
</style>
<pattern  x="-112" y="-29" width="172" height="172" patternUnits="userSpaceOnUse" id="Nueva_muestra_de_motivo_81" viewBox="0 -242.2 172 172" style="overflow:visible;">
	<g>
		<rect x="0" y="-242.2" class="st0" width="172" height="172"/>
		<g>
			<polygon class="st1" points="172,-5.2 237,-70.3 242.3,-70.3 172,0 			"/>
		</g>
		<g>
			<polygon class="st1" points="0,-5.2 65,-70.3 70.3,-70.3 0,0 			"/>
		</g>
		<g>
			<polygon class="st1" points="172,-201.8 212.4,-242.2 217.6,-242.2 172,-196.6 			"/>
			<polygon class="st1" points="172,-177.2 237,-242.3 242.3,-242.3 172,-172 			"/>
			<polygon class="st1" points="172,-164.9 249.3,-242.2 254.5,-242.2 172,-159.7 			"/>
			<polygon class="st1" points="172,-189.5 224.7,-242.2 229.9,-242.2 172,-184.3 			"/>
			<polygon class="st1" points="172,-214.1 200.1,-242.2 205.3,-242.2 172,-208.9 			"/>
			<polygon class="st1" points="172,-238.6 175.6,-242.2 180.8,-242.2 172,-233.4 			"/>
			<polygon class="st1" points="172,-226.4 187.8,-242.2 193.1,-242.2 172,-221.1 			"/>
		</g>
		<g>
			<polygon class="st1" points="0,-201.8 40.4,-242.2 45.6,-242.2 0,-196.6 			"/>
			<polygon class="st1" points="0,-78.9 163.3,-242.2 168.5,-242.2 0,-73.7 			"/>
			<polygon class="st1" points="0,-128.1 114.1,-242.2 119.3,-242.2 0,-122.9 			"/>
			<polygon class="st1" points="0,-91.2 151,-242.2 156.2,-242.2 0,-86 			"/>
			<polygon class="st1" points="0,-115.8 126.4,-242.2 131.6,-242.2 0,-110.6 			"/>
			<polygon class="st1" points="3.6,-70.2 172,-238.6 172,-233.4 8.8,-70.2 			"/>
			<polygon class="st1" points="0,-177.2 65,-242.3 70.3,-242.3 0,-172 			"/>
			<polygon class="st1" points="0,-164.9 77.3,-242.2 82.5,-242.2 0,-159.7 			"/>
			<polygon class="st1" points="0,-189.5 52.7,-242.2 57.9,-242.2 0,-184.3 			"/>
			<polygon class="st1" points="0,-152.7 89.6,-242.2 94.8,-242.2 0,-147.4 			"/>
			<polygon class="st1" points="0,-140.4 101.8,-242.2 107.1,-242.2 0,-135.2 			"/>
			<polygon class="st1" points="0,-103.5 138.7,-242.2 143.9,-242.2 0,-98.3 			"/>
			<polygon class="st1" points="0,-214.1 28.1,-242.2 33.3,-242.2 0,-208.9 			"/>
			<polygon class="st1" points="77.3,-70.2 172,-164.9 172,-159.7 82.5,-70.2 			"/>
			<polygon class="st1" points="101.8,-70.2 172,-140.3 172,-135.1 107.1,-70.2 			"/>
			<polygon class="st1" points="65,-70.2 172,-177.2 172,-172 70.2,-70.2 			"/>
			<polygon class="st1" points="52.7,-70.2 172,-189.5 172,-184.3 57.9,-70.2 			"/>
			<polygon class="st1" points="40.4,-70.2 172,-201.8 172,-196.6 45.6,-70.2 			"/>
			<polygon class="st1" points="163.3,-70.2 172,-78.9 172,-73.7 168.5,-70.2 			"/>
			<polygon class="st1" points="114.1,-70.2 172,-128.1 172,-122.8 119.3,-70.2 			"/>
			<polygon class="st1" points="151,-70.2 172,-91.2 172,-86 156.2,-70.2 			"/>
			<polygon class="st1" points="126.4,-70.2 172,-115.8 172,-110.6 131.6,-70.2 			"/>
			<polygon class="st1" points="138.7,-70.2 172,-103.5 172,-98.3 143.9,-70.2 			"/>
			<polygon class="st1" points="89.6,-70.2 172,-152.6 172,-147.4 94.8,-70.2 			"/>
			<polygon class="st1" points="28.1,-70.2 172,-214.1 172,-208.8 33.3,-70.2 			"/>
			<polygon class="st1" points="0,-238.6 3.6,-242.2 8.8,-242.2 0,-233.4 			"/>
			<polygon class="st1" points="15.8,-70.2 172,-226.3 172,-221.1 21.1,-70.2 			"/>
			<polygon class="st1" points="0,-226.4 15.8,-242.2 21.1,-242.2 0,-221.1 			"/>
		</g>
	</g>
</pattern>
<pattern  x="-112" y="-29" width="172" height="172" patternUnits="userSpaceOnUse" id="Nueva_muestra_de_motivo_copia" viewBox="0 -242.2 172 172" style="overflow:visible;">
	<g>
		<rect x="0" y="-242.2" class="st0" width="172" height="172"/>
		<g>
			<polygon class="st2" points="172,-5.2 237,-70.3 242.3,-70.3 172,0 			"/>
		</g>
		<g>
			<polygon class="st2" points="0,-5.2 65,-70.3 70.3,-70.3 0,0 			"/>
		</g>
		<g>
			<polygon class="st2" points="172,-201.8 212.4,-242.2 217.6,-242.2 172,-196.6 			"/>
			<polygon class="st2" points="172,-177.2 237,-242.3 242.3,-242.3 172,-172 			"/>
			<polygon class="st2" points="172,-164.9 249.3,-242.2 254.5,-242.2 172,-159.7 			"/>
			<polygon class="st2" points="172,-189.5 224.7,-242.2 229.9,-242.2 172,-184.3 			"/>
			<polygon class="st2" points="172,-214.1 200.1,-242.2 205.3,-242.2 172,-208.9 			"/>
			<polygon class="st2" points="172,-238.6 175.6,-242.2 180.8,-242.2 172,-233.4 			"/>
			<polygon class="st2" points="172,-226.4 187.8,-242.2 193.1,-242.2 172,-221.1 			"/>
		</g>
		<g>
			<polygon class="st2" points="0,-201.8 40.4,-242.2 45.6,-242.2 0,-196.6 			"/>
			<polygon class="st2" points="0,-78.9 163.3,-242.2 168.5,-242.2 0,-73.7 			"/>
			<polygon class="st2" points="0,-128.1 114.1,-242.2 119.3,-242.2 0,-122.9 			"/>
			<polygon class="st2" points="0,-91.2 151,-242.2 156.2,-242.2 0,-86 			"/>
			<polygon class="st2" points="0,-115.8 126.4,-242.2 131.6,-242.2 0,-110.6 			"/>
			<polygon class="st2" points="3.6,-70.2 172,-238.6 172,-233.4 8.8,-70.2 			"/>
			<polygon class="st2" points="0,-177.2 65,-242.3 70.3,-242.3 0,-172 			"/>
			<polygon class="st2" points="0,-164.9 77.3,-242.2 82.5,-242.2 0,-159.7 			"/>
			<polygon class="st2" points="0,-189.5 52.7,-242.2 57.9,-242.2 0,-184.3 			"/>
			<polygon class="st2" points="0,-152.7 89.6,-242.2 94.8,-242.2 0,-147.4 			"/>
			<polygon class="st2" points="0,-140.4 101.8,-242.2 107.1,-242.2 0,-135.2 			"/>
			<polygon class="st2" points="0,-103.5 138.7,-242.2 143.9,-242.2 0,-98.3 			"/>
			<polygon class="st2" points="0,-214.1 28.1,-242.2 33.3,-242.2 0,-208.9 			"/>
			<polygon class="st2" points="77.3,-70.2 172,-164.9 172,-159.7 82.5,-70.2 			"/>
			<polygon class="st2" points="101.8,-70.2 172,-140.3 172,-135.1 107.1,-70.2 			"/>
			<polygon class="st2" points="65,-70.2 172,-177.2 172,-172 70.2,-70.2 			"/>
			<polygon class="st2" points="52.7,-70.2 172,-189.5 172,-184.3 57.9,-70.2 			"/>
			<polygon class="st2" points="40.4,-70.2 172,-201.8 172,-196.6 45.6,-70.2 			"/>
			<polygon class="st2" points="163.3,-70.2 172,-78.9 172,-73.7 168.5,-70.2 			"/>
			<polygon class="st2" points="114.1,-70.2 172,-128.1 172,-122.8 119.3,-70.2 			"/>
			<polygon class="st2" points="151,-70.2 172,-91.2 172,-86 156.2,-70.2 			"/>
			<polygon class="st2" points="126.4,-70.2 172,-115.8 172,-110.6 131.6,-70.2 			"/>
			<polygon class="st2" points="138.7,-70.2 172,-103.5 172,-98.3 143.9,-70.2 			"/>
			<polygon class="st2" points="89.6,-70.2 172,-152.6 172,-147.4 94.8,-70.2 			"/>
			<polygon class="st2" points="28.1,-70.2 172,-214.1 172,-208.8 33.3,-70.2 			"/>
			<polygon class="st2" points="0,-238.6 3.6,-242.2 8.8,-242.2 0,-233.4 			"/>
			<polygon class="st2" points="15.8,-70.2 172,-226.3 172,-221.1 21.1,-70.2 			"/>
			<polygon class="st2" points="0,-226.4 15.8,-242.2 21.1,-242.2 0,-221.1 			"/>
		</g>
	</g>
</pattern>
<pattern  x="-112" y="-29" width="172" height="172" patternUnits="userSpaceOnUse" id="Nueva_muestra_de_motivo_copia_2" viewBox="0 -242.2 172 172" style="overflow:visible;">
	<g>
		<rect x="0" y="-242.2" class="st0" width="172" height="172"/>
		<g>
			<polygon class="st3" points="172,-5.2 237,-70.3 242.3,-70.3 172,0 			"/>
		</g>
		<g>
			<polygon class="st3" points="0,-5.2 65,-70.3 70.3,-70.3 0,0 			"/>
		</g>
		<g>
			<polygon class="st3" points="172,-201.8 212.4,-242.2 217.6,-242.2 172,-196.6 			"/>
			<polygon class="st3" points="172,-177.2 237,-242.3 242.3,-242.3 172,-172 			"/>
			<polygon class="st3" points="172,-164.9 249.3,-242.2 254.5,-242.2 172,-159.7 			"/>
			<polygon class="st3" points="172,-189.5 224.7,-242.2 229.9,-242.2 172,-184.3 			"/>
			<polygon class="st3" points="172,-214.1 200.1,-242.2 205.3,-242.2 172,-208.9 			"/>
			<polygon class="st3" points="172,-238.6 175.6,-242.2 180.8,-242.2 172,-233.4 			"/>
			<polygon class="st3" points="172,-226.4 187.8,-242.2 193.1,-242.2 172,-221.1 			"/>
		</g>
		<g>
			<polygon class="st3" points="0,-201.8 40.4,-242.2 45.6,-242.2 0,-196.6 			"/>
			<polygon class="st3" points="0,-78.9 163.3,-242.2 168.5,-242.2 0,-73.7 			"/>
			<polygon class="st3" points="0,-128.1 114.1,-242.2 119.3,-242.2 0,-122.9 			"/>
			<polygon class="st3" points="0,-91.2 151,-242.2 156.2,-242.2 0,-86 			"/>
			<polygon class="st3" points="0,-115.8 126.4,-242.2 131.6,-242.2 0,-110.6 			"/>
			<polygon class="st3" points="3.6,-70.2 172,-238.6 172,-233.4 8.8,-70.2 			"/>
			<polygon class="st3" points="0,-177.2 65,-242.3 70.3,-242.3 0,-172 			"/>
			<polygon class="st3" points="0,-164.9 77.3,-242.2 82.5,-242.2 0,-159.7 			"/>
			<polygon class="st3" points="0,-189.5 52.7,-242.2 57.9,-242.2 0,-184.3 			"/>
			<polygon class="st3" points="0,-152.7 89.6,-242.2 94.8,-242.2 0,-147.4 			"/>
			<polygon class="st3" points="0,-140.4 101.8,-242.2 107.1,-242.2 0,-135.2 			"/>
			<polygon class="st3" points="0,-103.5 138.7,-242.2 143.9,-242.2 0,-98.3 			"/>
			<polygon class="st3" points="0,-214.1 28.1,-242.2 33.3,-242.2 0,-208.9 			"/>
			<polygon class="st3" points="77.3,-70.2 172,-164.9 172,-159.7 82.5,-70.2 			"/>
			<polygon class="st3" points="101.8,-70.2 172,-140.3 172,-135.1 107.1,-70.2 			"/>
			<polygon class="st3" points="65,-70.2 172,-177.2 172,-172 70.2,-70.2 			"/>
			<polygon class="st3" points="52.7,-70.2 172,-189.5 172,-184.3 57.9,-70.2 			"/>
			<polygon class="st3" points="40.4,-70.2 172,-201.8 172,-196.6 45.6,-70.2 			"/>
			<polygon class="st3" points="163.3,-70.2 172,-78.9 172,-73.7 168.5,-70.2 			"/>
			<polygon class="st3" points="114.1,-70.2 172,-128.1 172,-122.8 119.3,-70.2 			"/>
			<polygon class="st3" points="151,-70.2 172,-91.2 172,-86 156.2,-70.2 			"/>
			<polygon class="st3" points="126.4,-70.2 172,-115.8 172,-110.6 131.6,-70.2 			"/>
			<polygon class="st3" points="138.7,-70.2 172,-103.5 172,-98.3 143.9,-70.2 			"/>
			<polygon class="st3" points="89.6,-70.2 172,-152.6 172,-147.4 94.8,-70.2 			"/>
			<polygon class="st3" points="28.1,-70.2 172,-214.1 172,-208.8 33.3,-70.2 			"/>
			<polygon class="st3" points="0,-238.6 3.6,-242.2 8.8,-242.2 0,-233.4 			"/>
			<polygon class="st3" points="15.8,-70.2 172,-226.3 172,-221.1 21.1,-70.2 			"/>
			<polygon class="st3" points="0,-226.4 15.8,-242.2 21.1,-242.2 0,-221.1 			"/>
		</g>
	</g>
</pattern>
<pattern  x="-112" y="-29" width="172" height="172" patternUnits="userSpaceOnUse" id="Nueva_muestra_de_motivo_copia_3" viewBox="0 -242.2 172 172" style="overflow:visible;">
	<g>
		<rect x="0" y="-242.2" class="st0" width="172" height="172"/>
		<g>
			<polygon class="st4" points="172,-5.2 237,-70.3 242.3,-70.3 172,0 			"/>
		</g>
		<g>
			<polygon class="st4" points="0,-5.2 65,-70.3 70.3,-70.3 0,0 			"/>
		</g>
		<g>
			<polygon class="st4" points="172,-201.8 212.4,-242.2 217.6,-242.2 172,-196.6 			"/>
			<polygon class="st4" points="172,-177.2 237,-242.3 242.3,-242.3 172,-172 			"/>
			<polygon class="st4" points="172,-164.9 249.3,-242.2 254.5,-242.2 172,-159.7 			"/>
			<polygon class="st4" points="172,-189.5 224.7,-242.2 229.9,-242.2 172,-184.3 			"/>
			<polygon class="st4" points="172,-214.1 200.1,-242.2 205.3,-242.2 172,-208.9 			"/>
			<polygon class="st4" points="172,-238.6 175.6,-242.2 180.8,-242.2 172,-233.4 			"/>
			<polygon class="st4" points="172,-226.4 187.8,-242.2 193.1,-242.2 172,-221.1 			"/>
		</g>
		<g>
			<polygon class="st4" points="0,-201.8 40.4,-242.2 45.6,-242.2 0,-196.6 			"/>
			<polygon class="st4" points="0,-78.9 163.3,-242.2 168.5,-242.2 0,-73.7 			"/>
			<polygon class="st4" points="0,-128.1 114.1,-242.2 119.3,-242.2 0,-122.9 			"/>
			<polygon class="st4" points="0,-91.2 151,-242.2 156.2,-242.2 0,-86 			"/>
			<polygon class="st4" points="0,-115.8 126.4,-242.2 131.6,-242.2 0,-110.6 			"/>
			<polygon class="st4" points="3.6,-70.2 172,-238.6 172,-233.4 8.8,-70.2 			"/>
			<polygon class="st4" points="0,-177.2 65,-242.3 70.3,-242.3 0,-172 			"/>
			<polygon class="st4" points="0,-164.9 77.3,-242.2 82.5,-242.2 0,-159.7 			"/>
			<polygon class="st4" points="0,-189.5 52.7,-242.2 57.9,-242.2 0,-184.3 			"/>
			<polygon class="st4" points="0,-152.7 89.6,-242.2 94.8,-242.2 0,-147.4 			"/>
			<polygon class="st4" points="0,-140.4 101.8,-242.2 107.1,-242.2 0,-135.2 			"/>
			<polygon class="st4" points="0,-103.5 138.7,-242.2 143.9,-242.2 0,-98.3 			"/>
			<polygon class="st4" points="0,-214.1 28.1,-242.2 33.3,-242.2 0,-208.9 			"/>
			<polygon class="st4" points="77.3,-70.2 172,-164.9 172,-159.7 82.5,-70.2 			"/>
			<polygon class="st4" points="101.8,-70.2 172,-140.3 172,-135.1 107.1,-70.2 			"/>
			<polygon class="st4" points="65,-70.2 172,-177.2 172,-172 70.2,-70.2 			"/>
			<polygon class="st4" points="52.7,-70.2 172,-189.5 172,-184.3 57.9,-70.2 			"/>
			<polygon class="st4" points="40.4,-70.2 172,-201.8 172,-196.6 45.6,-70.2 			"/>
			<polygon class="st4" points="163.3,-70.2 172,-78.9 172,-73.7 168.5,-70.2 			"/>
			<polygon class="st4" points="114.1,-70.2 172,-128.1 172,-122.8 119.3,-70.2 			"/>
			<polygon class="st4" points="151,-70.2 172,-91.2 172,-86 156.2,-70.2 			"/>
			<polygon class="st4" points="126.4,-70.2 172,-115.8 172,-110.6 131.6,-70.2 			"/>
			<polygon class="st4" points="138.7,-70.2 172,-103.5 172,-98.3 143.9,-70.2 			"/>
			<polygon class="st4" points="89.6,-70.2 172,-152.6 172,-147.4 94.8,-70.2 			"/>
			<polygon class="st4" points="28.1,-70.2 172,-214.1 172,-208.8 33.3,-70.2 			"/>
			<polygon class="st4" points="0,-238.6 3.6,-242.2 8.8,-242.2 0,-233.4 			"/>
			<polygon class="st4" points="15.8,-70.2 172,-226.3 172,-221.1 21.1,-70.2 			"/>
			<polygon class="st4" points="0,-226.4 15.8,-242.2 21.1,-242.2 0,-221.1 			"/>
		</g>
	</g>
</pattern>
<g>
	<pattern  id="SVGID_1_" xlink:href="#Nueva_muestra_de_motivo_copia_3" patternTransform="matrix(1 0 0 1 141 -199)">
	</pattern>
	<path class="st5" d="M793,487c0.7,1.9-1,3.8-2.8,6.6c-2,5.2-2.1,8.8-2.7,14.2c-0.6,5.2-1.8,10.3-3.9,15.1c-0.9,2.1-1.8,4-4.3,4.9
		c-1.8,0.7-1.7,2.6-1.8,4.3c-0.2,2.1,0.9,4.7-0.7,6.2c-1.8,1.6-4-0.5-6.1-0.7c-6.3-0.8-12.6-1.1-19-1c-3.7,0.1-7.3-0.1-10.8-1.7
		c-2.5-1.2-5.5-0.7-8,0.7c-2.2,1.3-3,3.4-2.1,5.8c1.1,2.8,0.2,4.9-2.2,6.3c-2.9,1.8-4.2,4.4-4.1,7.7c0.1,3-1.4,3.9-4,3.4
		c-4.8-0.9-9.9-1.3-14.3-3.2c-6.9-3-13.9-5.5-21-7.7c-6.6-2.1-9.4-7.9-13.1-12.8c-0.6-0.8-0.6-2-0.3-3c0.8-3.5,5-7.4,8.6-8.2
		c2.8-0.6,5.4-1.6,8.4-1.2c1.5,0.2,2.9-0.9,4.1-1.8c3.7-2.9,7.2-6.1,11.8-7.5c2.3-0.7,3.7-2.8,4.8-5c1.7-3.3,1.1-4.6-2.6-5.4
		c-0.9-0.2-1.7-0.4-1.9-1.3c-0.8-3-2.8-5.8-1.1-9.1c1-1.8-0.1-2.9-1.8-3.5c-2.9-1.1-5.7-2.2-8.7-2.9c-2.5-0.6-2.9-1.8-1.3-3.9
		c1.1-1.5,2.8-2.1,4.5-2.4c4.8-0.7,9.2-2.3,13.5-4.7c4.8-2.7,10.5-2.5,15.9-3c1.7-0.2,2.6,1.5,3.6,2.6c4,3.8,4.3,3.9,8.8,0.7
		c3.6-2.5,6.8-1.3,8.1,2.8c0.2,0.6,0.2,1.2,0.4,1.8c0.7,3.4,3.2,4.9,6.3,3.5c4.4-1.9,8.9-2.6,13.2,0.4c4.2,3,9.4,3,14.2,0
		c1.5-0.9,3.9-2.5,5.7-2.9C790.5,480.5,792.1,482.5,793,487z"/>
</g>
<g>
	<pattern  id="SVGID_2_" xlink:href="#Nueva_muestra_de_motivo_copia_2" patternTransform="matrix(1 0 0 1 141 -199)">
	</pattern>
	<path class="st6" d="M741.5,420.9c1.8,0.8,2.2,2.2,1.5,4c-0.6,1.4-1,2.9-1.8,4.2c-1.4,2.6-2.2,5.2-1.8,8.2c0.3,2.4-0.7,4.1-2.9,5.1
		c-0.9,0.4-1.9,0.9-2.3,1.9c-2,4.6-5.3,8.4-8.1,12.5c-1.1,1.6-1.7,3.3-0.8,5.4c2.1,4.4,0.1,8.4-4.7,9.7c-1.2,0.3-2.4,0.5-3.6,0.7
		c-3.7,0.7-7.2,1.7-10.4,3.9c-3.3,2.2-7.5,2.4-11.3,3.3c-2.8,0.7-4.6,2.3-5.5,5.1c-0.8,2.4,0,3.5,2.3,3.8c2.7,0.3,5.3,1.1,8,2
		c1.9,0.6,2.9,1.6,2.4,3.8c-0.6,2.5-0.2,5,0.5,7.5c0.6,2.1,1.2,3.7,4.1,3.4c2-0.2,2.3,1.3,1.5,2.9c-1.1,2.2-2.8,3.8-5,4.7
		c-3.6,1.5-6.8,3.6-9.7,6.2c-2.6,2.3-5.5,3.8-9.1,3.4c-0.6-0.1-1.2,0-1.8,0.1c-5.6,0.7-5.6,0.7-4.8-5.2c0.5-3.4,1.1-6.8-0.6-10.1
		c-0.7-1.4-1.5-2.3-3.2-2.2c-3.3,0.2-6.7,0.1-10,0.4c-2.4,0.2-4.8,0.6-6.4,2.9c-0.7,1-2,1.3-3.2,1.6c-4.6,1-9.1,2.5-13.7,2.7
		c-4.5,0.2-8.6-2.3-11.7-5.5c-3.4-3.6-5.5-8.2-10-10.8c-1.3-0.8-2-2.5-2.5-4.1c-0.3-0.9-0.4-1.9-1-2.5c-3.8-4.6-5.4-10.3-8.1-15.4
		c-1.3-2.5-0.7-4,1.5-5.3c0.3-0.2,0.5-0.4,0.8-0.4c6.9-1.1,11-6,15-11c3.2-4.1,8.3-4.9,12.5-7.1c1.8-0.9,3.7,0,5.5,1
		c2.4,1.4,4.3,3.4,6.3,5.2c1.2,1.1,2.1,1.2,2.6-0.6c0.7-2.8,1.7-5.4,3.1-7.9c1-1.7,0.3-3.5-0.8-5.1c-0.6-0.8-1.6-2.7-1.1-3.8
		c0.6-1.2,2,0.2,3,0.2c2.5,0.2,4.3-0.8,5.3-3.2c1-2.3-0.1-3.9-1.7-5.3c-1.5-1.4-2.7-2.9-1.8-5c1.8-4.4,0.2-7.7-3.1-10.4
		c-2.2-1.9-2.8-4-1.9-6.8c0.4-1.3,0.7-2.7,0.9-4.1c0.6-4.4,2.6-7.2,7.5-7.7c2.9-0.3,3.8-2.9,2.3-5.7c-0.6-1.1-1.6-2-0.3-3.2
		c1.3-1.1,2.8-1.2,4.3-0.5c1.1,0.5,1.6,1.2,0.6,2.3c-3,3.5-2.9,8.1-4.1,12.2c-0.2,0.6-0.2,1.3,0.5,1.6c0.7,0.3,1.1-0.3,1.5-0.7
		c1.5-1.9,2.2-4.1,3.1-6.2c0.4-1,0.6-2.7,2.3-2.1c1.6,0.5,1,1.9,0.7,3.1c-0.8,2.5-0.9,5.2-1.3,7.8c-0.3,2.1-0.2,3.6,2.3,3.9
		c3.5,0.4,5.2-0.3,5.7-2.9c0.2-1.1,0.2-2.2,0.5-3.3c0.4-1.7,1.5-2.8,3.4-3.1c4.9-0.7,6.7,1.4,5.3,6c-0.4,1.5-1.1,2.9-1.5,4.3
		c-0.8,2.7-2.2,4.6-5.3,4.3c-0.7,0-1.6,0-1.8,0.8c-0.3,0.8,0.6,0.9,1,1.2c1.2,0.9,0.6,1.6-0.3,2c-0.9,0.4-2,0.9-2.9,0.8
		c-3.2-0.4-4.3,2.2-4.6,4.2c-0.4,2.4-1.6,4.1-2.6,6c-1.1,2.2-1.9,4.5-2.9,6.7c-0.4,1-0.8,2.1-1.4,3c-2.3,3.1-2.1,2.8,0.9,4.9
		c3.1,2.2,6.2,2.3,9.7,1.6c5-0.9,10.1-1,15.1-1.1c5.7-0.1,10-2.8,13.4-7.3c1.8-2.4,1.6-4.7-0.5-6.8c-1-1-2.5-1.9-1.6-3.5
		c0.9-1.6,2.7-2.2,4.5-1.9c2,0.4,3.9,1,5.8,1.7c4.5,1.8,8.1,0.5,11.6-2.7c3.3-3,6.1-6.5,10-8.8C737,417.4,739.3,419.1,741.5,420.9z"
		/>
</g>
<g>
	<pattern  id="SVGID_3_" xlink:href="#Nueva_muestra_de_motivo_copia_2" patternTransform="matrix(1 0 0 1 16 -322)">
	</pattern>
	<path class="st7" d="M814.4,525.7c-2,2.4-4.2,3.9-7.6,3.1c-1.8-0.4-2.7,1-3.3,2.4c-0.7,1.7-1.8,3-3.8,2.9c-3.7-0.2-6.6,1.1-8.6,4.4
		c-0.1,0.1-0.1,0.2-0.2,0.3c-0.7,0.9-1.9,1.1-3,0.8l-0.8-0.3c-0.4-0.1-0.7-0.5-0.8-1c-0.4-2.8-1.1-5.3-2-7.6c-1-2.5-1-4.8,0.3-7.2
		c3.4-6.5,3.5-13.7,4.4-20.8c0.5-3.7,0.8-7.4,3.2-10.5c1-1.3,1-2.1,1.2-3.7c0.1-0.7-0.2-2.2-0.1-2.8c0.6-2.5,1.9-4.5,3.6-6.8
		c2.4-3.2,3.9-1.3,5.9-0.5c1.1,0.5,2.3,1.1,3.4,1.1c4.8-0.1,6.8,2.7,7.5,6.9c0.4,2.6,1.7,4.3,4.7,3.7c1.3-0.2,2.2-0.9,2.8-2
		c0.6-1.2,1.6-2,2.8-2.6c3.1-1.6,4.5-0.7,4.4,2.7c0,1.8,0.7,2.4,2.3,2.4c1.9,0,3.8,0,5.7,0c1.7,0,2.8,0.9,3.4,2.5
		c0.6,1.5,0.5,2.8-0.8,3.8c-1.6,1.3-1.1,2.5-0.7,4.2c1.5,5.8,2.1,11.6,1.2,17.6c-0.2,1.3-0.7,2.3-2.2,3.1c-0.5,0.3-1.2,0.3-1.8,0.2
		l0,0c-0.8-0.2-1.4-0.9-1.5-1.7c-0.1-0.6-0.3-1.1-0.8-1.4c-2.2-1.4-2.2-3.6-2.5-5.8c-0.5-4.4-3.2-7.9-5.5-11.6
		c-0.6-0.9-1.5-1.6-2.1,0c-0.9,2.1-2.3,3.7-3.8,5.4c-1,1.3-1.7,2.6-1.4,4.4c0.7,3.6,2.4,7.2-0.3,10.9L814.4,525.7z"/>
</g>
<g>
	<pattern  id="SVGID_4_" xlink:href="#Nueva_muestra_de_motivo_81" patternTransform="matrix(1 0 0 1 0 3)">
	</pattern>
	<path class="st8" d="M526.1,178.5c0.1,1.8,0.4,3.6,0.9,5.3c0,0.1,0,0.1,0,0.2c0.9,3.4,0.4,4-3.2,4.2c-2.2,0.1-4.4,0.1-6.6,0.1
		c-4.6,0.1-5.2,0.7-4.3,5.4c1,5.4,3.6,10.2,6.7,14.3c2.9,3.8,3.5,7.6,3.3,12c0,0.3,0.1,0.6,0,0.9c-1.6,5.1,1.3,8.1,4.7,11.2
		c2.8,2.5,5.8,2.4,9,2.1c2.8-0.3,4.1,0.6,4.9,3.4c1.4,5.3,2.9,10.7,3.9,16.1c1.5,7.9,1.5,7.9,9.6,9.3c0.6,0.1,1.2,0.3,1.8,0.4
		c1.6,0.2,2.6,1.1,2.9,2.6c1.1,5.1,6,7.7,7.8,12.3c0.1,0.3,0.6,0.6,1,0.6c2.8,0.6,5.7,1.4,8.6,0.7c4.2-1,5.8-2.8,6.2-6.9
		c0.3-3.2,0.3-6.4,2.6-9c0.7-0.8,0.4-1.9,0.3-2.9c-0.7-4.7-0.8-4.8,3.8-5.8c2.2-0.5,3.1-1.6,2.9-3.7c-0.2-1.9,0.3-3.8,1.2-5.5
		c0.9-2,3.3-2.2,4.5-3.9c1.7-2.4,3.4-1.2,5.2,0.7c1.1,1.2,2.5,2.2,4,2.8c3.3,1.3,6.3,3.2,8.5,5.9c2.3,2.8,4.2,2.9,7.3,0.9
		c1.3-0.9,2.6-1.3,3.9-0.2c1.6,1.4,3.2,1.2,5,0.6c3.1-0.9,6-0.7,8.1,2.1c2,2.5,3,2.6,5,0.1c1.8-2.3,3.5-4.7,5.3-7
		c2.3-2.9,5.2-4.3,9-3.7c1.6,0.3,3.2,0.4,4.8,0.7c4.4,0.7,5,0.1,4.4-4.2c-0.1-0.5-0.2-1-0.3-1.5c-1.8-9.6-3.5-19.1-5.4-28.7
		c-0.5-2.6-0.1-4.9,1.4-7.1c6-9.3,11.8-18.6,17.6-28c0.8-1.3,1.5-2.8,1.9-4.3c0.2-0.7,0-1.3-0.9-1.6c-3.5-1.1-5.9-3.8-9.2-5.1
		c-4.8-1.9-8.6-5.5-13.4-7.3c-1-0.4-2-1.4-2.7-2.4c-2.1-3.1-5-5.2-7.9-7.3c-2.7-2-4.6-4.4-5.7-7.8c-2.2-6.8-2.8-14.1-6.3-20.6
		c-3.1-5.8-6.6-10.5-12.5-13.2c-1.2-0.5-2.2-1.3-3.1-2.2c-4.8-5.3-9.2-11.1-14.7-15.5c-5.4-4.3-9.7-9.2-12.6-15.4
		c-1.1-2.3-2.5-2.9-5-2.9c-5.6,0-11.2-0.2-16.8-0.4c-11.9-0.5-23.8-1-35.8-1.6c-3-0.1-4,1.3-3.9,4c0,3.4,0,6.8,0.2,10.2
		c0.1,2.3-1,3.1-3.1,2.7c-0.6-0.1-1.2-0.2-1.8-0.3c-3.4-0.4-4.7,0.7-4.5,4.2c0.1,2.8,0.6,5.6,1,8.4c0.9,6.9,3.2,13.5,4,20.3
		c1.2,9.8,1.2,19.8-0.3,29.7c-0.1,0.9-0.1,2.1-0.8,2.5c-3.6,1.9-2.5,5.2-2.6,8.2c-0.1,5.2,1,10.3,0.4,15.7
		C526.1,175.1,526,176.8,526.1,178.5L526.1,178.5z"/>
</g>
<g>
	<pattern  id="SVGID_5_" xlink:href="#Nueva_muestra_de_motivo_81" patternTransform="matrix(1 0 0 1 0 3)">
	</pattern>
	<path class="st9" d="M775.5,300c-1.4,0.1-9.7-0.3-11.4,2.1c-1.7,2.3-3.2,5-1.1,7.9c1,1.3,1,2.5,0.5,4c-0.8,2.5,0,5.1-0.3,7.6
		c-0.2,1.6-0.2,2.1-2.6,1.9c-5.1-0.3-7.6-3.2-9.7-7c-0.4-0.7-0.9-1.3-1.6-1.8c-1.4-0.9-2.5-0.7-4-0.5c-2.6,0.4-4.3,0.2-6.1-2.5
		c-1.4-2.1-4.4-3.5-7-4.6c-5.6-2.5-11.5-3.8-17.5-4.6c-7-0.9-9.7,0.8-12.3,7.3c-0.1,0.2-0.2,0.4-0.2,0.6c-2.1,5.2-2.1,4.7-7.5,4.1
		c-6.1-0.6-9.5-4-12.1-9.1c-0.8-1.7-1.8-3.3-2.9-4.8c-1.5-2.1-2.6-4,0.4-4.3c2.8-0.3,2.2-1.8,0.8-2.9c-2.5-2.1-2.3-4.1-0.8-6.6
		c3.3-5.5,2.6-11.9,3.9-17.9c1.4-6.8-0.7-12-5.7-16.4c-4.1-3.6-6-8.4-7-13.7c-1.9-9.7-3.8-19.5-5.9-29.2c-0.5-2.2,0-4,1.2-5.7
		c7.4-10.5,13.8-21.5,20.2-32.6c2.8-4.8,5.3-9.6,9.2-13.7c2.5-2.5,4.2-5.7,5.1-9.3c1.2-5.3,5-8.7,9.1-11.9c1-0.7,2-0.8,3.2-0.7
		c8.2,1.1,16.5,1.2,24.8,1.5c5.9,0.2,9.2,2.5,11,7.6c0.5,1.5-1.1,2-1.8,2.9c-0.3,0.5-1,0.9-0.7,1.6c0.3,0.7,1,0.3,1.6,0.3
		c5.6-0.4,13,3.4,15.5,7c4.2,6.3,6.9,13.1,9.8,20c1.9,4.4,4.8,8.3,6.5,12.8c0.6,1.6,2,2.8,3.5,3.8c2.9,1.9,5.2,4.3,7,7.2
		c2.2,3.6,1.9,8.2-0.9,11.4c-1.4,1.6-2.3,1.7-3.7,0.5c-4.8-4.2-8.5-2.9-9.5,3.5c-0.7,4.5-2.8,7.1-7.4,8c-4.3,0.9-7.2,3.8-8.6,8
		c-0.4,1.2-0.5,2.5,0.6,3.4c1,0.8,2.1,0.5,3.2,0.2c3.3-1,4.9,0,5.6,3.4c0.9,4.5-2,9.1-6.3,10.6c-5.2,1.8-9,5.6-12.6,9.5
		c-1.1,1.2-0.9,2.6,0.2,3.6c5.8,5.1,8.9,11.6,9.7,19.2c0.1,0.8,0.4,1.8,1,2.2c5.8,4.2,8.1,12.6,16.4,13.8c0.7,0.1,2.4,0,2.3,0.9
		c-0.1,0.9-1.9,1.4-2.6,1.4C777.4,300,776.4,300,775.5,300z"/>
</g>
<g>
	<pattern  id="SVGID_6_" xlink:href="#Nueva_muestra_de_motivo_81" patternTransform="matrix(1 0 0 1 0 3)">
	</pattern>
	<path class="st10" d="M795.1,217c1-0.6,1.9-1.2,2.8-1.8c4.2-3,7.8-0.2,8.2,4.4c0.6,7,1.8,13.9,4.8,20.3c0,0.1,0.1,0.2,0.1,0.3
		c0.5,1.9,1.1,3.8,2.3,5.4c7.2,10.2,6.3,8.8,12.4,12c5.1,2.7,10.1,5.4,15.9,6.2c5.3,5.3,12.1,4.2,18.6,4.7c3,0.2,5.4,1.3,7.5,3.4
		c3.2,3.2,4.1,3.1,7.4,0.1c1-0.9,2.2-1.7,3.6-1.1c1.4,0.6,1.1,2.1,1,3.2c-0.7,6.7-2.7,13.1-5.5,19.2c-4.3,9.5-7.3,19.3-8.2,29.7
		c-0.1,1.2-0.1,1.2-1.4,3.1c-0.6-1.8-0.3-3.5-0.2-5.2c1-9,3.9-17.4,6.8-25.8c0.4-1.2,1.2-2.5,0.3-3.8c-0.4-0.6-1-1.2-1.7-1
		c-0.8,0.1-0.7,0.9-0.7,1.5c0,0.4,0,0.8-0.1,1.2c-0.2,1.1,0,2.6-1,3c-1,0.5-1.6-1-2.3-1.6c-0.7-0.5-1.4-1.2-2.4-0.6
		c-0.8,0.5-1.1,1.6-0.6,2.1c2.1,2.2,0.2,4.8,0.6,7.1c0.3,1.5-0.1,3.2,0.6,4.8c0.2,0.4,0.4,1.2,0.2,1.4c-1.9,2.3-1,5-1.2,7.6
		c0,1,0.4,2.5-1.6,1.8c-0.1-0.1-0.4,0.1-0.5,0.2c-1.2,1.2,0.4,8.6,2,9.1c2.1,0.7,2.5,2.3,2,4.1c-0.7,3.2-0.3,6.7-1.5,9.5
		c-2.1,4.8-1,9.4-0.9,14.2c0.1,5.4,0.9,10.7,1.9,16c0.7,3.6,0.8,7.3,0.1,10.9c-0.4,1.9-1.1,3.5-2.3,5.1c-1.1,1.5-3.9,4,0,6
		c0.6,0.3,1.5,7.2,1.1,7.7c-0.7,1.1-1.5,0.3-2.1-0.1c-2-1.4-3.9-2.9-5.9-4.3c-1.9-1.4-3.9-1.8-6.2-0.6c-3.5,1.7-7.4,1-11.1,1.4
		c-4.7,0.6-9.5,0.5-14.3,0.5c-2.9,0-5.3-1.2-6.4-4.2c-0.8-2.3-2.5-4-4.4-5.3c-1.5-1-3.2-2.1-4.5,0.4c-0.6,1.1-1.6,0.6-2.4,0.4
		c-3.3-1-6.6-1.9-9.9-3c-2.4-0.8-3.3-3-2.2-5c2.4-4.3,1.7-7.1-2.6-9.7c-1.4-0.9-1.9-2-1.9-3.5c0-1.6,0.4-2.9,2.4-2.6
		c1.8,0.3,2.3-0.7,2.3-2.3c0.1-3,0.5-5.8,1.7-8.6c0.9-2.1,2.3-3.3,4.7-3.1c0.4,0,0.8,0,1.2,0c2.7,0.1,5.4,0.2,6.9-2.7
		c1.6-3,0-5.3-1.7-7.5c-1.9-2.5-2.6-5-2-8.2c0.5-2.8,0.7-5.9-1.5-8.4c-1-1.2-0.6-2.1,0.7-2.6c4.4-1.9,7.1-6.4,11.9-7.8
		c1.7-0.5,1.9-2.4,2.1-4.1c0.6-4.1,1.7-5.3,5.6-6c2.2-0.4,3.9-1.7,5.6-2.9c3.6-2.5,7-5.2,10.2-8.2c2.7-2.6,2.6-3.4-0.6-5.1
		c-1.6-0.8-1.9-2.3-2.1-3.8c-0.4-2.2-0.5-4.4-0.8-6.6c-0.1,0-0.2-0.1-0.3-0.1l-0.3-7c-1-1.1-1.8-1.1-2.5-1c-3.8,0.3-7.5,0.4-11.2-1
		c-2.2-0.8-4-1.4-4.2-4c-0.1-1.1-0.4-2.4-1.6-2.7c-5-1.1-5.5-5-5.7-8.9c-0.1-2.9-1.1-4.3-4-4.5c-2.5-0.2-3.3-1.5-2.7-3.9
		c0.3-1.3,1-3.2-0.6-3.8c-2.5-1-2.3-2.8-2.2-4.7c0.2-5.2-1.1-10.1-4.3-14.3c-0.6-0.8-0.9-1-2-1.7c-0.6-0.5-0.8-1.3-0.4-2
		C794.2,217.9,794.7,217.3,795.1,217z"/>
</g>
<g>
	<pattern  id="SVGID_7_" xlink:href="#Nueva_muestra_de_motivo_81" patternTransform="matrix(1 0 0 1 0 3)">
	</pattern>
	<path class="st11" d="M1192.3,401.6c6.4-0.4,12.7-1.3,18.8-2.9c1.7-0.4,3.2,0.2,4.7,1.1c1.9,1.1,3.8,2.5,6,3.1
		c1.7,0.5,2.3,1.9,2.6,3.5c2.5,10.6,0.1,19.9-7.4,27.8c-2.6,2.7-3.8,6.3-5.8,9.3c-3.5,5.4-3.2,11-3,16.8c0,1,0.2,1.8-1.4,2.1
		c-1.9,0.4-1.7,2.6-2.4,4c-0.5,1-0.1,3-2.4,1.9c-0.7-0.4-1,0.6-0.8,1.2c0.4,1.3,1.3,2.6,2.6,1.8c1.6-1,3.5-1.1,4.8-2.5
		c0.4-0.5,0.8-1,1.5-0.6c0.6,0.4,0.6,1,0.7,1.6c0.3,2.7-2.1,6.9-4.6,8.1c-1,0.5-2.1,0.9-2.4,2.1c-0.3,1.1-0.6,2.4,0.3,3.2
		c1,0.8,1.5-0.6,2.2-1.1c0.8-0.5,1.5-1.1,2.5-1c1.1,0,2.1,0.6,1.2,1.7c-4.2,4.7-2.6,10.7-3.6,16.1c-1.2,6.7-1.6,13.6-3.1,20.3
		c-0.1,0.6-0.5,1.1-0.8,1.9c-1.2-1.6-2.4-2.8-2.9-4.5c-0.7-2.3-1.8-4.2-4.5-5c-1.9-0.5-1.8-2.2-1.5-3.8c0.6-2.8,1.2-5.6,1.7-8.4
		c0.1-0.7,0.3-1.8-0.6-2.2c-1-0.5-1.2,0.7-1.8,1.2c-2.2,1.9-3.1,4.2-3.2,7.3c-0.2,3.7-2.4,6.7-6.1,8.2c-2.1,0.9-3.6,2.2-4.5,4.4
		c-2,5.2-5.1,9.8-7.1,14.9c-1.5,4-3,4.3-6.8,2.2c-2.6-1.5-4.2-0.8-5,2.2c-0.6,2.4-1.4,4-4.2,3.8c-2.8-0.2-3.4-2.2-3.6-4.5
		c-2.4-19.7-3.6-39.5-7.2-59.1c-0.5-2.7,0.9-4.2,2.8-5.6c13.5-10.5,27-21,40.5-31.5c0.7-0.6,1.4-1.3,2.1-1.7
		c10.9-6.8,11.9-17.4,10.7-28.6c-0.3-3,0.5-4,3.2-4.5c1.6-0.3,4.3-0.1,3.9-2.4c-0.4-2.1-2.7-0.9-4.2-0.7
		C1200.2,403.1,1196.2,403.5,1192.3,401.6z"/>
</g>
<pattern  id="SVGID_8_" xlink:href="#Nueva_muestra_de_motivo_81" patternTransform="matrix(1 0 0 1 0 3)">
</pattern>
<path class="st12" d="M826.1,517.8c-2.1-0.3-4.7-0.1-6-2.9c-1.2-2.8-0.2-5,1.7-7c0.7-0.7,1.4-1.4,2.1-2.1c0.9-0.9,1.7-0.9,2.4,0.2
	c1.5,2.4,3.2,4.8,3.6,7.7C830.4,516.6,829.4,517.8,826.1,517.8z"/>
<g>
	<pattern  id="SVGID_9_" xlink:href="#Nueva_muestra_de_motivo_copia" patternTransform="matrix(1 0 0 1 141 -199)">
	</pattern>
	<path class="st13" d="M1064.6,666.8c-6.4-5.6-12.7-11.2-19-16.9c-0.6-0.5-3.2-1.4-0.2-2.6c0.7-0.3,0-0.9-0.4-1.1
		c-1-0.5-2-1.1-3.1-1.3c-5.1-0.9-8.9-3.8-12.4-7.5c-2.2-2.4-4.6-4.7-7.2-6.6c-1.4-1.1-0.6-2.7-1.7-3.7c-1.5-1.4-1.9,1.8-3.6,0.6
		c-4-2.9-8.2-5.4-12.3-8.1c-0.2-0.2-0.6-0.6-0.5-0.7c1.7-2.7-0.6-3-2.2-3.9c-0.9-0.5-1-1.7-1.4-2.6c-3.5-6.7-3-13.3-0.1-20
		c1.8-4.2,3.1-8.7,4.6-13c0.6-1.8,1.7-3.2,3.3-4.3c2.8-2,3.9-4.8,5-8.1c2-5.5,4.5-10.9,5.8-16.7c0.7-3.2,4.2-3.4,6.6-0.9
		c1.9,1.9,2.5,4.4,2.9,7c0.7,4,1.7,7.7,6.7,8.3c0.6,0.1,1.1,0.6,1.6,0.9c3.8,2.8,4.3,2.6,7.4-1.1c3-3.5,4.8-7.9,8.1-11.1
		c3-3,7.1-3.3,10.7-5c0.9-0.4,2,0.4,2.8,0.9c2.4,1.5,4.8,3.2,7.4,4.3c1.7,0.7,2.5,2.3,1.9,4c-0.9,2.5,0.2,3.8,2.3,4.4
		c3.2,1,5.8,2.8,7.9,5.4c0.4,0.2,0.8,0.3,1.2,0.5c4.6,3.8,8.9,7.8,13.7,11.2c2,1.4,4.8,2,7.2,3.1c2.9,1.3,5.5,3.2,6.7,6
		c1.6,3.5,4.2,5.4,7.7,6.5c2.2,0.7,2.7,1.7,1.4,3.8c-1.4,2.1-0.9,4.6-0.7,6.9c0.1,2.2-0.7,3.1-3,3.2c-11.8,0.8-23.7,1.7-35.5,2.5
		c-3.4,0.2-5.6,1.4-7.1,4.6c-3.1,6.7-6.7,13.1-10.3,19.6c-1.4,2.6-1.6,5,0.3,7.1c2.8,3,3.3,6,1.7,9.8c-1.1,2.6-0.5,5.5-0.5,8.2
		c0.1,2.5-0.5,4.7-2.4,6.4C1065.4,666.7,1065,666.8,1064.6,666.8z"/>
</g>
<g>
	<pattern  id="SVGID_10_" xlink:href="#Nueva_muestra_de_motivo_copia" patternTransform="matrix(1 0 0 1 141 -199)">
	</pattern>
	<path class="st14" d="M292.5,10.9c4.1,1.2,8.4,0.6,12.5,0.7c10.8,0.4,21.5,0.9,32.3,1.5c2.2,0.1,4.3,0.3,6.4,0.6
		c2.2,0.3,2.7,1.4,1.2,3.1c-1.7,2-3.4,3.8-5.1,5.8c-1.8,2-2.9,4.1-1.5,6.9c1.1,2.1,1,4.6,0.9,7c0,1.1-0.1,2.6-0.9,3.2
		c-3.7,2.3-1,3.8,0.6,5.4c2.2,2.3,2.8,4.7,1.2,7.8c-2.9,5.9-3.1,12.3-2.5,18.7c0.2,2.6,2.4,4.3,2.6,7.1c0.5,6.7,0.2,13.3,0.1,20
		c-0.1,5.3,1.3,9.8,4.3,14c0.7,0.9,1.4,1.8,1.5,3c0.2,1.9,1.3,2.8,2.9,3.5c3.4,1.5,5.1,4.9,7.6,7.5c3.4,3.6,6.4,7.5,9.9,11
		c2.8,2.9,3.1,6.8,2.5,10.6c-0.2,1.2-0.6,2.4-0.2,3.6c0.4,1.2,0.9,2.1,2.4,1c1.7-1.4,2.6-0.5,3,1.3c0.2,0.8,0.2,1.9,1,2.1
		c3.4,1,3.3,3.7,3.5,6.4c0.3,3,1.7,5.1,4.8,5.7c2.5,0.5,3.8,1.9,4,4.4c0.3,3.2,2.6,5.8,2.6,9.1c0,2.8-0.9,4-3.8,3.9
		c-9.9-0.3-19.7-1.3-29.5-2.2c-2-0.2-4.1-0.5-6.1-0.7c-1.6-0.2-2-1.1-1.6-2.6c0.6-2,1.9-3.9-0.4-5.9c-0.7-0.6,0.2-1.7,0.5-2.6
		c2-4.2,2.2-8.1-2-11.3c-1.6-1.2-2.6-3-3.4-4.7c-1.5-3.1-3.2-5.9-6.2-7.9c-1.1-0.7-1.6-2.1-2.2-3.3c-2-4.1-4.6-7.8-7.6-11.2
		c-0.9-1.1-2.1-2.2-3.3-2.7c-7-2.7-11-9.1-16.8-13.3c-1-0.7-1.6-1.9-1.8-3.1c-0.6-2.7-0.8-5.4-2.8-7.7c-0.8-0.9-0.2-2.4,0.1-3.6
		c1.4-4.8,0.1-9.1-2.6-13c-0.3-0.4-0.5-1-1.1-0.4c-2.3,2.5-1.9-0.3-2-1.1c-0.4-2.7-0.5-5.5-0.8-8.3c-0.4-3.6-1.1-7.1-3.7-9.9
		c-0.7-0.7-0.9-1.6-0.9-2.6c-0.1-6.9-2.9-12.7-7-18c-2.2-2.8-1.4-6.5-2.9-9.6c-0.5-1,1-0.8,1.7-0.5c0.7,0.3,1.4,0.6,1.9-0.2
		c0.4-0.8,0.1-1.5-0.6-2.2c-3.5-3.1-5.7-6.9-6.7-11.5c-0.9-3.7-2.7-7.1-4.3-10.6c-0.6-1.2-1.2-2.4-0.4-3.8
		C280.1,11.1,286.3,11,292.5,10.9z"/>
</g>
<g>
	<pattern  id="SVGID_11_" xlink:href="#Nueva_muestra_de_motivo_copia" patternTransform="matrix(1 0 0 1 0 3)">
	</pattern>
	<path class="st15" d="M524.8,173.7c-1-7.8-0.6-15.6-0.9-23.4c0-0.9,0.3-1.7,1.2-2c2.2-0.7,2.4-2.6,2.7-4.5c0.3-2.2,0.5-4.5,0.5-6.8
		c-0.1-6.9,1.2-13.7,0-20.6c-1.1-6.4-3-12.6-3.9-19c-0.6-4.5-2.1-8.8-2.3-13.3c-0.1-2.6-0.7-3.2-2.9-3.4
		c-16.3-1.4-32.6-2.4-48.8-3.5c-5.8-0.4-11.7-0.2-17.2-2.6c-12.2-5.4-24-11.7-36-17.7c-22.8-11.4-45.5-22.9-68.3-34.4
		c-0.9-0.5-1.8-0.8-2.9-0.1c-2.2,1.4-3.5,4.5-2.8,7.2c0.9,3.4,1.1,6.9,0.1,10.3c-0.3,1-0.6,2.2,0.2,2.9c2.4,2.1,3.7,5.2,6.1,7.3
		c1.7,1.5,3.8,2.2,5.9,3c2.7,1,6,2.4,6.6,5.7c0.5,2.8,2,3.8,4.3,4.3c2.5,0.5,5,1,7.6,1.5c1.3,0.3,2.8,0,3.8,1.1
		c2.3,2.6,2.3,0.3,2.5-1.3c3,2.4,3.5,3.5,2,4.9c-1.6,1.5-1.6,2.5-0.3,4.1c0.7,0.8,1.1,2.1,1.2,3.1c0.2,5.1,2.6,9.2,5.1,13.3
		c1.5,2.4,2.8,5.1,3.6,7.8c0.8,2.5,1.6,4.8,4.1,6.2c1.2,0.7,1.5,2.2,1.6,3.5c0.1,1.7,0.1,3.5,0.2,5.2c0.4,5.4,0.5,10.7,5.1,14.9
		c2.9,2.6,4.1,6.3,4,10.4c0,1.4,0.2,2.8,1.7,3.4c3.7,1.5,4.9,4.8,5.1,8.2c0.4,6.5,3.7,10.6,10.1,12.9c-2.8,1.5-1.8,3.3-0.6,5
		c1.2,1.7,2.6,3.2,3.3,5.2c0.7,1.9,2,3.3,3.7,3.9c4.3,1.4,6.1,4.5,6.9,8.6c0.2,1.1,0.6,2.2,1,3.2c0.3,0.8,0.9,1.9,1.7,1.5
		c3-1.3,3.3,1.2,4.4,2.7c0.8,1,1.4,2.6,3,2.1c1.4-0.4,1.3-1.9,1.3-3.2c0-0.4,0.2-0.8,0.9-0.7c0.3,0.9,0.5,1.9,1,2.7
		c0.7,1.4,1.7,2.7,3.5,2.5c2.9-0.2,4.3,0.9,3.9,3.8c-0.7,4.4-1.2,8.4,0.3,13c2.2,6.7,6.7,11.4,13.9,11.6c1.9,0.1,3.6,0.6,5.3,1.4
		c0.7,0.4,1.4,0.9,1.2,1.9c-0.8,3.5,1.6,6,2.6,8.9c1.3,3.9,4.8,3.9,7.8,4.6c1-0.6-1.1-2,0.6-2.2c0.9-0.1,1.9-1,2.8,0.1
		c0.7,0.8,1,1.5,0.4,2.5c-1.1,1.8-0.1,3.2,1.4,3.8c3.2,1.4,3.4,3.7,2.8,6.6c-0.3,1.2-0.8,3.2,0.6,3.6c1.6,0.5,1.8-1.5,2.3-2.7
		c0.3-0.6,0.5-1.5,1.3-1.5c1-0.1,1,0.9,1.1,1.5c0.3,2.8,1.6,2.2,3.3,1.1c3.5-2.3,7-4.6,10.3-7.4c3.1-2.6,5.9-5.5,7.9-9
		c1.2-2.1,2-4.4-0.1-6.5c-2.7-2.7-3.6-6-2.7-9.6c0.7-3.1,0.1-6-1.1-8.7c-1.2-2.7-2.7-5.3-4.2-7.9c-2.4-4.1-4.5-8.3-5.5-13
		c-0.9-4.1,0.2-5.5,4.4-5.7c2.6-0.1,5.1-0.1,7.7-0.1c2,0,3.1-0.9,2.9-3c-0.1-0.8,0-1.6-0.1-2.4L524.8,173.7z"/>
</g>
<pattern  id="SVGID_12_" xlink:href="#Nueva_muestra_de_motivo_copia" patternTransform="matrix(1 0 0 1 141 -199)">
</pattern>
<path class="st16" d="M792.3,219.6c-0.2,0.5,0.2,1.2,0.4,1.3c5.4,4.6,7.6,10.3,6.5,17.4c-0.2,1.4,0.2,2.6,1.7,3.2
	c1.4,0.5,1.4,1.3,0.9,2.6c-1.3,3.7-1,4.4,2.8,5.3c2,0.5,3.2,1.6,3.7,3.6c0.4,1.6,0.8,3.2,1,4.8c0.3,2.2,1.3,3.8,3.5,4.5
	c2.2,0.7,3.3,2.1,3.5,4.4c0.1,1.5,0.8,3.2,2.3,3.2c2.7,0.1,5.2,0.1,7,2.6c0.2,0.2,1,0.2,1.4,0c2.1-1.1,4.4-1.3,7-1.5l0.1,0.4
	c0,2.2,1.4,11.9,1.5,14.1c0.1,1.8,0.6,3.4,2.6,4.1c1.9,0.6,1.7,2,0.4,3c-5.3,4.3-9.9,9.7-17.1,11.4c-2.6,0.6-4.4,2.4-4.6,5.4
	c-0.2,2.7-1.4,4.8-4.2,5.7c-1.7,0.5-3,1.7-4.3,2.8c-1.1,0.9-2.3,1.7-3.4,2.6c-1.4,1.2-3.9,0.8-4.5,2.8c-0.7,2.2,1.7,3,2.6,4.5
	c0.7,1.2,0.7,2.5,0.4,3.8c-1.2,4.5-0.4,8.4,2.6,12.2c3,3.8,1.8,6.1-3,7.2c-8.7,1.9-8.7,1.9-10.3,10.6c-0.3,1.7-0.8,3.2-2.9,3.3
	c-1.7,0.1-2.5,1.2-2.5,2.9c0,0.2,0,0.4,0,0.6c-0.3,1.1-8.6,4-9.4,3.3c-0.8-0.7-0.7-1.6-0.8-2.5c-0.1-3.4-0.2-6.7-0.2-10.1
	c0.1-4.7-0.7-9.1-3.7-12.9c-1.7-2.2-1.7-5-1.5-7.6c0.3-4.1-0.7-7.6-3.6-10.6c-3.4-3.6-2.6-8.2-1.9-12.5c0.3-2.1,0.3-4-0.7-5.9
	c-2-3.9,0.2-7.5,4.7-7.8c3-0.2,6.1-0.1,9.2-0.2c1,0,2-0.1,2.9-0.7c1.7-1.2,1.7-3.2-0.2-3.7c-3-0.9-6-1.9-8-4.1
	c-3.9-4-8.3-7.7-11.1-12.5c-0.9-1.5,0.1-3.5-0.5-5.4c-1.4-4.8-4.2-8.5-7.9-11.7c-1.7-1.5-2.2-2.7-0.1-4.3c2.5-1.9,4.8-4.1,7.2-6.2
	c1.5-1.3,3.1-2.3,5.3-1.7c0.9,0.3,1.6-0.1,2.1-0.8c2.9-3.8,4.4-8,3-12.9c-0.9-3.2-2.8-4.1-6-3c-0.9,0.3-1.8,0.8-2.6,0
	c-0.9-0.9-0.7-2.1-0.1-3.1c1.7-3.1,4.3-5.3,7.7-6c4.7-1,7.1-3.5,7.8-8.4c0.8-5.6,3.1-6.5,7.8-3.2c2.1,1.4,3.7,1.3,5.3-0.6
	c0.7-0.8,1.5-1.6,2.3-2.4c1-1,2-0.9,2.9,0.2c1,1.2,0.4,2-0.7,2.7c-1.5,0.9-2.9,1.8-3.7,4.3L792.3,219.6z"/>
<g>
	<pattern  id="SVGID_13_" xlink:href="#Nueva_muestra_de_motivo_copia" patternTransform="matrix(1 0 0 1 141 -199)">
	</pattern>
	<path class="st17" d="M582,327.1c-0.7-5.8-3.5-10.8-7.6-14.4c-6.9-6.2-8-13.9-7.3-22.3c0.2-2.4-0.7-5.2,1-7
		c1.6-1.8,4.4-0.5,6.7-0.9c1.2-0.2,2.4-0.4,3.6-0.7c5.2-1.2,6.4-2.7,6.4-7.9c0-2.6,0.4-5,2.2-7c1.2-1.4,1.2-3.1,0.8-4.9
		c-0.6-2.4,0.1-3.9,2.8-4.2c3.1-0.4,4.6-2.1,4.2-5.4c-0.3-2.7,0.6-5,3.4-6.1c0.2-0.1,0.4-0.1,0.5-0.3c2.4-4.4,4.2-1.3,6.8,0.1
		c4.7,2.6,9.1,5.4,13,9c1.7,1.6,4,2.5,6.1,0.1c0.8-0.9,2.1-1,3.1-0.4c1.9,1.3,3.7,0.8,5.7,0.2c3.6-1,5.7-0.3,7.8,2.8
		c1.3,2,2.7,1.8,4.3,0.6c2.1-1.5,3.5-3.6,4.8-5.8c3.4-5.4,7.6-6.7,14.1-5.6c9.6,1.6,13.5,8.6,18.2,15.3c1,1.5,0.5,3.1-0.2,4.6
		c-1.6,3.3-1.7,6.8-1,10.3c0.5,2.7-0.6,4.9-1.6,7.2c-1.3,3-3.6,5.8-1.7,9.3c0.1,0.2,0.1,0.7-0.1,0.9c-2.8,3.6-0.4,6.5,1.3,9.4
		c1.9,3.2,3.8,6.4,6.5,9.1c1.6,1.7,3.5,2.7,5.8,2.7c1.9,0,3.8,0.4,5.5,1.5c1.7,1.2,2.6,0.3,3.2-1.2c0.9-2.2,1.7-4.5,2.6-6.8
		c0.3-0.7,0.5-1.7,1.5-1.6c0.9,0,1.3,0.9,1.6,1.6c2.4,5.2,3.5,10.7,3.8,16.4c0.1,1.8-0.9,2.4-2.5,2.7c-6.3,1.2-12.6,0.4-19-0.1
		c-1-0.1-2-0.2-3-0.3c-4-0.4-7.1,0.3-9.3,4.3c-1.6,2.8-4.1,5.3-6.9,7.1c-2.9,1.8-4.2,4.4-4.2,7.5c0,4.6-1.4,8.4-4.7,11.6
		c-2.6,2.5-3.5,5.8-4,9.2c-1.1,7.5-1,15.1-1.4,22.6c-0.3,4.8-1.3,6.3-5.3,7.1c-3.4,0.7-5.2-0.3-6.7-3.6c-2.1-4.6-4.1-5.4-8.7-3.1
		c-0.5,0.3-1.1,0.6-1.6,0.8c-0.6,0.3-1.3,0.9-1.9,0.3c-0.8-0.7-0.1-1.6,0.4-2.1c3.4-3.8,1.7-8,0.9-12.1c-0.2-1.3-1.4-1.9-2.6-2.4
		c-1.8-0.7-3.6-1.8-5.4-1.8c-4.2,0-7.1-2.8-10.4-4.5c-1.8-0.9-2.3-3-3.4-4.5c-4.7-6.8-6.8-14.6-8.3-22.6c-0.9-4.9-2.6-9.5-6.3-13.1
		c-1.7-1.6-3.5-2.2-5.8-1.5c-2,0.7-4.1,1-6.2,0.8C582.9,327.9,582.5,327.5,582,327.1z"/>
</g>
<g>
	<pattern  id="SVGID_14_" xlink:href="#Nueva_muestra_de_motivo_copia" patternTransform="matrix(1 0 0 1 141 -199)">
	</pattern>
	<path class="st18" d="M902.5,539.2c0.9,0,3.1-3.1,3.9-7.1c0.1-0.6-0.1-1.3,0.1-1.9c0.4-1.7,2.6-0.5,3.5,0c1.3,0.7,2.5,1.4,3.5,2.4
		c1.5,1.6,2.8,3.6,3.9,5.6c1,1.9,2,3.8,3.7,5.2c1.4,1.1,3.2,1.6,5,1.8c2.5,0.3,5.3,0.1,7.3,1.6c1.4,1,2.3,2.8,2.3,4.6
		c0.1,2.2-1.2,3.9-1.7,6c-0.7,2.8-0.1,6.4,2.3,8.3c2.7,2.2,7.8,2.1,10.9-0.2c2.8-2.1,5.5-4,9.5-4.8c-1.8,2.3-0.7,3.9,0.5,5.3
		c2,2.3,4.1,4.5,6.8,6c2,1.1,3.9,2,4.8,4.4c0.6,1.6,2.3,1.3,3.7,1.3c8.6,0.1,17.3,0.1,25.9,0.2c2.2,0,3.5,1.7,2.8,3.8
		c-1.8,5.6-3.6,11.1-5.6,16.6c-1,2.8-1.3,5.2,0.5,7.7c0.9,1.4,1.4,3.1,2.1,4.7c0.2,0.6,0.2,1.2-0.3,1.7c-0.6,0.5-1.1,0.1-1.6-0.3
		c-2.2-2-5.6-1.8-7.8-3.7c-0.4-0.3-1.1-0.2-1.3,0.3c-0.4,0.9,0.2,1.6,1,1.9c2.4,1.1,4.9,2,7.3,3.1c1,0.5,2.3,0.7,3,2
		c-1.4,0.4-2.5-0.3-3.5-0.7c-4.5-1.7-8.9-3.4-13.8-3.5c-1.1,0-3,0.1-3.2-1.2c-0.3-1.8,2-1,3.1-2c-1.4-1.8-3-2.7-5.1-1.1
		c-1.7,1.3-2.8,1.6-3.4-0.9c-0.4-1.6-1.7-2-3.1-1.3c-1.4,0.7-2.5,1.9-2.3,3.6c0.1,0.7,0.9,0.6,1.5,0.7c1.2,0.2,1.2,0.2,0.4,1.6
		c0.9,0.8,2.2-0.5,3.2,0.6c-1,1.1-2.3,1.1-3.6,1.1c-5.7,0-10.5,1.3-14.7,5.8c-3.3,3.5-8.4,4.7-13,6.4c-3.7,1.3-7.2,2.8-10.5,4.8
		c-4.8,3-10.3,4.5-15.7,3.9c-5.4-0.7-11-1.5-15.8-4.3c-5.7-3.4-11.9-4.1-18.2-4.4c-6.4-0.3-12.4-1.1-17.4-5.8c-3.4-3.2-8-3.8-12.6-4
		c-0.9,0-2,0.4-2.5-0.6c-0.6-1.2,0.9-1.8,1.4-2.5c1.7-2.6,3.5-5,6-6.8c8.1-5.8,9.9-10.5,5-17.2c-0.5-0.7-1.1-1.5-1.8-2
		c-6.6-4.6-9.2-10.5-8.4-18.3c0.2-1.9,0-3.7,0-6.2c0-5.3,2.4-7,7.2-6.5c2,0.2,4,0.7,6,1.2c1.2,0.3,2.5,0.6,3.4-0.5
		c0.9-1,0.3-2.2-0.2-3.1c-1.7-2.9-0.5-5.3,1.6-7.3c1.3-1.2,3.7-2.9,3.7,0.8c0,1.9,1.9,2.8,3.1,5.9c0.6,1.5,1.9,1.6,2.9,0.3
		c1.3-1.7,3.1-2.2,5.1-2.3c0.7-0.1,1.4,0,2.2,0c2.9,0.2,9.9,0.3,14.5-4c1.7-1.6,2.5-3.8,2.5-6.1L902.5,539.2z"/>
</g>
<g>
	<pattern  id="SVGID_15_" xlink:href="#Nueva_muestra_de_motivo_copia" patternTransform="matrix(1 0 0 1 141 -199)">
	</pattern>
	<path class="st19" d="M818.7,521.9c0.1-0.1,0.1-0.2,0.2-0.2c1.6-2.2,2.7-4.7,6.5-3.4c2.8,1,5.7,0.5,7.9,3c0.6,0.7,0.9,1,1.9,1.9
		s1.9,0,2.8,0.5c1,0.5,1.3,1.1,1.2,2.2l-1.1,10.5c0,0.5-0.5,0.9-1,0.8c-1.8-0.1-3.9,0.9-4.9,1.6c-3.8,2.9-4.2,2.9-7.5-0.5
		c-1.2-1.3-2.6-1.6-4.2-1.1c-0.7,0.2-1.6,0.8-2,0.5c-2.4-1.5-2.9-4.5-5-6.4c-1.1-1,0.3-2.2,0.9-3.3c0.5-0.9,0.8-1.2,1.6-2.6l2.5-3.5
		C818.5,522.2,818.6,522,818.7,521.9z"/>
</g>
<g>
	<pattern  id="SVGID_16_" xlink:href="#Nueva_muestra_de_motivo_copia" patternTransform="matrix(1 0 0 1 141 -199)">
	</pattern>
	<path class="st20" d="M418.4,323c0.9-0.7,1.5-0.6,2.1-0.5c0.6,0.1,1.2,0.2,2.6,0.4c-2.1-2-3.6-3.7-4.4-5.8
		c-0.7-1.7-2.2-1.6-3.7-1.3c-1.2,0.2-2,0.2-2.3-1.3c-0.4-2.8-2.5-4.9-3.6-8.4c-0.2,3.2-1.3,2-2.4,1.7c-1.7-0.5-3.8-5-2.8-6.4
		c0.2-0.3,0.7-0.7,0.6-1c-1.2-6,2.7-11,3.2-16.6c0.3-3.1,1.7-6.1,0.9-9.6c-0.4,1-0.7,1.6-1.3,2.8c-0.3-3-0.8-5.4-0.8-7.9
		c-0.1-5.8-3.9-9.7-6.6-14.3c-0.3-0.5-1-1-1.5-1c-4.1,0.3-6.2-3.4-9.5-4.7c-0.4-0.2-0.9-0.6-0.9-0.7c0.8-3.3-2.1-3-3.8-3.9
		c-1.6-0.8-3.1-2-3.1-3.9c0-3-3.1-5.4-1.7-8.9c0.4-1-1.5,0.2-2.4-0.6c0.6-1.4,1.3-2.8,1.8-4.3c0.3-0.7,0.7-1.8-0.2-2.3
		c-1-0.6-1.3,0.7-1.7,1.3c-0.5,0.8-0.8,1.6-1.2,2.5c-1.6,3.2-4.5,3.5-6.7,0.5c-0.4-0.5-0.4-1.5-1.4-1.4c-1,0.1-1.1,1.1-1.3,1.9
		c-0.4,1.2-0.8,2.4-2.2,2.7c-1.5,0.3-1.7-1.2-2.5-1.8c-3.5-2.7-5.2-7.6-10.2-8.5c-0.8-0.1-1.6-1-2.1-1.7c-2.1-2.7-4.1-4.9-8.2-5.1
		c-3-0.1-4.4-3.3-4.6-6.2c-0.3-4.1-2.1-6.3-5.7-8.5c-4-2.4-7-6.6-10.1-10.4c-1.4-1.7,0.2-2.7,1.9-2.3c2.3,0.4,4.6,1.1,6.8,1.9
		c4.1,1.4,8.2,2.1,12.1-0.6c0.8-0.5,1.6-0.8,2.4,0.3c3.4,4.8,3.4,4.8,7.1,0.7c-1-1-2.8,0.4-3.9-2c-1.1-2.5,0.2-3,1-4.2
		c0.5-0.8,1.2-0.7,1.6,0.3c0.8,2,2.5,2.3,4.3,2.4c9.3,0.8,18.6,1.6,27.9,2.4c0.5,0,1,0.1,1.5,0.1c4.9,0,8.8,1.2,10.4,6.8
		c0.9,3,3.2,5.5,5.7,7.6c4,3.3,6.4,7.5,7.6,12.4c0.7,3,2,5.3,4.7,6.9c1.9,1.1,2.2,2.9,2.7,5.1c1.1,4.7,1.1,9.8,3.2,14.3
		c0.5,1.1,1.3,3,2.8,2.3c1.8-0.9,0.1-2.3-0.5-3.3c-1.3-2.3-2.2-4.7-2.1-7.3c0.1-1.9,1-2.5,2.6-1.1c0.8,0.7,1.6,1.4,2.1,2.3
		c3.4,6,8.6,11.3,8.2,19c-0.1,1.1,0.2,2.3,0.7,3.3c1.5,3.2,1.8,6.4,0.8,9.8c-0.5,1.7,0,3.5,0.9,5.1c2.1,3.8,3.6,8.1,7.1,11.1
		c1.2,1.1,1.4,2.7,1.5,4.3c0.4,5.1,2,9.8,4.7,14.2c1,1.6,1.9,3.4,2.7,5.2c0.7,1.6,1,3.3,0.4,5.1c-2,6.1-0.5,11.7,2.1,17.2
		c0.8,1.7,2.3,2.6,4.1,3c1.1,0.2,2.6,0.1,2.4,2c0,0.7,0.8,0.8,1.4,0.8c0.8,0,1.4-0.5,1.4-1.3c0-0.3,0-0.6,0-0.9
		c-0.3-1.9-1.2-4.4,1-5.3c2-0.9,3.3,1.6,4.7,2.8c2.1,1.9,4,4.1,5.5,6.6c0.5,0.7,0.9,1.6,1.7,1.6c3.3,0.3,3.6,2.7,4,5.2
		c0.3,2,0.8,4,1.3,6c0.6,2.5,1.9,4.4,4.1,5.9c6.5,4.7,5.4,16-2,19.3c-3.1,1.4-6.2,2.8-9.1,4.5c-1.7,1-3,0.7-4.3-0.7
		c-2-2-3-4.4-3.6-7c-0.8-3.6-1.9-7.1-3.3-10.6c-1.9-4.5-4.6-8.2-9.1-10.4c-2.8-1.4-4.8-3.7-6.6-6.3c-4.7-6.6-10.5-12.1-17-16.8
		c-1.4-1-3-1.3-4.6-1.8C421.9,324.9,419.9,324.7,418.4,323z"/>
</g>
<g>
	<pattern  id="SVGID_17_" xlink:href="#Nueva_muestra_de_motivo_copia" patternTransform="matrix(1 0 0 1 141 -199)">
	</pattern>
	<path class="st21" d="M745.4,421.8c0,0.9-1.6,0.7-2.2,0.2c-2.4-1.9-5.9-4.5-7.8-6.1c-0.9-0.7-2-0.5-3-0.7c-2.2-0.6-4-1.8-4.6-4.1
		c-1.1-4.5-4.2-7.4-7.4-10.4c-1.2-1.1-2.3-1.1-3.5,0c-2.2,2.1-5.3,2.7-7.8,4.2c-4.4,2.6-8.9,5.6-11.8,9.8
		c-2.8,4.1-0.6,11.3,3.3,14.2c0.7,0.5,1.3,1.1,1.9,1.8c3.4,3.8,3.2,5.7-0.5,9.3c-3.9,3.7-8.7,4.9-13.8,5.2c-5,0.3-10.1-0.2-15,0.9
		c-3,0.7-4.7-1.7-6.8-3c-1-0.6-0.3-1.4,0.1-2.2c1.7-3.8,3.1-7.8,5.6-11.3c1-1.5,1.7-3.3,2.1-5.1c0.6-2.1,1.4-3.6,3.9-3.3
		c1,0.1,2-0.4,2.9-1c1-0.6,2.2-3.2,0.3-4.1c-0.9-0.5,2.9,1,4.4-1c3-3.8,4.2-9.4,3.6-12.9c-0.5-3-2.8-3.2-5.1-3.2
		c-3.4-0.1-5.1,1.1-5.7,4c-0.2,1.1-0.1,2.3-0.5,3.3c-0.7,2-2.1,3-4.3,2.5c-2.1-0.5-2.4-2.1-2-3.9c0.5-2.3,1.1-4.6,1.6-6.9
		c0.2-0.9,0.4-1.8,0.3-2.7c-0.2-1.6-1.4-2.6-2.9-2.8c-1.5-0.2-1.8,1.2-2.2,2.2c-0.9,2.4-1.4,5.1-3.5,6.9c0.7-3.9,1.8-7.6,4.1-11
		c2-3,1.7-3.8-1.8-4.4c-1.8-0.3-3.9-1.2-5.2,0.6c-1.3,1.7-0.9,3.7,0.4,5.4c0.8,1,0.7,2.1,0,3.1c-0.7,1-1.8,0.8-2.8,0.6
		c-1.6-0.4-3-1-3.1-2.9c-0.1-2.9-0.3-5.8-0.2-8.6c0.2-5.8,0.4-11.7,2.1-17.4c1.1-3.9,2.7-7.6,7.1-9c1.1-0.4,1.4-1.2,1.4-2.2
		c0-0.9,0.1-1.9-0.1-2.8c-0.9-5.6,0.8-9.8,5.8-13.1c2.9-1.8,5.1-4.8,6.8-7.9c1.4-2.5,3.4-3,5.9-2.7c6,0.6,12,1.8,18.1,1.5
		c10.8-0.5,8.3-0.8,8.5-9c0.1-4.6-1.5-8.6-3.2-12.8c-1.8-4.4-1.3-4.8,3.3-5.1c7.3-0.4,13.9,2.6,20.6,4.6c2.3,0.7,4.4,3,5.9,5.1
		c1.6,2.3,3.5,3,6,2.7c3-0.4,5.1,0.4,7,3.2c2,3,4.2,6.1,8.7,6c2,0,1.4,1.8,0.3,2.5c-2.4,1.6-4,3.7-5,6.4c-0.4,1.2-1.6,1.5-2.8,1.6
		c-2.8,0.3-3.9,2-3.3,4.5c0.7,3-0.3,5.2-2.1,7.4c-4.1,5-8,10.2-13.2,14.1c-2.1,1.6-4.4,2.6-7,2.9c-3.7,0.4-6.9,1.8-10.1,3.6
		c-2.1,1.2-2.9,2.6-0.9,4.6c1.2,1.1,1.9,2.5,1.6,4.2c-0.8,5.3,1.8,8.9,5.9,11.7c3.3,2.3,7,2.1,8.4,6.3c0.3,0.8,1.1,1.5,1.9,1.1
		c3.7-1.8,8.6-0.3,9.9-5.3c0.4-1.6,1.1-1,2-0.3c2.2,1.8,2.9,5.6,1,7.8c-1.4,1.7-1.1,3-0.3,4.7C750,413.3,745.2,417.1,745.4,421.8z"
		/>
</g>
<g>
	<pattern  id="SVGID_18_" xlink:href="#Nueva_muestra_de_motivo_copia" patternTransform="matrix(1 0 0 1 141 -199)">
	</pattern>
	<path class="st22" d="M842.4,399.1c2.6-0.5,5-0.5,7.1-1.8c1-0.6,2,0,2.9,0.6c3.3,2.3,6.3,4.9,9.9,6.9c1.6,0.9,2.2,2.7,2.8,4.4
		c3.3,9.8,9.1,18.4,13.7,27.5c0.1,0.2,0.4,0.4,0.9,0.9c-0.2-2.5-0.4-4.6-0.5-6.6c-0.1-0.7-0.4-0.5-0.9-0.6c-2-0.4-2-1.9-0.6-2.8
		c1.4-0.9,0.9-1.5,0.3-2.4c-1.3-2.1-3.2-3.6-5.6-5.7c0.4,1.6,0.5,2.4,0.7,3.3c-0.3,0.1-0.6,0.3-0.9,0.4c-1.2-5.7-3.6-10.9-6.6-15.8
		c1.6,0.1,2,1.3,2.6,2.3c3.2,4.7,6.5,9.2,11.3,12.5c1.9,1.3,3.1,3.2,2.4,5.6c-2.1,7.5,0.8,14.2,3,21.2c2.5,8.1,9.2,12.7,14.3,18.5
		c5.6,6.3,9.7,13.5,14.2,20.5c1.6,2.5,1.9,5.6,2.2,8.6c0.2,2.5,1.3,4.5,3.4,6c2,1.4,3.4,3.5,5.2,5.2c3.7,3.7,7.1,7.8,11.6,10.8
		c-0.1,1.6-2.8-0.3-2.2,1.4c0.4,1.2,1.4,2.6,3.2,2.4c1.9-0.2,3.6,0.6,5.5,1.3c-0.7-2.3-3.2-1.5-4.4-4.1c6.3,2.8,12.2,1.7,18,1.7
		c1,0,1.9,0.7,2.7,1.4c2.6,2.4,5.5,4.2,9,5.2c3.4,1,4.9,3.9,6.2,6.9c1.5,3.6,3.8,5.4,7.7,5.2c2.7-0.1,5.3-0.4,8-0.8
		c2.1-0.3,3.3,0.6,3.8,2.7c0,0.2,0.2,0.4,0.2,0.6c0.5,6.6,4.7,10.9,9.5,14.8c3.6,2.9,6.3,6.4,7.5,11c0.5,1.8,0.2,3.1-1.5,4.2
		c-2.7,1.9-5.7,2.9-8.9,3c-7.9,0.2-15.9,0.3-23.8,0.5c-2.8,0.1-5.3-0.2-6.7-3.2c-0.6-1.4-2.5-1.8-3.8-2.6c-2.2-1.5-4.5-2.9-6.3-4.9
		c-1.1-1.3-2.2-2.5-1-4.4c0.5-0.8,0.4-1.8-0.5-2.5c-0.9-0.6-1.9-0.5-2.6,0.1c-2.4,2.2-5.6,2.9-8.1,5c-3.2,2.7-6.5,2.7-9.3,0.5
		c-2.5-2-3.2-5.5-1.4-8.9c1-1.9,1.3-4,0.9-6.1c-0.2-1.1-0.4-2.2-0.9-3.2c-0.4-0.9-0.9-1.7-1.7-2.2c-2.7-1.8-6.6-0.1-9.6-1.1
		c-4.7-1.6-6.3-5.9-8.3-9.6c-1.5-2.7-6.7-6.3-9.7-6.3c-1.6,0-1.5,1.2-1.4,2.1c0.3,2.9-0.8,5.4-2.3,7.8c-0.7,1.1-1.6,1.5-2.4,0.3
		c-1.6-2.3-3.5-1.9-5.7-1.1c-3.9,1.4-4.3,1.3-5.6-2.6c-0.6-2-2-2.6-3.8-3.2c-3.3-1.1-3.8-2.2-2.2-5.3c1.2-2.4,2.3-4.8,2.5-7.5
		c0.2-2,1.6-2.9,3.4-3.5c0.8-0.2,1.5-0.6,2.2-0.9c1.1-0.6,2.5-1.1,2.4-2.6c-0.1-1.6-1.5-1.8-2.7-2.2c-0.2-0.1-0.6-0.2-0.8-0.2
		c-8.7-2.3-9.7-4.1-7-12.7c1.3-4.1,2.4-6.6,4.8-10.3c1.9-2.9,1-4.8-0.5-5.4c-1.8-0.5-3.3-1.6-5-2.4c-1.5-0.8-3.2-1.2-4.3,0.8
		c-0.6,1.2-0.9,3.2-2.8,2.5c-2-0.7-4-1.9-4.6-4.2c-0.8-2.6-1.7-7.3,1.7-7.9c1.3-0.2,2.6-0.8,3.4-1.8c1.1-1.5,0.5-2.8-2.1-4.5
		c-1.9-1.2-3.2-2.8-3.6-5.1c-0.5-2.9-1.7-3.4-4.3-2.1c-2.5,1.2-3.3,5.2-5,5.3c-2.9,0.2-4.9,1.1-6.8,2.8c-1.7,1.5-2.9,3.4-4.5,5
		c-1.5,1.5-3.3,3.8-5.4,2.4c-2.3-1.4-1.8-4.1-0.8-6.4c0.4-0.9,1-1.8,1.4-2.8c0.2-0.4,0.3-1,0.3-1.4c-0.1-1-2.9-1-1.2-2.2
		c1.7-1.3,2.7-4.6,6-3c1.7,0.8,2.5-0.4,2.6-2.3c0.1-1.5,0.5-3,1-4.5c1-3.2-1.8-7-5.1-7.2c-3.6-0.2-4.6-1.1-5.1-4.7
		c-0.4-2.6-1.3-5-2.6-7.2c-1-1.5-1-2.8,0.2-4.2c1.5-1.8,2-3.9,1.7-6.3c-0.5-4.1,1.7-7.6,3.7-10.8c1.2-1.9,1.1-2.7-0.4-4
		C845.1,401.6,843.4,401.1,842.4,399.1z"/>
</g>
<g>
	<pattern  id="SVGID_19_" xlink:href="#Nueva_muestra_de_motivo_copia" patternTransform="matrix(1 0 0 1 141 -199)">
	</pattern>
	<path class="st23" d="M856.1,494.9c-0.3-0.2-0.5-0.5-0.7-0.9c-0.1-0.2-0.2-0.4-0.3-0.6c-1.5-2.2-1-4.2-0.1-6.3
		c0.9-2.2,1.7-4.4,1.9-6.7c0.2-1.5,0-2.9-1.3-3.8c-1.7-1.3-2.7-1.9,0.2-3.3c2-1,3.2-3.1,4.7-4.8c1.6-1.9,2.9-4,2.7-6.6
		c-0.1-1,0.2-2,0.8-2.8c1-1.4,1.9-3.1,4-2.9c1.8,0.2,1.7,2,1.9,3.4c0.3,1.9,1.9,2.5,3.2,3.5c0.9,0.6,2,1.2,1.9,2.5
		c-0.2,1.2-1.3,1.5-2.3,1.7c-2.4,0.6-3.2,2.1-3.1,4.5c0.2,3.2-0.6,6.5,2.6,8.9c2.9,2.1,4.5,2.2,6.6-0.8c2-2.9,2.7-1.8,7.2,0.6
		c2.3,1.2,0.8,2.8,0.1,4.1c-2.8,5-4.3,10.5-5.3,16.1c-0.6,3.2,0.6,5.2,3.7,6.5c1.8,0.7,3.7,1.2,5.5,1.9c0.8,0.3,1.9,0.5,1.8,1.7
		c-0.1,1-1.1,1.1-1.8,1.4c-1,0.3-2,0.5-2.9,0.9c-2,0.7-3.3,1.7-2.9,4.2c0.4,2.5-1.3,4.6-2.1,6.9c-1.3,4-1,5,2.8,6.6
		c1.6,0.7,2.8,1.7,3.4,3.3c1.1,2.9,3,3.7,6,3c2.7-0.6,4.6-0.8,6,0.2c0.2,0.2,0.3,0.5,0.4,0.9c0.4,2-0.3,4-1.8,5.3
		c-3.8,3.3-8.4,4.1-13.6,3.8c-1.5-0.1-3.1-0.1-4.7,0c-0.6,0.1-1.1-0.1-2,0.8c-0.4,0.4-1.4,1.7-1.9,1.9c-0.7,0.2-0.9-0.9-1.7-2.5
		c-0.6-1.3-2-2.4-2-4.1c0.1-2.9-1.4-2.7-3.3-2c-4.1,1.6-5.8,5.6-4.2,9.8c0.3,0.7,0.7,1.3,0.1,2c-0.6,0.8-1.5,0.6-2.2,0.3
		c-2.5-0.9-5-1.5-7.7-1.3c-1.4,0.1-3,0.2-4,1.2c-2.4,2.3-4.5,1.1-7.2,0.5c-6.1-1.4-9.9-6.1-14.7-9.3c-1.8-1.1-1.9-2.2,0.2-3.2
		c2.3-1.1,4.2-3.1,7.3-2.2c1.8,0.5,1.6-1.3,1.8-2.5c1.8-8.7,1.5-17.5,1.4-26.3c0-0.7,0-1.4,0-2.1c0.1-2.8,0.4-3.8,2.2-4
		c0.8-0.1,1.5,0.2,2.1,0.8l3.4,3.8c2,2.4,3.8,4.4,6.7,4.9c0.7,0.1,10.2-2.5,10.8-3c0,0,0.1-0.1,0.1-0.1c0.9-1,2.1-1.8,3.4-1.9
		c3-0.4,3.4-1.9,1.6-4.1c-1.6-1.9-4.3-2.3-5.9-4.1c-0.3-0.4-0.6-0.9-1-0.9c-0.2,0-0.5-0.1-0.7-0.2L856.1,494.9z"/>
</g>
<g>
	<pattern  id="SVGID_20_" xlink:href="#Nueva_muestra_de_motivo_copia" patternTransform="matrix(1 0 0 1 141 -199)">
	</pattern>
	<path class="st24" d="M862.1,499.3c0.5,0.3,0.9,0.7,1.1,1.2c0.1,0.3,0.5,0.7,0.7,1c0.6,0.8,1.5,1.2,2.4,1.5c1.1,0.3,2.2,0.9,3,1.7
		c1.2,1.2,1.8,2-0.5,2.6c-3.1,0.7-5.5,3.8-9.1,2.9c-0.1,0-0.3,0.2-0.5,0.3c-4.3,2.3-4.3,2.3-8-1c-0.2-0.2-0.4-0.4-0.7-0.6
		c-0.7-0.4-1.3-0.9-1.8-1.5l-2.4-2.6c-0.4-0.4-0.7-0.9-1-1.4c-0.6-0.9-1.6-0.9-2.5-1c-1.4-0.2-2.1-1-2-2.4c0.1-1.5,1.2-1.6,2.3-1.7
		c1.4-0.1,2.7-0.2,4.1-0.4c0.2,0,0.4-0.1,0.5-0.2l3.2-1.4c0.6-0.2,1.2-0.3,1.8-0.2c0.6,0.1,1.2-0.2,1.7-0.1c0.3,0,0.5,0,0.7,0
		c0.6,0,1.2,0,1.7,0.3L862.1,499.3z"/>
</g>
<g>
	<pattern  id="SVGID_21_" xlink:href="#Nueva_muestra_de_motivo_copia" patternTransform="matrix(1 0 0 1 141 -199)">
	</pattern>
	<path class="st25" d="M847.3,495.5c-0.4,0.2-0.9,0.3-1.4,0.3c-0.6,0-1.1-0.1-1.7,0c-2,0.2-3.1-0.7-3.8-2.6
		c-1.7-4.5-1.8-4.5-6.7-4.5c-2.5,0-4.5-0.3-5.1-3.3c-0.5-2.8-3.1-2.9-6.2-1c-1,0.6-1.8,1.4-2.5,2.3c-2,2.6-3.8,2.4-5.3-0.5
		c-0.6-1.2-0.9-2.6-1.4-3.9c-0.8-2.3-2.1-3.7-4.7-3.8c-1.1,0-2.2-0.3-3.2-0.6c-5.3-1.5-6.1-2.7-5.5-8l0.9-3.8
		c0.1-0.4,0.4-0.8,0.8-1.1c2.1-1.2,4-2.3,5.8-3.5c0.9-0.6,1.9-1.2,2-2.4c0.5-3.7,2.5-6.9,4-10.2c0.5-1.1,1.1-2.3,1.7-3.5
		c0.4-0.7,1.2-1.1,2-0.8c3.6,1.2,4.1-0.1,6.6-3.8c1.2-1.8,2.2-2.4,4.3-1.4c3.1,1.5,6.5,1.5,9.9,1.8c1.4,0.1,1.8-0.6,1.6-1.8
		c-0.1-0.6-0.3-1.2-0.3-1.8c0-1.3-0.1-2.9,1.6-3c1.5,0,1.2,1.5,1.3,2.6c0.3,3,2,5,5,5.3c2,0.2,3.1,1.7,4.8,2.2
		c0.2,0.1,0.6,0.4,0.6,0.6c-0.5,2.7-1.1,5.3-1.7,8c0,0.1-0.7,0.2-1.1,0.1c-1-0.2-2.1-1.1-3.1-0.3c-1.7,1.4-3,3.2-4.8,4.4
		c-0.2,0.1-0.3,0.9-0.1,1.1c2.4,1.9,0.6,4,0.2,6c-0.2,0.9-0.3,1.8-0.2,2.7c0.5,4.5,2.7,5.6,6.3,2.8c1.9-1.4,3.5-3.3,5.2-4.9
		c1-1,2-1.9,3.1-2.8c1-0.8,2.1-1.3,3.2-0.2c1.1,1.1,1.4,2.4,0.4,3.8c-1.8,2.4-3.7,4.8-6.5,6c-2.6,1.2-2.3,2.6-0.4,3.9
		c2.7,1.9,2.7,4.2,1.7,6.8c-1.2,2.8-2.7,5.5-2.8,8.7c0,0.7-0.6,1.4-1.1,2.1c-0.4,0.5-0.9,0.9-1.4,1.2L847.3,495.5z"/>
</g>
<g>
	<pattern  id="SVGID_22_" xlink:href="#Nueva_muestra_de_motivo_copia" patternTransform="matrix(1 0 0 1 141 -199)">
	</pattern>
	<path class="st26" d="M799.5,465.1c0.1,1.5-0.3,3-1,4.4c-1.8,3.7-3,7.5-5.6,10.5c-1.3,1.5-2.5,1.6-3.4,0c-1.8-3.4-4.8-5.6-7.5-8
		c-4.4-3.8-5.8-9.1-7.2-14.3c-0.9-3.2,0.7-5.3,4-5.5c3.2-0.2,5.8-2.8,9.2-1.8c0.5,0.1,1-0.3,1.1-0.9c0.4-2.4,2.4-4.1,2.9-6.4
		c0.4-1.9,1.3-2.1,3-1.6c0.8,0.3,1.7,0.5,2.5,0.4c4.1-0.2,5.7-3.3,3.2-5.7c-2.2-2.1-1.2-4.1-0.3-6.2c0.5-1.2,1.5-0.8,2.3-0.4
		c2,0.9,4,2,6.1,2.8c2,0.8,3.6,0.7,4-2c0.1-0.9,0.7-1.7,1.2-2.4c0.7-1,1.5-2.1,3-1.8c1.4,0.2,1.5,1.5,1.8,2.6
		c0.8,2.3,2.1,4.4,3.4,6.5c0.7,1.1,1.9,2.3,0.6,3.6c-1.4,1.4-2.5,3.8-5.2,3c-1.3-0.4-2.2-0.3-2.9,0.8c-2.7,4-4.7,8.4-6.3,12.8
		c-1.1,3-2.6,4.9-5.3,6.1C801.9,462.3,800.2,462.8,799.5,465.1L799.5,465.1z"/>
</g>
<g>
	<pattern  id="SVGID_23_" xlink:href="#Nueva_muestra_de_motivo_copia" patternTransform="matrix(1 0 0 1 141 -199)">
	</pattern>
	<path class="st27" d="M834.2,437.5c-5.9-1.2-11.9-2.2-14.6-9c-0.7-1.7-1.2-4.3-3.6-4.2c-2.5,0.1-3.6,2.4-4.3,4.5
		c-0.8,2.5-2.4,2.7-4.4,1.7c-1.4-0.7-2.7-1.6-4.2-2.4c-1.6-0.9-3.1-0.9-3.9,1.1c-0.8,2.1-2.4,2.1-3.9,1.2c-3.2-1.7-7.1-1.7-9.8-4.7
		c-1.3-1.5-7-0.4-8.7,1.2c-4,3.6-5.6,3.7-9.6,0.1c-3.2-2.9-6.5-5.2-11.1-4.9c-1.4,0.1-2.7-0.6-3.8-1.5c-1.2-0.9-2.4-1.3-3.9-1.1
		c-2.3,0.4-2.3-0.7-1.5-2.4c2.5-5.1,3-10.3,1.2-15.6c-0.5-1.5,0.3-2.7,0.8-4c1.5-3.6,0.7-6.5-2.1-9.1c-1.5-1.3-2.3-1.5-3.2,0.7
		c-1.3,3.7-3.3,3.6-7,4.8c-3.6,1.2-3.7-1.3-5.1-2.6c-1-0.9-2-2-3.3-2.5c-5.1-2.1-7.3-6.2-7.9-11.4c-0.2-1.9-0.5-3.8-1.8-5.3
		c-1.2-1.4-0.8-2.2,0.6-3.1c1.9-1.2,3.8-2.4,6-2.5c5.8-0.2,10.2-3.2,14.1-7c3.5-3.5,6.8-7.3,10.1-11c1.7-1.9,2.3-4.2,2-6.7
		c-0.2-2,0.1-3.5,2.7-3.6c1.8,0,2.6-1.5,2.8-3c0.6-3.6,3.9-4.9,6-7.2c0.6-0.6,1.3-0.4,1.8,0.2c2.3,2.5,4.6,5,4.6,8.8
		c0,4.6,0.5,9.1,3.3,13.1c1.1,1.7,1.2,3.7,1.3,5.8c0.1,4.3,0,8.6,0.4,12.9c0.3,4.3,2.5,5.3,6.3,3.4c3.2-1.7,11.1,2.4,11.6,5.9
		c0.2,1.5-0.7,2.4-1.3,3.5c-1.8,3.1-1.1,5.3,2.4,6.4c3.2,1,6.5,2,9.7,2.9c1.3,0.4,2.7,0.7,3.8,0.2c3.5-1.7,5.6,0.3,6.5,3
		c1.6,4.9,5.3,5.6,9.4,5.7c3.8,0.1,7.6,0.1,11.3-0.4c4.1-0.5,7.3,1.5,10.2,4c0.5,0.4,1,1.2,0.6,1.5c-2.4,1.9-1.1,5.8-4.1,7.3
		c-1.2,0.6-0.9,1.6-0.4,2.6c1.2,2.8,1.7,5.4-1,7.9c-1.4,1.3-0.9,3.4,0,5c0.9,1.5,1.4,2.7-0.6,3.7c-0.9,0.5-1.2,1.3-0.9,2.3
		C838.7,436.9,836.9,437.6,834.2,437.5z"/>
</g>
<g>
	<pattern  id="SVGID_24_" xlink:href="#Nueva_muestra_de_motivo_copia" patternTransform="matrix(1 0 0 1 141 -199)">
	</pattern>
	<path class="st28" d="M581.5,328.3c0.4,0.4,0.8,0.8,1.3,1.2c1.4,1.8,3.3,1.3,5,0.7c3.4-1.3,5.8-0.1,7.8,2.7c2.4,3.5,4.6,7,4.7,11.5
		c0.1,3.4,1.5,6.6,2.6,9.9c1.7,5.2,3.9,10,7,14.5c1,1.4,2,2.7,3.8,3.2c1.7,0.4,2.5,1.7,2,3.5c-0.5,1.9-0.9,4-1.8,5.7
		c-2.1,4.1-2.6,8.2-0.8,12.5c0.4,1,0.4,2.1-1,2.3c-1.7,0.2-3.5,0.6-4.3-1.7c-0.8-2.4-1.9-4.6-4.1-6c-1.1,0.7,0.5,1.8-0.5,2.2
		c-1,0.4-1.6-0.6-2.2-1.2c-2-1.8-3.4-3.9-4.7-6.3c-1.6-2.9-3.7-5.5-6.7-7.3c1,1.7,2.1,3.5,3.1,5.2c-2.1-0.7-3.4-2.3-4.5-4
		c-2.2-3.4-4.7-6.5-7.4-9.6c-2.7-3-5.1-6.2-6.8-9.9c-2.1-4.7-4.8-9.1-9.3-12c-1.2-0.8-2.6-1.6-1.7-3.9c0.4-1-1.6-2.7-3.1-3.3
		c-1.7-0.6-3.2-1.9-4.9-2.3c-5-1.2-6.8-5.7-10.2-8.6c-0.4-0.4-0.9-1-0.4-1.6c0.5-0.6,1.1-0.2,1.6,0.1c0.8,0.4,1.5,1,2.3,1.4
		c1,0.5,2.1,0.7,2.6-0.5c0.5-1.2-0.3-1.9-1.3-2.3c-0.9-0.4-1.9-0.7-2.9-0.7c-2.6,0.1-4.9-1-7.4-1.4c-2.5-0.4-3.6-2.9-3.1-5.7
		c0.3-1.5,1.2-3,0.6-4.7c-1.8,0.3-0.9,3.6-2.4,2.6c-1.5-1-2.8-3.5-2.8-5.3c0-2,2.3-0.2,3.7-0.7c0.2-1.1-0.5-1.7-1.3-2.3
		c-1.9-1.4-3.8-3.2-5.9-4.1c-3.5-1.5-6.1-4.2-9.3-6.1c-2.4-1.5-3.3-4.4-4.8-6.8c-0.9-1.5-1.1-2.3-2.9-0.8c-1.3,1.1-3.1,2.6-5.3,1
		c-2.1-1.4-2.3-2.4-0.4-4.1c0.5-0.5,1.3-0.8,0.9-1.7c-0.5-0.9-1.2-0.5-1.8-0.1c-0.9,0.5-1.7,0.4-2.6,0.1c-0.7-0.2-1.9-1.1-1.5,0.8
		c0,0.1-0.4,0.4-0.6,0.4c-0.8,0.1-5.7-3.8-5.4-4.1c2.2-1.8-0.4-2.9-0.4-4.2c-0.1-5-0.6-10.2,3.3-14.3c0.3-0.3,0.5-0.7,0.8-0.9
		c0.6-0.5,1.3-1.1,1.4,0.3c0.1,0.9,0.3,1.2,0.9,0.4c1.8-2.3,2.5-1,3.1,0.8c0.1,0.4,0.3,0.8,1.2,0.8c-1.8-5.3,2.5-6.9,5.7-9.1
		c6.4-4.4,12.6-9.1,16.2-16.3c0.7-1.4,1.8-1.5,3.1-0.9c2.3,1.1,4.6,1.4,7,0.3c2.1-0.9,2.9,0.7,3.4,2.3c1.9,6,3.5,12,4.6,18.1
		c1.2,6.4,1.7,7.1,8.2,8c3.5,0.5,6.1,1.3,6.8,5.4c0.4,2.3,2.3,4,3.8,5.7c2.1,2.3,2.8,5,2.5,8.1c-0.8,7.1-1.8,14.2,1.2,21.1
		c0.7,1.6,1.2,3.3,2.4,4.4c4.9,4.4,8,10,10.9,15.8C580.8,327.3,581.1,327.8,581.5,328.3z"/>
</g>
<g>
	<pattern  id="SVGID_25_" xlink:href="#Nueva_muestra_de_motivo_copia" patternTransform="matrix(1 0 0 1 141 -199)">
	</pattern>
	<path class="st29" d="M1052.2,519.5c5.4,1.6,11.7-0.7,14.1,6.4c0.6,0.3,1.1-0.5,1.4-1c1.3-3.1,3.6-2.9,6.1-2.1
		c1.5,0.5,3,1.2,3.1-1.6c0-1.3,1.3-1.7,2.4-2.1c1.5-0.6,2.7-1.4,3.7-2.6c2.2-2.6,0.9-8-2.3-9.1c-1.4-0.5-1.6,1.8-3.3,1.5
		c-0.1-1.6,1.1-2.3,2.1-3c2.8-2.1,5.5-4.3,8.6-6c3.1-1.7,5.5-4.2,8-6.6c3.1-2.9,3.9-6.8,4.3-10.9c0.4-4.5,0.8-9,4.3-12.5
		c1.1-1,1-2.6,0.9-4.1c-0.1-4.2-0.1-8.4-0.2-12.6c0-2.1,0.2-4.3,0.9-6.3c0.3,0.1,0.6,0.1,0.7,0.2c1,4.4,1,4.4,5.6,4.2
		c1.2,0,2.5-0.1,3.7-0.4c1.6-0.4,2.8,0,3.9,1.1c7.6,6.9,14.1,14.8,21.1,22.3c1.4,1.5,1.2,3.7,1.5,5.5c2.8,17.6,4.7,35.3,6.1,53
		c0,0.1,0,0.2,0,0.3c0.7,7.6,0.7,7.8-6.9,8.5c-10.7,1-21.4,1.7-32.1,2.6c-3.3,0.3-6.5,0.5-9.8,1c-2,0.3-3-0.2-3.1-2.2
		c-0.1-3.2-2.1-4.3-5-4.6c-3.5-0.3-6.8-1.6-9.9-3c-1.8-0.8-3.6-1.3-5.6-0.7c-2.3,0.7-2.7,2.4-2.6,4.6c0.1,1.2-1.1,1.4-2,1.4
		c-5.7,0.2-10.6-2-14.8-5.7c-1-0.9-1.2-2.1-1.3-3.4c-0.1-1.5-0.4-3-0.5-4.6c-0.3-3.2-2.3-4.4-5.2-4.4c-1.2,0-2.5,0.2-3.6-0.5
		c-1.7-1.1-2-2.8-1.9-4.6c0.1-2,1.6-2.5,3.2-2.7c4.4-0.5,8.8-0.5,13.1,0.3c1.3,0.2,3,0.5,2.8,2.2c-0.2,1.8-2,1.9-3.4,1.8
		C1058,519.2,1055.5,518.5,1052.2,519.5z"/>
</g>
<g>
	<pattern  id="SVGID_26_" xlink:href="#Nueva_muestra_de_motivo_copia" patternTransform="matrix(1 0 0 1 141 -199)">
	</pattern>
	<path class="st30" d="M1174.1,400.7c6.7-0.3,12.5,0.5,18.3,2.1c3.8,1,5.5,3.4,6.4,7c0.8,3.7,0.4,7.2-0.2,10.9
		c-1.3,7.5-5.3,12.7-11.5,17.2c-14.1,10.2-27.7,21.1-41.4,31.8c-2.6,2-4.2,1.8-6.3-0.6c-5.1-5.9-10.4-11.5-15.7-17.3
		c-1-1.1-2.2-2.2-3.3-3.2c-1.2-1.1-2.6-1.5-4.2-0.6c-0.4,0.3-0.9,0.4-1.4,0.6c-4.8,1.6-5.8,0.9-6.6-4c-0.6-3.5,0-7.1-2-10.4
		c-1.1-1.7,0.4-4,1.6-5.7c4.3-6.1,10.7-9.3,17.3-12.2c5.9-2.6,12.1-4.3,18.5-5.4c4.8-0.8,9.2-2.5,13.4-5.1
		C1162.3,402.3,1168.1,399.8,1174.1,400.7z"/>
</g>
<g>
	<pattern  id="SVGID_27_" xlink:href="#Nueva_muestra_de_motivo_copia" patternTransform="matrix(1 0 0 1 141 -199)">
	</pattern>
	<path class="st31" d="M771,483.2c-2.2,0.2-4.5-0.4-7-2.3c-3.1-2.4-6.9-0.8-10.2,0.2c-4.1,1.2-4.9,1-6.2-3.1
		c-1.8-5.7-5.1-7-10.2-3.9c-3.1,1.9-4.5,1.5-6.6-1.5c-0.3-0.5-0.6-1.2-1.1-1.4c-3.6-1.7-2.5-3.9-0.8-6.3c0.9-1.3,1.1-2.5-0.1-3.8
		c-1.8-2.1-1.6-4.3-0.1-6.4c2.5-3.6,5.2-7.1,7-11.2c0.2-0.4,0.5-0.9,0.9-1.1c4.1-2,4.8-5.3,4.8-9.7c0-3.9,2.7-7.2,4.3-10.8
		c0.7-1.7,3.1-1.3,4.6-0.6c2.4,1.3,4.9,1.9,7.6,2c1.9,0.1,3.5,1.2,5,2.4c1.5,1.2,2.9,2.4,4.5,3.4c4.1,2.6,5,2.5,8.7-0.7
		c3.1-2.7,5.8-2.8,9-0.5c2.2,1.6,4.8,2.4,7.4,3c3.3,0.8,4.7,3.5,6.2,6.1c0.8,1.4-1,4-2.5,3.3c-6-2.9-6.3,2.7-8,5.6
		c-1,1.7-1.7,2.3-3.8,2.6c-3,0.4-6,1.2-8.9,2.2c-2.2,0.8-2.6,3.2-2.1,5.4c1.5,6.5,3.4,12.9,9,17.3c0.7,0.5,1.3,1.2,1.9,1.9
		c2.4,2.5,2.2,2.9-0.9,4.1c-2.2,0.8-4.3,2.1-6.4,3C775.2,483.3,773.4,483.1,771,483.2z"/>
</g>
<g>
	<pattern  id="SVGID_28_" xlink:href="#Nueva_muestra_de_motivo_copia" patternTransform="matrix(1 0 0 1 141 -199)">
	</pattern>
	<path class="st32" d="M606.3,393.7c0.8,0,0.9,0.5,1.1,0.9c1,2.4,4.5,3.5,6.6,2.1c1-0.7,1.1-1.8,0.7-2.7c-1.9-4.3-1.5-8.4,1.3-12.2
		c0.1-0.2,0.2-0.4,0.2-0.6c1.4-4.9,1.5-5,6.1-4.8c5.7,0.2,7.9,1.7,8.9,5.7c0.8,3.5,1.4,6.7-2,9.3c-0.8,0.6-1.2,1.7-0.5,2.7
		c0.6,1,1.8,1,2.7,0.7c1.4-0.5,2.8-1.2,4.1-1.8c2.9-1.2,4.9-0.4,5.9,2.5c1.4,3.8,3.7,5.3,7.9,4.8c3.2-0.4,3.4-0.2,2.7,2.9
		c-0.3,1.6-0.6,3.2-1.1,4.7c-1,3.6-0.1,6.6,2.8,8.9c2,1.6,2.3,3.6,2.3,5.9c-0.1,3.6-0.7,7.3,2.8,9.9c1.1,0.8,1.2,2.3,0.3,3.6
		c-0.8,1.2-2,1.8-3.4,1.6c-0.9-0.1-1.7-0.4-2.6-0.7c-1.8-0.6-2.5,0.3-2.3,2c0.2,1.7,0.8,3.3,1.9,4.7c0.9,1.1,1.3,2.4,0.2,3.6
		c-1.4,1.7-2.1,3.6-2.4,5.8c-0.3,2.1-1.1,2.4-2.6,0.9c-1.9-1.8-3.9-3.4-6.3-4.6c-2.9-1.4-5.5-1.1-8.3,0.5c-4.5,2.5-9.3,4.3-12.4,8.7
		c-1,1.4-2.1,0.4-3.2-0.1c-5.6-2.3-6-2.7-1.4-6.5c6.3-5.2,4.8-12.1,5.2-18.6c0.1-1.5-1.1-2.6-2.3-3.3c-1.9-1.2-3.2-3-4.4-4.9
		c-0.9-1.4-2.2-2.8,0-4.4c0.7-0.5,0.5-1.5,0-2.2c-0.4-0.6-1-1.1-1.8-0.4c-0.9,0.8-1.3,0.1-1.5-0.6c-2.4-7.7-4.4-15.5-5.6-23.5
		C605.9,394.1,606.2,393.9,606.3,393.7z"/>
</g>
<g>
	<pattern  id="SVGID_29_" xlink:href="#Nueva_muestra_de_motivo_copia" patternTransform="matrix(1 0 0 1 141 -199)">
	</pattern>
	<path class="st33" d="M1085.2,566.4c-0.4-0.2-0.8-0.3-1.2-0.5c-0.2-2.8-1.8-4.3-4.4-5.1c-2.6-0.8-4.5-2.2-4.3-5.3
		c0.1-1.3-0.6-2.6-1.7-3.4c-2.9-1.9-5.9-3.7-8.9-5.5c-0.6-0.3-1.4-0.7-2-0.5c-4.3,1.3-9.2,1.2-12.3,5.3c-2.7,3.6-5.3,7.3-8,10.9
		c-1.5,2-3.2,2.7-5.3,0.8c-0.4-0.4-1-0.8-1.6-0.8c-4.6-0.2-5.4-3.3-5.8-6.9c-0.3-2.9-1-5.8-3.3-7.9c-3.5-3.2-8.6-2.3-9.2,2.2
		c-0.7,5.6-3.2,10.3-5.4,15.2c-0.2,0.4-0.3,0.7-0.4,1.1c-0.3,0-0.6,0.1-0.6,0c-2.2-5-5.7-8.7-10-12c-4.3-3.2-6-8.2-6.8-13.4
		c-0.4-2.7,2.5-5.1,5.2-4.3c0.8,0.2,1.6,0.5,2.3-0.1c2-1.8,4.5-2.8,7.4-3.9c-2.2-0.9-3.7,0.6-6.2,0.1c4.6-1.9,8.8-2.7,12.9-3.6
		c1.3-0.3,2.6-0.4,3.9-0.6c0.4-0.1,1-0.3,1.2-0.1c3.2,3.7,5.5-0.1,8.1-0.9c3.1-0.9,5.8-2.6,8.2-4.8c1.2-1.1,2.5-2,3.8-2.9
		c2.6-1.8,3.2-1.6,3.7,1.5c0.4,2.5,1.8,3.3,4,3.5c4.9,0.4,6.5,2,6.5,6.8c0,4,1.6,6.6,5.3,8.2c3.5,1.5,6.3,4.7,10.8,3.8
		c2.3-0.4,4.1-0.9,4-3.8c0-1.8,1.1-2.4,2.7-2.5c1.6-0.1,3.2,0.1,4.7,0.8c3.2,1.3,6.4,2.3,9.9,2.6c1.9,0.2,2.9,1.2,3.1,3
		c0.8,6.7,1.5,13.4,1.7,20.1c0.1,2.1-0.9,2.9-2.9,2.9C1091.4,566.3,1088.3,566.4,1085.2,566.4z"/>
</g>
<pattern  id="SVGID_30_" xlink:href="#Nueva_muestra_de_motivo_copia" patternTransform="matrix(1 0 0 1 141 -199)">
</pattern>
<path class="st34" d="M698.6,420.1c-0.1-2.8,0.8-4.9,3.2-6.6c5.1-3.7,10.3-7.4,16-10.1c1.4-0.6,2.4-0.9,3.5,0.2
	c2.7,2.6,5.3,5.2,5.8,9.1c0.2,1.5,1.3,2.1,2.3,3c2.3,2,2.2,3.2-0.2,4.9c-1.6,1.1-3,2.3-4.3,3.7c-2.9,3.2-6.3,4.2-10.2,2.4
	c-3.8-1.7-7.5-2.5-11.3,0.1c-1.4,1-2.7,0.2-3.4-1.2C699,423.9,698.7,422,698.6,420.1z"/>
<g>
	<pattern  id="SVGID_31_" xlink:href="#Nueva_muestra_de_motivo_copia" patternTransform="matrix(1 0 0 1 141 -199)">
	</pattern>
	<path class="st35" d="M641.5,518.1c2.2-1.8,4.3-2.1,6.3-2.7c2.6-0.7,5.2-1.3,7.7-2.1c1.1-0.3,2.6-0.5,3-1.3c2-3.2,5-2.7,8-2.7
		c2.1,0,4.1-0.6,6.1-1c2.9-0.7,4.5,0.3,4.8,3.1c0.7,6.2,0.6,12.3-2.6,18c-2.3,4.1-5.7,4.5-8.7,0.7c-1.1-1.4-2-2.8-3.7-3.6
		c-1.2-0.6-1.7-1-3.4-0.3c-2.3,0.9-5.2-0.7-6.6-2.9c-1.1-1.8-2.4-2.5-4.2-2.9C646.1,519.9,644.1,519,641.5,518.1z"/>
</g>
<g>
	<pattern  id="SVGID_32_" xlink:href="#Nueva_muestra_de_motivo_copia" patternTransform="matrix(1 0 0 1 141 -199)">
	</pattern>
	<path class="st36" d="M787.8,542c2,0.1,2.9-1.1,3.7-2.1c1.8-2.1,3.8-3.4,6.6-3.5c2.5-0.1,4.7-0.8,5.7-3.5c0.6-1.6,2.1-2,3.8-1.6
		c3.2,0.6,5.4,2.4,6.8,5.3c1.2,2.4,3,3.2,5.4,2.4c1.4-0.5,2.2-0.1,3,1c4,5.3,9.5,9,14.6,13.1c1.3,1.1,3.1,1.4,4.7,1.9
		c3.9,1.3,5.9,4,5.9,8c0,2.2-0.2,4.4-0.2,6.6c-0.1,5.3,1.2,10,5.7,13.3c3.5,2.6,5.7,5.7,6.2,10.1c0.3,2.2-0.1,3.9-1.7,5.4
		c-1.1,1-2.1,2.2-3.3,3.1c-3.4,2.4-5.9,5.6-8.6,8.6c-1.3,1.5-2.6,2.1-4.5,0.2c-1.2-1.3-2.8-2.3-4.2-3.6c-1.5-1.5-3.6-2.3-5.7-2.3
		c-2.7,0-5.2-0.4-7.4-2.1c-0.4-0.4-1.2-0.9-1.6-0.7c-3,1.5-4.9-0.4-6.9-2c-0.2-0.2-0.5-0.4-0.8-0.4c-3.2,0-6.4-0.1-9.4-1.6
		c-0.1,0.4-0.3,0.7-0.4,1.1c0.7,0.4,1.4,0.8,2.3,1.3c-0.7,0.4-1,0.6-1.2,0.6c-1.3,0-2.2-0.9-3.2-1.5c-4.3-2.6-8.6-5.1-12.9-7.6
		c-0.3-0.1-0.6-0.3-0.8-0.3c-9.6,0.4-18.1-3.6-26.3-7.6c-4.1-2-7.5-5.8-10.8-9.1c-1.8-1.8-3.6-3.6-6-4.2c-3.3-0.9-5.6-2.9-7.7-5.3
		c-2.8-3.4-6.1-5.9-10.7-6.4c-2-0.2-2.6-4.2-1-6.2c0.5-0.6,1.2-1,1.9-1.5c4.4-2.9,4.4-2.9,3.2-8.2c-0.7-3.1,2.3-6.1,5.9-5.7
		c0.9,0.1,1.9,0.2,2.5,0.8c2.8,2.5,5.9,2.4,9.2,1.9c7.8-1.4,15.5-0.1,23.1,1.4c4.3,0.9,5.7-0.3,5.4-4.8c-0.1-2-0.8-4.7,1.4-5.2
		c2.6-0.5,2.8,2.6,3.6,4.3c0.8,1.7,0.7,3.8,1.9,6.1c0.2,0.3,0.5,0.5,0.8,0.6L787.8,542z"/>
</g>
<text transform="matrix(1 0 0 1 318.9043 545.3584)" class="st37 st38 st39">Tancítaro</text>
<text transform="matrix(1 0 0 1 316.543 557.8359)" class="st37 st40 st39">Los Cuinis</text>
<text transform="matrix(1 0 0 1 332.792 408.0381)" class="st41 st38 st39">Jalisco</text>
<text transform="matrix(1 0 0 1 186.0771 420.3887)" class="st37 st40 st39">Jalisco Nueva Generación Cartel(CJNG)</text>
<text transform="matrix(1 0 0 1 316.96 453.6182)" class="st37 st38 st39">Los Reyes</text>
<text transform="matrix(1 0 0 1 186.0771 465.9609)" class="st37 st40 st39">Jalisco Nueva Generación Cartel(CJNG)</text>
<text transform="matrix(1 0 0 1 326.8877 495.6689)" class="st37 st38 st39">Peribán</text>
<text transform="matrix(1 0 0 1 186.0771 509.9189)" class="st37 st40 st39">Jalisco Nueva Generación Cartel(CJNG)</text>
<text transform="matrix(1 0 0 1 322.917 631.4961)" class="st37 st38 st39">Uruapan</text>
<text transform="matrix(1 0 0 1 186.0771 644.9238)" class="st37 st40 st39">Jalisco Nueva Generación Cartel(CJNG)</text>
<text transform="matrix(1 0 0 1 186.0771 601.2275)" class="st37 st40 st39">Jalisco Nueva Generación Cartel(CJNG)</text>
<text transform="matrix(1 0 0 1 331.0469 586.9775)" class="st41 st38 st39">Colima</text>
<text transform="matrix(1 0 0 1 329.25 361.4199)" class="st41 st38 st39">Nayarit</text>
<text transform="matrix(1 0 0 1 186.0771 376.6201)" class="st37 st40 st39">Jalisco Nueva Generación Cartel(CJNG)</text>
<polyline class="st42" points="108.2,473 127,473 704,473.6 704,491.5 "/>
<polyline class="st42" points="712.1,505.2 402.6,505.2 402.1,563.3 217.8,563.3 106.8,563.3 "/>
<g>
	<text transform="matrix(1 0 0 1 93.2764 79.6523)" class="st37 st40 st43">Google search results</text>
</g>
<g>
	<text transform="matrix(1 0 0 1 94.2275 17.7148)" class="st44 st40 st43">State</text>
</g>
<g>
	<text transform="matrix(1 0 0 1 94.2275 41.4648)" class="st37 st40 st43">City</text>
</g>
<g>
	<text transform="matrix(1 0 0 1 94.2275 94.7676)" class="st37 st40 st43">‘aguacate AND ‘city name’</text>
</g>
<g>
	<g>
		<text transform="matrix(1 0 0 1 953.5391 357.8398)" class="st41 st38 st39">Michoacán</text>
	</g>
</g>
<text transform="matrix(1 0 0 1 713.3467 32.2002)" class="st37 st38 st39">Mexicali</text>
<g>
	<text transform="matrix(1 0 0 1 713.3467 47.4004)" class="st37 st40 st39">Jalisco Nueva Generación Cartel(CJNG)</text>
</g>
<polyline class="st42" points="964.7,53.6 514.5,53.6 514.4,26 325.8,26 "/>
<g>
	<g>
		<g>
			<circle class="st37" cx="325.4" cy="25.9" r="2.9"/>
		</g>
	</g>
</g>
<polyline class="st42" points="710.6,497.1 672.1,497.1 672.1,497.1 384.2,497.1 384.2,516.8 217.8,517 108.2,517.2 "/>
<polyline class="st42" points="1108.8,292.9 978.9,293 952.1,293.1 "/>
<polyline class="st42" points="1108.8,246.3 978.9,246.4 952.1,246.5 "/>
<polyline class="st42" points="1108.8,200.6 978.9,200.7 952.1,200.8 "/>
<polyline class="st42" points="1108.8,151.2 978.9,151.3 952.1,151.4 "/>
<polyline class="st42" points="108.2,427.9 220.2,427.9 422.1,427.9 422.2,454.9 672.1,454.9 "/>
<polyline class="st42" points="107.7,384.2 220.3,384.2 442.1,384.2 442.1,427.4 636.9,427.4 "/>
<polyline class="st42" points="658.5,513.9 422.1,514.5 422.2,607.6 217.8,607.6 108.2,607.6 "/>
<polyline class="st42" points="723.8,507.7 723.8,522.2 442.1,522.4 440.9,652.3 219.1,652.3 107,652.3 "/>
<g>
	<circle class="st41" cx="72.6" cy="14.7" r="5.4"/>
</g>
<circle class="st37" cx="72.6" cy="38.3" r="5.4"/>
<rect x="810.5" y="678.2" class="st0" width="228.6" height="29.8"/>
<text transform="matrix(1 0 0 1 887.623 686.0205)" class="st37 st38 st39">* SAGARPA agricoltural stat 2017</text>
<circle class="st45" cx="97.7" cy="586.7" r="20.9"/>
<circle class="st45" cx="99.9" cy="407.4" r="20.7"/>
<circle class="st45" cx="98.4" cy="454.4" r="18.6"/>
<circle class="st45" cx="100.2" cy="362" r="21.2"/>
<circle class="st45" cx="97.9" cy="501.3" r="17"/>
<circle class="st45" cx="98.2" cy="633.9" r="18.6"/>
<circle class="st45" cx="97.5" cy="552.6" r="10.2"/>
<circle class="st45" cx="57.8" cy="107.3" r="20"/>
<circle class="st45" cx="67.8" cy="70.2" r="10"/>
<g>
	<text transform="matrix(1 0 0 1 29.5283 127.3096)" class="st37 st40 st46">80</text>
</g>
<g>
	<text transform="matrix(1 0 0 1 29.9766 78.7441)" class="st37 st40 st46">20</text>
</g>
<circle class="st45" cx="973.2" cy="33.7" r="18.9"/>
<polyline class="st42" points="707.2,532.6 762.2,532.6 762.2,344.7 1108.8,344.7 "/>
<circle class="st45" cx="1117.9" cy="323.4" r="21.3"/>
<circle class="st45" cx="1117.9" cy="225.7" r="20.8"/>
<circle class="st45" cx="1117.9" cy="178.9" r="21.1"/>
<circle class="st45" cx="1117.9" cy="270.3" r="21.2"/>
<circle class="st45" cx="1117.9" cy="132.8" r="18.3"/>
<g>
	<text transform="matrix(1 0 0 1 951.5801 339.876)" class="st37 st40 st39">Jalisco Nueva Generación </text>
</g>
<g>
	<text transform="matrix(1 0 0 1 950.7588 242.4951)" class="st37 st40 st39">La Familia Michoacana</text>
</g>
<g>
	<text transform="matrix(1 0 0 1 950.54 196.5586)" class="st37 st40 st39">La Tercera Hermandad</text>
</g>
<g>
	<text transform="matrix(1 0 0 1 949.96 288.3691)" class="st37 st40 st39">Los Caballeros Templarios</text>
</g>
<g>
	<text transform="matrix(1 0 0 1 951.5176 147.7734)" class="st37 st40 st39">Los Cuinis</text>
</g>
<g>
	<text transform="matrix(1 0 0 1 94.2275 147.7734)"><tspan x="0" y="0" class="st37 st40 st43">Avocado production</tspan><tspan x="0" y="12.3" class="st37 st40 st43">volume (ton) by state in 2017 *</tspan></text>
</g>
<g>
	<pattern  id="SVGID_33_" xlink:href="#Nueva_muestra_de_motivo_81" patternTransform="matrix(1 0 0 1 0 3)">
	</pattern>
	<rect x="59.8" y="144.9" class="st47" width="16" height="17.4"/>
</g>
<g>
	<pattern  id="SVGID_34_" xlink:href="#Nueva_muestra_de_motivo_copia_2" patternTransform="matrix(1 0 0 1 141 -199)">
	</pattern>
	<rect x="59.8" y="177.5" class="st48" width="16" height="17.4"/>
</g>
<g>
	<pattern  id="SVGID_35_" xlink:href="#Nueva_muestra_de_motivo_copia" patternTransform="matrix(1 0 0 1 0 3)">
	</pattern>
	<rect x="59.8" y="161" class="st49" width="16" height="17.4"/>
</g>
<g>
	<pattern  id="SVGID_36_" xlink:href="#Nueva_muestra_de_motivo_copia_3" patternTransform="matrix(1 0 0 1 141 -199)">
	</pattern>
	<rect x="59.8" y="194.9" class="st50" width="16" height="17.4"/>
</g>
<rect x="7.8" y="156.6" class="st0" width="44.3" height="64.6"/>
<text transform="matrix(1 0 0 1 46.3945 164.2275)"><tspan x="0" y="0" class="st37 st40 st51">0</tspan><tspan x="-28.9" y="17.3" class="st37 st40 st51">100,000</tspan><tspan x="-26.1" y="34.6" class="st37 st40 st51">1,2 mln</tspan><tspan x="-26.6" y="51.9" class="st37 st40 st51">1,6 mln</tspan></text>
<circle class="st37" cx="704" cy="490.8" r="3.1"/>
<circle class="st37" cx="710.6" cy="497.1" r="3.1"/>
<circle class="st37" cx="723.8" cy="504" r="3.1"/>
<circle class="st37" cx="713.7" cy="505.2" r="3.1"/>
<g>
	<circle class="st41" cx="661.7" cy="513.9" r="3.1"/>
</g>
<g>
	<circle class="st41" cx="707.2" cy="532.6" r="3.1"/>
</g>
<g>
	<circle class="st41" cx="635.7" cy="427.5" r="3.1"/>
</g>
<g>
	<circle class="st41" cx="672.1" cy="455" r="3.1"/>
</g>
</svg>
