<?xml version="1.0" encoding="utf-8"?>
<!-- Generator: Adobe Illustrator 22.1.0, SVG Export Plug-In . SVG Version: 6.00 Build 0)  -->
<svg version="1.1" id="图层_1" xmlns="http://www.w3.org/2000/svg" xmlns:xlink="http://www.w3.org/1999/xlink" x="0px" y="0px"
	 viewBox="0 0 1563 1080" style="enable-background:new 0 0 1563 1080;" xml:space="preserve">
<style type="text/css">
	.st0{fill:none;}
	.st1{fill:#FFFFFF;}
	.st2{font-family:'Fira Sans', sans-serif; font-weight:300;}
	.st3{font-size:20.3947px;}
	.st4{fill:#006E60;}
	.st5{fill:none;stroke:#6ABFAA;stroke-width:0.5;stroke-miterlimit:10;}
	.st6{fill:none;stroke:#A3CA6D;stroke-width:0.5;stroke-miterlimit:10;}
	.st7{fill:none;stroke:#00895E;stroke-width:0.5;stroke-miterlimit:10;}
	.st8{fill:none;stroke:#88B2B5;stroke-width:0.5;stroke-miterlimit:10;}
	.st9{fill:none;stroke:#006E60;stroke-width:0.5;stroke-miterlimit:10;}
	.st10{fill:#6ABFAA;}
	.st11{fill:#A3CA6D;}
	.st12{fill:#1D7867;}
	.st13{fill:#E30613;}
	.st14{fill:#88B2B5;}
	.st15{fill:none;stroke:#FF0000;stroke-width:0.5;stroke-miterlimit:10;}
	.st16{fill:none;stroke:#00A183;stroke-width:0.5;stroke-miterlimit:10;}
	.st17{fill:#FF0000;stroke:#FF0000;stroke-width:0.5;stroke-miterlimit:10;}
	.st18{fill:#FFFFFF;stroke:#6ABFAA;stroke-miterlimit:10;}
	.st19{fill:#FFFFFF;stroke:#006E60;stroke-miterlimit:10;}
	.st20{fill:#FFFFFF;stroke:#A3CA6D;stroke-miterlimit:10;}
	.st21{fill:#FFFFFF;stroke:#00A183;stroke-miterlimit:10;}
	.st22{fill:#FFFFFF;stroke:#88B2B5;stroke-miterlimit:10;}
	.st23{fill:#FFFFFF;stroke:#1D7867;stroke-miterlimit:10;}
	.st24{fill:#FFFFFF;stroke:#E30613;stroke-miterlimit:10;}
	.st25{fill:#FFFFFF;stroke:#FF0000;stroke-miterlimit:10;}
</style>
<rect x="481.4" y="405.6" transform="matrix(1 -1.200045e-03 1.200045e-03 1 -0.6394 0.5891)" class="st0" width="18.4" height="254.9"/>
<text transform="matrix(1.200045e-03 1 -1 1.200045e-03 484.5969 507.361)" class="st1 st2 st3">Other</text>
<rect x="196.3" y="405" transform="matrix(1 -1.200045e-03 1.200045e-03 1 -0.6389 0.2498)" class="st0" width="23" height="254.9"/>
<text transform="matrix(1.200045e-03 1 -1 1.200045e-03 204.0765 448.2411)" class="st1 st2 st3">Production growth</text>
<rect x="66.1" y="406.1" transform="matrix(1 -1.200045e-03 1.200045e-03 1 -0.6403 9.084963e-02)" class="st0" width="18.6" height="254.9"/>
<text transform="matrix(1.200045e-03 1 -1 1.200045e-03 69.481 507.847)" class="st1 st2 st3">Trade</text>
<g>
	<g>
		<path class="st4" d="M432.3,537.6c0-3.4,0.3-5.4,0.3-5.5l1.3,0.2c-0.1,0.5-6.1,46.4,43.8,84.8c103.8,79.6,536.9,302.6,752.2,393.6
			c83,35.1,110.2,64.1,110.5,64.4l-0.9,0.9c-0.3-0.3-27.3-29.1-110-64.1c-215.3-91-648.6-314.1-752.4-393.8
			C436.6,587.1,432.4,551.1,432.3,537.6z"/>
	</g>
</g>
<g>
	<path class="st5" d="M1155.8,1076c-204-51.5-396.2-140-554.5-280.6c-76.4-67.8-170.6-160-195.4-263.3"/>
</g>
<g>
	<path class="st5" d="M850,1076.2C654.3,940,465.8,760.8,379.5,532.9"/>
</g>
<g>
	<path class="st5" d="M697.5,1076.3C542.5,922.5,415.9,744,353.4,532.9"/>
</g>
<g>
	<path class="st5" d="M574.8,1076.5C444.5,918.6,349.9,738.2,326.1,533"/>
</g>
<g>
	<path class="st5" d="M391.8,1076.7C326,901.1,289.3,720.7,286.1,533"/>
</g>
<g>
	<path class="st5" d="M116.1,1077C213.5,909.6,263.8,727.2,246,533.1"/>
</g>
<g>
	<path class="st6" d="M606.1,1076.5C467.2,1012.7,339,927.1,244.6,805C187,730.5,129.2,631.2,138.5,533.1"/>
</g>
<g>
	<path class="st7" d="M86.2,1077c-41-179.6-63.8-361-67.7-545.3"/>
</g>
<path class="st5" d="M1400.9,1076c0,0-23.8-22.7-70.1-44.5c-189.7-89.8-694-320.8-861.2-441.3c-29.7-21.4-23-58-23-58"/>
<path class="st8" d="M238.4,1077.4c0,0,766.5-341.9,939.4-442.2c59.9-34.7,71.5-103.3,71.5-103.3"/>
<g>
	<path class="st8" d="M819.5,1076.5c131.8-72,254.3-161.8,355.3-273.4c71.5-79,136.4-170.7,168.6-273.2"/>
</g>
<g>
	<path class="st8" d="M758.5,1077.1c139-72,268.9-161.7,379.2-273.3c78-78.9,149.8-169.8,192.5-273"/>
</g>
<path class="st8" d="M544.5,1076.5c0,0,600.6-234.1,745.1-474.1c13.2-21.8,26.7-71.6,26.7-71.6"/>
<path class="st8" d="M513.7,1076.5c0,0,631.9-282.3,749.1-449.7c41.2-58.9,40-96.5,40-96.5"/>
<path class="st8" d="M483.3,1076.6c0,0,571.2-236.6,759.3-444.6c47.3-52.3,46.9-100.4,46.9-100.4"/>
<path class="st8" d="M422.1,1076.8c0,0,638.3-293.6,791.1-434c67.3-61.8,63-111,63-111"/>
<path class="st8" d="M362,1077.3c0,0,648.5-307.4,837.8-440.2c59-41.4,62.9-105.5,62.9-105.5"/>
<path class="st8" d="M54.9,1077.6c0,0,928.7-349.7,1111.9-456.9c33-19.3,29.1-88.8,29.1-88.8"/>
<g>
	<path class="st8" d="M1431.6,1075.4c15.9-180.8,26.5-361.8,31.8-543.2"/>
</g>
<g>
	<path class="st8" d="M1125.8,1075.8c141.1-156.9,251.3-336.6,297.5-544.1"/>
</g>
<g>
	<path class="st9" d="M1522.9,1075.4c-135-64.6-259.2-150.6-349.2-271.9c-56-75.4-110.1-174.8-98.6-272.2"/>
</g>
<g>
	<path class="st9" d="M1461.9,1075.5c-133.8-66.6-256.3-156-339.2-282.4c-48.6-74.1-92.2-170.3-74.3-261"/>
</g>
<g>
	<path class="st9" d="M1370,1075.6c-173.5-107.7-388.6-314.7-348.4-544.1"/>
</g>
<g>
	<path class="st9" d="M1008.3,531.5c-61.7,221,134.3,433.6,300.6,544.1"/>
</g>
<g>
	<path class="st9" d="M994.9,531.5c-69,217.7,119.3,432.4,283.4,544.2"/>
</g>
<g>
	<path class="st9" d="M981.5,530.6c-76.4,214.6,103.9,431.7,266.2,545.1"/>
</g>
<g>
	<path class="st9" d="M1186.6,1075.8C1027,960.6,858.2,741.8,942.7,532.2"/>
</g>
<g>
	<path class="st9" d="M1095,1075.9C950.6,932.6,861.1,734.1,929.4,532.2"/>
</g>
<g>
	<path class="st9" d="M900.7,530.7c-72.1,196.6-2.5,394.4,132.5,545.2"/>
</g>
<g>
	<path class="st9" d="M862.3,531.7c-63.9,189-27.3,378.9,79.9,544.3"/>
</g>
<g>
	<path class="st9" d="M821.8,531.8c-70.3,185.9-43.1,376.1,59.1,544.3"/>
</g>
<g>
	<path class="st9" d="M779.8,530.8c-32.3,182.6-29,363.9,9.3,545.4"/>
</g>
<g>
	<path class="st9" d="M740.3,531.9c-45.4,178.9-70.3,359.9-73.5,544.5"/>
</g>
<g>
	<path class="st9" d="M207.9,1076.9C359.6,914.6,488.5,735.2,579.8,532"/>
</g>
<g>
	<path class="st9" d="M177.3,1076.9c152.6-162.3,282.6-341.7,375.1-544.9"/>
</g>
<g>
	<path class="st9" d="M24.5,1077.2C226.6,943.8,425,764,513.3,532.1"/>
</g>
<g>
	<path class="st9" d="M1217.1,1075.7c-161.5-113.4-339.3-330.3-261.7-543.5"/>
</g>
<g>
	<path class="st9" d="M1063.2,1075.9C921.6,930.1,840.9,730.4,915.4,531.6"/>
</g>
<g>
	<path class="st9" d="M911.6,1076.1c-106.1-165.8-140.9-355.5-75.8-543.7"/>
</g>
<g>
	<path class="st9" d="M727.9,1076.3c-24.1-183.6-15.1-364.8,25.8-545.4"/>
</g>
<g>
	<path class="st9" d="M636.1,1076.4c9-185.5,39.8-366.9,90.8-545.5"/>
</g>
<g>
	<path class="st9" d="M451.2,1076.6C539.4,902,610.3,721,661,531.9"/>
</g>
<g>
	<path class="st9" d="M330.8,1076.8c131.7-163.8,237.6-343.4,301.9-544.1"/>
</g>
<g>
	<path class="st9" d="M299.7,1076.8C432.7,912.9,540,733.2,605.9,532"/>
</g>
<g>
	<path class="st9" d="M269.1,1076.8c137.8-163.3,250.8-342.6,323.5-544.2"/>
</g>
<g>
	<path class="st9" d="M146.9,1077c157.5-162,293-341.3,392.2-544.9"/>
</g>
<g>
	<g>
		<path class="st10" d="M459.4,533.5c0-0.4,0-0.7,0-0.7l1.3,0.1c0,0.3-1.2,29.3,27.3,50.2c96.1,70.4,668,344.9,779.3,387.3
			c140.4,53.6,225,103.9,225.8,104.4l-0.7,1.1c-0.8-0.5-85.3-50.8-225.6-104.3c-111.3-42.5-683.5-317.1-779.6-387.5
			C460.6,564.6,459.4,538.1,459.4,533.5z"/>
	</g>
</g>
<g>
	<path class="st8" d="M972.8,1076c177.4-141.7,341.8-322.4,410.5-543.7"/>
</g>
<g>
	<path class="st9" d="M887.4,531.7C810,724.9,871,923,1002.7,1076"/>
</g>
<g>
	<path class="st5" d="M1184.8,4.5C984.7,48.8,796.1,129,637,259.9c-82.1,67.5-190.7,164.4-217.8,272.6"/>
</g>
<g>
	<path class="st5" d="M1093.1,4.7C910.5,54.8,738.8,135,594.9,259.7c-79.2,68.7-179.4,165.4-202.4,272.7"/>
</g>
<g>
	<path class="st5" d="M696.2,5.3c-161.3,138.3-308.1,314.9-356.1,527"/>
</g>
<g>
	<path class="st5" d="M512.4,5.6c-97.2,164.1-167,338.5-199.6,526.8"/>
</g>
<g>
	<path class="st5" d="M482.2,5.6c-92.3,165-156.3,339.3-182.8,526.8"/>
</g>
<g>
	<path class="st5" d="M360.6,5.7c-36.8,174.3-66.1,349.8-87.9,526.7"/>
</g>
<g>
	<path class="st8" d="M818.7,5.1c215.4,108.1,475,282.5,551.1,525.4"/>
</g>
<g>
	<path class="st5" d="M726.4,5.3C564.1,143.5,416,319.9,366,532.3"/>
</g>
<g>
	<path class="st11" d="M187.1,491c0-8.1,0.4-17,1.4-26.3c3.7-33.9,16.8-80,58.4-107.7c46.5-30.8,126.8-45.6,219.9-62.6
		c68.3-12.5,138.9-25.5,206.8-46.5C1024.2,139.3,1426.1,5.2,1430.1,3.9l0.4,1.2c-4,1.3-406,135.4-756.6,244.1
		c-68,21.1-138.6,34-206.9,46.5c-92.9,17-173.1,31.7-219.4,62.4c-41.2,27.3-54.2,73.1-57.9,106.7c-4,36.5,1.9,66.8,2,67.1l-1.2,0.2
		C190.5,532,187.1,514.9,187.1,491z"/>
</g>
<g>
	<path class="st11" d="M173.9,483c0-8.5,0.4-17.6,1.4-27.1c4.1-37.5,19.7-87.7,70.1-114c56.6-29.5,115.6-41,190.2-55.6
		c63.3-12.4,135.1-26.5,227.9-54.9C964.5,139.2,1334.7,5.3,1338.4,4l0.4,1.2c-3.7,1.3-373.9,135.2-674.8,227.4
		c-92.9,28.5-164.7,42.5-228.1,55c-74.5,14.6-133.4,26.1-189.9,55.5c-49.9,26-65.3,75.8-69.4,113c-4.5,40.4,3,75,3.1,75.4l-1.2,0.3
		C178.4,531.4,174,510.9,173.9,483z"/>
</g>
<g>
	<path class="st11" d="M162.3,496.6c0-32.4,6.2-82.4,37.5-129c25.8-38.4,82.4-81.4,168.3-127.8c68.7-37.1,156.1-76.4,259.8-116.9
		C804.5,53.9,969.5,4.9,971.2,4.4l0.4,1.2c-1.6,0.5-166.6,49.5-343.2,118.4c-103.7,40.5-191.1,79.8-259.7,116.8
		C283,287.2,226.5,330,200.8,368.2c-51.5,76.7-34.7,162.4-34.5,163.2l-1.2,0.3C165,531.4,162.3,517.7,162.3,496.6z"/>
</g>
<g>
	<path class="st11" d="M150.7,504c0-31.5,2.9-82.4,20.1-118.6c25.9-54.4,93.5-96.3,165.1-140.6c38.4-23.8,78-48.3,110.8-75.1
		C494.4,130.9,663.3,6.1,665,4.9l0.8,1c-1.7,1.3-170.6,126-218.2,164.8c-32.9,26.8-72.6,51.4-111,75.2
		c-71.4,44.2-138.9,86-164.6,140.1c-26.3,55.3-19.1,145.7-19.1,146.6l-1.3,0.1C151.6,532.3,150.7,521,150.7,504z"/>
</g>
<g>
	<path class="st6" d="M451.6,5.6c-159.7,129.5-312.7,312.2-326.2,527"/>
</g>
<g>
	<path class="st6" d="M267.7,5.9C167.6,167,108.8,342.5,112.1,533.2"/>
</g>
<g>
	<path class="st12" d="M58.1,532.5c0.2-0.6,20.8-56.2,66.9-106.1c57.3-62,105.5-78.1,284.8-137.9c30.1-10,64.3-21.4,102.8-34.5
		c32.6-11,74.9-23.3,123.9-37.5c87.1-25.2,195.5-56.6,304.2-97.3C1090.8,63.2,1214.6,4.7,1215.8,4.1l0.5,1.2
		c-1.2,0.6-125.1,59-275.2,115.2c-108.7,40.7-217.2,72.1-304.3,97.3c-49,14.2-91.3,26.4-123.8,37.5c-38.5,13-72.6,24.4-102.8,34.5
		C231.1,349.4,183,365.4,125.9,427.2C80,476.9,59.5,532.3,59.2,532.9L58.1,532.5z"/>
</g>
<g>
	<path class="st13" d="M44.6,532.6c0.1-0.3,5.5-30.1,26.8-68.2c19.6-35.2,57.1-85,124.3-122.3c83.3-46.2,231.8-91.3,389-139.1
		c101-30.7,205.5-62.5,298.8-96.3C1020,57,1123,4.8,1124,4.3l0.6,1.1c-1,0.5-104.1,52.8-240.6,102.3
		c-93.3,33.9-197.8,65.6-298.8,96.4C428,251.9,279.5,297,196.4,343.1c-66.9,37.1-104.3,86.7-123.8,121.8
		c-21.2,38-26.6,67.6-26.7,67.9L44.6,532.6z"/>
</g>
<g>
	<path class="st7" d="M390.4,5.7C225.6,139.1,70.8,317.5,31.7,532.7"/>
</g>
<g>
	<path class="st9" d="M573.6,5.5c47.8,173.4,85.8,348.7,113.8,526.4"/>
</g>
<g>
	<path class="st8" d="M1307.9,4.6c52.8,173.1,96.1,348.5,129.4,526.4"/>
</g>
<g>
	<path class="st9" d="M1001.5,5c-87.6,164.5-134.6,339.7-126.8,526.7"/>
</g>
<g>
	<path class="st8" d="M788.1,5.2c220.4,108.5,482.4,282.8,568.2,526.3"/>
</g>
<g>
	<path class="st14" d="M237.7,6.5l0.6-1.1c0.6,0.3,61.2,29.7,154.5,55.1c35.9,9.8,75.9,20.3,118.2,31.4
		c170.1,44.7,363,95.4,447.9,139.6c100.5,52.4,176.1,95.3,232.6,171c31.3,42,43.2,127.8,43.3,128.7l-1.3,0.2
		c-0.1-0.9-11.9-86.3-43.1-128.1c-56.4-75.5-131.8-118.4-232.1-170.7c-84.8-44.2-277.5-94.8-447.6-139.5
		C468.3,82,428.3,71.5,392.4,61.7C299,36.2,238.3,6.8,237.7,6.5z"/>
</g>
<g>
	<path class="st15" d="M1158.3,532c0.1-0.7,9.4-67.4-16.3-139.3c-21.9-61.2-79.1-125.6-110.5-144.9
		c-85.8-52.7-339.9-123.7-525.5-175.6c-17.6-4.9-34.5-9.7-50.6-14.2C364.1,32.3,298.7,6.7,298.1,6.4"/>
</g>
<g>
	<path class="st15" d="M910.2,5.1c113.2,157.2,190.1,331.8,205.4,526.3"/>
</g>
<g>
	<path class="st9" d="M1491,4.3c-126,61-241.7,140.7-327.5,252.8c-57.3,74.9-113.6,175.4-101.3,273.5"/>
</g>
<g>
	<path class="st9" d="M1460.4,4.3c-125.8,61.1-241.4,140.9-326.8,253.3c-57.1,75.1-113,175.9-100.1,274"/>
</g>
<g>
	<path class="st9" d="M940.7,5c-78.1,166.8-113,342-93.5,525.7"/>
</g>
<g>
	<path class="st9" d="M849,5.2c-46.6,172.9-65.9,347.7-55.9,526.6"/>
</g>
<g>
	<path class="st9" d="M757.2,5.3c16.2,175.4,19.4,350.7,9.8,526.6"/>
</g>
<g>
	<path class="st9" d="M634.8,5.4c35.6,173.8,61.3,348.8,76.8,525.5"/>
</g>
<g>
	<path class="st9" d="M543.1,5.5C596,178.4,639.4,353.3,672.8,531"/>
</g>
<g>
	<path class="st9" d="M329,5.8c121.4,161.5,221,335,289.7,525.3"/>
</g>
<g>
	<path class="st9" d="M206.7,5.9c155.6,149.3,285.6,321.3,359.8,525.2"/>
</g>
<g>
	<path class="st9" d="M1247.2,4.7c-154.3,123-306.6,315.7-279,527"/>
</g>
<g>
	<path class="st9" d="M879.7,5.1c-59.3,170.7-84.7,345.3-71.9,525.7"/>
</g>
<g>
	<path class="st9" d="M604.2,5.5c42.2,173.7,74.5,349.1,96.6,526.4"/>
</g>
<g>
	<path class="st9" d="M420.7,5.7c92.7,168.2,169.2,343,226.6,526.3"/>
</g>
<g>
	<path class="st10" d="M472.3,523.8c0-8,1.1-21,6.4-36.2c8.2-23.3,28.5-56.7,78.4-83.6c117.6-63.6,300.4-132.3,493.9-205.1
		c24.3-9.1,48.7-18.3,73.3-27.6c214.5-81,395.6-166.7,397.4-167.6l0.5,1.2c-1.8,0.9-183,86.6-397.5,167.6
		c-24.5,9.3-49,18.5-73.3,27.6c-193.5,72.8-376.3,141.5-493.8,205c-49.5,26.8-69.6,59.9-77.8,82.9c-8.8,24.9-5.9,43.8-5.9,43.9
		l-1.3,0.2C472.7,532.2,472.3,529.1,472.3,523.8z"/>
</g>
<g>
	<path class="st16" d="M1399.7,4.5c79.4,166.8,125.8,341.4,130.6,526.4"/>
</g>
<g>
	<path class="st16" d="M1277.4,4.6c133,148.5,229.1,324.1,239.6,526.3"/>
</g>
<g>
	<path class="st16" d="M1155.1,4.8c168,119.5,344.9,305.7,348.6,526.2"/>
</g>
<g>
	<path class="st8" d="M1369,4.5c32.2,174.7,59.5,350.2,81.6,526.5"/>
</g>
<g>
	<path class="st8" d="M1063.3,4.9c157.4,141.9,297.7,318.6,348,528.7"/>
</g>
<g>
	<path class="st14" d="M145.1,6.6l0.5-1.2c0.7,0.3,71.9,31,178.6,61.9c35.2,10.2,73.9,21.2,114.9,32.9
		c216.1,61.6,485.1,138.3,598.6,193.6c29.9,14.6,107.6,64,144,116c40.9,58.5,40.3,119.8,40.3,120.5l-1.3,0c0-0.6,0.6-61.6-40-119.7
		c-36.2-51.9-113.7-101.1-143.5-115.6c-113.3-55.2-382.3-131.9-598.4-193.5c-41-11.7-79.7-22.7-114.9-32.9
		C217,37.6,145.8,6.9,145.1,6.6z"/>
	<g>
		<path class="st5" d="M176,6c90.4,164.4,124.4,342.8,83.4,527.1"/>
	</g>
</g>
<g>
	<path class="st8" d="M1032.3,4.9c162,141.4,307.7,317.6,365.7,528.7"/>
</g>
<g>
	<path class="st5" d="M115.4,6c99,160.7,146.5,338.2,117.2,526.4"/>
</g>
<g>
	<path class="st9" d="M84.9,6.1C261.8,153,422.3,325.5,527,532.1"/>
</g>
<g>
	<path class="st14" d="M53.9,6.7l0.5-1.2c1.1,0.5,111,47,258.1,89.9c77.2,22.5,165.4,46.6,250.7,69.9
		c165.4,45.2,321.5,87.9,401.3,119.2c5.4,2.1,11.1,4.3,17,6.5c55.3,21.2,131.1,50.2,187.8,115.4c43.9,50.5,39.8,124.2,39.7,124.9
		l-1.3-0.1c0-0.7,4.2-73.8-39.4-124c-56.4-64.9-132-93.9-187.2-115c-5.9-2.2-11.5-4.4-17-6.5c-79.7-31.3-235.9-73.9-401.2-119.1
		c-85.3-23.3-173.5-47.4-250.7-69.9C165,53.7,55,7.2,53.9,6.7z"/>
</g>
<g>
	<path class="st6" d="M21.8,6.2c63.4,170.2,90.9,345.1,77,526.5"/>
</g>
<path class="st17" d="M573.6,5.5"/>
<ellipse transform="matrix(1 -1.200045e-03 1.200045e-03 1 -4.127307e-03 1.8265)" class="st18" cx="1522" cy="4.4" rx="5" ry="5"/>
<ellipse transform="matrix(1 -1.200045e-03 1.200045e-03 1 -4.193391e-03 1.7898)" class="st19" cx="1491.4" cy="4.4" rx="5" ry="5"/>
<ellipse transform="matrix(1 -1.200045e-03 1.200045e-03 1 -4.259476e-03 1.753)" class="st19" cx="1460.8" cy="4.4" rx="5" ry="5"/>
<ellipse transform="matrix(1 -1.200045e-03 1.200045e-03 1 -4.325559e-03 1.7163)" class="st20" cx="1430.2" cy="4.5" rx="5" ry="5"/>
<ellipse transform="matrix(1 -1.200045e-03 1.200045e-03 1 -4.391643e-03 1.6796)" class="st21" cx="1399.6" cy="4.5" rx="5" ry="5"/>
<ellipse transform="matrix(1 -1.200045e-03 1.200045e-03 1 -4.457727e-03 1.6429)" class="st22" cx="1369" cy="4.5" rx="5" ry="5"/>
<ellipse transform="matrix(1 -1.200045e-03 1.200045e-03 1 -4.523811e-03 1.6062)" class="st20" cx="1338.4" cy="4.6" rx="5" ry="5"/>
<ellipse transform="matrix(1 -1.200045e-03 1.200045e-03 1 -4.589895e-03 1.5695)" class="st22" cx="1307.9" cy="4.6" rx="5" ry="5"/>
<ellipse transform="matrix(1 -1.200045e-03 1.200045e-03 1 -4.655978e-03 1.5328)" class="st21" cx="1277.3" cy="4.6" rx="5" ry="5"/>
<ellipse transform="matrix(1 -1.200045e-03 1.200045e-03 1 -4.722062e-03 1.4961)" class="st19" cx="1246.7" cy="4.7" rx="5" ry="5"/>
<ellipse transform="matrix(1 -1.200045e-03 1.200045e-03 1 -4.788146e-03 1.4593)" class="st23" cx="1216.1" cy="4.7" rx="5" ry="5"/>
<ellipse transform="matrix(1 -1.200045e-03 1.200045e-03 1 -4.854231e-03 1.4226)" class="st18" cx="1185.5" cy="4.8" rx="5" ry="5"/>
<ellipse transform="matrix(1 -1.200045e-03 1.200045e-03 1 -4.920315e-03 1.3859)" class="st21" cx="1154.9" cy="4.8" rx="5" ry="5"/>
<ellipse transform="matrix(1 -1.200045e-03 1.200045e-03 1 -4.986398e-03 1.3492)" class="st24" cx="1124.3" cy="4.8" rx="5" ry="5"/>
<ellipse transform="matrix(1 -1.200045e-03 1.200045e-03 1 -5.052483e-03 1.3125)" class="st18" cx="1093.7" cy="4.9" rx="5" ry="5"/>
<ellipse transform="matrix(1 -1.200045e-03 1.200045e-03 1 -5.118566e-03 1.2758)" class="st22" cx="1063.1" cy="4.9" rx="5" ry="5"/>
<ellipse transform="matrix(1 -1.200045e-03 1.200045e-03 1 -5.185569e-03 1.2386)" class="st20" cx="1032.1" cy="4.9" rx="5" ry="5"/>
<ellipse transform="matrix(1 -1.200045e-03 1.200045e-03 1 -5.251652e-03 1.2019)" class="st19" cx="1001.5" cy="5" rx="5" ry="5"/>
<ellipse transform="matrix(1 -1.200045e-03 1.200045e-03 1 -5.316818e-03 1.1657)" class="st20" cx="971.3" cy="5" rx="5" ry="5"/>
<ellipse transform="matrix(1 -1.200045e-03 1.200045e-03 1 -5.382902e-03 1.1289)" class="st19" cx="940.7" cy="5.1" rx="5" ry="5"/>
<ellipse transform="matrix(1 -1.200045e-03 1.200045e-03 1 -5.448986e-03 1.0922)" class="st25" cx="910.2" cy="5.1" rx="5" ry="5"/>
<ellipse transform="matrix(1 -1.200045e-03 1.200045e-03 1 -5.515068e-03 1.0555)" class="st19" cx="879.6" cy="5.1" rx="5" ry="5"/>
<ellipse transform="matrix(1 -1.200045e-03 1.200045e-03 1 -5.581153e-03 1.0188)" class="st19" cx="849" cy="5.2" rx="5" ry="5"/>
<ellipse transform="matrix(1 -1.200045e-03 1.200045e-03 1 -5.647236e-03 0.9821)" class="st22" cx="818.4" cy="5.2" rx="5" ry="5"/>
<ellipse transform="matrix(1 -1.200046e-03 1.200046e-03 1 -5.713323e-03 0.9454)" class="st22" cx="787.8" cy="5.2" rx="5" ry="5"/>
<ellipse transform="matrix(1 -1.200045e-03 1.200045e-03 1 -5.779406e-03 0.9087)" class="st19" cx="757.2" cy="5.3" rx="5" ry="5"/>
<ellipse transform="matrix(1 -1.200045e-03 1.200045e-03 1 -5.845489e-03 0.872)" class="st18" cx="726.6" cy="5.3" rx="5" ry="5"/>
<ellipse transform="matrix(1 -1.200045e-03 1.200045e-03 1 -5.911573e-03 0.8352)" class="st18" cx="696" cy="5.3" rx="5" ry="5"/>
<ellipse transform="matrix(1 -1.200045e-03 1.200045e-03 1 -5.977659e-03 0.7985)" class="st20" cx="665.4" cy="5.4" rx="5" ry="5"/>
<ellipse transform="matrix(1 -1.200045e-03 1.200045e-03 1 -6.043742e-03 0.7618)" class="st19" cx="634.8" cy="5.4" rx="5" ry="5"/>
<ellipse transform="matrix(1 -1.200045e-03 1.200045e-03 1 -6.109824e-03 0.7251)" class="st19" cx="604.2" cy="5.5" rx="5" ry="5"/>
<ellipse transform="matrix(1 -1.200045e-03 1.200045e-03 1 -6.175908e-03 0.6884)" class="st19" cx="573.6" cy="5.5" rx="5" ry="5"/>
<ellipse transform="matrix(1 -1.200045e-03 1.200045e-03 1 -6.241993e-03 0.6517)" class="st19" cx="543" cy="5.5" rx="5" ry="5"/>
<ellipse transform="matrix(1 -1.200045e-03 1.200045e-03 1 -6.308076e-03 0.615)" class="st18" cx="512.5" cy="5.6" rx="5" ry="5"/>
<ellipse transform="matrix(1 -1.200045e-03 1.200045e-03 1 -6.374160e-03 0.5783)" class="st18" cx="481.9" cy="5.6" rx="5" ry="5"/>
<ellipse transform="matrix(1 -1.200045e-03 1.200045e-03 1 -6.440245e-03 0.5416)" class="st20" cx="451.3" cy="5.6" rx="5" ry="5"/>
<ellipse transform="matrix(1 -1.200045e-03 1.200045e-03 1 -6.506328e-03 0.5048)" class="st19" cx="420.7" cy="5.7" rx="5" ry="5"/>
<ellipse transform="matrix(1 -1.200045e-03 1.200045e-03 1 -6.572410e-03 0.4681)" class="st23" cx="390.1" cy="5.7" rx="5" ry="5"/>
<ellipse transform="matrix(1 -1.200045e-03 1.200045e-03 1 -6.636203e-03 0.4327)" class="st18" cx="360.6" cy="5.7" rx="5" ry="5"/>
<ellipse transform="matrix(1 -1.200045e-03 1.200045e-03 1 -6.704578e-03 0.3947)" class="st19" cx="328.9" cy="5.8" rx="5" ry="5"/>
<ellipse transform="matrix(1 -1.200045e-03 1.200045e-03 1 -6.770663e-03 0.358)" class="st25" cx="298.3" cy="5.8" rx="5" ry="5"/>
<ellipse transform="matrix(1 -1.200045e-03 1.200045e-03 1 -6.836750e-03 0.3213)" class="st20" cx="267.7" cy="5.9" rx="5" ry="5"/>
<ellipse transform="matrix(1 -1.200045e-03 1.200045e-03 1 -6.900997e-03 0.2856)" class="st22" cx="238" cy="5.9" rx="5" ry="5"/>
<ellipse transform="matrix(1 -1.200045e-03 1.200045e-03 1 -6.968916e-03 0.2479)" class="st19" cx="206.5" cy="5.9" rx="5" ry="5"/>
<ellipse transform="matrix(1 -1.200045e-03 1.200045e-03 1 -7.034999e-03 0.2111)" class="st18" cx="175.9" cy="6" rx="5" ry="5"/>
<ellipse transform="matrix(1 -1.200045e-03 1.200045e-03 1 -7.101086e-03 0.1744)" class="st22" cx="145.4" cy="6" rx="5" ry="5"/>
<ellipse transform="matrix(1 -1.200045e-03 1.200045e-03 1 -7.167168e-03 0.1377)" class="st18" cx="114.8" cy="6" rx="5" ry="5"/>
<ellipse transform="matrix(1 -1.200045e-03 1.200045e-03 1 -7.231873e-03 0.1018)" class="st19" cx="84.8" cy="6.1" rx="5" ry="5"/>
<ellipse transform="matrix(1 -1.200045e-03 1.200045e-03 1 -7.299337e-03 6.429752e-02)" class="st22" cx="53.6" cy="6.1" rx="5" ry="5"/>
<ellipse transform="matrix(1 -1.200045e-03 1.200045e-03 1 -7.365419e-03 2.758564e-02)" class="st20" cx="23" cy="6.2" rx="5" ry="5"/>
<ellipse transform="matrix(1 -1.200045e-03 1.200045e-03 1 -1.2893 1.8289)" class="st19" cx="1523.4" cy="1075.3" rx="5" ry="5"/>
<ellipse transform="matrix(1 -1.200045e-03 1.200045e-03 1 -1.2894 1.7922)" class="st18" cx="1492.8" cy="1075.4" rx="5" ry="5"/>
<ellipse transform="matrix(1 -1.200045e-03 1.200045e-03 1 -1.2895 1.7555)" class="st19" cx="1462.2" cy="1075.4" rx="5" ry="5"/>
<ellipse transform="matrix(1 -1.200045e-03 1.200045e-03 1 -1.2895 1.7188)" class="st22" cx="1431.6" cy="1075.4" rx="5" ry="5"/>
<ellipse transform="matrix(1 -1.200045e-03 1.200045e-03 1 -1.2896 1.6821)" class="st18" cx="1401" cy="1075.5" rx="5" ry="5"/>
<ellipse transform="matrix(1 -1.200044e-03 1.200044e-03 1 -1.2897 1.6454)" class="st19" cx="1370.5" cy="1075.5" rx="5" ry="5"/>
<ellipse transform="matrix(1 -1.200044e-03 1.200044e-03 1 -1.2897 1.6087)" class="st19" cx="1339.9" cy="1075.5" rx="5" ry="5"/>
<ellipse transform="matrix(1 -1.200045e-03 1.200045e-03 1 -1.2898 1.572)" class="st19" cx="1309.3" cy="1075.6" rx="5" ry="5"/>
<ellipse transform="matrix(1 -1.200045e-03 1.200045e-03 1 -1.2899 1.5352)" class="st19" cx="1278.7" cy="1075.6" rx="5" ry="5"/>
<ellipse transform="matrix(1 -1.200045e-03 1.200045e-03 1 -1.2899 1.4985)" class="st19" cx="1248.1" cy="1075.7" rx="5" ry="5"/>
<ellipse transform="matrix(1 -1.200045e-03 1.200045e-03 1 -1.29 1.4618)" class="st19" cx="1217.5" cy="1075.7" rx="5" ry="5"/>
<ellipse transform="matrix(1 -1.200044e-03 1.200044e-03 1 -1.2901 1.4251)" class="st19" cx="1186.9" cy="1075.7" rx="5" ry="5"/>
<ellipse transform="matrix(1 -1.200045e-03 1.200045e-03 1 -1.2901 1.3884)" class="st18" cx="1156.3" cy="1075.8" rx="5" ry="5"/>
<ellipse transform="matrix(1 -1.200045e-03 1.200045e-03 1 -1.2902 1.3517)" class="st22" cx="1125.7" cy="1075.8" rx="5" ry="5"/>
<ellipse transform="matrix(1 -1.200045e-03 1.200045e-03 1 -1.2903 1.315)" class="st19" cx="1095.1" cy="1075.8" rx="5" ry="5"/>
<ellipse transform="matrix(1 -1.200044e-03 1.200044e-03 1 -1.2903 1.2783)" class="st19" cx="1064.5" cy="1075.9" rx="5" ry="5"/>
<ellipse transform="matrix(1 -1.200044e-03 1.200044e-03 1 -1.2904 1.241)" class="st19" cx="1033.5" cy="1075.9" rx="5" ry="5"/>
<ellipse transform="matrix(1 -1.200045e-03 1.200045e-03 1 -1.2905 1.2043)" class="st19" cx="1002.9" cy="1075.9" rx="5" ry="5"/>
<ellipse transform="matrix(1 -1.200045e-03 1.200045e-03 1 -1.2905 1.1681)" class="st22" cx="972.8" cy="1076" rx="5" ry="5"/>
<ellipse transform="matrix(1 -1.200045e-03 1.200045e-03 1 -1.2906 1.1314)" class="st19" cx="942.2" cy="1076" rx="5" ry="5"/>
<ellipse transform="matrix(1 -1.200045e-03 1.200045e-03 1 -1.2907 1.0947)" class="st19" cx="911.6" cy="1076.1" rx="5" ry="5"/>
<ellipse transform="matrix(1 -1.200044e-03 1.200044e-03 1 -1.2907 1.058)" class="st19" cx="881" cy="1076.1" rx="5" ry="5"/>
<ellipse transform="matrix(1 -1.200045e-03 1.200045e-03 1 -1.2908 1.0213)" class="st18" cx="850.4" cy="1076.1" rx="5" ry="5"/>
<ellipse transform="matrix(1 -1.200045e-03 1.200045e-03 1 -1.2909 0.9846)" class="st22" cx="819.8" cy="1076.2" rx="5" ry="5"/>
<ellipse transform="matrix(1 -1.200044e-03 1.200044e-03 1 -1.2909 0.9479)" class="st19" cx="789.2" cy="1076.2" rx="5" ry="5"/>
<ellipse transform="matrix(1 -1.200045e-03 1.200045e-03 1 -1.291 0.9111)" class="st22" cx="758.6" cy="1076.2" rx="5" ry="5"/>
<ellipse transform="matrix(1 -1.200045e-03 1.200045e-03 1 -1.2911 0.8744)" class="st19" cx="728" cy="1076.3" rx="5" ry="5"/>
<ellipse transform="matrix(1 -1.200044e-03 1.200044e-03 1 -1.2911 0.8377)" class="st18" cx="697.4" cy="1076.3" rx="5" ry="5"/>
<ellipse transform="matrix(1 -1.200045e-03 1.200045e-03 1 -1.2912 0.801)" class="st19" cx="666.8" cy="1076.3" rx="5" ry="5"/>
<ellipse transform="matrix(1 -1.200045e-03 1.200045e-03 1 -1.2913 0.7643)" class="st19" cx="636.2" cy="1076.4" rx="5" ry="5"/>
<ellipse transform="matrix(1 -1.200044e-03 1.200044e-03 1 -1.2913 0.7276)" class="st20" cx="605.6" cy="1076.4" rx="5" ry="5"/>
<ellipse transform="matrix(1 -1.200044e-03 1.200044e-03 1 -1.2914 0.6909)" class="st18" cx="575.1" cy="1076.5" rx="5" ry="5"/>
<ellipse transform="matrix(1 -1.200045e-03 1.200045e-03 1 -1.2915 0.6542)" class="st22" cx="544.5" cy="1076.5" rx="5" ry="5"/>
<ellipse transform="matrix(1 -1.200045e-03 1.200045e-03 1 -1.2915 0.6174)" class="st22" cx="513.9" cy="1076.5" rx="5" ry="5"/>
<ellipse transform="matrix(1 -1.200045e-03 1.200045e-03 1 -1.2916 0.5807)" class="st22" cx="483.3" cy="1076.6" rx="5" ry="5"/>
<ellipse transform="matrix(1 -1.200045e-03 1.200045e-03 1 -1.2916 0.544)" class="st19" cx="452.7" cy="1076.6" rx="5" ry="5"/>
<ellipse transform="matrix(1 -1.200045e-03 1.200045e-03 1 -1.2917 0.5073)" class="st22" cx="422.1" cy="1076.6" rx="5" ry="5"/>
<ellipse transform="matrix(1 -1.200045e-03 1.200045e-03 1 -1.2918 0.4706)" class="st18" cx="391.5" cy="1076.7" rx="5" ry="5"/>
<ellipse transform="matrix(1 -1.200044e-03 1.200044e-03 1 -1.2918 0.4352)" class="st22" cx="362" cy="1076.7" rx="5" ry="5"/>
<ellipse transform="matrix(1 -1.200045e-03 1.200045e-03 1 -1.2919 0.3972)" class="st19" cx="330.3" cy="1076.8" rx="5" ry="5"/>
<ellipse transform="matrix(1 -1.200045e-03 1.200045e-03 1 -1.292 0.3605)" class="st19" cx="299.7" cy="1076.8" rx="5" ry="5"/>
<ellipse transform="matrix(1 -1.200045e-03 1.200045e-03 1 -1.292 0.3237)" class="st19" cx="269.1" cy="1076.8" rx="5" ry="5"/>
<ellipse transform="matrix(1 -1.200044e-03 1.200044e-03 1 -1.2921 0.2881)" class="st22" cx="239.4" cy="1076.9" rx="5" ry="5"/>
<ellipse transform="matrix(1 -1.200044e-03 1.200044e-03 1 -1.2922 0.2503)" class="st19" cx="208" cy="1076.9" rx="5" ry="5"/>
<ellipse transform="matrix(1 -1.200044e-03 1.200044e-03 1 -1.2922 0.2136)" class="st19" cx="177.4" cy="1076.9" rx="5" ry="5"/>
<ellipse transform="matrix(1 -1.200044e-03 1.200044e-03 1 -1.2923 0.1769)" class="st19" cx="146.8" cy="1077" rx="5" ry="5"/>
<ellipse transform="matrix(1 -1.200045e-03 1.200045e-03 1 -1.2924 0.1402)" class="st18" cx="116.2" cy="1077" rx="5" ry="5"/>
<ellipse transform="matrix(1 -1.200045e-03 1.200045e-03 1 -1.2924 0.1042)" class="st23" cx="86.2" cy="1077" rx="5" ry="5"/>
<ellipse transform="matrix(1 -1.200044e-03 1.200044e-03 1 -1.2925 6.676637e-02)" class="st22" cx="55" cy="1077.1" rx="5" ry="5"/>
<ellipse transform="matrix(1 -1.200045e-03 1.200045e-03 1 -1.2926 3.005455e-02)" class="st19" cx="24.4" cy="1077.1" rx="5" ry="5"/>
<ellipse transform="matrix(1 -1.200045e-03 1.200045e-03 1 -0.6393 2.260446e-02)" class="st23" cx="18.5" cy="532.7" rx="3.9" ry="3.9"/>
<ellipse transform="matrix(1 -1.200046e-03 1.200046e-03 1 -0.6392 3.865916e-02)" class="st23" cx="31.9" cy="532.7" rx="3.9" ry="3.9"/>
<ellipse transform="matrix(1 -1.200046e-03 1.200046e-03 1 -0.6392 5.471384e-02)" class="st24" cx="45.3" cy="532.7" rx="3.9" ry="3.9"/>
<ellipse transform="matrix(1 -1.200045e-03 1.200045e-03 1 -0.6392 7.076845e-02)" class="st23" cx="58.7" cy="532.7" rx="3.9" ry="3.9"/>
<ellipse transform="matrix(1 -1.200044e-03 1.200044e-03 1 -0.6391 0.1189)" class="st20" cx="98.8" cy="532.6" rx="3.9" ry="3.9"/>
<ellipse transform="matrix(1 -1.200046e-03 1.200046e-03 1 -0.6391 0.135)" class="st20" cx="112.2" cy="532.6" rx="3.9" ry="3.9"/>
<ellipse transform="matrix(1 -1.200044e-03 1.200044e-03 1 -0.639 0.151)" class="st20" cx="125.5" cy="532.6" rx="3.9" ry="3.9"/>
<ellipse transform="matrix(1 -1.200045e-03 1.200045e-03 1 -0.639 0.1671)" class="st20" cx="138.9" cy="532.6" rx="3.9" ry="3.9"/>
<ellipse transform="matrix(1 -1.200046e-03 1.200046e-03 1 -0.639 0.1832)" class="st20" cx="152.3" cy="532.6" rx="3.9" ry="3.9"/>
<ellipse transform="matrix(1 -1.200045e-03 1.200045e-03 1 -0.639 0.1992)" class="st20" cx="165.7" cy="532.5" rx="3.9" ry="3.9"/>
<ellipse transform="matrix(1 -1.200046e-03 1.200046e-03 1 -0.6389 0.2153)" class="st20" cx="179.1" cy="532.5" rx="3.9" ry="3.9"/>
<ellipse transform="matrix(1 -1.200045e-03 1.200045e-03 1 -0.6389 0.2313)" class="st20" cx="192.4" cy="532.5" rx="3.9" ry="3.9"/>
<ellipse transform="matrix(1 -1.200045e-03 1.200045e-03 1 -0.6388 0.2795)" class="st18" cx="232.6" cy="532.5" rx="3.9" ry="3.9"/>
<ellipse transform="matrix(1 -1.200045e-03 1.200045e-03 1 -0.6388 0.2955)" class="st18" cx="245.9" cy="532.4" rx="3.9" ry="3.9"/>
<ellipse transform="matrix(1 -1.200046e-03 1.200046e-03 1 -0.6388 0.3116)" class="st18" cx="259.3" cy="532.4" rx="3.9" ry="3.9"/>
<ellipse transform="matrix(1 -1.200045e-03 1.200045e-03 1 -0.6387 0.3276)" class="st18" cx="272.7" cy="532.4" rx="3.9" ry="3.9"/>
<ellipse transform="matrix(1 -1.200046e-03 1.200046e-03 1 -0.6387 0.3437)" class="st18" cx="286.1" cy="532.4" rx="3.9" ry="3.9"/>
<ellipse transform="matrix(1 -1.200046e-03 1.200046e-03 1 -0.6387 0.3598)" class="st18" cx="299.5" cy="532.4" rx="3.9" ry="3.9"/>
<ellipse transform="matrix(1 -1.200046e-03 1.200046e-03 1 -0.6386 0.3758)" class="st18" cx="312.8" cy="532.4" rx="3.9" ry="3.9"/>
<ellipse transform="matrix(1 -1.200046e-03 1.200046e-03 1 -0.6386 0.3919)" class="st18" cx="326.2" cy="532.4" rx="3.9" ry="3.9"/>
<ellipse transform="matrix(1 -1.200045e-03 1.200045e-03 1 -0.6386 0.4079)" class="st18" cx="339.6" cy="532.3" rx="3.9" ry="3.9"/>
<ellipse transform="matrix(1 -1.200045e-03 1.200045e-03 1 -0.6386 0.424)" class="st18" cx="353" cy="532.3" rx="3.9" ry="3.9"/>
<ellipse transform="matrix(1 -1.200045e-03 1.200045e-03 1 -0.6385 0.44)" class="st18" cx="366.4" cy="532.3" rx="3.9" ry="3.9"/>
<ellipse transform="matrix(1 -1.200045e-03 1.200045e-03 1 -0.6385 0.4561)" class="st18" cx="379.7" cy="532.3" rx="3.9" ry="3.9"/>
<ellipse transform="matrix(1 -1.200046e-03 1.200046e-03 1 -0.6385 0.4721)" class="st18" cx="393.1" cy="532.3" rx="3.9" ry="3.9"/>
<ellipse transform="matrix(1 -1.200046e-03 1.200046e-03 1 -0.6384 0.4882)" class="st18" cx="406.5" cy="532.3" rx="3.9" ry="3.9"/>
<ellipse transform="matrix(1 -1.200045e-03 1.200045e-03 1 -0.6384 0.5042)" class="st18" cx="419.9" cy="532.2" rx="3.9" ry="3.9"/>
<ellipse transform="matrix(1 -1.200046e-03 1.200046e-03 1 -0.6384 0.5203)" class="st18" cx="433.2" cy="532.2" rx="3.9" ry="3.9"/>
<ellipse transform="matrix(1 -1.200045e-03 1.200045e-03 1 -0.6383 0.5364)" class="st18" cx="446.6" cy="532.2" rx="3.9" ry="3.9"/>
<ellipse transform="matrix(1 -1.200045e-03 1.200045e-03 1 -0.6383 0.5524)" class="st18" cx="460" cy="532.2" rx="3.9" ry="3.9"/>
<ellipse transform="matrix(1 -1.200045e-03 1.200045e-03 1 -0.6383 0.5685)" class="st18" cx="473.4" cy="532.2" rx="3.9" ry="3.9"/>
<ellipse transform="matrix(1 -1.200045e-03 1.200045e-03 1 -0.6382 0.6166)" class="st19" cx="513.5" cy="532.1" rx="3.9" ry="3.9"/>
<ellipse transform="matrix(1 -1.200045e-03 1.200045e-03 1 -0.6382 0.6327)" class="st19" cx="526.9" cy="532.1" rx="3.9" ry="3.9"/>
<ellipse transform="matrix(1 -1.200046e-03 1.200046e-03 1 -0.6381 0.6487)" class="st19" cx="540.3" cy="532.1" rx="3.9" ry="3.9"/>
<ellipse transform="matrix(1 -1.200045e-03 1.200045e-03 1 -0.6381 0.6648)" class="st19" cx="553.7" cy="532.1" rx="3.9" ry="3.9"/>
<ellipse transform="matrix(1 -1.200046e-03 1.200046e-03 1 -0.6381 0.6808)" class="st19" cx="567" cy="532.1" rx="3.9" ry="3.9"/>
<ellipse transform="matrix(1 -1.200045e-03 1.200045e-03 1 -0.6381 0.6969)" class="st19" cx="580.4" cy="532" rx="3.9" ry="3.9"/>
<ellipse transform="matrix(1 -1.200046e-03 1.200046e-03 1 -0.638 0.713)" class="st19" cx="593.8" cy="532" rx="3.9" ry="3.9"/>
<ellipse transform="matrix(1 -1.200045e-03 1.200045e-03 1 -0.638 0.729)" class="st19" cx="607.2" cy="532" rx="3.9" ry="3.9"/>
<ellipse transform="matrix(1 -1.200046e-03 1.200046e-03 1 -0.638 0.7451)" class="st19" cx="620.5" cy="532" rx="3.9" ry="3.9"/>
<ellipse transform="matrix(1 -1.200046e-03 1.200046e-03 1 -0.6379 0.7611)" class="st19" cx="633.9" cy="532" rx="3.9" ry="3.9"/>
<ellipse transform="matrix(1 -1.200046e-03 1.200046e-03 1 -0.6379 0.7772)" class="st19" cx="647.3" cy="532" rx="3.9" ry="3.9"/>
<ellipse transform="matrix(1 -1.200046e-03 1.200046e-03 1 -0.6379 0.7932)" class="st19" cx="660.7" cy="531.9" rx="3.9" ry="3.9"/>
<ellipse transform="matrix(1 -1.200045e-03 1.200045e-03 1 -0.6379 0.8093)" class="st19" cx="674.1" cy="531.9" rx="3.9" ry="3.9"/>
<ellipse transform="matrix(1 -1.200046e-03 1.200046e-03 1 -0.6378 0.8253)" class="st19" cx="687.4" cy="531.9" rx="3.9" ry="3.9"/>
<ellipse transform="matrix(1 -1.200046e-03 1.200046e-03 1 -0.6378 0.8414)" class="st19" cx="700.8" cy="531.9" rx="3.9" ry="3.9"/>
<ellipse transform="matrix(1 -1.200046e-03 1.200046e-03 1 -0.6378 0.8574)" class="st19" cx="714.2" cy="531.9" rx="3.9" ry="3.9"/>
<ellipse transform="matrix(1 -1.200046e-03 1.200046e-03 1 -0.6377 0.8735)" class="st19" cx="727.6" cy="531.9" rx="3.9" ry="3.9"/>
<ellipse transform="matrix(1 -1.200046e-03 1.200046e-03 1 -0.6377 0.8896)" class="st19" cx="741" cy="531.9" rx="3.9" ry="3.9"/>
<ellipse transform="matrix(1 -1.200045e-03 1.200045e-03 1 -0.6377 0.9056)" class="st19" cx="754.3" cy="531.8" rx="3.9" ry="3.9"/>
<ellipse transform="matrix(1 -1.200046e-03 1.200046e-03 1 -0.6377 0.9217)" class="st19" cx="767.7" cy="531.8" rx="3.9" ry="3.9"/>
<ellipse transform="matrix(1 -1.200046e-03 1.200046e-03 1 -0.6376 0.9377)" class="st19" cx="781.1" cy="531.8" rx="3.9" ry="3.9"/>
<ellipse transform="matrix(1 -1.200045e-03 1.200045e-03 1 -0.6376 0.9538)" class="st19" cx="794.5" cy="531.8" rx="3.9" ry="3.9"/>
<ellipse transform="matrix(1 -1.200046e-03 1.200046e-03 1 -0.6376 0.9698)" class="st19" cx="807.8" cy="531.8" rx="3.9" ry="3.9"/>
<ellipse transform="matrix(1 -1.200046e-03 1.200046e-03 1 -0.6375 0.9859)" class="st19" cx="821.2" cy="531.8" rx="3.9" ry="3.9"/>
<ellipse transform="matrix(1 -1.200045e-03 1.200045e-03 1 -0.6375 1.0019)" class="st19" cx="834.6" cy="531.7" rx="3.9" ry="3.9"/>
<ellipse transform="matrix(1 -1.200046e-03 1.200046e-03 1 -0.6375 1.018)" class="st19" cx="848" cy="531.7" rx="3.9" ry="3.9"/>
<ellipse transform="matrix(1 -1.200046e-03 1.200046e-03 1 -0.6375 1.034)" class="st19" cx="861.4" cy="531.7" rx="3.9" ry="3.9"/>
<ellipse transform="matrix(1 -1.200044e-03 1.200044e-03 1 -0.6374 1.0501)" class="st19" cx="874.7" cy="531.7" rx="3.9" ry="3.9"/>
<ellipse transform="matrix(1 -1.200046e-03 1.200046e-03 1 -0.6374 1.0662)" class="st19" cx="888.1" cy="531.7" rx="3.9" ry="3.9"/>
<ellipse transform="matrix(1 -1.200045e-03 1.200045e-03 1 -0.6374 1.0822)" class="st19" cx="901.5" cy="531.7" rx="3.9" ry="3.9"/>
<ellipse transform="matrix(1 -1.200045e-03 1.200045e-03 1 -0.6373 1.0983)" class="st19" cx="914.9" cy="531.6" rx="3.9" ry="3.9"/>
<ellipse transform="matrix(1 -1.200045e-03 1.200045e-03 1 -0.6373 1.1143)" class="st19" cx="928.2" cy="531.6" rx="3.9" ry="3.9"/>
<ellipse transform="matrix(1 -1.200046e-03 1.200046e-03 1 -0.6373 1.1304)" class="st19" cx="941.6" cy="531.6" rx="3.9" ry="3.9"/>
<ellipse transform="matrix(1 -1.200046e-03 1.200046e-03 1 -0.6373 1.1464)" class="st19" cx="955" cy="531.6" rx="3.9" ry="3.9"/>
<ellipse transform="matrix(1 -1.200045e-03 1.200045e-03 1 -0.6372 1.1625)" class="st19" cx="968.4" cy="531.6" rx="3.9" ry="3.9"/>
<ellipse transform="matrix(1 -1.200046e-03 1.200046e-03 1 -0.6372 1.1785)" class="st19" cx="981.8" cy="531.6" rx="3.9" ry="3.9"/>
<ellipse transform="matrix(1 -1.200045e-03 1.200045e-03 1 -0.6372 1.1946)" class="st19" cx="995.1" cy="531.5" rx="3.9" ry="3.9"/>
<ellipse transform="matrix(1 -1.200046e-03 1.200046e-03 1 -0.6371 1.2107)" class="st19" cx="1008.5" cy="531.5" rx="3.9" ry="3.9"/>
<ellipse transform="matrix(1 -1.200045e-03 1.200045e-03 1 -0.6371 1.2267)" class="st19" cx="1021.9" cy="531.5" rx="3.9" ry="3.9"/>
<ellipse transform="matrix(1 -1.200046e-03 1.200046e-03 1 -0.6371 1.2428)" class="st19" cx="1035.3" cy="531.5" rx="3.9" ry="3.9"/>
<ellipse transform="matrix(1 -1.200045e-03 1.200045e-03 1 -0.637 1.2588)" class="st19" cx="1048.7" cy="531.5" rx="3.9" ry="3.9"/>
<ellipse transform="matrix(1 -1.200046e-03 1.200046e-03 1 -0.637 1.2749)" class="st19" cx="1062" cy="531.5" rx="3.9" ry="3.9"/>
<ellipse transform="matrix(1 -1.200046e-03 1.200046e-03 1 -0.637 1.2909)" class="st19" cx="1075.4" cy="531.5" rx="3.9" ry="3.9"/>
<ellipse transform="matrix(1 -1.200045e-03 1.200045e-03 1 -0.6369 1.3391)" class="st25" cx="1115.5" cy="531.4" rx="3.9" ry="3.9"/>
<ellipse transform="matrix(1 -1.200046e-03 1.200046e-03 1 -0.6368 1.3903)" class="st25" cx="1158.2" cy="531.4" rx="3.9" ry="3.9"/>
<ellipse transform="matrix(1 -1.200046e-03 1.200046e-03 1 -0.6367 1.4354)" class="st22" cx="1195.8" cy="531.3" rx="3.9" ry="3.9"/>
<ellipse transform="matrix(1 -1.200045e-03 1.200045e-03 1 -0.6367 1.4515)" class="st22" cx="1209.2" cy="531.3" rx="3.9" ry="3.9"/>
<ellipse transform="matrix(1 -1.200045e-03 1.200045e-03 1 -0.6367 1.4675)" class="st22" cx="1222.6" cy="531.3" rx="3.9" ry="3.9"/>
<ellipse transform="matrix(1 -1.200045e-03 1.200045e-03 1 -0.6366 1.4836)" class="st22" cx="1236" cy="531.3" rx="3.9" ry="3.9"/>
<ellipse transform="matrix(1 -1.200046e-03 1.200046e-03 1 -0.6366 1.4996)" class="st22" cx="1249.3" cy="531.2" rx="3.9" ry="3.9"/>
<ellipse transform="matrix(1 -1.200046e-03 1.200046e-03 1 -0.6366 1.5157)" class="st22" cx="1262.7" cy="531.2" rx="3.9" ry="3.9"/>
<ellipse transform="matrix(1 -1.200045e-03 1.200045e-03 1 -0.6366 1.5317)" class="st22" cx="1276.1" cy="531.2" rx="3.9" ry="3.9"/>
<ellipse transform="matrix(1 -1.200045e-03 1.200045e-03 1 -0.6365 1.5478)" class="st22" cx="1289.5" cy="531.2" rx="3.9" ry="3.9"/>
<ellipse transform="matrix(1 -1.200045e-03 1.200045e-03 1 -0.6365 1.5639)" class="st22" cx="1302.8" cy="531.2" rx="3.9" ry="3.9"/>
<ellipse transform="matrix(1 -1.200046e-03 1.200046e-03 1 -0.6365 1.5799)" class="st22" cx="1316.2" cy="531.2" rx="3.9" ry="3.9"/>
<ellipse transform="matrix(1 -1.200046e-03 1.200046e-03 1 -0.6364 1.596)" class="st22" cx="1329.6" cy="531.1" rx="3.9" ry="3.9"/>
<ellipse transform="matrix(1 -1.200046e-03 1.200046e-03 1 -0.6364 1.612)" class="st22" cx="1343" cy="531.1" rx="3.9" ry="3.9"/>
<ellipse transform="matrix(1 -1.200046e-03 1.200046e-03 1 -0.6364 1.6281)" class="st22" cx="1356.4" cy="531.1" rx="3.9" ry="3.9"/>
<ellipse transform="matrix(1 -1.200046e-03 1.200046e-03 1 -0.6364 1.6441)" class="st22" cx="1369.7" cy="531.1" rx="3.9" ry="3.9"/>
<ellipse transform="matrix(1 -1.200045e-03 1.200045e-03 1 -0.6363 1.6602)" class="st22" cx="1383.1" cy="531.1" rx="3.9" ry="3.9"/>
<ellipse transform="matrix(1 -1.200046e-03 1.200046e-03 1 -0.6363 1.6762)" class="st22" cx="1396.5" cy="531.1" rx="3.9" ry="3.9"/>
<ellipse transform="matrix(1 -1.200045e-03 1.200045e-03 1 -0.6363 1.6923)" class="st22" cx="1409.9" cy="531" rx="3.9" ry="3.9"/>
<ellipse transform="matrix(1 -1.200046e-03 1.200046e-03 1 -0.6362 1.7083)" class="st22" cx="1423.2" cy="531" rx="3.9" ry="3.9"/>
<ellipse transform="matrix(1 -1.200046e-03 1.200046e-03 1 -0.6362 1.7244)" class="st22" cx="1436.6" cy="531" rx="3.9" ry="3.9"/>
<ellipse transform="matrix(1 -1.200046e-03 1.200046e-03 1 -0.6362 1.7405)" class="st22" cx="1450" cy="531" rx="3.9" ry="3.9"/>
<ellipse transform="matrix(1 -1.200046e-03 1.200046e-03 1 -0.6362 1.7565)" class="st22" cx="1463.4" cy="531" rx="3.9" ry="3.9"/>
<ellipse transform="matrix(1 -1.200046e-03 1.200046e-03 1 -0.6361 1.8047)" class="st21" cx="1503.5" cy="530.9" rx="3.9" ry="3.9"/>
<ellipse transform="matrix(1 -1.200045e-03 1.200045e-03 1 -0.636 1.8207)" class="st21" cx="1516.9" cy="530.9" rx="3.9" ry="3.9"/>
<ellipse class="st21" cx="755.7" cy="-889.5" rx="7.3" ry="7.3"/>
</svg>
