<?xml version="1.0" encoding="utf-8"?>
<!-- Generator: Adobe Illustrator 22.1.0, SVG Export Plug-In . SVG Version: 6.00 Build 0)  -->
<svg version="1.1" id="图层_1" xmlns="http://www.w3.org/2000/svg" xmlns:xlink="http://www.w3.org/1999/xlink" x="0px" y="0px"
	 viewBox="0 0 1200.2 661.9" style="enable-background:new 0 0 1200.2 661.9;" xml:space="preserve">
<style type="text/css">
	.st0{fill:none;}
	.st1{fill:#C7C6C5;}
	.st2{fill:#EDEDEE;}
	.st3{opacity:0.75;fill:#DF7726;stroke:#1D1D1B;stroke-width:4;}
	.st4{fill:#DF7726;stroke:#1D1D1B;stroke-width:4;}
	.st5{fill:#FFFFFF;}
	.st6{font-family:'Fira Sans', sans-serif; font-weight:400;}
	.st7{font-size:10.512px;}
	.st8{fill:url(#SVGID_1_);stroke:#1D1D1B;stroke-width:4;stroke-miterlimit:10;}
	.st9{fill:url(#SVGID_2_);stroke:#1D1D1B;stroke-width:4;stroke-miterlimit:10;}
	.st10{fill:url(#SVGID_3_);stroke:#1D1D1B;stroke-width:4;stroke-miterlimit:10;}
	.st11{opacity:0.75;fill:url(#SVGID_4_);stroke:#1D1D1B;stroke-width:4;}
	.st12{fill:url(#SVGID_5_);stroke:#1D1D1B;stroke-width:4;}
	.st13{fill:url(#SVGID_6_);stroke:#1D1D1B;stroke-width:4;}
	.st14{fill:url(#SVGID_7_);stroke:#1D1D1B;stroke-width:4;}
	.st15{opacity:0.75;fill:url(#SVGID_8_);stroke:#1D1D1B;stroke-width:4;stroke-miterlimit:10;}
	.st16{fill:#F8B232;stroke:#1D1D1B;stroke-width:4;stroke-miterlimit:10;}
	.st17{opacity:0.75;fill:url(#SVGID_9_);stroke:#1D1D1B;stroke-width:4;stroke-miterlimit:10;}
	.st18{fill:#95C13D;stroke:#1D1D1B;stroke-width:4;stroke-miterlimit:10;}
	.st19{font-size:12.2015px;}
	.st20{fill:none;stroke:#FFFFFF;stroke-width:2;stroke-dasharray:3;}
	.st21{font-size:9.3857px;}
	.st22{font-family:'MyriadPro-Regular';}
	.st23{font-size:11.2628px;}
	.st24{fill:url(#SVGID_10_);}
	.st25{opacity:0.75;fill:#DF7726;}
	.st26{fill:#DF7726;}
</style>
<pattern  x="-171.1" y="36.4" width="172" height="172" patternUnits="userSpaceOnUse" id="Nueva_muestra_de_motivo_copia" viewBox="0 -242.2 172 172" style="overflow:visible;">
	<g>
		<rect x="0" y="-242.2" class="st0" width="172" height="172"/>
		<g>
			<polygon class="st1" points="172,-5.2 237,-70.3 242.3,-70.3 172,0 			"/>
		</g>
		<g>
			<polygon class="st1" points="0,-5.2 65,-70.3 70.3,-70.3 0,0 			"/>
		</g>
		<g>
			<polygon class="st1" points="172,-201.8 212.4,-242.2 217.6,-242.2 172,-196.6 			"/>
			<polygon class="st1" points="172,-177.2 237,-242.3 242.3,-242.3 172,-172 			"/>
			<polygon class="st1" points="172,-164.9 249.3,-242.2 254.5,-242.2 172,-159.7 			"/>
			<polygon class="st1" points="172,-189.5 224.7,-242.2 229.9,-242.2 172,-184.3 			"/>
			<polygon class="st1" points="172,-214.1 200.1,-242.2 205.3,-242.2 172,-208.9 			"/>
			<polygon class="st1" points="172,-238.6 175.6,-242.2 180.8,-242.2 172,-233.4 			"/>
			<polygon class="st1" points="172,-226.4 187.8,-242.2 193.1,-242.2 172,-221.1 			"/>
		</g>
		<g>
			<polygon class="st1" points="0,-201.8 40.4,-242.2 45.6,-242.2 0,-196.6 			"/>
			<polygon class="st1" points="0,-78.9 163.3,-242.2 168.5,-242.2 0,-73.7 			"/>
			<polygon class="st1" points="0,-128.1 114.1,-242.2 119.3,-242.2 0,-122.9 			"/>
			<polygon class="st1" points="0,-91.2 151,-242.2 156.2,-242.2 0,-86 			"/>
			<polygon class="st1" points="0,-115.8 126.4,-242.2 131.6,-242.2 0,-110.6 			"/>
			<polygon class="st1" points="3.6,-70.2 172,-238.6 172,-233.4 8.8,-70.2 			"/>
			<polygon class="st1" points="0,-177.2 65,-242.3 70.3,-242.3 0,-172 			"/>
			<polygon class="st1" points="0,-164.9 77.3,-242.2 82.5,-242.2 0,-159.7 			"/>
			<polygon class="st1" points="0,-189.5 52.7,-242.2 57.9,-242.2 0,-184.3 			"/>
			<polygon class="st1" points="0,-152.7 89.6,-242.2 94.8,-242.2 0,-147.4 			"/>
			<polygon class="st1" points="0,-140.4 101.8,-242.2 107.1,-242.2 0,-135.2 			"/>
			<polygon class="st1" points="0,-103.5 138.7,-242.2 143.9,-242.2 0,-98.3 			"/>
			<polygon class="st1" points="0,-214.1 28.1,-242.2 33.3,-242.2 0,-208.9 			"/>
			<polygon class="st1" points="77.3,-70.2 172,-164.9 172,-159.7 82.5,-70.2 			"/>
			<polygon class="st1" points="101.8,-70.2 172,-140.3 172,-135.1 107.1,-70.2 			"/>
			<polygon class="st1" points="65,-70.2 172,-177.2 172,-172 70.2,-70.2 			"/>
			<polygon class="st1" points="52.7,-70.2 172,-189.5 172,-184.3 57.9,-70.2 			"/>
			<polygon class="st1" points="40.4,-70.2 172,-201.8 172,-196.6 45.6,-70.2 			"/>
			<polygon class="st1" points="163.3,-70.2 172,-78.9 172,-73.7 168.5,-70.2 			"/>
			<polygon class="st1" points="114.1,-70.2 172,-128.1 172,-122.8 119.3,-70.2 			"/>
			<polygon class="st1" points="151,-70.2 172,-91.2 172,-86 156.2,-70.2 			"/>
			<polygon class="st1" points="126.4,-70.2 172,-115.8 172,-110.6 131.6,-70.2 			"/>
			<polygon class="st1" points="138.7,-70.2 172,-103.5 172,-98.3 143.9,-70.2 			"/>
			<polygon class="st1" points="89.6,-70.2 172,-152.6 172,-147.4 94.8,-70.2 			"/>
			<polygon class="st1" points="28.1,-70.2 172,-214.1 172,-208.8 33.3,-70.2 			"/>
			<polygon class="st1" points="0,-238.6 3.6,-242.2 8.8,-242.2 0,-233.4 			"/>
			<polygon class="st1" points="15.8,-70.2 172,-226.3 172,-221.1 21.1,-70.2 			"/>
			<polygon class="st1" points="0,-226.4 15.8,-242.2 21.1,-242.2 0,-221.1 			"/>
		</g>
	</g>
</pattern>
<pattern  x="-171.1" y="36.4" width="172" height="172" patternUnits="userSpaceOnUse" id="Nueva_muestra_de_motivo_copia_2" viewBox="0 -242.2 172 172" style="overflow:visible;">
	<g>
		<rect x="0" y="-242.2" class="st0" width="172" height="172"/>
		<g>
			<polygon class="st2" points="172,-5.2 237,-70.3 242.3,-70.3 172,0 			"/>
		</g>
		<g>
			<polygon class="st2" points="0,-5.2 65,-70.3 70.3,-70.3 0,0 			"/>
		</g>
		<g>
			<polygon class="st2" points="172,-201.8 212.4,-242.2 217.6,-242.2 172,-196.6 			"/>
			<polygon class="st2" points="172,-177.2 237,-242.3 242.3,-242.3 172,-172 			"/>
			<polygon class="st2" points="172,-164.9 249.3,-242.2 254.5,-242.2 172,-159.7 			"/>
			<polygon class="st2" points="172,-189.5 224.7,-242.2 229.9,-242.2 172,-184.3 			"/>
			<polygon class="st2" points="172,-214.1 200.1,-242.2 205.3,-242.2 172,-208.9 			"/>
			<polygon class="st2" points="172,-238.6 175.6,-242.2 180.8,-242.2 172,-233.4 			"/>
			<polygon class="st2" points="172,-226.4 187.8,-242.2 193.1,-242.2 172,-221.1 			"/>
		</g>
		<g>
			<polygon class="st2" points="0,-201.8 40.4,-242.2 45.6,-242.2 0,-196.6 			"/>
			<polygon class="st2" points="0,-78.9 163.3,-242.2 168.5,-242.2 0,-73.7 			"/>
			<polygon class="st2" points="0,-128.1 114.1,-242.2 119.3,-242.2 0,-122.9 			"/>
			<polygon class="st2" points="0,-91.2 151,-242.2 156.2,-242.2 0,-86 			"/>
			<polygon class="st2" points="0,-115.8 126.4,-242.2 131.6,-242.2 0,-110.6 			"/>
			<polygon class="st2" points="3.6,-70.2 172,-238.6 172,-233.4 8.8,-70.2 			"/>
			<polygon class="st2" points="0,-177.2 65,-242.3 70.3,-242.3 0,-172 			"/>
			<polygon class="st2" points="0,-164.9 77.3,-242.2 82.5,-242.2 0,-159.7 			"/>
			<polygon class="st2" points="0,-189.5 52.7,-242.2 57.9,-242.2 0,-184.3 			"/>
			<polygon class="st2" points="0,-152.7 89.6,-242.2 94.8,-242.2 0,-147.4 			"/>
			<polygon class="st2" points="0,-140.4 101.8,-242.2 107.1,-242.2 0,-135.2 			"/>
			<polygon class="st2" points="0,-103.5 138.7,-242.2 143.9,-242.2 0,-98.3 			"/>
			<polygon class="st2" points="0,-214.1 28.1,-242.2 33.3,-242.2 0,-208.9 			"/>
			<polygon class="st2" points="77.3,-70.2 172,-164.9 172,-159.7 82.5,-70.2 			"/>
			<polygon class="st2" points="101.8,-70.2 172,-140.3 172,-135.1 107.1,-70.2 			"/>
			<polygon class="st2" points="65,-70.2 172,-177.2 172,-172 70.2,-70.2 			"/>
			<polygon class="st2" points="52.7,-70.2 172,-189.5 172,-184.3 57.9,-70.2 			"/>
			<polygon class="st2" points="40.4,-70.2 172,-201.8 172,-196.6 45.6,-70.2 			"/>
			<polygon class="st2" points="163.3,-70.2 172,-78.9 172,-73.7 168.5,-70.2 			"/>
			<polygon class="st2" points="114.1,-70.2 172,-128.1 172,-122.8 119.3,-70.2 			"/>
			<polygon class="st2" points="151,-70.2 172,-91.2 172,-86 156.2,-70.2 			"/>
			<polygon class="st2" points="126.4,-70.2 172,-115.8 172,-110.6 131.6,-70.2 			"/>
			<polygon class="st2" points="138.7,-70.2 172,-103.5 172,-98.3 143.9,-70.2 			"/>
			<polygon class="st2" points="89.6,-70.2 172,-152.6 172,-147.4 94.8,-70.2 			"/>
			<polygon class="st2" points="28.1,-70.2 172,-214.1 172,-208.8 33.3,-70.2 			"/>
			<polygon class="st2" points="0,-238.6 3.6,-242.2 8.8,-242.2 0,-233.4 			"/>
			<polygon class="st2" points="15.8,-70.2 172,-226.3 172,-221.1 21.1,-70.2 			"/>
			<polygon class="st2" points="0,-226.4 15.8,-242.2 21.1,-242.2 0,-221.1 			"/>
		</g>
	</g>
</pattern>
<path class="st3" d="M588,159.7c93.9,0,170,76.1,170,170h-49.8c0-66.4-53.8-120.2-120.2-120.2V159.7z"/>
<path class="st3" d="M758,329.7c0,93.9-76.1,170-170,170v-49.8c66.4,0,120.2-53.8,120.2-120.2H758z"/>
<path class="st4" d="M588,499.6c-93.9,0-170-76.1-170-170h49.8c0,66.4,53.8,120.2,120.2,120.2V499.6z"/>
<path class="st4" d="M418,329.7c0-93.9,76.1-170,170-170v49.8c-66.4,0-120.2,53.8-120.2,120.2H418z"/>
<path class="st3" d="M588,121.5c115,0,208.2,93.2,208.2,208.2c0,0,0,0,0,0H758c0-93.9-76.1-170-170-170V121.5z"/>
<g>
	<text transform="matrix(1 0 0 1 716.9557 198.4575)" class="st5 st6 st7">10</text>
</g>
<path class="st3" d="M796.2,329.7c0,115-93.2,208.2-208.2,208.2l0,0v-38.2c93.9,0,170-76.1,170-170H796.2z"/>
<g>
	<text transform="matrix(1 0 0 1 720.6227 468.1006)" class="st5 st6 st7">9</text>
</g>
<path class="st4" d="M588,537.8c-115,0-208.2-93.2-208.2-208.2l0,0H418c0,93.9,76.1,170,170,170V537.8z"/>
<path class="st4" d="M379.8,329.7c0-115,93.2-208.2,208.2-208.2l0,0v38.2c-93.9,0-170,76.1-170,170H379.8z"/>
<g>
	<text transform="matrix(1 0 0 1 450.8932 200.8203)" class="st5 st6 st7">10</text>
</g>
<pattern  id="SVGID_1_" xlink:href="#Nueva_muestra_de_motivo_copia_2" patternTransform="matrix(1 0 0 1 172 147.9991)">
</pattern>
<path class="st8" d="M588,89.3c118.2,0,218.9,86,237.4,202.8l-31.8,5C777.6,196,690.4,121.5,588,121.5V89.3z"/>
<path class="st3" d="M825.4,292.1c2,12.4,3,25,3,37.6h-32.2c0-10.9-0.9-21.8-2.6-32.6L825.4,292.1z"/>
<g>
	<pattern  id="SVGID_2_" xlink:href="#Nueva_muestra_de_motivo_copia_2" patternTransform="matrix(1 0 0 1 172 147.9991)">
	</pattern>
	<path class="st9" d="M828.4,329.7c0,76.9-36.8,149.2-99.1,194.5l-18.9-26.1c53.9-39.2,85.8-101.8,85.8-168.4H828.4z"/>
	<title>not relevant: none</title>
</g>
<path class="st3" d="M729.3,524.1c-41.1,29.8-90.5,45.9-141.3,45.9v-32.2c44,0,86.8-13.9,122.4-39.8L729.3,524.1z"/>
<pattern  id="SVGID_3_" xlink:href="#Nueva_muestra_de_motivo_copia_2" patternTransform="matrix(1 0 0 1 172 147.9991)">
</pattern>
<path class="st10" d="M588,570.1c-90.4,0-173.1-50.7-214.2-131.2l28.7-14.6c35.5,69.7,107.2,113.7,185.5,113.7V570.1z"/>
<path class="st4" d="M373.8,438.8c-17.2-33.8-26.2-71.2-26.2-109.1h32.2c0,32.9,7.8,65.2,22.7,94.5L373.8,438.8z"/>
<pattern  id="SVGID_4_" xlink:href="#Nueva_muestra_de_motivo_copia_2" patternTransform="matrix(1 0 0 1 172 147.9991)">
</pattern>
<path class="st11" d="M347.6,329.7c0-118.2,86-218.9,202.8-237.4l5,31.8c-101.1,16-175.6,103.2-175.6,205.6H347.6z"/>
<path class="st4" d="M550.4,92.3c12.4-2,25-3,37.6-3v32.2c-10.9,0-21.8,0.9-32.6,2.6L550.4,92.3z"/>
<pattern  id="SVGID_5_" xlink:href="#Nueva_muestra_de_motivo_copia_2" patternTransform="matrix(1 0 0 1 172 147.9991)">
</pattern>
<path class="st12" d="M588,60.9c132.2,0,244.8,96.1,265.4,226.7l-28,4.4C806.9,175.3,706.3,89.3,588,89.3V60.9z"/>
<path class="st3" d="M853.5,287.6c2.2,13.9,3.3,28,3.3,42h-28.4c0-12.6-1-25.2-3-37.6L853.5,287.6z"/>
<g>
	<text transform="matrix(0.9966 -8.271030e-02 8.271030e-02 0.9966 837.2502 312.8081)" class="st5 st6 st7">45</text>
</g>
<g>
	<pattern  id="SVGID_6_" xlink:href="#Nueva_muestra_de_motivo_copia_2" patternTransform="matrix(1 0 0 1 172 147.9991)">
	</pattern>
	<path class="st13" d="M856.8,329.7c0,86-41.2,166.9-110.8,217.4l-16.7-23c62.3-45.2,99.1-117.5,99.1-194.5H856.8z"/>
	<title>0: none</title>
</g>
<path class="st3" d="M746,547.1c-45.9,33.4-101.2,51.3-158,51.3v-28.4c50.8,0,100.2-16.1,141.3-45.9L746,547.1z"/>
<pattern  id="SVGID_7_" xlink:href="#Nueva_muestra_de_motivo_copia_2" patternTransform="matrix(1 0 0 1 172 147.9991)">
</pattern>
<path class="st14" d="M588,598.4c-101.1,0-193.6-56.7-239.5-146.7l25.3-12.9c41,80.5,123.8,131.2,214.2,131.2V598.4z"/>
<path class="st4" d="M348.6,451.7c-19.3-37.8-29.3-79.6-29.3-122h28.4c0,37.9,9,75.3,26.2,109.1L348.6,451.7z"/>
<pattern  id="SVGID_8_" xlink:href="#Nueva_muestra_de_motivo_copia_2" patternTransform="matrix(1 0 0 1 172 147.9991)">
</pattern>
<path class="st15" d="M319.3,329.7c0-132.2,96.1-244.8,226.7-265.4l4.4,28c-116.8,18.5-202.8,119.2-202.8,237.4H319.3z"/>
<path class="st4" d="M546,64.2c13.9-2.2,28-3.3,42-3.3v28.4c-12.6,0-25.2,1-37.6,3L546,64.2z"/>
<g>
	<text transform="matrix(0.9969 -7.845978e-02 7.845978e-02 0.9969 565.5342 81.3158)" class="st5 st6 st7">3</text>
</g>
<path class="st16" d="M878.8,283.6c-22.7-143-146-248.3-290.8-248.3c-15.4,0-30.8,1.2-46.1,3.6c-143,22.7-248.3,146-248.3,290.8
	c0,46.5,11,92.3,32.1,133.7C376,562,477.3,624.1,588,624.1c62.2,0,122.7-19.7,173-56.2c76.2-55.4,121.4-143.9,121.4-238.2
	C882.4,314.3,881.2,298.9,878.8,283.6z M746,547.1c-45.9,33.4-101.2,51.3-158,51.3c-101.1,0-193.6-56.7-239.5-146.7
	c-19.3-37.8-29.3-79.6-29.3-122c0-132.2,96.1-244.8,226.7-265.4c13.9-2.2,28-3.3,42-3.3c132.2,0,244.8,96.1,265.4,226.7
	c2.2,13.9,3.3,28,3.3,42C856.8,415.7,815.6,496.5,746,547.1z"/>
<pattern  id="SVGID_9_" xlink:href="#Nueva_muestra_de_motivo_copia" patternTransform="matrix(1 0 0 1 172 147.9991)">
</pattern>
<path class="st17" d="M325.7,463.3c-21.1-41.4-32.1-87.2-32.1-133.7c0-78.1,31-153,86.2-208.2l-16.7-16.7
	C303.5,164.5,270,245.3,270,329.7c0,50.2,11.9,99.7,34.7,144.4C359,580.6,468.4,647.7,588,647.7v-23.6
	C477.3,624.1,376,562,325.7,463.3z"/>
<path class="st18" d="M902.1,279.9C877.6,125.4,744.4,11.7,588,11.7c-16.7,0-33.3,1.3-49.7,3.9c-66.3,10.5-127.6,41.7-175.1,89.2
	l16.7,16.7c44-44,100.7-72.9,162.1-82.6c15.2-2.4,30.6-3.6,46.1-3.6c144.8,0,268.1,105.3,290.8,248.3c2.4,15.2,3.6,30.6,3.6,46.1
	c0,94.2-45.1,182.8-121.4,238.2c-50.3,36.5-110.9,56.2-173,56.2v23.6c67.2,0,132.6-21.3,186.9-60.7C857.3,527.1,906,431.5,906,329.7
	C906,313,904.7,296.4,902.1,279.9z"/>
<g>
	<text transform="matrix(1 6.809978e-03 -6.809978e-03 1 1088.1514 335.7836)" class="st5 st6 st19">90</text>
</g>
<text transform="matrix(1 6.809978e-03 -6.809978e-03 1 110.0415 334.5314)" class="st5 st6 st19">52</text>
<text transform="matrix(1 6.809978e-03 -6.809978e-03 1 110.0411 377.319)" class="st5 st6 st19">31</text>
<text transform="matrix(1 6.809978e-03 -6.809978e-03 1 110.0411 480.3502)" class="st5 st6 st19">10</text>
<line class="st20" x1="892.4" y1="332.7" x2="1081" y2="332.7"/>
<line class="st20" x1="128.6" y1="331.4" x2="284.8" y2="331.4"/>
<rect x="128.2" y="305.8" class="st0" width="116.2" height="21.5"/>
<text transform="matrix(1 0 0 1 128.2023 312.8633)"><tspan x="0" y="0" class="st5 st6 st21">Total amount of comments</tspan><tspan x="0" y="11.3" class="st5 st6 st21">neutral or not relevant</tspan></text>
<text transform="matrix(1 6.809978e-03 -6.809978e-03 1 104.3351 52.6335)" class="st5 st6 st19">142</text>
<line class="st20" x1="128.6" y1="49.5" x2="588" y2="49.5"/>
<g>
	<rect x="937.6" y="305.4" class="st0" width="143.4" height="27.1"/>
	<text transform="matrix(1 0 0 1 965.8649 312.3974)"><tspan x="0" y="0" class="st5 st6 st21">Total amount of comments </tspan><tspan x="88.8" y="11.3" class="st5 st6 st21">useful </tspan></text>
</g>
<g>
	<rect x="127.1" y="23.1" class="st0" width="118.4" height="34.5"/>
	<text transform="matrix(1 0 0 1 127.092 30.1455)"><tspan x="0" y="0" class="st5 st6 st21">Total amount of comments </tspan><tspan x="0" y="11.3" class="st5 st6 st21">analyzed</tspan></text>
</g>
<rect x="981" y="59.3" class="st0" width="77.6" height="17.3"/>
<text transform="matrix(1 0 0 1 1009.9265 67.3374)" class="st5 st22 st23">RELEVANT</text>
<rect x="981" y="80.4" class="st0" width="77.6" height="17.3"/>
<text transform="matrix(1 0 0 1 986.7702 88.4316)" class="st5 st22 st23">NOT RELEVANT</text>
<text transform="matrix(1 0 0 1 128.1276 459.4072)"><tspan x="0" y="0" class="st5 st22 st21">Selected posts</tspan><tspan x="0" y="11.3" class="st5 st22 st21">from query results</tspan></text>
<line class="st20" x1="128.1" y1="376.2" x2="335.4" y2="376.2"/>
<line class="st20" x1="128.1" y1="414.7" x2="379.8" y2="414.7"/>
<text transform="matrix(1 0 0 1 128.1276 395.6172)"><tspan x="0" y="0" class="st5 st22 st21">Relevant</tspan><tspan x="0" y="11.3" class="st5 st22 st21">posts</tspan></text>
<line class="st20" x1="128.1" y1="477.6" x2="468.3" y2="477.6"/>
<text transform="matrix(1 0 0 1 128.5519 356.7324)"><tspan x="0" y="0" class="st5 st22 st21">Comments </tspan><tspan x="0" y="11.3" class="st5 st22 st21">in relevant posts</tspan></text>
<g>
	<text transform="matrix(1 0 0 1 655.3845 547.0976)" class="st5 st6 st7">65</text>
</g>
<rect x="1067.5" y="49.7" class="st5" width="18.3" height="18.3"/>
<pattern  id="SVGID_10_" xlink:href="#Nueva_muestra_de_motivo_copia_2" patternTransform="matrix(1 0 0 1 172 147.9991)">
</pattern>
<rect x="1067.5" y="70.8" class="st24" width="18.3" height="18.3"/>
<rect x="981" y="109.7" class="st0" width="71.1" height="17.3"/>
<text transform="matrix(1 0 0 1 1040.4987 117.685)" class="st5 st22 st23">FB</text>
<rect x="981" y="132.9" class="st0" width="77.6" height="17.3"/>
<text transform="matrix(1 0 0 1 1012.9001 140.8877)" class="st5 st22 st23">YOUTUBE</text>
<rect x="1067.5" y="102.1" class="st25" width="18.3" height="18.3"/>
<rect x="1067.5" y="123.2" class="st26" width="18.3" height="18.3"/>
<path id="SVGID_x5F_11_x5F_" class="st0" d="M662.7,396.6c-36.9,41.2-100.3,44.7-141.5,7.8s-44.7-100.3-7.8-141.5
	s100.3-44.7,141.5-7.8C696.1,291.9,699.6,355.3,662.7,396.6z"/>
<text><textPath  xlink:href="#SVGID_x5F_11_x5F_" startOffset="57.5197%">
<tspan  class="st26 st6" style="font-size:8.2594px;">Youtube ‘aguacate mafia’</tspan></textPath>
</text>
<path id="SVGID_x5F_12_x5F_" class="st0" d="M521.1,404.3c-41.2-36.9-44.7-100.3-7.8-141.5s100.3-44.7,141.5-7.8
	c41.2,36.9,44.7,100.3,7.8,141.5S562.4,441.3,521.1,404.3z"/>
<text><textPath  xlink:href="#SVGID_x5F_12_x5F_" startOffset="57.5197%">
<tspan  class="st26 st6" style="font-size:7.5086px;">Facebook ‘aguacate carteles’</tspan></textPath>
</text>
<path id="SVGID_x5F_13_x5F_" class="st0" d="M513.3,262.8c36.9-41.2,100.3-44.7,141.5-7.8c41.2,36.9,44.7,100.3,7.8,141.5
	s-100.3,44.7-141.5,7.8S476.4,304,513.3,262.8z"/>
<text><textPath  xlink:href="#SVGID_x5F_13_x5F_" startOffset="57.5197%">
<tspan  class="st26 st6" style="font-size:7.5086px;">Facebook ‘aguacate mafia’</tspan></textPath>
</text>
<path id="SVGID_x5F_14_x5F_" class="st0" d="M654.9,255c41.2,36.9,44.7,100.3,7.8,141.5s-100.3,44.7-141.5,7.8
	s-44.7-100.3-7.8-141.5S613.7,218.1,654.9,255z"/>
<text><textPath  xlink:href="#SVGID_x5F_14_x5F_" startOffset="57.5197%">
<tspan  class="st26 st6" style="font-size:7.5086px;">Youtube ‘aguacate carteles</tspan></textPath>
</text>
</svg>
