<?xml version="1.0" encoding="utf-8"?>
<!-- Generator: Adobe Illustrator 22.1.0, SVG Export Plug-In . SVG Version: 6.00 Build 0)  -->
<svg version="1.1" xmlns="http://www.w3.org/2000/svg" xmlns:xlink="http://www.w3.org/1999/xlink" x="0px" y="0px"
	 viewBox="0 0 1136 625" style="enable-background:new 0 0 1136 625;" xml:space="preserve">
<style type="text/css">
	.st0{fill:none;stroke:#647A06;stroke-width:0.5;stroke-miterlimit:10;}
	.st1{fill:none;stroke:#95C11F;stroke-width:0.5;stroke-miterlimit:10;}
	.st2{fill:#95C11F;}
	.st3{fill:none;stroke:#4D4D4D;stroke-width:0.5;stroke-miterlimit:10;stroke-dasharray:0.5;}
	.st4{fill:#FFFFFF;stroke:#647A06;stroke-miterlimit:10;}
	.st5{fill:#FFFFFF;stroke:#8CC63F;stroke-miterlimit:10;}
	.st6{fill:#FFFFFF;stroke:#000000;stroke-miterlimit:10;}
	.st7{fill:none;}
	.st8{fill:#1D1D1B;}
	.st9{font-family:'NittiBasic-Light';}
	.st10{font-size:9.6715px;}
	.st11{fill:none;stroke:#781006;stroke-width:0.5;stroke-miterlimit:10;}
	.st12{font-family:'Fira Sans', sans-serif; font-weight:300;}
	.st13{font-size:12px;}
	.st14{font-family:'Fira Sans', sans-serif; font-weight:400;}
	.st15{font-size:10px;}
	.st16{fill:#575756;}
	.st17{font-family:'Fira Sans', sans-serif; font-weight:300; font-style: italic;}
	.st18{font-size:8px;}
	.st19{font-size:6px;}
	.st20{letter-spacing:2;}
	.st21{letter-spacing:5;}
	.st22{letter-spacing:1;}
	.st23{fill:none;stroke:#95C11F;stroke-width:1.5;stroke-miterlimit:10;}
	.st24{fill:none;stroke:#647A06;stroke-miterlimit:10;}
	.st25{fill:#FFFFFF;}
	.st26{fill:#647A06;}
	.st27{fill:none;stroke:#95C11F;stroke-miterlimit:10;}
	.st28{font-size:7.2px;}
</style>
<g id="lines">
	<g>
		<path class="st0" d="M247.8,221.4c88.9-50.2,161.8-124.8,222.7-205.8"/>
		<path class="st0" d="M247.8,221.4c88.9-48,161.8-121.1,222.7-200.6"/>
		<path class="st0" d="M247.8,221.4c88.8-45.7,161.8-117.3,222.7-195.3"/>
		<path class="st0" d="M247.8,221.4C336.4,178,409.6,108.1,470.5,31.6"/>
		<path class="st0" d="M247.8,221.4c88.5-41.2,161.7-109.6,222.7-184.7"/>
		<path class="st0" d="M247.8,221.4c88.4-39,161.7-105.8,222.7-179.5"/>
		<path class="st0" d="M247.8,221.4c88.2-36.8,161.6-102,222.7-174.2"/>
		<path class="st0" d="M247.8,221.4c88-34.5,161.6-98.2,222.7-168.9"/>
		<path class="st0" d="M247.8,221.4c87.8-32.3,161.5-94.3,222.7-163.7"/>
		<path class="st0" d="M247.8,221.4c87.7-31.6,160.8-89.8,222.7-158.4"/>
	</g>
	<g>
		<path class="st1" d="M247.8,405.7c87.3-103.5,160.9-217.1,222.7-337.4"/>
		<path class="st1" d="M247.8,405.7c87.6-101.1,161-213.5,222.7-332.1"/>
		<path class="st1" d="M247.8,405.7c87.8-99.1,161.1-209.9,222.7-326.9"/>
		<path class="st1" d="M247.8,405.7c87.6-97.5,161-206.1,222.7-321.6"/>
		<path class="st1" d="M247.8,405.7c87.8-93.4,161.1-198.7,222.7-311"/>
		<path class="st1" d="M247.8,405.7c88-95,161.2-202.6,222.7-316.3"/>
		<path class="st1" d="M247.8,405.7C336,314.8,409,210.5,470.5,100"/>
		<path class="st1" d="M247.8,405.7c88.3-88.9,161.3-191.6,222.7-300.5"/>
		<path class="st1" d="M247.8,405.7c88.1-87.3,161.2-187.7,222.7-295.2"/>
		<path class="st1" d="M247.8,405.7c88.5-84.6,161.4-184.2,222.7-289.9"/>
		<path class="st1" d="M247.8,405.7c88.5-80.4,161.1-176.7,222.2-279"/>
		<path class="st1" d="M247.8,405.7c88.5-78.3,161.1-173.1,222.2-273.9"/>
		<path class="st1" d="M247.8,405.7c88.8-76.2,161.6-169.4,222.7-268.8"/>
		<path class="st1" d="M247.8,405.7c88.8-63.3,161.4-147.1,222.2-237"/>
		<path class="st1" d="M247.8,405.7c89.1-65.5,161.7-150.9,222.7-242.5"/>
		<path class="st1" d="M247.8,405.7c89-67.6,161.7-154.6,222.7-247.7"/>
		<path class="st1" d="M247.8,405.7c88.9-50.1,161.8-124.6,222.7-205.6"/>
		<path class="st1" d="M247.8,405.7c88.8-47.8,161.8-120.8,222.7-200.2"/>
		<path class="st1" d="M247.8,405.7c88.5-45.7,161.4-117,222.2-194.8"/>
	</g>
	<path class="st0" d="M247.8,221.3c78.3-12.1,152.3-37.8,222.7-74"/>
	<path class="st0" d="M247.8,221.3c78.1-10.2,152.1-34.1,222.7-68.7"/>
	<path class="st0" d="M247.8,221.3c76.5,0.9,150.5-12,222.7-37"/>
	<path class="st0" d="M247.8,221.3C324,224,398,213,470.5,189.6"/>
	<path class="st0" d="M247.8,221.3c75.9,4.5,149.9-4.8,222.7-26.5"/>
	<path class="st0" d="M247.8,221.3c74,15,148.1,16.8,222.7,5.1"/>
	<path class="st0" d="M247.8,221.3c73.7,16.7,147.8,20.3,222.7,10.4"/>
	<path class="st0" d="M247.8,221.3c73.4,18.3,147.5,23.8,222.7,15.7"/>
	<path class="st0" d="M247.8,221.3c73.1,20,147.2,27.3,222.7,21"/>
	<path class="st0" d="M247.8,221.3c72.8,21.7,146.9,30.8,222.7,26.2"/>
	<g>
		<path class="st1" d="M247.8,405.7c79.1-24.6,153-60.7,222.7-105.3"/>
		<path class="st1" d="M247.8,405.7c79.3-26.6,153.1-64.4,222.7-110.6"/>
		<path class="st1" d="M247.8,405.7c79.4-28.5,153.2-68.1,222.7-115.9"/>
		<path class="st1" d="M247.8,405.7c79.6-30.5,153.4-71.8,222.7-121.2"/>
		<path class="st1" d="M247.8,405.7c79.7-32.4,153.5-75.5,222.7-126.4"/>
		<path class="st1" d="M247.8,405.7c79.8-34.3,153.6-79.2,222.7-131.7"/>
		<path class="st1" d="M247.8,405.7c79.9-36.3,153.7-82.9,222.7-137"/>
		<path class="st1" d="M247.8,405.7c80-38.2,153.8-86.6,222.7-142.3"/>
		<path class="st1" d="M247.8,405.7c80.1-40.2,153.8-90.3,222.7-147.6"/>
		<path class="st1" d="M247.8,405.7c80.2-42.1,153.9-93.9,222.7-152.8"/>
		<path class="st1" d="M247.8,405.7c77.9-19,151.2-49.5,220.9-89.2"/>
		<path class="st1" d="M247.8,405.7c78.4-17,152.3-45.9,222.7-84.2"/>
		<path class="st1" d="M247.8,405.7c78.2-15.1,152.1-42.2,222.7-79"/>
	</g>
	<g>
		<path class="st0" d="M247.8,221.3c79.4,28.5,153.2,68,222.7,115.8"/>
		<path class="st0" d="M247.8,221.3c79.6,30.4,153.4,71.7,222.7,121.1"/>
		<path class="st0" d="M247.8,221.3c79.7,32.3,153.5,75.4,222.7,126.4"/>
		<path class="st0" d="M247.8,221.3c79.8,34.3,153.6,79.2,222.7,131.7"/>
		<path class="st0" d="M247.8,221.3c79.9,36.3,153.7,82.9,222.7,137"/>
	</g>
	<g>
		
			<rect x="245.8" y="384.4" transform="matrix(0.9827 -0.1852 0.1852 0.9827 -65.0269 73.1811)" class="st2" width="226.6" height="0.5"/>
	</g>
	<g>
		<polygon class="st2" points="247.8,405.9 247.8,405.4 470.5,368.6 470.5,369.1 		"/>
	</g>
	<g>
		
			<rect x="246.7" y="389.6" transform="matrix(0.99 -0.1409 0.1409 0.99 -51.3432 54.4828)" class="st2" width="224.9" height="0.5"/>
	</g>
	<g>
		
			<rect x="247" y="392.3" transform="matrix(0.9931 -0.1173 0.1173 0.9931 -43.562 44.836)" class="st2" width="224.2" height="0.5"/>
	</g>
	<g>
		
			<rect x="247.3" y="394.9" transform="matrix(0.9956 -9.370355e-02 9.370355e-02 0.9956 -35.4478 35.3923)" class="st2" width="223.7" height="0.5"/>
	</g>
	<g>
		
			<rect x="247.5" y="397.5" transform="matrix(0.9975 -7.041303e-02 7.041303e-02 0.9975 -27.1188 26.2762)" class="st2" width="223.3" height="0.5"/>
	</g>
	<g>
		
			<rect x="247.7" y="400.1" transform="matrix(0.9989 -4.682359e-02 4.682359e-02 0.9989 -18.3542 17.2559)" class="st2" width="222.9" height="0.5"/>
	</g>
	<g>
		
			<rect x="247.8" y="402.8" transform="matrix(0.9997 -2.343106e-02 2.343106e-02 0.9997 -9.3445 8.5259)" class="st2" width="222.8" height="0.5"/>
	</g>
	<g>
		
			<rect x="358.1" y="302.9" transform="matrix(7.296012e-02 -0.9973 0.9973 7.296012e-02 -80.276 740.7804)" class="st2" width="0.5" height="221.3"/>
	</g>
	<g>
		
			<rect x="359" y="299.5" transform="matrix(4.863007e-02 -0.9988 0.9988 4.863007e-02 -68.6507 749.7585)" class="st2" width="0.5" height="222.8"/>
	</g>
	<g>
		
			<rect x="359" y="297" transform="matrix(2.497465e-02 -0.9997 0.9997 2.497465e-02 -57.8741 757.2206)" class="st2" width="0.5" height="222.6"/>
	</g>
	<g>
		<path class="st1" d="M247.8,405.5c94.8,36.4,168.3,117.8,222.7,200.6"/>
		<path class="st1" d="M247.8,405.5c94.6,33.9,168.3,113.9,222.7,195.3"/>
		<path class="st1" d="M247.8,405.5c94.3,31.4,168.3,110,222.7,190"/>
		<path class="st1" d="M247.8,405.5c94.1,28.9,168.3,106.1,222.7,184.7"/>
		<path class="st1" d="M247.8,405.5C341.5,432,416.1,507.8,470.5,585"/>
		<path class="st1" d="M247.8,405.5c93.4,23.9,168.2,98.3,222.7,174.2"/>
	</g>
	<g>
		<path class="st0" d="M247.8,221.3c88.2,56.5,160.9,132.1,222.7,216.1"/>
		<path class="st0" d="M247.8,221.3c88.4,57.6,161.2,136.3,222.7,221.4"/>
		<path class="st0" d="M247.8,221.3C336.2,281,409,361.3,470.5,447.9"/>
		<path class="st0" d="M247.8,221.3c88.4,61.9,161.2,143.8,222.7,231.9"/>
		<path class="st0" d="M247.8,221.3c88.4,64.1,161.2,147.5,222.7,237.2"/>
		<path class="st0" d="M247.8,221.3c88.4,66.3,161.2,151.3,222.7,242.5"/>
		<path class="st0" d="M247.8,221.3c88.1,70.6,160.7,158.6,222.2,252.8"/>
		<path class="st0" d="M247.8,221.3c88.3,72.7,161.1,162.4,222.7,258.3"/>
		<path class="st0" d="M247.8,221.3c88,75.8,160.8,166.2,222.7,264.2"/>
		<path class="st0" d="M247.8,221.3c88.2,76.9,161,169.8,222.7,268.8"/>
		<path class="st0" d="M247.8,221.3c88.1,79,161,173.5,222.7,274.1"/>
		<path class="st0" d="M247.8,221.3c87.8,81.7,160.8,176.9,222.7,279.4"/>
		<path class="st0" d="M247.8,221.3c88,83.2,160.9,180.9,222.7,284.7"/>
		<path class="st0" d="M247.8,221.3c87.5,87.9,160.7,188,222.7,295.2"/>
		<path class="st0" d="M247.8,221.3c87.7,89.4,160.8,191.9,222.7,300.5"/>
		<path class="st0" d="M247.8,221.3c87.3,91.9,160.6,195.4,222.7,305.8"/>
		<path class="st0" d="M247.8,221.3c87,94,160.2,199,222.2,310.9"/>
		<path class="st0" d="M247.8,221.3c87.4,95.5,160.6,202.9,222.7,316.3"/>
		<path class="st0" d="M247.8,221.3c86.8,98,160.1,206.3,222.2,321.4"/>
		<path class="st0" d="M247.8,221.3c87.2,99.6,160.5,210.2,222.7,326.9"/>
		<path class="st0" d="M247.8,221.3C334.6,323.2,408.2,435,470.5,553.4"/>
		<path class="st0" d="M247.8,221.3c86.7,103.9,160.3,217.4,222.7,337.4"/>
		<path class="st0" d="M247.8,221.3c86.6,105.9,160.3,221,222.7,342.7"/>
		<path class="st0" d="M247.8,221.3c86.5,107.9,160.3,224.7,222.7,348"/>
		<path class="st0" d="M247.8,221.3C334.2,331.1,408,449.6,470.5,574.5"/>
	</g>
	<g>
		<rect x="249.3" y="405.2" class="st2" width="221.4" height="0.5"/>
	</g>
	<line class="st3" x1="507.1" y1="13.7" x2="502.6" y2="13.7"/>
	<line class="st3" x1="765.5" y1="608" x2="761" y2="608"/>
</g>
<g id="balls">
	<ellipse class="st4" cx="470.5" cy="15.5" rx="1.8" ry="1.8"/>
	<ellipse class="st4" cx="470.5" cy="20.8" rx="1.8" ry="1.8"/>
	<ellipse class="st4" cx="470.5" cy="26" rx="1.8" ry="1.8"/>
	<ellipse class="st4" cx="470.5" cy="31.3" rx="1.8" ry="1.8"/>
	<ellipse class="st4" cx="470.5" cy="36.6" rx="1.8" ry="1.8"/>
	<ellipse class="st4" cx="470.5" cy="41.9" rx="1.8" ry="1.8"/>
	<ellipse class="st4" cx="470.5" cy="47.1" rx="1.8" ry="1.8"/>
	<ellipse class="st4" cx="470.5" cy="52.4" rx="1.8" ry="1.8"/>
	<ellipse class="st4" cx="470.5" cy="57.7" rx="1.8" ry="1.8"/>
	<ellipse class="st4" cx="470.5" cy="63" rx="1.8" ry="1.8"/>
	<ellipse class="st4" cx="470.5" cy="147.3" rx="1.8" ry="1.8"/>
	<ellipse class="st4" cx="470.5" cy="152.6" rx="1.8" ry="1.8"/>
	<ellipse class="st5" cx="470.5" cy="157.9" rx="1.8" ry="1.8"/>
	<ellipse class="st5" cx="470.5" cy="163.2" rx="1.8" ry="1.8"/>
	<ellipse class="st5" cx="470.5" cy="168.4" rx="1.8" ry="1.8"/>
	<ellipse class="st4" cx="470.5" cy="184.3" rx="1.8" ry="1.8"/>
	<ellipse class="st4" cx="470.5" cy="189.5" rx="1.8" ry="1.8"/>
	<ellipse class="st4" cx="470.5" cy="194.8" rx="1.8" ry="1.8"/>
	<ellipse class="st5" cx="470.5" cy="200.1" rx="1.8" ry="1.8"/>
	<ellipse class="st5" cx="470.5" cy="205.4" rx="1.8" ry="1.8"/>
	<ellipse class="st5" cx="470.5" cy="210.6" rx="1.8" ry="1.8"/>
	<ellipse class="st4" cx="470.5" cy="226.5" rx="1.8" ry="1.8"/>
	<ellipse class="st4" cx="470.5" cy="231.7" rx="1.8" ry="1.8"/>
	<ellipse class="st4" cx="470.5" cy="237" rx="1.8" ry="1.8"/>
	<ellipse class="st4" cx="470.5" cy="242.3" rx="1.8" ry="1.8"/>
	<ellipse class="st4" cx="470.5" cy="247.6" rx="1.8" ry="1.8"/>
	<ellipse class="st5" cx="470.5" cy="252.8" rx="1.8" ry="1.8"/>
	<ellipse class="st5" cx="470.5" cy="258.1" rx="1.8" ry="1.8"/>
	<ellipse class="st5" cx="470.5" cy="263.4" rx="1.8" ry="1.8"/>
	<ellipse class="st5" cx="470.5" cy="268.7" rx="1.8" ry="1.8"/>
	<ellipse class="st5" cx="470.5" cy="273.9" rx="1.8" ry="1.8"/>
	<ellipse class="st5" cx="470.5" cy="279.2" rx="1.8" ry="1.8"/>
	<ellipse class="st5" cx="470.5" cy="284.5" rx="1.8" ry="1.8"/>
	<ellipse class="st5" cx="470.5" cy="289.7" rx="1.8" ry="1.8"/>
	<ellipse class="st5" cx="470.5" cy="295" rx="1.8" ry="1.8"/>
	<ellipse class="st5" cx="470.5" cy="300.3" rx="1.8" ry="1.8"/>
	<ellipse class="st5" cx="470.5" cy="316.1" rx="1.8" ry="1.8"/>
	<ellipse class="st5" cx="470.5" cy="321.4" rx="1.8" ry="1.8"/>
	<ellipse class="st5" cx="470.5" cy="326.7" rx="1.8" ry="1.8"/>
	<ellipse class="st4" cx="470.5" cy="337.2" rx="1.8" ry="1.8"/>
	<ellipse class="st4" cx="470.5" cy="342.5" rx="1.8" ry="1.8"/>
	<ellipse class="st4" cx="470.5" cy="347.8" rx="1.8" ry="1.8"/>
	<ellipse class="st4" cx="470.5" cy="353" rx="1.8" ry="1.8"/>
	<ellipse class="st4" cx="470.5" cy="358.3" rx="1.8" ry="1.8"/>
	<ellipse class="st5" cx="470.5" cy="363.6" rx="1.8" ry="1.8"/>
	<ellipse class="st5" cx="470.5" cy="368.9" rx="1.8" ry="1.8"/>
	<ellipse class="st5" cx="470.5" cy="374.1" rx="1.8" ry="1.8"/>
	<ellipse class="st5" cx="470.5" cy="379.4" rx="1.8" ry="1.8"/>
	<ellipse class="st5" cx="470.5" cy="384.7" rx="1.8" ry="1.8"/>
	<ellipse class="st5" cx="470.5" cy="390" rx="1.8" ry="1.8"/>
	<ellipse class="st5" cx="470.5" cy="395.2" rx="1.8" ry="1.8"/>
	<ellipse class="st5" cx="470.5" cy="400.5" rx="1.8" ry="1.8"/>
	<ellipse class="st5" cx="470.5" cy="405.8" rx="1.8" ry="1.8"/>
	<ellipse class="st5" cx="470.5" cy="411.1" rx="1.8" ry="1.8"/>
	<ellipse class="st5" cx="470.5" cy="416.3" rx="1.8" ry="1.8"/>
	<ellipse class="st5" cx="470.5" cy="421.6" rx="1.8" ry="1.8"/>
	<ellipse class="st4" cx="470.5" cy="437.4" rx="1.8" ry="1.8"/>
	<ellipse class="st4" cx="470.5" cy="442.7" rx="1.8" ry="1.8"/>
	<ellipse class="st4" cx="470.5" cy="448" rx="1.8" ry="1.8"/>
	<ellipse class="st4" cx="470.5" cy="453.3" rx="1.8" ry="1.8"/>
	<ellipse class="st4" cx="470.5" cy="458.5" rx="1.8" ry="1.8"/>
	<ellipse class="st4" cx="470.5" cy="463.8" rx="1.8" ry="1.8"/>
	<ellipse class="st4" cx="470.5" cy="474.4" rx="1.8" ry="1.8"/>
	<ellipse class="st4" cx="470.5" cy="479.6" rx="1.8" ry="1.8"/>
	<ellipse class="st4" cx="470.5" cy="484.9" rx="1.8" ry="1.8"/>
	<ellipse class="st4" cx="470.5" cy="490.2" rx="1.8" ry="1.8"/>
	<ellipse class="st4" cx="470.5" cy="495.4" rx="1.8" ry="1.8"/>
	<ellipse class="st4" cx="470.5" cy="500.7" rx="1.8" ry="1.8"/>
	<ellipse class="st4" cx="470.5" cy="506" rx="1.8" ry="1.8"/>
	<ellipse class="st4" cx="470.5" cy="516.5" rx="1.8" ry="1.8"/>
	<ellipse class="st4" cx="470.5" cy="521.8" rx="1.8" ry="1.8"/>
	<ellipse class="st4" cx="470.5" cy="527.1" rx="1.8" ry="1.8"/>
	<ellipse class="st4" cx="470.5" cy="532.4" rx="1.8" ry="1.8"/>
	<ellipse class="st4" cx="470.5" cy="537.6" rx="1.8" ry="1.8"/>
	<ellipse class="st4" cx="470.5" cy="542.9" rx="1.8" ry="1.8"/>
	<ellipse class="st4" cx="470.5" cy="548.2" rx="1.8" ry="1.8"/>
	<ellipse class="st4" cx="470.5" cy="553.5" rx="1.8" ry="1.8"/>
	<ellipse class="st4" cx="470.5" cy="558.7" rx="1.8" ry="1.8"/>
	<ellipse class="st4" cx="470.5" cy="564" rx="1.8" ry="1.8"/>
	<ellipse class="st4" cx="470.5" cy="569.3" rx="1.8" ry="1.8"/>
	<ellipse class="st4" cx="470.5" cy="574.6" rx="1.8" ry="1.8"/>
	<ellipse class="st5" cx="470.5" cy="579.8" rx="1.8" ry="1.8"/>
	<ellipse class="st5" cx="470.5" cy="585.1" rx="1.8" ry="1.8"/>
	<ellipse class="st5" cx="470.5" cy="590.4" rx="1.8" ry="1.8"/>
	<ellipse class="st5" cx="470.5" cy="595.7" rx="1.8" ry="1.8"/>
	<ellipse class="st5" cx="470.5" cy="600.9" rx="1.8" ry="1.8"/>
	<ellipse class="st5" cx="470.5" cy="606.2" rx="1.8" ry="1.8"/>
	<ellipse class="st5" cx="470.5" cy="68.2" rx="1.8" ry="1.8"/>
	<ellipse class="st5" cx="470.5" cy="73.5" rx="1.8" ry="1.8"/>
	<ellipse class="st5" cx="470.5" cy="78.8" rx="1.8" ry="1.8"/>
	<ellipse class="st5" cx="470.5" cy="84" rx="1.8" ry="1.8"/>
	<ellipse class="st5" cx="470.5" cy="89.3" rx="1.8" ry="1.8"/>
	<ellipse class="st5" cx="470.5" cy="94.6" rx="1.8" ry="1.8"/>
	<ellipse class="st5" cx="470.5" cy="99.9" rx="1.8" ry="1.8"/>
	<ellipse class="st5" cx="470.5" cy="105.1" rx="1.8" ry="1.8"/>
	<ellipse class="st5" cx="470.5" cy="110.4" rx="1.8" ry="1.8"/>
	<ellipse class="st5" cx="470.5" cy="115.7" rx="1.8" ry="1.8"/>
	<ellipse class="st5" cx="470.5" cy="126.2" rx="1.8" ry="1.8"/>
	<ellipse class="st5" cx="470.5" cy="131.5" rx="1.8" ry="1.8"/>
	<ellipse class="st5" cx="470.5" cy="136.8" rx="1.8" ry="1.8"/>
</g>
<g id="texts">
	<g>
		<rect x="212.1" y="389.5" class="st6" width="50.9" height="24.1"/>
		<rect x="215.4" y="398.2" class="st7" width="44.3" height="7.9"/>
		<text transform="matrix(1 0 0 1 220.1709 404.3252)" class="st8 st9 st10">Mexico</text>
	</g>
	<g>
		<rect x="212.1" y="212.3" class="st6" width="50.9" height="24.1"/>
		<rect x="226.3" y="221" class="st7" width="22.2" height="7.9"/>
		<text transform="matrix(1 0 0 1 228.6733 227.1562)" class="st8 st9 st10">USA</text>
	</g>
	<g>
		<path class="st11" d="M247.8,221.3"/>
	</g>
	<g>
		<rect x="926.3" y="80.8" class="st7" width="115.7" height="18.4"/>
		<text transform="matrix(1 0 0 1 926.3192 89.7)" class="st12 st13">CRIME</text>
	</g>
	<g>
		<rect x="926.3" y="190.3" class="st7" width="164.7" height="13.3"/>
		<text transform="matrix(1 0 0 1 926.3196 199.2501)" class="st12 st13">ENVIRONMENTAL ISSUES</text>
	</g>
	<g>
		<rect x="501" y="515.5" class="st7" width="128.6" height="8.2"/>
		<text transform="matrix(1 0 0 1 500.9999 522.9983)" class="st14 st15">Import-export flows growth</text>
	</g>
	<g>
		<rect x="632.4" y="516" class="st7" width="241.6" height="52"/>
		<text transform="matrix(1 0 0 1 632.3965 521.9128)"><tspan x="0" y="0" class="st16 st17 st18">“Los</tspan><tspan x="15" y="0" class="st16 st17 st18"> </tspan><tspan x="17.1" y="0" class="st16 st17 st18">aguacateros</tspan><tspan x="61.5" y="0" class="st16 st17 st18"> </tspan><tspan x="63.6" y="0" class="st16 st17 st18">del</tspan><tspan x="74.6" y="0" class="st16 st17 st18"> </tspan><tspan x="76.7" y="0" class="st16 st17 st18">paìs</tspan><tspan x="91.6" y="0" class="st16 st17 st18"> </tspan><tspan x="93.7" y="0" class="st16 st17 st18">no</tspan><tspan x="102.9" y="0" class="st16 st17 st18"> </tspan><tspan x="105" y="0" class="st16 st17 st18">caben</tspan><tspan x="126.6" y="0" class="st16 st17 st18"> </tspan><tspan x="128.7" y="0" class="st16 st17 st18">de</tspan><tspan x="137.4" y="0" class="st16 st17 st18"> </tspan><tspan x="139.6" y="0" class="st16 st17 st18">contentos</tspan><tspan x="174.9" y="0" class="st16 st17 st18"> </tspan><tspan x="177" y="0" class="st16 st17 st18">porque</tspan><tspan x="202.4" y="0" class="st16 st17 st18"> </tspan><tspan x="204.5" y="0" class="st16 st17 st18">la</tspan><tspan x="211.3" y="0" class="st16 st17 st18"> </tspan><tspan x="213.4" y="0" class="st16 st17 st18">popula</tspan><tspan x="238.4" y="0" class="st16 st17 st18">-</tspan><tspan x="0" y="10" class="st16 st17 st18">ridad</tspan><tspan x="18.8" y="10" class="st16 st17 st18"> </tspan><tspan x="21.9" y="10" class="st16 st17 st18">del</tspan><tspan x="32.9" y="10" class="st16 st17 st18"> </tspan><tspan x="35.9" y="10" class="st16 st17 st18">guacamole</tspan><tspan x="75.4" y="10" class="st16 st17 st18"> </tspan><tspan x="78.5" y="10" class="st16 st17 st18">en</tspan><tspan x="87.2" y="10" class="st16 st17 st18"> </tspan><tspan x="90.3" y="10" class="st16 st17 st18">Estados</tspan><tspan x="118.1" y="10" class="st16 st17 st18"> </tspan><tspan x="121.1" y="10" class="st16 st17 st18">Unidos</tspan><tspan x="146" y="10" class="st16 st17 st18"> </tspan><tspan x="149" y="10" class="st16 st17 st18">les</tspan><tspan x="159" y="10" class="st16 st17 st18"> </tspan><tspan x="162.1" y="10" class="st16 st17 st18">permitiò</tspan><tspan x="192.1" y="10" class="st16 st17 st18"> </tspan><tspan x="195.1" y="10" class="st16 st17 st18">exportar</tspan><tspan x="225.1" y="10" class="st16 st17 st18"> </tspan><tspan x="228.1" y="10" class="st16 st17 st18">13% </tspan><tspan x="0" y="20" class="st16 st17 st18">mas que el año pasado”</tspan></text>
	</g>
	<g>
		<rect x="926.3" y="356.8" class="st7" width="164.7" height="13.4"/>
		<text transform="matrix(1 0 0 1 926.3196 365.7143)" class="st12 st13">PRODUCTION GROWTH</text>
	</g>
	<g>
		<rect x="926.3" y="514.7" class="st7" width="164.7" height="11.6"/>
		<text transform="matrix(1 0 0 1 926.3196 523.5952)" class="st12 st13">TRADE</text>
	</g>
	<g>
		<rect x="933.3" y="584.3" class="st7" width="199" height="41.1"/>
		<text transform="matrix(1 0 0 1 933.3337 588.069)"><tspan x="0" y="0" class="st9 st19">*The</tspan><tspan x="14.4" y="0" class="st9 st19 st20"> </tspan><tspan x="20.6" y="0" class="st9 st19">“Other”</tspan><tspan x="45.8" y="0" class="st9 st19 st20"> </tspan><tspan x="51.9" y="0" class="st9 st19">category</tspan><tspan x="80.7" y="0" class="st9 st19 st20"> </tspan><tspan x="86.9" y="0" class="st9 st19">includes</tspan><tspan x="115.7" y="0" class="st9 st19 st20"> </tspan><tspan x="121.9" y="0" class="st9 st19">websites</tspan><tspan x="150.7" y="0" class="st9 st19 st20"> </tspan><tspan x="156.8" y="0" class="st9 st19">related</tspan><tspan x="182" y="0" class="st9 st19 st20"> </tspan><tspan x="188.2" y="0" class="st9 st19">to: </tspan><tspan x="0" y="6" class="st9 st19">avocado</tspan><tspan x="25.2" y="6" class="st9 st19 st21"> </tspan><tspan x="34" y="6" class="st9 st19">varieties,</tspan><tspan x="70" y="6" class="st9 st19 st21"> </tspan><tspan x="78.9" y="6" class="st9 st19">healthy</tspan><tspan x="104.1" y="6" class="st9 st19 st21"> </tspan><tspan x="112.9" y="6" class="st9 st19">benefits</tspan><tspan x="141.7" y="6" class="st9 st19 st21"> </tspan><tspan x="150.6" y="6" class="st9 st19">of</tspan><tspan x="157.8" y="6" class="st9 st19 st21"> </tspan><tspan x="166.6" y="6" class="st9 st19">avocados, </tspan><tspan x="0" y="12" class="st9 st19">recipes,</tspan><tspan x="28.8" y="12" class="st9 st19"> </tspan><tspan x="33.2" y="12" class="st9 st19">general</tspan><tspan x="58.4" y="12" class="st9 st19"> </tspan><tspan x="62.7" y="12" class="st9 st19">information</tspan><tspan x="102.3" y="12" class="st9 st19"> </tspan><tspan x="106.7" y="12" class="st9 st19">about</tspan><tspan x="124.7" y="12" class="st9 st19"> </tspan><tspan x="129.1" y="12" class="st9 st19">avocado.</tspan><tspan x="157.9" y="12" class="st9 st19"> </tspan><tspan x="162.2" y="12" class="st9 st19">The</tspan><tspan x="173" y="12" class="st9 st19"> </tspan><tspan x="177.4" y="12" class="st9 st19">choice </tspan><tspan x="0" y="18" class="st9 st19">to aggregate them is due to their low number</tspan></text>
	</g>
	<g>
		<rect x="632.4" y="19.6" class="st7" width="275.6" height="32.4"/>
		<text transform="matrix(1 0 0 1 632.3965 25.5272)" class="st16 st17 st18">“Blood avocados no more: Mexican farm town says it&apos;s kicked out cartels”</text>
	</g>
	<g>
		<rect x="501" y="123" class="st7" width="80.1" height="8.2"/>
		<text transform="matrix(1 0 0 1 501.0004 130.471)" class="st14 st15">Murders</text>
	</g>
	<g>
		<rect x="632.4" y="122.8" class="st7" width="239.5" height="12"/>
		<text transform="matrix(1 0 0 1 632.3962 128.7147)" class="st16 st17 st18">“Asesinan a 3 productores de aguacate in Michoacán”</text>
	</g>
	<g>
		<rect x="501" y="145.3" class="st7" width="80.1" height="8.2"/>
		<text transform="matrix(1 0 0 1 501.0004 152.8472)" class="st14 st15">Thefts</text>
	</g>
	<g>
		<rect x="632.4" y="146.9" class="st7" width="248.7" height="36.1"/>
		<text transform="matrix(1 0 0 1 632.3962 152.8779)"><tspan x="0" y="0" class="st16 st17 st18">“Los</tspan><tspan x="15" y="0" class="st16 st17 st18 st22"> </tspan><tspan x="18.4" y="0" class="st16 st17 st18">robos</tspan><tspan x="38.8" y="0" class="st16 st17 st18 st22"> </tspan><tspan x="42.3" y="0" class="st16 st17 st18">a</tspan><tspan x="46.7" y="0" class="st16 st17 st18 st22"> </tspan><tspan x="50.2" y="0" class="st16 st17 st18">gran</tspan><tspan x="66.9" y="0" class="st16 st17 st18 st22"> </tspan><tspan x="70.3" y="0" class="st16 st17 st18">escala</tspan><tspan x="93.1" y="0" class="st16 st17 st18 st22"> </tspan><tspan x="96.6" y="0" class="st16 st17 st18">se</tspan><tspan x="104.4" y="0" class="st16 st17 st18 st22"> </tspan><tspan x="107.8" y="0" class="st16 st17 st18">han</tspan><tspan x="121.6" y="0" class="st16 st17 st18 st22"> </tspan><tspan x="125.1" y="0" class="st16 st17 st18">hecho</tspan><tspan x="146.8" y="0" class="st16 st17 st18 st22"> </tspan><tspan x="150.3" y="0" class="st16 st17 st18">cada</tspan><tspan x="167.6" y="0" class="st16 st17 st18 st22"> </tspan><tspan x="171.1" y="0" class="st16 st17 st18">vez</tspan><tspan x="182.3" y="0" class="st16 st17 st18 st22"> </tspan><tspan x="185.8" y="0" class="st16 st17 st18">más</tspan><tspan x="200.7" y="0" class="st16 st17 st18 st22"> </tspan><tspan x="204.2" y="0" class="st16 st17 st18">frecuentes</tspan><tspan x="241.5" y="0" class="st16 st17 st18 st22"> </tspan><tspan x="244.9" y="0" class="st16 st17 st18">y </tspan><tspan x="0" y="10" class="st16 st17 st18">dejan grandes pérdidas a los productores”</tspan></text>
	</g>
	<g>
		<rect x="501" y="188.1" class="st7" width="122.6" height="8.2"/>
		<text transform="matrix(1 0 0 1 500.9999 195.6416)" class="st14 st15">Deforestation</text>
	</g>
	<g>
		<rect x="632.4" y="186.7" class="st7" width="257.2" height="35.3"/>
		<text transform="matrix(1 0 0 1 632.3962 192.6714)"><tspan x="0" y="0" class="st16 st17 st18">“The unprecedented international appetite for this fruit is fuelling </tspan><tspan x="0" y="10" class="st16 st17 st18">illegal deforestation and environmental degradation”</tspan></text>
	</g>
	<g>
		<rect x="501" y="230.5" class="st7" width="122.6" height="8.2"/>
		<text transform="matrix(1 0 0 1 500.9999 237.9581)" class="st14 st15">Others</text>
	</g>
	<g>
		<rect x="501" y="315" class="st7" width="122.6" height="8.2"/>
		<text transform="matrix(1 0 0 1 500.9999 322.4999)" class="st14 st15">Growth of the industry</text>
	</g>
	<g>
		<rect x="632.4" y="313.6" class="st7" width="240.7" height="6.1"/>
		<text transform="matrix(1 0 0 1 632.3965 319.5485)" class="st16 st17 st18">“La demanda en USA está creciendo el 20% cada año”</text>
	</g>
	<g>
		<rect x="501" y="336.7" class="st7" width="122.6" height="8.2"/>
		<text transform="matrix(1 0 0 1 500.9999 344.1614)" class="st14 st15">High prices</text>
	</g>
	<g>
		<rect x="632.4" y="349.3" class="st7" width="241" height="12"/>
		<text transform="matrix(1 0 0 1 632.3965 355.2105)" class="st16 st17 st18">“In recent years the price of avocados has shifted tremendously”</text>
	</g>
	<g>
		<rect x="501" y="441.3" class="st7" width="122.6" height="8.2"/>
		<text transform="matrix(1 0 0 1 500.9999 448.819)" class="st14 st15">Fair trade co-op</text>
	</g>
	<g>
		<rect x="632.4" y="440.9" class="st7" width="262" height="27.1"/>
		<text transform="matrix(1 0 0 1 632.3965 446.8677)"><tspan x="0" y="0" class="st16 st17 st18">“A new perspective of the efforts required to actually set up a weekly </tspan><tspan x="0" y="10" class="st16 st17 st18">small farmer, organic, Fair Trade avocado program”</tspan></text>
	</g>
	<g>
		<rect x="501" y="473.5" class="st7" width="122.6" height="8.2"/>
		<text transform="matrix(1 0 0 1 500.9999 480.9805)" class="st14 st15">NAFTA trade agreement</text>
	</g>
	<g>
		<rect x="632.4" y="476.1" class="st7" width="239.6" height="20.9"/>
		<text transform="matrix(1 0 0 1 632.3963 482.0287)"><tspan x="0" y="0" class="st16 st17 st18">“Mexican avocado exports to the U.S. will continue with or without </tspan><tspan x="0" y="10" class="st16 st17 st18">NAFTA”</tspan></text>
	</g>
	<text transform="matrix(1 0 0 1 501 25.3081)" class="st14 st15">Criminal cartels</text>
	<rect x="493" y="11" class="st23" width="420" height="159"/>
	<rect x="493" y="178" class="st23" width="420" height="36"/>
	<rect x="493" y="305" class="st23" width="420" height="117"/>
	<rect x="493" y="224" class="st23" width="420" height="73"/>
	<rect x="493" y="431" class="st23" width="420" height="179"/>
	<g>
		<g>
			<g>
				<line class="st24" x1="4.3" y1="15.5" x2="26.7" y2="15.5"/>
				<g>
					<g>
						<path class="st25" d="M26.5,19.3c2.1,0,3.8-1.7,3.8-3.8s-1.7-3.8-3.8-3.8c-2.1,0-3.8,1.7-3.8,3.8S24.4,19.3,26.5,19.3z"/>
						<path class="st26" d="M26.5,19.8c-2.3,0-4.3-1.9-4.3-4.3s1.9-4.3,4.3-4.3c2.3,0,4.3,1.9,4.3,4.3S28.8,19.8,26.5,19.8
							C24.1,19.8,28.8,19.8,26.5,19.8z M26.5,12.3c-1.8,0-3.3,1.5-3.3,3.3s1.5,3.3,3.3,3.3c1.8,0,3.3-1.5,3.3-3.3
							S28.3,12.3,26.5,12.3C24.7,12.3,28.3,12.3,26.5,12.3z"/>
					</g>
				</g>
			</g>
		</g>
		<g>
			<line class="st25" x1="4.6" y1="28.7" x2="31" y2="28.7"/>
			<g>
				<line class="st27" x1="4.6" y1="28.7" x2="27" y2="28.7"/>
				<g>
					<g>
						<path class="st25" d="M26.8,32.5c2.1,0,3.8-1.7,3.8-3.8c0-2.1-1.7-3.8-3.8-3.8c-2.1,0-3.8,1.7-3.8,3.8
							C23,30.8,24.7,32.5,26.8,32.5z"/>
						<path class="st2" d="M26.8,33c-2.3,0-4.3-1.9-4.3-4.3c0-2.3,1.9-4.3,4.3-4.3c2.3,0,4.3,1.9,4.3,4.3C31,31.1,29.1,33,26.8,33
							C24.4,33,29.1,33,26.8,33z M26.8,25.5c-1.8,0-3.3,1.5-3.3,3.3c0,1.8,1.5,3.3,3.3,3.3c1.8,0,3.3-1.5,3.3-3.3
							C30,26.9,28.6,25.5,26.8,25.5C25,25.5,28.6,25.5,26.8,25.5z"/>
					</g>
				</g>
			</g>
		</g>
		<text transform="matrix(1 0 0 1 39.833 16.833)"><tspan x="0" y="0" class="st12 st28">USA: first 50 results for query </tspan><tspan x="95.5" y="0" class="st17 st28">avocado trade</tspan></text>
		<text transform="matrix(1 0 0 1 39.833 30.6328)"><tspan x="0" y="0" class="st12 st28">Mexico: first 50 results for query </tspan><tspan x="105" y="0" class="st17 st28">aguacate trafico</tspan></text>
	</g>
</g>
<g id="title_and_protocol">
</g>
</svg>
