<svg version="1.1" xmlns="http://www.w3.org/2000/svg" x="0px" y="0px" viewBox="0 0 1728 480" xml:space="preserve">
    <style>
        .st0 {
        fill:none;
        stroke: #000000;
        stroke-linecap: round;
        stroke-linejoin: round;
        stroke-miterlimit: 10;
        }
    </style>
    <g>
        <path class="st0" d="M844 0.5c0.33 3.5 0.78 6.99 0.98 10.5 0.41 7.33 1.05 14.67 0.93 22 -0.13 7.91-1.57 15.81-8.97 20.39 -5.5 3.4-12.01 4.03-18.43 4.64 -17.76 1.7-35.69 2.12-52.54 9.37 -13.6 5.85-23.74 15.16-31.5 27.57 -7.74 12.38-11.43 26.25-15.48 40.02 -3.17 10.74-6.19 21.6-13.5 30.49 -7.1 8.64-16.44 12.83-27.45 14.68 -12.17 2.04-23.43-1.68-35.03-3.62 -8.07-1.35-16.2-2.65-24 1.45 -8.38 4.4-12.17 12.14-14.96 20.52 -5.89 17.67-10.38 35.61-9.02 54.49 0.75 10.42 4.61 19.99 8.53 29.48 6.03 14.58 17.66 22.99 31.92 28.62 4.75 1.87 9.56 4.29 13.42 7.55 5.58 4.72 7.66 11.08 2.98 20.28 -3.99 7.84-9.21 15.06-13.86 22.57 -5.1 8.24-9.23 16.75-11.14 26.47 -2.91 14.77 0.25 27.98 8.7 39.99 10.96 15.58 25.91 26.57 43.01 34.4 10.72 4.91 21.75 2.91 32.45-1.35 17.55-6.98 28.68-19.68 34.57-37.49 2.74-8.28 8.1-15.1 13.92-21.53 7.95-8.79 15.95-17.73 20.82-28.58 3.82-8.52 6.9-17.31 4.95-27.46 -2.09-10.91-8.08-18.6-16.35-24.83 -4.66-3.51-10-6.42-15.46-8.5 -13.95-5.32-23.11-15.61-29.84-28.19 -5.31-9.91-10.62-20.05-12.05-31.45 -2.18-17.37-0.72-33.82 12.87-47.06 4.47-4.35 9.95-6.46 15.57-6.71 8.46-0.37 17.03 0.43 25.48 1.36 10.21 1.13 20.35 2.89 30.51 4.42 15.98 2.4 31.84 5.22 44.47 16.53 5.18 4.63 10.19 9.48 14.99 14.5 7.52 7.86 16.93 12.18 27.03 15.49 7.71 2.53 15.43 5.07 22.98 8.03 8.65 3.4 15.02 9.34 19.09 17.91 4.73 9.96 9.54 19.93 15.05 29.47 5.5 9.51 13 17.63 24.42 19.33 6.64 0.99 13.71 0.11 20.45-0.87 13.3-1.93 26.48-4.14 40.01-4.56 18.92-0.59 37.78-2.17 56.04-8.22 17.28-5.73 34.69-4.63 51.98 0.86 13.27 4.21 26.82 7.57 39.93 12.2 9.27 3.27 18.26 7.65 24.55 15.84 4.3 5.6 6.84 11.74 7.08 19 0.45 13.37-2.06 26.18-5.46 39.03 -4.03 15.22-12.92 24.54-28.6 27.54 -12.07 2.31-24.01 5.29-36.02 7.89 -1.27 0.28-2.66 0.04-3.99 0.04 -10 0-20.02 0.35-30-0.09 -11.19-0.5-20.74 3.32-30.07 8.98 -5.45 3.3-11.38 6.21-17.48 7.94 -8.71 2.47-17.59 1.46-26.47-0.72 -15.04-3.68-27.03-12.52-38.98-21.6 -9.15-6.96-19.1-12.09-30.98-10.37 -6.11 0.89-12.31 2.54-17.97 4.99 -16.18 7.01-30.19 17.31-42.02 30.41 -6.4 7.09-10.06 15.66-12.04 24.97"/>
        <path class="st0" d="M1727.5 34c-17.77 10.82-35.16 22.23-49.45 37.55 -16.36 17.54-37.22 25.7-60.03 30.56 -12.49 2.66-24.18 0.93-36.07-2.98 -8.53-2.8-17.24-5.11-26.46-5.23 -14.46-0.18-27.63 4.31-40.48 10.14 -6.49 2.95-13.05 5.94-17.04 12.44 -3.21 5.24-4.63 10.87-5.09 17 -0.56 7.53-1.64 15.05-2.95 22.5 -2.99 17.05-16.07 21.37-30.91 12.94 -10.53-5.99-20.51-12.95-31.1-18.82 -7.77-4.3-16.37-6-25.43-6.24 -17.71-0.48-35.35-1.32-52.06-8.75 -14.01-6.23-28.47-5.2-42.98-0.74 -6.7 2.06-14.16 3.64-20.35-1.04 -4.44-3.36-8.13-7.91-11.54-12.41 -4.99-6.59-9.65-13.46-14.03-20.47 -6.23-9.98-15.27-15.95-26.58-17.3 -20.77-2.48-37.97-11.45-53.06-25.58 -7.43-6.96-16.79-10.9-26.93-11.43 -10.11-0.53-19.22 2.73-25.46 11.37 -6.31 8.73-12.21 17.76-18.58 26.44 -4.99 6.8-11.09 12.52-19.96 13.41 -4.09 0.41-8.45-0.01-12.46-0.98 -8.92-2.15-17.71-4.84-26.52-7.4 -13.48-3.92-26.6-1.31-39.48 2.6 -11.65 3.54-23.3 6.57-35.51 7.56 -5.74 0.46-11.44 2.21-16.99 3.92 -11.99 3.7-19.47 11.6-20.43 24.44 -0.5 6.74 2.02 12.85 6.43 17.97 8.45 9.82 19.66 14.73 31.98 17.51 18.84 4.25 37.04 10.42 55.04 17.39 9.39 3.64 19.26 5.78 29.44 6.76 14.75 1.43 28.93-1.4 42.98-4.8 12.02-2.91 23.76-7 35.52-10.89 13.51-4.48 27.05-8.71 41.51-7.4 11.37 1.03 21.72 4.93 30.5 12.46 9.48 8.14 15.82 18.62 21.45 29.52 6.23 12.05 11.67 24.51 18.16 36.41 5.91 10.83 13.42 20.26 26.37 23.63 7.67 1.99 15.15 2.17 23.05 1.17 6.52-0.83 13.49-0.41 19.92 0.99 7.18 1.56 11.41 7.27 13.54 14.28 1.56 5.15 3 10.33 4.51 15.5 7.05 24.11 20.8 42.85 43.49 54.52 11.04 5.68 22.81 5.3 34.5 3.86 15-1.84 28.56-8.49 42.56-13.76 15.81-5.95 31.9-8.61 48.52-1.79 7.06 2.9 11.13 2.97 10.89-8.33 -0.09-4.51-1.22-9.06-0.8-13.49 0.47-4.9 1.37-10.08 3.51-14.43 4.31-8.76 12.43-12.14 21.83-12.57 28.68-1.31 52.89 9.66 74.46 27.53 5.08 4.2 10.01 8.67 14.47 13.52 8.96 9.74 19.08 18.15 30.64 24.29 20.43 10.84 32 28.26 40.03 49.11 5.18 13.44 11.63 26.34 22.89 36.04"/>
        <path class="st0" d="M1303 0.5c-3.39 14.44-11.18 26.31-22.59 35.38 -12.04 9.57-25.13 17.62-39.89 22.67 -14.01 4.8-26.74 2.16-38.47-6.12 -5.6-3.95-10.69-8.63-16.05-12.93 -8.61-6.89-18.82-9.36-29.49-10.51 -2.84-0.31-5.66-0.82-8.5-0.97 -20.79-1.08-25.84 6.51-33.38 22.03 -3.76 7.74-7.42 15.34-13.04 22 -6.97 8.26-15.29 12.01-26.07 9.96 -9.15-1.75-18.34-3.32-27.5-5.02 -12.94-2.4-25.52 0.27-37.98 3.12 -9.6 2.2-19.12 3.86-29.02 4.03 -8.85 0.15-17.83 0.73-26.47 2.52 -17.59 3.66-29.96 15.13-39.99 29.36 -3.66 5.19-6.13 10.88-6.65 17.46 -0.55 7.05 2.29 12.67 6.68 17.44 9.63 10.47 20.1 20.14 33 26.41 5.71 2.77 12.15 4.78 18.44 5.48 19.49 2.16 38.85 4.54 57.5 11.11 13.22 4.66 26.72 8.5 39.96 13.12 14.71 5.14 28.69 2.9 42.53-3.05 15.64-6.72 31.08-14.02 47.07-19.8 13.08-4.73 26.56-5.42 39.49 2.17 5.78 3.39 10.42 7.88 13.78 13.21 9.09 14.4 17.64 29.15 26.07 43.95 3.16 5.55 5 11.86 8.16 17.41 7.91 13.9 20.58 21.11 35.93 24.01 6.46 1.22 13.04 1.78 19.48 3.09 12.48 2.54 20.99 9.85 26.65 21.38 4.99 10.16 10.64 20.11 16.98 29.49 10.81 15.99 25.5 27.15 44.91 30.41 8.16 1.37 16.68 1.53 24.96 1.02 15.19-0.92 29.45-6.4 44.01-10.34 22.91-6.2 36.37 2.74 43.47 24 1.54 4.6 2.63 9.34 4.05 13.99 1.85 6.06 2.75 7.31 8.98 7.02 19.04-0.88 35.54-6.86 46.42-23.57 3.06-4.7 4.38-10.13 4.69-15.94 0.59-10.92-1.95-21.41-3.67-32 -2.26-13.85 5.46-21.83 20.06-19.99 16.33 2.06 29.61 9.91 40.48 22 13.05 14.5 27.64 27.03 44.46 37.08 12.58 7.52 19.53 20.02 24.89 32.97 8.33 20.11 18.66 39.03 30.06 57.49 3.15 5.1 5.1 10.94 7.6 16.44"/>
    	<path class="st0" d="M620 479.5c-4.51-13.77-12.39-25.68-20.45-37.54 -4.96-7.3-10.14-14.61-13.86-22.55 -4.39-9.39-3.68-19.47-0.76-29.43 1.98-6.74 3.09-13.74 5.14-20.46 2.2-7.2-0.1-13.64-2.66-19.99 -2.47-6.15-5.98-11.89-8.28-18.08 -1.44-3.88-1.84-8.26-2.08-12.45 -1-17.65-2.3-35.22-6.42-52.53 -1.7-7.13-1.61-14.66-2.7-21.96 -1.27-8.53-2.31-17.18-4.61-25.46 -2.77-9.98-10.52-15.71-19.83-19.56 -16.5-6.83-33.43-11.28-51.51-10.6 -3.64 0.14-7.41-0.94-10.98-1.95 -5.05-1.42-7.27-4.21-6.92-9.43 0.42-6.36 1.75-12.66 2.36-19.01 1.26-13.08 1.69-26.21-4.05-38.46 -4.76-10.17-13.7-14.75-24.39-17.14 -18.06-4.04-32.09 2.97-45.08 14.54 -12.36 11.01-23.59 23.45-37.98 31.99 -6.63 3.94-13.35 7.68-18.43 13.6 -6.44 7.51-7.18 14.77-2.94 20.91 3.82 5.53 9.69 8.23 16.41 8 13.17-0.45 26.33-1.46 39.5-1.88 9.67-0.31 18.77 2.23 27.52 6.39 8.98 4.28 12.77 11.57 12.95 21.05 0.3 15.63 0.23 31.23-3.94 46.51 -2.86 10.46-8.39 19.64-13.58 28.97 -9.39 16.88-17.95 34.14-23.86 52.56 -2.18 6.81-1.59 14.04-0.02 20.95 1.77 7.78 3.38 15.44 2.47 23.52 -1.4 12.49-16.1 18.04-24.55 15.49 -3.72-1.12-5.79-3.74-6.5-7.49 -1.35-7.16-2.93-14.3-3.95-21.51 -1.77-12.51-7.92-20.06-20.58-21.27 -13.74-1.31-27.65-1.23-41.48-1.07 -6.01 0.07-12.14 1.35-17.98 2.94 -15.65 4.25-17.73 16.88-13.3 28.32 6.81 17.61 20.24 28.51 39.29 30.38 11.56 1.13 23.31 0.21 34.98 0.21 5 0 10.02-0.26 15 0.07 5.77 0.38 8.53 5.17 12.04 8.9 6.05 6.45 11.88 13.19 18.59 18.89 6.48 5.51 14.23 5.02 21.89 1.67 6.44-2.81 12.91-5.58 19.51-7.97 8.14-2.95 21 5.54 20.18 15.46 -0.45 5.49-1.72 10.53-3.76 15.46 -1.56 3.78-3.61 7.36-5.45 11.02"/>
    	<path class="st0" d="M869 479.5c3.87-14.2 8.46-28.21 19.1-38.9 8.15-8.18 16.96-15.77 25.96-23.03 14.61-11.78 29.67-22.99 44.38-34.65 2.76-2.19 4.64-2.57 7.08 0.06 9.3 10.04 18.51 20.15 28.03 29.97 8.5 8.78 16.89 17.7 29.43 21.14 9.38 2.58 18.06 1.67 25.97-3.68 7.58-5.13 14.54-11.19 22.11-16.34 7-4.77 14.76-6.41 23.47-5.24 10.07 1.35 20.44 2.84 30.45 1.85 16.13-1.58 32.04-4.83 46.59-13.08 14.94-8.47 21.42-36.86 3.57-52.26 -10.37-8.94-22.49-13.13-35.16-16.23 -13.4-3.28-27.18-5.38-40.95-3.9 -9.95 1.07-19.64 4.37-29.54 6.2 -6.92 1.28-13.97 1.96-20.99 2.54 -10.48 0.86-21.05 0.95-31.48 2.18 -9.64 1.13-18.31 5.36-25.45 11.94 -7.28 6.7-14.06 13.93-21.06 20.93 -1.17 1.17-2.28 2.39-3.51 3.49 -4.39 3.95-4.97 4.02-8.97-0.01 -9.31-9.38-16.16-20.48-22.58-31.95 -8.76-15.64-17.52-31.3-27.08-46.44 -6.74-10.69-16.6-17.99-29.36-20.58 -7.98-1.62-15.98-1.47-24-0.05 -3.96 0.7-8 0.98-11.99 1.55 -6.85 0.96-10.59-2.85-12.97-8.52 -2.14-5.11-3.93-10.36-6.05-15.48 -6.41-15.45-18.91-23.52-34.52-26.84 -8.97-1.91-18.29-2.88-27.47-2.95 -8.13-0.06-15.91 2.23-21.56 9.24 -6.35 7.88-5.39 18.44-0.39 27.52 4.73 8.59 12.9 13.81 20.47 19.5 16.1 12.1 32.63 23.63 48.35 36.19 8.57 6.85 11.33 16.98 9.57 27.83 -2.67 16.54-11.12 30.48-20.42 44.03 -10.6 15.43-21.32 30.79-31.44 46.54 -10.46 16.26-23.95 29.34-39.57 40.46 -2.9 2.07-5.68 4.32-8.51 6.49"/>
    	<path class="st0" d="M862 0.5c-0.62 14.48 2.84 28.43 5.46 42.51 1.26 6.79 2.79 13.52 0.16 20.54 -1.98 5.3-5.73 8.64-10.65 9.23 -7.23 0.87-14.65 0.44-21.97 0.13 -3.69-0.15-7.31-1.51-11.01-1.86 -16.01-1.52-31.92-2-47.51 3.41 -22.91 7.94-35.61 24.24-40.57 47.53 -2.05 9.64-2.27 19.33-1.82 29.01 0.67 14.63 9.08 23.37 22.37 28.59 14.73 5.79 29.83 9.6 45.53 11.46 11.7 1.39 23.36 3.18 35 4.98 8.32 1.29 15.19 5.67 21.5 10.98 6.87 5.78 13.43 11.99 20.58 17.39 6.96 5.27 15.14 7.61 23.91 8.75 9.28 1.2 18.1-0.47 27.02-2.17 9.65-1.85 17.52 3.56 18.96 13.52 1.53 10.64 2.26 21.41 4.16 31.97 2.53 14.11 10.49 23.64 24.86 27.63 9.89 2.75 19.95 3.18 30.03 3.88 5.33 0.37 10.67 1.03 16 0.92 7.34-0.15 14.67-0.9 22-1.41 14.69-1.02 27.89-7.29 41.47-12.09 10.82-3.82 21.24-3.83 32.06 0 12.02 4.24 24.19 8.16 36.5 11.46 8.81 2.36 17.97 3.42 26.96 5.15 8.35 1.6 16.95 2.5 24.93 5.2 9.16 3.1 14.05 11.2 17.52 19.8 4.81 11.93 5.51 24.22 3.74 37 -1.28 9.22-3.53 18.91 0.92 27.92 2.6 5.28 5.42 10.9 9.58 14.86 7.48 7.12 7.97 15.35 4.61 23.6 -4.1 10.04-9.35 19.68-14.93 29 -4.12 6.87-9.77 7.71-16.85 4.09 -7.5-3.83-14.68-8.68-22.59-11.22 -8.09-2.6-16.87-3.52-25.42-4.15 -14.97-1.12-29.99-2.05-44.99-1.97 -16.5 0.09-28.93 7.56-35.5 23.34"/>
    	<path class="st0" d="M1727 58.5c-16.24 5.54-30.8 13.95-43.49 25.51 -11.37 10.36-24.38 17.59-38.94 22.67 -10.17 3.55-19.72 8.84-29.57 13.3 -3.13 1.42-6.27 2.83-9.51 3.98 -7.64 2.71-14.51-0.48-21.5-2.94 -7.46-2.63-14.83-5.8-22.52-7.37 -17.75-3.64-43.78 6.04-48.94 28.35 -1.68 7.29-2.79 14.72-4.59 21.98 -2.1 8.47-5.16 16.42-11.35 23.1 -7.48 8.07-19.12 9.56-29.03 4.3 -8.64-4.59-17.02-9.81-24.99-15.48 -10.25-7.29-21.29-12.48-33.59-14.82 -4.4-0.84-8.99-1.05-13.48-1.03 -16.46 0.07-32.72-1.75-49.02-3.89 -14.56-1.91-28.53 0.86-40.98 9.33 -9.14 6.21-18.43 12.2-27.46 18.55 -7.68 5.4-11.21 12.85-11.16 22.46 0.05 9.33 1.34 18.17 5.62 26.5 4.82 9.38 12.34 14.31 23.01 13.98 9.17-0.28 18.34-0.59 27.5-1 18.65-0.85 29.88 11.22 33.96 27.03 2.56 9.94 3.88 20.28 7.23 29.92 5.46 15.69 14.5 29 29.8 37.09 11.51 6.09 23.64 5.95 35.46 2.32 19.6-6.01 38.14-14.71 53.88-28.04 5.4-4.57 9.1-11.29 13.09-17.35 3.69-5.6 6.44-11.82 10.14-17.41 7.28-10.97 17.41-13.14 29.97-10.18 28.37 6.68 54.59 18.31 79.39 33.26 5.83 3.51 11.08 8.19 16.01 12.95 14.19 13.7 29.26 25.79 47.47 34.14 18.25 8.37 30.81 23.36 41.11 40.28 2.19 3.59 4.68 6.99 6.93 10.54 0.28 0.44-0.12 1.3-0.2 1.97"/>
    	<path class="st0" d="M338.5 479c-6.08-16.8-18.73-25.92-35.51-29.96 -9.28-2.23-18.74-3.71-27.96-6.14 -8.41-2.22-14.9-7.57-19.49-14.93 -6.81-10.91-13.23-22.06-20.08-32.95 -4.92-7.82-10.26-15.38-15.46-23.02 -8.98-13.19-9.28-26.77-2.56-41.03 5.02-10.64 12.19-19.5 21.1-26.92 10.49-8.73 22.28-8.75 34.45-4.04 8.86 3.43 17.51 7.51 26.55 10.35 11 3.46 22.33 5.01 33.97 2.71 8.59-1.7 17.33-2.7 25.98-4.08 11.4-1.82 20.14-8.34 26.86-17.1 6.56-8.56 11.6-18.18 14.17-28.88 2.71-11.26-0.78-22.15-9.59-26.37 -6.15-2.94-12.94-3.97-19.95-2.71 -3.93 0.71-7.98 0.95-11.99 1.02 -8.33 0.15-16.78 0.9-24.97-0.18 -9.41-1.25-17.28-6.57-24.02-13.28 -11.52-11.48-22.97-23.03-34.52-34.48 -5.08-5.03-10.98-9-18.43-6.85 -4.27 1.23-8.49 3.63-11.95 6.45 -6.02 4.9-11.58 10.4-17.07 15.91 -12.55 12.62-27.34 21.56-44.04 27.46 -10.14 3.58-20.14 7.76-30.54 10.32 -12.5 3.08-23.55-0.56-31.95-10.81 -3.83-4.67-7.68-9.32-11.5-14 -5.18-6.36-12.42-8.33-20.01-8.4 -26-0.25-52-0.13-78-0.05 -3.83 0.01-7.67 0.62-11.5 0.96"/>
    	<path class="st0" d="M325 479.5c-7.33-14.64-20.33-19.57-35.5-20.45 -9.99-0.58-20.03-0.36-29.99-1.16 -8.72-0.7-13.9-6.18-16.54-14.38 -2.69-8.38-5.25-16.83-8.58-24.97 -3.35-8.19-7.98-15.75-14.39-22.04 -7.15-7.01-14.72-13.65-21.4-21.09 -9.55-10.63-8.83-22.48-3.18-34.95 7.82-17.25 19.3-31.95 31.16-46.4 4.02-4.89 8.44-9.75 13.54-13.4 7.27-5.21 15.55-6.67 24.91-5.96 13.88 1.05 25.79 6.99 37.92 12.43 14.44 6.47 29.35 9.72 45.05 8.8 16.41-0.96 28.51-8.94 34.37-24.48 4.51-11.95-0.88-21.46-14.37-21.56 -10.81-0.08-21.04 2.76-31.51 4.56 -13.17 2.26-24.64-0.08-33.1-11.88 -5.43-7.57-11.63-14.65-18-21.47 -3.2-3.42-7.33-6.16-11.43-8.53 -12.51-7.23-24.48-4.1-34.84 4.08 -14.81 11.69-31.17 20.06-48.55 27.01 -8.05 3.22-15.3 8.38-23.1 12.27 -6 3-12.08 6.32-18.51 7.88 -15.2 3.68-28.95-0.11-40.41-10.86 -7.22-6.77-13.88-14.13-21.08-20.92 -9.9-9.33-22.23-12.96-35.46-14.02 -5.99-0.48-12.03-1.23-17.99-0.9 -10.19 0.56-20.34 1.89-30.51 2.87 -0.99 0.1-2 0.01-3 0.01"/>
    	<path class="st0" d="M388 0.5c-1.85 23.2-7.47 45.54-14.93 67.53 -3.43 10.11-9.94 17.7-18.12 23.91 -14.45 10.96-28.23 22.63-40.96 35.56 -8.89 9.02-15.45 19.27-17.49 32.01 -1.66 10.39 0.05 20.25 5.01 29.49 7.21 13.42 17.21 23.99 31.49 30 10.04 4.23 20.53 3.25 31 2.52 10.18-0.71 20.29-1.85 30.52 0.4 13.97 3.07 22.53 20.4 19.67 34.14 -4.26 20.44-14.49 37.41-27.72 52.94 -7.94 9.31-19.12 12.01-30.48 13.99 -10.64 1.85-21.28 3.89-32.01 4.89 -10.27 0.96-20.49-0.55-30.49-3.32 -7.79-2.16-15.58-4.44-23.51-5.95 -18.72-3.56-33.08 4.45-37.04 25.41 -2.05 10.83 1.53 20.69 5.79 29.9 6.07 13.1 13.15 25.83 20.92 38.01 9.05 14.19 22.9 21.74 39.31 25.23 8.16 1.74 16.22 4.39 23.99 7.47 14.63 5.8 23.23 17.27 28.04 31.9 0.33 1 0.67 2 1 3"/>
    	<path class="st0" d="M410 0.5c-1.08 12.2-2.44 24.29-6.41 36.03 -3.88 11.46-5.93 23.32-6.68 35.46 -0.96 15.54-7.93 28.04-20.4 37.53 -13.42 10.22-26.74 20.57-40 31 -7.99 6.29-13.72 14.15-17.11 23.94 -6.43 18.58 5.46 36.13 20.09 41.51 9.94 3.66 20.07 3.31 30.52 2.24 9.89-1.02 20.23-1.64 29.92 0.1 16.34 2.94 23.32 13.53 26.09 29.18 2.99 16.87-2.48 31.74-10.56 45.99 -6.19 10.91-12.58 21.72-18.99 32.5 -4.45 7.48-10.18 13.91-18.53 16.88 -5.75 2.04-11.89 3.39-17.96 4.02 -13.46 1.39-26.98 2.66-40.49 2.97 -14.15 0.33-28.33-0.58-42.5-0.8 -2.49-0.04-5.04 0.43-7.49 0.98 -10.59 2.38-15.4 8.99-16.43 20.47 -1.22 13.66 4.42 25.48 10.9 37 10.59 18.82 27.63 27.65 48.02 31.52 5.2 0.98 10.43 2.01 15.49 3.52 22.59 6.74 35.48 22.33 40.52 44.95 0.11 0.51 0.33 1 0.49 1.5"/>
    	<path class="st0" d="M600 479.5c-2.82-10.77-8.75-19.77-16.01-27.99 -8.13-9.2-16.68-18.05-24.39-27.59 -7.77-9.6-11.52-21.06-11.52-33.42 0-13.17-0.2-26.42 1.17-39.47 1.1-10.46 4.03-20.8 6.84-31 3.95-14.37 5.05-28.78 2.96-43.53 -1.58-11.13-2.49-22.36-4.1-33.49 -2.74-19.05-11.86-29.07-32.95-33.01 -13.82-2.58-26.34 1.51-38.51 7.48 -3.61 1.77-7.53 3.01-10.95 5.08 -8.62 5.23-14.58 12.65-17.57 22.42 -2.87 9.37-6.1 18.64-8.94 28.02 -3.61 11.94-11.22 21.74-17.07 32.47 -7.5 13.77-13.41 28.08-12.83 44.01 0.44 12.09 4.82 23.2 10.21 34.08 5.05 10.19 11.7 18.16 22.13 22.98 5 2.31 9.69 5.28 14.53 7.94 13.03 7.15 18.18 18.61 19.13 32.99 0.73 11.05-1.14 21.55-4.14 32.01"/>
    	<path class="st0" d="M613 0.5c-1.33 7.67-3.03 15.29-3.92 23.01 -1.51 13.1-8.35 21.72-20.03 27.59 -19.79 9.95-40.5 17.03-62.04 21.95 -8 1.83-15.84 4.6-20.38 12.03 -2.26 3.7-4.1 8.17-4.47 12.43 -1.62 18.96 3.17 35.73 17.75 49.07 4.68 4.28 8.41 9.58 12.58 14.41 7.56 8.76 17.08 14.75 27.49 19.51 13.03 5.96 19.85 16.07 19.99 30.49 0.08 7.5 0.23 15.01-0.03 22.5 -0.64 18.47 3.91 36.03 9.05 53.5 1.43 4.85 2.74 9.76 4.54 14.48 4.09 10.72 10.29 19.86 19.91 26.57 10.73 7.48 9.54 17.86 6 28.44 -2.81 8.4-6.29 16.58-8.86 25.04 -2.02 6.67-3.82 13.57-4.42 20.48 -0.68 7.84 1.37 15.62 5.39 22.44 7.56 12.83 15.55 25.4 23.44 38.04 3.57 5.73 7.32 11.34 10.98 17.01"/>
    	<path class="st0" d="M1 257.5c5 3.67 9.92 7.45 15.01 10.98 16.58 11.5 35.61 16.45 54.98 20.55 7.02 1.49 11.55 5.35 13.15 12.94 1.71 8.13 3.98 16.24 6.97 23.99 5.99 15.5 18.42 24.41 33.42 29.96 8.35 3.09 16.74 6.38 25.97 6.13 5.48-0.15 9.94-2.02 12.97-6.57 4.95-7.43 9.41-15.18 14.59-22.44 9.28-12.99 19.12-25.58 28.36-38.6 4.15-5.85 7.45-12.27 9.13-19.43 2.59-11.04-3.26-16.55-14.57-15.23 -9.78 1.15-17.16 6.49-24.91 11.32 -6.05 3.77-12.07 7.27-19.06 8.91 -9.09 2.13-18.24 2.5-27.51 1.54 -4.3-0.45-8.67-0.25-12.99-0.58 -4.35-0.33-8.69-0.81-13-1.5 -5.32-0.85-8.51-4.27-11.09-8.92 -4.64-8.37-8.23-17.28-14.79-24.66 -6.93-7.8-15.11-12.94-25.15-14.8 -17.76-3.29-34.67 0.25-50.97 7.45 -0.26 0.12-0.35 0.64-0.51 0.97"/>
    	<path class="st0" d="M1727.5 109c-8.69 0.88-16.83 3.12-24.03 8.46 -10.52 7.81-23.03 10.55-35.45 13.61 -12.45 3.07-19.82 10.97-22.13 23.91 -1.71 9.58-3.51 19.41-10.43 26.99 -8.8 9.64-20.32 13.21-32.93 15.23 -12.07 1.93-23.42-1.14-35.02-2.75 -4.86-0.67-8.44 2.11-8.43 8.05 0 16.3 4.24 31.4 14.99 43.95 13.12 15.31 30.19 24.9 48.97 31.47 10.84 3.79 22.02 6.59 32.95 10.15 6.11 1.99 11.96 4.76 18.04 6.89 4.57 1.6 9.24 3.22 14 3.94 8.18 1.24 13.82-6.3 15.09-17.38 3.45-30.13 1.1-60.35 1.95-90.51 0.18-6.56 1.32-12.99 4.38-19.03 3.81-7.53 9.77-11.04 18.06-10.97"/>
    	<path class="st0" d="M1727.5 81c-7.83 2.5-15.83 4.6-23.44 7.65 -4.65 1.86-9.16 4.68-12.98 7.95 -10.53 9.03-22.94 14.32-35.55 19.49 -9.9 4.06-19.99 8.22-25.98 17.95 -2.65 4.31-4.85 8.91-7.01 13.49 -1.85 3.91-2.85 8.32-5.14 11.92 -6.08 9.54-16.39 12.47-26.81 3.46 -4.52-3.9-8.21-8.79-12.06-13.43 -5.1-6.14-10.9-11.17-18.52-14.01 -12.68-4.71-23.21 1.81-27.37 11.1 -3.06 6.84-5.09 14.19-7.08 21.45 -3.23 11.77-6.1 23.64-9.03 35.49 -0.69 2.79-1.1 5.65-1.51 8.5 -1.16 7.98 1.99 13.81 8.43 18.57 10.69 7.91 20.65 16.86 31.66 24.27 12.19 8.2 25.2 15.2 37.9 22.65 15.32 8.99 32.22 15.18 46.47 26.05 5.17 3.94 10.04 8.28 15.02 12.47 8.33 6.99 17.75 11.86 27.97 15.59 13.38 4.88 26.38 10.69 37.57 19.85 2.23 1.83 4.96 3.05 7.46 4.55"/>
    	<path class="st0" d="M696 0.5c-3.48 10.11-11.63 14.88-21.01 17.96 -14.96 4.91-29.28 11.07-41.97 20.56 -2.27 1.7-4.45 3.54-6.5 5.5 -7.12 6.82-6.26 15.51-4.91 23.96 1.34 8.41 4.01 16.62 5.26 25.04 1.25 8.41 2.26 17.01 1.95 25.47 -0.5 13.39 4.55 22.98 16.15 29.57 6.38 3.62 12.76 6.84 20.01 8.55 9.42 2.21 16.75-1.49 23.49-7.15 6.14-5.16 10.36-11.9 14.03-18.96 7.02-13.49 13.94-27.03 21.02-40.49C734.48 69.65 752.54 58.69 775 54c11.33-2.36 22.8-4.17 33.97-7.13 15.95-4.22 20.64-10.26 21.98-25.38 0.62-6.97 0.72-14 1.05-21"/>
    	<path class="st0" d="M72.5 1c0.67 0.33 1.56 0.49 1.97 1.03C86.84 17.99 99.17 34 111.5 50c7.72 10.02 11.38 21.21 11.67 34 0.33 14.65 2.68 29.13 9.39 42.48 1.11 2.2 2.75 4.21 4.48 5.99 4.35 4.48 9.08 5.06 13.88 0.94 4.72-4.05 8.96-8.72 13.04-13.44 6.08-7.04 11.86-14.41 20.56-18.43 12.13-5.61 24.64-5.89 37.5-2.6 9.07 2.31 16.71 7 23.98 12.57 13.15 10.07 22.32 10.69 36.46-2.55 7.91-7.41 15.36-15.31 23.05-22.95 7.61-7.56 17.13-11.92 27.01-15.46 20.37-7.32 31.05-22.41 34.36-43.06C368.29 18.6 368.33 9.5 369 0.5"/>
    	<path class="st0" d="M850 479.5c7.96-17.13 14.47-35.13 26.63-49.89 8.15-9.9 17.78-18.56 26.27-28.19 4.56-5.18 8.69-10.93 11.97-16.98 5.4-9.97 4.91-20.71 2.13-31.43 -3.91-15.07-10.5-28.69-22.03-39.46 -3.94-3.68-8.34-6.78-13.96-7.55 -8.44-1.16-13.5 3.56-17.48 10.03 -4.59 7.45-8.64 15.25-13.59 22.44 -12.61 18.32-25.34 36.57-38.51 54.49 -9.19 12.49-17.58 25.41-24.94 39.05 -7.41 13.71-18.56 24.24-29.97 34.51 -4.65 4.19-9.33 8.34-14 12.5"/>
    	<path class="st0" d="M714 0.5c-0.67 7.33-0.65 14.81-2.16 21.97 -2.3 10.87-8.64 15.29-19.33 16.61 -10.11 1.25-20.35 2.01-29.55 7.35 -5.66 3.28-10.52 7.45-13.29 13.15 -2.79 5.75-2.72 12.34-0.58 18.39 4.57 12.94 11.84 23.9 24.41 30.54 4.36 2.3 8.52 1.98 13.04 0.07 10.1-4.27 15.55-12.9 20.94-21.59 4.8-7.75 9.4-15.63 14.02-23.49 3.99-6.8 10.35-10.64 17.55-12.35 14.72-3.48 29.67-5.96 44.45-9.23 6.94-1.53 13.99-3.23 20.45-6.07C814.86 31.03 818.79 21.2 820 10c0.34-3.17 0.67-6.33 1-9.5"/>
    	<path class="st0" d="M897 0.5c-0.67 11.5-1.98 23.01-1.82 34.5 0.16 11.52 1.89 23.07 5.91 33.97 3.59 9.74 9.78 11.71 21.4 8.49 8.73-2.43 17.19-6.19 26.06-7.68 7.78-1.31 15.95-0.27 23.95-0.27 9.5 0 19.17 1.12 28.46-0.25 16.3-2.4 32.48-5.3 49.03-4.22 7.68 0.5 15.34 1.27 23 1.98 11.56 1.07 19.48-6.76 22.33-15.07 2.36-6.87 3.47-14.23 4.58-21.45 0.83-5.42 1-10.98 1.03-16.49 0.02-4.5-0.59-9-0.93-13.5"/>
    	<path class="st0" d="M0.5 198c3.5-0.33 6.99-0.85 10.5-0.97 12-0.42 24.01-0.52 36-1.07 22.24-1.03 39.91-10.79 54.1-27.88 8.76-10.54 12.49-22.38 10.71-35.56 -1.39-10.29-4.02-20.49-6.94-30.49 -2.92-10-6.36-19.92-10.48-29.49 -7.21-16.73-18.71-30.1-34.43-39.48 -7.17-4.28-14.01-1.97-20.48 2.41 -7.92 5.37-16.61 9.09-26 10.96C9.22 47.29 4.83 47.5 0.5 48"/>
    	<path class="st0" d="M1453 0.5c2.71 13.36 10.22 24.12 19.09 33.92 5.52 6.1 11.83 11.51 17.93 17.06 7.06 6.42 15.79 8.92 24.97 8.39 17.09-0.99 32 5.49 47.02 12.1 10.93 4.82 21.68 10.41 33.05 13.8 21.59 6.44 42.2 2.76 59.76-11.48 8.8-7.14 15.89-16.41 23.65-24.81 6.09-6.59 12.38-13.03 17.92-20.06 6.59-8.36 9.83-18.14 9.6-28.93"/>
    	<path class="st0" d="M105.5 1c11.83 13.83 24.21 27.25 35.28 41.67 5.77 7.52 9.35 16.76 13.69 25.35 4.09 8.1 10.06 12.69 19.54 12.01 17.21-1.24 34.53-1.28 51.5-5.01 10.03-2.2 18.54-7.28 26.51-13.5 5.98-4.66 12.31-8.81 19.99-9.97 5.13-0.77 10.32-1.26 15.49-1.51 13.59-0.67 26.95-2.22 40.04-6.42 13.77-4.42 20.18-14.29 22.38-27.63 0.84-5.08 0.75-10.32 1.08-15.49"/>
    	<path class="st0" d="M1698 479.5c-1.02-14.46-5.96-27.86-11.6-40.96 -4.83-11.21-10.1-22.3-16.04-32.97 -5.05-9.06-11.91-16.77-21.84-21.11 -5.25-2.3-10.27-5.14-15.53-7.43 -9.13-3.97-16.33-10.37-23-17.53 -2.25-2.41-4.49-4.87-7.02-6.97 -3.78-3.13-8.17-1.82-9.36 2.98 -0.87 3.53-0.58 7.34-1.15 10.97 -1.13 7.31-5.09 13.21-9.98 18.49 -13.12 14.16-27.55 26.77-43.97 37.03 -13.21 8.26-21.12 20.52-26 34.99 -2.53 7.49-5 15-7.5 22.5"/>
    	<path class="st0" d="M822 479.5c4-5.67 7.24-12.12 12.16-16.83 9.87-9.45 16.32-21.08 22.74-32.72 6.25-11.32 14.3-21.18 22.58-30.96 7.3-8.63 13.65-17.69 15.13-29.47 0.82-6.52-2.64-15.68-8.1-19.04 -5.14-3.16-10.05-1.15-13.9 1.68 -7.4 5.45-14.64 11.34-20.99 17.96 -9.15 9.53-17.34 19.99-26.16 29.85C816.5 410 809.35 421 805.48 433.99c-2.34 7.87-4.95 15.8-10.59 21.91 -4.46 4.83-9.84 8.83-14.91 13.08 -4.09 3.43-8.32 6.69-12.48 10.02"/>
    	<path class="st0" d="M1 277.5c4.5 2.17 8.94 4.48 13.51 6.47 11.3 4.92 22.73 9.54 33.97 14.57 12.51 5.6 21.78 14.65 28.06 26.93 9.45 18.46 24.2 31.55 42.43 41.07 8.11 4.23 15.48 9.58 20.5 17.47 6 9.44 5.38 19.65 3.03 29.98 -3.26 14.31-10.8 26.69-17.39 39.56 -4.28 8.36-7.45 17.27-11.11 25.94"/>
    	<path class="st0" d="M1338 0.5c-0.33 5.5-0.79 11-0.98 16.5 -0.42 12.18 5.15 21.88 13.54 29.93 12.08 11.59 24.62 22.71 36.93 34.07 6.82 6.3 13.94 12.13 22.5 16.02 14.25 6.48 39.42 2.94 49.38-10.12 2.4-3.15 4.01-7.46 4.48-11.42 1.73-14.56-3.29-27.57-10.33-39.99 -6.27-11.06-11.88-22.41-14.51-34.99"/>
    	<path class="st0" d="M0.5 188c11-0.67 22-1.34 33-2 25.63-1.54 45.93-11.94 57.94-35.53 5.72-11.23 5.2-23.1 2.04-34.97 -3.36-12.63-8.2-24.41-16.88-34.59 -7.42-8.71-16.6-13.57-27.62-14.81C36.54 64.68 24 64.01 11.5 62.99c-3.67-0.3-7.33-0.66-11-0.99"/>
    	<path class="st0" d="M0.5 306c9.17 3.17 18.38 6.2 27.49 9.53C40.68 320.19 50.43 328.84 59 339c9.68 11.49 19.28 23.05 29.04 34.46 2.75 3.21 6.02 5.98 8.95 9.04 12.5 13.05 8.82 22.45 1.9 32.92 -4.43 6.71-9.46 13.15-14.99 18.98 -9.35 9.86-18.59 19.85-30.33 27.21 -7.72 4.85-15.71 8.77-24.6 10.25 -7.05 1.17-13.38-2.36-19.42-5.49 -3.19-1.65-5.73-4.55-8.56-6.88"/>
    	<path class="st0" d="M1484 479.5c3.5-11 7.77-21.83 10.25-33.06 1.85-8.38 4.24-17.05 1.83-25.97 -1.06-3.94-3.17-6.1-7.07-5.41 -10.04 1.79-20.04 3.82-30.01 5.95 -18.38 3.92-34.72 13.18-52.02 19.95 -7.85 3.07-16.02 4.78-24.49 5.05 -6.5 0.21-13.1 0.03-19.48 1.1 -13.16 2.21-20.64 10.89-23.96 23.39 -0.77 2.88-0.73 5.98-1.06 8.98"/>
    	<path class="st0" d="M1 291.5c5.33 2.17 10.68 4.31 16 6.5 14.37 5.92 29.22 11.19 40.41 22.59 5.87 5.98 11.36 12.51 15.97 19.49 8.84 13.39 20.81 23.28 33.63 32.41 5.65 4.02 11.03 8.28 14.51 14.5 6.39 11.4 4.46 22.54-1.04 33.5 -5.55 11.06-11.52 21.91-16.9 33.05 -4.02 8.33-7.4 16.97-11.07 25.47"/>
    	<path class="st0" d="M1663.5 479c4.21-7.82 8.19-15.93 7.39-24.99 -1.92-21.59-14.6-48.03-43.87-52.13 -10.27-1.44-20.25-2.83-30.55 0.01 -9.24 2.55-16.8 7.77-23.92 13.67 -10.26 8.51-21.01 16.57-29.03 27.45 -5.58 7.56-8.85 16.05-9.53 25.48 -0.26 3.67-0.66 7.33-0.99 11"/>
    	<path class="st0" d="M923 0.5c2.17 10.5 3.92 21.11 6.63 31.47 2.22 8.49 8.49 13.89 16.9 15.93 11.24 2.73 22.63 4.81 33.98 7.09 13.1 2.62 25.76-0.32 38.51-2.91 11.59-2.35 23.35-3.89 34.97-6.13 9.72-1.88 16.67-7.47 15.97-19.94 -0.47-8.51-1.3-17-1.96-25.5"/>
    	<path class="st0" d="M0.5 177c15.91-0.43 31.83-1.39 46.96-6.62 14.85-5.13 25.4-15.5 30.41-30.43 5.05-15.04 0.94-29.05-7.41-41.93 -6.64-10.24-17.33-14.4-28.49-16.9C29.09 78.24 16 76.33 3 74.02 2.19 73.88 1.33 74 0.5 74"/>
    	<path class="st0" d="M430 0.5c1.26 13 7.77 22.53 20.05 26.86 15.01 5.29 29.21 12.24 43.43 19.18 10.73 5.24 22.18 4.87 33.51 4.28 6.72-0.35 13.45-2.1 19.99-3.9 13.91-3.83 27.19-9.15 35.94-21.48C588.2 18.02 591.39 9.52 593 0.5"/>
    	<path class="st0" d="M1 428.5c8.88 6.99 17.69 13.86 30 13.6 7.19-0.16 13.06-3.32 17.87-7.73 9.42-8.63 17.44-18.48 23.78-29.78 3.92-6.99 4.56-13.8 1.24-20.53 -8.92-18.08-19.17-35.29-35.38-48.07 -9.61-7.57-20.87-11.2-32.51-13.97 -1.81-0.43-3.66-0.68-5.5-1.01"/>
    	<path class="st0" d="M202.5 479c7.57-7.99 13.66-16.93 16.98-27.51 6.89-21.96-2.5-43.35-24.95-51.57 -4.97-1.82-9.94-2.22-15.02-1.86 -4.67 0.33-8.41 2.97-10.41 6.99 -4.16 8.34-7.99 16.86-11.54 25.47 -5.37 13.01-11.58 25.54-18.99 37.52 -2.1 3.4-3.4 7.29-5.07 10.96"/>
    	<path class="st0" d="M1552.5 1c1.83 4.67 3.57 9.37 5.52 13.99 6.27 14.87 13.22 29.52 23.66 41.86 7.57 8.95 17.64 14.7 29.81 16.22 16.48 2.06 29.66-3.7 39.41-16.65 9.38-12.45 18.7-25.09 24.96-39.49 2.22-5.11 2.81-10.94 4.14-16.44"/>
    	<path class="st0" d="M1375 0.5c-2.99 9.12-5.49 18.25-3.04 28.01 1.87 7.45 5.66 13.86 10.05 19.98 8.07 11.26 16.79 21.97 30.02 27.43 12.08 4.99 25.48 2.9 30.22-10.51 2.6-7.35 1.23-15.56-1.84-22.88 -3.98-9.48-8.67-18.66-12.88-28.05 -2.05-4.57-3.7-9.32-5.54-13.98"/>
    	<path class="st0" d="M1053.5 479.25c-2-0.92-4.01-1.81-6-2.75 -9.17-4.33-18.43-8.47-27.48-13.05 -10.44-5.28-20.65-11.04-31.04-16.42 -6.75-3.5-13.38-7.56-20.55-9.82 -9.9-3.12-20.05-1.64-29.41 2.85 -16.79 8.06-31.44 18.68-40 35.95 -0.53 1.07-0.69 2.32-1.03 3.49"/>
    	<path class="st0" d="M1638 479.5c2.17-4.67 4.11-9.45 6.54-13.98 11.02-20.56-1.31-37.99-17.51-44.59 -11.68-4.76-23.55-6.3-34.95-0.75 -14.49 7.06-25.8 18.05-30.26 33.92 -1.67 5.94 0.17 12.92 0.78 19.4 0.19 2.06 1.57 4.01 2.4 6.01"/>
    	<path class="st0" d="M1147.5 1c8.94 4.72 18.29 4.73 28.02 3.11 7.23-1.2 13.81 0.13 18.05 7.35 2.97 5.05 6.54 9.75 9.94 14.53 12.95 18.18 29.28 18.53 47.48 8.98 13.29-6.98 22-17.94 27.04-31.96 0.27-0.75 0.97-1.34 1.47-2.01"/>
    	<path class="st0" d="M0.5 165c15.23-1.09 30.27-3.25 43.45-11.58 11.76-7.43 20.27-20.75 16.01-36.41 -2.82-10.34-9.78-16.98-19.97-19.97C26.87 93.2 13.67 89.67 0.5 86"/>
    	<path class="st0" d="M450.5 1c8.33 8.2 19.25 10.51 29.96 13.64 8.38 2.45 16.53 5.85 24.51 9.42 19.77 8.85 48.9 1.46 60.5-13.09C568 7.8 570.17 4.33 572.5 1"/>
    	<path class="st0" d="M0.5 397c3.5 2 6.91 4.18 10.52 5.96 4.75 2.34 9.48 5.09 14.54 6.28 3.17 0.74 7.72-0.01 10.31-1.91 14.07-10.36 15.65-26.37 8.05-40.78 -7.88-14.94-20.18-24-37.42-25.56 -2.01-0.18-4-0.65-6-0.98"/>
    	<path class="st0" d="M943 0.5c2.33 17.64 10.04 32.24 31 37.02 15.62 3.56 30.46 1.25 44.47-6.09 10.28-5.38 14.75-14.45 14.54-25.93 -0.03-1.67 0-3.33 0-5"/>
    	<path class="st0" d="M1582.5 1c2.67 4.33 5.55 8.55 7.95 13.03 3.69 6.9 6.81 14.11 10.65 20.92 2.14 3.8 4.89 7.41 7.98 10.47 5.1 5.04 13.89 5.17 18.82-0.02 4.96-5.23 9.64-10.9 13.47-16.98 5.35-8.51 9.8-17.58 14.6-26.43C1656.18 1.6 1656 1 1656 0.5"/>
    	<path class="st0" d="M729 0.5c1 4.5 1.71 9.09 3.06 13.48 3.38 11.06 11.2 17.81 22.46 18.81 13.11 1.17 26.23 0.3 38.51-5.74C804.19 21.56 808.39 12.18 809 0.5"/>
    	<path class="st0" d="M1464 479.5c1.5-6 3.04-11.99 4.49-18 1.84-7.65-2.22-17.71-13.99-17.59 -9.49 0.09-17.86 3.33-25.99 7.61 -12.29 6.47-24.74 12.73-34.49 23 -1.3 1.37-2.35 2.98-3.52 4.48"/>
    	<path class="st0" d="M1017.5 479c-13.83-8.17-27.24-17.2-41.61-24.27 -16.9-8.32-32.67-3.14-46.86 7.81 -6.05 4.67-11.66 9.86-15.03 16.96"/>
    	<path class="st0" d="M253 0.5c1.98 13.25 12.4 17.97 23.07 21.26 8.24 2.54 16.83 4.27 25.96 2.43 13.84-2.79 21.19-9.5 24.46-21.69 0.18-0.66 0.33-1.33 0.5-2"/>
    	<path class="st0" d="M138 0.5c7.04 15.5 19.74 23.69 36.02 25.3C195.2 27.9 208.08 19.69 217 0.5"/>
    	<path class="st0" d="M1308.5 479c-0.5-4-0.71-8.07-1.59-11.98 -0.7-3.1-1.77-6.33-3.51-8.95 -3.28-4.96-10.33-6.55-16.9-4.58 -13.58 4.08-23.67 12.08-29 25.51"/>
    	<path class="st0" d="M1 102.5c3.17 1.5 6.39 2.89 9.49 4.53 4.55 2.4 9.58 4.32 13.39 7.61 7.39 6.39 7.42 16.08-1.37 22.87 -6.53 5.04-14.18 7.46-22 9.49"/>
    	<path class="st0" d="M747 0.5c3.98 11.7 12.61 17.39 24.5 17.35 10.42-0.04 19-4.2 23.05-14.83 0.31-0.8 1.29-1.35 1.95-2.02"/>
    	<path class="st0" d="M990.5 479c-5.67-3-11.1-6.62-17.05-8.87 -13.81-5.23-25.73-1.22-35.95 8.87"/>
    	<path class="st0" d="M965 0.5c0.83 2 1.43 4.14 2.54 5.97 3.72 6.13 9.66 9.64 16.44 9.28 7.9-0.42 14.17-4.72 17.02-12.75 0.3-0.85 0.66-1.67 1-2.5"/>
    	<path class="st0" d="M575 479.5c-4.35-6.42-9.52-11.53-18-11.51 -8.23 0.02-11.79 2.92-14 11.51"/>
    	<path class="st0" d="M25.5 1c-3 5.17-6.12 10.27-8.97 15.52C12.92 23.14 7.02 26.91 0.5 30"/>
    	<path class="st0" d="M305.5 479.25c-3-1.08-5.97-2.25-9.01-3.23 -7.46-2.41-14.36-0.62-21.01 2.95 -0.55 0.3-1.32 0.19-1.98 0.28"/>
    	<path class="st0" d="M1228.5 1c0.67 1.33 1.46 2.62 1.98 4.01 3.16 8.36 9.28 10.05 16 5.46 3.57-2.44 6.69-5.39 7.52-9.97"/>
    	<path class="st0" d="M1727.25 198.5c-0.75 4.67-2.08 9.33-2.08 14 0.01 4.17 1.53 8.33 2.29 12.51 0.14 0.79-0.13 1.66-0.22 2.49"/>
    	<path class="st0" d="M1473.5 1c0.5 0.17 1.12 0.2 1.48 0.52 4.36 3.93 8.48 2.78 12.52-0.52"/>
    	<path class="st0" d="M1117.5 346c-5 1.17-10.23 1.78-14.92 3.69 -3.39 1.38-6.45 4.14-8.98 6.91 -2.74 3-2.06 6.93 0.9 10.41 5.09 5.96 11.86 9.58 19.05 11.84 7.61 2.39 15.58 4.58 23.46 4.83 6.74 0.21 13.95-0.62 20.04-5.1 7.15-5.26 8.67-14.25 2.94-21.05 -6.51-7.72-15.35-10.68-24.99-11.43 -5.63-0.44-11.33-0.08-16.99-0.08"/>
    	<path class="st0" d="M651.5 204c-1.33 0.33-2.66 0.92-4 0.96 -15.75 0.53-25.03 10.29-31.28 23.14 -2.94 6.05-4.78 13.19-4.97 19.9 -0.42 14.8 7.03 36.26 26.21 43.59 12.19 4.66 24.82 7.26 37.56 9.27 9.53 1.5 14.79-4.64 14.79-12.87 -0.01-9.5-1.63-18.99-2.27-28.5 -0.69-10.32-0.96-20.67-1.59-30.99 -0.22-3.68-0.95-7.34-1.46-11 -0.85-6.14-5.05-9.3-10.52-10.39 -7.25-1.44-14.64-2.11-21.98-3.11"/>
    	<path class="st0" d="M1158.5 199c-23.7 6.31-43.37 19.29-60.53 36.47 -2.25 2.25-4.81 4.29-7.5 5.98 -5.83 3.66-10.69 3.08-18.92-2.52 -8.06-5.49-15.45-12-23.62-17.33 -11.2-7.3-23.57-11.98-36.94-13.55 -4.29-0.5-8.84-1.24-12.96-0.4 -13.68 2.81-19.12 8.46-20.9 22.36 -1.35 10.58-2.24 21.34-1.94 31.98 0.36 12.8 7.82 23.23 20.76 28.11 14.15 5.33 28.74 6.83 43.53 5.76 15.3-1.11 28.6-7.68 39.98-17.9 5.78-5.19 12.08-8.9 20-6.85 5.33 1.38 10.42 3.76 15.52 5.91 11.7 4.92 23.1 10.67 35.07 14.82 18.91 6.56 37.59 5.47 54.91-5.4 9.8-6.15 12.73-15.2 11.21-26.46 -1.27-9.41-5.02-17.6-9.76-25.42 -4.6-7.58-9.75-14.83-14.95-22.02 -6.71-9.28-15.58-14.53-27.46-13.55 -1.66 0.14-3.33 0.02-5 0.02"/>
    	<path class="st0" d="M1028.5 358c-2.5 0.67-5.15 1-7.48 2.05 -12.65 5.71-14.72 17.69-12.4 28.92 1.36 6.58 4.89 12.05 10.28 16.64 9.01 7.68 17.93 3.25 22.5-2.69 4.68-6.09 8.04-13.17 8.48-20.93 0.6-10.33-4.5-18.96-15.39-22.48 -1.81-0.58-3.66-1.01-5.5-1.51"/>
    	<path class="st0" d="M309.5 374c-1.5 0.5-2.99 1.05-4.5 1.49 -3.43 1-6.24 2.77-6.96 6.52 -0.81 4.22 0.73 7.94 4.01 10.43 6.7 5.06 18.71 5.41 24.52-1.37 4.64-5.43 3.36-12.65-3.61-14.93 -4.11-1.35-8.63-1.46-12.96-2.12"/>
    	<path class="st0" d="M1393.5 192c-3.17 0.67-6.4 1.12-9.48 2.06 -2.92 0.89-5.82 2.03-8.49 3.48 -8.93 4.84-10.22 11.62-5.97 20.43 3.92 8.12 8.82 15.8 12.31 24.08 4.55 10.77 8.24 21.91 12.1 32.96 3.24 9.27 5.72 18.7 11.4 27.08 6.8 10.04 19.48 15.13 32.68 9.51 15.2-6.47 25.24-20.51 23.82-36.59 -0.67-7.57-2.83-15.02-4.37-22.51 -1.13-5.51-2.01-11.09-3.55-16.49 -6.46-22.64-22.03-36.26-44-42.84 -4.99-1.49-10.62-0.84-15.95-1.17"/>
    	<path class="st0" d="M501.5 263c-14.5 3.97-21.47 15.05-26.51 28 -3.78 9.69-7.54 19.39-11.54 28.98 -2.06 4.95-5.25 9.5-6.72 14.59 -0.91 3.14-0.45 7.36 0.98 10.33 2.04 4.23 7.83 5.79 12.74 3.5 15.96-7.43 32.41-14.34 44-28.44 10.47-12.74 14.38-30.35 7.05-44.96 -4.03-8.03-9.82-13.16-19.5-12"/>
    	<path class="st0" d="M1372.5 175c-4.67 0.67-9.32 1.43-14 1.98 -16.45 1.95-31.94 6.36-43.9 18.61 -3.3 3.38-6.06 7.63-7.95 11.97 -2.98 6.83-0.87 11.05 6.38 13.34 5.69 1.8 11.59 3.03 17.48 4.04 15.59 2.68 26.76 11.21 35.09 24.49 7.29 11.62 9.83 24.73 13.39 37.56 3.06 11.02 7.22 21.43 14.46 30.54 9.89 12.43 23.09 16.04 38.02 11.88 13.38-3.73 25.34-10.5 35.45-19.99 10.03-9.41 14.9-21.83 18.04-34.93 2.63-10.97 5.13-21.97 7.49-33 1.47-6.91 1.01-13.12-5.91-17.57 -10.19-6.54-20.16-13.43-30.01-20.49 -6.06-4.35-11.63-9.37-17.56-13.92 -12.66-9.72-26.84-14.98-42.99-14.55 -7.66 0.2-15.33 0.03-23 0.03"/>
    	<path class="st0" d="M645.5 242c-11.43 2.22-12.03 15.6-5.4 22.4 2.59 2.66 6.41 4.16 10.39 2.57 4.18-1.68 6.14-5.13 6.49-9.47 0.6-7.35-3.69-13.33-10.98-15.5"/>
    	<path class="st0" d="M198.5 122c-8.17 2.17-14.04 7.29-19.07 13.95 -9.26 12.28-18.13 24.78-22.84 39.58 -2.57 8.09-2.66 16.37 0.86 24.49 4.3 9.89 14.42 13.74 25.03 11.43 23.44-5.1 38.05-19.59 42.86-42.98 3.22-15.64-2.38-29.29-12.89-40.93 -3.5-3.88-8.04-5.95-13.46-5.54"/>
    	<path class="st0" d="M1605.5 436c-6.32 1.08-11.51 4.02-14.98 9.51 -3.01 4.76-3.61 9.8-1.02 14.98 2.78 5.55 7.27 8.18 13.49 8.56 8.92 0.54 15.05-3.44 18.97-11.08 4.41-8.61 0.82-17.16-8.48-20.43 -2.38-0.84-4.98-1.05-7.48-1.55"/>
    	<path class="st0" d="M1666 204.5c-6.33 1.83-12.67 3.66-19 5.5 -9.17 2.66-18.38 5.19-27.48 8.06 -4.77 1.5-9.61 3.14-13.96 5.54 -8.87 4.88-10.21 14.9-2.99 23.35 7.13 8.34 16.76 12.65 27.45 13.95 10.71 1.3 21.31 0.43 31.51-3.84 10.93-4.57 17.03-12.67 19.53-24.04 1.41-6.42 0.55-12.46-1.54-18.52 -2.16-6.26-6.25-9.83-13.02-9.99"/>
    	<path class="st0" d="M1041.5 119c-2.33 1.33-5.16 2.22-6.88 4.11 -2.24 2.46-2.32 5.76-0.63 8.89 3.28 6.1 8.58 9.54 15.01 11.48 4.68 1.41 9.61-0.07 12-3.49 2.62-3.77 2.57-9.24-0.53-12.97 -4.76-5.72-10.74-8.97-18.47-8.03"/>
    	<path class="st0" d="M803.5 119c-8.81 3.78-10.26 8.27-3.37 16.39 6.16 7.26 17.55 7.2 21.91 3.15 5.37-5 4.57-10.05-0.54-15.03 -4.95-4.82-11.21-4.76-17.49-4.51"/>
    	<path class="st0" d="M792.5 96c-4.17 1.5-8.51 2.64-12.47 4.56 -15.23 7.41-19.03 25.91-7.95 40.88 11.31 15.28 26.51 23.56 45.92 22.5 12.17-0.66 23.21-4.79 30.35-15.05 6.69-9.62 7.27-25.25-1.84-34.91 -11.55-12.24-26.22-17.03-42.51-17.96 -3.65-0.21-7.33-0.03-11-0.03"/>
    	<path class="st0" d="M577.5 86c-5.67 2.33-11.91 3.81-16.88 7.17 -11.78 7.95-14.01 12.15-10.43 26.78 2.8 11.46 8.65 21.74 18.89 28.43 4.79 3.14 10.22 4.62 16.45 3.82 6.01-0.77 10.02-4.53 11.7-8.81 5.81-14.83 6.83-30.19 0.75-45.38C594.39 89.07 587.62 85.07 578 86"/>
    	<path class="st0" d="M792.5 82c-4.83 1.33-9.75 2.43-14.49 4.04 -19.55 6.65-31.03 25.81-28.89 45.95 1.79 16.92 11.47 28.62 26.34 36.59 9.94 5.33 20.35 8.17 31.52 9.61 11.35 1.47 22.38 0.31 33.53-1.16 8.48-1.12 17.04-1.75 25.48-3.12 5.69-0.93 7.37-3.3 8.01-8.9 0.04-0.33 0-0.67 0.01-1 0.33-14.17 0.7-28.33 0.99-42.5 0.2-9.98-4.22-17.26-12.98-22.01 -14.2-7.7-29.22-13.36-45.04-16.3C809.17 81.75 801 82.33 793 82"/>
    	<path class="st0" d="M1152.5 68c-11.37 2.94-17.23 11.99-22.96 21.02 -5.84 9.22-11.09 18.83-17.12 27.92 -5.26 7.94-11.27 9.62-21.39 4.02 -9.6-5.32-18.81-11.38-28.59-16.33 -7.53-3.81-15.96-6.25-24.41-5.4 -7.11 0.71-14.21 2.93-20.98 5.38 -12.31 4.45-24.41 9.47-36.51 14.46 -2.52 1.04-5.13 2.54-6.94 4.51 -4.95 5.37-2.89 11.54 5.46 15.84 4.43 2.29 9.16 4.28 13.98 5.48 13.54 3.37 25.67 9.92 37.97 16.12 8.38 4.22 17.05 7.46 26.51 7.96 13 0.68 24.25-4.18 35.05-10.89 5.36-3.33 11.09-6.3 17.02-8.38 3.61-1.27 7.96-0.92 11.92-0.63 13.66 1 26.61-2.48 39.48-6.15 11.11-3.17 22.01-3.41 33.03 0.06 11.31 3.57 22.6 7.25 34.01 10.45 10.91 3.06 18.09-0.55 18.72-9.95 0.33-4.9-1.23-10.38-3.4-14.91 -6.25-13.04-16.68-21.74-30.33-26.59 -4.37-1.55-8.62-3.46-13.02-4.95 -6.97-2.37-12.79-6.29-18.07-11.45 -5.48-5.36-11.26-10.56-17.56-14.87 -3-2.05-7.52-1.88-11.36-2.71"/>
    	<path class="st0" d="M694.5 335c-7.04 1.74-12.37 6.33-17.45 11.06 -8.19 7.63-16.48 15.23-23.93 23.55 -7.36 8.22-9.53 18.62-8 29.38 1.46 10.28 11.05 20.74 22.89 22.97 12.67 2.38 19.59-0.79 26.43-12.49 7.34-12.57 15.15-24.66 24.9-35.61 5.45-6.12 7.81-12.9 0.12-22.32 -6.45-7.91-13.48-15.21-24.46-16.53"/>
    	<path class="st0" d="M1155.5 219c-10.16 2.41-19.17 6.52-26.61 14.4 -10.96 11.61-9.55 23.47 2.54 33.18 11.7 9.39 24.77 14.19 39.55 12.28 18.68-2.41 27.61-16.49 18.95-34.83 -3.55-7.51-9.23-13.6-15.48-18.97 -5.2-4.47-11.58-6.22-18.45-6.06"/>
    	<path class="st0" d="M515.5 227c-3.17 0.67-6.45 1.01-9.48 2.05 -17.64 6.09-32.14 16.24-40.42 33.5 -3.45 7.2-5.25 15.2-8.73 22.39 -4.65 9.59-9.79 18.99-15.49 27.99 -5.89 9.31-9.91 19.34-10.15 30.08 -0.35 15.32 7.92 35.19 27.27 39.48 5.62 1.25 11.39 1.18 16.45-1.56 14.5-7.84 28.68-16.36 40.4-28.06 5.5-5.5 10.11-12.16 14-18.94 7-12.19 13.6-24.81 15.42-38.95 0.91-7.01-0.21-14.33-0.85-21.47 -0.71-7.86-1.33-15.81-3.07-23.47 -2.71-11.88-9.04-20.85-22.36-22.54 -0.84-0.11-1.67-0.33-2.5-0.49"/>
    	<path class="st0" d="M1010.5 230c-10.55 2.42-15.04 16.51-12.98 25.5 3.56 15.5 13.84 23.47 29.98 23.52 5.93 0.02 11.91 0.3 16.99-3.53 8.3-6.26 9.33-11.15 4.41-21.44 -5.33-11.16-14.09-19.08-25.95-22.91 -3.72-1.2-7.96-0.8-11.96-1.14"/>
    	<path class="st0" d="M1269.5 305c-4.67 1.43-9.85 1.19-13.58 5.43 -2.53 2.87-3.78 5.8-3.96 9.57 -1.06 22.17 13.31 41.36 34.03 48.05 7.77 2.51 15.27 5.85 23.04 8.38 6.67 2.17 10.24 6.87 12.48 13.07 0.79 2.18 1.71 4.32 2.48 6.51 2.71 7.66 7.11 11.09 15.01 10.95 12.92-0.22 25.1 2.67 37.03 7.48 14.19 5.72 28.57 4.94 42.41-1.06 7.49-3.25 14.5-7.69 21.5-11.97 2.23-1.36 4.12-3.67 5.48-5.95 2.68-4.53 1.5-6.87-3.41-8.47 -6.92-2.26-13.69-0.23-20.51 0.53 -10 1.13-19.99 2.41-30.01 3.45 -5.15 0.54-10.33 1.01-15.5 0.98 -15.78-0.08-30.14-5.52-43.98-12.49 -6.21-3.13-8.51-9.07-10.05-15.45 -2.99-12.43-5.66-24.99-11.51-36.49 -6.54-12.82-16.53-20.81-31.46-21.55 -3.01-0.15-6-0.64-9-0.97"/>
    	<path class="st0" d="M127.5 299c-4 1.33-8.35 2.06-11.94 4.11 -12.19 6.97-13 22.08-1.07 32.4 6.84 5.92 14.91 7.41 23.49 6.36 2.77-0.34 5.55-1.89 7.98-3.43 7.81-4.97 11.52-12.76 12.91-21.46 1.19-7.43-0.79-10.95-9.39-14.45 -6.86-2.79-14.06-3.95-21.49-3.53"/>
    	<path class="st0" d="M430.5 140c-2.67 1.33-5.68 2.24-7.92 4.1 -3.22 2.68-3.46 8.29-1.08 10.9 2.75 3.02 9.3 3.98 12.45 1.44 2.92-2.35 5.62-5.07 5.05-9.44 -0.61-4.72-4.24-5.93-8.01-7"/>
    </g>
</svg>
