<?xml version="1.0" encoding="utf-8"?>
<svg version="1.1" xmlns="http://www.w3.org/2000/svg" xmlns:xlink="http://www.w3.org/1999/xlink" x="0px" y="0px"
	 viewBox="0 0 80 92.38" xml:space="preserve">
<g>
	<polygon points="67.11,11.76 67.11,9.66 80,9.66 80,11.76 67.11,11.76 	"/>
	<polygon points="24.46,23.31 24.46,0 32.02,0 32.02,3.36 28.06,3.36 28.06,9.73 30.69,9.73 30.69,12.91 28.06,12.91 28.06,19.84 
		32.02,19.84 32.02,23.31 24.46,23.31 	"/>
	<polygon points="54.43,23.31 50.48,11.52 49.36,7.77 49.36,23.31 46.98,23.31 46.98,0 49.25,0 52.86,11.97 53.91,15.75 53.91,0 
		56.29,0 56.29,23.31 54.43,23.31 	"/>
	<polygon points="26.24,58.19 26.24,34.88 29.85,34.88 29.85,58.19 26.24,58.19 	"/>
	<path d="M6.96,92.03l-0.38-1.23c-0.49,1.05-1.51,1.58-2.56,1.58C1.57,92.38,0,90.6,0,87.8V72.96c0-2.52,1.92-4.58,4.52-4.58
		s4.37,2.07,4.37,4.58v4.31H5.53v-4.45c0-0.56-0.32-0.95-0.95-0.95c-0.6,0-0.98,0.39-0.98,0.95v15.29c0,0.59,0.38,1.02,0.98,1.02
		c0.63,0,0.98-0.42,0.98-1.01v-4.76H4.65v-2.8h4.41v11.48H6.96L6.96,92.03z"/>
	<polygon points="29.61,92.03 26.99,81.5 26.19,78.32 26.19,92.03 23.1,92.03 23.1,68.73 26.53,68.73 28.85,79.19 29.54,82.44 
		29.54,68.73 32.59,68.73 32.59,92.03 29.61,92.03 	"/>
	<polygon points="52.93,37.24 52.93,58.17 50.44,58.17 50.44,37.24 47.33,37.24 47.33,34.86 55.94,34.86 55.94,37.24 52.93,37.24 	
		"/>
	<polygon points="74.73,48.97 74.73,58.17 72.21,58.17 72.21,48.97 68.6,34.86 71.13,34.86 73.61,45.71 76.09,34.86 78.51,34.86 
		74.73,48.97 	"/>
	<polygon points="45.19,81.26 45.19,78.52 58.08,78.52 58.08,81.26 45.19,81.26 	"/>
	<polygon points="53,86.33 50.26,86.33 50.26,73.45 53,73.45 53,86.33 	"/>
	<path d="M3.63,19.91c2.41,0,2.57-0.6,2.54-8.25C6.2,4.03,6.05,3.43,3.63,3.43V19.91L3.63,19.91z M2.9,23.34H0.2V0h2.7
		c6.35,0.03,6.83,2.54,6.83,11.68C9.73,20.8,9.25,23.31,2.9,23.34L2.9,23.34z"/>
	<path d="M5.93,45.27c-1.47-2.59-2.27-3.54-2.27-6.23c0-0.81,0.49-1.19,1.08-1.19c0.56,0,0.98,0.42,0.98,1.19v1.77l3.11-0.29v-1.13
		c0-3.08-1.64-4.87-4.09-4.87c-3.15,0-4.65,2.35-4.65,5.25c0,2.69,1.85,5.92,3.22,8.09c1.36,2.34,2.2,3.99,2.2,6.09
		c0,0.88-0.38,1.4-1.15,1.4c-0.81,0-1.19-0.56-1.19-1.4v-1.88l-3.15,0.3v1.31c0,3.11,1.71,4.86,4.51,4.86
		c2.27,0,4.48-1.51,4.48-5.15C9.01,50.66,7.47,47.9,5.93,45.27L5.93,45.27z"/>
</g>
</svg>
