<?xml version="1.0" encoding="utf-8"?>
<!-- Generator: Adobe Illustrator 22.1.0, SVG Export Plug-In . SVG Version: 6.00 Build 0)  -->
<svg version="1.1" id="Livello_1" xmlns="http://www.w3.org/2000/svg" xmlns:xlink="http://www.w3.org/1999/xlink" x="0px" y="0px"
	 viewBox="0 0 1400 1161.4" style="enable-background:new 0 0 1400 1161.4;" xml:space="preserve">
<style type="text/css">
	.st0{display:none;fill:#0C1D26;}
	.st1{fill:none;stroke:#F6F6F6;stroke-width:0.5;stroke-miterlimit:10;stroke-dasharray:4;}
	.st2{fill:#E39778;}
	.st3{fill:#F6F6F6;}
	.st4{font-family:'Raleway-Regular';}
	.st5{font-size:13.069px;}
	.st6{fill:#829CBA;}
	.st7{fill:#0C1D26;stroke:#F6F6F6;stroke-miterlimit:10;}
	.st8{fill:#0C1D26;stroke:#F6F6F6;stroke-width:3;stroke-miterlimit:10;}
	.st9{font-size:14px;}
	.st10{font-family:'Raleway-Bold';}
	.st11{font-size:36px;}
	.st12{opacity:0.6;fill:#F6F6F6;enable-background:new    ;}
	.st13{font-size:18px;}
	.st14{font-family:'Kanit-Regular';}
	.st15{font-size:24px;}
</style>
<rect x="0.2" y="-278.2" class="st0" width="1399.8" height="1439.6"/>
<g>
	<g id="leg-companies">
		<rect id="leg-borders" x="611.4" y="78.6" class="st1" width="180.1" height="99.4"/>
		<rect id="spacex" x="631.4" y="107.2" class="st2" width="140" height="15"/>
		<text id="spacex_1_" transform="matrix(1.0276 0 0 1 631.4033 101.3105)" class="st3 st4 st5">SpaceX</text>
		<rect id="blueorigin" x="631.4" y="149" class="st6" width="140" height="15"/>
		<text id="blueorigin_1_" transform="matrix(1.0276 0 0 1 631.7773 143.1211)" class="st3 st4 st5">Blue Origin</text>
	</g>
	<g id="leg-visual-contents">
		<rect id="leg-foto" x="99.7" y="78.6" class="st7" width="153.7" height="50"/>
		<rect id="leg-foto-sel" x="103.8" y="82.5" class="st8" width="145.4" height="42.1"/>
		<text id="leg-foto_1_" transform="matrix(1 0 0 1 154.0002 108.2497)" class="st3 st4 st9">photos</text>
		<rect id="leg-render_1_" x="253.5" y="78.6" class="st7" width="154.7" height="50"/>
		<rect id="leg-render-sel" x="258.1" y="82.5" class="st8" width="145.4" height="42.1"/>
		<text id="leg-render" transform="matrix(1 0 0 1 306.6998 108.2499)" class="st3 st4 st9">renders</text>
		<rect id="leg-technical-drawing" x="408.2" y="78.6" class="st7" width="153.7" height="50"/>
		<rect id="leg-technical-drawing-sel" x="412.4" y="82.5" class="st8" width="145.4" height="42.1"/>
		<text id="leg-technical-drawing_1_" transform="matrix(1 0 0 1 424.6 108.25)" class="st3 st4 st9">technical drawings</text>
		<rect id="leg-footage" x="177.6" y="128.6" class="st7" width="153.7" height="50"/>
		<rect id="leg-footage-sel" x="181.8" y="132.5" class="st8" width="145.4" height="42.1"/>
		<text id="leg-footage_1_" transform="matrix(1 0 0 1 209.5178 156.5499)" class="st3 st4 st9">video footage</text>
		<rect id="leg-concept" x="331.3" y="128.6" class="st7" width="153.7" height="50"/>
		<rect id="leg-concept-sel" x="335.5" y="132.5" class="st8" width="145.7" height="42.1"/>
		<text id="leg-concept_1_" transform="matrix(1 0 0 1 359.5152 156.5499)" class="st3 st4 st9">concept videos</text>
		<text transform="matrix(1 0 0 1 113.124 56.1001)" class="st3 st10 st11">Visual contents typology </text>
	</g>
	<g id="leg-text-contents">
		<text transform="matrix(1 0 0 1 868.7001 56.2496)" class="st3 st10 st11">Text contents typology </text>
		<rect id="leg-desc" x="841" y="78.6" class="st7" width="153.7" height="50"/>
		<rect id="leg-desc-sel" x="845.1" y="82.5" class="st8" width="145.4" height="42.1"/>
		<text id="leg-desc_1_" transform="matrix(1 0 0 1 882.6473 108.2499)" class="st3 st4 st9">description</text>
		<rect id="leg-cta" x="994.8" y="78.6" class="st7" width="154.7" height="50"/>
		<rect id="leg-cta_2_" x="999.4" y="82.5" class="st8" width="145.4" height="42.1"/>
		<text id="leg-cta_1_" transform="matrix(1 0 0 1 1031.016 108.25)" class="st3 st4 st9">call to action</text>
		<rect id="leg-tech-data_1_" x="1149.5" y="78.6" class="st7" width="153.7" height="50"/>
		<rect id="leg-tech-data-sel" x="1153.7" y="82.5" class="st8" width="145.4" height="42.1"/>
		<text id="leg-tech-data" transform="matrix(1 0 0 1 1181.0342 108.25)" class="st3 st4 st9">technical data</text>
	</g>
	<g id="treemap-visual-content">
		<text transform="matrix(1 0 0 1 55.7653 536.2974)" class="st12 st10 st13">/career</text>
		<path id="career" class="st3" d="M50.2,539.5v346.8H72V539.5H50.2z M66.4,881H55.9V770.3h10.5V881z M66.4,768.6H55.9V657.3h10.5
			V768.6z M66.4,656.7H55.9V545.4h10.5V656.7z"/>
		<g id="career_1_">
			<rect id="foto_3_" x="55.9" y="545.4" class="st6" width="10.5" height="111.3"/>
			<rect id="foto_4_" x="55.9" y="657.3" class="st2" width="10.5" height="111.3"/>
			<rect id="render_3_" x="55.9" y="770.3" class="st2" width="10.5" height="110.7"/>
		</g>
		<text transform="matrix(1 0 0 1 149.0004 535.6974)" class="st12 st10 st13">/media</text>
		<path id="media" class="st3" d="M143.4,538.9v347.4H621V538.9H143.4z M206.4,880.4H149V568.9h57.4V880.4z M588.3,880.4H207V568.9
			h381.3V880.4z M588.3,567.1H149v-22.3h439.3V567.1z M615.3,880.4h-25.2V769.7h25.2V880.4z M615.3,767.9h-25.2V544.8h25.2V767.9z"
			/>
		<g id="media_1_">
			<rect id="render_4_" x="149" y="544.8" class="st6" width="439.3" height="22.3"/>
			<rect id="foto_5_" x="207" y="568.9" class="st6" width="381.3" height="311.5"/>
			<rect id="foto_6_" x="149" y="568.9" class="st2" width="57.4" height="311.5"/>
			<rect id="footage_3_" x="590.1" y="544.8" class="st6" width="25.2" height="223.1"/>
			<rect id="concept_3_" x="590.1" y="769.7" class="st6" width="25.2" height="110.7"/>
		</g>
		<text transform="matrix(1 0 0 1 327.6653 955.1259)" class="st12 st10 st13">/updates</text>
		<path id="updates" class="st3" d="M322.1,958.1v153.6h155.1V958.1H322.1z M461.2,1106.2H327.7V963.7h133.5V1106.2z M471.6,1106.2
			H463V963.7h8.6V1106.2z"/>
		<g id="updates_1_">
			<rect id="foto_7_" x="327.7" y="963.7" class="st2" width="133.5" height="142.5"/>
			<rect id="render_5_" x="463" y="963.7" class="st2" width="8.6" height="142.5"/>
		</g>
		<text transform="matrix(1 0 0 1 55.8119 954.552)" class="st12 st10 st13">/about</text>
		<path id="about" class="st3" d="M50.2,957.4v153.7h239.1V957.4H50.2z M231.5,1105.5H55.8V963h175.7V1105.5z M257.6,1105.6h-24.3
			v-55.9h24.3V1105.6z M283.7,1105.6h-24.3v-55.9h24.3V1105.6z M283.7,1047.8h-50.4V963h50.4V1047.8z"/>
		<g id="about_1_">
			<rect id="foto_8_" x="55.8" y="963" class="st2" width="175.7" height="142.5"/>
			<rect id="technical-drawing_2_" x="233.3" y="963" class="st2" width="50.4" height="84.8"/>
			<rect id="ripresa" x="233.3" y="1049.7" class="st2" width="24.3" height="55.9"/>
			<rect id="concept_4_" x="259.4" y="1049.7" class="st2" width="24.3" height="55.9"/>
		</g>
		<text transform="matrix(1 0 0 1 513.2443 955.1264)" class="st12 st10 st13">/shop</text>
		<path id="shop" class="st3" d="M507.6,958v153.7h113V958H507.6z M615.1,1106.2H513.2V963.7h101.9V1106.2z"/>
		<g id="shop_1_">
			<rect id="foto_9_" x="513.2" y="963.7" class="st2" width="101.9" height="142.5"/>
		</g>
		<text transform="matrix(1 0 0 1 231.7523 214.5105)" class="st12 st10 st13">/products</text>
		<path id="products_1_" class="st3" d="M226.2,217.3v248.6H621V217.3H226.2z M439.8,222.9h100v177.6h-100V222.9z M376.8,271.3h20.1
			v70h-20.1V271.3z M375.6,460.5H231.8V347.2h143.8V460.5z M375.6,346.5H231.8V222.9h143.8V346.5z M438.3,460.3h-61.5V342.2h61.5
			V460.3z M397.5,341.3v-70h40.8v70H397.5z M438.3,269.8h-61.5v-46.9h61.5V269.8z M615.4,460.4H439.8v-58h175.6V460.4z M615.4,400.5
			h-74.9V222.9h74.9V400.5z"/>
		<g id="products">
			<rect id="concept_2_" x="397.5" y="271.3" class="st6" width="40.8" height="70"/>
			<rect id="concept_1_" x="376.8" y="271.3" class="st2" width="20.1" height="70"/>
			<rect id="footage_2_" x="376.8" y="342.2" class="st6" width="61.5" height="118.1"/>
			<rect id="footage_1_" x="376.8" y="222.9" class="st2" width="61.5" height="46.9"/>
			<rect id="technical-drawing_1_" x="540.5" y="222.9" class="st6" width="74.9" height="177.6"/>
			<rect id="technical-drawing" x="439.8" y="222.9" class="st2" width="100" height="177.6"/>
			<rect id="render_2_" x="439.8" y="402.4" class="st6" width="175.6" height="58"/>
			<rect id="foto_2_" x="231.8" y="347.2" class="st6" width="143.8" height="113.3"/>
			<rect id="foto_1_" x="231.8" y="222.9" class="st2" width="143.8" height="123.6"/>
		</g>
		<text transform="matrix(1 0 0 1 56.0912 214.5105)" class="st12 st10 st13">/homepage</text>
		<path id="homepage" class="st3" d="M50.2,217.3v248.6H154V217.3H50.2z M56.1,286.6H135v36.2H56.1V286.6z M56.1,323.5H135v73H56.1
			V323.5z M148.4,460.3H56.1v-62h92.3V460.3z M136.7,396.5V286.6h11.6v109.9H136.7z M148.4,284.8H56.1v-62h92.3V284.8z"/>
		<g id="homepage_1_" transform="translate(3,293.3423580786026)">
			<rect id="concept" x="133.7" y="-6.7" class="st6" width="11.6" height="109.9"/>
			<rect id="footage" x="53.1" y="105" class="st6" width="92.3" height="62"/>
			<rect id="render_1_" x="53.1" y="30.2" class="st6" width="78.9" height="73"/>
			<rect id="render" x="53.1" y="-6.7" class="st2" width="78.9" height="36.2"/>
			<rect id="foto" x="53.1" y="-70.5" class="st2" width="92.3" height="62"/>
		</g>
	</g>
	<g id="treemap-text">
		<text transform="matrix(1 0 0 1 787.1171 214.2413)" class="st12 st10 st13">/homepage</text>
		<path id="homepage_2_" class="st3" d="M781.5,217v454.3h51V217H781.5z M827,665.7h-39.9v-56.6H827V665.7z M827,607.9h-39.9v-3.1
			H827V607.9z M827,603.4h-39.9V222.6H827V603.4z"/>
		<g id="homepage_3_">
			<rect id="descrizione" x="787.1" y="222.6" class="st6" width="39.9" height="380.8"/>
			<rect id="descrizione_1_" x="787.1" y="609.1" class="st2" width="39.9" height="56.6"/>
			<rect id="cta" x="787.1" y="604.8" class="st6" width="39.9" height="3.1"/>
		</g>
		<text transform="matrix(1 0 0 1 953.3217 214.2412)" class="st12 st10 st13">/products</text>
		<path id="products_2_" class="st3" d="M866.7,217v454.3h482.4V217H866.7z M1197.3,222.6h146.3v152.2h-146.3V222.6z M878.1,222.6
			h318.7v152.2H878.1V222.6z M877,665.7h-4.7v-55.2h4.7V665.7z M877,609.9h-4.7V222.6h4.7V609.9z M1026,665.7H878.1V376.8H1026
			V665.7z M1344.6,665.7h-317.2V376.8h317.2L1344.6,665.7L1344.6,665.7z"/>
		<g id="products_3_">
			<rect id="descrizione_2_" x="1197.3" y="222.6" class="st6" width="146.3" height="152.2"/>
			<rect id="descrizione_3_" x="878.1" y="222.6" class="st2" width="318.7" height="152.2"/>
			<rect id="tech-data" x="1027.4" y="376.8" class="st6" width="317.2" height="288.9"/>
			<rect id="tech-data_1_" x="878.1" y="376.8" class="st2" width="147.9" height="288.9"/>
			<rect id="cta_1_" x="872.3" y="222.6" class="st6" width="4.7" height="387.3"/>
			<rect id="cta_2_" x="872.3" y="610.5" class="st2" width="4.7" height="55.2"/>
		</g>
		<text transform="matrix(1 0 0 1 787.1167 715.9238)" class="st12 st10 st13">/about</text>
		<path id="about_2_" class="st3" d="M781.5,718.7v173h363.2v-173H781.5z M1119,886.3H787.1v-162H1119V886.3z M1134.2,886.3h-13.3
			v-162h13.3V886.3z M1139.2,886.3h-4v-162h4V886.3z"/>
		<g id="about_3_">
			<rect id="cta_6_" x="1135.2" y="724.3" class="st6" width="4" height="162"/>
			<rect id="decrizione" x="787.1" y="724.3" class="st2" width="331.9" height="162"/>
			<rect id="tech-data_2_" x="1120.9" y="724.3" class="st2" width="13.3" height="162"/>
		</g>
		<text transform="matrix(1 0 0 1 1184.5212 715.7117)" class="st12 st10 st13">/media</text>
		<path id="media_2_" class="st3" d="M1178.9,718.5V761h170.2v-42.5H1178.9z M1332.4,755.4h-147.9v-31.1h147.9V755.4z M1343.6,755.4
			h-9.2v-31.1h9.2V755.4z"/>
		<g id="media_3_">
			<rect id="descrizione_6_" x="1184.5" y="724.3" class="st6" width="147.9" height="31.1"/>
			<rect id="cta_5_" x="1334.4" y="724.3" class="st6" width="9.2" height="31.1"/>
		</g>
		<text transform="matrix(1 0 0 1 1185.0383 803.4118)" class="st12 st10 st13">/career</text>
		<path id="career_2_" class="st3" d="M1179.8,806v305.3H1350V806H1179.8z M1184.5,811.4h159.1v192.9h-159.1V811.4z M1184.5,1005
			H1315v4.9h-130.5V1005z M1343.6,1105.5h-159.1v-94.1h159.1V1105.5z M1343.6,1009.9h-27.9v-4.9h27.9V1009.9z"/>
		<g id="career_3_">
			<rect id="descrizione_4_" x="1184.5" y="811.4" class="st6" width="159.1" height="192.9"/>
			<rect id="descrizione_5_" x="1184.5" y="1011.4" class="st2" width="159.1" height="94.1"/>
			<rect id="cta_3_" x="1184.5" y="1005" class="st6" width="130.5" height="4.9"/>
			<rect id="cta_4_" x="1315.7" y="1005" class="st2" width="27.9" height="4.9"/>
		</g>
		<text transform="matrix(1 0 0 1 787.1167 933.2733)" class="st12 st10 st13">/updates</text>
		<path id="updates_2_" class="st3" d="M781.5,936.3v175.1h363.3V936.3H781.5z M1139.2,1105.5H787V941.9h352.2V1105.5z"/>
		<g id="updates_3_">
			<rect id="descrizione_7_" x="787" y="941.9" class="st2" width="352.2" height="163.6"/>
			<rect id="cta_7_" x="1140.6" y="941.9" class="st2" width="0" height="163.6"/>
		</g>
	</g>
</g>
<g>
	<g>
		<path class="st2" d="M456.6,956.2c-8.3,0-15-6.7-15-15s6.7-15,15-15s15,6.7,15,15S464.9,956.2,456.6,956.2z M456.6,930
			c-6.2,0-11.2,5-11.2,11.2s5,11.2,11.2,11.2s11.2-5,11.2-11.2S462.8,930,456.6,930z"/>
	</g>
	<g>
		<path class="st2" d="M455.6,944.3c0-0.5,0.1-0.9,0.3-1.2c0.2-0.4,0.4-0.7,0.7-0.9s0.6-0.6,1.1-0.9c0.5-0.4,0.8-0.7,1.1-1
			s0.4-0.7,0.4-1.1c0-0.7-0.2-1.1-0.6-1.4c-0.4-0.3-1.1-0.4-2-0.4c-0.5,0-1,0.1-1.5,0.2c-0.5,0.1-1,0.3-1.4,0.5v-1.7
			c0.4-0.2,0.9-0.4,1.5-0.5c0.6-0.1,1.2-0.2,1.9-0.2c1.3,0,2.3,0.3,3.1,0.9c0.7,0.6,1.1,1.4,1.1,2.5c0,0.6-0.1,1.2-0.4,1.6
			c-0.3,0.4-0.7,0.9-1.4,1.4c-0.1,0.1-0.3,0.3-0.7,0.6c-0.4,0.3-0.6,0.6-0.8,0.9c-0.1,0.3-0.2,0.6-0.2,1v0.3h-2V944.3z M455.5,946.2
			h2.1v1.5h-2.1V946.2z"/>
	</g>
</g>
<g>
	<g>
		<path class="st2" d="M600.3,956.2c-8.3,0-15-6.7-15-15s6.7-15,15-15s15,6.7,15,15S608.6,956.2,600.3,956.2z M600.3,930
			c-6.2,0-11.2,5-11.2,11.2s5,11.2,11.2,11.2s11.2-5,11.2-11.2S606.5,930,600.3,930z"/>
	</g>
	<g>
		<path class="st2" d="M599.3,944.3c0-0.5,0.1-0.9,0.3-1.2c0.2-0.4,0.4-0.7,0.7-0.9s0.6-0.6,1.1-0.9c0.5-0.4,0.8-0.7,1.1-1
			s0.4-0.7,0.4-1.1c0-0.7-0.2-1.1-0.6-1.4c-0.4-0.3-1.1-0.4-2-0.4c-0.5,0-1,0.1-1.5,0.2c-0.5,0.1-1,0.3-1.4,0.5v-1.7
			c0.4-0.2,0.9-0.4,1.5-0.5c0.6-0.1,1.2-0.2,1.9-0.2c1.3,0,2.3,0.3,3.1,0.9c0.7,0.6,1.1,1.4,1.1,2.5c0,0.6-0.1,1.2-0.4,1.6
			c-0.3,0.4-0.7,0.9-1.4,1.4c-0.1,0.1-0.3,0.3-0.7,0.6c-0.4,0.3-0.6,0.6-0.8,0.9c-0.1,0.3-0.2,0.6-0.2,1v0.3h-2V944.3z M599.2,946.2
			h2.1v1.5h-2.1V946.2z"/>
	</g>
</g>
<g>
	<g>
		<path class="st2" d="M1121.9,933.3c-8.3,0-15-6.7-15-15s6.7-15,15-15s15,6.7,15,15S1130.2,933.3,1121.9,933.3z M1121.9,907
			c-6.2,0-11.2,5-11.2,11.2s5,11.2,11.2,11.2s11.2-5,11.2-11.2S1128.1,907,1121.9,907z"/>
	</g>
	<g>
		<path class="st2" d="M1120.9,921.4c0-0.5,0.1-0.9,0.3-1.2c0.2-0.4,0.4-0.7,0.7-0.9s0.6-0.6,1.1-0.9c0.5-0.4,0.8-0.7,1.1-1
			s0.4-0.7,0.4-1.1c0-0.7-0.2-1.1-0.6-1.4c-0.4-0.3-1.1-0.4-2-0.4c-0.5,0-1,0.1-1.5,0.2c-0.5,0.1-1,0.3-1.4,0.5v-1.7
			c0.4-0.2,0.9-0.4,1.5-0.5c0.6-0.1,1.2-0.2,1.9-0.2c1.3,0,2.3,0.3,3.1,0.9c0.7,0.6,1.1,1.4,1.1,2.5c0,0.6-0.1,1.2-0.4,1.6
			c-0.3,0.4-0.7,0.9-1.4,1.4c-0.1,0.1-0.3,0.3-0.7,0.6c-0.4,0.3-0.6,0.6-0.8,0.9c-0.1,0.3-0.2,0.6-0.2,1v0.3h-2V921.4z
			 M1120.8,923.3h2.1v1.5h-2.1V923.3z"/>
	</g>
</g>
<g id="tooltip-1">
	<polygon id="tooltip_1_" class="st7" points="480.3,974.7 480.3,1050.8 212.8,1050.8 212.8,974.7 448.4,974.7 457,960 465.5,974.7 
			"/>
	<text id="tooltip" transform="matrix(1 0 0 1 217.3096 1004.6076)"><tspan x="0" y="0" class="st3 st14 st15">Section only available </tspan><tspan x="23.3" y="28.8" class="st3 st14 st15">on SpaceX website</tspan></text>
</g>
<g id="tooltip-2">
	<polygon id="tooltip_3_" class="st7" points="623.9,973.9 623.9,1050 356.4,1050 356.4,973.9 592.1,973.9 600.6,959.2 609.1,973.9 
			"/>
	<text id="tooltip_2_" transform="matrix(1 0 0 1 360.9584 1003.8121)"><tspan x="0" y="0" class="st3 st14 st15">Section only available </tspan><tspan x="23.3" y="28.8" class="st3 st14 st15">on SpaceX website</tspan></text>
</g>
<g id="tooltip-3">
	<polygon id="tooltip_5_" class="st7" points="1145.6,951.1 1145.6,1027.2 878.1,1027.2 878.1,951.1 1113.8,951.1 1122.3,936.3 
		1130.8,951.1 	"/>
	<text id="tooltip_4_" transform="matrix(1 0 0 1 882.6555 980.9445)"><tspan x="0" y="0" class="st3 st14 st15">Section only available </tspan><tspan x="23.3" y="28.8" class="st3 st14 st15">on SpaceX website</tspan></text>
</g>
</svg>
