<?xml version="1.0" encoding="utf-8"?>
<!-- Generator: Adobe Illustrator 22.1.0, SVG Export Plug-In . SVG Version: 6.00 Build 0)  -->
<svg version="1.1" xmlns="http://www.w3.org/2000/svg" xmlns:xlink="http://www.w3.org/1999/xlink" x="0px" y="0px"
	 viewBox="0 0 1025 1071" style="enable-background:new 0 0 1025 1071;" xml:space="preserve">
<style type="text/css">
	.st0{fill:#F2CAC1;}
	.st1{fill:none;}
	.st2{fill:#F8F7EC;}
	.st3{font-family:'RobotoMono-Bold';}
	.st4{font-size:85px;}
	.st5{font-family:'RobotoMono-Italic';}
	.st6{font-family:'RobotoMono-Regular';}
	.st7{font-size:24px;}
	.st8{font-size:12px;}
	.st9{fill:#F65959;}
</style>
<symbol  id="quadratino" viewBox="-2.1 -2.1 4.2 4.2">
	
		<rect x="-2.1" y="-2.1" transform="matrix(-1 -1.224647e-16 1.224647e-16 -1 1.113810e-28 -1.818989e-12)" class="st0" width="4.2" height="4.2"/>
</symbol>
<g id="Livello_3">
	<rect y="245" class="st1" width="1023" height="127"/>
	<text transform="matrix(1 0 0 1 259.7998 317.7402)"><tspan x="0" y="0" class="st2 st3 st4">data</tspan><tspan x="204" y="0" class="st2 st5 st4">future</tspan></text>
	<rect y="341.7" class="st1" width="1023" height="135.3"/>
	<text transform="matrix(1 0 0 1 302.6602 362.2744)"><tspan x="0" y="0" class="st2 st6 st7">are people really ready for a</tspan><tspan x="7.2" y="28.8" class="st2 st6 st7">world built on data trading?</tspan></text>
	<text transform="matrix(1 0 0 1 680 1019)"><tspan x="0" y="0" class="st2 st6 st8">xxx people</tspan><tspan x="0" y="14.4" class="st2 st6 st8">online</tspan></text>
	<rect x="658" y="1009" class="st9" width="12" height="12"/>
	<text transform="matrix(1 0 0 1 799 1019)"><tspan x="0" y="0" class="st2 st6 st8">xxx data updated</tspan><tspan x="0" y="14.4" class="st2 st6 st8">online per minute</tspan></text>
	<rect x="776" y="1009" class="st2" width="12" height="12"/>
	<rect x="658" y="1009" class="st9" width="12" height="12"/>
	<rect x="776" y="1009" class="st2" width="12" height="12"/>
	<rect x="658" y="1009" class="st9" width="12" height="12"/>
	<rect x="776" y="1009" class="st2" width="12" height="12"/>
	<rect x="658" y="1009" class="st9" width="12" height="12"/>
	<rect x="776" y="1009" class="st2" width="12" height="12"/>
</g>
<g id="Livello_1">
	<g>
		
			<rect x="162.7" y="279.9" transform="matrix(-1 -1.224647e-16 1.224647e-16 -1 329.5732 563.9417)" class="st2" width="4.2" height="4.2"/>
	</g>
	<g>
		
			<rect x="113.5" y="293.4" transform="matrix(-1 -1.224647e-16 1.224647e-16 -1 231.1812 591.0184)" class="st2" width="4.2" height="4.2"/>
	</g>
	<g>
		
			<rect x="161.5" y="195.2" transform="matrix(-1 -1.224647e-16 1.224647e-16 -1 327.1367 394.7117)" class="st2" width="4.2" height="4.2"/>
	</g>
	<g>
		
			<rect x="311.8" y="190.9" transform="matrix(-1 -1.224647e-16 1.224647e-16 -1 627.813 386.0929)" class="st2" width="4.2" height="4.2"/>
	</g>
	<g>
		
			<rect x="482.1" y="174.1" transform="matrix(-1 -1.224647e-16 1.224647e-16 -1 968.3986 352.5137)" class="st2" width="4.2" height="4.2"/>
	</g>
	<g>
		
			<rect x="351" y="135.7" transform="matrix(-1 -1.224647e-16 1.224647e-16 -1 706.1488 275.5733)" class="st2" width="4.2" height="4.2"/>
	</g>
	<g>
		
			<rect x="260.3" y="169.9" transform="matrix(-1 -1.224647e-16 1.224647e-16 -1 524.8524 343.9322)" class="st2" width="4.2" height="4.2"/>
	</g>
	<g>
		
			<rect x="345" y="169.7" transform="matrix(-1 -1.224647e-16 1.224647e-16 -1 694.3057 343.626)" class="st2" width="4.2" height="4.2"/>
	</g>
	<g>
		
			<rect x="725.1" y="50.8" transform="matrix(-1 -1.224647e-16 1.224647e-16 -1 1454.3635 105.7899)" class="st2" width="4.2" height="4.2"/>
	</g>
	<g>
		
			<rect x="605.8" y="127.8" transform="matrix(-1 -1.224647e-16 1.224647e-16 -1 1215.7655 259.8658)" class="st2" width="4.2" height="4.2"/>
	</g>
	<g>
		
			<rect x="668.1" y="75.6" transform="matrix(-1 -1.224647e-16 1.224647e-16 -1 1340.4739 155.4353)" class="st2" width="4.2" height="4.2"/>
	</g>
	<g>
		
			<rect x="606.1" y="161.7" transform="matrix(-1 -1.224647e-16 1.224647e-16 -1 1216.3833 327.65)" class="st2" width="4.2" height="4.2"/>
	</g>
	<g>
		
			<rect x="825.8" y="76.8" transform="matrix(-1 -1.224647e-16 1.224647e-16 -1 1655.7792 157.8904)" class="st2" width="4.2" height="4.2"/>
	</g>
	<g>
		
			<rect x="760.2" y="173.6" transform="matrix(-1 -1.224647e-16 1.224647e-16 -1 1524.6379 351.3734)" class="st2" width="4.2" height="4.2"/>
	</g>
	<g>
		
			<rect x="619.2" y="97.8" transform="matrix(-1 -1.224647e-16 1.224647e-16 -1 1242.6442 199.7405)" class="st2" width="4.2" height="4.2"/>
	</g>
	<g>
		
			<rect x="446" y="86.7" transform="matrix(-1 -1.224647e-16 1.224647e-16 -1 896.1682 177.6255)" class="st2" width="4.2" height="4.2"/>
	</g>
	<g>
		
			<rect x="854.5" y="101.6" transform="matrix(-1 -1.224647e-16 1.224647e-16 -1 1713.2311 207.4402)" class="st2" width="4.2" height="4.2"/>
	</g>
	<g>
		
			<rect x="922.4" y="120.8" transform="matrix(-1 -1.224647e-16 1.224647e-16 -1 1848.9474 245.8697)" class="st2" width="4.2" height="4.2"/>
	</g>
	<g>
		
			<rect x="824.3" y="138.9" transform="matrix(-1 -1.224647e-16 1.224647e-16 -1 1652.7692 282.0424)" class="st2" width="4.2" height="4.2"/>
	</g>
	<g>
		
			<rect x="302.9" y="64.5" transform="matrix(-1 -1.224647e-16 1.224647e-16 -1 610.0709 133.272)" class="st2" width="4.2" height="4.2"/>
	</g>
	<g>
		
			<rect x="164.4" y="147" transform="matrix(-1 -1.224647e-16 1.224647e-16 -1 333.1103 298.2104)" class="st2" width="4.2" height="4.2"/>
	</g>
	<g>
		
			<rect x="552.1" y="139.7" transform="matrix(-1 -1.224647e-16 1.224647e-16 -1 1108.3755 283.6268)" class="st2" width="4.2" height="4.2"/>
	</g>
	<g>
		
			<rect x="703.2" y="236.9" transform="matrix(-1 -1.224647e-16 1.224647e-16 -1 1410.6666 477.9276)" class="st2" width="4.2" height="4.2"/>
	</g>
	<g>
		
			<rect x="375.4" y="160.2" transform="matrix(-1 -1.224647e-16 1.224647e-16 -1 754.9398 324.5568)" class="st2" width="4.2" height="4.2"/>
	</g>
	<g>
		
			<rect x="378" y="194.3" transform="matrix(-1 -1.224647e-16 1.224647e-16 -1 760.2353 392.9198)" class="st2" width="4.2" height="4.2"/>
	</g>
	<g>
		
			<rect x="524.4" y="40" transform="matrix(-1 -1.224647e-16 1.224647e-16 -1 1053.0984 84.2012)" class="st2" width="4.2" height="4.2"/>
	</g>
	<g>
		
			<rect x="415.8" y="179" transform="matrix(-1 -1.224647e-16 1.224647e-16 -1 835.8381 362.1257)" class="st2" width="4.2" height="4.2"/>
	</g>
	<g>
		
			<rect x="586.2" y="230.5" transform="matrix(-1 -1.224647e-16 1.224647e-16 -1 1176.6616 465.1724)" class="st2" width="4.2" height="4.2"/>
	</g>
	<g>
		
			<rect x="608.7" y="201.8" transform="matrix(-1 -1.224647e-16 1.224647e-16 -1 1221.6921 407.8466)" class="st2" width="4.2" height="4.2"/>
	</g>
	<g>
		
			<rect x="273.7" y="119" transform="matrix(-1 -1.224647e-16 1.224647e-16 -1 551.6257 242.1871)" class="st2" width="4.2" height="4.2"/>
	</g>
	<g>
		
			<rect x="223.7" y="332.6" transform="matrix(-1 -1.224647e-16 1.224647e-16 -1 451.6567 669.4188)" class="st2" width="4.2" height="4.2"/>
	</g>
	<g>
		
			<rect x="103.5" y="347.4" transform="matrix(-1 -1.224647e-16 1.224647e-16 -1 211.229 699.0591)" class="st2" width="4.2" height="4.2"/>
	</g>
	<g>
		
			<rect x="122.1" y="357.3" transform="matrix(-1 -1.224647e-16 1.224647e-16 -1 248.4626 718.8464)" class="st2" width="4.2" height="4.2"/>
	</g>
	<g>
		
			<rect x="180.8" y="399.4" transform="matrix(-1 -1.224647e-16 1.224647e-16 -1 365.847 803.03)" class="st2" width="4.2" height="4.2"/>
	</g>
	<g>
		
			<rect x="63" y="376.4" transform="matrix(-1 -1.224647e-16 1.224647e-16 -1 130.2121 756.954)" class="st2" width="4.2" height="4.2"/>
	</g>
	<g>
		
			<rect x="57.2" y="336.8" transform="matrix(-1 -1.224647e-16 1.224647e-16 -1 118.6617 677.8376)" class="st2" width="4.2" height="4.2"/>
	</g>
	<g>
		
			<rect x="24.4" y="278.1" transform="matrix(-1 -1.224647e-16 1.224647e-16 -1 53.0629 560.4458)" class="st2" width="4.2" height="4.2"/>
	</g>
	<g>
		
			<rect x="24" y="175.7" transform="matrix(-1 -1.224647e-16 1.224647e-16 -1 52.2084 355.562)" class="st2" width="4.2" height="4.2"/>
	</g>
	<g>
		
			<rect x="19.1" y="185.7" transform="matrix(-1 -1.224647e-16 1.224647e-16 -1 42.4034 375.5833)" class="st2" width="4.2" height="4.2"/>
	</g>
	<g>
		
			<rect x="19.5" y="418.7" transform="matrix(-1 -1.224647e-16 1.224647e-16 -1 43.2332 841.5898)" class="st2" width="4.2" height="4.2"/>
	</g>
	<g>
		
			<rect x="63.6" y="492.2" transform="matrix(-1 -1.224647e-16 1.224647e-16 -1 131.5103 988.6982)" class="st2" width="4.2" height="4.2"/>
	</g>
	<g>
		
			<rect x="113.1" y="526" transform="matrix(-1 -1.224647e-16 1.224647e-16 -1 230.3631 1056.1487)" class="st2" width="4.2" height="4.2"/>
	</g>
	<g>
		
			<rect x="165.4" y="471.6" transform="matrix(-1 -1.224647e-16 1.224647e-16 -1 334.9346 947.4957)" class="st2" width="4.2" height="4.2"/>
	</g>
	<g>
		
			<rect x="179.6" y="467.4" transform="matrix(-1 -1.224647e-16 1.224647e-16 -1 363.3281 938.9499)" class="st2" width="4.2" height="4.2"/>
	</g>
	<g>
		
			<rect x="279.9" y="521.3" transform="matrix(-1 -1.224647e-16 1.224647e-16 -1 563.9834 1046.7698)" class="st2" width="4.2" height="4.2"/>
	</g>
	<g>
		
			<rect x="350.4" y="524.7" transform="matrix(-1 -1.224647e-16 1.224647e-16 -1 705.0492 1053.6064)" class="st2" width="4.2" height="4.2"/>
	</g>
	<g>
		
			<rect x="373.6" y="426.1" transform="matrix(-1 -1.224647e-16 1.224647e-16 -1 751.4461 856.4044)" class="st2" width="4.2" height="4.2"/>
	</g>
	<g>
		
			<rect x="363.6" y="455.6" transform="matrix(-1 -1.224647e-16 1.224647e-16 -1 731.4602 915.4119)" class="st2" width="4.2" height="4.2"/>
	</g>
	<g>
		
			<rect x="463.4" y="491.9" transform="matrix(-1 -1.224647e-16 1.224647e-16 -1 930.9755 988.0059)" class="st2" width="4.2" height="4.2"/>
	</g>
	<g>
		
			<rect x="490.4" y="501.3" transform="matrix(-1 -1.224647e-16 1.224647e-16 -1 985.1178 1006.7866)" class="st2" width="4.2" height="4.2"/>
	</g>
	<g>
		
			<rect x="526.8" y="438.9" transform="matrix(-1 -1.224647e-16 1.224647e-16 -1 1057.8605 881.9961)" class="st2" width="4.2" height="4.2"/>
	</g>
	<g>
		
			<rect x="613.2" y="511.6" transform="matrix(-1 -1.224647e-16 1.224647e-16 -1 1230.6049 1027.4009)" class="st2" width="4.2" height="4.2"/>
	</g>
	<g>
		
			<rect x="641.8" y="467.8" transform="matrix(-1 -1.224647e-16 1.224647e-16 -1 1287.8318 939.7715)" class="st2" width="4.2" height="4.2"/>
	</g>
	<g>
		
			<rect x="649.6" y="404.5" transform="matrix(-1 -1.224647e-16 1.224647e-16 -1 1303.3857 813.3053)" class="st2" width="4.2" height="4.2"/>
	</g>
	<g>
		
			<rect x="692.3" y="486.7" transform="matrix(-1 -1.224647e-16 1.224647e-16 -1 1388.7828 977.61)" class="st2" width="4.2" height="4.2"/>
	</g>
	<g>
		
			<rect x="711.7" y="504.5" transform="matrix(-1 -1.224647e-16 1.224647e-16 -1 1427.5433 1013.2728)" class="st2" width="4.2" height="4.2"/>
	</g>
	<g>
		
			<rect x="737.4" y="431.8" transform="matrix(-1 -1.224647e-16 1.224647e-16 -1 1479.08 867.853)" class="st2" width="4.2" height="4.2"/>
	</g>
	<g>
		
			<rect x="751.5" y="471.2" transform="matrix(-1 -1.224647e-16 1.224647e-16 -1 1507.2412 946.7018)" class="st2" width="4.2" height="4.2"/>
	</g>
	<g>
		
			<rect x="767" y="443.6" transform="matrix(-1 -1.224647e-16 1.224647e-16 -1 1538.2777 891.4778)" class="st2" width="4.2" height="4.2"/>
	</g>
	<g>
		
			<rect x="787.3" y="454" transform="matrix(-1 -1.224647e-16 1.224647e-16 -1 1578.7458 912.2471)" class="st2" width="4.2" height="4.2"/>
	</g>
	<g>
		
			<rect x="809.3" y="394.4" transform="matrix(-1 -1.224647e-16 1.224647e-16 -1 1622.9028 793.0709)" class="st2" width="4.2" height="4.2"/>
	</g>
	<g>
		
			<rect x="804.1" y="375.1" transform="matrix(-1 -1.224647e-16 1.224647e-16 -1 1612.4103 754.3422)" class="st2" width="4.2" height="4.2"/>
	</g>
	<g>
		
			<rect x="810.3" y="328.9" transform="matrix(-1 -1.224647e-16 1.224647e-16 -1 1624.8816 662.0046)" class="st2" width="4.2" height="4.2"/>
	</g>
	<g>
		
			<rect x="840" y="309.8" transform="matrix(-1 -1.224647e-16 1.224647e-16 -1 1684.1893 623.7337)" class="st2" width="4.2" height="4.2"/>
	</g>
	<g>
		
			<rect x="882.3" y="349" transform="matrix(-1 -1.224647e-16 1.224647e-16 -1 1768.8563 702.1674)" class="st2" width="4.2" height="4.2"/>
	</g>
	<g>
		
			<rect x="906.8" y="406.2" transform="matrix(-1 -1.224647e-16 1.224647e-16 -1 1817.8176 816.6173)" class="st2" width="4.2" height="4.2"/>
	</g>
	<g>
		
			<rect x="913.2" y="428.2" transform="matrix(-1 -1.224647e-16 1.224647e-16 -1 1830.5599 860.6183)" class="st2" width="4.2" height="4.2"/>
	</g>
	<g>
		
			<rect x="930.9" y="369.2" transform="matrix(-1 -1.224647e-16 1.224647e-16 -1 1866.0917 742.642)" class="st2" width="4.2" height="4.2"/>
	</g>
	<g>
		
			<rect x="925.8" y="280.6" transform="matrix(-1 -1.224647e-16 1.224647e-16 -1 1855.832 565.4178)" class="st2" width="4.2" height="4.2"/>
	</g>
	<g>
		
			<rect x="949.1" y="226.1" transform="matrix(-1 -1.224647e-16 1.224647e-16 -1 1902.389 456.3651)" class="st2" width="4.2" height="4.2"/>
	</g>
	<g>
		
			<rect x="997.8" y="171" transform="matrix(-1 -1.224647e-16 1.224647e-16 -1 1999.8625 346.269)" class="st2" width="4.2" height="4.2"/>
	</g>
	<g>
		
			<rect x="955.2" y="151.4" transform="matrix(-1 -1.224647e-16 1.224647e-16 -1 1914.6388 306.9467)" class="st2" width="4.2" height="4.2"/>
	</g>
	<g>
		
			<rect x="901.6" y="204.8" transform="matrix(-1 -1.224647e-16 1.224647e-16 -1 1807.3737 413.8417)" class="st2" width="4.2" height="4.2"/>
	</g>
	<g>
		
			<rect x="830.4" y="270.1" transform="matrix(-1 -1.224647e-16 1.224647e-16 -1 1665.1074 544.4089)" class="st2" width="4.2" height="4.2"/>
	</g>
	<g>
		
			<rect x="776.6" y="325.9" transform="matrix(-1 -1.224647e-16 1.224647e-16 -1 1557.4009 656.1204)" class="st2" width="4.2" height="4.2"/>
	</g>
	<g>
		
			<rect x="682.5" y="444.5" transform="matrix(-1 -1.224647e-16 1.224647e-16 -1 1369.1501 893.3019)" class="st2" width="4.2" height="4.2"/>
	</g>
	<g>
		
			<rect x="879.3" y="585.5" transform="matrix(-1 -1.224647e-16 1.224647e-16 -1 1762.774 1175.1569)" class="st2" width="4.2" height="4.2"/>
	</g>
	<g>
		
			<rect x="888.6" y="669.3" transform="matrix(-1 -1.224647e-16 1.224647e-16 -1 1781.3862 1342.8574)" class="st2" width="4.2" height="4.2"/>
	</g>
	<g>
		
			<rect x="861.8" y="773.1" transform="matrix(-1 -1.224647e-16 1.224647e-16 -1 1727.7705 1550.4823)" class="st2" width="4.2" height="4.2"/>
	</g>
	<g>
		
			<rect x="794.4" y="771.1" transform="matrix(-1 -1.224647e-16 1.224647e-16 -1 1593.0067 1546.4346)" class="st2" width="4.2" height="4.2"/>
	</g>
	<g>
		
			<rect x="739.5" y="622.7" transform="matrix(-1 -1.224647e-16 1.224647e-16 -1 1483.2363 1249.6666)" class="st2" width="4.2" height="4.2"/>
	</g>
	<g>
		
			<rect x="719" y="568.2" transform="matrix(-1 -1.224647e-16 1.224647e-16 -1 1442.1364 1140.5565)" class="st2" width="4.2" height="4.2"/>
	</g>
	<g>
		
			<rect x="657.8" y="597.8" transform="matrix(-1 -1.224647e-16 1.224647e-16 -1 1319.7222 1199.8521)" class="st2" width="4.2" height="4.2"/>
	</g>
	<g>
		
			<rect x="635" y="608.2" transform="matrix(-1 -1.224647e-16 1.224647e-16 -1 1274.2966 1220.5775)" class="st2" width="4.2" height="4.2"/>
	</g>
	<g>
		
			<rect x="577.1" y="547" transform="matrix(-1 -1.224647e-16 1.224647e-16 -1 1158.429 1098.2354)" class="st2" width="4.2" height="4.2"/>
	</g>
	<g>
		
			<rect x="546" y="572.9" transform="matrix(-1 -1.224647e-16 1.224647e-16 -1 1096.2478 1150.0454)" class="st2" width="4.2" height="4.2"/>
	</g>
	<g>
		
			<rect x="496" y="607.5" transform="matrix(-1 -1.224647e-16 1.224647e-16 -1 996.1873 1219.2769)" class="st2" width="4.2" height="4.2"/>
	</g>
	<g>
		
			<rect x="441.4" y="576" transform="matrix(-1 -1.224647e-16 1.224647e-16 -1 887.103 1156.2494)" class="st2" width="4.2" height="4.2"/>
	</g>
	<g>
		
			<rect x="386.2" y="592.9" transform="matrix(-1 -1.224647e-16 1.224647e-16 -1 776.6491 1190.1096)" class="st2" width="4.2" height="4.2"/>
	</g>
	<g>
		
			<rect x="368.1" y="603.8" transform="matrix(-1 -1.224647e-16 1.224647e-16 -1 740.3334 1211.8551)" class="st2" width="4.2" height="4.2"/>
	</g>
	<g>
		
			<rect x="325.5" y="585.7" transform="matrix(-1 -1.224647e-16 1.224647e-16 -1 655.2927 1175.6785)" class="st2" width="4.2" height="4.2"/>
	</g>
	<g>
		
			<rect x="277" y="610.4" transform="matrix(-1 -1.224647e-16 1.224647e-16 -1 558.2036 1224.9257)" class="st2" width="4.2" height="4.2"/>
	</g>
	<g>
		
			<rect x="256.1" y="598.3" transform="matrix(-1 -1.224647e-16 1.224647e-16 -1 516.4695 1200.7273)" class="st2" width="4.2" height="4.2"/>
	</g>
	<g>
		
			<rect x="212.8" y="573.6" transform="matrix(-1 -1.224647e-16 1.224647e-16 -1 429.7235 1151.4333)" class="st2" width="4.2" height="4.2"/>
	</g>
	<g>
		
			<rect x="236.6" y="647" transform="matrix(-1 -1.224647e-16 1.224647e-16 -1 477.4084 1298.2091)" class="st2" width="4.2" height="4.2"/>
	</g>
	<g>
		
			<rect x="77.5" y="638.4" transform="matrix(-1 -1.224647e-16 1.224647e-16 -1 159.2309 1281.014)" class="st2" width="4.2" height="4.2"/>
	</g>
	<g>
		
			<rect x="37" y="635.7" transform="matrix(-1 -1.224647e-16 1.224647e-16 -1 78.222 1275.575)" class="st2" width="4.2" height="4.2"/>
	</g>
	<g>
		
			<rect x="23.9" y="689.7" transform="matrix(-1 -1.224647e-16 1.224647e-16 -1 52.0576 1383.6686)" class="st2" width="4.2" height="4.2"/>
	</g>
	<g>
		
			<rect x="166.8" y="553.7" transform="matrix(-1 -1.224647e-16 1.224647e-16 -1 337.9147 1111.6201)" class="st2" width="4.2" height="4.2"/>
	</g>
	<g>
		
			<rect x="166.5" y="634.9" transform="matrix(-1 -1.224647e-16 1.224647e-16 -1 337.2575 1274.0537)" class="st2" width="4.2" height="4.2"/>
	</g>
	<g>
		
			<rect x="210.4" y="698.7" transform="matrix(-1 -1.224647e-16 1.224647e-16 -1 424.95 1401.6565)" class="st2" width="4.2" height="4.2"/>
	</g>
	<g>
		
			<rect x="298.2" y="681.1" transform="matrix(-1 -1.224647e-16 1.224647e-16 -1 600.5645 1366.491)" class="st2" width="4.2" height="4.2"/>
	</g>
	<g>
		
			<rect x="353.6" y="664.4" transform="matrix(-1 -1.224647e-16 1.224647e-16 -1 711.3383 1333.0123)" class="st2" width="4.2" height="4.2"/>
	</g>
	<g>
		
			<rect x="402.6" y="695.3" transform="matrix(-1 -1.224647e-16 1.224647e-16 -1 809.4995 1394.7546)" class="st2" width="4.2" height="4.2"/>
	</g>
	<g>
		
			<rect x="468.8" y="612" transform="matrix(-1 -1.224647e-16 1.224647e-16 -1 941.7214 1228.2679)" class="st2" width="4.2" height="4.2"/>
	</g>
	<g>
		
			<rect x="527.1" y="684.5" transform="matrix(-1 -1.224647e-16 1.224647e-16 -1 1058.4504 1373.1566)" class="st2" width="4.2" height="4.2"/>
	</g>
	<g>
		
			<rect x="574" y="712.5" transform="matrix(-1 -1.224647e-16 1.224647e-16 -1 1152.3108 1429.3051)" class="st2" width="4.2" height="4.2"/>
	</g>
	<g>
		
			<rect x="682.1" y="659.9" transform="matrix(-1 -1.224647e-16 1.224647e-16 -1 1368.4896 1324.0656)" class="st2" width="4.2" height="4.2"/>
	</g>
	<g>
		
			<rect x="706" y="700.1" transform="matrix(-1 -1.224647e-16 1.224647e-16 -1 1416.1578 1404.4366)" class="st2" width="4.2" height="4.2"/>
	</g>
	<g>
		
			<rect x="749" y="663.6" transform="matrix(-1 -1.224647e-16 1.224647e-16 -1 1502.2665 1331.3607)" class="st2" width="4.2" height="4.2"/>
	</g>
	<g>
		
			<rect x="769.6" y="688.6" transform="matrix(-1 -1.224647e-16 1.224647e-16 -1 1543.4739 1381.3837)" class="st2" width="4.2" height="4.2"/>
	</g>
	<g>
		
			<rect x="835.4" y="697.3" transform="matrix(-1 -1.224647e-16 1.224647e-16 -1 1674.991 1398.8462)" class="st2" width="4.2" height="4.2"/>
	</g>
	<g>
		
			<rect x="871.4" y="671.1" transform="matrix(-1 -1.224647e-16 1.224647e-16 -1 1746.9584 1346.5027)" class="st2" width="4.2" height="4.2"/>
	</g>
	<g>
		
			<rect x="916.4" y="659.3" transform="matrix(-1 -1.224647e-16 1.224647e-16 -1 1837.019 1322.7893)" class="st2" width="4.2" height="4.2"/>
	</g>
	<g>
		
			<rect x="976.9" y="565.7" transform="matrix(-1 -1.224647e-16 1.224647e-16 -1 1958.0288 1135.6777)" class="st2" width="4.2" height="4.2"/>
	</g>
	<g>
		
			<rect x="1003.6" y="624.4" transform="matrix(-1 -1.224647e-16 1.224647e-16 -1 2011.3711 1253.0255)" class="st2" width="4.2" height="4.2"/>
	</g>
	<g>
		
			<rect x="995.1" y="694.2" transform="matrix(-1 -1.224647e-16 1.224647e-16 -1 1994.4094 1392.6097)" class="st2" width="4.2" height="4.2"/>
	</g>
	<g>
		
			<rect x="1003.5" y="736.1" transform="matrix(-1 -1.224647e-16 1.224647e-16 -1 2011.1426 1476.3458)" class="st2" width="4.2" height="4.2"/>
	</g>
	<g>
		
			<rect x="853.5" y="748.6" transform="matrix(-1 -1.224647e-16 1.224647e-16 -1 1711.2428 1501.3853)" class="st2" width="4.2" height="4.2"/>
	</g>
	<g>
		
			<rect x="719.5" y="709.3" transform="matrix(-1 -1.224647e-16 1.224647e-16 -1 1443.2393 1422.8655)" class="st2" width="4.2" height="4.2"/>
	</g>
	<g>
		
			<rect x="626.2" y="736.5" transform="matrix(-1 -1.224647e-16 1.224647e-16 -1 1256.6309 1477.1317)" class="st2" width="4.2" height="4.2"/>
	</g>
	<g>
		
			<rect x="605.3" y="750.2" transform="matrix(-1 -1.224647e-16 1.224647e-16 -1 1214.8894 1504.6193)" class="st2" width="4.2" height="4.2"/>
	</g>
	<g>
		
			<rect x="536.5" y="778.4" transform="matrix(-1 -1.224647e-16 1.224647e-16 -1 1077.2244 1560.9443)" class="st2" width="4.2" height="4.2"/>
	</g>
	<g>
		
			<rect x="511.7" y="774.7" transform="matrix(-1 -1.224647e-16 1.224647e-16 -1 1027.7091 1553.5319)" class="st2" width="4.2" height="4.2"/>
	</g>
	<g>
		
			<rect x="307.9" y="777" transform="matrix(-1 -1.224647e-16 1.224647e-16 -1 620.1194 1558.3)" class="st2" width="4.2" height="4.2"/>
	</g>
	<g>
		
			<rect x="281" y="780.3" transform="matrix(-1 -1.224647e-16 1.224647e-16 -1 566.2419 1564.8929)" class="st2" width="4.2" height="4.2"/>
	</g>
	<g>
		
			<rect x="261.2" y="770.7" transform="matrix(-1 -1.224647e-16 1.224647e-16 -1 526.721 1545.6168)" class="st2" width="4.2" height="4.2"/>
	</g>
	<g>
		
			<rect x="195.9" y="803.7" transform="matrix(-1 -1.224647e-16 1.224647e-16 -1 396.1154 1611.6251)" class="st2" width="4.2" height="4.2"/>
	</g>
	<g>
		
			<rect x="107.6" y="784.5" transform="matrix(-1 -1.224647e-16 1.224647e-16 -1 219.5207 1573.2053)" class="st2" width="4.2" height="4.2"/>
	</g>
	<g>
		
			<rect x="58.9" y="794.2" transform="matrix(-1 -1.224647e-16 1.224647e-16 -1 122.0063 1592.5317)" class="st2" width="4.2" height="4.2"/>
	</g>
	<g>
		
			<rect x="38.4" y="735.6" transform="matrix(-1 -1.224647e-16 1.224647e-16 -1 81.0803 1475.3982)" class="st2" width="4.2" height="4.2"/>
	</g>
	<g>
		
			<rect x="84.3" y="699.1" transform="matrix(-1 -1.224647e-16 1.224647e-16 -1 172.819 1402.3273)" class="st2" width="4.2" height="4.2"/>
	</g>
	<g>
		
			<rect x="194.2" y="736.8" transform="matrix(-1 -1.224647e-16 1.224647e-16 -1 392.5871 1477.8372)" class="st2" width="4.2" height="4.2"/>
	</g>
	<g>
		
			<rect x="329.1" y="725.4" transform="matrix(-1 -1.224647e-16 1.224647e-16 -1 662.4474 1455.1058)" class="st2" width="4.2" height="4.2"/>
	</g>
	<g>
		
			<rect x="401" y="768.3" transform="matrix(-1 -1.224647e-16 1.224647e-16 -1 806.1561 1540.7582)" class="st2" width="4.2" height="4.2"/>
	</g>
	<g>
		
			<rect x="471.3" y="776.1" transform="matrix(-1 -1.224647e-16 1.224647e-16 -1 946.892 1556.3322)" class="st2" width="4.2" height="4.2"/>
	</g>
	<g>
		
			<rect x="841.9" y="814" transform="matrix(-1 -1.224647e-16 1.224647e-16 -1 1688.1017 1632.2357)" class="st2" width="4.2" height="4.2"/>
	</g>
	<g>
		
			<rect x="694.9" y="903.8" transform="matrix(-1 -1.224647e-16 1.224647e-16 -1 1394.0905 1811.8677)" class="st2" width="4.2" height="4.2"/>
	</g>
	<g>
		
			<rect x="621" y="851.3" transform="matrix(-1 -1.224647e-16 1.224647e-16 -1 1246.2666 1706.7434)" class="st2" width="4.2" height="4.2"/>
	</g>
	<g>
		
			<rect x="570.2" y="885" transform="matrix(-1 -1.224647e-16 1.224647e-16 -1 1144.6616 1774.1648)" class="st2" width="4.2" height="4.2"/>
	</g>
	<g>
		
			<rect x="551.2" y="865.1" transform="matrix(-1 -1.224647e-16 1.224647e-16 -1 1106.5304 1734.5112)" class="st2" width="4.2" height="4.2"/>
	</g>
	<g>
		
			<rect x="474.6" y="892.7" transform="matrix(-1 -1.224647e-16 1.224647e-16 -1 953.3683 1789.5782)" class="st2" width="4.2" height="4.2"/>
	</g>
	<g>
		
			<rect x="424.3" y="894.1" transform="matrix(-1 -1.224647e-16 1.224647e-16 -1 852.8585 1792.509)" class="st2" width="4.2" height="4.2"/>
	</g>
	<g>
		
			<rect x="343.8" y="853" transform="matrix(-1 -1.224647e-16 1.224647e-16 -1 691.9211 1710.3125)" class="st2" width="4.2" height="4.2"/>
	</g>
	<g>
		
			<rect x="290.9" y="899.6" transform="matrix(-1 -1.224647e-16 1.224647e-16 -1 585.9247 1803.5059)" class="st2" width="4.2" height="4.2"/>
	</g>
	<g>
		
			<rect x="256.9" y="862.1" transform="matrix(-1 -1.224647e-16 1.224647e-16 -1 518.0311 1728.3896)" class="st2" width="4.2" height="4.2"/>
	</g>
	<g>
		
			<rect x="211.9" y="893.4" transform="matrix(-1 -1.224647e-16 1.224647e-16 -1 428.0327 1791.0416)" class="st2" width="4.2" height="4.2"/>
	</g>
	<g>
		
			<rect x="124.9" y="859.3" transform="matrix(-1 -1.224647e-16 1.224647e-16 -1 253.9658 1722.9143)" class="st2" width="4.2" height="4.2"/>
	</g>
	<g>
		
			<rect x="67.7" y="910.2" transform="matrix(-1 -1.224647e-16 1.224647e-16 -1 139.5673 1824.6497)" class="st2" width="4.2" height="4.2"/>
	</g>
	<g>
		
			<rect x="369.7" y="849.8" transform="matrix(-1 -1.224647e-16 1.224647e-16 -1 743.7043 1703.7596)" class="st2" width="4.2" height="4.2"/>
	</g>
	<g>
		
			<rect x="583" y="823.8" transform="matrix(-1 -1.224647e-16 1.224647e-16 -1 1170.1322 1651.9146)" class="st2" width="4.2" height="4.2"/>
	</g>
	<g>
		
			<rect x="709.8" y="868.9" transform="matrix(-1 -1.224647e-16 1.224647e-16 -1 1423.7618 1741.9315)" class="st2" width="4.2" height="4.2"/>
	</g>
	<g>
		
			<rect x="765.8" y="835.3" transform="matrix(-1 -1.224647e-16 1.224647e-16 -1 1535.9144 1674.8623)" class="st2" width="4.2" height="4.2"/>
	</g>
	<g>
		
			<rect x="787.3" y="896.1" transform="matrix(-1 -1.224647e-16 1.224647e-16 -1 1578.743 1796.3995)" class="st2" width="4.2" height="4.2"/>
	</g>
	<g>
		
			<rect x="877" y="813" transform="matrix(-1 -1.224647e-16 1.224647e-16 -1 1758.2677 1630.1605)" class="st2" width="4.2" height="4.2"/>
	</g>
	<g>
		
			<rect x="915.3" y="858.7" transform="matrix(-1 -1.224647e-16 1.224647e-16 -1 1834.8744 1721.5966)" class="st2" width="4.2" height="4.2"/>
	</g>
	<g>
		
			<rect x="973.1" y="703.1" transform="matrix(-1 -1.224647e-16 1.224647e-16 -1 1950.3998 1410.3307)" class="st2" width="4.2" height="4.2"/>
	</g>
	<g>
		
			<rect x="973.4" y="587.1" transform="matrix(-1 -1.224647e-16 1.224647e-16 -1 1950.937 1178.3989)" class="st2" width="4.2" height="4.2"/>
	</g>
	<g>
		
			<rect x="987.8" y="441.4" transform="matrix(-1 -1.224647e-16 1.224647e-16 -1 1979.8517 886.9638)" class="st2" width="4.2" height="4.2"/>
	</g>
	<g>
		
			<rect x="915.9" y="295.4" transform="matrix(-1 -1.224647e-16 1.224647e-16 -1 1836.035 595.1064)" class="st2" width="4.2" height="4.2"/>
	</g>
	<g>
		
			<rect x="899.9" y="183.9" transform="matrix(-1 -1.224647e-16 1.224647e-16 -1 1804.071 371.9582)" class="st2" width="4.2" height="4.2"/>
	</g>
	<g>
		
			<rect x="689.7" y="121.1" transform="matrix(-1 -1.224647e-16 1.224647e-16 -1 1383.5222 246.4822)" class="st2" width="4.2" height="4.2"/>
	</g>
	<g>
		
			<rect x="624.5" y="77.1" transform="matrix(-1 -1.224647e-16 1.224647e-16 -1 1253.1421 158.4866)" class="st2" width="4.2" height="4.2"/>
	</g>
	<g>
		
			<rect x="560.3" y="100" transform="matrix(-1 -1.224647e-16 1.224647e-16 -1 1124.7419 204.3157)" class="st2" width="4.2" height="4.2"/>
	</g>
	<g>
		
			<rect x="535" y="76.7" transform="matrix(-1 -1.224647e-16 1.224647e-16 -1 1074.1567 157.5373)" class="st2" width="4.2" height="4.2"/>
	</g>
	<g>
		
			<rect x="492.1" y="75.9" transform="matrix(-1 -1.224647e-16 1.224647e-16 -1 988.3371 156.0551)" class="st2" width="4.2" height="4.2"/>
	</g>
	<g>
		
			<rect x="408.7" y="60.2" transform="matrix(-1 -1.224647e-16 1.224647e-16 -1 821.7087 124.6562)" class="st2" width="4.2" height="4.2"/>
	</g>
	<g>
		
			<rect x="293.8" y="28.7" transform="matrix(-1 -1.224647e-16 1.224647e-16 -1 591.7835 61.7039)" class="st2" width="4.2" height="4.2"/>
	</g>
	<g>
		
			<rect x="224.5" y="38" transform="matrix(-1 -1.224647e-16 1.224647e-16 -1 453.1468 80.2965)" class="st2" width="4.2" height="4.2"/>
	</g>
	<g>
		
			<rect x="170.6" y="57.5" transform="matrix(-1 -1.224647e-16 1.224647e-16 -1 345.4153 119.2561)" class="st2" width="4.2" height="4.2"/>
	</g>
	<g>
		
			<rect x="85.2" y="64.6" transform="matrix(-1 -1.224647e-16 1.224647e-16 -1 174.6795 133.3921)" class="st2" width="4.2" height="4.2"/>
	</g>
	<g>
		
			<rect x="55.2" y="50.4" transform="matrix(-1 -1.224647e-16 1.224647e-16 -1 114.5722 105.0279)" class="st2" width="4.2" height="4.2"/>
	</g>
	<g>
		
			<rect x="21.9" y="32.7" transform="matrix(-1 -1.224647e-16 1.224647e-16 -1 48.0917 69.6823)" class="st2" width="4.2" height="4.2"/>
	</g>
	<g>
		
			<rect x="80.4" y="172.2" transform="matrix(-1 -1.224647e-16 1.224647e-16 -1 164.9362 348.5734)" class="st2" width="4.2" height="4.2"/>
	</g>
	<g>
		
			<rect x="99.6" y="119.9" transform="matrix(-1 -1.224647e-16 1.224647e-16 -1 203.4356 244.0217)" class="st2" width="4.2" height="4.2"/>
	</g>
	<g>
		
			<rect x="55.2" y="73.9" transform="matrix(-1 -1.224647e-16 1.224647e-16 -1 114.6757 151.9387)" class="st2" width="4.2" height="4.2"/>
	</g>
	<g>
		
			<rect x="6.9" y="109.4" transform="matrix(-1 -1.224647e-16 1.224647e-16 -1 18.0643 222.9703)" class="st2" width="4.2" height="4.2"/>
	</g>
	<g>
		
			<rect x="59.9" y="189.7" transform="matrix(-1 -1.224647e-16 1.224647e-16 -1 124.0932 383.6931)" class="st2" width="4.2" height="4.2"/>
	</g>
	<g>
		
			<rect x="87.2" y="118.9" transform="matrix(-1 -1.224647e-16 1.224647e-16 -1 178.5404 241.9545)" class="st2" width="4.2" height="4.2"/>
	</g>
	<g>
		
			<rect x="37.9" y="106.6" transform="matrix(-1 -1.224647e-16 1.224647e-16 -1 80.0253 217.4683)" class="st2" width="4.2" height="4.2"/>
	</g>
	<g>
		
			<rect x="109.7" y="218.4" transform="matrix(-1 -1.224647e-16 1.224647e-16 -1 223.6882 441.0721)" class="st2" width="4.2" height="4.2"/>
	</g>
	<g>
		
			<rect x="120.4" y="176.2" transform="matrix(-1 -1.224647e-16 1.224647e-16 -1 245.0782 356.6754)" class="st2" width="4.2" height="4.2"/>
	</g>
	<g>
		
			<rect x="98.3" y="286.8" transform="matrix(-1 -1.224647e-16 1.224647e-16 -1 200.8715 577.9037)" class="st2" width="4.2" height="4.2"/>
	</g>
	<g>
		
			<rect x="147.3" y="271.9" transform="matrix(-1 -1.224647e-16 1.224647e-16 -1 298.7231 547.9276)" class="st2" width="4.2" height="4.2"/>
	</g>
	<g>
		
			<rect x="81.5" y="267.5" transform="matrix(-1 -1.224647e-16 1.224647e-16 -1 167.1817 539.2512)" class="st2" width="4.2" height="4.2"/>
	</g>
	<g>
		
			<rect x="178.7" y="305.3" transform="matrix(-1 -1.224647e-16 1.224647e-16 -1 361.563 614.8098)" class="st2" width="4.2" height="4.2"/>
	</g>
	<g>
		
			<rect x="173.5" y="177.9" transform="matrix(-1 -1.224647e-16 1.224647e-16 -1 351.2439 360.0527)" class="st2" width="4.2" height="4.2"/>
	</g>
	<g>
		
			<rect x="196" y="267.6" transform="matrix(-1 -1.224647e-16 1.224647e-16 -1 396.1247 539.4449)" class="st2" width="4.2" height="4.2"/>
	</g>
	<g>
		
			<rect x="301.2" y="208.1" transform="matrix(-1 -1.224647e-16 1.224647e-16 -1 606.6545 420.5086)" class="st2" width="4.2" height="4.2"/>
	</g>
	<g>
		
			<rect x="225.8" y="139.8" transform="matrix(-1 -1.224647e-16 1.224647e-16 -1 455.7923 283.7999)" class="st2" width="4.2" height="4.2"/>
	</g>
	<g>
		
			<rect x="361.4" y="236.9" transform="matrix(-1 -1.224647e-16 1.224647e-16 -1 726.9942 478.0864)" class="st2" width="4.2" height="4.2"/>
	</g>
	<g>
		
			<rect x="429.7" y="230.7" transform="matrix(-1 -1.224647e-16 1.224647e-16 -1 863.569 465.6357)" class="st2" width="4.2" height="4.2"/>
	</g>
	<g>
		
			<rect x="213.8" y="219.6" transform="matrix(-1 -1.224647e-16 1.224647e-16 -1 431.8007 443.3276)" class="st2" width="4.2" height="4.2"/>
	</g>
	<g>
		
			<rect x="241.6" y="228.4" transform="matrix(-1 -1.224647e-16 1.224647e-16 -1 487.4634 461.0678)" class="st2" width="4.2" height="4.2"/>
	</g>
	<g>
		
			<rect x="278.9" y="183.8" transform="matrix(-1 -1.224647e-16 1.224647e-16 -1 561.9589 371.8123)" class="st2" width="4.2" height="4.2"/>
	</g>
	<g>
		
			<rect x="234.3" y="100.2" transform="matrix(-1 -1.224647e-16 1.224647e-16 -1 472.7632 204.6334)" class="st2" width="4.2" height="4.2"/>
	</g>
	<g>
		
			<rect x="433.9" y="454" transform="matrix(-1 -1.224647e-16 1.224647e-16 -1 871.9998 912.25)" class="st2" width="4.2" height="4.2"/>
	</g>
	<g>
		
			<rect x="537" y="214" transform="matrix(-1 -1.224647e-16 1.224647e-16 -1 1078.1687 432.2072)" class="st2" width="4.2" height="4.2"/>
	</g>
	<g>
		
			<rect x="618.7" y="212.4" transform="matrix(-1 -1.224647e-16 1.224647e-16 -1 1241.6014 429.0845)" class="st2" width="4.2" height="4.2"/>
	</g>
	<g>
		
			<rect x="628.1" y="189.7" transform="matrix(-1 -1.224647e-16 1.224647e-16 -1 1260.4812 383.6357)" class="st2" width="4.2" height="4.2"/>
	</g>
	<g>
		
			<rect x="469.8" y="205" transform="matrix(-1 -1.224647e-16 1.224647e-16 -1 943.7463 414.2109)" class="st2" width="4.2" height="4.2"/>
	</g>
	<g>
		
			<rect x="749.7" y="227.5" transform="matrix(-1 -1.224647e-16 1.224647e-16 -1 1503.5916 459.2918)" class="st2" width="4.2" height="4.2"/>
	</g>
	<g>
		
			<rect x="850" y="180.4" transform="matrix(-1 -1.224647e-16 1.224647e-16 -1 1704.2458 365.0616)" class="st2" width="4.2" height="4.2"/>
	</g>
	<g>
		
			<rect x="862.6" y="156.9" transform="matrix(-1 -1.224647e-16 1.224647e-16 -1 1729.4098 317.9763)" class="st2" width="4.2" height="4.2"/>
	</g>
	<g>
		
			<rect x="861.9" y="236.2" transform="matrix(-1 -1.224647e-16 1.224647e-16 -1 1728.0315 476.6836)" class="st2" width="4.2" height="4.2"/>
	</g>
	<g>
		
			<rect x="790.1" y="208.3" transform="matrix(-1 -1.224647e-16 1.224647e-16 -1 1584.428 420.754)" class="st2" width="4.2" height="4.2"/>
	</g>
	<g>
		
			<rect x="571.6" y="71.4" transform="matrix(-1 -1.224647e-16 1.224647e-16 -1 1147.4507 147.0771)" class="st2" width="4.2" height="4.2"/>
	</g>
	<g>
		
			<rect x="435.9" y="54.8" transform="matrix(-1 -1.224647e-16 1.224647e-16 -1 876.0564 113.8139)" class="st2" width="4.2" height="4.2"/>
	</g>
	<g>
		
			<rect x="363.7" y="90.6" transform="matrix(-1 -1.224647e-16 1.224647e-16 -1 731.6327 185.3778)" class="st2" width="4.2" height="4.2"/>
	</g>
	<g>
		
			<rect x="386.7" y="108.4" transform="matrix(-1 -1.224647e-16 1.224647e-16 -1 777.5497 220.951)" class="st2" width="4.2" height="4.2"/>
	</g>
	<g>
		
			<rect x="476.7" y="113" transform="matrix(-1 -1.224647e-16 1.224647e-16 -1 957.6392 230.194)" class="st2" width="4.2" height="4.2"/>
	</g>
	<g>
		
			<rect x="507.1" y="110.2" transform="matrix(-1 -1.224647e-16 1.224647e-16 -1 1018.4544 224.5596)" class="st2" width="4.2" height="4.2"/>
	</g>
	<g>
		
			<rect x="661.8" y="123.7" transform="matrix(-1 -1.224647e-16 1.224647e-16 -1 1327.8306 251.582)" class="st2" width="4.2" height="4.2"/>
	</g>
	<g>
		
			<rect x="787.3" y="181.4" transform="matrix(-1 -1.224647e-16 1.224647e-16 -1 1578.7921 366.9915)" class="st2" width="4.2" height="4.2"/>
	</g>
	<g>
		
			<rect x="910.4" y="320.1" transform="matrix(-1 -1.224647e-16 1.224647e-16 -1 1825.0056 644.4084)" class="st2" width="4.2" height="4.2"/>
	</g>
	<g>
		
			<rect x="945.1" y="379.2" transform="matrix(-1 -1.224647e-16 1.224647e-16 -1 1894.4803 762.5991)" class="st2" width="4.2" height="4.2"/>
	</g>
	<g>
		
			<rect x="953.3" y="441.6" transform="matrix(-1 -1.224647e-16 1.224647e-16 -1 1910.8866 887.3348)" class="st2" width="4.2" height="4.2"/>
	</g>
	<g>
		
			<rect x="969.2" y="482.9" transform="matrix(-1 -1.224647e-16 1.224647e-16 -1 1942.5829 969.951)" class="st2" width="4.2" height="4.2"/>
	</g>
	<g>
		
			<rect x="995.4" y="285.6" transform="matrix(-1 -1.224647e-16 1.224647e-16 -1 1995.0437 575.377)" class="st2" width="4.2" height="4.2"/>
	</g>
	<g>
		
			<rect x="1009.2" y="195" transform="matrix(-1 -1.224647e-16 1.224647e-16 -1 2022.6823 394.1895)" class="st2" width="4.2" height="4.2"/>
	</g>
	<g>
		
			<rect x="1002.5" y="138" transform="matrix(-1 -1.224647e-16 1.224647e-16 -1 2009.1708 280.1696)" class="st2" width="4.2" height="4.2"/>
	</g>
	<g>
		
			<rect x="995.6" y="93.5" transform="matrix(-1 -1.224647e-16 1.224647e-16 -1 1995.3552 191.2234)" class="st2" width="4.2" height="4.2"/>
	</g>
	<g>
		
			<rect x="993.1" y="69.4" transform="matrix(-1 -1.224647e-16 1.224647e-16 -1 1990.5105 143.0587)" class="st2" width="4.2" height="4.2"/>
	</g>
	<g>
		
			<rect x="898.3" y="72.4" transform="matrix(-1 -1.224647e-16 1.224647e-16 -1 1800.854 149.0361)" class="st2" width="4.2" height="4.2"/>
	</g>
	<g>
		
			<rect x="795" y="70" transform="matrix(-1 -1.224647e-16 1.224647e-16 -1 1594.2831 144.3039)" class="st2" width="4.2" height="4.2"/>
	</g>
	<g>
		
			<rect x="697.9" y="84.7" transform="matrix(-1 -1.224647e-16 1.224647e-16 -1 1400.0868 173.589)" class="st2" width="4.2" height="4.2"/>
	</g>
	<g>
		
			<rect x="636.2" y="133.2" transform="matrix(-1 -1.224647e-16 1.224647e-16 -1 1276.5736 270.6537)" class="st2" width="4.2" height="4.2"/>
	</g>
	<g>
		
			<rect x="641.3" y="160" transform="matrix(-1 -1.224647e-16 1.224647e-16 -1 1286.9026 324.1807)" class="st2" width="4.2" height="4.2"/>
	</g>
	<g>
		
			<rect x="718.6" y="119.1" transform="matrix(-1 -1.224647e-16 1.224647e-16 -1 1441.4818 242.4171)" class="st2" width="4.2" height="4.2"/>
	</g>
	<g>
		
			<rect x="732.4" y="137.5" transform="matrix(-1 -1.224647e-16 1.224647e-16 -1 1468.9235 279.2681)" class="st2" width="4.2" height="4.2"/>
	</g>
	<g>
		
			<rect x="728.1" y="153.1" transform="matrix(-1 -1.224647e-16 1.224647e-16 -1 1460.3217 310.3888)" class="st2" width="4.2" height="4.2"/>
	</g>
	<g>
		
			<rect x="730.4" y="185.7" transform="matrix(-1 -1.224647e-16 1.224647e-16 -1 1465.0164 375.5415)" class="st2" width="4.2" height="4.2"/>
	</g>
	<g>
		
			<rect x="799.1" y="267.2" transform="matrix(-1 -1.224647e-16 1.224647e-16 -1 1602.4064 538.6444)" class="st2" width="4.2" height="4.2"/>
	</g>
	<g>
		
			<rect x="798.6" y="300.7" transform="matrix(-1 -1.224647e-16 1.224647e-16 -1 1601.468 605.529)" class="st2" width="4.2" height="4.2"/>
	</g>
	<g>
		
			<rect x="548.6" y="167.8" transform="matrix(-1 -1.224647e-16 1.224647e-16 -1 1101.4946 339.8103)" class="st2" width="4.2" height="4.2"/>
	</g>
	<g>
		
			<rect x="445.8" y="167.9" transform="matrix(-1 -1.224647e-16 1.224647e-16 -1 895.791 339.9748)" class="st2" width="4.2" height="4.2"/>
	</g>
	<g>
		
			<rect x="325.7" y="108.3" transform="matrix(-1 -1.224647e-16 1.224647e-16 -1 655.577 220.7337)" class="st2" width="4.2" height="4.2"/>
	</g>
	<g>
		
			<rect x="409.1" y="124.1" transform="matrix(-1 -1.224647e-16 1.224647e-16 -1 822.3635 252.4095)" class="st2" width="4.2" height="4.2"/>
	</g>
	<g>
		
			<rect x="307.8" y="153.2" transform="matrix(-1 -1.224647e-16 1.224647e-16 -1 619.7522 310.7194)" class="st2" width="4.2" height="4.2"/>
	</g>
	<g>
		
			<rect x="181.3" y="107.8" transform="matrix(-1 -1.224647e-16 1.224647e-16 -1 366.787 219.7957)" class="st2" width="4.2" height="4.2"/>
	</g>
	<g>
		
			<rect x="216.3" y="191" transform="matrix(-1 -1.224647e-16 1.224647e-16 -1 436.9069 386.159)" class="st2" width="4.2" height="4.2"/>
	</g>
	<g>
		
			<rect x="152.9" y="244.2" transform="matrix(-1 -1.224647e-16 1.224647e-16 -1 309.9471 492.692)" class="st2" width="4.2" height="4.2"/>
	</g>
	<g>
		
			<rect x="125.4" y="261.8" transform="matrix(-1 -1.224647e-16 1.224647e-16 -1 254.9618 527.78)" class="st2" width="4.2" height="4.2"/>
	</g>
	<g>
		
			<rect x="143.9" y="395.7" transform="matrix(-1 -1.224647e-16 1.224647e-16 -1 291.9747 795.5409)" class="st2" width="4.2" height="4.2"/>
	</g>
	<g>
		
			<rect x="218.1" y="308.6" transform="matrix(-1 -1.224647e-16 1.224647e-16 -1 440.3603 621.4738)" class="st2" width="4.2" height="4.2"/>
	</g>
	<g>
		
			<rect x="217.9" y="255.7" transform="matrix(-1 -1.224647e-16 1.224647e-16 -1 440.0114 515.6798)" class="st2" width="4.2" height="4.2"/>
	</g>
	<g>
		
			<rect x="111.6" y="333.8" transform="matrix(-1 -1.224647e-16 1.224647e-16 -1 227.4189 671.7901)" class="st2" width="4.2" height="4.2"/>
	</g>
	<g>
		
			<rect x="122.1" y="467.6" transform="matrix(-1 -1.224647e-16 1.224647e-16 -1 248.3259 939.3854)" class="st2" width="4.2" height="4.2"/>
	</g>
	<g>
		
			<rect x="211.4" y="398.8" transform="matrix(-1 -1.224647e-16 1.224647e-16 -1 427.1028 801.7966)" class="st2" width="4.2" height="4.2"/>
	</g>
	<g>
		
			<rect x="202.5" y="432.9" transform="matrix(-1 -1.224647e-16 1.224647e-16 -1 409.2619 869.9821)" class="st2" width="4.2" height="4.2"/>
	</g>
	<g>
		
			<rect x="251.9" y="400.9" transform="matrix(-1 -1.224647e-16 1.224647e-16 -1 507.9558 805.9622)" class="st2" width="4.2" height="4.2"/>
	</g>
	<g>
		
			<rect x="263.9" y="358.1" transform="matrix(-1 -1.224647e-16 1.224647e-16 -1 531.9393 720.3472)" class="st2" width="4.2" height="4.2"/>
	</g>
	<g>
		
			<rect x="260.2" y="438.1" transform="matrix(-1 -1.224647e-16 1.224647e-16 -1 524.564 880.3246)" class="st2" width="4.2" height="4.2"/>
	</g>
	<g>
		
			<rect x="329.7" y="440.7" transform="matrix(-1 -1.224647e-16 1.224647e-16 -1 663.6268 885.5516)" class="st2" width="4.2" height="4.2"/>
	</g>
	<g>
		
			<rect x="280.1" y="502.2" transform="matrix(-1 -1.224647e-16 1.224647e-16 -1 564.4661 1008.5582)" class="st2" width="4.2" height="4.2"/>
	</g>
	<g>
		
			<rect x="284.6" y="463.4" transform="matrix(-1 -1.224647e-16 1.224647e-16 -1 573.3979 931.0052)" class="st2" width="4.2" height="4.2"/>
	</g>
	<g>
		
			<rect x="279.1" y="414.1" transform="matrix(-1 -1.224647e-16 1.224647e-16 -1 562.3318 832.4329)" class="st2" width="4.2" height="4.2"/>
	</g>
	<g>
		
			<rect x="249.8" y="489.2" transform="matrix(-1 -1.224647e-16 1.224647e-16 -1 503.8879 982.6815)" class="st2" width="4.2" height="4.2"/>
	</g>
	<g>
		
			<rect x="240.2" y="435.9" transform="matrix(-1 -1.224647e-16 1.224647e-16 -1 484.5389 876.0339)" class="st2" width="4.2" height="4.2"/>
	</g>
	<g>
		
			<rect x="557" y="631.5" transform="matrix(-1 -1.224647e-16 1.224647e-16 -1 1118.1455 1267.1486)" class="st2" width="4.2" height="4.2"/>
	</g>
	<g>
		
			<rect x="204.5" y="342.2" transform="matrix(-1 -1.224647e-16 1.224647e-16 -1 413.209 688.6389)" class="st2" width="4.2" height="4.2"/>
	</g>
	<g>
		
			<rect x="174" y="416.1" transform="matrix(-1 -1.224647e-16 1.224647e-16 -1 352.1663 836.4531)" class="st2" width="4.2" height="4.2"/>
	</g>
	<g>
		
			<rect x="155.8" y="372.4" transform="matrix(-1 -1.224647e-16 1.224647e-16 -1 315.8595 748.9219)" class="st2" width="4.2" height="4.2"/>
	</g>
	<g>
		
			<rect x="81.6" y="469.5" transform="matrix(-1 -1.224647e-16 1.224647e-16 -1 167.519 943.2785)" class="st2" width="4.2" height="4.2"/>
	</g>
	<g>
		
			<rect x="78.2" y="440.3" transform="matrix(-1 -1.224647e-16 1.224647e-16 -1 160.6232 884.7726)" class="st2" width="4.2" height="4.2"/>
	</g>
	<g>
		
			<rect x="45.4" y="462.8" transform="matrix(-1 -1.224647e-16 1.224647e-16 -1 94.9819 929.9)" class="st2" width="4.2" height="4.2"/>
	</g>
	<g>
		
			<rect x="40.3" y="483.7" transform="matrix(-1 -1.224647e-16 1.224647e-16 -1 84.817 971.7019)" class="st2" width="4.2" height="4.2"/>
	</g>
	<g>
		
			<rect x="27.9" y="482.4" transform="matrix(-1 -1.224647e-16 1.224647e-16 -1 60.0879 968.9428)" class="st2" width="4.2" height="4.2"/>
	</g>
	<g>
		
			<rect x="77.4" y="529.2" transform="matrix(-1 -1.224647e-16 1.224647e-16 -1 159.0317 1062.6324)" class="st2" width="4.2" height="4.2"/>
	</g>
	<g>
		
			<rect x="190.2" y="500.2" transform="matrix(-1 -1.224647e-16 1.224647e-16 -1 384.7006 1004.5327)" class="st2" width="4.2" height="4.2"/>
	</g>
	<g>
		
			<rect x="309.3" y="534.9" transform="matrix(-1 -1.224647e-16 1.224647e-16 -1 622.843 1074.0553)" class="st2" width="4.2" height="4.2"/>
	</g>
	<g>
		
			<rect x="327.5" y="488.7" transform="matrix(-1 -1.224647e-16 1.224647e-16 -1 659.2456 981.6537)" class="st2" width="4.2" height="4.2"/>
	</g>
	<g>
		
			<rect x="392.7" y="502" transform="matrix(-1 -1.224647e-16 1.224647e-16 -1 789.6076 1008.1326)" class="st2" width="4.2" height="4.2"/>
	</g>
	<g>
		
			<rect x="416.7" y="505.7" transform="matrix(-1 -1.224647e-16 1.224647e-16 -1 837.5555 1015.6682)" class="st2" width="4.2" height="4.2"/>
	</g>
	<g>
		
			<rect x="577.3" y="445.4" transform="matrix(-1 -1.224647e-16 1.224647e-16 -1 1158.7496 895.1085)" class="st2" width="4.2" height="4.2"/>
	</g>
	<g>
		
			<rect x="412" y="531.5" transform="matrix(-1 -1.224647e-16 1.224647e-16 -1 828.2695 1067.2339)" class="st2" width="4.2" height="4.2"/>
	</g>
	<g>
		
			<rect x="463.1" y="518.1" transform="matrix(-1 -1.224647e-16 1.224647e-16 -1 930.459 1040.4598)" class="st2" width="4.2" height="4.2"/>
	</g>
	<g>
		
			<rect x="496.9" y="516.8" transform="matrix(-1 -1.224647e-16 1.224647e-16 -1 997.9474 1037.8127)" class="st2" width="4.2" height="4.2"/>
	</g>
	<g>
		
			<rect x="524.2" y="519.4" transform="matrix(-1 -1.224647e-16 1.224647e-16 -1 1052.6128 1042.9854)" class="st2" width="4.2" height="4.2"/>
	</g>
	<g>
		
			<rect x="542.1" y="510.3" transform="matrix(-1 -1.224647e-16 1.224647e-16 -1 1088.4495 1024.918)" class="st2" width="4.2" height="4.2"/>
	</g>
	<g>
		
			<rect x="541" y="491.9" transform="matrix(-1 -1.224647e-16 1.224647e-16 -1 1086.136 987.9826)" class="st2" width="4.2" height="4.2"/>
	</g>
	<g>
		
			<rect x="556.5" y="488.6" transform="matrix(-1 -1.224647e-16 1.224647e-16 -1 1117.2957 981.5079)" class="st2" width="4.2" height="4.2"/>
	</g>
	<g>
		
			<rect x="586.6" y="494.8" transform="matrix(-1 -1.224647e-16 1.224647e-16 -1 1177.4579 993.7473)" class="st2" width="4.2" height="4.2"/>
	</g>
	<g>
		
			<rect x="632.9" y="561.6" transform="matrix(-1 -1.224647e-16 1.224647e-16 -1 1270.0024 1127.3477)" class="st2" width="4.2" height="4.2"/>
	</g>
	<g>
		
			<rect x="659.7" y="545.7" transform="matrix(-1 -1.224647e-16 1.224647e-16 -1 1323.6537 1095.6531)" class="st2" width="4.2" height="4.2"/>
	</g>
	<g>
		
			<rect x="669.8" y="555.4" transform="matrix(-1 -1.224647e-16 1.224647e-16 -1 1343.9109 1115.0475)" class="st2" width="4.2" height="4.2"/>
	</g>
	<g>
		
			<rect x="840.5" y="473.1" transform="matrix(-1 -1.224647e-16 1.224647e-16 -1 1685.1837 950.3333)" class="st2" width="4.2" height="4.2"/>
	</g>
	<g>
		
			<rect x="714.6" y="551.5" transform="matrix(-1 -1.224647e-16 1.224647e-16 -1 1433.3365 1107.1759)" class="st2" width="4.2" height="4.2"/>
	</g>
	<g>
		
			<rect x="751.4" y="554.2" transform="matrix(-1 -1.224647e-16 1.224647e-16 -1 1507.0747 1112.5365)" class="st2" width="4.2" height="4.2"/>
	</g>
	<g>
		
			<rect x="785" y="493" transform="matrix(-1 -1.224647e-16 1.224647e-16 -1 1574.266 990.1447)" class="st2" width="4.2" height="4.2"/>
	</g>
	<g>
		
			<rect x="804.1" y="425.1" transform="matrix(-1 -1.224647e-16 1.224647e-16 -1 1612.4382 854.3242)" class="st2" width="4.2" height="4.2"/>
	</g>
	<g>
		
			<rect x="760.5" y="393.9" transform="matrix(-1 -1.224647e-16 1.224647e-16 -1 1525.3173 792.0104)" class="st2" width="4.2" height="4.2"/>
	</g>
	<g>
		
			<rect x="848.2" y="340.5" transform="matrix(-1 -1.224647e-16 1.224647e-16 -1 1700.5527 685.1973)" class="st2" width="4.2" height="4.2"/>
	</g>
	<g>
		
			<rect x="745.2" y="341" transform="matrix(-1 -1.224647e-16 1.224647e-16 -1 1494.6006 686.2525)" class="st2" width="4.2" height="4.2"/>
	</g>
	<g>
		
			<rect x="823" y="356.9" transform="matrix(-1 -1.224647e-16 1.224647e-16 -1 1650.1515 717.9847)" class="st2" width="4.2" height="4.2"/>
	</g>
	<g>
		
			<rect x="940.7" y="452.3" transform="matrix(-1 -1.224647e-16 1.224647e-16 -1 1885.6261 908.8246)" class="st2" width="4.2" height="4.2"/>
	</g>
	<g>
		
			<rect x="964.1" y="418.4" transform="matrix(-1 -1.224647e-16 1.224647e-16 -1 1932.4952 841.0392)" class="st2" width="4.2" height="4.2"/>
	</g>
	<g>
		
			<rect x="975.4" y="326.8" transform="matrix(-1 -1.224647e-16 1.224647e-16 -1 1955.1095 657.8987)" class="st2" width="4.2" height="4.2"/>
	</g>
	<g>
		
			<rect x="996.2" y="413.5" transform="matrix(-1 -1.224647e-16 1.224647e-16 -1 1996.5702 831.2079)" class="st2" width="4.2" height="4.2"/>
	</g>
	<g>
		
			<rect x="996.4" y="373.7" transform="matrix(-1 -1.224647e-16 1.224647e-16 -1 1997.0684 751.5894)" class="st2" width="4.2" height="4.2"/>
	</g>
	<g>
		
			<rect x="985.7" y="717.9" transform="matrix(-1 -1.224647e-16 1.224647e-16 -1 1975.6211 1440.0903)" class="st2" width="4.2" height="4.2"/>
	</g>
	<g>
		
			<rect x="956.7" y="631.7" transform="matrix(-1 -1.224647e-16 1.224647e-16 -1 1917.6705 1267.5616)" class="st2" width="4.2" height="4.2"/>
	</g>
	<g>
		
			<rect x="943.8" y="684.3" transform="matrix(-1 -1.224647e-16 1.224647e-16 -1 1891.8173 1372.8759)" class="st2" width="4.2" height="4.2"/>
	</g>
	<g>
		
			<rect x="926.6" y="611.8" transform="matrix(-1 -1.224647e-16 1.224647e-16 -1 1857.3892 1227.7769)" class="st2" width="4.2" height="4.2"/>
	</g>
	<g>
		
			<rect x="924.3" y="632.4" transform="matrix(-1 -1.224647e-16 1.224647e-16 -1 1852.8451 1269.0614)" class="st2" width="4.2" height="4.2"/>
	</g>
	<g>
		
			<rect x="890.6" y="566.7" transform="matrix(-1 -1.224647e-16 1.224647e-16 -1 1785.5167 1137.5413)" class="st2" width="4.2" height="4.2"/>
	</g>
	<g>
		
			<rect x="831" y="628.5" transform="matrix(-1 -1.224647e-16 1.224647e-16 -1 1666.1821 1261.167)" class="st2" width="4.2" height="4.2"/>
	</g>
	<g>
		
			<rect x="820.2" y="566.6" transform="matrix(-1 -1.224647e-16 1.224647e-16 -1 1644.6727 1137.4128)" class="st2" width="4.2" height="4.2"/>
	</g>
	<g>
		
			<rect x="780" y="666.4" transform="matrix(-1 -1.224647e-16 1.224647e-16 -1 1564.2861 1336.9978)" class="st2" width="4.2" height="4.2"/>
	</g>
	<g>
		
			<rect x="810.9" y="524.1" transform="matrix(-1 -1.224647e-16 1.224647e-16 -1 1625.9545 1052.4946)" class="st2" width="4.2" height="4.2"/>
	</g>
	<g>
		
			<rect x="813.7" y="501.6" transform="matrix(-1 -1.224647e-16 1.224647e-16 -1 1631.5833 1007.3628)" class="st2" width="4.2" height="4.2"/>
	</g>
	<g>
		
			<rect x="813.8" y="621.1" transform="matrix(-1 -1.224647e-16 1.224647e-16 -1 1631.9169 1246.5129)" class="st2" width="4.2" height="4.2"/>
	</g>
	<g>
		
			<rect x="790.2" y="585.1" transform="matrix(-1 -1.224647e-16 1.224647e-16 -1 1584.6328 1174.3885)" class="st2" width="4.2" height="4.2"/>
	</g>
	<g>
		
			<rect x="742.7" y="708.3" transform="matrix(-1 -1.224647e-16 1.224647e-16 -1 1489.6505 1420.8718)" class="st2" width="4.2" height="4.2"/>
	</g>
	<g>
		
			<rect x="700.3" y="582.8" transform="matrix(-1 -1.224647e-16 1.224647e-16 -1 1404.752 1169.7675)" class="st2" width="4.2" height="4.2"/>
	</g>
	<g>
		
			<rect x="648.6" y="684" transform="matrix(-1 -1.224647e-16 1.224647e-16 -1 1301.4264 1372.1411)" class="st2" width="4.2" height="4.2"/>
	</g>
	<g>
		
			<rect x="601.1" y="577.4" transform="matrix(-1 -1.224647e-16 1.224647e-16 -1 1206.3563 1159.0486)" class="st2" width="4.2" height="4.2"/>
	</g>
	<g>
		
			<rect x="898.3" y="517" transform="matrix(-1 -1.224647e-16 1.224647e-16 -1 1800.8723 1038.2166)" class="st2" width="4.2" height="4.2"/>
	</g>
	<g>
		
			<rect x="599.6" y="547.8" transform="matrix(-1 -1.224647e-16 1.224647e-16 -1 1203.5034 1099.7988)" class="st2" width="4.2" height="4.2"/>
	</g>
	<g>
		
			<rect x="627.2" y="695.7" transform="matrix(-1 -1.224647e-16 1.224647e-16 -1 1258.5851 1395.6908)" class="st2" width="4.2" height="4.2"/>
	</g>
	<g>
		
			<rect x="537.4" y="584.9" transform="matrix(-1 -1.224647e-16 1.224647e-16 -1 1078.924 1173.9523)" class="st2" width="4.2" height="4.2"/>
	</g>
	<g>
		
			<rect x="564.5" y="683.8" transform="matrix(-1 -1.224647e-16 1.224647e-16 -1 1133.1715 1371.7642)" class="st2" width="4.2" height="4.2"/>
	</g>
	<g>
		
			<rect x="469.7" y="644.7" transform="matrix(-1 -1.224647e-16 1.224647e-16 -1 943.5425 1293.6117)" class="st2" width="4.2" height="4.2"/>
	</g>
	<g>
		
			<rect x="524.6" y="724.4" transform="matrix(-1 -1.224647e-16 1.224647e-16 -1 1053.4884 1452.9994)" class="st2" width="4.2" height="4.2"/>
	</g>
	<g>
		
			<rect x="452.1" y="699.8" transform="matrix(-1 -1.224647e-16 1.224647e-16 -1 908.3946 1403.8075)" class="st2" width="4.2" height="4.2"/>
	</g>
	<g>
		
			<rect x="480" y="694" transform="matrix(-1 -1.224647e-16 1.224647e-16 -1 964.1252 1392.3186)" class="st2" width="4.2" height="4.2"/>
	</g>
	<g>
		
			<rect x="409.8" y="671.1" transform="matrix(-1 -1.224647e-16 1.224647e-16 -1 823.7491 1346.4229)" class="st2" width="4.2" height="4.2"/>
	</g>
	<g>
		
			<rect x="433.9" y="700.1" transform="matrix(-1 -1.224647e-16 1.224647e-16 -1 872.0651 1404.3827)" class="st2" width="4.2" height="4.2"/>
	</g>
	<g>
		
			<rect x="330" y="634.4" transform="matrix(-1 -1.224647e-16 1.224647e-16 -1 664.2368 1273.0168)" class="st2" width="4.2" height="4.2"/>
	</g>
	<g>
		
			<rect x="365.5" y="724.1" transform="matrix(-1 -1.224647e-16 1.224647e-16 -1 735.2378 1452.3737)" class="st2" width="4.2" height="4.2"/>
	</g>
	<g>
		
			<rect x="262.3" y="694" transform="matrix(-1 -1.224647e-16 1.224647e-16 -1 528.9159 1392.1837)" class="st2" width="4.2" height="4.2"/>
	</g>
	<g>
		
			<rect x="307.2" y="727.9" transform="matrix(-1 -1.224647e-16 1.224647e-16 -1 618.64 1459.9803)" class="st2" width="4.2" height="4.2"/>
	</g>
	<g>
		
			<rect x="174.1" y="686.4" transform="matrix(-1 -1.224647e-16 1.224647e-16 -1 352.3315 1376.9417)" class="st2" width="4.2" height="4.2"/>
	</g>
	<g>
		
			<rect x="234.6" y="714.5" transform="matrix(-1 -1.224647e-16 1.224647e-16 -1 473.4545 1433.2843)" class="st2" width="4.2" height="4.2"/>
	</g>
	<g>
		
			<rect x="141.9" y="633.8" transform="matrix(-1 -1.224647e-16 1.224647e-16 -1 288.0789 1271.7375)" class="st2" width="4.2" height="4.2"/>
	</g>
	<g>
		
			<rect x="171.1" y="655.6" transform="matrix(-1 -1.224647e-16 1.224647e-16 -1 346.3794 1315.4851)" class="st2" width="4.2" height="4.2"/>
	</g>
	<g>
		
			<rect x="78.7" y="578.2" transform="matrix(-1 -1.224647e-16 1.224647e-16 -1 161.7047 1160.6251)" class="st2" width="4.2" height="4.2"/>
	</g>
	<g>
		
			<rect x="129.9" y="566.6" transform="matrix(-1 -1.224647e-16 1.224647e-16 -1 264.0212 1137.3944)" class="st2" width="4.2" height="4.2"/>
	</g>
	<g>
		
			<rect x="43.3" y="589.5" transform="matrix(-1 -1.224647e-16 1.224647e-16 -1 90.7914 1183.2384)" class="st2" width="4.2" height="4.2"/>
	</g>
	<g>
		
			<rect x="81.2" y="600.9" transform="matrix(-1 -1.224647e-16 1.224647e-16 -1 166.6393 1205.9285)" class="st2" width="4.2" height="4.2"/>
	</g>
	<g>
		
			<rect x="334.4" y="696.1" transform="matrix(-1 -1.224647e-16 1.224647e-16 -1 672.9668 1396.4573)" class="st2" width="4.2" height="4.2"/>
	</g>
	<g>
		
			<rect x="548.8" y="742.9" transform="matrix(-1 -1.224647e-16 1.224647e-16 -1 1101.8499 1490.1038)" class="st2" width="4.2" height="4.2"/>
	</g>
	
		<use xlink:href="#quadratino"  width="4.2" height="4.2" x="-2.1" y="-2.1" transform="matrix(1 0 0 -1 849 140)" style="overflow:visible;"/>
	<rect x="569" y="813" class="st9" width="12" height="12"/>
	<rect x="477" y="799" class="st9" width="12" height="12"/>
	<rect x="769" y="796" class="st9" width="12" height="12"/>
	<rect x="217" y="799" class="st9" width="12" height="12"/>
	<text transform="matrix(1 0 0 1 2036 930)"><tspan x="0" y="0" class="st2 st6 st8">xxx people</tspan><tspan x="0" y="14.4" class="st2 st6 st8">online</tspan></text>
	<rect x="2014" y="920" class="st9" width="12" height="12"/>
	<text transform="matrix(1 0 0 1 799 1019)"><tspan x="0" y="0" class="st2 st6 st8">xxx data updated</tspan><tspan x="0" y="14.4" class="st2 st6 st8">online per minute</tspan></text>
	<rect x="776" y="1009" class="st2" width="12" height="12"/>
	<rect x="2014" y="920" class="st9" width="12" height="12"/>
	<rect x="776" y="1009" class="st2" width="12" height="12"/>
	<rect x="2014" y="920" class="st9" width="12" height="12"/>
	<rect x="776" y="1009" class="st2" width="12" height="12"/>
	<rect x="2014" y="920" class="st9" width="12" height="12"/>
	<rect x="776" y="1009" class="st2" width="12" height="12"/>
	<g>
		
			<rect x="465.3" y="414" transform="matrix(-1 -1.224647e-16 1.224647e-16 -1 934.7458 832.2471)" class="st2" width="4.2" height="4.2"/>
	</g>
	<g>
		
			<rect x="496.5" y="419.5" transform="matrix(-1 -1.224647e-16 1.224647e-16 -1 997.1501 843.3019)" class="st2" width="4.2" height="4.2"/>
	</g>
	<g>
		
			<rect x="463" y="453" transform="matrix(-1 -1.224647e-16 1.224647e-16 -1 930.266 910.1447)" class="st2" width="4.2" height="4.2"/>
	</g>
	<g>
		
			<rect x="491.7" y="461.6" transform="matrix(-1 -1.224647e-16 1.224647e-16 -1 987.5833 927.3628)" class="st2" width="4.2" height="4.2"/>
	</g>
</g>
</svg>
