<svg xmlns="http://www.w3.org/2000/svg" viewBox="0 0 38 38">
  <defs>
    <style>
      .cls-1 {
        fill: #fff;
      }

      .cls-2 {
        fill: #178d9a;
      }
    </style>
  </defs>
  <title>Risorsa 1</title>
  <g id="Livello_2" data-name="Livello 2">
    <g id="Sidebar_contenuto">
      <g>
        <g>
          <circle class="cls-1" cx="19.00012" cy="18.99985" r="18"/>
          <path d="M19,2A17,17,0,1,1,2,19,17,17,0,0,1,19,2m0-2A19,19,0,1,0,38,19,19.02148,19.02148,0,0,0,19,0Z"/>
        </g>
        <g>
          <path class="cls-2" d="M30.72364,9.85846a3.33507,3.33507,0,0,0-.22957,3.67632,11.39207,11.39207,0,0,1,1.17973,6.94669A12.69424,12.69424,0,0,1,16.24827,31.50822a39.60229,39.60229,0,0,1-4.41467-1.58636c.03492-.02949-.03614.00107-.05566.05176-.13521.35118-.23823.71639-.39263,1.0583-.23658.52392-.02407.77651.4407,1.02491a14.14766,14.14766,0,0,0,11.06518,1.29363c6.19989-1.86375,9.84344-6.08475,10.77051-12.56435A14.58948,14.58948,0,0,0,30.72364,9.85846Z"/>
          <path class="cls-2" d="M25.89434,7.88722a3.55318,3.55318,0,0,1,.25728-.61342c.51621-.85255.2324-1.29256-.63573-1.6894a14.47649,14.47649,0,0,0-13.77509.43728A14.79049,14.79049,0,0,0,4.42256,21.63152a12.64892,12.64892,0,0,0,2.74,6.11511c.081-.97886,1.0955-1.71643.516-2.84867a13.03057,13.03057,0,0,1-1.33314-7.579c.788-7.09353,8.06684-12.493,14.975-10.93675C22.85481,6.72788,24.32506,7.36243,25.89434,7.88722Z"/>
          <path class="cls-2" d="M10.60216,31.18182c1.71087-4.70231,3.40318-9.35359,5.09548-14.00487l.33258.041c.18309.38323.37955.76064.54688,1.15073a45.84421,45.84421,0,0,0,1.92,4.39609,5.00332,5.00332,0,0,0,2.01875,1.97144c1.817.88591,3.80408-.09261,4.64748-2.26067,1.63881-4.21274,3.16383-8.47025,4.7671-12.69725.25231-.6652-.01552-.98741-.56742-1.32853-.12658.31761-.24605.6013-.35353.88952-1.56846,4.20623-3.12192,8.4182-4.71156,12.61628a2.63468,2.63468,0,0,1-5.084.09722c-.68365-1.51622-1.27948-3.07241-1.929-4.60455a4.5294,4.5294,0,0,0-.58051-1.0682.961.961,0,0,0-1.657.01783,3.30852,3.30852,0,0,0-.48968.90382c-1.52163,4.18934-3.01719,8.38835-4.55783,12.57054C9.76186,30.51839,9.87023,30.88983,10.60216,31.18182Z"/>
          <path class="cls-2" d="M8.418,29.28267c.828-2.25658,1.63461-4.49165,2.46831-6.7164.8586-2.29118,1.71535-4.58388,2.63021-6.85248a2.50629,2.50629,0,0,1,2.28216-1.70361,2.58346,2.58346,0,0,1,2.37114,1.42819,8.146,8.146,0,0,1,.59045,1.17681c.59885,1.45024,1.12532,2.9342,1.79715,4.34857.22624.47627.80843,1.08775,1.22015,1.0819.41347-.00588.83081-.69113,1.21709-1.10635a1.53575,1.53575,0,0,0,.20489-.52221q1.375-3.80824,2.75023-7.61637c.68159-1.87863,1.37289-3.75368,2.0691-5.65553l-.84905-.5335c-.10151.2462-.17881.416-.24249.59074q-2.33677,6.41316-4.68209,12.82311a2.81426,2.81426,0,0,1-.53058.67528,3.6359,3.6359,0,0,1-.46017-.64937c-.64911-1.5319-1.23354-3.09293-1.92191-4.60624a3.636,3.636,0,0,0-3.56358-2.452,3.70222,3.70222,0,0,0-3.36934,2.71918C10.90326,19.74416,9.41455,23.779,7.87789,27.79519A1.02943,1.02943,0,0,0,8.418,29.28267Z"/>
          <path class="cls-2" d="M28.70439,7.63738l-.30261-.00091c-.12394.31132-.25608.61962-.37059.93442-1.42786,3.9256-2.84749,7.85425-4.28586,11.77594a6.51022,6.51022,0,0,1-.73227,1.5168,1.39887,1.39887,0,0,1-2.48308.03148,8.04133,8.04133,0,0,1-.80115-1.59014c-.6828-1.5516-1.31266-3.12793-2.03424-4.66069a1.90154,1.90154,0,0,0-1.90772-1.141,2.0822,2.0822,0,0,0-1.834,1.42506q-2.505,6.65828-4.96884,13.33211c-.09713.2643.06161.624.10129.93925l.25294-.016c.09123-.23152.18814-.461.27283-.69488q2.18191-6.026,4.36454-12.05168c.3488-.95817.72811-2.05071,1.93089-2.03484,1.12931.01489,1.51651,1.05744,1.896,1.97676.64741,1.56824,1.27885,3.14452,1.98049,4.68815a2.08472,2.08472,0,0,0,3.97624-.11563q2.55111-6.74176,5.02741-13.51209C28.86975,8.21331,28.73676,7.9066,28.70439,7.63738Z"/>
          <path class="cls-2" d="M30.72364,9.85846A14.58948,14.58948,0,0,1,33.6617,20.78611c-.92707,6.4796-4.57062,10.7006-10.77051,12.56435A14.14766,14.14766,0,0,1,11.826,32.05683c-.46477-.2484-.67728-.501-.4407-1.02491.1544-.34191.25742-.70712.39263-1.0583.01952-.05069.09058-.08125.05566-.05176a39.60229,39.60229,0,0,0,4.41467,1.58636A12.69424,12.69424,0,0,0,31.6738,20.48147a11.39207,11.39207,0,0,0-1.17973-6.94669A3.33507,3.33507,0,0,1,30.72364,9.85846Z"/>
          <path class="cls-2" d="M25.89434,7.88722c-1.56928-.52479-3.03953-1.15934-4.57395-1.505-6.90812-1.55629-14.187,3.84322-14.975,10.93675a13.03057,13.03057,0,0,0,1.33314,7.579c.57952,1.13224-.435,1.86981-.516,2.84867a12.64892,12.64892,0,0,1-2.74-6.11511A14.79049,14.79049,0,0,1,11.7408,6.02168,14.47649,14.47649,0,0,1,25.51589,5.5844c.86813.39684,1.15194.83685.63573,1.6894A3.55318,3.55318,0,0,0,25.89434,7.88722Z"/>
          <path class="cls-2" d="M10.60216,31.18182c-.73193-.292-.8403-.66343-.60228-1.30955,1.54064-4.18219,3.0362-8.3812,4.55783-12.57054a3.30852,3.30852,0,0,1,.48968-.90382.961.961,0,0,1,1.657-.01783,4.5294,4.5294,0,0,1,.58051,1.0682c.64954,1.53214,1.24537,3.08833,1.929,4.60455a2.63468,2.63468,0,0,0,5.084-.09722c1.58964-4.19808,3.1431-8.41,4.71156-12.61628.10748-.28822.22695-.57191.35353-.88952.5519.34112.81973.66333.56742,1.32853-1.60327,4.227-3.12829,8.48451-4.7671,12.69725-.8434,2.16806-2.83046,3.14658-4.64748,2.26067a5.00332,5.00332,0,0,1-2.01875-1.97144,45.84421,45.84421,0,0,1-1.92-4.39609c-.16733-.39009-.36379-.7675-.54688-1.15073l-.33258-.041C14.00534,21.82823,12.313,26.47951,10.60216,31.18182Z"/>
          <path class="cls-2" d="M8.418,29.28267a1.02943,1.02943,0,0,1-.54007-1.48748c1.53666-4.01619,3.02537-8.051,4.52174-12.08278A3.70222,3.70222,0,0,1,15.769,12.99323a3.636,3.636,0,0,1,3.56358,2.452c.68837,1.51331,1.2728,3.07434,1.92191,4.60624a3.6359,3.6359,0,0,0,.46017.64937,2.81426,2.81426,0,0,0,.53058-.67528q2.35854-6.405,4.68209-12.82311c.06368-.17478.141-.34454.24249-.59074l.84905.5335c-.69621,1.90185-1.38751,3.7769-2.0691,5.65553q-1.38087,3.80607-2.75023,7.61637a1.53575,1.53575,0,0,1-.20489.52221c-.38628.41522-.80362,1.10047-1.21709,1.10635-.41172.00585-.99391-.60563-1.22015-1.0819-.67183-1.41437-1.1983-2.89833-1.79715-4.34857a8.146,8.146,0,0,0-.59045-1.17681,2.58346,2.58346,0,0,0-2.37114-1.42819,2.50629,2.50629,0,0,0-2.28216,1.70361c-.91486,2.2686-1.77161,4.5613-2.63021,6.85248C10.05257,24.791,9.246,27.02609,8.418,29.28267Z"/>
          <path class="cls-2" d="M28.70439,7.63738c.03237.26922.16536.57593.08226.80213Q26.3009,15.206,23.75924,21.9516a2.08472,2.08472,0,0,1-3.97624.11563c-.70164-1.54363-1.33308-3.11991-1.98049-4.68815-.37952-.91932-.76672-1.96187-1.896-1.97676-1.20278-.01587-1.58209,1.07667-1.93089,2.03484q-2.19222,6.02217-4.36454,12.05168c-.08469.23392-.1816.46336-.27283.69488l-.25294.016c-.03968-.31529-.19842-.67495-.10129-.93925q2.4539-6.67746,4.96884-13.33211a2.0822,2.0822,0,0,1,1.834-1.42506,1.90154,1.90154,0,0,1,1.90772,1.141c.72158,1.53276,1.35144,3.10909,2.03424,4.66069A8.04133,8.04133,0,0,0,20.53,21.89511a1.39887,1.39887,0,0,0,2.48308-.03148,6.51022,6.51022,0,0,0,.73227-1.5168c1.43837-3.92169,2.858-7.85034,4.28586-11.77594.11451-.3148.24665-.6231.37059-.93442Z"/>
        </g>
      </g>
    </g>
  </g>
</svg>
