<?xml version="1.0" encoding="utf-8"?>
<!-- Generator: Adobe Illustrator 22.1.0, SVG Export Plug-In . SVG Version: 6.00 Build 0)  -->
<svg version="1.1" xmlns="http://www.w3.org/2000/svg" xmlns:xlink="http://www.w3.org/1999/xlink" x="0px" y="0px"
	 viewBox="0 0 804 481.6" style="enable-background:new 0 0 804 481.6;" xml:space="preserve">
<style type="text/css">
	.st0{fill:none;}
	.st1{fill:#F37122;}
	.st2{fill:none;stroke:#F37122;stroke-width:0.3457;stroke-miterlimit:10;}
	.st3{fill:#8DC63F;}
	.st4{fill:none;stroke:#8DC63F;stroke-width:0.3457;stroke-miterlimit:10;}
	.st5{fill:#808285;}
	.st6{fill:none;stroke:#808285;stroke-width:0.3457;stroke-miterlimit:10;}
	.st7{fill:#009444;}
	.st8{fill:none;stroke:#009444;stroke-width:0.3457;stroke-miterlimit:10;}
	.st9{fill:#8B5E3C;}
	.st10{fill:none;stroke:#8B5E3C;stroke-width:0.3457;stroke-miterlimit:10;}
	.st11{fill:#662D91;}
	.st12{fill:none;stroke:#662D91;stroke-width:0.3457;stroke-miterlimit:10;}
	.st13{fill:none;stroke:#662D91;stroke-width:0.6583;stroke-miterlimit:10;}
	.st14{fill:#4EB749;}
	.st15{fill:none;stroke:#39B54A;stroke-width:0.3457;stroke-miterlimit:10;}
	.st16{fill:#006838;}
	.st17{fill:none;stroke:#006838;stroke-width:0.3457;stroke-miterlimit:10;}
	.st18{fill:#F15A29;}
	.st19{fill:none;stroke:#F15A29;stroke-width:0.3457;stroke-miterlimit:10;}
	.st20{font-family:'FiraSans-Regular';}
	.st21{font-size:10px;}
	.st22{fill:none;stroke:#F37122;stroke-width:0.6583;stroke-miterlimit:10;}
	.st23{fill:none;stroke:#92C83E;stroke-width:0.6583;stroke-miterlimit:10;}
	.st24{fill:none;stroke:#009444;stroke-width:0.6583;stroke-miterlimit:10;}
	.st25{fill:none;stroke:#808285;stroke-width:0.6583;stroke-miterlimit:10;}
	.st26{fill:none;stroke:#603913;stroke-width:0.6583;stroke-miterlimit:10;}
	.st27{fill:none;stroke:#006838;stroke-width:0.6583;stroke-miterlimit:10;}
	.st28{fill:none;stroke:#4EB749;stroke-width:0.6583;stroke-miterlimit:10;}
	.st29{fill:none;stroke:#F15A29;stroke-width:0.6583;stroke-miterlimit:10;}
	.st30{fill:#FFFFFF;}
	.st31{font-size:9px;}
</style>
<g id="图层_1">
	<rect y="-2" class="st0" width="804" height="483.6"/>
	<path class="st1" d="M163.4,249.2l0-0.7c102.4-0.3,154.6-36.4,205.2-71.4c25.3-17.5,51.5-35.6,83.6-49c36-15,75.9-22.4,121.9-22.5
		l0,0.7c-102.4,0.3-154.6,36.4-205.2,71.4c-25.3,17.5-51.5,35.6-83.6,49C249.3,241.7,209.4,249.1,163.4,249.2z"/>
	<g>
		<path class="st2" d="M162.2,250.2c-0.7,0-1.3-0.6-1.3-1.3c0-0.7,0.6-1.4,1.3-1.4c0.7,0,1.3,0.6,1.3,1.3
			C163.5,249.5,162.9,250.2,162.2,250.2z"/>
		<path class="st2" d="M162.2,250.4c0.8,0,1.5-0.7,1.5-1.6c0-0.8-0.7-1.5-1.5-1.5c-0.8,0-1.5,0.7-1.5,1.6
			C160.7,249.7,161.4,250.4,162.2,250.4C163,250.3,161.4,250.4,162.2,250.4z M162.1,247.7c0.6,0,1.1,0.5,1.2,1.1
			c0,0.6-0.5,1.2-1.1,1.2c-0.6,0-1.1-0.5-1.2-1.1C161,248.2,161.5,247.7,162.1,247.7C162.8,247.7,161.5,247.7,162.1,247.7z"/>
	</g>
	<path class="st3" d="M163.4,252.8l0-0.7c102.4-0.2,154.7-21.2,205.2-41.6c50.6-20.4,102.9-41.4,205.4-41.6l0,0.7
		c-102.4,0.2-154.7,21.2-205.2,41.6C318.2,231.6,265.9,252.7,163.4,252.8z"/>
	<g>
		<path class="st4" d="M162.2,253.8c-0.7,0-1.3-0.6-1.3-1.3c0-0.7,0.6-1.4,1.3-1.4c0.7,0,1.3,0.6,1.3,1.3
			C163.5,253.2,162.9,253.8,162.2,253.8z"/>
		<path class="st4" d="M162.2,254c0.8,0,1.5-0.7,1.5-1.5c0-0.8-0.7-1.5-1.5-1.5c-0.8,0-1.5,0.7-1.5,1.5
			C160.7,253.3,161.3,254,162.2,254C163,254,161.3,254,162.2,254z M162.1,251.3c0.6,0,1.1,0.5,1.1,1.2c0,0.6-0.5,1.2-1.1,1.2
			c-0.6,0-1.1-0.5-1.1-1.2C161,251.8,161.5,251.3,162.1,251.3C162.8,251.3,161.5,251.3,162.1,251.3z"/>
	</g>
	<path class="st5" d="M574.1,289.1c-102.5-0.1-154.8-8.3-205.4-16.3c-50.6-8-102.9-16.3-205.3-16.3v-0.7
		c102.5,0.1,154.8,8.3,205.4,16.3c50.6,8,102.9,16.3,205.3,16.3V289.1z"/>
	<g>
		<path class="st6" d="M162.1,257.5c-0.7,0-1.3-0.6-1.3-1.4c0-0.7,0.6-1.3,1.3-1.3c0.7,0,1.3,0.6,1.3,1.4
			C163.5,256.9,162.9,257.5,162.1,257.5z"/>
		<path class="st6" d="M162.1,257.6c0.8,0,1.5-0.7,1.5-1.5c0-0.8-0.7-1.5-1.5-1.5c-0.8,0-1.5,0.7-1.5,1.5
			C160.7,257,161.3,257.6,162.1,257.6C163,257.7,161.3,257.6,162.1,257.6z M162.2,255c0.6,0,1.1,0.5,1.1,1.2c0,0.6-0.5,1.2-1.1,1.2
			c-0.6,0-1.1-0.5-1.1-1.2C161,255.5,161.5,255,162.2,255C162.8,255,161.5,255,162.2,255z"/>
	</g>
	<path class="st1" d="M163.4,88.7V88c102.5,0,154.8-0.1,205.3-0.3c50.6-0.1,102.9-0.3,205.3-0.3v0.7c-102.5,0-154.8,0.1-205.3,0.3
		C318.2,88.6,265.9,88.7,163.4,88.7z"/>
	<g>
		<path class="st2" d="M162.2,89.7c-0.7,0-1.3-0.6-1.3-1.3c0-0.7,0.6-1.3,1.3-1.3c0.7,0,1.3,0.6,1.3,1.3
			C163.5,89.1,162.9,89.7,162.2,89.7z"/>
		<path class="st2" d="M162.2,89.9c0.8,0,1.5-0.7,1.5-1.5c0-0.8-0.7-1.5-1.5-1.5s-1.5,0.7-1.5,1.5S161.3,89.9,162.2,89.9
			S161.3,89.9,162.2,89.9z M162.2,87.2c0.6,0,1.1,0.5,1.1,1.2s-0.5,1.2-1.1,1.2c-0.6,0-1.1-0.5-1.1-1.2
			C161,87.7,161.5,87.2,162.2,87.2C162.8,87.2,161.5,87.2,162.2,87.2z"/>
	</g>
	<path class="st3" d="M574.1,155.2c-102.5-0.1-154.8-16-205.4-31.4c-50.6-15.4-102.8-31.3-205.3-31.4l0-0.7
		c102.5,0.1,154.8,16,205.4,31.4c50.6,15.4,102.8,31.3,205.3,31.4L574.1,155.2z"/>
	<g>
		<path class="st4" d="M162.1,93.3c-0.7,0-1.3-0.6-1.3-1.4c0-0.7,0.6-1.3,1.3-1.3c0.7,0,1.3,0.6,1.3,1.4
			C163.5,92.8,162.9,93.4,162.1,93.3z"/>
		<path class="st4" d="M162.1,93.5c0.8,0,1.5-0.7,1.5-1.5c0-0.8-0.7-1.5-1.5-1.5c-0.8,0-1.5,0.7-1.5,1.5
			C160.7,92.8,161.3,93.5,162.1,93.5C163,93.5,161.3,93.5,162.1,93.5z M162.2,90.8c0.6,0,1.1,0.5,1.1,1.2c0,0.6-0.5,1.2-1.1,1.2
			c-0.6,0-1.1-0.5-1.1-1.2C161,91.4,161.5,90.8,162.2,90.8C162.8,90.8,161.5,90.8,162.2,90.8z"/>
	</g>
	<path class="st7" d="M574.1,214.9c-102.5-0.2-154.9-30.4-205.5-59.5C318.1,126.3,265.8,96.2,163.4,96l0-0.7
		c102.5,0.2,154.9,30.4,205.5,59.5c50.5,29.1,102.8,59.2,205.2,59.4L574.1,214.9z"/>
	<g>
		<path class="st8" d="M162.1,97c-0.7,0-1.3-0.6-1.3-1.4s0.6-1.3,1.3-1.3c0.7,0,1.3,0.6,1.3,1.4C163.5,96.4,162.9,97,162.1,97z"/>
		<path class="st8" d="M162.1,97.2c0.8,0,1.5-0.7,1.5-1.5c0-0.8-0.6-1.5-1.5-1.5c-0.8,0-1.5,0.7-1.5,1.5
			C160.7,96.5,161.3,97.2,162.1,97.2C162.9,97.2,161.3,97.2,162.1,97.2z M162.2,94.5c0.6,0,1.1,0.5,1.1,1.2c0,0.6-0.5,1.2-1.2,1.1
			c-0.6,0-1.1-0.5-1.1-1.2C161,95,161.5,94.5,162.2,94.5C162.8,94.5,161.5,94.5,162.2,94.5z"/>
	</g>
	<path class="st5" d="M574.1,271c-46-0.2-85.9-9-121.9-27c-32.1-16.1-58.3-37.8-83.6-58.8C318,143.3,265.8,99.9,163.4,99.6l0-0.7
		c46,0.2,85.9,9,121.9,27c32.1,16.1,58.3,37.8,83.6,58.8c50.5,41.9,102.8,85.3,205.2,85.6L574.1,271z"/>
	<g>
		<path class="st6" d="M162.1,100.6c-0.7,0-1.3-0.6-1.3-1.4c0-0.7,0.6-1.3,1.3-1.3c0.7,0,1.3,0.6,1.3,1.4
			C163.5,100,162.9,100.6,162.1,100.6z"/>
		<path class="st6" d="M162.1,100.8c0.8,0,1.5-0.7,1.5-1.5s-0.6-1.5-1.5-1.5c-0.8,0-1.5,0.7-1.5,1.5
			C160.7,100.1,161.3,100.8,162.1,100.8C163,100.8,161.3,100.8,162.1,100.8z M162.2,98.1c0.6,0,1.1,0.5,1.1,1.2
			c0,0.6-0.5,1.2-1.1,1.2c-0.6,0-1.1-0.5-1.1-1.2S161.5,98.1,162.2,98.1C162.8,98.1,161.5,98.1,162.2,98.1z"/>
	</g>
	<path class="st1" d="M163.4,112.2v-0.7c102.5,0,154.7-5.2,205.3-10.2c50.6-5,102.9-10.1,205.4-10.2v0.7
		c-102.5,0-154.7,5.2-205.3,10.2C318.2,107,265.9,112.1,163.4,112.2z"/>
	<g>
		<path class="st2" d="M162.2,113.1c-0.7,0-1.3-0.6-1.3-1.3c0-0.7,0.6-1.3,1.3-1.4c0.7,0,1.3,0.6,1.3,1.3S162.9,113.1,162.2,113.1z"
			/>
		<path class="st2" d="M162.2,113.3c0.8,0,1.5-0.7,1.5-1.5c0-0.8-0.7-1.5-1.5-1.5c-0.8,0-1.5,0.7-1.5,1.5
			C160.7,112.7,161.3,113.3,162.2,113.3C163,113.3,161.3,113.3,162.2,113.3z M162.1,110.6c0.6,0,1.1,0.5,1.1,1.2
			c0,0.6-0.5,1.2-1.1,1.2c-0.6,0-1.1-0.5-1.1-1.2C161,111.2,161.5,110.6,162.1,110.6C162.8,110.6,161.5,110.6,162.1,110.6z"/>
	</g>
	<path class="st7" d="M574.1,218.5c-102.5-0.2-154.9-26.2-205.5-51.4C318.1,142,265.8,116,163.4,115.8l0-0.7
		c102.5,0.2,154.9,26.2,205.5,51.4c50.5,25.1,102.8,51.1,205.2,51.3L574.1,218.5z"/>
	<g>
		<path class="st8" d="M162.1,116.8c-0.7,0-1.3-0.6-1.3-1.4c0-0.7,0.6-1.3,1.3-1.3s1.3,0.6,1.3,1.4
			C163.5,116.2,162.9,116.8,162.1,116.8z"/>
		<path class="st8" d="M162.1,117c0.8,0,1.5-0.7,1.5-1.5c0-0.8-0.6-1.5-1.5-1.5c-0.8,0-1.5,0.7-1.5,1.5
			C160.7,116.3,161.3,117,162.1,117C163,117,161.3,117,162.1,117z M162.2,114.3c0.6,0,1.1,0.5,1.1,1.2c0,0.6-0.5,1.2-1.2,1.1
			c-0.6,0-1.1-0.5-1.1-1.2C161,114.8,161.5,114.3,162.2,114.3C162.8,114.3,161.5,114.3,162.2,114.3z"/>
	</g>
	<path class="st9" d="M574.1,312.6c-46-0.2-85.9-9.9-121.9-29.9c-32.1-17.8-58.3-41.8-83.6-65c-50.5-46.4-102.8-94.3-205.2-94.7
		l0-0.7c46,0.2,85.9,9.9,121.9,29.9c32.1,17.8,58.3,41.8,83.6,65c50.5,46.4,102.8,94.3,205.2,94.7L574.1,312.6z"/>
	<g>
		<path class="st10" d="M162.1,124.1c-0.7,0-1.3-0.6-1.3-1.4c0-0.7,0.6-1.3,1.3-1.3c0.7,0,1.3,0.6,1.3,1.4
			C163.5,123.5,162.9,124.1,162.1,124.1z"/>
		<path class="st10" d="M162.1,124.2c0.8,0,1.5-0.7,1.5-1.5c0-0.8-0.6-1.5-1.5-1.5c-0.8,0-1.5,0.7-1.5,1.5
			C160.7,123.5,161.3,124.2,162.1,124.2C163,124.2,161.3,124.2,162.1,124.2z M162.2,121.5c0.6,0,1.1,0.5,1.1,1.2
			c0,0.6-0.5,1.2-1.2,1.2c-0.6,0-1.1-0.5-1.1-1.2C161,122.1,161.5,121.5,162.2,121.5C162.8,121.6,161.5,121.5,162.2,121.5z"/>
	</g>
	<path class="st5" d="M574.1,274.6c-46-0.1-85.9-8.1-121.9-24.4C420,235.6,393.9,216,368.6,197c-50.5-38-102.8-77.2-205.2-77.5
		l0-0.7c46,0.1,85.9,8.1,121.9,24.4c32.1,14.5,58.3,34.2,83.6,53.2c50.5,38,102.8,77.2,205.2,77.5L574.1,274.6z"/>
	<g>
		<path class="st6" d="M162.1,120.4c-0.7,0-1.3-0.6-1.3-1.4c0-0.7,0.6-1.3,1.3-1.3c0.7,0,1.3,0.6,1.3,1.4
			C163.4,119.9,162.9,120.5,162.1,120.4z"/>
		<path class="st6" d="M162.1,120.6c0.8,0,1.5-0.7,1.5-1.5c0-0.8-0.6-1.5-1.5-1.6c-0.8,0-1.5,0.7-1.5,1.5
			C160.7,119.9,161.3,120.6,162.1,120.6C162.9,120.6,161.3,120.6,162.1,120.6z M162.2,117.9c0.6,0,1.1,0.5,1.1,1.2
			c0,0.6-0.5,1.2-1.2,1.1c-0.6,0-1.1-0.5-1.1-1.2C161,118.4,161.5,117.9,162.2,117.9C162.8,117.9,161.5,117.9,162.2,117.9z"/>
	</g>
	<path class="st1" d="M163.4,269l0-0.7c102.4-0.3,154.6-40.6,205.2-79.5c25.3-19.5,51.5-39.6,83.6-54.5
		c36-16.7,75.9-24.9,121.9-25.1l0,0.7c-102.4,0.3-154.6,40.6-205.2,79.5c-25.3,19.5-51.5,39.6-83.6,54.5
		C249.3,260.7,209.4,268.9,163.4,269z"/>
	<g>
		<path class="st2" d="M162.2,270c-0.7,0-1.3-0.6-1.3-1.3c0-0.7,0.6-1.4,1.3-1.4c0.7,0,1.3,0.6,1.3,1.3
			C163.5,269.4,162.9,270,162.2,270z"/>
		<path class="st2" d="M162.2,270.2c0.8,0,1.5-0.7,1.5-1.6c0-0.8-0.7-1.5-1.5-1.5s-1.5,0.7-1.5,1.6
			C160.7,269.5,161.4,270.2,162.2,270.2C163,270.1,161.4,270.2,162.2,270.2z M162.1,267.5c0.6,0,1.1,0.5,1.2,1.1
			c0,0.6-0.5,1.2-1.1,1.2c-0.6,0-1.1-0.5-1.2-1.1C161,268,161.5,267.5,162.1,267.5C162.8,267.5,161.5,267.5,162.1,267.5z"/>
	</g>
	<path class="st7" d="M163.4,276.3v-0.7c102.4-0.1,154.7-11,205.3-21.6c50.6-10.6,102.9-21.6,205.4-21.6v0.7
		c-102.4,0.1-154.7,11-205.3,21.6C318.2,265.2,265.9,276.2,163.4,276.3z"/>
	<g>
		<path class="st8" d="M162.2,277.3c-0.7,0-1.3-0.6-1.3-1.3s0.6-1.4,1.3-1.4c0.7,0,1.3,0.6,1.3,1.3
			C163.5,276.6,162.9,277.2,162.2,277.3z"/>
		<path class="st8" d="M162.2,277.4c0.8,0,1.5-0.7,1.5-1.5s-0.7-1.5-1.5-1.5c-0.8,0-1.5,0.7-1.5,1.5S161.4,277.4,162.2,277.4
			C163,277.4,161.4,277.4,162.2,277.4z M162.1,274.7c0.6,0,1.1,0.5,1.2,1.2c0,0.6-0.5,1.2-1.1,1.2c-0.6,0-1.1-0.5-1.2-1.2
			C161,275.3,161.5,274.8,162.1,274.7C162.8,274.7,161.5,274.8,162.1,274.7z"/>
	</g>
	<path class="st3" d="M163.4,272.7l0-0.7c102.4-0.2,154.7-25.3,205.2-49.6c50.6-24.3,102.9-49.5,205.5-49.7l0,0.7
		c-102.4,0.2-154.7,25.3-205.2,49.6C318.2,247.3,265.9,272.5,163.4,272.7z"/>
	<g>
		<path class="st4" d="M162.2,273.6c-0.7,0-1.3-0.6-1.3-1.3c0-0.7,0.6-1.4,1.3-1.4c0.7,0,1.3,0.6,1.3,1.3
			C163.5,273,162.9,273.6,162.2,273.6z"/>
		<path class="st4" d="M162.2,273.8c0.8,0,1.5-0.7,1.5-1.5c0-0.8-0.7-1.5-1.5-1.5c-0.8,0-1.5,0.7-1.5,1.5
			C160.7,273.1,161.4,273.8,162.2,273.8C163,273.8,161.4,273.8,162.2,273.8z M162.1,271.1c0.6,0,1.1,0.5,1.2,1.2
			c0,0.6-0.5,1.2-1.1,1.2c-0.6,0-1.1-0.5-1.2-1.2C161,271.7,161.5,271.1,162.1,271.1C162.8,271.1,161.5,271.1,162.1,271.1z"/>
	</g>
	<path class="st7" d="M574.1,222.1c-102.5-0.2-154.8-22.1-205.4-43.3c-50.6-21.2-102.8-43.1-205.2-43.2l0-0.7
		c102.5,0.2,154.8,22.1,205.4,43.3c50.6,21.2,102.8,43.1,205.2,43.2L574.1,222.1z"/>
	<g>
		<path class="st8" d="M162.1,136.6c-0.7,0-1.3-0.6-1.3-1.4s0.6-1.3,1.3-1.3s1.3,0.6,1.3,1.4S162.9,136.6,162.1,136.6z"/>
		<path class="st8" d="M162.1,136.8c0.8,0,1.5-0.7,1.5-1.5c0-0.8-0.6-1.5-1.5-1.5c-0.8,0-1.5,0.7-1.5,1.5
			C160.7,136.1,161.3,136.8,162.1,136.8C163,136.8,161.3,136.8,162.1,136.8z M162.2,134.1c0.6,0,1.1,0.5,1.1,1.2
			c0,0.6-0.5,1.2-1.2,1.2c-0.6,0-1.1-0.5-1.1-1.2C161,134.6,161.5,134.1,162.2,134.1C162.8,134.1,161.5,134.1,162.2,134.1z"/>
	</g>
	<path class="st9" d="M574.1,316.2c-46-0.2-85.9-9.3-121.9-27.9c-32.1-16.6-58.3-39-83.6-60.7c-50.5-43.3-102.8-88-205.2-88.4l0-0.7
		c46,0.2,85.9,9.3,121.9,27.9c32.1,16.6,58.3,39,83.6,60.7c50.5,43.3,102.8,88,205.2,88.4L574.1,316.2z"/>
	<g>
		<path class="st10" d="M162.1,140.2c-0.7,0-1.3-0.6-1.3-1.4s0.6-1.3,1.3-1.3c0.7,0,1.3,0.6,1.3,1.4
			C163.5,139.7,162.9,140.3,162.1,140.2z"/>
		<path class="st10" d="M162.1,140.4c0.8,0,1.5-0.7,1.5-1.5s-0.6-1.5-1.5-1.5c-0.8,0-1.5,0.7-1.5,1.5
			C160.7,139.7,161.3,140.4,162.1,140.4C163,140.4,161.3,140.4,162.1,140.4z M162.2,137.7c0.6,0,1.1,0.5,1.1,1.2
			c0,0.6-0.5,1.2-1.2,1.2c-0.6,0-1.1-0.5-1.1-1.2C161,138.2,161.5,137.7,162.2,137.7C162.8,137.7,161.5,137.7,162.2,137.7z"/>
	</g>
	<path class="st11" d="M574.1,395.5c-46-0.2-85.9-13.1-122-39.2c-32.1-23.3-58.3-54.9-83.6-85.4C318,210,265.7,147,163.4,146.5
		l0-0.7c46,0.2,85.9,13.1,122,39.2c32.1,23.3,58.3,54.9,83.6,85.4c50.5,60.9,102.8,123.9,205.1,124.4L574.1,395.5z"/>
	<g>
		<path class="st12" d="M162.1,147.5c-0.7,0-1.3-0.6-1.3-1.4c0-0.7,0.6-1.3,1.3-1.3c0.7,0,1.3,0.6,1.3,1.4
			C163.5,146.9,162.9,147.5,162.1,147.5z"/>
		<path class="st12" d="M162.1,147.7c0.8,0,1.5-0.7,1.5-1.5c0-0.8-0.6-1.5-1.5-1.5c-0.8,0-1.5,0.7-1.5,1.5S161.3,147.7,162.1,147.7
			C162.9,147.7,161.3,147.7,162.1,147.7z M162.2,145c0.6,0,1.1,0.5,1.1,1.2c0,0.6-0.5,1.2-1.2,1.1c-0.6,0-1.1-0.5-1.1-1.2
			C161,145.5,161.5,145,162.2,145C162.8,145,161.5,145,162.2,145z"/>
	</g>
	<g>
		<path class="st13" d="M575.2,396.4c0.7,0,1.2-0.6,1.2-1.3c0-0.7-0.5-1.4-1.2-1.4c-0.7,0-1.2,0.6-1.2,1.3
			C574,395.8,574.6,396.4,575.2,396.4z"/>
		<path class="st13" d="M575.2,396.6c-0.7,0-1.3-0.7-1.3-1.5c0-0.8,0.6-1.5,1.4-1.5c0.7,0,1.3,0.7,1.3,1.5
			C576.6,395.9,576,396.6,575.2,396.6C574.5,396.6,576,396.6,575.2,396.6z M575.3,393.9c-0.6,0-1,0.5-1,1.1c0,0.6,0.4,1.2,1,1.2
			c0.6,0,1-0.5,1-1.1C576.3,394.5,575.8,393.9,575.3,393.9S575.8,393.9,575.3,393.9z"/>
	</g>
	<path class="st14" d="M574.1,359.4c-46-0.2-85.9-11.4-122-34.1c-32.1-20.3-58.3-47.7-83.6-74.3c-50.5-53-102.8-107.8-205.1-108.2
		l0-0.7c46,0.2,85.9,11.4,122,34.1c32.1,20.3,58.3,47.7,83.6,74.3c50.5,53,102.8,107.8,205.1,108.2L574.1,359.4z"/>
	<g>
		<path class="st15" d="M162.1,143.9c-0.7,0-1.3-0.6-1.3-1.4c0-0.7,0.6-1.3,1.3-1.3s1.3,0.6,1.3,1.4
			C163.5,143.3,162.9,143.9,162.1,143.9z"/>
		<path class="st15" d="M162.1,144.1c0.8,0,1.5-0.7,1.5-1.5c0-0.8-0.6-1.5-1.5-1.5c-0.8,0-1.5,0.7-1.5,1.5
			C160.7,143.3,161.3,144,162.1,144.1C163,144.1,161.3,144,162.1,144.1z M162.2,141.4c0.6,0,1.1,0.5,1.1,1.2c0,0.6-0.5,1.2-1.2,1.1
			c-0.6,0-1.1-0.5-1.1-1.2C161,141.9,161.5,141.4,162.2,141.4C162.8,141.4,161.5,141.4,162.2,141.4z"/>
	</g>
	<path class="st3" d="M574.1,147.9c-102.5-0.2-154.9-26.2-205.5-51.3c-50.5-25.1-102.8-51-205.2-51.2l0-0.7
		C265.9,45,318.2,70.9,368.9,96c50.6,25.1,102.8,51,205.2,51.2L574.1,147.9z"/>
	<g>
		<path class="st4" d="M162.1,46.5c-0.7,0-1.3-0.6-1.3-1.4c0-0.7,0.6-1.3,1.3-1.3c0.7,0,1.3,0.6,1.3,1.4
			C163.5,45.9,162.9,46.5,162.1,46.5z"/>
		<path class="st4" d="M162.1,46.6c0.8,0,1.5-0.7,1.5-1.5c0-0.8-0.6-1.5-1.5-1.5c-0.8,0-1.5,0.7-1.5,1.5
			C160.7,45.9,161.3,46.6,162.1,46.6C163,46.7,161.3,46.6,162.1,46.6z M162.2,44c0.6,0,1.1,0.5,1.1,1.2c0,0.6-0.5,1.2-1.2,1.1
			c-0.6,0-1.1-0.5-1.1-1.2C161,44.5,161.5,43.9,162.2,44C162.8,44,161.5,43.9,162.2,44z"/>
	</g>
	<path class="st1" d="M574.1,81c-102.5-0.1-154.8-10-205.4-19.6c-50.6-9.6-102.9-19.5-205.3-19.6v-0.7
		c102.5,0.1,154.8,10,205.4,19.6c50.6,9.6,102.9,19.5,205.3,19.6V81z"/>
	<g>
		<path class="st2" d="M162.1,42.8c-0.7,0-1.3-0.6-1.3-1.4c0-0.7,0.6-1.3,1.3-1.3s1.3,0.6,1.3,1.4C163.5,42.2,162.9,42.8,162.1,42.8
			z"/>
		<path class="st2" d="M162.1,43c0.8,0,1.5-0.7,1.5-1.5c0-0.8-0.7-1.5-1.5-1.5c-0.8,0-1.5,0.7-1.5,1.5S161.3,43,162.1,43
			C163,43,161.3,43,162.1,43z M162.2,40.3c0.6,0,1.1,0.5,1.1,1.2c0,0.6-0.5,1.2-1.1,1.2c-0.6,0-1.1-0.5-1.1-1.2
			C161,40.8,161.5,40.3,162.2,40.3C162.8,40.3,161.5,40.3,162.2,40.3z"/>
	</g>
	<path class="st5" d="M574.1,263.7c-46-0.2-85.9-11.1-121.9-33.2c-32.1-19.8-58.3-46.5-83.6-72.3C318,106.5,265.7,53.1,163.4,52.7
		l0-0.7c46,0.2,85.9,11.1,121.9,33.2c32.1,19.8,58.3,46.5,83.6,72.3c50.5,51.6,102.8,105,205.1,105.4L574.1,263.7z"/>
	<g>
		<path class="st6" d="M162.1,53.7c-0.7,0-1.3-0.6-1.3-1.4c0-0.7,0.6-1.3,1.3-1.3c0.7,0,1.3,0.6,1.3,1.4
			C163.5,53.1,162.9,53.7,162.1,53.7z"/>
		<path class="st6" d="M162.1,53.9c0.8,0,1.5-0.7,1.5-1.5c0-0.8-0.6-1.5-1.5-1.5c-0.8,0-1.5,0.7-1.5,1.5
			C160.7,53.2,161.3,53.9,162.1,53.9C163,53.9,161.3,53.9,162.1,53.9z M162.2,51.2c0.6,0,1.1,0.5,1.1,1.2c0,0.6-0.5,1.2-1.2,1.1
			c-0.6,0-1.1-0.5-1.1-1.2C161,51.7,161.5,51.2,162.2,51.2C162.8,51.2,161.5,51.2,162.2,51.2z"/>
	</g>
	<path class="st7" d="M574.1,207.6c-46-0.1-85.9-8.3-121.9-25c-32.1-14.9-58.3-34.9-83.6-54.4C318,89.5,265.8,49.4,163.4,49.1l0-0.7
		c46,0.1,85.9,8.3,121.9,25c32.1,14.9,58.3,34.9,83.6,54.4c50.5,38.8,102.8,78.9,205.2,79.2L574.1,207.6z"/>
	<g>
		<path class="st8" d="M162.1,50.1c-0.7,0-1.3-0.6-1.3-1.4c0-0.7,0.6-1.3,1.3-1.3c0.7,0,1.3,0.6,1.3,1.4
			C163.4,49.5,162.8,50.1,162.1,50.1z"/>
		<path class="st8" d="M162.1,50.3c0.8,0,1.5-0.7,1.5-1.5c0-0.8-0.6-1.5-1.5-1.6c-0.8,0-1.5,0.7-1.5,1.5S161.3,50.3,162.1,50.3
			C162.9,50.3,161.3,50.3,162.1,50.3z M162.2,47.6c0.6,0,1.1,0.5,1.1,1.2c0,0.6-0.5,1.2-1.2,1.1c-0.6,0-1.1-0.5-1.1-1.2
			C161,48.1,161.5,47.6,162.2,47.6C162.8,47.6,161.5,47.6,162.2,47.6z"/>
	</g>
	<path class="st1" d="M163.4,387.9l0-0.7C265.7,386.7,318,321,368.5,257.4c25.3-31.8,51.5-64.7,83.6-89.1c36-27.3,75.9-40.7,122-41
		l0,0.7c-102.3,0.5-154.6,66.2-205.1,129.8c-25.3,31.8-51.5,64.7-83.6,89.1C249.3,374.3,209.4,387.7,163.4,387.9z"/>
	<g>
		<path class="st2" d="M162.2,388.9c-0.7,0-1.3-0.6-1.3-1.3c0-0.7,0.6-1.4,1.3-1.4c0.7,0,1.3,0.6,1.3,1.3
			C163.5,388.3,162.9,388.9,162.2,388.9z"/>
		<path class="st2" d="M162.2,389.1c0.8,0,1.5-0.7,1.5-1.5s-0.7-1.5-1.5-1.5s-1.5,0.7-1.5,1.5S161.4,389.1,162.2,389.1
			S161.4,389.1,162.2,389.1z M162.1,386.4c0.6,0,1.1,0.5,1.2,1.1c0,0.6-0.5,1.2-1.1,1.2c-0.6,0-1.1-0.5-1.2-1.1
			C161,386.9,161.5,386.4,162.1,386.4C162.8,386.4,161.5,386.4,162.1,386.4z"/>
	</g>
	<path class="st5" d="M163.4,391.6l0-0.7c102.4-0.2,154.7-24.3,205.2-47.6c50.6-23.3,102.9-47.4,205.5-47.6l0,0.7
		c-102.4,0.2-154.7,24.3-205.2,47.6C318.2,367.3,265.9,391.4,163.4,391.6z"/>
	<g>
		<path class="st6" d="M162.2,392.5c-0.7,0-1.3-0.6-1.3-1.3c0-0.7,0.6-1.4,1.3-1.4c0.7,0,1.3,0.6,1.3,1.3
			C163.5,391.9,162.9,392.5,162.2,392.5z"/>
		<path class="st6" d="M162.2,392.7c0.8,0,1.5-0.7,1.5-1.5c0-0.8-0.7-1.5-1.5-1.5c-0.8,0-1.5,0.7-1.5,1.5
			C160.7,392.1,161.4,392.7,162.2,392.7C163,392.7,161.4,392.7,162.2,392.7z M162.1,390c0.6,0,1.1,0.5,1.2,1.2
			c0,0.6-0.5,1.2-1.1,1.2c-0.6,0-1.1-0.5-1.2-1.2C161,390.6,161.5,390,162.1,390C162.8,390,161.5,390,162.1,390z"/>
	</g>
	<path class="st14" d="M574.1,366.7c-102.5-0.1-154.8-18.9-205.4-37.1c-50.6-18.2-102.8-36.9-205.3-37.1l0-0.7
		c102.5,0.1,154.8,18.9,205.4,37.1c50.6,18.2,102.8,36.9,205.3,37.1L574.1,366.7z"/>
	<g>
		<path class="st4" d="M162.1,293.5c-0.7,0-1.3-0.6-1.3-1.4c0-0.7,0.6-1.3,1.3-1.3c0.7,0,1.3,0.6,1.3,1.4
			C163.5,292.9,162.9,293.5,162.1,293.5z"/>
		<path class="st4" d="M162.1,293.7c0.8,0,1.5-0.7,1.5-1.5c0-0.8-0.7-1.5-1.5-1.5c-0.8,0-1.5,0.7-1.5,1.5
			C160.7,293,161.3,293.7,162.1,293.7C163,293.7,161.3,293.7,162.1,293.7z M162.2,291c0.6,0,1.1,0.5,1.1,1.2c0,0.6-0.5,1.2-1.1,1.2
			c-0.6,0-1.1-0.5-1.1-1.2C161,291.5,161.5,291,162.2,291C162.8,291,161.5,291,162.2,291z"/>
	</g>
	<path class="st16" d="M574.1,346.9c-102.5-0.1-154.8-14.8-205.4-29c-50.6-14.2-102.8-28.9-205.3-29l0-0.7
		c102.5,0.1,154.8,14.8,205.4,29c50.6,14.2,102.8,28.9,205.3,29L574.1,346.9z"/>
	<g>
		<path class="st17" d="M162.1,289.9c-0.7,0-1.3-0.6-1.3-1.4s0.6-1.3,1.3-1.3s1.3,0.6,1.3,1.4C163.5,289.3,162.9,289.9,162.1,289.9z
			"/>
		<path class="st17" d="M162.1,290c0.8,0,1.5-0.7,1.5-1.5c0-0.8-0.7-1.5-1.5-1.5c-0.8,0-1.5,0.7-1.5,1.5
			C160.7,289.3,161.3,290,162.1,290C163,290,161.3,290,162.1,290z M162.2,287.3c0.6,0,1.1,0.5,1.1,1.2c0,0.6-0.5,1.2-1.1,1.2
			c-0.6,0-1.1-0.5-1.1-1.2C161,287.9,161.5,287.3,162.2,287.3C162.8,287.3,161.5,287.3,162.2,287.3z"/>
	</g>
	<path class="st18" d="M574.1,379.3c-102.5-0.2-154.8-21.2-205.4-41.6c-50.6-20.3-102.8-41.4-205.2-41.6l0-0.7
		c102.5,0.2,154.8,21.2,205.4,41.6c50.6,20.3,102.8,41.4,205.2,41.6L574.1,379.3z"/>
	<g>
		<path class="st19" d="M162.1,297.1c-0.7,0-1.3-0.6-1.3-1.4c0-0.7,0.6-1.3,1.3-1.3c0.7,0,1.3,0.6,1.3,1.4
			C163.5,296.5,162.9,297.1,162.1,297.1z"/>
		<path class="st19" d="M162.1,297.3c0.8,0,1.5-0.7,1.5-1.5c0-0.8-0.7-1.5-1.5-1.5c-0.8,0-1.5,0.7-1.5,1.5
			C160.7,296.6,161.3,297.3,162.1,297.3C163,297.3,161.3,297.3,162.1,297.3z M162.2,294.6c0.6,0,1.1,0.5,1.1,1.2
			c0,0.6-0.5,1.2-1.1,1.2c-0.6,0-1.1-0.5-1.1-1.2S161.5,294.6,162.2,294.6C162.8,294.6,161.5,294.6,162.2,294.6z"/>
	</g>
	<path class="st16" d="M574.1,341.4c-46-0.2-85.9-9.3-121.9-27.9c-32.1-16.6-58.3-39-83.6-60.7c-50.5-43.3-102.8-88-205.2-88.4
		l0-0.7c46,0.2,85.9,9.3,121.9,27.9c32.1,16.6,58.3,39,83.6,60.7c50.5,43.3,102.8,88,205.2,88.4L574.1,341.4z"/>
	<g>
		<path class="st17" d="M162.1,165.5c-0.7,0-1.3-0.6-1.3-1.4c0-0.7,0.6-1.3,1.3-1.3c0.7,0,1.3,0.6,1.3,1.4
			C163.5,164.9,162.9,165.5,162.1,165.5z"/>
		<path class="st17" d="M162.1,165.7c0.8,0,1.5-0.7,1.5-1.5c0-0.8-0.6-1.5-1.5-1.5c-0.8,0-1.5,0.7-1.5,1.5S161.3,165.7,162.1,165.7
			C163,165.7,161.3,165.7,162.1,165.7z M162.2,163c0.6,0,1.1,0.5,1.1,1.2c0,0.6-0.5,1.2-1.2,1.2c-0.6,0-1.1-0.5-1.1-1.2
			C161,163.5,161.5,163,162.2,163C162.8,163,161.5,163,162.2,163z"/>
	</g>
	<path class="st5" d="M574.1,278.2c-102.5-0.2-154.9-30.4-205.5-59.6c-50.5-29.2-102.8-59.3-205.2-59.5l0-0.7
		c102.5,0.2,154.9,30.4,205.5,59.6c50.5,29.2,102.8,59.3,205.2,59.5L574.1,278.2z"/>
	<g>
		<path class="st6" d="M162.1,160.1c-0.7,0-1.3-0.6-1.3-1.4c0-0.7,0.6-1.3,1.3-1.3c0.7,0,1.3,0.6,1.3,1.4
			C163.5,159.5,162.9,160.1,162.1,160.1z"/>
		<path class="st6" d="M162.1,160.2c0.8,0,1.5-0.7,1.5-1.5c0-0.8-0.6-1.5-1.5-1.5c-0.8,0-1.5,0.7-1.5,1.5
			C160.7,159.5,161.3,160.2,162.1,160.2C162.9,160.3,161.3,160.2,162.1,160.2z M162.2,157.6c0.6,0,1.1,0.5,1.1,1.2
			c0,0.6-0.5,1.2-1.2,1.1c-0.6,0-1.1-0.5-1.1-1.2C161,158.1,161.5,157.6,162.2,157.6C162.8,157.6,161.5,157.6,162.2,157.6z"/>
	</g>
	<path class="st14" d="M574.1,363.1c-46-0.2-85.9-10.1-121.9-30.4c-32.1-18.1-58.3-42.6-83.6-66.2c-50.5-47.2-102.8-96.1-205.2-96.5
		l0-0.7c46,0.2,85.9,10.1,121.9,30.4c32.1,18.1,58.3,42.6,83.6,66.2c50.5,47.2,102.8,96.1,205.2,96.5L574.1,363.1z"/>
	<g>
		<ellipse class="st15" cx="162.2" cy="169.6" rx="1.3" ry="1.3"/>
		<path class="st15" d="M162.1,171.1c0.8,0,1.5-0.7,1.5-1.5c0-0.8-0.6-1.5-1.5-1.5c-0.8,0-1.5,0.7-1.5,1.5
			C160.7,170.4,161.3,171.1,162.1,171.1C163,171.1,161.3,171.1,162.1,171.1z M162.2,168.4c0.6,0,1.1,0.5,1.1,1.2
			c0,0.6-0.5,1.2-1.2,1.2c-0.6,0-1.1-0.5-1.1-1.2C161,168.9,161.5,168.4,162.2,168.4C162.8,168.4,161.5,168.4,162.2,168.4z"/>
	</g>
	<path class="st1" d="M163.4,182.5l0-0.7c102.4-0.2,154.7-22.2,205.2-43.5c50.6-21.3,102.9-43.4,205.4-43.5l0,0.7
		c-102.4,0.2-154.7,22.2-205.2,43.5C318.2,160.3,265.9,182.3,163.4,182.5z"/>
	<g>
		<path class="st2" d="M162.2,183.5c-0.7,0-1.3-0.6-1.3-1.3c0-0.7,0.6-1.4,1.3-1.4c0.7,0,1.3,0.6,1.3,1.3S162.9,183.5,162.2,183.5z"
			/>
		<path class="st2" d="M162.2,183.7c0.8,0,1.5-0.7,1.5-1.5c0-0.8-0.7-1.5-1.5-1.5c-0.8,0-1.5,0.7-1.5,1.5
			C160.7,183,161.4,183.7,162.2,183.7C163,183.6,161.4,183.7,162.2,183.7z M162.1,181c0.6,0,1.1,0.5,1.2,1.2c0,0.6-0.5,1.2-1.1,1.2
			c-0.6,0-1.1-0.5-1.2-1.2C161,181.5,161.5,181,162.1,181C162.8,181,161.5,181,162.1,181z"/>
	</g>
	<path class="st3" d="M163.4,186.1v-0.7c102.4-0.1,154.7-7,205.3-13.7c50.6-6.7,102.9-13.6,205.4-13.7v0.7
		c-102.4,0.1-154.7,7-205.3,13.7C318.2,179.2,265.9,186.1,163.4,186.1z"/>
	<g>
		<path class="st4" d="M162.2,187.1c-0.7,0-1.3-0.6-1.3-1.3c0-0.7,0.6-1.3,1.3-1.4c0.7,0,1.3,0.6,1.3,1.3
			C163.5,186.5,162.9,187.1,162.2,187.1z"/>
		<path class="st4" d="M162.2,187.3c0.8,0,1.5-0.7,1.5-1.5s-0.7-1.5-1.5-1.5c-0.8,0-1.5,0.7-1.5,1.5
			C160.7,186.6,161.3,187.3,162.2,187.3C163,187.3,161.3,187.3,162.2,187.3z M162.1,184.6c0.6,0,1.1,0.5,1.1,1.2
			c0,0.6-0.5,1.2-1.1,1.2c-0.6,0-1.1-0.5-1.1-1.2C161,185.1,161.5,184.6,162.1,184.6C162.8,184.6,161.5,184.6,162.1,184.6z"/>
	</g>
	<path class="st7" d="M574.1,225.8c-102.5-0.1-154.8-9.2-205.4-18c-50.6-8.8-102.9-17.9-205.3-18V189c102.5,0.1,154.8,9.2,205.4,18
		c50.6,8.8,102.9,17.9,205.3,18V225.8z"/>
	<g>
		<path class="st8" d="M162.1,190.8c-0.7,0-1.3-0.6-1.3-1.4c0-0.7,0.6-1.3,1.3-1.3c0.7,0,1.3,0.6,1.3,1.4
			C163.5,190.2,162.9,190.8,162.1,190.8z"/>
		<path class="st8" d="M162.1,190.9c0.8,0,1.5-0.7,1.5-1.5c0-0.8-0.7-1.5-1.5-1.5c-0.8,0-1.5,0.7-1.5,1.5
			C160.7,190.2,161.3,190.9,162.1,190.9C163,190.9,161.3,190.9,162.1,190.9z M162.2,188.3c0.6,0,1.1,0.5,1.1,1.2
			c0,0.6-0.5,1.2-1.1,1.2c-0.6,0-1.1-0.5-1.1-1.2C161,188.8,161.5,188.2,162.2,188.3C162.8,188.3,161.5,188.2,162.2,188.3z"/>
	</g>
	<path class="st5" d="M574.1,281.9c-102.5-0.2-154.8-22.6-205.4-44.3c-50.6-21.6-102.8-44-205.2-44.2l0-0.7
		c102.5,0.2,154.8,22.6,205.4,44.3c50.6,21.6,102.8,44,205.2,44.2L574.1,281.9z"/>
	<g>
		<path class="st6" d="M162.1,194.4c-0.7,0-1.3-0.6-1.3-1.4c0-0.7,0.6-1.3,1.3-1.3c0.7,0,1.3,0.6,1.3,1.4S162.9,194.4,162.1,194.4z"
			/>
		<path class="st6" d="M162.1,194.6c0.8,0,1.5-0.7,1.5-1.5c0-0.8-0.6-1.5-1.5-1.5c-0.8,0-1.5,0.7-1.5,1.5S161.3,194.6,162.1,194.6
			C163,194.6,161.3,194.6,162.1,194.6z M162.2,191.9c0.6,0,1.1,0.5,1.1,1.2c0,0.6-0.5,1.2-1.2,1.2c-0.6,0-1.1-0.5-1.1-1.2
			C161,192.4,161.5,191.9,162.2,191.9C162.8,191.9,161.5,191.9,162.2,191.9z"/>
	</g>
	<path class="st1" d="M163.4,308.7l0-0.7c102.4-0.4,154.6-49.7,205.1-97.5c25.3-23.9,51.5-48.6,83.6-66.9
		c36-20.5,75.9-30.6,121.9-30.7l0,0.7c-102.4,0.4-154.6,49.7-205.2,97.5c-25.3,23.9-51.5,48.6-83.6,66.9
		C249.3,298.4,209.4,308.5,163.4,308.7z"/>
	<g>
		<path class="st2" d="M162.2,309.6c-0.7,0-1.3-0.6-1.3-1.3c0-0.7,0.6-1.4,1.3-1.4c0.7,0,1.3,0.6,1.3,1.3
			C163.5,309,162.9,309.6,162.2,309.6z"/>
		<path class="st2" d="M162.2,309.8c0.8,0,1.5-0.7,1.5-1.5c0-0.8-0.7-1.5-1.5-1.5c-0.8,0-1.5,0.7-1.5,1.5
			C160.7,309.2,161.4,309.8,162.2,309.8C163,309.8,161.4,309.8,162.2,309.8z M162.1,307.1c0.6,0,1.1,0.5,1.2,1.2
			c0,0.6-0.5,1.2-1.1,1.2c-0.6,0-1.1-0.5-1.2-1.2C161,307.7,161.5,307.1,162.1,307.1C162.8,307.1,161.5,307.1,162.1,307.1z"/>
	</g>
	<path class="st3" d="M163.4,312.3l0-0.7c102.4-0.3,154.6-34.5,205.2-67.6c25.3-16.6,51.5-33.7,83.6-46.4
		c36-14.2,75.9-21.2,121.9-21.3l0,0.7c-102.4,0.3-154.6,34.5-205.2,67.6c-25.3,16.6-51.5,33.7-83.6,46.4
		C249.3,305.2,209.4,312.2,163.4,312.3z"/>
	<g>
		<path class="st4" d="M162.2,313.3c-0.7,0-1.3-0.6-1.3-1.3c0-0.7,0.6-1.4,1.3-1.4c0.7,0,1.3,0.6,1.3,1.3S162.9,313.2,162.2,313.3z"
			/>
		<path class="st4" d="M162.2,313.4c0.8,0,1.5-0.7,1.5-1.5c0-0.8-0.7-1.5-1.5-1.5c-0.8,0-1.5,0.7-1.5,1.6
			C160.7,312.8,161.4,313.5,162.2,313.4C163,313.4,161.4,313.5,162.2,313.4z M162.1,310.7c0.6,0,1.1,0.5,1.2,1.1
			c0,0.6-0.5,1.2-1.1,1.2c-0.6,0-1.1-0.5-1.2-1.1C161,311.3,161.5,310.8,162.1,310.7C162.8,310.7,161.5,310.8,162.1,310.7z"/>
	</g>
	<path class="st7" d="M163.4,315.9l0-0.7c102.4-0.2,154.7-20.2,205.2-39.6c50.6-19.4,102.9-39.5,205.4-39.7l0,0.7
		c-102.4,0.2-154.7,20.2-205.2,39.6C318.2,295.7,265.9,315.8,163.4,315.9z"/>
	<g>
		<path class="st8" d="M162.2,316.9c-0.7,0-1.3-0.6-1.3-1.3c0-0.7,0.6-1.4,1.3-1.4c0.7,0,1.3,0.6,1.3,1.3
			C163.5,316.3,162.9,316.9,162.2,316.9z"/>
		<path class="st8" d="M162.2,317.1c0.8,0,1.5-0.7,1.5-1.5c0-0.8-0.7-1.5-1.5-1.5c-0.8,0-1.5,0.7-1.5,1.5
			C160.7,316.4,161.3,317.1,162.2,317.1C163,317.1,161.3,317.1,162.2,317.1z M162.1,314.4c0.6,0,1.1,0.5,1.1,1.2
			c0,0.6-0.5,1.2-1.1,1.2c-0.6,0-1.1-0.5-1.1-1.2C161,314.9,161.5,314.4,162.1,314.4C162.8,314.4,161.5,314.4,162.1,314.4z"/>
	</g>
	<path class="st9" d="M163.4,420.3l0-0.7c102.4-0.2,154.7-24.7,205.2-48.4c50.6-23.7,102.9-48.3,205.5-48.5l0,0.7
		c-102.4,0.2-154.7,24.7-205.2,48.4C318.2,395.6,265.9,420.1,163.4,420.3z"/>
	<g>
		<path class="st10" d="M162.2,421.3c-0.7,0-1.3-0.6-1.3-1.3c0-0.7,0.6-1.4,1.3-1.4c0.7,0,1.3,0.6,1.3,1.3
			C163.5,420.7,162.9,421.3,162.2,421.3z"/>
		<path class="st10" d="M162.2,421.5c0.8,0,1.5-0.7,1.5-1.5c0-0.8-0.7-1.5-1.5-1.5c-0.8,0-1.5,0.7-1.5,1.5
			C160.7,420.8,161.4,421.5,162.2,421.5C163,421.5,161.4,421.5,162.2,421.5z M162.1,418.8c0.6,0,1.1,0.5,1.2,1.2
			c0,0.6-0.5,1.2-1.1,1.2c-0.6,0-1.1-0.5-1.2-1.2C161,419.3,161.5,418.8,162.1,418.8C162.8,418.8,161.5,418.8,162.1,418.8z"/>
	</g>
	<path class="st1" d="M574.1,84.6c-102.5,0-154.8-4.9-205.4-9.7c-50.6-4.7-102.9-9.6-205.3-9.6v-0.7c102.5,0,154.8,4.9,205.4,9.7
		c50.6,4.7,102.9,9.6,205.3,9.6V84.6z"/>
	<g>
		<path class="st2" d="M162.1,66.3c-0.7,0-1.3-0.6-1.3-1.4c0-0.7,0.6-1.3,1.3-1.3c0.7,0,1.3,0.6,1.3,1.4
			C163.5,65.7,162.9,66.3,162.1,66.3z"/>
		<path class="st2" d="M162.1,66.5c0.8,0,1.5-0.7,1.5-1.5s-0.7-1.5-1.5-1.5c-0.8,0-1.5,0.7-1.5,1.5S161.3,66.4,162.1,66.5
			C163,66.5,161.3,66.4,162.1,66.5z M162.2,63.8c0.6,0,1.1,0.5,1.1,1.2c0,0.6-0.5,1.2-1.1,1.2c-0.6,0-1.1-0.5-1.1-1.2
			C161,64.3,161.5,63.8,162.2,63.8C162.8,63.8,161.5,63.8,162.2,63.8z"/>
	</g>
	<path class="st3" d="M574.1,151.5c-102.5-0.2-154.8-21.1-205.4-41.3C318.1,90,265.8,69.1,163.4,68.9l0-0.7
		c102.5,0.2,154.8,21.1,205.4,41.3c50.6,20.2,102.8,41.1,205.2,41.3L574.1,151.5z"/>
	<g>
		<path class="st4" d="M162.1,69.9c-0.7,0-1.3-0.6-1.3-1.4c0-0.7,0.6-1.3,1.3-1.3c0.7,0,1.3,0.6,1.3,1.4
			C163.5,69.3,162.9,69.9,162.1,69.9z"/>
		<path class="st4" d="M162.1,70.1c0.8,0,1.5-0.7,1.5-1.5c0-0.8-0.7-1.5-1.5-1.5c-0.8,0-1.5,0.7-1.5,1.5
			C160.7,69.4,161.3,70.1,162.1,70.1C163,70.1,161.3,70.1,162.1,70.1z M162.2,67.4c0.6,0,1.1,0.5,1.1,1.2c0,0.6-0.5,1.2-1.1,1.2
			c-0.6,0-1.1-0.5-1.1-1.2C161,67.9,161.5,67.4,162.2,67.4C162.8,67.4,161.5,67.4,162.2,67.4z"/>
	</g>
	<path class="st7" d="M574.1,211.3c-46-0.1-85.9-7.3-121.9-21.9c-32.1-13-58.3-30.6-83.6-47.6c-50.5-33.9-102.8-69-205.2-69.3l0-0.7
		c46,0.1,85.9,7.3,121.9,21.9c32.1,13,58.3,30.6,83.6,47.6c50.5,33.9,102.8,69,205.2,69.3L574.1,211.3z"/>
	<g>
		<path class="st8" d="M162.1,73.5c-0.7,0-1.3-0.6-1.3-1.4c0-0.7,0.6-1.3,1.3-1.3c0.7,0,1.3,0.6,1.3,1.4
			C163.5,73,162.9,73.6,162.1,73.5z"/>
		<path class="st8" d="M162.1,73.7c0.8,0,1.5-0.7,1.5-1.5c0-0.8-0.6-1.5-1.5-1.6c-0.8,0-1.5,0.7-1.5,1.5
			C160.7,73,161.3,73.7,162.1,73.7C162.9,73.7,161.3,73.7,162.1,73.7z M162.2,71c0.6,0,1.1,0.5,1.1,1.2s-0.5,1.2-1.2,1.1
			c-0.6,0-1.1-0.5-1.1-1.2S161.5,71,162.2,71C162.8,71,161.5,71,162.2,71z"/>
	</g>
	<path class="st5" d="M574.1,267.3c-46-0.2-85.9-10-121.9-30.1c-32.1-17.9-58.3-42.1-83.6-65.5C318,124.9,265.7,76.5,163.4,76.2
		l0-0.7c46,0.2,85.9,10,121.9,30.1c32.1,17.9,58.3,42.1,83.6,65.5c50.5,46.8,102.8,95.1,205.2,95.5L574.1,267.3z"/>
	<g>
		<path class="st6" d="M162.1,77.2c-0.7,0-1.3-0.6-1.3-1.4c0-0.7,0.6-1.3,1.3-1.3c0.7,0,1.3,0.6,1.3,1.4
			C163.5,76.6,162.9,77.2,162.1,77.2z"/>
		<path class="st6" d="M162.1,77.3c0.8,0,1.5-0.7,1.5-1.5c0-0.8-0.6-1.5-1.5-1.5c-0.8,0-1.5,0.7-1.5,1.5
			C160.7,76.6,161.3,77.3,162.1,77.3C163,77.4,161.3,77.3,162.1,77.3z M162.2,74.7c0.6,0,1.1,0.5,1.1,1.2c0,0.6-0.5,1.2-1.2,1.2
			c-0.6,0-1.1-0.5-1.1-1.2C161,75.2,161.5,74.6,162.2,74.7C162.8,74.7,161.5,74.6,162.2,74.7z"/>
	</g>
	<path class="st1" d="M163.4,328.5l0-0.7c102.3-0.4,154.6-53.9,205.1-105.5c25.3-25.9,51.5-52.6,83.6-72.4
		c36-22.2,75.9-33.1,121.9-33.3l0,0.7c-102.3,0.4-154.6,53.9-205.1,105.5c-25.3,25.9-51.5,52.6-83.6,72.4
		C249.3,317.4,209.4,328.3,163.4,328.5z"/>
	<g>
		<path class="st2" d="M162.2,329.5c-0.7,0-1.3-0.6-1.3-1.3c0-0.7,0.6-1.4,1.3-1.4c0.7,0,1.3,0.6,1.3,1.3
			C163.5,328.8,162.9,329.4,162.2,329.5z"/>
		<path class="st2" d="M162.2,329.6c0.8,0,1.5-0.7,1.5-1.5c0-0.8-0.7-1.5-1.5-1.5c-0.8,0-1.5,0.7-1.5,1.5
			C160.7,329,161.4,329.6,162.2,329.6C163,329.6,161.4,329.6,162.2,329.6z M162.1,326.9c0.6,0,1.1,0.5,1.2,1.1
			c0,0.6-0.5,1.2-1.1,1.2c-0.6,0-1.1-0.5-1.2-1.1C161,327.5,161.5,327,162.1,326.9C162.8,326.9,161.5,327,162.1,326.9z"/>
	</g>
	<path class="st3" d="M163.4,332.1l0-0.7c102.4-0.3,154.6-38.6,205.2-75.7c25.3-18.6,51.5-37.8,83.6-52
		c36-15.9,75.9-23.7,121.9-23.9l0,0.7c-102.4,0.3-154.6,38.6-205.2,75.7c-25.3,18.6-51.5,37.8-83.6,52
		C249.3,324.2,209.4,332,163.4,332.1z"/>
	<g>
		<path class="st4" d="M162.2,333.1c-0.7,0-1.3-0.6-1.3-1.3c0-0.7,0.6-1.4,1.3-1.4s1.3,0.6,1.3,1.3S162.9,333.1,162.2,333.1z"/>
		<path class="st4" d="M162.2,333.3c0.8,0,1.5-0.7,1.5-1.6c0-0.8-0.7-1.5-1.5-1.5c-0.8,0-1.5,0.7-1.5,1.6
			C160.7,332.6,161.4,333.3,162.2,333.3C163,333.2,161.4,333.3,162.2,333.3z M162.1,330.6c0.6,0,1.1,0.5,1.2,1.1
			c0,0.6-0.5,1.2-1.1,1.2c-0.6,0-1.1-0.5-1.2-1.1C161,331.1,161.5,330.6,162.1,330.6C162.8,330.6,161.5,330.6,162.1,330.6z"/>
	</g>
	<path class="st7" d="M163.4,335.7l0-0.7c102.4-0.2,154.7-24.3,205.2-47.7c50.6-23.4,102.9-47.6,205.5-47.8l0,0.7
		c-102.4,0.2-154.7,24.3-205.2,47.7C318.2,311.4,265.9,335.6,163.4,335.7z"/>
	<g>
		<path class="st8" d="M162.2,336.7c-0.7,0-1.3-0.6-1.3-1.3c0-0.7,0.6-1.4,1.3-1.4c0.7,0,1.3,0.6,1.3,1.3
			C163.5,336.1,162.9,336.7,162.2,336.7z"/>
		<path class="st8" d="M162.2,336.9c0.8,0,1.5-0.7,1.5-1.5c0-0.8-0.7-1.5-1.5-1.5c-0.8,0-1.5,0.7-1.5,1.5
			C160.7,336.2,161.4,336.9,162.2,336.9C163,336.9,161.4,336.9,162.2,336.9z M162.1,334.2c0.6,0,1.1,0.5,1.2,1.2
			c0,0.6-0.5,1.2-1.1,1.2c-0.6,0-1.1-0.5-1.2-1.2C161,334.7,161.5,334.2,162.1,334.2C162.8,334.2,161.5,334.2,162.1,334.2z"/>
	</g>
	<path class="st18" d="M163.4,432.9v-0.7c102.4-0.1,154.7-12.8,205.3-25c50.6-12.2,102.9-24.9,205.4-25v0.7
		c-102.4,0.1-154.7,12.8-205.3,25C318.2,420.1,265.9,432.8,163.4,432.9z"/>
	<g>
		<path class="st19" d="M162.2,434c0.8,0,1.5-0.7,1.5-1.5c0-0.8-0.7-1.5-1.5-1.5c-0.8,0-1.5,0.7-1.5,1.5
			C160.7,433.4,161.4,434.1,162.2,434C163,434,161.4,434.1,162.2,434z M162.1,431.4c0.6,0,1.1,0.5,1.2,1.1c0,0.6-0.5,1.2-1.1,1.2
			c-0.6,0-1.1-0.5-1.2-1.1C161,431.9,161.5,431.4,162.1,431.4C162.8,431.3,161.5,431.4,162.1,431.4z"/>
	</g>
	<path class="st5" d="M574.1,260.1c-46-0.2-85.9-12.3-122-36.9c-32.1-22-58.3-51.7-83.6-80.4C318,85.4,265.7,26.1,163.4,25.6l0-0.7
		c46,0.2,85.9,12.3,122,36.9c32.1,22,58.3,51.7,83.6,80.4c50.5,57.4,102.8,116.7,205.1,117.1L574.1,260.1z"/>
	<g>
		<path class="st6" d="M162.1,26.6c-0.7,0-1.3-0.6-1.3-1.4c0-0.7,0.6-1.3,1.3-1.3c0.7,0,1.3,0.6,1.3,1.4
			C163.5,26.1,162.9,26.7,162.1,26.6z"/>
		<path class="st6" d="M162.1,26.8c0.8,0,1.5-0.7,1.5-1.5c0-0.8-0.6-1.5-1.5-1.5c-0.8,0-1.5,0.7-1.5,1.5
			C160.7,26.1,161.3,26.8,162.1,26.8C162.9,26.8,161.3,26.8,162.1,26.8z M162.2,24.1c0.6,0,1.1,0.5,1.1,1.2c0,0.6-0.5,1.2-1.2,1.1
			c-0.6,0-1.1-0.5-1.1-1.2C161,24.6,161.5,24.1,162.2,24.1C162.8,24.1,161.5,24.1,162.2,24.1z"/>
	</g>
	<path class="st1" d="M574.1,77.3c-102.5-0.1-154.8-16-205.4-31.3c-50.6-15.3-102.8-31.1-205.3-31.3l0-0.7
		c102.5,0.1,154.8,16,205.4,31.3c50.6,15.3,102.8,31.1,205.3,31.3L574.1,77.3z"/>
	<g>
		<path class="st2" d="M162.1,15.8c-0.7,0-1.3-0.6-1.3-1.4c0-0.7,0.6-1.3,1.3-1.3s1.3,0.6,1.3,1.4C163.5,15.2,162.9,15.8,162.1,15.8
			z"/>
		<path class="st2" d="M162.1,15.9c0.8,0,1.5-0.7,1.5-1.5c0-0.8-0.7-1.5-1.5-1.5c-0.8,0-1.5,0.7-1.5,1.5
			C160.7,15.2,161.3,15.9,162.1,15.9C163,15.9,161.3,15.9,162.1,15.9z M162.2,13.2c0.6,0,1.1,0.5,1.1,1.2s-0.5,1.2-1.1,1.2
			c-0.6,0-1.1-0.5-1.1-1.2C161,13.8,161.5,13.2,162.2,13.2C162.8,13.3,161.5,13.2,162.2,13.2z"/>
	</g>
	<path class="st9" d="M574.1,308.9c-24.7-0.1-47-4.2-68.2-12.3c-18.9-7.3-36.5-17.7-53.8-31.8c-32.1-26.2-58.3-61.6-83.6-95.9
		C318,100.6,265.7,29.8,163.4,29.3l0-0.7c24.7,0.1,47,4.2,68.2,12.3c18.9,7.3,36.5,17.7,53.8,31.8c32.1,26.2,58.3,61.6,83.6,95.9
		c50.5,68.4,102.8,139.1,205.1,139.7L574.1,308.9z"/>
	<g>
		<path class="st10" d="M162.1,30.3c-0.7,0-1.3-0.6-1.3-1.4c0-0.7,0.6-1.3,1.3-1.3c0.7,0,1.3,0.6,1.3,1.4
			C163.5,29.7,162.9,30.3,162.1,30.3z"/>
		<path class="st10" d="M162.1,30.5c0.8,0,1.5-0.7,1.5-1.5c0-0.8-0.6-1.5-1.5-1.6c-0.8,0-1.5,0.7-1.5,1.5
			C160.7,29.7,161.3,30.4,162.1,30.5C162.9,30.5,161.3,30.4,162.1,30.5z M162.2,27.8c0.6,0,1.1,0.5,1.1,1.2s-0.5,1.2-1.2,1.1
			c-0.6,0-1.1-0.5-1.1-1.2C161,28.3,161.5,27.8,162.2,27.8C162.8,27.8,161.5,27.8,162.2,27.8z"/>
	</g>
	<path class="st3" d="M574.1,144.3c-46-0.1-85.9-6.6-121.9-19.8c-32.1-11.8-58.3-27.7-83.6-43.2C318,50.5,265.8,18.6,163.4,18.4
		l0-0.7c46,0.1,85.9,6.6,121.9,19.8c32.1,11.8,58.3,27.7,83.6,43.2c50.5,30.8,102.8,62.7,205.2,62.9L574.1,144.3z"/>
	<g>
		<path class="st4" d="M162.1,19.4c-0.7,0-1.3-0.6-1.3-1.4c0-0.7,0.6-1.3,1.3-1.3c0.7,0,1.3,0.6,1.3,1.4
			C163.5,18.8,162.9,19.4,162.1,19.4z"/>
		<path class="st4" d="M162.1,19.6c0.8,0,1.5-0.7,1.5-1.5c0-0.8-0.6-1.5-1.5-1.5c-0.8,0-1.5,0.7-1.5,1.5
			C160.7,18.9,161.3,19.6,162.1,19.6C162.9,19.6,161.3,19.6,162.1,19.6z M162.2,16.9c0.6,0,1.1,0.5,1.1,1.2c0,0.6-0.5,1.2-1.2,1.1
			c-0.6,0-1.1-0.5-1.1-1.2C161,17.4,161.5,16.9,162.2,16.9C162.8,16.9,161.5,16.9,162.2,16.9z"/>
	</g>
	<path class="st7" d="M574.1,204c-46-0.2-85.9-9.5-121.9-28.7c-32.1-17.1-58.3-40.1-83.6-62.4C318,68.4,265.8,22.4,163.4,22l0-0.7
		c46,0.2,85.9,9.5,121.9,28.7c32.1,17.1,58.3,40.1,83.6,62.4c50.5,44.5,102.8,90.6,205.2,90.9L574.1,204z"/>
	<g>
		<path class="st8" d="M162.1,23c-0.7,0-1.3-0.6-1.3-1.4c0-0.7,0.6-1.3,1.3-1.3c0.7,0,1.3,0.6,1.3,1.4C163.5,22.4,162.9,23,162.1,23
			z"/>
		<path class="st8" d="M162.1,23.2c0.8,0,1.5-0.7,1.5-1.5c0-0.8-0.6-1.5-1.5-1.5c-0.8,0-1.5,0.7-1.5,1.5
			C160.7,22.5,161.3,23.2,162.1,23.2C163,23.2,161.3,23.2,162.1,23.2z M162.2,20.5c0.6,0,1.1,0.5,1.1,1.2c0,0.6-0.5,1.2-1.2,1.2
			c-0.6,0-1.1-0.5-1.1-1.2S161.5,20.5,162.2,20.5C162.8,20.5,161.5,20.5,162.2,20.5z"/>
	</g>
	<path class="st7" d="M163.4,375.4l0-0.7c102.4-0.3,154.7-33.5,205.2-65.7c25.3-16.1,51.5-32.8,83.6-45.1
		c36-13.8,75.9-20.6,121.9-20.7l0,0.7c-102.4,0.3-154.7,33.5-205.2,65.7c-25.3,16.1-51.5,32.8-83.6,45.1
		C249.3,368.5,209.4,375.3,163.4,375.4z"/>
	<g>
		<path class="st8" d="M162.2,376.3c-0.7,0-1.3-0.6-1.3-1.3s0.6-1.4,1.3-1.4c0.7,0,1.3,0.6,1.3,1.3
			C163.5,375.7,162.9,376.3,162.2,376.3z"/>
		<path class="st8" d="M162.2,376.5c0.8,0,1.5-0.7,1.5-1.5c0-0.8-0.7-1.5-1.5-1.5c-0.8,0-1.5,0.7-1.5,1.5
			C160.7,375.9,161.4,376.5,162.2,376.5C163,376.5,161.4,376.5,162.2,376.5z M162.1,373.8c0.6,0,1.1,0.5,1.2,1.1
			c0,0.6-0.5,1.2-1.1,1.2c-0.6,0-1.1-0.5-1.2-1.1C161,374.4,161.5,373.8,162.1,373.8C162.8,373.8,161.5,373.8,162.1,373.8z"/>
	</g>
	<path class="st1" d="M163.4,368.1l0-0.7c102.3-0.5,154.6-62.1,205.1-121.7c25.3-29.8,51.5-60.7,83.6-83.5
		c36-25.6,75.9-38.2,122-38.4l0,0.7C471.7,125,419.5,186.6,369,246.2c-25.3,29.8-51.5,60.7-83.6,83.5
		C249.3,355.3,209.4,367.9,163.4,368.1z"/>
	<g>
		<path class="st2" d="M162.2,369.1c-0.7,0-1.3-0.6-1.3-1.3c0-0.7,0.6-1.4,1.3-1.4c0.7,0,1.3,0.6,1.3,1.3
			C163.5,368.5,162.9,369.1,162.2,369.1z"/>
		<path class="st2" d="M162.2,369.3c0.8,0,1.5-0.7,1.5-1.5c0-0.8-0.7-1.5-1.5-1.5c-0.8,0-1.5,0.7-1.5,1.5
			C160.7,368.6,161.4,369.3,162.2,369.3C163,369.3,161.4,369.3,162.2,369.3z M162.1,366.6c0.6,0,1.1,0.5,1.2,1.1
			c0,0.6-0.5,1.2-1.1,1.2c-0.6,0-1.1-0.5-1.2-1.1C161,367.1,161.5,366.6,162.1,366.6C162.8,366.6,161.5,366.6,162.1,366.6z"/>
	</g>
	<path class="st3" d="M163.4,371.8l0-0.7c102.4-0.4,154.6-46.9,205.2-91.9c25.3-22.5,51.5-45.8,83.6-63.1
		c36-19.3,75.9-28.8,121.9-29l0,0.7c-102.4,0.4-154.6,46.9-205.2,91.9c-25.3,22.5-51.5,45.8-83.6,63.1
		C249.3,362.1,209.4,371.6,163.4,371.8z"/>
	<g>
		<path class="st4" d="M162.2,372.7c-0.7,0-1.3-0.6-1.3-1.3s0.6-1.4,1.3-1.4c0.7,0,1.3,0.6,1.3,1.3
			C163.5,372.1,162.9,372.7,162.2,372.7z"/>
		<path class="st4" d="M162.2,372.9c0.8,0,1.5-0.7,1.5-1.5c0-0.8-0.7-1.5-1.5-1.5c-0.8,0-1.5,0.7-1.5,1.5
			C160.7,372.2,161.4,372.9,162.2,372.9C163,372.9,161.4,372.9,162.2,372.9z M162.1,370.2c0.6,0,1.1,0.5,1.2,1.2
			c0,0.6-0.5,1.2-1.1,1.2c-0.6,0-1.1-0.5-1.2-1.2C161,370.7,161.5,370.2,162.1,370.2C162.8,370.2,161.5,370.2,162.1,370.2z"/>
	</g>
	<path class="st9" d="M163.4,445.5l0-0.7c102.4-0.2,154.7-30.2,205.2-59.2c50.6-29,102.9-59,205.5-59.2l0,0.7
		c-102.4,0.2-154.7,30.2-205.2,59.2C318.3,415.2,265.9,445.2,163.4,445.5z"/>
	<g>
		<path class="st10" d="M162.2,446.6c0.8,0,1.5-0.7,1.5-1.5c0-0.8-0.7-1.5-1.5-1.5c-0.8,0-1.5,0.7-1.5,1.5
			C160.7,445.9,161.4,446.6,162.2,446.6C163,446.6,161.4,446.6,162.2,446.6z M162.1,443.9c0.6,0,1.1,0.5,1.2,1.1
			c0,0.6-0.5,1.2-1.1,1.2s-1.1-0.5-1.2-1.1C161,444.5,161.5,443.9,162.1,443.9C162.8,443.9,161.5,443.9,162.1,443.9z"/>
	</g>
	<path class="st7" d="M163.4,407.8l0-0.7c102.4-0.3,154.6-40.9,205.2-80.1c25.3-19.6,51.5-39.9,83.6-54.9
		c36-16.8,75.9-25.1,121.9-25.2l0,0.7c-102.4,0.3-154.6,40.9-205.2,80.1c-25.3,19.6-51.5,39.9-83.6,54.9
		C249.3,399.4,209.4,407.6,163.4,407.8z"/>
	<g>
		<path class="st8" d="M162.2,408.7c-0.7,0-1.3-0.6-1.3-1.3c0-0.7,0.6-1.4,1.3-1.4c0.7,0,1.3,0.6,1.3,1.3
			C163.5,408.1,162.9,408.7,162.2,408.7z"/>
		<path class="st8" d="M162.2,408.9c0.8,0,1.5-0.7,1.5-1.6c0-0.8-0.7-1.5-1.5-1.5c-0.8,0-1.5,0.7-1.5,1.6
			C160.7,408.2,161.4,408.9,162.2,408.9C163,408.9,161.4,408.9,162.2,408.9z M162.1,406.2c0.6,0,1.1,0.5,1.2,1.1
			c0,0.6-0.5,1.2-1.1,1.2c-0.6,0-1.1-0.5-1.2-1.1C161,406.8,161.5,406.2,162.1,406.2C162.8,406.2,161.5,406.2,162.1,406.2z"/>
	</g>
	<path class="st1" d="M163.4,404.1l0-0.7C265.7,402.9,318,334,368.5,267.3c25.3-33.4,51.5-67.9,83.6-93.4
		c17.3-13.7,34.9-23.9,53.8-30.9c21.2-7.9,43.5-11.9,68.2-12l0,0.7c-102.3,0.5-154.6,69.4-205.1,136.1
		c-25.3,33.4-51.5,67.9-83.6,93.4c-17.3,13.7-34.9,23.9-53.8,30.9C210.3,400.1,188,404,163.4,404.1z"/>
	<g>
		<path class="st2" d="M162.2,405.1c-0.7,0-1.3-0.6-1.3-1.3c0-0.7,0.6-1.4,1.3-1.4c0.7,0,1.3,0.6,1.3,1.3
			C163.5,404.5,162.9,405.1,162.2,405.1z"/>
		<path class="st2" d="M162.2,405.3c0.8,0,1.5-0.7,1.5-1.6c0-0.8-0.7-1.5-1.5-1.5c-0.8,0-1.5,0.7-1.5,1.6
			C160.7,404.6,161.4,405.3,162.2,405.3C163,405.3,161.4,405.3,162.2,405.3z M162.1,402.6c0.6,0,1.1,0.5,1.2,1.1
			c0,0.6-0.5,1.2-1.1,1.2c-0.6,0-1.1-0.5-1.2-1.1C161,403.1,161.5,402.6,162.1,402.6C162.8,402.6,161.5,402.6,162.1,402.6z"/>
	</g>
	<path class="st1" d="M163.4,229.4l0-0.7c102.4-0.3,154.7-32.3,205.2-63.3c25.3-15.5,51.5-31.6,83.6-43.4
		c36-13.3,75.9-19.8,121.9-20l0,0.7C471.7,103,419.4,135,368.9,166c-25.3,15.5-51.5,31.6-83.6,43.4
		C249.3,222.8,209.4,229.3,163.4,229.4z"/>
	<g>
		<path class="st2" d="M162.2,230.4c-0.7,0-1.3-0.6-1.3-1.3c0-0.7,0.6-1.4,1.3-1.4c0.7,0,1.3,0.6,1.3,1.3
			C163.5,229.7,162.9,230.3,162.2,230.4z"/>
		<path class="st2" d="M162.2,230.5c0.8,0,1.5-0.7,1.5-1.5c0-0.8-0.7-1.5-1.5-1.5c-0.8,0-1.5,0.7-1.5,1.5S161.4,230.6,162.2,230.5
			C163,230.5,161.4,230.6,162.2,230.5z M162.1,227.8c0.6,0,1.1,0.5,1.2,1.1c0,0.6-0.5,1.2-1.1,1.2c-0.6,0-1.1-0.5-1.2-1.1
			C161,228.4,161.5,227.9,162.1,227.8C162.8,227.8,161.5,227.9,162.1,227.8z"/>
	</g>
	<path class="st3" d="M163.4,233l0-0.7c102.4-0.1,154.7-17.1,205.3-33.5c50.6-16.4,102.9-33.4,205.4-33.5l0,0.7
		c-102.4,0.1-154.7,17.1-205.3,33.5C318.2,215.9,265.9,232.9,163.4,233z"/>
	<g>
		<path class="st4" d="M162.2,234c-0.7,0-1.3-0.6-1.3-1.3c0-0.7,0.6-1.3,1.3-1.4c0.7,0,1.3,0.6,1.3,1.3
			C163.5,233.4,162.9,234,162.2,234z"/>
		<path class="st4" d="M162.2,234.2c0.8,0,1.5-0.7,1.5-1.5c0-0.8-0.7-1.5-1.5-1.5c-0.8,0-1.5,0.7-1.5,1.5
			C160.7,233.5,161.3,234.2,162.2,234.2C163,234.2,161.3,234.2,162.2,234.2z M162.1,231.5c0.6,0,1.1,0.5,1.1,1.2
			c0,0.6-0.5,1.2-1.1,1.2c-0.6,0-1.1-0.5-1.1-1.2C161,232,161.5,231.5,162.1,231.5C162.8,231.5,161.5,231.5,162.1,231.5z"/>
	</g>
	<path class="st7" d="M163.4,236.6v-0.7c102.5,0,154.8-1.9,205.3-3.6c50.6-1.8,102.9-3.6,205.4-3.6v0.7
		c-102.5,0-154.8,1.9-205.3,3.6C318.2,234.8,265.9,236.6,163.4,236.6z"/>
	<g>
		<path class="st8" d="M162.2,237.6c-0.7,0-1.3-0.6-1.3-1.3c0-0.7,0.6-1.3,1.3-1.3c0.7,0,1.3,0.6,1.3,1.3
			C163.5,237,162.9,237.6,162.2,237.6z"/>
		<path class="st8" d="M162.2,237.8c0.8,0,1.5-0.7,1.5-1.5c0-0.8-0.7-1.5-1.5-1.5c-0.8,0-1.5,0.7-1.5,1.5
			C160.7,237.1,161.3,237.8,162.2,237.8C163,237.8,161.3,237.8,162.2,237.8z M162.1,235.1c0.6,0,1.1,0.5,1.1,1.2
			c0,0.6-0.5,1.2-1.1,1.2c-0.6,0-1.1-0.5-1.1-1.2C161,235.6,161.5,235.1,162.1,235.1C162.8,235.1,161.5,235.1,162.1,235.1z"/>
	</g>
	<path class="st1" d="M163.4,348.3l0-0.7c102.3-0.5,154.6-58,205.1-113.6c25.3-27.9,51.5-56.7,83.6-78c36-23.9,75.9-35.6,122-35.8
		l0,0.7c-102.3,0.5-154.6,58-205.1,113.6c-25.3,27.9-51.5,56.7-83.6,78C249.3,336.4,209.4,348.1,163.4,348.3z"/>
	<g>
		<path class="st2" d="M162.2,349.3c-0.7,0-1.3-0.6-1.3-1.3c0-0.7,0.6-1.4,1.3-1.4c0.7,0,1.3,0.6,1.3,1.3
			C163.5,348.7,162.9,349.3,162.2,349.3z"/>
		<path class="st2" d="M162.2,349.5c0.8,0,1.5-0.7,1.5-1.5c0-0.8-0.7-1.5-1.5-1.5c-0.8,0-1.5,0.7-1.5,1.5S161.4,349.5,162.2,349.5
			C163,349.4,161.4,349.5,162.2,349.5z M162.1,346.8c0.6,0,1.1,0.5,1.2,1.1c0,0.6-0.5,1.2-1.1,1.2c-0.6,0-1.1-0.5-1.2-1.1
			C161,347.3,161.5,346.8,162.1,346.8C162.8,346.8,161.5,346.8,162.1,346.8z"/>
	</g>
	<path class="st3" d="M163.4,351.9l0-0.7c102.4-0.3,154.6-42.8,205.2-83.8c25.3-20.5,51.5-41.8,83.6-57.5
		c36-17.6,75.9-26.3,121.9-26.4l0,0.7C471.7,184.5,419.5,227,368.9,268c-25.3,20.5-51.5,41.8-83.6,57.5
		C249.3,343.1,209.4,351.8,163.4,351.9z"/>
	<g>
		<path class="st4" d="M162.2,352.9c-0.7,0-1.3-0.6-1.3-1.3c0-0.7,0.6-1.4,1.3-1.4c0.7,0,1.3,0.6,1.3,1.3
			C163.5,352.3,162.9,352.9,162.2,352.9z"/>
		<path class="st4" d="M162.2,353.1c0.8,0,1.5-0.7,1.5-1.5c0-0.8-0.7-1.5-1.5-1.5c-0.8,0-1.5,0.7-1.5,1.5
			C160.7,352.4,161.3,353.1,162.2,353.1C163,353.1,161.3,353.1,162.2,353.1z M162.1,350.4c0.6,0,1.1,0.5,1.1,1.2
			c0,0.6-0.5,1.2-1.1,1.2c-0.6,0-1.1-0.5-1.1-1.2C161,350.9,161.5,350.4,162.1,350.4C162.8,350.4,161.5,350.4,162.1,350.4z"/>
	</g>
	<path class="st5" d="M163.4,355.6l0-0.7c102.4-0.1,154.7-16,205.3-31.4c50.6-15.4,102.9-31.3,205.4-31.4l0,0.7
		c-102.4,0.1-154.7,16-205.3,31.4C318.2,339.5,265.9,355.4,163.4,355.6z"/>
	<g>
		<path class="st6" d="M162.2,356.5c-0.7,0-1.3-0.6-1.3-1.3c0-0.7,0.6-1.3,1.3-1.4c0.7,0,1.3,0.6,1.3,1.3
			C163.5,355.9,162.9,356.5,162.2,356.5z"/>
		<path class="st6" d="M162.2,356.7c0.8,0,1.5-0.7,1.5-1.5c0-0.8-0.7-1.5-1.5-1.5c-0.8,0-1.5,0.7-1.5,1.5
			C160.7,356,161.3,356.7,162.2,356.7C163,356.7,161.3,356.7,162.2,356.7z M162.1,354c0.6,0,1.1,0.5,1.1,1.2c0,0.6-0.5,1.2-1.1,1.2
			c-0.6,0-1.1-0.5-1.1-1.2C161,354.6,161.5,354,162.1,354C162.8,354,161.5,354,162.1,354z"/>
	</g>
	<path class="st3" d="M163.4,209.6v-0.7c102.4-0.1,154.7-12,205.3-23.6c50.6-11.5,102.9-23.5,205.4-23.6v0.7
		c-102.4,0.1-154.7,12-205.3,23.6C318.2,197.5,265.9,209.5,163.4,209.6z"/>
	<g>
		<path class="st4" d="M162.2,210.5c-0.7,0-1.3-0.6-1.3-1.3c0-0.7,0.6-1.4,1.3-1.4c0.7,0,1.3,0.6,1.3,1.3
			C163.5,209.9,162.9,210.5,162.2,210.5z"/>
		<path class="st4" d="M162.2,210.7c0.8,0,1.5-0.7,1.5-1.5c0-0.8-0.7-1.5-1.5-1.5c-0.8,0-1.5,0.7-1.5,1.5
			C160.7,210.1,161.4,210.7,162.2,210.7C163,210.7,161.4,210.7,162.2,210.7z M162.1,208c0.6,0,1.1,0.5,1.2,1.2
			c0,0.6-0.5,1.2-1.1,1.2c-0.6,0-1.1-0.5-1.2-1.2C161,208.6,161.5,208,162.1,208C162.8,208,161.5,208,162.1,208z"/>
	</g>
	<path class="st5" d="M574.1,285.5c-102.5-0.1-154.8-18.5-205.4-36.2c-50.6-17.7-102.8-36-205.3-36.1l0-0.7
		c102.5,0.1,154.8,18.5,205.4,36.2c50.6,17.7,102.8,36,205.3,36.1L574.1,285.5z"/>
	<g>
		<path class="st6" d="M162.1,214.2c-0.7,0-1.3-0.6-1.3-1.4c0-0.7,0.6-1.3,1.3-1.3c0.7,0,1.3,0.6,1.3,1.4
			C163.5,213.6,162.9,214.2,162.1,214.2z"/>
		<path class="st6" d="M162.1,214.4c0.8,0,1.5-0.7,1.5-1.5c0-0.8-0.7-1.5-1.5-1.5c-0.8,0-1.5,0.7-1.5,1.5
			C160.7,213.7,161.3,214.4,162.1,214.4C163,214.4,161.3,214.4,162.1,214.4z M162.2,211.7c0.6,0,1.1,0.5,1.1,1.2
			c0,0.6-0.5,1.2-1.1,1.2c-0.6,0-1.1-0.5-1.1-1.2C161,212.2,161.5,211.7,162.2,211.7C162.8,211.7,161.5,211.7,162.2,211.7z"/>
	</g>
	<path class="st9" d="M574.1,319.8c-102.5-0.2-154.9-26.3-205.5-51.5c-50.5-25.2-102.8-51.3-205.2-51.5l0-0.7
		c102.5,0.2,154.9,26.3,205.5,51.5c50.5,25.2,102.8,51.3,205.2,51.5L574.1,319.8z"/>
	<g>
		<path class="st10" d="M162.1,217.8c-0.7,0-1.3-0.6-1.3-1.4c0-0.7,0.6-1.3,1.3-1.3c0.7,0,1.3,0.6,1.3,1.4
			C163.5,217.3,162.9,217.8,162.1,217.8z"/>
		<path class="st10" d="M162.1,218c0.8,0,1.5-0.7,1.5-1.5c0-0.8-0.6-1.5-1.5-1.5c-0.8,0-1.5,0.7-1.5,1.5
			C160.7,217.3,161.3,218,162.1,218C163,218,161.3,218,162.1,218z M162.2,215.3c0.6,0,1.1,0.5,1.1,1.2c0,0.6-0.5,1.2-1.2,1.1
			c-0.6,0-1.1-0.5-1.1-1.2C161,215.8,161.5,215.3,162.2,215.3C162.8,215.3,161.5,215.3,162.2,215.3z"/>
	</g>
	<path class="st1" d="M163.4,205.9l0-0.7c102.4-0.2,154.7-27.3,205.2-53.4c50.6-26.2,102.9-53.2,205.5-53.5l0,0.7
		c-102.4,0.2-154.7,27.3-205.2,53.4C318.3,178.7,265.9,205.7,163.4,205.9z"/>
	<g>
		<path class="st2" d="M162.2,206.9c-0.7,0-1.3-0.6-1.3-1.3c0-0.7,0.6-1.4,1.3-1.4c0.7,0,1.3,0.6,1.3,1.3
			C163.5,206.3,162.9,206.9,162.2,206.9z"/>
		<path class="st2" d="M162.2,207.1c0.8,0,1.5-0.7,1.5-1.5c0-0.8-0.7-1.5-1.5-1.5c-0.8,0-1.5,0.7-1.5,1.5
			C160.7,206.4,161.4,207.1,162.2,207.1C163,207.1,161.4,207.1,162.2,207.1z M162.1,204.4c0.6,0,1.1,0.5,1.2,1.1s-0.5,1.2-1.1,1.2
			c-0.6,0-1.1-0.5-1.2-1.1S161.5,204.4,162.1,204.4C162.8,204.4,161.5,204.4,162.1,204.4z"/>
	</g>
	<path class="st3" d="M163.4,458l0-0.7c102.3-0.5,154.6-68,205.1-133.2c25.3-32.6,51.5-66.4,83.6-91.4
		c17.3-13.5,34.9-23.4,53.8-30.3c21.2-7.8,43.5-11.6,68.2-11.7l0,0.7c-102.3,0.5-154.6,68-205.1,133.2
		c-25.3,32.6-51.5,66.4-83.6,91.4c-17.3,13.5-34.9,23.4-53.8,30.3C210.3,454.1,188,457.9,163.4,458z"/>
	<g>
		<path class="st4" d="M162.2,459.2c0.8,0,1.5-0.7,1.5-1.5c0-0.8-0.7-1.5-1.5-1.5s-1.5,0.7-1.5,1.5S161.4,459.2,162.2,459.2
			C163,459.1,161.4,459.2,162.2,459.2z M162.1,456.5c0.6,0,1.1,0.5,1.2,1.1c0,0.6-0.5,1.2-1.1,1.2c-0.6,0-1.1-0.5-1.2-1.1
			C161,457,161.5,456.5,162.1,456.5S161.5,456.5,162.1,456.5z"/>
	</g>
	<text transform="matrix(1 0 0 1 586.1787 396.9699)" class="st11 st20 st21">Enhance the image of Mexico</text>
	<text transform="matrix(1 0 0 1 586.1787 279.5841)" class="st5 st20 st21">Enhancement and support of local production</text>
	<text transform="matrix(1 0 0 1 586.1787 169.4044)" class="st3 st20 st21">Food safety</text>
	<text transform="matrix(1 0 0 1 586.1787 227.132)" class="st7 st20 st21">Helping producers in improving their lives</text>
	<text transform="matrix(1 0 0 1 586.1787 382.7961)" class="st18 st20 st21">Inspiring local action to solve local problems</text>
	<text transform="matrix(1 0 0 1 586.1787 319.4025)" class="st9 st20 st21">Promote a fair-trade society</text>
	<text transform="matrix(1 0 0 1 586.1787 345.5041)" class="st16 st20 st21">Promote certification labels</text>
	<text transform="matrix(1 0 0 1 586.1787 364.4123)" class="st14 st20 st21">Raising awareness of consumers and retailers</text>
	<path class="st22" d="M575.3,75.4L575.3,75.4c0.7,0,1.3,0.7,1.3,1.5v54.2c0,0.8-0.6,1.5-1.3,1.5h0c-0.7,0-1.3-0.7-1.3-1.5V77
		C574,76.1,574.6,75.4,575.3,75.4z"/>
	<path class="st23" d="M575.3,142.4L575.3,142.4c0.7,0,1.3,0.7,1.3,1.5v47.2c0,0.8-0.6,1.5-1.3,1.5h0c-0.7,0-1.3-0.7-1.3-1.5v-47.2
		C574,143.1,574.6,142.4,575.3,142.4z"/>
	<path class="st24" d="M575.3,202.1L575.3,202.1c0.7,0,1.3,0.7,1.3,1.5v43.2c0,0.8-0.6,1.5-1.3,1.5l0,0c-0.7,0-1.3-0.7-1.3-1.5
		v-43.2C574,202.8,574.6,202.1,575.3,202.1z"/>
	<path class="st25" d="M575.3,258.2L575.3,258.2c0.7,0,1.3,0.7,1.3,1.5v36c0,0.8-0.6,1.5-1.3,1.5h0c-0.7,0-1.3-0.7-1.3-1.5v-36
		C574,258.9,574.6,258.2,575.3,258.2z"/>
	<path class="st26" d="M575.3,307.1L575.3,307.1c0.7,0,1.3,0.7,1.3,1.5v17.8c0,0.8-0.6,1.5-1.3,1.5h0c-0.7,0-1.3-0.7-1.3-1.5v-17.8
		C574,307.8,574.6,307.1,575.3,307.1z"/>
	<path class="st27" d="M575.2,339.5L575.2,339.5c0.7,0,1.3,0.7,1.3,1.5v5.1c0,0.8-0.6,1.5-1.3,1.5l0,0c-0.7,0-1.3-0.7-1.3-1.5v-5.1
		C573.9,340.2,574.5,339.5,575.2,339.5z"/>
	<path class="st28" d="M575.2,357.5L575.2,357.5c0.7,0,1.3,0.7,1.3,1.5v6.9c0,0.8-0.6,1.5-1.3,1.5l0,0c-0.7,0-1.3-0.7-1.3-1.5v-6.9
		C573.9,358.2,574.5,357.5,575.2,357.5z"/>
	<path class="st29" d="M575.3,377.7L575.3,377.7c0.7,0,1.3,0.7,1.3,1.5v3.3c0,0.8-0.6,1.5-1.3,1.5l0,0c-0.7,0-1.3-0.7-1.3-1.5v-3.3
		C574,378.4,574.6,377.7,575.3,377.7z"/>
	<text transform="matrix(1 0 0 1 586.1787 105.9855)" class="st1 st20 st21">Sustainable farming</text>
	<g>
		<text transform="matrix(1 0 0 1 86.7949 254.2277)" class="st30 st20 st31">Abudance Coop</text>
	</g>
	<g>
		<text transform="matrix(1 0 0 1 103.9404 94.7726)" class="st30 st20 st31">Bio Planeta</text>
	</g>
	<g>
		<text transform="matrix(1 0 0 1 102.7158 119.0939)" class="st30 st20 st31">Campo Vivo</text>
	</g>
	<g>
		<text transform="matrix(1 0 0 1 97.8198 273.9084)" class="st30 st20 st31">Central Coop</text>
	</g>
	<g>
		<text transform="matrix(1 0 0 1 117.2959 142.5099)" class="st30 st20 st31">Conecto</text>
	</g>
	<g>
		<text transform="matrix(1 0 0 1 42.6772 48.3722)" class="st30 st20 st31">Del Rey Avocado Company</text>
	</g>
	<g>
		<text transform="matrix(1 0 0 1 63.4316 391.1945)" class="st30 st20 st31">Equal Exchange Coop</text>
	</g>
	<g>
		<text transform="matrix(1 0 0 1 77.3633 294.2423)" class="st30 st20 st31">Fair World Project</text>
	</g>
	<g>
		<text transform="matrix(1 0 0 1 77.9756 166.0988)" class="st30 st20 st31">Fairtrade America</text>
	</g>
	<g>
		<text transform="matrix(1 0 0 1 114.5332 189.4171)" class="st30 st20 st31">Fairtrasa</text>
	</g>
	<g>
		<text transform="matrix(1 0 0 1 88.7847 314.0285)" class="st30 st20 st31">Harvest Market</text>
	</g>
	<g>
		<text transform="matrix(1 0 0 1 95.4263 421.1173)" class="st30 st20 st31">La Coperacha</text>
	</g>
	<g>
		<text transform="matrix(1 0 0 1 102.7432 72.2033)" class="st30 st20 st31">La Cupanda</text>
	</g>
	<g>
		<text transform="matrix(1 0 0 1 22.3198 334.1984)" class="st30 st20 st31">Middleburt Natural Food Coops</text>
	</g>
	<g>
		<text transform="matrix(1 0 0 1 99.6562 433.6808)" class="st30 st20 st31">Peace Geeks</text>
	</g>
	<g>
		<text transform="matrix(1 0 0 1 123.5693 23.8322)" class="st30 st20 st31">Pragor</text>
	</g>
	<g>
		<text transform="matrix(1 0 0 1 79.3252 373.3371)" class="st30 st20 st31">Prometo Produce</text>
	</g>
	<g>
		<text transform="matrix(1 0 0 1 130.5078 446.9367)" class="st30 st20 st31">RSES</text>
	</g>
	<g>
		<text transform="matrix(1 0 0 1 68.7598 407.7619)" class="st30 st20 st31">Untours Foundation</text>
	</g>
	<g>
		<text transform="matrix(1 0 0 1 66.2485 234.7628)" class="st30 st20 st31">Valley Natural Foods</text>
	</g>
	<g>
		<text transform="matrix(1 0 0 1 44.4146 353.4211)" class="st30 st20 st31">Viroqua Food Cooperative</text>
	</g>
	<g>
		<text transform="matrix(1 0 0 1 62.9458 212.9621)" class="st30 st20 st31">Weaver Street Market</text>
	</g>
	<g>
		<text transform="matrix(1 0 0 1 36.4766 459.6212)" class="st30 st20 st31">West Pack Avocado Growers</text>
	</g>
</g>
<g id="Livello_2">
	<g id="Guide">
	</g>
</g>
</svg>
