<?xml version="1.0" encoding="utf-8"?>
<!-- Generator: Adobe Illustrator 22.1.0, SVG Export Plug-In . SVG Version: 6.00 Build 0)  -->
<svg version="1.1" id="图层_1" xmlns="http://www.w3.org/2000/svg" xmlns:xlink="http://www.w3.org/1999/xlink" x="0px" y="0px"
	 viewBox="0 0 1224 475" style="enable-background:new 0 0 1224 475;" xml:space="preserve">
<style type="text/css">
	.st0{fill:none;stroke:#FFFFFF;stroke-width:0.75;stroke-miterlimit:10;stroke-dasharray:3,3;}
	.st1{fill:none;stroke:#B3B3B3;stroke-width:0.75;stroke-miterlimit:10;stroke-dasharray:3,3;}
	.st2{fill:none;stroke:#F7931E;stroke-miterlimit:10;}
	.st3{fill:none;stroke:#F7931E;stroke-width:0.5;stroke-miterlimit:10;}
	.st4{fill:#FFFFFF;}
	.st5{font-family:'Fira Sans', sans-serif; font-weight:400;}
	.st6{font-size:9.4851px;}
	.st7{font-size:12px;}
	.st8{opacity:0.65;}
	.st9{opacity:0.5;fill:#F7931E;}
	.st10{fill:#F7931E;}
	.st11{opacity:0.65;fill:#F7931E;}
	.st12{opacity:0.5;fill:none;stroke:#FFFFFF;stroke-width:1.5;stroke-miterlimit:10;}
	.st13{fill:none;stroke:#FFFFFF;stroke-width:1.5;stroke-miterlimit:10;}
	.st14{opacity:0.85;fill:none;stroke:#FFFFFF;stroke-width:0.5;stroke-miterlimit:10;stroke-dasharray:1,4;}
	.st15{opacity:0.5;fill:none;stroke:#000000;stroke-miterlimit:10;}
	.st16{fill:none;stroke:#000000;stroke-width:0.5;stroke-miterlimit:10;stroke-dasharray:1,4;}
	.st17{fill:none;stroke:#FFFFFF;stroke-miterlimit:10;}
	.st18{font-family:'Fira Sans', sans-serif; font-weight:300;}
	.st19{fill:#F15A24;}
</style>
<line class="st0" x1="264.5" y1="122" x2="264.5" y2="141"/>
<line class="st0" x1="374.5" y1="141.5" x2="374.5" y2="217"/>
<path class="st1" d="M673.5,456.5"/>
<path class="st1" d="M673.5,389.5"/>
<line class="st0" x1="374.5" y1="141" x2="374.5" y2="180"/>
<line class="st0" x1="175.2" y1="76.7" x2="175.2" y2="92"/>
<line class="st0" x1="209.8" y1="91.5" x2="209.8" y2="105.6"/>
<line class="st0" x1="204.9" y1="91" x2="204.9" y2="124"/>
<g>
	<line class="st2" x1="434" y1="34.8" x2="911.3" y2="34.8"/>
	<line class="st3" x1="434" y1="34.8" x2="434" y2="40.2"/>
	<line class="st3" x1="493.7" y1="34.8" x2="493.7" y2="40.2"/>
	<line class="st3" x1="553.3" y1="34.8" x2="553.3" y2="40.2"/>
	<line class="st3" x1="613" y1="34.8" x2="613" y2="40.2"/>
	<line class="st3" x1="672.6" y1="34.8" x2="672.6" y2="40.2"/>
	<line class="st3" x1="732.3" y1="34.8" x2="732.3" y2="40.2"/>
	<line class="st3" x1="792" y1="34.8" x2="792" y2="40.2"/>
	<line class="st3" x1="851.6" y1="34.8" x2="851.6" y2="40.2"/>
	<line class="st3" x1="911.3" y1="34.8" x2="911.3" y2="40.2"/>
</g>
<g>
	<polyline class="st2" points="136,34.8 276.9,34.8 295.5,15.5 322.5,49.5 347.5,19.5 360.8,34.8 434.3,34.8 	"/>
	<line class="st3" x1="136" y1="34.8" x2="136" y2="40.2"/>
	<line class="st3" x1="195.6" y1="34.8" x2="195.6" y2="40.2"/>
	<line class="st3" x1="255.3" y1="34.8" x2="255.3" y2="40.2"/>
	<line class="st3" x1="374.6" y1="34.8" x2="374.6" y2="40.2"/>
	<line class="st3" x1="434.3" y1="34.8" x2="434.3" y2="40.2"/>
</g>
<text transform="matrix(1 0 0 1 423.5449 28.8369)" class="st4 st5 st6">2009</text>
<text transform="matrix(1 0 0 1 481.8889 28.8369)" class="st4 st5 st6">2010</text>
<text transform="matrix(1 0 0 1 543.2329 28.8369)" class="st4 st5 st6">2011</text>
<text transform="matrix(1 0 0 1 602.5769 28.8369)" class="st4 st5 st6">2012</text>
<text transform="matrix(1 0 0 1 661.9209 28.8369)" class="st4 st5 st6">2013</text>
<text transform="matrix(1 0 0 1 721.2649 28.8369)" class="st4 st5 st6">2014</text>
<text transform="matrix(1 0 0 1 780.6089 28.8369)" class="st4 st5 st6">2015</text>
<text transform="matrix(1 0 0 1 840.9529 28.8369)" class="st4 st5 st6">2016</text>
<text transform="matrix(1 0 0 1 898.2969 28.8369)" class="st4 st5 st6">2017</text>
<g>
	<text transform="matrix(1 0 0 1 128.9209 28.8369)" class="st4 st5 st6">1960</text>
</g>
<g>
	<text transform="matrix(1 0 0 1 188.2649 28.8369)" class="st4 st5 st6">1980</text>
</g>
<g>
	<text transform="matrix(1 0 0 1 247.6089 28.8369)" class="st4 st5 st6">2000</text>
</g>
<text transform="matrix(1 0 0 1 365.2969 28.8369)" class="st4 st5 st6">2008</text>
<circle class="st4" cx="175.5" cy="91.5" r="3.5"/>
<circle class="st4" cx="264.5" cy="137.5" r="3.5"/>
<line class="st0" x1="553.5" y1="328" x2="553.5" y2="389"/>
<circle class="st4" cx="673.5" cy="456.5" r="3.5"/>
<circle class="st4" cx="374.5" cy="176.5" r="3.5"/>
<g>
	<text transform="matrix(1 -2.440000e-03 2.440000e-03 1 102.1691 179.5882)" class="st4 st5 st7">CJNG</text>
</g>
<g>
	<text transform="matrix(1 -2.440000e-03 2.440000e-03 1 53.3183 76.1212)" class="st4 st5 st7">Sinaloa cartel</text>
</g>
<g>
	<text transform="matrix(1 -2.440000e-03 2.440000e-03 1 62.4385 91.8037)" class="st4 st5 st7">Guadalajara</text>
</g>
<g>
	<text transform="matrix(1 -2.440000e-03 2.440000e-03 1 60.2665 107.5151)" class="st4 st5 st7">Juarez cartel</text>
</g>
<g>
	<text transform="matrix(1 -2.440000e-03 2.440000e-03 1 9.8288 124.1483)" class="st4 st5 st7">Arellano Felix borther</text>
</g>
<g>
	<text transform="matrix(1 -2.440000e-03 2.440000e-03 1 88.2975 138.8577)" class="st4 st5 st7">Tijuana</text>
</g>
<g>
	<text transform="matrix(1 -2.440000e-03 2.440000e-03 1 88.1178 215.5639)" class="st4 st5 st7">Milenio</text>
</g>
<g>
	<text transform="matrix(1 -2.440000e-03 2.440000e-03 1 78.4249 323.806)"><tspan x="0" y="0" class="st4 st5 st7">la familia</tspan><tspan x="-11.6" y="10.4" class="st4 st5 st7"> michoacan</tspan></text>
</g>
<g>
	<text transform="matrix(1 -2.440000e-03 2.440000e-03 1 49.805 387.5817)"><tspan x="0" y="0" class="st4 st5 st7">Los Caballeros</tspan><tspan x="18.7" y="10.4" class="st4 st5 st7">Templarios</tspan></text>
</g>
<g>
	<text transform="matrix(1 -2.440000e-03 2.440000e-03 1 72.7968 450.2313)"><tspan x="0" y="0" class="st4 st5 st7">La Tercera</tspan><tspan x="-7.6" y="10.4" class="st4 st5 st7">Hermandad</tspan></text>
</g>
<g>
	<text transform="matrix(1 -2.440000e-03 2.440000e-03 1 75.4267 260.3028)" class="st4 st5 st7">Los cuinis</text>
</g>
<g class="st8">
	<path class="st9" d="M779.8,390.2"/>
	<polyline class="st10" points="554,390 911.5,389.9 911.5,348.7 851.5,332.9 791.5,332.9 732.5,353.4 672.5,349.5 612.5,355.8 
		553.3,358.6 553.5,389.9 	"/>
</g>
<g class="st8">
	<path class="st9" d="M779.8,456.2"/>
	<polygon class="st10" points="674,456.5 732.5,438.3 791.5,422.4 851.5,412.2 911.5,413.7 911.5,456.5 702.2,456.5 	"/>
</g>
<polyline class="st11" points="494.5,260.5 732.5,254.7 791.5,237.3 851.5,236.5 911.5,231.7 911.5,261 608.1,260.9 "/>
<g>
	<line class="st12" x1="184.7" y1="75.9" x2="137.2" y2="75.9"/>
	<line class="st13" x1="138" y1="75.9" x2="910.9" y2="75.9"/>
</g>
<g class="st8">
	<path class="st9" d="M779.8,326.5"/>
	<polygon class="st10" points="911,326.9 265,326.9 433.5,287.6 493.5,286.1 553.5,284.5 612.5,290.8 672.5,290.8 732.5,286.8 
		791.5,289.2 851.5,292.4 911.5,286.8 	"/>
</g>
<line class="st14" x1="911.8" y1="91.3" x2="137.2" y2="91.3"/>
<line class="st13" x1="175.1" y1="91.6" x2="345.3" y2="91.6"/>
<line class="st14" x1="911.8" y1="123.3" x2="137.2" y2="123.3"/>
<line class="st13" x1="205" y1="123.3" x2="264.8" y2="123.3"/>
<line class="st14" x1="911.8" y1="106.9" x2="137.2" y2="106.9"/>
<line class="st13" x1="323.4" y1="107.2" x2="209.5" y2="107.2"/>
<line class="st14" x1="779.8" y1="260.6" x2="138.2" y2="260.6"/>
<line class="st13" x1="493.5" y1="261.2" x2="911" y2="261.2"/>
<line class="st14" x1="911.8" y1="138" x2="137.2" y2="138"/>
<line class="st13" x1="264.4" y1="137.8" x2="639.2" y2="137.8"/>
<line class="st15" x1="639.3" y1="137.8" x2="911.5" y2="137.8"/>
<line class="st14" x1="912" y1="216.5" x2="137.2" y2="216.5"/>
<line class="st13" x1="344.7" y1="216.8" x2="912" y2="216.8"/>
<path class="st16" d="M434,327"/>
<line class="st14" x1="912" y1="389.6" x2="137.2" y2="389.6"/>
<line class="st13" x1="554" y1="389.8" x2="912" y2="389.8"/>
<line class="st14" x1="912" y1="456.2" x2="137.2" y2="456.2"/>
<line class="st13" x1="674" y1="456.9" x2="912" y2="456.9"/>
<polygon class="st11" points="958.2,124 1019.2,96 1019.2,124 "/>
<line class="st14" x1="912" y1="326.5" x2="137.2" y2="326.5"/>
<line class="st14" x1="911.8" y1="176.4" x2="137.2" y2="176.4"/>
<line class="st13" x1="374.2" y1="176.7" x2="911.5" y2="176.7"/>
<line class="st17" x1="264.4" y1="327" x2="911.5" y2="327"/>
<polygon class="st11" points="374,176 434,145.1 494,143.5 553,137.2 613,136.4 673,138 735,134 792,134.8 852,134.8 911,141.9 
	911,176 "/>
<g>
	<text transform="matrix(1 0 0 1 1034.3857 41.2803)" class="st4 st18 st7">Year of foundation</text>
</g>
<g>
	<g>
		<text transform="matrix(1 0 0 1 1034.3857 74.9128)" class="st4 st5 st7">Splitting</text>
	</g>
</g>
<rect x="1006" y="62" class="st19" width="14.7" height="14.7"/>
<circle class="st4" cx="1013.4" cy="37.6" r="6.4"/>
<g>
	<g>
		<g>
			<text transform="matrix(1 0 0 1 1034.3857 108.2812)"><tspan x="0" y="0" class="st4 st5 st7">Google search results</tspan><tspan x="0" y="10.4" class="st4 st5 st7">for the relation of criminal cartels </tspan><tspan x="0" y="20.8" class="st4 st5 st7">to avocado trade</tspan></text>
		</g>
	</g>
</g>
<rect x="171" y="72" class="st19" width="8" height="8"/>
<rect x="206" y="87" class="st19" width="8" height="8"/>
<rect x="261" y="120" class="st19" width="8" height="8"/>
<rect x="371" y="134" class="st19" width="8" height="8"/>
<rect x="371" y="213" class="st19" width="8" height="8"/>
<rect x="550" y="323" class="st19" width="8" height="8"/>
<circle class="st4" cx="137.5" cy="75.5" r="3.5"/>
<circle class="st4" cx="209.5" cy="107.5" r="3.5"/>
<circle class="st4" cx="205.5" cy="123.5" r="3.5"/>
<circle class="st4" cx="494.5" cy="260.5" r="3.5"/>
<circle class="st4" cx="553.5" cy="389.5" r="3.5"/>
<circle class="st4" cx="265" cy="326.5" r="3.5"/>
</svg>
