<?xml version="1.0" encoding="utf-8"?>
<!-- Generator: Adobe Illustrator 23.0.1, SVG Export Plug-In . SVG Version: 6.00 Build 0)  -->
<svg version="1.1" id="Livello_1" xmlns="http://www.w3.org/2000/svg" xmlns:xlink="http://www.w3.org/1999/xlink" x="0px" y="0px"
	 viewBox="0 0 894.2 259" style="enable-background:new 0 0 894.2 259;" xml:space="preserve">
<style type="text/css">
	.st0{fill:#1B2029;}
	.st1{fill:#FAFBFC;}
	.st2{opacity:0.6;fill:#FFFFFF;enable-background:new    ;}
	.st3{fill:#FFFFFF;}
</style>
<g id="Sfondo">
	<g>
		<rect x="-378.9" y="0.1" class="st0" width="1273.4" height="258.5"/>
	</g>
</g>
<circle class="st1" cx="715.8" cy="126.3" r="0.8"/>
<circle class="st1" cx="591" cy="126.3" r="0.8"/>
<g id="neutral">
</g>
<g id="LIKE_x2F_DISLIKE">
</g>
<g id="feminist">
</g>
<g id="Legenda">
</g>
<g>
	<circle class="st2" cx="769.5" cy="126.3" r="75.6"/>
	<g>
		<path class="st3" d="M77.4,84.6v82.6H63.7V98.3h-1.4l-13.5,23H34.2l22.2-36.7H77.4z"/>
		<path class="st3" d="M128,82.9c18.8,0,31.3,12.4,31.3,33.5v18.9c0,21.5-12.3,33.5-31.3,33.5c-19,0-31.3-12-31.3-33.5v-18.9
			C96.7,95.3,109,82.9,128,82.9z M110.4,135.8c0,13.1,5.9,20.6,17.6,20.6c11.9,0,17.6-7.8,17.6-20.6V116c0-13.1-6.3-20.6-17.6-20.6
			c-11.4,0-17.6,7.8-17.6,20.6V135.8z"/>
		<path class="st3" d="M227.7,84.6l9.7,69.7h1.4l12.5-69.7H273l12.5,69.7h1.4l9.7-69.7h13.8l-12.2,82.6h-22.9l-12.5-69.7h-1.4
			L249,167.2h-22.8l-12.3-82.6H227.7z"/>
		<path class="st3" d="M357.4,82.9c20.4,0,33,12.7,33,34v17.9c0,21.5-12.4,34-33,34c-20.5,0-33-12.5-33-34v-17.9
			C324.4,95.7,336.9,82.9,357.4,82.9z M338,135.3c0,13.2,6.3,21.1,19.4,21.1c13.3,0,19.4-8.1,19.4-21.1v-18.9
			c0-13.2-6.7-21.1-19.4-21.1c-12.7,0-19.4,8.1-19.4,21.1V135.3z"/>
		<path class="st3" d="M452.4,134.1l17.6,33h-15.1L438.5,135h-15v32.2h-13.7V84.6h35.4c15.3,0,26,10,26,25.3
			C471.1,122.5,463.6,131.4,452.4,134.1z M423.5,122.5h20.3c8.5,0,13.7-4.7,13.7-12.6c0-8-5.1-12.7-13.7-12.7h-20.3V122.5z"/>
		<path class="st3" d="M516.5,84.6c21.6,0,33.7,10.7,33.7,32.8v17c0,21.9-12.2,32.8-33.7,32.8h-26.9V84.6H516.5z M503.2,154.7h13.2
			c13.9,0,20.1-6.6,20.1-20.2v-17.2c0-13.6-6.1-20.2-20.1-20.2h-13.2V154.7z"/>
		<path class="st3" d="M627.4,109v3.7h-13.5V110c0-10-6.7-14.9-16.9-14.9c-8.7,0-14.6,4.5-14.6,11c0,7.7,6.1,9.8,17,12.3l3.2,0.7
			c16.2,3.5,25.8,9.8,25.8,24.4c0,15.9-12.7,25.4-30,25.4c-20.2,0-33-11.3-33-30.1v-3.2H579v2.5c0,11.6,6.7,18.6,19.7,18.6
			c10.5,0,16.2-5.7,16.2-12.6c0-7.6-5.7-10.4-16.4-12.6l-3.2-0.7c-15.9-3.5-26.4-9.2-26.4-24.4c0-14.4,12.5-23.4,28.2-23.4
			C614.4,82.9,627.4,92.3,627.4,109z"/>
	</g>
</g>
</svg>
