<?xml version="1.0" encoding="utf-8"?>
<!-- Generator: Adobe Illustrator 23.0.1, SVG Export Plug-In . SVG Version: 6.00 Build 0)  -->
<svg version="1.1" id="Livello_1" xmlns="http://www.w3.org/2000/svg" xmlns:xlink="http://www.w3.org/1999/xlink" x="0px" y="0px"
	 viewBox="0 0 830 317" style="enable-background:new 0 0 830 317;" xml:space="preserve">
<style type="text/css">
	.st0{fill:#1B2029;}
	.st1{opacity:0.3;fill:none;stroke:#B3B2B2;stroke-miterlimit:10;}
	.st2{fill:url(#SVGID_1_);}
	.st3{fill:url(#SVGID_2_);}
	.st4{fill:url(#SVGID_3_);}
	.st5{fill:none;stroke:#FFFFFF;stroke-linecap:round;stroke-miterlimit:10;}
	.st6{fill:none;stroke:#FFFFFF;stroke-linecap:round;stroke-miterlimit:10;stroke-dasharray:0,9.9412;}
	.st7{fill:url(#SVGID_4_);}
	.st8{fill:#FFFFFF;}
	.st9{font-family:'SpaceGrotesk-Medium';}
	.st10{font-size:12px;}
	.st11{fill:#B3B2B2;}
	.st12{fill:#FFFFFF;stroke:#1B2029;stroke-width:5;stroke-miterlimit:10;}
</style>
<g>
	<rect x="0.5" y="-80.5" class="st0" width="829" height="478"/>
	<path class="st0" d="M829-80v477H1V-80H829 M830-81H0v479h830V-81L830-81z"/>
</g>
<circle class="st1" cx="144.5" cy="158.5" r="283"/>
<circle class="st1" cx="144.5" cy="158.5" r="428"/>
<linearGradient id="SVGID_1_" gradientUnits="userSpaceOnUse" x1="340.25" y1="224.125" x2="257.5" y2="224.125" gradientTransform="matrix(6.123234e-17 -1 1 6.123234e-17 191.25 575.25)">
	<stop  offset="0" style="stop-color:#1B2029;stop-opacity:0"/>
	<stop  offset="1" style="stop-color:#1B2029"/>
</linearGradient>
<polygon class="st2" points="830,235 830,317.8 0.8,317.8 0.8,235 "/>
<linearGradient id="SVGID_2_" gradientUnits="userSpaceOnUse" x1="181.25" y1="224.125" x2="105.5" y2="224.125" gradientTransform="matrix(-6.123234e-17 1 -1 -6.123234e-17 639.5 -105.25)">
	<stop  offset="0" style="stop-color:#1B2029;stop-opacity:0"/>
	<stop  offset="1" style="stop-color:#1B2029"/>
</linearGradient>
<polygon class="st3" points="0.8,76 0.8,0.2 830,0.2 830,76 "/>
<circle class="st1" cx="144.5" cy="158.5" r="133"/>
<linearGradient id="SVGID_3_" gradientUnits="userSpaceOnUse" x1="166" y1="159" x2="0.5" y2="159">
	<stop  offset="0" style="stop-color:#1B2029;stop-opacity:0"/>
	<stop  offset="1" style="stop-color:#1B2029"/>
</linearGradient>
<rect x="0.5" y="0.5" class="st4" width="165.5" height="317"/>
<g>
	<rect x="45.5" y="138.5" class="st0" width="784" height="40"/>
	<path class="st0" d="M829,139v39H46v-39H829 M830,138H45v41h785V138L830,138z"/>
</g>
<g>
	<g>
		<line class="st5" x1="144.5" y1="158.5" x2="144.5" y2="158.5"/>
		<line class="st6" x1="154.4" y1="158.5" x2="646.5" y2="158.5"/>
		<line class="st5" x1="651.5" y1="158.5" x2="651.5" y2="158.5"/>
	</g>
</g>
<linearGradient id="SVGID_4_" gradientUnits="userSpaceOnUse" x1="166" y1="159" x2="0.5" y2="159">
	<stop  offset="0" style="stop-color:#1B2029;stop-opacity:0"/>
	<stop  offset="1" style="stop-color:#1B2029"/>
</linearGradient>
<rect x="0.5" y="0.5" class="st7" width="165.5" height="317"/>
<g>
	<circle class="st0" cx="274" cy="158" r="53.5"/>
	<path class="st0" d="M274,105c29.2,0,53,23.8,53,53s-23.8,53-53,53s-53-23.8-53-53S244.8,105,274,105 M274,104
		c-29.8,0-54,24.2-54,54s24.2,54,54,54s54-24.2,54-54S303.8,104,274,104L274,104z"/>
</g>
<g>
	<circle class="st0" cx="427" cy="158" r="28.5"/>
	<path class="st0" d="M427,130c15.4,0,28,12.6,28,28s-12.6,28-28,28s-28-12.6-28-28S411.6,130,427,130 M427,129c-16,0-29,13-29,29
		s13,29,29,29s29-13,29-29S443,129,427,129L427,129z"/>
</g>
<g>
	<circle class="st0" cx="570" cy="158" r="62.5"/>
	<path class="st0" d="M570,96c34.2,0,62,27.8,62,62s-27.8,62-62,62s-62-27.8-62-62S535.8,96,570,96 M570,95c-34.8,0-63,28.2-63,63
		s28.2,63,63,63s63-28.2,63-63S604.8,95,570,95L570,95z"/>
</g>
<text transform="matrix(1 0 0 1 79.7847 155.552)"><tspan x="0" y="0" class="st8 st9 st10">SEXISM</tspan><tspan x="15.6" y="12.4" class="st11 st9 st10">Seed</tspan></text>
<text transform="matrix(1 0 0 1 671.4019 163.7517)" class="st8 st9 st10">DISTANCE FROM SEED</text>
<circle class="st12" cx="144" cy="158.5" r="11.5"/>
<g>
	<circle class="st8" cx="424.2" cy="162.7" r="1.6"/>
	<circle class="st8" cx="435.1" cy="162.9" r="1.6"/>
	<circle class="st8" cx="435.2" cy="156.6" r="1.6"/>
	<circle class="st8" cx="440.6" cy="159.8" r="1.6"/>
	<circle class="st8" cx="429.8" cy="153.3" r="1.6"/>
	<circle class="st8" cx="418.8" cy="159.5" r="1.6"/>
	<circle class="st8" cx="429.7" cy="159.6" r="1.6"/>
	<circle class="st8" cx="429.6" cy="165.9" r="1.6"/>
	<circle class="st8" cx="424.3" cy="156.4" r="1.6"/>
	<circle class="st8" cx="424.4" cy="150.1" r="1.6"/>
	<circle class="st8" cx="418.7" cy="165.8" r="1.6"/>
	<circle class="st8" cx="413.5" cy="149.9" r="1.6"/>
	<circle class="st8" cx="440.6" cy="153.4" r="1.6"/>
	<circle class="st8" cx="435" cy="169.2" r="1.6"/>
	<circle class="st8" cx="418.9" cy="153.1" r="1.6"/>
	<circle class="st8" cx="419" cy="146.8" r="1.6"/>
	<circle class="st8" cx="440.5" cy="166.1" r="1.6"/>
	<circle class="st8" cx="424.1" cy="169" r="1.6"/>
	<circle class="st8" cx="429.8" cy="146.9" r="1.6"/>
	<circle class="st8" cx="413.4" cy="156.2" r="1.6"/>
	<circle class="st8" cx="435.2" cy="150.2" r="1.6"/>
</g>
<g>
	<circle class="st8" cx="557.9" cy="150.2" r="1.6"/>
	<circle class="st8" cx="571.9" cy="158.6" r="1.6"/>
	<circle class="st8" cx="567.8" cy="163.2" r="1.6"/>
	<circle class="st8" cx="577.8" cy="159.8" r="1.6"/>
	<circle class="st8" cx="570" cy="152.8" r="1.6"/>
	<circle class="st8" cx="573.7" cy="164.4" r="1.6"/>
	<circle class="st8" cx="565.9" cy="157.4" r="1.6"/>
	<circle class="st8" cx="574.1" cy="148.1" r="1.6"/>
	<circle class="st8" cx="584" cy="161.1" r="1.6"/>
	<circle class="st8" cx="561.8" cy="162" r="1.6"/>
	<circle class="st8" cx="568.1" cy="146.9" r="1.6"/>
	<circle class="st8" cx="575.7" cy="170.4" r="1.6"/>
	<circle class="st8" cx="551.8" cy="149" r="1.6"/>
	<circle class="st8" cx="580.1" cy="149.3" r="1.6"/>
	<circle class="st8" cx="563.6" cy="167.8" r="1.6"/>
	<circle class="st8" cx="555.9" cy="144.4" r="1.6"/>
	<circle class="st8" cx="579.8" cy="165.7" r="1.6"/>
	<circle class="st8" cx="555.6" cy="160.8" r="1.6"/>
	<circle class="st8" cx="576" cy="154" r="1.6"/>
	<circle class="st8" cx="569.7" cy="169.2" r="1.6"/>
	<circle class="st8" cx="549.8" cy="143.2" r="1.6"/>
	<circle class="st8" cx="582.1" cy="155.3" r="1.6"/>
	<circle class="st8" cx="557.6" cy="166.7" r="1.6"/>
	<circle class="st8" cx="563.9" cy="151.5" r="1.6"/>
	<circle class="st8" cx="581.7" cy="171.7" r="1.6"/>
	<circle class="st8" cx="553.6" cy="154.9" r="1.6"/>
	<circle class="st8" cx="572.2" cy="142.2" r="1.6"/>
	<circle class="st8" cx="577.7" cy="176.3" r="1.6"/>
	<circle class="st8" cx="547.6" cy="153.7" r="1.6"/>
	<circle class="st8" cx="586.2" cy="150.6" r="1.6"/>
	<circle class="st8" cx="559.4" cy="172.6" r="1.6"/>
	<circle class="st8" cx="553.9" cy="138.5" r="1.6"/>
	<circle class="st8" cx="585.9" cy="167" r="1.6"/>
	<circle class="st8" cx="559.7" cy="156.1" r="1.6"/>
	<circle class="st8" cx="578.2" cy="143.5" r="1.6"/>
	<circle class="st8" cx="565.4" cy="173.8" r="1.6"/>
	<circle class="st8" cx="543.7" cy="141.8" r="1.6"/>
	<circle class="st8" cx="594.4" cy="157.8" r="1.6"/>
	<circle class="st8" cx="553.4" cy="171.5" r="1.6"/>
	<circle class="st8" cx="560" cy="139.6" r="1.6"/>
	<circle class="st8" cx="583.7" cy="177.6" r="1.6"/>
	<circle class="st8" cx="535.3" cy="151.2" r="1.6"/>
	<circle class="st8" cx="590.5" cy="145.9" r="1.6"/>
	<circle class="st8" cx="552" cy="132.5" r="1.6"/>
	<circle class="st8" cx="590.1" cy="162.4" r="1.6"/>
	<circle class="st8" cx="551.5" cy="165.6" r="1.6"/>
	<circle class="st8" cx="566.2" cy="140.9" r="1.6"/>
	<circle class="st8" cx="535.6" cy="134.6" r="1.6"/>
	<circle class="st8" cx="588.2" cy="156.5" r="1.6"/>
	<circle class="st8" cx="557.2" cy="183.3" r="1.6"/>
	<circle class="st8" cx="562" cy="145.5" r="1.6"/>
	<circle class="st8" cx="587.9" cy="173" r="1.6"/>
	<circle class="st8" cx="549.5" cy="159.6" r="1.6"/>
	<circle class="st8" cx="584.4" cy="144.7" r="1.6"/>
	<circle class="st8" cx="561.3" cy="178.6" r="1.6"/>
	<circle class="st8" cx="579.7" cy="182.3" r="1.6"/>
	<circle class="st8" cx="545.7" cy="147.8" r="1.6"/>
	<circle class="st8" cx="594.6" cy="141.2" r="1.6"/>
	<circle class="st8" cx="558.1" cy="133.7" r="1.6"/>
	<circle class="st8" cx="592" cy="168.3" r="1.6"/>
	<circle class="st8" cx="576.4" cy="137.5" r="1.6"/>
	<circle class="st8" cx="571.6" cy="175.1" r="1.6"/>
	<circle class="st8" cx="555.3" cy="177.3" r="1.6"/>
	<circle class="st8" cx="574.5" cy="131.5" r="1.6"/>
	<circle class="st8" cx="543.4" cy="158.4" r="1.6"/>
	<circle class="st8" cx="588.6" cy="140" r="1.6"/>
	<circle class="st8" cx="547.9" cy="137.2" r="1.6"/>
	<circle class="st8" cx="596.3" cy="163.7" r="1.6"/>
	<circle class="st8" cx="547.2" cy="170.2" r="1.6"/>
	<circle class="st8" cx="570.4" cy="136.2" r="1.6"/>
	<circle class="st8" cx="541.4" cy="152.5" r="1.6"/>
	<circle class="st8" cx="596.6" cy="147.1" r="1.6"/>
	<circle class="st8" cx="559.1" cy="189.2" r="1.6"/>
	<circle class="st8" cx="568.4" cy="130.2" r="1.6"/>
	<circle class="st8" cx="594" cy="174.2" r="1.6"/>
	<circle class="st8" cx="545.3" cy="164.3" r="1.6"/>
	<circle class="st8" cx="582.4" cy="138.7" r="1.6"/>
	<circle class="st8" cx="567.4" cy="179.8" r="1.6"/>
	<circle class="st8" cx="537.7" cy="123.9" r="1.6"/>
	<circle class="st8" cx="549.1" cy="176.1" r="1.6"/>
	<circle class="st8" cx="564.2" cy="134.9" r="1.6"/>
	<circle class="st8" cx="529.1" cy="149.9" r="1.6"/>
	<circle class="st8" cx="562.3" cy="129" r="1.6"/>
	<circle class="st8" cx="598.2" cy="169.6" r="1.6"/>
	<circle class="st8" cx="586.6" cy="134" r="1.6"/>
	<circle class="st8" cx="573.6" cy="181.1" r="1.6"/>
	<circle class="st8" cx="541.9" cy="119.2" r="1.6"/>
	<circle class="st8" cx="592.4" cy="151.8" r="1.6"/>
	<circle class="st8" cx="553" cy="188" r="1.6"/>
	<circle class="st8" cx="589.9" cy="178.9" r="1.6"/>
	<circle class="st8" cx="539.2" cy="163" r="1.6"/>
	<circle class="st8" cx="592.7" cy="135.2" r="1.6"/>
	<circle class="st8" cx="565.2" cy="190.5" r="1.6"/>
	<circle class="st8" cx="556.2" cy="127.7" r="1.6"/>
	<circle class="st8" cx="602.5" cy="165" r="1.6"/>
	<circle class="st8" cx="578.6" cy="126.7" r="1.6"/>
	<circle class="st8" cx="575.5" cy="187.1" r="1.6"/>
	<circle class="st8" cx="539.5" cy="146.5" r="1.6"/>
	<circle class="st8" cx="563.3" cy="184.5" r="1.6"/>
	<circle class="st8" cx="600.2" cy="175.5" r="1.6"/>
	<circle class="st8" cx="569.4" cy="185.8" r="1.6"/>
	<circle class="st8" cx="545.9" cy="131.2" r="1.6"/>
	<circle class="st8" cx="598.5" cy="153.1" r="1.6"/>
	<circle class="st8" cx="551.1" cy="182.1" r="1.6"/>
	<circle class="st8" cx="572.5" cy="125.5" r="1.6"/>
	<circle class="st8" cx="585.8" cy="183.6" r="1.6"/>
	<circle class="st8" cx="598.8" cy="136.5" r="1.6"/>
	<circle class="st8" cx="550" cy="126.5" r="1.6"/>
	<circle class="st8" cx="604.4" cy="170.9" r="1.6"/>
	<circle class="st8" cx="541.1" cy="169" r="1.6"/>
	<circle class="st8" cx="580.5" cy="132.7" r="1.6"/>
	<circle class="st8" cx="533.6" cy="128.7" r="1.6"/>
	<circle class="st8" cx="560.3" cy="123" r="1.6"/>
	<circle class="st8" cx="596.1" cy="180.2" r="1.6"/>
	<circle class="st8" cx="567.2" cy="196.5" r="1.6"/>
	<circle class="st8" cx="600.5" cy="159.1" r="1.6"/>
	<circle class="st8" cx="543" cy="174.9" r="1.6"/>
	<circle class="st8" cx="576.7" cy="120.8" r="1.6"/>
	<circle class="st8" cx="587.8" cy="189.6" r="1.6"/>
	<circle class="st8" cx="533.4" cy="145.3" r="1.6"/>
	<circle class="st8" cx="600.7" cy="142.5" r="1.6"/>
	<circle class="st8" cx="534.9" cy="167.8" r="1.6"/>
	<circle class="st8" cx="577.5" cy="193.1" r="1.6"/>
	<circle class="st8" cx="604.7" cy="154.4" r="1.6"/>
	<circle class="st8" cx="540.6" cy="185.7" r="1.6"/>
	<circle class="st8" cx="566.4" cy="124.3" r="1.6"/>
	<circle class="st8" cx="591.9" cy="184.9" r="1.6"/>
	<circle class="st8" cx="537.2" cy="157.1" r="1.6"/>
	<circle class="st8" cx="541.7" cy="135.9" r="1.6"/>
	<circle class="st8" cx="608.6" cy="166.3" r="1.6"/>
	<circle class="st8" cx="536.9" cy="173.7" r="1.6"/>
	<circle class="st8" cx="584.7" cy="128" r="1.6"/>
	<circle class="st8" cx="581.6" cy="188.3" r="1.6"/>
	<circle class="st8" cx="537.5" cy="140.6" r="1.6"/>
	<circle class="st8" cx="602.7" cy="148.4" r="1.6"/>
	<circle class="st8" cx="554.9" cy="194" r="1.6"/>
	<circle class="st8" cx="602.2" cy="181.5" r="1.6"/>
	<circle class="st8" cx="533" cy="161.8" r="1.6"/>
	<circle class="st8" cx="597" cy="130.6" r="1.6"/>
	<circle class="st8" cx="571.3" cy="191.8" r="1.6"/>
	<circle class="st8" cx="606.7" cy="160.3" r="1.6"/>
	<circle class="st8" cx="544.9" cy="180.9" r="1.6"/>
	<circle class="st8" cx="574.7" cy="114.8" r="1.6"/>
	<circle class="st8" cx="531.1" cy="155.8" r="1.6"/>
	<circle class="st8" cx="605" cy="137.8" r="1.6"/>
	<circle class="st8" cx="552.2" cy="115.7" r="1.6"/>
	<circle class="st8" cx="610.6" cy="172.2" r="1.6"/>
	<circle class="st8" cx="530.7" cy="172.5" r="1.6"/>
	<circle class="st8" cx="588.9" cy="123.3" r="1.6"/>
	<circle class="st8" cx="579.5" cy="199" r="1.6"/>
	<circle class="st8" cx="529.4" cy="133.3" r="1.6"/>
	<circle class="st8" cx="608.9" cy="149.7" r="1.6"/>
	<circle class="st8" cx="546.8" cy="186.8" r="1.6"/>
	<circle class="st8" cx="564.4" cy="118.3" r="1.6"/>
	<circle class="st8" cx="598" cy="186.2" r="1.6"/>
	<circle class="st8" cx="526.8" cy="160.5" r="1.6"/>
	<circle class="st8" cx="603.1" cy="131.8" r="1.6"/>
	<circle class="st8" cx="569.1" cy="202.5" r="1.6"/>
	<circle class="st8" cx="548" cy="120.5" r="1.6"/>
	<circle class="st8" cx="612.8" cy="161.6" r="1.6"/>
	<circle class="st8" cx="580.9" cy="116" r="1.6"/>
	<circle class="st8" cx="583.6" cy="194.3" r="1.6"/>
	<circle class="st8" cx="531.4" cy="139.3" r="1.6"/>
	<circle class="st8" cx="606.9" cy="143.7" r="1.6"/>
	<circle class="st8" cx="561" cy="195.2" r="1.6"/>
	<circle class="st8" cx="554.2" cy="121.7" r="1.6"/>
	<circle class="st8" cx="606.4" cy="176.9" r="1.6"/>
	<circle class="st8" cx="590.8" cy="129.3" r="1.6"/>
	<circle class="st8" cx="539.7" cy="129.9" r="1.6"/>
	<circle class="st8" cx="610.8" cy="155.6" r="1.6"/>
	<circle class="st8" cx="570.6" cy="119.5" r="1.6"/>
	<circle class="st8" cx="593.9" cy="190.9" r="1.6"/>
	<circle class="st8" cx="523" cy="148.6" r="1.6"/>
	<circle class="st8" cx="609.2" cy="133.2" r="1.6"/>
	<circle class="st8" cx="563" cy="201.2" r="1.6"/>
	<circle class="st8" cx="614.8" cy="167.5" r="1.6"/>
	<circle class="st8" cx="532.6" cy="178.4" r="1.6"/>
	<circle class="st8" cx="582.8" cy="122" r="1.6"/>
	<circle class="st8" cx="527.2" cy="143.9" r="1.6"/>
	<circle class="st8" cx="613.1" cy="145" r="1.6"/>
	<circle class="st8" cx="548.7" cy="192.9" r="1.6"/>
	<circle class="st8" cx="558.3" cy="117" r="1.6"/>
	<circle class="st8" cx="604.2" cy="187.5" r="1.6"/>
	<circle class="st8" cx="528.8" cy="166.5" r="1.6"/>
	<circle class="st8" cx="595.1" cy="124.5" r="1.6"/>
	<circle class="st8" cx="573.3" cy="197.8" r="1.6"/>
	<circle class="st8" cx="543.9" cy="125.2" r="1.6"/>
	<circle class="st8" cx="617" cy="156.8" r="1.6"/>
	<circle class="st8" cx="538.8" cy="179.7" r="1.6"/>
	<circle class="st8" cx="568.6" cy="113.5" r="1.6"/>
	<circle class="st8" cx="589.7" cy="195.7" r="1.6"/>
	<circle class="st8" cx="524.9" cy="154.6" r="1.6"/>
</g>
<g>
	<circle class="st8" cx="272.9" cy="152.2" r="1.6"/>
	<circle class="st8" cx="282.7" cy="156.4" r="1.6"/>
	<circle class="st8" cx="266.7" cy="152.9" r="1.6"/>
	<circle class="st8" cx="275.3" cy="146.6" r="1.6"/>
	<circle class="st8" cx="285.2" cy="150.9" r="1.6"/>
	<circle class="st8" cx="269.2" cy="147.3" r="1.6"/>
	<circle class="st8" cx="270.4" cy="157.8" r="1.6"/>
	<circle class="st8" cx="277.7" cy="140.9" r="1.6"/>
	<circle class="st8" cx="279" cy="151.5" r="1.6"/>
	<circle class="st8" cx="276.5" cy="157.1" r="1.6"/>
	<circle class="st8" cx="287.7" cy="145.2" r="1.6"/>
	<circle class="st8" cx="281.5" cy="145.8" r="1.6"/>
	<circle class="st8" cx="280.3" cy="162" r="1.6"/>
	<circle class="st8" cx="267.9" cy="163.5" r="1.6"/>
	<circle class="st8" cx="271.6" cy="141.6" r="1.6"/>
	<circle class="st8" cx="283.9" cy="140.1" r="1.6"/>
	<circle class="st8" cx="277.9" cy="167.8" r="1.6"/>
	<circle class="st8" cx="286.4" cy="161.4" r="1.6"/>
	<circle class="st8" cx="274.1" cy="162.8" r="1.6"/>
	<circle class="st8" cx="265.4" cy="142.2" r="1.6"/>
	<circle class="st8" cx="288.9" cy="155.7" r="1.6"/>
	<circle class="st8" cx="263" cy="147.8" r="1.6"/>
	<circle class="st8" cx="264.3" cy="158.6" r="1.6"/>
	<circle class="st8" cx="258" cy="159.3" r="1.6"/>
	<circle class="st8" cx="290.1" cy="139.4" r="1.6"/>
	<circle class="st8" cx="271.6" cy="168.5" r="1.6"/>
	<circle class="st8" cx="292.6" cy="160.7" r="1.6"/>
	<circle class="st8" cx="255.5" cy="165" r="1.6"/>
	<circle class="st8" cx="287.8" cy="172.1" r="1.6"/>
	<circle class="st8" cx="260.5" cy="153.6" r="1.6"/>
	<circle class="st8" cx="274" cy="135.8" r="1.6"/>
	<circle class="st8" cx="284" cy="167.1" r="1.6"/>
	<circle class="st8" cx="259.2" cy="142.9" r="1.6"/>
	<circle class="st8" cx="293.9" cy="144.4" r="1.6"/>
	<circle class="st8" cx="262.9" cy="175.1" r="1.6"/>
	<circle class="st8" cx="281.5" cy="172.8" r="1.6"/>
	<circle class="st8" cx="290.2" cy="166.4" r="1.6"/>
	<circle class="st8" cx="256.8" cy="148.6" r="1.6"/>
	<circle class="st8" cx="291.4" cy="150.1" r="1.6"/>
	<circle class="st8" cx="265.4" cy="169.3" r="1.6"/>
	<circle class="st8" cx="267.8" cy="136.5" r="1.6"/>
	<circle class="st8" cx="275.3" cy="173.5" r="1.6"/>
	<circle class="st8" cx="261.7" cy="164.3" r="1.6"/>
	<circle class="st8" cx="254.3" cy="154.3" r="1.6"/>
	<circle class="st8" cx="296.4" cy="138.7" r="1.6"/>
	<circle class="st8" cx="295.2" cy="155.1" r="1.6"/>
	<circle class="st8" cx="285.2" cy="177.8" r="1.6"/>
	<circle class="st8" cx="297.7" cy="176.4" r="1.6"/>
	<circle class="st8" cx="302.6" cy="137.9" r="1.6"/>
	<circle class="st8" cx="296.4" cy="165.7" r="1.6"/>
	<circle class="st8" cx="280.2" cy="135.1" r="1.6"/>
	<circle class="st8" cx="279" cy="178.6" r="1.6"/>
	<circle class="st8" cx="256.7" cy="175.8" r="1.6"/>
	<circle class="st8" cx="264.1" cy="131.4" r="1.6"/>
	<circle class="st8" cx="269.1" cy="174.3" r="1.6"/>
	<circle class="st8" cx="292.7" cy="133.7" r="1.6"/>
	<circle class="st8" cx="261.6" cy="137.2" r="1.6"/>
	<circle class="st8" cx="259.2" cy="170" r="1.6"/>
	<circle class="st8" cx="276.5" cy="130.1" r="1.6"/>
	<circle class="st8" cx="251.8" cy="160" r="1.6"/>
	<circle class="st8" cx="280.2" cy="189.4" r="1.6"/>
	<circle class="st8" cx="293.9" cy="171.4" r="1.6"/>
	<circle class="st8" cx="298.9" cy="132.9" r="1.6"/>
	<circle class="st8" cx="272.8" cy="179.3" r="1.6"/>
	<circle class="st8" cx="253" cy="170.8" r="1.6"/>
	<circle class="st8" cx="282.7" cy="129.3" r="1.6"/>
	<circle class="st8" cx="250.5" cy="149.3" r="1.6"/>
	<circle class="st8" cx="276.5" cy="184.4" r="1.6"/>
	<circle class="st8" cx="252.9" cy="143.6" r="1.6"/>
	<circle class="st8" cx="300.2" cy="143.6" r="1.6"/>
	<circle class="st8" cx="270.3" cy="130.8" r="1.6"/>
	<circle class="st8" cx="245.5" cy="160.8" r="1.6"/>
	<circle class="st8" cx="286.5" cy="134.4" r="1.6"/>
	<circle class="st8" cx="288.9" cy="182.8" r="1.6"/>
	<circle class="st8" cx="255.4" cy="137.9" r="1.6"/>
	<circle class="st8" cx="248" cy="155" r="1.6"/>
	<circle class="st8" cx="302.7" cy="165" r="1.6"/>
	<circle class="st8" cx="282.7" cy="183.6" r="1.6"/>
	<circle class="st8" cx="266.6" cy="180" r="1.6"/>
	<circle class="st8" cx="250.5" cy="176.5" r="1.6"/>
	<circle class="st8" cx="291.4" cy="177.1" r="1.6"/>
	<circle class="st8" cx="270.3" cy="185.1" r="1.6"/>
	<circle class="st8" cx="246.7" cy="144.3" r="1.6"/>
	<circle class="st8" cx="303.9" cy="175.7" r="1.6"/>
	<circle class="st8" cx="288.9" cy="128.6" r="1.6"/>
	<circle class="st8" cx="283.9" cy="194.4" r="1.6"/>
	<circle class="st8" cx="249.2" cy="138.5" r="1.6"/>
	<circle class="st8" cx="298.9" cy="160" r="1.6"/>
	<circle class="st8" cx="254.1" cy="181.5" r="1.6"/>
	<circle class="st8" cx="272.8" cy="125" r="1.6"/>
	<circle class="st8" cx="301.4" cy="181.4" r="1.6"/>
	<circle class="st8" cx="241.7" cy="155.7" r="1.6"/>
	<circle class="st8" cx="305.1" cy="132.2" r="1.6"/>
	<circle class="st8" cx="274" cy="190.1" r="1.6"/>
	<circle class="st8" cx="257.8" cy="132.1" r="1.6"/>
	<circle class="st8" cx="305.1" cy="159.4" r="1.6"/>
	<circle class="st8" cx="246.8" cy="171.5" r="1.6"/>
	<circle class="st8" cx="285.2" cy="123.6" r="1.6"/>
	<circle class="st8" cx="292.6" cy="187.9" r="1.6"/>
	<circle class="st8" cx="244.2" cy="150" r="1.6"/>
	<circle class="st8" cx="297.7" cy="149.4" r="1.6"/>
	<circle class="st8" cx="260.4" cy="180.8" r="1.6"/>
	<circle class="st8" cx="266.6" cy="125.7" r="1.6"/>
	<circle class="st8" cx="310.2" cy="175" r="1.6"/>
	<circle class="st8" cx="243" cy="166.5" r="1.6"/>
	<circle class="st8" cx="295.2" cy="127.9" r="1.6"/>
	<circle class="st8" cx="277.7" cy="195.2" r="1.6"/>
	<circle class="st8" cx="251.6" cy="132.8" r="1.6"/>
	<circle class="st8" cx="307.8" cy="153.7" r="1.6"/>
	<circle class="st8" cx="244.2" cy="177.3" r="1.6"/>
	<circle class="st8" cx="279" cy="124.3" r="1.6"/>
	<circle class="st8" cx="295.2" cy="182.1" r="1.6"/>
	<circle class="st8" cx="238" cy="150.7" r="1.6"/>
	<circle class="st8" cx="308.9" cy="137.2" r="1.6"/>
	<circle class="st8" cx="264.1" cy="185.8" r="1.6"/>
	<circle class="st8" cx="260.3" cy="126.3" r="1.6"/>
	<circle class="st8" cx="300.1" cy="170.7" r="1.6"/>
	<circle class="st8" cx="249.2" cy="165.8" r="1.6"/>
	<circle class="st8" cx="291.4" cy="122.8" r="1.6"/>
	<circle class="st8" cx="286.4" cy="188.6" r="1.6"/>
	<circle class="st8" cx="242.9" cy="139.2" r="1.6"/>
	<circle class="st8" cx="303.9" cy="148.7" r="1.6"/>
	<circle class="st8" cx="257.8" cy="186.6" r="1.6"/>
	<circle class="st8" cx="269" cy="119.9" r="1.6"/>
	<circle class="st8" cx="307.7" cy="180.7" r="1.6"/>
	<circle class="st8" cx="235.5" cy="156.4" r="1.6"/>
	<circle class="st8" cx="301.4" cy="127.1" r="1.6"/>
	<circle class="st8" cx="271.5" cy="196" r="1.6"/>
	<circle class="st8" cx="254.1" cy="127" r="1.6"/>
	<circle class="st8" cx="311.6" cy="158.7" r="1.6"/>
	<circle class="st8" cx="238" cy="178" r="1.6"/>
	<circle class="st8" cx="281.5" cy="118.5" r="1.6"/>
	<circle class="st8" cx="296.4" cy="193" r="1.6"/>
	<circle class="st8" cx="240.4" cy="144.9" r="1.6"/>
	<circle class="st8" cx="312.7" cy="142.2" r="1.6"/>
	<circle class="st8" cx="261.5" cy="191.6" r="1.6"/>
	<circle class="st8" cx="262.8" cy="120.6" r="1.6"/>
	<circle class="st8" cx="312.8" cy="169.3" r="1.6"/>
	<circle class="st8" cx="236.7" cy="167.2" r="1.6"/>
	<circle class="st8" cx="297.7" cy="122.1" r="1.6"/>
	<circle class="st8" cx="281.5" cy="200.2" r="1.6"/>
	<circle class="st8" cx="245.4" cy="133.4" r="1.6"/>
	<circle class="st8" cx="314.1" cy="152.9" r="1.6"/>
	<circle class="st8" cx="248" cy="182.3" r="1.6"/>
	<circle class="st8" cx="275.3" cy="119.2" r="1.6"/>
	<circle class="st8" cx="298.9" cy="187.2" r="1.6"/>
	<circle class="st8" cx="239.2" cy="161.5" r="1.6"/>
	<circle class="st8" cx="307.7" cy="126.4" r="1.6"/>
	<circle class="st8" cx="267.8" cy="190.9" r="1.6"/>
	<circle class="st8" cx="256.6" cy="121.3" r="1.6"/>
	<circle class="st8" cx="309" cy="164.3" r="1.6"/>
	<circle class="st8" cx="240.5" cy="172.3" r="1.6"/>
	<circle class="st8" cx="287.7" cy="117.7" r="1.6"/>
	<circle class="st8" cx="290.2" cy="193.7" r="1.6"/>
	<circle class="st8" cx="236.7" cy="139.9" r="1.6"/>
	<circle class="st8" cx="306.4" cy="142.9" r="1.6"/>
	<circle class="st8" cx="255.3" cy="192.5" r="1.6"/>
	<circle class="st8" cx="265.3" cy="114.8" r="1.6"/>
	<circle class="st8" cx="311.4" cy="185.8" r="1.6"/>
	<circle class="st8" cx="232.9" cy="162.2" r="1.6"/>
	<circle class="st8" cx="303.9" cy="121.3" r="1.6"/>
	<circle class="st8" cx="275.3" cy="201" r="1.6"/>
	<circle class="st8" cx="247.8" cy="127.7" r="1.6"/>
	<circle class="st8" cx="316.5" cy="147.1" r="1.6"/>
	<circle class="st8" cx="241.7" cy="183.1" r="1.6"/>
	<circle class="st8" cx="277.8" cy="113.4" r="1.6"/>
	<circle class="st8" cx="302.6" cy="192.3" r="1.6"/>
	<circle class="st8" cx="234.2" cy="145.6" r="1.6"/>
	<circle class="st8" cx="315.2" cy="136.5" r="1.6"/>
	<circle class="st8" cx="265.2" cy="196.7" r="1.6"/>
	<circle class="st8" cx="259.1" cy="115.5" r="1.6"/>
	<circle class="st8" cx="306.4" cy="170" r="1.6"/>
	<circle class="st8" cx="234.2" cy="173" r="1.6"/>
	<circle class="st8" cx="294" cy="117" r="1.6"/>
	<circle class="st8" cx="287.7" cy="199.5" r="1.6"/>
	<circle class="st8" cx="239.1" cy="134.1" r="1.6"/>
	<circle class="st8" cx="310.2" cy="148" r="1.6"/>
	<circle class="st8" cx="251.6" cy="187.4" r="1.6"/>
	<circle class="st8" cx="271.5" cy="114.1" r="1.6"/>
	<circle class="st8" cx="305.2" cy="186.5" r="1.6"/>
	<circle class="st8" cx="231.7" cy="151.4" r="1.6"/>
	<circle class="st8" cx="311.4" cy="131.4" r="1.6"/>
	<circle class="st8" cx="269" cy="201.7" r="1.6"/>
	<circle class="st8" cx="250.3" cy="121.9" r="1.6"/>
</g>
<g>
	<text transform="matrix(1 0 0 1 707.4858 289.3035)" class="st8 st9 st10">WIKIPEDIA PAGE</text>
	<circle class="st8" cx="683.1" cy="285.1" r="4"/>
	<line class="st1" x1="693.1" y1="285.1" x2="702.1" y2="285.1"/>
</g>
</svg>
