<?xml version="1.0" encoding="utf-8"?>
<!-- Generator: Adobe Illustrator 23.0.1, SVG Export Plug-In . SVG Version: 6.00 Build 0)  -->
<svg version="1.1" id="Livello_1" xmlns="http://www.w3.org/2000/svg" xmlns:xlink="http://www.w3.org/1999/xlink" x="0px" y="0px"
	 viewBox="0 0 1132.3 259" style="enable-background:new 0 0 1132.3 259;" xml:space="preserve">
<style type="text/css">
	.st0{fill:#1B2029;}
	.st1{opacity:0.6;fill:#FFFFFF;enable-background:new    ;}
	.st2{fill:#FAFBFC;}
	.st3{fill:#FFFFFF;}
</style>
<g id="Sfondo">
	<g>
		<rect x="-140.8" y="0.1" class="st0" width="1273.4" height="258.5"/>
	</g>
</g>
<g id="Griglia">
	<g>
		<circle class="st1" cx="1059.8" cy="126.5" r="72.5"/>
		<circle class="st2" cx="1059.8" cy="126.5" r="0.8"/>
	</g>
	<circle class="st1" cx="953.6" cy="126.5" r="105.5"/>
	<circle class="st2" cx="953.9" cy="126.3" r="0.8"/>
	<circle class="st1" cx="829.1" cy="126.3" r="124.8"/>
	<circle class="st2" cx="829.1" cy="126.3" r="0.8"/>
</g>
<g>
	<g>
		<path class="st3" d="M102.2,4l28.7,79.7h1.6V4h12.8v91.7h-24.7L92.6,15.9H91v79.7H78.3V4H102.2z"/>
		<path class="st3" d="M187.5,4v60.6c0,13.6,7.2,20.7,21.5,20.7c14.3,0,21.5-7.2,21.5-20.7V4h12.8v60.6c0,21.5-12.8,32.7-34.3,32.7
			s-34.3-11.2-34.3-32.7V4H187.5z"/>
		<path class="st3" d="M295.9,4L319,82.1h1.6L343.7,4h23.9v91.7h-12.8V17.5h-1.6l-23.1,78.1h-19.9l-23.1-78.1h-1.6v78.1h-12.8V4
			H295.9z"/>
		<path class="st3" d="M434.6,4c15.9,0,27.1,8.8,27.1,24.7c0,10.4-6.4,18.3-15.1,19.9v1.6c8.8,2.4,15.1,9.6,15.1,20.7
			c0,15.1-11.2,24.7-27.1,24.7h-38.3V4C396.3,4,434.6,4,434.6,4z M409.9,43.8h23.9c9.6,0,15.1-5.6,15.1-14.3
			c0-8.8-6.4-13.6-15.9-13.6h-23.9v27.9H409.9z M409.9,83.7h23.9c9.6,0,15.9-5.6,15.9-13.6c0-8.8-6.4-14.3-15.1-14.3h-23.9v27.9
			H409.9z"/>
		<path class="st3" d="M546.2,4v12h-45.4v27.9H543v12h-42.2v27.9H547v12h-59V4H546.2z"/>
		<path class="st3" d="M616.3,57.4L637,95.6h-14.3l-19.1-37.5h-18.3v37.5h-12.8V4h38.3c16.7,0,27.9,10.4,27.9,27.1
			C638.6,45.4,629.9,55,616.3,57.4z M585.2,46.2h23.9c10.4,0,16.7-5.6,16.7-15.1c0-9.6-5.6-15.1-16.7-15.1h-23.9V46.2z"/>
		<path class="st3" d="M48,159.4c21.5,0,35.9,13.6,35.9,37.5v20.7c0,23.9-13.6,37.5-35.9,37.5s-35.9-13.6-35.9-37.5v-20.7
			C12.1,172.9,25.6,159.4,48,159.4z M24.8,217.6c0,15.9,7.2,25.5,22.3,25.5s22.3-8.8,22.3-25.5v-21.5c0-15.9-7.2-25.5-22.3-25.5
			s-22.3,8.8-22.3,25.5V217.6z"/>
		<path class="st3" d="M166.7,161v12h-43.8v27.9h41.5v12h-41.5v39.9h-12.8V161H166.7z"/>
		<path class="st3" d="M245.7,161l23.9,79.7h1.6l23.9-79.7h14.3l-27.9,91.7H260L232.1,161H245.7z"/>
		<path class="st3" d="M343.7,161v91.7h-12.8V161H343.7z"/>
		<path class="st3" d="M431.4,161v12h-45.4v27.9h42.2v12h-42.2v27.9h46.2v12h-59V161H431.4z"/>
		<path class="st3" d="M464.9,161l10.4,79.7h1.6l13.6-79.7h21.5l13.6,79.7h1.6l10.4-79.7H551l-12.8,91.7h-22.3l-13.6-79.7h-1.6
			l-13.6,79.7h-22.3L452.1,161H464.9z"/>
		<path class="st3" d="M637,188.1v4h-12.8v-3.2c0-12-8.8-18.3-20.7-18.3c-10.4,0-17.5,5.6-17.5,13.6c0,8.8,5.6,12,18.3,14.3l6.4,1.6
			c16.7,4,27.1,11.2,27.1,27.1c0,16.7-13.6,27.9-32.7,27.9c-22.3,0-36.7-12.8-36.7-33.5v-4h12.8v3.2c0,14.3,8.8,22.3,23.1,22.3
			c12,0,19.1-6.4,19.1-15.1c0-8.8-5.6-12-17.5-15.1l-6.4-1.6c-16.7-3.2-28.7-9.6-28.7-27.1c0-15.9,13.6-25.5,30.3-25.5
			C622.7,159.4,637,169,637,188.1z"/>
	</g>
</g>
</svg>
