<?xml version="1.0" encoding="utf-8"?>
<!-- Generator: Adobe Illustrator 23.0.1, SVG Export Plug-In . SVG Version: 6.00 Build 0)  -->
<svg version="1.1" xmlns="http://www.w3.org/2000/svg" xmlns:xlink="http://www.w3.org/1999/xlink" x="0px" y="0px"
	 viewBox="0 0 829 407.6" style="enable-background:new 0 0 829 407.6;" xml:space="preserve">
<style type="text/css">
	.st0{fill:#1B2029;}
	.st1{fill:none;stroke:#FFFFFF;stroke-linecap:round;stroke-miterlimit:10;stroke-dasharray:0,10;}
	.st2{enable-background:new    ;}
	.st3{fill:#FF3603;}
	.st4{fill:#FFFFFF;}
	.st5{fill:#606060;}
	.st6{opacity:0.2;fill:#FF3603;enable-background:new    ;}
	.st7{fill:none;stroke:#FFFFFF;stroke-miterlimit:10;}
	.st8{fill:none;stroke:#606060;stroke-miterlimit:10;}
</style>
<g id="Livello_2">
	<g>
		<g id="BG_1_">
			<g>
				<g>
					<rect x="-0.5" class="st0" width="830" height="407.6"/>
				</g>
			</g>
		</g>
	</g>
</g>
<g id="Livello_1">
	<line class="st1" x1="446.8" y1="87.6" x2="446.8" y2="359.6"/>
	<g class="st2">
		<path class="st3" d="M219.2,158.5l2.6,7.3h0.1v-7.3h1.2v8.4h-2.2l-2.6-7.3h-0.1v7.3H217v-8.4H219.2z"/>
		<path class="st3" d="M230.2,158.5v1.1H226v2.5h3.8v1.1H226v2.6h4.3v1.1h-5.4v-8.4L230.2,158.5L230.2,158.5z"/>
		<path class="st3" d="M232.3,158.5l1,7.3h0.1l1.3-7.3h1.9l1.3,7.3h0.1l1-7.3h1.2l-1.2,8.4h-2.1l-1.3-7.3h-0.1l-1.3,7.3h-2.1
			l-1.2-8.4H232.3z"/>
		<path class="st3" d="M247.1,160.9v0.4h-1.2V161c0-1.1-0.8-1.7-1.9-1.7c-0.9,0-1.6,0.5-1.6,1.2c0,0.8,0.5,1.1,1.7,1.3l0.6,0.1
			c1.6,0.3,2.5,1,2.5,2.4c0,1.5-1.3,2.5-3,2.5c-2.1,0-3.3-1.2-3.3-3v-0.4h1.2v0.3c0,1.3,0.8,2.1,2.1,2.1c1.1,0,1.8-0.6,1.8-1.4
			s-0.5-1.1-1.6-1.4l-0.6-0.1c-1.5-0.3-2.6-0.9-2.6-2.4c0-1.4,1.2-2.3,2.8-2.3C245.8,158.3,247.1,159.2,247.1,160.9z"/>
		<path class="st3" d="M251.8,158.5c1.5,0,2.6,1,2.6,2.5s-1.1,2.5-2.6,2.5h-2.1v3.4h-1.2v-8.4H251.8z M249.8,162.4h1.9
			c1,0,1.5-0.5,1.5-1.4s-0.5-1.4-1.5-1.4h-1.9V162.4z"/>
		<path class="st3" d="M258.7,158.5l2.6,8.4H260l-0.6-2H256l-0.6,2h-1.3l2.6-8.4H258.7z M259.2,163.7l-1.3-4.2h-0.1l-1.3,4.2H259.2z
			"/>
		<path class="st3" d="M265.7,158.5c1.5,0,2.6,1,2.6,2.5s-1.1,2.5-2.6,2.5h-2.1v3.4h-1.2v-8.4H265.7z M263.7,162.4h1.9
			c1,0,1.5-0.5,1.5-1.4s-0.5-1.4-1.5-1.4h-1.9V162.4z"/>
		<path class="st3" d="M274.9,158.5v1.1h-4.2v2.5h3.8v1.1h-3.8v2.6h4.2v1.1h-5.4v-8.4L274.9,158.5L274.9,158.5z"/>
		<path class="st3" d="M280.3,163.4l1.9,3.5h-1.3l-1.8-3.4h-1.7v3.4h-1.1v-8.4h3.5c1.5,0,2.6,1,2.6,2.5
			C282.3,162.2,281.5,163.1,280.3,163.4z M277.5,162.3h2.2c1,0,1.5-0.5,1.5-1.4s-0.5-1.4-1.5-1.4h-2.2V162.3z"/>
	</g>
	<g class="st2">
		<path class="st4" d="M249.8,324.5v8.4h-1.2v-8.4H249.8z"/>
		<path class="st4" d="M253.7,324.5l2.1,7.1h0.1l2.1-7.1h2.2v8.4H259v-7.1h-0.1l-2.1,7.1H255l-2.1-7.1h-0.1v7.1h-1.2v-8.4H253.7z"/>
		<path class="st4" d="M265.8,324.5l2.6,8.4h-1.3l-0.6-2h-3.4l-0.6,2h-1.2l2.6-8.4H265.8z M266.3,329.8l-1.3-4.2h-0.1l-1.3,4.2
			H266.3z"/>
		<path class="st4" d="M269.1,327.8c0-2.2,1.2-3.4,3.3-3.4c2,0,3.1,1.2,3.1,3.1v0.1h-1.2v-0.2c0-1.2-0.6-2-1.9-2
			c-1.3,0-2.1,0.8-2.1,2.3v2c0,1.5,0.7,2.3,2.1,2.3c1.3,0,1.9-0.8,1.9-2v-0.1H272v-1.1h3.5v1.2c0,1.9-1.1,3.1-3.1,3.1
			c-2.1,0-3.3-1.2-3.3-3.4V327.8z"/>
		<path class="st4" d="M282.2,324.5v1.1H278v2.5h3.8v1.1H278v2.6h4.3v1.1h-5.4v-8.4L282.2,324.5L282.2,324.5z"/>
		<path class="st4" d="M228.8,338.7c2,0,3.1,1.2,3.1,3v0.2h-1.2v-0.2c0-1.2-0.6-2-1.9-2s-2.1,0.8-2.1,2.3v2c0,1.5,0.7,2.3,2.1,2.3
			c1.4,0,1.9-0.8,1.9-2v-0.2h1.2v0.2c0,1.9-1.1,3.1-3.1,3.1c-2.1,0-3.3-1.2-3.3-3.4v-1.9C225.5,340,226.8,338.7,228.8,338.7z"/>
		<path class="st4" d="M237,338.9l2.6,8.4h-1.3l-0.6-2h-3.4l-0.6,2h-1.3l2.6-8.4H237z M237.4,344.2l-1.3-4.2H236l-1.3,4.2H237.4z"/>
		<path class="st4" d="M246,338.9v1.1h-2.7v7.3h-1.2V340h-2.7v-1.1H246z"/>
		<path class="st4" d="M252.5,338.9v1.1h-4.2v2.5h3.8v1.1h-3.8v2.6h4.2v1.1h-5.4v-8.4L252.5,338.9L252.5,338.9z"/>
		<path class="st4" d="M253.6,342.2c0-2.2,1.2-3.4,3.3-3.4c2,0,3.1,1.2,3.1,3.1v0.1h-1.2v-0.1c0-1.2-0.6-2-1.9-2
			c-1.3,0-2.1,0.8-2.1,2.3v2c0,1.5,0.7,2.3,2.1,2.3c1.3,0,1.9-0.8,1.9-2v-0.1h-2.3v-1.1h3.5v1.2c0,1.9-1.1,3.1-3.1,3.1
			c-2.1,0-3.3-1.2-3.3-3.4V342.2z"/>
		<path class="st4" d="M264.4,338.7c2,0,3.3,1.3,3.3,3.4v1.9c0,2.2-1.2,3.4-3.3,3.4s-3.3-1.3-3.3-3.4v-1.9
			C261.1,340,262.3,338.7,264.4,338.7z M262.3,344.1c0,1.5,0.7,2.3,2.1,2.3s2.1-0.8,2.1-2.3v-1.9c0-1.5-0.7-2.3-2.1-2.3
			s-2.1,0.8-2.1,2.3V344.1z"/>
		<path class="st4" d="M273.2,343.8l1.9,3.5h-1.3l-1.8-3.4h-1.7v3.4h-1.2v-8.4h3.5c1.5,0,2.6,1,2.6,2.5
			C275.2,342.7,274.4,343.6,273.2,343.8z M270.3,342.8h2.2c1,0,1.5-0.5,1.5-1.4s-0.5-1.4-1.5-1.4h-2.2V342.8z"/>
		<path class="st4" d="M276.9,338.9l2.1,3.9h0.1l2.1-3.9h1.4l-3,5.3v3.1h-1.2v-3.1l-3-5.3H276.9z"/>
		<path class="st5" d="M256.3,353.3v1.1h-2.7v7.3h-1.2v-7.3h-2.7v-1.1H256.3z"/>
		<path class="st5" d="M260.2,353.1c2,0,3.3,1.3,3.3,3.4v1.9c0,2.2-1.2,3.4-3.3,3.4s-3.3-1.3-3.3-3.4v-1.9
			C256.9,354.4,258.2,353.1,260.2,353.1z M258.1,358.5c0,1.5,0.7,2.3,2.1,2.3c1.4,0,2.1-0.8,2.1-2.3v-1.9c0-1.5-0.7-2.3-2.1-2.3
			c-1.4,0-2.1,0.8-2.1,2.3V358.5z"/>
		<path class="st5" d="M270.7,353.3v1.1H268v7.3h-1.2v-7.3h-2.7v-1.1H270.7z"/>
		<path class="st5" d="M276.8,355.7v-2.4h1.1v2.4h1.5v-2.4h1.1v2.4h1.5v1.1h-1.5v1.5h1.5v1.1h-1.5v2.4h-1.1v-2.4h-1.5v2.4h-1.1v-2.4
			h-1.5v-1.1h1.5v-1.5h-1.5v-1.1H276.8z M277.9,358.3h1.5v-1.5h-1.5V358.3z"/>
	</g>
	<rect x="417.3" y="119.1" class="st3" width="59" height="29"/>
	<path class="st6" d="M355.3,208.1c42,0,15-60,62-60v-29c-47,0-20,0-62,0"/>
	<g>
		<g>
			<path class="st4" d="M316.2,73.6c1.7,0,2.9,1.1,2.9,2.7c0,1.8-1.3,2.5-3,3c-1.2,0.4-1.8,0.7-1.8,1.6V81h4.6v1.1h-5.8v-1
				c0-1.6,1-2.2,2.5-2.7c1.4-0.5,2.3-0.9,2.3-2.1c0-1-0.7-1.6-1.7-1.6c-1.2,0-1.9,0.6-1.9,1.8v0.3h-1.2v-0.3
				C313.1,74.7,314.3,73.6,316.2,73.6z"/>
			<path class="st4" d="M323.2,73.6c1.9,0,3.1,1.3,3.1,3.4v1.9c0,2.2-1.2,3.4-3.1,3.4c-1.9,0-3.1-1.3-3.1-3.4V77
				C320.1,74.8,321.3,73.6,323.2,73.6z M321.3,78.9c0,1.5,0.6,2.3,1.9,2.3c1.3,0,1.9-0.8,1.9-2.3V77c0-1.5-0.6-2.3-1.9-2.3
				s-1.9,0.8-1.9,2.3V78.9z"/>
			<path class="st4" d="M331.2,73.7v8.4H330v-7.3h-0.1l-1.6,2.6H327l2.4-3.7H331.2z"/>
			<path class="st4" d="M335.7,73.6c1.7,0,2.9,1.1,2.9,2.7c0,1.8-1.3,2.5-3,3c-1.2,0.4-1.8,0.7-1.8,1.6V81h4.6v1.1h-5.8v-1
				c0-1.6,1-2.2,2.5-2.7c1.4-0.5,2.3-0.9,2.3-2.1c0-1-0.7-1.6-1.7-1.6c-1.2,0-1.9,0.6-1.9,1.8v0.3h-1.2v-0.3
				C332.6,74.7,333.9,73.6,335.7,73.6z"/>
		</g>
	</g>
	<g>
		<g>
			<path class="st4" d="M437.1,73.6c1.7,0,2.9,1.1,2.9,2.7c0,1.8-1.3,2.5-3,3c-1.2,0.4-1.8,0.7-1.8,1.6V81h4.6v1.1H434v-1
				c0-1.6,1-2.2,2.5-2.7c1.4-0.5,2.3-0.9,2.3-2.1c0-1-0.7-1.6-1.7-1.6c-1.2,0-1.9,0.6-1.9,1.8v0.3H434v-0.3
				C434.1,74.7,435.3,73.6,437.1,73.6z"/>
			<path class="st4" d="M444.2,73.6c1.9,0,3.1,1.3,3.1,3.4v1.9c0,2.2-1.2,3.4-3.1,3.4s-3.1-1.3-3.1-3.4V77
				C441.1,74.8,442.3,73.6,444.2,73.6z M442.3,78.9c0,1.5,0.6,2.3,1.9,2.3s1.9-0.8,1.9-2.3V77c0-1.5-0.6-2.3-1.9-2.3
				s-1.9,0.8-1.9,2.3V78.9z"/>
			<path class="st4" d="M452.2,73.7v8.4H451v-7.3h-0.1l-1.6,2.6H448l2.4-3.7H452.2z"/>
			<path class="st4" d="M459.4,73.7v1.1l-2.5,2.2v0.1h0.3c1.3,0,2.3,1,2.3,2.4c0,1.6-1.3,2.7-3,2.7c-1.8,0-3.1-1.2-3.1-2.8v-0.6h1.2
				v0.5c0,1.1,0.7,1.8,1.9,1.8c1.1,0,1.8-0.7,1.8-1.7c0-0.9-0.7-1.5-1.6-1.5h-1.3v-1.1l2.3-2.1h-4v-1.1L459.4,73.7L459.4,73.7z"/>
		</g>
	</g>
	<line class="st7" x1="296.3" y1="87.1" x2="355.3" y2="87.1"/>
	<line class="st7" x1="417.3" y1="87.6" x2="476.3" y2="87.6"/>
	<line class="st1" x1="325.8" y1="87.1" x2="325.8" y2="359.6"/>
	<rect x="296.3" y="119.1" class="st3" width="59" height="89"/>
	<g>
		<path class="st4" d="M323.9,160.8v-2.4h1.1v2.4h1.5v-2.4h1.1v2.4h1.5v1.1h-1.5v1.5h1.5v1.1h-1.5v2.4h-1.1v-2.4H325v2.4h-1.1v-2.4
			h-1.5v-1.1h1.5v-1.5h-1.5v-1.1H323.9z M325.1,163.4h1.5v-1.5h-1.5V163.4z"/>
	</g>
	<g>
		<path class="st4" d="M444.9,130.8v-2.4h1.1v2.4h1.5v-2.4h1.1v2.4h1.5v1.1h-1.5v1.5h1.5v1.1h-1.5v2.4h-1.1v-2.4H446v2.4h-1.1v-2.4
			h-1.5v-1.1h1.5v-1.5h-1.5v-1.1H444.9z M446.1,133.4h1.5v-1.5h-1.5V133.4z"/>
	</g>
	<path class="st4" d="M531.2,130.8v-2.4h1.1v2.4h1.5v-2.4h1.1v2.4h1.5v1.1h-1.5v1.5h1.5v1.1h-1.5v2.4h-1.1v-2.4h-1.5v2.4h-1.1v-2.4
		h-1.5v-1.1h1.5v-1.5h-1.5v-1.1H531.2z M532.4,133.4h1.5v-1.5h-1.5V133.4z"/>
	<path class="st4" d="M557,131.4v0.8l-2.8,2.8l-0.7-0.7l1.6-1.6l0.3-0.3v-0.1H555h-6.4v-1.1h6.4h0.4v-0.1l-0.3-0.3l-1.6-1.6l0.7-0.7
		L557,131.4z"/>
	<path class="st4" d="M568.1,128.5l2.6,7.3h0.1v-7.3h1.2v8.4h-2.2l-2.6-7.3h-0.1v7.3h-1.2v-8.4L568.1,128.5L568.1,128.5z"/>
	<path class="st4" d="M574.9,128.5v5.6c0,1.2,0.6,1.9,1.9,1.9s1.9-0.7,1.9-1.9v-5.6h1.2v5.6c0,1.9-1.2,3-3.1,3c-2,0-3.1-1.1-3.1-3
		v-5.6H574.9z"/>
	<path class="st4" d="M583.9,128.5l2.1,7.1h0.1l2.1-7.1h2.2v8.4h-1.1v-7.1h-0.1l-2.1,7.1h-1.8l-2.1-7.1h-0.1v7.1h-1.2v-8.4H583.9z"
		/>
	<path class="st4" d="M595.7,128.5c1.5,0,2.5,0.8,2.5,2.3c0,1-0.6,1.6-1.4,1.9v0.1c0.8,0.2,1.4,0.9,1.4,1.9c0,1.4-1,2.3-2.5,2.3
		h-3.5v-8.4L595.7,128.5L595.7,128.5z M593.4,132.1h2.2c0.9,0,1.4-0.5,1.4-1.3s-0.6-1.2-1.4-1.2h-2.2V132.1z M593.4,135.7h2.2
		c0.9,0,1.4-0.5,1.4-1.3s-0.6-1.3-1.4-1.3h-2.2V135.7z"/>
	<path class="st4" d="M604.9,128.5v1.1h-4.2v2.5h3.8v1.1h-3.8v2.6h4.2v1.1h-5.4v-8.4L604.9,128.5L604.9,128.5z"/>
	<path class="st4" d="M610.4,133.4l1.9,3.5H611l-1.8-3.4h-1.7v3.4h-1.2v-8.4h3.5c1.5,0,2.6,1,2.6,2.5
		C612.4,132.2,611.6,133.1,610.4,133.4z M607.5,132.3h2.2c1,0,1.5-0.5,1.5-1.4s-0.5-1.4-1.5-1.4h-2.2V132.3z"/>
	<path class="st4" d="M620.3,128.3c2,0,3.3,1.3,3.3,3.4v1.9c0,2.2-1.2,3.4-3.3,3.4s-3.3-1.3-3.3-3.4v-1.9
		C617,129.6,618.3,128.3,620.3,128.3z M618.2,133.6c0,1.5,0.7,2.3,2.1,2.3c1.4,0,2.1-0.8,2.1-2.3v-1.9c0-1.5-0.7-2.3-2.1-2.3
		c-1.4,0-2.1,0.8-2.1,2.3V133.6z"/>
	<path class="st4" d="M630.2,128.5v1.1h-4v2.5h3.8v1.1h-3.8v3.7H625v-8.4H630.2z"/>
	<path class="st4" d="M637.2,128.5l2.6,7.3h0.1v-7.3h1.2v8.4h-2.2l-2.6-7.3h-0.1v7.3H635v-8.4L637.2,128.5L637.2,128.5z"/>
	<path class="st4" d="M648.2,128.5v1.1H644v2.5h3.8v1.1H644v2.6h4.2v1.1h-5.4v-8.4L648.2,128.5L648.2,128.5z"/>
	<path class="st4" d="M650.3,128.5l1,7.3h0.1l1.3-7.3h1.9l1.3,7.3h0.1l1-7.3h1.2l-1.2,8.4h-2.1l-1.3-7.3h-0.1l-1.3,7.3h-1.9
		l-1.2-8.4L650.3,128.5L650.3,128.5z"/>
	<path class="st4" d="M665.1,130.9v0.4h-1.2V131c0-1.1-0.8-1.7-1.9-1.7c-0.9,0-1.6,0.5-1.6,1.2c0,0.8,0.5,1.1,1.7,1.3l0.6,0.1
		c1.6,0.3,2.5,1,2.5,2.4c0,1.5-1.3,2.5-3,2.5c-2.1,0-3.3-1.2-3.3-3v-0.4h1.2v0.3c0,1.3,0.8,2.1,2.1,2.1c1.1,0,1.8-0.6,1.8-1.4
		c0-0.8-0.5-1.1-1.6-1.4l-0.6-0.1c-1.5-0.3-2.6-0.9-2.6-2.4c0-1.4,1.2-2.3,2.8-2.3C663.8,128.3,665.1,129.2,665.1,130.9z"/>
	<path class="st4" d="M568.8,142.7c2,0,3.3,1.3,3.3,3.4v1.9c0,2.2-1.2,3.4-3.3,3.4c-2,0-3.3-1.3-3.3-3.4v-1.9
		C565.6,144,566.8,142.7,568.8,142.7z M566.8,148c0,1.5,0.7,2.3,2.1,2.3c1.4,0,2.1-0.8,2.1-2.3v-1.9c0-1.5-0.7-2.3-2.1-2.3
		c-1.4,0-2.1,0.8-2.1,2.3V148z"/>
	<path class="st4" d="M575.8,142.9l2.6,7.3h0.1v-7.3h1.2v8.4h-2.2l-2.6-7.3h-0.1v7.3h-1.2v-8.4H575.8z"/>
	<path class="st4" d="M584.8,146.1c0-2.2,1.2-3.4,3.3-3.4c2,0,3.1,1.2,3.1,3.1v0.1H590v-0.1c0-1.2-0.6-2-1.9-2s-2.1,0.8-2.1,2.3v2
		c0,1.5,0.7,2.3,2.1,2.3c1.3,0,1.9-0.8,1.9-2v-0.1h-2.3v-1.2h3.5v1.2c0,1.9-1.1,3.1-3.1,3.1c-2.1,0-3.3-1.2-3.3-3.4V146.1z"/>
	<path class="st4" d="M595.5,142.7c2,0,3.3,1.3,3.3,3.4v1.9c0,2.2-1.2,3.4-3.3,3.4s-3.3-1.3-3.3-3.4v-1.9
		C592.3,144,593.5,142.7,595.5,142.7z M593.5,148c0,1.5,0.7,2.3,2.1,2.3c1.4,0,2.1-0.8,2.1-2.3v-1.9c0-1.5-0.7-2.3-2.1-2.3
		c-1.4,0-2.1,0.8-2.1,2.3V148z"/>
	<path class="st4" d="M603.2,142.7c2,0,3.3,1.3,3.3,3.4v1.9c0,2.2-1.2,3.4-3.3,3.4s-3.3-1.3-3.3-3.4v-1.9
		C599.9,144,601.2,142.7,603.2,142.7z M601.1,148c0,1.5,0.7,2.3,2.1,2.3c1.4,0,2.1-0.8,2.1-2.3v-1.9c0-1.5-0.7-2.3-2.1-2.3
		c-1.4,0-2.1,0.8-2.1,2.3V148z"/>
	<path class="st4" d="M607.6,146.1c0-2.2,1.2-3.4,3.3-3.4c2,0,3.1,1.2,3.1,3.1v0.1h-1.2v-0.1c0-1.2-0.6-2-1.9-2s-2.1,0.8-2.1,2.3v2
		c0,1.5,0.7,2.3,2.1,2.3c1.3,0,1.9-0.8,1.9-2v-0.1h-2.3v-1.2h3.5v1.2c0,1.9-1.1,3.1-3.1,3.1c-2.1,0-3.3-1.2-3.3-3.4V146.1z"/>
	<path class="st4" d="M616.6,142.9v7.3h4.1v1.1h-5.3v-8.4L616.6,142.9L616.6,142.9z"/>
	<path class="st4" d="M627.2,142.9v1.1H623v2.5h3.8v1.1H623v2.6h4.2v1.1h-5.4v-8.4L627.2,142.9L627.2,142.9z"/>
	<path class="st4" d="M634.4,142.9l2.6,7.3h0.1v-7.3h1.2v8.4h-2.2l-2.6-7.3h-0.1v7.3h-1.2v-8.4H634.4z"/>
	<path class="st4" d="M645.5,142.9v1.1h-4.2v2.5h3.8v1.1h-3.8v2.6h4.2v1.1h-5.4v-8.4L645.5,142.9L645.5,142.9z"/>
	<path class="st4" d="M647.6,142.9l1,7.3h0.1l1.3-7.3h1.9l1.3,7.3h0.1l1-7.3h1.2l-1.2,8.4h-2.1l-1.3-7.3h-0.1l-1.3,7.3h-2.1
		l-1.2-8.4H647.6z"/>
	<path class="st4" d="M662.4,145.3v0.4h-1.2v-0.3c0-1.1-0.8-1.7-1.9-1.7c-0.9,0-1.6,0.5-1.6,1.2c0,0.8,0.5,1.1,1.7,1.3l0.6,0.1
		c1.6,0.3,2.5,1,2.5,2.4c0,1.5-1.3,2.5-3,2.5c-2.1,0-3.3-1.2-3.3-3v-0.4h1.2v0.3c0,1.3,0.8,2.1,2.1,2.1c1.1,0,1.8-0.6,1.8-1.4
		c0-0.8-0.5-1.1-1.6-1.4l-0.6-0.1c-1.5-0.3-2.6-0.9-2.6-2.4c0-1.4,1.2-2.3,2.8-2.3C661,142.7,662.4,143.6,662.4,145.3z"/>
	<g>
		<path class="st4" d="M35.1,30.8v1.1h-4v2.5h3.8v1.1h-3.8v3.7h-1.2v-8.4C29.9,30.8,35.1,30.8,35.1,30.8z"/>
		<path class="st4" d="M38.1,30.8v8.4h-1.2v-8.4C36.9,30.8,38.1,30.8,38.1,30.8z"/>
		<path class="st4" d="M44.7,35.7l1.9,3.5h-1.3l-1.8-3.4h-1.7v3.4h-1.2v-8.4h3.5c1.5,0,2.6,1,2.6,2.5C46.7,34.6,45.9,35.5,44.7,35.7
			z M41.8,34.7H44c1,0,1.5-0.5,1.5-1.4S45,31.9,44,31.9h-2.2V34.7z"/>
		<path class="st4" d="M54.5,33.3v0.4h-1.2v-0.3c0-1.1-0.8-1.7-1.9-1.7c-0.9,0-1.6,0.5-1.6,1.2c0,0.8,0.5,1.1,1.7,1.3l0.6,0.1
			c1.6,0.3,2.5,1,2.5,2.4c0,1.5-1.3,2.5-3,2.5c-2.1,0-3.3-1.2-3.3-3v-0.4h1.2v0.3c0,1.3,0.8,2.1,2.1,2.1c1.1,0,1.8-0.6,1.8-1.4
			c0-0.8-0.5-1.1-1.6-1.4l-0.6-0.1c-1.5-0.3-2.6-0.9-2.6-2.4c0-1.4,1.2-2.3,2.8-2.3C53.2,30.6,54.5,31.6,54.5,33.3z"/>
		<path class="st4" d="M62.5,30.8v1.1h-2.7v7.3h-1.2v-7.3h-2.7v-1.1C55.9,30.8,62.5,30.8,62.5,30.8z"/>
		<path class="st4" d="M69.3,30.8l2.2,7.3h0.1l2.2-7.3h1.3l-2.6,8.4h-1.9L68,30.8H69.3z"/>
		<path class="st4" d="M78,30.8v8.4h-1.2v-8.4C76.8,30.8,78,30.8,78,30.8z"/>
		<path class="st4" d="M85.9,30.8v1.1l-4.4,6.2H86v1.1h-5.9v-1.1l4.4-6.2h-4.3v-1.1C80.2,30.8,85.9,30.8,85.9,30.8z"/>
	</g>
	<g>
		<path class="st4" d="M35,242.9v0.4h-1.2V243c0-1.1-0.8-1.7-1.9-1.7c-0.9,0-1.6,0.5-1.6,1.2c0,0.8,0.5,1.1,1.7,1.3l0.6,0.1
			c1.6,0.3,2.5,1,2.5,2.4c0,1.5-1.3,2.5-3,2.5c-2.1,0-3.3-1.2-3.3-3v-0.4H30v0.3c0,1.3,0.8,2.1,2.1,2.1c1.1,0,1.8-0.6,1.8-1.4
			s-0.5-1.1-1.6-1.4l-0.6-0.1c-1.5-0.3-2.6-0.9-2.6-2.4c0-1.4,1.2-2.3,2.8-2.3C33.7,240.2,35,241.2,35,242.9z"/>
		<path class="st4" d="M42.6,240.4v1.1h-4.2v2.5h3.8v1.1h-3.8v2.6h4.2v1.1h-5.4v-8.4L42.6,240.4L42.6,240.4z"/>
		<path class="st4" d="M47.7,240.2c2,0,3.1,1.2,3.1,3v0.2h-1.2v-0.2c0-1.2-0.6-2-1.9-2s-2.1,0.8-2.1,2.3v2c0,1.5,0.7,2.3,2.1,2.3
			s1.9-0.8,1.9-2v-0.2h1.2v0.2c0,1.9-1.1,3.1-3.1,3.1c-2.1,0-3.3-1.2-3.3-3.4v-1.9C44.4,241.5,45.7,240.2,47.7,240.2z"/>
		<path class="st4" d="M55.9,240.2c2,0,3.3,1.3,3.3,3.4v1.9c0,2.2-1.2,3.4-3.3,3.4s-3.3-1.3-3.3-3.4v-1.9
			C52.7,241.5,53.9,240.2,55.9,240.2z M53.9,245.6c0,1.5,0.7,2.3,2.1,2.3s2.1-0.8,2.1-2.3v-1.9c0-1.5-0.7-2.3-2.1-2.3
			s-2.1,0.8-2.1,2.3V245.6z"/>
		<path class="st4" d="M63.6,240.4l2.6,7.3h0.1v-7.3h1.2v8.4h-2.2l-2.6-7.3h-0.1v7.3h-1.2v-8.4H63.6z"/>
		<path class="st4" d="M72.6,240.4c2.1,0,3.4,1.1,3.4,3.3v1.9c0,2.2-1.3,3.3-3.4,3.3H70v-8.4L72.6,240.4L72.6,240.4z M71.2,247.7
			h1.4c1.5,0,2.2-0.6,2.2-2.2v-1.8c0-1.5-0.8-2.2-2.2-2.2h-1.4V247.7z"/>
		<path class="st4" d="M83,240.4l2.2,7.3h0.1l2.2-7.3h1.3l-2.6,8.4h-1.9l-2.6-8.4H83z"/>
		<path class="st4" d="M91.8,240.4v8.4h-1.2v-8.4H91.8z"/>
		<path class="st4" d="M99.7,240.4v1.1l-4.4,6.2h4.4v1.1h-5.9v-1.1l4.4-6.2h-4.3v-1.1H99.7z"/>
	</g>
	<g>
		<path class="st4" d="M478.5,302.9v62.5H416v-62.5H478.5 M479.5,301.9h-1H416h-1v1v62.5v1h1h62.5h1v-1v-62.5V301.9L479.5,301.9z"/>
	</g>
	<g>
		<g>
			<rect x="294.8" y="302.6" class="st3" width="7.4" height="7.4"/>
			<path class="st0" d="M302,302.9v6.9h-6.9v-6.9H302 M302.5,302.4H302h-6.9h-0.5v0.5v6.9v0.5h0.5h6.9h0.5v-0.5v-6.9V302.4
				L302.5,302.4z"/>
		</g>
		<g>
			<rect x="294.8" y="309.6" class="st3" width="7.4" height="7.4"/>
			<path class="st0" d="M302,309.8v6.9h-6.9v-6.9H302 M302.5,309.3H302h-6.9h-0.5v0.5v6.9v0.5h0.5h6.9h0.5v-0.5v-6.9V309.3
				L302.5,309.3z"/>
		</g>
		<g>
			<rect x="294.8" y="316.5" class="st3" width="7.4" height="7.4"/>
			<path class="st0" d="M302,316.8v6.9h-6.9v-6.9H302 M302.5,316.3H302h-6.9h-0.5v0.5v6.9v0.5h0.5h6.9h0.5v-0.5v-6.9V316.3
				L302.5,316.3z"/>
		</g>
		<g>
			<rect x="294.8" y="323.5" class="st3" width="7.4" height="7.4"/>
			<path class="st0" d="M302,323.7v6.9h-6.9v-6.9H302 M302.5,323.2H302h-6.9h-0.5v0.5v6.9v0.5h0.5h6.9h0.5v-0.5v-6.9V323.2
				L302.5,323.2z"/>
		</g>
		<g>
			<rect x="294.8" y="330.4" class="st3" width="7.4" height="7.4"/>
			<path class="st0" d="M302,330.7v6.9h-6.9v-6.9H302 M302.5,330.2H302h-6.9h-0.5v0.5v6.9v0.5h0.5h6.9h0.5v-0.5v-6.9V330.2
				L302.5,330.2z"/>
		</g>
		<g>
			<rect x="294.8" y="337.4" class="st3" width="7.4" height="7.4"/>
			<path class="st0" d="M302,337.6v6.9h-6.9v-6.9H302 M302.5,337.1H302h-6.9h-0.5v0.5v6.9v0.5h0.5h6.9h0.5v-0.5v-6.9V337.1
				L302.5,337.1z"/>
		</g>
		<g>
			<rect x="294.8" y="344.3" class="st3" width="7.4" height="7.4"/>
			<path class="st0" d="M302,344.6v6.9h-6.9v-6.9H302 M302.5,344.1H302h-6.9h-0.5v0.5v6.9v0.5h0.5h6.9h0.5v-0.5v-6.9V344.1
				L302.5,344.1z"/>
		</g>
		<g>
			<rect x="294.8" y="351.3" class="st3" width="7.4" height="7.4"/>
			<path class="st0" d="M302,351.5v6.9h-6.9v-6.9H302 M302.5,351H302h-6.9h-0.5v0.5v6.9v0.5h0.5h6.9h0.5v-0.5v-6.9V351L302.5,351z"
				/>
		</g>
		<g>
			<rect x="294.8" y="358.2" class="st3" width="7.4" height="7.4"/>
			<path class="st0" d="M302,358.5v6.9h-6.9v-6.9H302 M302.5,358H302h-6.9h-0.5v0.5v6.9v0.5h0.5h6.9h0.5v-0.5v-6.9V358L302.5,358z"
				/>
		</g>
	</g>
	<g>
		<g>
			<rect x="301.8" y="302.6" class="st3" width="7.4" height="7.4"/>
			<path class="st0" d="M309,302.9v6.9h-6.9v-6.9H309 M309.5,302.4H309h-6.9h-0.5v0.5v6.9v0.5h0.5h6.9h0.5v-0.5v-6.9V302.4
				L309.5,302.4z"/>
		</g>
		<g>
			<rect x="301.8" y="309.6" class="st3" width="7.4" height="7.4"/>
			<path class="st0" d="M309,309.8v6.9h-6.9v-6.9H309 M309.5,309.3H309h-6.9h-0.5v0.5v6.9v0.5h0.5h6.9h0.5v-0.5v-6.9V309.3
				L309.5,309.3z"/>
		</g>
		<g>
			<rect x="301.8" y="316.5" class="st3" width="7.4" height="7.4"/>
			<path class="st0" d="M309,316.8v6.9h-6.9v-6.9H309 M309.5,316.3H309h-6.9h-0.5v0.5v6.9v0.5h0.5h6.9h0.5v-0.5v-6.9V316.3
				L309.5,316.3z"/>
		</g>
		<g>
			<rect x="301.8" y="323.5" class="st3" width="7.4" height="7.4"/>
			<path class="st0" d="M309,323.7v6.9h-6.9v-6.9H309 M309.5,323.2H309h-6.9h-0.5v0.5v6.9v0.5h0.5h6.9h0.5v-0.5v-6.9V323.2
				L309.5,323.2z"/>
		</g>
		<g>
			<rect x="301.8" y="330.4" class="st3" width="7.4" height="7.4"/>
			<path class="st0" d="M309,330.7v6.9h-6.9v-6.9H309 M309.5,330.2H309h-6.9h-0.5v0.5v6.9v0.5h0.5h6.9h0.5v-0.5v-6.9V330.2
				L309.5,330.2z"/>
		</g>
		<g>
			<rect x="301.8" y="337.4" class="st3" width="7.4" height="7.4"/>
			<path class="st0" d="M309,337.6v6.9h-6.9v-6.9H309 M309.5,337.1H309h-6.9h-0.5v0.5v6.9v0.5h0.5h6.9h0.5v-0.5v-6.9V337.1
				L309.5,337.1z"/>
		</g>
	</g>
	<g>
		<path class="st4" d="M357.5,302.9v62.5H295v-62.5H357.5 M358.5,301.9h-1H295h-1v1v62.5v1h1h62.5h1v-1v-62.5V301.9L358.5,301.9z"/>
	</g>
	<g>
		<path class="st5" d="M347.6,355.7v-2.4h1.1v2.4h1.5v-2.4h1.1v2.4h1.5v1.1h-1.5v1.5h1.5v1.1h-1.5v2.4h-1.1v-2.4h-1.5v2.4h-1.1v-2.4
			h-1.5v-1.1h1.5v-1.5h-1.5v-1.1H347.6z M348.7,358.3h1.5v-1.5h-1.5V358.3z"/>
	</g>
	<g>
		<path class="st5" d="M347.6,355.7v-2.4h1.1v2.4h1.5v-2.4h1.1v2.4h1.5v1.1h-1.5v1.5h1.5v1.1h-1.5v2.4h-1.1v-2.4h-1.5v2.4h-1.1v-2.4
			h-1.5v-1.1h1.5v-1.5h-1.5v-1.1H347.6z M348.7,358.3h1.5v-1.5h-1.5V358.3z"/>
	</g>
	<g>
		<g>
			<path class="st4" d="M534,336.2v-2.4h1.1v2.4h1.5v-2.4h1.1v2.4h1.5v1.1h-1.5v1.5h1.5v1.1h-1.5v2.4h-1.1v-2.4h-1.5v2.4H534v-2.4
				h-1.5v-1.1h1.5v-1.5h-1.5v-1.1H534z M535.1,338.8h1.5v-1.5h-1.5V338.8z"/>
			<path class="st4" d="M559.7,336.8v0.8l-2.8,2.8l-0.7-0.7l1.6-1.6l0.3-0.3v-0.1h-0.4h-6.4v-1.1h6.4h0.4v-0.1l-0.3-0.3l-1.6-1.6
				l0.7-0.7L559.7,336.8z"/>
			<path class="st4" d="M570.8,333.8l2.6,7.3h0.1v-7.3h1.2v8.4h-2.2l-2.6-7.3h-0.1v7.3h-1.2v-8.4H570.8z"/>
			<path class="st4" d="M577.7,333.8v5.6c0,1.2,0.6,1.9,1.9,1.9s1.9-0.7,1.9-1.9v-5.6h1.2v5.6c0,1.9-1.2,3-3.1,3c-2,0-3.1-1.1-3.1-3
				v-5.6H577.7z"/>
			<path class="st4" d="M586.6,333.8l2.1,7.1h0.1l2.1-7.1h2.2v8.4h-1.2v-7.1h-0.1l-2.1,7.1h-1.8l-2.1-7.1h-0.1v7.1h-1.2v-8.4H586.6z
				"/>
			<path class="st4" d="M598.4,333.8c1.5,0,2.5,0.8,2.5,2.3c0,1-0.6,1.6-1.4,1.9v0.1c0.8,0.2,1.4,0.9,1.4,1.9c0,1.4-1,2.3-2.5,2.3
				h-3.5v-8.4L598.4,333.8L598.4,333.8z M596.1,337.4h2.2c0.9,0,1.4-0.5,1.4-1.3s-0.6-1.2-1.4-1.2h-2.2V337.4z M596.1,341.1h2.2
				c0.9,0,1.4-0.5,1.4-1.3s-0.6-1.3-1.4-1.3h-2.2V341.1z"/>
			<path class="st4" d="M607.7,333.8v1.1h-4.2v2.5h3.8v1.1h-3.8v2.6h4.2v1.1h-5.4v-8.4L607.7,333.8L607.7,333.8z"/>
			<path class="st4" d="M613.1,338.7l1.9,3.5h-1.3l-1.8-3.4h-1.6v3.4h-1.2v-8.4h3.5c1.5,0,2.6,1,2.6,2.5
				C615.2,337.6,614.3,338.5,613.1,338.7z M610.3,337.7h2.2c1,0,1.5-0.5,1.5-1.4s-0.5-1.4-1.5-1.4h-2.2V337.7z"/>
			<path class="st4" d="M623,333.6c2,0,3.3,1.3,3.3,3.4v1.9c0,2.2-1.2,3.4-3.3,3.4s-3.3-1.3-3.3-3.4V337
				C619.8,334.9,621,333.6,623,333.6z M621,339c0,1.5,0.7,2.3,2.1,2.3c1.4,0,2.1-0.8,2.1-2.3v-1.9c0-1.5-0.7-2.3-2.1-2.3
				c-1.4,0-2.1,0.8-2.1,2.3V339z"/>
			<path class="st4" d="M633,333.8v1.1h-4v2.5h3.8v1.1H629v3.7h-1.2v-8.4L633,333.8L633,333.8z"/>
			<path class="st4" d="M640.7,333.6c2,0,3.1,1.2,3.1,3v0.2h-1.2v-0.2c0-1.2-0.6-2-1.9-2s-2.1,0.8-2.1,2.3v2c0,1.5,0.7,2.3,2.1,2.3
				c1.3,0,1.9-0.8,1.9-2V339h1.2v0.2c0,1.9-1.1,3.1-3.1,3.1c-2.1,0-3.3-1.2-3.3-3.4V337C637.4,334.9,638.6,333.6,640.7,333.6z"/>
			<path class="st4" d="M648.2,333.6c2,0,3.3,1.3,3.3,3.4v1.9c0,2.2-1.2,3.4-3.3,3.4s-3.3-1.3-3.3-3.4V337
				C644.9,334.9,646.1,333.6,648.2,333.6z M646.1,339c0,1.5,0.7,2.3,2.1,2.3c1.4,0,2.1-0.8,2.1-2.3v-1.9c0-1.5-0.7-2.3-2.1-2.3
				c-1.4,0-2.1,0.8-2.1,2.3V339z"/>
			<path class="st4" d="M653.4,333.8l2.2,7.3h0.1l2.2-7.3h1.3l-2.6,8.4h-1.9l-2.6-8.4H653.4z"/>
			<path class="st4" d="M665.5,333.8v1.1h-4.2v2.5h3.8v1.1h-3.8v2.6h4.2v1.1h-5.4v-8.4L665.5,333.8L665.5,333.8z"/>
			<path class="st4" d="M671,338.7l1.9,3.5h-1.3l-1.8-3.4h-1.7v3.4h-1.2v-8.4h3.5c1.5,0,2.6,1,2.6,2.5
				C673,337.6,672.2,338.5,671,338.7z M668.1,337.7h2.2c1,0,1.5-0.5,1.5-1.4s-0.5-1.4-1.5-1.4h-2.2V337.7z"/>
			<path class="st4" d="M680.1,336.3v0.4h-1.2v-0.3c0-1.1-0.8-1.7-1.9-1.7c-0.9,0-1.6,0.5-1.6,1.2c0,0.8,0.5,1.1,1.7,1.3l0.6,0.1
				c1.6,0.3,2.5,1,2.5,2.4c0,1.5-1.3,2.5-3,2.5c-2.1,0-3.3-1.2-3.3-3v-0.4h1.2v0.3c0,1.3,0.8,2.1,2.1,2.1c1.1,0,1.8-0.6,1.8-1.4
				s-0.5-1.1-1.6-1.4l-0.6-0.1c-1.5-0.3-2.6-0.9-2.6-2.4c0-1.4,1.2-2.3,2.8-2.3C678.8,333.6,680.1,334.6,680.1,336.3z"/>
			<path class="st4" d="M571.6,348c2,0,3.3,1.3,3.3,3.4v1.9c0,2.2-1.2,3.4-3.3,3.4c-2,0-3.3-1.3-3.3-3.4v-1.9
				C568.3,349.3,569.5,348,571.6,348z M569.5,353.4c0,1.5,0.7,2.3,2.1,2.3c1.4,0,2.1-0.8,2.1-2.3v-2c0-1.5-0.7-2.3-2.1-2.3
				c-1.4,0-2.1,0.8-2.1,2.3V353.4z"/>
			<path class="st4" d="M578.5,348.2l2.6,7.3h0.1v-7.3h1.2v8.4h-2.2l-2.6-7.3h-0.1v7.3h-1.2v-8.4H578.5z"/>
			<path class="st4" d="M587.5,351.5c0-2.2,1.2-3.4,3.3-3.4c2,0,3.1,1.2,3.1,3.1v0.1h-1.2v-0.1c0-1.2-0.6-2-1.9-2s-2.1,0.8-2.1,2.3
				v2c0,1.5,0.7,2.3,2.1,2.3c1.3,0,1.9-0.8,1.9-2v-0.1h-2.3v-1.1h3.5v1.2c0,1.9-1.1,3.1-3.1,3.1c-2.1,0-3.3-1.2-3.3-3.4V351.5z"/>
			<path class="st4" d="M598.3,348c2,0,3.3,1.3,3.3,3.4v1.9c0,2.2-1.2,3.4-3.3,3.4s-3.3-1.3-3.3-3.4v-1.9
				C595,349.3,596.2,348,598.3,348z M596.2,353.4c0,1.5,0.7,2.3,2.1,2.3c1.4,0,2.1-0.8,2.1-2.3v-2c0-1.5-0.7-2.3-2.1-2.3
				c-1.4,0-2.1,0.8-2.1,2.3V353.4z"/>
			<path class="st4" d="M605.9,348c2,0,3.3,1.3,3.3,3.4v1.9c0,2.2-1.2,3.4-3.3,3.4s-3.3-1.3-3.3-3.4v-1.9
				C602.7,349.3,603.9,348,605.9,348z M603.9,353.4c0,1.5,0.7,2.3,2.1,2.3c1.4,0,2.1-0.8,2.1-2.3v-2c0-1.5-0.7-2.3-2.1-2.3
				c-1.4,0-2.1,0.8-2.1,2.3V353.4z"/>
			<path class="st4" d="M610.4,351.5c0-2.2,1.2-3.4,3.3-3.4c2,0,3.1,1.2,3.1,3.1v0.1h-1.2v-0.1c0-1.2-0.6-2-1.9-2s-2.1,0.8-2.1,2.3
				v2c0,1.5,0.7,2.3,2.1,2.3c1.3,0,1.9-0.8,1.9-2v-0.1h-2.3v-1.1h3.5v1.2c0,1.9-1.1,3.1-3.1,3.1c-2.1,0-3.3-1.2-3.3-3.4V351.5z"/>
			<path class="st4" d="M619.4,348.2v7.3h4.1v1.1h-5.3v-8.4H619.4z"/>
			<path class="st4" d="M630,348.2v1.1h-4.2v2.5h3.8v1.1h-3.8v2.6h4.2v1.1h-5.4v-8.4L630,348.2L630,348.2z"/>
			<path class="st4" d="M637.2,348.2l2.6,7.3h0.1v-7.3h1.2v8.4h-2.2l-2.6-7.3h-0.1v7.3H635v-8.4H637.2z"/>
			<path class="st4" d="M648.2,348.2v1.1H644v2.5h3.8v1.1H644v2.6h4.2v1.1h-5.4v-8.4L648.2,348.2L648.2,348.2z"/>
			<path class="st4" d="M650.3,348.2l1,7.3h0.1l1.3-7.3h1.9l1.3,7.3h0.1l1-7.3h1.2l-1.2,8.4h-2.1l-1.3-7.3h-0.1l-1.3,7.3h-1.9
				l-1.2-8.4H650.3z"/>
			<path class="st4" d="M665.1,350.7v0.4h-1.2v-0.3c0-1.1-0.8-1.7-1.9-1.7c-0.9,0-1.6,0.5-1.6,1.2c0,0.8,0.5,1.1,1.7,1.3l0.6,0.1
				c1.6,0.3,2.5,1,2.5,2.4c0,1.5-1.3,2.5-3,2.5c-2.1,0-3.3-1.2-3.3-3v-0.4h1.2v0.3c0,1.3,0.8,2.1,2.1,2.1c1.1,0,1.8-0.6,1.8-1.4
				s-0.5-1.1-1.6-1.4l-0.6-0.1c-1.5-0.3-2.6-0.9-2.6-2.4c0-1.4,1.2-2.3,2.8-2.3C663.8,348,665.1,349,665.1,350.7z"/>
		</g>
		<g>
			<path class="st4" d="M558.7,314.8v0.8l-2.8,2.8l-0.7-0.7l1.6-1.6l0.3-0.3v-0.1h-0.4h-6.4v-1.1h6.4h0.4v-0.1l-0.3-0.3l-1.6-1.6
				l0.7-0.7L558.7,314.8z"/>
			<path class="st4" d="M570.8,311.8l2.6,7.3h0.1v-7.3h1.2v8.4h-2.2l-2.6-7.3h-0.1v7.3h-1.2v-8.4H570.8z"/>
			<path class="st4" d="M581.9,311.8v1.1h-4.2v2.5h3.8v1.1h-3.8v2.6h4.2v1.1h-5.4v-8.4L581.9,311.8L581.9,311.8z"/>
			<path class="st4" d="M584,311.8l1,7.3h0.1l1.3-7.3h1.9l1.3,7.3h0.1l1-7.3h1.2l-1.2,8.4h-2.1l-1.3-7.3h-0.1l-1.3,7.3h-2.1
				l-1.2-8.4H584z"/>
			<path class="st4" d="M598.7,314.3v0.4h-1.2v-0.3c0-1.1-0.8-1.7-1.9-1.7c-0.9,0-1.6,0.5-1.6,1.2c0,0.8,0.5,1.1,1.7,1.3l0.6,0.1
				c1.6,0.3,2.5,1,2.5,2.4c0,1.5-1.3,2.5-3,2.5c-2.1,0-3.3-1.2-3.3-3v-0.4h1.2v0.3c0,1.3,0.8,2.1,2.1,2.1c1.1,0,1.8-0.6,1.8-1.4
				s-0.5-1.1-1.6-1.4l-0.6-0.1c-1.5-0.3-2.6-0.9-2.6-2.4c0-1.4,1.2-2.3,2.8-2.3C597.4,311.6,598.7,312.6,598.7,314.3z"/>
			<path class="st4" d="M606.8,311.6c2,0,3.1,1.2,3.1,3v0.2h-1.2v-0.2c0-1.2-0.6-2-1.9-2s-2.1,0.8-2.1,2.3v2c0,1.5,0.7,2.3,2.1,2.3
				c1.3,0,1.9-0.8,1.9-2V317h1.2v0.2c0,1.9-1.1,3.1-3.1,3.1c-2.1,0-3.3-1.2-3.3-3.4V315C603.5,312.9,604.7,311.6,606.8,311.6z"/>
			<path class="st4" d="M614.3,311.6c2,0,3.3,1.3,3.3,3.4v1.9c0,2.2-1.2,3.4-3.3,3.4s-3.3-1.3-3.3-3.4V315
				C611,312.9,612.3,311.6,614.3,311.6z M612.2,317c0,1.5,0.7,2.3,2.1,2.3c1.4,0,2.1-0.8,2.1-2.3v-1.9c0-1.5-0.7-2.3-2.1-2.3
				c-1.4,0-2.1,0.8-2.1,2.3V317z"/>
			<path class="st4" d="M619.5,311.8l2.2,7.3h0.1l2.2-7.3h1.3l-2.6,8.4h-1.9l-2.6-8.4H619.5z"/>
			<path class="st4" d="M631.6,311.8v1.1h-4.2v2.5h3.8v1.1h-3.8v2.6h4.2v1.1h-5.3v-8.4L631.6,311.8L631.6,311.8z"/>
			<path class="st4" d="M637.1,316.7l1.9,3.5h-1.3l-1.8-3.4h-1.7v3.4H633v-8.4h3.5c1.5,0,2.6,1,2.6,2.5
				C639.1,315.6,638.3,316.5,637.1,316.7z M634.2,315.7h2.2c1,0,1.5-0.5,1.5-1.4s-0.5-1.4-1.5-1.4h-2.2V315.7z"/>
		</g>
		<rect x="530.7" y="310.2" class="st3" width="9.2" height="9.2"/>
	</g>
	<g>
		<g>
			<line class="st8" x1="423" y1="310.1" x2="471.6" y2="358.7"/>
			<g>
				<polygon class="st5" points="422.4,315.3 423.4,315.3 423.2,310.3 428.2,310.5 428.2,309.5 422.2,309.3 				"/>
			</g>
			<g>
				<polygon class="st5" points="466.4,359.3 466.4,358.3 471.4,358.5 471.2,353.5 472.2,353.5 472.4,359.5 				"/>
			</g>
		</g>
	</g>
	<g>
		<g>
			<line class="st8" x1="471.6" y1="310.1" x2="423" y2="358.7"/>
			<g>
				<polygon class="st5" points="466.4,309.5 466.4,310.5 471.4,310.3 471.2,315.3 472.2,315.3 472.4,309.3 				"/>
			</g>
			<g>
				<polygon class="st5" points="422.4,353.5 423.4,353.5 423.2,358.5 428.2,358.3 428.2,359.3 422.2,359.5 				"/>
			</g>
		</g>
	</g>
	
		<rect x="426.3" y="313.4" transform="matrix(0.7071 -0.7071 0.7071 0.7071 -105.2535 413.7009)" class="st0" width="41" height="41"/>
	<g>
		<path class="st5" d="M440.5,324.4v7h-1v-6.1h-0.1l-1.3,2.1H437l2-3.1h1.5V324.4z"/>
		<path class="st5" d="M444.3,324.3c1.6,0,2.6,1.1,2.6,2.9v1.6c0,1.8-1,2.9-2.6,2.9s-2.6-1.1-2.6-2.9v-1.6
			C441.7,325.3,442.7,324.3,444.3,324.3z M442.7,328.7c0,1.2,0.5,1.9,1.6,1.9s1.6-0.7,1.6-1.9v-1.6c0-1.2-0.5-1.9-1.6-1.9
			s-1.6,0.7-1.6,1.9V328.7z"/>
		<path class="st5" d="M450.5,324.3c1.6,0,2.6,1.1,2.6,2.9v1.6c0,1.8-1,2.9-2.6,2.9s-2.6-1.1-2.6-2.9v-1.6
			C447.9,325.3,448.9,324.3,450.5,324.3z M448.9,328.7c0,1.2,0.5,1.9,1.6,1.9s1.6-0.7,1.6-1.9v-1.6c0-1.2-0.5-1.9-1.6-1.9
			s-1.6,0.7-1.6,1.9V328.7z"/>
		<path class="st5" d="M430.9,334.8v7h-1v-7H430.9z"/>
		<path class="st5" d="M434.1,334.8l1.8,6h0.1l1.8-6h1.8v7h-1v-5.9h-0.1l-1.8,5.9h-1.5l-1.8-5.9h-0.1v5.9h-1v-7H434.1z"/>
		<path class="st5" d="M444.3,334.8l2.2,7h-1.1l-0.5-1.7h-2.8l-0.5,1.7h-1.1l2.2-7H444.3z M444.6,339.2l-1.1-3.5h-0.1l-1.1,3.5
			H444.6z"/>
		<path class="st5" d="M447,337.5c0-1.8,1-2.9,2.7-2.9s2.6,1,2.6,2.6v0.1h-1v-0.1c0-1-0.5-1.6-1.6-1.6s-1.7,0.7-1.7,1.9v1.6
			c0,1.2,0.6,1.9,1.7,1.9s1.6-0.7,1.6-1.6v-0.1h-1.9v-0.9h2.9v1c0,1.6-0.9,2.6-2.6,2.6s-2.7-1-2.7-2.9V337.5z"/>
		<path class="st5" d="M458,334.8v0.9h-3.5v2.1h3.2v0.9h-3.2v2.1h3.5v0.9h-4.5v-7h4.5V334.8z"/>
		<path class="st5" d="M463.9,336.9v0.3h-1V337c0-0.9-0.6-1.4-1.6-1.4c-0.8,0-1.3,0.4-1.3,1s0.4,0.9,1.4,1.1l0.5,0.1
			c1.3,0.3,2.1,0.8,2.1,2c0,1.3-1.1,2.1-2.5,2.1c-1.7,0-2.8-1-2.8-2.5v-0.3h1v0.2c0,1.1,0.6,1.7,1.8,1.7c0.9,0,1.5-0.5,1.5-1.2
			s-0.4-0.9-1.3-1.1l-0.5-0.1c-1.2-0.3-2.2-0.7-2.2-2c0-1.2,1-1.9,2.3-1.9C462.8,334.7,463.9,335.4,463.9,336.9z"/>
	</g>
	<path class="st7" d="M829.5,127.1"/>
	<line class="st7" x1="29" y1="53.7" x2="800.2" y2="53.7"/>
	<line class="st7" x1="29" y1="262.3" x2="800.2" y2="262.3"/>
</g>
</svg>
