<svg id="SEMPRE_ACCESI" data-name="SEMPRE ACCESI" xmlns="http://www.w3.org/2000/svg" viewBox="0 0 358.24 127.37"><defs><style>.cls-1{fill:#111;}.cls-2{fill:#999;}.cls-3,.cls-4,.cls-6{fill:none;}.cls-3{stroke:#fff;stroke-linecap:round;stroke-linejoin:round;stroke-dasharray:0 10;}.cls-4{stroke:#9d77fc;stroke-width:3.2px;}.cls-4,.cls-6{stroke-miterlimit:10;}.cls-5{fill:#9d77fc;}.cls-6{stroke:#999;}</style></defs><title>online-violences-legenda</title><rect class="cls-1" x="-0.18" width="358.42" height="134.54"/><path class="cls-2" d="M257.37,49.89,259.61,58h.16V49.89h1.85V59.7h-3.27l-2.25-8.07h-.16V59.7h-1.85V49.89Z"/><path class="cls-2" d="M265.71,49.89v6.36a2,2,0,0,0,4,0V49.89h1.84v6.33c0,2.24-1.38,3.67-3.83,3.67s-3.84-1.43-3.84-3.67V49.89Z"/><path class="cls-2" d="M277,49.89,279,57.76h.17l2-7.87h3.22V59.7h-1.79V51.85h-.17l-2,7.85h-2.72l-2-7.85h-.17V59.7h-1.79V49.89Z"/><path class="cls-2" d="M291.23,49.89a2.59,2.59,0,0,1,2.9,2.63,2.15,2.15,0,0,1-1.65,2.18v.16a2.15,2.15,0,0,1,1.65,2.19,2.64,2.64,0,0,1-2.9,2.65h-4.47V49.89Zm-2.62,4h2.44c.78,0,1.32-.36,1.32-1.15s-.54-1.13-1.32-1.13h-2.44Zm0,4.05h2.44c.78,0,1.32-.37,1.32-1.15s-.54-1.16-1.32-1.16h-2.44Z"/><path class="cls-2" d="M302.53,49.89V51.6h-4.59v2.31h4.2v1.68h-4.2V58h4.67V59.7h-6.52V49.89Z"/><path class="cls-2" d="M309.84,55.91l2,3.79h-2.05L308,56.07h-1.63V59.7h-1.85V49.9h4.31A3,3,0,0,1,311.94,53,2.89,2.89,0,0,1,309.84,55.91Zm-3.5-1.58h2.28a1.35,1.35,0,1,0,0-2.69h-2.28Z"/><path class="cls-2" d="M257.73,66.49a3.75,3.75,0,0,1,4,4.07v2.07a4,4,0,1,1-8.06,0V70.56A3.75,3.75,0,0,1,257.73,66.49Zm-2.19,6.2a2.19,2.19,0,1,0,4.37,0V70.5a2.19,2.19,0,1,0-4.37,0Z"/><path class="cls-2" d="M269.91,66.69v1.74h-4.4v2.28h4.12v1.74h-4.12v4h-1.85V66.69Z"/><path class="cls-2" d="M277.22,66.69l2.17,8.17h.19l2.17-8.17h1.91l-2.72,9.81H278l-2.72-9.81Z"/><path class="cls-2" d="M287.1,66.69V76.5h-1.85V66.69Z"/><path class="cls-2" d="M293,66.49a3.75,3.75,0,0,1,4,4.07v2.07a4,4,0,1,1-8.07,0V70.56A3.75,3.75,0,0,1,293,66.49Zm-2.19,6.2a2.19,2.19,0,1,0,4.37,0V70.5a2.19,2.19,0,1,0-4.37,0Z"/><path class="cls-2" d="M300.82,66.69v8.1h4.54V76.5H299V66.69Z"/><path class="cls-2" d="M313.48,66.69V68.4h-4.6v2.31h4.21v1.68h-4.21v2.4h4.68V76.5H307V66.69Z"/><path class="cls-2" d="M318.71,66.69,321,74.76h.17V66.69H323V76.5h-3.28l-2.24-8.07h-.17V76.5h-1.85V66.69Z"/><path class="cls-2" d="M328.93,66.49c2.48,0,3.87,1.38,3.87,3.56v.34H331v-.34a1.77,1.77,0,0,0-2-1.87,2.13,2.13,0,0,0-2.21,2.24v2.35A2,2,0,0,0,328.93,75c1.47,0,2-.77,2-1.88V72.8h1.85v.33c0,2.18-1.28,3.56-3.87,3.56a3.7,3.7,0,0,1-4.06-4V70.47A3.75,3.75,0,0,1,328.93,66.49Z"/><path class="cls-2" d="M341.11,66.69V68.4h-4.59v2.31h4.2v1.68h-4.2v2.4h4.68V76.5h-6.53V66.69Z"/><path class="cls-2" d="M350.07,69.6V70h-1.79v-.28c0-1.1-.71-1.59-1.83-1.59s-1.59.49-1.59,1.15c0,.91.87,1.07,2.05,1.34l.12,0c2,.45,3.21,1.16,3.21,2.94,0,2-1.54,3.08-3.63,3.08-2.39,0-3.93-1.29-3.93-3.58V72.8h1.82V73a1.89,1.89,0,0,0,2.17,2c1.19,0,1.75-.63,1.75-1.35s-.73-1.12-2-1.4l-.12,0c-2.1-.47-3.24-1.15-3.24-2.93s1.5-2.85,3.41-2.85C348.55,66.49,350.07,67.64,350.07,69.6Z"/><path class="cls-2" d="M62.74,49.89,65,58h.16V49.89H67V59.7H63.72l-2.24-8.07h-.16V59.7H59.47V49.89Z"/><path class="cls-2" d="M71.09,49.89v6.36a2,2,0,0,0,4,0V49.89h1.85v6.33c0,2.24-1.38,3.67-3.83,3.67s-3.84-1.43-3.84-3.67V49.89Z"/><path class="cls-2" d="M82.37,49.89l2,7.87h.17l2-7.87h3.22V59.7H88.06V51.85h-.17l-2,7.85H83.14l-2-7.85h-.17V59.7H79.15V49.89Z"/><path class="cls-2" d="M96.61,49.89a2.59,2.59,0,0,1,2.9,2.63,2.15,2.15,0,0,1-1.65,2.18v.16a2.15,2.15,0,0,1,1.65,2.19,2.64,2.64,0,0,1-2.9,2.65H92.14V49.89Zm-2.62,4h2.44c.78,0,1.31-.36,1.31-1.15s-.53-1.13-1.31-1.13H94ZM94,58h2.44c.78,0,1.31-.37,1.31-1.15s-.53-1.16-1.31-1.16H94Z"/><path class="cls-2" d="M107.91,49.89V51.6h-4.6v2.31h4.21v1.68h-4.21V58H108V59.7h-6.52V49.89Z"/><path class="cls-2" d="M115.22,55.91l2,3.79h-2l-1.81-3.63h-1.64V59.7h-1.85V49.9h4.32A3,3,0,0,1,117.32,53,2.89,2.89,0,0,1,115.22,55.91Zm-3.51-1.58H114a1.35,1.35,0,1,0,0-2.69h-2.29Z"/><path class="cls-2" d="M127.17,49.69a3.75,3.75,0,0,1,4,4.07v2.07a4,4,0,1,1-8.07,0V53.76A3.75,3.75,0,0,1,127.17,49.69ZM125,55.89a2.19,2.19,0,1,0,4.37,0V53.7a2.19,2.19,0,1,0-4.37,0Z"/><path class="cls-2" d="M139.35,49.89v1.74H135v2.28h4.12v1.74H135V59.7H133.1V49.89Z"/><path class="cls-2" d="M10.76,66.69l1.16,8h.2l1.47-8H16.5l1.47,8h.2l1.16-8h1.85L19.66,76.5h-3l-1.48-8H15l-1.47,8h-3L8.91,66.69Z"/><path class="cls-2" d="M26.47,66.49a3.75,3.75,0,0,1,4,4.07v2.07a3.71,3.71,0,0,1-4,4.06,3.71,3.71,0,0,1-4-4.06V70.56A3.75,3.75,0,0,1,26.47,66.49Zm-2.19,6.2A2,2,0,0,0,26.47,75a2,2,0,0,0,2.18-2.32V70.5a2.19,2.19,0,1,0-4.37,0Z"/><path class="cls-2" d="M35.63,66.69l2,7.87h.17l2-7.87h3.23V76.5h-1.8V68.65h-.17l-2,7.85H36.4l-2-7.85H34.2V76.5H32.4V66.69Z"/><path class="cls-2" d="M51.84,66.69V68.4h-4.6v2.31h4.21v1.68H47.24v2.4h4.68V76.5H45.39V66.69Z"/><path class="cls-2" d="M57.07,66.69l2.24,8.07h.17V66.69h1.85V76.5H58.05l-2.24-8.07h-.17V76.5H53.8V66.69Z"/><path class="cls-2" d="M69.81,66.69v4h3.7v-4h1.85V76.5H73.51v-4h-3.7v4H68V66.69Z"/><path class="cls-2" d="M82.53,66.69l2.71,9.81h-1.9l-.58-2.16H79.32l-.58,2.16h-1.9l2.72-9.81Zm-.21,5.94-1.19-4.4H81l-1.19,4.4Z"/><path class="cls-2" d="M92.07,72.71l2,3.79H92l-1.81-3.63H88.57V76.5H86.72V66.7H91a3,3,0,0,1,3.14,3.09A2.89,2.89,0,0,1,92.07,72.71Zm-3.5-1.58h2.29a1.35,1.35,0,1,0,0-2.69H88.57Z"/><path class="cls-2" d="M100.85,66.69l2.72,9.81h-1.91l-.57-2.16H97.64l-.57,2.16H95.16l2.72-9.81Zm-.21,5.94-1.19-4.4h-.17l-1.19,4.4Z"/><path class="cls-2" d="M112.05,69.6V70h-1.79v-.28c0-1.1-.72-1.59-1.84-1.59s-1.58.49-1.58,1.15c0,.91.87,1.07,2,1.34l.12,0c2,.45,3.21,1.16,3.21,2.94,0,2-1.54,3.08-3.63,3.08-2.39,0-3.93-1.29-3.93-3.58V72.8h1.82V73a1.89,1.89,0,0,0,2.17,2c1.19,0,1.75-.63,1.75-1.35s-.73-1.12-2-1.4l-.12,0c-2.11-.47-3.24-1.15-3.24-2.93s1.5-2.85,3.4-2.85C110.52,66.49,112.05,67.64,112.05,69.6Z"/><path class="cls-2" d="M121.24,69.6V70h-1.8v-.28c0-1.1-.71-1.59-1.83-1.59S116,68.64,116,69.3c0,.91.87,1.07,2,1.34l.13,0c2,.45,3.2,1.16,3.2,2.94,0,2-1.54,3.08-3.62,3.08-2.4,0-3.94-1.29-3.94-3.58V72.8h1.82V73a1.9,1.9,0,0,0,2.17,2c1.19,0,1.75-.63,1.75-1.35s-.73-1.12-2-1.4l-.13,0c-2.1-.47-3.24-1.15-3.24-2.93s1.5-2.85,3.41-2.85C119.71,66.49,121.24,67.64,121.24,69.6Z"/><path class="cls-2" d="M129.86,66.69V68.4h-4.6v2.31h4.21v1.68h-4.21v2.4h4.68V76.5h-6.52V66.69Z"/><path class="cls-2" d="M135.18,66.69c2.63,0,4,1.3,4,4v1.85c0,2.67-1.4,4-4,4h-3.36V66.69Zm-1.51,8.07h1.54c1.58,0,2.15-.79,2.15-2.19v-2c0-1.4-.57-2.18-2.15-2.18h-1.54Z"/><polyline class="cls-3" points="218.4 118.78 163.22 86.03 163.22 37.51 218.4 4.77"/><line class="cls-4" x1="218.4" y1="5.41" x2="218.4" y2="119.42"/><path class="cls-5" d="M162.57,37.42a24.3,24.3,0,1,1,0,48.6Z"/><line class="cls-6" x1="142.08" y1="62.52" x2="155.95" y2="62.52"/><line class="cls-6" x1="230" y1="62.52" x2="246.13" y2="62.52"/></svg>