<svg id="Google_Images" data-name="Google Images" xmlns="http://www.w3.org/2000/svg" viewBox="0 0 1122.8974 875.61151">
  <defs>
    <style>
      .cls-1, .cls-17, .cls-18, .cls-32, .cls-34 {
        fill: none;
      }

      .cls-1 {
        stroke: #000001;
      }

      .cls-1, .cls-17, .cls-18, .cls-32 {
        stroke-miterlimit: 10;
      }

      .cls-1, .cls-18, .cls-32 {
        stroke-width: 1.5px;
      }

      .cls-19, .cls-2, .cls-4 {
        font-size: 16px;
      }

      .cls-2 {
        fill: #508ab5;
        font-family: IBMPlexSans-SemiBold, IBM Plex Sans;
        font-weight: 600;
      }

      .cls-3 {
        letter-spacing: -0.00592em;
      }

      .cls-24, .cls-4 {
        fill: #000001;
      }

      .cls-19, .cls-24, .cls-27, .cls-4 {
        font-family: IBMPlexSans, IBM Plex Sans;
      }

      .cls-5 {
        letter-spacing: -0.00397em;
      }

      .cls-6 {
        letter-spacing: -0.00006em;
      }

      .cls-7 {
        letter-spacing: -0.01001em;
      }

      .cls-8 {
        letter-spacing: -0.005em;
      }

      .cls-9 {
        letter-spacing: -0.00403em;
      }

      .cls-10 {
        letter-spacing: -0.02502em;
      }

      .cls-11 {
        letter-spacing: -0.00696em;
      }

      .cls-12 {
        letter-spacing: -0.00494em;
      }

      .cls-13 {
        letter-spacing: -0.00604em;
      }

      .cls-14 {
        letter-spacing: 0.00006em;
      }

      .cls-15 {
        letter-spacing: -0.01996em;
      }

      .cls-16 {
        letter-spacing: 0.00397em;
      }

      .cls-17 {
        stroke: #000;
        stroke-width: 0.75px;
      }

      .cls-18 {
        stroke: #508ab5;
      }

      .cls-19 {
        fill: gray;
      }

      .cls-20 {
        letter-spacing: -0.00995em;
      }

      .cls-21 {
        letter-spacing: -0.02002em;
      }

      .cls-22 {
        letter-spacing: -0.00598em;
      }

      .cls-23 {
        letter-spacing: -0.00098em;
      }

      .cls-24, .cls-27 {
        font-size: 15.49676px;
      }

      .cls-25 {
        letter-spacing: -0.015em;
      }

      .cls-26 {
        letter-spacing: -0.00397em;
      }

      .cls-27 {
        fill: #89703f;
      }

      .cls-28 {
        letter-spacing: -0.00498em;
      }

      .cls-29 {
        letter-spacing: -0.00696em;
      }

      .cls-30 {
        letter-spacing: -0.00003em;
      }

      .cls-31 {
        letter-spacing: -0.004em;
      }

      .cls-32 {
        stroke: #89703f;
      }

      .cls-33 {
        letter-spacing: -0.00702em;
      }
    </style>
  </defs>
  <title>protocol_5</title>
  <g>
    <line class="cls-1" x1="576.68726" y1="73.93952" x2="576.73857" y2="115.01889"/>
    <line class="cls-1" x1="399.54498" y1="216.37807" x2="399.59629" y2="257.45745"/>
    <line class="cls-1" x1="752.26579" y1="189.15085" x2="752.26579" y2="258.01769"/>
    <text class="cls-2" transform="translate(521.39786 59.18442)">Google Ima<tspan class="cls-3" x="85.4541" y="0">g</tspan><tspan x="94.0791" y="0">es</tspan></text>
    <text class="cls-4" transform="translate(673.13663 174.42721)">“Belo Mon<tspan class="cls-5" x="74.95898" y="0">t</tspan><tspan class="cls-6" x="80.51172" y="0">e Da</tspan><tspan class="cls-7" x="112.35059" y="0">m</tspan><tspan x="126.1582" y="0">”</tspan></text>
    <text class="cls-4" transform="translate(317.46677 176.81708)">“Usina Hid<tspan class="cls-8" x="76.23926" y="0">r</tspan><tspan class="cls-6" x="82.03125" y="0">elétrica </tspan><tspan x="0" y="19.2002">de Belo Mon</tspan><tspan class="cls-9" x="89.19922" y="19.2002">t</tspan><tspan class="cls-10" x="94.75098" y="19.2002">e</tspan><tspan x="103.13477" y="19.2002">”</tspan></text>
    <text class="cls-4" transform="translate(317.46677 289.41824)">Fir<tspan class="cls-11" x="18.81543" y="0">s</tspan><tspan class="cls-6" x="26.49609" y="0">t 100 </tspan><tspan class="cls-8" x="68.46289" y="0">r</tspan><tspan x="74.25488" y="0">esu</tspan><tspan class="cls-12" x="99.91895" y="0">l</tspan><tspan class="cls-6" x="104.19141" y="0">ts </tspan><tspan class="cls-13" x="121.375" y="0">o</tspan><tspan class="cls-14" x="130.23828" y="0">f the</tspan><tspan x="0" y="19.2002">sea</tspan><tspan class="cls-8" x="25.12012" y="19.2002">r</tspan><tspan x="30.91211" y="19.2002">ch in English</tspan></text>
    <text class="cls-4" transform="translate(673.13651 289.41824)">Fir<tspan class="cls-11" x="18.81543" y="0">s</tspan><tspan class="cls-6" x="26.49609" y="0">t 100 </tspan><tspan class="cls-8" x="68.46289" y="0">r</tspan><tspan x="74.25488" y="0">esu</tspan><tspan class="cls-12" x="99.91895" y="0">l</tspan><tspan class="cls-6" x="104.19141" y="0">ts </tspan><tspan class="cls-13" x="121.375" y="0">o</tspan><tspan class="cls-14" x="130.23828" y="0">f the</tspan><tspan x="0" y="19.2002">sea</tspan><tspan class="cls-8" x="25.12012" y="19.2002">r</tspan><tspan x="30.91211" y="19.2002">ch in </tspan><tspan class="cls-15" x="68.6875" y="19.2002">P</tspan><tspan x="78.06348" y="19.2002">o</tspan><tspan class="cls-16" x="87.02344" y="19.2002">r</tspan><tspan x="92.95898" y="19.2002">tu</tspan><tspan class="cls-9" x="107.66309" y="19.2002">g</tspan><tspan x="116.04688" y="19.2002">uese</tspan></text>
    <path class="cls-17" d="M1153.0771,181.9694" transform="translate(-401.0115 -13.04523)"/>
    <polyline class="cls-1" points="398.999 413.596 398.999 444.585 750.858 444.585 751.897 444.585 751.897 413.973"/>
    <polyline class="cls-1" points="754.428 146.151 754.428 115.162 400.045 115.162 398.999 115.162 398.999 145.774"/>
    <text class="cls-4" transform="translate(737.68009 398.38179)">100</text>
    <rect class="cls-18" x="909.22483" y="47.59541" width="137" height="39.14286" transform="translate(-401.11159 -11.57196) rotate(-0.08633)"/>
    <text class="cls-19" transform="translate(548.82408 173.28297)">Queries</text>
    <text class="cls-19" transform="translate(531.93511 401.22162)">Li<tspan class="cls-11" x="12.01563" y="0">s</tspan><tspan class="cls-6" x="19.69629" y="0">t </tspan><tspan class="cls-13" x="29.08887" y="0">o</tspan><tspan x="37.95215" y="0">f lin</tspan><tspan class="cls-20" x="64.35156" y="0">k</tspan><tspan class="cls-6" x="72.62402" y="0">s</tspan></text>
    <text class="cls-19" transform="translate(870.20923 159.70576)">Googl<tspan class="cls-21" x="41.83984" y="0">e</tspan><tspan class="cls-20" x="50.30371" y="0">.</tspan><tspan class="cls-22" x="54.49609" y="0">c</tspan><tspan class="cls-6" x="62.44824" y="0">om</tspan><tspan class="cls-7" x="0" y="19.2002">L</tspan><tspan x="7.85547" y="19.2002">ocation: Ita</tspan><tspan class="cls-7" x="90.0791" y="19.2002">l</tspan><tspan x="94.27051" y="19.2002">y</tspan><tspan class="cls-23" x="0" y="38.3999">L</tspan><tspan x="8" y="38.3999">an</tspan><tspan class="cls-9" x="25.63184" y="38.3999">g</tspan><tspan x="34.01563" y="38.3999">ua</tspan><tspan class="cls-22" x="51.64746" y="38.3999">g</tspan><tspan x="60" y="38.3999">e: English</tspan></text>
    <text class="cls-19" transform="translate(212.59952 161.42123)">Googl<tspan class="cls-15" x="41.83984" y="0">e</tspan><tspan x="50.30469" y="0">.br</tspan><tspan class="cls-7" x="-40.28711" y="19.2002">L</tspan><tspan x="-32.43164" y="19.2002">ocation: B</tspan><tspan class="cls-5" x="39.68066" y="19.2002">r</tspan><tspan x="45.48926" y="19.2002">azil</tspan><tspan class="cls-23" x="-89.23145" y="38.3999">L</tspan><tspan x="-81.23145" y="38.3999">an</tspan><tspan class="cls-9" x="-63.59961" y="38.3999">g</tspan><tspan x="-55.21582" y="38.3999">ua</tspan><tspan class="cls-22" x="-37.58398" y="38.3999">g</tspan><tspan x="-29.23145" y="38.3999">e: </tspan><tspan class="cls-21" x="-12" y="38.3999">P</tspan><tspan class="cls-14" x="-2.625" y="38.3999">o</tspan><tspan class="cls-16" x="6.33594" y="38.3999">r</tspan><tspan x="12.27148" y="38.3999">tu</tspan><tspan class="cls-9" x="26.97559" y="38.3999">g</tspan><tspan x="35.35938" y="38.3999">uese</tspan></text>
    <rect class="cls-1" x="304.86009" y="258.39514" width="189.70145" height="70.04616"/>
    <rect class="cls-1" x="304.86009" y="146.33191" width="189.70145" height="70.04616"/>
    <rect class="cls-1" x="657.04611" y="258.39514" width="189.70145" height="70.04616"/>
    <rect class="cls-1" x="657.04611" y="146.15085" width="189.84162" height="43"/>
    <rect class="cls-1" x="722.48675" y="370.45836" width="58.96033" height="43"/>
    <text class="cls-4" transform="translate(384.72471 398.3817)">100</text>
    <rect class="cls-1" x="370.23065" y="370.45836" width="58.96033" height="43"/>
    <text class="cls-19" transform="translate(426.25818 522.07506)">Manual <tspan x="-49.50391" y="19.2002">ca</tspan><tspan class="cls-9" x="-32.91211" y="19.2002">t</tspan><tspan class="cls-14" x="-27.36035" y="19.2002">e</tspan><tspan class="cls-13" x="-18.5752" y="19.2002">g</tspan><tspan x="-10.22363" y="19.2002">orisation</tspan></text>
    <rect class="cls-1" x="495.49301" y="485.80241" width="159.26734" height="43"/>
    <rect class="cls-1" x="495.49301" y="529.03722" width="159.26734" height="43"/>
    <text class="cls-24" transform="translate(509.21595 514.87546)"><tspan class="cls-25">W</tspan><tspan x="13.5752" y="0">ebsi</tspan><tspan class="cls-26" x="42.49219" y="0">t</tspan><tspan x="47.87012" y="0">es</tspan></text>
    <text class="cls-24" transform="translate(509.21595 555.95508)">Con<tspan class="cls-26" x="27.10254" y="0">t</tspan><tspan x="32.48047" y="0">ent</tspan></text>
    <text class="cls-24" transform="translate(532.3926 807.95492)">Visualisation</text>
    <text class="cls-24" transform="translate(560.51906 639.29629)">Data</text>
    <rect class="cls-1" x="542.71333" y="613.1166" width="68" height="43"/>
    <text class="cls-27" transform="translate(541.7759 723.37558)">I<tspan class="cls-28" x="6.19873" y="0">l</tspan><tspan x="10.33643" y="0">lu</tspan><tspan class="cls-29" x="23.35303" y="0">s</tspan><tspan class="cls-30" x="30.79199" y="0">t</tspan><tspan class="cls-26" x="36.23096" y="0">r</tspan><tspan class="cls-30" x="41.85645" y="0">a</tspan><tspan class="cls-31" x="50.13135" y="0">t</tspan><tspan x="55.50879" y="0">or</tspan></text>
    <rect class="cls-32" x="526.1796" y="697.19598" width="101.4589" height="43"/>
    <rect class="cls-1" x="513.21333" y="781.27535" width="127" height="44"/>
    <line class="cls-1" x1="399.54498" y1="329.37899" x2="399.59629" y2="370.45836"/>
    <line class="cls-1" x1="752.30958" y1="329.37899" x2="752.36089" y2="370.45836"/>
    <line class="cls-1" x1="576.65733" y1="444.72303" x2="576.70864" y2="485.80241"/>
    <line class="cls-1" x1="576.65733" y1="572.03722" x2="576.70864" y2="613.1166"/>
    <line class="cls-1" x1="576.65733" y1="656.1166" x2="576.70864" y2="697.19598"/>
    <line class="cls-1" x1="576.65733" y1="740.19598" x2="576.70864" y2="781.27535"/>
    <text class="cls-19" transform="translate(529.39586 288.67615)">Time<tspan class="cls-33" x="35.90332" y="0">s</tspan><tspan class="cls-14" x="43.58301" y="0">tamp:</tspan><tspan x="0" y="19.2002">24/11/2018</tspan></text>
  </g>
  <rect class="cls-34" width="1122.8974" height="875.61151"/>
</svg>
