<?xml version="1.0" encoding="utf-8"?>
<!-- Generator: Adobe Illustrator 22.1.0, SVG Export Plug-In . SVG Version: 6.00 Build 0)  -->
<svg version="1.1" id="图层_1" xmlns="http://www.w3.org/2000/svg" xmlns:xlink="http://www.w3.org/1999/xlink" x="0px" y="0px"
	 viewBox="0 0 1075 406" style="enable-background:new 0 0 1075 406;" xml:space="preserve">
<style type="text/css">
	.st0{fill:#FFFFFF;stroke:#00A183;stroke-miterlimit:10;}
	.st1{fill:none;stroke:#FBB03B;stroke-width:0.5;stroke-miterlimit:10;}
	.st2{fill:none;stroke:#8CC63F;stroke-width:0.5;stroke-miterlimit:10;}
	.st3{fill:#8CC63F;}
</style>
<ellipse class="st0" cx="569.7" cy="-1155.5" rx="7.3" ry="7.3"/>
<g>
	<path class="st1" d="M374.6,0.5C283.3,162.4,147.4,295.1-0.1,405.9"/>
	<path class="st1" d="M374.6,0.5C287.3,162.2,154.2,295,9.5,405.9"/>
	<path class="st1" d="M374.6,0.5C291.4,162.1,161.1,295,19.1,405.9"/>
	<path class="st1" d="M374.6,0.5C295.6,161.8,168.4,295,29.1,405.9"/>
	<path class="st1" d="M374.6,0.5C299.5,161.6,175,294.9,38.3,405.9"/>
	<path class="st1" d="M374.6,0.5c-71,160.9-192.7,294.3-326.7,405.4"/>
	<path class="st1" d="M374.6,0.5c-67,160.6-185.7,294.3-317.1,405.4"/>
	<path class="st1" d="M374.6,0.5C311.7,160.7,195.9,294.6,67.1,405.9"/>
	<path class="st1" d="M374.6,0.5C315.8,160.3,202.9,294.5,76.7,405.9"/>
	<path class="st1" d="M374.6,0.5C317.1,160.1,211.2,293.2,86.3,405.9"/>
</g>
<g>
	<path class="st2" d="M710.2,0.5C521.8,159.4,315,293.4,95.9,405.9"/>
	<path class="st2" d="M710.2,0.5C526.1,160,321.4,293.6,105.5,405.9"/>
	<path class="st2" d="M710.2,0.5C529.8,160.2,328.1,293.7,115.1,405.9"/>
	<path class="st2" d="M710.2,0.5C532.7,160,335,293.6,124.7,405.9"/>
	<path class="st2" d="M710.2,0.5C540.1,160.4,348.4,293.8,143.9,405.9"/>
	<path class="st2" d="M710.2,0.5c-173,160.2-368.8,293.4-575.8,405.5"/>
	<path class="st2" d="M710.2,0.5C544.6,161,354.7,294,153.5,405.9"/>
	<path class="st2" d="M710.2,0.5c-161.8,160.7-348.7,293.7-547,405.5"/>
	<path class="st2" d="M710.2,0.5C551.2,160.9,368.5,294,172.7,405.9"/>
	<path class="st2" d="M710.2,0.5C556.1,161.7,374.8,294.3,182.3,405.9"/>
	<path class="st2" d="M710.2,0.5C563.8,161.5,388.6,293.8,202.2,405.1"/>
	<path class="st2" d="M710.2,0.5c-142.6,161.2-315,293.4-498.6,404.6"/>
	<path class="st2" d="M710.2,0.5C571.5,162.2,401.7,294.7,220.9,405.9"/>
	<path class="st2" d="M710.2,0.5C594.9,162.2,442.4,294.3,278.7,405.1"/>
	<path class="st2" d="M710.2,0.5C591,162.6,435.5,294.9,268.7,405.9"/>
	<path class="st2" d="M710.2,0.5c-123.1,162.1-281.5,294.4-451,405.5"/>
	<path class="st2" d="M710.2,0.5C619,162.4,483.3,295.1,336,405.9"/>
	<path class="st2" d="M710.2,0.5c-87,161.8-219.9,294.5-364.5,405.5"/>
	<path class="st2" d="M710.2,0.5c-83.1,161.2-213,293.8-354.7,404.6"/>
</g>
<path class="st1" d="M374.5,0.5c-22.1,142.6-68.7,277.2-134.7,405.4"/>
<path class="st1" d="M374.5,0.5c-18.6,142.2-62,276.8-125.1,405.4"/>
<path class="st1" d="M374.5,0.5c1.6,139.2-21.8,274-67.3,405.4"/>
<path class="st1" d="M374.5,0.5c4.9,138.6-15.3,273.5-57.9,405.4"/>
<path class="st1" d="M374.5,0.5c8.2,138.1-8.7,273-48.3,405.4"/>
<path class="st1" d="M374.5,0.5c27.3,134.7,30.5,269.6,9.3,405.4"/>
<path class="st1" d="M374.5,0.5c30.3,134.1,37,269.1,18.9,405.4"/>
<path class="st1" d="M374.5,0.5c33.4,133.6,43.4,268.5,28.5,405.4"/>
<path class="st1" d="M374.5,0.5c36.4,133,49.7,267.9,38.1,405.4"/>
<path class="st1" d="M374.5,0.5c39.4,132.5,56,267.4,47.6,405.4"/>
<g>
	<path class="st2" d="M710.1,0.5C665.2,144.6,599.6,279,518.3,405.9"/>
	<path class="st2" d="M710.1,0.5c-48.4,144.4-117.2,278.8-201.4,405.4"/>
	<path class="st2" d="M710.1,0.5c-51.9,144.6-123.9,279-211,405.4"/>
	<path class="st2" d="M710.1,0.5c-55.5,144.9-130.7,279.2-220.7,405.4"/>
	<path class="st2" d="M710.1,0.5c-58.9,145.1-137.4,279.4-230.2,405.4"/>
	<path class="st2" d="M710.1,0.5C647.6,145.8,566,280.1,470.3,405.9"/>
	<path class="st2" d="M710.1,0.5C644,146,559.2,280.3,460.7,405.9"/>
	<path class="st2" d="M710.1,0.5c-69.6,145.7-157.6,279.9-259,405.4"/>
	<path class="st2" d="M710.1,0.5c-73.2,145.9-164.4,280.1-268.7,405.4"/>
	<path class="st2" d="M710.1,0.5c-76.7,146-171,280.3-278.2,405.4"/>
	<path class="st2" d="M710.1,0.5c-34.5,141.9-90.2,275.3-162.3,402.1"/>
	<path class="st2" d="M710.1,0.5c-30.9,142.8-83.5,277.3-153.4,405.4"/>
	<path class="st2" d="M710.1,0.5c-27.4,142.4-76.8,277-143.8,405.4"/>
</g>
<g>
	<path class="st1" d="M374.4,0.5c51.9,144.6,123.8,279,210.8,405.4"/>
	<path class="st1" d="M374.4,0.5C429.8,145.4,505,279.7,594.9,405.9"/>
	<path class="st1" d="M374.4,0.5c58.9,145.1,137.3,279.4,230,405.4"/>
	<path class="st1" d="M374.4,0.5c62.5,145.3,144.1,279.6,239.8,405.4"/>
	<path class="st1" d="M374.4,0.5c66,145.5,150.8,279.8,249.4,405.4"/>
</g>
<g>
	
		<rect x="465.5" y="202.7" transform="matrix(0.1852 -0.9827 0.9827 0.1852 347.6331 825.6901)" class="st3" width="412.6" height="0.9"/>
</g>
<g>
	<polygon class="st3" points="710.5,0.6 709.6,0.4 642.6,405.8 643.5,406 	"/>
</g>
<g>
	
		<rect x="476.6" y="202.8" transform="matrix(0.1409 -0.99 0.99 0.1409 384.1892 849.1356)" class="st3" width="409.5" height="0.9"/>
</g>
<g>
	
		<rect x="482" y="202.7" transform="matrix(0.1173 -0.9931 0.9931 0.1173 403.8687 860.7861)" class="st3" width="408.2" height="0.9"/>
</g>
<g>
	
		<rect x="487.3" y="202.7" transform="matrix(9.370355e-02 -0.9956 0.9956 9.370355e-02 423.8985 872.0774)" class="st3" width="407.2" height="0.9"/>
</g>
<g>
	
		<rect x="492.5" y="202.8" transform="matrix(7.041303e-02 -0.9975 0.9975 7.041303e-02 444.0645 882.9244)" class="st3" width="406.4" height="0.9"/>
</g>
<g>
	
		<rect x="497.6" y="202.7" transform="matrix(4.682359e-02 -0.9989 0.9989 4.682359e-02 464.7073 893.41)" class="st3" width="405.9" height="0.9"/>
</g>
<g>
	
		<rect x="502.5" y="202.7" transform="matrix(2.343106e-02 -0.9997 0.9997 2.343106e-02 485.5829 903.5063)" class="st3" width="405.5" height="0.9"/>
</g>
<g>
	
		<rect x="724" y="0.3" transform="matrix(0.9973 -7.296012e-02 7.296012e-02 0.9973 -12.7871 53.395)" class="st3" width="0.9" height="402.8"/>
</g>
<g>
	
		<rect x="719.2" y="0.6" transform="matrix(0.9988 -4.863007e-02 4.863007e-02 0.9988 -9.0393 35.2366)" class="st3" width="0.9" height="405.5"/>
</g>
<g>
	
		<rect x="714.4" y="0.8" transform="matrix(0.9997 -2.497465e-02 2.497465e-02 0.9997 -4.8565 17.9162)" class="st3" width="0.9" height="405.2"/>
</g>
<g>
	<path class="st2" d="M709.9,0.5C776.1,173,924.3,306.9,1075,405.9"/>
	<path class="st2" d="M709.9,0.5c61.7,172.2,207.4,306.4,355.5,405.5"/>
	<path class="st2" d="M709.9,0.5c57.2,171.7,200.3,306.4,345.9,405.5"/>
	<path class="st2" d="M709.9,0.5c52.6,171.2,193.2,306.4,336.3,405.5"/>
	<path class="st2" d="M709.9,0.5c48.1,170.7,186.1,306.4,326.7,405.5"/>
	<path class="st2" d="M709.9,0.5c43.6,170.1,179,306.2,317.1,405.5"/>
</g>
<g>
	<path class="st1" d="M374.4,0.5C477.1,161,614.8,293.3,767.8,405.9"/>
	<path class="st1" d="M374.4,0.5c104.9,161,248.2,293.5,403,405.5"/>
	<path class="st1" d="M374.4,0.5c108.8,161,255,293.5,412.6,405.5"/>
	<path class="st1" d="M374.4,0.5c112.8,161,261.8,293.5,422.2,405.5"/>
	<path class="st1" d="M374.4,0.5c116.7,161,268.6,293.5,431.8,405.5"/>
	<path class="st1" d="M374.4,0.5c120.6,161,275.4,293.4,441.4,405.5"/>
	<path class="st1" d="M374.4,0.5C502.8,160.9,663.2,293.1,834.6,405"/>
	<path class="st1" d="M374.4,0.5C506.6,161.2,670,293.7,844.6,405.9"/>
	<path class="st1" d="M374.4,0.5c137.9,160.1,302.6,292.8,480.9,405.5"/>
	<path class="st1" d="M374.4,0.5c140,160.6,309.2,293.1,489.4,405.5"/>
	<path class="st1" d="M374.4,0.5c143.8,160.4,315.9,293.1,499,405.5"/>
	<path class="st1" d="M374.4,0.5C523.2,160.3,696.4,293.1,883,405.9"/>
	<path class="st1" d="M374.4,0.5c151.4,160.2,329.3,292.9,518.2,405.5"/>
	<path class="st1" d="M374.4,0.5c160,159.3,342.3,292.5,537.4,405.5"/>
	<path class="st1" d="M374.4,0.5c162.8,159.6,349.3,292.7,547,405.5"/>
	<path class="st1" d="M374.4,0.5C541.7,159.4,730,292.9,931,405.9"/>
	<path class="st1" d="M374.4,0.5c171.1,158.3,362.3,291.6,565.9,404.6"/>
	<path class="st1" d="M374.4,0.5c173.9,159,369.4,292.4,575.9,405.5"/>
	<path class="st1" d="M374.4,0.5c178.4,158,375.6,291.4,585.1,404.6"/>
	<path class="st1" d="M374.4,0.5C555.6,159.1,757,292.7,969.4,405.9"/>
	<path class="st1" d="M374.4,0.5c185.6,158,389.1,292,604.7,405.5"/>
	<path class="st1" d="M374.4,0.5c189.2,157.8,395.7,291.9,614.3,405.5"/>
	<path class="st1" d="M374.4,0.5c192.8,157.6,402.4,291.9,623.9,405.5"/>
	<path class="st1" d="M374.4,0.5c196.4,157.4,409,291.8,633.5,405.5"/>
	<path class="st1" d="M374.4,0.5C574.3,157.7,790,292.1,1017.4,405.9"/>
</g>
<g>
	<rect x="709.3" y="3.1" class="st3" width="0.9" height="403"/>
</g>
</svg>
