<?xml version="1.0" encoding="utf-8"?>
<!-- Generator: Adobe Illustrator 21.1.0, SVG Export Plug-In . SVG Version: 6.00 Build 0) -->
<svg id="mappa2" version="1.1" xmlns="http://www.w3.org/2000/svg" xmlns:xlink="http://www.w3.org/1999/xlink" x="0px" y="0px" viewBox="0 0 1508 978" style="enable-background:new 0 0 1508 978;" xml:space="preserve">
	<g id="_x32_bmappa">
		<g id="XMLID_455_">
			<polygon
				id="XMLID_97_"
				class="st0"
				points="431.8,255.3 431.8,242.7 420.9,236.4 410,242.7 399.2,236.4 388.3,242.7 377.4,236.4
			366.5,242.7 355.6,236.4 344.7,242.7 333.8,236.4 333.8,223.9 322.9,217.6 312,223.9 312,236.4 301.1,242.7 301.1,255.3
			290.2,261.6 290.2,274.2 279.3,280.5 279.3,293 290.2,299.3 301.1,293 312,299.3 312,311.9 322.9,318.2 333.8,311.9 344.7,318.2
			355.6,311.9 366.5,318.2 377.4,311.9 388.3,318.2 388.3,330.8 399.2,337.1 410,330.8 410,318.2 420.9,311.9 420.9,299.3
			431.8,293 431.8,280.5 442.7,274.2 442.7,261.6 		"/>
			<polygon
				id="XMLID_96_"
				class="st1"
				points="431.8,255.3 431.8,242.7 420.9,236.4 410,242.7 399.2,236.4 388.3,242.7 377.4,236.4
			366.5,242.7 355.6,236.4 344.7,242.7 333.8,236.4 333.8,223.9 322.9,217.6 312,223.9 312,236.4 301.1,242.7 301.1,255.3
			290.2,261.6 290.2,274.2 279.3,280.5 279.3,293 290.2,299.3 301.1,293 312,299.3 312,311.9 322.9,318.2 333.8,311.9 344.7,318.2
			355.6,311.9 366.5,318.2 377.4,311.9 388.3,318.2 388.3,330.8 399.2,337.1 410,330.8 410,318.2 420.9,311.9 420.9,299.3
			431.8,293 431.8,280.5 442.7,274.2 442.7,261.6 		"/>
		</g>
		<g id="XMLID_451_">
			<polygon
				id="XMLID_95_"
				class="st2"
				points="431.8,481.7 431.8,469.1 420.9,462.8 410,469.1 399.2,462.8 399.2,450.2 388.3,444
			388.3,431.4 377.4,425.1 377.4,412.5 366.5,406.2 366.5,393.7 355.6,387.4 344.7,393.7 333.8,387.4 333.8,374.8 344.7,368.5
			344.7,355.9 355.6,349.6 355.6,337.1 366.5,330.8 366.5,318.2 355.6,311.9 344.7,318.2 333.8,311.9 322.9,318.2 312,311.9
			312,299.3 301.1,293 290.2,299.3 290.2,311.9 279.3,318.2 279.3,330.8 268.5,337.1 268.5,349.6 279.3,355.9 279.3,368.5
			268.5,374.8 268.5,387.4 279.3,393.7 279.3,406.2 290.2,412.5 290.2,425.1 301.1,431.4 301.1,444 290.2,450.2 290.2,462.8
			301.1,469.1 312,462.8 322.9,469.1 322.9,481.7 333.8,488 344.7,481.7 355.6,488 355.6,500.6 366.5,506.8 366.5,519.4
			377.4,525.7 388.3,519.4 399.2,525.7 410,519.4 420.9,525.7 431.8,519.4 431.8,506.8 442.7,500.6 442.7,488 		"/>
			<polygon
				id="XMLID_94_"
				class="st1"
				points="431.8,481.7 431.8,469.1 420.9,462.8 410,469.1 399.2,462.8 399.2,450.2 388.3,444
			388.3,431.4 377.4,425.1 377.4,412.5 366.5,406.2 366.5,393.7 355.6,387.4 344.7,393.7 333.8,387.4 333.8,374.8 344.7,368.5
			344.7,355.9 355.6,349.6 355.6,337.1 366.5,330.8 366.5,318.2 355.6,311.9 344.7,318.2 333.8,311.9 322.9,318.2 312,311.9
			312,299.3 301.1,293 290.2,299.3 290.2,311.9 279.3,318.2 279.3,330.8 268.5,337.1 268.5,349.6 279.3,355.9 279.3,368.5
			268.5,374.8 268.5,387.4 279.3,393.7 279.3,406.2 290.2,412.5 290.2,425.1 301.1,431.4 301.1,444 290.2,450.2 290.2,462.8
			301.1,469.1 312,462.8 322.9,469.1 322.9,481.7 333.8,488 344.7,481.7 355.6,488 355.6,500.6 366.5,506.8 366.5,519.4
			377.4,525.7 388.3,519.4 399.2,525.7 410,519.4 420.9,525.7 431.8,519.4 431.8,506.8 442.7,500.6 442.7,488 		"/>
		</g>
		<g id="XMLID_447_">
			<polygon
				id="XMLID_93_"
				class="st3"
				points="442.7,198.7 442.7,186.1 431.8,179.8 431.8,167.3 420.9,161 410,167.3 399.2,161
			388.3,167.3 377.4,161 366.5,167.3 366.5,179.8 355.6,186.1 344.7,179.8 344.7,167.3 333.8,161 322.9,167.3 322.9,179.8
			312,186.1 312,198.7 322.9,205 322.9,217.6 333.8,223.9 333.8,236.4 344.7,242.7 355.6,236.4 366.5,242.7 377.4,236.4
			388.3,242.7 399.2,236.4 410,242.7 420.9,236.4 431.8,242.7 442.7,236.4 442.7,223.9 431.8,217.6 431.8,205 		"/>
			<polygon
				id="XMLID_92_"
				class="st1"
				points="442.7,198.7 442.7,186.1 431.8,179.8 431.8,167.3 420.9,161 410,167.3 399.2,161
			388.3,167.3 377.4,161 366.5,167.3 366.5,179.8 355.6,186.1 344.7,179.8 344.7,167.3 333.8,161 322.9,167.3 322.9,179.8
			312,186.1 312,198.7 322.9,205 322.9,217.6 333.8,223.9 333.8,236.4 344.7,242.7 355.6,236.4 366.5,242.7 377.4,236.4
			388.3,242.7 399.2,236.4 410,242.7 420.9,236.4 431.8,242.7 442.7,236.4 442.7,223.9 431.8,217.6 431.8,205 		"/>
		</g>
		<g id="XMLID_443_">
			<polygon
				id="XMLID_91_"
				class="st4"
				points="464.5,349.6 464.5,337.1 453.6,330.8 442.7,337.1 431.8,330.8 420.9,337.1 410,330.8
			399.2,337.1 388.3,330.8 388.3,318.2 377.4,311.9 366.5,318.2 366.5,330.8 355.6,337.1 355.6,349.6 344.7,355.9 344.7,368.5
			333.8,374.8 333.8,387.4 344.7,393.7 355.6,387.4 366.5,393.7 366.5,406.2 377.4,412.5 377.4,425.1 388.3,431.4 388.3,444
			399.2,450.2 399.2,462.8 410,469.1 420.9,462.8 431.8,469.1 442.7,462.8 453.6,469.1 464.5,462.8 464.5,450.2 453.6,444
			453.6,431.4 464.5,425.1 464.5,412.5 453.6,406.2 453.6,393.7 464.5,387.4 464.5,374.8 475.4,368.5 475.4,355.9 		"/>
			<polygon
				id="XMLID_90_"
				class="st1"
				points="464.5,349.6 464.5,337.1 453.6,330.8 442.7,337.1 431.8,330.8 420.9,337.1 410,330.8
			399.2,337.1 388.3,330.8 388.3,318.2 377.4,311.9 366.5,318.2 366.5,330.8 355.6,337.1 355.6,349.6 344.7,355.9 344.7,368.5
			333.8,374.8 333.8,387.4 344.7,393.7 355.6,387.4 366.5,393.7 366.5,406.2 377.4,412.5 377.4,425.1 388.3,431.4 388.3,444
			399.2,450.2 399.2,462.8 410,469.1 420.9,462.8 431.8,469.1 442.7,462.8 453.6,469.1 464.5,462.8 464.5,450.2 453.6,444
			453.6,431.4 464.5,425.1 464.5,412.5 453.6,406.2 453.6,393.7 464.5,387.4 464.5,374.8 475.4,368.5 475.4,355.9 		"/>
		</g>
		<g id="XMLID_439_">
			<polygon
				id="XMLID_89_"
				class="st5"
				points="529.9,311.9 529.9,299.3 519,293 508.1,299.3 497.2,293 497.2,280.5 486.3,274.2
			486.3,261.6 475.4,255.3 475.4,242.7 464.5,236.4 464.5,223.9 453.6,217.6 453.6,205 464.5,198.7 464.5,186.1 453.6,179.8
			442.7,186.1 442.7,198.7 431.8,205 431.8,217.6 442.7,223.9 442.7,236.4 431.8,242.7 431.8,255.3 442.7,261.6 442.7,274.2
			431.8,280.5 431.8,293 420.9,299.3 420.9,311.9 410,318.2 410,330.8 420.9,337.1 431.8,330.8 442.7,337.1 453.6,330.8
			464.5,337.1 475.4,330.8 486.3,337.1 486.3,349.6 497.2,355.9 508.1,349.6 519,355.9 529.9,349.6 529.9,337.1 540.7,330.8
			540.7,318.2 		"/>
			<polygon
				id="XMLID_88_"
				class="st1"
				points="529.9,311.9 529.9,299.3 519,293 508.1,299.3 497.2,293 497.2,280.5 486.3,274.2
			486.3,261.6 475.4,255.3 475.4,242.7 464.5,236.4 464.5,223.9 453.6,217.6 453.6,205 464.5,198.7 464.5,186.1 453.6,179.8
			442.7,186.1 442.7,198.7 431.8,205 431.8,217.6 442.7,223.9 442.7,236.4 431.8,242.7 431.8,255.3 442.7,261.6 442.7,274.2
			431.8,280.5 431.8,293 420.9,299.3 420.9,311.9 410,318.2 410,330.8 420.9,337.1 431.8,330.8 442.7,337.1 453.6,330.8
			464.5,337.1 475.4,330.8 486.3,337.1 486.3,349.6 497.2,355.9 508.1,349.6 519,355.9 529.9,349.6 529.9,337.1 540.7,330.8
			540.7,318.2 		"/>
		</g>
		<g id="XMLID_435_">
			<polygon
				id="XMLID_87_"
				class="st6"
				points="562.5,481.7 562.5,469.1 551.6,462.8 540.7,469.1 529.9,462.8 519,469.1 508.1,462.8
			508.1,450.2 497.2,444 486.3,450.2 475.4,444 464.5,450.2 464.5,462.8 453.6,469.1 442.7,462.8 431.8,469.1 431.8,481.7
			442.7,488 442.7,500.6 431.8,506.8 431.8,519.4 442.7,525.7 442.7,538.3 453.6,544.6 464.5,538.3 475.4,544.6 475.4,557.1
			486.3,563.4 486.3,576 497.2,582.3 508.1,576 519,582.3 519,594.9 529.9,601.2 540.7,594.9 551.6,601.2 562.5,594.9 562.5,582.3
			551.6,576 551.6,563.4 562.5,557.1 562.5,544.6 551.6,538.3 551.6,525.7 562.5,519.4 562.5,506.8 551.6,500.6 551.6,488 		"/>
			<polygon
				id="XMLID_86_"
				class="st1"
				points="562.5,481.7 562.5,469.1 551.6,462.8 540.7,469.1 529.9,462.8 519,469.1 508.1,462.8
			508.1,450.2 497.2,444 486.3,450.2 475.4,444 464.5,450.2 464.5,462.8 453.6,469.1 442.7,462.8 431.8,469.1 431.8,481.7
			442.7,488 442.7,500.6 431.8,506.8 431.8,519.4 442.7,525.7 442.7,538.3 453.6,544.6 464.5,538.3 475.4,544.6 475.4,557.1
			486.3,563.4 486.3,576 497.2,582.3 508.1,576 519,582.3 519,594.9 529.9,601.2 540.7,594.9 551.6,601.2 562.5,594.9 562.5,582.3
			551.6,576 551.6,563.4 562.5,557.1 562.5,544.6 551.6,538.3 551.6,525.7 562.5,519.4 562.5,506.8 551.6,500.6 551.6,488 		"/>
		</g>
		<g id="XMLID_427_">
			<polygon
				id="XMLID_85_"
				class="st7"
				points="562.5,406.2 562.5,393.7 551.6,387.4 551.6,374.8 540.7,368.5 529.9,374.8 519,368.5
			519,355.9 508.1,349.6 497.2,355.9 486.3,349.6 486.3,337.1 475.4,330.8 464.5,337.1 464.5,349.6 475.4,355.9 475.4,368.5
			464.5,374.8 464.5,387.4 453.6,393.7 453.6,406.2 464.5,412.5 464.5,425.1 453.6,431.4 453.6,444 464.5,450.2 475.4,444
			486.3,450.2 497.2,444 508.1,450.2 508.1,462.8 519,469.1 529.9,462.8 540.7,469.1 551.6,462.8 551.6,450.2 562.5,444
			562.5,431.4 551.6,425.1 551.6,412.5 		"/>
			<polygon
				id="XMLID_84_"
				class="st1"
				points="562.5,406.2 562.5,393.7 551.6,387.4 551.6,374.8 540.7,368.5 529.9,374.8 519,368.5
			519,355.9 508.1,349.6 497.2,355.9 486.3,349.6 486.3,337.1 475.4,330.8 464.5,337.1 464.5,349.6 475.4,355.9 475.4,368.5
			464.5,374.8 464.5,387.4 453.6,393.7 453.6,406.2 464.5,412.5 464.5,425.1 453.6,431.4 453.6,444 464.5,450.2 475.4,444
			486.3,450.2 497.2,444 508.1,450.2 508.1,462.8 519,469.1 529.9,462.8 540.7,469.1 551.6,462.8 551.6,450.2 562.5,444
			562.5,431.4 551.6,425.1 551.6,412.5 		"/>
		</g>
		<g id="XMLID_423_">
			<polygon
				id="XMLID_83_"
				class="st8"
				points="660.6,349.6 660.6,337.1 649.7,330.8 649.7,318.2 638.8,311.9 638.8,299.3 627.9,293
			617,299.3 606.1,293 595.2,299.3 584.3,293 573.4,299.3 562.5,293 551.6,299.3 540.7,293 529.9,299.3 529.9,311.9 540.7,318.2
			540.7,330.8 529.9,337.1 529.9,349.6 519,355.9 519,368.5 529.9,374.8 540.7,368.5 551.6,374.8 551.6,387.4 562.5,393.7
			573.4,387.4 584.3,393.7 595.2,387.4 606.1,393.7 617,387.4 627.9,393.7 638.8,387.4 649.7,393.7 660.6,387.4 660.6,374.8
			649.7,368.5 649.7,355.9 		"/>
			<polygon
				id="XMLID_82_"
				class="st1"
				points="660.6,349.6 660.6,337.1 649.7,330.8 649.7,318.2 638.8,311.9 638.8,299.3 627.9,293
			617,299.3 606.1,293 595.2,299.3 584.3,293 573.4,299.3 562.5,293 551.6,299.3 540.7,293 529.9,299.3 529.9,311.9 540.7,318.2
			540.7,330.8 529.9,337.1 529.9,349.6 519,355.9 519,368.5 529.9,374.8 540.7,368.5 551.6,374.8 551.6,387.4 562.5,393.7
			573.4,387.4 584.3,393.7 595.2,387.4 606.1,393.7 617,387.4 627.9,393.7 638.8,387.4 649.7,393.7 660.6,387.4 660.6,374.8
			649.7,368.5 649.7,355.9 		"/>
		</g>
		<g id="XMLID_419_">
			<polygon
				id="XMLID_81_"
				class="st9"
				points="693.2,444 693.2,431.4 682.3,425.1 682.3,412.5 671.4,406.2 660.6,412.5 649.7,406.2
			649.7,393.7 638.8,387.4 627.9,393.7 617,387.4 606.1,393.7 595.2,387.4 584.3,393.7 573.4,387.4 562.5,393.7 562.5,406.2
			551.6,412.5 551.6,425.1 562.5,431.4 562.5,444 551.6,450.2 551.6,462.8 562.5,469.1 562.5,481.7 573.4,488 584.3,481.7
			595.2,488 606.1,481.7 617,488 627.9,481.7 638.8,488 649.7,481.7 660.6,488 660.6,500.6 671.4,506.8 682.3,500.6 682.3,488
			693.2,481.7 693.2,469.1 682.3,462.8 682.3,450.2 		"/>
			<polygon
				id="XMLID_80_"
				class="st1"
				points="693.2,444 693.2,431.4 682.3,425.1 682.3,412.5 671.4,406.2 660.6,412.5 649.7,406.2
			649.7,393.7 638.8,387.4 627.9,393.7 617,387.4 606.1,393.7 595.2,387.4 584.3,393.7 573.4,387.4 562.5,393.7 562.5,406.2
			551.6,412.5 551.6,425.1 562.5,431.4 562.5,444 551.6,450.2 551.6,462.8 562.5,469.1 562.5,481.7 573.4,488 584.3,481.7
			595.2,488 606.1,481.7 617,488 627.9,481.7 638.8,488 649.7,481.7 660.6,488 660.6,500.6 671.4,506.8 682.3,500.6 682.3,488
			693.2,481.7 693.2,469.1 682.3,462.8 682.3,450.2 		"/>
		</g>
		<g id="XMLID_415_">
			<polygon
				id="XMLID_79_"
				class="st10"
				points="682.3,538.3 682.3,525.7 671.4,519.4 671.4,506.8 660.6,500.6 660.6,488
			649.7,481.7 638.8,488 627.9,481.7 617,488 606.1,481.7 595.2,488 584.3,481.7 573.4,488 562.5,481.7 551.6,488 551.6,500.6
			562.5,506.8 562.5,519.4 551.6,525.7 551.6,538.3 562.5,544.6 562.5,557.1 551.6,563.4 551.6,576 562.5,582.3 562.5,594.9
			551.6,601.2 551.6,613.7 562.5,620 573.4,613.7 573.4,601.2 584.3,594.9 595.2,601.2 595.2,613.7 606.1,620 617,613.7 617,601.2
			627.9,594.9 638.8,601.2 638.8,613.7 649.7,620 660.6,613.7 671.4,620 682.3,613.7 682.3,601.2 671.4,594.9 671.4,582.3
			682.3,576 682.3,563.4 671.4,557.1 671.4,544.6 		"/>
			<polygon
				id="XMLID_78_"
				class="st1"
				points="682.3,538.3 682.3,525.7 671.4,519.4 671.4,506.8 660.6,500.6 660.6,488 649.7,481.7
			638.8,488 627.9,481.7 617,488 606.1,481.7 595.2,488 584.3,481.7 573.4,488 562.5,481.7 551.6,488 551.6,500.6 562.5,506.8
			562.5,519.4 551.6,525.7 551.6,538.3 562.5,544.6 562.5,557.1 551.6,563.4 551.6,576 562.5,582.3 562.5,594.9 551.6,601.2
			551.6,613.7 562.5,620 573.4,613.7 573.4,601.2 584.3,594.9 595.2,601.2 595.2,613.7 606.1,620 617,613.7 617,601.2 627.9,594.9
			638.8,601.2 638.8,613.7 649.7,620 660.6,613.7 671.4,620 682.3,613.7 682.3,601.2 671.4,594.9 671.4,582.3 682.3,576
			682.3,563.4 671.4,557.1 671.4,544.6 		"/>
		</g>
		<g id="HAWAII_4_">
			<polygon id="XMLID_77_" class="st11" points="606.1,771 617,764.7 627.9,771 627.9,783.5 617,789.8 606.1,783.5 		"/>
		</g>
		<g id="XMLID_407_">
			<polygon
				id="XMLID_76_"
				class="st12"
				points="845.7,632.6 845.7,620 834.8,613.7 834.8,601.2 823.9,594.9 823.9,582.3 813,576
			802.2,582.3 791.3,576 780.4,582.3 769.5,576 758.6,582.3 747.7,576 747.7,563.4 736.8,557.1 736.8,544.6 725.9,538.3
			725.9,525.7 715,519.4 715,506.8 704.1,500.6 693.2,506.8 682.3,500.6 671.4,506.8 671.4,519.4 682.3,525.7 682.3,538.3
			671.4,544.6 671.4,557.1 682.3,563.4 682.3,576 671.4,582.3 671.4,594.9 682.3,601.2 682.3,613.7 671.4,620 660.6,613.7
			649.7,620 638.8,613.7 638.8,601.2 627.9,594.9 617,601.2 617,613.7 627.9,620 627.9,632.6 638.8,638.9 638.8,651.5 649.7,657.8
			649.7,670.3 660.6,676.6 660.6,689.2 671.4,695.5 682.3,689.2 682.3,676.6 693.2,670.3 704.1,676.6 704.1,689.2 715,695.5
			715,708.1 725.9,714.4 725.9,726.9 736.8,733.2 736.8,745.8 747.7,752.1 747.7,764.7 758.6,771 758.6,783.5 769.5,789.8
			780.4,783.5 780.4,771 769.5,764.7 769.5,752.1 780.4,745.8 780.4,733.2 791.3,726.9 791.3,714.4 802.2,708.1 813,714.4
			823.9,708.1 823.9,695.5 834.8,689.2 834.8,676.6 845.7,670.3 845.7,657.8 856.6,651.5 856.6,638.9 		"/>
			<polygon
				id="XMLID_75_"
				class="st1"
				points="845.7,632.6 845.7,620 834.8,613.7 834.8,601.2 823.9,594.9 823.9,582.3 813,576
			802.2,582.3 791.3,576 780.4,582.3 769.5,576 758.6,582.3 747.7,576 747.7,563.4 736.8,557.1 736.8,544.6 725.9,538.3
			725.9,525.7 715,519.4 715,506.8 704.1,500.6 693.2,506.8 682.3,500.6 671.4,506.8 671.4,519.4 682.3,525.7 682.3,538.3
			671.4,544.6 671.4,557.1 682.3,563.4 682.3,576 671.4,582.3 671.4,594.9 682.3,601.2 682.3,613.7 671.4,620 660.6,613.7
			649.7,620 638.8,613.7 638.8,601.2 627.9,594.9 617,601.2 617,613.7 627.9,620 627.9,632.6 638.8,638.9 638.8,651.5 649.7,657.8
			649.7,670.3 660.6,676.6 660.6,689.2 671.4,695.5 682.3,689.2 682.3,676.6 693.2,670.3 704.1,676.6 704.1,689.2 715,695.5
			715,708.1 725.9,714.4 725.9,726.9 736.8,733.2 736.8,745.8 747.7,752.1 747.7,764.7 758.6,771 758.6,783.5 769.5,789.8
			780.4,783.5 780.4,771 769.5,764.7 769.5,752.1 780.4,745.8 780.4,733.2 791.3,726.9 791.3,714.4 802.2,708.1 813,714.4
			823.9,708.1 823.9,695.5 834.8,689.2 834.8,676.6 845.7,670.3 845.7,657.8 856.6,651.5 856.6,638.9 		"/>
		</g>
		<g id="XMLID_403_">
			<polygon
				id="XMLID_74_"
				class="st8"
				points="780.4,255.3 780.4,242.7 769.5,236.4 769.5,223.9 758.6,217.6 747.7,223.9
			736.8,217.6 725.9,223.9 715,217.6 704.1,223.9 693.2,217.6 682.3,223.9 671.4,217.6 660.6,223.9 660.6,236.4 671.4,242.7
			671.4,255.3 660.6,261.6 660.6,274.2 649.7,280.5 649.7,293 660.6,299.3 671.4,293 682.3,299.3 693.2,293 704.1,299.3 715,293
			725.9,299.3 736.8,293 747.7,299.3 758.6,293 769.5,299.3 780.4,293 780.4,280.5 791.3,274.2 791.3,261.6 		"/>
			<polygon
				id="XMLID_73_"
				class="st1"
				points="780.4,255.3 780.4,242.7 769.5,236.4 769.5,223.9 758.6,217.6 747.7,223.9
			736.8,217.6 725.9,223.9 715,217.6 704.1,223.9 693.2,217.6 682.3,223.9 671.4,217.6 660.6,223.9 660.6,236.4 671.4,242.7
			671.4,255.3 660.6,261.6 660.6,274.2 649.7,280.5 649.7,293 660.6,299.3 671.4,293 682.3,299.3 693.2,293 704.1,299.3 715,293
			725.9,299.3 736.8,293 747.7,299.3 758.6,293 769.5,299.3 780.4,293 780.4,280.5 791.3,274.2 791.3,261.6 		"/>
		</g>
		<g id="XMLID_399_">
			<polygon
				id="XMLID_72_"
				class="st13"
				points="791.3,311.9 791.3,299.3 780.4,293 769.5,299.3 758.6,293 747.7,299.3 736.8,293
			725.9,299.3 715,293 704.1,299.3 693.2,293 682.3,299.3 671.4,293 660.6,299.3 660.6,311.9 649.7,318.2 649.7,330.8 660.6,337.1
			660.6,349.6 671.4,355.9 682.3,349.6 693.2,355.9 704.1,349.6 715,355.9 725.9,349.6 736.8,355.9 747.7,349.6 758.6,355.9
			758.6,368.5 769.5,374.8 780.4,368.5 780.4,355.9 791.3,349.6 791.3,337.1 780.4,330.8 780.4,318.2 		"/>
			<polygon
				id="XMLID_71_"
				class="st1"
				points="791.3,311.9 791.3,299.3 780.4,293 769.5,299.3 758.6,293 747.7,299.3 736.8,293
			725.9,299.3 715,293 704.1,299.3 693.2,293 682.3,299.3 671.4,293 660.6,299.3 660.6,311.9 649.7,318.2 649.7,330.8 660.6,337.1
			660.6,349.6 671.4,355.9 682.3,349.6 693.2,355.9 704.1,349.6 715,355.9 725.9,349.6 736.8,355.9 747.7,349.6 758.6,355.9
			758.6,368.5 769.5,374.8 780.4,368.5 780.4,355.9 791.3,349.6 791.3,337.1 780.4,330.8 780.4,318.2 		"/>
		</g>
		<g id="XMLID_395_">
			<polygon
				id="XMLID_70_"
				class="st14"
				points="802.2,406.2 802.2,393.7 791.3,387.4 791.3,374.8 780.4,368.5 769.5,374.8
			758.6,368.5 758.6,355.9 747.7,349.6 736.8,355.9 725.9,349.6 715,355.9 704.1,349.6 693.2,355.9 682.3,349.6 671.4,355.9
			660.6,349.6 649.7,355.9 649.7,368.5 660.6,374.8 660.6,387.4 649.7,393.7 649.7,406.2 660.6,412.5 671.4,406.2 682.3,412.5
			682.3,425.1 693.2,431.4 704.1,425.1 715,431.4 725.9,425.1 736.8,431.4 747.7,425.1 758.6,431.4 769.5,425.1 780.4,431.4
			791.3,425.1 802.2,431.4 813,425.1 813,412.5 		"/>
			<polygon
				id="XMLID_69_"
				class="st1"
				points="802.2,406.2 802.2,393.7 791.3,387.4 791.3,374.8 780.4,368.5 769.5,374.8
			758.6,368.5 758.6,355.9 747.7,349.6 736.8,355.9 725.9,349.6 715,355.9 704.1,349.6 693.2,355.9 682.3,349.6 671.4,355.9
			660.6,349.6 649.7,355.9 649.7,368.5 660.6,374.8 660.6,387.4 649.7,393.7 649.7,406.2 660.6,412.5 671.4,406.2 682.3,412.5
			682.3,425.1 693.2,431.4 704.1,425.1 715,431.4 725.9,425.1 736.8,431.4 747.7,425.1 758.6,431.4 769.5,425.1 780.4,431.4
			791.3,425.1 802.2,431.4 813,425.1 813,412.5 		"/>
		</g>
		<g id="XMLID_391_">
			<polygon
				id="XMLID_68_"
				class="st15"
				points="834.8,462.8 834.8,450.2 823.9,444 823.9,431.4 813,425.1 802.2,431.4 791.3,425.1
			780.4,431.4 769.5,425.1 758.6,431.4 747.7,425.1 736.8,431.4 725.9,425.1 715,431.4 704.1,425.1 693.2,431.4 693.2,444
			682.3,450.2 682.3,462.8 693.2,469.1 693.2,481.7 682.3,488 682.3,500.6 693.2,506.8 704.1,500.6 715,506.8 725.9,500.6
			736.8,506.8 747.7,500.6 758.6,506.8 769.5,500.6 780.4,506.8 791.3,500.6 802.2,506.8 813,500.6 823.9,506.8 834.8,500.6
			834.8,488 823.9,481.7 823.9,469.1 		"/>
			<polygon
				id="XMLID_67_"
				class="st1"
				points="834.8,462.8 834.8,450.2 823.9,444 823.9,431.4 813,425.1 802.2,431.4 791.3,425.1
			780.4,431.4 769.5,425.1 758.6,431.4 747.7,425.1 736.8,431.4 725.9,425.1 715,431.4 704.1,425.1 693.2,431.4 693.2,444
			682.3,450.2 682.3,462.8 693.2,469.1 693.2,481.7 682.3,488 682.3,500.6 693.2,506.8 704.1,500.6 715,506.8 725.9,500.6
			736.8,506.8 747.7,500.6 758.6,506.8 769.5,500.6 780.4,506.8 791.3,500.6 802.2,506.8 813,500.6 823.9,506.8 834.8,500.6
			834.8,488 823.9,481.7 823.9,469.1 		"/>
		</g>
		<g id="XMLID_387_">
			<polygon
				id="XMLID_66_"
				class="st16"
				points="834.8,538.3 834.8,525.7 823.9,519.4 823.9,506.8 813,500.6 802.2,506.8
			791.3,500.6 780.4,506.8 769.5,500.6 758.6,506.8 747.7,500.6 736.8,506.8 725.9,500.6 715,506.8 715,519.4 725.9,525.7
			725.9,538.3 736.8,544.6 736.8,557.1 747.7,563.4 747.7,576 758.6,582.3 769.5,576 780.4,582.3 791.3,576 802.2,582.3 813,576
			823.9,582.3 834.8,576 834.8,563.4 845.7,557.1 845.7,544.6 		"/>
			<polygon
				id="XMLID_65_"
				class="st1"
				points="834.8,538.3 834.8,525.7 823.9,519.4 823.9,506.8 813,500.6 802.2,506.8 791.3,500.6
			780.4,506.8 769.5,500.6 758.6,506.8 747.7,500.6 736.8,506.8 725.9,500.6 715,506.8 715,519.4 725.9,525.7 725.9,538.3
			736.8,544.6 736.8,557.1 747.7,563.4 747.7,576 758.6,582.3 769.5,576 780.4,582.3 791.3,576 802.2,582.3 813,576 823.9,582.3
			834.8,576 834.8,563.4 845.7,557.1 845.7,544.6 		"/>
		</g>
		<g id="XMLID_383_">
			<polygon
				id="XMLID_64_"
				class="st8"
				points="878.4,236.4 867.5,242.7 856.6,236.4 845.7,242.7 834.8,236.4 823.9,242.7 813,236.4
			813,223.9 802.2,217.6 791.3,223.9 780.4,217.6 769.5,223.9 769.5,236.4 780.4,242.7 780.4,255.3 791.3,261.6 791.3,274.2
			780.4,280.5 780.4,293 791.3,299.3 791.3,311.9 780.4,318.2 780.4,330.8 791.3,337.1 791.3,349.6 802.2,355.9 813,349.6
			823.9,355.9 834.8,349.6 845.7,355.9 856.6,349.6 867.5,355.9 878.4,349.6 878.4,337.1 867.5,330.8 856.6,337.1 845.7,330.8
			845.7,318.2 856.6,311.9 856.6,299.3 845.7,293 845.7,280.5 856.6,274.2 867.5,280.5 878.4,274.2 878.4,261.6 889.3,255.3
			889.3,242.7 		"/>
			<polygon
				id="XMLID_63_"
				class="st1"
				points="878.4,236.4 867.5,242.7 856.6,236.4 845.7,242.7 834.8,236.4 823.9,242.7 813,236.4
			813,223.9 802.2,217.6 791.3,223.9 780.4,217.6 769.5,223.9 769.5,236.4 780.4,242.7 780.4,255.3 791.3,261.6 791.3,274.2
			780.4,280.5 780.4,293 791.3,299.3 791.3,311.9 780.4,318.2 780.4,330.8 791.3,337.1 791.3,349.6 802.2,355.9 813,349.6
			823.9,355.9 834.8,349.6 845.7,355.9 856.6,349.6 867.5,355.9 878.4,349.6 878.4,337.1 867.5,330.8 856.6,337.1 845.7,330.8
			845.7,318.2 856.6,311.9 856.6,299.3 845.7,293 845.7,280.5 856.6,274.2 867.5,280.5 878.4,274.2 878.4,261.6 889.3,255.3
			889.3,242.7 		"/>
		</g>
		<g id="XMLID_379_">
			<polygon
				id="XMLID_62_"
				class="st17"
				points="889.3,368.5 889.3,355.9 878.4,349.6 867.5,355.9 856.6,349.6 845.7,355.9
			834.8,349.6 823.9,355.9 813,349.6 802.2,355.9 791.3,349.6 780.4,355.9 780.4,368.5 791.3,374.8 791.3,387.4 802.2,393.7
			802.2,406.2 813,412.5 813,425.1 823.9,431.4 834.8,425.1 845.7,431.4 856.6,425.1 867.5,431.4 878.4,425.1 878.4,412.5
			889.3,406.2 889.3,393.7 900.2,387.4 900.2,374.8 		"/>
			<polygon
				id="XMLID_61_"
				class="st1"
				points="889.3,368.5 889.3,355.9 878.4,349.6 867.5,355.9 856.6,349.6 845.7,355.9
			834.8,349.6 823.9,355.9 813,349.6 802.2,355.9 791.3,349.6 780.4,355.9 780.4,368.5 791.3,374.8 791.3,387.4 802.2,393.7
			802.2,406.2 813,412.5 813,425.1 823.9,431.4 834.8,425.1 845.7,431.4 856.6,425.1 867.5,431.4 878.4,425.1 878.4,412.5
			889.3,406.2 889.3,393.7 900.2,387.4 900.2,374.8 		"/>
		</g>
		<g id="XMLID_375_">
			<polygon
				id="XMLID_60_"
				class="st18"
				points="922,500.6 922,488 911.1,481.7 911.1,469.1 900.2,462.8 900.2,450.2 889.3,444
			889.3,431.4 878.4,425.1 867.5,431.4 856.6,425.1 845.7,431.4 834.8,425.1 823.9,431.4 823.9,444 834.8,450.2 834.8,462.8
			823.9,469.1 823.9,481.7 834.8,488 834.8,500.6 823.9,506.8 823.9,519.4 834.8,525.7 845.7,519.4 856.6,525.7 867.5,519.4
			878.4,525.7 889.3,519.4 900.2,525.7 911.1,519.4 922,525.7 932.9,519.4 932.9,506.8 		"/>
			<polygon
				id="XMLID_59_"
				class="st1"
				points="922,500.6 922,488 911.1,481.7 911.1,469.1 900.2,462.8 900.2,450.2 889.3,444
			889.3,431.4 878.4,425.1 867.5,431.4 856.6,425.1 845.7,431.4 834.8,425.1 823.9,431.4 823.9,444 834.8,450.2 834.8,462.8
			823.9,469.1 823.9,481.7 834.8,488 834.8,500.6 823.9,506.8 823.9,519.4 834.8,525.7 845.7,519.4 856.6,525.7 867.5,519.4
			878.4,525.7 889.3,519.4 900.2,525.7 911.1,519.4 922,525.7 932.9,519.4 932.9,506.8 		"/>
		</g>
		<g id="XMLID_371_">
			<polygon
				id="XMLID_58_"
				class="st19"
				points="911.1,519.4 900.2,525.7 889.3,519.4 878.4,525.7 867.5,519.4 856.6,525.7
			845.7,519.4 834.8,525.7 834.8,538.3 845.7,544.6 845.7,557.1 834.8,563.4 834.8,576 823.9,582.3 823.9,594.9 834.8,601.2
			845.7,594.9 856.6,601.2 867.5,594.9 878.4,601.2 889.3,594.9 889.3,582.3 900.2,576 900.2,563.4 911.1,557.1 911.1,544.6
			922,538.3 922,525.7 		"/>
			<polygon
				id="XMLID_57_"
				class="st1"
				points="911.1,519.4 900.2,525.7 889.3,519.4 878.4,525.7 867.5,519.4 856.6,525.7
			845.7,519.4 834.8,525.7 834.8,538.3 845.7,544.6 845.7,557.1 834.8,563.4 834.8,576 823.9,582.3 823.9,594.9 834.8,601.2
			845.7,594.9 856.6,601.2 867.5,594.9 878.4,601.2 889.3,594.9 889.3,582.3 900.2,576 900.2,563.4 911.1,557.1 911.1,544.6
			922,538.3 922,525.7 		"/>
		</g>
		<g id="XMLID_367_">
			<polygon
				id="XMLID_56_"
				class="st20"
				points="943.7,311.9 943.7,299.3 932.9,293 922,299.3 911.1,293 900.2,299.3 889.3,293
			889.3,280.5 878.4,274.2 867.5,280.5 856.6,274.2 845.7,280.5 845.7,293 856.6,299.3 856.6,311.9 845.7,318.2 845.7,330.8
			856.6,337.1 867.5,330.8 878.4,337.1 878.4,349.6 889.3,355.9 889.3,368.5 900.2,374.8 911.1,368.5 922,374.8 932.9,368.5
			932.9,355.9 943.7,349.6 943.7,337.1 954.6,330.8 954.6,318.2 		"/>
			<polygon
				id="XMLID_55_"
				class="st1"
				points="943.7,311.9 943.7,299.3 932.9,293 922,299.3 911.1,293 900.2,299.3 889.3,293
			889.3,280.5 878.4,274.2 867.5,280.5 856.6,274.2 845.7,280.5 845.7,293 856.6,299.3 856.6,311.9 845.7,318.2 845.7,330.8
			856.6,337.1 867.5,330.8 878.4,337.1 878.4,349.6 889.3,355.9 889.3,368.5 900.2,374.8 911.1,368.5 922,374.8 932.9,368.5
			932.9,355.9 943.7,349.6 943.7,337.1 954.6,330.8 954.6,318.2 		"/>
		</g>
		<g id="XMLID_363_">
			<polygon
				id="XMLID_54_"
				class="st21"
				points="932.9,670.3 932.9,657.8 922,651.5 911.1,657.8 900.2,651.5 900.2,638.9
			911.1,632.6 911.1,620 900.2,613.7 900.2,601.2 889.3,594.9 878.4,601.2 867.5,594.9 856.6,601.2 845.7,594.9 834.8,601.2
			834.8,613.7 845.7,620 845.7,632.6 856.6,638.9 856.6,651.5 845.7,657.8 845.7,670.3 856.6,676.6 867.5,670.3 878.4,676.6
			889.3,670.3 900.2,676.6 900.2,689.2 911.1,695.5 922,689.2 932.9,695.5 943.7,689.2 943.7,676.6 		"/>
			<polygon
				id="XMLID_53_"
				class="st1"
				points="932.9,670.3 932.9,657.8 922,651.5 911.1,657.8 900.2,651.5 900.2,638.9 911.1,632.6
			911.1,620 900.2,613.7 900.2,601.2 889.3,594.9 878.4,601.2 867.5,594.9 856.6,601.2 845.7,594.9 834.8,601.2 834.8,613.7
			845.7,620 845.7,632.6 856.6,638.9 856.6,651.5 845.7,657.8 845.7,670.3 856.6,676.6 867.5,670.3 878.4,676.6 889.3,670.3
			900.2,676.6 900.2,689.2 911.1,695.5 922,689.2 932.9,695.5 943.7,689.2 943.7,676.6 		"/>
		</g>
		<g id="XMLID_359_">
			<polygon
				id="XMLID_52_"
				class="st22"
				points="1030.9,349.6 1030.9,337.1 1020,330.8 1009.1,337.1 998.2,330.8 998.2,318.2
			1009.1,311.9 1009.1,299.3 998.2,293 998.2,280.5 987.3,274.2 976.4,280.5 965.5,274.2 954.6,280.5 943.7,274.2 932.9,280.5
			922,274.2 911.1,280.5 900.2,274.2 889.3,280.5 889.3,293 900.2,299.3 911.1,293 922,299.3 932.9,293 943.7,299.3 954.6,293
			965.5,299.3 976.4,293 987.3,299.3 987.3,311.9 976.4,318.2 965.5,311.9 954.6,318.2 954.6,330.8 965.5,337.1 965.5,349.6
			976.4,355.9 976.4,368.5 965.5,374.8 965.5,387.4 976.4,393.7 987.3,387.4 998.2,393.7 1009.1,387.4 1020,393.7 1030.9,387.4
			1030.9,374.8 1020,368.5 1020,355.9 		"/>
			<polygon
				id="XMLID_51_"
				class="st1"
				points="1030.9,349.6 1030.9,337.1 1020,330.8 1009.1,337.1 998.2,330.8 998.2,318.2
			1009.1,311.9 1009.1,299.3 998.2,293 998.2,280.5 987.3,274.2 976.4,280.5 965.5,274.2 954.6,280.5 943.7,274.2 932.9,280.5
			922,274.2 911.1,280.5 900.2,274.2 889.3,280.5 889.3,293 900.2,299.3 911.1,293 922,299.3 932.9,293 943.7,299.3 954.6,293
			965.5,299.3 976.4,293 987.3,299.3 987.3,311.9 976.4,318.2 965.5,311.9 954.6,318.2 954.6,330.8 965.5,337.1 965.5,349.6
			976.4,355.9 976.4,368.5 965.5,374.8 965.5,387.4 976.4,393.7 987.3,387.4 998.2,393.7 1009.1,387.4 1020,393.7 1030.9,387.4
			1030.9,374.8 1020,368.5 1020,355.9 		"/>
		</g>
		<g id="XMLID_355_">
			<polygon
				id="XMLID_50_"
				class="st4"
				points="954.6,444 954.6,431.4 943.7,425.1 943.7,412.5 954.6,406.2 954.6,393.7 943.7,387.4
			943.7,374.8 932.9,368.5 922,374.8 911.1,368.5 900.2,374.8 900.2,387.4 889.3,393.7 889.3,406.2 878.4,412.5 878.4,425.1
			889.3,431.4 889.3,444 900.2,450.2 900.2,462.8 911.1,469.1 911.1,481.7 922,488 922,500.6 932.9,506.8 943.7,500.6 943.7,488
			954.6,481.7 954.6,469.1 965.5,462.8 965.5,450.2 		"/>
			<polygon
				id="XMLID_49_"
				class="st1"
				points="954.6,444 954.6,431.4 943.7,425.1 943.7,412.5 954.6,406.2 954.6,393.7 943.7,387.4
			943.7,374.8 932.9,368.5 922,374.8 911.1,368.5 900.2,374.8 900.2,387.4 889.3,393.7 889.3,406.2 878.4,412.5 878.4,425.1
			889.3,431.4 889.3,444 900.2,450.2 900.2,462.8 911.1,469.1 911.1,481.7 922,488 922,500.6 932.9,506.8 943.7,500.6 943.7,488
			954.6,481.7 954.6,469.1 965.5,462.8 965.5,450.2 		"/>
		</g>
		<g id="XMLID_351_">
			<polygon
				id="XMLID_48_"
				class="st17"
				points="965.5,576 965.5,563.4 954.6,557.1 943.7,563.4 932.9,557.1 922,563.4 911.1,557.1
			900.2,563.4 900.2,576 889.3,582.3 889.3,594.9 900.2,601.2 900.2,613.7 911.1,620 911.1,632.6 900.2,638.9 900.2,651.5
			911.1,657.8 922,651.5 932.9,657.8 943.7,651.5 954.6,657.8 965.5,651.5 965.5,638.9 954.6,632.6 954.6,620 965.5,613.7
			965.5,601.2 954.6,594.9 954.6,582.3 		"/>
			<polygon
				id="XMLID_47_"
				class="st1"
				points="965.5,576 965.5,563.4 954.6,557.1 943.7,563.4 932.9,557.1 922,563.4 911.1,557.1
			900.2,563.4 900.2,576 889.3,582.3 889.3,594.9 900.2,601.2 900.2,613.7 911.1,620 911.1,632.6 900.2,638.9 900.2,651.5
			911.1,657.8 922,651.5 932.9,657.8 943.7,651.5 954.6,657.8 965.5,651.5 965.5,638.9 954.6,632.6 954.6,620 965.5,613.7
			965.5,601.2 954.6,594.9 954.6,582.3 		"/>
		</g>
		<g id="XMLID_347_">
			<polygon
				id="XMLID_46_"
				class="st23"
				points="1052.7,500.6 1041.8,506.8 1030.9,500.6 1020,506.8 1009.1,500.6 998.2,506.8
			987.3,500.6 976.4,506.8 976.4,519.4 965.5,525.7 954.6,519.4 943.7,525.7 932.9,519.4 922,525.7 922,538.3 911.1,544.6
			911.1,557.1 922,563.4 932.9,557.1 943.7,563.4 954.6,557.1 954.6,544.6 965.5,538.3 976.4,544.6 987.3,538.3 998.2,544.6
			1009.1,538.3 1020,544.6 1030.9,538.3 1030.9,525.7 1041.8,519.4 1052.7,525.7 1063.6,519.4 1063.6,506.8 		"/>
			<polygon
				id="XMLID_45_"
				class="st1"
				points="1052.7,500.6 1041.8,506.8 1030.9,500.6 1020,506.8 1009.1,500.6 998.2,506.8
			987.3,500.6 976.4,506.8 976.4,519.4 965.5,525.7 954.6,519.4 943.7,525.7 932.9,519.4 922,525.7 922,538.3 911.1,544.6
			911.1,557.1 922,563.4 932.9,557.1 943.7,563.4 954.6,557.1 954.6,544.6 965.5,538.3 976.4,544.6 987.3,538.3 998.2,544.6
			1009.1,538.3 1020,544.6 1030.9,538.3 1030.9,525.7 1041.8,519.4 1052.7,525.7 1063.6,519.4 1063.6,506.8 		"/>
		</g>
		<g id="XMLID_343_">
			<polygon
				id="XMLID_44_"
				class="st24"
				points="1052.7,462.8 1052.7,450.2 1041.8,444 1030.9,450.2 1030.9,462.8 1020,469.1
			1009.1,462.8 998.2,469.1 998.2,481.7 987.3,488 976.4,481.7 965.5,488 954.6,481.7 943.7,488 943.7,500.6 932.9,506.8
			932.9,519.4 943.7,525.7 954.6,519.4 965.5,525.7 976.4,519.4 976.4,506.8 987.3,500.6 998.2,506.8 1009.1,500.6 1020,506.8
			1030.9,500.6 1041.8,506.8 1052.7,500.6 1052.7,488 1063.6,481.7 1063.6,469.1 		"/>
			<polygon
				id="XMLID_43_"
				class="st1"
				points="1052.7,462.8 1052.7,450.2 1041.8,444 1030.9,450.2 1030.9,462.8 1020,469.1
			1009.1,462.8 998.2,469.1 998.2,481.7 987.3,488 976.4,481.7 965.5,488 954.6,481.7 943.7,488 943.7,500.6 932.9,506.8
			932.9,519.4 943.7,525.7 954.6,519.4 965.5,525.7 976.4,519.4 976.4,506.8 987.3,500.6 998.2,506.8 1009.1,500.6 1020,506.8
			1030.9,500.6 1041.8,506.8 1052.7,500.6 1052.7,488 1063.6,481.7 1063.6,469.1 		"/>
		</g>
		<g id="XMLID_339_">
			<polygon
				id="XMLID_42_"
				class="st25"
				points="1009.1,425.1 1009.1,412.5 998.2,406.2 998.2,393.7 987.3,387.4 976.4,393.7
			965.5,387.4 954.6,393.7 954.6,406.2 943.7,412.5 943.7,425.1 954.6,431.4 954.6,444 965.5,450.2 965.5,462.8 954.6,469.1
			954.6,481.7 965.5,488 976.4,481.7 987.3,488 998.2,481.7 998.2,469.1 1009.1,462.8 1009.1,450.2 998.2,444 998.2,431.4 		"/>
			<polygon
				id="XMLID_41_"
				class="st1"
				points="1009.1,425.1 1009.1,412.5 998.2,406.2 998.2,393.7 987.3,387.4 976.4,393.7
			965.5,387.4 954.6,393.7 954.6,406.2 943.7,412.5 943.7,425.1 954.6,431.4 954.6,444 965.5,450.2 965.5,462.8 954.6,469.1
			954.6,481.7 965.5,488 976.4,481.7 987.3,488 998.2,481.7 998.2,469.1 1009.1,462.8 1009.1,450.2 998.2,444 998.2,431.4 		"/>
		</g>
		<g id="XMLID_335_">
			<polygon
				id="XMLID_40_"
				class="st9"
				points="1020,594.9 1020,582.3 1009.1,576 1009.1,563.4 998.2,557.1 998.2,544.6 987.3,538.3
			976.4,544.6 965.5,538.3 954.6,544.6 954.6,557.1 965.5,563.4 965.5,576 954.6,582.3 954.6,594.9 965.5,601.2 965.5,613.7
			954.6,620 954.6,632.6 965.5,638.9 976.4,632.6 987.3,638.9 998.2,632.6 1009.1,638.9 1020,632.6 1020,620 1030.9,613.7
			1030.9,601.2 		"/>
			<polygon
				id="XMLID_39_"
				class="st1"
				points="1020,594.9 1020,582.3 1009.1,576 1009.1,563.4 998.2,557.1 998.2,544.6 987.3,538.3
			976.4,544.6 965.5,538.3 954.6,544.6 954.6,557.1 965.5,563.4 965.5,576 954.6,582.3 954.6,594.9 965.5,601.2 965.5,613.7
			954.6,620 954.6,632.6 965.5,638.9 976.4,632.6 987.3,638.9 998.2,632.6 1009.1,638.9 1020,632.6 1020,620 1030.9,613.7
			1030.9,601.2 		"/>
		</g>
		<g id="XMLID_331_">
			<polygon
				id="XMLID_38_"
				class="st26"
				points="1150.7,745.8 1150.7,733.2 1139.8,726.9 1139.8,714.4 1128.9,708.1 1128.9,695.5
			1118,689.2 1118,676.6 1107.1,670.3 1107.1,657.8 1096.2,651.5 1085.3,657.8 1074.4,651.5 1063.6,657.8 1052.7,651.5
			1041.8,657.8 1030.9,651.5 1030.9,638.9 1020,632.6 1009.1,638.9 998.2,632.6 987.3,638.9 976.4,632.6 965.5,638.9 965.5,651.5
			976.4,657.8 987.3,651.5 998.2,657.8 1009.1,651.5 1020,657.8 1020,670.3 1030.9,676.6 1041.8,670.3 1052.7,676.6 1063.6,670.3
			1074.4,676.6 1074.4,689.2 1085.3,695.5 1085.3,708.1 1096.2,714.4 1096.2,726.9 1107.1,733.2 1107.1,745.8 1118,752.1
			1118,764.7 1128.9,771 1128.9,783.5 1139.8,789.8 1150.7,783.5 1150.7,771 1139.8,764.7 1139.8,752.1 		"/>
			<polygon
				id="XMLID_37_"
				class="st1"
				points="1150.7,745.8 1150.7,733.2 1139.8,726.9 1139.8,714.4 1128.9,708.1 1128.9,695.5
			1118,689.2 1118,676.6 1107.1,670.3 1107.1,657.8 1096.2,651.5 1085.3,657.8 1074.4,651.5 1063.6,657.8 1052.7,651.5
			1041.8,657.8 1030.9,651.5 1030.9,638.9 1020,632.6 1009.1,638.9 998.2,632.6 987.3,638.9 976.4,632.6 965.5,638.9 965.5,651.5
			976.4,657.8 987.3,651.5 998.2,657.8 1009.1,651.5 1020,657.8 1020,670.3 1030.9,676.6 1041.8,670.3 1052.7,676.6 1063.6,670.3
			1074.4,676.6 1074.4,689.2 1085.3,695.5 1085.3,708.1 1096.2,714.4 1096.2,726.9 1107.1,733.2 1107.1,745.8 1118,752.1
			1118,764.7 1128.9,771 1128.9,783.5 1139.8,789.8 1150.7,783.5 1150.7,771 1139.8,764.7 1139.8,752.1 		"/>
		</g>
		<g id="XMLID_327_">
			<polygon
				id="XMLID_36_"
				class="st27"
				points="1074.4,387.4 1074.4,374.8 1063.6,368.5 1052.7,374.8 1052.7,387.4 1041.8,393.7
			1030.9,387.4 1020,393.7 1009.1,387.4 998.2,393.7 998.2,406.2 1009.1,412.5 1009.1,425.1 998.2,431.4 998.2,444 1009.1,450.2
			1009.1,462.8 1020,469.1 1030.9,462.8 1030.9,450.2 1041.8,444 1052.7,450.2 1063.6,444 1063.6,431.4 1074.4,425.1 1074.4,412.5
			1085.3,406.2 1085.3,393.7 		"/>
			<polygon
				id="XMLID_35_"
				class="st1"
				points="1074.4,387.4 1074.4,374.8 1063.6,368.5 1052.7,374.8 1052.7,387.4 1041.8,393.7
			1030.9,387.4 1020,393.7 1009.1,387.4 998.2,393.7 998.2,406.2 1009.1,412.5 1009.1,425.1 998.2,431.4 998.2,444 1009.1,450.2
			1009.1,462.8 1020,469.1 1030.9,462.8 1030.9,450.2 1041.8,444 1052.7,450.2 1063.6,444 1063.6,431.4 1074.4,425.1 1074.4,412.5
			1085.3,406.2 1085.3,393.7 		"/>
		</g>
		<g id="XMLID_323_">
			<polygon
				id="XMLID_34_"
				class="st6"
				points="1096.2,613.7 1096.2,601.2 1085.3,594.9 1085.3,582.3 1074.4,576 1074.4,563.4
			1063.6,557.1 1052.7,563.4 1041.8,557.1 1041.8,544.6 1030.9,538.3 1020,544.6 1009.1,538.3 998.2,544.6 998.2,557.1
			1009.1,563.4 1009.1,576 1020,582.3 1020,594.9 1030.9,601.2 1030.9,613.7 1020,620 1020,632.6 1030.9,638.9 1030.9,651.5
			1041.8,657.8 1052.7,651.5 1063.6,657.8 1074.4,651.5 1085.3,657.8 1096.2,651.5 1096.2,638.9 1085.3,632.6 1085.3,620 		"/>
			<polygon
				id="XMLID_33_"
				class="st1"
				points="1096.2,613.7 1096.2,601.2 1085.3,594.9 1085.3,582.3 1074.4,576 1074.4,563.4
			1063.6,557.1 1052.7,563.4 1041.8,557.1 1041.8,544.6 1030.9,538.3 1020,544.6 1009.1,538.3 998.2,544.6 998.2,557.1
			1009.1,563.4 1009.1,576 1020,582.3 1020,594.9 1030.9,601.2 1030.9,613.7 1020,620 1020,632.6 1030.9,638.9 1030.9,651.5
			1041.8,657.8 1052.7,651.5 1063.6,657.8 1074.4,651.5 1085.3,657.8 1096.2,651.5 1096.2,638.9 1085.3,632.6 1085.3,620 		"/>
		</g>
		<g id="XMLID_319_">
			<polygon
				id="XMLID_32_"
				class="st28"
				points="1172.5,481.7 1161.6,488 1150.7,481.7 1139.8,488 1128.9,481.7 1118,488 1118,500.6
			1107.1,506.8 1096.2,500.6 1085.3,506.8 1074.4,500.6 1063.6,506.8 1063.6,519.4 1052.7,525.7 1041.8,519.4 1030.9,525.7
			1030.9,538.3 1041.8,544.6 1052.7,538.3 1063.6,544.6 1074.4,538.3 1085.3,544.6 1096.2,538.3 1107.1,544.6 1118,538.3
			1128.9,544.6 1128.9,557.1 1139.8,563.4 1150.7,557.1 1150.7,544.6 1161.6,538.3 1161.6,525.7 1172.5,519.4 1172.5,506.8
			1183.4,500.6 1183.4,488 		"/>
			<polygon
				id="XMLID_31_"
				class="st1"
				points="1172.5,481.7 1161.6,488 1150.7,481.7 1139.8,488 1128.9,481.7 1118,488 1118,500.6
			1107.1,506.8 1096.2,500.6 1085.3,506.8 1074.4,500.6 1063.6,506.8 1063.6,519.4 1052.7,525.7 1041.8,519.4 1030.9,525.7
			1030.9,538.3 1041.8,544.6 1052.7,538.3 1063.6,544.6 1074.4,538.3 1085.3,544.6 1096.2,538.3 1107.1,544.6 1118,538.3
			1128.9,544.6 1128.9,557.1 1139.8,563.4 1150.7,557.1 1150.7,544.6 1161.6,538.3 1161.6,525.7 1172.5,519.4 1172.5,506.8
			1183.4,500.6 1183.4,488 		"/>
		</g>
		<g id="XMLID_315_">
			<polygon
				id="XMLID_30_"
				class="st29"
				points="1128.9,557.1 1128.9,544.6 1118,538.3 1107.1,544.6 1096.2,538.3 1085.3,544.6
			1074.4,538.3 1063.6,544.6 1052.7,538.3 1041.8,544.6 1041.8,557.1 1052.7,563.4 1063.6,557.1 1074.4,563.4 1074.4,576
			1085.3,582.3 1085.3,594.9 1096.2,601.2 1107.1,594.9 1107.1,582.3 1118,576 1128.9,582.3 1139.8,576 1139.8,563.4 		"/>
			<polygon
				id="XMLID_29_"
				class="st1"
				points="1128.9,557.1 1128.9,544.6 1118,538.3 1107.1,544.6 1096.2,538.3 1085.3,544.6
			1074.4,538.3 1063.6,544.6 1052.7,538.3 1041.8,544.6 1041.8,557.1 1052.7,563.4 1063.6,557.1 1074.4,563.4 1074.4,576
			1085.3,582.3 1085.3,594.9 1096.2,601.2 1107.1,594.9 1107.1,582.3 1118,576 1128.9,582.3 1139.8,576 1139.8,563.4 		"/>
		</g>
		<g id="XMLID_311_">
			<polygon
				id="XMLID_28_"
				class="st30"
				points="1118,425.1 1107.1,431.4 1096.2,425.1 1085.3,431.4 1074.4,425.1 1063.6,431.4
			1063.6,444 1052.7,450.2 1052.7,462.8 1063.6,469.1 1063.6,481.7 1074.4,488 1085.3,481.7 1096.2,488 1107.1,481.7 1107.1,469.1
			1096.2,462.8 1096.2,450.2 1107.1,444 1118,450.2 1128.9,444 1128.9,431.4 		"/>
			<polygon
				id="XMLID_27_"
				class="st1"
				points="1118,425.1 1107.1,431.4 1096.2,425.1 1085.3,431.4 1074.4,425.1 1063.6,431.4
			1063.6,444 1052.7,450.2 1052.7,462.8 1063.6,469.1 1063.6,481.7 1074.4,488 1085.3,481.7 1096.2,488 1107.1,481.7 1107.1,469.1
			1096.2,462.8 1096.2,450.2 1107.1,444 1118,450.2 1128.9,444 1128.9,431.4 		"/>
		</g>
		<g id="XMLID_307_">
			<polygon
				id="XMLID_26_"
				class="st31"
				points="1172.5,444 1161.6,450.2 1150.7,444 1150.7,431.4 1139.8,425.1 1128.9,431.4
			1128.9,444 1118,450.2 1107.1,444 1096.2,450.2 1096.2,462.8 1107.1,469.1 1107.1,481.7 1096.2,488 1085.3,481.7 1074.4,488
			1063.6,481.7 1052.7,488 1052.7,500.6 1063.6,506.8 1074.4,500.6 1085.3,506.8 1096.2,500.6 1107.1,506.8 1118,500.6 1118,488
			1128.9,481.7 1139.8,488 1150.7,481.7 1161.6,488 1172.5,481.7 1172.5,469.1 1183.4,462.8 1183.4,450.2 		"/>
			<polygon
				id="XMLID_25_"
				class="st1"
				points="1172.5,444 1161.6,450.2 1150.7,444 1150.7,431.4 1139.8,425.1 1128.9,431.4
			1128.9,444 1118,450.2 1107.1,444 1096.2,450.2 1096.2,462.8 1107.1,469.1 1107.1,481.7 1096.2,488 1085.3,481.7 1074.4,488
			1063.6,481.7 1052.7,488 1052.7,500.6 1063.6,506.8 1074.4,500.6 1085.3,506.8 1096.2,500.6 1107.1,506.8 1118,500.6 1118,488
			1128.9,481.7 1139.8,488 1150.7,481.7 1161.6,488 1172.5,481.7 1172.5,469.1 1183.4,462.8 1183.4,450.2 		"/>
		</g>
		<g id="XMLID_303_">
			<polygon
				id="XMLID_24_"
				class="st28"
				points="1194.3,330.8 1194.3,318.2 1183.4,311.9 1183.4,299.3 1194.3,293 1194.3,280.5
			1183.4,274.2 1172.5,280.5 1161.6,274.2 1150.7,280.5 1150.7,293 1139.8,299.3 1139.8,311.9 1150.7,318.2 1150.7,330.8
			1139.8,337.1 1128.9,330.8 1118,337.1 1107.1,330.8 1096.2,337.1 1096.2,349.6 1085.3,355.9 1085.3,368.5 1096.2,374.8
			1107.1,368.5 1118,374.8 1128.9,368.5 1128.9,355.9 1139.8,349.6 1150.7,355.9 1161.6,349.6 1172.5,355.9 1172.5,368.5
			1183.4,374.8 1194.3,368.5 1194.3,355.9 1205.1,349.6 1205.1,337.1 		"/>
			<polygon
				id="XMLID_23_"
				class="st1"
				points="1194.3,330.8 1194.3,318.2 1183.4,311.9 1183.4,299.3 1194.3,293 1194.3,280.5
			1183.4,274.2 1172.5,280.5 1161.6,274.2 1150.7,280.5 1150.7,293 1139.8,299.3 1139.8,311.9 1150.7,318.2 1150.7,330.8
			1139.8,337.1 1128.9,330.8 1118,337.1 1107.1,330.8 1096.2,337.1 1096.2,349.6 1085.3,355.9 1085.3,368.5 1096.2,374.8
			1107.1,368.5 1118,374.8 1128.9,368.5 1128.9,355.9 1139.8,349.6 1150.7,355.9 1161.6,349.6 1172.5,355.9 1172.5,368.5
			1183.4,374.8 1194.3,368.5 1194.3,355.9 1205.1,349.6 1205.1,337.1 		"/>
		</g>
		<g id="NEW_JERSEY_2_">
			<polygon id="XMLID_22_" class="st29" points="1172.5,393.7 1183.4,387.4 1194.3,393.7 1194.3,406.2 1183.4,412.5 1172.5,406.2
			"/>
		</g>
		<g id="DELAWARE_2_">
			<polygon id="XMLID_21_" class="st32" points="1161.6,412.5 1172.5,406.2 1183.4,412.5 1183.4,425.1 1172.5,431.4 1161.6,425.1
			"/>
		</g>
		<g id="XMLID_291_">
			<polygon id="XMLID_20_" class="st33" points="1216,255.3 1205.1,261.6 1205.1,274.2 1194.3,280.5 1194.3,293 1183.4,299.3
			1183.4,311.9 1194.3,318.2 1205.1,311.9 1205.1,299.3 1216,293 1216,280.5 1226.9,274.2 1226.9,261.6 		"/>
			<polygon id="XMLID_19_" class="st1" points="1216,255.3 1205.1,261.6 1205.1,274.2 1194.3,280.5 1194.3,293 1183.4,299.3
			1183.4,311.9 1194.3,318.2 1205.1,311.9 1205.1,299.3 1216,293 1216,280.5 1226.9,274.2 1226.9,261.6 		"/>
		</g>
		<g id="XMLID_287_">
			<polygon id="XMLID_18_" class="st34" points="1226.9,311.9 1216,318.2 1205.1,311.9 1194.3,318.2 1194.3,330.8 1205.1,337.1
			1216,330.8 1226.9,337.1 1237.8,330.8 1237.8,318.2 		"/>
			<polygon id="XMLID_17_" class="st1" points="1226.9,311.9 1216,318.2 1205.1,311.9 1194.3,318.2 1194.3,330.8 1205.1,337.1
			1216,330.8 1226.9,337.1 1237.8,330.8 1237.8,318.2 		"/>
		</g>
		<g id="XMLID_283_">
			<polygon id="XMLID_16_" class="st35" points="1237.8,293 1237.8,280.5 1226.9,274.2 1216,280.5 1216,293 1205.1,299.3
			1205.1,311.9 1216,318.2 1226.9,311.9 1237.8,318.2 1248.7,311.9 1248.7,299.3 		"/>
			<polygon id="XMLID_15_" class="st1" points="1237.8,293 1237.8,280.5 1226.9,274.2 1216,280.5 1216,293 1205.1,299.3
			1205.1,311.9 1216,318.2 1226.9,311.9 1237.8,318.2 1248.7,311.9 1248.7,299.3 		"/>
		</g>
		<g id="XMLID_279_">
			<polygon id="XMLID_14_" class="st36" points="1216,330.8 1205.1,337.1 1205.1,349.6 1216,355.9 1226.9,349.6 1226.9,337.1 		"/>
			<polygon id="XMLID_13_" class="st1" points="1216,330.8 1205.1,337.1 1205.1,349.6 1216,355.9 1226.9,349.6 1226.9,337.1 		"/>
		</g>
		<g id="XMLID_275_">
			<polygon id="XMLID_12_" class="st37" points="1226.9,349.6 1216,355.9 1216,368.5 1226.9,374.8 1237.8,368.5 1237.8,355.9 		"/>
			<polygon id="XMLID_11_" class="st1" points="1226.9,349.6 1216,355.9 1216,368.5 1226.9,374.8 1237.8,368.5 1237.8,355.9 		"/>
		</g>
		<g id="XMLID_271_">
			<polygon
				id="XMLID_10_"
				class="st38"
				points="1270.5,236.4 1270.5,223.9 1259.6,217.6 1259.6,205 1248.7,198.7 1237.8,205
			1237.8,217.6 1226.9,223.9 1226.9,236.4 1237.8,242.7 1237.8,255.3 1226.9,261.6 1226.9,274.2 1237.8,280.5 1248.7,274.2
			1259.6,280.5 1270.5,274.2 1270.5,261.6 1281.4,255.3 1281.4,242.7 		"/>
			<polygon
				id="XMLID_9_"
				class="st1"
				points="1270.5,236.4 1270.5,223.9 1259.6,217.6 1259.6,205 1248.7,198.7 1237.8,205
			1237.8,217.6 1226.9,223.9 1226.9,236.4 1237.8,242.7 1237.8,255.3 1226.9,261.6 1226.9,274.2 1237.8,280.5 1248.7,274.2
			1259.6,280.5 1270.5,274.2 1270.5,261.6 1281.4,255.3 1281.4,242.7 		"/>
		</g>
		<g id="XMLID_267_">
			<polygon
				id="XMLID_8_"
				class="st39"
				points="1172.5,368.5 1172.5,355.9 1161.6,349.6 1150.7,355.9 1139.8,349.6 1128.9,355.9
			1128.9,368.5 1118,374.8 1107.1,368.5 1096.2,374.8 1085.3,368.5 1074.4,374.8 1074.4,387.4 1085.3,393.7 1085.3,406.2
			1074.4,412.5 1074.4,425.1 1085.3,431.4 1096.2,425.1 1107.1,431.4 1118,425.1 1118,412.5 1128.9,406.2 1139.8,412.5
			1150.7,406.2 1161.6,412.5 1172.5,406.2 1172.5,393.7 1183.4,387.4 1183.4,374.8 		"/>
			<polygon
				id="XMLID_7_"
				class="st1"
				points="1172.5,368.5 1172.5,355.9 1161.6,349.6 1150.7,355.9 1139.8,349.6 1128.9,355.9
			1128.9,368.5 1118,374.8 1107.1,368.5 1096.2,374.8 1085.3,368.5 1074.4,374.8 1074.4,387.4 1085.3,393.7 1085.3,406.2
			1074.4,412.5 1074.4,425.1 1085.3,431.4 1096.2,425.1 1107.1,431.4 1118,425.1 1118,412.5 1128.9,406.2 1139.8,412.5
			1150.7,406.2 1161.6,412.5 1172.5,406.2 1172.5,393.7 1183.4,387.4 1183.4,374.8 		"/>
		</g>
		<g id="XMLID_263_">
			<polygon id="XMLID_6_" class="st40" points="1161.6,425.1 1161.6,412.5 1150.7,406.2 1139.8,412.5 1128.9,406.2 1118,412.5
			1118,425.1 1128.9,431.4 1139.8,425.1 1150.7,431.4 1150.7,444 1161.6,450.2 1172.5,444 1172.5,431.4 		"/>
			<polygon id="XMLID_5_" class="st1" points="1161.6,425.1 1161.6,412.5 1150.7,406.2 1139.8,412.5 1128.9,406.2 1118,412.5
			1118,425.1 1128.9,431.4 1139.8,425.1 1150.7,431.4 1150.7,444 1161.6,450.2 1172.5,444 1172.5,431.4 		"/>
		</g>
		<line id="XMLID_212_" class="st41" x1="564.7" y1="776.8" x2="616.2" y2="776.6"/>
		<line id="XMLID_211_" class="st41" x1="1216" y1="343.4" x2="1299.9" y2="343.3"/>
		<line id="XMLID_210_" class="st41" x1="1215.9" y1="204.3" x2="1216" y2="269.2"/>
		<line id="XMLID_209_" class="st41" x1="1161.9" y1="438.4" x2="1226.9" y2="438.2"/>
		<line id="XMLID_208_" class="st41" x1="1226.9" y1="362.3" x2="1270.9" y2="362.1"/>
		<line id="XMLID_207_" class="st41" x1="1226.9" y1="324.6" x2="1266.4" y2="324.4"/>
		<line id="XMLID_206_" class="st41" x1="1226.9" y1="300.4" x2="1270.9" y2="300.2"/>
		<line id="XMLID_205_" class="st41" x1="1183.2" y1="400" x2="1233" y2="399.9"/>
		<line id="XMLID_204_" class="st41" x1="1172.5" y1="418.9" x2="1198" y2="418.7"/>
		<g id="XMLID_431_">
			<polygon
				id="XMLID_4_"
				class="st42"
				points="660.6,236.4 660.6,223.9 649.7,217.6 638.8,223.9 627.9,217.6 617,223.9 606.1,217.6
			606.1,205 595.2,198.7 584.3,205 573.4,198.7 562.5,205 551.6,198.7 540.7,205 529.9,198.7 519,205 508.1,198.7 508.1,186.1
			497.2,179.8 486.3,186.1 475.4,179.8 464.5,186.1 464.5,198.7 453.6,205 453.6,217.6 464.5,223.9 464.5,236.4 475.4,242.7
			475.4,255.3 486.3,261.6 486.3,274.2 497.2,280.5 497.2,293 508.1,299.3 519,293 529.9,299.3 540.7,293 551.6,299.3 562.5,293
			573.4,299.3 584.3,293 595.2,299.3 606.1,293 617,299.3 627.9,293 638.8,299.3 638.8,311.9 649.7,318.2 660.6,311.9 660.6,299.3
			649.7,293 649.7,280.5 660.6,274.2 660.6,261.6 671.4,255.3 671.4,242.7 		"/>
			<polygon
				id="XMLID_3_"
				class="st1"
				points="660.6,236.4 660.6,223.9 649.7,217.6 638.8,223.9 627.9,217.6 617,223.9 606.1,217.6
			606.1,205 595.2,198.7 584.3,205 573.4,198.7 562.5,205 551.6,198.7 540.7,205 529.9,198.7 519,205 508.1,198.7 508.1,186.1
			497.2,179.8 486.3,186.1 475.4,179.8 464.5,186.1 464.5,198.7 453.6,205 453.6,217.6 464.5,223.9 464.5,236.4 475.4,242.7
			475.4,255.3 486.3,261.6 486.3,274.2 497.2,280.5 497.2,293 508.1,299.3 519,293 529.9,299.3 540.7,293 551.6,299.3 562.5,293
			573.4,299.3 584.3,293 595.2,299.3 606.1,293 617,299.3 627.9,293 638.8,299.3 638.8,311.9 649.7,318.2 660.6,311.9 660.6,299.3
			649.7,293 649.7,280.5 660.6,274.2 660.6,261.6 671.4,255.3 671.4,242.7 		"/>
		</g>
		<polygon
			id="XMLID_2_"
			class="st43"
			points="310.6,770.4 321.1,764.3 331.6,770.4 342,764.3 352.5,770.4 363,764.3 363,752.2
		373.4,746.2 373.4,734.1 383.9,728.1 394.4,734.1 394.4,746.2 404.8,752.2 415.3,746.2 425.8,752.2 425.8,764.3 436.2,770.4
		436.2,782.5 446.7,788.5 457.2,782.5 467.6,788.5 478.1,782.5 478.1,770.4 467.6,764.3 467.6,752.2 457.2,746.2 446.7,752.2
		436.2,746.2 436.2,734.1 425.8,728.1 425.8,716 415.3,709.9 415.3,697.9 425.8,691.8 425.8,679.7 415.3,673.7 415.3,661.6
		425.8,655.6 425.8,643.5 415.3,637.4 404.8,643.5 394.4,637.4 394.4,625.3 383.9,619.3 373.4,625.3 363,619.3 352.5,625.3
		342,619.3 331.6,625.3 331.6,637.4 321.1,643.5 321.1,655.6 310.6,661.6 310.6,673.7 321.1,679.7 321.1,691.8 310.6,697.9
		300.2,691.8 289.7,697.9 289.7,709.9 300.2,716 300.2,728.1 310.6,734.1 310.6,746.2 300.2,752.2 300.2,763.9 289.7,770 289.7,782
		300.2,788.1 310.6,782 	"/>
		<g id="HAWAII_1_" class="st44">
			<polygon id="XMLID_137_" class="st45" points="606.1,771 617,764.7 627.9,771 627.9,783.5 617,789.8 606.1,783.5 		"/>
		</g>
		<polygon id="XMLID_1032_" class="st46" points="1237.8,355.9 1226.9,349.6 1216,355.9 1216,368.5 1226.9,374.8 1237.8,368.5 	"/>
		<path
			id="XMLID_1035_"
			class="st46"
			d="M1172.5,431.4l-10.9-6.3L1172.5,431.4l10.9-6.3v-12.6l10.9-6.3v-12.6l-10.9-6.3v-12.6
		l10.9-6.3v-12.6l10.9-6.3l10.9,6.3l10.9-6.3v-12.6l10.9-6.3v-12.6l10.9-6.3v-12.6l-10.9-6.3v-12.6l10.9-6.3l10.9,6.3l10.9-6.3
		v-12.6l10.9-6.3v-12.6l-10.9-6.3v-12.6l-10.9-6.3V205l-10.9-6.3l-10.9,6.3v12.6l-10.9,6.3v12.6l10.9,6.3v12.6l-10.9,6.3l-10.9-6.3
		l-10.9,6.3v12.6l-10.9,6.3l-10.9-6.3l-10.9,6.3l-10.9-6.3l-10.9,6.3V293l-10.9,6.3v12.6l10.9,6.3v12.6l-10.9,6.3l-10.9-6.3
		l-10.9,6.3l-10.9-6.3l-10.9,6.3v12.6l-10.9,6.3v12.6l-10.9,6.3l-10.9-6.3l-10.9,6.3v12.6l-10.9,6.3l-10.9-6.3v-12.6l-10.9-6.3
		v-12.6l10.9-6.3v-12.6l-10.9-6.3l-10.9,6.3l-10.9-6.3v-12.6l10.9-6.3v-12.6l-10.9-6.3v-12.6l-10.9-6.3l-10.9,6.3l-10.9-6.3
		l-10.9,6.3l-10.9-6.3l-10.9,6.3l-10.9-6.3l-10.9,6.3l-10.9-6.3l-10.9,6.3l-10.9-6.3v-12.6l10.9-6.3v-12.6l-10.9-6.3l-10.9,6.3
		l-10.9-6.3l-10.9,6.3l-10.9-6.3l-10.9,6.3l-10.9-6.3v-12.6l-10.9-6.3l-10.9,6.3l-10.9-6.3l-10.9,6.3l-10.9-6.3l-10.9,6.3l-10.9-6.3
		l-10.9,6.3l-10.9-6.3l-10.9,6.3l-10.9-6.3l-10.9,6.3l-10.9-6.3l-10.9,6.3l-10.9-6.3l-10.9,6.3l-10.9-6.3l-10.9,6.3l-10.9-6.3V205
		l-10.9-6.3l-10.9,6.3l-10.9-6.3l-10.9,6.3l-10.9-6.3l-10.9,6.3l-10.9-6.3L519,205l-10.9-6.3v-12.6l-10.9-6.3l-10.9,6.3l-10.9-6.3
		l-10.9,6.3l-10.9-6.3l-10.9,6.3l-10.9-6.3v-12.6l-10.9-6.3l-10.9,6.3l-10.9-6.3l-10.9,6.3l-10.9-6.3l-10.9,6.3v12.6l-10.9,6.3
		l-10.9-6.3v-12.6l-10.9-6.3l-10.9,6.3v12.6l-10.9,6.3v12.6l10.9,6.3v12.6l-10.9,6.3v12.6l-10.9,6.3v12.6l-10.9,6.3v12.6l-10.9,6.3
		V293l10.9,6.3v12.6l-10.9,6.3v12.6l-10.9,6.3v12.6l10.9,6.3v12.6l-10.9,6.3v12.6l10.9,6.3v12.6l10.9,6.3v12.6l10.9,6.3V444
		l-10.9,6.3v12.6l10.9,6.3l10.9-6.3l10.9,6.3v12.6l10.9,6.3l10.9-6.3l10.9,6.3v12.6l10.9,6.3v12.6l10.9,6.3l10.9-6.3l10.9,6.3
		l10.9-6.3l10.9,6.3l10.9-6.3l10.9,6.3v12.6l10.9,6.3l10.9-6.3l10.9,6.3v12.6l10.9,6.3V576l10.9,6.3l10.9-6.3l10.9,6.3v12.6
		l10.9,6.3l10.9-6.3l10.9,6.3v12.6l10.9,6.3l10.9-6.3v-12.6l10.9-6.3l10.9,6.3v12.6l10.9,6.3l10.9-6.3l10.9,6.3v12.6l10.9,6.3v12.6
		l10.9,6.3v12.6l10.9,6.3v12.6l10.9,6.3l10.9-6.3v-12.6l10.9-6.3l10.9,6.3v12.6l10.9,6.3v12.6l10.9,6.3v12.6l10.9,6.3v12.6l10.9,6.3
		v12.6l10.9,6.3v12.6l10.9,6.3l10.9-6.3V771l-10.9-6.3v-12.6l10.9-6.3v-12.6l10.9-6.3v-12.6l10.9-6.3l10.9,6.3l10.9-6.3v-12.6
		l10.9-6.3v-12.6l10.9-6.3l10.9,6.3l10.9-6.3l10.9,6.3l10.9-6.3l10.9,6.3v12.6l10.9,6.3l10.9-6.3l10.9,6.3l10.9-6.3v-12.6l-10.9-6.3
		v-12.6l10.9-6.3l10.9,6.3l10.9-6.3l10.9,6.3l10.9-6.3l10.9,6.3l10.9-6.3l10.9,6.3v12.6l10.9,6.3l10.9-6.3l10.9,6.3l10.9-6.3
		l10.9,6.3v12.6l10.9,6.3v12.6l10.9,6.3v12.6l10.9,6.3v12.6l10.9,6.3v12.6l10.9,6.3v12.6l10.9,6.3l10.9-6.3V771l-10.9-6.3v-12.6
		l10.9-6.3v-12.6l-10.9-6.3v-12.6l-10.9-6.3v-12.6l-10.9-6.3v-12.6l-10.9-6.3v-12.6l-10.9-6.3v-12.6l-10.9-6.3V620l10.9-6.3v-12.6
		l10.9-6.3v-12.6l10.9-6.3l10.9,6.3l10.9-6.3v-12.6l10.9-6.3v-12.6l10.9-6.3v-12.6l10.9-6.3v-12.6l10.9-6.3V488l-10.9-6.3v-12.6
		l10.9-6.3v-12.6l-10.9-6.3V431.4z M932.9,355.9l10.9-6.3v-12.6l10.9-6.3l10.9,6.3v12.6l10.9,6.3v12.6l-10.9,6.3v12.6l-10.9,6.3
		l-10.9-6.3v-12.6l-10.9-6.3V355.9z M954.6,293l10.9,6.3l10.9-6.3l10.9,6.3v12.6l-10.9,6.3l-10.9-6.3l-10.9,6.3l-10.9-6.3v-12.6
		L954.6,293z"/>
		<polygon
			id="XMLID_1_"
			class="st46"
			points="310.6,770.4 321.1,764.3 331.6,770.4 342,764.3 352.5,770.4 363,764.3 363,752.2
		373.4,746.2 373.4,734.1 383.9,728.1 394.4,734.1 394.4,746.2 404.8,752.2 415.3,746.2 425.8,752.2 425.8,764.3 436.2,770.4
		436.2,782.5 446.7,788.5 457.2,782.5 467.6,788.5 478.1,782.5 478.1,770.4 467.6,764.3 467.6,752.2 457.2,746.2 446.7,752.2
		436.2,746.2 436.2,734.1 425.8,728.1 425.8,716 415.3,709.9 415.3,697.9 425.8,691.8 425.8,679.7 415.3,673.7 415.3,661.6
		425.8,655.6 425.8,643.5 415.3,637.4 404.8,643.5 394.4,637.4 394.4,625.3 383.9,619.3 373.4,625.3 363,619.3 352.5,625.3
		342,619.3 331.6,625.3 331.6,637.4 321.1,643.5 321.1,655.6 310.6,661.6 310.6,673.7 321.1,679.7 321.1,691.8 310.6,697.9
		300.2,691.8 289.7,697.9 289.7,709.9 300.2,716 300.2,728.1 310.6,734.1 310.6,746.2 300.2,752.2 300.2,763.9 289.7,770 289.7,782
		300.2,788.1 310.6,782 	"/>
	</g>
	<g id="_x32_bShape" class="contorno-usa">
		<g class="st47">
			<polygon class="st48" points="606.1,771 606.1,783.5 617,789.8 627.9,783.5 627.9,771 617,764.7 		"/>
			<path
				class="st48"
				d="M1270.5,236.4v-12.6l-10.9-6.3V205l-10.9-6.3l-10.9,6.3v12.6l-10.9,6.3v12.6l10.9,6.3v12.6l-10.9,6.3
			l-10.9-6.3l-10.9,6.3v12.6l-10.9,6.3l-10.9-6.3l-10.9,6.3l-10.9-6.3l-10.9,6.3V293l-10.9,6.3v12.6l10.9,6.3v12.6l-10.9,6.3
			l-10.9-6.3l-10.9,6.3l-10.9-6.3l-10.9,6.3v12.6l-10.9,6.3v12.6l-10.9,6.3l-10.9-6.3l-10.9,6.3v12.6l-10.9,6.3l-10.9-6.3v-12.6
			l-10.9-6.3v-12.6l10.9-6.3v-12.6l-10.9-6.3l-10.9,6.3l-10.9-6.3v-12.6l10.9-6.3v-12.6l-10.9-6.3v-12.6l-10.9-6.3l-10.9,6.3
			l-10.9-6.3l-10.9,6.3l-10.9-6.3l-10.9,6.3l-10.9-6.3l-10.9,6.3l-10.9-6.3l-10.9,6.3l-10.9-6.3v-12.6l10.9-6.3v-12.6l-10.9-6.3
			l-10.9,6.3l-10.9-6.3l-10.9,6.3l-10.9-6.3l-10.9,6.3l-10.9-6.3v-12.6l-10.9-6.3l-10.9,6.3l-10.9-6.3l-10.9,6.3l-10.9-6.3
			l-10.9,6.3l-10.9-6.3l-10.9,6.3l-10.9-6.3l-10.9,6.3l-10.9-6.3l-10.9,6.3l-10.9-6.3l-10.9,6.3l-10.9-6.3l-10.9,6.3l-10.9-6.3
			l-10.9,6.3l-10.9-6.3V205l-10.9-6.3l-10.9,6.3l-10.9-6.3l-10.9,6.3l-10.9-6.3l-10.9,6.3l-10.9-6.3L519,205l-10.9-6.3v-12.6
			l-10.9-6.3l-10.9,6.3l-10.9-6.3l-10.9,6.3l-10.9-6.3l-10.9,6.3l-10.9-6.3v-12.6l-10.9-6.3l-10.9,6.3l-10.9-6.3l-10.9,6.3
			l-10.9-6.3l-10.9,6.3v12.6l-10.9,6.3l-10.9-6.3v-12.6l-10.9-6.3l-10.9,6.3v12.6l-10.9,6.3v12.6l10.9,6.3v12.6l-10.9,6.3v12.6
			l-10.9,6.3v12.6l-10.9,6.3v12.6l-10.9,6.3V293l10.9,6.3v12.6l-10.9,6.3v12.6l-10.9,6.3v12.6l10.9,6.3v12.6l-10.9,6.3v12.6
			l10.9,6.3v12.6l10.9,6.3v12.6l10.9,6.3V444l-10.9,6.3v12.6l10.9,6.3l10.9-6.3l10.9,6.3v12.6l10.9,6.3l10.9-6.3l10.9,6.3v12.6
			l10.9,6.3v12.6l10.9,6.3l10.9-6.3l10.9,6.3l10.9-6.3l10.9,6.3l10.9-6.3l10.9,6.3v12.6l10.9,6.3l10.9-6.3l10.9,6.3v12.6l10.9,6.3
			V576l10.9,6.3l10.9-6.3l10.9,6.3v12.6l10.9,6.3l10.9-6.3l10.9,6.3v12.6l10.9,6.3l10.9-6.3v-12.6l10.9-6.3l10.9,6.3v12.6l10.9,6.3
			l10.9-6.3l10.9,6.3v12.6l10.9,6.3v12.6l10.9,6.3v12.6l10.9,6.3v12.6l10.9,6.3l10.9-6.3v-12.6l10.9-6.3l10.9,6.3v12.6l10.9,6.3
			v12.6l10.9,6.3v12.6l10.9,6.3v12.6l10.9,6.3v12.6l10.9,6.3v12.6l10.9,6.3l10.9-6.3V771l-10.9-6.3v-12.6l10.9-6.3v-12.6l10.9-6.3
			v-12.6l10.9-6.3l10.9,6.3l10.9-6.3v-12.6l10.9-6.3v-12.6l10.9-6.3l10.9,6.3l10.9-6.3l10.9,6.3l10.9-6.3l10.9,6.3v12.6l10.9,6.3
			l10.9-6.3l10.9,6.3l10.9-6.3v-12.6l-10.9-6.3v-12.6l10.9-6.3l10.9,6.3l10.9-6.3l10.9,6.3l10.9-6.3l10.9,6.3l10.9-6.3l10.9,6.3
			v12.6l10.9,6.3l10.9-6.3l10.9,6.3l10.9-6.3l10.9,6.3v12.6l10.9,6.3v12.6l10.9,6.3v12.6l10.9,6.3v12.6l10.9,6.3v12.6l10.9,6.3v12.6
			l10.9,6.3l10.9-6.3V771l-10.9-6.3v-12.6l10.9-6.3v-12.6l-10.9-6.3v-12.6l-10.9-6.3v-12.6l-10.9-6.3v-12.6l-10.9-6.3v-12.6
			l-10.9-6.3v-12.6l-10.9-6.3V620l10.9-6.3v-12.6l10.9-6.3v-12.6l10.9-6.3l10.9,6.3l10.9-6.3v-12.6l10.9-6.3v-12.6l10.9-6.3v-12.6
			l10.9-6.3v-12.6l10.9-6.3V488l-10.9-6.3v-12.6l10.9-6.3v-12.6l-10.9-6.3v-12.6l-10.9-6.3l10.9,6.3l10.9-6.3v-12.6l10.9-6.3v-12.6
			l-10.9-6.3v-12.6l10.9-6.3v-12.6l10.9-6.3l10.9,6.3l10.9-6.3v-12.6l10.9-6.3v-12.6l10.9-6.3v-12.6l-10.9-6.3v-12.6l10.9-6.3
			l10.9,6.3l10.9-6.3v-12.6l10.9-6.3v-12.6L1270.5,236.4z M976.4,368.5l-10.9,6.3v12.6l-10.9,6.3l-10.9-6.3v-12.6l-10.9-6.3v-12.6
			l10.9-6.3v-12.6l10.9-6.3l10.9,6.3v12.6l10.9,6.3V368.5z M987.3,311.9l-10.9,6.3l-10.9-6.3l-10.9,6.3l-10.9-6.3v-12.6l10.9-6.3
			l10.9,6.3l10.9-6.3l10.9,6.3V311.9z"/>
			<polygon
				class="st48"
				points="467.6,752.2 457.2,746.2 446.7,752.2 436.2,746.2 436.2,734.1 425.8,728.1 425.8,716 415.3,709.9
			415.3,697.9 425.8,691.8 425.8,679.7 415.3,673.7 415.3,661.6 425.8,655.6 425.8,643.5 415.3,637.4 404.8,643.5 394.4,637.4
			394.4,625.3 383.9,619.3 373.4,625.3 363,619.3 352.5,625.3 342,619.3 331.6,625.3 331.6,637.4 321.1,643.5 321.1,655.6
			310.6,661.6 310.6,673.7 321.1,679.7 321.1,691.8 310.6,697.9 300.2,691.8 289.7,697.9 289.7,709.9 300.2,716 300.2,728.1
			310.6,734.1 310.6,746.2 300.2,752.2 300.2,763.9 289.7,770 289.7,782 300.2,788.1 310.6,782 310.6,770.4 321.1,764.3
			331.6,770.4 342,764.3 352.5,770.4 363,764.3 363,752.2 373.4,746.2 373.4,734.1 383.9,728.1 394.4,734.1 394.4,746.2
			404.8,752.2 415.3,746.2 425.8,752.2 425.8,764.3 436.2,770.4 436.2,782.5 446.7,788.5 457.2,782.5 467.6,788.5 478.1,782.5
			478.1,770.4 467.6,764.3 		"/>
		</g>
	</g>
	<g id="_x32_bPrescrizioni" class="pallini-rosa">
		<circle id="XMLID_978_" class="st49" cx="559.6" cy="247" r="27.5"/>
		<circle id="XMLID_974_" class="st50" cx="990.5" cy="594.6" r="36.5"/>
		<circle id="XMLID_970_" class="st49" cx="499.6" cy="505.9" r="27.4"/>
		<circle id="XMLID_966_" class="st51" cx="869.5" cy="559.6" r="35.3"/>
		<circle id="XMLID_962_" class="st52" cx="326.9" cy="422.7" r="22.6"/>
		<circle id="XMLID_958_" class="st53" cx="610.9" cy="439.8" r="25.7"/>
		<circle id="XMLID_954_" class="st53" cx="1224.8" cy="345.3" r="25.6"/>
		<circle id="XMLID_950_" class="st54" cx="1181.7" cy="418.4" r="29.4"/>
		<circle id="XMLID_946_" class="st55" cx="1112.3" cy="715.9" r="26.6"/>
		<circle id="XMLID_942_" class="st56" cx="1057.8" cy="604.9" r="29.6"/>
		<circle id="XMLID_938_" class="st57" cx="617.6" cy="777.2" r="22.2"/>
		<circle id="XMLID_934_" class="st58" cx="469.6" cy="300.3" r="28.7"/>
		<circle id="XMLID_930_" class="st59" cx="919.5" cy="433.7" r="26.2"/>
		<circle id="XMLID_926_" class="st60" cx="977" cy="437" r="30.9"/>
		<circle id="XMLID_922_" class="st61" cx="846.1" cy="388.5" r="26.9"/>
		<circle id="XMLID_918_" class="st62" cx="757.8" cy="464.5" r="30.8"/>
		<circle id="XMLID_914_" class="st63" cx="1022.6" cy="485.8" r="32.9"/>
		<circle id="XMLID_910_" class="st64" cx="880.5" cy="634.1" r="34"/>
		<circle id="XMLID_906_" class="st65" cx="1258.7" cy="247" r="27.3"/>
		<circle id="XMLID_902_" class="st66" cx="1164" cy="435.2" r="26.4"/>
		<circle id="XMLID_898_" class="st67" cx="1232.9" cy="321.1" r="24.4"/>
		<circle id="XMLID_894_" class="st68" cx="997.3" cy="358.2" r="32"/>
		<circle id="XMLID_890_" class="st69" cx="817.6" cy="287.7" r="23.6"/>
		<circle id="XMLID_886_" class="st70" cx="930.7" cy="602.8" r="34.4"/>
		<circle id="XMLID_882_" class="st71" cx="872.2" cy="480.8" r="30.5"/>
		<circle id="XMLID_878_" class="st72" cx="350.9" cy="702.2" r="25.1"/>
		<circle id="XMLID_874_" class="st73" cx="722" cy="394" r="28.2"/>
		<circle id="XMLID_870_" class="st74" cx="412.9" cy="389" r="29.8"/>
		<circle id="XMLID_866_" class="st75" cx="1230.5" cy="295.5" r="25.6"/>
		<circle id="XMLID_862_" class="st76" cx="1190.9" cy="400" r="24.3"/>
		<circle id="XMLID_858_" class="st77" cx="613.9" cy="544.2" r="26.8"/>
		<circle id="XMLID_854_" class="st78" cx="1170.6" cy="337.1" r="23.5"/>
		<circle id="XMLID_850_" class="st71" cx="1126.8" cy="520.4" r="30.6"/>
		<circle id="XMLID_846_" class="st79" cx="717" cy="261.9" r="25.9"/>
		<circle id="XMLID_842_" class="st80" cx="1038.4" cy="416.3" r="29.9"/>
		<circle id="XMLID_838_" class="st81" cx="786.7" cy="539.4" r="33.2"/>
		<circle id="XMLID_834_" class="st82" cx="363" cy="279.4" r="28.5"/>
		<circle id="XMLID_830_" class="st83" cx="1131.9" cy="391.2" r="29.2"/>
		<circle id="XMLID_826_" class="st84" cx="1235.6" cy="361.6" r="26.7"/>
		<circle id="XMLID_822_" class="st85" cx="1097.9" cy="563.6" r="31.5"/>
		<circle id="XMLID_818_" class="st86" cx="716.9" cy="326.2" r="27.1"/>
		<circle id="XMLID_814_" class="st87" cx="998.9" cy="524.2" r="35.6"/>
		<circle id="XMLID_810_" class="st88" cx="750" cy="637" r="25.2"/>
		<circle id="XMLID_806_" class="st73" cx="508" cy="408.6" r="28.1"/>
		<circle id="XMLID_802_" class="st89" cx="1219.4" cy="267.2" r="25.3"/>
		<circle id="XMLID_798_" class="st77" cx="1138.6" cy="466.1" r="26.7"/>
		<circle id="XMLID_794_" class="st61" cx="379.6" cy="204.5" r="26.9"/>
		<circle id="XMLID_790_" class="st81" cx="1075" cy="458.4" r="33.1"/>
		<circle id="XMLID_786_" class="st61" cx="894.7" cy="321.1" r="26.9"/>
		<circle id="XMLID_782_" class="st86" cx="590" cy="341.9" r="27.1"/>
	</g>
	<g id="_x32_bStati">
		<text id="XMLID_262_" transform="matrix(1 0 0 1 333.8999 709.4469)" class="st90 st91 st92">AK</text>
		<text id="XMLID_261_" transform="matrix(1 0 0 1 313.3378 428.7324)" class="st90 st91 st92">CA</text>
		<text id="XMLID_260_" transform="matrix(1 0 0 1 397.1824 396.8451)" class="st90 st91 st92">NV</text>
		<text id="XMLID_259_" transform="matrix(1 0 0 1 348.9033 283.1562)" class="st90 st91 st92">OR</text>
		<text id="XMLID_258_" transform="matrix(1 0 0 1 458.3685 307.2697)" class="st90 st91 st92">ID</text>
		<text id="XMLID_257_" transform="matrix(1 0 0 1 543.2396 255.3081)" class="st90 st91 st92">MT</text>
		<text id="XMLID_256_" transform="matrix(1 0 0 1 493.8683 414.7802)" class="st90 st91 st92">UT</text>
		<text id="XMLID_255_" transform="matrix(1 0 0 1 570.7938 349.6335)" class="st90 st91 st92">WY</text>
		<text id="XMLID_254_" transform="matrix(1 0 0 1 484.5256 513.1312)" class="st90 st91 st92">AZ</text>
		<text id="XMLID_253_" transform="matrix(1 0 0 1 595.6111 447.1032)" class="st90 st91 st92">CO</text>
		<text id="XMLID_252_" transform="matrix(1 0 0 1 595.6198 550.861)" class="st90 st91 st92">NM</text>
		<text id="XMLID_251_" transform="matrix(1 0 0 1 733.9037 645.1874)" class="st90 st91 st92">TX</text>
		<g id="XMLID_250_">
			<text transform="matrix(1 0 0 1 539.7655 784.7062)" class="st45 st91 st92">HI</text>
		</g>
		<text id="XMLID_249_" transform="matrix(1 0 0 1 770.5852 548.2285)" class="st90 st91 st92">OK</text>
		<text id="XMLID_248_" transform="matrix(1 0 0 1 852.9252 565.5556)" class="st90 st91 st92">AR</text>
		<text id="XMLID_247_" transform="matrix(1 0 0 1 984.3837 531.996)" class="st90 st91 st92">TN</text>
		<text id="XMLID_246_" transform="matrix(1 0 0 1 914.8268 610.2489)" class="st90 st91 st92">MS</text>
		<text id="XMLID_245_" transform="matrix(1 0 0 1 867.8153 640.8136)" class="st90 st91 st92">LA</text>
		<text id="XMLID_244_" transform="matrix(1 0 0 1 977.8131 600.485)" class="st90 st91 st92">AL</text>
		<text id="XMLID_243_" transform="matrix(1 0 0 1 1042.6896 610.8238)" class="st90 st91 st92">GA</text>
		<text id="XMLID_242_" transform="matrix(1 0 0 1 1085.3373 569.727)" class="st90 st91 st92">SC</text>
		<text id="XMLID_241_" transform="matrix(1 0 0 1 1111.3484 529.4155)" class="st90 st91 st92">NC</text>
		<text id="XMLID_240_" transform="matrix(1 0 0 1 1056.2145 464.8652)" class="st90 st91 st92">WV</text>
		<text id="XMLID_239_" transform="matrix(1 0 0 1 1124.2692 473.1198)" class="st90 st91 st92">VA</text>
		<text id="XMLID_238_" transform="matrix(1 0 0 1 1118.1267 397.1101)" class="st90 st91 st92">PA</text>
		<g id="XMLID_237_">
			<text transform="matrix(1 0 0 1 1233.0228 447.1031)" class="st45 st91 st92">MD</text>
		</g>
		<g id="XMLID_236_">
			<text transform="matrix(1 0 0 1 1201.3691 426.0764)" class="st45 st91 st92">DE</text>
		</g>
		<g id="XMLID_235_">
			<text transform="matrix(1 0 0 1 1237.822 408.0233)" class="st45 st91 st92">NJ</text>
		</g>
		<text id="XMLID_234_" transform="matrix(1 0 0 1 1154.1904 344.7718)" class="st90 st91 st92">NY</text>
		<text id="XMLID_233_" transform="matrix(1 0 0 1 1198.0234 198.7123)" class="st45 st91 st92">VT</text>
		<g id="XMLID_232_">
			<text transform="matrix(1 0 0 1 1272.8701 307.2699)" class="st45 st91 st92">NH</text>
		</g>
		<text id="XMLID_231_" transform="matrix(1 0 0 1 1239.7944 255.3079)" class="st90 st91 st92">ME</text>
		<g id="XMLID_230_">
			<text transform="matrix(1 0 0 1 1270.8564 330.4803)" class="st45 st91 st92">MA</text>
		</g>
		<g id="XMLID_229_">
			<text transform="matrix(1 0 0 1 1304.8972 352.4138)" class="st45 st91 st92">CT</text>
		</g>
		<g id="XMLID_228_">
			<text transform="matrix(1 0 0 1 1272.87 369.8322)" class="st45 st91 st92">RI</text>
		</g>
		<text id="XMLID_227_" transform="matrix(1 0 0 1 1100.9905 721.8297)" class="st90 st91 st92">FL</text>
		<text id="XMLID_226_" transform="matrix(1 0 0 1 744.5346 473.1198)" class="st90 st91 st92">KS</text>
		<text id="XMLID_225_" transform="matrix(1 0 0 1 707.0704 399.9405)" class="st90 st91 st92">NE</text>
		<text id="XMLID_224_" transform="matrix(1 0 0 1 703.4094 333.2679)" class="st90 st91 st92">SD</text>
		<text id="XMLID_223_" transform="matrix(1 0 0 1 700.1057 267.8847)" class="st90 st91 st92">ND</text>
		<text id="XMLID_222_" transform="matrix(1 0 0 1 798.4492 296.1826)" class="st90 st91 st92">MN</text>
		<text id="XMLID_221_" transform="matrix(1 0 0 1 880.2189 329.3882)" class="st90 st91 st92">WI</text>
		<text id="XMLID_220_" transform="matrix(1 0 0 1 835.2816 396.8451)" class="st90 st91 st92">IA</text>
		<text id="XMLID_219_" transform="matrix(1 0 0 1 980.5439 364.6839)" class="st90 st91 st92">MI</text>
		<text id="XMLID_218_" transform="matrix(1 0 0 1 909.4837 439.847)" class="st90 st91 st92">IL</text>
		<text id="XMLID_217_" transform="matrix(1 0 0 1 965.5276 443.9591)" class="st90 st91 st92">IN</text>
		<text id="XMLID_216_" transform="matrix(1 0 0 1 1007.2177 494.2661)" class="st90 st91 st92">KY</text>
		<text id="XMLID_215_" transform="matrix(1 0 0 1 852.9249 487.9775)" class="st90 st91 st92">MO</text>
		<text id="XMLID_214_" transform="matrix(1 0 0 1 1019.9866 425.0938)" class="st90 st91 st92">OH</text>
		<text id="XMLID_213_" transform="matrix(1 0 0 1 361.3135 211.3372)" class="st90 st91 st92">WA</text>
	</g>
</svg>
