<?xml version="1.0" encoding="utf-8"?>
<!-- Generator: Adobe Illustrator 23.0.1, SVG Export Plug-In . SVG Version: 6.00 Build 0)  -->
<svg version="1.1" id="Layer_1" xmlns="http://www.w3.org/2000/svg" xmlns:xlink="http://www.w3.org/1999/xlink" x="0px" y="0px"
	 viewBox="0 0 124.4 91.6" style="enable-background:new 0 0 124.4 91.6;" xml:space="preserve">
<style type="text/css">
	.st0{fill:none;stroke:#231F20;stroke-width:0.463;stroke-miterlimit:10;}
	.st1{fill:none;stroke:#231F20;stroke-width:0.263;stroke-linecap:round;stroke-linejoin:round;}
	.st2{fill:none;stroke:#231F20;stroke-width:0.238;stroke-linecap:round;stroke-linejoin:round;}
	.st3{fill:#231F20;}
</style>
<path class="st0" d="M90,30l-2.5-0.2 M89.8,31.2l-2.5-0.3 M89.7,32.5l-2.4-0.4 M89.4,33.8L87,33.3 M89.1,35l-2.4-0.6 M88.8,36.3
	l-2.4-0.7 M88.4,37.5l-2.3-0.8 M87.9,38.7l-2.3-0.9 M87.4,39.9l-2.2-1.1 M86.8,41.1l-2.2-1.2 M86.1,42.2L84,40.9 M85.4,43.3
	l-2.1-1.4 M84.7,44.4l-2-1.4 M83.9,45.4L82,43.9 M83.1,46.4l-1.9-1.6 M82.2,47.4l-1.8-1.7 M81.3,48.3l-1.7-1.8 M80.3,49.2l-1.6-1.9
	 M79.3,50l-1.5-2 M78.2,50.8l-1.4-2 M77.2,51.5l-1.3-2.1 M76.1,52.2l-1.2-2.1 M74.9,52.8l-1.1-2.2 M73.7,53.4l-1-2.2 M72.5,53.9
	l-0.9-2.3 M71.3,54.4l-0.8-2.3 M70.1,54.8l-0.7-2.4 M68.8,55.1l-0.6-2.4 M67.6,55.4L67.1,53 M66.3,55.6l-0.4-2.4 M65,55.8l-0.2-2.5
	 M63.7,55.9l-0.1-2.5 M62.4,55.9v-2.5 M61.1,55.9l0.1-2.5 M59.8,55.8l0.2-2.5 M58.5,55.7l0.3-2.5 M57.2,55.5l0.4-2.4 M55.9,55.2
	l0.5-2.4 M54.7,54.9l0.7-2.4 M53.4,54.5l0.8-2.4 M52.2,54.1l0.9-2.3 M51,53.6l1-2.3 M49.8,53.1l1.1-2.2 M48.6,52.5l1.2-2.2
	 M47.5,51.8l1.3-2.1 M46.4,51.1l1.4-2 M45.3,50.4l1.5-2 M44.3,49.6l1.6-1.9 M43.3,48.7l1.7-1.8 M42.4,47.8l1.7-1.8 M41.5,46.9
	l1.8-1.7 M40.6,45.9l1.9-1.6 M39.8,44.9l2-1.5 M39.1,43.8l2-1.4 M38.3,42.7l2.1-1.3 M37.7,41.6l2.2-1.2 M37.1,40.5l2.2-1.1
	 M36.5,39.3l2.3-1 M36,38.1l2.3-0.9 M35.6,36.8l2.3-0.8 M35.2,35.6l2.4-0.7 M34.9,34.3l2.4-0.5 M34.6,33.1l2.4-0.5 M34.4,31.8
	l2.5-0.3 M34.3,30.5l2.5-0.2 M34.2,29.2l2.4-0.1 M34.1,27.9h2.5 M34.2,26.6l2.5,0.1 M34.3,25.3l2.5,0.2 M34.4,24l2.4,0.4 M34.6,22.7
	l2.4,0.5 M34.9,21.4l2.4,0.6 M35.2,20.2l2.4,0.7 M35.6,18.9l2.3,0.8 M36.1,17.7l2.3,0.9 M36.6,16.5l2.2,1 M37.2,15.3l2.2,1.1
	 M37.8,14.2l2.2,1.2 M38.4,13.1l2.1,1.3 M39.2,12l2,1.4 M39.9,10.9l2,1.5 M40.8,9.9l1.9,1.6 M41.6,8.9l1.8,1.7 M42.5,8l1.7,1.8
	 M43.5,7.1l1.7,1.8 M44.5,6.3l1.6,1.9 M45.5,5.5l1.5,2 M46.6,4.7L48,6.8 M47.7,4L49,6.1 M48.8,3.4L50,5.6 M50,2.8L51.1,5 M51.1,2.3
	l1,2.3 M52.4,1.8l0.9,2.3 M53.6,1.4l0.8,2.4 M54.8,1l0.6,2.4 M56.1,0.7l0.5,2.4 M57.4,0.4l0.4,2.4 M58.7,0.2L59,2.7 M60,0.1l0.2,2.5
	 M61.3,0.1l0.1,2.5 M62.6,0v2.5 M63.9,0.1l-0.2,2.5 M65.2,0.2l-0.3,2.5 M66.5,0.4l-0.4,2.4 M67.7,0.6L67.2,3 M69,0.9l-0.6,2.4
	 M70.3,1.3l-0.7,2.3 M71.5,1.7L70.7,4 M72.7,2.1l-0.9,2.3 M73.9,2.7l-1,2.2 M75.1,3.2l-1.2,2.2 M76.2,3.9L74.9,6 M77.3,4.6l-1.4,2.1
	 M78.4,5.3l-1.5,2 M79.4,6.1L77.9,8 M80.4,6.9l-1.6,1.9 M81.4,7.8l-1.7,1.8 M82.3,8.7l-1.8,1.7 M83.2,9.7l-1.9,1.6 M84,10.7
	l-1.9,1.5 M84.8,11.7l-2,1.4 M85.5,12.8l-2,1.3 M86.2,13.9l-2.1,1.2 M86.9,15.1l-2.2,1.1 M87.4,16.2l-2.2,1 M88,17.4l-2.3,0.9
	 M88.4,18.6l-2.3,0.8 M88.8,19.9l-2.4,0.7 M89.2,21.1l-2.4,0.6 M89.5,22.4l-2.4,0.5 M89.7,23.7l-2.4,0.4 M89.9,25l-2.5,0.3 M90,26.3
	l-2.5,0.2 M90,27.6h-2.5 M90,28.9l-2.5-0.1"/>
<path class="st1" d="M42.6,21.3c0,0-1.2,0.8-1.2,2.9c0,1.9,0.3,4.5-0.5,5.9c-0.1,0.1-0.1,0.2-0.2,0.3c0,0-0.6,0.7-0.1,0.7
	s0.8,0,1,0.3l0.3,0.3c0,0,0.5,0.1,1.1,0 M44.3,21.5c0,0-0.8,0.9-0.8,2.2c0,1.4,0.4,3.4,0.4,3.8c0,0.3-0.1,1-0.3,1.7
	c-0.1,0.4-0.3,1.4,0.1,2.4 M41.1,19.2c-0.1,0.1-0.6,0.5,0.2,1.7 M48,19c0,0-0.1,0-0.2,0.1c-0.3,0.2-0.8,0.6-1.4,1
	c-0.8,0.6-1.6-0.2-2-0.5s-1.3,0-2.1,0.1c-0.5,0.1-0.9-0.2-1.2-0.5c-0.2-0.2-0.4-0.4-0.4-0.5c-0.2-0.2-0.3-0.9-0.1-1.1
	s0.8-0.9,0.8-0.9c1-1.7,1.9-1.9,1.9-1.9 M52.2,26.3c0,0-0.1,0.3-0.1,0.4S52,27.1,52,27.3c0,0.1,0,0.3-0.1,0.4c0,0-0.3,0.2-0.4,0.2
	s-0.4,0-0.5-0.1s-0.3-0.3-0.4-0.4l-0.1-0.1c-0.1-0.1-0.2-0.4-0.2-0.8c0.1-0.4,0.3-0.8,0.3-0.9s-0.5-1.4-0.5-1.4s-0.7-1-0.9-1.3
	c-0.1-0.2-0.5-0.6-0.8-1.7c-0.1-0.4-0.2-0.8-0.2-1.3c0,0-0.1-0.3-0.1-0.9c0-0.1,0-0.3,0-0.4c0.1-0.8,0.1-1.9,0.1-2.1
	c0,0,0-0.1,0-0.3c0.1-0.4,0.2-1.1,0.3-1.6c0.2-0.6,1.2-2.2,1.2-2.2 M47.8,19.1l-1.2-0.4c-0.2-0.1-1.3-0.5-1.6-0.5
	c-0.2,0-0.8-0.2-1.1-0.4s-0.8-1-0.8-1.2s0.1-1.1,0.2-1.8c0-0.2,0.1-0.3,0.1-0.4c0.2-0.6,0.7-0.8,1.1-1.1c0.4-0.2,0.8-1,1.2-1.3
	s1.5-0.5,2.4-0.7s2.5,0,2.5,0h0.1c0.2,0,0.8,0.1,1.3,0.3c0.1,0.1,0.3,0.2,0.4,0.3c0.3,0.2,0.5,0.5,0.7,0.8c0.3,0.5,0.3,1.1,0.1,1.6
	c-0.1,0.3-0.3,0.6-0.4,0.9c-0.3,0.4-0.5,0.6-0.7,0.7c-0.3,0.2-0.5,0.2-0.7,0.7C51.3,17,51,18,50.6,18.4c0,0-0.1,0,0,0.2
	c0,0.1,0,0.1,0.1,0.2c0.2,0.4,0.8,1.5,0.7,2.4c0,0.8,0.1,1.7,0.3,2.3c0.2,0.7,0.6,1.5,0.8,1.5s0.5,0.1,0.6,0.2s0.5,0.3,0.7,0.4
	c0.1,0,0.2,0.1,0.3,0.2c0,0.1,0,0.1-0.2,0.2c-0.4,0.1-0.8,0-0.8,0s-0.2-0.1-0.3-0.1S52.6,26,52.6,26c-0.1,0-0.3,0.1-0.4,0.2
	 M48.2,16.3c-0.7,0.2-1.3-0.4-2-1.2c-0.6-0.8-0.2-1.5,0.8-2.5c0.8-0.9,3.3-1.1,3.8-1.2 M50.6,18.6l1-0.5l0.8-0.4
	c0,0,1.2-0.4,1.9-0.7c0.2-0.1,0.4-0.2,0.4-0.2c0-0.2,0-0.7,0-0.7 M55,14.8c0,0,0.1,0.7-0.3,1.2c-0.1,0.1-0.1,0.2-0.2,0.3l-0.7,0.4
	 M57.6,14.6c0,0,0.3,0.3,0.4-0.1s0.5-1.4,0.6-1.6s0.2-0.3,0.2-0.3 M53,15.3l2-0.5l0.1,0.1l0.8,0.4c0,0,0.5,0.3,0.7,0.2
	c0.2,0,0.2-0.1,0.2-0.2s0.1-0.2,0.2-0.2s0.2-0.2,0.2-0.2s0.2,0,0.3-0.1s0.2-0.2,0.2-0.2 M52.1,11.6c-0.1-0.3,0.2-0.6,0.3-0.7
	l0.2-0.1c0,0,0,0,0-0.1c0-0.4,1.3-0.7,1.3-0.7c0-0.9,2.1-0.5,2.1-0.5c1-0.2,1.9,0.6,1.9,0.6c0.8-0.1,1.2,0.8,1.2,0.8
	c0.7,0.2,0.4,1.3,0.4,1.4s0,0.3-0.4,0.3c-0.1,0-0.3,0-0.4-0.1c-0.3-0.1-0.3-0.1-0.8-0.3l-0.5-0.4c0,0,0,0.4-0.1,0.6
	c-0.2,0.2-0.3,0.2-0.4,0.2s-0.4,0.3-0.6,0.4s-0.4,0.4-0.9,0.4c0,0-0.8,0.2-1,0c-0.2-0.1-0.7,0.1-0.8-0.1c0-0.1-0.2-0.3-0.4-0.5
	 M56.8,14.6l0.3,0.3 M51.7,18.1c0,0-0.1,0.5,0,0.8c0,0,0.4,1.2,1.7,1.2c0.1,0,1.3,0.1,1.3,0.1 M54.5,17.1c0,0,0.8,0.6,0.9,0.8
	 M50.4,27.3l-1.3,0.5c0,0-1.3,0.3-1.6,0.4c-0.3,0-1.6,0.3-1.5,1c0,0.7-0.1,1,0.2,1.2s0.5,0.3,0.5,0.3 M47.6,30.2c0,0-0.5,0.2-1,0.5
	c-0.2,0.1-0.4,0.3-0.6,0.5c-0.3,0.4-0.6,0.8-0.7,1.2v0.2c0,0.4,0.3,0.7,0.5,0.9 M45.3,32.4c0,0-0.9-0.6-1-0.6s-0.3,0-0.6-0.1
	c-0.3,0-0.6-0.1-0.7-0.1c-0.3,0-1.2,0.6-1.3,1.1c-0.1,0.6-0.5,2.1,0.9,2c0,0,0.5-0.3,0.8-0.5l0.1-0.1c0.2-0.2,1.2-0.8,1.4-0.8h1
	c0.3,0,0.5,0.1,0.6,0.2c0.2,0.2,0.3,1,0.4,1.1s0.9,0.8,0.9,0.8 M52.7,38.5l0.6,0.8l0.3,0.5c0,0,0.2,0.2,0.3,0.1
	c0.1,0,0.2-0.1,0.1-0.3s-0.3-0.7-0.3-0.7s-0.3-0.5-0.5-0.7l0.6,0.2l0.8,0.5c0,0,0.1,0,0.2-0.1c0-0.1,0-0.2-0.1-0.2
	c-0.1-0.1-0.6-0.8-0.6-0.8s-0.3-0.2-0.4-0.2c0,0-0.1-0.1-0.2-0.2c0-0.1-0.3-0.4-0.4-0.4c-0.1-0.1-0.6-0.4-0.7-0.4
	c-0.2,0-0.6-0.1-0.6-0.4s0.6-1.5,0.6-1.5l0.4-0.8c0,0,0.1-0.1,0.2-0.3c0.2-0.4,0.5-1,0.5-1.2c0,0,0.9-0.1,1-0.6
	c0-0.5,0.4-1.1-2.4-2.1c0,0-0.8,0.5-1.2,1.4c-0.2,0.4-0.4,0.9-0.6,1.5c-0.1,0.6-0.2,1.2-0.2,1.9c0,0.6,0,1.2,0.1,1.7 M52.3,39.1
	l0.6,1.3c0,0,0.2,0.1,0.2,0c0.1,0,0.1-0.1,0.1-0.2s-0.1-0.5-0.1-0.5l-0.2-0.5l-0.1-0.3l-0.1-0.4 M50.1,36.3c0.1,0.9,0.2,1.6,0.6,1.9
	c0,0,0.4,0.3,0.5,0.4c0,0,0.4,0.3,0.5,0.4c0,0.1,0.1,0.4,0.1,0.4c-0.1,0.1-0.3,0.2-0.3,0.2s-0.1,0.3,0.1,0.3c0,0,0.1,0.1,0.1,0
	c0.1-0.1,0.2-0.1,0.3-0.1s0.4-0.2,0.5-0.3c0-0.2,0-0.3,0-0.3 M47.3,29.9c0,0,0.1,0.1,0.3,0.3c0.6,0.6,1.9,2,2.5,2.4 M43.5,34.3
	c0,0,0.1,0.8,0.4,1.2l0.1,0.1c0.4,0.4,1.4,1,2.6,1.1c1.3,0.1,2.7,0.3,3.5-0.5 M44,35.6c0,0-0.3,1.5,0.6,2.4c0,0,0,0,0.1,0.1
	c1.1,0.9,2,1.9,3.2,2.5s3.9,1.7,4.2,1.8c0.1,0,0.2,0.1,0.3,0.1c0.5,0.2,1.5,0.6,1.7,0.8 M44.6,38.1c0,0-0.2,0.2-0.2,0.5
	s0,0.8-0.2,1.3s-0.7,1.5-0.6,1.8c0,0.2,0.6,1.3,0.6,1.3c0,0.1,0.2,0.2,0.2,0.2h0.3H45c0.1,0,0.2-0.1,0.2-0.1c0-0.1,0-0.2,0.1-0.2
	s0.4-0.4,0.3-0.4s-0.3-0.1-0.4-0.1s-0.2,0-0.3-0.2c-0.1-0.1-0.1-0.2-0.1-0.3s0.2-0.2,0.3-0.3s1.2-0.9,1.4-0.8c0.2,0,0.6,0.1,0.8,0.3
	s1.7,1.5,2.1,1.6c0.3,0.2,1.7,1,2.4,1c0.7,0.1,1.9,0.3,2.4,0.5c0.5,0.1,1.6,0.4,2.1-0.2c0.5-0.5,0.7-0.6,0.7-0.9s0.2-1.3-0.1-1.8
	s-0.6-0.8-0.6-0.8 M54,25.8c0,0,1.4,0.4,2.1,0.8c0.1,0.1,0.1,0.1,0.2,0.2 M54.3,34.2c0,0,0.6,1.2,0.6,1.6c0,0.2,0.4,1.3,0.6,2.1
	c0.2,0.5,0.3,0.9,0.3,1c0.1,0.2,0.4,0.6,0.3,1.2v0.1c0,0.1-0.1,0.2-0.1,0.3c-0.5,0.9-0.6,2-3,1.9l-0.6-0.1 M56.4,33
	c1.4-0.2,1.6-1.9,1.7-2.4c0-0.1-0.1-0.5-0.1-0.5s-0.1-0.5-0.2-1c-0.1-0.3-1.5-2.2-1.5-2.2 M56.1,26.6c0,0-0.2-0.9,0.2-1h0.1
	c0.1-0.1,0.2-0.2,0.3-0.3s0.4-0.4,0.5-0.5c0.2,0,0.3-0.2,0.4-0.3s0.5-0.6,1-0.5s1.7,0.1,1.9,0.2s0.9,0.6,1,0.6h0.3
	c0.2,0,0.5,0.1,0.6,0.4c0,0,0.3,0.2,0,0.6c0,0,0.6,0.3,0.7,0.6s0.2,0.8-0.3,1c0,0-0.6,0.1-0.7,0.1c0,0,0-0.2-0.2-0.3
	c-0.1,0-0.3,0-0.4,0.1s-0.6,0.4-0.8,0.4c-0.1,0-0.4,0.1-0.4,0.2s-0.1,0.3-0.6,0.5l-1.8,0.4 M58.2,29.1c0,0,0.2,0.4,0.4,0.6
	s0.9,0.5,1.3,0.4c0.2-0.1,0.2-0.2,0.3-0.2s0.3-0.2,0.4-0.2s0.3-0.3,0.3-0.3s0.5,0.1,0.5-0.2s0-0.9,0-0.9s0.4-0.2,0.4-0.7 M60.4,29.7
	l-0.2-0.1 M61,29.4c0,0-0.3-0.1-0.3-0.2 M53,33.7c0,0,0.4,0.5,1.2,0.5c1-0.2,1.8-0.8,2.1-1.2c0.4-0.8,0.7-1.9-0.5-3.5 M62.5,20.2
	c0,0.7,0.3,0.8,0.4,0.9s0.1,0.2,0.1,0.2s0.2,0,0.4-0.1s0.5-0.3,0.5-0.3c0.4-0.3,0.1-0.5,0.2-0.8c0.1-0.3-0.2-0.5-0.2-0.5
	s0.1,0,0.1-0.1s-0.3-0.3-0.3-0.3s0-0.2,0-0.3c-0.1-0.1-0.1-0.5-0.1-0.5l-0.1-0.3c-0.1-0.3-0.3-0.4-0.3-0.4c0-0.2-0.2-0.3-0.2-0.3
	c0.1-0.4-0.4-0.4-0.4-0.6s-0.4-0.4-0.4-0.4c-0.2-0.3-0.6-0.3-0.6-0.3c-0.1,0-0.8,0.2-0.8,0.2s-0.3-0.1-0.6,0.1c0,0-0.6-0.1-1,0.5
	c0,0-0.3,0.2-0.5,0.5c0,0-0.5,1.5-0.6,2s0,0.4-0.1,0.6s-1.1,1.2-0.6,1.5c0.5,0.4,0.7,0.4,0.8,0.7c0.1,0.2,1.6,0.4,1.9,0.3
	s0.5-1.2,0.5-1.2c0-0.2,0-0.5-0.1-0.8c0-0.1-0.1-0.3-0.1-0.4c-0.2-0.4-0.2-0.8-0.2-1s-0.1-0.5-0.3-0.7c-0.1-0.2-0.4-0.4-0.3-0.8
	s0.4-0.9,0.5-1c0.2-0.1,0.6-0.3,1.4-0.1c0,0,0.3,0.3,0.4,0.3s0.3,0.2,0.5,0.3s0.2,0.3,0.2,0.4 M62.9,18.1c0,0.1,0.1,0.9,0.1,1
	s0.2,0.7,0.1,0.8c-0.2,0.1-0.4,0.3-0.6,0.4c-1.4,0-2.2-0.3-2.2-0.3 M57.3,21.5c0,0-2.2,1.3-1.8,4.8 M61.6,22.4l0.1,2.5 M57.4,37.4
	c0,0-0.2-3-0.1-3.5 M60.2,13.3c0,0,0-0.8,0.2-1c0.2-0.1,0.4-0.4,0.7-0.4h0.3c0.4,0.2,1.5,0.7,1.8,1.3c0.2,0.4,0.1,0.7,0,0.8
	S63,14.2,63,14.2c-0.2,0.1-0.7,0.2-0.7,0.2 M61.1,11.7c0,0-0.4-0.7,0.3-1.5s0.9-0.9,1.2-0.9s0.8-0.1,0.8-0.1s0.9-0.7,1.8-0.1
	 M63.4,18.2c0,0,0.5-1.1,0.5-1.2c0,0,0.8-1.2,0-3.3c-0.1-0.3-0.6,0.3-0.7,0.3 M68.4,15.5c0,0-0.1,0.6-0.2,0.6
	c-0.1,0-0.4-0.5-0.4-0.5l0.3-1l0.1-1.2v-0.1l0.9-1.5c0-0.1-0.1-0.7-0.2-0.8c-0.1-0.1-0.4-0.5-0.5-0.6c0-0.1-0.1-0.6-0.1-0.6
	s-0.7,0.6-0.8,0.6c-0.2,0.1-0.7,0-0.8,0s-0.4,0.1-0.5,0.2c-0.1,0.2-0.3,0.6-0.4,0.7c-0.1,0.1-0.2,0.8-0.2,1.1c0,0.1-0.1,0.2-0.1,0.3
	c-0.1,0.1-0.1,0.2-0.2,0.3c-0.1,0.2,0,0.3,0.1,0.6c0.1,0.3,0,0.7-0.1,0.9c0,0.1-0.3,0.1-0.3,0.1c-0.1,0-0.3,0.2-0.3,0.2
	s0.1-0.4,0.1-0.5s-0.2-0.6-0.3-0.8s-0.2-1.5-0.2-1.8s0.3-1.1,0.3-1.2s0.2-0.8,0.4-1c0.1-0.1,0.2-0.2,0.3-0.4
	c0.2-0.3,0.5-0.5,0.6-0.6c0.1-0.1,1-0.3,1-0.3s1.1-0.1,1.7,0.5c0,0,0.7,0,0.8,0.4c0.2,0.4,0.6,1.1,0.5,1.3c0,0.2-0.2,0.4-0.1,0.5
	c0,0.1,0,0.7-0.1,0.9v0.1c-0.1,0.1-0.1,0.3-0.1,0.4s0.2,0.6,0.1,0.7c-0.1,0.1-0.2,0.2-0.2,0.3s0,0.5-0.1,0.6
	c-0.1,0.1-0.2,0.3-0.2,0.4s0.1,0.7-0.1,0.9c-0.1,0.1-0.1,0.1-0.2,0.2c-0.1,0-0.1,0-0.2,0.1L68.4,15.5z M65.6,12.7
	c0,0,0.3,1.1,0.9,1.3c0,0,0.9,0,1.7-0.5 M73,15.6v-0.1 M69.7,11.9c0,0,1.8,0.6,2.9,2.5c0,0,0.4,0.7,0.4,1.1v0.2 M73.9,16.6
	c0,0-0.2-0.4-0.9-0.9c-0.3-0.2-0.7-0.5-1.1-0.6 M68.8,15.4c0,0-0.3,1.2,1.4,2.4 M65.8,21.4l-1.7-0.8 M65.1,38.3
	c0.2-0.3,0.5-0.8,0.3-1.4c-0.3-1.1-0.2-1.3-0.1-1.6c0.1-0.2,1.4-1.8,2.4-3.5c0.1-0.2,0.2-0.4,0.3-0.5c0.4-0.8,0.6-1.6,0.6-2.2
	l0.8-1.8 M63.3,42.2L63,43.5l0.6-1.4l1-2.5l1.2,3.2l-0.7-4.6v-0.5c0,0-0.5,0-0.7,0.4s-0.5,1.2-0.5,1.5c-0.1,0.3-0.2,0.5-0.2,0.6
	c-0.3,0-0.3-0.4-0.3-0.4l-0.1-1.7c-0.1-0.1-0.2-0.2-0.2-0.2c-0.2-0.3-0.1-0.7-0.1-1c0-0.4,0.4-0.9,0.6-1.4c0.1-0.3,0.3-1,0.5-1.6
	c0.2-0.8,0.5-1.6,0.5-1.6c0.1-1,0.3-1.7,0.5-2.3c0.4-1.1,0.8-1.4,0.9-1.5c0.1-0.1,0.4-0.8,0.4-0.8 M63.6,40.3l-0.3,1.9 M66.5,24
	c0,0-0.1,0.4-0.3,0.5c-0.1,0.1-0.8,1-0.7,1.5s0.4,1.6,0.4,1.6h0.3l2.6-0.3c0,0,0.2,0,0.4-0.1c0.2-0.1,0.6-0.2,0.7-0.4
	c0.3-0.4,1.2-1.8,1.2-1.8 M59.1,43.2l4,1.3l7.5-2.1l-4.3-0.9l-2.7,0.6l-0.3,0.1L59.1,43.2z M59.1,43.2v1.1l4.1,1.4l7.4-2.2v-1.1
	 M63.1,44.5v1 M66,22.2c0,0-0.2-0.2-0.2-0.4c0.1-0.2-0.2-0.7,0-0.8c0.1-0.1,0.1-0.4,0.3-0.6c0.1-0.1,0.2-0.2,0.3-0.3
	c0.5-0.1,0.3-0.6,0.7-0.7s0.7-0.4,0.8-0.4s0.6-0.2,0.7-0.2c0.1,0,0.2,0,0.4-0.1h0.5c0.1,0,0.3,0.2,0.5,0.2c0.2,0.1,0.3,0.1,0.4,0.1
	c0.2,0,0.8,0.3,0.9,0.3c0.1,0,0.5,0,0.4,0.2c0,0.1-0.1,0.3-0.1,0.3c0.1,0,0.3,0.2,0.3,0.2c0,0.1-0.1,0.3-0.1,0.4s0.3,0.4,0.3,0.6
	c0,0.1,0.1,0.3,0,0.4c-0.1,0.1-0.2,0.1-0.1,0.2c0.1,0.1,0,0.2-0.1,0.3c-0.1,0.1-0.2,0.2-0.2,0.3c-0.1,0.1-0.3,0.4-0.4,0.5
	c-0.1,0.1-0.4,0-0.4,0.2c0,0.1-0.4,0.3-0.5,0.2c-0.1,0-0.6,0.3-0.7,0.1c-0.1-0.2-0.1-0.5,0-0.7c0-0.1,0.2-0.2,0.2-0.3s0-0.2,0-0.3
	s-0.3-0.3-0.1-0.5c0.2-0.2,0.6-1,0.7-1.2c0.1-0.2,0-0.4,0-0.5s-0.6-0.3-0.7-0.4c-0.1,0-0.7-0.2-0.9-0.2c-0.1,0-0.6,0-0.7,0.1
	c-0.2,0.1-0.6,0.3-0.7,0.3c-0.1,0.1-0.4,0.4-0.4,0.4l-0.5,0.4c0,0-0.6,0.5-0.6,1.7v0.9c0,0,0.1,0.5,0.4,0.9c0.1,0.1,0.8,0.6,0.8,0.6
	l0.3,0.1c0.1,0,0.3,0.1,0.3,0.3c0.1,0.2,0.3,0.9,0.7,0.8l0.3-0.3c0,0,0.4,0.2,0.5,0.2c0.1,0,0.8,0.4,1.6-0.8
	c0.1-0.1,0.2-0.3,0.3-0.4c0,0,0.3-0.7,0.6-1.3c0.1,0,0.3-0.2,0.4-0.2c0.9-0.3,1.2-1.5,1.2-1.5s0-0.2,0-0.4 M72.8,24
	c0,0.2-0.4,1.6-0.4,1.9s-0.1,0.6,0.1,0.9c0.1,0.4,0.3,1.2,0.3,1.6s-0.2,1.4-0.3,2c0,0.1,0,0.2-0.1,0.3L72.3,31l-0.5,1.1
	c0,0-0.8,1.6-1,2c-0.1,0.4-0.8,1.6-0.1,3.4l0.3,1c0.5,1.5,0.6,1.6,1.2,1.7 M73.4,34.8c0,0-0.2,2.5-0.6,3.2c-0.3,0.7-0.5,1.3-0.5,1.6
	s-0.2,1-0.3,1.2c-0.1,0.1-0.2,0.3-0.2,0.6c0,0.1-0.1,0.3,0,0.4c0,0.4,0.1,0.7,0.3,0.7c0.3,0,0.7-0.1,0.7-0.1s0.4,0.1,0.6,0.2H74
	c0.1-0.1,0.4-0.2,0.6-0.3c0.1-0.1,0.5-0.4,0.5-0.7c0-0.2-0.6-1.1-0.6-1.1s0-0.1-0.1-0.3c-0.1-0.4-0.2-1.1,0-1.5
	c0.3-0.5,3.3-4.8,3.1-7.7 M79.2,30.7c0,0-1-0.1-1.8,0.4c-0.2,0.1-0.3,0.2-0.4,0.4c-0.5,0.7-2.4,2.2-3.6,3.3c-0.4,0.3-0.8,0.6-1,0.8
	c-0.1,0.1-0.5,0.6-0.5,0.6s0.4-7.1,5.1-12.6 M69.1,18.7c0,0,0.4-0.6,1.1-0.8c0.2-0.1,3.3-1.7,6.1-1.2 M73.5,20.2
	c0-0.1,0.8-2.7,2.5-3.4c0.6-0.3,1.3-0.1,1.3-0.1c0.3,0.1,1.3-0.2,2.4,0.6l0.9-0.2c1.5-0.2,2.3,1.1,2.3,1.9s-1.1,1.9-1.1,1.9
	l-1.2,0.9c-0.3,0.6-1.5,1.2-1.9,1.4c-0.5,0.4-1.1,0.4-1.7,0.3c-1.8-0.4-3.4-2.5-3.4-2.5 M75.5,39.1c0,0,1.1,1.3,2.1,1.5 M69.4,25.5
	l0.3-0.2 M63.5,28.3c0,0-0.1-1.4-0.1-1.9c0-0.3,0.3-1.8,0.6-3 M64.6,27.6c0,0-2.2,0.9-1.3,2.9 M63.5,30.5c-0.4,0.5-0.4,0.5-0.4,0.6
	s-0.2,0.9-0.2,1s0,0.3-0.1,0.4c-0.1,0-0.4,0.3-0.4,0.2s-0.3-0.4-0.4-0.5c-0.1,0-0.3,0-0.2,0.1c0.1,0.2-0.5,0.1-0.1,0.4l0.4,0.3
	c0,0,0.4,0.3,0.6,0.4s0.6,0,0.8-0.3 M64.9,29.9c0,0-0.4-0.4-1,0.1c-0.4,0.4-0.5,0.4-0.5,0.4 M63.3,31.9c0,0.1-0.1,0.7,0.2,0.7
	c0,0,0.3,0,0.3-0.3s0.2-0.5,0.2-0.6 M63.5,32.7c0,0,0,0.2-0.1,0.5c0,0.2-0.1,0.4-0.1,0.5c-0.1,0.1-0.2,0.6-0.2,0.7
	c0,0,0.2,0.5,0.4,0.1l0.3-0.3l0.3-0.4 M66.5,13.4c0,0,0.2,0.1,0.4,0.2 M66.7,13c0,0,0,0.1,0.2,0.1 M62.2,19c0,0,0.4-0.1,0.7-0.3
	 M60.5,17.9c0,0,0.5-0.6,0.7-0.4 M60.8,28.5L60.8,28.5 M57.5,13.4l-0.1,0.2 M66.5,12v0.1 M68.1,12.5v0.2 M68.9,24.4L68.9,24.4
	 M68.4,24.5l1.1-0.2 M77.9,23.6l-1,3.9 M78.7,23.2c-6.2-1.7-2.2-5.8-1.5-6.4 M57.2,13.1l0.7,0.4 M66.2,11.7c0,0,0.4,0.2,0.8,0.2
	 M67.8,12.4c0,0,0.4,0.2,0.8,0.2 M61.1,28.5c0,0-0.5-0.1-0.6-0.3 M55.8,18.1h0.3l0.7,0.1c0.1,0,0.7,0.1,0.7,0.1
	c0.1,0.2-0.3,0.3-0.3,0.3l-0.6,0.1l0.2,0.3c0.2,0.3-0.2,0.6-0.2,0.6c0.1,0.6-0.3,0.8-0.3,0.8c-0.6,0.4-1.2,0.1-1.6-0.2
	c-0.1-0.1-0.2-0.1-0.3-0.1c-0.4-0.2-0.3-0.6-0.3-0.9c0-0.4,0.2-0.7,0.3-0.9C54.5,18.2,55,18,55,18l0.4,0.1H55.8c0,0,0.2,0.3,0.1,0.4
	s-0.4,0.2-0.6,0.1l-0.1-0.1 M63.6,12.4l0.4,1.5 M80.8,40.6c0,0-2.4-0.5-2.5-4.3 M56.1,36.2c0,0,2.2,2.3,2.9,2.4 M60.3,32.8
	c-0.1,1.2-0.2,2-0.2,2c-0.2,1.6-1,3.8-1,3.8s0.9,0,1.7-0.3s1.3-0.9,2.1-0.5 M68,31.2c1.1-0.3,2.1-0.4,2.9-0.5
	c0.9-0.1,1.4-0.1,1.4-0.1 M67.9,31.2v2.7c0,0.2,0.1,1-0.2,1.4c-0.2,0.3-0.5,0.9-0.5,1.2v0.8c0,0.1-0.3,0.9-0.3,0.9s-0.1,0.6,0.5,0.7
	c0.6,0.1,1.4,0.1,1.7-0.1c0.3-0.2,0.6-0.5,0.5-0.7c-0.1-0.2-0.3-0.4-0.5-0.6s-0.3-0.6-0.3-0.8c0,0,0.1-0.3,0.1-0.5
	c0-0.1,0-0.7,0.1-0.9c0.1-0.2,1.2-1.7,1.2-1.7s0.5-0.7,0.7-2.8 M61.8,14c0,0-0.1-0.2-0.2-0.3s-0.1-0.2-0.1-0.2c0-0.1-0.1-0.1,0-0.3
	c0.1-0.1,0.3,0,0.3,0s0.1,0.2,0.3,0.3s0.1,0,0.3,0.6v0.3c0,0.3-0.4,0.2-0.8,0.5c-0.5,0.3-1.1,0-1.1,0s-0.8-0.7-0.9-0.8
	s-0.1-0.1-0.2,0s0,0.1-0.3,0.1s-0.5-0.2-0.5-0.3s0.4-0.3,0.4-0.3s0.5-0.3,1-0.3h0.2c0.4,0,0.6-0.1,0.9,0.1l0.5,0.3 M40.4,31
	c0,0-1.3-0.3-1.4-0.5c0,0,0-0.1,0-0.2l0.4-0.4c0-0.1,0-0.1,0.2-0.4c0.2-0.4,0.5-1.1,0.5-1.1c0.3-0.7,0.2-0.8,0.2-0.8l0.3-3.8
	c0-1.7,1.1-2.7,1.1-2.7 M48.4,21.3c0,0-2,0.3-4.1,0.2c-0.5,0-1.1-0.1-1.6-0.2c-0.3-0.1-0.6-0.1-0.9-0.2c-0.1,0-0.3-0.1-0.4-0.1
	c0,0-0.9,0.3-1.2,2.6c0,0-0.1,2.2-0.4,3.1c-0.6,1.2-1.8,2.4-1.8,2.4s-0.3,0.4,0.1,0.7l0.9,0.6 M82.4,20.3c0.5,1.3,0.9,3.1,1.1,5.6
	c0.6,4.7-0.7,9-1.1,10.6c-0.4,1.6,0.2,3.8,0.9,4c0,0-2.7,0.3-3.9,0.3c-0.5,0-0.5,0-1.1,0c-1.9-0.1-3.8-0.2-3.9-0.3"/>
<path class="st2" d="M72.3,35.6c0,0-1.2,1,0.6,1.5"/>
<path class="st1" d="M82.2,24.3c0,0,0.3,1.7,0,3.6s0.4,7.4,0.2,8.5"/>
<path class="st1" d="M78.3,19.4l1-1"/>
<path class="st1" d="M63.5,26.8c0,0,0.9-2.9,1.5-3.2 M55.4,27.8c0,0,2.2,0.9,2.6,1.9 M48.9,22.5c0,0-0.1,1,0.2,2.4s0.7,2.7,0.7,2.7
	 M60.2,22.3c0,0,2.2,0.5,2.6-1.1 M57.8,31.9c-0.1,0.5-0.1,1.1-0.5,2.1c0,0-0.2,0.6-0.4,1c-0.2,0.6-1.6,1.8-1.6,1.8 M52,29.7
	c0,0,0.5-0.7,1.8-0.7h1 M71.8,19.5c0,0,1.7-0.3,1.8,1.5 M62.4,18.4c0.4-0.2,0.5-0.4,0.5-0.4s-0.6-0.4-0.9-0.5s0-0.4,0-0.4 M71.8,23
	c0,0-0.1,0.9-0.3,1.4 M72.1,24l2.4-0.1c0,0,0.5-0.1,0.9-0.3 M76.9,34.6c1.4,1.6,3,3.2,3,3.2 M73.8,26.7c0,0,0,0.8,0.1,2"/>
<path class="st1" d="M58.2,29.4L58,29.7"/>
<path class="st3" d="M98,90.4c0.3,0.3,1.1,1.2,2.8,1.2c1.9,0,3-1.1,3-2.6c0-1.2-1-2-1.6-2.2c0.6-0.3,1.4-1.1,1.4-2.1
	c0-1.5-1.2-2.5-2.8-2.5c-1.5,0-2.5,1.2-2.5,1.2c-0.1,0.1-0.1,0.3,0,0.3l0.5,0.4c0.1,0.1,0.3,0.1,0.3,0c0.3-0.3,0.8-0.8,1.6-0.8
	c0.8,0,1.5,0.6,1.5,1.5c0,0.8-0.6,1.4-1.9,1.4h-0.8c-0.2,0-0.3,0.1-0.3,0.3v0.6c0,0.2,0.1,0.3,0.3,0.3h0.8c1.4,0,2.1,0.8,2.1,1.6
	c0,0.9-0.8,1.5-1.7,1.5c-1,0-1.7-0.7-1.8-0.8s-0.2-0.1-0.4,0L98,90.2C97.9,90.2,97.9,90.3,98,90.4 M94,90.4c-1.5,0-2-1.5-1.9-2.7
	c0.1-0.2,0.8-1,1.8-1s1.8,0.8,1.8,1.8S94.9,90.4,94,90.4 M90.8,87.8c0,2.1,1,3.8,3.2,3.8c1.6,0,3-1.4,3-3.1c0-1.9-1.4-2.9-2.8-2.9
	c-0.9,0-1.7,0.4-1.8,0.5c0.4-1.7,2.6-2.8,3.2-3c0.3-0.1,0.3-0.2,0.2-0.4l-0.2-0.6c-0.1-0.1-0.2-0.2-0.3-0.2
	C94,82.5,90.8,84.1,90.8,87.8 M84.6,89.1c0-0.7,0.6-1.5,1.7-1.6c1.1,0.2,1.7,0.9,1.7,1.6c0,0.9-0.8,1.5-1.7,1.5
	C85.4,90.5,84.6,89.9,84.6,89.1 M86.3,86.2c-1-0.2-1.5-0.7-1.5-1.4c0-0.8,0.7-1.4,1.5-1.4c0.9,0,1.5,0.6,1.5,1.4
	C87.8,85.4,87.3,86,86.3,86.2 M83.2,89c0,1.5,1.2,2.6,3.1,2.6c1.9,0,3.1-1.1,3.1-2.6c0-1.2-1-2-1.6-2.2v-0.1c0.6-0.3,1.4-1,1.4-2.1
	c0-1.5-1.2-2.5-2.9-2.5c-1.6,0-2.8,1-2.8,2.5c0,1,0.8,1.8,1.4,2.1C84.3,87,83.2,87.9,83.2,89 M76.8,91.5h4.7c0.1,0,0.3-0.1,0.3-0.2
	v-0.6c0-0.1-0.1-0.3-0.3-0.3H80v-7.8c0-0.1-0.1-0.3-0.2-0.3h-0.7l-2,1.8c-0.1,0.1-0.1,0.2,0,0.3l0.2,0.5c0,0.1,0.2,0.1,0.3,0.1
	l1.2-0.6v6h-1.9c-0.1,0-0.3,0.1-0.3,0.3v0.6C76.5,91.4,76.6,91.5,76.8,91.5 M64.5,86.8c0-1.9,1.6-3.5,3.5-3.5c1.9,0,3.5,1.6,3.5,3.5
	s-1.6,3.5-3.5,3.5C66.1,90.3,64.5,88.7,64.5,86.8 M63.2,86.8c0,2.7,2.1,4.8,4.8,4.8c2.7,0,4.8-2.1,4.8-4.8s-2.1-4.9-4.8-4.9
	C65.3,81.9,63.2,84.1,63.2,86.8 M53.4,91.2c0,0.1,0.1,0.3,0.3,0.3h0.8c0.1,0,0.3-0.1,0.3-0.3v-6.5l5.8,6.9H61c0.1,0,0.3-0.1,0.3-0.2
	v-9c0-0.1-0.1-0.3-0.3-0.3h-0.9c-0.1,0-0.3,0.1-0.3,0.3v6.4L54,82.1h-0.3c-0.1,0-0.3,0.1-0.3,0.2V91.2z M46,88.3l1.6-3.7h0.1
	l1.7,3.7H46z M43.5,91.5h0.8c0.2,0,0.3-0.1,0.3-0.2c0.3-0.6,0.6-1.2,0.8-1.8h4.4l0.8,1.8c0.1,0.1,0.1,0.2,0.3,0.2h0.8
	c0.2,0,0.3-0.2,0.2-0.3l-4.1-9c0-0.1-0.2-0.1-0.2-0.1c-0.1,0-0.2,0.1-0.2,0.1l-4.1,9C43.2,91.3,43.3,91.5,43.5,91.5 M37.2,91.2
	c0,0.1,0.1,0.3,0.3,0.3h4.8c0.1,0,0.3-0.1,0.3-0.3v-0.7c0-0.1-0.1-0.3-0.3-0.3h-3.7v-7.9c0-0.1-0.1-0.3-0.3-0.3h-0.9
	c-0.1,0-0.3,0.1-0.3,0.3v8.9H37.2z M33.2,91.2c0,0.1,0.1,0.3,0.3,0.3h0.9c0.1,0,0.3-0.1,0.3-0.3v-8.9c0-0.1-0.1-0.3-0.3-0.3h-0.9
	c-0.1,0-0.3,0.1-0.3,0.3V91.2z M20.8,91.2c0,0.2,0.1,0.3,0.3,0.3H22c0.1,0,0.2-0.1,0.2-0.2l1-6h0.1l2.4,6.2c0,0.1,0.1,0.1,0.2,0.1
	h0.2c0.1,0,0.2-0.1,0.2-0.1l2.4-6.2l1,6c0,0.1,0.1,0.2,0.3,0.2h0.9c0.2,0,0.3-0.1,0.2-0.3l-1.7-9c0-0.1-0.1-0.2-0.2-0.2H29
	c-0.1,0-0.2,0.1-0.2,0.1L26,89h-0.1l-2.7-6.9c0-0.1-0.1-0.1-0.2-0.1h-0.2c-0.1,0-0.2,0.1-0.2,0.2L20.8,91.2z"/>
<path class="st3" d="M113.1,69c0-2.4,2-4.4,4.4-4.4s4.4,2,4.4,4.4s-2,4.4-4.4,4.4S113.1,71.4,113.1,69 M110.6,69
	c0,3.8,3.1,6.9,6.9,6.9s6.9-3.1,6.9-6.9s-3.1-6.9-6.9-6.9S110.6,65.1,110.6,69 M97.2,69c0,3.8,3.1,6.9,6.9,6.9
	c1.7,0,3.4-0.6,4.7-1.9c0.1-0.1,0.2-0.4,0-0.5l-1.2-1.2c-0.1-0.1-0.3-0.1-0.5,0c-0.8,0.7-1.8,1.1-2.9,1.1c-2.5,0-4.3-2-4.3-4.4
	s1.8-4.5,4.3-4.5c1.1,0,2.1,0.4,3,1.1c0.2,0.2,0.3,0.2,0.5,0l1.2-1.2c0.2-0.2,0.2-0.4,0-0.5c-1.3-1.2-2.7-1.8-4.6-1.8
	C100.3,62.1,97.2,65.1,97.2,69 M92.2,75.3c0,0.2,0.2,0.4,0.4,0.4h1.8c0.2,0,0.4-0.2,0.4-0.4V62.6c0-0.2-0.2-0.4-0.4-0.4h-1.8
	c-0.2,0-0.4,0.2-0.4,0.4V75.3z M77.6,75.3c0,0.2,0.2,0.4,0.4,0.4h1.7c0.2,0,0.4-0.2,0.4-0.4v-8.2l8,8.8h0.5c0.2,0,0.4-0.2,0.4-0.3
	v-13c0-0.2-0.2-0.4-0.4-0.4h-1.8c-0.2,0-0.4,0.2-0.4,0.4v7.9l-8-8.5h-0.5c-0.2,0-0.4,0.2-0.4,0.3v13L77.6,75.3z M63.4,69
	c0,3.8,3.1,6.9,6.9,6.9c1.7,0,3.4-0.6,4.7-1.9c0.1-0.1,0.2-0.4,0-0.5l-1.2-1.2c-0.1-0.1-0.3-0.1-0.5,0c-0.8,0.7-1.8,1.1-2.9,1.1
	c-2.5,0-4.3-2-4.3-4.4s1.8-4.5,4.3-4.5c1.1,0,2.1,0.4,3,1.1c0.2,0.2,0.3,0.2,0.5,0l1.2-1.2c0.2-0.2,0.2-0.4,0-0.5
	c-1.3-1.2-2.7-1.8-4.6-1.8C66.5,62.1,63.4,65.1,63.4,69 M52.9,75.3c0,0.2,0.2,0.4,0.4,0.4h7.8c0.2,0,0.4-0.2,0.4-0.4v-1.6
	c0-0.2-0.2-0.4-0.4-0.4h-5.7v-3.4h4.7c0.2,0,0.4-0.2,0.4-0.4v-1.4c0-0.2-0.2-0.4-0.4-0.4h-4.7v-3.1h5.7c0.2,0,0.4-0.2,0.4-0.4v-1.6
	c0-0.2-0.2-0.4-0.4-0.4h-7.8c-0.2,0-0.4,0.2-0.4,0.4V75.3z M44.9,75.3c0,0.2,0.2,0.4,0.4,0.4h1.8c0.2,0,0.4-0.2,0.4-0.4V64.6h2.9
	c0.2,0,0.4-0.2,0.4-0.4v-1.6c0-0.2-0.2-0.4-0.4-0.4H42c-0.2,0-0.4,0.2-0.4,0.4v1.6c0,0.2,0.2,0.4,0.4,0.4h2.9V75.3z M36.7,75.3
	c0,0.2,0.2,0.4,0.4,0.4h1.8c0.2,0,0.4-0.2,0.4-0.4V62.6c0-0.2-0.2-0.4-0.4-0.4h-1.8c-0.2,0-0.4,0.2-0.4,0.4V75.3z M26.4,75.3
	c0,0.2,0.2,0.4,0.4,0.4h7c0.2,0,0.4-0.2,0.4-0.4v-1.6c0-0.2-0.2-0.4-0.4-0.4h-4.9V62.6c0-0.2-0.2-0.4-0.4-0.4h-1.8
	c-0.2,0-0.4,0.2-0.4,0.4v12.7H26.4z M13.1,69c0-2.4,2-4.4,4.4-4.4s4.4,2,4.4,4.4s-2,4.4-4.4,4.4S13.1,71.4,13.1,69 M10.6,69
	c0,3.8,3.1,6.9,6.9,6.9s6.9-3.1,6.9-6.9s-3.1-6.9-6.9-6.9C13.6,62.1,10.6,65.1,10.6,69 M2.5,68.5v-3.9h2.2c1.1,0,2,0.8,2,1.9
	s-0.9,2-2,2H2.5z M0,75.3c0,0.2,0.2,0.4,0.4,0.4h1.8c0.2,0,0.4-0.2,0.4-0.4v-4.5H5c2.3,0,4.3-1.9,4.3-4.3c0-2.3-1.9-4.2-4.3-4.2H0.5
	c-0.2,0-0.4,0.2-0.4,0.4v12.6H0z"/>
</svg>
