<?xml version="1.0" encoding="utf-8"?>
<!-- Generator: Adobe Illustrator 22.1.0, SVG Export Plug-In . SVG Version: 6.00 Build 0)  -->
<svg version="1.1" id="Слой_2" xmlns="http://www.w3.org/2000/svg" xmlns:xlink="http://www.w3.org/1999/xlink" x="0px" y="0px"
	 viewBox="0 0 831 536.7" style="enable-background:new 0 0 831 536.7;" xml:space="preserve">
<style type="text/css">
	.st0{fill:#FFFFFF;}
	.st1{fill:#F2652B;stroke:#F2652B;stroke-width:0.25;stroke-miterlimit:10;}
	.st2{fill:#2B317F;}
	.st3{enable-background:new    ;}
	
		.st4{fill:none;stroke:#C6C6C6;stroke-width:0.75;stroke-linecap:round;stroke-linejoin:round;stroke-miterlimit:10;stroke-dasharray:3;}
	.st5{fill:none;stroke:#C6C6C6;stroke-miterlimit:10;}
	.st6{fill:none;stroke:#F2652B;stroke-width:2;stroke-miterlimit:10;}
	.st7{fill:none;stroke:#2B317F;stroke-width:2.5;stroke-linecap:round;stroke-linejoin:round;stroke-miterlimit:10;}
	.st8{fill:#F2652B;}
	.st9{fill:#F2652B;stroke:#2B317F;stroke-linecap:round;stroke-linejoin:round;stroke-miterlimit:10;}
	.st10{fill:#2B317F;stroke:#F2652B;stroke-linecap:round;stroke-linejoin:round;stroke-miterlimit:10;}
	.st11{fill:none;stroke:#C6C6C6;stroke-width:0.5;stroke-linecap:round;stroke-linejoin:round;stroke-miterlimit:10;}
	.st12{fill:none;stroke:#C6C6C6;stroke-width:0.25;stroke-linecap:round;stroke-linejoin:round;stroke-miterlimit:10;}
	.st13{fill:#FFFFFF;stroke:#FFFFFF;stroke-width:0.25;stroke-miterlimit:10;}
	.st14{fill:none;stroke:#F2652B;stroke-width:0.5;stroke-linecap:round;stroke-linejoin:round;}
	.st15{fill:none;stroke:#2B317F;stroke-width:0.5;stroke-miterlimit:10;}
</style>
<rect x="-0.8" y="0" class="st0" width="831" height="536.7"/>
<rect x="9.2" y="99.1" class="st1" width="103.8" height="43"/>
<rect x="724.5" y="124.8" class="st2" width="97.3" height="17.2"/>
<g>
	<g class="st3">
		<path d="M80.3,475.6c0.4,0.4,0.5,0.8,0.5,1.4c0,0.5-0.1,0.9-0.3,1.3s-0.5,0.9-0.9,1.3c-0.4,0.5-1.1,1.2-2,2.2H81l-0.1,0.5h-4v-0.5
			c1-1,1.7-1.8,2.1-2.3s0.7-0.9,0.9-1.3c0.2-0.4,0.3-0.8,0.3-1.2c0-0.4-0.1-0.8-0.4-1s-0.6-0.4-1-0.4c-0.3,0-0.6,0.1-0.9,0.2
			s-0.5,0.3-0.7,0.6l-0.4-0.3c0.3-0.4,0.6-0.6,0.9-0.8c0.3-0.2,0.7-0.2,1.1-0.2C79.4,475.1,79.9,475.3,80.3,475.6z"/>
		<path d="M86.2,476c0.4,0.6,0.6,1.5,0.6,2.8c0,1.2-0.2,2.1-0.6,2.8c-0.4,0.6-0.9,0.9-1.7,0.9c-0.7,0-1.3-0.3-1.7-0.9
			c-0.4-0.6-0.6-1.5-0.6-2.8s0.2-2.1,0.6-2.8c0.4-0.6,0.9-0.9,1.7-0.9C85.3,475.1,85.8,475.4,86.2,476z M82.9,478.8
			c0,2.1,0.5,3.2,1.6,3.2c0.5,0,0.9-0.3,1.2-0.8s0.4-1.3,0.4-2.4s-0.1-1.9-0.4-2.4s-0.7-0.8-1.2-0.8
			C83.5,475.6,82.9,476.7,82.9,478.8z"/>
		<path d="M90.3,475.2v7.2h-0.6v-6.5l-1.8,1.1l-0.3-0.5l2.1-1.3L90.3,475.2L90.3,475.2z"/>
		<path d="M95.5,475.6c0.4,0.4,0.5,0.8,0.5,1.4c0,0.5-0.1,0.9-0.3,1.3s-0.5,0.9-0.9,1.3c-0.4,0.5-1.1,1.2-2,2.2h3.4l-0.1,0.5h-4
			v-0.5c1-1,1.7-1.8,2.1-2.3s0.7-0.9,0.9-1.3c0.2-0.4,0.3-0.8,0.3-1.2c0-0.4-0.1-0.8-0.4-1s-0.6-0.4-1-0.4c-0.3,0-0.6,0.1-0.9,0.2
			s-0.5,0.3-0.7,0.6l-0.4-0.3c0.3-0.4,0.6-0.6,0.9-0.8c0.3-0.2,0.7-0.2,1.1-0.2C94.7,475.1,95.1,475.3,95.5,475.6z"/>
	</g>
</g>
<g>
	<g class="st3">
		<path d="M188.4,475.6c0.4,0.4,0.5,0.8,0.5,1.4c0,0.5-0.1,0.9-0.3,1.3s-0.5,0.9-0.9,1.3c-0.4,0.5-1.1,1.2-2,2.2h3.4l-0.1,0.5h-4
			v-0.5c1-1,1.7-1.8,2.1-2.3c0.4-0.5,0.7-0.9,0.9-1.3s0.3-0.8,0.3-1.2c0-0.4-0.1-0.8-0.4-1s-0.6-0.4-1-0.4c-0.3,0-0.6,0.1-0.9,0.2
			c-0.3,0.1-0.5,0.3-0.7,0.6l-0.4-0.3c0.3-0.4,0.6-0.6,0.9-0.8c0.3-0.2,0.7-0.2,1.1-0.2C187.5,475.1,188,475.3,188.4,475.6z"/>
		<path d="M194.3,476c0.4,0.6,0.6,1.5,0.6,2.8c0,1.2-0.2,2.1-0.6,2.8c-0.4,0.6-0.9,0.9-1.7,0.9c-0.7,0-1.3-0.3-1.7-0.9
			s-0.6-1.5-0.6-2.8s0.2-2.1,0.6-2.8c0.4-0.6,0.9-0.9,1.7-0.9C193.4,475.1,193.9,475.4,194.3,476z M191,478.8c0,2.1,0.5,3.2,1.6,3.2
			c0.5,0,0.9-0.3,1.2-0.8s0.4-1.3,0.4-2.4s-0.1-1.9-0.4-2.4c-0.3-0.5-0.7-0.8-1.2-0.8C191.6,475.6,191,476.7,191,478.8z"/>
		<path d="M198.4,475.2v7.2h-0.6v-6.5L196,477l-0.3-0.5l2.1-1.3L198.4,475.2L198.4,475.2z"/>
		<path d="M203.2,475.3c0.3,0.2,0.5,0.4,0.7,0.6c0.2,0.3,0.2,0.6,0.2,0.9c0,0.5-0.1,0.8-0.4,1.1c-0.3,0.3-0.6,0.5-1,0.5
			c0.5,0,0.9,0.2,1.2,0.5s0.5,0.7,0.5,1.3c0,0.4-0.1,0.8-0.3,1.1c-0.2,0.3-0.5,0.6-0.8,0.8c-0.3,0.2-0.7,0.3-1.2,0.3
			c-0.8,0-1.5-0.3-2.1-0.9l0.4-0.4c0.2,0.3,0.5,0.5,0.8,0.6s0.6,0.2,0.9,0.2c0.5,0,0.9-0.1,1.2-0.4s0.4-0.7,0.4-1.2
			c0-1-0.5-1.5-1.6-1.5h-0.5l0.1-0.5h0.3c0.4,0,0.8-0.1,1-0.4c0.3-0.2,0.4-0.6,0.4-1.1c0-0.4-0.1-0.7-0.4-0.9
			c-0.3-0.2-0.6-0.3-1-0.3c-0.3,0-0.6,0.1-0.8,0.2c-0.3,0.1-0.5,0.3-0.8,0.5l-0.3-0.4c0.3-0.3,0.6-0.5,0.9-0.6
			c0.3-0.1,0.7-0.2,1.1-0.2C202.5,475.1,202.9,475.2,203.2,475.3z"/>
	</g>
</g>
<g>
	<g class="st3">
		<path d="M296.8,475.6c0.4,0.4,0.5,0.8,0.5,1.4c0,0.5-0.1,0.9-0.3,1.3s-0.5,0.9-0.9,1.3c-0.4,0.5-1.1,1.2-2,2.2h3.4l-0.1,0.5h-4
			v-0.5c1-1,1.7-1.8,2.1-2.3s0.7-0.9,0.9-1.3c0.2-0.4,0.3-0.8,0.3-1.2c0-0.4-0.1-0.8-0.4-1s-0.6-0.4-1-0.4c-0.3,0-0.6,0.1-0.9,0.2
			s-0.5,0.3-0.7,0.6l-0.4-0.3c0.3-0.4,0.6-0.6,0.9-0.8c0.3-0.2,0.7-0.2,1.1-0.2C295.9,475.1,296.4,475.3,296.8,475.6z"/>
		<path d="M302.7,476c0.4,0.6,0.6,1.5,0.6,2.8c0,1.2-0.2,2.1-0.6,2.8c-0.4,0.6-0.9,0.9-1.7,0.9c-0.7,0-1.3-0.3-1.7-0.9
			c-0.4-0.6-0.6-1.5-0.6-2.8s0.2-2.1,0.6-2.8c0.4-0.6,0.9-0.9,1.7-0.9C301.8,475.1,302.3,475.4,302.7,476z M299.4,478.8
			c0,2.1,0.5,3.2,1.6,3.2c0.5,0,0.9-0.3,1.2-0.8s0.4-1.3,0.4-2.4s-0.1-1.9-0.4-2.4s-0.7-0.8-1.2-0.8
			C300,475.6,299.4,476.7,299.4,478.8z"/>
		<path d="M306.8,475.2v7.2h-0.6v-6.5l-1.8,1.1l-0.3-0.5l2.1-1.3L306.8,475.2L306.8,475.2z"/>
		<path d="M313.3,480v0.5h-1v1.9h-0.6v-1.9h-3.1V480l2.2-4.9l0.5,0.2l-2,4.7h2.5l0.1-2.1h0.5v2.1L313.3,480L313.3,480z"/>
	</g>
</g>
<g>
	<g class="st3">
		<path d="M404.7,475.6c0.4,0.4,0.5,0.8,0.5,1.4c0,0.5-0.1,0.9-0.3,1.3s-0.5,0.9-0.9,1.3c-0.4,0.5-1.1,1.2-2,2.2h3.4l-0.1,0.5h-4
			v-0.5c1-1,1.7-1.8,2.1-2.3s0.7-0.9,0.9-1.3c0.2-0.4,0.3-0.8,0.3-1.2c0-0.4-0.1-0.8-0.4-1s-0.6-0.4-1-0.4c-0.3,0-0.6,0.1-0.9,0.2
			s-0.5,0.3-0.7,0.6l-0.4-0.3c0.3-0.4,0.6-0.6,0.9-0.8c0.3-0.2,0.7-0.2,1.1-0.2C403.9,475.1,404.3,475.3,404.7,475.6z"/>
		<path d="M410.6,476c0.4,0.6,0.6,1.5,0.6,2.8c0,1.2-0.2,2.1-0.6,2.8c-0.4,0.6-0.9,0.9-1.7,0.9c-0.7,0-1.3-0.3-1.7-0.9
			c-0.4-0.6-0.6-1.5-0.6-2.8s0.2-2.1,0.6-2.8c0.4-0.6,0.9-0.9,1.7-0.9S410.3,475.4,410.6,476z M407.3,478.8c0,2.1,0.5,3.2,1.6,3.2
			c0.5,0,0.9-0.3,1.2-0.8s0.4-1.3,0.4-2.4s-0.1-1.9-0.4-2.4s-0.7-0.8-1.2-0.8C407.9,475.6,407.3,476.7,407.3,478.8z"/>
		<path d="M414.8,475.2v7.2h-0.6v-6.5l-1.8,1.1l-0.3-0.5l2.1-1.3L414.8,475.2L414.8,475.2z"/>
		<path d="M420.4,475.7h-2.9v2.4c0.4-0.2,0.8-0.3,1.2-0.3c0.6,0,1.1,0.2,1.5,0.6s0.5,0.9,0.5,1.6c0,0.5-0.1,0.9-0.3,1.3
			c-0.2,0.4-0.5,0.7-0.8,0.9c-0.3,0.2-0.8,0.3-1.2,0.3c-0.8,0-1.5-0.3-2-0.9l0.4-0.4c0.2,0.2,0.5,0.4,0.7,0.5
			c0.3,0.1,0.6,0.2,0.9,0.2c0.5,0,0.9-0.2,1.2-0.5s0.4-0.8,0.4-1.4s-0.1-1-0.4-1.3s-0.6-0.4-1.1-0.4c-0.2,0-0.4,0-0.6,0.1
			s-0.4,0.1-0.6,0.3h-0.5v-3.5h3.6L420.4,475.7z"/>
	</g>
</g>
<g>
	<g class="st3">
		<path d="M513.4,475.6c0.4,0.4,0.5,0.8,0.5,1.4c0,0.5-0.1,0.9-0.3,1.3s-0.5,0.9-0.9,1.3c-0.4,0.5-1.1,1.2-2,2.2h3.4l-0.1,0.5h-4
			v-0.5c1-1,1.7-1.8,2.1-2.3c0.4-0.5,0.7-0.9,0.9-1.3s0.3-0.8,0.3-1.2c0-0.4-0.1-0.8-0.4-1s-0.6-0.4-1-0.4c-0.3,0-0.6,0.1-0.9,0.2
			s-0.5,0.3-0.7,0.6l-0.4-0.3c0.3-0.4,0.6-0.6,0.9-0.8c0.3-0.2,0.7-0.2,1.1-0.2C512.6,475.1,513.1,475.3,513.4,475.6z"/>
		<path d="M519.4,476c0.4,0.6,0.6,1.5,0.6,2.8c0,1.2-0.2,2.1-0.6,2.8c-0.4,0.6-0.9,0.9-1.7,0.9c-0.7,0-1.3-0.3-1.7-0.9
			s-0.6-1.5-0.6-2.8s0.2-2.1,0.6-2.8c0.4-0.6,0.9-0.9,1.7-0.9C518.4,475.1,519,475.4,519.4,476z M516.1,478.8c0,2.1,0.5,3.2,1.6,3.2
			c0.5,0,0.9-0.3,1.2-0.8s0.4-1.3,0.4-2.4s-0.1-1.9-0.4-2.4c-0.3-0.5-0.7-0.8-1.2-0.8C516.6,475.6,516.1,476.7,516.1,478.8z"/>
		<path d="M523.5,475.2v7.2h-0.6v-6.5l-1.8,1.1l-0.3-0.5l2.1-1.3L523.5,475.2L523.5,475.2z"/>
		<path d="M529.4,478.3c0.4,0.4,0.5,0.9,0.5,1.7c0,0.5-0.1,1-0.3,1.3c-0.2,0.4-0.4,0.7-0.8,0.9c-0.3,0.2-0.7,0.3-1.1,0.3
			c-0.8,0-1.4-0.3-1.7-0.9c-0.4-0.6-0.5-1.4-0.5-2.4c0-0.8,0.1-1.5,0.3-2.2c0.2-0.6,0.5-1.1,0.9-1.4s0.8-0.5,1.4-0.5
			c0.5,0,0.9,0.1,1.3,0.4l-0.3,0.4c-0.3-0.2-0.7-0.3-1.1-0.3c-0.6,0-1,0.3-1.4,0.9c-0.3,0.6-0.5,1.3-0.5,2.3
			c0.5-0.7,1.1-1.1,1.8-1.1C528.5,477.7,529,477.9,529.4,478.3z M528.9,481.4c0.3-0.4,0.4-0.8,0.4-1.4s-0.1-1-0.4-1.3
			s-0.6-0.4-1-0.4s-0.7,0.1-1,0.3c-0.3,0.2-0.6,0.5-0.8,0.9c0,0.8,0.2,1.5,0.4,1.9c0.3,0.4,0.7,0.7,1.2,0.7
			C528.3,482,528.6,481.8,528.9,481.4z"/>
	</g>
</g>
<g>
	<g class="st3">
		<path d="M621.7,475.6c0.4,0.4,0.5,0.8,0.5,1.4c0,0.5-0.1,0.9-0.3,1.3s-0.5,0.9-0.9,1.3c-0.4,0.5-1.1,1.2-2,2.2h3.4l-0.1,0.5h-4
			v-0.5c1-1,1.7-1.8,2.1-2.3c0.4-0.5,0.7-0.9,0.9-1.3s0.3-0.8,0.3-1.2c0-0.4-0.1-0.8-0.4-1s-0.6-0.4-1-0.4c-0.3,0-0.6,0.1-0.9,0.2
			c-0.3,0.1-0.5,0.3-0.7,0.6l-0.4-0.3c0.3-0.4,0.6-0.6,0.9-0.8c0.3-0.2,0.7-0.2,1.1-0.2C620.9,475.1,621.4,475.3,621.7,475.6z"/>
		<path d="M627.7,476c0.4,0.6,0.6,1.5,0.6,2.8c0,1.2-0.2,2.1-0.6,2.8c-0.4,0.6-0.9,0.9-1.7,0.9c-0.7,0-1.3-0.3-1.7-0.9
			s-0.6-1.5-0.6-2.8s0.2-2.1,0.6-2.8c0.4-0.6,0.9-0.9,1.7-0.9C626.7,475.1,627.3,475.4,627.7,476z M624.4,478.8
			c0,2.1,0.5,3.2,1.6,3.2c0.5,0,0.9-0.3,1.2-0.8s0.4-1.3,0.4-2.4s-0.1-1.9-0.4-2.4c-0.3-0.5-0.7-0.8-1.2-0.8
			C624.9,475.6,624.4,476.7,624.4,478.8z"/>
		<path d="M631.8,475.2v7.2h-0.6v-6.5l-1.8,1.1l-0.3-0.5l2.1-1.3L631.8,475.2L631.8,475.2z"/>
		<path d="M637.4,475.2v0.5l-2.8,6.8l-0.6-0.2l2.8-6.5h-3.3v-0.5L637.4,475.2L637.4,475.2z"/>
	</g>
</g>
<g>
	<g class="st3">
		<path d="M728,475.6c0.4,0.4,0.5,0.8,0.5,1.4c0,0.5-0.1,0.9-0.3,1.3s-0.5,0.9-0.9,1.3c-0.4,0.5-1.1,1.2-2,2.2h3.4l-0.1,0.5h-4v-0.5
			c1-1,1.7-1.8,2.1-2.3c0.4-0.5,0.7-0.9,0.9-1.3s0.3-0.8,0.3-1.2c0-0.4-0.1-0.8-0.4-1s-0.6-0.4-1-0.4c-0.3,0-0.6,0.1-0.9,0.2
			c-0.3,0.1-0.5,0.3-0.7,0.6l-0.4-0.3c0.3-0.4,0.6-0.6,0.9-0.8c0.3-0.2,0.7-0.2,1.1-0.2C727.2,475.1,727.7,475.3,728,475.6z"/>
		<path d="M734,476c0.4,0.6,0.6,1.5,0.6,2.8c0,1.2-0.2,2.1-0.6,2.8c-0.4,0.6-0.9,0.9-1.7,0.9c-0.7,0-1.3-0.3-1.7-0.9
			s-0.6-1.5-0.6-2.8s0.2-2.1,0.6-2.8c0.4-0.6,0.9-0.9,1.7-0.9C733,475.1,733.6,475.4,734,476z M730.7,478.8c0,2.1,0.5,3.2,1.6,3.2
			c0.5,0,0.9-0.3,1.2-0.8s0.4-1.3,0.4-2.4s-0.1-1.9-0.4-2.4c-0.3-0.5-0.7-0.8-1.2-0.8C731.2,475.6,730.7,476.7,730.7,478.8z"/>
		<path d="M738.1,475.2v7.2h-0.6v-6.5l-1.8,1.1l-0.3-0.5l2.1-1.3L738.1,475.2L738.1,475.2z"/>
		<path d="M744.2,479.4c0.3,0.3,0.4,0.7,0.4,1.1s-0.1,0.7-0.3,1s-0.5,0.5-0.8,0.7c-0.4,0.2-0.8,0.2-1.2,0.2s-0.9-0.1-1.2-0.2
			c-0.3-0.2-0.6-0.4-0.8-0.7c-0.2-0.3-0.3-0.6-0.3-1c0-0.9,0.5-1.6,1.5-2c-0.4-0.2-0.7-0.4-0.9-0.7s-0.3-0.6-0.3-1s0.1-0.7,0.3-1
			s0.4-0.5,0.7-0.6s0.6-0.2,1-0.2s0.7,0.1,1,0.2s0.6,0.3,0.7,0.6c0.2,0.3,0.3,0.6,0.3,1s-0.1,0.7-0.3,1s-0.5,0.5-1,0.7
			C743.6,478.8,744,479.1,744.2,479.4z M743.5,481.6c0.3-0.3,0.5-0.6,0.5-1.1c0-0.3-0.1-0.5-0.2-0.7c-0.1-0.2-0.3-0.4-0.5-0.5
			s-0.5-0.3-0.9-0.4l-0.4-0.1c-0.5,0.2-0.8,0.4-1.1,0.7s-0.3,0.7-0.3,1.1c0,0.5,0.2,0.8,0.5,1.1s0.7,0.4,1.2,0.4
			C742.8,482,743.2,481.8,743.5,481.6z M741.2,477.7c0.2,0.2,0.5,0.4,1,0.6l0.3,0.1c0.4-0.2,0.7-0.4,0.9-0.7
			c0.2-0.2,0.3-0.5,0.3-0.8c0-0.4-0.1-0.7-0.4-1c-0.3-0.2-0.6-0.3-1-0.3s-0.7,0.1-1,0.3c-0.3,0.2-0.4,0.5-0.4,1
			C740.9,477.2,741,477.5,741.2,477.7z"/>
	</g>
</g>
<line class="st4" x1="734.2" y1="419" x2="734.2" y2="468.7"/>
<line class="st4" x1="627.6" y1="468.7" x2="627.6" y2="213.3"/>
<line class="st4" x1="519.4" y1="205.8" x2="519.4" y2="468.7"/>
<line class="st4" x1="411.2" y1="182.7" x2="411.2" y2="468.7"/>
<line class="st4" x1="302.5" y1="339.9" x2="302.5" y2="468.7"/>
<line class="st4" x1="194.2" y1="161.6" x2="194.2" y2="468.4"/>
<line class="st4" x1="86.1" y1="195.6" x2="86.1" y2="468.7"/>
<line class="st5" x1="790.5" y1="468.7" x2="32.4" y2="468.7"/>
<polyline class="st6" points="85.8,351.5 194,336.3 302.2,351.5 410.9,182.7 519.1,205.8 627.3,213.3 "/>
<polyline class="st7" points="85.8,195.6 194,161.6 302.3,339.9 410.9,312.8 519.1,300.3 627.3,419 733.9,419 "/>
<g class="st3">
	<path class="st2" d="M803.7,464.7c0.4,0.7,0.6,1.7,0.6,3s-0.2,2.3-0.6,3c-0.4,0.7-1,1-1.8,1s-1.4-0.3-1.8-1c-0.4-0.7-0.6-1.7-0.6-3
		s0.2-2.3,0.6-3c0.4-0.7,1-1,1.8-1S803.3,464,803.7,464.7z M800.1,467.7c0,2.3,0.6,3.5,1.8,3.5c0.6,0,1-0.3,1.3-0.9s0.4-1.4,0.4-2.6
		s-0.1-2.1-0.4-2.6s-0.7-0.9-1.3-0.9C800.7,464.2,800.1,465.4,800.1,467.7z"/>
</g>
<g class="st3">
	<path class="st8" d="M24.4,464.7c0.4,0.7,0.6,1.7,0.6,3s-0.2,2.3-0.6,3s-1,1-1.8,1s-1.4-0.3-1.8-1s-0.6-1.7-0.6-3s0.2-2.3,0.6-3
		s1-1,1.8-1S23.9,464,24.4,464.7z M20.8,467.7c0,2.3,0.6,3.5,1.8,3.5c0.6,0,1-0.3,1.3-0.9s0.4-1.4,0.4-2.6s-0.1-2.1-0.4-2.6
		s-0.7-0.9-1.3-0.9C21.3,464.2,20.8,465.4,20.8,467.7z"/>
</g>
<g class="st3">
	<path class="st8" d="M23.7,386.8v7.9H23v-7.1l-1.9,1.2l-0.3-0.5l2.4-1.5H23.7z"/>
</g>
<g class="st3">
	<path class="st8" d="M23.8,310.3c0.4,0.4,0.6,0.9,0.6,1.5c0,0.5-0.1,1-0.3,1.4c-0.2,0.5-0.5,0.9-1,1.5s-1.2,1.3-2.2,2.4h3.7
		l-0.1,0.6H20v-0.6c1.1-1.2,1.9-2,2.3-2.6c0.5-0.6,0.8-1,1-1.4s0.3-0.8,0.3-1.3s-0.1-0.8-0.4-1.1s-0.6-0.4-1.1-0.4
		c-0.4,0-0.7,0.1-1,0.2c-0.3,0.2-0.5,0.4-0.8,0.7l-0.5-0.4c0.3-0.4,0.7-0.7,1-0.9s0.8-0.3,1.2-0.3C22.9,309.7,23.4,309.9,23.8,310.3
		z"/>
</g>
<g class="st3">
	<path class="st8" d="M23.2,233.1c0.3,0.2,0.6,0.4,0.8,0.7s0.3,0.6,0.3,1c0,0.5-0.1,0.9-0.4,1.2s-0.7,0.5-1.1,0.6
		c0.5,0,0.9,0.2,1.3,0.6c0.3,0.3,0.5,0.8,0.5,1.4c0,0.5-0.1,0.9-0.3,1.2c-0.2,0.4-0.5,0.6-0.9,0.8s-0.8,0.3-1.3,0.3
		c-0.9,0-1.7-0.3-2.3-1l0.4-0.4c0.3,0.3,0.5,0.5,0.8,0.6s0.6,0.2,1,0.2c0.6,0,1-0.2,1.3-0.5s0.5-0.8,0.5-1.3c0-1.1-0.6-1.7-1.8-1.7
		h-0.5l0.1-0.6H22c0.5,0,0.8-0.1,1.1-0.4s0.5-0.7,0.5-1.2c0-0.4-0.1-0.8-0.4-1c-0.3-0.3-0.6-0.4-1.1-0.4c-0.3,0-0.6,0.1-0.9,0.2
		c-0.3,0.1-0.6,0.3-0.8,0.6l-0.4-0.4c0.3-0.3,0.6-0.5,1-0.7c0.3-0.1,0.7-0.2,1.2-0.2C22.5,232.8,22.9,232.9,23.2,233.1z"/>
</g>
<g class="st3">
	<path class="st8" d="M25.3,161.2v0.6h-1.1v2.1h-0.7v-2.1h-3.4v-0.5l2.4-5.4l0.6,0.2l-2.3,5.1h2.7l0.1-2.3h0.6v2.3L25.3,161.2
		L25.3,161.2z"/>
</g>
<g class="st3">
	<path class="st2" d="M802.1,386.5v7.9h-0.7v-7.1l-1.9,1.2l-0.3-0.5l2.4-1.5H802.1z"/>
	<path class="st2" d="M808.6,387.4c0.4,0.7,0.6,1.7,0.6,3s-0.2,2.3-0.6,3c-0.4,0.7-1,1-1.8,1s-1.4-0.3-1.8-1c-0.4-0.7-0.6-1.7-0.6-3
		s0.2-2.3,0.6-3c0.4-0.7,1-1,1.8-1S808.2,386.7,808.6,387.4z M805,390.4c0,2.3,0.6,3.5,1.8,3.5c0.6,0,1-0.3,1.3-0.9s0.4-1.4,0.4-2.6
		s-0.1-2.1-0.4-2.6c-0.3-0.6-0.7-0.9-1.3-0.9C805.6,386.9,805,388.1,805,390.4z"/>
</g>
<g class="st3">
	<path class="st2" d="M802.9,308.3c0.4,0.4,0.6,0.9,0.6,1.5c0,0.5-0.1,1-0.3,1.4c-0.2,0.5-0.5,0.9-1,1.5c-0.5,0.5-1.2,1.3-2.2,2.4
		h3.7l-0.1,0.6h-4.4v-0.6c1.1-1.2,1.9-2,2.3-2.6c0.5-0.6,0.8-1,1-1.4s0.3-0.8,0.3-1.3s-0.1-0.8-0.4-1.1c-0.3-0.3-0.6-0.4-1.1-0.4
		c-0.4,0-0.7,0.1-1,0.2c-0.3,0.2-0.5,0.4-0.8,0.7l-0.5-0.4c0.3-0.4,0.7-0.7,1-0.9s0.8-0.3,1.2-0.3
		C802,307.7,802.5,307.9,802.9,308.3z"/>
	<path class="st2" d="M809.4,308.7c0.4,0.7,0.6,1.7,0.6,3s-0.2,2.3-0.6,3c-0.4,0.7-1,1-1.8,1s-1.4-0.3-1.8-1c-0.4-0.7-0.6-1.7-0.6-3
		s0.2-2.3,0.6-3c0.4-0.7,1-1,1.8-1S809,308,809.4,308.7z M805.8,311.7c0,2.3,0.6,3.5,1.8,3.5c0.6,0,1-0.3,1.3-0.9s0.4-1.4,0.4-2.6
		s-0.1-2.1-0.4-2.6s-0.7-0.9-1.3-0.9C806.4,308.3,805.8,309.4,805.8,311.7z"/>
</g>
<g class="st3">
	<path class="st2" d="M802.4,233.1c0.3,0.2,0.6,0.4,0.8,0.7s0.3,0.6,0.3,1c0,0.5-0.1,0.9-0.4,1.2c-0.3,0.3-0.7,0.5-1.1,0.6
		c0.5,0,0.9,0.2,1.3,0.6c0.3,0.3,0.5,0.8,0.5,1.4c0,0.5-0.1,0.9-0.3,1.2c-0.2,0.4-0.5,0.6-0.9,0.8s-0.8,0.3-1.3,0.3
		c-0.9,0-1.7-0.3-2.3-1l0.4-0.4c0.3,0.3,0.5,0.5,0.8,0.6s0.6,0.2,1,0.2c0.6,0,1-0.2,1.3-0.5s0.5-0.8,0.5-1.3c0-1.1-0.6-1.7-1.8-1.7
		h-0.5l0.1-0.6h0.4c0.5,0,0.8-0.1,1.1-0.4c0.3-0.3,0.5-0.7,0.5-1.2c0-0.4-0.1-0.8-0.4-1c-0.3-0.3-0.6-0.4-1.1-0.4
		c-0.3,0-0.6,0.1-0.9,0.2c-0.3,0.1-0.6,0.3-0.8,0.6l-0.4-0.4c0.3-0.3,0.6-0.5,1-0.7c0.3-0.1,0.7-0.2,1.2-0.2
		C801.7,232.8,802.1,232.9,802.4,233.1z"/>
	<path class="st2" d="M809.5,233.8c0.4,0.7,0.6,1.7,0.6,3s-0.2,2.3-0.6,3c-0.4,0.7-1,1-1.8,1s-1.4-0.3-1.8-1c-0.4-0.7-0.6-1.7-0.6-3
		s0.2-2.3,0.6-3c0.4-0.7,1-1,1.8-1S809.1,233.1,809.5,233.8z M805.9,236.9c0,2.3,0.6,3.5,1.8,3.5c0.6,0,1-0.3,1.3-0.9
		s0.4-1.4,0.4-2.6s-0.1-2.1-0.4-2.6s-0.7-0.9-1.3-0.9C806.5,233.4,805.9,234.5,805.9,236.9z"/>
</g>
<g class="st3">
	<path class="st2" d="M804.3,161.5v0.6h-1.1v2.1h-0.7v-2.1h-3.4v-0.5l2.4-5.4l0.6,0.2l-2.2,5.1h2.7l0.1-2.3h0.6v2.3L804.3,161.5
		L804.3,161.5z"/>
	<path class="st2" d="M809.9,157.2c0.4,0.7,0.6,1.7,0.6,3s-0.2,2.3-0.6,3c-0.4,0.7-1,1-1.8,1s-1.4-0.3-1.8-1c-0.4-0.7-0.6-1.7-0.6-3
		s0.2-2.3,0.6-3c0.4-0.7,1-1,1.8-1C808.8,156.2,809.4,156.5,809.9,157.2z M806.3,160.2c0,2.3,0.6,3.5,1.8,3.5c0.6,0,1-0.3,1.3-0.9
		s0.4-1.4,0.4-2.6s-0.1-2.1-0.4-2.6s-0.7-0.9-1.3-0.9C806.8,156.8,806.3,157.9,806.3,160.2z"/>
</g>
<circle class="st9" cx="86.1" cy="195.3" r="3.5"/>
<circle class="st10" cx="86.1" cy="351.5" r="3.5"/>
<circle class="st9" cx="194.2" cy="161.6" r="3.5"/>
<circle class="st10" cx="194.2" cy="336.1" r="3.5"/>
<circle class="st9" cx="302.5" cy="339.9" r="3.5"/>
<circle class="st10" cx="302.5" cy="351.5" r="3.5"/>
<circle class="st9" cx="411.2" cy="312.8" r="3.5"/>
<circle class="st10" cx="411.2" cy="182.7" r="3.5"/>
<circle class="st10" cx="519.4" cy="205.8" r="3.5"/>
<circle class="st9" cx="519.4" cy="300.3" r="3.5"/>
<circle class="st10" cx="627.6" cy="213.3" r="3.5"/>
<circle class="st9" cx="627.6" cy="419" r="3.5"/>
<circle class="st9" cx="734.2" cy="419" r="3.5"/>
<line class="st11" x1="32.4" y1="468.7" x2="32.4" y2="158.1"/>
<line class="st12" x1="32.4" y1="390.8" x2="790.5" y2="390.8"/>
<line class="st12" x1="32.4" y1="313.4" x2="790.5" y2="313.4"/>
<line class="st12" x1="32.4" y1="237.4" x2="790.5" y2="237.4"/>
<line class="st12" x1="32.4" y1="158.1" x2="790.5" y2="158.1"/>
<line class="st12" x1="790.5" y1="468.7" x2="790.5" y2="158.1"/>
<g class="st3">
	<path class="st13" d="M16.5,103.1c0.3,0.1,0.6,0.3,1,0.6l-0.4,0.4c-0.3-0.2-0.6-0.4-0.8-0.5c-0.2-0.1-0.6-0.2-0.9-0.2
		c-0.5,0-0.8,0.1-1.1,0.3c-0.3,0.2-0.4,0.5-0.4,0.9c0,0.3,0.1,0.5,0.2,0.6c0.1,0.2,0.3,0.3,0.5,0.5s0.6,0.3,1,0.4
		c0.5,0.2,0.9,0.3,1.2,0.5c0.3,0.2,0.5,0.4,0.7,0.7c0.2,0.3,0.2,0.6,0.2,1s-0.1,0.8-0.3,1.1c-0.2,0.3-0.5,0.6-0.9,0.8
		c-0.4,0.2-0.8,0.3-1.3,0.3c-0.9,0-1.7-0.3-2.4-0.9l0.4-0.4c0.3,0.3,0.6,0.5,0.9,0.6c0.3,0.1,0.7,0.2,1.1,0.2c0.5,0,1-0.1,1.3-0.4
		c0.3-0.3,0.5-0.7,0.5-1.1c0-0.3-0.1-0.5-0.2-0.7c-0.1-0.2-0.3-0.4-0.5-0.5s-0.6-0.3-1-0.4c-0.8-0.2-1.3-0.5-1.6-0.8
		s-0.5-0.7-0.5-1.2c0-0.3,0.1-0.7,0.3-0.9s0.4-0.5,0.8-0.6s0.7-0.2,1.1-0.2C15.8,102.9,16.2,103,16.5,103.1z"/>
	<path class="st13" d="M22,110.2c-0.4,0.2-0.8,0.4-1.2,0.4c-0.4,0-0.8-0.1-1-0.4s-0.4-0.6-0.4-1.1v-3.8h-0.9v-0.5h0.9v-1.3l0.6-0.1
		v1.4h1.5l-0.1,0.5H20v3.7c0,0.3,0.1,0.6,0.2,0.7c0.1,0.2,0.3,0.2,0.6,0.2c0.3,0,0.6-0.1,0.9-0.2L22,110.2z"/>
	<path class="st13" d="M23.8,102.5c0.1,0.1,0.1,0.2,0.1,0.3c0,0.1,0,0.2-0.1,0.3c-0.1,0.1-0.2,0.1-0.3,0.1c-0.1,0-0.2,0-0.3-0.1
		c-0.1-0.1-0.1-0.2-0.1-0.3c0-0.1,0-0.2,0.1-0.3c0.1-0.1,0.2-0.1,0.3-0.1C23.6,102.3,23.7,102.4,23.8,102.5z M23.7,104.8v5.6h-0.6
		v-5.6H23.7z"/>
	<path class="st13" d="M32.6,105.1c0.3,0.3,0.4,0.7,0.4,1.3v4h-0.6v-3.9c0-0.4-0.1-0.8-0.3-1c-0.2-0.2-0.4-0.3-0.7-0.3
		c-0.3,0-0.6,0.1-0.9,0.3c-0.3,0.2-0.5,0.5-0.7,0.9v4.1h-0.6v-3.9c0-0.4-0.1-0.8-0.3-1c-0.2-0.2-0.4-0.3-0.7-0.3
		c-0.3,0-0.6,0.1-0.9,0.3c-0.3,0.2-0.5,0.5-0.7,0.9v4.1H26V105h0.5l0.1,1c0.2-0.3,0.5-0.6,0.8-0.8c0.3-0.2,0.6-0.3,1-0.3
		s0.7,0.1,0.9,0.3s0.4,0.5,0.5,0.8c0.2-0.4,0.5-0.6,0.8-0.8s0.6-0.3,1-0.3C32,104.7,32.3,104.8,32.6,105.1z"/>
	<path class="st13" d="M39.2,110.4h-0.5v-1c-0.4,0.7-1.1,1.1-1.8,1.1c-0.5,0-0.9-0.1-1.2-0.4s-0.4-0.7-0.4-1.3v-4h0.6v4
		c0,0.4,0.1,0.8,0.3,1s0.5,0.3,0.8,0.3c0.7,0,1.2-0.4,1.6-1.2v-4.1h0.6C39.2,104.8,39.2,110.4,39.2,110.4z"/>
	<path class="st13" d="M41.7,110.3c-0.2-0.2-0.3-0.4-0.3-0.8v-7l0.6-0.1v7c0,0.4,0.2,0.5,0.5,0.5c0.2,0,0.3,0,0.4-0.1l0.2,0.5
		c-0.2,0.1-0.4,0.2-0.6,0.2C42.1,110.6,41.8,110.5,41.7,110.3z"/>
	<path class="st13" d="M48.1,109.8c0.1,0.1,0.2,0.2,0.4,0.3l-0.1,0.4c-0.3,0-0.5-0.1-0.6-0.3s-0.2-0.4-0.3-0.7
		c-0.4,0.6-1,0.9-1.8,0.9c-0.5,0-1-0.2-1.3-0.5s-0.5-0.7-0.5-1.2c0-0.6,0.2-1,0.6-1.3c0.4-0.3,1-0.5,1.7-0.5h1.1v-0.5
		c0-0.5-0.1-0.8-0.3-1s-0.5-0.3-1-0.3c-0.4,0-0.9,0.1-1.5,0.3l-0.2-0.5c0.6-0.3,1.2-0.4,1.8-0.4c1.2,0,1.8,0.6,1.8,1.8v2.7
		C47.9,109.5,48,109.7,48.1,109.8z M47.3,109.1v-1.6h-1c-0.6,0-1,0.1-1.3,0.3c-0.3,0.2-0.5,0.6-0.5,1s0.1,0.7,0.3,0.9
		c0.2,0.2,0.5,0.3,0.9,0.3C46.4,110,47,109.7,47.3,109.1z"/>
	<path class="st13" d="M53.9,105.1c0.3,0.3,0.4,0.7,0.4,1.3v4h-0.6v-3.9c0-0.5-0.1-0.8-0.3-1s-0.4-0.3-0.8-0.3c-0.4,0-0.7,0.1-1,0.3
		s-0.5,0.5-0.8,0.9v4.1h-0.6v-5.6h0.5l0.1,1c0.2-0.3,0.5-0.6,0.8-0.8s0.7-0.3,1.1-0.3C53.2,104.7,53.6,104.8,53.9,105.1z"/>
	<path class="st13" d="M59.1,110.2c-0.4,0.2-0.8,0.4-1.2,0.4s-0.8-0.1-1-0.4s-0.4-0.6-0.4-1.1v-3.8h-0.9v-0.5h0.9v-1.3l0.6-0.1v1.4
		h1.5l-0.1,0.5h-1.4v3.7c0,0.3,0.1,0.6,0.2,0.7c0.1,0.2,0.3,0.2,0.6,0.2s0.6-0.1,0.9-0.2L59.1,110.2z"/>
	<path class="st13" d="M62.5,104.8c0.3,0.1,0.6,0.3,0.8,0.5l-0.3,0.4c-0.3-0.2-0.5-0.3-0.7-0.4s-0.5-0.1-0.8-0.1
		c-0.4,0-0.7,0.1-0.9,0.3c-0.2,0.2-0.3,0.4-0.3,0.7c0,0.3,0.1,0.5,0.3,0.6c0.2,0.2,0.6,0.3,1.1,0.4c0.6,0.2,1.1,0.4,1.4,0.6
		c0.3,0.3,0.4,0.6,0.4,1.1s-0.2,0.9-0.6,1.2c-0.4,0.3-0.9,0.4-1.5,0.4c-0.4,0-0.8-0.1-1.1-0.2s-0.6-0.3-0.9-0.5l0.3-0.4
		c0.3,0.2,0.5,0.4,0.8,0.4c0.3,0.1,0.6,0.1,0.9,0.1c0.4,0,0.8-0.1,1-0.3s0.4-0.5,0.4-0.8c0-0.2,0-0.4-0.1-0.6
		c-0.1-0.1-0.2-0.3-0.4-0.4s-0.5-0.2-0.9-0.3c-0.6-0.2-1-0.4-1.3-0.6s-0.4-0.6-0.4-0.9s0.1-0.5,0.2-0.8c0.2-0.2,0.4-0.4,0.7-0.5
		s0.6-0.2,1-0.2C61.9,104.7,62.2,104.7,62.5,104.8z"/>
	<path class="st13" d="M72.1,110.4h-0.5v-1c-0.4,0.7-1.1,1.1-1.8,1.1c-0.5,0-0.9-0.1-1.2-0.4c-0.3-0.3-0.4-0.7-0.4-1.3v-4h0.6v4
		c0,0.4,0.1,0.8,0.3,1c0.2,0.2,0.5,0.3,0.8,0.3c0.7,0,1.2-0.4,1.6-1.2v-4.1h0.6V110.4z"/>
	<path class="st13" d="M76.8,104.8c0.3,0.1,0.6,0.3,0.8,0.5l-0.3,0.4c-0.3-0.2-0.5-0.3-0.7-0.4s-0.5-0.1-0.8-0.1
		c-0.4,0-0.7,0.1-0.9,0.3c-0.2,0.2-0.3,0.4-0.3,0.7c0,0.3,0.1,0.5,0.3,0.6c0.2,0.2,0.6,0.3,1.1,0.4c0.6,0.2,1.1,0.4,1.4,0.6
		c0.3,0.3,0.4,0.6,0.4,1.1s-0.2,0.9-0.6,1.2c-0.4,0.3-0.9,0.4-1.5,0.4c-0.4,0-0.8-0.1-1.1-0.2c-0.3-0.1-0.6-0.3-0.9-0.5l0.3-0.4
		c0.3,0.2,0.5,0.4,0.8,0.4c0.3,0.1,0.6,0.1,0.9,0.1c0.4,0,0.8-0.1,1-0.3s0.4-0.5,0.4-0.8c0-0.2,0-0.4-0.1-0.6
		c-0.1-0.1-0.2-0.3-0.4-0.4c-0.2-0.1-0.5-0.2-0.9-0.3c-0.6-0.2-1-0.4-1.3-0.6S74,106.3,74,106s0.1-0.5,0.2-0.8
		c0.2-0.2,0.4-0.4,0.7-0.5c0.3-0.1,0.6-0.2,1-0.2C76.1,104.7,76.5,104.7,76.8,104.8z"/>
	<path class="st13" d="M83.4,107.9h-3.8c0,0.7,0.2,1.3,0.5,1.6c0.3,0.4,0.7,0.5,1.2,0.5c0.3,0,0.6,0,0.8-0.1
		c0.2-0.1,0.5-0.2,0.7-0.4l0.3,0.4c-0.3,0.2-0.6,0.4-0.9,0.5s-0.6,0.2-1,0.2c-0.7,0-1.3-0.3-1.8-0.8c-0.4-0.5-0.6-1.2-0.6-2.1
		c0-0.6,0.1-1.1,0.3-1.6c0.2-0.4,0.4-0.8,0.8-1c0.3-0.2,0.7-0.4,1.2-0.4c0.7,0,1.3,0.2,1.6,0.7c0.4,0.5,0.6,1.2,0.6,2
		C83.4,107.6,83.4,107.7,83.4,107.9z M82.8,107.2c0-0.6-0.1-1.1-0.4-1.5s-0.7-0.5-1.2-0.5s-0.8,0.2-1.1,0.5
		c-0.3,0.4-0.4,0.9-0.5,1.6L82.8,107.2L82.8,107.2z"/>
	<path class="st13" d="M87.9,104.7l-0.1,0.6c-0.2,0-0.3-0.1-0.5-0.1c-0.4,0-0.7,0.1-0.9,0.4c-0.2,0.3-0.4,0.7-0.6,1.3v3.4h-0.6v-5.6
		h0.5l0.1,1.3c0.2-0.5,0.4-0.8,0.6-1c0.3-0.2,0.6-0.3,1-0.3C87.6,104.7,87.8,104.7,87.9,104.7z"/>
	<path class="st13" d="M91.3,104.8c0.3,0.1,0.6,0.3,0.8,0.5l-0.3,0.4c-0.3-0.2-0.5-0.3-0.7-0.4s-0.5-0.1-0.8-0.1
		c-0.4,0-0.7,0.1-0.9,0.3c-0.2,0.2-0.3,0.4-0.3,0.7c0,0.3,0.1,0.5,0.3,0.6c0.2,0.2,0.6,0.3,1.1,0.4c0.6,0.2,1.1,0.4,1.4,0.6
		c0.3,0.3,0.4,0.6,0.4,1.1s-0.2,0.9-0.6,1.2c-0.4,0.3-0.9,0.4-1.5,0.4c-0.4,0-0.8-0.1-1.1-0.2c-0.3-0.1-0.6-0.3-0.9-0.5l0.3-0.4
		c0.3,0.2,0.5,0.4,0.8,0.4c0.3,0.1,0.6,0.1,0.9,0.1c0.4,0,0.8-0.1,1-0.3s0.4-0.5,0.4-0.8c0-0.2,0-0.4-0.1-0.6
		c-0.1-0.1-0.2-0.3-0.4-0.4c-0.2-0.1-0.5-0.2-0.9-0.3c-0.6-0.2-1-0.4-1.3-0.6s-0.4-0.6-0.4-0.9s0.1-0.5,0.2-0.8
		c0.2-0.2,0.4-0.4,0.7-0.5c0.3-0.1,0.6-0.2,1-0.2C90.7,104.7,91.1,104.7,91.3,104.8z"/>
</g>
<g class="st3">
	<path class="st13" d="M17.3,122.7c0.1,0.1,0.2,0.2,0.4,0.3l-0.1,0.4c-0.3,0-0.5-0.1-0.6-0.3c-0.1-0.2-0.2-0.4-0.3-0.7
		c-0.4,0.6-1,0.9-1.8,0.9c-0.5,0-1-0.2-1.3-0.5s-0.5-0.7-0.5-1.2c0-0.6,0.2-1,0.6-1.3c0.4-0.3,1-0.5,1.7-0.5h1.1v-0.5
		c0-0.5-0.1-0.8-0.3-1c-0.2-0.2-0.5-0.3-1-0.3c-0.4,0-0.9,0.1-1.5,0.3l-0.2-0.5c0.6-0.3,1.2-0.4,1.8-0.4c1.2,0,1.8,0.6,1.8,1.8v2.7
		C17.1,122.4,17.2,122.6,17.3,122.7z M16.5,122v-1.6h-1c-0.6,0-1,0.1-1.3,0.3c-0.3,0.2-0.5,0.6-0.5,1s0.1,0.7,0.3,0.9
		c0.2,0.2,0.5,0.3,0.9,0.3C15.6,122.9,16.2,122.6,16.5,122z"/>
	<path class="st13" d="M26,118c0.3,0.3,0.4,0.7,0.4,1.3v4h-0.6v-3.9c0-0.4-0.1-0.8-0.3-1c-0.2-0.2-0.4-0.3-0.7-0.3
		c-0.3,0-0.6,0.1-0.9,0.3c-0.3,0.2-0.5,0.5-0.7,0.9v4.1h-0.6v-3.9c0-0.4-0.1-0.8-0.3-1c-0.2-0.2-0.4-0.3-0.7-0.3
		c-0.3,0-0.6,0.1-0.9,0.3c-0.3,0.2-0.5,0.5-0.7,0.9v4.1h-0.6v-5.6H20l0.1,1c0.2-0.3,0.5-0.6,0.8-0.8c0.3-0.2,0.6-0.3,1-0.3
		s0.7,0.1,0.9,0.3s0.4,0.5,0.5,0.8c0.2-0.4,0.5-0.6,0.8-0.8s0.6-0.3,1-0.3C25.4,117.6,25.7,117.7,26,118z"/>
	<path class="st13" d="M32.3,118.4c0.4,0.5,0.6,1.2,0.6,2.1s-0.2,1.6-0.6,2.2c-0.4,0.5-1,0.8-1.8,0.8c-0.7,0-1.3-0.3-1.7-0.8
		s-0.6-1.2-0.6-2.1c0-0.6,0.1-1.1,0.3-1.6s0.5-0.8,0.8-1c0.4-0.2,0.8-0.4,1.3-0.4C31.3,117.6,31.9,117.8,32.3,118.4z M29.3,118.7
		c-0.3,0.4-0.5,1-0.5,1.8s0.1,1.4,0.4,1.8s0.7,0.6,1.3,0.6c0.5,0,1-0.2,1.3-0.6c0.3-0.4,0.5-1,0.5-1.8s-0.1-1.4-0.4-1.8
		s-0.7-0.6-1.3-0.6S29.6,118.3,29.3,118.7z"/>
	<path class="st13" d="M38.4,118c0.3,0.3,0.4,0.7,0.4,1.3v4h-0.6v-3.9c0-0.5-0.1-0.8-0.3-1s-0.4-0.3-0.8-0.3c-0.4,0-0.7,0.1-1,0.3
		s-0.5,0.5-0.8,0.9v4.1h-0.6v-5.6h0.5l0.1,1c0.2-0.3,0.5-0.6,0.8-0.8s0.7-0.3,1.1-0.3C37.7,117.6,38.1,117.7,38.4,118z"/>
	<path class="st13" d="M45.2,117.8c-0.3,0.1-0.9,0.1-1.6,0.2c0.6,0.3,1,0.8,1,1.5c0,0.6-0.2,1-0.5,1.3c-0.4,0.3-0.9,0.5-1.5,0.5
		c-0.3,0-0.5,0-0.7-0.1c-0.1,0.1-0.2,0.2-0.3,0.3c-0.1,0.1-0.1,0.2-0.1,0.4c0,0.4,0.3,0.6,0.9,0.6h0.9c0.6,0,1,0.1,1.3,0.4
		s0.5,0.6,0.5,1c0,0.5-0.2,0.9-0.6,1.2c-0.4,0.3-1,0.4-1.8,0.4s-1.4-0.1-1.8-0.4c-0.4-0.3-0.5-0.7-0.5-1.2H41c0,0.3,0.1,0.5,0.2,0.6
		c0.1,0.2,0.3,0.3,0.5,0.3c0.3,0.1,0.6,0.1,1.1,0.1c0.6,0,1.1-0.1,1.4-0.3c0.3-0.2,0.4-0.4,0.4-0.8c0-0.3-0.1-0.5-0.3-0.7
		s-0.5-0.2-0.9-0.2h-0.9c-0.4,0-0.8-0.1-1-0.3c-0.2-0.2-0.4-0.4-0.4-0.7c0-0.2,0.1-0.4,0.2-0.5c0.1-0.2,0.3-0.3,0.5-0.4
		c-0.3-0.2-0.6-0.4-0.7-0.6c-0.2-0.3-0.2-0.6-0.2-0.9c0-0.6,0.2-1,0.6-1.4c0.4-0.4,0.9-0.5,1.5-0.5c0.7,0,1.2,0,1.5-0.1
		s0.6-0.2,1-0.3L45.2,117.8z M41.5,118.5c-0.2,0.3-0.4,0.6-0.4,1s0.1,0.8,0.4,1s0.6,0.4,1,0.4c0.5,0,0.8-0.1,1.1-0.4
		c0.2-0.2,0.4-0.6,0.4-1c0-0.5-0.1-0.8-0.4-1.1c-0.2-0.3-0.6-0.4-1.1-0.4C42.1,118.1,41.7,118.2,41.5,118.5z"/>
	<path class="st13" d="M50.4,116.1c-0.2,0.2-0.2,0.4-0.2,0.7v0.9h1.5l-0.1,0.5h-1.4v5.1h-0.6v-5.1h-1v-0.5h1v-0.9
		c0-0.4,0.1-0.8,0.4-1.1s0.7-0.4,1.1-0.4c0.4,0,0.9,0.1,1.3,0.3l-0.2,0.5c-0.4-0.2-0.7-0.2-1.1-0.2
		C50.8,115.8,50.6,115.9,50.4,116.1z"/>
	<path class="st13" d="M56.9,123.3h-0.5v-1c-0.4,0.7-1.1,1.1-1.8,1.1c-0.5,0-0.9-0.1-1.2-0.4s-0.4-0.7-0.4-1.3v-4h0.6v4
		c0,0.4,0.1,0.8,0.3,1s0.5,0.3,0.8,0.3c0.7,0,1.2-0.4,1.6-1.2v-4.1h0.6C56.9,117.7,56.9,123.3,56.9,123.3z"/>
	<path class="st13" d="M59.4,123.2c-0.2-0.2-0.3-0.4-0.3-0.8v-7l0.6-0.1v7c0,0.4,0.2,0.5,0.5,0.5c0.2,0,0.3,0,0.4-0.1l0.2,0.5
		c-0.2,0.1-0.4,0.2-0.6,0.2C59.8,123.5,59.5,123.4,59.4,123.2z"/>
	<path class="st13" d="M62.4,123.2c-0.2-0.2-0.3-0.4-0.3-0.8v-7l0.6-0.1v7c0,0.4,0.2,0.5,0.5,0.5c0.2,0,0.3,0,0.4-0.1l0.2,0.5
		c-0.2,0.1-0.4,0.2-0.6,0.2C62.8,123.5,62.6,123.4,62.4,123.2z"/>
	<path class="st13" d="M64.7,120.2v-0.5h2.9v0.5H64.7z"/>
	<path class="st13" d="M72,123.1c-0.4,0.2-0.8,0.4-1.2,0.4c-0.4,0-0.8-0.1-1-0.4s-0.4-0.6-0.4-1.1v-3.8h-0.9v-0.5h0.9v-1.3l0.6-0.1
		v1.4h1.5l-0.1,0.5H70v3.7c0,0.3,0.1,0.6,0.2,0.7c0.1,0.2,0.3,0.2,0.6,0.2c0.3,0,0.6-0.1,0.9-0.2L72,123.1z"/>
	<path class="st13" d="M73.7,115.4c0.1,0.1,0.1,0.2,0.1,0.3c0,0.1,0,0.2-0.1,0.3c-0.1,0.1-0.2,0.1-0.3,0.1c-0.1,0-0.2,0-0.3-0.1
		c-0.1-0.1-0.1-0.2-0.1-0.3c0-0.1,0-0.2,0.1-0.3c0.1-0.1,0.2-0.1,0.3-0.1C73.5,115.2,73.7,115.3,73.7,115.4z M73.7,117.7v5.6h-0.6
		v-5.6H73.7z"/>
	<path class="st13" d="M82.6,118c0.3,0.3,0.4,0.7,0.4,1.3v4h-0.6v-3.9c0-0.4-0.1-0.8-0.3-1c-0.2-0.2-0.4-0.3-0.7-0.3
		c-0.3,0-0.6,0.1-0.9,0.3c-0.3,0.2-0.5,0.5-0.7,0.9v4.1h-0.6v-3.9c0-0.4-0.1-0.8-0.3-1c-0.2-0.2-0.4-0.3-0.7-0.3
		c-0.3,0-0.6,0.1-0.9,0.3c-0.3,0.2-0.5,0.5-0.7,0.9v4.1H76v-5.6h0.5l0.1,1c0.2-0.3,0.5-0.6,0.8-0.8c0.3-0.2,0.6-0.3,1-0.3
		s0.7,0.1,0.9,0.3s0.4,0.5,0.5,0.8c0.2-0.4,0.5-0.6,0.8-0.8s0.6-0.3,1-0.3C81.9,117.6,82.3,117.7,82.6,118z"/>
	<path class="st13" d="M89.2,120.8h-3.8c0,0.7,0.2,1.3,0.5,1.6c0.3,0.4,0.7,0.5,1.2,0.5c0.3,0,0.6,0,0.8-0.1
		c0.2-0.1,0.5-0.2,0.7-0.4l0.3,0.4c-0.3,0.2-0.6,0.4-0.9,0.5s-0.6,0.2-1,0.2c-0.7,0-1.3-0.3-1.8-0.8c-0.4-0.5-0.6-1.2-0.6-2.1
		c0-0.6,0.1-1.1,0.3-1.6c0.2-0.4,0.4-0.8,0.8-1c0.3-0.2,0.7-0.4,1.2-0.4c0.7,0,1.3,0.2,1.6,0.7c0.4,0.5,0.6,1.2,0.6,2
		C89.2,120.5,89.2,120.6,89.2,120.8z M88.6,120.1c0-0.6-0.1-1.1-0.4-1.5s-0.7-0.5-1.2-0.5s-0.8,0.2-1.1,0.5
		c-0.3,0.4-0.4,0.9-0.5,1.6L88.6,120.1L88.6,120.1z"/>
</g>
<g class="st3">
	<path class="st13" d="M16.4,130.6c0.3,0.1,0.5,0.2,0.7,0.4l-0.3,0.4c-0.2-0.2-0.4-0.3-0.6-0.3c-0.2-0.1-0.4-0.1-0.7-0.1
		c-0.5,0-1,0.2-1.3,0.6s-0.5,1-0.5,1.8s0.2,1.4,0.5,1.8c0.3,0.4,0.7,0.6,1.3,0.6c0.3,0,0.5,0,0.7-0.1c0.2-0.1,0.4-0.2,0.6-0.4
		l0.3,0.4c-0.5,0.4-1,0.6-1.6,0.6c-0.5,0-0.9-0.1-1.3-0.3c-0.4-0.2-0.6-0.6-0.8-1s-0.3-1-0.3-1.6s0.1-1.1,0.3-1.6
		c0.2-0.4,0.5-0.8,0.8-1c0.4-0.2,0.8-0.4,1.2-0.4C15.9,130.5,16.2,130.5,16.4,130.6z"/>
	<path class="st13" d="M22.2,131.3c0.4,0.5,0.6,1.2,0.6,2.1c0,0.9-0.2,1.6-0.6,2.2c-0.4,0.5-1,0.8-1.8,0.8c-0.7,0-1.3-0.3-1.7-0.8
		c-0.4-0.5-0.6-1.2-0.6-2.1c0-0.6,0.1-1.1,0.3-1.6s0.5-0.8,0.8-1c0.4-0.2,0.8-0.4,1.3-0.4C21.2,130.5,21.8,130.7,22.2,131.3z
		 M19.2,131.6c-0.3,0.4-0.5,1-0.5,1.8s0.1,1.4,0.4,1.8s0.7,0.6,1.3,0.6c0.5,0,1-0.2,1.3-0.6s0.5-1,0.5-1.8s-0.1-1.4-0.4-1.8
		S21,131,20.4,131C19.9,131,19.5,131.2,19.2,131.6z"/>
	<path class="st13" d="M24.9,136.1c-0.2-0.2-0.3-0.4-0.3-0.8v-7l0.6-0.1v7c0,0.4,0.2,0.5,0.5,0.5c0.2,0,0.3,0,0.4-0.1l0.2,0.5
		c-0.2,0.1-0.4,0.2-0.6,0.2C25.3,136.4,25,136.3,24.9,136.1z"/>
	<path class="st13" d="M27.9,136.1c-0.2-0.2-0.3-0.4-0.3-0.8v-7l0.6-0.1v7c0,0.4,0.2,0.5,0.5,0.5c0.2,0,0.3,0,0.4-0.1l0.2,0.5
		c-0.2,0.1-0.4,0.2-0.6,0.2C28.3,136.4,28.1,136.3,27.9,136.1z"/>
	<path class="st13" d="M34.7,133.7h-3.8c0,0.7,0.2,1.3,0.5,1.6c0.3,0.4,0.7,0.5,1.2,0.5c0.3,0,0.6,0,0.8-0.1
		c0.2-0.1,0.5-0.2,0.7-0.4l0.3,0.4c-0.3,0.2-0.6,0.4-0.9,0.5c-0.3,0.1-0.6,0.2-1,0.2c-0.7,0-1.3-0.3-1.8-0.8
		c-0.4-0.5-0.6-1.2-0.6-2.1c0-0.6,0.1-1.1,0.3-1.6c0.2-0.4,0.4-0.8,0.8-1c0.3-0.2,0.7-0.4,1.2-0.4c0.7,0,1.3,0.2,1.6,0.7
		c0.4,0.5,0.6,1.2,0.6,2C34.7,133.4,34.7,133.5,34.7,133.7z M34.1,133c0-0.6-0.1-1.1-0.4-1.5S33,131,32.5,131s-0.8,0.2-1.1,0.5
		c-0.3,0.4-0.4,0.9-0.5,1.6h3.2V133z"/>
	<path class="st13" d="M40.7,130.7c-0.3,0.1-0.9,0.1-1.6,0.2c0.6,0.3,1,0.8,1,1.5c0,0.6-0.2,1-0.5,1.3c-0.4,0.3-0.9,0.5-1.5,0.5
		c-0.3,0-0.5,0-0.7-0.1c-0.1,0.1-0.2,0.2-0.3,0.3s-0.1,0.2-0.1,0.4c0,0.4,0.3,0.6,0.9,0.6h0.9c0.6,0,1,0.1,1.3,0.4
		c0.3,0.3,0.5,0.6,0.5,1c0,0.5-0.2,0.9-0.6,1.2c-0.4,0.3-1,0.4-1.8,0.4s-1.4-0.1-1.8-0.4c-0.4-0.3-0.5-0.7-0.5-1.2h0.6
		c0,0.3,0.1,0.5,0.2,0.6c0.1,0.2,0.3,0.3,0.5,0.3c0.3,0.1,0.6,0.1,1.1,0.1c0.6,0,1.1-0.1,1.4-0.3c0.3-0.2,0.4-0.4,0.4-0.8
		c0-0.3-0.1-0.5-0.3-0.7s-0.5-0.2-0.9-0.2H38c-0.4,0-0.8-0.1-1-0.3s-0.4-0.4-0.4-0.7c0-0.2,0.1-0.4,0.2-0.5c0.1-0.2,0.3-0.3,0.5-0.4
		c-0.3-0.2-0.6-0.4-0.7-0.6c-0.2-0.3-0.2-0.6-0.2-0.9c0-0.6,0.2-1,0.6-1.4c0.4-0.4,0.9-0.5,1.5-0.5c0.7,0,1.2,0,1.5-0.1
		s0.6-0.2,1-0.3L40.7,130.7z M37,131.4c-0.2,0.3-0.4,0.6-0.4,1s0.1,0.8,0.4,1s0.6,0.4,1,0.4c0.5,0,0.8-0.1,1.1-0.4
		c0.2-0.2,0.4-0.6,0.4-1c0-0.5-0.1-0.8-0.4-1.1c-0.2-0.3-0.6-0.4-1.1-0.4C37.6,131,37.2,131.1,37,131.4z"/>
	<path class="st13" d="M45.7,133.7H42c0,0.7,0.2,1.3,0.5,1.6c0.3,0.4,0.7,0.5,1.2,0.5c0.3,0,0.6,0,0.8-0.1s0.5-0.2,0.7-0.4l0.3,0.4
		c-0.3,0.2-0.6,0.4-0.9,0.5c-0.3,0.1-0.6,0.2-1,0.2c-0.7,0-1.3-0.3-1.8-0.8c-0.4-0.5-0.6-1.2-0.6-2.1c0-0.6,0.1-1.1,0.3-1.6
		c0.2-0.4,0.4-0.8,0.8-1c0.3-0.2,0.7-0.4,1.2-0.4c0.7,0,1.3,0.2,1.6,0.7c0.4,0.5,0.6,1.2,0.6,2C45.8,133.4,45.8,133.5,45.7,133.7z
		 M45.2,133c0-0.6-0.1-1.1-0.4-1.5c-0.3-0.4-0.7-0.5-1.2-0.5s-0.8,0.2-1.1,0.5c-0.3,0.4-0.4,0.9-0.5,1.6h3.2V133z"/>
	<path class="st13" d="M52.9,130.6c0.3,0.1,0.6,0.3,0.8,0.5l-0.3,0.4c-0.3-0.2-0.5-0.3-0.7-0.4c-0.2-0.1-0.5-0.1-0.8-0.1
		c-0.4,0-0.7,0.1-0.9,0.3s-0.3,0.4-0.3,0.7s0.1,0.5,0.3,0.6c0.2,0.2,0.6,0.3,1.1,0.4c0.6,0.2,1.1,0.4,1.4,0.6
		c0.3,0.3,0.4,0.6,0.4,1.1s-0.2,0.9-0.6,1.2c-0.4,0.3-0.9,0.4-1.5,0.4c-0.4,0-0.8-0.1-1.1-0.2c-0.3-0.1-0.6-0.3-0.9-0.5l0.3-0.4
		c0.3,0.2,0.5,0.4,0.8,0.4c0.3,0.1,0.6,0.1,0.9,0.1c0.4,0,0.8-0.1,1-0.3s0.4-0.5,0.4-0.8c0-0.2,0-0.4-0.1-0.6
		c-0.1-0.1-0.2-0.3-0.4-0.4c-0.2-0.1-0.5-0.2-0.9-0.3c-0.6-0.2-1-0.4-1.3-0.6c-0.3-0.2-0.4-0.6-0.4-0.9c0-0.3,0.1-0.5,0.2-0.8
		c0.2-0.2,0.4-0.4,0.7-0.5s0.6-0.2,1-0.2C52.3,130.5,52.6,130.5,52.9,130.6z"/>
	<path class="st13" d="M58.1,136c-0.4,0.2-0.8,0.4-1.2,0.4s-0.8-0.1-1-0.4c-0.2-0.3-0.4-0.6-0.4-1.1v-3.8h-0.9v-0.5h0.9v-1.3
		l0.6-0.1v1.4h1.5l-0.1,0.5h-1.4v3.7c0,0.3,0.1,0.6,0.2,0.7c0.1,0.2,0.3,0.2,0.6,0.2s0.6-0.1,0.9-0.2L58.1,136z"/>
	<path class="st13" d="M63.2,136.2h-0.5v-1c-0.4,0.7-1.1,1.1-1.8,1.1c-0.5,0-0.9-0.1-1.2-0.4c-0.3-0.3-0.4-0.7-0.4-1.3v-4h0.6v4
		c0,0.4,0.1,0.8,0.3,1s0.5,0.3,0.8,0.3c0.7,0,1.2-0.4,1.6-1.2v-4.1h0.6C63.2,130.6,63.2,136.2,63.2,136.2z"/>
	<path class="st13" d="M69.5,128.3v7.9H69l-0.1-0.9c-0.4,0.7-1,1-1.7,1c-0.7,0-1.2-0.3-1.5-0.8c-0.4-0.5-0.6-1.2-0.6-2.1
		c0-0.6,0.1-1.1,0.3-1.5c0.2-0.4,0.4-0.8,0.8-1c0.3-0.3,0.7-0.4,1.2-0.4c0.6,0,1.2,0.3,1.6,0.8v-3H69.5z M68.2,135.6
		c0.2-0.2,0.5-0.4,0.7-0.8v-2.9c-0.4-0.6-0.9-0.9-1.5-0.9c-0.5,0-0.9,0.2-1.2,0.6c-0.3,0.4-0.4,1-0.4,1.8s0.1,1.4,0.4,1.8
		s0.6,0.6,1.1,0.6C67.6,135.8,67.9,135.7,68.2,135.6z"/>
	<path class="st13" d="M75.7,133.7H72c0,0.7,0.2,1.3,0.5,1.6c0.3,0.4,0.7,0.5,1.2,0.5c0.3,0,0.6,0,0.8-0.1c0.2-0.1,0.5-0.2,0.7-0.4
		l0.3,0.4c-0.3,0.2-0.6,0.4-0.9,0.5s-0.6,0.2-1,0.2c-0.7,0-1.3-0.3-1.8-0.8c-0.4-0.5-0.6-1.2-0.6-2.1c0-0.6,0.1-1.1,0.3-1.6
		c0.2-0.4,0.4-0.8,0.8-1c0.3-0.2,0.7-0.4,1.2-0.4c0.7,0,1.3,0.2,1.6,0.7c0.4,0.5,0.6,1.2,0.6,2C75.7,133.4,75.7,133.5,75.7,133.7z
		 M75.1,133c0-0.6-0.1-1.1-0.4-1.5S74,131,73.5,131s-0.8,0.2-1.1,0.5c-0.3,0.4-0.4,0.9-0.5,1.6h3.2V133z"/>
	<path class="st13" d="M81.2,130.9c0.3,0.3,0.4,0.7,0.4,1.3v4H81v-3.9c0-0.5-0.1-0.8-0.3-1c-0.2-0.2-0.4-0.3-0.8-0.3s-0.7,0.1-1,0.3
		s-0.5,0.5-0.8,0.9v4.1h-0.6v-5.6H78l0.1,1c0.2-0.3,0.5-0.6,0.8-0.8s0.7-0.3,1.1-0.3C80.5,130.5,80.9,130.6,81.2,130.9z"/>
	<path class="st13" d="M86.4,136c-0.4,0.2-0.8,0.4-1.2,0.4c-0.4,0-0.8-0.1-1-0.4c-0.2-0.3-0.4-0.6-0.4-1.1v-3.8h-0.9v-0.5h0.9v-1.3
		l0.6-0.1v1.4h1.5l-0.1,0.5h-1.4v3.7c0,0.3,0.1,0.6,0.2,0.7c0.1,0.2,0.3,0.2,0.6,0.2c0.3,0,0.6-0.1,0.9-0.2L86.4,136z"/>
	<path class="st13" d="M89.8,130.6c0.3,0.1,0.6,0.3,0.8,0.5l-0.3,0.4c-0.3-0.2-0.5-0.3-0.7-0.4c-0.2-0.1-0.5-0.1-0.8-0.1
		c-0.4,0-0.7,0.1-0.9,0.3c-0.2,0.2-0.3,0.4-0.3,0.7s0.1,0.5,0.3,0.6c0.2,0.2,0.6,0.3,1.1,0.4c0.6,0.2,1.1,0.4,1.4,0.6
		c0.3,0.3,0.4,0.6,0.4,1.1s-0.2,0.9-0.6,1.2s-0.9,0.4-1.5,0.4c-0.4,0-0.8-0.1-1.1-0.2c-0.3-0.1-0.6-0.3-0.9-0.5l0.3-0.4
		c0.3,0.2,0.5,0.4,0.8,0.4c0.3,0.1,0.6,0.1,0.9,0.1c0.4,0,0.8-0.1,1-0.3s0.4-0.5,0.4-0.8c0-0.2,0-0.4-0.1-0.6
		c-0.1-0.1-0.2-0.3-0.4-0.4c-0.2-0.1-0.5-0.2-0.9-0.3c-0.6-0.2-1-0.4-1.3-0.6c-0.3-0.2-0.4-0.6-0.4-0.9c0-0.3,0.1-0.5,0.2-0.8
		c0.2-0.2,0.4-0.4,0.7-0.5c0.3-0.1,0.6-0.2,1-0.2C89.2,130.5,89.5,130.5,89.8,130.6z"/>
	<path class="st13" d="M97.2,127.5c-0.4,0.6-0.7,1.1-0.9,1.5c-0.2,0.4-0.4,0.9-0.6,1.5c-0.1,0.6-0.2,1.2-0.2,2c0,0.7,0.1,1.4,0.2,2
		s0.3,1.1,0.6,1.5c0.2,0.4,0.5,0.9,0.9,1.5l-0.4,0.3c-0.4-0.6-0.8-1.2-1.1-1.6c-0.3-0.4-0.5-1-0.6-1.6s-0.2-1.3-0.2-2.1
		s0.1-1.5,0.2-2.1c0.2-0.6,0.4-1.1,0.6-1.6c0.3-0.4,0.6-1,1.1-1.6L97.2,127.5z"/>
	<path class="st13" d="M101.2,129.4c0.3,0.3,0.4,0.7,0.4,1.3s-0.1,1-0.4,1.3s-0.7,0.5-1.2,0.5s-0.9-0.2-1.2-0.5
		c-0.3-0.3-0.4-0.7-0.4-1.3s0.1-1,0.4-1.3s0.7-0.5,1.2-0.5C100.5,129,100.9,129.1,101.2,129.4z M99.2,129.8
		c-0.2,0.2-0.2,0.6-0.2,0.9c0,0.4,0.1,0.7,0.2,0.9c0.2,0.2,0.4,0.4,0.8,0.4s0.6-0.1,0.8-0.4c0.2-0.2,0.2-0.6,0.2-0.9
		c0-0.4-0.1-0.7-0.2-0.9s-0.4-0.4-0.8-0.4S99.4,129.5,99.2,129.8z M104.4,128.7l0.5,0.3l-5,7.5l-0.5-0.3L104.4,128.7z M105.4,133.3
		c0.3,0.3,0.4,0.7,0.4,1.3c0,0.5-0.1,1-0.4,1.3s-0.7,0.5-1.2,0.5s-0.9-0.2-1.2-0.5s-0.4-0.7-0.4-1.3c0-0.5,0.1-1,0.4-1.3
		s0.7-0.5,1.2-0.5C104.7,132.9,105.1,133,105.4,133.3z M103.4,133.7c-0.2,0.2-0.2,0.6-0.2,0.9c0,0.4,0.1,0.7,0.2,0.9
		s0.4,0.4,0.8,0.4s0.6-0.1,0.8-0.4c0.2-0.2,0.2-0.6,0.2-0.9c0-0.4-0.1-0.7-0.2-0.9c-0.2-0.2-0.4-0.4-0.8-0.4
		S103.6,133.4,103.4,133.7z"/>
	<path class="st13" d="M108.4,128.8c0.3,0.4,0.5,1,0.6,1.6c0.2,0.6,0.2,1.3,0.2,2.1s-0.1,1.5-0.2,2.1s-0.4,1.1-0.6,1.6
		c-0.3,0.4-0.6,1-1,1.6l-0.4-0.3c0.4-0.6,0.7-1.1,0.9-1.5c0.2-0.4,0.4-0.9,0.6-1.5c0.1-0.6,0.2-1.2,0.2-2c0-0.7-0.1-1.4-0.2-2
		s-0.3-1.1-0.6-1.5c-0.2-0.4-0.5-0.9-0.9-1.5l0.4-0.3C107.8,127.8,108.1,128.4,108.4,128.8z"/>
</g>
<g>
	<g class="st3">
		<path class="st13" d="M734.3,137.4h-0.9l-3.5-6.7c0.1,0.9,0.1,1.7,0.1,2.5v4.1h-0.6v-7.4h0.8l3.5,6.7c-0.1-0.8-0.1-1.6-0.1-2.2
			v-4.5h0.6v7.5H734.3z"/>
		<path class="st13" d="M740.6,137.4h-0.5v-1c-0.4,0.7-1.1,1.1-1.8,1.1c-0.5,0-0.9-0.1-1.2-0.4s-0.4-0.7-0.4-1.3v-4h0.6v4
			c0,0.4,0.1,0.8,0.3,1s0.5,0.3,0.8,0.3c0.7,0,1.2-0.4,1.6-1.2v-4.1h0.6L740.6,137.4L740.6,137.4z"/>
		<path class="st13" d="M749.4,132.1c0.3,0.3,0.4,0.7,0.4,1.3v4h-0.6v-3.9c0-0.4-0.1-0.8-0.3-1s-0.4-0.3-0.7-0.3s-0.6,0.1-0.9,0.3
			c-0.2,0.2-0.5,0.5-0.7,0.9v4.1H746v-3.9c0-0.4-0.1-0.8-0.3-1s-0.4-0.3-0.7-0.3s-0.6,0.1-0.9,0.3c-0.3,0.2-0.5,0.5-0.7,0.9v4.1
			h-0.6V132h0.5l0.1,1c0.2-0.3,0.5-0.6,0.8-0.8s0.6-0.3,1-0.3s0.7,0.1,0.9,0.3s0.4,0.5,0.5,0.8c0.2-0.4,0.5-0.6,0.8-0.8
			s0.6-0.3,1-0.3C748.8,131.6,749.2,131.8,749.4,132.1z"/>
		<path class="st13" d="M755.9,132.4c0.4,0.5,0.5,1.2,0.5,2.2c0,0.9-0.2,1.6-0.6,2.2s-0.9,0.8-1.6,0.8c-0.3,0-0.6-0.1-0.9-0.2
			c-0.3-0.2-0.5-0.4-0.7-0.6l-0.1,0.7H752v-7.9l0.6-0.1v3.2c0.4-0.6,1-0.9,1.7-0.9C755,131.6,755.5,131.9,755.9,132.4z M755.3,136.3
			c0.3-0.4,0.4-1,0.4-1.8c0-1.6-0.5-2.4-1.5-2.4c-0.3,0-0.6,0.1-0.9,0.3s-0.5,0.4-0.7,0.7v3c0.2,0.3,0.4,0.5,0.6,0.7
			c0.3,0.2,0.5,0.2,0.8,0.2C754.7,137,755.1,136.8,755.3,136.3z"/>
		<path class="st13" d="M762.3,134.8h-3.8c0,0.7,0.2,1.3,0.5,1.6s0.7,0.5,1.2,0.5c0.3,0,0.6,0,0.8-0.1s0.5-0.2,0.7-0.4l0.3,0.4
			c-0.3,0.2-0.6,0.4-0.9,0.5c-0.3,0.1-0.6,0.2-1,0.2c-0.7,0-1.3-0.3-1.8-0.8s-0.6-1.2-0.6-2.1c0-0.6,0.1-1.1,0.3-1.6
			c0.2-0.4,0.4-0.8,0.8-1c0.3-0.2,0.7-0.4,1.2-0.4c0.7,0,1.3,0.2,1.6,0.7s0.6,1.2,0.6,2C762.3,134.5,762.3,134.6,762.3,134.8z
			 M761.7,134.1c0-0.6-0.1-1.1-0.4-1.5s-0.7-0.5-1.2-0.5s-0.8,0.2-1.1,0.5c-0.3,0.4-0.4,0.9-0.5,1.6h3.2V134.1z"/>
		<path class="st13" d="M766.8,131.7l-0.1,0.6c-0.2,0-0.3-0.1-0.5-0.1c-0.4,0-0.7,0.1-0.9,0.4c-0.2,0.3-0.4,0.7-0.6,1.3v3.4h-0.6
			v-5.6h0.5l0.1,1.3c0.2-0.5,0.4-0.8,0.6-1c0.3-0.2,0.6-0.3,1-0.3C766.5,131.6,766.7,131.6,766.8,131.7z"/>
		<path class="st13" d="M774.8,132.4c0.4,0.5,0.6,1.2,0.6,2.1c0,0.9-0.2,1.6-0.6,2.2c-0.4,0.5-1,0.8-1.8,0.8c-0.7,0-1.3-0.3-1.8-0.8
			s-0.6-1.2-0.6-2.1c0-0.6,0.1-1.1,0.3-1.6c0.2-0.4,0.5-0.8,0.8-1c0.4-0.2,0.8-0.4,1.3-0.4C773.8,131.6,774.4,131.9,774.8,132.4z
			 M771.8,132.7c-0.3,0.4-0.5,1-0.5,1.8s0.1,1.4,0.4,1.8s0.7,0.6,1.3,0.6c0.5,0,1-0.2,1.3-0.6c0.3-0.4,0.5-1,0.5-1.8
			s-0.1-1.4-0.4-1.8c-0.3-0.4-0.7-0.6-1.3-0.6S772.1,132.3,771.8,132.7z"/>
		<path class="st13" d="M778.2,130.1c-0.2,0.2-0.2,0.4-0.2,0.7v0.9h1.5l-0.1,0.5H778v5.1h-0.7v-5.1h-1v-0.5h1v-0.9
			c0-0.4,0.1-0.8,0.4-1.1s0.7-0.4,1.1-0.4c0.4,0,0.9,0.1,1.3,0.3l-0.2,0.5c-0.4-0.2-0.7-0.2-1.1-0.2
			C778.6,129.9,778.3,129.9,778.2,130.1z"/>
		<path class="st13" d="M787.3,136.7c0.1,0.1,0.2,0.2,0.4,0.3l-0.1,0.4c-0.3,0-0.5-0.1-0.6-0.3s-0.2-0.4-0.3-0.7
			c-0.4,0.6-1,0.9-1.8,0.9c-0.5,0-1-0.2-1.3-0.5s-0.5-0.7-0.5-1.2c0-0.6,0.2-1,0.6-1.3c0.4-0.3,1-0.5,1.7-0.5h1.1v-0.5
			c0-0.5-0.1-0.8-0.3-1s-0.5-0.3-1-0.3c-0.4,0-0.9,0.1-1.5,0.3l-0.2-0.5c0.6-0.3,1.2-0.4,1.8-0.4c1.2,0,1.8,0.6,1.8,1.8v2.7
			C787.2,136.4,787.2,136.6,787.3,136.7z M786.6,136v-1.6h-1c-0.6,0-1,0.1-1.3,0.3s-0.5,0.6-0.5,1s0.1,0.7,0.3,0.9s0.5,0.3,0.9,0.3
			C785.7,137,786.2,136.6,786.6,136z"/>
		<path class="st13" d="M792.2,131.7l-0.1,0.6c-0.2,0-0.3-0.1-0.5-0.1c-0.4,0-0.7,0.1-0.9,0.4c-0.2,0.3-0.4,0.7-0.6,1.3v3.4h-0.6
			v-5.6h0.5l0.1,1.3c0.2-0.5,0.4-0.8,0.6-1c0.3-0.2,0.6-0.3,1-0.3C791.9,131.6,792.1,131.6,792.2,131.7z"/>
		<path class="st13" d="M796,137.1c-0.4,0.2-0.8,0.4-1.2,0.4s-0.8-0.1-1-0.4c-0.2-0.3-0.4-0.6-0.4-1.1v-3.8h-0.9v-0.5h0.9v-1.3
			l0.6-0.1v1.4h1.5l-0.1,0.5H794v3.7c0,0.3,0.1,0.6,0.2,0.7c0.1,0.2,0.3,0.2,0.6,0.2s0.6-0.1,0.9-0.2L796,137.1z"/>
		<path class="st13" d="M797.8,129.4c0.1,0.1,0.1,0.2,0.1,0.3s0,0.2-0.1,0.3s-0.2,0.1-0.3,0.1s-0.2,0-0.3-0.1s-0.1-0.2-0.1-0.3
			s0-0.2,0.1-0.3s0.2-0.1,0.3-0.1C797.6,129.2,797.7,129.3,797.8,129.4z M797.8,131.7v5.6h-0.6v-5.6H797.8z"/>
		<path class="st13" d="M802.9,131.7c0.2,0.1,0.5,0.2,0.7,0.4l-0.3,0.4c-0.2-0.2-0.4-0.3-0.6-0.3c-0.2-0.1-0.4-0.1-0.7-0.1
			c-0.5,0-1,0.2-1.3,0.6s-0.5,1-0.5,1.8s0.2,1.4,0.5,1.8c0.3,0.4,0.7,0.6,1.3,0.6c0.2,0,0.5,0,0.7-0.1s0.4-0.2,0.6-0.4l0.3,0.4
			c-0.5,0.4-1,0.6-1.6,0.6c-0.5,0-0.9-0.1-1.3-0.3c-0.4-0.2-0.6-0.6-0.8-1s-0.3-1-0.3-1.6s0.1-1.1,0.3-1.6c0.2-0.4,0.5-0.8,0.8-1
			c0.4-0.2,0.8-0.4,1.2-0.4C802.3,131.6,802.6,131.7,802.9,131.7z"/>
		<path class="st13" d="M805.3,137.2c-0.2-0.2-0.3-0.4-0.3-0.8v-7l0.6-0.1v7c0,0.4,0.2,0.5,0.5,0.5c0.2,0,0.3,0,0.4-0.1l0.2,0.5
			c-0.2,0.1-0.4,0.2-0.6,0.2C805.7,137.5,805.5,137.4,805.3,137.2z"/>
		<path class="st13" d="M812.1,134.8h-3.8c0,0.7,0.2,1.3,0.5,1.6c0.3,0.4,0.7,0.5,1.2,0.5c0.3,0,0.6,0,0.8-0.1s0.5-0.2,0.7-0.4
			l0.3,0.4c-0.3,0.2-0.6,0.4-0.9,0.5c-0.3,0.1-0.6,0.2-1,0.2c-0.7,0-1.3-0.3-1.8-0.8c-0.4-0.5-0.6-1.2-0.6-2.1
			c0-0.6,0.1-1.1,0.3-1.6c0.2-0.4,0.4-0.8,0.8-1c0.3-0.2,0.7-0.4,1.2-0.4c0.7,0,1.3,0.2,1.6,0.7c0.4,0.5,0.6,1.2,0.6,2
			C812.1,134.5,812.1,134.6,812.1,134.8z M811.5,134.1c0-0.6-0.1-1.1-0.4-1.5c-0.3-0.4-0.7-0.5-1.2-0.5s-0.8,0.2-1.1,0.5
			c-0.3,0.4-0.4,0.9-0.5,1.6h3.2V134.1z"/>
		<path class="st13" d="M816.2,131.8c0.3,0.1,0.6,0.3,0.8,0.5l-0.3,0.4c-0.3-0.2-0.5-0.3-0.7-0.4c-0.2-0.1-0.5-0.1-0.8-0.1
			c-0.4,0-0.7,0.1-0.9,0.3s-0.3,0.4-0.3,0.7s0.1,0.5,0.3,0.6c0.2,0.2,0.6,0.3,1.1,0.4c0.6,0.2,1.1,0.4,1.4,0.6
			c0.3,0.3,0.4,0.6,0.4,1.1s-0.2,0.9-0.6,1.2c-0.4,0.3-0.9,0.4-1.5,0.4c-0.4,0-0.8-0.1-1.1-0.2c-0.3-0.1-0.6-0.3-0.9-0.5l0.3-0.4
			c0.3,0.2,0.5,0.4,0.8,0.4s0.6,0.1,0.9,0.1c0.4,0,0.8-0.1,1-0.3s0.4-0.5,0.4-0.8c0-0.2,0-0.4-0.1-0.6s-0.2-0.3-0.4-0.4
			c-0.2-0.1-0.5-0.2-0.9-0.3c-0.6-0.2-1-0.4-1.3-0.6c-0.3-0.2-0.4-0.6-0.4-0.9c0-0.3,0.1-0.5,0.2-0.8c0.2-0.2,0.4-0.4,0.7-0.5
			s0.6-0.2,1-0.2C815.6,131.6,815.9,131.7,816.2,131.8z"/>
	</g>
</g>
<g>
	<g>
		<polyline class="st14" points="106.8,142.1 9.5,142.1 9.5,468.7 		"/>
	</g>
</g>
<g>
	<g>
		<polyline class="st15" points="724.2,142.1 821.5,142.1 821.5,468.2 		"/>
	</g>
</g>
<g class="st3">
	<path class="st2" d="M26.1,30.7L23,46.2h-2.7l-2.9-13l-2.9,13h-2.7L8.7,30.7h2.1l2.5,13.6l3-13.6h2.3l3.1,13.6l2.6-13.6
		C24.3,30.7,26.1,30.7,26.1,30.7z"/>
	<path class="st2" d="M37,35.1c0.6,0.6,0.9,1.5,0.9,2.7v8.5h-2.1V38c0-0.8-0.2-1.4-0.5-1.8s-0.8-0.5-1.4-0.5c-0.6,0-1.2,0.2-1.6,0.5
		c-0.5,0.4-0.9,0.9-1.3,1.5v8.4h-2.1V29.6l2.1-0.2V36c0.9-1.3,2.1-1.9,3.5-1.9C35.5,34.1,36.3,34.4,37,35.1z"/>
	<path class="st2" d="M44.1,29.1c0.3,0.3,0.4,0.6,0.4,1s-0.1,0.7-0.4,1c-0.3,0.3-0.6,0.4-1.1,0.4c-0.4,0-0.8-0.1-1-0.4
		c-0.3-0.3-0.4-0.6-0.4-1s0.1-0.7,0.4-1c0.3-0.3,0.6-0.4,1-0.4C43.5,28.7,43.8,28.8,44.1,29.1z M44.1,34.4v11.9H42V34.4H44.1z"/>
	<path class="st2" d="M54.6,34.4c0.6,0.2,1.1,0.5,1.7,1l-1,1.3c-0.4-0.3-0.8-0.5-1.2-0.7c-0.4-0.1-0.8-0.2-1.3-0.2
		c-1,0-1.7,0.4-2.2,1.1c-0.5,0.8-0.8,1.9-0.8,3.4s0.3,2.6,0.8,3.3s1.3,1.1,2.2,1.1c0.5,0,0.9-0.1,1.3-0.2c0.4-0.1,0.8-0.4,1.3-0.7
		l0.9,1.3c-1.1,0.9-2.3,1.3-3.6,1.3c-1.6,0-2.9-0.5-3.8-1.6c-0.9-1.1-1.4-2.6-1.4-4.5c0-1.3,0.2-2.4,0.6-3.3c0.4-0.9,1-1.7,1.8-2.2
		s1.7-0.8,2.8-0.8C53.4,34.1,54,34.2,54.6,34.4z"/>
	<path class="st2" d="M67.2,35.1c0.6,0.6,0.9,1.5,0.9,2.7v8.5H66V38c0-0.8-0.2-1.4-0.5-1.8s-0.8-0.5-1.4-0.5c-0.6,0-1.2,0.2-1.6,0.5
		c-0.5,0.4-0.9,0.9-1.3,1.5v8.4h-2.1V29.6l2.1-0.2V36c0.9-1.3,2.1-1.9,3.5-1.9C65.8,34.1,66.6,34.4,67.2,35.1z"/>
	<path class="st2" d="M80.3,29.1c0.3,0.3,0.4,0.6,0.4,1s-0.1,0.7-0.4,1c-0.3,0.3-0.6,0.4-1.1,0.4c-0.4,0-0.8-0.1-1-0.4
		c-0.3-0.3-0.4-0.6-0.4-1s0.1-0.7,0.4-1c0.3-0.3,0.6-0.4,1-0.4C79.7,28.7,80.1,28.8,80.3,29.1z M80.3,34.4v11.9h-2V34.4H80.3z"/>
	<path class="st2" d="M90,34.4c0.6,0.2,1.3,0.6,1.8,1l-0.9,1.3c-0.5-0.3-1.1-0.6-1.5-0.8c-0.5-0.2-1-0.2-1.5-0.2
		c-0.7,0-1.2,0.1-1.6,0.4c-0.4,0.3-0.6,0.7-0.6,1.1s0.2,0.9,0.6,1.1c0.4,0.3,1,0.5,2,0.8c1.3,0.3,2.3,0.8,3,1.3c0.7,0.6,1,1.3,1,2.3
		c0,1.2-0.5,2.1-1.4,2.7c-0.9,0.6-2,0.9-3.3,0.9c-1.8,0-3.3-0.5-4.5-1.6l1.1-1.3c1,0.8,2.1,1.1,3.3,1.1c0.8,0,1.4-0.2,1.9-0.5
		s0.7-0.8,0.7-1.3c0-0.4-0.1-0.7-0.2-1c-0.2-0.2-0.4-0.5-0.9-0.7s-1-0.4-1.8-0.6c-1.3-0.3-2.2-0.8-2.7-1.3c-0.6-0.6-0.8-1.3-0.8-2.1
		c0-0.6,0.2-1.2,0.6-1.7c0.4-0.5,0.9-0.9,1.5-1.2c0.7-0.3,1.4-0.4,2.2-0.4S89.3,34.2,90,34.4z"/>
	<path class="st2" d="M107,45.7c-0.8,0.5-1.7,0.8-2.7,0.8s-1.8-0.3-2.4-0.9c-0.6-0.6-0.8-1.4-0.8-2.5V36H99v-1.6h2.1v-2.7l2.1-0.2
		v2.9h2.8l-0.2,1.6h-2.5v7c0,0.6,0.1,1.1,0.3,1.3c0.2,0.3,0.6,0.4,1.1,0.4s1-0.2,1.6-0.5L107,45.7z"/>
	<path class="st2" d="M117.3,35.1c0.6,0.6,0.9,1.5,0.9,2.7v8.5h-2.1V38c0-0.8-0.2-1.4-0.5-1.8s-0.8-0.5-1.4-0.5
		c-0.6,0-1.2,0.2-1.6,0.5c-0.5,0.4-0.9,0.9-1.3,1.5v8.4h-2.1V29.6l2.1-0.2V36c0.9-1.3,2.1-1.9,3.5-1.9
		C115.8,34.1,116.7,34.4,117.3,35.1z"/>
	<path class="st2" d="M131.3,41h-7.6c0.1,1.3,0.4,2.3,1,2.9c0.6,0.6,1.3,0.9,2.2,0.9c0.6,0,1.1-0.1,1.6-0.2s1-0.4,1.5-0.8l0.9,1.2
		c-1.3,1-2.6,1.5-4.1,1.5c-1.6,0-2.9-0.5-3.9-1.6c-0.9-1.1-1.4-2.6-1.4-4.5c0-1.2,0.2-2.3,0.6-3.3c0.4-1,1-1.7,1.7-2.2
		s1.6-0.8,2.6-0.8c1.6,0,2.8,0.5,3.6,1.6c0.8,1,1.3,2.5,1.3,4.3C131.3,40.3,131.3,40.6,131.3,41z M129.3,39.3c0-1.2-0.2-2.1-0.7-2.7
		c-0.5-0.6-1.2-0.9-2.1-0.9c-1.7,0-2.6,1.2-2.8,3.7L129.3,39.3L129.3,39.3z"/>
</g>
<g class="st3">
	<path class="st8" d="M149.3,35.7c0.7,1.1,1.1,2.6,1.1,4.6c0,1.9-0.4,3.4-1.2,4.5s-2,1.7-3.4,1.7c-1.3,0-2.4-0.4-3.1-1.3v5.6
		l-2.1,0.2V34.4h1.8l0.2,1.6c0.4-0.6,1-1.1,1.6-1.4c0.6-0.3,1.3-0.5,1.9-0.5C147.5,34.1,148.6,34.6,149.3,35.7z M148.2,40.3
		c0-3-0.9-4.5-2.7-4.5c-0.6,0-1.1,0.2-1.6,0.5s-0.9,0.8-1.3,1.3v5.8c0.3,0.5,0.7,0.8,1.1,1.1c0.5,0.2,0.9,0.4,1.5,0.4
		C147.2,44.8,148.2,43.3,148.2,40.3z"/>
	<path class="st8" d="M160.3,34.2l-0.4,2c-0.4-0.1-0.7-0.1-1-0.1c-0.7,0-1.3,0.3-1.8,0.8c-0.5,0.5-0.8,1.4-1.1,2.5v6.8h-2.1V34.4
		h1.8l0.2,2.4c0.3-0.9,0.7-1.6,1.3-2c0.5-0.5,1.2-0.7,1.9-0.7C159.5,34.1,159.9,34.1,160.3,34.2z"/>
	<path class="st8" d="M170.3,35.8c0.9,1.1,1.4,2.6,1.4,4.5c0,1.2-0.2,2.3-0.6,3.2s-1,1.7-1.8,2.2s-1.7,0.8-2.8,0.8
		c-1.7,0-3-0.6-3.9-1.7c-0.9-1.1-1.4-2.6-1.4-4.5c0-1.2,0.2-2.3,0.6-3.2s1-1.7,1.8-2.2s1.7-0.8,2.9-0.8
		C168.1,34.1,169.3,34.7,170.3,35.8z M163.3,40.3c0,3,1,4.5,3.1,4.5s3.1-1.5,3.1-4.5s-1-4.5-3-4.5C164.3,35.8,163.3,37.3,163.3,40.3
		z"/>
	<path class="st8" d="M183.8,35.7c0.7,1.1,1.1,2.6,1.1,4.6c0,1.9-0.4,3.4-1.2,4.5c-0.8,1.1-2,1.7-3.4,1.7c-1.3,0-2.4-0.4-3.1-1.3
		v5.6l-2.1,0.2V34.4h1.8l0.2,1.6c0.4-0.6,1-1.1,1.6-1.4c0.6-0.3,1.3-0.5,1.9-0.5C182,34.1,183.1,34.6,183.8,35.7z M182.7,40.3
		c0-3-0.9-4.5-2.7-4.5c-0.6,0-1.1,0.2-1.6,0.5s-0.9,0.8-1.3,1.3v5.8c0.3,0.5,0.7,0.8,1.1,1.1c0.4,0.2,0.9,0.4,1.5,0.4
		C181.7,44.8,182.7,43.3,182.7,40.3z"/>
	<path class="st8" d="M196.8,35.8c0.9,1.1,1.4,2.6,1.4,4.5c0,1.2-0.2,2.3-0.6,3.2s-1,1.7-1.8,2.2s-1.7,0.8-2.8,0.8
		c-1.7,0-3-0.6-3.9-1.7c-0.9-1.1-1.4-2.6-1.4-4.5c0-1.2,0.2-2.3,0.6-3.2s1-1.7,1.8-2.2s1.7-0.8,2.9-0.8
		C194.5,34.1,195.8,34.7,196.8,35.8z M189.8,40.3c0,3,1,4.5,3.1,4.5s3.1-1.5,3.1-4.5s-1-4.5-3-4.5C190.8,35.8,189.8,37.3,189.8,40.3
		z"/>
	<path class="st8" d="M207.9,34.2l-0.4,2c-0.4-0.1-0.7-0.1-1-0.1c-0.7,0-1.3,0.3-1.8,0.8c-0.4,0.5-0.8,1.4-1.1,2.5v6.8h-2.1V34.4
		h1.8l0.2,2.4c0.3-0.9,0.7-1.6,1.3-2c0.5-0.5,1.2-0.7,1.9-0.7C207.1,34.1,207.5,34.1,207.9,34.2z"/>
	<path class="st8" d="M216.2,45.7c-0.8,0.5-1.7,0.8-2.7,0.8s-1.8-0.3-2.3-0.9c-0.6-0.6-0.8-1.4-0.8-2.5V36h-2.1v-1.6h2.1v-2.7
		l2.1-0.2v2.9h2.8l-0.2,1.6h-2.6v7c0,0.6,0.1,1.1,0.3,1.3c0.2,0.3,0.6,0.4,1.1,0.4s1-0.2,1.6-0.5L216.2,45.7z"/>
	<path class="st8" d="M220.4,29.1c0.3,0.3,0.4,0.6,0.4,1s-0.1,0.7-0.4,1s-0.6,0.4-1.1,0.4c-0.4,0-0.8-0.1-1-0.4s-0.4-0.6-0.4-1
		s0.1-0.7,0.4-1s0.6-0.4,1-0.4C219.8,28.7,220.2,28.8,220.4,29.1z M220.4,34.4v11.9h-2.1V34.4H220.4z"/>
	<path class="st8" d="M233,35.8c0.9,1.1,1.4,2.6,1.4,4.5c0,1.2-0.2,2.3-0.6,3.2s-1,1.7-1.8,2.2s-1.7,0.8-2.8,0.8
		c-1.7,0-3-0.6-3.9-1.7c-0.9-1.1-1.4-2.6-1.4-4.5c0-1.2,0.2-2.3,0.6-3.2s1-1.7,1.8-2.2s1.7-0.8,2.9-0.8
		C230.8,34.1,232.1,34.7,233,35.8z M226.1,40.3c0,3,1,4.5,3.1,4.5s3.1-1.5,3.1-4.5s-1-4.5-3-4.5C227.1,35.8,226.1,37.3,226.1,40.3z"
		/>
	<path class="st8" d="M245.9,35.1c0.6,0.6,0.9,1.5,0.9,2.7v8.5h-2.1V38c0-0.8-0.2-1.4-0.5-1.8s-0.8-0.5-1.4-0.5s-1.2,0.2-1.7,0.5
		c-0.5,0.4-0.9,0.9-1.3,1.6v8.4h-2.1V34.4h1.8l0.2,1.8c0.4-0.6,0.9-1.1,1.6-1.5c0.6-0.4,1.3-0.5,2.1-0.5
		C244.5,34.1,245.3,34.4,245.9,35.1z"/>
</g>
<g class="st3">
	<path class="st2" d="M266.3,35.7c0.8,1.1,1.2,2.6,1.2,4.6c0,1.2-0.2,2.3-0.6,3.2s-0.9,1.7-1.6,2.2s-1.5,0.8-2.5,0.8
		c-1.2,0-2.3-0.5-3.1-1.6l-0.2,1.3h-1.8V29.6l2.1-0.2v6.5c0.9-1.2,2-1.8,3.4-1.8C264.4,34.1,265.5,34.6,266.3,35.7z M264.5,43.7
		c0.5-0.7,0.8-1.9,0.8-3.5s-0.2-2.8-0.7-3.5s-1.2-1.1-2-1.1c-1,0-2,0.6-2.8,1.8v5.7c0.3,0.5,0.7,0.9,1.2,1.2s0.9,0.4,1.5,0.4
		C263.2,44.8,263.9,44.5,264.5,43.7z"/>
	<path class="st2" d="M279.9,41h-7.6c0.1,1.3,0.4,2.3,1,2.9c0.6,0.6,1.3,0.9,2.2,0.9c0.6,0,1.1-0.1,1.6-0.2s1-0.4,1.5-0.8l0.9,1.2
		c-1.3,1-2.6,1.5-4.1,1.5c-1.6,0-2.9-0.5-3.9-1.6c-0.9-1.1-1.4-2.6-1.4-4.5c0-1.2,0.2-2.3,0.6-3.3s1-1.7,1.7-2.2s1.6-0.8,2.6-0.8
		c1.6,0,2.8,0.5,3.6,1.6c0.8,1,1.3,2.5,1.3,4.3C279.9,40.3,279.9,40.6,279.9,41z M277.9,39.3c0-1.2-0.2-2.1-0.7-2.7
		c-0.5-0.6-1.2-0.9-2.1-0.9c-1.7,0-2.6,1.2-2.8,3.7L277.9,39.3L277.9,39.3z"/>
	<path class="st2" d="M289.2,45.7c-0.8,0.5-1.7,0.8-2.7,0.8s-1.8-0.3-2.4-0.9c-0.6-0.6-0.8-1.4-0.8-2.5V36h-2v-1.6h2.1v-2.7l2.1-0.2
		v2.9h2.8l-0.2,1.6h-2.6v7c0,0.6,0.1,1.1,0.3,1.3c0.2,0.3,0.6,0.4,1.1,0.4s1-0.2,1.6-0.5L289.2,45.7z"/>
	<path class="st2" d="M304.9,34.4l-2.7,11.9h-2.8l-2.1-10l-2.1,10h-2.7l-2.8-11.9h2.1l2.1,10.4l2.3-10.4h2.3l2.2,10.4l2.2-10.4
		H304.9z"/>
	<path class="st2" d="M316.4,41h-7.6c0.1,1.3,0.4,2.3,1,2.9c0.6,0.6,1.3,0.9,2.2,0.9c0.6,0,1.1-0.1,1.6-0.2s1-0.4,1.5-0.8L316,45
		c-1.3,1-2.6,1.5-4.1,1.5c-1.6,0-2.9-0.5-3.9-1.6c-0.9-1.1-1.4-2.6-1.4-4.5c0-1.2,0.2-2.3,0.6-3.3s1-1.7,1.7-2.2s1.6-0.8,2.6-0.8
		c1.6,0,2.8,0.5,3.6,1.6c0.8,1,1.3,2.5,1.3,4.3C316.4,40.3,316.4,40.6,316.4,41z M314.4,39.3c0-1.2-0.2-2.1-0.7-2.7
		c-0.5-0.6-1.2-0.9-2.1-0.9c-1.7,0-2.6,1.2-2.8,3.7L314.4,39.3L314.4,39.3z"/>
	<path class="st2" d="M328.6,41H321c0.1,1.3,0.4,2.3,1,2.9c0.6,0.6,1.3,0.9,2.2,0.9c0.6,0,1.1-0.1,1.6-0.2c0.5-0.2,1-0.4,1.5-0.8
		l1,1.2c-1.3,1-2.6,1.5-4.1,1.5c-1.6,0-2.9-0.5-3.9-1.6c-0.9-1.1-1.4-2.6-1.4-4.5c0-1.2,0.2-2.3,0.6-3.3s1-1.7,1.7-2.2
		s1.6-0.8,2.6-0.8c1.6,0,2.8,0.5,3.6,1.6c0.8,1,1.3,2.5,1.3,4.3C328.7,40.3,328.7,40.6,328.6,41z M326.6,39.3c0-1.2-0.2-2.1-0.7-2.7
		c-0.5-0.6-1.2-0.9-2.1-0.9c-1.7,0-2.6,1.2-2.8,3.7L326.6,39.3L326.6,39.3z"/>
	<path class="st2" d="M340.1,35.1c0.6,0.6,0.9,1.5,0.9,2.7v8.5h-2.1V38c0-0.8-0.2-1.4-0.5-1.8s-0.8-0.5-1.4-0.5s-1.2,0.2-1.7,0.5
		c-0.5,0.4-0.9,0.9-1.3,1.6v8.4h-2.1V34.4h1.8l0.2,1.8c0.4-0.6,0.9-1.1,1.6-1.5c0.6-0.4,1.3-0.5,2.1-0.5
		C338.7,34.1,339.5,34.4,340.1,35.1z"/>
	<path class="st2" d="M360,46.2h-1.8l-0.2-1.8c-0.4,0.7-1,1.3-1.6,1.6s-1.3,0.5-2.1,0.5c-1,0-1.8-0.3-2.4-0.9s-0.9-1.5-0.9-2.7v-8.5
		h2.1v8.3c0,0.8,0.1,1.4,0.4,1.7s0.7,0.5,1.4,0.5c1.2,0,2.1-0.7,3-2v-8.5h2.1V46.2z"/>
	<path class="st2" d="M369.6,34.4c0.6,0.2,1.3,0.6,1.8,1l-0.9,1.3c-0.5-0.3-1.1-0.6-1.5-0.8c-0.5-0.2-1-0.2-1.5-0.2
		c-0.7,0-1.2,0.1-1.6,0.4c-0.4,0.3-0.6,0.7-0.6,1.1s0.2,0.9,0.6,1.1c0.4,0.3,1,0.5,2,0.8c1.3,0.3,2.3,0.8,3,1.3c0.7,0.6,1,1.3,1,2.3
		c0,1.2-0.5,2.1-1.4,2.7c-0.9,0.6-2,0.9-3.3,0.9c-1.8,0-3.3-0.5-4.5-1.6l1.1-1.3c1,0.8,2.1,1.1,3.3,1.1c0.8,0,1.4-0.2,1.9-0.5
		s0.7-0.8,0.7-1.3c0-0.4-0.1-0.7-0.2-1c-0.2-0.2-0.5-0.5-0.9-0.7s-1-0.4-1.8-0.6c-1.3-0.3-2.2-0.8-2.7-1.3c-0.6-0.6-0.8-1.3-0.8-2.1
		c0-0.6,0.2-1.2,0.6-1.7s0.9-0.9,1.5-1.2s1.4-0.4,2.2-0.4S369,34.2,369.6,34.4z"/>
	<path class="st2" d="M382.7,44.5c0.2,0.2,0.4,0.4,0.7,0.5l-0.5,1.4c-0.6-0.1-1.1-0.2-1.5-0.5s-0.7-0.7-0.8-1.3
		c-0.8,1.2-2,1.8-3.5,1.8c-1.2,0-2.1-0.3-2.8-1c-0.7-0.7-1-1.5-1-2.6c0-1.3,0.5-2.2,1.4-2.9s2.2-1,3.9-1h1.8V38
		c0-0.8-0.2-1.4-0.6-1.8c-0.4-0.4-1-0.5-1.9-0.5s-1.9,0.2-3.2,0.6l-0.5-1.5c1.5-0.5,2.8-0.8,4.1-0.8c1.4,0,2.4,0.3,3.1,1
		s1,1.7,1,2.9v5.4C382.5,43.9,382.6,44.3,382.7,44.5z M380.4,43.1v-2.7h-1.6c-2.2,0-3.3,0.8-3.3,2.4c0,0.7,0.2,1.2,0.5,1.6
		c0.3,0.4,0.9,0.5,1.5,0.5C378.8,44.9,379.7,44.3,380.4,43.1z"/>
	<path class="st2" d="M396.1,34.9c-0.4,0.2-0.9,0.2-1.5,0.3c-0.5,0-1.2,0.1-2,0.1c1.4,0.6,2.1,1.6,2.1,3c0,1.2-0.4,2.2-1.2,2.9
		s-1.9,1.1-3.3,1.1c-0.5,0-1-0.1-1.5-0.2c-0.2,0.1-0.3,0.3-0.4,0.5s-0.2,0.4-0.2,0.6c0,0.6,0.5,1,1.6,1h1.9c0.8,0,1.5,0.1,2.1,0.4
		c0.6,0.3,1.1,0.7,1.4,1.2s0.5,1.1,0.5,1.7c0,1.2-0.5,2-1.4,2.7s-2.3,0.9-4.1,0.9c-1.3,0-2.3-0.1-3-0.4c-0.7-0.3-1.3-0.7-1.6-1.2
		c-0.3-0.5-0.5-1.2-0.5-2h1.9c0,0.5,0.1,0.9,0.3,1.1s0.5,0.5,1,0.6s1.1,0.2,2,0.2c1.2,0,2.1-0.2,2.7-0.5c0.5-0.3,0.8-0.8,0.8-1.4
		c0-0.6-0.2-1-0.6-1.3s-1-0.4-1.8-0.4h-1.9c-1,0-1.8-0.2-2.3-0.6c-0.5-0.4-0.8-1-0.8-1.6c0-0.4,0.1-0.8,0.3-1.1c0.2-0.4,0.5-0.7,1-1
		c-0.7-0.4-1.2-0.8-1.5-1.3s-0.5-1.2-0.5-1.9c0-0.8,0.2-1.5,0.6-2.1s0.9-1.1,1.6-1.5s1.5-0.5,2.3-0.5c0.9,0,1.7,0,2.3-0.1
		c0.6-0.1,1.2-0.2,1.6-0.3s0.9-0.3,1.5-0.6L396.1,34.9z M388.2,36.3c-0.4,0.5-0.6,1.1-0.6,1.9c0,0.8,0.2,1.5,0.7,1.9
		c0.4,0.5,1,0.7,1.8,0.7s1.4-0.2,1.9-0.7c0.4-0.5,0.6-1.1,0.6-2c0-1.8-0.8-2.6-2.5-2.6C389.3,35.6,388.7,35.8,388.2,36.3z"/>
	<path class="st2" d="M406.8,41h-7.6c0.1,1.3,0.4,2.3,1,2.9c0.6,0.6,1.3,0.9,2.2,0.9c0.6,0,1.1-0.1,1.6-0.2c0.5-0.2,1-0.4,1.5-0.8
		l0.9,1.2c-1.3,1-2.6,1.5-4.1,1.5c-1.6,0-2.9-0.5-3.9-1.6c-0.9-1.1-1.4-2.6-1.4-4.5c0-1.2,0.2-2.3,0.6-3.3s1-1.7,1.7-2.2
		s1.6-0.8,2.6-0.8c1.6,0,2.8,0.5,3.6,1.6s1.3,2.5,1.3,4.3C406.8,40.3,406.8,40.6,406.8,41z M404.7,39.3c0-1.2-0.2-2.1-0.7-2.7
		c-0.5-0.6-1.2-0.9-2.1-0.9c-1.7,0-2.6,1.2-2.8,3.7L404.7,39.3L404.7,39.3z"/>
	<path class="st2" d="M424.4,35.8c0.9,1.1,1.4,2.6,1.4,4.5c0,1.2-0.2,2.3-0.6,3.2c-0.4,0.9-1,1.7-1.8,2.2s-1.7,0.8-2.8,0.8
		c-1.7,0-3-0.6-3.9-1.7c-0.9-1.1-1.4-2.6-1.4-4.5c0-1.2,0.2-2.3,0.6-3.2c0.4-0.9,1-1.7,1.8-2.2s1.7-0.8,2.9-0.8
		C422.2,34.1,423.5,34.7,424.4,35.8z M417.4,40.3c0,3,1,4.5,3.1,4.5s3.1-1.5,3.1-4.5s-1-4.5-3-4.5C418.5,35.8,417.4,37.3,417.4,40.3
		z"/>
	<path class="st2" d="M431.9,31.4c-0.3,0.3-0.4,0.7-0.4,1.3v1.6h2.9l-0.2,1.6h-2.7v10.3h-2.1V36h-2.1v-1.6h2.1v-1.6
		c0-1,0.3-1.8,1-2.5s1.6-0.9,2.7-0.9c0.5,0,1,0,1.5,0.1c0.4,0.1,0.9,0.3,1.4,0.5l-0.7,1.5c-0.7-0.3-1.4-0.5-2.1-0.5
		C432.6,31,432.1,31.2,431.9,31.4z"/>
	<path class="st2" d="M451.1,46.2l-1.2-3.9H444l-1.2,3.9h-2.2l5-15.5h2.7l4.9,15.5H451.1z M444.5,40.6h4.8l-2.4-8.1L444.5,40.6z"/>
	<path class="st2" d="M464.7,29.6v16.6h-1.8l-0.2-1.6c-0.4,0.6-0.9,1.1-1.5,1.4c-0.6,0.3-1.2,0.5-2,0.5c-1.4,0-2.5-0.6-3.3-1.7
		c-0.8-1.1-1.2-2.6-1.2-4.5c0-1.2,0.2-2.3,0.6-3.2s0.9-1.7,1.6-2.2c0.7-0.5,1.5-0.8,2.5-0.8c1.2,0,2.3,0.5,3.2,1.5v-6.2L464.7,29.6z
		 M461.4,44.4c0.4-0.3,0.9-0.7,1.3-1.3v-5.8c-0.4-0.5-0.8-0.9-1.2-1.2s-0.9-0.4-1.5-0.4c-0.9,0-1.6,0.4-2.1,1.1
		c-0.5,0.8-0.8,1.9-0.8,3.4s0.2,2.7,0.7,3.4s1.1,1.1,2,1.1C460.4,44.8,460.9,44.7,461.4,44.4z"/>
	<path class="st2" d="M478.2,29.6v16.6h-1.8l-0.2-1.6c-0.4,0.6-0.9,1.1-1.5,1.4c-0.6,0.3-1.2,0.5-2,0.5c-1.4,0-2.5-0.6-3.3-1.7
		c-0.8-1.1-1.2-2.6-1.2-4.5c0-1.2,0.2-2.3,0.6-3.2c0.4-0.9,0.9-1.7,1.6-2.2c0.7-0.5,1.5-0.8,2.5-0.8c1.2,0,2.3,0.5,3.2,1.5v-6.2
		L478.2,29.6z M474.8,44.4c0.5-0.3,0.9-0.7,1.3-1.3v-5.8c-0.4-0.5-0.8-0.9-1.2-1.2s-0.9-0.4-1.5-0.4c-0.9,0-1.6,0.4-2.1,1.1
		s-0.8,1.9-0.8,3.4s0.2,2.7,0.7,3.4c0.5,0.8,1.1,1.1,2,1.1C473.8,44.8,474.4,44.7,474.8,44.4z"/>
	<path class="st2" d="M491.4,41h-7.6c0.1,1.3,0.4,2.3,1,2.9c0.6,0.6,1.3,0.9,2.2,0.9c0.6,0,1.1-0.1,1.6-0.2c0.5-0.2,1-0.4,1.5-0.8
		L491,45c-1.3,1-2.6,1.5-4.1,1.5c-1.6,0-2.9-0.5-3.9-1.6c-0.9-1.1-1.4-2.6-1.4-4.5c0-1.2,0.2-2.3,0.6-3.3c0.4-1,1-1.7,1.7-2.2
		s1.6-0.8,2.6-0.8c1.6,0,2.8,0.5,3.6,1.6s1.3,2.5,1.3,4.3C491.4,40.3,491.4,40.6,491.4,41z M489.4,39.3c0-1.2-0.2-2.1-0.7-2.7
		c-0.5-0.6-1.2-0.9-2.1-0.9c-1.7,0-2.6,1.2-2.8,3.7L489.4,39.3L489.4,39.3z"/>
	<path class="st2" d="M501,34.2l-0.4,2c-0.4-0.1-0.7-0.1-1-0.1c-0.7,0-1.3,0.3-1.8,0.8s-0.8,1.4-1.1,2.5v6.8h-2.1V34.4h1.8l0.2,2.4
		c0.3-0.9,0.7-1.6,1.3-2c0.5-0.5,1.2-0.7,1.9-0.7C500.3,34.1,500.7,34.1,501,34.2z"/>
	<path class="st2" d="M510.8,44.5c0.2,0.2,0.4,0.4,0.7,0.5l-0.5,1.4c-0.6-0.1-1.1-0.2-1.5-0.5s-0.7-0.7-0.8-1.3
		c-0.8,1.2-2,1.8-3.5,1.8c-1.2,0-2.1-0.3-2.8-1s-1-1.5-1-2.6c0-1.3,0.5-2.2,1.4-2.9s2.2-1,3.9-1h1.8V38c0-0.8-0.2-1.4-0.6-1.8
		c-0.4-0.4-1-0.5-1.9-0.5s-1.9,0.2-3.2,0.6l-0.5-1.5c1.5-0.5,2.8-0.8,4.1-0.8c1.4,0,2.4,0.3,3.1,1c0.7,0.7,1,1.7,1,2.9v5.4
		C510.6,43.9,510.7,44.3,510.8,44.5z M508.5,43.1v-2.7h-1.6c-2.2,0-3.3,0.8-3.3,2.4c0,0.7,0.2,1.2,0.5,1.6c0.3,0.4,0.9,0.5,1.5,0.5
		C506.9,44.9,507.9,44.3,508.5,43.1z"/>
	<path class="st2" d="M515.2,45.8c-0.4-0.5-0.7-1.1-0.7-1.9V29.6l2.1-0.2v14.5c0,0.3,0.1,0.6,0.2,0.7c0.1,0.2,0.3,0.2,0.6,0.2
		s0.5,0,0.8-0.1l0.5,1.4c-0.5,0.3-1,0.4-1.6,0.4C516.2,46.5,515.6,46.3,515.2,45.8z"/>
	<path class="st2" d="M521.8,45.8c-0.4-0.5-0.7-1.1-0.7-1.9V29.6l2.1-0.2v14.5c0,0.3,0.1,0.6,0.2,0.7c0.1,0.2,0.3,0.2,0.6,0.2
		s0.5,0,0.8-0.1l0.5,1.4c-0.5,0.3-1,0.4-1.6,0.4C522.8,46.5,522.2,46.3,521.8,45.8z"/>
</g>
<g class="st3">
	<path class="st2" d="M18.5,71.5c0.2,0.2,0.4,0.4,0.7,0.5l-0.5,1.4c-0.6-0.1-1.1-0.2-1.5-0.5s-0.7-0.7-0.8-1.3
		c-0.8,1.2-2,1.8-3.5,1.8c-1.2,0-2.1-0.3-2.8-1c-0.7-0.7-1-1.5-1-2.6c0-1.3,0.5-2.2,1.4-2.9c0.9-0.7,2.2-1,3.9-1h1.8V65
		c0-0.8-0.2-1.4-0.6-1.8c-0.4-0.4-1-0.5-1.9-0.5s-1.9,0.2-3.2,0.6L10,61.8c1.5-0.5,2.8-0.8,4.1-0.8c1.4,0,2.4,0.3,3.1,1s1,1.7,1,2.9
		v5.4C18.3,70.9,18.3,71.3,18.5,71.5z M16.2,70.1v-2.7h-1.6c-2.2,0-3.3,0.8-3.3,2.4c0,0.7,0.2,1.2,0.5,1.6s0.9,0.5,1.5,0.5
		C14.6,71.9,15.5,71.3,16.2,70.1z"/>
	<path class="st2" d="M36.7,62.1c0.6,0.7,0.9,1.5,0.9,2.6v8.5h-2.1V65c0-1.5-0.6-2.3-1.7-2.3c-0.6,0-1.1,0.2-1.5,0.5
		s-0.8,0.9-1.3,1.6v8.4h-2.1V65c0-1.5-0.6-2.3-1.7-2.3c-0.6,0-1.1,0.2-1.5,0.5s-0.8,0.9-1.3,1.6v8.4h-2.1V61.4h1.8l0.2,1.7
		c0.9-1.3,2-2,3.4-2c0.7,0,1.4,0.2,1.9,0.6c0.5,0.4,0.9,0.9,1.1,1.6c0.5-0.7,1-1.2,1.5-1.6s1.2-0.6,2-0.6
		C35.4,61.1,36.2,61.4,36.7,62.1z"/>
	<path class="st2" d="M50.1,62.8c0.9,1.1,1.4,2.6,1.4,4.5c0,1.2-0.2,2.3-0.6,3.2c-0.4,0.9-1,1.7-1.8,2.2s-1.7,0.8-2.8,0.8
		c-1.7,0-3-0.6-3.9-1.7S41,69.2,41,67.3c0-1.2,0.2-2.3,0.6-3.2c0.4-0.9,1-1.7,1.8-2.2s1.7-0.8,2.9-0.8
		C47.9,61.1,49.2,61.7,50.1,62.8z M43.2,67.3c0,3,1,4.5,3.1,4.5s3.1-1.5,3.1-4.5s-1-4.5-3-4.5C44.2,62.8,43.2,64.3,43.2,67.3z"/>
	<path class="st2" d="M63,62.1c0.6,0.6,0.9,1.5,0.9,2.7v8.5h-2.1V65c0-0.8-0.2-1.4-0.5-1.8c-0.3-0.3-0.8-0.5-1.4-0.5
		c-0.6,0-1.2,0.2-1.7,0.5c-0.5,0.4-0.9,0.9-1.3,1.6v8.4h-2.1V61.4h1.8l0.2,1.8c0.4-0.6,0.9-1.1,1.6-1.5c0.6-0.4,1.3-0.5,2.1-0.5
		C61.6,61.1,62.4,61.4,63,62.1z"/>
	<path class="st2" d="M77.6,61.9c-0.4,0.2-0.9,0.2-1.5,0.3c-0.5,0-1.2,0.1-2,0.1c1.4,0.6,2.1,1.6,2.1,3c0,1.2-0.4,2.2-1.2,2.9
		s-1.9,1.1-3.3,1.1c-0.5,0-1-0.1-1.5-0.2c-0.2,0.1-0.3,0.3-0.4,0.5c-0.1,0.2-0.2,0.4-0.2,0.6c0,0.6,0.5,1,1.6,1h1.9
		c0.8,0,1.5,0.1,2.1,0.4s1.1,0.7,1.4,1.2c0.3,0.5,0.5,1.1,0.5,1.7c0,1.2-0.5,2-1.4,2.7c-0.9,0.6-2.3,0.9-4.1,0.9
		c-1.3,0-2.3-0.1-3-0.4S67.3,77,67,76.5s-0.5-1.2-0.5-2h1.9c0,0.5,0.1,0.9,0.3,1.1c0.2,0.3,0.5,0.5,1,0.6s1.1,0.2,2,0.2
		c1.2,0,2.1-0.2,2.7-0.5c0.5-0.3,0.8-0.8,0.8-1.4s-0.2-1-0.6-1.3c-0.4-0.3-1-0.4-1.8-0.4h-1.9c-1,0-1.8-0.2-2.3-0.6s-0.8-1-0.8-1.6
		c0-0.4,0.1-0.8,0.3-1.1c0.2-0.4,0.5-0.7,1-1c-0.7-0.4-1.2-0.8-1.5-1.3s-0.5-1.2-0.5-1.9c0-0.8,0.2-1.5,0.6-2.1
		c0.4-0.6,0.9-1.1,1.6-1.5c0.7-0.4,1.5-0.5,2.3-0.5c0.9,0,1.7,0,2.3-0.1s1.2-0.2,1.6-0.3c0.4-0.1,0.9-0.3,1.5-0.6L77.6,61.9z
		 M69.8,63.3c-0.4,0.5-0.6,1.1-0.6,1.9c0,0.8,0.2,1.5,0.7,1.9c0.4,0.5,1,0.7,1.8,0.7s1.4-0.2,1.9-0.7s0.6-1.1,0.6-2
		c0-1.8-0.8-2.6-2.5-2.6C70.8,62.6,70.2,62.8,69.8,63.3z"/>
	<path class="st2" d="M91.1,61.4c0.6,0.2,1.3,0.6,1.8,1L92,63.7c-0.5-0.3-1.1-0.6-1.5-0.8c-0.5-0.2-1-0.2-1.5-0.2
		c-0.7,0-1.2,0.1-1.6,0.4c-0.4,0.3-0.6,0.7-0.6,1.1s0.2,0.9,0.6,1.1c0.4,0.3,1,0.5,2,0.8c1.3,0.3,2.3,0.8,3,1.3c0.7,0.6,1,1.3,1,2.3
		c0,1.2-0.5,2.1-1.4,2.7s-2,0.9-3.3,0.9c-1.8,0-3.3-0.5-4.5-1.6l1.1-1.3c1,0.8,2.1,1.1,3.3,1.1c0.8,0,1.4-0.2,1.9-0.5
		s0.7-0.8,0.7-1.3c0-0.4-0.1-0.7-0.2-1c-0.2-0.2-0.4-0.5-0.9-0.7s-1-0.4-1.8-0.6c-1.3-0.3-2.2-0.8-2.7-1.3c-0.6-0.6-0.8-1.3-0.8-2.1
		c0-0.6,0.2-1.2,0.6-1.7c0.4-0.5,0.9-0.9,1.5-1.2c0.7-0.3,1.4-0.4,2.2-0.4S90.5,61.2,91.1,61.4z"/>
	<path class="st2" d="M102.2,72.7c-0.8,0.5-1.7,0.8-2.7,0.8s-1.8-0.3-2.4-0.9c-0.6-0.6-0.8-1.4-0.8-2.5V63h-2v-1.6h2.1v-2.7l2.1-0.2
		v2.9h2.8l-0.2,1.6h-2.6v7c0,0.6,0.1,1.1,0.3,1.3c0.2,0.3,0.6,0.4,1.1,0.4s1-0.2,1.6-0.5L102.2,72.7z"/>
	<path class="st2" d="M113.2,73.2h-1.8l-0.2-1.8c-0.4,0.7-1,1.3-1.6,1.6c-0.6,0.3-1.3,0.5-2.1,0.5c-1,0-1.8-0.3-2.4-0.9
		c-0.6-0.6-0.9-1.5-0.9-2.7v-8.5h2.1v8.3c0,0.8,0.1,1.4,0.4,1.7c0.3,0.3,0.7,0.5,1.4,0.5c1.2,0,2.1-0.7,3-2v-8.5h2.1V73.2z"/>
	<path class="st2" d="M126.6,56.6v16.6h-1.8l-0.2-1.6c-0.4,0.6-0.9,1.1-1.5,1.4s-1.2,0.5-2,0.5c-1.4,0-2.5-0.6-3.3-1.7
		s-1.2-2.6-1.2-4.5c0-1.2,0.2-2.3,0.6-3.2c0.4-0.9,0.9-1.7,1.6-2.2c0.7-0.5,1.5-0.8,2.5-0.8c1.2,0,2.3,0.5,3.2,1.5v-6.2L126.6,56.6z
		 M123.3,71.4c0.4-0.3,0.9-0.7,1.3-1.3v-5.8c-0.4-0.5-0.8-0.9-1.2-1.2s-0.9-0.4-1.5-0.4c-0.9,0-1.6,0.4-2.1,1.1
		c-0.5,0.8-0.8,1.9-0.8,3.4s0.2,2.7,0.7,3.4c0.5,0.8,1.1,1.1,2,1.1C122.3,71.8,122.8,71.7,123.3,71.4z"/>
	<path class="st2" d="M139.8,68h-7.6c0.1,1.3,0.4,2.3,1,2.9s1.3,0.9,2.2,0.9c0.6,0,1.1-0.1,1.6-0.2s1-0.4,1.5-0.8l0.9,1.2
		c-1.3,1-2.6,1.5-4.1,1.5c-1.6,0-2.9-0.5-3.9-1.6c-0.9-1.1-1.4-2.6-1.4-4.5c0-1.2,0.2-2.3,0.6-3.3c0.4-1,1-1.7,1.7-2.2
		s1.6-0.8,2.6-0.8c1.6,0,2.8,0.5,3.6,1.6c0.8,1,1.3,2.5,1.3,4.3C139.8,67.3,139.8,67.6,139.8,68z M137.8,66.3c0-1.2-0.2-2.1-0.7-2.7
		c-0.5-0.6-1.2-0.9-2.1-0.9c-1.7,0-2.6,1.2-2.8,3.7L137.8,66.3L137.8,66.3z"/>
	<path class="st2" d="M151.3,62.1c0.6,0.6,0.9,1.5,0.9,2.7v8.5h-2.1V65c0-0.8-0.2-1.4-0.5-1.8c-0.3-0.3-0.8-0.5-1.4-0.5
		c-0.6,0-1.2,0.2-1.7,0.5c-0.5,0.4-0.9,0.9-1.3,1.6v8.4h-2.1V61.4h1.8l0.2,1.8c0.4-0.6,0.9-1.1,1.6-1.5c0.6-0.4,1.3-0.5,2.1-0.5
		C149.8,61.1,150.7,61.4,151.3,62.1z"/>
	<path class="st2" d="M162.3,72.7c-0.8,0.5-1.7,0.8-2.7,0.8s-1.8-0.3-2.4-0.9s-0.8-1.4-0.8-2.5V63h-2.1v-1.6h2.1v-2.7l2.1-0.2v2.9
		h2.8l-0.2,1.6h-2.6v7c0,0.6,0.1,1.1,0.3,1.3c0.2,0.3,0.6,0.4,1.1,0.4s1-0.2,1.6-0.5L162.3,72.7z"/>
	<path class="st2" d="M169.8,61.4c0.6,0.2,1.3,0.6,1.8,1l-0.9,1.3c-0.5-0.3-1.1-0.6-1.5-0.8c-0.5-0.2-1-0.2-1.5-0.2
		c-0.7,0-1.2,0.1-1.6,0.4c-0.4,0.3-0.6,0.7-0.6,1.1s0.2,0.9,0.6,1.1c0.4,0.3,1,0.5,2,0.8c1.3,0.3,2.3,0.8,3,1.3c0.7,0.6,1,1.3,1,2.3
		c0,1.2-0.5,2.1-1.4,2.7s-2,0.9-3.3,0.9c-1.8,0-3.3-0.5-4.5-1.6l1.1-1.3c1,0.8,2.1,1.1,3.3,1.1c0.8,0,1.4-0.2,1.9-0.5
		s0.7-0.8,0.7-1.3c0-0.4-0.1-0.7-0.2-1c-0.2-0.2-0.4-0.5-0.9-0.7s-1-0.4-1.8-0.6c-1.3-0.3-2.2-0.8-2.7-1.3c-0.6-0.6-0.8-1.3-0.8-2.1
		c0-0.6,0.2-1.2,0.6-1.7s0.9-0.9,1.5-1.2c0.7-0.3,1.4-0.4,2.2-0.4S169.2,61.2,169.8,61.4z"/>
	<path class="st2" d="M189.1,71.5c0.2,0.2,0.4,0.4,0.7,0.5l-0.5,1.4c-0.6-0.1-1.1-0.2-1.5-0.5s-0.7-0.7-0.8-1.3
		c-0.8,1.2-2,1.8-3.5,1.8c-1.2,0-2.1-0.3-2.8-1c-0.7-0.7-1-1.5-1-2.6c0-1.3,0.5-2.2,1.4-2.9c0.9-0.7,2.2-1,3.9-1h1.8V65
		c0-0.8-0.2-1.4-0.6-1.8c-0.4-0.4-1-0.5-1.9-0.5s-1.9,0.2-3.2,0.6l-0.5-1.5c1.5-0.5,2.8-0.8,4.1-0.8c1.4,0,2.4,0.3,3.1,1
		s1,1.7,1,2.9v5.4C188.9,70.9,189,71.3,189.1,71.5z M186.8,70.1v-2.7h-1.5c-2.2,0-3.3,0.8-3.3,2.4c0,0.7,0.2,1.2,0.5,1.6
		s0.9,0.5,1.5,0.5C185.2,71.9,186.2,71.3,186.8,70.1z"/>
	<path class="st2" d="M201.3,62.1c0.6,0.6,0.9,1.5,0.9,2.7v8.5h-2.1V65c0-0.8-0.2-1.4-0.5-1.8c-0.3-0.3-0.8-0.5-1.4-0.5
		s-1.2,0.2-1.7,0.5c-0.5,0.4-0.9,0.9-1.3,1.6v8.4h-2.1V61.4h1.8l0.2,1.8c0.4-0.6,0.9-1.1,1.6-1.5c0.6-0.4,1.3-0.5,2.1-0.5
		C199.8,61.1,200.6,61.4,201.3,62.1z"/>
	<path class="st2" d="M215.5,56.6v16.6h-1.8l-0.2-1.6c-0.4,0.6-0.9,1.1-1.5,1.4s-1.2,0.5-2,0.5c-1.4,0-2.5-0.6-3.3-1.7
		s-1.2-2.6-1.2-4.5c0-1.2,0.2-2.3,0.6-3.2c0.4-0.9,0.9-1.7,1.6-2.2s1.5-0.8,2.5-0.8c1.2,0,2.3,0.5,3.2,1.5v-6.2L215.5,56.6z
		 M212.1,71.4c0.4-0.3,0.9-0.7,1.3-1.3v-5.8c-0.4-0.5-0.8-0.9-1.2-1.2c-0.4-0.3-0.9-0.4-1.5-0.4c-0.9,0-1.6,0.4-2.1,1.1
		c-0.5,0.8-0.8,1.9-0.8,3.4s0.2,2.7,0.7,3.4c0.5,0.8,1.1,1.1,2,1.1C211.1,71.8,211.7,71.7,212.1,71.4z"/>
	<path class="st2" d="M233.8,62.1c0.6,0.6,0.9,1.5,0.9,2.7v8.5h-2.1V65c0-0.8-0.2-1.4-0.5-1.8c-0.3-0.3-0.8-0.5-1.4-0.5
		s-1.2,0.2-1.7,0.5c-0.5,0.4-0.9,0.9-1.3,1.6v8.4h-2.1V61.4h1.8l0.2,1.8c0.4-0.6,0.9-1.1,1.6-1.5c0.6-0.4,1.3-0.5,2.1-0.5
		C232.4,61.1,233.2,61.4,233.8,62.1z"/>
	<path class="st2" d="M247.7,73.2h-1.8l-0.2-1.8c-0.4,0.7-1,1.3-1.6,1.6c-0.6,0.3-1.3,0.5-2.1,0.5c-1,0-1.8-0.3-2.4-0.9
		s-0.9-1.5-0.9-2.7v-8.5h2.1v8.3c0,0.8,0.1,1.4,0.4,1.7c0.3,0.3,0.7,0.5,1.4,0.5c1.2,0,2.1-0.7,3-2v-8.5h2.1V73.2z"/>
	<path class="st2" d="M266.2,62.1c0.6,0.7,0.9,1.5,0.9,2.6v8.5H265V65c0-1.5-0.6-2.3-1.7-2.3c-0.6,0-1.1,0.2-1.5,0.5
		s-0.8,0.9-1.3,1.6v8.4h-2.1V65c0-1.5-0.6-2.3-1.7-2.3c-0.6,0-1.1,0.2-1.5,0.5s-0.8,0.9-1.3,1.6v8.4h-2.1V61.4h1.8l0.2,1.7
		c0.9-1.3,2-2,3.4-2c0.7,0,1.4,0.2,1.9,0.6c0.5,0.4,0.9,0.9,1.1,1.6c0.5-0.7,1-1.2,1.5-1.6s1.2-0.6,2-0.6
		C264.9,61.1,265.6,61.4,266.2,62.1z"/>
	<path class="st2" d="M279.9,62.7c0.8,1.1,1.2,2.6,1.2,4.6c0,1.2-0.2,2.3-0.6,3.2c-0.4,0.9-0.9,1.7-1.6,2.2s-1.5,0.8-2.5,0.8
		c-1.2,0-2.3-0.5-3.1-1.6l-0.2,1.3h-1.8V56.6l2.1-0.2v6.5c0.9-1.2,2-1.8,3.4-1.8C278,61.1,279.1,61.6,279.9,62.7z M278.1,70.7
		c0.5-0.7,0.8-1.9,0.8-3.5s-0.2-2.8-0.7-3.5s-1.2-1.1-2-1.1c-1,0-2,0.6-2.8,1.8v5.7c0.3,0.5,0.7,0.9,1.2,1.2s0.9,0.4,1.5,0.4
		C276.9,71.8,277.6,71.5,278.1,70.7z"/>
	<path class="st2" d="M293.5,68h-7.6c0.1,1.3,0.4,2.3,1,2.9s1.3,0.9,2.2,0.9c0.6,0,1.1-0.1,1.6-0.2s1-0.4,1.5-0.8l0.9,1.2
		c-1.3,1-2.6,1.5-4.1,1.5c-1.6,0-2.9-0.5-3.9-1.6c-0.9-1.1-1.4-2.6-1.4-4.5c0-1.2,0.2-2.3,0.6-3.3s1-1.7,1.7-2.2s1.6-0.8,2.6-0.8
		c1.6,0,2.8,0.5,3.6,1.6c0.8,1,1.3,2.5,1.3,4.3C293.6,67.3,293.6,67.6,293.5,68z M291.5,66.3c0-1.2-0.2-2.1-0.7-2.7
		c-0.5-0.6-1.2-0.9-2.1-0.9c-1.7,0-2.6,1.2-2.8,3.7L291.5,66.3L291.5,66.3z"/>
	<path class="st2" d="M303.2,61.2l-0.4,2c-0.4-0.1-0.7-0.1-1-0.1c-0.7,0-1.3,0.3-1.8,0.8c-0.4,0.5-0.8,1.4-1.1,2.5v6.8h-2.1V61.4
		h1.8l0.2,2.4c0.3-0.9,0.7-1.6,1.3-2c0.5-0.5,1.2-0.7,1.9-0.7C302.5,61.1,302.8,61.1,303.2,61.2z"/>
	<path class="st2" d="M319.9,62.8c0.9,1.1,1.4,2.6,1.4,4.5c0,1.2-0.2,2.3-0.6,3.2c-0.4,0.9-1,1.7-1.8,2.2s-1.7,0.8-2.8,0.8
		c-1.7,0-3-0.6-3.9-1.7s-1.4-2.6-1.4-4.5c0-1.2,0.2-2.3,0.6-3.2c0.4-0.9,1-1.7,1.8-2.2s1.7-0.8,2.9-0.8
		C317.6,61.1,318.9,61.7,319.9,62.8z M312.9,67.3c0,3,1,4.5,3.1,4.5s3.1-1.5,3.1-4.5s-1-4.5-3-4.5C313.9,62.8,312.9,64.3,312.9,67.3
		z"/>
	<path class="st2" d="M327.3,58.4c-0.3,0.3-0.4,0.7-0.4,1.3v1.6h2.9l-0.2,1.6h-2.7v10.3h-2.1V63h-2.1v-1.6h2.1v-1.6
		c0-1,0.3-1.8,1-2.5c0.7-0.6,1.6-0.9,2.7-0.9c0.5,0,1,0,1.5,0.1c0.4,0.1,0.9,0.3,1.4,0.5l-0.7,1.5c-0.7-0.3-1.4-0.5-2.1-0.5
		C328.1,58,327.6,58.2,327.3,58.4z"/>
	<path class="st2" d="M346.4,71.5c0.2,0.2,0.4,0.4,0.7,0.5l-0.5,1.4c-0.6-0.1-1.1-0.2-1.5-0.5s-0.7-0.7-0.8-1.3
		c-0.8,1.2-2,1.8-3.5,1.8c-1.2,0-2.1-0.3-2.8-1c-0.7-0.7-1-1.5-1-2.6c0-1.3,0.5-2.2,1.4-2.9c0.9-0.7,2.2-1,3.9-1h1.8V65
		c0-0.8-0.2-1.4-0.6-1.8c-0.4-0.4-1-0.5-1.9-0.5s-1.9,0.2-3.2,0.6l-0.5-1.5c1.5-0.5,2.8-0.8,4.1-0.8c1.4,0,2.4,0.3,3.1,1
		s1,1.7,1,2.9v5.4C346.1,70.9,346.2,71.3,346.4,71.5z M344.1,70.1v-2.7h-1.6c-2.2,0-3.3,0.8-3.3,2.4c0,0.7,0.2,1.2,0.5,1.6
		s0.9,0.5,1.5,0.5C342.5,71.9,343.4,71.3,344.1,70.1z"/>
	<path class="st2" d="M356.7,61.2l-0.4,2c-0.4-0.1-0.7-0.1-1-0.1c-0.7,0-1.3,0.3-1.8,0.8s-0.8,1.4-1.1,2.5v6.8h-2.1V61.4h1.8
		l0.2,2.4c0.3-0.9,0.7-1.6,1.3-2c0.5-0.5,1.2-0.7,1.9-0.7C356,61.1,356.3,61.1,356.7,61.2z"/>
	<path class="st2" d="M365,72.7c-0.8,0.5-1.7,0.8-2.7,0.8s-1.8-0.3-2.4-0.9s-0.8-1.4-0.8-2.5V63H357v-1.6h2.1v-2.7l2.1-0.2v2.9h2.8
		l-0.2,1.6h-2.5v7c0,0.6,0.1,1.1,0.3,1.3c0.2,0.3,0.6,0.4,1.1,0.4s1-0.2,1.6-0.5L365,72.7z"/>
	<path class="st2" d="M369.2,56.1c0.3,0.3,0.4,0.6,0.4,1s-0.1,0.7-0.4,1s-0.6,0.4-1.1,0.4c-0.4,0-0.8-0.1-1-0.4
		c-0.3-0.3-0.4-0.6-0.4-1s0.1-0.7,0.4-1s0.6-0.4,1-0.4C368.6,55.7,369,55.8,369.2,56.1z M369.2,61.4v11.9h-2.1V61.4H369.2z"/>
	<path class="st2" d="M379.8,61.4c0.6,0.2,1.1,0.5,1.7,1l-1,1.3c-0.4-0.3-0.8-0.5-1.2-0.7c-0.4-0.1-0.8-0.2-1.3-0.2
		c-1,0-1.7,0.4-2.2,1.1c-0.5,0.8-0.8,1.9-0.8,3.4s0.3,2.6,0.8,3.3c0.5,0.7,1.3,1.1,2.2,1.1c0.5,0,0.9-0.1,1.3-0.2s0.8-0.4,1.3-0.7
		l0.9,1.3c-1.1,0.9-2.3,1.3-3.6,1.3c-1.6,0-2.9-0.5-3.8-1.6s-1.4-2.6-1.4-4.5c0-1.3,0.2-2.4,0.6-3.3s1-1.7,1.8-2.2s1.7-0.8,2.8-0.8
		C378.5,61.1,379.2,61.2,379.8,61.4z"/>
	<path class="st2" d="M384.8,72.8c-0.4-0.5-0.7-1.1-0.7-1.9V56.6l2.1-0.2v14.5c0,0.3,0.1,0.6,0.2,0.7c0.1,0.2,0.3,0.2,0.6,0.2
		c0.3,0,0.5,0,0.8-0.1l0.5,1.4c-0.5,0.3-1,0.4-1.6,0.4C385.9,73.5,385.3,73.3,384.8,72.8z"/>
	<path class="st2" d="M399.7,68h-7.6c0.1,1.3,0.4,2.3,1,2.9s1.3,0.9,2.2,0.9c0.6,0,1.1-0.1,1.6-0.2c0.5-0.2,1-0.4,1.5-0.8l0.9,1.2
		c-1.3,1-2.6,1.5-4.1,1.5c-1.6,0-2.9-0.5-3.9-1.6c-0.9-1.1-1.4-2.6-1.4-4.5c0-1.2,0.2-2.3,0.6-3.3s1-1.7,1.7-2.2s1.6-0.8,2.6-0.8
		c1.6,0,2.8,0.5,3.6,1.6s1.3,2.5,1.3,4.3C399.7,67.3,399.7,67.6,399.7,68z M397.7,66.3c0-1.2-0.2-2.1-0.7-2.7
		c-0.5-0.6-1.2-0.9-2.1-0.9c-1.7,0-2.6,1.2-2.8,3.7L397.7,66.3L397.7,66.3z"/>
	<path class="st2" d="M408.4,61.4c0.6,0.2,1.3,0.6,1.8,1l-0.9,1.3c-0.5-0.3-1.1-0.6-1.5-0.8c-0.5-0.2-1-0.2-1.5-0.2
		c-0.7,0-1.2,0.1-1.6,0.4c-0.4,0.3-0.6,0.7-0.6,1.1s0.2,0.9,0.6,1.1c0.4,0.3,1,0.5,2,0.8c1.3,0.3,2.3,0.8,3,1.3c0.7,0.6,1,1.3,1,2.3
		c0,1.2-0.5,2.1-1.4,2.7s-2,0.9-3.3,0.9c-1.8,0-3.3-0.5-4.5-1.6l1.1-1.3c1,0.8,2.1,1.1,3.3,1.1c0.8,0,1.4-0.2,1.9-0.5
		s0.7-0.8,0.7-1.3c0-0.4-0.1-0.7-0.2-1c-0.2-0.2-0.5-0.5-0.9-0.7s-1-0.4-1.8-0.6c-1.3-0.3-2.2-0.8-2.7-1.3c-0.6-0.6-0.8-1.3-0.8-2.1
		c0-0.6,0.2-1.2,0.6-1.7s0.9-0.9,1.5-1.2s1.4-0.4,2.2-0.4S407.8,61.2,408.4,61.4z"/>
	<path class="st2" d="M425.4,72.7c-0.8,0.5-1.7,0.8-2.7,0.8s-1.8-0.3-2.3-0.9c-0.6-0.6-0.8-1.4-0.8-2.5V63h-2.1v-1.6h2.1v-2.7
		l2.1-0.2v2.9h2.8l-0.2,1.6h-2.6v7c0,0.6,0.1,1.1,0.3,1.3c0.2,0.3,0.6,0.4,1.1,0.4s1-0.2,1.6-0.5L425.4,72.7z"/>
	<path class="st2" d="M435.7,62.1c0.6,0.6,0.9,1.5,0.9,2.7v8.5h-2.1V65c0-0.8-0.2-1.4-0.5-1.8s-0.8-0.5-1.4-0.5s-1.2,0.2-1.6,0.5
		c-0.5,0.4-0.9,0.9-1.3,1.5v8.4h-2.1V56.6l2.1-0.2V63c0.9-1.3,2.1-1.9,3.5-1.9C434.2,61.1,435.1,61.4,435.7,62.1z"/>
	<path class="st2" d="M449,71.5c0.2,0.2,0.4,0.4,0.7,0.5l-0.5,1.4c-0.6-0.1-1.1-0.2-1.5-0.5s-0.7-0.7-0.8-1.3
		c-0.8,1.2-2,1.8-3.5,1.8c-1.2,0-2.1-0.3-2.8-1s-1-1.5-1-2.6c0-1.3,0.5-2.2,1.4-2.9s2.2-1,3.9-1h1.8V65c0-0.8-0.2-1.4-0.6-1.8
		c-0.4-0.4-1-0.5-1.9-0.5s-1.9,0.2-3.2,0.6l-0.5-1.5c1.5-0.5,2.8-0.8,4.1-0.8c1.4,0,2.4,0.3,3.1,1c0.7,0.7,1,1.7,1,2.9v5.4
		C448.7,70.9,448.8,71.3,449,71.5z M446.7,70.1v-2.7h-1.6c-2.2,0-3.3,0.8-3.3,2.4c0,0.7,0.2,1.2,0.5,1.6s0.9,0.5,1.5,0.5
		C445.1,71.9,446,71.3,446.7,70.1z"/>
	<path class="st2" d="M459,72.7c-0.8,0.5-1.7,0.8-2.7,0.8s-1.8-0.3-2.4-0.9s-0.8-1.4-0.8-2.5V63H451v-1.6h2.1v-2.7l2.1-0.2v2.9h2.8
		l-0.2,1.6h-2.6v7c0,0.6,0.1,1.1,0.3,1.3c0.2,0.3,0.6,0.4,1.1,0.4s1-0.2,1.6-0.5L459,72.7z"/>
	<path class="st2" d="M473.1,72.7c-0.8,0.5-1.7,0.8-2.7,0.8s-1.8-0.3-2.4-0.9s-0.8-1.4-0.8-2.5V63h-2.1v-1.6h2.1v-2.7l2.1-0.2v2.9
		h2.8l-0.2,1.6h-2.6v7c0,0.6,0.1,1.1,0.3,1.3c0.2,0.3,0.6,0.4,1.1,0.4s1-0.2,1.6-0.5L473.1,72.7z"/>
	<path class="st2" d="M483.3,71.5c0.2,0.2,0.4,0.4,0.7,0.5l-0.5,1.4c-0.6-0.1-1.1-0.2-1.5-0.5s-0.7-0.7-0.8-1.3
		c-0.8,1.2-2,1.8-3.5,1.8c-1.2,0-2.1-0.3-2.8-1s-1-1.5-1-2.6c0-1.3,0.5-2.2,1.4-2.9s2.2-1,3.9-1h1.8V65c0-0.8-0.2-1.4-0.6-1.8
		c-0.4-0.4-1-0.5-1.9-0.5s-1.9,0.2-3.2,0.6l-0.5-1.5c1.5-0.5,2.8-0.8,4.1-0.8c1.4,0,2.4,0.3,3.1,1c0.7,0.7,1,1.7,1,2.9v5.4
		C483,70.9,483.1,71.3,483.3,71.5z M480.9,70.1v-2.7h-1.6c-2.2,0-3.3,0.8-3.3,2.4c0,0.7,0.2,1.2,0.5,1.6s0.9,0.5,1.5,0.5
		C479.3,71.9,480.3,71.3,480.9,70.1z"/>
	<path class="st2" d="M487.6,72.8c-0.4-0.5-0.7-1.1-0.7-1.9V56.6l2.1-0.2v14.5c0,0.3,0.1,0.6,0.2,0.7c0.1,0.2,0.3,0.2,0.6,0.2
		s0.5,0,0.8-0.1l0.5,1.4c-0.5,0.3-1,0.4-1.6,0.4C488.6,73.5,488,73.3,487.6,72.8z"/>
	<path class="st2" d="M495.7,56.4v16.9h-2.1V56.6L495.7,56.4z M502.5,61.4l-4.4,5.2l4.9,6.6h-2.5l-4.7-6.5l4.4-5.4h2.3V61.4z"/>
	<path class="st2" d="M519.3,71.5c0.2,0.2,0.4,0.4,0.7,0.5l-0.5,1.4c-0.6-0.1-1.1-0.2-1.5-0.5s-0.7-0.7-0.8-1.3
		c-0.8,1.2-2,1.8-3.5,1.8c-1.2,0-2.1-0.3-2.8-1s-1-1.5-1-2.6c0-1.3,0.5-2.2,1.4-2.9c0.9-0.7,2.2-1,3.9-1h1.8V65
		c0-0.8-0.2-1.4-0.6-1.8c-0.4-0.4-1-0.5-1.9-0.5s-1.9,0.2-3.2,0.6l-0.5-1.5c1.5-0.5,2.8-0.8,4.1-0.8c1.4,0,2.4,0.3,3.1,1
		c0.7,0.7,1,1.7,1,2.9v5.4C519.1,70.9,519.2,71.3,519.3,71.5z M517,70.1v-2.7h-1.6c-2.2,0-3.3,0.8-3.3,2.4c0,0.7,0.2,1.2,0.5,1.6
		s0.9,0.5,1.5,0.5C515.4,71.9,516.3,71.3,517,70.1z"/>
	<path class="st2" d="M532,62.7c0.8,1.1,1.2,2.6,1.2,4.6c0,1.2-0.2,2.3-0.6,3.2c-0.4,0.9-0.9,1.7-1.6,2.2c-0.7,0.5-1.5,0.8-2.5,0.8
		c-1.2,0-2.3-0.5-3.1-1.6l-0.2,1.3h-1.9V56.6l2.1-0.2v6.5c0.9-1.2,2-1.8,3.4-1.8C530.1,61.1,531.2,61.6,532,62.7z M530.2,70.7
		c0.5-0.7,0.8-1.9,0.8-3.5s-0.2-2.8-0.7-3.5c-0.5-0.7-1.2-1.1-2-1.1c-1,0-2,0.6-2.8,1.8v5.7c0.3,0.5,0.7,0.9,1.2,1.2
		c0.5,0.3,0.9,0.4,1.5,0.4C528.9,71.8,529.6,71.5,530.2,70.7z"/>
	<path class="st2" d="M545,62.8c0.9,1.1,1.4,2.6,1.4,4.5c0,1.2-0.2,2.3-0.6,3.2c-0.4,0.9-1,1.7-1.8,2.2s-1.7,0.8-2.8,0.8
		c-1.7,0-3-0.6-3.9-1.7s-1.4-2.6-1.4-4.5c0-1.2,0.2-2.3,0.6-3.2c0.4-0.9,1-1.7,1.8-2.2s1.7-0.8,2.9-0.8
		C542.8,61.1,544.1,61.7,545,62.8z M538.1,67.3c0,3,1,4.5,3.1,4.5s3.1-1.5,3.1-4.5s-1-4.5-3-4.5C539.1,62.8,538.1,64.3,538.1,67.3z"
		/>
	<path class="st2" d="M558.6,73.2h-1.8l-0.2-1.8c-0.5,0.7-1,1.3-1.6,1.6c-0.6,0.3-1.3,0.5-2.1,0.5c-1,0-1.8-0.3-2.4-0.9
		c-0.6-0.6-0.9-1.5-0.9-2.7v-8.5h2.1v8.3c0,0.8,0.1,1.4,0.4,1.7c0.3,0.3,0.8,0.5,1.4,0.5c1.2,0,2.1-0.7,3-2v-8.5h2.1V73.2z"/>
	<path class="st2" d="M568.9,72.7c-0.8,0.5-1.7,0.8-2.7,0.8s-1.8-0.3-2.4-0.9s-0.8-1.4-0.8-2.5V63h-2.1v-1.6h2.1v-2.7l2.1-0.2v2.9
		h2.8l-0.2,1.6h-2.6v7c0,0.6,0.1,1.1,0.3,1.3c0.2,0.3,0.6,0.4,1.1,0.4s1-0.2,1.6-0.5L568.9,72.7z"/>
	<path class="st2" d="M579.1,56.1c0.3,0.3,0.4,0.6,0.4,1s-0.1,0.7-0.4,1c-0.3,0.3-0.6,0.4-1.1,0.4c-0.4,0-0.8-0.1-1-0.4
		s-0.4-0.6-0.4-1s0.1-0.7,0.4-1c0.3-0.3,0.6-0.4,1-0.4C578.4,55.7,578.8,55.8,579.1,56.1z M579.1,61.4v11.9H577V61.4H579.1z"/>
	<path class="st2" d="M589.3,72.7c-0.8,0.5-1.7,0.8-2.7,0.8s-1.8-0.3-2.4-0.9s-0.8-1.4-0.8-2.5V63h-2.1v-1.6h2.1v-2.7l2.1-0.2v2.9
		h2.8l-0.2,1.6h-2.6v7c0,0.6,0.1,1.1,0.3,1.3c0.2,0.3,0.6,0.4,1.1,0.4s1-0.2,1.6-0.5L589.3,72.7z"/>
	<path class="st2" d="M596.3,57.9c0.7,0.3,1.1,0.8,1.5,1.3c0.3,0.5,0.5,1.1,0.5,1.7c0,0.6-0.1,1.1-0.3,1.5s-0.4,0.7-0.7,1
		s-0.7,0.6-1.1,0.9c-0.6,0.4-1.1,0.8-1.4,1.2c-0.3,0.4-0.5,0.9-0.5,1.5v1h-2v-1.1c0-0.6,0.1-1.2,0.3-1.6s0.5-0.8,0.8-1.1
		c0.3-0.3,0.7-0.6,1.2-0.9c0.6-0.4,1-0.7,1.3-1s0.4-0.7,0.4-1.2c0-0.6-0.2-1.1-0.6-1.4c-0.4-0.3-1-0.5-1.7-0.5
		c-1.2,0-2.2,0.5-3.1,1.6l-1.4-1.1c1.3-1.5,2.8-2.2,4.7-2.2C594.9,57.5,595.7,57.6,596.3,57.9z M594.4,70.8c0.3,0.3,0.5,0.7,0.5,1.1
		s-0.2,0.8-0.5,1.1c-0.3,0.3-0.7,0.5-1.1,0.5c-0.4,0-0.8-0.2-1.1-0.5s-0.5-0.7-0.5-1.1s0.1-0.8,0.5-1.1c0.3-0.3,0.7-0.5,1.1-0.5
		C593.7,70.4,594.1,70.5,594.4,70.8z"/>
</g>
</svg>
