<?xml version="1.0" encoding="utf-8"?>
<!-- Generator: Adobe Illustrator 22.1.0, SVG Export Plug-In . SVG Version: 6.00 Build 0)  -->
<svg version="1.1" xmlns="http://www.w3.org/2000/svg" xmlns:xlink="http://www.w3.org/1999/xlink" x="0px" y="0px"
	 viewBox="0 0 1190.6 669.7" style="enable-background:new 0 0 1190.6 669.7;" xml:space="preserve">
<style type="text/css">
	.st0{fill:#282D74;}
	.st1{fill:#262626;}
	.st2{fill:#2B317F;}
	.st3{fill:#F2652B;}
	.st4{fill:#F7F4F3;}
	.st5{fill:#FCE0D8;}
	.st6{fill:#FAC1B1;}
	.st7{fill:#F7A28B;}
	.st8{fill:#F58464;}
	.st9{fill:#F3653E;}
	.st10{fill:#DC4F28;}
	.st11{fill:#B13F20;}
	.st12{fill:#842F18;}
	.st13{fill:#582010;}
</style>
<g id="Timeline">
	<g>
		<path class="st0" d="M298.1,658.9v9.4h-1.8v-7.6l-2.1,1.3l-0.8-1.2l3.1-1.9H298.1z"/>
		<path class="st0" d="M305.6,659.7c0.6,0.7,0.9,1.5,0.9,2.7c0,1.3-0.2,2.3-0.6,3.1c-0.4,0.8-1,1.5-1.8,2s-1.8,0.9-3.1,1.2l-0.4-1.3
			c1.2-0.3,2.2-0.7,2.8-1.3c0.6-0.5,1-1.2,1.1-2.1c-0.5,0.7-1.2,1-2,1c-0.5,0-0.9-0.1-1.3-0.4c-0.4-0.2-0.7-0.6-1-1.1
			c-0.2-0.5-0.3-1-0.3-1.6c0-0.6,0.1-1.2,0.4-1.7c0.3-0.5,0.7-0.9,1.2-1.1c0.5-0.3,1.1-0.4,1.7-0.4
			C304.3,658.7,305.1,659,305.6,659.7z M304.7,662.7c0-1-0.1-1.6-0.3-2.1c-0.2-0.4-0.6-0.6-1.1-0.6c-0.5,0-0.8,0.2-1.1,0.5
			s-0.4,0.8-0.4,1.4c0,0.6,0.1,1.1,0.4,1.4c0.2,0.3,0.6,0.4,1,0.4C303.7,663.7,304.2,663.3,304.7,662.7z"/>
		<path class="st0" d="M311.6,659c0.5,0.2,0.8,0.5,1,0.9c0.2,0.4,0.3,0.8,0.3,1.2c0,0.6-0.2,1-0.5,1.4c-0.3,0.4-0.8,0.6-1.3,0.8
			c0.6,0.1,1.1,0.3,1.5,0.7c0.4,0.4,0.6,0.9,0.6,1.6c0,0.5-0.1,1-0.4,1.5s-0.7,0.8-1.2,1s-1.1,0.4-1.8,0.4c-1.3,0-2.3-0.5-3.1-1.4
			l1-1c0.3,0.3,0.6,0.5,0.9,0.7c0.3,0.1,0.6,0.2,1,0.2c0.5,0,0.9-0.1,1.2-0.4c0.3-0.3,0.5-0.7,0.5-1.2c0-0.5-0.1-0.9-0.4-1.2
			c-0.3-0.2-0.7-0.4-1.3-0.4H309l0.2-1.3h0.5c0.5,0,0.8-0.1,1.1-0.4c0.3-0.3,0.4-0.6,0.4-1.1c0-0.4-0.1-0.7-0.4-0.9
			c-0.3-0.2-0.6-0.3-1-0.3c-0.4,0-0.7,0.1-1,0.2c-0.3,0.1-0.6,0.3-0.9,0.6l-0.9-1c0.8-0.8,1.8-1.2,3-1.2
			C310.6,658.7,311.2,658.8,311.6,659z"/>
		<path class="st0" d="M320.4,660c0.6,0.8,0.9,2,0.9,3.6c0,1.6-0.3,2.8-0.9,3.6c-0.6,0.8-1.4,1.3-2.5,1.3s-1.9-0.4-2.5-1.3
			c-0.6-0.8-0.9-2.1-0.9-3.6c0-1.6,0.3-2.8,0.9-3.6c0.6-0.8,1.4-1.3,2.5-1.3S319.8,659.1,320.4,660z M316.7,660.9
			c-0.2,0.5-0.4,1.4-0.4,2.7c0,1.3,0.1,2.2,0.4,2.7s0.6,0.8,1.2,0.8c0.5,0,0.9-0.3,1.2-0.8c0.2-0.5,0.4-1.5,0.4-2.8
			c0-1.3-0.1-2.2-0.4-2.7c-0.2-0.5-0.6-0.8-1.2-0.8C317.4,660.1,317,660.3,316.7,660.9z"/>
		<path class="st0" d="M328,661.6l-0.7,1.1c-0.6-0.4-1.3-0.6-1.9-0.6c-0.4,0-0.6,0.1-0.8,0.2c-0.2,0.1-0.3,0.3-0.3,0.5
			c0,0.2,0,0.3,0.1,0.4s0.2,0.2,0.5,0.3c0.2,0.1,0.5,0.2,1,0.3c0.8,0.2,1.4,0.5,1.8,0.9c0.4,0.4,0.6,0.8,0.6,1.5
			c0,0.7-0.3,1.3-0.9,1.7c-0.6,0.4-1.3,0.6-2.2,0.6c-0.6,0-1.2-0.1-1.7-0.3s-0.9-0.4-1.3-0.8l0.9-1c0.6,0.5,1.3,0.7,2,0.7
			c0.4,0,0.7-0.1,1-0.2c0.2-0.2,0.4-0.4,0.4-0.7c0-0.2,0-0.4-0.1-0.5c-0.1-0.1-0.2-0.2-0.5-0.3c-0.2-0.1-0.6-0.2-1.1-0.4
			c-0.8-0.2-1.3-0.5-1.7-0.9c-0.4-0.4-0.5-0.8-0.5-1.4c0-0.4,0.1-0.8,0.4-1.1c0.2-0.3,0.6-0.6,1-0.8c0.4-0.2,0.9-0.3,1.5-0.3
			C326.3,660.7,327.2,661,328,661.6z"/>
	</g>
	<g>
		<path class="st0" d="M397.9,658.9v9.4h-1.8v-7.6l-2.1,1.3l-0.8-1.2l3.1-1.9H397.9z"/>
		<path class="st0" d="M405.4,659.7c0.6,0.7,0.9,1.5,0.9,2.7c0,1.3-0.2,2.3-0.6,3.1c-0.4,0.8-1,1.5-1.8,2s-1.8,0.9-3.1,1.2l-0.4-1.3
			c1.2-0.3,2.2-0.7,2.8-1.3c0.6-0.5,1-1.2,1.1-2.1c-0.5,0.7-1.2,1-2,1c-0.5,0-0.9-0.1-1.3-0.4c-0.4-0.2-0.7-0.6-1-1.1
			c-0.2-0.5-0.3-1-0.3-1.6c0-0.6,0.1-1.2,0.4-1.7c0.3-0.5,0.7-0.9,1.2-1.1c0.5-0.3,1.1-0.4,1.7-0.4C404,658.7,404.9,659,405.4,659.7
			z M404.4,662.7c0-1-0.1-1.6-0.3-2.1c-0.2-0.4-0.6-0.6-1.1-0.6c-0.5,0-0.8,0.2-1.1,0.5s-0.4,0.8-0.4,1.4c0,0.6,0.1,1.1,0.4,1.4
			c0.2,0.3,0.6,0.4,1,0.4C403.5,663.7,404,663.3,404.4,662.7z"/>
		<path class="st0" d="M414,664.8v1.4h-1.1v2.2h-1.8v-2.2h-4v-1.2l2.7-6.2l1.5,0.6l-2.4,5.5h2.2l0.2-2.4h1.6v2.4H414z"/>
		<path class="st0" d="M420.9,660c0.6,0.8,0.9,2,0.9,3.6c0,1.6-0.3,2.8-0.9,3.6c-0.6,0.8-1.4,1.3-2.5,1.3s-1.9-0.4-2.5-1.3
			c-0.6-0.8-0.9-2.1-0.9-3.6c0-1.6,0.3-2.8,0.9-3.6c0.6-0.8,1.4-1.3,2.5-1.3S420.3,659.1,420.9,660z M417.2,660.9
			c-0.2,0.5-0.4,1.4-0.4,2.7c0,1.3,0.1,2.2,0.4,2.7s0.6,0.8,1.2,0.8c0.5,0,0.9-0.3,1.2-0.8c0.2-0.5,0.4-1.5,0.4-2.8
			c0-1.3-0.1-2.2-0.4-2.7c-0.2-0.5-0.6-0.8-1.2-0.8C417.9,660.1,417.5,660.3,417.2,660.9z"/>
		<path class="st0" d="M428.5,661.6l-0.7,1.1c-0.6-0.4-1.3-0.6-1.9-0.6c-0.4,0-0.6,0.1-0.8,0.2c-0.2,0.1-0.3,0.3-0.3,0.5
			c0,0.2,0,0.3,0.1,0.4s0.2,0.2,0.5,0.3c0.2,0.1,0.5,0.2,1,0.3c0.8,0.2,1.4,0.5,1.8,0.9c0.4,0.4,0.6,0.8,0.6,1.5
			c0,0.7-0.3,1.3-0.9,1.7c-0.6,0.4-1.3,0.6-2.2,0.6c-0.6,0-1.2-0.1-1.7-0.3s-0.9-0.4-1.3-0.8l0.9-1c0.6,0.5,1.3,0.7,2,0.7
			c0.4,0,0.7-0.1,1-0.2c0.2-0.2,0.4-0.4,0.4-0.7c0-0.2,0-0.4-0.1-0.5c-0.1-0.1-0.2-0.2-0.5-0.3c-0.2-0.1-0.6-0.2-1.1-0.4
			c-0.8-0.2-1.3-0.5-1.7-0.9c-0.4-0.4-0.5-0.8-0.5-1.4c0-0.4,0.1-0.8,0.4-1.1c0.2-0.3,0.6-0.6,1-0.8c0.4-0.2,0.9-0.3,1.5-0.3
			C426.8,660.7,427.7,661,428.5,661.6z"/>
	</g>
	<g>
		<path class="st0" d="M498.2,658.9v9.4h-1.8v-7.6l-2.1,1.3l-0.8-1.2l3.1-1.9H498.2z"/>
		<path class="st0" d="M505.7,659.7c0.6,0.7,0.9,1.5,0.9,2.7c0,1.3-0.2,2.3-0.6,3.1c-0.4,0.8-1,1.5-1.8,2s-1.8,0.9-3.1,1.2l-0.4-1.3
			c1.2-0.3,2.2-0.7,2.8-1.3c0.6-0.5,1-1.2,1.1-2.1c-0.5,0.7-1.2,1-2,1c-0.5,0-0.9-0.1-1.3-0.4c-0.4-0.2-0.7-0.6-1-1.1
			c-0.2-0.5-0.3-1-0.3-1.6c0-0.6,0.1-1.2,0.4-1.7c0.3-0.5,0.7-0.9,1.2-1.1c0.5-0.3,1.1-0.4,1.7-0.4
			C504.3,658.7,505.1,659,505.7,659.7z M504.7,662.7c0-1-0.1-1.6-0.3-2.1c-0.2-0.4-0.6-0.6-1.1-0.6c-0.5,0-0.8,0.2-1.1,0.5
			s-0.4,0.8-0.4,1.4c0,0.6,0.1,1.1,0.4,1.4c0.2,0.3,0.6,0.4,1,0.4C503.7,663.7,504.3,663.3,504.7,662.7z"/>
		<path class="st0" d="M513.2,660.2h-3.5v2.3c0.5-0.2,0.9-0.3,1.4-0.3c0.5,0,1,0.1,1.4,0.4c0.4,0.2,0.7,0.6,1,1
			c0.2,0.5,0.3,1,0.3,1.6c0,0.6-0.1,1.2-0.4,1.7c-0.3,0.5-0.7,0.9-1.2,1.2c-0.5,0.3-1.1,0.4-1.8,0.4c-0.6,0-1.2-0.1-1.7-0.3
			c-0.5-0.2-0.9-0.6-1.3-1l1-1c0.5,0.6,1.2,0.9,1.9,0.9c0.5,0,0.9-0.2,1.3-0.5c0.3-0.3,0.5-0.8,0.5-1.4c0-1.2-0.5-1.8-1.5-1.8
			c-0.2,0-0.4,0-0.6,0.1c-0.2,0.1-0.4,0.1-0.6,0.2H508v-4.9h5.5L513.2,660.2z"/>
		<path class="st0" d="M520.9,660c0.6,0.8,0.9,2,0.9,3.6c0,1.6-0.3,2.8-0.9,3.6c-0.6,0.8-1.4,1.3-2.5,1.3s-1.9-0.4-2.5-1.3
			c-0.6-0.8-0.9-2.1-0.9-3.6c0-1.6,0.3-2.8,0.9-3.6c0.6-0.8,1.4-1.3,2.5-1.3S520.3,659.1,520.9,660z M517.2,660.9
			c-0.2,0.5-0.4,1.4-0.4,2.7c0,1.3,0.1,2.2,0.4,2.7s0.6,0.8,1.2,0.8c0.5,0,0.9-0.3,1.2-0.8c0.2-0.5,0.4-1.5,0.4-2.8
			c0-1.3-0.1-2.2-0.4-2.7c-0.2-0.5-0.6-0.8-1.2-0.8C517.9,660.1,517.5,660.3,517.2,660.9z"/>
		<path class="st0" d="M528.4,661.6l-0.7,1.1c-0.6-0.4-1.3-0.6-1.9-0.6c-0.4,0-0.6,0.1-0.8,0.2c-0.2,0.1-0.3,0.3-0.3,0.5
			c0,0.2,0,0.3,0.1,0.4s0.2,0.2,0.5,0.3c0.2,0.1,0.5,0.2,1,0.3c0.8,0.2,1.4,0.5,1.8,0.9c0.4,0.4,0.6,0.8,0.6,1.5
			c0,0.7-0.3,1.3-0.9,1.7c-0.6,0.4-1.3,0.6-2.2,0.6c-0.6,0-1.2-0.1-1.7-0.3s-0.9-0.4-1.3-0.8l0.9-1c0.6,0.5,1.3,0.7,2,0.7
			c0.4,0,0.7-0.1,1-0.2c0.2-0.2,0.4-0.4,0.4-0.7c0-0.2,0-0.4-0.1-0.5c-0.1-0.1-0.2-0.2-0.5-0.3c-0.2-0.1-0.6-0.2-1.1-0.4
			c-0.8-0.2-1.3-0.5-1.7-0.9c-0.4-0.4-0.5-0.8-0.5-1.4c0-0.4,0.1-0.8,0.4-1.1c0.2-0.3,0.6-0.6,1-0.8c0.4-0.2,0.9-0.3,1.5-0.3
			C526.8,660.7,527.7,661,528.4,661.6z"/>
	</g>
	<g>
		<path class="st0" d="M598.1,658.9v9.4h-1.8v-7.6l-2.1,1.3l-0.8-1.2l3.1-1.9H598.1z"/>
		<path class="st0" d="M605.6,659.7c0.6,0.7,0.9,1.5,0.9,2.7c0,1.3-0.2,2.3-0.6,3.1c-0.4,0.8-1,1.5-1.8,2c-0.8,0.5-1.8,0.9-3.1,1.2
			l-0.4-1.3c1.2-0.3,2.2-0.7,2.8-1.3c0.6-0.5,1-1.2,1.1-2.1c-0.5,0.7-1.2,1-2,1c-0.5,0-0.9-0.1-1.3-0.4s-0.7-0.6-1-1.1
			c-0.2-0.5-0.3-1-0.3-1.6c0-0.6,0.1-1.2,0.4-1.7s0.7-0.9,1.2-1.1c0.5-0.3,1.1-0.4,1.7-0.4C604.2,658.7,605.1,659,605.6,659.7z
			 M604.6,662.7c0-1-0.1-1.6-0.3-2.1c-0.2-0.4-0.6-0.6-1.1-0.6c-0.5,0-0.8,0.2-1.1,0.5c-0.3,0.3-0.4,0.8-0.4,1.4
			c0,0.6,0.1,1.1,0.4,1.4c0.2,0.3,0.6,0.4,1,0.4C603.7,663.7,604.2,663.3,604.6,662.7z"/>
		<path class="st0" d="M613,662.4c0.4,0.2,0.7,0.6,1,1s0.4,1,0.4,1.7c0,0.7-0.1,1.2-0.4,1.8c-0.3,0.5-0.7,0.9-1.1,1.2
			c-0.5,0.3-1,0.4-1.7,0.4c-1.2,0-2-0.4-2.6-1.2c-0.6-0.8-0.8-1.9-0.8-3.3c0-1,0.2-2,0.5-2.8c0.3-0.8,0.8-1.4,1.3-1.8
			c0.6-0.4,1.3-0.7,2.1-0.7c0.8,0,1.5,0.2,2.1,0.6l-0.7,1.1c-0.4-0.3-0.9-0.4-1.4-0.4c-0.6,0-1.1,0.3-1.4,0.8
			c-0.4,0.5-0.6,1.3-0.6,2.2c0.6-0.7,1.3-1,2.1-1C612.1,662,612.6,662.1,613,662.4z M612.1,666.6c0.2-0.4,0.4-0.9,0.4-1.5
			c0-0.6-0.1-1.1-0.3-1.4c-0.2-0.3-0.5-0.4-1-0.4c-0.3,0-0.6,0.1-0.9,0.3c-0.3,0.2-0.5,0.4-0.8,0.7c0,1,0.1,1.8,0.4,2.2
			s0.6,0.7,1.2,0.7C611.5,667.2,611.9,667,612.1,666.6z"/>
		<path class="st0" d="M621.2,660c0.6,0.8,0.9,2,0.9,3.6c0,1.6-0.3,2.8-0.9,3.6c-0.6,0.8-1.4,1.3-2.5,1.3c-1.1,0-1.9-0.4-2.5-1.3
			s-0.9-2.1-0.9-3.6c0-1.6,0.3-2.8,0.9-3.6s1.4-1.3,2.5-1.3C619.8,658.7,620.7,659.1,621.2,660z M617.6,660.9
			c-0.2,0.5-0.4,1.4-0.4,2.7c0,1.3,0.1,2.2,0.4,2.7c0.2,0.5,0.6,0.8,1.2,0.8c0.5,0,0.9-0.3,1.2-0.8c0.2-0.5,0.4-1.5,0.4-2.8
			c0-1.3-0.1-2.2-0.4-2.7c-0.2-0.5-0.6-0.8-1.2-0.8C618.2,660.1,617.8,660.3,617.6,660.9z"/>
		<path class="st0" d="M628.8,661.6l-0.7,1.1c-0.6-0.4-1.3-0.6-1.9-0.6c-0.4,0-0.6,0.1-0.8,0.2c-0.2,0.1-0.3,0.3-0.3,0.5
			c0,0.2,0,0.3,0.1,0.4s0.2,0.2,0.5,0.3c0.2,0.1,0.5,0.2,1,0.3c0.8,0.2,1.4,0.5,1.8,0.9s0.6,0.8,0.6,1.5c0,0.7-0.3,1.3-0.9,1.7
			s-1.3,0.6-2.2,0.6c-0.6,0-1.2-0.1-1.7-0.3c-0.5-0.2-0.9-0.4-1.3-0.8l0.9-1c0.6,0.5,1.3,0.7,2,0.7c0.4,0,0.7-0.1,1-0.2
			c0.2-0.2,0.4-0.4,0.4-0.7c0-0.2,0-0.4-0.1-0.5s-0.2-0.2-0.5-0.3c-0.2-0.1-0.6-0.2-1.1-0.4c-0.8-0.2-1.3-0.5-1.7-0.9
			c-0.4-0.4-0.5-0.8-0.5-1.4c0-0.4,0.1-0.8,0.4-1.1c0.2-0.3,0.6-0.6,1-0.8s0.9-0.3,1.5-0.3C627.2,660.7,628,661,628.8,661.6z"/>
	</g>
	<g>
		<path class="st0" d="M699,658.9v9.4h-1.8v-7.6l-2.1,1.3l-0.8-1.2l3.1-1.9H699z"/>
		<path class="st0" d="M706.6,659.7c0.6,0.7,0.9,1.5,0.9,2.7c0,1.3-0.2,2.3-0.6,3.1s-1,1.5-1.8,2c-0.8,0.5-1.8,0.9-3.2,1.2l-0.4-1.3
			c1.2-0.3,2.2-0.7,2.8-1.3c0.6-0.5,1-1.2,1.1-2.1c-0.5,0.7-1.2,1-2,1c-0.5,0-0.9-0.1-1.3-0.4s-0.7-0.6-1-1.1
			c-0.2-0.5-0.3-1-0.3-1.6c0-0.6,0.1-1.2,0.4-1.7s0.7-0.9,1.2-1.1c0.5-0.3,1.1-0.4,1.7-0.4C705.2,658.7,706,659,706.6,659.7z
			 M705.6,662.7c0-1-0.1-1.6-0.3-2.1c-0.2-0.4-0.6-0.6-1.1-0.6c-0.5,0-0.8,0.2-1.1,0.5s-0.4,0.8-0.4,1.4c0,0.6,0.1,1.1,0.4,1.4
			c0.2,0.3,0.6,0.4,1,0.4C704.6,663.7,705.2,663.3,705.6,662.7z"/>
		<path class="st0" d="M713.9,658.9v1.3l-3.5,8.3l-1.6-0.5l3.3-7.7h-4v-1.4H713.9z"/>
		<path class="st0" d="M720.6,660c0.6,0.8,0.9,2,0.9,3.6c0,1.6-0.3,2.8-0.9,3.6c-0.6,0.8-1.4,1.3-2.5,1.3s-1.9-0.4-2.5-1.3
			s-0.9-2.1-0.9-3.6c0-1.6,0.3-2.8,0.9-3.6s1.4-1.3,2.5-1.3S720,659.1,720.6,660z M716.9,660.9c-0.2,0.5-0.4,1.4-0.4,2.7
			c0,1.3,0.1,2.2,0.4,2.7c0.2,0.5,0.6,0.8,1.2,0.8s0.9-0.3,1.2-0.8c0.2-0.5,0.4-1.5,0.4-2.8c0-1.3-0.1-2.2-0.4-2.7
			c-0.2-0.5-0.6-0.8-1.2-0.8S717.1,660.3,716.9,660.9z"/>
		<path class="st0" d="M728.1,661.6l-0.7,1.1c-0.6-0.4-1.3-0.6-1.9-0.6c-0.4,0-0.6,0.1-0.8,0.2c-0.2,0.1-0.3,0.3-0.3,0.5
			c0,0.2,0,0.3,0.1,0.4s0.2,0.2,0.5,0.3c0.2,0.1,0.5,0.2,1,0.3c0.8,0.2,1.4,0.5,1.8,0.9c0.4,0.4,0.6,0.8,0.6,1.5
			c0,0.7-0.3,1.3-0.9,1.7c-0.6,0.4-1.3,0.6-2.2,0.6c-0.6,0-1.2-0.1-1.7-0.3s-0.9-0.4-1.3-0.8l0.9-1c0.6,0.5,1.3,0.7,2,0.7
			c0.4,0,0.7-0.1,1-0.2c0.2-0.2,0.4-0.4,0.4-0.7c0-0.2,0-0.4-0.1-0.5s-0.2-0.2-0.5-0.3c-0.2-0.1-0.6-0.2-1.1-0.4
			c-0.8-0.2-1.3-0.5-1.7-0.9c-0.4-0.4-0.5-0.8-0.5-1.4c0-0.4,0.1-0.8,0.4-1.1c0.2-0.3,0.6-0.6,1-0.8c0.4-0.2,0.9-0.3,1.5-0.3
			C726.5,660.7,727.4,661,728.1,661.6z"/>
	</g>
	<g>
		<path class="st0" d="M797.6,658.9v9.4h-1.8v-7.6l-2.1,1.3l-0.8-1.2l3.1-1.9H797.6z"/>
		<path class="st0" d="M805.2,659.7c0.6,0.7,0.9,1.5,0.9,2.7c0,1.3-0.2,2.3-0.6,3.1s-1,1.5-1.8,2c-0.8,0.5-1.8,0.9-3.2,1.2l-0.4-1.3
			c1.2-0.3,2.2-0.7,2.8-1.3c0.6-0.5,1-1.2,1.1-2.1c-0.5,0.7-1.2,1-2,1c-0.5,0-0.9-0.1-1.3-0.4s-0.7-0.6-1-1.1
			c-0.2-0.5-0.3-1-0.3-1.6c0-0.6,0.1-1.2,0.4-1.7s0.7-0.9,1.2-1.1c0.5-0.3,1.1-0.4,1.7-0.4C803.8,658.7,804.6,659,805.2,659.7z
			 M804.2,662.7c0-1-0.1-1.6-0.3-2.1c-0.2-0.4-0.6-0.6-1.1-0.6c-0.5,0-0.8,0.2-1.1,0.5s-0.4,0.8-0.4,1.4c0,0.6,0.1,1.1,0.4,1.4
			c0.2,0.3,0.6,0.4,1,0.4C803.2,663.7,803.7,663.3,804.2,662.7z"/>
		<path class="st0" d="M814,665.8c0,0.5-0.1,1-0.4,1.4c-0.3,0.4-0.7,0.7-1.2,1c-0.5,0.2-1.1,0.4-1.8,0.4c-0.7,0-1.3-0.1-1.8-0.4
			c-0.5-0.2-0.9-0.6-1.2-1c-0.3-0.4-0.4-0.9-0.4-1.4c0-1.1,0.6-1.9,1.8-2.4c-0.9-0.5-1.4-1.3-1.4-2.2c0-0.5,0.1-0.9,0.4-1.3
			s0.6-0.7,1.1-0.9c0.5-0.2,1-0.3,1.5-0.3c0.6,0,1.1,0.1,1.6,0.3c0.5,0.2,0.8,0.5,1.1,0.8c0.3,0.4,0.4,0.8,0.4,1.3
			c0,0.9-0.5,1.6-1.6,2.1C813.3,663.8,814,664.7,814,665.8z M811.7,666.8c0.3-0.3,0.4-0.6,0.4-1c0-0.4-0.1-0.8-0.4-1
			s-0.7-0.5-1.3-0.7l-0.4-0.2c-0.8,0.4-1.1,1-1.1,1.9c0,0.4,0.1,0.8,0.4,1.1c0.3,0.3,0.7,0.4,1.2,0.4
			C811,667.2,811.4,667,811.7,666.8z M809.5,660.3c-0.2,0.2-0.4,0.5-0.4,0.9c0,0.4,0.1,0.7,0.3,0.9c0.2,0.2,0.6,0.4,1.1,0.6l0.3,0.1
			c0.4-0.2,0.6-0.5,0.8-0.7s0.2-0.5,0.2-0.9c0-0.4-0.1-0.7-0.4-0.9c-0.2-0.2-0.6-0.3-1-0.3C810.1,660,809.8,660.1,809.5,660.3z"/>
		<path class="st0" d="M821,660c0.6,0.8,0.9,2,0.9,3.6c0,1.6-0.3,2.8-0.9,3.6c-0.6,0.8-1.4,1.3-2.5,1.3s-1.9-0.4-2.5-1.3
			s-0.9-2.1-0.9-3.6c0-1.6,0.3-2.8,0.9-3.6s1.4-1.3,2.5-1.3S820.4,659.1,821,660z M817.3,660.9c-0.2,0.5-0.4,1.4-0.4,2.7
			c0,1.3,0.1,2.2,0.4,2.7c0.2,0.5,0.6,0.8,1.2,0.8s0.9-0.3,1.2-0.8c0.2-0.5,0.4-1.5,0.4-2.8c0-1.3-0.1-2.2-0.4-2.7
			c-0.2-0.5-0.6-0.8-1.2-0.8S817.6,660.3,817.3,660.9z"/>
		<path class="st0" d="M828.6,661.6l-0.7,1.1c-0.6-0.4-1.3-0.6-1.9-0.6c-0.4,0-0.6,0.1-0.8,0.2c-0.2,0.1-0.3,0.3-0.3,0.5
			c0,0.2,0,0.3,0.1,0.4s0.2,0.2,0.5,0.3c0.2,0.1,0.5,0.2,1,0.3c0.8,0.2,1.4,0.5,1.8,0.9c0.4,0.4,0.6,0.8,0.6,1.5
			c0,0.7-0.3,1.3-0.9,1.7c-0.6,0.4-1.3,0.6-2.2,0.6c-0.6,0-1.2-0.1-1.7-0.3s-0.9-0.4-1.3-0.8l0.9-1c0.6,0.5,1.3,0.7,2,0.7
			c0.4,0,0.7-0.1,1-0.2c0.2-0.2,0.4-0.4,0.4-0.7c0-0.2,0-0.4-0.1-0.5s-0.2-0.2-0.5-0.3c-0.2-0.1-0.6-0.2-1.1-0.4
			c-0.8-0.2-1.3-0.5-1.7-0.9c-0.4-0.4-0.5-0.8-0.5-1.4c0-0.4,0.1-0.8,0.4-1.1c0.2-0.3,0.6-0.6,1-0.8c0.4-0.2,0.9-0.3,1.5-0.3
			C826.9,660.7,827.8,661,828.6,661.6z"/>
	</g>
	<g>
		<path class="st0" d="M897.3,658.9v9.4h-1.8v-7.6l-2.1,1.3l-0.8-1.2l3.1-1.9H897.3z"/>
		<path class="st0" d="M904.8,659.7c0.6,0.7,0.9,1.5,0.9,2.7c0,1.3-0.2,2.3-0.6,3.1s-1,1.5-1.8,2c-0.8,0.5-1.8,0.9-3.2,1.2l-0.4-1.3
			c1.2-0.3,2.2-0.7,2.8-1.3c0.6-0.5,1-1.2,1.1-2.1c-0.5,0.7-1.2,1-2,1c-0.5,0-0.9-0.1-1.3-0.4s-0.7-0.6-1-1.1
			c-0.2-0.5-0.3-1-0.3-1.6c0-0.6,0.1-1.2,0.4-1.7s0.7-0.9,1.2-1.1c0.5-0.3,1.1-0.4,1.7-0.4C903.4,658.7,904.3,659,904.8,659.7z
			 M903.8,662.7c0-1-0.1-1.6-0.3-2.1c-0.2-0.4-0.6-0.6-1.1-0.6c-0.5,0-0.8,0.2-1.1,0.5s-0.4,0.8-0.4,1.4c0,0.6,0.1,1.1,0.4,1.4
			c0.2,0.3,0.6,0.4,1,0.4C902.9,663.7,903.4,663.3,903.8,662.7z"/>
		<path class="st0" d="M912.4,659.7c0.6,0.7,0.9,1.5,0.9,2.7c0,1.3-0.2,2.3-0.6,3.1s-1,1.5-1.8,2c-0.8,0.5-1.8,0.9-3.2,1.2l-0.4-1.3
			c1.2-0.3,2.2-0.7,2.8-1.3c0.6-0.5,1-1.2,1.1-2.1c-0.5,0.7-1.2,1-2,1c-0.5,0-0.9-0.1-1.3-0.4s-0.7-0.6-1-1.1
			c-0.2-0.5-0.3-1-0.3-1.6c0-0.6,0.1-1.2,0.4-1.7s0.7-0.9,1.2-1.1c0.5-0.3,1.1-0.4,1.7-0.4C911.1,658.7,911.9,659,912.4,659.7z
			 M911.5,662.7c0-1-0.1-1.6-0.3-2.1c-0.2-0.4-0.6-0.6-1.1-0.6c-0.5,0-0.8,0.2-1.1,0.5s-0.4,0.8-0.4,1.4c0,0.6,0.1,1.1,0.4,1.4
			c0.2,0.3,0.6,0.4,1,0.4C910.5,663.7,911,663.3,911.5,662.7z"/>
		<path class="st0" d="M920.4,660c0.6,0.8,0.9,2,0.9,3.6c0,1.6-0.3,2.8-0.9,3.6c-0.6,0.8-1.4,1.3-2.5,1.3s-1.9-0.4-2.5-1.3
			s-0.9-2.1-0.9-3.6c0-1.6,0.3-2.8,0.9-3.6s1.4-1.3,2.5-1.3S919.8,659.1,920.4,660z M916.7,660.9c-0.2,0.5-0.4,1.4-0.4,2.7
			c0,1.3,0.1,2.2,0.4,2.7c0.2,0.5,0.6,0.8,1.2,0.8s0.9-0.3,1.2-0.8c0.2-0.5,0.4-1.5,0.4-2.8c0-1.3-0.1-2.2-0.4-2.7
			c-0.2-0.5-0.6-0.8-1.2-0.8S916.9,660.3,916.7,660.9z"/>
		<path class="st0" d="M927.9,661.6l-0.7,1.1c-0.6-0.4-1.3-0.6-1.9-0.6c-0.4,0-0.6,0.1-0.8,0.2c-0.2,0.1-0.3,0.3-0.3,0.5
			c0,0.2,0,0.3,0.1,0.4s0.2,0.2,0.5,0.3c0.2,0.1,0.5,0.2,1,0.3c0.8,0.2,1.4,0.5,1.8,0.9c0.4,0.4,0.6,0.8,0.6,1.5
			c0,0.7-0.3,1.3-0.9,1.7c-0.6,0.4-1.3,0.6-2.2,0.6c-0.6,0-1.2-0.1-1.7-0.3s-0.9-0.4-1.3-0.8l0.9-1c0.6,0.5,1.3,0.7,2,0.7
			c0.4,0,0.7-0.1,1-0.2c0.2-0.2,0.4-0.4,0.4-0.7c0-0.2,0-0.4-0.1-0.5s-0.2-0.2-0.5-0.3c-0.2-0.1-0.6-0.2-1.1-0.4
			c-0.8-0.2-1.3-0.5-1.7-0.9c-0.4-0.4-0.5-0.8-0.5-1.4c0-0.4,0.1-0.8,0.4-1.1c0.2-0.3,0.6-0.6,1-0.8c0.4-0.2,0.9-0.3,1.5-0.3
			C926.3,660.7,927.2,661,927.9,661.6z"/>
	</g>
	<g>
		<path class="st0" d="M996.5,659c0.5,0.2,0.8,0.6,1.1,1s0.4,0.8,0.4,1.3c0,0.5-0.1,1-0.3,1.5c-0.2,0.5-0.6,1-1.1,1.6
			c-0.5,0.6-1.3,1.4-2.3,2.4h4l-0.2,1.4h-5.9V667c1.2-1.2,2.1-2.1,2.6-2.7c0.5-0.6,0.9-1.1,1.1-1.5c0.2-0.4,0.3-0.8,0.3-1.3
			c0-0.4-0.1-0.8-0.4-1c-0.2-0.2-0.6-0.4-1-0.4c-0.4,0-0.7,0.1-1,0.2c-0.3,0.2-0.6,0.4-0.9,0.8l-1.1-0.9c0.8-1,1.8-1.5,3.1-1.5
			C995.5,658.7,996.1,658.8,996.5,659z"/>
		<path class="st0" d="M1005.3,660c0.6,0.8,0.9,2,0.9,3.6c0,1.6-0.3,2.8-0.9,3.6c-0.6,0.8-1.4,1.3-2.5,1.3s-1.9-0.4-2.5-1.3
			s-0.9-2.1-0.9-3.6c0-1.6,0.3-2.8,0.9-3.6s1.4-1.3,2.5-1.3S1004.7,659.1,1005.3,660z M1001.6,660.9c-0.2,0.5-0.4,1.4-0.4,2.7
			c0,1.3,0.1,2.2,0.4,2.7c0.2,0.5,0.6,0.8,1.2,0.8s0.9-0.3,1.2-0.8c0.2-0.5,0.4-1.5,0.4-2.8c0-1.3-0.1-2.2-0.4-2.7
			c-0.2-0.5-0.6-0.8-1.2-0.8S1001.8,660.3,1001.6,660.9z"/>
		<path class="st0" d="M1013.3,660c0.6,0.8,0.9,2,0.9,3.6c0,1.6-0.3,2.8-0.9,3.6c-0.6,0.8-1.4,1.3-2.5,1.3s-1.9-0.4-2.5-1.3
			s-0.9-2.1-0.9-3.6c0-1.6,0.3-2.8,0.9-3.6s1.4-1.3,2.5-1.3S1012.7,659.1,1013.3,660z M1009.6,660.9c-0.2,0.5-0.4,1.4-0.4,2.7
			c0,1.3,0.1,2.2,0.4,2.7c0.2,0.5,0.6,0.8,1.2,0.8s0.9-0.3,1.2-0.8c0.2-0.5,0.4-1.5,0.4-2.8c0-1.3-0.1-2.2-0.4-2.7
			c-0.2-0.5-0.6-0.8-1.2-0.8S1009.8,660.3,1009.6,660.9z"/>
		<path class="st0" d="M1021.3,660c0.6,0.8,0.9,2,0.9,3.6c0,1.6-0.3,2.8-0.9,3.6c-0.6,0.8-1.4,1.3-2.5,1.3s-1.9-0.4-2.5-1.3
			s-0.9-2.1-0.9-3.6c0-1.6,0.3-2.8,0.9-3.6s1.4-1.3,2.5-1.3S1020.7,659.1,1021.3,660z M1017.6,660.9c-0.2,0.5-0.4,1.4-0.4,2.7
			c0,1.3,0.1,2.2,0.4,2.7c0.2,0.5,0.6,0.8,1.2,0.8s0.9-0.3,1.2-0.8c0.2-0.5,0.4-1.5,0.4-2.8c0-1.3-0.1-2.2-0.4-2.7
			c-0.2-0.5-0.6-0.8-1.2-0.8S1017.9,660.3,1017.6,660.9z"/>
		<path class="st0" d="M1028.9,661.6l-0.7,1.1c-0.6-0.4-1.3-0.6-1.9-0.6c-0.4,0-0.6,0.1-0.8,0.2c-0.2,0.1-0.3,0.3-0.3,0.5
			c0,0.2,0,0.3,0.1,0.4s0.2,0.2,0.5,0.3c0.2,0.1,0.5,0.2,1,0.3c0.8,0.2,1.4,0.5,1.8,0.9c0.4,0.4,0.6,0.8,0.6,1.5
			c0,0.7-0.3,1.3-0.9,1.7c-0.6,0.4-1.3,0.6-2.2,0.6c-0.6,0-1.2-0.1-1.7-0.3s-0.9-0.4-1.3-0.8l0.9-1c0.6,0.5,1.3,0.7,2,0.7
			c0.4,0,0.7-0.1,1-0.2c0.2-0.2,0.4-0.4,0.4-0.7c0-0.2,0-0.4-0.1-0.5s-0.2-0.2-0.5-0.3c-0.2-0.1-0.6-0.2-1.1-0.4
			c-0.8-0.2-1.3-0.5-1.7-0.9c-0.4-0.4-0.5-0.8-0.5-1.4c0-0.4,0.1-0.8,0.4-1.1c0.2-0.3,0.6-0.6,1-0.8c0.4-0.2,0.9-0.3,1.5-0.3
			C1027.2,660.7,1028.1,661,1028.9,661.6z"/>
	</g>
	<g>
		<path class="st0" d="M1097.7,659c0.5,0.2,0.8,0.6,1.1,1s0.4,0.8,0.4,1.3c0,0.5-0.1,1-0.3,1.5c-0.2,0.5-0.6,1-1.1,1.6
			c-0.5,0.6-1.3,1.4-2.3,2.4h4l-0.2,1.4h-5.9V667c1.2-1.2,2.1-2.1,2.6-2.7c0.5-0.6,0.9-1.1,1.1-1.5c0.2-0.4,0.3-0.8,0.3-1.3
			c0-0.4-0.1-0.8-0.4-1c-0.2-0.2-0.6-0.4-1-0.4c-0.4,0-0.7,0.1-1,0.2c-0.3,0.2-0.6,0.4-0.9,0.8l-1.1-0.9c0.8-1,1.8-1.5,3.1-1.5
			C1096.7,658.7,1097.2,658.8,1097.7,659z"/>
		<path class="st0" d="M1106.4,660c0.6,0.8,0.9,2,0.9,3.6c0,1.6-0.3,2.8-0.9,3.6c-0.6,0.8-1.4,1.3-2.5,1.3s-1.9-0.4-2.5-1.3
			s-0.9-2.1-0.9-3.6c0-1.6,0.3-2.8,0.9-3.6s1.4-1.3,2.5-1.3S1105.8,659.1,1106.4,660z M1102.7,660.9c-0.2,0.5-0.4,1.4-0.4,2.7
			c0,1.3,0.1,2.2,0.4,2.7c0.2,0.5,0.6,0.8,1.2,0.8s0.9-0.3,1.2-0.8c0.2-0.5,0.4-1.5,0.4-2.8c0-1.3-0.1-2.2-0.4-2.7
			c-0.2-0.5-0.6-0.8-1.2-0.8S1103,660.3,1102.7,660.9z"/>
		<path class="st0" d="M1112.6,658.9v9.4h-1.8v-7.6l-2.1,1.3l-0.8-1.2l3.1-1.9H1112.6z"/>
		<path class="st0" d="M1120.4,660c0.6,0.8,0.9,2,0.9,3.6c0,1.6-0.3,2.8-0.9,3.6c-0.6,0.8-1.4,1.3-2.5,1.3s-1.9-0.4-2.5-1.3
			s-0.9-2.1-0.9-3.6c0-1.6,0.3-2.8,0.9-3.6s1.4-1.3,2.5-1.3S1119.8,659.1,1120.4,660z M1116.7,660.9c-0.2,0.5-0.4,1.4-0.4,2.7
			c0,1.3,0.1,2.2,0.4,2.7c0.2,0.5,0.6,0.8,1.2,0.8s0.9-0.3,1.2-0.8c0.2-0.5,0.4-1.5,0.4-2.8c0-1.3-0.1-2.2-0.4-2.7
			c-0.2-0.5-0.6-0.8-1.2-0.8S1117,660.3,1116.7,660.9z"/>
		<path class="st0" d="M1128,661.6l-0.7,1.1c-0.6-0.4-1.3-0.6-1.9-0.6c-0.4,0-0.6,0.1-0.8,0.2c-0.2,0.1-0.3,0.3-0.3,0.5
			c0,0.2,0,0.3,0.1,0.4s0.2,0.2,0.5,0.3c0.2,0.1,0.5,0.2,1,0.3c0.8,0.2,1.4,0.5,1.8,0.9c0.4,0.4,0.6,0.8,0.6,1.5
			c0,0.7-0.3,1.3-0.9,1.7c-0.6,0.4-1.3,0.6-2.2,0.6c-0.6,0-1.2-0.1-1.7-0.3s-0.9-0.4-1.3-0.8l0.9-1c0.6,0.5,1.3,0.7,2,0.7
			c0.4,0,0.7-0.1,1-0.2c0.2-0.2,0.4-0.4,0.4-0.7c0-0.2,0-0.4-0.1-0.5s-0.2-0.2-0.5-0.3c-0.2-0.1-0.6-0.2-1.1-0.4
			c-0.8-0.2-1.3-0.5-1.7-0.9c-0.4-0.4-0.5-0.8-0.5-1.4c0-0.4,0.1-0.8,0.4-1.1c0.2-0.3,0.6-0.6,1-0.8c0.4-0.2,0.9-0.3,1.5-0.3
			C1126.3,660.7,1127.2,661,1128,661.6z"/>
	</g>
	<g>
		<path class="st0" d="M198,658.9v9.4h-1.8v-7.6l-2.1,1.3l-0.8-1.2l3.1-1.9H198z"/>
		<path class="st0" d="M205.5,659.7c0.6,0.7,0.9,1.5,0.9,2.7c0,1.3-0.2,2.3-0.6,3.1c-0.4,0.8-1,1.5-1.8,2s-1.8,0.9-3.1,1.2l-0.4-1.3
			c1.2-0.3,2.2-0.7,2.8-1.3c0.6-0.5,1-1.2,1.1-2.1c-0.5,0.7-1.2,1-2,1c-0.5,0-0.9-0.1-1.3-0.4c-0.4-0.2-0.7-0.6-1-1.1
			c-0.2-0.5-0.3-1-0.3-1.6c0-0.6,0.1-1.2,0.4-1.7c0.3-0.5,0.7-0.9,1.2-1.1c0.5-0.3,1.1-0.4,1.7-0.4C204.1,658.7,205,659,205.5,659.7
			z M204.6,662.7c0-1-0.1-1.6-0.3-2.1c-0.2-0.4-0.6-0.6-1.1-0.6c-0.5,0-0.8,0.2-1.1,0.5s-0.4,0.8-0.4,1.4c0,0.6,0.1,1.1,0.4,1.4
			c0.2,0.3,0.6,0.4,1,0.4C203.6,663.7,204.1,663.3,204.6,662.7z"/>
		<path class="st0" d="M211.5,659c0.5,0.2,0.8,0.6,1.1,1s0.4,0.8,0.4,1.3c0,0.5-0.1,1-0.3,1.5s-0.6,1-1.1,1.6
			c-0.5,0.6-1.3,1.4-2.3,2.4h4l-0.2,1.4h-5.9V667c1.2-1.2,2.1-2.1,2.6-2.7s0.9-1.1,1.1-1.5s0.3-0.8,0.3-1.3c0-0.4-0.1-0.8-0.4-1
			c-0.2-0.2-0.6-0.4-1-0.4c-0.4,0-0.7,0.1-1,0.2c-0.3,0.2-0.6,0.4-0.9,0.8l-1.1-0.9c0.8-1,1.8-1.5,3.1-1.5
			C210.5,658.7,211.1,658.8,211.5,659z"/>
		<path class="st0" d="M220.3,660c0.6,0.8,0.9,2,0.9,3.6c0,1.6-0.3,2.8-0.9,3.6c-0.6,0.8-1.4,1.3-2.5,1.3s-1.9-0.4-2.5-1.3
			c-0.6-0.8-0.9-2.1-0.9-3.6c0-1.6,0.3-2.8,0.9-3.6c0.6-0.8,1.4-1.3,2.5-1.3S219.7,659.1,220.3,660z M216.6,660.9
			c-0.2,0.5-0.4,1.4-0.4,2.7c0,1.3,0.1,2.2,0.4,2.7s0.6,0.8,1.2,0.8c0.5,0,0.9-0.3,1.2-0.8c0.2-0.5,0.4-1.5,0.4-2.8
			c0-1.3-0.1-2.2-0.4-2.7c-0.2-0.5-0.6-0.8-1.2-0.8C217.2,660.1,216.8,660.3,216.6,660.9z"/>
		<path class="st0" d="M227.8,661.6l-0.7,1.1c-0.6-0.4-1.3-0.6-1.9-0.6c-0.4,0-0.6,0.1-0.8,0.2c-0.2,0.1-0.3,0.3-0.3,0.5
			c0,0.2,0,0.3,0.1,0.4s0.2,0.2,0.5,0.3c0.2,0.1,0.5,0.2,1,0.3c0.8,0.2,1.4,0.5,1.8,0.9c0.4,0.4,0.6,0.8,0.6,1.5
			c0,0.7-0.3,1.3-0.9,1.7c-0.6,0.4-1.3,0.6-2.2,0.6c-0.6,0-1.2-0.1-1.7-0.3s-0.9-0.4-1.3-0.8l0.9-1c0.6,0.5,1.3,0.7,2,0.7
			c0.4,0,0.7-0.1,1-0.2c0.2-0.2,0.4-0.4,0.4-0.7c0-0.2,0-0.4-0.1-0.5c-0.1-0.1-0.2-0.2-0.5-0.3c-0.2-0.1-0.6-0.2-1.1-0.4
			c-0.8-0.2-1.3-0.5-1.7-0.9c-0.4-0.4-0.5-0.8-0.5-1.4c0-0.4,0.1-0.8,0.4-1.1c0.2-0.3,0.6-0.6,1-0.8c0.4-0.2,0.9-0.3,1.5-0.3
			C226.2,660.7,227,661,227.8,661.6z"/>
	</g>
</g>
<g id="Graph">
</g>
<g id="Type_of_drugs">
	<g>
		<path class="st1" d="M67.8,392.5v-3.9h-3.5v3.9h-1.1v-8.3h1.1v3.5h3.5v-3.5h1.1v8.3H67.8z"/>
		<path class="st1" d="M76.1,391.6c0.1,0.1,0.2,0.2,0.4,0.3l-0.3,0.8c-0.3,0-0.6-0.1-0.8-0.3c-0.2-0.1-0.3-0.4-0.4-0.7
			c-0.4,0.6-1.1,0.9-1.9,0.9c-0.6,0-1.1-0.2-1.5-0.5c-0.4-0.4-0.5-0.8-0.5-1.4c0-0.7,0.2-1.2,0.7-1.5c0.5-0.4,1.2-0.5,2.1-0.5h1
			v-0.5c0-0.4-0.1-0.8-0.3-1c-0.2-0.2-0.5-0.3-1-0.3c-0.5,0-1,0.1-1.7,0.3l-0.3-0.8c0.8-0.3,1.5-0.4,2.2-0.4c0.7,0,1.3,0.2,1.7,0.5
			c0.4,0.4,0.6,0.9,0.6,1.6v2.9C76,391.3,76.1,391.5,76.1,391.6z M74.9,390.9v-1.5h-0.8c-1.2,0-1.8,0.4-1.8,1.3
			c0,0.4,0.1,0.7,0.3,0.9c0.2,0.2,0.5,0.3,0.8,0.3C74.1,391.8,74.5,391.5,74.9,390.9z"/>
		<path class="st1" d="M83.4,386.9c0.4,0.6,0.6,1.4,0.6,2.4c0,1-0.2,1.8-0.6,2.4c-0.4,0.6-1,0.9-1.8,0.9c-0.7,0-1.3-0.2-1.7-0.7v3
			l-1.1,0.1v-8.9h0.9l0.1,0.9c0.2-0.3,0.5-0.6,0.8-0.7c0.3-0.2,0.7-0.3,1-0.3C82.5,386.1,83.1,386.3,83.4,386.9z M82.8,389.4
			c0-1.6-0.5-2.4-1.4-2.4c-0.3,0-0.6,0.1-0.9,0.3c-0.3,0.2-0.5,0.4-0.7,0.7v3.1c0.2,0.2,0.4,0.4,0.6,0.6c0.2,0.1,0.5,0.2,0.8,0.2
			C82.3,391.8,82.8,391,82.8,389.4z"/>
		<path class="st1" d="M91,386.9c0.4,0.6,0.6,1.4,0.6,2.4c0,1-0.2,1.8-0.6,2.4c-0.4,0.6-1,0.9-1.8,0.9c-0.7,0-1.3-0.2-1.7-0.7v3
			l-1.1,0.1v-8.9h0.9l0.1,0.9c0.2-0.3,0.5-0.6,0.8-0.7c0.3-0.2,0.7-0.3,1-0.3C90.1,386.1,90.7,386.3,91,386.9z M90.4,389.4
			c0-1.6-0.5-2.4-1.4-2.4c-0.3,0-0.6,0.1-0.9,0.3c-0.3,0.2-0.5,0.4-0.7,0.7v3.1c0.2,0.2,0.4,0.4,0.6,0.6c0.2,0.1,0.5,0.2,0.8,0.2
			C89.9,391.8,90.4,391,90.4,389.4z"/>
		<path class="st1" d="M95.1,383.4c0.1,0.1,0.2,0.3,0.2,0.5c0,0.2-0.1,0.4-0.2,0.5c-0.1,0.1-0.3,0.2-0.6,0.2c-0.2,0-0.4-0.1-0.6-0.2
			c-0.1-0.1-0.2-0.3-0.2-0.5c0-0.2,0.1-0.4,0.2-0.5c0.1-0.1,0.3-0.2,0.6-0.2C94.7,383.2,94.9,383.2,95.1,383.4z M95.1,386.2v6.3H94
			v-6.3H95.1z"/>
		<path class="st1" d="M102.2,386.6c0.3,0.3,0.5,0.8,0.5,1.4v4.5h-1.1v-4.4c0-0.4-0.1-0.8-0.3-0.9c-0.2-0.2-0.4-0.3-0.7-0.3
			c-0.3,0-0.6,0.1-0.9,0.3c-0.3,0.2-0.5,0.5-0.7,0.8v4.5h-1.1v-6.3h0.9l0.1,0.9c0.2-0.3,0.5-0.6,0.8-0.8c0.3-0.2,0.7-0.3,1.1-0.3
			C101.4,386.1,101.8,386.2,102.2,386.6z"/>
		<path class="st1" d="M110.1,389.7h-4c0,0.7,0.2,1.2,0.5,1.5c0.3,0.3,0.7,0.5,1.2,0.5c0.3,0,0.6,0,0.8-0.1c0.3-0.1,0.5-0.2,0.8-0.4
			l0.5,0.7c-0.7,0.5-1.4,0.8-2.2,0.8c-0.9,0-1.6-0.3-2.1-0.9c-0.5-0.6-0.7-1.4-0.7-2.4c0-0.7,0.1-1.2,0.3-1.7s0.5-0.9,0.9-1.2
			s0.9-0.4,1.4-0.4c0.8,0,1.5,0.3,1.9,0.8c0.4,0.6,0.7,1.3,0.7,2.3C110.1,389.4,110.1,389.6,110.1,389.7z M109,388.9
			c0-0.6-0.1-1.1-0.4-1.4c-0.2-0.3-0.6-0.5-1.1-0.5c-0.9,0-1.4,0.7-1.5,2L109,388.9L109,388.9z"/>
		<path class="st1" d="M115.3,386.2c0.3,0.1,0.7,0.3,1,0.5l-0.5,0.7c-0.3-0.2-0.6-0.3-0.8-0.4s-0.5-0.1-0.8-0.1
			c-0.4,0-0.6,0.1-0.9,0.2c-0.2,0.1-0.3,0.4-0.3,0.6s0.1,0.5,0.3,0.6c0.2,0.1,0.5,0.3,1.1,0.4c0.7,0.2,1.2,0.4,1.6,0.7
			c0.3,0.3,0.5,0.7,0.5,1.2c0,0.6-0.2,1.1-0.7,1.4c-0.5,0.3-1.1,0.5-1.8,0.5c-1,0-1.8-0.3-2.4-0.8l0.6-0.7c0.5,0.4,1.1,0.6,1.8,0.6
			c0.4,0,0.7-0.1,1-0.3s0.4-0.4,0.4-0.7c0-0.2,0-0.4-0.1-0.5c-0.1-0.1-0.2-0.2-0.5-0.3c-0.2-0.1-0.5-0.2-0.9-0.3
			c-0.7-0.2-1.2-0.4-1.5-0.7c-0.3-0.3-0.4-0.7-0.4-1.1c0-0.3,0.1-0.6,0.3-0.9c0.2-0.3,0.5-0.5,0.8-0.6c0.3-0.1,0.7-0.2,1.2-0.2
			S114.9,386.1,115.3,386.2z"/>
		<path class="st1" d="M121.2,386.2c0.3,0.1,0.7,0.3,1,0.5l-0.5,0.7c-0.3-0.2-0.6-0.3-0.8-0.4s-0.5-0.1-0.8-0.1
			c-0.4,0-0.6,0.1-0.9,0.2c-0.2,0.1-0.3,0.4-0.3,0.6s0.1,0.5,0.3,0.6c0.2,0.1,0.5,0.3,1.1,0.4c0.7,0.2,1.2,0.4,1.6,0.7
			c0.3,0.3,0.5,0.7,0.5,1.2c0,0.6-0.2,1.1-0.7,1.4c-0.5,0.3-1.1,0.5-1.8,0.5c-1,0-1.8-0.3-2.4-0.8l0.6-0.7c0.5,0.4,1.1,0.6,1.8,0.6
			c0.4,0,0.7-0.1,1-0.3s0.4-0.4,0.4-0.7c0-0.2,0-0.4-0.1-0.5c-0.1-0.1-0.2-0.2-0.5-0.3c-0.2-0.1-0.5-0.2-0.9-0.3
			c-0.7-0.2-1.2-0.4-1.5-0.7c-0.3-0.3-0.4-0.7-0.4-1.1c0-0.3,0.1-0.6,0.3-0.9c0.2-0.3,0.5-0.5,0.8-0.6c0.3-0.1,0.7-0.2,1.2-0.2
			S120.9,386.1,121.2,386.2z"/>
	</g>
	<g>
		<path class="st1" d="M86.9,289.1v-8.3h4.4l-0.1,0.9h-3.1v2.8h2.7v0.9h-2.7v3.6H86.9z"/>
		<path class="st1" d="M96.9,288.2c0.1,0.1,0.2,0.2,0.4,0.3l-0.3,0.8c-0.3,0-0.6-0.1-0.8-0.3c-0.2-0.1-0.3-0.4-0.4-0.7
			c-0.4,0.6-1.1,0.9-1.9,0.9c-0.6,0-1.1-0.2-1.5-0.5s-0.5-0.8-0.5-1.4c0-0.7,0.2-1.2,0.7-1.5c0.5-0.4,1.2-0.5,2.1-0.5h1v-0.5
			c0-0.4-0.1-0.8-0.3-1c-0.2-0.2-0.5-0.3-1-0.3c-0.5,0-1,0.1-1.7,0.3l-0.3-0.8c0.8-0.3,1.5-0.4,2.2-0.4c0.7,0,1.3,0.2,1.7,0.5
			c0.4,0.4,0.6,0.9,0.6,1.6v2.9C96.8,287.9,96.8,288.1,96.9,288.2z M95.7,287.5V286h-0.8c-1.2,0-1.8,0.4-1.8,1.3
			c0,0.4,0.1,0.7,0.3,0.9c0.2,0.2,0.5,0.3,0.8,0.3C94.8,288.4,95.3,288.1,95.7,287.5z"/>
		<path class="st1" d="M107.1,283.2c0.3,0.3,0.5,0.8,0.5,1.4v4.5h-1.1v-4.4c0-0.8-0.3-1.2-0.9-1.2c-0.3,0-0.6,0.1-0.8,0.3
			c-0.2,0.2-0.4,0.5-0.7,0.8v4.5H103v-4.4c0-0.8-0.3-1.2-0.9-1.2c-0.3,0-0.6,0.1-0.8,0.3c-0.2,0.2-0.4,0.5-0.7,0.8v4.5h-1.1v-6.3
			h0.9l0.1,0.9c0.5-0.7,1.1-1.1,1.8-1.1c0.4,0,0.7,0.1,1,0.3c0.3,0.2,0.5,0.5,0.6,0.8c0.2-0.4,0.5-0.6,0.8-0.8
			c0.3-0.2,0.7-0.3,1.1-0.3C106.4,282.7,106.8,282.8,107.1,283.2z"/>
		<path class="st1" d="M111.4,280c0.1,0.1,0.2,0.3,0.2,0.5s-0.1,0.4-0.2,0.5c-0.1,0.1-0.3,0.2-0.6,0.2c-0.2,0-0.4-0.1-0.6-0.2
			c-0.1-0.1-0.2-0.3-0.2-0.5s0.1-0.4,0.2-0.5s0.3-0.2,0.6-0.2C111.1,279.8,111.3,279.8,111.4,280z M111.4,282.8v6.3h-1.1v-6.3H111.4
			z"/>
		<path class="st1" d="M114.5,288.9c-0.2-0.2-0.4-0.6-0.4-1v-7.6l1.1-0.1v7.7c0,0.2,0,0.3,0.1,0.4c0.1,0.1,0.2,0.1,0.3,0.1
			c0.2,0,0.3,0,0.4-0.1l0.3,0.8c-0.3,0.1-0.6,0.2-0.9,0.2C115,289.3,114.7,289.1,114.5,288.9z"/>
		<path class="st1" d="M120.6,289.2c-0.2,0.7-0.6,1.3-1,1.7c-0.4,0.4-1.1,0.7-1.9,0.8l-0.1-0.9c0.4-0.1,0.7-0.2,1-0.3
			s0.4-0.3,0.6-0.5c0.1-0.2,0.3-0.5,0.4-0.9h-0.4l-2.1-6.3h1.2l1.7,5.5l1.7-5.5h1.1L120.6,289.2z"/>
	</g>
	<g>
		<path class="st1" d="M63.7,178.1c0.8,0.6,1.1,1.7,1.1,3.2c0,1.5-0.4,2.6-1.1,3.2s-1.7,0.9-2.8,0.9h-2v-8.3h1.7
			C61.9,177.2,62.9,177.5,63.7,178.1z M60.1,178.1v6.5H61c0.8,0,1.4-0.2,1.9-0.7c0.5-0.5,0.7-1.3,0.7-2.6c0-0.9-0.1-1.5-0.4-2
			c-0.2-0.5-0.6-0.8-0.9-0.9c-0.4-0.2-0.8-0.2-1.4-0.2H60.1z"/>
		<path class="st1" d="M71.9,182.7h-4c0,0.7,0.2,1.2,0.5,1.5c0.3,0.3,0.7,0.5,1.2,0.5c0.3,0,0.6,0,0.8-0.1c0.3-0.1,0.5-0.2,0.8-0.4
			l0.5,0.7c-0.7,0.5-1.4,0.8-2.2,0.8c-0.9,0-1.6-0.3-2.1-0.9c-0.5-0.6-0.7-1.4-0.7-2.4c0-0.7,0.1-1.2,0.3-1.7
			c0.2-0.5,0.5-0.9,0.9-1.2s0.9-0.4,1.4-0.4c0.8,0,1.5,0.3,1.9,0.8c0.4,0.6,0.7,1.3,0.7,2.3C71.9,182.3,71.9,182.5,71.9,182.7z
			 M70.8,181.8c0-0.6-0.1-1.1-0.4-1.4c-0.2-0.3-0.6-0.5-1.1-0.5c-0.9,0-1.4,0.7-1.5,2L70.8,181.8L70.8,181.8z"/>
		<path class="st1" d="M78.8,179.9c0.4,0.6,0.6,1.4,0.6,2.4c0,1-0.2,1.8-0.6,2.4c-0.4,0.6-1,0.9-1.8,0.9c-0.7,0-1.3-0.2-1.7-0.7v3
			l-1.1,0.1v-8.9h0.9l0.1,0.9c0.2-0.3,0.5-0.6,0.8-0.7c0.3-0.2,0.7-0.3,1-0.3C77.8,179,78.4,179.3,78.8,179.9z M78.2,182.3
			c0-1.6-0.5-2.4-1.4-2.4c-0.3,0-0.6,0.1-0.9,0.3c-0.3,0.2-0.5,0.4-0.7,0.7v3.1c0.2,0.2,0.4,0.4,0.6,0.6c0.2,0.1,0.5,0.2,0.8,0.2
			C77.7,184.7,78.2,183.9,78.2,182.3z"/>
		<path class="st1" d="M85.1,179.1l-0.2,1.1c-0.2,0-0.4-0.1-0.6-0.1c-0.4,0-0.7,0.1-0.9,0.4c-0.2,0.3-0.4,0.7-0.6,1.3v3.6h-1.1v-6.3
			h0.9l0.1,1.3c0.2-0.5,0.4-0.8,0.7-1.1c0.3-0.2,0.6-0.4,1-0.4C84.7,179,84.9,179.1,85.1,179.1z"/>
		<path class="st1" d="M91.2,182.7h-4c0,0.7,0.2,1.2,0.5,1.5c0.3,0.3,0.7,0.5,1.2,0.5c0.3,0,0.6,0,0.8-0.1c0.3-0.1,0.5-0.2,0.8-0.4
			l0.5,0.7c-0.7,0.5-1.4,0.8-2.2,0.8c-0.9,0-1.6-0.3-2.1-0.9c-0.5-0.6-0.7-1.4-0.7-2.4c0-0.7,0.1-1.2,0.3-1.7
			c0.2-0.5,0.5-0.9,0.9-1.2s0.9-0.4,1.4-0.4c0.8,0,1.5,0.3,1.9,0.8c0.4,0.6,0.7,1.3,0.7,2.3C91.3,182.3,91.3,182.5,91.2,182.7z
			 M90.2,181.8c0-0.6-0.1-1.1-0.4-1.4c-0.2-0.3-0.6-0.5-1.1-0.5c-0.9,0-1.4,0.7-1.5,2L90.2,181.8L90.2,181.8z"/>
		<path class="st1" d="M96.4,179.2c0.3,0.1,0.7,0.3,1,0.5l-0.5,0.7c-0.3-0.2-0.6-0.3-0.8-0.4s-0.5-0.1-0.8-0.1
			c-0.4,0-0.6,0.1-0.9,0.2c-0.2,0.1-0.3,0.4-0.3,0.6c0,0.3,0.1,0.5,0.3,0.6c0.2,0.1,0.5,0.3,1.1,0.4c0.7,0.2,1.2,0.4,1.6,0.7
			c0.3,0.3,0.5,0.7,0.5,1.2c0,0.6-0.2,1.1-0.7,1.4c-0.5,0.3-1.1,0.5-1.8,0.5c-1,0-1.8-0.3-2.4-0.8l0.6-0.7c0.5,0.4,1.1,0.6,1.8,0.6
			c0.4,0,0.7-0.1,1-0.3s0.4-0.4,0.4-0.7c0-0.2,0-0.4-0.1-0.5c-0.1-0.1-0.2-0.2-0.5-0.3c-0.2-0.1-0.5-0.2-0.9-0.3
			c-0.7-0.2-1.2-0.4-1.5-0.7c-0.3-0.3-0.4-0.7-0.4-1.1c0-0.3,0.1-0.6,0.3-0.9c0.2-0.3,0.5-0.5,0.8-0.6c0.3-0.1,0.7-0.2,1.2-0.2
			S96,179.1,96.4,179.2z"/>
		<path class="st1" d="M102.4,179.2c0.3,0.1,0.7,0.3,1,0.5l-0.5,0.7c-0.3-0.2-0.6-0.3-0.8-0.4s-0.5-0.1-0.8-0.1
			c-0.4,0-0.6,0.1-0.9,0.2c-0.2,0.1-0.3,0.4-0.3,0.6c0,0.3,0.1,0.5,0.3,0.6c0.2,0.1,0.5,0.3,1.1,0.4c0.7,0.2,1.2,0.4,1.6,0.7
			c0.3,0.3,0.5,0.7,0.5,1.2c0,0.6-0.2,1.1-0.7,1.4c-0.5,0.3-1.1,0.5-1.8,0.5c-1,0-1.8-0.3-2.4-0.8l0.6-0.7c0.5,0.4,1.1,0.6,1.8,0.6
			c0.4,0,0.7-0.1,1-0.3s0.4-0.4,0.4-0.7c0-0.2,0-0.4-0.1-0.5c-0.1-0.1-0.2-0.2-0.5-0.3c-0.2-0.1-0.5-0.2-0.9-0.3
			c-0.7-0.2-1.2-0.4-1.5-0.7c-0.3-0.3-0.4-0.7-0.4-1.1c0-0.3,0.1-0.6,0.3-0.9c0.2-0.3,0.5-0.5,0.8-0.6c0.3-0.1,0.7-0.2,1.2-0.2
			S102,179.1,102.4,179.2z"/>
		<path class="st1" d="M106.7,176.3c0.1,0.1,0.2,0.3,0.2,0.5s-0.1,0.4-0.2,0.5c-0.1,0.1-0.3,0.2-0.6,0.2c-0.2,0-0.4-0.1-0.6-0.2
			c-0.1-0.1-0.2-0.3-0.2-0.5s0.1-0.4,0.2-0.5s0.3-0.2,0.6-0.2C106.3,176.1,106.5,176.2,106.7,176.3z M106.7,179.2v6.3h-1.1v-6.3
			H106.7z"/>
		<path class="st1" d="M113.9,179.9c0.5,0.6,0.7,1.4,0.7,2.4c0,0.7-0.1,1.2-0.3,1.7c-0.2,0.5-0.5,0.9-1,1.2
			c-0.4,0.3-0.9,0.4-1.5,0.4c-0.9,0-1.6-0.3-2.1-0.9c-0.5-0.6-0.7-1.4-0.7-2.4c0-0.7,0.1-1.2,0.3-1.7c0.2-0.5,0.5-0.9,1-1.2
			c0.4-0.3,0.9-0.4,1.5-0.4C112.7,179,113.4,179.3,113.9,179.9z M110.2,182.3c0,1.6,0.5,2.4,1.6,2.4s1.6-0.8,1.6-2.4
			c0-1.6-0.5-2.4-1.6-2.4C110.7,179.9,110.2,180.7,110.2,182.3z"/>
		<path class="st1" d="M121.2,179.5c0.3,0.3,0.5,0.8,0.5,1.4v4.5h-1.1v-4.4c0-0.4-0.1-0.8-0.3-0.9c-0.2-0.2-0.4-0.3-0.7-0.3
			c-0.3,0-0.6,0.1-0.9,0.3s-0.5,0.5-0.7,0.8v4.5h-1.1v-6.3h0.9l0.1,0.9c0.2-0.3,0.5-0.6,0.8-0.8c0.3-0.2,0.7-0.3,1.1-0.3
			C120.5,179,120.9,179.2,121.2,179.5z"/>
	</g>
	<g>
		<path class="st1" d="M84.7,254.7v-8.3h4.4l-0.1,0.9h-3.1v2.8h2.7v0.9h-2.7v3.6H84.7z"/>
		<path class="st1" d="M94.7,253.8c0.1,0.1,0.2,0.2,0.4,0.3l-0.3,0.8c-0.3,0-0.6-0.1-0.8-0.3c-0.2-0.1-0.3-0.4-0.4-0.7
			c-0.4,0.6-1.1,0.9-1.9,0.9c-0.6,0-1.1-0.2-1.5-0.5s-0.5-0.8-0.5-1.4c0-0.7,0.2-1.2,0.7-1.5c0.5-0.4,1.2-0.5,2.1-0.5h1v-0.5
			c0-0.4-0.1-0.8-0.3-1c-0.2-0.2-0.5-0.3-1-0.3c-0.5,0-1,0.1-1.7,0.3l-0.3-0.8c0.8-0.3,1.5-0.4,2.2-0.4c0.7,0,1.3,0.2,1.7,0.5
			c0.4,0.4,0.6,0.9,0.6,1.6v2.9C94.6,253.4,94.6,253.6,94.7,253.8z M93.5,253v-1.5h-0.8c-1.2,0-1.8,0.4-1.8,1.3
			c0,0.4,0.1,0.7,0.3,0.9c0.2,0.2,0.5,0.3,0.8,0.3C92.6,254,93.1,253.6,93.5,253z"/>
		<path class="st1" d="M98.4,245.5c0.1,0.1,0.2,0.3,0.2,0.5s-0.1,0.4-0.2,0.5c-0.1,0.1-0.3,0.2-0.6,0.2c-0.2,0-0.4-0.1-0.6-0.2
			c-0.1-0.1-0.2-0.3-0.2-0.5s0.1-0.4,0.2-0.5s0.3-0.2,0.6-0.2C98.1,245.3,98.3,245.4,98.4,245.5z M98.4,248.3v6.3h-1.1v-6.3H98.4z"
			/>
		<path class="st1" d="M101.5,254.4c-0.2-0.2-0.4-0.6-0.4-1v-7.6l1.1-0.1v7.7c0,0.2,0,0.3,0.1,0.4c0.1,0.1,0.2,0.1,0.3,0.1
			c0.2,0,0.3,0,0.4-0.1l0.3,0.8c-0.3,0.1-0.6,0.2-0.9,0.2C102,254.8,101.7,254.7,101.5,254.4z"/>
		<path class="st1" d="M109.9,254.7h-0.9l-0.1-1c-0.2,0.4-0.5,0.7-0.8,0.9s-0.7,0.3-1.1,0.3c-0.6,0-1-0.2-1.3-0.5s-0.5-0.8-0.5-1.4
			v-4.5h1.1v4.4c0,0.4,0.1,0.7,0.2,0.9c0.2,0.2,0.4,0.3,0.7,0.3c0.6,0,1.1-0.4,1.6-1.1v-4.5h1.1V254.7z"/>
		<path class="st1" d="M116,248.3l-0.2,1.1c-0.2,0-0.4-0.1-0.6-0.1c-0.4,0-0.7,0.1-0.9,0.4c-0.2,0.3-0.4,0.7-0.6,1.3v3.6h-1.1v-6.3
			h0.9l0.1,1.3c0.2-0.5,0.4-0.8,0.7-1.1c0.3-0.2,0.6-0.4,1-0.4C115.6,248.2,115.8,248.2,116,248.3z"/>
		<path class="st1" d="M122.2,251.9h-4c0,0.7,0.2,1.2,0.5,1.5c0.3,0.3,0.7,0.5,1.2,0.5c0.3,0,0.6,0,0.8-0.1c0.3-0.1,0.5-0.2,0.8-0.4
			l0.5,0.7c-0.7,0.5-1.4,0.8-2.2,0.8c-0.9,0-1.6-0.3-2.1-0.9c-0.5-0.6-0.7-1.4-0.7-2.4c0-0.7,0.1-1.2,0.3-1.7
			c0.2-0.5,0.5-0.9,0.9-1.2s0.9-0.4,1.4-0.4c0.8,0,1.5,0.3,1.9,0.8c0.4,0.6,0.7,1.3,0.7,2.3C122.2,251.5,122.2,251.7,122.2,251.9z
			 M121.1,251c0-0.6-0.1-1.1-0.4-1.4c-0.2-0.3-0.6-0.5-1.1-0.5c-0.9,0-1.4,0.7-1.5,2L121.1,251L121.1,251z"/>
	</g>
	<g>
		<path class="st1" d="M88.2,487.7c0.4,0.2,0.8,0.4,1.1,0.7l-0.6,0.7c-0.3-0.2-0.6-0.4-0.9-0.5c-0.3-0.1-0.6-0.2-1-0.2
			c-0.4,0-0.8,0.1-1.1,0.3c-0.3,0.2-0.4,0.5-0.4,0.9c0,0.2,0,0.4,0.1,0.6c0.1,0.2,0.3,0.3,0.5,0.5c0.3,0.1,0.6,0.3,1.1,0.4
			c0.5,0.2,1,0.3,1.3,0.5c0.3,0.2,0.6,0.4,0.8,0.8c0.2,0.3,0.3,0.7,0.3,1.2c0,0.5-0.1,0.9-0.4,1.3c-0.2,0.4-0.6,0.7-1,0.9
			s-1,0.3-1.6,0.3c-1.1,0-2.1-0.4-2.8-1.1l0.6-0.7c0.3,0.3,0.7,0.5,1,0.6c0.3,0.1,0.7,0.2,1.2,0.2c0.5,0,0.9-0.1,1.3-0.4
			s0.5-0.6,0.5-1.1c0-0.3-0.1-0.5-0.2-0.7c-0.1-0.2-0.3-0.3-0.5-0.5c-0.3-0.1-0.6-0.3-1.1-0.4c-0.8-0.3-1.5-0.6-1.9-0.9
			c-0.4-0.4-0.6-0.8-0.6-1.5c0-0.4,0.1-0.8,0.3-1.1c0.2-0.3,0.5-0.6,0.9-0.8c0.4-0.2,0.8-0.3,1.4-0.3
			C87.4,487.5,87.8,487.6,88.2,487.7z"/>
		<path class="st1" d="M95.1,489.6c0.3,0.1,0.6,0.3,0.9,0.5l-0.5,0.7c-0.2-0.2-0.4-0.3-0.7-0.4c-0.2-0.1-0.4-0.1-0.7-0.1
			c-0.5,0-0.9,0.2-1.2,0.6c-0.3,0.4-0.4,1-0.4,1.8s0.1,1.4,0.4,1.8c0.3,0.4,0.7,0.6,1.2,0.6c0.2,0,0.5,0,0.7-0.1s0.4-0.2,0.7-0.4
			l0.5,0.7c-0.6,0.5-1.2,0.7-1.9,0.7c-0.9,0-1.5-0.3-2-0.9c-0.5-0.6-0.7-1.4-0.7-2.4c0-0.7,0.1-1.3,0.3-1.8c0.2-0.5,0.5-0.9,1-1.2
			c0.4-0.3,0.9-0.4,1.5-0.4C94.4,489.5,94.7,489.5,95.1,489.6z"/>
		<path class="st1" d="M102.3,490c0.3,0.3,0.5,0.8,0.5,1.4v4.5h-1.1v-4.4c0-0.4-0.1-0.8-0.3-0.9c-0.2-0.2-0.4-0.3-0.8-0.3
			s-0.6,0.1-0.9,0.3c-0.3,0.2-0.5,0.5-0.7,0.8v4.5h-1.1v-8.9L99,487v3.5c0.5-0.7,1.1-1,1.9-1C101.5,489.5,101.9,489.6,102.3,490z"/>
		<path class="st1" d="M109.9,490.3c0.5,0.6,0.7,1.4,0.7,2.4c0,0.7-0.1,1.2-0.3,1.7c-0.2,0.5-0.5,0.9-1,1.2
			c-0.4,0.3-0.9,0.4-1.5,0.4c-0.9,0-1.6-0.3-2.1-0.9c-0.5-0.6-0.7-1.4-0.7-2.4c0-0.7,0.1-1.2,0.3-1.7c0.2-0.5,0.5-0.9,1-1.2
			c0.4-0.3,0.9-0.4,1.5-0.4C108.7,489.5,109.4,489.8,109.9,490.3z M106.2,492.8c0,1.6,0.5,2.4,1.6,2.4s1.6-0.8,1.6-2.4
			c0-1.6-0.5-2.4-1.6-2.4C106.7,490.3,106.2,491.2,106.2,492.8z"/>
		<path class="st1" d="M117.4,490.3c0.5,0.6,0.7,1.4,0.7,2.4c0,0.7-0.1,1.2-0.3,1.7c-0.2,0.5-0.5,0.9-1,1.2
			c-0.4,0.3-0.9,0.4-1.5,0.4c-0.9,0-1.6-0.3-2.1-0.9c-0.5-0.6-0.7-1.4-0.7-2.4c0-0.7,0.1-1.2,0.3-1.7c0.2-0.5,0.5-0.9,1-1.2
			c0.4-0.3,0.9-0.4,1.5-0.4C116.2,489.5,116.9,489.8,117.4,490.3z M113.7,492.8c0,1.6,0.5,2.4,1.6,2.4s1.6-0.8,1.6-2.4
			c0-1.6-0.5-2.4-1.6-2.4C114.2,490.3,113.7,491.2,113.7,492.8z"/>
		<path class="st1" d="M120.7,495.7c-0.2-0.2-0.4-0.6-0.4-1v-7.6l1.1-0.1v7.7c0,0.2,0,0.3,0.1,0.4s0.2,0.1,0.3,0.1
			c0.2,0,0.3,0,0.4-0.1l0.3,0.8c-0.3,0.1-0.6,0.2-0.9,0.2C121.3,496.1,121,495.9,120.7,495.7z"/>
	</g>
	<g>
		<path class="st1" d="M70.9,453.8c0.6,0.4,0.8,1.1,0.8,1.9c0,0.9-0.3,1.6-0.9,2c-0.6,0.4-1.4,0.7-2.3,0.7h-1v3h-1.1v-8.3h2.2
			C69.5,453.2,70.3,453.4,70.9,453.8z M70,457.1c0.3-0.3,0.5-0.7,0.5-1.4c0-0.6-0.2-1-0.5-1.3c-0.3-0.3-0.8-0.4-1.5-0.4h-1v3.4h1
			C69.1,457.5,69.6,457.4,70,457.1z"/>
		<path class="st1" d="M77.5,460.6c0.1,0.1,0.2,0.2,0.4,0.3l-0.3,0.8c-0.3,0-0.6-0.1-0.8-0.3c-0.2-0.1-0.3-0.4-0.4-0.7
			c-0.4,0.6-1.1,0.9-1.9,0.9c-0.6,0-1.1-0.2-1.5-0.5c-0.4-0.4-0.5-0.8-0.5-1.4c0-0.7,0.2-1.2,0.7-1.5c0.5-0.4,1.2-0.5,2.1-0.5h1
			v-0.5c0-0.4-0.1-0.8-0.3-1c-0.2-0.2-0.5-0.3-1-0.3c-0.5,0-1,0.1-1.7,0.3l-0.3-0.8c0.8-0.3,1.5-0.4,2.2-0.4c0.7,0,1.3,0.2,1.7,0.5
			c0.4,0.4,0.6,0.9,0.6,1.6v2.9C77.3,460.2,77.4,460.4,77.5,460.6z M76.2,459.8v-1.5h-0.8c-1.2,0-1.8,0.4-1.8,1.3
			c0,0.4,0.1,0.7,0.3,0.9c0.2,0.2,0.5,0.3,0.8,0.3C75.4,460.8,75.9,460.4,76.2,459.8z"/>
		<path class="st1" d="M83.3,461.2c-0.4,0.3-0.9,0.4-1.4,0.4c-0.5,0-1-0.2-1.3-0.5c-0.3-0.3-0.5-0.8-0.5-1.3V456H79v-0.9h1.1v-1.4
			l1.1-0.1v1.6h1.5l-0.1,0.9h-1.4v3.8c0,0.3,0.1,0.6,0.2,0.7c0.1,0.1,0.3,0.2,0.6,0.2c0.2,0,0.5-0.1,0.8-0.3L83.3,461.2z"/>
		<path class="st1" d="M89.2,455.5c0.3,0.3,0.5,0.8,0.5,1.4v4.5h-1.1v-4.4c0-0.4-0.1-0.8-0.3-0.9c-0.2-0.2-0.4-0.3-0.8-0.3
			s-0.6,0.1-0.9,0.3c-0.3,0.2-0.5,0.5-0.7,0.8v4.5h-1.1v-8.9l1.1-0.1v3.5c0.5-0.7,1.1-1,1.9-1C88.4,455,88.9,455.2,89.2,455.5z"/>
		<path class="st1" d="M96.9,455.9c0.5,0.6,0.7,1.4,0.7,2.4c0,0.7-0.1,1.2-0.3,1.7c-0.2,0.5-0.5,0.9-1,1.2c-0.4,0.3-0.9,0.4-1.5,0.4
			c-0.9,0-1.6-0.3-2.1-0.9c-0.5-0.6-0.7-1.4-0.7-2.4c0-0.7,0.1-1.2,0.3-1.7c0.2-0.5,0.5-0.9,1-1.2c0.4-0.3,0.9-0.4,1.5-0.4
			C95.7,455,96.4,455.3,96.9,455.9z M93.1,458.3c0,1.6,0.5,2.4,1.6,2.4s1.6-0.8,1.6-2.4c0-1.6-0.5-2.4-1.6-2.4
			C93.7,455.9,93.1,456.7,93.1,458.3z"/>
		<path class="st1" d="M100.2,461.2c-0.2-0.2-0.4-0.6-0.4-1v-7.6l1.1-0.1v7.7c0,0.2,0,0.3,0.1,0.4s0.2,0.1,0.3,0.1
			c0.2,0,0.3,0,0.4-0.1l0.3,0.8c-0.3,0.1-0.6,0.2-0.9,0.2C100.7,461.6,100.4,461.5,100.2,461.2z"/>
		<path class="st1" d="M108.3,455.9c0.5,0.6,0.7,1.4,0.7,2.4c0,0.7-0.1,1.2-0.3,1.7c-0.2,0.5-0.5,0.9-1,1.2
			c-0.4,0.3-0.9,0.4-1.5,0.4c-0.9,0-1.6-0.3-2.1-0.9c-0.5-0.6-0.7-1.4-0.7-2.4c0-0.7,0.1-1.2,0.3-1.7c0.2-0.5,0.5-0.9,1-1.2
			c0.4-0.3,0.9-0.4,1.5-0.4C107.1,455,107.8,455.3,108.3,455.9z M104.6,458.3c0,1.6,0.5,2.4,1.6,2.4s1.6-0.8,1.6-2.4
			c0-1.6-0.5-2.4-1.6-2.4C105.1,455.9,104.6,456.7,104.6,458.3z"/>
		<path class="st1" d="M116.4,455.4c-0.2,0.1-0.5,0.1-0.8,0.2c-0.3,0-0.6,0-1.1,0c0.7,0.3,1.1,0.9,1.1,1.6c0,0.6-0.2,1.1-0.6,1.5
			c-0.4,0.4-1,0.6-1.8,0.6c-0.3,0-0.6,0-0.8-0.1c-0.1,0.1-0.2,0.1-0.2,0.3s-0.1,0.2-0.1,0.3c0,0.3,0.3,0.5,0.8,0.5h1
			c0.4,0,0.8,0.1,1.1,0.2c0.3,0.2,0.6,0.4,0.8,0.6c0.2,0.3,0.3,0.6,0.3,0.9c0,0.6-0.3,1.1-0.8,1.4c-0.5,0.3-1.2,0.5-2.2,0.5
			c-0.7,0-1.2-0.1-1.6-0.2c-0.4-0.1-0.7-0.3-0.8-0.6c-0.2-0.3-0.3-0.6-0.3-1.1h1c0,0.3,0,0.5,0.1,0.6c0.1,0.1,0.3,0.3,0.5,0.3
			s0.6,0.1,1.1,0.1c0.7,0,1.1-0.1,1.4-0.2c0.3-0.2,0.4-0.4,0.4-0.7c0-0.3-0.1-0.5-0.3-0.7c-0.2-0.2-0.5-0.2-0.9-0.2h-1
			c-0.5,0-0.9-0.1-1.2-0.3c-0.3-0.2-0.4-0.5-0.4-0.9c0-0.2,0.1-0.4,0.2-0.6c0.1-0.2,0.3-0.4,0.5-0.5c-0.4-0.2-0.6-0.4-0.8-0.7
			c-0.2-0.3-0.3-0.6-0.3-1c0-0.4,0.1-0.8,0.3-1.1s0.5-0.6,0.9-0.8c0.4-0.2,0.8-0.3,1.2-0.3c0.5,0,0.9,0,1.2-0.1
			c0.3,0,0.6-0.1,0.8-0.2s0.5-0.2,0.8-0.3L116.4,455.4z M112.2,456.2c-0.2,0.3-0.3,0.6-0.3,1c0,0.4,0.1,0.8,0.3,1s0.6,0.4,1,0.4
			c0.4,0,0.8-0.1,1-0.4s0.3-0.6,0.3-1.1c0-0.9-0.5-1.4-1.4-1.4C112.8,455.8,112.5,455.9,112.2,456.2z"/>
		<path class="st1" d="M120.6,461.5c-0.2,0.7-0.6,1.3-1,1.7c-0.4,0.4-1.1,0.7-1.9,0.8l-0.1-0.9c0.4-0.1,0.7-0.2,1-0.3
			s0.4-0.3,0.6-0.5c0.1-0.2,0.3-0.5,0.4-0.9h-0.4l-2.1-6.3h1.2l1.7,5.5l1.7-5.5h1.1L120.6,461.5z"/>
	</g>
	<g>
		<path class="st1" d="M82.4,556.7c0.4,0.2,0.8,0.4,1.1,0.7l-0.6,0.7c-0.3-0.2-0.6-0.4-0.9-0.5c-0.3-0.1-0.6-0.2-1-0.2
			c-0.4,0-0.8,0.1-1.1,0.3c-0.3,0.2-0.4,0.5-0.4,0.9c0,0.2,0,0.4,0.1,0.6c0.1,0.2,0.3,0.3,0.5,0.5c0.3,0.1,0.6,0.3,1.1,0.4
			c0.5,0.2,1,0.3,1.3,0.5c0.3,0.2,0.6,0.4,0.8,0.8c0.2,0.3,0.3,0.7,0.3,1.2c0,0.5-0.1,0.9-0.4,1.3c-0.2,0.4-0.6,0.7-1,0.9
			s-1,0.3-1.6,0.3c-1.1,0-2.1-0.4-2.8-1.1l0.6-0.7c0.3,0.3,0.7,0.5,1,0.6c0.3,0.1,0.7,0.2,1.2,0.2c0.5,0,0.9-0.1,1.3-0.4
			s0.5-0.6,0.5-1.1c0-0.3-0.1-0.5-0.2-0.7c-0.1-0.2-0.3-0.3-0.5-0.5c-0.3-0.1-0.6-0.3-1.1-0.4c-0.8-0.3-1.5-0.6-1.9-0.9
			c-0.4-0.4-0.6-0.8-0.6-1.5c0-0.4,0.1-0.8,0.3-1.1c0.2-0.3,0.5-0.6,0.9-0.8c0.4-0.2,0.8-0.3,1.4-0.3
			C81.6,556.4,82,556.5,82.4,556.7z"/>
		<path class="st1" d="M90.6,564.9h-0.9l-0.1-1c-0.2,0.4-0.5,0.7-0.8,0.9s-0.7,0.3-1.1,0.3c-0.6,0-1-0.2-1.3-0.5s-0.5-0.8-0.5-1.4
			v-4.5H87v4.4c0,0.4,0.1,0.7,0.2,0.9c0.2,0.2,0.4,0.3,0.7,0.3c0.6,0,1.1-0.4,1.6-1.1v-4.5h1.1V564.9z"/>
		<path class="st1" d="M96.7,558.6c0.3,0.1,0.6,0.3,0.9,0.5l-0.5,0.7c-0.2-0.2-0.4-0.3-0.7-0.4c-0.2-0.1-0.4-0.1-0.7-0.1
			c-0.5,0-0.9,0.2-1.2,0.6c-0.3,0.4-0.4,1-0.4,1.8s0.1,1.4,0.4,1.8c0.3,0.4,0.7,0.6,1.2,0.6c0.2,0,0.5,0,0.7-0.1s0.4-0.2,0.7-0.4
			l0.5,0.7c-0.6,0.5-1.2,0.7-1.9,0.7c-0.9,0-1.5-0.3-2-0.9c-0.5-0.6-0.7-1.4-0.7-2.4c0-0.7,0.1-1.3,0.3-1.8c0.2-0.5,0.5-0.9,1-1.2
			c0.4-0.3,0.9-0.4,1.5-0.4C96.1,558.4,96.4,558.4,96.7,558.6z"/>
		<path class="st1" d="M102.7,558.6c0.3,0.1,0.6,0.3,0.9,0.5l-0.5,0.7c-0.2-0.2-0.4-0.3-0.7-0.4c-0.2-0.1-0.4-0.1-0.7-0.1
			c-0.5,0-0.9,0.2-1.2,0.6c-0.3,0.4-0.4,1-0.4,1.8s0.1,1.4,0.4,1.8c0.3,0.4,0.7,0.6,1.2,0.6c0.2,0,0.5,0,0.7-0.1s0.4-0.2,0.7-0.4
			l0.5,0.7c-0.6,0.5-1.2,0.7-1.9,0.7c-0.9,0-1.5-0.3-2-0.9c-0.5-0.6-0.7-1.4-0.7-2.4c0-0.7,0.1-1.3,0.3-1.8c0.2-0.5,0.5-0.9,1-1.2
			c0.4-0.3,0.9-0.4,1.5-0.4C102.1,558.4,102.4,558.4,102.7,558.6z"/>
		<path class="st1" d="M110.1,562.1h-4c0,0.7,0.2,1.2,0.5,1.5c0.3,0.3,0.7,0.5,1.2,0.5c0.3,0,0.6,0,0.8-0.1c0.3-0.1,0.5-0.2,0.8-0.4
			l0.5,0.7c-0.7,0.5-1.4,0.8-2.2,0.8c-0.9,0-1.6-0.3-2.1-0.9c-0.5-0.6-0.7-1.4-0.7-2.4c0-0.7,0.1-1.2,0.3-1.7s0.5-0.9,0.9-1.2
			s0.9-0.4,1.4-0.4c0.8,0,1.5,0.3,1.9,0.8c0.4,0.6,0.7,1.3,0.7,2.3C110.1,561.7,110.1,561.9,110.1,562.1z M109,561.2
			c0-0.6-0.1-1.1-0.4-1.4c-0.2-0.3-0.6-0.5-1.1-0.5c-0.9,0-1.4,0.7-1.5,2L109,561.2L109,561.2z"/>
		<path class="st1" d="M115.3,558.6c0.3,0.1,0.7,0.3,1,0.5l-0.5,0.7c-0.3-0.2-0.6-0.3-0.8-0.4s-0.5-0.1-0.8-0.1
			c-0.4,0-0.6,0.1-0.9,0.2c-0.2,0.1-0.3,0.4-0.3,0.6s0.1,0.5,0.3,0.6c0.2,0.1,0.5,0.3,1.1,0.4c0.7,0.2,1.2,0.4,1.6,0.7
			c0.3,0.3,0.5,0.7,0.5,1.2c0,0.6-0.2,1.1-0.7,1.4c-0.5,0.3-1.1,0.5-1.8,0.5c-1,0-1.8-0.3-2.4-0.8l0.6-0.7c0.5,0.4,1.1,0.6,1.8,0.6
			c0.4,0,0.7-0.1,1-0.3s0.4-0.4,0.4-0.7c0-0.2,0-0.4-0.1-0.5c-0.1-0.1-0.2-0.2-0.5-0.3c-0.2-0.1-0.5-0.2-0.9-0.3
			c-0.7-0.2-1.2-0.4-1.5-0.7c-0.3-0.3-0.4-0.7-0.4-1.1c0-0.3,0.1-0.6,0.3-0.9c0.2-0.3,0.5-0.5,0.8-0.6c0.3-0.1,0.7-0.2,1.2-0.2
			S114.9,558.5,115.3,558.6z"/>
		<path class="st1" d="M121.2,558.6c0.3,0.1,0.7,0.3,1,0.5l-0.5,0.7c-0.3-0.2-0.6-0.3-0.8-0.4s-0.5-0.1-0.8-0.1
			c-0.4,0-0.6,0.1-0.9,0.2c-0.2,0.1-0.3,0.4-0.3,0.6s0.1,0.5,0.3,0.6c0.2,0.1,0.5,0.3,1.1,0.4c0.7,0.2,1.2,0.4,1.6,0.7
			c0.3,0.3,0.5,0.7,0.5,1.2c0,0.6-0.2,1.1-0.7,1.4c-0.5,0.3-1.1,0.5-1.8,0.5c-1,0-1.8-0.3-2.4-0.8l0.6-0.7c0.5,0.4,1.1,0.6,1.8,0.6
			c0.4,0,0.7-0.1,1-0.3s0.4-0.4,0.4-0.7c0-0.2,0-0.4-0.1-0.5c-0.1-0.1-0.2-0.2-0.5-0.3c-0.2-0.1-0.5-0.2-0.9-0.3
			c-0.7-0.2-1.2-0.4-1.5-0.7c-0.3-0.3-0.4-0.7-0.4-1.1c0-0.3,0.1-0.6,0.3-0.9c0.2-0.3,0.5-0.5,0.8-0.6c0.3-0.1,0.7-0.2,1.2-0.2
			S120.9,558.5,121.2,558.6z"/>
	</g>
	<g>
		<path class="st1" d="M89.8,625.5l-1.7,8.3h-1.5l-1.5-6.9l-1.5,6.9h-1.4l-1.7-8.3h1.1l1.3,7.3l1.6-7.3h1.2l1.6,7.3l1.4-7.3H89.8z"
			/>
		<path class="st1" d="M96.1,628.2c0.5,0.6,0.7,1.4,0.7,2.4c0,0.7-0.1,1.2-0.3,1.7c-0.2,0.5-0.5,0.9-1,1.2c-0.4,0.3-0.9,0.4-1.5,0.4
			c-0.9,0-1.6-0.3-2.1-0.9c-0.5-0.6-0.7-1.4-0.7-2.4c0-0.7,0.1-1.2,0.3-1.7c0.2-0.5,0.5-0.9,1-1.2c0.4-0.3,0.9-0.4,1.5-0.4
			C94.9,627.3,95.6,627.6,96.1,628.2z M92.4,630.6c0,1.6,0.5,2.4,1.6,2.4s1.6-0.8,1.6-2.4c0-1.6-0.5-2.4-1.6-2.4
			C92.9,628.2,92.4,629,92.4,630.6z"/>
		<path class="st1" d="M106.7,627.8c0.3,0.3,0.5,0.8,0.5,1.4v4.5h-1.1v-4.4c0-0.8-0.3-1.2-0.9-1.2c-0.3,0-0.6,0.1-0.8,0.3
			c-0.2,0.2-0.4,0.5-0.7,0.8v4.5h-1.1v-4.4c0-0.8-0.3-1.2-0.9-1.2c-0.3,0-0.6,0.1-0.8,0.3c-0.2,0.2-0.4,0.5-0.7,0.8v4.5h-1.1v-6.3
			h0.9l0.1,0.9c0.5-0.7,1.1-1.1,1.8-1.1c0.4,0,0.7,0.1,1,0.3c0.3,0.2,0.5,0.5,0.6,0.8c0.2-0.4,0.5-0.7,0.8-0.8
			c0.3-0.2,0.7-0.3,1.1-0.3C106,627.3,106.4,627.5,106.7,627.8z"/>
		<path class="st1" d="M114.3,632.9c0.1,0.1,0.2,0.2,0.4,0.3l-0.3,0.8c-0.3,0-0.6-0.1-0.8-0.3c-0.2-0.1-0.3-0.4-0.4-0.7
			c-0.4,0.6-1.1,0.9-1.9,0.9c-0.6,0-1.1-0.2-1.5-0.5s-0.5-0.8-0.5-1.4c0-0.7,0.2-1.2,0.7-1.5c0.5-0.4,1.2-0.5,2.1-0.5h1v-0.5
			c0-0.4-0.1-0.8-0.3-1c-0.2-0.2-0.5-0.3-1-0.3c-0.5,0-1,0.1-1.7,0.3l-0.3-0.8c0.8-0.3,1.5-0.4,2.2-0.4c0.7,0,1.3,0.2,1.7,0.5
			c0.4,0.4,0.6,0.9,0.6,1.6v2.9C114.2,632.6,114.2,632.8,114.3,632.9z M113.1,632.1v-1.5h-0.8c-1.2,0-1.8,0.4-1.8,1.3
			c0,0.4,0.1,0.7,0.3,0.9c0.2,0.2,0.5,0.3,0.8,0.3C112.2,633.1,112.7,632.8,113.1,632.1z"/>
		<path class="st1" d="M121.2,627.8c0.3,0.3,0.5,0.8,0.5,1.4v4.5h-1.1v-4.4c0-0.4-0.1-0.8-0.3-0.9s-0.4-0.3-0.7-0.3
			c-0.3,0-0.6,0.1-0.9,0.3s-0.5,0.5-0.7,0.8v4.5h-1.1v-6.3h0.9l0.1,0.9c0.2-0.3,0.5-0.6,0.8-0.8c0.3-0.2,0.7-0.3,1.1-0.3
			C120.5,627.3,120.9,627.5,121.2,627.8z"/>
	</g>
	<g>
		<path class="st1" d="M84.3,147.3c0.4,0.3,0.5,0.8,0.5,1.4c0,1.6-1.1,2.4-3.3,2.4h-2.3v-8.3h2c1,0,1.9,0.2,2.4,0.5
			c0.6,0.3,0.8,0.9,0.8,1.6c0,0.5-0.1,0.9-0.5,1.2c-0.3,0.3-0.7,0.5-1.1,0.6C83.5,146.8,84,147,84.3,147.3z M80.5,143.7v2.6h1.2
			c0.5,0,0.9-0.1,1.2-0.3c0.3-0.2,0.5-0.6,0.5-1c0-0.5-0.2-0.8-0.5-1c-0.3-0.2-0.8-0.3-1.5-0.3H80.5z M83.1,149.8
			c0.4-0.2,0.5-0.6,0.5-1.1c0-0.5-0.2-0.9-0.5-1.2c-0.3-0.2-0.8-0.4-1.3-0.4h-1.4v3h1.1C82.3,150.1,82.8,150,83.1,149.8z"/>
		<path class="st1" d="M91.4,150.1c0.1,0.1,0.2,0.2,0.4,0.3l-0.3,0.8c-0.3,0-0.6-0.1-0.8-0.3c-0.2-0.1-0.3-0.4-0.4-0.7
			c-0.4,0.6-1.1,0.9-1.9,0.9c-0.6,0-1.1-0.2-1.5-0.5s-0.5-0.8-0.5-1.4c0-0.7,0.2-1.2,0.7-1.5c0.5-0.4,1.2-0.5,2.1-0.5h1v-0.5
			c0-0.4-0.1-0.8-0.3-1c-0.2-0.2-0.5-0.3-1-0.3c-0.5,0-1,0.1-1.7,0.3l-0.3-0.8c0.8-0.3,1.5-0.4,2.2-0.4c0.7,0,1.3,0.2,1.7,0.5
			c0.4,0.4,0.6,0.9,0.6,1.6v2.9C91.3,149.8,91.3,150,91.4,150.1z M90.2,149.4v-1.5h-0.8c-1.2,0-1.8,0.4-1.8,1.3
			c0,0.4,0.1,0.7,0.3,0.9c0.2,0.2,0.5,0.3,0.8,0.3C89.3,150.3,89.8,150,90.2,149.4z"/>
		<path class="st1" d="M98.9,142.2v8.9h-1l-0.1-0.9c-0.2,0.3-0.5,0.6-0.8,0.8s-0.7,0.3-1,0.3c-0.8,0-1.3-0.3-1.8-0.9
			c-0.4-0.6-0.6-1.4-0.6-2.4c0-0.6,0.1-1.2,0.3-1.7c0.2-0.5,0.5-0.9,0.9-1.2c0.4-0.3,0.8-0.4,1.3-0.4c0.6,0,1.2,0.3,1.7,0.8V142
			L98.9,142.2z M97.1,150.1c0.2-0.2,0.5-0.4,0.7-0.7v-3.1c-0.2-0.3-0.4-0.5-0.7-0.6c-0.2-0.1-0.5-0.2-0.8-0.2
			c-0.5,0-0.9,0.2-1.1,0.6s-0.4,1-0.4,1.8c0,0.8,0.1,1.4,0.4,1.8c0.2,0.4,0.6,0.6,1.1,0.6C96.6,150.3,96.9,150.2,97.1,150.1z"/>
		<path class="st1" d="M106.6,142.8v8.3h-1.1v-8.3H106.6z M111.1,142.8l-3.1,3.8l3.4,4.5h-1.4l-3.3-4.4l3.1-3.9H111.1z"/>
		<path class="st1" d="M114,141.9c0.1,0.1,0.2,0.3,0.2,0.5s-0.1,0.4-0.2,0.5c-0.1,0.1-0.3,0.2-0.6,0.2c-0.2,0-0.4-0.1-0.6-0.2
			c-0.1-0.1-0.2-0.3-0.2-0.5s0.1-0.4,0.2-0.5s0.3-0.2,0.6-0.2C113.7,141.7,113.9,141.7,114,141.9z M114,144.7v6.3h-1.1v-6.3H114z"/>
		<path class="st1" d="M121.7,142.2v8.9h-1l-0.1-0.9c-0.2,0.3-0.5,0.6-0.8,0.8s-0.7,0.3-1,0.3c-0.8,0-1.3-0.3-1.8-0.9
			c-0.4-0.6-0.6-1.4-0.6-2.4c0-0.6,0.1-1.2,0.3-1.7c0.2-0.5,0.5-0.9,0.9-1.2c0.4-0.3,0.8-0.4,1.3-0.4c0.6,0,1.2,0.3,1.7,0.8V142
			L121.7,142.2z M119.9,150.1c0.2-0.2,0.5-0.4,0.7-0.7v-3.1c-0.2-0.3-0.4-0.5-0.7-0.6c-0.2-0.1-0.5-0.2-0.8-0.2
			c-0.5,0-0.9,0.2-1.1,0.6s-0.4,1-0.4,1.8c0,0.8,0.1,1.4,0.4,1.8c0.2,0.4,0.6,0.6,1.1,0.6C119.3,150.3,119.6,150.2,119.9,150.1z"/>
	</g>
	<g>
		<path class="st1" d="M43.7,110.9l-0.6-2.1h-3.1l-0.6,2.1h-1.2l2.7-8.3h1.4l2.6,8.3H43.7z M40.2,107.9h2.6l-1.3-4.3L40.2,107.9z"/>
		<path class="st1" d="M46.8,110.6c-0.2-0.2-0.4-0.6-0.4-1V102l1.1-0.1v7.7c0,0.2,0,0.3,0.1,0.4c0.1,0.1,0.2,0.1,0.3,0.1
			c0.2,0,0.3,0,0.4-0.1l0.3,0.8c-0.3,0.1-0.6,0.2-0.9,0.2C47.4,111,47.1,110.9,46.8,110.6z"/>
		<path class="st1" d="M50.8,110.6c-0.2-0.2-0.4-0.6-0.4-1V102l1.1-0.1v7.7c0,0.2,0,0.3,0.1,0.4c0.1,0.1,0.2,0.1,0.3,0.1
			c0.2,0,0.3,0,0.4-0.1l0.3,0.8c-0.3,0.1-0.6,0.2-0.9,0.2C51.4,111,51.1,110.9,50.8,110.6z"/>
		<path class="st1" d="M61.4,110.6c-0.4,0.3-0.9,0.4-1.4,0.4c-0.5,0-1-0.2-1.3-0.5c-0.3-0.3-0.5-0.8-0.5-1.3v-3.8h-1.1v-0.9h1.1
			v-1.4l1.1-0.1v1.6h1.5l-0.1,0.9h-1.4v3.8c0,0.3,0.1,0.6,0.2,0.7c0.1,0.1,0.3,0.2,0.6,0.2c0.2,0,0.5-0.1,0.8-0.3L61.4,110.6z"/>
		<path class="st1" d="M67.3,104.9c0.3,0.3,0.5,0.8,0.5,1.4v4.5h-1.1v-4.4c0-0.4-0.1-0.8-0.3-0.9c-0.2-0.2-0.4-0.3-0.8-0.3
			s-0.6,0.1-0.9,0.3s-0.5,0.5-0.7,0.8v4.5H63V102l1.1-0.1v3.5c0.5-0.7,1.1-1,1.9-1C66.6,104.4,67,104.6,67.3,104.9z"/>
		<path class="st1" d="M75.3,108.1h-4c0,0.7,0.2,1.2,0.5,1.5c0.3,0.3,0.7,0.5,1.2,0.5c0.3,0,0.6,0,0.8-0.1c0.3-0.1,0.5-0.2,0.8-0.4
			l0.5,0.7c-0.7,0.5-1.4,0.8-2.2,0.8c-0.9,0-1.6-0.3-2.1-0.9c-0.5-0.6-0.7-1.4-0.7-2.4c0-0.7,0.1-1.2,0.3-1.7
			c0.2-0.5,0.5-0.9,0.9-1.2s0.9-0.4,1.4-0.4c0.8,0,1.5,0.3,1.9,0.8c0.4,0.6,0.7,1.3,0.7,2.3C75.3,107.7,75.3,107.9,75.3,108.1z
			 M74.2,107.2c0-0.6-0.1-1.1-0.4-1.4c-0.2-0.3-0.6-0.5-1.1-0.5c-0.9,0-1.4,0.7-1.5,2L74.2,107.2L74.2,107.2z"/>
		<path class="st1" d="M84.4,110.6c-0.4,0.3-0.9,0.4-1.4,0.4c-0.5,0-1-0.2-1.3-0.5c-0.3-0.3-0.5-0.8-0.5-1.3v-3.8h-1.1v-0.9h1.1
			v-1.4l1.1-0.1v1.6h1.5l-0.1,0.9h-1.4v3.8c0,0.3,0.1,0.6,0.2,0.7c0.1,0.1,0.3,0.2,0.6,0.2c0.2,0,0.5-0.1,0.8-0.3L84.4,110.6z"/>
		<path class="st1" d="M90.3,104.9c0.3,0.3,0.5,0.8,0.5,1.4v4.5h-1.1v-4.4c0-0.4-0.1-0.8-0.3-0.9c-0.2-0.2-0.4-0.3-0.8-0.3
			s-0.6,0.1-0.9,0.3s-0.5,0.5-0.7,0.8v4.5H86V102l1.1-0.1v3.5c0.5-0.7,1.1-1,1.9-1C89.6,104.4,90,104.6,90.3,104.9z"/>
		<path class="st1" d="M98.3,108.1h-4c0,0.7,0.2,1.2,0.5,1.5c0.3,0.3,0.7,0.5,1.2,0.5c0.3,0,0.6,0,0.8-0.1c0.3-0.1,0.5-0.2,0.8-0.4
			l0.5,0.7c-0.7,0.5-1.4,0.8-2.2,0.8c-0.9,0-1.6-0.3-2.1-0.9c-0.5-0.6-0.7-1.4-0.7-2.4c0-0.7,0.1-1.2,0.3-1.7
			c0.2-0.5,0.5-0.9,0.9-1.2s0.9-0.4,1.4-0.4c0.8,0,1.5,0.3,1.9,0.8c0.4,0.6,0.7,1.3,0.7,2.3C98.3,107.7,98.3,107.9,98.3,108.1z
			 M97.2,107.2c0-0.6-0.1-1.1-0.4-1.4c-0.2-0.3-0.6-0.5-1.1-0.5c-0.9,0-1.4,0.7-1.5,2L97.2,107.2L97.2,107.2z"/>
		<path class="st1" d="M108.1,104.9c0.3,0.3,0.5,0.8,0.5,1.4v4.5h-1.1v-4.4c0-0.8-0.3-1.2-0.9-1.2c-0.3,0-0.6,0.1-0.8,0.3
			c-0.2,0.2-0.4,0.5-0.7,0.8v4.5H104v-4.4c0-0.8-0.3-1.2-0.9-1.2c-0.3,0-0.6,0.1-0.8,0.3c-0.2,0.2-0.4,0.5-0.7,0.8v4.5h-1.1v-6.3
			h0.9l0.1,0.9c0.5-0.7,1.1-1.1,1.8-1.1c0.4,0,0.7,0.1,1,0.3c0.3,0.2,0.5,0.5,0.6,0.8c0.2-0.4,0.5-0.6,0.8-0.8
			c0.3-0.2,0.7-0.3,1.1-0.3C107.4,104.4,107.8,104.6,108.1,104.9z"/>
		<path class="st1" d="M116.1,108.1h-4c0,0.7,0.2,1.2,0.5,1.5c0.3,0.3,0.7,0.5,1.2,0.5c0.3,0,0.6,0,0.8-0.1c0.3-0.1,0.5-0.2,0.8-0.4
			l0.5,0.7c-0.7,0.5-1.4,0.8-2.2,0.8c-0.9,0-1.6-0.3-2.1-0.9c-0.5-0.6-0.7-1.4-0.7-2.4c0-0.7,0.1-1.2,0.3-1.7
			c0.2-0.5,0.5-0.9,0.9-1.2s0.9-0.4,1.4-0.4c0.8,0,1.5,0.3,1.9,0.8c0.4,0.6,0.7,1.3,0.7,2.3C116.1,107.7,116.1,107.9,116.1,108.1z
			 M115,107.2c0-0.6-0.1-1.1-0.4-1.4c-0.2-0.3-0.6-0.5-1.1-0.5c-0.9,0-1.4,0.7-1.5,2L115,107.2L115,107.2z"/>
		<path class="st1" d="M121.2,104.6c0.3,0.1,0.7,0.3,1,0.5l-0.5,0.7c-0.3-0.2-0.6-0.3-0.8-0.4s-0.5-0.1-0.8-0.1
			c-0.4,0-0.6,0.1-0.9,0.2c-0.2,0.1-0.3,0.4-0.3,0.6c0,0.3,0.1,0.5,0.3,0.6c0.2,0.1,0.5,0.3,1.1,0.4c0.7,0.2,1.2,0.4,1.6,0.7
			c0.3,0.3,0.5,0.7,0.5,1.2c0,0.6-0.2,1.1-0.7,1.4c-0.5,0.3-1.1,0.5-1.8,0.5c-1,0-1.8-0.3-2.4-0.8l0.6-0.7c0.5,0.4,1.1,0.6,1.8,0.6
			c0.4,0,0.7-0.1,1-0.3s0.4-0.4,0.4-0.7c0-0.2,0-0.4-0.1-0.5c-0.1-0.1-0.2-0.2-0.5-0.3c-0.2-0.1-0.5-0.2-0.9-0.3
			c-0.7-0.2-1.2-0.4-1.5-0.7c-0.3-0.3-0.4-0.7-0.4-1.1c0-0.3,0.1-0.6,0.3-0.9c0.2-0.3,0.5-0.5,0.8-0.6c0.3-0.1,0.7-0.2,1.2-0.2
			S120.9,104.5,121.2,104.6z"/>
	</g>
	<g>
		<path class="st1" d="M107.5,427h-1.1l-0.3-3.7c-0.1-1.5-0.2-2.6-0.2-3.4l-1.8,6.2h-1.1l-1.9-6.2c0,1-0.1,2.2-0.2,3.5l-0.3,3.6
			h-1.1l0.7-8.3h1.5l1.7,6l1.7-6h1.5L107.5,427z"/>
		<path class="st1" d="M114.3,426.1c0.1,0.1,0.2,0.2,0.4,0.3l-0.3,0.8c-0.3,0-0.6-0.1-0.8-0.3c-0.2-0.1-0.3-0.4-0.4-0.7
			c-0.4,0.6-1.1,0.9-1.9,0.9c-0.6,0-1.1-0.2-1.5-0.5c-0.4-0.4-0.5-0.8-0.5-1.4c0-0.7,0.2-1.2,0.7-1.5c0.5-0.4,1.2-0.5,2.1-0.5h1
			v-0.5c0-0.4-0.1-0.8-0.3-1c-0.2-0.2-0.5-0.3-1-0.3c-0.5,0-1,0.1-1.7,0.3l-0.3-0.8c0.8-0.3,1.5-0.4,2.2-0.4c0.7,0,1.3,0.2,1.7,0.5
			c0.4,0.4,0.6,0.9,0.6,1.6v2.9C114.2,425.8,114.2,426,114.3,426.1z M113.1,425.3v-1.5h-0.8c-1.2,0-1.8,0.4-1.8,1.3
			c0,0.4,0.1,0.7,0.3,0.9c0.2,0.2,0.5,0.3,0.8,0.3C112.2,426.3,112.7,426,113.1,425.3z"/>
		<path class="st1" d="M121.2,421c0.3,0.3,0.5,0.8,0.5,1.4v4.5h-1.1v-4.4c0-0.4-0.1-0.8-0.3-0.9c-0.2-0.2-0.4-0.3-0.7-0.3
			c-0.3,0-0.6,0.1-0.9,0.3c-0.3,0.2-0.5,0.5-0.7,0.8v4.5h-1.1v-6.3h0.9l0.1,0.9c0.2-0.3,0.5-0.6,0.8-0.8c0.3-0.2,0.7-0.3,1.1-0.3
			C120.5,420.5,120.9,420.7,121.2,421z"/>
	</g>
	<g>
		<path class="st1" d="M75.5,349.9c0.4,0.1,0.8,0.4,1.1,0.7l-0.7,0.7c-0.3-0.2-0.6-0.4-0.9-0.5c-0.3-0.1-0.6-0.2-1-0.2
			c-0.4,0-0.8,0.1-1.2,0.3c-0.4,0.2-0.6,0.6-0.9,1.1c-0.2,0.5-0.3,1.1-0.3,1.9c0,1.2,0.2,2,0.6,2.5s0.9,0.8,1.7,0.8
			c0.6,0,1.1-0.1,1.6-0.4v-2.5h-1.5l-0.1-0.9h2.7v4c-0.9,0.5-1.8,0.7-2.7,0.7c-1.1,0-1.9-0.4-2.5-1.1c-0.6-0.7-0.9-1.8-0.9-3.2
			c0-0.9,0.2-1.7,0.5-2.3c0.3-0.6,0.8-1.1,1.3-1.5c0.5-0.3,1.1-0.5,1.8-0.5C74.6,349.6,75.1,349.7,75.5,349.9z"/>
		<path class="st1" d="M83.5,352.5c0.5,0.6,0.7,1.4,0.7,2.4c0,0.7-0.1,1.2-0.3,1.7c-0.2,0.5-0.5,0.9-1,1.2c-0.4,0.3-0.9,0.4-1.5,0.4
			c-0.9,0-1.6-0.3-2.1-0.9c-0.5-0.6-0.7-1.4-0.7-2.4c0-0.7,0.1-1.2,0.3-1.7c0.2-0.5,0.5-0.9,1-1.2c0.4-0.3,0.9-0.4,1.5-0.4
			C82.3,351.6,83,351.9,83.5,352.5z M79.8,354.9c0,1.6,0.5,2.4,1.6,2.4s1.6-0.8,1.6-2.4c0-1.6-0.5-2.4-1.6-2.4
			C80.3,352.5,79.8,353.3,79.8,354.9z"/>
		<path class="st1" d="M91,352.5c0.5,0.6,0.7,1.4,0.7,2.4c0,0.7-0.1,1.2-0.3,1.7c-0.2,0.5-0.5,0.9-1,1.2c-0.4,0.3-0.9,0.4-1.5,0.4
			c-0.9,0-1.6-0.3-2.1-0.9c-0.5-0.6-0.7-1.4-0.7-2.4c0-0.7,0.1-1.2,0.3-1.7c0.2-0.5,0.5-0.9,1-1.2c0.4-0.3,0.9-0.4,1.5-0.4
			C89.8,351.6,90.5,351.9,91,352.5z M87.3,354.9c0,1.6,0.5,2.4,1.6,2.4s1.6-0.8,1.6-2.4c0-1.6-0.5-2.4-1.6-2.4
			C87.8,352.5,87.3,353.3,87.3,354.9z"/>
		<path class="st1" d="M98.9,349.2v8.9h-1l-0.1-0.9c-0.2,0.3-0.5,0.6-0.8,0.8s-0.7,0.3-1,0.3c-0.8,0-1.3-0.3-1.8-0.9
			s-0.6-1.4-0.6-2.4c0-0.6,0.1-1.2,0.3-1.7c0.2-0.5,0.5-0.9,0.9-1.2c0.4-0.3,0.8-0.4,1.3-0.4c0.6,0,1.2,0.3,1.7,0.8v-3.3L98.9,349.2
			z M97.1,357.1c0.2-0.2,0.5-0.4,0.7-0.7v-3.1c-0.2-0.3-0.4-0.5-0.7-0.6c-0.2-0.1-0.5-0.2-0.8-0.2c-0.5,0-0.9,0.2-1.1,0.6
			c-0.3,0.4-0.4,1-0.4,1.8c0,0.8,0.1,1.4,0.4,1.8c0.2,0.4,0.6,0.6,1.1,0.6C96.6,357.3,96.9,357.3,97.1,357.1z"/>
		<path class="st1" d="M106.6,349.8v8.3h-1.1v-8.3H106.6z M111.1,349.8l-3.1,3.8l3.4,4.5h-1.4l-3.3-4.4l3.1-3.9H111.1z"/>
		<path class="st1" d="M114,348.9c0.1,0.1,0.2,0.3,0.2,0.5c0,0.2-0.1,0.4-0.2,0.5c-0.1,0.1-0.3,0.2-0.6,0.2c-0.2,0-0.4-0.1-0.6-0.2
			c-0.1-0.1-0.2-0.3-0.2-0.5c0-0.2,0.1-0.4,0.2-0.5c0.1-0.1,0.3-0.2,0.6-0.2C113.7,348.7,113.9,348.8,114,348.9z M114,351.7v6.3
			h-1.1v-6.3H114z"/>
		<path class="st1" d="M121.7,349.2v8.9h-1l-0.1-0.9c-0.2,0.3-0.5,0.6-0.8,0.8s-0.7,0.3-1,0.3c-0.8,0-1.3-0.3-1.8-0.9
			s-0.6-1.4-0.6-2.4c0-0.6,0.1-1.2,0.3-1.7c0.2-0.5,0.5-0.9,0.9-1.2c0.4-0.3,0.8-0.4,1.3-0.4c0.6,0,1.2,0.3,1.7,0.8v-3.3
			L121.7,349.2z M119.9,357.1c0.2-0.2,0.5-0.4,0.7-0.7v-3.1c-0.2-0.3-0.4-0.5-0.7-0.6c-0.2-0.1-0.5-0.2-0.8-0.2
			c-0.5,0-0.9,0.2-1.1,0.6c-0.3,0.4-0.4,1-0.4,1.8c0,0.8,0.1,1.4,0.4,1.8c0.2,0.4,0.6,0.6,1.1,0.6
			C119.3,357.3,119.6,357.3,119.9,357.1z"/>
	</g>
	<g>
		<path class="st1" d="M91.4,323.6v-8.3h4.4l-0.1,0.9h-3.1v2.8h2.7v0.9h-2.7v3.6H91.4z"/>
		<path class="st1" d="M101.7,318c0.5,0.6,0.7,1.4,0.7,2.4c0,0.7-0.1,1.2-0.3,1.7c-0.2,0.5-0.5,0.9-1,1.2c-0.4,0.3-0.9,0.4-1.5,0.4
			c-0.9,0-1.6-0.3-2.1-0.9c-0.5-0.6-0.7-1.4-0.7-2.4c0-0.7,0.1-1.2,0.3-1.7c0.2-0.5,0.5-0.9,1-1.2c0.4-0.3,0.9-0.4,1.5-0.4
			C100.6,317.1,101.2,317.4,101.7,318z M98,320.4c0,1.6,0.5,2.4,1.6,2.4s1.6-0.8,1.6-2.4c0-1.6-0.5-2.4-1.6-2.4
			C98.6,318,98,318.8,98,320.4z"/>
		<path class="st1" d="M108.1,317.3c0.3,0.1,0.6,0.3,0.9,0.5l-0.5,0.7c-0.2-0.2-0.4-0.3-0.7-0.4s-0.4-0.1-0.7-0.1
			c-0.5,0-0.9,0.2-1.2,0.6c-0.3,0.4-0.4,1-0.4,1.8s0.1,1.4,0.4,1.8c0.3,0.4,0.7,0.6,1.2,0.6c0.2,0,0.5,0,0.7-0.1
			c0.2-0.1,0.4-0.2,0.7-0.4l0.5,0.7c-0.6,0.5-1.2,0.7-1.9,0.7c-0.9,0-1.5-0.3-2-0.9c-0.5-0.6-0.7-1.4-0.7-2.4c0-0.7,0.1-1.3,0.3-1.8
			c0.2-0.5,0.5-0.9,1-1.2c0.4-0.3,0.9-0.4,1.5-0.4C107.5,317.1,107.8,317.2,108.1,317.3z"/>
		<path class="st1" d="M115.6,323.6h-0.9l-0.1-1c-0.2,0.4-0.5,0.7-0.8,0.9s-0.7,0.3-1.1,0.3c-0.6,0-1-0.2-1.3-0.5s-0.5-0.8-0.5-1.4
			v-4.5h1.1v4.4c0,0.4,0.1,0.7,0.2,0.9c0.2,0.2,0.4,0.3,0.7,0.3c0.6,0,1.1-0.4,1.6-1.1v-4.5h1.1V323.6z"/>
		<path class="st1" d="M121.2,317.3c0.3,0.1,0.7,0.3,1,0.5l-0.5,0.7c-0.3-0.2-0.6-0.3-0.8-0.4s-0.5-0.1-0.8-0.1
			c-0.4,0-0.6,0.1-0.9,0.2c-0.2,0.1-0.3,0.4-0.3,0.6c0,0.3,0.1,0.5,0.3,0.6c0.2,0.1,0.5,0.3,1.1,0.4c0.7,0.2,1.2,0.4,1.6,0.7
			c0.3,0.3,0.5,0.7,0.5,1.2c0,0.6-0.2,1.1-0.7,1.4c-0.5,0.3-1.1,0.5-1.8,0.5c-1,0-1.8-0.3-2.4-0.8l0.6-0.7c0.5,0.4,1.1,0.6,1.8,0.6
			c0.4,0,0.7-0.1,1-0.3s0.4-0.4,0.4-0.7c0-0.2,0-0.4-0.1-0.5c-0.1-0.1-0.2-0.2-0.5-0.3c-0.2-0.1-0.5-0.2-0.9-0.3
			c-0.7-0.2-1.2-0.4-1.5-0.7c-0.3-0.3-0.4-0.7-0.4-1.1c0-0.3,0.1-0.6,0.3-0.9c0.2-0.3,0.5-0.5,0.8-0.6c0.3-0.1,0.7-0.2,1.2-0.2
			S120.9,317.2,121.2,317.3z"/>
	</g>
	<g>
		<path class="st1" d="M89.6,211.9l-0.1,0.9h-3.2v2.7h2.8v0.9h-2.8v2.8h3.4v0.9h-4.6v-8.3H89.6z"/>
		<path class="st1" d="M96.2,214.2c0.3,0.3,0.5,0.8,0.5,1.4v4.5h-1.1v-4.4c0-0.4-0.1-0.8-0.3-0.9c-0.2-0.2-0.4-0.3-0.7-0.3
			c-0.3,0-0.6,0.1-0.9,0.3s-0.5,0.5-0.7,0.8v4.5h-1.1v-6.3h0.9l0.1,0.9c0.2-0.3,0.5-0.6,0.8-0.8c0.3-0.2,0.7-0.3,1.1-0.3
			C95.4,213.7,95.9,213.9,96.2,214.2z"/>
		<path class="st1" d="M104.1,217.4h-4c0,0.7,0.2,1.2,0.5,1.5c0.3,0.3,0.7,0.5,1.2,0.5c0.3,0,0.6,0,0.8-0.1c0.3-0.1,0.5-0.2,0.8-0.4
			l0.5,0.7c-0.7,0.5-1.4,0.8-2.2,0.8c-0.9,0-1.6-0.3-2.1-0.9c-0.5-0.6-0.7-1.4-0.7-2.4c0-0.7,0.1-1.2,0.3-1.7
			c0.2-0.5,0.5-0.9,0.9-1.2s0.9-0.4,1.4-0.4c0.8,0,1.5,0.3,1.9,0.8c0.4,0.6,0.7,1.3,0.7,2.3C104.1,217,104.1,217.2,104.1,217.4z
			 M103,216.5c0-0.6-0.1-1.1-0.4-1.4c-0.2-0.3-0.6-0.5-1.1-0.5c-0.9,0-1.4,0.7-1.5,2L103,216.5L103,216.5z"/>
		<path class="st1" d="M109.8,213.8l-0.2,1.1c-0.2,0-0.4-0.1-0.6-0.1c-0.4,0-0.7,0.1-0.9,0.4c-0.2,0.3-0.4,0.7-0.6,1.3v3.6h-1.1
			v-6.3h0.9l0.1,1.3c0.2-0.5,0.4-0.8,0.7-1.1c0.3-0.2,0.6-0.4,1-0.4C109.4,213.7,109.6,213.8,109.8,213.8z"/>
		<path class="st1" d="M116.4,214.2c-0.2,0.1-0.5,0.1-0.8,0.2c-0.3,0-0.6,0-1.1,0c0.7,0.3,1.1,0.9,1.1,1.6c0,0.6-0.2,1.1-0.6,1.5
			c-0.4,0.4-1,0.6-1.8,0.6c-0.3,0-0.6,0-0.8-0.1c-0.1,0.1-0.2,0.2-0.2,0.3s-0.1,0.2-0.1,0.3c0,0.3,0.3,0.5,0.8,0.5h1
			c0.4,0,0.8,0.1,1.1,0.2c0.3,0.2,0.6,0.4,0.8,0.6c0.2,0.3,0.3,0.6,0.3,0.9c0,0.6-0.3,1.1-0.8,1.4c-0.5,0.3-1.2,0.5-2.2,0.5
			c-0.7,0-1.2-0.1-1.6-0.2c-0.4-0.1-0.7-0.4-0.8-0.6c-0.2-0.3-0.3-0.6-0.3-1.1h1c0,0.3,0,0.5,0.1,0.6c0.1,0.1,0.3,0.3,0.5,0.3
			c0.2,0.1,0.6,0.1,1.1,0.1c0.7,0,1.1-0.1,1.4-0.2c0.3-0.2,0.4-0.4,0.4-0.7c0-0.3-0.1-0.5-0.3-0.7s-0.5-0.2-0.9-0.2h-1
			c-0.5,0-0.9-0.1-1.2-0.3s-0.4-0.5-0.4-0.9c0-0.2,0.1-0.4,0.2-0.6c0.1-0.2,0.3-0.4,0.5-0.5c-0.4-0.2-0.6-0.4-0.8-0.7
			c-0.2-0.3-0.3-0.6-0.3-1c0-0.4,0.1-0.8,0.3-1.1s0.5-0.6,0.9-0.8c0.4-0.2,0.8-0.3,1.2-0.3c0.5,0,0.9,0,1.2-0.1s0.6-0.1,0.8-0.2
			c0.2-0.1,0.5-0.2,0.8-0.3L116.4,214.2z M112.2,214.9c-0.2,0.3-0.3,0.6-0.3,1c0,0.4,0.1,0.8,0.3,1c0.2,0.3,0.6,0.4,1,0.4
			c0.4,0,0.8-0.1,1-0.4s0.3-0.6,0.3-1.1c0-0.9-0.5-1.4-1.4-1.4C112.8,214.5,112.5,214.6,112.2,214.9z"/>
		<path class="st1" d="M120.6,220.2c-0.2,0.7-0.6,1.3-1,1.7c-0.4,0.4-1.1,0.7-1.9,0.8l-0.1-0.9c0.4-0.1,0.7-0.2,1-0.3
			s0.4-0.3,0.6-0.5c0.1-0.2,0.3-0.5,0.4-0.9h-0.4l-2.1-6.3h1.2l1.7,5.5l1.7-5.5h1.1L120.6,220.2z"/>
	</g>
	<g>
		<path class="st1" d="M92.7,591.1l-1.7,8.3h-1.5l-1.5-6.9l-1.5,6.9h-1.4l-1.7-8.3h1.1l1.3,7.3l1.6-7.3h1.2l1.6,7.3l1.4-7.3H92.7z"
			/>
		<path class="st1" d="M99.2,596.5h-4c0,0.7,0.2,1.2,0.5,1.5c0.3,0.3,0.7,0.5,1.2,0.5c0.3,0,0.6,0,0.8-0.1c0.3-0.1,0.5-0.2,0.8-0.4
			l0.5,0.7c-0.7,0.5-1.4,0.8-2.2,0.8c-0.9,0-1.6-0.3-2.1-0.9c-0.5-0.6-0.7-1.4-0.7-2.4c0-0.7,0.1-1.2,0.3-1.7s0.5-0.9,0.9-1.2
			s0.9-0.4,1.4-0.4c0.8,0,1.5,0.3,1.9,0.8c0.4,0.6,0.7,1.3,0.7,2.3C99.3,596.2,99.3,596.4,99.2,596.5z M98.2,595.7
			c0-0.6-0.1-1.1-0.4-1.4c-0.2-0.3-0.6-0.5-1.1-0.5c-0.9,0-1.4,0.7-1.5,2L98.2,595.7L98.2,595.7z"/>
		<path class="st1" d="M102.6,590.2c0.1,0.1,0.2,0.3,0.2,0.5c0,0.2-0.1,0.4-0.2,0.5c-0.1,0.1-0.3,0.2-0.6,0.2
			c-0.2,0-0.4-0.1-0.6-0.2c-0.1-0.1-0.2-0.3-0.2-0.5c0-0.2,0.1-0.4,0.2-0.5c0.1-0.1,0.3-0.2,0.6-0.2
			C102.3,590,102.5,590,102.6,590.2z M102.6,593v6.3h-1.1V593H102.6z"/>
		<path class="st1" d="M110.5,593.3c-0.2,0.1-0.5,0.1-0.8,0.2c-0.3,0-0.6,0-1.1,0c0.7,0.3,1.1,0.9,1.1,1.6c0,0.6-0.2,1.1-0.6,1.5
			c-0.4,0.4-1,0.6-1.8,0.6c-0.3,0-0.6,0-0.8-0.1c-0.1,0.1-0.2,0.1-0.2,0.3s-0.1,0.2-0.1,0.3c0,0.3,0.3,0.5,0.8,0.5h1
			c0.4,0,0.8,0.1,1.1,0.2c0.3,0.2,0.6,0.4,0.8,0.6c0.2,0.3,0.3,0.6,0.3,0.9c0,0.6-0.3,1.1-0.8,1.4c-0.5,0.3-1.2,0.5-2.2,0.5
			c-0.7,0-1.2-0.1-1.6-0.2c-0.4-0.1-0.7-0.3-0.8-0.6c-0.2-0.3-0.3-0.6-0.3-1.1h1c0,0.3,0,0.5,0.1,0.6c0.1,0.1,0.3,0.3,0.5,0.3
			s0.6,0.1,1.1,0.1c0.7,0,1.1-0.1,1.4-0.2c0.3-0.2,0.4-0.4,0.4-0.7c0-0.3-0.1-0.5-0.3-0.7c-0.2-0.2-0.5-0.2-0.9-0.2h-1
			c-0.5,0-0.9-0.1-1.2-0.3c-0.3-0.2-0.4-0.5-0.4-0.9c0-0.2,0.1-0.4,0.2-0.6c0.1-0.2,0.3-0.4,0.5-0.5c-0.4-0.2-0.6-0.4-0.8-0.7
			c-0.2-0.3-0.3-0.6-0.3-1c0-0.4,0.1-0.8,0.3-1.1s0.5-0.6,0.9-0.8c0.4-0.2,0.8-0.3,1.2-0.3c0.5,0,0.9,0,1.2-0.1
			c0.3,0,0.6-0.1,0.8-0.2s0.5-0.2,0.8-0.3L110.5,593.3z M106.3,594c-0.2,0.3-0.3,0.6-0.3,1c0,0.4,0.1,0.8,0.3,1s0.6,0.4,1,0.4
			c0.4,0,0.8-0.1,1-0.4s0.3-0.6,0.3-1.1c0-0.9-0.5-1.4-1.4-1.4C106.8,593.7,106.5,593.8,106.3,594z"/>
		<path class="st1" d="M116.4,593.4c0.3,0.3,0.5,0.8,0.5,1.4v4.5h-1.1v-4.4c0-0.4-0.1-0.8-0.3-0.9c-0.2-0.2-0.4-0.3-0.8-0.3
			s-0.6,0.1-0.9,0.3c-0.3,0.2-0.5,0.5-0.7,0.8v4.5h-1.1v-8.9l1.1-0.1v3.5c0.5-0.7,1.1-1,1.9-1C115.6,592.9,116.1,593,116.4,593.4z"
			/>
		<path class="st1" d="M122.8,599c-0.4,0.3-0.9,0.4-1.4,0.4c-0.5,0-1-0.2-1.3-0.5c-0.3-0.3-0.5-0.8-0.5-1.3v-3.8h-1.1V593h1.1v-1.4
			l1.1-0.1v1.6h1.5l-0.1,0.9h-1.4v3.8c0,0.3,0.1,0.6,0.2,0.7c0.1,0.1,0.3,0.2,0.6,0.2c0.2,0,0.5-0.1,0.8-0.3L122.8,599z"/>
	</g>
	<g>
		<path class="st1" d="M85.8,522.2c0.4,0.2,0.8,0.4,1.1,0.7l-0.6,0.7c-0.3-0.2-0.6-0.4-0.9-0.5c-0.3-0.1-0.6-0.2-1-0.2
			c-0.4,0-0.8,0.1-1.1,0.3c-0.3,0.2-0.4,0.5-0.4,0.9c0,0.2,0,0.4,0.1,0.6c0.1,0.2,0.3,0.3,0.5,0.5c0.3,0.1,0.6,0.3,1.1,0.4
			c0.5,0.2,1,0.3,1.3,0.5c0.3,0.2,0.6,0.4,0.8,0.8c0.2,0.3,0.3,0.7,0.3,1.2c0,0.5-0.1,0.9-0.4,1.3c-0.2,0.4-0.6,0.7-1,0.9
			s-1,0.3-1.6,0.3c-1.1,0-2.1-0.4-2.8-1.1l0.6-0.7c0.3,0.3,0.7,0.5,1,0.6c0.3,0.1,0.7,0.2,1.2,0.2c0.5,0,0.9-0.1,1.3-0.4
			s0.5-0.6,0.5-1.1c0-0.3-0.1-0.5-0.2-0.7c-0.1-0.2-0.3-0.3-0.5-0.5c-0.3-0.1-0.6-0.3-1.1-0.4c-0.8-0.3-1.5-0.6-1.9-0.9
			c-0.4-0.4-0.6-0.8-0.6-1.5c0-0.4,0.1-0.8,0.3-1.1c0.2-0.3,0.5-0.6,0.9-0.8c0.4-0.2,0.8-0.3,1.4-0.3C85,522,85.4,522.1,85.8,522.2z
			"/>
		<path class="st1" d="M93.8,524.8c0.5,0.6,0.7,1.4,0.7,2.4c0,0.7-0.1,1.2-0.3,1.7c-0.2,0.5-0.5,0.9-1,1.2c-0.4,0.3-0.9,0.4-1.5,0.4
			c-0.9,0-1.6-0.3-2.1-0.9c-0.5-0.6-0.7-1.4-0.7-2.4c0-0.7,0.1-1.2,0.3-1.7c0.2-0.5,0.5-0.9,1-1.2c0.4-0.3,0.9-0.4,1.5-0.4
			C92.6,523.9,93.3,524.2,93.8,524.8z M90.1,527.2c0,1.6,0.5,2.4,1.6,2.4s1.6-0.8,1.6-2.4c0-1.6-0.5-2.4-1.6-2.4
			C90.6,524.8,90.1,525.6,90.1,527.2z"/>
		<path class="st1" d="M97.1,530.2c-0.2-0.2-0.4-0.6-0.4-1v-7.6l1.1-0.1v7.7c0,0.2,0,0.3,0.1,0.4s0.2,0.1,0.3,0.1
			c0.2,0,0.3,0,0.4-0.1l0.3,0.8c-0.3,0.1-0.6,0.2-0.9,0.2C97.7,530.5,97.4,530.4,97.1,530.2z"/>
		<path class="st1" d="M105.7,521.5v8.9h-1l-0.1-0.9c-0.2,0.3-0.5,0.6-0.8,0.8s-0.7,0.3-1,0.3c-0.8,0-1.3-0.3-1.8-0.9
			s-0.6-1.4-0.6-2.4c0-0.6,0.1-1.2,0.3-1.7c0.2-0.5,0.5-0.9,0.9-1.2c0.4-0.3,0.8-0.4,1.3-0.4c0.6,0,1.2,0.3,1.7,0.8v-3.3
			L105.7,521.5z M103.9,529.4c0.2-0.2,0.5-0.4,0.7-0.7v-3.1c-0.2-0.3-0.4-0.5-0.7-0.6c-0.2-0.1-0.5-0.2-0.8-0.2
			c-0.5,0-0.9,0.2-1.1,0.6c-0.3,0.4-0.4,1-0.4,1.8c0,0.8,0.1,1.4,0.4,1.8c0.2,0.4,0.6,0.6,1.1,0.6
			C103.3,529.7,103.6,529.6,103.9,529.4z"/>
		<path class="st1" d="M109.5,521.3c0.1,0.1,0.2,0.3,0.2,0.5c0,0.2-0.1,0.4-0.2,0.5c-0.1,0.1-0.3,0.2-0.6,0.2
			c-0.2,0-0.4-0.1-0.6-0.2c-0.1-0.1-0.2-0.3-0.2-0.5c0-0.2,0.1-0.4,0.2-0.5c0.1-0.1,0.3-0.2,0.6-0.2
			C109.2,521,109.4,521.1,109.5,521.3z M109.5,524.1v6.3h-1.1v-6.3H109.5z"/>
		<path class="st1" d="M117,527.6h-4c0,0.7,0.2,1.2,0.5,1.5c0.3,0.3,0.7,0.5,1.2,0.5c0.3,0,0.6,0,0.8-0.1c0.3-0.1,0.5-0.2,0.8-0.4
			l0.5,0.7c-0.7,0.5-1.4,0.8-2.2,0.8c-0.9,0-1.6-0.3-2.1-0.9c-0.5-0.6-0.7-1.4-0.7-2.4c0-0.7,0.1-1.2,0.3-1.7s0.5-0.9,0.9-1.2
			s0.9-0.4,1.4-0.4c0.8,0,1.5,0.3,1.9,0.8c0.4,0.6,0.7,1.3,0.7,2.3C117.1,527.2,117.1,527.4,117,527.6z M116,526.7
			c0-0.6-0.1-1.1-0.4-1.4c-0.2-0.3-0.6-0.5-1.1-0.5c-0.9,0-1.4,0.7-1.5,2L116,526.7L116,526.7z"/>
		<path class="st1" d="M122.7,524l-0.2,1.1c-0.2,0-0.4-0.1-0.6-0.1c-0.4,0-0.7,0.1-0.9,0.4c-0.2,0.3-0.4,0.7-0.6,1.3v3.6h-1.1v-6.3
			h0.9l0.1,1.3c0.2-0.5,0.4-0.8,0.7-1.1c0.3-0.2,0.6-0.4,1-0.4C122.3,523.9,122.5,523.9,122.7,524z"/>
	</g>
	<g>
		<path class="st2" d="M102.3,54.9v-7.3h-6.5v7.3h-2.1V39.4h2.1v6.5h6.5v-6.5h2.1v15.5H102.3z"/>
		<path class="st2" d="M117.1,44.5c0.9,1.1,1.4,2.6,1.4,4.5c0,1.2-0.2,2.3-0.6,3.2c-0.4,0.9-1,1.7-1.8,2.2s-1.7,0.8-2.8,0.8
			c-1.7,0-3-0.6-3.9-1.7c-0.9-1.1-1.4-2.6-1.4-4.5c0-1.2,0.2-2.3,0.6-3.3c0.4-0.9,1-1.7,1.8-2.2c0.8-0.5,1.7-0.8,2.9-0.8
			C114.9,42.8,116.2,43.4,117.1,44.5z M110.2,49c0,3,1,4.5,3.1,4.5s3.1-1.5,3.1-4.5c0-3-1-4.5-3-4.5C111.2,44.5,110.2,46,110.2,49z"
			/>
		<path class="st2" d="M135.5,43.1l-2.7,11.9H130l-2.1-10l-2.1,10H123l-2.8-11.9h2.1l2.1,10.4l2.3-10.4h2.3l2.2,10.4l2.2-10.4H135.5
			z"/>
		<path class="st2" d="M150,54.4c-0.8,0.5-1.7,0.8-2.7,0.8c-1,0-1.8-0.3-2.4-0.9c-0.6-0.6-0.8-1.4-0.8-2.5v-7.2h-2.1v-1.6h2.1v-2.7
			l2.1-0.2v2.9h2.8l-0.2,1.6h-2.6v7.1c0,0.6,0.1,1.1,0.3,1.3c0.2,0.3,0.6,0.4,1.1,0.4c0.5,0,1-0.2,1.6-0.5L150,54.4z"/>
		<path class="st2" d="M160.2,43.8c0.6,0.6,0.9,1.5,0.9,2.7v8.5h-2.1v-8.2c0-0.8-0.2-1.4-0.5-1.8s-0.8-0.5-1.4-0.5
			c-0.6,0-1.2,0.2-1.6,0.5c-0.5,0.4-0.9,0.9-1.3,1.5v8.4h-2.1V38.3l2.1-0.2v6.6c0.9-1.3,2.1-1.9,3.5-1.9
			C158.8,42.8,159.6,43.1,160.2,43.8z"/>
		<path class="st2" d="M174.2,49.7h-7.6c0.1,1.3,0.4,2.3,1,2.9c0.6,0.6,1.3,0.9,2.2,0.9c0.6,0,1.1-0.1,1.6-0.2
			c0.5-0.2,1-0.4,1.5-0.8l0.9,1.2c-1.3,1-2.6,1.5-4.1,1.5c-1.6,0-2.9-0.5-3.9-1.6c-0.9-1.1-1.4-2.6-1.4-4.5c0-1.2,0.2-2.3,0.6-3.3
			c0.4-1,1-1.7,1.7-2.2s1.6-0.8,2.6-0.8c1.6,0,2.8,0.5,3.6,1.6c0.8,1,1.3,2.5,1.3,4.3C174.3,49,174.2,49.4,174.2,49.7z M172.2,48.1
			c0-1.2-0.2-2.1-0.7-2.7c-0.5-0.6-1.2-0.9-2.1-0.9c-1.7,0-2.6,1.2-2.8,3.7h5.6V48.1z"/>
		<path class="st3" d="M191.8,53.2c0.2,0.2,0.4,0.4,0.7,0.5l-0.5,1.4c-0.6-0.1-1.1-0.2-1.5-0.5c-0.4-0.3-0.7-0.7-0.8-1.3
			c-0.8,1.2-2,1.8-3.5,1.8c-1.2,0-2.1-0.3-2.8-1c-0.7-0.7-1-1.5-1-2.6c0-1.3,0.5-2.2,1.4-2.9c0.9-0.7,2.2-1,3.9-1h1.8v-0.9
			c0-0.8-0.2-1.4-0.6-1.8c-0.4-0.4-1-0.5-1.9-0.5c-0.9,0-1.9,0.2-3.2,0.6l-0.5-1.5c1.5-0.5,2.8-0.8,4.1-0.8c1.4,0,2.4,0.3,3.1,1
			c0.7,0.7,1,1.7,1,2.9v5.4C191.5,52.7,191.6,53,191.8,53.2z M189.4,51.8v-2.7h-1.6c-2.2,0-3.3,0.8-3.3,2.4c0,0.7,0.2,1.2,0.5,1.6
			c0.3,0.4,0.9,0.5,1.5,0.5C187.8,53.7,188.8,53,189.4,51.8z"/>
		<path class="st3" d="M204.9,38.3v16.6h-1.8l-0.2-1.6c-0.4,0.6-0.9,1.1-1.5,1.4c-0.6,0.3-1.2,0.5-2,0.5c-1.4,0-2.5-0.6-3.3-1.7
			c-0.8-1.1-1.2-2.6-1.2-4.5c0-1.2,0.2-2.3,0.6-3.2c0.4-0.9,0.9-1.7,1.6-2.2c0.7-0.5,1.5-0.8,2.5-0.8c1.2,0,2.3,0.5,3.2,1.5v-6.2
			L204.9,38.3z M201.6,53.1c0.4-0.3,0.9-0.7,1.3-1.3V46c-0.4-0.5-0.8-0.9-1.2-1.2c-0.4-0.3-0.9-0.4-1.5-0.4c-0.9,0-1.6,0.4-2.1,1.1
			c-0.5,0.8-0.8,1.9-0.8,3.4c0,1.5,0.2,2.7,0.7,3.4s1.1,1.1,2,1.1C200.6,53.6,201.1,53.4,201.6,53.1z"/>
		<path class="st3" d="M217.9,43.1l-4,11.9h-2.5l-4.1-11.9h2.2l3.1,10l3.1-10H217.9z"/>
		<path class="st3" d="M229.1,49.7h-7.6c0.1,1.3,0.4,2.3,1,2.9c0.6,0.6,1.3,0.9,2.2,0.9c0.6,0,1.1-0.1,1.6-0.2s1-0.4,1.5-0.8
			l0.9,1.2c-1.3,1-2.6,1.5-4.1,1.5c-1.6,0-2.9-0.5-3.9-1.6c-0.9-1.1-1.4-2.6-1.4-4.5c0-1.2,0.2-2.3,0.6-3.3c0.4-1,1-1.7,1.7-2.2
			s1.6-0.8,2.6-0.8c1.6,0,2.8,0.5,3.6,1.6s1.3,2.5,1.3,4.3C229.1,49,229.1,49.4,229.1,49.7z M227.1,48.1c0-1.2-0.2-2.1-0.7-2.7
			c-0.5-0.6-1.2-0.9-2.1-0.9c-1.7,0-2.6,1.2-2.8,3.7h5.6V48.1z"/>
		<path class="st3" d="M238.8,43l-0.4,2c-0.4-0.1-0.7-0.1-1-0.1c-0.7,0-1.3,0.3-1.8,0.8c-0.5,0.5-0.8,1.4-1.1,2.5v6.8h-2.1V43.1h1.8
			l0.2,2.4c0.3-0.9,0.7-1.6,1.3-2c0.5-0.5,1.2-0.7,1.9-0.7C238,42.8,238.4,42.9,238.8,43z"/>
		<path class="st3" d="M247.1,54.4c-0.8,0.5-1.7,0.8-2.7,0.8c-1,0-1.8-0.3-2.4-0.9c-0.6-0.6-0.8-1.4-0.8-2.5v-7.2h-2.1v-1.6h2.1
			v-2.7l2.1-0.2v2.9h2.8l-0.2,1.6h-2.6v7.1c0,0.6,0.1,1.1,0.3,1.3c0.2,0.3,0.6,0.4,1.1,0.4c0.5,0,1-0.2,1.6-0.5L247.1,54.4z"/>
		<path class="st3" d="M251.3,37.8c0.3,0.3,0.4,0.6,0.4,1c0,0.4-0.1,0.7-0.4,1c-0.3,0.3-0.6,0.4-1.1,0.4c-0.4,0-0.8-0.1-1-0.4
			c-0.3-0.3-0.4-0.6-0.4-1c0-0.4,0.1-0.7,0.4-1c0.3-0.3,0.6-0.4,1-0.4C250.7,37.4,251,37.5,251.3,37.8z M251.3,43.1v11.9h-2.1V43.1
			H251.3z"/>
		<path class="st3" d="M261,43.2c0.6,0.2,1.3,0.6,1.8,1l-0.9,1.3c-0.5-0.3-1.1-0.6-1.5-0.8c-0.5-0.2-1-0.2-1.5-0.2
			c-0.7,0-1.2,0.1-1.6,0.4c-0.4,0.3-0.6,0.7-0.6,1.1s0.2,0.9,0.6,1.1c0.4,0.3,1,0.5,2,0.8c1.3,0.3,2.3,0.8,3,1.3
			c0.7,0.6,1,1.3,1,2.3c0,1.2-0.5,2.1-1.4,2.7c-0.9,0.6-2,0.9-3.3,0.9c-1.8,0-3.3-0.5-4.5-1.6l1.1-1.3c1,0.8,2.1,1.1,3.3,1.1
			c0.8,0,1.4-0.2,1.9-0.5s0.7-0.8,0.7-1.3c0-0.4-0.1-0.7-0.2-1c-0.2-0.2-0.5-0.5-0.9-0.7c-0.4-0.2-1-0.4-1.8-0.6
			c-1.3-0.3-2.2-0.8-2.7-1.3s-0.8-1.3-0.8-2.1c0-0.6,0.2-1.2,0.6-1.7c0.4-0.5,0.9-0.9,1.5-1.2c0.7-0.3,1.4-0.4,2.2-0.4
			S260.3,42.9,261,43.2z"/>
		<path class="st3" d="M268.1,37.8c0.3,0.3,0.4,0.6,0.4,1c0,0.4-0.1,0.7-0.4,1c-0.3,0.3-0.6,0.4-1.1,0.4c-0.4,0-0.8-0.1-1-0.4
			c-0.3-0.3-0.4-0.6-0.4-1c0-0.4,0.1-0.7,0.4-1c0.3-0.3,0.6-0.4,1-0.4C267.5,37.4,267.9,37.5,268.1,37.8z M268.1,43.1v11.9h-2.1
			V43.1H268.1z"/>
		<path class="st3" d="M280.5,43.8c0.6,0.6,0.9,1.5,0.9,2.7v8.5h-2.1v-8.2c0-0.8-0.2-1.4-0.5-1.8c-0.3-0.3-0.8-0.5-1.4-0.5
			c-0.6,0-1.2,0.2-1.7,0.5c-0.5,0.4-0.9,0.9-1.3,1.6v8.4h-2.1V43.1h1.8l0.2,1.8c0.4-0.6,0.9-1.1,1.6-1.5c0.6-0.4,1.3-0.5,2.1-0.5
			C279.1,42.8,279.9,43.1,280.5,43.8z"/>
		<path class="st3" d="M295.2,43.6c-0.5,0.2-0.9,0.2-1.5,0.3c-0.5,0-1.2,0.1-2,0.1c1.4,0.6,2.1,1.6,2.1,3c0,1.2-0.4,2.2-1.2,2.9
			s-1.9,1.1-3.3,1.1c-0.5,0-1-0.1-1.5-0.2c-0.2,0.1-0.3,0.3-0.4,0.5c-0.1,0.2-0.2,0.4-0.2,0.6c0,0.6,0.5,1,1.6,1h1.9
			c0.8,0,1.5,0.1,2.1,0.4c0.6,0.3,1.1,0.7,1.4,1.2c0.3,0.5,0.5,1.1,0.5,1.7c0,1.2-0.5,2-1.4,2.7s-2.3,0.9-4.1,0.9
			c-1.3,0-2.3-0.1-3-0.4c-0.7-0.3-1.3-0.7-1.6-1.2c-0.3-0.5-0.5-1.2-0.5-2h1.9c0,0.5,0.1,0.9,0.3,1.1c0.2,0.3,0.5,0.5,1,0.6
			c0.5,0.1,1.1,0.2,2,0.2c1.2,0,2.1-0.2,2.7-0.5c0.5-0.3,0.8-0.8,0.8-1.4c0-0.6-0.2-1-0.6-1.3c-0.4-0.3-1-0.4-1.8-0.4h-1.9
			c-1,0-1.8-0.2-2.3-0.6c-0.5-0.4-0.8-1-0.8-1.6c0-0.4,0.1-0.8,0.3-1.1c0.2-0.4,0.5-0.7,1-1c-0.7-0.4-1.2-0.8-1.5-1.3
			s-0.5-1.2-0.5-1.9c0-0.8,0.2-1.5,0.6-2.1c0.4-0.6,0.9-1.1,1.6-1.5c0.7-0.4,1.5-0.5,2.3-0.5c0.9,0,1.7,0,2.3-0.1
			c0.6-0.1,1.2-0.2,1.6-0.3s0.9-0.3,1.5-0.6L295.2,43.6z M287.3,45c-0.4,0.5-0.6,1.1-0.6,1.9c0,0.8,0.2,1.5,0.7,1.9
			c0.4,0.5,1,0.7,1.8,0.7c0.8,0,1.4-0.2,1.9-0.7c0.4-0.5,0.6-1.1,0.6-2c0-1.8-0.8-2.6-2.5-2.6C288.4,44.3,287.7,44.5,287.3,45z"/>
		<path class="st3" d="M309.2,54.4c-0.8,0.5-1.7,0.8-2.7,0.8c-1,0-1.8-0.3-2.4-0.9c-0.6-0.6-0.8-1.4-0.8-2.5v-7.2h-2.1v-1.6h2.1
			v-2.7l2.1-0.2v2.9h2.8l-0.2,1.6h-2.6v7.1c0,0.6,0.1,1.1,0.3,1.3c0.2,0.3,0.6,0.4,1.1,0.4c0.5,0,1-0.2,1.6-0.5L309.2,54.4z"/>
		<path class="st3" d="M319.5,43.8c0.6,0.6,0.9,1.5,0.9,2.7v8.5h-2.1v-8.2c0-0.8-0.2-1.4-0.5-1.8s-0.8-0.5-1.4-0.5
			c-0.6,0-1.2,0.2-1.6,0.5c-0.5,0.4-0.9,0.9-1.3,1.5v8.4h-2.1V38.3l2.1-0.2v6.6c0.9-1.3,2.1-1.9,3.5-1.9
			C318,42.8,318.9,43.1,319.5,43.8z"/>
		<path class="st3" d="M333.5,49.7h-7.6c0.1,1.3,0.4,2.3,1,2.9c0.6,0.6,1.3,0.9,2.2,0.9c0.6,0,1.1-0.1,1.6-0.2s1-0.4,1.5-0.8
			l0.9,1.2c-1.3,1-2.6,1.5-4.1,1.5c-1.6,0-2.9-0.5-3.9-1.6c-0.9-1.1-1.4-2.6-1.4-4.5c0-1.2,0.2-2.3,0.6-3.3c0.4-1,1-1.7,1.7-2.2
			s1.6-0.8,2.6-0.8c1.6,0,2.8,0.5,3.6,1.6s1.3,2.5,1.3,4.3C333.5,49,333.5,49.4,333.5,49.7z M331.5,48.1c0-1.2-0.2-2.1-0.7-2.7
			c-0.5-0.6-1.2-0.9-2.1-0.9c-1.7,0-2.6,1.2-2.8,3.7h5.6V48.1z"/>
		<path class="st3" d="M351,43.8c0.6,0.7,0.9,1.5,0.9,2.6v8.5h-2.1v-8.2c0-1.5-0.6-2.3-1.7-2.3c-0.6,0-1.1,0.2-1.5,0.5
			c-0.4,0.3-0.8,0.9-1.3,1.6v8.4h-2.1v-8.2c0-1.5-0.6-2.3-1.7-2.3c-0.6,0-1.1,0.2-1.5,0.5c-0.4,0.3-0.8,0.9-1.3,1.6v8.4h-2.1V43.1
			h1.8l0.2,1.7c0.9-1.3,2-2,3.4-2c0.7,0,1.4,0.2,1.9,0.6c0.5,0.4,0.9,0.9,1.1,1.6c0.5-0.7,1-1.2,1.5-1.6c0.6-0.4,1.2-0.6,2-0.6
			C349.7,42.8,350.5,43.1,351,43.8z"/>
		<path class="st3" d="M365,49.7h-7.6c0.1,1.3,0.4,2.3,1,2.9c0.6,0.6,1.3,0.9,2.2,0.9c0.6,0,1.1-0.1,1.6-0.2s1-0.4,1.5-0.8l0.9,1.2
			c-1.3,1-2.6,1.5-4.1,1.5c-1.6,0-2.9-0.5-3.9-1.6c-0.9-1.1-1.4-2.6-1.4-4.5c0-1.2,0.2-2.3,0.6-3.3c0.4-1,1-1.7,1.7-2.2
			s1.6-0.8,2.6-0.8c1.6,0,2.8,0.5,3.6,1.6s1.3,2.5,1.3,4.3C365,49,365,49.4,365,49.7z M363,48.1c0-1.2-0.2-2.1-0.7-2.7
			c-0.5-0.6-1.2-0.9-2.1-0.9c-1.7,0-2.6,1.2-2.8,3.7h5.6V48.1z"/>
		<path class="st3" d="M373.7,43.2c0.6,0.2,1.3,0.6,1.8,1l-0.9,1.3c-0.5-0.3-1.1-0.6-1.5-0.8c-0.5-0.2-1-0.2-1.5-0.2
			c-0.7,0-1.2,0.1-1.6,0.4c-0.4,0.3-0.6,0.7-0.6,1.1s0.2,0.9,0.6,1.1c0.4,0.3,1,0.5,2,0.8c1.3,0.3,2.3,0.8,3,1.3
			c0.7,0.6,1,1.3,1,2.3c0,1.2-0.5,2.1-1.4,2.7c-0.9,0.6-2,0.9-3.3,0.9c-1.8,0-3.3-0.5-4.5-1.6l1.1-1.3c1,0.8,2.1,1.1,3.3,1.1
			c0.8,0,1.4-0.2,1.9-0.5s0.7-0.8,0.7-1.3c0-0.4-0.1-0.7-0.2-1c-0.2-0.2-0.5-0.5-0.9-0.7c-0.4-0.2-1-0.4-1.8-0.6
			c-1.3-0.3-2.2-0.8-2.7-1.3s-0.8-1.3-0.8-2.1c0-0.6,0.2-1.2,0.6-1.7c0.4-0.5,0.9-0.9,1.5-1.2c0.7-0.3,1.4-0.4,2.2-0.4
			S373.1,42.9,373.7,43.2z"/>
		<path class="st2" d="M391,43.1c0.6,0.2,1.1,0.5,1.7,1l-1,1.3c-0.4-0.3-0.8-0.5-1.2-0.7s-0.8-0.2-1.3-0.2c-1,0-1.7,0.4-2.2,1.1
			c-0.5,0.8-0.8,1.9-0.8,3.4s0.3,2.6,0.8,3.3c0.5,0.7,1.3,1.1,2.2,1.1c0.5,0,0.9-0.1,1.3-0.2c0.4-0.1,0.8-0.4,1.3-0.7l0.9,1.3
			c-1.1,0.9-2.3,1.3-3.6,1.3c-1.6,0-2.9-0.5-3.8-1.6c-0.9-1.1-1.4-2.6-1.4-4.5c0-1.3,0.2-2.4,0.6-3.3c0.4-0.9,1-1.7,1.8-2.2
			s1.7-0.8,2.8-0.8C389.8,42.8,390.5,42.9,391,43.1z"/>
		<path class="st2" d="M403.7,43.8c0.6,0.6,0.9,1.5,0.9,2.7v8.5h-2.1v-8.2c0-0.8-0.2-1.4-0.5-1.8s-0.8-0.5-1.4-0.5
			c-0.6,0-1.2,0.2-1.6,0.5c-0.5,0.4-0.9,0.9-1.3,1.5v8.4h-2.1V38.3l2.1-0.2v6.6c0.9-1.3,2.1-1.9,3.5-1.9
			C402.2,42.8,403,43.1,403.7,43.8z"/>
		<path class="st2" d="M417,53.2c0.2,0.2,0.4,0.4,0.7,0.5l-0.5,1.4c-0.6-0.1-1.1-0.2-1.5-0.5c-0.4-0.3-0.7-0.7-0.8-1.3
			c-0.8,1.2-2,1.8-3.5,1.8c-1.2,0-2.1-0.3-2.8-1c-0.7-0.7-1-1.5-1-2.6c0-1.3,0.5-2.2,1.4-2.9s2.2-1,3.9-1h1.8v-0.9
			c0-0.8-0.2-1.4-0.6-1.8c-0.4-0.4-1-0.5-1.9-0.5c-0.9,0-1.9,0.2-3.2,0.6l-0.5-1.5c1.5-0.5,2.8-0.8,4.1-0.8c1.4,0,2.4,0.3,3.1,1
			c0.7,0.7,1,1.7,1,2.9v5.4C416.7,52.7,416.8,53,417,53.2z M414.6,51.8v-2.7h-1.6c-2.2,0-3.3,0.8-3.3,2.4c0,0.7,0.2,1.2,0.5,1.6
			c0.3,0.4,0.9,0.5,1.5,0.5C413,53.7,414,53,414.6,51.8z"/>
		<path class="st2" d="M429.1,43.8c0.6,0.6,0.9,1.5,0.9,2.7v8.5h-2.1v-8.2c0-0.8-0.2-1.4-0.5-1.8c-0.3-0.3-0.8-0.5-1.4-0.5
			c-0.6,0-1.2,0.2-1.7,0.5c-0.5,0.4-0.9,0.9-1.3,1.6v8.4H421V43.1h1.8l0.2,1.8c0.4-0.6,0.9-1.1,1.6-1.5c0.6-0.4,1.3-0.5,2.1-0.5
			C427.6,42.8,428.5,43.1,429.1,43.8z"/>
		<path class="st2" d="M443.7,43.6c-0.5,0.2-0.9,0.2-1.5,0.3c-0.5,0-1.2,0.1-2,0.1c1.4,0.6,2.1,1.6,2.1,3c0,1.2-0.4,2.2-1.2,2.9
			s-1.9,1.1-3.3,1.1c-0.5,0-1-0.1-1.5-0.2c-0.2,0.1-0.3,0.3-0.4,0.5c-0.1,0.2-0.2,0.4-0.2,0.6c0,0.6,0.5,1,1.6,1h1.9
			c0.8,0,1.5,0.1,2.1,0.4c0.6,0.3,1.1,0.7,1.4,1.2c0.3,0.5,0.5,1.1,0.5,1.7c0,1.2-0.5,2-1.4,2.7s-2.3,0.9-4.1,0.9
			c-1.3,0-2.3-0.1-3-0.4c-0.7-0.3-1.3-0.7-1.6-1.2c-0.3-0.5-0.5-1.2-0.5-2h1.9c0,0.5,0.1,0.9,0.3,1.1c0.2,0.3,0.5,0.5,1,0.6
			c0.5,0.1,1.1,0.2,2,0.2c1.2,0,2.1-0.2,2.7-0.5c0.5-0.3,0.8-0.8,0.8-1.4c0-0.6-0.2-1-0.6-1.3c-0.4-0.3-1-0.4-1.8-0.4h-1.9
			c-1,0-1.8-0.2-2.3-0.6c-0.5-0.4-0.8-1-0.8-1.6c0-0.4,0.1-0.8,0.3-1.1c0.2-0.4,0.5-0.7,1-1c-0.7-0.4-1.2-0.8-1.5-1.3
			s-0.5-1.2-0.5-1.9c0-0.8,0.2-1.5,0.6-2.1c0.4-0.6,0.9-1.1,1.6-1.5c0.7-0.4,1.5-0.5,2.3-0.5c0.9,0,1.7,0,2.3-0.1
			c0.6-0.1,1.2-0.2,1.6-0.3s0.9-0.3,1.5-0.6L443.7,43.6z M435.9,45c-0.4,0.5-0.6,1.1-0.6,1.9c0,0.8,0.2,1.5,0.7,1.9
			c0.4,0.5,1,0.7,1.8,0.7c0.8,0,1.4-0.2,1.9-0.7c0.4-0.5,0.6-1.1,0.6-2c0-1.8-0.8-2.6-2.5-2.6C436.9,44.3,436.3,44.5,435.9,45z"/>
		<path class="st2" d="M454.4,49.7h-7.6c0.1,1.3,0.4,2.3,1,2.9c0.6,0.6,1.3,0.9,2.2,0.9c0.6,0,1.1-0.1,1.6-0.2s1-0.4,1.5-0.8
			l0.9,1.2c-1.3,1-2.6,1.5-4.1,1.5c-1.6,0-2.9-0.5-3.9-1.6c-0.9-1.1-1.4-2.6-1.4-4.5c0-1.2,0.2-2.3,0.6-3.3c0.4-1,1-1.7,1.7-2.2
			s1.6-0.8,2.6-0.8c1.6,0,2.8,0.5,3.6,1.6s1.3,2.5,1.3,4.3C454.4,49,454.4,49.4,454.4,49.7z M452.4,48.1c0-1.2-0.2-2.1-0.7-2.7
			c-0.5-0.6-1.2-0.9-2.1-0.9c-1.7,0-2.6,1.2-2.8,3.7h5.6V48.1z"/>
		<path class="st2" d="M466.9,38.3v16.6h-1.8l-0.2-1.6c-0.4,0.6-0.9,1.1-1.5,1.4c-0.6,0.3-1.2,0.5-2,0.5c-1.4,0-2.5-0.6-3.3-1.7
			c-0.8-1.1-1.2-2.6-1.2-4.5c0-1.2,0.2-2.3,0.6-3.2c0.4-0.9,0.9-1.7,1.6-2.2c0.7-0.5,1.5-0.8,2.5-0.8c1.2,0,2.3,0.5,3.2,1.5v-6.2
			L466.9,38.3z M463.5,53.1c0.4-0.3,0.9-0.7,1.3-1.3V46c-0.4-0.5-0.8-0.9-1.2-1.2c-0.4-0.3-0.9-0.4-1.5-0.4c-0.9,0-1.6,0.4-2.1,1.1
			c-0.5,0.8-0.8,1.9-0.8,3.4c0,1.5,0.2,2.7,0.7,3.4s1.1,1.1,2,1.1C462.5,53.6,463.1,53.4,463.5,53.1z"/>
		<path class="st2" d="M483.1,54.4c-0.8,0.5-1.7,0.8-2.7,0.8c-1,0-1.8-0.3-2.4-0.9c-0.6-0.6-0.8-1.4-0.8-2.5v-7.2h-2.1v-1.6h2.1
			v-2.7l2.1-0.2v2.9h2.8l-0.2,1.6h-2.6v7.1c0,0.6,0.1,1.1,0.3,1.3c0.2,0.3,0.6,0.4,1.1,0.4c0.5,0,1-0.2,1.6-0.5L483.1,54.4z"/>
		<path class="st2" d="M493.4,43.8c0.6,0.6,0.9,1.5,0.9,2.7v8.5h-2.1v-8.2c0-0.8-0.2-1.4-0.5-1.8s-0.8-0.5-1.4-0.5
			c-0.6,0-1.2,0.2-1.6,0.5c-0.5,0.4-0.9,0.9-1.3,1.5v8.4h-2.1V38.3l2.1-0.2v6.6c0.9-1.3,2.1-1.9,3.5-1.9
			C491.9,42.8,492.7,43.1,493.4,43.8z"/>
		<path class="st2" d="M504.7,43l-0.4,2c-0.4-0.1-0.7-0.1-1-0.1c-0.7,0-1.3,0.3-1.8,0.8c-0.5,0.5-0.8,1.4-1.1,2.5v6.8h-2.1V43.1h1.8
			l0.2,2.4c0.3-0.9,0.7-1.6,1.3-2c0.5-0.5,1.2-0.7,1.9-0.7C504,42.8,504.4,42.9,504.7,43z"/>
		<path class="st2" d="M514.8,44.5c0.9,1.1,1.4,2.6,1.4,4.5c0,1.2-0.2,2.3-0.6,3.2c-0.4,0.9-1,1.7-1.8,2.2c-0.8,0.5-1.7,0.8-2.8,0.8
			c-1.7,0-3-0.6-3.9-1.7c-0.9-1.1-1.4-2.6-1.4-4.5c0-1.2,0.2-2.3,0.6-3.3c0.4-0.9,1-1.7,1.8-2.2c0.8-0.5,1.7-0.8,2.9-0.8
			C512.6,42.8,513.8,43.4,514.8,44.5z M507.8,49c0,3,1,4.5,3.1,4.5c2,0,3.1-1.5,3.1-4.5c0-3-1-4.5-3-4.5
			C508.8,44.5,507.8,46,507.8,49z"/>
		<path class="st2" d="M528.4,54.9h-1.8l-0.2-1.8c-0.4,0.7-1,1.3-1.6,1.6c-0.6,0.3-1.3,0.5-2.1,0.5c-1,0-1.8-0.3-2.4-0.9
			c-0.6-0.6-0.9-1.5-0.9-2.7v-8.5h2.1v8.3c0,0.8,0.1,1.4,0.4,1.7c0.3,0.3,0.7,0.5,1.4,0.5c1.2,0,2.1-0.7,3-2v-8.5h2.1V54.9z"/>
		<path class="st2" d="M542.2,43.6c-0.5,0.2-0.9,0.2-1.5,0.3c-0.5,0-1.2,0.1-2,0.1c1.4,0.6,2.1,1.6,2.1,3c0,1.2-0.4,2.2-1.2,2.9
			s-1.9,1.1-3.3,1.1c-0.5,0-1-0.1-1.5-0.2c-0.2,0.1-0.3,0.3-0.4,0.5c-0.1,0.2-0.2,0.4-0.2,0.6c0,0.6,0.5,1,1.6,1h1.9
			c0.8,0,1.5,0.1,2.1,0.4c0.6,0.3,1.1,0.7,1.4,1.2c0.3,0.5,0.5,1.1,0.5,1.7c0,1.2-0.5,2-1.4,2.7s-2.3,0.9-4.1,0.9
			c-1.3,0-2.3-0.1-3-0.4c-0.7-0.3-1.3-0.7-1.6-1.2c-0.3-0.5-0.5-1.2-0.5-2h1.9c0,0.5,0.1,0.9,0.3,1.1c0.2,0.3,0.5,0.5,1,0.6
			c0.5,0.1,1.1,0.2,2,0.2c1.2,0,2.1-0.2,2.7-0.5c0.5-0.3,0.8-0.8,0.8-1.4c0-0.6-0.2-1-0.6-1.3c-0.4-0.3-1-0.4-1.8-0.4h-1.9
			c-1,0-1.8-0.2-2.3-0.6c-0.5-0.4-0.8-1-0.8-1.6c0-0.4,0.1-0.8,0.3-1.1c0.2-0.4,0.5-0.7,1-1c-0.7-0.4-1.2-0.8-1.5-1.3
			s-0.5-1.2-0.5-1.9c0-0.8,0.2-1.5,0.6-2.1c0.4-0.6,0.9-1.1,1.6-1.5c0.7-0.4,1.5-0.5,2.3-0.5c0.9,0,1.7,0,2.3-0.1
			c0.6-0.1,1.2-0.2,1.6-0.3s0.9-0.3,1.5-0.6L542.2,43.6z M534.4,45c-0.4,0.5-0.6,1.1-0.6,1.9c0,0.8,0.2,1.5,0.7,1.9
			c0.4,0.5,1,0.7,1.8,0.7c0.8,0,1.4-0.2,1.9-0.7c0.4-0.5,0.6-1.1,0.6-2c0-1.8-0.8-2.6-2.5-2.6C535.4,44.3,534.8,44.5,534.4,45z"/>
		<path class="st2" d="M552.5,43.8c0.6,0.6,0.9,1.5,0.9,2.7v8.5h-2.1v-8.2c0-0.8-0.2-1.4-0.5-1.8s-0.8-0.5-1.4-0.5
			c-0.6,0-1.2,0.2-1.6,0.5c-0.5,0.4-0.9,0.9-1.3,1.5v8.4h-2.1V38.3l2.1-0.2v6.6c0.9-1.3,2.1-1.9,3.5-1.9
			C551,42.8,551.8,43.1,552.5,43.8z"/>
		<path class="st2" d="M569.5,54.4c-0.8,0.5-1.7,0.8-2.7,0.8c-1,0-1.8-0.3-2.4-0.9c-0.6-0.6-0.8-1.4-0.8-2.5v-7.2h-2.1v-1.6h2.1
			v-2.7l2.1-0.2v2.9h2.8l-0.2,1.6h-2.6v7.1c0,0.6,0.1,1.1,0.3,1.3c0.2,0.3,0.6,0.4,1.1,0.4c0.5,0,1-0.2,1.6-0.5L569.5,54.4z"/>
		<path class="st2" d="M573.7,37.8c0.3,0.3,0.4,0.6,0.4,1c0,0.4-0.1,0.7-0.4,1c-0.3,0.3-0.6,0.4-1.1,0.4c-0.4,0-0.8-0.1-1-0.4
			c-0.3-0.3-0.4-0.6-0.4-1c0-0.4,0.1-0.7,0.4-1c0.3-0.3,0.6-0.4,1-0.4C573.1,37.4,573.4,37.5,573.7,37.8z M573.7,43.1v11.9h-2.1
			V43.1H573.7z"/>
		<path class="st2" d="M592.2,43.8c0.6,0.7,0.9,1.5,0.9,2.6v8.5H591v-8.2c0-1.5-0.6-2.3-1.7-2.3c-0.6,0-1.1,0.2-1.5,0.5
			c-0.4,0.3-0.8,0.9-1.3,1.6v8.4h-2.1v-8.2c0-1.5-0.6-2.3-1.7-2.3c-0.6,0-1.1,0.2-1.5,0.5c-0.4,0.3-0.8,0.9-1.3,1.6v8.4h-2.1V43.1
			h1.8l0.2,1.7c0.9-1.3,2-2,3.4-2c0.7,0,1.4,0.2,1.9,0.6c0.5,0.4,0.9,0.9,1.1,1.6c0.5-0.7,1-1.2,1.5-1.6c0.6-0.4,1.2-0.6,2-0.6
			C590.8,42.8,591.6,43.1,592.2,43.8z"/>
		<path class="st2" d="M606.1,49.7h-7.6c0.1,1.3,0.4,2.3,1,2.9c0.6,0.6,1.3,0.9,2.2,0.9c0.6,0,1.1-0.1,1.6-0.2s1-0.4,1.5-0.8
			l0.9,1.2c-1.3,1-2.6,1.5-4.1,1.5c-1.6,0-2.9-0.5-3.9-1.6c-0.9-1.1-1.4-2.6-1.4-4.5c0-1.2,0.2-2.3,0.6-3.3c0.4-1,1-1.7,1.7-2.2
			s1.6-0.8,2.6-0.8c1.6,0,2.8,0.5,3.6,1.6s1.3,2.5,1.3,4.3C606.2,49,606.2,49.4,606.1,49.7z M604.1,48.1c0-1.2-0.2-2.1-0.7-2.7
			c-0.5-0.6-1.2-0.9-2.1-0.9c-1.7,0-2.6,1.2-2.8,3.7h5.6V48.1z"/>
		<path class="st2" d="M614.1,39.7c0.7,0.3,1.1,0.8,1.5,1.3c0.3,0.5,0.5,1.1,0.5,1.7c0,0.6-0.1,1.1-0.3,1.5c-0.2,0.4-0.4,0.7-0.7,1
			c-0.3,0.3-0.7,0.6-1.1,0.9c-0.6,0.4-1.1,0.8-1.4,1.2c-0.3,0.4-0.5,0.9-0.5,1.5v1h-2v-1.1c0-0.6,0.1-1.2,0.3-1.6
			c0.2-0.4,0.5-0.8,0.8-1.1c0.3-0.3,0.7-0.6,1.2-0.9c0.6-0.4,1-0.7,1.3-1c0.3-0.3,0.4-0.7,0.4-1.2c0-0.6-0.2-1.1-0.6-1.4
			c-0.4-0.3-1-0.5-1.7-0.5c-1.2,0-2.2,0.5-3.1,1.6l-1.4-1.1c1.3-1.5,2.8-2.2,4.7-2.2C612.7,39.2,613.5,39.3,614.1,39.7z M612.2,52.5
			c0.3,0.3,0.5,0.7,0.5,1.1c0,0.4-0.2,0.8-0.5,1.1c-0.3,0.3-0.7,0.5-1.1,0.5c-0.4,0-0.8-0.2-1.1-0.5c-0.3-0.3-0.4-0.7-0.4-1.1
			c0-0.4,0.1-0.8,0.4-1.1s0.7-0.5,1.1-0.5C611.5,52.1,611.9,52.2,612.2,52.5z"/>
	</g>
	<g>
		<rect x="1049.3" y="66.8" class="st4" width="11" height="35"/>
		<rect x="1060.3" y="66.8" class="st5" width="11" height="35"/>
		<rect x="1071.3" y="66.8" class="st6" width="11" height="35"/>
		<rect x="1082.3" y="66.8" class="st7" width="11" height="35"/>
		<rect x="1093.3" y="66.8" class="st8" width="11" height="35"/>
		<rect x="1104.3" y="66.8" class="st9" width="11" height="35"/>
		<rect x="1115.3" y="66.8" class="st10" width="11" height="35"/>
		<rect x="1126.3" y="66.8" class="st11" width="11" height="35"/>
		<rect x="1137.3" y="66.8" class="st12" width="11" height="35"/>
		<rect x="1148.3" y="66.8" class="st13" width="11" height="35"/>
	</g>
	<rect x="164.5" y="133.1" class="st4" width="92.5" height="30"/>
	<rect x="263.4" y="133.1" class="st4" width="95" height="30"/>
	<rect x="363.5" y="133.1" class="st4" width="95" height="30"/>
	<rect x="463.6" y="133.1" class="st4" width="95" height="30"/>
	<rect x="563.8" y="133.1" class="st4" width="95" height="30"/>
	<rect x="663.9" y="133.1" class="st11" width="95" height="30"/>
	<rect x="763.4" y="133.1" class="st4" width="95" height="30"/>
	<rect x="862.9" y="133.1" class="st4" width="95" height="30"/>
	<rect x="963.1" y="133.1" class="st7" width="95" height="30"/>
	<rect x="1063.2" y="133.1" class="st5" width="95" height="30"/>
	<rect x="163.2" y="167.5" class="st5" width="95" height="30"/>
	<rect x="263.4" y="167.5" class="st4" width="95" height="30"/>
	<rect x="363.5" y="167.5" class="st6" width="95" height="30"/>
	<rect x="463.6" y="167.5" class="st8" width="95" height="30"/>
	<rect x="563.8" y="167.5" class="st8" width="95" height="30"/>
	<rect x="663.9" y="167.5" class="st6" width="95" height="30"/>
	<rect x="763.4" y="167.5" class="st5" width="95" height="30"/>
	<rect x="862.9" y="167.5" class="st4" width="95" height="30"/>
	<rect x="963.1" y="167.5" class="st6" width="95" height="30"/>
	<rect x="1063.2" y="167.5" class="st4" width="95" height="30"/>
	<rect x="163.2" y="202.2" class="st4" width="95" height="30"/>
	<rect x="263.4" y="202.2" class="st4" width="95" height="30"/>
	<rect x="363.5" y="202.2" class="st5" width="95" height="30"/>
	<rect x="463.6" y="202.2" class="st5" width="95" height="30"/>
	<rect x="563.8" y="202.2" class="st9" width="95" height="30"/>
	<rect x="663.9" y="202.2" class="st6" width="95" height="30"/>
	<rect x="763.4" y="202.2" class="st5" width="95" height="30"/>
	<rect x="862.9" y="202.2" class="st4" width="95" height="30"/>
	<rect x="963.1" y="202.2" class="st10" width="95" height="30"/>
	<rect x="1063.2" y="202.2" class="st5" width="95" height="30"/>
	<rect x="163.2" y="236.7" class="st4" width="95" height="30"/>
	<rect x="263.4" y="236.7" class="st4" width="95" height="30"/>
	<rect x="363.5" y="236.7" class="st5" width="95" height="30"/>
	<rect x="463.6" y="236.7" class="st6" width="95" height="30"/>
	<rect x="563.8" y="236.7" class="st4" width="95" height="30"/>
	<rect x="663.9" y="236.7" class="st4" width="95" height="30"/>
	<rect x="763.4" y="236.7" class="st5" width="95" height="30"/>
	<rect x="862.9" y="236.7" class="st4" width="95" height="30"/>
	<rect x="963.1" y="236.7" class="st7" width="95" height="30"/>
	<rect x="1063.2" y="236.7" class="st4" width="95" height="30"/>
	<rect x="163.2" y="271.2" class="st4" width="95" height="30"/>
	<rect x="263.4" y="271.2" class="st4" width="95" height="30"/>
	<rect x="363.5" y="271.2" class="st4" width="95" height="30"/>
	<rect x="463.6" y="271.2" class="st5" width="95" height="30"/>
	<rect x="563.8" y="271.2" class="st5" width="95" height="30"/>
	<rect x="663.9" y="271.2" class="st6" width="95" height="30"/>
	<rect x="763.4" y="271.2" class="st4" width="95" height="30"/>
	<rect x="862.9" y="271.2" class="st4" width="95" height="30"/>
	<rect x="963.1" y="271.2" class="st13" width="95" height="30"/>
	<rect x="1063.2" y="271.2" class="st6" width="95" height="30"/>
	<rect x="163.2" y="305.6" class="st4" width="95" height="30"/>
	<rect x="263.4" y="305.6" class="st4" width="95" height="30"/>
	<rect x="363.5" y="305.6" class="st4" width="95" height="30"/>
	<rect x="463.6" y="305.6" class="st4" width="95" height="30"/>
	<rect x="563.8" y="305.6" class="st4" width="95" height="30"/>
	<rect x="663.9" y="305.6" class="st7" width="95" height="30"/>
	<rect x="763.4" y="305.6" class="st4" width="95" height="30"/>
	<rect x="862.9" y="305.6" class="st4" width="95" height="30"/>
	<rect x="963.1" y="305.6" class="st6" width="95" height="30"/>
	<rect x="1063.2" y="305.6" class="st4" width="95" height="30"/>
	<rect x="163.2" y="340.1" class="st4" width="95" height="30"/>
	<rect x="263.4" y="340.1" class="st4" width="95" height="30"/>
	<rect x="363.5" y="340.1" class="st4" width="95" height="30"/>
	<rect x="463.6" y="340.1" class="st5" width="95" height="30"/>
	<rect x="563.8" y="340.1" class="st4" width="95" height="30"/>
	<rect x="663.9" y="340.1" class="st10" width="95" height="30"/>
	<rect x="763.4" y="340.1" class="st5" width="95" height="30"/>
	<rect x="862.9" y="340.1" class="st4" width="95" height="30"/>
	<rect x="963.1" y="340.1" class="st12" width="95" height="30"/>
	<rect x="1063.2" y="340.1" class="st7" width="95" height="30"/>
	<rect x="163.2" y="374.6" class="st4" width="95" height="30"/>
	<rect x="263.4" y="374.6" class="st4" width="95" height="30"/>
	<rect x="363.5" y="374.6" class="st5" width="95" height="30"/>
	<rect x="463.6" y="374.6" class="st7" width="95" height="30"/>
	<rect x="563.8" y="374.6" class="st6" width="95" height="30"/>
	<rect x="663.9" y="374.6" class="st4" width="95" height="30"/>
	<rect x="763.4" y="374.6" class="st4" width="95" height="30"/>
	<rect x="862.9" y="374.6" class="st4" width="95" height="30"/>
	<rect x="963.1" y="374.6" class="st12" width="95" height="30"/>
	<rect x="1063.2" y="374.6" class="st7" width="95" height="30"/>
	<rect x="163.2" y="409" class="st5" width="95" height="30"/>
	<rect x="263.4" y="409" class="st4" width="95" height="30"/>
	<rect x="363.5" y="409" class="st4" width="95" height="30"/>
	<rect x="463.6" y="409" class="st6" width="95" height="30"/>
	<rect x="563.8" y="409" class="st6" width="95" height="30"/>
	<rect x="663.9" y="409" class="st4" width="95" height="30"/>
	<rect x="763.4" y="409" class="st4" width="95" height="30"/>
	<rect x="862.9" y="409" class="st4" width="95" height="30"/>
	<rect x="963.1" y="409" class="st6" width="95" height="30"/>
	<rect x="1063.2" y="409" class="st4" width="95" height="30"/>
	<rect x="163.2" y="443.5" class="st4" width="95" height="30"/>
	<rect x="263.4" y="443.5" class="st4" width="95" height="30"/>
	<rect x="363.5" y="443.5" class="st5" width="95" height="30"/>
	<rect x="463.6" y="443.5" class="st8" width="95" height="30"/>
	<rect x="563.8" y="443.5" class="st4" width="95" height="30"/>
	<rect x="663.9" y="443.5" class="st10" width="95" height="30"/>
	<rect x="763.4" y="443.5" class="st4" width="95" height="30"/>
	<rect x="862.9" y="443.5" class="st4" width="95" height="30"/>
	<rect x="963.1" y="443.5" class="st7" width="95" height="30"/>
	<rect x="1063.2" y="443.5" class="st4" width="95" height="30"/>
	<rect x="163.2" y="478" class="st4" width="95" height="30"/>
	<rect x="263.4" y="478" class="st4" width="95" height="30"/>
	<rect x="363.5" y="478" class="st4" width="95" height="30"/>
	<rect x="463.6" y="478" class="st4" width="95" height="30"/>
	<rect x="563.8" y="478" class="st4" width="95" height="30"/>
	<rect x="663.9" y="478" class="st8" width="95" height="30"/>
	<rect x="763.4" y="478" class="st5" width="95" height="30"/>
	<rect x="862.9" y="478" class="st4" width="95" height="30"/>
	<rect x="963.1" y="478" class="st11" width="95" height="30"/>
	<rect x="1063.2" y="478" class="st4" width="95" height="30"/>
	<rect x="163.2" y="512.4" class="st4" width="95" height="30"/>
	<rect x="263.4" y="512.4" class="st4" width="95" height="30"/>
	<rect x="363.5" y="512.4" class="st7" width="95" height="30"/>
	<rect x="463.6" y="512.4" class="st4" width="95" height="30"/>
	<rect x="563.8" y="512.4" class="st4" width="95" height="30"/>
	<rect x="663.9" y="512.4" class="st4" width="95" height="30"/>
	<rect x="763.4" y="512.4" class="st4" width="95" height="30"/>
	<rect x="862.9" y="512.4" class="st4" width="95" height="30"/>
	<rect x="963.1" y="512.4" class="st8" width="95" height="30"/>
	<rect x="1063.2" y="512.4" class="st4" width="95" height="30"/>
	<rect x="163.2" y="546.9" class="st5" width="95" height="30"/>
	<rect x="263.4" y="546.9" class="st4" width="95" height="30"/>
	<rect x="363.5" y="546.9" class="st4" width="95" height="30"/>
	<rect x="463.6" y="546.9" class="st4" width="95" height="30"/>
	<rect x="563.8" y="546.9" class="st6" width="95" height="30"/>
	<rect x="663.9" y="546.9" class="st4" width="95" height="30"/>
	<rect x="763.4" y="546.9" class="st4" width="95" height="30"/>
	<rect x="862.9" y="546.9" class="st4" width="95" height="30"/>
	<rect x="963.1" y="546.9" class="st8" width="95" height="30"/>
	<rect x="1063.2" y="546.9" class="st7" width="95" height="30"/>
	<rect x="163.2" y="581.4" class="st4" width="95" height="30"/>
	<rect x="263.4" y="581.4" class="st4" width="95" height="30"/>
	<rect x="363.5" y="581.4" class="st6" width="95" height="30"/>
	<rect x="463.6" y="581.4" class="st4" width="95" height="30"/>
	<rect x="563.8" y="581.4" class="st5" width="95" height="30"/>
	<rect x="663.9" y="581.4" class="st5" width="95" height="30"/>
	<rect x="763.4" y="581.4" class="st4" width="95" height="30"/>
	<rect x="862.9" y="581.4" class="st4" width="95" height="30"/>
	<rect x="963.1" y="581.4" class="st5" width="95" height="30"/>
	<rect x="1063.2" y="581.4" class="st4" width="95" height="30"/>
	<rect x="163.2" y="615.8" class="st4" width="95" height="30"/>
	<rect x="263.4" y="615.8" class="st4" width="95" height="30"/>
	<rect x="363.5" y="615.8" class="st7" width="95" height="30"/>
	<rect x="463.6" y="615.8" class="st11" width="95" height="30"/>
	<rect x="563.8" y="615.8" class="st10" width="95" height="30"/>
	<rect x="663.9" y="615.8" class="st9" width="95" height="30"/>
	<rect x="763.4" y="615.8" class="st4" width="95" height="30"/>
	<rect x="862.9" y="615.8" class="st4" width="95" height="30"/>
	<rect x="963.1" y="615.8" class="st6" width="95" height="30"/>
	<rect x="1063.2" y="615.8" class="st5" width="95" height="30"/>
	<g>
		<path d="M886.3,87.3h-1.5l-3.4-7c0,0.6,0.1,1.1,0.1,1.5c0,0.5,0,1,0,1.7v3.8h-1.1V79h1.5l3.4,7c0-0.2-0.1-0.6-0.1-1.1
			c0-0.5-0.1-1-0.1-1.4V79h1.1V87.3z"/>
		<path d="M893.8,87.3h-0.9l-0.1-1c-0.2,0.4-0.5,0.7-0.8,0.9c-0.3,0.2-0.7,0.3-1.1,0.3c-0.6,0-1-0.2-1.3-0.5
			c-0.3-0.3-0.5-0.8-0.5-1.4V81h1.1v4.4c0,0.4,0.1,0.7,0.2,0.9c0.2,0.2,0.4,0.3,0.7,0.3c0.6,0,1.1-0.4,1.6-1.1V81h1.1V87.3z"/>
		<path d="M904.2,81.3c0.3,0.3,0.5,0.8,0.5,1.4v4.5h-1.1v-4.4c0-0.8-0.3-1.2-0.9-1.2c-0.3,0-0.6,0.1-0.8,0.3
			c-0.2,0.2-0.4,0.5-0.7,0.8v4.5H900v-4.4c0-0.8-0.3-1.2-0.9-1.2c-0.3,0-0.6,0.1-0.8,0.3s-0.4,0.5-0.7,0.8v4.5h-1.1V81h0.9l0.1,0.9
			c0.5-0.7,1.1-1.1,1.8-1.1c0.4,0,0.7,0.1,1,0.3c0.3,0.2,0.5,0.5,0.6,0.8c0.2-0.4,0.5-0.7,0.8-0.8c0.3-0.2,0.7-0.3,1.1-0.3
			C903.4,80.8,903.8,81,904.2,81.3z"/>
		<path d="M911.9,81.7c0.4,0.6,0.6,1.4,0.6,2.4c0,0.7-0.1,1.2-0.3,1.7s-0.5,0.9-0.9,1.2c-0.4,0.3-0.8,0.4-1.3,0.4
			c-0.7,0-1.2-0.3-1.7-0.8l-0.1,0.7h-1v-8.9l1.1-0.1v3.5c0.5-0.6,1.1-0.9,1.8-0.9C910.9,80.8,911.5,81.1,911.9,81.7z M911,86
			c0.3-0.4,0.4-1,0.4-1.8c0-0.9-0.1-1.5-0.4-1.9c-0.3-0.4-0.6-0.6-1.1-0.6c-0.6,0-1.1,0.3-1.5,1v3c0.2,0.3,0.4,0.5,0.6,0.6
			c0.2,0.2,0.5,0.2,0.8,0.2C910.3,86.6,910.7,86.4,911,86z"/>
		<path d="M919.7,84.5h-4c0,0.7,0.2,1.2,0.5,1.5c0.3,0.3,0.7,0.5,1.2,0.5c0.3,0,0.6,0,0.8-0.1c0.3-0.1,0.5-0.2,0.8-0.4l0.5,0.7
			c-0.7,0.5-1.4,0.8-2.2,0.8c-0.9,0-1.6-0.3-2.1-0.9c-0.5-0.6-0.7-1.4-0.7-2.4c0-0.7,0.1-1.2,0.3-1.7c0.2-0.5,0.5-0.9,0.9-1.2
			c0.4-0.3,0.9-0.4,1.4-0.4c0.8,0,1.5,0.3,1.9,0.8c0.4,0.6,0.7,1.3,0.7,2.3C919.7,84.1,919.7,84.3,919.7,84.5z M918.6,83.6
			c0-0.6-0.1-1.1-0.4-1.4c-0.2-0.3-0.6-0.5-1.1-0.5c-0.9,0-1.4,0.7-1.5,2L918.6,83.6L918.6,83.6z"/>
		<path d="M925.3,80.9l-0.2,1.1c-0.2,0-0.4-0.1-0.6-0.1c-0.4,0-0.7,0.1-0.9,0.4c-0.2,0.3-0.4,0.7-0.6,1.3v3.6H922V81h0.9l0.1,1.3
			c0.2-0.5,0.4-0.8,0.7-1.1s0.6-0.4,1-0.4C924.9,80.8,925.1,80.8,925.3,80.9z"/>
		<path d="M935.2,81.7c0.5,0.6,0.7,1.4,0.7,2.4c0,0.7-0.1,1.2-0.3,1.7c-0.2,0.5-0.5,0.9-1,1.2c-0.4,0.3-0.9,0.4-1.5,0.4
			c-0.9,0-1.6-0.3-2.1-0.9s-0.7-1.4-0.7-2.4c0-0.7,0.1-1.2,0.3-1.7c0.2-0.5,0.5-0.9,1-1.2c0.4-0.3,0.9-0.4,1.5-0.4
			C934,80.8,934.7,81.1,935.2,81.7z M931.5,84.1c0,1.6,0.5,2.4,1.6,2.4s1.6-0.8,1.6-2.4c0-1.6-0.5-2.4-1.6-2.4
			C932,81.7,931.5,82.5,931.5,84.1z"/>
		<path d="M939.6,79.4c-0.1,0.1-0.2,0.4-0.2,0.7V81h1.5l-0.1,0.9h-1.4v5.5h-1.1v-5.5h-1.1V81h1.1v-0.9c0-0.5,0.2-1,0.5-1.3
			c0.3-0.3,0.8-0.5,1.5-0.5c0.3,0,0.5,0,0.8,0.1c0.2,0.1,0.5,0.1,0.7,0.2l-0.3,0.8c-0.4-0.2-0.7-0.2-1.1-0.2
			C940,79.2,939.8,79.3,939.6,79.4z"/>
		<path d="M950.8,86.4c0.1,0.1,0.2,0.2,0.4,0.3l-0.3,0.8c-0.3,0-0.6-0.1-0.8-0.3c-0.2-0.1-0.3-0.4-0.4-0.7c-0.4,0.6-1.1,0.9-1.9,0.9
			c-0.6,0-1.1-0.2-1.5-0.5c-0.4-0.4-0.5-0.8-0.5-1.4c0-0.7,0.2-1.2,0.7-1.5c0.5-0.4,1.2-0.5,2.1-0.5h1V83c0-0.4-0.1-0.8-0.3-1
			c-0.2-0.2-0.5-0.3-1-0.3c-0.5,0-1,0.1-1.7,0.3l-0.3-0.8c0.8-0.3,1.5-0.4,2.2-0.4c0.7,0,1.3,0.2,1.7,0.5c0.4,0.4,0.6,0.9,0.6,1.6
			v2.9C950.6,86.1,950.7,86.3,950.8,86.4z M949.5,85.6v-1.5h-0.8c-1.2,0-1.8,0.4-1.8,1.3c0,0.4,0.1,0.7,0.3,0.9
			c0.2,0.2,0.5,0.3,0.8,0.3C948.7,86.6,949.2,86.3,949.5,85.6z"/>
		<path d="M958.3,78.4v8.9h-1l-0.1-0.9c-0.2,0.3-0.5,0.6-0.8,0.8c-0.3,0.2-0.7,0.3-1,0.3c-0.8,0-1.3-0.3-1.8-0.9s-0.6-1.4-0.6-2.4
			c0-0.6,0.1-1.2,0.3-1.7s0.5-0.9,0.9-1.2s0.8-0.4,1.3-0.4c0.6,0,1.2,0.3,1.7,0.8v-3.3L958.3,78.4z M956.5,86.3
			c0.2-0.2,0.5-0.4,0.7-0.7v-3.1c-0.2-0.3-0.4-0.5-0.7-0.6c-0.2-0.1-0.5-0.2-0.8-0.2c-0.5,0-0.9,0.2-1.1,0.6c-0.3,0.4-0.4,1-0.4,1.8
			c0,0.8,0.1,1.4,0.4,1.8s0.6,0.6,1.1,0.6C955.9,86.6,956.2,86.5,956.5,86.3z"/>
		<path d="M965.7,81l-2.1,6.3h-1.3L960,81h1.2l1.7,5.3l1.6-5.3H965.7z"/>
		<path d="M972.1,84.5h-4c0,0.7,0.2,1.2,0.5,1.5c0.3,0.3,0.7,0.5,1.2,0.5c0.3,0,0.6,0,0.8-0.1c0.3-0.1,0.5-0.2,0.8-0.4l0.5,0.7
			c-0.7,0.5-1.4,0.8-2.2,0.8c-0.9,0-1.6-0.3-2.1-0.9c-0.5-0.6-0.7-1.4-0.7-2.4c0-0.7,0.1-1.2,0.3-1.7c0.2-0.5,0.5-0.9,0.9-1.2
			c0.4-0.3,0.9-0.4,1.4-0.4c0.8,0,1.5,0.3,1.9,0.8c0.4,0.6,0.7,1.3,0.7,2.3C972.1,84.1,972.1,84.3,972.1,84.5z M971.1,83.6
			c0-0.6-0.1-1.1-0.4-1.4c-0.2-0.3-0.6-0.5-1.1-0.5c-0.9,0-1.4,0.7-1.5,2L971.1,83.6L971.1,83.6z"/>
		<path d="M977.8,80.9l-0.2,1.1c-0.2,0-0.4-0.1-0.6-0.1c-0.4,0-0.7,0.1-0.9,0.4c-0.2,0.3-0.4,0.7-0.6,1.3v3.6h-1.1V81h0.9l0.1,1.3
			c0.2-0.5,0.4-0.8,0.7-1.1s0.6-0.4,1-0.4C977.4,80.8,977.6,80.8,977.8,80.9z"/>
		<path d="M982.7,87c-0.4,0.3-0.9,0.4-1.4,0.4c-0.5,0-1-0.2-1.3-0.5c-0.3-0.3-0.5-0.8-0.5-1.3v-3.8h-1.1V81h1.1v-1.4l1.1-0.1V81h1.5
			l-0.1,0.9h-1.4v3.8c0,0.3,0.1,0.6,0.2,0.7c0.1,0.1,0.3,0.2,0.6,0.2c0.2,0,0.5-0.1,0.8-0.3L982.7,87z"/>
		<path d="M985.4,78.1c0.1,0.1,0.2,0.3,0.2,0.5s-0.1,0.4-0.2,0.5c-0.1,0.1-0.3,0.2-0.6,0.2c-0.2,0-0.4-0.1-0.6-0.2
			c-0.1-0.1-0.2-0.3-0.2-0.5s0.1-0.4,0.2-0.5c0.1-0.1,0.3-0.2,0.6-0.2C985.1,77.9,985.3,78,985.4,78.1z M985.4,81v6.3h-1.1V81H985.4
			z"/>
		<path d="M991.1,81c0.3,0.1,0.7,0.3,1,0.5l-0.5,0.7c-0.3-0.2-0.6-0.3-0.8-0.4s-0.5-0.1-0.8-0.1c-0.4,0-0.6,0.1-0.9,0.2
			s-0.3,0.3-0.3,0.6c0,0.3,0.1,0.5,0.3,0.6c0.2,0.1,0.5,0.3,1.1,0.4c0.7,0.2,1.2,0.4,1.6,0.7c0.3,0.3,0.5,0.7,0.5,1.2
			c0,0.6-0.2,1.1-0.7,1.4c-0.5,0.3-1.1,0.5-1.8,0.5c-1,0-1.8-0.3-2.4-0.8l0.6-0.7c0.5,0.4,1.1,0.6,1.8,0.6c0.4,0,0.7-0.1,1-0.3
			c0.2-0.2,0.4-0.4,0.4-0.7c0-0.2,0-0.4-0.1-0.5s-0.2-0.2-0.5-0.3c-0.2-0.1-0.5-0.2-0.9-0.3c-0.7-0.2-1.2-0.4-1.5-0.7
			c-0.3-0.3-0.5-0.7-0.5-1.1c0-0.3,0.1-0.6,0.3-0.9c0.2-0.3,0.5-0.5,0.8-0.6c0.3-0.1,0.7-0.2,1.2-0.2
			C990.3,80.8,990.7,80.9,991.1,81z"/>
		<path d="M1001.9,81.3c0.3,0.3,0.5,0.8,0.5,1.4v4.5h-1.1v-4.4c0-0.8-0.3-1.2-0.9-1.2c-0.3,0-0.6,0.1-0.8,0.3
			c-0.2,0.2-0.4,0.5-0.7,0.8v4.5h-1.1v-4.4c0-0.8-0.3-1.2-0.9-1.2c-0.3,0-0.6,0.1-0.8,0.3s-0.4,0.5-0.7,0.8v4.5h-1.1V81h0.9l0.1,0.9
			c0.5-0.7,1.1-1.1,1.8-1.1c0.4,0,0.7,0.1,1,0.3c0.3,0.2,0.5,0.5,0.6,0.8c0.2-0.4,0.5-0.7,0.8-0.8c0.3-0.2,0.7-0.3,1.1-0.3
			C1001.1,80.8,1001.5,81,1001.9,81.3z"/>
		<path d="M1009.8,84.5h-4c0,0.7,0.2,1.2,0.5,1.5c0.3,0.3,0.7,0.5,1.2,0.5c0.3,0,0.6,0,0.8-0.1c0.3-0.1,0.5-0.2,0.8-0.4l0.5,0.7
			c-0.7,0.5-1.4,0.8-2.2,0.8c-0.9,0-1.6-0.3-2.1-0.9c-0.5-0.6-0.7-1.4-0.7-2.4c0-0.7,0.1-1.2,0.3-1.7c0.2-0.5,0.5-0.9,0.9-1.2
			c0.4-0.3,0.9-0.4,1.4-0.4c0.8,0,1.5,0.3,1.9,0.8c0.4,0.6,0.7,1.3,0.7,2.3C1009.8,84.1,1009.8,84.3,1009.8,84.5z M1008.7,83.6
			c0-0.6-0.1-1.1-0.4-1.4c-0.2-0.3-0.6-0.5-1.1-0.5c-0.9,0-1.4,0.7-1.5,2L1008.7,83.6L1008.7,83.6z"/>
		<path d="M1016.4,81.3c0.3,0.3,0.5,0.8,0.5,1.4v4.5h-1.1v-4.4c0-0.4-0.1-0.8-0.3-0.9s-0.4-0.3-0.7-0.3c-0.3,0-0.6,0.1-0.9,0.3
			c-0.3,0.2-0.5,0.5-0.7,0.8v4.5h-1.1V81h0.9l0.1,0.9c0.2-0.3,0.5-0.6,0.8-0.8c0.3-0.2,0.7-0.3,1.1-0.3
			C1015.6,80.8,1016,81,1016.4,81.3z"/>
		<path d="M1022.8,87c-0.4,0.3-0.9,0.4-1.4,0.4c-0.5,0-1-0.2-1.3-0.5c-0.3-0.3-0.5-0.8-0.5-1.3v-3.8h-1.1V81h1.1v-1.4l1.1-0.1V81
			h1.5l-0.1,0.9h-1.4v3.8c0,0.3,0.1,0.6,0.2,0.7c0.1,0.1,0.3,0.2,0.6,0.2c0.2,0,0.5-0.1,0.8-0.3L1022.8,87z"/>
	</g>
	<g>
		<path d="M1049,51.8c0.5,0.7,0.7,1.7,0.7,3.1c0,1.3-0.2,2.4-0.7,3.1c-0.5,0.7-1.1,1.1-2,1.1c-0.9,0-1.6-0.4-2-1.1s-0.7-1.7-0.7-3.1
			c0-1.3,0.2-2.4,0.7-3.1s1.1-1.1,2-1.1C1047.8,50.7,1048.5,51.1,1049,51.8z M1045.8,52.3c-0.3,0.5-0.4,1.3-0.4,2.5
			c0,1.2,0.1,2,0.4,2.5c0.3,0.5,0.6,0.8,1.2,0.8c0.5,0,0.9-0.3,1.2-0.8c0.3-0.5,0.4-1.4,0.4-2.5c0-1.1-0.1-2-0.4-2.5
			s-0.6-0.8-1.2-0.8C1046.4,51.6,1046.1,51.8,1045.8,52.3z"/>
	</g>
	<g>
		<path d="M1157.5,50.8v8h-1.1V52l-1.9,1.1l-0.5-0.8l2.5-1.5H1157.5z"/>
		<path d="M1164.6,51.8c0.5,0.7,0.7,1.7,0.7,3.1c0,1.3-0.2,2.4-0.7,3.1c-0.5,0.7-1.1,1.1-2,1.1c-0.9,0-1.6-0.4-2-1.1
			s-0.7-1.7-0.7-3.1c0-1.3,0.2-2.4,0.7-3.1s1.1-1.1,2-1.1C1163.5,50.7,1164.2,51.1,1164.6,51.8z M1161.5,52.3
			c-0.3,0.5-0.4,1.3-0.4,2.5c0,1.2,0.1,2,0.4,2.5c0.3,0.5,0.6,0.8,1.2,0.8c0.5,0,0.9-0.3,1.2-0.8c0.3-0.5,0.4-1.4,0.4-2.5
			c0-1.1-0.1-2-0.4-2.5s-0.6-0.8-1.2-0.8C1162.1,51.6,1161.7,51.8,1161.5,52.3z"/>
	</g>
</g>
</svg>
