<svg xmlns="http://www.w3.org/2000/svg" xmlns:xlink="http://www.w3.org/1999/xlink" viewBox="0 0 1920 1080"><defs><style>.cls-1,.cls-16,.cls-17,.cls-18,.cls-19,.cls-20{fill:none;}.cls-2{fill:#fff;}.cls-3{fill:#6e82b2;}.cls-4,.cls-9{font-size:16.77px;}.cls-15,.cls-4,.cls-9{fill:#231815;}.cls-15,.cls-23,.cls-26,.cls-30,.cls-31,.cls-34,.cls-4,.cls-44,.cls-48,.cls-9{font-family:Comfortaa-Bold, Comfortaa;font-weight:700;}.cls-12,.cls-4{letter-spacing:0em;}.cls-5{fill:#c03f33;}.cls-6{letter-spacing:-0.03em;}.cls-7,.cls-9{letter-spacing:0em;}.cls-8{fill:#22307d;}.cls-10{fill:#e7dfb8;}.cls-11{letter-spacing:-0.02em;}.cls-13{fill:#d99155;}.cls-14{fill:#3b64a7;}.cls-15{font-size:28.74px;}.cls-16{stroke:#a23f43;stroke-width:0.9px;}.cls-16,.cls-17,.cls-18,.cls-19,.cls-20,.cls-25,.cls-43{stroke-miterlimit:10;}.cls-17{stroke:#c03f33;}.cls-17,.cls-18,.cls-19,.cls-20{stroke-width:15.74px;}.cls-18{stroke:#22307d;}.cls-19{stroke:#e7dfb8;}.cls-20{stroke:#d99155;}.cls-21{letter-spacing:-0.03em;}.cls-22{letter-spacing:0em;}.cls-23{font-size:12.59px;}.cls-23,.cls-26,.cls-30,.cls-31,.cls-34{fill:#070002;}.cls-24{letter-spacing:-0.04em;}.cls-25{fill:#1c488b;stroke:#221714;stroke-width:0.89px;}.cls-26{font-size:12.59px;}.cls-27{letter-spacing:-0.04em;}.cls-28{letter-spacing:-0.04em;}.cls-29{letter-spacing:-0.16em;}.cls-30{font-size:10.51px;}.cls-31{font-size:15.43px;}.cls-32{letter-spacing:-0.14em;}.cls-33{letter-spacing:-0.04em;}.cls-34{font-size:20.58px;}.cls-35{letter-spacing:-0.14em;}.cls-36{letter-spacing:-0.05em;}.cls-37{letter-spacing:-0.07em;}.cls-38{letter-spacing:-0.07em;}.cls-39{letter-spacing:-0.04em;}.cls-40{letter-spacing:0em;}.cls-41{letter-spacing:-0.04em;}.cls-42{fill:#ffe117;}.cls-43{stroke:#2a2f88;stroke-width:1.4px;fill:url(#Motivo_nuevo_4);}.cls-44{font-size:48px;}.cls-44,.cls-48{fill:#2a3083;}.cls-45{letter-spacing:-0.02em;}.cls-46{letter-spacing:-0.04em;}.cls-47{letter-spacing:-0.03em;}.cls-48{font-size:24px;}.cls-49{letter-spacing:-0.05em;}.cls-50{letter-spacing:-0.03em;}.cls-51{letter-spacing:0em;}.cls-52{letter-spacing:-0.02em;}.cls-53{letter-spacing:-0.04em;}.cls-54{letter-spacing:-0.02em;}.cls-55{letter-spacing:-0.04em;}</style><pattern id="Motivo_nuevo_4" data-name="Motivo nuevo 4" width="29" height="30" patternTransform="translate(-5 45)" patternUnits="userSpaceOnUse" viewBox="0 0 29 30"><rect class="cls-1" width="29" height="30"/><rect class="cls-2" x="27.5" y="28.5" width="29" height="30"/><rect class="cls-2" x="-1.5" y="28.5" width="29" height="30"/><rect class="cls-2" x="27.5" y="-1.5" width="29" height="30"/><rect class="cls-2" x="-1.5" y="-1.5" width="29" height="30"/><path class="cls-3" d="M16,13.5a3,3,0,1,0-3,3A3,3,0,0,0,16,13.5Z"/><path class="cls-3" d="M30.5,28.5a3,3,0,1,0-3,3A3,3,0,0,0,30.5,28.5Z"/><circle class="cls-3" cx="-1.5" cy="28.5" r="3"/><path class="cls-3" d="M30.5-1.5a3,3,0,0,0-3-3,3,3,0,0,0-3,3,3,3,0,0,0,3,3A3,3,0,0,0,30.5-1.5Z"/><circle class="cls-3" cx="-1.5" cy="-1.5" r="3"/></pattern></defs><title>yuyan</title><g id="图层_2" data-name="图层 2"><g id="图层_1-2" data-name="图层 1"><rect class="cls-2" width="1920" height="1080"/><text class="cls-4" transform="translate(728.69 930.92)">Mandarin Chinese</text><rect class="cls-5" x="706.2" y="915.89" width="19.34" height="19.34"/><text class="cls-4" transform="translate(927.3 930.92)">Ma<tspan class="cls-6" x="27.69" y="0">l</tspan><tspan class="cls-7" x="32.17" y="0">aysian</tspan></text><rect class="cls-8" x="903.8" y="915.89" width="19.34" height="19.34"/><text class="cls-9" transform="translate(1060.22 930.92)">English</text><rect class="cls-10" x="1036.71" y="915.89" width="19.34" height="19.34"/><text class="cls-9" transform="translate(1174.9 930.92)">Dia<tspan class="cls-6" x="29.37" y="0">l</tspan><tspan class="cls-11" x="33.85" y="0">e</tspan><tspan class="cls-12" x="43.88" y="0">ct</tspan></text><rect class="cls-13" x="1152.39" y="915.89" width="19.34" height="19.34"/><path class="cls-14" d="M1141.46,841.82a4.08,4.08,0,1,0-3.87-4.07A4,4,0,0,0,1141.46,841.82Z"/><path class="cls-14" d="M1157.14,841.82a4.07,4.07,0,1,0-3.88-4.07A4,4,0,0,0,1157.14,841.82Z"/><text class="cls-15" transform="translate(610.25 366.25)">Chinese</text><line class="cls-16" x1="735.49" y1="332.28" x2="735.49" y2="833.29"/><line class="cls-17" x1="481.72" y1="399.72" x2="736.1" y2="399.72"/><line class="cls-18" x1="736.1" y1="415.29" x2="749.79" y2="415.29"/><line class="cls-19" x1="736.1" y1="430.65" x2="754.55" y2="430.65"/><line class="cls-20" x1="736.1" y1="446.01" x2="747.11" y2="446.01"/><line class="cls-17" x1="565.31" y1="491.16" x2="734.89" y2="491.16"/><line class="cls-18" x1="806.45" y1="506.77" x2="735.94" y2="506.77"/><line class="cls-20" x1="745.16" y1="538.32" x2="735.94" y2="538.32"/><line class="cls-19" x1="784.13" y1="522.43" x2="735.94" y2="522.43"/><line class="cls-20" x1="738.33" y1="720.62" x2="735.98" y2="720.62"/><line class="cls-17" x1="735.49" y1="673.66" x2="588.51" y2="673.66"/><line class="cls-18" x1="821.99" y1="689.31" x2="735.98" y2="689.31"/><line class="cls-19" x1="798.16" y1="704.93" x2="735.98" y2="704.93"/><line class="cls-20" x1="743.17" y1="809.23" x2="736.03" y2="809.23"/><line class="cls-17" x1="735.74" y1="762.65" x2="498.32" y2="762.65"/><line class="cls-18" x1="755.97" y1="778.1" x2="736.03" y2="778.1"/><line class="cls-19" x1="771.73" y1="793.56" x2="736.03" y2="793.56"/><line class="cls-17" x1="735.94" y1="581.3" x2="628.24" y2="581.3"/><line class="cls-18" x1="843.73" y1="597.17" x2="736.02" y2="597.17"/><line class="cls-19" x1="816.06" y1="612.9" x2="736.02" y2="612.9"/><line class="cls-20" x1="738.11" y1="628.72" x2="736.02" y2="628.72"/><text class="cls-15" transform="translate(1202.91 366.25)">Ma<tspan class="cls-21" x="47.62" y="0">l</tspan><tspan class="cls-22" x="55.38" y="0">ays</tspan></text><text class="cls-23" transform="translate(1134.74 800.7)">1<tspan class="cls-24" x="4.95" y="0">.</tspan><tspan x="7.44" y="0">05%</tspan></text><text class="cls-23" transform="translate(1139.79 816.45)"><tspan class="cls-24">0</tspan><tspan x="6.77" y="0">.79%</tspan></text><line class="cls-18" x1="1473.62" y1="779.54" x2="1181.58" y2="779.54"/><line class="cls-19" x1="1181.58" y1="795.36" x2="1175.78" y2="795.36"/><line class="cls-20" x1="1181.58" y1="811.09" x2="1179.23" y2="811.09"/><line class="cls-25" x1="1181.58" y1="328.35" x2="1181.58" y2="830.83"/><text class="cls-26" transform="translate(1126.81 435.07)">5.44%</text><text class="cls-26" transform="translate(1140.8 401.43)"><tspan class="cls-27">0</tspan><tspan x="6.78" y="0">.82%</tspan></text><text class="cls-26" transform="translate(1136.82 451.04)">5.64</text><line class="cls-18" x1="1444.26" y1="413.45" x2="1182.15" y2="413.45"/><line class="cls-17" x1="1181.02" y1="397.53" x2="1178.58" y2="397.53"/><line class="cls-19" x1="1181.02" y1="429.02" x2="1164.84" y2="429.02"/><line class="cls-20" x1="1181.02" y1="444.77" x2="1164.24" y2="444.77"/><text class="cls-23" transform="translate(1102.81 708.92)">1<tspan class="cls-24" x="4.95" y="0">0</tspan><tspan x="11.72" y="0">.52%</tspan></text><text class="cls-23" transform="translate(1132.17 726.31)">2.58%</text><text class="cls-23" transform="translate(1139.08 676.72)"><tspan class="cls-24">0</tspan><tspan x="6.77" y="0">.85%</tspan></text><line class="cls-18" x1="1438.03" y1="688.85" x2="1182.01" y2="688.85"/><line class="cls-17" x1="1181.1" y1="672.97" x2="1178.66" y2="672.97"/><line class="cls-19" x1="1181.1" y1="704.56" x2="1149.8" y2="704.56"/><line class="cls-20" x1="1181.1" y1="720.27" x2="1173.43" y2="720.27"/><text class="cls-23" transform="translate(1103.57 527.11)">1<tspan class="cls-24" x="4.95" y="0">0</tspan><tspan x="11.72" y="0">.</tspan><tspan class="cls-28" x="14.71" y="0">6</tspan><tspan x="21.52" y="0">7%</tspan></text><text class="cls-23" transform="translate(1118.23 543.4)"><tspan class="cls-29">7</tspan><tspan x="4.87" y="0">.41%</tspan></text><text class="cls-23" transform="translate(1139.08 496.27)">1<tspan class="cls-24" x="4.95" y="0">.</tspan><tspan x="7.44" y="0">08%</tspan></text><line class="cls-18" x1="1422.48" y1="507" x2="1181.97" y2="507"/><line class="cls-17" x1="1181.19" y1="491.31" x2="1177.97" y2="491.31"/><line class="cls-19" x1="1181.19" y1="522.81" x2="1149.44" y2="522.81"/><line class="cls-20" x1="1181.19" y1="538.61" x2="1159.14" y2="538.61"/><text class="cls-26" transform="translate(1102.33 618.61)">14.5%</text><text class="cls-30" transform="translate(1144.93 633.18)">1.47%</text><text class="cls-23" transform="translate(1140.8 585.94)"><tspan class="cls-24">0</tspan><tspan x="6.77" y="0">.63%</tspan></text><line class="cls-18" x1="1430.18" y1="597.75" x2="1182.05" y2="597.75"/><line class="cls-17" x1="1181.12" y1="581.9" x2="1179.25" y2="581.9"/><line class="cls-19" x1="1181.12" y1="613.57" x2="1137.98" y2="613.57"/><line class="cls-20" x1="1181.12" y1="629.29" x2="1175.95" y2="629.29"/><text class="cls-31" transform="translate(922.06 517.96)">Friendship</text><text class="cls-31" transform="translate(920.89 608.81)">Education</text><text class="cls-31" transform="translate(929.9 790.52)">Religion</text><text class="cls-31" transform="translate(916.65 699.66)"><tspan class="cls-32">T</tspan><tspan class="cls-33" x="8.04" y="0">r</tspan><tspan x="14.92" y="0">ansaction</tspan></text><text class="cls-31" transform="translate(935.7 427.11)">Family</text><text class="cls-34" transform="translate(418.71 405.99)">85.5%</text><text class="cls-26" transform="translate(760.03 420.18)">4.6%</text><text class="cls-34" transform="translate(517.02 497.99)">57%</text><text class="cls-34" transform="translate(565.45 587.46)">36.2%</text><text class="cls-34" transform="translate(524.81 681.32)">4<tspan class="cls-35" x="13.44" y="0">9</tspan><tspan x="22.51" y="0">.4%</tspan></text><text class="cls-34" transform="translate(432.67 771)"><tspan class="cls-36">7</tspan><tspan x="10.23" y="0">8</tspan><tspan class="cls-37" x="22.18" y="0">.</tspan><tspan x="25.64" y="0">9%</tspan></text><text class="cls-26" transform="translate(762.53 435.07)">6.2%</text><text class="cls-26" transform="translate(754.55 449.12)">3.7%</text><text class="cls-26" transform="translate(810.19 510.45)">23.7%</text><text class="cls-26" transform="translate(789.88 526.92)">16.2%</text><text class="cls-26" transform="translate(749.79 543.39)">3.1%</text><text class="cls-26" transform="translate(848.05 600.88)">36.2%</text><text class="cls-26" transform="translate(818.8 616.83)">26<tspan class="cls-38" x="14.72" y="0">.</tspan><tspan x="16.84" y="0">9%</tspan></text><text class="cls-26" transform="translate(742.94 633.18)"><tspan class="cls-27">0</tspan><tspan x="6.78" y="0">.7%</tspan></text><text class="cls-26" transform="translate(826.77 692.61)">28<tspan class="cls-38" x="14.72" y="0">.</tspan><tspan x="16.84" y="0">91%</tspan></text><text class="cls-26" transform="translate(802.12 708.98)">2<tspan class="cls-27" x="7.41" y="0">0</tspan><tspan class="cls-38" x="14.18" y="0">.</tspan><tspan x="16.3" y="0">9%</tspan></text><text class="cls-26" transform="translate(742.94 724.6)"><tspan class="cls-27">0</tspan><tspan x="6.78" y="0">.79%</tspan></text><text class="cls-26" transform="translate(762.53 781.59)">6.7%</text><text class="cls-26" transform="translate(776.04 798.98)">12%</text><text class="cls-26" transform="translate(749.79 814.74)">2.4%</text><text class="cls-34" transform="translate(1454.24 418.47)">88.1%</text><text class="cls-34" transform="translate(1431.89 512.16)">8<tspan class="cls-39" x="11.96" y="0">0</tspan><tspan class="cls-40" x="23.03" y="0">.84%</tspan></text><text class="cls-34" transform="translate(1438.02 603.84)">83.4%</text><text class="cls-34" transform="translate(1447.6 694.9)">86<tspan class="cls-41" x="23.91" y="0">.</tspan><tspan x="27.99" y="0">05%</tspan></text><text class="cls-34" transform="translate(1482.19 785.35)">98.16%</text><circle class="cls-42" cx="614.1" cy="111.62" r="36.95"/><circle class="cls-43" cx="592.59" cy="118.98" r="37.33"/><text class="cls-44" transform="translate(672.94 131.66) scale(0.89 1)">Di<tspan class="cls-45" x="52.08" y="0">ff</tspan><tspan x="86.35" y="0">e</tspan><tspan class="cls-46" x="116.16" y="0">r</tspan><tspan x="137.57" y="0">ences in </tspan><tspan class="cls-47" x="360.19" y="0">l</tspan><tspan x="373.15" y="0" xml:space="preserve">anguage  use </tspan></text><text class="cls-48" transform="translate(672.94 209.02)">In terms of the spo<tspan class="cls-49" x="235.56" y="0">k</tspan><tspan x="248.01" y="0">en </tspan><tspan class="cls-50" x="286.32" y="0">l</tspan><tspan class="cls-51" x="292.8" y="0">anguages, di</tspan><tspan class="cls-52" x="455.3" y="0">ff</tspan><tspan x="472.43" y="0">e</tspan><tspan class="cls-53" x="487.34" y="0">r</tspan><tspan x="498.04" y="0">ent ethnic </tspan><tspan x="0" y="36">g</tspan><tspan class="cls-53" x="16.2" y="36">r</tspan><tspan x="26.9" y="36">oups s</tspan><tspan class="cls-49" x="109.44" y="36">k</tspan><tspan class="cls-52" x="121.9" y="36">e</tspan><tspan x="136.32" y="36">ak </tspan><tspan class="cls-54" x="173.21" y="36">v</tspan><tspan x="185.88" y="36">arious </tspan><tspan class="cls-50" x="273.62" y="36">l</tspan><tspan x="280.1" y="36">anguages in di</tspan><tspan class="cls-54" x="467.37" y="36">ff</tspan><tspan x="484.51" y="36">e</tspan><tspan class="cls-55" x="499.41" y="36">r</tspan><tspan class="cls-51" x="510.11" y="36">ent situations.</tspan></text><text></text></g></g></svg>