<svg xmlns="http://www.w3.org/2000/svg" xmlns:xlink="http://www.w3.org/1999/xlink" viewBox="0 0 1920 1080"><defs><style>.cls-1,.cls-38{fill:none;}.cls-2{fill:#fff;}.cls-3{fill:#6e82b2;}.cls-4,.cls-41,.cls-5{fill:#2a3083;}.cls-5{font-size:20px;}.cls-16,.cls-24,.cls-34,.cls-41,.cls-5{font-family:Comfortaa-Bold, Comfortaa;font-weight:700;}.cls-6{letter-spacing:-0.03em;}.cls-7{letter-spacing:0em;}.cls-8{letter-spacing:-0.03em;}.cls-9{letter-spacing:-0.03em;}.cls-10{letter-spacing:-0.02em;}.cls-11{letter-spacing:-0.04em;}.cls-12{letter-spacing:-0.02em;}.cls-13{letter-spacing:-0.02em;}.cls-14{letter-spacing:-0.06em;}.cls-15{letter-spacing:-0.04em;}.cls-16{font-size:17.47px;}.cls-16,.cls-24{fill:#231815;}.cls-17{letter-spacing:-0.03em;}.cls-18,.cls-22{fill:#2a2f88;}.cls-19{fill:#cb3e33;stroke:#cb3e33;}.cls-19,.cls-20,.cls-21,.cls-22,.cls-38,.cls-45{stroke-miterlimit:10;}.cls-19,.cls-20,.cls-21,.cls-22,.cls-38{stroke-width:1.17px;}.cls-20{fill:#f4d82a;stroke:#f4d82a;}.cls-21,.cls-23{fill:#f4c1c4;}.cls-21{stroke:#f4c1c4;}.cls-22,.cls-45{stroke:#2a2f88;}.cls-24{font-size:16.44px;}.cls-25{letter-spacing:-0.04em;}.cls-26{letter-spacing:0em;}.cls-27{letter-spacing:-0.02em;}.cls-28{letter-spacing:-0.03em;}.cls-29{letter-spacing:-0.11em;}.cls-30{letter-spacing:-0.05em;}.cls-31{letter-spacing:-0.03em;}.cls-32{letter-spacing:-0.02em;}.cls-33{fill:#e9d035;}.cls-34{font-size:14.09px;fill:#2e408d;}.cls-35{letter-spacing:-0.14em;}.cls-36{letter-spacing:-0.07em;}.cls-37{letter-spacing:-0.07em;}.cls-38{stroke:#2e408d;}.cls-39{letter-spacing:-0.16em;}.cls-40{letter-spacing:-0.04em;}.cls-41{font-size:48px;}.cls-42{letter-spacing:-0.03em;}.cls-43{letter-spacing:0em;}.cls-44{fill:#ffe117;}.cls-45{stroke-width:1.4px;fill:url(#Motivo_nuevo_4);}</style><pattern id="Motivo_nuevo_4" data-name="Motivo nuevo 4" width="29" height="30" patternTransform="translate(-5 45)" patternUnits="userSpaceOnUse" viewBox="0 0 29 30"><rect class="cls-1" width="29" height="30"/><rect class="cls-2" x="27.5" y="28.5" width="29" height="30"/><rect class="cls-2" x="-1.5" y="28.5" width="29" height="30"/><rect class="cls-2" x="27.5" y="-1.5" width="29" height="30"/><rect class="cls-2" x="-1.5" y="-1.5" width="29" height="30"/><path class="cls-3" d="M16,13.5a3,3,0,1,0-3,3A3,3,0,0,0,16,13.5Z"/><path class="cls-3" d="M30.5,28.5a3,3,0,1,0-3,3A3,3,0,0,0,30.5,28.5Z"/><circle class="cls-3" cx="-1.5" cy="28.5" r="3"/><path class="cls-3" d="M30.5-1.5a3,3,0,0,0-3-3,3,3,0,0,0-3,3,3,3,0,0,0,3,3A3,3,0,0,0,30.5-1.5Z"/><circle class="cls-3" cx="-1.5" cy="-1.5" r="3"/></pattern></defs><title>资源 7</title><g id="图层_2" data-name="图层 2"><g id="图层_1-2" data-name="图层 1"><rect class="cls-2" width="1920" height="1080"/><path class="cls-4" d="M1594.53,326.61a7.82,7.82,0,1,1-7.82-7.82A7.82,7.82,0,0,1,1594.53,326.61Z"/><text class="cls-5" transform="translate(1254.02 297.47)">The chart be<tspan class="cls-6" x="134.42" y="0">lo</tspan><tspan class="cls-7" x="152.72" y="0">w sh</tspan><tspan class="cls-8" x="197.66" y="0">o</tspan><tspan x="210.56" y="0">ws the emp</tspan><tspan class="cls-9" x="327.04" y="0">lo</tspan><tspan x="345.34" y="0">yment situ</tspan><tspan x="453.37" y="0">-</tspan><tspan x="0" y="27">ation of </tspan><tspan class="cls-10" x="87.26" y="27">e</tspan><tspan class="cls-7" x="99.28" y="27">ach ethnic g</tspan><tspan class="cls-11" x="229.48" y="27">r</tspan><tspan x="238.4" y="27">oup in Ma</tspan><tspan class="cls-9" x="344.13" y="27">l</tspan><tspan x="349.53" y="27">aysia in </tspan><tspan x="0" y="54">2008.</tspan><tspan x="0" y="108">Although the p</tspan><tspan class="cls-11" x="155.92" y="108">r</tspan><tspan x="164.84" y="108">oportion of senior manage</tspan><tspan x="446.73" y="108">-</tspan><tspan x="0" y="135">ment of Ma</tspan><tspan class="cls-6" x="118.54" y="135">l</tspan><tspan class="cls-7" x="123.94" y="135">ays has al</tspan><tspan class="cls-11" x="228.32" y="135">r</tspan><tspan class="cls-12" x="237.24" y="135">e</tspan><tspan x="249.26" y="135">ady account</tspan><tspan class="cls-13" x="379.8" y="135">e</tspan><tspan x="391.82" y="135">d </tspan><tspan class="cls-12" x="411.74" y="135">f</tspan><tspan x="418.68" y="135">or </tspan><tspan x="0" y="162">hal</tspan><tspan class="cls-14" x="33.16" y="162">f</tspan><tspan x="39.3" y="162">,but acco</tspan><tspan class="cls-11" x="136.82" y="162">r</tspan><tspan x="145.74" y="162">ding to the p</tspan><tspan class="cls-11" x="280.23" y="162">r</tspan><tspan x="289.15" y="162">oportion of </tspan><tspan x="0" y="189">Ma</tspan><tspan class="cls-6" x="33.14" y="189">l</tspan><tspan class="cls-7" x="38.54" y="189">ays in Ma</tspan><tspan class="cls-6" x="138.22" y="189">l</tspan><tspan x="143.62" y="189">aysia, it’s </tspan><tspan class="cls-9" x="243.6" y="189">l</tspan><tspan x="248.99" y="189">ess than the senior </tspan><tspan x="0" y="216">occupation of Chinese. And the p</tspan><tspan class="cls-11" x="349.33" y="216">r</tspan><tspan x="358.25" y="216">oportion </tspan><tspan x="0" y="243">of unskil</tspan><tspan class="cls-9" x="88.26" y="243">l</tspan><tspan class="cls-10" x="93.66" y="243">e</tspan><tspan x="105.68" y="243">d emp</tspan><tspan class="cls-9" x="170.84" y="243">lo</tspan><tspan class="cls-12" x="189.14" y="243">ye</tspan><tspan x="211.54" y="243">es is mo</tspan><tspan class="cls-15" x="295.7" y="243">r</tspan><tspan x="304.62" y="243">e than th</tspan><tspan class="cls-11" x="399.25" y="243">r</tspan><tspan class="cls-13" x="408.17" y="243">e</tspan><tspan x="420.19" y="243">e </tspan><tspan x="0" y="270">times that of Chinese.</tspan></text><text class="cls-16" transform="translate(1289.72 688.95)">Ma<tspan class="cls-17" x="28.94" y="0">l</tspan><tspan x="33.66" y="0">ay</tspan></text><text class="cls-16" transform="translate(1289.72 736.29)">Chinese</text><text class="cls-16" transform="translate(1290.07 786.57)">Indian</text><text class="cls-16" transform="translate(1290.07 836.42)">Others</text><rect class="cls-18" x="1244.38" y="664.73" width="35.23" height="35.23"/><rect class="cls-19" x="1244.38" y="715.23" width="35.23" height="35.23"/><rect class="cls-20" x="1244.38" y="764.56" width="35.23" height="35.23"/><rect class="cls-21" x="1244.38" y="812.71" width="35.23" height="35.23"/><rect class="cls-22" x="351.37" y="269.84" width="133.17" height="293.48"/><rect class="cls-19" x="351.37" y="563.32" width="133.17" height="234.21"/><rect class="cls-20" x="351.37" y="797.53" width="133.17" height="44.31"/><rect class="cls-23" x="350.78" y="841.84" width="134.34" height="3.45"/><rect class="cls-22" x="580.99" y="269.84" width="133.17" height="375.19"/><rect class="cls-19" x="580.99" y="645.03" width="133.17" height="150.77"/><rect class="cls-20" x="580.99" y="795.8" width="133.17" height="46.61"/><rect class="cls-21" x="580.74" y="843.22" width="133.42" height="2.86"/><rect class="cls-22" x="813.89" y="269.84" width="133.17" height="371.74"/><rect class="cls-19" x="813.89" y="641.58" width="133.17" height="153.64"/><rect class="cls-20" x="813.89" y="795.23" width="133.17" height="43.73"/><rect class="cls-21" x="813.89" y="838.95" width="133.17" height="6.34"/><rect class="cls-22" x="1044.43" y="269.84" width="133.17" height="412.02"/><rect class="cls-19" x="1044.43" y="681.86" width="133.17" height="89.77"/><rect class="cls-20" x="1044.43" y="771.63" width="133.17" height="56.97"/><rect class="cls-21" x="1044.43" y="828.6" width="133.17" height="16.69"/><text class="cls-24" transform="translate(273.18 880.44)">Management&amp;P<tspan class="cls-25" x="136.57" y="0">r</tspan><tspan class="cls-26" x="143.9" y="0">o</tspan><tspan class="cls-27" x="155" y="0">f</tspan><tspan x="160.71" y="0">essional</tspan></text><text class="cls-24" transform="translate(591.55 880.44)">Skil<tspan class="cls-28" x="30.57" y="0">l</tspan><tspan class="cls-27" x="35.01" y="0">e</tspan><tspan x="44.89" y="0">d </tspan><tspan class="cls-29" x="61.26" y="0">W</tspan><tspan x="74.88" y="0">or</tspan><tspan class="cls-30" x="93.97" y="0">k</tspan><tspan x="102.5" y="0">er</tspan></text><text class="cls-24" transform="translate(784.04 879.96)">Semi-skil<tspan class="cls-28" x="76.52" y="0">l</tspan><tspan class="cls-27" x="80.96" y="0">e</tspan><tspan x="90.84" y="0">d </tspan><tspan class="cls-29" x="107.22" y="0">W</tspan><tspan x="120.83" y="0">or</tspan><tspan class="cls-30" x="139.92" y="0">k</tspan><tspan x="148.46" y="0">er</tspan></text><text class="cls-24" transform="translate(1039.73 880.44)">Unskill<tspan class="cls-31" x="58.22" y="0">l</tspan><tspan class="cls-32" x="62.66" y="0">e</tspan><tspan x="72.54" y="0">d </tspan><tspan class="cls-29" x="88.92" y="0">W</tspan><tspan class="cls-26" x="102.53" y="0">or</tspan><tspan class="cls-30" x="121.62" y="0">k</tspan><tspan x="130.16" y="0">er</tspan></text><circle class="cls-33" cx="340.1" cy="274.48" r="3.03"/><text class="cls-34" transform="translate(956.9 277.38)">71.6%</text><text class="cls-34" transform="translate(958.07 689.75)">15.6%</text><text class="cls-34" transform="translate(960.81 776.62)"><tspan class="cls-35">9</tspan><tspan class="cls-36" x="6.22" y="0">.</tspan><tspan x="8.58" y="0">9%</tspan></text><text class="cls-34" transform="translate(960.81 834.58)">2<tspan class="cls-37" x="8.29" y="0">.</tspan><tspan x="10.65" y="0">9%</tspan></text><line class="cls-38" x1="1035.65" y1="273.3" x2="1000.47" y2="273.3"/><line class="cls-38" x1="1036.83" y1="685.26" x2="1001.64" y2="685.26"/><line class="cls-38" x1="1036.83" y1="773.29" x2="1001.64" y2="773.29"/><line class="cls-38" x1="1035.65" y1="829.87" x2="1000.47" y2="829.87"/><circle class="cls-33" cx="1035.65" cy="273.3" r="3.03"/><circle class="cls-33" cx="1036.83" cy="685.26" r="3.03"/><circle class="cls-33" cx="1036.83" cy="773.29" r="3.03"/><circle class="cls-33" cx="1035.65" cy="829.67" r="3.03"/><text class="cls-34" transform="translate(725.39 278.55)">64.6%</text><text class="cls-34" transform="translate(725.39 651.43)">26.7%</text><text class="cls-34" transform="translate(727.74 801.8)"><tspan class="cls-39">7</tspan><tspan x="5.45" y="0">.6%</tspan></text><text class="cls-34" transform="translate(727.74 843.38)">1.1%</text><line class="cls-38" x1="805.88" y1="273.3" x2="770.7" y2="273.3"/><line class="cls-38" x1="802.36" y1="647.12" x2="767.17" y2="647.12"/><line class="cls-38" x1="802.36" y1="796.91" x2="767.17" y2="796.91"/><line class="cls-38" x1="802.36" y1="839.1" x2="767.17" y2="839.1"/><circle class="cls-33" cx="805.88" cy="273.3" r="3.03"/><circle class="cls-33" cx="802.36" cy="647.12" r="3.03"/><circle class="cls-33" cx="802.36" cy="796.91" r="3.03"/><circle class="cls-33" cx="802.36" cy="839.1" r="3.03"/><text class="cls-34" transform="translate(495.79 800.09)">8.1%</text><text class="cls-34" transform="translate(495.79 848.67)"><tspan class="cls-40">0</tspan><tspan x="7.58" y="0">.5%</tspan></text><line class="cls-38" x1="572.46" y1="795.93" x2="537.28" y2="795.93"/><line class="cls-38" x1="570.12" y1="844.24" x2="534.93" y2="844.24"/><text class="cls-34" transform="translate(493.44 278.49)">65.2%</text><line class="cls-38" x1="572.46" y1="273.3" x2="537.28" y2="273.3"/><circle class="cls-33" cx="572.46" cy="273.3" r="3.03"/><text class="cls-34" transform="translate(495.79 652.54)">26.2%</text><line class="cls-38" x1="574.81" y1="646.63" x2="539.63" y2="646.63"/><circle class="cls-33" cx="574.81" cy="646.63" r="3.03"/><circle class="cls-33" cx="572.46" cy="795.93" r="3.03"/><circle class="cls-33" cx="570.12" cy="844.24" r="3.03"/><circle class="cls-33" cx="340.1" cy="564.59" r="3.03"/><text class="cls-34" transform="translate(254.08 847.35)"><tspan class="cls-40">0</tspan><tspan x="7.58" y="0">.6%</tspan></text><line class="cls-38" x1="340.1" y1="843.25" x2="294.32" y2="843.25"/><text class="cls-34" transform="translate(254.08 279.66)">51%</text><line class="cls-38" x1="340.1" y1="274.48" x2="294.32" y2="274.48"/><text class="cls-34" transform="translate(253.73 569.32)">4<tspan class="cls-40" x="9.2" y="0">0</tspan><tspan x="16.79" y="0">.7%</tspan></text><line class="cls-38" x1="340.1" y1="564.59" x2="294.32" y2="564.59"/><text class="cls-34" transform="translate(254.08 804.23)"><tspan class="cls-39">7</tspan><tspan x="5.45" y="0">.7%</tspan></text><line class="cls-38" x1="340.1" y1="798.71" x2="294.32" y2="798.71"/><circle class="cls-33" cx="340.1" cy="798.71" r="3.03"/><circle class="cls-33" cx="340.1" cy="843.25" r="3.03"/><text class="cls-41" transform="translate(1254.28 198.37) scale(0.89 1)">Emp<tspan class="cls-42" x="112.37" y="0">lo</tspan><tspan class="cls-43" x="156.29" y="0">yment</tspan></text><circle class="cls-44" cx="1191.54" cy="180.51" r="36.95"/><circle class="cls-45" cx="1170.04" cy="187.87" r="37.33"/></g></g></svg>