<?xml version="1.0" encoding="utf-8"?>
<!-- Generator: Adobe Illustrator 22.1.0, SVG Export Plug-In . SVG Version: 6.00 Build 0)  -->
<svg version="1.1" id="图层_1" xmlns="http://www.w3.org/2000/svg" xmlns:xlink="http://www.w3.org/1999/xlink" x="0px" y="0px"
	 viewBox="0 0 958 592.2" style="enable-background:new 0 0 958 592.2;" xml:space="preserve">
<style type="text/css">
	.st0{fill:none;}
	.st1{fill:#FFFFFF;}
	.st2{font-family:'Fira Sans', sans-serif; font-weight:500;}
	.st3{font-size:11px;}
	.st4{font-size:10px;}
	.st5{font-family:'Fira Sans', sans-serif; font-weight:300;}
	.st6{font-size:8px;}
	.st7{font-size:9px;}
	.st8{fill:none;stroke:#95C11F;stroke-width:0.75;stroke-miterlimit:10;}
	.st9{fill:#95C11F;}
	.st10{fill:none;stroke:#95C11F;stroke-width:0.75;stroke-miterlimit:10;stroke-dasharray:2;}
	.st11{fill:none;stroke:#999999;stroke-width:0.75;stroke-miterlimit:10;}
	.st12{fill:#FFFFFF;stroke:#95C11F;stroke-width:0.75;stroke-miterlimit:10;}
	.st13{font-family:'Fira Sans', sans-serif; font-weight:400; font-style: italic;}
</style>
<rect x="492" y="9.3" class="st0" width="131" height="9.7"/>
<text transform="matrix(1 0 0 1 530.4426 17.6226)" class="st1 st2 st3">4 QUERIES:</text>
<g>
	<rect x="498.3" y="133.4" class="st0" width="120.4" height="22.8"/>
	<text transform="matrix(1 0 0 1 500.6086 140.9491)"><tspan x="0" y="0" class="st1 st2 st4">scraping </tspan><tspan x="47.7" y="0" class="st1 st5 st4">among the first </tspan><tspan x="5.4" y="12" class="st1 st5 st4">10 results and list them</tspan></text>
</g>
<g>
	<rect x="497.7" y="218.4" class="st0" width="120.4" height="42.8"/>
	<text transform="matrix(1 0 0 1 524.2469 225.8295)"><tspan x="0" y="0" class="st1 st5 st4">for each result,</tspan><tspan x="13.2" y="12" class="st1 st5 st4">list datas </tspan><tspan x="-6" y="24" class="st1 st5 st4">and set relevance</tspan></text>
</g>
<rect x="10" y="58.2" class="st0" width="107.6" height="16.6"/>
<text transform="matrix(1 0 0 1 51.5165 64.2891)"><tspan x="0" y="0" class="st1 st2 st6">Query</tspan><tspan x="-8.2" y="9.6" class="st1 st2 st6">definition</tspan></text>
<g>
	<rect x="10" y="183.9" class="st0" width="103.6" height="21.3"/>
	<text transform="matrix(1 0 0 1 52.3884 189.9392)"><tspan x="0" y="0" class="st1 st2 st6">DATA</tspan><tspan x="-15.7" y="9.6" class="st1 st2 st6">EXPLORATION</tspan></text>
</g>
<g>
	<rect x="9" y="509.1" class="st0" width="103.6" height="22.3"/>
	<text transform="matrix(1 0 0 1 51.3882 515.0934)"><tspan x="0" y="0" class="st1 st2 st6">DATA</tspan><tspan x="-11.3" y="9.6" class="st1 st2 st6">GATHERING</tspan></text>
</g>
<text transform="matrix(1 0 0 1 657.0002 16.2364)"><tspan x="0" y="0" class="st1 st2 st7">YouTube:</tspan><tspan x="0" y="10.8" class="st1 st2 st7">“aguacate carteles”</tspan><tspan x="0" y="21.6" class="st1 st5 st7">lang: SPA</tspan><tspan x="0" y="32.4" class="st1 st5 st7">localization: MEX</tspan><tspan x="0" y="54" class="st1 st2 st7">YouTube:</tspan><tspan x="0" y="64.8" class="st1 st2 st7">“aguacate mafia”</tspan><tspan x="0" y="75.6" class="st1 st5 st7">lang: SPA</tspan><tspan x="0" y="86.4" class="st1 st5 st7">localization: MEX</tspan></text>
<text transform="matrix(1 0 0 1 753.0002 16.2364)"><tspan x="0" y="0" class="st1 st2 st7">Facebook:</tspan><tspan x="0" y="10.8" class="st1 st2 st7">“aguacate carteles”</tspan><tspan x="0" y="21.6" class="st1 st5 st7">lang: SPA</tspan><tspan x="0" y="32.4" class="st1 st5 st7">localization: MEX</tspan><tspan x="0" y="54" class="st1 st2 st7">Facebook:</tspan><tspan x="0" y="64.8" class="st1 st2 st7">“aguacate mafia”</tspan><tspan x="0" y="75.6" class="st1 st5 st7">lang: SPA</tspan><tspan x="0" y="86.4" class="st1 st5 st7">localization: MEX</tspan></text>
<g>
	<g>
		<line class="st8" x1="557.5" y1="42.9" x2="557.5" y2="127.8"/>
		<g>
			<polygon class="st9" points="554.4,125.3 555,124.8 557.5,127.5 560,124.8 560.6,125.3 557.5,128.6 			"/>
		</g>
	</g>
</g>
<line class="st10" x1="591" y1="14.2" x2="651" y2="14.2"/>
<line class="st10" x1="594" y1="233.2" x2="650.5" y2="233.2"/>
<rect x="24.5" y="54" class="st11" width="78.6" height="24.2"/>
<rect x="22.5" y="178.8" class="st11" width="78.6" height="26.8"/>
<rect x="21.5" y="505.2" class="st11" width="78.6" height="24.5"/>
<line class="st11" x1="61.8" y1="78.3" x2="61.8" y2="178.2"/>
<line class="st11" x1="61.8" y1="205.5" x2="61.8" y2="505.2"/>
<circle class="st12" cx="557.5" cy="262.5" r="1.4"/>
<g>
	<rect x="512.3" y="22.4" class="st0" width="96.1" height="19"/>
	<text transform="matrix(1 0 0 1 516.2305 28.4259)"><tspan x="0" y="0" class="st1 st13 st6">Google advanced search</tspan><tspan x="15.8" y="9.6" class="st1 st13 st6">Incognito mode</tspan></text>
	<g>
		<path class="st1" d="M513.9,25.2l-0.5-0.1c-0.1-0.2-0.1-0.4-0.2-0.5l0.3-0.4c0.1-0.2,0.1-0.4-0.1-0.6l-0.5-0.5
			c-0.1-0.1-0.2-0.1-0.3-0.1c-0.1,0-0.2,0-0.3,0.1l-0.4,0.3c-0.2-0.1-0.4-0.2-0.5-0.2l-0.1-0.5c0-0.2-0.2-0.4-0.5-0.4h-0.7
			c-0.2,0-0.4,0.2-0.5,0.4l-0.1,0.5c-0.2,0.1-0.4,0.1-0.5,0.2l-0.4-0.3c-0.1-0.1-0.2-0.1-0.3-0.1c-0.1,0-0.2,0-0.3,0.1l-0.5,0.5
			c-0.2,0.2-0.2,0.4-0.1,0.6l0.3,0.5c-0.1,0.2-0.2,0.3-0.2,0.5l-0.5,0.1c-0.2,0-0.4,0.2-0.4,0.5v0.7c0,0.2,0.2,0.4,0.4,0.5l0.5,0.1
			c0.1,0.2,0.1,0.4,0.2,0.5l-0.3,0.4c-0.1,0.2-0.1,0.4,0.1,0.6L508,29c0.1,0.1,0.2,0.1,0.3,0.1c0.1,0,0.2,0,0.3-0.1l0.5-0.3
			c0.2,0.1,0.3,0.2,0.5,0.2l0.1,0.5c0,0.2,0.2,0.4,0.5,0.4h0.7c0.2,0,0.4-0.2,0.5-0.4l0.1-0.5c0.2-0.1,0.4-0.1,0.5-0.2l0.4,0.3
			c0.1,0.1,0.2,0.1,0.3,0.1c0.1,0,0.2,0,0.3-0.1l0.5-0.5c0.2-0.2,0.2-0.4,0.1-0.6l-0.3-0.4c0.1-0.2,0.2-0.3,0.2-0.5l0.5-0.1
			c0.2,0,0.4-0.2,0.4-0.5v-0.7C514.3,25.4,514.1,25.2,513.9,25.2L513.9,25.2z M513.9,26.3C513.9,26.4,513.9,26.4,513.9,26.3
			l-0.7,0.2c-0.1,0-0.2,0.1-0.2,0.2c-0.1,0.2-0.2,0.5-0.3,0.7c0,0.1,0,0.2,0,0.2l0.4,0.6c0,0,0,0,0,0.1l-0.5,0.5c0,0,0,0,0,0
			c0,0,0,0,0,0l-0.6-0.4c-0.1,0-0.2-0.1-0.2,0c-0.2,0.1-0.4,0.2-0.7,0.3c-0.1,0-0.1,0.1-0.2,0.2l-0.1,0.7c0,0,0,0,0,0h-0.7
			c0,0,0,0,0,0l-0.1-0.7c0-0.1-0.1-0.2-0.2-0.2c-0.2-0.1-0.5-0.2-0.7-0.3c0,0-0.1,0-0.1,0c0,0-0.1,0-0.1,0l-0.6,0.4c0,0,0,0,0,0
			c0,0,0,0,0,0l-0.5-0.5c0,0,0,0,0-0.1l0.4-0.6c0-0.1,0.1-0.2,0-0.2c-0.1-0.2-0.2-0.4-0.3-0.7c0-0.1-0.1-0.1-0.2-0.2l-0.7-0.1
			c0,0,0,0,0,0v-0.7c0,0,0,0,0,0l0.7-0.1c0.1,0,0.2-0.1,0.2-0.2c0.1-0.2,0.2-0.5,0.3-0.7c0-0.1,0-0.2,0-0.2l-0.4-0.6c0,0,0,0,0-0.1
			l0.5-0.5c0,0,0,0,0,0c0,0,0,0,0,0l0.6,0.4c0.1,0,0.2,0.1,0.2,0c0.2-0.1,0.4-0.2,0.7-0.3c0.1,0,0.1-0.1,0.2-0.2l0.1-0.7
			c0,0,0,0,0,0h0.7c0,0,0,0,0,0l0.1,0.7c0,0.1,0.1,0.2,0.2,0.2c0.2,0.1,0.5,0.2,0.7,0.3c0.1,0,0.2,0,0.2,0l0.6-0.4c0,0,0,0,0,0
			c0,0,0,0,0,0l0.5,0.5c0,0,0,0,0,0.1l-0.4,0.6c0,0.1-0.1,0.2,0,0.2c0.1,0.2,0.2,0.4,0.3,0.7c0,0.1,0.1,0.1,0.2,0.2l0.7,0.1
			c0,0,0,0,0,0L513.9,26.3L513.9,26.3z M513.9,26.3"/>
		<path class="st1" d="M510.4,24.3c-0.9,0-1.7,0.7-1.7,1.7c0,0.9,0.7,1.7,1.7,1.7c0.9,0,1.7-0.7,1.7-1.7
			C512.1,25.1,511.4,24.3,510.4,24.3L510.4,24.3z M510.4,27.2c-0.7,0-1.2-0.6-1.2-1.2c0-0.7,0.6-1.2,1.2-1.2s1.2,0.6,1.2,1.2
			C511.7,26.7,511.1,27.2,510.4,27.2L510.4,27.2z M510.4,27.2"/>
	</g>
</g>
<circle class="st12" cx="557.5" cy="44.5" r="1.4"/>
<rect x="509.4" y="158.6" class="st0" width="96.1" height="17.3"/>
<text transform="matrix(1 0 0 1 526.8523 164.5368)"><tspan x="0" y="0" class="st1 st13 st6">Manual selection</tspan><tspan x="21.5" y="9.6" class="st1 st13 st6">Excel</tspan></text>
<g>
	<rect x="498.3" y="299.4" class="st0" width="120.4" height="8.8"/>
	<text transform="matrix(1 0 0 1 535.468 306.9491)"><tspan x="0" y="0" class="st1 st2 st4">LIST </tspan><tspan x="21.4" y="0" class="st1 st5 st4">datas</tspan></text>
</g>
<rect x="509.4" y="311.6" class="st0" width="96.1" height="17.3"/>
<text transform="matrix(1 0 0 1 526.8523 317.5368)"><tspan x="0" y="0" class="st1 st13 st6">Manual selection</tspan><tspan x="21.5" y="9.6" class="st1 st13 st6">Excel</tspan></text>
<g>
	<g>
		<line class="st8" x1="557.5" y1="181.9" x2="557.5" y2="210.4"/>
		<g>
			<polygon class="st9" points="554.4,207.9 555,207.4 557.5,210.1 560,207.4 560.6,207.9 557.5,211.2 			"/>
		</g>
	</g>
</g>
<g>
	<g>
		<line class="st8" x1="557.5" y1="263.9" x2="557.5" y2="292.4"/>
		<g>
			<polygon class="st9" points="554.4,289.9 555,289.4 557.5,292.1 560,289.4 560.6,289.9 557.5,293.2 			"/>
		</g>
	</g>
</g>
<circle class="st12" cx="557.5" cy="183.5" r="1.4"/>
<text transform="matrix(1 0 0 1 657.0002 215.2364)"><tspan x="0" y="0" class="st1 st2 st7">relevant if:</tspan><tspan x="0" y="10.8" class="st1 st5 st7">it sticks to the topic</tspan><tspan x="0" y="21.6" class="st1 st5 st7">there is comments to analyze</tspan><tspan x="0" y="32.4" class="st1 st5 st7">comments have </tspan><tspan x="66.2" y="32.4" class="st1 st13 st7">k-words</tspan></text>
<line class="st10" x1="594" y1="304.2" x2="650.5" y2="304.2"/>
<text transform="matrix(1 0 0 1 657.0002 295.2364)"><tspan x="0" y="0" class="st1 st5 st7">link, title, n. visualization, n. sharing,</tspan><tspan x="0" y="10.8" class="st1 st5 st7">n. reactions, n. comments,</tspan><tspan x="0" y="21.6" class="st1 st5 st7">comment content</tspan></text>
<line class="st10" x1="780" y1="233.2" x2="814.5" y2="233.2"/>
<text transform="matrix(1 0 0 1 821.0002 224.2364)"><tspan x="0" y="0" class="st1 st2 st7">search k-words (ctrl+f):</tspan><tspan x="0" y="10.8" class="st1 st5 st7">aguacate, palta, avocado,</tspan><tspan x="0" y="21.6" class="st1 st5 st7">carteles, mafia, narco</tspan></text>
<g>
	<rect x="482" y="371.4" class="st0" width="151.1" height="42.8"/>
	<text transform="matrix(1 0 0 1 511.6581 378.8294)"><tspan x="0" y="0" class="st1 st5 st4">read every comment</tspan><tspan x="-6.9" y="12" class="st1 st5 st4">to categorize if they are</tspan><tspan x="-19" y="24" class="st1 st5 st4">useful for sentiment analysis</tspan></text>
</g>
<line class="st10" x1="619" y1="386.2" x2="650.5" y2="386.2"/>
<g>
	<rect x="341.3" y="518.4" class="st0" width="120.4" height="44.8"/>
	<text transform="matrix(1 0 0 1 370.468 525.9491)"><tspan x="0" y="0" class="st1 st2 st4">SET ANALYSIS</tspan><tspan x="-23.4" y="12" class="st1 st5 st4">among the total amount </tspan><tspan x="-21.3" y="24" class="st1 st5 st4">of comments, keep and </tspan><tspan x="-17.4" y="36" class="st1 st5 st4">list the relevant ones.</tspan></text>
</g>
<rect x="352.4" y="567.6" class="st0" width="96.1" height="17.3"/>
<text transform="matrix(1 0 0 1 369.8523 573.5369)"><tspan x="0" y="0" class="st1 st13 st6">Manual selection</tspan><tspan x="21.5" y="9.6" class="st1 st13 st6">Excel</tspan></text>
<g>
	<g>
		<line class="st8" x1="557.5" y1="334.9" x2="557.5" y2="363.4"/>
		<g>
			<polygon class="st9" points="554.4,360.9 555,360.4 557.5,363.1 560,360.4 560.6,360.9 557.5,364.2 			"/>
		</g>
	</g>
</g>
<circle class="st12" cx="557.5" cy="336.5" r="1.4"/>
<text transform="matrix(1 0 0 1 657.0002 373.2364)"><tspan x="0" y="0" class="st1 st2 st7">categories:</tspan><tspan x="0" y="10.8" class="st1 st5 st7">angry, dispregiative, resigned,</tspan><tspan x="0" y="21.6" class="st1 st5 st7">skeptical, provocative, supportive,</tspan><tspan x="0" y="32.4" class="st1 st5 st7">worried, critic, ironic</tspan></text>
<text transform="matrix(1 0 0 1 527.3767 416.2363)"><tspan x="0" y="0" class="st1 st13 st6">Google Translate</tspan><tspan x="15.5" y="9.6" class="st1 st13 st6">Spa-Eng</tspan></text>
<line class="st10" x1="462" y1="386.2" x2="493.5" y2="386.2"/>
<text transform="matrix(1 0 0 1 364.0002 373.2364)"><tspan x="0" y="0" class="st1 st2 st7">useful if:</tspan><tspan x="0" y="10.8" class="st1 st5 st7">it sticks to the topic</tspan><tspan x="0" y="21.6" class="st1 st5 st7">it contains an opinion</tspan></text>
<g>
	<g>
		<line class="st8" x1="330.2" y1="547.6" x2="301.6" y2="547.6"/>
		<g>
			<polygon class="st9" points="304.1,544.5 304.6,545.1 301.9,547.6 304.6,550.1 304.1,550.6 300.8,547.6 			"/>
		</g>
	</g>
</g>
<circle class="st12" cx="328.6" cy="547.6" r="1.4"/>
<g>
	<rect x="183" y="532.5" class="st0" width="144.7" height="28"/>
	<text transform="matrix(1 0 0 1 217.978 540.0948)" class="st1 st2 st4">VISUALIZATION 1</text>
</g>
<rect x="207.2" y="546.8" class="st0" width="96.1" height="18.4"/>
<text transform="matrix(1 0 0 1 236.5791 552.8199)"><tspan x="0" y="0" class="st1 st13 st6">RAWgraph</tspan><tspan x="0.6" y="9.6" class="st1 st13 st6">Illustrator</tspan></text>
<g>
	<rect x="803" y="521.5" class="st0" width="144.7" height="28"/>
	<text transform="matrix(1 0 0 1 837.6929 529.0948)" class="st1 st2 st4">VISUALIZATION 2</text>
</g>
<rect x="827.2" y="535.8" class="st0" width="96.1" height="18.4"/>
<text transform="matrix(1 0 0 1 856.5791 541.8199)"><tspan x="0" y="0" class="st1 st13 st6">RAWgraph</tspan><tspan x="0.6" y="9.6" class="st1 st13 st6">Illustrator</tspan></text>
<g>
	<rect x="657.3" y="518.4" class="st0" width="120.4" height="34.8"/>
	<text transform="matrix(1 0 0 1 670.5378 525.9491)"><tspan x="0" y="0" class="st1 st2 st4">SENTMENT ANALYSIS</tspan><tspan x="-9.3" y="12" class="st1 st5 st4">compare user’s reactions</tspan><tspan x="-0.6" y="24" class="st1 st5 st4">by comments section</tspan></text>
</g>
<g>
	<g>
		<line class="st8" x1="788.8" y1="535.6" x2="817.3" y2="535.6"/>
		<g>
			<polygon class="st9" points="814.9,538.6 814.3,538.1 817.1,535.6 814.3,533.1 814.9,532.5 818.2,535.6 			"/>
		</g>
	</g>
</g>
<circle class="st12" cx="790.4" cy="535.6" r="1.4"/>
<line class="st8" x1="650" y1="521.7" x2="472" y2="521.7"/>
<g>
	<g>
		<line class="st8" x1="402.5" y1="413.9" x2="402.5" y2="505.4"/>
		<g>
			<polygon class="st9" points="399.4,502.9 400,502.4 402.5,505.1 405,502.4 405.6,502.9 402.5,506.2 			"/>
		</g>
	</g>
</g>
<circle class="st12" cx="402.5" cy="415.5" r="1.4"/>
<g>
	<g>
		<line class="st8" x1="716.5" y1="413.9" x2="716.5" y2="505.4"/>
		<g>
			<polygon class="st9" points="713.4,502.9 714,502.4 716.5,505.1 719,502.4 719.6,502.9 716.5,506.2 			"/>
		</g>
	</g>
</g>
<circle class="st12" cx="716.5" cy="415.5" r="1.4"/>
</svg>
