<svg xmlns="http://www.w3.org/2000/svg" viewBox="0 0 804 669"><defs><style>.cls-1{font-size:12px;}.cls-1,.cls-14,.cls-35,.cls-4,.cls-44,.cls-81{fill:#fff;}.cls-1,.cls-4,.cls-44,.cls-81{font-family:FiraSans-Medium, Fira Sans;font-weight:500;}.cls-2{letter-spacing:-0.03em;}.cls-3{letter-spacing:-0.06em;}.cls-4{font-size:10px;}.cls-5{letter-spacing:-0.01em;}.cls-6{letter-spacing:-0.01em;}.cls-7{letter-spacing:-0.02em;}.cls-14,.cls-35,.cls-45,.cls-8{font-family:FiraSans-Light, Fira Sans;font-weight:300;}.cls-9{letter-spacing:0em;}.cls-10{letter-spacing:-0.01em;}.cls-11{letter-spacing:-0.02em;}.cls-12{letter-spacing:-0.06em;}.cls-13{letter-spacing:-0.03em;}.cls-14,.cls-71,.cls-75,.cls-81{font-size:9px;}.cls-15{letter-spacing:-0.01em;}.cls-16{letter-spacing:-0.01em;}.cls-17{letter-spacing:-0.01em;}.cls-18{letter-spacing:-0.01em;}.cls-19{letter-spacing:-0.01em;}.cls-20{letter-spacing:0em;}.cls-21{letter-spacing:0em;}.cls-22{letter-spacing:-0.03em;}.cls-23{letter-spacing:-0.03em;}.cls-24{letter-spacing:-0.01em;}.cls-25{letter-spacing:-0.04em;}.cls-26{letter-spacing:-0.03em;}.cls-27{letter-spacing:-0.02em;}.cls-28{letter-spacing:0em;}.cls-29{letter-spacing:-0.06em;}.cls-30{letter-spacing:-0.02em;}.cls-31,.cls-32,.cls-34{stroke:#95c11f;}.cls-31,.cls-32,.cls-34,.cls-59,.cls-79{stroke-miterlimit:10;}.cls-31,.cls-32,.cls-34,.cls-79{stroke-width:0.75px;}.cls-32,.cls-34,.cls-59,.cls-79{fill:none;}.cls-33{fill:#95c11f;}.cls-34{stroke-dasharray:2;}.cls-35,.cls-44{font-size:11px;}.cls-36{letter-spacing:-0.01em;}.cls-37{letter-spacing:-0.03em;}.cls-38{letter-spacing:0em;}.cls-39{letter-spacing:-0.02em;}.cls-40{letter-spacing:0em;}.cls-41{letter-spacing:-0.01em;}.cls-42{letter-spacing:-0.01em;}.cls-43{letter-spacing:-0.02em;}.cls-45{letter-spacing:-0.02em;}.cls-46{letter-spacing:-0.01em;}.cls-47{letter-spacing:-0.01em;}.cls-48{letter-spacing:0em;}.cls-49{letter-spacing:-0.01em;}.cls-50{letter-spacing:-0.01em;}.cls-51{letter-spacing:-0.03em;}.cls-52{letter-spacing:-0.02em;}.cls-53{letter-spacing:-0.02em;}.cls-54{letter-spacing:-0.01em;}.cls-55{letter-spacing:-0.01em;}.cls-56{letter-spacing:-0.05em;}.cls-57{letter-spacing:0em;}.cls-58{letter-spacing:-0.01em;}.cls-59,.cls-79{stroke:#666;}.cls-59{stroke-width:0.5px;}.cls-60{letter-spacing:-0.03em;}.cls-61{letter-spacing:-0.06em;}.cls-62{letter-spacing:0em;}.cls-63{letter-spacing:-0.02em;}.cls-64{letter-spacing:-0.01em;}.cls-65{letter-spacing:-0.01em;}.cls-66{letter-spacing:-0.01em;}.cls-67{letter-spacing:0em;}.cls-68{letter-spacing:-0.03em;}.cls-69{letter-spacing:-0.01em;}.cls-70{letter-spacing:-0.05em;}.cls-71,.cls-74{fill:#666;}.cls-71,.cls-75{font-family:FiraSans-Italic, Fira Sans;font-style:italic;}.cls-72{letter-spacing:0em;}.cls-73{letter-spacing:-0.03em;}.cls-75,.cls-78{fill:gray;}.cls-76{letter-spacing:-0.03em;}.cls-77{letter-spacing:-0.01em;}.cls-80{letter-spacing:-0.02em;}.cls-82{letter-spacing:-0.03em;}.cls-83{letter-spacing:-0.04em;}.cls-84{letter-spacing:-0.05em;}</style></defs><title>protocols</title><g id="图层_2" data-name="图层 2"><text class="cls-1" transform="translate(328.83 64.14) scale(1.12 1)">1 QUE<tspan class="cls-2" x="30.92" y="0">R</tspan><tspan class="cls-3" x="37.91" y="0">Y</tspan><tspan x="44.12" y="0">:</tspan></text><text class="cls-4" transform="translate(443.02 62)">A<tspan class="cls-5" x="5.83" y="0">g</tspan><tspan x="11.1" y="0">ua</tspan><tspan class="cls-6" x="22.33" y="0">c</tspan><tspan x="27.01" y="0">a</tspan><tspan class="cls-7" x="32.47" y="0">t</tspan><tspan x="36.05" y="0">e AND </tspan><tspan class="cls-6" x="65.57" y="0">c</tspan><tspan x="70.25" y="0">ar</tspan><tspan class="cls-7" x="79.65" y="0">t</tspan><tspan x="83.23" y="0">éls</tspan><tspan class="cls-8"><tspan class="cls-9" x="0" y="12">l</tspan><tspan x="2.79" y="12">ang: </tspan><tspan class="cls-10" x="23.88" y="12">E</tspan><tspan x="28.9" y="12">S</tspan><tspan class="cls-9" x="0" y="24">l</tspan><tspan x="2.79" y="24">o</tspan><tspan class="cls-10" x="8.5" y="24">ca</tspan><tspan x="18.35" y="24">li</tspan><tspan class="cls-11" x="23.89" y="24">z</tspan><tspan x="27.96" y="24">ation: MEX</tspan></tspan><tspan class="cls-12" x="0" y="39">Y</tspan><tspan class="cls-6" x="5.11" y="39">e</tspan><tspan x="10.5" y="39">ar</tspan><tspan class="cls-8"><tspan x="0" y="51">2</tspan><tspan class="cls-13" x="4.79" y="51">0</tspan><tspan x="10.01" y="51">17</tspan></tspan></text><text class="cls-14" transform="translate(438.02 236.35)">Sin<tspan class="cls-15" x="12.54" y="0">a</tspan><tspan class="cls-16" x="17.27" y="0">l</tspan><tspan class="cls-17" x="19.78" y="0">o</tspan><tspan x="24.83" y="0">a </tspan><tspan class="cls-18" x="32.17" y="0">c</tspan><tspan x="36.3" y="0">ar</tspan><tspan class="cls-19" x="44.48" y="0">t</tspan><tspan class="cls-20" x="47.44" y="0">el</tspan><tspan x="0" y="10.8">Guad</tspan><tspan class="cls-17" x="20.86" y="10.8">a</tspan><tspan class="cls-21" x="25.6" y="10.8">l</tspan><tspan class="cls-17" x="28.11" y="10.8">a</tspan><tspan class="cls-20" x="32.84" y="10.8">ja</tspan><tspan class="cls-22" x="40.09" y="10.8">r</tspan><tspan x="43.14" y="10.8">a</tspan><tspan x="0" y="21.6">Jua</tspan><tspan class="cls-23" x="12.65" y="21.6">r</tspan><tspan class="cls-24" x="15.74" y="21.6">e</tspan><tspan x="20.51" y="21.6">z </tspan><tspan class="cls-15" x="26.82" y="21.6">c</tspan><tspan x="30.95" y="21.6">ar</tspan><tspan class="cls-19" x="39.13" y="21.6">t</tspan><tspan class="cls-20" x="42.09" y="21.6">el</tspan><tspan x="0" y="32.4">A</tspan><tspan class="cls-23" x="5.08" y="32.4">r</tspan><tspan x="8.17" y="32.4">el</tspan><tspan class="cls-21" x="15.55" y="32.4">l</tspan><tspan x="18.06" y="32.4">anon </tspan><tspan class="cls-25" x="41.05" y="32.4">F</tspan><tspan class="cls-20" x="45.06" y="32.4">elix borther</tspan><tspan x="0" y="43.2">Tijuana</tspan><tspan x="0" y="54">Mi</tspan><tspan class="cls-21" x="9.36" y="54">l</tspan><tspan x="11.87" y="54">enio </tspan><tspan class="cls-26" x="0" y="64.8">L</tspan><tspan x="4.07" y="64.8">os </tspan><tspan class="cls-17" x="15.89" y="64.8">c</tspan><tspan x="20.02" y="64.8">uinis</tspan><tspan class="cls-17" x="0" y="75.6">L</tspan><tspan x="4.2" y="75.6">a </tspan><tspan class="cls-27" x="11.54" y="75.6">f</tspan><tspan class="cls-20" x="14.24" y="75.6">amilia Mich</tspan><tspan class="cls-18" x="60.33" y="75.6">o</tspan><tspan class="cls-20" x="65.38" y="75.6">a</tspan><tspan class="cls-17" x="70.2" y="75.6">c</tspan><tspan class="cls-20" x="74.33" y="75.6">an</tspan><tspan class="cls-26" x="0" y="86.4">L</tspan><tspan x="4.07" y="86.4">os </tspan><tspan class="cls-15" x="15.89" y="86.4">C</tspan><tspan x="20.75" y="86.4">a</tspan><tspan class="cls-17" x="25.58" y="86.4">ba</tspan><tspan x="35.45" y="86.4">l</tspan><tspan class="cls-16" x="38.01" y="86.4">l</tspan><tspan class="cls-20" x="40.52" y="86.4">e</tspan><tspan class="cls-23" x="45.34" y="86.4">r</tspan><tspan class="cls-28" x="48.43" y="86.4">os </tspan><tspan class="cls-29" x="60.25" y="86.4">T</tspan><tspan class="cls-20" x="64.21" y="86.4">emp</tspan><tspan class="cls-21" x="81.94" y="86.4">l</tspan><tspan x="84.46" y="86.4">arios</tspan><tspan class="cls-17" x="0" y="97.2">L</tspan><tspan x="4.2" y="97.2">a </tspan><tspan class="cls-29" x="11.54" y="97.2">T</tspan><tspan x="15.5" y="97.2">e</tspan><tspan class="cls-23" x="20.32" y="97.2">r</tspan><tspan class="cls-30" x="23.41" y="97.2">c</tspan><tspan class="cls-20" x="27.48" y="97.2">e</tspan><tspan class="cls-22" x="32.3" y="97.2">r</tspan><tspan x="35.34" y="97.2">a Hermandad</tspan></text><circle class="cls-31" cx="355.49" cy="95.24" r="1.41"/><line class="cls-32" x1="355.49" y1="96.66" x2="355.49" y2="124.83"/><polygon class="cls-33" points="352.43 122.34 352.97 121.83 355.49 124.54 358.01 121.83 358.56 122.34 355.49 125.64 352.43 122.34"/><line class="cls-34" x1="387.67" y1="59.95" x2="437.24" y2="59.95"/><line class="cls-34" x1="397" y1="233.94" x2="433.24" y2="233.94"/><text class="cls-35" transform="translate(254.77 8.03)">S<tspan class="cls-36" x="5.93" y="0">t</tspan><tspan x="9.61" y="0">arting f</tspan><tspan class="cls-37" x="44.89" y="0">r</tspan><tspan x="48.66" y="0">om the </tspan><tspan class="cls-37" x="86.53" y="0">r</tspan><tspan x="90.31" y="0">e</tspan><tspan class="cls-38" x="96.2" y="0">l</tspan><tspan x="99.27" y="0">ationship dis</tspan><tspan class="cls-39" x="163.06" y="0">c</tspan><tspan class="cls-40" x="168.03" y="0">ov</tspan><tspan x="179.44" y="0">e</tspan><tspan class="cls-37" x="185.33" y="0">r</tspan><tspan x="189.11" y="0">ed </tspan><tspan x="1.04" y="13.2">between the </tspan><tspan class="cls-41" x="65.19" y="13.2">c</tspan><tspan x="70.23" y="13.2">ar</tspan><tspan class="cls-42" x="80.23" y="13.2">t</tspan><tspan x="83.85" y="13.2">els and the </tspan><tspan class="cls-43" x="142.01" y="13.2">a</tspan><tspan class="cls-40" x="147.74" y="13.2">v</tspan><tspan x="152.89" y="13.2">o</tspan><tspan class="cls-41" x="159.17" y="13.2">c</tspan><tspan x="164.22" y="13.2">ados in </tspan><tspan x="33.18" y="26.4">the Visu</tspan><tspan class="cls-41" x="72.77" y="26.4">a</tspan><tspan x="78.56" y="26.4">li</tspan><tspan class="cls-43" x="84.65" y="26.4">z</tspan><tspan x="89.13" y="26.4">ations #1 and </tspan><tspan class="cls-42" x="157.59" y="26.4">#</tspan><tspan x="162.99" y="26.4">2</tspan></text><line class="cls-32" x1="355.49" y1="199.24" x2="355.49" y2="222.85"/><polygon class="cls-33" points="352.43 220.37 352.97 219.86 355.49 222.56 358.01 219.86 358.56 220.37 355.49 223.67 352.43 220.37"/><circle class="cls-31" cx="355.49" cy="199.24" r="1.41"/><text class="cls-44" transform="translate(314.96 237.36)">IDENTI<tspan class="cls-38" x="32.65" y="0">F</tspan><tspan x="37.97" y="0">YING</tspan><tspan class="cls-8" x="61.93" y="0" xml:space="preserve"> the </tspan><tspan class="cls-8"><tspan class="cls-41" x="8.81" y="13.2">c</tspan><tspan x="13.85" y="13.2">ar</tspan><tspan class="cls-42" x="23.85" y="13.2">t</tspan><tspan x="27.47" y="13.2">els name</tspan></tspan></text><text class="cls-44" transform="translate(282.08 140.37)">SCRAPING <tspan class="cls-8" x="52.44" y="0">among the fi</tspan><tspan class="cls-45" x="114.35" y="0">r</tspan><tspan class="cls-8" x="118.26" y="0">st 100 </tspan><tspan class="cls-8"><tspan class="cls-37" x="-8.15" y="13.2">r</tspan><tspan x="-4.38" y="13.2">esults and </tspan><tspan class="cls-46" x="49.86" y="13.2">k</tspan><tspan x="55.15" y="13.2">eeping on</tspan><tspan class="cls-47" x="104.04" y="13.2">l</tspan><tspan x="107.05" y="13.2">y </tspan><tspan class="cls-37" x="115.27" y="13.2">r</tspan><tspan x="119.04" y="13.2">e</tspan><tspan class="cls-38" x="124.94" y="13.2">l</tspan><tspan class="cls-48" x="128" y="13.2">e</tspan><tspan class="cls-49" x="133.88" y="13.2">v</tspan><tspan x="138.91" y="13.2">ant </tspan><tspan x="-4.64" y="26.4">websi</tspan><tspan class="cls-42" x="23.4" y="26.4">t</tspan><tspan x="27.02" y="26.4">es a</tspan><tspan class="cls-39" x="46.98" y="26.4">cc</tspan><tspan x="56.92" y="26.4">o</tspan><tspan class="cls-37" x="63.21" y="26.4">r</tspan><tspan x="66.98" y="26.4">ding </tspan><tspan class="cls-42" x="91.41" y="26.4">t</tspan><tspan x="95.03" y="26.4">o the query</tspan></tspan></text><circle class="cls-31" cx="356.49" cy="257.24" r="1.41"/><line class="cls-32" x1="356.49" y1="258.66" x2="356.49" y2="340.19"/><polygon class="cls-33" points="353.43 337.7 353.97 337.19 356.49 339.9 359.01 337.19 359.56 337.7 356.49 341 353.43 337.7"/><text class="cls-44" transform="translate(320.53 352.92)">IDENTI<tspan class="cls-38" x="32.65" y="0">F</tspan><tspan x="37.97" y="0">YING</tspan><tspan class="cls-8" x="61.93" y="0"> </tspan><tspan class="cls-8"><tspan class="cls-39" x="-21.38" y="13.2">c</tspan><tspan x="-16.41" y="13.2">onnections between </tspan><tspan class="cls-41" x="-23.11" y="26.4">c</tspan><tspan x="-18.06" y="26.4">ar</tspan><tspan class="cls-42" x="-8.06" y="26.4">t</tspan><tspan x="-4.44" y="26.4">els and the p</tspan><tspan class="cls-50" x="60.1" y="26.4">l</tspan><tspan x="63.17" y="26.4">a</tspan><tspan class="cls-39" x="69.07" y="26.4">c</tspan><tspan x="74.04" y="26.4">es </tspan><tspan x="-16.38" y="39.6">whe</tspan><tspan class="cls-37" x="3.61" y="39.6">r</tspan><tspan x="7.39" y="39.6">e th</tspan><tspan class="cls-40" x="26.53" y="39.6">e</tspan><tspan x="32.4" y="39.6">y ope</tspan><tspan class="cls-51" x="59.19" y="39.6">r</tspan><tspan x="62.9" y="39.6">a</tspan><tspan class="cls-42" x="68.8" y="39.6">t</tspan><tspan x="72.42" y="39.6">e</tspan></tspan></text><text class="cls-14" transform="translate(438.02 354.85)"><tspan class="cls-52">R<tspan class="cls-20" x="5.17" y="0">egions:</tspan></tspan><tspan x="0" y="10.8">Mich</tspan><tspan class="cls-18" x="18.84" y="10.8">o</tspan><tspan class="cls-20" x="23.89" y="10.8">a</tspan><tspan class="cls-17" x="28.71" y="10.8">c</tspan><tspan x="32.84" y="10.8">an</tspan><tspan class="cls-53" x="0" y="21.6">C</tspan><tspan x="4.77" y="21.6">olima</tspan><tspan x="0" y="32.4">J</tspan><tspan class="cls-15" x="2.62" y="32.4">a</tspan><tspan class="cls-28" x="7.35" y="32.4">lis</tspan><tspan class="cls-30" x="16.51" y="32.4">c</tspan><tspan x="20.58" y="32.4">o</tspan><tspan x="0" y="43.2">N</tspan><tspan class="cls-54" x="6.06" y="43.2">a</tspan><tspan class="cls-55" x="10.75" y="43.2">y</tspan><tspan class="cls-20" x="14.84" y="43.2">a</tspan><tspan class="cls-22" x="19.67" y="43.2">r</tspan><tspan x="22.71" y="43.2">at</tspan></text><text class="cls-14" transform="translate(504.36 354.85)">Cities:<tspan x="0" y="10.8">Urua</tspan><tspan class="cls-17" x="19.26" y="10.8">p</tspan><tspan x="24.4" y="10.8">an</tspan><tspan class="cls-56" x="0" y="21.6">T</tspan><tspan class="cls-20" x="4" y="21.6">ancì</tspan><tspan class="cls-24" x="20.74" y="21.6">t</tspan><tspan x="23.75" y="21.6">a</tspan><tspan class="cls-23" x="28.57" y="21.6">r</tspan><tspan x="31.66" y="21.6">o</tspan><tspan class="cls-23" x="0" y="32.4">P</tspan><tspan class="cls-20" x="4.86" y="32.4">eri</tspan><tspan class="cls-17" x="15.47" y="32.4">b</tspan><tspan x="20.61" y="32.4">an</tspan><tspan class="cls-26" x="0" y="43.2">L</tspan><tspan x="4.07" y="43.2">os </tspan><tspan class="cls-54" x="15.89" y="43.2">R</tspan><tspan class="cls-57" x="21.07" y="43.2">ey</tspan><tspan x="30.07" y="43.2">es</tspan><tspan x="0" y="54">M</tspan><tspan class="cls-58" x="6.93" y="54">e</tspan><tspan x="11.69" y="54">xi</tspan><tspan class="cls-18" x="18.25" y="54">ca</tspan><tspan x="27.12" y="54">li</tspan></text><line class="cls-34" x1="388.5" y1="352.44" x2="433.24" y2="352.44"/><line class="cls-59" x1="477.08" y1="362.5" x2="491" y2="362.5"/><line class="cls-59" x1="498.64" y1="358.94" x2="498.64" y2="393.38"/><line class="cls-59" x1="503.36" y1="358.94" x2="498.44" y2="358.94"/><line class="cls-59" x1="503.36" y1="393.17" x2="498.44" y2="393.17"/><line class="cls-59" x1="491" y1="362.22" x2="491" y2="376.81"/><line class="cls-59" x1="498.64" y1="376.56" x2="490.73" y2="376.56"/><circle class="cls-31" cx="537.32" cy="352.41" r="1.41"/><line class="cls-32" x1="538.73" y1="352.41" x2="596.62" y2="352.41"/><text class="cls-1" transform="translate(573.45 453.48)">2 QUE<tspan class="cls-60" x="31.61" y="0">R</tspan><tspan class="cls-61" x="38.59" y="0">Y</tspan><tspan x="44.81" y="0">:</tspan></text><text class="cls-4" transform="translate(669.83 451.34)"><tspan class="cls-6">C</tspan><tspan x="5.58" y="0">ar</tspan><tspan class="cls-7" x="14.98" y="0">t</tspan><tspan x="18.56" y="0">el name AND s</tspan><tspan class="cls-10" x="83.55" y="0">t</tspan><tspan x="87.2" y="0">a</tspan><tspan class="cls-7" x="92.66" y="0">t</tspan><tspan class="cls-62" x="96.24" y="0">e name</tspan><tspan class="cls-8"><tspan class="cls-9" x="0" y="12">l</tspan><tspan x="2.79" y="12">ang: </tspan><tspan class="cls-10" x="23.88" y="12">E</tspan><tspan x="28.9" y="12">S</tspan><tspan class="cls-9" x="0" y="24">l</tspan><tspan x="2.79" y="24">o</tspan><tspan class="cls-10" x="8.5" y="24">ca</tspan><tspan x="18.35" y="24">li</tspan><tspan class="cls-11" x="23.89" y="24">z</tspan><tspan x="27.96" y="24">ation: MEX</tspan></tspan><tspan class="cls-6" x="0" y="39">C</tspan><tspan x="5.58" y="39">ar</tspan><tspan class="cls-7" x="14.98" y="39">t</tspan><tspan x="18.56" y="39">el name AND ci</tspan><tspan class="cls-9" x="86.39" y="39">t</tspan><tspan x="90.09" y="39">y name</tspan><tspan class="cls-8"><tspan class="cls-9" x="0" y="51">l</tspan><tspan x="2.79" y="51">ang: </tspan><tspan class="cls-10" x="23.88" y="51">E</tspan><tspan x="28.9" y="51">S</tspan><tspan class="cls-9" x="0" y="63">l</tspan><tspan x="2.79" y="63">o</tspan><tspan class="cls-10" x="8.5" y="63">ca</tspan><tspan x="18.35" y="63">li</tspan><tspan class="cls-11" x="23.89" y="63">z</tspan><tspan x="27.96" y="63">ation: MEX</tspan></tspan><tspan class="cls-12" x="0" y="78">Y</tspan><tspan class="cls-6" x="5.11" y="78">e</tspan><tspan x="10.5" y="78">ar</tspan><tspan class="cls-8"><tspan x="0" y="90">2</tspan><tspan class="cls-13" x="4.79" y="90">0</tspan><tspan x="10.01" y="90">17</tspan></tspan></text><line class="cls-34" x1="623.58" y1="449.29" x2="664.33" y2="449.29"/><line class="cls-32" x1="596.29" y1="352.41" x2="596.29" y2="437.85"/><polygon class="cls-33" points="593.22 435.37 593.77 434.86 596.29 437.56 598.81 434.86 599.36 435.37 596.29 438.67 593.22 435.37"/><text class="cls-44" transform="translate(558.55 567.49)"><tspan class="cls-63">C</tspan><tspan x="6.03" y="0">ONSIDERING</tspan><tspan class="cls-8" x="67.74" y="0" xml:space="preserve"> the </tspan><tspan class="cls-8"><tspan x="-12.93" y="13.2">amount of </tspan><tspan class="cls-42" x="41.12" y="13.2">t</tspan><tspan x="44.74" y="13.2">o</tspan><tspan class="cls-36" x="51.02" y="13.2">t</tspan><tspan class="cls-41" x="54.71" y="13.2">a</tspan><tspan x="60.49" y="13.2">l </tspan><tspan class="cls-37" x="66.69" y="13.2">r</tspan><tspan x="70.46" y="13.2">esults </tspan><tspan class="cls-41" x="7.86" y="26.4">f</tspan><tspan x="11.28" y="26.4">or </tspan><tspan class="cls-41" x="24.73" y="26.4">e</tspan><tspan x="30.52" y="26.4">ach query</tspan></tspan></text><circle class="cls-31" cx="597.49" cy="483.24" r="1.41"/><line class="cls-32" x1="597.49" y1="484.66" x2="597.49" y2="552.52"/><polygon class="cls-33" points="594.42 550.03 594.97 549.52 597.49 552.23 600.01 549.52 600.56 550.03 597.49 553.33 594.42 550.03"/><circle class="cls-31" cx="357.49" cy="401.24" r="1.41"/><line class="cls-32" x1="357.49" y1="402.66" x2="357.49" y2="433"/><line class="cls-32" x1="597.89" y1="622" x2="203.95" y2="622"/><line class="cls-32" x1="597.49" y1="622.38" x2="597.49" y2="606.29"/><text class="cls-35" transform="translate(135.26 417.84)">In<tspan class="cls-42" x="9.53" y="0">t</tspan><tspan x="13.15" y="0">eg</tspan><tspan class="cls-51" x="24.57" y="0">r</tspan><tspan x="28.29" y="0">ation with the M</tspan><tspan class="cls-64" x="108.18" y="0">e</tspan><tspan x="114" y="0">xi</tspan><tspan class="cls-41" x="122.02" y="0">c</tspan><tspan x="127.07" y="0">an </tspan><tspan x="15.42" y="13.2">G</tspan><tspan class="cls-40" x="22.22" y="13.2">ov</tspan><tspan x="33.63" y="13.2">ernmen</tspan><tspan class="cls-36" x="71.75" y="13.2">t</tspan><tspan class="cls-41" x="75.44" y="13.2">a</tspan><tspan x="81.22" y="13.2">l da</tspan><tspan class="cls-36" x="99.75" y="13.2">t</tspan><tspan class="cls-65" x="103.43" y="13.2">a</tspan><tspan x="109.22" y="13.2">set </tspan><tspan x="6.02" y="26.4">“</tspan><tspan class="cls-38" x="10.1" y="26.4">E</tspan><tspan x="15.68" y="26.4">s</tspan><tspan class="cls-66" x="20.78" y="26.4">t</tspan><tspan class="cls-67" x="24.46" y="26.4">atisti</tspan><tspan class="cls-41" x="48.91" y="26.4">c</tspan><tspan x="53.95" y="26.4">a de p</tspan><tspan class="cls-68" x="84.71" y="26.4">r</tspan><tspan x="88.48" y="26.4">odu</tspan><tspan class="cls-39" x="107.57" y="26.4">c</tspan><tspan x="112.54" y="26.4">ciòn </tspan><tspan class="cls-41" x="5.1" y="39.6">a</tspan><tspan x="10.89" y="39.6">gri</tspan><tspan class="cls-39" x="23.5" y="39.6">c</tspan><tspan x="28.47" y="39.6">o</tspan><tspan class="cls-50" x="34.75" y="39.6">l</tspan><tspan class="cls-41" x="37.82" y="39.6">a</tspan><tspan x="43.6" y="39.6">” </tspan><tspan class="cls-41" x="50.75" y="39.6">f</tspan><tspan x="54.17" y="39.6">or a </tspan><tspan class="cls-39" x="76.59" y="39.6">c</tspan><tspan x="81.56" y="39.6">om</tspan><tspan class="cls-41" x="97.23" y="39.6">p</tspan><tspan x="103.51" y="39.6">arison </tspan><tspan x="-1.67" y="52.8">between </tspan><tspan class="cls-43" x="43.33" y="52.8">a</tspan><tspan class="cls-40" x="49.07" y="52.8">v</tspan><tspan x="54.21" y="52.8">o</tspan><tspan class="cls-41" x="60.49" y="52.8">c</tspan><tspan x="65.54" y="52.8">ado p</tspan><tspan class="cls-37" x="93.61" y="52.8">r</tspan><tspan x="97.39" y="52.8">oduction </tspan><tspan x="2.67" y="66">and the p</tspan><tspan class="cls-37" x="50.02" y="66">r</tspan><tspan x="53.79" y="66">esen</tspan><tspan class="cls-39" x="77.11" y="66">c</tspan><tspan x="82.09" y="66">e of </tspan><tspan class="cls-41" x="103.93" y="66">c</tspan><tspan x="108.98" y="66">ar</tspan><tspan class="cls-42" x="118.98" y="66">t</tspan><tspan x="122.6" y="66">els </tspan><tspan x="5.99" y="79.2">lin</tspan><tspan class="cls-46" x="18.51" y="79.2">k</tspan><tspan x="23.8" y="79.2">ed </tspan><tspan class="cls-69" x="39.2" y="79.2">t</tspan><tspan x="42.82" y="79.2">o it in the </tspan><tspan class="cls-42" x="93.56" y="79.2">t</tspan><tspan x="97.18" y="79.2">erri</tspan><tspan class="cls-42" x="114.25" y="79.2">t</tspan><tspan x="117.87" y="79.2">ory</tspan></text><line class="cls-32" x1="204.17" y1="622" x2="204.17" y2="512"/><line class="cls-32" x1="394.81" y1="433" x2="394.81" y2="632.19"/><polygon class="cls-33" points="391.75 629.7 392.3 629.19 394.81 631.9 397.33 629.19 397.88 629.7 394.81 633 391.75 629.7"/><text class="cls-4" transform="translate(357.66 645.86)">VIS<tspan class="cls-10" x="14.18" y="0">U</tspan><tspan x="20.64" y="0">ALIZ</tspan><tspan class="cls-70" x="39.81" y="0">A</tspan><tspan x="45.14" y="0">TION 1</tspan></text><line class="cls-32" x1="395.06" y1="433" x2="357.14" y2="433"/><circle class="cls-31" cx="203.97" cy="510.72" r="1.23"/><text class="cls-71" transform="translate(317.72 76.46)">Goog<tspan class="cls-21" x="21.25" y="0">l</tspan><tspan x="23.8" y="0">e ad</tspan><tspan class="cls-72" x="41.18" y="0">v</tspan><tspan x="45.52" y="0">an</tspan><tspan class="cls-53" x="55.86" y="0">c</tspan><tspan class="cls-21" x="59.93" y="0">e</tspan><tspan x="64.54" y="0">d s</tspan><tspan class="cls-21" x="76.3" y="0">e</tspan><tspan x="80.91" y="0">a</tspan><tspan class="cls-73" x="86.03" y="0">r</tspan><tspan x="89.19" y="0">ch</tspan><tspan x="17.64" y="10.8">In</tspan><tspan class="cls-53" x="25.49" y="10.8">c</tspan><tspan x="29.56" y="10.8">ogni</tspan><tspan class="cls-53" x="47.71" y="10.8">t</tspan><tspan x="50.72" y="10.8">o mode</tspan></text><path class="cls-74" d="M314.65,72.4l-.53-.09a2.28,2.28,0,0,0-.21-.51l.31-.43a.47.47,0,0,0-.05-.6l-.47-.47a.42.42,0,0,0-.32-.13.5.5,0,0,0-.27.08l-.44.31a3,3,0,0,0-.52-.22l-.09-.51a.46.46,0,0,0-.46-.39h-.66a.45.45,0,0,0-.45.39l-.1.53a2.41,2.41,0,0,0-.5.21l-.43-.31a.53.53,0,0,0-.27-.08.44.44,0,0,0-.33.13l-.47.47a.46.46,0,0,0-.05.59l.31.44a3.28,3.28,0,0,0-.2.52l-.52.08a.46.46,0,0,0-.39.46v.66a.46.46,0,0,0,.39.46l.53.09a3.66,3.66,0,0,0,.21.51l-.31.42a.47.47,0,0,0,.05.6l.47.47a.49.49,0,0,0,.33.13.5.5,0,0,0,.27-.08l.44-.32a2.68,2.68,0,0,0,.49.21l.09.52a.46.46,0,0,0,.45.39h.67a.46.46,0,0,0,.45-.39l.09-.52a3.89,3.89,0,0,0,.51-.21l.44.31a.47.47,0,0,0,.26.08.49.49,0,0,0,.33-.13l.47-.47a.47.47,0,0,0,.05-.6l-.31-.43a3.66,3.66,0,0,0,.21-.51l.52-.09a.46.46,0,0,0,.39-.46v-.66a.46.46,0,0,0-.38-.45Zm0,1.11s0,0,0,0l-.66.11a.23.23,0,0,0-.17.16,2.48,2.48,0,0,1-.27.65.21.21,0,0,0,0,.23l.38.55s0,0,0,0l-.47.47h0l-.54-.38a.21.21,0,0,0-.23,0,2.7,2.7,0,0,1-.66.27.2.2,0,0,0-.15.17l-.11.66s0,0,0,0H311s0,0,0,0l-.11-.66a.23.23,0,0,0-.16-.17,3,3,0,0,1-.64-.26.2.2,0,0,0-.11,0,.19.19,0,0,0-.12,0l-.55.39h0l0,0-.47-.46a.06.06,0,0,1,0-.06l.38-.54a.2.2,0,0,0,0-.23,2.48,2.48,0,0,1-.27-.65.23.23,0,0,0-.17-.16l-.66-.11a0,0,0,0,1,0,0v-.66a0,0,0,0,1,0,0l.65-.11a.2.2,0,0,0,.17-.16,2.48,2.48,0,0,1,.27-.65.21.21,0,0,0,0-.23l-.39-.55a0,0,0,0,1,0,0l.47-.47h0s0,0,0,0l.54.38a.21.21,0,0,0,.23,0,2.36,2.36,0,0,1,.66-.27.22.22,0,0,0,.15-.17l.11-.67a.05.05,0,0,1,.05,0h.65s0,0,0,0l.11.66a.23.23,0,0,0,.16.17,2.61,2.61,0,0,1,.67.27.21.21,0,0,0,.23,0l.54-.38h.06l.46.47s0,0,0,.05l-.39.54a.21.21,0,0,0,0,.23,2.7,2.7,0,0,1,.27.66.2.2,0,0,0,.17.15l.66.11s0,0,0,0v.66Zm0,0"/><path class="cls-74" d="M311.29,71.57a1.62,1.62,0,1,0,1.61,1.61,1.61,1.61,0,0,0-1.61-1.61Zm0,2.81a1.2,1.2,0,1,1,0-2.39,1.2,1.2,0,0,1,0,2.39Zm0,0"/><text class="cls-75" transform="translate(316.62 181.09)">Ins<tspan class="cls-53" x="12" y="0">t</tspan><tspan x="15.01" y="0">ant Da</tspan><tspan class="cls-53" x="41.75" y="0">t</tspan><tspan x="44.77" y="0">a Sc</tspan><tspan class="cls-76" x="61.32" y="0">r</tspan><tspan x="64.48" y="0">aper</tspan><tspan x="31.3" y="10.8">E</tspan><tspan class="cls-77" x="36.06" y="10.8">x</tspan><tspan class="cls-53" x="40.28" y="10.8">c</tspan><tspan x="44.35" y="10.8">el</tspan></text><path class="cls-78" d="M314.25,177.25l-.54-.09a3,3,0,0,0-.22-.52l.32-.45a.46.46,0,0,0-.05-.61l-.48-.48a.48.48,0,0,0-.34-.14.5.5,0,0,0-.27.08l-.45.32a3.71,3.71,0,0,0-.55-.22l-.09-.54a.46.46,0,0,0-.47-.39h-.68a.47.47,0,0,0-.47.39l-.09.55a3,3,0,0,0-.52.22l-.45-.32a.51.51,0,0,0-.27-.09.45.45,0,0,0-.34.15l-.48.48a.46.46,0,0,0-.05.61l.32.45a3.49,3.49,0,0,0-.22.53l-.53.09a.48.48,0,0,0-.4.47v.68a.48.48,0,0,0,.4.47l.55.09a2.7,2.7,0,0,0,.22.53l-.32.44a.47.47,0,0,0,.05.61l.48.48a.48.48,0,0,0,.34.14.44.44,0,0,0,.27-.09l.46-.32a2.28,2.28,0,0,0,.51.21l.09.54a.47.47,0,0,0,.47.4h.68a.48.48,0,0,0,.47-.4l.09-.54a2.7,2.7,0,0,0,.53-.22l.44.32a.47.47,0,0,0,.28.09.48.48,0,0,0,.34-.14l.48-.48a.48.48,0,0,0,.05-.61l-.32-.45a3.49,3.49,0,0,0,.22-.53l.54-.09a.47.47,0,0,0,.4-.47v-.68a.48.48,0,0,0-.4-.47Zm0,1.15s0,0,0,0l-.68.12a.2.2,0,0,0-.17.16,2.8,2.8,0,0,1-.28.67.21.21,0,0,0,0,.24l.39.56s0,0,0,.06l-.48.48h-.05l-.56-.4a.23.23,0,0,0-.24,0,2.38,2.38,0,0,1-.68.28.23.23,0,0,0-.16.18l-.11.67a0,0,0,0,1,0,0h-.68a0,0,0,0,1,0,0l-.12-.67a.2.2,0,0,0-.16-.18,2.7,2.7,0,0,1-.66-.27.2.2,0,0,0-.11,0,.28.28,0,0,0-.12,0l-.57.4h-.05l-.48-.48s0,0,0-.06l.4-.55a.23.23,0,0,0,0-.24,2.8,2.8,0,0,1-.28-.67.21.21,0,0,0-.18-.16l-.68-.12s0,0,0,0v-.68s0,0,0,0l.67-.11a.23.23,0,0,0,.18-.17,2.77,2.77,0,0,1,.27-.67.21.21,0,0,0,0-.24l-.4-.56a0,0,0,0,1,0-.06l.48-.48h0l.56.39a.21.21,0,0,0,.24,0,2.64,2.64,0,0,1,.67-.28.21.21,0,0,0,.16-.17l.12-.69s0,0,0,0h.68s0,0,0,0l.11.68a.23.23,0,0,0,.16.17,2.35,2.35,0,0,1,.69.29.23.23,0,0,0,.24,0l.56-.4s0,0,0,0h0l.48.48a0,0,0,0,1,0,.06l-.4.56a.21.21,0,0,0,0,.23,2.71,2.71,0,0,1,.28.68.23.23,0,0,0,.17.16l.68.11s0,0,0,0v.68Zm0,0"/><path class="cls-78" d="M310.79,176.4a1.67,1.67,0,1,0,1.66,1.66,1.66,1.66,0,0,0-1.66-1.66Zm0,2.89a1.23,1.23,0,1,1,1.23-1.23,1.23,1.23,0,0,1-1.23,1.23Zm0,0"/><text class="cls-75" transform="translate(553.72 464.37)">Goog<tspan class="cls-21" x="21.25" y="0">l</tspan><tspan x="23.8" y="0">e ad</tspan><tspan class="cls-72" x="41.18" y="0">v</tspan><tspan x="45.52" y="0">an</tspan><tspan class="cls-53" x="55.86" y="0">c</tspan><tspan class="cls-21" x="59.93" y="0">e</tspan><tspan x="64.54" y="0">d s</tspan><tspan class="cls-21" x="76.3" y="0">e</tspan><tspan x="80.91" y="0">a</tspan><tspan class="cls-73" x="86.03" y="0">r</tspan><tspan x="89.19" y="0">ch</tspan><tspan x="17.64" y="10.8">In</tspan><tspan class="cls-53" x="25.49" y="10.8">c</tspan><tspan x="29.56" y="10.8">ogni</tspan><tspan class="cls-53" x="47.71" y="10.8">t</tspan><tspan x="50.72" y="10.8">o mode</tspan></text><path class="cls-78" d="M552.7,460.39l-.54-.09a3.11,3.11,0,0,0-.22-.53l.32-.45a.46.46,0,0,0,0-.61l-.48-.48a.48.48,0,0,0-.34-.14.44.44,0,0,0-.27.09l-.45.32a3.65,3.65,0,0,0-.54-.23l-.09-.53a.48.48,0,0,0-.48-.4h-.67a.47.47,0,0,0-.47.4l-.1.55a2.62,2.62,0,0,0-.52.22l-.45-.32a.44.44,0,0,0-.27-.09.48.48,0,0,0-.34.14l-.48.48a.46.46,0,0,0,0,.61l.32.46a2.57,2.57,0,0,0-.21.52l-.54.09a.48.48,0,0,0-.4.47v.68a.47.47,0,0,0,.4.47l.55.1a2.62,2.62,0,0,0,.22.52l-.32.44a.5.5,0,0,0,0,.62l.48.48a.48.48,0,0,0,.34.14.47.47,0,0,0,.28-.09l.45-.32a3.89,3.89,0,0,0,.51.21l.09.54a.48.48,0,0,0,.47.4h.68a.48.48,0,0,0,.47-.4l.09-.54a3.49,3.49,0,0,0,.53-.22l.44.32a.47.47,0,0,0,.28.09.48.48,0,0,0,.34-.14l.48-.48a.5.5,0,0,0,0-.62l-.32-.45a3.38,3.38,0,0,0,.22-.52l.54-.09a.48.48,0,0,0,.4-.47v-.68a.47.47,0,0,0-.4-.47Zm0,1.15a0,0,0,0,1,0,0l-.68.11a.23.23,0,0,0-.17.16,2.71,2.71,0,0,1-.28.68.2.2,0,0,0,0,.23l.4.56a0,0,0,0,1,0,.06l-.48.48h0l-.56-.39a.21.21,0,0,0-.24,0,2.71,2.71,0,0,1-.68.28.2.2,0,0,0-.15.17l-.12.68s0,0,0,0h-.68s0,0,0,0l-.11-.68a.23.23,0,0,0-.16-.17,2.55,2.55,0,0,1-.66-.27l-.11,0a.2.2,0,0,0-.13,0l-.56.4h0a0,0,0,0,1,0,0l-.48-.48a0,0,0,0,1,0-.05l.39-.56a.21.21,0,0,0,0-.24,2.64,2.64,0,0,1-.28-.67.23.23,0,0,0-.18-.16l-.68-.12s0,0,0,0v-.68s0,0,0,0l.67-.11a.21.21,0,0,0,.18-.16,2.38,2.38,0,0,1,.28-.68.21.21,0,0,0,0-.23l-.4-.57a0,0,0,0,1,0-.05l.48-.48,0,0h0l.56.4a.23.23,0,0,0,.24,0,2.67,2.67,0,0,1,.67-.29.21.21,0,0,0,.16-.17l.12-.68a0,0,0,0,1,0,0h.68a0,0,0,0,1,0,0l.11.67a.23.23,0,0,0,.16.18,2.5,2.5,0,0,1,.7.28.21.21,0,0,0,.23,0l.56-.4h0s0,0,0,0l.48.48s0,0,0,.05l-.4.56a.23.23,0,0,0,0,.24,2.44,2.44,0,0,1,.28.67.2.2,0,0,0,.17.16l.68.12a0,0,0,0,1,0,0v.68Zm0,0"/><path class="cls-78" d="M549.24,459.53a1.67,1.67,0,1,0,1.67,1.67,1.66,1.66,0,0,0-1.67-1.67Zm0,2.9a1.23,1.23,0,1,1,1.23-1.23,1.23,1.23,0,0,1-1.23,1.23Zm0,0"/><circle class="cls-31" cx="597.49" cy="606.24" r="1.41"/><line class="cls-79" x1="490.57" y1="470.92" x2="490.57" y2="559.18"/><text class="cls-75" transform="translate(375.4 655.84)">RA<tspan class="cls-17" x="10.49" y="0">W</tspan><tspan x="17.78" y="0">g</tspan><tspan class="cls-76" x="23" y="0">r</tspan><tspan x="26.16" y="0">aphs</tspan><tspan x="2.8" y="10.8">Illust</tspan><tspan class="cls-73" x="23.14" y="10.8">r</tspan><tspan x="26.3" y="10.8">a</tspan><tspan class="cls-80" x="31.42" y="10.8">t</tspan><tspan x="34.44" y="10.8">or</tspan></text><path class="cls-78" d="M368.79,652l-.54-.09a3.11,3.11,0,0,0-.22-.53l.32-.45a.47.47,0,0,0-.05-.61l-.48-.48a.48.48,0,0,0-.34-.14.44.44,0,0,0-.27.09l-.45.32a2.91,2.91,0,0,0-.55-.23l-.09-.53a.47.47,0,0,0-.47-.4H365a.48.48,0,0,0-.47.4l-.09.55a2.39,2.39,0,0,0-.52.22l-.45-.32a.47.47,0,0,0-.61.05l-.48.48a.47.47,0,0,0-.06.61l.33.46a3.38,3.38,0,0,0-.22.52l-.53.09a.48.48,0,0,0-.4.47v.68a.47.47,0,0,0,.4.47l.55.1a2.62,2.62,0,0,0,.22.52l-.32.44a.47.47,0,0,0,.05.62l.48.48a.48.48,0,0,0,.34.14.44.44,0,0,0,.27-.09l.46-.32a3.89,3.89,0,0,0,.51.21l.09.54a.46.46,0,0,0,.47.39h.68a.47.47,0,0,0,.47-.39l.09-.54a3,3,0,0,0,.52-.22l.45.32a.55.55,0,0,0,.28.09.45.45,0,0,0,.33-.14l.49-.49a.48.48,0,0,0,.05-.61l-.32-.45a3.38,3.38,0,0,0,.22-.52l.54-.09a.47.47,0,0,0,.39-.47v-.68a.46.46,0,0,0-.39-.47Zm0,1.15s0,0,0,0l-.68.11a.22.22,0,0,0-.17.16,2.87,2.87,0,0,1-.28.68.2.2,0,0,0,0,.23l.39.56a.06.06,0,0,1,0,.06l-.48.48h-.06l-.56-.39a.19.19,0,0,0-.23,0,2.71,2.71,0,0,1-.68.28.23.23,0,0,0-.16.17l-.11.68s0,0,0,0H365s0,0,0,0l-.12-.68a.19.19,0,0,0-.16-.17,3.16,3.16,0,0,1-.66-.27.2.2,0,0,0-.11,0,.17.17,0,0,0-.12,0l-.57.4h0l0,0-.48-.48s0,0,0,0l.4-.56a.23.23,0,0,0,0-.24,2.32,2.32,0,0,1-.28-.67.23.23,0,0,0-.18-.16l-.68-.12a0,0,0,0,1,0,0v-.68s0,0,0,0l.67-.11a.23.23,0,0,0,.18-.16,2.68,2.68,0,0,1,.27-.68.19.19,0,0,0,0-.23l-.4-.57a0,0,0,0,1,0-.05l.48-.48,0,0h0l.56.4a.23.23,0,0,0,.24,0,2.52,2.52,0,0,1,.67-.29.23.23,0,0,0,.16-.17l.11-.68a.07.07,0,0,1,.05,0h.67s0,0,.05,0l.11.67a.21.21,0,0,0,.16.18,2.44,2.44,0,0,1,.69.28.23.23,0,0,0,.24,0l.56-.4h0s0,0,0,0l.48.48a0,0,0,0,1,0,.05l-.4.56a.21.21,0,0,0,0,.24,2.64,2.64,0,0,1,.28.67.2.2,0,0,0,.17.16l.68.12s0,0,0,0v.68Zm0,0"/><path class="cls-78" d="M365.33,651.15a1.67,1.67,0,1,0,1.66,1.67,1.67,1.67,0,0,0-1.66-1.67Zm0,2.9a1.23,1.23,0,1,1,1.23-1.23,1.24,1.24,0,0,1-1.23,1.23Zm0,0"/></g><g id="图层_1" data-name="图层 1"><text class="cls-81" transform="translate(30.06 69.99)">QUE<tspan class="cls-82" x="16.89" y="0">R</tspan><tspan x="22.13" y="0">Y</tspan><tspan x="-9.36" y="10.8">DEFINITION</tspan></text><text class="cls-81" transform="translate(33.66 154.48)"><tspan class="cls-17">D</tspan><tspan class="cls-56" x="5.74" y="0">AT</tspan><tspan x="14.86" y="0">A</tspan><tspan x="-17.7" y="10.8">EXP</tspan><tspan class="cls-83" x="-2.56" y="10.8">L</tspan><tspan x="1.61" y="10.8">OR</tspan><tspan class="cls-84" x="13.33" y="10.8">A</tspan><tspan x="18.13" y="10.8">TION</tspan></text><text class="cls-81" transform="translate(33.66 232.97)"><tspan class="cls-17">D</tspan><tspan class="cls-56" x="5.74" y="0">AT</tspan><tspan x="14.86" y="0">A</tspan><tspan x="-12.98" y="10.8">G</tspan><tspan class="cls-84" x="-7.24" y="10.8">A</tspan><tspan x="-2.44" y="10.8">THERING</tspan></text><rect class="cls-79" x="0.41" y="58.53" width="86.59" height="26.73"/><text class="cls-81" transform="translate(477.06 455.99)">QUE<tspan class="cls-82" x="16.89" y="0">R</tspan><tspan x="22.13" y="0">Y</tspan><tspan x="-9.36" y="10.8">DEFINITION</tspan></text><rect class="cls-79" x="447.41" y="444.53" width="86.59" height="26.73"/><rect class="cls-79" x="0.41" y="142.03" width="86.59" height="29.49"/><rect class="cls-79" x="0.41" y="221.95" width="86.59" height="27"/><text class="cls-81" transform="translate(480.66 569.97)"><tspan class="cls-17">D</tspan><tspan class="cls-56" x="5.74" y="0">AT</tspan><tspan x="14.86" y="0">A</tspan><tspan x="-12.98" y="10.8">G</tspan><tspan class="cls-84" x="-7.24" y="10.8">A</tspan><tspan x="-2.44" y="10.8">THERING</tspan></text><rect class="cls-79" x="447.41" y="558.95" width="86.59" height="27"/><line class="cls-79" x1="43.29" y1="85" x2="43.29" y2="142"/><line class="cls-79" x1="43.16" y1="171.52" x2="43.16" y2="222"/></g></svg>