<svg xmlns="http://www.w3.org/2000/svg" viewBox="0 0 804 842"><defs><style>.cls-1{font-size:12px;}.cls-1,.cls-10,.cls-3,.cls-33,.cls-49,.cls-71{fill:#fff;}.cls-1,.cls-10,.cls-49,.cls-71,.cls-87{font-family:FiraSans-Medium, Fira Sans;font-weight:500;}.cls-2{letter-spacing:-0.03em;}.cls-10,.cls-3,.cls-87{font-size:11px;}.cls-13,.cls-14,.cls-15,.cls-16,.cls-25,.cls-26,.cls-27,.cls-3,.cls-33,.cls-82,.cls-83,.cls-85,.cls-86{font-family:FiraSans-Light, Fira Sans;font-weight:300;}.cls-4{letter-spacing:-0.03em;}.cls-25,.cls-5{letter-spacing:-0.03em;}.cls-6{letter-spacing:-0.01em;}.cls-7{letter-spacing:-0.01em;}.cls-8{letter-spacing:-0.02em;}.cls-9{letter-spacing:-0.01em;}.cls-11{letter-spacing:-0.01em;}.cls-12{letter-spacing:-0.01em;}.cls-14{letter-spacing:-0.03em;}.cls-15{letter-spacing:-0.07em;}.cls-16{letter-spacing:-0.03em;}.cls-17,.cls-26{letter-spacing:0em;}.cls-18{letter-spacing:-0.02em;}.cls-19{letter-spacing:-0.01em;}.cls-20{letter-spacing:-0.02em;}.cls-21{letter-spacing:-0.01em;}.cls-22,.cls-89,.cls-98{fill:none;}.cls-22,.cls-24,.cls-89{stroke:#95c11f;}.cls-22,.cls-24,.cls-89,.cls-98{stroke-miterlimit:10;stroke-width:0.75px;}.cls-23{fill:#95c11f;}.cls-27,.cls-29{letter-spacing:-0.01em;}.cls-28{letter-spacing:0em;}.cls-30{letter-spacing:0em;}.cls-31{letter-spacing:-0.01em;}.cls-32{letter-spacing:-0.02em;}.cls-33,.cls-71,.cls-91{font-size:9px;}.cls-34{letter-spacing:-0.01em;}.cls-35{letter-spacing:0em;}.cls-36,.cls-85{letter-spacing:-0.03em;}.cls-37,.cls-83{letter-spacing:-0.01em;}.cls-38{letter-spacing:-0.01em;}.cls-39{letter-spacing:-0.01em;}.cls-40{letter-spacing:-0.03em;}.cls-41{letter-spacing:0em;}.cls-42{letter-spacing:-0.01em;}.cls-43{letter-spacing:-0.02em;}.cls-44{letter-spacing:-0.01em;}.cls-45{letter-spacing:0em;}.cls-46{letter-spacing:-0.01em;}.cls-47{letter-spacing:-0.01em;}.cls-48{letter-spacing:0em;}.cls-49{font-size:10px;}.cls-50{letter-spacing:-0.02em;}.cls-51{letter-spacing:-0.03em;}.cls-52{letter-spacing:-0.01em;}.cls-53{letter-spacing:0.01em;}.cls-54{letter-spacing:0em;}.cls-55{letter-spacing:-0.01em;}.cls-56{letter-spacing:-0.01em;}.cls-57{letter-spacing:-0.04em;}.cls-58{letter-spacing:0em;}.cls-59{letter-spacing:-0.01em;}.cls-60{letter-spacing:-0.02em;}.cls-61{letter-spacing:-0.01em;}.cls-62{letter-spacing:-0.01em;}.cls-63{letter-spacing:-0.02em;}.cls-64{letter-spacing:0em;}.cls-65{letter-spacing:-0.06em;}.cls-66{letter-spacing:-0.03em;}.cls-67{letter-spacing:0em;}.cls-68{letter-spacing:-0.03em;}.cls-69{letter-spacing:-0.01em;}.cls-70{letter-spacing:-0.01em;}.cls-72{letter-spacing:-0.01em;}.cls-73{letter-spacing:0em;}.cls-74,.cls-82{letter-spacing:-0.01em;}.cls-75{letter-spacing:-0.01em;}.cls-76{letter-spacing:-0.01em;}.cls-77{letter-spacing:-0.01em;}.cls-78{letter-spacing:-0.01em;}.cls-79{letter-spacing:-0.02em;}.cls-80{letter-spacing:-0.02em;}.cls-81{letter-spacing:-0.02em;}.cls-84{letter-spacing:-0.03em;}.cls-86{letter-spacing:-0.06em;}.cls-87,.cls-91,.cls-94{fill:gray;}.cls-88{letter-spacing:-0.05em;}.cls-89{stroke-dasharray:2;}.cls-90{letter-spacing:-0.02em;}.cls-91{font-family:FiraSans-Italic, Fira Sans;font-style:italic;}.cls-92{letter-spacing:0em;}.cls-93{letter-spacing:-0.03em;}.cls-95{letter-spacing:-0.02em;}.cls-96{letter-spacing:-0.01em;}.cls-97{letter-spacing:-0.01em;}.cls-98{stroke:#666;}.cls-99{letter-spacing:-0.03em;}.cls-100{letter-spacing:-0.02em;}.cls-101{letter-spacing:-0.03em;}.cls-102{letter-spacing:-0.05em;}.cls-103{letter-spacing:-0.04em;}.cls-104{letter-spacing:-0.05em;}</style></defs><title>protocols</title><g id="图层_2" data-name="图层 2"><text class="cls-1" transform="translate(131.95 312.56)">1 QUE<tspan class="cls-2" x="30.92" y="0">R</tspan><tspan x="37.91" y="0">Y</tspan></text><text class="cls-3" transform="translate(352.6 14.58)"><tspan class="cls-4">F</tspan><tspan class="cls-5" x="4.91" y="0">r</tspan><tspan x="8.68" y="0">om the da</tspan><tspan class="cls-6" x="58.88" y="0">t</tspan><tspan class="cls-7" x="62.57" y="0">a</tspan><tspan x="68.35" y="0">set of the Visu</tspan><tspan class="cls-7" x="138.64" y="0">a</tspan><tspan x="144.43" y="0">li</tspan><tspan class="cls-8" x="150.52" y="0">z</tspan><tspan x="155" y="0">ation </tspan><tspan class="cls-9" x="183.39" y="0">#</tspan><tspan x="188.79" y="0">3</tspan></text><text class="cls-10" transform="translate(388.28 55.14)">SEL<tspan class="cls-11" x="17.56" y="0">E</tspan><tspan class="cls-12" x="23.24" y="0">C</tspan><tspan x="29.38" y="0">TING</tspan><tspan class="cls-13" x="52.86" y="0" xml:space="preserve"> the 2</tspan><tspan class="cls-14" x="80.33" y="0">0</tspan><tspan class="cls-13" x="86.08" y="0">17</tspan><tspan class="cls-15" x="95.42" y="0">-</tspan><tspan class="cls-13" x="99.05" y="0">2</tspan><tspan class="cls-16" x="104.32" y="0">0</tspan><tspan class="cls-13" x="110.06" y="0">18</tspan><tspan class="cls-13"><tspan x="-7.58" y="13.2">Goog</tspan><tspan class="cls-17" x="17.31" y="13.2">l</tspan><tspan x="20.38" y="13.2">e News fi</tspan><tspan class="cls-18" x="64.69" y="13.2">r</tspan><tspan x="68.59" y="13.2">st 50 </tspan><tspan class="cls-5" x="94.99" y="13.2">r</tspan><tspan x="98.76" y="13.2">esults</tspan><tspan class="cls-12" x="13.02" y="26.4">f</tspan><tspan x="16.44" y="26.4">or M</tspan><tspan class="cls-19" x="38.36" y="26.4">e</tspan><tspan x="44.18" y="26.4">xi</tspan><tspan class="cls-20" x="52.2" y="26.4">c</tspan><tspan x="57.17" y="26.4">o and </tspan><tspan class="cls-21" x="88.35" y="26.4">U</tspan><tspan class="cls-17" x="95.42" y="26.4">S</tspan><tspan x="101.29" y="26.4">A</tspan></tspan></text><line class="cls-22" x1="449.49" y1="22" x2="449.49" y2="40.75"/><polygon class="cls-23" points="446.43 38.26 446.97 37.75 449.49 40.46 452.01 37.75 452.56 38.26 449.49 41.56 446.43 38.26"/><circle class="cls-24" cx="449.49" cy="21.24" r="1.41"/><text class="cls-10" transform="translate(385.88 123.16)">IDENTI<tspan class="cls-17" x="32.65" y="0">F</tspan><tspan x="37.97" y="0">YING</tspan><tspan class="cls-13" x="61.93" y="0" xml:space="preserve"> the 50 </tspan><tspan class="cls-25" x="98.62" y="0">r</tspan><tspan class="cls-13" x="102.39" y="0">e</tspan><tspan class="cls-26" x="108.28" y="0">l</tspan><tspan class="cls-13" x="111.35" y="0">a</tspan><tspan class="cls-27" x="117.25" y="0">t</tspan><tspan class="cls-13" x="120.87" y="0">ed </tspan><tspan class="cls-13"><tspan x="6.7" y="13.2">news p</tspan><tspan class="cls-5" x="41.26" y="13.2">r</tspan><tspan class="cls-28" x="45.03" y="13.2">o</tspan><tspan x="51.29" y="13.2">vide</tspan><tspan class="cls-18" x="71.76" y="13.2">r</tspan><tspan x="75.67" y="13.2">s websi</tspan><tspan class="cls-29" x="111.88" y="13.2">t</tspan><tspan x="115.5" y="13.2">es</tspan></tspan></text><line class="cls-22" x1="449.49" y1="90.02" x2="449.49" y2="108.77"/><polygon class="cls-23" points="446.43 106.28 446.97 105.77 449.49 108.48 452.01 105.77 452.56 106.28 449.49 109.58 446.43 106.28"/><circle class="cls-24" cx="449.49" cy="89.19" r="1.41"/><text class="cls-3" transform="translate(129.91 266.51)"><tspan class="cls-8">R</tspan><tspan x="6.32" y="0">e</tspan><tspan class="cls-17" x="12.22" y="0">l</tspan><tspan class="cls-30" x="15.29" y="0">e</tspan><tspan class="cls-31" x="21.16" y="0">v</tspan><tspan x="26.19" y="0">an</tspan><tspan class="cls-32" x="38.51" y="0">c</tspan><tspan x="43.48" y="0">e</tspan></text><text class="cls-3" transform="translate(434.68 264.51)">Origin</text><text class="cls-3" transform="translate(681.33 264.51)">Natu<tspan class="cls-5" x="23.42" y="0">r</tspan><tspan x="27.19" y="0">e</tspan></text><text class="cls-33" transform="translate(648.52 453.51)">News<tspan class="cls-34" x="21.34" y="0">p</tspan><tspan class="cls-35" x="26.48" y="0">aper </tspan><tspan x="0" y="10.8">B</tspan><tspan class="cls-36" x="5.38" y="10.8">r</tspan><tspan class="cls-37" x="8.47" y="10.8">o</tspan><tspan x="13.52" y="10.8">ad</tspan><tspan class="cls-37" x="23.61" y="10.8">ca</tspan><tspan x="32.47" y="10.8">sting </tspan><tspan class="cls-37" x="54.44" y="10.8">a</tspan><tspan class="cls-38" x="59.17" y="10.8">g</tspan><tspan x="63.58" y="10.8">ency websi</tspan><tspan class="cls-39" x="107.55" y="10.8">t</tspan><tspan x="110.51" y="10.8">e</tspan><tspan x="0" y="21.6">Gene</tspan><tspan class="cls-40" x="20.47" y="21.6">r</tspan><tspan class="cls-37" x="23.51" y="21.6">a</tspan><tspan x="28.24" y="21.6">l news websi</tspan><tspan class="cls-39" x="79.3" y="21.6">t</tspan><tspan x="82.26" y="21.6">e</tspan><tspan x="0" y="32.4">News p</tspan><tspan class="cls-36" x="29.08" y="32.4">r</tspan><tspan class="cls-41" x="32.17" y="32.4">o</tspan><tspan x="37.29" y="32.4">vider </tspan><tspan class="cls-37" x="59.9" y="32.4">a</tspan><tspan class="cls-38" x="64.64" y="32.4">g</tspan><tspan class="cls-35" x="69.05" y="32.4">ency</tspan><tspan x="0" y="43.2">Online m</tspan><tspan class="cls-42" x="36.73" y="43.2">a</tspan><tspan class="cls-43" x="41.46" y="43.2">g</tspan><tspan class="cls-35" x="45.84" y="43.2">azine</tspan><tspan x="0" y="54">Digi</tspan><tspan class="cls-44" x="15.07" y="54">t</tspan><tspan class="cls-42" x="18.09" y="54">a</tspan><tspan class="cls-45" x="22.82" y="54">l media </tspan><tspan class="cls-42" x="55.42" y="54">a</tspan><tspan class="cls-46" x="60.16" y="54">g</tspan><tspan class="cls-35" x="64.56" y="54">ency news </tspan><tspan class="cls-34" x="108.64" y="54">pa</tspan><tspan class="cls-38" x="118.51" y="54">g</tspan><tspan x="122.92" y="54">e</tspan></text><text/><line class="cls-22" x1="450.49" y1="144.04" x2="450.49" y2="168.37"/><polygon class="cls-23" points="447.43 165.89 447.97 165.37 450.49 168.08 453.01 165.37 453.56 165.89 450.49 169.19 447.43 165.89"/><circle class="cls-24" cx="450.49" cy="143.21" r="1.41"/><text class="cls-10" transform="translate(419.01 181.28)">CLA<tspan class="cls-47" x="18.23" y="0">S</tspan><tspan x="24.27" y="0">SI</tspan><tspan class="cls-17" x="33.66" y="0">F</tspan><tspan x="38.99" y="0">YING</tspan><tspan class="cls-13" x="62.94" y="0"> </tspan><tspan class="cls-13"><tspan x="11.45" y="13.2">them </tspan><tspan class="cls-48" x="39.97" y="13.2">b</tspan><tspan x="46.34" y="13.2">y</tspan></tspan></text><line class="cls-22" x1="449.68" y1="202.11" x2="449.68" y2="252.19"/><polygon class="cls-23" points="446.62 249.7 447.17 249.19 449.68 251.9 452.2 249.19 452.75 249.7 449.68 253 446.62 249.7"/><circle class="cls-24" cx="450.49" cy="202.23" r="1.41"/><line class="cls-22" x1="698" y1="231.12" x2="154" y2="231.12"/><line class="cls-22" x1="697" y1="746.68" x2="156" y2="746.68"/><line class="cls-22" x1="154.49" y1="231" x2="154.49" y2="255.52"/><polygon class="cls-23" points="151.42 253.03 151.97 252.52 154.49 255.23 157.01 252.52 157.56 253.03 154.49 256.33 151.42 253.03"/><line class="cls-22" x1="697.59" y1="232.83" x2="697.59" y2="255.52"/><polygon class="cls-23" points="694.52 253.03 695.07 252.52 697.59 255.23 700.11 252.52 700.65 253.03 697.59 256.33 694.52 253.03"/><line class="cls-22" x1="154.35" y1="274.07" x2="154.35" y2="296.52"/><polygon class="cls-23" points="151.28 294.03 151.83 293.52 154.34 296.23 156.86 293.52 157.41 294.03 154.34 297.33 151.28 294.03"/><circle class="cls-24" cx="154.35" cy="274.07" r="1.41"/><text class="cls-49" transform="translate(122.66 371.33)">si<tspan class="cls-50" x="7.58" y="0">t</tspan><tspan x="11.16" y="0">e: “websi</tspan><tspan class="cls-50" x="52.21" y="0">t</tspan><tspan x="55.79" y="0">e of news p</tspan><tspan class="cls-51" x="107.45" y="0">r</tspan><tspan class="cls-52" x="111.09" y="0">o</tspan><tspan x="116.87" y="0">vide</tspan><tspan class="cls-53" x="136.21" y="0">r</tspan><tspan class="cls-54" x="140.21" y="0">” </tspan><tspan x="0" y="12">A</tspan><tspan class="cls-55" x="5.83" y="12">v</tspan><tspan x="10.81" y="12">o</tspan><tspan class="cls-56" x="16.65" y="12">c</tspan><tspan x="21.33" y="12">ado + t</tspan><tspan class="cls-57" x="52.53" y="12">r</tspan><tspan x="56.12" y="12">ade</tspan><tspan class="cls-13"><tspan class="cls-58" x="0" y="24">l</tspan><tspan x="2.79" y="24">ang: ENG</tspan><tspan class="cls-58" x="0" y="36">l</tspan><tspan x="2.79" y="36">o</tspan><tspan class="cls-59" x="8.5" y="36">ca</tspan><tspan x="18.35" y="36">li</tspan><tspan class="cls-60" x="23.89" y="36">z</tspan><tspan x="27.96" y="36">ation: </tspan><tspan class="cls-61" x="55.84" y="36">U</tspan><tspan class="cls-58" x="62.27" y="36">S</tspan><tspan x="67.61" y="36">A</tspan></tspan><tspan x="0" y="51">si</tspan><tspan class="cls-50" x="7.58" y="51">t</tspan><tspan x="11.16" y="51">e: “websi</tspan><tspan class="cls-50" x="52.21" y="51">t</tspan><tspan x="55.79" y="51">e of news p</tspan><tspan class="cls-51" x="107.45" y="51">r</tspan><tspan class="cls-52" x="111.09" y="51">o</tspan><tspan x="116.87" y="51">vide</tspan><tspan class="cls-53" x="136.21" y="51">r</tspan><tspan class="cls-54" x="140.21" y="51">” </tspan><tspan x="0" y="63">A</tspan><tspan class="cls-62" x="5.83" y="63">g</tspan><tspan x="11.1" y="63">ua</tspan><tspan class="cls-56" x="22.33" y="63">c</tspan><tspan x="27.01" y="63">a</tspan><tspan class="cls-50" x="32.47" y="63">t</tspan><tspan x="36.05" y="63">e + t</tspan><tspan class="cls-57" x="55.45" y="63">r</tspan><tspan x="59.04" y="63">afi</tspan><tspan class="cls-63" x="70.38" y="63">c</tspan><tspan class="cls-64" x="74.96" y="63">o</tspan><tspan class="cls-13"><tspan class="cls-58" x="0" y="75">l</tspan><tspan x="2.79" y="75">ang: </tspan><tspan class="cls-59" x="23.88" y="75">E</tspan><tspan x="28.9" y="75">S</tspan><tspan class="cls-58" x="0" y="87">l</tspan><tspan x="2.79" y="87">o</tspan><tspan class="cls-59" x="8.5" y="87">ca</tspan><tspan x="18.35" y="87">li</tspan><tspan class="cls-60" x="23.89" y="87">z</tspan><tspan x="27.96" y="87">ation: MEX</tspan></tspan><tspan class="cls-65" x="0" y="102">Y</tspan><tspan class="cls-56" x="5.11" y="102">e</tspan><tspan x="10.5" y="102">ar</tspan><tspan class="cls-13"><tspan x="0" y="114">2</tspan><tspan class="cls-66" x="4.79" y="114">0</tspan><tspan x="10.01" y="114">18*</tspan><tspan x="0" y="126">(</tspan><tspan class="cls-67" x="3.24" y="126">*</tspan><tspan x="7.64" y="126">f</tspan><tspan class="cls-68" x="10.85" y="126">r</tspan><tspan x="14.28" y="126">om January </tspan><tspan class="cls-69" x="67.77" y="126">t</tspan><tspan x="71.06" y="126">o Oc</tspan><tspan class="cls-70" x="91.16" y="126">t</tspan><tspan x="94.45" y="126">ober)</tspan></tspan></text><text class="cls-71" transform="translate(397.85 532.31)"><tspan class="cls-72">U<tspan class="cls-73" x="5.85" y="0">S</tspan><tspan class="cls-45" x="10.85" y="0">A</tspan></tspan><tspan class="cls-13"><tspan class="cls-74" x="0" y="10.8">U</tspan><tspan class="cls-75" x="5.79" y="10.8">S</tspan><tspan x="10.59" y="10.8">A</tspan><tspan x="0" y="21.6">South Afri</tspan><tspan class="cls-34" x="39.8" y="21.6">c</tspan><tspan class="cls-35" x="43.93" y="21.6">a</tspan><tspan class="cls-39" x="0" y="32.4">K</tspan><tspan class="cls-35" x="4.81" y="32.4">e</tspan><tspan class="cls-74" x="9.64" y="32.4">n</tspan><tspan class="cls-38" x="14.81" y="32.4">y</tspan><tspan x="18.91" y="32.4">a</tspan><tspan class="cls-74" x="0" y="43.2">U</tspan><tspan class="cls-75" x="5.79" y="43.2">S</tspan><tspan x="10.59" y="43.2">A (</tspan><tspan class="cls-42" x="21.1" y="43.2">Ca</tspan><tspan x="30.7" y="43.2">li</tspan><tspan class="cls-34" x="35.68" y="43.2">f</tspan><tspan x="38.48" y="43.2">ornia)</tspan><tspan x="0" y="54">M</tspan><tspan class="cls-76" x="6.93" y="54">e</tspan><tspan x="11.69" y="54">xi</tspan><tspan class="cls-43" x="18.25" y="54">c</tspan><tspan x="22.32" y="54">o</tspan><tspan class="cls-37" x="0" y="64.8">C</tspan><tspan x="4.86" y="64.8">hina</tspan><tspan x="0" y="75.6">M</tspan><tspan class="cls-42" x="6.93" y="75.6">a</tspan><tspan class="cls-75" x="11.66" y="75.6">l</tspan><tspan class="cls-77" x="14.17" y="75.6">a</tspan><tspan class="cls-72" x="18.86" y="75.6">y</tspan><tspan x="23.02" y="75.6">sia</tspan></tspan></text><text class="cls-71" transform="translate(474.51 532.31)">M<tspan class="cls-78" x="7.04" y="0">e</tspan><tspan x="11.88" y="0">xi</tspan><tspan class="cls-79" x="18.92" y="0">c</tspan><tspan x="23.04" y="0">o</tspan><tspan class="cls-13"><tspan x="0" y="10.8">A</tspan><tspan class="cls-80" x="5.08" y="10.8">r</tspan><tspan class="cls-38" x="8.28" y="10.8">g</tspan><tspan x="12.69" y="10.8">entina</tspan><tspan x="0" y="21.6">M</tspan><tspan class="cls-76" x="6.93" y="21.6">e</tspan><tspan x="11.69" y="21.6">xi</tspan><tspan class="cls-81" x="18.25" y="21.6">c</tspan><tspan x="22.32" y="21.6">o</tspan><tspan class="cls-74" x="0" y="32.4">U</tspan><tspan class="cls-73" x="5.79" y="32.4">S</tspan><tspan class="cls-45" x="10.59" y="32.4">A (</tspan><tspan class="cls-37" x="21.1" y="32.4">Ca</tspan><tspan x="30.7" y="32.4">li</tspan><tspan class="cls-34" x="35.68" y="32.4">f</tspan><tspan x="38.48" y="32.4">ornia)</tspan></tspan><tspan class="cls-82"><tspan x="0" y="43.2">U</tspan><tspan class="cls-73" x="5.79" y="43.2">S</tspan><tspan class="cls-45" x="10.59" y="43.2">A</tspan></tspan><tspan class="cls-83"><tspan x="0" y="54">C</tspan><tspan class="cls-35" x="4.86" y="54">anarie</tspan></tspan><tspan class="cls-13"><tspan class="cls-84" x="0" y="64.8">V</tspan><tspan x="4.69" y="64.8">en</tspan><tspan class="cls-72" x="14.77" y="64.8">e</tspan><tspan class="cls-37" x="19.54" y="64.8">z</tspan><tspan x="23.25" y="64.8">ue</tspan><tspan class="cls-73" x="33.28" y="64.8">l</tspan><tspan x="35.79" y="64.8">a</tspan><tspan x="0" y="75.6">M</tspan><tspan class="cls-76" x="6.93" y="75.6">e</tspan><tspan x="11.69" y="75.6">xi</tspan><tspan class="cls-81" x="18.25" y="75.6">c</tspan><tspan x="22.32" y="75.6">o (Mich</tspan><tspan class="cls-37" x="51.72" y="75.6">o</tspan><tspan x="56.77" y="75.6">a</tspan><tspan class="cls-42" x="61.6" y="75.6">c</tspan><tspan x="65.73" y="75.6">an)</tspan><tspan x="0" y="86.4">S</tspan><tspan class="cls-34" x="4.85" y="86.4">p</tspan><tspan class="cls-35" x="9.99" y="86.4">ain</tspan><tspan x="0" y="97.2">S</tspan><tspan class="cls-34" x="4.85" y="97.2">p</tspan><tspan class="cls-35" x="9.99" y="97.2">ain (B</tspan><tspan class="cls-37" x="33.31" y="97.2">a</tspan><tspan x="38.04" y="97.2">sque </tspan><tspan class="cls-79" x="60.03" y="97.2">C</tspan><tspan class="cls-45" x="64.8" y="97.2">ountry)</tspan></tspan><tspan class="cls-85"><tspan x="0" y="108">P</tspan><tspan class="cls-35" x="4.86" y="108">eru</tspan></tspan><tspan class="cls-13"><tspan x="0" y="118.8">S</tspan><tspan class="cls-34" x="4.85" y="118.8">p</tspan><tspan class="cls-35" x="9.99" y="118.8">ain (M</tspan><tspan class="cls-37" x="34.86" y="118.8">a</tspan><tspan class="cls-73" x="39.59" y="118.8">l</tspan><tspan class="cls-37" x="42.1" y="118.8">a</tspan><tspan class="cls-81" x="46.84" y="118.8">g</tspan><tspan x="51.21" y="118.8">a)</tspan><tspan class="cls-79" x="0" y="129.6">C</tspan><tspan x="4.77" y="129.6">o</tspan><tspan class="cls-75" x="9.91" y="129.6">l</tspan><tspan x="12.42" y="129.6">ombia</tspan></tspan><tspan class="cls-86"><tspan x="0" y="140.4">T</tspan><tspan class="cls-35" x="3.96" y="140.4">eneri</tspan><tspan class="cls-34" x="24.65" y="140.4">f</tspan><tspan class="cls-35" x="27.45" y="140.4">e</tspan></tspan><tspan class="cls-13"><tspan class="cls-37" x="0" y="151.2">C</tspan><tspan x="4.86" y="151.2">hi</tspan><tspan class="cls-73" x="12.55" y="151.2">l</tspan><tspan x="15.06" y="151.2">e</tspan></tspan></text><line class="cls-22" x1="156.35" y1="513.5" x2="156.35" y2="626.94"/><polygon class="cls-23" points="153.28 624.45 153.83 623.94 156.34 626.65 158.86 623.94 159.41 624.45 156.34 627.75 153.28 624.45"/><line class="cls-22" x1="449.5" y1="270.83" x2="449.5" y2="290.52"/><polygon class="cls-23" points="446.43 288.03 446.98 287.52 449.5 290.23 452.01 287.52 452.56 288.03 449.5 291.33 446.43 288.03"/><circle class="cls-24" cx="449.49" cy="272.24" r="1.41"/><circle class="cls-24" cx="156.49" cy="513.24" r="1.41"/><line class="cls-22" x1="697.38" y1="272.9" x2="697.38" y2="377.42"/><polygon class="cls-23" points="694.32 374.94 694.87 374.42 697.38 377.13 699.9 374.42 700.45 374.94 697.38 378.23 694.32 374.94"/><circle class="cls-24" cx="697.49" cy="272.24" r="1.41"/><text class="cls-87" transform="translate(413.76 815.61)">VIS<tspan class="cls-7" x="15.6" y="0">U</tspan><tspan x="22.7" y="0">ALIZ</tspan><tspan class="cls-88" x="43.79" y="0">A</tspan><tspan x="49.65" y="0">TION</tspan></text><line class="cls-89" x1="410" y1="505.27" x2="488" y2="505.27"/><text class="cls-71" transform="translate(396.75 360.38)">Name of the news p<tspan class="cls-36" x="80.9" y="0">r</tspan><tspan class="cls-72" x="84.18" y="0">o</tspan><tspan class="cls-45" x="89.38" y="0">vider</tspan></text><text class="cls-10" transform="translate(417.57 434.2)">IDENTI<tspan class="cls-17" x="32.65" y="0">F</tspan><tspan x="37.97" y="0">YING</tspan><tspan class="cls-13" x="61.93" y="0"> </tspan><tspan class="cls-13"><tspan class="cls-7" x="-12.96" y="13.2">c</tspan><tspan x="-7.91" y="13.2">a</tspan><tspan class="cls-29" x="-2.02" y="13.2">t</tspan><tspan x="1.6" y="13.2">e</tspan><tspan class="cls-31" x="7.5" y="13.2">g</tspan><tspan x="12.89" y="13.2">ories </tspan><tspan class="cls-5" x="40.31" y="13.2">r</tspan><tspan x="44.08" y="13.2">e</tspan><tspan class="cls-17" x="49.98" y="13.2">l</tspan><tspan x="53.05" y="13.2">a</tspan><tspan class="cls-29" x="58.94" y="13.2">t</tspan><tspan x="62.56" y="13.2">ed</tspan><tspan class="cls-29" x="0.77" y="26.4">t</tspan><tspan x="4.39" y="26.4">o the origin </tspan><tspan x="-0.98" y="39.6">in </tspan><tspan class="cls-7" x="11.48" y="39.6">e</tspan><tspan x="17.26" y="39.6">ach news </tspan><tspan x="-15.97" y="52.8">p</tspan><tspan class="cls-5" x="-9.58" y="52.8">r</tspan><tspan class="cls-30" x="-5.81" y="52.8">o</tspan><tspan x="0.45" y="52.8">vide</tspan><tspan class="cls-90" x="20.92" y="52.8">r</tspan><tspan class="cls-8" x="24.83" y="52.8">s</tspan><tspan x="29.77" y="52.8">’ websi</tspan><tspan class="cls-29" x="63.28" y="52.8">t</tspan><tspan x="66.9" y="52.8">es</tspan></tspan></text><text/><line class="cls-22" x1="449.44" y1="371.66" x2="449.44" y2="414.42"/><polygon class="cls-23" points="446.37 411.94 446.92 411.42 449.44 414.13 451.96 411.42 452.51 411.94 449.44 415.23 446.37 411.94"/><text class="cls-91" transform="translate(110.88 323.7)">Goog<tspan class="cls-73" x="21.25" y="0">l</tspan><tspan x="23.8" y="0">e ad</tspan><tspan class="cls-92" x="41.18" y="0">v</tspan><tspan x="45.52" y="0">an</tspan><tspan class="cls-79" x="55.86" y="0">c</tspan><tspan class="cls-73" x="59.93" y="0">e</tspan><tspan x="64.54" y="0">d s</tspan><tspan class="cls-73" x="76.3" y="0">e</tspan><tspan x="80.91" y="0">a</tspan><tspan class="cls-93" x="86.03" y="0">r</tspan><tspan x="89.19" y="0">ch</tspan><tspan x="17.64" y="10.8">In</tspan><tspan class="cls-79" x="25.49" y="10.8">c</tspan><tspan x="29.56" y="10.8">ogni</tspan><tspan class="cls-79" x="47.71" y="10.8">t</tspan><tspan x="50.72" y="10.8">o mode</tspan></text><path class="cls-94" d="M109,320.72l-.54-.09a3.11,3.11,0,0,0-.22-.53l.32-.45a.46.46,0,0,0,0-.61l-.48-.48a.48.48,0,0,0-.34-.14.44.44,0,0,0-.27.09l-.45.32a3.65,3.65,0,0,0-.54-.23l-.09-.53a.48.48,0,0,0-.48-.4h-.67a.47.47,0,0,0-.47.4l-.1.55a2.62,2.62,0,0,0-.52.22l-.45-.32a.44.44,0,0,0-.27-.09.48.48,0,0,0-.34.14l-.48.48a.46.46,0,0,0,0,.61l.32.46a2.57,2.57,0,0,0-.21.52l-.54.09a.48.48,0,0,0-.4.48v.67a.47.47,0,0,0,.4.47l.55.1a2.62,2.62,0,0,0,.22.52l-.32.44a.5.5,0,0,0,0,.62l.48.48a.48.48,0,0,0,.34.14.47.47,0,0,0,.28-.09l.45-.32a3.89,3.89,0,0,0,.51.21l.09.54a.48.48,0,0,0,.47.4h.68a.48.48,0,0,0,.47-.4l.09-.54a3.49,3.49,0,0,0,.53-.22l.44.32a.47.47,0,0,0,.28.09.48.48,0,0,0,.34-.14l.48-.48a.5.5,0,0,0,0-.62l-.32-.45a3.38,3.38,0,0,0,.22-.52l.54-.09a.48.48,0,0,0,.4-.47v-.68a.48.48,0,0,0-.4-.47Zm0,1.15a0,0,0,0,1,0,0l-.68.11a.23.23,0,0,0-.17.16,2.71,2.71,0,0,1-.28.68.21.21,0,0,0,0,.23l.4.57a0,0,0,0,1,0,0l-.48.48h0l-.56-.4a.21.21,0,0,0-.24,0,2.8,2.8,0,0,1-.67.28.2.2,0,0,0-.16.17l-.12.68s0,0,0,0h-.68s0,0,0,0l-.11-.68a.23.23,0,0,0-.16-.17,2.55,2.55,0,0,1-.66-.27l-.11,0a.2.2,0,0,0-.13,0l-.56.4h0a0,0,0,0,1,0,0l-.48-.48a0,0,0,0,1,0-.05l.39-.56a.2.2,0,0,0,0-.23,2.71,2.71,0,0,1-.28-.68.23.23,0,0,0-.18-.16l-.68-.11a.05.05,0,0,1,0-.05v-.67a0,0,0,0,1,0,0l.67-.11a.21.21,0,0,0,.18-.16,2.38,2.38,0,0,1,.28-.68.21.21,0,0,0,0-.23l-.4-.57a0,0,0,0,1,0-.05l.48-.48h0l.56.4a.23.23,0,0,0,.24,0,2.32,2.32,0,0,1,.67-.28.23.23,0,0,0,.16-.18l.12-.68a0,0,0,0,1,0,0h.68a0,0,0,0,1,0,0l.11.67a.23.23,0,0,0,.16.18,2.5,2.5,0,0,1,.7.28.21.21,0,0,0,.23,0l.56-.4h0l0,0,.48.48s0,0,0,0l-.4.56a.23.23,0,0,0,0,.24,2.44,2.44,0,0,1,.28.67.2.2,0,0,0,.17.16l.68.12a0,0,0,0,1,0,0v.68Zm0,0"/><path class="cls-94" d="M105.55,319.86a1.67,1.67,0,1,0,1.67,1.67,1.66,1.66,0,0,0-1.67-1.67Zm0,2.9a1.23,1.23,0,1,1,1.23-1.23,1.23,1.23,0,0,1-1.23,1.23Zm0,0"/><text class="cls-91" transform="translate(404.62 316.84)">Goog<tspan class="cls-73" x="21.25" y="0">l</tspan><tspan x="23.8" y="0">e ad</tspan><tspan class="cls-92" x="41.18" y="0">v</tspan><tspan x="45.52" y="0">an</tspan><tspan class="cls-79" x="55.86" y="0">c</tspan><tspan class="cls-73" x="59.93" y="0">e</tspan><tspan x="64.54" y="0">d s</tspan><tspan class="cls-73" x="76.3" y="0">e</tspan><tspan x="80.91" y="0">a</tspan><tspan class="cls-93" x="86.03" y="0">r</tspan><tspan x="89.19" y="0">ch</tspan><tspan x="17.64" y="10.8">In</tspan><tspan class="cls-79" x="25.49" y="10.8">c</tspan><tspan x="29.56" y="10.8">ogni</tspan><tspan class="cls-79" x="47.71" y="10.8">t</tspan><tspan x="50.72" y="10.8">o mode</tspan></text><path class="cls-94" d="M403.49,312.86l-.54-.1a3.38,3.38,0,0,0-.22-.52l.32-.45a.48.48,0,0,0-.05-.61l-.48-.48a.48.48,0,0,0-.34-.14.49.49,0,0,0-.28.09l-.44.32a2.91,2.91,0,0,0-.55-.23l-.09-.53a.48.48,0,0,0-.47-.4h-.68a.48.48,0,0,0-.47.4l-.09.54a2.74,2.74,0,0,0-.53.23l-.44-.32a.47.47,0,0,0-.61,0l-.48.48a.47.47,0,0,0-.06.61l.33.45a3.49,3.49,0,0,0-.22.53l-.53.09a.48.48,0,0,0-.4.47V314a.48.48,0,0,0,.4.47l.54.1a3.43,3.43,0,0,0,.23.52l-.32.44a.46.46,0,0,0,.05.61l.48.49a.48.48,0,0,0,.34.14.51.51,0,0,0,.27-.09l.46-.33a2.41,2.41,0,0,0,.5.21l.09.55a.48.48,0,0,0,.48.39h.68a.47.47,0,0,0,.47-.39l.09-.55a2.36,2.36,0,0,0,.52-.21l.45.32a.54.54,0,0,0,.28.08.47.47,0,0,0,.33-.14l.48-.48a.47.47,0,0,0,.06-.61l-.32-.45a2.57,2.57,0,0,0,.21-.52l.55-.09a.47.47,0,0,0,.39-.47v-.68a.45.45,0,0,0-.39-.47Zm0,1.15s0,0,0,0l-.68.11a.2.2,0,0,0-.17.16,3.06,3.06,0,0,1-.28.67.21.21,0,0,0,0,.24l.4.56a.06.06,0,0,1,0,.06l-.48.48h-.06l-.56-.4a.21.21,0,0,0-.23,0,2.73,2.73,0,0,1-.68.29.21.21,0,0,0-.16.17l-.11.68s0,0,0,0h-.68s0,0,0,0l-.12-.68a.2.2,0,0,0-.16-.17,2.73,2.73,0,0,1-.66-.28l-.11,0a.17.17,0,0,0-.12,0l-.57.4h0l0,0-.48-.48a0,0,0,0,1,0-.05l.4-.56a.23.23,0,0,0,0-.24,2.67,2.67,0,0,1-.29-.67.21.21,0,0,0-.17-.16l-.68-.12a0,0,0,0,1,0,0v-.68a0,0,0,0,1,0,0l.67-.11a.23.23,0,0,0,.18-.16,2.68,2.68,0,0,1,.27-.68.21.21,0,0,0,0-.24l-.4-.56a0,0,0,0,1,0-.05l.49-.48s0,0,0,0h0l.56.4a.21.21,0,0,0,.23,0,2.41,2.41,0,0,1,.68-.29.23.23,0,0,0,.16-.17l.11-.68s0,0,.05,0h.67s0,0,0,0l.11.67a.21.21,0,0,0,.16.17,2.8,2.8,0,0,1,.69.29.23.23,0,0,0,.24,0l.55-.4h.06l.48.48s0,0,0,.06l-.39.56a.21.21,0,0,0,0,.24,2.64,2.64,0,0,1,.28.67.21.21,0,0,0,.17.16l.68.11a.05.05,0,0,1,0,.05V314Zm0,0"/><path class="cls-94" d="M400,312a1.67,1.67,0,1,0,1.66,1.67A1.67,1.67,0,0,0,400,312Zm0,2.89a1.23,1.23,0,1,1,1.23-1.22,1.23,1.23,0,0,1-1.23,1.22Zm0,0"/><circle class="cls-24" cx="449.49" cy="370.24" r="1.41"/><text class="cls-10" transform="translate(113.04 638.65)"><tspan class="cls-95">C</tspan><tspan x="6.03" y="0">ONSIDERING</tspan><tspan class="cls-13" x="67.74" y="0" xml:space="preserve"> the </tspan><tspan class="cls-13"><tspan x="5.16" y="13.2">amount of </tspan><tspan class="cls-29" x="59.22" y="13.2">t</tspan><tspan x="62.84" y="13.2">o</tspan><tspan class="cls-96" x="69.12" y="13.2">t</tspan><tspan class="cls-97" x="72.8" y="13.2">a</tspan><tspan x="78.59" y="13.2">l </tspan><tspan class="cls-5" x="5.27" y="26.4">r</tspan><tspan x="9.05" y="26.4">esults </tspan><tspan class="cls-7" x="41.46" y="26.4">f</tspan><tspan x="44.89" y="26.4">or </tspan><tspan class="cls-7" x="58.34" y="26.4">e</tspan><tspan x="64.12" y="26.4">ach </tspan><tspan x="29.46" y="39.6">query</tspan></tspan></text><text class="cls-10" transform="translate(666.56 394.2)">IDENTI<tspan class="cls-17" x="32.65" y="0">F</tspan><tspan x="37.97" y="0">YING</tspan><tspan class="cls-13" x="61.93" y="0"> </tspan><tspan class="cls-13"><tspan class="cls-7" x="5.86" y="13.2">c</tspan><tspan x="10.91" y="13.2">a</tspan><tspan class="cls-29" x="16.81" y="13.2">t</tspan><tspan x="20.43" y="13.2">e</tspan><tspan class="cls-31" x="26.32" y="13.2">g</tspan><tspan x="31.71" y="13.2">ories</tspan></tspan></text><line class="cls-22" x1="450.47" y1="747" x2="450.47" y2="800.69"/><polygon class="cls-23" points="447.4 798.2 447.95 797.69 450.47 800.4 452.99 797.69 453.54 798.2 450.47 801.5 447.4 798.2"/><line class="cls-22" x1="696.61" y1="747" x2="696.61" y2="541"/><circle class="cls-24" cx="697" cy="540.73" r="1.22"/><line class="cls-22" x1="156.08" y1="747" x2="156.08" y2="687.5"/><circle class="cls-24" cx="156" cy="685.73" r="1.22"/><text class="cls-1" transform="translate(425.68 305.36)">1 QUE<tspan class="cls-2" x="30.92" y="0">R</tspan><tspan x="37.91" y="0">Y</tspan></text><line class="cls-98" x1="341.8" y1="320" x2="341.8" y2="421"/><text class="cls-91" transform="translate(427.79 825.93)">RA<tspan class="cls-37" x="10.49" y="0">W</tspan><tspan x="17.78" y="0">g</tspan><tspan class="cls-99" x="23" y="0">r</tspan><tspan x="26.16" y="0">aphs</tspan><tspan x="2.8" y="10.8">Illust</tspan><tspan class="cls-93" x="23.14" y="10.8">r</tspan><tspan x="26.3" y="10.8">a</tspan><tspan class="cls-100" x="31.42" y="10.8">t</tspan><tspan x="34.44" y="10.8">or</tspan></text><path class="cls-94" d="M423.57,826.1,423,826a3.11,3.11,0,0,0-.22-.53l.32-.45a.48.48,0,0,0-.05-.61l-.48-.48a.48.48,0,0,0-.34-.14.49.49,0,0,0-.28.09l-.44.32A2.91,2.91,0,0,0,421,824l-.09-.53a.48.48,0,0,0-.47-.4h-.68a.48.48,0,0,0-.47.4l-.09.55a2.7,2.7,0,0,0-.53.22l-.44-.32a.47.47,0,0,0-.61.05l-.48.48a.47.47,0,0,0-.06.61l.33.46a3.38,3.38,0,0,0-.22.52l-.53.09a.48.48,0,0,0-.4.47v.68a.47.47,0,0,0,.4.47l.54.1a3.43,3.43,0,0,0,.23.52l-.32.44a.47.47,0,0,0,0,.62l.48.48a.48.48,0,0,0,.34.14.44.44,0,0,0,.27-.09l.46-.32a4.4,4.4,0,0,0,.5.21l.09.54a.48.48,0,0,0,.48.39h.68a.47.47,0,0,0,.47-.39l.09-.54a3,3,0,0,0,.52-.22l.45.32a.55.55,0,0,0,.28.09.47.47,0,0,0,.33-.14l.48-.49a.47.47,0,0,0,.06-.61l-.32-.45a2.57,2.57,0,0,0,.21-.52l.55-.09a.47.47,0,0,0,.39-.47v-.68a.46.46,0,0,0-.39-.47Zm0,1.15s0,0,0,0l-.68.11a.22.22,0,0,0-.17.16,3.36,3.36,0,0,1-.28.68.2.2,0,0,0,0,.23l.4.56a.06.06,0,0,1,0,.06l-.48.48h-.06l-.56-.39a.2.2,0,0,0-.23,0,2.71,2.71,0,0,1-.68.28.21.21,0,0,0-.16.17l-.11.68s0,0,0,0h-.68a.05.05,0,0,1,0,0l-.11-.68a.21.21,0,0,0-.16-.17,3.16,3.16,0,0,1-.66-.27.2.2,0,0,0-.11,0,.17.17,0,0,0-.12,0l-.57.4h0l0,0-.48-.48s0,0,0-.05l.4-.56a.23.23,0,0,0,0-.24,2.67,2.67,0,0,1-.29-.67.21.21,0,0,0-.17-.16l-.68-.12a0,0,0,0,1,0,0v-.68s0,0,0,0l.67-.11a.23.23,0,0,0,.18-.16,2.68,2.68,0,0,1,.27-.68.2.2,0,0,0,0-.23l-.4-.57a0,0,0,0,1,0,0l.48-.48,0,0h0l.56.4a.21.21,0,0,0,.23,0,2.73,2.73,0,0,1,.68-.29.23.23,0,0,0,.16-.17l.11-.68s0,0,.05,0h.67s0,0,.05,0l.11.67a.21.21,0,0,0,.16.18,2.44,2.44,0,0,1,.69.28.23.23,0,0,0,.24,0l.55-.4h0s0,0,0,0l.48.48a0,0,0,0,1,0,0l-.39.56a.21.21,0,0,0,0,.24,2.64,2.64,0,0,1,.28.67.2.2,0,0,0,.17.16l.68.12s0,0,0,0v.68Zm0,0"/><path class="cls-94" d="M420.11,825.24a1.67,1.67,0,1,0,1.66,1.67,1.67,1.67,0,0,0-1.66-1.67Zm0,2.9a1.23,1.23,0,1,1,1.23-1.23,1.24,1.24,0,0,1-1.23,1.23Zm0,0"/></g><g id="图层_1" data-name="图层 1"><text class="cls-71" transform="translate(30.06 11.99)">QUE<tspan class="cls-101" x="16.89" y="0">R</tspan><tspan x="22.13" y="0">Y</tspan><tspan x="-9.36" y="10.8">DEFINITION</tspan></text><text class="cls-71" transform="translate(33.66 314.48)"><tspan class="cls-37">D</tspan><tspan class="cls-102" x="5.74" y="0">AT</tspan><tspan x="14.86" y="0">A</tspan><tspan x="-17.7" y="10.8">EXP</tspan><tspan class="cls-103" x="-2.56" y="10.8">L</tspan><tspan x="1.61" y="10.8">OR</tspan><tspan class="cls-104" x="13.33" y="10.8">A</tspan><tspan x="18.13" y="10.8">TION</tspan></text><text class="cls-71" transform="translate(33.66 640.97)"><tspan class="cls-37">D</tspan><tspan class="cls-102" x="5.74" y="0">AT</tspan><tspan x="14.86" y="0">A</tspan><tspan x="-12.98" y="10.8">G</tspan><tspan class="cls-104" x="-7.24" y="10.8">A</tspan><tspan x="-2.44" y="10.8">THERING</tspan></text><rect class="cls-98" x="0.41" y="0.53" width="86.59" height="26.73"/><text class="cls-71" transform="translate(328.56 303.99)">QUE<tspan class="cls-101" x="16.89" y="0">R</tspan><tspan x="22.13" y="0">Y</tspan><tspan x="-9.36" y="10.8">DEFINITION</tspan></text><rect class="cls-98" x="298.41" y="292.53" width="86.59" height="26.73"/><rect class="cls-98" x="0.41" y="302.03" width="86.59" height="29.49"/><rect class="cls-98" x="0.41" y="629.95" width="86.59" height="27"/><text class="cls-71" transform="translate(329.66 431.97)"><tspan class="cls-37">D</tspan><tspan class="cls-102" x="5.74" y="0">AT</tspan><tspan x="14.86" y="0">A</tspan><tspan x="-12.98" y="10.8">G</tspan><tspan class="cls-104" x="-7.24" y="10.8">A</tspan><tspan x="-2.44" y="10.8">THERING</tspan></text><rect class="cls-98" x="296.41" y="420.95" width="86.59" height="27"/><line class="cls-98" x1="43.7" y1="27.26" x2="43.7" y2="301"/><line class="cls-98" x1="44.02" y1="332" x2="44.02" y2="627.95"/><line class="cls-89" x1="154.01" y1="357.02" x2="154.01" y2="337.71"/><line class="cls-89" x1="696.01" y1="436.02" x2="696.01" y2="416.71"/><line class="cls-89" x1="449.01" y1="349.02" x2="449.01" y2="329.71"/><line class="cls-89" x1="449.22" y1="506" x2="449.22" y2="493.71"/><line class="cls-89" x1="410.22" y1="518" x2="410.22" y2="505.71"/><line class="cls-89" x1="487.22" y1="518" x2="487.22" y2="505.71"/></g></svg>