<?xml version="1.0" encoding="utf-8"?>
<!-- Generator: Adobe Illustrator 22.1.0, SVG Export Plug-In . SVG Version: 6.00 Build 0)  -->
<svg version="1.1" id="图层_1" xmlns="http://www.w3.org/2000/svg" xmlns:xlink="http://www.w3.org/1999/xlink" x="0px" y="0px"
	 viewBox="0 0 491 398" style="enable-background:new 0 0 491 398;" xml:space="preserve">
<style type="text/css">
	.st0{fill:none;}
	.st1{fill:#FFFFFF;}
	.st2{font-family:'Fira Sans', sans-serif; font-weight:500;}
	.st3{font-size:11px;}
	.st4{font-size:10px;}
	.st5{font-family:'Fira Sans', sans-serif; font-weight:300;}
	.st6{font-size:8px;}
	.st7{font-family:'FiraSans-Bold';}
	.st8{font-size:9px;}
	.st9{fill:none;stroke:#95C11F;stroke-width:0.75;stroke-miterlimit:10;}
	.st10{fill:#95C11F;}
	.st11{fill:none;stroke:#95C11F;stroke-width:0.75;stroke-miterlimit:10;stroke-dasharray:2;}
	.st12{fill:none;stroke:#666666;stroke-width:0.75;stroke-miterlimit:10;}
	.st13{stroke:#95C11F;stroke-width:0.75;stroke-miterlimit:10;}
	.st14{fill:#808080;}
	.st15{font-family:'Fira Sans', sans-serif; font-weight:400; font-style: italic;}
</style>
<rect x="187" y="2.1" class="st0" width="131" height="9.7"/>
<text transform="matrix(1 0 0 1 225.679 10.3853)" class="st1 st2 st3">2 QUERIES:</text>
<g>
	<rect x="206.3" y="123.7" class="st0" width="98.4" height="34.8"/>
	<text transform="matrix(1 0 0 1 212.5189 131.2165)"><tspan x="0" y="0" class="st1 st2 st4">Selecting</tspan><tspan x="48.3" y="0" class="st1 st5 st4"> the first </tspan><tspan x="-4.9" y="12" class="st1 st5 st4">50 results (if present) </tspan><tspan x="13.6" y="24" class="st1 st5 st4">for each year</tspan></text>
</g>
<rect x="0" y="6.9" class="st0" width="107.6" height="16.6"/>
<text transform="matrix(1 0 0 1 41.5452 12.9349)"><tspan x="0" y="0" class="st1 st2 st6">Query</tspan><tspan x="-8.2" y="9.6" class="st1 st2 st6">definition</tspan></text>
<g>
	<rect x="2" y="129.7" class="st0" width="103.6" height="21.3"/>
	<text transform="matrix(1 0 0 1 44.417 135.705)"><tspan x="0" y="0" class="st1 st2 st6">DATA</tspan><tspan x="-15.7" y="9.6" class="st1 st2 st6">EXPLORATION</tspan></text>
</g>
<g>
	<rect x="2" y="254" class="st0" width="103.6" height="22.3"/>
	<text transform="matrix(1 0 0 1 44.417 260.0434)"><tspan x="0" y="0" class="st1 st2 st6">DATA</tspan><tspan x="-11.3" y="9.6" class="st1 st2 st6">GATHERING</tspan></text>
</g>
<g>
	<rect x="130.9" y="249.8" class="st0" width="104.4" height="44.3"/>
	<text transform="matrix(1 0 0 1 135.3423 257.4178)"><tspan x="0" y="0" class="st1 st2 st4">collecting</tspan><tspan x="55" y="0" class="st1 st7 st4"> </tspan><tspan x="57.4" y="0" class="st1 st5 st4">the total </tspan><tspan x="4.1" y="12" class="st1 st5 st4">amount of news for </tspan><tspan x="-0.1" y="24" class="st1 st5 st4">each year considered</tspan></text>
</g>
<text transform="matrix(1 0 0 1 326.0002 8.9991)"><tspan x="0" y="0" class="st1 st2 st8">Avocado + trade</tspan><tspan x="0" y="10.8" class="st1 st5 st8">lang: ENG</tspan><tspan x="0" y="21.6" class="st1 st5 st8">localization: USA</tspan><tspan x="0" y="36.6" class="st1 st2 st8">Aguacate + tràfico</tspan><tspan x="0" y="47.4" class="st1 st5 st8">lang: ES</tspan><tspan x="0" y="58.2" class="st1 st5 st8">localization: MEX</tspan><tspan x="0" y="69" class="st1 st2 st8">Years</tspan><tspan x="0" y="79.8" class="st1 st5 st8">From 2007* to 2018** </tspan><tspan x="0" y="90.6" class="st1 st5 st8">(*first year in Google with avocado news)</tspan><tspan x="0" y="101.4" class="st1 st5 st8">(**from January to October)</tspan></text>
<text transform="matrix(1 0 0 1 408.1833 254.975)"><tspan x="0" y="0" class="st1 st5 st6">Botanical infos</tspan><tspan x="0" y="9.6" class="st1 st5 st6">Consumption</tspan><tspan x="0" y="19.2" class="st1 st5 st6">Crime events</tspan><tspan x="0" y="28.8" class="st1 st5 st6">Environmental issues</tspan><tspan x="0" y="38.4" class="st1 st5 st6">Health facts</tspan><tspan x="0" y="48" class="st1 st5 st6">Other</tspan><tspan x="0" y="57.6" class="st1 st5 st6">Production growth</tspan><tspan x="0" y="67.2" class="st1 st5 st6">Trade</tspan></text>
<g>
	<g>
		<line class="st9" x1="255.5" y1="35.8" x2="255.5" y2="118.5"/>
		<g>
			<polygon class="st10" points="252.4,116 253,115.5 255.5,118.2 258,115.5 258.6,116 255.5,119.3 			"/>
		</g>
	</g>
</g>
<line class="st9" x1="255.5" y1="183.1" x2="255.5" y2="213.7"/>
<line class="st11" x1="286" y1="7" x2="320.5" y2="7"/>
<rect x="14.5" y="2.7" class="st12" width="78.6" height="24.2"/>
<rect x="14.5" y="124.5" class="st12" width="78.6" height="26.8"/>
<rect x="14.5" y="250.2" class="st12" width="78.6" height="24.5"/>
<line class="st12" x1="53.8" y1="26.9" x2="53.8" y2="124.5"/>
<line class="st12" x1="53.8" y1="151" x2="53.8" y2="250.2"/>
<circle class="st13" cx="255.5" cy="183.2" r="1.4"/>
<line class="st9" x1="327.9" y1="213.7" x2="183.1" y2="213.7"/>
<g>
	<g>
		<line class="st9" x1="183.1" y1="213.3" x2="183.1" y2="243"/>
		<g>
			<polygon class="st10" points="180,240.5 180.6,240 183.1,242.7 185.6,240 186.2,240.5 183.1,243.8 			"/>
		</g>
	</g>
</g>
<g>
	<g>
		<line class="st9" x1="327.9" y1="213.3" x2="327.9" y2="243"/>
		<g>
			<polygon class="st10" points="324.8,240.5 325.4,240 327.9,242.7 330.4,240 330.9,240.5 327.9,243.8 			"/>
		</g>
	</g>
</g>
<g>
	<rect x="279.9" y="249.2" class="st0" width="107.1" height="45.5"/>
	<text transform="matrix(1 0 0 1 289.4644 256.7439)"><tspan x="0" y="0" class="st1 st2 st4">bringing back</tspan><tspan x="70.6" y="0" class="st1 st5 st4"> the </tspan><tspan x="-1.8" y="12" class="st1 st5 st4">news found for each </tspan><tspan x="-4.6" y="24" class="st1 st5 st4">year to the categories </tspan><tspan x="3.8" y="36" class="st1 st5 st4">of Visualization #1</tspan></text>
</g>
<line class="st11" x1="382" y1="253.9" x2="405.5" y2="253.9"/>
<line class="st9" x1="183.1" y1="337.2" x2="333.5" y2="337.2"/>
<line class="st9" x1="333.1" y1="337.4" x2="333.1" y2="321.5"/>
<line class="st9" x1="183.1" y1="337.4" x2="183.1" y2="288.8"/>
<g>
	<g>
		<line class="st9" x1="256.9" y1="337.4" x2="256.9" y2="364.7"/>
		<g>
			<polygon class="st10" points="253.8,362.2 254.4,361.7 256.9,364.4 259.4,361.7 260,362.2 256.9,365.5 			"/>
		</g>
	</g>
</g>
<g>
	<rect x="184.6" y="369.7" class="st0" width="144.7" height="28"/>
	<text transform="matrix(1 0 0 1 223.1022 377.2921)" class="st1 st2 st4">VISUALIZATION</text>
</g>
<circle class="st13" cx="333.1" cy="319.9" r="1.3"/>
<circle class="st13" cx="183.2" cy="287.6" r="1.2"/>
<rect x="209.7" y="380" class="st0" width="96.1" height="16.1"/>
<text transform="matrix(1 0 0 1 238.25 386.017)"><tspan x="0" y="0" class="st14 st15 st6">Raw Graph</tspan><tspan x="1.4" y="9.6" class="st14 st15 st6">Illustrator</tspan></text>
<g>
	<path class="st14" d="M236.8,382.9l-0.5-0.1c-0.1-0.2-0.1-0.4-0.2-0.5l0.3-0.4c0.1-0.2,0.1-0.4-0.1-0.6l-0.5-0.5
		c-0.1-0.1-0.2-0.1-0.3-0.1c-0.1,0-0.2,0-0.3,0.1l-0.4,0.3c-0.2-0.1-0.4-0.2-0.5-0.2l-0.1-0.5c0-0.2-0.2-0.4-0.5-0.4H233
		c-0.2,0-0.4,0.2-0.5,0.4l-0.1,0.5c-0.2,0.1-0.4,0.1-0.5,0.2l-0.4-0.3c-0.1-0.1-0.2-0.1-0.3-0.1c-0.1,0-0.2,0-0.3,0.1l-0.5,0.5
		c-0.2,0.2-0.2,0.4-0.1,0.6l0.3,0.5c-0.1,0.2-0.2,0.3-0.2,0.5l-0.5,0.1c-0.2,0-0.4,0.2-0.4,0.5v0.7c0,0.2,0.2,0.4,0.4,0.5l0.5,0.1
		c0.1,0.2,0.1,0.4,0.2,0.5l-0.3,0.4c-0.1,0.2-0.1,0.4,0.1,0.6l0.5,0.5c0.1,0.1,0.2,0.1,0.3,0.1c0.1,0,0.2,0,0.3-0.1l0.5-0.3
		c0.2,0.1,0.3,0.2,0.5,0.2l0.1,0.5c0,0.2,0.2,0.4,0.5,0.4h0.7c0.2,0,0.4-0.2,0.5-0.4l0.1-0.5c0.2-0.1,0.4-0.1,0.5-0.2l0.4,0.3
		c0.1,0.1,0.2,0.1,0.3,0.1c0.1,0,0.2,0,0.3-0.1l0.5-0.5c0.2-0.2,0.2-0.4,0.1-0.6l-0.3-0.4c0.1-0.2,0.2-0.3,0.2-0.5l0.5-0.1
		c0.2,0,0.4-0.2,0.4-0.5v-0.7C237.2,383.2,237,383,236.8,382.9L236.8,382.9z M236.8,384.1C236.8,384.1,236.8,384.1,236.8,384.1
		l-0.7,0.2c-0.1,0-0.2,0.1-0.2,0.2c-0.1,0.2-0.2,0.5-0.3,0.7c0,0.1,0,0.2,0,0.2l0.4,0.6c0,0,0,0,0,0.1l-0.5,0.5c0,0,0,0,0,0
		c0,0,0,0,0,0l-0.6-0.4c-0.1,0-0.2-0.1-0.2,0c-0.2,0.1-0.4,0.2-0.7,0.3c-0.1,0-0.1,0.1-0.2,0.2l-0.1,0.7c0,0,0,0,0,0H233
		c0,0,0,0,0,0l-0.1-0.7c0-0.1-0.1-0.2-0.2-0.2c-0.2-0.1-0.5-0.2-0.7-0.3c0,0-0.1,0-0.1,0c0,0-0.1,0-0.1,0l-0.6,0.4c0,0,0,0,0,0
		c0,0,0,0,0,0l-0.5-0.5c0,0,0,0,0-0.1l0.4-0.6c0-0.1,0.1-0.2,0-0.2c-0.1-0.2-0.2-0.4-0.3-0.7c0-0.1-0.1-0.1-0.2-0.2l-0.7-0.1
		c0,0,0,0,0,0v-0.7c0,0,0,0,0,0l0.7-0.1c0.1,0,0.2-0.1,0.2-0.2c0.1-0.2,0.2-0.5,0.3-0.7c0-0.1,0-0.2,0-0.2l-0.4-0.6c0,0,0,0,0-0.1
		l0.5-0.5c0,0,0,0,0,0c0,0,0,0,0,0l0.6,0.4c0.1,0,0.2,0.1,0.2,0c0.2-0.1,0.4-0.2,0.7-0.3c0.1,0,0.1-0.1,0.2-0.2l0.1-0.7c0,0,0,0,0,0
		h0.7c0,0,0,0,0,0l0.1,0.7c0,0.1,0.1,0.2,0.2,0.2c0.2,0.1,0.5,0.2,0.7,0.3c0.1,0,0.2,0,0.2,0l0.6-0.4c0,0,0,0,0,0c0,0,0,0,0,0
		l0.5,0.5c0,0,0,0,0,0.1l-0.4,0.6c0,0.1-0.1,0.2,0,0.2c0.1,0.2,0.2,0.4,0.3,0.7c0,0.1,0.1,0.1,0.2,0.2l0.7,0.1c0,0,0,0,0,0
		L236.8,384.1L236.8,384.1z M236.8,384.1"/>
	<path class="st14" d="M233.4,382.1c-0.9,0-1.7,0.7-1.7,1.7c0,0.9,0.7,1.7,1.7,1.7c0.9,0,1.7-0.7,1.7-1.7
		C235,382.8,234.3,382.1,233.4,382.1L233.4,382.1z M233.4,385c-0.7,0-1.2-0.6-1.2-1.2s0.6-1.2,1.2-1.2c0.7,0,1.2,0.6,1.2,1.2
		S234,385,233.4,385L233.4,385z M233.4,385"/>
</g>
<rect x="208" y="160.9" class="st0" width="96.1" height="17.3"/>
<text transform="matrix(1 0 0 1 218.89 166.8535)"><tspan x="0" y="0" class="st14 st15 st6">Instant Data Scraper</tspan><tspan x="28" y="9.6" class="st14 st15 st6">Excel</tspan></text>
<g>
	<path class="st14" d="M215.1,162.8l-0.5-0.1c-0.1-0.2-0.1-0.4-0.2-0.5l0.3-0.4c0.1-0.2,0.1-0.4-0.1-0.6l-0.5-0.5
		c-0.1-0.1-0.2-0.1-0.3-0.1c-0.1,0-0.2,0-0.3,0.1l-0.4,0.3c-0.2-0.1-0.4-0.2-0.5-0.2l-0.1-0.5c0-0.2-0.2-0.4-0.5-0.4h-0.7
		c-0.2,0-0.4,0.2-0.5,0.4l-0.1,0.5c-0.2,0.1-0.4,0.1-0.5,0.2l-0.4-0.3c-0.1-0.1-0.2-0.1-0.3-0.1c-0.1,0-0.2,0-0.3,0.1l-0.5,0.5
		c-0.2,0.2-0.2,0.4-0.1,0.6l0.3,0.5c-0.1,0.2-0.2,0.3-0.2,0.5l-0.5,0.1c-0.2,0-0.4,0.2-0.4,0.5v0.7c0,0.2,0.2,0.4,0.4,0.5l0.5,0.1
		c0.1,0.2,0.1,0.4,0.2,0.5l-0.3,0.4c-0.1,0.2-0.1,0.4,0.1,0.6l0.5,0.5c0.1,0.1,0.2,0.1,0.3,0.1c0.1,0,0.2,0,0.3-0.1l0.5-0.3
		c0.2,0.1,0.3,0.2,0.5,0.2l0.1,0.5c0,0.2,0.2,0.4,0.5,0.4h0.7c0.2,0,0.4-0.2,0.5-0.4l0.1-0.5c0.2-0.1,0.4-0.1,0.5-0.2l0.4,0.3
		c0.1,0.1,0.2,0.1,0.3,0.1c0.1,0,0.2,0,0.3-0.1l0.5-0.5c0.2-0.2,0.2-0.4,0.1-0.6l-0.3-0.4c0.1-0.2,0.2-0.3,0.2-0.5l0.5-0.1
		c0.2,0,0.4-0.2,0.4-0.5v-0.7C215.5,163,215.3,162.8,215.1,162.8L215.1,162.8z M215,163.9C215,163.9,215,164,215,163.9l-0.7,0.2
		c-0.1,0-0.2,0.1-0.2,0.2c-0.1,0.2-0.2,0.5-0.3,0.7c0,0.1,0,0.2,0,0.2l0.4,0.6c0,0,0,0,0,0.1l-0.5,0.5c0,0,0,0,0,0c0,0,0,0,0,0
		l-0.6-0.4c-0.1,0-0.2-0.1-0.2,0c-0.2,0.1-0.4,0.2-0.7,0.3c-0.1,0-0.1,0.1-0.2,0.2L212,167c0,0,0,0,0,0h-0.7c0,0,0,0,0,0l-0.1-0.7
		c0-0.1-0.1-0.2-0.2-0.2c-0.2-0.1-0.5-0.2-0.7-0.3c0,0-0.1,0-0.1,0c0,0-0.1,0-0.1,0l-0.6,0.4c0,0,0,0,0,0c0,0,0,0,0,0l-0.5-0.5
		c0,0,0,0,0-0.1l0.4-0.6c0-0.1,0.1-0.2,0-0.2c-0.1-0.2-0.2-0.4-0.3-0.7c0-0.1-0.1-0.1-0.2-0.2l-0.7-0.1c0,0,0,0,0,0v-0.7
		c0,0,0,0,0,0l0.7-0.1c0.1,0,0.2-0.1,0.2-0.2c0.1-0.2,0.2-0.5,0.3-0.7c0-0.1,0-0.2,0-0.2l-0.4-0.6c0,0,0,0,0-0.1l0.5-0.5
		c0,0,0,0,0,0c0,0,0,0,0,0l0.6,0.4c0.1,0,0.2,0.1,0.2,0c0.2-0.1,0.4-0.2,0.7-0.3c0.1,0,0.1-0.1,0.2-0.2l0.1-0.7c0,0,0,0,0,0h0.7
		c0,0,0,0,0,0l0.1,0.7c0,0.1,0.1,0.2,0.2,0.2c0.2,0.1,0.5,0.2,0.7,0.3c0.1,0,0.2,0,0.2,0l0.6-0.4c0,0,0,0,0,0c0,0,0,0,0,0l0.5,0.5
		c0,0,0,0,0,0.1l-0.4,0.6c0,0.1-0.1,0.2,0,0.2c0.1,0.2,0.2,0.4,0.3,0.7c0,0.1,0.1,0.1,0.2,0.2l0.7,0.1c0,0,0,0,0,0L215,163.9
		L215,163.9z M215,163.9"/>
	<path class="st14" d="M211.6,161.9c-0.9,0-1.7,0.7-1.7,1.7c0,0.9,0.7,1.7,1.7,1.7c0.9,0,1.7-0.7,1.7-1.7
		C213.3,162.7,212.5,161.9,211.6,161.9L211.6,161.9z M211.6,164.8c-0.7,0-1.2-0.6-1.2-1.2c0-0.7,0.6-1.2,1.2-1.2
		c0.7,0,1.2,0.6,1.2,1.2C212.8,164.3,212.3,164.8,211.6,164.8L211.6,164.8z M211.6,164.8"/>
</g>
<rect x="285.1" y="299.1" class="st0" width="96.1" height="17.3"/>
<text transform="matrix(1 0 0 1 311.777 305.1318)"><tspan x="0" y="0" class="st14 st15 st6">Voyant Tool</tspan><tspan x="12.2" y="9.6" class="st14 st15 st6">Excel</tspan></text>
<g>
	<path class="st14" d="M309.2,302l-0.5-0.1c-0.1-0.2-0.1-0.4-0.2-0.5l0.3-0.4c0.1-0.2,0.1-0.4-0.1-0.6l-0.5-0.5
		c-0.1-0.1-0.2-0.1-0.3-0.1c-0.1,0-0.2,0-0.3,0.1l-0.4,0.3c-0.2-0.1-0.4-0.2-0.5-0.2l-0.1-0.5c0-0.2-0.2-0.4-0.5-0.4h-0.7
		c-0.2,0-0.4,0.2-0.5,0.4l-0.1,0.5c-0.2,0.1-0.4,0.1-0.5,0.2l-0.4-0.3c-0.1-0.1-0.2-0.1-0.3-0.1c-0.1,0-0.2,0-0.3,0.1l-0.5,0.5
		c-0.2,0.2-0.2,0.4-0.1,0.6l0.3,0.5c-0.1,0.2-0.2,0.3-0.2,0.5l-0.5,0.1c-0.2,0-0.4,0.2-0.4,0.5v0.7c0,0.2,0.2,0.4,0.4,0.5l0.5,0.1
		c0.1,0.2,0.1,0.4,0.2,0.5l-0.3,0.4c-0.1,0.2-0.1,0.4,0.1,0.6l0.5,0.5c0.1,0.1,0.2,0.1,0.3,0.1c0.1,0,0.2,0,0.3-0.1l0.5-0.3
		c0.2,0.1,0.3,0.2,0.5,0.2l0.1,0.5c0,0.2,0.2,0.4,0.5,0.4h0.7c0.2,0,0.4-0.2,0.5-0.4l0.1-0.5c0.2-0.1,0.4-0.1,0.5-0.2l0.4,0.3
		c0.1,0.1,0.2,0.1,0.3,0.1c0.1,0,0.2,0,0.3-0.1l0.5-0.5c0.2-0.2,0.2-0.4,0.1-0.6l-0.3-0.4c0.1-0.2,0.2-0.3,0.2-0.5l0.5-0.1
		c0.2,0,0.4-0.2,0.4-0.5v-0.7C309.6,302.3,309.4,302.1,309.2,302L309.2,302z M309.1,303.2C309.1,303.2,309.1,303.2,309.1,303.2
		l-0.7,0.2c-0.1,0-0.2,0.1-0.2,0.2c-0.1,0.2-0.2,0.5-0.3,0.7c0,0.1,0,0.2,0,0.2l0.4,0.6c0,0,0,0,0,0.1l-0.5,0.5c0,0,0,0,0,0
		c0,0,0,0,0,0l-0.6-0.4c-0.1,0-0.2-0.1-0.2,0c-0.2,0.1-0.4,0.2-0.7,0.3c-0.1,0-0.1,0.1-0.2,0.2l-0.1,0.7c0,0,0,0,0,0h-0.7
		c0,0,0,0,0,0l-0.1-0.7c0-0.1-0.1-0.2-0.2-0.2c-0.2-0.1-0.5-0.2-0.7-0.3c0,0-0.1,0-0.1,0c0,0-0.1,0-0.1,0l-0.6,0.4c0,0,0,0,0,0
		c0,0,0,0,0,0l-0.5-0.5c0,0,0,0,0-0.1l0.4-0.6c0-0.1,0.1-0.2,0-0.2c-0.1-0.2-0.2-0.4-0.3-0.7c0-0.1-0.1-0.1-0.2-0.2l-0.7-0.1
		c0,0,0,0,0,0v-0.7c0,0,0,0,0,0l0.7-0.1c0.1,0,0.2-0.1,0.2-0.2c0.1-0.2,0.2-0.5,0.3-0.7c0-0.1,0-0.2,0-0.2l-0.4-0.6c0,0,0,0,0-0.1
		l0.5-0.5c0,0,0,0,0,0c0,0,0,0,0,0l0.6,0.4c0.1,0,0.2,0.1,0.2,0c0.2-0.1,0.4-0.2,0.7-0.3c0.1,0,0.1-0.1,0.2-0.2l0.1-0.7c0,0,0,0,0,0
		h0.7c0,0,0,0,0,0l0.1,0.7c0,0.1,0.1,0.2,0.2,0.2c0.2,0.1,0.5,0.2,0.7,0.3c0.1,0,0.2,0,0.2,0l0.6-0.4c0,0,0,0,0,0c0,0,0,0,0,0
		l0.5,0.5c0,0,0,0,0,0.1l-0.4,0.6c0,0.1-0.1,0.2,0,0.2c0.1,0.2,0.2,0.4,0.3,0.7c0,0.1,0.1,0.1,0.2,0.2l0.7,0.1c0,0,0,0,0,0
		L309.1,303.2L309.1,303.2z M309.1,303.2"/>
	<path class="st14" d="M305.7,301.2c-0.9,0-1.7,0.7-1.7,1.7c0,0.9,0.7,1.7,1.7,1.7c0.9,0,1.7-0.7,1.7-1.7
		C307.4,301.9,306.6,301.2,305.7,301.2L305.7,301.2z M305.7,304.1c-0.7,0-1.2-0.6-1.2-1.2c0-0.7,0.6-1.2,1.2-1.2
		c0.7,0,1.2,0.6,1.2,1.2C306.9,303.5,306.4,304.1,305.7,304.1L305.7,304.1z M305.7,304.1"/>
</g>
<rect x="207.3" y="15.8" class="st0" width="96.1" height="28.7"/>
<text transform="matrix(1 0 0 1 223.4537 21.7742)"><tspan x="0" y="0" class="st14 st15 st6">Google News with</tspan><tspan x="24.7" y="9.6" class="st14 st15 st6">VPN</tspan></text>
<g>
	<path class="st14" d="M219.6,18.5l-0.5-0.1c-0.1-0.2-0.1-0.4-0.2-0.5l0.3-0.4c0.1-0.2,0.1-0.4-0.1-0.6l-0.5-0.5
		c-0.1-0.1-0.2-0.1-0.3-0.1c-0.1,0-0.2,0-0.3,0.1l-0.4,0.3c-0.2-0.1-0.4-0.2-0.5-0.2l-0.1-0.5c0-0.2-0.2-0.4-0.5-0.4h-0.7
		c-0.2,0-0.4,0.2-0.5,0.4l-0.1,0.5c-0.2,0.1-0.4,0.1-0.5,0.2l-0.4-0.3c-0.1-0.1-0.2-0.1-0.3-0.1c-0.1,0-0.2,0-0.3,0.1l-0.5,0.5
		c-0.2,0.2-0.2,0.4-0.1,0.6l0.3,0.5c-0.1,0.2-0.2,0.3-0.2,0.5l-0.5,0.1c-0.2,0-0.4,0.2-0.4,0.5v0.7c0,0.2,0.2,0.4,0.4,0.5l0.5,0.1
		c0.1,0.2,0.1,0.4,0.2,0.5l-0.3,0.4c-0.1,0.2-0.1,0.4,0.1,0.6l0.5,0.5c0.1,0.1,0.2,0.1,0.3,0.1c0.1,0,0.2,0,0.3-0.1l0.5-0.3
		c0.2,0.1,0.3,0.2,0.5,0.2l0.1,0.5c0,0.2,0.2,0.4,0.5,0.4h0.7c0.2,0,0.4-0.2,0.5-0.4l0.1-0.5c0.2-0.1,0.4-0.1,0.5-0.2l0.4,0.3
		c0.1,0.1,0.2,0.1,0.3,0.1c0.1,0,0.2,0,0.3-0.1l0.5-0.5c0.2-0.2,0.2-0.4,0.1-0.6l-0.3-0.4c0.1-0.2,0.2-0.3,0.2-0.5l0.5-0.1
		c0.2,0,0.4-0.2,0.4-0.5V19C220,18.8,219.8,18.6,219.6,18.5L219.6,18.5z M219.6,19.7C219.6,19.7,219.6,19.7,219.6,19.7l-0.7,0.2
		c-0.1,0-0.2,0.1-0.2,0.2c-0.1,0.2-0.2,0.5-0.3,0.7c0,0.1,0,0.2,0,0.2l0.4,0.6c0,0,0,0,0,0.1l-0.5,0.5c0,0,0,0,0,0c0,0,0,0,0,0
		l-0.6-0.4c-0.1,0-0.2-0.1-0.2,0c-0.2,0.1-0.4,0.2-0.7,0.3c-0.1,0-0.1,0.1-0.2,0.2l-0.1,0.7c0,0,0,0,0,0h-0.7c0,0,0,0,0,0l-0.1-0.7
		c0-0.1-0.1-0.2-0.2-0.2c-0.2-0.1-0.5-0.2-0.7-0.3c0,0-0.1,0-0.1,0c0,0-0.1,0-0.1,0L214,22c0,0,0,0,0,0c0,0,0,0,0,0l-0.5-0.5
		c0,0,0,0,0-0.1l0.4-0.6c0-0.1,0.1-0.2,0-0.2c-0.1-0.2-0.2-0.4-0.3-0.7c0-0.1-0.1-0.1-0.2-0.2l-0.7-0.1c0,0,0,0,0,0V19c0,0,0,0,0,0
		l0.7-0.1c0.1,0,0.2-0.1,0.2-0.2c0.1-0.2,0.2-0.5,0.3-0.7c0-0.1,0-0.2,0-0.2l-0.4-0.6c0,0,0,0,0-0.1l0.5-0.5c0,0,0,0,0,0
		c0,0,0,0,0,0l0.6,0.4c0.1,0,0.2,0.1,0.2,0c0.2-0.1,0.4-0.2,0.7-0.3c0.1,0,0.1-0.1,0.2-0.2l0.1-0.7c0,0,0,0,0,0h0.7c0,0,0,0,0,0
		l0.1,0.7c0,0.1,0.1,0.2,0.2,0.2c0.2,0.1,0.5,0.2,0.7,0.3c0.1,0,0.2,0,0.2,0l0.6-0.4c0,0,0,0,0,0c0,0,0,0,0,0l0.5,0.5c0,0,0,0,0,0.1
		l-0.4,0.6c0,0.1-0.1,0.2,0,0.2c0.1,0.2,0.2,0.4,0.3,0.7c0,0.1,0.1,0.1,0.2,0.2l0.7,0.1c0,0,0,0,0,0L219.6,19.7L219.6,19.7z
		 M219.6,19.7"/>
	<path class="st14" d="M216.2,17.7c-0.9,0-1.7,0.7-1.7,1.7c0,0.9,0.7,1.7,1.7,1.7c0.9,0,1.7-0.7,1.7-1.7
		C217.8,18.4,217.1,17.7,216.2,17.7L216.2,17.7z M216.2,20.6c-0.7,0-1.2-0.6-1.2-1.2c0-0.7,0.6-1.2,1.2-1.2s1.2,0.6,1.2,1.2
		C217.4,20,216.8,20.6,216.2,20.6L216.2,20.6z M216.2,20.6"/>
</g>
<circle class="st13" cx="255.5" cy="37.2" r="1.4"/>
</svg>
