<svg xmlns="http://www.w3.org/2000/svg" viewBox="0 0 804 801"><defs><style>.cls-1{font-size:12px;}.cls-1,.cls-16,.cls-20,.cls-26,.cls-3,.cls-59{fill:#fff;}.cls-1,.cls-20,.cls-26,.cls-3{font-family:FiraSans-Medium, Fira Sans;font-weight:500;}.cls-2{letter-spacing:-0.01em;}.cls-16,.cls-3{font-size:11px;}.cls-16,.cls-4,.cls-5,.cls-52,.cls-53,.cls-59{font-family:FiraSans-Light, Fira Sans;font-weight:300;}.cls-5{letter-spacing:-0.02em;}.cls-6{letter-spacing:-0.03em;}.cls-7{letter-spacing:-0.01em;}.cls-53,.cls-8{letter-spacing:-0.01em;}.cls-9{letter-spacing:-0.03em;}.cls-10{letter-spacing:-0.01em;}.cls-11{letter-spacing:0em;}.cls-12{letter-spacing:-0.01em;}.cls-13{letter-spacing:-0.01em;}.cls-14{letter-spacing:-0.02em;}.cls-15,.cls-52{letter-spacing:-0.01em;}.cls-17{letter-spacing:-0.02em;}.cls-18{letter-spacing:-0.03em;}.cls-19{letter-spacing:-0.02em;}.cls-20,.cls-59,.cls-84{font-size:9px;}.cls-21{letter-spacing:-0.03em;}.cls-22{letter-spacing:-0.01em;}.cls-23{letter-spacing:-0.05em;}.cls-24{letter-spacing:-0.04em;}.cls-25{letter-spacing:-0.05em;}.cls-26{font-size:10px;}.cls-27{letter-spacing:-0.06em;}.cls-28{letter-spacing:-0.04em;}.cls-29{letter-spacing:-0.02em;}.cls-30{letter-spacing:-0.01em;}.cls-31{letter-spacing:-0.02em;}.cls-32{letter-spacing:-0.01em;}.cls-33{letter-spacing:-0.01em;}.cls-34{letter-spacing:0em;}.cls-35{letter-spacing:-0.01em;}.cls-36{letter-spacing:0em;}.cls-37{letter-spacing:-0.01em;}.cls-38{letter-spacing:-0.01em;}.cls-39{letter-spacing:-0.02em;}.cls-40{letter-spacing:-0.02em;}.cls-41{letter-spacing:-0.03em;}.cls-42{letter-spacing:-0.02em;}.cls-43,.cls-45,.cls-46{fill:none;}.cls-43,.cls-45,.cls-81{stroke:#95c11f;}.cls-43,.cls-45,.cls-46,.cls-81{stroke-miterlimit:10;stroke-width:0.75px;}.cls-44{fill:#95c11f;}.cls-45{stroke-dasharray:2;}.cls-46{stroke:#666;}.cls-47{letter-spacing:-0.05em;}.cls-48{font-family:FiraSans-Bold, Fira Sans;font-weight:700;}.cls-49{letter-spacing:-0.01em;}.cls-50{letter-spacing:-0.04em;}.cls-51{letter-spacing:0em;}.cls-54{letter-spacing:-0.02em;}.cls-55{letter-spacing:-0.02em;}.cls-56{letter-spacing:-0.01em;}.cls-57{letter-spacing:0em;}.cls-58{letter-spacing:0em;}.cls-60{letter-spacing:-0.02em;}.cls-61{letter-spacing:-0.03em;}.cls-62{letter-spacing:-0.01em;}.cls-63{letter-spacing:0em;}.cls-64{letter-spacing:-0.01em;}.cls-65{letter-spacing:0em;}.cls-66{letter-spacing:-0.01em;}.cls-67{letter-spacing:-0.01em;}.cls-68{letter-spacing:-0.02em;}.cls-69{letter-spacing:-0.02em;}.cls-70{letter-spacing:-0.01em;}.cls-71{letter-spacing:0em;}.cls-72{letter-spacing:-0.02em;}.cls-73{letter-spacing:0em;}.cls-74{letter-spacing:-0.02em;}.cls-75{letter-spacing:-0.04em;}.cls-76{letter-spacing:-0.03em;}.cls-77{letter-spacing:-0.01em;}.cls-78{letter-spacing:-0.01em;}.cls-79{letter-spacing:-0.02em;}.cls-80{letter-spacing:-0.01em;}.cls-82{letter-spacing:-0.02em;}.cls-83{letter-spacing:-0.01em;}.cls-84,.cls-86{fill:gray;}.cls-84{font-family:FiraSans-Italic, Fira Sans;font-style:italic;}.cls-85{letter-spacing:0em;}.cls-87{letter-spacing:-0.03em;}.cls-88{letter-spacing:-0.02em;}.cls-89{letter-spacing:-0.06em;}.cls-90{letter-spacing:-0.01em;}.cls-91{letter-spacing:0em;}.cls-92{letter-spacing:-0.02em;}.cls-93{letter-spacing:-0.01em;}.cls-94{letter-spacing:-0.02em;}.cls-95{letter-spacing:-0.01em;}.cls-96{letter-spacing:0em;}.cls-97{letter-spacing:-0.01em;}.cls-98{letter-spacing:-0.06em;}.cls-99{letter-spacing:-0.01em;}.cls-100{letter-spacing:-0.04em;}.cls-101{letter-spacing:-0.04em;}</style></defs><title>protocols</title><g id="图层_1" data-name="图层 1"><text class="cls-1" transform="translate(391.63 15.82)">2 QUERI<tspan class="cls-2" x="42.47" y="0">E</tspan><tspan x="48.71" y="0">S:</tspan></text><text class="cls-3" transform="translate(358.35 151.83)">SCRAPING <tspan class="cls-4" x="52.44" y="0">among the fi</tspan><tspan class="cls-5" x="114.36" y="0">r</tspan><tspan class="cls-4" x="118.26" y="0">st </tspan><tspan class="cls-4"><tspan x="8.11" y="13.2">50 </tspan><tspan class="cls-6" x="22.59" y="13.2">r</tspan><tspan x="26.36" y="13.2">esults and </tspan><tspan class="cls-7" x="80.6" y="13.2">k</tspan><tspan x="85.89" y="13.2">eeping </tspan><tspan x="8.87" y="26.4">on</tspan><tspan class="cls-8" x="21.58" y="26.4">l</tspan><tspan x="24.59" y="26.4">y </tspan><tspan class="cls-9" x="32.81" y="26.4">r</tspan><tspan x="36.58" y="26.4">e</tspan><tspan class="cls-10" x="42.48" y="26.4">l</tspan><tspan class="cls-11" x="45.54" y="26.4">e</tspan><tspan class="cls-12" x="51.42" y="26.4">v</tspan><tspan x="56.45" y="26.4">ant websi</tspan><tspan class="cls-13" x="103.62" y="26.4">t</tspan><tspan x="107.24" y="26.4">es </tspan><tspan x="8.37" y="39.6">a</tspan><tspan class="cls-14" x="14.26" y="39.6">cc</tspan><tspan x="24.21" y="39.6">o</tspan><tspan class="cls-6" x="30.49" y="39.6">r</tspan><tspan x="34.26" y="39.6">ding </tspan><tspan class="cls-15" x="58.69" y="39.6">t</tspan><tspan x="62.31" y="39.6">o the query</tspan></tspan></text><text class="cls-16" transform="translate(357.35 268.53)">In <tspan class="cls-8" x="12.59" y="0">e</tspan><tspan x="18.38" y="0">ach websi</tspan><tspan class="cls-15" x="66.96" y="0">t</tspan><tspan x="70.58" y="0">e of the </tspan><tspan class="cls-17" x="111.57" y="0">f</tspan><tspan x="114.87" y="0">air </tspan><tspan x="17.25" y="13.2">t</tspan><tspan class="cls-18" x="21" y="13.2">r</tspan><tspan x="24.72" y="13.2">ade </tspan><tspan class="cls-19" x="46.01" y="13.2">c</tspan><tspan x="50.98" y="13.2">oope</tspan><tspan class="cls-18" x="75.83" y="13.2">r</tspan><tspan x="79.55" y="13.2">ati</tspan><tspan class="cls-11" x="92.17" y="13.2">v</tspan><tspan x="97.31" y="13.2">es:</tspan></text><text class="cls-20" transform="translate(30.06 11.99)">QUE<tspan class="cls-21" x="16.89" y="0">R</tspan><tspan x="22.13" y="0">Y</tspan><tspan x="-9.36" y="10.8">DEFINITION</tspan></text><text class="cls-20" transform="translate(33.66 150.48)"><tspan class="cls-22">D</tspan><tspan class="cls-23" x="5.74" y="0">AT</tspan><tspan x="14.86" y="0">A</tspan><tspan x="-17.7" y="10.8">EXP</tspan><tspan class="cls-24" x="-2.56" y="10.8">L</tspan><tspan x="1.61" y="10.8">OR</tspan><tspan class="cls-25" x="13.33" y="10.8">A</tspan><tspan x="18.13" y="10.8">TION</tspan></text><text class="cls-20" transform="translate(33.66 455.97)"><tspan class="cls-22">D</tspan><tspan class="cls-23" x="5.74" y="0">AT</tspan><tspan x="14.86" y="0">A</tspan><tspan x="-12.98" y="10.8">G</tspan><tspan class="cls-25" x="-7.24" y="10.8">A</tspan><tspan x="-2.44" y="10.8">THERING</tspan></text><text class="cls-26" transform="translate(501.84 14.38)"><tspan class="cls-27">F</tspan><tspan x="4.29" y="0">air + t</tspan><tspan class="cls-28" x="30.42" y="0">r</tspan><tspan x="34.01" y="0">ade + </tspan><tspan class="cls-29" x="0" y="12">c</tspan><tspan x="4.58" y="12">oope</tspan><tspan class="cls-28" x="27.71" y="12">r</tspan><tspan x="31.3" y="12">ati</tspan><tspan class="cls-30" x="43.33" y="12">v</tspan><tspan x="48.31" y="12">e + </tspan><tspan class="cls-31" x="63.96" y="12">a</tspan><tspan class="cls-32" x="69.27" y="12">v</tspan><tspan x="74.25" y="12">o</tspan><tspan class="cls-33" x="80.09" y="12">c</tspan><tspan x="84.77" y="12">ado</tspan><tspan class="cls-4"><tspan class="cls-34" x="0" y="24">l</tspan><tspan x="2.79" y="24">ang: ENG</tspan><tspan class="cls-34" x="0" y="36">l</tspan><tspan x="2.79" y="36">o</tspan><tspan class="cls-35" x="8.5" y="36">ca</tspan><tspan class="cls-36" x="18.35" y="36">li</tspan><tspan class="cls-37" x="23.89" y="36">z</tspan><tspan x="27.96" y="36">ation: </tspan><tspan class="cls-38" x="55.84" y="36">U</tspan><tspan class="cls-34" x="62.27" y="36">S</tspan><tspan x="67.61" y="36">A</tspan></tspan><tspan class="cls-39" x="0" y="52.53">C</tspan><tspan x="5.48" y="52.53">oope</tspan><tspan class="cls-28" x="28.61" y="52.53">r</tspan><tspan x="32.2" y="52.53">ati</tspan><tspan class="cls-40" x="44.23" y="52.53">v</tspan><tspan x="49.08" y="52.53">a + de +</tspan><tspan class="cls-29" x="0" y="64.53">c</tspan><tspan x="4.58" y="64.53">ome</tspan><tspan class="cls-41" x="24.41" y="64.53">r</tspan><tspan x="28.05" y="64.53">cio + jus</tspan><tspan class="cls-42" x="64.99" y="64.53">t</tspan><tspan x="68.57" y="64.53">o + </tspan><tspan class="cls-35" x="84.57" y="64.53">ag</tspan><tspan class="cls-36" x="95.2" y="64.53">ua</tspan><tspan class="cls-33" x="106.43" y="64.53">c</tspan><tspan x="111.11" y="64.53">a</tspan><tspan class="cls-42" x="116.57" y="64.53">t</tspan><tspan x="120.15" y="64.53">e</tspan><tspan class="cls-4"><tspan class="cls-34" x="0" y="76.53">l</tspan><tspan x="2.79" y="76.53">ang: </tspan><tspan class="cls-33" x="23.88" y="76.53">E</tspan><tspan class="cls-36" x="28.9" y="76.53">S</tspan><tspan class="cls-34" x="0" y="88.53">l</tspan><tspan x="2.79" y="88.53">o</tspan><tspan class="cls-35" x="8.5" y="88.53">ca</tspan><tspan class="cls-36" x="18.35" y="88.53">li</tspan><tspan class="cls-37" x="23.89" y="88.53">z</tspan><tspan x="27.96" y="88.53">ation: MEX</tspan></tspan></text><line class="cls-43" x1="420.82" y1="43.77" x2="420.82" y2="137.39"/><polygon class="cls-44" points="417.75 134.9 418.3 134.39 420.82 137.1 423.33 134.39 423.88 134.9 420.82 138.2 417.75 134.9"/><line class="cls-45" x1="457.76" y1="12.13" x2="495.78" y2="12.13"/><rect class="cls-46" x="0.41" y="0.53" width="86.59" height="26.73"/><rect class="cls-46" x="0.41" y="138.03" width="86.59" height="29.49"/><rect class="cls-46" x="0.41" y="444.95" width="86.59" height="27"/><line class="cls-46" x1="43.71" y1="27.26" x2="43.71" y2="137.44"/><line class="cls-46" x1="43.71" y1="167.52" x2="43.71" y2="444.95"/><text class="cls-3" transform="translate(511.79 461.99)">C<tspan class="cls-47" x="6.25" y="0">A</tspan><tspan x="12.11" y="0">T</tspan><tspan class="cls-12" x="17.94" y="0">E</tspan><tspan x="23.63" y="0">GORIZING</tspan><tspan class="cls-48" x="71.72" y="0"> </tspan><tspan class="cls-4"><tspan x="-9.37" y="13.2">the natu</tspan><tspan class="cls-6" x="32.21" y="13.2">r</tspan><tspan x="35.98" y="13.2">e of </tspan><tspan class="cls-49" x="57.83" y="13.2">e</tspan><tspan x="63.61" y="13.2">ach </tspan><tspan class="cls-14" x="7.26" y="26.4">c</tspan><tspan x="12.23" y="26.4">oope</tspan><tspan class="cls-50" x="37.08" y="26.4">r</tspan><tspan x="40.8" y="26.4">ati</tspan><tspan class="cls-11" x="53.41" y="26.4">v</tspan><tspan x="58.56" y="26.4">e</tspan></tspan></text><text class="cls-3" transform="translate(367.91 460.95)">IDENTI<tspan class="cls-51" x="32.65" y="0">F</tspan><tspan x="37.97" y="0">YING</tspan><tspan class="cls-4" x="61.93" y="0" xml:space="preserve"> in</tspan><tspan class="cls-52" x="74.39" y="0">t</tspan><tspan class="cls-4" x="78.01" y="0">ern</tspan><tspan class="cls-53" x="94.43" y="0">a</tspan><tspan class="cls-4" x="100.22" y="0">l </tspan><tspan class="cls-4"><tspan x="6.06" y="13.2">mentions between </tspan><tspan x="27.64" y="26.4">the </tspan><tspan class="cls-8" x="46.78" y="26.4">f</tspan><tspan x="50.2" y="26.4">ound </tspan><tspan class="cls-14" x="1.12" y="39.6">c</tspan><tspan x="6.09" y="39.6">oope</tspan><tspan class="cls-50" x="30.94" y="39.6">r</tspan><tspan x="34.66" y="39.6">ati</tspan><tspan class="cls-11" x="47.28" y="39.6">v</tspan><tspan x="52.42" y="39.6">es in </tspan><tspan class="cls-8" x="78.96" y="39.6">e</tspan><tspan x="84.74" y="39.6">ach </tspan><tspan class="cls-14" x="-0.91" y="52.8">c</tspan><tspan x="4.06" y="52.8">oope</tspan><tspan class="cls-50" x="28.91" y="52.8">r</tspan><tspan x="32.63" y="52.8">ati</tspan><tspan class="cls-11" x="45.24" y="52.8">v</tspan><tspan x="50.39" y="52.8">e</tspan><tspan class="cls-54" x="56.29" y="52.8">s</tspan><tspan x="61.22" y="52.8">’ websi</tspan><tspan class="cls-15" x="94.74" y="52.8">t</tspan><tspan x="98.36" y="52.8">e</tspan></tspan></text><text class="cls-3" transform="translate(231.97 460.95)">IDENTI<tspan class="cls-51" x="32.65" y="0">F</tspan><tspan x="37.97" y="0">YING</tspan><tspan class="cls-4" x="61.93" y="0" xml:space="preserve"> mentions </tspan><tspan class="cls-4"><tspan x="16.8" y="13.2">about </tspan><tspan class="cls-14" x="48.56" y="13.2">c</tspan><tspan x="53.53" y="13.2">ountries </tspan><tspan x="0.11" y="26.4">indi</tspan><tspan class="cls-8" x="18.91" y="26.4">c</tspan><tspan x="23.96" y="26.4">a</tspan><tspan class="cls-15" x="29.85" y="26.4">t</tspan><tspan x="33.47" y="26.4">ed </tspan><tspan class="cls-49" x="48.87" y="26.4">a</tspan><tspan x="54.66" y="26.4">s “p</tspan><tspan class="cls-51" x="73.3" y="26.4">l</tspan><tspan x="76.37" y="26.4">a</tspan><tspan class="cls-19" x="82.27" y="26.4">c</tspan><tspan x="87.24" y="26.4">es of </tspan><tspan x="-3.44" y="39.6">p</tspan><tspan class="cls-6" x="2.95" y="39.6">r</tspan><tspan x="6.73" y="39.6">oductio</tspan><tspan class="cls-49" x="43.97" y="39.6">n</tspan><tspan x="50.29" y="39.6">” and “p</tspan><tspan class="cls-10" x="89.73" y="39.6">l</tspan><tspan x="92.8" y="39.6">a</tspan><tspan class="cls-14" x="98.7" y="39.6">c</tspan><tspan x="103.67" y="39.6">es </tspan><tspan x="11.38" y="52.8">of impor</tspan><tspan class="cls-54" x="53.39" y="52.8">t</tspan><tspan x="56.97" y="52.8">” in </tspan><tspan class="cls-8" x="76.59" y="52.8">e</tspan><tspan x="82.37" y="52.8">ach </tspan><tspan class="cls-14" x="3.03" y="66">c</tspan><tspan x="8" y="66">oope</tspan><tspan class="cls-50" x="32.85" y="66">r</tspan><tspan x="36.57" y="66">ati</tspan><tspan class="cls-11" x="49.18" y="66">v</tspan><tspan x="54.33" y="66">e</tspan><tspan class="cls-54" x="60.23" y="66">s</tspan><tspan x="65.17" y="66">’ websi</tspan><tspan class="cls-15" x="98.68" y="66">t</tspan><tspan x="102.3" y="66">e</tspan></tspan></text><line class="cls-43" x1="419.67" y1="292.87" x2="419.67" y2="412.79"/><line class="cls-43" x1="673" y1="411.71" x2="154.94" y2="411.71"/><text class="cls-3" transform="translate(103.55 460.95)">IDENTI<tspan class="cls-51" x="32.65" y="0">F</tspan><tspan x="37.97" y="0">YING</tspan><tspan class="cls-4" x="61.93" y="0" xml:space="preserve"> in</tspan><tspan class="cls-52" x="74.39" y="0">t</tspan><tspan class="cls-4" x="78.01" y="0">ern</tspan><tspan class="cls-53" x="94.43" y="0">a</tspan><tspan class="cls-4" x="100.22" y="0">l </tspan><tspan class="cls-4"><tspan x="12.68" y="13.2">mentions about </tspan><tspan class="cls-55" x="0.04" y="26.4">c</tspan><tspan x="5.01" y="26.4">ertifi</tspan><tspan class="cls-8" x="27.92" y="26.4">c</tspan><tspan x="32.97" y="26.4">ation </tspan><tspan class="cls-51" x="61.36" y="26.4">l</tspan><tspan x="64.43" y="26.4">abels in </tspan><tspan class="cls-56" x="6.23" y="39.6">e</tspan><tspan class="cls-57" x="12.02" y="39.6">ach </tspan><tspan class="cls-14" x="32.56" y="39.6">c</tspan><tspan x="37.54" y="39.6">oope</tspan><tspan class="cls-18" x="62.39" y="39.6">r</tspan><tspan x="66.1" y="39.6">ati</tspan><tspan class="cls-58" x="78.72" y="39.6">v</tspan><tspan x="83.87" y="39.6">e</tspan><tspan class="cls-54" x="89.76" y="39.6">s</tspan><tspan x="94.7" y="39.6">’ </tspan><tspan x="32.9" y="52.8">websi</tspan><tspan class="cls-15" x="60.93" y="52.8">t</tspan><tspan x="64.55" y="52.8">e</tspan></tspan></text><line class="cls-43" x1="672.56" y1="412.35" x2="672.56" y2="445.64"/><polygon class="cls-44" points="669.49 443.16 670.04 442.64 672.56 445.35 675.08 442.64 675.63 443.16 672.56 446.45 669.49 443.16"/><text class="cls-3" transform="translate(627.13 461.25)">C<tspan class="cls-47" x="6.25" y="0">A</tspan><tspan x="12.11" y="0">T</tspan><tspan class="cls-12" x="17.94" y="0">E</tspan><tspan x="23.63" y="0">GORIZING</tspan><tspan class="cls-4" x="71.72" y="0" xml:space="preserve"> the </tspan><tspan class="cls-4"><tspan x="8.03" y="13.2">actions of </tspan><tspan class="cls-8" x="59.57" y="13.2">e</tspan><tspan x="65.35" y="13.2">ach </tspan><tspan class="cls-14" x="16.83" y="26.4">c</tspan><tspan x="21.8" y="26.4">oope</tspan><tspan class="cls-50" x="46.65" y="26.4">r</tspan><tspan x="50.37" y="26.4">ati</tspan><tspan class="cls-11" x="62.98" y="26.4">v</tspan><tspan x="68.13" y="26.4">e</tspan></tspan></text><text class="cls-59" transform="translate(630.62 538.9)"><tspan class="cls-60">P</tspan><tspan class="cls-61" x="4.95" y="0">r</tspan><tspan x="8.04" y="0">omo</tspan><tspan class="cls-62" x="25.99" y="0">t</tspan><tspan class="cls-63" x="28.95" y="0">e sus</tspan><tspan class="cls-64" x="49.85" y="0">t</tspan><tspan x="52.87" y="0">ainab</tspan><tspan class="cls-65" x="75.43" y="0">l</tspan><tspan class="cls-63" x="77.94" y="0">e </tspan><tspan class="cls-22" x="85.27" y="0">c</tspan><tspan x="89.41" y="0">ulti</tspan><tspan class="cls-66" x="102.67" y="0">v</tspan><tspan class="cls-63" x="106.78" y="0">ation</tspan><tspan class="cls-60" x="0" y="10.8">P</tspan><tspan class="cls-61" x="4.95" y="10.8">r</tspan><tspan x="8.04" y="10.8">omo</tspan><tspan class="cls-62" x="25.99" y="10.8">t</tspan><tspan class="cls-63" x="28.95" y="10.8">e </tspan><tspan class="cls-22" x="36.29" y="10.8">f</tspan><tspan x="39.09" y="10.8">ood </tspan><tspan class="cls-22" x="57.14" y="10.8">s</tspan><tspan x="61.23" y="10.8">a</tspan><tspan class="cls-22" x="66.05" y="10.8">f</tspan><tspan x="68.85" y="10.8">e</tspan><tspan class="cls-67" x="73.67" y="10.8">t</tspan><tspan x="76.7" y="10.8">y</tspan><tspan x="0" y="21.6">Help p</tspan><tspan class="cls-61" x="26.38" y="21.6">r</tspan><tspan x="29.47" y="21.6">odu</tspan><tspan class="cls-68" x="45.08" y="21.6">c</tspan><tspan x="49.15" y="21.6">e</tspan><tspan class="cls-69" x="53.97" y="21.6">r</tspan><tspan x="57.17" y="21.6">s in imp</tspan><tspan class="cls-61" x="89.39" y="21.6">r</tspan><tspan class="cls-11" x="92.47" y="21.6">o</tspan><tspan x="97.59" y="21.6">ving their li</tspan><tspan class="cls-11" x="142.98" y="21.6">v</tspan><tspan x="147.19" y="21.6">es</tspan><tspan class="cls-70" x="0" y="32.4">E</tspan><tspan class="cls-71" x="4.52" y="32.4">nhan</tspan><tspan class="cls-72" x="25.11" y="32.4">c</tspan><tspan x="29.18" y="32.4">e and support </tspan><tspan class="cls-73" x="88.29" y="32.4">l</tspan><tspan class="cls-71" x="90.8" y="32.4">o</tspan><tspan class="cls-22" x="95.94" y="32.4">ca</tspan><tspan class="cls-71" x="104.8" y="32.4">l p</tspan><tspan class="cls-61" x="115.1" y="32.4">r</tspan><tspan class="cls-71" x="118.19" y="32.4">oduction</tspan><tspan class="cls-60" x="0" y="43.2">P</tspan><tspan class="cls-61" x="4.95" y="43.2">r</tspan><tspan x="8.04" y="43.2">omo</tspan><tspan class="cls-62" x="25.99" y="43.2">t</tspan><tspan class="cls-63" x="28.95" y="43.2">e a </tspan><tspan class="cls-74" x="43.62" y="43.2">f</tspan><tspan x="46.32" y="43.2">ai</tspan><tspan class="cls-75" x="53.58" y="43.2">r</tspan><tspan class="cls-73" x="56.6" y="43.2">-</tspan><tspan x="60.16" y="43.2">t</tspan><tspan class="cls-76" x="63.23" y="43.2">r</tspan><tspan x="66.28" y="43.2">ade socie</tspan><tspan class="cls-67" x="104.49" y="43.2">t</tspan><tspan x="107.51" y="43.2">y</tspan><tspan class="cls-60" x="0" y="54">P</tspan><tspan class="cls-61" x="4.95" y="54">r</tspan><tspan x="8.04" y="54">omo</tspan><tspan class="cls-62" x="25.99" y="54">t</tspan><tspan class="cls-63" x="28.95" y="54">e </tspan><tspan class="cls-72" x="36.29" y="54">c</tspan><tspan x="40.36" y="54">ertifi</tspan><tspan class="cls-22" x="59.1" y="54">c</tspan><tspan x="63.23" y="54">ation </tspan><tspan class="cls-73" x="86.46" y="54">l</tspan><tspan x="88.97" y="54">abels</tspan><tspan class="cls-22" x="0" y="64.8">R</tspan><tspan x="5.22" y="64.8">aise </tspan><tspan class="cls-73" x="23.98" y="64.8">a</tspan><tspan class="cls-77" x="28.76" y="64.8">w</tspan><tspan class="cls-63" x="34.95" y="64.8">a</tspan><tspan class="cls-61" x="39.77" y="64.8">r</tspan><tspan x="42.86" y="64.8">ene</tspan><tspan class="cls-78" x="57.76" y="64.8">s</tspan><tspan x="61.82" y="64.8">s of </tspan><tspan class="cls-68" x="79.05" y="64.8">c</tspan><tspan x="83.11" y="64.8">onsume</tspan><tspan class="cls-69" x="115.4" y="64.8">r</tspan><tspan x="118.59" y="64.8">s and </tspan><tspan class="cls-61" x="143.13" y="64.8">r</tspan><tspan x="146.22" y="64.8">e</tspan><tspan class="cls-64" x="151.05" y="64.8">t</tspan><tspan x="154.06" y="64.8">ai</tspan><tspan class="cls-73" x="161.31" y="64.8">l</tspan><tspan x="163.83" y="64.8">e</tspan><tspan class="cls-79" x="168.65" y="64.8">r</tspan><tspan x="171.84" y="64.8">s</tspan><tspan x="0" y="75.6">Inspi</tspan><tspan class="cls-61" x="19.63" y="75.6">r</tspan><tspan x="22.72" y="75.6">e </tspan><tspan class="cls-73" x="30.05" y="75.6">l</tspan><tspan x="32.56" y="75.6">o</tspan><tspan class="cls-22" x="37.7" y="75.6">ca</tspan><tspan x="46.57" y="75.6">l actions </tspan><tspan class="cls-62" x="83.26" y="75.6">t</tspan><tspan class="cls-71" x="86.22" y="75.6">o so</tspan><tspan class="cls-22" x="103.18" y="75.6">l</tspan><tspan class="cls-11" x="105.65" y="75.6">v</tspan><tspan x="109.86" y="75.6">e </tspan><tspan class="cls-65" x="117.2" y="75.6">l</tspan><tspan x="119.71" y="75.6">o</tspan><tspan class="cls-22" x="124.85" y="75.6">ca</tspan><tspan x="133.71" y="75.6">l p</tspan><tspan class="cls-61" x="144.01" y="75.6">r</tspan><tspan x="147.09" y="75.6">ob</tspan><tspan class="cls-65" x="157.46" y="75.6">l</tspan><tspan class="cls-63" x="159.97" y="75.6">ems</tspan><tspan x="0" y="86.4">Ehnan</tspan><tspan class="cls-72" x="25.2" y="86.4">c</tspan><tspan x="29.27" y="86.4">e the im</tspan><tspan class="cls-22" x="62.37" y="86.4">a</tspan><tspan class="cls-78" x="67.1" y="86.4">g</tspan><tspan class="cls-63" x="71.51" y="86.4">e of M</tspan><tspan class="cls-80" x="96.32" y="86.4">e</tspan><tspan x="101.08" y="86.4">xi</tspan><tspan class="cls-68" x="107.64" y="86.4">c</tspan><tspan x="111.71" y="86.4">o</tspan></text><line class="cls-43" x1="671.61" y1="662" x2="671.61" y2="763.05"/><polygon class="cls-44" points="668.54 760.56 669.09 760.05 671.61 762.76 674.12 760.05 674.67 760.56 671.61 763.86 668.54 760.56"/><circle class="cls-81" cx="543.64" cy="620.22" r="1.56"/><text class="cls-59" transform="translate(531.31 538.03)"><tspan class="cls-60">P</tspan><tspan class="cls-61" x="4.95" y="0">r</tspan><tspan x="8.04" y="0">odu</tspan><tspan class="cls-68" x="23.65" y="0">c</tspan><tspan x="27.72" y="0">er</tspan><tspan x="0" y="10.8">Sel</tspan><tspan class="cls-65" x="12.23" y="10.8">l</tspan><tspan class="cls-63" x="14.74" y="10.8">er</tspan><tspan class="cls-82" x="0" y="21.6">L</tspan><tspan class="cls-70" x="4.07" y="21.6">e</tspan><tspan x="8.8" y="21.6">a</tspan><tspan class="cls-83" x="13.63" y="21.6">k</tspan><tspan x="17.96" y="21.6">er</tspan><tspan x="0" y="32.4">A</tspan><tspan class="cls-68" x="5.08" y="32.4">cc</tspan><tspan x="13.22" y="32.4">ount</tspan></text><line class="cls-43" x1="287.59" y1="412.34" x2="287.59" y2="445.19"/><polygon class="cls-44" points="284.52 442.7 285.07 442.19 287.59 444.9 290.11 442.19 290.66 442.7 287.59 446 284.52 442.7"/><line class="cls-43" x1="155.32" y1="412.34" x2="155.32" y2="445.19"/><polygon class="cls-44" points="152.25 442.7 152.8 442.19 155.32 444.9 157.84 442.19 158.39 442.7 155.32 446 152.25 442.7"/><line class="cls-43" x1="154.32" y1="646.65" x2="154.32" y2="748.52"/><circle class="cls-81" cx="419.72" cy="291.31" r="1.56"/><line class="cls-43" x1="544" y1="747.5" x2="154" y2="747.5"/><line class="cls-43" x1="547.65" y1="413.34" x2="547.65" y2="446.19"/><polygon class="cls-44" points="544.58 443.7 545.13 443.19 547.65 445.9 550.17 443.19 550.72 443.7 547.65 447 544.58 443.7"/><line class="cls-43" x1="283.54" y1="712" x2="283.54" y2="748.52"/><line class="cls-43" x1="420.19" y1="537" x2="420.19" y2="748.01"/><line class="cls-43" x1="543.65" y1="622.22" x2="543.65" y2="747.52"/><line class="cls-43" x1="283.54" y1="748.01" x2="283.54" y2="764.03"/><polygon class="cls-44" points="280.47 761.55 281.02 761.03 283.54 763.74 286.05 761.03 286.6 761.55 283.54 764.84 280.47 761.55"/><text class="cls-84" transform="translate(374.64 27.95)">Goog<tspan class="cls-73" x="21.25" y="0">l</tspan><tspan x="23.8" y="0">e ad</tspan><tspan class="cls-85" x="41.18" y="0">v</tspan><tspan x="45.52" y="0">an</tspan><tspan class="cls-60" x="55.86" y="0">c</tspan><tspan class="cls-73" x="59.93" y="0">e</tspan><tspan x="64.54" y="0">d s</tspan><tspan class="cls-73" x="76.3" y="0">e</tspan><tspan x="80.91" y="0">a</tspan><tspan class="cls-61" x="86.03" y="0">r</tspan><tspan x="89.19" y="0">ch</tspan><tspan x="17.64" y="10.8">In</tspan><tspan class="cls-60" x="25.49" y="10.8">c</tspan><tspan x="29.56" y="10.8">ogni</tspan><tspan class="cls-60" x="47.71" y="10.8">t</tspan><tspan x="50.72" y="10.8">o mode</tspan></text><path class="cls-86" d="M372.77,24.25l-.59-.1a5.89,5.89,0,0,0-.24-.58l.35-.49a.52.52,0,0,0-.06-.67l-.53-.53a.52.52,0,0,0-.37-.16.47.47,0,0,0-.3.1l-.5.35a4,4,0,0,0-.6-.25l-.1-.59a.52.52,0,0,0-.52-.43h-.74a.52.52,0,0,0-.52.43l-.11.61a3.14,3.14,0,0,0-.57.24l-.49-.35a.57.57,0,0,0-.31-.1.52.52,0,0,0-.37.16l-.53.53a.52.52,0,0,0-.06.67l.36.5a3.23,3.23,0,0,0-.24.58l-.59.1a.53.53,0,0,0-.44.52v.75a.53.53,0,0,0,.44.52l.61.1a3.23,3.23,0,0,0,.24.58l-.35.48a.52.52,0,0,0,.06.68l.53.53a.52.52,0,0,0,.37.16.54.54,0,0,0,.3-.1l.5-.36a3,3,0,0,0,.56.23l.1.6a.53.53,0,0,0,.52.44h.75a.53.53,0,0,0,.52-.44l.1-.6a3.23,3.23,0,0,0,.58-.24l.49.36a.56.56,0,0,0,.31.09.51.51,0,0,0,.37-.15l.53-.53a.53.53,0,0,0,0-.68l-.35-.49a3.23,3.23,0,0,0,.24-.58l.6-.1a.53.53,0,0,0,.44-.52v-.75a.53.53,0,0,0-.44-.52Zm0,1.27a.05.05,0,0,1,0,.05l-.74.12a.24.24,0,0,0-.19.18,3.22,3.22,0,0,1-.31.74.23.23,0,0,0,0,.26l.44.62s0,.05,0,.06l-.53.53,0,0h0l-.62-.44a.23.23,0,0,0-.26,0,2.83,2.83,0,0,1-.74.31.25.25,0,0,0-.18.19l-.12.74a.05.05,0,0,1-.05,0h-.75a0,0,0,0,1,0,0l-.13-.74a.21.21,0,0,0-.17-.19,3.12,3.12,0,0,1-.73-.3.27.27,0,0,0-.12,0,.23.23,0,0,0-.14,0l-.62.44h-.06l-.53-.53a0,0,0,0,1,0-.06l.44-.62a.24.24,0,0,0,0-.26,2.53,2.53,0,0,1-.31-.74.26.26,0,0,0-.2-.18l-.75-.12a.07.07,0,0,1,0-.05v-.75a.07.07,0,0,1,0-.05l.74-.12a.25.25,0,0,0,.2-.18,2.5,2.5,0,0,1,.3-.74.24.24,0,0,0,0-.26l-.44-.62a0,0,0,0,1,0-.06l.53-.53a0,0,0,0,1,0,0h0l.61.44a.26.26,0,0,0,.27,0,2.53,2.53,0,0,1,.74-.31.26.26,0,0,0,.18-.2l.12-.75a.07.07,0,0,1,.05,0h.75a0,0,0,0,1,0,0l.13.74a.23.23,0,0,0,.18.2,2.77,2.77,0,0,1,.76.31.24.24,0,0,0,.26,0l.61-.44h.06l.53.53a0,0,0,0,1,0,.06l-.44.62a.23.23,0,0,0,0,.26,2.76,2.76,0,0,1,.31.75.22.22,0,0,0,.19.17l.75.13s0,0,0,0v.75Zm0,0"/><path class="cls-86" d="M369,23.31a1.84,1.84,0,1,0,1.83,1.84A1.84,1.84,0,0,0,369,23.31Zm0,3.19a1.36,1.36,0,1,1,1.35-1.35A1.36,1.36,0,0,1,369,26.5Zm0,0"/><circle class="cls-81" cx="420.82" cy="45.51" r="1.56"/><text class="cls-84" transform="translate(379.37 206.64)">Ins<tspan class="cls-60" x="12" y="0">t</tspan><tspan x="15.01" y="0">ant Da</tspan><tspan class="cls-60" x="41.75" y="0">t</tspan><tspan x="44.77" y="0">a Sc</tspan><tspan class="cls-87" x="61.32" y="0">r</tspan><tspan x="64.48" y="0">aper</tspan><tspan x="31.3" y="10.8">E</tspan><tspan class="cls-77" x="36.06" y="10.8">x</tspan><tspan class="cls-60" x="40.28" y="10.8">c</tspan><tspan x="44.35" y="10.8">el</tspan></text><text class="cls-3" transform="translate(242.83 778.19)">VIS<tspan class="cls-8" x="15.6" y="0">U</tspan><tspan x="22.7" y="0">ALIZ</tspan><tspan class="cls-47" x="43.79" y="0">A</tspan><tspan x="49.66" y="0">TION 1</tspan></text><text class="cls-84" transform="translate(263.4 789.06)">Illust<tspan class="cls-61" x="20.34" y="0">r</tspan><tspan x="23.5" y="0">a</tspan><tspan class="cls-88" x="28.62" y="0">t</tspan><tspan x="31.63" y="0">or</tspan></text><path class="cls-86" d="M261.35,784.53l-.59-.1a5,5,0,0,0-.24-.58l.35-.5a.52.52,0,0,0-.06-.67l-.53-.53a.52.52,0,0,0-.37-.16.51.51,0,0,0-.3.1l-.5.35a3.13,3.13,0,0,0-.6-.24l-.1-.59a.52.52,0,0,0-.52-.44h-.74a.52.52,0,0,0-.52.44l-.11.6a2.87,2.87,0,0,0-.57.24l-.49-.35a.57.57,0,0,0-.31-.1.52.52,0,0,0-.37.16l-.53.53a.53.53,0,0,0-.06.68l.36.49a3,3,0,0,0-.24.59l-.59.1a.52.52,0,0,0-.44.51v.75a.53.53,0,0,0,.44.52l.61.1a3,3,0,0,0,.24.58l-.35.49a.51.51,0,0,0,.06.67l.53.53a.52.52,0,0,0,.37.16.54.54,0,0,0,.3-.1l.5-.35a3.88,3.88,0,0,0,.56.23l.1.59a.52.52,0,0,0,.52.44h.75a.52.52,0,0,0,.52-.44l.1-.59a5.89,5.89,0,0,0,.58-.24l.49.35a.57.57,0,0,0,.31.1.52.52,0,0,0,.37-.16l.53-.53a.52.52,0,0,0,.05-.67l-.35-.5a3.23,3.23,0,0,0,.24-.58l.6-.1a.53.53,0,0,0,.44-.52v-.74a.52.52,0,0,0-.44-.52Zm0,1.26s0,.05,0,.05l-.74.12a.26.26,0,0,0-.2.18,2.81,2.81,0,0,1-.3.74.24.24,0,0,0,0,.27l.43.61s0,0,0,.06l-.53.53a0,0,0,0,1,0,0h0l-.62-.44a.24.24,0,0,0-.26,0,2.83,2.83,0,0,1-.74.31.25.25,0,0,0-.18.19l-.12.75a.07.07,0,0,1,0,0h-.75a0,0,0,0,1,0,0l-.13-.75a.23.23,0,0,0-.18-.19,3.23,3.23,0,0,1-.72-.3l-.12,0a.23.23,0,0,0-.14,0l-.62.45h-.06l-.53-.53a0,0,0,0,1,0-.06l.44-.61a.26.26,0,0,0,0-.27,2.53,2.53,0,0,1-.31-.74.24.24,0,0,0-.2-.17l-.75-.13a.07.07,0,0,1,0-.05v-.75a0,0,0,0,1,0,0l.74-.13a.24.24,0,0,0,.2-.17,2.46,2.46,0,0,1,.3-.75.24.24,0,0,0,0-.26l-.44-.62s0-.05,0-.06l.53-.53,0,0h0l.61.44a.24.24,0,0,0,.27,0,2.83,2.83,0,0,1,.74-.31.24.24,0,0,0,.17-.19l.13-.76a.05.05,0,0,1,0,0h.75s0,0,0,0l.13.75a.22.22,0,0,0,.18.19,3.12,3.12,0,0,1,.76.31.23.23,0,0,0,.26,0l.61-.44h0a0,0,0,0,1,0,0l.53.53s0,0,0,.06l-.44.61a.23.23,0,0,0,0,.26,3,3,0,0,1,.31.75.22.22,0,0,0,.19.17l.74.13s0,0,0,0v.74Zm0,0"/><path class="cls-86" d="M257.54,783.58a1.84,1.84,0,1,0,1.83,1.84,1.84,1.84,0,0,0-1.83-1.84Zm0,3.19a1.36,1.36,0,1,1,1.35-1.35,1.35,1.35,0,0,1-1.35,1.35Zm0,0"/><text class="cls-3" transform="translate(632.18 778.19)">VIS<tspan class="cls-8" x="15.6" y="0">U</tspan><tspan x="22.7" y="0">ALIZ</tspan><tspan class="cls-47" x="43.79" y="0">A</tspan><tspan x="49.66" y="0">TION 2</tspan></text><text class="cls-84" transform="translate(648.7 789.73)">RA<tspan class="cls-22" x="10.49" y="0">W</tspan><tspan x="17.78" y="0">g</tspan><tspan class="cls-87" x="23" y="0">r</tspan><tspan x="26.16" y="0">aphs</tspan><tspan x="2.8" y="10.8">Illust</tspan><tspan class="cls-61" x="23.14" y="10.8">r</tspan><tspan x="26.3" y="10.8">a</tspan><tspan class="cls-88" x="31.42" y="10.8">t</tspan><tspan x="34.44" y="10.8">or</tspan></text><path class="cls-86" d="M646.37,786.19l-.6-.1a3.23,3.23,0,0,0-.24-.58l.35-.49a.53.53,0,0,0,0-.68l-.53-.53a.52.52,0,0,0-.38-.15.47.47,0,0,0-.3.1l-.49.35a3.46,3.46,0,0,0-.6-.25l-.1-.59a.53.53,0,0,0-.52-.44h-.75a.53.53,0,0,0-.52.44l-.1.6a4.23,4.23,0,0,0-.58.25l-.49-.35a.47.47,0,0,0-.3-.1.5.5,0,0,0-.37.15l-.54.53a.53.53,0,0,0,0,.68l.35.5a4.12,4.12,0,0,0-.23.58l-.59.1a.52.52,0,0,0-.44.52v.75a.52.52,0,0,0,.44.51l.6.11a3.61,3.61,0,0,0,.24.57l-.35.49a.54.54,0,0,0,.06.68l.53.53a.51.51,0,0,0,.37.15.5.5,0,0,0,.31-.1l.5-.35a3.13,3.13,0,0,0,.56.23l.1.6a.52.52,0,0,0,.51.44h.75a.53.53,0,0,0,.52-.44l.1-.6a2.72,2.72,0,0,0,.58-.24l.5.35a.45.45,0,0,0,.3.1.51.51,0,0,0,.37-.15l.53-.53a.53.53,0,0,0,.06-.68l-.35-.49a4.17,4.17,0,0,0,.24-.58l.59-.1a.53.53,0,0,0,.44-.52v-.75a.51.51,0,0,0-.43-.52Zm0,1.27a0,0,0,0,1,0,0l-.75.13a.22.22,0,0,0-.19.17,2.76,2.76,0,0,1-.31.75.24.24,0,0,0,0,.26l.44.62a0,0,0,0,1,0,.06L645,790h-.07l-.61-.44a.27.27,0,0,0-.26,0,2.71,2.71,0,0,1-.75.31.24.24,0,0,0-.17.19l-.13.75a0,0,0,0,1-.05,0h-.74a0,0,0,0,1,0,0l-.12-.75a.27.27,0,0,0-.18-.19,2.56,2.56,0,0,1-.73-.3l-.12,0a.24.24,0,0,0-.14.05l-.62.44h0a0,0,0,0,1,0,0l-.53-.53s0,0,0-.06l.43-.61a.23.23,0,0,0,0-.26,2.83,2.83,0,0,1-.31-.74.25.25,0,0,0-.19-.18l-.75-.13a0,0,0,0,1,0,0v-.75s0,0,0-.05l.74-.12a.25.25,0,0,0,.19-.18,3,3,0,0,1,.31-.75.25.25,0,0,0,0-.26l-.44-.62a0,0,0,0,1,0-.06l.53-.53h.06l.61.43a.23.23,0,0,0,.26,0,3.22,3.22,0,0,1,.74-.31.25.25,0,0,0,.18-.19l.13-.75a0,0,0,0,1,0,0h.75s0,0,.05,0l.12.74a.25.25,0,0,0,.18.19,3,3,0,0,1,.76.32.27.27,0,0,0,.26,0l.62-.45H645l.53.53a.06.06,0,0,1,0,.06l-.44.62a.24.24,0,0,0,0,.26,2.83,2.83,0,0,1,.31.74.25.25,0,0,0,.19.18l.75.12a.07.07,0,0,1,0,.05v.75Zm0,0"/><path class="cls-86" d="M642.55,785.25a1.84,1.84,0,1,0,1.84,1.83,1.83,1.83,0,0,0-1.84-1.83Zm0,3.19a1.36,1.36,0,1,1,1.36-1.36,1.35,1.35,0,0,1-1.36,1.36Zm0,0"/><text class="cls-59" transform="translate(114.96 573.69)"><tspan class="cls-89">F</tspan><tspan x="3.79" y="0">airt</tspan><tspan class="cls-76" x="17.47" y="0">r</tspan><tspan class="cls-63" x="20.51" y="0">ade In</tspan><tspan class="cls-62" x="45.73" y="0">t</tspan><tspan class="cls-63" x="48.69" y="0">ernation</tspan><tspan class="cls-22" x="82.84" y="0">a</tspan><tspan x="87.58" y="0">l</tspan><tspan class="cls-68" x="0" y="10.8">c</tspan><tspan class="cls-63" x="4.07" y="10.8">ertifi</tspan><tspan class="cls-22" x="22.81" y="10.8">c</tspan><tspan x="26.95" y="10.8">ation</tspan><tspan x="0" y="26.23">Other </tspan><tspan class="cls-68" x="25.24" y="26.23">c</tspan><tspan x="29.3" y="26.23">ertifi</tspan><tspan class="cls-22" x="48.05" y="26.23">c</tspan><tspan x="52.18" y="26.23">ations</tspan></text><line class="cls-45" x1="154.01" y1="549.02" x2="154.01" y2="529.71"/><line class="cls-45" x1="548.01" y1="519.02" x2="548.01" y2="499.71"/><line class="cls-45" x1="670.01" y1="519.02" x2="670.01" y2="499.71"/><line class="cls-45" x1="287.01" y1="556.02" x2="287.01" y2="536.71"/><text class="cls-59" transform="translate(246.09 573.69)"><tspan class="cls-22">P</tspan><tspan class="cls-73" x="5.04" y="0">l</tspan><tspan x="7.55" y="0">a</tspan><tspan class="cls-68" x="12.38" y="0">c</tspan><tspan class="cls-63" x="16.44" y="0">es of p</tspan><tspan class="cls-61" x="43.72" y="0">r</tspan><tspan x="46.81" y="0">oduction:</tspan><tspan class="cls-61"><tspan x="0" y="10.8">P</tspan><tspan class="cls-63" x="4.86" y="10.8">erù</tspan></tspan><tspan class="cls-22" x="0" y="21.6">C</tspan><tspan x="4.86" y="21.6">hi</tspan><tspan class="cls-73" x="12.55" y="21.6">l</tspan><tspan x="15.06" y="21.6">e</tspan><tspan class="cls-88" x="0" y="32.4">C</tspan><tspan class="cls-71" x="4.77" y="32.4">o</tspan><tspan class="cls-73" x="9.91" y="32.4">l</tspan><tspan x="12.42" y="32.4">ombia</tspan><tspan x="0" y="43.2">M</tspan><tspan class="cls-83" x="6.93" y="43.2">e</tspan><tspan x="11.69" y="43.2">xi</tspan><tspan class="cls-68" x="18.25" y="43.2">c</tspan><tspan x="22.32" y="43.2">o</tspan><tspan x="0" y="54">Domini</tspan><tspan class="cls-22" x="28.62" y="54">c</tspan><tspan class="cls-63" x="32.75" y="54">an </tspan><tspan class="cls-90" x="45.34" y="54">R</tspan><tspan x="50.52" y="54">e</tspan><tspan class="cls-22" x="55.34" y="54">p</tspan><tspan x="60.48" y="54">.</tspan><tspan class="cls-22" x="0" y="64.8">Ca</tspan><tspan class="cls-71" x="9.59" y="64.8">li</tspan><tspan class="cls-22" x="14.58" y="64.8">f</tspan><tspan x="17.38" y="64.8">ornia</tspan><tspan class="cls-22" x="0" y="79.13">P</tspan><tspan class="cls-73" x="5.04" y="79.13">l</tspan><tspan x="7.55" y="79.13">a</tspan><tspan class="cls-68" x="12.38" y="79.13">c</tspan><tspan class="cls-63" x="16.44" y="79.13">es of impor</tspan><tspan class="cls-91" x="62.32" y="79.13">t</tspan><tspan x="65.41" y="79.13">:</tspan><tspan x="0" y="89.93">M</tspan><tspan class="cls-83" x="6.93" y="89.93">e</tspan><tspan x="11.69" y="89.93">xi</tspan><tspan class="cls-68" x="18.25" y="89.93">c</tspan><tspan x="22.32" y="89.93">o</tspan><tspan x="0" y="100.73">Asia</tspan><tspan class="cls-22"><tspan x="0" y="111.53">C</tspan><tspan class="cls-63" x="4.86" y="111.53">anada</tspan></tspan><tspan class="cls-92" x="0" y="122.33">E</tspan><tspan x="4.47" y="122.33">u</tspan><tspan class="cls-61" x="9.68" y="122.33">r</tspan><tspan class="cls-71" x="12.77" y="122.33">ope</tspan><tspan class="cls-93" x="0" y="133.13">U</tspan><tspan class="cls-73" x="5.79" y="133.13">S</tspan><tspan x="10.59" y="133.13">A</tspan></text><line class="cls-43" x1="420.82" y1="222.33" x2="420.82" y2="253.85"/><polygon class="cls-44" points="417.75 251.37 418.3 250.86 420.82 253.56 423.33 250.86 423.88 251.37 420.82 254.67 417.75 251.37"/><circle class="cls-81" cx="420.82" cy="224.07" r="1.56"/><text class="cls-59" transform="translate(522.58 267.75)"><tspan class="cls-89">F</tspan><tspan x="3.79" y="0">airt</tspan><tspan class="cls-76" x="17.47" y="0">r</tspan><tspan class="cls-70" x="20.51" y="0">as</tspan><tspan x="29.33" y="0">a</tspan><tspan class="cls-60"><tspan x="0" y="10.8">P</tspan><tspan class="cls-76" x="4.95" y="10.8">r</tspan><tspan class="cls-70" x="7.99" y="10.8">a</tspan><tspan class="cls-78" x="12.73" y="10.8">g</tspan><tspan class="cls-71" x="17.14" y="10.8">or</tspan></tspan><tspan class="cls-22" x="0" y="21.6">L</tspan><tspan x="4.2" y="21.6">a </tspan><tspan class="cls-94" x="11.54" y="21.6">C</tspan><tspan x="16.32" y="21.6">u</tspan><tspan class="cls-95" x="21.53" y="21.6">p</tspan><tspan class="cls-63" x="26.67" y="21.6">anda</tspan><tspan x="0" y="32.4">Del </tspan><tspan class="cls-90" x="15.58" y="32.4">R</tspan><tspan class="cls-96" x="20.75" y="32.4">e</tspan><tspan x="25.56" y="32.4">y A</tspan><tspan class="cls-11" x="37.37" y="32.4">v</tspan><tspan class="cls-71" x="41.58" y="32.4">o</tspan><tspan class="cls-22" x="46.72" y="32.4">c</tspan><tspan class="cls-63" x="50.85" y="32.4">ado </tspan><tspan class="cls-60" x="68.59" y="32.4">C</tspan><tspan x="73.36" y="32.4">om</tspan><tspan class="cls-95" x="86.17" y="32.4">p</tspan><tspan class="cls-63" x="91.31" y="32.4">a</tspan><tspan class="cls-97" x="96.14" y="32.4">n</tspan><tspan x="101.31" y="32.4">y</tspan><tspan class="cls-22" x="0" y="43.2">W</tspan><tspan x="7.2" y="43.2">est </tspan><tspan class="cls-98" x="21.78" y="43.2">P</tspan><tspan x="26.39" y="43.2">ack A</tspan><tspan class="cls-11" x="47.42" y="43.2">v</tspan><tspan class="cls-71" x="51.63" y="43.2">o</tspan><tspan class="cls-22" x="56.77" y="43.2">c</tspan><tspan x="60.9" y="43.2">ado G</tspan><tspan class="cls-61" x="84.2" y="43.2">r</tspan><tspan x="87.29" y="43.2">owe</tspan><tspan class="cls-69" x="103.54" y="43.2">r</tspan><tspan x="106.73" y="43.2">s</tspan><tspan class="cls-88" x="0" y="54">E</tspan><tspan class="cls-71" x="4.43" y="54">qu</tspan><tspan class="cls-70" x="14.9" y="54">a</tspan><tspan class="cls-71" x="19.64" y="54">l E</tspan><tspan class="cls-83" x="29.31" y="54">x</tspan><tspan x="33.38" y="54">chan</tspan><tspan class="cls-78" x="52.94" y="54">g</tspan><tspan x="57.35" y="54">e </tspan><tspan class="cls-60" x="64.68" y="54">C</tspan><tspan x="69.45" y="54">oop</tspan><tspan class="cls-99" x="0" y="64.8">R</tspan><tspan x="5.26" y="64.8">S</tspan><tspan class="cls-22" x="10.11" y="64.8">E</tspan><tspan x="14.63" y="64.8">S</tspan><tspan class="cls-88" x="0" y="75.6">C</tspan><tspan class="cls-71" x="4.77" y="75.6">onec</tspan><tspan class="cls-62" x="24.21" y="75.6">t</tspan><tspan x="27.17" y="75.6">o</tspan><tspan class="cls-22" x="0" y="86.4">L</tspan><tspan x="4.2" y="86.4">a </tspan><tspan class="cls-72" x="11.54" y="86.4">c</tspan><tspan class="cls-71" x="15.61" y="86.4">ope</tspan><tspan class="cls-76" x="30.8" y="86.4">r</tspan><tspan x="33.84" y="86.4">acha</tspan><tspan class="cls-88" x="0" y="97.2">C</tspan><tspan x="4.77" y="97.2">ent</tspan><tspan class="cls-76" x="17.92" y="97.2">r</tspan><tspan class="cls-22" x="20.96" y="97.2">a</tspan><tspan x="25.7" y="97.2">l </tspan><tspan class="cls-88" x="30.76" y="97.2">C</tspan><tspan class="cls-71" x="35.53" y="97.2">oop</tspan><tspan class="cls-100" x="0" y="108">V</tspan><tspan class="cls-22" x="4.55" y="108">a</tspan><tspan x="9.29" y="108">l</tspan><tspan class="cls-65" x="11.84" y="108">l</tspan><tspan class="cls-96" x="14.36" y="108">e</tspan><tspan x="19.16" y="108">y Natu</tspan><tspan class="cls-76" x="45.04" y="108">r</tspan><tspan class="cls-70" x="48.09" y="108">a</tspan><tspan x="52.82" y="108">l </tspan><tspan class="cls-101" x="57.89" y="108">F</tspan><tspan x="61.9" y="108">oods</tspan></text><text class="cls-59" transform="translate(639.49 267.75)">Bio <tspan class="cls-22" x="15.46" y="0">P</tspan><tspan class="cls-73" x="20.5" y="0">l</tspan><tspan x="23.01" y="0">ane</tspan><tspan class="cls-64" x="37.92" y="0">t</tspan><tspan x="40.93" y="0">a</tspan><tspan class="cls-61" x="0" y="10.8">P</tspan><tspan class="cls-70" x="4.86" y="10.8">e</tspan><tspan x="9.59" y="10.8">a</tspan><tspan class="cls-68" x="14.42" y="10.8">c</tspan><tspan class="cls-63" x="18.49" y="10.8">e Geec</tspan><tspan class="cls-73" x="45.25" y="10.8">k</tspan><tspan x="49.6" y="10.8">s</tspan><tspan class="cls-89" x="0" y="21.6">F</tspan><tspan x="3.79" y="21.6">air </tspan><tspan class="cls-22" x="16.91" y="21.6">W</tspan><tspan class="cls-71" x="24.11" y="21.6">or</tspan><tspan class="cls-73" x="32.61" y="21.6">l</tspan><tspan class="cls-71" x="35.12" y="21.6">d </tspan><tspan class="cls-60" x="42.89" y="21.6">P</tspan><tspan class="cls-61" x="47.84" y="21.6">r</tspan><tspan x="50.93" y="21.6">oject</tspan><tspan x="0" y="32.4">Midd</tspan><tspan class="cls-73" x="19.89" y="32.4">l</tspan><tspan x="22.4" y="32.4">ebury Natu</tspan><tspan class="cls-76" x="66.91" y="32.4">r</tspan><tspan class="cls-70" x="69.95" y="32.4">a</tspan><tspan class="cls-71" x="74.68" y="32.4">l </tspan><tspan class="cls-101" x="79.75" y="32.4">F</tspan><tspan x="83.76" y="32.4">ood</tspan><tspan x="0" y="43.2">Har</tspan><tspan class="cls-11" x="14.21" y="43.2">v</tspan><tspan x="18.42" y="43.2">est Mar</tspan><tspan class="cls-83" x="48.11" y="43.2">k</tspan><tspan class="cls-63" x="52.44" y="43.2">et</tspan><tspan class="cls-22" x="0" y="54">We</tspan><tspan class="cls-90" x="11.93" y="54">a</tspan><tspan class="cls-11" x="16.62" y="54">v</tspan><tspan x="20.83" y="54">er St</tspan><tspan class="cls-61" x="39.45" y="54">r</tspan><tspan x="42.53" y="54">eet Mar</tspan><tspan class="cls-83" x="72.87" y="54">k</tspan><tspan class="cls-63" x="77.2" y="54">et</tspan><tspan x="0" y="64.8">Abundan</tspan><tspan class="cls-72" x="36.13" y="64.8">c</tspan><tspan x="40.19" y="64.8">e </tspan><tspan class="cls-60" x="47.53" y="64.8">C</tspan><tspan x="52.3" y="64.8">oop</tspan><tspan x="0" y="75.6">Un</tspan><tspan class="cls-62" x="11.12" y="75.6">t</tspan><tspan x="14.08" y="75.6">ou</tspan><tspan class="cls-79" x="24.43" y="75.6">r</tspan><tspan x="27.63" y="75.6">s </tspan><tspan class="cls-76" x="34.32" y="75.6">F</tspan><tspan x="38.33" y="75.6">oundation</tspan><tspan x="0" y="86.4">Vi</tspan><tspan class="cls-61" x="7.34" y="86.4">r</tspan><tspan x="10.43" y="86.4">oqua </tspan><tspan class="cls-101" x="33.38" y="86.4">F</tspan><tspan x="37.39" y="86.4">ood </tspan><tspan class="cls-88" x="55.45" y="86.4">C</tspan><tspan class="cls-71" x="60.22" y="86.4">oop</tspan><tspan class="cls-60" x="0" y="97.2">P</tspan><tspan class="cls-61" x="4.95" y="97.2">r</tspan><tspan x="8.04" y="97.2">ome</tspan><tspan class="cls-62" x="25.68" y="97.2">t</tspan><tspan x="28.64" y="97.2">o</tspan></text><line class="cls-45" x1="491.13" y1="264.22" x2="518.24" y2="264.22"/><line class="cls-43" x1="419.59" y1="412.34" x2="419.59" y2="445.19"/><polygon class="cls-44" points="416.52 442.7 417.07 442.19 419.59 444.9 422.1 442.19 422.65 442.7 419.59 446 416.52 442.7"/><circle class="cls-81" cx="671.65" cy="660.22" r="1.56"/><circle class="cls-81" cx="419.75" cy="537" r="1.46"/><circle class="cls-81" cx="283.54" cy="710.76" r="1.37"/><path class="cls-81" d="M155.27,647.07a1.08,1.08,0,1,1-1.08-1.08A1.08,1.08,0,0,1,155.27,647.07Z"/><path class="cls-86" d="M377,203.26l-.6-.1a3.23,3.23,0,0,0-.24-.58l.36-.49a.53.53,0,0,0-.06-.68l-.53-.53a.51.51,0,0,0-.37-.15.45.45,0,0,0-.3.1l-.5.35a3.16,3.16,0,0,0-.6-.25l-.1-.59a.53.53,0,0,0-.52-.44h-.75a.52.52,0,0,0-.51.44l-.11.61a2.87,2.87,0,0,0-.57.24l-.49-.35a.5.5,0,0,0-.31-.1.56.56,0,0,0-.37.15l-.53.53a.53.53,0,0,0-.06.68l.36.5a3.23,3.23,0,0,0-.24.58l-.59.1a.53.53,0,0,0-.44.52v.75a.53.53,0,0,0,.44.52l.61.1a3.23,3.23,0,0,0,.24.58l-.35.48a.52.52,0,0,0,.06.68l.52.53a.54.54,0,0,0,.38.15.53.53,0,0,0,.3-.09l.5-.36a3,3,0,0,0,.56.23l.1.6a.53.53,0,0,0,.52.44h.75a.53.53,0,0,0,.52-.44l.1-.6a3.23,3.23,0,0,0,.58-.24l.49.35a.5.5,0,0,0,.31.1.51.51,0,0,0,.37-.15l.53-.53a.53.53,0,0,0,0-.68l-.35-.49a3.23,3.23,0,0,0,.24-.58l.6-.1a.53.53,0,0,0,.44-.52v-.75a.53.53,0,0,0-.44-.52Zm0,1.27a.07.07,0,0,1,0,.05l-.74.12a.26.26,0,0,0-.2.18,2.53,2.53,0,0,1-.31.74.27.27,0,0,0,0,.26l.44.62s0,0,0,.06l-.53.53h-.06l-.62-.43a.23.23,0,0,0-.26,0,2.81,2.81,0,0,1-.74.3.25.25,0,0,0-.18.2l-.13.74a0,0,0,0,1,0,0h-.75a.05.05,0,0,1-.05,0l-.12-.74a.26.26,0,0,0-.18-.2,2.79,2.79,0,0,1-.72-.29.19.19,0,0,0-.12,0,.24.24,0,0,0-.14,0l-.63.44h-.06l-.53-.53a.06.06,0,0,1,0-.06l.44-.62a.24.24,0,0,0,0-.26,2.86,2.86,0,0,1-.32-.74.24.24,0,0,0-.19-.18l-.75-.13a0,0,0,0,1,0,0v-.75a.07.07,0,0,1,0-.05l.74-.12a.26.26,0,0,0,.2-.18,2.5,2.5,0,0,1,.3-.74.24.24,0,0,0,0-.26l-.45-.63a0,0,0,0,1,0-.06l.53-.53h.06l.61.44a.29.29,0,0,0,.27,0,2.86,2.86,0,0,1,.74-.32.22.22,0,0,0,.17-.19l.13-.75a.07.07,0,0,1,.05,0h.75a0,0,0,0,1,0,0l.13.74a.24.24,0,0,0,.17.2,2.7,2.7,0,0,1,.77.31.24.24,0,0,0,.26,0l.61-.44h.06l.53.53a0,0,0,0,1,0,.06l-.44.62a.23.23,0,0,0,0,.26,3.22,3.22,0,0,1,.31.74.21.21,0,0,0,.19.18l.74.13a0,0,0,0,1,0,0v.75Zm0,0"/><path class="cls-86" d="M373.21,202.32a1.84,1.84,0,1,0,1.83,1.83,1.83,1.83,0,0,0-1.83-1.83Zm0,3.19a1.36,1.36,0,1,1,1.35-1.36,1.36,1.36,0,0,1-1.35,1.36Zm0,0"/></g></svg>