<svg xmlns="http://www.w3.org/2000/svg" viewBox="0 0 804 523"><defs><style>.cls-1{font-size:12px;}.cls-1,.cls-11,.cls-3,.cls-36,.cls-7{fill:#fff;}.cls-1,.cls-11,.cls-3{font-family:FiraSans-Medium, Fira Sans;font-weight:500;}.cls-2{letter-spacing:-0.01em;}.cls-3,.cls-7{font-size:11px;}.cls-35,.cls-36,.cls-4,.cls-49,.cls-50,.cls-51,.cls-52,.cls-53,.cls-7{font-family:FiraSans-Light, Fira Sans;font-weight:300;}.cls-5{letter-spacing:-0.02em;}.cls-49,.cls-6{letter-spacing:-0.03em;}.cls-8{letter-spacing:-0.03em;}.cls-35,.cls-9{letter-spacing:-0.01em;}.cls-10{letter-spacing:0em;}.cls-11,.cls-29,.cls-36{font-size:9px;}.cls-12{letter-spacing:-0.06em;}.cls-13{letter-spacing:-0.04em;}.cls-14{letter-spacing:-0.01em;}.cls-15{letter-spacing:-0.01em;}.cls-16{letter-spacing:-0.01em;}.cls-17{letter-spacing:0em;}.cls-18{letter-spacing:-0.02em;}.cls-19{letter-spacing:-0.01em;}.cls-20{letter-spacing:0em;}.cls-21{letter-spacing:0em;}.cls-22{letter-spacing:-0.02em;}.cls-23{letter-spacing:-0.06em;}.cls-24{letter-spacing:-0.02em;}.cls-25{letter-spacing:0.01em;}.cls-26,.cls-28,.cls-59,.cls-66{fill:none;}.cls-26,.cls-28,.cls-33{stroke:#95c11f;}.cls-26,.cls-28,.cls-33,.cls-59,.cls-66{stroke-miterlimit:10;}.cls-26,.cls-28,.cls-33,.cls-66{stroke-width:0.75px;}.cls-27{fill:#95c11f;}.cls-28{stroke-dasharray:2;}.cls-29,.cls-32{fill:gray;}.cls-29{font-family:FiraSans-Italic, Fira Sans;font-style:italic;}.cls-30{letter-spacing:0em;}.cls-31{letter-spacing:-0.03em;}.cls-34{letter-spacing:-0.02em;}.cls-37{letter-spacing:-0.03em;}.cls-38{letter-spacing:-0.03em;}.cls-39{letter-spacing:-0.01em;}.cls-40{letter-spacing:-0.01em;}.cls-41{letter-spacing:0em;}.cls-42{letter-spacing:-0.03em;}.cls-43{letter-spacing:-0.05em;}.cls-44{letter-spacing:-0.02em;}.cls-45{letter-spacing:0em;}.cls-46{letter-spacing:-0.01em;}.cls-47{letter-spacing:-0.05em;}.cls-48{letter-spacing:-0.02em;}.cls-50,.cls-56{letter-spacing:0em;}.cls-51{letter-spacing:0em;}.cls-52{letter-spacing:-0.01em;}.cls-53{letter-spacing:-0.02em;}.cls-54{letter-spacing:0em;}.cls-55{letter-spacing:-0.02em;}.cls-57{letter-spacing:-0.01em;}.cls-58{letter-spacing:0em;}.cls-59{stroke:#333;stroke-width:0.5px;}.cls-60{letter-spacing:0em;}.cls-61{letter-spacing:-0.01em;}.cls-62{letter-spacing:-0.03em;}.cls-63{letter-spacing:-0.05em;}.cls-64{letter-spacing:-0.04em;}.cls-65{letter-spacing:-0.05em;}.cls-66{stroke:#666;}</style></defs><title>protocols</title><g id="图层_2" data-name="图层 2"><text class="cls-1" transform="translate(347.24 10.53)">4 QUERI<tspan class="cls-2" x="42.98" y="0">E</tspan><tspan x="49.22" y="0">S:</tspan></text><text class="cls-3" transform="translate(325.12 135.85)">SCRAPING <tspan class="cls-4" x="52.44" y="0">among the </tspan><tspan class="cls-4"><tspan x="7.23" y="13.2">fi</tspan><tspan class="cls-5" x="13.43" y="13.2">r</tspan><tspan x="17.33" y="13.2">st 10 </tspan><tspan class="cls-6" x="42.92" y="13.2">r</tspan><tspan x="46.69" y="13.2">esults and </tspan><tspan x="30.81" y="26.4">list them</tspan></tspan></text><text class="cls-7" transform="translate(339.59 218.72)"><tspan class="cls-8">F</tspan><tspan x="4.91" y="0">or </tspan><tspan class="cls-9" x="18.36" y="0">e</tspan><tspan x="24.15" y="0">ach </tspan><tspan class="cls-6" x="44.69" y="0">r</tspan><tspan x="48.47" y="0">esul</tspan><tspan class="cls-10" x="68.96" y="0">t</tspan><tspan x="72.73" y="0">:</tspan></text><text class="cls-11" transform="translate(476.19 8.39)"><tspan class="cls-12">Y</tspan><tspan x="4.6" y="0">ou</tspan><tspan class="cls-13" x="15.05" y="0">T</tspan><tspan x="19.46" y="0">ube:</tspan><tspan class="cls-14" x="0" y="10.8">“</tspan><tspan class="cls-15" x="3.73" y="10.8">ag</tspan><tspan x="13.29" y="10.8">ua</tspan><tspan class="cls-16" x="23.4" y="10.8">c</tspan><tspan class="cls-17" x="27.61" y="10.8">a</tspan><tspan class="cls-18" x="32.53" y="10.8">t</tspan><tspan x="35.75" y="10.8">e </tspan><tspan class="cls-19" x="42.94" y="10.8">c</tspan><tspan x="47.15" y="10.8">ar</tspan><tspan class="cls-18" x="55.61" y="10.8">t</tspan><tspan x="58.83" y="10.8">e</tspan><tspan class="cls-20" x="63.77" y="10.8">l</tspan><tspan class="cls-21" x="66.38" y="10.8">e</tspan><tspan class="cls-22" x="71.32" y="10.8">s</tspan><tspan x="75.47" y="10.8">”</tspan><tspan class="cls-4"><tspan class="cls-20" x="0" y="21.6">l</tspan><tspan x="2.51" y="21.6">ang: S</tspan><tspan class="cls-23" x="26.34" y="21.6">P</tspan><tspan x="30.93" y="21.6">A</tspan><tspan class="cls-20" x="0" y="32.4">l</tspan><tspan class="cls-17" x="2.51" y="32.4">o</tspan><tspan class="cls-16" x="7.65" y="32.4">ca</tspan><tspan class="cls-17" x="16.52" y="32.4">li</tspan><tspan class="cls-14" x="21.5" y="32.4">z</tspan><tspan x="25.16" y="32.4">ation: MEX</tspan></tspan><tspan class="cls-12" x="0" y="54">Y</tspan><tspan x="4.6" y="54">ou</tspan><tspan class="cls-13" x="15.05" y="54">T</tspan><tspan x="19.46" y="54">ube:</tspan><tspan class="cls-14" x="0" y="64.8">“</tspan><tspan class="cls-15" x="3.73" y="64.8">ag</tspan><tspan x="13.29" y="64.8">ua</tspan><tspan class="cls-16" x="23.4" y="64.8">c</tspan><tspan class="cls-17" x="27.61" y="64.8">a</tspan><tspan class="cls-18" x="32.53" y="64.8">t</tspan><tspan x="35.75" y="64.8">e mafi</tspan><tspan class="cls-15" x="60.79" y="64.8">a</tspan><tspan x="65.62" y="64.8">”</tspan><tspan class="cls-4"><tspan class="cls-20" x="0" y="75.6">l</tspan><tspan x="2.51" y="75.6">ang: S</tspan><tspan class="cls-23" x="26.34" y="75.6">P</tspan><tspan x="30.93" y="75.6">A</tspan><tspan class="cls-20" x="0" y="86.4">l</tspan><tspan class="cls-17" x="2.51" y="86.4">o</tspan><tspan class="cls-16" x="7.65" y="86.4">ca</tspan><tspan class="cls-17" x="16.52" y="86.4">li</tspan><tspan class="cls-14" x="21.5" y="86.4">z</tspan><tspan x="25.16" y="86.4">ation: MEX</tspan></tspan></text><text class="cls-11" transform="translate(572.19 8.39)"><tspan class="cls-23">F</tspan><tspan x="3.86" y="0">a</tspan><tspan class="cls-24" x="8.77" y="0">c</tspan><tspan x="12.9" y="0">eboo</tspan><tspan class="cls-25" x="33.71" y="0">k</tspan><tspan x="38.57" y="0">:</tspan><tspan class="cls-14" x="0" y="10.8">“</tspan><tspan class="cls-15" x="3.73" y="10.8">ag</tspan><tspan x="13.29" y="10.8">ua</tspan><tspan class="cls-16" x="23.4" y="10.8">c</tspan><tspan class="cls-17" x="27.61" y="10.8">a</tspan><tspan class="cls-18" x="32.53" y="10.8">t</tspan><tspan x="35.75" y="10.8">e </tspan><tspan class="cls-19" x="42.94" y="10.8">c</tspan><tspan x="47.15" y="10.8">ar</tspan><tspan class="cls-18" x="55.61" y="10.8">t</tspan><tspan x="58.83" y="10.8">e</tspan><tspan class="cls-20" x="63.77" y="10.8">l</tspan><tspan class="cls-21" x="66.38" y="10.8">e</tspan><tspan class="cls-22" x="71.32" y="10.8">s</tspan><tspan x="75.47" y="10.8">”</tspan><tspan class="cls-4"><tspan class="cls-20" x="0" y="21.6">l</tspan><tspan x="2.51" y="21.6">ang: S</tspan><tspan class="cls-23" x="26.34" y="21.6">P</tspan><tspan x="30.93" y="21.6">A</tspan><tspan class="cls-20" x="0" y="32.4">l</tspan><tspan class="cls-17" x="2.51" y="32.4">o</tspan><tspan class="cls-16" x="7.65" y="32.4">ca</tspan><tspan class="cls-17" x="16.52" y="32.4">li</tspan><tspan class="cls-14" x="21.5" y="32.4">z</tspan><tspan x="25.16" y="32.4">ation: MEX</tspan></tspan><tspan class="cls-23" x="0" y="54">F</tspan><tspan x="3.86" y="54">a</tspan><tspan class="cls-24" x="8.77" y="54">c</tspan><tspan x="12.9" y="54">eboo</tspan><tspan class="cls-25" x="33.71" y="54">k</tspan><tspan x="38.57" y="54">:</tspan><tspan class="cls-14" x="0" y="64.8">“</tspan><tspan class="cls-15" x="3.73" y="64.8">ag</tspan><tspan x="13.29" y="64.8">ua</tspan><tspan class="cls-16" x="23.4" y="64.8">c</tspan><tspan class="cls-17" x="27.61" y="64.8">a</tspan><tspan class="cls-18" x="32.53" y="64.8">t</tspan><tspan x="35.75" y="64.8">e mafi</tspan><tspan class="cls-15" x="60.79" y="64.8">a</tspan><tspan x="65.62" y="64.8">”</tspan><tspan class="cls-4"><tspan class="cls-20" x="0" y="75.6">l</tspan><tspan x="2.51" y="75.6">ang: S</tspan><tspan class="cls-23" x="26.34" y="75.6">P</tspan><tspan x="30.93" y="75.6">A</tspan><tspan class="cls-20" x="0" y="86.4">l</tspan><tspan class="cls-17" x="2.51" y="86.4">o</tspan><tspan class="cls-16" x="7.65" y="86.4">ca</tspan><tspan class="cls-17" x="16.52" y="86.4">li</tspan><tspan class="cls-14" x="21.5" y="86.4">z</tspan><tspan x="25.16" y="86.4">ation: MEX</tspan></tspan></text><line class="cls-26" x1="376.68" y1="38.05" x2="376.68" y2="122.91"/><polygon class="cls-27" points="373.62 120.42 374.17 119.91 376.68 122.62 379.2 119.91 379.75 120.42 376.68 123.72 373.62 120.42"/><line class="cls-28" x1="410.2" y1="6.34" x2="470.19" y2="6.34"/><text class="cls-29" transform="translate(332.92 21.32)">Goog<tspan class="cls-20" x="21.25" y="0">l</tspan><tspan x="23.8" y="0">e ad</tspan><tspan class="cls-30" x="41.18" y="0">v</tspan><tspan x="45.52" y="0">an</tspan><tspan class="cls-24" x="55.86" y="0">c</tspan><tspan class="cls-20" x="59.93" y="0">e</tspan><tspan x="64.54" y="0">d s</tspan><tspan class="cls-20" x="76.3" y="0">e</tspan><tspan x="80.91" y="0">a</tspan><tspan class="cls-31" x="86.03" y="0">r</tspan><tspan x="89.19" y="0">ch</tspan><tspan x="17.64" y="10.8">In</tspan><tspan class="cls-24" x="25.49" y="10.8">c</tspan><tspan x="29.56" y="10.8">ogni</tspan><tspan class="cls-24" x="47.71" y="10.8">t</tspan><tspan x="50.72" y="10.8">o mode</tspan></text><path class="cls-32" d="M331.09,17.34l-.54-.09a3,3,0,0,0-.21-.52l.31-.45a.46.46,0,0,0,0-.61l-.48-.48a.47.47,0,0,0-.33-.14.54.54,0,0,0-.28.08l-.45.32a3.21,3.21,0,0,0-.54-.22l-.09-.54a.47.47,0,0,0-.47-.39h-.68a.47.47,0,0,0-.47.39l-.1.55a3.38,3.38,0,0,0-.52.22l-.44-.32a.54.54,0,0,0-.28-.08.48.48,0,0,0-.34.14l-.48.48a.47.47,0,0,0,0,.61l.32.45a2.66,2.66,0,0,0-.21.53l-.54.09a.48.48,0,0,0-.4.47v.68a.48.48,0,0,0,.4.47l.55.09a3.49,3.49,0,0,0,.22.53l-.32.44a.48.48,0,0,0,.05.61l.49.48a.45.45,0,0,0,.33.14.54.54,0,0,0,.28-.08l.45-.33a2.28,2.28,0,0,0,.51.21l.09.54a.48.48,0,0,0,.47.4H328a.48.48,0,0,0,.47-.4l.09-.54a2.47,2.47,0,0,0,.53-.22l.45.32a.44.44,0,0,0,.27.09.48.48,0,0,0,.34-.14l.48-.48a.47.47,0,0,0,0-.61l-.32-.45a2.47,2.47,0,0,0,.22-.53l.54-.09a.47.47,0,0,0,.4-.47v-.67a.48.48,0,0,0-.4-.48Zm0,1.15a.07.07,0,0,1,0,.05l-.67.11a.21.21,0,0,0-.18.16,2.44,2.44,0,0,1-.28.67.23.23,0,0,0,0,.24l.4.56a0,0,0,0,1,0,.06l-.48.48h-.05l-.56-.4a.23.23,0,0,0-.24,0,2.44,2.44,0,0,1-.67.28.2.2,0,0,0-.16.18l-.12.67a0,0,0,0,1,0,0h-.68a0,0,0,0,1,0,0l-.11-.67a.23.23,0,0,0-.16-.18,2.7,2.7,0,0,1-.66-.27l-.11,0a.28.28,0,0,0-.13,0l-.56.41h-.06l-.48-.48a0,0,0,0,1,0-.05l.39-.56a.21.21,0,0,0,0-.24,2.8,2.8,0,0,1-.28-.67.21.21,0,0,0-.17-.16l-.69-.12s0,0,0,0v-.68s0,0,0,0l.68-.11a.23.23,0,0,0,.17-.16,2.38,2.38,0,0,1,.28-.68.23.23,0,0,0,0-.24L325,16s0,0,0-.06l.48-.48h.06l.55.4a.23.23,0,0,0,.24,0,2.47,2.47,0,0,1,.67-.29.2.2,0,0,0,.16-.17l.12-.68a0,0,0,0,1,0,0H328a0,0,0,0,1,0,0l.11.67a.23.23,0,0,0,.17.17,2.6,2.6,0,0,1,.69.29.21.21,0,0,0,.23,0l.56-.4h.05l.49.48a.06.06,0,0,1,0,.06l-.4.56a.21.21,0,0,0,0,.23,2.51,2.51,0,0,1,.28.68.21.21,0,0,0,.18.16l.67.11s0,0,0,.05v.67Zm0,0"/><path class="cls-32" d="M327.63,16.49a1.67,1.67,0,0,0,0,3.33,1.67,1.67,0,1,0,0-3.33Zm0,2.89a1.23,1.23,0,1,1,1.23-1.23,1.23,1.23,0,0,1-1.23,1.23Zm0,0"/><circle class="cls-33" cx="376.68" cy="37.63" r="1.41"/><text class="cls-3" transform="translate(186.76 281.76)">LI<tspan class="cls-34" x="8.8" y="0">S</tspan><tspan x="14.73" y="0">TING </tspan><tspan class="cls-4" x="40.95" y="0">in</tspan><tspan class="cls-35" x="50.35" y="0">f</tspan><tspan class="cls-4" x="53.77" y="0">ormation</tspan></text><line class="cls-26" x1="376.5" y1="170" x2="376.5" y2="206.19"/><polygon class="cls-27" points="373.43 203.7 373.98 203.19 376.5 205.9 379.02 203.19 379.57 203.7 376.5 207 373.43 203.7"/><circle class="cls-33" cx="376.68" cy="168.63" r="1.41"/><text class="cls-36" transform="translate(584.52 276.05)">The<tspan class="cls-37" x="14.54" y="0">r</tspan><tspan class="cls-21" x="17.62" y="0">e a</tspan><tspan class="cls-38" x="29.78" y="0">r</tspan><tspan x="32.87" y="0">e </tspan><tspan class="cls-18" x="40.2" y="0">c</tspan><tspan class="cls-17" x="44.27" y="0">omments </tspan><tspan class="cls-39" x="84.6" y="0">t</tspan><tspan class="cls-17" x="87.56" y="0">o an</tspan><tspan class="cls-19" x="105.29" y="0">al</tspan><tspan x="112.49" y="0">y</tspan><tspan class="cls-40" x="116.7" y="0">z</tspan><tspan x="120.45" y="0">e</tspan><tspan class="cls-24" x="0" y="10.8">C</tspan><tspan x="4.77" y="10.8">omments h</tspan><tspan class="cls-14" x="50.35" y="10.8">a</tspan><tspan class="cls-41" x="55.04" y="10.8">v</tspan><tspan class="cls-21" x="59.26" y="10.8">e </tspan><tspan class="cls-42" x="66.59" y="10.8">k</tspan><tspan x="70.67" y="10.8">-wo</tspan><tspan class="cls-38" x="85.7" y="10.8">r</tspan><tspan class="cls-17" x="88.78" y="10.8">ds</tspan></text><line class="cls-28" x1="281.69" y1="277.88" x2="311.48" y2="277.88"/><text class="cls-36" transform="translate(314.27 280.05)"><tspan class="cls-43">Y</tspan><tspan class="cls-17" x="4.22" y="0">ou</tspan><tspan class="cls-13" x="14.57" y="0">T</tspan><tspan x="18.67" y="0">ube:</tspan><tspan x="0" y="10.8">n. </tspan><tspan class="cls-44" x="9.63" y="10.8">c</tspan><tspan x="13.7" y="10.8">omments</tspan><tspan class="cls-18" x="0" y="21.6">c</tspan><tspan x="4.07" y="21.6">omments</tspan></text><text class="cls-36" transform="translate(314.27 318.3)"><tspan class="cls-23">F</tspan><tspan x="3.79" y="0">a</tspan><tspan class="cls-44" x="8.61" y="0">c</tspan><tspan class="cls-21" x="12.68" y="0">eboo</tspan><tspan class="cls-45" x="33.01" y="0">k</tspan><tspan x="37.42" y="0">:</tspan><tspan x="0" y="10.8">n. </tspan><tspan class="cls-44" x="9.63" y="10.8">c</tspan><tspan x="13.7" y="10.8">omments</tspan><tspan class="cls-18" x="0" y="21.6">c</tspan><tspan x="4.07" y="21.6">omment</tspan></text><line class="cls-28" x1="557.1" y1="273.47" x2="584.36" y2="273.47"/><text class="cls-36" transform="translate(724.44 285.72)"><tspan class="cls-19">ag</tspan><tspan x="9.17" y="0">ua</tspan><tspan class="cls-15" x="19.21" y="0">c</tspan><tspan x="23.34" y="0">a</tspan><tspan class="cls-39" x="28.16" y="0">t</tspan><tspan class="cls-21" x="31.12" y="0">e</tspan><tspan class="cls-19" x="0" y="10.8">pa</tspan><tspan x="9.87" y="10.8">l</tspan><tspan class="cls-46" x="12.43" y="10.8">t</tspan><tspan class="cls-21" x="15.44" y="10.8">a</tspan><tspan class="cls-14" x="0" y="21.6">a</tspan><tspan class="cls-41" x="4.69" y="21.6">v</tspan><tspan x="8.9" y="21.6">o</tspan><tspan class="cls-15" x="14.04" y="21.6">c</tspan><tspan x="18.17" y="21.6">ado</tspan><tspan class="cls-19" x="0" y="32.4">c</tspan><tspan class="cls-21" x="4.13" y="32.4">ar</tspan><tspan class="cls-39" x="12.31" y="32.4">t</tspan><tspan x="15.27" y="32.4">e</tspan><tspan class="cls-20" x="20.1" y="32.4">l</tspan><tspan x="22.61" y="32.4">es</tspan><tspan x="0" y="43.2">mafia</tspan><tspan x="0" y="54">na</tspan><tspan class="cls-38" x="10.08" y="54">r</tspan><tspan class="cls-18" x="13.17" y="54">c</tspan><tspan x="17.23" y="54">o</tspan></text><line class="cls-26" x1="500.4" y1="436.41" x2="500.4" y2="479.17"/><polygon class="cls-27" points="497.33 476.68 497.88 476.17 500.4 478.88 502.92 476.17 503.47 476.68 500.4 479.98 497.33 476.68"/><circle class="cls-33" cx="500.4" cy="437.99" r="1.41"/><text class="cls-3" transform="translate(459.32 494.74)">VIS<tspan class="cls-9" x="15.6" y="0">U</tspan><tspan x="22.7" y="0">ALIZ</tspan><tspan class="cls-47" x="43.79" y="0">A</tspan><tspan x="49.65" y="0">TION 1</tspan></text><text class="cls-29" transform="translate(479.09 507.45)">RA<tspan class="cls-19" x="10.49" y="0">W</tspan><tspan x="17.78" y="0">g</tspan><tspan class="cls-37" x="23" y="0">r</tspan><tspan x="26.16" y="0">aphs</tspan><tspan x="2.8" y="10.8">Illust</tspan><tspan class="cls-31" x="23.14" y="10.8">r</tspan><tspan x="26.3" y="10.8">a</tspan><tspan class="cls-48" x="31.42" y="10.8">t</tspan><tspan x="34.44" y="10.8">or</tspan></text><line class="cls-26" x1="376.69" y1="230.39" x2="376.69" y2="246.17"/><circle class="cls-33" cx="376.69" cy="228.63" r="1.41"/><line class="cls-26" x1="500" y1="246.81" x2="242" y2="246.81"/><line class="cls-26" x1="499.5" y1="247" x2="499.5" y2="262.19"/><polygon class="cls-27" points="496.43 259.7 496.98 259.19 499.5 261.9 502.02 259.19 502.57 259.7 499.5 263 496.43 259.7"/><line class="cls-26" x1="242.5" y1="247" x2="242.5" y2="262.19"/><polygon class="cls-27" points="239.43 259.7 239.98 259.19 242.5 261.9 245.02 259.19 245.57 259.7 242.5 263 239.43 259.7"/><text class="cls-3" transform="translate(443.8 277.52)">DEFINING <tspan class="cls-4" x="49.36" y="0">its </tspan><tspan class="cls-49" x="64.25" y="0">r</tspan><tspan class="cls-4" x="68.02" y="0">e</tspan><tspan class="cls-50" x="73.92" y="0">l</tspan><tspan class="cls-51" x="76.99" y="0">e</tspan><tspan class="cls-52" x="82.86" y="0">v</tspan><tspan class="cls-4" x="87.89" y="0">an</tspan><tspan class="cls-53" x="100.21" y="0">c</tspan><tspan class="cls-4" x="105.18" y="0">e</tspan><tspan class="cls-4"><tspan class="cls-54" x="22.65" y="13.2">b</tspan><tspan x="29.02" y="13.2">y </tspan><tspan class="cls-55" x="37.23" y="13.2">c</tspan><tspan x="42.21" y="13.2">omments</tspan></tspan></text><circle class="cls-33" cx="500.4" cy="384.8" r="1.41"/><line class="cls-26" x1="500.4" y1="386.21" x2="500.4" y2="401.4"/><polygon class="cls-27" points="497.33 398.91 497.88 398.4 500.4 401.11 502.92 398.4 503.47 398.91 500.4 402.21 497.33 398.91"/><text class="cls-3" transform="translate(474.39 415.28)">DEFINING <tspan class="cls-4"><tspan x="-13.5" y="13.2">Its </tspan><tspan class="cls-6" x="1.4" y="13.2">r</tspan><tspan x="5.17" y="13.2">e</tspan><tspan class="cls-56" x="11.07" y="13.2">l</tspan><tspan class="cls-54" x="14.14" y="13.2">e</tspan><tspan class="cls-57" x="20.01" y="13.2">v</tspan><tspan x="25.04" y="13.2">an</tspan><tspan class="cls-55" x="37.36" y="13.2">c</tspan><tspan x="42.33" y="13.2">e i</tspan><tspan class="cls-58" x="54.26" y="13.2">f</tspan><tspan x="57.83" y="13.2">:</tspan></tspan></text><line class="cls-59" x1="685.52" y1="284.22" x2="718.52" y2="284.22"/><line class="cls-59" x1="723.44" y1="278.89" x2="718.52" y2="278.89"/><line class="cls-59" x1="723.19" y1="341.35" x2="718.27" y2="341.35"/><line class="cls-59" x1="718.52" y1="278.66" x2="718.52" y2="341.35"/><line class="cls-26" x1="500.4" y1="300.55" x2="500.4" y2="360.32"/><polygon class="cls-27" points="497.33 357.84 497.88 357.33 500.4 360.04 502.92 357.33 503.47 357.84 500.4 361.14 497.33 357.84"/><circle class="cls-33" cx="500.4" cy="298.55" r="1.41"/><text class="cls-7" transform="translate(454.61 374.72)"><tspan class="cls-8">F</tspan><tspan x="4.91" y="0">or </tspan><tspan class="cls-9" x="18.36" y="0">e</tspan><tspan x="24.15" y="0">ach </tspan><tspan class="cls-55" x="44.69" y="0">c</tspan><tspan x="49.66" y="0">ommen</tspan><tspan class="cls-60" x="87.03" y="0">t</tspan><tspan x="90.8" y="0">:</tspan></text><text class="cls-36" transform="translate(562.69 415.94)">It stic<tspan class="cls-61" x="22.01" y="0">k</tspan><tspan x="26.36" y="0">s </tspan><tspan class="cls-39" x="33.05" y="0">t</tspan><tspan x="36.01" y="0">o the </tspan><tspan class="cls-39" x="59.32" y="0">t</tspan><tspan x="62.28" y="0">opic</tspan><tspan x="0" y="10.8">It </tspan><tspan class="cls-44" x="8.12" y="10.8">c</tspan><tspan x="12.19" y="10.8">on</tspan><tspan class="cls-40" x="22.58" y="10.8">t</tspan><tspan x="25.6" y="10.8">ains an opinion</tspan></text><line class="cls-28" x1="522.79" y1="412.02" x2="559.69" y2="412.02"/><path class="cls-32" d="M478.68,503.48l-.54-.09a2.7,2.7,0,0,0-.22-.53l.32-.44a.47.47,0,0,0-.05-.62l-.48-.48a.48.48,0,0,0-.34-.14.46.46,0,0,0-.27.09l-.45.32a2.55,2.55,0,0,0-.54-.22l-.09-.54a.48.48,0,0,0-.47-.4h-.68a.47.47,0,0,0-.47.4l-.1.55a3.38,3.38,0,0,0-.52.22l-.44-.32a.47.47,0,0,0-.28-.09.48.48,0,0,0-.34.14l-.48.48a.49.49,0,0,0-.05.62l.32.45a2.44,2.44,0,0,0-.21.53l-.54.09a.47.47,0,0,0-.4.47v.68a.48.48,0,0,0,.4.47l.55.09a3,3,0,0,0,.22.52l-.32.45a.48.48,0,0,0,.05.61l.48.48a.48.48,0,0,0,.34.14.47.47,0,0,0,.28-.09l.45-.32a3.89,3.89,0,0,0,.51.21l.09.54a.48.48,0,0,0,.47.4h.68a.48.48,0,0,0,.47-.4l.09-.54a3.49,3.49,0,0,0,.53-.22l.44.32a.49.49,0,0,0,.28.09.48.48,0,0,0,.34-.14l.48-.48a.49.49,0,0,0,.05-.62l-.32-.44a3.49,3.49,0,0,0,.22-.53l.54-.09a.48.48,0,0,0,.4-.47V504a.48.48,0,0,0-.4-.47Zm0,1.15a0,0,0,0,1,0,0l-.68.11a.23.23,0,0,0-.17.16,2.38,2.38,0,0,1-.28.68.23.23,0,0,0,0,.24l.4.56a0,0,0,0,1,0,.05l-.48.48,0,0h0l-.56-.4a.23.23,0,0,0-.24,0,2.44,2.44,0,0,1-.67.28.2.2,0,0,0-.16.17l-.12.68a0,0,0,0,1,0,0h-.68a0,0,0,0,1,0,0l-.11-.68a.23.23,0,0,0-.16-.17,2.55,2.55,0,0,1-.66-.27l-.11,0a.2.2,0,0,0-.13,0l-.56.4h-.06l-.48-.48a.06.06,0,0,1,0-.06l.39-.55a.21.21,0,0,0,0-.24,2.71,2.71,0,0,1-.28-.68.23.23,0,0,0-.17-.16l-.69-.11s0,0,0,0V504s0,0,0,0l.68-.12a.2.2,0,0,0,.17-.16A2.51,2.51,0,0,1,473,503a.21.21,0,0,0,0-.23l-.41-.56a0,0,0,0,1,0-.06l.48-.48h.05l.56.39a.21.21,0,0,0,.24,0,2.8,2.8,0,0,1,.67-.28.21.21,0,0,0,.16-.18l.12-.68s0,0,0,0h.68s0,0,0,0l.11.67a.23.23,0,0,0,.16.18,2.85,2.85,0,0,1,.7.28.2.2,0,0,0,.23,0l.56-.4h0l.48.48a0,0,0,0,1,0,.05l-.4.56a.23.23,0,0,0,0,.24,2.38,2.38,0,0,1,.28.68.23.23,0,0,0,.18.16l.67.11a0,0,0,0,1,0,0v.68Zm0,0"/><path class="cls-32" d="M475.22,502.63a1.66,1.66,0,1,0,1.67,1.66,1.66,1.66,0,0,0-1.67-1.66Zm0,2.89a1.23,1.23,0,1,1,1.23-1.23,1.23,1.23,0,0,1-1.23,1.23Zm0,0"/></g><g id="图层_1" data-name="图层 1"><text class="cls-11" transform="translate(30.06 11.99)">QUE<tspan class="cls-62" x="16.89" y="0">R</tspan><tspan x="22.13" y="0">Y</tspan><tspan x="-9.36" y="10.8">DEFINITION</tspan></text><text class="cls-11" transform="translate(33.66 136.48)"><tspan class="cls-19">D</tspan><tspan class="cls-63" x="5.74" y="0">AT</tspan><tspan x="14.86" y="0">A</tspan><tspan x="-17.7" y="10.8">EXP</tspan><tspan class="cls-64" x="-2.56" y="10.8">L</tspan><tspan x="1.61" y="10.8">OR</tspan><tspan class="cls-65" x="13.33" y="10.8">A</tspan><tspan x="18.13" y="10.8">TION</tspan></text><text class="cls-11" transform="translate(33.66 263.97)"><tspan class="cls-19">D</tspan><tspan class="cls-63" x="5.74" y="0">AT</tspan><tspan x="14.86" y="0">A</tspan><tspan x="-12.98" y="10.8">G</tspan><tspan class="cls-65" x="-7.24" y="10.8">A</tspan><tspan x="-2.44" y="10.8">THERING</tspan></text><rect class="cls-66" x="0.41" y="0.53" width="86.59" height="26.73"/><rect class="cls-66" x="0.41" y="124.03" width="86.59" height="29.49"/><rect class="cls-66" x="0.41" y="252.95" width="86.59" height="27"/><line class="cls-66" x1="43.66" y1="27.26" x2="43.66" y2="124"/><line class="cls-66" x1="43.69" y1="153.52" x2="43.69" y2="253"/></g></svg>