<svg xmlns="http://www.w3.org/2000/svg" viewBox="0 0 804 356"><defs><style>.cls-1{font-size:12px;}.cls-1,.cls-4,.cls-51,.cls-55,.cls-8{fill:#fff;}.cls-1,.cls-4,.cls-55,.cls-8{font-family:FiraSans-Medium, Fira Sans;font-weight:500;}.cls-2{letter-spacing:-0.03em;}.cls-3{letter-spacing:-0.06em;}.cls-4{font-size:10px;}.cls-5{letter-spacing:-0.01em;}.cls-6{letter-spacing:-0.02em;}.cls-24,.cls-58,.cls-7{fill:none;}.cls-24,.cls-25,.cls-7{stroke:#95c11f;}.cls-24,.cls-25,.cls-58,.cls-7{stroke-miterlimit:10;stroke-width:0.75px;}.cls-7{stroke-dasharray:2;}.cls-51,.cls-8{font-size:11px;}.cls-9{letter-spacing:0em;}.cls-10,.cls-11,.cls-12,.cls-20,.cls-21,.cls-51{font-family:FiraSans-Light, Fira Sans;font-weight:300;}.cls-11,.cls-15{letter-spacing:-0.01em;}.cls-12,.cls-14{letter-spacing:-0.01em;}.cls-13{letter-spacing:-0.01em;}.cls-16{letter-spacing:0em;}.cls-17{letter-spacing:-0.02em;}.cls-18{letter-spacing:-0.01em;}.cls-19{font-family:FiraSans-Bold, Fira Sans;font-weight:700;}.cls-20,.cls-23{letter-spacing:0em;}.cls-21{letter-spacing:-0.02em;}.cls-22{letter-spacing:-0.03em;}.cls-26{fill:#95c11f;}.cls-27{letter-spacing:-0.02em;}.cls-28{letter-spacing:-0.01em;}.cls-29{letter-spacing:-0.01em;}.cls-30{letter-spacing:0em;}.cls-31{letter-spacing:0em;}.cls-32{letter-spacing:0em;}.cls-33{letter-spacing:-0.01em;}.cls-34{letter-spacing:-0.02em;}.cls-35{letter-spacing:-0.06em;}.cls-36{letter-spacing:-0.01em;}.cls-37{letter-spacing:-0.03em;}.cls-38{letter-spacing:0em;}.cls-39{letter-spacing:-0.01em;}.cls-40{letter-spacing:-0.03em;}.cls-41{letter-spacing:-0.05em;}.cls-42,.cls-55{font-size:9px;}.cls-42,.cls-46{fill:gray;}.cls-42{font-family:FiraSans-Italic, Fira Sans;font-style:italic;}.cls-43{letter-spacing:-0.02em;}.cls-44{letter-spacing:-0.01em;}.cls-45{letter-spacing:-0.03em;}.cls-47{letter-spacing:0em;}.cls-48{letter-spacing:0em;}.cls-49{letter-spacing:-0.03em;}.cls-50{letter-spacing:-0.02em;}.cls-52{letter-spacing:-0.02em;}.cls-53{letter-spacing:-0.01em;}.cls-54{letter-spacing:-0.03em;}.cls-56{letter-spacing:-0.05em;}.cls-57{letter-spacing:-0.05em;}.cls-58{stroke:#666;}</style></defs><title>protocols</title><g id="图层_2" data-name="图层 2"><text class="cls-1" transform="translate(293.79 123.34)">1 QUE<tspan class="cls-2" x="30.92" y="0">R</tspan><tspan class="cls-3" x="37.91" y="0">Y</tspan><tspan x="44.12" y="0">:</tspan></text><text class="cls-4" transform="translate(379.17 121.19)"><tspan class="cls-5">C</tspan><tspan x="5.58" y="0">ar</tspan><tspan class="cls-6" x="14.98" y="0">t</tspan><tspan x="18.56" y="0">el name</tspan></text><line class="cls-7" x1="344.58" y1="119.15" x2="377.33" y2="119.15"/><text class="cls-8" transform="translate(340.4 221.36)">IDENTI<tspan class="cls-9" x="32.65" y="0">F</tspan><tspan x="37.97" y="0">YING</tspan><tspan class="cls-10" x="61.93" y="0" xml:space="preserve"> in</tspan><tspan class="cls-11" x="74.39" y="0">t</tspan><tspan class="cls-10" x="78.01" y="0">ern</tspan><tspan class="cls-12" x="94.43" y="0">a</tspan><tspan class="cls-10" x="100.22" y="0">l </tspan><tspan class="cls-10"><tspan x="-7.87" y="13.2">lin</tspan><tspan class="cls-9" x="4.65" y="13.2">k</tspan><tspan x="9.97" y="13.2">s between the </tspan><tspan class="cls-13" x="82.28" y="13.2">f</tspan><tspan x="85.7" y="13.2">ound </tspan><tspan class="cls-14" x="-3.17" y="26.4">c</tspan><tspan x="1.88" y="26.4">ar</tspan><tspan class="cls-15" x="11.87" y="26.4">t</tspan><tspan x="15.49" y="26.4">els in </tspan><tspan class="cls-13" x="45.15" y="26.4">e</tspan><tspan class="cls-16" x="50.93" y="26.4">ach </tspan><tspan class="cls-14" x="71.48" y="26.4">c</tspan><tspan x="76.53" y="26.4">ar</tspan><tspan class="cls-15" x="86.53" y="26.4">t</tspan><tspan x="90.15" y="26.4">el</tspan><tspan class="cls-17" x="99.17" y="26.4">s</tspan><tspan x="104.11" y="26.4">’ </tspan><tspan class="cls-14" x="3.88" y="39.6">pa</tspan><tspan class="cls-18" x="15.95" y="39.6">g</tspan><tspan x="21.34" y="39.6">e in the websi</tspan><tspan class="cls-15" x="89.95" y="39.6">t</tspan><tspan x="93.56" y="39.6">e</tspan></tspan></text><text class="cls-8" transform="translate(199.2 222.18)">IDENTI<tspan class="cls-9" x="32.65" y="0">F</tspan><tspan x="37.97" y="0">YING</tspan><tspan class="cls-19" x="61.93" y="0"> </tspan><tspan class="cls-10" x="64.54" y="0">the </tspan><tspan class="cls-20" x="83.68" y="0">y</tspan><tspan class="cls-12" x="88.8" y="0">e</tspan><tspan class="cls-10" x="94.59" y="0">a</tspan><tspan class="cls-21" x="100.48" y="0">r</tspan><tspan class="cls-10" x="104.39" y="0">s </tspan><tspan class="cls-10"><tspan class="cls-22" x="-2.09" y="13.2">r</tspan><tspan x="1.68" y="13.2">e</tspan><tspan class="cls-9" x="7.58" y="13.2">l</tspan><tspan class="cls-23" x="10.65" y="13.2">e</tspan><tspan class="cls-18" x="16.52" y="13.2">v</tspan><tspan x="21.55" y="13.2">ant </tspan><tspan class="cls-14" x="40.69" y="13.2">f</tspan><tspan x="44.11" y="13.2">or </tspan><tspan class="cls-14" x="57.56" y="13.2">e</tspan><tspan x="63.35" y="13.2">ach </tspan><tspan class="cls-14" x="83.9" y="13.2">c</tspan><tspan x="88.94" y="13.2">ar</tspan><tspan class="cls-15" x="98.94" y="13.2">t</tspan><tspan x="102.56" y="13.2">el </tspan><tspan x="22.47" y="26.4">d</tspan><tspan class="cls-23" x="28.91" y="26.4">ev</tspan><tspan x="39.93" y="26.4">e</tspan><tspan class="cls-9" x="45.83" y="26.4">l</tspan><tspan x="48.9" y="26.4">opment</tspan></tspan></text><line class="cls-24" x1="320.49" y1="147.13" x2="320.49" y2="177.67"/><circle class="cls-25" cx="320.49" cy="147.24" r="1.41"/><line class="cls-24" x1="392.88" y1="177.67" x2="248.11" y2="177.67"/><line class="cls-24" x1="248.11" y1="177.26" x2="248.11" y2="206.99"/><polygon class="cls-26" points="245.04 204.5 245.59 203.99 248.11 206.7 250.63 203.99 251.17 204.5 248.11 207.8 245.04 204.5"/><line class="cls-24" x1="392.88" y1="177.26" x2="392.88" y2="206.99"/><polygon class="cls-26" points="389.81 204.5 390.36 203.99 392.88 206.7 395.39 203.99 395.94 204.5 392.88 207.8 389.81 204.5"/><text class="cls-1" transform="translate(520.79 125.34)">1 QUE<tspan class="cls-2" x="30.92" y="0">R</tspan><tspan class="cls-3" x="37.91" y="0">Y</tspan><tspan x="44.12" y="0">:</tspan></text><line class="cls-7" x1="571.58" y1="121.15" x2="604.33" y2="121.15"/><line class="cls-24" x1="547.49" y1="157.13" x2="547.49" y2="208.12"/><polygon class="cls-26" points="544.42 205.64 544.97 205.13 547.49 207.84 550.01 205.13 550.56 205.64 547.49 208.94 544.42 205.64"/><circle class="cls-25" cx="547.49" cy="157.24" r="1.41"/><line class="cls-24" x1="546.49" y1="76.88" x2="546.49" y2="106.35"/><polygon class="cls-26" points="543.42 103.87 543.97 103.36 546.49 106.06 549.01 103.36 549.56 103.87 546.49 107.17 543.42 103.87"/><line class="cls-24" x1="319.49" y1="77.26" x2="319.49" y2="106.35"/><polygon class="cls-26" points="316.43 103.87 316.97 103.36 319.49 106.06 322.01 103.36 322.56 103.87 319.49 107.17 316.43 103.87"/><text class="cls-8" transform="translate(507.55 221.3)"><tspan class="cls-27">C</tspan><tspan x="6.03" y="0">ONSIDERING</tspan><tspan class="cls-10" x="67.74" y="0" xml:space="preserve"> the </tspan><tspan class="cls-10"><tspan x="-12.93" y="13.2">amount of </tspan><tspan class="cls-15" x="41.12" y="13.2">t</tspan><tspan x="44.74" y="13.2">o</tspan><tspan class="cls-28" x="51.02" y="13.2">t</tspan><tspan class="cls-14" x="54.71" y="13.2">a</tspan><tspan x="60.49" y="13.2">l </tspan><tspan class="cls-22" x="66.69" y="13.2">r</tspan><tspan x="70.46" y="13.2">esults </tspan><tspan class="cls-14" x="7.86" y="26.4">f</tspan><tspan x="11.28" y="26.4">or </tspan><tspan class="cls-14" x="24.73" y="26.4">e</tspan><tspan x="30.52" y="26.4">ach query</tspan></tspan></text><text class="cls-4" transform="translate(606.69 123.33)">A<tspan class="cls-29" x="5.83" y="0">g</tspan><tspan x="11.1" y="0">ua</tspan><tspan class="cls-5" x="22.33" y="0">c</tspan><tspan x="27.01" y="0">a</tspan><tspan class="cls-6" x="32.47" y="0">t</tspan><tspan x="36.05" y="0">e AND name of the </tspan><tspan class="cls-5" x="122.69" y="0">c</tspan><tspan class="cls-30" x="127.37" y="0">ar</tspan><tspan class="cls-6" x="136.77" y="0">t</tspan><tspan class="cls-31" x="140.35" y="0">el</tspan><tspan class="cls-10"><tspan class="cls-32" x="0" y="12">l</tspan><tspan x="2.79" y="12">ang: </tspan><tspan class="cls-33" x="23.88" y="12">E</tspan><tspan x="28.9" y="12">S</tspan><tspan class="cls-32" x="0" y="24">l</tspan><tspan x="2.79" y="24">o</tspan><tspan class="cls-33" x="8.5" y="24">ca</tspan><tspan x="18.35" y="24">li</tspan><tspan class="cls-34" x="23.89" y="24">z</tspan><tspan x="27.96" y="24">ation: MEX</tspan></tspan><tspan class="cls-35" x="0" y="39">Y</tspan><tspan class="cls-5" x="5.11" y="39">e</tspan><tspan x="10.5" y="39">a</tspan><tspan class="cls-36" x="15.96" y="39">r</tspan><tspan class="cls-31" x="19.77" y="39">s</tspan><tspan class="cls-10"><tspan x="0" y="51">f</tspan><tspan class="cls-37" x="3.21" y="51">r</tspan><tspan x="6.64" y="51">om the </tspan><tspan class="cls-38" x="41.07" y="51">y</tspan><tspan class="cls-33" x="45.73" y="51">e</tspan><tspan x="50.99" y="51">ar of </tspan><tspan class="cls-33" x="74.58" y="51">f</tspan><tspan x="77.69" y="51">oundation of </tspan><tspan class="cls-33" x="0" y="63">e</tspan><tspan class="cls-31" x="5.26" y="63">ach </tspan><tspan class="cls-33" x="23.94" y="63">c</tspan><tspan x="28.53" y="63">ar</tspan><tspan class="cls-39" x="37.62" y="63">t</tspan><tspan x="40.91" y="63">el </tspan><tspan class="cls-39" x="51.9" y="63">t</tspan><tspan x="55.19" y="63">o 2</tspan><tspan class="cls-40" x="68.48" y="63">0</tspan><tspan x="73.7" y="63">17 </tspan></tspan></text><line class="cls-24" x1="547.92" y1="295" x2="248.08" y2="295"/><line class="cls-24" x1="248.08" y1="259.07" x2="248.08" y2="295.44"/><line class="cls-24" x1="392.88" y1="270.19" x2="392.88" y2="319.19"/><polygon class="cls-26" points="389.81 316.7 390.36 316.19 392.88 318.9 395.39 316.19 395.94 316.7 392.88 320 389.81 316.7"/><line class="cls-24" x1="547.49" y1="255.35" x2="547.49" y2="295.42"/><text class="cls-4" transform="translate(355.59 332.52)">VIS<tspan class="cls-33" x="14.18" y="0">U</tspan><tspan x="20.64" y="0">ALIZ</tspan><tspan class="cls-41" x="39.81" y="0">A</tspan><tspan x="45.14" y="0">TION 2</tspan></text><circle class="cls-25" cx="248.05" cy="257.8" r="1.27"/><circle class="cls-25" cx="392.87" cy="268.99" r="1.2"/><circle class="cls-25" cx="547.44" cy="256.19" r="1.15"/><text class="cls-42" transform="translate(288.9 137.37)">Insigh<tspan class="cls-43" x="24.96" y="0">t</tspan><tspan x="27.97" y="0">crime</tspan><tspan class="cls-44" x="50.44" y="0">.</tspan><tspan x="52.51" y="0">o</tspan><tspan class="cls-45" x="57.72" y="0">r</tspan><tspan x="60.88" y="0">g</tspan></text><path class="cls-46" d="M290.49,133.39l-.54-.09a3.11,3.11,0,0,0-.22-.53l.32-.45a.47.47,0,0,0-.05-.61l-.48-.48a.48.48,0,0,0-.34-.14.44.44,0,0,0-.27.09l-.45.32a3.76,3.76,0,0,0-.55-.23l-.09-.53a.47.47,0,0,0-.47-.4h-.68a.48.48,0,0,0-.47.4l-.09.55a2.39,2.39,0,0,0-.52.22l-.45-.32a.47.47,0,0,0-.61.05l-.48.48a.47.47,0,0,0-.06.61l.33.46a3.38,3.38,0,0,0-.22.52l-.53.09a.48.48,0,0,0-.4.47v.68a.47.47,0,0,0,.4.47l.55.1a2.62,2.62,0,0,0,.22.52l-.32.44a.47.47,0,0,0,.05.62l.48.48a.48.48,0,0,0,.34.14.44.44,0,0,0,.27-.09l.46-.32a3.89,3.89,0,0,0,.51.21l.09.54a.47.47,0,0,0,.47.4h.68a.48.48,0,0,0,.47-.4l.09-.54a3,3,0,0,0,.52-.22l.45.32a.47.47,0,0,0,.28.09.45.45,0,0,0,.33-.14l.49-.48a.5.5,0,0,0,.05-.62l-.32-.45a3.38,3.38,0,0,0,.22-.52l.54-.09a.47.47,0,0,0,.39-.47v-.68a.46.46,0,0,0-.39-.47Zm0,1.15s0,0,0,0l-.68.11a.23.23,0,0,0-.17.16,2.71,2.71,0,0,1-.28.68.2.2,0,0,0,0,.23l.39.56s0,0,0,.06l-.48.48h-.06l-.56-.39a.19.19,0,0,0-.23,0,2.71,2.71,0,0,1-.68.28.23.23,0,0,0-.16.17l-.11.68s0,0,0,0h-.68s0,0,0,0l-.12-.68a.2.2,0,0,0-.16-.17,2.7,2.7,0,0,1-.66-.27.2.2,0,0,0-.11,0,.17.17,0,0,0-.12,0l-.57.4h0s0,0,0,0l-.48-.48s0,0,0,0l.4-.56a.23.23,0,0,0,0-.24,2.32,2.32,0,0,1-.28-.67.24.24,0,0,0-.18-.16l-.68-.12a0,0,0,0,1,0,0v-.68s0,0,0,0l.67-.11a.21.21,0,0,0,.18-.16,2.68,2.68,0,0,1,.27-.68.2.2,0,0,0,0-.23l-.4-.57a0,0,0,0,1,0-.05l.48-.48,0,0h0l.56.4a.23.23,0,0,0,.24,0,2.52,2.52,0,0,1,.67-.29.23.23,0,0,0,.16-.17l.11-.68a.07.07,0,0,1,.05,0h.68s0,0,0,0l.11.67a.21.21,0,0,0,.16.18,2.44,2.44,0,0,1,.69.28.23.23,0,0,0,.24,0l.56-.4h0s0,0,0,0l.48.48s0,0,0,0l-.4.56a.21.21,0,0,0,0,.24,2.8,2.8,0,0,1,.28.67.2.2,0,0,0,.17.16l.68.12s0,0,0,0v.68Zm0,0"/><path class="cls-46" d="M287,132.53a1.67,1.67,0,1,0,0,3.33,1.67,1.67,0,0,0,0-3.33Zm0,2.9a1.23,1.23,0,1,1,1.23-1.23,1.23,1.23,0,0,1-1.23,1.23Zm0,0"/><text class="cls-42" transform="translate(499.72 139.64)">Goog<tspan class="cls-47" x="21.25" y="0">l</tspan><tspan x="23.8" y="0">e ad</tspan><tspan class="cls-48" x="41.18" y="0">v</tspan><tspan x="45.52" y="0">an</tspan><tspan class="cls-43" x="55.86" y="0">c</tspan><tspan class="cls-47" x="59.93" y="0">e</tspan><tspan x="64.54" y="0">d s</tspan><tspan class="cls-47" x="76.3" y="0">e</tspan><tspan x="80.91" y="0">a</tspan><tspan class="cls-49" x="86.03" y="0">r</tspan><tspan x="89.19" y="0">ch</tspan><tspan x="17.64" y="10.8">In</tspan><tspan class="cls-43" x="25.49" y="10.8">c</tspan><tspan x="29.56" y="10.8">ogni</tspan><tspan class="cls-43" x="47.71" y="10.8">t</tspan><tspan x="50.72" y="10.8">o mode</tspan></text><path class="cls-46" d="M496.7,135.66l-.54-.09a3.11,3.11,0,0,0-.22-.53l.32-.45a.46.46,0,0,0-.05-.61l-.48-.48a.48.48,0,0,0-.34-.14.44.44,0,0,0-.27.09l-.45.32a2.83,2.83,0,0,0-.54-.23L494,133a.48.48,0,0,0-.48-.4h-.67a.47.47,0,0,0-.47.4l-.1.55a2.62,2.62,0,0,0-.52.22l-.45-.32a.44.44,0,0,0-.27-.09.48.48,0,0,0-.34.14l-.48.48a.46.46,0,0,0-.05.61l.32.46a2.57,2.57,0,0,0-.21.52l-.54.09a.48.48,0,0,0-.4.47v.68a.47.47,0,0,0,.4.47l.55.1a2.62,2.62,0,0,0,.22.52l-.32.44a.5.5,0,0,0,0,.62l.48.48a.48.48,0,0,0,.34.14.47.47,0,0,0,.28-.09l.45-.32a3.89,3.89,0,0,0,.51.21l.09.54a.47.47,0,0,0,.47.39h.68a.47.47,0,0,0,.47-.39l.09-.54a3.49,3.49,0,0,0,.53-.22l.44.32a.55.55,0,0,0,.28.09.48.48,0,0,0,.34-.14l.48-.49a.48.48,0,0,0,.05-.61l-.32-.45a3.38,3.38,0,0,0,.22-.52l.54-.09a.48.48,0,0,0,.4-.47v-.68a.47.47,0,0,0-.4-.47Zm0,1.15a0,0,0,0,1,0,0L496,137a.23.23,0,0,0-.17.16,2.87,2.87,0,0,1-.28.68.21.21,0,0,0,0,.23l.4.56a0,0,0,0,1,0,.06l-.48.48h-.05l-.56-.39a.21.21,0,0,0-.24,0,2.71,2.71,0,0,1-.68.28.2.2,0,0,0-.15.17l-.12.68s0,0,0,0h-.68s0,0,0,0l-.11-.68a.23.23,0,0,0-.16-.17,2.55,2.55,0,0,1-.66-.27l-.11,0a.2.2,0,0,0-.13,0l-.56.4h0l0,0-.48-.48a0,0,0,0,1,0,0l.39-.56a.21.21,0,0,0,0-.24,2.64,2.64,0,0,1-.28-.67.23.23,0,0,0-.18-.16l-.68-.12s0,0,0,0v-.68s0,0,0,0l.67-.11a.23.23,0,0,0,.18-.16,2.38,2.38,0,0,1,.28-.68.21.21,0,0,0,0-.23l-.4-.57a0,0,0,0,1,0,0l.48-.48,0,0h0l.56.4a.23.23,0,0,0,.24,0,2.67,2.67,0,0,1,.67-.29.21.21,0,0,0,.16-.17l.12-.68a0,0,0,0,1,0,0h.68a0,0,0,0,1,0,0l.11.67a.23.23,0,0,0,.16.18,2.5,2.5,0,0,1,.7.28.21.21,0,0,0,.23,0l.56-.4h0s0,0,0,0l.48.48s0,0,0,.05l-.4.56a.23.23,0,0,0,0,.24,2.44,2.44,0,0,1,.28.67.2.2,0,0,0,.17.16l.68.12a0,0,0,0,1,0,0v.68Zm0,0"/><path class="cls-46" d="M493.24,134.8a1.67,1.67,0,1,0,1.67,1.67,1.66,1.66,0,0,0-1.67-1.67Zm0,2.9a1.23,1.23,0,1,1,1.23-1.23,1.24,1.24,0,0,1-1.23,1.23Zm0,0"/><text class="cls-42" transform="translate(370.98 343.15)">RA<tspan class="cls-44" x="10.49" y="0">W</tspan><tspan x="17.78" y="0">g</tspan><tspan class="cls-45" x="23" y="0">r</tspan><tspan x="26.16" y="0">aphs</tspan><tspan x="2.8" y="10.8">Illust</tspan><tspan class="cls-49" x="23.14" y="10.8">r</tspan><tspan x="26.3" y="10.8">a</tspan><tspan class="cls-50" x="31.42" y="10.8">t</tspan><tspan x="34.44" y="10.8">or</tspan></text><path class="cls-46" d="M368,339.07l-.54-.09a3.49,3.49,0,0,0-.22-.53l.32-.44a.5.5,0,0,0-.05-.62l-.48-.48a.48.48,0,0,0-.34-.14.47.47,0,0,0-.28.09l-.44.32a2.87,2.87,0,0,0-.55-.22l-.09-.54a.48.48,0,0,0-.47-.4h-.68a.48.48,0,0,0-.47.4l-.09.55a3.49,3.49,0,0,0-.53.22l-.44-.32a.47.47,0,0,0-.61.05l-.49.48a.5.5,0,0,0-.05.62l.33.45a3.11,3.11,0,0,0-.22.53l-.53.09a.47.47,0,0,0-.4.47v.68a.48.48,0,0,0,.4.47l.54.09a3,3,0,0,0,.22.52l-.31.45a.46.46,0,0,0,0,.61l.48.48a.48.48,0,0,0,.34.14.44.44,0,0,0,.27-.09l.45-.32a5.49,5.49,0,0,0,.51.21l.09.54a.48.48,0,0,0,.47.4h.68a.48.48,0,0,0,.48-.4l.09-.54a3,3,0,0,0,.52-.22l.45.32a.47.47,0,0,0,.61,0l.48-.48a.49.49,0,0,0,.06-.62l-.32-.44a3.44,3.44,0,0,0,.21-.53l.55-.09a.47.47,0,0,0,.39-.47v-.68a.46.46,0,0,0-.39-.47Zm0,1.15s0,0,0,0l-.68.11a.24.24,0,0,0-.18.16,2.38,2.38,0,0,1-.28.68.23.23,0,0,0,0,.24l.4.56a0,0,0,0,1,0,.05l-.48.48,0,0h0l-.56-.4a.21.21,0,0,0-.23,0,2.51,2.51,0,0,1-.68.28.21.21,0,0,0-.16.17l-.11.68s0,0-.05,0h-.67a.07.07,0,0,1,0,0l-.11-.68a.21.21,0,0,0-.16-.17,2.7,2.7,0,0,1-.66-.27.2.2,0,0,0-.11,0,.17.17,0,0,0-.12,0l-.57.4h-.05l-.48-.48a0,0,0,0,1,0-.06l.4-.55a.23.23,0,0,0,0-.24,2.73,2.73,0,0,1-.29-.68.23.23,0,0,0-.17-.16l-.68-.11s0,0,0,0v-.68a0,0,0,0,1,0,0l.67-.12a.2.2,0,0,0,.18-.16,2.84,2.84,0,0,1,.27-.68.2.2,0,0,0,0-.23l-.4-.56a.06.06,0,0,1,0-.06l.48-.48h.06l.56.39a.2.2,0,0,0,.23,0,2.71,2.71,0,0,1,.68-.28.23.23,0,0,0,.16-.18l.11-.68a0,0,0,0,1,.05,0h.67a.05.05,0,0,1,.05,0l.11.67a.21.21,0,0,0,.16.18,2.94,2.94,0,0,1,.69.28.21.21,0,0,0,.24,0l.55-.4h.06l.48.48s0,0,0,.05l-.39.56a.21.21,0,0,0,0,.24,2.71,2.71,0,0,1,.28.68.23.23,0,0,0,.17.16l.68.11s0,0,0,0v.68Zm0,0"/><path class="cls-46" d="M364.49,338.21a1.67,1.67,0,1,0,0,3.33,1.67,1.67,0,0,0,0-3.33Zm0,2.9a1.23,1.23,0,1,1,1.23-1.23,1.23,1.23,0,0,1-1.23,1.23Zm0,0"/><line class="cls-24" x1="546.49" y1="77.26" x2="319.08" y2="77.26"/><line class="cls-24" x1="432.49" y1="47.13" x2="432.49" y2="77.67"/><circle class="cls-25" cx="432.49" cy="45.24" r="1.41"/><text class="cls-51" transform="translate(373.14 7.7)">S<tspan class="cls-28" x="5.93" y="0">t</tspan><tspan x="9.61" y="0">arting f</tspan><tspan class="cls-22" x="44.89" y="0">r</tspan><tspan x="48.66" y="0">om the </tspan><tspan class="cls-14" x="86.53" y="0">c</tspan><tspan x="91.58" y="0">ar</tspan><tspan class="cls-15" x="101.58" y="0">t</tspan><tspan x="105.2" y="0">els </tspan><tspan class="cls-52" x="-7.05" y="13.2">c</tspan><tspan x="-2.07" y="13.2">ol</tspan><tspan class="cls-9" x="7.33" y="13.2">l</tspan><tspan x="10.4" y="13.2">ec</tspan><tspan class="cls-53" x="21.46" y="13.2">t</tspan><tspan x="25.07" y="13.2">ed f</tspan><tspan class="cls-54" x="44" y="13.2">r</tspan><tspan x="47.78" y="13.2">om the p</tspan><tspan class="cls-22" x="92.04" y="13.2">r</tspan><tspan x="95.81" y="13.2">o</tspan><tspan class="cls-15" x="102.09" y="13.2">t</tspan><tspan x="105.71" y="13.2">o</tspan><tspan class="cls-52" x="111.99" y="13.2">c</tspan><tspan x="116.97" y="13.2">ol </tspan><tspan x="15.18" y="26.4">of Visu</tspan><tspan class="cls-14" x="48.51" y="26.4">a</tspan><tspan x="54.29" y="26.4">li</tspan><tspan class="cls-17" x="60.39" y="26.4">z</tspan><tspan x="64.87" y="26.4">ation #5</tspan></text></g><g id="图层_1" data-name="图层 1"><text class="cls-55" transform="translate(30.06 124.99)">QUE<tspan class="cls-2" x="16.89" y="0">R</tspan><tspan x="22.13" y="0">Y</tspan><tspan x="-9.36" y="10.8">DEFINITION</tspan></text><text class="cls-55" transform="translate(33.66 222.97)"><tspan class="cls-44">D</tspan><tspan class="cls-56" x="5.74" y="0">AT</tspan><tspan x="14.86" y="0">A</tspan><tspan x="-12.98" y="10.8">G</tspan><tspan class="cls-57" x="-7.24" y="10.8">A</tspan><tspan x="-2.44" y="10.8">THERING</tspan></text><rect class="cls-58" x="0.41" y="113.53" width="86.59" height="26.73"/><rect class="cls-58" x="0.41" y="211.95" width="86.59" height="27"/><line class="cls-58" x1="43.28" y1="141.52" x2="43.28" y2="211"/></g></svg>