<?xml version="1.0" encoding="utf-8"?>
<!-- Generator: Adobe Illustrator 22.0.0, SVG Export Plug-In . SVG Version: 6.00 Build 0)  -->
<svg version="1.1" id="Livello_1" xmlns="http://www.w3.org/2000/svg" xmlns:xlink="http://www.w3.org/1999/xlink" x="0px" y="0px"
	 viewBox="0 0 1920 1080" style="enable-background:new 0 0 1920 1080;" xml:space="preserve">
<style type="text/css">
	.st0{fill:none;stroke:#FF3603;stroke-width:0.75;stroke-linejoin:round;}
	.st1{fill:#FF3603;}
	.st2{fill:#30D840;}
	.st3{fill:#F2D51E;}
	.st4{fill:#9D77FC;}
	.st5{fill:#4A74FF;}
	.st6{fill:#FF7900;}
	.st7{fill:none;stroke:#58626B;stroke-width:0.75;stroke-linejoin:round;}
	.st8{fill:#58626B;}
	.st9{fill:#C1C6C9;}
	.st10{fill:#FFFFFF;}
	.st11{fill:none;stroke:#58626B;stroke-miterlimit:10;}
	.st12{fill:none;stroke:#FFFFFF;stroke-width:2;stroke-miterlimit:10;}
</style>
<g id="query2">
	<g>
		<g>
			<g>
				<path class="st0" d="M519.6,618.1c4.2,229,191.1,412.7,420.6,412.7c232.4,0,420.7-195.6,420.7-428"/>
				<g>
					<path class="st1" d="M516.3,618.5c-0.1-1.9,1.5-3.5,3.3-3.5c1.9-0.1,3.5,1.5,3.5,3.3c0.1,1.9-1.5,3.5-3.3,3.5
						C517.9,621.8,516.3,620.3,516.3,618.5z"/>
				</g>
			</g>
		</g>
		<g transform="translate(0,0)">
			<rect x="516.6" y="578.4" class="st2" width="6.1" height="24.3"/>
		</g>
	</g>
	<g>
		<g>
			<g>
				<path class="st0" d="M534.3,618.1c4.2,226.6,189.3,408.5,416.3,408.5c230,0,416.3-193.7,416.3-423.6"/>
				<g>
					<path class="st1" d="M531,618.5c-0.1-1.9,1.5-3.5,3.3-3.5c1.9-0.1,3.5,1.5,3.5,3.3c0.1,1.9-1.5,3.5-3.3,3.5
						S531,620.3,531,618.5z"/>
				</g>
			</g>
		</g>
		<g transform="translate(0,0)">
			<rect x="531.2" y="578.4" class="st2" width="6.1" height="24.3"/>
		</g>
	</g>
	<g>
		<g>
			<g>
				<path class="st0" d="M549,618.1c4.2,224.3,187.4,404.1,412,404.1c227.5,0,412.1-191.7,412.1-419.4"/>
				<g>
					<path class="st1" d="M545.6,618.5c-0.1-1.9,1.5-3.5,3.3-3.5s3.5,1.5,3.5,3.3c0.1,1.9-1.5,3.5-3.3,3.5S545.7,620.3,545.6,618.5z
						"/>
				</g>
			</g>
		</g>
		<g transform="translate(0,0)">
			<rect x="545.8" y="578.4" class="st2" width="6.1" height="24.3"/>
		</g>
	</g>
	<g>
		<g>
			<g>
				<path class="st0" d="M563.6,618.1c4.2,221.8,185.4,399.8,407.7,399.8c225.2,0,407.7-189.9,407.7-415"/>
				<g>
					<path class="st1" d="M560.2,618.5c-0.1-1.9,1.5-3.5,3.3-3.5s3.5,1.5,3.5,3.3c0.1,1.9-1.5,3.5-3.3,3.5S560.4,620.3,560.2,618.5z
						"/>
				</g>
			</g>
		</g>
		<g transform="translate(0,0)">
			<rect x="560.5" y="578.4" class="st2" width="6.1" height="24.3"/>
		</g>
	</g>
	<g>
		<g>
			<g>
				<path class="st0" d="M578.2,618.1c4.2,219.5,183.5,395.6,403.4,395.6c222.8,0,403.5-188,403.5-410.8"/>
				<g>
					<path class="st1" d="M574.9,618.5c-0.1-1.9,1.5-3.5,3.3-3.5c1.9-0.1,3.5,1.5,3.5,3.3c0.1,1.9-1.5,3.5-3.3,3.5
						C576.5,621.8,574.9,620.3,574.9,618.5z"/>
				</g>
			</g>
		</g>
		<g transform="translate(0,0)">
			<rect x="575.2" y="578.4" class="st2" width="6.1" height="24.3"/>
		</g>
	</g>
	<g>
		<g>
			<g>
				<path class="st0" d="M592.9,618.1c4.2,217.1,181.5,391.2,399.1,391.2c220.5,0,399.2-186,399.2-406.5"/>
				<g>
					<path class="st1" d="M589.6,618.5c-0.1-1.9,1.5-3.5,3.3-3.5s3.5,1.5,3.5,3.3c0.1,1.9-1.5,3.5-3.3,3.5
						C591.2,621.8,589.6,620.3,589.6,618.5z"/>
				</g>
			</g>
		</g>
		<g transform="translate(0,0)">
			<rect x="589.9" y="578.4" class="st2" width="6.1" height="24.3"/>
		</g>
	</g>
	<g>
		<g>
			<g>
				<path class="st0" d="M607.6,618.1c4.2,214.8,179.6,387,394.9,387c218.1,0,394.9-184.1,394.9-402.1"/>
				<g>
					<path class="st1" d="M604.2,618.5c-0.1-1.9,1.5-3.5,3.3-3.5c1.9-0.1,3.5,1.5,3.5,3.3c0.1,1.9-1.5,3.5-3.3,3.5
						S604.3,620.3,604.2,618.5z"/>
				</g>
			</g>
		</g>
		<g transform="translate(0,0)">
			<rect x="604.4" y="578.4" class="st2" width="6.1" height="24.3"/>
		</g>
	</g>
	<g>
		<g>
			<g>
				<path class="st0" d="M622.3,618.1c4.2,212.4,177.8,382.6,390.5,382.6c215.8,0,390.6-182.1,390.6-397.9"/>
				<g>
					<path class="st1" d="M618.9,618.5c-0.1-1.9,1.5-3.5,3.3-3.5s3.5,1.5,3.5,3.3c0.1,1.9-1.5,3.5-3.3,3.5
						C620.6,621.8,619,620.3,618.9,618.5z"/>
				</g>
			</g>
		</g>
		<g transform="translate(0,0)">
			<rect x="619.1" y="578.4" class="st2" width="6.1" height="24.3"/>
		</g>
	</g>
	<g>
		<g>
			<g>
				<path class="st0" d="M651.5,618.1c4.2,207.6,173.9,374.1,382,374.1c211,0,382-178.3,382-389.3"/>
				<g>
					<path class="st1" d="M648.2,618.5c-0.1-1.9,1.5-3.5,3.3-3.5c1.9-0.1,3.5,1.5,3.5,3.3s-1.5,3.5-3.3,3.5
						C649.8,621.8,648.2,620.3,648.2,618.5z"/>
				</g>
			</g>
		</g>
		<g transform="translate(0,0)">
			<rect x="648.5" y="578.4" class="st2" width="6.1" height="24.3"/>
		</g>
	</g>
	<g>
		<g>
			<g>
				<path class="st0" d="M666.2,618.1c4.2,205.2,171.9,369.7,377.6,369.7c208.6,0,377.8-176.4,377.8-385"/>
				<g>
					<path class="st1" d="M662.8,618.5c-0.1-1.9,1.5-3.5,3.3-3.5s3.5,1.5,3.5,3.3c0.1,1.9-1.5,3.5-3.3,3.5S662.9,620.3,662.8,618.5z
						"/>
				</g>
			</g>
		</g>
		<g transform="translate(0,0)">
			<rect x="663" y="578.4" class="st2" width="6.1" height="24.3"/>
		</g>
	</g>
	<g>
		<g>
			<g>
				<path class="st0" d="M680.9,618.1c4.2,202.9,170,365.5,373.4,365.5c206.3,0,373.4-174.5,373.4-380.7"/>
				<g>
					<path class="st1" d="M677.5,618.5c-0.1-1.9,1.5-3.5,3.3-3.5s3.5,1.5,3.5,3.3c0.1,1.9-1.5,3.5-3.3,3.5S677.6,620.3,677.5,618.5z
						"/>
				</g>
			</g>
		</g>
		<g transform="translate(0,0)">
			<rect x="677.7" y="578.4" class="st2" width="6.1" height="24.3"/>
		</g>
	</g>
	<g>
		<g>
			<g>
				<path class="st0" d="M695.4,618.1c4.2,200.5,168.1,361.3,369,361.3c203.9,0,369.1-172.6,369.1-376.4"/>
				<g>
					<path class="st1" d="M692.1,618.5c-0.1-1.9,1.5-3.5,3.3-3.5c1.9-0.1,3.5,1.5,3.5,3.3c0.1,1.9-1.5,3.5-3.3,3.5
						C693.7,621.8,692.1,620.3,692.1,618.5z"/>
				</g>
			</g>
		</g>
		<g transform="translate(0,0)">
			<rect x="692.4" y="578.4" class="st2" width="6.1" height="24.3"/>
		</g>
	</g>
	<g>
		<g>
			<g>
				<path class="st0" d="M636.8,618.1C641,828.2,812.6,996.5,1023,996.5c213.3,0,386.4-180.2,386.4-393.7"/>
				<g>
					<path class="st1" d="M633.5,618.5c-0.1-1.9,1.5-3.5,3.3-3.5c1.9-0.1,3.5,1.5,3.5,3.3c0.1,1.9-1.5,3.5-3.3,3.5
						C635.1,621.8,633.5,620.3,633.5,618.5z"/>
				</g>
			</g>
		</g>
		<g transform="translate(0,0)">
			<rect x="633.8" y="578.4" class="st2" width="6.1" height="24.3"/>
		</g>
	</g>
	<g>
		<g>
			<g>
				<path class="st0" d="M710.1,618.1C714.4,816.3,876.2,975,1074.9,975c201.6,0,364.9-170.6,364.9-372.2"/>
				<g>
					<path class="st1" d="M706.8,618.5c-0.1-1.9,1.5-3.5,3.3-3.5s3.5,1.5,3.5,3.3c0.1,1.9-1.5,3.5-3.3,3.5
						C708.4,621.8,706.8,620.3,706.8,618.5z"/>
				</g>
			</g>
		</g>
		<g transform="translate(0,0)">
			<rect x="707.1" y="578.4" class="st2" width="6.1" height="24.3"/>
		</g>
	</g>
	<g>
		<g>
			<g>
				<path class="st0" d="M739.5,618.1c4.2,193.4,162.4,348.3,356.2,348.3c196.8,0,356.3-166.7,356.3-363.6"/>
				<g>
					<path class="st1" d="M736.1,618.5c-0.1-1.9,1.5-3.5,3.3-3.5c1.9-0.1,3.5,1.5,3.5,3.3s-1.5,3.5-3.3,3.5S736.2,620.3,736.1,618.5
						z"/>
				</g>
			</g>
		</g>
		<g transform="translate(0,0)">
			<rect x="736.3" y="578.4" class="st2" width="6.1" height="24.3"/>
		</g>
	</g>
	<g>
		<g>
			<g>
				<path class="st0" d="M724.8,618.1C729,814,889.1,970.7,1085.3,970.7c199.1,0,360.5-168.7,360.5-367.8"/>
				<g>
					<path class="st1" d="M721.4,618.5c-0.1-1.9,1.5-3.5,3.3-3.5s3.5,1.5,3.5,3.3c0.1,1.9-1.5,3.5-3.3,3.5
						C723.1,621.8,721.5,620.3,721.4,618.5z"/>
				</g>
			</g>
		</g>
		<g transform="translate(0,0)">
			<rect x="721.6" y="578.4" class="st2" width="6.1" height="24.3"/>
		</g>
	</g>
	<g>
		<g>
			<g>
				<path class="st0" d="M754,618.1c4.2,191,160.4,344,351.9,344c194.4,0,352-164.9,352-359.3"/>
				<g>
					<path class="st1" d="M750.8,618.5c-0.1-1.9,1.5-3.5,3.3-3.5c1.9-0.1,3.5,1.5,3.5,3.3s-1.5,3.5-3.3,3.5
						C752.3,621.8,750.8,620.3,750.8,618.5z"/>
				</g>
			</g>
		</g>
		<g transform="translate(0,0)">
			<rect x="751" y="578.4" class="st2" width="6.1" height="24.3"/>
		</g>
	</g>
	<g>
		<g>
			<g>
				<path class="st0" d="M768.7,618.1c4.2,188.7,158.5,339.8,347.7,339.8c192,0,347.7-163,347.7-354.9"/>
				<g>
					<path class="st1" d="M765.4,618.5c-0.1-1.9,1.5-3.5,3.3-3.5s3.5,1.5,3.5,3.3s-1.5,3.5-3.3,3.5
						C767.1,621.8,765.4,620.3,765.4,618.5z"/>
				</g>
			</g>
		</g>
		<g transform="translate(0,0)">
			<rect x="765.7" y="578.4" class="st3" width="6.1" height="24.3"/>
		</g>
	</g>
	<g>
		<g>
			<g>
				<path class="st0" d="M783.4,618.1c4.2,186.3,156.5,335.4,343.3,335.4c189.7,0,343.4-161,343.4-350.7"/>
				<g>
					<path class="st1" d="M780,618.5c-0.1-1.9,1.5-3.5,3.3-3.5c1.9-0.1,3.5,1.5,3.5,3.3c0.1,1.9-1.5,3.5-3.3,3.5
						S780.1,620.3,780,618.5z"/>
				</g>
			</g>
		</g>
		<g transform="translate(0,0)">
			<rect x="780.2" y="578.4" class="st4" width="6.1" height="24.3"/>
		</g>
	</g>
	<g>
		<g>
			<g>
				<path class="st0" d="M798.1,618.1c4.2,184,154.6,331.2,339,331.2c187.2,0,339.2-159.1,339.2-346.3"/>
				<g>
					<path class="st1" d="M794.7,618.5c-0.1-1.9,1.5-3.5,3.3-3.5c1.9-0.1,3.5,1.5,3.5,3.3c0.1,1.9-1.5,3.5-3.3,3.5
						S794.8,620.3,794.7,618.5z"/>
				</g>
			</g>
		</g>
		<g>
			<rect x="794.9" y="578.4" class="st5" width="6.1" height="24.3"/>
		</g>
	</g>
	<g>
		<g>
			<g>
				<path class="st0" d="M812.6,618.1C817,799.7,965.4,945,1147.4,945c184.9,0,334.8-157.1,334.8-342.1"/>
				<g>
					<path class="st1" d="M809.4,618.5c-0.1-1.9,1.5-3.5,3.3-3.5s3.5,1.5,3.5,3.3c0.1,1.9-1.5,3.5-3.3,3.5
						C811.1,621.8,809.4,620.3,809.4,618.5z"/>
				</g>
			</g>
		</g>
		<g>
			<rect x="809.7" y="578.4" class="st6" width="6.1" height="24.3"/>
		</g>
	</g>
	<g>
		<g>
			<g>
				<path class="st7" d="M838.6,618.1c4.2,179.2,139.5,322.5,319.1,322.5c182.5,0,354-155.2,354-337.8"/>
				<g>
					<path class="st8" d="M835.4,618.5c-0.1-1.9,1.5-3.5,3.3-3.5c1.9-0.1,3.5,1.5,3.5,3.3s-1.5,3.5-3.3,3.5
						C836.9,621.8,835.4,620.3,835.4,618.5z"/>
				</g>
			</g>
		</g>
		<g transform="translate(0,0)">
			<rect x="835.6" y="578.4" class="st2" width="6.1" height="24.3"/>
		</g>
	</g>
	<g>
		<g>
			<path class="st7" d="M853.3,618.1c4.2,176.8,137.6,318.3,314.9,318.3c180.2,0,349.6-153.4,349.6-333.4"/>
			<g>
				<path class="st8" d="M849.9,618.5c-0.1-1.9,1.5-3.5,3.3-3.5c1.9-0.1,3.5,1.5,3.5,3.3c0.1,1.9-1.5,3.5-3.3,3.5
					S850,620.3,849.9,618.5z"/>
			</g>
		</g>
		<g transform="translate(0,0)">
			<rect x="850.2" y="578.4" class="st2" width="6.1" height="24.3"/>
		</g>
	</g>
	<g>
		<g>
			<g>
				<path class="st7" d="M868,618.1c4.2,174.4,135.7,314,310.5,314c177.8,0,345.4-151.4,345.4-329.2"/>
				<g>
					<path class="st8" d="M864.6,618.5c-0.1-1.9,1.3-3.5,3.3-3.5s3.5,1.3,3.5,3.3c0,1.9-1.3,3.5-3.3,3.5
						C866.3,621.8,864.7,620.3,864.6,618.5z"/>
				</g>
			</g>
		</g>
		<g transform="translate(0,0)">
			<rect x="864.8" y="578.4" class="st2" width="6.1" height="24.3"/>
		</g>
	</g>
	<g>
		<g>
			<g>
				<path class="st7" d="M882.6,618.1c4.2,172.1,133.7,309.7,306.3,309.7c175.5,0,341.1-149.5,341.1-325"/>
				<g>
					<path class="st8" d="M879.3,618.5c-0.1-1.9,1.3-3.5,3.3-3.5c1.9-0.1,3.5,1.3,3.5,3.3c0.1,1.9-1.3,3.5-3.3,3.5
						S879.3,620.3,879.3,618.5z"/>
				</g>
			</g>
		</g>
		<g transform="translate(0,0)">
			<rect x="879.5" y="578.4" class="st2" width="6.1" height="24.3"/>
		</g>
	</g>
	<g>
		<g>
			<path class="st7" d="M911.9,618.1c4.2,167.3,129.9,301.1,297.7,301.1c170.7,0,332.5-145.6,332.5-316.4"/>
			<g>
				<path class="st8" d="M908.5,618.5c-0.1-1.9,1.3-3.5,3.3-3.5c1.9-0.1,3.5,1.3,3.5,3.3c0,1.9-1.3,3.5-3.3,3.5
					C910.2,621.8,908.6,620.3,908.5,618.5z"/>
			</g>
		</g>
		<g transform="translate(0,0)">
			<rect x="908.8" y="578.4" class="st2" width="6.1" height="24.3"/>
		</g>
	</g>
	<g>
		<g>
			<g>
				<path class="st7" d="M926.6,618.1c4.2,164.9,128,296.8,293.4,296.8c168.3,0,328.3-143.7,328.3-312.1"/>
				<g>
					<path class="st8" d="M923.2,618.5c-0.1-1.9,1.3-3.5,3.3-3.5s3.5,1.3,3.5,3.3c0.1,1.9-1.3,3.5-3.3,3.5
						C924.9,621.8,923.3,620.3,923.2,618.5z"/>
				</g>
			</g>
		</g>
		<g transform="translate(0,0)">
			<rect x="923.5" y="578.4" class="st2" width="6.1" height="24.3"/>
		</g>
	</g>
	<g>
		<g>
			<g>
				<path class="st7" d="M897.2,618.1c4.2,169.6,131.8,305.4,301.9,305.4c173,0,336.8-147.6,336.8-320.6"/>
				<g>
					<path class="st8" d="M894,618.5c-0.1-1.9,1.3-3.5,3.3-3.5s3.5,1.3,3.5,3.3c0.1,1.9-1.3,3.5-3.3,3.5S894,620.3,894,618.5z"/>
				</g>
			</g>
		</g>
		<g transform="translate(0,0)">
			<rect x="894.2" y="578.4" class="st2" width="6.1" height="24.3"/>
		</g>
	</g>
	<g>
		<g>
			<g>
				<path class="st7" d="M941.2,618.1c4.2,162.6,126.1,292.6,289,292.6c166,0,323.9-141.9,323.9-307.7"/>
				<g>
					<path class="st8" d="M937.9,618.5c-0.1-1.9,1.3-3.5,3.3-3.5s3.5,1.3,3.5,3.3c0,1.9-1.3,3.5-3.3,3.5
						C939.5,621.8,937.9,620.3,937.9,618.5z"/>
				</g>
			</g>
		</g>
		<g transform="translate(0,0)">
			<rect x="938.1" y="578.4" class="st2" width="6.1" height="24.3"/>
		</g>
	</g>
	<g>
		<g>
			<g>
				<path class="st7" d="M955.9,618.1c4.2,160.2,124.1,288.2,284.8,288.2c163.6,0,319.6-139.9,319.6-303.5"/>
				<g>
					<path class="st8" d="M952.6,618.5c-0.1-1.9,1.3-3.5,3.3-3.5c1.9-0.1,3.5,1.3,3.5,3.3c0.1,1.9-1.3,3.5-3.3,3.5
						C954.2,621.8,952.6,620.3,952.6,618.5z"/>
				</g>
			</g>
		</g>
		<g transform="translate(0,0)">
			<rect x="952.8" y="578.4" class="st2" width="6.1" height="24.3"/>
		</g>
	</g>
	<g>
		<g>
			<g>
				<path class="st7" d="M970.5,618.1c4.2,157.9,122.2,284,280.5,284c161.1,0,315.3-138,315.3-299.1"/>
				<g>
					<path class="st8" d="M967.1,618.5c-0.1-1.9,1.3-3.5,3.3-3.5c1.9-0.1,3.5,1.3,3.5,3.3c0,1.9-1.3,3.5-3.3,3.5
						C968.7,621.8,967.3,620.3,967.1,618.5z"/>
				</g>
			</g>
		</g>
		<g transform="translate(0,0)">
			<rect x="967.4" y="578.4" class="st2" width="6.1" height="24.3"/>
		</g>
	</g>
	<g>
		<g>
			<g>
				<path class="st7" d="M985.2,618.1c4.2,155.4,120.2,279.7,276.2,279.7c158.8,0,311-136,311-294.9"/>
				<g>
					<path class="st8" d="M981.8,618.5c-0.1-1.9,1.3-3.5,3.3-3.5c1.9,0,3.5,1.3,3.5,3.3c0.1,1.9-1.3,3.5-3.3,3.5
						C983.4,621.8,981.9,620.3,981.8,618.5z"/>
				</g>
			</g>
		</g>
		<g transform="translate(0,0)">
			<rect x="982.1" y="578.4" class="st2" width="6.1" height="24.3"/>
		</g>
	</g>
	<g>
		<g>
			<path class="st7" d="M999.8,618.1c4.2,153.1,118.3,275.3,271.9,275.3c156.4,0,306.8-134.1,306.8-290.6"/>
			<g>
				<path class="st8" d="M996.5,618.5c-0.1-1.9,1.3-3.5,3.3-3.5c1.9,0,3.5,1.3,3.5,3.3c0,1.9-1.3,3.5-3.3,3.5
					S996.5,620.3,996.5,618.5z"/>
			</g>
		</g>
		<g transform="translate(0,0)">
			<rect x="996.7" y="578.4" class="st2" width="6.1" height="24.3"/>
		</g>
	</g>
	<g>
		<g>
			<g>
				<path class="st7" d="M1014.5,618.1c4.2,150.7,116.5,271.1,267.7,271.1c154.1,0,302.4-132.1,302.4-286.3"/>
				<g>
					<path class="st8" d="M1011.2,618.5c-0.1-1.9,1.3-3.5,3.3-3.5c1.9-0.1,3.5,1.3,3.5,3.3c0.1,1.9-1.3,3.5-3.3,3.5
						C1012.8,621.8,1011.2,620.3,1011.2,618.5z"/>
				</g>
			</g>
		</g>
		<g transform="translate(0,0)">
			<rect x="1011.4" y="578.4" class="st2" width="6.1" height="24.3"/>
		</g>
	</g>
	<g>
		<g>
			<g>
				<path class="st7" d="M1029.1,618.1c4.2,148.4,114.5,266.7,263.3,266.7c151.7,0,298.2-130.3,298.2-282"/>
				<g>
					<path class="st8" d="M1025.7,618.5c-0.1-1.9,1.3-3.5,3.3-3.5c1.9,0,3.5,1.3,3.5,3.3c0.1,1.9-1.3,3.5-3.3,3.5
						S1025.9,620.3,1025.7,618.5z"/>
				</g>
			</g>
		</g>
		<g transform="translate(0,0)">
			<rect x="1026.1" y="578.4" class="st2" width="6.1" height="24.3"/>
		</g>
	</g>
	<g>
		<g>
			<path class="st7" d="M1043.8,618.1c4.2,146,112.6,262.5,259.1,262.5c149.4,0,293.9-128.4,293.9-277.8"/>
			<g>
				<path class="st8" d="M1040.4,618.5c-0.1-1.9,1.3-3.5,3.3-3.5c1.9-0.1,3.5,1.3,3.5,3.3c0.1,1.9-1.3,3.5-3.3,3.5
					S1040.6,620.3,1040.4,618.5z"/>
			</g>
		</g>
		<g transform="translate(0,0)">
			<rect x="1040.7" y="578.4" class="st2" width="6.1" height="24.3"/>
		</g>
	</g>
	<g>
		<g>
			<g>
				<path class="st7" d="M1058.4,618.1c4.2,143.7,110.7,258.2,254.8,258.2c147,0,289.5-126.4,289.5-273.4"/>
				<g>
					<path class="st8" d="M1055.1,618.5c-0.1-1.9,1.3-3.5,3.3-3.5s3.5,1.3,3.5,3.3c0,1.9-1.3,3.5-3.3,3.5
						C1056.7,621.8,1055.1,620.3,1055.1,618.5z"/>
				</g>
			</g>
		</g>
		<g transform="translate(0,0)">
			<rect x="1055.4" y="578.4" class="st2" width="6.1" height="24.3"/>
		</g>
	</g>
	<g>
		<g>
			<g>
				<path class="st7" d="M1073.1,618.1c4.2,141.2,108.7,253.9,250.4,253.9c144.6,0,285.3-124.5,285.3-269.1"/>
				<g>
					<path class="st8" d="M1069.8,618.5c-0.1-1.9,1.3-3.5,3.3-3.5c1.9-0.1,3.5,1.3,3.5,3.3c0.1,1.9-1.3,3.5-3.3,3.5
						C1071.4,621.8,1069.8,620.3,1069.8,618.5z"/>
				</g>
			</g>
		</g>
		<g transform="translate(0,0)">
			<rect x="1070" y="578.4" class="st2" width="6.1" height="24.3"/>
		</g>
	</g>
	<g>
		<g>
			<g>
				<path class="st7" d="M1087.8,618.1c4.2,138.8,106.8,249.6,246.1,249.6c142.2,0,280.9-122.6,280.9-264.8"/>
				<g>
					<path class="st8" d="M1084.4,618.5c-0.1-1.9,1.3-3.5,3.3-3.5c1.9-0.1,3.5,1.3,3.5,3.3c0.1,1.9-1.3,3.5-3.3,3.5
						C1086.1,621.8,1084.5,620.3,1084.4,618.5z"/>
				</g>
			</g>
		</g>
		<g transform="translate(0,0)">
			<rect x="1084.6" y="578.4" class="st2" width="6.1" height="24.3"/>
		</g>
	</g>
	<g>
		<g>
			<path class="st7" d="M1102.4,618.1c4.2,136.5,104.8,245.4,241.8,245.4c139.9,0,276.7-120.6,276.7-260.5"/>
			<g>
				<path class="st8" d="M1099,618.5c-0.1-1.9,1.3-3.5,3.3-3.5s3.5,1.3,3.5,3.3c0.1,1.9-1.3,3.5-3.3,3.5
					C1100.7,621.8,1099.2,620.3,1099,618.5z"/>
			</g>
		</g>
		<g transform="translate(0,0)">
			<rect x="1099.3" y="578.4" class="st3" width="6.1" height="24.3"/>
		</g>
	</g>
	<g>
		<g>
			<g>
				<path class="st7" d="M1117,618.1c4.2,134.1,103,241,237.6,241c137.5,0,272.4-118.8,272.4-256.3"/>
				<g>
					<path class="st8" d="M1113.7,618.5c-0.1-1.9,1.3-3.5,3.3-3.5c1.9-0.1,3.5,1.3,3.5,3.3c0.1,1.9-1.3,3.5-3.3,3.5
						C1115.4,621.8,1113.7,620.3,1113.7,618.5z"/>
				</g>
			</g>
		</g>
		<g transform="translate(0,0)">
			<rect x="1114" y="578.4" class="st3" width="6.1" height="24.3"/>
		</g>
	</g>
	<g>
		<g>
			<path class="st7" d="M1131.7,618.1c4.2,131.8,101.1,236.7,233.2,236.7c135.2,0,268.1-116.9,268.1-251.9"/>
			<g>
				<path class="st8" d="M1128.4,618.5c-0.1-1.9,1.3-3.5,3.3-3.5c1.9,0,3.5,1.3,3.5,3.3c0.1,1.9-1.3,3.5-3.3,3.5
					S1128.4,620.3,1128.4,618.5z"/>
			</g>
		</g>
		<g transform="translate(0,0)">
			<rect x="1128.5" y="578.4" class="st5" width="6.1" height="24.3"/>
		</g>
	</g>
	<g>
		<g>
			<g>
				<path class="st7" d="M1146.4,618.1c4.2,129.4,99.1,232.4,229,232.4c132.8,0,263.8-114.9,263.8-247.7"/>
				<g>
					<path class="st8" d="M1143,618.5c-0.1-1.9,1.3-3.5,3.3-3.5c1.9-0.1,3.5,1.3,3.5,3.3c0.1,1.9-1.3,3.5-3.3,3.5
						C1144.7,621.8,1143.1,620.3,1143,618.5z"/>
				</g>
			</g>
		</g>
		<g transform="translate(0,0)">
			<rect x="1143.2" y="578.4" class="st5" width="6.1" height="24.3"/>
		</g>
	</g>
	<g>
		<g>
			<g>
				<path class="st7" d="M1161.1,618.1c4.2,127.1,97.2,228.1,224.7,228.1c130.4,0,259.6-113,259.6-243.4"/>
				<g>
					<path class="st8" d="M1157.7,618.5c-0.1-1.9,1.3-3.5,3.3-3.5c1.9,0,3.5,1.3,3.5,3.3c0.1,1.9-1.3,3.5-3.3,3.5
						S1157.8,620.3,1157.7,618.5z"/>
				</g>
			</g>
		</g>
		<g>
			<rect x="1157.9" y="578.4" class="st5" width="6.1" height="24.3"/>
		</g>
	</g>
	<g>
		<g>
			<g>
				<path class="st7" d="M1175.6,618.1c4.2,124.6,95.2,223.9,220.4,223.9c128,0,255.2-111,255.2-239.1"/>
				<g>
					<path class="st8" d="M1172.3,618.5c-0.1-1.9,1.3-3.5,3.3-3.5c1.9-0.1,3.5,1.3,3.5,3.3c0.1,1.9-1.3,3.5-3.3,3.5
						C1174,621.8,1172.5,620.3,1172.3,618.5z"/>
				</g>
			</g>
		</g>
		<g>
			<rect x="1172.6" y="578.4" class="st5" width="6.1" height="24.3"/>
		</g>
	</g>
	<g>
		<g>
			<g>
				<path class="st7" d="M1190.3,618.1c4.2,122.3,93.3,219.5,216.1,219.5c125.6,0,251-109.1,251-234.8"/>
				<g>
					<path class="st8" d="M1187,618.5c-0.1-1.9,1.3-3.5,3.3-3.5c1.9-0.1,3.5,1.3,3.5,3.3c0.1,1.9-1.3,3.5-3.3,3.5
						C1188.6,621.8,1187,620.3,1187,618.5z"/>
				</g>
			</g>
		</g>
		<g>
			<rect x="1187.1" y="578.4" class="st5" width="6.1" height="24.3"/>
		</g>
	</g>
	<g>
		<g>
			<g>
				<path class="st7" d="M1205,618.1c4.2,119.9,91.4,215.3,211.7,215.3c123.3,0,246.7-107.3,246.7-230.6"/>
				<g>
					<path class="st8" d="M1201.6,618.5c-0.1-1.9,1.3-3.5,3.3-3.5c1.9,0,3.5,1.3,3.5,3.3c0.1,1.9-1.3,3.5-3.3,3.5
						C1203.3,621.9,1201.7,620.3,1201.6,618.5z"/>
				</g>
			</g>
		</g>
		<g>
			<rect x="1201.8" y="578.4" class="st6" width="6.1" height="24.3"/>
		</g>
	</g>
	<g>
		<g>
			<g>
				<path class="st7" d="M1219.7,618.1c4.2,117.6,89.5,211,207.5,211c120.9,0,242.3-105.3,242.3-226.2"/>
				<g>
					<path class="st8" d="M1216.3,618.5c-0.1-1.9,1.3-3.5,3.3-3.5s3.5,1.3,3.5,3.3c0.1,1.9-1.3,3.5-3.3,3.5
						C1218,621.9,1216.4,620.3,1216.3,618.5z"/>
				</g>
			</g>
		</g>
		<g>
			<rect x="1216.6" y="578.4" class="st6" width="6.1" height="24.3"/>
		</g>
	</g>
	<g>
		<g>
			<g>
				<path class="st7" d="M1234.2,618.1c4.2,115.2,87.6,206.7,203.2,206.7c118.6,0,238.1-103.4,238.1-221.9"/>
				<g>
					<path class="st8" d="M1230.9,618.5c-0.1-1.9,1.3-3.5,3.3-3.5c1.9-0.1,3.5,1.3,3.5,3.3c0.1,1.9-1.3,3.5-3.3,3.5
						C1232.5,621.8,1231.1,620.3,1230.9,618.5z"/>
				</g>
			</g>
		</g>
		<g>
			<rect x="1231.2" y="578.4" class="st6" width="6.1" height="24.3"/>
		</g>
	</g>
	<g>
		<g>
			<g>
				<path class="st7" d="M1248.9,618.1c4.2,112.7,85.7,202.4,198.9,202.4c116.1,0,233.7-101.4,233.7-217.6"/>
				<g>
					<path class="st8" d="M1245.6,618.5c-0.1-1.9,1.3-3.5,3.3-3.5c1.9,0,3.5,1.3,3.5,3.3c0.1,1.9-1.3,3.5-3.3,3.5
						C1247.3,621.9,1245.6,620.4,1245.6,618.5z"/>
				</g>
			</g>
		</g>
		<g>
			<rect x="1245.8" y="578.4" class="st6" width="6.1" height="24.3"/>
		</g>
	</g>
</g>
<g id="query1">
	<g>
		<g>
			<g>
				<path class="st0" d="M1360.9,475.8c0-232.4-188.5-437.6-420.7-437.6S519.7,226.5,519.6,458.8c0,0.5,0,1,0,1.5"/>
				<g>
					<path class="st1" d="M516.2,460.1c0,1.9,1.6,3.4,3.4,3.4c1.9,0,3.4-1.6,3.4-3.4c0-1.9-1.6-3.4-3.4-3.4
						C517.7,456.6,516.2,458.2,516.2,460.1z"/>
				</g>
			</g>
		</g>
		<g transform="translate(0,0)">
			<rect x="516.6" y="475.5" class="st2" width="6.1" height="24.3"/>
		</g>
	</g>
	<g>
		<g>
			<g>
				<path class="st0" d="M1367,475.8c0-230-186.4-433.3-416.3-433.3S534.3,228.8,534.3,458.8c0,0.5,0,1,0,1.5"/>
				<g>
					<path class="st1" d="M530.8,460.1c0,1.9,1.6,3.4,3.4,3.4c1.9,0,3.4-1.6,3.4-3.4c0-1.9-1.6-3.4-3.4-3.4
						C532.3,456.6,530.8,458.2,530.8,460.1z"/>
				</g>
			</g>
		</g>
		<g transform="translate(0,0)">
			<rect x="531.2" y="475.5" class="st2" width="6.1" height="24.3"/>
		</g>
	</g>
	<g>
		<g>
			<g>
				<path class="st0" d="M1373,475.8c0-227.5-184.6-429.1-412.1-429c-227.5,0-412,184.4-412,412c0,0.5,0,1,0,1.5"/>
				<g>
					<path class="st1" d="M545.4,460.1c0,1.9,1.6,3.4,3.4,3.4s3.4-1.6,3.4-3.4c0-1.9-1.6-3.4-3.4-3.4S545.4,458.2,545.4,460.1z"/>
				</g>
			</g>
		</g>
		<g transform="translate(0,0)">
			<rect x="545.8" y="475.5" class="st2" width="6.1" height="24.3"/>
		</g>
	</g>
	<g>
		<g>
			<g>
				<path class="st0" d="M1379.1,475.8c0-225.3-182.6-424.8-407.7-424.8S563.6,233.7,563.6,458.8c0,0.5,0,1,0,1.5"/>
				<g>
					<path class="st1" d="M560.1,460.1c0,1.9,1.6,3.4,3.4,3.4s3.4-1.6,3.4-3.4c0-1.9-1.6-3.4-3.4-3.4S560.1,458.2,560.1,460.1z"/>
				</g>
			</g>
		</g>
		<g transform="translate(0,0)">
			<rect x="560.5" y="475.5" class="st2" width="6.1" height="24.3"/>
		</g>
	</g>
	<g>
		<g>
			<g>
				<path class="st0" d="M1385.2,475.8C1385,253,1204.4,55.3,981.6,55.4C758.8,55.5,578.2,236,578.2,458.8c0,0.5,0,1,0,1.5"/>
				<g>
					<path class="st1" d="M574.8,460.1c0,1.9,1.6,3.4,3.4,3.4c1.8,0,3.4-1.6,3.4-3.4c0-1.9-1.6-3.4-3.4-3.4
						C576.4,456.7,574.8,458.2,574.8,460.1z"/>
				</g>
			</g>
		</g>
		<g transform="translate(0,0)">
			<rect x="575.2" y="475.5" class="st2" width="6.1" height="24.3"/>
		</g>
	</g>
	<g>
		<g>
			<g>
				<path class="st0" d="M1391.2,475.8c0-220.5-178.7-416.2-399.2-416.2S592.8,238.3,592.8,458.8c0,0.5,0,1,0,1.5"/>
				<g>
					<path class="st1" d="M589.4,460.1c0,1.9,1.6,3.4,3.4,3.4c1.9,0,3.4-1.6,3.4-3.4c0-1.9-1.6-3.4-3.4-3.4S589.4,458.2,589.4,460.1
						z"/>
				</g>
			</g>
		</g>
		<g transform="translate(0,0)">
			<rect x="589.9" y="475.5" class="st2" width="6.1" height="24.3"/>
		</g>
	</g>
	<g>
		<g>
			<g>
				<path class="st0" d="M1397.3,475.8c-0.1-218.1-176.9-411.9-395-411.9S607.6,240.7,607.4,458.8c0,0.5,0,1,0,1.5"/>
				<g>
					<path class="st1" d="M604.1,460.1c0,1.9,1.6,3.4,3.4,3.4s3.4-1.6,3.4-3.4c0-1.9-1.6-3.4-3.4-3.4
						C605.6,456.7,604.1,458.2,604.1,460.1z"/>
				</g>
			</g>
		</g>
		<g transform="translate(0,0)">
			<rect x="604.4" y="475.5" class="st2" width="6.1" height="24.3"/>
		</g>
	</g>
	<g>
		<g>
			<g>
				<path class="st0" d="M1403.4,475.8c0-215.8-174.9-407.6-390.6-407.6S622.1,243,622.1,458.8c0,0.5,0,1,0,1.5"/>
				<g>
					<ellipse class="st1" cx="622.1" cy="460" rx="3.4" ry="3.4"/>
				</g>
			</g>
		</g>
		<g transform="translate(0,0)">
			<rect x="619.1" y="475.5" class="st2" width="6.1" height="24.3"/>
		</g>
	</g>
	<g>
		<g>
			<g>
				<path class="st0" d="M1409.4,475.8c0-213.3-173-403.2-386.4-403.2S636.8,245.4,636.8,458.8c0,0.5,0,1,0,1.5"/>
				<g>
					<path class="st1" d="M633.4,460.1c0,1.9,1.6,3.4,3.4,3.4s3.4-1.6,3.4-3.4c0-1.9-1.6-3.4-3.4-3.4
						C634.9,456.6,633.3,458.2,633.4,460.1z"/>
				</g>
			</g>
		</g>
		<g transform="translate(0,0)">
			<rect x="633.8" y="475.5" class="st2" width="6.1" height="24.3"/>
		</g>
	</g>
	<g>
		<g>
			<g>
				<path class="st0" d="M1415.5,475.8c0-211-171.1-399-382.1-398.9c-210.9,0-381.9,171-381.9,381.9c0,0.5,0,1,0,1.5"/>
				<g>
					<path class="st1" d="M648,460.1c0,1.9,1.6,3.4,3.4,3.4c1.8,0,3.4-1.6,3.4-3.4c0-1.9-1.6-3.4-3.4-3.4S648,458.2,648,460.1z"/>
				</g>
			</g>
		</g>
		<g transform="translate(0,0)">
			<rect x="648.5" y="475.5" class="st2" width="6.1" height="24.3"/>
		</g>
	</g>
	<g>
		<g>
			<g>
				<path class="st0" d="M1421.6,475.8c-0.1-208.6-169.3-394.6-377.9-394.6c-208.5,0.1-377.5,169-377.6,377.6c0,0.5,0,1,0,1.5"/>
				<g>
					<ellipse class="st1" cx="666" cy="460" rx="3.4" ry="3.4"/>
				</g>
			</g>
		</g>
		<g transform="translate(0,0)">
			<rect x="663" y="475.5" class="st2" width="6.1" height="24.3"/>
		</g>
	</g>
	<g>
		<g>
			<g>
				<path class="st0" d="M1427.6,475.8c-0.1-206.3-167.3-390.4-373.6-390.4c-206.2,0.1-373.3,167.2-373.3,373.3c0,0.5,0,1,0,1.5"/>
				<g>
					<path class="st1" d="M677.3,460.1c0,1.9,1.6,3.4,3.4,3.4c1.8,0,3.4-1.6,3.4-3.4c0-1.9-1.6-3.4-3.4-3.4
						C678.8,456.6,677.3,458.2,677.3,460.1z"/>
				</g>
			</g>
		</g>
		<g transform="translate(0,0)">
			<rect x="677.7" y="475.5" class="st2" width="6.1" height="24.3"/>
		</g>
	</g>
	<g>
		<g>
			<g>
				<path class="st0" d="M1433.7,475.8c-0.1-203.9-165.4-386.1-369.3-386c-203.7,0.1-368.9,165.3-369,369c0,0.5,0,1,0,1.5"/>
				<g>
					<path class="st1" d="M692,460.1c0,1.9,1.6,3.4,3.4,3.4c1.8,0,3.4-1.6,3.4-3.4c0-1.9-1.6-3.4-3.4-3.4
						C693.5,456.6,691.9,458.2,692,460.1z"/>
				</g>
			</g>
		</g>
		<g transform="translate(0,0)">
			<rect x="692.4" y="475.5" class="st2" width="6.1" height="24.3"/>
		</g>
	</g>
	<g>
		<g>
			<g>
				<path class="st0" d="M1488.3,475.8c0-182.5-147.9-347.5-330.6-347.5s-330.6,148-330.6,330.6c0,0.5,0,1,0,1.5"/>
				<g>
					<path class="st1" d="M823.8,460.1c0,1.9,1.6,3.4,3.4,3.4c1.9,0,3.4-1.6,3.4-3.4c0-1.9-1.6-3.4-3.4-3.4
						C825.4,456.6,823.8,458.2,823.8,460.1z"/>
				</g>
			</g>
		</g>
		<g transform="translate(0,0)">
			<rect x="824.3" y="475.5" class="st2" width="6.1" height="24.3"/>
		</g>
	</g>
	<g>
		<g>
			<g>
				<path class="st0" d="M1439.8,475.8c0-201.6-163.5-381.8-364.9-381.8S710.1,257.3,710.1,458.8c0,0.5,0,1,0,1.5"/>
				<g>
					<path class="st1" d="M706.6,460.1c0,1.9,1.6,3.4,3.4,3.4c1.8,0,3.4-1.6,3.4-3.4s-1.6-3.4-3.4-3.4
						C708.2,456.6,706.6,458.2,706.6,460.1z"/>
				</g>
			</g>
		</g>
		<g transform="translate(0,0)">
			<rect x="707.1" y="475.5" class="st2" width="6.1" height="24.3"/>
		</g>
	</g>
	<g>
		<g>
			<g>
				<path class="st0" d="M1445.8,475.8c0-199.1-161.4-377.5-360.5-377.5S724.8,259.6,724.8,458.8c0,0.5,0,1,0,1.5"/>
				<g>
					<path class="st1" d="M721.3,460.1c0,1.9,1.6,3.4,3.4,3.4s3.4-1.6,3.4-3.4c0-1.9-1.6-3.4-3.4-3.4S721.3,458.2,721.3,460.1z"/>
				</g>
			</g>
		</g>
		<g transform="translate(0,0)">
			<rect x="721.6" y="475.5" class="st2" width="6.1" height="24.3"/>
		</g>
	</g>
	<g>
		<g>
			<g>
				<path class="st0" d="M1451.9,475.8c-0.1-196.8-159.6-373.3-356.4-373.1c-196.7,0.1-356,159.5-356.2,356.2c0,0.5,0,1,0,1.5"/>
				<g>
					<path class="st1" d="M736,460.1c0,1.9,1.6,3.4,3.4,3.4c1.9,0,3.4-1.6,3.4-3.4c0-1.9-1.6-3.4-3.4-3.4
						C737.4,456.6,736,458.2,736,460.1z"/>
				</g>
			</g>
		</g>
		<g transform="translate(0,0)">
			<rect x="736.3" y="475.5" class="st2" width="6.1" height="24.3"/>
		</g>
	</g>
	<g>
		<g>
			<g>
				<path class="st0" d="M1458,475.8c0-194.4-157.6-369-352-369s-351.9,157.6-351.9,352c0,0.5,0,1,0,1.5"/>
				<g>
					<path class="st1" d="M750.5,460.1c0,1.9,1.6,3.4,3.4,3.4c1.8,0,3.4-1.6,3.4-3.4c0-1.9-1.6-3.4-3.4-3.4S750.5,458.2,750.5,460.1
						z"/>
				</g>
			</g>
		</g>
		<g transform="translate(0,0)">
			<rect x="751" y="475.5" class="st2" width="6.1" height="24.3"/>
		</g>
	</g>
	<g>
		<g>
			<g>
				<path class="st0" d="M1464,475.8c0-192-155.7-364.6-347.8-364.6c-192,0-347.7,155.7-347.7,347.7c0,0.5,0,1,0,1.5"/>
				<g>
					<path class="st1" d="M765.2,460.1c0,1.9,1.6,3.4,3.4,3.4s3.4-1.6,3.4-3.4c0-1.9-1.6-3.4-3.4-3.4
						C766.8,456.6,765.2,458.2,765.2,460.1z"/>
				</g>
			</g>
		</g>
		<g transform="translate(0,0)">
			<rect x="765.7" y="475.5" class="st2" width="6.1" height="24.3"/>
		</g>
	</g>
	<g>
		<g>
			<g>
				<path class="st0" d="M1470.1,475.8c-0.1-189.7-153.9-360.4-343.5-360.3c-189.5,0.1-343.2,153.7-343.3,343.3c0,0.5,0,1,0,1.5"/>
				<g>
					<ellipse class="st1" cx="783.2" cy="460" rx="3.4" ry="3.4"/>
				</g>
			</g>
		</g>
		<g transform="translate(0,0)">
			<rect x="780.2" y="475.5" class="st2" width="6.1" height="24.3"/>
		</g>
	</g>
	<g>
		<g>
			<g>
				<path class="st0" d="M1476.2,475.8c-0.1-187.2-151.9-356-339.2-356c-187.2,0.1-338.9,151.8-339,339c0,0.5,0,1,0,1.5"/>
				<g>
					<path class="st1" d="M794.6,460.1c0,1.9,1.6,3.4,3.4,3.4c1.9,0,3.4-1.6,3.4-3.4c0-1.9-1.6-3.4-3.4-3.4
						C796,456.6,794.6,458.2,794.6,460.1z"/>
				</g>
			</g>
		</g>
		<g transform="translate(0,0)">
			<rect x="794.9" y="475.5" class="st2" width="6.1" height="24.3"/>
		</g>
	</g>
	<g>
		<g>
			<g>
				<path class="st0" d="M1482.2,475.8c0-184.9-150-351.8-334.9-351.7c-184.8,0-334.7,149.9-334.7,334.7c0,0.5,0,1,0,1.5"/>
				<g>
					<path class="st1" d="M809.1,460.1c0,1.9,1.6,3.4,3.4,3.4c1.9,0,3.4-1.6,3.4-3.4c0-1.9-1.6-3.4-3.4-3.4
						C810.7,456.6,809.1,458.2,809.1,460.1z"/>
				</g>
			</g>
		</g>
		<g transform="translate(0,0)">
			<rect x="809.6" y="475.5" class="st2" width="6.1" height="24.3"/>
		</g>
	</g>
	<g>
		<g>
			<g>
				<path class="st0" d="M1494.4,475.8c0-180.2-146.1-343.2-326.2-343.2s-326.3,146-326.3,326.2c0,0.5,0,1,0,1.5"/>
				<g>
					<path class="st1" d="M838.5,460.1c0,1.9,1.6,3.4,3.4,3.4c1.9,0,3.4-1.6,3.4-3.4c0-1.9-1.6-3.4-3.4-3.4
						C840,456.6,838.5,458.2,838.5,460.1z"/>
				</g>
			</g>
		</g>
		<g transform="translate(0,0)">
			<rect x="838.9" y="475.5" class="st2" width="6.1" height="24.3"/>
		</g>
	</g>
	<g>
		<g>
			<g>
				<path class="st0" d="M1506.5,475.8c-0.1-175.5-142.3-334.6-317.8-334.6c-175.3,0.1-317.4,142.2-317.6,317.6c0,0.5,0,1,0,1.5"/>
				<g>
					<path class="st1" d="M867.7,460.1c0,1.9,1.6,3.4,3.4,3.4c1.9,0,3.4-1.6,3.4-3.4c0-1.9-1.6-3.4-3.4-3.4
						C869.3,456.6,867.7,458.2,867.7,460.1z"/>
				</g>
			</g>
		</g>
		<g transform="translate(0,0)">
			<rect x="868.2" y="475.5" class="st3" width="6.1" height="24.3"/>
		</g>
	</g>
	<g>
		<g>
			<g>
				<path class="st0" d="M1524.7,475.8c0-168.3-136.4-321.8-304.8-321.8S915.2,290.5,915.2,458.8c0,0.5,0,1,0,1.5"/>
				<g>
					<path class="st1" d="M911.8,460.1c0,1.9,1.6,3.4,3.4,3.4c1.9,0,3.4-1.6,3.4-3.4c0-1.9-1.6-3.4-3.4-3.4
						C913.2,456.6,911.8,458.2,911.8,460.1z"/>
				</g>
			</g>
		</g>
		<g transform="translate(0,0)">
			<rect x="912.2" y="475.5" class="st3" width="6.1" height="24.3"/>
		</g>
	</g>
	<g>
		<g>
			<g>
				<path class="st0" d="M1536.8,475.8c0-163.6-132.6-313.2-296.2-313.1c-163.6,0-296.1,132.6-296.1,296.1c0,0.5,0,1,0,1.5"/>
				<g>
					<path class="st1" d="M941,460.1c0,1.9,1.6,3.4,3.4,3.4c1.8,0,3.4-1.6,3.4-3.4c0-1.9-1.6-3.4-3.4-3.4S941,458.2,941,460.1z"/>
				</g>
			</g>
		</g>
		<g transform="translate(0,0)">
			<rect x="941.5" y="475.5" class="st3" width="6.1" height="24.3"/>
		</g>
	</g>
	<g>
		<g>
			<g>
				<path class="st0" d="M1542.9,475.8c0-161.1-130.7-308.8-291.8-308.8s-292,130.6-292,291.8c0,0.5,0,1,0,1.5"/>
				<g>
					<path class="st1" d="M955.7,460.1c0,1.9,1.6,3.4,3.4,3.4c1.8,0,3.4-1.6,3.4-3.4c0-1.9-1.6-3.4-3.4-3.4S955.7,458.2,955.7,460.1
						z"/>
				</g>
			</g>
		</g>
		<g transform="translate(0,0)">
			<rect x="956.1" y="475.5" class="st3" width="6.1" height="24.3"/>
		</g>
	</g>
	<g>
		<g>
			<g>
				<path class="st0" d="M1549,475.8c0-158.8-128.9-304.6-287.7-304.6S973.8,299.9,973.7,458.8c0,0.5,0,1,0,1.5"/>
				<g>
					<path class="st1" d="M970.4,460.1c0,1.9,1.6,3.4,3.4,3.4c1.8,0,3.4-1.6,3.4-3.4c0-1.9-1.6-3.4-3.4-3.4S970.3,458.2,970.4,460.1
						z"/>
				</g>
			</g>
		</g>
		<g transform="translate(0,0)">
			<rect x="970.8" y="475.5" class="st3" width="6.1" height="24.3"/>
		</g>
	</g>
	<g>
		<g>
			<g>
				<path class="st0" d="M1561.1,475.8c0-154.1-124.9-296-279-296S1003,304.7,1003,458.8c0,0.5,0,1,0,1.5"/>
				<g>
					<path class="st1" d="M999.6,460.1c0,1.9,1.6,3.4,3.4,3.4c1.9,0,3.4-1.6,3.4-3.4c0-1.9-1.6-3.4-3.4-3.4
						C1001.1,456.6,999.6,458.2,999.6,460.1z"/>
				</g>
			</g>
		</g>
		<g transform="translate(0,0)">
			<rect x="1000.1" y="475.5" class="st3" width="6.1" height="24.3"/>
		</g>
	</g>
	<g>
		<g>
			<g>
				<path class="st0" d="M1500.4,475.8c0-177.8-144.2-338.9-321.9-338.9S856.6,281,856.6,458.8c0,0.5,0,1,0,1.5"/>
				<g>
					<path class="st1" d="M853.2,460.1c0,1.9,1.6,3.4,3.4,3.4c1.9,0,3.4-1.6,3.4-3.4c0-1.9-1.6-3.4-3.4-3.4
						C854.6,456.6,853.2,458.2,853.2,460.1z"/>
				</g>
			</g>
		</g>
		<g transform="translate(0,0)">
			<rect x="853.5" y="475.5" class="st3" width="6.1" height="24.3"/>
		</g>
	</g>
	<g>
		<g>
			<g>
				<path class="st0" d="M1512.6,475.8c0-173-140.3-330.3-313.3-330.3S885.8,285.7,885.8,458.8c0,0.5,0,1,0,1.5"/>
				<g>
					<path class="st1" d="M882.4,460.1c0,1.9,1.6,3.4,3.4,3.4c1.8,0,3.4-1.6,3.4-3.4c0-1.9-1.6-3.4-3.4-3.4S882.4,458.2,882.4,460.1
						z"/>
				</g>
			</g>
		</g>
		<g transform="translate(0,0)">
			<rect x="882.9" y="475.5" class="st3" width="6.1" height="24.3"/>
		</g>
	</g>
	<g>
		<g>
			<g>
				<path class="st0" d="M1518.6,475.8c0-170.7-138.5-326.1-309.1-326.1s-309,138.3-309,309.1c0,0.5,0,1,0,1.5"/>
				<g>
					<path class="st1" d="M897.1,460.1c0,1.9,1.6,3.4,3.4,3.4c1.9,0,3.4-1.6,3.4-3.4c0-1.9-1.6-3.4-3.4-3.4S897.1,458.2,897.1,460.1
						z"/>
				</g>
			</g>
		</g>
		<g transform="translate(0,0)">
			<rect x="897.5" y="475.5" class="st3" width="6.1" height="24.3"/>
		</g>
	</g>
	<g>
		<g>
			<g>
				<path class="st0" d="M1530.8,475.8c0-166-134.6-317.4-300.5-317.4S929.9,292.8,929.9,458.8c0,0.5,0,1,0,1.5"/>
				<g>
					<path class="st1" d="M926.4,460.1c0,1.9,1.6,3.4,3.4,3.4c1.9,0,3.4-1.6,3.4-3.4c0-1.9-1.6-3.4-3.4-3.4
						C927.9,456.6,926.4,458.2,926.4,460.1z"/>
				</g>
			</g>
		</g>
		<g transform="translate(0,0)">
			<rect x="926.8" y="475.5" class="st3" width="6.1" height="24.3"/>
		</g>
	</g>
	<g>
		<g>
			<g>
				<path class="st0" d="M1555.1,475.8c0-156.4-126.8-300.3-283.3-300.3S988.4,302.2,988.4,458.8c0,0.5,0,1,0,1.5"/>
				<g>
					<path class="st1" d="M985,460.1c0,1.9,1.6,3.4,3.4,3.4c1.9,0,3.4-1.6,3.4-3.4c0-1.9-1.6-3.4-3.4-3.4
						C986.5,456.6,985,458.2,985,460.1z"/>
				</g>
			</g>
		</g>
		<g transform="translate(0,0)">
			<rect x="985.4" y="475.5" class="st3" width="6.1" height="24.3"/>
		</g>
	</g>
	<g>
		<g>
			<g>
				<path class="st0" d="M1567.2,475.8c0-151.7-123-291.7-274.7-291.7s-274.7,123-274.7,274.7c0,0.5,0,1,0,1.5"/>
				<g>
					<path class="st1" d="M1014.3,460.1c0,1.9,1.6,3.4,3.4,3.4c1.9,0,3.4-1.6,3.4-3.4c0-1.9-1.6-3.4-3.4-3.4
						C1015.8,456.6,1014.3,458.2,1014.3,460.1z"/>
				</g>
			</g>
		</g>
		<g transform="translate(0,0)">
			<rect x="1014.7" y="475.5" class="st3" width="6.1" height="24.3"/>
		</g>
	</g>
	<g>
		<g>
			<g>
				<path class="st0" d="M1573.3,475.8c0-149.4-121.1-287.4-270.5-287.4s-270.4,121.1-270.4,270.4c0,0.5,0,1,0,1.5"/>
				<g>
					<path class="st1" d="M1029,460.1c0,1.9,1.6,3.4,3.4,3.4c1.9,0,3.4-1.6,3.4-3.4c0-1.9-1.6-3.4-3.4-3.4
						C1030.5,456.6,1028.9,458.2,1029,460.1z"/>
				</g>
			</g>
		</g>
		<g transform="translate(0,0)">
			<rect x="1029.4" y="475.5" class="st3" width="6.1" height="24.3"/>
		</g>
	</g>
	<g>
		<g>
			<g>
				<path class="st0" d="M1579.3,475.8c0-147-119.2-283.1-266.2-283.1S1047,311.9,1047,458.8c0,0.5,0,1,0,1.5"/>
				<g>
					<path class="st1" d="M1043.6,460.1c0,1.9,1.6,3.4,3.4,3.4s3.4-1.6,3.4-3.4c0-1.9-1.6-3.4-3.4-3.4
						C1045.1,456.7,1043.6,458.2,1043.6,460.1z"/>
				</g>
			</g>
		</g>
		<g transform="translate(0,0)">
			<rect x="1044.1" y="475.5" class="st4" width="6.1" height="24.3"/>
		</g>
	</g>
	<g>
		<g>
			<g>
				<path class="st0" d="M1585.4,475.8c0-144.6-117.2-278.9-261.9-278.9s-261.8,117.2-261.8,261.9c0,0.5,0,1,0,1.5"/>
				<g>
					<path class="st1" d="M1058.3,460.1c0,1.9,1.6,3.4,3.4,3.4s3.4-1.6,3.4-3.4c0-1.9-1.6-3.4-3.4-3.4
						C1059.8,456.7,1058.3,458.2,1058.3,460.1z"/>
				</g>
			</g>
		</g>
		<g transform="translate(0,0)">
			<rect x="1058.7" y="475.5" class="st4" width="6.1" height="24.3"/>
		</g>
	</g>
	<g>
		<g>
			<g>
				<path class="st0" d="M1591.5,475.8c0-142.2-115.3-274.5-257.5-274.5s-257.5,115.2-257.5,257.5c0,0.5,0,1,0,1.5"/>
				<g>
					<path class="st1" d="M1072.9,460.1c0,1.9,1.6,3.4,3.4,3.4s3.4-1.6,3.4-3.4c0-1.9-1.6-3.4-3.4-3.4
						C1074.4,456.6,1072.9,458.2,1072.9,460.1z"/>
				</g>
			</g>
		</g>
		<g transform="translate(0,0)">
			<rect x="1073.3" y="475.5" class="st4" width="6.1" height="24.3"/>
		</g>
	</g>
	<g>
		<g>
			<g>
				<path class="st0" d="M1597.5,475.8c0-139.9-113.3-270.2-253.3-270.2S1091,318.9,1091,458.8c0,0.5,0,1,0,1.5"/>
				<g>
					<path class="st1" d="M1087.6,460.1c0,1.9,1.6,3.4,3.4,3.4c1.9,0,3.4-1.6,3.4-3.4c0-1.9-1.6-3.4-3.4-3.4
						C1089.1,456.6,1087.5,458.2,1087.6,460.1z"/>
				</g>
			</g>
		</g>
		<g transform="translate(0,0)">
			<rect x="1088" y="475.5" class="st4" width="6.1" height="24.3"/>
		</g>
	</g>
	<g>
		<g>
			<g>
				<path class="st0" d="M1603.6,475.8c0-137.5-111.5-266-249-265.9c-137.5,0-248.9,111.5-248.9,248.9c0,0.5,0,1,0,1.5"/>
				<g>
					<ellipse class="st1" cx="1105.5" cy="460" rx="3.4" ry="3.4"/>
				</g>
			</g>
		</g>
		<g transform="translate(0,0)">
			<rect x="1102.7" y="475.5" class="st4" width="6.1" height="24.3"/>
		</g>
	</g>
	<g>
		<g>
			<g>
				<path class="st0" d="M1609.7,475.8c0-135.2-109.6-261.6-244.8-261.6c-135.1,0-244.6,109.6-244.6,244.6c0,0.5,0,1,0,1.5"/>
				<g>
					<path class="st1" d="M1116.9,460.1c0,1.9,1.6,3.4,3.4,3.4s3.4-1.6,3.4-3.4c0-1.9-1.6-3.4-3.4-3.4
						C1118.3,456.6,1116.9,458.2,1116.9,460.1z"/>
				</g>
			</g>
		</g>
		<g transform="translate(0,0)">
			<rect x="1117.2" y="475.5" class="st4" width="6.1" height="24.3"/>
		</g>
	</g>
	<g>
		<g>
			<g>
				<path class="st0" d="M1615.7,475.8c0-132.8-107.6-257.4-240.4-257.4S1134.9,326,1134.9,458.8c0,0.5,0,1,0,1.5"/>
				<g>
					<path class="st1" d="M1131.5,460.1c0,1.9,1.6,3.4,3.4,3.4c1.9,0,3.4-1.6,3.4-3.4c0-1.9-1.6-3.4-3.4-3.4
						S1131.5,458.2,1131.5,460.1z"/>
				</g>
			</g>
		</g>
		<g transform="translate(0,0)">
			<rect x="1131.9" y="475.5" class="st4" width="6.1" height="24.3"/>
		</g>
	</g>
	<g>
		<g>
			<g>
				<path class="st0" d="M1621.8,475.8c0-130.4-105.7-253.1-236.1-253c-130.3,0-236,105.7-236,236c0,0.5,0,1,0,1.5"/>
				<g>
					<path class="st1" d="M1146.1,460.1c0,1.9,1.6,3.4,3.4,3.4s3.4-1.6,3.4-3.4c0-1.9-1.6-3.4-3.4-3.4S1146.1,458.2,1146.1,460.1z"
						/>
				</g>
			</g>
		</g>
		<g>
			<rect x="1146.6" y="475.5" class="st5" width="6.1" height="24.3"/>
		</g>
	</g>
	<g>
		<g>
			<g>
				<path class="st0" d="M1627.9,475.8c0-128-103.8-248.8-231.8-248.8s-231.8,103.8-231.8,231.8c0,0.5,0,1,0,1.5"/>
				<g>
					<path class="st1" d="M1160.8,460.1c0,1.9,1.6,3.4,3.4,3.4c1.9,0,3.4-1.6,3.4-3.4c0-1.9-1.6-3.4-3.4-3.4
						C1162.4,456.6,1160.8,458.2,1160.8,460.1z"/>
				</g>
			</g>
		</g>
		<g>
			<rect x="1161.3" y="475.5" class="st5" width="6.1" height="24.3"/>
		</g>
	</g>
	<g>
		<g>
			<g>
				<path class="st0" d="M1633.9,475.8c0-125.6-101.9-244.5-227.5-244.5s-227.5,101.8-227.5,227.5c0,0.5,0,1,0,1.5"/>
				<g>
					<path class="st1" d="M1175.5,460.1c0,1.9,1.6,3.4,3.4,3.4c1.9,0,3.4-1.6,3.4-3.4c0-1.9-1.6-3.4-3.4-3.4
						C1176.9,456.6,1175.5,458.2,1175.5,460.1z"/>
				</g>
			</g>
		</g>
		<g>
			<rect x="1175.8" y="475.5" class="st5" width="6.1" height="24.3"/>
		</g>
	</g>
	<g>
		<g>
			<g>
				<path class="st0" d="M1640,475.8c0-123.3-100-240.3-223.3-240.3s-223.3,100-223.3,223.3c0,0.5,0,1,0,1.5"/>
				<g>
					<path class="st1" d="M1190.2,460.1c0,1.9,1.6,3.4,3.4,3.4c1.9,0,3.4-1.6,3.4-3.4c0-1.9-1.6-3.4-3.4-3.4
						C1191.6,456.6,1190.2,458.2,1190.2,460.1z"/>
				</g>
			</g>
		</g>
		<g>
			<rect x="1190.5" y="475.5" class="st6" width="6.1" height="24.3"/>
		</g>
	</g>
	<g>
		<g>
			<g>
				<path class="st7" d="M1669.5,475.8c0-120.9-121.5-235.9-242.3-235.9s-207.6,98-207.6,218.9c0,0.5,0,1,0,1.5"/>
				<g>
					<path class="st8" d="M1216,460.1c0,1.9,1.6,3.4,3.4,3.4s3.4-1.6,3.4-3.4c0-1.9-1.6-3.4-3.4-3.4
						C1217.6,456.6,1216,458.2,1216,460.1z"/>
				</g>
			</g>
		</g>
		<g transform="translate(0,0)">
			<rect x="1216.5" y="475.5" class="st4" width="6.1" height="24.3"/>
		</g>
	</g>
	<g>
		<g>
			<g>
				<path class="st7" d="M1675.6,475.8c0-118.6-119.7-231.7-238.1-231.5c-118.4,0-203.2,96.1-203.2,214.5c0,0.5,0,1,0,1.5"/>
				<g>
					<path class="st8" d="M1230.7,460.1c0,1.9,1.6,3.4,3.5,3.4s3.4-1.6,3.4-3.5s-1.6-3.4-3.5-3.4S1230.7,458.2,1230.7,460.1z"/>
				</g>
			</g>
		</g>
		<g>
			<rect x="1231.2" y="475.5" class="st5" width="6.1" height="24.3"/>
		</g>
	</g>
	<g>
		<g>
			<g>
				<path class="st7" d="M1681.6,475.8c0-116.1-117.6-227.3-233.7-227.3s-199.1,94.1-199.1,210.3c0,0.5,0,1,0,1.5"/>
				<g>
					<path class="st8" d="M1245.4,460.1c0,1.9,1.6,3.4,3.5,3.4s3.4-1.6,3.4-3.5s-1.6-3.4-3.5-3.4
						C1246.8,456.6,1245.4,458.2,1245.4,460.1z"/>
				</g>
			</g>
		</g>
		<g>
			<rect x="1245.8" y="475.5" class="st6" width="6.1" height="24.3"/>
		</g>
	</g>
</g>
<g id="orientation_query2_man">
	<g transform="translate(0,0)">
		<rect x="1508.7" y="578.7" class="st8" width="6.1" height="24.3"/>
	</g>
	<g transform="translate(0,0)">
		<rect x="1514.8" y="578.7" class="st8" width="6.1" height="24.3"/>
	</g>
	<g transform="translate(0,0)">
		<rect x="1520.8" y="578.7" class="st8" width="6.1" height="24.3"/>
	</g>
	<g transform="translate(0,0)">
		<rect x="1526.9" y="578.7" class="st8" width="6.1" height="24.3"/>
	</g>
	<g transform="translate(0,0)">
		<rect x="1533" y="578.7" class="st8" width="6.1" height="24.3"/>
	</g>
	<g transform="translate(0,0)">
		<rect x="1539" y="578.7" class="st8" width="6.1" height="24.3"/>
	</g>
	<g transform="translate(0,0)">
		<rect x="1545.1" y="578.7" class="st8" width="6.1" height="24.3"/>
	</g>
	<g transform="translate(0,0)">
		<rect x="1551.2" y="578.7" class="st8" width="6.1" height="24.3"/>
	</g>
	<g transform="translate(0,0)">
		<rect x="1557.3" y="578.7" class="st8" width="6.1" height="24.3"/>
	</g>
	<g transform="translate(0,0)">
		<rect x="1563.3" y="578.7" class="st8" width="6.1" height="24.3"/>
	</g>
	<g transform="translate(0,0)">
		<rect x="1569.4" y="578.7" class="st8" width="6.1" height="24.3"/>
	</g>
	<g transform="translate(0,0)">
		<rect x="1575.5" y="578.7" class="st8" width="6.1" height="24.3"/>
	</g>
	<g transform="translate(0,0)">
		<rect x="1581.5" y="578.7" class="st8" width="6.1" height="24.3"/>
	</g>
	<g transform="translate(0,0)">
		<rect x="1587.6" y="578.7" class="st8" width="6.1" height="24.3"/>
	</g>
	<g transform="translate(0,0)">
		<rect x="1593.7" y="578.7" class="st8" width="6.1" height="24.3"/>
	</g>
	<g transform="translate(0,0)">
		<rect x="1599.7" y="578.7" class="st8" width="6.1" height="24.3"/>
	</g>
	<g transform="translate(0,0)">
		<rect x="1605.8" y="578.7" class="st8" width="6.1" height="24.3"/>
	</g>
	<g transform="translate(0,0)">
		<rect x="1611.9" y="578.7" class="st8" width="6.1" height="24.3"/>
	</g>
	<g transform="translate(0,0)">
		<rect x="1617.9" y="578.7" class="st8" width="6.1" height="24.3"/>
	</g>
	<g transform="translate(0,0)">
		<rect x="1624" y="578.7" class="st8" width="6.1" height="24.3"/>
	</g>
	<g transform="translate(0,0)">
		<rect x="1630.1" y="578.7" class="st8" width="6.1" height="24.3"/>
	</g>
	<g transform="translate(0,0)">
		<rect x="1636.1" y="578.7" class="st8" width="6.1" height="24.3"/>
	</g>
	<g transform="translate(0,0)">
		<rect x="1642.2" y="578.7" class="st8" width="6.1" height="24.3"/>
	</g>
	<g transform="translate(0,0)">
		<rect x="1648.3" y="578.7" class="st8" width="6.1" height="24.3"/>
	</g>
	<g transform="translate(0,0)">
		<rect x="1654.3" y="578.7" class="st8" width="6.1" height="24.3"/>
	</g>
	<g transform="translate(0,0)">
		<rect x="1660.4" y="578.7" class="st8" width="6.1" height="24.3"/>
	</g>
	<g transform="translate(0,0)">
		<rect x="1666.5" y="578.7" class="st8" width="6.1" height="24.3"/>
	</g>
	<g transform="translate(0,0)">
		<rect x="1672.5" y="578.7" class="st8" width="6.1" height="24.3"/>
	</g>
	<g transform="translate(0,0)">
		<rect x="1678.6" y="578.7" class="st8" width="6.1" height="24.3"/>
	</g>
</g>
<g id="orientation_query2_woman">
	<g transform="translate(0,0)">
		<rect x="1357.9" y="578.7" class="st1" width="6.1" height="24.3"/>
	</g>
	<g transform="translate(0,0)">
		<rect x="1363.9" y="578.7" class="st1" width="6.1" height="24.3"/>
	</g>
	<g transform="translate(0,0)">
		<rect x="1370" y="578.7" class="st1" width="6.1" height="24.3"/>
	</g>
	<g transform="translate(0,0)">
		<rect x="1376.1" y="578.7" class="st1" width="6.1" height="24.3"/>
	</g>
	<g transform="translate(0,0)">
		<rect x="1382.1" y="578.7" class="st1" width="6.1" height="24.3"/>
	</g>
	<g transform="translate(0,0)">
		<rect x="1388.2" y="578.7" class="st1" width="6.1" height="24.3"/>
	</g>
	<g transform="translate(0,0)">
		<rect x="1394.3" y="578.7" class="st1" width="6.1" height="24.3"/>
	</g>
	<g transform="translate(0,0)">
		<rect x="1400.3" y="578.7" class="st1" width="6.1" height="24.3"/>
	</g>
	<g transform="translate(0,0)">
		<rect x="1406.4" y="578.7" class="st1" width="6.1" height="24.3"/>
	</g>
	<g transform="translate(0,0)">
		<rect x="1412.5" y="578.7" class="st1" width="6.1" height="24.3"/>
	</g>
	<g transform="translate(0,0)">
		<rect x="1418.5" y="578.7" class="st1" width="6.1" height="24.3"/>
	</g>
	<g transform="translate(0,0)">
		<rect x="1424.6" y="578.7" class="st1" width="6.1" height="24.3"/>
	</g>
	<g transform="translate(0,0)">
		<rect x="1430.7" y="578.7" class="st1" width="6.1" height="24.3"/>
	</g>
	<g transform="translate(0,0)">
		<rect x="1436.7" y="578.7" class="st1" width="6.1" height="24.3"/>
	</g>
	<g transform="translate(0,0)">
		<rect x="1442.8" y="578.7" class="st1" width="6.1" height="24.3"/>
	</g>
	<g transform="translate(0,0)">
		<rect x="1448.9" y="578.7" class="st1" width="6.1" height="24.3"/>
	</g>
	<g transform="translate(0,0)">
		<rect x="1454.9" y="578.7" class="st1" width="6.1" height="24.3"/>
	</g>
	<g transform="translate(0,0)">
		<rect x="1461" y="578.7" class="st1" width="6.1" height="24.3"/>
	</g>
	<g transform="translate(0,0)">
		<rect x="1467.1" y="578.7" class="st1" width="6.1" height="24.3"/>
	</g>
	<g transform="translate(0,0)">
		<rect x="1473.1" y="578.7" class="st1" width="6.1" height="24.3"/>
	</g>
	<g transform="translate(0,0)">
		<rect x="1479.2" y="578.7" class="st1" width="6.1" height="24.3"/>
	</g>
</g>
<g id="orientation_query1_man">
	<g transform="translate(0,0)">
		<rect x="1666.5" y="475.8" class="st8" width="6.1" height="24.3"/>
	</g>
	<g transform="translate(0,0)">
		<rect x="1672.5" y="475.8" class="st8" width="6.1" height="24.3"/>
	</g>
	<g transform="translate(0,0)">
		<rect x="1678.6" y="475.8" class="st8" width="6.1" height="24.3"/>
	</g>
</g>
<g id="orientation_query1_woman">
	<g transform="translate(0,0)">
		<rect x="1357.9" y="475.8" class="st1" width="6.1" height="24.3"/>
	</g>
	<g transform="translate(0,0)">
		<rect x="1363.9" y="475.8" class="st1" width="6.1" height="24.3"/>
	</g>
	<g transform="translate(0,0)">
		<rect x="1370" y="475.8" class="st1" width="6.1" height="24.3"/>
	</g>
	<g transform="translate(0,0)">
		<rect x="1376.1" y="475.8" class="st1" width="6.1" height="24.3"/>
	</g>
	<g transform="translate(0,0)">
		<rect x="1382.1" y="475.8" class="st1" width="6.1" height="24.3"/>
	</g>
	<g transform="translate(0,0)">
		<rect x="1388.2" y="475.8" class="st1" width="6.1" height="24.3"/>
	</g>
	<g transform="translate(0,0)">
		<rect x="1394.3" y="475.8" class="st1" width="6.1" height="24.3"/>
	</g>
	<g transform="translate(0,0)">
		<rect x="1400.3" y="475.8" class="st1" width="6.1" height="24.3"/>
	</g>
	<g transform="translate(0,0)">
		<rect x="1406.4" y="475.8" class="st1" width="6.1" height="24.3"/>
	</g>
	<g transform="translate(0,0)">
		<rect x="1412.5" y="475.8" class="st1" width="6.1" height="24.3"/>
	</g>
	<g transform="translate(0,0)">
		<rect x="1418.5" y="475.8" class="st1" width="6.1" height="24.3"/>
	</g>
	<g transform="translate(0,0)">
		<rect x="1424.6" y="475.8" class="st1" width="6.1" height="24.3"/>
	</g>
	<g transform="translate(0,0)">
		<rect x="1430.7" y="475.8" class="st1" width="6.1" height="24.3"/>
	</g>
	<g transform="translate(0,0)">
		<rect x="1436.7" y="475.8" class="st1" width="6.1" height="24.3"/>
	</g>
	<g transform="translate(0,0)">
		<rect x="1442.8" y="475.8" class="st1" width="6.1" height="24.3"/>
	</g>
	<g transform="translate(0,0)">
		<rect x="1448.9" y="475.8" class="st1" width="6.1" height="24.3"/>
	</g>
	<g transform="translate(0,0)">
		<rect x="1454.9" y="475.8" class="st1" width="6.1" height="24.3"/>
	</g>
	<g transform="translate(0,0)">
		<rect x="1461" y="475.8" class="st1" width="6.1" height="24.3"/>
	</g>
	<g transform="translate(0,0)">
		<rect x="1467.1" y="475.8" class="st1" width="6.1" height="24.3"/>
	</g>
	<g transform="translate(0,0)">
		<rect x="1473.1" y="475.8" class="st1" width="6.1" height="24.3"/>
	</g>
	<g transform="translate(0,0)">
		<rect x="1479.2" y="475.8" class="st1" width="6.1" height="24.3"/>
	</g>
	<g transform="translate(0,0)">
		<rect x="1485.3" y="475.8" class="st1" width="6.1" height="24.3"/>
	</g>
	<g transform="translate(0,0)">
		<rect x="1491.3" y="475.8" class="st1" width="6.1" height="24.3"/>
	</g>
	<g transform="translate(0,0)">
		<rect x="1497.4" y="475.8" class="st1" width="6.1" height="24.3"/>
	</g>
	<g transform="translate(0,0)">
		<rect x="1503.5" y="475.8" class="st1" width="6.1" height="24.3"/>
	</g>
	<g transform="translate(0,0)">
		<rect x="1509.5" y="475.8" class="st1" width="6.1" height="24.3"/>
	</g>
	<g transform="translate(0,0)">
		<rect x="1515.6" y="475.8" class="st1" width="6.1" height="24.3"/>
	</g>
	<g transform="translate(0,0)">
		<rect x="1521.7" y="475.8" class="st1" width="6.1" height="24.3"/>
	</g>
	<g transform="translate(0,0)">
		<rect x="1527.7" y="475.8" class="st1" width="6.1" height="24.3"/>
	</g>
	<g transform="translate(0,0)">
		<rect x="1533.8" y="475.8" class="st1" width="6.1" height="24.3"/>
	</g>
	<g transform="translate(0,0)">
		<rect x="1539.9" y="475.8" class="st1" width="6.1" height="24.3"/>
	</g>
	<g transform="translate(0,0)">
		<rect x="1546" y="475.8" class="st1" width="6.1" height="24.3"/>
	</g>
	<g transform="translate(0,0)">
		<rect x="1552" y="475.8" class="st1" width="6.1" height="24.3"/>
	</g>
	<g transform="translate(0,0)">
		<rect x="1558.1" y="475.8" class="st1" width="6.1" height="24.3"/>
	</g>
	<g transform="translate(0,0)">
		<rect x="1564.2" y="475.8" class="st1" width="6.1" height="24.3"/>
	</g>
	<g transform="translate(0,0)">
		<rect x="1570.2" y="475.8" class="st1" width="6.1" height="24.3"/>
	</g>
	<g transform="translate(0,0)">
		<rect x="1576.3" y="475.8" class="st1" width="6.1" height="24.3"/>
	</g>
	<g transform="translate(0,0)">
		<rect x="1582.4" y="475.8" class="st1" width="6.1" height="24.3"/>
	</g>
	<g transform="translate(0,0)">
		<rect x="1588.4" y="475.8" class="st1" width="6.1" height="24.3"/>
	</g>
	<g transform="translate(0,0)">
		<rect x="1594.5" y="475.8" class="st1" width="6.1" height="24.3"/>
	</g>
	<g transform="translate(0,0)">
		<rect x="1600.6" y="475.8" class="st1" width="6.1" height="24.3"/>
	</g>
	<g transform="translate(0,0)">
		<rect x="1606.6" y="475.8" class="st1" width="6.1" height="24.3"/>
	</g>
	<g transform="translate(0,0)">
		<rect x="1612.7" y="475.8" class="st1" width="6.1" height="24.3"/>
	</g>
	<g transform="translate(0,0)">
		<rect x="1618.8" y="475.8" class="st1" width="6.1" height="24.3"/>
	</g>
	<g transform="translate(0,0)">
		<rect x="1624.8" y="475.8" class="st1" width="6.1" height="24.3"/>
	</g>
	<g transform="translate(0,0)">
		<rect x="1630.9" y="475.8" class="st1" width="6.1" height="24.3"/>
	</g>
	<g transform="translate(0,0)">
		<rect x="1637" y="475.8" class="st1" width="6.1" height="24.3"/>
	</g>
</g>
<g id="tick">
	<g id="news">
		<path class="st2" d="M523.4,534.3l3.9,11h0.2v-11h1.8v12.6H526l-3.9-11h-0.2v11h-1.8v-12.6H523.4z"/>
		<path class="st2" d="M541.4,534.3v1.7h-6.3v3.8h5.8v1.7h-5.8v3.8h6.3v1.7h-8.1v-12.6h8.1V534.3z"/>
		<path class="st2" d="M546,534.3l1.4,11h0.2l1.9-11h2.9l1.9,11h0.2l1.4-11h1.8l-1.7,12.6h-3.1l-1.9-11h-0.2l-1.9,11h-3.1l-1.7-12.6
			H546z"/>
		<path class="st2" d="M569.6,538v0.6h-1.8v-0.4c0-1.6-1.2-2.5-2.8-2.5c-1.4,0-2.4,0.7-2.4,1.9s0.8,1.6,2.5,2l0.8,0.2
			c2.3,0.5,3.8,1.5,3.8,3.7c0,2.3-1.9,3.8-4.5,3.8c-3.1,0-5-1.8-5-4.6V542h1.8v0.4c0,2,1.2,3.1,3.2,3.1c1.7,0,2.7-0.9,2.7-2.1
			c0-1.2-0.8-1.7-2.4-2l-0.8-0.2c-2.3-0.5-3.9-1.3-3.9-3.7c0-2.1,1.9-3.5,4.2-3.5C567.6,534,569.6,535.4,569.6,538z"/>
	</g>
	<g id="organization">
		<path class="st3" d="M636.2,534c3,0,4.9,1.9,4.9,5.1v2.8c0,3.2-1.8,5.1-4.9,5.1s-4.9-1.9-4.9-5.1v-2.8
			C631.3,535.9,633.1,534,636.2,534z M633.1,542c0,2.2,1,3.5,3.1,3.5s3.1-1.2,3.1-3.5v-2.9c0-2.2-1-3.5-3.1-3.5s-3.1,1.2-3.1,3.5
			V542z"/>
		<path class="st3" d="M650.8,541.7l2.8,5.2h-2l-2.7-5.1h-2.4v5.1h-1.8v-12.6h5.3c2.3,0,3.9,1.5,3.9,3.7
			C653.9,539.9,652.6,541.3,650.8,541.7z M646.5,540.1h3.3c1.5,0,2.3-0.7,2.3-2.1c0-1.3-0.8-2.1-2.3-2.1h-3.3V540.1z"/>
		<path class="st3" d="M656.8,539.2c0-3.3,1.8-5.1,4.9-5.1c3,0,4.6,1.8,4.6,4.6v0.2h-1.8v-0.2c0-1.8-0.8-3-2.8-3s-3.1,1.2-3.1,3.4v3
			c0,2.2,1.1,3.4,3.1,3.4s2.8-1.2,2.8-3v-0.2h-3.4v-1.6h5.2v1.9c0,2.8-1.6,4.6-4.6,4.6c-3.1,0-4.9-1.9-4.9-5.1V539.2z"/>
		<path class="st3" d="M675.5,534.3l3.9,12.6h-1.9l-0.9-3h-5.1l-0.9,3h-1.9l3.9-12.6H675.5z M676.1,542.2l-1.9-6.3H674l-1.9,6.3
			H676.1z"/>
		<path class="st3" d="M685.8,534.3l3.9,11h0.2v-11h1.8v12.6h-3.3l-3.9-11h-0.2v11h-1.8v-12.6H685.8z"/>
		<path class="st3" d="M697.6,534.3v12.6h-1.8v-12.6H697.6z"/>
		<path class="st3" d="M709.8,534.3v1.6l-6.6,9.4h6.7v1.7H701v-1.6l6.6-9.4h-6.4v-1.7H709.8z"/>
		<path class="st3" d="M719.2,534.3l3.9,12.6h-1.9l-0.9-3h-5.1l-0.9,3h-1.9l3.9-12.6H719.2z M719.8,542.2l-1.9-6.3h-0.2l-1.9,6.3
			H719.8z"/>
		<path class="st3" d="M734.1,534.3v1.7H730v10.9h-1.8V536h-4.1v-1.7H734.1z"/>
		<path class="st3" d="M739,534.3v12.6h-1.8v-12.6H739z"/>
		<path class="st3" d="M747.5,534c3,0,4.9,1.9,4.9,5.1v2.8c0,3.2-1.8,5.1-4.9,5.1s-4.9-1.9-4.9-5.1v-2.8
			C742.6,535.9,744.5,534,747.5,534z M744.4,542c0,2.2,1,3.5,3.1,3.5s3.1-1.2,3.1-3.5v-2.9c0-2.2-1-3.5-3.1-3.5s-3.1,1.2-3.1,3.5
			V542z"/>
		<path class="st3" d="M759.3,534.3l3.9,11h0.2v-11h1.8v12.6h-3.3l-3.9-11h-0.2v11H756v-12.6H759.3z"/>
	</g>
	<g id="blog">
		<path class="st5" d="M829.8,534.3c2.2,0,3.7,1.2,3.7,3.4c0,1.5-0.8,2.5-2.1,2.8v0.2c1.2,0.3,2.1,1.3,2.1,2.8
			c0,2.1-1.6,3.4-3.7,3.4h-5.2v-12.6L829.8,534.3L829.8,534.3z M826.4,539.7h3.3c1.3,0,2.1-0.7,2.1-1.9s-0.9-1.9-2.2-1.9h-3.2
			L826.4,539.7L826.4,539.7z M826.4,545.2h3.3c1.3,0,2.2-0.7,2.2-1.9s-0.8-1.9-2.1-1.9h-3.3v3.8L826.4,545.2L826.4,545.2z"/>
		<path class="st5" d="M838.9,534.3v10.9h6.2v1.7h-8v-12.6L838.9,534.3L838.9,534.3z"/>
		<path class="st5" d="M852.6,534c3,0,4.9,1.9,4.9,5.1v2.8c0,3.2-1.8,5.1-4.9,5.1s-4.9-1.9-4.9-5.1v-2.8
			C847.7,535.9,849.5,534,852.6,534z M849.5,542c0,2.2,1,3.5,3.1,3.5s3.1-1.2,3.1-3.5v-2.9c0-2.2-1-3.5-3.1-3.5s-3.1,1.2-3.1,3.5
			V542z"/>
		<path class="st5" d="M860.7,539.2c0-3.3,1.8-5.1,4.9-5.1c3,0,4.6,1.8,4.6,4.6v0.2h-1.8v-0.2c0-1.8-0.8-3-2.8-3s-3.1,1.2-3.1,3.4v3
			c0,2.2,1.1,3.4,3.1,3.4s2.8-1.2,2.8-3v-0.2H865v-1.6h5.2v1.9c0,2.8-1.6,4.6-4.6,4.6c-3.1,0-4.9-1.9-4.9-5.1V539.2z"/>
	</g>
	<g id="institution">
		<path class="st4" d="M931.5,534.3v12.6h-1.8v-12.6H931.5z"/>
		<path class="st4" d="M938.9,534.3l3.9,11h0.2v-11h1.8v12.6h-3.3l-3.9-11h-0.2v11h-1.8v-12.6H938.9z"/>
		<path class="st4" d="M957.5,538v0.6h-1.8v-0.4c0-1.6-1.2-2.5-2.8-2.5c-1.4,0-2.4,0.7-2.4,1.9s0.8,1.6,2.5,2l0.8,0.2
			c2.3,0.5,3.8,1.5,3.8,3.7c0,2.3-1.9,3.8-4.5,3.8c-3.1,0-5-1.8-5-4.6V542h1.8v0.4c0,2,1.2,3.1,3.2,3.1c1.7,0,2.7-0.9,2.7-2.1
			c0-1.2-0.8-1.7-2.4-2l-0.8-0.2c-2.3-0.5-3.9-1.3-3.9-3.7c0-2.1,1.9-3.5,4.2-3.5C955.5,534,957.5,535.4,957.5,538z"/>
		<path class="st4" d="M970,534.3v1.7h-4.1v10.9h-1.8V536H960v-1.7H970z"/>
		<path class="st4" d="M974.9,534.3v12.6h-1.8v-12.6H974.9z"/>
		<path class="st4" d="M987.9,534.3v1.7h-4.1v10.9H982V536h-4.1v-1.7H987.9z"/>
		<path class="st4" d="M992.8,534.3v8.4c0,1.9,1,2.8,2.9,2.8s2.9-1,2.9-2.8v-8.4h1.8v8.4c0,2.9-1.7,4.5-4.7,4.5s-4.7-1.6-4.7-4.5
			v-8.4H992.8z"/>
		<path class="st4" d="M1013.4,534.3v1.7h-4.1v10.9h-1.8V536h-4v-1.7H1013.4z"/>
		<path class="st4" d="M1018.3,534.3v12.6h-1.8v-12.6H1018.3z"/>
		<path class="st4" d="M1026.8,534c3,0,4.9,1.9,4.9,5.1v2.8c0,3.2-1.8,5.1-4.9,5.1s-4.9-1.9-4.9-5.1v-2.8
			C1021.9,535.9,1023.7,534,1026.8,534z M1023.7,542c0,2.2,1,3.5,3.1,3.5c2.1,0,3.1-1.2,3.1-3.5v-2.9c0-2.2-1-3.5-3.1-3.5
			s-3.1,1.2-3.1,3.5L1023.7,542L1023.7,542z"/>
		<path class="st4" d="M1038.6,534.3l3.9,11h0.2v-11h1.8v12.6h-3.3l-3.9-11h-0.2v11h-1.8v-12.6H1038.6z"/>
		<path class="st4" d="M1057.3,538v0.6h-1.8v-0.4c0-1.6-1.2-2.5-2.8-2.5c-1.4,0-2.4,0.7-2.4,1.9s0.8,1.6,2.5,2l0.8,0.2
			c2.3,0.5,3.8,1.5,3.8,3.7c0,2.3-1.9,3.8-4.5,3.8c-3.1,0-5-1.8-5-4.6V542h1.8v0.4c0,2,1.2,3.1,3.2,3.1c1.7,0,2.7-0.9,2.7-2.1
			c0-1.2-0.8-1.7-2.4-2l-0.8-0.2c-2.3-0.5-3.9-1.3-3.9-3.7c0-2.1,1.9-3.5,4.2-3.5C1055.3,534,1057.3,535.4,1057.3,538z"/>
	</g>
	<g id="reference">
		<path class="st6" d="M1113.1,541.7l2.8,5.2h-2l-2.7-5.1h-2.5v5.1h-1.8v-12.6h5.3c2.3,0,3.9,1.5,3.9,3.7
			C1116.2,539.9,1114.9,541.3,1113.1,541.7z M1108.8,540.1h3.3c1.5,0,2.3-0.7,2.3-2.1c0-1.3-0.8-2.1-2.3-2.1h-3.3V540.1z"/>
		<path class="st6" d="M1127.6,534.3v1.7h-6.3v3.8h5.8v1.7h-5.8v3.8h6.3v1.7h-8.1v-12.6h8.1V534.3z"/>
		<path class="st6" d="M1139,534.3v1.7h-6v3.8h5.7v1.7h-5.7v5.5h-1.8v-12.6h7.8V534.3z"/>
		<path class="st6" d="M1150.2,534.3v1.7h-6.3v3.8h5.8v1.7h-5.8v3.8h6.3v1.7h-8.1v-12.6h8.1V534.3z"/>
		<path class="st6" d="M1159.8,541.7l2.8,5.2h-2l-2.7-5.1h-2.5v5.1h-1.8v-12.6h5.3c2.3,0,3.9,1.5,3.9,3.7
			C1162.8,539.9,1161.6,541.3,1159.8,541.7z M1155.5,540.1h3.3c1.5,0,2.3-0.7,2.3-2.1c0-1.3-0.8-2.1-2.3-2.1h-3.3V540.1
			L1155.5,540.1z"/>
		<path class="st6" d="M1174.3,534.3v1.7h-6.3v3.8h5.8v1.7h-5.8v3.8h6.3v1.7h-8.1v-12.6h8.1V534.3z"/>
		<path class="st6" d="M1181.1,534.3l3.9,11h0.2v-11h1.8v12.6h-3.3l-3.9-11h-0.2v11h-1.8v-12.6H1181.1z"/>
		<path class="st6" d="M1195.6,534c3,0,4.7,1.8,4.7,4.5v0.3h-1.8v-0.3c0-1.7-0.9-3-2.9-3s-3.1,1.2-3.1,3.4v3c0,2.2,1.1,3.4,3.1,3.4
			s2.9-1.2,2.9-3V542h1.8v0.3c0,2.8-1.7,4.6-4.7,4.6c-3.1,0-4.9-1.9-4.9-5.1V539C1190.7,535.9,1192.5,534,1195.6,534z"/>
		<path class="st6" d="M1211.9,534.3v1.7h-6.3v3.8h5.8v1.7h-5.8v3.8h6.3v1.7h-8.1v-12.6h8.1V534.3z"/>
	</g>
	<g id="numbers">
		<path class="st9" d="M588.4,534.3v1.7h-6.6v4h0.2c0.5-0.9,1.3-1.5,3-1.5c2.2,0,3.8,1.7,3.8,4.2c0,2.6-1.9,4.6-4.6,4.6
			c-2.8,0-4.7-1.7-4.7-4.5v-0.2h1.8v0.2c0,1.7,1,2.9,2.9,2.9c1.8,0,2.8-1.2,2.8-2.9c0-1.6-1-2.6-2.4-2.6c-1.1,0-1.7,0.6-1.9,1H580
			v-6.8h8.4V534.3z"/>
		<path class="st9" d="M596.3,534c2.7,0,4.4,1.4,4.4,3.4c0,1.8-1.3,2.5-2.1,2.8v0.2c0.9,0.3,2.3,1.2,2.3,3.1c0,2.2-1.9,3.7-4.6,3.7
			c-2.7,0-4.6-1.5-4.6-3.7c0-1.9,1.4-2.8,2.3-3.1v-0.2c-0.9-0.3-2.1-1-2.1-2.8C591.9,535.4,593.6,534,596.3,534z M596.3,545.5
			c1.7,0,2.8-0.8,2.8-2.2c0-1.3-1.1-2.2-2.8-2.2s-2.8,0.8-2.8,2.2C593.5,544.6,594.6,545.5,596.3,545.5z M596.3,539.5
			c1.6,0,2.6-0.8,2.6-1.9s-1-1.9-2.6-1.9s-2.6,0.8-2.6,1.9S594.7,539.5,596.3,539.5z"/>
		<path class="st9" d="M781.3,534.3v12.6h-1.8V536h-0.2l-2.3,3.8h-2l3.5-5.5H781.3L781.3,534.3z"/>
		<path class="st9" d="M789.3,547.1c-2.5,0-4.5-1.7-4.5-4.3v-4.4c0-2.6,1.9-4.4,4.5-4.4s4.3,1.5,4.3,3.9h-1.8c0-1.4-0.8-2.3-2.5-2.3
			s-2.7,1.1-2.7,2.7v1.7h0.2c0.4-0.7,1.2-1.5,3-1.5c2.1,0,4,1.7,4,4.3S791.9,547.1,789.3,547.1z M786.7,542.8c0,1.6,1.1,2.7,2.7,2.7
			c1.6,0,2.7-1.1,2.7-2.7s-1.1-2.7-2.7-2.7S786.7,541.2,786.7,542.8z"/>
		<path class="st9" d="M885.8,534.3v12.6H884V536h-0.2l-2.3,3.8h-2l3.5-5.5H885.8L885.8,534.3z"/>
		<path class="st9" d="M894.1,534c2.8,0,4.7,1.9,4.7,5.1v2.8c0,3.2-1.8,5.1-4.7,5.1s-4.7-1.9-4.7-5.1v-2.8
			C889.4,535.9,891.2,534,894.1,534z M891.2,542c0,2.2,1,3.5,2.9,3.5s2.9-1.2,2.9-3.5v-2.9c0-2.2-1-3.5-2.9-3.5s-2.9,1.2-2.9,3.5
			V542z"/>
		<path class="st9" d="M1071.6,534c2.5,0,4.5,1.7,4.5,4.3v4.4c0,2.6-1.9,4.4-4.5,4.4s-4.3-1.5-4.3-3.9h1.8c0,1.4,0.8,2.3,2.5,2.3
			s2.7-1.1,2.7-2.7v-1.7h-0.2c-0.4,0.7-1.2,1.5-3,1.5c-2.1,0-4-1.7-4-4.3C1067.1,535.8,1069,534,1071.6,534z M1074.3,538.4
			c0-1.6-1.1-2.7-2.7-2.7s-2.7,1.1-2.7,2.7c0,1.6,1.1,2.7,2.7,2.7C1073.2,541.1,1074.3,540,1074.3,538.4z"/>
		<path class="st9" d="M1230.2,534.3v1.6l-4.9,11h-1.9l4.9-10.9h-7v-1.7L1230.2,534.3L1230.2,534.3z"/>
		<path class="st9" d="M1516.6,534c2.7,0,4.4,1.4,4.4,3.4c0,1.8-1.3,2.5-2.1,2.8v0.2c0.9,0.3,2.3,1.2,2.3,3.1c0,2.2-1.9,3.7-4.6,3.7
			s-4.6-1.5-4.6-3.7c0-1.9,1.4-2.8,2.3-3.1v-0.2c-0.9-0.3-2.1-1-2.1-2.8C1512.2,535.4,1514,534,1516.6,534z M1516.6,545.5
			c1.7,0,2.8-0.8,2.8-2.2c0-1.3-1.1-2.2-2.8-2.2c-1.7,0-2.8,0.8-2.8,2.2C1513.8,544.6,1514.9,545.5,1516.6,545.5z M1516.6,539.5
			c1.6,0,2.6-0.8,2.6-1.9s-1-1.9-2.6-1.9s-2.6,0.8-2.6,1.9S1515,539.5,1516.6,539.5z"/>
		<path class="st9" d="M1504.7,547.1c-2.5,0-4.5-1.7-4.5-4.3v-4.4c0-2.6,1.9-4.4,4.5-4.4s4.3,1.5,4.3,3.9h-1.8
			c0-1.4-0.8-2.3-2.5-2.3s-2.7,1.1-2.7,2.7v1.7h0.2c0.4-0.7,1.2-1.5,3-1.5c2.1,0,4,1.7,4,4.3S1507.3,547.1,1504.7,547.1z
			 M1502,542.8c0,1.6,1.1,2.7,2.7,2.7s2.7-1.1,2.7-2.7s-1.1-2.7-2.7-2.7S1502,541.2,1502,542.8z"/>
		<path class="st9" d="M1693.2,534.3v1.6l-3.7,3.2v0.2h0.5c1.9,0,3.5,1.4,3.5,3.7c0,2.4-2,4.1-4.5,4.1c-2.7,0-4.7-1.7-4.7-4.2v-0.8
			h1.8v0.7c0,1.6,1.1,2.7,2.9,2.7c1.7,0,2.7-1,2.7-2.5c0-1.4-1.1-2.3-2.4-2.3h-2V539l3.5-3.1h-6v-1.7L1693.2,534.3L1693.2,534.3z"/>
		<path class="st9" d="M1700.9,534c2.5,0,4.3,1.6,4.3,4.1c0,2.7-2,3.7-4.4,4.5c-1.8,0.6-2.7,1-2.7,2.4v0.2h6.9v1.7h-8.8v-1.6
			c0-2.4,1.5-3.3,3.7-4.1c2.1-0.7,3.4-1.4,3.4-3.1c0-1.5-1.1-2.3-2.5-2.3c-1.8,0-2.8,1-2.8,2.7v0.4h-1.8v-0.5
			C1696.3,535.7,1698.1,534,1700.9,534z"/>
	</g>
	<g id="woman">
		<path class="st1" d="M1334.1,534.3v1.7h-4.1v10.9h-1.8V536h-4.1v-1.7H1334.1z"/>
		<path class="st1" d="M1341.4,534c3,0,4.9,1.9,4.9,5.1v2.8c0,3.2-1.8,5.1-4.9,5.1s-4.9-1.9-4.9-5.1v-2.8
			C1336.5,535.9,1338.3,534,1341.4,534z M1338.3,542c0,2.2,1,3.5,3.1,3.5s3.1-1.2,3.1-3.5v-2.9c0-2.2-1-3.5-3.1-3.5
			s-3.1,1.2-3.1,3.5V542z"/>
		<path class="st1" d="M1350.9,534.3l1.4,11h0.2l1.9-11h2.9l1.9,11h0.2l1.4-11h1.8l-1.7,12.6h-3.1l-1.9-11h-0.2l-1.9,11h-3.1
			l-1.7-12.6H1350.9z"/>
		<path class="st1" d="M1371.4,534.3l3.9,12.6h-1.9l-0.9-3h-5.1l-0.9,3h-1.9l3.9-12.6H1371.4z M1372.1,542.2l-1.9-6.3h-0.2l-1.9,6.3
			H1372.1z"/>
		<path class="st1" d="M1384.6,541.7l2.8,5.2h-2l-2.7-5.1h-2.5v5.1h-1.8v-12.6h5.3c2.3,0,3.9,1.5,3.9,3.7
			C1387.6,539.9,1386.4,541.3,1384.6,541.7z M1380.2,540.1h3.3c1.5,0,2.3-0.7,2.3-2.1c0-1.3-0.8-2.1-2.3-2.1h-3.3V540.1z"/>
		<path class="st1" d="M1394.9,534.3c3.2,0,5.1,1.6,5.1,4.9v2.8c0,3.3-1.9,4.9-5.1,4.9h-3.9v-12.6L1394.9,534.3L1394.9,534.3z
			 M1392.8,545.2h2.1c2.2,0,3.3-1,3.3-3.3v-2.7c0-2.3-1.2-3.3-3.3-3.3h-2.1V545.2z"/>
		<path class="st1" d="M1412.2,538v0.6h-1.8v-0.4c0-1.6-1.2-2.5-2.8-2.5c-1.4,0-2.4,0.7-2.4,1.9s0.8,1.6,2.5,2l0.8,0.2
			c2.3,0.5,3.8,1.5,3.8,3.7c0,2.3-1.9,3.8-4.5,3.8c-3.1,0-5-1.8-5-4.6V542h1.8v0.4c0,2,1.2,3.1,3.2,3.1c1.7,0,2.7-0.9,2.7-2.1
			c0-1.2-0.8-1.7-2.4-2l-0.8-0.2c-2.2-0.5-3.9-1.3-3.9-3.7c0-2.1,1.9-3.5,4.2-3.5C1410.2,534,1412.2,535.4,1412.2,538z"/>
		<path class="st1" d="M1423.8,534.3l1.4,11h0.2l1.9-11h2.9l1.9,11h0.2l1.4-11h1.8l-1.7,12.6h-3.1l-1.9-11h-0.2l-1.9,11h-3.1
			l-1.7-12.6H1423.8z"/>
		<path class="st1" d="M1443.3,534c3,0,4.9,1.9,4.9,5.1v2.8c0,3.2-1.8,5.1-4.9,5.1s-4.9-1.9-4.9-5.1v-2.8
			C1438.4,535.9,1440.2,534,1443.3,534z M1440.2,542c0,2.2,1,3.5,3.1,3.5s3.1-1.2,3.1-3.5v-2.9c0-2.2-1-3.5-3.1-3.5
			s-3.1,1.2-3.1,3.5V542z"/>
		<path class="st1" d="M1455,534.3l3.2,10.7h0.2l3.2-10.7h3.2v12.6h-1.8v-10.7h-0.2l-3.2,10.7h-2.7l-3.2-10.7h-0.2v10.7h-1.8v-12.6
			H1455z"/>
		<path class="st1" d="M1477,534.3v1.7h-6.3v3.8h5.8v1.7h-5.8v3.8h6.3v1.7h-8.1v-12.6h8.1V534.3z"/>
		<path class="st1" d="M1483.8,534.3l3.9,11h0.2v-11h1.8v12.6h-3.3l-3.9-11h-0.2v11h-1.8v-12.6H1483.8z"/>
	</g>
	<g id="man">
		<g>
			<path class="st9" d="M1547.4,534.3v1.7h-4.1v10.9h-1.8V536h-4.1v-1.7H1547.4z"/>
			<path class="st9" d="M1554.7,534c3,0,4.9,1.9,4.9,5.1v2.8c0,3.2-1.8,5.1-4.9,5.1s-4.9-1.9-4.9-5.1v-2.8
				C1549.8,535.9,1551.6,534,1554.7,534z M1551.6,542c0,2.2,1,3.5,3.1,3.5s3.1-1.2,3.1-3.5v-2.9c0-2.2-1-3.5-3.1-3.5
				s-3.1,1.2-3.1,3.5V542z"/>
			<path class="st9" d="M1564.2,534.3l1.4,11h0.2l1.9-11h2.9l1.9,11h0.2l1.4-11h1.8l-1.7,12.6h-3.1l-1.9-11h-0.2l-1.9,11h-3.1
				l-1.7-12.6H1564.2z"/>
			<path class="st9" d="M1584.8,534.3l3.9,12.6h-1.9l-0.9-3h-5.1l-0.9,3h-1.9l3.9-12.6H1584.8z M1585.4,542.2l-1.9-6.3h-0.2
				l-1.9,6.3H1585.4z"/>
			<path class="st9" d="M1597.9,541.7l2.8,5.2h-2l-2.7-5.1h-2.5v5.1h-1.8v-12.6h5.3c2.3,0,3.9,1.5,3.9,3.7
				C1600.9,539.9,1599.7,541.3,1597.9,541.7z M1593.6,540.1h3.3c1.5,0,2.3-0.7,2.3-2.1c0-1.3-0.8-2.1-2.3-2.1h-3.3V540.1z"/>
			<path class="st9" d="M1608.2,534.3c3.2,0,5.1,1.6,5.1,4.9v2.8c0,3.3-1.9,4.9-5.1,4.9h-3.9v-12.6L1608.2,534.3L1608.2,534.3z
				 M1606.1,545.2h2.1c2.2,0,3.3-1,3.3-3.3v-2.7c0-2.3-1.2-3.3-3.3-3.3h-2.1V545.2z"/>
			<path class="st9" d="M1625.6,538v0.6h-1.8v-0.4c0-1.6-1.2-2.5-2.8-2.5c-1.4,0-2.4,0.7-2.4,1.9s0.8,1.6,2.5,2l0.8,0.2
				c2.3,0.5,3.8,1.5,3.8,3.7c0,2.3-1.9,3.8-4.5,3.8c-3.1,0-5-1.8-5-4.6V542h1.8v0.4c0,2,1.2,3.1,3.2,3.1c1.7,0,2.7-0.9,2.7-2.1
				c0-1.2-0.8-1.7-2.4-2l-0.8-0.2c-2.2-0.5-3.9-1.3-3.9-3.7c0-2.1,1.9-3.5,4.2-3.5C1623.6,534,1625.6,535.4,1625.6,538z"/>
			<path class="st9" d="M1639.3,534.3l3.2,10.7h0.2l3.2-10.7h3.2v12.6h-1.8v-10.7h-0.2l-3.2,10.7h-2.7l-3.2-10.7h-0.2v10.7h-1.8
				v-12.6H1639.3z"/>
			<path class="st9" d="M1661.3,534.3v1.7h-6.3v3.8h5.8v1.7h-5.8v3.8h6.3v1.7h-8.1v-12.6h8.1V534.3z"/>
			<path class="st9" d="M1668.1,534.3l3.9,11h0.2v-11h1.8v12.6h-3.3l-3.9-11h-0.2v11h-1.8v-12.6H1668.1z"/>
		</g>
		<g>
			<path class="st8" d="M1547.4,534.3v1.7h-4.1v10.9h-1.8V536h-4.1v-1.7H1547.4z"/>
			<path class="st8" d="M1554.7,534c3,0,4.9,1.9,4.9,5.1v2.8c0,3.2-1.8,5.1-4.9,5.1s-4.9-1.9-4.9-5.1v-2.8
				C1549.8,535.9,1551.6,534,1554.7,534z M1551.6,542c0,2.2,1,3.5,3.1,3.5s3.1-1.2,3.1-3.5v-2.9c0-2.2-1-3.5-3.1-3.5
				s-3.1,1.2-3.1,3.5V542z"/>
			<path class="st8" d="M1564.2,534.3l1.4,11h0.2l1.9-11h2.9l1.9,11h0.2l1.4-11h1.8l-1.7,12.6h-3.1l-1.9-11h-0.2l-1.9,11h-3.1
				l-1.7-12.6H1564.2z"/>
			<path class="st8" d="M1584.8,534.3l3.9,12.6h-1.9l-0.9-3h-5.1l-0.9,3h-1.9l3.9-12.6H1584.8z M1585.4,542.2l-1.9-6.3h-0.2
				l-1.9,6.3H1585.4z"/>
			<path class="st8" d="M1597.9,541.7l2.8,5.2h-2l-2.7-5.1h-2.5v5.1h-1.8v-12.6h5.3c2.3,0,3.9,1.5,3.9,3.7
				C1600.9,539.9,1599.7,541.3,1597.9,541.7z M1593.6,540.1h3.3c1.5,0,2.3-0.7,2.3-2.1c0-1.3-0.8-2.1-2.3-2.1h-3.3V540.1z"/>
			<path class="st8" d="M1608.2,534.3c3.2,0,5.1,1.6,5.1,4.9v2.8c0,3.3-1.9,4.9-5.1,4.9h-3.9v-12.6L1608.2,534.3L1608.2,534.3z
				 M1606.1,545.2h2.1c2.2,0,3.3-1,3.3-3.3v-2.7c0-2.3-1.2-3.3-3.3-3.3h-2.1V545.2z"/>
			<path class="st8" d="M1625.6,538v0.6h-1.8v-0.4c0-1.6-1.2-2.5-2.8-2.5c-1.4,0-2.4,0.7-2.4,1.9s0.8,1.6,2.5,2l0.8,0.2
				c2.3,0.5,3.8,1.5,3.8,3.7c0,2.3-1.9,3.8-4.5,3.8c-3.1,0-5-1.8-5-4.6V542h1.8v0.4c0,2,1.2,3.1,3.2,3.1c1.7,0,2.7-0.9,2.7-2.1
				c0-1.2-0.8-1.7-2.4-2l-0.8-0.2c-2.2-0.5-3.9-1.3-3.9-3.7c0-2.1,1.9-3.5,4.2-3.5C1623.6,534,1625.6,535.4,1625.6,538z"/>
			<path class="st8" d="M1639.3,534.3l3.2,10.7h0.2l3.2-10.7h3.2v12.6h-1.8v-10.7h-0.2l-3.2,10.7h-2.7l-3.2-10.7h-0.2v10.7h-1.8
				v-12.6H1639.3z"/>
			<path class="st8" d="M1661.3,534.3v1.7h-6.3v3.8h5.8v1.7h-5.8v3.8h6.3v1.7h-8.1v-12.6h8.1V534.3z"/>
			<path class="st8" d="M1668.1,534.3l3.9,11h0.2v-11h1.8v12.6h-3.3l-3.9-11h-0.2v11h-1.8v-12.6H1668.1z"/>
		</g>
	</g>
	<g id="other">
		<g>
			<path class="st10" d="M1730.5,583.8c3,0,4.9,1.9,4.9,5.1v2.8c0,3.2-1.8,5.1-4.9,5.1s-4.9-1.9-4.9-5.1V589
				C1725.6,585.7,1727.4,583.8,1730.5,583.8z M1727.4,591.8c0,2.2,1,3.5,3.1,3.5s3.1-1.2,3.1-3.5V589c0-2.2-1-3.5-3.1-3.5
				s-3.1,1.2-3.1,3.5V591.8z"/>
			<path class="st10" d="M1745.1,591.5l2.8,5.2h-2l-2.7-5.1h-2.5v5.1h-1.8v-12.6h5.3c2.3,0,3.9,1.5,3.9,3.7
				C1748.1,589.8,1746.9,591.1,1745.1,591.5z M1740.8,589.9h3.3c1.5,0,2.3-0.7,2.3-2.1s-0.8-2.1-2.3-2.1h-3.3V589.9z"/>
			<path class="st10" d="M1753.3,584.1v12.6h-1.8v-12.6H1753.3z"/>
			<path class="st10" d="M1765.4,584.1v1.7h-6.3v3.8h5.8v1.7h-5.8v3.8h6.3v1.7h-8.1v-12.6h8.1V584.1z"/>
			<path class="st10" d="M1772.2,584.1l3.9,11h0.2v-11h1.8v12.6h-3.3l-3.9-11h-0.2v11h-1.8v-12.6H1772.2z"/>
			<path class="st10" d="M1791.2,584.1v1.7h-4.1v10.9h-1.8v-10.9h-4.1v-1.7H1791.2z"/>
			<path class="st10" d="M1799,584.1l3.9,12.6h-1.9l-0.9-3h-5.1l-0.9,3h-1.9l3.9-12.6H1799z M1799.7,592l-1.9-6.3h-0.2l-1.9,6.3
				H1799.7z"/>
			<path class="st10" d="M1814,584.1v1.7h-4.1v10.9h-1.8v-10.9h-4.1v-1.7H1814z"/>
			<path class="st10" d="M1818.9,584.1v12.6h-1.8v-12.6H1818.9z"/>
			<path class="st10" d="M1827.3,583.8c3,0,4.9,1.9,4.9,5.1v2.8c0,3.2-1.8,5.1-4.9,5.1s-4.9-1.9-4.9-5.1V589
				C1822.5,585.7,1824.3,583.8,1827.3,583.8z M1824.3,591.8c0,2.2,1,3.5,3.1,3.5s3.1-1.2,3.1-3.5V589c0-2.2-1-3.5-3.1-3.5
				s-3.1,1.2-3.1,3.5V591.8z"/>
			<path class="st10" d="M1839.2,584.1l3.9,11h0.2v-11h1.8v12.6h-3.3l-3.9-11h-0.2v11h-1.8v-12.6H1839.2z"/>
		</g>
		<g>
			<path class="st10" d="M1730.5,483.9c3,0,4.9,1.9,4.9,5.1v2.8c0,3.2-1.8,5.1-4.9,5.1s-4.9-1.9-4.9-5.1V489
				C1725.6,485.8,1727.4,483.9,1730.5,483.9z M1727.4,491.9c0,2.2,1,3.5,3.1,3.5s3.1-1.2,3.1-3.5V489c0-2.2-1-3.5-3.1-3.5
				s-3.1,1.2-3.1,3.5V491.9z"/>
			<path class="st10" d="M1745.1,491.5l2.8,5.2h-2l-2.7-5.1h-2.5v5.1h-1.8v-12.6h5.3c2.3,0,3.9,1.5,3.9,3.7
				C1748.1,489.8,1746.9,491.2,1745.1,491.5z M1740.8,490h3.3c1.5,0,2.3-0.7,2.3-2.1c0-1.3-0.8-2.1-2.3-2.1h-3.3V490z"/>
			<path class="st10" d="M1753.3,484.2v12.6h-1.8v-12.6H1753.3z"/>
			<path class="st10" d="M1765.4,484.2v1.7h-6.3v3.8h5.8v1.7h-5.8v3.8h6.3v1.7h-8.1v-12.6h8.1V484.2z"/>
			<path class="st10" d="M1772.2,484.2l3.9,11h0.2v-11h1.8v12.6h-3.3l-3.9-11h-0.2v11h-1.8v-12.6H1772.2z"/>
			<path class="st10" d="M1791.2,484.2v1.7h-4.1v10.9h-1.8v-10.9h-4.1v-1.7H1791.2z"/>
			<path class="st10" d="M1799,484.2l3.9,12.6h-1.9l-0.9-3h-5.1l-0.9,3h-1.9l3.9-12.6H1799z M1799.7,492.1l-1.9-6.3h-0.2l-1.9,6.3
				H1799.7z"/>
			<path class="st10" d="M1814,484.2v1.7h-4.1v10.9h-1.8v-10.9h-4.1v-1.7H1814z"/>
			<path class="st10" d="M1818.9,484.2v12.6h-1.8v-12.6H1818.9z"/>
			<path class="st10" d="M1827.3,483.9c3,0,4.9,1.9,4.9,5.1v2.8c0,3.2-1.8,5.1-4.9,5.1s-4.9-1.9-4.9-5.1V489
				C1822.5,485.8,1824.3,483.9,1827.3,483.9z M1824.3,491.9c0,2.2,1,3.5,3.1,3.5s3.1-1.2,3.1-3.5V489c0-2.2-1-3.5-3.1-3.5
				s-3.1,1.2-3.1,3.5V491.9z"/>
			<path class="st10" d="M1839.2,484.2l3.9,11h0.2v-11h1.8v12.6h-3.3l-3.9-11h-0.2v11h-1.8v-12.6H1839.2z"/>
		</g>
		<g>
			<line class="st11" x1="1845.1" y1="540" x2="1724.9" y2="540"/>
		</g>
		<line class="st11" x1="76.7" y1="540" x2="483.6" y2="540"/>
	</g>
</g>
<g id="title">
	<g>
		<path class="st10" d="M86.9,623.6v2.8c0,2.9-1.5,4.8-4,5.1v0.8c0,0.4,0.2,0.5,0.5,0.5h1v1.6h-1.8c-0.9,0-1.5-0.6-1.5-1.5v-1.4
			c-2.5-0.3-4-2.2-4-5.1v-2.8c0-3.2,1.8-5.1,4.9-5.1C85,618.4,86.9,620.3,86.9,623.6z M85.1,623.5c0-2.2-1-3.5-3.1-3.5
			s-3.1,1.2-3.1,3.5v2.9c0,2.2,1,3.5,3.1,3.5s3.1-1.2,3.1-3.5V623.5z"/>
		<path class="st10" d="M92.3,618.7v8.4c0,1.9,1,2.8,2.9,2.8s2.9-1,2.9-2.8v-8.4h1.8v8.4c0,2.9-1.7,4.5-4.7,4.5s-4.7-1.6-4.7-4.5
			v-8.4H92.3z"/>
		<path class="st10" d="M112,618.7v1.7h-6.3v3.8h5.8v1.7h-5.8v3.8h6.3v1.7h-8.1v-12.6h8.1V618.7z"/>
		<path class="st10" d="M121.6,626.1l2.8,5.2h-2l-2.7-5.1h-2.5v5.1h-1.8v-12.6h5.3c2.3,0,3.9,1.5,3.9,3.7
			C124.7,624.3,123.4,625.7,121.6,626.1z M117.3,624.5h3.3c1.5,0,2.3-0.7,2.3-2.1s-0.8-2.1-2.3-2.1h-3.3V624.5z"/>
		<path class="st10" d="M128.8,618.7l3.2,5.9h0.2l3.2-5.9h2.1l-4.4,7.9v4.7h-1.8v-4.7l-4.4-7.9H128.8z"/>
		<path class="st10" d="M151.6,618.4c2.5,0,4.3,1.6,4.3,4.1c0,2.7-2,3.7-4.4,4.5c-1.8,0.6-2.7,1-2.7,2.4v0.2h6.9v1.7h-8.8v-1.6
			c0-2.4,1.5-3.3,3.7-4.1c2.1-0.7,3.4-1.4,3.4-3.1c0-1.5-1.1-2.3-2.5-2.3c-1.8,0-2.8,1-2.8,2.7v0.4h-1.8v-0.5
			C147,620.1,148.9,618.4,151.6,618.4z"/>
		<path class="st10" d="M81.4,578.9v9.1h9.1v-9.1h3v21h-3v-9.1h-9.1v9.1h-3v-21H81.4z"/>
		<path class="st10" d="M110,578.9l6.6,21h-3.2l-1.5-5h-8.5l-1.5,5h-3.2l6.6-21H110z M111,592.1l-3.2-10.6h-0.4l-3.2,10.6H111z"/>
		<path class="st10" d="M134.8,578.9v2.8H128v18.2h-3v-18.2h-6.8v-2.8H134.8z"/>
		<path class="st10" d="M153.4,578.9v2.8H143v6.3h9.6v2.8H143v6.4h10.6v2.8H140v-21L153.4,578.9L153.4,578.9z"/>
		<path class="st10" d="M180.4,578.9l6.6,21h-3.2l-1.5-5h-8.5l-1.5,5h-3.2l6.6-21H180.4z M181.5,592.1l-3.2-10.6h-0.4l-3.2,10.6
			H181.5z"/>
		<path class="st10" d="M190.9,587c0-5.5,3.1-8.6,8.2-8.6c5,0,7.7,3.1,7.7,7.7v0.3h-3v-0.3c0-3-1.4-4.9-4.7-4.9s-5.2,2-5.2,5.7v4.9
			c0,3.7,1.9,5.7,5.2,5.7s4.7-2,4.7-4.9v-0.4h-5.7v-2.7h8.7v3.1c0,4.7-2.7,7.7-7.7,7.7c-5.1,0-8.2-3.1-8.2-8.6V587z"/>
		<path class="st10" d="M222,578.9l6.6,21h-3.2l-1.5-5h-8.5l-1.5,5h-3.2l6.6-21H222z M223.1,592.1l-3.2-10.6h-0.4l-3.2,10.6H223.1z"
			/>
		<path class="st10" d="M236.7,578.9v21h-3v-21H236.7z"/>
		<path class="st10" d="M249,578.9l6.5,18.3h0.4v-18.3h3v21h-5.6l-6.5-18.3h-0.4v18.3h-3v-21H249z"/>
		<path class="st10" d="M280,585.1v1h-3v-0.7c0-2.7-1.9-4.1-4.7-4.1c-2.3,0-4,1.2-4,3.1c0,1.9,1.3,2.7,4.2,3.3l1.4,0.3
			c3.9,0.8,6.3,2.5,6.3,6.1c0,3.9-3.2,6.3-7.5,6.3c-5.1,0-8.3-3-8.3-7.6v-1h3v0.7c0,3.3,1.9,5.2,5.4,5.2c2.8,0,4.5-1.5,4.5-3.5
			s-1.3-2.8-4-3.4l-1.4-0.3c-3.8-0.8-6.5-2.2-6.5-6.1c0-3.6,3.1-5.8,7-5.8C276.7,578.5,280,580.8,280,585.1z"/>
		<path class="st10" d="M300.8,578.9v2.8H294v18.2h-3v-18.2h-6.8v-2.8H300.8z"/>
		<path class="st10" d="M323.8,578.9l4.4,16.9h0.4l4.4-16.9h6.8v21H336v-16.8h-0.4l-4.3,16.8h-5.8l-4.3-16.8h-0.4v16.8H317v-21
			H323.8z"/>
		<path class="st10" d="M359.5,578.9v3.6h-9.8v5h9v3.6h-9v5.2h10v3.6h-14v-21L359.5,578.9L359.5,578.9z"/>
		<path class="st10" d="M371.7,578.9l4.8,17.3h0.4v-17.3h4v21h-7l-4.8-17.3h-0.4v17.3h-4v-21H371.7z"/>
		<path class="st8" d="M184.8,618.1v1.7h-6.6v4h0.2c0.5-0.9,1.3-1.5,3-1.5c2.2,0,3.8,1.7,3.8,4.2c0,2.6-1.9,4.6-4.6,4.6
			c-2.8,0-4.7-1.7-4.7-4.5v-0.2h1.8v0.2c0,1.7,1,2.9,2.9,2.9c1.8,0,2.8-1.2,2.8-2.9c0-1.6-1-2.6-2.4-2.6c-1.1,0-1.7,0.6-1.9,1h-2.7
			v-6.8L184.8,618.1L184.8,618.1z"/>
		<path class="st8" d="M192.9,617.8c2.8,0,4.7,1.9,4.7,5.1v2.8c0,3.2-1.8,5.1-4.7,5.1s-4.7-1.9-4.7-5.1v-2.8
			C188.2,619.7,190,617.8,192.9,617.8z M190,625.8c0,2.2,1,3.5,2.9,3.5s2.9-1.2,2.9-3.5v-2.9c0-2.2-1-3.5-2.9-3.5s-2.9,1.2-2.9,3.5
			V625.8z"/>
		<path class="st8" d="M214.2,625.5l2.8,5.2h-2l-2.7-5.1h-2.5v5.1H208v-12.6h5.3c2.3,0,3.9,1.5,3.9,3.7
			C217.2,623.7,216,625.1,214.2,625.5z M209.8,623.9h3.3c1.5,0,2.3-0.7,2.3-2.1c0-1.3-0.8-2.1-2.3-2.1h-3.3V623.9z"/>
		<path class="st8" d="M228.6,618.1v1.7h-6.3v3.8h5.8v1.7h-5.8v3.8h6.3v1.7h-8.1v-12.6L228.6,618.1L228.6,618.1z"/>
		<path class="st8" d="M240.8,621.8v0.6H239V622c0-1.6-1.2-2.5-2.8-2.5c-1.4,0-2.4,0.7-2.4,1.9s0.8,1.6,2.5,2l0.8,0.2
			c2.3,0.5,3.8,1.5,3.8,3.7c0,2.3-1.9,3.8-4.5,3.8c-3.1,0-5-1.8-5-4.6v-0.6h1.8v0.4c0,2,1.2,3.1,3.2,3.1c1.7,0,2.7-0.9,2.7-2.1
			s-0.8-1.7-2.4-2l-0.8-0.2c-2.3-0.5-3.9-1.3-3.9-3.7c0-2.1,1.9-3.5,4.2-3.5C238.8,617.8,240.8,619.2,240.8,621.8z"/>
		<path class="st8" d="M246.2,618.1v8.4c0,1.9,1,2.8,2.9,2.8s2.9-1,2.9-2.8v-8.4h1.8v8.4c0,2.9-1.7,4.5-4.7,4.5s-4.7-1.6-4.7-4.5
			v-8.4H246.2z"/>
		<path class="st8" d="M259.7,618.1V629h6.2v1.7h-8v-12.6L259.7,618.1L259.7,618.1z"/>
		<path class="st8" d="M275.8,618.1v1.7h-4.1v10.9h-1.8v-10.9h-4v-1.7H275.8L275.8,618.1z"/>
		<path class="st8" d="M287.2,621.8v0.6h-1.8V622c0-1.6-1.2-2.5-2.8-2.5c-1.4,0-2.4,0.7-2.4,1.9s0.8,1.6,2.5,2l0.8,0.2
			c2.3,0.5,3.8,1.5,3.8,3.7c0,2.3-1.9,3.8-4.5,3.8c-3.1,0-5-1.8-5-4.6v-0.6h1.8v0.4c0,2,1.2,3.1,3.2,3.1c1.7,0,2.7-0.9,2.7-2.1
			s-0.8-1.7-2.4-2l-0.8-0.2c-2.3-0.5-3.9-1.3-3.9-3.7c0-2.1,1.9-3.5,4.2-3.5C285.2,617.8,287.2,619.2,287.2,621.8z"/>
	</g>
	<g>
		<path class="st10" d="M86.6,456.1v2.8c0,2.9-1.5,4.8-4,5.1v0.8c0,0.4,0.2,0.5,0.5,0.5h1v1.6h-1.8c-0.9,0-1.5-0.6-1.5-1.5V464
			c-2.5-0.3-4-2.2-4-5.1v-2.8c0-3.2,1.8-5.1,4.9-5.1C84.7,451,86.6,452.9,86.6,456.1z M84.8,456.1c0-2.2-1-3.5-3.1-3.5
			s-3.1,1.2-3.1,3.5v2.9c0,2.2,1,3.5,3.1,3.5s3.1-1.2,3.1-3.5V456.1z"/>
		<path class="st10" d="M92,451.2v8.4c0,1.9,1,2.8,2.9,2.8s2.9-1,2.9-2.8v-8.4h1.8v8.4c0,2.9-1.7,4.5-4.7,4.5s-4.7-1.6-4.7-4.5v-8.4
			H92z"/>
		<path class="st10" d="M111.7,451.2v1.7h-6.3v3.8h5.8v1.7h-5.8v3.8h6.3v1.7h-8.1v-12.7H111.7z"/>
		<path class="st10" d="M121.3,458.6l2.8,5.2h-2l-2.7-5.1H117v5.1h-1.8v-12.6h5.3c2.3,0,3.9,1.5,3.9,3.7
			C124.4,456.9,123.1,458.2,121.3,458.6z M117,457h3.3c1.5,0,2.3-0.7,2.3-2.1c0-1.3-0.8-2.1-2.3-2.1H117V457z"/>
		<path class="st10" d="M128.5,451.2l3.2,5.9h0.2l3.2-5.9h2.1l-4.4,7.9v4.7H131v-4.7l-4.4-7.9H128.5z"/>
		<path class="st10" d="M155.8,451.2v12.6H154v-10.9h-0.2l-2.3,3.8h-2l3.5-5.5H155.8z"/>
		<path class="st10" d="M81.1,478.8v9.1h9.1v-9.1h3v21h-3v-9.1h-9.1v9.1h-3v-21H81.1z"/>
		<path class="st10" d="M109.7,478.8l6.6,21h-3.2l-1.5-5h-8.5l-1.5,5h-3.2l6.6-21H109.7z M110.7,492l-3.2-10.6h-0.4l-3.2,10.6H110.7
			z"/>
		<path class="st10" d="M134.5,478.8v2.8h-6.8v18.2h-3v-18.2H118v-2.8H134.5z"/>
		<path class="st10" d="M153.1,478.8v2.8h-10.4v6.3h9.6v2.8h-9.6v6.4h10.6v2.8h-13.6v-21L153.1,478.8L153.1,478.8z"/>
		<path class="st10" d="M180.1,478.8l6.6,21h-3.2l-1.5-5h-8.5l-1.5,5h-3.2l6.6-21H180.1z M181.2,492l-3.2-10.6h-0.4l-3.2,10.6H181.2
			z"/>
		<path class="st10" d="M190.6,487c0-5.5,3.1-8.6,8.2-8.6c5,0,7.7,3.1,7.7,7.7v0.3h-3v-0.3c0-3-1.4-4.9-4.7-4.9s-5.2,2-5.2,5.7v4.9
			c0,3.7,1.9,5.7,5.2,5.7s4.7-2,4.7-4.9v-0.4h-5.7v-2.7h8.7v3.1c0,4.7-2.7,7.7-7.7,7.7c-5.1,0-8.2-3.1-8.2-8.6V487z"/>
		<path class="st10" d="M221.8,478.8l6.6,21h-3.2l-1.5-5h-8.5l-1.5,5h-3.2l6.6-21H221.8z M222.8,492l-3.2-10.6h-0.4L216,492H222.8z"
			/>
		<path class="st10" d="M236.4,478.8v21h-3v-21H236.4z"/>
		<path class="st10" d="M248.7,478.8l6.5,18.3h0.4v-18.3h3v21H253l-6.5-18.3h-0.4v18.3h-3v-21H248.7z"/>
		<path class="st10" d="M279.7,485v1h-3v-0.7c0-2.7-1.9-4.1-4.7-4.1c-2.3,0-4,1.2-4,3.1s1.3,2.7,4.2,3.3l1.4,0.3
			c3.9,0.8,6.3,2.5,6.3,6.1c0,3.9-3.2,6.3-7.5,6.3c-5.1,0-8.3-3-8.3-7.6v-1h3v0.7c0,3.3,1.9,5.2,5.4,5.2c2.8,0,4.5-1.5,4.5-3.5
			s-1.3-2.8-4-3.4l-1.4-0.3c-3.8-0.8-6.5-2.2-6.5-6.1c0-3.6,3.1-5.8,7-5.8C276.4,478.4,279.7,480.7,279.7,485z"/>
		<path class="st10" d="M300.5,478.8v2.8h-6.8v18.2h-3v-18.2h-6.8v-2.8H300.5z"/>
		<path class="st10" d="M319.2,478.8l2.5,17.2h0.4l3.2-17.2h6.2l3.2,17.2h0.4l2.5-17.2h4l-3.3,21h-6.4l-3.4-17.2h-0.4l-3.2,17.2
			h-6.4l-3.3-21H319.2z"/>
		<path class="st10" d="M353.7,478.4c5.4,0,8.6,3.3,8.6,8.7v4.4c0,5.5-3.3,8.7-8.6,8.7s-8.6-3.2-8.6-8.7v-4.4
			C345.1,481.7,348.3,478.4,353.7,478.4z M349,491.7c0,3,1.5,5,4.7,5c3.3,0,4.7-2.1,4.7-5v-4.8c0-3-1.7-5-4.7-5s-4.7,2.1-4.7,5
			V491.7z"/>
		<path class="st10" d="M374.2,478.8l4.4,16.9h0.4l4.4-16.9h6.8v21h-3.8V483H386l-4.3,16.8h-5.8l-4.3-16.8h-0.4v16.8h-3.8v-21H374.2
			z"/>
		<path class="st10" d="M410,478.8v3.6h-9.8v5h9v3.6h-9v5.2h10v3.6h-14v-21C396.2,478.8,410,478.8,410,478.8z"/>
		<path class="st10" d="M422.2,478.8l4.8,17.3h0.4v-17.3h4v21h-7l-4.8-17.3h-0.4v17.3h-4v-21H422.2z"/>
	</g>
	<line class="st12" x1="315.2" y1="506.6" x2="431.2" y2="506.6"/>
	<line class="st12" x1="316.9" y1="606.8" x2="380.9" y2="606.8"/>
	<path class="st8" d="M184.5,451.5v1.7h-6.6v4h0.2c0.5-0.9,1.3-1.5,3-1.5c2.2,0,3.8,1.7,3.8,4.2c0,2.6-1.9,4.6-4.6,4.6
		c-2.8,0-4.7-1.7-4.7-4.5v-0.2h1.8v0.2c0,1.7,1,2.9,2.9,2.9c1.8,0,2.8-1.2,2.8-2.9c0-1.6-1-2.6-2.4-2.6c-1.1,0-1.7,0.6-1.9,1h-2.7
		v-6.8L184.5,451.5L184.5,451.5z"/>
	<path class="st8" d="M192.6,451.2c2.8,0,4.7,1.9,4.7,5.1v2.8c0,3.2-1.8,5.1-4.7,5.1s-4.7-1.9-4.7-5.1v-2.8
		C187.9,453.1,189.7,451.2,192.6,451.2z M189.7,459.2c0,2.2,1,3.5,2.9,3.5s2.9-1.2,2.9-3.5v-2.9c0-2.2-1-3.5-2.9-3.5
		s-2.9,1.2-2.9,3.5V459.2z"/>
	<path class="st8" d="M213.9,458.9l2.8,5.2h-2L212,459h-2.5v5.1h-1.8v-12.6h5.3c2.3,0,3.9,1.5,3.9,3.7
		C216.9,457.1,215.7,458.5,213.9,458.9z M209.5,457.3h3.3c1.5,0,2.3-0.7,2.3-2.1c0-1.3-0.8-2.1-2.3-2.1h-3.3V457.3z"/>
	<path class="st8" d="M228.3,451.5v1.7H222v3.8h5.8v1.7H222v3.8h6.3v1.7h-8.1v-12.6L228.3,451.5L228.3,451.5z"/>
	<path class="st8" d="M240.5,455.2v0.6h-1.8v-0.4c0-1.6-1.2-2.5-2.8-2.5c-1.4,0-2.4,0.7-2.4,1.9s0.8,1.6,2.5,2l0.8,0.2
		c2.3,0.5,3.8,1.5,3.8,3.7c0,2.3-1.9,3.8-4.5,3.8c-3.1,0-5-1.8-5-4.6v-0.6h1.8v0.4c0,2,1.2,3.1,3.2,3.1c1.7,0,2.7-0.9,2.7-2.1
		s-0.8-1.7-2.4-2l-0.8-0.2c-2.3-0.5-3.9-1.3-3.9-3.7c0-2.1,1.9-3.5,4.2-3.5C238.5,451.2,240.5,452.6,240.5,455.2z"/>
	<path class="st8" d="M245.9,451.5v8.4c0,1.9,1,2.8,2.9,2.8s2.9-1,2.9-2.8v-8.4h1.8v8.4c0,2.9-1.7,4.5-4.7,4.5s-4.7-1.6-4.7-4.5
		v-8.4H245.9z"/>
	<path class="st8" d="M259.4,451.5v10.9h6.2v1.7h-8v-12.6H259.4z"/>
	<path class="st8" d="M275.5,451.5v1.7h-4.1v10.9h-1.8v-10.9h-4v-1.7H275.5L275.5,451.5z"/>
	<path class="st8" d="M286.9,455.2v0.6h-1.8v-0.4c0-1.6-1.2-2.5-2.8-2.5c-1.4,0-2.4,0.7-2.4,1.9s0.8,1.6,2.5,2l0.8,0.2
		c2.3,0.5,3.8,1.5,3.8,3.7c0,2.3-1.9,3.8-4.5,3.8c-3.1,0-5-1.8-5-4.6v-0.6h1.8v0.4c0,2,1.2,3.1,3.2,3.1c1.7,0,2.7-0.9,2.7-2.1
		s-0.8-1.7-2.4-2l-0.8-0.2c-2.3-0.5-3.9-1.3-3.9-3.7c0-2.1,1.9-3.5,4.2-3.5C284.9,451.2,286.9,452.6,286.9,455.2z"/>
</g>
</svg>
