<?xml version="1.0" encoding="utf-8"?>
<!-- Generator: Adobe Illustrator 23.0.1, SVG Export Plug-In . SVG Version: 6.00 Build 0)  -->
<svg version="1.1" id="Livello_1" xmlns="http://www.w3.org/2000/svg" xmlns:xlink="http://www.w3.org/1999/xlink" x="0px" y="0px"
	 viewBox="0 0 1920 701.5" style="enable-background:new 0 0 1920 701.5;" xml:space="preserve">
<style type="text/css">
	.st0{fill:#1A2029;}
	.st1{fill:#9D77FC;}
	.st2{fill:#FFFFFF;}
	.st3{fill:none;stroke:#58626B;stroke-width:2;stroke-linecap:round;stroke-miterlimit:10;}
	.st4{fill:none;stroke:#58626B;stroke-width:2;stroke-linecap:round;stroke-miterlimit:10;stroke-dasharray:0,10.1608;}
	.st5{opacity:0.5;}
	.st6{fill:#30D840;}
	.st7{fill:#F2D51E;}
	.st8{fill:none;stroke:#58626B;stroke-width:2;stroke-linecap:round;stroke-miterlimit:10;stroke-dasharray:0,10.0754;}
	.st9{fill:#4A74FF;}
	.st10{fill:none;stroke:#58626B;stroke-width:2;stroke-linecap:round;stroke-miterlimit:10;stroke-dasharray:0,9.9154;}
	.st11{fill:#FF3603;}
	.st12{fill:none;stroke:#58626B;stroke-width:2;stroke-linecap:round;stroke-miterlimit:10;stroke-dasharray:0,8.6054;}
	.st13{fill:none;stroke:#FFFFFF;stroke-width:2;stroke-miterlimit:10;}
</style>
<g id="bg">
	<g>
		<rect class="st0" width="1920" height="701.5"/>
	</g>
</g>
<g id="subreddit">
	<g>
		<g>
			<rect x="629.8" y="540.8" class="st1" width="13.2" height="88.6"/>
			<g>
				<path class="st2" d="M561.1,576.8c2.7,0,4.7,1.8,4.7,4.4c0,2.9-2.2,4-4.8,4.9c-1.9,0.6-2.9,1.1-2.9,2.7v0.2h7.5v1.8h-9.5V589
					c0-2.6,1.6-3.6,4.1-4.4c2.3-0.7,3.7-1.5,3.7-3.4c0-1.6-1.2-2.5-2.7-2.5c-2,0-3.1,1.1-3.1,3v0.4h-2v-0.5
					C556.1,578.6,558.1,576.8,561.1,576.8z"/>
				<path class="st2" d="M577.6,577v1.7l-5.3,11.9h-2.1l5.3-11.9H568V577H577.6z"/>
				<path class="st2" d="M581.7,587.9c0.8,0,1.5,0.7,1.5,1.5s-0.7,1.5-1.5,1.5s-1.5-0.7-1.5-1.5S580.8,587.9,581.7,587.9z"/>
				<path class="st2" d="M595.8,577v1.8h-7.2v4.3h0.2c0.6-0.9,1.4-1.7,3.2-1.7c2.3,0,4.1,1.8,4.1,4.5c0,2.8-2,5-5,5S586,589,586,586
					v-0.2h2v0.2c0,1.9,1.1,3.1,3.1,3.1c1.9,0,3-1.2,3-3.2c0-1.8-1.1-2.8-2.6-2.8c-1.2,0-1.8,0.7-2,1.1h-3V577H595.8z"/>
				<path class="st2" d="M604.1,576.8c3.1,0,5.1,2.1,5.1,5.6v3c0,3.5-2,5.6-5.1,5.6s-5.1-2.1-5.1-5.6v-3
					C599,578.8,601,576.8,604.1,576.8z M601,585.4c0,2.4,1.1,3.7,3.2,3.7c2.1,0,3.2-1.3,3.2-3.7v-3.1c0-2.4-1.1-3.7-3.2-3.7
					c-2.1,0-3.2,1.3-3.2,3.7V585.4z"/>
				<path class="st2" d="M617.4,576.8c3.1,0,5.1,2.1,5.1,5.6v3c0,3.5-2,5.6-5.1,5.6s-5.1-2.1-5.1-5.6v-3
					C612.3,578.8,614.2,576.8,617.4,576.8z M614.2,585.4c0,2.4,1.1,3.7,3.2,3.7c2.1,0,3.2-1.3,3.2-3.7v-3.1c0-2.4-1.1-3.7-3.2-3.7
					c-2.1,0-3.2,1.3-3.2,3.7V585.4z"/>
			</g>
			<g>
				<path class="st1" d="M86.6,576.6l-5.7,17.6h-2.2l5.7-17.6H86.6z"/>
				<path class="st1" d="M91.6,582.1h0.3c0.4-1.1,1.2-1.5,2.5-1.5h1v2h-1.6c-1.3,0-2.1,0.7-2.1,2.1v5.6h-2.1v-9.6h2.1v1.4H91.6z"/>
				<path class="st1" d="M105.1,576.6l-5.7,17.6h-2.2l5.7-17.6H105.1z"/>
				<path class="st1" d="M115.2,584.8l2.9,5.5h-2.5l-2.7-5.3h-2.5v5.3h-2.3v-13.7h5.9c2.5,0,4.3,1.7,4.3,4.2
					C118.3,582.9,117,584.4,115.2,584.8z M110.4,582.9h3.4c1.4,0,2.3-0.8,2.3-2.1s-0.8-2.1-2.3-2.1h-3.4V582.9z"/>
				<path class="st1" d="M125.1,580.4c2.8,0,4.7,2,4.7,4.9v0.9h-7.3c0.1,1.5,1.2,2.6,2.7,2.6c1.4,0,2.1-0.7,2.6-1.6l1.8,1
					c-0.7,1.1-1.9,2.4-4.3,2.4c-2.9,0-5-2.2-5-5.2C120.3,582.5,122.3,580.4,125.1,580.4z M127.6,584.6c-0.1-1.5-1-2.4-2.5-2.4
					s-2.4,0.9-2.6,2.4H127.6z"/>
				<path class="st1" d="M141.8,590.3h-2.1v-1.4h-0.3c-0.5,0.9-1.4,1.7-3.2,1.7c-2.5,0-4.5-2.1-4.5-5.1s2-5.1,4.5-5.1
					c1.8,0,2.7,0.9,3.2,1.7h0.2v-5.5h2.1v13.7H141.8z M133.9,585.5c0,2,1.2,3.2,2.9,3.2s2.8-1.2,2.8-3.2s-1.2-3.2-2.8-3.2
					C135.1,582.3,133.9,583.4,133.9,585.5z"/>
				<path class="st1" d="M150.5,576.6c2.5,0,4.3,1.7,4.3,4.2s-1.8,4.2-4.3,4.2h-3.2v5.2H145v-13.7L150.5,576.6L150.5,576.6z
					 M147.3,583h3c1.4,0,2.3-0.8,2.3-2.1s-0.8-2.1-2.3-2.1h-3V583z"/>
				<path class="st1" d="M158.3,576.2c0.9,0,1.6,0.6,1.6,1.6c0,0.9-0.7,1.6-1.6,1.6c-0.9,0-1.6-0.7-1.6-1.6
					C156.6,576.9,157.4,576.2,158.3,576.2z M159.3,590.3h-2.1v-9.6h2.1V590.3z"/>
				<path class="st1" d="M164.7,590.3h-2.1v-13.7h2.1V590.3z"/>
				<path class="st1" d="M170.1,590.3H168v-13.7h2.1V590.3z"/>
				<path class="st1" d="M174.8,576.6l1.6,11.5h0.2l2.1-11.5h3.6l2.1,11.5h0.2l1.6-11.5h2.3l-2,13.7h-3.8l-2.1-11.5h-0.2l-2.1,11.5
					h-3.8l-2-13.7H174.8z"/>
				<path class="st1" d="M194.9,580.4c2.8,0,5,2.1,5,5.1s-2.2,5.1-5,5.1s-5-2.1-5-5.1S192.1,580.4,194.9,580.4z M194.9,588.6
					c1.7,0,2.8-1.2,2.8-3.2c0-1.9-1.2-3.1-2.8-3.1s-2.8,1.2-2.8,3.1C192.1,587.4,193.2,588.6,194.9,588.6z"/>
				<path class="st1" d="M204.7,580.7v1.3h0.3c0.4-0.9,1.3-1.5,2.6-1.5s2.2,0.7,2.6,1.6h0.3c0.4-0.9,1.2-1.6,2.8-1.6
					c1.7,0,3.2,1.3,3.2,3.3v6.5h-2.1v-6.4c0-1-0.7-1.6-1.8-1.6s-1.9,0.7-1.9,2v5.9h-2.1v-6.4c0-1-0.7-1.6-1.7-1.6c-1.1,0-2,0.7-2,2
					v5.9h-2.1v-9.6h1.9V580.7z"/>
				<path class="st1" d="M223.7,580.4c2.8,0,4.7,2,4.7,4.9v0.9h-7.3c0.1,1.5,1.2,2.6,2.7,2.6c1.4,0,2.1-0.7,2.6-1.6l1.8,1
					c-0.7,1.1-1.9,2.4-4.3,2.4c-2.9,0-5-2.2-5-5.2C218.9,582.5,220.9,580.4,223.7,580.4z M226.2,584.6c-0.1-1.5-1-2.4-2.5-2.4
					s-2.4,0.9-2.6,2.4H226.2z"/>
				<path class="st1" d="M233.1,580.7v1.6h0.3c0.4-0.9,1.3-1.7,3.1-1.7c2.1,0,3.7,1.4,3.7,4v5.8h-2.1v-5.6c0-1.5-0.8-2.3-2.3-2.3
					c-1.7,0-2.7,1.1-2.7,2.9v5H231v-9.6h2.1V580.7z"/>
			</g>
			<g>
				<g>
					<line class="st3" x1="547" y1="585.4" x2="547" y2="585.4"/>
					<line class="st4" x1="536.9" y1="585.4" x2="267.6" y2="585.4"/>
					<line class="st3" x1="262.5" y1="585.4" x2="262.5" y2="585.4"/>
				</g>
			</g>
		</g>
		<g class="st5">
			<path class="st1" d="M643.1,565.7v-21.3c100.5,0,187.6-13.8,266.3-42.3c70.2-25.4,127.8-60,183.6-93.6
				c113.6-68.3,231-138.9,460.8-138.9v21.3c-100.5,0-187.6,13.8-266.3,42.3c-70.2,25.4-127.8,60.1-183.6,93.6
				C990.3,495.1,872.9,565.7,643.1,565.7z"/>
		</g>
		<g class="st5">
			<path class="st1" d="M643.1,544.3v-3.6c101.5,0,189.5-17.6,269.2-53.9c71-32.4,129-76.3,185.1-118.8
				c56.2-42.6,114.4-86.6,185.8-119.2c80.1-36.5,168.6-54.2,270.6-54.2v3.6c-101.5,0-189.5,17.6-269.2,53.9
				c-71,32.4-129,76.3-185.1,118.8c-56.2,42.6-114.4,86.6-185.8,119.2C833.6,526.6,745.1,544.3,643.1,544.3z"/>
		</g>
		<g class="st5">
			<path class="st1" d="M643.1,626.2v-10.7c226.6,0,342.6-10.8,454.8-21.3c112.4-10.5,228.7-21.4,455.8-21.4v10.7
				c-226.6,0-342.6,10.8-454.8,21.3C986.4,615.3,870.2,626.2,643.1,626.2z"/>
		</g>
		<g class="st5">
			<path class="st1" d="M643.1,629.7v-3.6c226.8,0,343-2.7,455.3-5.3c112.3-2.6,228.5-5.3,455.4-5.3v3.6c-226.8,0-343,2.7-455.3,5.3
				C986.1,627,869.9,629.7,643.1,629.7z"/>
		</g>
		<g class="st5">
			<path class="st1" d="M643.1,587v-21.3c100.8,0,188.1-10.8,267-33.1c70.4-19.8,128-46.9,183.8-73
				c113.4-53.1,230.6-108.1,459.8-108.1v21.3c-100.8,0-188.1,10.8-267,33.1c-70.4,19.8-128,46.9-183.8,73
				C989.5,532.1,872.3,587,643.1,587z"/>
		</g>
		<g class="st5">
			<path class="st1" d="M643.1,594.1V587c226.4,0,342.4-27.2,454.5-53.4c112.5-26.4,228.9-53.6,456.1-53.6v7.1
				c-226.4,0-342.4,27.2-454.5,53.4C986.7,566.9,870.3,594.1,643.1,594.1z"/>
		</g>
		<g class="st5">
			<path class="st1" d="M643.1,615.5v-21.3c226,0,341.7-19,453.6-37.3c112.7-18.5,229.3-37.6,457-37.6v21.3
				c-226,0-341.7,19-453.6,37.3C987.4,596.4,870.8,615.5,643.1,615.5z"/>
		</g>
	</g>
	<g>
		<g>
			<rect x="595.5" y="437.4" class="st6" width="47.5" height="92.2"/>
			<g>
				<path class="st2" d="M562.5,474.7v9.2h2.3v1.8h-2.3v2.7h-2v-2.7h-6.8V484l5.4-9.3H562.5z M555.9,483.9h4.6v-7.7h-0.2
					L555.9,483.9z"/>
				<path class="st2" d="M572.2,474.4c3.1,0,5.1,2.1,5.1,5.6v3c0,3.5-2,5.6-5.1,5.6s-5.1-2.1-5.1-5.6v-3
					C567.1,476.5,569,474.4,572.2,474.4z M569,483.1c0,2.4,1.1,3.7,3.2,3.7c2.1,0,3.2-1.3,3.2-3.7V480c0-2.4-1.1-3.7-3.2-3.7
					c-2.1,0-3.2,1.3-3.2,3.7V483.1z"/>
				<path class="st2" d="M581.9,485.6c0.8,0,1.5,0.7,1.5,1.5s-0.7,1.5-1.5,1.5s-1.5-0.7-1.5-1.5S581.1,485.6,581.9,485.6z"/>
				<path class="st2" d="M591.5,474.4c2.7,0,4.7,1.8,4.7,4.4c0,2.9-2.2,4-4.8,4.9c-1.9,0.6-2.9,1.1-2.9,2.7v0.2h7.5v1.8h-9.5v-1.8
					c0-2.6,1.6-3.6,4.1-4.4c2.3-0.7,3.7-1.5,3.7-3.4c0-1.6-1.2-2.5-2.7-2.5c-2,0-3.1,1.1-3.1,3v0.4h-2v-0.5
					C586.5,476.3,588.5,474.4,591.5,474.4z"/>
				<path class="st2" d="M604.1,474.4c3.1,0,5.1,2.1,5.1,5.6v3c0,3.5-2,5.6-5.1,5.6s-5.1-2.1-5.1-5.6v-3
					C599,476.5,601,474.4,604.1,474.4z M601,483.1c0,2.4,1.1,3.7,3.2,3.7c2.1,0,3.2-1.3,3.2-3.7V480c0-2.4-1.1-3.7-3.2-3.7
					c-2.1,0-3.2,1.3-3.2,3.7V483.1z"/>
				<path class="st2" d="M617.4,474.4c3.1,0,5.1,2.1,5.1,5.6v3c0,3.5-2,5.6-5.1,5.6s-5.1-2.1-5.1-5.6v-3
					C612.3,476.5,614.2,474.4,617.4,474.4z M614.2,483.1c0,2.4,1.1,3.7,3.2,3.7c2.1,0,3.2-1.3,3.2-3.7V480c0-2.4-1.1-3.7-3.2-3.7
					c-2.1,0-3.2,1.3-3.2,3.7V483.1z"/>
			</g>
			<g>
				<path class="st6" d="M118.8,474.7l-5.7,17.6h-2.2l5.7-17.6H118.8z"/>
				<path class="st6" d="M123.8,480.2h0.3c0.4-1.1,1.2-1.5,2.5-1.5h1v2H126c-1.3,0-2.1,0.7-2.1,2.1v5.6h-2.1v-9.6h2.1L123.8,480.2
					L123.8,480.2z"/>
				<path class="st6" d="M137.4,474.7l-5.7,17.6h-2.2l5.7-17.6H137.4z"/>
				<path class="st6" d="M145.8,474.7c2.5,0,4.3,1.7,4.3,4.2s-1.8,4.2-4.3,4.2h-3.2v5.2h-2.3v-13.7L145.8,474.7L145.8,474.7z
					 M142.6,481.1h3c1.4,0,2.3-0.8,2.3-2.1s-0.8-2.1-2.3-2.1h-3V481.1z"/>
				<path class="st6" d="M159.5,488.4v-1.6h-0.3c-0.4,0.9-1.3,1.8-3.1,1.8c-2.1,0-3.7-1.4-3.7-4v-5.8h2.1v5.6c0,1.5,0.8,2.3,2.3,2.3
					c1.7,0,2.7-1.1,2.7-2.9v-5h2.1v9.6H159.5z"/>
				<path class="st6" d="M168.4,478.5c2.2,0,3.8,1,4.9,2.4l-1.6,1.2c-1-1.4-2.1-1.8-3.2-1.8c-1.1,0-1.7,0.4-1.7,1.1
					c0,0.6,0.6,0.9,1.6,1.1l1.1,0.2c2.1,0.4,3.8,1.1,3.8,3s-1.7,3.1-4,3.1c-2.4,0-4.3-1.2-5.2-2.9l1.8-1c0.8,1.7,2.1,2.2,3.4,2.2
					c1.2,0,2-0.5,2-1.2s-0.7-1-1.8-1.2l-1.1-0.2c-2.1-0.4-3.6-1.1-3.6-2.9S166.2,478.5,168.4,478.5z"/>
				<path class="st6" d="M179.1,478.5c2.2,0,3.8,1,4.9,2.4l-1.6,1.2c-1-1.4-2.1-1.8-3.2-1.8c-1.1,0-1.7,0.4-1.7,1.1
					c0,0.6,0.6,0.9,1.6,1.1l1.1,0.2c2.1,0.4,3.8,1.1,3.8,3s-1.7,3.1-4,3.1c-2.4,0-4.3-1.2-5.2-2.9l1.8-1c0.8,1.7,2.1,2.2,3.4,2.2
					c1.2,0,2-0.5,2-1.2s-0.7-1-1.8-1.2l-1.1-0.2c-2.1-0.4-3.6-1.1-3.6-2.9S177,478.5,179.1,478.5z"/>
				<path class="st6" d="M195.8,478.8l-5.5,13.5H188l1.5-3.5l-4.1-10h2.3l2.8,7.1h0.2l2.7-7.1H195.8z"/>
				<path class="st6" d="M203.5,474.7c2.5,0,4.3,1.7,4.3,4.2s-1.8,4.2-4.3,4.2h-3.2v5.2H198v-13.7L203.5,474.7L203.5,474.7z
					 M200.3,481.1h3c1.4,0,2.3-0.8,2.3-2.1s-0.8-2.1-2.3-2.1h-3V481.1z"/>
				<path class="st6" d="M214.3,478.5c2.6,0,4.3,1.5,4.3,3.8v6.1h-2.1V487h-0.3c-0.4,0.8-1.2,1.7-3.2,1.7c-2.2,0-3.6-1.2-3.6-3
					c0-1.6,1.3-2.6,3.4-2.8l3.6-0.4v-0.3c0-1.1-0.8-1.9-2.2-1.9s-2.3,0.8-2.8,1.9l-1.8-1C210.3,480,211.7,478.5,214.3,478.5z
					 M213.4,486.9c2,0,3-1.2,3-2.7V484l-3.1,0.3c-1,0.1-1.7,0.5-1.7,1.2C211.6,486.4,212.3,486.9,213.4,486.9z"/>
				<path class="st6" d="M225.2,478.5c2.2,0,3.8,1,4.9,2.4l-1.6,1.2c-1-1.4-2.1-1.8-3.2-1.8c-1.1,0-1.7,0.4-1.7,1.1
					c0,0.6,0.6,0.9,1.6,1.1l1.1,0.2c2.1,0.4,3.8,1.1,3.8,3s-1.7,3.1-4,3.1c-2.4,0-4.3-1.2-5.2-2.9l1.8-1c0.8,1.7,2.1,2.2,3.4,2.2
					c1.2,0,2-0.5,2-1.2s-0.7-1-1.8-1.2l-1.1-0.2c-2.1-0.4-3.6-1.1-3.6-2.9S223,478.5,225.2,478.5z"/>
				<path class="st6" d="M235.9,478.5c2.2,0,3.8,1,4.9,2.4l-1.6,1.2c-1-1.4-2.1-1.8-3.2-1.8c-1.1,0-1.7,0.4-1.7,1.1
					c0,0.6,0.6,0.9,1.6,1.1l1.1,0.2c2.1,0.4,3.8,1.1,3.8,3s-1.7,3.1-4,3.1c-2.4,0-4.3-1.2-5.2-2.9l1.8-1c0.8,1.7,2.1,2.2,3.4,2.2
					c1.2,0,2-0.5,2-1.2s-0.7-1-1.8-1.2l-1.1-0.2c-2.1-0.4-3.6-1.1-3.6-2.9S233.8,478.5,235.9,478.5z"/>
			</g>
			<g>
				<g>
					<line class="st3" x1="547" y1="483.5" x2="547" y2="483.5"/>
					<line class="st4" x1="536.9" y1="483.5" x2="267.6" y2="483.5"/>
					<line class="st3" x1="262.5" y1="483.5" x2="262.5" y2="483.5"/>
				</g>
			</g>
		</g>
		<g class="st5">
			<path class="st6" d="M643.1,501.5v-14.2c101,0,188.6-12.5,267.7-38.1c70.6-22.9,128.4-54,184.2-84.1
				c56.4-30.4,114.8-61.8,186.6-85.1c80.6-26.1,169.6-38.8,272.1-38.8v14.2c-101,0-188.6,12.5-267.7,38.1
				c-70.6,22.9-128.4,54-184.2,84.1c-56.4,30.4-114.8,61.8-186.6,85.1C834.6,488.8,745.7,501.5,643.1,501.5z"/>
		</g>
		<g class="st5">
			<path class="st6" d="M643.1,487.3v-49.8c98.6,0,183.9-14.7,260.7-45.1c68.8-27.2,123.3-62.9,180.9-100.7
				c115.4-75.7,234.7-153.9,468.9-153.9v49.8c-98.6,0-183.9,14.7-260.7,45.1c-68.8,27.2-123.3,62.9-180.9,100.7
				C996.7,409,877.4,487.3,643.1,487.3z"/>
		</g>
		<g class="st5">
			<path class="st6" d="M643.1,519.3v-17.8c225.9,0,341.6-24.4,453.4-48c112.8-23.8,229.3-48.4,457.1-48.4v17.8
				c-225.9,0-341.6,24.4-453.4,48C987.5,494.7,870.9,519.3,643.1,519.3z"/>
		</g>
		<g class="st5">
			<path class="st6" d="M1553.7,565.7c-226.9,0-343.1-10.9-455.5-21.4c-112.3-10.5-228.4-21.4-455.1-21.4v-3.6
				c226.9,0,343.1,10.9,455.5,21.4c112.3,10.5,228.4,21.4,455.1,21.4V565.7z"/>
		</g>
		<g class="st5">
			<path class="st6" d="M1553.7,608.5c-227.2,0-343.4-20-455.9-39.3C985.6,549.9,869.7,530,643.1,530v-7.1
				c227.2,0,343.4,20,455.9,39.3c112.2,19.3,228.1,39.2,454.7,39.2V608.5z"/>
		</g>
	</g>
	<g>
		<g>
			<rect x="534.6" y="337.7" class="st7" width="108.5" height="88.9"/>
			<g>
				<path class="st2" d="M564.9,373.8v1.7l-5.3,11.9h-2.1l5.3-11.9h-7.5v-1.8L564.9,373.8L564.9,373.8z"/>
				<path class="st2" d="M572.2,373.5c2.9,0,4.8,1.5,4.8,3.7c0,1.9-1.4,2.7-2.3,3v0.2c1,0.3,2.5,1.3,2.5,3.3c0,2.3-2.1,4-5,4
					s-5-1.6-5-4c0-2,1.5-3,2.5-3.3v-0.2c-0.9-0.3-2.3-1.1-2.3-3C567.4,375,569.3,373.5,572.2,373.5z M572.2,385.9c1.9,0,3-0.9,3-2.3
					s-1.2-2.3-3-2.3s-3,0.9-3,2.3C569.1,385,570.3,385.9,572.2,385.9z M572.2,379.4c1.7,0,2.8-0.8,2.8-2.1s-1.1-2.1-2.8-2.1
					s-2.8,0.8-2.8,2.1S570.4,379.4,572.2,379.4z"/>
				<path class="st2" d="M581.7,384.7c0.8,0,1.5,0.7,1.5,1.5s-0.7,1.5-1.5,1.5s-1.5-0.7-1.5-1.5S580.8,384.7,581.7,384.7z"/>
				<path class="st2" d="M595.8,373.8v1.8h-7.2v4.3h0.2c0.6-0.9,1.4-1.7,3.2-1.7c2.3,0,4.1,1.8,4.1,4.5c0,2.8-2,5-5,5
					s-5.1-1.9-5.1-4.9v-0.2h2v0.2c0,1.9,1.1,3.1,3.1,3.1c1.9,0,3-1.2,3-3.2c0-1.8-1.1-2.8-2.6-2.8c-1.2,0-1.8,0.7-2,1.1h-3v-7.3h9.3
					V373.8z"/>
				<path class="st2" d="M604.1,373.5c3.1,0,5.1,2.1,5.1,5.6v3c0,3.5-2,5.6-5.1,5.6s-5.1-2.1-5.1-5.6v-3
					C599,375.6,601,373.5,604.1,373.5z M601,382.2c0,2.4,1.1,3.7,3.2,3.7c2.1,0,3.2-1.3,3.2-3.7V379c0-2.4-1.1-3.7-3.2-3.7
					c-2.1,0-3.2,1.3-3.2,3.7V382.2z"/>
				<path class="st2" d="M617.4,373.5c3.1,0,5.1,2.1,5.1,5.6v3c0,3.5-2,5.6-5.1,5.6s-5.1-2.1-5.1-5.6v-3
					C612.3,375.6,614.2,373.5,617.4,373.5z M614.2,382.2c0,2.4,1.1,3.7,3.2,3.7c2.1,0,3.2-1.3,3.2-3.7V379c0-2.4-1.1-3.7-3.2-3.7
					c-2.1,0-3.2,1.3-3.2,3.7V382.2z"/>
			</g>
			<g>
				<path class="st7" d="M148.7,373.6l-5.7,17.6h-2.2l5.7-17.6H148.7z"/>
				<path class="st7" d="M153.7,379.1h0.3c0.4-1.1,1.2-1.5,2.5-1.5h1v2h-1.6c-1.3,0-2.1,0.7-2.1,2.1v5.6h-2.1v-9.6h2.1L153.7,379.1
					L153.7,379.1z"/>
				<path class="st7" d="M167.3,373.6l-5.7,17.6h-2.2l5.7-17.6H167.3z"/>
				<path class="st7" d="M174.2,373.6l3.2,11.3h0.2l3.2-11.3h4v13.7h-2.2V376h-0.2l-3.1,11.3h-3.4l-3.1-11.3h-0.2v11.3h-2.2v-13.7
					L174.2,373.6L174.2,373.6z"/>
				<path class="st7" d="M187.6,378.8c0-3.5,2.1-5.6,5.5-5.6c3.3,0,5.2,1.9,5.2,5v0.2H196v-0.2c0-1.8-0.9-3-2.9-3s-3.2,1.4-3.2,3.4
					v3.3c0,2.1,1.2,3.4,3.2,3.4c2.1,0,2.9-1.2,2.9-2.9v-0.2h-3.5v-2h5.8v2.1c0,3.1-1.8,5-5.2,5s-5.5-2-5.5-5.6V378.8z"/>
				<path class="st7" d="M210.7,373.6v2.1h-4.3v11.6h-2.3v-11.6h-4.3v-2.1H210.7z"/>
				<path class="st7" d="M217.6,373.3c3.4,0,5.5,2.1,5.5,5.6v3c0,3.6-2,5.6-5.5,5.6c-3.4,0-5.5-2.1-5.5-5.6v-3
					C212.2,375.4,214.2,373.3,217.6,373.3z M214.4,382c0,2.2,1,3.5,3.2,3.5s3.2-1.3,3.2-3.5v-3.1c0-2.2-1.1-3.5-3.2-3.5
					c-2.1,0-3.2,1.3-3.2,3.5V382z"/>
				<path class="st7" d="M227.3,373.6l1.6,11.5h0.2l2.1-11.5h3.6l2.1,11.5h0.2l1.6-11.5h2.3l-2,13.7h-3.8l-2.1-11.5h-0.2l-2.1,11.5
					H227l-2-13.7H227.3z"/>
			</g>
			<g>
				<g>
					<line class="st3" x1="534.6" y1="382.1" x2="534.6" y2="382.1"/>
					<line class="st8" x1="524.5" y1="382.1" x2="267.6" y2="382.1"/>
					<line class="st3" x1="262.5" y1="382.1" x2="262.5" y2="382.1"/>
				</g>
			</g>
		</g>
		<g class="st5">
			<path class="st7" d="M643.1,358.9v-14.2c226.2,0,342-22.6,454-44.5c112.7-22,229.1-44.8,456.7-44.8v14.2
				c-226.2,0-342,22.6-454,44.5C987.1,336.1,870.6,358.9,643.1,358.9z"/>
		</g>
		<g class="st5">
			<path class="st7" d="M643.1,344.7v-7.1c226.3,0,342.2-38,454.2-74.8c112.6-37,229-75.2,456.4-75.2v7.1
				c-226.3,0-342.2,38-454.2,74.8C986.9,306.5,870.5,344.7,643.1,344.7z"/>
		</g>
		<g class="st5">
			<path class="st7" d="M1553.7,433.6c-227.2,0-343.6-16.3-456.1-32c-112.1-15.7-228.1-31.9-454.6-31.9V359
				c227.2,0,343.6,16.3,456.1,32c112.1,15.7,228.1,31.9,454.6,31.9V433.6z"/>
		</g>
		<g class="st5">
			<path class="st7" d="M1553.7,651.4c-101.9,0-190.4-11.5-270.4-35.2c-71.3-21.1-129.5-49.7-185.7-77.4
				c-56.1-27.6-114.1-56.2-185.2-77.2C832.7,438,744.6,426.5,643,426.5V423c101.9,0,190.4,11.5,270.4,35.2
				c71.3,21.1,129.5,49.7,185.7,77.4c56.1,27.6,114.1,56.2,185.2,77.2c79.7,23.6,167.8,35.1,269.4,35.1V651.4z"/>
		</g>
		<g class="st5">
			<path class="st7" d="M1553.7,572.8c-227.4,0-343.9-40-456.5-78.7c-112-38.5-227.9-78.3-454.2-78.3v-7.1
				c227.4,0,343.9,40,456.5,78.7c112,38.5,227.9,78.3,454.2,78.3V572.8z"/>
		</g>
		<g class="st5">
			<path class="st7" d="M1553.7,615.7c-102.1,0-190.6-9.9-270.8-30.2c-71.5-18.1-129.7-42.7-185.9-66.4
				c-56-23.6-114-48.1-184.9-66.1c-79.6-20.2-167.5-30-269-30v-7.1c102.1,0,190.6,9.9,270.8,30.2c71.5,18.1,129.7,42.7,185.9,66.4
				c56,23.6,114,48.1,184.9,66.1c79.6,20.2,167.5,30,269,30L1553.7,615.7L1553.7,615.7z"/>
		</g>
		<g class="st5">
			<path class="st7" d="M1553.7,480c-227.9,0-344.5-22.7-457.4-44.7C984.5,413.5,868.8,391,643,391v-21.3
				c227.9,0,344.5,22.7,457.4,44.7c111.8,21.8,227.5,44.3,453.3,44.3V480z"/>
		</g>
		<g class="st5">
			<path class="st7" d="M1553.7,519.3c-227.9,0-344.6-28.2-457.4-55.5c-111.8-27.1-227.4-55-453.2-55V391
				c227.9,0,344.6,28.2,457.4,55.5c111.8,27.1,227.4,55,453.2,55V519.3z"/>
		</g>
	</g>
	<g>
		<g>
			<rect x="411.3" y="234.3" class="st9" width="231.8" height="92"/>
			<g>
				<path class="st2" d="M550.8,271.9v13.7h-2v-11.8h-0.2l-2.5,4.2H544l3.8-6h3V271.9z"/>
				<path class="st2" d="M558.9,271.7c2.8,0,4.8,1.9,4.8,4.7v4.8c0,2.8-2.1,4.7-4.9,4.7c-2.8,0-4.6-1.6-4.6-4.3h2
					c0,1.5,0.8,2.5,2.7,2.5s3-1.2,3-2.9v-1.8h-0.2c-0.5,0.7-1.3,1.7-3.3,1.7c-2.3,0-4.3-1.8-4.3-4.6
					C554,273.6,556.1,271.7,558.9,271.7z M561.8,276.4c0-1.7-1.2-2.9-2.9-2.9c-1.8,0-3,1.2-3,2.9s1.2,2.9,3,2.9
					C560.6,279.3,561.8,278.1,561.8,276.4z"/>
				<path class="st2" d="M576.4,271.9v1.8h-7.2v4.3h0.2c0.6-0.9,1.4-1.7,3.2-1.7c2.3,0,4.1,1.8,4.1,4.5c0,2.8-2,5-5,5
					s-5.1-1.9-5.1-4.9v-0.2h2v0.2c0,1.9,1.1,3.1,3.1,3.1c1.9,0,3-1.2,3-3.2c0-1.8-1.1-2.8-2.6-2.8c-1.2,0-1.8,0.7-2,1.1h-3v-7.3h9.3
					V271.9z"/>
				<path class="st2" d="M581.2,282.8c0.8,0,1.5,0.7,1.5,1.5s-0.7,1.5-1.5,1.5s-1.5-0.7-1.5-1.5S580.3,282.8,581.2,282.8z"/>
				<path class="st2" d="M590.9,271.7c3.1,0,5.1,2.1,5.1,5.6v3c0,3.5-2,5.6-5.1,5.6s-5.1-2.1-5.1-5.6v-3
					C585.8,273.7,587.7,271.7,590.9,271.7z M587.7,280.3c0,2.4,1.1,3.7,3.2,3.7c2.1,0,3.2-1.3,3.2-3.7v-3.1c0-2.4-1.1-3.7-3.2-3.7
					c-2.1,0-3.2,1.3-3.2,3.7V280.3z"/>
				<path class="st2" d="M604.1,271.7c3.1,0,5.1,2.1,5.1,5.6v3c0,3.5-2,5.6-5.1,5.6s-5.1-2.1-5.1-5.6v-3
					C599,273.7,601,271.7,604.1,271.7z M601,280.3c0,2.4,1.1,3.7,3.2,3.7c2.1,0,3.2-1.3,3.2-3.7v-3.1c0-2.4-1.1-3.7-3.2-3.7
					c-2.1,0-3.2,1.3-3.2,3.7V280.3z"/>
				<path class="st2" d="M617.4,271.7c3.1,0,5.1,2.1,5.1,5.6v3c0,3.5-2,5.6-5.1,5.6s-5.1-2.1-5.1-5.6v-3
					C612.3,273.7,614.2,271.7,617.4,271.7z M614.2,280.3c0,2.4,1.1,3.7,3.2,3.7c2.1,0,3.2-1.3,3.2-3.7v-3.1c0-2.4-1.1-3.7-3.2-3.7
					c-2.1,0-3.2,1.3-3.2,3.7V280.3z"/>
			</g>
			<g>
				<path class="st9" d="M117.2,271.5l-5.7,17.6h-2.2l5.7-17.6H117.2z"/>
				<path class="st9" d="M122.3,277h0.3c0.4-1.1,1.2-1.5,2.5-1.5h1v2h-1.6c-1.3,0-2.1,0.7-2.1,2.1v5.6h-2.1v-9.6h2.1v1.4H122.3z"/>
				<path class="st9" d="M135.8,271.5l-5.7,17.6h-2.2l5.7-17.6H135.8z"/>
				<path class="st9" d="M142.8,271.5l3.2,11.3h0.2l3.2-11.3h4v13.7h-2.2v-11.3H151l-3.1,11.3h-3.4l-3.1-11.3H141v11.3h-2.2v-13.7
					H142.8z"/>
				<path class="st9" d="M160.8,275.3c2.8,0,4.7,2,4.7,4.9v0.9h-7.3c0.1,1.5,1.2,2.6,2.7,2.6c1.4,0,2.1-0.7,2.6-1.6l1.8,1
					c-0.7,1.1-1.9,2.4-4.3,2.4c-2.9,0-5-2.2-5-5.2C156,277.4,158,275.3,160.8,275.3z M163.3,279.5c-0.1-1.5-1-2.4-2.5-2.4
					s-2.4,0.9-2.6,2.4H163.3z"/>
				<path class="st9" d="M170.2,275.5v1.6h0.3c0.4-0.9,1.3-1.7,3.1-1.7c2.1,0,3.7,1.4,3.7,4v5.8h-2.1v-5.6c0-1.5-0.8-2.3-2.3-2.3
					c-1.7,0-2.7,1.1-2.7,2.9v5h-2.1v-9.6L170.2,275.5L170.2,275.5z"/>
				<path class="st9" d="M183.9,275.3c2.2,0,3.8,1,4.9,2.4l-1.6,1.2c-1-1.4-2.1-1.8-3.2-1.8c-1.1,0-1.7,0.4-1.7,1.1
					c0,0.6,0.6,0.9,1.6,1.1l1.1,0.2c2.1,0.4,3.8,1.1,3.8,3s-1.7,3.1-4,3.1c-2.4,0-4.3-1.2-5.2-2.9l1.8-1c0.8,1.7,2.1,2.2,3.4,2.2
					c1.2,0,2-0.5,2-1.2s-0.7-1-1.8-1.2l-1.1-0.2c-2.1-0.4-3.6-1.1-3.6-2.9S181.8,275.3,183.9,275.3z"/>
				<path class="st9" d="M198.5,279.7l2.9,5.5h-2.5l-2.7-5.3h-2.5v5.3h-2.3v-13.7h5.9c2.5,0,4.3,1.7,4.3,4.2
					C201.6,277.8,200.3,279.3,198.5,279.7z M193.7,277.8h3.4c1.4,0,2.3-0.8,2.3-2.1c0-1.3-0.8-2.1-2.3-2.1h-3.4V277.8z"/>
				<path class="st9" d="M205.2,271.1c0.9,0,1.6,0.6,1.6,1.6c0,0.9-0.7,1.6-1.6,1.6c-0.9,0-1.6-0.7-1.6-1.6
					C203.6,271.8,204.3,271.1,205.2,271.1z M206.3,285.2h-2.1v-9.6h2.1V285.2z"/>
				<path class="st9" d="M219,275.5v9.3c0,2.6-1.9,4.5-4.8,4.5c-2.6,0-4.1-1.2-5.1-2.7l1.9-1.1c0.5,1,1.5,1.9,3.1,1.9
					s2.8-0.9,2.8-2.7v-1.3h-0.2c-0.5,0.9-1.4,1.7-3.2,1.7c-2.5,0-4.5-2-4.5-5c0-2.9,2-4.9,4.5-4.9c1.8,0,2.7,0.9,3.2,1.7h0.3v-1.4
					H219z M216.8,280.2c0-1.9-1.2-3-2.8-3c-1.7,0-2.9,1.1-2.9,3c0,2,1.2,3,2.9,3C215.7,283.3,216.8,282.1,216.8,280.2z"/>
				<path class="st9" d="M224.4,271.5v5.6h0.2c0.4-0.9,1.3-1.7,3.1-1.7c2.1,0,3.7,1.4,3.7,4v5.8h-2.1v-5.6c0-1.5-0.8-2.3-2.3-2.3
					c-1.7,0-2.7,1.1-2.7,2.9v5h-2.1v-13.7L224.4,271.5L224.4,271.5z"/>
				<path class="st9" d="M235.9,275.5v-3.2h2.1v3.2h2.7v1.8H238v5.4c0,0.4,0.2,0.6,0.5,0.6h1.7v1.8h-2.6c-1,0-1.8-0.7-1.8-1.8v-6
					h-2.6v-1.8H235.9z"/>
			</g>
			<g>
				<g>
					<line class="st3" x1="411.3" y1="280.3" x2="411.3" y2="280.3"/>
					<line class="st10" x1="401.3" y1="280.3" x2="267.5" y2="280.3"/>
					<line class="st3" x1="262.5" y1="280.3" x2="262.5" y2="280.3"/>
				</g>
			</g>
		</g>
		<g class="st5">
			<path class="st9" d="M643.1,284.2v-28.5c226.2,0,342-10.9,454-21.5c112.7-10.6,229.1-21.6,456.7-21.6v28.5
				c-226.2,0-342,10.9-454,21.5C987.1,273.2,870.6,284.2,643.1,284.2z"/>
		</g>
		<g class="st5">
			<path class="st9" d="M643.1,255.7v-21.3c225.5,0,341-29.8,452.7-58.6c113-29.1,229.8-59.3,458-59.3v21.3
				c-225.5,0-341,29.8-452.7,58.6C988.1,225.6,871.3,255.7,643.1,255.7z"/>
		</g>
		<g class="st5">
			<path class="st9" d="M1553.7,405.1c-227.7,0-344.2-27.2-456.9-53.5c-111.9-26.1-227.7-53.2-453.7-53.2v-14.2
				c227.7,0,344.2,27.2,456.9,53.5c111.9,26.1,227.7,53.2,453.7,53.2V405.1z"/>
		</g>
		<g class="st5">
			<path class="st9" d="M1553.7,647.8c-102.7,0-191.9-16.6-272.7-50.7c-71.9-30.4-130.3-71.4-186.8-111.1
				c-55.9-39.2-113.6-79.8-184.1-109.6c-79-33.4-166.3-49.6-267.1-49.6v-14.2c102.7,0,191.9,16.6,272.7,50.7
				c71.9,30.4,130.3,71.4,186.8,111.1c55.9,39.2,113.6,79.8,184.1,109.6c79,33.4,166.3,49.6,267.1,49.6V647.8z"/>
		</g>
		<g class="st5">
			<path class="st9" d="M1553.7,562.1c-102.2,0-190.8-13-271-39.7c-71.5-23.8-129.7-56.1-186-87.3c-56-31-113.9-63.1-184.8-86.7
				C832.4,321.9,744.5,309,643.1,309v-7.1c102.2,0,190.8,13,271,39.7c71.5,23.8,129.7,56.1,186,87.3c56,31,113.9,63.1,184.8,86.7
				c79.5,26.5,167.4,39.4,268.8,39.4V562.1z"/>
		</g>
		<g class="st5">
			<path class="st9" d="M1553.7,601.4c-102,0-190.5-14.8-270.5-45.2c-71.4-27.1-129.5-63.9-185.7-99.4
				c-56.1-35.5-114.1-72.1-185.1-99.1c-79.6-30.3-167.7-45-269.3-45v-3.6c102,0,190.5,14.8,270.5,45.2
				c71.4,27.1,129.5,63.9,185.7,99.4c56.1,35.5,114.1,72.1,185.1,99.1c79.6,30.3,167.7,45,269.3,45V601.4z"/>
		</g>
		<g class="st5">
			<path class="st9" d="M1553.7,501.5c-101.9,0-190.3-10.2-270.3-31.2c-71.3-18.7-129.5-44.1-185.7-68.7
				c-56.1-24.5-114.1-49.8-185.2-68.5C832.8,312.2,744.7,302,643.1,302v-3.6c101.9,0,190.3,10.2,270.3,31.2
				c71.3,18.7,129.5,44.1,185.7,68.7c56.1,24.5,114.1,49.8,185.2,68.5c79.7,20.9,167.8,31.1,269.4,31.1V501.5z"/>
		</g>
	</g>
	<g>
		<rect x="288.3" y="131" class="st11" width="354.7" height="92.4"/>
		<g>
			<g>
				<path class="st11" d="M121.4,168.4l-5.7,17.6h-2.2l5.7-17.6H121.4z"/>
				<path class="st11" d="M126.4,174h0.3c0.4-1.1,1.2-1.5,2.5-1.5h1v2h-1.6c-1.3,0-2.1,0.7-2.1,2.1v5.6h-2.1v-9.6h2.1v1.4H126.4z"/>
				<path class="st11" d="M139.2,168.4l-5.7,17.6h-2.2l5.7-17.6H139.2z"/>
				<path class="st11" d="M152,168.4v2.1h-4.3v11.6h-2.3v-11.6h-4.3v-2.1H152z"/>
				<path class="st11" d="M156.4,168.4v5.6h0.2c0.4-0.9,1.3-1.7,3.1-1.7c2.1,0,3.7,1.4,3.7,4v5.8h-2.1v-5.6c0-1.5-0.8-2.3-2.3-2.3
					c-1.7,0-2.7,1.1-2.7,2.9v5h-2.1v-13.7H156.4z"/>
				<path class="st11" d="M170.9,172.2c2.8,0,4.7,2,4.7,4.9v0.9h-7.3c0.1,1.5,1.2,2.6,2.7,2.6c1.4,0,2.1-0.7,2.6-1.6l1.8,1
					c-0.7,1.1-1.9,2.4-4.3,2.4c-2.9,0-5-2.2-5-5.2C166,174.3,168.1,172.2,170.9,172.2z M173.3,176.4c-0.1-1.5-1-2.4-2.5-2.4
					s-2.4,0.9-2.6,2.4H173.3z"/>
				<path class="st11" d="M185.2,176.6l2.9,5.5h-2.5l-2.7-5.3h-2.5v5.3h-2.3v-13.7h5.9c2.5,0,4.3,1.7,4.3,4.2
					C188.3,174.7,187,176.2,185.2,176.6z M180.4,174.7h3.4c1.4,0,2.3-0.8,2.3-2.1s-0.8-2.1-2.3-2.1h-3.4V174.7z"/>
				<path class="st11" d="M195.1,172.2c2.8,0,4.7,2,4.7,4.9v0.9h-7.3c0.1,1.5,1.2,2.6,2.7,2.6c1.4,0,2.1-0.7,2.6-1.6l1.8,1
					c-0.7,1.1-1.9,2.4-4.3,2.4c-2.9,0-5-2.2-5-5.2C190.3,174.3,192.3,172.2,195.1,172.2z M197.6,176.4c-0.1-1.5-1-2.4-2.5-2.4
					s-2.4,0.9-2.6,2.4H197.6z"/>
				<path class="st11" d="M211.8,182.1h-2.1v-1.4h-0.3c-0.5,0.9-1.4,1.7-3.2,1.7c-2.5,0-4.5-2.1-4.5-5.1s2-5.1,4.5-5.1
					c1.8,0,2.7,0.9,3.2,1.7h0.2v-5.5h2.1v13.7H211.8z M203.9,177.3c0,2,1.2,3.2,2.9,3.2s2.8-1.2,2.8-3.2s-1.2-3.2-2.8-3.2
					C205.1,174.1,203.9,175.3,203.9,177.3z"/>
				<path class="st11" d="M220.5,168.4c2.5,0,4.3,1.7,4.3,4.2s-1.8,4.2-4.3,4.2h-3.2v5.2H215v-13.7h5.5V168.4z M217.3,174.8h3
					c1.4,0,2.3-0.8,2.3-2.1s-0.8-2.1-2.3-2.1h-3V174.8z"/>
				<path class="st11" d="M228.3,168.1c0.9,0,1.6,0.6,1.6,1.6c0,0.9-0.7,1.6-1.6,1.6c-0.9,0-1.6-0.7-1.6-1.6
					C226.7,168.7,227.4,168.1,228.3,168.1z M229.3,182.1h-2.1v-9.6h2.1V182.1z"/>
				<path class="st11" d="M234.7,182.1h-2.1v-13.7h2.1V182.1z"/>
				<path class="st11" d="M240.1,182.1H238v-13.7h2.1V182.1z"/>
			</g>
		</g>
		<g>
			<path class="st2" d="M547,168.2c2.7,0,4.7,1.8,4.7,4.4c0,2.9-2.2,4-4.8,4.9c-1.9,0.6-2.9,1.1-2.9,2.7v0.2h7.5v1.8H542v-1.8
				c0-2.6,1.6-3.6,4.1-4.4c2.3-0.7,3.7-1.5,3.7-3.4c0-1.6-1.2-2.5-2.7-2.5c-2,0-3.1,1.1-3.1,3v0.4h-2V173
				C542,170,544,168.2,547,168.2z"/>
			<path class="st2" d="M559.2,168.2c2.8,0,4.8,1.9,4.8,4.7v4.8c0,2.8-2.1,4.7-4.9,4.7c-2.8,0-4.6-1.6-4.6-4.3h2
				c0,1.5,0.8,2.5,2.7,2.5s3-1.2,3-2.9v-1.8H562c-0.5,0.7-1.3,1.7-3.3,1.7c-2.3,0-4.3-1.8-4.3-4.6
				C554.3,170.1,556.4,168.2,559.2,168.2z M562.1,172.9c0-1.7-1.2-2.9-2.9-2.9c-1.8,0-3,1.2-3,2.9s1.2,2.9,3,2.9
				C560.9,175.8,562.1,174.6,562.1,172.9z"/>
			<path class="st2" d="M572,168.2c2.7,0,4.7,1.8,4.7,4.4c0,2.9-2.2,4-4.8,4.9c-1.9,0.6-2.9,1.1-2.9,2.7v0.2h7.5v1.8H567v-1.8
				c0-2.6,1.6-3.6,4.1-4.4c2.3-0.7,3.7-1.5,3.7-3.4c0-1.6-1.2-2.5-2.7-2.5c-2,0-3.1,1.1-3.1,3v0.4h-2V173
				C567,170,569.1,168.2,572,168.2z"/>
			<path class="st2" d="M581.2,179.3c0.8,0,1.5,0.7,1.5,1.5s-0.7,1.5-1.5,1.5s-1.5-0.7-1.5-1.5S580.3,179.3,581.2,179.3z"/>
			<path class="st2" d="M590.9,168.2c3.1,0,5.1,2.1,5.1,5.6v3c0,3.5-2,5.6-5.1,5.6s-5.1-2.1-5.1-5.6v-3
				C585.8,170.2,587.7,168.2,590.9,168.2z M587.7,176.8c0,2.4,1.1,3.7,3.2,3.7c2.1,0,3.2-1.3,3.2-3.7v-3.1c0-2.4-1.1-3.7-3.2-3.7
				c-2.1,0-3.2,1.3-3.2,3.7V176.8z"/>
			<path class="st2" d="M604.1,168.2c3.1,0,5.1,2.1,5.1,5.6v3c0,3.5-2,5.6-5.1,5.6s-5.1-2.1-5.1-5.6v-3
				C599,170.2,601,168.2,604.1,168.2z M601,176.8c0,2.4,1.1,3.7,3.2,3.7c2.1,0,3.2-1.3,3.2-3.7v-3.1c0-2.4-1.1-3.7-3.2-3.7
				c-2.1,0-3.2,1.3-3.2,3.7V176.8z"/>
			<path class="st2" d="M617.4,168.2c3.1,0,5.1,2.1,5.1,5.6v3c0,3.5-2,5.6-5.1,5.6s-5.1-2.1-5.1-5.6v-3
				C612.3,170.2,614.2,168.2,617.4,168.2z M614.2,176.8c0,2.4,1.1,3.7,3.2,3.7c2.1,0,3.2-1.3,3.2-3.7v-3.1c0-2.4-1.1-3.7-3.2-3.7
				c-2.1,0-3.2,1.3-3.2,3.7V176.8z"/>
		</g>
		<g>
			<g>
				<line class="st3" x1="288.3" y1="177.2" x2="288.3" y2="177.2"/>
				<line class="st12" x1="279.7" y1="177.2" x2="266.8" y2="177.2"/>
				<line class="st3" x1="262.5" y1="177.2" x2="262.5" y2="177.2"/>
			</g>
		</g>
		<g>
			<g>
				<line class="st3" x1="288.3" y1="177.2" x2="288.3" y2="177.2"/>
				<line class="st12" x1="279.7" y1="177.2" x2="266.8" y2="177.2"/>
				<line class="st3" x1="262.5" y1="177.2" x2="262.5" y2="177.2"/>
			</g>
		</g>
		<g class="st5">
			<path class="st11" d="M1553.7,212.7c-227,0-343.2-18.1-455.6-35.5c-112.3-17.4-228.3-35.5-455-35.5v-3.6
				c227,0,343.2,18.1,455.6,35.5c112.3,17.4,228.3,35.5,455,35.5V212.7z"/>
		</g>
		<g class="st5">
			<path class="st11" d="M643.1,138.1V131c226.8,0,342.9-5.5,455.2-10.8c112.4-5.3,228.6-10.8,455.5-10.8v7.1
				c-226.8,0-342.9,5.5-455.2,10.8C986.2,132.6,870,138.1,643.1,138.1z"/>
		</g>
		<g class="st5">
			<path class="st11" d="M1553.7,390.9c-102.1,0-190.6-9.9-270.8-30.1c-71.5-18.1-129.7-42.6-185.9-66.3c-56-23.6-114-48-184.9-65.9
				c-79.6-20.1-167.6-29.9-269-29.9v-7.1c102.1,0,190.6,9.9,270.8,30.1c71.5,18.1,129.7,42.6,185.9,66.3c56,23.6,114,48,184.9,65.9
				c79.6,20.1,167.6,29.9,269,29.9L1553.7,390.9L1553.7,390.9z"/>
		</g>
		<g class="st5">
			<path class="st11" d="M1553.7,633.6c-54.7,0-104.1-5.8-151.2-17.7c-42-10.6-81.1-25.8-119.5-46.6
				c-71.4-38.5-129.5-90.7-185.8-141.2c-56.1-50.3-114.1-102.4-185.1-140.7c-38.2-20.6-77-35.8-118.7-46.3
				c-46.8-11.8-96-17.6-150.3-17.6V220c54.7,0,104.1,5.8,151.2,17.7c42,10.6,81.1,25.8,119.5,46.6c71.4,38.5,129.5,90.7,185.8,141.2
				c56.1,50.3,114.1,102.4,185.1,140.7c38.2,20.6,77,35.8,118.7,46.3c46.8,11.8,96,17.6,150.3,17.6V633.6z"/>
		</g>
		<g class="st5">
			<path class="st11" d="M1553.7,555c-102,0-190.5-17.4-270.6-53.1c-71.4-31.8-129.5-74.9-185.8-116.6
				c-56.1-41.6-114.1-84.5-185.1-116.2c-79.6-35.5-167.7-52.8-269.2-52.8v-3.6c102,0,190.5,17.4,270.6,53.1
				c71.4,31.8,129.5,74.9,185.8,116.6c56.1,41.6,114.1,84.5,185.1,116.2c79.6,35.5,167.7,52.8,269.2,52.8V555z"/>
		</g>
		<g class="st5">
			<path class="st11" d="M1553.7,597.9c-102,0-190.6-19.4-270.7-59.2c-71.4-35.5-129.5-83.6-185.8-130.1
				C983.1,314.3,947,296.3,912.1,278.9c-79.5-39.7-167.6-58.9-269-58.9v-3.6c102,0,190.6,19.4,270.7,59.2
				c71.4,35.5,129.5,83.6,185.8,130.1c114.1,94.3,150.2,112.3,185.1,129.7c79.6,39.6,167.6,58.9,269.1,58.9L1553.7,597.9
				L1553.7,597.9z"/>
		</g>
		<g class="st5">
			<path class="st11" d="M1553.7,351.6c-231.1,0-349.3-41.4-463.6-81.4c-58-20.3-112.7-39.5-182.3-54.2
				c-78.1-16.5-164.7-24.5-264.8-24.5v-49.8c231.1,0,349.3,41.4,463.6,81.4c58,20.3,112.7,39.5,182.3,54.2
				c78.1,16.5,164.7,24.5,264.8,24.5V351.6z"/>
		</g>
		<g class="st5">
			<path class="st11" d="M1553.7,458.6c-102.5,0-191.5-12.7-272.1-38.7c-71.8-23.2-130.2-54.6-186.6-85
				c-55.9-30.1-113.7-61.1-184.3-84C831.6,225.3,744,212.8,643,212.8v-14.2c102.5,0,191.5,12.7,272.1,38.7
				c71.8,23.2,130.2,54.6,186.6,85c55.9,30.1,113.7,61.1,184.3,84c79.1,25.6,166.7,38.1,267.7,38.1V458.6z"/>
		</g>
	</g>
</g>
<g id="tick">
	<line class="st13" x1="262.5" y1="78.8" x2="643.1" y2="78.8"/>
	<line class="st13" x1="79.1" y1="78.8" x2="241.3" y2="78.8"/>
	<g>
		<path class="st2" d="M126.1,58.2v0.6h-2.2v-0.4c0-1.7-1.1-2.5-2.8-2.5c-1.4,0-2.4,0.7-2.4,1.8c0,1.3,1,1.6,2.8,2l0.5,0.1
			c2.7,0.6,4.3,1.6,4.3,4c0,2.6-2.1,4.2-5,4.2c-3.3,0-5.5-1.9-5.5-5v-0.5h2.2V63c0,1.9,1.1,3.1,3.3,3.1c1.7,0,2.7-0.9,2.7-2.1
			c0-1.2-0.9-1.7-2.7-2.1l-0.5-0.1c-2.6-0.6-4.4-1.5-4.4-4c0-2.4,2.1-3.9,4.7-3.9C123.9,53.9,126.1,55.4,126.1,58.2z"/>
		<path class="st2" d="M132.1,54.2v9c0,1.8,1,2.9,3,2.9s3-1.1,3-2.9v-9h2.3v8.9c0,3.1-1.9,5-5.2,5s-5.2-1.9-5.2-5v-8.9
			C130,54.2,132.1,54.2,132.1,54.2z"/>
		<path class="st2" d="M150.2,54.2c2.4,0,4,1.3,4,3.7c0,1.6-0.9,2.7-2.3,3v0.2c1.3,0.4,2.3,1.4,2.3,3c0,2.3-1.7,3.7-4,3.7h-6V54.2
			H150.2z M146.6,59.9h3.5c1.2,0,2.1-0.7,2.1-1.9s-0.8-1.8-2.1-1.8h-3.5V59.9z M146.6,65.7h3.5c1.2,0,2.1-0.7,2.1-1.9
			c0-1.2-0.8-1.9-2.1-1.9h-3.5V65.7z"/>
		<path class="st2" d="M164.9,62.4l2.9,5.5h-2.5l-2.7-5.3h-2.5v5.3h-2.3V54.2h5.9c2.5,0,4.3,1.7,4.3,4.2
			C168,60.4,166.7,61.9,164.9,62.4z M160.1,60.4h3.4c1.4,0,2.3-0.8,2.3-2.1s-0.8-2.1-2.3-2.1h-3.4V60.4z"/>
		<path class="st2" d="M180.3,54.2v2.1h-6.6V60h6.1v2h-6.1v3.8h6.7v2.1h-9V54.2H180.3z"/>
		<path class="st2" d="M188.3,54.2c3.6,0,5.6,1.8,5.6,5.4v2.8c0,3.6-2,5.4-5.6,5.4h-4.4V54.2H188.3z M186.1,65.7h2.2
			c2.3,0,3.3-1.1,3.3-3.3v-2.8c0-2.2-1-3.3-3.3-3.3h-2.2V65.7z"/>
		<path class="st2" d="M201.9,54.2c3.6,0,5.6,1.8,5.6,5.4v2.8c0,3.6-2,5.4-5.6,5.4h-4.4V54.2H201.9z M199.8,65.7h2.2
			c2.3,0,3.3-1.1,3.3-3.3v-2.8c0-2.2-1-3.3-3.3-3.3h-2.2V65.7z"/>
		<path class="st2" d="M213.4,54.2v13.7h-2.3V54.2H213.4z"/>
		<path class="st2" d="M227.3,54.2v2.1H223v11.6h-2.3V56.2h-4.3v-2.1L227.3,54.2L227.3,54.2z"/>
		<path class="st2" d="M239.6,58.2v0.6h-2.2v-0.4c0-1.7-1.1-2.5-2.8-2.5c-1.4,0-2.4,0.7-2.4,1.8c0,1.3,1,1.6,2.8,2l0.5,0.1
			c2.7,0.6,4.3,1.6,4.3,4c0,2.6-2.1,4.2-5,4.2c-3.3,0-5.5-1.9-5.5-5v-0.5h2.2V63c0,1.9,1.1,3.1,3.3,3.1c1.7,0,2.7-0.9,2.7-2.1
			c0-1.2-0.9-1.7-2.7-2.1l-0.5-0.1c-2.6-0.6-4.4-1.5-4.4-4c0-2.4,2.1-3.9,4.7-3.9C237.5,53.9,239.6,55.4,239.6,58.2z"/>
	</g>
	<g>
		<path class="st2" d="M580.9,54.2v9c0,1.8,1,2.9,3,2.9s3-1.1,3-2.9v-9h2.3v8.9c0,3.1-1.9,5-5.2,5s-5.2-1.9-5.2-5v-8.9
			C578.8,54.2,580.9,54.2,580.9,54.2z"/>
		<path class="st2" d="M602.7,58.2v0.6h-2.2v-0.4c0-1.7-1.1-2.5-2.8-2.5c-1.4,0-2.4,0.7-2.4,1.8c0,1.3,1,1.6,2.8,2l0.5,0.1
			c2.7,0.6,4.3,1.6,4.3,4c0,2.6-2.1,4.2-5,4.2c-3.3,0-5.5-1.9-5.5-5v-0.5h2.2V63c0,1.9,1.1,3.1,3.3,3.1c1.7,0,2.7-0.9,2.7-2.1
			c0-1.2-0.9-1.7-2.7-2.1l-0.5-0.1c-2.6-0.6-4.4-1.5-4.4-4c0-2.4,2.1-3.9,4.7-3.9C600.6,53.9,602.7,55.4,602.7,58.2z"/>
		<path class="st2" d="M615.4,54.2v2.1h-6.6V60h6.1v2h-6.1v3.8h6.7v2.1h-9V54.2H615.4z"/>
		<path class="st2" d="M626,62.4l2.9,5.5h-2.5l-2.7-5.3h-2.5v5.3H619V54.2h5.9c2.5,0,4.3,1.7,4.3,4.2
			C629.1,60.4,627.9,61.9,626,62.4z M621.2,60.4h3.4c1.4,0,2.3-0.8,2.3-2.1s-0.8-2.1-2.3-2.1h-3.4V60.4z"/>
		<path class="st2" d="M642.1,58.2v0.6h-2.2v-0.4c0-1.7-1.1-2.5-2.8-2.5c-1.4,0-2.4,0.7-2.4,1.8c0,1.3,1,1.6,2.8,2l0.5,0.1
			c2.7,0.6,4.3,1.6,4.3,4c0,2.6-2.1,4.2-5,4.2c-3.3,0-5.5-1.9-5.5-5v-0.5h2.2V63c0,1.9,1.1,3.1,3.3,3.1c1.7,0,2.7-0.9,2.7-2.1
			c0-1.2-0.9-1.7-2.7-2.1l-0.5-0.1c-2.6-0.6-4.4-1.5-4.4-4c0-2.4,2.1-3.9,4.7-3.9C640,53.9,642.1,55.4,642.1,58.2z"/>
	</g>
	<line class="st13" x1="1851.1" y1="78.8" x2="1585.6" y2="78.8"/>
	<g>
		<path class="st2" d="M1593.4,54.2l4,13.7h-2.4l-0.9-3.2h-5.1l-0.9,3.2h-2.4l4-13.7H1593.4z M1593.6,62.6l-1.9-6.5h-0.2l-1.9,6.5
			H1593.6z"/>
		<path class="st2" d="M1607.5,62.4l2.9,5.5h-2.5l-2.7-5.3h-2.5v5.3h-2.3V54.2h5.9c2.5,0,4.3,1.7,4.3,4.2
			C1610.6,60.4,1609.4,61.9,1607.5,62.4z M1602.7,60.4h3.4c1.4,0,2.3-0.8,2.3-2.1s-0.8-2.1-2.3-2.1h-3.4V60.4z"/>
		<path class="st2" d="M1613.5,59.4c0-3.5,2.1-5.6,5.5-5.6c3.3,0,5.2,1.9,5.2,5V59h-2.3v-0.2c0-1.8-0.9-3-2.9-3s-3.2,1.4-3.2,3.4
			v3.3c0,2.1,1.2,3.4,3.2,3.4c2.1,0,2.9-1.2,2.9-2.9v-0.2h-3.5v-2h5.8v2.1c0,3.1-1.8,5-5.2,5c-3.4,0-5.5-2-5.5-5.6V59.4z"/>
		<path class="st2" d="M1630.1,54.2v9c0,1.8,1,2.9,3,2.9s3-1.1,3-2.9v-9h2.3v8.9c0,3.1-1.9,5-5.2,5c-3.3,0-5.2-1.9-5.2-5v-8.9
			C1628,54.2,1630.1,54.2,1630.1,54.2z"/>
		<path class="st2" d="M1646.3,54.2l3.2,11.3h0.2l3.2-11.3h4v13.7h-2.2V56.6h-0.2l-3.1,11.3h-3.4l-3.1-11.3h-0.2v11.3h-2.2V54.2
			H1646.3z"/>
		<path class="st2" d="M1669.8,54.2v2.1h-6.6V60h6v2h-6v3.8h6.7v2.1h-9V54.2H1669.8z"/>
		<path class="st2" d="M1677.5,54.2l3.7,11.6h0.2V54.2h2.3v13.7h-4.1l-3.7-11.6h-0.2v11.6h-2.3V54.2H1677.5z"/>
		<path class="st2" d="M1697.6,54.2v2.1h-4.3v11.6h-2.3V56.2h-4.3v-2.1L1697.6,54.2L1697.6,54.2z"/>
		<path class="st2" d="M1709.9,58.2v0.6h-2.2v-0.4c0-1.7-1.1-2.5-2.8-2.5c-1.4,0-2.4,0.7-2.4,1.8c0,1.3,1,1.6,2.8,2l0.5,0.1
			c2.7,0.6,4.3,1.6,4.3,4c0,2.6-2.1,4.2-5,4.2c-3.3,0-5.5-1.9-5.5-5v-0.5h2.2V63c0,1.9,1.1,3.1,3.3,3.1c1.7,0,2.7-0.9,2.7-2.1
			c0-1.2-0.9-1.7-2.7-2.1l-0.5-0.1c-2.6-0.6-4.4-1.5-4.4-4c0-2.4,2.1-3.9,4.7-3.9C1707.7,53.9,1709.9,55.4,1709.9,58.2z"/>
	</g>
	<g>
		<g>
			<path class="st2" d="M1593.3,324.9l4.3,13.7h-2.1l-1-3.3h-5.5l-1,3.3h-2.1l4.3-13.7H1593.3z M1594,333.5l-2.1-6.9h-0.2l-2.1,6.9
				H1594z"/>
			<path class="st2" d="M1609.2,338.5h-1.8V337h-0.3c-0.5,0.9-1.4,1.8-3.3,1.8c-2.5,0-4.5-2.1-4.5-5.1s2-5.1,4.5-5.1
				c1.9,0,2.8,0.9,3.3,1.8h0.2v-5.6h1.8v13.7H1609.2z M1601.2,333.8c0,2.2,1.3,3.4,3.1,3.4c1.9,0,3-1.3,3-3.4s-1.2-3.4-3-3.4
				C1602.5,330.3,1601.2,331.6,1601.2,333.8z"/>
			<path class="st2" d="M1613.7,329l2.8,7.8h0.2l2.8-7.8h2l-3.6,9.6h-2.6l-3.6-9.6H1613.7z"/>
			<path class="st2" d="M1624.9,324.6c0.8,0,1.5,0.6,1.5,1.4s-0.7,1.4-1.5,1.4s-1.5-0.6-1.5-1.4S1624.1,324.6,1624.9,324.6z
				 M1625.8,338.5h-1.8V329h1.8V338.5z"/>
			<path class="st2" d="M1633.7,328.7c2.6,0,4.3,1.6,4.6,3.7l-1.8,0.4c-0.2-1.3-1.2-2.4-2.8-2.4c-1.8,0-3.1,1.3-3.1,3.4
				c0,2,1.3,3.4,3.2,3.4c1.8,0,2.6-1.2,2.8-2.4l1.8,0.4c-0.4,1.8-1.8,3.7-4.6,3.7c-2.9,0-5-2.1-5-5.1
				C1628.7,330.8,1630.8,328.7,1633.7,328.7z"/>
			<path class="st2" d="M1645.3,328.7c2.8,0,4.7,2.1,4.7,4.8v0.9h-7.5c0.1,1.7,1.3,2.8,3,2.8c1.4,0,2.2-0.7,2.7-1.7l1.5,0.9
				c-0.7,1.2-2,2.4-4.2,2.4c-3,0-5-2.2-5-5.1C1640.5,330.9,1642.5,328.7,1645.3,328.7z M1648.1,332.9c0-1.6-1.1-2.7-2.8-2.7
				c-1.7,0-2.7,1-2.8,2.7H1648.1z"/>
			<path class="st2" d="M1656.2,328.7c2.1,0,3.7,1,4.8,2.5l-1.5,1c-0.8-1.5-2-2-3.2-2s-1.9,0.5-1.9,1.2s0.6,1.1,1.7,1.2l1.1,0.2
				c2.1,0.4,3.8,1.1,3.8,2.9s-1.6,3-3.9,3c-2.4,0-4.2-1.1-5.2-3l1.7-0.8c0.7,1.8,2.1,2.3,3.5,2.3s2.1-0.5,2.1-1.4
				c0-0.8-0.8-1.1-2.1-1.4l-1.1-0.2c-2-0.4-3.4-1.1-3.4-2.8S1654.2,328.7,1656.2,328.7z"/>
		</g>
	</g>
	<g>
		<g>
			<path class="st2" d="M1591.2,238.2c3.5,0,5.5,1.8,5.5,5.3v3c0,3.6-2.1,5.3-5.5,5.3h-4.2v-13.7L1591.2,238.2L1591.2,238.2z
				 M1588.9,250h2.2c2.4,0,3.6-1.1,3.6-3.6v-3c0-2.5-1.2-3.6-3.6-3.6h-2.2V250z"/>
			<path class="st2" d="M1600.7,237.9c0.8,0,1.5,0.6,1.5,1.4s-0.7,1.4-1.5,1.4s-1.5-0.6-1.5-1.4S1599.9,237.9,1600.7,237.9z
				 M1601.7,251.8h-1.8v-9.6h1.8V251.8z"/>
			<path class="st2" d="M1608.7,242c2.1,0,3.7,1,4.8,2.5l-1.5,1c-0.8-1.5-2-2-3.2-2s-1.9,0.5-1.9,1.2s0.6,1.1,1.7,1.2l1.1,0.2
				c2.1,0.4,3.8,1.1,3.8,2.9c0,1.8-1.6,3-3.9,3c-2.4,0-4.2-1.1-5.2-3l1.7-0.8c0.7,1.8,2.1,2.3,3.5,2.3s2.1-0.5,2.1-1.4
				c0-0.8-0.8-1.1-2.1-1.4l-1.1-0.2c-2-0.4-3.4-1.1-3.4-2.8S1606.6,242,1608.7,242z"/>
			<path class="st2" d="M1620.5,242c2.6,0,4.3,1.6,4.6,3.7l-1.8,0.4c-0.2-1.3-1.2-2.4-2.8-2.4c-1.8,0-3.1,1.3-3.1,3.4
				c0,2,1.3,3.4,3.2,3.4c1.8,0,2.6-1.2,2.8-2.4l1.8,0.4c-0.4,1.8-1.8,3.7-4.6,3.7c-2.9,0-5-2.1-5-5.1
				C1615.6,244.1,1617.7,242,1620.5,242z"/>
			<path class="st2" d="M1629.8,243.8h0.3c0.3-1,1.1-1.6,2.5-1.6h1.1v1.8h-1.7c-1.4,0-2.1,0.8-2.1,2.2v5.6h-1.8v-9.6h1.8v1.6H1629.8
				z"/>
			<path class="st2" d="M1637.1,237.9c0.8,0,1.5,0.6,1.5,1.4s-0.7,1.4-1.5,1.4s-1.5-0.6-1.5-1.4S1636.3,237.9,1637.1,237.9z
				 M1638,251.8h-1.8v-9.6h1.8V251.8z"/>
			<path class="st2" d="M1643.3,242.3v1.2h0.3c0.5-0.8,1.3-1.4,2.6-1.4c1.4,0,2.2,0.7,2.7,1.6h0.3c0.4-0.8,1.2-1.6,2.8-1.6
				c1.7,0,3.2,1.2,3.2,3.2v6.5h-1.8v-6.4c0-1.1-0.8-1.7-2-1.7s-2.1,0.7-2.1,2.2v6h-1.8v-6.4c0-1.1-0.8-1.7-1.9-1.7
				c-1.2,0-2.2,0.7-2.2,2.2v6h-1.8v-9.6h1.7V242.3z"/>
			<path class="st2" d="M1659.4,237.9c0.8,0,1.5,0.6,1.5,1.4s-0.7,1.4-1.5,1.4s-1.5-0.6-1.5-1.4S1658.6,237.9,1659.4,237.9z
				 M1660.4,251.8h-1.8v-9.6h1.8V251.8z"/>
			<path class="st2" d="M1665.7,242.3v1.6h0.3c0.4-0.9,1.3-1.8,3.2-1.8c2,0,3.7,1.3,3.7,4v5.8h-1.8v-5.6c0-1.7-0.9-2.5-2.5-2.5
				c-1.8,0-2.9,1.1-2.9,3.1v5h-1.8v-9.6H1665.7z"/>
			<path class="st2" d="M1680.5,242c2.5,0,4.2,1.5,4.2,3.8v6h-1.8v-1.5h-0.3c-0.4,0.9-1.4,1.8-3.4,1.8c-2.1,0-3.5-1.2-3.5-2.9
				s1.2-2.7,3.6-2.9l3.5-0.3v-0.3c0-1.4-1-2.2-2.5-2.2s-2.4,0.8-2.9,2l-1.6-0.8C1676.6,243.5,1678,242,1680.5,242z M1679.6,250.6
				c2.2,0,3.3-1.3,3.3-3v-0.2l-3.3,0.3c-1.1,0.1-2,0.4-2,1.4C1677.6,250,1678.3,250.6,1679.6,250.6z"/>
			<path class="st2" d="M1689.5,242.3V239h1.8v3.3h2.8v1.6h-2.8v5.8c0,0.4,0.2,0.5,0.5,0.5h1.8v1.6h-2.5c-0.9,0-1.6-0.7-1.6-1.6
				v-6.3h-2.7v-1.6H1689.5z"/>
			<path class="st2" d="M1697.8,237.9c0.8,0,1.5,0.6,1.5,1.4s-0.7,1.4-1.5,1.4s-1.5-0.6-1.5-1.4S1696.9,237.9,1697.8,237.9z
				 M1698.7,251.8h-1.8v-9.6h1.8V251.8z"/>
			<path class="st2" d="M1706.5,242c2.8,0,4.9,2.1,4.9,5.1s-2.1,5.1-4.9,5.1s-4.9-2.1-4.9-5.1S1703.7,242,1706.5,242z M1706.5,250.4
				c1.8,0,3.1-1.3,3.1-3.4c0-2.1-1.2-3.4-3.1-3.4c-1.8,0-3.1,1.3-3.1,3.4C1703.4,249.1,1704.6,250.4,1706.5,250.4z"/>
			<path class="st2" d="M1716.1,242.3v1.6h0.3c0.4-0.9,1.3-1.8,3.2-1.8c2,0,3.7,1.3,3.7,4v5.8h-1.8v-5.6c0-1.7-0.9-2.5-2.5-2.5
				c-1.8,0-2.9,1.1-2.9,3.1v5h-1.8v-9.6H1716.1z"/>
		</g>
	</g>
	<g>
		<g>
			<path class="st2" d="M1591.2,145.2c3.5,0,5.5,1.8,5.5,5.3v3c0,3.6-2.1,5.3-5.5,5.3h-4.2v-13.7L1591.2,145.2L1591.2,145.2z
				 M1588.9,157.1h2.2c2.4,0,3.6-1.1,3.6-3.6v-3c0-2.5-1.2-3.6-3.6-3.6h-2.2V157.1z"/>
			<path class="st2" d="M1604.1,149.1c2.8,0,4.9,2.1,4.9,5.1s-2.1,5.1-4.9,5.1s-4.9-2.1-4.9-5.1
				C1599.2,151.2,1601.3,149.1,1604.1,149.1z M1604.1,157.5c1.8,0,3.1-1.3,3.1-3.4c0-2.1-1.2-3.4-3.1-3.4c-1.8,0-3.1,1.3-3.1,3.4
				S1602.3,157.5,1604.1,157.5z"/>
			<path class="st2" d="M1619,158.9v-1.6h-0.3c-0.4,0.9-1.3,1.8-3.2,1.8c-2,0-3.7-1.3-3.7-4v-5.8h1.8v5.6c0,1.7,0.9,2.5,2.5,2.5
				c1.8,0,2.9-1.1,2.9-3.1v-5h1.8v9.6H1619z"/>
			<path class="st2" d="M1626.2,145.2v5.6h0.2c0.5-0.9,1.4-1.8,3.3-1.8c2.5,0,4.5,2.1,4.5,5.1s-2,5.1-4.5,5.1
				c-1.9,0-2.8-0.9-3.3-1.8h-0.3v1.5h-1.8v-13.7L1626.2,145.2L1626.2,145.2z M1626.2,154.1c0,2.1,1.2,3.4,3,3.4s3.1-1.2,3.1-3.4
				s-1.3-3.4-3.1-3.4C1627.3,150.7,1626.2,152,1626.2,154.1z"/>
			<path class="st2" d="M1638.9,158.9h-1.8v-13.7h1.8V158.9z"/>
			<path class="st2" d="M1646.5,149c2.8,0,4.7,2.1,4.7,4.8v0.9h-7.5c0.1,1.7,1.3,2.8,3,2.8c1.4,0,2.2-0.7,2.7-1.7l1.5,0.9
				c-0.7,1.2-2,2.4-4.2,2.4c-3,0-5-2.2-5-5.1C1641.8,151.2,1643.8,149,1646.5,149z M1649.3,153.3c0-1.6-1.1-2.7-2.8-2.7
				c-1.7,0-2.7,1-2.8,2.7H1649.3z"/>
			<path class="st2" d="M1670.1,149.3v0.6h-2v-0.5c0-1.8-1.2-2.7-3-2.7c-1.5,0-2.6,0.8-2.6,2s0.8,1.7,2.8,2.2l0.9,0.2
				c2.5,0.5,4.1,1.6,4.1,4c0,2.5-2.1,4.1-4.9,4.1c-3.3,0-5.4-2-5.4-5v-0.6h2v0.5c0,2.2,1.2,3.4,3.5,3.4c1.8,0,2.9-1,2.9-2.3
				s-0.9-1.8-2.6-2.2l-0.9-0.2c-2.4-0.5-4.2-1.4-4.2-4c0-2.3,2-3.8,4.6-3.8S1670.1,146.5,1670.1,149.3z"/>
			<path class="st2" d="M1674.8,149.3V146h1.8v3.3h2.8v1.6h-2.8v5.8c0,0.4,0.2,0.5,0.5,0.5h1.8v1.6h-2.5c-0.9,0-1.6-0.7-1.6-1.6
				v-6.3h-2.7v-1.6H1674.8z"/>
			<path class="st2" d="M1686.4,149.1c2.5,0,4.2,1.5,4.2,3.8v6h-1.8v-1.5h-0.3c-0.4,0.9-1.4,1.8-3.4,1.8c-2.1,0-3.5-1.2-3.5-2.9
				s1.2-2.7,3.6-2.9l3.5-0.3v-0.3c0-1.4-1-2.2-2.5-2.2s-2.4,0.8-2.9,2l-1.6-0.8C1682.5,150.6,1683.9,149.1,1686.4,149.1z
				 M1685.5,157.7c2.2,0,3.3-1.3,3.3-3v-0.2l-3.3,0.3c-1.1,0.1-2,0.4-2,1.4C1683.5,157.1,1684.2,157.7,1685.5,157.7z"/>
			<path class="st2" d="M1695.8,149.3v1.6h0.3c0.4-0.9,1.3-1.8,3.2-1.8c2,0,3.7,1.3,3.7,4v5.8h-1.8v-5.6c0-1.7-0.9-2.5-2.5-2.5
				c-1.8,0-2.9,1.1-2.9,3.1v5h-1.8v-9.6H1695.8z"/>
			<path class="st2" d="M1715.6,158.9h-1.8v-1.5h-0.3c-0.5,0.9-1.4,1.8-3.3,1.8c-2.5,0-4.5-2.1-4.5-5.1s2-5.1,4.5-5.1
				c1.9,0,2.8,0.9,3.3,1.8h0.2v-5.6h1.8v13.7H1715.6z M1707.6,154.1c0,2.2,1.3,3.4,3.1,3.4c1.9,0,3-1.3,3-3.4c0-2.1-1.2-3.4-3-3.4
				C1708.9,150.7,1707.6,151.9,1707.6,154.1z"/>
			<path class="st2" d="M1723.4,149.1c2.5,0,4.2,1.5,4.2,3.8v6h-1.8v-1.5h-0.3c-0.4,0.9-1.4,1.8-3.4,1.8c-2.1,0-3.5-1.2-3.5-2.9
				s1.2-2.7,3.6-2.9l3.5-0.3v-0.3c0-1.4-1-2.2-2.5-2.2s-2.4,0.8-2.9,2l-1.6-0.8C1719.5,150.6,1720.9,149.1,1723.4,149.1z
				 M1722.5,157.7c2.2,0,3.3-1.3,3.3-3v-0.2l-3.3,0.3c-1.1,0.1-2,0.4-2,1.4C1720.5,157.1,1721.2,157.7,1722.5,157.7z"/>
			<path class="st2" d="M1732.8,150.9h0.3c0.3-1,1.1-1.6,2.5-1.6h1.1v1.8h-1.7c-1.4,0-2.1,0.8-2.1,2.2v5.6h-1.8v-9.6h1.8v1.6H1732.8
				z"/>
			<path class="st2" d="M1747.8,158.9h-1.8v-1.5h-0.3c-0.5,0.9-1.4,1.8-3.3,1.8c-2.5,0-4.5-2.1-4.5-5.1s2-5.1,4.5-5.1
				c1.9,0,2.8,0.9,3.3,1.8h0.2v-5.6h1.8v13.7H1747.8z M1739.8,154.1c0,2.2,1.3,3.4,3.1,3.4c1.9,0,3-1.3,3-3.4c0-2.1-1.2-3.4-3-3.4
				C1741.1,150.7,1739.8,151.9,1739.8,154.1z"/>
		</g>
	</g>
	<g>
		<g>
			<path class="st2" d="M1595.5,397.5v1.8h-6.6v4.1h6.2v1.8h-6.2v6h-2v-13.7L1595.5,397.5L1595.5,397.5z"/>
			<path class="st2" d="M1602.2,401.3c2.5,0,4.2,1.5,4.2,3.8v6h-1.8v-1.5h-0.3c-0.4,0.9-1.4,1.8-3.4,1.8c-2.1,0-3.5-1.2-3.5-2.9
				c0-1.7,1.2-2.7,3.6-2.9l3.5-0.3V405c0-1.4-1-2.2-2.5-2.2s-2.4,0.8-2.9,2l-1.6-0.8C1598.3,402.8,1599.7,401.3,1602.2,401.3z
				 M1601.3,409.9c2.2,0,3.3-1.3,3.3-3v-0.2l-3.3,0.3c-1.1,0.1-2,0.4-2,1.4C1599.3,409.4,1600,409.9,1601.3,409.9z"/>
			<path class="st2" d="M1611.7,411.2h-1.8v-13.7h1.8V411.2z"/>
			<path class="st2" d="M1618.7,401.3c2.1,0,3.7,1,4.8,2.5l-1.5,1c-0.8-1.5-2-2-3.2-2s-1.9,0.5-1.9,1.2s0.6,1.1,1.7,1.2l1.1,0.2
				c2.1,0.4,3.8,1.1,3.8,2.9s-1.6,3-3.9,3c-2.4,0-4.2-1.1-5.2-3l1.7-0.8c0.7,1.8,2.1,2.3,3.5,2.3s2.1-0.5,2.1-1.4
				c0-0.8-0.8-1.1-2.1-1.4l-1.1-0.2c-2-0.4-3.4-1.1-3.4-2.8S1616.6,401.3,1618.7,401.3z"/>
			<path class="st2" d="M1630.4,401.3c2.8,0,4.7,2.1,4.7,4.8v0.9h-7.5c0.1,1.7,1.3,2.8,3,2.8c1.4,0,2.2-0.7,2.7-1.7l1.5,0.9
				c-0.7,1.2-2,2.4-4.2,2.4c-3,0-5-2.2-5-5.1C1625.6,403.5,1627.6,401.3,1630.4,401.3z M1633.1,405.6c0-1.6-1.1-2.7-2.8-2.7
				c-1.7,0-2.7,1-2.8,2.7H1633.1z"/>
			<path class="st2" d="M1650.8,397.5l4.3,13.7h-2.1l-1-3.3h-5.5l-1,3.3h-2.1l4.3-13.7H1650.8z M1651.5,406.1l-2.1-6.9h-0.2
				l-2.1,6.9H1651.5z"/>
			<path class="st2" d="M1661.8,401.3c2.6,0,4.3,1.6,4.6,3.7l-1.8,0.4c-0.2-1.3-1.2-2.4-2.8-2.4c-1.8,0-3.1,1.3-3.1,3.4
				c0,2,1.3,3.4,3.2,3.4c1.8,0,2.6-1.2,2.8-2.4l1.8,0.4c-0.4,1.8-1.8,3.7-4.6,3.7c-2.9,0-5-2.1-5-5.1S1659,401.3,1661.8,401.3z"/>
			<path class="st2" d="M1673.7,401.3c2.6,0,4.3,1.6,4.6,3.7l-1.8,0.4c-0.2-1.3-1.2-2.4-2.8-2.4c-1.8,0-3.1,1.3-3.1,3.4
				c0,2,1.3,3.4,3.2,3.4c1.8,0,2.6-1.2,2.8-2.4l1.8,0.4c-0.4,1.8-1.8,3.7-4.6,3.7c-2.9,0-5-2.1-5-5.1
				C1668.7,403.4,1670.8,401.3,1673.7,401.3z"/>
			<path class="st2" d="M1688.3,411.2v-1.6h-0.3c-0.4,0.9-1.3,1.8-3.2,1.8c-2,0-3.7-1.3-3.7-4v-5.8h1.8v5.6c0,1.7,0.9,2.5,2.5,2.5
				c1.8,0,2.9-1.1,2.9-3.1v-5h1.8v9.6H1688.3z"/>
			<path class="st2" d="M1697.1,401.3c2.1,0,3.7,1,4.8,2.5l-1.5,1c-0.8-1.5-2-2-3.2-2s-1.9,0.5-1.9,1.2s0.6,1.1,1.7,1.2l1.1,0.2
				c2.1,0.4,3.8,1.1,3.8,2.9s-1.6,3-3.9,3c-2.4,0-4.2-1.1-5.2-3l1.7-0.8c0.7,1.8,2.1,2.3,3.5,2.3s2.1-0.5,2.1-1.4
				c0-0.8-0.8-1.1-2.1-1.4l-1.1-0.2c-2-0.4-3.4-1.1-3.4-2.8S1695,401.3,1697.1,401.3z"/>
			<path class="st2" d="M1708.9,401.3c2.5,0,4.2,1.5,4.2,3.8v6h-1.8v-1.5h-0.3c-0.4,0.9-1.4,1.8-3.4,1.8c-2.1,0-3.5-1.2-3.5-2.9
				c0-1.7,1.2-2.7,3.6-2.9l3.5-0.3V405c0-1.4-1-2.2-2.5-2.2s-2.4,0.8-2.9,2l-1.6-0.8C1705,402.8,1706.3,401.3,1708.9,401.3z
				 M1707.9,409.9c2.2,0,3.3-1.3,3.3-3v-0.2l-3.3,0.3c-1.1,0.1-2,0.4-2,1.4C1706,409.4,1706.7,409.9,1707.9,409.9z"/>
			<path class="st2" d="M1717.8,401.6v-3.3h1.8v3.3h2.8v1.6h-2.8v5.8c0,0.4,0.2,0.5,0.5,0.5h1.8v1.6h-2.5c-0.9,0-1.6-0.7-1.6-1.6
				v-6.3h-2.7v-1.6H1717.8z"/>
			<path class="st2" d="M1726.1,397.2c0.8,0,1.5,0.6,1.5,1.4s-0.7,1.4-1.5,1.4s-1.5-0.6-1.5-1.4S1725.3,397.2,1726.1,397.2z
				 M1727,411.2h-1.8v-9.6h1.8V411.2z"/>
			<path class="st2" d="M1734.8,401.3c2.8,0,4.9,2.1,4.9,5.1s-2.1,5.1-4.9,5.1s-4.9-2.1-4.9-5.1S1732,401.3,1734.8,401.3z
				 M1734.8,409.7c1.8,0,3.1-1.3,3.1-3.4s-1.2-3.4-3.1-3.4c-1.8,0-3.1,1.3-3.1,3.4C1731.7,408.5,1733,409.7,1734.8,409.7z"/>
			<path class="st2" d="M1744.4,401.6v1.6h0.3c0.4-0.9,1.3-1.8,3.2-1.8c2,0,3.7,1.3,3.7,4v5.8h-1.8v-5.6c0-1.7-0.9-2.5-2.5-2.5
				c-1.8,0-2.9,1.1-2.9,3.1v5h-1.8v-9.6H1744.4z"/>
		</g>
	</g>
	<g>
		<g>
			<path class="st2" d="M1595.5,632.9v1.8h-6.6v4.1h6.2v1.8h-6.2v6h-2v-13.7L1595.5,632.9L1595.5,632.9z"/>
			<path class="st2" d="M1602.2,636.7c2.5,0,4.2,1.5,4.2,3.8v6h-1.8V645h-0.3c-0.4,0.9-1.4,1.8-3.4,1.8c-2.1,0-3.5-1.2-3.5-2.9
				s1.2-2.7,3.6-2.9l3.5-0.3v-0.3c0-1.4-1-2.2-2.5-2.2s-2.4,0.8-2.9,2l-1.6-0.8C1598.3,638.2,1599.7,636.7,1602.2,636.7z
				 M1601.3,645.3c2.2,0,3.3-1.3,3.3-3v-0.2l-3.3,0.3c-1.1,0.1-2,0.4-2,1.4S1600,645.3,1601.3,645.3z"/>
			<path class="st2" d="M1611.2,637v-3.3h1.8v3.3h2.8v1.6h-2.8v5.8c0,0.4,0.2,0.5,0.5,0.5h1.8v1.6h-2.5c-0.9,0-1.6-0.7-1.6-1.6v-6.3
				h-2.7V637H1611.2z"/>
			<path class="st2" d="M1620.4,632.9v5.7h0.2c0.4-0.9,1.3-1.8,3.2-1.8c2,0,3.7,1.3,3.7,4v5.8h-1.8V641c0-1.7-0.9-2.5-2.5-2.5
				c-1.8,0-2.9,1.1-2.9,3.1v5h-1.8v-13.7L1620.4,632.9L1620.4,632.9z"/>
			<path class="st2" d="M1635.1,636.7c2.8,0,4.7,2.1,4.7,4.8v0.9h-7.5c0.1,1.7,1.3,2.8,3,2.8c1.4,0,2.2-0.7,2.7-1.7l1.5,0.9
				c-0.7,1.2-2,2.4-4.2,2.4c-3,0-5-2.2-5-5.1C1630.3,638.9,1632.3,636.7,1635.1,636.7z M1637.9,641c0-1.6-1.1-2.7-2.8-2.7
				c-1.7,0-2.7,1-2.8,2.7H1637.9z"/>
			<path class="st2" d="M1644.3,638.6h0.3c0.3-1,1.1-1.6,2.5-1.6h1.1v1.8h-1.7c-1.4,0-2.1,0.8-2.1,2.2v5.6h-1.8V637h1.8v1.6H1644.3z
				"/>
			<path class="st2" d="M1654,636.7c2.1,0,3.7,1,4.8,2.5l-1.5,1c-0.8-1.5-2-2-3.2-2s-1.9,0.5-1.9,1.2s0.6,1.1,1.7,1.2l1.1,0.2
				c2.1,0.4,3.8,1.1,3.8,2.9c0,1.8-1.6,3-3.9,3c-2.4,0-4.2-1.1-5.2-3l1.7-0.8c0.7,1.8,2.1,2.3,3.5,2.3s2.1-0.5,2.1-1.4
				c0-0.8-0.8-1.1-2.1-1.4l-1.1-0.2c-2-0.4-3.4-1.1-3.4-2.8C1650.3,637.7,1651.9,636.7,1654,636.7z"/>
			<path class="st2" d="M1668.7,632.9l-5.7,17.6h-1.9l5.7-17.6H1668.7z"/>
			<path class="st2" d="M1676.8,632.6c3.3,0,5.1,2,5.1,4.9v0.4h-2v-0.3c0-1.9-1-3.2-3.2-3.2s-3.4,1.3-3.4,3.7v3.2
				c0,2.4,1.2,3.7,3.4,3.7s3.2-1.3,3.2-3.2v-0.3h2v0.3c0,3-1.8,5-5.1,5c-3.4,0-5.3-2-5.3-5.6v-3
				C1671.5,634.7,1673.4,632.6,1676.8,632.6z"/>
			<path class="st2" d="M1692,646.6V645h-0.3c-0.4,0.9-1.3,1.8-3.2,1.8c-2,0-3.7-1.3-3.7-4V637h1.8v5.6c0,1.7,0.9,2.5,2.5,2.5
				c1.8,0,2.9-1.1,2.9-3.1v-5h1.8v9.6H1692z"/>
			<path class="st2" d="M1700.8,636.7c2.1,0,3.7,1,4.8,2.5l-1.5,1c-0.8-1.5-2-2-3.2-2s-1.9,0.5-1.9,1.2s0.6,1.1,1.7,1.2l1.1,0.2
				c2.1,0.4,3.8,1.1,3.8,2.9c0,1.8-1.6,3-3.9,3c-2.4,0-4.2-1.1-5.2-3l1.7-0.8c0.7,1.8,2.1,2.3,3.5,2.3s2.1-0.5,2.1-1.4
				c0-0.8-0.8-1.1-2.1-1.4l-1.1-0.2c-2-0.4-3.4-1.1-3.4-2.8C1697.1,637.7,1698.7,636.7,1700.8,636.7z"/>
			<path class="st2" d="M1709.9,637v-3.3h1.8v3.3h2.8v1.6h-2.8v5.8c0,0.4,0.2,0.5,0.5,0.5h1.8v1.6h-2.5c-0.9,0-1.6-0.7-1.6-1.6v-6.3
				h-2.7V637H1709.9z"/>
			<path class="st2" d="M1721.4,636.7c2.8,0,4.9,2.1,4.9,5.1s-2.1,5.1-4.9,5.1s-4.9-2.1-4.9-5.1S1718.6,636.7,1721.4,636.7z
				 M1721.4,645.2c1.8,0,3.1-1.3,3.1-3.4s-1.2-3.4-3.1-3.4c-1.8,0-3.1,1.3-3.1,3.4S1719.6,645.2,1721.4,645.2z"/>
			<path class="st2" d="M1738.4,646.6h-1.8v-1.5h-0.3c-0.5,0.9-1.4,1.8-3.3,1.8c-2.5,0-4.5-2.1-4.5-5.1s2-5.1,4.5-5.1
				c1.9,0,2.8,0.9,3.3,1.8h0.2v-5.6h1.8v13.7H1738.4z M1730.4,641.8c0,2.2,1.3,3.4,3.1,3.4c1.9,0,3-1.3,3-3.4s-1.2-3.4-3-3.4
				C1731.7,638.4,1730.4,639.6,1730.4,641.8z"/>
			<path class="st2" d="M1751.1,637l-5.7,13.5h-2l1.6-3.7l-4.1-9.7h2l2.9,7.3h0.2l2.9-7.3L1751.1,637L1751.1,637z"/>
		</g>
	</g>
	<g>
		<g>
			<path class="st2" d="M1595.5,559.1v1.8h-6.6v4.1h6.2v1.8h-6.2v6h-2v-13.7L1595.5,559.1L1595.5,559.1z"/>
			<path class="st2" d="M1602.2,562.9c2.8,0,4.7,2.1,4.7,4.8v0.9h-7.5c0.1,1.7,1.3,2.8,3,2.8c1.4,0,2.2-0.7,2.7-1.7l1.5,0.9
				c-0.7,1.2-2,2.4-4.2,2.4c-3,0-5-2.2-5-5.1C1597.4,565.1,1599.4,562.9,1602.2,562.9z M1605,567.2c0-1.6-1.1-2.7-2.8-2.7
				c-1.7,0-2.7,1-2.8,2.7H1605z"/>
			<path class="st2" d="M1611.5,563.2v1.2h0.3c0.5-0.8,1.3-1.4,2.6-1.4c1.4,0,2.2,0.7,2.7,1.6h0.3c0.4-0.8,1.2-1.6,2.8-1.6
				c1.7,0,3.2,1.2,3.2,3.2v6.5h-1.8v-6.4c0-1.1-0.8-1.7-2-1.7s-2.1,0.7-2.1,2.2v6h-1.8v-6.4c0-1.1-0.8-1.7-1.9-1.7
				c-1.2,0-2.2,0.7-2.2,2.2v6h-1.8v-9.6L1611.5,563.2L1611.5,563.2z"/>
			<path class="st2" d="M1627.6,558.9c0.8,0,1.5,0.6,1.5,1.4s-0.7,1.4-1.5,1.4s-1.5-0.6-1.5-1.4S1626.8,558.9,1627.6,558.9z
				 M1628.5,572.8h-1.8v-9.6h1.8V572.8z"/>
			<path class="st2" d="M1633.9,563.2v1.6h0.3c0.4-0.9,1.3-1.8,3.2-1.8c2,0,3.7,1.3,3.7,4v5.8h-1.8v-5.6c0-1.7-0.9-2.5-2.5-2.5
				c-1.8,0-2.9,1.1-2.9,3.1v5h-1.8v-9.6H1633.9z"/>
			<path class="st2" d="M1645.4,558.9c0.8,0,1.5,0.6,1.5,1.4s-0.7,1.4-1.5,1.4s-1.5-0.6-1.5-1.4S1644.6,558.9,1645.4,558.9z
				 M1646.3,572.8h-1.8v-9.6h1.8V572.8z"/>
			<path class="st2" d="M1653.3,563c2.1,0,3.7,1,4.8,2.5l-1.5,1c-0.8-1.5-2-2-3.2-2s-1.9,0.5-1.9,1.2s0.6,1.1,1.7,1.2l1.1,0.2
				c2.1,0.4,3.8,1.1,3.8,2.9c0,1.8-1.6,3-3.9,3c-2.4,0-4.2-1.1-5.2-3l1.7-0.8c0.7,1.8,2.1,2.3,3.5,2.3s2.1-0.5,2.1-1.4
				c0-0.8-0.8-1.1-2.1-1.4l-1.1-0.2c-2-0.4-3.4-1.1-3.4-2.8C1649.6,564,1651.3,563,1653.3,563z"/>
			<path class="st2" d="M1662.7,563.2v1.2h0.3c0.5-0.8,1.3-1.4,2.6-1.4c1.4,0,2.2,0.7,2.7,1.6h0.3c0.4-0.8,1.2-1.6,2.8-1.6
				c1.7,0,3.2,1.2,3.2,3.2v6.5h-1.8v-6.4c0-1.1-0.8-1.7-2-1.7s-2.1,0.7-2.1,2.2v6h-1.8v-6.4c0-1.1-0.8-1.7-1.9-1.7
				c-1.2,0-2.2,0.7-2.2,2.2v6h-1.8v-9.6L1662.7,563.2L1662.7,563.2z"/>
		</g>
	</g>
	<g>
		<g>
			<path class="st2" d="M1588.9,599.2v13.7h-2v-13.7H1588.9z"/>
			<path class="st2" d="M1594.3,603.3v1.6h0.3c0.4-0.9,1.3-1.8,3.2-1.8c2,0,3.7,1.3,3.7,4v5.8h-1.8v-5.6c0-1.7-0.9-2.5-2.5-2.5
				c-1.8,0-2.9,1.1-2.9,3.1v5h-1.8v-9.6H1594.3z"/>
			<path class="st2" d="M1606.3,603.3v-2.4c0-1,0.7-1.7,1.6-1.7h2.4v1.6h-1.7c-0.4,0-0.5,0.2-0.5,0.5v2h2.7v1.6h-2.7v8h-1.8v-8h-2.7
				v-1.6L1606.3,603.3L1606.3,603.3z"/>
			<path class="st2" d="M1617.3,603c2.8,0,4.7,2.1,4.7,4.8v0.9h-7.5c0.1,1.7,1.3,2.8,3,2.8c1.4,0,2.2-0.7,2.7-1.7l1.5,0.9
				c-0.7,1.2-2,2.4-4.2,2.4c-3,0-5-2.2-5-5.1C1612.5,605.2,1614.5,603,1617.3,603z M1620.1,607.3c0-1.6-1.1-2.7-2.8-2.7
				c-1.7,0-2.7,1-2.8,2.7H1620.1z"/>
			<path class="st2" d="M1626.5,604.9h0.3c0.3-1,1.1-1.6,2.5-1.6h1.1v1.8h-1.7c-1.4,0-2.1,0.8-2.1,2.2v5.6h-1.8v-9.6h1.8v1.6H1626.5
				z"/>
			<path class="st2" d="M1633.8,599c0.8,0,1.5,0.6,1.5,1.4s-0.7,1.4-1.5,1.4s-1.5-0.6-1.5-1.4S1633,599,1633.8,599z M1634.7,612.9
				h-1.8v-9.6h1.8V612.9z"/>
			<path class="st2" d="M1642.5,603.1c2.8,0,4.9,2.1,4.9,5.1s-2.1,5.1-4.9,5.1s-4.9-2.1-4.9-5.1
				C1637.6,605.1,1639.7,603.1,1642.5,603.1z M1642.5,611.5c1.8,0,3.1-1.3,3.1-3.4s-1.2-3.4-3.1-3.4c-1.8,0-3.1,1.3-3.1,3.4
				S1640.7,611.5,1642.5,611.5z"/>
			<path class="st2" d="M1652.1,604.9h0.3c0.3-1,1.1-1.6,2.5-1.6h1.1v1.8h-1.7c-1.4,0-2.1,0.8-2.1,2.2v5.6h-1.8v-9.6h1.8v1.6H1652.1
				z"/>
			<path class="st2" d="M1659.4,599c0.8,0,1.5,0.6,1.5,1.4s-0.7,1.4-1.5,1.4s-1.5-0.6-1.5-1.4S1658.6,599,1659.4,599z M1660.3,612.9
				h-1.8v-9.6h1.8V612.9z"/>
			<path class="st2" d="M1665.4,603.3V600h1.8v3.3h2.8v1.6h-2.8v5.8c0,0.4,0.2,0.5,0.5,0.5h1.8v1.6h-2.5c-0.9,0-1.6-0.7-1.6-1.6
				v-6.3h-2.7v-1.6H1665.4z"/>
			<path class="st2" d="M1681.8,603.3l-5.7,13.5h-2l1.6-3.7l-4.1-9.7h2l2.9,7.3h0.2l2.9-7.3L1681.8,603.3L1681.8,603.3z"/>
		</g>
	</g>
	<g>
		<g>
			<path class="st2" d="M1590.5,457.1l3.5,11.6h0.2l3.5-11.6h3.5v13.7h-2v-11.6h-0.2l-3.5,11.6h-2.9l-3.5-11.6h-0.2v11.6h-2v-13.7
				H1590.5z"/>
			<path class="st2" d="M1609,461c2.5,0,4.2,1.5,4.2,3.8v6h-1.8v-1.5h-0.3c-0.4,0.9-1.4,1.8-3.4,1.8c-2.1,0-3.5-1.2-3.5-2.9
				c0-1.7,1.2-2.7,3.6-2.9l3.5-0.3v-0.3c0-1.4-1-2.2-2.5-2.2s-2.4,0.8-2.9,2l-1.6-0.8C1605.1,462.5,1606.5,461,1609,461z
				 M1608.1,469.5c2.2,0,3.3-1.3,3.3-3v-0.2l-3.3,0.3c-1.1,0.1-2,0.4-2,1.4C1606.1,469,1606.8,469.5,1608.1,469.5z"/>
			<path class="st2" d="M1618.4,462.8h0.3c0.3-1,1.1-1.6,2.5-1.6h1.1v1.8h-1.7c-1.4,0-2.1,0.8-2.1,2.2v5.6h-1.8v-9.6h1.8v1.6H1618.4
				z"/>
			<path class="st2" d="M1626.5,462.8h0.3c0.3-1,1.1-1.6,2.5-1.6h1.1v1.8h-1.7c-1.4,0-2.1,0.8-2.1,2.2v5.6h-1.8v-9.6h1.8v1.6H1626.5
				z"/>
			<path class="st2" d="M1633.8,456.9c0.8,0,1.5,0.6,1.5,1.4s-0.7,1.4-1.5,1.4s-1.5-0.6-1.5-1.4S1632.9,456.9,1633.8,456.9z
				 M1634.7,470.8h-1.8v-9.6h1.8V470.8z"/>
			<path class="st2" d="M1642.5,461c2.5,0,4.2,1.5,4.2,3.8v6h-1.8v-1.5h-0.3c-0.4,0.9-1.4,1.8-3.4,1.8c-2.1,0-3.5-1.2-3.5-2.9
				c0-1.7,1.2-2.7,3.6-2.9l3.5-0.3v-0.3c0-1.4-1-2.2-2.5-2.2s-2.4,0.8-2.9,2l-1.6-0.8C1638.6,462.5,1639.9,461,1642.5,461z
				 M1641.5,469.5c2.2,0,3.3-1.3,3.3-3v-0.2l-3.3,0.3c-1.1,0.1-2,0.4-2,1.4C1639.5,469,1640.3,469.5,1641.5,469.5z"/>
			<path class="st2" d="M1659.3,461.2v9.3c0,2.6-1.8,4.5-4.7,4.5c-2.6,0-4-1.3-5-2.7l1.6-1c0.5,1,1.5,2,3.2,2c1.8,0,3-0.9,3-2.9
				v-1.3h-0.2c-0.5,0.9-1.4,1.8-3.3,1.8c-2.5,0-4.5-2-4.5-4.9s2-4.9,4.5-4.9c1.9,0,2.8,0.9,3.3,1.8h0.3v-1.5h1.8V461.2z
				 M1657.4,465.9c0-2-1.2-3.3-3-3.3s-3.1,1.2-3.1,3.3c0,2.1,1.3,3.3,3.1,3.3C1656.3,469.2,1657.4,467.9,1657.4,465.9z"/>
			<path class="st2" d="M1666.9,460.9c2.8,0,4.7,2.1,4.7,4.8v0.9h-7.5c0.1,1.7,1.3,2.8,3,2.8c1.4,0,2.2-0.7,2.7-1.7l1.5,0.9
				c-0.7,1.2-2,2.4-4.2,2.4c-3,0-5-2.2-5-5.1C1662.1,463.1,1664.1,460.9,1666.9,460.9z M1669.7,465.2c0-1.6-1.1-2.7-2.8-2.7
				c-1.7,0-2.7,1-2.8,2.7H1669.7z"/>
			<path class="st2" d="M1681.4,457.1l-5.7,17.6h-1.9l5.7-17.6H1681.4z"/>
			<path class="st2" d="M1688.8,457.1c3.5,0,5.5,1.8,5.5,5.3v3c0,3.6-2.1,5.3-5.5,5.3h-4.2V457h4.2V457.1z M1686.5,469h2.2
				c2.4,0,3.6-1.1,3.6-3.6v-3c0-2.5-1.2-3.6-3.6-3.6h-2.2V469z"/>
			<path class="st2" d="M1698.3,456.9c0.8,0,1.5,0.6,1.5,1.4s-0.7,1.4-1.5,1.4s-1.5-0.6-1.5-1.4S1697.5,456.9,1698.3,456.9z
				 M1699.3,470.8h-1.8v-9.6h1.8V470.8z"/>
			<path class="st2" d="M1703.8,461.2l2.8,7.8h0.2l2.8-7.8h2l-3.6,9.6h-2.6l-3.6-9.6H1703.8z"/>
			<path class="st2" d="M1718.2,461c2.8,0,4.9,2.1,4.9,5.1s-2.1,5.1-4.9,5.1s-4.9-2.1-4.9-5.1C1713.3,463.1,1715.4,461,1718.2,461z
				 M1718.2,469.4c1.8,0,3.1-1.3,3.1-3.4s-1.2-3.4-3.1-3.4c-1.8,0-3.1,1.3-3.1,3.4S1716.4,469.4,1718.2,469.4z"/>
			<path class="st2" d="M1727.8,462.8h0.3c0.3-1,1.1-1.6,2.5-1.6h1.1v1.8h-1.7c-1.4,0-2.1,0.8-2.1,2.2v5.6h-1.8v-9.6h1.8v1.6H1727.8
				z"/>
			<path class="st2" d="M1738,461c2.6,0,4.3,1.6,4.6,3.7l-1.8,0.4c-0.2-1.3-1.2-2.4-2.8-2.4c-1.8,0-3.1,1.3-3.1,3.4
				c0,2,1.3,3.4,3.2,3.4c1.8,0,2.6-1.2,2.8-2.4l1.8,0.4c-0.4,1.8-1.8,3.7-4.6,3.7c-2.9,0-5-2.1-5-5.1
				C1733,463.1,1735.1,461,1738,461z"/>
			<path class="st2" d="M1749.6,460.9c2.8,0,4.7,2.1,4.7,4.8v0.9h-7.5c0.1,1.7,1.3,2.8,3,2.8c1.4,0,2.2-0.7,2.7-1.7l1.5,0.9
				c-0.7,1.2-2,2.4-4.2,2.4c-3,0-5-2.2-5-5.1C1744.8,463.1,1746.8,460.9,1749.6,460.9z M1752.4,465.2c0-1.6-1.1-2.7-2.8-2.7
				c-1.7,0-2.7,1-2.8,2.7H1752.4z"/>
		</g>
	</g>
	<g>
		<g>
			<path class="st2" d="M1588.1,509.2l1.6,11.9h0.2l2-11.9h3.2l2,11.9h0.2l1.6-11.9h2l-1.9,13.7h-3.4l-2-11.9h-0.2l-2,11.9h-3.4
				l-1.9-13.7H1588.1z"/>
			<path class="st2" d="M1607.6,513c2.8,0,4.9,2.1,4.9,5.1s-2.1,5.1-4.9,5.1s-4.9-2.1-4.9-5.1S1604.8,513,1607.6,513z M1607.6,521.4
				c1.8,0,3.1-1.3,3.1-3.4c0-2.1-1.2-3.4-3.1-3.4c-1.8,0-3.1,1.3-3.1,3.4C1604.6,520.2,1605.8,521.4,1607.6,521.4z"/>
			<path class="st2" d="M1617.2,513.3v1.2h0.3c0.5-0.8,1.3-1.4,2.6-1.4c1.4,0,2.2,0.7,2.7,1.6h0.3c0.4-0.8,1.2-1.6,2.8-1.6
				c1.7,0,3.2,1.2,3.2,3.2v6.5h-1.8v-6.4c0-1.1-0.8-1.7-2-1.7s-2.1,0.7-2.1,2.2v6h-1.8v-6.4c0-1.1-0.8-1.7-1.9-1.7
				c-1.2,0-2.2,0.7-2.2,2.2v6h-1.8v-9.6L1617.2,513.3L1617.2,513.3z"/>
			<path class="st2" d="M1636.6,513c2.8,0,4.7,2.1,4.7,4.8v0.9h-7.5c0.1,1.7,1.3,2.8,3,2.8c1.4,0,2.2-0.7,2.7-1.7l1.5,0.9
				c-0.7,1.2-2,2.4-4.2,2.4c-3,0-5-2.2-5-5.1C1631.8,515.2,1633.8,513,1636.6,513z M1639.4,517.2c0-1.6-1.1-2.7-2.8-2.7
				c-1.7,0-2.7,1-2.8,2.7H1639.4z"/>
			<path class="st2" d="M1645.9,513.3v1.6h0.3c0.4-0.9,1.3-1.8,3.2-1.8c2,0,3.7,1.3,3.7,4v5.8h-1.8v-5.6c0-1.7-0.9-2.5-2.5-2.5
				c-1.8,0-2.9,1.1-2.9,3.1v5h-1.8v-9.6H1645.9z"/>
			<path class="st2" d="M1668.8,509.2c2.4,0,4,1.3,4,3.7c0,1.6-0.9,2.7-2.3,3v0.2c1.3,0.4,2.3,1.4,2.3,3c0,2.3-1.7,3.7-4,3.7h-5.7
				v-13.7L1668.8,509.2L1668.8,509.2z M1665.1,515.1h3.6c1.4,0,2.3-0.8,2.3-2.1c0-1.2-1-2-2.3-2h-3.5L1665.1,515.1L1665.1,515.1z
				 M1665.1,521h3.6c1.4,0,2.3-0.8,2.3-2c0-1.3-0.9-2.1-2.3-2.1h-3.6V521z"/>
			<path class="st2" d="M1680,513c2.8,0,4.7,2.1,4.7,4.8v0.9h-7.5c0.1,1.7,1.3,2.8,3,2.8c1.4,0,2.2-0.7,2.7-1.7l1.5,0.9
				c-0.7,1.2-2,2.4-4.2,2.4c-3,0-5-2.2-5-5.1C1675.3,515.2,1677.3,513,1680,513z M1682.8,517.2c0-1.6-1.1-2.7-2.8-2.7
				c-1.7,0-2.7,1-2.8,2.7H1682.8z"/>
			<path class="st2" d="M1689.4,509.2v5.7h0.2c0.4-0.9,1.3-1.8,3.2-1.8c2,0,3.7,1.3,3.7,4v5.8h-1.8v-5.6c0-1.7-0.9-2.5-2.5-2.5
				c-1.8,0-2.9,1.1-2.9,3.1v5h-1.8v-13.7H1689.4z"/>
			<path class="st2" d="M1704.2,513c2.5,0,4.2,1.5,4.2,3.8v6h-1.8v-1.5h-0.3c-0.4,0.9-1.4,1.8-3.4,1.8c-2.1,0-3.5-1.2-3.5-2.9
				s1.2-2.7,3.6-2.9l3.5-0.3v-0.3c0-1.4-1-2.2-2.5-2.2s-2.4,0.8-2.9,2l-1.6-0.8C1700.3,514.5,1701.7,513,1704.2,513z M1703.3,521.6
				c2.2,0,3.3-1.3,3.3-3v-0.2l-3.3,0.3c-1.1,0.1-2,0.4-2,1.4C1701.3,521,1702,521.6,1703.3,521.6z"/>
			<path class="st2" d="M1712.3,513.3l2.8,7.8h0.2l2.8-7.8h2l-3.6,9.6h-2.6l-3.6-9.6H1712.3z"/>
			<path class="st2" d="M1723.6,508.9c0.8,0,1.5,0.6,1.5,1.4s-0.7,1.4-1.5,1.4s-1.5-0.6-1.5-1.4S1722.7,508.9,1723.6,508.9z
				 M1724.5,522.8h-1.8v-9.6h1.8V522.8z"/>
			<path class="st2" d="M1732.3,513c2.8,0,4.9,2.1,4.9,5.1s-2.1,5.1-4.9,5.1s-4.9-2.1-4.9-5.1S1729.5,513,1732.3,513z M1732.3,521.4
				c1.8,0,3.1-1.3,3.1-3.4c0-2.1-1.2-3.4-3.1-3.4c-1.8,0-3.1,1.3-3.1,3.4C1729.2,520.2,1730.4,521.4,1732.3,521.4z"/>
			<path class="st2" d="M1747.2,522.8v-1.6h-0.3c-0.4,0.9-1.3,1.8-3.2,1.8c-2,0-3.7-1.3-3.7-4v-5.8h1.8v5.6c0,1.7,0.9,2.5,2.5,2.5
				c1.8,0,2.9-1.1,2.9-3.1v-5h1.8v9.6H1747.2z"/>
			<path class="st2" d="M1754.3,514.8h0.3c0.3-1,1.1-1.6,2.5-1.6h1.1v1.8h-1.7c-1.4,0-2.1,0.8-2.1,2.2v5.6h-1.8v-9.6h1.8v1.6H1754.3
				z"/>
		</g>
	</g>
	<rect x="1553.7" y="109.3" class="st2" width="10.7" height="89.3"/>
	<rect x="1553.7" y="209.1" class="st2" width="10.7" height="82.2"/>
	<rect x="1553.7" y="301.9" class="st2" width="10.7" height="71.1"/>
	<rect x="1553.7" y="383.9" class="st2" width="10.7" height="49.6"/>
	<rect x="1553.7" y="444.3" class="st2" width="10.7" height="42.7"/>
	<rect x="1553.7" y="497.9" class="st2" width="10.7" height="42.7"/>
	<rect x="1553.7" y="551.7" class="st2" width="10.7" height="31.8"/>
	<rect x="1553.7" y="594.1" class="st2" width="10.7" height="25.1"/>
	<rect x="1553.7" y="630.1" class="st2" width="10.7" height="21.3"/>
	<line class="st13" x1="664.3" y1="78.8" x2="1564.4" y2="78.8"/>
	<g>
		<path class="st2" d="M963.5,53.6c2.7,0,4.9,1.8,4.9,4.6c0,2.9-1.9,4.1-4.8,4.9c-2,0.6-3,1-3,2.5v0.2h7.6v2.1h-9.9v-2.1
			c0-2.6,1.7-3.8,4.3-4.5c2.2-0.7,3.5-1.4,3.5-3.2c0-1.5-1.1-2.4-2.6-2.4c-1.7,0-2.9,0.9-2.9,2.8V59h-2.3v-0.5
			C958.3,55.4,960.6,53.6,963.5,53.6z"/>
		<path class="st2" d="M980.2,53.9V56h-7.1v4h0.2c0.5-0.8,1.3-1.6,3.2-1.6c2.3,0,4.2,1.8,4.2,4.5c0,3-2.1,5.2-5.1,5.2
			c-3.1,0-5.3-1.9-5.3-4.9v-0.3h2.3v0.2c0,1.8,1,2.9,2.9,2.9c1.8,0,2.9-1.2,2.9-3c0-1.6-1-2.6-2.4-2.6c-1.1,0-1.7,0.6-1.9,1.1h-3.3
			v-7.6H980.2z"/>
		<path class="st2" d="M995.5,53.9c2.6,0,4.4,1.7,4.4,4.3c0,2.6-1.9,4.3-4.4,4.3h-3.3v5.4h-2.3v-14H995.5z M992.2,60.4h3
			c1.4,0,2.3-0.8,2.3-2.2s-0.9-2.2-2.3-2.2h-3V60.4z"/>
		<path class="st2" d="M1007.4,53.6c3.5,0,5.6,2.2,5.6,5.8v3c0,3.6-2.1,5.8-5.6,5.8c-3.5,0-5.6-2.1-5.6-5.8v-3
			C1001.8,55.8,1004,53.6,1007.4,53.6z M1004.2,62.5c0,2.2,1.1,3.6,3.3,3.6c2.3,0,3.3-1.4,3.3-3.6v-3.2c0-2.2-1.1-3.6-3.3-3.6
			c-2.2,0-3.3,1.4-3.3,3.6V62.5z"/>
		<path class="st2" d="M1025.7,58v0.6h-2.3v-0.5c0-1.7-1.1-2.5-2.9-2.5c-1.5,0-2.5,0.8-2.5,1.9c0,1.3,1,1.7,2.9,2.1l0.5,0.1
			c2.7,0.6,4.4,1.7,4.4,4.1c0,2.7-2.2,4.3-5.1,4.3c-3.4,0-5.6-1.9-5.6-5.1v-0.5h2.3V63c0,2,1.1,3.2,3.3,3.2c1.8,0,2.7-1,2.7-2.1
			c0-1.3-1-1.8-2.8-2.1l-0.5-0.1c-2.7-0.6-4.5-1.6-4.5-4.1c0-2.4,2.1-4,4.8-4C1023.5,53.6,1025.7,55.2,1025.7,58z"/>
		<path class="st2" d="M1038.7,53.9V56h-4.4v11.9h-2.3V56h-4.4v-2.1H1038.7z"/>
		<path class="st2" d="M1050.5,58v0.6h-2.3v-0.5c0-1.7-1.1-2.5-2.9-2.5c-1.5,0-2.5,0.8-2.5,1.9c0,1.3,1,1.7,2.9,2.1l0.5,0.1
			c2.7,0.6,4.4,1.7,4.4,4.1c0,2.7-2.2,4.3-5.1,4.3c-3.4,0-5.6-1.9-5.6-5.1v-0.5h2.3V63c0,2,1.1,3.2,3.3,3.2c1.8,0,2.7-1,2.7-2.1
			c0-1.3-1-1.8-2.8-2.1l-0.5-0.1c-2.7-0.6-4.5-1.6-4.5-4.1c0-2.4,2.1-4,4.8-4C1048.3,53.6,1050.5,55.2,1050.5,58z"/>
		<path class="st2" d="M1068.9,53.9V56h-6.5v3.8h6.1v2.1h-6.1v6h-2.3v-14H1068.9z"/>
		<path class="st2" d="M1076.5,53.6c3.5,0,5.6,2.2,5.6,5.8v3c0,3.6-2.1,5.8-5.6,5.8c-3.5,0-5.6-2.1-5.6-5.8v-3
			C1070.9,55.8,1073,53.6,1076.5,53.6z M1073.2,62.5c0,2.2,1.1,3.6,3.3,3.6c2.3,0,3.3-1.4,3.3-3.6v-3.2c0-2.2-1.1-3.6-3.3-3.6
			c-2.2,0-3.3,1.4-3.3,3.6V62.5z"/>
		<path class="st2" d="M1092.2,62.3l3,5.6h-2.6l-2.8-5.5h-2.5v5.5h-2.3v-14h6c2.6,0,4.4,1.7,4.4,4.3
			C1095.4,60.3,1094.1,61.8,1092.2,62.3z M1087.3,60.3h3.4c1.4,0,2.3-0.8,2.3-2.1c0-1.4-0.9-2.2-2.3-2.2h-3.4V60.3z"/>
		<path class="st2" d="M1113.7,53.9V56h-6.8v3.8h6.2v2.1h-6.2v3.9h6.9v2.1h-9.2v-14H1113.7z"/>
		<path class="st2" d="M1123.3,53.9l4.1,14h-2.4l-0.9-3.2h-5.3l-0.9,3.2h-2.4l4.1-14H1123.3z M1123.5,62.5l-1.9-6.7h-0.2l-1.9,6.7
			H1123.5z"/>
		<path class="st2" d="M1134.5,53.6c3.5,0,5.4,2,5.4,5.1v0.4h-2.3v-0.4c0-1.8-1-3-3.1-3c-2.1,0-3.3,1.4-3.3,3.5v3.4
			c0,2.2,1.2,3.5,3.3,3.5c2.2,0,3.1-1.2,3.1-3v-0.4h2.3v0.4c0,3.1-1.8,5.1-5.4,5.1c-3.4,0-5.6-2-5.6-5.7v-3.2
			C1128.9,55.8,1131.1,53.6,1134.5,53.6z"/>
		<path class="st2" d="M1145,53.9v5.9h5.7v-5.9h2.3v14h-2.3v-6h-5.7v6h-2.3v-14H1145z"/>
		<path class="st2" d="M1172.7,58v0.6h-2.3v-0.5c0-1.7-1.1-2.5-2.9-2.5c-1.5,0-2.5,0.8-2.5,1.9c0,1.3,1,1.7,2.9,2.1l0.5,0.1
			c2.7,0.6,4.4,1.7,4.4,4.1c0,2.7-2.2,4.3-5.1,4.3c-3.4,0-5.6-1.9-5.6-5.1v-0.5h2.3V63c0,2,1.1,3.2,3.3,3.2c1.8,0,2.7-1,2.7-2.1
			c0-1.3-1-1.8-2.8-2.1l-0.5-0.1c-2.7-0.6-4.5-1.6-4.5-4.1c0-2.4,2.1-4,4.8-4C1170.5,53.6,1172.7,55.2,1172.7,58z"/>
		<path class="st2" d="M1178.1,53.9v9.2c0,1.9,1.1,3,3,3c2,0,3-1.1,3-3v-9.2h2.3v9.2c0,3.2-1.9,5.1-5.4,5.1c-3.4,0-5.4-1.9-5.4-5.1
			v-9.2H1178.1z"/>
		<path class="st2" d="M1195.9,53.9c2.4,0,4.1,1.4,4.1,3.8c0,1.7-1,2.7-2.3,3.1V61c1.4,0.4,2.4,1.4,2.4,3.1c0,2.3-1.7,3.8-4.1,3.8
			h-6.1v-14H1195.9z M1192.1,59.8h3.6c1.3,0,2.1-0.7,2.1-1.9c0-1.2-0.9-1.9-2.1-1.9h-3.5V59.8z M1192.1,65.8h3.6
			c1.3,0,2.1-0.7,2.1-1.9c0-1.2-0.8-1.9-2.1-1.9h-3.6V65.8z"/>
		<path class="st2" d="M1210.1,62.3l3,5.6h-2.6l-2.8-5.5h-2.5v5.5h-2.3v-14h6c2.6,0,4.4,1.7,4.4,4.3
			C1213.3,60.3,1212,61.8,1210.1,62.3z M1205.2,60.3h3.4c1.4,0,2.3-0.8,2.3-2.1c0-1.4-0.9-2.2-2.3-2.2h-3.4V60.3z"/>
		<path class="st2" d="M1225.1,53.9V56h-6.8v3.8h6.2v2.1h-6.2v3.9h6.9v2.1h-9.2v-14H1225.1z"/>
		<path class="st2" d="M1232.5,53.9c3.7,0,5.7,1.8,5.7,5.6v2.9c0,3.7-2.1,5.6-5.7,5.6h-4.6v-14H1232.5z M1230.3,65.8h2.2
			c2.4,0,3.4-1.1,3.4-3.4v-2.9c0-2.3-1-3.4-3.4-3.4h-2.2V65.8z"/>
		<path class="st2" d="M1245.7,53.9c3.7,0,5.7,1.8,5.7,5.6v2.9c0,3.7-2.1,5.6-5.7,5.6h-4.6v-14H1245.7z M1243.4,65.8h2.2
			c2.4,0,3.4-1.1,3.4-3.4v-2.9c0-2.3-1-3.4-3.4-3.4h-2.2V65.8z"/>
		<path class="st2" d="M1256.6,53.9v14h-2.3v-14H1256.6z"/>
		<path class="st2" d="M1270.1,53.9V56h-4.4v11.9h-2.3V56h-4.4v-2.1H1270.1z"/>
	</g>
</g>
</svg>
