<?xml version="1.0" encoding="utf-8"?>
<!-- Generator: Adobe Illustrator 23.0.1, SVG Export Plug-In . SVG Version: 6.00 Build 0)  -->
<svg version="1.1" id="Livello_1" xmlns="http://www.w3.org/2000/svg" xmlns:xlink="http://www.w3.org/1999/xlink" x="0px" y="0px"
	 viewBox="0 0 1811.9 854.5" style="enable-background:new 0 0 1811.9 854.5;" xml:space="preserve">
<style type="text/css">
<!--
.st0{fill:none;}
.st1{fill:none;stroke:#58626B;stroke-width:3;}
.st2{fill:none;stroke:#E31A1C;stroke-width:3;}
.st3{fill:#1B2029;}
.st4{fill:#FF8D8D;stroke:#FFFFFF;stroke-width:17;stroke-miterlimit:10;stroke-dasharray:12;}
.st5{fill:#FFFFFF;}
.st6{fill:#58626B;}
.st7{fill:url(#SVGID_1_);}
.st8{fill:url(#SVGID_2_);}
.st9{fill:none;stroke:#58626B;stroke-width:3;stroke-linecap:round;}
.st10{fill:none;stroke:#1B2029;stroke-width:3;stroke-miterlimit:10;}
.st11{opacity:0.15;fill:#1B2029;enable-background:new ;}
.st12{fill:#E31A1C;}
.st13{fill:url(#SVGID_3_);fill-opacity:0.5;}
.st14{opacity:0.1;fill:#30D840;enable-background:new ;}
.st15{fill:#30D840;}
.st16{opacity:0.1;fill:#FF7B22;enable-background:new ;}
.st17{fill:#FF7B22;}
.st18{opacity:0.1;fill:#FFAC8D;enable-background:new ;}
.st19{fill:#FFAC8D;}
.st20{fill:#225BFC;fill-opacity:0.1;stroke:#225BFC;stroke-width:3;}
.st21{fill:#225BFC;}
.st22{opacity:0.1;fill:#00F3FF;enable-background:new ;}
.st23{fill:#00F3FF;}
.st24{opacity:0.1;fill:#F2D51E;enable-background:new ;}
.st25{fill:#F2D51E;}
.st26{opacity:0.1;fill:#9471FF;enable-background:new ;}
.st27{fill:#9471FF;}-->
</style>
<pattern  y="854.5" width="72" height="72" patternUnits="userSpaceOnUse" id="SVGID_4_" viewBox="72.2 -72 72 72" style="overflow:visible;">
	<g>
		<rect x="72.2" y="-72" class="st0" width="72" height="72"/>
		<g>
			<rect x="72.2" y="-72" class="st0" width="72" height="72"/>
			<g>
				<rect x="72.2" y="-72" class="st0" width="72" height="72"/>
				<g>
					<line class="st1" x1="144" y1="-3.6" x2="216.5" y2="-3.6"/>
					<line class="st1" x1="144" y1="-18" x2="216.5" y2="-18"/>
					<line class="st1" x1="144" y1="-32.4" x2="216.5" y2="-32.4"/>
					<line class="st1" x1="144" y1="-46.8" x2="216.5" y2="-46.8"/>
					<line class="st1" x1="144" y1="-61.2" x2="216.5" y2="-61.2"/>
					<line class="st1" x1="144" y1="-10.8" x2="216.5" y2="-10.8"/>
					<line class="st1" x1="144" y1="-25.2" x2="216.5" y2="-25.2"/>
					<line class="st1" x1="144" y1="-39.6" x2="216.5" y2="-39.6"/>
					<line class="st1" x1="144" y1="-54" x2="216.5" y2="-54"/>
					<line class="st1" x1="144" y1="-68.4" x2="216.5" y2="-68.4"/>
				</g>
				<g>
					<line class="st1" x1="72" y1="-3.6" x2="144.5" y2="-3.6"/>
					<line class="st1" x1="72" y1="-18" x2="144.5" y2="-18"/>
					<line class="st1" x1="72" y1="-32.4" x2="144.5" y2="-32.4"/>
					<line class="st1" x1="72" y1="-46.8" x2="144.5" y2="-46.8"/>
					<line class="st1" x1="72" y1="-61.2" x2="144.5" y2="-61.2"/>
					<line class="st1" x1="72" y1="-10.8" x2="144.5" y2="-10.8"/>
					<line class="st1" x1="72" y1="-25.2" x2="144.5" y2="-25.2"/>
					<line class="st1" x1="72" y1="-39.6" x2="144.5" y2="-39.6"/>
					<line class="st1" x1="72" y1="-54" x2="144.5" y2="-54"/>
					<line class="st1" x1="72" y1="-68.4" x2="144.5" y2="-68.4"/>
				</g>
				<g>
					<line class="st1" x1="0" y1="-3.6" x2="72.5" y2="-3.6"/>
					<line class="st1" x1="0" y1="-18" x2="72.5" y2="-18"/>
					<line class="st1" x1="0" y1="-32.4" x2="72.5" y2="-32.4"/>
					<line class="st1" x1="0" y1="-46.8" x2="72.5" y2="-46.8"/>
					<line class="st1" x1="0" y1="-61.2" x2="72.5" y2="-61.2"/>
					<line class="st1" x1="0" y1="-10.8" x2="72.5" y2="-10.8"/>
					<line class="st1" x1="0" y1="-25.2" x2="72.5" y2="-25.2"/>
					<line class="st1" x1="0" y1="-39.6" x2="72.5" y2="-39.6"/>
					<line class="st1" x1="0" y1="-54" x2="72.5" y2="-54"/>
					<line class="st1" x1="0" y1="-68.4" x2="72.5" y2="-68.4"/>
				</g>
			</g>
		</g>
	</g>
</pattern>
<pattern  y="854.5" width="72" height="72" patternUnits="userSpaceOnUse" id="SVGID_5_" viewBox="72.2 -72 72 72" style="overflow:visible;">
	<g>
		<rect x="72.2" y="-72" class="st0" width="72" height="72"/>
		<g>
			<rect x="72.2" y="-72" class="st0" width="72" height="72"/>
			<g>
				<rect x="72.2" y="-72" class="st0" width="72" height="72"/>
				<g>
					<line class="st1" x1="144" y1="-3.6" x2="216.5" y2="-3.6"/>
					<line class="st1" x1="144" y1="-18" x2="216.5" y2="-18"/>
					<line class="st1" x1="144" y1="-32.4" x2="216.5" y2="-32.4"/>
					<line class="st1" x1="144" y1="-46.8" x2="216.5" y2="-46.8"/>
					<line class="st1" x1="144" y1="-61.2" x2="216.5" y2="-61.2"/>
					<line class="st1" x1="144" y1="-10.8" x2="216.5" y2="-10.8"/>
					<line class="st1" x1="144" y1="-25.2" x2="216.5" y2="-25.2"/>
					<line class="st1" x1="144" y1="-39.6" x2="216.5" y2="-39.6"/>
					<line class="st1" x1="144" y1="-54" x2="216.5" y2="-54"/>
					<line class="st1" x1="144" y1="-68.4" x2="216.5" y2="-68.4"/>
				</g>
				<g>
					<line class="st1" x1="72" y1="-3.6" x2="144.5" y2="-3.6"/>
					<line class="st1" x1="72" y1="-18" x2="144.5" y2="-18"/>
					<line class="st1" x1="72" y1="-32.4" x2="144.5" y2="-32.4"/>
					<line class="st1" x1="72" y1="-46.8" x2="144.5" y2="-46.8"/>
					<line class="st1" x1="72" y1="-61.2" x2="144.5" y2="-61.2"/>
					<line class="st1" x1="72" y1="-10.8" x2="144.5" y2="-10.8"/>
					<line class="st1" x1="72" y1="-25.2" x2="144.5" y2="-25.2"/>
					<line class="st1" x1="72" y1="-39.6" x2="144.5" y2="-39.6"/>
					<line class="st1" x1="72" y1="-54" x2="144.5" y2="-54"/>
					<line class="st1" x1="72" y1="-68.4" x2="144.5" y2="-68.4"/>
				</g>
				<g>
					<line class="st1" x1="0" y1="-3.6" x2="72.5" y2="-3.6"/>
					<line class="st1" x1="0" y1="-18" x2="72.5" y2="-18"/>
					<line class="st1" x1="0" y1="-32.4" x2="72.5" y2="-32.4"/>
					<line class="st1" x1="0" y1="-46.8" x2="72.5" y2="-46.8"/>
					<line class="st1" x1="0" y1="-61.2" x2="72.5" y2="-61.2"/>
					<line class="st1" x1="0" y1="-10.8" x2="72.5" y2="-10.8"/>
					<line class="st1" x1="0" y1="-25.2" x2="72.5" y2="-25.2"/>
					<line class="st1" x1="0" y1="-39.6" x2="72.5" y2="-39.6"/>
					<line class="st1" x1="0" y1="-54" x2="72.5" y2="-54"/>
					<line class="st1" x1="0" y1="-68.4" x2="72.5" y2="-68.4"/>
				</g>
			</g>
		</g>
	</g>
</pattern>
<pattern  y="854.5" width="72" height="72" patternUnits="userSpaceOnUse" id="SVGID_6_" viewBox="72.2 -72 72 72" style="overflow:visible;">
	<g>
		<rect x="72.2" y="-72" class="st0" width="72" height="72"/>
		<g>
			<rect x="72.2" y="-72" class="st0" width="72" height="72"/>
			<g>
				<rect x="72.2" y="-72" class="st0" width="72" height="72"/>
				<g>
					<line class="st2" x1="144" y1="-3.6" x2="216.5" y2="-3.6"/>
					<line class="st2" x1="144" y1="-18" x2="216.5" y2="-18"/>
					<line class="st2" x1="144" y1="-32.4" x2="216.5" y2="-32.4"/>
					<line class="st2" x1="144" y1="-46.8" x2="216.5" y2="-46.8"/>
					<line class="st2" x1="144" y1="-61.2" x2="216.5" y2="-61.2"/>
					<line class="st2" x1="144" y1="-10.8" x2="216.5" y2="-10.8"/>
					<line class="st2" x1="144" y1="-25.2" x2="216.5" y2="-25.2"/>
					<line class="st2" x1="144" y1="-39.6" x2="216.5" y2="-39.6"/>
					<line class="st2" x1="144" y1="-54" x2="216.5" y2="-54"/>
					<line class="st2" x1="144" y1="-68.4" x2="216.5" y2="-68.4"/>
				</g>
				<g>
					<line class="st2" x1="72" y1="-3.6" x2="144.5" y2="-3.6"/>
					<line class="st2" x1="72" y1="-18" x2="144.5" y2="-18"/>
					<line class="st2" x1="72" y1="-32.4" x2="144.5" y2="-32.4"/>
					<line class="st2" x1="72" y1="-46.8" x2="144.5" y2="-46.8"/>
					<line class="st2" x1="72" y1="-61.2" x2="144.5" y2="-61.2"/>
					<line class="st2" x1="72" y1="-10.8" x2="144.5" y2="-10.8"/>
					<line class="st2" x1="72" y1="-25.2" x2="144.5" y2="-25.2"/>
					<line class="st2" x1="72" y1="-39.6" x2="144.5" y2="-39.6"/>
					<line class="st2" x1="72" y1="-54" x2="144.5" y2="-54"/>
					<line class="st2" x1="72" y1="-68.4" x2="144.5" y2="-68.4"/>
				</g>
				<g>
					<line class="st2" x1="0" y1="-3.6" x2="72.5" y2="-3.6"/>
					<line class="st2" x1="0" y1="-18" x2="72.5" y2="-18"/>
					<line class="st2" x1="0" y1="-32.4" x2="72.5" y2="-32.4"/>
					<line class="st2" x1="0" y1="-46.8" x2="72.5" y2="-46.8"/>
					<line class="st2" x1="0" y1="-61.2" x2="72.5" y2="-61.2"/>
					<line class="st2" x1="0" y1="-10.8" x2="72.5" y2="-10.8"/>
					<line class="st2" x1="0" y1="-25.2" x2="72.5" y2="-25.2"/>
					<line class="st2" x1="0" y1="-39.6" x2="72.5" y2="-39.6"/>
					<line class="st2" x1="0" y1="-54" x2="72.5" y2="-54"/>
					<line class="st2" x1="0" y1="-68.4" x2="72.5" y2="-68.4"/>
				</g>
			</g>
		</g>
	</g>
</pattern>
<g id="Backgound">
	<g>
		<rect x="-16.9" class="st3" width="1845.6" height="854.5"/>
	</g>
	<path class="st4" d="M-192.4-7.7"/>
	<path class="st4" d="M-6.2-7.7"/>
</g>
<g id="timeline">
	<g>
		<g>
			<path class="st5" d="M132,195.8v3.6h-9.4v5.1h8.8v3.6h-8.8v8.7h-4v-21L132,195.8L132,195.8z"/>
			<path class="st5" d="M140.7,195.8v21h-4v-21H140.7z"/>
			<path class="st5" d="M158,208.7l4.3,8.1h-4.4L154,209h-3.5v7.8h-4v-21h9.2c4,0,6.7,2.6,6.7,6.6
				C162.5,205.7,160.7,207.9,158,208.7z M150.5,205.5h4.9c1.9,0,3.1-1.2,3.1-3s-1.3-3-3.1-3h-4.9V205.5z"/>
			<path class="st5" d="M182.4,202.1v0.9h-3.8v-0.6c0-2.4-1.5-3.5-3.9-3.5c-2.1,0-3.4,1.1-3.4,2.5c0,2,1.9,2.3,4.4,2.9l0.3,0.1
				c4.3,1,6.9,2.5,6.9,6.3c0,4.2-3.3,6.6-7.8,6.6c-5.1,0-8.4-2.8-8.4-7.7v-0.7h3.9v0.5c0,2.6,1.5,4.3,4.6,4.3c2.5,0,3.8-1.3,3.8-2.9
				c0-1.8-1.6-2.4-4.3-3l-0.3-0.1c-4.4-1-6.9-2.5-6.9-6.3c0-3.7,3.2-6.1,7.3-6.1C179.1,195.4,182.4,197.9,182.4,202.1z"/>
			<path class="st5" d="M202.9,195.8v3.6h-6.4v17.4h-4v-17.4h-6.4v-3.6H202.9z"/>
			<path class="st5" d="M220.3,195.8l2.5,17.2h0.4l3.2-17.2h6.2l3.2,17.2h0.4l2.5-17.2h4l-3.3,21h-6.5l-3.2-17.2h-0.4l-3.2,17.2
				h-6.5l-3.3-21H220.3z"/>
			<path class="st5" d="M257,195.8l5.8,21h-4.1l-1.3-4.7h-7.3l-1.3,4.7h-4.1l5.8-21H257z M256.5,208.6l-2.5-9.4h-0.4l-2.5,9.4H256.5
				z"/>
			<path class="st5" d="M268,195.8l4.7,17.5h0.4l4.7-17.5h4.1l-5.9,21h-6.2l-5.8-21H268z"/>
			<path class="st5" d="M299.8,195.8v3.6H290v5h9v3.6h-9v5.2h10v3.6h-14v-21L299.8,195.8L299.8,195.8z"/>
			<path class="st6" d="M157.4,232c2.5,0,4.3,1.6,4.3,4.1c0,2.7-2,3.7-4.4,4.5c-1.8,0.6-2.7,1-2.7,2.4v0.2h6.9v1.7h-8.8v-1.6
				c0-2.4,1.5-3.3,3.7-4.1c2.1-0.7,3.4-1.4,3.4-3.1c0-1.5-1.1-2.3-2.5-2.3c-1.8,0-2.8,1-2.8,2.7v0.4h-1.8v-0.5
				C152.8,233.7,154.7,232,157.4,232z"/>
			<path class="st6" d="M169.3,232c2.5,0,4.3,1.6,4.3,4.1c0,2.7-2,3.7-4.4,4.5c-1.8,0.6-2.7,1-2.7,2.4v0.2h6.9v1.7h-8.8v-1.6
				c0-2.4,1.5-3.3,3.7-4.1c2.1-0.7,3.4-1.4,3.4-3.1c0-1.5-1.1-2.3-2.5-2.3c-1.8,0-2.8,1-2.8,2.7v0.4h-1.8v-0.5
				C164.7,233.7,166.6,232,169.3,232z"/>
			<path class="st6" d="M183.6,232.2v8.5h2.1v1.7h-2.1v2.4h-1.8v-2.4h-6.3v-1.6l5-8.6L183.6,232.2L183.6,232.2z M177.5,240.7h4.3
				v-7.1h-0.2L177.5,240.7z"/>
			<path class="st6" d="M203.5,232.2v1.7h-6.3v3.8h5.8v1.7h-5.8v3.8h6.3v1.7h-8.1v-12.6L203.5,232.2L203.5,232.2z"/>
			<path class="st6" d="M208,232.2l3.2,11h0.2l3.2-11h1.9l-3.9,12.6h-2.8l-3.9-12.6H208z"/>
			<path class="st6" d="M227.6,232.2v1.7h-6.3v3.8h5.8v1.7h-5.8v3.8h6.3v1.7h-8.1v-12.6L227.6,232.2L227.6,232.2z"/>
			<path class="st6" d="M234.5,232.2l3.9,11h0.2v-11h1.8v12.6h-3.3l-3.9-11H233v11h-1.8v-12.6H234.5z"/>
			<path class="st6" d="M253.5,232.2v1.7h-4.1v10.9h-1.8v-10.9h-4.1v-1.7H253.5z"/>
			<path class="st6" d="M264.9,235.9v0.6h-1.8v-0.4c0-1.6-1.2-2.5-2.8-2.5c-1.4,0-2.4,0.7-2.4,1.9s0.8,1.6,2.5,2l0.8,0.2
				c2.3,0.5,3.8,1.5,3.8,3.7c0,2.3-1.9,3.8-4.5,3.8c-3.1,0-5-1.8-5-4.6V240h1.8v0.4c0,2,1.2,3.1,3.2,3.1c1.7,0,2.7-0.9,2.7-2.1
				c0-1.2-0.8-1.7-2.4-2l-0.8-0.2c-2.3-0.5-3.9-1.3-3.9-3.7c0-2.1,1.9-3.5,4.2-3.5C262.9,232,264.9,233.4,264.9,235.9z"/>
		</g>
	</g>
	<g>
		<g>
			<path class="st5" d="M5.7,7.6v11.2H4.1V9.1H3.9l-2.1,3.4H0.1l3.1-4.9H5.7z"/>
			<path class="st5" d="M12.9,7.4c2.4,0,3.9,1.2,3.9,3c0,1.6-1.1,2.2-1.9,2.5V13c0.8,0.2,2.1,1.1,2.1,2.7c0,1.9-1.7,3.2-4.1,3.2
				s-4.1-1.3-4.1-3.2c0-1.7,1.2-2.5,2.1-2.7v-0.2C10.1,12.6,9,11.9,9,10.4C9,8.6,10.5,7.4,12.9,7.4z M12.9,17.5
				c1.5,0,2.5-0.7,2.5-1.9s-1-1.9-2.5-1.9s-2.5,0.7-2.5,1.9S11.4,17.5,12.9,17.5z M12.9,12.2c1.4,0,2.3-0.7,2.3-1.7
				s-0.9-1.7-2.3-1.7s-2.3,0.7-2.3,1.7S11.5,12.2,12.9,12.2z"/>
			<path class="st5" d="M23.9,7.4c2.5,0,4.2,1.7,4.2,4.6v2.5c0,2.9-1.6,4.6-4.2,4.6s-4.2-1.7-4.2-4.6V12C19.7,9.1,21.3,7.4,23.9,7.4
				z M21.3,14.5c0,2,0.9,3.1,2.6,3.1s2.6-1.1,2.6-3.1v-2.6c0-2-0.9-3.1-2.6-3.1s-2.6,1.1-2.6,3.1V14.5z"/>
			<path class="st5" d="M34.7,7.4c2.3,0,4,1.6,4,3.9v3.9c0,2.3-1.7,3.9-4,3.9s-3.8-1.3-3.8-3.5h1.6c0,1.2,0.7,2,2.2,2s2.4-1,2.4-2.4
				v-1.5h-0.2c-0.4,0.6-1.1,1.4-2.7,1.4c-1.9,0-3.5-1.5-3.5-3.8C30.7,8.9,32.4,7.4,34.7,7.4z M37.1,11.2c0-1.4-1-2.4-2.4-2.4
				c-1.5,0-2.4,1-2.4,2.4s1,2.4,2.4,2.4C36.1,13.6,37.1,12.7,37.1,11.2z"/>
		</g>
	</g>
	<g>
		<g>
			<path class="st5" d="M979.9,61.3v11.2h-1.6v-9.7h-0.2l-2.1,3.4h-1.8l3.1-4.9C977.3,61.3,979.9,61.3,979.9,61.3z"/>
			<path class="st5" d="M986.9,61.1c2.3,0,4,1.6,4,3.9v3.9c0,2.3-1.7,3.9-4,3.9s-3.8-1.3-3.8-3.5h1.6c0,1.2,0.7,2,2.2,2
				s2.4-1,2.4-2.4v-1.5h-0.2c-0.4,0.6-1.1,1.4-2.7,1.4c-1.9,0-3.5-1.5-3.5-3.8C982.9,62.7,984.6,61.1,986.9,61.1z M989.3,65
				c0-1.4-1-2.4-2.4-2.4c-1.5,0-2.4,1-2.4,2.4s1,2.4,2.4,2.4S989.3,66.4,989.3,65z"/>
			<path class="st5" d="M1001.5,61.3v1.4l-3.3,2.9v0.2h0.4c1.7,0,3.1,1.3,3.1,3.3c0,2.2-1.8,3.7-4,3.7c-2.4,0-4.2-1.5-4.2-3.7v-0.8
				h1.6V69c0,1.4,1,2.4,2.6,2.4c1.5,0,2.4-0.9,2.4-2.2c0-1.3-1-2-2.2-2h-1.7v-1.5l3.1-2.8h-5.4v-1.5L1001.5,61.3L1001.5,61.3z"/>
			<path class="st5" d="M1011.2,61.3v7.6h1.9v1.5h-1.9v2.2h-1.6v-2.2h-5.6V69l4.5-7.6h2.7L1011.2,61.3L1011.2,61.3z M1005.8,68.9
				h3.8v-6.3h-0.2L1005.8,68.9z"/>
		</g>
	</g>
	<g>
		<g>
			<path class="st5" d="M1446.9,61.3v11.2h-1.6v-9.7h-0.2l-2.1,3.4h-1.8l3.1-4.9C1444.3,61.3,1446.9,61.3,1446.9,61.3z"/>
			<path class="st5" d="M1453.9,61.1c2.3,0,4,1.6,4,3.9v3.9c0,2.3-1.7,3.9-4,3.9s-3.8-1.3-3.8-3.5h1.6c0,1.2,0.7,2,2.2,2
				s2.4-1,2.4-2.4v-1.5h-0.2c-0.4,0.6-1.1,1.4-2.7,1.4c-1.9,0-3.5-1.5-3.5-3.8C1449.9,62.7,1451.6,61.1,1453.9,61.1z M1456.3,65
				c0-1.4-1-2.4-2.4-2.4c-1.5,0-2.4,1-2.4,2.4s1,2.4,2.4,2.4S1456.3,66.4,1456.3,65z"/>
			<path class="st5" d="M1464.7,61.1c2.4,0,3.9,1.2,3.9,3c0,1.6-1.1,2.2-1.9,2.5v0.2c0.8,0.2,2.1,1.1,2.1,2.7c0,1.9-1.7,3.2-4.1,3.2
				s-4.1-1.3-4.1-3.2c0-1.7,1.2-2.5,2.1-2.7v-0.2c-0.8-0.3-1.9-0.9-1.9-2.5C1460.8,62.3,1462.3,61.1,1464.7,61.1z M1464.7,71.3
				c1.5,0,2.5-0.7,2.5-1.9s-1-1.9-2.5-1.9s-2.5,0.7-2.5,1.9S1463.2,71.3,1464.7,71.3z M1464.7,66c1.4,0,2.3-0.7,2.3-1.7
				s-0.9-1.7-2.3-1.7s-2.3,0.7-2.3,1.7S1463.3,66,1464.7,66z"/>
			<path class="st5" d="M1475.5,72.8c-2.3,0-4-1.6-4-3.9V65c0-2.3,1.7-3.9,4-3.9s3.8,1.3,3.8,3.5h-1.6c0-1.2-0.7-2-2.2-2
				s-2.4,1-2.4,2.4v1.5h0.2c0.4-0.6,1.1-1.4,2.7-1.4c1.9,0,3.5,1.5,3.5,3.8C1479.5,71.2,1477.8,72.8,1475.5,72.8z M1473.1,68.9
				c0,1.4,1,2.4,2.4,2.4c1.5,0,2.4-1,2.4-2.4s-1-2.4-2.4-2.4S1473.1,67.5,1473.1,68.9z"/>
		</g>
	</g>
	<g>
		<g>
			<path class="st5" d="M1679.3,61.1c2.2,0,3.8,1.4,3.8,3.6c0,2.4-1.8,3.3-3.9,4c-1.6,0.5-2.4,0.9-2.4,2.2v0.2h6.1v1.5h-7.8v-1.4
				c0-2.1,1.3-3,3.3-3.6c1.9-0.6,3-1.2,3-2.8c0-1.3-1-2.1-2.2-2.1c-1.6,0-2.5,0.9-2.5,2.4v0.4h-1.6v-0.4
				C1675.2,62.6,1676.8,61.1,1679.3,61.1z"/>
			<path class="st5" d="M1690,61.1c2.5,0,4.2,1.7,4.2,4.6v2.5c0,2.9-1.6,4.6-4.2,4.6s-4.2-1.7-4.2-4.6v-2.5
				C1685.8,62.8,1687.4,61.1,1690,61.1z M1687.4,68.2c0,2,0.9,3.1,2.6,3.1s2.6-1.1,2.6-3.1v-2.6c0-2-0.9-3.1-2.6-3.1
				s-2.6,1.1-2.6,3.1V68.2z"/>
			<path class="st5" d="M1701.9,61.3v11.2h-1.6v-9.7h-0.2l-2.1,3.4h-1.8l3.1-4.9C1699.3,61.3,1701.9,61.3,1701.9,61.3z"/>
			<path class="st5" d="M1710.1,61.3v11.2h-1.6v-9.7h-0.2l-2.1,3.4h-1.8l3.1-4.9C1707.5,61.3,1710.1,61.3,1710.1,61.3z"/>
		</g>
	</g>
	<g>
		<g>
			<path class="st5" d="M1778.8,61.3l3.5,9.8h0.2v-9.8h1.6v11.2h-3l-3.5-9.8h-0.2v9.8h-1.6V61.3H1778.8z"/>
			<path class="st5" d="M1791.6,61.1c2.7,0,4.4,1.7,4.4,4.6v2.5c0,2.9-1.6,4.6-4.4,4.6c-2.7,0-4.4-1.7-4.4-4.6v-2.5
				C1787.3,62.8,1788.9,61.1,1791.6,61.1z M1788.9,68.2c0,2,0.9,3.1,2.8,3.1s2.8-1.1,2.8-3.1v-2.6c0-2-0.9-3.1-2.8-3.1
				s-2.8,1.1-2.8,3.1V68.2z"/>
			<path class="st5" d="M1800.1,61.3l1.3,9.8h0.2l1.7-9.8h2.6l1.7,9.8h0.2l1.3-9.8h1.6l-1.6,11.2h-2.8l-1.7-9.8h-0.2l-1.7,9.8h-2.8
				l-1.6-11.2H1800.1z"/>
		</g>
	</g>
	<g>
		<g>
			<path class="st5" d="M1345.7,7.6v11.2h-1.6V9.1h-0.2l-2.1,3.4h-1.8l3.1-4.9H1345.7z"/>
			<path class="st5" d="M1352.7,7.4c2.3,0,4,1.6,4,3.9v3.9c0,2.3-1.7,3.9-4,3.9s-3.8-1.3-3.8-3.5h1.6c0,1.2,0.7,2,2.2,2
				s2.4-1,2.4-2.4v-1.5h-0.2c-0.4,0.6-1.1,1.4-2.7,1.4c-1.9,0-3.5-1.5-3.5-3.8C1348.7,8.9,1350.4,7.4,1352.7,7.4z M1355.1,11.2
				c0-1.4-1-2.4-2.4-2.4c-1.5,0-2.4,1-2.4,2.4s1,2.4,2.4,2.4C1354.1,13.6,1355.1,12.7,1355.1,11.2z"/>
			<path class="st5" d="M1363.5,19c-2.3,0-4-1.6-4-3.9v-3.9c0-2.3,1.7-3.9,4-3.9s3.8,1.3,3.8,3.5h-1.6c0-1.2-0.7-2-2.2-2
				s-2.4,1-2.4,2.4v1.5h0.2c0.4-0.6,1.1-1.4,2.7-1.4c1.9,0,3.5,1.5,3.5,3.8S1365.8,19,1363.5,19z M1361.1,15.1c0,1.4,1,2.4,2.4,2.4
				c1.5,0,2.4-1,2.4-2.4s-1-2.4-2.4-2.4C1362.1,12.8,1361.1,13.7,1361.1,15.1z"/>
			<path class="st5" d="M1373.9,7.4c2.3,0,4,1.6,4,3.9v3.9c0,2.3-1.7,3.9-4,3.9s-3.8-1.3-3.8-3.5h1.6c0,1.2,0.7,2,2.2,2
				s2.4-1,2.4-2.4v-1.5h-0.2c-0.4,0.6-1.1,1.4-2.7,1.4c-1.9,0-3.5-1.5-3.5-3.8C1369.9,8.9,1371.6,7.4,1373.9,7.4z M1376.3,11.2
				c0-1.4-1-2.4-2.4-2.4c-1.5,0-2.4,1-2.4,2.4s1,2.4,2.4,2.4C1375.3,13.6,1376.3,12.7,1376.3,11.2z"/>
		</g>
	</g>
	<g>
		<g>
			<path class="st5" d="M1543.3,7.6v11.2h-1.6V9.1h-0.2l-2.1,3.4h-1.8l3.1-4.9H1543.3z"/>
			<path class="st5" d="M1550.3,7.4c2.3,0,4,1.6,4,3.9v3.9c0,2.3-1.7,3.9-4,3.9s-3.8-1.3-3.8-3.5h1.6c0,1.2,0.7,2,2.2,2
				s2.4-1,2.4-2.4v-1.5h-0.2c-0.4,0.6-1.1,1.4-2.7,1.4c-1.9,0-3.5-1.5-3.5-3.8C1546.3,8.9,1548,7.4,1550.3,7.4z M1552.7,11.2
				c0-1.4-1-2.4-2.4-2.4c-1.5,0-2.4,1-2.4,2.4s1,2.4,2.4,2.4C1551.7,13.6,1552.7,12.7,1552.7,11.2z"/>
			<path class="st5" d="M1560.9,7.4c2.3,0,4,1.6,4,3.9v3.9c0,2.3-1.7,3.9-4,3.9s-3.8-1.3-3.8-3.5h1.6c0,1.2,0.7,2,2.2,2
				s2.4-1,2.4-2.4v-1.5h-0.2c-0.4,0.6-1.1,1.4-2.7,1.4c-1.9,0-3.5-1.5-3.5-3.8C1556.9,8.9,1558.6,7.4,1560.9,7.4z M1563.3,11.2
				c0-1.4-1-2.4-2.4-2.4c-1.5,0-2.4,1-2.4,2.4s1,2.4,2.4,2.4C1562.3,13.6,1563.3,12.7,1563.3,11.2z"/>
			<path class="st5" d="M1571.9,7.4c2.5,0,4.2,1.7,4.2,4.6v2.5c0,2.9-1.6,4.6-4.2,4.6s-4.2-1.7-4.2-4.6V12
				C1567.7,9.1,1569.3,7.4,1571.9,7.4z M1569.3,14.5c0,2,0.9,3.1,2.6,3.1s2.6-1.1,2.6-3.1v-2.6c0-2-0.9-3.1-2.6-3.1
				s-2.6,1.1-2.6,3.1V14.5z"/>
		</g>
	</g>
	<g>
		<g>
			<path class="st5" d="M1727.6,7.4c2.2,0,3.8,1.4,3.8,3.6c0,2.4-1.8,3.3-3.9,4c-1.6,0.5-2.4,0.9-2.4,2.2v0.2h6.1v1.5h-7.8v-1.4
				c0-2.1,1.3-3,3.3-3.6c1.9-0.6,3-1.2,3-2.8c0-1.3-1-2.1-2.2-2.1c-1.6,0-2.5,0.9-2.5,2.4v0.4h-1.6v-0.4
				C1723.5,8.8,1725.1,7.4,1727.6,7.4z"/>
			<path class="st5" d="M1738.3,7.4c2.5,0,4.2,1.7,4.2,4.6v2.5c0,2.9-1.6,4.6-4.2,4.6s-4.2-1.7-4.2-4.6V12
				C1734.1,9.1,1735.7,7.4,1738.3,7.4z M1735.7,14.5c0,2,0.9,3.1,2.6,3.1s2.6-1.1,2.6-3.1v-2.6c0-2-0.9-3.1-2.6-3.1
				s-2.6,1.1-2.6,3.1V14.5z"/>
			<path class="st5" d="M1750.2,7.6v11.2h-1.6V9.1h-0.2l-2.1,3.4h-1.8l3.1-4.9H1750.2z"/>
			<path class="st5" d="M1757.5,7.4c2.2,0,3.8,1.4,3.8,3.6c0,2.4-1.8,3.3-3.9,4c-1.6,0.5-2.4,0.9-2.4,2.2v0.2h6.1v1.5h-7.8v-1.4
				c0-2.1,1.3-3,3.3-3.6c1.9-0.6,3-1.2,3-2.8c0-1.3-1-2.1-2.2-2.1c-1.6,0-2.5,0.9-2.5,2.4v0.4h-1.6v-0.4
				C1753.4,8.8,1755,7.4,1757.5,7.4z"/>
		</g>
	</g>
	<g>
		<g>
			<path class="st5" d="M576.4,202.1v0.9h-3.8v-0.6c0-2.4-1.5-3.5-3.9-3.5c-2.1,0-3.4,1.1-3.4,2.5c0,2,1.9,2.3,4.4,2.9l0.3,0.1
				c4.3,1,6.9,2.5,6.9,6.3c0,4.2-3.3,6.6-7.8,6.6c-5.1,0-8.4-2.8-8.4-7.7v-0.7h3.9v0.5c0,2.6,1.5,4.3,4.6,4.3c2.5,0,3.8-1.3,3.8-2.9
				c0-1.8-1.6-2.4-4.3-3l-0.3-0.1c-4.4-1-6.9-2.5-6.9-6.3c0-3.7,3.2-6.1,7.3-6.1C573.1,195.4,576.4,197.9,576.4,202.1z"/>
			<path class="st5" d="M595.8,195.8v3.6H586v5h9v3.6h-9v5.2h10v3.6h-14v-21L595.8,195.8L595.8,195.8z"/>
			<path class="st5" d="M608.8,195.4c5.3,0,8.3,2.9,8.3,7.6v0.7h-4V203c0-2.4-1.4-4-4.3-4c-3,0-4.7,2.2-4.7,4.8v5.2
				c0,2.9,1.6,4.8,4.7,4.8c3.1,0,4.3-1.7,4.3-4V209h4v0.7c0,4.6-2.7,7.6-8.3,7.6c-5.2,0-8.7-2.9-8.7-8.5V204
				C600.1,198.7,603.5,195.4,608.8,195.4z"/>
			<path class="st5" d="M629.8,195.4c5.4,0,8.6,3.3,8.6,8.7v4.4c0,5.5-3.3,8.7-8.6,8.7s-8.6-3.2-8.6-8.7v-4.4
				C621.2,198.8,624.4,195.4,629.8,195.4z M625.1,208.7c0,3,1.5,5,4.7,5c3.3,0,4.7-2.1,4.7-5v-4.8c0-3-1.7-5-4.7-5s-4.7,2.1-4.7,5
				V208.7z"/>
			<path class="st5" d="M650.5,195.8l4.8,17.3h0.4v-17.3h4v21h-7l-4.8-17.3h-0.4v17.3h-4v-21H650.5z"/>
			<path class="st5" d="M672.7,195.8c5.6,0,8.6,2.8,8.6,8.5v4c0,5.7-3,8.5-8.6,8.5h-7.2v-21H672.7z M669.5,213.2h3.3
				c3.4,0,4.6-1.7,4.6-4.8v-4.2c0-3.1-1.2-4.8-4.6-4.8h-3.3V213.2z"/>
			<path class="st5" d="M699.4,195.8l2.5,17.2h0.4l3.2-17.2h6.2l3.2,17.2h0.4l2.5-17.2h4l-3.3,21H712l-3.2-17.2h-0.4l-3.2,17.2h-6.4
				l-3.3-21H699.4z"/>
			<path class="st5" d="M736.1,195.8l5.8,21h-4.1l-1.3-4.7h-7.3l-1.3,4.7h-4.1l5.8-21H736.1z M735.6,208.6l-2.5-9.4h-0.4l-2.6,9.4
				H735.6z"/>
			<path class="st5" d="M747.1,195.8l4.7,17.5h0.4l4.7-17.5h4.1l-5.9,21h-6.2l-5.8-21H747.1z"/>
			<path class="st5" d="M778.9,195.8v3.6h-9.8v5h9v3.6h-9v5.2h10v3.6h-14v-21L778.9,195.8L778.9,195.8z"/>
			<path class="st6" d="M620.1,232.2v12.6h-1.8v-10.9h-0.2l-2.3,3.8h-2l3.5-5.5L620.1,232.2L620.1,232.2z"/>
			<path class="st6" d="M632.5,232.2v1.7h-6.6v4h0.2c0.5-0.9,1.3-1.5,3-1.5c2.2,0,3.8,1.7,3.8,4.2c0,2.6-1.9,4.6-4.6,4.6
				c-2.8,0-4.7-1.7-4.7-4.5v-0.2h1.8v0.2c0,1.7,1,2.9,2.9,2.9c1.8,0,2.8-1.2,2.8-2.9c0-1.6-1-2.6-2.4-2.6c-1.1,0-1.7,0.6-1.9,1h-2.7
				v-6.8L632.5,232.2L632.5,232.2z"/>
			<path class="st6" d="M640.5,232c2.8,0,4.7,1.9,4.7,5.1v2.8c0,3.2-1.8,5.1-4.7,5.1s-4.7-1.9-4.7-5.1v-2.8
				C635.8,233.9,637.6,232,640.5,232z M637.6,240c0,2.2,1,3.5,2.9,3.5s2.9-1.2,2.9-3.5v-2.9c0-2.2-1-3.5-2.9-3.5s-2.9,1.2-2.9,3.5
				V240z"/>
			<path class="st6" d="M663.8,232.2v1.7h-6.3v3.8h5.8v1.7h-5.8v3.8h6.3v1.7h-8.1v-12.6L663.8,232.2L663.8,232.2z"/>
			<path class="st6" d="M668.2,232.2l3.2,11h0.2l3.2-11h1.9l-3.9,12.6H670l-3.9-12.6H668.2z"/>
			<path class="st6" d="M687.9,232.2v1.7h-6.3v3.8h5.8v1.7h-5.8v3.8h6.3v1.7h-8.1v-12.6L687.9,232.2L687.9,232.2z"/>
			<path class="st6" d="M694.7,232.2l3.9,11h0.2v-11h1.8v12.6h-3.3l-3.9-11h-0.2v11h-1.8v-12.6H694.7z"/>
			<path class="st6" d="M713.7,232.2v1.7h-4.1v10.9h-1.8v-10.9h-4.1v-1.7H713.7z"/>
			<path class="st6" d="M725.1,235.9v0.6h-1.8v-0.4c0-1.6-1.2-2.5-2.8-2.5c-1.4,0-2.4,0.7-2.4,1.9s0.8,1.6,2.5,2l0.8,0.2
				c2.3,0.5,3.8,1.5,3.8,3.7c0,2.3-1.9,3.8-4.5,3.8c-3.1,0-5-1.8-5-4.6V240h1.8v0.4c0,2,1.2,3.1,3.2,3.1c1.7,0,2.7-0.9,2.7-2.1
				c0-1.2-0.8-1.7-2.4-2l-0.8-0.2c-2.3-0.5-3.9-1.3-3.9-3.7c0-2.1,1.9-3.5,4.2-3.5C723.1,232,725.1,233.4,725.1,235.9z"/>
		</g>
	</g>
	<g>
		<g>
			<path class="st5" d="M1058.4,195.8v3.6h-6.4v17.4h-4v-17.4h-6.4v-3.6H1058.4z"/>
			<path class="st5" d="M1066.7,195.8v8.7h7.9v-8.7h4v21h-4v-8.7h-7.9v8.7h-4v-21H1066.7z"/>
			<path class="st5" d="M1088.5,195.8v21h-4v-21H1088.5z"/>
			<path class="st5" d="M1105.8,208.7l4.3,8.1h-4.4l-3.9-7.8h-3.5v7.8h-4v-21h9.2c4,0,6.7,2.6,6.7,6.6
				C1110.3,205.7,1108.5,207.9,1105.8,208.7z M1098.3,205.5h4.9c1.9,0,3.2-1.2,3.2-3s-1.3-3-3.2-3h-4.9V205.5z"/>
			<path class="st5" d="M1122.4,195.8c5.6,0,8.6,2.8,8.6,8.5v4c0,5.7-3,8.5-8.6,8.5h-7.2v-21H1122.4z M1119.2,213.2h3.3
				c3.4,0,4.6-1.7,4.6-4.8v-4.2c0-3.1-1.2-4.8-4.6-4.8h-3.3V213.2z"/>
			<path class="st5" d="M1149.1,195.8l2.5,17.2h0.4l3.2-17.2h6.2l3.2,17.2h0.4l2.5-17.2h4l-3.3,21h-6.5l-3.2-17.2h-0.4l-3.2,17.2
				h-6.5l-3.3-21H1149.1z"/>
			<path class="st5" d="M1185.8,195.8l5.8,21h-4.1l-1.3-4.7h-7.3l-1.3,4.7h-4.1l5.8-21H1185.8z M1185.3,208.6l-2.5-9.4h-0.4
				l-2.5,9.4H1185.3z"/>
			<path class="st5" d="M1196.9,195.8l4.7,17.5h0.4l4.7-17.5h4.1l-5.9,21h-6.2l-5.8-21H1196.9z"/>
			<path class="st5" d="M1228.7,195.8v3.6h-9.8v5h9v3.6h-9v5.2h10v3.6h-14v-21L1228.7,195.8L1228.7,195.8z"/>
			<path class="st6" d="M1095.5,232.2v1.7h-6.6v4h0.2c0.5-0.9,1.3-1.5,3-1.5c2.2,0,3.8,1.7,3.8,4.2c0,2.6-1.9,4.6-4.6,4.6
				c-2.8,0-4.7-1.7-4.7-4.5v-0.2h1.8v0.2c0,1.7,1,2.9,2.9,2.9c1.8,0,2.8-1.2,2.8-2.9c0-1.6-1-2.6-2.4-2.6c-1.1,0-1.7,0.6-1.9,1h-2.7
				v-6.8L1095.5,232.2L1095.5,232.2z"/>
			<path class="st6" d="M1104.1,232.2v12.6h-1.8v-10.9h-0.2l-2.3,3.8h-2l3.5-5.5L1104.1,232.2L1104.1,232.2z"/>
			<path class="st6" d="M1123,232.2v1.7h-6.3v3.8h5.8v1.7h-5.8v3.8h6.3v1.7h-8.1v-12.6L1123,232.2L1123,232.2z"/>
			<path class="st6" d="M1127.4,232.2l3.2,11h0.2l3.2-11h1.9l-3.9,12.6h-2.8l-3.9-12.6H1127.4z"/>
			<path class="st6" d="M1147.1,232.2v1.7h-6.3v3.8h5.8v1.7h-5.8v3.8h6.3v1.7h-8.1v-12.6L1147.1,232.2L1147.1,232.2z"/>
			<path class="st6" d="M1154,232.2l3.9,11h0.2v-11h1.8v12.6h-3.3l-3.9-11h-0.2v11h-1.8v-12.6H1154z"/>
			<path class="st6" d="M1172.9,232.2v1.7h-4.1v10.9h-1.8v-10.9h-4.1v-1.7H1172.9z"/>
			<path class="st6" d="M1184.4,235.9v0.6h-1.8v-0.4c0-1.6-1.2-2.5-2.8-2.5c-1.4,0-2.4,0.7-2.4,1.9s0.8,1.6,2.5,2l0.8,0.2
				c2.3,0.5,3.8,1.5,3.8,3.7c0,2.3-1.9,3.8-4.5,3.8c-3.1,0-5-1.8-5-4.6V240h1.8v0.4c0,2,1.2,3.1,3.2,3.1c1.7,0,2.7-0.9,2.7-2.1
				c0-1.2-0.8-1.7-2.4-2l-0.8-0.2c-2.2-0.5-3.9-1.3-3.9-3.7c0-2.1,1.9-3.5,4.2-3.5C1182.4,232,1184.4,233.4,1184.4,235.9z"/>
		</g>
	</g>
	<g>
		<g>
			<path class="st5" d="M1508.3,195.8v3.6h-9.4v5.1h8.8v3.6h-8.8v8.7h-4v-21L1508.3,195.8L1508.3,195.8z"/>
			<path class="st5" d="M1520.8,195.4c5.4,0,8.6,3.3,8.6,8.7v4.4c0,5.5-3.3,8.7-8.6,8.7c-5.4,0-8.6-3.2-8.6-8.7v-4.4
				C1512.2,198.8,1515.5,195.4,1520.8,195.4z M1516.1,208.7c0,3,1.5,5,4.7,5c3.3,0,4.7-2.1,4.7-5v-4.8c0-3-1.7-5-4.7-5
				s-4.7,2.1-4.7,5V208.7z"/>
			<path class="st5" d="M1538.3,195.8v13.7c0,2.5,1.5,4.1,4.3,4.1s4.3-1.6,4.3-4.1v-13.7h4v13.6c0,4.8-3,7.9-8.2,7.9
				s-8.2-3.1-8.2-7.9v-13.6H1538.3z"/>
			<path class="st5" d="M1568,208.7l4.3,8.1h-4.4l-3.9-7.8h-3.5v7.8h-4v-21h9.2c4,0,6.7,2.6,6.7,6.6
				C1572.5,205.7,1570.7,207.9,1568,208.7z M1560.5,205.5h4.9c1.9,0,3.2-1.2,3.2-3s-1.3-3-3.2-3h-4.9V205.5z"/>
			<path class="st5" d="M1592.5,195.8v3.6h-6.4v17.4h-4v-17.4h-6.4v-3.6H1592.5z"/>
			<path class="st5" d="M1600.8,195.8v8.7h7.9v-8.7h4v21h-4v-8.7h-7.9v8.7h-4v-21H1600.8z"/>
			<path class="st5" d="M1631.6,195.8l2.5,17.2h0.4l3.2-17.2h6.2l3.2,17.2h0.4l2.5-17.2h4l-3.3,21h-6.5l-3.2-17.2h-0.4l-3.2,17.2
				h-6.5l-3.3-21H1631.6z"/>
			<path class="st5" d="M1668.3,195.8l5.8,21h-4.1l-1.3-4.7h-7.3l-1.3,4.7h-4.1l5.8-21H1668.3z M1667.8,208.6l-2.5-9.4h-0.4
				l-2.5,9.4H1667.8z"/>
			<path class="st5" d="M1679.3,195.8l4.7,17.5h0.4l4.7-17.5h4.1l-5.8,21h-6.2l-5.8-21H1679.3z"/>
			<path class="st5" d="M1711.1,195.8v3.6h-9.8v5h9v3.6h-9v5.2h10v3.6h-14v-21L1711.1,195.8L1711.1,195.8z"/>
			<path class="st6" d="M1562.7,232.2v1.6l-3.7,3.2v0.2h0.5c1.9,0,3.5,1.4,3.5,3.7c0,2.4-2,4.1-4.5,4.1c-2.7,0-4.7-1.7-4.7-4.2V240
				h1.8v0.7c0,1.6,1.1,2.7,2.9,2.7c1.7,0,2.7-1,2.7-2.5c0-1.4-1.1-2.3-2.4-2.3h-2V237l3.5-3.1h-6v-1.7H1562.7z"/>
			<path class="st6" d="M1571,232.2v12.6h-1.8v-10.9h-0.2l-2.3,3.8h-2l3.5-5.5L1571,232.2L1571,232.2z"/>
			<path class="st6" d="M1589.9,232.2v1.7h-6.3v3.8h5.8v1.7h-5.8v3.8h6.3v1.7h-8.1v-12.6L1589.9,232.2L1589.9,232.2z"/>
			<path class="st6" d="M1594.4,232.2l3.2,11h0.2l3.2-11h1.9l-3.9,12.6h-2.8l-3.9-12.6H1594.4z"/>
			<path class="st6" d="M1614.1,232.2v1.7h-6.3v3.8h5.8v1.7h-5.8v3.8h6.3v1.7h-8.1v-12.6L1614.1,232.2L1614.1,232.2z"/>
			<path class="st6" d="M1620.9,232.2l3.9,11h0.2v-11h1.8v12.6h-3.3l-3.9-11h-0.2v11h-1.8v-12.6H1620.9z"/>
			<path class="st6" d="M1639.9,232.2v1.7h-4.1v10.9h-1.8v-10.9h-4.1v-1.7H1639.9z"/>
			<path class="st6" d="M1651.3,235.9v0.6h-1.8v-0.4c0-1.6-1.2-2.5-2.8-2.5c-1.4,0-2.4,0.7-2.4,1.9s0.8,1.6,2.5,2l0.8,0.2
				c2.3,0.5,3.8,1.5,3.8,3.7c0,2.3-1.9,3.8-4.5,3.8c-3.1,0-5-1.8-5-4.6V240h1.8v0.4c0,2,1.2,3.1,3.2,3.1c1.7,0,2.7-0.9,2.7-2.1
				c0-1.2-0.8-1.7-2.4-2l-0.8-0.2c-2.3-0.5-3.9-1.3-3.9-3.7c0-2.1,1.9-3.5,4.2-3.5C1649.3,232,1651.3,233.4,1651.3,235.9z"/>
		</g>
	</g>
	<pattern  id="SVGID_1_" xlink:href="#SVGID_4_" patternTransform="matrix(0.7071 -0.7071 0.7071 0.7071 -229.1198 3361.6438)">
	</pattern>
	<rect x="1039.8" y="30.6" class="st7" width="287.7" height="17.4"/>
	<pattern  id="SVGID_2_" xlink:href="#SVGID_5_" patternTransform="matrix(0.7071 -0.7071 0.7071 0.7071 -229.1198 3361.6438)">
	</pattern>
	<rect x="1492.2" y="30.6" class="st8" width="32.9" height="17.4"/>
	<rect x="1778.4" y="30.6" class="st5" width="11.8" height="17.4"/>
	<rect x="1796.6" y="30.6" class="st5" width="5.9" height="17.4"/>
	<rect x="1808.9" y="30.6" class="st5" width="3" height="17.4"/>
	<polyline class="st9" points="513.7,48 513.7,100.3 210,100.3 210,176.8 	"/>
	<polyline class="st9" points="1409.9,48 1409.9,100.6 671.5,100.6 671.5,176.8 	"/>
	<polyline class="st9" points="1747.4,48 1747.4,155.2 1603.1,155.2 1603.1,176.8 	"/>
	<polyline class="st9" points="1623.9,48 1623.6,127.9 1136.1,127.9 1136.5,176.8 	"/>
	<polygon class="st5" points="1027.3,48 513.7,48 0,48 0,30.6 1027.3,30.6 	"/>
	<rect x="1340" y="30.6" class="st5" width="139.7" height="17.4"/>
	<rect x="1537.6" y="30.6" class="st5" width="172.6" height="17.4"/>
	<rect x="1722.7" y="30.6" class="st5" width="49.3" height="17.4"/>
	<line class="st10" x1="1139.5" y1="146.5" x2="1139.5" y2="155.2"/>
	<line class="st10" x1="1133.4" y1="146.5" x2="1133.4" y2="155.2"/>
</g>
<g id="box">
	<g id="activities">
		<g>
			<rect x="1668.9" y="276" class="st11" width="141.5" height="246.6"/>
			<path class="st12" d="M1808.9,277.5v243.6h-138.5V277.5H1808.9 M1811.9,274.5h-144.5v249.6h144.5V274.5L1811.9,274.5z"/>
		</g>
		<pattern  id="SVGID_3_" xlink:href="#SVGID_6_" patternTransform="matrix(1.4142 -1.4142 1.4142 1.4142 21526.4258 16566.8594)">
		</pattern>
		<rect x="1667.4" y="274.5" class="st13" width="144.5" height="249.6"/>
		<g>
			<g>
				<path class="st5" d="M1683,288c2.3,0,3.8,1.5,3.8,4v2.2c0,2.5-1.4,4-3.8,4s-3.8-1.5-3.8-4V292C1679.2,289.5,1680.6,288,1683,288
					z M1680.6,294.2c0,1.7,0.8,2.7,2.4,2.7s2.4-1,2.4-2.7V292c0-1.7-0.8-2.7-2.4-2.7s-2.4,1-2.4,2.7V294.2z"/>
				<path class="st5" d="M1692.2,288.2l3.1,8.6h0.2v-8.6h1.4v9.8h-2.6l-3-8.5h-0.2v8.5h-1.4v-9.8H1692.2z"/>
				<path class="st5" d="M1701.3,288.2v8.5h4.8v1.3h-6.2v-9.8H1701.3z"/>
				<path class="st5" d="M1710,288.2v9.8h-1.4v-9.8H1710z"/>
				<path class="st5" d="M1715.7,288.2l3.1,8.6h0.2v-8.6h1.4v9.8h-2.6l-3-8.5h-0.2v8.5h-1.4v-9.8H1715.7z"/>
				<path class="st5" d="M1729.7,288.2v1.3h-4.9v3h4.5v1.3h-4.5v3h4.9v1.3h-6.3v-9.8L1729.7,288.2L1729.7,288.2z"/>
				<path class="st5" d="M1683.5,321.8v9.8h-1.4v-8.5h-0.2l-1.8,3h-1.5l2.7-4.3H1683.5z"/>
				<path class="st5" d="M1689.8,331.8c-2,0-3.5-1.4-3.5-3.4V325c0-2,1.5-3.4,3.5-3.4s3.3,1.2,3.3,3.1h-1.4c0-1.1-0.6-1.8-1.9-1.8
					s-2.1,0.9-2.1,2.1v1.3h0.2c0.3-0.5,1-1.2,2.4-1.2c1.6,0,3.1,1.3,3.1,3.3S1691.8,331.8,1689.8,331.8z M1687.7,328.4
					c0,1.2,0.9,2.1,2.1,2.1c1.3,0,2.1-0.9,2.1-2.1s-0.9-2.1-2.1-2.1S1687.7,327.2,1687.7,328.4z"/>
				<path class="st5" d="M1697.8,321.6c1.4,0,2.2,0.9,2.2,2.2v0.3c0,1.4-0.8,2.2-2.2,2.2c-1.4,0-2.2-0.8-2.2-2.2v-0.3
					C1695.6,322.5,1696.4,321.6,1697.8,321.6z M1697.2,331.7l-1.1-0.8l2.7-3.2l0.8,0.6L1697.2,331.7z M1696.7,324.2
					c0,0.7,0.4,1.2,1.1,1.2s1.1-0.5,1.1-1.2v-0.4c0-0.7-0.4-1.2-1.1-1.2s-1.1,0.5-1.1,1.2V324.2z M1702.7,327.1
					c1.4,0,2.2,0.9,2.2,2.2v0.3c0,1.4-0.8,2.2-2.2,2.2s-2.2-0.8-2.2-2.2v-0.3C1700.4,327.9,1701.3,327.1,1702.7,327.1z
					 M1703.2,321.7l1.1,0.8l-2.7,3.2l-0.8-0.6L1703.2,321.7z M1701.6,329.6c0,0.7,0.4,1.2,1.1,1.2s1.1-0.5,1.1-1.2v-0.4
					c0-0.7-0.4-1.2-1.1-1.2s-1.1,0.5-1.1,1.2V329.6z"/>
			</g>
		</g>
		<g>
			<path class="st5" d="M1684.3,305.3l2.9,9.8h-1.7l-0.6-2.3h-3.7l-0.7,2.3h-1.7l2.9-9.8H1684.3z M1684.5,311.4l-1.4-4.7h-0.2
				l-1.3,4.7H1684.5z"/>
			<path class="st5" d="M1692.8,305.1c2.4,0,3.8,1.4,3.8,3.5v0.3h-1.6v-0.3c0-1.2-0.7-2.1-2.1-2.1c-1.5,0-2.3,1-2.3,2.5v2.4
				c0,1.5,0.8,2.5,2.3,2.5c1.5,0,2.1-0.9,2.1-2.1v-0.3h1.6v0.3c0,2.2-1.3,3.6-3.8,3.6c-2.4,0-4-1.4-4-4v-2.2
				C1688.8,306.6,1690.3,305.1,1692.8,305.1z"/>
			<path class="st5" d="M1705.9,305.3v1.5h-3.1v8.3h-1.6v-8.3h-3.1v-1.5H1705.9z"/>
			<path class="st5" d="M1709.7,305.3v9.8h-1.6v-9.8H1709.7z"/>
			<path class="st5" d="M1713.6,305.3l2.4,8.3h0.2l2.4-8.3h1.7l-2.9,9.8h-2.5l-2.9-9.8H1713.6z"/>
			<path class="st5" d="M1723.9,305.3v9.8h-1.6v-9.8H1723.9z"/>
			<path class="st5" d="M1733.7,308.2v0.4h-1.6v-0.3c0-1.2-0.8-1.8-2-1.8c-1,0-1.7,0.5-1.7,1.3c0,0.9,0.7,1.2,2,1.5l0.4,0.1
				c1.9,0.4,3.1,1.2,3.1,2.9c0,1.9-1.5,3-3.6,3c-2.4,0-3.9-1.3-3.9-3.6v-0.4h1.6v0.3c0,1.4,0.8,2.2,2.3,2.2c1.2,0,1.9-0.7,1.9-1.5
				c0-0.9-0.7-1.2-1.9-1.5l-0.4-0.1c-1.9-0.4-3.1-1.1-3.1-2.9c0-1.7,1.5-2.8,3.3-2.8C1732.2,305.1,1733.7,306.2,1733.7,308.2z"/>
			<path class="st5" d="M1739.3,305.3l2.3,8.1h0.2l2.3-8.1h2.9v9.8h-1.6V307h-0.2l-2.3,8.1h-2.4l-2.3-8.1h-0.2v8.1h-1.6v-9.8H1739.3
				z"/>
		</g>
	</g>
	<g id="rights">
		<g>
			<g>
				<rect x="623" y="431.8" class="st14" width="255.5" height="267"/>
				<g>
					<path class="st15" d="M877,433.3v264H624.5v-264H877 M880,430.3H621.5v270H880V430.3L880,430.3z"/>
				</g>
			</g>
			<g>
				<rect x="1202.6" y="465.4" class="st14" width="140.5" height="274.9"/>
				<g>
					<path class="st15" d="M1341.6,466.9v271.9h-137.5V466.9H1341.6 M1344.6,463.9h-143.5v277.9h143.5V463.9L1344.6,463.9z"/>
				</g>
			</g>
			<g>
				<rect x="1.9" y="384.6" class="st14" width="414" height="307.6"/>
				<g>
					<path class="st15" d="M414.4,386.1v304.6H3.4V386.1H414.4 M417.4,383.1H0.4v310.6h417V383.1L417.4,383.1z"/>
				</g>
			</g>
			<g>
				<g>
					<path class="st5" d="M1216.8,482.9l2.2,4.1h-1.5l-2.1-4h-1.9v4h-1.4v-9.8h4.1c1.8,0,3,1.1,3,2.9
						C1219.2,481.6,1218.2,482.7,1216.8,482.9z M1213.5,481.7h2.5c1.1,0,1.8-0.6,1.8-1.6s-0.6-1.6-1.8-1.6h-2.5V481.7z"/>
					<path class="st5" d="M1223.2,477.2v9.8h-1.4v-9.8H1223.2z"/>
					<path class="st5" d="M1226,481c0-2.5,1.4-4,3.8-4c2.3,0,3.6,1.4,3.6,3.6v0.1h-1.4v-0.1c0-1.4-0.6-2.3-2.2-2.3s-2.4,1-2.4,2.7
						v2.3c0,1.7,0.9,2.7,2.4,2.7s2.2-0.9,2.2-2.3v-0.2h-2.6v-1.3h4v1.4c0,2.2-1.3,3.6-3.6,3.6c-2.4,0-3.8-1.5-3.8-4V481z"/>
					<path class="st5" d="M1237.6,477.2v4.2h4.3v-4.2h1.4v9.8h-1.4v-4.3h-4.3v4.3h-1.4v-9.8H1237.6z"/>
					<path class="st5" d="M1253.4,477.2v1.3h-3.2v8.5h-1.4v-8.5h-3.2v-1.3H1253.4z"/>
					<path class="st5" d="M1262.3,480.1v0.4h-1.4v-0.3c0-1.3-0.9-1.9-2.2-1.9c-1.1,0-1.9,0.6-1.9,1.4c0,0.9,0.6,1.2,2,1.6l0.6,0.1
						c1.8,0.4,2.9,1.2,2.9,2.9c0,1.8-1.5,2.9-3.5,2.9c-2.4,0-3.9-1.4-3.9-3.6v-0.4h1.4v0.3c0,1.6,0.9,2.4,2.5,2.4
						c1.3,0,2.1-0.7,2.1-1.6s-0.6-1.3-1.9-1.6l-0.6-0.1c-1.8-0.4-3-1-3-2.9c0-1.7,1.5-2.7,3.3-2.7
						C1260.8,477,1262.3,478.1,1262.3,480.1z"/>
					<path class="st6" d="M1216.1,494v9.8h-1.4v-8.5h-0.2l-1.8,3h-1.5l2.7-4.3H1216.1z"/>
					<path class="st6" d="M1222.4,493.8c2.1,0,3.4,1.1,3.4,2.6c0,1.4-1,1.9-1.7,2.2v0.2c0.7,0.2,1.8,0.9,1.8,2.4
						c0,1.7-1.5,2.8-3.6,2.8s-3.6-1.2-3.6-2.8c0-1.5,1.1-2.2,1.8-2.4v-0.2c-0.7-0.2-1.7-0.8-1.7-2.2
						C1218.9,494.9,1220.3,493.8,1222.4,493.8z M1222.4,502.7c1.3,0,2.2-0.6,2.2-1.7c0-1-0.9-1.7-2.2-1.7c-1.3,0-2.2,0.6-2.2,1.7
						C1220.2,502.1,1221,502.7,1222.4,502.7z M1222.4,498.1c1.2,0,2-0.6,2-1.5s-0.8-1.5-2-1.5s-2,0.6-2,1.5
						C1220.3,497.5,1221.1,498.1,1222.4,498.1z"/>
					<path class="st6" d="M1230.6,493.8c1.4,0,2.2,0.9,2.2,2.2v0.3c0,1.4-0.8,2.2-2.2,2.2c-1.4,0-2.2-0.8-2.2-2.2V496
						C1228.3,494.7,1229.1,493.8,1230.6,493.8z M1230,503.9l-1.1-0.8l2.7-3.2l0.8,0.6L1230,503.9z M1229.4,496.4
						c0,0.7,0.4,1.2,1.1,1.2s1.1-0.5,1.1-1.2V496c0-0.7-0.4-1.2-1.1-1.2s-1.1,0.5-1.1,1.2V496.4z M1235.4,499.3
						c1.4,0,2.2,0.9,2.2,2.2v0.3c0,1.4-0.8,2.2-2.2,2.2s-2.2-0.8-2.2-2.2v-0.3C1233.2,500.1,1234,499.3,1235.4,499.3z M1236,493.9
						l1.1,0.8l-2.7,3.2l-0.8-0.6L1236,493.9z M1234.3,501.8c0,0.7,0.4,1.2,1.1,1.2s1.1-0.5,1.1-1.2v-0.4c0-0.7-0.4-1.2-1.1-1.2
						s-1.1,0.5-1.1,1.2V501.8z"/>
				</g>
			</g>
			<g>
				<g>
					<path class="st5" d="M17.5,402.7l2.2,4.1h-1.5l-2.1-4h-1.9v4h-1.4V397h4.1c1.8,0,3,1.1,3,2.9C19.8,401.4,18.9,402.4,17.5,402.7
						z M14.1,401.5h2.5c1.1,0,1.8-0.6,1.8-1.6s-0.6-1.6-1.8-1.6h-2.5V401.5z"/>
					<path class="st5" d="M23.8,396.9v9.8h-1.4v-9.8H23.8z"/>
					<path class="st5" d="M26.6,400.8c0-2.5,1.4-4,3.8-4c2.3,0,3.6,1.4,3.6,3.6v0.1h-1.4v-0.1c0-1.4-0.6-2.3-2.2-2.3s-2.4,1-2.4,2.7
						v2.3c0,1.7,0.9,2.7,2.4,2.7s2.2-0.9,2.2-2.3v-0.2H30V402h4v1.4c0,2.2-1.3,3.6-3.6,3.6c-2.4,0-3.8-1.5-3.8-4V400.8z"/>
					<path class="st5" d="M38.3,396.9v4.2h4.3v-4.2H44v9.8h-1.4v-4.3h-4.3v4.3h-1.4v-9.8H38.3z"/>
					<path class="st5" d="M54.1,396.9v1.3h-3.2v8.5h-1.4v-8.5h-3.2v-1.3H54.1z"/>
					<path class="st5" d="M62.9,399.8v0.4h-1.4v-0.3c0-1.3-0.9-1.9-2.2-1.9c-1.1,0-1.9,0.6-1.9,1.4c0,0.9,0.6,1.2,2,1.6l0.6,0.1
						c1.8,0.4,2.9,1.2,2.9,2.9c0,1.8-1.5,2.9-3.5,2.9c-2.4,0-3.9-1.4-3.9-3.6v-0.4H57v0.3c0,1.6,0.9,2.4,2.5,2.4
						c1.3,0,2.1-0.7,2.1-1.6s-0.6-1.3-1.9-1.6l-0.6-0.1c-1.8-0.4-3-1-3-2.9c0-1.7,1.5-2.7,3.3-2.7C61.4,396.7,62.9,397.8,62.9,399.8
						z"/>
					<path class="st6" d="M15.8,423.7c-2,0-3.5-1.4-3.5-3.4v-3.4c0-2,1.5-3.4,3.5-3.4s3.3,1.2,3.3,3.1h-1.4c0-1.1-0.6-1.8-1.9-1.8
						s-2.1,0.9-2.1,2.1v1.3h0.2c0.3-0.5,1-1.2,2.4-1.2c1.6,0,3.1,1.3,3.1,3.3C19.4,422.4,17.9,423.7,15.8,423.7z M13.8,420.4
						c0,1.2,0.9,2.1,2.1,2.1c1.3,0,2.1-0.9,2.1-2.1s-0.9-2.1-2.1-2.1C14.6,418.3,13.8,419.1,13.8,420.4z"/>
					<path class="st6" d="M25.3,413.5c2.2,0,3.7,1.5,3.7,4v2.2c0,2.5-1.4,4-3.7,4s-3.7-1.5-3.7-4v-2.2C21.6,415,23,413.5,25.3,413.5
						z M23,419.8c0,1.7,0.8,2.7,2.3,2.7s2.3-1,2.3-2.7v-2.2c0-1.7-0.8-2.7-2.3-2.7s-2.3,1-2.3,2.7V419.8z"/>
					<path class="st6" d="M33.7,413.5c1.4,0,2.2,0.9,2.2,2.2v0.3c0,1.4-0.8,2.2-2.2,2.2s-2.2-0.8-2.2-2.2v-0.3
						C31.4,414.4,32.3,413.5,33.7,413.5z M33.1,423.7l-1.1-0.8l2.7-3.2l0.8,0.6L33.1,423.7z M32.6,416.1c0,0.7,0.4,1.2,1.1,1.2
						c0.7,0,1.1-0.5,1.1-1.2v-0.4c0-0.7-0.4-1.2-1.1-1.2c-0.7,0-1.1,0.5-1.1,1.2V416.1z M38.5,419c1.4,0,2.2,0.9,2.2,2.2v0.3
						c0,1.4-0.8,2.2-2.2,2.2s-2.2-0.8-2.2-2.2v-0.3C36.3,419.9,37.1,419,38.5,419z M39.1,413.6l1.1,0.8l-2.7,3.2l-0.8-0.6
						L39.1,413.6z M37.4,421.6c0,0.7,0.4,1.2,1.1,1.2s1.1-0.5,1.1-1.2v-0.4c0-0.7-0.4-1.2-1.1-1.2s-1.1,0.5-1.1,1.2V421.6z"/>
				</g>
			</g>
			<g>
				<g>
					<path class="st5" d="M638,448.6l2.2,4.1h-1.5l-2.1-4h-1.9v4h-1.4v-9.8h4.1c1.8,0,3,1.1,3,2.9
						C640.4,447.3,639.5,448.4,638,448.6z M634.7,447.4h2.5c1.1,0,1.8-0.6,1.8-1.6s-0.6-1.6-1.8-1.6h-2.5V447.4z"/>
					<path class="st5" d="M644.4,442.9v9.8H643v-9.8H644.4z"/>
					<path class="st5" d="M647.2,446.7c0-2.5,1.4-4,3.8-4c2.3,0,3.6,1.4,3.6,3.6v0.1h-1.4v-0.1c0-1.4-0.6-2.3-2.2-2.3
						s-2.4,1-2.4,2.7v2.3c0,1.7,0.9,2.7,2.4,2.7s2.2-0.9,2.2-2.3v-0.2h-2.6v-1.3h4v1.4c0,2.2-1.3,3.6-3.6,3.6c-2.4,0-3.8-1.5-3.8-4
						V446.7z"/>
					<path class="st5" d="M658.9,442.9v4.2h4.3v-4.2h1.4v9.8h-1.4v-4.3h-4.3v4.3h-1.4v-9.8H658.9z"/>
					<path class="st5" d="M674.6,442.9v1.3h-3.2v8.5H670v-8.5h-3.2v-1.3H674.6z"/>
					<path class="st5" d="M683.5,445.8v0.4h-1.4v-0.3c0-1.3-0.9-1.9-2.2-1.9c-1.1,0-1.9,0.6-1.9,1.4c0,0.9,0.6,1.2,2,1.6l0.6,0.1
						c1.8,0.4,2.9,1.2,2.9,2.9c0,1.8-1.5,2.9-3.5,2.9c-2.4,0-3.9-1.4-3.9-3.6v-0.4h1.4v0.3c0,1.6,0.9,2.4,2.5,2.4
						c1.3,0,2.1-0.7,2.1-1.6s-0.6-1.3-1.9-1.6l-0.6-0.1c-1.8-0.4-3-1-3-2.9c0-1.7,1.5-2.7,3.3-2.7
						C682,442.7,683.5,443.8,683.5,445.8z"/>
					<path class="st6" d="M639.7,459.7v1.2l-2.9,2.5v0.2h0.4c1.5,0,2.7,1.1,2.7,2.9c0,1.9-1.6,3.2-3.5,3.2c-2.1,0-3.7-1.3-3.7-3.3
						v-0.7h1.4v0.6c0,1.2,0.9,2.1,2.2,2.1s2.1-0.8,2.1-1.9s-0.9-1.8-1.9-1.8H635v-1.3l2.7-2.4H633v-1.3L639.7,459.7L639.7,459.7z"/>
					<path class="st6" d="M646.2,459.7v9.8h-1.4V461h-0.2l-1.8,3h-1.5l2.7-4.3H646.2z"/>
					<path class="st6" d="M651.2,459.5c1.4,0,2.2,0.9,2.2,2.2v0.3c0,1.4-0.8,2.2-2.2,2.2s-2.2-0.8-2.2-2.2v-0.3
						C649,460.4,649.8,459.5,651.2,459.5z M650.6,469.6l-1.1-0.8l2.7-3.2l0.8,0.6L650.6,469.6z M650.1,462.1c0,0.7,0.4,1.2,1.1,1.2
						c0.7,0,1.1-0.5,1.1-1.2v-0.4c0-0.7-0.4-1.2-1.1-1.2c-0.7,0-1.1,0.5-1.1,1.2V462.1z M656.1,465c1.4,0,2.2,0.9,2.2,2.2v0.3
						c0,1.4-0.8,2.2-2.2,2.2s-2.2-0.8-2.2-2.2v-0.3C653.8,465.8,654.7,465,656.1,465z M656.6,459.6l1.1,0.8l-2.7,3.2l-0.8-0.6
						L656.6,459.6z M655,467.5c0,0.7,0.4,1.2,1.1,1.2s1.1-0.5,1.1-1.2v-0.4c0-0.7-0.4-1.2-1.1-1.2s-1.1,0.5-1.1,1.2V467.5z"/>
				</g>
			</g>
		</g>
	</g>
	<g id="protest">
		<g>
			<g>
				<rect x="722.5" y="709.8" class="st16" width="156" height="122.3"/>
				<path class="st17" d="M877,711.3v119.3H724V711.3H877 M880,708.3H721v125.3h159V708.3L880,708.3z"/>
			</g>
			<g>
				<rect x="1194.7" y="751.4" class="st16" width="148.4" height="80.7"/>
				<path class="st17" d="M1341.6,752.9v77.7h-145.4v-77.7H1341.6 M1344.6,749.9h-151.4v83.7h151.4V749.9L1344.6,749.9z"/>
			</g>
			<g>
				<rect x="337.3" y="703.2" class="st16" width="78.6" height="128.9"/>
				<path class="st17" d="M414.4,704.7v125.9h-75.6V704.7H414.4 M417.4,701.7h-81.6v131.9h81.6V701.7L417.4,701.7z"/>
			</g>
			<g>
				<rect x="1586.1" y="679.4" class="st16" width="224.3" height="156.1"/>
				<g>
					<path class="st17" d="M1808.9,680.9V834h-221.3V680.9H1808.9 M1811.9,677.9h-227.3V837h227.3V677.9L1811.9,677.9z"/>
				</g>
			</g>
			<g>
				<path class="st5" d="M1601,689c1.8,0,3,1.2,3,2.9c0,1.8-1.3,2.9-3,2.9h-2.4v3.9h-1.4V689H1601z M1598.6,693.6h2.3
					c1.1,0,1.8-0.6,1.8-1.7s-0.6-1.7-1.8-1.7h-2.3V693.6z"/>
				<path class="st5" d="M1611.3,694.8l2.2,4.1h-1.5l-2.1-4h-1.9v4h-1.4V689h4.1c1.8,0,3,1.1,3,2.9
					C1613.6,693.5,1612.7,694.5,1611.3,694.8z M1607.9,693.6h2.5c1.1,0,1.8-0.6,1.8-1.6s-0.6-1.6-1.8-1.6h-2.5V693.6z"/>
				<path class="st5" d="M1619.7,688.8c2.3,0,3.8,1.5,3.8,4v2.2c0,2.5-1.4,4-3.8,4s-3.8-1.5-3.8-4v-2.2
					C1615.9,690.3,1617.4,688.8,1619.7,688.8z M1617.3,695.1c0,1.7,0.8,2.7,2.4,2.7s2.4-1,2.4-2.7v-2.2c0-1.7-0.8-2.7-2.4-2.7
					s-2.4,1-2.4,2.7V695.1z"/>
				<path class="st5" d="M1633.1,689v1.3h-3.2v8.5h-1.4v-8.5h-3.2V689H1633.1z"/>
				<path class="st5" d="M1641.8,689v1.3h-4.9v3h4.5v1.3h-4.5v3h4.9v1.3h-6.3V689H1641.8z"/>
				<path class="st5" d="M1651.3,691.9v0.4h-1.4V692c0-1.3-0.9-1.9-2.2-1.9c-1.1,0-1.9,0.6-1.9,1.4c0,0.9,0.6,1.2,2,1.6l0.6,0.1
					c1.8,0.4,2.9,1.2,2.9,2.9c0,1.8-1.5,2.9-3.5,2.9c-2.4,0-3.9-1.4-3.9-3.6V695h1.4v0.3c0,1.6,0.9,2.4,2.5,2.4
					c1.3,0,2.1-0.7,2.1-1.6s-0.6-1.3-1.9-1.6l-0.6-0.1c-1.8-0.4-3-1-3-2.9c0-1.7,1.5-2.7,3.3-2.7
					C1649.7,688.8,1651.3,689.9,1651.3,691.9z"/>
				<path class="st5" d="M1661,689v1.3h-3.2v8.5h-1.4v-8.5h-3.2V689H1661z"/>
				<path class="st6" d="M1601.2,705.8v9.8h-1.4v-8.5h-0.2l-1.8,3h-1.5l2.7-4.3H1601.2z"/>
				<path class="st6" d="M1607.4,715.8c-2,0-3.5-1.4-3.5-3.4V709c0-2,1.5-3.4,3.5-3.4s3.3,1.2,3.3,3.1h-1.4c0-1.1-0.6-1.8-1.9-1.8
					s-2.1,0.9-2.1,2.1v1.3h0.2c0.3-0.5,1-1.2,2.4-1.2c1.6,0,3.1,1.3,3.1,3.3C1611,714.5,1609.5,715.8,1607.4,715.8z M1605.4,712.5
					c0,1.2,0.9,2.1,2.1,2.1c1.3,0,2.1-0.9,2.1-2.1c0-1.2-0.9-2.1-2.1-2.1C1606.2,710.4,1605.4,711.2,1605.4,712.5z"/>
				<path class="st6" d="M1615.5,705.6c1.4,0,2.2,0.9,2.2,2.2v0.3c0,1.4-0.8,2.2-2.2,2.2c-1.4,0-2.2-0.8-2.2-2.2v-0.3
					C1613.2,706.5,1614.1,705.6,1615.5,705.6z M1614.9,715.8l-1.1-0.8l2.7-3.2l0.8,0.6L1614.9,715.8z M1614.4,708.2
					c0,0.7,0.4,1.2,1.1,1.2s1.1-0.5,1.1-1.2v-0.4c0-0.7-0.4-1.2-1.1-1.2s-1.1,0.5-1.1,1.2V708.2z M1620.3,711.1
					c1.4,0,2.2,0.9,2.2,2.2v0.3c0,1.4-0.8,2.2-2.2,2.2s-2.2-0.8-2.2-2.2v-0.3C1618.1,712,1618.9,711.1,1620.3,711.1z M1620.9,705.7
					l1.1,0.8l-2.7,3.2l-0.8-0.6L1620.9,705.7z M1619.2,713.7c0,0.7,0.4,1.2,1.1,1.2s1.1-0.5,1.1-1.2v-0.4c0-0.7-0.4-1.2-1.1-1.2
					s-1.1,0.5-1.1,1.2V713.7z"/>
			</g>
			<g>
				<path class="st5" d="M1205.9,761c1.8,0,3,1.2,3,2.9c0,1.8-1.3,2.9-3,2.9h-2.4v3.9h-1.4V761H1205.9z M1203.5,765.6h2.3
					c1.1,0,1.8-0.6,1.8-1.7s-0.6-1.7-1.8-1.7h-2.3V765.6z"/>
				<path class="st5" d="M1216.2,766.8l2.2,4.1h-1.5l-2.1-4h-1.9v4h-1.4V761h4.1c1.8,0,3,1.1,3,2.9
					C1218.5,765.4,1217.6,766.5,1216.2,766.8z M1212.8,765.5h2.5c1.1,0,1.8-0.6,1.8-1.6s-0.6-1.6-1.8-1.6h-2.5V765.5z"/>
				<path class="st5" d="M1224.6,760.8c2.3,0,3.8,1.5,3.8,4v2.2c0,2.5-1.4,4-3.8,4s-3.8-1.5-3.8-4v-2.2
					C1220.8,762.3,1222.2,760.8,1224.6,760.8z M1222.2,767.1c0,1.7,0.8,2.7,2.4,2.7s2.4-1,2.4-2.7v-2.2c0-1.7-0.8-2.7-2.4-2.7
					s-2.4,1-2.4,2.7V767.1z"/>
				<path class="st5" d="M1238,761v1.3h-3.2v8.5h-1.4v-8.5h-3.2V761H1238z"/>
				<path class="st5" d="M1246.7,761v1.3h-4.9v3h4.5v1.3h-4.5v3h4.9v1.3h-6.3V761H1246.7z"/>
				<path class="st5" d="M1256.2,763.9v0.4h-1.4V764c0-1.3-0.9-1.9-2.2-1.9c-1.1,0-1.9,0.6-1.9,1.4c0,0.9,0.6,1.2,2,1.6l0.6,0.1
					c1.8,0.4,2.9,1.2,2.9,2.9c0,1.8-1.5,2.9-3.5,2.9c-2.4,0-3.9-1.4-3.9-3.6V767h1.4v0.3c0,1.6,0.9,2.4,2.5,2.4
					c1.3,0,2.1-0.7,2.1-1.6s-0.6-1.3-1.9-1.6l-0.6-0.1c-1.8-0.4-3-1-3-2.9c0-1.7,1.5-2.7,3.3-2.7
					C1254.6,760.8,1256.2,761.9,1256.2,763.9z"/>
				<path class="st5" d="M1265.9,761v1.3h-3.2v8.5h-1.4v-8.5h-3.2V761H1265.9z"/>
				<path class="st6" d="M1205.2,787.8c-2,0-3.5-1.4-3.5-3.4V781c0-2,1.5-3.4,3.5-3.4s3.3,1.2,3.3,3.1h-1.4c0-1.1-0.6-1.8-1.9-1.8
					s-2.1,0.9-2.1,2.1v1.3h0.2c0.3-0.5,1-1.2,2.4-1.2c1.6,0,3.1,1.3,3.1,3.3C1208.7,786.5,1207.2,787.8,1205.2,787.8z M1203.1,784.4
					c0,1.2,0.9,2.1,2.1,2.1c1.3,0,2.1-0.9,2.1-2.1c0-1.2-0.9-2.1-2.1-2.1C1204,782.4,1203.1,783.2,1203.1,784.4z"/>
				<path class="st6" d="M1213.2,777.6c1.4,0,2.2,0.9,2.2,2.2v0.3c0,1.4-0.8,2.2-2.2,2.2c-1.4,0-2.2-0.8-2.2-2.2v-0.3
					C1211,778.5,1211.8,777.6,1213.2,777.6z M1212.7,787.8l-1.1-0.8l2.7-3.2l0.8,0.6L1212.7,787.8z M1212.1,780.2
					c0,0.7,0.4,1.2,1.1,1.2s1.1-0.5,1.1-1.2v-0.4c0-0.7-0.4-1.2-1.1-1.2s-1.1,0.5-1.1,1.2V780.2z M1218.1,783.1
					c1.4,0,2.2,0.9,2.2,2.2v0.3c0,1.4-0.8,2.2-2.2,2.2s-2.2-0.8-2.2-2.2v-0.3C1215.9,784,1216.7,783.1,1218.1,783.1z M1218.7,777.7
					l1.1,0.8l-2.7,3.2l-0.8-0.6L1218.7,777.7z M1217,785.7c0,0.7,0.4,1.2,1.1,1.2s1.1-0.5,1.1-1.2v-0.4c0-0.7-0.4-1.2-1.1-1.2
					s-1.1,0.5-1.1,1.2V785.7z"/>
			</g>
			<g>
				<path class="st5" d="M734.7,720.8c1.8,0,3,1.2,3,2.9c0,1.8-1.3,2.9-3,2.9h-2.4v3.9h-1.4v-9.8L734.7,720.8L734.7,720.8z
					 M732.3,725.4h2.3c1.1,0,1.8-0.6,1.8-1.7s-0.6-1.7-1.8-1.7h-2.3V725.4z"/>
				<path class="st5" d="M745,726.5l2.2,4.1h-1.5l-2.1-4h-1.9v4h-1.4v-9.8h4.1c1.8,0,3,1.1,3,2.9C747.4,725.2,746.4,726.2,745,726.5
					z M741.7,725.3h2.5c1.1,0,1.8-0.6,1.8-1.6s-0.6-1.6-1.8-1.6h-2.5V725.3z"/>
				<path class="st5" d="M753.5,720.6c2.3,0,3.8,1.5,3.8,4v2.2c0,2.5-1.4,4-3.8,4s-3.8-1.5-3.8-4v-2.2
					C749.7,722,751.1,720.6,753.5,720.6z M751.1,726.8c0,1.7,0.8,2.7,2.4,2.7s2.4-1,2.4-2.7v-2.2c0-1.7-0.8-2.7-2.4-2.7
					s-2.4,1-2.4,2.7V726.8z"/>
				<path class="st5" d="M766.9,720.8v1.3h-3.2v8.5h-1.4V722h-3.2v-1.3L766.9,720.8L766.9,720.8z"/>
				<path class="st5" d="M775.6,720.8v1.3h-4.9v3h4.5v1.3h-4.5v3h4.9v1.3h-6.3v-9.8L775.6,720.8L775.6,720.8z"/>
				<path class="st5" d="M785,723.6v0.4h-1.4v-0.3c0-1.3-0.9-1.9-2.2-1.9c-1.1,0-1.9,0.6-1.9,1.4c0,0.9,0.6,1.2,2,1.6l0.6,0.1
					c1.8,0.4,2.9,1.2,2.9,2.9c0,1.8-1.5,2.9-3.5,2.9c-2.4,0-3.9-1.4-3.9-3.6v-0.4h1.4v0.3c0,1.6,0.9,2.4,2.5,2.4
					c1.3,0,2.1-0.7,2.1-1.6s-0.6-1.3-1.9-1.6l-0.6-0.1c-1.8-0.4-3-1-3-2.9c0-1.7,1.5-2.7,3.3-2.7C783.5,720.6,785,721.6,785,723.6z"
					/>
				<path class="st5" d="M794.7,720.8v1.3h-3.2v8.5h-1.4V722H787v-1.3L794.7,720.8L794.7,720.8z"/>
				<path class="st6" d="M733.9,737.4c2,0,3.5,1.4,3.5,3.4v3.4c0,2-1.5,3.4-3.5,3.4s-3.3-1.2-3.3-3.1h1.4c0,1.1,0.6,1.8,1.9,1.8
					s2.1-0.9,2.1-2.1v-1.3h-0.2c-0.3,0.5-1,1.2-2.4,1.2c-1.6,0-3.1-1.3-3.1-3.3C730.4,738.7,731.9,737.4,733.9,737.4z M736,740.8
					c0-1.2-0.9-2.1-2.1-2.1c-1.3,0-2.1,0.9-2.1,2.1c0,1.2,0.9,2.1,2.1,2.1C735.2,742.8,736,742,736,740.8z"/>
				<path class="st6" d="M742.1,737.4c1.4,0,2.2,0.9,2.2,2.2v0.3c0,1.4-0.8,2.2-2.2,2.2s-2.2-0.8-2.2-2.2v-0.3
					C739.9,738.2,740.7,737.4,742.1,737.4z M741.5,747.5l-1.1-0.8l2.7-3.2l0.8,0.6L741.5,747.5z M741,739.9c0,0.7,0.4,1.2,1.1,1.2
					c0.7,0,1.1-0.5,1.1-1.2v-0.4c0-0.7-0.4-1.2-1.1-1.2c-0.7,0-1.1,0.5-1.1,1.2V739.9z M747,742.8c1.4,0,2.2,0.9,2.2,2.2v0.3
					c0,1.4-0.8,2.2-2.2,2.2s-2.2-0.8-2.2-2.2V745C744.7,743.7,745.6,742.8,747,742.8z M747.5,737.4l1.1,0.8l-2.7,3.2l-0.8-0.6
					L747.5,737.4z M745.9,745.4c0,0.7,0.4,1.2,1.1,1.2s1.1-0.5,1.1-1.2V745c0-0.7-0.4-1.2-1.1-1.2s-1.1,0.5-1.1,1.2V745.4z"/>
			</g>
			<g>
				<path class="st5" d="M350.6,712c1.8,0,3,1.2,3,2.9c0,1.8-1.3,2.9-3,2.9h-2.4v3.9h-1.4V712H350.6z M348.2,716.6h2.3
					c1.1,0,1.8-0.6,1.8-1.7s-0.6-1.7-1.8-1.7h-2.3V716.6z"/>
				<path class="st5" d="M360.2,717.8l2.2,4.1h-1.5l-2.1-4h-1.9v4h-1.4V712h4.1c1.8,0,3,1.1,3,2.9
					C362.6,716.4,361.6,717.5,360.2,717.8z M356.9,716.5h2.5c1.1,0,1.8-0.6,1.8-1.6s-0.6-1.6-1.8-1.6h-2.5V716.5z"/>
				<path class="st5" d="M368.1,711.8c2.3,0,3.8,1.5,3.8,4v2.2c0,2.5-1.4,4-3.8,4s-3.8-1.5-3.8-4v-2.2
					C364.2,713.3,365.7,711.8,368.1,711.8z M365.6,718.1c0,1.7,0.8,2.7,2.4,2.7s2.4-1,2.4-2.7v-2.2c0-1.7-0.8-2.7-2.4-2.7
					s-2.4,1-2.4,2.7V718.1z"/>
				<path class="st5" d="M380.8,712v1.3h-3.2v8.5h-1.4v-8.5H373V712H380.8z"/>
				<path class="st5" d="M388.9,712v1.3H384v3h4.5v1.3H384v3h4.9v1.3h-6.3V712H388.9z"/>
				<path class="st5" d="M397.7,714.9v0.4h-1.4V715c0-1.3-0.9-1.9-2.2-1.9c-1.1,0-1.9,0.6-1.9,1.4c0,0.9,0.6,1.2,2,1.6l0.6,0.1
					c1.8,0.4,2.9,1.2,2.9,2.9c0,1.8-1.5,2.9-3.5,2.9c-2.4,0-3.9-1.4-3.9-3.6V718h1.4v0.3c0,1.6,0.9,2.4,2.5,2.4
					c1.3,0,2.1-0.7,2.1-1.6s-0.6-1.3-1.9-1.6l-0.6-0.1c-1.8-0.4-3-1-3-2.9c0-1.7,1.5-2.7,3.3-2.7
					C396.2,711.8,397.7,712.9,397.7,714.9z"/>
				<path class="st5" d="M406.8,712v1.3h-3.2v8.5h-1.4v-8.5H399V712H406.8z"/>
				<path class="st6" d="M353.3,728.8v1.3h-5.1v3.1h0.2c0.4-0.7,1-1.2,2.3-1.2c1.7,0,3,1.3,3,3.2c0,2-1.4,3.6-3.6,3.6
					s-3.7-1.3-3.7-3.5v-0.2h1.4v0.1c0,1.3,0.8,2.2,2.3,2.2c1.4,0,2.2-0.9,2.2-2.3c0-1.3-0.8-2-1.8-2c-0.9,0-1.3,0.5-1.5,0.8h-2.1
					v-5.3h6.4L353.3,728.8L353.3,728.8z"/>
				<path class="st6" d="M358.1,728.6c1.4,0,2.2,0.9,2.2,2.2v0.3c0,1.4-0.8,2.2-2.2,2.2c-1.4,0-2.2-0.8-2.2-2.2v-0.3
					C355.9,729.5,356.7,728.6,358.1,728.6z M357.6,738.8l-1.1-0.8l2.7-3.2l0.8,0.6L357.6,738.8z M357,731.2c0,0.7,0.4,1.2,1.1,1.2
					s1.1-0.5,1.1-1.2v-0.4c0-0.7-0.4-1.2-1.1-1.2s-1.1,0.5-1.1,1.2V731.2z M363,734.1c1.4,0,2.2,0.9,2.2,2.2v0.3
					c0,1.4-0.8,2.2-2.2,2.2s-2.2-0.8-2.2-2.2v-0.3C360.7,735,361.6,734.1,363,734.1z M363.6,728.7l1.1,0.8l-2.7,3.2l-0.8-0.6
					L363.6,728.7z M361.9,736.7c0,0.7,0.4,1.2,1.1,1.2s1.1-0.5,1.1-1.2v-0.4c0-0.7-0.4-1.2-1.1-1.2s-1.1,0.5-1.1,1.2V736.7z"/>
			</g>
		</g>
	</g>
	<g id="education">
		<g>
			<rect x="464.1" y="709.8" class="st18" width="25.1" height="122.3"/>
			<g>
				<path class="st19" d="M487.8,711.3v119.3h-22.1V711.3H487.8 M490.8,708.3h-28.1v125.3h28.1V708.3L490.8,708.3z"/>
			</g>
		</g>
		<g>
			<rect x="928.7" y="751.4" class="st18" width="96.7" height="80.7"/>
			<g>
				<path class="st19" d="M1023.9,752.9v77.7h-93.7v-77.7H1023.9 M1026.9,749.9h-99.7v83.7h99.7V749.9L1026.9,749.9z"/>
			</g>
		</g>
		<g>
			<rect x="1.5" y="703.2" class="st18" width="254.3" height="128.9"/>
			<g>
				<path class="st19" d="M254.3,704.7v125.9H3V704.7H254.3 M257.3,701.7H0v131.9h257.3V701.7L257.3,701.7z"/>
			</g>
		</g>
		<g>
			<path class="st5" d="M941.5,761v1.3h-4.9v3h4.5v1.3h-4.5v3h4.9v1.3h-6.3V761H941.5z"/>
			<path class="st5" d="M947.3,761c2.5,0,4,1.3,4,3.8v2.2c0,2.5-1.5,3.8-4,3.8h-3V761H947.3z M945.7,769.6h1.6
				c1.7,0,2.6-0.8,2.6-2.5V765c0-1.8-0.9-2.5-2.6-2.5h-1.6V769.6z"/>
			<path class="st5" d="M955.5,761v6.5c0,1.4,0.8,2.2,2.3,2.2s2.3-0.8,2.3-2.2V761h1.4v6.5c0,2.3-1.3,3.5-3.7,3.5s-3.7-1.2-3.7-3.5
				V761H955.5z"/>
			<path class="st5" d="M968,760.8c2.4,0,3.7,1.4,3.7,3.5v0.3h-1.4v-0.2c0-1.4-0.7-2.3-2.3-2.3s-2.4,1-2.4,2.7v2.3
				c0,1.7,0.9,2.7,2.4,2.7c1.6,0,2.3-0.9,2.3-2.3v-0.2h1.4v0.2c0,2.2-1.3,3.6-3.7,3.6s-3.8-1.5-3.8-4v-2.2
				C964.2,762.3,965.6,760.8,968,760.8z"/>
			<path class="st5" d="M978.7,761l3.1,9.8h-1.5l-0.7-2.4h-4l-0.7,2.4h-1.5l3.1-9.8H978.7z M979.2,767.2l-1.5-4.9h-0.2l-1.5,4.9
				H979.2z"/>
			<path class="st5" d="M990.3,761v1.3h-3.2v8.5h-1.4v-8.5h-3.2V761H990.3z"/>
			<path class="st5" d="M994.1,761v9.8h-1.4V761H994.1z"/>
			<path class="st5" d="M1000.7,760.8c2.3,0,3.8,1.5,3.8,4v2.2c0,2.5-1.4,4-3.8,4s-3.8-1.5-3.8-4v-2.2
				C996.9,762.3,998.3,760.8,1000.7,760.8z M998.3,767.1c0,1.7,0.8,2.7,2.4,2.7s2.4-1,2.4-2.7v-2.2c0-1.7-0.8-2.7-2.4-2.7
				s-2.4,1-2.4,2.7V767.1z"/>
			<path class="st5" d="M1009.9,761l3.1,8.6h0.2V761h1.4v9.8h-2.6l-3-8.5h-0.2v8.5h-1.4V761H1009.9z"/>
			<path class="st6" d="M940.9,777.8v6.6h1.7v1.3h-1.7v1.9h-1.4v-1.9h-4.9v-1.2l3.9-6.7L940.9,777.8L940.9,777.8z M936.1,784.4h3.3
				v-5.5h-0.2L936.1,784.4z"/>
			<path class="st6" d="M946.7,777.6c1.4,0,2.2,0.9,2.2,2.2v0.3c0,1.4-0.8,2.2-2.2,2.2s-2.2-0.8-2.2-2.2v-0.3
				C944.4,778.5,945.3,777.6,946.7,777.6z M946.1,787.8L945,787l2.7-3.2l0.8,0.6L946.1,787.8z M945.6,780.2c0,0.7,0.4,1.2,1.1,1.2
				c0.7,0,1.1-0.5,1.1-1.2v-0.4c0-0.7-0.4-1.2-1.1-1.2c-0.7,0-1.1,0.5-1.1,1.2V780.2z M951.6,783.1c1.4,0,2.2,0.9,2.2,2.2v0.3
				c0,1.4-0.8,2.2-2.2,2.2s-2.2-0.8-2.2-2.2v-0.3C949.3,784,950.1,783.1,951.6,783.1z M952.1,777.7l1.1,0.8l-2.7,3.2l-0.8-0.6
				L952.1,777.7z M950.4,785.7c0,0.7,0.4,1.2,1.1,1.2s1.1-0.5,1.1-1.2v-0.4c0-0.7-0.4-1.2-1.1-1.2s-1.1,0.5-1.1,1.2V785.7z"/>
		</g>
		<g>
			<g>
				<path class="st5" d="M19,715.4v1.3h-4.9v3h4.5v1.3h-4.5v3H19v1.3h-6.3v-9.8L19,715.4L19,715.4z"/>
				<path class="st5" d="M24.7,715.4c2.5,0,4,1.3,4,3.8v2.2c0,2.5-1.5,3.8-4,3.8h-3v-9.8H24.7z M23.1,724h1.6c1.7,0,2.6-0.8,2.6-2.5
					v-2.1c0-1.8-0.9-2.5-2.6-2.5h-1.6V724z"/>
				<path class="st5" d="M32.9,715.4v6.5c0,1.4,0.8,2.2,2.3,2.2s2.3-0.8,2.3-2.2v-6.5h1.4v6.5c0,2.3-1.3,3.5-3.7,3.5
					s-3.7-1.2-3.7-3.5v-6.5H32.9z"/>
				<path class="st5" d="M45.4,715.2c2.4,0,3.7,1.4,3.7,3.5v0.3h-1.4v-0.2c0-1.4-0.7-2.3-2.3-2.3s-2.4,1-2.4,2.7v2.3
					c0,1.7,0.9,2.7,2.4,2.7c1.6,0,2.3-0.9,2.3-2.3v-0.2h1.4v0.2c0,2.2-1.3,3.6-3.7,3.6s-3.8-1.5-3.8-4v-2.2
					C41.6,716.7,43,715.2,45.4,715.2z"/>
				<path class="st5" d="M56.1,715.4l3.1,9.8h-1.5l-0.7-2.4h-4l-0.7,2.4h-1.5l3.1-9.8H56.1z M56.6,721.6l-1.5-4.9h-0.2l-1.5,4.9
					H56.6z"/>
				<path class="st5" d="M67.7,715.4v1.3h-3.2v8.5h-1.4v-8.5H60v-1.3H67.7z"/>
				<path class="st5" d="M71.5,715.4v9.8h-1.4v-9.8H71.5z"/>
				<path class="st5" d="M78.2,715.2c2.3,0,3.8,1.5,3.8,4v2.2c0,2.5-1.4,4-3.8,4s-3.8-1.5-3.8-4v-2.2
					C74.3,716.7,75.8,715.2,78.2,715.2z M75.7,721.5c0,1.7,0.8,2.7,2.4,2.7s2.4-1,2.4-2.7v-2.2c0-1.7-0.8-2.7-2.4-2.7
					s-2.4,1-2.4,2.7V721.5z"/>
				<path class="st5" d="M87.3,715.4l3.1,8.6h0.2v-8.6H92v9.8h-2.6l-3-8.5h-0.2v8.5h-1.4v-9.8H87.3z"/>
				<path class="st6" d="M16.7,732.2v9.8h-1.4v-8.5h-0.2l-1.8,3h-1.5l2.7-4.3H16.7z"/>
				<path class="st6" d="M26.3,732.2v1.3h-5.1v3.1h0.2c0.4-0.7,1-1.2,2.3-1.2c1.7,0,3,1.3,3,3.2c0,2-1.4,3.6-3.6,3.6
					s-3.7-1.3-3.7-3.5v-0.2h1.4v0.1c0,1.3,0.8,2.2,2.3,2.2c1.4,0,2.2-0.9,2.2-2.3c0-1.3-0.8-2-1.8-2c-0.9,0-1.3,0.5-1.5,0.8h-2.1
					V732h6.4C26.3,732,26.3,732.2,26.3,732.2z"/>
				<path class="st6" d="M31.2,732c1.4,0,2.2,0.9,2.2,2.2v0.3c0,1.4-0.8,2.2-2.2,2.2c-1.4,0-2.2-0.8-2.2-2.2v-0.3
					C28.9,732.9,29.7,732,31.2,732z M30.6,742.2l-1.1-0.8l2.7-3.2l0.8,0.6L30.6,742.2z M30,734.6c0,0.7,0.4,1.2,1.1,1.2
					s1.1-0.5,1.1-1.2v-0.4c0-0.7-0.4-1.2-1.1-1.2s-1.1,0.5-1.1,1.2V734.6z M36,737.5c1.4,0,2.2,0.9,2.2,2.2v0.3
					c0,1.4-0.8,2.2-2.2,2.2s-2.2-0.8-2.2-2.2v-0.3C33.8,738.4,34.6,737.5,36,737.5z M36.6,732.1l1.1,0.8l-2.7,3.2l-0.8-0.6
					L36.6,732.1z M34.9,740.1c0,0.7,0.4,1.2,1.1,1.2s1.1-0.5,1.1-1.2v-0.4c0-0.7-0.4-1.2-1.1-1.2s-1.1,0.5-1.1,1.2V740.1z"/>
			</g>
		</g>
		<g>
			<g>
				<path class="st5" d="M471.8,804.5h1.3v4.9h3v-4.5h1.3v4.5h3v-4.9h1.3v6.3h-9.8L471.8,804.5L471.8,804.5z"/>
				<path class="st5" d="M471.8,798.8c0-2.5,1.3-4,3.8-4h2.2c2.5,0,3.8,1.5,3.8,4v3h-9.8V798.8z M480.3,800.4v-1.6
					c0-1.7-0.8-2.6-2.5-2.6h-2.1c-1.8,0-2.5,0.9-2.5,2.6v1.6H480.3z"/>
				<path class="st5" d="M471.8,790.6h6.5c1.4,0,2.2-0.8,2.2-2.3s-0.8-2.3-2.2-2.3h-6.5v-1.4h6.5c2.3,0,3.5,1.3,3.5,3.7
					s-1.2,3.7-3.5,3.7h-6.5V790.6z"/>
				<path class="st5" d="M471.6,778.1c0-2.4,1.4-3.7,3.5-3.7h0.3v1.4h-0.2c-1.4,0-2.3,0.7-2.3,2.3s1,2.4,2.7,2.4h2.3
					c1.7,0,2.7-0.9,2.7-2.4c0-1.6-0.9-2.3-2.3-2.3H478v-1.4h0.2c2.2,0,3.6,1.3,3.6,3.7s-1.5,3.8-4,3.8h-2.2
					C473.1,781.9,471.6,780.5,471.6,778.1z"/>
				<path class="st5" d="M471.8,767.4l9.8-3.1v1.5l-2.4,0.7v4l2.4,0.7v1.5l-9.8-3.1V767.4z M478,766.9l-4.9,1.5v0.2l4.9,1.5V766.9z"
					/>
				<path class="st5" d="M471.8,755.8h1.3v3.2h8.5v1.4h-8.5v3.2h-1.3V755.8z"/>
				<path class="st5" d="M471.8,752h9.8v1.4h-9.8V752z"/>
				<path class="st5" d="M471.6,745.4c0-2.3,1.5-3.8,4-3.8h2.2c2.5,0,4,1.4,4,3.8s-1.5,3.8-4,3.8h-2.2
					C473.1,749.2,471.6,747.8,471.6,745.4z M477.8,747.8c1.7,0,2.7-0.8,2.7-2.4s-1-2.4-2.7-2.4h-2.2c-1.7,0-2.7,0.8-2.7,2.4
					s1,2.4,2.7,2.4H477.8z"/>
				<path class="st5" d="M471.8,736.2l8.6-3.1V733h-8.6v-1.4h9.8v2.6l-8.5,3v0.2h8.5v1.4h-9.8V736.2z"/>
			</g>
		</g>
	</g>
	<g id="organization">
		<g>
			<rect x="500.3" y="709.8" class="st20" width="211.1" height="122.3"/>
			<path class="st21" d="M710,711.3v119.3H501.8V711.3H710 M713,708.3H498.8v125.3H713V708.3L713,708.3z"/>
		</g>
		<g>
			<rect x="1036.5" y="751.4" class="st20" width="147.2" height="80.7"/>
			<path class="st21" d="M1182.2,752.9v77.7H1038v-77.7H1182.2 M1185.2,749.9H1035v83.7h150.2V749.9L1185.2,749.9z"/>
		</g>
		<rect x="264.7" y="701.7" class="st20" width="63.7" height="131.9"/>
		<g>
			<rect x="1396" y="679.4" class="st20" width="179" height="156.1"/>
			<path class="st21" d="M1573.5,680.9V834h-176V680.9H1573.5 M1576.5,677.9h-182V837h182V677.9L1576.5,677.9z"/>
		</g>
		<g>
			<path class="st5" d="M1412.2,688.8c2.3,0,3.8,1.5,3.8,4v2.2c0,2.5-1.4,4-3.8,4s-3.8-1.5-3.8-4v-2.2
				C1408.4,690.3,1409.8,688.8,1412.2,688.8z M1409.8,695.1c0,1.7,0.8,2.7,2.4,2.7s2.4-1,2.4-2.7v-2.2c0-1.7-0.8-2.7-2.4-2.7
				s-2.4,1-2.4,2.7V695.1z"/>
			<path class="st5" d="M1423.6,694.8l2.2,4.1h-1.5l-2.1-4h-1.9v4h-1.4V689h4.1c1.8,0,3,1.1,3,2.9
				C1426,693.5,1425,694.5,1423.6,694.8z M1420.2,693.6h2.5c1.1,0,1.8-0.6,1.8-1.6s-0.6-1.6-1.8-1.6h-2.5V693.6z"/>
			<path class="st5" d="M1428.2,692.9c0-2.5,1.4-4,3.8-4c2.3,0,3.6,1.4,3.6,3.6v0.1h-1.4v-0.1c0-1.4-0.6-2.3-2.2-2.3s-2.4,1-2.4,2.7
				v2.3c0,1.7,0.9,2.7,2.4,2.7c1.6,0,2.2-0.9,2.2-2.3v-0.2h-2.6V694h4v1.4c0,2.2-1.3,3.6-3.6,3.6c-2.4,0-3.8-1.5-3.8-4V692.9z"/>
			<path class="st5" d="M1442.8,689l3.1,9.8h-1.5l-0.7-2.4h-4l-0.7,2.4h-1.5l3.1-9.8H1442.8z M1443.3,695.2l-1.5-4.9h-0.2l-1.5,4.9
				H1443.3z"/>
			<path class="st5" d="M1450.8,689l3.1,8.6h0.2V689h1.4v9.8h-2.6l-3-8.5h-0.2v8.5h-1.4V689H1450.8z"/>
			<path class="st5" d="M1460,689v9.8h-1.4V689H1460z"/>
			<path class="st5" d="M1469.5,689v1.2l-5.1,7.3h5.2v1.3h-6.9v-1.2l5.1-7.3h-5V689H1469.5z"/>
			<path class="st5" d="M1476.8,689l3.1,9.8h-1.5l-0.7-2.4h-4l-0.7,2.4h-1.5l3.1-9.8H1476.8z M1477.3,695.2l-1.5-4.9h-0.2l-1.5,4.9
				H1477.3z"/>
			<path class="st5" d="M1488.4,689v1.3h-3.2v8.5h-1.4v-8.5h-3.2V689H1488.4z"/>
			<path class="st5" d="M1492.2,689v9.8h-1.4V689H1492.2z"/>
			<path class="st5" d="M1498.8,688.8c2.3,0,3.8,1.5,3.8,4v2.2c0,2.5-1.4,4-3.8,4s-3.8-1.5-3.8-4v-2.2
				C1495,690.3,1496.4,688.8,1498.8,688.8z M1496.4,695.1c0,1.7,0.8,2.7,2.4,2.7s2.4-1,2.4-2.7v-2.2c0-1.7-0.8-2.7-2.4-2.7
				s-2.4,1-2.4,2.7V695.1z"/>
			<path class="st5" d="M1508,689l3.1,8.6h0.2V689h1.4v9.8h-2.6l-3-8.5h-0.2v8.5h-1.4V689H1508z"/>
			<path class="st6" d="M1412.7,705.8v9.8h-1.4v-8.5h-0.2l-1.8,3h-1.5l2.7-4.3H1412.7z"/>
			<path class="st6" d="M1422.3,705.8v1.2l-2.9,2.5v0.2h0.4c1.5,0,2.7,1.1,2.7,2.9c0,1.9-1.6,3.2-3.5,3.2c-2.1,0-3.7-1.3-3.7-3.3
				v-0.7h1.4v0.6c0,1.2,0.9,2.1,2.2,2.1c1.3,0,2.1-0.8,2.1-1.9c0-1.1-0.9-1.8-1.9-1.8h-1.5v-1.3l2.7-2.4h-4.7v-1.3H1422.3z"/>
			<path class="st6" d="M1427.1,705.6c1.4,0,2.2,0.9,2.2,2.2v0.3c0,1.4-0.8,2.2-2.2,2.2c-1.4,0-2.2-0.8-2.2-2.2v-0.3
				C1424.9,706.5,1425.7,705.6,1427.1,705.6z M1426.5,715.8l-1.1-0.8l2.7-3.2l0.8,0.6L1426.5,715.8z M1426,708.2
				c0,0.7,0.4,1.2,1.1,1.2s1.1-0.5,1.1-1.2v-0.4c0-0.7-0.4-1.2-1.1-1.2s-1.1,0.5-1.1,1.2V708.2z M1432,711.1c1.4,0,2.2,0.9,2.2,2.2
				v0.3c0,1.4-0.8,2.2-2.2,2.2s-2.2-0.8-2.2-2.2v-0.3C1429.7,712,1430.6,711.1,1432,711.1z M1432.5,705.7l1.1,0.8l-2.7,3.2l-0.8-0.6
				L1432.5,705.7z M1430.9,713.7c0,0.7,0.4,1.2,1.1,1.2s1.1-0.5,1.1-1.2v-0.4c0-0.7-0.4-1.2-1.1-1.2s-1.1,0.5-1.1,1.2V713.7z"/>
		</g>
		<g>
			<path class="st5" d="M1047.4,760.8c2.3,0,3.8,1.5,3.8,4v2.2c0,2.5-1.4,4-3.8,4s-3.8-1.5-3.8-4v-2.2
				C1043.6,762.3,1045,760.8,1047.4,760.8z M1045,767.1c0,1.7,0.8,2.7,2.4,2.7s2.4-1,2.4-2.7v-2.2c0-1.7-0.8-2.7-2.4-2.7
				s-2.4,1-2.4,2.7V767.1z"/>
			<path class="st5" d="M1058.8,766.8l2.2,4.1h-1.5l-2.1-4h-1.9v4h-1.4V761h4.1c1.8,0,3,1.1,3,2.9
				C1061.1,765.4,1060.2,766.5,1058.8,766.8z M1055.4,765.5h2.5c1.1,0,1.8-0.6,1.8-1.6s-0.6-1.6-1.8-1.6h-2.5V765.5z"/>
			<path class="st5" d="M1063.4,764.8c0-2.5,1.4-4,3.8-4c2.3,0,3.6,1.4,3.6,3.6v0.1h-1.4v-0.1c0-1.4-0.6-2.3-2.2-2.3s-2.4,1-2.4,2.7
				v2.3c0,1.7,0.9,2.7,2.4,2.7c1.6,0,2.2-0.9,2.2-2.3v-0.2h-2.6V766h4v1.4c0,2.2-1.3,3.6-3.6,3.6c-2.4,0-3.8-1.5-3.8-4V764.8z"/>
			<path class="st5" d="M1078,761l3.1,9.8h-1.5l-0.7-2.4h-4l-0.7,2.4h-1.5l3.1-9.8H1078z M1078.5,767.2l-1.5-4.9h-0.2l-1.5,4.9
				H1078.5z"/>
			<path class="st5" d="M1086,761l3.1,8.6h0.2V761h1.4v9.8h-2.6l-3-8.5h-0.2v8.5h-1.4V761H1086z"/>
			<path class="st5" d="M1095.1,761v9.8h-1.4V761H1095.1z"/>
			<path class="st5" d="M1104.7,761v1.2l-5.1,7.3h5.2v1.3h-6.9v-1.2l5.1-7.3h-5V761H1104.7z"/>
			<path class="st5" d="M1112,761l3.1,9.8h-1.5l-0.7-2.4h-4l-0.7,2.4h-1.5l3.1-9.8H1112z M1112.5,767.2l-1.5-4.9h-0.2l-1.5,4.9
				H1112.5z"/>
			<path class="st5" d="M1123.6,761v1.3h-3.2v8.5h-1.4v-8.5h-3.2V761H1123.6z"/>
			<path class="st5" d="M1127.4,761v9.8h-1.4V761H1127.4z"/>
			<path class="st5" d="M1134,760.8c2.3,0,3.8,1.5,3.8,4v2.2c0,2.5-1.4,4-3.8,4s-3.8-1.5-3.8-4v-2.2
				C1130.2,762.3,1131.6,760.8,1134,760.8z M1131.6,767.1c0,1.7,0.8,2.7,2.4,2.7s2.4-1,2.4-2.7v-2.2c0-1.7-0.8-2.7-2.4-2.7
				s-2.4,1-2.4,2.7V767.1z"/>
			<path class="st5" d="M1143.2,761l3.1,8.6h0.2V761h1.4v9.8h-2.6l-3-8.5h-0.2v8.5h-1.4V761H1143.2z"/>
			<path class="st6" d="M1047.1,787.8c-2,0-3.5-1.4-3.5-3.4V781c0-2,1.5-3.4,3.5-3.4s3.3,1.2,3.3,3.1h-1.4c0-1.1-0.6-1.8-1.9-1.8
				s-2.1,0.9-2.1,2.1v1.3h0.2c0.3-0.5,1-1.2,2.4-1.2c1.6,0,3.1,1.3,3.1,3.3C1050.6,786.5,1049.1,787.8,1047.1,787.8z M1045,784.4
				c0,1.2,0.9,2.1,2.1,2.1c1.3,0,2.1-0.9,2.1-2.1c0-1.2-0.9-2.1-2.1-2.1C1045.9,782.4,1045,783.2,1045,784.4z"/>
			<path class="st6" d="M1055.1,777.6c1.4,0,2.2,0.9,2.2,2.2v0.3c0,1.4-0.8,2.2-2.2,2.2c-1.4,0-2.2-0.8-2.2-2.2v-0.3
				C1052.9,778.5,1053.7,777.6,1055.1,777.6z M1054.6,787.8l-1.1-0.8l2.7-3.2l0.8,0.6L1054.6,787.8z M1054,780.2
				c0,0.7,0.4,1.2,1.1,1.2s1.1-0.5,1.1-1.2v-0.4c0-0.7-0.4-1.2-1.1-1.2s-1.1,0.5-1.1,1.2V780.2z M1060,783.1c1.4,0,2.2,0.9,2.2,2.2
				v0.3c0,1.4-0.8,2.2-2.2,2.2s-2.2-0.8-2.2-2.2v-0.3C1057.7,784,1058.6,783.1,1060,783.1z M1060.5,777.7l1.1,0.8l-2.7,3.2l-0.8-0.6
				L1060.5,777.7z M1058.9,785.7c0,0.7,0.4,1.2,1.1,1.2s1.1-0.5,1.1-1.2v-0.4c0-0.7-0.4-1.2-1.1-1.2s-1.1,0.5-1.1,1.2V785.7z"/>
		</g>
		<g>
			<path class="st5" d="M276.7,816.8c0-2.3,1.5-3.8,4-3.8h2.2c2.5,0,4,1.4,4,3.8s-1.5,3.8-4,3.8h-2.2
				C278.2,820.6,276.7,819.2,276.7,816.8z M283,819.2c1.7,0,2.7-0.8,2.7-2.4s-1-2.4-2.7-2.4h-2.2c-1.7,0-2.7,0.8-2.7,2.4
				s1,2.4,2.7,2.4H283z"/>
			<path class="st5" d="M282.7,805.4l4.1-2.2v1.5l-4,2.1v1.9h4v1.4H277V806c0-1.8,1.1-3,2.9-3C281.3,803.1,282.4,804,282.7,805.4z
				 M281.4,808.8v-2.5c0-1.1-0.6-1.8-1.6-1.8s-1.6,0.6-1.6,1.8v2.5H281.4z"/>
			<path class="st5" d="M280.7,800.8c-2.5,0-4-1.4-4-3.8c0-2.3,1.4-3.6,3.6-3.6h0.1v1.4h-0.1c-1.4,0-2.3,0.6-2.3,2.2
				c0,1.6,1,2.4,2.7,2.4h2.3c1.7,0,2.7-0.9,2.7-2.4c0-1.6-0.9-2.2-2.3-2.2h-0.2v2.6h-1.3v-4h1.4c2.2,0,3.6,1.3,3.6,3.6
				c0,2.4-1.5,3.8-4,3.8H280.7z"/>
			<path class="st5" d="M276.9,786.2l9.8-3.1v1.5l-2.4,0.7v4l2.4,0.7v1.5l-9.8-3.1V786.2z M283.1,785.7l-4.9,1.5v0.2l4.9,1.5V785.7z
				"/>
			<path class="st5" d="M276.9,778.2l8.6-3.1V775h-8.6v-1.4h9.8v2.6l-8.5,3v0.2h8.5v1.4h-9.8V778.2z"/>
			<path class="st5" d="M276.9,769.1h9.8v1.4h-9.8V769.1z"/>
			<path class="st5" d="M276.9,759.5h1.2l7.3,5.1v-5.2h1.3v6.9h-1.2l-7.3-5.1v5h-1.3V759.5z"/>
			<path class="st5" d="M276.9,752.2l9.8-3.1v1.5l-2.4,0.7v4l2.4,0.7v1.5l-9.8-3.1V752.2z M283.1,751.7l-4.9,1.5v0.2l4.9,1.5V751.7z
				"/>
			<path class="st5" d="M276.9,740.6h1.3v3.2h8.5v1.4h-8.5v3.2h-1.3V740.6z"/>
			<path class="st5" d="M276.9,736.8h9.8v1.4h-9.8V736.8z"/>
			<path class="st5" d="M276.7,730.2c0-2.3,1.5-3.8,4-3.8h2.2c2.5,0,4,1.4,4,3.8s-1.5,3.8-4,3.8h-2.2
				C278.2,734,276.7,732.6,276.7,730.2z M283,732.6c1.7,0,2.7-0.8,2.7-2.4s-1-2.4-2.7-2.4h-2.2c-1.7,0-2.7,0.8-2.7,2.4
				s1,2.4,2.7,2.4H283z"/>
			<path class="st5" d="M276.9,721l8.6-3.1v-0.2h-8.6v-1.4h9.8v2.6l-8.5,3v0.2h8.5v1.4h-9.8V721z"/>
			<path class="st6" d="M293.7,814.6h6.6V813h1.3v1.7h1.9v1.4h-1.9v4.9h-1.2l-6.7-3.9L293.7,814.6L293.7,814.6z M300.3,819.4V816
				h-5.5v0.2L300.3,819.4z"/>
			<path class="st6" d="M293.5,808.8c0-1.4,0.9-2.2,2.2-2.2h0.3c1.4,0,2.2,0.8,2.2,2.2s-0.8,2.2-2.2,2.2h-0.3
				C294.4,811.1,293.5,810.2,293.5,808.8z M293.6,803.4l0.8-1.1l3.2,2.7l-0.6,0.8L293.6,803.4z M296.1,809.9c0.7,0,1.2-0.4,1.2-1.1
				c0-0.7-0.5-1.1-1.2-1.1h-0.4c-0.7,0-1.2,0.4-1.2,1.1c0,0.7,0.5,1.1,1.2,1.1H296.1z M299,804c0-1.4,0.9-2.2,2.2-2.2h0.3
				c1.4,0,2.2,0.8,2.2,2.2s-0.8,2.2-2.2,2.2h-0.3C299.9,806.2,299,805.4,299,804z M303.7,809.4l-0.8,1.1l-3.2-2.7l0.6-0.8
				L303.7,809.4z M301.6,805.1c0.7,0,1.2-0.4,1.2-1.1s-0.5-1.1-1.2-1.1h-0.4c-0.7,0-1.2,0.4-1.2,1.1s0.5,1.1,1.2,1.1H301.6z"/>
		</g>
		<g>
			<path class="st5" d="M513.6,720.6c2.3,0,3.8,1.5,3.8,4v2.2c0,2.5-1.4,4-3.8,4c-2.4,0-3.8-1.5-3.8-4v-2.2
				C509.8,722,511.2,720.6,513.6,720.6z M511.2,726.8c0,1.7,0.8,2.7,2.4,2.7c1.6,0,2.4-1,2.4-2.7v-2.2c0-1.7-0.8-2.7-2.4-2.7
				c-1.6,0-2.4,1-2.4,2.7L511.2,726.8L511.2,726.8z"/>
			<path class="st5" d="M525,726.5l2.2,4.1h-1.5l-2.1-4h-1.9v4h-1.4v-9.8h4.1c1.8,0,3,1.1,3,2.9C527.3,725.2,526.4,726.2,525,726.5z
				 M521.6,725.3h2.5c1.1,0,1.8-0.6,1.8-1.6s-0.6-1.6-1.8-1.6h-2.5V725.3z"/>
			<path class="st5" d="M529.6,724.6c0-2.5,1.4-4,3.8-4c2.3,0,3.6,1.4,3.6,3.6v0.1h-1.4v-0.1c0-1.4-0.6-2.3-2.2-2.3
				c-1.6,0-2.4,1-2.4,2.7v2.3c0,1.7,0.9,2.7,2.4,2.7c1.6,0,2.2-0.9,2.2-2.3V727H533v-1.3h4v1.4c0,2.2-1.3,3.6-3.6,3.6
				c-2.4,0-3.8-1.5-3.8-4L529.6,724.6L529.6,724.6z"/>
			<path class="st5" d="M544.2,720.8l3.1,9.8h-1.5l-0.7-2.4h-4l-0.7,2.4h-1.5l3.1-9.8H544.2z M544.7,726.9l-1.5-4.9H543l-1.5,4.9
				H544.7z"/>
			<path class="st5" d="M552.2,720.8l3.1,8.6h0.2v-8.6h1.4v9.8h-2.6l-3-8.5H551v8.5h-1.4v-9.8H552.2z"/>
			<path class="st5" d="M561.3,720.8v9.8h-1.4v-9.8H561.3z"/>
			<path class="st5" d="M570.9,720.8v1.2l-5.1,7.3h5.2v1.3h-6.9v-1.2l5.1-7.3h-5v-1.3H570.9z"/>
			<path class="st5" d="M578.2,720.8l3.1,9.8h-1.5l-0.7-2.4h-4l-0.7,2.4h-1.5l3.1-9.8H578.2z M578.7,726.9l-1.5-4.9H577l-1.5,4.9
				H578.7z"/>
			<path class="st5" d="M589.8,720.8v1.3h-3.2v8.5h-1.4V722H582v-1.3L589.8,720.8L589.8,720.8z"/>
			<path class="st5" d="M593.6,720.8v9.8h-1.4v-9.8H593.6z"/>
			<path class="st5" d="M600.2,720.6c2.3,0,3.8,1.5,3.8,4v2.2c0,2.5-1.4,4-3.8,4s-3.8-1.5-3.8-4v-2.2
				C596.4,722,597.8,720.6,600.2,720.6z M597.8,726.8c0,1.7,0.8,2.7,2.4,2.7s2.4-1,2.4-2.7v-2.2c0-1.7-0.8-2.7-2.4-2.7
				s-2.4,1-2.4,2.7V726.8z"/>
			<path class="st5" d="M609.4,720.8l3.1,8.6h0.2v-8.6h1.4v9.8h-2.6l-3-8.5h-0.2v8.5h-1.4v-9.8H609.4z"/>
			<path class="st6" d="M514.1,737.6v9.8h-1.4v-8.5h-0.2l-1.8,3h-1.5l2.7-4.3H514.1z"/>
			<path class="st6" d="M523.7,737.6v1.2l-2.9,2.5v0.2h0.4c1.5,0,2.7,1.1,2.7,2.9c0,1.9-1.6,3.2-3.5,3.2c-2.1,0-3.7-1.3-3.7-3.3
				v-0.7h1.4v0.6c0,1.2,0.9,2.1,2.2,2.1s2.1-0.8,2.1-1.9c0-1.1-0.9-1.8-1.9-1.8H519v-1.3l2.7-2.4H517v-1.3H523.7z"/>
			<path class="st6" d="M528.5,737.4c1.4,0,2.2,0.9,2.2,2.2v0.3c0,1.4-0.8,2.2-2.2,2.2s-2.2-0.8-2.2-2.2v-0.3
				C526.2,738.2,527.1,737.4,528.5,737.4z M527.9,747.5l-1.1-0.8l2.7-3.2l0.8,0.6L527.9,747.5z M527.4,739.9c0,0.7,0.4,1.2,1.1,1.2
				c0.7,0,1.1-0.5,1.1-1.2v-0.4c0-0.7-0.4-1.2-1.1-1.2c-0.7,0-1.1,0.5-1.1,1.2V739.9z M533.4,742.8c1.4,0,2.2,0.9,2.2,2.2v0.3
				c0,1.4-0.8,2.2-2.2,2.2s-2.2-0.8-2.2-2.2V745C531.1,743.7,531.9,742.8,533.4,742.8z M533.9,737.4l1.1,0.8l-2.7,3.2l-0.8-0.6
				L533.9,737.4z M532.2,745.4c0,0.7,0.4,1.2,1.1,1.2s1.1-0.5,1.1-1.2V745c0-0.7-0.4-1.2-1.1-1.2s-1.1,0.5-1.1,1.2V745.4z"/>
		</g>
	</g>
	<g id="publishing">
		<g>
			<g>
				<rect x="464.1" y="431.8" class="st22" width="147.6" height="267"/>
				<path class="st23" d="M610.3,433.3v264H465.6v-264H610.3 M613.3,430.3H462.6v270h150.6L613.3,430.3L613.3,430.3z"/>
			</g>
			<g>
				<rect x="928.7" y="465.4" class="st22" width="262.8" height="274.9"/>
				<path class="st23" d="M1190,466.9v271.9H930.2V466.9H1190 M1193,463.9H927.2v277.9H1193V463.9L1193,463.9z"/>
			</g>
			<g>
				<rect x="1.5" y="275.1" class="st22" width="36.6" height="98.4"/>
				<path class="st23" d="M36.6,276.6V372H3v-95.4H36.6 M39.6,273.6H0V375h39.6V273.6L39.6,273.6z"/>
			</g>
			<g>
				<rect x="1396" y="533.8" class="st22" width="414.4" height="134.5"/>
				<path class="st23" d="M1808.9,535.3v131.5h-411.4V535.3H1808.9 M1811.9,532.3h-417.4v137.5h417.4V532.3L1811.9,532.3z"/>
			</g>
			<g>
				<path class="st5" d="M1412.6,544.5c1.8,0,3,1.2,3,2.9c0,1.8-1.3,2.9-3,2.9h-2.4v3.9h-1.4v-9.8L1412.6,544.5L1412.6,544.5z
					 M1410.2,549.1h2.3c1.1,0,1.8-0.6,1.8-1.7s-0.6-1.7-1.8-1.7h-2.3V549.1z"/>
				<path class="st5" d="M1419.5,544.5v6.5c0,1.4,0.8,2.2,2.3,2.2s2.3-0.8,2.3-2.2v-6.5h1.4v6.5c0,2.3-1.3,3.5-3.7,3.5
					s-3.7-1.2-3.7-3.5v-6.5H1419.5z"/>
				<path class="st5" d="M1432.5,544.5c1.7,0,2.9,1,2.9,2.6c0,1.1-0.6,1.9-1.6,2.2v0.2c0.9,0.3,1.7,1,1.7,2.2c0,1.7-1.2,2.6-2.9,2.6
					h-4.1v-9.8H1432.5z M1429.9,548.8h2.5c1,0,1.7-0.6,1.7-1.5s-0.7-1.5-1.7-1.5h-2.5V548.8z M1429.9,553h2.5c1,0,1.7-0.6,1.7-1.5
					s-0.6-1.5-1.7-1.5h-2.6L1429.9,553L1429.9,553z"/>
				<path class="st5" d="M1439.6,544.5v8.5h4.8v1.3h-6.2v-9.8H1439.6z"/>
				<path class="st5" d="M1448.2,544.5v9.8h-1.4v-9.8H1448.2z"/>
				<path class="st5" d="M1458.1,547.4v0.4h-1.4v-0.3c0-1.3-0.9-1.9-2.2-1.9c-1.1,0-1.9,0.6-1.9,1.4c0,0.9,0.6,1.2,2,1.6l0.6,0.1
					c1.8,0.4,2.9,1.2,2.9,2.9c0,1.8-1.5,2.9-3.5,2.9c-2.4,0-3.9-1.4-3.9-3.6v-0.4h1.4v0.3c0,1.6,0.9,2.4,2.5,2.4
					c1.3,0,2.1-0.7,2.1-1.6s-0.6-1.3-1.9-1.6l-0.6-0.1c-1.8-0.4-3-1-3-2.9c0-1.7,1.5-2.7,3.3-2.7
					C1456.6,544.3,1458.1,545.4,1458.1,547.4z"/>
				<path class="st5" d="M1462.3,544.5v4.2h4.3v-4.2h1.4v9.8h-1.4V550h-4.3v4.3h-1.4v-9.8H1462.3z"/>
				<path class="st5" d="M1472.5,544.5v9.8h-1.4v-9.8H1472.5z"/>
				<path class="st5" d="M1478.3,544.5l3.1,8.6h0.2v-8.6h1.4v9.8h-2.6l-3-8.5h-0.2v8.5h-1.4v-9.8H1478.3z"/>
				<path class="st5" d="M1485.7,548.3c0-2.5,1.4-4,3.8-4c2.3,0,3.6,1.4,3.6,3.6v0.1h-1.4v-0.1c0-1.4-0.6-2.3-2.2-2.3
					s-2.4,1-2.4,2.7v2.3c0,1.7,0.9,2.7,2.4,2.7s2.2-0.9,2.2-2.3v-0.2h-2.6v-1.3h4v1.4c0,2.2-1.3,3.6-3.6,3.6c-2.4,0-3.8-1.5-3.8-4
					V548.3z"/>
				<path class="st6" d="M1412,561.1c1.9,0,3.3,1.3,3.3,3.2c0,2.1-1.6,2.9-3.4,3.5c-1.4,0.5-2.1,0.8-2.1,1.9v0.1h5.4v1.3h-6.8v-1.3
					c0-1.8,1.1-2.6,2.9-3.2c1.6-0.5,2.6-1.1,2.6-2.4c0-1.2-0.9-1.8-1.9-1.8c-1.4,0-2.2,0.8-2.2,2.1v0.3h-1.4v-0.4
					C1408.4,562.4,1409.8,561.1,1412,561.1z"/>
				<path class="st6" d="M1421.2,571.3c-2,0-3.5-1.4-3.5-3.4v-3.4c0-2,1.5-3.4,3.5-3.4s3.3,1.2,3.3,3.1h-1.4c0-1.1-0.6-1.8-1.9-1.8
					s-2.1,0.9-2.1,2.1v1.3h0.2c0.3-0.5,1-1.2,2.4-1.2c1.6,0,3.1,1.3,3.1,3.3C1424.7,570,1423.2,571.3,1421.2,571.3z M1419.1,567.9
					c0,1.2,0.9,2.1,2.1,2.1c1.3,0,2.1-0.9,2.1-2.1c0-1.2-0.9-2.1-2.1-2.1C1419.9,565.8,1419.1,566.7,1419.1,567.9z"/>
				<path class="st6" d="M1429.2,561.1c1.4,0,2.2,0.9,2.2,2.2v0.3c0,1.4-0.8,2.2-2.2,2.2c-1.4,0-2.2-0.8-2.2-2.2v-0.3
					C1427,562,1427.8,561.1,1429.2,561.1z M1428.6,571.3l-1.1-0.8l2.7-3.2l0.8,0.6L1428.6,571.3z M1428.1,563.7
					c0,0.7,0.4,1.2,1.1,1.2s1.1-0.5,1.1-1.2v-0.4c0-0.7-0.4-1.2-1.1-1.2s-1.1,0.5-1.1,1.2V563.7z M1434.1,566.6
					c1.4,0,2.2,0.9,2.2,2.2v0.3c0,1.4-0.8,2.2-2.2,2.2s-2.2-0.8-2.2-2.2v-0.3C1431.8,567.4,1432.7,566.6,1434.1,566.6z
					 M1434.6,561.2l1.1,0.8l-2.7,3.2l-0.8-0.6L1434.6,561.2z M1432.9,569.2c0,0.7,0.4,1.2,1.1,1.2s1.1-0.5,1.1-1.2v-0.4
					c0-0.7-0.4-1.2-1.1-1.2s-1.1,0.5-1.1,1.2V569.2z"/>
			</g>
			<g>
				<path class="st5" d="M944.1,477.2c1.8,0,3,1.2,3,2.9c0,1.8-1.3,2.9-3,2.9h-2.4v3.9h-1.4v-9.8h3.8L944.1,477.2L944.1,477.2z
					 M941.7,481.8h2.3c1.1,0,1.8-0.6,1.8-1.7s-0.6-1.7-1.8-1.7h-2.3V481.8z"/>
				<path class="st5" d="M951,477.2v6.5c0,1.4,0.8,2.2,2.3,2.2s2.3-0.8,2.3-2.2v-6.5h1.4v6.5c0,2.3-1.3,3.5-3.7,3.5
					s-3.7-1.2-3.7-3.5v-6.5H951z"/>
				<path class="st5" d="M964.1,477.2c1.7,0,2.9,1,2.9,2.6c0,1.1-0.6,1.9-1.6,2.2v0.2c0.9,0.3,1.7,1,1.7,2.2c0,1.7-1.2,2.6-2.9,2.6
					H960v-9.8L964.1,477.2L964.1,477.2z M961.4,481.4h2.5c1,0,1.7-0.6,1.7-1.5s-0.7-1.5-1.7-1.5h-2.5V481.4z M961.4,485.7h2.5
					c1,0,1.7-0.6,1.7-1.5s-0.6-1.5-1.7-1.5h-2.6L961.4,485.7L961.4,485.7z"/>
				<path class="st5" d="M971.1,477.2v8.5h4.8v1.3h-6.2v-9.8H971.1z"/>
				<path class="st5" d="M979.7,477.2v9.8h-1.4v-9.8H979.7z"/>
				<path class="st5" d="M989.6,480.1v0.4h-1.4v-0.3c0-1.3-0.9-1.9-2.2-1.9c-1.1,0-1.9,0.6-1.9,1.4c0,0.9,0.6,1.2,2,1.6l0.6,0.1
					c1.8,0.4,2.9,1.2,2.9,2.9c0,1.8-1.5,2.9-3.5,2.9c-2.4,0-3.9-1.4-3.9-3.6v-0.4h1.4v0.3c0,1.6,0.9,2.4,2.5,2.4
					c1.3,0,2.1-0.7,2.1-1.6s-0.6-1.3-1.9-1.6l-0.6-0.1c-1.8-0.4-3-1-3-2.9c0-1.7,1.5-2.7,3.3-2.7C988.1,477,989.6,478.1,989.6,480.1
					z"/>
				<path class="st5" d="M993.9,477.2v4.2h4.3v-4.2h1.4v9.8h-1.4v-4.3h-4.3v4.3h-1.4v-9.8H993.9z"/>
				<path class="st5" d="M1004,477.2v9.8h-1.4v-9.8H1004z"/>
				<path class="st5" d="M1009.8,477.2l3.1,8.6h0.2v-8.6h1.4v9.8h-2.6l-3-8.5h-0.2v8.5h-1.4v-9.8H1009.8z"/>
				<path class="st5" d="M1017.2,481c0-2.5,1.4-4,3.8-4c2.3,0,3.6,1.4,3.6,3.6v0.1h-1.4v-0.1c0-1.4-0.6-2.3-2.2-2.3s-2.4,1-2.4,2.7
					v2.3c0,1.7,0.9,2.7,2.4,2.7s2.2-0.9,2.2-2.3v-0.2h-2.6v-1.3h4v1.4c0,2.2-1.3,3.6-3.6,3.6c-2.4,0-3.8-1.5-3.8-4V481z"/>
				<path class="st6" d="M946.7,494v1.2l-2.9,2.5v0.2h0.4c1.5,0,2.7,1.1,2.7,2.9c0,1.9-1.6,3.2-3.5,3.2c-2.1,0-3.7-1.3-3.7-3.3V500
					h1.4v0.6c0,1.2,0.9,2.1,2.2,2.1s2.1-0.8,2.1-1.9s-0.9-1.8-1.9-1.8H942v-1.3l2.7-2.4H940V494H946.7z"/>
				<path class="st6" d="M956,494v1.2l-2.9,2.5v0.2h0.4c1.5,0,2.7,1.1,2.7,2.9c0,1.9-1.6,3.2-3.5,3.2c-2.1,0-3.7-1.3-3.7-3.3V500
					h1.4v0.6c0,1.2,0.9,2.1,2.2,2.1s2.1-0.8,2.1-1.9s-0.9-1.8-1.9-1.8h-1.5v-1.3l2.7-2.4h-4.7V494H956z"/>
				<path class="st6" d="M960.8,493.8c1.4,0,2.2,0.9,2.2,2.2v0.3c0,1.4-0.8,2.2-2.2,2.2s-2.2-0.8-2.2-2.2V496
					C958.6,494.7,959.4,493.8,960.8,493.8z M960.3,503.9l-1.1-0.8l2.7-3.2l0.8,0.6L960.3,503.9z M959.7,496.4c0,0.7,0.4,1.2,1.1,1.2
					c0.7,0,1.1-0.5,1.1-1.2V496c0-0.7-0.4-1.2-1.1-1.2c-0.7,0-1.1,0.5-1.1,1.2V496.4z M965.7,499.3c1.4,0,2.2,0.9,2.2,2.2v0.3
					c0,1.4-0.8,2.2-2.2,2.2s-2.2-0.8-2.2-2.2v-0.3C963.5,500.1,964.3,499.3,965.7,499.3z M966.3,493.9l1.1,0.8l-2.7,3.2l-0.8-0.6
					L966.3,493.9z M964.6,501.8c0,0.7,0.4,1.2,1.1,1.2s1.1-0.5,1.1-1.2v-0.4c0-0.7-0.4-1.2-1.1-1.2s-1.1,0.5-1.1,1.2V501.8z"/>
			</g>
			<g>
				<g>
					<path class="st5" d="M8,362c0-1.8,1.2-3,2.9-3s2.9,1.3,2.9,3v2.4h3.9v1.4H8V362z M12.6,364.4v-2.3c0-1.1-0.6-1.8-1.7-1.8
						s-1.7,0.6-1.7,1.8v2.3H12.6z"/>
					<path class="st5" d="M8,355.1h6.5c1.4,0,2.2-0.8,2.2-2.3s-0.8-2.3-2.2-2.3H8v-1.4h6.5c2.3,0,3.5,1.3,3.5,3.7s-1.2,3.7-3.5,3.7
						H8V355.1z"/>
					<path class="st5" d="M8,342c0-1.7,1-2.9,2.6-2.9c1.1,0,1.9,0.6,2.2,1.6H13c0.3-0.9,1-1.7,2.2-1.7c1.7,0,2.6,1.2,2.6,2.9v4.1H8
						V342z M12.2,344.6v-2.5c0-1-0.6-1.7-1.5-1.7s-1.5,0.7-1.5,1.7v2.5H12.2z M16.5,344.6v-2.5c0-1-0.6-1.7-1.5-1.7
						s-1.5,0.6-1.5,1.7v2.6h3V344.6z"/>
					<path class="st5" d="M8,334.9h8.5v-4.8h1.3v6.2H8V334.9z"/>
					<path class="st5" d="M8,326.3h9.8v1.4H8V326.3z"/>
					<path class="st5" d="M10.9,316.4h0.4v1.4H11c-1.3,0-1.9,0.9-1.9,2.2c0,1.1,0.6,1.9,1.4,1.9c0.9,0,1.2-0.6,1.6-2l0.1-0.6
						c0.4-1.8,1.2-2.9,2.9-2.9c1.8,0,2.9,1.5,2.9,3.5c0,2.4-1.4,3.9-3.6,3.9H14v-1.4h0.3c1.6,0,2.4-0.9,2.4-2.5
						c0-1.3-0.7-2.1-1.6-2.1s-1.3,0.6-1.6,1.9l-0.1,0.6c-0.4,1.8-1,3-2.9,3c-1.7,0-2.7-1.5-2.7-3.3C7.8,317.9,8.9,316.4,10.9,316.4z
						"/>
					<path class="st5" d="M8,312.2h4.2v-4.3H8v-1.4h9.8v1.4h-4.3v4.3h4.3v1.4H8V312.2z"/>
					<path class="st5" d="M8,302h9.8v1.4H8V302z"/>
					<path class="st5" d="M8,296.3l8.6-3.1V293H8v-1.4h9.8v2.6l-8.5,3v0.2h8.5v1.4H8V296.3z"/>
					<path class="st5" d="M11.8,288.8c-2.5,0-4-1.4-4-3.8c0-2.3,1.4-3.6,3.6-3.6h0.1v1.4h-0.1c-1.4,0-2.3,0.6-2.3,2.2s1,2.4,2.7,2.4
						h2.3c1.7,0,2.7-0.9,2.7-2.4c0-1.6-0.9-2.2-2.3-2.2h-0.2v2.6H13v-4h1.4c2.2,0,3.6,1.3,3.6,3.6c0,2.4-1.5,3.8-4,3.8H11.8z"/>
					<path class="st6" d="M22,359.3h1.2l2.5,2.9h0.2v-0.4c0-1.5,1.1-2.7,2.9-2.7c1.9,0,3.2,1.6,3.2,3.5c0,2.1-1.3,3.7-3.3,3.7H28
						v-1.4h0.6c1.2,0,2.1-0.9,2.1-2.2c0-1.3-0.8-2.1-1.9-2.1s-1.8,0.9-1.8,1.9v1.5h-1.3l-2.4-2.7v4.7H22V359.3z"/>
					<path class="st6" d="M21.8,354.5c0-1.4,0.9-2.2,2.2-2.2h0.3c1.4,0,2.2,0.8,2.2,2.2s-0.8,2.2-2.2,2.2H24
						C22.7,356.8,21.8,355.9,21.8,354.5z M21.9,349.1l0.8-1.1l3.2,2.7l-0.6,0.8L21.9,349.1z M24.4,355.7c0.7,0,1.2-0.4,1.2-1.1
						s-0.5-1.1-1.2-1.1H24c-0.7,0-1.2,0.4-1.2,1.1s0.5,1.1,1.2,1.1H24.4z M27.3,349.7c0-1.4,0.9-2.2,2.2-2.2h0.3
						c1.4,0,2.2,0.8,2.2,2.2c0,1.4-0.8,2.2-2.2,2.2h-0.3C28.1,351.9,27.3,351.1,27.3,349.7z M31.9,355.1l-0.8,1.1l-3.2-2.7l0.6-0.8
						L31.9,355.1z M29.8,350.8c0.7,0,1.2-0.4,1.2-1.1s-0.5-1.1-1.2-1.1h-0.4c-0.7,0-1.2,0.4-1.2,1.1s0.5,1.1,1.2,1.1H29.8z"/>
				</g>
			</g>
			<g>
				<g>
					<path class="st5" d="M479.3,442.9c1.8,0,3,1.2,3,2.9s-1.3,2.9-3,2.9h-2.4v3.9h-1.4v-9.8h3.8V442.9z M476.9,447.5h2.3
						c1.1,0,1.8-0.6,1.8-1.7s-0.6-1.7-1.8-1.7h-2.3V447.5z"/>
					<path class="st5" d="M486.2,442.9v6.5c0,1.4,0.8,2.2,2.3,2.2s2.3-0.8,2.3-2.2v-6.5h1.4v6.5c0,2.3-1.3,3.5-3.7,3.5
						s-3.7-1.2-3.7-3.5v-6.5H486.2z"/>
					<path class="st5" d="M499.3,442.9c1.7,0,2.9,1,2.9,2.6c0,1.1-0.6,1.9-1.6,2.2v0.2c0.9,0.3,1.7,1,1.7,2.2c0,1.7-1.2,2.6-2.9,2.6
						h-4.1v-9.8L499.3,442.9L499.3,442.9z M496.6,447.1h2.5c1,0,1.7-0.6,1.7-1.5s-0.7-1.5-1.7-1.5h-2.5V447.1z M496.6,451.4h2.5
						c1,0,1.7-0.6,1.7-1.5s-0.6-1.5-1.7-1.5h-2.6v3H496.6z"/>
					<path class="st5" d="M506.3,442.9v8.5h4.8v1.3h-6.2v-9.8H506.3z"/>
					<path class="st5" d="M515,442.9v9.8h-1.4v-9.8H515z"/>
					<path class="st5" d="M524.9,445.8v0.4h-1.4v-0.3c0-1.3-0.9-1.9-2.2-1.9c-1.1,0-1.9,0.6-1.9,1.4c0,0.9,0.6,1.2,2,1.6l0.6,0.1
						c1.8,0.4,2.9,1.2,2.9,2.9c0,1.8-1.5,2.9-3.5,2.9c-2.4,0-3.9-1.4-3.9-3.6v-0.4h1.4v0.3c0,1.6,0.9,2.4,2.5,2.4
						c1.3,0,2.1-0.7,2.1-1.6s-0.6-1.3-1.9-1.6l-0.6-0.1c-1.8-0.4-3-1-3-2.9c0-1.7,1.5-2.7,3.3-2.7
						C523.3,442.7,524.9,443.8,524.9,445.8z"/>
					<path class="st5" d="M529.1,442.9v4.2h4.3v-4.2h1.4v9.8h-1.4v-4.3h-4.3v4.3h-1.4v-9.8H529.1z"/>
					<path class="st5" d="M539.3,442.9v9.8h-1.4v-9.8H539.3z"/>
					<path class="st5" d="M545,442.9l3.1,8.6h0.2v-8.6h1.4v9.8H547l-3-8.5h-0.2v8.5h-1.4v-9.8H545z"/>
					<path class="st5" d="M552.4,446.7c0-2.5,1.4-4,3.8-4c2.3,0,3.6,1.4,3.6,3.6v0.1h-1.4v-0.1c0-1.4-0.6-2.3-2.2-2.3
						c-1.6,0-2.4,1-2.4,2.7v2.3c0,1.7,0.9,2.7,2.4,2.7c1.6,0,2.2-0.9,2.2-2.3v-0.2h-2.6v-1.3h4v1.4c0,2.2-1.3,3.6-3.6,3.6
						c-2.4,0-3.8-1.5-3.8-4V446.7z"/>
					<path class="st6" d="M479.5,459.7v9.8h-1.4V461h-0.2l-1.8,3h-1.5l2.7-4.3H479.5z"/>
					<path class="st6" d="M485.8,459.5c2.1,0,3.4,1.1,3.4,2.6c0,1.4-1,1.9-1.7,2.2v0.2c0.7,0.2,1.8,0.9,1.8,2.4
						c0,1.7-1.5,2.8-3.6,2.8s-3.6-1.2-3.6-2.8c0-1.5,1.1-2.2,1.8-2.4v-0.2c-0.7-0.2-1.7-0.8-1.7-2.2
						C482.3,460.6,483.7,459.5,485.8,459.5z M485.8,468.4c1.3,0,2.2-0.6,2.2-1.7s-0.9-1.7-2.2-1.7s-2.2,0.6-2.2,1.7
						S484.4,468.4,485.8,468.4z M485.8,463.8c1.2,0,2-0.6,2-1.5s-0.8-1.5-2-1.5s-2,0.6-2,1.5S484.5,463.8,485.8,463.8z"/>
					<path class="st6" d="M494,459.5c1.4,0,2.2,0.9,2.2,2.2v0.3c0,1.4-0.8,2.2-2.2,2.2s-2.2-0.8-2.2-2.2v-0.3
						C491.7,460.4,492.6,459.5,494,459.5z M493.4,469.6l-1.1-0.8l2.7-3.2l0.8,0.6L493.4,469.6z M492.8,462.1c0,0.7,0.4,1.2,1.1,1.2
						s1.1-0.5,1.1-1.2v-0.4c0-0.7-0.4-1.2-1.1-1.2s-1.1,0.5-1.1,1.2V462.1z M498.8,465c1.4,0,2.2,0.9,2.2,2.2v0.3
						c0,1.4-0.8,2.2-2.2,2.2c-1.4,0-2.2-0.8-2.2-2.2v-0.3C496.6,465.8,497.4,465,498.8,465z M499.4,459.6l1.1,0.8l-2.7,3.2L497,463
						L499.4,459.6z M497.7,467.5c0,0.7,0.4,1.2,1.1,1.2s1.1-0.5,1.1-1.2v-0.4c0-0.7-0.4-1.2-1.1-1.2s-1.1,0.5-1.1,1.2V467.5z"/>
				</g>
			</g>
		</g>
	</g>
	<g id="society">
		<g>
			<g>
				<rect x="464.1" y="276" class="st24" width="288.2" height="144.7"/>
				<path class="st25" d="M750.8,277.5v141.7H465.6V277.5H750.8 M753.8,274.5H462.6v147.7h291.2L753.8,274.5L753.8,274.5z"/>
			</g>
			<g>
				<rect x="928.7" y="276" class="st24" width="93.2" height="178.4"/>
				<path class="st25" d="M1020.4,277.5v175.4h-90.2V277.5H1020.4 M1023.4,274.5h-96.2v181.4h96.2V274.5L1023.4,274.5z"/>
			</g>
			<g>
				<rect x="48.5" y="275.1" class="st24" width="109" height="98.4"/>
				<path class="st25" d="M156,276.6V372H50v-95.4H156 M159,273.6H47V375h112V273.6L159,273.6z"/>
			</g>
			<g>
				<rect x="1396" y="276" class="st24" width="261.8" height="246.6"/>
				<path class="st25" d="M1656.2,277.5v243.6h-258.8V277.5H1656.2 M1659.2,274.5h-264.8v249.6h264.8V274.5L1659.2,274.5z"/>
			</g>
			<g>
				<path class="st5" d="M1415.5,291.1v0.4h-1.4v-0.3c0-1.3-0.9-1.9-2.2-1.9c-1.1,0-1.9,0.6-1.9,1.4c0,0.9,0.6,1.2,2,1.6l0.6,0.1
					c1.8,0.4,2.9,1.2,2.9,2.9c0,1.8-1.5,2.9-3.5,2.9c-2.4,0-3.9-1.4-3.9-3.6v-0.4h1.4v0.3c0,1.6,0.9,2.4,2.5,2.4
					c1.3,0,2.1-0.7,2.1-1.6s-0.6-1.3-1.9-1.6l-0.6-0.1c-1.8-0.4-3-1-3-2.9c0-1.7,1.5-2.7,3.3-2.7
					C1414,288,1415.5,289.1,1415.5,291.1z"/>
				<path class="st5" d="M1421.8,288c2.3,0,3.8,1.5,3.8,4v2.2c0,2.5-1.4,4-3.8,4s-3.8-1.5-3.8-4V292
					C1418,289.5,1419.4,288,1421.8,288z M1419.4,294.2c0,1.7,0.8,2.7,2.4,2.7s2.4-1,2.4-2.7V292c0-1.7-0.8-2.7-2.4-2.7
					s-2.4,1-2.4,2.7V294.2z"/>
				<path class="st5" d="M1431.9,288c2.4,0,3.7,1.4,3.7,3.5v0.3h-1.4v-0.2c0-1.4-0.7-2.3-2.3-2.3c-1.6,0-2.4,1-2.4,2.7v2.3
					c0,1.7,0.9,2.7,2.4,2.7c1.6,0,2.3-0.9,2.3-2.3v-0.2h1.4v0.2c0,2.2-1.3,3.6-3.7,3.6c-2.4,0-3.8-1.5-3.8-4V292
					C1428.1,289.5,1429.5,288,1431.9,288z"/>
				<path class="st5" d="M1439.7,288.2v9.8h-1.4v-9.8H1439.7z"/>
				<path class="st5" d="M1449.1,288.2v1.3h-4.9v3h4.5v1.3h-4.5v3h4.9v1.3h-6.3v-9.8L1449.1,288.2L1449.1,288.2z"/>
				<path class="st5" d="M1458.9,288.2v1.3h-3.2v8.5h-1.4v-8.5h-3.2v-1.3H1458.9z"/>
				<path class="st5" d="M1462,288.2l2.5,4.6h0.2l2.5-4.6h1.6l-3.4,6.2v3.6h-1.4v-3.6l-3.4-6.2H1462z"/>
				<path class="st6" d="M1412,304.8c1.9,0,3.3,1.3,3.3,3.2c0,2.1-1.6,2.9-3.4,3.5c-1.4,0.5-2.1,0.8-2.1,1.9v0.1h5.4v1.3h-6.8v-1.3
					c0-1.8,1.1-2.6,2.9-3.2c1.6-0.5,2.6-1.1,2.6-2.4c0-1.2-0.9-1.8-1.9-1.8c-1.4,0-2.2,0.8-2.2,2.1v0.3h-1.4v-0.4
					C1408.4,306.1,1409.8,304.8,1412,304.8z"/>
				<path class="st6" d="M1421,304.8c2,0,3.5,1.4,3.5,3.4v3.4c0,2-1.5,3.4-3.5,3.4s-3.3-1.2-3.3-3.1h1.4c0,1.1,0.6,1.8,1.9,1.8
					s2.1-0.9,2.1-2.1v-1.3h-0.2c-0.3,0.5-1,1.2-2.4,1.2c-1.6,0-3.1-1.3-3.1-3.3C1417.5,306.2,1419,304.8,1421,304.8z M1423.1,308.2
					c0-1.2-0.9-2.1-2.1-2.1c-1.3,0-2.1,0.9-2.1,2.1s0.9,2.1,2.1,2.1C1422.2,310.3,1423.1,309.4,1423.1,308.2z"/>
				<path class="st6" d="M1429.2,304.8c1.4,0,2.2,0.9,2.2,2.2v0.3c0,1.4-0.8,2.2-2.2,2.2c-1.4,0-2.2-0.8-2.2-2.2V307
					C1427,305.7,1427.8,304.8,1429.2,304.8z M1428.6,314.9l-1.1-0.8l2.7-3.2l0.8,0.6L1428.6,314.9z M1428.1,307.4
					c0,0.7,0.4,1.2,1.1,1.2s1.1-0.5,1.1-1.2V307c0-0.7-0.4-1.2-1.1-1.2s-1.1,0.5-1.1,1.2V307.4z M1434.1,310.3
					c1.4,0,2.2,0.9,2.2,2.2v0.3c0,1.4-0.8,2.2-2.2,2.2s-2.2-0.8-2.2-2.2v-0.3C1431.8,311.1,1432.7,310.3,1434.1,310.3z
					 M1434.6,304.9l1.1,0.8l-2.7,3.2l-0.8-0.6L1434.6,304.9z M1433,312.8c0,0.7,0.4,1.2,1.1,1.2s1.1-0.5,1.1-1.2v-0.4
					c0-0.7-0.4-1.2-1.1-1.2s-1.1,0.5-1.1,1.2V312.8z"/>
			</g>
			<g>
				<path class="st5" d="M947,291.1v0.4h-1.4v-0.3c0-1.3-0.9-1.9-2.2-1.9c-1.1,0-1.9,0.6-1.9,1.4c0,0.9,0.6,1.2,2,1.6l0.6,0.1
					c1.8,0.4,2.9,1.2,2.9,2.9c0,1.8-1.5,2.9-3.5,2.9c-2.4,0-3.9-1.4-3.9-3.6v-0.4h1.4v0.3c0,1.6,0.9,2.4,2.5,2.4
					c1.3,0,2.1-0.7,2.1-1.6s-0.6-1.3-1.9-1.6l-0.6-0.1c-1.8-0.4-3-1-3-2.9c0-1.7,1.5-2.7,3.3-2.7C945.5,288,947,289.1,947,291.1z"/>
				<path class="st5" d="M953.3,288c2.3,0,3.8,1.5,3.8,4v2.2c0,2.5-1.4,4-3.8,4s-3.8-1.5-3.8-4V292C949.5,289.5,950.9,288,953.3,288
					z M950.9,294.2c0,1.7,0.8,2.7,2.4,2.7s2.4-1,2.4-2.7V292c0-1.7-0.8-2.7-2.4-2.7s-2.4,1-2.4,2.7V294.2z"/>
				<path class="st5" d="M963.4,288c2.4,0,3.7,1.4,3.7,3.5v0.3h-1.4v-0.2c0-1.4-0.7-2.3-2.3-2.3s-2.4,1-2.4,2.7v2.3
					c0,1.7,0.9,2.7,2.4,2.7c1.6,0,2.3-0.9,2.3-2.3v-0.2h1.4v0.2c0,2.2-1.3,3.6-3.7,3.6s-3.8-1.5-3.8-4V292
					C959.6,289.5,961,288,963.4,288z"/>
				<path class="st5" d="M971.2,288.2v9.8h-1.4v-9.8H971.2z"/>
				<path class="st5" d="M980.6,288.2v1.3h-4.9v3h4.5v1.3h-4.5v3h4.9v1.3h-6.3v-9.8L980.6,288.2L980.6,288.2z"/>
				<path class="st5" d="M990.4,288.2v1.3h-3.2v8.5h-1.4v-8.5h-3.2v-1.3H990.4z"/>
				<path class="st5" d="M993.5,288.2l2.5,4.6h0.2l2.5-4.6h1.6l-3.4,6.2v3.6h-1.4v-3.6l-3.4-6.2H993.5z"/>
				<path class="st6" d="M943.4,304.8c2.1,0,3.4,1.1,3.4,2.6c0,1.4-1,1.9-1.7,2.2v0.2c0.7,0.2,1.8,0.9,1.8,2.4
					c0,1.7-1.5,2.8-3.6,2.8s-3.6-1.2-3.6-2.8c0-1.5,1.1-2.2,1.8-2.4v-0.2c-0.7-0.2-1.7-0.8-1.7-2.2
					C940,305.9,941.4,304.8,943.4,304.8z M943.4,313.7c1.3,0,2.2-0.6,2.2-1.7s-0.9-1.7-2.2-1.7s-2.2,0.6-2.2,1.7
					S942.1,313.7,943.4,313.7z M943.4,309.1c1.2,0,2-0.6,2-1.5s-0.8-1.5-2-1.5s-2,0.6-2,1.5S942.2,309.1,943.4,309.1z"/>
				<path class="st6" d="M951.6,304.8c1.4,0,2.2,0.9,2.2,2.2v0.3c0,1.4-0.8,2.2-2.2,2.2s-2.2-0.8-2.2-2.2V307
					C949.4,305.7,950.2,304.8,951.6,304.8z M951.1,314.9l-1.1-0.8l2.7-3.2l0.8,0.6L951.1,314.9z M950.5,307.4c0,0.7,0.4,1.2,1.1,1.2
					c0.7,0,1.1-0.5,1.1-1.2V307c0-0.7-0.4-1.2-1.1-1.2c-0.7,0-1.1,0.5-1.1,1.2V307.4z M956.5,310.3c1.4,0,2.2,0.9,2.2,2.2v0.3
					c0,1.4-0.8,2.2-2.2,2.2s-2.2-0.8-2.2-2.2v-0.3C954.3,311.1,955.1,310.3,956.5,310.3z M957.1,304.9l1.1,0.8l-2.7,3.2l-0.8-0.6
					L957.1,304.9z M955.4,312.8c0,0.7,0.4,1.2,1.1,1.2s1.1-0.5,1.1-1.2v-0.4c0-0.7-0.4-1.2-1.1-1.2s-1.1,0.5-1.1,1.2V312.8z"/>
			</g>
			<g>
				<path class="st5" d="M484.1,291.2v0.4h-1.4v-0.3c0-1.3-0.9-1.9-2.2-1.9c-1.1,0-1.9,0.6-1.9,1.4c0,0.9,0.6,1.2,2,1.6l0.6,0.1
					c1.8,0.4,2.9,1.2,2.9,2.9c0,1.8-1.5,2.9-3.5,2.9c-2.4,0-3.9-1.4-3.9-3.6v-0.4h1.4v0.3c0,1.6,0.9,2.4,2.5,2.4
					c1.3,0,2.1-0.7,2.1-1.6s-0.6-1.3-1.9-1.6l-0.6-0.1c-1.8-0.4-3-1-3-2.9c0-1.7,1.5-2.7,3.3-2.7
					C482.6,288.1,484.1,289.2,484.1,291.2z"/>
				<path class="st5" d="M490.4,288.1c2.3,0,3.8,1.5,3.8,4v2.2c0,2.5-1.4,4-3.8,4s-3.8-1.5-3.8-4v-2.2
					C486.6,289.6,488.1,288.1,490.4,288.1z M488,294.3c0,1.7,0.8,2.7,2.4,2.7s2.4-1,2.4-2.7v-2.2c0-1.7-0.8-2.7-2.4-2.7
					s-2.4,1-2.4,2.7V294.3z"/>
				<path class="st5" d="M500.5,288.1c2.4,0,3.7,1.4,3.7,3.5v0.3h-1.4v-0.2c0-1.4-0.7-2.3-2.3-2.3c-1.6,0-2.4,1-2.4,2.7v2.3
					c0,1.7,0.9,2.7,2.4,2.7c1.6,0,2.3-0.9,2.3-2.3v-0.2h1.4v0.2c0,2.2-1.3,3.6-3.7,3.6c-2.4,0-3.8-1.5-3.8-4v-2.2
					C496.7,289.6,498.1,288.1,500.5,288.1z"/>
				<path class="st5" d="M508.3,288.3v9.8h-1.4v-9.8H508.3z"/>
				<path class="st5" d="M517.7,288.3v1.3h-4.9v3h4.5v1.3h-4.5v3h4.9v1.3h-6.3v-9.8L517.7,288.3L517.7,288.3z"/>
				<path class="st5" d="M527.5,288.3v1.3h-3.2v8.5h-1.4v-8.5h-3.2v-1.3H527.5z"/>
				<path class="st5" d="M530.6,288.3l2.5,4.6h0.2l2.5-4.6h1.6l-3.4,6.2v3.6h-1.4v-3.6l-3.4-6.2H530.6z"/>
				<path class="st6" d="M481.4,305.1v9.8H480v-8.5h-0.2l-1.8,3h-1.5l2.7-4.3H481.4z"/>
				<path class="st6" d="M487.5,304.9c2,0,3.5,1.4,3.5,3.4v3.4c0,2-1.5,3.4-3.5,3.4s-3.3-1.2-3.3-3.1h1.4c0,1.1,0.6,1.8,1.9,1.8
					s2.1-0.9,2.1-2.1v-1.3h-0.2c-0.3,0.5-1,1.2-2.4,1.2c-1.6,0-3.1-1.3-3.1-3.3C484,306.3,485.5,304.9,487.5,304.9z M489.6,308.3
					c0-1.2-0.9-2.1-2.1-2.1c-1.3,0-2.1,0.9-2.1,2.1s0.9,2.1,2.1,2.1S489.6,309.5,489.6,308.3z"/>
				<path class="st6" d="M495.7,304.9c1.4,0,2.2,0.9,2.2,2.2v0.3c0,1.4-0.8,2.2-2.2,2.2c-1.4,0-2.2-0.8-2.2-2.2v-0.3
					C493.4,305.8,494.3,304.9,495.7,304.9z M495.1,315l-1.1-0.8l2.7-3.2l0.8,0.6L495.1,315z M494.5,307.5c0,0.7,0.4,1.2,1.1,1.2
					s1.1-0.5,1.1-1.2v-0.4c0-0.7-0.4-1.2-1.1-1.2s-1.1,0.5-1.1,1.2V307.5z M500.5,310.4c1.4,0,2.2,0.9,2.2,2.2v0.3
					c0,1.4-0.8,2.2-2.2,2.2s-2.2-0.8-2.2-2.2v-0.3C498.3,311.2,499.1,310.4,500.5,310.4z M501.1,305l1.1,0.8l-2.7,3.2l-0.8-0.6
					L501.1,305z M499.4,312.9c0,0.7,0.4,1.2,1.1,1.2s1.1-0.5,1.1-1.2v-0.4c0-0.7-0.4-1.2-1.1-1.2s-1.1,0.5-1.1,1.2V312.9z"/>
			</g>
			<g>
				<g>
					<path class="st5" d="M65.8,291.2v0.4h-1.4v-0.3c0-1.3-0.9-1.9-2.2-1.9c-1.1,0-1.9,0.6-1.9,1.4c0,0.9,0.6,1.2,2,1.6l0.6,0.1
						c1.8,0.4,2.9,1.2,2.9,2.9c0,1.8-1.5,2.9-3.5,2.9c-2.4,0-3.9-1.4-3.9-3.6v-0.4h1.4v0.3c0,1.6,0.9,2.4,2.5,2.4
						c1.3,0,2.1-0.7,2.1-1.6s-0.6-1.3-1.9-1.6l-0.6-0.1c-1.8-0.4-3-1-3-2.9c0-1.7,1.5-2.7,3.3-2.7C64.3,288.1,65.8,289.2,65.8,291.2
						z"/>
					<path class="st5" d="M72.1,288.1c2.3,0,3.8,1.5,3.8,4v2.2c0,2.5-1.4,4-3.8,4s-3.8-1.5-3.8-4v-2.2
						C68.3,289.6,69.7,288.1,72.1,288.1z M69.7,294.3c0,1.7,0.8,2.7,2.4,2.7s2.4-1,2.4-2.7v-2.2c0-1.7-0.8-2.7-2.4-2.7
						s-2.4,1-2.4,2.7V294.3z"/>
					<path class="st5" d="M82.2,288.1c2.4,0,3.7,1.4,3.7,3.5v0.3h-1.4v-0.2c0-1.4-0.7-2.3-2.3-2.3c-1.6,0-2.4,1-2.4,2.7v2.3
						c0,1.7,0.9,2.7,2.4,2.7c1.6,0,2.3-0.9,2.3-2.3v-0.2h1.4v0.2c0,2.2-1.3,3.6-3.7,3.6c-2.4,0-3.8-1.5-3.8-4v-2.2
						C78.4,289.6,79.8,288.1,82.2,288.1z"/>
					<path class="st5" d="M90,288.3v9.8h-1.4v-9.8H90z"/>
					<path class="st5" d="M99.4,288.3v1.3h-4.9v3H99v1.3h-4.5v3h4.9v1.3h-6.3v-9.8L99.4,288.3L99.4,288.3z"/>
					<path class="st5" d="M109.1,288.3v1.3H106v8.5h-1.4v-8.5h-3.2v-1.3H109.1z"/>
					<path class="st5" d="M112.3,288.3l2.5,4.6h0.2l2.5-4.6h1.6l-3.4,6.2v3.6h-1.4v-3.6l-3.4-6.2H112.3z"/>
					<path class="st6" d="M64.7,305.1v6.6h1.7v1.3h-1.7v1.9h-1.4V313h-4.9v-1.2l3.9-6.7L64.7,305.1L64.7,305.1z M59.9,311.7h3.3
						v-5.5H63L59.9,311.7z"/>
					<path class="st6" d="M70.5,304.9c1.4,0,2.2,0.9,2.2,2.2v0.3c0,1.4-0.8,2.2-2.2,2.2c-1.4,0-2.2-0.8-2.2-2.2v-0.3
						C68.2,305.8,69.1,304.9,70.5,304.9z M69.9,315l-1.1-0.8l2.7-3.2l0.8,0.6L69.9,315z M69.4,307.5c0,0.7,0.4,1.2,1.1,1.2
						s1.1-0.5,1.1-1.2v-0.4c0-0.7-0.4-1.2-1.1-1.2s-1.1,0.5-1.1,1.2V307.5z M75.4,310.4c1.4,0,2.2,0.9,2.2,2.2v0.3
						c0,1.4-0.8,2.2-2.2,2.2s-2.2-0.8-2.2-2.2v-0.3C73.1,311.2,73.9,310.4,75.4,310.4z M75.9,305l1.1,0.8l-2.7,3.2l-0.8-0.6
						L75.9,305z M74.2,312.9c0,0.7,0.4,1.2,1.1,1.2s1.1-0.5,1.1-1.2v-0.4c0-0.7-0.4-1.2-1.1-1.2s-1.1,0.5-1.1,1.2V312.9z"/>
				</g>
			</g>
		</g>
	</g>
	<g id="work">
		<g>
			<g>
				<rect x="763.4" y="276" class="st26" width="115.2" height="144.7"/>
				<g>
					<path class="st27" d="M877,277.5v141.7H764.9V277.5H877 M880,274.5H761.9v147.7H880V274.5L880,274.5z"/>
				</g>
			</g>
			<g>
				<rect x="1033" y="276" class="st26" width="310.1" height="178.4"/>
				<g>
					<path class="st27" d="M1341.6,277.5v175.4h-307.1V277.5H1341.6 M1344.6,274.5h-313.1v181.4h313.1V274.5L1344.6,274.5z"/>
				</g>
			</g>
			<g>
				<rect x="167.9" y="275.1" class="st26" width="248" height="98.4"/>
				<g>
					<path class="st27" d="M414.4,276.6V372h-245v-95.4H414.4 M417.4,273.6h-251V375h251V273.6L417.4,273.6z"/>
				</g>
			</g>
			<g>
				<path class="st5" d="M1044.8,288.2l1.1,8.5h0.2l1.5-8.5h2.3l1.5,8.5h0.2l1.1-8.5h1.4l-1.4,9.8h-2.4l-1.5-8.5h-0.2l-1.5,8.5h-2.4
					l-1.4-9.8H1044.8z"/>
				<path class="st5" d="M1060,288c2.3,0,3.8,1.5,3.8,4v2.2c0,2.5-1.4,4-3.8,4s-3.8-1.5-3.8-4V292C1056.1,289.5,1057.6,288,1060,288
					z M1057.6,294.2c0,1.7,0.8,2.7,2.4,2.7s2.4-1,2.4-2.7V292c0-1.7-0.8-2.7-2.4-2.7s-2.4,1-2.4,2.7V294.2z"/>
				<path class="st5" d="M1071.3,293.9l2.2,4.1h-1.5l-2.1-4h-1.9v4h-1.4v-9.8h4.1c1.8,0,3,1.1,3,2.9
					C1073.7,292.6,1072.7,293.7,1071.3,293.9z M1068,292.7h2.5c1.1,0,1.8-0.6,1.8-1.6s-0.6-1.6-1.8-1.6h-2.5V292.7z"/>
				<path class="st5" d="M1080.2,292.1l4.2,5.9h-1.7l-3.5-4.9l-1.4,1.3v3.6h-1.4v-9.8h1.4v4.3h0.2l4.6-4.3h1.9L1080.2,292.1z"/>
				<path class="st6" d="M1047.2,304.8c1.9,0,3.3,1.3,3.3,3.2c0,2.1-1.6,2.9-3.4,3.5c-1.4,0.5-2.1,0.8-2.1,1.9v0.1h5.4v1.3h-6.8
					v-1.3c0-1.8,1.1-2.6,2.9-3.2c1.6-0.5,2.6-1.1,2.6-2.4c0-1.2-0.9-1.8-1.9-1.8c-1.4,0-2.2,0.8-2.2,2.1v0.3h-1.4v-0.4
					C1043.6,306.1,1045,304.8,1047.2,304.8z"/>
				<path class="st6" d="M1059.6,305v1.3h-5.1v3.1h0.2c0.4-0.7,1-1.2,2.3-1.2c1.7,0,3,1.3,3,3.2c0,2-1.4,3.6-3.6,3.6
					s-3.7-1.3-3.7-3.5v-0.2h1.4v0.1c0,1.3,0.8,2.2,2.3,2.2c1.4,0,2.2-0.9,2.2-2.3c0-1.3-0.8-2-1.8-2c-0.9,0-1.3,0.5-1.5,0.8h-2.1
					V305H1059.6z"/>
				<path class="st6" d="M1064.4,304.8c1.4,0,2.2,0.9,2.2,2.2v0.3c0,1.4-0.8,2.2-2.2,2.2c-1.4,0-2.2-0.8-2.2-2.2V307
					C1062.2,305.7,1063,304.8,1064.4,304.8z M1063.9,314.9l-1.1-0.8l2.7-3.2l0.8,0.6L1063.9,314.9z M1063.3,307.4
					c0,0.7,0.4,1.2,1.1,1.2s1.1-0.5,1.1-1.2V307c0-0.7-0.4-1.2-1.1-1.2s-1.1,0.5-1.1,1.2V307.4z M1069.3,310.3
					c1.4,0,2.2,0.9,2.2,2.2v0.3c0,1.4-0.8,2.2-2.2,2.2s-2.2-0.8-2.2-2.2v-0.3C1067,311.1,1067.9,310.3,1069.3,310.3z M1069.8,304.9
					l1.1,0.8l-2.7,3.2l-0.8-0.6L1069.8,304.9z M1068.2,312.8c0,0.7,0.4,1.2,1.1,1.2s1.1-0.5,1.1-1.2v-0.4c0-0.7-0.4-1.2-1.1-1.2
					s-1.1,0.5-1.1,1.2V312.8z"/>
			</g>
			<g>
				<path class="st5" d="M776.1,288.2l1.1,8.5h0.2l1.5-8.5h2.3l1.5,8.5h0.2l1.1-8.5h1.4L784,298h-2.4l-1.5-8.5h-0.2l-1.5,8.5H776
					l-1.4-9.8H776.1z"/>
				<path class="st5" d="M791.3,288c2.3,0,3.8,1.5,3.8,4v2.2c0,2.5-1.4,4-3.8,4s-3.8-1.5-3.8-4V292C787.5,289.5,789,288,791.3,288z
					 M788.9,294.2c0,1.7,0.8,2.7,2.4,2.7s2.4-1,2.4-2.7V292c0-1.7-0.8-2.7-2.4-2.7s-2.4,1-2.4,2.7V294.2z"/>
				<path class="st5" d="M802.7,293.9l2.2,4.1h-1.5l-2.1-4h-1.9v4H798v-9.8h4.1c1.8,0,3,1.1,3,2.9
					C805.1,292.6,804.1,293.7,802.7,293.9z M799.4,292.7h2.5c1.1,0,1.8-0.6,1.8-1.6s-0.6-1.6-1.8-1.6h-2.5V292.7z"/>
				<path class="st5" d="M811.6,292.1l4.2,5.9H814l-3.5-4.9l-1.4,1.3v3.6h-1.4v-9.8h1.4v4.3h0.2l4.6-4.3h1.9L811.6,292.1z"/>
				<path class="st6" d="M778.3,304.8c2,0,3.5,1.4,3.5,3.4v3.4c0,2-1.5,3.4-3.5,3.4s-3.3-1.2-3.3-3.1h1.4c0,1.1,0.6,1.8,1.9,1.8
					s2.1-0.9,2.1-2.1v-1.3h-0.2c-0.3,0.5-1,1.2-2.4,1.2c-1.6,0-3.1-1.3-3.1-3.3C774.8,306.2,776.3,304.8,778.3,304.8z M780.4,308.2
					c0-1.2-0.9-2.1-2.1-2.1c-1.3,0-2.1,0.9-2.1,2.1s0.9,2.1,2.1,2.1C779.5,310.3,780.4,309.4,780.4,308.2z"/>
				<path class="st6" d="M786.5,304.8c1.4,0,2.2,0.9,2.2,2.2v0.3c0,1.4-0.8,2.2-2.2,2.2s-2.2-0.8-2.2-2.2V307
					C784.3,305.7,785.1,304.8,786.5,304.8z M785.9,314.9l-1.1-0.8l2.7-3.2l0.8,0.6L785.9,314.9z M785.4,307.4c0,0.7,0.4,1.2,1.1,1.2
					c0.7,0,1.1-0.5,1.1-1.2V307c0-0.7-0.4-1.2-1.1-1.2c-0.7,0-1.1,0.5-1.1,1.2V307.4z M791.4,310.3c1.4,0,2.2,0.9,2.2,2.2v0.3
					c0,1.4-0.8,2.2-2.2,2.2s-2.2-0.8-2.2-2.2v-0.3C789.1,311.1,790,310.3,791.4,310.3z M791.9,304.9l1.1,0.8l-2.7,3.2l-0.8-0.6
					L791.9,304.9z M790.3,312.8c0,0.7,0.4,1.2,1.1,1.2s1.1-0.5,1.1-1.2v-0.4c0-0.7-0.4-1.2-1.1-1.2s-1.1,0.5-1.1,1.2V312.8z"/>
			</g>
			<g>
				<g>
					<path class="st5" d="M180.4,288.2l1.1,8.5h0.2l1.5-8.5h2.3l1.5,8.5h0.2l1.1-8.5h1.4l-1.4,9.8h-2.4l-1.5-8.5h-0.2l-1.5,8.5h-2.4
						l-1.4-9.8H180.4z"/>
					<path class="st5" d="M195.6,288c2.3,0,3.8,1.5,3.8,4v2.2c0,2.5-1.4,4-3.8,4s-3.8-1.5-3.8-4V292
						C191.8,289.5,193.2,288,195.6,288z M193.2,294.2c0,1.7,0.8,2.7,2.4,2.7s2.4-1,2.4-2.7V292c0-1.7-0.8-2.7-2.4-2.7
						s-2.4,1-2.4,2.7V294.2z"/>
					<path class="st5" d="M206.9,293.9l2.2,4.1h-1.5l-2.1-4h-1.9v4h-1.4v-9.8h4.1c1.8,0,3,1.1,3,2.9
						C209.3,292.6,208.3,293.7,206.9,293.9z M203.6,292.7h2.5c1.1,0,1.8-0.6,1.8-1.6s-0.6-1.6-1.8-1.6h-2.5V292.7z"/>
					<path class="st5" d="M215.8,292.1l4.2,5.9h-1.7l-3.5-4.9l-1.4,1.3v3.6H212v-9.8h1.4v4.3h0.2l4.6-4.3h1.9L215.8,292.1z"/>
					<path class="st6" d="M182.5,304.8c2,0,3.5,1.4,3.5,3.4v3.4c0,2-1.5,3.4-3.5,3.4s-3.3-1.2-3.3-3.1h1.4c0,1.1,0.6,1.8,1.9,1.8
						s2.1-0.9,2.1-2.1v-1.3h-0.2c-0.3,0.5-1,1.2-2.4,1.2c-1.6,0-3.1-1.3-3.1-3.3C179,306.2,180.5,304.8,182.5,304.8z M184.6,308.2
						c0-1.2-0.9-2.1-2.1-2.1c-1.3,0-2.1,0.9-2.1,2.1s0.9,2.1,2.1,2.1C183.8,310.3,184.6,309.4,184.6,308.2z"/>
					<path class="st6" d="M190.7,304.8c1.4,0,2.2,0.9,2.2,2.2v0.3c0,1.4-0.8,2.2-2.2,2.2s-2.2-0.8-2.2-2.2V307
						C188.5,305.7,189.3,304.8,190.7,304.8z M190.2,314.9l-1.1-0.8l2.7-3.2l0.8,0.6L190.2,314.9z M189.6,307.4
						c0,0.7,0.4,1.2,1.1,1.2c0.7,0,1.1-0.5,1.1-1.2V307c0-0.7-0.4-1.2-1.1-1.2c-0.7,0-1.1,0.5-1.1,1.2V307.4z M195.6,310.3
						c1.4,0,2.2,0.9,2.2,2.2v0.3c0,1.4-0.8,2.2-2.2,2.2s-2.2-0.8-2.2-2.2v-0.3C193.4,311.1,194.2,310.3,195.6,310.3z M196.2,304.9
						l1.1,0.8l-2.7,3.2l-0.8-0.6L196.2,304.9z M194.5,312.8c0,0.7,0.4,1.2,1.1,1.2s1.1-0.5,1.1-1.2v-0.4c0-0.7-0.4-1.2-1.1-1.2
						s-1.1,0.5-1.1,1.2V312.8z"/>
				</g>
			</g>
		</g>
	</g>
</g>
</svg>
