<?xml version="1.0" encoding="utf-8"?>
<!-- Generator: Adobe Illustrator 23.0.1, SVG Export Plug-In . SVG Version: 6.00 Build 0)  -->
<svg version="1.1" id="Livello_1" xmlns="http://www.w3.org/2000/svg" xmlns:xlink="http://www.w3.org/1999/xlink" x="0px" y="0px"
	 viewBox="0 0 184.9 184.9" style="enable-background:new 0 0 184.9 184.9;" xml:space="preserve">
<style type="text/css">
	.st0{fill:#E94F45;}
	.st1{fill:#9A65A7;}
	.st2{fill:#526CB2;}
	.st3{fill:#48B381;}
	.st4{fill:#FFD005;}
	.st5{fill:#ED6C4F;}
</style>
<g>
	<path class="st0" d="M144.8,19.6c0,0,22.4,66-52.5,72.8c43.3,61.4,89.3,9.1,89.3,9.1l0.1,0c0.3-3,0.5-6.1,0.5-9.1
		c0-31-15.7-58.3-39.6-74.5"/>
	<path class="st1" d="M181.6,101.6c0,0-46,52.3-89.3-9.1c-30.5,66.4,26.9,85.7,26.9,85.7c33.7-10.5,58.8-40.4,62.5-76.6"/>
	<path class="st2" d="M31.5,158.4c16,14.8,37.4,23.8,60.9,23.8c9.3,0,18.4-1.4,26.8-4.1c0,0-57.4-19.3-26.9-85.7
		C19.5,99.1,31.5,158.5,31.5,158.4"/>
	<path class="st3" d="M4.7,72.6c0,0,45.5-40,87.6,19.8c-72.8,6.7-60.9,66.1-60.9,66.1l0.1-0.1C13.8,142,2.6,118.5,2.6,92.4
		c0-6.8,0.8-13.4,2.2-19.8"/>
	<path class="st4" d="M4.8,72.7C11,45,30.1,22.1,55.4,10.6c0,0,68.3,13.5,37,81.8C50.2,32.7,4.7,72.6,4.7,72.6"/>
	<path class="st5" d="M144.8,19.6c0,0,22.4,66-52.5,72.8c31.4-68.3-37-81.8-37-81.8c11.3-5.1,23.8-8,37-8c18.6,0,35.9,5.7,50.2,15.3
		"/>
</g>
<g>
</g>
<g>
</g>
<g>
</g>
<g>
</g>
<g>
</g>
<g>
</g>
</svg>
