<svg id="Livello_1" data-name="Livello 1" xmlns="http://www.w3.org/2000/svg" viewBox="0 0 509 348"><defs><style>.cls-1,.cls-18,.cls-44{font-size:8px;}.cls-1{fill:#666;font-family:FiraSans-LightItalic, Fira Sans;font-style:italic;}.cls-2{letter-spacing:-0.01em;}.cls-3{letter-spacing:0em;}.cls-4{letter-spacing:-0.02em;}.cls-5{letter-spacing:-0.03em;}.cls-6{letter-spacing:-0.02em;}.cls-7{letter-spacing:0em;}.cls-8{letter-spacing:-0.03em;}.cls-9{letter-spacing:-0.01em;}.cls-10{font-size:11px;}.cls-10,.cls-12,.cls-18{fill:#1d1d1b;}.cls-10,.cls-12,.cls-18,.cls-33{font-family:FiraSans-Medium, Fira Sans;}.cls-11{letter-spacing:-0.01em;}.cls-12{font-size:10px;}.cls-13{letter-spacing:-0.01em;}.cls-14{letter-spacing:-0.01em;}.cls-15,.cls-16,.cls-17,.cls-44{font-family:FiraSans-Light, Fira Sans;}.cls-16{letter-spacing:-0.02em;}.cls-17,.cls-28{letter-spacing:-0.03em;}.cls-19{letter-spacing:-0.03em;}.cls-20{letter-spacing:-0.05em;}.cls-21{letter-spacing:-0.04em;}.cls-22{letter-spacing:0em;}.cls-23{letter-spacing:-0.05em;}.cls-24{letter-spacing:-0.02em;}.cls-25{font-family:FiraSans-Bold, Fira Sans;font-weight:700;}.cls-26{letter-spacing:-0.01em;}.cls-27{letter-spacing:0em;}.cls-29{letter-spacing:0em;}.cls-30{letter-spacing:-0.01em;}.cls-31{letter-spacing:-0.04em;}.cls-32{letter-spacing:-0.01em;}.cls-33{font-size:9px;}.cls-33,.cls-44{fill:#333;}.cls-34{letter-spacing:-0.01em;}.cls-35{letter-spacing:-0.01em;}.cls-36{letter-spacing:0em;}.cls-37{letter-spacing:0em;}.cls-38{letter-spacing:-0.01em;}.cls-39{letter-spacing:-0.01em;}.cls-40{letter-spacing:-0.01em;}.cls-41{letter-spacing:-0.01em;}.cls-42{letter-spacing:-0.01em;}.cls-43{letter-spacing:-0.02em;}.cls-45{letter-spacing:-0.01em;}.cls-46{letter-spacing:-0.02em;}.cls-47{letter-spacing:-0.02em;}.cls-48{letter-spacing:0em;}.cls-49{letter-spacing:0em;}.cls-50{letter-spacing:-0.01em;}.cls-51{letter-spacing:-0.01em;}.cls-52{letter-spacing:-0.01em;}.cls-53{letter-spacing:-0.02em;}.cls-54{letter-spacing:-0.03em;}.cls-55{letter-spacing:-0.03em;}.cls-56,.cls-63{fill:#fff;}.cls-56,.cls-57,.cls-59{stroke:#e6007e;}.cls-56,.cls-57,.cls-59,.cls-61,.cls-62,.cls-63{stroke-miterlimit:10;}.cls-56,.cls-57,.cls-59,.cls-61,.cls-62{stroke-width:0.75px;}.cls-57,.cls-59,.cls-61,.cls-62{fill:none;}.cls-58{fill:#e6007e;}.cls-59,.cls-62{stroke-dasharray:2;}.cls-60{letter-spacing:-0.05em;}.cls-61,.cls-62,.cls-63{stroke:#95c11f;}</style></defs><title>1-Protocol</title><text class="cls-1" transform="translate(417.91 12.82)">Goog<tspan class="cls-2" x="18.57" y="0">l</tspan><tspan x="20.78" y="0">e ad</tspan><tspan class="cls-3" x="36.2" y="0">v</tspan><tspan x="39.93" y="0">an</tspan><tspan class="cls-4" x="49.05" y="0">c</tspan><tspan class="cls-2" x="52.63" y="0">e</tspan><tspan x="56.69" y="0">d s</tspan><tspan class="cls-2" x="67.21" y="0">e</tspan><tspan x="71.28" y="0">a</tspan><tspan class="cls-5" x="75.76" y="0">r</tspan><tspan x="78.49" y="0">ch</tspan><tspan x="0" y="9.6">In</tspan><tspan class="cls-4" x="6.9" y="9.6">c</tspan><tspan x="10.47" y="9.6">ogni</tspan><tspan class="cls-6" x="26.37" y="9.6">t</tspan><tspan class="cls-7" x="28.92" y="9.6">o mode</tspan></text><text class="cls-1" transform="translate(413.99 173.42)">Ins<tspan class="cls-4" x="10.58" y="0">t</tspan><tspan x="13.13" y="0">ant Da</tspan><tspan class="cls-6" x="36.7" y="0">t</tspan><tspan class="cls-7" x="39.25" y="0">a Sc</tspan><tspan class="cls-8" x="53.97" y="0">r</tspan><tspan x="56.69" y="0">aper</tspan><tspan x="0" y="9.6">E</tspan><tspan class="cls-9" x="4.08" y="9.6">x</tspan><tspan class="cls-4" x="7.67" y="9.6">c</tspan><tspan x="11.25" y="9.6">el</tspan></text><text class="cls-10" transform="translate(180.73 14.39)">2 QUERI<tspan class="cls-11" x="38.93" y="0">E</tspan><tspan x="44.65" y="0">S:</tspan></text><text class="cls-12" transform="translate(144.71 122.23)">SEL<tspan class="cls-13" x="15.96" y="0">E</tspan><tspan class="cls-14" x="21.13" y="0">C</tspan><tspan x="26.71" y="0">TING</tspan><tspan class="cls-15" x="48.05" y="0" xml:space="preserve"> the fi</tspan><tspan class="cls-16" x="73.87" y="0">r</tspan><tspan class="cls-15" x="77.42" y="0">st 50 </tspan><tspan class="cls-17" x="101.42" y="0">r</tspan><tspan class="cls-15" x="104.85" y="0">esults</tspan></text><text class="cls-18" transform="translate(31.67 16.93)">QUE<tspan class="cls-19" x="15.02" y="0">R</tspan><tspan x="19.67" y="0">Y</tspan><tspan x="-8.32" y="9.6">DEFINITION</tspan></text><text class="cls-18" transform="translate(34.86 125.71)"><tspan class="cls-14">D</tspan><tspan class="cls-20" x="5.1" y="0">AT</tspan><tspan x="13.21" y="0">A</tspan><tspan x="-15.74" y="9.6">EXP</tspan><tspan class="cls-21" x="-2.27" y="9.6">L</tspan><tspan class="cls-22" x="1.43" y="9.6">OR</tspan><tspan class="cls-23" x="11.85" y="9.6">A</tspan><tspan x="16.11" y="9.6">TION</tspan></text><text class="cls-18" transform="translate(36.86 177.04)"><tspan class="cls-14">D</tspan><tspan class="cls-20" x="5.1" y="0">AT</tspan><tspan x="13.21" y="0">A</tspan><tspan x="-11.54" y="9.6">G</tspan><tspan class="cls-20" x="-6.43" y="9.6">A</tspan><tspan x="-2.17" y="9.6">THERING</tspan></text><text class="cls-12" transform="translate(141.39 174.78)">LI<tspan class="cls-24" x="8" y="0">S</tspan><tspan x="13.39" y="0">TING</tspan><tspan class="cls-25" x="34.73" y="0"> </tspan><tspan class="cls-15" x="37.1" y="0">the </tspan><tspan class="cls-17" x="54.5" y="0">r</tspan><tspan class="cls-15" x="57.93" y="0">esults and finding </tspan><tspan class="cls-15"><tspan class="cls-26" x="33.39" y="12">a</tspan><tspan class="cls-27" x="38.6" y="12">v</tspan><tspan x="43.28" y="12">o</tspan><tspan class="cls-14" x="48.99" y="12">c</tspan><tspan x="53.58" y="12">ado </tspan><tspan class="cls-28" x="73.29" y="12">r</tspan><tspan x="76.72" y="12">e</tspan><tspan class="cls-29" x="82.08" y="12">l</tspan><tspan x="84.87" y="12">a</tspan><tspan class="cls-30" x="90.23" y="12">t</tspan><tspan x="93.52" y="12">ed </tspan><tspan x="5.04" y="24">i</tspan><tspan class="cls-13" x="7.73" y="24">s</tspan><tspan x="12.25" y="24">sue</tspan><tspan class="cls-26" x="28.03" y="24">s</tspan><tspan x="32.52" y="24">’websi</tspan><tspan class="cls-30" x="60.2" y="24">t</tspan><tspan x="63.49" y="24">es, pointing out </tspan><tspan x="47.42" y="36">their </tspan><tspan class="cls-31" x="71.25" y="36">r</tspan><tspan x="74.63" y="36">ank </tspan></tspan></text><text class="cls-12" transform="translate(182.31 263.88)">IDENTI<tspan class="cls-29" x="29.68" y="0">F</tspan><tspan x="34.52" y="0">YING</tspan><tspan class="cls-15" x="56.3" y="0"> </tspan><tspan class="cls-15"><tspan class="cls-14" x="5.33" y="12">c</tspan><tspan x="9.92" y="12">a</tspan><tspan class="cls-32" x="15.28" y="12">t</tspan><tspan x="18.57" y="12">e</tspan><tspan class="cls-13" x="23.93" y="12">g</tspan><tspan x="28.83" y="12">ories</tspan></tspan></text><text class="cls-33" transform="translate(281 13)">A<tspan class="cls-34" x="5.25" y="0">v</tspan><tspan x="9.73" y="0">o</tspan><tspan class="cls-35" x="14.98" y="0">c</tspan><tspan x="19.2" y="0">ado</tspan><tspan class="cls-15"><tspan class="cls-36" x="0" y="10.8">l</tspan><tspan x="2.51" y="10.8">ang:ENG</tspan><tspan class="cls-36" x="0" y="21.6">l</tspan><tspan class="cls-37" x="2.51" y="21.6">o</tspan><tspan class="cls-38" x="7.65" y="21.6">ca</tspan><tspan class="cls-37" x="16.52" y="21.6">li</tspan><tspan class="cls-39" x="21.5" y="21.6">z</tspan><tspan x="25.16" y="21.6">ation:</tspan><tspan class="cls-40" x="47.74" y="21.6">U</tspan><tspan class="cls-41" x="53.53" y="21.6">S</tspan><tspan x="58.34" y="21.6">A</tspan></tspan><tspan x="0" y="36.6">A</tspan><tspan class="cls-42" x="5.25" y="36.6">g</tspan><tspan x="9.99" y="36.6">ua</tspan><tspan class="cls-35" x="20.1" y="36.6">c</tspan><tspan x="24.31" y="36.6">a</tspan><tspan class="cls-43" x="29.22" y="36.6">t</tspan><tspan x="32.44" y="36.6">e</tspan><tspan class="cls-15"><tspan class="cls-35" x="0" y="47.4">L</tspan><tspan x="4.2" y="47.4">ang:</tspan><tspan class="cls-35" x="20.67" y="47.4">E</tspan><tspan class="cls-37" x="25.19" y="47.4">S</tspan><tspan class="cls-36" x="0" y="58.2">l</tspan><tspan class="cls-37" x="2.51" y="58.2">o</tspan><tspan class="cls-38" x="7.65" y="58.2">ca</tspan><tspan class="cls-37" x="16.52" y="58.2">li</tspan><tspan class="cls-39" x="21.5" y="58.2">z</tspan><tspan x="25.16" y="58.2">ation:MEX</tspan></tspan></text><text class="cls-44" transform="translate(285.79 261.74)">Bo<tspan class="cls-45" x="9.35" y="0">t</tspan><tspan x="12.03" y="0">ani</tspan><tspan class="cls-14" x="23.15" y="0">ca</tspan><tspan x="31.03" y="0">l in</tspan><tspan class="cls-14" x="42.37" y="0">f</tspan><tspan class="cls-22" x="44.86" y="0">os</tspan><tspan class="cls-46" x="0" y="9.6">C</tspan><tspan x="4.24" y="9.6">onsumption</tspan><tspan class="cls-47" x="0" y="19.2">C</tspan><tspan x="4.26" y="19.2">rime </tspan><tspan class="cls-48" x="22.74" y="19.2">ev</tspan><tspan class="cls-49" x="30.76" y="19.2">ents</tspan><tspan class="cls-50" x="0" y="28.8">E</tspan><tspan class="cls-51" x="4.02" y="28.8">n</tspan><tspan x="8.62" y="28.8">vi</tspan><tspan class="cls-5" x="14.54" y="28.8">r</tspan><tspan x="17.28" y="28.8">onmen</tspan><tspan class="cls-45" x="42.3" y="28.8">t</tspan><tspan class="cls-14" x="44.98" y="28.8">a</tspan><tspan class="cls-22" x="49.19" y="28.8">l i</tspan><tspan class="cls-52" x="55.86" y="28.8">s</tspan><tspan x="59.46" y="28.8">sues</tspan><tspan x="0" y="38.4">H</tspan><tspan class="cls-14" x="5.36" y="38.4">ea</tspan><tspan x="13.78" y="38.4">lth </tspan><tspan class="cls-53" x="25.68" y="38.4">f</tspan><tspan class="cls-49" x="28.08" y="38.4">acts</tspan><tspan x="0" y="48">Other</tspan><tspan class="cls-4" x="0" y="57.6">P</tspan><tspan class="cls-54" x="4.4" y="57.6">r</tspan><tspan x="7.14" y="57.6">oduction g</tspan><tspan class="cls-54" x="45.16" y="57.6">r</tspan><tspan x="47.9" y="57.6">owth</tspan><tspan class="cls-5" x="0" y="67.2">T</tspan><tspan class="cls-55" x="3.72" y="67.2">r</tspan><tspan x="6.42" y="67.2">ade</tspan></text><text></text><circle class="cls-56" cx="210.49" cy="21.24" r="1.41"/><line class="cls-57" x1="210.49" y1="22.66" x2="210.49" y2="106.81"/><polygon class="cls-58" points="207.43 104.33 207.97 103.81 210.49 106.52 213.01 103.81 213.56 104.33 210.49 107.63 207.43 104.33"/><circle class="cls-56" cx="210.49" cy="133.24" r="1.41"/><line class="cls-57" x1="210.49" y1="134.66" x2="210.49" y2="158.85"/><polygon class="cls-58" points="207.43 156.37 207.97 155.86 210.49 158.56 213.01 155.86 213.56 156.37 210.49 159.67 207.43 156.37"/><circle class="cls-56" cx="210.49" cy="218.24" r="1.41"/><line class="cls-57" x1="210.49" y1="219.66" x2="210.49" y2="251.85"/><polygon class="cls-58" points="207.43 249.37 207.97 248.86 210.49 251.56 213.01 248.86 213.56 249.37 210.49 252.67 207.43 249.37"/><line class="cls-59" x1="241.01" y1="10.95" x2="275.5" y2="10.95"/><line class="cls-59" x1="244.76" y1="259.33" x2="281" y2="259.33"/><circle class="cls-56" cx="210.49" cy="283.24" r="1.41"/><line class="cls-57" x1="210.49" y1="284.66" x2="210.49" y2="328.21"/><polygon class="cls-58" points="207.43 325.72 207.97 325.21 210.49 327.92 213.01 325.21 213.56 325.72 210.49 329.02 207.43 325.72"/><text class="cls-12" transform="translate(176.99 341.69)">VIS<tspan class="cls-14" x="14.18" y="0">U</tspan><tspan x="20.64" y="0">ALIZ</tspan><tspan class="cls-60" x="39.81" y="0">A</tspan><tspan x="45.14" y="0">TION</tspan></text><rect class="cls-61" x="4.52" y="6.67" width="78.56" height="24.25"/><rect class="cls-61" x="4.52" y="114.54" width="78.56" height="26.75"/><rect class="cls-61" x="6.52" y="167.17" width="78.56" height="24.5"/><line class="cls-61" x1="43.8" y1="30.92" x2="43.8" y2="114.54"/><line class="cls-61" x1="43.8" y1="141" x2="43.8" y2="167.21"/><line class="cls-62" x1="409.07" y1="9.3" x2="409.07" y2="329"/><ellipse class="cls-63" cx="409.07" cy="9.3" rx="2.08" ry="2.22"/><ellipse class="cls-63" cx="409.07" cy="169.69" rx="2.08" ry="2.22"/><ellipse class="cls-63" cx="409.07" cy="327.85" rx="2.08" ry="2.22"/><text class="cls-1" transform="translate(413.99 331.58)">Illust<tspan class="cls-5" x="17.78" y="0">r</tspan><tspan x="20.5" y="0">a</tspan><tspan class="cls-6" x="24.98" y="0">t</tspan><tspan class="cls-7" x="27.54" y="0">or</tspan></text></svg>