<svg xmlns="http://www.w3.org/2000/svg" viewBox="0 0 804 187"><defs><style>.cls-1,.cls-11,.cls-33{fill:none;}.cls-1{stroke:#666;}.cls-1,.cls-11,.cls-33,.cls-34{stroke-miterlimit:10;stroke-width:0.75px;}.cls-2,.cls-24,.cls-35{font-size:9px;}.cls-13,.cls-2,.cls-24,.cls-8{fill:#fff;}.cls-2,.cls-8{font-family:FiraSans-Medium, Fira Sans;font-weight:500;}.cls-3{letter-spacing:-0.01em;}.cls-4{letter-spacing:-0.05em;}.cls-5{letter-spacing:-0.05em;}.cls-6{letter-spacing:-0.02em;}.cls-7{letter-spacing:-0.01em;}.cls-13,.cls-8{font-size:11px;}.cls-9{letter-spacing:-0.01em;}.cls-10{letter-spacing:-0.05em;}.cls-11,.cls-33,.cls-34{stroke:#95c11f;}.cls-12{fill:#95c11f;}.cls-13,.cls-23,.cls-24{font-family:FiraSans-Light, Fira Sans;font-weight:300;}.cls-14{letter-spacing:-0.03em;}.cls-15{letter-spacing:-0.03em;}.cls-16{letter-spacing:-0.02em;}.cls-17{letter-spacing:0em;}.cls-18{letter-spacing:-0.01em;}.cls-19{letter-spacing:-0.03em;}.cls-20{letter-spacing:-0.01em;}.cls-21{letter-spacing:-0.02em;}.cls-22{letter-spacing:-0.01em;}.cls-25{letter-spacing:-0.02em;}.cls-26{letter-spacing:-0.01em;}.cls-27{letter-spacing:0em;}.cls-28{letter-spacing:-0.02em;}.cls-29{letter-spacing:-0.03em;}.cls-30{letter-spacing:-0.01em;}.cls-31{letter-spacing:0em;}.cls-32{letter-spacing:0em;}.cls-33{stroke-dasharray:2;}.cls-35,.cls-39{fill:gray;}.cls-35{font-family:FiraSans-Italic, Fira Sans;font-style:italic;}.cls-36{letter-spacing:-0.03em;}.cls-37{letter-spacing:-0.03em;}.cls-38{letter-spacing:-0.02em;}</style></defs><title>protocols</title><g id="图层_1" data-name="图层 1"><rect class="cls-1" x="0.41" y="0.53" width="86.59" height="26.73"/><rect class="cls-1" x="0.41" y="68.03" width="86.59" height="29.49"/><line class="cls-1" x1="43.57" y1="27.26" x2="43.57" y2="68"/><text class="cls-2" transform="translate(33.34 78.6)"><tspan class="cls-3">D</tspan><tspan class="cls-4" x="5.74" y="0">AT</tspan><tspan x="14.86" y="0">A</tspan><tspan x="-12.98" y="10.8">G</tspan><tspan class="cls-5" x="-7.24" y="10.8">A</tspan><tspan x="-2.44" y="10.8">THERING</tspan></text><text class="cls-2" transform="translate(33.34 10.1)"><tspan class="cls-3">D</tspan><tspan class="cls-4" x="5.74" y="0">AT</tspan><tspan x="14.86" y="0">A</tspan><tspan class="cls-6" x="-14.76" y="10.8">C</tspan><tspan x="-9.82" y="10.8">OLL</tspan><tspan class="cls-7" x="5.5" y="10.8">E</tspan><tspan class="cls-3" x="10.16" y="10.8">C</tspan><tspan x="15.18" y="10.8">TION</tspan></text><text class="cls-8" transform="translate(358.06 165.04)">VIS<tspan class="cls-9" x="15.6" y="0">U</tspan><tspan x="22.7" y="0">ALIZ</tspan><tspan class="cls-10" x="43.79" y="0">A</tspan><tspan x="49.65" y="0">TION 2</tspan></text><line class="cls-11" x1="400.31" y1="30" x2="400.31" y2="62.19"/><polygon class="cls-12" points="397.24 59.7 397.79 59.19 400.31 61.9 402.83 59.19 403.38 59.7 400.31 63 397.24 59.7"/><text class="cls-13" transform="translate(345.45 9.46)"><tspan class="cls-14">F</tspan><tspan class="cls-15" x="4.91" y="0">r</tspan><tspan x="8.68" y="0">om </tspan><tspan class="cls-9" x="27.41" y="0">a</tspan><tspan x="33.2" y="0">ll the </tspan><tspan class="cls-16" x="61.65" y="0">c</tspan><tspan x="66.63" y="0">omments </tspan><tspan class="cls-16" x="-17.47" y="13.2">c</tspan><tspan x="-12.5" y="13.2">ol</tspan><tspan class="cls-17" x="-3.09" y="13.2">l</tspan><tspan x="-0.02" y="13.2">ec</tspan><tspan class="cls-18" x="11.03" y="13.2">t</tspan><tspan x="14.65" y="13.2">ed f</tspan><tspan class="cls-19" x="33.58" y="13.2">r</tspan><tspan x="37.36" y="13.2">om the p</tspan><tspan class="cls-15" x="81.62" y="13.2">r</tspan><tspan x="85.39" y="13.2">o</tspan><tspan class="cls-20" x="91.67" y="13.2">t</tspan><tspan x="95.29" y="13.2">o</tspan><tspan class="cls-21" x="101.57" y="13.2">c</tspan><tspan x="106.55" y="13.2">ol #6</tspan></text><text class="cls-8" transform="translate(363.9 83.11)">C<tspan class="cls-10" x="6.25" y="0">A</tspan><tspan x="12.11" y="0">T</tspan><tspan class="cls-22" x="17.94" y="0">E</tspan><tspan x="23.63" y="0">GORIZING </tspan><tspan class="cls-23"><tspan x="21.67" y="13.2">Mood</tspan></tspan></text><text class="cls-24" transform="translate(482.19 80.24)">angry<tspan class="cls-25" x="0" y="10.8">c</tspan><tspan x="4.07" y="10.8">on</tspan><tspan class="cls-26" x="14.46" y="10.8">t</tspan><tspan class="cls-27" x="17.42" y="10.8">emptuou</tspan><tspan class="cls-28" x="53.78" y="10.8">s</tspan><tspan x="57.82" y="10.8">vv</tspan><tspan class="cls-29" x="0" y="21.6">r</tspan><tspan x="3.09" y="21.6">esigned</tspan><tspan x="0" y="32.4">s</tspan><tspan class="cls-30" x="4.18" y="32.4">k</tspan><tspan class="cls-27" x="8.5" y="32.4">epti</tspan><tspan class="cls-3" x="24.06" y="32.4">ca</tspan><tspan class="cls-31" x="32.92" y="32.4">l</tspan><tspan x="0" y="43.2">p</tspan><tspan class="cls-29" x="5.23" y="43.2">r</tspan><tspan class="cls-32" x="8.32" y="43.2">ov</tspan><tspan class="cls-31" x="17.65" y="43.2">o</tspan><tspan class="cls-3" x="22.79" y="43.2">c</tspan><tspan x="26.92" y="43.2">ati</tspan><tspan class="cls-32" x="37.24" y="43.2">v</tspan><tspan class="cls-27" x="41.45" y="43.2">e</tspan><tspan x="0" y="54">supporti</tspan><tspan class="cls-32" x="33.84" y="54">v</tspan><tspan x="38.05" y="54">e</tspan><tspan x="0" y="64.8">worried</tspan><tspan x="0" y="75.6">critic</tspan><tspan x="0" y="86.4">i</tspan><tspan class="cls-29" x="2.43" y="86.4">r</tspan><tspan x="5.52" y="86.4">onic</tspan></text><line class="cls-33" x1="439.29" y1="77.32" x2="476.19" y2="77.32"/><line class="cls-11" x1="399.08" y1="107.72" x2="399.08" y2="150.97"/><polygon class="cls-12" points="396.01 148.49 396.56 147.97 399.08 150.68 401.6 147.97 402.15 148.49 399.08 151.78 396.01 148.49"/><circle class="cls-34" cx="399.08" cy="109.29" r="1.41"/><circle class="cls-34" cx="400.5" cy="28.66" r="1.41"/><text class="cls-35" transform="translate(376.15 175.48)">RA<tspan class="cls-3" x="10.49" y="0">W</tspan><tspan x="17.78" y="0">g</tspan><tspan class="cls-36" x="23" y="0">r</tspan><tspan x="26.16" y="0">aphs</tspan><tspan x="2.8" y="10.8">Illust</tspan><tspan class="cls-37" x="23.14" y="10.8">r</tspan><tspan x="26.3" y="10.8">a</tspan><tspan class="cls-38" x="31.42" y="10.8">t</tspan><tspan x="34.44" y="10.8">or</tspan></text><path class="cls-39" d="M375.74,171.5l-.54-.09a3.38,3.38,0,0,0-.22-.52l.32-.45a.46.46,0,0,0-.05-.61l-.48-.48a.48.48,0,0,0-.34-.14.44.44,0,0,0-.27.09l-.45.31a3.71,3.71,0,0,0-.55-.22l-.09-.53a.47.47,0,0,0-.47-.4h-.68a.47.47,0,0,0-.47.4l-.09.54a3,3,0,0,0-.52.22l-.45-.32a.5.5,0,0,0-.27-.08.48.48,0,0,0-.34.14l-.48.48a.46.46,0,0,0-.05.61l.32.45a3.49,3.49,0,0,0-.22.53l-.53.09a.48.48,0,0,0-.4.47v.68a.48.48,0,0,0,.4.47l.55.09a2.7,2.7,0,0,0,.22.53l-.32.44a.47.47,0,0,0,.05.61l.48.48a.48.48,0,0,0,.34.14.5.5,0,0,0,.27-.08l.46-.33a2.28,2.28,0,0,0,.51.21l.09.54a.47.47,0,0,0,.47.4h.68a.48.48,0,0,0,.47-.4l.09-.54a3.44,3.44,0,0,0,.53-.21l.44.31a.47.47,0,0,0,.28.09.48.48,0,0,0,.34-.14l.48-.48a.48.48,0,0,0,.05-.61l-.32-.45a3.11,3.11,0,0,0,.22-.53l.54-.09a.47.47,0,0,0,.4-.47V172a.48.48,0,0,0-.4-.48Zm0,1.15a.05.05,0,0,1,0,0l-.68.11a.21.21,0,0,0-.17.16,2.64,2.64,0,0,1-.28.67.21.21,0,0,0,0,.24l.39.56s0,0,0,.06l-.48.48h-.06l-.55-.4a.23.23,0,0,0-.24,0,2.38,2.38,0,0,1-.68.28.23.23,0,0,0-.16.18l-.11.68s0,0,0,0h-.68s0,0,0,0l-.12-.68a.2.2,0,0,0-.16-.18,2.7,2.7,0,0,1-.66-.27.2.2,0,0,0-.11,0,.28.28,0,0,0-.12,0l-.57.41h-.05l-.48-.48a0,0,0,0,1,0,0l.4-.56a.23.23,0,0,0,0-.24,2.44,2.44,0,0,1-.28-.67.23.23,0,0,0-.18-.16l-.68-.12s0,0,0,0V172s0,0,0,0l.67-.11a.23.23,0,0,0,.18-.16A2.68,2.68,0,0,1,370,171a.21.21,0,0,0,0-.24l-.4-.56a0,0,0,0,1,0-.06l.48-.48h.05l.56.4a.23.23,0,0,0,.24,0,2.35,2.35,0,0,1,.67-.29.21.21,0,0,0,.16-.17l.12-.68a0,0,0,0,1,0,0h.68s0,0,0,0l.11.67a.23.23,0,0,0,.16.17,2.35,2.35,0,0,1,.69.29.23.23,0,0,0,.24,0l.56-.4s0,0,0,0h0l.48.48a0,0,0,0,1,0,.06l-.4.56a.21.21,0,0,0,0,.23,2.87,2.87,0,0,1,.28.68.21.21,0,0,0,.17.16l.68.11s0,0,0,0v.67Zm0,0"/><path class="cls-39" d="M372.28,170.65a1.67,1.67,0,1,0,1.66,1.66,1.67,1.67,0,0,0-1.66-1.66Zm0,2.89a1.23,1.23,0,1,1,1.23-1.23,1.23,1.23,0,0,1-1.23,1.23Zm0,0"/></g></svg>