<?xml version="1.0" encoding="utf-8"?>
<!-- Generator: Adobe Illustrator 22.1.0, SVG Export Plug-In . SVG Version: 6.00 Build 0)  -->
<svg version="1.1" id="图层_1" xmlns="http://www.w3.org/2000/svg" xmlns:xlink="http://www.w3.org/1999/xlink" x="0px" y="0px"
	 viewBox="0 0 1283 616" style="enable-background:new 0 0 1283 616;" xml:space="preserve">
<style type="text/css">
	.st0{fill:none;}
	.st1{fill:#FFFFFF;}
	.st2{font-family:'Fira Sans', sans-serif; font-weight:500;}
	.st3{font-size:11px;}
	.st4{font-size:8px;}
	.st5{font-size:9px;}
	.st6{font-family:'Fira Sans', sans-serif; font-weight:300;}
	.st7{fill:#FFFFFF;stroke:#95C11F;stroke-width:0.75;stroke-miterlimit:10;}
	.st8{fill:none;stroke:#95C11F;stroke-width:0.75;stroke-miterlimit:10;}
	.st9{fill:#95C11F;}
	.st10{fill:none;stroke:#95C11F;stroke-width:0.75;stroke-miterlimit:10;stroke-dasharray:2;}
	.st11{fill:none;stroke:#666666;stroke-width:0.75;stroke-miterlimit:10;}
	.st12{font-size:10px;}
	.st13{fill:none;stroke:#4D4D4D;stroke-width:0.5;stroke-miterlimit:10;}
	.st14{fill:none;stroke:#333333;stroke-width:0.5;stroke-miterlimit:10;}
	.st15{font-family:'FiraSans-Bold';}
	.st16{fill:#666666;}
	.st17{font-family:'Fira Sans', sans-serif; font-weight:400; font-style: italic;}
	.st18{fill:#808080;}
</style>
<rect x="162" y="62.1" class="st0" width="146.2" height="9.7"/>
<text transform="matrix(1.1161 0 0 1 210.4948 70.3853)" class="st1 st2 st3">1 QUERY:</text>
<rect x="35" y="66.9" class="st0" width="107.6" height="16.6"/>
<text transform="matrix(1 0 0 1 76.5465 72.9349)"><tspan x="0" y="0" class="st1 st2 st4">Query</tspan><tspan x="-8.2" y="9.6" class="st1 st2 st4">definition</tspan></text>
<g>
	<rect x="37" y="136.7" class="st0" width="103.6" height="21.3"/>
	<text transform="matrix(1 0 0 1 79.4183 142.7043)"><tspan x="0" y="0" class="st1 st2 st4">DATA</tspan><tspan x="-15.7" y="9.6" class="st1 st2 st4">EXPLORATION</tspan></text>
</g>
<g>
	<rect x="37" y="223" class="st0" width="103.6" height="22.3"/>
	<text transform="matrix(1 0 0 1 79.4185 229.04)"><tspan x="0" y="0" class="st1 st2 st4">DATA</tspan><tspan x="-11.3" y="9.6" class="st1 st2 st4">GATHERING</tspan></text>
</g>
<text transform="matrix(1 0 0 1 318.0244 68.9993)"><tspan x="0" y="0" class="st1 st2 st5">Aguacate AND cartéls</tspan><tspan x="0" y="10.8" class="st1 st6 st5">lang: ES</tspan><tspan x="0" y="21.6" class="st1 st6 st5">localization: MEX</tspan><tspan x="0" y="36.6" class="st1 st2 st5">Year</tspan><tspan x="0" y="47.4" class="st1 st6 st5">2017</tspan></text>
<text transform="matrix(1 0 0 1 318.0244 226.3542)"><tspan x="0" y="0" class="st1 st6 st4">Sinaloa cartel</tspan><tspan x="0" y="9.6" class="st1 st6 st4">Guadalajara</tspan><tspan x="0" y="19.2" class="st1 st6 st4">Juarez cartel</tspan><tspan x="0" y="28.8" class="st1 st6 st4">Arellanon Felix borther</tspan><tspan x="0" y="38.4" class="st1 st6 st4">Tijuana</tspan><tspan x="0" y="48" class="st1 st6 st4">Milenio </tspan><tspan x="0" y="57.6" class="st1 st6 st4">Los cuinis</tspan><tspan x="0" y="67.2" class="st1 st6 st4">La familia Michoacan</tspan><tspan x="0" y="76.8" class="st1 st6 st4">Los Caballeros Templarios</tspan><tspan x="0" y="86.4" class="st1 st6 st4">La Tercera Hermandad</tspan></text>
<circle class="st7" cx="235.5" cy="95.2" r="1.4"/>
<g>
	<g>
		<line class="st8" x1="235.5" y1="96.7" x2="235.5" y2="124.8"/>
		<g>
			<polygon class="st9" points="232.4,122.3 233,121.8 235.5,124.5 238,121.8 238.6,122.3 235.5,125.6 			"/>
		</g>
	</g>
</g>
<line class="st10" x1="263.7" y1="67" x2="313.2" y2="67"/>
<line class="st10" x1="277" y1="223.9" x2="313.2" y2="223.9"/>
<rect x="49.5" y="62.7" class="st11" width="78.6" height="24.2"/>
<rect x="49.5" y="131.5" class="st11" width="78.6" height="26.8"/>
<rect x="49.5" y="219.2" class="st11" width="78.6" height="24.5"/>
<line class="st11" x1="87.8" y1="86.9" x2="87.8" y2="131.5"/>
<line class="st11" x1="87.8" y1="158.3" x2="87.8" y2="219.2"/>
<g>
	<rect x="134" y="6.9" class="st0" width="203.1" height="44.3"/>
	<text transform="matrix(1 0 0 1 143.319 14.2888)"><tspan x="0" y="0" class="st1 st6 st12">Starting from the relationship discovered </tspan><tspan x="-7.4" y="12" class="st1 st6 st12">between the cartels and the avocados in the </tspan><tspan x="39.3" y="24" class="st1 st6 st12">Visualizations #1 and #2</tspan></text>
</g>
<g>
	<g>
		<line class="st8" x1="235.5" y1="190.2" x2="235.5" y2="213.9"/>
		<g>
			<polygon class="st9" points="232.4,211.4 233,210.9 235.5,213.6 238,210.9 238.6,211.4 235.5,214.7 			"/>
		</g>
	</g>
</g>
<circle class="st7" cx="235.5" cy="190.2" r="1.4"/>
<g>
	<rect x="182" y="219.1" class="st0" width="107.1" height="21.5"/>
	<text transform="matrix(1 0 0 1 198.6178 226.6034)"><tspan x="0" y="0" class="st1 st2 st12">identifying</tspan><tspan x="56.3" y="0" class="st1 st6 st12"> the </tspan><tspan x="7.9" y="12" class="st1 st6 st12">cartels name</tspan></text>
</g>
<g>
	<rect x="153" y="131.1" class="st0" width="165.1" height="45.8"/>
	<text transform="matrix(1 0 0 1 168.6635 138.618)"><tspan x="0" y="0" class="st1 st2 st12">scraping </tspan><tspan x="47.7" y="0" class="st1 st6 st12">among the first 100 </tspan><tspan x="-7.8" y="12" class="st1 st6 st12">results and keeping only relevant </tspan><tspan x="-4.6" y="24" class="st1 st6 st12">websites according to the query</tspan></text>
</g>
<circle class="st7" cx="236.5" cy="245.2" r="1.4"/>
<g>
	<g>
		<line class="st8" x1="236.5" y1="246.7" x2="236.5" y2="328.2"/>
		<g>
			<polygon class="st9" points="233.4,325.7 234,325.2 236.5,327.9 239,325.2 239.6,325.7 236.5,329 			"/>
		</g>
	</g>
</g>
<g>
	<rect x="182" y="336.6" class="st0" width="109" height="46"/>
	<text transform="matrix(1 0 0 1 208.3175 344.1672)"><tspan x="0" y="0" class="st1 st2 st12">identifying</tspan><tspan x="56.3" y="0" class="st1 st6 st12"> </tspan><tspan x="-19.5" y="12" class="st1 st6 st12">connections between </tspan><tspan x="-21.2" y="24" class="st1 st6 st12">cartels and the places </tspan><tspan x="-15.3" y="36" class="st1 st6 st12">where they operate</tspan></text>
</g>
<text transform="matrix(1 0 0 1 318.0242 342.8542)"><tspan x="0" y="0" class="st1 st6 st4">Regions:</tspan><tspan x="0" y="9.6" class="st1 st6 st4">Michoacan</tspan><tspan x="0" y="19.2" class="st1 st6 st4">Colima</tspan><tspan x="0" y="28.8" class="st1 st6 st4">Jalisco</tspan><tspan x="0" y="38.4" class="st1 st6 st4">Nayarat</tspan></text>
<text transform="matrix(1 0 0 1 384.3577 342.854)"><tspan x="0" y="0" class="st1 st6 st4">Cities:</tspan><tspan x="0" y="9.6" class="st1 st6 st4">Uruapan</tspan><tspan x="0" y="19.2" class="st1 st6 st4">Tancìtaro</tspan><tspan x="0" y="28.8" class="st1 st6 st4">Periban</tspan><tspan x="0" y="38.4" class="st1 st6 st4">Los Reyes</tspan><tspan x="0" y="48" class="st1 st6 st4">Mexicali</tspan></text>
<line class="st10" x1="268.5" y1="340.4" x2="313.2" y2="340.4"/>
<line class="st13" x1="357.1" y1="350.5" x2="371" y2="350.5"/>
<line class="st13" x1="378.6" y1="346.9" x2="378.6" y2="381.4"/>
<line class="st13" x1="383.4" y1="346.9" x2="378.4" y2="346.9"/>
<line class="st14" x1="383.4" y1="381.2" x2="378.4" y2="381.2"/>
<line class="st13" x1="371" y1="350.2" x2="371" y2="364.8"/>
<line class="st13" x1="378.6" y1="364.6" x2="370.7" y2="364.6"/>
<circle class="st7" cx="417.3" cy="340.4" r="1.4"/>
<line class="st8" x1="418.7" y1="340.4" x2="476.6" y2="340.4"/>
<rect x="410.8" y="432.4" class="st0" width="131" height="9.7"/>
<text transform="matrix(1 0 0 1 454.2808 440.7238)" class="st1 st2 st3">1 QUERY:</text>
<text transform="matrix(1 0 0 1 549.8335 439.3376)"><tspan x="0" y="0" class="st1 st2 st5">Cartel name AND place name</tspan><tspan x="0" y="10.8" class="st1 st6 st5">lang: ES</tspan><tspan x="0" y="21.6" class="st1 st6 st5">localization: MEX</tspan><tspan x="0" y="36.6" class="st1 st2 st5">Year</tspan><tspan x="0" y="47.4" class="st1 st6 st5">2017</tspan></text>
<line class="st10" x1="503.6" y1="437.3" x2="544.3" y2="437.3"/>
<g>
	<g>
		<line class="st8" x1="476.3" y1="340.4" x2="476.3" y2="425.9"/>
		<g>
			<polygon class="st9" points="473.2,423.4 473.8,422.9 476.3,425.6 478.8,422.9 479.4,423.4 476.3,426.7 			"/>
		</g>
	</g>
</g>
<g>
	<rect x="424" y="509.2" class="st0" width="107" height="38.8"/>
	<text transform="matrix(1 0 0 1 437.9024 516.7307)"><tspan x="0" y="0" class="st1 st2 st12">considering</tspan><tspan x="61.8" y="0" class="st1 st6 st12"> the </tspan><tspan x="-11.9" y="12" class="st1 st6 st12">amount of total results </tspan><tspan x="7.1" y="24" class="st1 st6 st12">for each query</tspan></text>
</g>
<circle class="st7" cx="477.5" cy="471.2" r="1.4"/>
<g>
	<g>
		<line class="st8" x1="477.5" y1="472.7" x2="477.5" y2="502.7"/>
		<g>
			<polygon class="st9" points="474.4,500.2 475,499.7 477.5,502.4 480,499.7 480.6,500.2 477.5,503.5 			"/>
		</g>
	</g>
</g>
<circle class="st7" cx="237.5" cy="389.2" r="1.4"/>
<line class="st8" x1="237.5" y1="390.7" x2="237.5" y2="421"/>
<line class="st8" x1="477.9" y1="563" x2="84" y2="563"/>
<line class="st8" x1="477.5" y1="563.4" x2="477.5" y2="547.3"/>
<g>
	<rect x="7.6" y="424.7" class="st0" width="152.8" height="94.9"/>
	<text transform="matrix(1 0 0 1 20.2715 432.0986)"><tspan x="0" y="0" class="st1 st6 st12">Integration with the Mexican </tspan><tspan x="-11.8" y="12" class="st1 st6 st12">Governmental dataset “Estatistica </tspan><tspan x="-1.3" y="24" class="st1 st6 st12">de producciòn agricola” for a </tspan><tspan x="-3.2" y="36" class="st1 st6 st12">comparison between avocado </tspan><tspan x="-7.2" y="48" class="st1 st6 st12">production and the presence of </tspan><tspan x="-10.9" y="60" class="st1 st6 st12">cartels linked to it in the territory</tspan></text>
</g>
<line class="st8" x1="83.9" y1="563" x2="83.9" y2="498.7"/>
<g>
	<g>
		<line class="st8" x1="274.7" y1="421" x2="274.7" y2="578.6"/>
		<g>
			<polygon class="st9" points="271.7,576.1 272.2,575.6 274.7,578.3 277.2,575.6 277.8,576.1 274.7,579.4 			"/>
		</g>
	</g>
</g>
<g>
	<rect x="202.3" y="582.3" class="st0" width="144.7" height="28"/>
	<text transform="matrix(1 0 0 1 237.3623 589.8553)" class="st1 st2 st12">VISUALIZATION 1</text>
</g>
<circle class="st7" cx="376.3" cy="224.4" r="1.4"/>
<line class="st8" x1="377.7" y1="224.4" x2="1084.9" y2="224.4"/>
<line class="st8" x1="275.1" y1="421" x2="237.1" y2="421"/>
<circle class="st7" cx="84" cy="498.7" r="1.2"/>
<rect x="727.8" y="250.3" class="st0" width="131" height="9.7"/>
<text transform="matrix(1 0 0 1 771.2808 258.5809)" class="st1 st2 st3">1 QUERY:</text>
<text transform="matrix(1 0 0 1 855.167 257.1946)" class="st1 st2 st5">Cartel name</text>
<line class="st10" x1="820.6" y1="255.1" x2="853.3" y2="255.1"/>
<g>
	<rect x="813.1" y="341.1" class="st0" width="109.5" height="59.9"/>
	<text transform="matrix(1 0 0 1 820.7681 348.6086)"><tspan x="0" y="0" class="st1 st2 st12">identifying</tspan><tspan x="56.3" y="0" class="st1 st6 st12"> internal </tspan><tspan x="-7.1" y="12" class="st1 st6 st12">links between the found </tspan><tspan x="-3.1" y="24" class="st1 st6 st12">cartels in each cartels’ </tspan><tspan x="3.4" y="36" class="st1 st6 st12">page in the website</tspan></text>
</g>
<g>
	<rect x="670.9" y="341.8" class="st0" width="104.4" height="33.2"/>
	<text transform="matrix(1 0 0 1 673.1631 349.4178)"><tspan x="0" y="0" class="st1 st2 st12">identifying</tspan><tspan x="56.3" y="0" class="st1 st15 st12"> </tspan><tspan x="58.7" y="0" class="st1 st6 st12">the years </tspan><tspan x="-2.2" y="12" class="st1 st6 st12">relevant for each cartel </tspan><tspan x="20.6" y="24" class="st1 st6 st12">development</tspan></text>
</g>
<line class="st8" x1="795.5" y1="275.1" x2="795.5" y2="305.7"/>
<circle class="st7" cx="795.5" cy="275.2" r="1.4"/>
<line class="st8" x1="867.9" y1="305.7" x2="723.1" y2="305.7"/>
<g>
	<g>
		<line class="st8" x1="723.1" y1="305.3" x2="723.1" y2="335"/>
		<g>
			<polygon class="st9" points="720,332.5 720.6,332 723.1,334.7 725.6,332 726.2,332.5 723.1,335.8 			"/>
		</g>
	</g>
</g>
<g>
	<g>
		<line class="st8" x1="867.9" y1="305.3" x2="867.9" y2="335"/>
		<g>
			<polygon class="st9" points="864.8,332.5 865.4,332 867.9,334.7 870.4,332 870.9,332.5 867.9,335.8 			"/>
		</g>
	</g>
</g>
<rect x="1016.8" y="252.3" class="st0" width="131" height="9.7"/>
<text transform="matrix(1 0 0 1 1060.2808 260.5809)" class="st1 st2 st3">1 QUERY:</text>
<line class="st10" x1="1109.6" y1="257.1" x2="1142.3" y2="257.1"/>
<g>
	<g>
		<line class="st8" x1="1084.5" y1="285.1" x2="1084.5" y2="336.1"/>
		<g>
			<polygon class="st9" points="1081.4,333.6 1082,333.1 1084.5,335.8 1087,333.1 1087.6,333.6 1084.5,336.9 			"/>
		</g>
	</g>
</g>
<circle class="st7" cx="1084.5" cy="285.2" r="1.4"/>
<g>
	<g>
		<line class="st8" x1="1084.5" y1="224" x2="1084.5" y2="244.4"/>
		<g>
			<polygon class="st9" points="1081.4,241.9 1082,241.4 1084.5,244.1 1087,241.4 1087.6,241.9 1084.5,245.2 			"/>
		</g>
	</g>
</g>
<g>
	<g>
		<line class="st8" x1="795.5" y1="224.4" x2="795.5" y2="244.4"/>
		<g>
			<polygon class="st9" points="792.4,241.9 793,241.4 795.5,244.1 798,241.4 798.6,241.9 795.5,245.2 			"/>
		</g>
	</g>
</g>
<g>
	<rect x="1031" y="341" class="st0" width="107" height="38.8"/>
	<text transform="matrix(1 0 0 1 1044.9023 348.5494)"><tspan x="0" y="0" class="st1 st2 st12">considering</tspan><tspan x="61.8" y="0" class="st1 st6 st12"> the </tspan><tspan x="-11.9" y="12" class="st1 st6 st12">amount of total results </tspan><tspan x="7.1" y="24" class="st1 st6 st12">for each query</tspan></text>
</g>
<text transform="matrix(1 0 0 1 1144.6909 259.3326)"><tspan x="0" y="0" class="st1 st2 st5">Aguacate AND name of the cartel</tspan><tspan x="0" y="10.8" class="st1 st6 st5">lang: ES</tspan><tspan x="0" y="21.6" class="st1 st6 st5">localization: MEX</tspan><tspan x="0" y="36.6" class="st1 st2 st5">Years</tspan><tspan x="0" y="47.4" class="st1 st6 st5">from the year of foundation of </tspan><tspan x="0" y="58.2" class="st1 st6 st5">each cartel to 2017 </tspan></text>
<line class="st8" x1="1084.9" y1="417" x2="723.1" y2="417"/>
<line class="st8" x1="723.1" y1="381.1" x2="723.1" y2="417.4"/>
<g>
	<g>
		<line class="st8" x1="867.9" y1="392.2" x2="867.9" y2="441.2"/>
		<g>
			<polygon class="st9" points="864.8,438.7 865.4,438.2 867.9,440.9 870.4,438.2 870.9,438.7 867.9,442 			"/>
		</g>
	</g>
</g>
<line class="st8" x1="1084.5" y1="377.3" x2="1084.5" y2="417.4"/>
<g>
	<rect x="795.5" y="445" class="st0" width="144.7" height="28"/>
	<text transform="matrix(1 0 0 1 830.2881 452.5205)" class="st1 st2 st12">VISUALIZATION 2</text>
</g>
<circle class="st7" cx="723.1" cy="379.8" r="1.3"/>
<circle class="st7" cx="867.9" cy="391" r="1.2"/>
<circle class="st7" cx="1084.4" cy="378.2" r="1.2"/>
<g>
	<g>
		<rect x="190.3" y="74.5" class="st0" width="96.1" height="19"/>
		<text transform="matrix(1 0 0 1 194.2305 80.4387)"><tspan x="0" y="0" class="st16 st17 st4">Google advanced search</tspan><tspan x="15.8" y="9.6" class="st16 st17 st4">Incognito mode</tspan></text>
		<g>
			<path class="st16" d="M191.9,77.2l-0.5-0.1c-0.1-0.2-0.1-0.4-0.2-0.5l0.3-0.4c0.1-0.2,0.1-0.4-0.1-0.6l-0.5-0.5
				c-0.1-0.1-0.2-0.1-0.3-0.1c-0.1,0-0.2,0-0.3,0.1l-0.4,0.3c-0.2-0.1-0.4-0.2-0.5-0.2l-0.1-0.5c0-0.2-0.2-0.4-0.5-0.4h-0.7
				c-0.2,0-0.4,0.2-0.5,0.4l-0.1,0.5c-0.2,0.1-0.4,0.1-0.5,0.2l-0.4-0.3c-0.1-0.1-0.2-0.1-0.3-0.1c-0.1,0-0.2,0-0.3,0.1l-0.5,0.5
				c-0.2,0.2-0.2,0.4-0.1,0.6l0.3,0.5c-0.1,0.2-0.2,0.3-0.2,0.5l-0.5,0.1c-0.2,0-0.4,0.2-0.4,0.5v0.7c0,0.2,0.2,0.4,0.4,0.5l0.5,0.1
				c0.1,0.2,0.1,0.4,0.2,0.5l-0.3,0.4c-0.1,0.2-0.1,0.4,0.1,0.6L186,81c0.1,0.1,0.2,0.1,0.3,0.1c0.1,0,0.2,0,0.3-0.1l0.5-0.3
				c0.2,0.1,0.3,0.2,0.5,0.2l0.1,0.5c0,0.2,0.2,0.4,0.5,0.4h0.7c0.2,0,0.4-0.2,0.5-0.4l0.1-0.5c0.2-0.1,0.4-0.1,0.5-0.2l0.4,0.3
				c0.1,0.1,0.2,0.1,0.3,0.1c0.1,0,0.2,0,0.3-0.1l0.5-0.5c0.2-0.2,0.2-0.4,0.1-0.6l-0.3-0.4c0.1-0.2,0.2-0.3,0.2-0.5l0.5-0.1
				c0.2,0,0.4-0.2,0.4-0.5v-0.7C192.3,77.4,192.1,77.2,191.9,77.2L191.9,77.2z M191.9,78.4C191.9,78.4,191.9,78.4,191.9,78.4
				l-0.7,0.2c-0.1,0-0.2,0.1-0.2,0.2c-0.1,0.2-0.2,0.5-0.3,0.7c0,0.1,0,0.2,0,0.2l0.4,0.6c0,0,0,0,0,0.1l-0.5,0.5c0,0,0,0,0,0
				c0,0,0,0,0,0l-0.6-0.4c-0.1,0-0.2-0.1-0.2,0c-0.2,0.1-0.4,0.2-0.7,0.3c-0.1,0-0.1,0.1-0.2,0.2l-0.1,0.7c0,0,0,0,0,0h-0.7
				c0,0,0,0,0,0l-0.1-0.7c0-0.1-0.1-0.2-0.2-0.2c-0.2-0.1-0.5-0.2-0.7-0.3c0,0-0.1,0-0.1,0c0,0-0.1,0-0.1,0l-0.6,0.4c0,0,0,0,0,0
				c0,0,0,0,0,0l-0.5-0.5c0,0,0,0,0-0.1l0.4-0.6c0-0.1,0.1-0.2,0-0.2c-0.1-0.2-0.2-0.4-0.3-0.7c0-0.1-0.1-0.1-0.2-0.2l-0.7-0.1
				c0,0,0,0,0,0v-0.7c0,0,0,0,0,0l0.7-0.1c0.1,0,0.2-0.1,0.2-0.2c0.1-0.2,0.2-0.5,0.3-0.7c0-0.1,0-0.2,0-0.2l-0.4-0.6c0,0,0,0,0-0.1
				l0.5-0.5c0,0,0,0,0,0c0,0,0,0,0,0l0.6,0.4c0.1,0,0.2,0.1,0.2,0c0.2-0.1,0.4-0.2,0.7-0.3c0.1,0,0.1-0.1,0.2-0.2l0.1-0.7
				c0,0,0,0,0,0h0.7c0,0,0,0,0,0l0.1,0.7c0,0.1,0.1,0.2,0.2,0.2c0.2,0.1,0.5,0.2,0.7,0.3c0.1,0,0.2,0,0.2,0l0.6-0.4c0,0,0,0,0,0
				c0,0,0,0,0,0l0.5,0.5c0,0,0,0,0,0.1l-0.4,0.6c0,0.1-0.1,0.2,0,0.2c0.1,0.2,0.2,0.4,0.3,0.7c0,0.1,0.1,0.1,0.2,0.2l0.7,0.1
				c0,0,0,0,0,0L191.9,78.4L191.9,78.4z M191.9,78.4"/>
			<path class="st16" d="M188.4,76.4c-0.9,0-1.7,0.7-1.7,1.7c0,0.9,0.7,1.7,1.7,1.7c0.9,0,1.7-0.7,1.7-1.7
				C190.1,77.1,189.4,76.4,188.4,76.4L188.4,76.4z M188.4,79.2c-0.7,0-1.2-0.6-1.2-1.2c0-0.7,0.6-1.2,1.2-1.2c0.7,0,1.2,0.6,1.2,1.2
				C189.7,78.7,189.1,79.2,188.4,79.2L188.4,79.2z M188.4,79.2"/>
		</g>
	</g>
	<g>
		<rect x="190.3" y="74.5" class="st0" width="96.1" height="19"/>
		<text transform="matrix(1 0 0 1 194.2305 80.4387)"><tspan x="0" y="0" class="st18 st17 st4">Google advanced search</tspan><tspan x="15.8" y="9.6" class="st18 st17 st4">Incognito mode</tspan></text>
		<g>
			<path class="st18" d="M191.9,77.2l-0.5-0.1c-0.1-0.2-0.1-0.4-0.2-0.5l0.3-0.4c0.1-0.2,0.1-0.4-0.1-0.6l-0.5-0.5
				c-0.1-0.1-0.2-0.1-0.3-0.1c-0.1,0-0.2,0-0.3,0.1l-0.4,0.3c-0.2-0.1-0.4-0.2-0.5-0.2l-0.1-0.5c0-0.2-0.2-0.4-0.5-0.4h-0.7
				c-0.2,0-0.4,0.2-0.5,0.4l-0.1,0.5c-0.2,0.1-0.4,0.1-0.5,0.2l-0.4-0.3c-0.1-0.1-0.2-0.1-0.3-0.1c-0.1,0-0.2,0-0.3,0.1l-0.5,0.5
				c-0.2,0.2-0.2,0.4-0.1,0.6l0.3,0.5c-0.1,0.2-0.2,0.3-0.2,0.5l-0.5,0.1c-0.2,0-0.4,0.2-0.4,0.5v0.7c0,0.2,0.2,0.4,0.4,0.5l0.5,0.1
				c0.1,0.2,0.1,0.4,0.2,0.5l-0.3,0.4c-0.1,0.2-0.1,0.4,0.1,0.6L186,81c0.1,0.1,0.2,0.1,0.3,0.1c0.1,0,0.2,0,0.3-0.1l0.5-0.3
				c0.2,0.1,0.3,0.2,0.5,0.2l0.1,0.5c0,0.2,0.2,0.4,0.5,0.4h0.7c0.2,0,0.4-0.2,0.5-0.4l0.1-0.5c0.2-0.1,0.4-0.1,0.5-0.2l0.4,0.3
				c0.1,0.1,0.2,0.1,0.3,0.1c0.1,0,0.2,0,0.3-0.1l0.5-0.5c0.2-0.2,0.2-0.4,0.1-0.6l-0.3-0.4c0.1-0.2,0.2-0.3,0.2-0.5l0.5-0.1
				c0.2,0,0.4-0.2,0.4-0.5v-0.7C192.3,77.4,192.1,77.2,191.9,77.2L191.9,77.2z M191.9,78.4C191.9,78.4,191.9,78.4,191.9,78.4
				l-0.7,0.2c-0.1,0-0.2,0.1-0.2,0.2c-0.1,0.2-0.2,0.5-0.3,0.7c0,0.1,0,0.2,0,0.2l0.4,0.6c0,0,0,0,0,0.1l-0.5,0.5c0,0,0,0,0,0
				c0,0,0,0,0,0l-0.6-0.4c-0.1,0-0.2-0.1-0.2,0c-0.2,0.1-0.4,0.2-0.7,0.3c-0.1,0-0.1,0.1-0.2,0.2l-0.1,0.7c0,0,0,0,0,0h-0.7
				c0,0,0,0,0,0l-0.1-0.7c0-0.1-0.1-0.2-0.2-0.2c-0.2-0.1-0.5-0.2-0.7-0.3c0,0-0.1,0-0.1,0c0,0-0.1,0-0.1,0l-0.6,0.4c0,0,0,0,0,0
				c0,0,0,0,0,0l-0.5-0.5c0,0,0,0,0-0.1l0.4-0.6c0-0.1,0.1-0.2,0-0.2c-0.1-0.2-0.2-0.4-0.3-0.7c0-0.1-0.1-0.1-0.2-0.2l-0.7-0.1
				c0,0,0,0,0,0v-0.7c0,0,0,0,0,0l0.7-0.1c0.1,0,0.2-0.1,0.2-0.2c0.1-0.2,0.2-0.5,0.3-0.7c0-0.1,0-0.2,0-0.2l-0.4-0.6c0,0,0,0,0-0.1
				l0.5-0.5c0,0,0,0,0,0c0,0,0,0,0,0l0.6,0.4c0.1,0,0.2,0.1,0.2,0c0.2-0.1,0.4-0.2,0.7-0.3c0.1,0,0.1-0.1,0.2-0.2l0.1-0.7
				c0,0,0,0,0,0h0.7c0,0,0,0,0,0l0.1,0.7c0,0.1,0.1,0.2,0.2,0.2c0.2,0.1,0.5,0.2,0.7,0.3c0.1,0,0.2,0,0.2,0l0.6-0.4c0,0,0,0,0,0
				c0,0,0,0,0,0l0.5,0.5c0,0,0,0,0,0.1l-0.4,0.6c0,0.1-0.1,0.2,0,0.2c0.1,0.2,0.2,0.4,0.3,0.7c0,0.1,0.1,0.1,0.2,0.2l0.7,0.1
				c0,0,0,0,0,0L191.9,78.4L191.9,78.4z M191.9,78.4"/>
			<path class="st18" d="M188.4,76.4c-0.9,0-1.7,0.7-1.7,1.7c0,0.9,0.7,1.7,1.7,1.7c0.9,0,1.7-0.7,1.7-1.7
				C190.1,77.1,189.4,76.4,188.4,76.4L188.4,76.4z M188.4,79.2c-0.7,0-1.2-0.6-1.2-1.2c0-0.7,0.6-1.2,1.2-1.2c0.7,0,1.2,0.6,1.2,1.2
				C189.7,78.7,189.1,79.2,188.4,79.2L188.4,79.2z M188.4,79.2"/>
		</g>
	</g>
</g>
<rect x="187.1" y="168.4" class="st0" width="96.1" height="17.3"/>
<text transform="matrix(1 0 0 1 198.062 174.3375)"><tspan x="0" y="0" class="st18 st17 st4">Instant Data Scraper</tspan><tspan x="28" y="9.6" class="st18 st17 st4">Excel</tspan></text>
<g>
	<path class="st18" d="M194.3,171.3l-0.5-0.1c-0.1-0.2-0.1-0.4-0.2-0.5l0.3-0.4c0.1-0.2,0.1-0.4-0.1-0.6l-0.5-0.5
		c-0.1-0.1-0.2-0.1-0.3-0.1c-0.1,0-0.2,0-0.3,0.1l-0.4,0.3c-0.2-0.1-0.4-0.2-0.5-0.2l-0.1-0.5c0-0.2-0.2-0.4-0.5-0.4h-0.7
		c-0.2,0-0.4,0.2-0.5,0.4l-0.1,0.5c-0.2,0.1-0.4,0.1-0.5,0.2l-0.4-0.3c-0.1-0.1-0.2-0.1-0.3-0.1c-0.1,0-0.2,0-0.3,0.1l-0.5,0.5
		c-0.2,0.2-0.2,0.4-0.1,0.6l0.3,0.5c-0.1,0.2-0.2,0.3-0.2,0.5l-0.5,0.1c-0.2,0-0.4,0.2-0.4,0.5v0.7c0,0.2,0.2,0.4,0.4,0.5l0.5,0.1
		c0.1,0.2,0.1,0.4,0.2,0.5l-0.3,0.4c-0.1,0.2-0.1,0.4,0.1,0.6l0.5,0.5c0.1,0.1,0.2,0.1,0.3,0.1c0.1,0,0.2,0,0.3-0.1l0.5-0.3
		c0.2,0.1,0.3,0.2,0.5,0.2l0.1,0.5c0,0.2,0.2,0.4,0.5,0.4h0.7c0.2,0,0.4-0.2,0.5-0.4l0.1-0.5c0.2-0.1,0.4-0.1,0.5-0.2l0.4,0.3
		c0.1,0.1,0.2,0.1,0.3,0.1c0.1,0,0.2,0,0.3-0.1l0.5-0.5c0.2-0.2,0.2-0.4,0.1-0.6l-0.3-0.4c0.1-0.2,0.2-0.3,0.2-0.5l0.5-0.1
		c0.2,0,0.4-0.2,0.4-0.5v-0.7C194.6,171.5,194.5,171.3,194.3,171.3L194.3,171.3z M194.2,172.4C194.2,172.4,194.2,172.4,194.2,172.4
		l-0.7,0.2c-0.1,0-0.2,0.1-0.2,0.2c-0.1,0.2-0.2,0.5-0.3,0.7c0,0.1,0,0.2,0,0.2l0.4,0.6c0,0,0,0,0,0.1l-0.5,0.5c0,0,0,0,0,0
		c0,0,0,0,0,0l-0.6-0.4c-0.1,0-0.2-0.1-0.2,0c-0.2,0.1-0.4,0.2-0.7,0.3c-0.1,0-0.1,0.1-0.2,0.2l-0.1,0.7c0,0,0,0,0,0h-0.7
		c0,0,0,0,0,0l-0.1-0.7c0-0.1-0.1-0.2-0.2-0.2c-0.2-0.1-0.5-0.2-0.7-0.3c0,0-0.1,0-0.1,0c0,0-0.1,0-0.1,0l-0.6,0.4c0,0,0,0,0,0
		c0,0,0,0,0,0l-0.5-0.5c0,0,0,0,0-0.1l0.4-0.6c0-0.1,0.1-0.2,0-0.2c-0.1-0.2-0.2-0.4-0.3-0.7c0-0.1-0.1-0.1-0.2-0.2l-0.7-0.1
		c0,0,0,0,0,0v-0.7c0,0,0,0,0,0l0.7-0.1c0.1,0,0.2-0.1,0.2-0.2c0.1-0.2,0.2-0.5,0.3-0.7c0-0.1,0-0.2,0-0.2l-0.4-0.6c0,0,0,0,0-0.1
		l0.5-0.5c0,0,0,0,0,0c0,0,0,0,0,0l0.6,0.4c0.1,0,0.2,0.1,0.2,0c0.2-0.1,0.4-0.2,0.7-0.3c0.1,0,0.1-0.1,0.2-0.2l0.1-0.7c0,0,0,0,0,0
		h0.7c0,0,0,0,0,0l0.1,0.7c0,0.1,0.1,0.2,0.2,0.2c0.2,0.1,0.5,0.2,0.7,0.3c0.1,0,0.2,0,0.2,0l0.6-0.4c0,0,0,0,0,0c0,0,0,0,0,0
		l0.5,0.5c0,0,0,0,0,0.1l-0.4,0.6c0,0.1-0.1,0.2,0,0.2c0.1,0.2,0.2,0.4,0.3,0.7c0,0.1,0.1,0.1,0.2,0.2l0.7,0.1c0,0,0,0,0,0
		L194.2,172.4L194.2,172.4z M194.2,172.4"/>
	<path class="st18" d="M190.8,170.4c-0.9,0-1.7,0.7-1.7,1.7c0,0.9,0.7,1.7,1.7,1.7c0.9,0,1.7-0.7,1.7-1.7
		C192.5,171.1,191.7,170.4,190.8,170.4L190.8,170.4z M190.8,173.3c-0.7,0-1.2-0.6-1.2-1.2c0-0.7,0.6-1.2,1.2-1.2
		c0.7,0,1.2,0.6,1.2,1.2C192,172.7,191.5,173.3,190.8,173.3L190.8,173.3z M190.8,173.3"/>
</g>
<g>
	<rect x="431.1" y="445.6" class="st0" width="96.1" height="19"/>
	<text transform="matrix(1 0 0 1 435.0298 451.6196)"><tspan x="0" y="0" class="st18 st17 st4">Google advanced search</tspan><tspan x="15.8" y="9.6" class="st18 st17 st4">Incognito mode</tspan></text>
	<g>
		<path class="st18" d="M432.7,448.4l-0.5-0.1c-0.1-0.2-0.1-0.4-0.2-0.5l0.3-0.4c0.1-0.2,0.1-0.4-0.1-0.6l-0.5-0.5
			c-0.1-0.1-0.2-0.1-0.3-0.1c-0.1,0-0.2,0-0.3,0.1l-0.4,0.3c-0.2-0.1-0.4-0.2-0.5-0.2l-0.1-0.5c0-0.2-0.2-0.4-0.5-0.4h-0.7
			c-0.2,0-0.4,0.2-0.5,0.4l-0.1,0.5c-0.2,0.1-0.4,0.1-0.5,0.2l-0.4-0.3c-0.1-0.1-0.2-0.1-0.3-0.1c-0.1,0-0.2,0-0.3,0.1l-0.5,0.5
			c-0.2,0.2-0.2,0.4-0.1,0.6l0.3,0.5c-0.1,0.2-0.2,0.3-0.2,0.5l-0.5,0.1c-0.2,0-0.4,0.2-0.4,0.5v0.7c0,0.2,0.2,0.4,0.4,0.5l0.5,0.1
			c0.1,0.2,0.1,0.4,0.2,0.5l-0.3,0.4c-0.1,0.2-0.1,0.4,0.1,0.6l0.5,0.5c0.1,0.1,0.2,0.1,0.3,0.1c0.1,0,0.2,0,0.3-0.1l0.5-0.3
			c0.2,0.1,0.3,0.2,0.5,0.2l0.1,0.5c0,0.2,0.2,0.4,0.5,0.4h0.7c0.2,0,0.4-0.2,0.5-0.4l0.1-0.5c0.2-0.1,0.4-0.1,0.5-0.2l0.4,0.3
			c0.1,0.1,0.2,0.1,0.3,0.1c0.1,0,0.2,0,0.3-0.1l0.5-0.5c0.2-0.2,0.2-0.4,0.1-0.6l-0.3-0.4c0.1-0.2,0.2-0.3,0.2-0.5l0.5-0.1
			c0.2,0,0.4-0.2,0.4-0.5v-0.7C433.1,448.6,432.9,448.4,432.7,448.4L432.7,448.4z M432.7,449.5C432.7,449.6,432.7,449.6,432.7,449.5
			l-0.7,0.2c-0.1,0-0.2,0.1-0.2,0.2c-0.1,0.2-0.2,0.5-0.3,0.7c0,0.1,0,0.2,0,0.2l0.4,0.6c0,0,0,0,0,0.1l-0.5,0.5c0,0,0,0,0,0
			c0,0,0,0,0,0l-0.6-0.4c-0.1,0-0.2-0.1-0.2,0c-0.2,0.1-0.4,0.2-0.7,0.3c-0.1,0-0.1,0.1-0.2,0.2l-0.1,0.7c0,0,0,0,0,0h-0.7
			c0,0,0,0,0,0l-0.1-0.7c0-0.1-0.1-0.2-0.2-0.2c-0.2-0.1-0.5-0.2-0.7-0.3c0,0-0.1,0-0.1,0c0,0-0.1,0-0.1,0l-0.6,0.4c0,0,0,0,0,0
			c0,0,0,0,0,0l-0.5-0.5c0,0,0,0,0-0.1l0.4-0.6c0-0.1,0.1-0.2,0-0.2c-0.1-0.2-0.2-0.4-0.3-0.7c0-0.1-0.1-0.1-0.2-0.2l-0.7-0.1
			c0,0,0,0,0,0v-0.7c0,0,0,0,0,0l0.7-0.1c0.1,0,0.2-0.1,0.2-0.2c0.1-0.2,0.2-0.5,0.3-0.7c0-0.1,0-0.2,0-0.2l-0.4-0.6c0,0,0,0,0-0.1
			l0.5-0.5c0,0,0,0,0,0c0,0,0,0,0,0l0.6,0.4c0.1,0,0.2,0.1,0.2,0c0.2-0.1,0.4-0.2,0.7-0.3c0.1,0,0.1-0.1,0.2-0.2l0.1-0.7
			c0,0,0,0,0,0h0.7c0,0,0,0,0,0l0.1,0.7c0,0.1,0.1,0.2,0.2,0.2c0.2,0.1,0.5,0.2,0.7,0.3c0.1,0,0.2,0,0.2,0l0.6-0.4c0,0,0,0,0,0
			c0,0,0,0,0,0l0.5,0.5c0,0,0,0,0,0.1l-0.4,0.6c0,0.1-0.1,0.2,0,0.2c0.1,0.2,0.2,0.4,0.3,0.7c0,0.1,0.1,0.1,0.2,0.2l0.7,0.1
			c0,0,0,0,0,0L432.7,449.5L432.7,449.5z M432.7,449.5"/>
		<path class="st18" d="M429.2,447.5c-0.9,0-1.7,0.7-1.7,1.7c0,0.9,0.7,1.7,1.7,1.7c0.9,0,1.7-0.7,1.7-1.7
			C430.9,448.3,430.2,447.5,429.2,447.5L429.2,447.5z M429.2,450.4c-0.7,0-1.2-0.6-1.2-1.2c0-0.7,0.6-1.2,1.2-1.2s1.2,0.6,1.2,1.2
			C430.5,449.9,429.9,450.4,429.2,450.4L429.2,450.4z M429.2,450.4"/>
	</g>
</g>
<circle class="st7" cx="477.5" cy="547.2" r="1.4"/>
<rect x="748.9" y="263.6" class="st0" width="96.1" height="9.5"/>
<text transform="matrix(1 0 0 1 767.3281 269.6196)" class="st18 st17 st4">Insightcrime.org</text>
<g>
	<path class="st18" d="M765.5,266.4l-0.5-0.1c-0.1-0.2-0.1-0.4-0.2-0.5l0.3-0.4c0.1-0.2,0.1-0.4-0.1-0.6l-0.5-0.5
		c-0.1-0.1-0.2-0.1-0.3-0.1c-0.1,0-0.2,0-0.3,0.1l-0.4,0.3c-0.2-0.1-0.4-0.2-0.5-0.2l-0.1-0.5c0-0.2-0.2-0.4-0.5-0.4h-0.7
		c-0.2,0-0.4,0.2-0.5,0.4l-0.1,0.5c-0.2,0.1-0.4,0.1-0.5,0.2l-0.4-0.3c-0.1-0.1-0.2-0.1-0.3-0.1c-0.1,0-0.2,0-0.3,0.1l-0.5,0.5
		c-0.2,0.2-0.2,0.4-0.1,0.6l0.3,0.5c-0.1,0.2-0.2,0.3-0.2,0.5l-0.5,0.1c-0.2,0-0.4,0.2-0.4,0.5v0.7c0,0.2,0.2,0.4,0.4,0.5l0.5,0.1
		c0.1,0.2,0.1,0.4,0.2,0.5l-0.3,0.4c-0.1,0.2-0.1,0.4,0.1,0.6l0.5,0.5c0.1,0.1,0.2,0.1,0.3,0.1c0.1,0,0.2,0,0.3-0.1l0.5-0.3
		c0.2,0.1,0.3,0.2,0.5,0.2l0.1,0.5c0,0.2,0.2,0.4,0.5,0.4h0.7c0.2,0,0.4-0.2,0.5-0.4l0.1-0.5c0.2-0.1,0.4-0.1,0.5-0.2l0.4,0.3
		c0.1,0.1,0.2,0.1,0.3,0.1c0.1,0,0.2,0,0.3-0.1l0.5-0.5c0.2-0.2,0.2-0.4,0.1-0.6l-0.3-0.4c0.1-0.2,0.2-0.3,0.2-0.5l0.5-0.1
		c0.2,0,0.4-0.2,0.4-0.5v-0.7C765.9,266.6,765.7,266.4,765.5,266.4L765.5,266.4z M765.5,267.5C765.5,267.6,765.4,267.6,765.5,267.5
		l-0.7,0.2c-0.1,0-0.2,0.1-0.2,0.2c-0.1,0.2-0.2,0.5-0.3,0.7c0,0.1,0,0.2,0,0.2l0.4,0.6c0,0,0,0,0,0.1l-0.5,0.5c0,0,0,0,0,0
		c0,0,0,0,0,0l-0.6-0.4c-0.1,0-0.2-0.1-0.2,0c-0.2,0.1-0.4,0.2-0.7,0.3c-0.1,0-0.1,0.1-0.2,0.2l-0.1,0.7c0,0,0,0,0,0h-0.7
		c0,0,0,0,0,0l-0.1-0.7c0-0.1-0.1-0.2-0.2-0.2c-0.2-0.1-0.5-0.2-0.7-0.3c0,0-0.1,0-0.1,0c0,0-0.1,0-0.1,0l-0.6,0.4c0,0,0,0,0,0
		c0,0,0,0,0,0l-0.5-0.5c0,0,0,0,0-0.1l0.4-0.6c0-0.1,0.1-0.2,0-0.2c-0.1-0.2-0.2-0.4-0.3-0.7c0-0.1-0.1-0.1-0.2-0.2l-0.7-0.1
		c0,0,0,0,0,0v-0.7c0,0,0,0,0,0l0.7-0.1c0.1,0,0.2-0.1,0.2-0.2c0.1-0.2,0.2-0.5,0.3-0.7c0-0.1,0-0.2,0-0.2l-0.4-0.6c0,0,0,0,0-0.1
		l0.5-0.5c0,0,0,0,0,0c0,0,0,0,0,0l0.6,0.4c0.1,0,0.2,0.1,0.2,0c0.2-0.1,0.4-0.2,0.7-0.3c0.1,0,0.1-0.1,0.2-0.2l0.1-0.7c0,0,0,0,0,0
		h0.7c0,0,0,0,0,0l0.1,0.7c0,0.1,0.1,0.2,0.2,0.2c0.2,0.1,0.5,0.2,0.7,0.3c0.1,0,0.2,0,0.2,0l0.6-0.4c0,0,0,0,0,0c0,0,0,0,0,0
		l0.5,0.5c0,0,0,0,0,0.1l-0.4,0.6c0,0.1-0.1,0.2,0,0.2c0.1,0.2,0.2,0.4,0.3,0.7c0,0.1,0.1,0.1,0.2,0.2l0.7,0.1c0,0,0,0,0,0
		L765.5,267.5L765.5,267.5z M765.5,267.5"/>
	<path class="st18" d="M762,265.5c-0.9,0-1.7,0.7-1.7,1.7c0,0.9,0.7,1.7,1.7,1.7c0.9,0,1.7-0.7,1.7-1.7
		C763.7,266.3,762.9,265.5,762,265.5L762,265.5z M762,268.4c-0.7,0-1.2-0.6-1.2-1.2c0-0.7,0.6-1.2,1.2-1.2s1.2,0.6,1.2,1.2
		C763.3,267.9,762.7,268.4,762,268.4L762,268.4z M762,268.4"/>
</g>
<g>
	<rect x="1038.1" y="265.9" class="st0" width="96.1" height="19"/>
	<text transform="matrix(1 0 0 1 1042.0299 271.8893)"><tspan x="0" y="0" class="st18 st17 st4">Google advanced search</tspan><tspan x="15.8" y="9.6" class="st18 st17 st4">Incognito mode</tspan></text>
	<g>
		<path class="st18" d="M1039.7,268.7l-0.5-0.1c-0.1-0.2-0.1-0.4-0.2-0.5l0.3-0.4c0.1-0.2,0.1-0.4-0.1-0.6l-0.5-0.5
			c-0.1-0.1-0.2-0.1-0.3-0.1c-0.1,0-0.2,0-0.3,0.1l-0.4,0.3c-0.2-0.1-0.4-0.2-0.5-0.2l-0.1-0.5c0-0.2-0.2-0.4-0.5-0.4h-0.7
			c-0.2,0-0.4,0.2-0.5,0.4l-0.1,0.5c-0.2,0.1-0.4,0.1-0.5,0.2l-0.4-0.3c-0.1-0.1-0.2-0.1-0.3-0.1c-0.1,0-0.2,0-0.3,0.1l-0.5,0.5
			c-0.2,0.2-0.2,0.4-0.1,0.6l0.3,0.5c-0.1,0.2-0.2,0.3-0.2,0.5l-0.5,0.1c-0.2,0-0.4,0.2-0.4,0.5v0.7c0,0.2,0.2,0.4,0.4,0.5l0.5,0.1
			c0.1,0.2,0.1,0.4,0.2,0.5l-0.3,0.4c-0.1,0.2-0.1,0.4,0.1,0.6l0.5,0.5c0.1,0.1,0.2,0.1,0.3,0.1c0.1,0,0.2,0,0.3-0.1l0.5-0.3
			c0.2,0.1,0.3,0.2,0.5,0.2l0.1,0.5c0,0.2,0.2,0.4,0.5,0.4h0.7c0.2,0,0.4-0.2,0.5-0.4l0.1-0.5c0.2-0.1,0.4-0.1,0.5-0.2l0.4,0.3
			c0.1,0.1,0.2,0.1,0.3,0.1c0.1,0,0.2,0,0.3-0.1l0.5-0.5c0.2-0.2,0.2-0.4,0.1-0.6l-0.3-0.4c0.1-0.2,0.2-0.3,0.2-0.5l0.5-0.1
			c0.2,0,0.4-0.2,0.4-0.5v-0.7C1040.1,268.9,1039.9,268.7,1039.7,268.7L1039.7,268.7z M1039.7,269.8
			C1039.7,269.8,1039.7,269.8,1039.7,269.8l-0.7,0.2c-0.1,0-0.2,0.1-0.2,0.2c-0.1,0.2-0.2,0.5-0.3,0.7c0,0.1,0,0.2,0,0.2l0.4,0.6
			c0,0,0,0,0,0.1l-0.5,0.5c0,0,0,0,0,0c0,0,0,0,0,0l-0.6-0.4c-0.1,0-0.2-0.1-0.2,0c-0.2,0.1-0.4,0.2-0.7,0.3c-0.1,0-0.1,0.1-0.2,0.2
			l-0.1,0.7c0,0,0,0,0,0h-0.7c0,0,0,0,0,0l-0.1-0.7c0-0.1-0.1-0.2-0.2-0.2c-0.2-0.1-0.5-0.2-0.7-0.3c0,0-0.1,0-0.1,0
			c0,0-0.1,0-0.1,0l-0.6,0.4c0,0,0,0,0,0c0,0,0,0,0,0l-0.5-0.5c0,0,0,0,0-0.1l0.4-0.6c0.1-0.1,0.1-0.2,0-0.2
			c-0.1-0.2-0.2-0.4-0.3-0.7c0-0.1-0.1-0.1-0.2-0.2l-0.7-0.1c0,0,0,0,0,0v-0.7c0,0,0,0,0,0l0.7-0.1c0.1,0,0.2-0.1,0.2-0.2
			c0.1-0.2,0.2-0.5,0.3-0.7c0-0.1,0-0.2,0-0.2l-0.4-0.6c0,0,0,0,0-0.1l0.5-0.5c0,0,0,0,0,0c0,0,0,0,0,0l0.6,0.4c0.1,0,0.2,0.1,0.2,0
			c0.2-0.1,0.4-0.2,0.7-0.3c0.1,0,0.1-0.1,0.2-0.2l0.1-0.7c0,0,0,0,0,0h0.7c0,0,0,0,0,0l0.1,0.7c0,0.1,0.1,0.2,0.2,0.2
			c0.2,0.1,0.5,0.2,0.7,0.3c0.1,0,0.2,0,0.2,0l0.6-0.4c0,0,0,0,0,0c0,0,0,0,0,0l0.5,0.5c0,0,0,0,0,0.1l-0.4,0.6
			c-0.1,0.1-0.1,0.2,0,0.2c0.1,0.2,0.2,0.4,0.3,0.7c0,0.1,0.1,0.1,0.2,0.2l0.7,0.1c0,0,0,0,0,0L1039.7,269.8L1039.7,269.8z
			 M1039.7,269.8"/>
		<path class="st18" d="M1036.2,267.8c-0.9,0-1.7,0.7-1.7,1.7c0,0.9,0.7,1.7,1.7,1.7s1.7-0.7,1.7-1.7
			C1037.9,268.5,1037.2,267.8,1036.2,267.8L1036.2,267.8z M1036.2,270.7c-0.7,0-1.2-0.6-1.2-1.2c0-0.7,0.6-1.2,1.2-1.2
			s1.2,0.6,1.2,1.2C1037.5,270.1,1036.9,270.7,1036.2,270.7L1036.2,270.7z M1036.2,270.7"/>
	</g>
</g>
<g>
	<rect x="322.4" y="436.3" class="st0" width="103.6" height="22.3"/>
	<text transform="matrix(1 0 0 1 361.9374 442.2917)"><tspan x="0" y="0" class="st1 st2 st4">QUERY </tspan><tspan x="-8.2" y="9.6" class="st1 st2 st4">DEFINITION</tspan></text>
</g>
<rect x="334.9" y="432.4" class="st11" width="78.6" height="24.5"/>
<g>
	<rect x="322.8" y="512.9" class="st0" width="103.6" height="22.3"/>
	<text transform="matrix(1 0 0 1 365.1941 518.9601)"><tspan x="0" y="0" class="st1 st2 st4">DATA</tspan><tspan x="-11.3" y="9.6" class="st1 st2 st4">GATHERING</tspan></text>
</g>
<rect x="335.3" y="509.1" class="st11" width="78.6" height="24.5"/>
<line class="st11" x1="374.6" y1="456.9" x2="374.6" y2="509"/>
<g>
	<rect x="559" y="254.4" class="st0" width="103.6" height="22.3"/>
	<text transform="matrix(1 0 0 1 598.5309 260.4549)"><tspan x="0" y="0" class="st1 st2 st4">QUERY </tspan><tspan x="-8.2" y="9.6" class="st1 st2 st4">DEFINITION</tspan></text>
</g>
<rect x="571.5" y="250.6" class="st11" width="78.6" height="24.5"/>
<g>
	<rect x="559.4" y="346.1" class="st0" width="103.6" height="22.3"/>
	<text transform="matrix(1 0 0 1 601.7876 352.1242)"><tspan x="0" y="0" class="st1 st2 st4">DATA</tspan><tspan x="-11.3" y="9.6" class="st1 st2 st4">GATHERING</tspan></text>
</g>
<rect x="571.9" y="342.3" class="st11" width="78.6" height="24.5"/>
<line class="st11" x1="610.8" y1="276" x2="610.8" y2="342.3"/>
<g>
	<rect x="930.6" y="255.9" class="st0" width="103.6" height="22.3"/>
	<text transform="matrix(1 0 0 1 970.1598 261.9857)"><tspan x="0" y="0" class="st1 st2 st4">QUERY </tspan><tspan x="-8.2" y="9.6" class="st1 st2 st4">DEFINITION</tspan></text>
</g>
<rect x="943.1" y="252.1" class="st11" width="78.6" height="24.5"/>
<g>
	<rect x="931" y="345.6" class="st0" width="103.6" height="22.3"/>
	<text transform="matrix(1 0 0 1 973.4165 351.6549)"><tspan x="0" y="0" class="st1 st2 st4">DATA</tspan><tspan x="-11.3" y="9.6" class="st1 st2 st4">GATHERING</tspan></text>
</g>
<rect x="943.5" y="341.8" class="st11" width="78.6" height="24.5"/>
<line class="st11" x1="982.4" y1="277.5" x2="982.4" y2="341.8"/>
<rect x="819.8" y="455.2" class="st0" width="96.1" height="16.1"/>
<text transform="matrix(1 0 0 1 848.3853 461.1548)"><tspan x="0" y="0" class="st18 st17 st4">Raw Graph</tspan><tspan x="1.4" y="9.6" class="st18 st17 st4">Illustrator</tspan></text>
<g>
	<path class="st18" d="M846.9,458.1l-0.5-0.1c-0.1-0.2-0.1-0.4-0.2-0.5l0.3-0.4c0.1-0.2,0.1-0.4-0.1-0.6l-0.5-0.5
		c-0.1-0.1-0.2-0.1-0.3-0.1c-0.1,0-0.2,0-0.3,0.1l-0.4,0.3c-0.2-0.1-0.4-0.2-0.5-0.2l-0.1-0.5c0-0.2-0.2-0.4-0.5-0.4h-0.7
		c-0.2,0-0.4,0.2-0.5,0.4l-0.1,0.5c-0.2,0.1-0.4,0.1-0.5,0.2l-0.4-0.3c-0.1-0.1-0.2-0.1-0.3-0.1c-0.1,0-0.2,0-0.3,0.1l-0.5,0.5
		c-0.2,0.2-0.2,0.4-0.1,0.6l0.3,0.5c-0.1,0.2-0.2,0.3-0.2,0.5l-0.5,0.1c-0.2,0-0.4,0.2-0.4,0.5v0.7c0,0.2,0.2,0.4,0.4,0.5l0.5,0.1
		c0.1,0.2,0.1,0.4,0.2,0.5l-0.3,0.4c-0.1,0.2-0.1,0.4,0.1,0.6l0.5,0.5c0.1,0.1,0.2,0.1,0.3,0.1c0.1,0,0.2,0,0.3-0.1l0.5-0.3
		c0.2,0.1,0.3,0.2,0.5,0.2l0.1,0.5c0,0.2,0.2,0.4,0.5,0.4h0.7c0.2,0,0.4-0.2,0.5-0.4l0.1-0.5c0.2-0.1,0.4-0.1,0.5-0.2l0.4,0.3
		c0.1,0.1,0.2,0.1,0.3,0.1c0.1,0,0.2,0,0.3-0.1l0.5-0.5c0.2-0.2,0.2-0.4,0.1-0.6l-0.3-0.4c0.1-0.2,0.2-0.3,0.2-0.5l0.5-0.1
		c0.2,0,0.4-0.2,0.4-0.5v-0.7C847.3,458.3,847.2,458.1,846.9,458.1L846.9,458.1z M846.9,459.2C846.9,459.2,846.9,459.3,846.9,459.2
		l-0.7,0.2c-0.1,0-0.2,0.1-0.2,0.2c-0.1,0.2-0.2,0.5-0.3,0.7c0,0.1,0,0.2,0,0.2l0.4,0.6c0,0,0,0,0,0.1l-0.5,0.5c0,0,0,0,0,0
		c0,0,0,0,0,0l-0.6-0.4c-0.1,0-0.2-0.1-0.2,0c-0.2,0.1-0.4,0.2-0.7,0.3c-0.1,0-0.1,0.1-0.2,0.2l-0.1,0.7c0,0,0,0,0,0h-0.7
		c0,0,0,0,0,0l-0.1-0.7c0-0.1-0.1-0.2-0.2-0.2c-0.2-0.1-0.5-0.2-0.7-0.3c0,0-0.1,0-0.1,0c0,0-0.1,0-0.1,0l-0.6,0.4c0,0,0,0,0,0
		c0,0,0,0,0,0l-0.5-0.5c0,0,0,0,0-0.1l0.4-0.6c0-0.1,0.1-0.2,0-0.2c-0.1-0.2-0.2-0.4-0.3-0.7c0-0.1-0.1-0.1-0.2-0.2l-0.7-0.1
		c0,0,0,0,0,0v-0.7c0,0,0,0,0,0l0.7-0.1c0.1,0,0.2-0.1,0.2-0.2c0.1-0.2,0.2-0.5,0.3-0.7c0-0.1,0-0.2,0-0.2l-0.4-0.6c0,0,0,0,0-0.1
		l0.5-0.5c0,0,0,0,0,0c0,0,0,0,0,0l0.6,0.4c0.1,0,0.2,0.1,0.2,0c0.2-0.1,0.4-0.2,0.7-0.3c0.1,0,0.1-0.1,0.2-0.2l0.1-0.7c0,0,0,0,0,0
		h0.7c0,0,0,0,0,0l0.1,0.7c0,0.1,0.1,0.2,0.2,0.2c0.2,0.1,0.5,0.2,0.7,0.3c0.1,0,0.2,0,0.2,0l0.6-0.4c0,0,0,0,0,0c0,0,0,0,0,0
		l0.5,0.5c0,0,0,0,0,0.1l-0.4,0.6c0,0.1-0.1,0.2,0,0.2c0.1,0.2,0.2,0.4,0.3,0.7c0,0.1,0.1,0.1,0.2,0.2l0.7,0.1c0,0,0,0,0,0
		L846.9,459.2L846.9,459.2z M846.9,459.2"/>
	<path class="st18" d="M843.5,457.2c-0.9,0-1.7,0.7-1.7,1.7c0,0.9,0.7,1.7,1.7,1.7c0.9,0,1.7-0.7,1.7-1.7
		C845.2,458,844.4,457.2,843.5,457.2L843.5,457.2z M843.5,460.1c-0.7,0-1.2-0.6-1.2-1.2s0.6-1.2,1.2-1.2c0.7,0,1.2,0.6,1.2,1.2
		S844.2,460.1,843.5,460.1L843.5,460.1z M843.5,460.1"/>
</g>
<rect x="226.7" y="593.1" class="st0" width="96.1" height="16.1"/>
<text transform="matrix(1 0 0 1 255.2267 599.091)"><tspan x="0" y="0" class="st18 st17 st4">Raw Graph</tspan><tspan x="1.4" y="9.6" class="st18 st17 st4">Illustrator</tspan></text>
<g>
	<path class="st18" d="M253.8,596l-0.5-0.1c-0.1-0.2-0.1-0.4-0.2-0.5l0.3-0.4c0.1-0.2,0.1-0.4-0.1-0.6l-0.5-0.5
		c-0.1-0.1-0.2-0.1-0.3-0.1c-0.1,0-0.2,0-0.3,0.1l-0.4,0.3c-0.2-0.1-0.4-0.2-0.5-0.2l-0.1-0.5c0-0.2-0.2-0.4-0.5-0.4H250
		c-0.2,0-0.4,0.2-0.5,0.4l-0.1,0.5c-0.2,0.1-0.4,0.1-0.5,0.2l-0.4-0.3c-0.1-0.1-0.2-0.1-0.3-0.1c-0.1,0-0.2,0-0.3,0.1l-0.5,0.5
		c-0.2,0.2-0.2,0.4-0.1,0.6l0.3,0.5c-0.1,0.2-0.2,0.3-0.2,0.5l-0.5,0.1c-0.2,0-0.4,0.2-0.4,0.5v0.7c0,0.2,0.2,0.4,0.4,0.5l0.5,0.1
		c0.1,0.2,0.1,0.4,0.2,0.5l-0.3,0.4c-0.1,0.2-0.1,0.4,0.1,0.6l0.5,0.5c0.1,0.1,0.2,0.1,0.3,0.1c0.1,0,0.2,0,0.3-0.1l0.5-0.3
		c0.2,0.1,0.3,0.2,0.5,0.2l0.1,0.5c0,0.2,0.2,0.4,0.5,0.4h0.7c0.2,0,0.4-0.2,0.5-0.4l0.1-0.5c0.2-0.1,0.4-0.1,0.5-0.2l0.4,0.3
		c0.1,0.1,0.2,0.1,0.3,0.1c0.1,0,0.2,0,0.3-0.1l0.5-0.5c0.2-0.2,0.2-0.4,0.1-0.6l-0.3-0.4c0.1-0.2,0.2-0.3,0.2-0.5l0.5-0.1
		c0.2,0,0.4-0.2,0.4-0.5v-0.7C254.2,596.2,254,596,253.8,596L253.8,596z M253.8,597.2C253.8,597.2,253.7,597.2,253.8,597.2l-0.7,0.2
		c-0.1,0-0.2,0.1-0.2,0.2c-0.1,0.2-0.2,0.5-0.3,0.7c0,0.1,0,0.2,0,0.2l0.4,0.6c0,0,0,0,0,0.1l-0.5,0.5c0,0,0,0,0,0c0,0,0,0,0,0
		l-0.6-0.4c-0.1,0-0.2-0.1-0.2,0c-0.2,0.1-0.4,0.2-0.7,0.3c-0.1,0-0.1,0.1-0.2,0.2l-0.1,0.7c0,0,0,0,0,0H250c0,0,0,0,0,0l-0.1-0.7
		c0-0.1-0.1-0.2-0.2-0.2c-0.2-0.1-0.5-0.2-0.7-0.3c0,0-0.1,0-0.1,0c0,0-0.1,0-0.1,0l-0.6,0.4c0,0,0,0,0,0c0,0,0,0,0,0l-0.5-0.5
		c0,0,0,0,0-0.1l0.4-0.6c0-0.1,0.1-0.2,0-0.2c-0.1-0.2-0.2-0.4-0.3-0.7c0-0.1-0.1-0.1-0.2-0.2l-0.7-0.1c0,0,0,0,0,0v-0.7
		c0,0,0,0,0,0l0.7-0.1c0.1,0,0.2-0.1,0.2-0.2c0.1-0.2,0.2-0.5,0.3-0.7c0-0.1,0-0.2,0-0.2l-0.4-0.6c0,0,0,0,0-0.1l0.5-0.5
		c0,0,0,0,0,0c0,0,0,0,0,0l0.6,0.4c0.1,0,0.2,0.1,0.2,0c0.2-0.1,0.4-0.2,0.7-0.3c0.1,0,0.1-0.1,0.2-0.2l0.1-0.7c0,0,0,0,0,0h0.7
		c0,0,0,0,0,0l0.1,0.7c0,0.1,0.1,0.2,0.2,0.2c0.2,0.1,0.5,0.2,0.7,0.3c0.1,0,0.2,0,0.2,0l0.6-0.4c0,0,0,0,0,0c0,0,0,0,0,0l0.5,0.5
		c0,0,0,0,0,0.1l-0.4,0.6c0,0.1-0.1,0.2,0,0.2c0.1,0.2,0.2,0.4,0.3,0.7c0,0.1,0.1,0.1,0.2,0.2l0.7,0.1c0,0,0,0,0,0L253.8,597.2
		L253.8,597.2z M253.8,597.2"/>
	<path class="st18" d="M250.3,595.2c-0.9,0-1.7,0.7-1.7,1.7c0,0.9,0.7,1.7,1.7,1.7c0.9,0,1.7-0.7,1.7-1.7
		C252,595.9,251.2,595.2,250.3,595.2L250.3,595.2z M250.3,598c-0.7,0-1.2-0.6-1.2-1.2s0.6-1.2,1.2-1.2c0.7,0,1.2,0.6,1.2,1.2
		S251,598,250.3,598L250.3,598z M250.3,598"/>
</g>
</svg>
