<?xml version="1.0" encoding="utf-8"?>
<!-- Generator: Adobe Illustrator 22.1.0, SVG Export Plug-In . SVG Version: 6.00 Build 0)  -->
<svg version="1.1" id="图层_1" xmlns="http://www.w3.org/2000/svg" xmlns:xlink="http://www.w3.org/1999/xlink" x="0px" y="0px"
	 viewBox="0 0 1175 654.2" style="enable-background:new 0 0 1175 654.2;" xml:space="preserve">
<style type="text/css">
	.st0{fill:none;}
	.st1{fill:#FFFFFF;}
	.st2{font-family:'Fira Sans', sans-serif; font-weight:500;}
	.st3{font-size:11px;}
	.st4{font-size:10px;}
	.st5{font-family:'Fira Sans', sans-serif; font-weight:300;}
	.st6{font-size:8px;}
	.st7{font-size:9px;}
	.st8{fill:none;stroke:#95C11F;stroke-width:0.75;stroke-miterlimit:10;}
	.st9{fill:#95C11F;}
	.st10{fill:none;stroke:#95C11F;stroke-width:0.75;stroke-miterlimit:10;stroke-dasharray:2;}
	.st11{fill:none;stroke:#666666;stroke-width:0.75;stroke-miterlimit:10;}
	.st12{font-family:'FiraSans-Bold';}
	.st13{stroke:#95C11F;stroke-width:0.75;stroke-miterlimit:10;}
	.st14{fill:#808080;}
	.st15{font-family:'Fira Sans', sans-serif; font-weight:400; font-style: italic;}
</style>
<rect x="497" y="26.1" class="st0" width="131" height="9.7"/>
<text transform="matrix(1 0 0 1 535.679 34.3853)" class="st1 st2 st3">2 QUERIES:</text>
<g>
	<rect x="503.3" y="150.2" class="st0" width="120.4" height="45.8"/>
	<text transform="matrix(1 0 0 1 505.6082 157.7123)"><tspan x="0" y="0" class="st1 st2 st4">scraping </tspan><tspan x="47.7" y="0" class="st1 st5 st4">among the first </tspan><tspan x="7.3" y="12" class="st1 st5 st4">50 results and keeping </tspan><tspan x="7.8" y="24" class="st1 st5 st4">only relevant websites </tspan><tspan x="7.3" y="36" class="st1 st5 st4">according to the query</tspan></text>
</g>
<g>
	<rect x="502.7" y="256.2" class="st0" width="120.4" height="22.9"/>
	<text transform="matrix(1 0 0 1 504.5824 263.5922)"><tspan x="0" y="0" class="st1 st5 st4">In each website of the fair </tspan><tspan x="15.4" y="12" class="st1 st5 st4">trade cooperatives:</tspan></text>
</g>
<rect x="15" y="31" class="st0" width="107.6" height="16.6"/>
<text transform="matrix(1 0 0 1 56.5165 37.0518)"><tspan x="0" y="0" class="st1 st2 st6">Query</tspan><tspan x="-8.2" y="9.6" class="st1 st2 st6">definition</tspan></text>
<g>
	<rect x="15" y="156.7" class="st0" width="103.6" height="21.3"/>
	<text transform="matrix(1 0 0 1 57.3884 162.7019)"><tspan x="0" y="0" class="st1 st2 st6">DATA</tspan><tspan x="-15.7" y="9.6" class="st1 st2 st6">EXPLORATION</tspan></text>
</g>
<g>
	<rect x="14" y="433.8" class="st0" width="103.6" height="22.3"/>
	<text transform="matrix(1 0 0 1 56.3882 439.8561)"><tspan x="0" y="0" class="st1 st2 st6">DATA</tspan><tspan x="-11.3" y="9.6" class="st1 st2 st6">GATHERING</tspan></text>
</g>
<text transform="matrix(1 0 0 1 636.0002 32.9991)"><tspan x="0" y="0" class="st1 st2 st7">Fair + trade + </tspan><tspan x="0" y="10.8" class="st1 st2 st7">cooperative + avocado</tspan><tspan x="0" y="21.6" class="st1 st5 st7">lang: ENG</tspan><tspan x="0" y="32.4" class="st1 st5 st7">localization: USA</tspan><tspan x="0" y="47.4" class="st1 st2 st7">Cooperativa + de +</tspan><tspan x="0" y="58.2" class="st1 st2 st7">comercio + justo + aguacate</tspan><tspan x="0" y="69" class="st1 st5 st7">lang: ES</tspan><tspan x="0" y="79.8" class="st1 st5 st7">localization: MEX</tspan></text>
<g>
	<g>
		<line class="st8" x1="562.5" y1="59.7" x2="562.5" y2="144.5"/>
		<g>
			<polygon class="st9" points="559.4,142 560,141.5 562.5,144.2 565,141.5 565.6,142 562.5,145.3 			"/>
		</g>
	</g>
</g>
<line class="st10" x1="596" y1="31" x2="630.5" y2="31"/>
<g>
	<rect x="402" y="602.3" class="st0" width="144.7" height="28"/>
	<text transform="matrix(1 0 0 1 436.9722 609.8566)" class="st1 st2 st4">VISUALIZATION 1</text>
</g>
<rect x="29.5" y="26.8" class="st11" width="78.6" height="24.2"/>
<rect x="27.5" y="151.5" class="st11" width="78.6" height="26.8"/>
<rect x="26.5" y="430" class="st11" width="78.6" height="24.5"/>
<line class="st11" x1="66.8" y1="51" x2="66.8" y2="151"/>
<line class="st11" x1="66.8" y1="178.3" x2="66.8" y2="430"/>
<g>
	<rect x="704.3" y="430.6" class="st0" width="104.4" height="44.3"/>
	<text transform="matrix(1 0 0 1 723.5736 438.2072)"><tspan x="0" y="0" class="st1 st2 st4">categorizing</tspan><tspan x="65.8" y="0" class="st1 st12 st4"> </tspan><tspan x="-8.4" y="12" class="st1 st5 st4">the nature of each </tspan><tspan x="6.6" y="24" class="st1 st5 st4">cooperative</tspan></text>
</g>
<g>
	<rect x="591.3" y="430.6" class="st0" width="96.2" height="59.9"/>
	<text transform="matrix(1 0 0 1 592.2899 438.1671)"><tspan x="0" y="0" class="st1 st2 st4">identifying</tspan><tspan x="56.3" y="0" class="st1 st5 st4"> internal </tspan><tspan x="5.6" y="12" class="st1 st5 st4">mentions between </tspan><tspan x="25.2" y="24" class="st1 st5 st4">the found </tspan><tspan x="0.8" y="36" class="st1 st5 st4">cooperatives in each </tspan><tspan x="17.4" y="48" class="st1 st5 st4">cooperatives’ </tspan></text>
</g>
<g>
	<rect x="359" y="430.6" class="st0" width="109" height="72.4"/>
	<text transform="matrix(1 0 0 1 362.9052 438.1671)"><tspan x="0" y="0" class="st1 st2 st4">identifying</tspan><tspan x="56.3" y="0" class="st1 st5 st4"> mentions </tspan><tspan x="15.2" y="12" class="st1 st5 st4">about countries </tspan><tspan x="-0.1" y="24" class="st1 st5 st4">indicated as “places of </tspan><tspan x="-3.4" y="36" class="st1 st5 st4">production” and “places </tspan><tspan x="10.2" y="48" class="st1 st5 st4">of import” in each </tspan><tspan x="2.4" y="60" class="st1 st5 st4">cooperatives’ website</tspan></text>
</g>
<line class="st8" x1="561.4" y1="285.7" x2="561.4" y2="394.5"/>
<line class="st8" x1="932.3" y1="394.5" x2="190.6" y2="394.5"/>
<g>
	<rect x="142.8" y="430.6" class="st0" width="96.2" height="59.9"/>
	<text transform="matrix(1 0 0 1 143.7665 438.1671)"><tspan x="0" y="0" class="st1 st2 st4">identifying</tspan><tspan x="56.3" y="0" class="st1 st5 st4"> internal </tspan><tspan x="11.7" y="12" class="st1 st5 st4">mentions about </tspan><tspan x="2.9" y="24" class="st1 st5 st4">certification labels i </tspan><tspan x="5.4" y="36" class="st1 st5 st4">each cooperatives’ </tspan><tspan x="30" y="48" class="st1 st5 st4">website</tspan></text>
</g>
<g>
	<g>
		<line class="st8" x1="932.4" y1="394.1" x2="932.4" y2="424.2"/>
		<g>
			<polygon class="st9" points="929.4,421.7 929.9,421.2 932.4,423.9 934.9,421.2 935.5,421.7 932.4,425 			"/>
		</g>
	</g>
</g>
<g>
	<rect x="878.9" y="430" class="st0" width="107.1" height="45.5"/>
	<text transform="matrix(1 0 0 1 890.8042 437.5332)"><tspan x="0" y="0" class="st1 st2 st4">categorizing</tspan><tspan x="65.8" y="0" class="st1 st5 st4"> the </tspan><tspan x="7.6" y="12" class="st1 st5 st4">actions of each </tspan><tspan x="15.3" y="24" class="st1 st5 st4">cooperative</tspan></text>
</g>
<text transform="matrix(1 0 0 1 1005.9602 437.2046)"><tspan x="0" y="0" class="st1 st5 st6">Promote sustainable cultivation</tspan><tspan x="0" y="9.6" class="st1 st5 st6">Promote food safety</tspan><tspan x="0" y="19.2" class="st1 st5 st6">Help producers in improving their lives</tspan><tspan x="0" y="28.8" class="st1 st5 st6">Enhance and support local production</tspan><tspan x="0" y="38.4" class="st1 st5 st6">Promote a fair-trade society</tspan><tspan x="0" y="48" class="st1 st5 st6">Promote certification labels</tspan><tspan x="0" y="57.6" class="st1 st5 st6">Raise awareness of consumers and retailers</tspan><tspan x="0" y="67.2" class="st1 st5 st6">Inspire local actions to solve local problems</tspan><tspan x="0" y="76.8" class="st1 st5 st6">Ehnance the image of Mexico</tspan></text>
<line class="st10" x1="977.4" y1="434" x2="1002" y2="434"/>
<g>
	<g>
		<line class="st8" x1="932.5" y1="468.7" x2="932.5" y2="540.7"/>
		<g>
			<polygon class="st9" points="929.4,538.2 930,537.7 932.5,540.4 935,537.7 935.6,538.2 932.5,541.5 			"/>
		</g>
	</g>
</g>
<g>
	<rect x="861.6" y="547" class="st0" width="144.7" height="28"/>
	<text transform="matrix(1 0 0 1 896.3169 554.5507)" class="st1 st2 st4">VISUALIZATION 2</text>
</g>
<circle class="st13" cx="932.5" cy="469.2" r="1.4"/>
<text transform="matrix(1 0 0 1 821.512 436.4096)"><tspan x="0" y="0" class="st1 st5 st6">Producer</tspan><tspan x="0" y="9.6" class="st1 st5 st6">Seller</tspan><tspan x="0" y="19.2" class="st1 st5 st6">Leaker</tspan><tspan x="0" y="28.8" class="st1 st5 st6">Account</tspan></text>
<line class="st10" x1="793" y1="435.2" x2="817.7" y2="435.2"/>
<g>
	<g>
		<line class="st8" x1="413.5" y1="394" x2="413.5" y2="423.8"/>
		<g>
			<polygon class="st9" points="410.4,421.3 411,420.8 413.5,423.5 416,420.8 416.6,421.3 413.5,424.6 			"/>
		</g>
	</g>
</g>
<g>
	<g>
		<line class="st8" x1="191" y1="394" x2="191" y2="423.8"/>
		<g>
			<polygon class="st9" points="187.9,421.3 188.5,420.8 191,423.5 193.5,420.8 194,421.3 191,424.6 			"/>
		</g>
	</g>
</g>
<line class="st8" x1="191" y1="490.5" x2="191" y2="582.9"/>
<circle class="st13" cx="561.5" cy="284.2" r="1.4"/>
<line class="st8" x1="756.5" y1="582.5" x2="190.6" y2="582.5"/>
<g>
	<g>
		<line class="st8" x1="756.5" y1="394" x2="756.5" y2="423.8"/>
		<g>
			<polygon class="st9" points="753.4,421.3 754,420.8 756.5,423.5 759,420.8 759.6,421.3 756.5,424.6 			"/>
		</g>
	</g>
</g>
<line class="st8" x1="413.5" y1="503" x2="413.5" y2="582.9"/>
<line class="st8" x1="636" y1="490.5" x2="636" y2="582.5"/>
<line class="st8" x1="756.5" y1="469.2" x2="756.5" y2="582.9"/>
<g>
	<g>
		<line class="st8" x1="474.3" y1="582.5" x2="474.3" y2="596.9"/>
		<g>
			<polygon class="st9" points="471.2,594.4 471.8,593.9 474.3,596.6 476.8,593.9 477.3,594.4 474.3,597.7 			"/>
		</g>
	</g>
</g>
<rect x="517.3" y="39.2" class="st0" width="96.1" height="19"/>
<text transform="matrix(1 0 0 1 521.2305 45.1886)"><tspan x="0" y="0" class="st14 st15 st6">Google advanced search</tspan><tspan x="15.8" y="9.6" class="st14 st15 st6">Incognito mode</tspan></text>
<g>
	<path class="st14" d="M518.9,42l-0.5-0.1c-0.1-0.2-0.1-0.4-0.2-0.5l0.3-0.4c0.1-0.2,0.1-0.4-0.1-0.6l-0.5-0.5
		c-0.1-0.1-0.2-0.1-0.3-0.1c-0.1,0-0.2,0-0.3,0.1l-0.4,0.3c-0.2-0.1-0.4-0.2-0.5-0.2l-0.1-0.5c0-0.2-0.2-0.4-0.5-0.4h-0.7
		c-0.2,0-0.4,0.2-0.5,0.4l-0.1,0.5c-0.2,0.1-0.4,0.1-0.5,0.2l-0.4-0.3c-0.1-0.1-0.2-0.1-0.3-0.1c-0.1,0-0.2,0-0.3,0.1l-0.5,0.5
		c-0.2,0.2-0.2,0.4-0.1,0.6l0.3,0.5c-0.1,0.2-0.2,0.3-0.2,0.5L512,42c-0.2,0-0.4,0.2-0.4,0.5v0.7c0,0.2,0.2,0.4,0.4,0.5l0.5,0.1
		c0.1,0.2,0.1,0.4,0.2,0.5l-0.3,0.4c-0.1,0.2-0.1,0.4,0.1,0.6l0.5,0.5c0.1,0.1,0.2,0.1,0.3,0.1c0.1,0,0.2,0,0.3-0.1l0.5-0.3
		c0.2,0.1,0.3,0.2,0.5,0.2l0.1,0.5c0,0.2,0.2,0.4,0.5,0.4h0.7c0.2,0,0.4-0.2,0.5-0.4l0.1-0.5c0.2-0.1,0.4-0.1,0.5-0.2l0.4,0.3
		c0.1,0.1,0.2,0.1,0.3,0.1c0.1,0,0.2,0,0.3-0.1l0.5-0.5c0.2-0.2,0.2-0.4,0.1-0.6l-0.3-0.4c0.1-0.2,0.2-0.3,0.2-0.5l0.5-0.1
		c0.2,0,0.4-0.2,0.4-0.5v-0.7C519.3,42.2,519.1,42,518.9,42L518.9,42z M518.9,43.1C518.9,43.1,518.9,43.1,518.9,43.1l-0.7,0.2
		c-0.1,0-0.2,0.1-0.2,0.2c-0.1,0.2-0.2,0.5-0.3,0.7c0,0.1,0,0.2,0,0.2l0.4,0.6c0,0,0,0,0,0.1l-0.5,0.5c0,0,0,0,0,0c0,0,0,0,0,0
		L517,45c-0.1,0-0.2-0.1-0.2,0c-0.2,0.1-0.4,0.2-0.7,0.3c-0.1,0-0.1,0.1-0.2,0.2l-0.1,0.7c0,0,0,0,0,0h-0.7c0,0,0,0,0,0l-0.1-0.7
		c0-0.1-0.1-0.2-0.2-0.2c-0.2-0.1-0.5-0.2-0.7-0.3c0,0-0.1,0-0.1,0c0,0-0.1,0-0.1,0l-0.6,0.4c0,0,0,0,0,0c0,0,0,0,0,0l-0.5-0.5
		c0,0,0,0,0-0.1l0.4-0.6c0-0.1,0.1-0.2,0-0.2c-0.1-0.2-0.2-0.4-0.3-0.7c0-0.1-0.1-0.1-0.2-0.2l-0.7-0.1c0,0,0,0,0,0v-0.7
		c0,0,0,0,0,0l0.7-0.1c0.1,0,0.2-0.1,0.2-0.2c0.1-0.2,0.2-0.5,0.3-0.7c0-0.1,0-0.2,0-0.2l-0.4-0.6c0,0,0,0,0-0.1l0.5-0.5
		c0,0,0,0,0,0c0,0,0,0,0,0l0.6,0.4c0.1,0,0.2,0.1,0.2,0c0.2-0.1,0.4-0.2,0.7-0.3c0.1,0,0.1-0.1,0.2-0.2l0.1-0.7c0,0,0,0,0,0h0.7
		c0,0,0,0,0,0l0.1,0.7c0,0.1,0.1,0.2,0.2,0.2c0.2,0.1,0.5,0.2,0.7,0.3c0.1,0,0.2,0,0.2,0l0.6-0.4c0,0,0,0,0,0c0,0,0,0,0,0l0.5,0.5
		c0,0,0,0,0,0.1l-0.4,0.6c0,0.1-0.1,0.2,0,0.2c0.1,0.2,0.2,0.4,0.3,0.7c0,0.1,0.1,0.1,0.2,0.2l0.7,0.1c0,0,0,0,0,0L518.9,43.1
		L518.9,43.1z M518.9,43.1"/>
	<path class="st14" d="M515.4,41.1c-0.9,0-1.7,0.7-1.7,1.7c0,0.9,0.7,1.7,1.7,1.7s1.7-0.7,1.7-1.7C517.1,41.8,516.4,41.1,515.4,41.1
		L515.4,41.1z M515.4,44c-0.7,0-1.2-0.6-1.2-1.2c0-0.7,0.6-1.2,1.2-1.2c0.7,0,1.2,0.6,1.2,1.2C516.7,43.4,516.1,44,515.4,44
		L515.4,44z M515.4,44"/>
</g>
<circle class="st13" cx="562.5" cy="61.2" r="1.4"/>
<rect x="514.4" y="201.3" class="st0" width="96.1" height="17.3"/>
<text transform="matrix(1 0 0 1 525.3728 207.2995)"><tspan x="0" y="0" class="st14 st15 st6">Instant Data Scraper</tspan><tspan x="28" y="9.6" class="st14 st15 st6">Excel</tspan></text>
<rect x="426.2" y="613.6" class="st0" width="96.1" height="7.4"/>
<text transform="matrix(1 0 0 1 456.1807 619.5817)" class="st14 st15 st6">Illustrator</text>
<g>
	<path class="st14" d="M453.4,616.5l-0.5-0.1c-0.1-0.2-0.1-0.4-0.2-0.5l0.3-0.4c0.1-0.2,0.1-0.4-0.1-0.6l-0.5-0.5
		c-0.1-0.1-0.2-0.1-0.3-0.1c-0.1,0-0.2,0-0.3,0.1l-0.4,0.3c-0.2-0.1-0.4-0.2-0.5-0.2l-0.1-0.5c0-0.2-0.2-0.4-0.5-0.4h-0.7
		c-0.2,0-0.4,0.2-0.5,0.4l-0.1,0.5c-0.2,0.1-0.4,0.1-0.5,0.2l-0.4-0.3c-0.1-0.1-0.2-0.1-0.3-0.1c-0.1,0-0.2,0-0.3,0.1l-0.5,0.5
		c-0.2,0.2-0.2,0.4-0.1,0.6l0.3,0.5c-0.1,0.2-0.2,0.3-0.2,0.5l-0.5,0.1c-0.2,0-0.4,0.2-0.4,0.5v0.7c0,0.2,0.2,0.4,0.4,0.5l0.5,0.1
		c0.1,0.2,0.1,0.4,0.2,0.5l-0.3,0.4c-0.1,0.2-0.1,0.4,0.1,0.6l0.5,0.5c0.1,0.1,0.2,0.1,0.3,0.1c0.1,0,0.2,0,0.3-0.1l0.5-0.3
		c0.2,0.1,0.3,0.2,0.5,0.2l0.1,0.5c0,0.2,0.2,0.4,0.5,0.4h0.7c0.2,0,0.4-0.2,0.5-0.4l0.1-0.5c0.2-0.1,0.4-0.1,0.5-0.2l0.4,0.3
		c0.1,0.1,0.2,0.1,0.3,0.1c0.1,0,0.2,0,0.3-0.1l0.5-0.5c0.2-0.2,0.2-0.4,0.1-0.6l-0.3-0.4c0.1-0.2,0.2-0.3,0.2-0.5l0.5-0.1
		c0.2,0,0.4-0.2,0.4-0.5V617C453.8,616.7,453.6,616.5,453.4,616.5L453.4,616.5z M453.3,617.6C453.3,617.7,453.3,617.7,453.3,617.6
		l-0.7,0.2c-0.1,0-0.2,0.1-0.2,0.2c-0.1,0.2-0.2,0.5-0.3,0.7c0,0.1,0,0.2,0,0.2l0.4,0.6c0,0,0,0,0,0.1l-0.5,0.5c0,0,0,0,0,0
		c0,0,0,0,0,0l-0.6-0.4c-0.1,0-0.2-0.1-0.2,0c-0.2,0.1-0.4,0.2-0.7,0.3c-0.1,0-0.1,0.1-0.2,0.2l-0.1,0.7c0,0,0,0,0,0h-0.7
		c0,0,0,0,0,0l-0.1-0.7c0-0.1-0.1-0.2-0.2-0.2c-0.2-0.1-0.5-0.2-0.7-0.3c0,0-0.1,0-0.1,0c0,0-0.1,0-0.1,0l-0.6,0.4c0,0,0,0,0,0
		c0,0,0,0,0,0l-0.5-0.5c0,0,0,0,0-0.1l0.4-0.6c0-0.1,0.1-0.2,0-0.2c-0.1-0.2-0.2-0.4-0.3-0.7c0-0.1-0.1-0.1-0.2-0.2l-0.7-0.1
		c0,0,0,0,0,0V617c0,0,0,0,0,0l0.7-0.1c0.1,0,0.2-0.1,0.2-0.2c0.1-0.2,0.2-0.5,0.3-0.7c0-0.1,0-0.2,0-0.2l-0.4-0.6c0,0,0,0,0-0.1
		l0.5-0.5c0,0,0,0,0,0c0,0,0,0,0,0l0.6,0.4c0.1,0,0.2,0.1,0.2,0c0.2-0.1,0.4-0.2,0.7-0.3c0.1,0,0.1-0.1,0.2-0.2l0.1-0.7c0,0,0,0,0,0
		h0.7c0,0,0,0,0,0l0.1,0.7c0,0.1,0.1,0.2,0.2,0.2c0.2,0.1,0.5,0.2,0.7,0.3c0.1,0,0.2,0,0.2,0l0.6-0.4c0,0,0,0,0,0c0,0,0,0,0,0
		l0.5,0.5c0,0,0,0,0,0.1l-0.4,0.6c0,0.1-0.1,0.2,0,0.2c0.1,0.2,0.2,0.4,0.3,0.7c0,0.1,0.1,0.1,0.2,0.2l0.7,0.1c0,0,0,0,0,0
		L453.3,617.6L453.3,617.6z M453.3,617.6"/>
	<path class="st14" d="M449.9,615.6c-0.9,0-1.7,0.7-1.7,1.7c0,0.9,0.7,1.7,1.7,1.7c0.9,0,1.7-0.7,1.7-1.7
		C451.6,616.4,450.8,615.6,449.9,615.6L449.9,615.6z M449.9,618.5c-0.7,0-1.2-0.6-1.2-1.2s0.6-1.2,1.2-1.2c0.7,0,1.2,0.6,1.2,1.2
		S450.6,618.5,449.9,618.5L449.9,618.5z M449.9,618.5"/>
</g>
<rect x="884.4" y="558.9" class="st0" width="96.1" height="16.1"/>
<text transform="matrix(1 0 0 1 913 564.8794)"><tspan x="0" y="0" class="st14 st15 st6">Raw Graph</tspan><tspan x="1.4" y="9.6" class="st14 st15 st6">Illustrator</tspan></text>
<g>
	<path class="st14" d="M911.6,561.8l-0.5-0.1c-0.1-0.2-0.1-0.4-0.2-0.5l0.3-0.4c0.1-0.2,0.1-0.4-0.1-0.6l-0.5-0.5
		c-0.1-0.1-0.2-0.1-0.3-0.1c-0.1,0-0.2,0-0.3,0.1l-0.4,0.3c-0.2-0.1-0.4-0.2-0.5-0.2l-0.1-0.5c0-0.2-0.2-0.4-0.5-0.4h-0.7
		c-0.2,0-0.4,0.2-0.5,0.4l-0.1,0.5c-0.2,0.1-0.4,0.1-0.5,0.2l-0.4-0.3c-0.1-0.1-0.2-0.1-0.3-0.1c-0.1,0-0.2,0-0.3,0.1l-0.5,0.5
		c-0.2,0.2-0.2,0.4-0.1,0.6l0.3,0.5c-0.1,0.2-0.2,0.3-0.2,0.5l-0.5,0.1c-0.2,0-0.4,0.2-0.4,0.5v0.7c0,0.2,0.2,0.4,0.4,0.5l0.5,0.1
		c0.1,0.2,0.1,0.4,0.2,0.5l-0.3,0.4c-0.1,0.2-0.1,0.4,0.1,0.6l0.5,0.5c0.1,0.1,0.2,0.1,0.3,0.1c0.1,0,0.2,0,0.3-0.1l0.5-0.3
		c0.2,0.1,0.3,0.2,0.5,0.2l0.1,0.5c0,0.2,0.2,0.4,0.5,0.4h0.7c0.2,0,0.4-0.2,0.5-0.4l0.1-0.5c0.2-0.1,0.4-0.1,0.5-0.2l0.4,0.3
		c0.1,0.1,0.2,0.1,0.3,0.1c0.1,0,0.2,0,0.3-0.1l0.5-0.5c0.2-0.2,0.2-0.4,0.1-0.6l-0.3-0.4c0.1-0.2,0.2-0.3,0.2-0.5l0.5-0.1
		c0.2,0,0.4-0.2,0.4-0.5v-0.7C912,562,911.8,561.8,911.6,561.8L911.6,561.8z M911.5,562.9C911.5,563,911.5,563,911.5,562.9l-0.7,0.2
		c-0.1,0-0.2,0.1-0.2,0.2c-0.1,0.2-0.2,0.5-0.3,0.7c0,0.1,0,0.2,0,0.2l0.4,0.6c0,0,0,0,0,0.1l-0.5,0.5c0,0,0,0,0,0c0,0,0,0,0,0
		l-0.6-0.4c-0.1,0-0.2-0.1-0.2,0c-0.2,0.1-0.4,0.2-0.7,0.3c-0.1,0-0.1,0.1-0.2,0.2l-0.1,0.7c0,0,0,0,0,0h-0.7c0,0,0,0,0,0l-0.1-0.7
		c0-0.1-0.1-0.2-0.2-0.2c-0.2-0.1-0.5-0.2-0.7-0.3c0,0-0.1,0-0.1,0c0,0-0.1,0-0.1,0l-0.6,0.4c0,0,0,0,0,0c0,0,0,0,0,0l-0.5-0.5
		c0,0,0,0,0-0.1l0.4-0.6c0-0.1,0.1-0.2,0-0.2c-0.1-0.2-0.2-0.4-0.3-0.7c0-0.1-0.1-0.1-0.2-0.2l-0.7-0.1c0,0,0,0,0,0v-0.7
		c0,0,0,0,0,0l0.7-0.1c0.1,0,0.2-0.1,0.2-0.2c0.1-0.2,0.2-0.5,0.3-0.7c0-0.1,0-0.2,0-0.2l-0.4-0.6c0,0,0,0,0-0.1l0.5-0.5
		c0,0,0,0,0,0c0,0,0,0,0,0l0.6,0.4c0.1,0,0.2,0.1,0.2,0c0.2-0.1,0.4-0.2,0.7-0.3c0.1,0,0.1-0.1,0.2-0.2l0.1-0.7c0,0,0,0,0,0h0.7
		c0,0,0,0,0,0l0.1,0.7c0,0.1,0.1,0.2,0.2,0.2c0.2,0.1,0.5,0.2,0.7,0.3c0.1,0,0.2,0,0.2,0l0.6-0.4c0,0,0,0,0,0c0,0,0,0,0,0l0.5,0.5
		c0,0,0,0,0,0.1l-0.4,0.6c0,0.1-0.1,0.2,0,0.2c0.1,0.2,0.2,0.4,0.3,0.7c0,0.1,0.1,0.1,0.2,0.2l0.7,0.1c0,0,0,0,0,0L911.5,562.9
		L911.5,562.9z M911.5,562.9"/>
	<path class="st14" d="M908.1,560.9c-0.9,0-1.7,0.7-1.7,1.7s0.7,1.7,1.7,1.7c0.9,0,1.7-0.7,1.7-1.7S909,560.9,908.1,560.9
		L908.1,560.9z M908.1,563.8c-0.7,0-1.2-0.6-1.2-1.2c0-0.7,0.6-1.2,1.2-1.2c0.7,0,1.2,0.6,1.2,1.2
		C909.3,563.3,908.8,563.8,908.1,563.8L908.1,563.8z M908.1,563.8"/>
</g>
<text transform="matrix(1 0 0 1 262.322 437.0119)"><tspan x="0" y="0" class="st1 st5 st6">Fairtrade International</tspan><tspan x="0" y="9.6" class="st1 st5 st6">certification</tspan><tspan x="0" y="23.6" class="st1 st5 st6">Other certifications</tspan></text>
<line class="st10" x1="241.8" y1="435.8" x2="259.3" y2="435.8"/>
<text transform="matrix(1 0 0 1 496.5134 437.0122)"><tspan x="0" y="0" class="st1 st5 st6">Places of production:</tspan><tspan x="0" y="9.6" class="st1 st5 st6">Perù</tspan><tspan x="0" y="19.2" class="st1 st5 st6">Chile</tspan><tspan x="0" y="28.8" class="st1 st5 st6">Colombia</tspan><tspan x="0" y="38.4" class="st1 st5 st6">Mexico</tspan><tspan x="0" y="48" class="st1 st5 st6">Dominican Rep.</tspan><tspan x="0" y="57.6" class="st1 st5 st6">California</tspan><tspan x="0" y="70.6" class="st1 st5 st6">Places of import:</tspan><tspan x="0" y="80.2" class="st1 st5 st6">Mexico</tspan><tspan x="0" y="89.8" class="st1 st5 st6">Asia</tspan><tspan x="0" y="99.4" class="st1 st5 st6">Canada</tspan><tspan x="0" y="109" class="st1 st5 st6">Europe</tspan><tspan x="0" y="118.6" class="st1 st5 st6">USA</tspan></text>
<line class="st10" x1="468" y1="435.8" x2="492.7" y2="435.8"/>
<g>
	<g>
		<line class="st8" x1="562.5" y1="221.7" x2="562.5" y2="250.2"/>
		<g>
			<polygon class="st9" points="559.4,247.7 560,247.2 562.5,249.9 565,247.2 565.6,247.7 562.5,251 			"/>
		</g>
	</g>
</g>
<circle class="st13" cx="562.5" cy="223.2" r="1.4"/>
<text transform="matrix(1 0 0 1 654.8154 262.8712)"><tspan x="0" y="0" class="st1 st5 st6">Fairtrasa</tspan><tspan x="0" y="9.6" class="st1 st5 st6">Pragor</tspan><tspan x="0" y="19.2" class="st1 st5 st6">La Cupanda</tspan><tspan x="0" y="28.8" class="st1 st5 st6">Del Rey Avocado Company</tspan><tspan x="0" y="38.4" class="st1 st5 st6">West Pack Avocado Growers</tspan><tspan x="0" y="48" class="st1 st5 st6">Equal Exchange Coop</tspan><tspan x="0" y="57.6" class="st1 st5 st6">RSES</tspan><tspan x="0" y="67.2" class="st1 st5 st6">Conecto</tspan><tspan x="0" y="76.8" class="st1 st5 st6">La coperacha</tspan><tspan x="0" y="86.4" class="st1 st5 st6">Central Coop</tspan><tspan x="0" y="96" class="st1 st5 st6">Valley Natural Foods</tspan></text>
<text transform="matrix(1 0 0 1 760.8811 262.8713)"><tspan x="0" y="0" class="st1 st5 st6">Bio Planeta</tspan><tspan x="0" y="9.6" class="st1 st5 st6">Peace Geecks</tspan><tspan x="0" y="19.2" class="st1 st5 st6">Fair World Project</tspan><tspan x="0" y="28.8" class="st1 st5 st6">Middlebury Natural Food</tspan><tspan x="0" y="38.4" class="st1 st5 st6">Harvest Market</tspan><tspan x="0" y="48" class="st1 st5 st6">Weaver Street Market</tspan><tspan x="0" y="57.6" class="st1 st5 st6">Abundance Coop</tspan><tspan x="0" y="67.2" class="st1 st5 st6">Untours Foundation</tspan><tspan x="0" y="76.8" class="st1 st5 st6">Viroqua Food Coop</tspan><tspan x="0" y="86.4" class="st1 st5 st6">Prometo</tspan></text>
<line class="st10" x1="626.3" y1="259.7" x2="650.9" y2="259.7"/>
<g>
	<g>
		<line class="st8" x1="639.4" y1="394" x2="639.4" y2="423.8"/>
		<g>
			<polygon class="st9" points="636.3,421.3 636.9,420.8 639.4,423.5 641.9,420.8 642.5,421.3 639.4,424.6 			"/>
		</g>
	</g>
</g>
<circle class="st13" cx="756.5" cy="469.2" r="1.4"/>
<circle class="st13" cx="635.9" cy="490.8" r="1.3"/>
<circle class="st13" cx="413.4" cy="503.3" r="1.2"/>
<circle class="st13" cx="190.9" cy="490.9" r="1"/>
<g>
	<path class="st14" d="M522.8,204.4l-0.5-0.1c-0.1-0.2-0.1-0.4-0.2-0.5l0.3-0.4c0.1-0.2,0.1-0.4-0.1-0.6l-0.5-0.5
		c-0.1-0.1-0.2-0.1-0.3-0.1c-0.1,0-0.2,0-0.3,0.1l-0.4,0.3c-0.2-0.1-0.4-0.2-0.5-0.2l-0.1-0.5c0-0.2-0.2-0.4-0.5-0.4h-0.7
		c-0.2,0-0.4,0.2-0.5,0.4l-0.1,0.5c-0.2,0.1-0.4,0.1-0.5,0.2l-0.4-0.3c-0.1-0.1-0.2-0.1-0.3-0.1c-0.1,0-0.2,0-0.3,0.1l-0.5,0.5
		c-0.2,0.2-0.2,0.4-0.1,0.6l0.3,0.5c-0.1,0.2-0.2,0.3-0.2,0.5l-0.5,0.1c-0.2,0-0.4,0.2-0.4,0.5v0.7c0,0.2,0.2,0.4,0.4,0.5l0.5,0.1
		c0.1,0.2,0.1,0.4,0.2,0.5l-0.3,0.4c-0.1,0.2-0.1,0.4,0.1,0.6l0.5,0.5c0.1,0.1,0.2,0.1,0.3,0.1c0.1,0,0.2,0,0.3-0.1l0.5-0.3
		c0.2,0.1,0.3,0.2,0.5,0.2l0.1,0.5c0,0.2,0.2,0.4,0.5,0.4h0.7c0.2,0,0.4-0.2,0.5-0.4l0.1-0.5c0.2-0.1,0.4-0.1,0.5-0.2l0.4,0.3
		c0.1,0.1,0.2,0.1,0.3,0.1c0.1,0,0.2,0,0.3-0.1l0.5-0.5c0.2-0.2,0.2-0.4,0.1-0.6l-0.3-0.4c0.1-0.2,0.2-0.3,0.2-0.5l0.5-0.1
		c0.2,0,0.4-0.2,0.4-0.5v-0.7C523.2,204.6,523,204.4,522.8,204.4L522.8,204.4z M522.7,205.5C522.7,205.5,522.7,205.6,522.7,205.5
		l-0.7,0.2c-0.1,0-0.2,0.1-0.2,0.2c-0.1,0.2-0.2,0.5-0.3,0.7c0,0.1,0,0.2,0,0.2l0.4,0.6c0,0,0,0,0,0.1l-0.5,0.5c0,0,0,0,0,0
		c0,0,0,0,0,0l-0.6-0.4c-0.1,0-0.2-0.1-0.2,0c-0.2,0.1-0.4,0.2-0.7,0.3c-0.1,0-0.1,0.1-0.2,0.2l-0.1,0.7c0,0,0,0,0,0H519
		c0,0,0,0,0,0l-0.1-0.7c0-0.1-0.1-0.2-0.2-0.2c-0.2-0.1-0.5-0.2-0.7-0.3c0,0-0.1,0-0.1,0c0,0-0.1,0-0.1,0l-0.6,0.4c0,0,0,0,0,0
		c0,0,0,0,0,0l-0.5-0.5c0,0,0,0,0-0.1l0.4-0.6c0-0.1,0.1-0.2,0-0.2c-0.1-0.2-0.2-0.4-0.3-0.7c0-0.1-0.1-0.1-0.2-0.2l-0.7-0.1
		c0,0,0,0,0,0v-0.7c0,0,0,0,0,0l0.7-0.1c0.1,0,0.2-0.1,0.2-0.2c0.1-0.2,0.2-0.5,0.3-0.7c0-0.1,0-0.2,0-0.2l-0.4-0.6c0,0,0,0,0-0.1
		l0.5-0.5c0,0,0,0,0,0c0,0,0,0,0,0l0.6,0.4c0.1,0,0.2,0.1,0.2,0c0.2-0.1,0.4-0.2,0.7-0.3c0.1,0,0.1-0.1,0.2-0.2l0.1-0.7c0,0,0,0,0,0
		h0.7c0,0,0,0,0,0l0.1,0.7c0,0.1,0.1,0.2,0.2,0.2c0.2,0.1,0.5,0.2,0.7,0.3c0.1,0,0.2,0,0.2,0l0.6-0.4c0,0,0,0,0,0c0,0,0,0,0,0
		l0.5,0.5c0,0,0,0,0,0.1l-0.4,0.6c0,0.1-0.1,0.2,0,0.2c0.1,0.2,0.2,0.4,0.3,0.7c0,0.1,0.1,0.1,0.2,0.2l0.7,0.1c0,0,0,0,0,0
		L522.7,205.5L522.7,205.5z M522.7,205.5"/>
	<path class="st14" d="M519.3,203.5c-0.9,0-1.7,0.7-1.7,1.7c0,0.9,0.7,1.7,1.7,1.7c0.9,0,1.7-0.7,1.7-1.7
		C521,204.3,520.2,203.5,519.3,203.5L519.3,203.5z M519.3,206.4c-0.7,0-1.2-0.6-1.2-1.2s0.6-1.2,1.2-1.2s1.2,0.6,1.2,1.2
		S520,206.4,519.3,206.4L519.3,206.4z M519.3,206.4"/>
</g>
</svg>
