<svg xmlns="http://www.w3.org/2000/svg" viewBox="0 0 804 801"><defs><style>.cls-1{font-size:12px;}.cls-1,.cls-16,.cls-23,.cls-29,.cls-3,.cls-52,.cls-64{fill:#fff;}.cls-1,.cls-23,.cls-29,.cls-3,.cls-52{font-family:FiraSans-Medium, Fira Sans;font-weight:500;}.cls-2{letter-spacing:-0.01em;}.cls-3{font-size:11px;}.cls-16,.cls-4,.cls-5,.cls-59,.cls-60,.cls-64{font-family:FiraSans-Light, Fira Sans;font-weight:300;}.cls-5{letter-spacing:-0.02em;}.cls-6{letter-spacing:-0.03em;}.cls-7{letter-spacing:-0.01em;}.cls-8{letter-spacing:-0.01em;}.cls-9{letter-spacing:-0.03em;}.cls-10{letter-spacing:-0.01em;}.cls-11{letter-spacing:0em;}.cls-12{letter-spacing:-0.01em;}.cls-13{letter-spacing:-0.01em;}.cls-14{letter-spacing:-0.02em;}.cls-15{letter-spacing:-0.01em;}.cls-16,.cls-52{font-size:11.02px;}.cls-17,.cls-60{letter-spacing:-0.01em;}.cls-18,.cls-59{letter-spacing:-0.01em;}.cls-19{letter-spacing:-0.02em;}.cls-20{letter-spacing:-0.03em;}.cls-21{letter-spacing:-0.02em;}.cls-22{letter-spacing:0em;}.cls-23{font-size:9px;}.cls-24{letter-spacing:-0.03em;}.cls-25{letter-spacing:-0.01em;}.cls-26{letter-spacing:-0.05em;}.cls-27{letter-spacing:-0.04em;}.cls-28{letter-spacing:-0.05em;}.cls-29{font-size:9.92px;}.cls-30{letter-spacing:-0.06em;}.cls-31{letter-spacing:-0.04em;}.cls-32{letter-spacing:0em;}.cls-33{letter-spacing:-0.02em;}.cls-34{letter-spacing:-0.03em;}.cls-35{letter-spacing:-0.01em;}.cls-36{letter-spacing:0em;}.cls-37{letter-spacing:-0.01em;}.cls-38{letter-spacing:-0.01em;}.cls-39{letter-spacing:-0.01em;}.cls-40{letter-spacing:-0.01em;}.cls-41{letter-spacing:-0.01em;}.cls-42{letter-spacing:-0.02em;}.cls-43{letter-spacing:-0.01em;}.cls-44{letter-spacing:-0.02em;}.cls-45{letter-spacing:-0.02em;}.cls-46{letter-spacing:-0.03em;}.cls-47{letter-spacing:-0.02em;}.cls-48,.cls-50,.cls-51{fill:none;}.cls-48,.cls-50,.cls-87{stroke:#95c11f;}.cls-48,.cls-50,.cls-51,.cls-87{stroke-miterlimit:10;stroke-width:0.75px;}.cls-49{fill:#95c11f;}.cls-50{stroke-dasharray:2;}.cls-51{stroke:#666;}.cls-53{letter-spacing:-0.05em;}.cls-54{letter-spacing:-0.01em;}.cls-55{font-family:FiraSans-Bold, Fira Sans;font-weight:700;}.cls-56{letter-spacing:-0.03em;}.cls-57{letter-spacing:-0.01em;}.cls-58{letter-spacing:0em;}.cls-61{letter-spacing:-0.02em;}.cls-62{letter-spacing:-0.01em;}.cls-63{letter-spacing:-0.01em;}.cls-64,.cls-91{font-size:8.82px;}.cls-65{letter-spacing:-0.02em;}.cls-66{letter-spacing:-0.03em;}.cls-67{letter-spacing:-0.01em;}.cls-68{letter-spacing:-0.01em;}.cls-69{letter-spacing:0em;}.cls-70{letter-spacing:0em;}.cls-71{letter-spacing:-0.01em;}.cls-72{letter-spacing:-0.01em;}.cls-73{letter-spacing:-0.01em;}.cls-74{letter-spacing:-0.02em;}.cls-75{letter-spacing:-0.02em;}.cls-76{letter-spacing:0em;}.cls-77{letter-spacing:0em;}.cls-78{letter-spacing:0em;}.cls-79{letter-spacing:-0.02em;}.cls-80{letter-spacing:-0.04em;}.cls-81{letter-spacing:-0.03em;}.cls-82{letter-spacing:-0.01em;}.cls-83{letter-spacing:-0.02em;}.cls-84{letter-spacing:-0.01em;}.cls-85{letter-spacing:-0.01em;}.cls-86{letter-spacing:-0.01em;}.cls-88{letter-spacing:-0.03em;}.cls-89{letter-spacing:-0.01em;}.cls-90{letter-spacing:-0.02em;}.cls-91,.cls-94{fill:gray;}.cls-91{font-family:FiraSans-Italic, Fira Sans;font-style:italic;}.cls-92{letter-spacing:0em;}.cls-93{letter-spacing:-0.02em;}.cls-95{letter-spacing:-0.01em;}.cls-96{letter-spacing:-0.06em;}.cls-97{letter-spacing:-0.04em;}.cls-98{letter-spacing:-0.01em;}.cls-99{letter-spacing:-0.01em;}.cls-100{letter-spacing:0em;}.cls-101{letter-spacing:-0.03em;}.cls-102{letter-spacing:-0.01em;}.cls-103{letter-spacing:-0.02em;}.cls-104{letter-spacing:0em;}.cls-105{letter-spacing:-0.06em;}.cls-106{letter-spacing:-0.04em;}.cls-107{letter-spacing:-0.03em;}.cls-108{letter-spacing:-0.01em;}.cls-109{letter-spacing:-0.01em;}.cls-110{letter-spacing:-0.02em;}</style></defs><title>p9</title><g id="图层_2" data-name="图层 2"><rect width="804" height="804"/></g><g id="图层_1" data-name="图层 1"><text class="cls-1" transform="translate(391.63 15.82)">2 QUERI<tspan class="cls-2" x="42.47" y="0">E</tspan><tspan x="48.71" y="0">S:</tspan></text><text class="cls-3" transform="translate(358.35 151.83)">SCRAPING <tspan class="cls-4" x="52.44" y="0">among the fi</tspan><tspan class="cls-5" x="114.36" y="0">r</tspan><tspan class="cls-4" x="118.26" y="0">st </tspan><tspan class="cls-4"><tspan x="8.11" y="13.2">50 </tspan><tspan class="cls-6" x="22.59" y="13.2">r</tspan><tspan x="26.36" y="13.2">esults and </tspan><tspan class="cls-7" x="80.6" y="13.2">k</tspan><tspan x="85.89" y="13.2">eeping </tspan><tspan x="8.87" y="26.4">on</tspan><tspan class="cls-8" x="21.58" y="26.4">l</tspan><tspan x="24.59" y="26.4">y </tspan><tspan class="cls-9" x="32.81" y="26.4">r</tspan><tspan x="36.58" y="26.4">e</tspan><tspan class="cls-10" x="42.48" y="26.4">l</tspan><tspan class="cls-11" x="45.54" y="26.4">e</tspan><tspan class="cls-12" x="51.42" y="26.4">v</tspan><tspan x="56.45" y="26.4">ant websi</tspan><tspan class="cls-13" x="103.62" y="26.4">t</tspan><tspan x="107.24" y="26.4">es </tspan><tspan x="8.37" y="39.6">a</tspan><tspan class="cls-14" x="14.26" y="39.6">cc</tspan><tspan x="24.21" y="39.6">o</tspan><tspan class="cls-6" x="30.49" y="39.6">r</tspan><tspan x="34.26" y="39.6">ding </tspan><tspan class="cls-15" x="58.69" y="39.6">t</tspan><tspan x="62.31" y="39.6">o the query</tspan></tspan></text><text class="cls-16" transform="translate(357.23 268.55)">In <tspan class="cls-17" x="12.62" y="0">e</tspan><tspan x="18.42" y="0">ach websi</tspan><tspan class="cls-18" x="67.1" y="0">t</tspan><tspan x="70.73" y="0">e of the </tspan><tspan class="cls-19" x="111.8" y="0">f</tspan><tspan x="115.11" y="0">air </tspan><tspan x="17.28" y="13.23">t</tspan><tspan class="cls-20" x="21.04" y="13.23">r</tspan><tspan x="24.77" y="13.23">ade </tspan><tspan class="cls-21" x="46.11" y="13.23">c</tspan><tspan x="51.09" y="13.23">oope</tspan><tspan class="cls-20" x="75.99" y="13.23">r</tspan><tspan x="79.71" y="13.23">ati</tspan><tspan class="cls-22" x="92.36" y="13.23">v</tspan><tspan x="97.52" y="13.23">es:</tspan></text><text class="cls-23" transform="translate(30.06 11.99)">QUE<tspan class="cls-24" x="16.89" y="0">R</tspan><tspan x="22.13" y="0">Y</tspan><tspan x="-9.36" y="10.8">DEFINITION</tspan></text><text class="cls-23" transform="translate(33.66 150.48)"><tspan class="cls-25">D</tspan><tspan class="cls-26" x="5.74" y="0">AT</tspan><tspan x="14.86" y="0">A</tspan><tspan x="-17.7" y="10.8">EXP</tspan><tspan class="cls-27" x="-2.56" y="10.8">L</tspan><tspan x="1.61" y="10.8">OR</tspan><tspan class="cls-28" x="13.33" y="10.8">A</tspan><tspan x="18.13" y="10.8">TION</tspan></text><text class="cls-23" transform="translate(33.66 455.97)"><tspan class="cls-25">D</tspan><tspan class="cls-26" x="5.74" y="0">AT</tspan><tspan x="14.86" y="0">A</tspan><tspan x="-12.98" y="10.8">G</tspan><tspan class="cls-28" x="-7.24" y="10.8">A</tspan><tspan x="-2.44" y="10.8">THERING</tspan></text><text class="cls-29" transform="translate(501.84 14.38)"><tspan class="cls-30">F</tspan><tspan x="4.26" y="0">air + t</tspan><tspan class="cls-31" x="30.18" y="0">r</tspan><tspan class="cls-32" x="33.74" y="0">ade + </tspan><tspan class="cls-33" x="0" y="11.9">c</tspan><tspan class="cls-32" x="4.54" y="11.9">oope</tspan><tspan class="cls-34" x="27.49" y="11.9">r</tspan><tspan x="31.05" y="11.9">ati</tspan><tspan class="cls-35" x="42.98" y="11.9">v</tspan><tspan class="cls-36" x="47.92" y="11.9">e + </tspan><tspan class="cls-37" x="63.45" y="11.9">a</tspan><tspan class="cls-38" x="68.72" y="11.9">v</tspan><tspan class="cls-32" x="73.66" y="11.9">o</tspan><tspan class="cls-39" x="79.45" y="11.9">c</tspan><tspan x="84.09" y="11.9">ado</tspan><tspan class="cls-4"><tspan class="cls-40" x="0" y="23.81">l</tspan><tspan x="2.77" y="23.81">ang: ENG</tspan><tspan class="cls-40" x="0" y="35.71">l</tspan><tspan x="2.77" y="35.71">o</tspan><tspan class="cls-41" x="8.43" y="35.71">ca</tspan><tspan x="18.2" y="35.71">li</tspan><tspan class="cls-42" x="23.7" y="35.71">z</tspan><tspan x="27.74" y="35.71">ation: </tspan><tspan class="cls-43" x="55.39" y="35.71">U</tspan><tspan class="cls-40" x="61.77" y="35.71">S</tspan><tspan x="67.07" y="35.71">A</tspan></tspan><tspan class="cls-44" x="0" y="52.25">C</tspan><tspan x="5.44" y="52.25">oope</tspan><tspan class="cls-34" x="28.38" y="52.25">r</tspan><tspan x="31.94" y="52.25">ati</tspan><tspan class="cls-45" x="43.88" y="52.25">v</tspan><tspan x="48.69" y="52.25">a + de +</tspan><tspan class="cls-33" x="0" y="64.15">c</tspan><tspan class="cls-32" x="4.54" y="64.15">ome</tspan><tspan class="cls-46" x="24.21" y="64.15">r</tspan><tspan x="27.83" y="64.15">cio + jus</tspan><tspan class="cls-47" x="64.47" y="64.15">t</tspan><tspan class="cls-32" x="68.02" y="64.15">o + </tspan><tspan class="cls-41" x="83.89" y="64.15">ag</tspan><tspan x="94.44" y="64.15">ua</tspan><tspan class="cls-39" x="105.58" y="64.15">c</tspan><tspan x="110.22" y="64.15">a</tspan><tspan class="cls-47" x="115.64" y="64.15">t</tspan><tspan x="119.19" y="64.15">e</tspan><tspan class="cls-4"><tspan class="cls-40" x="0" y="76.05">l</tspan><tspan x="2.77" y="76.05">ang: </tspan><tspan class="cls-41" x="23.69" y="76.05">E</tspan><tspan x="28.67" y="76.05">S</tspan><tspan class="cls-40" x="0" y="87.96">l</tspan><tspan x="2.77" y="87.96">o</tspan><tspan class="cls-41" x="8.43" y="87.96">ca</tspan><tspan x="18.2" y="87.96">li</tspan><tspan class="cls-42" x="23.7" y="87.96">z</tspan><tspan x="27.74" y="87.96">ation: MEX</tspan></tspan></text><line class="cls-48" x1="420.82" y1="43.77" x2="420.82" y2="137.39"/><polygon class="cls-49" points="417.75 134.9 418.3 134.39 420.82 137.1 423.33 134.39 423.88 134.9 420.82 138.2 417.75 134.9"/><line class="cls-50" x1="457.76" y1="12.13" x2="495.78" y2="12.13"/><rect class="cls-51" x="0.41" y="0.53" width="86.59" height="26.73"/><rect class="cls-51" x="0.41" y="138.03" width="86.59" height="29.49"/><rect class="cls-51" x="0.41" y="444.95" width="86.59" height="27"/><line class="cls-51" x1="43.71" y1="27.26" x2="43.71" y2="137.44"/><line class="cls-51" x1="43.71" y1="167.52" x2="43.71" y2="444.95"/><text class="cls-52" transform="translate(511.72 462.01)">C<tspan class="cls-53" x="6.26" y="0">A</tspan><tspan x="12.14" y="0">T</tspan><tspan class="cls-54" x="17.98" y="0">E</tspan><tspan x="23.68" y="0">GORIZING</tspan><tspan class="cls-55" x="71.86" y="0"> </tspan><tspan class="cls-4"><tspan x="-9.39" y="13.23">the natu</tspan><tspan class="cls-56" x="32.27" y="13.23">r</tspan><tspan x="36.05" y="13.23">e of </tspan><tspan class="cls-57" x="57.94" y="13.23">e</tspan><tspan x="63.74" y="13.23">ach </tspan><tspan class="cls-21" x="7.27" y="26.45">c</tspan><tspan x="12.26" y="26.45">oope</tspan><tspan class="cls-20" x="37.16" y="26.45">r</tspan><tspan x="40.88" y="26.45">ati</tspan><tspan class="cls-22" x="53.52" y="26.45">v</tspan><tspan x="58.68" y="26.45">e</tspan></tspan></text><text class="cls-52" transform="translate(367.81 460.97)">IDENTI<tspan class="cls-58" x="32.71" y="0">F</tspan><tspan x="38.05" y="0">YING</tspan><tspan class="cls-4" x="62.05" y="0" xml:space="preserve"> in</tspan><tspan class="cls-59" x="74.54" y="0">t</tspan><tspan class="cls-4" x="78.17" y="0">ern</tspan><tspan class="cls-60" x="94.63" y="0">a</tspan><tspan class="cls-4" x="100.42" y="0">l </tspan><tspan class="cls-4"><tspan x="6.07" y="13.23">mentions between </tspan><tspan x="27.69" y="26.45">the </tspan><tspan class="cls-17" x="46.87" y="26.45">f</tspan><tspan x="50.3" y="26.45">ound </tspan><tspan class="cls-21" x="1.12" y="39.68">c</tspan><tspan x="6.11" y="39.68">oope</tspan><tspan class="cls-20" x="31.01" y="39.68">r</tspan><tspan x="34.73" y="39.68">ati</tspan><tspan class="cls-22" x="47.37" y="39.68">v</tspan><tspan x="52.53" y="39.68">es in </tspan><tspan class="cls-17" x="79.12" y="39.68">e</tspan><tspan x="84.92" y="39.68">ach </tspan><tspan class="cls-21" x="-0.92" y="52.91">c</tspan><tspan x="4.07" y="52.91">oope</tspan><tspan class="cls-20" x="28.97" y="52.91">r</tspan><tspan x="32.69" y="52.91">ati</tspan><tspan class="cls-22" x="45.33" y="52.91">v</tspan><tspan x="50.49" y="52.91">e</tspan><tspan class="cls-61" x="56.4" y="52.91">s</tspan><tspan x="61.35" y="52.91">’ websi</tspan><tspan class="cls-18" x="94.94" y="52.91">t</tspan><tspan x="98.56" y="52.91">e</tspan></tspan></text><text class="cls-52" transform="translate(231.86 460.97)">IDENTI<tspan class="cls-58" x="32.71" y="0">F</tspan><tspan x="38.05" y="0">YING</tspan><tspan class="cls-4" x="62.05" y="0" xml:space="preserve"> mentions </tspan><tspan class="cls-4"><tspan x="16.84" y="13.23">about </tspan><tspan class="cls-21" x="48.66" y="13.23">c</tspan><tspan x="53.64" y="13.23">ountries </tspan><tspan x="0.11" y="26.45">indi</tspan><tspan class="cls-17" x="18.95" y="26.45">c</tspan><tspan x="24" y="26.45">a</tspan><tspan class="cls-18" x="29.91" y="26.45">t</tspan><tspan x="33.54" y="26.45">ed </tspan><tspan class="cls-17" x="48.97" y="26.45">a</tspan><tspan x="54.77" y="26.45">s “p</tspan><tspan class="cls-58" x="73.45" y="26.45">l</tspan><tspan x="76.53" y="26.45">a</tspan><tspan class="cls-21" x="82.44" y="26.45">c</tspan><tspan x="87.42" y="26.45">es of </tspan><tspan x="-3.44" y="39.68">p</tspan><tspan class="cls-56" x="2.96" y="39.68">r</tspan><tspan x="6.74" y="39.68">oductio</tspan><tspan class="cls-57" x="44.06" y="39.68">n</tspan><tspan x="50.39" y="39.68">” and “p</tspan><tspan class="cls-62" x="89.91" y="39.68">l</tspan><tspan x="92.99" y="39.68">a</tspan><tspan class="cls-21" x="98.9" y="39.68">c</tspan><tspan x="103.88" y="39.68">es </tspan><tspan x="11.4" y="52.91">of impor</tspan><tspan class="cls-63" x="53.5" y="52.91">t</tspan><tspan x="57.09" y="52.91">” in </tspan><tspan class="cls-17" x="76.74" y="52.91">e</tspan><tspan x="82.54" y="52.91">ach </tspan><tspan class="cls-21" x="3.04" y="66.13">c</tspan><tspan x="8.02" y="66.13">oope</tspan><tspan class="cls-20" x="32.92" y="66.13">r</tspan><tspan x="36.64" y="66.13">ati</tspan><tspan class="cls-22" x="49.29" y="66.13">v</tspan><tspan x="54.45" y="66.13">e</tspan><tspan class="cls-61" x="60.35" y="66.13">s</tspan><tspan x="65.3" y="66.13">’ websi</tspan><tspan class="cls-18" x="98.89" y="66.13">t</tspan><tspan x="102.51" y="66.13">e</tspan></tspan></text><line class="cls-48" x1="419.67" y1="292.87" x2="419.67" y2="412.79"/><line class="cls-48" x1="673" y1="411.71" x2="154.94" y2="411.71"/><text class="cls-52" transform="translate(103.45 460.97)">IDENTI<tspan class="cls-58" x="32.71" y="0">F</tspan><tspan x="38.05" y="0">YING</tspan><tspan class="cls-4" x="62.05" y="0" xml:space="preserve"> in</tspan><tspan class="cls-59" x="74.54" y="0">t</tspan><tspan class="cls-4" x="78.17" y="0">ern</tspan><tspan class="cls-60" x="94.62" y="0">a</tspan><tspan class="cls-4" x="100.42" y="0">l </tspan><tspan class="cls-4"><tspan x="12.7" y="13.23">mentions about </tspan><tspan class="cls-21" x="3.26" y="26.45">c</tspan><tspan x="8.24" y="26.45">ertifi</tspan><tspan class="cls-17" x="31.2" y="26.45">c</tspan><tspan x="36.26" y="26.45">ation </tspan><tspan class="cls-58" x="64.7" y="26.45">l</tspan><tspan x="67.78" y="26.45">abels i </tspan><tspan class="cls-17" x="6.24" y="39.68">e</tspan><tspan x="12.04" y="39.68">ach </tspan><tspan class="cls-21" x="32.63" y="39.68">c</tspan><tspan x="37.61" y="39.68">oope</tspan><tspan class="cls-20" x="62.51" y="39.68">r</tspan><tspan x="66.24" y="39.68">ati</tspan><tspan class="cls-22" x="78.88" y="39.68">v</tspan><tspan x="84.04" y="39.68">e</tspan><tspan class="cls-63" x="89.95" y="39.68">s</tspan><tspan x="94.9" y="39.68">’ </tspan><tspan x="32.96" y="52.91">websi</tspan><tspan class="cls-18" x="61.06" y="52.91">t</tspan><tspan x="64.68" y="52.91">e</tspan></tspan></text><line class="cls-48" x1="672.56" y1="412.35" x2="672.56" y2="445.64"/><polygon class="cls-49" points="669.49 443.16 670.04 442.64 672.56 445.35 675.08 442.64 675.63 443.16 672.56 446.45 669.49 443.16"/><text class="cls-52" transform="translate(627.04 461.27)">C<tspan class="cls-53" x="6.26" y="0">A</tspan><tspan x="12.14" y="0">T</tspan><tspan class="cls-54" x="17.98" y="0">E</tspan><tspan x="23.68" y="0">GORIZING</tspan><tspan class="cls-4" x="71.86" y="0" xml:space="preserve"> the </tspan><tspan class="cls-4"><tspan x="8.05" y="13.23">actions of </tspan><tspan class="cls-17" x="59.69" y="13.23">e</tspan><tspan x="65.48" y="13.23">ach </tspan><tspan class="cls-21" x="16.86" y="26.45">c</tspan><tspan x="21.85" y="26.45">oope</tspan><tspan class="cls-20" x="46.75" y="26.45">r</tspan><tspan x="50.47" y="26.45">ati</tspan><tspan class="cls-22" x="63.11" y="26.45">v</tspan><tspan x="68.27" y="26.45">e</tspan></tspan></text><text class="cls-64" transform="translate(630.62 538.9)"><tspan class="cls-65">P</tspan><tspan class="cls-66" x="4.85" y="0">r</tspan><tspan x="7.87" y="0">omo</tspan><tspan class="cls-67" x="25.47" y="0">t</tspan><tspan x="28.37" y="0">e sus</tspan><tspan class="cls-68" x="48.84" y="0">t</tspan><tspan x="51.79" y="0">ainab</tspan><tspan class="cls-69" x="73.9" y="0">l</tspan><tspan class="cls-70" x="76.36" y="0">e </tspan><tspan class="cls-71" x="83.55" y="0">c</tspan><tspan x="87.59" y="0">ulti</tspan><tspan class="cls-72" x="100.59" y="0">v</tspan><tspan class="cls-70" x="104.62" y="0">ation</tspan><tspan class="cls-65" x="0" y="10.58">P</tspan><tspan class="cls-66" x="4.85" y="10.58">r</tspan><tspan x="7.87" y="10.58">omo</tspan><tspan class="cls-67" x="25.47" y="10.58">t</tspan><tspan x="28.37" y="10.58">e </tspan><tspan class="cls-73" x="35.55" y="10.58">f</tspan><tspan x="38.29" y="10.58">ood </tspan><tspan class="cls-73" x="55.98" y="10.58">s</tspan><tspan class="cls-70" x="59.99" y="10.58">a</tspan><tspan class="cls-73" x="64.71" y="10.58">f</tspan><tspan x="67.46" y="10.58">e</tspan><tspan class="cls-69" x="72.18" y="10.58">t</tspan><tspan x="75.14" y="10.58">y</tspan><tspan x="0" y="21.16">Help p</tspan><tspan class="cls-66" x="25.84" y="21.16">r</tspan><tspan x="28.87" y="21.16">odu</tspan><tspan class="cls-74" x="44.17" y="21.16">c</tspan><tspan x="48.15" y="21.16">e</tspan><tspan class="cls-75" x="52.88" y="21.16">r</tspan><tspan x="56.01" y="21.16">s in imp</tspan><tspan class="cls-66" x="87.58" y="21.16">r</tspan><tspan class="cls-76" x="90.6" y="21.16">o</tspan><tspan x="95.62" y="21.16">ving their li</tspan><tspan class="cls-76" x="140.09" y="21.16">v</tspan><tspan x="144.21" y="21.16">es</tspan><tspan class="cls-73" x="0" y="31.74">E</tspan><tspan x="4.43" y="31.74">nhan</tspan><tspan class="cls-74" x="24.6" y="31.74">c</tspan><tspan x="28.59" y="31.74">e and support </tspan><tspan class="cls-77" x="86.5" y="31.74">l</tspan><tspan class="cls-70" x="88.96" y="31.74">o</tspan><tspan class="cls-73" x="94" y="31.74">ca</tspan><tspan class="cls-78" x="102.68" y="31.74">l p</tspan><tspan class="cls-66" x="112.77" y="31.74">r</tspan><tspan x="115.79" y="31.74">oduction</tspan><tspan class="cls-65" x="0" y="42.33">P</tspan><tspan class="cls-66" x="4.85" y="42.33">r</tspan><tspan x="7.87" y="42.33">omo</tspan><tspan class="cls-67" x="25.47" y="42.33">t</tspan><tspan x="28.37" y="42.33">e a </tspan><tspan class="cls-79" x="42.74" y="42.33">f</tspan><tspan x="45.38" y="42.33">ai</tspan><tspan class="cls-80" x="52.49" y="42.33">r</tspan><tspan class="cls-69" x="55.45" y="42.33">-</tspan><tspan x="58.95" y="42.33">t</tspan><tspan class="cls-81" x="61.95" y="42.33">r</tspan><tspan class="cls-70" x="64.93" y="42.33">ade socie</tspan><tspan class="cls-69" x="102.37" y="42.33">t</tspan><tspan x="105.34" y="42.33">y</tspan><tspan class="cls-65" x="0" y="52.91">P</tspan><tspan class="cls-66" x="4.85" y="52.91">r</tspan><tspan x="7.87" y="52.91">omo</tspan><tspan class="cls-67" x="25.47" y="52.91">t</tspan><tspan x="28.37" y="52.91">e </tspan><tspan class="cls-74" x="35.55" y="52.91">c</tspan><tspan x="39.54" y="52.91">ertifi</tspan><tspan class="cls-73" x="57.91" y="52.91">c</tspan><tspan class="cls-70" x="61.95" y="52.91">ation </tspan><tspan class="cls-69" x="84.71" y="52.91">l</tspan><tspan x="87.17" y="52.91">abels</tspan><tspan class="cls-73" x="0" y="63.49">R</tspan><tspan x="5.11" y="63.49">aise </tspan><tspan class="cls-69" x="23.5" y="63.49">a</tspan><tspan class="cls-82" x="28.18" y="63.49">w</tspan><tspan x="34.24" y="63.49">a</tspan><tspan class="cls-66" x="38.97" y="63.49">r</tspan><tspan class="cls-70" x="41.99" y="63.49">ene</tspan><tspan class="cls-72" x="56.59" y="63.49">s</tspan><tspan class="cls-70" x="60.57" y="63.49">s of </tspan><tspan class="cls-74" x="77.45" y="63.49">c</tspan><tspan x="81.43" y="63.49">onsume</tspan><tspan class="cls-75" x="113.06" y="63.49">r</tspan><tspan x="116.19" y="63.49">s and </tspan><tspan class="cls-66" x="140.24" y="63.49">r</tspan><tspan x="143.26" y="63.49">e</tspan><tspan class="cls-68" x="147.99" y="63.49">t</tspan><tspan class="cls-70" x="150.94" y="63.49">ai</tspan><tspan class="cls-77" x="158.05" y="63.49">l</tspan><tspan class="cls-70" x="160.51" y="63.49">e</tspan><tspan class="cls-83" x="165.23" y="63.49">r</tspan><tspan class="cls-70" x="168.37" y="63.49">s</tspan><tspan x="0" y="74.07">Inspi</tspan><tspan class="cls-66" x="19.23" y="74.07">r</tspan><tspan class="cls-70" x="22.26" y="74.07">e </tspan><tspan class="cls-69" x="29.44" y="74.07">l</tspan><tspan x="31.9" y="74.07">o</tspan><tspan class="cls-71" x="36.94" y="74.07">ca</tspan><tspan x="45.62" y="74.07">l actions </tspan><tspan class="cls-84" x="81.57" y="74.07">t</tspan><tspan class="cls-70" x="84.47" y="74.07">o so</tspan><tspan class="cls-73" x="101.09" y="74.07">l</tspan><tspan class="cls-76" x="103.51" y="74.07">v</tspan><tspan x="107.64" y="74.07">e </tspan><tspan class="cls-77" x="114.82" y="74.07">l</tspan><tspan class="cls-70" x="117.28" y="74.07">o</tspan><tspan class="cls-73" x="122.32" y="74.07">ca</tspan><tspan class="cls-78" x="131" y="74.07">l p</tspan><tspan class="cls-66" x="141.09" y="74.07">r</tspan><tspan x="144.12" y="74.07">ob</tspan><tspan class="cls-69" x="154.27" y="74.07">l</tspan><tspan x="156.73" y="74.07">ems</tspan><tspan x="0" y="84.65">Ehnan</tspan><tspan class="cls-74" x="24.69" y="84.65">c</tspan><tspan x="28.67" y="84.65">e the im</tspan><tspan class="cls-73" x="61.11" y="84.65">a</tspan><tspan class="cls-85" x="65.75" y="84.65">g</tspan><tspan x="70.07" y="84.65">e of M</tspan><tspan class="cls-86" x="94.37" y="84.65">e</tspan><tspan class="cls-78" x="99.03" y="84.65">xi</tspan><tspan class="cls-74" x="105.46" y="84.65">c</tspan><tspan x="109.45" y="84.65">o</tspan></text><line class="cls-48" x1="671.61" y1="662" x2="671.61" y2="763.05"/><polygon class="cls-49" points="668.54 760.56 669.09 760.05 671.61 762.76 674.12 760.05 674.67 760.56 671.61 763.86 668.54 760.56"/><circle class="cls-87" cx="543.64" cy="620.22" r="1.56"/><text class="cls-64" transform="translate(531.31 538.03)"><tspan class="cls-65">P</tspan><tspan class="cls-66" x="4.85" y="0">r</tspan><tspan x="7.87" y="0">odu</tspan><tspan class="cls-74" x="23.17" y="0">c</tspan><tspan x="27.16" y="0">er</tspan><tspan x="0" y="10.58">Sel</tspan><tspan class="cls-69" x="11.98" y="10.58">l</tspan><tspan x="14.44" y="10.58">er</tspan><tspan class="cls-88"><tspan x="0" y="21.16">L</tspan><tspan class="cls-73" x="3.99" y="21.16">e</tspan><tspan class="cls-70" x="8.62" y="21.16">a</tspan><tspan class="cls-89" x="13.35" y="21.16">k</tspan><tspan class="cls-70" x="17.59" y="21.16">er</tspan></tspan><tspan x="0" y="31.74">A</tspan><tspan class="cls-90" x="4.98" y="31.74">cc</tspan><tspan x="12.95" y="31.74">ount</tspan></text><line class="cls-48" x1="287.59" y1="412.34" x2="287.59" y2="445.19"/><polygon class="cls-49" points="284.52 442.7 285.07 442.19 287.59 444.9 290.11 442.19 290.66 442.7 287.59 446 284.52 442.7"/><line class="cls-48" x1="155.32" y1="412.34" x2="155.32" y2="445.19"/><polygon class="cls-49" points="152.25 442.7 152.8 442.19 155.32 444.9 157.84 442.19 158.39 442.7 155.32 446 152.25 442.7"/><line class="cls-48" x1="154.32" y1="646.65" x2="154.32" y2="748.52"/><circle class="cls-87" cx="419.72" cy="291.31" r="1.56"/><line class="cls-48" x1="544" y1="747.5" x2="154" y2="747.5"/><line class="cls-48" x1="547.65" y1="413.34" x2="547.65" y2="446.19"/><polygon class="cls-49" points="544.58 443.7 545.13 443.19 547.65 445.9 550.17 443.19 550.72 443.7 547.65 447 544.58 443.7"/><line class="cls-48" x1="283.54" y1="712" x2="283.54" y2="748.52"/><line class="cls-48" x1="420.19" y1="537" x2="420.19" y2="748.01"/><line class="cls-48" x1="543.65" y1="622.22" x2="543.65" y2="747.52"/><line class="cls-48" x1="283.54" y1="748.01" x2="283.54" y2="764.03"/><polygon class="cls-49" points="280.47 761.55 281.02 761.03 283.54 763.74 286.05 761.03 286.6 761.55 283.54 764.84 280.47 761.55"/><text class="cls-91" transform="translate(375.64 27.82)">Goog<tspan class="cls-69" x="20.82" y="0">l</tspan><tspan x="23.31" y="0">e ad</tspan><tspan class="cls-92" x="40.35" y="0">v</tspan><tspan x="44.6" y="0">an</tspan><tspan class="cls-65" x="54.73" y="0">c</tspan><tspan class="cls-69" x="58.72" y="0">e</tspan><tspan x="63.23" y="0">d s</tspan><tspan class="cls-69" x="74.76" y="0">e</tspan><tspan x="79.27" y="0">a</tspan><tspan class="cls-66" x="84.29" y="0">r</tspan><tspan x="87.38" y="0">ch</tspan><tspan x="17.28" y="10.58">In</tspan><tspan class="cls-93" x="24.97" y="10.58">c</tspan><tspan x="28.96" y="10.58">ogni</tspan><tspan class="cls-65" x="46.74" y="10.58">t</tspan><tspan x="49.7" y="10.58">o mode</tspan></text><path class="cls-94" d="M372.77,24.25l-.59-.1a5.89,5.89,0,0,0-.24-.58l.35-.49a.52.52,0,0,0-.06-.67l-.53-.53a.52.52,0,0,0-.37-.16.47.47,0,0,0-.3.1l-.5.35a4,4,0,0,0-.6-.25l-.1-.59a.52.52,0,0,0-.52-.43h-.74a.52.52,0,0,0-.52.43l-.11.61a3.14,3.14,0,0,0-.57.24l-.49-.35a.57.57,0,0,0-.31-.1.52.52,0,0,0-.37.16l-.53.53a.52.52,0,0,0-.06.67l.36.5a3.23,3.23,0,0,0-.24.58l-.59.1a.53.53,0,0,0-.44.52v.75a.53.53,0,0,0,.44.52l.61.1a3.23,3.23,0,0,0,.24.58l-.35.48a.52.52,0,0,0,.06.68l.53.53a.52.52,0,0,0,.37.16.54.54,0,0,0,.3-.1l.5-.36a3,3,0,0,0,.56.23l.1.6a.53.53,0,0,0,.52.44h.75a.53.53,0,0,0,.52-.44l.1-.6a3.23,3.23,0,0,0,.58-.24l.49.36a.56.56,0,0,0,.31.09.51.51,0,0,0,.37-.15l.53-.53a.53.53,0,0,0,0-.68l-.35-.49a3.23,3.23,0,0,0,.24-.58l.6-.1a.53.53,0,0,0,.44-.52v-.75a.53.53,0,0,0-.44-.52Zm0,1.27a.05.05,0,0,1,0,.05l-.74.12a.24.24,0,0,0-.19.18,3.22,3.22,0,0,1-.31.74.23.23,0,0,0,0,.26l.44.62s0,.05,0,.06l-.53.53,0,0h0l-.62-.44a.23.23,0,0,0-.26,0,2.83,2.83,0,0,1-.74.31.25.25,0,0,0-.18.19l-.12.74a.05.05,0,0,1-.05,0h-.75a0,0,0,0,1,0,0l-.13-.74a.21.21,0,0,0-.17-.19,3.12,3.12,0,0,1-.73-.3.27.27,0,0,0-.12,0,.23.23,0,0,0-.14,0l-.62.44h-.06l-.53-.53a0,0,0,0,1,0-.06l.44-.62a.24.24,0,0,0,0-.26,2.53,2.53,0,0,1-.31-.74.26.26,0,0,0-.2-.18l-.75-.12a.07.07,0,0,1,0-.05v-.75a.07.07,0,0,1,0-.05l.74-.12a.25.25,0,0,0,.2-.18,2.5,2.5,0,0,1,.3-.74.24.24,0,0,0,0-.26l-.44-.62a0,0,0,0,1,0-.06l.53-.53a0,0,0,0,1,0,0h0l.61.44a.26.26,0,0,0,.27,0,2.53,2.53,0,0,1,.74-.31.26.26,0,0,0,.18-.2l.12-.75a.07.07,0,0,1,.05,0h.75a0,0,0,0,1,0,0l.13.74a.23.23,0,0,0,.18.2,2.77,2.77,0,0,1,.76.31.24.24,0,0,0,.26,0l.61-.44h.06l.53.53a0,0,0,0,1,0,.06l-.44.62a.23.23,0,0,0,0,.26,2.76,2.76,0,0,1,.31.75.22.22,0,0,0,.19.17l.75.13s0,0,0,0v.75Zm0,0"/><path class="cls-94" d="M369,23.31a1.84,1.84,0,1,0,1.83,1.84A1.84,1.84,0,0,0,369,23.31Zm0,3.19a1.36,1.36,0,1,1,1.35-1.35A1.36,1.36,0,0,1,369,26.5Zm0,0"/><circle class="cls-87" cx="420.82" cy="45.51" r="1.56"/><text class="cls-91" transform="translate(380.21 206.5)">Ins<tspan class="cls-93" x="11.75" y="0">t</tspan><tspan x="14.71" y="0">ant Da</tspan><tspan class="cls-65" x="40.91" y="0">t</tspan><tspan x="43.86" y="0">a Sc</tspan><tspan class="cls-66" x="60.08" y="0">r</tspan><tspan x="63.17" y="0">aper</tspan><tspan x="30.66" y="10.58">E</tspan><tspan class="cls-95" x="35.33" y="10.58">x</tspan><tspan class="cls-65" x="39.46" y="10.58">c</tspan><tspan x="43.45" y="10.58">el</tspan></text><text class="cls-52" transform="translate(242.75 778.21)">VIS<tspan class="cls-17" x="15.63" y="0">U</tspan><tspan x="22.75" y="0">ALIZ</tspan><tspan class="cls-53" x="43.88" y="0">A</tspan><tspan x="49.75" y="0">TION 1</tspan></text><text class="cls-91" transform="translate(263.81 788.93)">Illust<tspan class="cls-66" x="19.93" y="0">r</tspan><tspan x="23.02" y="0">a</tspan><tspan class="cls-93" x="28.04" y="0">t</tspan><tspan x="30.99" y="0">or</tspan></text><path class="cls-94" d="M261.35,784.53l-.59-.1a5,5,0,0,0-.24-.58l.35-.5a.52.52,0,0,0-.06-.67l-.53-.53a.52.52,0,0,0-.37-.16.51.51,0,0,0-.3.1l-.5.35a3.13,3.13,0,0,0-.6-.24l-.1-.59a.52.52,0,0,0-.52-.44h-.74a.52.52,0,0,0-.52.44l-.11.6a2.87,2.87,0,0,0-.57.24l-.49-.35a.57.57,0,0,0-.31-.1.52.52,0,0,0-.37.16l-.53.53a.53.53,0,0,0-.06.68l.36.49a3,3,0,0,0-.24.59l-.59.1a.52.52,0,0,0-.44.51v.75a.53.53,0,0,0,.44.52l.61.1a3,3,0,0,0,.24.58l-.35.49a.51.51,0,0,0,.06.67l.53.53a.52.52,0,0,0,.37.16.54.54,0,0,0,.3-.1l.5-.35a3.88,3.88,0,0,0,.56.23l.1.59a.52.52,0,0,0,.52.44h.75a.52.52,0,0,0,.52-.44l.1-.59a5.89,5.89,0,0,0,.58-.24l.49.35a.57.57,0,0,0,.31.1.52.52,0,0,0,.37-.16l.53-.53a.52.52,0,0,0,.05-.67l-.35-.5a3.23,3.23,0,0,0,.24-.58l.6-.1a.53.53,0,0,0,.44-.52v-.74a.52.52,0,0,0-.44-.52Zm0,1.26s0,.05,0,.05l-.74.12a.26.26,0,0,0-.2.18,2.81,2.81,0,0,1-.3.74.24.24,0,0,0,0,.27l.43.61s0,0,0,.06l-.53.53a0,0,0,0,1,0,0h0l-.62-.44a.24.24,0,0,0-.26,0,2.83,2.83,0,0,1-.74.31.25.25,0,0,0-.18.19l-.12.75a.07.07,0,0,1,0,0h-.75a0,0,0,0,1,0,0l-.13-.75a.23.23,0,0,0-.18-.19,3.23,3.23,0,0,1-.72-.3l-.12,0a.23.23,0,0,0-.14,0l-.62.45h-.06l-.53-.53a0,0,0,0,1,0-.06l.44-.61a.26.26,0,0,0,0-.27,2.53,2.53,0,0,1-.31-.74.24.24,0,0,0-.2-.17l-.75-.13a.07.07,0,0,1,0-.05v-.75a0,0,0,0,1,0,0l.74-.13a.24.24,0,0,0,.2-.17,2.46,2.46,0,0,1,.3-.75.24.24,0,0,0,0-.26l-.44-.62s0-.05,0-.06l.53-.53,0,0h0l.61.44a.24.24,0,0,0,.27,0,2.83,2.83,0,0,1,.74-.31.24.24,0,0,0,.17-.19l.13-.76a.05.05,0,0,1,0,0h.75s0,0,0,0l.13.75a.22.22,0,0,0,.18.19,3.12,3.12,0,0,1,.76.31.23.23,0,0,0,.26,0l.61-.44h0a0,0,0,0,1,0,0l.53.53s0,0,0,.06l-.44.61a.23.23,0,0,0,0,.26,3,3,0,0,1,.31.75.22.22,0,0,0,.19.17l.74.13s0,0,0,0v.74Zm0,0"/><path class="cls-94" d="M257.54,783.58a1.84,1.84,0,1,0,1.83,1.84,1.84,1.84,0,0,0-1.83-1.84Zm0,3.19a1.36,1.36,0,1,1,1.35-1.35,1.35,1.35,0,0,1-1.35,1.35Zm0,0"/><text class="cls-52" transform="translate(632.1 778.21)">VIS<tspan class="cls-17" x="15.63" y="0">U</tspan><tspan x="22.75" y="0">ALIZ</tspan><tspan class="cls-53" x="43.88" y="0">A</tspan><tspan x="49.75" y="0">TION 2</tspan></text><text class="cls-91" transform="translate(649.17 789.59)">RA<tspan class="cls-73" x="10.28" y="0">W</tspan><tspan x="17.42" y="0">g</tspan><tspan class="cls-66" x="22.54" y="0">r</tspan><tspan x="25.63" y="0">aphs</tspan><tspan x="2.75" y="10.58">Illust</tspan><tspan class="cls-66" x="22.67" y="10.58">r</tspan><tspan x="25.77" y="10.58">a</tspan><tspan class="cls-93" x="30.79" y="10.58">t</tspan><tspan x="33.74" y="10.58">or</tspan></text><path class="cls-94" d="M646.37,786.19l-.6-.1a3.23,3.23,0,0,0-.24-.58l.35-.49a.53.53,0,0,0,0-.68l-.53-.53a.52.52,0,0,0-.38-.15.47.47,0,0,0-.3.1l-.49.35a3.46,3.46,0,0,0-.6-.25l-.1-.59a.53.53,0,0,0-.52-.44h-.75a.53.53,0,0,0-.52.44l-.1.6a4.23,4.23,0,0,0-.58.25l-.49-.35a.47.47,0,0,0-.3-.1.5.5,0,0,0-.37.15l-.54.53a.53.53,0,0,0,0,.68l.35.5a4.12,4.12,0,0,0-.23.58l-.59.1a.52.52,0,0,0-.44.52v.75a.52.52,0,0,0,.44.51l.6.11a3.61,3.61,0,0,0,.24.57l-.35.49a.54.54,0,0,0,.06.68l.53.53a.51.51,0,0,0,.37.15.5.5,0,0,0,.31-.1l.5-.35a3.13,3.13,0,0,0,.56.23l.1.6a.52.52,0,0,0,.51.44h.75a.53.53,0,0,0,.52-.44l.1-.6a2.72,2.72,0,0,0,.58-.24l.5.35a.45.45,0,0,0,.3.1.51.51,0,0,0,.37-.15l.53-.53a.53.53,0,0,0,.06-.68l-.35-.49a4.17,4.17,0,0,0,.24-.58l.59-.1a.53.53,0,0,0,.44-.52v-.75a.51.51,0,0,0-.43-.52Zm0,1.27a0,0,0,0,1,0,0l-.75.13a.22.22,0,0,0-.19.17,2.76,2.76,0,0,1-.31.75.24.24,0,0,0,0,.26l.44.62a0,0,0,0,1,0,.06L645,790h-.07l-.61-.44a.27.27,0,0,0-.26,0,2.71,2.71,0,0,1-.75.31.24.24,0,0,0-.17.19l-.13.75a0,0,0,0,1-.05,0h-.74a0,0,0,0,1,0,0l-.12-.75a.27.27,0,0,0-.18-.19,2.56,2.56,0,0,1-.73-.3l-.12,0a.24.24,0,0,0-.14.05l-.62.44h0a0,0,0,0,1,0,0l-.53-.53s0,0,0-.06l.43-.61a.23.23,0,0,0,0-.26,2.83,2.83,0,0,1-.31-.74.25.25,0,0,0-.19-.18l-.75-.13a0,0,0,0,1,0,0v-.75s0,0,0-.05l.74-.12a.25.25,0,0,0,.19-.18,3,3,0,0,1,.31-.75.25.25,0,0,0,0-.26l-.44-.62a0,0,0,0,1,0-.06l.53-.53h.06l.61.43a.23.23,0,0,0,.26,0,3.22,3.22,0,0,1,.74-.31.25.25,0,0,0,.18-.19l.13-.75a0,0,0,0,1,0,0h.75s0,0,.05,0l.12.74a.25.25,0,0,0,.18.19,3,3,0,0,1,.76.32.27.27,0,0,0,.26,0l.62-.45H645l.53.53a.06.06,0,0,1,0,.06l-.44.62a.24.24,0,0,0,0,.26,2.83,2.83,0,0,1,.31.74.25.25,0,0,0,.19.18l.75.12a.07.07,0,0,1,0,.05v.75Zm0,0"/><path class="cls-94" d="M642.55,785.25a1.84,1.84,0,1,0,1.84,1.83,1.83,1.83,0,0,0-1.84-1.83Zm0,3.19a1.36,1.36,0,1,1,1.36-1.36,1.35,1.35,0,0,1-1.36,1.36Zm0,0"/><text class="cls-64" transform="translate(114.96 573.69)"><tspan class="cls-96">F</tspan><tspan x="3.71" y="0">airt</tspan><tspan class="cls-97" x="17.12" y="0">r</tspan><tspan x="20.09" y="0">ade In</tspan><tspan class="cls-67" x="44.8" y="0">t</tspan><tspan x="47.7" y="0">ernation</tspan><tspan class="cls-73" x="81.17" y="0">a</tspan><tspan x="85.8" y="0">l</tspan><tspan class="cls-74" x="0" y="10.58">c</tspan><tspan x="3.99" y="10.58">ertifi</tspan><tspan class="cls-71" x="22.35" y="10.58">c</tspan><tspan x="26.4" y="10.58">ation</tspan><tspan x="0" y="26.01">Other </tspan><tspan class="cls-74" x="24.72" y="26.01">c</tspan><tspan x="28.71" y="26.01">ertifi</tspan><tspan class="cls-71" x="47.08" y="26.01">c</tspan><tspan x="51.12" y="26.01">ations</tspan></text><line class="cls-50" x1="154.01" y1="549.02" x2="154.01" y2="529.71"/><line class="cls-50" x1="548.01" y1="519.02" x2="548.01" y2="499.71"/><line class="cls-50" x1="670.01" y1="519.02" x2="670.01" y2="499.71"/><line class="cls-50" x1="287.01" y1="556.02" x2="287.01" y2="536.71"/><text class="cls-64" transform="translate(246.09 573.69)"><tspan class="cls-71">P</tspan><tspan class="cls-77" x="4.94" y="0">l</tspan><tspan class="cls-70" x="7.4" y="0">a</tspan><tspan class="cls-90" x="12.12" y="0">c</tspan><tspan class="cls-70" x="16.11" y="0">es of p</tspan><tspan class="cls-66" x="42.84" y="0">r</tspan><tspan x="45.86" y="0">oduction:</tspan><tspan class="cls-66" x="0" y="10.58">P</tspan><tspan x="4.76" y="10.58">erù</tspan><tspan class="cls-73" x="0" y="21.16">C</tspan><tspan x="4.76" y="21.16">hi</tspan><tspan class="cls-69" x="12.29" y="21.16">l</tspan><tspan x="14.75" y="21.16">e</tspan><tspan class="cls-93"><tspan x="0" y="31.74">C</tspan><tspan class="cls-70" x="4.67" y="31.74">o</tspan><tspan class="cls-77" x="9.71" y="31.74">l</tspan><tspan class="cls-70" x="12.17" y="31.74">ombia</tspan></tspan><tspan x="0" y="42.33">M</tspan><tspan class="cls-86" x="6.79" y="42.33">e</tspan><tspan class="cls-78" x="11.45" y="42.33">xi</tspan><tspan class="cls-90" x="17.88" y="42.33">c</tspan><tspan class="cls-70" x="21.87" y="42.33">o</tspan><tspan x="0" y="52.91">Domini</tspan><tspan class="cls-73" x="28.04" y="52.91">c</tspan><tspan class="cls-70" x="32.09" y="52.91">an </tspan><tspan class="cls-98" x="44.42" y="52.91">R</tspan><tspan class="cls-70" x="49.49" y="52.91">e</tspan><tspan class="cls-73" x="54.22" y="52.91">p</tspan><tspan x="59.25" y="52.91">.</tspan><tspan class="cls-73"><tspan x="0" y="63.49">Ca</tspan><tspan class="cls-78" x="9.4" y="63.49">li</tspan><tspan class="cls-99" x="14.28" y="63.49">f</tspan><tspan class="cls-70" x="17.03" y="63.49">ornia</tspan></tspan><tspan class="cls-71" x="0" y="77.82">P</tspan><tspan class="cls-77" x="4.94" y="77.82">l</tspan><tspan class="cls-70" x="7.4" y="77.82">a</tspan><tspan class="cls-90" x="12.12" y="77.82">c</tspan><tspan class="cls-70" x="16.11" y="77.82">es of impor</tspan><tspan class="cls-100" x="61.06" y="77.82">t</tspan><tspan x="64.09" y="77.82">:</tspan><tspan x="0" y="88.4">M</tspan><tspan class="cls-86" x="6.79" y="88.4">e</tspan><tspan class="cls-78" x="11.45" y="88.4">xi</tspan><tspan class="cls-90" x="17.88" y="88.4">c</tspan><tspan class="cls-70" x="21.87" y="88.4">o</tspan><tspan x="0" y="98.98">Asia</tspan><tspan class="cls-73" x="0" y="109.56">C</tspan><tspan x="4.76" y="109.56">anada</tspan><tspan class="cls-98" x="0" y="120.14">E</tspan><tspan x="4.38" y="120.14">u</tspan><tspan class="cls-101" x="9.49" y="120.14">r</tspan><tspan x="12.51" y="120.14">ope</tspan><tspan class="cls-102" x="0" y="130.72">U</tspan><tspan class="cls-69" x="5.67" y="130.72">S</tspan><tspan x="10.38" y="130.72">A</tspan></text><line class="cls-48" x1="420.82" y1="222.33" x2="420.82" y2="253.85"/><polygon class="cls-49" points="417.75 251.37 418.3 250.86 420.82 253.56 423.33 250.86 423.88 251.37 420.82 254.67 417.75 251.37"/><circle class="cls-87" cx="420.82" cy="224.07" r="1.56"/><text class="cls-64" transform="translate(522.58 267.75)"><tspan class="cls-96">F</tspan><tspan x="3.71" y="0">airt</tspan><tspan class="cls-97" x="17.12" y="0">r</tspan><tspan class="cls-73" x="20.09" y="0">as</tspan><tspan x="28.74" y="0">a</tspan><tspan class="cls-65" x="0" y="10.58">P</tspan><tspan class="cls-81" x="4.85" y="10.58">r</tspan><tspan class="cls-73" x="7.83" y="10.58">a</tspan><tspan class="cls-85" x="12.47" y="10.58">g</tspan><tspan x="16.79" y="10.58">or</tspan><tspan class="cls-73" x="0" y="21.16">L</tspan><tspan class="cls-70" x="4.12" y="21.16">a </tspan><tspan class="cls-103" x="11.3" y="21.16">C</tspan><tspan x="15.99" y="21.16">u</tspan><tspan class="cls-73" x="21.09" y="21.16">p</tspan><tspan x="26.13" y="21.16">anda</tspan><tspan x="0" y="31.74">Del </tspan><tspan class="cls-98" x="15.26" y="31.74">R</tspan><tspan class="cls-76" x="20.33" y="31.74">e</tspan><tspan x="25.04" y="31.74">y A</tspan><tspan class="cls-104" x="36.61" y="31.74">v</tspan><tspan x="40.74" y="31.74">o</tspan><tspan class="cls-71" x="45.77" y="31.74">c</tspan><tspan x="49.82" y="31.74">ado </tspan><tspan class="cls-93" x="67.2" y="31.74">C</tspan><tspan class="cls-70" x="71.87" y="31.74">om</tspan><tspan class="cls-71" x="84.43" y="31.74">p</tspan><tspan x="89.46" y="31.74">a</tspan><tspan class="cls-102" x="94.19" y="31.74">n</tspan><tspan x="99.26" y="31.74">y</tspan><tspan class="cls-73" x="0" y="42.33">W</tspan><tspan class="cls-70" x="7.05" y="42.33">est </tspan><tspan class="cls-105" x="21.34" y="42.33">P</tspan><tspan x="25.85" y="42.33">ack A</tspan><tspan class="cls-104" x="46.46" y="42.33">v</tspan><tspan x="50.59" y="42.33">o</tspan><tspan class="cls-71" x="55.62" y="42.33">c</tspan><tspan x="59.67" y="42.33">ado G</tspan><tspan class="cls-66" x="82.5" y="42.33">r</tspan><tspan x="85.52" y="42.33">owe</tspan><tspan class="cls-75" x="101.44" y="42.33">r</tspan><tspan x="104.57" y="42.33">s</tspan><tspan class="cls-65" x="0" y="52.91">E</tspan><tspan class="cls-78" x="4.34" y="52.91">qu</tspan><tspan class="cls-71" x="14.6" y="52.91">a</tspan><tspan x="19.24" y="52.91">l E</tspan><tspan class="cls-89" x="28.72" y="52.91">x</tspan><tspan x="32.71" y="52.91">chan</tspan><tspan class="cls-85" x="51.87" y="52.91">g</tspan><tspan x="56.19" y="52.91">e </tspan><tspan class="cls-93" x="63.37" y="52.91">C</tspan><tspan class="cls-70" x="68.05" y="52.91">oop</tspan><tspan class="cls-68" x="0" y="63.49">R</tspan><tspan x="5.15" y="63.49">S</tspan><tspan class="cls-73" x="9.9" y="63.49">E</tspan><tspan class="cls-70" x="14.33" y="63.49">S</tspan><tspan class="cls-93"><tspan x="0" y="74.07">C</tspan><tspan class="cls-70" x="4.67" y="74.07">onec</tspan><tspan class="cls-84" x="23.72" y="74.07">t</tspan><tspan class="cls-70" x="26.62" y="74.07">o</tspan></tspan><tspan class="cls-73" x="0" y="84.65">L</tspan><tspan class="cls-70" x="4.12" y="84.65">a </tspan><tspan class="cls-74" x="11.3" y="84.65">c</tspan><tspan x="15.29" y="84.65">ope</tspan><tspan class="cls-81" x="30.17" y="84.65">r</tspan><tspan x="33.15" y="84.65">acha</tspan><tspan class="cls-93" x="0" y="95.23">C</tspan><tspan class="cls-70" x="4.67" y="95.23">ent</tspan><tspan class="cls-81" x="17.56" y="95.23">r</tspan><tspan class="cls-73" x="20.54" y="95.23">a</tspan><tspan x="25.17" y="95.23">l </tspan><tspan class="cls-93" x="30.14" y="95.23">C</tspan><tspan x="34.81" y="95.23">oop</tspan><tspan class="cls-106" x="0" y="105.81">V</tspan><tspan class="cls-71" x="4.46" y="105.81">a</tspan><tspan class="cls-78" x="9.1" y="105.81">l</tspan><tspan class="cls-69" x="11.6" y="105.81">l</tspan><tspan class="cls-104" x="14.06" y="105.81">e</tspan><tspan class="cls-70" x="18.77" y="105.81">y Natu</tspan><tspan class="cls-81" x="44.13" y="105.81">r</tspan><tspan class="cls-71" x="47.11" y="105.81">a</tspan><tspan x="51.75" y="105.81">l </tspan><tspan class="cls-107" x="56.71" y="105.81">F</tspan><tspan class="cls-70" x="60.65" y="105.81">oods</tspan></text><text class="cls-64" transform="translate(639.49 267.75)">Bio <tspan class="cls-73" x="15.15" y="0">P</tspan><tspan class="cls-69" x="20.09" y="0">l</tspan><tspan x="22.55" y="0">ane</tspan><tspan class="cls-108" x="37.15" y="0">t</tspan><tspan x="40.1" y="0">a</tspan><tspan class="cls-66" x="0" y="10.58">P</tspan><tspan class="cls-71" x="4.76" y="10.58">e</tspan><tspan x="9.4" y="10.58">a</tspan><tspan class="cls-74" x="14.13" y="10.58">c</tspan><tspan x="18.11" y="10.58">e Geec</tspan><tspan class="cls-77" x="44.33" y="10.58">k</tspan><tspan class="cls-70" x="48.59" y="10.58">s</tspan><tspan class="cls-96" x="0" y="21.16">F</tspan><tspan x="3.71" y="21.16">air </tspan><tspan class="cls-71" x="16.57" y="21.16">W</tspan><tspan x="23.62" y="21.16">or</tspan><tspan class="cls-69" x="31.95" y="21.16">l</tspan><tspan x="34.41" y="21.16">d </tspan><tspan class="cls-93" x="42.02" y="21.16">P</tspan><tspan class="cls-66" x="46.88" y="21.16">r</tspan><tspan class="cls-70" x="49.9" y="21.16">oject</tspan><tspan x="0" y="31.74">Midd</tspan><tspan class="cls-69" x="19.49" y="31.74">l</tspan><tspan x="21.95" y="31.74">ebury Natu</tspan><tspan class="cls-81" x="65.55" y="31.74">r</tspan><tspan class="cls-73" x="68.53" y="31.74">a</tspan><tspan x="73.17" y="31.74">l </tspan><tspan class="cls-81" x="78.13" y="31.74">F</tspan><tspan x="82.07" y="31.74">ood</tspan><tspan x="0" y="42.33">Har</tspan><tspan class="cls-104" x="13.92" y="42.33">v</tspan><tspan x="18.05" y="42.33">est Mar</tspan><tspan class="cls-109" x="47.14" y="42.33">k</tspan><tspan x="51.38" y="42.33">et</tspan><tspan class="cls-73" x="0" y="52.91">We</tspan><tspan class="cls-110" x="11.69" y="52.91">a</tspan><tspan class="cls-104" x="16.29" y="52.91">v</tspan><tspan x="20.41" y="52.91">er St</tspan><tspan class="cls-66" x="38.65" y="52.91">r</tspan><tspan x="41.67" y="52.91">eet Mar</tspan><tspan class="cls-109" x="71.4" y="52.91">k</tspan><tspan x="75.64" y="52.91">et</tspan><tspan x="0" y="63.49">Abundan</tspan><tspan class="cls-74" x="35.39" y="63.49">c</tspan><tspan x="39.38" y="63.49">e </tspan><tspan class="cls-65" x="46.57" y="63.49">C</tspan><tspan x="51.24" y="63.49">oop</tspan><tspan x="0" y="74.07">Un</tspan><tspan class="cls-84" x="10.9" y="74.07">t</tspan><tspan x="13.8" y="74.07">ou</tspan><tspan class="cls-75" x="23.94" y="74.07">r</tspan><tspan x="27.07" y="74.07">s </tspan><tspan class="cls-81" x="33.62" y="74.07">F</tspan><tspan x="37.55" y="74.07">oundation</tspan><tspan x="0" y="84.65">Vi</tspan><tspan class="cls-66" x="7.2" y="84.65">r</tspan><tspan x="10.22" y="84.65">oqua </tspan><tspan class="cls-107" x="32.7" y="84.65">F</tspan><tspan class="cls-70" x="36.64" y="84.65">ood </tspan><tspan class="cls-93" x="54.33" y="84.65">C</tspan><tspan x="59" y="84.65">oop</tspan><tspan class="cls-65" x="0" y="95.23">P</tspan><tspan class="cls-66" x="4.85" y="95.23">r</tspan><tspan x="7.87" y="95.23">ome</tspan><tspan class="cls-67" x="25.16" y="95.23">t</tspan><tspan x="28.06" y="95.23">o</tspan></text><line class="cls-50" x1="491.13" y1="264.22" x2="518.24" y2="264.22"/><line class="cls-48" x1="419.59" y1="412.34" x2="419.59" y2="445.19"/><polygon class="cls-49" points="416.52 442.7 417.07 442.19 419.59 444.9 422.1 442.19 422.65 442.7 419.59 446 416.52 442.7"/><circle class="cls-87" cx="671.65" cy="660.22" r="1.56"/><circle class="cls-87" cx="419.75" cy="537" r="1.46"/><circle class="cls-87" cx="283.54" cy="710.76" r="1.37"/><circle class="cls-87" cx="154.19" cy="647.07" r="1.08"/><path class="cls-94" d="M377,203.26l-.6-.1a3.23,3.23,0,0,0-.24-.58l.36-.49a.53.53,0,0,0-.06-.68l-.53-.53a.51.51,0,0,0-.37-.15.45.45,0,0,0-.3.1l-.5.35a3.16,3.16,0,0,0-.6-.25l-.1-.59a.53.53,0,0,0-.52-.44h-.75a.52.52,0,0,0-.51.44l-.11.61a2.87,2.87,0,0,0-.57.24l-.49-.35a.5.5,0,0,0-.31-.1.56.56,0,0,0-.37.15l-.53.53a.53.53,0,0,0-.06.68l.36.5a3.23,3.23,0,0,0-.24.58l-.59.1a.53.53,0,0,0-.44.52v.75a.53.53,0,0,0,.44.52l.61.1a3.23,3.23,0,0,0,.24.58l-.35.48a.52.52,0,0,0,.06.68l.52.53a.54.54,0,0,0,.38.15.53.53,0,0,0,.3-.09l.5-.36a3,3,0,0,0,.56.23l.1.6a.53.53,0,0,0,.52.44h.75a.53.53,0,0,0,.52-.44l.1-.6a3.23,3.23,0,0,0,.58-.24l.49.35a.5.5,0,0,0,.31.1.51.51,0,0,0,.37-.15l.53-.53a.53.53,0,0,0,0-.68l-.35-.49a3.23,3.23,0,0,0,.24-.58l.6-.1a.53.53,0,0,0,.44-.52v-.75a.53.53,0,0,0-.44-.52Zm0,1.27a.07.07,0,0,1,0,.05l-.74.12a.26.26,0,0,0-.2.18,2.53,2.53,0,0,1-.31.74.27.27,0,0,0,0,.26l.44.62s0,0,0,.06l-.53.53h-.06l-.62-.43a.23.23,0,0,0-.26,0,2.81,2.81,0,0,1-.74.3.25.25,0,0,0-.18.2l-.13.74a0,0,0,0,1,0,0h-.75a.05.05,0,0,1-.05,0l-.12-.74a.26.26,0,0,0-.18-.2,2.79,2.79,0,0,1-.72-.29.19.19,0,0,0-.12,0,.24.24,0,0,0-.14,0l-.63.44h-.06l-.53-.53a.06.06,0,0,1,0-.06l.44-.62a.24.24,0,0,0,0-.26,2.86,2.86,0,0,1-.32-.74.24.24,0,0,0-.19-.18l-.75-.13a0,0,0,0,1,0,0v-.75a.07.07,0,0,1,0-.05l.74-.12a.26.26,0,0,0,.2-.18,2.5,2.5,0,0,1,.3-.74.24.24,0,0,0,0-.26l-.45-.63a0,0,0,0,1,0-.06l.53-.53h.06l.61.44a.29.29,0,0,0,.27,0,2.86,2.86,0,0,1,.74-.32.22.22,0,0,0,.17-.19l.13-.75a.07.07,0,0,1,.05,0h.75a0,0,0,0,1,0,0l.13.74a.24.24,0,0,0,.17.2,2.7,2.7,0,0,1,.77.31.24.24,0,0,0,.26,0l.61-.44h.06l.53.53a0,0,0,0,1,0,.06l-.44.62a.23.23,0,0,0,0,.26,3.22,3.22,0,0,1,.31.74.21.21,0,0,0,.19.18l.74.13a0,0,0,0,1,0,0v.75Zm0,0"/><path class="cls-94" d="M373.21,202.32a1.84,1.84,0,1,0,1.83,1.83,1.83,1.83,0,0,0-1.83-1.83Zm0,3.19a1.36,1.36,0,1,1,1.35-1.36,1.36,1.36,0,0,1-1.35,1.36Zm0,0"/></g></svg>