<svg xmlns="http://www.w3.org/2000/svg" viewBox="0 0 804 419"><defs><style>.cls-1{font-size:12px;}.cls-1,.cls-14,.cls-20,.cls-3,.cls-31,.cls-66{fill:#fff;}.cls-1,.cls-16,.cls-20,.cls-3,.cls-66{font-family:FiraSans-Medium, Fira Sans;font-weight:500;}.cls-2{letter-spacing:-0.01em;}.cls-14,.cls-3{font-size:11px;}.cls-4{letter-spacing:-0.01em;}.cls-5{letter-spacing:-0.01em;}.cls-14,.cls-31,.cls-6,.cls-7,.cls-8,.cls-9{font-family:FiraSans-Light, Fira Sans;font-weight:300;}.cls-7{letter-spacing:-0.02em;}.cls-15,.cls-8{letter-spacing:-0.03em;}.cls-10,.cls-9{letter-spacing:-0.01em;}.cls-11{letter-spacing:0em;}.cls-12{letter-spacing:-0.01em;}.cls-13{letter-spacing:-0.02em;}.cls-17{letter-spacing:-0.05em;}.cls-18{letter-spacing:-0.01em;}.cls-19{letter-spacing:-0.01em;}.cls-20{font-size:10px;}.cls-21{letter-spacing:-0.01em;}.cls-22{letter-spacing:-0.01em;}.cls-23{letter-spacing:-0.04em;}.cls-24{letter-spacing:0em;}.cls-25{letter-spacing:-0.02em;}.cls-26{letter-spacing:-0.01em;}.cls-27{letter-spacing:-0.01em;}.cls-28{letter-spacing:-0.02em;}.cls-29{letter-spacing:-0.02em;}.cls-30{letter-spacing:0em;}.cls-31,.cls-59,.cls-66{font-size:9px;}.cls-32{letter-spacing:-0.02em;}.cls-33{letter-spacing:-0.01em;}.cls-34{letter-spacing:0em;}.cls-35{letter-spacing:-0.01em;}.cls-36{letter-spacing:0em;}.cls-37{letter-spacing:-0.03em;}.cls-38{letter-spacing:-0.01em;}.cls-39{letter-spacing:-0.01em;}.cls-40{letter-spacing:-0.02em;}.cls-41{letter-spacing:-0.06em;}.cls-42{letter-spacing:-0.03em;}.cls-43{letter-spacing:-0.02em;}.cls-44{letter-spacing:0em;}.cls-45{letter-spacing:-0.05em;}.cls-46{letter-spacing:-0.04em;}.cls-47{letter-spacing:-0.01em;}.cls-48{letter-spacing:0em;}.cls-49,.cls-50,.cls-52{stroke:#95c11f;}.cls-49,.cls-50,.cls-52,.cls-58,.cls-70{stroke-miterlimit:10;}.cls-49,.cls-50,.cls-52,.cls-70{stroke-width:0.75px;}.cls-50,.cls-52,.cls-58,.cls-70{fill:none;}.cls-51{fill:#95c11f;}.cls-52{stroke-dasharray:2;}.cls-53{letter-spacing:0em;}.cls-54{letter-spacing:-0.01em;}.cls-55{letter-spacing:-0.01em;}.cls-56{letter-spacing:-0.01em;}.cls-57{letter-spacing:-0.02em;}.cls-58,.cls-70{stroke:#666;}.cls-58{stroke-width:0.5px;}.cls-59,.cls-62{fill:gray;}.cls-59{font-family:FiraSans-Italic, Fira Sans;font-style:italic;}.cls-60{letter-spacing:0em;}.cls-61{letter-spacing:-0.03em;}.cls-63{letter-spacing:-0.02em;}.cls-64{letter-spacing:-0.03em;}.cls-65{letter-spacing:-0.01em;}.cls-67{letter-spacing:-0.03em;}.cls-68{letter-spacing:-0.04em;}.cls-69{letter-spacing:-0.05em;}</style></defs><title>protocols</title><g id="图层_2" data-name="图层 2"><text class="cls-1" transform="translate(327.3 10.14)">2 QUERI<tspan class="cls-2" x="42.47" y="0">E</tspan><tspan x="48.71" y="0">S:</tspan></text><text class="cls-3" transform="translate(287.14 132.99)">SEL<tspan class="cls-4" x="17.56" y="0">E</tspan><tspan class="cls-5" x="23.24" y="0">C</tspan><tspan x="29.38" y="0">TING</tspan><tspan class="cls-6" x="52.86" y="0" xml:space="preserve"> the fi</tspan><tspan class="cls-7" x="81.26" y="0">r</tspan><tspan class="cls-6" x="85.16" y="0">st 50 </tspan><tspan class="cls-8" x="111.56" y="0">r</tspan><tspan class="cls-6" x="115.33" y="0">esults</tspan></text><text class="cls-3" transform="translate(298.58 203.5)">RETRIEVING<tspan class="cls-6" x="58.01" y="0" xml:space="preserve"> the websi</tspan><tspan class="cls-9" x="108.26" y="0">t</tspan><tspan class="cls-6" x="111.88" y="0">es </tspan><tspan class="cls-6"><tspan class="cls-5" x="-2.16" y="13.2">f</tspan><tspan x="1.26" y="13.2">ound </tspan><tspan class="cls-10" x="29.84" y="13.2">t</tspan><tspan x="33.46" y="13.2">o the </tspan><tspan class="cls-5" x="61.95" y="13.2">c</tspan><tspan class="cls-11" x="67" y="13.2">a</tspan><tspan class="cls-10" x="72.9" y="13.2">t</tspan><tspan x="76.51" y="13.2">e</tspan><tspan class="cls-12" x="82.41" y="13.2">g</tspan><tspan x="87.8" y="13.2">ories of </tspan><tspan x="23.8" y="26.4">Visu</tspan><tspan class="cls-5" x="44.25" y="26.4">a</tspan><tspan x="50.04" y="26.4">li</tspan><tspan class="cls-13" x="56.13" y="26.4">z</tspan><tspan x="60.61" y="26.4">ation #1</tspan></tspan></text><text class="cls-14" transform="translate(320.17 288.51)">Identifying mo<tspan class="cls-15" x="70.92" y="0">r</tspan><tspan x="74.69" y="0">e </tspan><tspan class="cls-16"><tspan x="-24.88" y="13.2">SUB-C</tspan><tspan class="cls-17" x="5.94" y="13.2">A</tspan><tspan x="11.8" y="13.2">T</tspan><tspan class="cls-4" x="17.63" y="13.2">E</tspan><tspan x="23.32" y="13.2">GORI</tspan><tspan class="cls-5" x="47.89" y="13.2">E</tspan><tspan x="53.61" y="13.2">S</tspan><tspan class="cls-6" x="59.77" y="13.2"> </tspan><tspan class="cls-9" x="62.84" y="13.2">t</tspan><tspan class="cls-6" x="66.46" y="13.2">o bet</tspan><tspan class="cls-9" x="91.85" y="13.2">t</tspan><tspan class="cls-6" x="95.47" y="13.2">er </tspan></tspan><tspan class="cls-18" x="-1.16" y="26.4">e</tspan><tspan x="4.66" y="26.4">xp</tspan><tspan class="cls-19" x="16.1" y="26.4">l</tspan><tspan x="19.17" y="26.4">o</tspan><tspan class="cls-15" x="25.45" y="26.4">r</tspan><tspan x="29.22" y="26.4">e the </tspan><tspan class="cls-10" x="57.33" y="26.4">t</tspan><tspan x="60.94" y="26.4">opic</tspan></text><text class="cls-20" transform="translate(500 9)">A<tspan class="cls-21" x="5.83" y="0">v</tspan><tspan x="10.81" y="0">o</tspan><tspan class="cls-22" x="16.65" y="0">c</tspan><tspan x="21.33" y="0">ado + t</tspan><tspan class="cls-23" x="52.53" y="0">r</tspan><tspan x="56.12" y="0">ade</tspan><tspan class="cls-6"><tspan class="cls-24" x="0" y="12">l</tspan><tspan x="2.79" y="12">ang: ENG</tspan><tspan class="cls-24" x="0" y="24">l</tspan><tspan x="2.79" y="24">o</tspan><tspan class="cls-2" x="8.5" y="24">ca</tspan><tspan x="18.35" y="24">li</tspan><tspan class="cls-25" x="23.89" y="24">z</tspan><tspan x="27.96" y="24">ation: </tspan><tspan class="cls-26" x="55.84" y="24">U</tspan><tspan class="cls-24" x="62.27" y="24">S</tspan><tspan x="67.61" y="24">A</tspan></tspan><tspan x="0" y="39">A</tspan><tspan class="cls-27" x="5.83" y="39">g</tspan><tspan x="11.1" y="39">ua</tspan><tspan class="cls-22" x="22.33" y="39">c</tspan><tspan x="27.01" y="39">a</tspan><tspan class="cls-28" x="32.47" y="39">t</tspan><tspan x="36.05" y="39">e + t</tspan><tspan class="cls-23" x="55.45" y="39">r</tspan><tspan x="59.04" y="39">àfi</tspan><tspan class="cls-29" x="70.38" y="39">c</tspan><tspan class="cls-30" x="74.96" y="39">o</tspan><tspan class="cls-6"><tspan class="cls-24" x="0" y="51">l</tspan><tspan x="2.79" y="51">ang: </tspan><tspan class="cls-2" x="23.88" y="51">E</tspan><tspan x="28.9" y="51">S</tspan><tspan class="cls-24" x="0" y="63">l</tspan><tspan x="2.79" y="63">o</tspan><tspan class="cls-2" x="8.5" y="63">ca</tspan><tspan x="18.35" y="63">li</tspan><tspan class="cls-25" x="23.89" y="63">z</tspan><tspan x="27.96" y="63">ation: MEX</tspan></tspan></text><text class="cls-31" transform="translate(609.67 167.19)"><tspan class="cls-32">C</tspan><tspan x="4.79" y="0">rimin</tspan><tspan class="cls-33" x="25.94" y="0">a</tspan><tspan class="cls-34" x="30.67" y="0">l </tspan><tspan class="cls-33" x="35.74" y="0">c</tspan><tspan x="39.87" y="0">ar</tspan><tspan class="cls-35" x="48.05" y="0">t</tspan><tspan class="cls-36" x="51.01" y="0">els</tspan><tspan x="0" y="10.8">Mu</tspan><tspan class="cls-37" x="12.14" y="10.8">r</tspan><tspan x="15.23" y="10.8">de</tspan><tspan class="cls-32" x="25.32" y="10.8">r</tspan><tspan x="28.51" y="10.8">s</tspan><tspan x="0" y="21.6">Thefts</tspan><tspan x="0" y="43.2">De</tspan><tspan class="cls-38" x="10.51" y="43.2">f</tspan><tspan class="cls-34" x="13.31" y="43.2">o</tspan><tspan class="cls-37" x="18.45" y="43.2">r</tspan><tspan class="cls-36" x="21.54" y="43.2">es</tspan><tspan class="cls-39" x="30.54" y="43.2">t</tspan><tspan x="33.55" y="43.2">ation</tspan><tspan x="0" y="64.8">G</tspan><tspan class="cls-37" x="5.56" y="64.8">r</tspan><tspan x="8.65" y="64.8">owth of the industry</tspan><tspan x="0" y="75.6">High pri</tspan><tspan class="cls-40" x="31.77" y="75.6">c</tspan><tspan x="35.84" y="75.6">es</tspan><tspan class="cls-41" x="0" y="97.2">F</tspan><tspan x="3.79" y="97.2">air t</tspan><tspan class="cls-42" x="19.98" y="97.2">r</tspan><tspan x="23.02" y="97.2">ade </tspan><tspan class="cls-43" x="40.45" y="97.2">c</tspan><tspan x="44.51" y="97.2">oope</tspan><tspan class="cls-42" x="64.84" y="97.2">r</tspan><tspan x="67.89" y="97.2">ati</tspan><tspan class="cls-44" x="78.21" y="97.2">v</tspan><tspan x="82.42" y="97.2">es</tspan><tspan x="0" y="108">NAF</tspan><tspan class="cls-45" x="15.47" y="108">T</tspan><tspan x="19.48" y="108">A t</tspan><tspan class="cls-42" x="30.14" y="108">r</tspan><tspan x="33.18" y="108">ade </tspan><tspan class="cls-33" x="50.61" y="108">a</tspan><tspan x="55.34" y="108">g</tspan><tspan class="cls-37" x="59.87" y="108">r</tspan><tspan x="62.95" y="108">eement</tspan><tspan x="0" y="118.8">Impor</tspan><tspan class="cls-46" x="23.94" y="118.8">t</tspan><tspan x="26.65" y="118.8">-</tspan><tspan class="cls-47" x="30.26" y="118.8">e</tspan><tspan x="35.02" y="118.8">xport </tspan><tspan class="cls-48" x="58.45" y="118.8">fl</tspan><tspan x="63.66" y="118.8">ows g</tspan><tspan class="cls-37" x="86.29" y="118.8">r</tspan><tspan x="89.38" y="118.8">owth</tspan></text><text/><circle class="cls-49" cx="359.49" cy="42.24" r="1.41"/><line class="cls-50" x1="359.59" y1="44" x2="359.59" y2="119.94"/><polygon class="cls-51" points="356.52 117.45 357.07 116.94 359.59 119.65 362.11 116.94 362.65 117.45 359.59 120.75 356.52 117.45"/><circle class="cls-50" cx="359.49" cy="156.24" r="1.41"/><line class="cls-50" x1="359.49" y1="157.66" x2="359.49" y2="185.85"/><polygon class="cls-51" points="356.43 183.37 356.97 182.86 359.49 185.56 362.01 182.86 362.56 183.37 359.49 186.67 356.43 183.37"/><line class="cls-50" x1="360.49" y1="242.13" x2="360.49" y2="271.85"/><polygon class="cls-51" points="357.43 269.37 357.97 268.86 360.49 271.56 363.01 268.86 363.56 269.37 360.49 272.67 357.43 269.37"/><line class="cls-52" x1="390.01" y1="8.49" x2="492" y2="8.49"/><line class="cls-52" x1="433.33" y1="304.24" x2="662" y2="304.24"/><text class="cls-31" transform="translate(499.79 201.79)"><tspan class="cls-32">C</tspan><tspan x="4.79" y="0">rime </tspan><tspan class="cls-53" x="25.59" y="0">ev</tspan><tspan x="34.6" y="0">ents</tspan><tspan class="cls-38" x="0" y="10.8">E</tspan><tspan class="cls-54" x="4.52" y="10.8">n</tspan><tspan x="9.69" y="10.8">vi</tspan><tspan class="cls-37" x="16.35" y="10.8">r</tspan><tspan class="cls-34" x="19.44" y="10.8">onmen</tspan><tspan class="cls-55" x="47.59" y="10.8">t</tspan><tspan class="cls-33" x="50.61" y="10.8">a</tspan><tspan class="cls-34" x="55.34" y="10.8">l i</tspan><tspan class="cls-56" x="62.84" y="10.8">s</tspan><tspan x="66.9" y="10.8">sues</tspan><tspan x="0" y="21.6">Other</tspan><tspan class="cls-57" x="0" y="32.4">P</tspan><tspan class="cls-37" x="4.95" y="32.4">r</tspan><tspan class="cls-34" x="8.04" y="32.4">oduction g</tspan><tspan class="cls-37" x="50.8" y="32.4">r</tspan><tspan x="53.89" y="32.4">owth</tspan><tspan class="cls-37" x="0" y="43.2">T</tspan><tspan class="cls-42" x="4.19" y="43.2">r</tspan><tspan x="7.23" y="43.2">ade</tspan></text><line class="cls-52" x1="433.33" y1="199.45" x2="495" y2="199.45"/><line class="cls-50" x1="360.49" y1="326.24" x2="360.49" y2="359.21"/><polygon class="cls-51" points="357.43 356.72 357.97 356.21 360.49 358.92 363.01 356.21 363.56 356.72 360.49 360.02 357.43 356.72"/><text class="cls-3" transform="translate(323.64 373.45)">VIS<tspan class="cls-5" x="15.6" y="0">U</tspan><tspan x="22.7" y="0">ALIZ</tspan><tspan class="cls-17" x="43.79" y="0">A</tspan><tspan x="49.65" y="0">TION</tspan></text><line class="cls-58" x1="547" y1="199.75" x2="583.5" y2="199.75"/><line class="cls-58" x1="575" y1="233.02" x2="601.17" y2="233.02"/><line class="cls-58" x1="523" y1="243.5" x2="587.5" y2="243.5"/><line class="cls-58" x1="601.17" y1="162.5" x2="601.17" y2="187.5"/><line class="cls-58" x1="601.17" y1="204.5" x2="601.17" y2="210.88"/><line class="cls-58" x1="601.17" y1="227.25" x2="601.17" y2="242.5"/><line class="cls-58" x1="600.17" y1="258.88" x2="600.17" y2="281"/><line class="cls-58" x1="605.83" y1="162.5" x2="600.92" y2="162.5"/><line class="cls-58" x1="605.83" y1="187.5" x2="600.92" y2="187.5"/><line class="cls-58" x1="605.87" y1="204.5" x2="600.96" y2="204.5"/><line class="cls-58" x1="605.87" y1="210.88" x2="600.96" y2="210.88"/><line class="cls-58" x1="605.88" y1="227.25" x2="600.96" y2="227.25"/><line class="cls-58" x1="605.85" y1="242.5" x2="600.93" y2="242.5"/><line class="cls-58" x1="604.83" y1="258.88" x2="599.92" y2="258.88"/><line class="cls-58" x1="604.83" y1="280.88" x2="599.92" y2="280.88"/><line class="cls-58" x1="583.5" y1="175" x2="583.5" y2="200"/><line class="cls-58" x1="601.17" y1="175" x2="583.25" y2="175"/><line class="cls-58" x1="601" y1="207.07" x2="590.25" y2="207.07"/><line class="cls-58" x1="600.17" y1="270.83" x2="588" y2="270.83"/><line class="cls-58" x1="587.73" y1="243.25" x2="587.73" y2="271"/><line class="cls-52" x1="662.45" y1="290" x2="662.45" y2="305.67"/><circle class="cls-49" cx="360.49" cy="326.24" r="1.41"/><circle class="cls-49" cx="360.49" cy="241.24" r="1.41"/><text class="cls-59" transform="translate(311.81 23.02)">Goog<tspan class="cls-48" x="21.25" y="0">l</tspan><tspan x="23.8" y="0">e ad</tspan><tspan class="cls-60" x="41.18" y="0">v</tspan><tspan x="45.52" y="0">an</tspan><tspan class="cls-57" x="55.86" y="0">c</tspan><tspan class="cls-48" x="59.93" y="0">e</tspan><tspan x="64.54" y="0">d s</tspan><tspan class="cls-48" x="76.3" y="0">e</tspan><tspan x="80.91" y="0">a</tspan><tspan class="cls-61" x="86.03" y="0">r</tspan><tspan x="89.19" y="0">ch</tspan><tspan x="17.64" y="10.8">In</tspan><tspan class="cls-57" x="25.49" y="10.8">c</tspan><tspan x="29.56" y="10.8">ogni</tspan><tspan class="cls-57" x="47.71" y="10.8">t</tspan><tspan x="50.72" y="10.8">o mode</tspan></text><path class="cls-62" d="M309.87,19l-.54-.09a3.49,3.49,0,0,0-.22-.53l.32-.44a.5.5,0,0,0-.05-.62l-.48-.48a.48.48,0,0,0-.34-.14.49.49,0,0,0-.28.09l-.44.32a2.87,2.87,0,0,0-.55-.22l-.09-.54a.48.48,0,0,0-.47-.4h-.68a.48.48,0,0,0-.47.4l-.09.55a3.49,3.49,0,0,0-.53.22l-.44-.32a.47.47,0,0,0-.61.05l-.48.48a.49.49,0,0,0-.06.62l.33.45a3.49,3.49,0,0,0-.22.53l-.53.09a.48.48,0,0,0-.4.47v.68a.48.48,0,0,0,.4.47l.54.09a3.54,3.54,0,0,0,.23.53l-.32.44a.46.46,0,0,0,.05.61l.48.48a.48.48,0,0,0,.34.14.44.44,0,0,0,.27-.09l.46-.32a2.41,2.41,0,0,0,.5.21l.09.54a.48.48,0,0,0,.48.4h.68a.48.48,0,0,0,.47-.4l.09-.54a3,3,0,0,0,.52-.22l.45.32a.47.47,0,0,0,.61-.05l.48-.48a.47.47,0,0,0,.06-.61l-.32-.45a2.66,2.66,0,0,0,.21-.53l.55-.09a.47.47,0,0,0,.39-.47v-.68a.46.46,0,0,0-.39-.47Zm0,1.15s0,0,0,0l-.68.12a.19.19,0,0,0-.17.16,3.27,3.27,0,0,1-.28.67.21.21,0,0,0,0,.24l.4.56a0,0,0,0,1,0,.05l-.48.48s0,0,0,0h0l-.56-.4a.21.21,0,0,0-.23,0,2.38,2.38,0,0,1-.68.28.21.21,0,0,0-.16.18l-.11.67s0,0,0,0h-.68a0,0,0,0,1,0,0l-.12-.67a.2.2,0,0,0-.16-.18,2.7,2.7,0,0,1-.66-.27.2.2,0,0,0-.11,0,.17.17,0,0,0-.12,0l-.57.4h-.05l-.48-.48a0,0,0,0,1,0-.06l.4-.55a.23.23,0,0,0,0-.24,2.38,2.38,0,0,1-.28-.68.23.23,0,0,0-.18-.15l-.68-.12a0,0,0,0,1,0,0v-.68a0,0,0,0,1,0,0l.67-.12a.2.2,0,0,0,.18-.16,2.77,2.77,0,0,1,.27-.67.21.21,0,0,0,0-.24l-.4-.56a.06.06,0,0,1,0-.06l.49-.48h0l.56.39a.2.2,0,0,0,.23,0,2.71,2.71,0,0,1,.68-.28.23.23,0,0,0,.16-.17l.11-.69a0,0,0,0,1,.05,0h.67a0,0,0,0,1,0,0l.11.68a.21.21,0,0,0,.16.17,2.78,2.78,0,0,1,.69.28.21.21,0,0,0,.24,0l.55-.4h.06l.48.48s0,0,0,.06l-.39.55a.21.21,0,0,0,0,.24,2.71,2.71,0,0,1,.28.68.23.23,0,0,0,.17.16l.68.11s0,0,0,0v.68Zm0,0"/><path class="cls-62" d="M306.41,18.19a1.67,1.67,0,1,0,1.66,1.66,1.66,1.66,0,0,0-1.66-1.66Zm0,2.89a1.23,1.23,0,1,1,1.23-1.23,1.23,1.23,0,0,1-1.23,1.23Zm0,0"/><text class="cls-59" transform="translate(340.36 385.56)">Illust<tspan class="cls-61" x="20.34" y="0">r</tspan><tspan x="23.5" y="0">a</tspan><tspan class="cls-63" x="28.62" y="0">t</tspan><tspan x="31.63" y="0">or</tspan></text><path class="cls-62" d="M339.56,381.73l-.54-.09a2.47,2.47,0,0,0-.22-.53l.32-.45a.46.46,0,0,0-.05-.61l-.48-.48a.48.48,0,0,0-.34-.14.44.44,0,0,0-.27.09l-.45.32a3.65,3.65,0,0,0-.54-.23l-.09-.53a.48.48,0,0,0-.47-.4h-.68a.47.47,0,0,0-.47.4l-.1.55a2.62,2.62,0,0,0-.52.22l-.44-.32a.49.49,0,0,0-.28-.09.48.48,0,0,0-.34.14l-.48.48a.47.47,0,0,0-.05.61l.32.46a2.57,2.57,0,0,0-.21.52l-.54.09a.48.48,0,0,0-.4.47v.68a.47.47,0,0,0,.4.47l.55.1a3.38,3.38,0,0,0,.22.52l-.32.44a.5.5,0,0,0,.05.62l.48.48a.48.48,0,0,0,.34.14.47.47,0,0,0,.28-.09l.45-.32a3.89,3.89,0,0,0,.51.21l.09.54a.48.48,0,0,0,.47.4h.68a.48.48,0,0,0,.47-.4l.09-.54a3.49,3.49,0,0,0,.53-.22l.44.32a.47.47,0,0,0,.28.09.48.48,0,0,0,.34-.14l.48-.48a.49.49,0,0,0,.05-.62l-.32-.45a3.38,3.38,0,0,0,.22-.52l.54-.09a.48.48,0,0,0,.4-.47v-.68a.47.47,0,0,0-.4-.47Zm0,1.15a0,0,0,0,1,0,0l-.68.11a.23.23,0,0,0-.17.16,2.38,2.38,0,0,1-.28.68.21.21,0,0,0,0,.23l.4.56a0,0,0,0,1,0,.06l-.48.48h0l-.56-.39a.21.21,0,0,0-.24,0,2.8,2.8,0,0,1-.67.28.2.2,0,0,0-.16.17l-.12.68s0,0,0,0h-.68s0,0,0,0l-.11-.68a.23.23,0,0,0-.16-.17,2.55,2.55,0,0,1-.66-.27l-.11,0a.2.2,0,0,0-.13,0l-.56.4h0a0,0,0,0,1,0,0l-.48-.48a0,0,0,0,1,0-.05l.39-.56a.21.21,0,0,0,0-.24,2.64,2.64,0,0,1-.28-.67.23.23,0,0,0-.17-.16l-.69-.11a.05.05,0,0,1,0-.05v-.68s0,0,0,0l.68-.11a.21.21,0,0,0,.17-.16,2.38,2.38,0,0,1,.28-.68.21.21,0,0,0,0-.23l-.41-.57a0,0,0,0,1,0-.05l.48-.48,0,0h0l.56.4a.23.23,0,0,0,.24,0,2.83,2.83,0,0,1,.67-.29.21.21,0,0,0,.16-.17l.12-.68a0,0,0,0,1,0,0h.68a0,0,0,0,1,0,0l.11.67a.23.23,0,0,0,.16.18,2.5,2.5,0,0,1,.7.28.21.21,0,0,0,.23,0l.56-.4h0s0,0,0,0l.48.48s0,0,0,.05l-.4.56a.23.23,0,0,0,0,.24,2.44,2.44,0,0,1,.28.67.2.2,0,0,0,.18.16l.67.12a0,0,0,0,1,0,0v.68Zm0,0"/><path class="cls-62" d="M336.1,380.87a1.67,1.67,0,1,0,1.67,1.67,1.66,1.66,0,0,0-1.67-1.67Zm0,2.9a1.23,1.23,0,1,1,1.23-1.23,1.23,1.23,0,0,1-1.23,1.23Zm0,0"/><text class="cls-59" transform="translate(312 145.05)">Ins<tspan class="cls-57" x="12" y="0">t</tspan><tspan x="15.01" y="0">ant Da</tspan><tspan class="cls-57" x="41.75" y="0">t</tspan><tspan x="44.77" y="0">a Sc</tspan><tspan class="cls-64" x="61.32" y="0">r</tspan><tspan x="64.48" y="0">aper E</tspan><tspan class="cls-65" x="89.98" y="0">x</tspan><tspan class="cls-57" x="94.2" y="0">c</tspan><tspan x="98.27" y="0">el</tspan></text><path class="cls-62" d="M308.63,141.21l-.54-.09a3,3,0,0,0-.22-.52l.32-.45a.46.46,0,0,0-.05-.61l-.48-.48a.48.48,0,0,0-.34-.14.5.5,0,0,0-.27.08l-.45.32a3.71,3.71,0,0,0-.55-.22l-.09-.54a.46.46,0,0,0-.47-.39h-.68a.47.47,0,0,0-.47.39l-.09.55a3,3,0,0,0-.52.22l-.45-.32a.5.5,0,0,0-.27-.08.48.48,0,0,0-.34.14l-.48.48a.46.46,0,0,0-.05.61l.32.45a3.49,3.49,0,0,0-.22.53l-.53.09a.48.48,0,0,0-.4.47v.68a.48.48,0,0,0,.4.47l.55.09a2.7,2.7,0,0,0,.22.53l-.32.44a.47.47,0,0,0,0,.61l.48.48a.48.48,0,0,0,.34.14.5.5,0,0,0,.27-.08l.46-.33a2.28,2.28,0,0,0,.51.21l.09.54a.47.47,0,0,0,.47.4h.68a.48.48,0,0,0,.47-.4l.09-.54a2.7,2.7,0,0,0,.53-.22l.44.32a.47.47,0,0,0,.28.09.48.48,0,0,0,.34-.14l.48-.48a.48.48,0,0,0,.05-.61l-.32-.45a3.11,3.11,0,0,0,.22-.53l.54-.09a.47.47,0,0,0,.4-.47v-.67a.48.48,0,0,0-.4-.48Zm0,1.15a.05.05,0,0,1,0,0l-.68.11a.21.21,0,0,0-.17.16,2.8,2.8,0,0,1-.28.67.21.21,0,0,0,0,.24l.4.56a.07.07,0,0,1,0,.06l-.48.48h-.05l-.56-.4a.23.23,0,0,0-.24,0,2.38,2.38,0,0,1-.68.28.23.23,0,0,0-.16.18l-.11.67a0,0,0,0,1,0,0h-.68a0,0,0,0,1,0,0l-.12-.67a.2.2,0,0,0-.15-.18,2.61,2.61,0,0,1-.67-.27.2.2,0,0,0-.11,0,.28.28,0,0,0-.12,0l-.57.41H303l-.48-.48s0,0,0-.05l.4-.56a.23.23,0,0,0,0-.24,2.8,2.8,0,0,1-.28-.67.23.23,0,0,0-.18-.16l-.68-.12s0,0,0,0v-.68s0,0,0,0l.67-.11a.23.23,0,0,0,.18-.16,2.68,2.68,0,0,1,.27-.68.21.21,0,0,0,0-.24l-.4-.56a0,0,0,0,1,0-.06l.48-.48h0l.56.4a.23.23,0,0,0,.24,0,2.35,2.35,0,0,1,.67-.29.21.21,0,0,0,.16-.17l.12-.68a0,0,0,0,1,0,0h.68a0,0,0,0,1,0,0l.11.67a.23.23,0,0,0,.16.17,2.35,2.35,0,0,1,.69.29.23.23,0,0,0,.24,0l.56-.4s0,0,0,0h0l.48.48a0,0,0,0,1,0,.06l-.4.56a.21.21,0,0,0,0,.23,2.71,2.71,0,0,1,.28.68.21.21,0,0,0,.17.16l.68.11s0,0,0,.05v.67Zm0,0"/><path class="cls-62" d="M305.17,140.36a1.67,1.67,0,1,0,1.66,1.66,1.66,1.66,0,0,0-1.66-1.66Zm0,2.89A1.23,1.23,0,1,1,306.4,142a1.23,1.23,0,0,1-1.23,1.23Zm0,0"/><line class="cls-58" x1="590.5" y1="207.5" x2="590.5" y2="210.5"/><line class="cls-58" x1="590.5" y1="208" x2="590.5" y2="207"/><line class="cls-58" x1="586" y1="210.5" x2="591" y2="210.5"/></g><g id="图层_1" data-name="图层 1"><text class="cls-66" transform="translate(30.06 11.99)">QUE<tspan class="cls-67" x="16.89" y="0">R</tspan><tspan x="22.13" y="0">Y</tspan><tspan x="-9.36" y="10.8">DEFINITION</tspan></text><text class="cls-66" transform="translate(33.66 136.48)"><tspan class="cls-38">D</tspan><tspan class="cls-45" x="5.74" y="0">AT</tspan><tspan x="14.86" y="0">A</tspan><tspan x="-17.7" y="10.8">EXP</tspan><tspan class="cls-68" x="-2.56" y="10.8">L</tspan><tspan x="1.61" y="10.8">OR</tspan><tspan class="cls-69" x="13.33" y="10.8">A</tspan><tspan x="18.13" y="10.8">TION</tspan></text><text class="cls-66" transform="translate(33.66 207.97)"><tspan class="cls-38">D</tspan><tspan class="cls-45" x="5.74" y="0">AT</tspan><tspan x="14.86" y="0">A</tspan><tspan x="-12.98" y="10.8">G</tspan><tspan class="cls-69" x="-7.24" y="10.8">A</tspan><tspan x="-2.44" y="10.8">THERING</tspan></text><rect class="cls-70" x="0.41" y="0.53" width="86.59" height="26.73"/><rect class="cls-70" x="0.41" y="124.03" width="86.59" height="29.49"/><rect class="cls-70" x="0.41" y="196.95" width="86.59" height="27"/><line class="cls-70" x1="44.18" y1="27" x2="44.18" y2="124"/><line class="cls-70" x1="43.69" y1="153.52" x2="43.69" y2="197"/></g></svg>