<svg xmlns="http://www.w3.org/2000/svg" viewBox="0 0 804 398"><defs><style>.cls-1,.cls-32,.cls-54{font-size:9px;}.cls-1,.cls-50{fill:gray;}.cls-1{font-family:FiraSans-Italic, Fira Sans;font-style:italic;}.cls-2{letter-spacing:0em;}.cls-3{letter-spacing:0em;}.cls-4{letter-spacing:-0.02em;}.cls-5{letter-spacing:-0.03em;}.cls-6{font-size:12px;}.cls-24,.cls-32,.cls-54,.cls-6,.cls-8{fill:#fff;}.cls-24,.cls-54,.cls-6,.cls-8{font-family:FiraSans-Medium, Fira Sans;font-weight:500;}.cls-7{letter-spacing:-0.01em;}.cls-8{font-size:11px;}.cls-9{letter-spacing:-0.01em;}.cls-10{letter-spacing:-0.01em;}.cls-11,.cls-12,.cls-13,.cls-32{font-family:FiraSans-Light, Fira Sans;font-weight:300;}.cls-12{letter-spacing:-0.02em;}.cls-13,.cls-18{letter-spacing:-0.03em;}.cls-14{letter-spacing:-0.02em;}.cls-15{font-family:FiraSans-Bold, Fira Sans;font-weight:700;}.cls-16{letter-spacing:-0.02em;}.cls-17{letter-spacing:0em;}.cls-19{letter-spacing:0em;}.cls-20{letter-spacing:-0.01em;}.cls-21{letter-spacing:0em;}.cls-22{letter-spacing:-0.01em;}.cls-23{letter-spacing:-0.03em;}.cls-24{font-size:10px;}.cls-25{letter-spacing:-0.01em;}.cls-26{letter-spacing:-0.01em;}.cls-27{letter-spacing:0em;}.cls-28{letter-spacing:-0.02em;}.cls-29{letter-spacing:-0.01em;}.cls-30{letter-spacing:-0.01em;}.cls-31{letter-spacing:-0.02em;}.cls-33{letter-spacing:-0.01em;}.cls-34{letter-spacing:0em;}.cls-35{letter-spacing:-0.01em;}.cls-36{letter-spacing:-0.02em;}.cls-37{letter-spacing:0em;}.cls-38{letter-spacing:-0.01em;}.cls-39{letter-spacing:-0.01em;}.cls-40{letter-spacing:-0.03em;}.cls-41{letter-spacing:0em;}.cls-42{letter-spacing:-0.01em;}.cls-43{letter-spacing:-0.01em;}.cls-44{letter-spacing:-0.03em;}.cls-45,.cls-46,.cls-48{stroke:#95c11f;}.cls-45,.cls-46,.cls-48,.cls-59{stroke-miterlimit:10;stroke-width:0.75px;}.cls-46,.cls-48,.cls-59{fill:none;}.cls-47{fill:#95c11f;}.cls-48{stroke-dasharray:2;}.cls-49{letter-spacing:-0.05em;}.cls-51{letter-spacing:-0.02em;}.cls-52{letter-spacing:-0.03em;}.cls-53{letter-spacing:-0.01em;}.cls-55{letter-spacing:-0.03em;}.cls-56{letter-spacing:-0.05em;}.cls-57{letter-spacing:-0.04em;}.cls-58{letter-spacing:-0.05em;}.cls-59{stroke:#666;}</style></defs><title>protocols</title><g id="图层_2" data-name="图层 2"><text class="cls-1" transform="translate(365.58 22.56)">Goog<tspan class="cls-2" x="21.25" y="0">l</tspan><tspan x="23.8" y="0">e ad</tspan><tspan class="cls-3" x="41.18" y="0">v</tspan><tspan x="45.52" y="0">an</tspan><tspan class="cls-4" x="55.86" y="0">c</tspan><tspan class="cls-2" x="59.93" y="0">e</tspan><tspan x="64.54" y="0">d </tspan><tspan x="21.65" y="10.8">s</tspan><tspan class="cls-2" x="25.8" y="10.8">e</tspan><tspan x="30.41" y="10.8">a</tspan><tspan class="cls-5" x="35.53" y="10.8">r</tspan><tspan x="38.69" y="10.8">ch</tspan><tspan x="3.22" y="21.6">In</tspan><tspan class="cls-4" x="11.06" y="21.6">c</tspan><tspan x="15.13" y="21.6">ogni</tspan><tspan class="cls-4" x="33.29" y="21.6">t</tspan><tspan x="36.3" y="21.6">o mode</tspan></text><text class="cls-6" transform="translate(368.3 9.14)">2 QUERI<tspan class="cls-7" x="42.47" y="0">E</tspan><tspan x="48.71" y="0">S:</tspan></text><text class="cls-8" transform="translate(328.14 130.99)">SEL<tspan class="cls-9" x="17.56" y="0">E</tspan><tspan class="cls-10" x="23.24" y="0">C</tspan><tspan x="29.38" y="0">TING</tspan><tspan class="cls-11" x="52.86" y="0" xml:space="preserve"> the fi</tspan><tspan class="cls-12" x="81.26" y="0">r</tspan><tspan class="cls-11" x="85.16" y="0">st 50 </tspan><tspan class="cls-13" x="111.56" y="0">r</tspan><tspan class="cls-11" x="115.33" y="0">esults</tspan></text><text class="cls-8" transform="translate(323.1 213.54)">LI<tspan class="cls-14" x="8.8" y="0">S</tspan><tspan x="14.73" y="0">TING</tspan><tspan class="cls-15" x="38.2" y="0"> </tspan><tspan class="cls-11" x="40.81" y="0">the </tspan><tspan class="cls-13" x="59.95" y="0">r</tspan><tspan class="cls-11" x="63.72" y="0">esults and finding </tspan><tspan class="cls-11"><tspan class="cls-16" x="-3.59" y="13.2">a</tspan><tspan class="cls-17" x="2.14" y="13.2">v</tspan><tspan x="7.29" y="13.2">o</tspan><tspan class="cls-10" x="13.57" y="13.2">c</tspan><tspan x="18.62" y="13.2">ado </tspan><tspan class="cls-18" x="40.3" y="13.2">r</tspan><tspan x="44.07" y="13.2">e</tspan><tspan class="cls-19" x="49.97" y="13.2">l</tspan><tspan x="53.04" y="13.2">a</tspan><tspan class="cls-20" x="58.93" y="13.2">t</tspan><tspan class="cls-21" x="62.55" y="13.2">ed i</tspan><tspan class="cls-9" x="80.92" y="13.2">s</tspan><tspan x="85.88" y="13.2">sue</tspan><tspan class="cls-16" x="103.25" y="13.2">s</tspan><tspan x="108.19" y="13.2">’websi</tspan><tspan class="cls-22" x="138.64" y="13.2">t</tspan><tspan x="142.26" y="13.2">es, </tspan><tspan x="20.52" y="26.4">pointing out their </tspan><tspan class="cls-23" x="110.01" y="26.4">r</tspan><tspan x="113.73" y="26.4">ank </tspan></tspan></text><text class="cls-8" transform="translate(368.49 300.64)">IDENTI<tspan class="cls-19" x="32.65" y="0">F</tspan><tspan x="37.97" y="0">YING</tspan><tspan class="cls-11" x="61.93" y="0"> </tspan><tspan class="cls-11"><tspan class="cls-10" x="5.86" y="13.2">c</tspan><tspan x="10.91" y="13.2">a</tspan><tspan class="cls-22" x="16.81" y="13.2">t</tspan><tspan x="20.43" y="13.2">e</tspan><tspan class="cls-9" x="26.32" y="13.2">g</tspan><tspan x="31.71" y="13.2">ories</tspan></tspan></text><text class="cls-24" transform="translate(549 7)">A<tspan class="cls-25" x="5.83" y="0">v</tspan><tspan x="10.81" y="0">o</tspan><tspan class="cls-26" x="16.65" y="0">c</tspan><tspan x="21.33" y="0">ado</tspan><tspan class="cls-11"><tspan class="cls-27" x="0" y="12">l</tspan><tspan x="2.79" y="12">ang: ENG</tspan><tspan class="cls-27" x="0" y="24">l</tspan><tspan x="2.79" y="24">o</tspan><tspan class="cls-7" x="8.5" y="24">ca</tspan><tspan x="18.35" y="24">li</tspan><tspan class="cls-28" x="23.89" y="24">z</tspan><tspan x="27.96" y="24">ation: </tspan><tspan class="cls-29" x="55.84" y="24">U</tspan><tspan class="cls-27" x="62.27" y="24">S</tspan><tspan x="67.61" y="24">A</tspan></tspan><tspan x="0" y="39">A</tspan><tspan class="cls-30" x="5.83" y="39">g</tspan><tspan x="11.1" y="39">ua</tspan><tspan class="cls-26" x="22.33" y="39">c</tspan><tspan x="27.01" y="39">a</tspan><tspan class="cls-31" x="32.47" y="39">t</tspan><tspan x="36.05" y="39">e</tspan><tspan class="cls-11"><tspan class="cls-27" x="0" y="51">l</tspan><tspan x="2.79" y="51">ang: </tspan><tspan class="cls-7" x="23.88" y="51">E</tspan><tspan x="28.9" y="51">S</tspan><tspan class="cls-27" x="0" y="63">l</tspan><tspan x="2.79" y="63">o</tspan><tspan class="cls-7" x="8.5" y="63">ca</tspan><tspan x="18.35" y="63">li</tspan><tspan class="cls-28" x="23.89" y="63">z</tspan><tspan x="27.96" y="63">ation: MEX</tspan></tspan></text><text class="cls-32" transform="translate(551.79 297.74)">Bo<tspan class="cls-33" x="10.52" y="0">t</tspan><tspan class="cls-34" x="13.54" y="0">ani</tspan><tspan class="cls-35" x="26.05" y="0">ca</tspan><tspan x="34.91" y="0">l in</tspan><tspan class="cls-35" x="47.66" y="0">f</tspan><tspan x="50.46" y="0">os</tspan><tspan class="cls-4" x="0" y="10.8">C</tspan><tspan x="4.77" y="10.8">onsumption</tspan><tspan class="cls-36" x="0" y="21.6">C</tspan><tspan x="4.79" y="21.6">rime </tspan><tspan class="cls-37" x="25.59" y="21.6">ev</tspan><tspan x="34.6" y="21.6">ents</tspan><tspan class="cls-38" x="0" y="32.4">E</tspan><tspan class="cls-39" x="4.52" y="32.4">n</tspan><tspan x="9.69" y="32.4">vi</tspan><tspan class="cls-40" x="16.35" y="32.4">r</tspan><tspan class="cls-41" x="19.44" y="32.4">onmen</tspan><tspan class="cls-33" x="47.59" y="32.4">t</tspan><tspan class="cls-42" x="50.61" y="32.4">a</tspan><tspan class="cls-41" x="55.34" y="32.4">l i</tspan><tspan class="cls-43" x="62.84" y="32.4">s</tspan><tspan x="66.9" y="32.4">sues</tspan><tspan x="0" y="43.2">H</tspan><tspan class="cls-42" x="6.03" y="43.2">ea</tspan><tspan x="15.5" y="43.2">lth </tspan><tspan class="cls-14" x="28.89" y="43.2">f</tspan><tspan x="31.59" y="43.2">acts</tspan><tspan x="0" y="54">Other</tspan><tspan class="cls-4" x="0" y="64.8">P</tspan><tspan class="cls-40" x="4.95" y="64.8">r</tspan><tspan class="cls-41" x="8.04" y="64.8">oduction g</tspan><tspan class="cls-40" x="50.8" y="64.8">r</tspan><tspan x="53.89" y="64.8">owth</tspan><tspan class="cls-40" x="0" y="75.6">T</tspan><tspan class="cls-44" x="4.19" y="75.6">r</tspan><tspan x="7.23" y="75.6">ade</tspan></text><text/><circle class="cls-45" cx="400.49" cy="49.24" r="1.41"/><line class="cls-46" x1="400.49" y1="50.67" x2="400.49" y2="114.81"/><polygon class="cls-47" points="397.43 112.33 397.97 111.81 400.49 114.52 403.01 111.81 403.56 112.33 400.49 115.63 397.43 112.33"/><circle class="cls-46" cx="400.49" cy="163.24" r="1.41"/><line class="cls-46" x1="400.5" y1="165" x2="400.5" y2="200.19"/><polygon class="cls-47" points="397.43 197.7 397.98 197.19 400.5 199.9 403.02 197.19 403.57 197.7 400.5 201 397.43 197.7"/><line class="cls-46" x1="399.49" y1="250.24" x2="399.49" y2="281.85"/><polygon class="cls-47" points="396.43 279.37 396.97 278.86 399.49 281.56 402.01 278.86 402.56 279.37 399.49 282.67 396.43 279.37"/><line class="cls-48" x1="431.01" y1="5.44" x2="543" y2="5.44"/><line class="cls-48" x1="433.76" y1="303.28" x2="547" y2="303.28"/><circle class="cls-46" cx="399.49" cy="326.24" r="1.41"/><line class="cls-46" x1="399.49" y1="327.66" x2="399.49" y2="371.21"/><polygon class="cls-47" points="396.43 368.72 396.97 368.21 399.49 370.92 402.01 368.21 402.56 368.72 399.49 372.02 396.43 368.72"/><text class="cls-8" transform="translate(362.64 386.45)">VIS<tspan class="cls-10" x="15.6" y="0">U</tspan><tspan x="22.7" y="0">ALIZ</tspan><tspan class="cls-49" x="43.79" y="0">A</tspan><tspan x="49.65" y="0">TION</tspan></text><path class="cls-50" d="M361,18.58l-.54-.09a3.49,3.49,0,0,0-.22-.53l.32-.44a.5.5,0,0,0-.05-.62l-.48-.48a.48.48,0,0,0-.34-.14.47.47,0,0,0-.28.09l-.44.32a2.87,2.87,0,0,0-.55-.22l-.09-.54a.48.48,0,0,0-.47-.4h-.68a.48.48,0,0,0-.47.4l-.09.55a2.7,2.7,0,0,0-.53.22l-.44-.32a.47.47,0,0,0-.28-.09.45.45,0,0,0-.33.14l-.49.48a.5.5,0,0,0,0,.62l.32.45a4.18,4.18,0,0,0-.21.53l-.53.09a.46.46,0,0,0-.4.47v.68a.47.47,0,0,0,.4.47l.54.09a3,3,0,0,0,.22.52l-.31.44a.47.47,0,0,0,.05.62l.48.48a.48.48,0,0,0,.34.14.44.44,0,0,0,.27-.09l.45-.32a5.49,5.49,0,0,0,.51.21l.09.54a.48.48,0,0,0,.47.4h.68a.47.47,0,0,0,.47-.4l.1-.54a3.38,3.38,0,0,0,.52-.22l.45.32a.47.47,0,0,0,.61-.05l.48-.48a.47.47,0,0,0,0-.62l-.31-.44a3.44,3.44,0,0,0,.21-.53l.54-.09a.47.47,0,0,0,.4-.47v-.68a.46.46,0,0,0-.39-.47Zm0,1.15s0,0,0,0l-.68.11a.24.24,0,0,0-.18.16,2.38,2.38,0,0,1-.28.68.23.23,0,0,0,0,.24l.4.56a0,0,0,0,1,0,.05l-.48.48h-.06l-.56-.4a.21.21,0,0,0-.23,0,2.87,2.87,0,0,1-.68.28.21.21,0,0,0-.16.17l-.11.68s0,0,0,0h-.67s0,0-.05,0l-.11-.68a.21.21,0,0,0-.16-.17,2.7,2.7,0,0,1-.66-.27.2.2,0,0,0-.11,0,.17.17,0,0,0-.12,0l-.57.4h0l-.48-.48a0,0,0,0,1,0-.06l.4-.56a.21.21,0,0,0,0-.23,2.41,2.41,0,0,1-.29-.68.23.23,0,0,0-.17-.16l-.68-.11s0,0,0,0v-.68a.07.07,0,0,1,0-.05l.67-.11a.23.23,0,0,0,.18-.16,2.68,2.68,0,0,1,.27-.68.21.21,0,0,0,0-.23l-.4-.57a0,0,0,0,1,0-.05l.48-.48h.06l.55.4a.23.23,0,0,0,.24,0,2.38,2.38,0,0,1,.68-.28.24.24,0,0,0,.16-.18l.11-.68s0,0,0,0h.68s0,0,0,0l.12.67a.21.21,0,0,0,.16.18,2.94,2.94,0,0,1,.69.28.21.21,0,0,0,.24,0l.55-.4h0l0,0,.48.48a0,0,0,0,1,0,.05l-.39.56a.21.21,0,0,0,0,.24,3.27,3.27,0,0,1,.28.67.2.2,0,0,0,.17.16L361,19s0,0,0,0v.68Zm0,0"/><path class="cls-50" d="M357.58,17.72a1.67,1.67,0,1,0,1.66,1.67,1.67,1.67,0,0,0-1.66-1.67Zm0,2.9a1.23,1.23,0,1,1,1.23-1.23,1.23,1.23,0,0,1-1.23,1.23Zm0,0"/><text class="cls-1" transform="translate(379.46 397.56)">Illust<tspan class="cls-5" x="20.34" y="0">r</tspan><tspan x="23.5" y="0">a</tspan><tspan class="cls-51" x="28.62" y="0">t</tspan><tspan x="31.63" y="0">or</tspan></text><path class="cls-50" d="M378.67,393.73l-.55-.09a2.44,2.44,0,0,0-.21-.53l.32-.45a.47.47,0,0,0-.06-.61l-.48-.48a.45.45,0,0,0-.33-.14.47.47,0,0,0-.28.09l-.45.32a3.25,3.25,0,0,0-.54-.23l-.09-.53a.48.48,0,0,0-.47-.4h-.68a.48.48,0,0,0-.47.4l-.09.55a2.7,2.7,0,0,0-.53.22l-.44-.32a.47.47,0,0,0-.28-.09.48.48,0,0,0-.34.14l-.48.48a.48.48,0,0,0-.05.61l.32.46a2.57,2.57,0,0,0-.21.52l-.54.09a.47.47,0,0,0-.39.47v.68a.46.46,0,0,0,.39.47l.55.1a3.38,3.38,0,0,0,.22.52l-.31.44a.47.47,0,0,0,.05.62l.48.48a.47.47,0,0,0,.61.05l.45-.32.51.21.09.54a.48.48,0,0,0,.47.4h.68a.47.47,0,0,0,.47-.4l.1-.54a3.38,3.38,0,0,0,.52-.22l.45.32a.44.44,0,0,0,.27.09.48.48,0,0,0,.34-.14l.48-.48a.47.47,0,0,0,.05-.62l-.32-.45a2.62,2.62,0,0,0,.22-.52l.54-.09a.48.48,0,0,0,.4-.47v-.68a.47.47,0,0,0-.39-.47Zm0,1.15a0,0,0,0,1,0,0l-.67.11a.23.23,0,0,0-.18.16,2.38,2.38,0,0,1-.28.68.21.21,0,0,0,0,.23l.4.56a.06.06,0,0,1,0,.06l-.48.48h-.06l-.56-.39a.21.21,0,0,0-.24,0,2.64,2.64,0,0,1-.67.28.21.21,0,0,0-.16.17l-.12.68s0,0,0,0h-.68s0,0,0,0l-.11-.68a.21.21,0,0,0-.16-.17,2.7,2.7,0,0,1-.66-.27.2.2,0,0,0-.11,0,.22.22,0,0,0-.13,0l-.56.4h0s0,0,0,0l-.49-.48a0,0,0,0,1,0-.05l.4-.56a.23.23,0,0,0,0-.24,2.35,2.35,0,0,1-.29-.67.23.23,0,0,0-.17-.16l-.68-.11a.07.07,0,0,1,0-.05v-.68s0,0,0,0l.67-.11a.21.21,0,0,0,.17-.16,2.71,2.71,0,0,1,.28-.68.21.21,0,0,0,0-.23l-.4-.57a0,0,0,0,1,0-.05l.48-.48,0,0h0l.55.4a.23.23,0,0,0,.24,0,2.73,2.73,0,0,1,.68-.29.23.23,0,0,0,.16-.17l.11-.68a0,0,0,0,1,0,0h.68a0,0,0,0,1,0,0l.12.67a.2.2,0,0,0,.16.18,2.57,2.57,0,0,1,.69.28.23.23,0,0,0,.24,0l.55-.4h0a0,0,0,0,1,0,0l.48.48a0,0,0,0,1,0,.05l-.4.56a.23.23,0,0,0,0,.24,2.44,2.44,0,0,1,.28.67.21.21,0,0,0,.18.16l.68.12s0,0,0,0v.68Zm0,0"/><path class="cls-50" d="M375.2,392.87a1.67,1.67,0,1,0,1.67,1.67,1.67,1.67,0,0,0-1.67-1.67Zm0,2.9a1.23,1.23,0,1,1,1.23-1.23,1.24,1.24,0,0,1-1.23,1.23Zm0,0"/><circle class="cls-45" cx="399.49" cy="250.24" r="1.41"/><text class="cls-1" transform="translate(363.31 142.55)">Ins<tspan class="cls-4" x="12" y="0">t</tspan><tspan x="15.01" y="0">ant Da</tspan><tspan class="cls-4" x="41.75" y="0">t</tspan><tspan x="44.77" y="0">a Sc</tspan><tspan class="cls-52" x="61.32" y="0">r</tspan><tspan x="64.48" y="0">aper</tspan><tspan x="31.3" y="10.8">E</tspan><tspan class="cls-53" x="36.06" y="10.8">x</tspan><tspan class="cls-4" x="40.28" y="10.8">c</tspan><tspan x="44.35" y="10.8">el</tspan></text><path class="cls-50" d="M359.63,138.71l-.54-.09a3,3,0,0,0-.22-.52l.32-.45a.46.46,0,0,0-.05-.61l-.48-.48a.48.48,0,0,0-.34-.14.5.5,0,0,0-.27.08l-.45.32a3.71,3.71,0,0,0-.55-.22l-.09-.54a.46.46,0,0,0-.47-.39h-.68a.47.47,0,0,0-.47.39l-.09.55a3,3,0,0,0-.52.22l-.45-.32a.5.5,0,0,0-.27-.08.48.48,0,0,0-.34.14l-.48.48a.46.46,0,0,0-.05.61l.32.45a3.49,3.49,0,0,0-.22.53l-.53.09a.48.48,0,0,0-.4.47v.68a.48.48,0,0,0,.4.47l.55.09a2.7,2.7,0,0,0,.22.53l-.32.44a.47.47,0,0,0,0,.61l.48.48a.48.48,0,0,0,.34.14.5.5,0,0,0,.27-.08l.46-.33a2.28,2.28,0,0,0,.51.21l.09.54a.47.47,0,0,0,.47.4h.68a.48.48,0,0,0,.47-.4l.09-.54a2.7,2.7,0,0,0,.53-.22l.44.32a.47.47,0,0,0,.28.09.48.48,0,0,0,.34-.14l.48-.48a.48.48,0,0,0,.05-.61l-.32-.45a3.49,3.49,0,0,0,.22-.53l.54-.09a.47.47,0,0,0,.4-.47v-.68a.48.48,0,0,0-.4-.47Zm0,1.15a.05.05,0,0,1,0,0l-.68.11a.21.21,0,0,0-.17.16,2.8,2.8,0,0,1-.28.67.21.21,0,0,0,0,.24l.4.56a.07.07,0,0,1,0,.06l-.48.48h-.05l-.56-.4a.23.23,0,0,0-.24,0,2.38,2.38,0,0,1-.68.28.23.23,0,0,0-.16.18l-.11.67a0,0,0,0,1,0,0h-.68a0,0,0,0,1,0,0l-.12-.67a.2.2,0,0,0-.15-.18,2.61,2.61,0,0,1-.67-.27.2.2,0,0,0-.11,0,.28.28,0,0,0-.12,0l-.57.41H354l-.48-.48s0,0,0-.05l.4-.56a.23.23,0,0,0,0-.24,2.8,2.8,0,0,1-.28-.67.21.21,0,0,0-.18-.16l-.68-.12s0,0,0,0v-.68s0,0,0,0l.67-.11a.23.23,0,0,0,.18-.16,2.68,2.68,0,0,1,.27-.68.21.21,0,0,0,0-.24l-.4-.56a0,0,0,0,1,0-.06l.48-.48h0l.56.4a.23.23,0,0,0,.24,0,2.35,2.35,0,0,1,.67-.29.21.21,0,0,0,.16-.17l.12-.68a0,0,0,0,1,0,0h.68a0,0,0,0,1,0,0l.11.67a.23.23,0,0,0,.16.17,2.35,2.35,0,0,1,.69.29.23.23,0,0,0,.24,0l.56-.4s0,0,0,0h0l.48.48a0,0,0,0,1,0,.06l-.4.56a.21.21,0,0,0,0,.23,2.71,2.71,0,0,1,.28.68.21.21,0,0,0,.17.16l.68.11s0,0,0,0v.68Zm0,0"/><path class="cls-50" d="M356.17,137.86a1.67,1.67,0,1,0,1.66,1.66,1.66,1.66,0,0,0-1.66-1.66Zm0,2.89a1.23,1.23,0,1,1,1.23-1.23,1.23,1.23,0,0,1-1.23,1.23Zm0,0"/></g><g id="图层_1" data-name="图层 1"><text class="cls-54" transform="translate(30.06 11.99)">QUE<tspan class="cls-55" x="16.89" y="0">R</tspan><tspan x="22.13" y="0">Y</tspan><tspan x="-9.36" y="10.8">DEFINITION</tspan></text><text class="cls-54" transform="translate(33.66 133.48)"><tspan class="cls-38">D</tspan><tspan class="cls-56" x="5.74" y="0">AT</tspan><tspan x="14.86" y="0">A</tspan><tspan x="-17.7" y="10.8">EXP</tspan><tspan class="cls-57" x="-2.56" y="10.8">L</tspan><tspan x="1.61" y="10.8">OR</tspan><tspan class="cls-58" x="13.33" y="10.8">A</tspan><tspan x="18.13" y="10.8">TION</tspan></text><text class="cls-54" transform="translate(33.66 219.97)"><tspan class="cls-38">D</tspan><tspan class="cls-56" x="5.74" y="0">AT</tspan><tspan x="14.86" y="0">A</tspan><tspan x="-12.98" y="10.8">G</tspan><tspan class="cls-58" x="-7.24" y="10.8">A</tspan><tspan x="-2.44" y="10.8">THERING</tspan></text><rect class="cls-59" x="0.41" y="0.53" width="86.59" height="26.73"/><rect class="cls-59" x="0.41" y="121.03" width="86.59" height="29.49"/><rect class="cls-59" x="0.41" y="208.95" width="86.59" height="27"/><line class="cls-59" x1="44.28" y1="27" x2="44.28" y2="121"/><line class="cls-59" x1="43.63" y1="151.52" x2="43.63" y2="208"/></g></svg>