<svg xmlns="http://www.w3.org/2000/svg" viewBox="0 0 804 419"><defs><style>.cls-1{font-size:12px;}.cls-1,.cls-16,.cls-3,.cls-42,.cls-76{fill:#fff;}.cls-1,.cls-16,.cls-3,.cls-76{font-family:FiraSans-Medium, Fira Sans;font-weight:500;}.cls-2{letter-spacing:-0.01em;}.cls-3{font-size:11px;}.cls-4{letter-spacing:-0.01em;}.cls-14,.cls-5{letter-spacing:-0.01em;}.cls-12,.cls-13,.cls-14,.cls-42,.cls-6,.cls-7{font-family:FiraSans-Light, Fira Sans;font-weight:300;}.cls-7{letter-spacing:-0.02em;}.cls-8{letter-spacing:-0.03em;}.cls-9{letter-spacing:0em;}.cls-10{letter-spacing:-0.02em;}.cls-11{font-family:FiraSans-Bold, Fira Sans;font-weight:700;}.cls-12,.cls-62{letter-spacing:-0.01em;}.cls-13{letter-spacing:-0.01em;}.cls-15{letter-spacing:-0.02em;}.cls-16{font-size:10px;}.cls-17{letter-spacing:-0.01em;}.cls-18{letter-spacing:-0.01em;}.cls-19{letter-spacing:-0.04em;}.cls-20{letter-spacing:0em;}.cls-21{letter-spacing:-0.02em;}.cls-22{letter-spacing:-0.01em;}.cls-23{letter-spacing:-0.01em;}.cls-24{letter-spacing:-0.02em;}.cls-25{letter-spacing:-0.02em;}.cls-26{letter-spacing:0em;}.cls-27{letter-spacing:-0.06em;}.cls-28{letter-spacing:-0.01em;}.cls-29{letter-spacing:-0.03em;}.cls-30{letter-spacing:-0.02em;}.cls-31{letter-spacing:0em;}.cls-32{letter-spacing:-0.01em;}.cls-33{letter-spacing:-0.03em;}.cls-34{letter-spacing:0em;}.cls-35{letter-spacing:-0.02em;}.cls-36{letter-spacing:0em;}.cls-37{letter-spacing:0em;}.cls-38{letter-spacing:-0.01em;}.cls-39{letter-spacing:0em;}.cls-40{letter-spacing:-0.03em;}.cls-41{letter-spacing:-0.01em;}.cls-42,.cls-66,.cls-76{font-size:9px;}.cls-43{letter-spacing:-0.01em;}.cls-44{letter-spacing:0em;}.cls-45{letter-spacing:-0.01em;}.cls-46{letter-spacing:-0.02em;}.cls-47{letter-spacing:-0.02em;}.cls-48{letter-spacing:-0.01em;}.cls-49{letter-spacing:-0.01em;}.cls-50{letter-spacing:-0.03em;}.cls-51{letter-spacing:0em;}.cls-52{letter-spacing:-0.01em;}.cls-53{letter-spacing:-0.01em;}.cls-54{letter-spacing:-0.02em;}.cls-55{letter-spacing:-0.03em;}.cls-56,.cls-64,.cls-81{fill:none;}.cls-56,.cls-58,.cls-64{stroke:#95c11f;}.cls-56,.cls-58,.cls-64,.cls-81{stroke-miterlimit:10;stroke-width:0.75px;}.cls-57{fill:#95c11f;}.cls-59{letter-spacing:-0.01em;}.cls-60{letter-spacing:0em;}.cls-61{letter-spacing:-0.01em;}.cls-63{letter-spacing:-0.02em;}.cls-64{stroke-dasharray:2;}.cls-65{letter-spacing:-0.05em;}.cls-66,.cls-70{fill:gray;}.cls-66{font-family:FiraSans-Italic, Fira Sans;font-style:italic;}.cls-67{letter-spacing:-0.03em;}.cls-68{letter-spacing:-0.03em;}.cls-69{letter-spacing:-0.02em;}.cls-71{letter-spacing:-0.01em;}.cls-72{letter-spacing:-0.02em;}.cls-73{letter-spacing:0em;}.cls-74{letter-spacing:-0.06em;}.cls-75{letter-spacing:0em;}.cls-77{letter-spacing:-0.03em;}.cls-78{letter-spacing:-0.05em;}.cls-79{letter-spacing:-0.04em;}.cls-80{letter-spacing:-0.05em;}.cls-81{stroke:#666;}</style></defs><title>protocols</title><g id="图层_2" data-name="图层 2"><text class="cls-1" transform="translate(379.3 9.14)">2 QUERI<tspan class="cls-2" x="42.47" y="0">E</tspan><tspan x="48.71" y="0">S:</tspan></text><text class="cls-3" transform="translate(360.38 137.97)">SEL<tspan class="cls-4" x="17.56" y="0">E</tspan><tspan class="cls-5" x="23.24" y="0">C</tspan><tspan x="29.38" y="0">TING</tspan><tspan class="cls-6" x="52.86" y="0" xml:space="preserve"> the fi</tspan><tspan class="cls-7" x="81.26" y="0">r</tspan><tspan class="cls-6" x="85.16" y="0">st 50 </tspan><tspan class="cls-6"><tspan class="cls-8" x="0.75" y="13.2">r</tspan><tspan x="4.52" y="13.2">esults (if p</tspan><tspan class="cls-8" x="56.46" y="13.2">r</tspan><tspan x="60.24" y="13.2">esent) </tspan><tspan class="cls-5" x="93.94" y="13.2">f</tspan><tspan x="97.36" y="13.2">or </tspan><tspan class="cls-5" x="30.62" y="26.4">e</tspan><tspan x="36.41" y="26.4">ach </tspan><tspan class="cls-9" x="56.96" y="26.4">y</tspan><tspan class="cls-5" x="62.08" y="26.4">e</tspan><tspan x="67.87" y="26.4">ar</tspan></tspan></text><text class="cls-3" transform="translate(257.8 274.18)"><tspan class="cls-10">C</tspan><tspan x="6.03" y="0">OLL</tspan><tspan class="cls-4" x="24.76" y="0">E</tspan><tspan class="cls-5" x="30.45" y="0">C</tspan><tspan x="36.59" y="0">TING</tspan><tspan class="cls-11" x="60.06" y="0"> </tspan><tspan class="cls-6" x="62.67" y="0">the </tspan><tspan class="cls-12" x="81.81" y="0">t</tspan><tspan class="cls-6" x="85.43" y="0">o</tspan><tspan class="cls-13" x="91.71" y="0">t</tspan><tspan class="cls-14" x="95.39" y="0">a</tspan><tspan class="cls-6" x="101.18" y="0">l </tspan><tspan class="cls-6"><tspan x="4.14" y="13.2">amount of news </tspan><tspan class="cls-5" x="86.36" y="13.2">f</tspan><tspan x="89.78" y="13.2">or </tspan><tspan class="cls-5" x="-0.1" y="26.4">e</tspan><tspan x="5.69" y="26.4">ach </tspan><tspan class="cls-9" x="26.24" y="26.4">y</tspan><tspan class="cls-5" x="31.36" y="26.4">e</tspan><tspan x="37.15" y="26.4">ar </tspan><tspan class="cls-15" x="50.22" y="26.4">c</tspan><tspan x="55.19" y="26.4">onside</tspan><tspan class="cls-8" x="88.3" y="26.4">r</tspan><tspan x="92.07" y="26.4">ed</tspan></tspan></text><text class="cls-16" transform="translate(513 7)">A<tspan class="cls-17" x="5.83" y="0">v</tspan><tspan x="10.81" y="0">o</tspan><tspan class="cls-18" x="16.65" y="0">c</tspan><tspan x="21.33" y="0">ado + t</tspan><tspan class="cls-19" x="52.53" y="0">r</tspan><tspan x="56.12" y="0">ade</tspan><tspan class="cls-6"><tspan class="cls-20" x="0" y="12">l</tspan><tspan x="2.79" y="12">ang: ENG</tspan><tspan class="cls-20" x="0" y="24">l</tspan><tspan x="2.79" y="24">o</tspan><tspan class="cls-2" x="8.5" y="24">ca</tspan><tspan x="18.35" y="24">li</tspan><tspan class="cls-21" x="23.89" y="24">z</tspan><tspan x="27.96" y="24">ation: </tspan><tspan class="cls-22" x="55.84" y="24">U</tspan><tspan class="cls-20" x="62.27" y="24">S</tspan><tspan x="67.61" y="24">A</tspan></tspan><tspan x="0" y="39">A</tspan><tspan class="cls-23" x="5.83" y="39">g</tspan><tspan x="11.1" y="39">ua</tspan><tspan class="cls-18" x="22.33" y="39">c</tspan><tspan x="27.01" y="39">a</tspan><tspan class="cls-24" x="32.47" y="39">t</tspan><tspan x="36.05" y="39">e + t</tspan><tspan class="cls-19" x="55.45" y="39">r</tspan><tspan x="59.04" y="39">àfi</tspan><tspan class="cls-25" x="70.38" y="39">c</tspan><tspan class="cls-26" x="74.96" y="39">o</tspan><tspan class="cls-6"><tspan class="cls-20" x="0" y="51">l</tspan><tspan x="2.79" y="51">ang: </tspan><tspan class="cls-2" x="23.88" y="51">E</tspan><tspan x="28.9" y="51">S</tspan><tspan class="cls-20" x="0" y="63">l</tspan><tspan x="2.79" y="63">o</tspan><tspan class="cls-2" x="8.5" y="63">ca</tspan><tspan x="18.35" y="63">li</tspan><tspan class="cls-21" x="23.89" y="63">z</tspan><tspan x="27.96" y="63">ation: MEX</tspan></tspan><tspan class="cls-27" x="0" y="75">Y</tspan><tspan class="cls-18" x="5.11" y="75">e</tspan><tspan x="10.5" y="75">a</tspan><tspan class="cls-28" x="15.96" y="75">r</tspan><tspan class="cls-26" x="19.77" y="75">s</tspan><tspan class="cls-6"><tspan class="cls-19" x="0" y="87">F</tspan><tspan class="cls-29" x="4.46" y="87">r</tspan><tspan x="7.89" y="87">om 20</tspan><tspan class="cls-30" x="35.21" y="87">0</tspan><tspan class="cls-31" x="40.51" y="87">7</tspan><tspan x="44.92" y="87">* </tspan><tspan class="cls-32" x="52.07" y="87">t</tspan><tspan x="55.36" y="87">o 2</tspan><tspan class="cls-33" x="68.65" y="87">0</tspan><tspan class="cls-26" x="73.87" y="87">18</tspan><tspan class="cls-34" x="83.38" y="87">*</tspan><tspan x="87.76" y="87">* </tspan><tspan x="0" y="99">(</tspan><tspan class="cls-31" x="3.24" y="99">*</tspan><tspan x="7.64" y="99">fi</tspan><tspan class="cls-35" x="13.27" y="99">r</tspan><tspan class="cls-36" x="16.82" y="99">st </tspan><tspan class="cls-37" x="27.66" y="99">y</tspan><tspan class="cls-2" x="32.32" y="99">e</tspan><tspan x="37.58" y="99">ar in Goog</tspan><tspan class="cls-20" x="83.42" y="99">l</tspan><tspan x="86.21" y="99">e with </tspan><tspan class="cls-38" x="116.08" y="99">a</tspan><tspan class="cls-39" x="121.29" y="99">v</tspan><tspan class="cls-26" x="125.97" y="99">o</tspan><tspan class="cls-2" x="131.68" y="99">c</tspan><tspan x="136.27" y="99">ado news)</tspan><tspan x="0" y="111">(</tspan><tspan class="cls-34" x="3.24" y="111">*</tspan><tspan class="cls-31" x="7.62" y="111">*</tspan><tspan x="12.02" y="111">f</tspan><tspan class="cls-40" x="15.23" y="111">r</tspan><tspan x="18.66" y="111">om January </tspan><tspan class="cls-41" x="72.15" y="111">t</tspan><tspan x="75.44" y="111">o Oc</tspan><tspan class="cls-32" x="95.54" y="111">t</tspan><tspan x="98.83" y="111">ober)</tspan></tspan></text><text class="cls-42" transform="translate(626.18 272.98)">Bo<tspan class="cls-43" x="10.52" y="0">t</tspan><tspan class="cls-44" x="13.54" y="0">ani</tspan><tspan class="cls-45" x="26.05" y="0">ca</tspan><tspan x="34.91" y="0">l in</tspan><tspan class="cls-45" x="47.66" y="0">f</tspan><tspan x="50.46" y="0">os</tspan><tspan class="cls-46" x="0" y="10.8">C</tspan><tspan x="4.77" y="10.8">onsumption</tspan><tspan class="cls-47" x="0" y="21.6">C</tspan><tspan x="4.79" y="21.6">rime </tspan><tspan class="cls-37" x="25.59" y="21.6">ev</tspan><tspan x="34.6" y="21.6">ents</tspan><tspan class="cls-48" x="0" y="32.4">E</tspan><tspan class="cls-49" x="4.52" y="32.4">n</tspan><tspan x="9.69" y="32.4">vi</tspan><tspan class="cls-50" x="16.35" y="32.4">r</tspan><tspan class="cls-51" x="19.44" y="32.4">onmen</tspan><tspan class="cls-43" x="47.59" y="32.4">t</tspan><tspan class="cls-52" x="50.61" y="32.4">a</tspan><tspan class="cls-51" x="55.34" y="32.4">l i</tspan><tspan class="cls-53" x="62.84" y="32.4">s</tspan><tspan x="66.9" y="32.4">sues</tspan><tspan x="0" y="43.2">H</tspan><tspan class="cls-52" x="6.03" y="43.2">ea</tspan><tspan x="15.5" y="43.2">lth </tspan><tspan class="cls-54" x="28.89" y="43.2">f</tspan><tspan x="31.59" y="43.2">acts</tspan><tspan x="0" y="54">Other</tspan><tspan class="cls-46" x="0" y="64.8">P</tspan><tspan class="cls-50" x="4.95" y="64.8">r</tspan><tspan class="cls-51" x="8.04" y="64.8">oduction g</tspan><tspan class="cls-50" x="50.8" y="64.8">r</tspan><tspan x="53.89" y="64.8">owth</tspan><tspan class="cls-50" x="0" y="75.6">T</tspan><tspan class="cls-55" x="4.19" y="75.6">r</tspan><tspan x="7.23" y="75.6">ade</tspan></text><line class="cls-56" x1="411.49" y1="39.83" x2="411.49" y2="122.52"/><polygon class="cls-57" points="408.43 120.03 408.97 119.52 411.49 122.23 414.01 119.52 414.56 120.03 411.49 123.33 408.43 120.03"/><line class="cls-56" x1="411.49" y1="199.13" x2="411.49" y2="229.67"/><circle class="cls-58" cx="411.49" cy="199.24" r="1.41"/><line class="cls-56" x1="513" y1="229.5" x2="310" y2="229.5"/><line class="cls-56" x1="310.11" y1="229.26" x2="310.11" y2="258.99"/><polygon class="cls-57" points="307.04 256.5 307.59 255.99 310.11 258.7 312.63 255.99 313.17 256.5 310.11 259.8 307.04 256.5"/><line class="cls-56" x1="512.88" y1="229.26" x2="512.88" y2="258.99"/><polygon class="cls-57" points="509.81 256.5 510.36 255.99 512.88 258.7 515.39 255.99 515.94 256.5 512.88 259.8 509.81 256.5"/><text class="cls-3" transform="translate(439.3 273.5)">RETRIEVING<tspan class="cls-6" x="58.01" y="0" xml:space="preserve"> the news </tspan><tspan class="cls-14" x="108.39" y="0">f</tspan><tspan class="cls-6" x="111.81" y="0">ound </tspan><tspan class="cls-6"><tspan class="cls-5" x="-6.09" y="13.2">f</tspan><tspan x="-2.67" y="13.2">or </tspan><tspan class="cls-5" x="10.79" y="13.2">e</tspan><tspan x="16.57" y="13.2">ach </tspan><tspan class="cls-9" x="37.12" y="13.2">y</tspan><tspan class="cls-59" x="42.24" y="13.2">e</tspan><tspan class="cls-60" x="48.03" y="13.2">ar </tspan><tspan class="cls-61" x="61.1" y="13.2">t</tspan><tspan x="64.72" y="13.2">o the </tspan><tspan class="cls-5" x="93.21" y="13.2">c</tspan><tspan x="98.26" y="13.2">a</tspan><tspan class="cls-62" x="104.15" y="13.2">t</tspan><tspan x="107.77" y="13.2">e</tspan><tspan class="cls-4" x="113.67" y="13.2">g</tspan><tspan x="119.06" y="13.2">ories </tspan><tspan x="24.58" y="26.4">of Visu</tspan><tspan class="cls-5" x="57.91" y="26.4">a</tspan><tspan x="63.7" y="26.4">li</tspan><tspan class="cls-63" x="69.79" y="26.4">z</tspan><tspan x="74.27" y="26.4">ation #1</tspan></tspan></text><line class="cls-64" x1="447" y1="4.5" x2="506" y2="4.5"/><line class="cls-64" x1="578" y1="269.96" x2="621" y2="269.96"/><line class="cls-56" x1="310" y1="353" x2="513" y2="353"/><line class="cls-56" x1="513.06" y1="353" x2="513.06" y2="322.5"/><line class="cls-56" x1="310.01" y1="353" x2="310.01" y2="308.75"/><line class="cls-56" x1="412.91" y1="353.42" x2="412.91" y2="380.69"/><polygon class="cls-57" points="409.84 378.2 410.39 377.69 412.91 380.4 415.42 377.69 415.97 378.2 412.91 381.5 409.84 378.2"/><text class="cls-16" transform="translate(379.4 393.29)">VIS<tspan class="cls-2" x="14.18" y="0">U</tspan><tspan x="20.64" y="0">ALIZ</tspan><tspan class="cls-65" x="39.81" y="0">A</tspan><tspan x="45.14" y="0">TION</tspan></text><circle class="cls-58" cx="513.15" cy="320.9" r="1.33"/><circle class="cls-58" cx="310.16" cy="307.57" r="1.18"/><text class="cls-66" transform="translate(391.91 405.77)">RA<tspan class="cls-48" x="10.49" y="0">W</tspan><tspan x="17.78" y="0">g</tspan><tspan class="cls-67" x="23" y="0">r</tspan><tspan x="26.16" y="0">aphs</tspan><tspan x="2.8" y="10.8">Illust</tspan><tspan class="cls-68" x="23.14" y="10.8">r</tspan><tspan x="26.3" y="10.8">a</tspan><tspan class="cls-69" x="31.42" y="10.8">t</tspan><tspan x="34.44" y="10.8">or</tspan></text><path class="cls-70" d="M388.81,401.93l-.54-.09a2.39,2.39,0,0,0-.22-.52l.32-.45a.46.46,0,0,0-.05-.61l-.48-.49a.48.48,0,0,0-.34-.14.51.51,0,0,0-.27.09l-.45.32a2.78,2.78,0,0,0-.54-.22l-.09-.54a.47.47,0,0,0-.47-.39H385a.46.46,0,0,0-.47.39l-.1.55a3.38,3.38,0,0,0-.52.22l-.44-.32a.49.49,0,0,0-.28-.09.48.48,0,0,0-.34.14l-.48.48a.47.47,0,0,0-.05.62l.32.45a2.66,2.66,0,0,0-.21.53l-.54.09a.48.48,0,0,0-.4.47v.68a.48.48,0,0,0,.4.47l.55.09a3.49,3.49,0,0,0,.22.53l-.32.44a.48.48,0,0,0,.05.61l.48.48a.48.48,0,0,0,.34.14.47.47,0,0,0,.28-.09l.45-.32a2.28,2.28,0,0,0,.51.21l.09.54a.48.48,0,0,0,.47.4h.68a.48.48,0,0,0,.47-.4l.09-.54a3.49,3.49,0,0,0,.53-.22l.44.32a.47.47,0,0,0,.28.09.48.48,0,0,0,.34-.14l.48-.48a.47.47,0,0,0,.05-.61l-.32-.45a3.49,3.49,0,0,0,.22-.53l.54-.09a.47.47,0,0,0,.4-.47v-.68a.48.48,0,0,0-.4-.47Zm0,1.15a0,0,0,0,1,0,0l-.68.12a.2.2,0,0,0-.17.16,2.8,2.8,0,0,1-.28.67.23.23,0,0,0,0,.24l.4.56s0,0,0,.05l-.48.48s0,0,0,0h0l-.56-.4a.23.23,0,0,0-.24,0,2.44,2.44,0,0,1-.67.28.2.2,0,0,0-.16.18l-.12.67a0,0,0,0,1,0,0H385a0,0,0,0,1,0,0l-.11-.67a.23.23,0,0,0-.16-.18A2.55,2.55,0,0,1,384,405l-.11,0a.28.28,0,0,0-.13,0l-.56.4h-.06l-.48-.48a.06.06,0,0,1,0-.06l.39-.55a.21.21,0,0,0,0-.24,2.8,2.8,0,0,1-.28-.67.2.2,0,0,0-.18-.16l-.68-.12s0,0,0,0v-.68s0,0,0,0l.68-.11a.23.23,0,0,0,.17-.17,2.44,2.44,0,0,1,.28-.67.23.23,0,0,0,0-.24l-.41-.56a0,0,0,0,1,0-.06l.48-.48h0l.56.39a.21.21,0,0,0,.24,0,2.8,2.8,0,0,1,.67-.28.21.21,0,0,0,.16-.17l.12-.69s0,0,0,0h.68s0,0,0,0l.11.68a.23.23,0,0,0,.16.17,2.53,2.53,0,0,1,.7.29.21.21,0,0,0,.23,0l.56-.4h0l.48.48a0,0,0,0,1,0,.06l-.4.56a.21.21,0,0,0,0,.23,2.38,2.38,0,0,1,.28.68.23.23,0,0,0,.18.16l.67.11a0,0,0,0,1,0,0v.68Zm0,0"/><path class="cls-70" d="M385.35,401.08a1.67,1.67,0,0,0,0,3.33,1.67,1.67,0,1,0,0-3.33Zm0,2.89a1.23,1.23,0,1,1,1.23-1.23,1.23,1.23,0,0,1-1.23,1.23Zm0,0"/><text class="cls-66" transform="translate(373.54 178.6)">Ins<tspan class="cls-46" x="12" y="0">t</tspan><tspan x="15.01" y="0">ant Da</tspan><tspan class="cls-46" x="41.75" y="0">t</tspan><tspan x="44.77" y="0">a Sc</tspan><tspan class="cls-67" x="61.32" y="0">r</tspan><tspan x="64.48" y="0">aper</tspan><tspan x="31.3" y="10.8">E</tspan><tspan class="cls-71" x="36.06" y="10.8">x</tspan><tspan class="cls-46" x="40.28" y="10.8">c</tspan><tspan x="44.35" y="10.8">el</tspan></text><path class="cls-70" d="M371.08,173.77l-.54-.09a3.49,3.49,0,0,0-.22-.53l.32-.44a.5.5,0,0,0-.05-.62l-.48-.48a.48.48,0,0,0-.34-.14.49.49,0,0,0-.28.09l-.44.32a3.76,3.76,0,0,0-.55-.23l-.09-.53a.48.48,0,0,0-.47-.4h-.68a.48.48,0,0,0-.47.4l-.09.55a2.7,2.7,0,0,0-.53.22l-.44-.32a.47.47,0,0,0-.61.05l-.48.48a.49.49,0,0,0-.06.62l.33.45a3.11,3.11,0,0,0-.22.53l-.53.09a.47.47,0,0,0-.4.47v.67a.48.48,0,0,0,.4.48l.54.09a3,3,0,0,0,.23.52l-.32.44a.47.47,0,0,0,.05.62l.48.48a.48.48,0,0,0,.34.14.44.44,0,0,0,.27-.09l.46-.32a4.4,4.4,0,0,0,.5.21l.09.54a.48.48,0,0,0,.48.4H368a.48.48,0,0,0,.47-.4l.09-.54a3,3,0,0,0,.52-.22l.45.32a.47.47,0,0,0,.61,0l.48-.48a.49.49,0,0,0,.06-.62l-.32-.44a2.66,2.66,0,0,0,.21-.53l.55-.09a.47.47,0,0,0,.39-.47v-.68a.46.46,0,0,0-.39-.47Zm0,1.15s0,0,0,0l-.68.11a.22.22,0,0,0-.17.16,3.14,3.14,0,0,1-.28.68.23.23,0,0,0,0,.24l.4.56a0,0,0,0,1,0,0l-.48.48h-.06l-.56-.4a.2.2,0,0,0-.23,0,2.71,2.71,0,0,1-.68.28.21.21,0,0,0-.16.17L368,178s0,0,0,0h-.68a0,0,0,0,1,0,0l-.12-.68a.2.2,0,0,0-.16-.17,2.7,2.7,0,0,1-.66-.27.2.2,0,0,0-.11,0,.17.17,0,0,0-.12,0l-.57.4h-.05l-.48-.48a0,0,0,0,1,0-.06l.4-.56a.21.21,0,0,0,0-.23,2.38,2.38,0,0,1-.28-.68.26.26,0,0,0-.18-.16l-.68-.11s0,0,0,0v-.67a.07.07,0,0,1,0,0l.67-.11a.21.21,0,0,0,.18-.16,2.68,2.68,0,0,1,.27-.68.2.2,0,0,0,0-.23l-.4-.57a0,0,0,0,1,0-.05l.49-.48h.05l.56.4a.21.21,0,0,0,.23,0,2.38,2.38,0,0,1,.68-.28.24.24,0,0,0,.16-.18l.11-.68a0,0,0,0,1,0,0h.67a0,0,0,0,1,.05,0l.11.67a.21.21,0,0,0,.16.18,2.44,2.44,0,0,1,.69.28.21.21,0,0,0,.24,0l.55-.4h0l0,0,.48.48s0,0,0,0l-.39.56a.21.21,0,0,0,0,.24,2.8,2.8,0,0,1,.28.67.2.2,0,0,0,.17.16l.68.12s0,0,0,0v.68Zm0,0"/><path class="cls-70" d="M367.62,172.91a1.67,1.67,0,1,0,0,3.33,1.67,1.67,0,0,0,0-3.33Zm0,2.9a1.23,1.23,0,1,1,1.23-1.23,1.23,1.23,0,0,1-1.23,1.23Zm0,0"/><text class="cls-66" transform="translate(473.12 313.88)"><tspan class="cls-72">V</tspan><tspan class="cls-73" x="4.73" y="0">oy</tspan><tspan x="14.23" y="0">ant </tspan><tspan class="cls-74" x="30.1" y="0">T</tspan><tspan x="34.2" y="0">ool E</tspan><tspan class="cls-71" x="54.29" y="0">x</tspan><tspan class="cls-46" x="58.51" y="0">c</tspan><tspan x="62.58" y="0">el</tspan></text><path class="cls-70" d="M464.17,310.05l-.54-.09a3.08,3.08,0,0,0-.21-.53l.31-.45a.46.46,0,0,0-.05-.61l-.48-.48a.47.47,0,0,0-.61-.05l-.45.32a3.25,3.25,0,0,0-.54-.23l-.09-.53a.48.48,0,0,0-.47-.4h-.68a.47.47,0,0,0-.47.4l-.1.55a2.62,2.62,0,0,0-.52.22l-.44-.32a.47.47,0,0,0-.28-.09.48.48,0,0,0-.34.14l-.48.48a.47.47,0,0,0-.05.61l.32.46a2.57,2.57,0,0,0-.21.52l-.54.09a.48.48,0,0,0-.4.47v.68a.47.47,0,0,0,.4.47l.55.1a3.38,3.38,0,0,0,.22.52l-.32.44a.49.49,0,0,0,.06.62l.48.48a.47.47,0,0,0,.61.05l.45-.32a3.89,3.89,0,0,0,.51.21l.09.54a.48.48,0,0,0,.47.4h.68a.48.48,0,0,0,.47-.4l.09-.54a3.11,3.11,0,0,0,.53-.22l.45.32a.44.44,0,0,0,.27.09.48.48,0,0,0,.34-.14l.48-.48a.49.49,0,0,0,.05-.62l-.32-.45a2.62,2.62,0,0,0,.22-.52l.54-.09a.48.48,0,0,0,.4-.47v-.68a.47.47,0,0,0-.4-.47Zm0,1.15a0,0,0,0,1,0,0l-.67.11a.23.23,0,0,0-.18.16,2.38,2.38,0,0,1-.28.68.21.21,0,0,0,0,.23l.4.56a0,0,0,0,1,0,.06l-.48.48h-.05l-.56-.39a.21.21,0,0,0-.24,0,2.8,2.8,0,0,1-.67.28.2.2,0,0,0-.16.17l-.12.68s0,0,0,0h-.68s0,0,0,0l-.11-.68a.23.23,0,0,0-.16-.17,2.7,2.7,0,0,1-.66-.27.23.23,0,0,0-.11,0,.2.2,0,0,0-.13,0l-.56.4h0a0,0,0,0,1,0,0l-.48-.48a0,0,0,0,1,0-.05l.39-.56a.21.21,0,0,0,0-.24,2.5,2.5,0,0,1-.28-.67.23.23,0,0,0-.17-.16l-.69-.11a.05.05,0,0,1,0-.05v-.68s0,0,0,0l.68-.11a.21.21,0,0,0,.17-.16,2.38,2.38,0,0,1,.28-.68.21.21,0,0,0,0-.23l-.4-.57s0,0,0-.05l.48-.48,0,0h0l.55.4a.23.23,0,0,0,.24,0,2.44,2.44,0,0,1,.67-.28.22.22,0,0,0,.16-.18l.12-.68a0,0,0,0,1,0,0H461a0,0,0,0,1,0,0l.11.67a.23.23,0,0,0,.17.18,2.57,2.57,0,0,1,.69.28.21.21,0,0,0,.23,0l.56-.4h0l0,0,.48.48a0,0,0,0,1,0,.05l-.4.56a.23.23,0,0,0,0,.24,2.44,2.44,0,0,1,.28.67.2.2,0,0,0,.18.16l.67.12a0,0,0,0,1,0,0v.68Zm0,0"/><path class="cls-70" d="M460.71,309.19a1.67,1.67,0,1,0,1.67,1.67,1.66,1.66,0,0,0-1.67-1.67Zm0,2.9a1.23,1.23,0,1,1,1.23-1.23,1.23,1.23,0,0,1-1.23,1.23Zm0,0"/><text class="cls-66" transform="translate(375.5 23.52)">Goog<tspan class="cls-75" x="21.25" y="0">l</tspan><tspan x="23.8" y="0">e N</tspan><tspan class="cls-37" x="36.87" y="0">e</tspan><tspan x="41.51" y="0">ws with</tspan><tspan x="27.75" y="10.8">VPN</tspan></text><path class="cls-70" d="M372.62,19.54l-.54-.09a3.49,3.49,0,0,0-.22-.53l.32-.44a.5.5,0,0,0-.05-.62l-.48-.48a.48.48,0,0,0-.34-.14.47.47,0,0,0-.28.09l-.44.32a2.87,2.87,0,0,0-.55-.22l-.09-.54a.48.48,0,0,0-.47-.4h-.68a.48.48,0,0,0-.47.4l-.09.55a3.49,3.49,0,0,0-.53.22l-.44-.32a.47.47,0,0,0-.61.05l-.49.48a.5.5,0,0,0-.05.62l.33.45a3.49,3.49,0,0,0-.22.53l-.53.09a.48.48,0,0,0-.4.47v.68a.48.48,0,0,0,.4.47l.54.09a2.74,2.74,0,0,0,.23.53l-.32.44a.46.46,0,0,0,.05.61l.48.48a.48.48,0,0,0,.34.14.44.44,0,0,0,.27-.09l.45-.32a2.75,2.75,0,0,0,.51.21l.09.54a.48.48,0,0,0,.47.4h.69a.48.48,0,0,0,.47-.4l.09-.54a3,3,0,0,0,.52-.22l.45.32a.47.47,0,0,0,.61-.05l.48-.48a.47.47,0,0,0,.06-.61l-.32-.45a2.66,2.66,0,0,0,.21-.53l.55-.09a.47.47,0,0,0,.39-.47V20a.46.46,0,0,0-.39-.47Zm0,1.15s0,0,0,0l-.68.12a.19.19,0,0,0-.17.16,2.83,2.83,0,0,1-.29.67.23.23,0,0,0,0,.24l.4.56a0,0,0,0,1,0,.05l-.48.48a0,0,0,0,1,0,0h0l-.56-.4a.21.21,0,0,0-.23,0,2.38,2.38,0,0,1-.68.28.21.21,0,0,0-.16.18l-.11.67s0,0,0,0h-.68a.07.07,0,0,1-.05,0l-.11-.67a.21.21,0,0,0-.16-.18,2.7,2.7,0,0,1-.66-.27.2.2,0,0,0-.11,0,.17.17,0,0,0-.12,0L367,23H367l-.48-.48a0,0,0,0,1,0-.06l.4-.55a.23.23,0,0,0,0-.24,2.73,2.73,0,0,1-.29-.68.2.2,0,0,0-.17-.15l-.68-.12a0,0,0,0,1,0,0V20a0,0,0,0,1,0,0l.67-.12a.2.2,0,0,0,.18-.16,2.77,2.77,0,0,1,.27-.67.21.21,0,0,0,0-.24l-.4-.56a.06.06,0,0,1,0-.06l.48-.48H367l.56.39a.2.2,0,0,0,.23,0,2.71,2.71,0,0,1,.68-.28.23.23,0,0,0,.16-.17l.11-.69a0,0,0,0,1,.05,0h.67a.05.05,0,0,1,0,0l.11.68a.21.21,0,0,0,.16.17,2.78,2.78,0,0,1,.69.28.21.21,0,0,0,.24,0l.55-.4h.06l.48.48s0,0,0,.06l-.39.55a.21.21,0,0,0,0,.24,2.71,2.71,0,0,1,.28.68.23.23,0,0,0,.17.16l.68.11s0,0,0,0v.68Zm0,0"/><path class="cls-70" d="M369.16,18.69a1.67,1.67,0,1,0,1.66,1.66,1.66,1.66,0,0,0-1.66-1.66Zm0,2.89a1.23,1.23,0,1,1,1.23-1.23,1.23,1.23,0,0,1-1.23,1.23Zm0,0"/><circle class="cls-58" cx="411.49" cy="41.24" r="1.41"/></g><g id="图层_1" data-name="图层 1"><text class="cls-76" transform="translate(30.06 11.99)">QUE<tspan class="cls-77" x="16.89" y="0">R</tspan><tspan x="22.13" y="0">Y</tspan><tspan x="-9.36" y="10.8">DEFINITION</tspan></text><text class="cls-76" transform="translate(33.66 142.48)"><tspan class="cls-48">D</tspan><tspan class="cls-78" x="5.74" y="0">AT</tspan><tspan x="14.86" y="0">A</tspan><tspan x="-17.7" y="10.8">EXP</tspan><tspan class="cls-79" x="-2.56" y="10.8">L</tspan><tspan x="1.61" y="10.8">OR</tspan><tspan class="cls-80" x="13.33" y="10.8">A</tspan><tspan x="18.13" y="10.8">TION</tspan></text><text class="cls-76" transform="translate(35.66 276.97)"><tspan class="cls-48">D</tspan><tspan class="cls-78" x="5.74" y="0">AT</tspan><tspan x="14.86" y="0">A</tspan><tspan x="-12.98" y="10.8">G</tspan><tspan class="cls-80" x="-7.24" y="10.8">A</tspan><tspan x="-2.44" y="10.8">THERING</tspan></text><rect class="cls-81" x="0.41" y="0.53" width="86.59" height="26.73"/><rect class="cls-81" x="0.41" y="130.03" width="86.59" height="29.49"/><rect class="cls-81" x="2.41" y="265.95" width="86.59" height="27"/><line class="cls-81" x1="44.16" y1="27" x2="44.16" y2="130"/><line class="cls-81" x1="43.71" y1="159.52" x2="43.71" y2="266"/></g></svg>