<?xml version="1.0" encoding="utf-8"?>
<!-- Generator: Adobe Illustrator 22.1.0, SVG Export Plug-In . SVG Version: 6.00 Build 0)  -->
<svg version="1.1" id="Livello_1" xmlns="http://www.w3.org/2000/svg" xmlns:xlink="http://www.w3.org/1999/xlink" x="0px" y="0px"
	 viewBox="0 0 3020 1887.5" style="enable-background:new 0 0 3020 1887.5;" xml:space="preserve">
<style type="text/css">
	.sto0{display:none;fill:#0B1A26;}
	.sto1{fill:none;stroke:#CCCCCC;stroke-width:0.9933;}
	.sto2{fill:#FFFFFF;}
	.sto3{font-family:'Raleway-SemiBold';}
	.sto4{font-size:36px;}
	.sto5{fill:none;stroke:#FFFFFF;stroke-width:0.25;}
	.sto6{font-family:'Kanit-SemiBold';}
	.sto7{opacity:0.2;fill:#F6F6F6;stroke:#829CBA;stroke-miterlimit:10;enable-background:new    ;}
	.sto8{opacity:0.2;fill:#F6F6F6;enable-background:new    ;}
</style>
<rect x="140" y="43.8" class="sto0" width="2880" height="1800"/>
<g id="base">
	<path class="sto1" d="M907.8,1634.7v-14.9h2095.7v14.9"/>
	<line class="sto1" x1="1116" y1="1619.2" x2="1116" y2="1634.7"/>
	<text transform="matrix(0.9867 0 0 1 1037.764 1680.0879)" class="sto2 sto3 sto4">February</text>
	<line class="sto1" x1="1310.3" y1="1619.2" x2="1310.3" y2="1634.7"/>
	<text transform="matrix(0.9867 0 0 1 1266.3129 1680.0879)" class="sto2 sto3 sto4">March</text>
	<line class="sto1" x1="1525.2" y1="1619.2" x2="1525.2" y2="1634.7"/>
	<text transform="matrix(0.9867 0 0 1 1487.4242 1680.0879)" class="sto2 sto3 sto4">April</text>
	<line class="sto1" x1="1733.4" y1="1619.2" x2="1733.4" y2="1634.7"/>
	<text transform="matrix(0.9867 0 0 1 1698.1478 1680.0879)" class="sto2 sto3 sto4">May</text>
	<line class="sto1" x1="1948.6" y1="1619.2" x2="1948.6" y2="1634.7"/>
	<text transform="matrix(0.9867 0 0 1 1910.1791 1680.0889)" class="sto2 sto3 sto4">June</text>
	<line class="sto1" x1="2156.8" y1="1619.2" x2="2156.8" y2="1634.7"/>
	<text transform="matrix(0.9867 0 0 1 2121.7163 1680.0879)" class="sto2 sto3 sto4">July</text>
	<line class="sto1" x1="2371.9" y1="1619.2" x2="2371.9" y2="1634.7"/>
	<text transform="matrix(0.9867 0 0 1 2323.8188 1680.0879)" class="sto2 sto3 sto4">August</text>
	<line class="sto1" x1="2587.1" y1="1619.2" x2="2587.1" y2="1634.7"/>
	<text transform="matrix(0.9867 0 0 1 2499.2583 1681.041)" class="sto2 sto3 sto4">September</text>
	<line class="sto1" x1="2795.3" y1="1619.2" x2="2795.3" y2="1634.7"/>
	<text transform="matrix(0.9867 0 0 1 2743.0835 1681.041)" class="sto2 sto3 sto4">October</text>
	<line class="sto5" x1="907.8" y1="269.2" x2="907.8" y2="1619.8"/>
	<line class="sto5" x1="1116" y1="269.2" x2="1116" y2="1619.8"/>
	<line class="sto5" x1="1310.3" y1="268.8" x2="1310.3" y2="1619.2"/>
	<line class="sto5" x1="1525.2" y1="269.2" x2="1525.2" y2="1619.8"/>
	<line class="sto5" x1="1733.4" y1="268.8" x2="1733.4" y2="1620.2"/>
	<line class="sto5" x1="1948.6" y1="269.2" x2="1948.6" y2="1619.8"/>
	<line class="sto5" x1="2156.8" y1="269.2" x2="2156.8" y2="1619.8"/>
	<line class="sto5" x1="2371.9" y1="269.2" x2="2371.9" y2="1619.8"/>
	<line class="sto5" x1="2587.1" y1="269.2" x2="2587.1" y2="1619.8"/>
	<line class="sto5" x1="2795.3" y1="269.2" x2="2795.3" y2="1619.8"/>
	<line class="sto5" x1="3003.7" y1="269.2" x2="3003.7" y2="1619.8"/>
	<line class="sto5" x1="907.8" y1="268.8" x2="3003.7" y2="268.8"/>
</g>
<g id="bumpo5">
	<text bumpo="5" transform="matrix(1 0 0 1 215.3637 813.7604)" class="bumper sto2 sto6 sto4">Space Permanence Effects On Humans</text>
	<path class="bumper sto7" d="M907.8,1036.6c107.6,0,218.1,360,325.7,360c97.2,0,97.2-316,194.3-316c107.4,0,107.4,32,214.9,32
		c104.1,0,104.1-57,208.2-57c107.6,0,107.6,221,215.2,221c104.1,0,104.1-322,208.2-322c107.6,0,107.6,392,215.2,392
		s107.6,49,215.2,49c104.1,0,194.8-428,298.9-428v-114c-104.1,0-194.8,542-298.9,542c-107.6,0-107.6-87-215.2-87
		s-107.6-392-215.2-392c-104.1,0-104.1,360-208.2,360c-107.6,0-107.6-221-215.2-221c-104.1,0-104.1,57-208.2,57
		c-107.4,0-107.4-32-214.9-32c-97.2,0-97.2,316-194.3,316C1125.9,1396.6,1015.4,1036.6,907.8,1036.6z"/>
</g>
<g id="bumpo1">
	<text bumpo="1" transform="matrix(1 0 0 1 141.2759 528.9499)" class="bumper sto2 sto6 sto4">Spaceflight &amp; Technological Achievements</text>
	<path class="bumper sto8" d="M907.8,898.5c107.6,0,218.1-114,325.7-114c97.2,0,97.2,38,194.3,38c107.4,0,107.4,76,214.9,76
		c104.1,0,104.1-19,208.2-19c107.6,0,107.6,303,215.2,303c104.1,0,104.1-184,208.2-184c107.6,0,107.6,392,215.2,392
		s107.6,11,215.2,11c104.1,0,194.8-554,298.9-554v-152c-104.1,0-194.8,706-298.9,706c-107.6,0-107.6-49-215.2-49
		s-107.6-392-215.2-392c-104.1,0-104.1,108-208.2,108c-107.6,0-107.6-303-215.2-303c-104.1,0-104.1-57-208.2-57
		c-107.4,0-107.4,38-214.9,38c-97.2,0-97.2-304-194.3-304c-107.6,0-218.1,342-325.7,342L907.8,898.5L907.8,898.5z"/>
</g>
<g id="bumpo6">
	<text bumpo="6" transform="matrix(1 0 0 1 430.2811 884.8504)" class="bumper sto2 sto6 sto4">Colonization Of the Moon</text>
	<path class="bumper sto8" d="M907.8,1049.8c107.6,0,218.1,178,325.7,178c97.2,0,97.2-134,194.3-134c107.4,0,107.4,32,214.9,32
		c104.1,0,104.1-57,208.2-57c107.6,0,107.6,221,215.2,221c104.1,0,104.1-102,208.2-102c107.6,0,107.6-156,215.2-156
		s107.6-215,215.2-215c104.1,0,194.8,480,298.9,480v-76c-104.1,0-194.8-556-298.9-556c-107.6,0-107.6,215-215.2,215
		s-107.6,308-215.2,308c-104.1,0-104.1,102-208.2,102c-107.6,0-107.6-221-215.2-221c-104.1,0-104.1,57-208.2,57
		c-107.4,0-107.4-32-214.9-32c-97.2,0-97.2,20-194.3,20C1125.9,1113.8,1015.4,1049.8,907.8,1049.8z"/>
</g>
<g id="bumpo7">
	<text bumpo="7" transform="matrix(1 0 0 1 460.7714 956.3408)" class="bumper sto2 sto6 sto4">Deep Space Exploration</text>
	<path class="bumper sto7" d="M907.8,1060.6c107.6,0,218.1,354,325.7,354c97.2,0,97.2-310,194.3-310c107.4,0,107.4-112,214.9-112
		c104.1,0,104.1,87,208.2,87c107.6,0,107.6-163,215.2-163c104.1,0,104.1-158,208.2-158c107.6,0,107.6,556,215.2,556
		s107.6-651,215.2-651c104.1,0,194.8,38,298.9,38v-228c-104.1,0-194.8,0-298.9,0c-107.6,0-107.6,727-215.2,727s-107.6-518-215.2-518
		c-104.1,0-104.1,82-208.2,82c-107.6,0-107.6,315-215.2,315c-104.1,0-104.1-163-208.2-163c-107.4,0-107.4,188-214.9,188
		c-97.2,0-97.2,310-194.3,310C1125.9,1414.6,1015.4,1060.6,907.8,1060.6z"/>
</g>
<g id="bumpo8">
	<text bumpo="8" transform="matrix(1 0 0 1 292.222 1027.2341)" class="bumper sto2 sto6 sto4">NASA Human Exploration History</text>
	<path class="bumper sto7" d="M907.8,1072.2c107.6,0,218.1,354,325.7,354c97.2,0,97.2-310,194.3-310c107.4,0,107.4,26,214.9,26
		c104.1,0,104.1-51,208.2-51c107.6,0,107.6,215,215.2,215c104.1,0,104.1-460,208.2-460c107.6,0,107.6,612,215.2,612
		s107.6-271,215.2-271c104.1,0,194.8-82,298.9-82v-114c-104.1,0-194.8,120-298.9,120c-107.6,0-107.6,347-215.2,347
		s-107.6-688-215.2-688c-104.1,0-104.1,536-208.2,536c-107.6,0-107.6-215-215.2-215c-104.1,0-104.1,51-208.2,51
		c-107.4,0-107.4-26-214.9-26c-97.2,0-97.2,310-194.3,310C1125.9,1426.2,1015.4,1072.2,907.8,1072.2z"/>
</g>
<g id="bumpo2">
	<text bumpo="2" transform="matrix(1 0 0 1 246.6472 600.0445)" class="bumper sto2 sto6 sto4">Militarization Of Space Environment</text>
	<path class="bumper sto8" d="M907.8,942.5c107.6,0,218.1,404,325.7,404c97.2,0,97.2-316,194.3-316c107.4,0,107.4,100,214.9,100
		c104.1,0,104.1-51,208.2-51c107.6,0,107.6-17,215.2-17c104.1,0,104.1,124,208.2,124c107.6,0,107.6-4,215.2-4s107.6,31,215.2,31
		c104.1,0,194.8,170,298.9,170l0,0c-104.1,0-194.8-208-298.9-208c-107.6,0-107.6-145-215.2-145s-107.6,156-215.2,156
		c-104.1,0-104.1-276-208.2-276c-107.6,0-107.6,169-215.2,169c-104.1,0-104.1,51-208.2,51c-107.4,0-107.4-138-214.9-138
		c-97.2,0-97.2,316-194.3,316c-107.6,0-218.1-404-325.7-404L907.8,942.5L907.8,942.5z"/>
</g>
<g id="bumpo9">
	<text bumpo="9" transform="matrix(1 0 0 1 439.9271 1098.3503)" class="bumper sto2 sto6 sto4">Space Operation Failures</text>
	<path class="bumper sto7" d="M907.8,1083.6c107.6,0,218.1,354,325.7,354c97.2,0,97.2-340,194.3-340c107.4,0,107.4,32,214.9,32
		c104.1,0,104.1-21,208.2-21c107.6,0,107.6,209,215.2,209c104.1,0,104.1-102,208.2-102c107.6,0,107.6,242,215.2,242
		s107.6-27,215.2-27c104.1,0,194.8-200,298.9-200v-114c-104.1,0-194.8,314-298.9,314c-107.6,0-107.6-11-215.2-11
		s-107.6-204-215.2-204c-104.1,0-104.1,102-208.2,102c-107.6,0-107.6-209-215.2-209c-104.1,0-104.1-17-208.2-17
		c-107.4,0-107.4-32-214.9-32c-97.2,0-97.2,378-194.3,378C1125.9,1437.6,1015.4,1083.6,907.8,1083.6z"/>
</g>
<g id="bumpo3">
	<text bumpo="3" transform="matrix(1 0 0 1 0.1942 670.8503)" class="bumper sto2 sto6 sto4">NASA &amp; Aerospace Private Companies Partnership</text>
	<path class="bumper sto8" d="M907.8,986.5c107.6,0,218.1,316,325.7,316c97.2,0,97.2-398,194.3-398c107.4,0,107.4,158,214.9,158
		c104.1,0,104.1-101,208.2-101c107.6,0,107.6,265,215.2,265c104.1,0,104.1-184,208.2-184c107.6,0,107.6-410,215.2-410
		s107.6,335,215.2,335c104.1,0,194.8,422,298.9,422l0,0c-104.1,0-194.8-574-298.9-574c-107.6,0-107.6-411-215.2-411
		s-107.6,600-215.2,600c-104.1,0-104.1,184-208.2,184c-107.6,0-107.6-303-215.2-303c-104.1,0-104.1,101-208.2,101
		c-107.4,0-107.4-158-214.9-158c-97.2,0-97.2,398-194.3,398c-107.6,0-218.1-278-325.7-278L907.8,986.5L907.8,986.5z"/>
</g>
<g id="bumpo4">
	<text bumpo="4" transform="matrix(1 0 0 1 -0.3816 741.8499)" class="bumper sto2 sto6 sto4">Criticism On Trump Administration Space Program</text>
	<path class="bumper sto8" d="M907.8,1030.6c107.6,0,218.1-88,325.7-88c97.2,0,97.2,162,194.3,162c107.4,0,107.4,32,214.9,32
		c104.1,0,104.1-131,208.2-131c107.6,0,107.6,295,215.2,295c104.1,0,104.1-214,208.2-214c107.6,0,107.6-220,215.2-220
		s107.6,221,215.2,221c104.1,0,194.8,246,298.9,246v-38c-104.1,0-194.8-322-298.9-322c-107.6,0-107.6-335-215.2-335
		s-107.6,410-215.2,410c-104.1,0-104.1,252-208.2,252c-107.6,0-107.6-333-215.2-333c-104.1,0-104.1,169-208.2,169
		c-107.4,0-107.4-32-214.9-32c-97.2,0-97.2-314-194.3-314c-107.6,0-218.1,202-325.7,202L907.8,1030.6L907.8,1030.6z"/>
</g>
<g id="bumpo10">
	<text bumpo="10" transform="matrix(1 0 0 1 110.7491 1170.4045)" class="bumper sto2 sto6 sto4">Public Opinion On Space Exploration Future</text>
	<path class="bumper sto7" d="M907.8,1095.4c107.6,0,218.1,354,325.7,354c97.2,0,97.2-310,194.3-310c107.4,0,107.4,32,214.9,32
		c104.1,0,104.1-51,208.2-51c107.6,0,107.6-345,215.2-345c104.1,0,104.1,164,208.2,164c107.6,0,107.6,536,215.2,536
		s107.6-189,215.2-189c104.1,0,194.8,138,298.9,138l0,0c-104.1,0-194.8-176-298.9-176c-107.6,0-107.6,227-215.2,227
		s-107.6-612-215.2-612c-104.1,0-104.1-278-208.2-278c-107.6,0-107.6,535-215.2,535c-104.1,0-104.1,51-208.2,51
		c-107.4,0-107.4-32-214.9-32c-97.2,0-97.2,310-194.3,310C1125.9,1449.4,1015.4,1095.4,907.8,1095.4z"/>
</g>
<g id="bumpo11">
	<text bumpo="11" transform="matrix(1 0 0 1 510.3808 1241.2495)" class="bumper sto2 sto6 sto4">Colonization Of Mars</text>
	<path class="bumper sto8" d="M907.8,1106.1c107.6,0,218.1,318,325.7,318c97.2,0,97.2-274,194.3-274c107.4,0,107.4,32,214.9,32
		c104.1,0,104.1-99,208.2-99c107.6,0,107.6,221,215.2,221c104.1,0,104.1-140,208.2-140c107.6,0,107.6,322,215.2,322
		s107.6-151,215.2-151c104.1,0,194.8,100,298.9,100l0,0c-104.1,0-194.8-138-298.9-138c-107.6,0-107.6,189-215.2,189
		s-107.6-360-215.2-360c-104.1,0-104.1,140-208.2,140c-107.6,0-107.6-221-215.2-221c-104.1,0-104.1,137-208.2,137
		c-107.4,0-107.4-32-214.9-32c-97.2,0-97.2,236-194.3,236C1125.9,1386.1,1015.4,1106.1,907.8,1106.1z"/>
</g>
<g id="bumpo12">
	<text bumpo="12" transform="matrix(1 0 0 1 467.9721 1312.1035)" class="bumper sto2 sto6 sto4">Billionaires Space Race</text>
	<path class="bumper sto8" d="M907.8,1116.3c107.6,0,218.1,22,325.7,22c97.2,0,97.2-114,194.3-114c107.4,0,107.4,168,214.9,168
		c104.1,0,104.1-57,208.2-57c107.6,0,107.6,209,215.2,209c104.1,0,104.1-108,208.2-108c107.6,0,107.6,260,215.2,260
		s107.6-113,215.2-113c104.1,0,194.8,62,298.9,62l0,0c-104.1,0-194.8-100-298.9-100c-107.6,0-107.6,151-215.2,151
		s-107.6-260-215.2-260c-104.1,0-104.1,108-208.2,108c-107.6,0-107.6-209-215.2-209c-104.1,0-104.1,57-208.2,57
		c-107.4,0-107.4-244-214.9-244c-97.2,0-97.2,38-194.3,38C1125.9,986.3,1015.4,1116.3,907.8,1116.3z"/>
</g>
<g id="bumpo13">
	<text bumpo="13" transform="matrix(1 0 0 1 619.1333 1383.55)" class="bumper sto2 sto6 sto4">Space Tourism</text>
	<path class="bumper sto7" d="M907.8,1128.3c107.6,0,218.1,342,325.7,342c97.2,0,97.2-304,194.3-304c107.4,0,107.4,38,214.9,38
		c104.1,0,104.1-57,208.2-57c107.6,0,107.6,209,215.2,209c104.1,0,104.1-138,208.2-138c107.6,0,107.6,290,215.2,290
		s107.6-75,215.2-75c104.1,0,194.8-12,298.9-12v-38c-104.1,0-194.8,12-298.9,12c-107.6,0-107.6,113-215.2,113s-107.6-328-215.2-328
		c-104.1,0-104.1,176-208.2,176c-107.6,0-107.6-209-215.2-209c-104.1,0-104.1,57-208.2,57c-107.4,0-107.4-38-214.9-38
		c-97.2,0-97.2,304-194.3,304C1125.9,1470.3,1015.4,1128.3,907.8,1128.3z"/>
</g>
</svg>
