<? bump=""xml version="1.0" encoding="utf-8"?>
<!-- Generator: Adobe Illustrator 22.1.0, SVG Export Plug-In . SVG Version: 6.00 Build 0)  -->
<svg version="1.1" id="Livello_1" xmlns="http://www.w3.org/2000/svg" xmlns:xlink="http://www.w3.org/1999/xlink" x="0px" y="0px"
	 viewBox="0 0 3020 1887.5" style="enable-background:new 0 0 3020 1887.5;" xml:space="preserve">
<style type="text/css">
	.st0{display:none;fill:#0B1A26;}
	.st1{fill:none;stroke:#CCCCCC;}
	.st2{fill:#FFFFFF;}
	.st3{font-family:'Kanit-SemiBold';}
	.st4{font-size:36px;}
	.st5{fill:none;stroke:#FFFFFF;stroke-width:0.2414;}
	.st6{fill:none;stroke:#FFFFFF;stroke-width:0.25;}
	.st7{opacity:0.6;fill:#E39778;}
	.st8{enable-background:new    ;}
</style>
<rect x="140" y="43.8" class="st0" width="2880" height="1800"/>
<g transform="translate(0,1060)">
	<path class="st1" d="M907.7,557v-14.9h2095.9V557"/>
	<g transform="translate(98.9765684628301,0)">
		<line class="st1" x1="1005.7" y1="541.5" x2="1005.7" y2="557"/>
		<text transform="matrix(1 0 0 1 935.686 600.0449)" class="st2 st3 st4">February</text>
	</g>
	<g transform="translate(295.92970538849033,0)">
		<line class="st1" x1="1005.7" y1="541.5" x2="1005.7" y2="557"/>
		<text transform="matrix(1 0 0 1 965.8018 600.0449)" class="st2 st3 st4">March</text>
	</g>
	<g transform="translate(513.6918791024272,0)">
		<line class="st1" x1="1005.7" y1="541.5" x2="1005.7" y2="557"/>
		<text transform="matrix(1 0 0 1 969.691 600.0449)" class="st2 st3 st4">April</text>
	</g>
	<g transform="translate(724.713097237063,0)">
		<line class="st1" x1="1005.7" y1="541.5" x2="1005.7" y2="557"/>
		<text transform="matrix(1 0 0 1 970.2477 600.0449)" class="st2 st3 st4">May</text>
	</g>
	<g transform="translate(942.7683559761869,0)">
		<line class="st1" x1="1005.7" y1="541.5" x2="1005.7" y2="557"/>
		<text transform="matrix(1 0 0 1 968.8511 600.0449)" class="st2 st3 st4">June</text>
	</g>
	<g transform="translate(1153.7895741108227,0)">
		<line class="st1" x1="1005.7" y1="541.5" x2="1005.7" y2="557"/>
		<text transform="matrix(1 0 0 1 970.8018 600.0449)" class="st2 st3 st4">July</text>
	</g>
	<g transform="translate(1371.8448328499467,0)">
		<line class="st1" x1="1005.7" y1="541.5" x2="1005.7" y2="557"/>
		<text transform="matrix(1 0 0 1 948.1271 600.0449)" class="st2 st3 st4">August</text>
	</g>
	<g transform="translate(1589.9000915890704,0)">
		<line class="st1" x1="1005.7" y1="541.5" x2="1005.7" y2="557"/>
		<text transform="matrix(1 0 0 1 927.2354 600.0449)" class="st2 st3 st4">September</text>
	</g>
	<g transform="translate(1800.9213097237061,0)">
		<line class="st1" x1="1005.7" y1="541.5" x2="1005.7" y2="557"/>
		<text transform="matrix(1 0 0 1 945.9077 600.0449)" class="st2 st3 st4">October</text>
	</g>
</g>
<line class="st5" x1="1104.7" y1="267" x2="1104.7" y2="1602.1"/>
<line class="st5" x1="907.7" y1="266.5" x2="907.7" y2="1601.7"/>
<line class="st5" x1="1301.6" y1="266.5" x2="1301.6" y2="1601.7"/>
<line class="st5" x1="1519.4" y1="267" x2="1519.4" y2="1602.1"/>
<line class="st5" x1="1730.4" y1="266.5" x2="1730.4" y2="1601.7"/>
<line class="st5" x1="1948.5" y1="266.5" x2="1948.5" y2="1601.7"/>
<line class="st5" x1="2159.5" y1="266.5" x2="2159.5" y2="1601.7"/>
<line class="st5" x1="2377.5" y1="266.5" x2="2377.5" y2="1601.7"/>
<line class="st5" x1="2595.6" y1="266.5" x2="2595.6" y2="1601.7"/>
<line class="st5" x1="2806.6" y1="266.5" x2="2806.6" y2="1601.7"/>
<line class="st5" x1="3003.6" y1="267" x2="3003.6" y2="1602.1"/>
<line class="st6" x1="907.7" y1="266.5" x2="3003.7" y2="266.5"/>
<g id="bump7">
	<text transform="matrix(1 0 0 1 246.5296 1093.1719)" class="st2 st3 st4">Militarization Of Space Environment</text>
	<path class="bumper st7" d="M907.7,1165.8c109,0,207,240.5,316,240.5c98.5,0,98.5-276.5,197-276.5c108.9,0,108.9,207.4,217.8,207.4
		c105.5,0,105.5-50.1,211-50.1c109,0,109-119.2,218.1-119.2c105.5,0,105.5,67,211,67c109,0,109-60,218.1-60
		c109,0,109,231.4,218.1,231.4c105.5,0,183.4-164.3,288.9-164.3l0,0c-105.5,0-183.4,126.2-288.9,126.2c-109,0-109-307.5-218.1-307.5
		c-109,0-109,174.2-218.1,174.2c-105.5,0-105.5-105.1-211-105.1c-109,0-109,119.2-218.1,119.2c-105.5,0-105.5,88.2-211,88.2
		c-108.9,0-108.9-245.4-217.8-245.4c-98.5,0-98.5,314.6-197,314.6C1114.7,1406.3,1016.7,1165.8,907.7,1165.8z"/>
	<path class="bumper st7" d="M1223.7,1407c-54.7-0.1-107.4-61.3-158.3-120.5c-50.2-58.3-102.1-118.6-155.6-120.1c0,0,0,0-0.1,0
		c-0.1,0-0.2,0-0.2,0c-0.1,0-0.2,0-0.3,0c-0.1,0-0.1,0-0.2,0c-0.1,0-0.2,0-0.3,0c-0.1,0-0.1,0-0.2,0c-0.2,0-0.4,0-0.6,0v-1
		c0.3,0,0.6,0,0.9,0c0,0,0,0,0,0c0.3,0,0.6,0,0.9,0c0,0,0,0,0,0c0.2,0,0.4,0,0.6,0c0,0,0,0,0,0c0.1,0,0.2,0,0.3,0c0,0,0,0,0,0
		c0.2,0,0.3,0,0.5,0c0,0,0,0,0,0c53.6,2.3,105.3,62.3,155.2,120.4c50.8,59,103.4,120.1,157.6,120.1c2.9,0,5.7-0.2,8.4-0.7
		c18.4-3.6,34.7-19.5,49.6-48.1c15.4-29.5,27.9-69.4,40-108.1c12.1-38.7,24.6-78.7,40-108.2c17.4-33.3,36.6-49.4,58.9-49.4
		c24.6,0,45.9,12.6,65.1,38.5c17,23,30.9,54.3,44.3,84.5c13.4,30.1,27.2,61.3,44.2,84.3c19,25.6,39.9,38.1,64.1,38.1
		c0,0,0.1,0,0.1,0c52.6,0,79.3-22.4,105.2-44c26-21.7,52.9-44.2,105.8-44.2c54.3,0,82-30.2,108.7-59.5
		c26.9-29.4,54.7-59.7,109.4-59.7c53,0,79.8,26.8,105.9,52.7c25.9,25.8,52.6,52.4,105.1,52.4c54.3,0,81.9-44.2,108.7-86.9
		c26.9-42.9,54.7-87.3,109.4-87.3c24.7,0,46,15.8,65.2,48.3c17.1,28.9,30.9,68,44.4,105.8c13.4,37.8,27.2,76.8,44.2,105.6
		c19,32.2,40,47.8,64.3,47.8c52.6,0,99.1-32,144.2-63c45.1-31.1,91.8-63.2,144.7-63.2v1c-52.6,0-99.1,41.7-144.1,82
		c-45.2,40.5-91.8,82.3-144.8,82.3c-54.9,0-82.7-59-109.6-116c-13.4-28.4-27.2-57.8-44.2-79.4c-19-24.2-40-36-64.3-36
		c-54.4,0-82.1,15.2-108.9,29.9c-26.9,14.8-54.6,30.1-109.2,30.1c-52.9,0-79.8-17.1-105.8-33.6c-25.9-16.4-52.6-33.4-105.2-33.4
		c-54.3,0-82,30.2-108.7,59.5c-26.9,29.4-54.7,59.7-109.4,59.7c-52.6,0-79.4,12.7-105.3,25c-26,12.3-52.9,25.1-105.7,25.1
		c-54.8,0-82.5-52.9-109.3-104c-13.4-25.5-27.2-51.8-44.2-71.2c-19-21.7-40-32.2-64.3-32.2c-21.9,0-40.9,14.1-58.1,43
		c-15.4,25.9-27.9,61-40,95c-12.1,34-24.6,69.2-40.1,95.1c-15.1,25.4-31.6,39.5-50.3,42.7C1229.5,1406.7,1226.6,1407,1223.7,1407z
		 M2496.7,1174.5c54.8,0,82.6,58.9,109.4,115.9c13.4,28.4,27.2,57.8,44.3,79.5c19,24.2,40.1,36,64.4,36c52.6,0,99.1-41.7,144.1-82
		c36.4-32.6,73.7-66,114.5-77.8c-40.5,9.1-77.7,34.7-113.9,59.6c-45.1,31.1-91.8,63.2-144.7,63.2c-24.6,0-45.9-15.8-65.1-48.3
		c-17.1-28.9-30.9-68-44.3-105.8c-13.4-37.8-27.3-76.9-44.3-105.6c-19-32.2-40.1-47.8-64.4-47.8c-54.2,0-81.8,44.1-108.6,86.8
		c-23.9,38.2-48.6,77.7-92.5,85.8c43.4-2.8,67.9-16.3,91.7-29.4C2414.2,1189.7,2442,1174.5,2496.7,1174.5z M1420.7,1092.3
		c-21.9,0-40.9,16-58,48.9c-15.4,29.5-27.9,69.4-40,108.1c-12.1,38.7-24.6,78.7-40,108.2c-9.1,17.4-18.7,30.2-29.1,38.4
		c10-7.1,19.3-18.1,28.2-33c15.4-25.9,27.9-61,40-95c12.1-34,24.6-69.2,40.1-95.1c17.4-29.2,36.6-43.4,58.9-43.4
		c54.8,0,82.5,52.9,109.3,104c13.4,25.5,27.2,51.8,44.2,71.2c10.7,12.2,22,20.9,34.2,26.1c-12.5-6.3-24.1-16.7-35-31.4
		c-17-23-30.9-54.3-44.3-84.5c-13.4-30.1-27.2-61.3-44.2-84.3C1466,1104.8,1445,1092.3,1420.7,1092.3z M2067.6,1130.3
		c-54.3,0-81.9,30.2-108.6,59.4c-26.9,29.4-54.7,59.8-109.5,59.8c-52.6,0-79.3,22.4-105.2,44c-21,17.6-42.6,35.6-77.9,41.9
		c35.1-3.6,56.5-13.8,77.4-23.7c26-12.3,52.9-25.1,105.7-25.1c54.3,0,81.9-30.2,108.6-59.4c26.9-29.4,54.7-59.8,109.5-59.8
		c52.9,0,79.8,17.1,105.8,33.6c20.8,13.2,42.2,26.8,77.3,31.6c-35.4-7.5-56.9-29-77.9-49.9C2146.9,1157,2120.2,1130.3,2067.6,1130.3
		z"/>
</g>
<g id="bump8" bump="8">
	<text transform="matrix(1 0 0 1 430.1642 1163.8049)" class="bumper st2 st3 st4">Colonization Of the Moon</text>
	<path class="bumper st7" d="M907.7,1177.9c109,0,207,78.2,316,78.2c98.5,0,98.5,36,197,36c108.9,0,108.9-17,217.8-17
		c105.5,0,105.5-126.2,211-126.2c109,0,109,69.1,218.1,69.1c105.5,0,105.5-321.6,211-321.6c109,0,109,328.6,218.1,328.6
		c109.1,0,109-385.8,218.1-385.8c105.5,0,183.4,414.7,288.9,414.7l0,0c-105.5,0-183.4-529-288.9-529c-109,0-109,461.9-218.1,461.9
		s-109-366.7-218.1-366.7c-105.5,0-105.5,359.7-211,359.7c-109,0-109-107.2-218.1-107.2c-105.5,0-105.5,126.2-211,126.2
		c-108.9,0-108.9,93.1-217.8,93.1c-98.5,0-98.5-112.2-197-112.2C1114.7,1180.1,1016.7,1177.9,907.7,1177.9z"/>
</g>
<g id="bump3" bump="3">
	<text transform="matrix(1 0 0 1 171.9734 810.4103)" class="bumper st2 st3 st4">Human Life Development in Outer Space</text>
	<path class="bumper st7" d="M907.7,1003.7c109,0,207,164.3,316,164.3c98.5,0,98.5-88.2,197-88.2c108.9,0,108.9-145.3,217.8-145.3
		c105.5,0,105.5-202.4,211-202.4c109,0,109,95.2,218.1,95.2c105.5,0,105.5,295.5,211,295.5c109,0,109,152.3,218.1,152.3
		c109.1,0,109-309.6,218.1-309.6c105.5,0,183.4-138.2,288.9-138.2V675c-105.5,0-183.4,176.3-288.9,176.3
		c-109,0-109,385.8-218.1,385.8s-109-152.3-218.1-152.3c-105.5,0-105.5-447.8-211-447.8c-109,0-109-95.2-218.1-95.2
		c-105.5,0-105.5,240.5-211,240.5c-108.9,0-108.9,221.4-217.8,221.4c-98.5,0-98.5,50.1-197,50.1c-109,0-207-88.2-316-88.2V1003.7z"
		/>
</g>
<g id="bump9" bump="9">
	<text transform="matrix(1 0 0 1 609.3309 1234.7257)" class="bumper st2 st3 st4">Science Fiction</text>
	<path class="bumper st7" d="M907.7,1189.9c109,0,207,154.4,316,154.4c98.5,0,98.5-352.6,197-352.6c108.9,0,108.9,69.1,217.8,69.1
		c105.5,0,105.5,276.5,211,276.5c109,0,109-57.1,218.1-57.1c105.5,0,105.5-33.1,211-33.1c109,0,109,40.2,218.1,40.2
		c109.1,0,109-107.2,218.1-107.2c105.5,0,183.4-138.2,288.9-138.2v-76.2c-105.5,0-183.4,138.2-288.9,138.2
		c-109,0-109,183.4-218.1,183.4s-109-40.2-218.1-40.2c-105.5,0-105.5,33.1-211,33.1c-109,0-109,19-218.1,19
		c-105.5,0-105.5-352.6-211-352.6c-108.9,0-108.9-107.2-217.8-107.2c-98.5,0-98.5,428.8-197,428.8
		C1114.7,1268.2,1016.7,1189.9,907.7,1189.9z"/>
	<path class="bumper st7" d="M1223.7,1344.8c-54.7,0-107.3-39.3-158.3-77.3c-50.8-37.9-103.4-77.1-157.7-77.1v-1
		c54.6,0,107.3,19.9,158.3,39.2c50.8,19.2,103.4,39.1,157.7,39.1c21.9,0,40.8-21.8,58-66.7c15.4-40.2,27.9-94.6,40-147.3
		c12.1-52.7,24.6-107.2,40-147.5c17.3-45.3,36.6-67.3,59-67.3c54.7,0,82.4,27.3,109.3,53.7c26.7,26.3,54.3,53.5,108.5,53.5
		c23.9,0,44.5,18.1,63.1,55.4c16.5,33.1,29.9,77.9,42.9,121.3c13,43.3,26.4,88.1,42.8,121.1c18.4,36.9,38.7,54.8,62.2,54.8
		c54.5,0,82.2-4.8,109-9.5c26.8-4.7,54.5-9.5,109.1-9.5c52.7,0,79.5-8.4,105.4-16.5c26-8.1,52.8-16.6,105.6-16.6
		c54.6,0,82.4,10.2,109.2,20.1c26.5,9.8,53.9,19.9,107.5,20.1c0.5,0,0.9,0,1.4,0c0,0,0.1,0,0.1,0c54.2-0.1,81.9-46.5,108.6-91.5
		c26.9-45.2,54.7-91.9,109.4-91.9c52.6,0,99.1-35.1,144.1-69c45.1-34,91.8-69.2,144.8-69.2h0.5v77.2h-0.5
		c-52.6,0-99.1,35.1-144.1,69c-45.1,34-91.8,69.2-144.8,69.2c-54.3,0-82,27.2-108.7,53.5c-26.9,26.4-54.6,53.7-109.3,53.7
		c-0.7,0-1.3,0-2,0c0,0,0,0,0,0c-0.4,0-0.7,0-1.1,0c0,0,0,0,0,0c-52.7-0.4-79.9-10.4-106.3-20.1c-26.8-9.9-54.4-20.1-108.8-20.1
		c-52.7,0-79.5,8.4-105.4,16.5c-26,8.1-52.8,16.6-105.6,16.6c-54.4,0-82.1,14.5-108.9,28.5c-26.9,14.1-54.6,28.6-109.2,28.6
		c-23.8,0-44.5-14.2-63.1-43.4c-16.5-26-29.9-61.1-42.9-95.1c-13-34-26.4-69.1-42.8-95c-18.4-28.9-38.7-43-62.2-43
		c-54.6,0-82.3-17.6-109.2-34.6c-26.7-16.9-54.3-34.5-108.6-34.5c-21.9,0-40.9,17.9-58,54.8c-15.4,33-27.9,77.8-40,121.1
		c-12.1,43.4-24.6,88.2-40,121.3C1265.3,1326.7,1246,1344.8,1223.7,1344.8z M929.7,1191.5c46.8,8.5,92.2,42.4,136.3,75.3
		c50.8,37.9,103.4,77.1,157.7,77.1c21.9,0,40.9-17.9,58-54.8c15.4-33,27.9-77.8,40-121.1c12.1-43.4,24.6-88.2,40-121.3
		c17.4-37.3,36.6-55.4,58.9-55.4c54.6,0,82.3,17.6,109.2,34.6c26.7,16.9,54.3,34.5,108.6,34.5c23.8,0,44.5,14.2,63.1,43.4
		c16.5,26,29.9,61.1,42.9,95.1c13,34,26.4,69.1,42.8,95c18.4,28.9,38.7,43,62.2,43c54.4,0,82-14.5,108.8-28.5
		c21.7-11.4,44-23,80.6-27.1c-36.4,1.4-58.6,5.2-80.2,9c-26.8,4.7-54.6,9.5-109.2,9.5c-23.9,0-44.5-18.1-63.1-55.4
		c-16.5-33.1-29.9-77.9-42.9-121.3c-13-43.3-26.4-88.1-42.8-121.1c-18.4-36.9-38.7-54.8-62.2-54.8c-54.7,0-82.4-27.3-109.3-53.7
		c-26.7-26.3-54.3-53.5-108.5-53.5c-21.9,0-40.8,21.8-58,66.7c-15.4,40.2-27.9,94.6-40,147.3c-12.1,52.7-24.6,107.2-40,147.5
		c-17.3,45.3-36.6,67.3-59,67.3c-54.6,0-107.2-19.9-158.1-39.2C1021.6,1212.9,976.3,1195.8,929.7,1191.5z M3003.2,966.3
		c-52.4,0.2-98.8,35.2-143.6,69c-45.1,34-91.8,69.2-144.8,69.2c-54.2,0-81.8,46.5-108.6,91.4c-23.2,39.1-47.2,79.3-88.7,89.5
		c41-6,64.8-29.3,87.8-52c26.9-26.4,54.6-53.7,109.4-53.7c52.6,0,99.1-35.1,144.1-69c45-33.9,91.5-69,144.3-69.2V966.3z"/>
</g>
<g id="bump2" bump="2">
	<text transform="matrix(1 0 0 1 141.1583 739.5923)" class="bumper st2 st3 st4">Spaceflight &amp; Technological Achievements</text>
	<g class="bumper st8">
		<path class="bumper st7" d="M907.7,953.7c109,0,207-76.2,316-76.2c98.5,0,98.5,302.6,197,302.6c108.9,0,108.9-409.8,217.8-409.8
			c105.5,0,105.5,164.3,211,164.3c109,0,109,183.4,218.1,183.4c105.5,0,105.5-133.3,211-133.3c109,0,109,314.6,218.1,314.6
			c109.1,0,109-31,218.1-31c105.5,0,183.4-314.6,288.9-314.6V839.3c-105.5,0-183.4,352.6-288.9,352.6c-109,0-109,107.2-218.1,107.2
			s-109-390.7-218.1-390.7c-105.5,0-105.5,95.2-211,95.2c-109,0-109-259.5-218.1-259.5c-105.5,0-105.5-164.3-211-164.3
			c-108.9,0-108.9,562.1-217.8,562.1c-98.5,0-98.5-416.8-197-416.8c-109,0-207,152.3-316,152.3V953.7z"/>
	</g>
</g>
<g id="bump4" bump="4">
	<text transform="matrix(1 0 0 1 467.8893 881.5023)" class="bumper st2 st3 st4">Billionaires Space Race</text>
	<path class="bumper st7" d="M907.7,1053.8c109,0,207,364.6,316,364.6c98.5,0,98.5-114.2,197-114.2c108.9,0,108.9,45.1,217.8,45.1
		c105.5,0,105.5-288.5,211-288.5c109,0,109,207.4,218.1,207.4c105.5,0,105.5-95.2,211-95.2c109,0,109,138.2,218.1,138.2
		c109.1,0,109,145.3,218.1,145.3c105.5,0,183.4-326.6,288.9-326.6v-76.1c-105.5,0-183.4,364.6-288.9,364.6
		c-109,0-109-107.2-218.1-107.2s-109-176.3-218.1-176.3c-105.5,0-105.5,95.2-211,95.2c-109,0-109-283.5-218.1-283.5
		c-105.5,0-105.5,402.7-211,402.7c-108.9,0-108.9-45.1-217.8-45.1c-98.5,0-98.5,114.2-197,114.2c-109,0-207-402.7-316-402.7V1053.8z
		"/>
	<path class="bumper st7" d="M2714.8,1457c-54.8,0-82.6-37-109.5-72.8c-26.7-35.6-54.3-72.5-108.6-72.5c-54.8,0-82.6-35.2-109.5-69.3
		c-26.7-33.9-54.4-68.9-108.6-68.9c-52.6,0-79.3,24.1-105.2,47.5c-26,23.5-52.9,47.7-105.8,47.7c-54.9,0-82.7-52.9-109.5-104
		c-13.4-25.5-27.2-51.8-44.2-71.2c-19-21.7-40-32.2-64.3-32.2c-23.5,0-43.8,14.7-62.2,44.8c-16.5,27-29.9,63.6-42.8,99.1
		c-13,35.5-26.4,72.2-42.9,99.3c-18.6,30.5-39.2,45.3-63.1,45.3c-54.5,0-82.3-11.5-109.1-22.6c-26.7-11.1-54.4-22.5-108.7-22.5
		c-49,0-74,28.9-98.1,56.9c-24.3,28.2-49.4,57.3-98.9,57.3c-24.6,0-50.9-18.7-80.4-57.2c-26.2-34.2-52.6-80.6-78-125.4
		c-50.8-89.5-103.4-182-157.6-182h-0.5v-39.1h0.5c24.6,0,50.9,20.7,80.4,63.1c26.2,37.8,52.6,89,78,138.5
		c50.8,98.9,103.4,201.1,157.6,201.1c49,0,74-28.9,98.1-56.9c24.3-28.2,49.4-57.3,98.9-57.3c54.5,0,82.3,11.5,109.1,22.6
		c26.7,11.1,54.4,22.5,108.7,22.5c23.4,0,43.8-20.5,62.2-62.6c16.5-37.7,29.9-88.9,42.8-138.4c13-49.5,26.4-100.7,42.9-138.5
		c18.6-42.5,39.2-63.2,63.1-63.2c24.7,0,46,14.6,65.2,44.5c17.1,26.6,30.9,62.7,44.4,97.6c13.4,34.8,27.2,70.8,44.2,97.3
		c19,29.6,40,44,64.3,44c52.6,0,79.3-24.1,105.2-47.5c26-23.5,52.9-47.7,105.8-47.7c54.8,0,82.6,44.9,109.5,88.4
		c26.7,43.2,54.4,87.9,108.6,87.9c54.8,0,82.6,27.3,109.5,53.8c26.7,26.3,54.4,53.4,108.6,53.4c52.4,0,99-92.5,144-182
		c22.5-44.8,45.9-91.2,69.7-125.4c26.8-38.5,51.4-57.2,75.2-57.2h0.5v77.1h-0.5c-52.5,0-99,82.9-144,163
		c-22.5,40.2-45.9,81.7-69.7,112.3C2763.2,1440.2,2738.6,1457,2714.8,1457z M2525.9,1314.6c36.4,10.5,58.7,40.1,80.3,68.9
		c26.7,35.6,54.3,72.5,108.6,72.5c52.5,0,99-82.9,144-163c22.5-40.2,45.9-81.7,69.7-112.3c26.6-34.2,51-51,74.7-51.2v-75.1
		c-52.2,0.6-98.6,92.8-143.5,182c-22.5,44.8-45.9,91.2-69.7,125.4c-26.8,38.5-51.4,57.2-75.2,57.2c-54.7,0-82.5-27.3-109.3-53.7
		C2584,1344,2561.9,1322.3,2525.9,1314.6z M908.2,1053.3c24.5,0.3,50.6,19,79.9,57.2c26.2,34.2,52.6,80.6,78,125.4
		c39.9,70.3,80.9,142.5,122.9,170.2c-14.5-10.4-29.6-27.1-45.8-50.3c-26.2-37.8-52.6-89-78-138.5c-50.7-98.6-103-200.5-157.1-201.1
		V1053.3z M1849.5,947c-23.4,0-43.8,20.5-62.2,62.6c-16.5,37.7-29.9,88.9-42.8,138.4c-13,49.5-26.4,100.7-42.9,138.5
		c-14,32.1-29.2,51.7-46.1,59.5c16.5-5.5,31.4-19.4,45.2-42.1c16.5-27,29.9-63.6,42.8-99.1c13-35.5,26.4-72.2,42.9-99.3
		c18.6-30.5,39.2-45.3,63.1-45.3c54.8,0,82.6,52.8,109.4,103.9c13.4,25.5,27.2,51.8,44.3,71.2c19,21.7,40.1,32.2,64.4,32.2
		c52.6,0,79.3-24.1,105.2-47.5c26-23.5,52.9-47.7,105.8-47.7c54.7,0,82.5,35.2,109.4,69.3c21.4,27.2,43.4,55,79.3,65.1
		c-36.3-12.8-58.5-48.6-80-83.5c-26.7-43.2-54.4-87.9-108.6-87.9c-52.6,0-79.3,24.1-105.2,47.5c-26,23.5-52.9,47.7-105.8,47.7
		c-24.6,0-45.9-14.6-65.1-44.5c-17.1-26.6-30.9-62.7-44.3-97.5c-13.4-34.8-27.3-70.8-44.3-97.4C1894.9,961.5,1873.8,947,1849.5,947z
		"/>
</g>
<g id="bump10" bump="10">
	<text transform="matrix(1 0 0 1 619.0152 1305.5282)" class="bumper st2 st3 st4">Space Tourism</text>
	<path class="bumper st7" d="M907.7,1201.9c109,0,207,228.5,316,228.5c98.5,0,98.5-114.2,197-114.2c108.9,0,108.9,45.1,217.8,45.1
		c105.5,0,105.5,38.1,211,38.1c109,0,109-107.2,218.1-107.2c105.5,0,105.5-219.4,211-219.4c109,0,109,250.4,218.1,250.4
		c109.1,0,109-231.4,218.1-231.4c105.5,0,183.4,174.2,288.9,174.2l0,0c-105.5,0-183.4-288.5-288.9-288.5
		c-109,0-109,345.6-218.1,345.6s-109-326.6-218.1-326.6c-105.5,0-105.5,295.5-211,295.5c-109,0-109,107.2-218.1,107.2
		c-105.5,0-105.5-38.1-211-38.1c-108.9,0-108.9-45.1-217.8-45.1c-98.5,0-98.5,114.2-197,114.2
		C1114.7,1430.4,1016.7,1201.9,907.7,1201.9z"/>
	<path class="bumper st7" d="M1223.7,1431c-54.7,0-107.4-58.2-158.4-114.4c-49.3-54.4-100.2-110.6-152.8-113.9c0,0-0.1,0-0.1,0c0,0,0,0,0,0
		c0,0-0.1,0-0.1,0c0,0,0,0,0,0c-0.1,0-0.1,0-0.2,0c0,0,0,0-0.1,0c0,0,0,0,0,0c0,0,0,0-0.1,0c-0.2,0-0.4,0-0.6,0h0c0,0-0.1,0-0.1,0
		l0,0c0,0-0.1,0-0.1,0c0,0-0.1,0-0.1,0c0,0-0.1,0-0.1,0c-0.1,0-0.2,0-0.2,0c0,0,0,0-0.1,0c0,0-0.1,0-0.1,0c0,0,0,0,0,0
		c-0.1,0-0.2,0-0.2,0c0,0,0,0,0,0c-0.3,0-0.7,0-1,0h0c-0.1,0-0.2,0-0.2,0c-0.1,0-0.2,0-0.3,0c-0.1,0-0.1,0-0.2,0c0,0,0,0,0,0
		c-0.3,0-0.6,0-0.9,0v-1c0.3,0,0.6,0,1,0h0c0.1,0,0.2,0,0.3,0c0.1,0,0.1,0,0.2,0c0,0,0,0,0,0c0,0,0.1,0,0.1,0
		c54.1,1.1,106.3,58.6,156.8,114.3c50.8,56,103.3,114,157.6,114c0,0,0.1,0,0.1,0c49,0,74-28.9,98.1-56.9
		c24.3-28.2,49.4-57.3,98.9-57.3c54.5,0,82.3,11.5,109.1,22.6c26.7,11.1,54.4,22.5,108.7,22.5c52.8,0,79.7,9.7,105.7,19.1
		c25.9,9.4,52.7,19,105.3,19c54.4,0,82-27.2,108.8-53.5c26.9-26.4,54.7-53.7,109.3-53.7c23.5,0,43.8-15,62.2-45.9
		c16.5-27.7,29.9-65.2,42.8-101.5c13-36.3,26.4-73.9,42.9-101.7c18.6-31.2,39.2-46.4,63.1-46.4c24.7,0,46,16.8,65.2,51.3
		c17.1,30.7,30.9,72.2,44.3,112.4c13.4,40.1,27.2,81.6,44.2,112.2c19,34.2,40.1,50.8,64.3,50.8s45.3-17.6,64.3-53.8
		c17-32.4,30.9-76.3,44.3-118.8c13.4-42.5,27.3-86.4,44.3-118.8c19.2-36.5,40.5-54.2,65.2-54.2c23.8,0,48.4,14.8,75.2,45.2
		c23.8,27.1,47.1,63.8,69.7,99.2c45,70.8,91.5,143.9,143.9,144c0,0,0.1,0,0.1,0v1c0,0-0.1,0-0.1,0c-52.9,0-99.6-44.4-144.7-87.2
		c-45-42.8-91.6-87-144.1-87c-24.3,0-45.4,11.8-64.4,36c-17,21.6-30.8,51-44.2,79.4c-26.9,57-54.6,116-109.5,116
		c-24.6,0-46-12.9-65.2-39.3c-17.1-23.5-31-55.4-44.4-86.2c-13.4-30.7-27.2-62.5-44.2-86c-19-26.2-40-38.9-64.3-38.9
		c-23.5,0-43.9,11.2-62.2,34.1c-16.4,20.5-29.8,48.4-42.8,75.3c-26,54.1-52.9,110-106,110c-54.4,0-82,27.2-108.8,53.5
		c-26.9,26.4-54.7,53.7-109.3,53.7c-52.8,0-79.7-9.7-105.7-19.1c-25.9-9.4-52.7-19-105.3-19c-54.5,0-82.3-11.5-109.1-22.6
		c-26.7-11.1-54.4-22.5-108.7-22.5c-49,0-74,28.9-98.1,56.9C1298.3,1401.8,1273.2,1431,1223.7,1431z M2714.8,978
		c-24.2,0-45.3,17.6-64.3,53.7c-17,32.3-30.9,76.2-44.2,118.7c-13.4,42.5-27.3,86.5-44.4,118.9c-14.8,28.1-30.8,45.1-48.7,51.4
		c17.5-4.2,33.3-15.5,47.8-34c17-21.6,30.8-51,44.2-79.4c26.9-57,54.6-116,109.5-116c52.9,0,99.6,44.3,144.8,87.2
		c40,38,81.2,77.1,126.8,85.4c-18.4-5.4-37.5-19.5-57.8-42.7c-23.8-27.1-47.1-63.8-69.7-99.2C2813.8,1051.3,2767.3,978,2714.8,978z
		 M2278.6,1072.3c24.6,0,45.9,12.9,65.1,39.3c17.1,23.5,30.9,55.4,44.3,86.1c13.4,30.8,27.2,62.6,44.3,86c13.5,18.6,28,30.4,44,35.7
		c-16.3-6.9-31.1-22.5-44.8-47.2c-17.1-30.7-30.9-72.2-44.3-112.4c-13.4-40.1-27.2-81.6-44.2-112.2c-19-34.2-40.1-50.8-64.3-50.8
		c-23.5,0-43.8,15-62.2,45.9c-16.5,27.7-29.9,65.2-42.8,101.5c-13,36.3-26.4,73.9-42.9,101.7c-13.6,22.9-28.3,37.1-44.6,43.1
		c15.9-4.5,30.4-14.9,43.7-31.6c16.4-20.5,29.8-48.4,42.8-75.3C2198.7,1128.3,2225.5,1072.3,2278.6,1072.3z"/>
</g>
<g id="bump5" bump="5">
	<text transform="matrix(1 0 0 1 231.2652 952.103)" class="bumper st2 st3 st4">Skepticism about Space Colonization</text>
	<path class="bumper st7" d="M907.7,1103.8c109,0,207-62.1,316-62.1c98.5,0,98.5,188.3,197,188.3c108.9,0,108.9,143.2,217.8,143.2
		c105.5,0,105.5-136.2,211-136.2c109,0,109,67,218.1,67c105.5,0,105.5-81.1,211-81.1c109,0,109-174.2,218.1-174.2
		c109.1,0,109,307.5,218.1,307.5c105.5,0,183.4-176.3,288.9-176.3v-38.1c-105.5,0-183.4,138.2-288.9,138.2
		c-109,0-109-421.8-218.1-421.8s-109,326.6-218.1,326.6c-105.5,0-105.5,119.2-211,119.2c-109,0-109-143.2-218.1-143.2
		c-105.5,0-105.5,212.3-211,212.3c-108.9,0-108.9-181.3-217.8-181.3c-98.5,0-98.5-302.6-197-302.6c-109,0-207,176.3-316,176.3
		V1103.8z"/>
</g>
<g id="bump1" bump="1">
	<text transform="matrix(1 0 0 1 510.2982 668.4066)" class="bumper st2 st3 st4">Colonization Of Mars</text>
	<path class="bumper st7" d="M907.7,865.5c109,0,207-152.3,316-152.3c98.5,0,98.5,114.2,197,114.2c108.9,0,108.9,359.7,217.8,359.7
		c105.5,0,105.5,224.3,211,224.3c109,0,109-419.7,218.1-419.7c105.5,0,105.5-183.4,211-183.4c109,0,109,38.1,218.1,38.1
		c109.1,0,109-133.3,218.1-133.3c105.5,0,183.4,517,288.9,517V1192c-105.5,0-183.4-745.4-288.9-745.4c-109,0-109,171.4-218.1,171.4
		s-109,76.2-218.1,76.2c-105.5,0-105.5,145.3-211,145.3c-109,0-109,572-218.1,572c-105.5,0-105.5-338.6-211-338.6
		c-108.9,0-108.9-435.8-217.8-435.8c-98.5,0-98.5-114.2-197-114.2c-109,0-207,228.5-316,228.5V865.5z"/>
</g>
<g id="bump6" bump="6">
	<text transform="matrix(1 0 0 1 215.2466 1022.7628)" class="bumper st2 st3 st4">Space Permanence Effects On Humans</text>
	<path class="bumper st7" d="M907.7,1153.9c109,0,207,240.5,316,240.5c98.5,0,98.5-114.2,197-114.2c108.9,0,108.9,45.1,217.8,45.1
		c105.5,0,105.5,62.1,211,62.1c109,0,109-71.2,218.1-71.2c105.5,0,105.5-57.1,211-57.1c109,0,109,76.2,218.1,76.2
		c109.1,0,109,171.4,218.1,171.4c105.5,0,183.4-228.5,288.9-228.5l0,0c-105.5,0-183.4,190.4-288.9,190.4
		c-109,0-109-133.3-218.1-133.3s-109-76.2-218.1-76.2c-105.5,0-105.5,57.1-211,57.1c-109,0-109,33.1-218.1,33.1
		c-105.5,0-105.5-62.1-211-62.1c-108.9,0-108.9-45.1-217.8-45.1c-98.5,0-98.5,114.2-197,114.2c-109,0-207-240.5-316-240.5V1153.9z"
		/>
	<path class="bumper st7" d="M2714.8,1507.2c-54.8,0-82.6-43.7-109.5-85.9c-26.7-42-54.4-85.5-108.6-85.5c-0.3,0-0.7,0-1,0
		c-0.1,0-0.3,0-0.4,0c-0.1,0-0.2,0-0.3,0c-53.6-0.4-81-19.6-107.6-38.2c-26.7-18.7-54.4-38-108.7-38c-52.6,0-79.4,14.5-105.3,28.5
		c-26,14.1-52.9,28.6-105.7,28.6c-54.4,0-82.1,18.1-108.8,35.5c-26.9,17.5-54.6,35.7-109.3,35.7c-52.9,0-79.8-15.8-105.8-31.1
		c-25.9-15.2-52.6-31-105.2-31c-54.5,0-82.3-11.5-109.1-22.6c-26.7-11.1-54.4-22.5-108.7-22.5c-49,0-74,28.9-98.1,56.9
		c-24.3,28.2-49.4,57.3-98.9,57.3c-54.7,0-107.4-61.2-158.4-120.4c-50.8-59-103.4-120.1-157.6-120.1h-0.5v-39.1h0.5
		c54.7,0,107.4,61.2,158.4,120.4c50.8,59,103.4,120.1,157.6,120.1c49,0,74-28.9,98.1-56.9c24.3-28.2,49.4-57.3,98.9-57.3
		c54.5,0,82.3,11.5,109.1,22.6c26.7,11.1,54.4,22.5,108.7,22.5c52.9,0,79.8,15.8,105.8,31.1c25.9,15.2,52.6,31,105.2,31
		c54.5,0,82.2-8.4,109-16.5c26.8-8.1,54.6-16.6,109.1-16.6c52.6,0,79.4-14.5,105.3-28.5c26-14.1,52.9-28.6,105.7-28.6
		c54.7,0,82.5,19.4,109.3,38.2c26.6,18.6,54,37.8,107.8,38c0.3,0,0.6,0,1,0c54.8,0,82.6,34,109.5,66.9
		c26.7,32.7,54.4,66.4,108.6,66.4c52.5,0,99.1-48.3,144.1-95c45.2-46.9,91.8-95.4,144.8-95.4v1c-52.5,0-99.1,58-144.1,114.1
		C2814.5,1449.1,2767.8,1507.2,2714.8,1507.2z M2526.1,1339.6c36.3,12.4,58.5,47.3,80.1,81.2c26.7,42,54.4,85.5,108.6,85.5
		c52.5,0,99.1-58,144.1-114.1c36.2-45.1,73.4-91.5,114.1-108.1c-40.3,13.8-77.3,52.3-113.3,89.7c-45.2,46.9-91.8,95.4-144.8,95.4
		c-54.7,0-82.5-34-109.4-66.8C2584,1376.1,2562,1349.2,2526.1,1339.6z M908.2,1153.5c54.6,0.4,107.1,61.4,157.9,120.4
		c50.8,59,103.4,120.1,157.6,120.1c49,0,74-28.9,98.1-56.9c24.3-28.2,49.4-57.3,98.9-57.3c54.5,0,82.3,11.5,109.1,22.6
		c26.7,11.1,54.4,22.5,108.7,22.5c52.9,0,79.8,15.8,105.8,31.1c25.9,15.2,52.6,31,105.2,31c54.3,0,82-18.1,108.7-35.5
		c21.7-14.2,44-28.7,80.6-33.8c-36.3,2.4-58.5,9.1-80.1,15.6c-26.9,8.2-54.6,16.6-109.3,16.6c-52.9,0-79.8-15.8-105.8-31.1
		c-25.9-15.2-52.6-31-105.2-31c-54.5,0-82.3-11.5-109.1-22.6c-26.7-11.1-54.4-22.5-108.7-22.5c-49,0-74,28.9-98.1,56.9
		c-24.3,28.2-49.4,57.3-98.9,57.3c-54.7,0-107.4-61.2-158.4-120.4c-50.7-58.9-103-119.7-157.1-120.1V1153.5z"/>
</g>
</svg>
