<svg id="DensityDesign_Logo" data-name="DensityDesign Logo" xmlns="http://www.w3.org/2000/svg" viewBox="0 0 68.5 80"><defs><style>.cls-1{fill:#1b1464;}</style></defs><title>dd-logo</title><rect class="cls-1" x="57.8" y="8.6" width="10.7" height="2.3"/><path class="cls-1" d="M21.3,21.3V0h6.9V3.1H24.6V8.9H27v2.9H24.6v6.3h3.6v3.2Z"/><path class="cls-1" d="M46.2,21.3,42.4,10.5,41.3,7.1V21.3H39V0h2.2l3.4,11,1,3.5V0H48V21.3Z"/><path class="cls-1" d="M23.3,51.6V30.2h3.1V51.5H23.3Z"/><path class="cls-1" d="M6.2,79.7l-.3-1.1A2.65,2.65,0,0,1,3.6,80C1.4,80,0,78.4,0,75.9V62.7a4,4,0,0,1,4-4.1,3.89,3.89,0,0,1,3.9,4.1v3.8h-3v-4a.74.74,0,0,0-.8-.8.82.82,0,0,0-.9.8V76.1a.84.84,0,0,0,.9.9.84.84,0,0,0,.9-.9V72H4.1V69.5H8V79.7Z"/><path class="cls-1" d="M27.4,80,25,70.4l-.7-2.9V80H21.5V58.7h3.1l2.1,9.6.6,3V58.7h2.8V80Z"/><path class="cls-1" d="M44.7,32.4V51.6H42.6V32.4H39.9V30.2h7.5v2.2Z"/><path class="cls-1" d="M64.1,43.1v8.4H61.9V43.1L58.8,30.2H61l2.2,9.9,2.2-9.9h2.1Z"/><rect class="cls-1" x="38.2" y="67.3" width="10.7" height="2.3"/><rect class="cls-1" x="42.4" y="63.1" width="2.3" height="10.7"/><path class="cls-1" d="M2.5,21.3H0V0H2.5C8.3,0,8.7,2.3,8.7,10.7S8.3,21.3,2.5,21.3Zm.6-3.1c2.2,0,2.3-.6,2.3-7.5S5.3,3.2,3.1,3.2Z"/><path class="cls-1" d="M5.1,39.8c-1.3-2.3-2-3.1-2-5.5,0-.7.4-1.1.9-1.1s.8.4.8,1.1v1.6l2.7-.3v-1c0-2.7-1.4-4.3-3.5-4.3-2.7,0-4,2.1-4,4.7,0,2.4,1.6,5.3,2.8,7.2,1.2,2.1,1.9,3.5,1.9,5.4,0,.8-.3,1.2-1,1.2s-1-.5-1-1.2V45.9L0,46.1v1.2c0,2.8,1.5,4.3,3.9,4.3,2,0,3.9-1.3,3.9-4.6C7.8,44.6,6.5,42.1,5.1,39.8Z"/></svg>