<?xml version="1.0" encoding="utf-8"?>
<!-- Generator: Adobe Illustrator 19.0.0, SVG Export Plug-In . SVG Version: 6.00 Build 0)  -->
<svg version="1.1" xmlns="http://www.w3.org/2000/svg" xmlns:xlink="http://www.w3.org/1999/xlink" x="0px" y="0px"
	 viewBox="0 0 1920 1080" style="enable-background:new 0 0 1920 1080;" xml:space="preserve">
<style type="text/css">
	.st0{display:none;}
	.st1{display:inline;}
	.st2{fill:#FF0000;stroke:#FF0000;stroke-width:1.2949;stroke-linecap:round;stroke-linejoin:round;stroke-miterlimit:10;}
	.st3{fill:#FFFFFF;stroke:#FF0000;stroke-width:1.2949;stroke-linecap:round;stroke-linejoin:round;stroke-miterlimit:10;}
	.st4{fill:#FF0000;stroke:#FF0000;stroke-width:1.5;stroke-linecap:round;stroke-linejoin:round;stroke-miterlimit:10;}
	.st5{fill:#FFFFFF;stroke:#FF0000;stroke-width:0.7867;stroke-linecap:round;stroke-linejoin:round;stroke-miterlimit:10;}
	.st6{fill:none;}
	.st7{fill:#FF0000;}
	.st8{font-family:'Karla-Bold';}
	.st9{font-size:28px;}
	.st10{fill:#FFFFFF;stroke:#FF0000;stroke-width:2;stroke-linecap:round;stroke-linejoin:round;stroke-miterlimit:10;}
	.st11{font-family:'Spectral-Bold';}
	.st12{font-size:55px;}
	.st13{fill:#FFFFFF;stroke:#010036;stroke-width:1.3665;stroke-linecap:round;stroke-linejoin:round;stroke-miterlimit:10;}
	.st14{fill:#FFFFFF;stroke:#000036;stroke-width:1.3665;stroke-linecap:round;stroke-linejoin:round;stroke-miterlimit:10;}
	.st15{fill:#1B1464;}
	.st16{font-size:23.0983px;}
	.st17{fill:none;stroke:#1B1464;stroke-width:0.7362;stroke-miterlimit:10;}
	.st18{font-size:34.3759px;}
</style>
<g id="patneg" class="st0">
	<g class="st1">
		<g>
			<polyline class="st2" points="641.7,5018.7 657.1,5010 868.6,5010 868.6,5114.8 853.2,5123.5 853.2,5018.7 868.6,5010 			"/>
			<rect x="641.7" y="5018.7" class="st3" width="211.5" height="104.9"/>
			<polyline class="st2" points="641.6,5018.9 853.1,5018.9 868.7,5010.3 656.8,5009.8 			"/>
		</g>
		<rect x="636.2" y="5040.4" class="st6" width="226.9" height="79.8"/>
		<text transform="matrix(1.0124 0 0 1 691.15 5092.1768)"><tspan x="0" y="0" class="st7 st11" style="font-size:69.0589px;">75</tspan><tspan x="77.5" y="0" class="st7 st11" style="font-size:48px;">%</tspan></text>
		<rect x="885.6" y="5038" class="st6" width="398.2" height="60.1"/>
		<text transform="matrix(1 0 0 1 885.5947 5057.2271)"><tspan x="0" y="0" class="st7 st8 st9">of Americans heroin addicted</tspan><tspan x="0" y="33.6" class="st7 st8 st9">started taking legal opioids</tspan></text>
	</g>
	<g class="st1">
		<g>
			<polyline class="st2" points="641.7,5018.7 657.1,5010 868.6,5010 868.6,5114.8 853.2,5123.5 853.2,5018.7 868.6,5010 			"/>
			<rect x="641.7" y="5018.7" class="st3" width="211.5" height="104.9"/>
			<polyline class="st2" points="641.6,5018.9 853.1,5018.9 868.7,5010.3 656.8,5009.8 			"/>
		</g>
		<rect x="636.2" y="5040.4" class="st6" width="226.9" height="79.8"/>
		<text transform="matrix(1.0124 0 0 1 691.15 5092.1768)"><tspan x="0" y="0" class="st7 st11" style="font-size:69.0589px;">75</tspan><tspan x="77.5" y="0" class="st7 st11" style="font-size:48px;">%</tspan></text>
		<rect x="885.6" y="5038" class="st6" width="398.2" height="60.1"/>
		<text transform="matrix(1 0 0 1 885.5947 5057.2271)"><tspan x="0" y="0" class="st7 st8 st9">of Americans heroin addicted</tspan><tspan x="0" y="33.6" class="st7 st8 st9">started taking legal opioids</tspan></text>
	</g>
	<rect x="885.6" y="5038" style="display:inline;fill:none;" width="398.2" height="60.1"/>
	<text transform="matrix(1 0 0 1 885.5947 5057.2271)" class="st1"><tspan x="0" y="0" class="st7 st8 st9">of Americans heroin addicted</tspan><tspan x="0" y="33.6" class="st7 st8 st9">started taking legal opioids</tspan></text>
	<g class="st1">
		<polyline class="st4" points="863.2,5028.1 863.2,5097.3 845.4,5107.4 845.4,5038.2 863.2,5028.1 		"/>
		<rect x="622.5" y="5038.2" class="st5" width="222.8" height="69.2"/>
		<rect x="658.9" y="5049" class="st6" width="168.9" height="60.1"/>
		<text transform="matrix(1.0124 0 0 1 690.0358 5090.2236)" class="st7 st11 st12">75%</text>
		<polyline class="st4" points="622.5,5038.2 640,5027.7 863.2,5028.2 845.2,5038.2 622.5,5038.2 		"/>
	</g>
	<g class="st1">
		<rect x="892.4" y="509.6" class="st6" width="398.2" height="60.1"/>
		<text transform="matrix(1 0 0 1 892.4165 528.835)"><tspan x="0" y="0" class="st7 st8 st9">of Americans heroin addicted</tspan><tspan x="0" y="33.6" class="st7 st8 st9">started taking legal opioids</tspan></text>
		<g>
			<polyline class="st4" points="870,499.7 870,568.9 852.2,579 852.2,509.8 870,499.7 			"/>
			<rect x="629.3" y="509.8" class="st10" width="222.8" height="69.2"/>
			<rect x="665.7" y="520.6" class="st6" width="168.9" height="60.1"/>
			<text transform="matrix(1.0124 0 0 1 696.8575 561.8314)" class="st7 st11 st12">75%</text>
			<polyline class="st4" points="629.3,509.8 646.8,499.3 870,499.8 852,509.8 629.3,509.8 			"/>
		</g>
	</g>
</g>
<g id="patpos">
	<g>
		<g>
			<g>
				<polyline class="st13" points="744,556.3 751,552.4 783.3,552.4 783.3,574.4 776.3,578.3 776.3,556.3 783.3,552.4 				"/>
				<rect x="744" y="556.3" class="st14" width="32.3" height="22"/>
				<polyline class="st13" points="744,556.5 776.3,556.5 783.3,552.5 				"/>
			</g>
		</g>
		<rect x="904.4" y="505.1" class="st6" width="180" height="31.8"/>
		<text transform="matrix(1.0124 0 0 1 904.4375 520.9768)" class="st15 st8 st16">Hydromorphone</text>
		<g>
			<polyline class="st13" points="907,471 914,467.1 1023.3,467.1 1023.3,489 1016.3,493 1016.3,471 1023.3,467.1 			"/>
			<rect x="907" y="471" class="st14" width="109.3" height="22"/>
			<polyline class="st13" points="907,471.1 1016.3,471.1 1023.3,467.2 			"/>
			<polyline class="st17" points="994.4,471.1 1016.3,471.1 1016.3,493 994.4,493 			"/>
		</g>
		<g>
			<rect x="903.3" y="584.7" class="st6" width="155.8" height="21.6"/>
			<text transform="matrix(1.0124 0 0 1 903.3298 600.5883)" class="st15 st8 st16">Oxymorphone</text>
			<g>
				<polyline class="st13" points="902.4,554.2 909.3,550.3 1063,550.3 1063,572.2 1056,576.2 1056,554.2 1063,550.3 				"/>
				<rect x="902.4" y="554.2" class="st14" width="153.6" height="22"/>
				<polyline class="st13" points="902.3,554.3 1056,554.3 1063,550.4 				"/>
			</g>
		</g>
		<rect x="743.7" y="587" class="st6" width="121.2" height="31.8"/>
		<text transform="matrix(1.0124 0 0 1 743.7003 602.8378)" class="st15 st8 st16">Oxycodone</text>
		<rect x="577.8" y="504.5" class="st6" width="121.2" height="31.8"/>
		<text transform="matrix(1.0124 0 0 1 577.7965 520.3059)" class="st15 st8 st16">Morphine</text>
		<g>
			<g>
				<g>
					<g>
						<text transform="matrix(1.0124 0 0 1 770.7283 490.0001)" class="st15 st11 st18">0,3</text>
					</g>
				</g>
			</g>
			<polyline class="st13" points="745.7,471 752.7,467.1 759.9,467.1 759.9,489 753,493 753,471 759.9,467.1 			"/>
			<rect x="745.7" y="471" class="st14" width="7.2" height="22"/>
			<polyline class="st13" points="745.7,471.1 753,471.1 760,467.2 			"/>
			<rect x="745.7" y="505.8" class="st6" width="121.2" height="31.8"/>
			<text transform="matrix(1.0124 0 0 1 745.7239 521.6558)" class="st15 st8 st16">Tramadol</text>
			<rect x="745.7" y="471.8" class="st17" width="7.3" height="21.4"/>
		</g>
		<g>
			<g>
				<polyline class="st13" points="583.6,471 590.5,467.1 612,467.1 612,489 605,493 605,471 612,467.1 				"/>
				<rect x="583.6" y="471" class="st14" width="21.4" height="22"/>
				<polyline class="st13" points="583.5,471.1 605,471.1 612,467.2 				"/>
			</g>
			<rect x="583.1" y="471.1" class="st13" width="21.9" height="21.9"/>
		</g>
		<g>
			<g>
				<g>
					<text transform="matrix(1.0124 0 0 1 1027.1948 489.7538)" class="st15 st11 st18">5</text>
				</g>
			</g>
		</g>
		<g>
			<g>
				<g>
					<text transform="matrix(1.0124 0 0 1 788.3972 573.6627)" class="st15 st11 st18">1,5</text>
				</g>
			</g>
		</g>
		<g>
			<g>
				<g>
					<text transform="matrix(1.0124 0 0 1 1071.0962 574.0936)" class="st15 st11 st18">7</text>
				</g>
			</g>
		</g>
		<g>
			<g>
				<polyline class="st13" points="1116.5,468.2 1123.5,464.2 1342.2,464.2 1342.2,573.7 1335.2,577.6 1335.2,468.2 1342.2,464.2
									"/>
				<rect x="1116.5" y="468.2" class="st14" width="218.7" height="109.4"/>
				<polyline class="st13" points="1116.5,468.3 1335.2,468.3 1342.2,464.4 				"/>
			</g>
			<rect x="1116.5" y="584.5" class="st6" width="121.2" height="31.8"/>
			<text transform="matrix(1.0124 0 0 1 1116.4868 600.3696)" class="st15 st8 st16">Fentanyl</text>
		</g>
		<g>
			<g>
				<g>
					<text transform="matrix(1.0124 0 0 1 1285.7283 568.1437)" class="st15 st11 st18">50</text>
				</g>
			</g>
		</g>
	</g>
</g>
</svg>
