<?xml version="1.0" encoding="utf-8"?>
<!-- Generator: Adobe Illustrator 21.1.0, SVG Export Plug-In . SVG Version: 6.00 Build 0)  -->
<svg version="1.1" xmlns="http://www.w3.org/2000/svg" xmlns:xlink="http://www.w3.org/1999/xlink" x="0px" y="0px"
	 viewBox="0 0 1920 1080" style="enable-background:new 0 0 1920 1080;" xml:space="preserve">

<g id="pos">
	<g>
		<polyline class="ph0" points="546.6,510.2 564.4,500.1 1374.4,500.1 1374.4,569.3 1356.6,579.4 1356.6,510.2 1374.4,500.1 		"/>
		<rect x="546.6" y="510.2" class="ph1" width="810" height="69.2"/>
		<polyline class="ph0" points="546.5,510.5 1356.5,510.5 1374.5,500.5 		"/>
	</g>
	<rect x="622" y="527" class="ph2" width="678" height="40.1"/>
	<text transform="matrix(1.0124 0 0 1 838.082 556.6372)" class="ph3 ph4 ph5">129.684.000$</text>
	<rect x="550" y="329.4" class="ph2" width="828" height="141.6"/>
	<text transform="matrix(1.0124 0 0 1 550 348.5669)"><tspan x="0" y="0" class="ph3 ph6 ph7">Some</tspan><tspan x="72.8" y="0" class="ph3 ph6 ph7 ph8"> </tspan><tspan x="83.5" y="0" class="ph3 ph6 ph7">pharma</tspan><tspan x="185.2" y="0" class="ph3 ph6 ph7 ph8"> </tspan><tspan x="195.9" y="0" class="ph3 ph6 ph7">companies</tspan><tspan x="338.5" y="0" class="ph3 ph6 ph7 ph8"> </tspan><tspan x="349.1" y="0" class="ph3 ph6 ph7">start</tspan><tspan x="411.3" y="0" class="ph3 ph6 ph7 ph8"> </tspan><tspan x="421.9" y="0" class="ph3 ph6 ph7">to</tspan><tspan x="447.7" y="0" class="ph3 ph6 ph7 ph8"> </tspan><tspan x="458.4" y="0" class="ph3 ph6 ph7">produce</tspan><tspan x="563.4" y="0" class="ph3 ph6 ph7 ph8"> </tspan><tspan x="574" y="0" class="ph3 ph9 ph7">new</tspan><tspan x="627.5" y="0" class="ph3 ph9 ph7 ph8"> </tspan><tspan x="638.9" y="0" class="ph3 ph9 ph7">opioid</tspan><tspan x="723.2" y="0" class="ph3 ph9 ph7 ph8"> </tspan><tspan x="734.5" y="0" class="ph3 ph9 ph7">drugs</tspan><tspan x="812" y="0" class="ph3 ph6 ph7">, </tspan><tspan x="0" y="33.6" class="ph3 ph6 ph7">very</tspan><tspan x="52.7" y="33.6" class="ph3 ph6 ph7 ph10"> </tspan><tspan x="62.7" y="33.6" class="ph3 ph6 ph7">effective</tspan><tspan x="172.5" y="33.6" class="ph3 ph6 ph7 ph10"> </tspan><tspan x="182.5" y="33.6" class="ph3 ph6 ph7">pain</tspan><tspan x="240" y="33.6" class="ph3 ph6 ph7 ph10"> </tspan><tspan x="250" y="33.6" class="ph3 ph6 ph7">relievers,</tspan><tspan x="365.5" y="33.6" class="ph3 ph6 ph7 ph10"> </tspan><tspan x="375.4" y="33.6" class="ph3 ph6 ph7">to</tspan><tspan x="401.2" y="33.6" class="ph3 ph6 ph7 ph10"> </tspan><tspan x="411.2" y="33.6" class="ph3 ph6 ph7">guarantee</tspan><tspan x="542.3" y="33.6" class="ph3 ph6 ph7 ph10"> </tspan><tspan x="552.2" y="33.6" class="ph3 ph6 ph7">a</tspan><tspan x="567.9" y="33.6" class="ph3 ph6 ph7 ph10"> </tspan><tspan x="577.8" y="33.6" class="ph3 ph6 ph7">life</tspan><tspan x="618.1" y="33.6" class="ph3 ph6 ph7 ph10"> </tspan><tspan x="628" y="33.6" class="ph3 ph6 ph7">without</tspan><tspan x="726.9" y="33.6" class="ph3 ph6 ph7 ph10"> </tspan><tspan x="736.8" y="33.6" class="ph3 ph6 ph7">suffer. </tspan><tspan x="0" y="67.2" class="ph3 ph6 ph7">The</tspan><tspan x="45.4" y="67.2" class="ph3 ph6 ph7 ph11"> </tspan><tspan x="63.6" y="67.2" class="ph3 ph9 ph7">investmente</tspan><tspan x="230.2" y="67.2" class="ph3 ph9 ph7 ph12"> </tspan><tspan x="249.6" y="67.2" class="ph3 ph9 ph7">in</tspan><tspan x="276.2" y="67.2" class="ph3 ph9 ph7 ph12"> </tspan><tspan x="295.7" y="67.2" class="ph3 ph9 ph7">marketing</tspan><tspan x="435.2" y="67.2" class="ph3 ph6 ph7 ph11"> </tspan><tspan x="453.4" y="67.2" class="ph3 ph6 ph7">are</tspan><tspan x="494.2" y="67.2" class="ph3 ph6 ph7 ph11"> </tspan><tspan x="512.5" y="67.2" class="ph3 ph6 ph7">huge:</tspan><tspan x="583" y="67.2" class="ph3 ph6 ph7 ph11"> </tspan><tspan x="601.3" y="67.2" class="ph3 ph6 ph7">in</tspan><tspan x="626.6" y="67.2" class="ph3 ph6 ph7 ph11"> </tspan><tspan x="644.8" y="67.2" class="ph3 ph6 ph7">one</tspan><tspan x="691.4" y="67.2" class="ph3 ph6 ph7 ph11"> </tspan><tspan x="709.7" y="67.2" class="ph3 ph6 ph7">year</tspan><tspan x="764" y="67.2" class="ph3 ph6 ph7 ph11"> </tspan><tspan x="782.3" y="67.2" class="ph3 ph6 ph7">for </tspan><tspan x="64.3" y="100.8" class="ph3 ph6 ph7">promoting Oxycontin Purdue Pharma arrives to invest</tspan></text>
</g>
<g id="neg">
	<polyline class="ph13" points="546.6,509.2 564.4,499.1 1374.4,499.1 1374.4,568.3 1356.6,578.4 1356.6,509.2 1374.4,499.1 	"/>
	<rect x="546.6" y="509.2" class="ph14" width="810" height="69.2"/>
	<polyline class="ph13" points="546.5,509.5 1356.5,509.5 1374.5,499.5 564,499 	"/>
	<rect x="736.2" y="520" class="ph2" width="449.7" height="60.1"/>
	<text transform="matrix(1.0124 0 0 1 789.8877 561.25)" class="ph15 ph4 ph16">634.000.000$</text>
	<rect x="550" y="328.9" class="ph2" width="828" height="188.6"/>
	<text transform="matrix(1 0 0 1 550.0002 347.9492)"><tspan x="0" y="0" class="ph15 ph6 ph7">The</tspan><tspan x="45.4" y="0" class="ph15 ph6 ph7 ph17"> </tspan><tspan x="57.8" y="0" class="ph15 ph6 ph7">campaigns</tspan><tspan x="202.2" y="0" class="ph15 ph6 ph7 ph17"> </tspan><tspan x="214.6" y="0" class="ph15 ph6 ph7">for</tspan><tspan x="250.2" y="0" class="ph15 ph6 ph7 ph17"> </tspan><tspan x="262.6" y="0" class="ph15 ph6 ph7">opioid</tspan><tspan x="343.2" y="0" class="ph15 ph6 ph7 ph17"> </tspan><tspan x="355.7" y="0" class="ph15 ph6 ph7">promotion</tspan><tspan x="490.8" y="0" class="ph15 ph6 ph7 ph17"> </tspan><tspan x="503.2" y="0" class="ph15 ph6 ph7">start</tspan><tspan x="565.3" y="0" class="ph15 ph6 ph7 ph17"> </tspan><tspan x="577.8" y="0" class="ph15 ph6 ph7">particularly</tspan><tspan x="726.6" y="0" class="ph15 ph6 ph7 ph17"> </tspan><tspan x="739.1" y="0" class="ph15 ph6 ph7">strong. </tspan><tspan x="0" y="33.6" class="ph15 ph6 ph7">Furthermore</tspan><tspan x="161.4" y="33.6" class="ph15 ph6 ph7 ph18"> </tspan><tspan x="178.9" y="33.6" class="ph15 ph9 ph7">informations</tspan><tspan x="354.5" y="33.6" class="ph15 ph9 ph7 ph19"> </tspan><tspan x="373.1" y="33.6" class="ph15 ph9 ph7">about</tspan><tspan x="451.1" y="33.6" class="ph15 ph9 ph7 ph19"> </tspan><tspan x="469.7" y="33.6" class="ph15 ph9 ph7">the</tspan><tspan x="513" y="33.6" class="ph15 ph9 ph7 ph19"> </tspan><tspan x="531.6" y="33.6" class="ph15 ph9 ph7">risks</tspan><tspan x="598.1" y="33.6" class="ph15 ph6 ph7 ph18"> </tspan><tspan x="615.6" y="33.6" class="ph15 ph6 ph7">of</tspan><tspan x="640.4" y="33.6" class="ph15 ph6 ph7 ph18"> </tspan><tspan x="657.9" y="33.6" class="ph15 ph6 ph7">those</tspan><tspan x="729.8" y="33.6" class="ph15 ph6 ph7 ph18"> </tspan><tspan x="747.3" y="33.6" class="ph15 ph6 ph7">drugs, </tspan><tspan x="0" y="67.2" class="ph15 ph6 ph7">chemically</tspan><tspan x="139.6" y="67.2" class="ph15 ph6 ph7"> </tspan><tspan x="146.4" y="67.2" class="ph15 ph6 ph7">similar</tspan><tspan x="238.2" y="67.2" class="ph15 ph6 ph7"> </tspan><tspan x="245" y="67.2" class="ph15 ph6 ph7">to</tspan><tspan x="270.8" y="67.2" class="ph15 ph6 ph7"> </tspan><tspan x="277.5" y="67.2" class="ph15 ph6 ph7">heroin,</tspan><tspan x="366" y="67.2" class="ph15 ph6 ph7"> </tspan><tspan x="372.7" y="67.2" class="ph15 ph6 ph7">underrate</tspan><tspan x="499.6" y="67.2" class="ph15 ph6 ph7"> </tspan><tspan x="506.3" y="67.2" class="ph15 ph6 ph7">the</tspan><tspan x="548.2" y="67.2" class="ph15 ph6 ph7"> </tspan><tspan x="555" y="67.2" class="ph15 ph6 ph7">issue.</tspan><tspan x="629.2" y="67.2" class="ph15 ph6 ph7"> </tspan><tspan x="635.9" y="67.2" class="ph15 ph6 ph7">In</tspan><tspan x="660.7" y="67.2" class="ph15 ph6 ph7"> </tspan><tspan x="667.4" y="67.2" class="ph15 ph6 ph7">2007</tspan><tspan x="730.1" y="67.2" class="ph15 ph6 ph7"> </tspan><tspan x="736.8" y="67.2" class="ph15 ph6 ph7">Purdue </tspan><tspan x="7.4" y="100.8" class="ph15 ph6 ph7">Pharma is condamned for </tspan><tspan x="346.4" y="100.8" class="ph15 ph9 ph7">misleading marketing</tspan><tspan x="643.3" y="100.8" class="ph15 ph6 ph7"> Oxycontin for</tspan></text>
</g>
</svg>
