<svg id="Layer_1" data-name="Layer 1" xmlns="http://www.w3.org/2000/svg" viewBox="0 0 124.5 91.61"><defs><style>.cls-1,.cls-3,.cls-4,.cls-5,.cls-6,.cls-7{fill:none;}.cls-1,.cls-3,.cls-4,.cls-5,.cls-7{stroke:#1b1464;}.cls-1{stroke-miterlimit:10;stroke-width:0.46px;}.cls-2{fill:#8ab0c7;}.cls-3,.cls-4,.cls-5,.cls-6,.cls-7{stroke-linecap:round;stroke-linejoin:round;}.cls-3{stroke-width:0.5px;}.cls-4{stroke-width:0.24px;}.cls-5,.cls-6{stroke-width:0.26px;}.cls-6{stroke:#fff;}.cls-7{stroke-width:0.3px;}.cls-8{fill:#1b1464;}</style></defs><title>polimi-logo</title><path class="cls-1" d="M90.3,30.1l-2.5-.2m2.3,1.5-2.5-.3M90,32.6l-2.4-.4m2.1,1.7-2.4-.5m2.1,1.8L87,34.6m2.1,1.9-2.4-.7m2,1.9-2.3-.8m1.8,2L85.9,38m1.8,2.1L85.4,39m1.7,2.3-2.2-1.2m1.5,2.3-2.1-1.3m1.4,2.4-2.1-1.4M85,44.6l-2-1.4m1.2,2.4-1.9-1.5m1.1,2.5L81.5,45m1,2.6-1.8-1.7m.9,2.6-1.7-1.8m.7,2.6L79,47.5m.6,2.7-1.5-2m.4,2.8-1.4-2m.4,2.7-1.3-2.1m.2,2.8-1.2-2.1m0,2.7-1.1-2.2M74,53.6l-1-2.2m-.2,2.7-.9-2.3m-.3,2.7-.8-2.3m-.4,2.7-.7-2.4m-.6,2.8-.6-2.4m-.6,2.7-.5-2.4m-.8,2.6-.4-2.4m-.9,2.5L65,53.5m-1,2.6-.1-2.5m-1.2,2.5V53.6m-1.3,2.5.1-2.5M60.1,56l.2-2.5m-1.5,2.4.3-2.5m-1.6,2.3.4-2.4m-1.7,2.1.5-2.4M55,55.1l.7-2.4m-2,2,.8-2.4m-2,2,.9-2.3m-2.1,1.8,1-2.3m-2.2,1.8,1.1-2.2m-2.3,1.6,1.2-2.2M47.8,52l1.3-2.1m-2.4,1.4,1.4-2m-2.4,1.2,1.5-2m-2.6,1.2,1.6-1.9m-2.5,1.1,1.7-1.8m-2.7.9,1.7-1.8m-2.6.8,1.8-1.7m-2.7.8,1.9-1.6m-2.7.5,2-1.5m-2.7.5,2-1.4m-2.7.3,2.1-1.3m-2.8.2,2.2-1.2m-2.8,0,2.2-1.1m-2.8,0,2.3-1m-2.8-.3,2.3-.9M35.9,37l2.3-.8m-2.7-.4,2.4-.7m-2.7-.6,2.4-.5m-2.7-.8,2.4-.5M34.7,32l2.5-.3m-2.6-1,2.5-.2m-2.6-1.1,2.5-.1m-2.6-1.2h2.5m-2.4-1.3,2.5.1m-2.4-1.4,2.5.2m-2.4-1.5,2.4.4m-2.2-1.7,2.4.5m-2.1-1.8,2.4.6m-2-1.8,2.4.7m-2.1-2,2.3.8m-1.8-2,2.3.9m-1.8-2.1,2.2,1m-1.6-2.2,2.2,1.1m-1.6-2.2,2.2,1.2m-1.5-2.4,2.1,1.3m-1.4-2.3,2,1.4m-1.2-2.5,2,1.5m-1.2-2.5L43,11.7M41.9,9.1l1.8,1.7m-.9-2.6L44.5,10m-.7-2.7,1.7,1.8m-.7-2.6,1.6,1.9m-.6-2.7,1.5,2m-.4-2.8L48.3,7M48,4.2l1.3,2.1m-.2-2.7,1.2,2.2m0-2.8,1.1,2.2m.1-2.8,1,2.3M52.7,2l.9,2.3m.3-2.8.8,2.4m.5-2.7.6,2.4M56.4.9l.5,2.4M57.7.6,58.1,3M59,.4l.3,2.5m1-2.6.2,2.5M61.6.2l.1,2.5M62.9.2V2.7M64.2.3,64,2.7M65.5.4l-.3,2.5M66.8.6,66.4,3M68.1.8l-.5,2.4m1.7-2.1-.6,2.4m1.9-2.1-.7,2.4m1.9-2L71,4.2m2-1.9-.9,2.3m2.1-1.8L73.2,5m2.2-1.6L74.2,5.6m2.3-1.5L75.2,6.2m2.4-1.5L76.2,6.8m2.5-1.3-1.5,2m2.6-1.2L78.3,8.2m2.4-1.1L79.1,9m2.6-1L80,9.8m2.6-.9-1.8,1.7m2.7-.7-1.9,1.6m2.7-.6-1.9,1.5m2.7-.5-2,1.4m2.8-.3-2.1,1.3m2.7-.2-2.1,1.2m2.8-.1L85,16.4m2.7,0-2.2,1m2.8.2-2.3.9m2.7.3-2.3.8m2.7.4-2.4.7m2.8.6-2.4.6m2.7.7-2.4.5m2.6.7-2.4.4m2.6.9-2.5.3m2.6,1-2.5.2m2.5,1.1H87.8M90.3,29H87.8" transform="translate(-0.2 -0.19)"/><polyline class="cls-2" points="63.6 30.51 63.6 30.51 63.6 30.51 63.6 30.51"/><path class="cls-2" d="M63.8,30.7Z" transform="translate(-0.2 -0.19)"/><path class="cls-2" d="M63.8,30.7Z" transform="translate(-0.2 -0.19)"/><path class="cls-3" d="M42.9,21.5a3.44,3.44,0,0,0-1.2,2.9c0,1.9.3,4.5-.5,5.9-.1.1-.1.2-.2.3s-.6.7-.1.7.8,0,1,.3l.3.3a3.38,3.38,0,0,0,1.1,0m1.3-10.3a3.59,3.59,0,0,0-.8,2.2c0,1.4.4,3.4.4,3.8a7.55,7.55,0,0,1-.3,1.7,4,4,0,0,0,.1,2.4M41.4,19.4h0c-.1.1-.6.5.2,1.7m6.7-1.9a.31.31,0,0,0-.2.1c-.3.2-.8.6-1.4,1-.8.6-1.6-.2-2-.5s-1.3,0-2.1.1a1.35,1.35,0,0,1-1.2-.5c-.2-.2-.4-.4-.4-.5-.2-.2-.3-1-.1-1.1s.8-.9.8-.9c1-1.7,1.9-1.9,1.9-1.9m8.9,11.4a2.27,2.27,0,0,0-.1.4c0,.1-.1.4-.1.6a.6.6,0,0,1-.1.4,1.47,1.47,0,0,1-.4.2c-.1,0-.4,0-.5-.1l-.4-.4-.1-.1a1.29,1.29,0,0,1-.2-.8c.1-.4.3-.8.3-.9s-.5-1.4-.5-1.4-.7-1-.9-1.3a5.58,5.58,0,0,1-1-3,3.14,3.14,0,0,1-.1-.9v-.4a19.71,19.71,0,0,0,.1-2.1v-.3c.1-.4.2-1.1.3-1.6A18.11,18.11,0,0,1,50,12.5m2.5,13.9h0m-4.4-7.1-1.2-.4a7.49,7.49,0,0,0-1.6-.5,3,3,0,0,1-1.1-.4,2.8,2.8,0,0,1-.8-1.2c0-.2.1-1.1.2-1.8,0-.2.1-.3.1-.4.2-.6.7-.8,1.1-1.1s.8-1,1.2-1.3a8.71,8.71,0,0,1,2.4-.7,9.7,9.7,0,0,1,2.5,0H51a4.51,4.51,0,0,1,1.3.3c.1.1.3.2.4.3a2.7,2.7,0,0,1,.7.8,1.81,1.81,0,0,1,.1,1.6c-.1.3-.3.6-.4.9a2.23,2.23,0,0,1-.7.7c-.3.1-.6.2-.7.6a4.76,4.76,0,0,1-.8,1.8s-.1,0,0,.2,0,.1.1.2a4.88,4.88,0,0,1,.7,2.4,8,8,0,0,0,.3,2.3c.2.7.6,1.5.8,1.5a1.07,1.07,0,0,1,.6.2,4.35,4.35,0,0,0,.7.4c.1,0,.2.1.3.2s0,.1-.2.2a1.86,1.86,0,0,1-.8,0,1,1,0,0,0-.3-.1.35.35,0,0,0-.2.1.76.76,0,0,0-.4.2h0m-4-9.9c-.7.2-1.3-.4-2-1.2s-.2-1.5.8-2.5c.8-.9,3.3-1.1,3.8-1.2m-.2,7.3,1-.5.8-.4s1.2-.4,1.9-.7L55,17v-.7m.3-1.3a1.74,1.74,0,0,1-.3,1.2c-.1.1-.1.2-.2.2l-.7.4m3.8-2s.3.3.4-.1a13.78,13.78,0,0,1,.6-1.6,1.24,1.24,0,0,1,.2-.3m-5.8,2.6,2-.5.1.1.8.4s.5.3.7.2.2-.1.2-.2a.22.22,0,0,1,.2-.2c.1,0,.2-.2.2-.2a.49.49,0,0,0,.3-.1l.2-.2m-5.6-2.9c-.1-.3.2-.6.3-.7l.2-.1v-.1c0-.4,1.3-.7,1.3-.7,0-.9,2.1-.5,2.1-.5a2.5,2.5,0,0,1,1.9.6c.8-.1,1.2.8,1.2.8.7.2.4,1.3.4,1.4s0,.3-.4.3a.6.6,0,0,1-.4-.1c-.3-.1-.3-.1-.8-.3l-.5-.4a1.76,1.76,0,0,1-.1.6c-.2.2-.3.2-.4.2s-.4.3-.6.4a1.51,1.51,0,0,1-.9.4s-.8.2-1,0-.7.1-.8-.1-.2-.3-.4-.5m3.6,1.7.3.3M52,18.3a2,2,0,0,0,0,.8,1.83,1.83,0,0,0,1.7,1.2l1.3.1m-.2-3.2a5.74,5.74,0,0,1,.9.8m-5,9.4-1.3.6s-1.3.3-1.6.4-1.6.3-1.5,1-.1,1,.2,1.2a5.19,5.19,0,0,0,.5.3m.9-.5a7.91,7.91,0,0,0-1,.5,2.65,2.65,0,0,0-.6.5,3.75,3.75,0,0,0-.7,1.2v.2a1.35,1.35,0,0,0,.5.9m-.5-1.1a8.79,8.79,0,0,0-1-.6,1.76,1.76,0,0,1-.6-.1,5.64,5.64,0,0,1-.7-.1A2,2,0,0,0,42,32.9c-.1.6-.5,2.1.9,2,0,0,.5-.3.8-.5l.1-.1a5,5,0,0,1,1.4-.8h1a.85.85,0,0,1,.6.2c.2.2.3,1,.4,1.1s.9.8.9.8M53,38.7h0l.6.8.3.5s.2.2.3.1.2-.1.1-.3-.3-.7-.3-.7a5,5,0,0,0-.5-.7l.6.2.8.5a.31.31,0,0,0,.2-.1c0-.1,0-.2-.1-.2s-.6-.8-.6-.8a1.47,1.47,0,0,0-.4-.2l-.2-.2a.78.78,0,0,0-.4-.4,2.51,2.51,0,0,0-.7-.4c-.2,0-.6-.1-.6-.4a7.7,7.7,0,0,1,.6-1.5l.4-.8a1.24,1.24,0,0,0,.2-.3,5.13,5.13,0,0,0,.5-1.2s.9-.1,1-.6.4-1.1-2.4-2.1a3.5,3.5,0,0,0-1.2,1.4,11.64,11.64,0,0,0-.6,1.5,11.08,11.08,0,0,0-.2,1.9,9.15,9.15,0,0,0,.1,1.7m2.1,2.8h0l.6,1.3s.2.1.2,0,.1-.1.1-.2a4.33,4.33,0,0,0-.1-.5l-.2-.5-.1-.3-.1-.3m-2.6-2.3c.1.9.2,1.6.6,1.9,0,0,.4.3.5.4s.4.3.5.4a2.27,2.27,0,0,0,.1.4,1.44,1.44,0,0,1-.3.2s-.1.3.1.3c0,0,.1.1.1,0a.37.37,0,0,1,.3-.1,1.33,1.33,0,0,0,.5-.3v-.3m-5.2-9.2.3.3a27.75,27.75,0,0,0,2.5,2.4m-6.6,1.7a3.14,3.14,0,0,0,.4,1.2l.1.1a4.51,4.51,0,0,0,2.6,1.1c1.3.1,2.7.3,3.5-.5h0m-6.1-.6a2.93,2.93,0,0,0,.6,2.4l.1.1a18.5,18.5,0,0,0,3.2,2.5c1.2.6,3.9,1.7,4.2,1.8.1,0,.2.1.3.1a9.13,9.13,0,0,1,1.7.8m-9.5-5.3a.77.77,0,0,0-.2.5,3.42,3.42,0,0,1-.2,1.3c-.2.5-.7,1.5-.6,1.8a8.1,8.1,0,0,0,.6,1.3c0,.1.2.2.2.2h.6a.35.35,0,0,0,.2-.1c0-.1,0-.2.1-.2s.4-.4.3-.4-.3-.1-.4-.1-.2,0-.3-.2-.2-.2-.2-.4.2-.2.3-.3,1.2-.9,1.4-.8a1.33,1.33,0,0,1,.8.3,11.6,11.6,0,0,0,2.1,1.6,6.67,6.67,0,0,0,2.4,1,14.43,14.43,0,0,1,2.4.5c.5.1,1.6.4,2.1-.2s.7-.6.7-.9a3.78,3.78,0,0,0-.1-1.8,4.52,4.52,0,0,0-.6-.8M54.3,26a12.58,12.58,0,0,1,2.1.8h0l.2.2m-2,7.4a6.77,6.77,0,0,1,.6,1.6c0,.2.4,1.3.6,2.1a4.28,4.28,0,0,1,.3,1,1.74,1.74,0,0,1,.3,1.2v.1c0,.1-.1.2-.1.3-.5.9-.6,2-3,1.9l-.6-.1m4-9.4c1.4-.2,1.6-1.9,1.7-2.4a4.33,4.33,0,0,0-.1-.5l-.2-1c-.1-.3-1.5-2.2-1.5-2.2m-.2-.2s-.2-.9.2-1h.1l.3-.3.5-.5c.2,0,.3-.2.4-.3s.5-.6,1-.5,1.7.1,1.9.2.9.6,1,.6h.3a.62.62,0,0,1,.6.4s.3.2,0,.6c0,0,.6.3.7.6s.2.8-.3,1c0,0-.6.1-.7.1a.36.36,0,0,0-.2-.3.6.6,0,0,0-.4.1,2,2,0,0,1-.8.4c-.1,0-.4.1-.4.2s-.1.3-.6.5l-1.8.4m.3.3a2.88,2.88,0,0,0,.4.6,1.84,1.84,0,0,0,1.3.4c.2-.1.2-.2.3-.2s.3-.2.4-.2.3-.3.3-.3.5.1.5-.2v-.9a.79.79,0,0,0,.4-.7m-1.4,2.1-.2-.1m.8-.2s-.3-.1-.3-.2m-7.7,4.5a1.58,1.58,0,0,0,1.2.5h0a3.75,3.75,0,0,0,2.1-1.2,3,3,0,0,0-.5-3.5m6.7-9.3c0,.7.3.8.4.9a.31.31,0,0,1,.1.2,1,1,0,0,0,.4-.1c.2-.1.5-.3.5-.3.4-.3.1-.5.2-.8a.47.47,0,0,0-.2-.5.1.1,0,0,0,.1-.1c0-.1-.3-.3-.3-.3v-.3c-.1-.1-.1-.5-.1-.5l-.1-.3a.69.69,0,0,0-.3-.4.37.37,0,0,0-.2-.3c.1-.4-.4-.4-.4-.6s-.4-.4-.4-.4a.78.78,0,0,0-.6-.3c-.1,0-.8.2-.8.2a.73.73,0,0,0-.6.1,1.05,1.05,0,0,0-1,.5,2,2,0,0,0-.5.5s-.5,1.5-.6,2,0,.4-.1.6-1.1,1.2-.6,1.5.7.4.8.7a3.81,3.81,0,0,0,1.9.3c.3-.1.5-1.2.5-1.2a2.49,2.49,0,0,0-.1-.8c0-.1-.1-.3-.1-.4a2.17,2.17,0,0,1-.2-1,1.08,1.08,0,0,0-.3-.7c-.1-.2-.4-.4-.3-.8a3,3,0,0,1,.5-1,1.81,1.81,0,0,1,1.4-.1s.3.3.4.3.3.2.5.3a.4.4,0,0,1,.2.4m.3.6c0,.1.1.9.1,1s.2.7.1.8-.4.3-.6.4a6.84,6.84,0,0,1-2.2-.3m-3,1.5s-2.2,1.3-1.8,4.8m6.1-4L62,25M57.7,37.5s-.2-3-.1-3.5m2.9-20.6s0-.8.2-1,.4-.4.7-.4h.3c.4.2,1.5.7,1.8,1.3a.72.72,0,0,1,0,.8l-.2.2a4.08,4.08,0,0,1-.7.2m2.9-5.3h0m-4.1,2.7a1.32,1.32,0,0,1,.3-1.5c.7-.8.9-.9,1.2-.9a5.38,5.38,0,0,0,.8-.1,1.61,1.61,0,0,1,1.8-.1m-1.8,9.1s.5-1.1.5-1.2a3.74,3.74,0,0,0,0-3.3c-.1-.3-.6.3-.7.3h0m5.2,1.5s-.1.6-.2.6-.4-.5-.4-.5l.3-1,.1-1.2v-.1l.9-1.5a2.35,2.35,0,0,0-.2-.8c-.1-.1-.4-.5-.5-.6s-.1-.6-.1-.6-.7.6-.8.7a2.13,2.13,0,0,1-.8,0,1.06,1.06,0,0,0-.5.2,4.35,4.35,0,0,1-.4.7,2,2,0,0,0-.2.9c0,.1-.1.2-.1.3s-.1.2-.2.3,0,.3.1.6a2.48,2.48,0,0,1-.1.9c0,.1-.3.1-.3.1s-.3.2-.3.2a4.33,4.33,0,0,0,.1-.5,4.12,4.12,0,0,0-.3-.8,9.91,9.91,0,0,1-.2-1.8,10.38,10.38,0,0,1,.3-1.2,2.6,2.6,0,0,1,.4-1,1.38,1.38,0,0,0,.3-.4h0c.2-.2.4-.5.5-.6a5.39,5.39,0,0,1,1-.3,2.41,2.41,0,0,1,1.7.5s.7,0,.8.4.6,1.1.5,1.3-.2.4-.1.5a3.08,3.08,0,0,1-.1.9V12a.6.6,0,0,0-.1.4c0,.2.2.6.1.7s-.2.2-.2.3a2,2,0,0,1-.1.7.76.76,0,0,0-.2.4c0,.1.1.7-.1.9l-.2.2h0c-.1,0-.1,0-.2.1Zm-2.8-2.8s.3,1.1.9,1.3a3.58,3.58,0,0,0,1.7-.5m4.8,2.1v-.1M70,12a5.85,5.85,0,0,1,2.9,2.5,3.18,3.18,0,0,1,.4,1.1v.2m.9.9a2.91,2.91,0,0,0-.9-.9,3.88,3.88,0,0,0-1.1-.6m-3.1.3s-.3,1.2,1.4,2.4m-4.4,3.6-1.7-.8m1,17.8a1.57,1.57,0,0,0,.3-1.4c-.3-1.1-.2-1.3-.1-1.6S67,33.7,68,32a2.19,2.19,0,0,1,.3-.5,5.21,5.21,0,0,0,.6-2.2l.8-1.8h0M63.6,42.4l-.3,1.3.5-1.4,1-2.5L66,43l-.7-4.6v-.5a.83.83,0,0,0-.7.4,5.27,5.27,0,0,0-.5,1.5,3.93,3.93,0,0,0-.2.6h0c-.3,0-.3-.4-.3-.4l-.1-1.7-.2-.2a1.73,1.73,0,0,1-.1-1c0-.4.4-.9.6-1.4.1-.3.3-1,.5-1.6.2-.8.5-1.6.5-1.6a10,10,0,0,1,.5-2.3,3.29,3.29,0,0,1,.9-1.5,5.9,5.9,0,0,0,.4-.8M63.9,40.5l-.3,1.9m3.2-18.2s-.1.4-.3.5-.8,1-.7,1.5.4,1.6.4,1.6h.3l2.6-.3a1,1,0,0,0,.4-.1c.2-.1.6-.2.7-.4.3-.4,1.2-1.8,1.2-1.8m-12,18.1,4,1.3,7.5-2.1-4.3-.9-2.7.6-.3.1-4.2,1h0m0,0v1.1l4.1,1.4,7.4-2.2V42.5m-7.5,2.2v1m2.9-23.4a.7.7,0,0,1-.2-.4c.1-.2-.2-.7,0-.8s.1-.4.3-.6l.3-.3c.5-.1.3-.6.7-.7a5.56,5.56,0,0,0,.8-.4c.1,0,.6-.2.7-.2a.76.76,0,0,0,.4-.1h.5c.1,0,.3.2.5.2a.76.76,0,0,0,.4.1,9.44,9.44,0,0,1,.9.3c.1,0,.5,0,.4.2a1,1,0,0,1-.1.3c.1,0,.3.2.3.2s-.1.3-.1.4.3.4.3.6.1.3,0,.4-.2.1-.1.2,0,.2-.1.3-.2.2-.2.3-.3.4-.4.5-.4,0-.4.2-.4.3-.5.2-.6.3-.7.1a.85.85,0,0,1,0-.7c0-.1.2-.2.2-.3V22c0-.1-.3-.3-.1-.5a7.46,7.46,0,0,0,.7-1.2c.1-.2,0-.4,0-.5s-.6-.3-.7-.4-.7-.2-.9-.2-.6,0-.7.1a3.63,3.63,0,0,1-.7.3l-.4.4-.4.6a2.52,2.52,0,0,0-.7,1.7,2.77,2.77,0,0,1,.1.9,2.52,2.52,0,0,0,.4.9c.1.1.8.6.8.6l.3.1a.32.32,0,0,1,.3.3c.1.2.3.9.7.8l.3-.3a2.57,2.57,0,0,0,.5.2c.1,0,.8.4,1.6-.8.1-.1.2-.3.3-.4s.3-.7.6-1.3c.1,0,.3-.2.4-.2.9-.3,1.2-1.5,1.2-1.5v-.4m-.7,3c0,.2-.4,1.6-.4,1.9s-.1.6.1.9a9,9,0,0,1,.3,1.6,19.58,19.58,0,0,1-.3,2,.37.37,0,0,1-.1.3l-.1.3-.6,1-1,2a4.35,4.35,0,0,0-.1,3.4l.3,1c.5,1.5.6,1.6,1.2,1.7M73.8,35a13,13,0,0,1-.6,3.2,5.39,5.39,0,0,0-.5,1.6,4.22,4.22,0,0,1-.3,1.2.85.85,0,0,0-.2.6c0,.1-.1.3,0,.4,0,.4.1.7.3.7a3.55,3.55,0,0,0,.7-.1,3.93,3.93,0,0,1,.6.2h.6a3.33,3.33,0,0,1,.6-.3c.1-.1.5-.4.5-.7a5.42,5.42,0,0,0-.6-1.1.77.77,0,0,0-.1-.3,2.56,2.56,0,0,1,0-1.5c.3-.5,3.3-4.8,3.1-7.7m1.7-.3a3.21,3.21,0,0,0-1.8.4h0a.78.78,0,0,0-.4.4A44,44,0,0,1,73.8,35a11.48,11.48,0,0,0-1,.8c-.1.1-.5.6-.5.6a23.58,23.58,0,0,1,5.1-12.6m-8-4.9a2.18,2.18,0,0,1,1.1-.8c.2-.1,3.3-1.7,6.1-1.2m-2.8,3.4c0-.1.8-2.7,2.5-3.4a2,2,0,0,1,1.3-.1,4,4,0,0,1,2.4.6l.9-.3A2,2,0,0,1,83.2,19c0,.8-1.1,1.9-1.1,1.9L80.9,22A4.93,4.93,0,0,1,79,23.4a2,2,0,0,1-1.7.3c-1.8-.4-3.4-2.5-3.4-2.5m1.9,18a5,5,0,0,0,2.1,1.5m-8.2-15,.3-.2m-6.1,3s-.1-1.4-.1-1.9a25.13,25.13,0,0,1,.6-3m.5,4.2s-2.2.9-1.3,2.9m.2,0c-.4.5-.4.5-.4.6s-.2.9-.2,1a.6.6,0,0,1-.1.4c-.1,0-.4.3-.4.2s-.3-.4-.4-.5-.3,0-.2.1-.5.1-.1.4l.4.3a5.92,5.92,0,0,0,.6.4.71.71,0,0,0,.8-.3m0-2.6h0m1.4-.6s-.4-.4-1,.1c-.4.4-.5.4-.5.4h0m-.1,1.5c0,.1-.1.7.2.7a.29.29,0,0,0,.3-.3c0-.3.2-.5.2-.6m-.5,1a1.75,1.75,0,0,1-.1.5,4.33,4.33,0,0,1-.1.5,1.85,1.85,0,0,0-.2.7s.2.5.4.1l.3-.3.3-.4m2.4-20.4.4.2m-.1-.6s0,.1.2.1m-4.8,5.9a2.6,2.6,0,0,0,.7-.3M60.8,18s.5-.6.7-.4m-.2.2h0m-.2,10.9h0M57.8,13.5l-.1.2m9.1-1.6v.1m1.6.5v.2m.8,11.7.1.1m-.6-.1,1.1-.2m8.4-.6-1,3.9M79,23.4c-6.2-1.7-2.2-5.8-1.5-6.4m-20-3.7.7.4m8.3-1.8a2.07,2.07,0,0,0,.8.2m.8.5a2.07,2.07,0,0,0,.8.2M61.4,28.7s-.5-.1-.6-.3M56.1,18.3h.3l.7.1c.1,0,.7.1.7.1.1.2-.3.3-.3.3l-.6.1.2.3c.2.3-.2.6-.2.6a.71.71,0,0,1-.3.8,1.34,1.34,0,0,1-1.6-.2.37.37,0,0,0-.3-.1c-.4-.2-.3-.6-.3-.9a1.9,1.9,0,0,1,.3-.9,3.29,3.29,0,0,1,.6-.3l.4.1h.4s.2.3.1.4a.61.61,0,0,1-.6.1l-.1-.1M64,12.6l.4,1.5M81.1,40.8s-2.4-.5-2.5-4.3m-22.1-.2s2.2,2.3,2.9,2.4M60.6,33c-.1,1.2-.2,2-.2,2a21.88,21.88,0,0,1-1,3.8,5.54,5.54,0,0,0,1.7-.3c.8-.3,1.3-.9,2.1-.5m5.1-6.6a19.64,19.64,0,0,1,2.9-.5h0c.9-.1,1.4-.1,1.4-.1m-4.4.6v2.7a2.49,2.49,0,0,1-.2,1.4,3.08,3.08,0,0,0-.5,1.2v.8a9.44,9.44,0,0,1-.3.9.6.6,0,0,0,.5.7,3.06,3.06,0,0,0,1.7-.1c.3-.2.6-.5.5-.7a2.65,2.65,0,0,0-.5-.6,1.33,1.33,0,0,1-.3-.8,2,2,0,0,0,.1-.5,3.08,3.08,0,0,1,.1-.9c.1-.2,1.2-1.7,1.2-1.7a6.33,6.33,0,0,0,.7-2.8M62.1,14.2a1.44,1.44,0,0,0-.2-.3.31.31,0,0,1-.1-.2c0-.1-.1-.1,0-.3s.3,0,.3,0a.75.75,0,0,0,.3.3c.2.1.1,0,.3.6v.3c0,.3-.4.2-.8.5a1.26,1.26,0,0,1-1.1,0l-.8-.8c-.1-.1-.1-.1-.2,0s0,.1-.3.1-.5-.2-.5-.3.4-.3.4-.3a2.26,2.26,0,0,1,1-.3h.2c.4,0,.6-.1.9.1l.5.3M40.8,31.2s-1.3-.3-1.4-.5v-.2l.4-.4c0-.1,0-.1.2-.4s.5-1.1.5-1.1c.3-.7.2-.8.2-.8L41,24a3.86,3.86,0,0,1,1.1-2.7m6.6.1a23.77,23.77,0,0,1-4.1.2,8.75,8.75,0,0,1-1.6-.2c-.3-.1-.6-.1-.9-.2-.1,0-.3-.1-.4-.1s-.9.3-1.2,2.6a17,17,0,0,1-.4,3.1,11.19,11.19,0,0,1-1.8,2.4.49.49,0,0,0,.1.7l.9.6M82.7,20.4A20.31,20.31,0,0,1,83.8,26a27.8,27.8,0,0,1-1.1,10.6c-.4,1.6.2,3.8.9,4,0,0-2.7.3-3.9.3H78.6a32.6,32.6,0,0,1-3.9-.3" transform="translate(-0.2 -0.19)"/><path class="cls-4" d="M72.6,35.8s-1.2,1,.6,1.5" transform="translate(-0.2 -0.19)"/><path class="cls-5" d="M82.5,24.5a12.22,12.22,0,0,1,0,3.6c-.3,1.9.4,7.4.2,8.5" transform="translate(-0.2 -0.19)"/><line class="cls-6" x1="78.4" y1="19.41" x2="79.4" y2="18.41"/><path class="cls-7" d="M63.8,27s.9-2.9,1.5-3.2M55.7,28s2.2.9,2.6,1.9m-9.1-7.2a8.56,8.56,0,0,0,.2,2.4c.3,1.4.7,2.7.7,2.7m10.4-5.4s2.2.5,2.6-1.1m-5,10.8a8.53,8.53,0,0,1-.5,2.1,9.42,9.42,0,0,1-.4,1A7.56,7.56,0,0,1,55.6,37m-3.3-7.1a2.19,2.19,0,0,1,1.8-.7h1m17-9.6a1.49,1.49,0,0,1,1.8,1.5M62.7,18.6a1.11,1.11,0,0,0,.5-.4,5.76,5.76,0,0,0-.9-.5c-.3-.1,0-.4,0-.4m9.8,5.8a7,7,0,0,1-.3,1.4m.6-.3,2.4-.1a4.18,4.18,0,0,0,.9-.3m1.5,11c1.4,1.6,3,3.2,3,3.2M74.1,26.8s0,.8.1,2" transform="translate(-0.2 -0.19)"/><path class="cls-8" d="M98.3,90.6a3.61,3.61,0,0,0,2.8,1.2c1.9,0,3-1.1,3-2.6a2.47,2.47,0,0,0-1.6-2.2h0a2.43,2.43,0,0,0-1.4-4.6,3.58,3.58,0,0,0-2.5,1.2c-.1.1-.1.3,0,.3l.5.4c.1.1.3.1.3,0a2.23,2.23,0,0,1,1.6-.8,1.47,1.47,0,0,1,1.5,1.5c0,.8-.6,1.4-1.9,1.4h-.8a.27.27,0,0,0-.3.3v.6a.27.27,0,0,0,.3.3h.8c1.4,0,2.1.8,2.1,1.6a1.59,1.59,0,0,1-1.7,1.5,2.68,2.68,0,0,1-1.8-.8c-.1-.1-.2-.1-.4,0l-.5.5c-.1-.1-.1.1,0,.2m-4,0c-1.5,0-2-1.5-1.9-2.7a2.29,2.29,0,0,1,1.8-1,1.85,1.85,0,0,1,.1,3.7M91.1,88c0,2.1,1,3.8,3.2,3.8a3.1,3.1,0,0,0,3-3.1,2.76,2.76,0,0,0-2.8-2.9,3.48,3.48,0,0,0-1.8.5c.4-1.7,2.6-2.8,3.2-3,.3-.1.3-.2.2-.4l-.2-.6c-.1-.1-.2-.2-.3-.2-1.3.6-4.5,2.2-4.5,5.9m-6.2,1.2a1.73,1.73,0,0,1,1.7-1.6c1.1.2,1.7.9,1.7,1.6a1.71,1.71,0,0,1-3.4,0m1.7-2.9c-1-.2-1.5-.7-1.5-1.4a1.45,1.45,0,0,1,1.5-1.4,1.39,1.39,0,0,1,1.5,1.4c0,.7-.4,1.3-1.5,1.4m-3.1,2.9c0,1.5,1.2,2.6,3.1,2.6s3.1-1.1,3.1-2.6A2.47,2.47,0,0,0,88.1,87v-.1a2.41,2.41,0,0,0,1.4-2.1c0-1.5-1.2-2.5-2.9-2.5a2.43,2.43,0,0,0-1.4,4.6h0a2.85,2.85,0,0,0-1.7,2.3m-6.4,2.4h4.7c.1,0,.3-.1.3-.2v-.6a.32.32,0,0,0-.3-.3H80.3V82.7c0-.1-.1-.3-.2-.3h-.7l-2,1.8a.19.19,0,0,0,0,.3l.2.5c0,.1.2.1.3.1l1.2-.6v6H77.2a.32.32,0,0,0-.3.3v.6c-.1.1,0,.2.2.2M64.8,87a3.5,3.5,0,1,1,3.5,3.5A3.61,3.61,0,0,1,64.8,87m-1.3,0a4.8,4.8,0,0,0,9.6,0,4.8,4.8,0,1,0-9.6,0m-9.8,4.4a.32.32,0,0,0,.3.3h.8a.32.32,0,0,0,.3-.3V84.9h0l5.8,6.9h.4c.1,0,.3-.1.3-.2v-9a.32.32,0,0,0-.3-.3h-.9a.32.32,0,0,0-.3.3V89h0l-5.8-6.7H54c-.1,0-.3.1-.3.2Zm-7.4-3,1.6-3.7H48l1.7,3.7Zm-2.5,3.2h.8c.2,0,.3-.1.3-.2a14.17,14.17,0,0,0,.8-1.8h4.4l.8,1.8c.1.1.1.2.3.2H52c.2,0,.3-.2.2-.3l-4.1-9c0-.1-.2-.1-.2-.1h-.1a.35.35,0,0,0-.2.1l-4.1,9a.27.27,0,0,0,.3.3m-6.3-.2a.32.32,0,0,0,.3.3h4.8a.32.32,0,0,0,.3-.3v-.7a.32.32,0,0,0-.3-.3H39V82.5a.32.32,0,0,0-.3-.3h-.9a.32.32,0,0,0-.3.3Zm-4,0a.32.32,0,0,0,.3.3h.9a.32.32,0,0,0,.3-.3V82.5a.32.32,0,0,0-.3-.3h-.9a.32.32,0,0,0-.3.3Zm-12.4-.1a.27.27,0,0,0,.3.3h.9a.22.22,0,0,0,.2-.2l1-6h.1L26,91.6c0,.1.1.1.2.1h.2a.35.35,0,0,0,.2-.1L29,85.4h0l1,6c0,.1.1.2.3.2h.9c.2,0,.3-.1.2-.3l-1.7-9a.22.22,0,0,0-.2-.2h-.2a.35.35,0,0,0-.2.1l-2.8,6.9h-.1l-2.8-6.9c0-.1-.1-.1-.2-.1H23a.22.22,0,0,0-.2.2Z" transform="translate(-0.2 -0.19)"/><path class="cls-8" d="M113.4,69.2a4.4,4.4,0,1,1,4.4,4.4,4.44,4.44,0,0,1-4.4-4.4m-2.5,0a6.9,6.9,0,1,0,6.9-6.9,6.79,6.79,0,0,0-6.9,6.9m-13.3,0a6.91,6.91,0,0,0,6.9,6.9,6.57,6.57,0,0,0,4.7-1.9c.1-.1.2-.4,0-.5L108,72.5a.45.45,0,0,0-.5,0,4.36,4.36,0,0,1-2.9,1.1,4.29,4.29,0,0,1-4.3-4.4,4.38,4.38,0,0,1,4.3-4.5,4.82,4.82,0,0,1,3,1.1c.2.2.3.2.5,0l1.2-1.2c.2-.2.2-.4,0-.5a6.34,6.34,0,0,0-4.6-1.8,6.78,6.78,0,0,0-7.1,6.9m-5.1,6.3a.43.43,0,0,0,.4.4h1.8a.43.43,0,0,0,.4-.4V62.8a.43.43,0,0,0-.4-.4H92.9a.43.43,0,0,0-.4.4Zm-14.6,0a.43.43,0,0,0,.4.4H80a.43.43,0,0,0,.4-.4V67.2h0l8,8.8h.5a.45.45,0,0,0,.4-.3V62.8a.43.43,0,0,0-.4-.4H87.1a.43.43,0,0,0-.4.4v7.9h0l-8-8.5h-.5a.45.45,0,0,0-.4.3v13ZM63.7,69.2a6.91,6.91,0,0,0,6.9,6.9,6.57,6.57,0,0,0,4.7-1.9c.1-.1.2-.4,0-.5l-1.2-1.2a.45.45,0,0,0-.5,0,4.36,4.36,0,0,1-2.9,1.1,4.29,4.29,0,0,1-4.3-4.4,4.38,4.38,0,0,1,4.3-4.5,4.82,4.82,0,0,1,3,1.1c.2.2.3.2.5,0l1.2-1.2c.2-.2.2-.4,0-.5a6.34,6.34,0,0,0-4.6-1.8,6.84,6.84,0,0,0-7.1,6.9M53.2,75.5a.43.43,0,0,0,.4.4h7.8a.43.43,0,0,0,.4-.4V73.9a.43.43,0,0,0-.4-.4H55.7V70.1h4.7a.43.43,0,0,0,.4-.4V68.1a.43.43,0,0,0-.4-.4H55.7V64.6h5.7a.43.43,0,0,0,.4-.4V62.6a.43.43,0,0,0-.4-.4H53.6a.43.43,0,0,0-.4.4Zm-8,0a.43.43,0,0,0,.4.4h1.8a.43.43,0,0,0,.4-.4V64.7h2.9a.43.43,0,0,0,.4-.4V62.7a.43.43,0,0,0-.4-.4H42.3a.43.43,0,0,0-.4.4v1.6a.43.43,0,0,0,.4.4h2.9Zm-8.2,0a.43.43,0,0,0,.4.4h1.8a.43.43,0,0,0,.4-.4V62.8a.43.43,0,0,0-.4-.4H37.4a.43.43,0,0,0-.4.4Zm-10.3,0a.43.43,0,0,0,.4.4h7a.43.43,0,0,0,.4-.4V73.9a.43.43,0,0,0-.4-.4H29.2V62.8a.43.43,0,0,0-.4-.4H27a.43.43,0,0,0-.4.4V75.5ZM13.4,69.2a4.4,4.4,0,1,1,4.4,4.4,4.44,4.44,0,0,1-4.4-4.4m-2.5,0a6.9,6.9,0,1,0,6.9-6.9,6.79,6.79,0,0,0-6.9,6.9m-8.1-.6V64.7H5a1.92,1.92,0,0,1,2,1.9,2,2,0,0,1-2,2ZM.3,75.5a.43.43,0,0,0,.4.4H2.5a.43.43,0,0,0,.4-.4V71H5.3a4.33,4.33,0,0,0,4.3-4.3,4.25,4.25,0,0,0-4.3-4.2H.6a.43.43,0,0,0-.4.4L.3,75.5Z" transform="translate(-0.2 -0.19)"/></svg>