<svg id="图层_1" data-name="图层 1" xmlns="http://www.w3.org/2000/svg" viewBox="0 0 1998.9 1300.66"><defs><style>.cls-1,.cls-10,.cls-11,.cls-12,.cls-13,.cls-14,.cls-15,.cls-16,.cls-17,.cls-18,.cls-19,.cls-2,.cls-20,.cls-21,.cls-22,.cls-23,.cls-3,.cls-33,.cls-35,.cls-4,.cls-5,.cls-6,.cls-7,.cls-8,.cls-9{fill:none;}.cls-1{stroke:#3791b6;}.cls-1,.cls-10,.cls-11,.cls-12,.cls-13,.cls-14,.cls-15,.cls-16,.cls-17,.cls-18,.cls-19,.cls-2,.cls-20,.cls-21,.cls-22,.cls-23,.cls-3,.cls-4,.cls-5,.cls-6,.cls-7,.cls-8,.cls-9{stroke-width:1.2px;}.cls-2{stroke:#2481b2;}.cls-3{stroke:#71bac4;}.cls-4{stroke:#84c1ca;}.cls-5{stroke:#8ec5cd;}.cls-6{stroke:#d2eddf;}.cls-7{stroke:#bfe6d9;}.cls-8{stroke:#98cdcf;}.cls-9{stroke:#c8e9dc;}.cls-10{stroke:#b5e2d6;}.cls-11{stroke:#67b6c1;}.cls-12{stroke:#72acc7;}.cls-13{stroke:#5eb3be;}.cls-14{stroke:#abded3;}.cls-15{stroke:#419ab8;}.cls-16{stroke:#5eaebf;}.cls-17{stroke:#54aabc;}.cls-18{stroke:#1b78b0;}.cls-19{stroke:#7bbec7;}.cls-20{stroke:#5ea5c1;}.cls-21{stroke:#8ed3ca;}.cls-22{stroke:#84cfc7;}.cls-23{stroke:#4b9dbb;}.cls-24{fill:#eb6f59;}.cls-25{fill:#97ad5c;}.cls-26{fill:#3f624d;}.cls-27{fill:#c4bdd6;}.cls-28{fill:#e2e775;}.cls-29{fill:#dfeddd;}.cls-30{fill:#d99f6e;}.cls-31{fill:#dbc2b8;}.cls-32{fill:#c5deea;}.cls-33{stroke:#eb6f59;stroke-miterlimit:10;}.cls-34{isolation:isolate;}</style></defs><title>question01</title><path class="cls-1" d="M844.3,773.6c1.9-77.8,121.4-191.6,199.2-189.7" transform="translate(0 74.56)"/><path class="cls-2" d="M844.3,773.6c49.1,35,70.2,161.2,35.1,210.3" transform="translate(0 74.56)"/><path class="cls-3" d="M844.3,773.6c-31.3-7.8-66.6-66.5-58.8-97.9" transform="translate(0 74.56)"/><path class="cls-4" d="M1528.3,853.5c-2.8-19.6,22.4-53.1,41.9-55.9" transform="translate(0 74.56)"/><path class="cls-5" d="M1528.3,853.5c1.9,11.5-12.5,31.8-24.1,33.7" transform="translate(0 74.56)"/><path class="cls-3" d="M1528.3,853.5c36-14.6,111.8,17.4,126.4,53.3" transform="translate(0 74.56)"/><path class="cls-6" d="M1590,767.7c2,9.9-9.8,27.9-19.7,29.9" transform="translate(0 74.56)"/><path class="cls-7" d="M1654.8,906.8c3.9,11.4-7.5,34.4-19,38.2" transform="translate(0 74.56)"/><path class="cls-8" d="M646.9,383.9c-8,18.9-48.4,35.1-67.2,27.1" transform="translate(0 74.56)"/><path class="cls-8" d="M646.9,383.9c16.5-8.7,54.2,3.1,62.9,19.6" transform="translate(0 74.56)"/><path class="cls-8" d="M646.9,383.9c7.2,15.4-5.2,49.3-20.6,56.5" transform="translate(0 74.56)"/><path class="cls-8" d="M646.9,383.9c7.4-14.7,40.5-25.6,55.2-18.2" transform="translate(0 74.56)"/><path class="cls-8" d="M646.9,383.9c-5.6-13.3,5.9-41.5,19.2-47.1" transform="translate(0 74.56)"/><path class="cls-8" d="M646.9,383.9c13.6,3.7,28.5,29.5,24.8,43.1" transform="translate(0 74.56)"/><path class="cls-8" d="M646.9,383.9c-11.8,6.7-39.7-1-46.4-12.8" transform="translate(0 74.56)"/><path class="cls-9" d="M566.4,562.6c1.4,11.4-13.5,30.5-24.9,32" transform="translate(0 74.56)"/><path class="cls-10" d="M482.5,804.2c-12.8-7.8-20.4-38.6-12.7-51.4" transform="translate(0 74.56)"/><path class="cls-10" d="M482.5,804.2c3-14.1,28.6-30.8,42.7-27.8" transform="translate(0 74.56)"/><path class="cls-10" d="M1009.4,641.8c-1.4,11.5-20.8,26.6-32.3,25.2" transform="translate(0 74.56)"/><path class="cls-10" d="M1009.4,641.8c-26.8,58-154,104.9-212,78.1" transform="translate(0 74.56)"/><path class="cls-11" d="M1009.4,641.8c13.8-33.6,85-63.2,118.6-49.4" transform="translate(0 74.56)"/><path class="cls-12" d="M1248.6,357c-12.1,12.2-48.7,12.4-60.9.2" transform="translate(0 74.56)"/><path class="cls-2" d="M1248.6,357c23,71.2-49.4,212.5-120.6,235.4" transform="translate(0 74.56)"/><path class="cls-12" d="M1248.6,357c16.4,4.9,33.5,36.9,28.6,53.3" transform="translate(0 74.56)"/><path class="cls-12" d="M1248.6,357c-2.6-25.6,32-67.9,57.6-70.5" transform="translate(0 74.56)"/><path class="cls-12" d="M1248.6,357c-5.5-11.3,3.1-36.5,14.4-42.1" transform="translate(0 74.56)"/><path class="cls-12" d="M1248.6,357c-20.1-10.4-34.6-56.1-24.2-76.2" transform="translate(0 74.56)"/><path class="cls-13" d="M1086.2,496.4c27.6,10.8,52.7,68.5,41.9,96" transform="translate(0 74.56)"/><path class="cls-13" d="M964.8,579.2c35.3-30,133.2-22.1,163.3,13.2" transform="translate(0 74.56)"/><path class="cls-14" d="M964.8,579.2c-8.2,13.2-40.3,20.8-53.5,12.6" transform="translate(0 74.56)"/><path class="cls-4" d="M1193.4,678.7c1.2-20.4,33.6-49.2,54-48" transform="translate(0 74.56)"/><path class="cls-5" d="M1193.4,678.7c25.9-10.7,80.8,12,91.5,37.9" transform="translate(0 74.56)"/><path class="cls-15" d="M1193.4,678.7c-30.3-4.2-69.5-56-65.3-86.3" transform="translate(0 74.56)"/><path class="cls-11" d="M1193.4,678.7c-32.6,21.2-113.1,4-134.3-28.5" transform="translate(0 74.56)"/><path class="cls-5" d="M1193.4,678.7c-7.1,11.8-35.5,18.9-47.3,11.8" transform="translate(0 74.56)"/><path class="cls-5" d="M1193.4,678.7c5.3,13-6.3,40.5-19.3,45.8" transform="translate(0 74.56)"/><path class="cls-5" d="M1193.4,678.7c13.7,3,29.7,28.1,26.6,41.8" transform="translate(0 74.56)"/><path class="cls-5" d="M1314.1,558c12.7,1,30.3,21.5,29.3,34.2" transform="translate(0 74.56)"/><path class="cls-5" d="M1314.1,558c9.5-12,41.7-15.7,53.6-6.3" transform="translate(0 74.56)"/><path class="cls-4" d="M1314.1,558c1.2,27.9-38.8,71.5-66.7,72.7" transform="translate(0 74.56)"/><path class="cls-5" d="M1314.1,558c-14.8,3.6-42.2-13.2-45.8-27.9" transform="translate(0 74.56)"/><path class="cls-5" d="M1314.1,558c-10.4-13.4-5.9-49.2,7.5-59.7" transform="translate(0 74.56)"/><path class="cls-5" d="M1314.1,558c18.2-16.8,70.7-14.9,87.5,3.3" transform="translate(0 74.56)"/><path class="cls-5" d="M1314.1,558c1.2-23.2,37.7-56.2,60.9-55.1" transform="translate(0 74.56)"/><path class="cls-15" d="M1314.1,558c-30.3,44.1-142,64.7-186.1,34.4" transform="translate(0 74.56)"/><path class="cls-15" d="M984.5,347.2c77.7,20.3,163.8,167.5,143.5,245.2" transform="translate(0 74.56)"/><path class="cls-5" d="M984.5,347.2c-9.5-14.5-2.1-50.5,12.4-60" transform="translate(0 74.56)"/><path class="cls-5" d="M984.5,347.2c-18.4-7-35.5-45.1-28.5-63.6" transform="translate(0 74.56)"/><path class="cls-5" d="M984.5,347.2c7.3,12.1.2,41.3-11.9,48.6" transform="translate(0 74.56)"/><path class="cls-5" d="M984.5,347.2c-17.2,7-53.5-8.4-60.5-25.6" transform="translate(0 74.56)"/><path class="cls-5" d="M984.5,347.2c3.3-15.7,31.7-34.3,47.4-31.1" transform="translate(0 74.56)"/><path class="cls-5" d="M984.5,347.2c-6.5,17.5-42.6,34-60.1,27.4" transform="translate(0 74.56)"/><path class="cls-11" d="M1062.1,702.5c-8.8-35.2,30.8-101.3,66-110.1" transform="translate(0 74.56)"/><path class="cls-7" d="M785.5,675.8c-18.5-3-41.8-35.3-38.8-53.8" transform="translate(0 74.56)"/><path class="cls-7" d="M785.5,675.8c-10.5,6-35.3-.7-41.4-11.2" transform="translate(0 74.56)"/><path class="cls-12" d="M879.4,984c12.7-7,42.2,1.5,49.2,14.2" transform="translate(0 74.56)"/><path class="cls-1" d="M1043.5,584c-59.1-35.6-94.5-177.6-59-236.8" transform="translate(0 74.56)"/><path class="cls-1" d="M1043.5,584c18.6-15.2,69.3-10.2,84.5,8.4" transform="translate(0 74.56)"/><path class="cls-16" d="M1043.5,584c27.4,20,38.6,91.1,18.6,118.5" transform="translate(0 74.56)"/><path class="cls-1" d="M1043.5,584c48.9-59.3,211.3-74.9,270.6-25.9" transform="translate(0 74.56)"/><path class="cls-1" d="M1043.5,584c48.9-11,138.9,45.8,149.9,94.8" transform="translate(0 74.56)"/><path class="cls-17" d="M1043.5,584c-16.7,14.8-63.9,11.9-78.7-4.7" transform="translate(0 74.56)"/><path class="cls-17" d="M1043.5,584c-9-26.1,16.6-78.6,42.7-87.6" transform="translate(0 74.56)"/><path class="cls-18" d="M1035.78,588.35c-4.4-86.4,118.7-222.6,205.1-227" transform="translate(0 74.56)"/><path class="cls-16" d="M1043.5,584c4.8,18.4-15.7,53.1-34.1,57.8" transform="translate(0 74.56)"/><path class="cls-5" d="M838.4,726.3c10.6,8.3,14.2,36.7,5.9,47.4" transform="translate(0 74.56)"/><path class="cls-19" d="M886,835.5c-20.7-4-45.7-41.2-41.7-61.9" transform="translate(0 74.56)"/><path class="cls-5" d="M823.8,831.4c-7.5-15.6,4.8-50.3,20.5-57.8" transform="translate(0 74.56)"/><path class="cls-5" d="M882.9,746.1c-2.2,13.2-25.4,29.8-38.6,27.6" transform="translate(0 74.56)"/><path class="cls-5" d="M785.1,802.1c6.1-17.5,41.6-34.6,59.2-28.4" transform="translate(0 74.56)"/><path class="cls-5" d="M802,757.1c11.8-5.2,37.2,4.8,42.3,16.5" transform="translate(0 74.56)"/><path class="cls-5" d="M1479.3,848.6c10.8-8.8,40.2-5.9,49.1,4.9" transform="translate(0 74.56)"/><path class="cls-5" d="M1510.7,817.4c10.7,3.7,21.3,25.3,17.7,36.1" transform="translate(0 74.56)"/><path class="cls-5" d="M1513.2,773.9c18.9,12.9,28,60.6,15.1,79.6" transform="translate(0 74.56)"/><path class="cls-5" d="M1511,927.1c-11.2-18.2-.8-62.3,17.3-73.6" transform="translate(0 74.56)"/><path class="cls-5" d="M1573.3,869c-12.1,5.9-39.1-3.4-45-15.5" transform="translate(0 74.56)"/><path class="cls-5" d="M1457.2,813c22.3-6.1,65,18.2,71.1,40.5" transform="translate(0 74.56)"/><path class="cls-12" d="M971.5,996c-20.8,16-76.1,8.8-92.1-12" transform="translate(0 74.56)"/><path class="cls-12" d="M830.2,1045.9c-2.5-22.2,27-59.4,49.2-62" transform="translate(0 74.56)"/><path class="cls-12" d="M932.4,1048.5c-23.5-2.3-55.3-41.1-53-64.6" transform="translate(0 74.56)"/><path class="cls-12" d="M814.6,947.5c20.2-5.7,59.1,16.2,64.8,36.4" transform="translate(0 74.56)"/><path class="cls-12" d="M885.1,1079.3c-20.2-17.9-23.6-75.1-5.7-95.3" transform="translate(0 74.56)"/><path class="cls-12" d="M815.5,996c10.4-15.2,48.7-22.4,63.9-12.1" transform="translate(0 74.56)"/><path class="cls-12" d="M885.1,1034.5c-11.2-9-14.6-39.3-5.7-50.5" transform="translate(0 74.56)"/><path class="cls-12" d="M931.9,962.9c-6.3,14.7-37.8,27.3-52.5,21.1" transform="translate(0 74.56)"/><path class="cls-20" d="M886,835.5c28.4,31,24.4,120-6.6,148.4" transform="translate(0 74.56)"/><path class="cls-12" d="M892.8,929.8c8.2,13.5.2,46-13.3,54.1" transform="translate(0 74.56)"/><path class="cls-5" d="M1040.4,368.5c-15.4,6.9-49-5.8-55.9-21.3" transform="translate(0 74.56)"/><path class="cls-10" d="M1081.2,743.3c-12-4.3-23.5-28.8-19.2-40.8" transform="translate(0 74.56)"/><path class="cls-21" d="M1059.1,650.2c11,9.9,12.8,41.2,3,52.3" transform="translate(0 74.56)"/><path class="cls-10" d="M1043.5,764.6c-8.7-16.1,2.4-53.4,18.6-62.1" transform="translate(0 74.56)"/><path class="cls-14" d="M886,835.5c-52.1-11.9-112.3-107.7-100.5-159.8" transform="translate(0 74.56)"/><path class="cls-5" d="M1250.2,691.4c-13.9,8.8-48,1.2-56.8-12.7" transform="translate(0 74.56)"/><path class="cls-22" d="M1059.1,650.2c-33.1,4.7-89.7-37.9-94.3-71" transform="translate(0 74.56)"/><path class="cls-14" d="M953.1,533.8c11.4,6.8,18.4,34,11.6,45.5" transform="translate(0 74.56)"/><path class="cls-14" d="M910.5,544.2c17.9-3.9,50.4,17.1,54.3,35" transform="translate(0 74.56)"/><path class="cls-14" d="M1122,469.9c-1.9,12.5-23.4,28.3-35.8,26.5" transform="translate(0 74.56)"/><path class="cls-14" d="M1077,453.4c10.4,6.8,15.9,32.5,9.2,42.9" transform="translate(0 74.56)"/><path class="cls-14" d="M1128.4,511.5c-11.5,5.4-36.9-3.7-42.3-15.1" transform="translate(0 74.56)"/><path class="cls-14" d="M1041.8,479.5c12.3-5.5,38.9,4.7,44.4,16.9" transform="translate(0 74.56)"/><path class="cls-21" d="M1059.1,650.2c-11.6,8.3-41.4,3.2-49.7-8.4" transform="translate(0 74.56)"/><path class="cls-10" d="M437.7,793.7c11-6.9,37.9-.6,44.7,10.4" transform="translate(0 74.56)"/><path class="cls-10" d="M445.9,849.3c-1.7-16.3,20.3-43.4,36.6-45.1" transform="translate(0 74.56)"/><path class="cls-10" d="M522.1,832.5c-13.6,2.3-37.4-14.7-39.7-28.3" transform="translate(0 74.56)"/><path class="cls-23" d="M1059.1,650.2c-20.7-96.6,93-272.5,189.5-293.3" transform="translate(0 74.56)"/><path class="cls-12" d="M1263,270c14.5,20.3,5.9,72.5-14.4,87" transform="translate(0 74.56)"/><path class="cls-12" d="M1345.1,347.2c-17.3,21.3-75.2,27.1-96.5,9.8" transform="translate(0 74.56)"/><path class="cls-12" d="M1216.2,324.7c12.9,0,32.4,19.3,32.4,32.3" transform="translate(0 74.56)"/><path class="cls-12" d="M1302.2,340c-7.3,14.1-39.5,24.3-53.6,16.9" transform="translate(0 74.56)"/><path class="cls-9" d="M603.1,570.8c-9,5.7-31,.8-36.6-8.2" transform="translate(0 74.56)"/><path class="cls-9" d="M557.4,528.3c8.7,5.1,14,25.7,8.9,34.3" transform="translate(0 74.56)"/><path class="cls-9" d="M842,167.7c9.3-3.9,29,4.1,32.9,13.4" transform="translate(0 74.56)"/><path class="cls-9" d="M906.8,163.9c-3,9.8-22.1,20.1-31.9,17.2" transform="translate(0 74.56)"/><path class="cls-9" d="M875.9,214.5c-6.9-6.5-7.5-26.5-1-33.4" transform="translate(0 74.56)"/><path class="cls-8" d="M622.5,326.8c16.3,6.5,30.9,40.7,24.4,57" transform="translate(0 74.56)"/><path class="cls-7" d="M1688.3,932.5c-11.8,1.6-32-13.8-33.6-25.6" transform="translate(0 74.56)"/><path class="cls-7" d="M1677.2,869.2c3,12-10.4,34.6-22.5,37.6" transform="translate(0 74.56)"/><circle class="cls-24" cx="844.3" cy="848.16" r="25"/><circle class="cls-25" cx="1043.49" cy="583.98" r="26.7" transform="translate(41.95 1311.84) rotate(-62.35)"/><circle class="cls-25" cx="199.55" cy="241.86" r="26.7"/><circle class="cls-26" cx="879.4" cy="1058.56" r="30"/><circle class="cls-27" cx="785.5" cy="750.36" r="16.7"/><circle class="cls-27" cx="386.85" cy="243.76" r="16.7"/><circle class="cls-28" cx="984.5" cy="421.76" r="25"/><circle class="cls-29" cx="1062.1" cy="777.06" r="18.3"/><circle class="cls-28" cx="1314.1" cy="632.56" r="25"/><circle class="cls-28" cx="1193.4" cy="753.26" r="25"/><circle class="cls-30" cx="964.8" cy="653.76" r="20"/><circle class="cls-30" cx="303.66" cy="168" r="20" transform="translate(48.25 477.5) rotate(-71.56)"/><circle class="cls-30" cx="1086.2" cy="570.96" r="20"/><circle class="cls-26" cx="1248.6" cy="431.56" r="30"/><circle class="cls-29" cx="1009.39" cy="641.78" r="18.3" transform="translate(-27.53 1312.61) rotate(-62.35)"/><circle class="cls-24" cx="1528.4" cy="928.06" r="25"/><circle class="cls-24" cx="1570.2" cy="872.16" r="13.3"/><circle class="cls-29" cx="482.5" cy="878.76" r="18.3"/><circle class="cls-31" cx="566.4" cy="637.16" r="15"/><circle class="cls-31" cx="874.9" cy="255.66" r="15"/><circle class="cls-28" cx="646.9" cy="458.46" r="23.3"/><circle class="cls-26" cx="137.25" cy="241.86" r="30"/><circle class="cls-29" cx="346.75" cy="243.76" r="20"/><circle class="cls-32" cx="453.35" cy="242.46" r="10"/><circle class="cls-31" cx="422.65" cy="243.06" r="15"/><circle class="cls-28" cx="255.25" cy="241.86" r="23.3"/><circle class="cls-27" cx="1654.8" cy="981.36" r="16.7"/><circle class="cls-28" cx="1128" cy="666.96" r="25"/><circle class="cls-29" cx="1059.1" cy="724.76" r="18.3"/><circle class="cls-31" cx="886" cy="910.06" r="15"/><g id="blueballwords"><g id="blueball"><circle class="cls-32" cx="1504.3" cy="961.76" r="11.7"/><circle class="cls-32" cx="1590" cy="842.26" r="11.7"/><circle class="cls-32" cx="1635.8" cy="1019.66" r="11.7"/><circle class="cls-32" cx="1714.9" cy="705.36" r="10"/><circle class="cls-32" cx="1858.3" cy="1153.86" r="10"/><circle class="cls-32" cx="1479.3" cy="923.16" r="11.7"/><circle class="cls-32" cx="1510.7" cy="891.96" r="11.7"/><circle class="cls-32" cx="1513.2" cy="848.46" r="11.7"/><circle class="cls-32" cx="1511" cy="1001.66" r="11.7"/><circle class="cls-32" cx="1573.3" cy="943.56" r="11.7"/><circle class="cls-32" cx="1457.2" cy="887.56" r="11.7"/><circle class="cls-32" cx="977.1" cy="741.56" r="11.7"/><circle class="cls-32" cx="1128.4" cy="586.06" r="11.7"/><circle class="cls-32" cx="1187.7" cy="431.76" r="11.7"/><circle class="cls-32" cx="1277.2" cy="484.76" r="11.7"/><circle class="cls-32" cx="1306.2" cy="361.06" r="11.7"/><circle class="cls-32" cx="1263" cy="389.46" r="11.7"/><circle class="cls-32" cx="1224.4" cy="355.36" r="11.7"/><circle class="cls-32" cx="911.2" cy="666.46" r="11.7"/><circle class="cls-32" cx="1247.4" cy="705.36" r="13.3"/><circle class="cls-32" cx="1284.9" cy="791.16" r="11.7"/><circle class="cls-32" cx="1146.1" cy="765.06" r="11.7"/><circle class="cls-32" cx="1174.1" cy="799.06" r="11.7"/><circle class="cls-32" cx="1220" cy="795.16" r="11.7"/><circle class="cls-32" cx="1343.4" cy="666.76" r="11.7"/><circle class="cls-32" cx="1367.7" cy="626.36" r="11.7"/><circle class="cls-32" cx="1268.3" cy="604.66" r="11.7"/><circle class="cls-32" cx="1321.6" cy="572.96" r="11.7"/><circle class="cls-32" cx="1401.6" cy="635.86" r="11.7"/><circle class="cls-32" cx="1375" cy="577.56" r="11.7"/><circle class="cls-32" cx="1081.2" cy="817.86" r="11.7"/><circle class="cls-32" cx="1043.5" cy="839.16" r="11.7"/><circle class="cls-32" cx="1250.2" cy="765.96" r="11.7"/><circle class="cls-32" cx="953.1" cy="608.36" r="11.7"/><circle class="cls-32" cx="910.5" cy="618.76" r="11.7"/><circle class="cls-32" cx="1122" cy="544.46" r="11.7"/><circle class="cls-32" cx="1077" cy="527.96" r="11.7"/><circle class="cls-32" cx="1041.8" cy="554.06" r="11.7"/><circle class="cls-32" cx="1263" cy="344.56" r="11.7"/><circle class="cls-32" cx="1345.1" cy="421.76" r="11.7"/><circle class="cls-32" cx="1216.2" cy="399.26" r="11.7"/><circle class="cls-32" cx="1302.2" cy="414.56" r="11.7"/><circle class="cls-32" cx="996.9" cy="361.86" r="11.7"/><circle class="cls-32" cx="956" cy="358.26" r="11.7"/><circle class="cls-32" cx="972.6" cy="470.46" r="11.7"/><circle class="cls-32" cx="924" cy="396.16" r="11.7"/><path class="cls-32" d="M1043,319.88a11.7,11.7,0,1,0-14.89,7.23A11.7,11.7,0,0,0,1043,319.88Z" transform="translate(0 74.56)"/><circle class="cls-32" cx="924.5" cy="449.26" r="11.7"/><circle class="cls-32" cx="1040.4" cy="443.06" r="11.7"/><circle class="cls-32" cx="928.6" cy="1072.76" r="11.7"/><circle class="cls-32" cx="971.5" cy="1070.46" r="11.7"/><circle class="cls-32" cx="830.2" cy="1120.46" r="11.7"/><circle class="cls-32" cx="932.4" cy="1123.06" r="11.7"/><circle class="cls-32" cx="814.6" cy="1022.06" r="11.7"/><circle class="cls-32" cx="885.1" cy="1153.86" r="11.7"/><circle class="cls-32" cx="815.5" cy="1070.56" r="11.7"/><circle class="cls-32" cx="885.1" cy="1109.06" r="11.7"/><circle class="cls-32" cx="931.9" cy="1037.46" r="11.7"/><circle class="cls-32" cx="892.8" cy="1004.36" r="11.7"/><circle class="cls-32" cx="469.8" cy="827.26" r="11.7"/><circle class="cls-32" cx="525.2" cy="850.86" r="11.7"/><circle class="cls-32" cx="797.4" cy="794.56" r="11.7"/><circle class="cls-32" cx="746.7" cy="696.56" r="11.7"/><circle class="cls-32" cx="744.1" cy="739.16" r="11.7"/><circle class="cls-32" cx="838.4" cy="800.86" r="11.7"/><circle class="cls-32" cx="823.8" cy="905.96" r="11.7"/><circle class="cls-32" cx="882.9" cy="820.66" r="11.7"/><circle class="cls-32" cx="785.1" cy="876.66" r="11.7"/><circle class="cls-32" cx="802" cy="831.66" r="11.7"/><circle class="cls-32" cx="437.7" cy="868.26" r="11.7"/><circle class="cls-32" cx="445.9" cy="923.86" r="11.7"/><circle class="cls-32" cx="522.1" cy="907.06" r="11.7"/><circle class="cls-32" cx="303.9" cy="700.46" r="10"/><circle class="cls-32" cx="541.6" cy="669.16" r="11.7"/><circle class="cls-32" cx="603.1" cy="645.36" r="11.7"/><circle class="cls-32" cx="557.4" cy="602.86" r="11.7"/><circle class="cls-32" cx="579.7" cy="485.46" r="11.7"/><circle class="cls-32" cx="709.8" cy="477.96" r="11.7"/><circle class="cls-32" cx="626.3" cy="514.96" r="11.7"/><circle class="cls-32" cx="702.1" cy="440.16" r="11.7"/><circle class="cls-32" cx="666.1" cy="411.36" r="11.7"/><circle class="cls-32" cx="671.7" cy="501.56" r="11.7"/><circle class="cls-32" cx="600.5" cy="445.66" r="11.7"/><circle class="cls-32" cx="842" cy="242.26" r="11.7"/><circle class="cls-32" cx="906.8" cy="238.46" r="11.7"/><circle class="cls-32" cx="875.9" cy="289.06" r="11.7"/><circle class="cls-32" cx="622.5" cy="401.36" r="11.7"/><circle class="cls-32" cx="1688.3" cy="1007.06" r="11.7"/><circle class="cls-32" cx="1677.2" cy="943.76" r="11.7"/></g></g><path d="M109.45,66.7h1.8a2.3,2.3,0,0,0,1.2,1.8,5.28,5.28,0,0,0,2.6.7,4.09,4.09,0,0,0,2.5-.7,2.12,2.12,0,0,0,1-1.8,2,2,0,0,0-.7-1.6,5,5,0,0,0-2.2-1l-1.9-.5a5.33,5.33,0,0,1-2.9-1.5,3.49,3.49,0,0,1-.9-2.5,4,4,0,0,1,1.4-3.1,5.77,5.77,0,0,1,3.8-1.2,6.15,6.15,0,0,1,3.6,1.1,3.74,3.74,0,0,1,1.6,2.9h-1.9a2.45,2.45,0,0,0-1.1-1.8,3.92,3.92,0,0,0-2.3-.6,3.61,3.61,0,0,0-2.4.7,2.27,2.27,0,0,0-.9,1.8,1.51,1.51,0,0,0,.7,1.4,4.54,4.54,0,0,0,2.2.9l1.5.4a8.48,8.48,0,0,1,3.3,1.5,3.25,3.25,0,0,1,1,2.6,3.8,3.8,0,0,1-1.5,3.2,6.16,6.16,0,0,1-4,1.2,6.89,6.89,0,0,1-3.9-1.1A3.19,3.19,0,0,1,109.45,66.7Z" transform="translate(0 74.56)"/><path d="M130.65,67.7h1.8a3.66,3.66,0,0,1-1.6,2.2,5.57,5.57,0,0,1-3,.8,4.61,4.61,0,0,1-3.6-1.5A6,6,0,0,1,123,65a6.44,6.44,0,0,1,1.4-4.2,4.38,4.38,0,0,1,3.6-1.6,4.26,4.26,0,0,1,3.5,1.5,5.94,5.94,0,0,1,1.3,4.1v.7h-7.9v.1a4.06,4.06,0,0,0,.9,2.6,2.93,2.93,0,0,0,2.3,1,3.42,3.42,0,0,0,1.8-.4A3.47,3.47,0,0,0,130.65,67.7Zm-5.1-5.9a3.77,3.77,0,0,0-1,2.4h6.1a3.65,3.65,0,0,0-.8-2.4,2.58,2.58,0,0,0-2.1-.9A2.94,2.94,0,0,0,125.55,61.8Z" transform="translate(0 74.56)"/><path d="M142.65,67.7h1.8a3.66,3.66,0,0,1-1.6,2.2,5.57,5.57,0,0,1-3,.8,4.61,4.61,0,0,1-3.6-1.5A6,6,0,0,1,135,65a6.44,6.44,0,0,1,1.4-4.2,4.38,4.38,0,0,1,3.6-1.6,4.26,4.26,0,0,1,3.5,1.5,5.94,5.94,0,0,1,1.3,4.1v.7h-7.9v.1a4.06,4.06,0,0,0,.9,2.6,2.93,2.93,0,0,0,2.3,1,3.42,3.42,0,0,0,1.8-.4A3.47,3.47,0,0,0,142.65,67.7Zm-5.1-5.9a3.77,3.77,0,0,0-1,2.4h6.1a3.65,3.65,0,0,0-.8-2.4,2.58,2.58,0,0,0-2.1-.9A2.94,2.94,0,0,0,137.55,61.8Z" transform="translate(0 74.56)"/><path d="M147.75,69.9a3,3,0,0,1-1.1-2.4c0-2,1.3-3.1,4-3.3l3.2-.2V63c0-1.4-.8-2.1-2.5-2.1a3.06,3.06,0,0,0-1.7.4,1.52,1.52,0,0,0-.8,1h-1.8a2.79,2.79,0,0,1,1.4-2.1,5.57,5.57,0,0,1,3-.8,4.29,4.29,0,0,1,3.1,1,3.69,3.69,0,0,1,1.1,2.7v7.6H154V69.1h-.2a4.67,4.67,0,0,1-1.4,1.4,3.51,3.51,0,0,1-2,.5A5.56,5.56,0,0,1,147.75,69.9Zm5.2-1.5a2.52,2.52,0,0,0,.9-2v-1l-3,.2q-2.4.15-2.4,1.8a1.49,1.49,0,0,0,.6,1.3,2.77,2.77,0,0,0,1.6.5A3,3,0,0,0,153,68.4Z" transform="translate(0 74.56)"/><path d="M159.05,70.6V55.2h1.8V70.6Z" transform="translate(0 74.56)"/><path d="M165.15,60.2a4.76,4.76,0,0,1,2.9-.9,5.22,5.22,0,0,1,2.9.8,3.16,3.16,0,0,1,1.3,2.2h-1.7a2.1,2.1,0,0,0-.8-1.1,2.73,2.73,0,0,0-1.6-.4,3.1,3.1,0,0,0-1.7.5,1.31,1.31,0,0,0-.7,1.2,1.05,1.05,0,0,0,.5.9,3.67,3.67,0,0,0,1.4.6l1.7.4a5.48,5.48,0,0,1,2.3,1.1,2.56,2.56,0,0,1,.8,1.9,2.71,2.71,0,0,1-1.3,2.4,5.27,5.27,0,0,1-3.2.9,5.57,5.57,0,0,1-3-.8,2.85,2.85,0,0,1-1.3-2.2h1.8a1.94,1.94,0,0,0,.9,1.1,2.86,2.86,0,0,0,1.7.4,3.2,3.2,0,0,0,1.8-.5,1.52,1.52,0,0,0,.7-1.2,1.28,1.28,0,0,0-.4-1,2.26,2.26,0,0,0-1.3-.6l-1.9-.5a5.48,5.48,0,0,1-2.3-1.1,2.49,2.49,0,0,1-.7-1.9A2.91,2.91,0,0,1,165.15,60.2Z" transform="translate(0 74.56)"/><path d="M176,69.2a7,7,0,0,1,0-8.4,4.82,4.82,0,0,1,3.7-1.5,4.68,4.68,0,0,1,3.7,1.5,7,7,0,0,1,0,8.4,4.82,4.82,0,0,1-3.7,1.5A4.33,4.33,0,0,1,176,69.2Zm6.2-1.1a4.48,4.48,0,0,0,.9-3,5,5,0,0,0-.9-3.1,2.77,2.77,0,0,0-2.4-1.1,2.9,2.9,0,0,0-2.4,1.1,5.19,5.19,0,0,0-.9,3.1,4.48,4.48,0,0,0,.9,3,3.17,3.17,0,0,0,4.8,0Z" transform="translate(0 74.56)"/><path d="M193.75,55.8h5a6.57,6.57,0,0,1,5.1,1.9,7.66,7.66,0,0,1,1.8,5.4,8.1,8.1,0,0,1-1.8,5.5,6.62,6.62,0,0,1-5.1,2h-5.1V55.8Zm1.8,1.6V69h3.1a5.12,5.12,0,0,0,3.9-1.5,7,7,0,0,0,0-8.4,4.9,4.9,0,0,0-3.8-1.5h-3.2Z" transform="translate(0 74.56)"/><path d="M216.05,67.7h1.8a3.66,3.66,0,0,1-1.6,2.2,5.57,5.57,0,0,1-3,.8,4.61,4.61,0,0,1-3.6-1.5,6,6,0,0,1-1.3-4.2,6.44,6.44,0,0,1,1.4-4.2,4.38,4.38,0,0,1,3.6-1.6,4.26,4.26,0,0,1,3.5,1.5,5.94,5.94,0,0,1,1.3,4.1v.7h-7.9v.1a4.06,4.06,0,0,0,.9,2.6,2.93,2.93,0,0,0,2.3,1,3.42,3.42,0,0,0,1.8-.4A3.47,3.47,0,0,0,216.05,67.7Zm-5-5.9a3.77,3.77,0,0,0-1,2.4h6.1a3.65,3.65,0,0,0-.8-2.4,2.58,2.58,0,0,0-2.1-.9A2.66,2.66,0,0,0,211.05,61.8Z" transform="translate(0 74.56)"/><path d="M222.15,74a3.15,3.15,0,0,1-1.4-2.2h1.9a1.62,1.62,0,0,0,.9,1.1,3.58,3.58,0,0,0,1.9.4,3.17,3.17,0,0,0,2.3-.7,2.24,2.24,0,0,0,.8-1.9V68.5h-.2a3.16,3.16,0,0,1-1.4,1.4,4.55,4.55,0,0,1-2,.5,4.19,4.19,0,0,1-3.4-1.5,6.35,6.35,0,0,1-1.2-4,5.68,5.68,0,0,1,1.3-4,4.33,4.33,0,0,1,3.4-1.5,4.65,4.65,0,0,1,2.1.5,3.76,3.76,0,0,1,1.4,1.4h.2V59.5h1.7V70.7a3.8,3.8,0,0,1-1.3,3,5.72,5.72,0,0,1-3.6,1.1A6.08,6.08,0,0,1,222.15,74Zm5.5-6.2a5.12,5.12,0,0,0,0-5.8,3.17,3.17,0,0,0-4.8,0,4.35,4.35,0,0,0-.8,2.9,5,5,0,0,0,.8,2.9,3.17,3.17,0,0,0,4.8,0Z" transform="translate(0 74.56)"/><path d="M233.55,70.6V59.5h1.7v1.6h.2a2.3,2.3,0,0,1,1.1-1.3,4.23,4.23,0,0,1,2-.5h.9v1.8a1.34,1.34,0,0,1-.5-.1,1.15,1.15,0,0,0-.6,0,3.23,3.23,0,0,0-2.1.8,2.24,2.24,0,0,0-.8,1.9v6.8l-1.9.1Z" transform="translate(0 74.56)"/><path d="M248.85,67.7h1.8a3.66,3.66,0,0,1-1.6,2.2,5.57,5.57,0,0,1-3,.8,4.61,4.61,0,0,1-3.6-1.5,6,6,0,0,1-1.3-4.2,6.44,6.44,0,0,1,1.4-4.2,4.38,4.38,0,0,1,3.6-1.6,4.26,4.26,0,0,1,3.5,1.5,5.94,5.94,0,0,1,1.3,4.1v.7h-7.9v.1a4.06,4.06,0,0,0,.9,2.6,2.93,2.93,0,0,0,2.3,1,3.42,3.42,0,0,0,1.8-.4A3.47,3.47,0,0,0,248.85,67.7Zm-5.1-5.9a3.77,3.77,0,0,0-1,2.4h6.1a3.65,3.65,0,0,0-.8-2.4,2.58,2.58,0,0,0-2.1-.9A2.94,2.94,0,0,0,243.75,61.8Z" transform="translate(0 74.56)"/><path d="M260.85,67.7h1.8a3.66,3.66,0,0,1-1.6,2.2,5.57,5.57,0,0,1-3,.8,4.61,4.61,0,0,1-3.6-1.5,6,6,0,0,1-1.3-4.2,6.44,6.44,0,0,1,1.4-4.2,4.38,4.38,0,0,1,3.6-1.6,4.26,4.26,0,0,1,3.5,1.5,5.94,5.94,0,0,1,1.3,4.1v.7h-7.9v.1a4.06,4.06,0,0,0,.9,2.6,2.93,2.93,0,0,0,2.3,1,3.42,3.42,0,0,0,1.8-.4A3.47,3.47,0,0,0,260.85,67.7Zm-5.1-5.9a3.77,3.77,0,0,0-1,2.4h6.1a3.65,3.65,0,0,0-.8-2.4,2.58,2.58,0,0,0-2.1-.9A2.94,2.94,0,0,0,255.75,61.8Z" transform="translate(0 74.56)"/><path d="M271.45,70.6V59.5h1.7v1.7h.2a3.33,3.33,0,0,1,1.2-1.4,4.06,4.06,0,0,1,2.1-.5,3.65,3.65,0,0,1,3.9,4.1v7.2h-1.8V63.9a3.4,3.4,0,0,0-.6-2.2,2.44,2.44,0,0,0-2-.7,2.86,2.86,0,0,0-2.1.8,3.2,3.2,0,0,0-.8,2.3v6.5Z" transform="translate(0 74.56)"/><path d="M292.65,59.5V70.6H291V68.9h-.2a3,3,0,0,1-1.3,1.4,4.65,4.65,0,0,1-2.1.5,3.61,3.61,0,0,1-2.8-1.1,4.5,4.5,0,0,1-1-3V59.5h1.8v6.7a3.4,3.4,0,0,0,.6,2.2,2.23,2.23,0,0,0,1.9.7,3,3,0,0,0,2.2-.8,3.2,3.2,0,0,0,.8-2.3V59.5Z" transform="translate(0 74.56)"/><path d="M296,70.6V59.5h1.7v1.7h.2a2.76,2.76,0,0,1,1.2-1.4,3.83,3.83,0,0,1,1.9-.5,3.56,3.56,0,0,1,1.9.5,4.07,4.07,0,0,1,1.2,1.4h.2a3,3,0,0,1,1.3-1.4,3.51,3.51,0,0,1,2-.5,3.57,3.57,0,0,1,2.6.9,3.67,3.67,0,0,1,.9,2.7v7.6h-1.8V63.3a2.44,2.44,0,0,0-.6-1.8,2.35,2.35,0,0,0-1.7-.6,2.49,2.49,0,0,0-1.9.7,2.41,2.41,0,0,0-.7,1.8v7.1h-1.8V63a2.11,2.11,0,0,0-.6-1.6,2.35,2.35,0,0,0-1.7-.6,2.5,2.5,0,0,0-1.8.8,2.72,2.72,0,0,0-.7,2v6.8H296Z" transform="translate(0 74.56)"/><path d="M317.65,70.2a4,4,0,0,1-1.5-1.4H316v1.8h-1.7V55.1h1.8v6.1h.2a3.16,3.16,0,0,1,1.4-1.4,4.65,4.65,0,0,1,2.1-.5,4.12,4.12,0,0,1,3.4,1.6,6.21,6.21,0,0,1,1.3,4.2,6.39,6.39,0,0,1-1.3,4.2,4.27,4.27,0,0,1-3.4,1.6A5.22,5.22,0,0,1,317.65,70.2ZM317,62a5.45,5.45,0,0,0,0,6,3.17,3.17,0,0,0,4.8,0,5.45,5.45,0,0,0,0-6,3.17,3.17,0,0,0-4.8,0Z" transform="translate(0 74.56)"/><path d="M334.45,67.7h1.8a3.66,3.66,0,0,1-1.6,2.2,5.57,5.57,0,0,1-3,.8,4.61,4.61,0,0,1-3.6-1.5,6,6,0,0,1-1.3-4.2,6.44,6.44,0,0,1,1.4-4.2,4.38,4.38,0,0,1,3.6-1.6,4.26,4.26,0,0,1,3.5,1.5,5.94,5.94,0,0,1,1.3,4.1v.7h-7.9v.1a4.06,4.06,0,0,0,.9,2.6,2.93,2.93,0,0,0,2.3,1,3.42,3.42,0,0,0,1.8-.4A2.42,2.42,0,0,0,334.45,67.7Zm-5-5.9a3.77,3.77,0,0,0-1,2.4h6.1a3.65,3.65,0,0,0-.8-2.4,2.58,2.58,0,0,0-2.1-.9A2.66,2.66,0,0,0,329.45,61.8Z" transform="translate(0 74.56)"/><path d="M339.15,70.6V59.5h1.7v1.6h.2a2.3,2.3,0,0,1,1.1-1.3,4.23,4.23,0,0,1,2-.5h.9v1.8a1.34,1.34,0,0,1-.5-.1,1.15,1.15,0,0,0-.6,0,3.23,3.23,0,0,0-2.1.8,2.24,2.24,0,0,0-.8,1.9v6.8l-1.9.1Z" transform="translate(0 74.56)"/><path d="M130.35,119.6h-1.8V108.3h-.1l-4.7,11.2h-1.6l-4.7-11.2h-.1v11.3h-1.7V104.8h2.1l5.1,12.2h.2l5.1-12.2h2.1l.1,14.8Z" transform="translate(0 74.56)"/><path d="M143.75,119.6c-.3-.9-.5-1.6-.7-2.1s-.4-1.3-.7-2.1h-5.9l-1.5,4.2h-2l5.5-14.8h1.8l5.5,14.8Zm-4.5-12.4c-.3.9-.6,1.7-.8,2.3s-.5,1.3-.7,2-.5,1.4-.8,2.3h4.8l-2.3-6.6Z" transform="translate(0 74.56)"/><path d="M147.25,119.6c.7-1,1.3-1.9,1.8-2.6s1-1.5,1.5-2.2,1.1-1.6,1.8-2.6l-5-7.4h2.2l3.9,5.9h.2l4-5.9h2.1l-5.1,7.4,5,7.4h-2.2l-3.9-5.8h-.2l-3.9,5.8Z" transform="translate(0 74.56)"/><path d="M447.75,121.2H446V109.9h0l-4.7,11.2h-1.6L435,109.9h-.1v11.3h-1.7V106.4h2.1l5.1,12.2h.2l5.1-12.2h2.1v14.8Z" transform="translate(0 74.56)"/><path d="M453.45,121.2h-1.8V106.4h1.8Z" transform="translate(0 74.56)"/><path d="M459,121.2h-1.8V106.4H459l8,11.5h.2V106.4H469v14.8h-1.8l-8-11.5H459Z" transform="translate(0 74.56)"/><circle class="cls-24" cx="137.65" cy="320.56" r="25"/><line class="cls-33" x1="137.65" y1="320.56" x2="226.85" y2="320.56"/><path class="cls-24" d="M235.05,248.8h1.8a2.3,2.3,0,0,0,1.2,1.8,5.28,5.28,0,0,0,2.6.7,4.09,4.09,0,0,0,2.5-.7,2.12,2.12,0,0,0,1-1.8,2,2,0,0,0-.7-1.6,5,5,0,0,0-2.2-1l-1.9-.5a5.33,5.33,0,0,1-2.9-1.5,3.49,3.49,0,0,1-.9-2.5,4,4,0,0,1,1.4-3.1,5.77,5.77,0,0,1,3.8-1.2,6.15,6.15,0,0,1,3.6,1.1,3.74,3.74,0,0,1,1.6,2.9h-2a2.45,2.45,0,0,0-1.1-1.8,3.92,3.92,0,0,0-2.3-.6,3.61,3.61,0,0,0-2.4.7,2.27,2.27,0,0,0-.9,1.8,1.51,1.51,0,0,0,.7,1.4,4.54,4.54,0,0,0,2.2.9l1.5.4a8.48,8.48,0,0,1,3.3,1.5,3.25,3.25,0,0,1,1,2.6,3.8,3.8,0,0,1-1.5,3.2,6.16,6.16,0,0,1-4,1.2,6.89,6.89,0,0,1-3.9-1.1A3,3,0,0,1,235.05,248.8Z" transform="translate(0 74.56)"/><path class="cls-24" d="M249.65,238.7h1.8v2.9H254v1.5h-2.5v6.3a2,2,0,0,0,.4,1.4,1.7,1.7,0,0,0,1.3.4h.8v1.5c-.2,0-.3.1-.5.1H253a3.14,3.14,0,0,1-2.4-.7,3,3,0,0,1-.7-2.3V243h-1.8v-1.5h1.8v-2.8Z" transform="translate(0 74.56)"/><path class="cls-24" d="M256.85,251.9a3,3,0,0,1-1.1-2.4c0-2,1.3-3.1,4-3.3l3.2-.2v-1c0-1.4-.8-2.1-2.5-2.1a3.06,3.06,0,0,0-1.7.4,1.52,1.52,0,0,0-.8,1h-1.8a2.79,2.79,0,0,1,1.4-2.1,5.57,5.57,0,0,1,3-.8,4.29,4.29,0,0,1,3.1,1,3.69,3.69,0,0,1,1.1,2.7v7.6h-1.7V251H263a4.67,4.67,0,0,1-1.4,1.4,3.51,3.51,0,0,1-2,.5A4.93,4.93,0,0,1,256.85,251.9Zm5.3-1.4a2.52,2.52,0,0,0,.9-2v-1l-3,.2q-2.4.15-2.4,1.8a1.49,1.49,0,0,0,.6,1.3,2.77,2.77,0,0,0,1.6.5A3.37,3.37,0,0,0,262.15,250.5Z" transform="translate(0 74.56)"/><path class="cls-24" d="M268.05,252.6V241.5h1.7v1.6h.2a2.3,2.3,0,0,1,1.1-1.3,4.23,4.23,0,0,1,2-.5h.9v1.8a1.34,1.34,0,0,1-.5-.1,1.15,1.15,0,0,0-.6,0,3.23,3.23,0,0,0-2.1.8,2.24,2.24,0,0,0-.8,1.9v6.8l-1.9.1Z" transform="translate(0 74.56)"/><path class="cls-24" d="M276.85,238.7h1.8v2.9h2.5v1.5h-2.5v6.3a2,2,0,0,0,.4,1.4,1.7,1.7,0,0,0,1.3.4h.8v1.5c-.2,0-.3.1-.5.1h-.5a3.14,3.14,0,0,1-2.4-.7,3,3,0,0,1-.7-2.3V243h-1.8v-1.5h1.8v-2.8Z" transform="translate(0 74.56)"/><path class="cls-24" d="M283.75,239a1.27,1.27,0,0,1-.4-.9,1.22,1.22,0,0,1,.4-.9,1.09,1.09,0,0,1,.9-.4,1.22,1.22,0,0,1,.9.4,1.09,1.09,0,0,1,.4.9,1.22,1.22,0,0,1-.4.9,1.09,1.09,0,0,1-.9.4A2.47,2.47,0,0,1,283.75,239Zm0,13.6V241.5h1.8v11.1Z" transform="translate(0 74.56)"/><path class="cls-24" d="M288.85,252.6V241.5h1.7v1.7h.2a3.33,3.33,0,0,1,1.2-1.4,4.06,4.06,0,0,1,2.1-.5,3.65,3.65,0,0,1,3.9,4.1v7.2h-1.8v-6.7a3.4,3.4,0,0,0-.6-2.2,2.44,2.44,0,0,0-2-.7,2.86,2.86,0,0,0-2.1.8,3.2,3.2,0,0,0-.8,2.3v6.5Z" transform="translate(0 74.56)"/><path class="cls-24" d="M302.45,256a3.15,3.15,0,0,1-1.4-2.2H303a1.62,1.62,0,0,0,.9,1.1,3.58,3.58,0,0,0,1.9.4,3.17,3.17,0,0,0,2.3-.7,2.24,2.24,0,0,0,.8-1.9v-2.2h-.2a3.16,3.16,0,0,1-1.4,1.4,4.55,4.55,0,0,1-2,.5,4.19,4.19,0,0,1-3.4-1.5,6.35,6.35,0,0,1-1.2-4,5.84,5.84,0,0,1,1.3-4,4.33,4.33,0,0,1,3.4-1.5,4.65,4.65,0,0,1,2.1.5,3.76,3.76,0,0,1,1.4,1.4h.2v-1.8h1.7v11.2a3.8,3.8,0,0,1-1.3,3,5.72,5.72,0,0,1-3.6,1.1A4.93,4.93,0,0,1,302.45,256Zm5.6-6.2a5.12,5.12,0,0,0,0-5.8,3.17,3.17,0,0,0-4.8,0,4.35,4.35,0,0,0-.8,2.9,5,5,0,0,0,.8,2.9,3.17,3.17,0,0,0,4.8,0Z" transform="translate(0 74.56)"/><path class="cls-24" d="M320.05,237.8h5.6a4.52,4.52,0,0,1,3.4,1.3,4.6,4.6,0,0,1,1.3,3.5,4.46,4.46,0,0,1-4.7,4.7H322v5.3h-1.8V237.8Zm1.9,1.7v6.3h3.3a3.74,3.74,0,0,0,2.5-.8,3.39,3.39,0,0,0,0-4.6,3.74,3.74,0,0,0-2.5-.8l-3.3-.1Z" transform="translate(0 74.56)"/><path class="cls-24" d="M334.05,251.3a7,7,0,0,1,0-8.4,5.31,5.31,0,0,1,7.4,0,7,7,0,0,1,0,8.4,5.31,5.31,0,0,1-7.4,0Zm6.1-1.2a4.48,4.48,0,0,0,.9-3,5,5,0,0,0-.9-3.1,2.77,2.77,0,0,0-2.4-1.1,2.9,2.9,0,0,0-2.4,1.1,5.19,5.19,0,0,0-.9,3.1,4.48,4.48,0,0,0,.9,3,3,3,0,0,0,2.4,1.1A2.77,2.77,0,0,0,340.15,250.1Z" transform="translate(0 74.56)"/><path class="cls-24" d="M345.65,239a1.27,1.27,0,0,1-.4-.9,1.22,1.22,0,0,1,.4-.9,1.09,1.09,0,0,1,.9-.4,1.22,1.22,0,0,1,.9.4,1.09,1.09,0,0,1,.4.9,1.22,1.22,0,0,1-.4.9,1.09,1.09,0,0,1-.9.4A1.88,1.88,0,0,1,345.65,239Zm0,13.6V241.5h1.8v11.1Z" transform="translate(0 74.56)"/><path class="cls-24" d="M350.75,252.6V241.5h1.7v1.7h.2a3.33,3.33,0,0,1,1.2-1.4,4.06,4.06,0,0,1,2.1-.5,3.65,3.65,0,0,1,3.9,4.1v7.2h-1.8v-6.7a3.4,3.4,0,0,0-.6-2.2,2.44,2.44,0,0,0-2-.7,2.86,2.86,0,0,0-2.1.8,3.2,3.2,0,0,0-.8,2.3v6.5Z" transform="translate(0 74.56)"/><path class="cls-24" d="M363.75,238.7h1.8v2.9h2.5v1.5h-2.5v6.3a2,2,0,0,0,.4,1.4,1.7,1.7,0,0,0,1.3.4h.8v1.5c-.2,0-.3.1-.5.1h-.5a3.14,3.14,0,0,1-2.4-.7,3,3,0,0,1-.7-2.3V243h-2v-1.5h1.8v-2.8Z" transform="translate(0 74.56)"/><rect class="cls-33" x="226.85" y="306.96" width="149.7" height="27.1"/><g class="cls-34"><path class="cls-24" d="M1793.42,802.29h-1.48V792.6h-.11l-4,9.69h-1.33l-4-9.69h-.11v9.69h-1.47V789.61h1.83l4.35,10.58h.14l4.34-10.58h1.84Z" transform="translate(0 74.56)"/><path class="cls-24" d="M1796.8,801.7a2.58,2.58,0,0,1-.91-2.06c0-1.74,1.16-2.67,3.46-2.81l2.73-.16v-.87a1.68,1.68,0,0,0-.54-1.34,2.39,2.39,0,0,0-1.6-.47,3,3,0,0,0-1.42.31,1.46,1.46,0,0,0-.72.87h-1.53a2.52,2.52,0,0,1,1.18-1.83,4.46,4.46,0,0,1,2.54-.69,3.89,3.89,0,0,1,2.67.84,3,3,0,0,1,.93,2.31v6.49h-1.44v-1.4H1802a3.06,3.06,0,0,1-1.21,1.16,3.57,3.57,0,0,1-1.71.41A3.49,3.49,0,0,1,1796.8,801.7Zm4.51-1.25a2.14,2.14,0,0,0,.77-1.69v-.87l-2.55.16c-1.38.1-2.07.61-2.07,1.55a1.34,1.34,0,0,0,.54,1.13,2.26,2.26,0,0,0,1.38.4A2.83,2.83,0,0,0,1801.31,800.45Z" transform="translate(0 74.56)"/><path class="cls-24" d="M1806.48,802.29V789.05H1808v13.24Z" transform="translate(0 74.56)"/><path class="cls-24" d="M1811.27,801.7a2.58,2.58,0,0,1-.91-2.06c0-1.74,1.15-2.67,3.46-2.81l2.73-.16v-.87a1.68,1.68,0,0,0-.54-1.34,2.42,2.42,0,0,0-1.61-.47,3,3,0,0,0-1.41.31,1.4,1.4,0,0,0-.72.87h-1.53a2.52,2.52,0,0,1,1.18-1.83,4.44,4.44,0,0,1,2.54-.69,3.84,3.84,0,0,1,2.66.84,2.93,2.93,0,0,1,.94,2.31v6.49h-1.44v-1.4h-.14a3.13,3.13,0,0,1-1.21,1.16,3.6,3.6,0,0,1-1.71.41A3.49,3.49,0,0,1,1811.27,801.7Zm4.51-1.25a2.17,2.17,0,0,0,.77-1.69v-.87l-2.55.16c-1.38.1-2.07.61-2.07,1.55a1.34,1.34,0,0,0,.54,1.13,2.23,2.23,0,0,0,1.37.4A2.83,2.83,0,0,0,1815.78,800.45Z" transform="translate(0 74.56)"/><path class="cls-24" d="M1821.45,805.71h-.24l-.22,0v-1.3l.3,0h.33a1.57,1.57,0,0,0,1.05-.35,2.85,2.85,0,0,0,.69-1.21l.18-.56-3.51-9.48h1.63l2.61,7.79h.14l2.59-7.79h1.61l-3.7,10a5.64,5.64,0,0,1-1.3,2.25,2.88,2.88,0,0,1-1.95.6Z" transform="translate(0 74.56)"/><path class="cls-24" d="M1831.42,793.44a3.93,3.93,0,0,1,2.52-.79,4.18,4.18,0,0,1,2.46.68,2.61,2.61,0,0,1,1.11,1.86H1836a1.53,1.53,0,0,0-.69-.92,2.64,2.64,0,0,0-1.4-.34,2.49,2.49,0,0,0-1.42.39,1.18,1.18,0,0,0-.58,1,1,1,0,0,0,.4.8,3.14,3.14,0,0,0,1.24.52l1.46.36a4.3,4.3,0,0,1,2,.93,2.12,2.12,0,0,1,.66,1.63,2.47,2.47,0,0,1-1.09,2.07,4.49,4.49,0,0,1-2.71.8,4.43,4.43,0,0,1-2.59-.71,2.51,2.51,0,0,1-1.14-1.88h1.56a1.75,1.75,0,0,0,.76,1,2.74,2.74,0,0,0,1.46.35,2.83,2.83,0,0,0,1.58-.41,1.24,1.24,0,0,0,.61-1.06,1.06,1.06,0,0,0-.37-.83,2.77,2.77,0,0,0-1.13-.51L1833,798a4.13,4.13,0,0,1-2-.93,2.15,2.15,0,0,1-.63-1.63A2.42,2.42,0,0,1,1831.42,793.44Z" transform="translate(0 74.56)"/><path class="cls-24" d="M1840.09,790.67a1.06,1.06,0,1,1,1.5,0,1,1,0,0,1-1.5,0Zm0,11.62v-9.47h1.51v9.47Z" transform="translate(0 74.56)"/><path class="cls-24" d="M1844.83,801.7a2.55,2.55,0,0,1-.91-2.06c0-1.74,1.15-2.67,3.45-2.81l2.74-.16v-.87a1.68,1.68,0,0,0-.54-1.34A2.42,2.42,0,0,0,1848,794a2.94,2.94,0,0,0-1.41.31,1.4,1.4,0,0,0-.72.87h-1.53a2.54,2.54,0,0,1,1.17-1.83,4.48,4.48,0,0,1,2.54-.69,3.85,3.85,0,0,1,2.67.84,2.93,2.93,0,0,1,.94,2.31v6.49h-1.44v-1.4H1850a3.09,3.09,0,0,1-1.22,1.16,3.53,3.53,0,0,1-1.7.41A3.47,3.47,0,0,1,1844.83,801.7Zm4.51-1.25a2.17,2.17,0,0,0,.77-1.69v-.87l-2.55.16c-1.39.1-2.08.61-2.08,1.55a1.32,1.32,0,0,0,.55,1.13,2.23,2.23,0,0,0,1.37.4A2.85,2.85,0,0,0,1849.34,800.45Z" transform="translate(0 74.56)"/><path class="cls-24" d="M1854.41,802.29v-9.47h1.44v1.49h.14a2.81,2.81,0,0,1,1.06-1.22,3.28,3.28,0,0,1,1.79-.44,3.2,3.2,0,0,1,2.46.91,3.66,3.66,0,0,1,.86,2.6v6.13h-1.52v-5.77a2.75,2.75,0,0,0-.55-1.89,2.12,2.12,0,0,0-1.68-.62,2.4,2.4,0,0,0-1.81.71,2.75,2.75,0,0,0-.68,2v5.61Z" transform="translate(0 74.56)"/><path class="cls-24" d="M1870,790.67a1,1,0,1,1,.75.32A1,1,0,0,1,1870,790.67Zm0,11.62v-9.47h1.51v9.47Z" transform="translate(0 74.56)"/><path class="cls-24" d="M1874.42,802.29v-9.47h1.45v1.49h.14a2.74,2.74,0,0,1,1.06-1.22,3.8,3.8,0,0,1,4.24.47,3.66,3.66,0,0,1,.86,2.6v6.13h-1.51v-5.77a2.81,2.81,0,0,0-.55-1.89,2.16,2.16,0,0,0-1.69-.62,2.4,2.4,0,0,0-1.81.71,2.74,2.74,0,0,0-.67,2v5.61Z" transform="translate(0 74.56)"/><path class="cls-24" d="M1885.53,801.12a6.42,6.42,0,0,1,0-7.14,3.54,3.54,0,0,1,2.89-1.33,3.48,3.48,0,0,1,1.78.44,2.88,2.88,0,0,1,1.2,1.22h.13v-5.26h1.51v13.24h-1.44v-1.51h-.14a3.15,3.15,0,0,1-1.25,1.23,3.8,3.8,0,0,1-4.69-.89Zm1.23-6.16a4.05,4.05,0,0,0-.74,2.59,4.1,4.1,0,0,0,.73,2.6,2.44,2.44,0,0,0,2,.94,2.46,2.46,0,0,0,2-.94,4.16,4.16,0,0,0,.74-2.6,4.08,4.08,0,0,0-.75-2.58,2.64,2.64,0,0,0-4.06,0Z" transform="translate(0 74.56)"/><path class="cls-24" d="M1896,790.67a1,1,0,1,1,.75.32A1,1,0,0,1,1896,790.67Zm0,11.62v-9.47h1.51v9.47Z" transform="translate(0 74.56)"/><path class="cls-24" d="M1900.76,801.7a2.58,2.58,0,0,1-.91-2.06c0-1.74,1.15-2.67,3.46-2.81l2.73-.16v-.87a1.68,1.68,0,0,0-.54-1.34,2.42,2.42,0,0,0-1.61-.47,3,3,0,0,0-1.41.31,1.4,1.4,0,0,0-.72.87h-1.53a2.52,2.52,0,0,1,1.18-1.83,4.44,4.44,0,0,1,2.54-.69,3.89,3.89,0,0,1,2.67.84,3,3,0,0,1,.93,2.31v6.49h-1.44v-1.4H1906a3.13,3.13,0,0,1-1.21,1.16,3.6,3.6,0,0,1-1.71.41A3.49,3.49,0,0,1,1900.76,801.7Zm4.51-1.25a2.17,2.17,0,0,0,.77-1.69v-.87l-2.55.16c-1.38.1-2.07.61-2.07,1.55a1.34,1.34,0,0,0,.54,1.13,2.23,2.23,0,0,0,1.37.4A2.83,2.83,0,0,0,1905.27,800.45Z" transform="translate(0 74.56)"/><path class="cls-24" d="M1910.35,802.29v-9.47h1.44v1.49h.14a2.74,2.74,0,0,1,1.06-1.22,3.23,3.23,0,0,1,1.79-.44,3.19,3.19,0,0,1,2.45.91,3.66,3.66,0,0,1,.86,2.6v6.13h-1.51v-5.77a2.81,2.81,0,0,0-.55-1.89,2.16,2.16,0,0,0-1.69-.62,2.42,2.42,0,0,0-1.81.71,2.74,2.74,0,0,0-.67,2v5.61Z" transform="translate(0 74.56)"/><path class="cls-24" d="M1921.64,793.44a3.93,3.93,0,0,1,2.52-.79,4.18,4.18,0,0,1,2.46.68,2.61,2.61,0,0,1,1.11,1.86h-1.49a1.53,1.53,0,0,0-.69-.92,2.64,2.64,0,0,0-1.4-.34,2.49,2.49,0,0,0-1.42.39,1.18,1.18,0,0,0-.58,1,1,1,0,0,0,.4.8,3.14,3.14,0,0,0,1.24.52l1.46.36a4.3,4.3,0,0,1,2,.93,2.12,2.12,0,0,1,.66,1.63,2.47,2.47,0,0,1-1.09,2.07,4.49,4.49,0,0,1-2.71.8,4.43,4.43,0,0,1-2.59-.71,2.51,2.51,0,0,1-1.14-1.88h1.56a1.75,1.75,0,0,0,.76,1,2.74,2.74,0,0,0,1.46.35,2.83,2.83,0,0,0,1.58-.41,1.24,1.24,0,0,0,.61-1.06,1.06,1.06,0,0,0-.37-.83,2.77,2.77,0,0,0-1.13-.51l-1.63-.4a4.13,4.13,0,0,1-2-.93,2.15,2.15,0,0,1-.63-1.63A2.42,2.42,0,0,1,1921.64,793.44Z" transform="translate(0 74.56)"/></g><path class="cls-24" d="M264.5,960h-9.9V934.6h9.7a8.41,8.41,0,0,1,5.5,1.7,5.83,5.83,0,0,1,2,4.6,5.51,5.51,0,0,1-1.3,3.6,4.93,4.93,0,0,1-3.1,1.9v.3a6.42,6.42,0,0,1,4.1,2,6,6,0,0,1,1.5,4.2,6.39,6.39,0,0,1-2.3,5.2A9.75,9.75,0,0,1,264.5,960Zm-6.8-22.6v8.2h5.1a7.19,7.19,0,0,0,4.3-1,3.69,3.69,0,0,0,1.5-3,3.54,3.54,0,0,0-1.3-3,5.82,5.82,0,0,0-3.7-1.1l-5.9-.1Zm0,19.8h6.2a7.14,7.14,0,0,0,4.3-1.1,4.15,4.15,0,0,0,1.5-3.3,3.87,3.87,0,0,0-1.5-3.3,8.21,8.21,0,0,0-4.6-1.1h-6v8.8Z" transform="translate(0 74.56)"/><path class="cls-24" d="M293.2,941.1v19h-2.9v-3H290a4.71,4.71,0,0,1-2.2,2.4,8.07,8.07,0,0,1-3.7.9,6.19,6.19,0,0,1-4.8-1.8,7.37,7.37,0,0,1-1.6-5.2V941.1h3v11.5a5.76,5.76,0,0,0,1,3.8,4.16,4.16,0,0,0,3.3,1.2,4.91,4.91,0,0,0,3.8-1.4,5.71,5.71,0,0,0,1.3-3.9V941.1Z" transform="translate(0 74.56)"/><path class="cls-24" d="M298.9,960V941h2.9v3h.3a5,5,0,0,1,2-2.5,6.5,6.5,0,0,1,6.6,0,5.88,5.88,0,0,1,2,2.4h.3a5.89,5.89,0,0,1,2.3-2.4,6.76,6.76,0,0,1,3.5-.9,6.05,6.05,0,0,1,4.5,1.6,6.14,6.14,0,0,1,1.6,4.6v13.1h-3V947.5a4.14,4.14,0,0,0-1-3.1,4.77,4.77,0,0,0-6.2.3,4.47,4.47,0,0,0-1.2,3.1V960h-3V947.1a3.69,3.69,0,0,0-1.1-2.7,4,4,0,0,0-2.9-1,4.1,4.1,0,0,0-3.1,1.4,5.13,5.13,0,0,0-1.3,3.4v11.7l-3.2.1Z" transform="translate(0 74.56)"/><path class="cls-24" d="M330.3,936.6a2.18,2.18,0,1,1,1.5.6A2,2,0,0,1,330.3,936.6Zm-.1,23.4V941h3v18.9l-3,.1Z" transform="translate(0 74.56)"/><path class="cls-24" d="M354.1,943.4a11.34,11.34,0,0,1,2.2,7.1,10.59,10.59,0,0,1-2.2,7.1,7.16,7.16,0,0,1-5.8,2.7,8.63,8.63,0,0,1-3.6-.8,4.68,4.68,0,0,1-2.3-2.3h-.3v9.2h-3V941.1H342v3.2h.3a7.77,7.77,0,0,1,2.5-2.6,6.12,6.12,0,0,1,3.5-.9A6.8,6.8,0,0,1,354.1,943.4Zm-2.5,12.3a9.76,9.76,0,0,0,0-10.4,4.77,4.77,0,0,0-4.1-1.9,4.89,4.89,0,0,0-4.1,1.9,9.76,9.76,0,0,0,0,10.4,4.89,4.89,0,0,0,4.1,1.9A4.65,4.65,0,0,0,351.6,955.7Z" transform="translate(0 74.56)"/><path class="cls-24" d="M376.3,941.1v19h-2.9v-3h-.3a4.71,4.71,0,0,1-2.2,2.4,8.07,8.07,0,0,1-3.7.9,6.19,6.19,0,0,1-4.8-1.8,7.37,7.37,0,0,1-1.6-5.2V941.1h3v11.5a5.76,5.76,0,0,0,1,3.8,4.16,4.16,0,0,0,3.3,1.2,4.91,4.91,0,0,0,3.8-1.4,5.71,5.71,0,0,0,1.3-3.9V941.1Z" transform="translate(0 74.56)"/><path class="cls-24" d="M383.3,936.2h3v4.9h4.2v2.5h-4.2v10.7a3.29,3.29,0,0,0,.7,2.4,2.86,2.86,0,0,0,2.1.8h.7a2,2,0,0,0,.7-.1v2.5a2.77,2.77,0,0,1-.9.1h-.9a6.2,6.2,0,0,1-4.2-1.2c-.9-.8-1.3-2.1-1.3-3.9V943.4h-3.1v-2.5h3.1l.1-4.7Z" transform="translate(0 74.56)"/><path class="cls-24" d="M407.6,955.1h3a6.73,6.73,0,0,1-2.8,3.8,9.36,9.36,0,0,1-5.2,1.4,7.92,7.92,0,0,1-6.2-2.6,12.11,12.11,0,0,1,0-14.2,8,8,0,0,1,6.2-2.7,7.36,7.36,0,0,1,6,2.6,10.66,10.66,0,0,1,2.2,7v1.2H397.2v.1a7,7,0,0,0,1.6,4.5,5.07,5.07,0,0,0,3.9,1.7,6.17,6.17,0,0,0,3.1-.7A4.54,4.54,0,0,0,407.6,955.1Zm-8.7-10.2a6,6,0,0,0-1.6,4h10.4a5.72,5.72,0,0,0-1.4-4,4.61,4.61,0,0,0-3.6-1.5A5,5,0,0,0,398.9,944.9Z" transform="translate(0 74.56)"/><path class="cls-24" d="M415.6,960V941h2.9v2.8h.3a4.19,4.19,0,0,1,1.9-2.3,6.4,6.4,0,0,1,3.4-.9h.8a1.48,1.48,0,0,1,.7.1v3a5.38,5.38,0,0,0-.8-.1c-.4,0-.8-.1-1.1-.1a5.15,5.15,0,0,0-3.6,1.3,4.18,4.18,0,0,0-1.4,3.3v11.7h-3.1v.2Z" transform="translate(0 74.56)"/><path class="cls-24" d="M430,958.8a5.1,5.1,0,0,1-1.8-4.1c0-3.5,2.3-5.3,6.9-5.6l5.5-.3v-1.7c0-2.4-1.4-3.6-4.3-3.6a5.81,5.81,0,0,0-2.8.6,2.91,2.91,0,0,0-1.4,1.7H429a5.3,5.3,0,0,1,2.4-3.7,8.5,8.5,0,0,1,5.1-1.4,7.66,7.66,0,0,1,5.3,1.7,6.09,6.09,0,0,1,1.9,4.6v13h-3v-2.8h-.3a5.89,5.89,0,0,1-2.4,2.3,7.42,7.42,0,0,1-3.4.8A6.72,6.72,0,0,1,430,958.8Zm9.1-2.5a4.33,4.33,0,0,0,1.5-3.4v-1.7l-5.1.3c-2.8.2-4.1,1.2-4.1,3.1a2.53,2.53,0,0,0,1.1,2.2,4.55,4.55,0,0,0,2.7.8A5.44,5.44,0,0,0,439.1,956.3Z" transform="translate(0 74.56)"/><path class="cls-24" d="M462,940.8a24.27,24.27,0,0,1,3.8-7.3h2.6a22.27,22.27,0,0,0-3.2,6.9,31.8,31.8,0,0,0,0,18,20.2,20.2,0,0,0,3.2,6.9h-2.6A24.18,24.18,0,0,1,462,958a26.94,26.94,0,0,1-1.2-8.7A29.11,29.11,0,0,1,462,940.8Z" transform="translate(0 74.56)"/><path class="cls-24" d="M498.5,960h-3V940.6h-.2l-8,19.2h-2.6l-8-19.2h-.2V960h-3V934.6h3.7l8.7,21h.3l8.7-21h3.7V960Z" transform="translate(0 74.56)"/><path class="cls-24" d="M505.3,958.8a5.1,5.1,0,0,1-1.8-4.1c0-3.5,2.3-5.3,6.9-5.6l5.5-.3v-1.7c0-2.4-1.4-3.6-4.3-3.6a5.81,5.81,0,0,0-2.8.6,2.91,2.91,0,0,0-1.4,1.7h-3.1a5.3,5.3,0,0,1,2.4-3.7,8.5,8.5,0,0,1,5.1-1.4,7.66,7.66,0,0,1,5.3,1.7A6.09,6.09,0,0,1,519,947v13h-2.9v-2.8h-.4a5.89,5.89,0,0,1-2.4,2.3,7.42,7.42,0,0,1-3.4.8A6.4,6.4,0,0,1,505.3,958.8Zm9-2.5a4.33,4.33,0,0,0,1.5-3.4v-1.7l-5.1.3c-2.8.2-4.1,1.2-4.1,3.1a2.53,2.53,0,0,0,1.1,2.2,4.55,4.55,0,0,0,2.7.8A5.15,5.15,0,0,0,514.3,956.3Z" transform="translate(0 74.56)"/><path class="cls-24" d="M524.6,960V933.6h3v26.5l-3-.1Z" transform="translate(0 74.56)"/><path class="cls-24" d="M534.2,958.8a5.1,5.1,0,0,1-1.8-4.1c0-3.5,2.3-5.3,6.9-5.6l5.5-.3v-1.7c0-2.4-1.4-3.6-4.3-3.6a5.81,5.81,0,0,0-2.8.6,2.91,2.91,0,0,0-1.4,1.7h-3.1a5.3,5.3,0,0,1,2.4-3.7,8.5,8.5,0,0,1,5.1-1.4,7.66,7.66,0,0,1,5.3,1.7,6.09,6.09,0,0,1,1.9,4.6v13H545v-2.8h-.3a5.89,5.89,0,0,1-2.4,2.3,7.42,7.42,0,0,1-3.4.8A6.66,6.66,0,0,1,534.2,958.8Zm9-2.5a4.33,4.33,0,0,0,1.5-3.4v-1.7l-5.1.3c-2.8.2-4.1,1.2-4.1,3.1a2.53,2.53,0,0,0,1.1,2.2,4.55,4.55,0,0,0,2.7.8A5.15,5.15,0,0,0,543.2,956.3Z" transform="translate(0 74.56)"/><path class="cls-24" d="M554.6,966.9h-.5c-.2,0-.3,0-.4-.1v-2.6c.2,0,.4.1.6.1h.7a2.82,2.82,0,0,0,2.1-.7,6.59,6.59,0,0,0,1.4-2.4l.4-1.1-7-19h3.3l5.2,15.6h.3l5.2-15.6h3.2l-7.4,20.1a11.27,11.27,0,0,1-2.6,4.5,5.69,5.69,0,0,1-3.9,1.2Z" transform="translate(0 74.56)"/><path class="cls-24" d="M574.5,942.3a7.51,7.51,0,0,1,5-1.6,8.35,8.35,0,0,1,4.9,1.4,5.17,5.17,0,0,1,2.2,3.7h-3a2.83,2.83,0,0,0-1.4-1.8,5.49,5.49,0,0,0-2.8-.7,4.88,4.88,0,0,0-2.8.8,2.54,2.54,0,0,0-1.2,2,2.09,2.09,0,0,0,.8,1.6,5.89,5.89,0,0,0,2.5,1l2.9.7a8.79,8.79,0,0,1,4,1.9,4.16,4.16,0,0,1,1.3,3.3,4.68,4.68,0,0,1-2.2,4.1,9.56,9.56,0,0,1-5.4,1.6,9.36,9.36,0,0,1-5.2-1.4,5,5,0,0,1-2.3-3.8h3.1a4,4,0,0,0,1.5,1.9,5,5,0,0,0,2.9.7,5.69,5.69,0,0,0,3.1-.8,2.47,2.47,0,0,0,1.2-2.1,1.86,1.86,0,0,0-.7-1.6,5.48,5.48,0,0,0-2.3-1l-3.3-.8a7.9,7.9,0,0,1-3.9-1.9,4.52,4.52,0,0,1-1.3-3.3A7.34,7.34,0,0,1,574.5,942.3Z" transform="translate(0 74.56)"/><path class="cls-24" d="M591.9,936.6a2.18,2.18,0,1,1,1.5.6A2,2,0,0,1,591.9,936.6Zm-.1,23.4V941h3v18.9l-3,.1Z" transform="translate(0 74.56)"/><path class="cls-24" d="M601.3,958.8a5.1,5.1,0,0,1-1.8-4.1c0-3.5,2.3-5.3,6.9-5.6l5.5-.3v-1.7c0-2.4-1.4-3.6-4.3-3.6a5.81,5.81,0,0,0-2.8.6,2.91,2.91,0,0,0-1.4,1.7h-3.1a5.3,5.3,0,0,1,2.4-3.7,8.5,8.5,0,0,1,5.1-1.4,7.66,7.66,0,0,1,5.3,1.7A6.09,6.09,0,0,1,615,947v13h-2.9v-2.8h-.4a5.89,5.89,0,0,1-2.4,2.3,7.42,7.42,0,0,1-3.4.8A6.56,6.56,0,0,1,601.3,958.8Zm9-2.5a4.33,4.33,0,0,0,1.5-3.4v-1.7l-5.1.3c-2.8.2-4.1,1.2-4.1,3.1a2.53,2.53,0,0,0,1.1,2.2,4.55,4.55,0,0,0,2.7.8A5.15,5.15,0,0,0,610.3,956.3Z" transform="translate(0 74.56)"/><path class="cls-24" d="M625.9,958.2a24.27,24.27,0,0,1-3.8,7.3h-2.6a20.2,20.2,0,0,0,3.2-6.9,31.8,31.8,0,0,0,0-18,20.2,20.2,0,0,0-3.2-6.9h2.6a24.18,24.18,0,0,1,3.8,7.3,26.94,26.94,0,0,1,1.2,8.7A30.1,30.1,0,0,1,625.9,958.2Z" transform="translate(0 74.56)"/><rect class="cls-33" x="243.6" y="998.36" width="394.4" height="52.3"/><polyline class="cls-33" points="844.3 848.16 638 848.16 638 998.26"/><path class="cls-24" d="M1231.9,1005h-3V985.6h-.2l-8,19.2H1218l-8-19.2h-.2V1005h-3V979.6h3.7l8.7,21h.3l8.7-21h3.7V1005Z" transform="translate(0 74.56)"/><path class="cls-24" d="M1238.6,1003.8a5.1,5.1,0,0,1-1.8-4.1c0-3.5,2.3-5.3,6.9-5.6l5.5-.3v-1.7c0-2.4-1.4-3.6-4.3-3.6a5.81,5.81,0,0,0-2.8.6,2.91,2.91,0,0,0-1.4,1.7h-3.1a5.3,5.3,0,0,1,2.4-3.7,8.5,8.5,0,0,1,5.1-1.4,7.66,7.66,0,0,1,5.3,1.7,6.09,6.09,0,0,1,1.9,4.6v13h-2.9v-2.8h-.3a5.89,5.89,0,0,1-2.4,2.3,7.42,7.42,0,0,1-3.4.8A6.36,6.36,0,0,1,1238.6,1003.8Zm9.1-2.5a4.33,4.33,0,0,0,1.5-3.4v-1.7l-5.1.3c-2.8.2-4.1,1.2-4.1,3.1a2.53,2.53,0,0,0,1.1,2.2,4.55,4.55,0,0,0,2.7.8A5,5,0,0,0,1247.7,1001.3Z" transform="translate(0 74.56)"/><path class="cls-24" d="M1258,1005V978.6h3v26.5l-3-.1Z" transform="translate(0 74.56)"/><path class="cls-24" d="M1267.6,1003.8a5.1,5.1,0,0,1-1.8-4.1c0-3.5,2.3-5.3,6.9-5.6l5.5-.3v-1.7c0-2.4-1.4-3.6-4.3-3.6a5.81,5.81,0,0,0-2.8.6,2.91,2.91,0,0,0-1.4,1.7h-3.1a5.3,5.3,0,0,1,2.4-3.7,8.5,8.5,0,0,1,5.1-1.4,7.66,7.66,0,0,1,5.3,1.7,6.09,6.09,0,0,1,1.9,4.6v13h-2.9v-2.8h-.3a5.89,5.89,0,0,1-2.4,2.3,7.42,7.42,0,0,1-3.4.8A6.09,6.09,0,0,1,1267.6,1003.8Zm9-2.5a4.33,4.33,0,0,0,1.5-3.4v-1.7l-5.1.3c-2.8.2-4.1,1.2-4.1,3.1a2.53,2.53,0,0,0,1.1,2.2,4.55,4.55,0,0,0,2.7.8A4.79,4.79,0,0,0,1276.6,1001.3Z" transform="translate(0 74.56)"/><path class="cls-24" d="M1287.9,1011.9h-.5c-.2,0-.3,0-.4-.1v-2.6c.2,0,.4.1.6.1h.7a2.82,2.82,0,0,0,2.1-.7,6.59,6.59,0,0,0,1.4-2.4l.4-1.1-7-19h3.3l5.2,15.6h.3l5.2-15.6h3.2l-7.4,20.1a11.27,11.27,0,0,1-2.6,4.5,5.69,5.69,0,0,1-3.9,1.2Z" transform="translate(0 74.56)"/><path class="cls-24" d="M1307.9,987.3a7.51,7.51,0,0,1,5-1.6,8.35,8.35,0,0,1,4.9,1.4,5.17,5.17,0,0,1,2.2,3.7h-3a2.83,2.83,0,0,0-1.4-1.8,5.49,5.49,0,0,0-2.8-.7,4.88,4.88,0,0,0-2.8.8,2.54,2.54,0,0,0-1.2,2,2.09,2.09,0,0,0,.8,1.6,5.89,5.89,0,0,0,2.5,1l2.9.7a8.79,8.79,0,0,1,4,1.9,4.16,4.16,0,0,1,1.3,3.3,4.68,4.68,0,0,1-2.2,4.1,9.56,9.56,0,0,1-5.4,1.6,9.36,9.36,0,0,1-5.2-1.4,5,5,0,0,1-2.3-3.8h3.1a4,4,0,0,0,1.5,1.9,5,5,0,0,0,2.9.7,5.69,5.69,0,0,0,3.1-.8,2.47,2.47,0,0,0,1.2-2.1,1.86,1.86,0,0,0-.7-1.6,5.48,5.48,0,0,0-2.3-1l-3.3-.8a7.9,7.9,0,0,1-3.9-1.9,4.52,4.52,0,0,1-1.3-3.3A6.78,6.78,0,0,1,1307.9,987.3Z" transform="translate(0 74.56)"/><path class="cls-24" d="M1325.2,981.6a2.17,2.17,0,1,1,1.5.6A2.2,2.2,0,0,1,1325.2,981.6Zm0,23.4V986h3v18.9l-3,.1Z" transform="translate(0 74.56)"/><path class="cls-24" d="M1334.7,1003.8a5.1,5.1,0,0,1-1.8-4.1c0-3.5,2.3-5.3,6.9-5.6l5.5-.3v-1.7c0-2.4-1.4-3.6-4.3-3.6a5.81,5.81,0,0,0-2.8.6,2.91,2.91,0,0,0-1.4,1.7h-3.1a5.3,5.3,0,0,1,2.4-3.7,8.5,8.5,0,0,1,5.1-1.4,7.66,7.66,0,0,1,5.3,1.7,6.09,6.09,0,0,1,1.9,4.6v13h-2.9v-2.8h-.3a5.89,5.89,0,0,1-2.4,2.3,7.42,7.42,0,0,1-3.4.8A6.09,6.09,0,0,1,1334.7,1003.8Zm9-2.5a4.33,4.33,0,0,0,1.5-3.4v-1.7l-5.1.3c-2.8.2-4.1,1.2-4.1,3.1a2.53,2.53,0,0,0,1.1,2.2,4.55,4.55,0,0,0,2.7.8A4.79,4.79,0,0,0,1343.7,1001.3Z" transform="translate(0 74.56)"/><path class="cls-24" d="M1353.9,1005V986h2.9v3h.3a5.49,5.49,0,0,1,2.1-2.4,7.34,7.34,0,0,1,3.6-.9,6.42,6.42,0,0,1,4.9,1.8,7.39,7.39,0,0,1,1.7,5.2V1005h-3V993.5a5.74,5.74,0,0,0-1.1-3.8,4.4,4.4,0,0,0-3.4-1.2,4.9,4.9,0,0,0-3.6,1.4,5.46,5.46,0,0,0-1.4,3.9V1005Z" transform="translate(0 74.56)"/><path class="cls-24" d="M1387.4,1002.1c-2-2.4-3-5.6-3-9.7s1-7.3,3-9.7a10.06,10.06,0,0,1,8.2-3.6,10.83,10.83,0,0,1,6.9,2.3,9.15,9.15,0,0,1,3.4,6h-3.2a7.36,7.36,0,0,0-2.5-3.9,7.61,7.61,0,0,0-10.3,1.4,14.8,14.8,0,0,0,0,15.2,6.85,6.85,0,0,0,5.8,2.8,7.27,7.27,0,0,0,4.5-1.3,6.36,6.36,0,0,0,2.5-3.5h3.2a8.91,8.91,0,0,1-3.4,5.6,10.81,10.81,0,0,1-6.8,2.1A11.52,11.52,0,0,1,1387.4,1002.1Z" transform="translate(0 74.56)"/><path class="cls-24" d="M1411,1005V978.6h3v10.5h.3a5.13,5.13,0,0,1,2.2-2.4,8,8,0,0,1,3.6-.9,6.49,6.49,0,0,1,4.8,1.8,7.15,7.15,0,0,1,1.8,5.2v12.3h-3V993.6a5.93,5.93,0,0,0-1.1-3.8,3.9,3.9,0,0,0-3.3-1.3,5,5,0,0,0-3.9,1.5,5.64,5.64,0,0,0-1.4,3.9v11.2l-3-.1Z" transform="translate(0 74.56)"/><path class="cls-24" d="M1432.3,981.6a2.17,2.17,0,1,1,1.5.6A2,2,0,0,1,1432.3,981.6Zm-.1,23.4V986h3v18.9l-3,.1Z" transform="translate(0 74.56)"/><path class="cls-24" d="M1441,1005V986h2.9v3h.3a5.49,5.49,0,0,1,2.1-2.4,7.34,7.34,0,0,1,3.6-.9,6.42,6.42,0,0,1,4.9,1.8,7.39,7.39,0,0,1,1.7,5.2V1005h-3V993.5a5.74,5.74,0,0,0-1.1-3.8,4.4,4.4,0,0,0-3.4-1.2,4.9,4.9,0,0,0-3.6,1.4,5.46,5.46,0,0,0-1.4,3.9V1005Z" transform="translate(0 74.56)"/><path class="cls-24" d="M1474.6,1000.1h3a6.73,6.73,0,0,1-2.8,3.8,9.36,9.36,0,0,1-5.2,1.4,7.92,7.92,0,0,1-6.2-2.6,12.11,12.11,0,0,1,0-14.2,8,8,0,0,1,6.2-2.7,7.36,7.36,0,0,1,6,2.6,10.66,10.66,0,0,1,2.2,7v1.2h-13.6v.1a7,7,0,0,0,1.6,4.5,5.07,5.07,0,0,0,3.9,1.7,6.17,6.17,0,0,0,3.1-.7A4.1,4.1,0,0,0,1474.6,1000.1Zm-8.7-10.2a6,6,0,0,0-1.6,4h10.4a5.72,5.72,0,0,0-1.4-4,4.61,4.61,0,0,0-3.6-1.5A4.9,4.9,0,0,0,1465.9,989.9Z" transform="translate(0 74.56)"/><path class="cls-24" d="M1484.2,987.3a7.51,7.51,0,0,1,5-1.6,8.35,8.35,0,0,1,4.9,1.4,5.17,5.17,0,0,1,2.2,3.7h-3a2.83,2.83,0,0,0-1.4-1.8,5.49,5.49,0,0,0-2.8-.7,4.88,4.88,0,0,0-2.8.8,2.54,2.54,0,0,0-1.2,2,2.09,2.09,0,0,0,.8,1.6,5.89,5.89,0,0,0,2.5,1l2.9.7a8.79,8.79,0,0,1,4,1.9,4.16,4.16,0,0,1,1.3,3.3,4.68,4.68,0,0,1-2.2,4.1,9.56,9.56,0,0,1-5.4,1.6,9.36,9.36,0,0,1-5.2-1.4,5,5,0,0,1-2.3-3.8h3.1a4,4,0,0,0,1.5,1.9,5,5,0,0,0,2.9.7,5.69,5.69,0,0,0,3.1-.8,2.47,2.47,0,0,0,1.2-2.1,1.86,1.86,0,0,0-.7-1.6,5.48,5.48,0,0,0-2.3-1l-3.3-.8a7.9,7.9,0,0,1-3.9-1.9,4.52,4.52,0,0,1-1.3-3.3A6.78,6.78,0,0,1,1484.2,987.3Z" transform="translate(0 74.56)"/><path class="cls-24" d="M1514,1000.1h3a6.73,6.73,0,0,1-2.8,3.8,9.36,9.36,0,0,1-5.2,1.4,7.92,7.92,0,0,1-6.2-2.6,12.11,12.11,0,0,1,0-14.2,8,8,0,0,1,6.2-2.7,7.36,7.36,0,0,1,6,2.6,10.66,10.66,0,0,1,2.2,7v1.2h-13.6v.1a7,7,0,0,0,1.6,4.5,5.07,5.07,0,0,0,3.9,1.7,6.17,6.17,0,0,0,3.1-.7A4.1,4.1,0,0,0,1514,1000.1Zm-8.7-10.2a6,6,0,0,0-1.6,4h10.4a5.72,5.72,0,0,0-1.4-4,4.61,4.61,0,0,0-3.6-1.5A5,5,0,0,0,1505.3,989.9Z" transform="translate(0 74.56)"/><rect class="cls-33" x="1187.7" y="1046.66" width="340.6" height="45.3"/><rect class="cls-33" x="1772.7" y="858.36" width="157.7" height="27.5"/><line class="cls-33" x1="1570.2" y1="872.16" x2="1773.5" y2="872.16"/><line class="cls-33" x1="1528.3" y1="928.06" x2="1528.3" y2="1046.26"/><rect class="cls-35" width="53.13" height="1300.66"/><rect class="cls-35" x="1961.4" y="74.56" width="37.5" height="1226.1"/></svg>