<?xml version="1.0" encoding="utf-8"?>
<!-- Generator: Adobe Illustrator 22.0.0, SVG Export Plug-In . SVG Version: 6.00 Build 0)  -->
<svg version="1.1" xmlns="http://www.w3.org/2000/svg" xmlns:xlink="http://www.w3.org/1999/xlink" x="0px" y="0px"
    viewBox="600 100 1000 900" style="enable-background:new 0 0 1920 1080;" xml:space="preserve">
    <g id="Testi-Social">
        <text transform="matrix(1 0 0 1 504.481 576.2192)" class="testi social social-all twitter" id="twitter">Twitter</text>
        <text transform="matrix(1 0 0 1 493.7163 491.1265)" class="testi social social-all facebook" id="facebook">Facebook</text>
        <text transform="matrix(1 0 0 1 504.481 661.312)" class="testi social social-all youtube" id="youtube">YouTube</text>
        <circle class="fb-ball" cx="616.5" cy="487.8" r="5" />
        <circle class="tw-ball" cx="616.5" cy="572.9" r="5" />
        <circle class="yt-ball" cx="616.5" cy="658" r="5" />
    </g>
    <g id="Testi-Parole">
        <text transform="matrix(1 0 0 1 1225.1851 545.5879)" class="testi category-words social-all nation-or facebook twitter">Nation origin</text>
        <text transform="matrix(1 0 0 1 1225.1851 611.001)" class="testi category-words social-all race facebook youtube twitter">Race</text>
        <text transform="matrix(1 0 0 1 1225.1851 414.7612)" class="testi category-words social-all gender facebook youtube twitter">Gender</text>
        <text transform="matrix(1 0 0 1 1225.1851 676.4146)" class="testi category-words social-all religion facebook youtube twitter">Religion</text>
        <text transform="matrix(1 0 0 1 1225.1851 807.2407)" class="testi category-words social-all sexual facebook youtube twitter">Sexual orientation</text>
        <text transform="matrix(1 0 0 1 1225.1851 218.5215)" class="testi category-words social-all casta facebook">Casta</text>
        <text transform="matrix(1 0 0 1 1225.1851 872.6538)" class="testi category-words social-all sex facebook">Sex</text>
        <text transform="matrix(1 0 0 1 1225.1851 349.3481)" class="testi category-words social-all ethnicity facebook youtube twitter">Ethnicity</text>
        <text transform="matrix(1 0 0 1 1225.1851 480.1743)" class="testi category-words social-all gender-id facebook youtube twitter">Gender identity</text>
        <text transform="matrix(1 0 0 1 1225.1851 283.9341)" class="testi category-words social-all disability facebook youtube twitter">Disability</text>
        <text transform="matrix(1 0 0 1 1225.1851 741.8276)" class="testi category-words social-all serious-dis facebook twitter">Serious Disaease</text>
        <text transform="matrix(1 0 0 1 1225.1851 938.0679)" class="testi category-words social-all veteran youtube">Veteran status</text>
        <text transform="matrix(1 0 0 1 1229.689 153.1079)" class="testi category-words social-all age youtube twitter">Age</text>
        <circle class="w-ball category-words social-all casta facebook" cx="1209.5" cy="213.2" r="5" />
        <circle class="w-ball category-words social-all age youtube twitter" cx="1209.5" cy="148.2" r="5" />
        <circle class="w-ball category-words social-all disability facebook youtube twitter" cx="1209.5" cy="278.6" r="5" />
        <circle class="w-ball category-words social-all ethnicity facebook youtube twitter" cx="1209.5" cy="344" r="5" />
        <circle class="w-ball category-words social-all gender facebook youtube twitter" cx="1209.5" cy="409.4" r="5" />
        <circle class="w-ball category-words social-all gender-id facebook youtube twitter" cx="1209.5" cy="474.8" r="5" />
        <circle class="w-ball category-words social-all nation-or facebook twitter" cx="1209.5" cy="540.2" r="5" />
        <circle class="w-ball category-words social-all race facebook youtube twitter" cx="1209.5" cy="605.6" r="5" />
        <circle class="w-ball category-words social-all religion facebook youtube twitter" cx="1209.5" cy="671" r="5" />
        <circle class="w-ball category-words social-all serious-dis facebook twitter" cx="1209.5" cy="736.5" r="5" />
        <circle class="w-ball category-words social-all sexual facebook youtube twitter" cx="1209.5" cy="801.9" r="5" />
        <circle class="w-ball category-words social-all sex facebook" cx="1209.5" cy="867.3" r="5" />
        <circle class="w-ball category-words social-all veteran youtube" cx="1209.5" cy="932.7" r="5" />
    </g>
    <g id="Linee-FB">
        <path class="fb-paths all-paths facebook social-all casta" d="M1209.5,213.2c-346,0-346,274.7-593.2,274.7" />
        <path class="fb-paths all-paths facebook social-all disability" d="M1209.5,278.6c-346,0-346,209.3-593.2,209.3" />
        <path class="fb-paths all-paths facebook social-all ethnicity" d="M1209.5,344c-346,0-346,143.9-593.2,143.9" />
        <path class="fb-paths all-paths facebook social-all gender" d="M1209.5,409.4c-346,0-346,78.4-593.2,78.4" />
        <path class="fb-paths all-paths facebook social-all gender-id" d="M1209.5,474.8c-346,0-346,13-593.2,13" />
        <path class="fb-paths all-paths facebook social-all nation-or" d="M1209.5,540.2c-346,0-346-52.4-593.2-52.4" />
        <path class="fb-paths all-paths facebook social-all race" d="M1209.5,605.6c-346,0-346-117.8-593.2-117.8" />
        <path class="fb-paths all-paths facebook social-all religion" d="M1209.5,671c-346,0-346-183.2-593.2-183.2" />
        <path class="fb-paths all-paths facebook social-all serious-dis" d="M1209.5,736.5c-346,0-346-248.6-593.2-248.6" />
        <path class="fb-paths all-paths facebook social-all sexual" d="M1209.5,801.9c-346,0-346-314-593.2-314" />
        <path class="fb-paths all-paths facebook social-all sex" d="M1209.5,867.3c-346,0-346-379.5-593.2-379.5" />
    </g>
    <g id="Linee-TW">
        <path class="tw-paths all-paths twitter social-all disability" d="M1209.5,278.6c-346,0-346,294.4-593.2,294.4" />
        <path class="tw-paths all-paths twitter social-all ethnicity" d="M1209.5,344c-346,0-346,228.9-593.2,228.9" />
        <path class="tw-paths all-paths twitter social-all gender" d="M1209.5,409.4c-346,0-346,163.5-593.2,163.5" />
        <path class="tw-paths all-paths twitter social-all gender-id" d="M1209.5,474.8c-346,0-346,98.1-593.2,98.1" />
        <path class="tw-paths all-paths twitter social-all nation-or" d="M1209.5,540.2c-346,0-346,32.7-593.2,32.7" />
        <path class="tw-paths all-paths twitter social-all race" d="M1209.5,605.6c-346,0-346-32.7-593.2-32.7" />
        <path class="tw-paths all-paths twitter social-all religion" d="M1209.5,671c-346,0-346-98.1-593.2-98.1" />
        <path class="tw-paths all-paths twitter social-all serious-dis" d="M1209.5,736.5c-346,0-346-163.5-593.2-163.5" />
        <path class="tw-paths all-paths twitter social-all sexual" d="M1209.5,801.9c-346,0-346-228.9-593.2-228.9" />
        <path class="tw-paths all-paths twitter social-all age" d="M1209.5,147.7c-346,0-346,425.2-593.2,425.2" />
    </g>
    <g id="Linee-YT">
        <path class="yt-paths all-paths youtube social-all disability" d="M1209.5,278.6c-346,0-346,379.5-593.2,379.5" />
        <path class="yt-paths all-paths youtube social-all ethnicity" d="M1209.5,344c-346,0-346,314-593.2,314" />
        <path class="yt-paths all-paths youtube social-all gender" d="M1209.5,409.4c-346,0-346,248.6-593.2,248.6" />
        <path class="yt-paths all-paths youtube social-all gender-id" d="M1209.5,474.8c-346,0-346,183.2-593.2,183.2" />
        <path class="yt-paths all-paths youtube social-all race" d="M1209.5,605.6c-346,0-346,52.4-593.2,52.4" />
        <path class="yt-paths all-paths youtube social-all religion" d="M1209.5,671c-346,0-346-13-593.2-13" />
        <path class="yt-paths all-paths youtube social-all sexual" d="M1209.5,801.9c-346,0-346-143.9-593.2-143.9" />
        <path class="yt-paths all-paths youtube social-all veteran" d="M1209.5,932.7c-346,0-346-274.7-593.2-274.7" />
        <path class="yt-paths all-paths youtube social-all age" d="M1209.5,147.7c-346,0-346,510.3-593.2,510.3" />
    </g>
</svg>