<?xml version="1.0" encoding="utf-8"?>
<!-- Generator: Adobe Illustrator 22.1.0, SVG Export Plug-In . SVG Version: 6.00 Build 0)  -->
<svg version="1.1" xmlns="http://www.w3.org/2000/svg" xmlns:xlink="http://www.w3.org/1999/xlink" x="0px" y="0px"
	 viewBox="0 0 1653.2 342.6" style="enable-background:new 0 0 1653.2 342.6;" xml:space="preserve">
<style type="text/css">
	.timeline-nofill {fill:none;}
	.timeline-blue-text {fill:#0033FF;}
	.timeline-arc {fill:none;stroke:#CE3B19;stroke-width:0.5;stroke-miterlimit:10;}
	.timeline-font {font-family:'IBM Plex Mono'; font-size:14px;}
	.timeline-line {fill:#0033FF;stroke:#0033FF;stroke-width:1;stroke-miterlimit:10;}
	.timeline-blue-circle {fill:#0033FF;stroke:#F6F6F6;stroke-width:3;stroke-miterlimit:10;}
	.timeline-wave-path {fill:none;stroke:#0033FF;stroke-miterlimit:10;}
	.timeline-rectangle-overlay {opacity:0.6;fill:#CE3B19;}
	.timeline-rectangle {fill:url(#USGS_17_Lago_sabbioso_asciutto);stroke:#CB4C45;stroke-miterlimit:10;}
	.timeline-red-text {fill:#CE3B19;}
	.timeline-red-circle {fill:#CE3B19;stroke:#F6F6F6;stroke-miterlimit:10;}
	.timeline-vertical-tick {fill:#FFFFFF;stroke:#0033FF;stroke-width:0.5;stroke-miterlimit:10;}
	.timeline-purple-circle {fill:#650499;stroke:#F6F6F6;stroke-miterlimit:10;}
	.timeline-pattern-fill {fill:url(#SVGID_1_);stroke:#CB4C45;stroke-miterlimit:10;}
	.timeline-polyline {fill:none;stroke:#0033FF;stroke-width:1;stroke-miterlimit:10;}
</style>
<pattern  x="-324.9" y="95.7" width="72" height="72" patternUnits="userSpaceOnUse" id="USGS_17_Lago_sabbioso_asciutto" viewBox="0 -72 72 72" style="overflow:visible;">
	<g>
		<rect y="-72" class="timeline-nofill" width="72" height="72"/>
		<path class="timeline-blue-text" d="M21-69c-0.1,0-0.1,0-0.2-0.1c0,0-0.1-0.1-0.1-0.2s0-0.1,0.1-0.2c0.1-0.1,0.2-0.1,0.4,0c0,0,0.1,0.1,0.1,0.2
			c0,0.1,0,0.1-0.1,0.2C21.1-69,21.1-69,21-69z"/>
		<path class="timeline-blue-text" d="M20-63.8c-0.1,0-0.1,0-0.2-0.1c0,0-0.1-0.1-0.1-0.2c0-0.1,0-0.1,0.1-0.2c0.1-0.1,0.3-0.1,0.4,0
			c0,0,0.1,0.1,0.1,0.2c0,0.1,0,0.1-0.1,0.2C20.1-63.8,20.1-63.8,20-63.8z"/>
		<path class="timeline-blue-text" d="M20.2-61.5c-0.1,0-0.1,0-0.2-0.1c0,0-0.1-0.1-0.1-0.2s0-0.1,0.1-0.2c0.1-0.1,0.3-0.1,0.4,0
			c0,0,0.1,0.1,0.1,0.2s0,0.1-0.1,0.2C20.4-61.5,20.3-61.5,20.2-61.5z"/>
		<path class="timeline-blue-text" d="M18-59.2c-0.1,0-0.1,0-0.2-0.1c0,0-0.1-0.1-0.1-0.2s0-0.1,0.1-0.2c0.1-0.1,0.3-0.1,0.4,0c0,0,0.1,0.1,0.1,0.2
			s0,0.1-0.1,0.2C18.1-59.3,18.1-59.2,18-59.2z"/>
		<path class="timeline-blue-text" d="M15.2-61.5c-0.1,0-0.1,0-0.2-0.1c0,0-0.1-0.1-0.1-0.2c0-0.1,0-0.1,0.1-0.2c0.1-0.1,0.3-0.1,0.4,0
			c0,0,0.1,0.1,0.1,0.2c0,0.1,0,0.1-0.1,0.2C15.4-61.5,15.3-61.5,15.2-61.5z"/>
		<path class="timeline-blue-text" d="M22.7-52c-0.1,0-0.1,0-0.2-0.1c0,0-0.1-0.1-0.1-0.2c0-0.1,0-0.1,0.1-0.2c0.1-0.1,0.3-0.1,0.4,0
			c0,0.1,0.1,0.1,0.1,0.2s0,0.1-0.1,0.2C22.9-52,22.8-52,22.7-52z"/>
		<path class="timeline-blue-text" d="M15.2-49c-0.1,0-0.1,0-0.2-0.1c0,0-0.1-0.1-0.1-0.2c0-0.1,0-0.1,0.1-0.2c0.1-0.1,0.3-0.1,0.4,0
			c0,0,0.1,0.1,0.1,0.2c0,0.1,0,0.1-0.1,0.2C15.4-49,15.3-49,15.2-49z"/>
		<path class="timeline-blue-text" d="M14-48c-0.1,0-0.1,0-0.2-0.1c0,0-0.1-0.1-0.1-0.2s0-0.1,0.1-0.2c0.1-0.1,0.3-0.1,0.4,0c0,0,0.1,0.1,0.1,0.2
			c0,0.1,0,0.1-0.1,0.2C14.1-48,14.1-48,14-48z"/>
		<path class="timeline-blue-text" d="M24-45c-0.1,0-0.1,0-0.2-0.1c0,0-0.1-0.1-0.1-0.2s0-0.1,0.1-0.2c0.1-0.1,0.3-0.1,0.4,0c0,0.1,0.1,0.1,0.1,0.2
			c0,0.1,0,0.1-0.1,0.2C24.1-45,24.1-45,24-45z"/>
		<path class="timeline-blue-text" d="M30.7-46.2c-0.1,0-0.1,0-0.2-0.1c0,0-0.1-0.1-0.1-0.2s0-0.1,0.1-0.2c0.1-0.1,0.2-0.1,0.4,0
			c0,0,0.1,0.1,0.1,0.2s0,0.1-0.1,0.2C30.9-46.3,30.8-46.2,30.7-46.2z"/>
		<path class="timeline-blue-text" d="M31.2-48.8c-0.1,0-0.1,0-0.2-0.1c0,0-0.1-0.1-0.1-0.2c0-0.1,0-0.1,0.1-0.2c0.1-0.1,0.3-0.1,0.4,0
			c0,0.1,0.1,0.1,0.1,0.2c0,0.1,0,0.1-0.1,0.2C31.4-48.8,31.3-48.8,31.2-48.8z"/>
		<path class="timeline-blue-text" d="M29.2-53.8c-0.1,0-0.1,0-0.2-0.1c0,0-0.1-0.1-0.1-0.2s0-0.1,0.1-0.2c0.1-0.1,0.2-0.1,0.4,0
			c0,0,0.1,0.1,0.1,0.2s0,0.1-0.1,0.2C29.4-53.8,29.3-53.8,29.2-53.8z"/>
		<path class="timeline-blue-text" d="M32.2-53.8c-0.1,0-0.1,0-0.2-0.1c0,0-0.1-0.1-0.1-0.2s0-0.1,0.1-0.2c0.1-0.1,0.3-0.1,0.4,0
			c0,0,0.1,0.1,0.1,0.2s0,0.1-0.1,0.2C32.4-53.8,32.3-53.8,32.2-53.8z"/>
		<path class="timeline-blue-text" d="M32.5-58.2c-0.1,0-0.1,0-0.2-0.1c0,0-0.1-0.1-0.1-0.2s0-0.1,0.1-0.2c0.1-0.1,0.3-0.1,0.4,0
			c0,0,0.1,0.1,0.1,0.2s0,0.1-0.1,0.2C32.6-58.3,32.6-58.2,32.5-58.2z"/>
		<path class="timeline-blue-text" d="M31.7-60.2c-0.1,0-0.1,0-0.2-0.1c0,0-0.1-0.1-0.1-0.2s0-0.1,0.1-0.2c0.1-0.1,0.2-0.1,0.4,0
			c0,0,0.1,0.1,0.1,0.2s0,0.1-0.1,0.2C31.9-60.3,31.8-60.2,31.7-60.2z"/>
		<path class="timeline-blue-text" d="M29.2-61.2c-0.1,0-0.1,0-0.2-0.1c0,0-0.1-0.1-0.1-0.2s0-0.1,0.1-0.2c0.1-0.1,0.2-0.1,0.4,0
			c0,0,0.1,0.1,0.1,0.2s0,0.1-0.1,0.2C29.4-61.3,29.3-61.2,29.2-61.2z"/>
		<path class="timeline-blue-text" d="M32.2-65c-0.1,0-0.1,0-0.2-0.1c0,0-0.1-0.1-0.1-0.2s0-0.1,0.1-0.2c0.1-0.1,0.3-0.1,0.4,0c0,0,0.1,0.1,0.1,0.2
			s0,0.1-0.1,0.2C32.4-65,32.3-65,32.2-65z"/>
		<path class="timeline-blue-text" d="M32-69c-0.1,0-0.1,0-0.2-0.1c0,0-0.1-0.1-0.1-0.2s0-0.1,0.1-0.2c0.1-0.1,0.2-0.1,0.4,0c0,0,0.1,0.1,0.1,0.2
			s0,0.1-0.1,0.2C32.1-69,32.1-69,32-69z"/>
		<path class="timeline-blue-text" d="M29.2-68.8c-0.1,0-0.1,0-0.2-0.1c0,0-0.1-0.1-0.1-0.2s0-0.1,0.1-0.2c0.1-0.1,0.2-0.1,0.4,0
			c0,0,0.1,0.1,0.1,0.2c0,0.1,0,0.1-0.1,0.2C29.4-68.8,29.3-68.8,29.2-68.8z"/>
		<path class="timeline-blue-text" d="M34-70.8c-0.1,0-0.1,0-0.2-0.1c0,0-0.1-0.1-0.1-0.2s0-0.1,0.1-0.2c0.1-0.1,0.3-0.1,0.4,0c0,0,0.1,0.1,0.1,0.2
			c0,0.1,0,0.1-0.1,0.2C34.1-70.8,34.1-70.8,34-70.8z"/>
		<path class="timeline-blue-text" d="M41.5-65c-0.1,0-0.1,0-0.2-0.1c0,0-0.1-0.1-0.1-0.2s0-0.1,0.1-0.2c0.1-0.1,0.2-0.1,0.3,0
			c0.1,0.1,0.1,0.1,0.1,0.2s0,0.1-0.1,0.2C41.6-65,41.6-65,41.5-65z"/>
		<path class="timeline-blue-text" d="M45.5-65.2c-0.1,0-0.1,0-0.2-0.1c0,0-0.1-0.1-0.1-0.2s0-0.1,0.1-0.2c0.1-0.1,0.2-0.1,0.4,0
			c0,0,0.1,0.1,0.1,0.2s0,0.1-0.1,0.2C45.6-65.3,45.6-65.2,45.5-65.2z"/>
		<path class="timeline-blue-text" d="M40.2-61.8c-0.1,0-0.1,0-0.2-0.1c0,0-0.1-0.1-0.1-0.2c0-0.1,0-0.1,0.1-0.2c0.1-0.1,0.3-0.1,0.4,0
			c0,0,0.1,0.1,0.1,0.2c0,0.1,0,0.1-0.1,0.2C40.4-61.8,40.3-61.8,40.2-61.8z"/>
		<path class="timeline-blue-text" d="M45-60.2c-0.1,0-0.1,0-0.2-0.1c0,0-0.1-0.1-0.1-0.2s0-0.1,0.1-0.2c0.1-0.1,0.2-0.1,0.4,0c0,0,0.1,0.1,0.1,0.2
			s0,0.1-0.1,0.2C45.1-60.3,45.1-60.2,45-60.2z"/>
		<path class="timeline-blue-text" d="M45-58.5c-0.1,0-0.1,0-0.2-0.1c0,0-0.1-0.1-0.1-0.2s0-0.1,0.1-0.2c0.1-0.1,0.3-0.1,0.4,0c0,0,0.1,0.1,0.1,0.2
			s0,0.1-0.1,0.2C45.1-58.5,45.1-58.5,45-58.5z"/>
		<path class="timeline-blue-text" d="M47-57.8c-0.1,0-0.1,0-0.2-0.1c0,0-0.1-0.1-0.1-0.2s0-0.1,0.1-0.2c0.1-0.1,0.2-0.1,0.4,0c0,0,0.1,0.1,0.1,0.2
			s0,0.1-0.1,0.2C47.1-57.8,47.1-57.8,47-57.8z"/>
		<path class="timeline-blue-text" d="M47-55.8c-0.1,0-0.1,0-0.2-0.1c0,0-0.1-0.1-0.1-0.2s0-0.1,0.1-0.2c0.1-0.1,0.3-0.1,0.4,0c0,0,0.1,0.1,0.1,0.2
			s0,0.1-0.1,0.2C47.1-55.8,47.1-55.8,47-55.8z"/>
		<path class="timeline-blue-text" d="M47.2-49.2c-0.1,0-0.1,0-0.2-0.1c0,0-0.1-0.1-0.1-0.2s0-0.1,0.1-0.2c0.1-0.1,0.2-0.1,0.4,0
			c0,0,0.1,0.1,0.1,0.2s0,0.1-0.1,0.2C47.4-49.3,47.3-49.2,47.2-49.2z"/>
		<path class="timeline-blue-text" d="M39-51.2c-0.1,0-0.1,0-0.2-0.1c0,0-0.1-0.1-0.1-0.2s0-0.1,0.1-0.2c0.1-0.1,0.2-0.1,0.4,0c0,0,0.1,0.1,0.1,0.2
			s0,0.1-0.1,0.2C39.1-51.3,39.1-51.2,39-51.2z"/>
		<path class="timeline-blue-text" d="M50.2-58.5c-0.1,0-0.1,0-0.2-0.1c0,0-0.1-0.1-0.1-0.2s0-0.1,0.1-0.2c0.1-0.1,0.3-0.1,0.4,0
			c0,0,0.1,0.1,0.1,0.2s0,0.1-0.1,0.2C50.4-58.5,50.3-58.5,50.2-58.5z"/>
		<path class="timeline-blue-text" d="M52.2-60c-0.1,0-0.1,0-0.2-0.1c0,0-0.1-0.1-0.1-0.2s0-0.1,0.1-0.2c0.1-0.1,0.2-0.1,0.4,0c0,0,0.1,0.1,0.1,0.2
			s0,0.1-0.1,0.2C52.4-60,52.3-60,52.2-60z"/>
		<path class="timeline-blue-text" d="M54.7-61c-0.1,0-0.1,0-0.2-0.1c0,0-0.1-0.1-0.1-0.2c0-0.1,0-0.1,0.1-0.2c0.1-0.1,0.2-0.1,0.4,0
			c0,0,0.1,0.1,0.1,0.2c0,0.1,0,0.1-0.1,0.2C54.9-61,54.8-61,54.7-61z"/>
		<path class="timeline-blue-text" d="M54.7-65.2c-0.1,0-0.1,0-0.2-0.1c0-0.1-0.1-0.1-0.1-0.2s0-0.1,0.1-0.2c0.1-0.1,0.3-0.1,0.4,0
			c0,0.1,0.1,0.1,0.1,0.2s0,0.1-0.1,0.2C54.9-65.3,54.8-65.2,54.7-65.2z"/>
		<path class="timeline-blue-text" d="M56.5-71.2c-0.1,0-0.1,0-0.2-0.1c0,0-0.1-0.1-0.1-0.2s0-0.1,0.1-0.2c0.1-0.1,0.3-0.1,0.4,0
			c0,0.1,0.1,0.1,0.1,0.2s0,0.1-0.1,0.2C56.6-71.3,56.6-71.2,56.5-71.2z"/>
		<path class="timeline-blue-text" d="M64-65.5c-0.1,0-0.1,0-0.2-0.1c0,0-0.1-0.1-0.1-0.2s0-0.1,0.1-0.2c0.1-0.1,0.3-0.1,0.4,0
			c0,0.1,0.1,0.1,0.1,0.2s0,0.1-0.1,0.2C64.1-65.5,64.1-65.5,64-65.5z"/>
		<path class="timeline-blue-text" d="M65-69.5c-0.1,0-0.1,0-0.2-0.1c0,0-0.1-0.1-0.1-0.2s0-0.1,0.1-0.2c0.1-0.1,0.2-0.1,0.4,0c0,0,0.1,0.1,0.1,0.2
			s0,0.1-0.1,0.2C65.1-69.5,65.1-69.5,65-69.5z"/>
		<path class="timeline-blue-text" d="M68-69c-0.1,0-0.1,0-0.2-0.1c0,0-0.1-0.1-0.1-0.2s0-0.1,0.1-0.2c0.1-0.1,0.3-0.1,0.4,0c0,0,0.1,0.1,0.1,0.2
			s0,0.1-0.1,0.2C68.1-69,68.1-69,68-69z"/>
		<path class="timeline-blue-text" d="M68-61.8c-0.1,0-0.1,0-0.2-0.1c0,0-0.1-0.1-0.1-0.2s0-0.1,0.1-0.2c0.1-0.1,0.3-0.1,0.4,0c0,0,0.1,0.1,0.1,0.2
			s0,0.1-0.1,0.2C68.1-61.8,68.1-61.8,68-61.8z"/>
		<path class="timeline-blue-text" d="M64.2-59.8c-0.1,0-0.1,0-0.2-0.1c0,0-0.1-0.1-0.1-0.2s0-0.1,0.1-0.2c0.1-0.1,0.2-0.1,0.3,0
			c0.1,0,0.1,0.1,0.1,0.2s0,0.1-0.1,0.2C64.4-59.8,64.3-59.8,64.2-59.8z"/>
		<path class="timeline-blue-text" d="M65.2-56.2c-0.1,0-0.1,0-0.2-0.1c0,0-0.1-0.1-0.1-0.2s0-0.1,0.1-0.2c0.1-0.1,0.3-0.1,0.4,0
			c0,0,0.1,0.1,0.1,0.2s0,0.1-0.1,0.2C65.4-56.3,65.3-56.2,65.2-56.2z"/>
		<path class="timeline-blue-text" d="M64-52.2c-0.1,0-0.1,0-0.2-0.1c0,0-0.1-0.1-0.1-0.2s0-0.1,0.1-0.2c0.1-0.1,0.3-0.1,0.4,0c0,0,0.1,0.1,0.1,0.2
			s0,0.1-0.1,0.2C64.1-52.3,64.1-52.2,64-52.2z"/>
		<path class="timeline-blue-text" d="M66.2-52.2c-0.1,0-0.1,0-0.2-0.1c0,0-0.1-0.1-0.1-0.2c0-0.1,0-0.1,0.1-0.2c0.1-0.1,0.3-0.1,0.4,0
			c0,0,0.1,0.1,0.1,0.2c0,0.1,0,0.1-0.1,0.2C66.4-52.3,66.3-52.2,66.2-52.2z"/>
		<path class="timeline-blue-text" d="M68-50.8c-0.1,0-0.1,0-0.2-0.1c0,0-0.1-0.1-0.1-0.2s0-0.1,0.1-0.2c0.1-0.1,0.3-0.1,0.4,0
			c0,0.1,0.1,0.1,0.1,0.2s0,0.1-0.1,0.2C68.1-50.8,68.1-50.8,68-50.8z"/>
		<path class="timeline-blue-text" d="M69.2-51.8c-0.1,0-0.1,0-0.2-0.1c0,0-0.1-0.1-0.1-0.2s0-0.1,0.1-0.2c0.1-0.1,0.2-0.1,0.4,0
			c0,0,0.1,0.1,0.1,0.2s0,0.1-0.1,0.2C69.4-51.8,69.3-51.8,69.2-51.8z"/>
		<path class="timeline-blue-text" d="M69.5-54c-0.1,0-0.1,0-0.2-0.1c0,0-0.1-0.1-0.1-0.2s0-0.1,0.1-0.2c0.1-0.1,0.2-0.1,0.4,0c0,0,0.1,0.1,0.1,0.2
			s0,0.1-0.1,0.2C69.6-54,69.6-54,69.5-54z"/>
		<path class="timeline-blue-text" d="M71.2-54.5c-0.1,0-0.1,0-0.2-0.1c0,0-0.1-0.1-0.1-0.2s0-0.1,0.1-0.2c0.1-0.1,0.3-0.1,0.4,0
			c0,0.1,0.1,0.1,0.1,0.2s0,0.1-0.1,0.2C71.4-54.5,71.3-54.5,71.2-54.5z"/>
		<path class="timeline-blue-text" d="M8-25c-0.1,0-0.1,0-0.2-0.1c0-0.1-0.1-0.1-0.1-0.2c0-0.1,0-0.1,0.1-0.2c0.1-0.1,0.3-0.1,0.4,0
			c0,0,0.1,0.1,0.1,0.2c0,0.1,0,0.1-0.1,0.2C8.1-25,8.1-25,8-25z"/>
		<path class="timeline-blue-text" d="M7-19.8c-0.1,0-0.1,0-0.2-0.1c0,0-0.1-0.1-0.1-0.2s0-0.1,0.1-0.2c0.1-0.1,0.3-0.1,0.4,0c0,0,0.1,0.1,0.1,0.2
			c0,0.1,0,0.1-0.1,0.2C7.1-19.8,7.1-19.8,7-19.8z"/>
		<path class="timeline-blue-text" d="M7.2-17.5c-0.1,0-0.1,0-0.2-0.1c0,0-0.1-0.1-0.1-0.2c0-0.1,0-0.1,0.1-0.2c0.1-0.1,0.3-0.1,0.4,0
			c0,0,0.1,0.1,0.1,0.2s0,0.1-0.1,0.2C7.4-17.5,7.3-17.5,7.2-17.5z"/>
		<path class="timeline-blue-text" d="M5-15.2c-0.1,0-0.1,0-0.2-0.1c0,0-0.1-0.1-0.1-0.2s0-0.1,0.1-0.2c0.1-0.1,0.3-0.1,0.4,0c0,0,0.1,0.1,0.1,0.2
			s0,0.1-0.1,0.2C5.1-15.3,5.1-15.2,5-15.2z"/>
		<path class="timeline-blue-text" d="M2.2-17.5c-0.1,0-0.1,0-0.2-0.1c0,0-0.1-0.1-0.1-0.2c0-0.1,0-0.1,0.1-0.2c0.1-0.1,0.3-0.1,0.3,0
			c0.1,0.1,0.1,0.1,0.1,0.2s0,0.1-0.1,0.2C2.4-17.5,2.3-17.5,2.2-17.5z"/>
		<path class="timeline-blue-text" d="M9.7-8C9.7-8,9.6-8,9.6-8.1c0,0-0.1-0.1-0.1-0.2s0-0.1,0.1-0.2c0.1-0.1,0.3-0.1,0.4,0c0,0,0.1,0.1,0.1,0.2
			s0,0.1-0.1,0.2C9.9-8,9.8-8,9.7-8z"/>
		<path class="timeline-blue-text" d="M2.2-5C2.2-5,2.1-5,2.1-5.1C2-5.1,2-5.2,2-5.2s0-0.1,0.1-0.2c0.1-0.1,0.3-0.1,0.4,0c0,0,0.1,0.1,0.1,0.2
			c0,0.1,0,0.1-0.1,0.2C2.4-5,2.3-5,2.2-5z"/>
		<path class="timeline-blue-text" d="M1-4C0.9-4,0.9-4,0.8-4.1c0,0-0.1-0.1-0.1-0.2c0-0.1,0-0.1,0.1-0.2c0.1-0.1,0.3-0.1,0.4,0
			c0,0,0.1,0.1,0.1,0.2s0,0.1-0.1,0.2C1.1-4,1.1-4,1-4z"/>
		<path class="timeline-blue-text" d="M11-1c-0.1,0-0.1,0-0.2-0.1c0,0-0.1-0.1-0.1-0.2s0-0.1,0.1-0.2c0.1-0.1,0.3-0.1,0.4,0c0,0,0.1,0.1,0.1,0.2
			s0,0.1-0.1,0.2C11.1-1,11.1-1,11-1z"/>
		<path class="timeline-blue-text" d="M17.7-2.2c-0.1,0-0.1,0-0.2-0.1c0,0-0.1-0.1-0.1-0.2s0-0.1,0.1-0.2c0.1-0.1,0.3-0.1,0.4,0
			c0,0,0.1,0.1,0.1,0.2s0,0.1-0.1,0.2C17.9-2.3,17.8-2.2,17.7-2.2z"/>
		<path class="timeline-blue-text" d="M18.2-4.8c-0.1,0-0.1,0-0.2-0.1C18-4.9,18-4.9,18-5c0-0.1,0-0.1,0.1-0.2c0.1-0.1,0.3-0.1,0.4,0
			c0,0,0.1,0.1,0.1,0.2c0,0.1,0,0.1-0.1,0.2C18.4-4.8,18.3-4.8,18.2-4.8z"/>
		<path class="timeline-blue-text" d="M16.2-9.8c-0.1,0-0.1,0-0.2-0.1c0,0-0.1-0.1-0.1-0.2c0-0.1,0-0.1,0.1-0.2c0.1-0.1,0.3-0.1,0.4,0
			c0,0,0.1,0.1,0.1,0.2c0,0.1,0,0.1-0.1,0.2C16.4-9.8,16.3-9.8,16.2-9.8z"/>
		<path class="timeline-blue-text" d="M19.2-9.8c-0.1,0-0.1,0-0.2-0.1c0,0-0.1-0.1-0.1-0.2c0-0.1,0-0.1,0.1-0.2c0.1-0.1,0.3-0.1,0.4,0
			c0,0,0.1,0.1,0.1,0.2c0,0.1,0,0.1-0.1,0.2C19.4-9.8,19.3-9.8,19.2-9.8z"/>
		<path class="timeline-blue-text" d="M19.5-14.2c-0.1,0-0.1,0-0.2-0.1c0,0-0.1-0.1-0.1-0.2c0-0.1,0-0.1,0.1-0.2c0.1-0.1,0.3-0.1,0.4,0
			c0,0.1,0.1,0.1,0.1,0.2s0,0.1-0.1,0.2C19.6-14.3,19.6-14.2,19.5-14.2z"/>
		<path class="timeline-blue-text" d="M18.7-16.2c-0.1,0-0.1,0-0.2-0.1c0,0-0.1-0.1-0.1-0.2s0-0.1,0.1-0.2c0.1-0.1,0.3-0.1,0.4,0
			c0,0,0.1,0.1,0.1,0.2s0,0.1-0.1,0.2C18.9-16.3,18.8-16.2,18.7-16.2z"/>
		<path class="timeline-blue-text" d="M16.2-17.2c-0.1,0-0.1,0-0.2-0.1c0,0-0.1-0.1-0.1-0.2c0-0.1,0-0.1,0.1-0.2c0.1-0.1,0.3-0.1,0.4,0
			c0,0,0.1,0.1,0.1,0.2c0,0.1,0,0.1-0.1,0.2C16.4-17.3,16.3-17.2,16.2-17.2z"/>
		<path class="timeline-blue-text" d="M19.2-21c-0.1,0-0.1,0-0.2-0.1c0,0-0.1-0.1-0.1-0.2c0-0.1,0-0.1,0.1-0.2c0.1-0.1,0.3-0.1,0.4,0
			c0,0,0.1,0.1,0.1,0.2s0,0.1-0.1,0.2C19.4-21,19.3-21,19.2-21z"/>
		<path class="timeline-blue-text" d="M19-25c-0.1,0-0.1,0-0.2-0.1c0,0-0.1-0.1-0.1-0.2c0-0.1,0-0.1,0.1-0.2c0.1-0.1,0.3-0.1,0.4,0
			c0,0,0.1,0.1,0.1,0.2c0,0.1,0,0.1-0.1,0.2C19.1-25,19.1-25,19-25z"/>
		<path class="timeline-blue-text" d="M16.2-24.8c-0.1,0-0.1,0-0.2-0.1c0,0-0.1-0.1-0.1-0.2c0-0.1,0-0.1,0.1-0.2c0.1-0.1,0.3-0.1,0.4,0
			c0,0,0.1,0.1,0.1,0.2c0,0.1,0,0.1-0.1,0.2C16.4-24.8,16.3-24.8,16.2-24.8z"/>
		<path class="timeline-blue-text" d="M21-26.8c-0.1,0-0.1,0-0.2-0.1c0,0-0.1-0.1-0.1-0.2s0-0.1,0.1-0.2c0.1-0.1,0.2-0.1,0.4,0c0,0,0.1,0.1,0.1,0.2
			s0,0.1-0.1,0.2C21.1-26.8,21.1-26.8,21-26.8z"/>
		<path class="timeline-blue-text" d="M28.5-21c-0.1,0-0.1,0-0.2-0.1c0,0-0.1-0.1-0.1-0.2s0-0.1,0.1-0.2c0.1-0.1,0.3-0.1,0.4,0
			c0,0.1,0.1,0.1,0.1,0.2s0,0.1-0.1,0.2C28.6-21,28.6-21,28.5-21z"/>
		<path class="timeline-blue-text" d="M32.5-21.2c-0.1,0-0.1,0-0.2-0.1c0,0-0.1-0.1-0.1-0.2s0-0.1,0.1-0.2c0.1-0.1,0.2-0.1,0.4,0
			c0,0,0.1,0.1,0.1,0.2s0,0.1-0.1,0.2C32.6-21.3,32.6-21.2,32.5-21.2z"/>
		<path class="timeline-blue-text" d="M27.2-17.8c-0.1,0-0.1,0-0.2-0.1c0,0-0.1-0.1-0.1-0.2s0-0.1,0.1-0.2c0.1-0.1,0.3-0.1,0.4,0
			c0,0,0.1,0.1,0.1,0.2c0,0.1,0,0.1-0.1,0.2C27.4-17.8,27.3-17.8,27.2-17.8z"/>
		<path class="timeline-blue-text" d="M32-16.2c-0.1,0-0.1,0-0.2-0.1c0,0-0.1-0.1-0.1-0.2c0-0.1,0-0.1,0.1-0.2c0.1-0.1,0.3-0.1,0.4,0
			c0,0.1,0.1,0.1,0.1,0.2c0,0.1,0,0.1-0.1,0.2C32.1-16.3,32.1-16.2,32-16.2z"/>
		<path class="timeline-blue-text" d="M32-14.5c-0.1,0-0.1,0-0.2-0.1c0,0-0.1-0.1-0.1-0.2c0-0.1,0-0.1,0.1-0.2c0.1-0.1,0.3-0.1,0.4,0
			c0,0.1,0.1,0.1,0.1,0.2s0,0.1-0.1,0.2C32.1-14.5,32.1-14.5,32-14.5z"/>
		<path class="timeline-blue-text" d="M34-13.8c-0.1,0-0.1,0-0.2-0.1c0,0-0.1-0.1-0.1-0.2s0-0.1,0.1-0.2c0.1-0.1,0.3-0.1,0.4,0c0,0,0.1,0.1,0.1,0.2
			c0,0.1,0,0.1-0.1,0.2C34.1-13.8,34.1-13.8,34-13.8z"/>
		<path class="timeline-blue-text" d="M34-11.8c-0.1,0-0.1,0-0.2-0.1c0,0-0.1-0.1-0.1-0.2s0-0.1,0.1-0.2c0.1-0.1,0.3-0.1,0.4,0
			c0,0.1,0.1,0.1,0.1,0.2s0,0.1-0.1,0.2C34.1-11.8,34.1-11.8,34-11.8z"/>
		<path class="timeline-blue-text" d="M34.2-5.2c-0.1,0-0.1,0-0.2-0.1c0,0-0.1-0.1-0.1-0.2s0-0.1,0.1-0.2c0.1-0.1,0.2-0.1,0.4,0
			c0,0,0.1,0.1,0.1,0.2s0,0.1-0.1,0.2C34.4-5.3,34.3-5.2,34.2-5.2z"/>
		<path class="timeline-blue-text" d="M26-7.2c-0.1,0-0.1,0-0.2-0.1c0,0-0.1-0.1-0.1-0.2s0-0.1,0.1-0.2c0.1-0.1,0.3-0.1,0.4,0c0,0,0.1,0.1,0.1,0.2
			c0,0.1,0,0.1-0.1,0.2C26.1-7.3,26.1-7.2,26-7.2z"/>
		<path class="timeline-blue-text" d="M37.2-14.5c-0.1,0-0.1,0-0.2-0.1c0,0-0.1-0.1-0.1-0.2s0-0.1,0.1-0.2c0.1-0.1,0.2-0.1,0.3,0
			c0.1,0,0.1,0.1,0.1,0.2s0,0.1-0.1,0.2C37.4-14.5,37.3-14.5,37.2-14.5z"/>
		<path class="timeline-blue-text" d="M39.2-16c-0.1,0-0.1,0-0.2-0.1c0,0-0.1-0.1-0.1-0.2s0-0.1,0.1-0.2c0.1-0.1,0.2-0.1,0.4,0c0,0,0.1,0.1,0.1,0.2
			s0,0.1-0.1,0.2C39.4-16,39.3-16,39.2-16z"/>
		<path class="timeline-blue-text" d="M41.7-17c-0.1,0-0.1,0-0.2-0.1c0,0-0.1-0.1-0.1-0.2s0-0.1,0.1-0.2c0.1-0.1,0.3-0.1,0.4,0c0,0,0.1,0.1,0.1,0.2
			c0,0.1,0,0.1-0.1,0.2C41.9-17,41.8-17,41.7-17z"/>
		<path class="timeline-blue-text" d="M41.7-21.2c-0.1,0-0.1,0-0.2-0.1c0,0-0.1-0.1-0.1-0.2s0-0.1,0.1-0.2c0.1-0.1,0.3-0.1,0.4,0
			c0,0,0.1,0.1,0.1,0.2c0,0.1,0,0.1-0.1,0.2C41.9-21.3,41.8-21.2,41.7-21.2z"/>
		<path class="timeline-blue-text" d="M43.5-27.2c-0.1,0-0.1,0-0.2-0.1c0,0-0.1-0.1-0.1-0.2s0-0.1,0.1-0.2c0.1-0.1,0.2-0.1,0.4,0
			c0,0,0.1,0.1,0.1,0.2s0,0.1-0.1,0.2C43.6-27.3,43.6-27.2,43.5-27.2z"/>
		<path class="timeline-blue-text" d="M51-21.5c-0.1,0-0.1,0-0.2-0.1c0,0-0.1-0.1-0.1-0.2s0-0.1,0.1-0.2c0.1-0.1,0.2-0.1,0.4,0c0,0,0.1,0.1,0.1,0.2
			s0,0.1-0.1,0.2C51.1-21.5,51.1-21.5,51-21.5z"/>
		<path class="timeline-blue-text" d="M52-25.5c-0.1,0-0.1,0-0.2-0.1c0,0-0.1-0.1-0.1-0.2s0-0.1,0.1-0.2c0.1-0.1,0.2-0.1,0.4,0
			c0,0.1,0.1,0.1,0.1,0.2s0,0.1-0.1,0.2C52.1-25.5,52.1-25.5,52-25.5z"/>
		<path class="timeline-blue-text" d="M55-25c-0.1,0-0.1,0-0.2-0.1c0,0-0.1-0.1-0.1-0.2s0-0.1,0.1-0.2c0.1-0.1,0.2-0.1,0.4,0c0,0,0.1,0.1,0.1,0.2
			s0,0.1-0.1,0.2C55.1-25,55.1-25,55-25z"/>
		<path class="timeline-blue-text" d="M55-17.8c-0.1,0-0.1,0-0.2-0.1c0,0-0.1-0.1-0.1-0.2s0-0.1,0.1-0.2c0.1-0.1,0.2-0.1,0.4,0c0,0,0.1,0.1,0.1,0.2
			s0,0.1-0.1,0.2C55.1-17.8,55.1-17.8,55-17.8z"/>
		<path class="timeline-blue-text" d="M51.2-15.8c-0.1,0-0.1,0-0.2-0.1c0,0-0.1-0.1-0.1-0.2c0-0.1,0-0.1,0.1-0.2c0.1-0.1,0.2-0.1,0.4,0
			c0,0,0.1,0.1,0.1,0.2c0,0.1,0,0.1-0.1,0.2C51.4-15.8,51.3-15.8,51.2-15.8z"/>
		<path class="timeline-blue-text" d="M52.2-12.2c-0.1,0-0.1,0-0.2-0.1c0,0-0.1-0.1-0.1-0.2s0-0.1,0.1-0.2c0.1-0.1,0.2-0.1,0.4,0
			c0,0.1,0.1,0.1,0.1,0.2s0,0.1-0.1,0.2C52.4-12.3,52.3-12.2,52.2-12.2z"/>
		<path class="timeline-blue-text" d="M51-8.2c-0.1,0-0.1,0-0.2-0.1c0,0-0.1-0.1-0.1-0.2s0-0.1,0.1-0.2c0.1-0.1,0.2-0.1,0.4,0c0,0,0.1,0.1,0.1,0.2
			s0,0.1-0.1,0.2C51.1-8.3,51.1-8.2,51-8.2z"/>
		<path class="timeline-blue-text" d="M53.2-8.2c-0.1,0-0.1,0-0.2-0.1c0,0-0.1-0.1-0.1-0.2s0-0.1,0.1-0.2c0.1-0.1,0.3-0.1,0.4,0
			c0,0.1,0.1,0.1,0.1,0.2s0,0.1-0.1,0.2C53.4-8.3,53.3-8.2,53.2-8.2z"/>
		<path class="timeline-blue-text" d="M55-6.8c-0.1,0-0.1,0-0.2-0.1c0,0-0.1-0.1-0.1-0.2s0-0.1,0.1-0.2c0.1-0.1,0.2-0.1,0.4,0c0,0,0.1,0.1,0.1,0.2
			s0,0.1-0.1,0.2C55.1-6.8,55.1-6.8,55-6.8z"/>
		<path class="timeline-blue-text" d="M56.2-7.8c-0.1,0-0.1,0-0.2-0.1C56-7.9,56-7.9,56-8c0-0.1,0-0.1,0.1-0.2c0.1-0.1,0.2-0.1,0.4,0
			c0,0,0.1,0.1,0.1,0.2c0,0.1,0,0.1-0.1,0.2C56.4-7.8,56.3-7.8,56.2-7.8z"/>
		<path class="timeline-blue-text" d="M56.5-10c-0.1,0-0.1,0-0.2-0.1c0-0.1-0.1-0.1-0.1-0.2c0-0.1,0-0.1,0.1-0.2c0.1-0.1,0.3-0.1,0.4,0
			c0,0,0.1,0.1,0.1,0.2s0,0.1-0.1,0.2C56.6-10,56.6-10,56.5-10z"/>
		<path class="timeline-blue-text" d="M58.2-10.5c-0.1,0-0.1,0-0.2-0.1c0,0-0.1-0.1-0.1-0.2s0-0.1,0.1-0.2c0.1-0.1,0.3-0.1,0.4,0
			c0,0.1,0.1,0.1,0.1,0.2s0,0.1-0.1,0.2C58.4-10.5,58.3-10.5,58.2-10.5z"/>
		<path class="timeline-blue-text" d="M21-45c-0.1,0-0.1,0-0.2-0.1c0,0-0.1-0.1-0.1-0.2s0-0.1,0.1-0.2c0.1-0.1,0.2-0.1,0.4,0c0,0,0.1,0.1,0.1,0.2
			s0,0.1-0.1,0.2C21.1-45,21.1-45,21-45z"/>
		<path class="timeline-blue-text" d="M22.7-48c-0.1,0-0.1,0-0.2-0.1c0,0-0.1-0.1-0.1-0.2s0-0.1,0.1-0.2c0.1-0.1,0.3-0.1,0.4,0c0,0,0.1,0.1,0.1,0.2
			s0,0.1-0.1,0.2C22.9-48,22.8-48,22.7-48z"/>
		<path class="timeline-blue-text" d="M25.2-47.5c-0.1,0-0.1,0-0.2-0.1c0,0-0.1-0.1-0.1-0.2s0-0.1,0.1-0.2c0.1-0.1,0.2-0.1,0.4,0
			c0,0,0.1,0.1,0.1,0.2s0,0.1-0.1,0.2C25.4-47.5,25.3-47.5,25.2-47.5z"/>
		<path class="timeline-blue-text" d="M35.2-48.8c-0.1,0-0.1,0-0.2-0.1c0,0-0.1-0.1-0.1-0.2s0-0.1,0.1-0.2c0.1-0.1,0.2-0.1,0.4,0
			c0,0,0.1,0.1,0.1,0.2s0,0.1-0.1,0.2C35.4-48.8,35.3-48.8,35.2-48.8z"/>
		<path class="timeline-blue-text" d="M39-47.2c-0.1,0-0.1,0-0.2-0.1c0,0-0.1-0.1-0.1-0.2s0-0.1,0.1-0.2c0.1-0.1,0.2-0.1,0.4,0c0,0,0.1,0.1,0.1,0.2
			s0,0.1-0.1,0.2C39.1-47.3,39.1-47.2,39-47.2z"/>
		<path class="timeline-blue-text" d="M45-42.5c-0.1,0-0.1,0-0.2-0.1c0,0-0.1-0.1-0.1-0.2s0-0.1,0.1-0.2c0.1-0.1,0.2-0.1,0.4,0c0,0,0.1,0.1,0.1,0.2
			s0,0.1-0.1,0.2C45.1-42.5,45.1-42.5,45-42.5z"/>
		<path class="timeline-blue-text" d="M46.2-43c-0.1,0-0.1,0-0.2-0.1c0,0-0.1-0.1-0.1-0.2s0-0.1,0.1-0.2c0.1-0.1,0.2-0.1,0.3,0
			c0.1,0.1,0.1,0.1,0.1,0.2s0,0.1-0.1,0.2C46.4-43,46.3-43,46.2-43z"/>
		<path class="timeline-blue-text" d="M55.2-44c-0.1,0-0.1,0-0.2-0.1c0,0-0.1-0.1-0.1-0.2s0-0.1,0.1-0.2c0.1-0.1,0.2-0.1,0.4,0c0,0,0.1,0.1,0.1,0.2
			s0,0.1-0.1,0.2C55.4-44,55.3-44,55.2-44z"/>
		<path class="timeline-blue-text" d="M51.2-46.8c-0.1,0-0.1,0-0.2-0.1c0,0-0.1-0.1-0.1-0.2s0-0.1,0.1-0.2c0.1-0.1,0.2-0.1,0.4,0
			c0,0,0.1,0.1,0.1,0.2s0,0.1-0.1,0.2C51.4-46.8,51.3-46.8,51.2-46.8z"/>
		<path class="timeline-blue-text" d="M52-42.5c-0.1,0-0.1,0-0.2-0.1c0,0-0.1-0.1-0.1-0.2s0-0.1,0.1-0.2c0.1-0.1,0.2-0.1,0.4,0
			c0,0.1,0.1,0.1,0.1,0.2s0,0.1-0.1,0.2C52.1-42.5,52.1-42.5,52-42.5z"/>
		<path class="timeline-blue-text" d="M62.5-36.5c-0.1,0-0.1,0-0.2-0.1c0,0-0.1-0.1-0.1-0.2s0-0.1,0.1-0.2c0.1-0.1,0.2-0.1,0.3,0
			c0.1,0,0.1,0.1,0.1,0.2s0,0.1-0.1,0.2C62.6-36.5,62.6-36.5,62.5-36.5z"/>
		<path class="timeline-blue-text" d="M58.2-33.8c-0.1,0-0.1,0-0.2-0.1c0,0-0.1-0.1-0.1-0.2s0-0.1,0.1-0.2c0.1-0.1,0.3-0.1,0.4,0
			c0,0.1,0.1,0.1,0.1,0.2s0,0.1-0.1,0.2C58.4-33.8,58.3-33.8,58.2-33.8z"/>
		<path class="timeline-blue-text" d="M49-33c-0.1,0-0.1,0-0.2-0.1c0,0-0.1-0.1-0.1-0.2s0-0.1,0.1-0.2c0.1-0.1,0.3-0.1,0.4,0c0,0.1,0.1,0.1,0.1,0.2
			s0,0.1-0.1,0.2C49.1-33,49.1-33,49-33z"/>
		<path class="timeline-blue-text" d="M48-30.8c-0.1,0-0.1,0-0.2-0.1c0,0-0.1-0.1-0.1-0.2s0-0.1,0.1-0.2c0.1-0.1,0.2-0.1,0.3,0
			c0.1,0,0.1,0.1,0.1,0.2s0,0.1-0.1,0.2C48.1-30.8,48.1-30.8,48-30.8z"/>
		<path class="timeline-blue-text" d="M52-29c-0.1,0-0.1,0-0.2-0.1c0,0-0.1-0.1-0.1-0.2s0-0.1,0.1-0.2c0.1-0.1,0.2-0.1,0.4,0c0,0,0.1,0.1,0.1,0.2
			s0,0.1-0.1,0.2C52.1-29,52.1-29,52-29z"/>
		<path class="timeline-blue-text" d="M53.5-27c-0.1,0-0.1,0-0.2-0.1c0,0-0.1-0.1-0.1-0.2s0-0.1,0.1-0.2c0.1-0.1,0.2-0.1,0.4,0c0,0,0.1,0.1,0.1,0.2
			s0,0.1-0.1,0.2C53.6-27,53.6-27,53.5-27z"/>
		<path class="timeline-blue-text" d="M62.2-24c-0.1,0-0.1,0-0.2-0.1c0,0-0.1-0.1-0.1-0.2s0-0.1,0.1-0.2c0.1-0.1,0.3-0.1,0.4,0
			c0,0.1,0.1,0.1,0.1,0.2s0,0.1-0.1,0.2C62.4-24,62.3-24,62.2-24z"/>
		<path class="timeline-blue-text" d="M65-20.2c-0.1,0-0.1,0-0.2-0.1c0,0-0.1-0.1-0.1-0.2s0-0.1,0.1-0.2c0.1-0.1,0.2-0.1,0.4,0c0,0,0.1,0.1,0.1,0.2
			s0,0.1-0.1,0.2C65.1-20.3,65.1-20.2,65-20.2z"/>
		<path class="timeline-blue-text" d="M67-20.2c-0.1,0-0.1,0-0.2-0.1c0,0-0.1-0.1-0.1-0.2s0-0.1,0.1-0.2c0.1-0.1,0.2-0.1,0.4,0c0,0,0.1,0.1,0.1,0.2
			s0,0.1-0.1,0.2C67.1-20.3,67.1-20.2,67-20.2z"/>
		<path class="timeline-blue-text" d="M69.5-27c-0.1,0-0.1,0-0.2-0.1c0,0-0.1-0.1-0.1-0.2s0-0.1,0.1-0.2c0.1-0.1,0.2-0.1,0.4,0c0,0,0.1,0.1,0.1,0.2
			s0,0.1-0.1,0.2C69.6-27,69.6-27,69.5-27z"/>
		<path class="timeline-blue-text" d="M60-33c-0.1,0-0.1,0-0.2-0.1c0,0-0.1-0.1-0.1-0.2s0-0.1,0.1-0.2c0.1-0.1,0.2-0.1,0.4,0c0,0,0.1,0.1,0.1,0.2
			s0,0.1-0.1,0.2C60.1-33,60.1-33,60-33z"/>
		<path class="timeline-blue-text" d="M47.2-24.2c-0.1,0-0.1,0-0.2-0.1c0,0-0.1-0.1-0.1-0.2s0-0.1,0.1-0.2c0.1-0.1,0.2-0.1,0.4,0
			c0,0,0.1,0.1,0.1,0.2s0,0.1-0.1,0.2C47.4-24.3,47.3-24.2,47.2-24.2z"/>
		<path class="timeline-blue-text" d="M32.5-25c-0.1,0-0.1,0-0.2-0.1c0,0-0.1-0.1-0.1-0.2s0-0.1,0.1-0.2c0.1-0.1,0.3-0.1,0.4,0c0,0,0.1,0.1,0.1,0.2
			s0,0.1-0.1,0.2C32.6-25,32.6-25,32.5-25z"/>
		<path class="timeline-blue-text" d="M37-27.5c-0.1,0-0.1,0-0.2-0.1c0,0-0.1-0.1-0.1-0.2c0-0.1,0-0.1,0.1-0.2c0.1-0.1,0.3-0.1,0.4,0
			c0,0,0.1,0.1,0.1,0.2s0,0.1-0.1,0.2C37.1-27.5,37.1-27.5,37-27.5z"/>
		<path class="timeline-blue-text" d="M26.2-34.2c-0.1,0-0.1,0-0.2-0.1c0,0-0.1-0.1-0.1-0.2s0-0.1,0.1-0.2c0.1-0.1,0.2-0.1,0.4,0
			c0,0,0.1,0.1,0.1,0.2s0,0.1-0.1,0.2C26.4-34.3,26.3-34.2,26.2-34.2z"/>
		<path class="timeline-blue-text" d="M29.7-36.5c-0.1,0-0.1,0-0.2-0.1c0,0-0.1-0.1-0.1-0.2s0-0.1,0.1-0.2c0.1-0.1,0.2-0.1,0.4,0
			c0,0,0.1,0.1,0.1,0.2s0,0.1-0.1,0.2C29.9-36.5,29.8-36.5,29.7-36.5z"/>
		<path class="timeline-blue-text" d="M17-43.5c-0.1,0-0.1,0-0.2-0.1c0,0-0.1-0.1-0.1-0.2c0-0.1,0-0.1,0.1-0.2c0.1-0.1,0.3-0.1,0.4,0
			c0,0,0.1,0.1,0.1,0.2c0,0.1,0,0.1-0.1,0.2C17.1-43.5,17.1-43.5,17-43.5z"/>
		<path class="timeline-blue-text" d="M10.5-42.5c-0.1,0-0.1,0-0.2-0.1c0,0-0.1-0.1-0.1-0.2c0-0.1,0-0.1,0.1-0.2c0.1-0.1,0.3-0.1,0.4,0
			c0,0.1,0.1,0.1,0.1,0.2s0,0.1-0.1,0.2C10.6-42.5,10.6-42.5,10.5-42.5z"/>
		<path class="timeline-blue-text" d="M6-40.5c-0.1,0-0.1,0-0.2-0.1c0,0-0.1-0.1-0.1-0.2c0-0.1,0-0.1,0.1-0.2c0.1-0.1,0.3-0.1,0.4,0
			c0,0.1,0.1,0.1,0.1,0.2c0,0.1,0,0.1-0.1,0.2C6.1-40.5,6.1-40.5,6-40.5z"/>
		<path class="timeline-blue-text" d="M2.5-36.8c-0.1,0-0.1,0-0.2-0.1c0,0-0.1-0.1-0.1-0.2c0-0.1,0-0.1,0.1-0.2c0.1-0.1,0.2-0.1,0.3,0
			c0.1,0,0.1,0.1,0.1,0.2c0,0.1,0,0.1-0.1,0.2C2.6-36.8,2.6-36.8,2.5-36.8z"/>
		<path class="timeline-blue-text" d="M11.2-35.2c-0.1,0-0.1,0-0.2-0.1c0,0-0.1-0.1-0.1-0.2c0-0.1,0-0.1,0.1-0.2c0.1-0.1,0.2-0.1,0.4,0
			c0,0,0.1,0.1,0.1,0.2s0,0.1-0.1,0.2C11.4-35.3,11.3-35.2,11.2-35.2z"/>
		<path class="timeline-blue-text" d="M17-30c-0.1,0-0.1,0-0.2-0.1c0,0-0.1-0.1-0.1-0.2c0-0.1,0-0.1,0.1-0.2c0.1-0.1,0.3-0.1,0.4,0
			c0,0,0.1,0.1,0.1,0.2s0,0.1-0.1,0.2C17.1-30,17.1-30,17-30z"/>
		<path class="timeline-blue-text" d="M12.7-36c-0.1,0-0.1,0-0.2-0.1c0,0-0.1-0.1-0.1-0.2c0-0.1,0-0.1,0.1-0.2c0.1-0.1,0.3-0.1,0.4,0
			c0,0,0.1,0.1,0.1,0.2s0,0.1-0.1,0.2C12.9-36,12.8-36,12.7-36z"/>
		<path class="timeline-blue-text" d="M26.5-41.8c-0.1,0-0.1,0-0.2-0.1c0,0-0.1-0.1-0.1-0.2s0-0.1,0.1-0.2c0.1-0.1,0.2-0.1,0.4,0
			c0,0,0.1,0.1,0.1,0.2s0,0.1-0.1,0.2C26.6-41.8,26.6-41.8,26.5-41.8z"/>
		<path class="timeline-blue-text" d="M37.7-41c-0.1,0-0.1,0-0.2-0.1c0,0-0.1-0.1-0.1-0.2s0-0.1,0.1-0.2c0.1-0.1,0.2-0.1,0.4,0c0,0,0.1,0.1,0.1,0.2
			s0,0.1-0.1,0.2C37.9-41,37.8-41,37.7-41z"/>
		<path class="timeline-blue-text" d="M39.5-39.5c-0.1,0-0.1,0-0.2-0.1c0,0-0.1-0.1-0.1-0.2s0-0.1,0.1-0.2c0.1-0.1,0.3-0.1,0.4,0
			c0,0,0.1,0.1,0.1,0.2s0,0.1-0.1,0.2C39.6-39.5,39.6-39.5,39.5-39.5z"/>
		<path class="timeline-blue-text" d="M28-30c-0.1,0-0.1,0-0.2-0.1c0,0-0.1-0.1-0.1-0.2s0-0.1,0.1-0.2c0.1-0.1,0.3-0.1,0.3,0
			c0.1,0.1,0.1,0.1,0.1,0.2s0,0.1-0.1,0.2C28.1-30,28.1-30,28-30z"/>
		<path class="timeline-blue-text" d="M6.5-51.5c-0.1,0-0.1,0-0.2-0.1c0,0-0.1-0.1-0.1-0.2c0-0.1,0-0.1,0.1-0.2c0.1-0.1,0.3-0.1,0.4,0
			c0,0,0.1,0.1,0.1,0.2c0,0.1,0,0.1-0.1,0.2C6.6-51.5,6.6-51.5,6.5-51.5z"/>
		<path class="timeline-blue-text" d="M10.2-51.8c-0.1,0-0.1,0-0.2-0.1c0,0-0.1-0.1-0.1-0.2s0-0.1,0.1-0.2c0.1-0.1,0.3-0.1,0.4,0
			c0,0,0.1,0.1,0.1,0.2s0,0.1-0.1,0.2C10.4-51.8,10.3-51.8,10.2-51.8z"/>
		<path class="timeline-blue-text" d="M11.7-48.5c-0.1,0-0.1,0-0.2-0.1c0,0-0.1-0.1-0.1-0.2c0-0.1,0-0.1,0.1-0.2c0.1-0.1,0.3-0.1,0.4,0
			c0,0.1,0.1,0.1,0.1,0.2s0,0.1-0.1,0.2C11.9-48.5,11.8-48.5,11.7-48.5z"/>
		<path class="timeline-blue-text" d="M3-46.2c-0.1,0-0.1,0-0.2-0.1c0,0-0.1-0.1-0.1-0.2s0-0.1,0.1-0.2c0.1-0.1,0.3-0.1,0.4,0c0,0,0.1,0.1,0.1,0.2
			s0,0.1-0.1,0.2C3.1-46.3,3.1-46.2,3-46.2z"/>
		<path class="timeline-blue-text" d="M64.2-42.5c-0.1,0-0.1,0-0.2-0.1c0,0-0.1-0.1-0.1-0.2s0-0.1,0.1-0.2c0.1-0.1,0.2-0.1,0.3,0
			c0.1,0,0.1,0.1,0.1,0.2s0,0.1-0.1,0.2C64.4-42.5,64.3-42.5,64.2-42.5z"/>
		<path class="timeline-blue-text" d="M67.5-41.2c-0.1,0-0.1,0-0.2-0.1c0,0-0.1-0.1-0.1-0.2c0-0.1,0-0.1,0.1-0.2c0.1-0.1,0.3-0.1,0.4,0
			c0,0.1,0.1,0.1,0.1,0.2s0,0.1-0.1,0.2C67.6-41.3,67.6-41.2,67.5-41.2z"/>
		<path class="timeline-blue-text" d="M69.5-42.2c-0.1,0-0.1,0-0.2-0.1c0,0-0.1-0.1-0.1-0.2s0-0.1,0.1-0.2c0.1-0.1,0.2-0.1,0.4,0
			c0,0,0.1,0.1,0.1,0.2s0,0.1-0.1,0.2C69.6-42.3,69.6-42.2,69.5-42.2z"/>
		<path class="timeline-blue-text" d="M7.2-56.2c-0.1,0-0.1,0-0.2-0.1c0,0-0.1-0.1-0.1-0.2s0-0.1,0.1-0.2c0.1-0.1,0.3-0.1,0.4,0
			c0,0,0.1,0.1,0.1,0.2s0,0.1-0.1,0.2C7.4-56.3,7.3-56.2,7.2-56.2z"/>
		<path class="timeline-blue-text" d="M1.5-63c-0.1,0-0.1,0-0.2-0.1c0,0-0.1-0.1-0.1-0.2s0-0.1,0.1-0.2c0.1-0.1,0.3-0.1,0.4,0c0,0,0.1,0.1,0.1,0.2
			s0,0.1-0.1,0.2C1.6-63,1.6-63,1.5-63z"/>
		<path class="timeline-blue-text" d="M14.5-65.5c-0.1,0-0.1,0-0.2-0.1c0,0-0.1-0.1-0.1-0.2c0-0.1,0-0.1,0.1-0.2c0.1-0.1,0.3-0.1,0.4,0
			c0,0,0.1,0.1,0.1,0.2s0,0.1-0.1,0.2C14.6-65.5,14.6-65.5,14.5-65.5z"/>
		<path class="timeline-blue-text" d="M8.5-66.8c-0.1,0-0.1,0-0.2-0.1c0,0-0.1-0.1-0.1-0.2s0-0.1,0.1-0.2c0.1-0.1,0.3-0.1,0.4,0
			c0,0,0.1,0.1,0.1,0.2c0,0.1,0,0.1-0.1,0.2C8.6-66.8,8.6-66.8,8.5-66.8z"/>
		<path class="timeline-blue-text" d="M3.5-69.5c-0.1,0-0.1,0-0.2-0.1c0,0-0.1-0.1-0.1-0.2s0-0.1,0.1-0.2c0.1-0.1,0.2-0.1,0.4,0
			c0,0,0.1,0.1,0.1,0.2s0,0.1-0.1,0.2C3.6-69.5,3.6-69.5,3.5-69.5z"/>
		<path class="timeline-blue-text" d="M3.7-66c-0.1,0-0.1,0-0.2-0.1c0,0-0.1-0.1-0.1-0.2c0-0.1,0-0.1,0.1-0.2c0.1-0.1,0.3-0.1,0.4,0
			c0,0,0.1,0.1,0.1,0.2s0,0.1-0.1,0.2C3.9-66,3.8-66,3.7-66z"/>
		<path class="timeline-blue-text" d="M12.7-57.8c-0.1,0-0.1,0-0.2-0.1c0,0-0.1-0.1-0.1-0.2c0-0.1,0-0.1,0.1-0.2c0.1-0.1,0.3-0.1,0.4,0
			c0,0,0.1,0.1,0.1,0.2c0,0.1,0,0.1-0.1,0.2C12.9-57.8,12.8-57.8,12.7-57.8z"/>
		<path class="timeline-blue-text" d="M18.5-52.8c-0.1,0-0.1,0-0.2-0.1c0,0-0.1-0.1-0.1-0.2c0-0.1,0-0.1,0.1-0.2c0.1-0.1,0.3-0.1,0.4,0
			c0,0.1,0.1,0.1,0.1,0.2c0,0.1,0,0.1-0.1,0.2C18.6-52.8,18.6-52.8,18.5-52.8z"/>
		<path class="timeline-blue-text" d="M21.2-35c-0.1,0-0.1,0-0.2-0.1c0,0-0.1-0.1-0.1-0.2c0-0.1,0-0.1,0.1-0.2c0.1-0.1,0.3-0.1,0.4,0
			c0,0,0.1,0.1,0.1,0.2c0,0.1,0,0.1-0.1,0.2C21.4-35,21.3-35,21.2-35z"/>
		<path class="timeline-blue-text" d="M0.7-27.8c-0.1,0-0.1,0-0.2-0.1c0,0-0.1-0.1-0.1-0.2s0-0.1,0.1-0.2c0.1-0.1,0.2-0.1,0.4,0C1-28.1,1-28.1,1-28
			s0,0.1-0.1,0.2C0.9-27.8,0.8-27.8,0.7-27.8z"/>
		<path class="timeline-blue-text" d="M66.5-34.8c-0.1,0-0.1,0-0.2-0.1c0,0-0.1-0.1-0.1-0.2s0-0.1,0.1-0.2c0.1-0.1,0.2-0.1,0.4,0
			c0,0,0.1,0.1,0.1,0.2s0,0.1-0.1,0.2C66.6-34.8,66.6-34.8,66.5-34.8z"/>
		<path class="timeline-blue-text" d="M68-6c-0.1,0-0.1,0-0.2-0.1c0,0-0.1-0.1-0.1-0.2c0-0.1,0-0.1,0.1-0.2c0.1-0.1,0.3-0.1,0.4,0
			c0,0,0.1,0.1,0.1,0.2s0,0.1-0.1,0.2C68.1-6,68.1-6,68-6z"/>
		<path class="timeline-blue-text" d="M59.7-2.2c-0.1,0-0.1,0-0.2-0.1c0,0-0.1-0.1-0.1-0.2s0-0.1,0.1-0.2c0.1-0.1,0.2-0.1,0.4,0
			c0,0,0.1,0.1,0.1,0.2c0,0.1,0,0.1-0.1,0.2C59.9-2.3,59.8-2.2,59.7-2.2z"/>
		<path class="timeline-blue-text" d="M40.5-4c-0.1,0-0.1,0-0.2-0.1c0,0-0.1-0.1-0.1-0.2s0-0.1,0.1-0.2c0.1-0.1,0.2-0.1,0.4,0c0,0,0.1,0.1,0.1,0.2
			s0,0.1-0.1,0.2C40.6-4,40.6-4,40.5-4z"/>
		<path class="timeline-blue-text" d="M44-9c-0.1,0-0.1,0-0.2-0.1c0,0-0.1-0.1-0.1-0.2s0-0.1,0.1-0.2c0.1-0.1,0.2-0.1,0.4,0c0,0,0.1,0.1,0.1,0.2
			c0,0.1,0,0.1-0.1,0.2C44.1-9,44.1-9,44-9z"/>
		<path class="timeline-blue-text" d="M25.7-2c-0.1,0-0.1,0-0.2-0.1c0,0-0.1-0.1-0.1-0.2s0-0.1,0.1-0.2c0.1-0.1,0.2-0.1,0.4,0c0,0,0.1,0.1,0.1,0.2
			c0,0.1,0,0.1-0.1,0.2C25.9-2,25.8-2,25.7-2z"/>
		<path class="timeline-blue-text" d="M4.5-12c-0.1,0-0.1,0-0.2-0.1c0,0-0.1-0.1-0.1-0.2c0-0.1,0-0.1,0.1-0.2c0.1-0.1,0.3-0.1,0.4,0
			c0,0.1,0.1,0.1,0.1,0.2s0,0.1-0.1,0.2C4.6-12,4.6-12,4.5-12z"/>
		<path class="timeline-blue-text" d="M26.5-12.5c-0.1,0-0.1,0-0.2-0.1c0,0-0.1-0.1-0.1-0.2s0-0.1,0.1-0.2c0.1-0.1,0.2-0.1,0.4,0
			c0,0,0.1,0.1,0.1,0.2c0,0.1,0,0.1-0.1,0.2C26.6-12.5,26.6-12.5,26.5-12.5z"/>
		<path class="timeline-blue-text" d="M37.2-23.5c-0.1,0-0.1,0-0.2-0.1c0,0-0.1-0.1-0.1-0.2s0-0.1,0.1-0.2c0.1-0.1,0.2-0.1,0.3,0
			c0.1,0,0.1,0.1,0.1,0.2s0,0.1-0.1,0.2C37.4-23.5,37.3-23.5,37.2-23.5z"/>
		<path class="timeline-blue-text" d="M22-30.2c-0.1,0-0.1,0-0.2-0.1c0,0-0.1-0.1-0.1-0.2s0-0.1,0.1-0.2c0.1-0.1,0.2-0.1,0.4,0c0,0,0.1,0.1,0.1,0.2
			s0,0.1-0.1,0.2C22.1-30.3,22.1-30.2,22-30.2z"/>
		<path class="timeline-blue-text" d="M8.7-31.8c-0.1,0-0.1,0-0.2-0.1c0,0-0.1-0.1-0.1-0.2c0-0.1,0-0.1,0.1-0.2c0.1-0.1,0.2-0.1,0.4,0
			C9-32.1,9-32.1,9-32c0,0.1,0,0.1-0.1,0.2C8.9-31.8,8.8-31.8,8.7-31.8z"/>
		<path class="timeline-blue-text" d="M24-43c-0.1,0-0.1,0-0.2-0.1c0,0-0.1-0.1-0.1-0.2s0-0.1,0.1-0.2c0.1-0.1,0.2-0.1,0.4,0c0,0,0.1,0.1,0.1,0.2
			s0,0.1-0.1,0.2C24.1-43,24.1-43,24-43z"/>
		<path class="timeline-blue-text" d="M41.5-37.5c-0.1,0-0.1,0-0.2-0.1c0,0-0.1-0.1-0.1-0.2s0-0.1,0.1-0.2c0.1-0.1,0.2-0.1,0.3,0
			c0.1,0.1,0.1,0.1,0.1,0.2s0,0.1-0.1,0.2C41.6-37.5,41.6-37.5,41.5-37.5z"/>
		<path class="timeline-blue-text" d="M51.5-34.5c-0.1,0-0.1,0-0.2-0.1c0,0-0.1-0.1-0.1-0.2s0-0.1,0.1-0.2c0.1-0.1,0.2-0.1,0.4,0
			c0,0,0.1,0.1,0.1,0.2s0,0.1-0.1,0.2C51.6-34.5,51.6-34.5,51.5-34.5z"/>
		<path class="timeline-blue-text" d="M60.7-26c-0.1,0-0.1,0-0.2-0.1c0,0-0.1-0.1-0.1-0.2s0-0.1,0.1-0.2c0.1-0.1,0.2-0.1,0.4,0c0,0,0.1,0.1,0.1,0.2
			s0,0.1-0.1,0.2C60.9-26,60.8-26,60.7-26z"/>
		<path class="timeline-blue-text" d="M67.5-28.2c-0.1,0-0.1,0-0.2-0.1c0,0-0.1-0.1-0.1-0.2s0-0.1,0.1-0.2c0.1-0.1,0.2-0.1,0.4,0
			c0,0,0.1,0.1,0.1,0.2s0,0.1-0.1,0.2C67.6-28.3,67.6-28.2,67.5-28.2z"/>
		<path class="timeline-blue-text" d="M51.2-5.8c-0.1,0-0.1,0-0.2-0.1C51-5.9,51-5.9,51-6s0-0.1,0.1-0.2c0.1-0.1,0.2-0.1,0.4,0c0,0,0.1,0.1,0.1,0.2
			s0,0.1-0.1,0.2C51.4-5.8,51.3-5.8,51.2-5.8z"/>
		<path class="timeline-blue-text" d="M40-34.2c-0.1,0-0.1,0-0.2-0.1c0,0-0.1-0.1-0.1-0.2s0-0.1,0.1-0.2c0.1-0.1,0.3-0.1,0.4,0c0,0,0.1,0.1,0.1,0.2
			s0,0.1-0.1,0.2C40.1-34.3,40.1-34.2,40-34.2z"/>
		<path class="timeline-blue-text" d="M53.2-57c-0.1,0-0.1,0-0.2-0.1c0,0-0.1-0.1-0.1-0.2s0-0.1,0.1-0.2c0.1-0.1,0.3-0.1,0.4,0c0,0,0.1,0.1,0.1,0.2
			s0,0.1-0.1,0.2C53.4-57,53.3-57,53.2-57z"/>
		<path class="timeline-blue-text" d="M34-56c-0.1,0-0.1,0-0.2-0.1c0,0-0.1-0.1-0.1-0.2s0-0.1,0.1-0.2c0.1-0.1,0.3-0.1,0.4,0c0,0,0.1,0.1,0.1,0.2
			c0,0.1,0,0.1-0.1,0.2C34.1-56,34.1-56,34-56z"/>
		<path class="timeline-blue-text" d="M27.5-58.5c-0.1,0-0.1,0-0.2-0.1c0,0-0.1-0.1-0.1-0.2s0-0.1,0.1-0.2c0.1-0.1,0.3-0.1,0.4,0
			c0,0,0.1,0.1,0.1,0.2c0,0.1,0,0.1-0.1,0.2C27.6-58.5,27.6-58.5,27.5-58.5z"/>
		<path class="timeline-blue-text" d="M12.7-52.8c-0.1,0-0.1,0-0.2-0.1c0,0-0.1-0.1-0.1-0.2c0-0.1,0-0.1,0.1-0.2c0.1-0.1,0.3-0.1,0.4,0
			c0,0,0.1,0.1,0.1,0.2c0,0.1,0,0.1-0.1,0.2C12.9-52.8,12.8-52.8,12.7-52.8z"/>
		<path class="timeline-blue-text" d="M19.7-45.5c-0.1,0-0.1,0-0.2-0.1c0,0-0.1-0.1-0.1-0.2c0-0.1,0-0.1,0.1-0.2c0.1-0.1,0.3-0.1,0.4,0
			c0,0,0.1,0.1,0.1,0.2c0,0.1,0,0.1-0.1,0.2C19.9-45.5,19.8-45.5,19.7-45.5z"/>
		<path class="timeline-blue-text" d="M49.5-67.5c-0.1,0-0.1,0-0.2-0.1c0,0-0.1-0.1-0.1-0.2s0-0.1,0.1-0.2c0.1-0.1,0.2-0.1,0.4,0
			c0,0,0.1,0.1,0.1,0.2s0,0.1-0.1,0.2C49.6-67.5,49.6-67.5,49.5-67.5z"/>
		<path class="timeline-blue-text" d="M11.7-70.2c-0.1,0-0.1,0-0.2-0.1c0,0-0.1-0.1-0.1-0.2c0-0.1,0-0.1,0.1-0.2c0.1-0.1,0.3-0.1,0.4,0
			c0,0,0.1,0.1,0.1,0.2s0,0.1-0.1,0.2C11.9-70.3,11.8-70.2,11.7-70.2z"/>
		<path class="timeline-blue-text" d="M55.2-68.2c-0.1,0-0.1,0-0.2-0.1c0,0-0.1-0.1-0.1-0.2s0-0.1,0.1-0.2c0.1-0.1,0.2-0.1,0.4,0
			c0,0,0.1,0.1,0.1,0.2s0,0.1-0.1,0.2C55.4-68.3,55.3-68.2,55.2-68.2z"/>
		<path class="timeline-blue-text" d="M59-51.2c-0.1,0-0.1,0-0.2-0.1c0,0-0.1-0.1-0.1-0.2s0-0.1,0.1-0.2c0.1-0.1,0.2-0.1,0.4,0
			c0,0.1,0.1,0.1,0.1,0.2s0,0.1-0.1,0.2C59.1-51.3,59.1-51.2,59-51.2z"/>
		<path class="timeline-blue-text" d="M67.5-14.8c-0.1,0-0.1,0-0.2-0.1c0,0-0.1-0.1-0.1-0.2c0-0.1,0-0.1,0.1-0.2c0.1-0.1,0.2-0.1,0.4,0
			c0,0,0.1,0.1,0.1,0.2s0,0.1-0.1,0.2C67.6-14.8,67.6-14.8,67.5-14.8z"/>
		<path class="timeline-blue-text" d="M47.2-2.2c-0.1,0-0.1,0-0.2-0.1c0,0-0.1-0.1-0.1-0.2s0-0.1,0.1-0.2c0.1-0.1,0.2-0.1,0.4,0
			c0,0,0.1,0.1,0.1,0.2s0,0.1-0.1,0.2C47.4-2.3,47.3-2.2,47.2-2.2z"/>
		<path class="timeline-blue-text" d="M5.2-2.2c-0.1,0-0.1,0-0.2-0.1C5-2.4,5-2.4,5-2.5c0-0.1,0-0.1,0.1-0.2c0.1-0.1,0.3-0.1,0.4,0
			c0,0,0.1,0.1,0.1,0.2c0,0.1,0,0.1-0.1,0.2C5.4-2.3,5.3-2.2,5.2-2.2z"/>
		<path class="timeline-blue-text" d="M4.7-31.8c-0.1,0-0.1,0-0.2-0.1c0,0-0.1-0.1-0.1-0.2c0-0.1,0-0.1,0.1-0.2c0.1-0.1,0.3-0.1,0.4,0
			C5-32.1,5-32.1,5-32c0,0.1,0,0.1-0.1,0.2C4.9-31.8,4.8-31.8,4.7-31.8z"/>
		<path class="timeline-blue-text" d="M69.7-59.2c-0.1,0-0.1,0-0.2-0.1c0,0-0.1-0.1-0.1-0.2s0-0.1,0.1-0.2c0.1-0.1,0.2-0.1,0.4,0
			c0,0,0.1,0.1,0.1,0.2s0,0.1-0.1,0.2C69.9-59.3,69.8-59.2,69.7-59.2z"/>
		<path class="timeline-blue-text" d="M23.2-58c-0.1,0-0.1,0-0.2-0.1c0,0-0.1-0.1-0.1-0.2s0-0.1,0.1-0.2c0.1-0.1,0.3-0.1,0.4,0
			c0,0.1,0.1,0.1,0.1,0.2s0,0.1-0.1,0.2C23.4-58,23.3-58,23.2-58z"/>
		<path class="timeline-blue-text" d="M20.5-54.8c-0.1,0-0.1,0-0.2-0.1c0,0-0.1-0.1-0.1-0.2s0-0.1,0.1-0.2c0.1-0.1,0.3-0.1,0.4,0
			c0,0,0.1,0.1,0.1,0.2s0,0.1-0.1,0.2C20.6-54.8,20.6-54.8,20.5-54.8z"/>
		<path class="timeline-blue-text" d="M14.7-54.8c-0.1,0-0.1,0-0.2-0.1c0,0-0.1-0.1-0.1-0.2c0-0.1,0-0.1,0.1-0.2c0.1-0.1,0.3-0.1,0.4,0
			c0,0,0.1,0.1,0.1,0.2s0,0.1-0.1,0.2C14.9-54.8,14.8-54.8,14.7-54.8z"/>
		<path class="timeline-blue-text" d="M2.7-58.8c-0.1,0-0.1,0-0.2-0.1c0,0-0.1-0.1-0.1-0.2c0-0.1,0-0.1,0.1-0.2c0.1-0.1,0.2-0.1,0.4,0
			C3-59.1,3-59.1,3-59s0,0.1-0.1,0.2C2.9-58.8,2.8-58.8,2.7-58.8z"/>
		<path class="timeline-blue-text" d="M6-60.2c-0.1,0-0.1,0-0.2-0.1c0,0-0.1-0.1-0.1-0.2c0-0.1,0-0.1,0.1-0.2c0.1-0.1,0.3-0.1,0.4,0
			c0,0,0.1,0.1,0.1,0.2c0,0.1,0,0.1-0.1,0.2C6.1-60.3,6.1-60.2,6-60.2z"/>
		<path class="timeline-blue-text" d="M7-69.2c-0.1,0-0.1,0-0.2-0.1c0,0-0.1-0.1-0.1-0.2c0-0.1,0-0.1,0.1-0.2c0.1-0.1,0.3-0.1,0.4,0
			c0,0,0.1,0.1,0.1,0.2s0,0.1-0.1,0.2C7.1-69.3,7.1-69.2,7-69.2z"/>
		<path class="timeline-blue-text" d="M10-63.8c-0.1,0-0.1,0-0.2-0.1c0,0-0.1-0.1-0.1-0.2c0-0.1,0-0.1,0.1-0.2c0.1-0.1,0.3-0.1,0.4,0
			c0,0,0.1,0.1,0.1,0.2c0,0.1,0,0.1-0.1,0.2C10.1-63.8,10.1-63.8,10-63.8z"/>
		<path class="timeline-blue-text" d="M16-63.8c-0.1,0-0.1,0-0.2-0.1c0,0-0.1-0.1-0.1-0.2c0-0.1,0-0.1,0.1-0.2c0.1-0.1,0.3-0.1,0.4,0
			c0,0,0.1,0.1,0.1,0.2s0,0.1-0.1,0.2C16.1-63.8,16.1-63.8,16-63.8z"/>
		<path class="timeline-blue-text" d="M16.5-68.8c-0.1,0-0.1,0-0.2-0.1c0,0-0.1-0.1-0.1-0.2s0-0.1,0.1-0.2c0.1-0.1,0.3-0.1,0.4,0
			c0,0,0.1,0.1,0.1,0.2s0,0.1-0.1,0.2C16.6-68.8,16.6-68.8,16.5-68.8z"/>
		<path class="timeline-blue-text" d="M25.7-65c-0.1,0-0.1,0-0.2-0.1c0,0-0.1-0.1-0.1-0.2s0-0.1,0.1-0.2c0.1-0.1,0.2-0.1,0.4,0c0,0,0.1,0.1,0.1,0.2
			s0,0.1-0.1,0.2C25.9-65,25.8-65,25.7-65z"/>
		<path class="timeline-blue-text" d="M37-64.5c-0.1,0-0.1,0-0.2-0.1c0,0-0.1-0.1-0.1-0.2s0-0.1,0.1-0.2c0.1-0.1,0.3-0.1,0.4,0c0,0,0.1,0.1,0.1,0.2
			s0,0.1-0.1,0.2C37.1-64.5,37.1-64.5,37-64.5z"/>
		<path class="timeline-blue-text" d="M40.5-67.5c-0.1,0-0.1,0-0.2-0.1c0,0-0.1-0.1-0.1-0.2s0-0.1,0.1-0.2c0.1-0.1,0.2-0.1,0.4,0
			c0,0.1,0.1,0.1,0.1,0.2c0,0.1,0,0.1-0.1,0.2C40.6-67.5,40.6-67.5,40.5-67.5z"/>
		<path class="timeline-blue-text" d="M37.5-67.8c-0.1,0-0.1,0-0.2-0.1c0,0-0.1-0.1-0.1-0.2s0-0.1,0.1-0.2c0.1-0.1,0.2-0.1,0.4,0
			c0,0.1,0.1,0.1,0.1,0.2s0,0.1-0.1,0.2C37.6-67.8,37.6-67.8,37.5-67.8z"/>
		<path class="timeline-blue-text" d="M43.2-69.8c-0.1,0-0.1,0-0.2-0.1c0,0-0.1-0.1-0.1-0.2s0-0.1,0.1-0.2c0.1-0.1,0.2-0.1,0.4,0
			c0,0,0.1,0.1,0.1,0.2s0,0.1-0.1,0.2C43.4-69.8,43.3-69.8,43.2-69.8z"/>
		<path class="timeline-blue-text" d="M49.5-63.8c-0.1,0-0.1,0-0.2-0.1c0,0-0.1-0.1-0.1-0.2c0-0.1,0-0.1,0.1-0.2c0.1-0.1,0.2-0.1,0.4,0
			c0,0,0.1,0.1,0.1,0.2s0,0.1-0.1,0.2C49.6-63.8,49.6-63.8,49.5-63.8z"/>
		<path class="timeline-blue-text" d="M46-62.8c-0.1,0-0.1,0-0.2-0.1c0,0-0.1-0.1-0.1-0.2s0-0.1,0.1-0.2c0.1-0.1,0.2-0.1,0.4,0c0,0,0.1,0.1,0.1,0.2
			s0,0.1-0.1,0.2C46.1-62.8,46.1-62.8,46-62.8z"/>
		<path class="timeline-blue-text" d="M35.7-61c-0.1,0-0.1,0-0.2-0.1c0,0-0.1-0.1-0.1-0.2s0-0.1,0.1-0.2c0.1-0.1,0.2-0.1,0.4,0c0,0,0.1,0.1,0.1,0.2
			s0,0.1-0.1,0.2C35.9-61,35.8-61,35.7-61z"/>
		<path class="timeline-blue-text" d="M39.2-57c-0.1,0-0.1,0-0.2-0.1c0,0-0.1-0.1-0.1-0.2s0-0.1,0.1-0.2c0.1-0.1,0.2-0.1,0.4,0
			c0,0.1,0.1,0.1,0.1,0.2s0,0.1-0.1,0.2C39.4-57,39.3-57,39.2-57z"/>
		<path class="timeline-blue-text" d="M24.7-54c-0.1,0-0.1,0-0.2-0.1c0,0-0.1-0.1-0.1-0.2s0-0.1,0.1-0.2c0.1-0.1,0.3-0.1,0.4,0c0,0,0.1,0.1,0.1,0.2
			s0,0.1-0.1,0.2C24.9-54,24.8-54,24.7-54z"/>
		<path class="timeline-blue-text" d="M8.2-44.8c-0.1,0-0.1,0-0.2-0.1C8-44.9,8-44.9,8-45s0-0.1,0.1-0.2c0.1-0.1,0.3-0.1,0.4,0c0,0,0.1,0.1,0.1,0.2
			c0,0.1,0,0.1-0.1,0.2C8.4-44.8,8.3-44.8,8.2-44.8z"/>
		<path class="timeline-blue-text" d="M16-40.2c-0.1,0-0.1,0-0.2-0.1c0,0-0.1-0.1-0.1-0.2s0-0.1,0.1-0.2c0.1-0.1,0.3-0.1,0.4,0c0,0,0.1,0.1,0.1,0.2
			s0,0.1-0.1,0.2C16.1-40.3,16.1-40.2,16-40.2z"/>
		<path class="timeline-blue-text" d="M10.5-38.5c-0.1,0-0.1,0-0.2-0.1c0,0-0.1-0.1-0.1-0.2c0-0.1,0-0.1,0.1-0.2c0.1-0.1,0.3-0.1,0.4,0
			c0,0,0.1,0.1,0.1,0.2s0,0.1-0.1,0.2C10.6-38.5,10.6-38.5,10.5-38.5z"/>
		<path class="timeline-blue-text" d="M5.2-35c-0.1,0-0.1,0-0.2-0.1c0,0-0.1-0.1-0.1-0.2c0-0.1,0-0.1,0.1-0.2c0.1-0.1,0.3-0.1,0.4,0
			c0,0,0.1,0.1,0.1,0.2c0,0.1,0,0.1-0.1,0.2C5.4-35,5.3-35,5.2-35z"/>
		<path class="timeline-blue-text" d="M2.7-40c-0.1,0-0.1,0-0.2-0.1c0,0-0.1-0.1-0.1-0.2c0-0.1,0-0.1,0.1-0.2c0.1-0.1,0.2-0.1,0.4,0
			c0,0,0.1,0.1,0.1,0.2s0,0.1-0.1,0.2C2.9-40,2.8-40,2.7-40z"/>
		<path class="timeline-blue-text" d="M7.5-47c-0.1,0-0.1,0-0.2-0.1c0,0-0.1-0.1-0.1-0.2s0-0.1,0.1-0.2c0.1-0.1,0.2-0.1,0.3,0
			c0.1,0,0.1,0.1,0.1,0.2s0,0.1-0.1,0.2C7.6-47,7.6-47,7.5-47z"/>
		<path class="timeline-blue-text" d="M3.2-51.5c-0.1,0-0.1,0-0.2-0.1c0,0-0.1-0.1-0.1-0.2c0-0.1,0-0.1,0.1-0.2c0.1-0.1,0.3-0.1,0.4,0
			c0,0,0.1,0.1,0.1,0.2c0,0.1,0,0.1-0.1,0.2C3.4-51.5,3.3-51.5,3.2-51.5z"/>
		<path class="timeline-blue-text" d="M20.5-41.2c-0.1,0-0.1,0-0.2-0.1c0,0-0.1-0.1-0.1-0.2s0-0.1,0.1-0.2c0.1-0.1,0.2-0.1,0.4,0
			c0,0.1,0.1,0.1,0.1,0.2s0,0.1-0.1,0.2C20.6-41.3,20.6-41.2,20.5-41.2z"/>
		<path class="timeline-blue-text" d="M17.5-36.5c-0.1,0-0.1,0-0.2-0.1c0-0.1-0.1-0.1-0.1-0.2c0-0.1,0-0.1,0.1-0.2c0.1-0.1,0.3-0.1,0.4,0
			c0,0,0.1,0.1,0.1,0.2c0,0.1,0,0.1-0.1,0.2C17.6-36.5,17.6-36.5,17.5-36.5z"/>
		<path class="timeline-blue-text" d="M16-33c-0.1,0-0.1,0-0.2-0.1c0,0-0.1-0.1-0.1-0.2s0-0.1,0.1-0.2c0.1-0.1,0.3-0.1,0.4,0c0,0,0.1,0.1,0.1,0.2
			s0,0.1-0.1,0.2C16.1-33,16.1-33,16-33z"/>
		<path class="timeline-blue-text" d="M12.7-30.8c-0.1,0-0.1,0-0.2-0.1c0,0-0.1-0.1-0.1-0.2c0-0.1,0-0.1,0.1-0.2c0.1-0.1,0.3-0.1,0.4,0
			c0,0,0.1,0.1,0.1,0.2s0,0.1-0.1,0.2C12.9-30.8,12.8-30.8,12.7-30.8z"/>
		<path class="timeline-blue-text" d="M12.7-25.5c-0.1,0-0.1,0-0.2-0.1c0,0-0.1-0.1-0.1-0.2c0-0.1,0-0.1,0.1-0.2c0.1-0.1,0.3-0.1,0.4,0
			c0,0,0.1,0.1,0.1,0.2s0,0.1-0.1,0.2C12.9-25.5,12.8-25.5,12.7-25.5z"/>
		<path class="timeline-blue-text" d="M4-25.2c-0.1,0-0.1,0-0.2-0.1c0,0-0.1-0.1-0.1-0.2c0-0.1,0-0.1,0.1-0.2c0.1-0.1,0.3-0.1,0.3,0
			c0.1,0,0.1,0.1,0.1,0.2c0,0.1,0,0.1-0.1,0.2C4.1-25.3,4.1-25.2,4-25.2z"/>
		<path class="timeline-blue-text" d="M5.7-23.5c-0.1,0-0.1,0-0.2-0.1c0,0-0.1-0.1-0.1-0.2s0-0.1,0.1-0.2c0.1-0.1,0.3-0.1,0.4,0
			c0,0,0.1,0.1,0.1,0.2s0,0.1-0.1,0.2C5.9-23.5,5.8-23.5,5.7-23.5z"/>
		<path class="timeline-blue-text" d="M11-21.5c-0.1,0-0.1,0-0.2-0.1c0,0-0.1-0.1-0.1-0.2c0-0.1,0-0.1,0.1-0.2c0.1-0.1,0.3-0.1,0.4,0
			c0,0.1,0.1,0.1,0.1,0.2s0,0.1-0.1,0.2C11.1-21.5,11.1-21.5,11-21.5z"/>
		<path class="timeline-blue-text" d="M11-17.5c-0.1,0-0.1,0-0.2-0.1c0,0-0.1-0.1-0.1-0.2s0-0.1,0.1-0.2c0.1-0.1,0.3-0.1,0.4,0c0,0,0.1,0.1,0.1,0.2
			s0,0.1-0.1,0.2C11.1-17.5,11.1-17.5,11-17.5z"/>
		<path class="timeline-blue-text" d="M15.5-13.5c-0.1,0-0.1,0-0.2-0.1c0,0-0.1-0.1-0.1-0.2s0-0.1,0.1-0.2c0.1-0.1,0.3-0.1,0.4,0
			c0,0,0.1,0.1,0.1,0.2s0,0.1-0.1,0.2C15.6-13.5,15.6-13.5,15.5-13.5z"/>
		<path class="timeline-blue-text" d="M10-12.2c-0.1,0-0.1,0-0.2-0.1c0,0-0.1-0.1-0.1-0.2c0-0.1,0-0.1,0.1-0.2c0.1-0.1,0.3-0.1,0.4,0
			c0,0,0.1,0.1,0.1,0.2c0,0.1,0,0.1-0.1,0.2C10.1-12.3,10.1-12.2,10-12.2z"/>
		<path class="timeline-blue-text" d="M6-8.5c-0.1,0-0.1,0-0.2-0.1c0,0-0.1-0.1-0.1-0.2c0-0.1,0-0.1,0.1-0.2C5.9-9,6.1-9,6.2-8.9
			c0,0,0.1,0.1,0.1,0.2c0,0.1,0,0.1-0.1,0.2C6.1-8.5,6.1-8.5,6-8.5z"/>
		<path class="timeline-blue-text" d="M2.2-10c-0.1,0-0.1,0-0.2-0.1c0,0-0.1-0.1-0.1-0.2s0-0.1,0.1-0.2c0.1-0.1,0.2-0.1,0.3,0
			c0.1,0,0.1,0.1,0.1,0.2s0,0.1-0.1,0.2C2.4-10,2.3-10,2.2-10z"/>
		<path class="timeline-blue-text" d="M7.2-4.2c-0.1,0-0.1,0-0.2-0.1C7-4.4,7-4.4,7-4.5c0-0.1,0-0.1,0.1-0.2c0.1-0.1,0.3-0.1,0.4,0
			c0,0,0.1,0.1,0.1,0.2s0,0.1-0.1,0.2C7.4-4.3,7.3-4.2,7.2-4.2z"/>
		<path class="timeline-blue-text" d="M13.5-2.5c-0.1,0-0.1,0-0.2-0.1c0,0-0.1-0.1-0.1-0.2c0-0.1,0-0.1,0.1-0.2c0.1-0.1,0.3-0.1,0.4,0
			c0,0,0.1,0.1,0.1,0.2s0,0.1-0.1,0.2C13.6-2.5,13.6-2.5,13.5-2.5z"/>
		<path class="timeline-blue-text" d="M13.5-6.2c-0.1,0-0.1,0-0.2-0.1c0,0-0.1-0.1-0.1-0.2c0-0.1,0-0.1,0.1-0.2c0.1-0.1,0.3-0.1,0.4,0
			c0,0.1,0.1,0.1,0.1,0.2s0,0.1-0.1,0.2C13.6-6.3,13.6-6.2,13.5-6.2z"/>
		<path class="timeline-blue-text" d="M21.5-3.5c-0.1,0-0.1,0-0.2-0.1c0,0-0.1-0.1-0.1-0.2s0-0.1,0.1-0.2c0.1-0.1,0.2-0.1,0.4,0
			c0,0,0.1,0.1,0.1,0.2s0,0.1-0.1,0.2C21.6-3.5,21.6-3.5,21.5-3.5z"/>
		<path class="timeline-blue-text" d="M23-6.2c-0.1,0-0.1,0-0.2-0.1c0,0-0.1-0.1-0.1-0.2c0-0.1,0-0.1,0.1-0.2c0.1-0.1,0.3-0.1,0.4,0
			c0,0,0.1,0.1,0.1,0.2c0,0.1,0,0.1-0.1,0.2C23.1-6.3,23.1-6.2,23-6.2z"/>
		<path class="timeline-blue-text" d="M22.2-12c-0.1,0-0.1,0-0.2-0.1c0,0-0.1-0.1-0.1-0.2c0-0.1,0-0.1,0.1-0.2c0.1-0.1,0.3-0.1,0.4,0
			c0,0,0.1,0.1,0.1,0.2c0,0.1,0,0.1-0.1,0.2C22.4-12,22.3-12,22.2-12z"/>
		<path class="timeline-blue-text" d="M24.2-14.5c-0.1,0-0.1,0-0.2-0.1c0,0-0.1-0.1-0.1-0.2s0-0.1,0.1-0.2c0.1-0.1,0.2-0.1,0.4,0
			c0,0,0.1,0.1,0.1,0.2s0,0.1-0.1,0.2C24.4-14.5,24.3-14.5,24.2-14.5z"/>
		<path class="timeline-blue-text" d="M22-18.8c-0.1,0-0.1,0-0.2-0.1c0,0-0.1-0.1-0.1-0.2s0-0.1,0.1-0.2c0.1-0.1,0.3-0.1,0.4,0
			c0,0.1,0.1,0.1,0.1,0.2s0,0.1-0.1,0.2C22.1-18.8,22.1-18.8,22-18.8z"/>
		<path class="timeline-blue-text" d="M26.2-24.2c-0.1,0-0.1,0-0.2-0.1c0,0-0.1-0.1-0.1-0.2s0-0.1,0.1-0.2c0.1-0.1,0.2-0.1,0.4,0
			c0,0,0.1,0.1,0.1,0.2s0,0.1-0.1,0.2C26.4-24.3,26.3-24.2,26.2-24.2z"/>
		<path class="timeline-blue-text" d="M25.7-28.5c-0.1,0-0.1,0-0.2-0.1c0,0-0.1-0.1-0.1-0.2s0-0.1,0.1-0.2c0.1-0.1,0.3-0.1,0.4,0
			c0,0.1,0.1,0.1,0.1,0.2c0,0.1,0,0.1-0.1,0.2C25.9-28.5,25.8-28.5,25.7-28.5z"/>
		<path class="timeline-blue-text" d="M31.2-34.5c-0.1,0-0.1,0-0.2-0.1c0,0-0.1-0.1-0.1-0.2s0-0.1,0.1-0.2c0.1-0.1,0.3-0.1,0.4,0
			c0,0.1,0.1,0.1,0.1,0.2s0,0.1-0.1,0.2C31.4-34.5,31.3-34.5,31.2-34.5z"/>
		<path class="timeline-blue-text" d="M32.2-41c-0.1,0-0.1,0-0.2-0.1c0,0-0.1-0.1-0.1-0.2c0-0.1,0-0.1,0.1-0.2c0.1-0.1,0.3-0.1,0.4,0
			c0,0,0.1,0.1,0.1,0.2c0,0.1,0,0.1-0.1,0.2C32.4-41,32.3-41,32.2-41z"/>
		<path class="timeline-blue-text" d="M26-38c-0.1,0-0.1,0-0.2-0.1c0,0-0.1-0.1-0.1-0.2s0-0.1,0.1-0.2c0.1-0.1,0.2-0.1,0.4,0c0,0,0.1,0.1,0.1,0.2
			s0,0.1-0.1,0.2C26.1-38,26.1-38,26-38z"/>
		<path class="timeline-blue-text" d="M34.2-44.2c-0.1,0-0.1,0-0.2-0.1c0,0-0.1-0.1-0.1-0.2s0-0.1,0.1-0.2c0.1-0.1,0.2-0.1,0.4,0
			c0,0.1,0.1,0.1,0.1,0.2s0,0.1-0.1,0.2C34.4-44.3,34.3-44.2,34.2-44.2z"/>
		<path class="timeline-blue-text" d="M37.2-43.5c-0.1,0-0.1,0-0.2-0.1c0,0-0.1-0.1-0.1-0.2s0-0.1,0.1-0.2c0.1-0.1,0.2-0.1,0.3,0
			c0.1,0,0.1,0.1,0.1,0.2s0,0.1-0.1,0.2C37.4-43.5,37.3-43.5,37.2-43.5z"/>
		<path class="timeline-blue-text" d="M41.7-46.2c-0.1,0-0.1,0-0.2-0.1c0,0-0.1-0.1-0.1-0.2s0-0.1,0.1-0.2c0.1-0.1,0.3-0.1,0.4,0
			c0,0.1,0.1,0.1,0.1,0.2s0,0.1-0.1,0.2C41.9-46.3,41.8-46.2,41.7-46.2z"/>
		<path class="timeline-blue-text" d="M43-51.2c-0.1,0-0.1,0-0.2-0.1c0,0-0.1-0.1-0.1-0.2s0-0.1,0.1-0.2c0.1-0.1,0.2-0.1,0.4,0c0,0,0.1,0.1,0.1,0.2
			s0,0.1-0.1,0.2C43.1-51.3,43.1-51.2,43-51.2z"/>
		<path class="timeline-blue-text" d="M36.5-52.8c-0.1,0-0.1,0-0.2-0.1c0,0-0.1-0.1-0.1-0.2s0-0.1,0.1-0.2c0.1-0.1,0.2-0.1,0.4,0
			c0,0,0.1,0.1,0.1,0.2s0,0.1-0.1,0.2C36.6-52.8,36.6-52.8,36.5-52.8z"/>
		<path class="timeline-blue-text" d="M27.7-49.8c-0.1,0-0.1,0-0.2-0.1c0,0-0.1-0.1-0.1-0.2s0-0.1,0.1-0.2c0.1-0.1,0.3-0.1,0.4,0
			c0,0,0.1,0.1,0.1,0.2s0,0.1-0.1,0.2C27.9-49.8,27.8-49.8,27.7-49.8z"/>
		<path class="timeline-blue-text" d="M52-50c-0.1,0-0.1,0-0.2-0.1c0,0-0.1-0.1-0.1-0.2s0-0.1,0.1-0.2c0.1-0.1,0.2-0.1,0.4,0c0,0.1,0.1,0.1,0.1,0.2
			s0,0.1-0.1,0.2C52.1-50,52.1-50,52-50z"/>
		<path class="timeline-blue-text" d="M43.2-54.2c-0.1,0-0.1,0-0.2-0.1c0,0-0.1-0.1-0.1-0.2c0-0.1,0-0.1,0.1-0.2c0.1-0.1,0.3-0.1,0.4,0
			c0,0.1,0.1,0.1,0.1,0.2s0,0.1-0.1,0.2C43.4-54.3,43.3-54.2,43.2-54.2z"/>
		<path class="timeline-blue-text" d="M50.5-54c-0.1,0-0.1,0-0.2-0.1c0,0-0.1-0.1-0.1-0.2s0-0.1,0.1-0.2c0.1-0.1,0.2-0.1,0.4,0
			c0,0.1,0.1,0.1,0.1,0.2s0,0.1-0.1,0.2C50.6-54,50.6-54,50.5-54z"/>
		<path class="timeline-blue-text" d="M59.5-54.8c-0.1,0-0.1,0-0.2-0.1c0,0-0.1-0.1-0.1-0.2s0-0.1,0.1-0.2c0.1-0.1,0.2-0.1,0.4,0
			c0,0,0.1,0.1,0.1,0.2s0,0.1-0.1,0.2C59.6-54.8,59.6-54.8,59.5-54.8z"/>
		<path class="timeline-blue-text" d="M58.2-58c-0.1,0-0.1,0-0.2-0.1c0,0-0.1-0.1-0.1-0.2s0-0.1,0.1-0.2c0.1-0.1,0.3-0.1,0.4,0c0,0,0.1,0.1,0.1,0.2
			c0,0.1,0,0.1-0.1,0.2C58.4-58,58.3-58,58.2-58z"/>
		<path class="timeline-blue-text" d="M61.5-61c-0.1,0-0.1,0-0.2-0.1c0,0-0.1-0.1-0.1-0.2s0-0.1,0.1-0.2c0.1-0.1,0.2-0.1,0.4,0c0,0,0.1,0.1,0.1,0.2
			s0,0.1-0.1,0.2C61.6-61,61.6-61,61.5-61z"/>
		<path class="timeline-blue-text" d="M58.7-64.5c-0.1,0-0.1,0-0.2-0.1c0,0-0.1-0.1-0.1-0.2s0-0.1,0.1-0.2c0.1-0.1,0.2-0.1,0.4,0
			c0,0,0.1,0.1,0.1,0.2s0,0.1-0.1,0.2C58.9-64.5,58.8-64.5,58.7-64.5z"/>
		<path class="timeline-blue-text" d="M60-67.2c-0.1,0-0.1,0-0.2-0.1c0,0-0.1-0.1-0.1-0.2s0-0.1,0.1-0.2c0.1-0.1,0.3-0.1,0.4,0c0,0,0.1,0.1,0.1,0.2
			s0,0.1-0.1,0.2C60.1-67.3,60.1-67.2,60-67.2z"/>
		<path class="timeline-blue-text" d="M67.5-66c-0.1,0-0.1,0-0.2-0.1c0,0-0.1-0.1-0.1-0.2s0-0.1,0.1-0.2c0.1-0.1,0.3-0.1,0.4,0
			c0,0.1,0.1,0.1,0.1,0.2s0,0.1-0.1,0.2C67.6-66,67.6-66,67.5-66z"/>
		<path class="timeline-blue-text" d="M69.5-64c-0.1,0-0.1,0-0.2-0.1c0,0-0.1-0.1-0.1-0.2c0-0.1,0-0.1,0.1-0.2c0.1-0.1,0.3-0.1,0.4,0
			c0,0,0.1,0.1,0.1,0.2c0,0.1,0,0.1-0.1,0.2C69.6-64,69.6-64,69.5-64z"/>
		<path class="timeline-blue-text" d="M65.7-62.2c-0.1,0-0.1,0-0.2-0.1c0,0-0.1-0.1-0.1-0.2s0-0.1,0.1-0.2c0.1-0.1,0.3-0.1,0.4,0
			c0,0,0.1,0.1,0.1,0.2s0,0.1-0.1,0.2C65.9-62.3,65.8-62.2,65.7-62.2z"/>
		<path class="timeline-blue-text" d="M61.7-55.5c-0.1,0-0.1,0-0.2-0.1c0,0-0.1-0.1-0.1-0.2s0-0.1,0.1-0.2c0.1-0.1,0.2-0.1,0.4,0
			c0,0,0.1,0.1,0.1,0.2s0,0.1-0.1,0.2C61.9-55.5,61.8-55.5,61.7-55.5z"/>
		<path class="timeline-blue-text" d="M60.2-48.2c-0.1,0-0.1,0-0.2-0.1c0,0-0.1-0.1-0.1-0.2s0-0.1,0.1-0.2c0.1-0.1,0.2-0.1,0.4,0
			c0,0,0.1,0.1,0.1,0.2s0,0.1-0.1,0.2C60.4-48.3,60.3-48.2,60.2-48.2z"/>
		<path class="timeline-blue-text" d="M55.5-48.2c-0.1,0-0.1,0-0.2-0.1c0,0-0.1-0.1-0.1-0.2s0-0.1,0.1-0.2c0.1-0.1,0.2-0.1,0.4,0
			c0,0,0.1,0.1,0.1,0.2s0,0.1-0.1,0.2C55.6-48.3,55.6-48.2,55.5-48.2z"/>
		<path class="timeline-blue-text" d="M55.5-53.2c-0.1,0-0.1,0-0.2-0.1c0,0-0.1-0.1-0.1-0.2s0-0.1,0.1-0.2c0.1-0.1,0.2-0.1,0.4,0
			c0,0,0.1,0.1,0.1,0.2s0,0.1-0.1,0.2C55.6-53.3,55.6-53.2,55.5-53.2z"/>
		<path class="timeline-blue-text" d="M65-46.2c-0.1,0-0.1,0-0.2-0.1c0,0-0.1-0.1-0.1-0.2s0-0.1,0.1-0.2c0.1-0.1,0.2-0.1,0.4,0c0,0,0.1,0.1,0.1,0.2
			c0,0.1,0,0.1-0.1,0.2C65.1-46.3,65.1-46.2,65-46.2z"/>
		<path class="timeline-blue-text" d="M61.2-45c-0.1,0-0.1,0-0.2-0.1c0,0-0.1-0.1-0.1-0.2s0-0.1,0.1-0.2c0.1-0.1,0.2-0.1,0.4,0c0,0,0.1,0.1,0.1,0.2
			s0,0.1-0.1,0.2C61.4-45,61.3-45,61.2-45z"/>
		<path class="timeline-blue-text" d="M57.7-41.2c-0.1,0-0.1,0-0.2-0.1c0,0-0.1-0.1-0.1-0.2s0-0.1,0.1-0.2c0.1-0.1,0.2-0.1,0.4,0
			c0,0,0.1,0.1,0.1,0.2s0,0.1-0.1,0.2C57.9-41.3,57.8-41.2,57.7-41.2z"/>
		<path class="timeline-blue-text" d="M52.7-39.2c-0.1,0-0.1,0-0.2-0.1c0,0-0.1-0.1-0.1-0.2s0-0.1,0.1-0.2c0.1-0.1,0.2-0.1,0.4,0
			c0,0,0.1,0.1,0.1,0.2s0,0.1-0.1,0.2C52.9-39.3,52.8-39.2,52.7-39.2z"/>
		<path class="timeline-blue-text" d="M47.5-38.2c-0.1,0-0.1,0-0.2-0.1c0,0-0.1-0.1-0.1-0.2s0-0.1,0.1-0.2c0.1-0.1,0.2-0.1,0.3,0
			c0.1,0.1,0.1,0.1,0.1,0.2s0,0.1-0.1,0.2C47.6-38.3,47.6-38.2,47.5-38.2z"/>
		<path class="timeline-blue-text" d="M44.2-32.8c-0.1,0-0.1,0-0.2-0.1c0,0-0.1-0.1-0.1-0.2s0-0.1,0.1-0.2c0.1-0.1,0.2-0.1,0.4,0
			c0,0,0.1,0.1,0.1,0.2s0,0.1-0.1,0.2C44.4-32.8,44.3-32.8,44.2-32.8z"/>
		<path class="timeline-blue-text" d="M34-30.5c-0.1,0-0.1,0-0.2-0.1c0,0-0.1-0.1-0.1-0.2s0-0.1,0.1-0.2c0.1-0.1,0.2-0.1,0.4,0c0,0,0.1,0.1,0.1,0.2
			s0,0.1-0.1,0.2C34.1-30.5,34.1-30.5,34-30.5z"/>
		<path class="timeline-blue-text" d="M40.7-24c-0.1,0-0.1,0-0.2-0.1c0,0-0.1-0.1-0.1-0.2s0-0.1,0.1-0.2c0.1-0.1,0.2-0.1,0.4,0c0,0,0.1,0.1,0.1,0.2
			s0,0.1-0.1,0.2C40.9-24,40.8-24,40.7-24z"/>
		<path class="timeline-blue-text" d="M45.7-19.8c-0.1,0-0.1,0-0.2-0.1c0,0-0.1-0.1-0.1-0.2s0-0.1,0.1-0.2c0.1-0.1,0.2-0.1,0.4,0
			c0,0,0.1,0.1,0.1,0.2s0,0.1-0.1,0.2C45.9-19.8,45.8-19.8,45.7-19.8z"/>
		<path class="timeline-blue-text" d="M46.5-15.2c-0.1,0-0.1,0-0.2-0.1c0,0-0.1-0.1-0.1-0.2s0-0.1,0.1-0.2c0.1-0.1,0.2-0.1,0.4,0
			c0,0,0.1,0.1,0.1,0.2s0,0.1-0.1,0.2C46.6-15.3,46.6-15.2,46.5-15.2z"/>
		<path class="timeline-blue-text" d="M42-12.5c-0.1,0-0.1,0-0.2-0.1c0,0-0.1-0.1-0.1-0.2s0-0.1,0.1-0.2c0.1-0.1,0.2-0.1,0.4,0c0,0,0.1,0.1,0.1,0.2
			s0,0.1-0.1,0.2C42.1-12.5,42.1-12.5,42-12.5z"/>
		<path class="timeline-blue-text" d="M40-9.2c-0.1,0-0.1,0-0.2-0.1c0,0-0.1-0.1-0.1-0.2s0-0.1,0.1-0.2c0.1-0.1,0.3-0.1,0.4,0c0,0,0.1,0.1,0.1,0.2
			c0,0.1,0,0.1-0.1,0.2C40.1-9.3,40.1-9.2,40-9.2z"/>
		<path class="timeline-blue-text" d="M36-9.2c-0.1,0-0.1,0-0.2-0.1c0,0-0.1-0.1-0.1-0.2s0-0.1,0.1-0.2c0.1-0.1,0.3-0.1,0.4,0
			c0,0.1,0.1,0.1,0.1,0.2s0,0.1-0.1,0.2C36.1-9.3,36.1-9.2,36-9.2z"/>
		<path class="timeline-blue-text" d="M36.5-19.2c-0.1,0-0.1,0-0.2-0.1c0,0-0.1-0.1-0.1-0.2s0-0.1,0.1-0.2c0.1-0.1,0.2-0.1,0.4,0
			c0,0.1,0.1,0.1,0.1,0.2s0,0.1-0.1,0.2C36.6-19.3,36.6-19.2,36.5-19.2z"/>
		<path class="timeline-blue-text" d="M30-8.5c-0.1,0-0.1,0-0.2-0.1c0,0-0.1-0.1-0.1-0.2s0-0.1,0.1-0.2c0.1-0.1,0.2-0.1,0.4,0c0,0,0.1,0.1,0.1,0.2
			s0,0.1-0.1,0.2C30.1-8.5,30.1-8.5,30-8.5z"/>
		<path class="timeline-blue-text" d="M31.5-3.5c-0.1,0-0.1,0-0.2-0.1c0,0-0.1-0.1-0.1-0.2s0-0.1,0.1-0.2c0.1-0.1,0.2-0.1,0.3,0
			c0.1,0,0.1,0.1,0.1,0.2c0,0.1,0,0.1-0.1,0.2C31.6-3.5,31.6-3.5,31.5-3.5z"/>
		<path class="timeline-blue-text" d="M37-1c-0.1,0-0.1,0-0.2-0.1c0,0-0.1-0.1-0.1-0.2s0-0.1,0.1-0.2c0.1-0.1,0.2-0.1,0.4,0c0,0,0.1,0.1,0.1,0.2
			s0,0.1-0.1,0.2C37.1-1,37.1-1,37-1z"/>
		<path class="timeline-blue-text" d="M58.7-15c-0.1,0-0.1,0-0.2-0.1c0,0-0.1-0.1-0.1-0.2s0-0.1,0.1-0.2c0.1-0.1,0.2-0.1,0.4,0c0,0,0.1,0.1,0.1,0.2
			s0,0.1-0.1,0.2C58.9-15,58.8-15,58.7-15z"/>
		<path class="timeline-blue-text" d="M63-15c-0.1,0-0.1,0-0.2-0.1c0,0-0.1-0.1-0.1-0.2s0-0.1,0.1-0.2c0.1-0.1,0.2-0.1,0.4,0c0,0,0.1,0.1,0.1,0.2
			s0,0.1-0.1,0.2C63.1-15,63.1-15,63-15z"/>
		<path class="timeline-blue-text" d="M60-21.2c-0.1,0-0.1,0-0.2-0.1c0,0-0.1-0.1-0.1-0.2s0-0.1,0.1-0.2c0.1-0.1,0.2-0.1,0.4,0c0,0,0.1,0.1,0.1,0.2
			s0,0.1-0.1,0.2C60.1-21.3,60.1-21.2,60-21.2z"/>
		<path class="timeline-blue-text" d="M54.5-21.5c-0.1,0-0.1,0-0.2-0.1c0,0-0.1-0.1-0.1-0.2s0-0.1,0.1-0.2c0.1-0.1,0.3-0.1,0.4,0
			c0,0.1,0.1,0.1,0.1,0.2s0,0.1-0.1,0.2C54.6-21.5,54.6-21.5,54.5-21.5z"/>
		<path class="timeline-blue-text" d="M59.2-27.8c-0.1,0-0.1,0-0.2-0.1c0,0-0.1-0.1-0.1-0.2s0-0.1,0.1-0.2c0.1-0.1,0.3-0.1,0.4,0
			c0,0.1,0.1,0.1,0.1,0.2s0,0.1-0.1,0.2C59.4-27.8,59.3-27.8,59.2-27.8z"/>
		<path class="timeline-blue-text" d="M54.7-30.2c-0.1,0-0.1,0-0.2-0.1c0,0-0.1-0.1-0.1-0.2s0-0.1,0.1-0.2c0.1-0.1,0.2-0.1,0.4,0
			c0,0,0.1,0.1,0.1,0.2s0,0.1-0.1,0.2C54.9-30.3,54.8-30.2,54.7-30.2z"/>
		<path class="timeline-blue-text" d="M55.7-36.5c-0.1,0-0.1,0-0.2-0.1c0,0-0.1-0.1-0.1-0.2s0-0.1,0.1-0.2c0.1-0.1,0.2-0.1,0.4,0
			c0,0,0.1,0.1,0.1,0.2s0,0.1-0.1,0.2C55.9-36.5,55.8-36.5,55.7-36.5z"/>
		<path class="timeline-blue-text" d="M62.5-29.8c-0.1,0-0.1,0-0.2-0.1c0,0-0.1-0.1-0.1-0.2s0-0.1,0.1-0.2c0.1-0.1,0.2-0.1,0.3,0
			c0.1,0,0.1,0.1,0.1,0.2s0,0.1-0.1,0.2C62.6-29.8,62.6-29.8,62.5-29.8z"/>
		<path class="timeline-blue-text" d="M67-24.5c-0.1,0-0.1,0-0.2-0.1c0,0-0.1-0.1-0.1-0.2s0-0.1,0.1-0.2c0.1-0.1,0.2-0.1,0.4,0c0,0,0.1,0.1,0.1,0.2
			s0,0.1-0.1,0.2C67.1-24.5,67.1-24.5,67-24.5z"/>
		<path class="timeline-blue-text" d="M69.5-17.8c-0.1,0-0.1,0-0.2-0.1c0,0-0.1-0.1-0.1-0.2s0-0.1,0.1-0.2c0.1-0.1,0.2-0.1,0.4,0
			c0,0,0.1,0.1,0.1,0.2s0,0.1-0.1,0.2C69.6-17.8,69.6-17.8,69.5-17.8z"/>
		<path class="timeline-blue-text" d="M63.5-10.2c-0.1,0-0.1,0-0.2-0.1c0,0-0.1-0.1-0.1-0.2c0-0.1,0-0.1,0.1-0.2c0.1-0.1,0.2-0.1,0.4,0
			c0,0,0.1,0.1,0.1,0.2s0,0.1-0.1,0.2C63.6-10.3,63.6-10.2,63.5-10.2z"/>
		<path class="timeline-blue-text" d="M69.2-8.5c-0.1,0-0.1,0-0.2-0.1c0,0-0.1-0.1-0.1-0.2s0-0.1,0.1-0.2c0.1-0.1,0.2-0.1,0.4,0
			c0,0,0.1,0.1,0.1,0.2s0,0.1-0.1,0.2C69.4-8.5,69.3-8.5,69.2-8.5z"/>
		<path class="timeline-blue-text" d="M64.7-6.5c-0.1,0-0.1,0-0.2-0.1c0,0-0.1-0.1-0.1-0.2s0-0.1,0.1-0.2c0.1-0.1,0.3-0.1,0.4,0
			C65-6.9,65-6.8,65-6.8s0,0.1-0.1,0.2C64.9-6.5,64.8-6.5,64.7-6.5z"/>
		<path class="timeline-blue-text" d="M65.7-3.8c-0.1,0-0.1,0-0.2-0.1c0,0-0.1-0.1-0.1-0.2s0-0.1,0.1-0.2c0.1-0.1,0.3-0.1,0.4,0C66-4.1,66-4.1,66-4
			c0,0.1,0,0.1-0.1,0.2C65.9-3.8,65.8-3.8,65.7-3.8z"/>
		<path class="timeline-blue-text" d="M69.2-1.5c-0.1,0-0.1,0-0.2-0.1c0,0-0.1-0.1-0.1-0.2c0-0.1,0-0.1,0.1-0.2c0.1-0.1,0.2-0.1,0.4,0
			c0,0,0.1,0.1,0.1,0.2c0,0.1,0,0.1-0.1,0.2C69.4-1.5,69.3-1.5,69.2-1.5z"/>
		<path class="timeline-blue-text" d="M62.5-1.8c-0.1,0-0.1,0-0.2-0.1c0,0-0.1-0.1-0.1-0.2c0-0.1,0-0.1,0.1-0.2c0.1-0.1,0.2-0.1,0.3,0
			c0.1,0,0.1,0.1,0.1,0.2s0,0.1-0.1,0.2C62.6-1.8,62.6-1.8,62.5-1.8z"/>
		<path class="timeline-blue-text" d="M60.7-6.2c-0.1,0-0.1,0-0.2-0.1c0,0-0.1-0.1-0.1-0.2s0-0.1,0.1-0.2c0.1-0.1,0.2-0.1,0.4,0
			c0,0,0.1,0.1,0.1,0.2s0,0.1-0.1,0.2C60.9-6.3,60.8-6.2,60.7-6.2z"/>
		<path class="timeline-blue-text" d="M52.7-2.2c-0.1,0-0.1,0-0.2-0.1c0,0-0.1-0.1-0.1-0.2s0-0.1,0.1-0.2c0.1-0.1,0.2-0.1,0.4,0
			c0,0,0.1,0.1,0.1,0.2s0,0.1-0.1,0.2C52.9-2.3,52.8-2.2,52.7-2.2z"/>
		<path class="timeline-blue-text" d="M44.7-5.5c-0.1,0-0.1,0-0.2-0.1c0,0-0.1-0.1-0.1-0.2s0-0.1,0.1-0.2c0.1-0.1,0.2-0.1,0.4,0
			c0,0,0.1,0.1,0.1,0.2c0,0.1,0,0.1-0.1,0.2C44.9-5.5,44.8-5.5,44.7-5.5z"/>
		<path class="timeline-blue-text" d="M44.5-0.8c-0.1,0-0.1,0-0.2-0.1c0,0-0.1-0.1-0.1-0.2c0-0.1,0-0.1,0.1-0.2c0.1-0.1,0.2-0.1,0.4,0
			c0,0,0.1,0.1,0.1,0.2c0,0.1,0,0.1-0.1,0.2C44.6-0.8,44.6-0.8,44.5-0.8z"/>
		<path class="timeline-blue-text" d="M28.5-0.8c-0.1,0-0.1,0-0.2-0.1c0,0-0.1-0.1-0.1-0.2c0-0.1,0-0.1,0.1-0.2c0.1-0.1,0.2-0.1,0.4,0
			c0,0,0.1,0.1,0.1,0.2c0,0.1,0,0.1-0.1,0.2C28.6-0.8,28.6-0.8,28.5-0.8z"/>
		<path class="timeline-blue-text" d="M0.7-42.5c-0.1,0-0.1,0-0.2-0.1c0,0-0.1-0.1-0.1-0.2c0-0.1,0-0.1,0.1-0.2c0.1-0.1,0.2-0.1,0.4,0
			c0,0,0.1,0.1,0.1,0.2s0,0.1-0.1,0.2C0.9-42.5,0.8-42.5,0.7-42.5z"/>
		<path class="timeline-blue-text" d="M24.5-71c-0.1,0-0.1,0-0.2-0.1c0,0-0.1-0.1-0.1-0.2c0-0.1,0-0.1,0.1-0.2c0.1-0.1,0.3-0.1,0.4,0
			c0,0,0.1,0.1,0.1,0.2s0,0.1-0.1,0.2C24.6-71,24.6-71,24.5-71z"/>
		<path class="timeline-blue-text" d="M13.2-67c-0.1,0-0.1,0-0.2-0.1c0,0-0.1-0.1-0.1-0.2c0-0.1,0-0.1,0.1-0.2c0.1-0.1,0.3-0.1,0.4,0
			c0,0,0.1,0.1,0.1,0.2c0,0.1,0,0.1-0.1,0.2C13.4-67,13.3-67,13.2-67z"/>
		<path class="timeline-blue-text" d="M71-36.8c-0.1,0-0.1,0-0.2-0.1c0,0-0.1-0.1-0.1-0.2s0-0.1,0.1-0.2c0.1-0.1,0.2-0.1,0.4,0c0,0,0.1,0.1,0.1,0.2
			s0,0.1-0.1,0.2C71.1-36.8,71.1-36.8,71-36.8z"/>
	</g>
</pattern>
<g id="time_x5F_tra_x5F_monitoring">
	<path class="timeline-arc" d="M973.9,254.2c0-61.8,50.1-111.9,111.9-111.9c61.8,0,111.9,50.1,111.9,111.9"/>
	<path class="timeline-arc" d="M660.7,252.9c0,49.4,40.1,89.5,89.5,89.5s89.5-40.1,89.5-89.5"/>
	<text transform="matrix(1 0 0 1 721.3464 304.0949)" class="timeline-blue-text timeline-font st4">5 months</text>
	<text transform="matrix(1 0 0 1 1057.0081 209.1971)" class="timeline-blue-text timeline-font st4">6 months</text>
</g>
<g id="line">
	<line class="timeline-line" x1="214.2" y1="253.9" x2="1376.1" y2="253.9"/>
	<circle class="timeline-blue-text" cx="705.5" cy="253.5" r="2.6"/>
	<circle class="timeline-blue-text" cx="660.8" cy="253.5" r="2.6"/>
	<circle class="timeline-blue-text" cx="616.1" cy="253.5" r="2.6"/>
	<circle class="timeline-blue-text" cx="526.7" cy="253.5" r="2.6"/>
	<circle class="timeline-blue-text" cx="482" cy="253.5" r="2.6"/>
	<circle class="timeline-blue-text" cx="437.3" cy="253.5" r="2.6"/>
	<circle class="timeline-blue-text" cx="347.9" cy="253.5" r="2.6"/>
	<circle class="timeline-blue-text" cx="303.2" cy="253.5" r="2.6"/>
	<circle class="timeline-blue-text" cx="258.5" cy="253.5" r="2.6"/>
	<circle class="timeline-blue-text" cx="794.9" cy="253.5" r="2.6"/>
	<circle class="timeline-blue-text" cx="839.6" cy="253.5" r="2.6"/>
	<circle class="timeline-blue-text" cx="884.3" cy="253.5" r="2.6"/>
	<circle class="timeline-blue-text" cx="929" cy="253.5" r="2.6"/>
	<circle class="timeline-blue-text" cx="1018.4" cy="253.5" r="2.6"/>
	<circle class="timeline-blue-text" cx="1063.1" cy="253.5" r="2.6"/>
	<circle class="timeline-blue-text" cx="1107.8" cy="253.5" r="2.6"/>
	<circle class="timeline-blue-text" cx="1197.3" cy="253.5" r="2.6"/>
	<circle class="timeline-blue-text" cx="1242" cy="253.5" r="2.6"/>
	<circle class="timeline-blue-circle" cx="750.2" cy="253.5" r="6.1"/>
	<circle class="timeline-blue-circle" cx="213.8" cy="253.5" r="6.1"/>
</g>
<g id="appendici">
	<g>
		<path class="timeline-wave-path" d="M1382.6,252.6c3.8,0,3.8,6,7.7,6s3.8-6,7.7-6c3.8,0,3.8,6,7.7,6c3.8,0,3.8-6,7.7-6c3.8,0,3.8,6,7.6,6
			c3.8,0,3.8-6,7.7-6c3.8,0,3.8,6,7.7,6s3.8-6,7.7-6c3.8,0,3.8,6,7.7,6c3.8,0,3.8-6,7.7-6c3.8,0,3.8,6,7.7,6c3.8,0,3.8-6,7.7-6
			s3.8,6,7.7,6"/>
	</g>
	<g>
		<path class="timeline-wave-path" d="M107.4,247.5c3.8,0,3.8,6,7.7,6c3.8,0,3.8-6,7.7-6c3.8,0,3.8,6,7.7,6c3.8,0,3.8-6,7.7-6c3.8,0,3.8,6,7.6,6
			c3.8,0,3.8-6,7.7-6c3.8,0,3.8,6,7.7,6c3.8,0,3.8-6,7.7-6c3.8,0,3.8,6,7.7,6c3.8,0,3.8-6,7.7-6c3.8,0,3.8,6,7.7,6
			c3.8,0,3.8-6,7.7-6s3.8,6,7.7,6"/>
	</g>
</g>
<g id="first_x5F_monitoring">
	<rect x="579.4" y="233.8" class="timeline-rectangle-overlay" width="72" height="31.7"/>
	<rect x="579.4" y="233.8" class="timeline-rectangle" width="72" height="31.7"/>
</g>
<g id="second_x5F_monitoring">
	<rect x="870" y="114.8" class="timeline-rectangle-overlay" width="67.3" height="150.7"/>
	<rect x="870" y="114.8" class="timeline-rectangle" width="67.3" height="150.7"/>
</g>
<g id="third_x5F_monitoring">
	<rect x="1206" y="96" class="timeline-rectangle-overlay" width="67.3" height="169.4"/>
	<rect x="1206" y="96" class="timeline-rectangle" width="67.3" height="169.4"/>
</g>
<g id="text_x5F_first_x5F_monitoring">
	<g>
		<text transform="matrix(1 0 0 1 577.4504 190.6063)" class="timeline-blue-text timeline-font st4">10</text>
		<text transform="matrix(0.583 0 0 0.583 591.8503 186.6102)" class="timeline-blue-text timeline-font st4">th</text>
		<text transform="matrix(1 0 0 1 600.2454 190.6063)" class="timeline-blue-text timeline-font st4"> October / 18</text>
		<text transform="matrix(0.583 0 0 0.583 693.844 186.6102)" class="timeline-blue-text timeline-font st4">th</text>
		<text transform="matrix(1 0 0 1 702.239 190.6063)" class="timeline-blue-text timeline-font st4"> November</text>
		<text transform="matrix(1 0 0 1 577.4504 205.0067)" class="timeline-blue-text timeline-font st4">1</text>
		<text transform="matrix(0.583 0 0 0.583 584.6501 201.0106)" class="timeline-blue-text timeline-font st4">st</text>
		<text transform="matrix(1 0 0 1 593.0452 205.0067)" class="timeline-blue-text timeline-font st4"> monitoring</text>
	</g>
	<g>
		<rect x="578.8" y="141.1" class="timeline-nofill" width="136.9" height="40.7"/>
		<text transform="matrix(1 0 0 1 578.7579 149.9529)"><tspan x="0" y="0" class="timeline-red-text timeline-font st4">600 notifications </tspan><tspan x="0" y="14.4" class="timeline-red-text timeline-font st4">submitted</tspan></text>
	</g>
</g>
<g id="text_x5F_second_x5F_monitoring">
	<g>
		<rect x="869.1" y="20.4" class="timeline-nofill" width="136.9" height="27.5"/>
		<text transform="matrix(1 0 0 1 869.0916 29.3281)"><tspan x="0" y="0" class="timeline-red-text timeline-font st4">2575 notifications </tspan><tspan x="0" y="14.4" class="timeline-red-text timeline-font st4">submitted</tspan></text>
	</g>
	<g>
		<text transform="matrix(1 0 0 1 869.2838 74.4891)" class="timeline-blue-text timeline-font st4">20</text>
		<text transform="matrix(0.583 0 0 0.583 883.6837 70.493)" class="timeline-blue-text timeline-font st4">th</text>
		<text transform="matrix(1 0 0 1 892.0787 74.4891)" class="timeline-blue-text timeline-font st4"> March / 5</text>
		<text transform="matrix(0.583 0 0 0.583 964.0777 70.493)" class="timeline-blue-text timeline-font st4">th</text>
		<text transform="matrix(1 0 0 1 972.4727 74.4891)" class="timeline-blue-text timeline-font st4"> May</text>
		<text transform="matrix(1 0 0 1 869.2838 88.8895)" class="timeline-blue-text timeline-font st4">Second monitoring </text>
	</g>
</g>
<g id="text_x5F_third_x5F_monitoting">
	<g>
		<rect x="1204.3" y="1.3" class="timeline-nofill" width="136.9" height="25.5"/>
		<text transform="matrix(1 0 0 1 1204.3285 10.1875)"><tspan x="0" y="0" class="timeline-red-text timeline-font st4">2982 notifications </tspan><tspan x="0" y="14.4" class="timeline-red-text timeline-font st4">submitted</tspan></text>
	</g>
	<g>
		<text transform="matrix(1 0 0 1 1204.3287 56.5537)" class="timeline-blue-text timeline-font st4">6</text>
		<text transform="matrix(0.583 0 0 0.583 1211.5284 52.5576)" class="timeline-blue-text timeline-font st4">th</text>
		<text transform="matrix(1 0 0 1 1219.9235 56.5537)" class="timeline-blue-text timeline-font st4"> November / 15</text>
		<text transform="matrix(0.583 0 0 0.583 1320.7223 52.5576)" class="timeline-blue-text timeline-font st4">th</text>
		<text transform="matrix(1 0 0 1 1329.1173 56.5537)" class="timeline-blue-text timeline-font st4"> Dicember</text>
		<text transform="matrix(1 0 0 1 1204.3287 70.9541)" class="timeline-blue-text timeline-font st4">Third monitoring</text>
	</g>
</g>
<g id="testi">
	<g>
		<text transform="matrix(1 0 0 1 1505.3206 241.0741)" class="timeline-blue-text timeline-font st4">Next steps </text>
	</g>
	<g>
		<rect x="1506.6" y="249.5" class="timeline-nofill" width="146.6" height="40.7"/>
		<text transform="matrix(1 0 0 1 1506.5964 258.4243)"><tspan x="0" y="0" class="timeline-blue-text timeline-font st4">Make a monitoring</tspan><tspan x="0" y="14.4" class="timeline-blue-text timeline-font st4">every six months</tspan></text>
	</g>
	<text transform="matrix(1 0 0 1 756.2662 225.1839)"><tspan x="0" y="0" class="timeline-blue-text timeline-font st4">January</tspan><tspan x="0" y="14.4" class="timeline-blue-text timeline-font st4">2017</tspan></text>
	<text transform="matrix(1 0 0 1 219.8172 225.1839)"><tspan x="0" y="0" class="timeline-blue-text timeline-font st4">January</tspan><tspan x="0" y="14.4" class="timeline-blue-text timeline-font st4">2016</tspan></text>
	<text transform="matrix(1 0 0 1 1292.7152 225.1839)"><tspan x="0" y="0" class="timeline-blue-text timeline-font st4">January</tspan><tspan x="0" y="14.4" class="timeline-blue-text timeline-font st4">2018</tspan></text>
</g>
<g id="point6_x5F_recommendation">
	<circle class="timeline-red-circle" cx="1376.1" cy="253.5" r="6.1"/>
</g>
<g id="point5_x5F_noticeandaction">
	<circle class="timeline-red-circle" cx="1331.4" cy="253.5" r="6.1"/>
</g>
<g id="text_x5F_ggl_x5F_Insta">
	<g>
		<rect x="1285.2" y="290.9" class="timeline-nofill" width="182.9" height="47.6"/>
		<text transform="matrix(1 0 0 1 1285.2457 299.774)" class="timeline-blue-text timeline-font st4">9</text>
		<text transform="matrix(0.583 0 0 0.583 1292.4454 295.7779)" class="timeline-blue-text timeline-font st4">th</text>
		<text transform="matrix(1 0 0 1 1300.8409 299.774)" class="timeline-blue-text timeline-font st4"> January</text>
		<text transform="matrix(1 0 0 1 1285.2457 314.1743)" class="timeline-blue-text timeline-font st4">Google+ and Instagram </text>
		<text transform="matrix(1 0 0 1 1285.2457 328.5738)" class="timeline-blue-text timeline-font st4">join the Code of Conduct</text>
	</g>
</g>
<g id="point4_x5F_ggl_x5F_Insta">
	<line class="timeline-vertical-tick" x1="1286.7" y1="253.5" x2="1286.7" y2="277.8"/>
	<circle class="timeline-red-circle" cx="1286.7" cy="253.5" r="6.1"/>
</g>
<g id="testi_monitoring">
</g>
<g id="point1_x5F_31may">
	<line class="timeline-vertical-tick" x1="392.6" y1="253.5" x2="392.6" y2="277.8"/>
	<circle class="timeline-red-circle" cx="392.6" cy="253.5" r="6.1"/>
</g>
<g id="text_x5F_31may">
	<text transform="matrix(1 0 0 1 390.9516 299.4036)" class="timeline-blue-text timeline-font st4">31</text>
	<text transform="matrix(0.583 0 0 0.583 405.3515 295.4075)" class="timeline-blue-text timeline-font st4">st</text>
	<text transform="matrix(1 0 0 1 413.7465 299.4036)" class="timeline-blue-text timeline-font st4"> May</text>
	<text transform="matrix(1 0 0 1 390.9516 313.804)" class="timeline-blue-text timeline-font st4">Code of Conduct</text>
</g>
<g id="point2_x5F_5_x5F_october">
	<circle class="timeline-red-circle" cx="571.4" cy="253.5" r="6.1"/>
</g>
<g id="text_x5F_NetzGDlaw">
	<g>
		<rect x="972.6" y="290.9" class="timeline-nofill" width="123.3" height="26.3"/>
		<text transform="matrix(1 0 0 1 972.6016 299.8285)"><tspan x="0" y="0" class="timeline-blue-text timeline-font st4">NetzDG law was </tspan><tspan x="0" y="14.4" class="timeline-blue-text timeline-font st4">passed in Germany</tspan></text>
	</g>
	<g>
		<rect x="1151.4" y="290.9" class="timeline-nofill" width="123.3" height="40.7"/>
		<text transform="matrix(1 0 0 1 1151.4186 299.8285)"><tspan x="0" y="0" class="timeline-blue-text timeline-font st4">The NetzDG law </tspan><tspan x="0" y="14.4" class="timeline-blue-text timeline-font st4">came into force </tspan><tspan x="0" y="28.8" class="timeline-blue-text timeline-font st4">in Germany</tspan></text>
	</g>
</g>
<g id="point3_x5F_NetzGDlaw">
	<line class="timeline-vertical-tick" x1="974" y1="254.2" x2="974" y2="277.6"/>
	<line class="timeline-vertical-tick" x1="1152.8" y1="250.9" x2="1152.8" y2="277.6"/>
	<circle class="timeline-purple-circle" cx="973.7" cy="253.5" r="6.1"/>
	<circle class="timeline-purple-circle" cx="1152.6" cy="253.5" r="6.1"/>
</g>
<g id="Legenda">
	<circle class="timeline-purple-circle" cx="151.1" cy="72.1" r="6.1"/>
	<circle class="timeline-red-circle" cx="151.1" cy="44.5" r="6.1"/>
	<text transform="matrix(1 0 0 1 174.2186 48.0776)" class="timeline-blue-text timeline-font st4">European Council actions </text>
	<text transform="matrix(1 0 0 1 174.2186 75.6845)" class="timeline-blue-text timeline-font st4">Legislative actions</text>
	<rect x="146.3" y="96.3" class="timeline-rectangle-overlay" width="67.3" height="13.6"/>
	<g>
		<pattern  id="SVGID_1_" xlink:href="#USGS_17_Lago_sabbioso_asciutto" patternTransform="matrix(1 0 0 1 -75.7525 -83.5451)">
		</pattern>
		<rect x="146.3" y="96.3" class="timeline-pattern-fill" width="67.3" height="13.6"/>
	</g>
	<g>
		<polyline class="timeline-polyline" points="146.3,117.1 146.3,120.7 213.6,120.7 213.6,117.1 		"/>
		<line class="timeline-polyline" x1="179.9" y1="120.7" x2="179.9" y2="124.7"/>
	</g>
	<g>
		<polyline class="timeline-polyline" points="218.2,110.2 221.8,110.2 221.8,96.3 218.2,96.3 		"/>
		<line class="timeline-polyline" x1="221.8" y1="103.3" x2="225.8" y2="103.3"/>
	</g>
	<text transform="matrix(1 0 0 1 176.3257 142.256)"><tspan x="0" y="0" class="timeline-blue-text timeline-font st4">Period </tspan><tspan x="0" y="14.4" class="timeline-blue-text timeline-font st4">of monitoring</tspan></text>
	<text transform="matrix(1 0 0 1 232.4039 106.8534)" class="timeline-blue-text timeline-font st4">N of notifications</text>
	<rect x="127.6" y="21" class="timeline-polyline" width="258.9" height="150.3"/>
</g>
</svg>
