<?xml version="1.0" encoding="utf-8"?>
<!-- Generator: Adobe Illustrator 22.1.0, SVG Export Plug-In . SVG Version: 6.00 Build 0)  -->
<svg version="1.1" xmlns="http://www.w3.org/2000/svg" xmlns:xlink="http://www.w3.org/1999/xlink" x="0px" y="0px"
	 viewBox="0 0 1094.1 330.7" style="enable-background:new 0 0 1094.1 330.7;" xml:space="preserve">
<style type="text/css">
	.st0{fill:#111111;}
	.st1{fill:#363636;}
	.st2{fill:#666666;}
	.st3{fill:#B1B1B2;}
	.st4{fill:#9D77FC;}
	.st5{opacity:0.3;fill:#9D77FC;}
	.st6{fill:none;stroke:#FFFFFF;stroke-width:2;stroke-linecap:round;stroke-miterlimit:10;}
	.st7{fill:none;stroke:#FFFFFF;stroke-width:2;stroke-linecap:round;stroke-miterlimit:10;stroke-dasharray:0,10.0097;}
	.st8{fill:none;stroke:#FFFFFF;stroke-width:2;stroke-linecap:round;stroke-miterlimit:10;stroke-dasharray:0,10.0621;}
	.st9{fill:none;}
	.st10{fill:#989898;}
	.st11{stroke:#000000;stroke-width:14;stroke-miterlimit:10;}
	.st12{fill:#4E4E4E;}
	.st13{fill:#7F7F7F;}
	.st14{fill:#CBCBCB;}
</style>
<g id="Livello_2">
	<g>
		<rect y="-6" class="st0" width="1094.1" height="336.7"/>
	</g>
	<g>
		<path class="st1" d="M417,50.2c-43.5-23.8-92.5-36.4-143.5-36.4v15c48.3,0,94.7,11.9,136,34.4L417,50.2z"/>
	</g>
	<g>
		<path class="st2" d="M422.5,70.7c18.8,11.6,36.5,25.5,52.5,41.5s29.9,33.7,41.5,52.5l13-7.5c-12.3-20-26.9-38.6-43.9-55.6
			S449.9,70,430,57.7L422.5,70.7z"/>
	</g>
	<g>
		<path class="st3" d="M537,170.2l-13,7.5c22.5,41.2,34.4,87.7,34.4,136h15C573.4,262.7,560.8,213.7,537,170.2z"/>
	</g>
	<path class="st4" d="M273.5,313.7v-80.2c21.3,0,41.7,8.5,56.7,23.5c15,15,23.5,35.4,23.5,56.7H273.5z"/>
	<path class="st5" d="M273.5,313.7V141.1c45.8,0,89.7,18.2,122,50.5s50.5,76.3,50.5,122H273.5z"/>
	<g>
		<g>
			<line class="st6" x1="273.5" y1="141.1" x2="273.5" y2="141.1"/>
			<line class="st7" x1="273.5" y1="131.1" x2="273.5" y2="56"/>
			<line class="st6" x1="273.5" y1="51" x2="273.5" y2="51"/>
			<path class="st8" d="M283.6,51.2c66,2.5,128.8,29.9,175.7,76.7c48.1,48.1,75.6,112.9,76.9,180.7"/>
			<line class="st6" x1="536.2" y1="313.7" x2="536.2" y2="313.7"/>
			<line class="st7" x1="526.2" y1="313.7" x2="451.1" y2="313.7"/>
			<line class="st6" x1="446.1" y1="313.7" x2="446.1" y2="313.7"/>
		</g>
	</g>
</g>
<g id="Livello_1">
	<g>
	</g>
	<g>
		<rect x="19" y="73.2" class="st9" width="230.2" height="42.7"/>
		<path class="st10" d="M142.6,77.7v0.7h-2.5v-0.5c0-1.9-1.3-2.8-3.1-2.8c-1.6,0-2.7,0.8-2.7,2c0,1.4,1.1,1.8,3.2,2.3l0.6,0.1
			c3,0.7,4.8,1.8,4.8,4.6c0,3-2.4,4.7-5.6,4.7c-3.8,0-6.2-2.1-6.2-5.6v-0.6h2.5v0.4c0,2.2,1.3,3.5,3.7,3.5c2,0,3-1.1,3-2.4
			c0-1.4-1.1-1.9-3.1-2.3l-0.6-0.1c-3-0.7-4.9-1.7-4.9-4.6c0-2.7,2.3-4.4,5.3-4.4C140.2,72.9,142.6,74.6,142.6,77.7z"/>
		<path class="st10" d="M152.8,73.2l4.5,15.4h-2.7l-1-3.5h-5.8l-1,3.5h-2.7l4.6-15.4H152.8z M153.1,82.7l-2.1-7.3h-0.3l-2.1,7.3
			H153.1z"/>
		<path class="st10" d="M164,73.2l3.6,12.7h0.3l3.6-12.7h4.5v15.4h-2.5V75.9h-0.3l-3.5,12.7h-3.8l-3.5-12.7H162v12.7h-2.5V73.2H164z
			"/>
		<path class="st10" d="M185.5,73.2c2.9,0,4.8,1.9,4.8,4.8c0,2.9-2,4.8-4.8,4.8h-3.6v5.9h-2.6V73.2H185.5z M181.9,80.3h3.3
			c1.6,0,2.6-0.9,2.6-2.4s-0.9-2.4-2.6-2.4h-3.3V80.3z"/>
		<path class="st10" d="M195.3,73.2v13h7.3v2.4h-9.9V73.2H195.3z"/>
		<path class="st10" d="M214.9,73.2v2.4h-7.4v4.1h6.8V82h-6.8v4.2h7.5v2.4h-10.1V73.2H214.9z"/>
		<path class="st10" d="M230,72.9c3.8,0,6.2,2.4,6.2,6.3v3.3c0,4-2.3,6.3-6.2,6.3c-3.8,0-6.2-2.3-6.2-6.3v-3.3
			C223.9,75.3,226.2,72.9,230,72.9z M226.4,82.6c0,2.5,1.2,3.9,3.6,3.9c2.5,0,3.6-1.5,3.6-3.9v-3.5c0-2.5-1.3-3.9-3.6-3.9
			c-2.4,0-3.6,1.5-3.6,3.9V82.6z"/>
		<path class="st10" d="M248.7,73.2v2.4h-7.2v4.1h6.7v2.4h-6.7v6.5H239V73.2H248.7z"/>
		<path class="st10" d="M25.2,99.6V115h-2.6V99.6H25.2z"/>
		<path class="st10" d="M33.1,99.6l4.2,13h0.3v-13h2.6V115h-4.6l-4.1-13h-0.3v13h-2.6V99.6H33.1z"/>
		<path class="st10" d="M54.6,99.6v2.4h-4.8v13h-2.6v-13h-4.8v-2.4H54.6z"/>
		<path class="st10" d="M66.9,99.6v2.4h-7.4v4.1h6.8v2.3h-6.8v4.2H67v2.4H56.9V99.6H66.9z"/>
		<path class="st10" d="M77.6,108.8l3.3,6.2h-2.8l-3.1-6h-2.8v6h-2.6V99.6h6.6c2.9,0,4.8,1.9,4.8,4.7
			C81.1,106.6,79.7,108.3,77.6,108.8z M72.2,106.6H76c1.6,0,2.6-0.9,2.6-2.3c0-1.5-0.9-2.3-2.6-2.3h-3.8V106.6z"/>
		<path class="st10" d="M85.3,99.6l3.7,13.1h0.3l3.7-13.1h2.7L91.1,115h-4l-4.5-15.4H85.3z"/>
		<path class="st10" d="M100.4,99.6V115h-2.6V99.6H100.4z"/>
		<path class="st10" d="M113.7,99.6v2.4h-7.4v4.1h6.8v2.3h-6.8v4.2h7.5v2.4h-10.1V99.6H113.7z"/>
		<path class="st10" d="M118.1,99.6l1.8,13h0.3l2.3-13h4.1l2.3,13h0.3l1.8-13h2.6l-2.2,15.4H127l-2.3-13h-0.3l-2.3,13h-4.3
			l-2.3-15.4H118.1z"/>
		<path class="st10" d="M146,99.6v2.4h-7.4v4.1h6.8v2.3h-6.8v4.2h7.5v2.4H136V99.6H146z"/>
		<path class="st10" d="M153.8,99.6c4,0,6.3,2,6.3,6.1v3.2c0,4.1-2.3,6.1-6.3,6.1h-5V99.6H153.8z M151.3,112.6h2.5
			c2.6,0,3.7-1.2,3.7-3.7v-3.2c0-2.5-1.1-3.7-3.7-3.7h-2.5V112.6z"/>
		<path class="st10" d="M171.2,99.6l1.8,13h0.3l2.3-13h4.1l2.3,13h0.3l1.8-13h2.6l-2.2,15.4h-4.3l-2.3-13h-0.3l-2.3,13h-4.3
			l-2.3-15.4H171.2z"/>
		<path class="st10" d="M194.6,99.3c3.8,0,6.2,2.4,6.2,6.3v3.3c0,4-2.3,6.3-6.2,6.3c-3.8,0-6.2-2.3-6.2-6.3v-3.3
			C188.4,101.7,190.8,99.3,194.6,99.3z M191,109c0,2.5,1.2,3.9,3.6,3.9c2.5,0,3.6-1.5,3.6-3.9v-3.5c0-2.5-1.3-3.9-3.6-3.9
			c-2.4,0-3.6,1.5-3.6,3.9V109z"/>
		<path class="st10" d="M208.1,99.6l3.6,12.7h0.3l3.6-12.7h4.5V115h-2.5v-12.7h-0.3l-3.5,12.7h-3.8l-3.5-12.7h-0.3V115h-2.5V99.6
			H208.1z"/>
		<path class="st10" d="M233.4,99.6v2.4h-7.4v4.1h6.8v2.3h-6.8v4.2h7.5v2.4h-10.1V99.6H233.4z"/>
		<path class="st10" d="M240.8,99.6l4.2,13h0.3v-13h2.6V115h-4.6l-4.1-13h-0.3v13h-2.6V99.6H240.8z"/>
	</g>
	<g>
		<rect x="19" y="15.1" class="st9" width="230.2" height="18"/>
		<path class="st10" d="M164.3,15.1c2.9,0,4.8,1.9,4.8,4.8c0,2.9-2,4.8-4.8,4.8h-3.6v5.9h-2.6V15.1H164.3z M160.7,22.2h3.3
			c1.6,0,2.6-0.9,2.6-2.4s-0.9-2.4-2.6-2.4h-3.3V22.2z"/>
		<path class="st10" d="M177.1,14.8c3.8,0,6.2,2.4,6.2,6.3v3.3c0,4-2.3,6.3-6.2,6.3c-3.8,0-6.2-2.3-6.2-6.3v-3.3
			C170.9,17.2,173.3,14.8,177.1,14.8z M173.5,24.5c0,2.5,1.2,3.9,3.6,3.9c2.5,0,3.6-1.5,3.6-3.9v-3.5c0-2.5-1.3-3.9-3.6-3.9
			c-2.4,0-3.6,1.5-3.6,3.9V24.5z"/>
		<path class="st10" d="M188.6,15.1v13h7.3v2.4h-9.9V15.1H188.6z"/>
		<path class="st10" d="M200.8,15.1v15.4h-2.6V15.1H200.8z"/>
		<path class="st10" d="M209.9,14.8c3.8,0,5.9,2.2,5.9,5.6v0.5h-2.6v-0.4c0-2-1.1-3.3-3.4-3.3c-2.3,0-3.7,1.5-3.7,3.9v3.7
			c0,2.4,1.3,3.9,3.7,3.9c2.4,0,3.4-1.3,3.4-3.3v-0.4h2.6v0.4c0,3.4-2,5.6-5.9,5.6c-3.8,0-6.2-2.2-6.2-6.3v-3.5
			C203.7,17.1,206,14.8,209.9,14.8z"/>
		<path class="st10" d="M221.1,15.1v15.4h-2.6V15.1H221.1z"/>
		<path class="st10" d="M234.5,15.1v2.4H227v4.1h6.8v2.3H227v4.2h7.5v2.4h-10.1V15.1H234.5z"/>
		<path class="st10" d="M248.1,19.6v0.7h-2.5v-0.5c0-1.9-1.3-2.8-3.1-2.8c-1.6,0-2.7,0.8-2.7,2c0,1.4,1.1,1.8,3.2,2.3l0.6,0.1
			c3,0.7,4.8,1.8,4.8,4.6c0,3-2.4,4.7-5.6,4.7c-3.8,0-6.2-2.1-6.2-5.6v-0.6h2.5V25c0,2.2,1.3,3.5,3.7,3.5c2,0,3-1.1,3-2.4
			c0-1.4-1.1-1.9-3.1-2.3l-0.6-0.1c-3-0.7-4.9-1.7-4.9-4.6c0-2.7,2.3-4.4,5.3-4.4C245.7,14.8,248.1,16.5,248.1,19.6z"/>
	</g>
	<g>
		<rect x="19" y="176.3" class="st9" width="230.2" height="15.7"/>
		<path class="st10" d="M70,176c2.2,0,3.6,1.3,3.6,3.5v0.4c0,2.2-1.3,3.5-3.6,3.5c-2.2,0-3.6-1.3-3.6-3.5v-0.4
			C66.5,177.3,67.8,176,70,176z M69.4,191.9l-2-1.5l4.4-5l1.3,1L69.4,191.9z M68.5,180c0,1,0.5,1.7,1.5,1.7c1,0,1.5-0.7,1.5-1.7
			v-0.6c0-1-0.5-1.7-1.5-1.7c-1,0-1.5,0.6-1.5,1.7V180z M77.8,184.6c2.2,0,3.6,1.3,3.6,3.5v0.4c0,2.2-1.3,3.5-3.6,3.5
			s-3.6-1.3-3.6-3.5v-0.4C74.2,185.9,75.6,184.6,77.8,184.6z M78.4,175.9l2,1.5l-4.4,5l-1.3-1L78.4,175.9z M76.3,188.6
			c0,1,0.5,1.7,1.5,1.7c1,0,1.5-0.7,1.5-1.7v-0.6c0-1-0.5-1.7-1.5-1.7c-1,0-1.5,0.6-1.5,1.7V188.6z"/>
		<path class="st10" d="M100.6,176.3v2.4h-7.2v4.1h6.7v2.4h-6.7v6.5h-2.6v-15.4H100.6z"/>
		<path class="st10" d="M113,176.3v2.4h-7.4v4.1h6.8v2.3h-6.8v4.2h7.5v2.4H103v-15.4H113z"/>
		<path class="st10" d="M120.4,176.3l3.6,12.7h0.3l3.6-12.7h4.5v15.4h-2.5V179h-0.3l-3.5,12.7h-3.8l-3.5-12.7h-0.3v12.7h-2.5v-15.4
			H120.4z"/>
		<path class="st10" d="M143,176.3l4.5,15.4h-2.7l-1-3.5h-5.8l-1,3.5h-2.7l4.6-15.4H143z M143.3,185.8l-2.1-7.3h-0.3l-2.1,7.3H143.3
			z"/>
		<path class="st10" d="M152.3,176.3v13h7.3v2.4h-9.9v-15.4H152.3z"/>
		<path class="st10" d="M171.9,176.3v2.4h-7.4v4.1h6.8v2.3h-6.8v4.2h7.5v2.4H162v-15.4H171.9z"/>
		<path class="st10" d="M184,176.3v10.1c0,2.1,1.2,3.3,3.3,3.3c2.2,0,3.3-1.2,3.3-3.3v-10.1h2.6v10.1c0,3.5-2.1,5.6-5.9,5.6
			c-3.7,0-5.9-2.1-5.9-5.6v-10.1H184z"/>
		<path class="st10" d="M207.3,180.8v0.7h-2.5V181c0-1.9-1.3-2.8-3.1-2.8c-1.6,0-2.7,0.8-2.7,2c0,1.4,1.1,1.8,3.2,2.3l0.6,0.1
			c3,0.7,4.8,1.8,4.8,4.6c0,3-2.4,4.7-5.6,4.7c-3.8,0-6.2-2.1-6.2-5.6v-0.6h2.5v0.4c0,2.2,1.3,3.5,3.7,3.5c2,0,3-1.1,3-2.4
			c0-1.4-1.1-1.9-3.1-2.3l-0.6-0.1c-3-0.7-4.9-1.7-4.9-4.6c0-2.7,2.3-4.4,5.3-4.4C204.9,175.9,207.3,177.7,207.3,180.8z"/>
		<path class="st10" d="M220.4,176.3v2.4h-7.4v4.1h6.8v2.3h-6.8v4.2h7.5v2.4h-10.1v-15.4H220.4z"/>
		<path class="st10" d="M231.1,185.5l3.3,6.2h-2.8l-3.1-6h-2.8v6h-2.6v-15.4h6.6c2.9,0,4.8,1.9,4.8,4.7
			C234.6,183.3,233.2,185,231.1,185.5z M225.7,183.3h3.8c1.6,0,2.6-0.9,2.6-2.3c0-1.5-0.9-2.3-2.6-2.3h-3.8V183.3z"/>
		<path class="st10" d="M248.1,180.8v0.7h-2.5V181c0-1.9-1.3-2.8-3.1-2.8c-1.6,0-2.7,0.8-2.7,2c0,1.4,1.1,1.8,3.2,2.3l0.6,0.1
			c3,0.7,4.8,1.8,4.8,4.6c0,3-2.4,4.7-5.6,4.7c-3.8,0-6.2-2.1-6.2-5.6v-0.6h2.5v0.4c0,2.2,1.3,3.5,3.7,3.5c2,0,3-1.1,3-2.4
			c0-1.4-1.1-1.9-3.1-2.3l-0.6-0.1c-3-0.7-4.9-1.7-4.9-4.6c0-2.7,2.3-4.4,5.3-4.4C245.7,175.9,248.1,177.7,248.1,180.8z"/>
	</g>
	<g>
		<rect x="19" y="271.8" class="st9" width="230.2" height="18.1"/>
		<path class="st10" d="M84.7,271.5c2.2,0,3.6,1.3,3.6,3.5v0.4c0,2.2-1.3,3.5-3.6,3.5c-2.2,0-3.6-1.3-3.6-3.5V275
			C81.1,272.9,82.5,271.5,84.7,271.5z M84,287.5l-2-1.5l4.4-5l1.3,1L84,287.5z M83.2,275.6c0,1,0.5,1.7,1.5,1.7c1,0,1.5-0.7,1.5-1.7
			v-0.6c0-1-0.5-1.7-1.5-1.7c-1,0-1.5,0.6-1.5,1.7V275.6z M92.5,280.1c2.2,0,3.6,1.3,3.6,3.5v0.4c0,2.2-1.3,3.5-3.6,3.5
			s-3.6-1.3-3.6-3.5v-0.4C88.9,281.5,90.2,280.1,92.5,280.1z M93.1,271.5l2,1.5l-4.4,5l-1.3-1L93.1,271.5z M90.9,284.1
			c0,1,0.5,1.7,1.5,1.7c1,0,1.5-0.7,1.5-1.7v-0.6c0-1-0.5-1.7-1.5-1.7c-1,0-1.5,0.6-1.5,1.7V284.1z"/>
		<path class="st10" d="M108.1,271.8v6.5h6.2v-6.5h2.6v15.4h-2.6v-6.5h-6.2v6.5h-2.6v-15.4H108.1z"/>
		<path class="st10" d="M127.7,271.8l4.5,15.4h-2.7l-1-3.5h-5.8l-1,3.5h-2.7l4.6-15.4H127.7z M127.9,281.3l-2.1-7.3h-0.3l-2.1,7.3
			H127.9z"/>
		<path class="st10" d="M142.3,281.1l3.3,6.2h-2.8l-3.1-6H137v6h-2.6v-15.4h6.6c2.9,0,4.8,1.9,4.8,4.7
			C145.8,278.9,144.4,280.6,142.3,281.1z M137,278.9h3.8c1.6,0,2.6-0.9,2.6-2.3c0-1.5-0.9-2.3-2.6-2.3H137V278.9z"/>
		<path class="st10" d="M155.8,271.8l4.5,15.4h-2.7l-1-3.5h-5.8l-1,3.5h-2.7l4.6-15.4H155.8z M156,281.3l-2.1-7.3h-0.3l-2.1,7.3H156
			z"/>
		<path class="st10" d="M173.3,276.4v0.7h-2.5v-0.5c0-1.9-1.3-2.8-3.1-2.8c-1.6,0-2.7,0.8-2.7,2c0,1.4,1.1,1.8,3.2,2.3l0.6,0.1
			c3,0.7,4.8,1.8,4.8,4.6c0,3-2.4,4.7-5.6,4.7c-3.8,0-6.2-2.1-6.2-5.6v-0.6h2.5v0.4c0,2.2,1.3,3.5,3.7,3.5c2,0,3-1.1,3-2.4
			c0-1.4-1.1-1.9-3.1-2.3l-0.6-0.1c-3-0.7-4.9-1.7-4.9-4.6c0-2.7,2.3-4.4,5.3-4.4C170.9,271.5,173.3,273.3,173.3,276.4z"/>
		<path class="st10" d="M187.1,276.4v0.7h-2.5v-0.5c0-1.9-1.3-2.8-3.1-2.8c-1.6,0-2.7,0.8-2.7,2c0,1.4,1.1,1.8,3.2,2.3l0.6,0.1
			c3,0.7,4.8,1.8,4.8,4.6c0,3-2.4,4.7-5.6,4.7c-3.8,0-6.2-2.1-6.2-5.6v-0.6h2.5v0.4c0,2.2,1.3,3.5,3.7,3.5c2,0,3-1.1,3-2.4
			c0-1.4-1.1-1.9-3.1-2.3l-0.6-0.1c-3-0.7-4.9-1.7-4.9-4.6c0-2.7,2.3-4.4,5.3-4.4C184.7,271.5,187.1,273.3,187.1,276.4z"/>
		<path class="st10" d="M194.7,271.8l3.6,12.7h0.3l3.6-12.7h4.5v15.4h-2.5v-12.7h-0.3l-3.5,12.7h-3.8l-3.5-12.7h-0.3v12.7h-2.5
			v-15.4H194.7z"/>
		<path class="st10" d="M220,271.8v2.4h-7.4v4.1h6.8v2.3h-6.8v4.2h7.5v2.4H210v-15.4H220z"/>
		<path class="st10" d="M227.4,271.8l4.2,13h0.3v-13h2.6v15.4h-4.6l-4.1-13h-0.3v13h-2.6v-15.4H227.4z"/>
		<path class="st10" d="M248.8,271.8v2.4H244v13h-2.6v-13h-4.8v-2.4H248.8z"/>
	</g>
	<path class="st4" d="M332.9,259.8l-59.3,53.9h80.2C353.7,292.9,345.8,274,332.9,259.8z"/>
	<path class="st11" d="M273.5,302.7"/>
	<g>
		<path class="st12" d="M713.3,228.8l3.7,13.1h0.3l3.7-13.1h2.7l-4.5,15.4h-4l-4.5-15.4H713.3z"/>
		<path class="st12" d="M735.8,228.8v2.4h-7.4v4.1h6.8v2.3h-6.8v4.2h7.5v2.4h-10.1v-15.4H735.8z"/>
		<path class="st12" d="M746.6,238.1l3.3,6.2h-2.8l-3.1-6h-2.8v6h-2.6v-15.4h6.6c2.9,0,4.8,1.9,4.8,4.7
			C750.1,235.9,748.7,237.6,746.6,238.1z M741.2,235.9h3.8c1.6,0,2.6-0.9,2.6-2.3c0-1.5-0.9-2.3-2.6-2.3h-3.8V235.9z"/>
		<path class="st12" d="M754,228.8l3.6,6.8h0.4l3.6-6.8h2.9l-5.4,9.9v5.5h-2.6v-5.5l-5.4-9.9H754z"/>
		<path class="st12" d="M775.7,228.8v15.4h-2.6v-15.4H775.7z"/>
		<path class="st12" d="M783.7,228.8l4.2,13h0.3v-13h2.6v15.4h-4.6l-4.1-13h-0.3v13h-2.6v-15.4H783.7z"/>
		<path class="st12" d="M801.5,228.8l4.5,15.4h-2.7l-1-3.5h-5.8l-1,3.5h-2.7l4.6-15.4H801.5z M801.7,238.4l-2.1-7.3h-0.3l-2.1,7.3
			H801.7z"/>
		<path class="st12" d="M813.2,228.8c4,0,6.3,2,6.3,6.1v3.2c0,4.1-2.3,6.1-6.3,6.1h-5v-15.4H813.2z M810.7,241.9h2.5
			c2.6,0,3.7-1.2,3.7-3.7v-3.2c0-2.5-1.1-3.7-3.7-3.7h-2.5V241.9z"/>
		<path class="st12" d="M832.3,228.8v2.4h-7.4v4.1h6.8v2.3h-6.8v4.2h7.5v2.4h-10.1v-15.4H832.3z"/>
		<path class="st12" d="M834.5,234.8c0-3.9,2.4-6.3,6.2-6.3c3.8,0,5.9,2.2,5.9,5.7v0.2H844v-0.2c0-2-1.1-3.3-3.3-3.3
			c-2.3,0-3.7,1.5-3.7,3.9v3.7c0,2.4,1.3,3.9,3.7,3.9c2.4,0,3.3-1.3,3.3-3.3v-0.2h-3.9v-2.3h6.5v2.4c0,3.5-2.1,5.7-5.9,5.7
			c-3.8,0-6.2-2.2-6.2-6.3V234.8z"/>
		<path class="st12" d="M851.9,228.8v10.1c0,2.1,1.2,3.3,3.3,3.3c2.2,0,3.3-1.2,3.3-3.3v-10.1h2.6v10.1c0,3.5-2.1,5.6-5.9,5.6
			c-3.7,0-5.9-2.1-5.9-5.6v-10.1H851.9z"/>
		<path class="st12" d="M871.6,228.8l4.5,15.4h-2.7l-1-3.5h-5.8l-1,3.5H863l4.6-15.4H871.6z M871.9,238.4l-2.1-7.3h-0.3l-2.1,7.3
			H871.9z"/>
		<path class="st12" d="M888.1,228.8v2.4h-4.8v13h-2.6v-13h-4.8v-2.4H888.1z"/>
		<path class="st12" d="M900.4,228.8v2.4h-7.4v4.1h6.8v2.3h-6.8v4.2h7.5v2.4h-10.1v-15.4H900.4z"/>
	</g>
	<g>
		<rect x="647.7" y="263.6" class="st1" width="42.5" height="50.1"/>
	</g>
	<g>
		<rect x="647.7" y="213.5" class="st12" width="42.5" height="50.1"/>
	</g>
	<g>
		<rect x="647.7" y="163.6" class="st2" width="42.5" height="50.1"/>
	</g>
	<g>
		<rect x="647.7" y="113.6" class="st13" width="42.5" height="50.1"/>
	</g>
	<g>
		<rect x="647.7" y="63.6" class="st3" width="42.5" height="50.1"/>
	</g>
	<g>
		<rect x="647.7" y="13.8" class="st14" width="42.5" height="50.1"/>
	</g>
	<g>
		<path class="st1" d="M716.8,279c4,0,6.3,2,6.3,6.1v3.2c0,4.1-2.3,6.1-6.3,6.1h-5V279H716.8z M714.4,292h2.5c2.6,0,3.7-1.2,3.7-3.7
			v-3.2c0-2.5-1.1-3.7-3.7-3.7h-2.5V292z"/>
		<path class="st1" d="M731.5,278.7c3.8,0,6.2,2.4,6.2,6.3v3.3c0,4-2.3,6.3-6.2,6.3c-3.8,0-6.2-2.3-6.2-6.3V285
			C725.4,281,727.7,278.7,731.5,278.7z M727.9,288.4c0,2.5,1.2,3.9,3.6,3.9c2.5,0,3.6-1.5,3.6-3.9v-3.5c0-2.5-1.3-3.9-3.6-3.9
			c-2.4,0-3.6,1.5-3.6,3.9V288.4z"/>
		<path class="st1" d="M745.1,279l4.2,13h0.3v-13h2.6v15.4h-4.6l-4.1-13H743v13h-2.6V279H745.1z"/>
		<path class="st1" d="M756.9,278.6c1.1,0,1.9,0.8,1.9,1.9v2.6c0,1.1-0.8,1.9-1.9,1.9h-1.8v-1.4h1.5c0.4,0,0.6-0.2,0.6-0.6v-0.7
			c-0.1,0-0.2,0-0.4,0c-1,0-1.9-0.7-1.9-1.8C755,279.4,755.9,278.6,756.9,278.6z"/>
		<path class="st1" d="M772.9,279v2.4h-4.8v13h-2.6v-13h-4.8V279H772.9z"/>
		<path class="st1" d="M788.5,285.1l6.6,9.3H792l-5.4-7.6l-2.2,2v5.6h-2.6V279h2.6v6.4h0.3l7-6.4h3.5L788.5,285.1z"/>
		<path class="st1" d="M801.6,279l4.2,13h0.3v-13h2.6v15.4H804l-4.1-13h-0.3v13H797V279H801.6z"/>
		<path class="st1" d="M817.6,278.7c3.8,0,6.2,2.4,6.2,6.3v3.3c0,4-2.3,6.3-6.2,6.3c-3.8,0-6.2-2.3-6.2-6.3V285
			C811.4,281,813.7,278.7,817.6,278.7z M814,288.4c0,2.5,1.2,3.9,3.6,3.9c2.5,0,3.6-1.5,3.6-3.9v-3.5c0-2.5-1.3-3.9-3.6-3.9
			c-2.4,0-3.6,1.5-3.6,3.9V288.4z"/>
		<path class="st1" d="M828.1,279l1.8,13h0.3l2.3-13h4.1l2.3,13h0.3l1.8-13h2.6l-2.2,15.4H837l-2.3-13h-0.3l-2.3,13h-4.3l-2.3-15.4
			H828.1z"/>
	</g>
	<g>
		<path class="st2" d="M721.5,178.9v2.4h-7.2v4.1h6.7v2.4h-6.7v6.5h-2.6v-15.4H721.5z"/>
		<path class="st2" d="M730,178.9l4.5,15.4h-2.7l-1-3.5h-5.8l-1,3.5h-2.7l4.6-15.4H730z M730.2,188.4l-2.1-7.3h-0.3l-2.1,7.3H730.2z
			"/>
		<path class="st2" d="M739.2,178.9v15.4h-2.6v-15.4H739.2z"/>
		<path class="st2" d="M750.6,188.2l3.3,6.2H751l-3.1-6h-2.8v6h-2.6v-15.4h6.6c2.9,0,4.8,1.9,4.8,4.7
			C754.1,186,752.7,187.7,750.6,188.2z M745.2,185.9h3.8c1.6,0,2.6-0.9,2.6-2.3c0-1.5-0.9-2.3-2.6-2.3h-3.8V185.9z"/>
		<path class="st2" d="M759.3,178.9v13h7.3v2.4h-9.9v-15.4H759.3z"/>
		<path class="st2" d="M767.4,178.9l3.6,6.8h0.4l3.6-6.8h2.9l-5.4,9.9v5.5h-2.6v-5.5l-5.4-9.9H767.4z"/>
		<path class="st2" d="M789.1,178.9v15.4h-2.6v-15.4H789.1z"/>
		<path class="st2" d="M797.1,178.9l4.2,13h0.3v-13h2.6v15.4h-4.6l-4.1-13H795v13h-2.6v-15.4H797.1z"/>
		<path class="st2" d="M814.8,178.9l4.5,15.4h-2.7l-1-3.5h-5.8l-1,3.5h-2.7l4.6-15.4H814.8z M815.1,188.4l-2.1-7.3h-0.3l-2.1,7.3
			H815.1z"/>
		<path class="st2" d="M826.5,178.9c4,0,6.3,2,6.3,6.1v3.2c0,4.1-2.3,6.1-6.3,6.1h-5v-15.4H826.5z M824.1,191.9h2.5
			c2.6,0,3.7-1.2,3.7-3.7V185c0-2.5-1.1-3.7-3.7-3.7h-2.5V191.9z"/>
		<path class="st2" d="M845.6,178.9v2.4h-7.4v4.1h6.8v2.3h-6.8v4.2h7.5v2.4h-10.1v-15.4H845.6z"/>
		<path class="st2" d="M847.9,184.9c0-3.9,2.4-6.3,6.2-6.3c3.8,0,5.9,2.2,5.9,5.7v0.2h-2.6v-0.2c0-2-1.1-3.3-3.3-3.3
			c-2.3,0-3.7,1.5-3.7,3.9v3.7c0,2.4,1.3,3.9,3.7,3.9c2.4,0,3.3-1.3,3.3-3.3v-0.2h-3.9v-2.3h6.5v2.4c0,3.5-2.1,5.7-5.9,5.7
			c-3.8,0-6.2-2.2-6.2-6.3V184.9z"/>
		<path class="st2" d="M865.3,178.9V189c0,2.1,1.2,3.3,3.3,3.3c2.2,0,3.3-1.2,3.3-3.3v-10.1h2.6V189c0,3.5-2.1,5.6-5.9,5.6
			c-3.7,0-5.9-2.1-5.9-5.6v-10.1H865.3z"/>
		<path class="st2" d="M885,178.9l4.5,15.4h-2.7l-1-3.5H880l-1,3.5h-2.7l4.6-15.4H885z M885.2,188.4l-2.1-7.3h-0.3l-2.1,7.3H885.2z"
			/>
		<path class="st2" d="M901.4,178.9v2.4h-4.8v13h-2.6v-13h-4.8v-2.4H901.4z"/>
		<path class="st2" d="M913.7,178.9v2.4h-7.4v4.1h6.8v2.3h-6.8v4.2h7.5v2.4h-10.1v-15.4H913.7z"/>
	</g>
	<g>
		<path class="st13" d="M716.4,129l4.2,13h0.3v-13h2.6v15.4h-4.6l-4.1-13h-0.3v13h-2.6V129H716.4z"/>
		<path class="st13" d="M736.8,129v2.4h-7.4v4.1h6.8v2.3h-6.8v4.2h7.5v2.4h-10.1V129H736.8z"/>
		<path class="st13" d="M742.1,129v15.4h-2.6V129H742.1z"/>
		<path class="st13" d="M756.6,129v2.4h-4.8v13h-2.6v-13h-4.8V129H756.6z"/>
		<path class="st13" d="M761.4,129v6.5h6.2V129h2.6v15.4h-2.6v-6.5h-6.2v6.5h-2.6V129H761.4z"/>
		<path class="st13" d="M783.6,129v2.4h-7.4v4.1h6.8v2.3h-6.8v4.2h7.5v2.4h-10.1V129H783.6z"/>
		<path class="st13" d="M794.4,138.2l3.3,6.2h-2.8l-3.1-6H789v6h-2.6V129h6.6c2.9,0,4.8,1.9,4.8,4.7
			C797.9,136.1,796.5,137.7,794.4,138.2z M789,136h3.8c1.6,0,2.6-0.9,2.6-2.3c0-1.5-0.9-2.3-2.6-2.3H789V136z"/>
		<path class="st13" d="M814.6,129l4.5,15.4h-2.7l-1-3.5h-5.8l-1,3.5H806l4.6-15.4H814.6z M814.9,138.5l-2.1-7.3h-0.3l-2.1,7.3
			H814.9z"/>
		<path class="st13" d="M826.3,129c4,0,6.3,2,6.3,6.1v3.2c0,4.1-2.3,6.1-6.3,6.1h-5V129H826.3z M823.9,142h2.5
			c2.6,0,3.7-1.2,3.7-3.7v-3.2c0-2.5-1.1-3.7-3.7-3.7h-2.5V142z"/>
		<path class="st13" d="M845.4,129v2.4H838v4.1h6.8v2.3H838v4.2h7.5v2.4h-10.1V129H845.4z"/>
		<path class="st13" d="M847.7,135c0-3.9,2.4-6.3,6.2-6.3c3.8,0,5.9,2.2,5.9,5.7v0.2h-2.6v-0.2c0-2-1.1-3.3-3.3-3.3
			c-2.3,0-3.7,1.5-3.7,3.9v3.7c0,2.4,1.3,3.9,3.7,3.9c2.4,0,3.3-1.3,3.3-3.3v-0.2h-3.9v-2.3h6.5v2.4c0,3.5-2.1,5.7-5.9,5.7
			c-3.8,0-6.2-2.2-6.2-6.3V135z"/>
		<path class="st13" d="M865.1,129v10.1c0,2.1,1.2,3.3,3.3,3.3c2.2,0,3.3-1.2,3.3-3.3V129h2.6v10.1c0,3.5-2.1,5.6-5.9,5.6
			c-3.7,0-5.9-2.1-5.9-5.6V129H865.1z"/>
		<path class="st13" d="M884.8,129l4.5,15.4h-2.7l-1-3.5h-5.8l-1,3.5h-2.7l4.6-15.4H884.8z M885,138.5l-2.1-7.3h-0.3l-2.1,7.3H885z"
			/>
		<path class="st13" d="M901.2,129v2.4h-4.8v13h-2.6v-13h-4.8V129H901.2z"/>
		<path class="st13" d="M913.5,129v2.4h-7.4v4.1h6.8v2.3h-6.8v4.2h7.5v2.4h-10.1V129H913.5z"/>
		<path class="st13" d="M928.6,128.7c3.8,0,6.2,2.4,6.2,6.3v3.3c0,4-2.3,6.3-6.2,6.3c-3.8,0-6.2-2.3-6.2-6.3V135
			C922.5,131.1,924.8,128.7,928.6,128.7z M925,138.4c0,2.5,1.2,3.9,3.6,3.9c2.5,0,3.6-1.5,3.6-3.9V135c0-2.5-1.3-3.9-3.6-3.9
			c-2.4,0-3.6,1.5-3.6,3.9V138.4z"/>
		<path class="st13" d="M945.6,138.2l3.3,6.2H946l-3.1-6h-2.8v6h-2.6V129h6.6c2.9,0,4.8,1.9,4.8,4.7
			C949.1,136.1,947.6,137.7,945.6,138.2z M940.2,136h3.8c1.6,0,2.6-0.9,2.6-2.3c0-1.5-0.9-2.3-2.6-2.3h-3.8V136z"/>
		<path class="st13" d="M961,129v15.4h-2.6V129H961z"/>
		<path class="st13" d="M969,129l4.2,13h0.3v-13h2.6v15.4h-4.6l-4.1-13h-0.3v13h-2.6V129H969z"/>
		<path class="st13" d="M986.7,129l4.5,15.4h-2.7l-1-3.5h-5.8l-1,3.5h-2.7l4.6-15.4H986.7z M986.9,138.5l-2.1-7.3h-0.3l-2.1,7.3
			H986.9z"/>
		<path class="st13" d="M998.4,129c4,0,6.3,2,6.3,6.1v3.2c0,4.1-2.3,6.1-6.3,6.1h-5V129H998.4z M996,142h2.5c2.6,0,3.7-1.2,3.7-3.7
			v-3.2c0-2.5-1.1-3.7-3.7-3.7H996V142z"/>
		<path class="st13" d="M1017.5,129v2.4h-7.4v4.1h6.8v2.3h-6.8v4.2h7.5v2.4h-10.1V129H1017.5z"/>
		<path class="st13" d="M1019.8,135c0-3.9,2.4-6.3,6.2-6.3c3.8,0,5.9,2.2,5.9,5.7v0.2h-2.6v-0.2c0-2-1.1-3.3-3.3-3.3
			c-2.3,0-3.7,1.5-3.7,3.9v3.7c0,2.4,1.3,3.9,3.7,3.9c2.4,0,3.3-1.3,3.3-3.3v-0.2h-3.9v-2.3h6.5v2.4c0,3.5-2.1,5.7-5.9,5.7
			c-3.8,0-6.2-2.2-6.2-6.3V135z"/>
		<path class="st13" d="M1037.1,129v10.1c0,2.1,1.2,3.3,3.3,3.3c2.2,0,3.3-1.2,3.3-3.3V129h2.6v10.1c0,3.5-2.1,5.6-5.9,5.6
			c-3.7,0-5.9-2.1-5.9-5.6V129H1037.1z"/>
		<path class="st13" d="M1056.9,129l4.5,15.4h-2.7l-1-3.5h-5.8l-1,3.5h-2.7l4.6-15.4H1056.9z M1057.1,138.5l-2.1-7.3h-0.3l-2.1,7.3
			H1057.1z"/>
		<path class="st13" d="M1073.3,129v2.4h-4.8v13h-2.6v-13h-4.8V129H1073.3z"/>
		<path class="st13" d="M1085.6,129v2.4h-7.4v4.1h6.8v2.3h-6.8v4.2h7.5v2.4h-10.1V129H1085.6z"/>
	</g>
	<g>
		<path class="st3" d="M721.5,78.9v2.4h-7.2v4.1h6.7v2.4h-6.7v6.5h-2.6V78.9H721.5z"/>
		<path class="st3" d="M730,78.9l4.5,15.4h-2.7l-1-3.5h-5.8l-1,3.5h-2.7l4.6-15.4H730z M730.2,88.4l-2.1-7.3h-0.3l-2.1,7.3H730.2z"
			/>
		<path class="st3" d="M739.2,78.9v15.4h-2.6V78.9H739.2z"/>
		<path class="st3" d="M750.6,88.2l3.3,6.2H751l-3.1-6h-2.8v6h-2.6V78.9h6.6c2.9,0,4.8,1.9,4.8,4.7C754.1,86,752.7,87.7,750.6,88.2z
			 M745.2,85.9h3.8c1.6,0,2.6-0.9,2.6-2.3c0-1.5-0.9-2.3-2.6-2.3h-3.8V85.9z"/>
		<path class="st3" d="M759.3,78.9v13h7.3v2.4h-9.9V78.9H759.3z"/>
		<path class="st3" d="M767.4,78.9l3.6,6.8h0.4l3.6-6.8h2.9l-5.4,9.9v5.5h-2.6v-5.5l-5.4-9.9H767.4z"/>
		<path class="st3" d="M793.9,78.9l4.5,15.4h-2.7l-1-3.5H789l-1,3.5h-2.7l4.6-15.4H793.9z M794.2,88.4l-2.1-7.3h-0.3l-2.1,7.3H794.2
			z"/>
		<path class="st3" d="M805.6,78.9c4,0,6.3,2,6.3,6.1v3.2c0,4.1-2.3,6.1-6.3,6.1h-5V78.9H805.6z M803.2,92h2.5
			c2.6,0,3.7-1.2,3.7-3.7V85c0-2.5-1.1-3.7-3.7-3.7h-2.5V92z"/>
		<path class="st3" d="M824.7,78.9v2.4h-7.4v4.1h6.8v2.3h-6.8V92h7.5v2.4h-10.1V78.9H824.7z"/>
		<path class="st3" d="M827,84.9c0-3.9,2.4-6.3,6.2-6.3c3.8,0,5.9,2.2,5.9,5.7v0.2h-2.6v-0.2c0-2-1.1-3.3-3.3-3.3
			c-2.3,0-3.7,1.5-3.7,3.9v3.7c0,2.4,1.3,3.9,3.7,3.9c2.4,0,3.3-1.3,3.3-3.3v-0.2h-3.9v-2.3h6.5V89c0,3.5-2.1,5.7-5.9,5.7
			c-3.8,0-6.2-2.2-6.2-6.3V84.9z"/>
		<path class="st3" d="M844.4,78.9V89c0,2.1,1.2,3.3,3.3,3.3c2.2,0,3.3-1.2,3.3-3.3V78.9h2.6V89c0,3.5-2.1,5.6-5.9,5.6
			c-3.7,0-5.9-2.1-5.9-5.6V78.9H844.4z"/>
		<path class="st3" d="M864.1,78.9l4.5,15.4H866l-1-3.5h-5.8l-1,3.5h-2.7l4.6-15.4H864.1z M864.3,88.4l-2.1-7.3h-0.3l-2.1,7.3H864.3
			z"/>
		<path class="st3" d="M880.5,78.9v2.4h-4.8v13h-2.6v-13h-4.8v-2.4H880.5z"/>
		<path class="st3" d="M892.8,78.9v2.4h-7.4v4.1h6.8v2.3h-6.8V92h7.5v2.4h-10.1V78.9H892.8z"/>
	</g>
	<g>
		<path class="st14" d="M713.3,29.1l3.7,13.1h0.3l3.7-13.1h2.7l-4.5,15.4h-4l-4.5-15.4H713.3z"/>
		<path class="st14" d="M735.8,29.1v2.4h-7.4v4.1h6.8V38h-6.8v4.2h7.5v2.4h-10.1V29.1H735.8z"/>
		<path class="st14" d="M746.6,38.4l3.3,6.2h-2.8l-3.1-6h-2.8v6h-2.6V29.1h6.6c2.9,0,4.8,1.9,4.8,4.7
			C750.1,36.2,748.7,37.9,746.6,38.4z M741.2,36.2h3.8c1.6,0,2.6-0.9,2.6-2.3c0-1.5-0.9-2.3-2.6-2.3h-3.8V36.2z"/>
		<path class="st14" d="M754,29.1l3.6,6.8h0.4l3.6-6.8h2.9l-5.4,9.9v5.5h-2.6v-5.5l-5.4-9.9H754z"/>
		<path class="st14" d="M780.6,29.1l4.5,15.4h-2.7l-1-3.5h-5.8l-1,3.5H772l4.6-15.4H780.6z M780.8,38.6l-2.1-7.3h-0.3l-2.1,7.3
			H780.8z"/>
		<path class="st14" d="M792.3,29.1c4,0,6.3,2,6.3,6.1v3.2c0,4.1-2.3,6.1-6.3,6.1h-5V29.1H792.3z M789.8,42.2h2.5
			c2.6,0,3.7-1.2,3.7-3.7v-3.2c0-2.5-1.1-3.7-3.7-3.7h-2.5V42.2z"/>
		<path class="st14" d="M811.4,29.1v2.4h-7.4v4.1h6.8V38h-6.8v4.2h7.5v2.4h-10.1V29.1H811.4z"/>
		<path class="st14" d="M813.6,35.1c0-3.9,2.4-6.3,6.2-6.3c3.8,0,5.9,2.2,5.9,5.7v0.2h-2.6v-0.2c0-2-1.1-3.3-3.3-3.3
			c-2.3,0-3.7,1.5-3.7,3.9v3.7c0,2.4,1.3,3.9,3.7,3.9c2.4,0,3.3-1.3,3.3-3.3V39h-3.9v-2.3h6.5v2.4c0,3.5-2.1,5.7-5.9,5.7
			c-3.8,0-6.2-2.2-6.2-6.3V35.1z"/>
		<path class="st14" d="M831,29.1v10.1c0,2.1,1.2,3.3,3.3,3.3c2.2,0,3.3-1.2,3.3-3.3V29.1h2.6v10.1c0,3.5-2.1,5.6-5.9,5.6
			c-3.7,0-5.9-2.1-5.9-5.6V29.1H831z"/>
		<path class="st14" d="M850.7,29.1l4.5,15.4h-2.7l-1-3.5h-5.8l-1,3.5h-2.7l4.6-15.4H850.7z M851,38.6l-2.1-7.3h-0.3l-2.1,7.3H851z"
			/>
		<path class="st14" d="M867.2,29.1v2.4h-4.8v13h-2.6v-13H855v-2.4H867.2z"/>
		<path class="st14" d="M879.5,29.1v2.4H872v4.1h6.8V38H872v4.2h7.5v2.4h-10.1V29.1H879.5z"/>
	</g>
	<g>
	</g>
	<g>
	</g>
	<g>
	</g>
	<g>
	</g>
	<g>
	</g>
	<g>
	</g>
	<g>
	</g>
	<g>
	</g>
	<g>
	</g>
	<g>
	</g>
	<g>
	</g>
	<g>
	</g>
	<g>
	</g>
	<g>
	</g>
	<g>
	</g>
</g>
</svg>
