<?xml version="1.0" encoding="utf-8"?>
<!-- Generator: Adobe Illustrator 22.1.0, SVG Export Plug-In . SVG Version: 6.00 Build 0)  -->
<svg version="1.1" id="Livello_1" xmlns="http://www.w3.org/2000/svg" xmlns:xlink="http://www.w3.org/1999/xlink" x="0px" y="0px"
	 viewBox="0 0 1920 939" enable-background="new 0 0 1920 939" xml:space="preserve">
<g>
	<path fill="#9D77FC" d="M467.9,938.9H0V0l467.9,0c259.3,0,469.4,210.2,469.4,469.4v0C937.3,728.7,727.2,938.9,467.9,938.9z"/>
	<path fill="#9D77FC" d="M467.9,938.9H0V0l467.9,0c259.3,0,469.4,210.2,469.4,469.4v0C937.3,728.7,727.2,938.9,467.9,938.9z"/>
	<g>
		<path d="M467.9,0L467.9,0C209.5,0,0,209.5,0,467.9v3.1c0,258.4,209.5,467.9,467.9,467.9h0c259.3,0,469.4-210.2,469.4-469.4v0
			C937.3,210.2,727.2,0,467.9,0z"/>
	</g>
	<path fill="#9D77FC" d="M467.9,586.8c-63.9,0-115.8-52-115.8-115.8v-3.1c0-63.9,52-115.8,115.8-115.8
		c64.7,0,117.4,52.6,117.4,117.4C585.3,534.2,532.6,586.8,467.9,586.8z"/>
	<path fill="#9D77FC" d="M1450.6,0H982.7v938.9h467.9c259.3,0,469.4-210.2,469.4-469.4v0C1920,210.2,1709.8,0,1450.6,0z"/>
	<g>
		<polygon points="1334.7,140.8 1334.7,0 982.7,0 982.7,938.9 1334.7,938.9 1334.7,798 		"/>
	</g>
</g>
</svg>
