<svg xmlns="http://www.w3.org/2000/svg" viewBox="0 0 1527.79 1961.49"><defs><style>.cls-1{fill:#111;}.cls-2,.cls-3{fill:#fff;}.cls-2{stroke:#fff;stroke-width:3px;}.cls-4,.cls-5{fill:none;}.cls-4{stroke:#999;stroke-linecap:square;stroke-linejoin:round;stroke-width:0.5px;}.cls-5{stroke:#49396f;stroke-linecap:round;stroke-miterlimit:10;stroke-width:10px;}.cls-6{fill:#49396f;}.cls-7{isolation:isolate;}</style></defs><title>long</title><g id="sfondi"><rect class="cls-1" width="1527.79" height="1961.49"/><g id="legend"><line class="cls-2" x1="451.24" y1="417.73" x2="495.99" y2="417.73"/><line class="cls-2" x1="451.24" y1="763.45" x2="495.99" y2="763.45"/><line class="cls-2" x1="451.24" y1="676.96" x2="495.99" y2="676.96"/><line class="cls-2" x1="451.24" y1="590.59" x2="495.99" y2="590.59"/><line class="cls-2" x1="451.24" y1="504.16" x2="495.99" y2="504.16"/><path class="cls-3" d="M466.9,400.64h6.26v1.72h-4.47v2.33a2.21,2.21,0,0,1,.81-.54,3.19,3.19,0,0,1,1.26-.22,3.38,3.38,0,0,1,1.41.31,2.5,2.5,0,0,1,1,.83,3.89,3.89,0,0,1,.7,2.24,3.59,3.59,0,0,1-.93,2.59,3.44,3.44,0,0,1-2.59,1,3.94,3.94,0,0,1-2.59-.78,3,3,0,0,1-1.12-2h1.93a1.41,1.41,0,0,0,.59.87,2,2,0,0,0,1.21.32,1.44,1.44,0,0,0,1.19-.52,2.1,2.1,0,0,0,.42-1.37,1.86,1.86,0,0,0-.43-1.31,1.73,1.73,0,0,0-2.79.61H466.9Z"/><path class="cls-3" d="M475.38,405.77q0-5.07,3.78-5.07t3.77,5.07q0,5.09-3.77,5.08T475.38,405.77ZM480,402.7a2,2,0,0,0-1.65,0,1.45,1.45,0,0,0-.54.46,2.12,2.12,0,0,0-.3.74,4.67,4.67,0,0,0-.15.87c0,.28,0,.61,0,1s0,.71,0,1a4.91,4.91,0,0,0,.15.88,2.2,2.2,0,0,0,.3.74,1.39,1.39,0,0,0,.54.47,2,2,0,0,0,1.65,0,1.46,1.46,0,0,0,.54-.47,2.43,2.43,0,0,0,.3-.74,7.72,7.72,0,0,0,.15-.88q0-.42,0-1c0-.39,0-.72,0-1a7.22,7.22,0,0,0-.15-.87,2.32,2.32,0,0,0-.3-.74A1.54,1.54,0,0,0,480,402.7Z"/><path class="cls-3" d="M484.81,404.83a2.43,2.43,0,1,1,1.61.6A2.23,2.23,0,0,1,484.81,404.83Zm.53,6.05,5.49-9.8h1.91l-5.5,9.8Zm1.86-7.7c0-.71-.26-1.07-.79-1.07s-.79.36-.79,1.07.26,1.07.79,1.07S487.2,403.9,487.2,403.18Zm4.48,7.84a2.2,2.2,0,0,1-1.6-.6,2.48,2.48,0,0,1,0-3.3,2.18,2.18,0,0,1,1.59-.6,2.22,2.22,0,0,1,1.6.6,2.52,2.52,0,0,1,0,3.3A2.22,2.22,0,0,1,491.68,411Zm.77-2.25c0-.71-.26-1.07-.78-1.07s-.79.36-.79,1.07.26,1.07.79,1.07S492.45,409.48,492.45,408.77Z"/><path class="cls-3" d="M471.18,497.36v-2H466.3v-1.55l4.56-6.55h2.28v6.39h1.24v1.71h-1.24v2Zm.13-3.69v-4.26l-2.8,4.26Z"/><path class="cls-3" d="M475.62,492.26c0-3.38,1.26-5.08,3.77-5.08s3.78,1.7,3.78,5.08-1.26,5.07-3.78,5.07S475.62,495.64,475.62,492.26Zm4.61-3.07a1.81,1.81,0,0,0-.83-.19,1.77,1.77,0,0,0-.82.19,1.3,1.3,0,0,0-.54.46,2.14,2.14,0,0,0-.3.73,4.91,4.91,0,0,0-.15.88c0,.28,0,.61,0,1s0,.72,0,1a4.67,4.67,0,0,0,.15.87,2.12,2.12,0,0,0,.3.74,1.32,1.32,0,0,0,.54.47,1.77,1.77,0,0,0,.82.18,1.81,1.81,0,0,0,.83-.18,1.46,1.46,0,0,0,.54-.47,2.58,2.58,0,0,0,.3-.74,7.22,7.22,0,0,0,.15-.87c0-.28,0-.61,0-1s0-.71,0-1a7.72,7.72,0,0,0-.15-.88,2.63,2.63,0,0,0-.3-.73A1.44,1.44,0,0,0,480.23,489.19Z"/><path class="cls-3" d="M485.05,491.31a2.2,2.2,0,0,1-.62-1.65,2.16,2.16,0,0,1,.62-1.64,2.22,2.22,0,0,1,1.6-.6,2.18,2.18,0,0,1,1.59.6,2.13,2.13,0,0,1,.63,1.64,2.2,2.2,0,0,1-.62,1.65,2.16,2.16,0,0,1-1.6.61A2.19,2.19,0,0,1,485.05,491.31Zm.53,6.05,5.48-9.8H493l-5.5,9.8Zm1.86-7.69c0-.71-.27-1.07-.79-1.07s-.79.36-.79,1.07.26,1.07.79,1.07S487.44,490.38,487.44,489.67Zm4.48,7.83a2.26,2.26,0,0,1-1.61-.59,2.52,2.52,0,0,1,0-3.31,2.46,2.46,0,0,1,3.2,0,2.21,2.21,0,0,1,.62,1.66,2.16,2.16,0,0,1-.62,1.65A2.22,2.22,0,0,1,491.92,497.5Zm.77-2.24c0-.72-.26-1.08-.79-1.08s-.78.36-.78,1.08.26,1.07.78,1.07S492.69,496,492.69,495.26Z"/><path class="cls-3" d="M467.38,574.18a3.73,3.73,0,0,1,2.44-.76,3.42,3.42,0,0,1,2.36.76,2.47,2.47,0,0,1,.85,1.93,2.37,2.37,0,0,1-.46,1.5,2.19,2.19,0,0,1-1,.81v.05a2.41,2.41,0,0,1,1.68,2.54,2.66,2.66,0,0,1-.89,2.1,3.6,3.6,0,0,1-2.47.8,4,4,0,0,1-2.56-.8,2.91,2.91,0,0,1-1-2.34h1.9a1.55,1.55,0,0,0,.47,1.1,1.68,1.68,0,0,0,1.18.41,1.48,1.48,0,0,0,1.13-.4,1.54,1.54,0,0,0,.38-1.14,1.24,1.24,0,0,0-.52-1.1,3,3,0,0,0-1.66-.35h-.41v-1.61h.41c1.33,0,2-.45,2-1.33a1.14,1.14,0,0,0-.37-.91,1.42,1.42,0,0,0-1-.34,1.25,1.25,0,0,0-1,.38,1.55,1.55,0,0,0-.39.84h-1.92A2.73,2.73,0,0,1,467.38,574.18Z"/><path class="cls-3" d="M474.75,578.75q0-5.09,3.78-5.08t3.77,5.08q0,5.07-3.77,5.07T474.75,578.75Zm4.61-3.08a2,2,0,0,0-1.65,0,1.45,1.45,0,0,0-.54.46,2.2,2.2,0,0,0-.3.74,4.63,4.63,0,0,0-.15.88q0,.42,0,1t0,1a4.91,4.91,0,0,0,.15.88,2.2,2.2,0,0,0,.3.74,1.39,1.39,0,0,0,.54.47,2,2,0,0,0,1.65,0,1.46,1.46,0,0,0,.54-.47,2.43,2.43,0,0,0,.3-.74,7.72,7.72,0,0,0,.15-.88q0-.42,0-1t0-1a7,7,0,0,0-.15-.88,2.43,2.43,0,0,0-.3-.74A1.54,1.54,0,0,0,479.36,575.67Z"/><path class="cls-3" d="M484.18,577.8a2.51,2.51,0,0,1,0-3.3,2.46,2.46,0,0,1,3.2,0,2.25,2.25,0,0,1-1.59,3.9A2.23,2.23,0,0,1,484.18,577.8Zm.53,6.05,5.49-9.8h1.91l-5.5,9.8Zm1.86-7.69c0-.72-.26-1.08-.79-1.08s-.79.36-.79,1.08.26,1.07.79,1.07S486.57,576.87,486.57,576.16Zm4.48,7.83a2.2,2.2,0,0,1-1.6-.6,2.14,2.14,0,0,1-.63-1.65A2.1,2.1,0,0,1,491,579.5a2.08,2.08,0,0,1,2.22,2.24,2.17,2.17,0,0,1-.61,1.65A2.22,2.22,0,0,1,491.05,584Zm.77-2.25c0-.71-.26-1.07-.78-1.07s-.79.36-.79,1.07.26,1.07.79,1.07S491.82,582.46,491.82,581.74Z"/><path class="cls-3" d="M466.27,670.08v-1.44l1.12-1,1.13-1c.26-.23.57-.52.94-.89a7.74,7.74,0,0,0,.81-.93,3.16,3.16,0,0,0,.69-1.74c0-1-.46-1.48-1.37-1.48a1.29,1.29,0,0,0-1,.45,1.88,1.88,0,0,0-.39,1.23h-1.91a3.21,3.21,0,0,1,1-2.49,3.54,3.54,0,0,1,2.47-.86,3.24,3.24,0,0,1,2.4.87,3,3,0,0,1,.86,2.18,3.42,3.42,0,0,1-.5,1.82,8.53,8.53,0,0,1-.49.79,6.79,6.79,0,0,1-.68.8l-.69.7c-.17.16-.42.4-.77.7l-.7.64h4.07v1.61Z"/><path class="cls-3" d="M474.4,665.12q0-5.08,3.78-5.08t3.77,5.08q0,5.07-3.77,5.07T474.4,665.12ZM479,662a2,2,0,0,0-1.65,0,1.56,1.56,0,0,0-.54.47,2.06,2.06,0,0,0-.3.73,4.77,4.77,0,0,0-.15.88q0,.42,0,1t0,1a4.77,4.77,0,0,0,.15.88,2.2,2.2,0,0,0,.3.74,1.46,1.46,0,0,0,.54.47,2,2,0,0,0,1.65,0,1.46,1.46,0,0,0,.54-.47,2.2,2.2,0,0,0,.3-.74,5.79,5.79,0,0,0,.15-.88q0-.42,0-1t0-1a5.79,5.79,0,0,0-.15-.88,2.06,2.06,0,0,0-.3-.73A1.56,1.56,0,0,0,479,662Z"/><path class="cls-3" d="M483.83,664.17a2.51,2.51,0,0,1,0-3.3,2.46,2.46,0,0,1,3.2,0,2.25,2.25,0,0,1-1.59,3.9A2.23,2.23,0,0,1,483.83,664.17Zm.53,6.05,5.49-9.8h1.91l-5.5,9.8Zm1.86-7.69c0-.72-.26-1.07-.79-1.07s-.79.35-.79,1.07.26,1.07.79,1.07S486.22,663.24,486.22,662.53Zm4.48,7.83a2.2,2.2,0,0,1-1.6-.6,2.14,2.14,0,0,1-.63-1.65,2.1,2.1,0,0,1,2.22-2.24,2.08,2.08,0,0,1,2.22,2.24,2.17,2.17,0,0,1-.61,1.65A2.22,2.22,0,0,1,490.7,670.36Zm.77-2.25c0-.71-.26-1.07-.78-1.07s-.79.36-.79,1.07.26,1.07.79,1.07S491.47,668.83,491.47,668.11Z"/><path class="cls-3" d="M467.63,756.65v-8.13h-1.49v-1.81h3.5v9.94Z"/><path class="cls-3" d="M471.73,751.55q0-5.09,3.77-5.08t3.78,5.08q0,5.07-3.78,5.07T471.73,751.55Zm4.61-3.08a2,2,0,0,0-1.66,0,1.44,1.44,0,0,0-.53.47,2.26,2.26,0,0,0-.31.73,5.73,5.73,0,0,0-.14.88,12.27,12.27,0,0,0,0,2,5.73,5.73,0,0,0,.14.88,2.42,2.42,0,0,0,.31.74,1.36,1.36,0,0,0,.53.47,2,2,0,0,0,1.66,0,1.46,1.46,0,0,0,.54-.47,2.71,2.71,0,0,0,.3-.74,5.73,5.73,0,0,0,.14-.88,12.27,12.27,0,0,0,0-2,5.73,5.73,0,0,0-.14-.88,2.51,2.51,0,0,0-.3-.73A1.56,1.56,0,0,0,476.34,748.47Z"/><path class="cls-3" d="M481.16,750.6a2.51,2.51,0,0,1,0-3.3,2.45,2.45,0,0,1,3.19,0A2.16,2.16,0,0,1,485,749a2.26,2.26,0,0,1-3.81,1.65Zm.52,6,5.49-9.8h1.92l-5.5,9.8Zm1.87-7.69c0-.72-.27-1.07-.79-1.07s-.8.35-.8,1.07.27,1.07.8,1.07S483.55,749.67,483.55,749Zm4.48,7.83a2.26,2.26,0,0,1-1.61-.59,2.46,2.46,0,1,1,1.61.59Zm.77-2.25c0-.71-.26-1.07-.79-1.07s-.78.36-.78,1.07.26,1.07.78,1.07S488.8,755.26,488.8,754.54Z"/></g></g><g id="griglia_e_testi" data-name="griglia e testi"><path class="cls-4" d="M822.86,767.73,904,741.23a343.8,343.8,0,0,0-47.85-95.37l-69.58,50.42A258.38,258.38,0,0,1,822.86,767.73Z"/><path class="cls-4" d="M577.16,1107.17v84.19a344.74,344.74,0,0,0,106-17.22l-25.94-79.84A258.88,258.88,0,0,1,577.16,1107.17Z"/><path class="cls-4" d="M835.54,848v.31l84.69.1c0-.7,0-1.39,0-2.09A344.81,344.81,0,0,0,904,741.23l-81.09,26.5A259,259,0,0,1,835.54,848Z"/><path class="cls-4" d="M657.3,601.69l27-82.86a344.51,344.51,0,0,0-107.1-17.59v87.54A259,259,0,0,1,657.3,601.69Z"/><path class="cls-4" d="M786.52,696.28l69.58-50.42a347.3,347.3,0,0,0-75.31-76.71l-51,69.89A260.77,260.77,0,0,1,786.52,696.28Z"/><path class="cls-4" d="M729.75,639l51-69.89a344.22,344.22,0,0,0-96.53-50.32l-27,82.86A258.37,258.37,0,0,1,729.75,639Z"/><path class="cls-4" d="M577.16,1191.36v86.51a432.69,432.69,0,0,0,132.84-21l-26.87-82.7A344.74,344.74,0,0,1,577.16,1191.36Z"/><path class="cls-4" d="M683.13,1174.14l26.87,82.7a431.39,431.39,0,0,0,120.21-61.22l-51.45-70.68A344,344,0,0,1,683.13,1174.14Z"/><path class="cls-4" d="M903.18,953.73a343.72,343.72,0,0,1-48.81,95.38l71.19,51.64A431.7,431.7,0,0,0,987.32,981Z"/><path class="cls-4" d="M657.19,1094.3l25.94,79.84a344,344,0,0,0,95.63-49.2l-49.35-67.79A258.25,258.25,0,0,1,657.19,1094.3Z"/><path class="cls-4" d="M778.76,1124.94l51.45,70.68a435.54,435.54,0,0,0,95.35-94.87l-71.19-51.64A347,347,0,0,1,778.76,1124.94Z"/><path class="cls-4" d="M729.41,1057.15l49.35,67.79a347,347,0,0,0,75.61-75.83l-68-49.3A260.57,260.57,0,0,1,729.41,1057.15Z"/><path class="cls-4" d="M835.54,848.29A259.07,259.07,0,0,1,823,927.73l80.16,26a344.74,344.74,0,0,0,17.05-105.34Z"/><path class="cls-4" d="M786.42,999.81l68,49.3a343.72,343.72,0,0,0,48.81-95.38l-80.16-26A258.51,258.51,0,0,1,786.42,999.81Z"/><path class="cls-4" d="M904,741.23l84.1-27.48L904,741.23A344.81,344.81,0,0,1,920.26,846.3c0,.7,0,1.39,0,2.09l88.85.09c0-1.12,0-2.24,0-3.37a430.79,430.79,0,0,0-80.67-251.67L856.1,645.86A343.8,343.8,0,0,1,904,741.23Z"/><path class="cls-4" d="M684.26,518.83,711.83,434l-27.57,84.84a344.22,344.22,0,0,1,96.53,50.32L833.51,497l-52.72,72.12a347.3,347.3,0,0,1,75.31,76.71l72.33-52.42C850.07,484,722,412.62,577.16,412.36v88.88A344.51,344.51,0,0,1,684.26,518.83Z"/><path class="cls-4" d="M903.18,953.73,987.32,981a432.15,432.15,0,0,0,21.76-132.54l-88.85-.09A344.74,344.74,0,0,1,903.18,953.73Z"/><path class="cls-4" d="M577.16,932.42v88.74a173.76,173.76,0,0,0,53.53-8.41l-27.44-84.46A84.28,84.28,0,0,1,577.16,932.42Z"/><path class="cls-4" d="M657.52,874.06l84.93,27.54a173.62,173.62,0,0,0,8.69-53.4l-89.48-.11A84.41,84.41,0,0,1,657.52,874.06Z"/><path class="cls-4" d="M645.51,897.58l72.08,52.3a173.18,173.18,0,0,0,24.86-48.28l-84.93-27.54A84.18,84.18,0,0,1,645.51,897.58Z"/><path class="cls-4" d="M661.66,847.92v.17l89.48.11c0-.35,0-.69,0-1a173.9,173.9,0,0,0-8.33-53.3l-85.31,27.88A84.45,84.45,0,0,1,661.66,847.92Z"/><path class="cls-4" d="M653.89,953.41l25.27,34.71a174.9,174.9,0,0,0,38.43-38.24l-72.08-52.3a84.78,84.78,0,0,1-18.67,18.67"/><path class="cls-4" d="M626.84,916.25a84.13,84.13,0,0,1-23.59,12l27.44,84.46a173.52,173.52,0,0,0,48.47-24.63l-24.94-34.27"/><line class="cls-4" x1="654.22" y1="953.85" x2="578.16" y2="848.73"/><path class="cls-4" d="M578.16,848.73l102-141.79a173.66,173.66,0,0,0-48.91-25.18l-27.92,85.81A84.36,84.36,0,0,1,627,779.71"/><path class="cls-4" d="M603.33,767.57l27.92-85.81a173.94,173.94,0,0,0-54.09-8.58v90.24A84.45,84.45,0,0,1,603.33,767.57Z"/><path class="cls-4" d="M577.16,1021.16v86a258.88,258.88,0,0,0,80-12.87l-26.5-81.55A173.76,173.76,0,0,1,577.16,1021.16Z"/><path class="cls-4" d="M721.32,749.74a173,173,0,0,1,21.5,44.13l80-26.14a258.38,258.38,0,0,0-36.34-71.45L726,740.13"/><path class="cls-4" d="M742.45,901.6,823,927.73a259.07,259.07,0,0,0,12.52-79.44l-84.4-.09A173.62,173.62,0,0,1,742.45,901.6Z"/><path class="cls-4" d="M717.59,949.88l68.83,49.93A258.51,258.51,0,0,0,823,927.73L742.45,901.6A173.18,173.18,0,0,1,717.59,949.88Z"/><path class="cls-4" d="M679.16,988.12l50.25,69a260.57,260.57,0,0,0,57-57.34l-68.83-49.93A174.9,174.9,0,0,1,679.16,988.12Z"/><path class="cls-4" d="M630.69,1012.75l26.5,81.55a258.25,258.25,0,0,0,72.22-37.15l-50.25-69A173.52,173.52,0,0,1,630.69,1012.75Z"/><path class="cls-4" d="M578.16,848.73,786.52,696.28A260.77,260.77,0,0,0,729.75,639l-49.59,67.9c13.39,9.85,31.08,29.59,41.16,42.8"/><path class="cls-4" d="M631.25,681.76l26-80.07a259,259,0,0,0-80.14-12.91v84.4A173.94,173.94,0,0,1,631.25,681.76Z"/><path class="cls-4" d="M680.16,706.94,729.75,639a258.37,258.37,0,0,0-72.45-37.35l-26,80.07A173.66,173.66,0,0,1,680.16,706.94Z"/><path class="cls-4" d="M822.86,767.73l-80,26.14a173.9,173.9,0,0,1,8.33,53.3c0,.34,0,.68,0,1l84.4.09V848A259,259,0,0,0,822.86,767.73Z"/><path class="cls-4" d="M657.51,821.75a84,84,0,0,0-11.9-23.35"/><path class="cls-4" d="M626.84,916.25a84.78,84.78,0,0,0,18.67-18.67l-33.64-24.4"/><path class="cls-4" d="M634.53,866.6l23,7.46a84.41,84.41,0,0,0,4.14-26l-83.5.64"/><path class="cls-4" d="M578.16,848.73l25.09,79.56a84.13,84.13,0,0,0,23.59-12"/><path class="cls-4" d="M578.16,848.73l67.35,48.85a84.18,84.18,0,0,0,12-23.52l-79.36-25.33"/><line class="cls-4" x1="577.16" y1="848" x2="578.16" y2="848.73"/><path class="cls-4" d="M645.61,798.4A84.9,84.9,0,0,0,627,779.71"/><path class="cls-4" d="M627,779.71a84.36,84.36,0,0,0-23.7-12.14l-25.17,81.16"/><line class="cls-4" x1="577.16" y1="848" x2="577.16" y2="763.42"/><line class="cls-4" x1="577.16" y1="932.42" x2="577.16" y2="848"/><path class="cls-4" d="M578.16,848.73l79.35-27a84.45,84.45,0,0,1,4.15,26.17v.17"/></g><g id="VIOL"><line class="cls-5" x1="578.16" y1="847.87" x2="585.4" y2="873.26"/><path class="cls-6" d="M585.4,879.44a6.18,6.18,0,1,1,6.18-6.18A6.18,6.18,0,0,1,585.4,879.44Z"/><path class="cls-1" d="M585.4,868.09a5.18,5.18,0,1,1-5.18,5.17,5.17,5.17,0,0,1,5.18-5.17m0-2a7.18,7.18,0,1,0,7.18,7.17,7.18,7.18,0,0,0-7.18-7.17Z"/><g class="cls-7"><path class="cls-3" d="M725.06,1301.68a4.88,4.88,0,0,1,3.26-6.28,4.78,4.78,0,0,1,3.86.29,5.06,5.06,0,0,1-4.7,9A4.92,4.92,0,0,1,725.06,1301.68Zm3.21,1.24a3.26,3.26,0,0,0,2.47.08,3.18,3.18,0,0,0,2-1.49,2.82,2.82,0,0,0,.18-2.32,2.91,2.91,0,0,0-1.49-1.8,3.65,3.65,0,0,0-4.43,1.41,3.1,3.1,0,0,0,1.31,4.12Z"/><path class="cls-3" d="M734.84,1304.84l1.44-.46,2.19,6.9-1.44.46-.8-2.52-7.87,2.5-.6-1.87,7.87-2.5Z"/><path class="cls-3" d="M740.8,1318.61l.6,1.88-9.32,3-.6-1.88,4-1.27-1.27-4-4,1.27-.6-1.88,9.32-3,.6,1.88-3.89,1.24,1.28,4Z"/><path class="cls-3" d="M743.77,1327.86l-1.44.45-1.11-3.49-2.45.78,1,3.09-1.44.46-1-3.1-2.57.82,1.11,3.5-1.44.46-1.71-5.38,9.34-3Z"/><path class="cls-3" d="M739.34,1333.45l-3.7,1.18-.6-1.88,9.31-3,1.09,3.43a3.72,3.72,0,0,1,0,2.74,2.77,2.77,0,0,1-1.72,1.51,2.83,2.83,0,0,1-3.39-1.36l-3.07,3.59-.71-2.23,3-3.41Zm4.17-1.32-2.72.86.49,1.55a1.56,1.56,0,0,0,.71,1,1.58,1.58,0,0,0,2-.63,1.58,1.58,0,0,0,0-1.2Z"/></g></g><g id="VIOL-2" data-name="VIOL"><line class="cls-5" x1="650.46" y1="948.68" x2="578.16" y2="847.87"/><path class="cls-6" d="M650.46,954.85a6.18,6.18,0,1,1,6.17-6.17A6.18,6.18,0,0,1,650.46,954.85Z"/><path class="cls-1" d="M650.46,943.5a5.18,5.18,0,1,1-5.18,5.18,5.18,5.18,0,0,1,5.18-5.18m0-2a7.18,7.18,0,1,0,7.18,7.18,7.19,7.19,0,0,0-7.18-7.18Z"/><g class="cls-7"><path class="cls-3" d="M853.33,1237.2l1.12-1.58-2.22-3.09-1.86.56-1.21-1.7,10-2.91,1.37,1.9-6,8.51Zm.43-5.14,1.63,2.27,2.49-3.52Z"/><path class="cls-3" d="M867,1239.48l1.16,1.6-8,5.72-1.15-1.6,2.92-7.55-5.5,4-1.16-1.6,8-5.72,1.15,1.6-2.92,7.55Z"/><path class="cls-3" d="M874.07,1249.29l-5.75.38-2.18,5.33-1.3-1.81,1.43-3.52-3.71.36-1.3-1.81,5.76-.36,2.18-5.34,1.3,1.81-1.44,3.51,3.72-.34Z"/><path class="cls-3" d="M867.16,1256.42l7.93-5.71,1.15,1.61-7.93,5.7Z"/><path class="cls-3" d="M880.79,1258.58l-1.23.89-2.14-3-2.08,1.49,1.9,2.64-1.23.88-1.9-2.63-2.19,1.58,2.14,3-1.23.89-3.29-4.59,8-5.72Z"/><path class="cls-3" d="M880.38,1260.65l1.23-.88,4.22,5.88-1.22.88-1.55-2.15-6.7,4.82-1.15-1.59,6.71-4.82Z"/><path class="cls-3" d="M881.38,1276.18l-1.16-1.6,2.73-2,3.28-6.43,1.29,1.8-2.52,4.38,5-1,1.29,1.8-7.14,1.06Z"/></g></g><g id="VIOL-3" data-name="VIOL"><line class="cls-5" x1="606.78" y1="869.49" x2="578.16" y2="847.87"/><path class="cls-6" d="M606.78,875.67a6.18,6.18,0,1,1,6.18-6.18A6.18,6.18,0,0,1,606.78,875.67Z"/><path class="cls-1" d="M606.78,864.31a5.18,5.18,0,1,1-5.17,5.18,5.18,5.18,0,0,1,5.17-5.18m0-2a7.18,7.18,0,1,0,7.18,7.18,7.18,7.18,0,0,0-7.18-7.18Z"/><g class="cls-7"><path class="cls-3" d="M959.7,1123.9a5.17,5.17,0,0,1,4.31-5.73,4.88,4.88,0,0,1,3.69,1,5,5,0,0,1,1.78,2.35,4.46,4.46,0,0,1,0,2.89l-1.89-1.43a2.28,2.28,0,0,0-1-2.37,2.86,2.86,0,0,0-2.25-.6,3.66,3.66,0,0,0-2.79,3.71,2.81,2.81,0,0,0,1.2,2,2.33,2.33,0,0,0,2.57.32l1.89,1.42a4.5,4.5,0,0,1-2.79.76,5.14,5.14,0,0,1-2.75-1.06A4.91,4.91,0,0,1,959.7,1123.9Z"/><path class="cls-3" d="M970.29,1133.64a4.88,4.88,0,0,1-1-7,4.81,4.81,0,0,1,3.32-2,5.18,5.18,0,0,1,5.68,4.27,5.19,5.19,0,0,1-4.32,5.74A4.86,4.86,0,0,1,970.29,1133.64Zm3.34-.84a3.69,3.69,0,0,0,2.79-3.72,3.11,3.11,0,0,0-3.45-2.59,3.22,3.22,0,0,0-2.07,1.35,3.26,3.26,0,0,0-.73,2.36,3.12,3.12,0,0,0,3.46,2.6Z"/><path class="cls-3" d="M986.59,1133.51l1.58,1.19-5.89,7.83-1.58-1.18.54-8.08-4.07,5.42-1.58-1.19,5.89-7.83,1.57,1.18-.53,8.08Z"/><path class="cls-3" d="M985.48,1143.27a5.17,5.17,0,0,1,4.31-5.73,4.89,4.89,0,0,1,3.68,1,5,5,0,0,1,1.78,2.36,4.46,4.46,0,0,1,0,2.89l-1.89-1.43a2.32,2.32,0,0,0-1-2.37,2.88,2.88,0,0,0-2.26-.6,3.66,3.66,0,0,0-2.79,3.71,2.9,2.9,0,0,0,1.2,2,2.33,2.33,0,0,0,2.57.32l1.89,1.42a4.47,4.47,0,0,1-2.78.76,5.11,5.11,0,0,1-2.75-1.06A4.87,4.87,0,0,1,985.48,1143.27Z"/><path class="cls-3" d="M1003,1145.82l-.91,1.21-2.94-2.21-1.53,2,2.59,2-.91,1.21-2.59-2-1.63,2.16,2.94,2.2-.91,1.21-4.51-3.39,5.88-7.83Z"/><path class="cls-3" d="M1009.69,1150.87l1.58,1.19-5.89,7.83-1.58-1.18.54-8.08-4.07,5.42-1.58-1.19,5.89-7.83,1.58,1.18-.54,8.08Z"/><path class="cls-3" d="M1011.56,1154.21l.91-1.21,5.79,4.35-.91,1.2-2.12-1.59-5,6.61-1.56-1.18,5-6.6Z"/><path class="cls-3" d="M1017.51,1164.14l-2.33,3.11-1.58-1.18,5.87-7.82,2.87,2.17a3.65,3.65,0,0,1,1.58,2.24,2.71,2.71,0,0,1-.52,2.22,3,3,0,0,1-1.48,1,2.93,2.93,0,0,1-2.07-.19l-.42,4.71-1.87-1.41.47-4.51Zm2.63-3.49-1.72,2.28,1.3,1a1.52,1.52,0,0,0,1.14.37,1.58,1.58,0,0,0,1.25-1.67,1.54,1.54,0,0,0-.68-1Z"/><path class="cls-3" d="M1026,1175.38l.59-1.85-3-2.29-1.61,1.09-1.66-1.25,8.65-5.76,1.87,1.41-3.14,9.9Zm-1.13-5,2.23,1.67,1.33-4.1Z"/><path class="cls-3" d="M1033.25,1170.51l.91-1.21,5.79,4.34-.91,1.21-2.12-1.59-5,6.61-1.57-1.18,5-6.6Z"/><path class="cls-3" d="M1035.29,1182.37l5.87-7.82,1.57,1.19-5.87,7.81Z"/><path class="cls-3" d="M1042,1187.57a4.91,4.91,0,0,1-2-3.27,5.05,5.05,0,1,1,9,2.27,4.77,4.77,0,0,1-3.31,2A4.89,4.89,0,0,1,1042,1187.57Zm3.34-.85a3.28,3.28,0,0,0,2.06-1.37,3.19,3.19,0,0,0,.73-2.35,3.11,3.11,0,0,0-3.45-2.59,3.22,3.22,0,0,0-2.07,1.35,3.26,3.26,0,0,0-.73,2.36,2.87,2.87,0,0,0,1.21,2A2.83,2.83,0,0,0,1045.38,1186.72Z"/><path class="cls-3" d="M1058.34,1187.43l1.58,1.19-5.89,7.83-1.58-1.18.54-8.08-4.07,5.42-1.58-1.19,5.89-7.83,1.57,1.19-.53,8.07Z"/><path class="cls-3" d="M1067.59,1194.42a5.35,5.35,0,0,1,2.23,3.36,5.07,5.07,0,0,1-4.26,5.67,5.4,5.4,0,0,1-3.84-1.22l-2.65-2,5.87-7.81Zm-6,5.81,1.07.8a3.08,3.08,0,0,0,2.46.71,4,4,0,0,0,3-3.94,3.12,3.12,0,0,0-1.36-2.16l-1.08-.81Z"/><path class="cls-3" d="M1067.16,1206.32l5.87-7.81,1.58,1.18-5.87,7.82Z"/><path class="cls-3" d="M1070.42,1208.77l5.87-7.82,4.83,3.64-.91,1.21-3.25-2.45-1.54,2.05,2.48,1.86-.91,1.21-2.48-1.86L1072,1210Z"/><path class="cls-3" d="M1076.49,1213.33l5.87-7.81,4.84,3.63-.91,1.21-3.26-2.44-1.53,2,2.48,1.87-.91,1.21-2.48-1.87-2.52,3.35Z"/><path class="cls-3" d="M1082.57,1217.9l5.87-7.81,1.58,1.18-5.87,7.82Z"/><path class="cls-3" d="M1087.34,1219.82a5,5,0,0,1,8-4.72,5.09,5.09,0,0,1,1.78,2.35,4.46,4.46,0,0,1,.05,2.89l-1.9-1.42a2.32,2.32,0,0,0-1-2.38,2.88,2.88,0,0,0-2.26-.6,3.28,3.28,0,0,0-2.06,1.36,3.2,3.2,0,0,0-.73,2.36,2.83,2.83,0,0,0,1.2,2,2.33,2.33,0,0,0,2.57.31l1.89,1.42a4.4,4.4,0,0,1-2.78.76,5.08,5.08,0,0,1-2.75-1.06A4.92,4.92,0,0,1,1087.34,1219.82Z"/><path class="cls-3" d="M1096.67,1223.8l3.61-4.81,1.58,1.18-3.62,4.82a2.1,2.1,0,0,0-.51,1.52,2.34,2.34,0,0,0,2.35,1.77,2.1,2.1,0,0,0,1.33-.91l3.62-4.82,1.56,1.18-3.61,4.81a3.55,3.55,0,0,1-2.64,1.58,4.19,4.19,0,0,1-2.87-.9,4.07,4.07,0,0,1-1.63-2.46A3.65,3.65,0,0,1,1096.67,1223.8Z"/><path class="cls-3" d="M1108.24,1225l1.58,1.18-5,6.62,2.5,1.88-.9,1.2-4.08-3.07Z"/><path class="cls-3" d="M1112,1229.7l.91-1.21,5.79,4.35-.91,1.21-2.12-1.59-5,6.6-1.57-1.18,5-6.6Z"/><path class="cls-3" d="M1114.05,1241.56l5.87-7.81,1.58,1.18-5.87,7.82Z"/><path class="cls-3" d="M1127.71,1239.56l-.91,1.21-2.93-2.2-1.54,2,2.6,2-.91,1.21-2.6-2-1.62,2.16,2.93,2.2-.91,1.21-4.51-3.39,5.89-7.84Z"/><path class="cls-3" d="M1131,1243.85a1.48,1.48,0,0,0-1-.34,1,1,0,0,0-.8.45,1.18,1.18,0,0,0-.28.83,1.65,1.65,0,0,0,.3.8,6.94,6.94,0,0,0,.61.82c.23.28.45.57.66.88a5.23,5.23,0,0,1,.52,1,1.94,1.94,0,0,1,.11,1,2.62,2.62,0,0,1-.53,1.16,2.7,2.7,0,0,1-2,1.08,3.64,3.64,0,0,1-2.56-.84,4.06,4.06,0,0,1-1.6-2.14,2.51,2.51,0,0,1,.48-2.27l1.68,1.26a1.29,1.29,0,0,0,.4,1.91,1.53,1.53,0,0,0,1.06.36,1.18,1.18,0,0,0,.87-.51,1,1,0,0,0,.14-1,3.78,3.78,0,0,0-.7-1.16c-.32-.38-.64-.79-.93-1.21a2.69,2.69,0,0,1-.51-1.42,2.3,2.3,0,0,1,.53-1.57,2.59,2.59,0,0,1,2-1.12,3.75,3.75,0,0,1,2.47.85,3.93,3.93,0,0,1,1.53,2,2.63,2.63,0,0,1-.46,2.29l-1.72-1.29a1.32,1.32,0,0,0,.2-1A1.37,1.37,0,0,0,1131,1243.85Z"/></g></g><g id="VIOL-4" data-name="VIOL"><line class="cls-5" x1="629.35" y1="864.93" x2="578.16" y2="847.87"/><path class="cls-6" d="M629.35,871.1a6.18,6.18,0,1,1,6.18-6.18A6.18,6.18,0,0,1,629.35,871.1Z"/><path class="cls-1" d="M629.35,859.75a5.18,5.18,0,1,1-5.18,5.17,5.18,5.18,0,0,1,5.18-5.17m0-2a7.18,7.18,0,1,0,7.18,7.17,7.18,7.18,0,0,0-7.18-7.17Z"/><g class="cls-7"><path class="cls-3" d="M1029.52,983.62a5.43,5.43,0,0,1,3.22,2.43,4.61,4.61,0,0,1,.3,3.83,4.56,4.56,0,0,1-2.45,2.94,5.42,5.42,0,0,1-4,.12l-3.17-1,2.95-9.32Zm-3.78,7.48,1.28.41a3.16,3.16,0,0,0,2.56-.14,3.48,3.48,0,0,0,1.55-2.1,3.4,3.4,0,0,0-.07-2.6,3.11,3.11,0,0,0-2-1.59l-1.28-.41Z"/><path class="cls-3" d="M1041.39,987.35l-.46,1.44-3.49-1.1-.77,2.44,3.09,1-.46,1.44-3.09-1-.82,2.58,3.5,1.11-.46,1.44-5.38-1.71,3-9.34Z"/><path class="cls-3" d="M1047.92,994.56a2.54,2.54,0,0,1-1.27.37,4.59,4.59,0,0,1-1.69-.25l-1.55-.49-1.17,3.71-1.89-.59,3-9.32,3.44,1.09a3.75,3.75,0,0,1,2.23,1.59,2.65,2.65,0,0,1,.27,2.18A3,3,0,0,1,1047.92,994.56Zm-4.05-1.81,1.55.49a1.56,1.56,0,0,0,1.19,0,1.58,1.58,0,0,0,.63-2,1.52,1.52,0,0,0-1-.71l-1.55-.49Z"/><path class="cls-3" d="M1051.62,996.79l-1.18,3.71-1.88-.59,3-9.32,3.43,1.09a3.74,3.74,0,0,1,2.24,1.59,2.75,2.75,0,0,1,.24,2.27,3,3,0,0,1-1.06,1.48,2.92,2.92,0,0,1-2,.51l1.16,4.58-2.22-.71-1.06-4.41Zm1.32-4.16-.86,2.72,1.54.49a1.59,1.59,0,0,0,1.2,0,1.58,1.58,0,0,0,.63-2,1.52,1.52,0,0,0-1-.71Z"/><path class="cls-3" d="M1065.56,995l-.46,1.44-3.49-1.11-.77,2.45,3.09,1-.46,1.44-3.09-1-.82,2.57,3.5,1.11-.46,1.44-5.38-1.7,3-9.34Z"/><path class="cls-3" d="M1070.06,998a1.52,1.52,0,0,0-1,0,1,1,0,0,0-.61.69,1.23,1.23,0,0,0,0,.87,1.8,1.8,0,0,0,.55.66c.25.19.54.38.85.57a10.59,10.59,0,0,1,.92.62,5.06,5.06,0,0,1,.8.72,2,2,0,0,1,.45,1,2.54,2.54,0,0,1-.11,1.26,2.71,2.71,0,0,1-1.54,1.69,3.65,3.65,0,0,1-2.69,0,4.13,4.13,0,0,1-2.23-1.49,2.47,2.47,0,0,1-.29-2.3l2,.63a1.3,1.3,0,0,0,1,1.68,1.53,1.53,0,0,0,1.12,0,1.19,1.19,0,0,0,.66-.77,1.06,1.06,0,0,0-.22-1,4.15,4.15,0,0,0-1-.86,14.84,14.84,0,0,1-1.29-.83,2.79,2.79,0,0,1-1-1.17,2.36,2.36,0,0,1,0-1.66,2.61,2.61,0,0,1,1.57-1.74,3.82,3.82,0,0,1,2.61,0,4,4,0,0,1,2.12,1.4,2.71,2.71,0,0,1,.32,2.31l-2-.65a1.3,1.3,0,0,0-.94-1.57Z"/><path class="cls-3" d="M1078.38,1000.62a1.49,1.49,0,0,0-1,0,1,1,0,0,0-.61.68,1.26,1.26,0,0,0,0,.88,1.71,1.71,0,0,0,.55.66,9,9,0,0,0,.85.57c.31.19.62.39.92.61a5.65,5.65,0,0,1,.8.73,1.91,1.91,0,0,1,.45,1,2.68,2.68,0,0,1-.11,1.26,2.72,2.72,0,0,1-1.54,1.68,3.64,3.64,0,0,1-2.69.06,4.15,4.15,0,0,1-2.23-1.49,2.51,2.51,0,0,1-.3-2.3l2,.63a1.28,1.28,0,0,0,1,1.67,1.53,1.53,0,0,0,1.12,0,1.15,1.15,0,0,0,.65-.77,1,1,0,0,0-.21-1,4,4,0,0,0-1-.86c-.43-.25-.86-.53-1.28-.83a2.72,2.72,0,0,1-1-1.17,2.3,2.3,0,0,1,0-1.66,2.62,2.62,0,0,1,1.56-1.74,3.77,3.77,0,0,1,2.61,0,3.93,3.93,0,0,1,2.12,1.4,2.67,2.67,0,0,1,.33,2.31l-2.06-.65a1.26,1.26,0,0,0-.94-1.57Z"/><path class="cls-3" d="M1081.18,1010.24l3-9.32,1.88.6-3,9.31Z"/><path class="cls-3" d="M1089.28,1012.91a4.92,4.92,0,0,1-3-2.43,5.05,5.05,0,1,1,9.24-.84,4.79,4.79,0,0,1-2.46,3A4.88,4.88,0,0,1,1089.28,1012.91Zm2.86-1.91a3.7,3.7,0,0,0,1.41-4.44,3.13,3.13,0,0,0-4.12-1.29,3.18,3.18,0,0,0-1.5,2,3.26,3.26,0,0,0,.09,2.47,2.86,2.86,0,0,0,1.8,1.48A2.82,2.82,0,0,0,1092.14,1011Z"/><path class="cls-3" d="M1104.61,1007.38l1.88.6-3,9.34-1.88-.6-2.17-7.79-2,6.46-1.88-.6,3-9.34,1.88.59,2.18,7.8Z"/></g></g><g id="VIOL-5" data-name="VIOL"><line class="cls-5" x1="648.73" y1="848.08" x2="578.16" y2="847.87"/><path class="cls-6" d="M648.73,854.26a6.18,6.18,0,1,1,6.18-6.18A6.18,6.18,0,0,1,648.73,854.26Z"/><path class="cls-1" d="M648.73,842.9a5.18,5.18,0,1,1-5.17,5.18,5.18,5.18,0,0,1,5.17-5.18m0-2a7.18,7.18,0,1,0,7.18,7.18,7.18,7.18,0,0,0-7.18-7.18Z"/><g class="cls-7"><path class="cls-3" d="M1049.36,839.16a5.34,5.34,0,0,1,3.8,1.35,5.07,5.07,0,0,1,0,7.1,5.41,5.41,0,0,1-3.8,1.33H1046v-9.78Zm-1.34,8.28h1.34a3.16,3.16,0,0,0,2.4-.91,4,4,0,0,0,0-4.93,3.12,3.12,0,0,0-2.4-.91H1048Z"/><path class="cls-3" d="M1056.17,848.94v-9.78h2v9.78Z"/><path class="cls-3" d="M1060.24,848.94v-9.78h6v1.51h-4.08v2.56h3.11v1.51h-3.11v4.19Z"/><path class="cls-3" d="M1067.84,848.94v-9.77h6.05v1.51h-4.07v2.56h3.1v1.51h-3.1v4.19Z"/><path class="cls-3" d="M1075.44,848.94v-9.77h2v9.77Z"/><path class="cls-3" d="M1080.41,847.61a5.17,5.17,0,0,1,0-7.17A4.9,4.9,0,0,1,1084,839a5,5,0,0,1,2.83.81,4.47,4.47,0,0,1,1.78,2.28h-2.37a2.32,2.32,0,0,0-2.24-1.29,2.81,2.81,0,0,0-2.16.88,3.62,3.62,0,0,0,0,4.64,2.81,2.81,0,0,0,2.16.88,2.34,2.34,0,0,0,2.24-1.29h2.37a4.47,4.47,0,0,1-1.78,2.28,5.12,5.12,0,0,1-2.83.8A4.89,4.89,0,0,1,1080.41,847.61Z"/><path class="cls-3" d="M1090.26,845.19v-6h2v6a2.07,2.07,0,0,0,.51,1.52,2.32,2.32,0,0,0,2.93,0,2,2,0,0,0,.52-1.52v-6h2v6A3.58,3.58,0,0,1,1097,848a4.24,4.24,0,0,1-2.83,1,4,4,0,0,1-2.79-1A3.62,3.62,0,0,1,1090.26,845.19Z"/><path class="cls-3" d="M1100.21,839.17h2v8.27h3.14v1.5h-5.11Z"/><path class="cls-3" d="M1106.07,840.68v-1.51h7.24v1.51h-2.64v8.26h-2v-8.26Z"/><path class="cls-3" d="M1114.82,848.94v-9.77h2v9.77Z"/><path class="cls-3" d="M1124.54,839.14v1.51h-3.67v2.56h3.25v1.52h-3.25v2.7h3.67v1.51h-5.64v-9.8Z"/><path class="cls-3" d="M1129.72,840.61a1.49,1.49,0,0,0-1,.3,1,1,0,0,0-.37.83,1.21,1.21,0,0,0,.27.84,1.82,1.82,0,0,0,.72.46c.3.11.63.2,1,.29a10.69,10.69,0,0,1,1.07.3,6.78,6.78,0,0,1,1,.45,2,2,0,0,1,.72.78,2.61,2.61,0,0,1,.27,1.24,2.7,2.7,0,0,1-1,2.07,3.65,3.65,0,0,1-2.55.87,4.1,4.1,0,0,1-2.56-.75,2.48,2.48,0,0,1-1-2.11h2.1a1.29,1.29,0,0,0,1.47,1.29,1.56,1.56,0,0,0,1.06-.35,1.18,1.18,0,0,0,.39-.93,1,1,0,0,0-.52-.92,3.85,3.85,0,0,0-1.25-.5c-.49-.11-1-.25-1.48-.41a2.79,2.79,0,0,1-1.26-.83,2.34,2.34,0,0,1-.51-1.58,2.62,2.62,0,0,1,1-2.12,3.74,3.74,0,0,1,2.49-.8,4,4,0,0,1,2.44.69,2.69,2.69,0,0,1,1,2.11h-2.16a1.28,1.28,0,0,0-1.37-1.22Z"/><path class="cls-3" d="M1139.49,848.94v-9.77h2v9.77Z"/><path class="cls-3" d="M1150,839.14h2v9.8h-2l-4.42-6.77v6.77h-2v-9.8h2l4.42,6.78Z"/><path class="cls-3" d="M1160.21,845.05v3.89h-2v-9.77h3.6a3.68,3.68,0,0,1,2.61.85,2.72,2.72,0,0,1,.91,2.09,2.82,2.82,0,0,1-2.32,2.81l2.49,4h-2.34l-2.33-3.89Zm0-4.37v2.86h1.63a1.54,1.54,0,0,0,1.13-.39,1.58,1.58,0,0,0,0-2.08,1.54,1.54,0,0,0-1.13-.39Z"/><path class="cls-3" d="M1173,839.14v1.51h-3.67v2.57h3.25v1.51h-3.25v2.7H1173v1.51h-5.65v-9.8Z"/><path class="cls-3" d="M1175,839.17h2v8.27h3.13v1.5H1175Z"/><path class="cls-3" d="M1187.83,848.94l-.63-1.83h-3.8l-.64,1.83h-2.08l3.46-9.8h2.33l3.45,9.8Zm-3.92-3.34h2.79l-1.4-4.08Z"/><path class="cls-3" d="M1190.72,840.68v-1.51H1198v1.51h-2.65v8.26h-2v-8.26Z"/><path class="cls-3" d="M1199.47,848.94v-9.77h2v9.77Z"/><path class="cls-3" d="M1208,849a4.87,4.87,0,0,1-3.55-1.41,5.17,5.17,0,0,1,0-7.18,5.16,5.16,0,0,1,7.11,0,5.2,5.2,0,0,1,0,7.18A4.89,4.89,0,0,1,1208,849Zm2.16-2.68a3.71,3.71,0,0,0,0-4.65,3.12,3.12,0,0,0-4.32,0,3.67,3.67,0,0,0,0,4.65,3.09,3.09,0,0,0,4.32,0Z"/><path class="cls-3" d="M1220.94,839.14h2v9.8h-2l-4.42-6.77v6.77h-2v-9.8h2l4.42,6.78Z"/><path class="cls-3" d="M1228.18,840.61a1.44,1.44,0,0,0-1,.31,1,1,0,0,0-.37.83,1.2,1.2,0,0,0,.27.83,1.79,1.79,0,0,0,.72.46,7.77,7.77,0,0,0,1,.29c.35.09.7.19,1.06.31a5.15,5.15,0,0,1,1,.45,1.85,1.85,0,0,1,.72.77,2.8,2.8,0,0,1-.69,3.31,3.63,3.63,0,0,1-2.54.87,4.11,4.11,0,0,1-2.57-.75,2.48,2.48,0,0,1-1-2.1h2.1a1.28,1.28,0,0,0,1.47,1.28,1.54,1.54,0,0,0,1.06-.34,1.21,1.21,0,0,0,.39-.94,1,1,0,0,0-.52-.91,3.64,3.64,0,0,0-1.25-.51c-.49-.11-1-.24-1.47-.4a2.7,2.7,0,0,1-1.26-.84,2.27,2.27,0,0,1-.52-1.57,2.62,2.62,0,0,1,1-2.13,3.81,3.81,0,0,1,2.49-.8,3.91,3.91,0,0,1,2.44.7,2.66,2.66,0,0,1,1,2.1h-2.16a1.28,1.28,0,0,0-.42-.89A1.4,1.4,0,0,0,1228.18,840.61Z"/><path class="cls-3" d="M1239.93,839.17h2V849h-2v-4.19h-4.2V849h-2v-9.78h2v4.08h4.2Z"/><path class="cls-3" d="M1244,849v-9.78h2V849Z"/><path class="cls-3" d="M1254.46,844.05a2.59,2.59,0,0,1-1.1.73,4.79,4.79,0,0,1-1.69.27h-1.62V849h-2v-9.78h3.6a3.73,3.73,0,0,1,2.61.85,2.65,2.65,0,0,1,.92,2A3.1,3.1,0,0,1,1254.46,844.05Zm-4.41-.51h1.62a1.58,1.58,0,0,0,1.14-.38,1.6,1.6,0,0,0,0-2.09,1.54,1.54,0,0,0-1.14-.38h-1.62Z"/><path class="cls-3" d="M1259.85,840.62a1.49,1.49,0,0,0-1,.3,1,1,0,0,0-.37.83,1.18,1.18,0,0,0,.27.83,1.77,1.77,0,0,0,.72.47c.3.1.63.2,1,.28s.71.19,1.07.31a5.15,5.15,0,0,1,1,.45,2,2,0,0,1,.72.78,2.6,2.6,0,0,1,.27,1.23,2.71,2.71,0,0,1-1,2.08,3.69,3.69,0,0,1-2.55.86,4.13,4.13,0,0,1-2.57-.75,2.49,2.49,0,0,1-1-2.1h2.1a1.3,1.3,0,0,0,1.47,1.29,1.57,1.57,0,0,0,1.07-.35,1.21,1.21,0,0,0,.39-.93,1,1,0,0,0-.52-.92,3.85,3.85,0,0,0-1.25-.51c-.49-.11-1-.24-1.48-.4a2.87,2.87,0,0,1-1.26-.83,2.37,2.37,0,0,1-.52-1.58,2.63,2.63,0,0,1,1-2.13,3.78,3.78,0,0,1,2.49-.8,4,4,0,0,1,2.44.7,2.7,2.7,0,0,1,1,2.1h-2.16a1.34,1.34,0,0,0-.42-.88A1.36,1.36,0,0,0,1259.85,840.62Z"/></g></g><g id="VIOL-6" data-name="VIOL"><line class="cls-5" x1="645.58" y1="825.65" x2="578.16" y2="847.87"/><circle class="cls-6" cx="645.61" cy="825.65" r="6.18"/><path class="cls-1" d="M645.61,820.47a5.18,5.18,0,1,1-5.18,5.18,5.18,5.18,0,0,1,5.18-5.18m0-2a7.18,7.18,0,1,0,7.18,7.18,7.19,7.19,0,0,0-7.18-7.18Z"/><g class="cls-7"><path class="cls-3" d="M1023.55,691.36a5.31,5.31,0,0,1,4,.11,4.6,4.6,0,0,1,2.47,2.93,4.55,4.55,0,0,1-.29,3.82,5.36,5.36,0,0,1-3.2,2.43l-3.16,1-3-9.3Zm1.27,8.28,1.28-.41a3.13,3.13,0,0,0,2-1.6,4,4,0,0,0-1.52-4.69,3.1,3.1,0,0,0-2.55-.13l-1.28.41Z"/><path class="cls-3" d="M1033,698.56l-3-9.3,1.88-.61,3,9.3Z"/><path class="cls-3" d="M1036.91,697.3l-3-9.3,5.76-1.86.47,1.44-3.88,1.25.79,2.44,3-.95.47,1.43-3,1,1.3,4Z"/><path class="cls-3" d="M1044.14,695l-3-9.3,5.75-1.86.47,1.44-3.88,1.25.79,2.44,3-1,.46,1.44-3,1,1.29,4Z"/><path class="cls-3" d="M1051.37,692.62l-3-9.3,1.88-.61,3,9.3Z"/><path class="cls-3" d="M1055.69,689.82a5.16,5.16,0,0,1-2.2-6.82,4.88,4.88,0,0,1,2.94-2.44,5,5,0,0,1,3-.1,4.45,4.45,0,0,1,2.38,1.62l-2.25.73a2.3,2.3,0,0,0-2.53-.53,2.8,2.8,0,0,0-1.78,1.5,3.19,3.19,0,0,0-.08,2.46,3.26,3.26,0,0,0,1.51,2,2.84,2.84,0,0,0,2.33.16,2.33,2.33,0,0,0,1.73-1.91l2.25-.73a4.46,4.46,0,0,1-1,2.71,5.15,5.15,0,0,1-2.45,1.64A4.9,4.9,0,0,1,1055.69,689.82Z"/><path class="cls-3" d="M1064.3,684.48l-1.85-5.73,1.88-.6,1.85,5.72a2.13,2.13,0,0,0,1,1.3,2.33,2.33,0,0,0,2.79-.91,2.06,2.06,0,0,0,0-1.61l-1.85-5.72,1.86-.61,1.86,5.73a3.57,3.57,0,0,1-.23,3.07,4.2,4.2,0,0,1-2.38,1.82,4.06,4.06,0,0,1-3-.09A3.65,3.65,0,0,1,1064.3,684.48Z"/><path class="cls-3" d="M1071.92,675.69l1.88-.61,2.55,7.87,3-1,.46,1.43-4.86,1.57Z"/><path class="cls-3" d="M1078,675.32l-.47-1.44,6.88-2.23.47,1.44-2.52.81,2.55,7.86-1.86.61-2.55-7.86Z"/><path class="cls-3" d="M1093.06,679.11l-1.88.61-1-3.2-5.11-5.08,2.1-.68,3.4,3.74.55-5,2.11-.68-1.17,7.11Z"/><path class="cls-3" d="M1101.39,676.41l-3-9.3,1.88-.6,3,9.29Z"/><path class="cls-3" d="M1108.34,663.86l1.88-.61,3,9.33-1.87.6-6.3-5.08,2.09,6.45-1.88.61-3-9.33,1.88-.61,6.3,5.09Z"/><path class="cls-3" d="M1119.67,661.73a1.47,1.47,0,0,0-.82.59,1,1,0,0,0-.1.9,1.2,1.2,0,0,0,.52.71,1.71,1.71,0,0,0,.83.22,8.94,8.94,0,0,0,1,0c.36,0,.73,0,1.11,0a5.31,5.31,0,0,1,1.07.13,2,2,0,0,1,.92.51,2.64,2.64,0,0,1,.65,1.1,2.74,2.74,0,0,1-.28,2.27,3.7,3.7,0,0,1-2.16,1.61,4.17,4.17,0,0,1-2.67.08,2.5,2.5,0,0,1-1.58-1.71l2-.64a1.28,1.28,0,0,0,1.79.77,1.57,1.57,0,0,0,.91-.66,1.22,1.22,0,0,0,.08-1,1,1,0,0,0-.77-.71,3.69,3.69,0,0,0-1.35-.09q-.75.06-1.53.06a2.7,2.7,0,0,1-1.46-.4,2.31,2.31,0,0,1-1-1.34,2.59,2.59,0,0,1,.26-2.32,3.72,3.72,0,0,1,2.12-1.52,3.93,3.93,0,0,1,2.54-.1,2.69,2.69,0,0,1,1.6,1.69l-2.05.67a1.36,1.36,0,0,0-.67-.72A1.4,1.4,0,0,0,1119.67,661.73Z"/><path class="cls-3" d="M1124.53,658.64l1.87-.6,2.56,7.87,3-1,.46,1.43-4.86,1.57Z"/><path class="cls-3" d="M1136,654.89l.47,1.44-3.49,1.13.79,2.44,3.09-1,.46,1.44-3.09,1,.84,2.57,3.49-1.13.46,1.44-5.37,1.74-3-9.33Z"/><path class="cls-3" d="M1143.3,652.53l.46,1.44-3.49,1.13.79,2.44,3.09-1,.47,1.44-3.09,1,.83,2.57,3.49-1.13.47,1.44L1141,663.6l-3-9.33Z"/><path class="cls-3" d="M1152.8,654.61a2.58,2.58,0,0,1-.82,1,4.64,4.64,0,0,1-1.52.79l-1.55.5,1.2,3.7-1.87.61-3-9.3,3.43-1.11a3.68,3.68,0,0,1,2.74,0,2.64,2.64,0,0,1,1.49,1.62A3,3,0,0,1,1152.8,654.61Zm-4.35.88,1.54-.5a1.6,1.6,0,0,0,1-.72,1.37,1.37,0,0,0,0-1.11,1.35,1.35,0,0,0-.69-.87,1.54,1.54,0,0,0-1.2,0l-1.54.5Z"/><path class="cls-3" d="M1156.43,658.58l-3-9.29,1.88-.61,3,9.29Z"/><path class="cls-3" d="M1163.37,646l1.88-.61,3,9.33-1.88.61-6.3-5.09,2.09,6.45-1.88.61-3-9.33,1.88-.6,6.3,5.08Z"/><path class="cls-3" d="M1170.71,652.56a5.17,5.17,0,0,1-2.21-6.82,4.88,4.88,0,0,1,2.94-2.44,5.05,5.05,0,0,1,3-.1,4.48,4.48,0,0,1,2.39,1.62l-2.25.73A2.31,2.31,0,0,0,1172,645a2.86,2.86,0,0,0-1.79,1.49,3.69,3.69,0,0,0,1.43,4.43,2.74,2.74,0,0,0,2.22.2,2.84,2.84,0,0,0,1.63-1.15,2.64,2.64,0,0,0,.32-1.79l-3.09,1-.46-1.43,5.1-1.65.46,1.42a4.67,4.67,0,0,1-.63,3.14,5,5,0,0,1-6.48,1.88Z"/></g></g><g id="VIOL-7" data-name="VIOL"><line class="cls-5" x1="721.17" y1="743.57" x2="578.16" y2="847.87"/><path class="cls-6" d="M721.17,749.74a6.18,6.18,0,1,1,6.18-6.17A6.18,6.18,0,0,1,721.17,749.74Z"/><path class="cls-1" d="M721.17,738.39a5.18,5.18,0,1,1-5.18,5.18,5.18,5.18,0,0,1,5.18-5.18m0-2a7.18,7.18,0,1,0,7.18,7.18,7.19,7.19,0,0,0-7.18-7.18Z"/><g class="cls-7"><path class="cls-3" d="M957.28,571.94l-5.77-7.89,4.88-3.57.89,1.22L954,564.1l1.51,2.07,2.51-1.84.89,1.23-2.51,1.83,2.48,3.38Z"/><path class="cls-3" d="M962.18,556.2l.89,1.22-3,2.17,1.52,2.07,2.62-1.92.89,1.22-2.62,1.92,1.6,2.18,3-2.17.89,1.22-4.55,3.33-5.79-7.9Z"/><path class="cls-3" d="M968.36,551.68l.89,1.22-3,2.17,1.52,2.06,2.62-1.92.89,1.22-2.62,1.92,1.6,2.18,3-2.16.89,1.22-4.55,3.33L963.81,555Z"/><path class="cls-3" d="M970,550.51l1.59-1.17,4.89,6.68,2.53-1.85.89,1.21-4.13,3Z"/><path class="cls-3" d="M981,554.59l-5.77-7.88,1.59-1.17,5.77,7.88Z"/><path class="cls-3" d="M983.63,540.5l1.59-1.17,5.79,7.91-1.59,1.16-7.57-2.85,4,5.47-1.59,1.16-5.79-7.9,1.59-1.17,7.57,2.85Z"/><path class="cls-3" d="M992.64,544.39a5.17,5.17,0,0,1-4.23-5.78,4.93,4.93,0,0,1,2-3.24,5,5,0,0,1,2.77-1,4.5,4.5,0,0,1,2.78.79l-1.91,1.4a2.31,2.31,0,0,0-2.57.29,2.81,2.81,0,0,0-1.23,2,3.25,3.25,0,0,0,.7,2.37,3.2,3.2,0,0,0,2,1.38,2.74,2.74,0,0,0,2.16-.5,2.88,2.88,0,0,0,1.19-1.61,2.57,2.57,0,0,0-.26-1.8l-2.62,1.92-.88-1.21,4.32-3.17.89,1.21a4.8,4.8,0,0,1-1.58,6.1A4.68,4.68,0,0,1,992.64,544.39Z"/><path class="cls-3" d="M1007,535.55l-8.65-5.78,1.68-1.23,6.76,4.71-2.45-7.87,1.7-1.24,2.88,10Z"/><path class="cls-3" d="M1010.55,528.28l-3.56-4.86,1.59-1.17,3.56,4.86a2.12,2.12,0,0,0,1.32.93,1.93,1.93,0,0,0,1.48-.45,2,2,0,0,0,.88-1.28,2.08,2.08,0,0,0-.48-1.54l-3.56-4.86,1.58-1.16,3.56,4.86a3.57,3.57,0,0,1,.75,3,4.26,4.26,0,0,1-1.7,2.48,4.07,4.07,0,0,1-2.83.84A3.61,3.61,0,0,1,1010.55,528.28Z"/><path class="cls-3" d="M1015,517.54l1.59-1.17,4.89,6.68,2.53-1.85.89,1.2-4.12,3Z"/><path class="cls-3" d="M1025.36,509.93l1.6-1.16,5.79,7.9-1.6,1.17-7.57-2.85,4,5.46-1.59,1.17-5.79-7.91,1.59-1.16,7.58,2.85Z"/><path class="cls-3" d="M1033.2,504.19l.89,1.22-2.95,2.17,1.51,2.07,2.62-1.92.89,1.22-2.62,1.92,1.6,2.18,3-2.17.89,1.22-4.55,3.33-5.79-7.9Z"/><path class="cls-3" d="M1039.91,506.6l2.3,3.14-1.59,1.17-5.78-7.89,2.91-2.12a3.66,3.66,0,0,1,2.6-.86,2.71,2.71,0,0,1,2,1.14,2.82,2.82,0,0,1-.21,3.65l4.38,1.77-1.88,1.38-4.19-1.76Zm-2.58-3.52,1.69,2.3,1.31-1a1.55,1.55,0,0,0,.69-1,1.38,1.38,0,0,0-.3-1.07,1.37,1.37,0,0,0-.94-.61,1.57,1.57,0,0,0-1.14.36Z"/><path class="cls-3" d="M1053.12,501.75l-1.59-1.11-3.07,2.25.57,1.85-1.68,1.24-3-10,1.89-1.38,8.57,5.87Zm-5.14-.38,2.25-1.65-3.54-2.46Z"/><path class="cls-3" d="M1050.14,491.82l3.19-2.34a3.51,3.51,0,0,1,2.34-.8,2.3,2.3,0,0,1,1.78,1,2.23,2.23,0,0,1-.23,2.9,2.38,2.38,0,0,1,1.74-.25,2.46,2.46,0,0,1,1.41.95,2.25,2.25,0,0,1,.4,2,3.57,3.57,0,0,1-1.48,2l-3.38,2.48Zm2.48.06,1.5,2,1.44-1.05a1.52,1.52,0,0,0,.64-.88,1.14,1.14,0,0,0-.24-1,1.17,1.17,0,0,0-.86-.53,1.52,1.52,0,0,0-1,.35Zm4,5.44,1.61-1.17a1.58,1.58,0,0,0,.64-.92,1.41,1.41,0,0,0-1.18-1.59,1.5,1.5,0,0,0-1.07.34l-1.6,1.16Z"/><path class="cls-3" d="M1057.48,486.45l1.59-1.17L1064,492l2.53-1.86.89,1.21-4.13,3Z"/><path class="cls-3" d="M1067.21,479.29l.89,1.22-3,2.16,1.52,2.07,2.62-1.92.89,1.22-2.62,1.92,1.6,2.18,3-2.17.89,1.22-4.55,3.34-5.79-7.91Z"/></g></g><g id="VIOL-8" data-name="VIOL"><line class="cls-5" x1="645.73" y1="754.1" x2="578.16" y2="847.87"/><circle class="cls-6" cx="645.73" cy="754.1" r="6.18"/><path class="cls-1" d="M645.73,748.92a5.18,5.18,0,1,1-5.18,5.18,5.17,5.17,0,0,1,5.18-5.18m0-2a7.18,7.18,0,1,0,7.17,7.18,7.19,7.19,0,0,0-7.17-7.18Z"/><g class="cls-7"><path class="cls-3" d="M846.75,461.28l1.2-1.56,6.56,5,1.91-2.49,1.19.92-3.11,4.05Z"/><path class="cls-3" d="M861.21,458.66a4.87,4.87,0,0,1-3.29,2,5.2,5.2,0,0,1-5.69-4.38,5,5,0,0,1,8.06-4.59,4.8,4.8,0,0,1,2,3.33A4.88,4.88,0,0,1,861.21,458.66Zm-.81-3.34a3.68,3.68,0,0,0-3.69-2.84,3.12,3.12,0,0,0-2.63,3.43,3.25,3.25,0,0,0,1.34,2.08,3.19,3.19,0,0,0,2.35.75,2.84,2.84,0,0,0,2-1.18A2.81,2.81,0,0,0,860.4,455.32Z"/><path class="cls-3" d="M860.45,445.82a1.53,1.53,0,0,0-.35.95,1,1,0,0,0,.44.8,1.19,1.19,0,0,0,.83.29,1.7,1.7,0,0,0,.8-.29,9.47,9.47,0,0,0,.83-.6c.28-.23.58-.45.89-.66a5.1,5.1,0,0,1,1-.5,2,2,0,0,1,1.06-.1,2.56,2.56,0,0,1,1.15.54,2.68,2.68,0,0,1,1.05,2,3.62,3.62,0,0,1-.86,2.55,4.13,4.13,0,0,1-2.16,1.58,2.5,2.5,0,0,1-2.27-.51l1.28-1.66a1.29,1.29,0,0,0,1.92-.38,1.55,1.55,0,0,0,.37-1.06,1.17,1.17,0,0,0-.5-.88,1.07,1.07,0,0,0-1-.15,3.82,3.82,0,0,0-1.16.69q-.58.48-1.23.93a2.85,2.85,0,0,1-1.42.49,2.38,2.38,0,0,1-1.57-.55,2.64,2.64,0,0,1-1.1-2.07,3.79,3.79,0,0,1,.88-2.45,4,4,0,0,1,2-1.52,2.71,2.71,0,0,1,2.29.49l-1.32,1.71a1.31,1.31,0,0,0-1-.21A1.37,1.37,0,0,0,860.45,445.82Z"/><path class="cls-3" d="M865.77,438.9a1.49,1.49,0,0,0-.34.94,1,1,0,0,0,.43.8,1.14,1.14,0,0,0,.83.29,1.66,1.66,0,0,0,.81-.29,9.39,9.39,0,0,0,.82-.6,9.67,9.67,0,0,1,.89-.65,5.24,5.24,0,0,1,1-.51,1.94,1.94,0,0,1,1.05-.1,2.8,2.8,0,0,1,2.21,2.57,3.61,3.61,0,0,1-.87,2.54,4.06,4.06,0,0,1-2.16,1.58,2.46,2.46,0,0,1-2.26-.5l1.28-1.67a1.28,1.28,0,0,0,1.91-.38,1.48,1.48,0,0,0,.37-1.05,1.17,1.17,0,0,0-.49-.88,1,1,0,0,0-1.05-.15,4.07,4.07,0,0,0-1.16.69c-.39.32-.79.62-1.22.92a2.82,2.82,0,0,1-1.43.49,2.32,2.32,0,0,1-1.57-.55,2.62,2.62,0,0,1-1.09-2.06,3.75,3.75,0,0,1,.88-2.46,3.92,3.92,0,0,1,2-1.51,2.65,2.65,0,0,1,2.28.48l-1.31,1.71a1.31,1.31,0,0,0-1-.21A1.41,1.41,0,0,0,865.77,438.9Z"/><path class="cls-3" d="M881.13,432.76a4.88,4.88,0,0,1-3.29,1.95,5.17,5.17,0,0,1-5.69-4.38,5.15,5.15,0,0,1,4.33-5.63,5.19,5.19,0,0,1,5.69,4.37A4.94,4.94,0,0,1,881.13,432.76Zm-.82-3.35a3.68,3.68,0,0,0-3.69-2.83A3.1,3.1,0,0,0,874,430a3.66,3.66,0,0,0,3.68,2.84,2.85,2.85,0,0,0,2-1.19A2.81,2.81,0,0,0,880.31,429.41Z"/><path class="cls-3" d="M885,427.5l-7.75-6,3.69-4.79,1.2.92-2.49,3.23,2,1.56,1.89-2.46,1.2.92-1.89,2.46,3.31,2.56Z"/><path class="cls-3" d="M887.56,410.56a1.45,1.45,0,0,0-.35.94,1,1,0,0,0,.44.8,1.18,1.18,0,0,0,.82.3,1.89,1.89,0,0,0,.81-.29c.26-.18.54-.38.82-.61a10.37,10.37,0,0,1,.9-.65,5.16,5.16,0,0,1,1-.51,1.94,1.94,0,0,1,1-.09,2.59,2.59,0,0,1,1.15.53,2.71,2.71,0,0,1,1.06,2,3.67,3.67,0,0,1-.86,2.55,4.18,4.18,0,0,1-2.16,1.58,2.52,2.52,0,0,1-2.27-.51L891.2,415a1.29,1.29,0,0,0,1.92-.38,1.56,1.56,0,0,0,.37-1.05,1.2,1.2,0,0,0-.5-.88,1,1,0,0,0-1-.15,4.07,4.07,0,0,0-1.16.69c-.39.32-.79.63-1.22.92a2.7,2.7,0,0,1-1.43.49,2.3,2.3,0,0,1-1.56-.55,2.59,2.59,0,0,1-1.1-2.06,3.78,3.78,0,0,1,.88-2.46,4,4,0,0,1,2-1.51,2.65,2.65,0,0,1,2.28.48l-1.31,1.71a1.41,1.41,0,0,0-1-.21A1.39,1.39,0,0,0,887.56,410.56Z"/><path class="cls-3" d="M893.23,400.77l1.19.92-2.23,2.91,2,1.56,2-2.57,1.2.92-2,2.57,2.14,1.65,2.24-2.91,1.2.92-3.44,4.48-7.77-6Z"/><path class="cls-3" d="M894.48,399.19l1.2-1.56,6.56,5,1.91-2.49,1.19.91-3.12,4.06Z"/><path class="cls-3" d="M906.15,400l-7.75-6,3.69-4.79,1.2.92-2.49,3.23,2,1.56,1.9-2.46,1.2.92-1.9,2.46,3.32,2.55Z"/><path class="cls-3" d="M907.51,391.43l-1.3-1,3.63-4.72,1.29,1Z"/><path class="cls-3" d="M915.25,386a5.17,5.17,0,0,1-5.68-4.37,4.91,4.91,0,0,1,1-3.68,5.06,5.06,0,0,1,2.37-1.75,4.4,4.4,0,0,1,2.89,0l-1.44,1.87a2.33,2.33,0,0,0-2.39,1,2.84,2.84,0,0,0-.62,2.25,3.63,3.63,0,0,0,3.68,2.83,2.84,2.84,0,0,0,2-1.18,2.32,2.32,0,0,0,.35-2.56l1.44-1.87a4.38,4.38,0,0,1,.72,2.79,5,5,0,0,1-1.09,2.73A4.85,4.85,0,0,1,915.25,386Z"/><path class="cls-3" d="M925.11,375.54a4.88,4.88,0,0,1-3.29,1.95,5,5,0,1,1,4.33-5.64A4.9,4.9,0,0,1,925.11,375.54Zm-.81-3.35a3.27,3.27,0,0,0-1.35-2.07,3.21,3.21,0,0,0-2.35-.76,3.1,3.1,0,0,0-2.62,3.43,3.66,3.66,0,0,0,3.68,2.83,2.91,2.91,0,0,0,2-1.18A2.88,2.88,0,0,0,924.3,372.19Z"/><path class="cls-3" d="M925.15,359.24l1.2-1.57,7.77,6-1.2,1.57-8.07-.62,5.37,4.13-1.2,1.56-7.77-6,1.21-1.57,8.06.63Z"/><path class="cls-3" d="M935.4,362l-7.74-6,3.68-4.79,1.2.92-2.48,3.23,2,1.56,1.89-2.46,1.2.92-1.89,2.46,3.32,2.55Z"/><path class="cls-3" d="M940,356,932.29,350l1.2-1.57,7.75,6Z"/><path class="cls-3" d="M936.79,344.14a5.37,5.37,0,0,1,3.39-2.2,4.62,4.62,0,0,1,3.7,1,4.55,4.55,0,0,1,1.92,3.31,5.35,5.35,0,0,1-1.26,3.82l-2,2.63-7.75-6Zm5.74,6.1.82-1.06a3.09,3.09,0,0,0,.74-2.45,3.44,3.44,0,0,0-1.43-2.18,3.48,3.48,0,0,0-2.48-.83,3.13,3.13,0,0,0-2.18,1.35l-.82,1.06Z"/><path class="cls-3" d="M944.36,334.25l1.19.92-2.23,2.91,2,1.56,2-2.57,1.2.92-2,2.57,2.14,1.65,2.24-2.91,1.2.92-3.44,4.48-7.77-6Z"/><path class="cls-3" d="M949.48,327.58l1.21-1.56,7.77,6-1.21,1.56-8.06-.62,5.37,4.13-1.21,1.57-7.76-6,1.2-1.56,8.07.62Z"/><path class="cls-3" d="M959.23,328.8a5.17,5.17,0,0,1-5.68-4.37,4.91,4.91,0,0,1,1-3.68A5.06,5.06,0,0,1,957,319a4.4,4.4,0,0,1,2.89,0l-1.44,1.87a2.34,2.34,0,0,0-2.39,1,2.83,2.83,0,0,0-.62,2.25,3.63,3.63,0,0,0,3.68,2.83,2.83,2.83,0,0,0,2-1.18,2.34,2.34,0,0,0,.34-2.56l1.44-1.87a4.45,4.45,0,0,1,.73,2.79,5.14,5.14,0,0,1-1.09,2.73A4.9,4.9,0,0,1,959.23,328.8Z"/><path class="cls-3" d="M962,311.34l1.19.92-2.23,2.91,2,1.56,2-2.57,1.2.92-2,2.57,2.14,1.65,2.24-2.91,1.2.92-3.44,4.48-7.77-6Z"/></g></g><g id="VIOL-9" data-name="VIOL"><line class="cls-5" x1="588.8" y1="813.86" x2="578.16" y2="847.87"/><path class="cls-6" d="M588.79,820a6.17,6.17,0,0,1-6.07-5.08,6.17,6.17,0,0,1,5-7.17,5.74,5.74,0,0,1,1.09-.1,6.18,6.18,0,0,1,1.09,12.26A6.8,6.8,0,0,1,588.79,820Z"/><path class="cls-1" d="M588.8,808.68a5.18,5.18,0,0,1,.91,10.27,4.84,4.84,0,0,1-.92.08,5.18,5.18,0,0,1-.91-10.27,4.84,4.84,0,0,1,.92-.08m0-2h0a7.78,7.78,0,0,0-1.27.11A7.18,7.18,0,0,0,588.79,821a6.74,6.74,0,0,0,1.27-.11,7.18,7.18,0,0,0-1.26-14.24Z"/><g class="cls-7"><path class="cls-3" d="M721.12,393.24a2.44,2.44,0,0,1,.36,1.27,4.62,4.62,0,0,1-.26,1.69l-.5,1.54,3.7,1.21-.61,1.87-9.29-3,1.11-3.42a3.75,3.75,0,0,1,1.61-2.22,2.65,2.65,0,0,1,2.18-.26A3,3,0,0,1,721.12,393.24Zm-1.84,4,.5-1.55a1.54,1.54,0,0,0,0-1.2,1.43,1.43,0,0,0-.87-.69,1.39,1.39,0,0,0-1.12.05,1.56,1.56,0,0,0-.71,1l-.51,1.54Z"/><path class="cls-3" d="M728.45,386.54l-1.94,0-1.17,3.62,1.55,1.17-.65,2L718,387l.72-2.22,10.39-.25Zm-4.39,2.69.86-2.65-4.31.07Z"/><path class="cls-3" d="M722.18,374.13l.61-1.87,9.32,3-.61,1.87-7.81,2.12,6.44,2.09-.61,1.88-9.32-3,.61-1.88,7.81-2.11Z"/><path class="cls-3" d="M732.76,373.29l-9.3-3,.61-1.88,9.3,3Z"/><path class="cls-3" d="M733,368.15a5.18,5.18,0,0,1-6.82-2.22,4.89,4.89,0,0,1-.25-3.81,5.05,5.05,0,0,1,1.65-2.45,4.49,4.49,0,0,1,2.72-1l-.73,2.25a2.32,2.32,0,0,0-1.92,1.73,2.88,2.88,0,0,0,.16,2.33,3.26,3.26,0,0,0,2,1.51,3.22,3.22,0,0,0,2.47-.07,2.91,2.91,0,0,0,1.5-1.79,2.34,2.34,0,0,0-.54-2.53l.73-2.25a4.37,4.37,0,0,1,1.62,2.39,5.06,5.06,0,0,1-.11,2.95A4.88,4.88,0,0,1,733,368.15Z"/><path class="cls-3" d="M740.62,349.08l-1.94,0-1.17,3.63,1.54,1.16-.64,2-8.25-6.31.72-2.23,10.38-.24Zm-4.39,2.7.86-2.65-4.31.07Z"/><path class="cls-3" d="M733.66,343.79l-1.44-.47,2.23-6.88,1.44.46-.82,2.52,7.86,2.55-.61,1.87-7.85-2.56Z"/><path class="cls-3" d="M736.18,336l-1.44-.47,2.24-6.88,1.44.47-.82,2.51,7.86,2.56-.61,1.86L737,333.51Z"/><path class="cls-3" d="M748.72,324.14l-1.94,0-1.17,3.62,1.55,1.16-.65,2-8.25-6.32.72-2.22,10.39-.25Zm-4.39,2.7.86-2.65-4.31.07Z"/><path class="cls-3" d="M748.8,319.59a5.15,5.15,0,0,1-6.81-2.22,4.89,4.89,0,0,1-.25-3.81,5.05,5.05,0,0,1,1.65-2.45,4.47,4.47,0,0,1,2.72-1l-.74,2.25a2.31,2.31,0,0,0-1.91,1.74,2.82,2.82,0,0,0,.16,2.32,3.18,3.18,0,0,0,2,1.51,3.22,3.22,0,0,0,2.47-.07,2.82,2.82,0,0,0,1.5-1.79,2.32,2.32,0,0,0-.53-2.53l.73-2.25a4.48,4.48,0,0,1,1.62,2.39,5.14,5.14,0,0,1-.11,2.95A4.87,4.87,0,0,1,748.8,319.59Z"/><path class="cls-3" d="M753.73,308.74l-.61,1.88-9.3-3,.61-1.88,4.16,1.35-3.07-4.71.8-2.45,3.35,5.55,5.94-2.53-.79,2.44-5.22,2Z"/><path class="cls-3" d="M749.09,296.06a1.43,1.43,0,0,0,0,1,1,1,0,0,0,.68.61,1.18,1.18,0,0,0,.87,0,1.78,1.78,0,0,0,.67-.54q.29-.37.57-.84c.19-.32.4-.62.62-.92a5.65,5.65,0,0,1,.73-.8,1.94,1.94,0,0,1,1-.44,2.61,2.61,0,0,1,1.27.12,2.72,2.72,0,0,1,1.67,1.55,3.73,3.73,0,0,1,0,2.7,4.15,4.15,0,0,1-1.51,2.21,2.52,2.52,0,0,1-2.31.28l.65-2a1.29,1.29,0,0,0,1.68-1,1.54,1.54,0,0,0,0-1.12,1.2,1.2,0,0,0-.76-.66,1.05,1.05,0,0,0-1,.21,3.62,3.62,0,0,0-.86,1c-.26.43-.54.85-.85,1.27a2.69,2.69,0,0,1-1.18.95,2.36,2.36,0,0,1-1.66,0,2.62,2.62,0,0,1-1.72-1.57,3.77,3.77,0,0,1,0-2.61,3.91,3.91,0,0,1,1.41-2.11,2.65,2.65,0,0,1,2.32-.31l-.67,2.05a1.32,1.32,0,0,0-1,.12A1.35,1.35,0,0,0,749.09,296.06Z"/></g></g><g id="Livello_13" data-name="Livello 13"><rect class="cls-1" x="560.9" y="825.65" width="16.26" height="45.94"/><line class="cls-4" x1="577.16" y1="825.65" x2="577.16" y2="871.59"/></g></svg>