<?xml version="1.0" encoding="utf-8"?>
<!-- Generator: Adobe Illustrator 22.1.0, SVG Export Plug-In . SVG Version: 6.00 Build 0)  -->
<svg version="1.1" xmlns="http://www.w3.org/2000/svg" xmlns:xlink="http://www.w3.org/1999/xlink" x="0px" y="0px"
	 viewBox="0 0 534.5 493.5" style="enable-background:new 0 0 534.5 493.5;" xml:space="preserve">
<style type="text/css">
	.st0{fill:#111111;}
	.st1{opacity:0.15;fill:#9D77FC;}
	.st2{opacity:0.3;fill:#9D77FC;}
	.st3{opacity:0.5;fill:#9D77FC;}
	.st4{opacity:0.75;fill:#9D77FC;}
	.st5{fill:#9D77FC;}
	.st6{fill:#FDFDFF;}
	.st7{font-family:'Poppins-SemiBold';}
	.st8{font-size:14px;}
	.st9{fill:#999999;}
	.st10{fill:none;stroke:#999999;stroke-miterlimit:10;}
</style>
<g id="Livello_1">
	<rect class="st0" width="534.5" height="493.5"/>
	<rect x="825.1" y="-58.2" class="st0" width="322.2" height="132.5"/>
	<g transform="translate(0,0)">
	</g>
	<g transform="translate(0,0)">
	</g>
</g>
<g id="PL">
	<g>
		<path class="st1" d="M282.9,253.2l9.9,6.4c-4.8,7.4-12.9,12.1-21.7,12.5l-0.6-11.7C275.5,260.1,280.1,257.4,282.9,253.2z"/>
		<path class="st2" d="M297.3,262.6l20.8,13.5c-10.1,15.5-27,25.3-45.5,26.3l-1.3-24.8C281.9,277,291.5,271.5,297.3,262.6z"/>
		<path class="st3" d="M322.7,279.1l28.5,18.5c-17,26.1-45.4,42.6-76.5,44.2l-1.8-33.9C293.2,306.8,311.7,296.1,322.7,279.1z"/>
		<path class="st4" d="M355.8,300.6l17.5,11.4c-21.6,33.2-57.7,54.1-97.3,56.2l-1.1-20.9C307.8,345.5,337.9,328.2,355.8,300.6z"/>
		<path class="st5" d="M377.9,314.9l61.4,39.8c-35.3,54.3-94.4,88.5-159.1,91.9l-3.8-73.1C317.6,371.4,355.4,349.6,377.9,314.9z"/>
		<g>
			<text transform="matrix(-0.866 0.5 -0.5 -0.866 413.1882 443.9724)" class="st6 st7 st8">POLAND</text>
		</g>
	</g>
</g>
<g id="SW">
	<g>
		<path class="st1" d="M255.5,251.8l-16.3,8.3c-5-9.7-5-21.2,0-31l16.3,8.3C253.2,241.9,253.2,247.2,255.5,251.8z"/>
		<path class="st2" d="M234.3,262.5l-31.4,16c-10.9-21.4-10.9-46.6,0-68l31.4,16C228.6,237.9,228.6,251.3,234.3,262.5z"/>
		<path class="st3" d="M198,281l-19.8,10.1c-14.9-29.2-14.9-63.9,0-93.1l19.8,10.1C186.3,231,186.3,258.1,198,281z"/>
		<path class="st4" d="M173.3,293.6l-25.6,13c-19.9-39-19.9-85.2,0-124.2l25.6,13C157.6,226.3,157.6,262.8,173.3,293.6z"/>
		<path class="st5" d="M142.8,309.2l-74.5,38c-32.8-64.4-32.8-140.7,0-205.1l74.5,38C122.2,220.6,122.2,268.6,142.8,309.2z"/>
		<g>
			<text transform="matrix(0 -1 1 0 25.0514 270.9091)" class="st6 st7 st8">SWEDEN</text>
		</g>
	</g>
</g>
<g id="SP">
	<g>
		<path class="st1" d="M268.8,260.4l-0.5,9.1c-8-0.4-15.3-4.6-19.6-11.3l7.7-5C259.1,257.4,263.7,260.1,268.8,260.4z"/>
		<path class="st2" d="M268,275l-1.2,23.5c-17.2-0.9-33-10-42.4-24.5l19.7-12.8C249.4,269.3,258.3,274.5,268,275z"/>
		<path class="st3" d="M266.5,303.9l-2.2,41.7c-32.4-1.7-62-18.8-79.6-46l35.1-22.8C230.1,292.9,247.5,302.9,266.5,303.9z"/>
		<path class="st4" d="M264,351.1l-1.2,22.2c-41.2-2.2-78.9-23.9-101.4-58.5l18.6-12.1C198.7,331.3,229.9,349.4,264,351.1z"/>
		<path class="st5" d="M262.6,378.8l-3.6,67.8c-64.7-3.4-123.8-37.5-159.1-91.9l57-37C180.3,353.9,219.6,376.5,262.6,378.8z"/>
		<g>
			<text transform="matrix(-0.866 -0.5 0.5 -0.866 162.4909 465.0887)" class="st6 st7 st8">SPAIN</text>
		</g>
	</g>
</g>
<g id="DK">
	<g>
		<path class="st1" d="M270.4,228.8l0.3-5.2c6.7,0.4,12.9,3.9,16.5,9.6l-4.4,2.8C280.1,231.7,275.5,229,270.4,228.8z"/>
		<path class="st2" d="M271,218.1l1.4-27.4c17.2,0.9,33,10,42.4,24.5l-23,14.9C287.2,223,279.5,218.5,271,218.1z"/>
		<path class="st3" d="M272.7,185.2l1-19.6c25.3,1.3,48.4,14.7,62.1,35.9l-16.4,10.7C309.1,196.2,291.7,186.2,272.7,185.2z"/>
		<path class="st4" d="M274,160.2l1.4-27.4c35.8,1.9,68.5,20.8,88,50.8l-23,14.9C325.7,175.9,301,161.6,274,160.2z"/>
		<path class="st5" d="M275.7,127.3l4.6-87.4c65.5,3.4,125.4,38,161.2,93l-73.4,47.7C347.6,149.1,313.3,129.3,275.7,127.3z"/>
		<g>
			<text transform="matrix(0.866 0.5 -0.5 0.866 365.9088 17.8373)" class="st6 st7 st8">DENMARK</text>
		</g>
	</g>
</g>
<g id="UK">
	<g>
		<path class="st1" d="M256.3,236l-19.7-12.8c6.9-10.6,18.4-17.2,30.9-17.9l1.2,23.5C263.7,229,259.1,231.7,256.3,236z"/>
		<path class="st2" d="M232,220.2L202.4,201c14-21.5,37.4-35,63-36.4l1.8,35.2C252.9,200.6,239.8,208.1,232,220.2z"/>
		<path class="st3" d="M197.8,198l-23-14.9c19.7-30.3,52.7-49.4,88.9-51.3l1.4,27.4C237.8,160.6,212.7,175,197.8,198z"/>
		<path class="st4" d="M170.2,180l-28.5-18.5c26.6-40.9,71.1-66.7,119.9-69.2l1.8,33.9C225.5,128.2,190.9,148.2,170.2,180z"/>
		<path class="st5" d="M137.1,158.6l-64.6-42c41-63.1,109.7-102.8,184.8-106.7l4,77C210.8,89.5,164.7,116.2,137.1,158.6z"/>
		<g>
			<text transform="matrix(0.866 -0.5 0.5 0.866 140.1376 37.0065)" class="st6 st7 st8">UK</text>
		</g>
	</g>
</g>
<g id="IT">
	<g>
		<path class="st1" d="M283.7,237.4l11.6-5.9c4.2,8.2,4.2,18,0,26.2l-11.6-5.9C286,247.2,286,241.9,283.7,237.4z"/>
		<path class="st2" d="M300.2,229l12.8-6.5c7.1,13.9,7.1,30.3,0,44.2l-12.8-6.5C305.2,250.4,305.2,238.8,300.2,229z"/>
		<path class="st3" d="M317.9,220l17.5-8.9c10.7,21.1,10.7,46,0,67l-17.5-8.9C325.8,253.7,325.8,235.4,317.9,220z"/>
		<path class="st4" d="M340.2,208.6l19.8-10.1c14.7,28.9,14.7,63.2,0,92.2l-19.8-10.1C351.8,258,351.8,231.2,340.2,208.6z"/>
		<path class="st5" d="M364.9,196l72.2-36.8c27.3,53.6,27.3,117.1,0,170.7l-72.2-36.8C380.4,262.6,380.4,226.5,364.9,196z"/>
		<g>
			<text transform="matrix(0 1 -1 0 514.1249 228.7918)" class="st6 st7 st8">ITALY</text>
		</g>
	</g>
</g>
<g id="legenda">
	<rect x="821.2" style="fill:none;" width="112.4" height="28.8"/>
	<text transform="matrix(1 0 0 1 852.2292 9.8002)"><tspan x="0" y="0" class="st9 st8" style="font-family:'SpaceGrotesk-Bold';">AMOUNT OF </tspan><tspan x="-25.7" y="16.8" class="st9 st8" style="font-family:'SpaceGrotesk-Bold';">PERPETRATORS</tspan></text>
	<polyline class="st10" points="1060,-39.9 1060,64.5 1055,55.7 	"/>
	<rect x="1069.6" y="56.5" style="fill:none;" width="62.7" height="11.5"/>
	<text transform="matrix(1 0 0 1 1069.6416 66.2613)" class="st9 st8" style="font-family:'SpaceGrotesk-Bold';">INTIMATE</text>
	<rect x="1066.9" y="-39.9" style="fill:none;" width="80.3" height="28.8"/>
	<text transform="matrix(1 0 0 1 1066.9218 -30.1264)" class="st9 st8" style="font-family:'SpaceGrotesk-Bold';">STRANGER</text>
	<path class="st1" d="M981.9,64.5l-4-7.9c5.6-2.8,12.1-2.8,17.7,0l-4,7.9C988.6,63,985,63,981.9,64.5z"/>
	<path class="st2" d="M976.3,53.4l-4.4-8.6c9.4-4.8,20.5-4.8,29.8,0l-4.4,8.6C990.7,50,982.9,50,976.3,53.4z"/>
	<path class="st3" d="M970.2,41.4l-6-11.8c14.2-7.2,31-7.2,45.2,0l-6,11.8C992.9,36.1,980.6,36.1,970.2,41.4z"/>
	<path class="st4" d="M962.5,26.4L955.7,13c19.5-9.9,42.6-9.9,62.2,0l-6.8,13.3C995.8,18.6,977.8,18.6,962.5,26.4z"/>
	<path class="st5" d="M954,9.7l-24.8-48.7c36.2-18.4,79-18.4,115.1,0l-24.8,48.7C999-0.8,974.6-0.8,954,9.7z"/>
	<line class="st10" x1="936" y1="12.6" x2="963.8" y2="12.6"/>
</g>
</svg>
