<?xml version="1.0" encoding="utf-8"?>
<!-- Generator: Adobe Illustrator 22.1.0, SVG Export Plug-In . SVG Version: 6.00 Build 0)  -->
<svg version="1.1" xmlns="http://www.w3.org/2000/svg" xmlns:xlink="http://www.w3.org/1999/xlink" x="0px" y="0px"
	 viewBox="0 0 637.2 1040.3" style="enable-background:new 0 0 637.2 1040.3;" xml:space="preserve">
<style type="text/css">
	.st0{fill:#111111;}
	.st1{fill:none;stroke:#999999;stroke-width:0.5;stroke-linecap:square;stroke-linejoin:round;stroke-miterlimit:10;}
	.st2{fill:none;stroke:#FFFFFF;stroke-width:3;}
	.st3{fill:none;}
	.st4{fill:#FFFFFF;}
	.st5{fill:none;stroke:#49396F;stroke-width:10;stroke-linecap:round;stroke-miterlimit:10;}
	.st6{fill:#49396F;}
	.st7{enable-background:new    ;}
	.st8{fill:#FCFCFC;}
</style>
<g id="sfondi">
	<rect x="-3.7" class="st0" width="640.9" height="1040.3"/>
</g>
<g id="BG">
	<path class="st1" d="M328.5,450.1l-82.2-26.7c-10.6,33.2-16.4,68.5-16.4,105.3c0,0.4,0,0.8,0,1.2l85.9,0.1
		C315.8,502.1,320.3,475.2,328.5,450.1z"/>
	<path class="st1" d="M495.7,283.5l-27-83.2c-35.1,11.4-67.8,28.2-96.9,49.5l51.3,70.5C444.9,304.5,469.4,292,495.7,283.5z"/>
	<path class="st1" d="M423,320.4l-51.3-70.5c-29.4,21.4-55.2,47.4-76.5,76.9l70.3,51C381.6,355.7,401,336.4,423,320.4z"/>
	<path class="st1" d="M315.8,530.3c0-0.1,0-0.2,0-0.4l-85.9-0.1c0.1,37.6,6.3,73.8,17.5,107.7l81.2-26.5
		C320.3,585.6,315.8,558.5,315.8,530.3z"/>
	<path class="st1" d="M365.5,377.7l-70.3-51c-21.1,29.1-37.7,61.7-48.9,96.7l82.2,26.7C337,423.9,349.6,399.5,365.5,377.7z"/>
	<path class="st1" d="M365.4,682.8l-68.7,49.8c21.3,29,47,54.6,76.2,75.7l49.8-68.3C400.7,724.1,381.4,704.7,365.4,682.8z"/>
	<path class="st1" d="M575,789.5c-27.7,0-54.4-4.4-79.5-12.4l-26.1,80.2c33.1,10.6,68.4,16.4,105,16.5c0.5,0,0.9,0,1.4,0v-84.2
		C575.6,789.5,575.3,789.5,575,789.5z"/>
	<path class="st1" d="M422.7,740l-49.8,68.3c29.1,21.1,61.7,37.7,96.6,49l26.1-80.2C469.1,768.6,444.6,756,422.7,740z"/>
	<path class="st1" d="M575,873.8c-0.2,0-0.4,0-0.6,0c-0.2,0-0.4,0-0.6,0H575z"/>
	<path class="st1" d="M575,271.1c0.3,0,0.5,0,0.8,0v-87.5c-0.5,0-0.9,0-1.4,0c-36.9,0.1-72.5,5.9-105.8,16.7l27,83.2
		C520.7,275.5,547.3,271.1,575,271.1z"/>
	<path class="st1" d="M328.6,611l-81.2,26.5c11.4,34.4,28.1,66.4,49.2,95l68.7-49.8C349.6,661.2,337.1,637,328.6,611z"/>
	<path class="st1" d="M372.8,808.3l-51.2,70c36.5,26.4,77.2,47.2,121,61.3l26.8-82.3C434.5,846,401.9,829.4,372.8,808.3z"/>
	<path class="st1" d="M574.4,873.7c0.2,0,0.4,0,0.6,0h-1.2C574,873.8,574.2,873.7,574.4,873.7c-36.6-0.1-71.9-5.8-105-16.5
		l-26.8,82.3c41.7,13.4,86.2,20.6,132.4,20.6c0.3,0,0.5,0,0.8,0v-86.5C575.4,873.7,574.9,873.7,574.4,873.7z"/>
	<path class="st1" d="M296.6,732.6l-70.4,51c26.7,36.3,58.9,68.3,95.5,94.7l51.2-70C343.7,787.2,317.9,761.6,296.6,732.6z"/>
	<path class="st1" d="M247.5,637.6l-83,27.1L247.5,637.6c-11.3-33.9-17.4-70.1-17.5-107.7l-87.7-0.1l87.7,0.1c0-0.4,0-0.8,0-1.2
		c0-36.7,5.8-72.1,16.4-105.3l-83.8-27.1l83.8,27.1c11.2-35,27.8-67.6,48.9-96.7l-71.6-51.9l71.6,51.9
		c21.3-29.5,47.1-55.4,76.5-76.9l-52.2-71.7l52.2,71.7c29.2-21.3,61.8-38.2,96.9-49.5l-27.5-84.5
		c-173.5,56.4-298.9,219.4-298.9,411.7c0,95.9,31.2,184.5,83.9,256.2l70.4-51C275.6,704,258.9,672,247.5,637.6z"/>
	<path class="st1" d="M574.4,183.6c-0.2,0-0.4,0-0.6,0C574,183.6,574.2,183.6,574.4,183.6c0.2,0,0.4,0,0.6,0
		C574.8,183.6,574.6,183.6,574.4,183.6c0.5,0,0.9,0,1.4,0V94.7c-0.3,0-0.5,0-0.8,0c-46.7,0-91.7,7.4-133.8,21.1l27.5,84.5
		C502,189.5,537.5,183.6,574.4,183.6z"/>
	<path class="st1" d="M473.3,670.7c14.7,10.6,31.2,19,48.8,24.6l27.6-84.7c-8.6-2.8-16.6-6.9-23.7-12.1L473.3,670.7z"/>
	<path class="st1" d="M495.5,556.5l-85.6,28c5.8,17.4,14.2,33.5,24.9,48l72.7-52.7C502.3,572.8,498.3,565,495.5,556.5z"/>
	<path class="st1" d="M507.4,579.9l-72.7,52.7c10.8,14.6,23.8,27.5,38.5,38.2l52.7-72.2C518.9,593.3,512.6,587,507.4,579.9z"/>
	<path class="st1" d="M491.3,530.3C491.3,530.2,491.3,530.2,491.3,530.3l-90.3-0.2c0.1,19,3.2,37.3,8.9,54.4l85.6-28
		C492.8,548.3,491.3,539.4,491.3,530.3z"/>
	<path class="st1" d="M575.8,445.8v-90.2H575c-18.6,0-36.5,2.9-53.3,8.3l28,86.1C557.9,447.2,566.7,445.8,575.8,445.8z"/>
	<path class="st1" d="M495.4,504.2l-86.1-27.9c-5.4,16.8-8.3,34.7-8.3,53.2c0,0.2,0,0.4,0,0.6l90.3,0.1
		C491.3,521.1,492.8,512.4,495.4,504.2z"/>
	<path class="st1" d="M549.7,449.9l-28-86.1c-17.7,5.7-34.2,14.2-49,24.9l53.3,73.2C533.2,456.8,541.2,452.7,549.7,449.9z"/>
	<path class="st1" d="M507.4,480.7l-73.3-53.2c-10.7,14.7-19.1,31.1-24.8,48.8l86.1,27.9C498.2,495.7,502.3,487.8,507.4,480.7z"/>
	<path class="st1" d="M526.1,462l-53.3-73.2c-14.8,10.8-27.9,23.9-38.7,38.7l73.3,53.2C512.7,473.5,519,467.2,526.1,462z"/>
	<path class="st1" d="M401,529.5c0-18.6,2.9-36.5,8.3-53.2l-80.8-26.2c-8.2,25.2-12.6,52-12.7,79.9l85.2,0.1
		C401,529.9,401,529.7,401,529.5z"/>
	<path class="st1" d="M473.3,670.7L422.7,740c21.9,16,46.5,28.6,72.9,37.1l26.6-81.8C504.5,689.7,488,681.3,473.3,670.7z"/>
	<path class="st1" d="M575.8,614.8c-9.1,0-17.9-1.5-26.1-4.1l-27.6,84.7c16.7,5.3,34.4,8.2,52.9,8.2c-18.4,0-36.2-2.9-52.9-8.2
		l-26.6,81.8c25.1,8.1,51.8,12.4,79.5,12.4c0.3,0,0.5,0,0.8,0v-86V614.8z"/>
	<path class="st1" d="M434.8,632.5l-69.4,50.3c16,21.9,35.3,41.3,57.3,57.3l50.6-69.3C458.5,660,445.5,647.2,434.8,632.5z"/>
	<path class="st1" d="M409.9,584.5L328.6,611c8.5,26,21,50.1,36.7,71.7l69.4-50.3C424.1,618,415.7,601.9,409.9,584.5z"/>
	<path class="st1" d="M401,530.1l-85.2-0.1c0,0.1,0,0.2,0,0.4c0,28.2,4.5,55.3,12.8,80.7l81.3-26.5
		C404.2,567.4,401.1,549.1,401,530.1z"/>
	<path class="st1" d="M575,355.5h0.8v-84.4c-0.3,0-0.5,0-0.8,0c-27.7,0-54.3,4.4-79.4,12.4l26.1,80.3
		C538.5,358.5,556.4,355.5,575,355.5z"/>
	<path class="st1" d="M521.8,363.9l-26.1-80.3c-26.3,8.4-50.7,21-72.6,36.8l49.8,68.4C487.5,378,504,369.6,521.8,363.9z"/>
	<path class="st1" d="M434.1,427.5l-68.6-49.8c-15.9,21.8-28.5,46.2-37,72.4l80.8,26.2C415,458.6,423.4,442.2,434.1,427.5z"/>
	<path class="st1" d="M472.8,388.7L423,320.4c-22,16-41.5,35.3-57.5,57.3l68.6,49.8C444.9,412.6,458,399.5,472.8,388.7z"/>
	<path class="st1" d="M491.3,530.3c0,9.2,1.5,18,4.2,26.2l80.3-26.2H491.3C491.3,530.2,491.3,530.2,491.3,530.3z"/>
	<path class="st1" d="M526,598.5l49.8-68.2l-68.4,49.6C512.6,587,518.9,593.3,526,598.5z"/>
	<path class="st1" d="M507.4,579.9l68.4-49.6l-80.3,26.2C498.3,565,502.3,572.8,507.4,579.9z"/>
	<path class="st1" d="M549.7,449.9l26.1,80.4v-84.5C566.7,445.8,557.9,447.2,549.7,449.9z"/>
	<path class="st1" d="M526,598.5c7.1,5.2,15.1,9.3,23.7,12.1l26.1-80.4L526,598.5z"/>
	<path class="st1" d="M575.8,530.3l-26.1,80.4c8.2,2.7,17,4.1,26.1,4.1V530.3L575.8,530.3z"/>
	<path class="st1" d="M491.3,530.2l84.5,0.1l-80.4-26.1C492.8,512.4,491.3,521.1,491.3,530.2z"/>
	<path class="st1" d="M507.4,480.7l68.4,49.6L526.1,462C519,467.2,512.7,473.5,507.4,480.7z"/>
	<path class="st1" d="M495.4,504.2l80.4,26.1l-68.4-49.6C502.3,487.8,498.2,495.7,495.4,504.2z"/>
	<path class="st1" d="M526.1,462l49.7,68.3l-26.1-80.4C541.2,452.7,533.2,456.8,526.1,462z"/>
	<g id="legend">
		<line class="st2" x1="586" y1="94.1" x2="630.8" y2="94.1"/>
		<line class="st2" x1="583.2" y1="445.8" x2="628" y2="445.8"/>
		<line class="st2" x1="583.2" y1="355.5" x2="628" y2="355.5"/>
		<line class="st2" x1="583.2" y1="271.1" x2="628" y2="271.1"/>
		<line class="st2" x1="583.2" y1="183.6" x2="628" y2="183.6"/>
		<g>
			<rect x="597.6" y="82.9" class="st3" width="39.6" height="11.2"/>
			<path class="st4" d="M598.9,83h6.3v1.7h-4.5v2.3c0.2-0.2,0.5-0.4,0.8-0.5c0.3-0.1,0.8-0.2,1.3-0.2c0.5,0,1,0.1,1.4,0.3
				c0.4,0.2,0.8,0.5,1,0.8c0.5,0.7,0.7,1.4,0.7,2.2c0,1.1-0.3,1.9-0.9,2.6c-0.6,0.6-1.5,1-2.6,1s-2-0.3-2.6-0.8
				c-0.6-0.5-1-1.2-1.1-2h1.9c0.1,0.4,0.3,0.7,0.6,0.9s0.7,0.3,1.2,0.3s0.9-0.2,1.2-0.5c0.3-0.3,0.4-0.8,0.4-1.4
				c0-0.6-0.1-1-0.4-1.3c-0.3-0.3-0.7-0.5-1.1-0.5c-0.9,0-1.4,0.4-1.7,1.1h-1.9V83z"/>
			<path class="st4" d="M607.4,88.1c0-3.4,1.3-5.1,3.8-5.1c2.5,0,3.8,1.7,3.8,5.1c0,3.4-1.3,5.1-3.8,5.1
				C608.6,93.2,607.4,91.5,607.4,88.1z M612,85.1c-0.2-0.1-0.5-0.2-0.8-0.2c-0.3,0-0.6,0.1-0.8,0.2c-0.2,0.1-0.4,0.3-0.5,0.5
				s-0.2,0.4-0.3,0.7c-0.1,0.3-0.1,0.6-0.1,0.9c0,0.3,0,0.6,0,1s0,0.7,0,1s0.1,0.6,0.1,0.9c0.1,0.3,0.2,0.6,0.3,0.7s0.3,0.3,0.5,0.5
				c0.2,0.1,0.5,0.2,0.8,0.2c0.3,0,0.6-0.1,0.8-0.2s0.4-0.3,0.5-0.5s0.2-0.4,0.3-0.7c0.1-0.3,0.1-0.6,0.1-0.9s0-0.6,0-1s0-0.7,0-1
				c0-0.3-0.1-0.6-0.1-0.9c-0.1-0.3-0.2-0.5-0.3-0.7S612.2,85.2,612,85.1z"/>
			<path class="st4" d="M616.8,87.2c-0.4-0.4-0.6-1-0.6-1.7s0.2-1.2,0.6-1.6c0.4-0.4,0.9-0.6,1.6-0.6c0.6,0,1.2,0.2,1.6,0.6
				c0.4,0.4,0.6,0.9,0.6,1.6s-0.2,1.3-0.6,1.7c-0.4,0.4-0.9,0.6-1.6,0.6C617.7,87.8,617.2,87.6,616.8,87.2z M617.3,93.2l5.5-9.8h1.9
				l-5.5,9.8H617.3z M619.2,85.5c0-0.7-0.3-1.1-0.8-1.1s-0.8,0.4-0.8,1.1s0.3,1.1,0.8,1.1S619.2,86.3,619.2,85.5z M623.7,93.4
				c-0.7,0-1.2-0.2-1.6-0.6c-0.4-0.4-0.6-0.9-0.6-1.7c0-0.7,0.2-1.3,0.6-1.7c0.4-0.4,0.9-0.6,1.6-0.6c0.6,0,1.2,0.2,1.6,0.6
				c0.4,0.4,0.6,0.9,0.6,1.7c0,0.7-0.2,1.3-0.6,1.7S624.3,93.4,623.7,93.4z M624.4,91.1c0-0.7-0.3-1.1-0.8-1.1
				c-0.5,0-0.8,0.4-0.8,1.1s0.3,1.1,0.8,1.1C624.2,92.2,624.4,91.8,624.4,91.1z"/>
		</g>
		<g>
			<rect x="597.6" y="169.4" class="st3" width="39.6" height="11.2"/>
			<path class="st4" d="M603.2,179.7v-2h-4.9v-1.5l4.6-6.6h2.3v6.4h1.2v1.7h-1.2v2H603.2z M603.3,176v-4.3l-2.8,4.3H603.3z"/>
			<path class="st4" d="M607.6,174.6c0-3.4,1.3-5.1,3.8-5.1c2.5,0,3.8,1.7,3.8,5.1s-1.3,5.1-3.8,5.1
				C608.9,179.7,607.6,178,607.6,174.6z M612.2,171.6c-0.2-0.1-0.5-0.2-0.8-0.2c-0.3,0-0.6,0.1-0.8,0.2c-0.2,0.1-0.4,0.3-0.5,0.5
				c-0.1,0.2-0.2,0.4-0.3,0.7c-0.1,0.3-0.1,0.6-0.1,0.9s0,0.6,0,1s0,0.7,0,1c0,0.3,0.1,0.6,0.1,0.9c0.1,0.3,0.2,0.6,0.3,0.7
				s0.3,0.3,0.5,0.5c0.2,0.1,0.5,0.2,0.8,0.2c0.3,0,0.6-0.1,0.8-0.2c0.2-0.1,0.4-0.3,0.5-0.5s0.2-0.4,0.3-0.7
				c0.1-0.3,0.1-0.6,0.1-0.9c0-0.3,0-0.6,0-1s0-0.7,0-1s-0.1-0.6-0.1-0.9c-0.1-0.3-0.2-0.5-0.3-0.7
				C612.6,171.8,612.4,171.7,612.2,171.6z"/>
			<path class="st4" d="M617,173.7c-0.4-0.4-0.6-1-0.6-1.7c0-0.7,0.2-1.2,0.6-1.6s0.9-0.6,1.6-0.6c0.6,0,1.2,0.2,1.6,0.6
				c0.4,0.4,0.6,0.9,0.6,1.6c0,0.7-0.2,1.3-0.6,1.7c-0.4,0.4-0.9,0.6-1.6,0.6C618,174.3,617.5,174.1,617,173.7z M617.6,179.7
				l5.5-9.8h1.9l-5.5,9.8H617.6z M619.4,172c0-0.7-0.3-1.1-0.8-1.1s-0.8,0.4-0.8,1.1c0,0.7,0.3,1.1,0.8,1.1S619.4,172.7,619.4,172z
				 M623.9,179.9c-0.7,0-1.2-0.2-1.6-0.6c-0.4-0.4-0.6-0.9-0.6-1.7s0.2-1.3,0.6-1.7c0.4-0.4,0.9-0.6,1.6-0.6c0.6,0,1.2,0.2,1.6,0.6
				s0.6,0.9,0.6,1.7s-0.2,1.3-0.6,1.7S624.6,179.9,623.9,179.9z M624.7,177.6c0-0.7-0.3-1.1-0.8-1.1c-0.5,0-0.8,0.4-0.8,1.1
				s0.3,1.1,0.8,1.1C624.4,178.7,624.7,178.3,624.7,177.6z"/>
		</g>
		<g>
			<rect x="597.6" y="255.9" class="st3" width="39.6" height="11.2"/>
			<path class="st4" d="M599.4,256.5c0.6-0.5,1.4-0.8,2.4-0.8c1,0,1.8,0.3,2.4,0.8c0.6,0.5,0.9,1.2,0.9,1.9c0,0.6-0.2,1.1-0.5,1.5
				c-0.3,0.4-0.7,0.7-1,0.8v0.1c1.1,0.4,1.7,1.2,1.7,2.5c0,0.9-0.3,1.6-0.9,2.1c-0.6,0.5-1.4,0.8-2.5,0.8c-1,0-1.9-0.3-2.6-0.8
				c-0.7-0.5-1-1.3-1-2.3h1.9c0,0.5,0.2,0.8,0.5,1.1s0.7,0.4,1.2,0.4c0.5,0,0.9-0.1,1.1-0.4c0.3-0.3,0.4-0.6,0.4-1.1
				s-0.2-0.9-0.5-1.1c-0.3-0.2-0.9-0.4-1.7-0.4h-0.4V260h0.4c1.3,0,2-0.4,2-1.3c0-0.4-0.1-0.7-0.4-0.9c-0.2-0.2-0.6-0.3-1-0.3
				c-0.4,0-0.8,0.1-1,0.4c-0.2,0.3-0.4,0.5-0.4,0.8h-1.9C598.4,257.8,598.7,257.1,599.4,256.5z"/>
			<path class="st4" d="M606.7,261.1c0-3.4,1.3-5.1,3.8-5.1c2.5,0,3.8,1.7,3.8,5.1s-1.3,5.1-3.8,5.1
				C608,266.2,606.7,264.5,606.7,261.1z M611.3,258c-0.2-0.1-0.5-0.2-0.8-0.2c-0.3,0-0.6,0.1-0.8,0.2c-0.2,0.1-0.4,0.3-0.5,0.5
				c-0.1,0.2-0.2,0.4-0.3,0.7c-0.1,0.3-0.1,0.6-0.1,0.9s0,0.6,0,1s0,0.7,0,1c0,0.3,0.1,0.6,0.1,0.9c0.1,0.3,0.2,0.6,0.3,0.7
				s0.3,0.3,0.5,0.5c0.2,0.1,0.5,0.2,0.8,0.2c0.3,0,0.6-0.1,0.8-0.2c0.2-0.1,0.4-0.3,0.5-0.5s0.2-0.4,0.3-0.7
				c0.1-0.3,0.1-0.6,0.1-0.9c0-0.3,0-0.6,0-1s0-0.7,0-1s-0.1-0.6-0.1-0.9c-0.1-0.3-0.2-0.5-0.3-0.7
				C611.8,258.3,611.6,258.2,611.3,258z"/>
			<path class="st4" d="M616.2,260.2c-0.4-0.4-0.6-1-0.6-1.7c0-0.7,0.2-1.2,0.6-1.6s0.9-0.6,1.6-0.6c0.6,0,1.2,0.2,1.6,0.6
				c0.4,0.4,0.6,0.9,0.6,1.6c0,0.7-0.2,1.3-0.6,1.7c-0.4,0.4-0.9,0.6-1.6,0.6C617.1,260.8,616.6,260.6,616.2,260.2z M616.7,266.2
				l5.5-9.8h1.9l-5.5,9.8H616.7z M618.6,258.5c0-0.7-0.3-1.1-0.8-1.1s-0.8,0.4-0.8,1.1c0,0.7,0.3,1.1,0.8,1.1
				S618.6,259.2,618.6,258.5z M623,266.4c-0.7,0-1.2-0.2-1.6-0.6c-0.4-0.4-0.6-0.9-0.6-1.7s0.2-1.3,0.6-1.7c0.4-0.4,0.9-0.6,1.6-0.6
				c0.6,0,1.2,0.2,1.6,0.6s0.6,0.9,0.6,1.7s-0.2,1.3-0.6,1.7S623.7,266.4,623,266.4z M623.8,264.1c0-0.7-0.3-1.1-0.8-1.1
				c-0.5,0-0.8,0.4-0.8,1.1s0.3,1.1,0.8,1.1C623.5,265.2,623.8,264.8,623.8,264.1z"/>
		</g>
		<g>
			<rect x="597.6" y="338.4" class="st3" width="39.6" height="11.2"/>
			<path class="st4" d="M598.3,348.7v-1.4c0.2-0.2,0.6-0.5,1.1-1c0.5-0.4,0.9-0.8,1.1-1c0.3-0.2,0.6-0.5,0.9-0.9
				c0.4-0.4,0.6-0.7,0.8-0.9c0.5-0.7,0.7-1.2,0.7-1.7c0-1-0.5-1.5-1.4-1.5c-0.4,0-0.8,0.1-1,0.4s-0.4,0.7-0.4,1.2h-1.9
				c0-1.1,0.3-1.9,1-2.5s1.5-0.9,2.5-0.9s1.8,0.3,2.4,0.9c0.6,0.6,0.9,1.3,0.9,2.2c0,0.7-0.2,1.3-0.5,1.8c-0.2,0.3-0.3,0.6-0.5,0.8
				c-0.2,0.2-0.4,0.5-0.7,0.8s-0.5,0.5-0.7,0.7c-0.2,0.2-0.4,0.4-0.8,0.7c-0.3,0.3-0.6,0.5-0.7,0.6h4.1v1.6H598.3z"/>
			<path class="st4" d="M606.4,343.7c0-3.4,1.3-5.1,3.8-5.1c2.5,0,3.8,1.7,3.8,5.1c0,3.4-1.3,5.1-3.8,5.1
				C607.6,348.8,606.4,347.1,606.4,343.7z M611,340.6c-0.2-0.1-0.5-0.2-0.8-0.2c-0.3,0-0.6,0.1-0.8,0.2c-0.2,0.1-0.4,0.3-0.5,0.5
				s-0.2,0.4-0.3,0.7c-0.1,0.3-0.1,0.6-0.1,0.9c0,0.3,0,0.6,0,1s0,0.7,0,1s0.1,0.6,0.1,0.9c0.1,0.3,0.2,0.6,0.3,0.7s0.3,0.3,0.5,0.5
				c0.2,0.1,0.5,0.2,0.8,0.2c0.3,0,0.6-0.1,0.8-0.2s0.4-0.3,0.5-0.5s0.2-0.4,0.3-0.7c0.1-0.3,0.1-0.6,0.1-0.9s0-0.6,0-1s0-0.7,0-1
				c0-0.3-0.1-0.6-0.1-0.9c-0.1-0.3-0.2-0.5-0.3-0.7S611.2,340.7,611,340.6z"/>
			<path class="st4" d="M615.8,342.8c-0.4-0.4-0.6-1-0.6-1.7s0.2-1.2,0.6-1.6c0.4-0.4,0.9-0.6,1.6-0.6c0.6,0,1.2,0.2,1.6,0.6
				c0.4,0.4,0.6,0.9,0.6,1.6s-0.2,1.3-0.6,1.7c-0.4,0.4-0.9,0.6-1.6,0.6C616.8,343.4,616.2,343.2,615.8,342.8z M616.3,348.8l5.5-9.8
				h1.9l-5.5,9.8H616.3z M618.2,341.1c0-0.7-0.3-1.1-0.8-1.1s-0.8,0.4-0.8,1.1s0.3,1.1,0.8,1.1S618.2,341.8,618.2,341.1z
				 M622.7,348.9c-0.7,0-1.2-0.2-1.6-0.6c-0.4-0.4-0.6-0.9-0.6-1.7c0-0.7,0.2-1.3,0.6-1.7c0.4-0.4,0.9-0.6,1.6-0.6
				c0.6,0,1.2,0.2,1.6,0.6c0.4,0.4,0.6,0.9,0.6,1.7c0,0.7-0.2,1.3-0.6,1.7S623.3,348.9,622.7,348.9z M623.5,346.7
				c0-0.7-0.3-1.1-0.8-1.1c-0.5,0-0.8,0.4-0.8,1.1s0.3,1.1,0.8,1.1C623.2,347.8,623.5,347.4,623.5,346.7z"/>
		</g>
		<g>
			<rect x="597.6" y="428.7" class="st3" width="39.6" height="11.2"/>
			<path class="st4" d="M599.6,439v-8.1h-1.5v-1.8h3.5v9.9H599.6z"/>
			<path class="st4" d="M603.7,433.9c0-3.4,1.3-5.1,3.8-5.1c2.5,0,3.8,1.7,3.8,5.1c0,3.4-1.3,5.1-3.8,5.1
				C605,439,603.7,437.3,603.7,433.9z M608.3,430.8c-0.2-0.1-0.5-0.2-0.8-0.2c-0.3,0-0.6,0.1-0.8,0.2c-0.2,0.1-0.4,0.3-0.5,0.5
				s-0.2,0.4-0.3,0.7c-0.1,0.3-0.1,0.6-0.1,0.9c0,0.3,0,0.6,0,1s0,0.7,0,1s0.1,0.6,0.1,0.9c0.1,0.3,0.2,0.6,0.3,0.7s0.3,0.3,0.5,0.5
				c0.2,0.1,0.5,0.2,0.8,0.2c0.3,0,0.6-0.1,0.8-0.2c0.2-0.1,0.4-0.3,0.5-0.5s0.2-0.4,0.3-0.7c0.1-0.3,0.1-0.6,0.1-0.9s0-0.6,0-1
				s0-0.7,0-1c0-0.3-0.1-0.6-0.1-0.9c-0.1-0.3-0.2-0.5-0.3-0.7S608.6,431,608.3,430.8z"/>
			<path class="st4" d="M613.1,433c-0.4-0.4-0.6-1-0.6-1.7s0.2-1.2,0.6-1.6c0.4-0.4,0.9-0.6,1.6-0.6c0.6,0,1.2,0.2,1.6,0.6
				c0.4,0.4,0.6,0.9,0.6,1.6s-0.2,1.3-0.6,1.7c-0.4,0.4-0.9,0.6-1.6,0.6C614.1,433.6,613.6,433.4,613.1,433z M613.7,439l5.5-9.8h1.9
				l-5.5,9.8H613.7z M615.5,431.3c0-0.7-0.3-1.1-0.8-1.1s-0.8,0.4-0.8,1.1c0,0.7,0.3,1.1,0.8,1.1S615.5,432,615.5,431.3z M620,439.2
				c-0.7,0-1.2-0.2-1.6-0.6c-0.4-0.4-0.6-0.9-0.6-1.7c0-0.7,0.2-1.3,0.6-1.7c0.4-0.4,0.9-0.6,1.6-0.6c0.6,0,1.2,0.2,1.6,0.6
				c0.4,0.4,0.6,0.9,0.6,1.7c0,0.7-0.2,1.3-0.6,1.7S620.7,439.2,620,439.2z M620.8,436.9c0-0.7-0.3-1.1-0.8-1.1
				c-0.5,0-0.8,0.4-0.8,1.1c0,0.7,0.3,1.1,0.8,1.1C620.5,438,620.8,437.6,620.8,436.9z"/>
		</g>
	</g>
</g>
<g id="VIOL_8_">
	<line class="st5" x1="575.8" y1="530.4" x2="455.3" y2="159.1"/>
	<g>
		<path class="st6" d="M455.3,165c-3.3,0-5.9-2.7-5.9-5.9c0-3.3,2.7-5.9,5.9-5.9c3.3,0,5.9,2.7,5.9,5.9
			C461.2,162.4,458.6,165,455.3,165z"/>
		<path class="st0" d="M455.3,153.9c2.9,0,5.2,2.3,5.2,5.2s-2.3,5.2-5.2,5.2c-2.9,0-5.2-2.3-5.2-5.2S452.4,153.9,455.3,153.9
			 M455.3,152.4c-3.7,0-6.7,3-6.7,6.7s3,6.7,6.7,6.7c3.7,0,6.7-3,6.7-6.7S459,152.4,455.3,152.4L455.3,152.4z"/>
	</g>
	<g class="st7">
		<path class="st8" d="M417,48l1.6-1.1l-1.1-3.6l-1.9-0.1l-0.6-2l10.4,0.4l0.7,2.2l-8.3,6.2L417,48z M419.1,43.3l0.8,2.7l3.5-2.5
			L419.1,43.3z"/>
		<path class="st8" d="M429.3,54.5l0.6,1.9l-9.4,2.9l-0.6-1.9l5.2-6.2l-6.5,2l-0.6-1.9l9.4-2.9l0.6,1.9l-5.2,6.2L429.3,54.5z"/>
		<path class="st8" d="M422.7,61.8c0.6-1.2,1.6-2,3-2.4s2.7-0.3,3.9,0.3c1.2,0.6,2,1.6,2.4,3c0.3,1,0.3,2,0.1,2.9
			c-0.3,1-0.8,1.7-1.7,2.4l-0.7-2.3c0.7-0.7,0.9-1.5,0.6-2.5c-0.3-0.8-0.8-1.4-1.5-1.8c-0.7-0.4-1.5-0.4-2.5-0.1
			c-0.9,0.3-1.6,0.8-2,1.5c-0.4,0.7-0.5,1.4-0.2,2.2c0.2,0.8,0.6,1.3,1.1,1.6c0.5,0.3,1.1,0.4,1.8,0.3l-1-3.1l1.4-0.4l1.6,5.1
			l-1.4,0.4c-1.1,0.2-2.1-0.1-3.1-0.7c-1-0.6-1.7-1.5-2.1-2.8C422,64.2,422.1,63,422.7,61.8z"/>
		<path class="st8" d="M435.4,74.1l-1.4,0.4l-1.1-3.5l-2.4,0.8l1,3.1l-1.4,0.4l-1-3.1l-2.6,0.8l1.1,3.5L426,77l-1.7-5.4l9.4-2.9
			L435.4,74.1z"/>
		<path class="st8" d="M430.9,79.6l-3.7,1.2l-0.6-1.9L436,76l1.1,3.4c0.3,1.1,0.3,2,0,2.7c-0.4,0.8-0.9,1.2-1.7,1.5
			c-0.6,0.2-1.2,0.2-1.8,0c-0.6-0.2-1.1-0.7-1.6-1.4l-3.1,3.6l-0.7-2.2l3-3.4L430.9,79.6z M435.1,78.3l-2.7,0.8l0.5,1.6
			c0.1,0.5,0.4,0.8,0.7,1c0.3,0.2,0.7,0.2,1.1,0.1s0.7-0.4,0.9-0.7c0.2-0.3,0.2-0.7,0-1.2L435.1,78.3z"/>
	</g>
</g>
<g id="VIOL_7_">
	<line class="st5" x1="514.6" y1="446.4" x2="575.8" y2="530.4"/>
	<g>
		<path class="st6" d="M514.6,452.3c-3.3,0-5.9-2.7-5.9-5.9c0-3.3,2.7-5.9,5.9-5.9c3.3,0,5.9,2.7,5.9,5.9
			C520.5,449.7,517.9,452.3,514.6,452.3z"/>
		<path class="st0" d="M514.6,441.2c2.9,0,5.2,2.3,5.2,5.2c0,2.9-2.3,5.2-5.2,5.2c-2.9,0-5.2-2.3-5.2-5.2
			C509.4,443.5,511.7,441.2,514.6,441.2 M514.6,439.7c-3.7,0-6.7,3-6.7,6.7c0,3.7,3,6.7,6.7,6.7c3.7,0,6.7-3,6.7-6.7
			C521.3,442.7,518.3,439.7,514.6,439.7L514.6,439.7z"/>
	</g>
	<g>
		<line class="st3" x1="224.4" y1="44.7" x2="319.5" y2="176.9"/>
		<path class="st4" d="M237.9,63.4l1.1-1.6l-2.2-3.1l-1.9,0.6l-1.2-1.7l10-2.9l1.4,1.9l-5.9,8.5L237.9,63.4z M238.3,58.3l1.6,2.3
			l2.5-3.5L238.3,58.3z"/>
		<path class="st4" d="M241.5,66.2c0.2-1.3,0.9-2.4,2.1-3.3c1.2-0.8,2.4-1.2,3.8-0.9c1.3,0.2,2.4,0.9,3.2,2.1c0.6,0.9,1,1.8,1,2.8
			c0,1-0.2,1.9-0.8,2.8l-1.4-1.9c0.4-0.9,0.4-1.7-0.3-2.6c-0.5-0.7-1.2-1.1-2-1.2c-0.8-0.1-1.6,0.1-2.4,0.7c-0.8,0.6-1.3,1.2-1.4,2
			c-0.2,0.8,0,1.5,0.5,2.2c0.5,0.7,1,1.1,1.6,1.2c0.6,0.1,1.2,0.1,1.8-0.2l-1.9-2.6l1.2-0.9l3.1,4.4l-1.2,0.9c-1,0.5-2,0.6-3.2,0.4
			c-1.2-0.2-2.1-0.9-2.9-2C241.6,68.7,241.3,67.5,241.5,66.2z"/>
		<path class="st4" d="M247.8,74.9c0.2-1.3,0.9-2.4,2.1-3.3c1.2-0.8,2.4-1.2,3.8-0.9c1.3,0.2,2.4,0.9,3.2,2.1c0.6,0.9,1,1.8,1,2.8
			s-0.2,1.9-0.8,2.8l-1.4-1.9c0.4-0.9,0.4-1.7-0.3-2.6c-0.5-0.7-1.2-1.1-2-1.2c-0.8-0.1-1.6,0.1-2.4,0.7c-0.8,0.6-1.3,1.2-1.4,2
			c-0.1,0.8,0,1.5,0.5,2.2s1,1.1,1.6,1.2s1.2,0.1,1.8-0.2l-1.9-2.6l1.2-0.9l3.1,4.4l-1.2,0.9c-1,0.5-2,0.6-3.2,0.4s-2.1-0.9-2.9-2
			C247.9,77.4,247.6,76.2,247.8,74.9z"/>
		<path class="st4" d="M256.8,83l-3.2,2.3l-1.2-1.6l7.9-5.7l2.1,2.9c0.7,0.9,0.9,1.8,0.8,2.6c-0.1,0.8-0.5,1.5-1.2,2
			c-0.5,0.4-1.1,0.5-1.7,0.6c-0.6,0-1.3-0.3-1.9-0.8l-1.8,4.4l-1.4-1.9l1.8-4.2L256.8,83z M260.4,80.5l-2.3,1.7l0.9,1.3
			c0.3,0.4,0.6,0.6,1,0.7c0.4,0.1,0.7,0,1.1-0.3c0.4-0.3,0.6-0.6,0.6-0.9c0.1-0.4-0.1-0.7-0.4-1.1L260.4,80.5z"/>
		<path class="st4" d="M269.1,89.9l-1.2,0.9l-2.1-3l-2.1,1.5l1.9,2.6l-1.2,0.9l-1.9-2.6l-2.2,1.6l2.1,3l-1.2,0.9l-3.3-4.6l8-5.7
			L269.1,89.9z"/>
		<path class="st4" d="M270.9,95c-0.2-0.3-0.5-0.5-0.8-0.6c-0.3-0.1-0.6,0-0.9,0.2s-0.5,0.4-0.5,0.7c-0.1,0.3,0,0.5,0,0.9
			c0.1,0.3,0.2,0.6,0.3,1c0.1,0.3,0.3,0.7,0.4,1c0.1,0.4,0.2,0.7,0.2,1.1c0,0.3,0,0.7-0.2,1c-0.2,0.3-0.5,0.7-0.8,0.9
			c-0.7,0.5-1.4,0.6-2.2,0.4c-0.8-0.2-1.6-0.7-2.2-1.6c-0.6-0.9-0.9-1.7-0.9-2.5c0-0.8,0.4-1.5,1.1-2l1.2,1.7
			c-0.7,0.6-0.7,1.2-0.2,1.9c0.3,0.4,0.6,0.6,0.9,0.7c0.3,0.1,0.7,0,1-0.2c0.3-0.2,0.5-0.5,0.4-1c0-0.4-0.1-0.8-0.3-1.3
			c-0.2-0.5-0.4-0.9-0.5-1.4c-0.2-0.5-0.2-1-0.1-1.5c0.1-0.5,0.4-1,1-1.3c0.7-0.5,1.5-0.7,2.3-0.5c0.8,0.2,1.5,0.7,2.1,1.6
			c0.6,0.8,0.9,1.6,0.9,2.4c0,0.8-0.4,1.5-1.1,2l-1.3-1.8c0.3-0.2,0.4-0.5,0.5-0.9C271.2,95.6,271.1,95.3,270.9,95z"/>
		<path class="st4" d="M276,102.1c-0.2-0.3-0.5-0.5-0.8-0.6c-0.3-0.1-0.6,0-0.9,0.2s-0.5,0.4-0.5,0.7c-0.1,0.3,0,0.5,0,0.9
			c0.1,0.3,0.2,0.6,0.3,1c0.1,0.3,0.3,0.7,0.4,1c0.1,0.4,0.2,0.7,0.2,1.1c0,0.3,0,0.7-0.2,1s-0.5,0.7-0.8,0.9
			c-0.7,0.5-1.4,0.6-2.2,0.4c-0.8-0.2-1.6-0.7-2.2-1.6c-0.6-0.9-0.9-1.7-0.9-2.5c0-0.8,0.4-1.5,1.1-2l1.2,1.7
			c-0.7,0.6-0.7,1.2-0.2,1.9c0.3,0.4,0.6,0.6,0.9,0.7c0.3,0.1,0.7,0,1-0.2c0.3-0.2,0.5-0.5,0.4-1c0-0.4-0.1-0.8-0.3-1.3
			c-0.2-0.5-0.4-0.9-0.5-1.4s-0.2-1-0.1-1.5c0.1-0.5,0.4-1,1-1.3c0.7-0.5,1.5-0.7,2.3-0.5c0.8,0.2,1.5,0.7,2.1,1.6
			c0.6,0.8,0.9,1.6,0.9,2.4c0,0.8-0.4,1.5-1.1,2l-1.3-1.8c0.3-0.2,0.4-0.5,0.5-0.9C276.3,102.7,276.2,102.4,276,102.1z"/>
		<path class="st4" d="M272.5,111.5l7.9-5.7l1.2,1.6l-7.9,5.7L272.5,111.5z"/>
		<path class="st4" d="M276.4,117l5.8-8.6l1.2,1.7l-4.8,6.7l7.9-2.4l1.2,1.7l-10,2.8L276.4,117z"/>
		<path class="st4" d="M291.9,121.7l-1.2,0.9l-2.1-3l-2.1,1.5l1.9,2.6l-1.2,0.9l-1.9-2.6l-2.2,1.6l2.1,3l-1.2,0.9l-3.3-4.6l8-5.7
			L291.9,121.7z"/>
		<path class="st4" d="M296.8,128.5l1.2,1.6l-8,5.7l-1.2-1.6l2.9-7.5l-5.5,4l-1.2-1.6l8-5.7l1.2,1.6l-2.9,7.5L296.8,128.5z"/>
		<path class="st4" d="M302.5,136.4l-1.2,0.9l-2.1-3l-2.1,1.5l1.9,2.6l-1.2,0.9l-1.9-2.6l-2.2,1.6l2.1,3l-1.2,0.9l-3.3-4.6l8-5.7
			L302.5,136.4z"/>
		<path class="st4" d="M304.3,141.5c-0.2-0.3-0.5-0.5-0.8-0.6c-0.3-0.1-0.6,0-0.9,0.2s-0.5,0.4-0.5,0.7s0,0.5,0,0.9
			c0.1,0.3,0.2,0.6,0.3,1c0.1,0.3,0.3,0.7,0.4,1c0.1,0.4,0.2,0.7,0.2,1.1c0,0.3,0,0.7-0.2,1c-0.2,0.3-0.5,0.7-0.8,0.9
			c-0.7,0.5-1.4,0.6-2.2,0.4c-0.8-0.2-1.6-0.7-2.2-1.6c-0.6-0.9-0.9-1.7-0.9-2.5c0-0.8,0.4-1.5,1.1-2l1.2,1.7
			c-0.7,0.6-0.7,1.2-0.2,1.9c0.3,0.4,0.6,0.6,0.9,0.7s0.7,0,1-0.2c0.3-0.2,0.5-0.5,0.4-1c0-0.4-0.1-0.8-0.3-1.3
			c-0.2-0.5-0.4-0.9-0.5-1.4c-0.2-0.5-0.2-1-0.1-1.5s0.4-1,1-1.3c0.7-0.5,1.5-0.7,2.3-0.5c0.8,0.2,1.5,0.7,2.1,1.6
			c0.6,0.8,0.9,1.6,0.9,2.4s-0.4,1.5-1.1,2l-1.3-1.8c0.3-0.2,0.4-0.5,0.5-0.9S304.6,141.8,304.3,141.5z"/>
		<path class="st4" d="M309.4,148.6c-0.2-0.3-0.5-0.5-0.8-0.6c-0.3-0.1-0.6,0-0.9,0.2s-0.5,0.4-0.5,0.7c-0.1,0.3,0,0.5,0,0.9
			c0.1,0.3,0.2,0.6,0.3,1c0.1,0.3,0.3,0.7,0.4,1c0.1,0.4,0.2,0.7,0.2,1.1c0,0.3,0,0.7-0.2,1s-0.5,0.7-0.8,0.9
			c-0.7,0.5-1.4,0.6-2.2,0.4s-1.6-0.7-2.2-1.6c-0.6-0.9-0.9-1.7-0.9-2.5c0-0.8,0.4-1.5,1.1-2l1.2,1.7c-0.7,0.6-0.7,1.2-0.2,1.9
			c0.3,0.4,0.6,0.6,0.9,0.7c0.3,0.1,0.7,0,1-0.2c0.3-0.2,0.5-0.5,0.4-1c0-0.4-0.1-0.8-0.3-1.3c-0.2-0.5-0.4-0.9-0.5-1.4
			c-0.2-0.5-0.2-1-0.1-1.5c0.1-0.5,0.4-1,1-1.3c0.7-0.5,1.5-0.7,2.3-0.5c0.8,0.2,1.5,0.7,2.1,1.6c0.6,0.8,0.9,1.6,0.9,2.4
			c0,0.8-0.4,1.5-1.1,2l-1.3-1.8c0.3-0.2,0.4-0.5,0.5-0.9C309.8,149.2,309.7,148.9,309.4,148.6z"/>
	</g>
</g>
<g id="VIOL_6_">
	<line class="st5" x1="288.1" y1="321.5" x2="575.8" y2="530.4"/>
	<g>
		<path class="st6" d="M288.1,327.4c-3.3,0-5.9-2.7-5.9-5.9c0-3.3,2.7-5.9,5.9-5.9c3.3,0,5.9,2.7,5.9,5.9
			C294.1,324.8,291.4,327.4,288.1,327.4z"/>
		<path class="st0" d="M288.1,316.3c2.9,0,5.2,2.3,5.2,5.2s-2.3,5.2-5.2,5.2c-2.9,0-5.2-2.3-5.2-5.2S285.3,316.3,288.1,316.3
			 M288.1,314.8c-3.7,0-6.7,3-6.7,6.7c0,3.7,3,6.7,6.7,6.7c3.7,0,6.7-3,6.7-6.7C294.8,317.8,291.8,314.8,288.1,314.8L288.1,314.8z"
			/>
	</g>
	<g>
		<line class="st3" x1="92.9" y1="182.6" x2="379.9" y2="391.2"/>
		<path class="st4" d="M128.8,208.7l0.6-1.9l-3.1-2.2l-1.6,1.1l-1.7-1.2l8.6-5.9l1.9,1.4l-3,10L128.8,208.7z M127.6,203.7l2.3,1.6
			l1.3-4.1L127.6,203.7z"/>
		<path class="st4" d="M142.5,206.6l1.6,1.2l-5.8,7.9l-1.6-1.2l0.4-8.1l-4,5.5l-1.6-1.2l5.8-7.9l1.6,1.2l-0.4,8.1L142.5,206.6z"/>
		<path class="st4" d="M151,212.7l1.6,1.2l-5.8,7.9l-1.6-1.2l0.4-8.1l-4,5.5l-1.6-1.2l5.8-7.9l1.6,1.2l-0.4,8.1L151,212.7z"/>
		<path class="st4" d="M152.1,225.8c-1.1-0.8-1.8-1.9-2-3.2c-0.2-1.3,0.1-2.6,0.9-3.8c0.9-1.2,1.9-1.9,3.3-2.1
			c1.3-0.2,2.6,0.1,3.7,0.9c1.1,0.8,1.8,1.9,2,3.2c0.2,1.3-0.1,2.6-0.9,3.8c-0.9,1.2-1.9,1.9-3.3,2.1
			C154.5,226.9,153.3,226.6,152.1,225.8z M155.4,224.9c0.8-0.1,1.5-0.6,2-1.4c0.6-0.8,0.8-1.6,0.7-2.4s-0.5-1.4-1.2-2
			c-0.7-0.5-1.5-0.7-2.3-0.6c-0.8,0.1-1.5,0.6-2,1.4c-0.6,0.8-0.8,1.6-0.7,2.4c0.1,0.8,0.5,1.5,1.2,2
			C153.9,224.8,154.7,225,155.4,224.9z"/>
		<path class="st4" d="M161.1,232.1l-1.6-1.2l2-2.7l1.1-7.1l1.8,1.3l-1,5l4.4-2.5l1.8,1.3l-6.4,3.2L161.1,232.1z"/>
		<path class="st4" d="M169.9,238.6l0.6-1.9l-3.1-2.2l-1.6,1.1l-1.7-1.2l8.6-5.9l1.9,1.4l-3,10L169.9,238.6z M168.7,233.6l2.3,1.6
			l1.3-4.1L168.7,233.6z"/>
		<path class="st4" d="M183.7,236.5l1.6,1.2l-5.8,7.9l-1.6-1.2l0.4-8.1l-4,5.5l-1.6-1.2l5.8-7.9l1.6,1.2l-0.4,8.1L183.7,236.5z"/>
		<path class="st4" d="M182.7,246.2c-0.2-1.3,0.1-2.6,0.9-3.7c0.9-1.2,1.9-1.9,3.3-2c1.3-0.2,2.6,0.1,3.7,0.9
			c0.9,0.6,1.5,1.4,1.8,2.3c0.4,0.9,0.4,1.9,0.1,2.9l-1.9-1.4c0.1-1-0.2-1.7-1.1-2.4c-0.7-0.5-1.5-0.7-2.3-0.6
			c-0.8,0.1-1.5,0.6-2,1.4c-0.6,0.8-0.8,1.6-0.7,2.4c0.1,0.8,0.5,1.5,1.2,2c0.8,0.6,1.7,0.7,2.6,0.3l1.9,1.4
			c-0.9,0.6-1.8,0.9-2.8,0.8c-1-0.1-1.9-0.4-2.8-1C183.6,248.7,183,247.6,182.7,246.2z"/>
		<path class="st4" d="M200.3,248.5l-0.9,1.2l-3-2.2l-1.5,2.1l2.6,1.9l-0.9,1.2l-2.6-1.9l-1.6,2.2l3,2.2l-0.9,1.2l-4.6-3.3l5.8-7.9
			L200.3,248.5z"/>
	</g>
</g>
<g id="VIOL_5_">
	<line class="st5" x1="279.4" y1="434.1" x2="575.8" y2="530.4"/>
	<g>
		<path class="st6" d="M279.4,440c-3.3,0-5.9-2.7-5.9-5.9c0-3.3,2.7-5.9,5.9-5.9c3.3,0,5.9,2.7,5.9,5.9
			C285.3,437.3,282.6,440,279.4,440z"/>
		<path class="st0" d="M279.4,428.9c2.9,0,5.2,2.3,5.2,5.2c0,2.9-2.3,5.2-5.2,5.2c-2.9,0-5.2-2.3-5.2-5.2
			C274.2,431.2,276.5,428.9,279.4,428.9 M279.4,427.4c-3.7,0-6.7,3-6.7,6.7c0,3.7,3,6.7,6.7,6.7c3.7,0,6.7-3,6.7-6.7
			C286,430.4,283,427.4,279.4,427.4L279.4,427.4z"/>
	</g>
	<g>
		<line class="st3" x1="0" y1="345.6" x2="295.7" y2="441.7"/>
		<path class="st4" d="M27.8,344.4l-0.5,1.4l-3.5-1.1l-0.8,2.4l3.1,1l-0.5,1.4l-3.1-1l-0.8,2.6l3.5,1.1l-0.5,1.4l-5.4-1.7l3-9.3
			L27.8,344.4z"/>
		<path class="st4" d="M39.9,348.3l-3,9.3L35,357l1.9-5.9l-4.4,5l-1.3-0.4l-0.6-6.7l-1.9,5.8l-1.9-0.6l3-9.3l2.1,0.7l0.7,7.9
			l5.2-5.9L39.9,348.3z"/>
		<path class="st4" d="M41.9,349l3.8,1.2c1,0.3,1.6,0.8,2,1.4s0.5,1.3,0.2,2c-0.3,1-1.2,1.5-2.5,1.5c0.6,0.3,1,0.7,1.2,1.3
			s0.2,1.1,0.1,1.7c-0.2,0.7-0.7,1.2-1.4,1.5s-1.5,0.3-2.5-0.1l-4-1.3L41.9,349z M41.2,357.4l1.9,0.6c0.4,0.1,0.8,0.1,1.1,0
			c0.3-0.1,0.6-0.4,0.7-0.8c0.1-0.4,0.1-0.8-0.1-1.1c-0.2-0.3-0.5-0.5-0.9-0.7l-1.9-0.6L41.2,357.4z M43.3,351l-0.8,2.4l1.7,0.5
			c0.4,0.1,0.8,0.1,1.1,0s0.5-0.4,0.7-0.8c0.1-0.4,0.1-0.7-0.1-1c-0.2-0.3-0.5-0.5-0.9-0.6L43.3,351z"/>
		<path class="st4" d="M53.6,363l0-1.9l-3.6-1.2l-1.2,1.5l-2-0.6l6.3-8.3l2.2,0.7l0.2,10.4L53.6,363z M50.9,358.7l2.6,0.9l-0.1-4.3
			L50.9,358.7z"/>
		<path class="st4" d="M60,361l-1.2,3.7l-1.9-0.6l3-9.3l3.4,1.1c1.1,0.3,1.8,0.9,2.2,1.6c0.4,0.7,0.5,1.5,0.2,2.3
			c-0.2,0.6-0.5,1.1-1.1,1.5s-1.2,0.6-2,0.5l1.1,4.6l-2.2-0.7l-1-4.4L60,361z M61.3,356.9l-0.9,2.7l1.5,0.5c0.5,0.2,0.9,0.1,1.2,0
			c0.3-0.2,0.6-0.5,0.7-0.9c0.1-0.4,0.1-0.8,0-1.1c-0.2-0.3-0.5-0.6-1-0.7L61.3,356.9z"/>
		<path class="st4" d="M71.6,368.9l0-1.9l-3.6-1.2l-1.2,1.5l-2-0.6l6.3-8.3l2.2,0.7l0.2,10.4L71.6,368.9z M68.9,364.5l2.6,0.9
			l-0.1-4.3L68.9,364.5z"/>
		<path class="st4" d="M80.5,363c-0.4-0.1-0.7-0.1-1,0c-0.3,0.1-0.5,0.3-0.6,0.7s-0.1,0.6,0,0.9c0.1,0.2,0.3,0.5,0.5,0.7
			c0.3,0.2,0.5,0.4,0.8,0.6s0.6,0.4,0.9,0.6c0.3,0.2,0.6,0.5,0.8,0.7c0.2,0.3,0.4,0.6,0.4,1c0.1,0.4,0,0.8-0.1,1.3
			c-0.2,0.8-0.8,1.3-1.6,1.7c-0.8,0.4-1.7,0.4-2.7,0c-1-0.3-1.7-0.8-2.2-1.5c-0.5-0.7-0.6-1.4-0.3-2.3l2,0.6c-0.2,0.8,0.1,1.4,1,1.7
			c0.4,0.1,0.8,0.1,1.1,0c0.3-0.1,0.5-0.4,0.7-0.8c0.1-0.4,0-0.7-0.2-1c-0.3-0.3-0.6-0.6-1-0.9c-0.4-0.3-0.9-0.5-1.3-0.8
			c-0.4-0.3-0.7-0.7-0.9-1.2c-0.2-0.5-0.2-1,0-1.7c0.3-0.8,0.8-1.4,1.6-1.7c0.8-0.3,1.6-0.3,2.6,0c1,0.3,1.7,0.8,2.1,1.4
			c0.4,0.6,0.5,1.4,0.3,2.3l-2.1-0.7c0.1-0.4,0-0.7-0.1-1C81.2,363.4,80.9,363.2,80.5,363z"/>
		<path class="st4" d="M88.8,365.7c-0.4-0.1-0.7-0.1-1,0c-0.3,0.1-0.5,0.3-0.6,0.7c-0.1,0.3-0.1,0.6,0,0.9c0.1,0.2,0.3,0.5,0.5,0.7
			s0.5,0.4,0.8,0.6s0.6,0.4,0.9,0.6s0.6,0.5,0.8,0.7c0.2,0.3,0.4,0.6,0.4,1c0.1,0.4,0,0.8-0.1,1.3c-0.2,0.8-0.8,1.3-1.6,1.7
			c-0.8,0.4-1.7,0.4-2.7,0s-1.7-0.8-2.2-1.5c-0.5-0.7-0.6-1.4-0.3-2.3l2,0.6c-0.2,0.8,0.1,1.4,1,1.7c0.4,0.1,0.8,0.1,1.1,0
			c0.3-0.1,0.5-0.4,0.7-0.8c0.1-0.4,0-0.7-0.2-1c-0.3-0.3-0.6-0.6-1-0.9c-0.4-0.3-0.9-0.5-1.3-0.8c-0.4-0.3-0.7-0.7-0.9-1.2
			c-0.2-0.5-0.2-1,0-1.7c0.3-0.8,0.8-1.4,1.6-1.7c0.8-0.3,1.6-0.3,2.6,0s1.7,0.8,2.1,1.4s0.5,1.4,0.3,2.3l-2.1-0.7
			c0.1-0.4,0-0.7-0.1-1C89.5,366.1,89.2,365.9,88.8,365.7z"/>
		<path class="st4" d="M100,367.8l-0.5,1.4l-3.5-1.1l-0.8,2.4l3.1,1l-0.5,1.4l-3.1-1l-0.8,2.6l3.5,1.1l-0.5,1.4l-5.4-1.7l3-9.3
			L100,367.8z"/>
		<path class="st4" d="M112,371.7l-3,9.3l-1.9-0.6l1.9-5.9l-4.4,5l-1.3-0.4l-0.6-6.7l-1.9,5.8l-1.9-0.6l3-9.3l2.1,0.7l0.7,7.9
			l5.2-5.9L112,371.7z"/>
		<path class="st4" d="M119.4,374.1l-0.5,1.4l-3.5-1.1l-0.8,2.4l3.1,1l-0.5,1.4l-3.1-1l-0.8,2.6l3.5,1.1l-0.5,1.4l-5.4-1.7l3-9.3
			L119.4,374.1z"/>
		<path class="st4" d="M127.4,376.7l1.9,0.6l-3,9.3l-1.9-0.6l-2.1-7.8l-2.1,6.4l-1.9-0.6l3-9.3l1.9,0.6l2.1,7.8L127.4,376.7z"/>
		<path class="st4" d="M130.2,379.3l0.5-1.4l6.9,2.2l-0.5,1.4l-2.5-0.8l-2.6,7.9l-1.9-0.6l2.6-7.9L130.2,379.3z"/>
	</g>
</g>
<g id="VIOL_4_">
	<line class="st5" x1="325.1" y1="530" x2="575.8" y2="530.4"/>
	<g>
		<path class="st6" d="M325.1,535.9c-3.3,0-5.9-2.7-5.9-5.9c0-3.3,2.7-5.9,5.9-5.9c3.3,0,5.9,2.7,5.9,5.9
			C331,533.3,328.4,535.9,325.1,535.9z"/>
		<path class="st0" d="M325.1,524.8c2.9,0,5.2,2.3,5.2,5.2c0,2.9-2.3,5.2-5.2,5.2c-2.9,0-5.2-2.3-5.2-5.2
			C319.9,527.1,322.2,524.8,325.1,524.8 M325.1,523.3c-3.7,0-6.7,3-6.7,6.7c0,3.7,3,6.7,6.7,6.7c3.7,0,6.7-3,6.7-6.7
			C331.8,526.3,328.8,523.3,325.1,523.3L325.1,523.3z"/>
	</g>
	<g>
		<line class="st3" x1="4.9" y1="530.9" x2="255.6" y2="530.9"/>
		<path class="st4" d="M79.5,530.9v-9.8h6v1.5h-4.1v2.6h3.1v1.5h-3.1v4.2H79.5z"/>
		<path class="st4" d="M92.7,521.1v1.5H89v2.6h3.2v1.5H89v2.7h3.7v1.5h-5.6v-9.8H92.7z"/>
		<path class="st4" d="M101.1,530.9l-0.6-1.8h-3.8l-0.6,1.8H94l3.5-9.8h2.3l3.4,9.8H101.1z M97.2,527.6h2.8l-1.4-4.1L97.2,527.6z"/>
		<path class="st4" d="M106.5,527v3.9h-2v-9.8h3.6c1.1,0,2,0.3,2.6,0.8s0.9,1.3,0.9,2.1c0,0.6-0.2,1.2-0.6,1.7
			c-0.4,0.5-1,0.9-1.8,1.1l2.5,4h-2.3l-2.3-3.9H106.5z M106.5,522.7v2.9h1.6c0.5,0,0.9-0.1,1.1-0.4c0.3-0.3,0.4-0.6,0.4-1
			s-0.1-0.8-0.4-1c-0.3-0.3-0.6-0.4-1.1-0.4H106.5z"/>
	</g>
</g>
<g id="VIOL_3_">
	<line class="st5" x1="510" y1="551.8" x2="575.8" y2="530.4"/>
	<g>
		<path class="st6" d="M510,557.7c-3.3,0-5.9-2.7-5.9-5.9c0-3.3,2.7-5.9,5.9-5.9c3.3,0,5.9,2.7,5.9,5.9
			C516,555,513.3,557.7,510,557.7z"/>
		<path class="st0" d="M510,546.6c2.9,0,5.2,2.3,5.2,5.2s-2.3,5.2-5.2,5.2c-2.9,0-5.2-2.3-5.2-5.2S507.2,546.6,510,546.6 M510,545.1
			c-3.7,0-6.7,3-6.7,6.7s3,6.7,6.7,6.7s6.7-3,6.7-6.7S513.7,545.1,510,545.1L510,545.1z"/>
	</g>
	<g>
		<line class="st3" x1="88.5" y1="691.1" x2="146.1" y2="672.4"/>
		<path class="st4" d="M98,686.6c-1.2-0.6-2-1.6-2.5-3c-0.4-1.4-0.4-2.7,0.3-3.9c0.6-1.2,1.6-2,2.9-2.4c1-0.3,2-0.4,2.9-0.1
			c1,0.3,1.7,0.8,2.4,1.6l-2.2,0.7c-0.7-0.7-1.5-0.9-2.5-0.5c-0.8,0.3-1.4,0.8-1.8,1.5c-0.3,0.7-0.4,1.5-0.1,2.5
			c0.3,0.9,0.8,1.6,1.5,2c0.7,0.4,1.4,0.5,2.2,0.2s1.3-0.6,1.6-1.2s0.4-1.1,0.3-1.8l-3.1,1l-0.5-1.4l5.1-1.7l0.5,1.4
			c0.2,1.1,0,2.1-0.6,3.1c-0.6,1-1.5,1.8-2.8,2.2C100.4,687.3,99.2,687.2,98,686.6z"/>
		<path class="st4" d="M106.6,681.3l-1.9-5.7l1.9-0.6l1.9,5.7c0.2,0.6,0.5,1.1,1,1.3s0.9,0.2,1.6,0c0.6-0.2,1-0.5,1.2-0.9
			s0.2-1,0-1.6l-1.9-5.7l1.9-0.6l1.9,5.7c0.4,1.2,0.3,2.2-0.2,3.1c-0.5,0.9-1.3,1.5-2.4,1.8c-1.1,0.3-2,0.3-3-0.1
			C107.7,683.2,107,682.4,106.6,681.3z"/>
		<path class="st4" d="M117.2,681.8l-3-9.3l1.9-0.6l3,9.3L117.2,681.8z"/>
		<path class="st4" d="M118.1,671.2l1.9-0.6l2.6,7.9l3-1l0.5,1.4l-4.9,1.6L118.1,671.2z"/>
		<path class="st4" d="M124.1,670.8l-0.5-1.4l6.9-2.2l0.5,1.4l-2.5,0.8l2.6,7.9l-1.9,0.6l-2.6-7.9L124.1,670.8z"/>
	</g>
</g>
<g id="VIOL_2_">
	<line class="st5" x1="413.3" y1="648.1" x2="575.8" y2="530.4"/>
	<g>
		<path class="st6" d="M413.3,654.1c-3.3,0-5.9-2.7-5.9-5.9c0-3.3,2.7-5.9,5.9-5.9c3.3,0,5.9,2.7,5.9,5.9
			C419.2,651.4,416.5,654.1,413.3,654.1z"/>
		<path class="st0" d="M413.3,643c2.9,0,5.2,2.3,5.2,5.2s-2.3,5.2-5.2,5.2c-2.9,0-5.2-2.3-5.2-5.2S410.4,643,413.3,643 M413.3,641.5
			c-3.7,0-6.7,3-6.7,6.7s3,6.7,6.7,6.7c3.7,0,6.7-3,6.7-6.7S417,641.5,413.3,641.5L413.3,641.5z"/>
	</g>
	<g>
		<line class="st3" x1="105.6" y1="875.9" x2="266.7" y2="758.9"/>
		<path class="st4" d="M158.6,827.1c-0.3,0.2-0.5,0.5-0.6,0.8c-0.1,0.3,0,0.6,0.2,0.9c0.2,0.3,0.4,0.5,0.7,0.5
			c0.3,0.1,0.6,0,0.9-0.1c0.3-0.1,0.6-0.2,1-0.3c0.3-0.1,0.7-0.3,1-0.4s0.7-0.2,1.1-0.2c0.3,0,0.7,0,1,0.2c0.3,0.2,0.7,0.4,0.9,0.8
			c0.5,0.6,0.6,1.4,0.4,2.2s-0.7,1.6-1.6,2.2c-0.9,0.6-1.7,0.9-2.5,0.9c-0.8,0-1.5-0.4-2-1.1l1.7-1.2c0.6,0.7,1.2,0.7,1.9,0.2
			c0.4-0.3,0.6-0.6,0.7-0.9c0.1-0.3,0-0.7-0.2-1c-0.2-0.3-0.5-0.5-1-0.4c-0.4,0-0.8,0.1-1.3,0.3s-0.9,0.4-1.4,0.5s-1,0.2-1.5,0.1
			s-1-0.4-1.3-1c-0.5-0.7-0.7-1.5-0.5-2.3c0.2-0.8,0.7-1.5,1.5-2.1c0.8-0.6,1.6-0.9,2.4-0.9c0.8,0,1.5,0.4,2.1,1.1l-1.7,1.3
			c-0.2-0.3-0.5-0.4-0.9-0.5C159.2,826.8,158.9,826.9,158.6,827.1z"/>
		<path class="st4" d="M167.3,819l1.6-1.2l5.7,7.9l-1.6,1.2l-2.5-3.4l-3.4,2.5l2.5,3.4l-1.6,1.2l-5.7-7.9l1.6-1.2l2.4,3.3l3.4-2.5
			L167.3,819z"/>
		<path class="st4" d="M180,822c-1.1,0.8-2.4,1.1-3.7,0.9c-1.3-0.2-2.4-0.9-3.3-2.1c-0.9-1.2-1.2-2.4-0.9-3.8c0.2-1.3,0.9-2.4,2-3.2
			c1.1-0.8,2.4-1.1,3.7-0.9c1.3,0.2,2.4,0.9,3.3,2.1c0.9,1.2,1.2,2.4,0.9,3.8S181.1,821.1,180,822z M180.1,818.5
			c0.1-0.8-0.1-1.6-0.7-2.4s-1.2-1.2-2-1.4c-0.8-0.1-1.5,0-2.3,0.6c-0.7,0.5-1.1,1.2-1.2,2s0.1,1.6,0.7,2.4c0.6,0.8,1.2,1.2,2,1.4
			c0.8,0.1,1.5,0,2.3-0.6C179.6,820,180,819.3,180.1,818.5z"/>
		<path class="st4" d="M185.2,816.4c-1.3-0.2-2.4-0.9-3.3-2.1c-0.9-1.2-1.2-2.4-0.9-3.8c0.2-1.3,0.9-2.4,2-3.2c0.9-0.6,1.8-1,2.8-1
			c1,0,1.9,0.2,2.8,0.8l-1.9,1.4c-0.9-0.4-1.7-0.3-2.6,0.3c-0.7,0.5-1.1,1.2-1.2,2s0.1,1.6,0.7,2.4c0.6,0.8,1.2,1.2,2,1.4
			c0.8,0.1,1.5,0,2.3-0.6c0.8-0.6,1.2-1.4,1.1-2.4l1.9-1.4c0.3,1,0.3,2-0.1,2.9s-1,1.7-1.8,2.3C187.7,816.3,186.5,816.6,185.2,816.4
			z"/>
		<path class="st4" d="M195.5,810.5l-1.6,1.2l-5.7-7.9l1.6-1.2l2.6,3.5l0.3-5.6l2.1-1.5l-0.6,6.5l6.3,1.4l-2.1,1.5L193,807
			L195.5,810.5z"/>
	</g>
</g>
<g id="VIOL_1_">
	<line class="st5" x1="473.2" y1="670.9" x2="575.8" y2="530.4"/>
	<g>
		<path class="st6" d="M473.2,676.8c-3.3,0-5.9-2.7-5.9-5.9c0-3.3,2.7-5.9,5.9-5.9c3.3,0,5.9,2.7,5.9,5.9
			C479.1,674.2,476.4,676.8,473.2,676.8z"/>
		<path class="st0" d="M473.2,665.7c2.9,0,5.2,2.3,5.2,5.2s-2.3,5.2-5.2,5.2c-2.9,0-5.2-2.3-5.2-5.2S470.3,665.7,473.2,665.7
			 M473.2,664.2c-3.7,0-6.7,3-6.7,6.7s3,6.7,6.7,6.7c3.7,0,6.7-3,6.7-6.7S476.8,664.2,473.2,664.2L473.2,664.2z"/>
	</g>
	<g>
		<line class="st3" x1="229" y1="1011.4" x2="330.6" y2="871.6"/>
		<path class="st4" d="M269,942.3c-0.2,0.3-0.3,0.6-0.3,1c0,0.3,0.2,0.6,0.5,0.8c0.3,0.2,0.6,0.3,0.8,0.3s0.5-0.1,0.8-0.3
			c0.3-0.2,0.5-0.4,0.8-0.6c0.3-0.2,0.6-0.5,0.9-0.7c0.3-0.2,0.6-0.4,0.9-0.5c0.3-0.1,0.7-0.2,1.1-0.1c0.4,0.1,0.8,0.2,1.2,0.5
			c0.6,0.5,1,1.1,1.1,2c0.1,0.9-0.2,1.7-0.8,2.6c-0.6,0.9-1.3,1.4-2.1,1.6c-0.8,0.2-1.5,0.1-2.3-0.4l1.2-1.7
			c0.7,0.4,1.4,0.3,1.9-0.4c0.3-0.4,0.4-0.7,0.3-1.1s-0.2-0.6-0.5-0.9s-0.7-0.3-1-0.1c-0.4,0.1-0.8,0.4-1.1,0.7
			c-0.4,0.3-0.8,0.7-1.2,1s-0.9,0.5-1.4,0.5c-0.5,0-1.1-0.1-1.6-0.5c-0.7-0.5-1.1-1.2-1.2-2c-0.1-0.8,0.2-1.7,0.8-2.5
			c0.6-0.8,1.3-1.3,2-1.6c0.7-0.2,1.5-0.1,2.3,0.4l-1.3,1.7c-0.3-0.2-0.6-0.2-1-0.2S269.2,942,269,942.3z"/>
		<path class="st4" d="M274.7,932l1.2-1.6l7.9,5.7l-1.2,1.6l-3.4-2.5l-2.5,3.4l3.4,2.5l-1.2,1.6l-7.9-5.7l1.2-1.6l3.3,2.4l2.5-3.4
			L274.7,932z"/>
		<path class="st4" d="M288.8,929.2l-1.9-0.6l-2.2,3.1l1.1,1.6l-1.2,1.7l-5.9-8.6l1.4-1.9l10,3L288.8,929.2z M283.7,930.4l1.6-2.3
			l-4.1-1.3L283.7,930.4z"/>
		<path class="st4" d="M289.2,912l7.9,5.7l-1.2,1.6l-5-3.6l3.4,5.8l-0.8,1.1l-6.5-1.5l5,3.6l-1.2,1.6l-7.9-5.7l1.3-1.8l7.7,1.7
			l-4-6.8L289.2,912z"/>
		<path class="st4" d="M293.7,905.8l1.2,0.9l-2.2,3l2.1,1.5l1.9-2.6l1.2,0.9L296,912l2.2,1.6l2.2-3l1.2,0.9l-3.3,4.6l-7.9-5.8
			L293.7,905.8z"/>
	</g>
</g>
<g id="VIOL">
	<line class="st5" x1="562.2" y1="572" x2="575.8" y2="530.4"/>
	<g>
		<path class="st6" d="M562.2,578c-3.3,0-5.9-2.7-5.9-5.9c0-3.3,2.7-5.9,5.9-5.9s5.9,2.7,5.9,5.9C568.2,575.3,565.5,578,562.2,578z"
			/>
		<path class="st0" d="M562.2,566.9c2.9,0,5.2,2.3,5.2,5.2s-2.3,5.2-5.2,5.2c-2.9,0-5.2-2.3-5.2-5.2S559.4,566.9,562.2,566.9
			 M562.2,565.4c-3.7,0-6.7,3-6.7,6.7s3,6.7,6.7,6.7c3.7,0,6.7-3,6.7-6.7S565.9,565.4,562.2,565.4L562.2,565.4z"/>
	</g>
	<g>
		<line class="st3" x1="418.4" y1="1024" x2="437.6" y2="964.9"/>
		<path class="st4" d="M422,1013.3c-0.4,1.3-1.2,2.3-2.4,2.9c-1.2,0.6-2.5,0.7-3.9,0.3c-1.4-0.4-2.4-1.3-3-2.5
			c-0.6-1.2-0.7-2.5-0.2-3.8c0.4-1.3,1.2-2.3,2.4-2.9s2.5-0.7,3.9-0.3c1.4,0.4,2.4,1.3,3,2.5C422.3,1010.7,422.4,1012,422,1013.3z
			 M420.1,1010.4c-0.4-0.7-1-1.2-2-1.5c-0.9-0.3-1.7-0.3-2.5,0.1s-1.2,0.9-1.5,1.8c-0.3,0.8-0.2,1.6,0.2,2.3c0.4,0.7,1,1.2,2,1.5
			c0.9,0.3,1.7,0.3,2.5-0.1s1.2-0.9,1.5-1.8C420.5,1011.9,420.5,1011.1,420.1,1010.4z"/>
		<path class="st4" d="M415.9,1005l-1.4-0.5l2.2-6.9l1.4,0.5l-0.8,2.5l7.9,2.6l-0.6,1.9l-7.9-2.6L415.9,1005z"/>
		<path class="st4" d="M419,990.3l0.6-1.9l9.3,3l-0.6,1.9l-4-1.3l-1.3,4l4,1.3l-0.6,1.9l-9.3-3l0.6-1.9l3.9,1.3l1.3-4L419,990.3z"/>
		<path class="st4" d="M422,981.1l1.4,0.5l-1.1,3.5l2.4,0.8l1-3.1l1.4,0.5l-1,3.1l2.6,0.8l1.1-3.5l1.4,0.5l-1.7,5.4l-9.3-3
			L422,981.1z"/>
		<path class="st4" d="M428.9,979.1l3.7,1.2l-0.6,1.9l-9.3-3l1.1-3.4c0.3-1.1,0.9-1.8,1.6-2.2c0.7-0.4,1.5-0.5,2.3-0.2
			c0.6,0.2,1.1,0.5,1.5,1.1s0.6,1.2,0.5,2l4.6-1.1l-0.7,2.2l-4.4,1L428.9,979.1z M424.7,977.8l2.7,0.9l0.5-1.5
			c0.2-0.5,0.1-0.9,0-1.2c-0.2-0.3-0.5-0.6-0.9-0.7c-0.4-0.1-0.8-0.1-1.1,0.1c-0.3,0.2-0.6,0.5-0.7,1L424.7,977.8z"/>
	</g>
</g>
<g id="Livello_13">
	<rect x="575.8" y="491.8" class="st0" width="61.3" height="70.9"/>
	<line class="st1" x1="575.8" y1="94.7" x2="575.8" y2="960.2"/>
</g>
</svg>
