<svg xmlns="http://www.w3.org/2000/svg" viewBox="0 0 1027 1049"><defs><style>.cls-1{font-size:48px;}.cls-1,.cls-3{fill:#93833f;}.cls-1,.cls-2,.cls-5{font-family:Merriweather-Bold, Merriweather;font-weight:700;}.cls-2{font-size:33px;fill:#333;}.cls-4,.cls-6{fill:none;}.cls-4{stroke:#333;stroke-miterlimit:10;stroke-dasharray:4;}.cls-5{font-size:24px;fill:#685d2e;}</style></defs><title>airports_01</title><g id="Livello_2" data-name="Livello 2"><g id="Livello_1-2" data-name="Livello 1"><text class="cls-1" transform="translate(397.59 632.77)">1500 Linate Airport</text><text class="cls-2" transform="translate(384.12 760.77)">25 Linate Airports</text><rect class="cls-3" x="253.83" y="123.29" width="57.6" height="57.6"/><rect class="cls-3" x="253.83" y="722.04" width="57.6" height="57.6"/><rect class="cls-3" x="329.84" y="123.29" width="57.6" height="57.6"/><rect class="cls-3" x="405.85" y="123.33" width="57.6" height="57.6"/><rect class="cls-3" x="481.86" y="123.33" width="57.6" height="57.6"/><rect class="cls-3" x="557.87" y="123.29" width="57.6" height="57.6"/><rect class="cls-3" x="633.89" y="123.29" width="57.6" height="57.6"/><rect class="cls-3" x="709.9" y="123.33" width="57.6" height="57.6"/><rect class="cls-3" x="785.91" y="123.33" width="57.6" height="57.6"/><rect class="cls-3" x="861.92" y="123.33" width="57.6" height="57.6"/><rect class="cls-3" x="937.93" y="123.33" width="57.6" height="57.6"/><rect class="cls-3" x="253.83" y="423.51" width="57.6" height="57.6"/><rect class="cls-3" x="329.84" y="423.51" width="57.6" height="57.6"/><rect class="cls-3" x="405.85" y="423.55" width="57.6" height="57.6"/><rect class="cls-3" x="481.86" y="423.55" width="57.6" height="57.6"/><rect class="cls-3" x="253.83" y="348.25" width="57.6" height="57.6"/><rect class="cls-3" x="329.84" y="348.25" width="57.6" height="57.6"/><rect class="cls-3" x="405.85" y="348.29" width="57.6" height="57.6"/><rect class="cls-3" x="481.86" y="348.29" width="57.6" height="57.6"/><rect class="cls-3" x="557.87" y="423.51" width="57.6" height="57.6"/><rect class="cls-3" x="633.89" y="423.51" width="57.6" height="57.6"/><rect class="cls-3" x="709.9" y="423.55" width="57.6" height="57.6"/><rect class="cls-3" x="785.91" y="423.55" width="57.6" height="57.6"/><rect class="cls-3" x="557.87" y="348.25" width="57.6" height="57.6"/><rect class="cls-3" x="633.89" y="348.25" width="57.6" height="57.6"/><rect class="cls-3" x="709.9" y="348.29" width="57.6" height="57.6"/><rect class="cls-3" x="785.91" y="348.29" width="57.6" height="57.6"/><rect class="cls-3" x="861.92" y="423.55" width="57.6" height="57.6"/><rect class="cls-3" x="861.92" y="348.29" width="57.6" height="57.6"/><rect class="cls-3" x="937.93" y="423.55" width="57.6" height="57.6"/><rect class="cls-3" x="253.83" y="493.75" width="57.6" height="57.6"/><rect class="cls-3" x="329.84" y="493.75" width="57.6" height="57.6"/><rect class="cls-3" x="405.85" y="493.79" width="57.6" height="57.6"/><rect class="cls-3" x="481.86" y="493.79" width="57.6" height="57.6"/><rect class="cls-3" x="557.87" y="493.75" width="57.6" height="57.6"/><rect class="cls-3" x="633.89" y="493.75" width="57.6" height="57.6"/><rect class="cls-3" x="709.9" y="493.79" width="57.6" height="57.6"/><rect class="cls-3" x="785.91" y="493.79" width="57.6" height="57.6"/><rect class="cls-3" x="861.92" y="493.79" width="57.6" height="57.6"/><rect class="cls-3" x="937.93" y="493.79" width="57.6" height="57.6"/><rect class="cls-3" x="937.93" y="348.29" width="57.6" height="57.6"/><rect class="cls-3" x="253.83" y="272.21" width="57.6" height="57.6"/><rect class="cls-3" x="329.84" y="272.21" width="57.6" height="57.6"/><rect class="cls-3" x="405.85" y="272.25" width="57.6" height="57.6"/><rect class="cls-3" x="481.86" y="272.25" width="57.6" height="57.6"/><rect class="cls-3" x="253.83" y="196.94" width="57.6" height="57.6"/><rect class="cls-3" x="329.84" y="196.94" width="57.6" height="57.6"/><rect class="cls-3" x="405.85" y="196.98" width="57.6" height="57.6"/><rect class="cls-3" x="481.86" y="196.98" width="57.6" height="57.6"/><rect class="cls-3" x="557.87" y="272.21" width="57.6" height="57.6"/><rect class="cls-3" x="633.89" y="272.21" width="57.6" height="57.6"/><rect class="cls-3" x="709.9" y="272.25" width="57.6" height="57.6"/><rect class="cls-3" x="785.91" y="272.25" width="57.6" height="57.6"/><rect class="cls-3" x="557.87" y="196.94" width="57.6" height="57.6"/><rect class="cls-3" x="633.89" y="196.94" width="57.6" height="57.6"/><rect class="cls-3" x="709.9" y="196.98" width="57.6" height="57.6"/><rect class="cls-3" x="785.91" y="196.98" width="57.6" height="57.6"/><rect class="cls-3" x="861.92" y="272.25" width="57.6" height="57.6"/><rect class="cls-3" x="861.92" y="196.98" width="57.6" height="57.6"/><rect class="cls-3" x="937.93" y="272.25" width="57.6" height="57.6"/><rect class="cls-3" x="937.93" y="196.98" width="57.6" height="57.6"/><line class="cls-4" x1="321" y1="750.5" x2="379" y2="750.5"/><text class="cls-5" transform="translate(387.39 798.98)"><tspan xml:space="preserve">1  Linate Airport = 350 ha</tspan></text><rect class="cls-6" width="1027" height="1049"/></g></g></svg>