<?xml version="1.0" encoding="utf-8"?>
<!-- Generator: Adobe Illustrator 18.0.0, SVG Export Plug-In . SVG Version: 6.00 Build 0)  -->
<!DOCTYPE svg PUBLIC "-//W3C//DTD SVG 1.1//EN" "http://www.w3.org/Graphics/SVG/1.1/DTD/svg11.dtd">
<svg version="1.1" id="Livello_1" xmlns="http://www.w3.org/2000/svg" xmlns:xlink="http://www.w3.org/1999/xlink" x="0px" y="0px"
	 viewBox="0 0 1931.6 2171.6" style="enable-background:new 0 0 1931.6 2171.6;" xml:space="preserve">
<style type="text/css">
	.st0{fill:#00FFFF;}
	.st1{fill:#93278F;}
	.st2{fill:#FBB03B;}
	.st3{fill:#C8E593;}
	.st4{fill:#333333;}
	.st5{fill:none;}
	.st6{fill:none;stroke:#333333;stroke-width:9;stroke-miterlimit:10;}
	.st7{fill:none;stroke:#FFFFFF;stroke-width:9;stroke-miterlimit:10;}
	.st8{fill:none;stroke:#F2F2F2;stroke-width:7;stroke-miterlimit:10;}
	.st9{fill:#FFFFFF;}
	.st10{fill:none;stroke:#FFFFFF;stroke-width:3;stroke-miterlimit:10;}
	.st11{fill:#5CB35F;}
	.st12{fill:#194C23;}
	.st13{fill:#4290C0;}
	.st14{font-family:'FiraSans-BoldItalic';}
	.st15{font-size:20;}
	.st16{fill:none;stroke:#FFFFFF;stroke-width:2;stroke-miterlimit:10;}
	.st17{fill:none;stroke:#FFFFFF;stroke-width:2;stroke-miterlimit:10;stroke-dasharray:2.9671,2.9671;}
	.st18{fill:none;stroke:#FFFFFF;stroke-width:2;stroke-miterlimit:10;stroke-dasharray:2.9914,2.9914;}
	.st19{fill:none;stroke:#FFFFFF;stroke-width:2;stroke-miterlimit:10;stroke-dasharray:2.9693,2.9693;}
	.st20{opacity:0.74;fill:#329690;}
	.st21{opacity:0.74;fill:#D8D8D7;}
	.st22{opacity:0.74;fill:#91BF3E;}
	.st23{fill:none;stroke:#A6A8AB;stroke-miterlimit:10;}
	.st24{opacity:0.88;}
	.st25{opacity:0.74;fill:#1D9CD7;}
	.st26{fill:#50690E;}
	.st27{fill:#AEC071;}
	.st28{fill:#9AC31C;}
	.st29{fill:#BCCF00;}
	.st30{fill:#8BAF1A;}
	.st31{fill:#AAC25B;}
	.st32{fill:#435124;}
	.st33{fill:#869603;}
	.st34{fill:#616F03;}
	.st35{fill:#65833F;}
	.st36{fill:#C3CA7A;}
	.st37{fill:none;stroke:#FFFFFF;stroke-width:3.7431;stroke-miterlimit:10;}
	.st38{fill:none;stroke:#FFFFFF;stroke-miterlimit:10;stroke-dasharray:12;}
	.st39{opacity:0.5;fill:#666666;}
	.st40{fill:#E3F1C9;}
	.st41{fill:#E3F1C9;stroke:#F2F2F2;stroke-width:3;stroke-miterlimit:10;}
	.st42{fill:none;stroke:#329690;stroke-width:2;stroke-miterlimit:10;stroke-dasharray:6;}
	.st43{fill:#333333;stroke:#333333;stroke-width:7;stroke-miterlimit:10;}
	.st44{fill:#CE3E62;}
	.st45{fill:#F7931E;}
	.st46{fill:#85A237;}
	.st47{opacity:0.7;fill:#329690;}
	.st48{opacity:0.7;fill:#93833F;}
	.st49{fill:#C8DC94;}
	.st50{font-size:15.637;}
	.st51{font-family:'FiraSans-SemiBoldItalic';}
	.st52{font-size:36;}
	.st53{font-family:'FiraSans-Light';}
	.st54{font-size:21;}
	.st55{letter-spacing:5;}
	.st56{letter-spacing:1;}
	.st57{fill:none;stroke:#231F20;stroke-width:0.25;stroke-miterlimit:10;}
	.st58{fill:none;stroke:#231F20;stroke-width:0.25;stroke-miterlimit:10;stroke-dasharray:1.9805,1.9805;}
	.st59{letter-spacing:2;}
	.st60{letter-spacing:8;}
	.st61{opacity:0.7;fill:#D8D8D7;}
	.st62{letter-spacing:-1;}
	.st63{letter-spacing:6;}
	.st64{letter-spacing:4;}
	.st65{fill:none;stroke:#F2F2F2;stroke-width:8;stroke-miterlimit:10;}
	.st66{opacity:0.8;fill:#93833F;}
	.st67{opacity:0.8;fill:#329690;}
	.st68{fill:none;stroke:#F2F2F2;stroke-width:2;stroke-miterlimit:10;stroke-dasharray:6;}
	.st69{fill:#D6C570;}
	.st70{fill:#EFEEAD;}
	.st71{fill:#93833F;}
	.st72{fill:#EDF1C6;}
	.st73{fill:none;stroke:#333333;stroke-width:8;stroke-miterlimit:10;}
	.st74{fill:none;stroke:#C8DC94;stroke-width:3;stroke-miterlimit:10;}
	.st75{fill:#F2F2F2;stroke:#FFFFFF;stroke-miterlimit:10;}
	.st76{fill:#67BAA7;}
	.st77{fill:#329690;}
	.st78{fill:none;stroke:#333333;stroke-width:3;stroke-miterlimit:10;}
	.st79{fill:#A4DD7F;}
	.st80{fill:#85C68A;}
	.st81{fill:#4C936E;}
	.st82{fill:#54A07A;}
	.st83{fill:#352B2B;}
	.st84{fill:#61AF86;}
	.st85{fill:#91CE6A;}
	.st86{font-family:'FiraSans-SemiBold';}
	.st87{font-size:18;}
	.st88{clip-path:url(#SVGID_2_);fill:#67BAA7;}
	.st89{fill:#319690;}
	.st90{fill:#97CEDA;}
	.st91{fill:#31958F;}
	.st92{clip-path:url(#SVGID_4_);fill:#67BAA7;}
	.st93{clip-path:url(#SVGID_6_);fill:#67BAA7;}
	.st94{clip-path:url(#SVGID_8_);fill:#67BAA7;}
	.st95{clip-path:url(#SVGID_10_);fill:#97CEDA;}
	.st96{clip-path:url(#SVGID_10_);fill:#67BAA7;}
	.st97{clip-path:url(#SVGID_12_);fill:#97CEDA;}
	.st98{clip-path:url(#SVGID_12_);fill:#67BAA7;}
	.st99{clip-path:url(#SVGID_14_);fill:#67BAA7;}
	.st100{clip-path:url(#SVGID_16_);fill:#67BAA7;}
	.st101{clip-path:url(#SVGID_18_);fill:#67BAA7;}
	.st102{clip-path:url(#SVGID_20_);fill:#67BAA7;}
	.st103{clip-path:url(#SVGID_22_);fill:#97CEDA;}
	.st104{clip-path:url(#SVGID_22_);fill:#67BAA7;}
	.st105{clip-path:url(#SVGID_24_);fill:#67BAA7;}
	.st106{clip-path:url(#SVGID_26_);fill:#67BAA7;}
	.st107{clip-path:url(#SVGID_28_);fill:#67BAA7;}
	.st108{clip-path:url(#SVGID_30_);fill:#D6C570;}
	.st109{fill:#B3B3B3;}
	.st110{fill:#4D4D4D;}
	.st111{clip-path:url(#SVGID_32_);fill:#D6C570;}
	.st112{fill:#92823E;}
	.st113{fill:#AB5117;}
	.st114{opacity:0.5;fill:#92823E;}
	.st115{fill:none;stroke:#FFFFFF;stroke-miterlimit:10;}
	.st116{fill:none;stroke:#FFFFFF;stroke-miterlimit:10;stroke-dasharray:4.0175,4.0175;}
	.st117{fill:#C52C4B;}
	.st118{fill:none;stroke:#FFFFFF;stroke-width:0.75;stroke-miterlimit:10;}
	.st119{fill:none;stroke:#FFFFFF;stroke-width:0.75;stroke-miterlimit:10;stroke-dasharray:3.9487,3.9487;}
	.st120{fill:none;stroke:#FFFFFF;stroke-width:0.75;stroke-miterlimit:10;stroke-dasharray:3.9186,3.9186;}
	.st121{fill:#5CFFE7;}
</style>
<g>
	<text transform="matrix(1 0 0 1 863.1338 1642.3311)" class="st9 st14 st15">Dominican Republic</text>
</g>
<g>
	<text transform="matrix(1 0 0 1 1270.6892 1638.3311)" class="st9 st14 st15">Ethiopia</text>
</g>
<g>
	<text transform="matrix(1 0 0 1 1618.1919 1638.3315)" class="st9 st14 st15">Haiti</text>
</g>
<g>
	<text transform="matrix(1 0 0 1 241.1946 1363.2817)" class="st9 st14 st15">Indonesia </text>
</g>
<g>
	<text transform="matrix(1 0 0 1 607.9121 1362.6558)" class="st9 st14 st15">Israel </text>
</g>
<g>
	<text transform="matrix(1 0 0 1 239.3235 1638.3311)" class="st9 st14 st15">Colombia</text>
</g>
<g>
	<text transform="matrix(1 0 0 1 494.644 1637.3315)" class="st9 st14 st15">Democratic Republic of Congo</text>
</g>
<g>
	<text transform="matrix(1 0 0 1 928.1006 1365.8081)" class="st9 st14 st15">Kenya </text>
</g>
<g>
	<text transform="matrix(1 0 0 1 1282.7639 1363.6587)" class="st9 st14 st15">Mexico</text>
</g>
<g>
	<text transform="matrix(1 0 0 1 1625.0977 1365.0068)" class="st9 st14 st15">Peru</text>
</g>
<g>
	<text transform="matrix(1 0 0 1 217.9964 1916.9526)" class="st9 st14 st15">South Africa</text>
</g>
<g>
	<text transform="matrix(1 0 0 1 595.144 1915.9521)" class="st9 st14 st15">Spain</text>
</g>
<g>
	<text transform="matrix(1 0 0 1 1253.1106 1916.9521)" class="st9 st14 st15">Venezuela</text>
</g>
<g>
	<text transform="matrix(1 0 0 1 832.0122 1920.9521)" class="st9 st14 st15">United States of America</text>
</g>
<g>
	<text transform="matrix(1 0 0 1 1600.6577 1916.9521)" class="st9 st14 st15">Others</text>
</g>
<g>
	<g>
		<g>
			<g>
				<line class="st16" x1="1379.7" y1="1270.5" x2="1378.4" y2="1269.7"/>
				<line class="st17" x1="1375.8" y1="1268.2" x2="1315.8" y2="1232.7"/>
				<line class="st16" x1="1314.5" y1="1231.9" x2="1313.3" y2="1231.2"/>
			</g>
		</g>
		<g>
			<g>
				<line class="st16" x1="1245.6" y1="1269.5" x2="1246.9" y2="1268.8"/>
				<line class="st18" x1="1249.5" y1="1267.3" x2="1310.6" y2="1232.6"/>
				<line class="st16" x1="1311.9" y1="1231.9" x2="1313.3" y2="1231.2"/>
			</g>
		</g>
		<g>
			<g>
				<line class="st16" x1="1313.3" y1="1231.2" x2="1313.3" y2="1229.7"/>
				<line class="st19" x1="1313.3" y1="1226.7" x2="1313.3" y2="1156.9"/>
				<line class="st16" x1="1313.3" y1="1155.4" x2="1313.3" y2="1153.9"/>
			</g>
		</g>
	</g>
	<g>
		<path class="st20" d="M1274.4,1186.9c-0.3-21.3,16.8-38.8,38.1-39.1c21.3-0.3,38.8,16.8,39.1,38.1c0.3,21.3-38,46.4-38,46.4
			S1274.7,1208.2,1274.4,1186.9z"/>
		<path class="st21" d="M1313.8,1232c0,0,25.8-12.6,37.2-6.3c11.4,6.3,15.4,20.6,9.1,32c-6.3,11.4-20.6,15.4-32,9.1
			C1316.7,1260.6,1313.8,1232,1313.8,1232z"/>
		<path class="st22" d="M1215.6,1215.5c30.6-18,98.3,16.8,98.3,16.8s-2.3,76-32.9,94.1c-30.6,18-70.1,7.8-88.1-22.8
			C1174.8,1273,1184.9,1233.5,1215.6,1215.5z"/>
	</g>
</g>
<g>
	<path class="st23" d="M1314.2,1312.6c-45.2,0-82-36.8-82-82c0-45.2,36.8-82,82-82c45.2,0,82,36.8,82,82
		C1396.2,1275.9,1359.4,1312.6,1314.2,1312.6z"/>
	<path class="st23" d="M1314.2,1292.7c-34.2,0-62-27.8-62-62s27.8-62,62-62c34.2,0,62,27.8,62,62S1348.4,1292.7,1314.2,1292.7z"/>
	<path class="st23" d="M1314.2,1272.7c-23.2,0-42.1-18.9-42.1-42.1s18.9-42.1,42.1-42.1c23.2,0,42.1,18.9,42.1,42.1
		S1337.4,1272.7,1314.2,1272.7z"/>
	<path class="st23" d="M1314.2,1252.8c-12.2,0-22.1-9.9-22.1-22.1s9.9-22.1,22.1-22.1c12.2,0,22.1,9.9,22.1,22.1
		S1326.4,1252.8,1314.2,1252.8z"/>
	<circle class="st23" cx="1314.2" cy="1230.6" r="2.2"/>
</g>
<g>
	<g>
		<g>
			<g>
				<line class="st16" x1="1712.6" y1="1275.5" x2="1711.3" y2="1274.7"/>
				<line class="st17" x1="1708.8" y1="1273.2" x2="1648.7" y2="1237.7"/>
				<line class="st16" x1="1647.5" y1="1237" x2="1646.2" y2="1236.2"/>
			</g>
		</g>
		<g>
			<g>
				<line class="st16" x1="1578.5" y1="1274.6" x2="1579.8" y2="1273.8"/>
				<line class="st18" x1="1582.4" y1="1272.3" x2="1643.6" y2="1237.7"/>
				<line class="st16" x1="1644.9" y1="1236.9" x2="1646.2" y2="1236.2"/>
			</g>
		</g>
		<g>
			<g>
				<line class="st16" x1="1646.2" y1="1236.2" x2="1646.2" y2="1234.7"/>
				<line class="st19" x1="1646.2" y1="1231.7" x2="1646.2" y2="1161.9"/>
				<line class="st16" x1="1646.2" y1="1160.5" x2="1646.2" y2="1159"/>
			</g>
		</g>
	</g>
	<path class="st20" d="M1624.4,1210.8c-0.2-11.9,9.3-21.6,21.2-21.7s21.6,9.3,21.7,21.2c0.2,11.9-21.1,26.2-21.1,26.2
		S1624.6,1222.6,1624.4,1210.8z"/>
	<path class="st22" d="M1601.1,1230.1c13.6-8.5,45.2,6.1,45.2,6.1s-0.6,34.8-14.2,43.3s-31.6,4.4-40.2-9.2
		C1583.3,1256.6,1587.5,1238.6,1601.1,1230.1z"/>
	<path class="st21" d="M1646.3,1236.5c0,0,11.7-6,16.9-3.3c5.2,2.7,7.3,9.1,4.7,14.3c-2.7,5.2-9.1,7.3-14.3,4.7
		C1648.3,1249.5,1646.3,1236.5,1646.3,1236.5z"/>
	<g>
		<path class="st23" d="M1645.9,1318c-45.2,0-82-36.8-82-82c0-45.2,36.8-82,82-82c45.2,0,82,36.8,82,82
			C1727.9,1281.2,1691.1,1318,1645.9,1318z"/>
		<path class="st23" d="M1645.9,1298.1c-34.2,0-62-27.8-62-62c0-34.2,27.8-62,62-62c34.2,0,62,27.8,62,62
			C1707.9,1270.2,1680.1,1298.1,1645.9,1298.1z"/>
		<path class="st23" d="M1645.9,1278.1c-23.2,0-42.1-18.9-42.1-42.1c0-23.2,18.9-42.1,42.1-42.1c23.2,0,42.1,18.9,42.1,42.1
			C1688,1259.2,1669.1,1278.1,1645.9,1278.1z"/>
		<path class="st23" d="M1645.9,1258.2c-12.2,0-22.1-9.9-22.1-22.1s9.9-22.1,22.1-22.1c12.2,0,22.1,9.9,22.1,22.1
			S1658.1,1258.2,1645.9,1258.2z"/>
		<circle class="st23" cx="1645.9" cy="1236" r="2.2"/>
	</g>
</g>
<g class="st24">
	<text transform="matrix(1 0 0 1 246.3704 1092.5181)" class="st9 st14 st15">Australia</text>
</g>
<g>
	<g>
		<g>
			<g>
				<line class="st16" x1="352.6" y1="1001.4" x2="351.4" y2="1000.6"/>
				<line class="st17" x1="348.8" y1="999.1" x2="288.8" y2="963.6"/>
				<line class="st16" x1="287.5" y1="962.9" x2="286.2" y2="962.1"/>
			</g>
		</g>
		<g>
			<g>
				<line class="st16" x1="218.6" y1="1000.5" x2="219.9" y2="999.7"/>
				<line class="st18" x1="222.5" y1="998.2" x2="283.6" y2="963.6"/>
				<line class="st16" x1="284.9" y1="962.8" x2="286.2" y2="962.1"/>
			</g>
		</g>
		<g>
			<g>
				<line class="st16" x1="286.2" y1="962.1" x2="286.2" y2="960.6"/>
				<line class="st19" x1="286.2" y1="957.6" x2="286.2" y2="887.8"/>
				<line class="st16" x1="286.2" y1="886.4" x2="286.2" y2="884.9"/>
			</g>
		</g>
	</g>
	<path class="st20" d="M300.5,945.1c0,8-14.2,17-14.2,17s-14.7-9-14.7-17s6.5-14.5,14.5-14.5S300.5,937.1,300.5,945.1z"/>
	<path class="st22" d="M286.2,962.1c0,0-0.8,12.7-5.9,15.8c-5.1,3.1-11.8,1.5-14.9-3.6s-1.5-11.8,3.6-14.9
		C274,956.3,286.2,962.1,286.2,962.1z"/>
	<path class="st21" d="M292.6,974.6c-4.3-2.4-5.9-12.3-5.9-12.3s10.1-5.6,14.4-3.2s5.9,7.8,3.5,12.1S296.9,977,292.6,974.6z"/>
	<g>
		<path class="st23" d="M286.9,1043.7c-45.2,0-82-36.8-82-82c0-45.2,36.8-82,82-82c45.2,0,82,36.8,82,82
			C369,1006.9,332.2,1043.7,286.9,1043.7z"/>
		<path class="st23" d="M286.9,1023.7c-34.2,0-62-27.8-62-62c0-34.2,27.8-62,62-62c34.2,0,62,27.8,62,62
			C349,995.9,321.2,1023.7,286.9,1023.7z"/>
		<path class="st23" d="M286.9,1003.8c-23.2,0-42.1-18.9-42.1-42.1c0-23.2,18.9-42.1,42.1-42.1c23.2,0,42.1,18.9,42.1,42.1
			C329,984.9,310.1,1003.8,286.9,1003.8z"/>
		<path class="st23" d="M286.9,983.8c-12.2,0-22.1-9.9-22.1-22.1c0-12.2,9.9-22.1,22.1-22.1c12.2,0,22.1,9.9,22.1,22.1
			C309.1,973.9,299.1,983.8,286.9,983.8z"/>
		<circle class="st23" cx="286.9" cy="961.7" r="2.2"/>
	</g>
</g>
<g>
	<g>
		<g>
			<g>
				<line class="st16" x1="348.4" y1="1542.1" x2="347.1" y2="1541.3"/>
				<line class="st17" x1="344.5" y1="1539.8" x2="284.5" y2="1504.3"/>
				<line class="st16" x1="283.2" y1="1503.6" x2="281.9" y2="1502.8"/>
			</g>
		</g>
		<g>
			<g>
				<line class="st16" x1="214.3" y1="1541.2" x2="215.6" y2="1540.4"/>
				<line class="st18" x1="218.2" y1="1539" x2="279.3" y2="1504.3"/>
				<line class="st16" x1="280.6" y1="1503.6" x2="281.9" y2="1502.8"/>
			</g>
		</g>
		<g>
			<g>
				<line class="st16" x1="281.9" y1="1502.8" x2="281.9" y2="1501.3"/>
				<line class="st19" x1="281.9" y1="1498.3" x2="281.9" y2="1428.6"/>
				<line class="st16" x1="281.9" y1="1427.1" x2="281.9" y2="1425.6"/>
			</g>
		</g>
	</g>
	<path class="st25" d="M285.3,1499c0,1.7-3,3.8-3,3.8s-3-2.1-3-3.8s1.4-3,3-3S285.3,1497.3,285.3,1499z"/>
	<path class="st22" d="M282.3,1502.5c0,0-0.3,33.5-13.5,42.8c-13.2,9.3-31.4,6.1-40.6-7.1c-9.3-13.2-6.1-31.4,7.1-40.6
		C248.5,1488.3,282.3,1502.5,282.3,1502.5z"/>
	<path class="st21" d="M286,1505.3c-0.6,0.9-1.9,1.1-2.8,0.4s-0.9-3.1-0.9-3.1s2.4-0.7,3.3-0.1
		C286.5,1503.2,286.7,1504.4,286,1505.3z"/>
	<g>
		<path class="st23" d="M281.9,1584.8c-45.2,0-82-36.8-82-82c0-45.2,36.8-82,82-82c45.2,0,82,36.8,82,82
			C364,1548,327.2,1584.8,281.9,1584.8z"/>
		<path class="st23" d="M281.9,1564.9c-34.2,0-62-27.8-62-62s27.8-62,62-62c34.2,0,62,27.8,62,62S316.2,1564.9,281.9,1564.9z"/>
		<path class="st23" d="M281.9,1544.9c-23.2,0-42.1-18.9-42.1-42.1s18.9-42.1,42.1-42.1c23.2,0,42.1,18.9,42.1,42.1
			S305.1,1544.9,281.9,1544.9z"/>
		<path class="st23" d="M281.9,1524.9c-12.2,0-22.1-9.9-22.1-22.1s9.9-22.1,22.1-22.1c12.2,0,22.1,9.9,22.1,22.1
			S294.1,1524.9,281.9,1524.9z"/>
		<circle class="st23" cx="281.9" cy="1502.8" r="2.2"/>
	</g>
</g>
<g>
	<g>
		<g>
			<g>
				<line class="st16" x1="696.1" y1="1541.1" x2="694.8" y2="1540.3"/>
				<line class="st17" x1="692.2" y1="1538.8" x2="632.2" y2="1503.3"/>
				<line class="st16" x1="630.9" y1="1502.6" x2="629.6" y2="1501.8"/>
			</g>
		</g>
		<g>
			<g>
				<line class="st16" x1="562" y1="1540.2" x2="563.3" y2="1539.4"/>
				<line class="st18" x1="565.9" y1="1538" x2="627" y2="1503.3"/>
				<line class="st16" x1="628.3" y1="1502.6" x2="629.6" y2="1501.8"/>
			</g>
		</g>
		<g>
			<g>
				<line class="st16" x1="629.6" y1="1501.8" x2="629.6" y2="1500.3"/>
				<line class="st19" x1="629.6" y1="1497.3" x2="629.6" y2="1427.6"/>
				<line class="st16" x1="629.6" y1="1426.1" x2="629.6" y2="1424.6"/>
			</g>
		</g>
	</g>
	<path class="st22" d="M629.7,1502c0,0-0.1,13.8-5.5,17.2c-5.5,3.4-12.7,1.7-16.1-3.8c-3.4-5.5-1.7-12.7,3.8-16.1
		C617.3,1496,629.7,1502,629.7,1502z"/>
	<g>
		<path class="st23" d="M629.7,1583.9c-45.2,0-82-36.8-82-82c0-45.2,36.8-82,82-82c45.2,0,82,36.8,82,82
			C711.7,1547.1,674.9,1583.9,629.7,1583.9z"/>
		<path class="st23" d="M629.7,1563.9c-34.2,0-62-27.8-62-62s27.8-62,62-62c34.2,0,62,27.8,62,62S663.9,1563.9,629.7,1563.9z"/>
		<path class="st23" d="M629.7,1543.9c-23.2,0-42.1-18.9-42.1-42.1s18.9-42.1,42.1-42.1c23.2,0,42.1,18.9,42.1,42.1
			S652.9,1543.9,629.7,1543.9z"/>
		<path class="st23" d="M629.7,1524c-12.2,0-22.1-9.9-22.1-22.1s9.9-22.1,22.1-22.1c12.2,0,22.1,9.9,22.1,22.1
			S641.9,1524,629.7,1524z"/>
		<circle class="st23" cx="629.7" cy="1501.8" r="2.2"/>
	</g>
</g>
<g>
	<g>
		<g>
			<g>
				<line class="st16" x1="1018.8" y1="1546.1" x2="1017.6" y2="1545.3"/>
				<line class="st17" x1="1015" y1="1543.8" x2="955" y2="1508.3"/>
				<line class="st16" x1="953.7" y1="1507.6" x2="952.4" y2="1506.8"/>
			</g>
		</g>
		<g>
			<g>
				<line class="st16" x1="884.8" y1="1545.2" x2="886.1" y2="1544.4"/>
				<line class="st18" x1="888.7" y1="1543" x2="949.8" y2="1508.3"/>
				<line class="st16" x1="951.1" y1="1507.6" x2="952.4" y2="1506.8"/>
			</g>
		</g>
		<g>
			<g>
				<line class="st16" x1="952.4" y1="1506.8" x2="952.4" y2="1505.3"/>
				<line class="st19" x1="952.4" y1="1502.3" x2="952.4" y2="1432.6"/>
				<line class="st16" x1="952.4" y1="1431.1" x2="952.4" y2="1429.6"/>
			</g>
		</g>
	</g>
	<path class="st25" d="M954.2,1504.3c0,1-1.8,2.5-1.8,2.5s-1.8-1.5-1.8-2.5c0-1,0.8-1.8,1.8-1.8
		C953.4,1502.5,954.2,1503.3,954.2,1504.3z"/>
	<path class="st22" d="M952.4,1506.7c0,0-3,35.7-18.9,42.8c-15.8,7.1-34.4,0-41.4-15.8c-7.1-15.8,0-34.4,15.8-41.4
		C923.7,1485.2,952.4,1506.7,952.4,1506.7z"/>
	<g>
		<path class="st23" d="M952.4,1588.7c-45.2,0-82-36.8-82-82s36.8-82,82-82c45.2,0,82,36.8,82,82S997.6,1588.7,952.4,1588.7z"/>
		<path class="st23" d="M952.4,1568.7c-34.2,0-62-27.8-62-62s27.8-62,62-62c34.2,0,62,27.8,62,62S986.6,1568.7,952.4,1568.7z"/>
		<path class="st23" d="M952.4,1548.8c-23.2,0-42.1-18.9-42.1-42.1c0-23.2,18.9-42.1,42.1-42.1c23.2,0,42.1,18.9,42.1,42.1
			C994.5,1529.9,975.6,1548.8,952.4,1548.8z"/>
		<path class="st23" d="M952.4,1528.8c-12.2,0-22.1-9.9-22.1-22.1s9.9-22.1,22.1-22.1c12.2,0,22.1,9.9,22.1,22.1
			S964.6,1528.8,952.4,1528.8z"/>
		<circle class="st23" cx="952.4" cy="1506.7" r="2.2"/>
	</g>
</g>
<g>
	<g>
		<g>
			<g>
				<line class="st16" x1="1374.8" y1="1542.1" x2="1373.5" y2="1541.3"/>
				<line class="st17" x1="1370.9" y1="1539.8" x2="1310.9" y2="1504.3"/>
				<line class="st16" x1="1309.7" y1="1503.6" x2="1308.4" y2="1502.8"/>
			</g>
		</g>
		<g>
			<g>
				<line class="st16" x1="1240.7" y1="1541.2" x2="1242" y2="1540.4"/>
				<line class="st18" x1="1244.6" y1="1539" x2="1305.8" y2="1504.3"/>
				<line class="st16" x1="1307.1" y1="1503.6" x2="1308.4" y2="1502.8"/>
			</g>
		</g>
		<g>
			<g>
				<line class="st16" x1="1308.4" y1="1502.8" x2="1308.4" y2="1501.3"/>
				<line class="st19" x1="1308.4" y1="1498.3" x2="1308.4" y2="1428.6"/>
				<line class="st16" x1="1308.4" y1="1427.1" x2="1308.4" y2="1425.6"/>
			</g>
		</g>
	</g>
	<path class="st25" d="M1310.7,1499.9c0,1.3-2.4,2.9-2.4,2.9s-2.3-1.6-2.3-2.9c0-1.3,1.1-2.4,2.4-2.4
		C1309.7,1497.5,1310.7,1498.6,1310.7,1499.9z"/>
	<path class="st22" d="M1286.5,1499.3c6.8-3.9,21.9,3.7,21.9,3.7s-0.9,16.9-7.7,20.8s-15.4,1.6-19.3-5.2
		C1277.4,1511.9,1279.7,1503.2,1286.5,1499.3z"/>
	<g>
		<path class="st23" d="M1308.2,1584.7c-45.2,0-82-36.8-82-82s36.8-82,82-82c45.2,0,82,36.8,82,82S1353.4,1584.7,1308.2,1584.7z"/>
		<path class="st23" d="M1308.2,1564.7c-34.2,0-62-27.8-62-62s27.8-62,62-62c34.2,0,62,27.8,62,62S1342.4,1564.7,1308.2,1564.7z"/>
		<path class="st23" d="M1308.2,1544.8c-23.2,0-42.1-18.9-42.1-42.1c0-23.2,18.9-42.1,42.1-42.1c23.2,0,42.1,18.9,42.1,42.1
			C1350.2,1525.9,1331.4,1544.8,1308.2,1544.8z"/>
		<path class="st23" d="M1308.2,1524.8c-12.2,0-22.1-9.9-22.1-22.1s9.9-22.1,22.1-22.1c12.2,0,22.1,9.9,22.1,22.1
			S1320.4,1524.8,1308.2,1524.8z"/>
		<circle class="st23" cx="1308.2" cy="1502.7" r="2.2"/>
	</g>
</g>
<g>
	<g>
		<g>
			<g>
				<line class="st16" x1="1706.5" y1="1542.1" x2="1705.2" y2="1541.3"/>
				<line class="st17" x1="1702.7" y1="1539.8" x2="1642.7" y2="1504.3"/>
				<line class="st16" x1="1641.4" y1="1503.6" x2="1640.1" y2="1502.8"/>
			</g>
		</g>
		<g>
			<g>
				<line class="st16" x1="1572.4" y1="1541.2" x2="1573.7" y2="1540.4"/>
				<line class="st18" x1="1576.3" y1="1539" x2="1637.5" y2="1504.3"/>
				<line class="st16" x1="1638.8" y1="1503.6" x2="1640.1" y2="1502.8"/>
			</g>
		</g>
		<g>
			<g>
				<line class="st16" x1="1640.1" y1="1502.8" x2="1640.1" y2="1501.3"/>
				<line class="st19" x1="1640.1" y1="1498.3" x2="1640.1" y2="1428.6"/>
				<line class="st16" x1="1640.1" y1="1427.1" x2="1640.1" y2="1425.6"/>
			</g>
		</g>
	</g>
	<path class="st22" d="M1639.9,1503.1c0,0,2,24.5-7.9,31.1c-9.9,6.6-23.2,3.9-29.8-5.9c-6.6-9.9-3.9-23.2,5.9-29.8
		C1618.1,1491.9,1639.9,1503.1,1639.9,1503.1z"/>
	<g>
		<path class="st23" d="M1639.9,1584.7c-45.2,0-82-36.8-82-82s36.8-82,82-82c45.2,0,82,36.8,82,82S1685.1,1584.7,1639.9,1584.7z"/>
		<path class="st23" d="M1639.9,1564.7c-34.2,0-62-27.8-62-62s27.8-62,62-62c34.2,0,62,27.8,62,62S1674.1,1564.7,1639.9,1564.7z"/>
		<path class="st23" d="M1639.9,1544.8c-23.2,0-42.1-18.9-42.1-42.1c0-23.2,18.9-42.1,42.1-42.1c23.2,0,42.1,18.9,42.1,42.1
			C1682,1525.9,1663.1,1544.8,1639.9,1544.8z"/>
		<path class="st23" d="M1639.9,1524.8c-12.2,0-22.1-9.9-22.1-22.1s9.9-22.1,22.1-22.1c12.2,0,22.1,9.9,22.1,22.1
			S1652.1,1524.8,1639.9,1524.8z"/>
		<circle class="st23" cx="1639.9" cy="1502.7" r="2.2"/>
	</g>
</g>
<g>
	<g>
		<g>
			<g>
				<line class="st16" x1="339.2" y1="1814.7" x2="337.9" y2="1814"/>
				<line class="st17" x1="335.3" y1="1812.5" x2="275.3" y2="1777"/>
				<line class="st16" x1="274" y1="1776.2" x2="272.7" y2="1775.4"/>
			</g>
		</g>
		<g>
			<g>
				<line class="st16" x1="205.1" y1="1813.8" x2="206.4" y2="1813.1"/>
				<line class="st18" x1="209" y1="1811.6" x2="270.1" y2="1776.9"/>
				<line class="st16" x1="271.4" y1="1776.2" x2="272.7" y2="1775.4"/>
			</g>
		</g>
		<g>
			<g>
				<line class="st16" x1="272.7" y1="1775.4" x2="272.7" y2="1773.9"/>
				<line class="st19" x1="272.7" y1="1771" x2="272.7" y2="1701.2"/>
				<line class="st16" x1="272.7" y1="1699.7" x2="272.7" y2="1698.2"/>
			</g>
		</g>
	</g>
	<path class="st20" d="M258.9,1757c0-7.7,6.3-13.9,14-13.8c7.7,0,13.9,6.3,13.8,14c0,7.7-14,18.3-14,18.3S258.9,1764.7,258.9,1757z"
		/>
	<path class="st22" d="M247.4,1770.8c7.8-4.1,25.4,4.6,25.4,4.6s-2.8,19.5-10.5,23.6c-7.8,4.1-17.4,1.1-21.5-6.6
		C236.6,1784.5,239.6,1774.9,247.4,1770.8z"/>
	<path class="st21" d="M272.8,1775.4c0,0,7.6-2.2,10.3-0.6c2.7,1.6,3.6,5,2.1,7.7c-1.6,2.7-5,3.6-7.7,2.1
		C274.7,1783,272.8,1775.4,272.8,1775.4z"/>
	<g>
		<path class="st23" d="M272.9,1857.3c-45.2,0-82-36.8-82-82c0-45.2,36.8-82,82-82c45.2,0,82,36.8,82,82
			C355,1820.5,318.2,1857.3,272.9,1857.3z"/>
		<path class="st23" d="M272.9,1837.4c-34.2,0-62-27.8-62-62s27.8-62,62-62c34.2,0,62,27.8,62,62S307.2,1837.4,272.9,1837.4z"/>
		<path class="st23" d="M272.9,1817.4c-23.2,0-42.1-18.9-42.1-42.1c0-23.2,18.9-42.1,42.1-42.1c23.2,0,42.1,18.9,42.1,42.1
			C315,1798.5,296.1,1817.4,272.9,1817.4z"/>
		<path class="st23" d="M272.9,1797.4c-12.2,0-22.1-9.9-22.1-22.1c0-12.2,9.9-22.1,22.1-22.1c12.2,0,22.1,9.9,22.1,22.1
			C295.1,1787.5,285.1,1797.4,272.9,1797.4z"/>
		<circle class="st23" cx="272.9" cy="1775.3" r="2.2"/>
	</g>
</g>
<g>
	<g>
		<g>
			<g>
				<line class="st16" x1="687.3" y1="1813.7" x2="686" y2="1813"/>
				<line class="st17" x1="683.5" y1="1811.5" x2="623.5" y2="1776"/>
				<line class="st16" x1="622.2" y1="1775.2" x2="620.9" y2="1774.4"/>
			</g>
		</g>
		<g>
			<g>
				<line class="st16" x1="553.2" y1="1812.8" x2="554.5" y2="1812.1"/>
				<line class="st18" x1="557.1" y1="1810.6" x2="618.3" y2="1775.9"/>
				<line class="st16" x1="619.6" y1="1775.2" x2="620.9" y2="1774.4"/>
			</g>
		</g>
		<g>
			<g>
				<line class="st16" x1="620.9" y1="1774.4" x2="620.9" y2="1772.9"/>
				<line class="st19" x1="620.9" y1="1770" x2="620.9" y2="1700.2"/>
				<line class="st16" x1="620.9" y1="1698.7" x2="620.9" y2="1697.2"/>
			</g>
		</g>
	</g>
	<path class="st20" d="M613.6,1764.1c0.1-4,3.4-7.2,7.4-7.1c4,0.1,7.2,3.4,7.1,7.4c-0.1,4-7.4,10.1-7.4,10.1
		S613.6,1768.1,613.6,1764.1z"/>
	<path class="st22" d="M599.9,1774.7c5.5-4.2,21.1-0.2,21.1-0.2s-0.5,16-6,20.2c-5.5,4.2-13.4,3.1-17.5-2.5
		C593.3,1786.7,594.4,1778.8,599.9,1774.7z"/>
	<path class="st21" d="M620.9,1774.5c0,0,8.3-2.9,11.4-1.1c3.2,1.7,4.3,5.7,2.5,8.9c-1.7,3.2-5.7,4.3-8.9,2.5
		C622.9,1783,620.9,1774.5,620.9,1774.5z"/>
	<g>
		<path class="st23" d="M620.7,1856.3c-45.2,0-82-36.8-82-82c0-45.2,36.8-82,82-82c45.2,0,82,36.8,82,82
			C702.7,1819.5,665.9,1856.3,620.7,1856.3z"/>
		<path class="st23" d="M620.7,1836.4c-34.2,0-62-27.8-62-62s27.8-62,62-62c34.2,0,62,27.8,62,62S654.9,1836.4,620.7,1836.4z"/>
		<path class="st23" d="M620.7,1816.4c-23.2,0-42.1-18.9-42.1-42.1c0-23.2,18.9-42.1,42.1-42.1c23.2,0,42.1,18.9,42.1,42.1
			C662.8,1797.5,643.9,1816.4,620.7,1816.4z"/>
		<path class="st23" d="M620.7,1796.4c-12.2,0-22.1-9.9-22.1-22.1c0-12.2,9.9-22.1,22.1-22.1c12.2,0,22.1,9.9,22.1,22.1
			C642.8,1786.5,632.9,1796.4,620.7,1796.4z"/>
		<circle class="st23" cx="620.7" cy="1774.3" r="2.2"/>
	</g>
</g>
<g>
	<g>
		<g>
			<g>
				<line class="st16" x1="1009.2" y1="1818.7" x2="1008" y2="1818"/>
				<line class="st17" x1="1005.4" y1="1816.5" x2="945.4" y2="1781"/>
				<line class="st16" x1="944.1" y1="1780.2" x2="942.8" y2="1779.4"/>
			</g>
		</g>
		<g>
			<g>
				<line class="st16" x1="875.2" y1="1817.8" x2="876.5" y2="1817.1"/>
				<line class="st18" x1="879.1" y1="1815.6" x2="940.2" y2="1780.9"/>
				<line class="st16" x1="941.5" y1="1780.2" x2="942.8" y2="1779.4"/>
			</g>
		</g>
		<g>
			<g>
				<line class="st16" x1="942.8" y1="1779.4" x2="942.8" y2="1777.9"/>
				<line class="st19" x1="942.8" y1="1775" x2="942.8" y2="1705.2"/>
				<line class="st16" x1="942.8" y1="1703.7" x2="942.8" y2="1702.2"/>
			</g>
		</g>
	</g>
	<path class="st20" d="M924.6,1758.8c-0.3-9.7,7.3-17.7,17-18c9.7-0.3,17.7,7.3,18,17c0.3,9.7-16.8,22.5-16.8,22.5
		S924.9,1768.5,924.6,1758.8z"/>
	<path class="st22" d="M918.5,1777.7c6.8-4.5,24.2,1.7,24.2,1.7s-1,18.5-7.8,23c-6.8,4.5-16,2.7-20.6-4.2
		C909.8,1791.5,911.7,1782.2,918.5,1777.7z"/>
	<path class="st21" d="M942.6,1779.8c0,0,12.1-5.5,17.2-3.1c5.1,2.4,7.2,8.5,4.8,13.6c-2.4,5.1-8.5,7.2-13.6,4.8
		S942.6,1779.8,942.6,1779.8z"/>
	<g>
		<path class="st23" d="M943.4,1861.3c-45.2,0-82-36.8-82-82c0-45.2,36.8-82,82-82c45.2,0,82,36.8,82,82
			C1025.4,1824.5,988.6,1861.3,943.4,1861.3z"/>
		<path class="st23" d="M943.4,1841.4c-34.2,0-62-27.8-62-62s27.8-62,62-62c34.2,0,62,27.8,62,62S977.6,1841.4,943.4,1841.4z"/>
		<path class="st23" d="M943.4,1821.4c-23.2,0-42.1-18.9-42.1-42.1c0-23.2,18.9-42.1,42.1-42.1c23.2,0,42.1,18.9,42.1,42.1
			C985.5,1802.5,966.6,1821.4,943.4,1821.4z"/>
		<path class="st23" d="M943.4,1801.4c-12.2,0-22.1-9.9-22.1-22.1c0-12.2,9.9-22.1,22.1-22.1c12.2,0,22.1,9.9,22.1,22.1
			C965.5,1791.5,955.6,1801.4,943.4,1801.4z"/>
		<circle class="st23" cx="943.4" cy="1779.3" r="2.2"/>
	</g>
</g>
<g>
	<g>
		<g>
			<g>
				<line class="st16" x1="1365.4" y1="1814.7" x2="1364.1" y2="1814"/>
				<line class="st17" x1="1361.5" y1="1812.5" x2="1301.5" y2="1777"/>
				<line class="st16" x1="1300.2" y1="1776.2" x2="1298.9" y2="1775.4"/>
			</g>
		</g>
		<g>
			<g>
				<line class="st16" x1="1231.3" y1="1813.8" x2="1232.6" y2="1813.1"/>
				<line class="st18" x1="1235.2" y1="1811.6" x2="1296.3" y2="1776.9"/>
				<line class="st16" x1="1297.6" y1="1776.2" x2="1298.9" y2="1775.4"/>
			</g>
		</g>
		<g>
			<g>
				<line class="st16" x1="1298.9" y1="1775.4" x2="1298.9" y2="1773.9"/>
				<line class="st19" x1="1298.9" y1="1771" x2="1298.9" y2="1701.2"/>
				<line class="st16" x1="1298.9" y1="1699.7" x2="1298.9" y2="1698.2"/>
			</g>
		</g>
	</g>
	<path class="st20" d="M1299.2,1775.4c0,0-6.8-6-6.8-9.8c0-3.8,3.1-6.8,6.8-6.8c3.8,0,6.8,3.1,6.8,6.8
		C1306,1769.5,1299.2,1775.4,1299.2,1775.4z"/>
	<path class="st22" d="M1268.9,1772.4c8.7-5.7,30.1,2.5,30.1,2.5s-0.8,23.2-9.5,28.9c-8.7,5.7-20.3,3.3-26-5.4
		C1257.8,1789.7,1260.2,1778.1,1268.9,1772.4z"/>
	<g>
		<path class="st23" d="M1299.2,1857.3c-45.2,0-82-36.8-82-82c0-45.2,36.8-82,82-82c45.2,0,82,36.8,82,82
			C1381.2,1820.5,1344.4,1857.3,1299.2,1857.3z"/>
		<path class="st23" d="M1299.2,1837.4c-34.2,0-62-27.8-62-62s27.8-62,62-62c34.2,0,62,27.8,62,62S1333.4,1837.4,1299.2,1837.4z"/>
		<path class="st23" d="M1299.2,1817.4c-23.2,0-42.1-18.9-42.1-42.1c0-23.2,18.9-42.1,42.1-42.1c23.2,0,42.1,18.9,42.1,42.1
			C1341.2,1798.5,1322.4,1817.4,1299.2,1817.4z"/>
		<path class="st23" d="M1299.2,1797.4c-12.2,0-22.1-9.9-22.1-22.1c0-12.2,9.9-22.1,22.1-22.1c12.2,0,22.1,9.9,22.1,22.1
			C1321.3,1787.5,1311.4,1797.4,1299.2,1797.4z"/>
		<circle class="st23" cx="1299.2" cy="1775.3" r="2.2"/>
	</g>
</g>
<g>
	<g>
		<g>
			<line class="st16" x1="1697.9" y1="1814.7" x2="1696.6" y2="1814"/>
			<line class="st17" x1="1694.1" y1="1812.5" x2="1634.1" y2="1777"/>
			<line class="st16" x1="1632.8" y1="1776.2" x2="1631.5" y2="1775.4"/>
		</g>
	</g>
	<g>
		<g>
			<line class="st16" x1="1563.9" y1="1813.8" x2="1565.2" y2="1813.1"/>
			<line class="st18" x1="1567.8" y1="1811.6" x2="1628.9" y2="1776.9"/>
			<line class="st16" x1="1630.2" y1="1776.2" x2="1631.5" y2="1775.4"/>
		</g>
	</g>
	<g>
		<g>
			<line class="st16" x1="1631.5" y1="1775.4" x2="1631.5" y2="1773.9"/>
			<line class="st19" x1="1631.5" y1="1771" x2="1631.5" y2="1701.2"/>
			<line class="st16" x1="1631.5" y1="1699.7" x2="1631.5" y2="1698.2"/>
		</g>
	</g>
</g>
<g>
	<path class="st20" d="M1610.7,1751.2c0.3-11.1,9.5-19.9,20.6-19.7c11.1,0.3,19.9,9.5,19.7,20.6s-20.8,25.2-20.8,25.2
		S1610.5,1762.4,1610.7,1751.2z"/>
	<path class="st22" d="M1519,1759.3c33.8-19.9,111.4,17.2,111.4,17.2s-5.5,85.2-39.2,105.1c-33.8,19.9-77.3,8.7-97.2-25.1
		C1474,1822.8,1485.2,1779.3,1519,1759.3z"/>
	<path class="st21" d="M1638.8,1787.2c-4.6-1.8-7.9-12.8-7.9-12.8s9.9-5.5,14.5-3.7c4.6,1.8,6.8,7,5,11.5
		C1648.5,1786.8,1643.3,1789,1638.8,1787.2z"/>
</g>
<g>
	<path class="st23" d="M1630.9,1857.3c-45.2,0-82-36.8-82-82c0-45.2,36.8-82,82-82c45.2,0,82,36.8,82,82
		C1712.9,1820.5,1676.1,1857.3,1630.9,1857.3z"/>
	<path class="st23" d="M1630.9,1837.4c-34.2,0-62-27.8-62-62s27.8-62,62-62c34.2,0,62,27.8,62,62S1665.1,1837.4,1630.9,1837.4z"/>
	<path class="st23" d="M1630.9,1817.4c-23.2,0-42.1-18.9-42.1-42.1c0-23.2,18.9-42.1,42.1-42.1c23.2,0,42.1,18.9,42.1,42.1
		C1673,1798.5,1654.1,1817.4,1630.9,1817.4z"/>
	<path class="st23" d="M1630.9,1797.4c-12.2,0-22.1-9.9-22.1-22.1c0-12.2,9.9-22.1,22.1-22.1c12.2,0,22.1,9.9,22.1,22.1
		C1653,1787.5,1643.1,1797.4,1630.9,1797.4z"/>
	<circle class="st23" cx="1630.9" cy="1775.3" r="2.2"/>
</g>
<g class="st24">
	<text transform="matrix(1 0 0 1 600.582 1092.5181)" class="st9 st14 st15">Brazil</text>
</g>
<g>
	<g>
		<g>
			<g>
				<line class="st16" x1="693.4" y1="998.4" x2="692.2" y2="997.7"/>
				<line class="st17" x1="689.6" y1="996.1" x2="629.6" y2="960.6"/>
				<line class="st16" x1="628.3" y1="959.9" x2="627" y2="959.1"/>
			</g>
		</g>
		<g>
			<g>
				<line class="st16" x1="559.4" y1="997.5" x2="560.7" y2="996.8"/>
				<line class="st18" x1="563.3" y1="995.3" x2="624.4" y2="960.6"/>
				<line class="st16" x1="625.7" y1="959.9" x2="627" y2="959.1"/>
			</g>
		</g>
		<g>
			<g>
				<line class="st16" x1="627" y1="959.1" x2="627" y2="957.6"/>
				<line class="st19" x1="627" y1="954.7" x2="627" y2="884.9"/>
				<line class="st16" x1="627" y1="883.4" x2="627" y2="881.9"/>
			</g>
		</g>
	</g>
	<path class="st22" d="M594.5,954.8c10-6.7,32.4,4.2,32.4,4.2s1.8,25.2-8.2,31.9s-23.5,4-30.1-6C581.9,975,584.6,961.5,594.5,954.8z
		"/>
	<path class="st21" d="M629.3,965.6c-2.1-1.5-2.2-6.7-2.2-6.7s5.3-2.5,7.4-1c2.1,1.5,2.7,4.4,1.2,6.5S631.4,967.1,629.3,965.6z"/>
	<path class="st20" d="M632.5,951c0,3-5.5,8.1-5.5,8.1s-5.5-5-5.5-8.1s2.5-5.5,5.5-5.5S632.5,948,632.5,951z"/>
	<g>
		<path class="st23" d="M626.4,1042.7c-45.2,0-82-36.8-82-82c0-45.2,36.8-82,82-82c45.2,0,82,36.8,82,82
			C708.4,1005.9,671.7,1042.7,626.4,1042.7z"/>
		<path class="st23" d="M626.4,1022.7c-34.2,0-62-27.8-62-62c0-34.2,27.8-62,62-62c34.2,0,62,27.8,62,62
			C688.5,994.9,660.6,1022.7,626.4,1022.7z"/>
		<path class="st23" d="M626.4,1002.8c-23.2,0-42.1-18.9-42.1-42.1c0-23.2,18.9-42.1,42.1-42.1c23.2,0,42.1,18.9,42.1,42.1
			C668.5,983.9,649.6,1002.8,626.4,1002.8z"/>
		<path class="st23" d="M626.4,982.8c-12.2,0-22.1-9.9-22.1-22.1c0-12.2,9.9-22.1,22.1-22.1c12.2,0,22.1,9.9,22.1,22.1
			C648.6,972.9,638.6,982.8,626.4,982.8z"/>
		<circle class="st23" cx="626.4" cy="960.7" r="2.2"/>
	</g>
</g>
<g class="st24">
	<text transform="matrix(1 0 0 1 919.8115 1092.5181)" class="st9 st14 st15">Cameroon</text>
</g>
<g>
	<g>
		<g>
			<g>
				<line class="st16" x1="1032.3" y1="1003.4" x2="1031.1" y2="1002.7"/>
				<line class="st17" x1="1028.5" y1="1001.1" x2="968.5" y2="965.6"/>
				<line class="st16" x1="967.2" y1="964.9" x2="965.9" y2="964.1"/>
			</g>
		</g>
		<g>
			<g>
				<line class="st16" x1="898.3" y1="1002.5" x2="899.6" y2="1001.7"/>
				<line class="st18" x1="902.2" y1="1000.3" x2="963.3" y2="965.6"/>
				<line class="st16" x1="964.6" y1="964.9" x2="965.9" y2="964.1"/>
			</g>
		</g>
		<g>
			<g>
				<line class="st16" x1="965.9" y1="964.1" x2="965.9" y2="962.6"/>
				<line class="st19" x1="965.9" y1="959.6" x2="965.9" y2="889.9"/>
				<line class="st16" x1="965.9" y1="888.4" x2="965.9" y2="886.9"/>
			</g>
		</g>
	</g>
	<path class="st22" d="M933,961.3c9.6-6.7,33,2.8,33,2.8s0.8,25.3-8.8,32c-9.6,6.7-22.8,4.3-29.5-5.3
		C921,981.2,923.3,967.9,933,961.3z"/>
	<path class="st21" d="M970.7,966.8c-0.7,1.1-2.1,1.4-3.2,0.7c-1.1-0.7-1.5-3.6-1.5-3.6s2.8-1,3.9-0.3
		C971.1,964.3,971.4,965.8,970.7,966.8z"/>
	<path class="st25" d="M968.2,960.8c0,1.3-2.3,3.3-2.3,3.3s-2.3-2-2.3-3.3c0-1.3,1-2.3,2.3-2.3C967.2,958.5,968.2,959.6,968.2,960.8
		z"/>
	<g>
		<path class="st23" d="M965.9,1047.7c-45.2,0-82-36.8-82-82c0-45.2,36.8-82,82-82c45.2,0,82,36.8,82,82
			C1047.9,1010.9,1011.1,1047.7,965.9,1047.7z"/>
		<path class="st23" d="M965.9,1027.7c-34.2,0-62-27.8-62-62c0-34.2,27.8-62,62-62c34.2,0,62,27.8,62,62
			C1028,999.9,1000.1,1027.7,965.9,1027.7z"/>
		<path class="st23" d="M965.9,1007.8c-23.2,0-42.1-18.9-42.1-42.1c0-23.2,18.9-42.1,42.1-42.1c23.2,0,42.1,18.9,42.1,42.1
			C1008,988.9,989.1,1007.8,965.9,1007.8z"/>
		<path class="st23" d="M965.9,987.8c-12.2,0-22.1-9.9-22.1-22.1c0-12.2,9.9-22.1,22.1-22.1c12.2,0,22.1,9.9,22.1,22.1
			C988,977.9,978.1,987.8,965.9,987.8z"/>
		<circle class="st23" cx="965.9" cy="965.7" r="2.2"/>
	</g>
</g>
<g class="st24">
	<text transform="matrix(1 0 0 1 1283.0896 1092.5183)" class="st9 st14 st15">Chile</text>
</g>
<g>
	<g>
		<g>
			<g>
				<line class="st16" x1="1372.3" y1="1000.7" x2="1371" y2="999.9"/>
				<line class="st17" x1="1368.5" y1="998.4" x2="1308.4" y2="962.9"/>
				<line class="st16" x1="1307.2" y1="962.2" x2="1305.9" y2="961.4"/>
			</g>
		</g>
		<g>
			<g>
				<line class="st16" x1="1238.2" y1="999.8" x2="1239.5" y2="999"/>
				<line class="st18" x1="1242.1" y1="997.6" x2="1303.3" y2="962.9"/>
				<line class="st16" x1="1304.6" y1="962.2" x2="1305.9" y2="961.4"/>
			</g>
		</g>
		<g>
			<g>
				<line class="st16" x1="1305.9" y1="961.4" x2="1305.9" y2="959.9"/>
				<line class="st19" x1="1305.9" y1="956.9" x2="1305.9" y2="887.2"/>
				<line class="st16" x1="1305.9" y1="885.7" x2="1305.9" y2="884.2"/>
			</g>
		</g>
	</g>
	<path class="st20" d="M1323.9,938.2c0,9.9-18,23.4-18,23.4s-18-13.5-18-23.4s8.1-18,18-18C1315.8,920.2,1323.9,928.3,1323.9,938.2z
		"/>
	<path class="st22" d="M1305.7,961.1c0,0,1,21.4-7.3,27.1c-8.3,5.7-19.6,3.6-25.3-4.7c-5.7-8.3-3.6-19.6,4.7-25.3
		C1286.1,952.6,1305.7,961.1,1305.7,961.1z"/>
	<path class="st21" d="M1323.1,971.1c-2.5,4.2-7.9,5.7-12.1,3.2c-4.2-2.5-4.9-13.1-4.9-13.1s9.6-4.7,13.8-2.3
		C1324.1,961.4,1325.6,966.9,1323.1,971.1z"/>
	<g>
		<path class="st23" d="M1305.4,1043.7c-45.2,0-82-36.8-82-82c0-45.2,36.8-82,82-82c45.2,0,82,36.8,82,82
			C1387.4,1006.9,1350.6,1043.7,1305.4,1043.7z"/>
		<path class="st23" d="M1305.4,1023.7c-34.2,0-62-27.8-62-62c0-34.2,27.8-62,62-62c34.2,0,62,27.8,62,62
			C1367.5,995.9,1339.6,1023.7,1305.4,1023.7z"/>
		<path class="st23" d="M1305.4,1003.8c-23.2,0-42.1-18.9-42.1-42.1c0-23.2,18.9-42.1,42.1-42.1c23.2,0,42.1,18.9,42.1,42.1
			C1347.5,984.9,1328.6,1003.8,1305.4,1003.8z"/>
		<path class="st23" d="M1305.4,983.8c-12.2,0-22.1-9.9-22.1-22.1c0-12.2,9.9-22.1,22.1-22.1c12.2,0,22.1,9.9,22.1,22.1
			C1327.5,973.9,1317.6,983.8,1305.4,983.8z"/>
		<circle class="st23" cx="1305.4" cy="961.7" r="2.2"/>
	</g>
</g>
<g class="st24">
	<text transform="matrix(1 0 0 1 1619.4082 1092.5181)" class="st9 st14 st15">China</text>
</g>
<g>
	<g>
		<g>
			<g>
				<line class="st16" x1="1711.5" y1="999.5" x2="1710.2" y2="998.8"/>
				<line class="st17" x1="1707.6" y1="997.3" x2="1647.6" y2="961.8"/>
				<line class="st16" x1="1646.3" y1="961" x2="1645.1" y2="960.2"/>
			</g>
		</g>
		<g>
			<g>
				<line class="st16" x1="1577.4" y1="998.6" x2="1578.7" y2="997.9"/>
				<line class="st18" x1="1581.3" y1="996.4" x2="1642.5" y2="961.7"/>
				<line class="st16" x1="1643.8" y1="961" x2="1645.1" y2="960.2"/>
			</g>
		</g>
		<g>
			<g>
				<line class="st16" x1="1645.1" y1="960.2" x2="1645.1" y2="958.7"/>
				<line class="st19" x1="1645.1" y1="955.8" x2="1645.1" y2="886"/>
				<line class="st16" x1="1645.1" y1="884.5" x2="1645.1" y2="883"/>
			</g>
		</g>
	</g>
	<path class="st20" d="M1648.7,955.6c0,2-3.7,4.6-3.7,4.6s-3.7-2.6-3.7-4.6c0-2,1.6-3.7,3.7-3.7
		C1647.1,951.9,1648.7,953.6,1648.7,955.6z"/>
	<path class="st22" d="M1645.4,960.1c0,0,2,19-5.5,24.3s-17.8,3.6-23.1-3.8c-5.3-7.4-3.6-17.8,3.8-23.1S1645.4,960.1,1645.4,960.1z"
		/>
	<path class="st21" d="M1663.4,971c-2.8,4.5-8.8,6-13.3,3.2s-4.3-14-4.3-14s9.9-5.3,14.4-2.5C1664.8,960.5,1666.2,966.5,1663.4,971z
		"/>
	<g>
		<path class="st23" d="M1644.9,1043.7c-45.2,0-82-36.8-82-82c0-45.2,36.8-82,82-82c45.2,0,82,36.8,82,82
			C1726.9,1006.9,1690.1,1043.7,1644.9,1043.7z"/>
		<path class="st23" d="M1644.9,1023.7c-34.2,0-62-27.8-62-62c0-34.2,27.8-62,62-62c34.2,0,62,27.8,62,62
			C1706.9,995.9,1679.1,1023.7,1644.9,1023.7z"/>
		<path class="st23" d="M1644.9,1003.8c-23.2,0-42.1-18.9-42.1-42.1c0-23.2,18.9-42.1,42.1-42.1c23.2,0,42.1,18.9,42.1,42.1
			C1687,984.9,1668.1,1003.8,1644.9,1003.8z"/>
		<path class="st23" d="M1644.9,983.8c-12.2,0-22.1-9.9-22.1-22.1c0-12.2,9.9-22.1,22.1-22.1c12.2,0,22.1,9.9,22.1,22.1
			C1667,973.9,1657.1,983.8,1644.9,983.8z"/>
		<circle class="st23" cx="1644.9" cy="961.7" r="2.2"/>
	</g>
</g>
<g>
	<g>
		<g>
			<g>
				<line class="st16" x1="353.9" y1="1269.6" x2="352.6" y2="1268.8"/>
				<line class="st17" x1="350.1" y1="1267.3" x2="290.1" y2="1231.8"/>
				<line class="st16" x1="288.8" y1="1231" x2="287.5" y2="1230.3"/>
			</g>
		</g>
		<g>
			<g>
				<line class="st16" x1="219.8" y1="1268.6" x2="221.1" y2="1267.9"/>
				<line class="st18" x1="223.7" y1="1266.4" x2="284.9" y2="1231.7"/>
				<line class="st16" x1="286.2" y1="1231" x2="287.5" y2="1230.3"/>
			</g>
		</g>
		<g>
			<g>
				<line class="st16" x1="287.5" y1="1230.3" x2="287.5" y2="1228.8"/>
				<line class="st19" x1="287.5" y1="1225.8" x2="287.5" y2="1156"/>
				<line class="st16" x1="287.5" y1="1154.5" x2="287.5" y2="1153"/>
			</g>
		</g>
	</g>
	<path class="st21" d="M292.1,1243.1c-4.1-2.8-4.2-13.7-4.2-13.7s10.1-4,14.2-1.3c4.1,2.8,5.2,8.4,2.4,12.5
		C301.8,1244.8,296.2,1245.9,292.1,1243.1z"/>
	<path class="st22" d="M287.5,1229.4c0,0,1.4,34.9-12.2,44.1c-13.6,9.2-32,5.6-41.2-7.9c-9.2-13.6-5.6-32,7.9-41.2
		S287.5,1229.4,287.5,1229.4z"/>
	<g>
		<path class="st23" d="M287.9,1314.8c-45.2,0-82-36.8-82-82c0-45.2,36.8-82,82-82c45.2,0,82,36.8,82,82
			C370,1278,333.2,1314.8,287.9,1314.8z"/>
		<path class="st23" d="M287.9,1294.8c-34.2,0-62-27.8-62-62s27.8-62,62-62c34.2,0,62,27.8,62,62S322.2,1294.8,287.9,1294.8z"/>
		<path class="st23" d="M287.9,1274.9c-23.2,0-42.1-18.9-42.1-42.1s18.9-42.1,42.1-42.1c23.2,0,42.1,18.9,42.1,42.1
			S311.1,1274.9,287.9,1274.9z"/>
		<path class="st23" d="M287.9,1254.9c-12.2,0-22.1-9.9-22.1-22.1s9.9-22.1,22.1-22.1c12.2,0,22.1,9.9,22.1,22.1
			S300.1,1254.9,287.9,1254.9z"/>
		<circle class="st23" cx="287.9" cy="1232.8" r="2.2"/>
	</g>
</g>
<g>
	<g>
		<g>
			<g>
				<line class="st16" x1="702.1" y1="1268.9" x2="700.8" y2="1268.2"/>
				<line class="st17" x1="698.3" y1="1266.7" x2="638.2" y2="1231.2"/>
				<line class="st16" x1="637" y1="1230.4" x2="635.7" y2="1229.6"/>
			</g>
		</g>
		<g>
			<g>
				<line class="st16" x1="568" y1="1268" x2="569.3" y2="1267.3"/>
				<line class="st18" x1="571.9" y1="1265.8" x2="633.1" y2="1231.1"/>
				<line class="st16" x1="634.4" y1="1230.4" x2="635.7" y2="1229.6"/>
			</g>
		</g>
		<g>
			<g>
				<line class="st16" x1="635.7" y1="1229.6" x2="635.7" y2="1228.1"/>
				<line class="st19" x1="635.7" y1="1225.2" x2="635.7" y2="1155.4"/>
				<line class="st16" x1="635.7" y1="1153.9" x2="635.7" y2="1152.4"/>
			</g>
		</g>
	</g>
	<path class="st20" d="M650.3,1211.2c0,7.8-14.6,18.7-14.6,18.7s-13.7-10.9-13.7-18.7s6.3-14.2,14.2-14.2
		C643.9,1197.1,650.3,1203.4,650.3,1211.2z"/>
	<path class="st22" d="M635.7,1229.8c0,0,0.2,9.6-3.2,12.1c-3.4,2.6-8.2,1.9-10.8-1.5c-2.6-3.4-1.9-8.2,1.5-10.8
		C626.5,1227.1,635.7,1229.8,635.7,1229.8z"/>
	<path class="st21" d="M645.2,1235.4c-1.3,2.2-4.2,3-6.4,1.7c-2.2-1.3-3.1-7.2-3.1-7.2s5.6-2.2,7.8-0.9
		C645.7,1230.3,646.5,1233.1,645.2,1235.4z"/>
	<g>
		<path class="st23" d="M635.7,1313.8c-45.2,0-82-36.8-82-82c0-45.2,36.8-82,82-82c45.2,0,82,36.8,82,82
			C717.7,1277,680.9,1313.8,635.7,1313.8z"/>
		<path class="st23" d="M635.7,1293.8c-34.2,0-62-27.8-62-62s27.8-62,62-62c34.2,0,62,27.8,62,62S669.9,1293.8,635.7,1293.8z"/>
		<path class="st23" d="M635.7,1273.9c-23.2,0-42.1-18.9-42.1-42.1s18.9-42.1,42.1-42.1c23.2,0,42.1,18.9,42.1,42.1
			S658.9,1273.9,635.7,1273.9z"/>
		<path class="st23" d="M635.7,1253.9c-12.2,0-22.1-9.9-22.1-22.1s9.9-22.1,22.1-22.1c12.2,0,22.1,9.9,22.1,22.1
			S647.9,1253.9,635.7,1253.9z"/>
		<circle class="st23" cx="635.7" cy="1231.8" r="2.2"/>
	</g>
</g>
<g>
	<g>
		<g>
			<g>
				<line class="st16" x1="1025" y1="1275.8" x2="1023.7" y2="1275"/>
				<line class="st17" x1="1021.2" y1="1273.5" x2="961.2" y2="1238"/>
				<line class="st16" x1="959.9" y1="1237.2" x2="958.6" y2="1236.5"/>
			</g>
		</g>
		<g>
			<g>
				<line class="st16" x1="891" y1="1274.8" x2="892.3" y2="1274.1"/>
				<line class="st18" x1="894.9" y1="1272.6" x2="956" y2="1237.9"/>
				<line class="st16" x1="957.3" y1="1237.2" x2="958.6" y2="1236.5"/>
			</g>
		</g>
		<g>
			<g>
				<line class="st16" x1="958.6" y1="1236.5" x2="958.6" y2="1235"/>
				<line class="st19" x1="958.6" y1="1232" x2="958.6" y2="1162.2"/>
				<line class="st16" x1="958.6" y1="1160.7" x2="958.6" y2="1159.2"/>
			</g>
		</g>
	</g>
	<path class="st20" d="M956.6,1233.1c0-1.1,0.8-2,1.9-2.1c1.1,0,2,0.8,2.1,1.9s-1.9,3.5-1.9,3.5S956.6,1234.2,956.6,1233.1z"/>
	<path class="st22" d="M932.1,1231.7c8.1-4.3,26.4,4.8,26.4,4.8s-2.6,20.3-10.8,24.6c-8.1,4.3-18.2,1.3-22.5-6.9
		C920.9,1246.1,924,1236,932.1,1231.7z"/>
	<path class="st21" d="M958.7,1236.4c0,0,4.3-1.1,5.8-0.1s1.9,3.1,0.9,4.6c-1,1.5-3.1,1.9-4.6,0.9
		C959.3,1240.8,958.7,1236.4,958.7,1236.4z"/>
	<g>
		<path class="st23" d="M958.4,1318.8c-45.2,0-82-36.8-82-82c0-45.2,36.8-82,82-82c45.2,0,82,36.8,82,82
			C1040.4,1282,1003.6,1318.8,958.4,1318.8z"/>
		<path class="st23" d="M958.4,1298.8c-34.2,0-62-27.8-62-62s27.8-62,62-62c34.2,0,62,27.8,62,62S992.6,1298.8,958.4,1298.8z"/>
		<path class="st23" d="M958.4,1278.9c-23.2,0-42.1-18.9-42.1-42.1s18.9-42.1,42.1-42.1c23.2,0,42.1,18.9,42.1,42.1
			S981.6,1278.9,958.4,1278.9z"/>
		<path class="st23" d="M958.4,1258.9c-12.2,0-22.1-9.9-22.1-22.1s9.9-22.1,22.1-22.1c12.2,0,22.1,9.9,22.1,22.1
			S970.6,1258.9,958.4,1258.9z"/>
		<circle class="st23" cx="958.4" cy="1236.8" r="2.2"/>
	</g>
</g>
<line class="st5" x1="1278.7" y1="229" x2="1278.1" y2="230.3"/>
<g>
	<g>
		<text transform="matrix(1 0 0 1 452.4463 128.5956)" class="st9 st14 st50">0</text>
	</g>
	<g>
		<text transform="matrix(1 0 0 1 399.7617 128.5946)" class="st9 st14 st50">0.2</text>
	</g>
	<g>
		<text transform="matrix(1 0 0 1 363.8477 128.5951)" class="st9 st14 st50">0.4</text>
	</g>
	<g>
		<text transform="matrix(1 0 0 1 326.9004 128.5946)" class="st9 st14 st50">0.6</text>
	</g>
	<g>
		<text transform="matrix(1 0 0 1 291.8975 128.5946)" class="st9 st14 st50">0.8</text>
	</g>
	<g>
		<text transform="matrix(1 0 0 1 477.1895 128.5951)" class="st9 st14 st50">billion tonns</text>
	</g>
	<path class="st22" d="M353.7,171.3c23-30.5,106.6-25.9,106.6-25.9s26.7,78.6,3.7,109.1s-66.3,36.5-96.7,13.5
		C336.8,245.1,330.7,201.8,353.7,171.3z"/>
	<g>
		<path class="st23" d="M352.9,192c-5.8-15.4-8-31.3-7-46.7l-36.1,0c-1,19.7,2,39.9,9.4,59.4c27.7,73,107.3,111.4,181,89.2
			l-9.3-34.8C434.9,276.6,374,247.6,352.9,192z"/>
		<path class="st23" d="M490.9,259.2l-9.4-34.9c-38.4,12.7-80.4-6.9-94.9-45.1c-4.2-11.2-5.6-22.8-4.5-34l-36.2,0
			c-1,15.4,1.2,31.3,7,46.7C374,247.6,434.9,276.6,490.9,259.2z"/>
		<path class="st23" d="M471.8,189.6c-20.6,7.8-43.7-2.6-51.5-23.2c-2.7-7-3.2-14.3-1.9-21.2l-36.3,0c-1.1,11.2,0.3,22.8,4.5,34
			c14.5,38.2,56.5,57.8,94.9,45.1l-9.3-34.8C472.1,189.5,471.9,189.5,471.8,189.6z"/>
		<path class="st23" d="M471.8,189.6c0.1,0,0.3-0.1,0.4-0.2l-11.9-44.3l-41.9,0c-1.3,6.9-0.8,14.2,1.9,21.2
			C428.1,187,451.2,197.4,471.8,189.6z"/>
	</g>
	<rect x="279.6" y="340.2" class="st5" width="298" height="64"/>
	<text transform="matrix(1 0 0 1 303.4727 367.4613)" class="st22 st51 st52">Green footprint</text>
	<rect x="249.6" y="429.2" class="st5" width="358" height="246"/>
	<text transform="matrix(1 0 0 1 249.5527 444.8485)"><tspan x="0" y="0" class="st9 st53 st54">Green</tspan><tspan x="55.7" y="0" class="st9 st53 st54 st55"> </tspan><tspan x="66.7" y="0" class="st9 st53 st54">water</tspan><tspan x="118.9" y="0" class="st9 st53 st54 st55"> </tspan><tspan x="129.9" y="0" class="st9 st53 st54">footprint</tspan><tspan x="212.9" y="0" class="st9 st53 st54 st55"> </tspan><tspan x="223.9" y="0" class="st9 st53 st54">is</tspan><tspan x="239.3" y="0" class="st9 st53 st54 st55"> </tspan><tspan x="250.3" y="0" class="st9 st53 st54">water</tspan><tspan x="302.5" y="0" class="st9 st53 st54 st55"> </tspan><tspan x="313.5" y="0" class="st9 st53 st54">from </tspan><tspan x="0" y="25.2" class="st9 st53 st54">precipitation</tspan><tspan x="120.2" y="25.2" class="st9 st53 st54"> </tspan><tspan x="126.3" y="25.2" class="st9 st53 st54">that</tspan><tspan x="164.2" y="25.2" class="st9 st53 st54"> </tspan><tspan x="170.3" y="25.2" class="st9 st53 st54">is</tspan><tspan x="185.7" y="25.2" class="st9 st53 st54"> </tspan><tspan x="191.8" y="25.2" class="st9 st53 st54">stored</tspan><tspan x="252.1" y="25.2" class="st9 st53 st54"> </tspan><tspan x="258.2" y="25.2" class="st9 st53 st54">in</tspan><tspan x="276.1" y="25.2" class="st9 st53 st54"> </tspan><tspan x="282.2" y="25.2" class="st9 st53 st54">the</tspan><tspan x="312.9" y="25.2" class="st9 st53 st54"> </tspan><tspan x="319" y="25.2" class="st9 st53 st54">root </tspan><tspan x="0" y="50.4" class="st9 st53 st54">zone</tspan><tspan x="44.4" y="50.4" class="st9 st53 st54"> </tspan><tspan x="50.6" y="50.4" class="st9 st53 st54">of</tspan><tspan x="69.4" y="50.4" class="st9 st53 st54"> </tspan><tspan x="75.6" y="50.4" class="st9 st53 st54">the</tspan><tspan x="106.3" y="50.4" class="st9 st53 st54"> </tspan><tspan x="112.5" y="50.4" class="st9 st53 st54">soil</tspan><tspan x="145.9" y="50.4" class="st9 st53 st54"> </tspan><tspan x="152.1" y="50.4" class="st9 st53 st54">and</tspan><tspan x="187.9" y="50.4" class="st9 st53 st54"> </tspan><tspan x="194.1" y="50.4" class="st9 st53 st54">evaporated,</tspan><tspan x="304.9" y="50.4" class="st9 st53 st54"> </tspan><tspan x="311.1" y="50.4" class="st9 st53 st54">tran</tspan><tspan x="349.6" y="50.4" class="st9 st53 st54">-</tspan><tspan x="0" y="75.6" class="st9 st53 st54">spired</tspan><tspan x="59" y="75.6" class="st9 st53 st54 st56"> </tspan><tspan x="66.4" y="75.6" class="st9 st53 st54">or</tspan><tspan x="86.2" y="75.6" class="st9 st53 st54 st56"> </tspan><tspan x="93.5" y="75.6" class="st9 st53 st54">incorporated</tspan><tspan x="215.2" y="75.6" class="st9 st53 st54 st56"> </tspan><tspan x="222.5" y="75.6" class="st9 st53 st54">by</tspan><tspan x="244.5" y="75.6" class="st9 st53 st54 st56"> </tspan><tspan x="251.9" y="75.6" class="st9 st53 st54">plants.</tspan><tspan x="314.8" y="75.6" class="st9 st53 st54 st56"> </tspan><tspan x="322.2" y="75.6" class="st9 st53 st54">It</tspan><tspan x="335.2" y="75.6" class="st9 st53 st54 st56"> </tspan><tspan x="342.6" y="75.6" class="st9 st53 st54">is </tspan><tspan x="0" y="100.8" class="st9 st53 st54">particularly</tspan><tspan x="107" y="100.8" class="st9 st53 st54 st55"> </tspan><tspan x="118.8" y="100.8" class="st9 st53 st54">relevant</tspan><tspan x="195.8" y="100.8" class="st9 st53 st54 st55"> </tspan><tspan x="207.6" y="100.8" class="st9 st53 st54">for</tspan><tspan x="234.2" y="100.8" class="st9 st53 st54 st55"> </tspan><tspan x="246" y="100.8" class="st9 st53 st54">agricultural, </tspan><tspan x="0" y="126" class="st9 st53 st54">horticultural and forestry products.</tspan></text>
</g>
<g>
	<g>
		<text transform="matrix(1 0 0 1 877.9463 128.5956)" class="st9 st14 st50">0</text>
	</g>
	<g>
		<text transform="matrix(1 0 0 1 825.2617 128.5946)" class="st9 st14 st50">0.2</text>
	</g>
	<g>
		<text transform="matrix(1 0 0 1 789.3477 128.5951)" class="st9 st14 st50">0.4</text>
	</g>
	<g>
		<text transform="matrix(1 0 0 1 752.4004 128.5946)" class="st9 st14 st50">0.6</text>
	</g>
	<g>
		<text transform="matrix(1 0 0 1 717.3975 128.5946)" class="st9 st14 st50">0.8</text>
	</g>
	<g>
		<text transform="matrix(1 0 0 1 902.6895 128.5951)" class="st9 st14 st50">billion tonns</text>
	</g>
	<g>
		<g>
			<g>
				<line class="st57" x1="857.9" y1="301.8" x2="858.5" y2="301"/>
				<line class="st58" x1="859.8" y1="299.5" x2="984.4" y2="152"/>
				<line class="st57" x1="985.1" y1="151.2" x2="985.7" y2="150.5"/>
			</g>
		</g>
	</g>
	<path class="st20" d="M778.2,171.3c23-30.5,106.6-25.9,106.6-25.9s26.7,78.6,3.7,109.1s-66.3,36.5-96.7,13.5
		S755.2,201.8,778.2,171.3z"/>
	<path class="st23" d="M777.4,192c-5.8-15.4-8-31.3-7-46.7l-36.1,0c-1,19.7,2,39.9,9.4,59.4c27.7,73,107.3,111.4,181,89.2l-9.3-34.8
		C859.4,276.6,798.5,247.6,777.4,192z"/>
	<path class="st23" d="M915.4,259.2l-9.4-34.9c-38.4,12.7-80.4-6.9-94.9-45.1c-4.2-11.2-5.6-22.8-4.5-34l-36.2,0
		c-1,15.4,1.2,31.3,7,46.7C798.5,247.6,859.4,276.6,915.4,259.2z"/>
	<path class="st23" d="M896.3,189.6c-20.6,7.8-43.7-2.6-51.5-23.2c-2.7-7-3.2-14.3-1.9-21.2l-36.3,0c-1.1,11.2,0.3,22.8,4.5,34
		c14.5,38.2,56.5,57.8,94.9,45.1l-9.3-34.8C896.6,189.5,896.4,189.5,896.3,189.6z"/>
	<path class="st23" d="M896.3,189.6c0.1,0,0.3-0.1,0.4-0.2l-11.9-44.3l-41.9,0c-1.3,6.9-0.8,14.2,1.9,21.2
		C852.6,187,875.7,197.4,896.3,189.6z"/>
	<rect x="704.1" y="340.2" class="st5" width="298" height="64"/>
	<text transform="matrix(1 0 0 1 739.9238 367.4613)" class="st20 st51 st52">Blue footprint</text>
	<rect x="674.1" y="429.2" class="st5" width="358" height="246"/>
	<text transform="matrix(1 0 0 1 674.0527 444.8485)"><tspan x="0" y="0" class="st9 st53 st54">Blue</tspan><tspan x="42" y="0" class="st9 st53 st54 st56"> </tspan><tspan x="49" y="0" class="st9 st53 st54">water</tspan><tspan x="101.2" y="0" class="st9 st53 st54 st56"> </tspan><tspan x="108.2" y="0" class="st9 st53 st54">footprint</tspan><tspan x="191.2" y="0" class="st9 st53 st54 st56"> </tspan><tspan x="198.2" y="0" class="st9 st53 st54">is</tspan><tspan x="213.7" y="0" class="st9 st53 st54 st56"> </tspan><tspan x="220.7" y="0" class="st9 st53 st54">water</tspan><tspan x="272.9" y="0" class="st9 st53 st54 st56"> </tspan><tspan x="279.9" y="0" class="st9 st53 st54">that</tspan><tspan x="317.7" y="0" class="st9 st53 st54 st56"> </tspan><tspan x="324.7" y="0" class="st9 st53 st54">has </tspan><tspan x="0" y="25.2" class="st9 st53 st54">been</tspan><tspan x="47.1" y="25.2" class="st9 st53 st54 st59"> </tspan><tspan x="54.9" y="25.2" class="st9 st53 st54">sourced</tspan><tspan x="130.1" y="25.2" class="st9 st53 st54 st59"> </tspan><tspan x="138" y="25.2" class="st9 st53 st54">from</tspan><tspan x="182.4" y="25.2" class="st9 st53 st54 st59"> </tspan><tspan x="190.3" y="25.2" class="st9 st53 st54">surface</tspan><tspan x="259.2" y="25.2" class="st9 st53 st54 st59"> </tspan><tspan x="267.1" y="25.2" class="st9 st53 st54">or</tspan><tspan x="286.9" y="25.2" class="st9 st53 st54 st59"> </tspan><tspan x="294.8" y="25.2" class="st9 st53 st54">groun</tspan><tspan x="349.6" y="25.2" class="st9 st53 st54">-</tspan><tspan x="0" y="50.4" class="st9 st53 st54">dwater</tspan><tspan x="64.5" y="50.4" class="st9 st53 st54"> </tspan><tspan x="70.5" y="50.4" class="st9 st53 st54">resources</tspan><tspan x="162.2" y="50.4" class="st9 st53 st54"> </tspan><tspan x="168.2" y="50.4" class="st9 st53 st54">and</tspan><tspan x="204" y="50.4" class="st9 st53 st54"> </tspan><tspan x="210" y="50.4" class="st9 st53 st54">is</tspan><tspan x="225.4" y="50.4" class="st9 st53 st54"> </tspan><tspan x="231.4" y="50.4" class="st9 st53 st54">either</tspan><tspan x="287" y="50.4" class="st9 st53 st54"> </tspan><tspan x="293" y="50.4" class="st9 st53 st54">evapo</tspan><tspan x="349.6" y="50.4" class="st9 st53 st54">-</tspan><tspan x="0" y="75.6" class="st9 st53 st54">rated,</tspan><tspan x="54.2" y="75.6" class="st9 st53 st54 st59"> </tspan><tspan x="62.3" y="75.6" class="st9 st53 st54">incorporated</tspan><tspan x="183.9" y="75.6" class="st9 st53 st54 st59"> </tspan><tspan x="192" y="75.6" class="st9 st53 st54">into</tspan><tspan x="229.1" y="75.6" class="st9 st53 st54 st59"> </tspan><tspan x="237.2" y="75.6" class="st9 st53 st54">a</tspan><tspan x="248.5" y="75.6" class="st9 st53 st54 st59"> </tspan><tspan x="256.6" y="75.6" class="st9 st53 st54">product</tspan><tspan x="330.1" y="75.6" class="st9 st53 st54 st59"> </tspan><tspan x="338.2" y="75.6" class="st9 st53 st54">or </tspan><tspan x="0" y="100.8" class="st9 st53 st54">taken</tspan><tspan x="52.2" y="100.8" class="st9 st53 st54"> </tspan><tspan x="58.7" y="100.8" class="st9 st53 st54">from</tspan><tspan x="103.2" y="100.8" class="st9 st53 st54"> </tspan><tspan x="109.6" y="100.8" class="st9 st53 st54">one</tspan><tspan x="145.2" y="100.8" class="st9 st53 st54"> </tspan><tspan x="151.6" y="100.8" class="st9 st53 st54">body</tspan><tspan x="197.9" y="100.8" class="st9 st53 st54"> </tspan><tspan x="204.4" y="100.8" class="st9 st53 st54">of</tspan><tspan x="223.1" y="100.8" class="st9 st53 st54"> </tspan><tspan x="229.5" y="100.8" class="st9 st53 st54">water</tspan><tspan x="281.7" y="100.8" class="st9 st53 st54"> </tspan><tspan x="288.2" y="100.8" class="st9 st53 st54">and</tspan><tspan x="324" y="100.8" class="st9 st53 st54"> </tspan><tspan x="330.4" y="100.8" class="st9 st53 st54">re</tspan><tspan x="349.6" y="100.8" class="st9 st53 st54">-</tspan><tspan x="0" y="126" class="st9 st53 st54">turned</tspan><tspan x="63" y="126" class="st9 st53 st54 st55"> </tspan><tspan x="74" y="126" class="st9 st53 st54">to</tspan><tspan x="93.1" y="126" class="st9 st53 st54 st55"> </tspan><tspan x="104.1" y="126" class="st9 st53 st54">another,</tspan><tspan x="182.5" y="126" class="st9 st53 st54 st55"> </tspan><tspan x="193.5" y="126" class="st9 st53 st54">or</tspan><tspan x="213.3" y="126" class="st9 st53 st54 st55"> </tspan><tspan x="224.3" y="126" class="st9 st53 st54">returned</tspan><tspan x="306.4" y="126" class="st9 st53 st54 st55"> </tspan><tspan x="317.4" y="126" class="st9 st53 st54">at</tspan><tspan x="335.8" y="126" class="st9 st53 st54 st55"> </tspan><tspan x="346.7" y="126" class="st9 st53 st54">a </tspan><tspan x="0" y="151.2" class="st9 st53 st54">different</tspan><tspan x="81.3" y="151.2" class="st9 st53 st54 st60"> </tspan><tspan x="96.1" y="151.2" class="st9 st53 st54">time.</tspan><tspan x="142.5" y="151.2" class="st9 st53 st54 st60"> </tspan><tspan x="157.3" y="151.2" class="st9 st53 st54">Irrigated</tspan><tspan x="237.1" y="151.2" class="st9 st53 st54 st60"> </tspan><tspan x="251.9" y="151.2" class="st9 st53 st54">agriculture, </tspan><tspan x="0" y="176.4" class="st9 st53 st54">industry</tspan><tspan x="76.9" y="176.4" class="st9 st53 st54 st59"> </tspan><tspan x="85.1" y="176.4" class="st9 st53 st54">and</tspan><tspan x="120.9" y="176.4" class="st9 st53 st54 st59"> </tspan><tspan x="129" y="176.4" class="st9 st53 st54">domestic</tspan><tspan x="214.9" y="176.4" class="st9 st53 st54 st59"> </tspan><tspan x="223" y="176.4" class="st9 st53 st54">water</tspan><tspan x="275.2" y="176.4" class="st9 st53 st54 st59"> </tspan><tspan x="283.3" y="176.4" class="st9 st53 st54">use</tspan><tspan x="316.5" y="176.4" class="st9 st53 st54 st59"> </tspan><tspan x="324.6" y="176.4" class="st9 st53 st54">can </tspan><tspan x="0" y="201.6" class="st9 st53 st54">each have a blue water footprint.</tspan></text>
</g>
<g>
	<g>
		<text transform="matrix(1 0 0 1 1308.4463 128.5956)" class="st9 st14 st50">0</text>
	</g>
	<g>
		<text transform="matrix(1 0 0 1 1255.7617 128.5946)" class="st9 st14 st50">0.2</text>
	</g>
	<g>
		<text transform="matrix(1 0 0 1 1219.8477 128.5951)" class="st9 st14 st50">0.4</text>
	</g>
	<g>
		<text transform="matrix(1 0 0 1 1182.9004 128.5946)" class="st9 st14 st50">0.6</text>
	</g>
	<g>
		<text transform="matrix(1 0 0 1 1147.8975 128.5946)" class="st9 st14 st50">0.8</text>
	</g>
	<g>
		<text transform="matrix(1 0 0 1 1333.1895 128.5951)" class="st9 st14 st50">billion tonns</text>
	</g>
	<rect x="1129.6" y="340.2" class="st5" width="298" height="64"/>
	<text transform="matrix(1 0 0 1 1164.29 367.4613)" class="st61 st51 st52">Grey footprint</text>
	<g>
		<path class="st23" d="M1202.9,192c-5.8-15.4-8-31.3-7-46.7l-36.1,0c-1,19.7,2,39.9,9.4,59.4c27.7,73,107.3,111.4,181,89.2
			l-9.3-34.8C1284.9,276.6,1224,247.6,1202.9,192z"/>
		<path class="st23" d="M1340.9,259.2l-9.4-34.9c-38.4,12.7-80.4-6.9-94.9-45.1c-4.2-11.2-5.6-22.8-4.5-34l-36.2,0
			c-1,15.4,1.2,31.3,7,46.7C1224,247.6,1284.9,276.6,1340.9,259.2z"/>
		<path class="st23" d="M1321.8,189.6c-20.6,7.8-43.7-2.6-51.5-23.2c-2.7-7-3.2-14.3-1.9-21.2l-36.3,0c-1.1,11.2,0.3,22.8,4.5,34
			c14.5,38.2,56.5,57.8,94.9,45.1l-9.3-34.8C1322.1,189.5,1321.9,189.5,1321.8,189.6z"/>
		<path class="st23" d="M1321.8,189.6c0.1,0,0.3-0.1,0.4-0.2l-11.9-44.3l-41.9,0c-1.3,6.9-0.8,14.2,1.9,21.2
			C1278.1,187,1301.2,197.4,1321.8,189.6z"/>
	</g>
	<path class="st61" d="M1203.7,171.3c23-30.5,106.6-25.9,106.6-25.9s26.7,78.6,3.7,109.1c-23,30.5-66.3,36.5-96.7,13.5
		C1186.8,245.1,1180.7,201.8,1203.7,171.3z"/>
	<rect x="1099.6" y="429.2" class="st5" width="358" height="246"/>
	<text transform="matrix(1 0 0 1 1099.5527 444.8485)"><tspan x="0" y="0" class="st9 st53 st54">Grey</tspan><tspan x="41.9" y="0" class="st9 st53 st54 st56"> </tspan><tspan x="49.1" y="0" class="st9 st53 st54">water</tspan><tspan x="101.3" y="0" class="st9 st53 st54 st56"> </tspan><tspan x="108.6" y="0" class="st9 st53 st54">footprint</tspan><tspan x="191.6" y="0" class="st9 st53 st54 st56"> </tspan><tspan x="198.8" y="0" class="st9 st53 st54">is</tspan><tspan x="214.2" y="0" class="st9 st53 st54 st56"> </tspan><tspan x="221.4" y="0" class="st9 st53 st54">the</tspan><tspan x="252.1" y="0" class="st9 st53 st54 st56"> </tspan><tspan x="259.3" y="0" class="st9 st53 st54">amount</tspan><tspan x="332.1" y="0" class="st9 st53 st54 st56"> </tspan><tspan x="339.3" y="0" class="st9 st53 st54">of </tspan><tspan x="0" y="25.2" class="st9 st53 st54">fresh</tspan><tspan x="47.9" y="25.2" class="st9 st53 st54 st62"> </tspan><tspan x="52.7" y="25.2" class="st9 st53 st54">water</tspan><tspan x="104.9" y="25.2" class="st9 st53 st54 st62"> </tspan><tspan x="109.7" y="25.2" class="st9 st53 st54">required</tspan><tspan x="190.2" y="25.2" class="st9 st53 st54 st62"> </tspan><tspan x="195" y="25.2" class="st9 st53 st54">to</tspan><tspan x="214.2" y="25.2" class="st9 st53 st54 st62"> </tspan><tspan x="219" y="25.2" class="st9 st53 st54">assimilate</tspan><tspan x="314.6" y="25.2" class="st9 st53 st54 st62"> </tspan><tspan x="319.4" y="25.2" class="st9 st53 st54">pol</tspan><tspan x="349.6" y="25.2" class="st9 st53 st54">-</tspan><tspan x="0" y="50.4" class="st9 st53 st54">lutants</tspan><tspan x="65.7" y="50.4" class="st9 st53 st54 st56"> </tspan><tspan x="73.4" y="50.4" class="st9 st53 st54">to</tspan><tspan x="92.6" y="50.4" class="st9 st53 st54 st56"> </tspan><tspan x="100.3" y="50.4" class="st9 st53 st54">meet</tspan><tspan x="148" y="50.4" class="st9 st53 st54 st56"> </tspan><tspan x="155.7" y="50.4" class="st9 st53 st54">specific</tspan><tspan x="226.1" y="50.4" class="st9 st53 st54 st56"> </tspan><tspan x="233.9" y="50.4" class="st9 st53 st54">water</tspan><tspan x="286.1" y="50.4" class="st9 st53 st54 st56"> </tspan><tspan x="293.8" y="50.4" class="st9 st53 st54">quality </tspan><tspan x="0" y="75.6" class="st9 st53 st54">standards.</tspan><tspan x="98.2" y="75.6" class="st9 st53 st54 st63"> </tspan><tspan x="111" y="75.6" class="st9 st53 st54">The</tspan><tspan x="144.9" y="75.6" class="st9 st53 st54 st63"> </tspan><tspan x="157.7" y="75.6" class="st9 st53 st54">grey</tspan><tspan x="197.2" y="75.6" class="st9 st53 st54 st63"> </tspan><tspan x="210" y="75.6" class="st9 st53 st54">water</tspan><tspan x="262.2" y="75.6" class="st9 st53 st54 st63"> </tspan><tspan x="275" y="75.6" class="st9 st53 st54">footprint </tspan><tspan x="0" y="100.8" class="st9 st53 st54">considers</tspan><tspan x="90.7" y="100.8" class="st9 st53 st54 st55"> </tspan><tspan x="102.3" y="100.8" class="st9 st53 st54">point-source</tspan><tspan x="222.9" y="100.8" class="st9 st53 st54 st55"> </tspan><tspan x="234.6" y="100.8" class="st9 st53 st54">pollution</tspan><tspan x="320" y="100.8" class="st9 st53 st54 st55"> </tspan><tspan x="331.6" y="100.8" class="st9 st53 st54">di</tspan><tspan x="349.6" y="100.8" class="st9 st53 st54">-</tspan><tspan x="0" y="126" class="st9 st53 st54">scharged</tspan><tspan x="85.1" y="126" class="st9 st53 st54"> </tspan><tspan x="91.9" y="126" class="st9 st53 st54">to</tspan><tspan x="111.1" y="126" class="st9 st53 st54"> </tspan><tspan x="117.9" y="126" class="st9 st53 st54">a</tspan><tspan x="129.1" y="126" class="st9 st53 st54"> </tspan><tspan x="135.9" y="126" class="st9 st53 st54">freshwater</tspan><tspan x="236" y="126" class="st9 st53 st54"> </tspan><tspan x="242.8" y="126" class="st9 st53 st54">resource</tspan><tspan x="324.8" y="126" class="st9 st53 st54"> </tspan><tspan x="331.6" y="126" class="st9 st53 st54">di</tspan><tspan x="349.6" y="126" class="st9 st53 st54">-</tspan><tspan x="0" y="151.2" class="st9 st53 st54">rectly</tspan><tspan x="51.9" y="151.2" class="st9 st53 st54 st60"> </tspan><tspan x="66.2" y="151.2" class="st9 st53 st54">through</tspan><tspan x="140.5" y="151.2" class="st9 st53 st54 st60"> </tspan><tspan x="154.8" y="151.2" class="st9 st53 st54">a</tspan><tspan x="166" y="151.2" class="st9 st53 st54 st60"> </tspan><tspan x="180.4" y="151.2" class="st9 st53 st54">pipe</tspan><tspan x="221.7" y="151.2" class="st9 st53 st54 st60"> </tspan><tspan x="236" y="151.2" class="st9 st53 st54">or</tspan><tspan x="255.9" y="151.2" class="st9 st53 st54 st60"> </tspan><tspan x="270.2" y="151.2" class="st9 st53 st54">indirectly </tspan><tspan x="0" y="176.4" class="st9 st53 st54">through</tspan><tspan x="74.2" y="176.4" class="st9 st53 st54 st64"> </tspan><tspan x="84.6" y="176.4" class="st9 st53 st54">runoff</tspan><tspan x="142.3" y="176.4" class="st9 st53 st54 st64"> </tspan><tspan x="152.7" y="176.4" class="st9 st53 st54">or</tspan><tspan x="172.5" y="176.4" class="st9 st53 st54 st64"> </tspan><tspan x="182.9" y="176.4" class="st9 st53 st54">leaching</tspan><tspan x="262" y="176.4" class="st9 st53 st54 st64"> </tspan><tspan x="272.4" y="176.4" class="st9 st53 st54">from</tspan><tspan x="316.9" y="176.4" class="st9 st53 st54 st64"> </tspan><tspan x="327.3" y="176.4" class="st9 st53 st54">the </tspan><tspan x="0" y="201.6" class="st9 st53 st54">soil,</tspan><tspan x="37.7" y="201.6" class="st9 st53 st54"> </tspan><tspan x="43.6" y="201.6" class="st9 st53 st54">impervious</tspan><tspan x="148" y="201.6" class="st9 st53 st54"> </tspan><tspan x="153.9" y="201.6" class="st9 st53 st54">surfaces,</tspan><tspan x="236.8" y="201.6" class="st9 st53 st54"> </tspan><tspan x="242.7" y="201.6" class="st9 st53 st54">or</tspan><tspan x="262.5" y="201.6" class="st9 st53 st54"> </tspan><tspan x="268.4" y="201.6" class="st9 st53 st54">other</tspan><tspan x="319" y="201.6" class="st9 st53 st54"> </tspan><tspan x="324.9" y="201.6" class="st9 st53 st54">dif</tspan><tspan x="349.6" y="201.6" class="st9 st53 st54">-</tspan><tspan x="0" y="226.8" class="st9 st53 st54">fuse sources.</tspan></text>
</g>
<text transform="matrix(1 0 0 1 770.6648 2072.3401)" class="st40 st86 st87">Water footprint for 19 main producers - WATERSTAT</text>
<rect x="0" y="2" class="st5" width="1925.6" height="2159.6"/>
</svg>
