<svg xmlns="http://www.w3.org/2000/svg" viewBox="0 0 1480.31 270.16"><defs><style>.cls-1{font-size:36px;fill:#c8e593;font-family:Merriweather-Bold, Merriweather;font-weight:700;}.cls-2{fill:#fff;}.cls-3{fill:none;stroke:#fff;stroke-miterlimit:10;stroke-width:3px;}</style></defs><title>gr_list</title><g id="Livello_2" data-name="Livello 2"><g id="Livello_1-2" data-name="Livello 1"><text class="cls-1" transform="translate(344.6 154.17)">+ production</text><text class="cls-1" transform="translate(47.24 154.37)">+ demand</text><text class="cls-1" transform="translate(839.59 31.38)">++ soil consumption</text><text class="cls-1" transform="translate(821.05 255.17)">++ water consumption</text><line class="cls-2" x1="265.68" y1="146.44" x2="316.68" y2="146.44"/><line class="cls-3" x1="265.68" y1="146.94" x2="313.68" y2="146.94"/><polygon class="cls-2" points="303.34 159.14 301.3 156.94 312.13 146.87 301.3 136.8 303.34 134.6 316.54 146.87 303.34 159.14"/><line class="cls-2" x1="711.68" y1="23.44" x2="800.68" y2="23.44"/><line class="cls-3" x1="711.68" y1="23.94" x2="797.68" y2="23.94"/><polygon class="cls-2" points="787.25 36.14 785.21 33.94 796.04 23.87 785.21 13.8 787.25 11.6 800.45 23.87 787.25 36.14"/><line class="cls-2" x1="711.68" y1="247.44" x2="800.68" y2="247.44"/><line class="cls-3" x1="711.68" y1="247.94" x2="797.68" y2="247.94"/><polygon class="cls-2" points="787.25 260.14 785.21 257.94 796.04 247.87 785.21 237.8 787.25 235.6 800.45 247.87 787.25 260.14"/><line class="cls-3" x1="713.18" y1="24.44" x2="713.18" y2="248.44"/><line class="cls-3" x1="611.68" y1="141.94" x2="714.68" y2="141.94"/></g></g></svg>