<svg xmlns="http://www.w3.org/2000/svg" viewBox="0 0 1920 190"><defs><style>.cls-1{font-size:36px;font-family:Merriweather-Bold, Merriweather;font-weight:700;}.cls-2{fill:#333;}.cls-3{fill:none;}</style></defs><title>inv_imp02</title><g id="Livello_2" data-name="Livello 2"><g id="Livello_1-2" data-name="Livello 1"><text class="cls-1" transform="translate(975 45.01)">The number of low-paid, often migrant <tspan x="0" y="43.2">workers who toil and live amid polluted </tspan><tspan x="0" y="86.4">water courses and pesticides is </tspan><tspan x="0" y="129.6">increasing</tspan></text><path class="cls-2" d="M1615.57,169.27q5.81-3.33,9.38-5.72a43.8,43.8,0,0,0,7.28-6.34,28.82,28.82,0,0,0,5.31-7.75,35.39,35.39,0,0,0,2.59-10.46h-5.92q-7.67,0-12-3.76t-4.38-11.05a14.58,14.58,0,0,1,3.89-9.69q3.88-4.52,10.68-4.51,10.61,0,15.18,7t4.57,18.3a31,31,0,0,1-3.46,14.6,51.77,51.77,0,0,1-8.39,11.77,60.88,60.88,0,0,1-10.74,9q-5.68,3.7-9.51,6Zm-45.68,0q5.8-3.33,9.39-5.72a44.21,44.21,0,0,0,7.28-6.34,28.7,28.7,0,0,0,5.37-7.81,36.36,36.36,0,0,0,2.53-10.4h-5.93q-7.65,0-12-3.76t-4.38-11.05a14.56,14.56,0,0,1,3.88-9.69q3.9-4.52,10.68-4.51,10.62,0,15.19,7t4.56,18.3a31,31,0,0,1-3.45,14.6,52.11,52.11,0,0,1-8.4,11.77,60.17,60.17,0,0,1-10.74,9q-5.67,3.7-9.5,6Z"/><rect class="cls-3" width="1920" height="190"/></g></g></svg>