<svg xmlns="http://www.w3.org/2000/svg" viewBox="0 0 1920 322"><defs><style>.cls-1{font-size:36px;font-family:Merriweather-Bold, Merriweather;font-weight:700;}.cls-2{fill:#333;}.cls-3{fill:none;}</style></defs><title>inv_imp</title><g id="Livello_2" data-name="Livello 2"><g id="Livello_1-2" data-name="Livello 1"><text class="cls-1" transform="translate(250 81.01)">The environmental impacts from avocados <tspan x="0" y="43.2">come from the energy, water, fertiliser and </tspan><tspan x="0" y="86.4">pesticide required to grow them, the resources </tspan><tspan x="0" y="129.6">used for packaging materials and the energy </tspan><tspan x="0" y="172.8">used in processing, transporting and keeping </tspan><tspan x="0" y="216">them cool to preserve their freshness.</tspan></text><path class="cls-2" d="M176.43,26.73q-5.81,3.33-9.38,5.72a43.8,43.8,0,0,0-7.28,6.34,28.82,28.82,0,0,0-5.31,7.75A35.39,35.39,0,0,0,151.87,57h5.92q7.67,0,12,3.76t4.38,11.05a14.58,14.58,0,0,1-3.89,9.69Q166.44,86,159.64,86q-10.6,0-15.18-7t-4.57-18.3a31,31,0,0,1,3.46-14.6,51.77,51.77,0,0,1,8.39-11.77,60.88,60.88,0,0,1,10.74-9q5.69-3.7,9.51-6Zm45.68,0q-5.81,3.33-9.39,5.72a44.21,44.21,0,0,0-7.28,6.34,28.7,28.7,0,0,0-5.37,7.81A36.36,36.36,0,0,0,197.54,57h5.93q7.65,0,12,3.76t4.38,11.05A14.56,14.56,0,0,1,216,81.5Q212.1,86,205.32,86q-10.62,0-15.19-7t-4.56-18.3A31,31,0,0,1,189,46.15a52.11,52.11,0,0,1,8.4-11.77,60.17,60.17,0,0,1,10.74-9q5.67-3.7,9.5-6Z"/><rect class="cls-3" width="1920" height="322"/></g></g></svg>