<?xml version="1.0" encoding="utf-8"?>
<!-- Generator: Adobe Illustrator 22.0.0, SVG Export Plug-In . SVG Version: 6.00 Build 0)  -->
<svg version="1.1" id="Livello_1" xmlns="http://www.w3.org/2000/svg" xmlns:xlink="http://www.w3.org/1999/xlink" x="0px" y="0px"
	 viewBox="0 0 1919.4 484.8" style="enable-background:new 0 0 1919.4 484.8;" xml:space="preserve">
<style type="text/css">
	.st0{fill:#5CB35F;}
	.st1{fill:#194C23;}
	.st2{fill:none;stroke:#FFFFFF;stroke-miterlimit:10;}
	.st3{fill:#FFFFFF;}
	.st4{opacity:0.5;fill:#FFFFFF;stroke:#FFFFFF;stroke-miterlimit:10;enable-background:new    ;}
	.st5{fill:none;stroke:#FFFFFF;stroke-width:0.5;stroke-miterlimit:10;}
	.st6{opacity:0.4;fill:none;stroke:#FFFFFF;stroke-miterlimit:10;stroke-dasharray:3;enable-background:new    ;}
	.st7{fill:none;}
	.st8{font-family:'FiraSans-Book';}
	.st9{font-size:14px;}
	.st10{font-family:'FiraSans-Bold';}
	.st11{font-size:24px;}
	.st12{fill:none;stroke:#FFFFFF;stroke-miterlimit:10;stroke-dasharray:3;}
</style>
<rect x="8293.6" y="-8297.6" class="st0" width="10.4" height="10.4"/>
<rect x="8295.7" y="-8295.5" class="st1" width="8.2" height="8.2"/>
<text transform="matrix(1 0 0 1 8261.1064 -8386.2832)" style="font-family:'ArialMT'; font-size:11px;">Israel Jerusalem</text>
<rect x="8298.7" y="-8406.1" class="st0" width="8" height="8"/>
<rect x="8300.2" y="-8404.5" class="st1" width="6.5" height="6.5"/>
<circle class="st2" cx="1390.4" cy="262.6" r="112.4"/>
<circle class="st3" cx="1300.6" cy="204.7" r="17.8"/>
<circle class="st3" cx="1341.9" cy="162.2" r="9.3"/>
<rect x="1384.8" y="140.9" transform="matrix(0.4057 -0.914 0.914 0.4057 722.8937 1399.9658)" class="st4" width="106.4" height="6.4"/>
<rect x="1429.2" y="189.8" transform="matrix(0.6041 -0.7969 0.7969 0.6041 418.3496 1228.0917)" class="st4" width="32" height="6.4"/>
<rect x="1444.7" y="207.4" transform="matrix(0.8022 -0.597 0.597 0.8022 162.3027 911.2235)" class="st4" width="23.7" height="6.4"/>
<rect x="1454.4" y="224.7" transform="matrix(0.9014 -0.4331 0.4331 0.9014 45.3698 655.0848)" class="st4" width="12.7" height="6.4"/>
<rect x="1460.4" y="242.9" transform="matrix(0.9799 -0.1996 0.1996 0.9799 -19.6164 297.5739)" class="st4" width="11.3" height="6.4"/>
<rect x="1463.4" y="259.5" transform="matrix(6.013816e-02 -0.9982 0.9982 6.013816e-02 1114.4871 1712.4655)" class="st4" width="6.4" height="9.8"/>
<rect x="1460.1" y="278.2" transform="matrix(0.2517 -0.9678 0.9678 0.2517 821.3406 1627.7992)" class="st4" width="6.4" height="9.1"/>
<rect x="1453.1" y="294.9" transform="matrix(0.5032 -0.8642 0.8642 0.5032 464.7005 1407.2443)" class="st4" width="6.4" height="9.1"/>
<rect x="1435.6" y="314.9" transform="matrix(0.753 -0.658 0.658 0.753 146.8538 1024.9785)" class="st4" width="6.4" height="4"/>
<rect x="1413.5" y="328.2" transform="matrix(0.9373 -0.3486 0.3486 0.9373 -26.2515 514.5699)" class="st4" width="6.4" height="4"/>
<rect x="1393.7" y="332.7" transform="matrix(0.996 -8.934857e-02 8.934857e-02 0.996 -25.2517 126.1898)" class="st4" width="6.4" height="24.9"/>
<circle class="st3" cx="1282.8" cy="228.9" r="4.1"/>
<circle class="st3" cx="1278.7" cy="245.4" r="3.6"/>
<circle class="st3" cx="1278.1" cy="264.4" r="6.4"/>
<circle class="st3" cx="1280.6" cy="287.3" r="2.9"/>
<circle class="st3" cx="1285.4" cy="303.8" r="1.8"/>
<circle class="st3" cx="1295.2" cy="322.9" r="3.3"/>
<circle class="st3" cx="1309.2" cy="341.3" r="5.5"/>
<circle class="st3" cx="1329.5" cy="357.8" r="3.9"/>
<circle class="st3" cx="1363.8" cy="372.4" r="2.2"/>
<path class="st5" d="M1413.5,193.6c-33.3,38.7-80.9,30.6-80.9,30.6s61.8,29.3,103.4-18.2"/>
<polygon class="st3" points="1412.5,193.3 1418.9,195.7 1439,149.9 1432.9,147.5 "/>
<polygon class="st3" points="1433,203.8 1438.1,207.6 1446.6,196.4 1441.9,192.1 "/>
<polygon class="st3" points="1453.5,227.9 1456.3,233.7 1463.4,230.2 1460.7,224.4 "/>
<polygon class="st3" points="1449,220.3 1451.8,218.2 1448,213 1445.2,215.1 "/>
<polygon class="st3" points="1459.9,244.1 1461.2,250.4 1466.2,249.4 1465.1,243 "/>
<polygon class="st3" points="1459.8,278.5 1458.1,284.7 1460.3,285.3 1462,279.1 "/>
<polygon class="st3" points="1392.6,333.1 1399,332.5 1399.8,342 1393.4,342.7 "/>
<polygon class="st3" points="1435,317.6 1435.8,318.5 1440.6,314.2 1439.8,313.3 "/>
<path class="st5" d="M1331.9,224.6c0,0,61.7,48.7,114.7-6.9"/>
<path class="st5" d="M1331.9,224.6c0,0,59.2,61.3,122.9,6.2"/>
<path class="st5" d="M1331.9,224.6c0,0,63.4,69.5,128.6,23.9"/>
<path class="st5" d="M1331.9,224.6c0,0,48.7,66.7,126.9,57.4"/>
<path class="st5" d="M1437.6,315.2c-62.8-11.8-105.6-90.6-105.6-90.6"/>
<path class="st5" d="M1331.9,224.6c0,0,72.6,20,63.2,108.2"/>
<ellipse class="st2" cx="1391.1" cy="261.4" rx="70.5" ry="71.5"/>
<path class="st6" d="M1361.6,382.8l-2.4,8.9c-58.6-14.3-102.1-67.2-102.1-130.2c0-53.4,31.2-99.5,76.3-121l3.4,7.1"/>
<line class="st6" x1="1284.5" y1="180.1" x2="1247.4" y2="147.5"/>
<rect x="1179.8" y="138.2" class="st7" width="67.2" height="14.6"/>
<text transform="matrix(1 0 0 1 1179.7823 148.7199)" class="st3 st8 st9">Producers</text>
<rect x="1178.8" y="213.6" class="st7" width="74.9" height="38.5"/>
<text transform="matrix(1 0 0 1 1178.7833 224.1073)" class="st3 st8 st9">Amount of </text>
<text transform="matrix(1 0 0 1 1178.7833 240.9073)" class="st3 st8 st9">production</text>
<rect x="1535.3" y="428.7" class="st7" width="67.2" height="14.6"/>
<text transform="matrix(1 0 0 1 1535.3145 439.1541)" class="st3 st8 st9">Importers</text>
<rect x="1520.6" y="135.2" class="st7" width="156.9" height="28.7"/>
<text transform="matrix(1 0 0 1 1520.5723 145.656)" class="st3 st8 st9">Total imported quantity </text>
<text transform="matrix(1 0 0 1 1520.5723 162.456)" class="st3 st8 st9">by country</text>
<rect x="1518.7" y="198.7" class="st7" width="148.9" height="28.7"/>
<text transform="matrix(1 0 0 1 1518.6776 209.1666)" class="st3 st8 st9">Quantity imported by</text>
<text transform="matrix(1 0 0 1 1518.6776 225.9666)" class="st3 st8 st9">the evidenced country </text>
<rect x="1173.9" y="42.3" class="st7" width="147" height="26.6"/>
<text transform="matrix(1 0 0 1 1173.8964 60.539)" class="st3 st10 st11">How to read </text>
<polyline class="st12" points="1460.4,108.3 1523.4,108.3 1523.8,129.8 "/>
<polyline class="st12" points="1433.4,171.3 1522.9,171.3 1522.9,195.8 "/>
<polyline class="st12" points="1280.4,198.3 1216.4,198.3 1216.1,211.2 "/>
<path class="st6" d="M1401.2,385.8l7.3,65.4c96.1-9.1,171.3-90.1,171.3-188.6c0-78.7-48-146.2-116.4-174.8l-2.4,5.7"/>
<line class="st6" x1="1532.8" y1="425.1" x2="1514.7" y2="405.5"/>
<rect x="218.7" y="86.7" class="st7" width="952" height="64.6"/>
</svg>
