<svg xmlns="http://www.w3.org/2000/svg" viewBox="0 0 1919 1689.06"><defs><style>.cls-1,.cls-13{font-size:60px;font-family:FiraSans-Bold, Fira Sans;}.cls-1,.cls-13,.cls-14,.cls-7,.cls-8{fill:#333;}.cls-1,.cls-13,.cls-8{font-weight:700;}.cls-2{letter-spacing:-0.07em;}.cls-3{letter-spacing:-0.02em;}.cls-4{letter-spacing:-0.02em;}.cls-5{letter-spacing:-0.01em;}.cls-6{letter-spacing:-0.07em;}.cls-8{font-size:37px;font-family:Merriweather-Bold, Merriweather;}.cls-9{fill:#f0f;}.cls-10{letter-spacing:-0.01em;}.cls-11{letter-spacing:-0.01em;}.cls-12{letter-spacing:0em;}.cls-13{letter-spacing:0em;}.cls-14{font-size:36px;font-family:FiraSans-Medium, Fira Sans;}.cls-15{letter-spacing:-0.03em;}.cls-16{letter-spacing:-0.06em;}.cls-17{letter-spacing:-0.09em;}.cls-18{letter-spacing:-0.02em;}.cls-19{letter-spacing:-0.01em;}.cls-20{letter-spacing:0em;}.cls-21{letter-spacing:-0.01em;}.cls-22,.cls-27,.cls-36{fill:none;}.cls-22,.cls-27{stroke:#333;}.cls-22,.cls-24,.cls-27,.cls-36{stroke-miterlimit:10;}.cls-22{stroke-width:8px;}.cls-23{letter-spacing:-0.01em;}.cls-24{fill:#f2f2f2;stroke:#fff;}.cls-25{fill:#67baa7;}.cls-26{fill:#329690;}.cls-27{stroke-width:3px;}.cls-28{letter-spacing:-0.02em;}.cls-29{fill:#a4dd7f;}.cls-30{fill:#85c68a;}.cls-31{fill:#4c936e;}.cls-32{fill:#54a07a;}.cls-33{fill:#352b2b;}.cls-34{fill:#61af86;}.cls-35{fill:#91ce6a;}.cls-36{stroke:#c8e593;}</style></defs><title>pool_res</title><g id="Livello_2" data-name="Livello 2"><g id="Livello_1-2" data-name="Livello 1"><text class="cls-1" transform="translate(248.81 319.12)"><tspan class="cls-2">4</tspan><tspan x="29.58" y="0">1,</tspan><tspan class="cls-3" x="71.82" y="0">8</tspan><tspan class="cls-4" x="105.72" y="0">9</tspan><tspan x="138.06" y="0">2</tspan><tspan class="cls-5" x="169.08" y="0">,</tspan><tspan x="182.88" y="0">6</tspan><tspan class="cls-6" x="216.72" y="0">4</tspan><tspan x="246.3" y="0" xml:space="preserve">1,777  l</tspan></text><path class="cls-7" d="M1631.68,1472.77q5.79-3.33,9.38-5.72a44.21,44.21,0,0,0,7.28-6.34,29.29,29.29,0,0,0,5.31-7.75,35.39,35.39,0,0,0,2.59-10.46h-5.92q-7.66,0-12-3.76t-4.38-11a14.53,14.53,0,0,1,3.89-9.69q3.89-4.51,10.67-4.51,10.62,0,15.19,7t4.56,18.3a31,31,0,0,1-3.45,14.6,51.8,51.8,0,0,1-8.4,11.77,60.17,60.17,0,0,1-10.74,9q-5.67,3.71-9.5,6Zm-45.68,0q5.8-3.33,9.38-5.72a43.84,43.84,0,0,0,7.29-6.34,28.92,28.92,0,0,0,5.37-7.81,36.36,36.36,0,0,0,2.53-10.4h-5.93q-7.65,0-12-3.76t-4.39-11a14.58,14.58,0,0,1,3.89-9.69q3.89-4.51,10.68-4.51,10.62,0,15.18,7t4.57,18.3a30.9,30.9,0,0,1-3.46,14.6,51.77,51.77,0,0,1-8.39,11.77,60.17,60.17,0,0,1-10.74,9q-5.67,3.71-9.5,6Z"/><text class="cls-8" transform="translate(248.5 1298.33)">Avocado consumption has increased exponentially in recent years. <tspan x="0" y="44.4">A fundamental element of our healthy diet, </tspan><tspan class="cls-9" x="819.8" y="44.4">54024920 </tspan><tspan x="1020.14" y="44.4">million </tspan><tspan x="0" y="88.8">avocados are produced worldwide each week... soon the whole </tspan><tspan x="0" y="133.2">planet will be covered... </tspan></text><text class="cls-1" transform="translate(1281.9 774.97) rotate(0.34)">95,<tspan class="cls-10" x="80.16" y="0">7</tspan><tspan x="107.52" y="0">54</tspan><tspan class="cls-5" x="173.58" y="0">,</tspan><tspan x="187.38" y="0">6</tspan><tspan class="cls-11" x="221.22" y="0">0</tspan><tspan class="cls-12" x="255.72" y="0" xml:space="preserve">9  m</tspan></text><text class="cls-13" transform="matrix(0.58, 0, 0, 0.58, 1650.46, 757.15)">2</text><text class="cls-14" transform="translate(1488.63 834.59) rotate(0.34)">NEW <tspan class="cls-15" x="82.4" y="0">Y</tspan><tspan x="101.84" y="0">ORK </tspan><tspan x="-57.38" y="44">CENTRAL </tspan><tspan class="cls-16" x="95.62" y="44">P</tspan><tspan x="114.73" y="44">ARK</tspan></text><text class="cls-14" transform="translate(244.56 374.76) rotate(0.24)">O<tspan class="cls-17" x="24.88" y="0">L</tspan><tspan class="cls-18" x="39.85" y="0">Y</tspan><tspan x="59.83" y="0">MPIC </tspan><tspan class="cls-19" x="0" y="44">S</tspan><tspan class="cls-20" x="19.8" y="44">WIMMING POO</tspan><tspan class="cls-21" x="254.59" y="44">L</tspan><tspan x="272.34" y="44">S</tspan></text><line class="cls-22" x1="250.5" y1="170.5" x2="381.5" y2="170.5"/><text class="cls-1" transform="translate(250.14 143.26)">1 WEEK P<tspan class="cls-23" x="244.2" y="0">R</tspan><tspan x="280.44" y="0">ODU</tspan><tspan class="cls-5" x="400.01" y="0">C</tspan><tspan x="433.91" y="0">TION</tspan></text><polygon class="cls-24" points="1309 101 1614.5 222.5 1316.5 551.5 1008.5 404.5 1309 101"/><polygon class="cls-25" points="1048.5 394.5 1308.1 128.5 1573.5 237.5 1317.5 516.5 1048.5 394.5"/><polygon class="cls-26" points="1308.1 156.5 1069.68 404.11 1048.5 394.5 1308.5 128.5 1308.1 156.5"/><polygon class="cls-26" points="1555.77 256.83 1308.5 156.5 1308.5 128.5 1573.5 237.5 1555.77 256.83"/><path class="cls-27" d="M1238.85,171.85s15.65-18.35,21.65-.35v46"/><path class="cls-27" d="M1251.85,159.35S1267.5,141,1273.5,159v46"/><text class="cls-1" transform="translate(1471.5 472.04)">x 2<tspan class="cls-28" x="75.96" y="0">2</tspan><tspan x="105.66" y="0">166</tspan></text><text class="cls-1" transform="translate(863.5 912.04)">x 28</text><path class="cls-29" d="M568,678.28c-47.51-28.16-103.95-36-156.38-20C358,674.62,303.74,715.58,299.43,814c-8.16,186.35,80.19,318.13,257.74,180.43a215.62,215.62,0,0,1,75.58-38.1l122.3.16c34.26-9.29,61.47-36.47,71.92-71.84h0c16.83-56.93-14.12-117.25-68.76-134L650,726.85Z"/><path class="cls-30" d="M454.81,812.3s17.49-24.39,42.55-24.39S534.11,811,534.11,811Z"/><path class="cls-30" d="M630.44,857.28s17.49-24.39,42.55-24.39S709.74,856,709.74,856Z"/><circle class="cls-31" cx="421.58" cy="697.92" r="31.34" transform="translate(-354.94 946.59) rotate(-76.62)"/><circle class="cls-32" cx="462.95" cy="619.18" r="74.47" transform="translate(-223.09 975.61) rotate(-80.67)"/><path class="cls-33" d="M439.62,620.78l27.54,24.89a2.94,2.94,0,1,1-4,4.36,2.28,2.28,0,0,1-.22-.22l-24.72-27.69a1,1,0,0,1,1.35-1.34Z"/><path class="cls-33" d="M435.82,702.85l29.25,28.49a2.94,2.94,0,0,1-4.1,4.21.93.93,0,0,1-.14-.14L433.58,705a1.55,1.55,0,0,1,2.24-2.14Z"/><path class="cls-33" d="M485.15,645l-17,20.48a2.94,2.94,0,1,1-4.52-3.76,2.72,2.72,0,0,1,.29-.3l19.75-17.86a1,1,0,0,1,1.5,1.44Z"/><path class="cls-33" d="M446.87,718.43l-18.7-1.13a.7.7,0,0,1,0-1.39l18.7-1.13a1.83,1.83,0,0,1,.22,3.65A.81.81,0,0,1,446.87,718.43Z"/><path class="cls-34" d="M413.4,593.32s.78,16.33,20.41,22C433.81,615.29,434.59,597.79,413.4,593.32Z"/><path class="cls-34" d="M450.68,573S433.2,587.17,443,613.56C443,613.56,463,600.14,450.68,573Z"/><path class="cls-34" d="M405.93,628.24s12.41,9.74,28.92-1C434.85,627.21,422.58,615.59,405.93,628.24Z"/><path class="cls-34" d="M485.66,653.21s9.28,5.29,19.27-3.57C504.93,649.64,495.55,643.08,485.66,653.21Z"/><path class="cls-34" d="M483.58,611.5s-11.8,9.57-5.21,27.38C478.37,638.88,491.9,629.82,483.58,611.5Z"/><path class="cls-33" d="M467,604.1a1.95,1.95,0,0,0-3.89,0l-6.61,189.14h17.11Z"/><path class="cls-35" d="M395.34,822.55s29.11-42.65,70.84-42.65,61.18,40.38,61.18,40.38Z"/><path class="cls-35" d="M370.25,822.57s11.07-18.48,26.93-18.48,23.25,17.5,23.25,17.5Z"/><rect class="cls-36" x="0.5" y="0.5" width="1918" height="1499.5"/></g></g></svg>