<svg xmlns="http://www.w3.org/2000/svg" viewBox="0 0 1939 1040"><defs><style>.cls-1{fill:#50690e;}.cls-2{fill:#aec071;}.cls-3,.cls-41{fill:#9ac31c;}.cls-4{fill:#bccf00;}.cls-5{fill:#8baf1a;}.cls-6{fill:#aac25b;}.cls-7{fill:#435124;}.cls-8{fill:#869603;}.cls-9{fill:#616f03;}.cls-10{fill:#65833f;}.cls-11{fill:#c3ca7a;}.cls-12,.cls-49{isolation:isolate;}.cls-12{font-size:20.3px;font-family:FiraSans-Bold, Fira Sans;}.cls-12,.cls-20,.cls-23,.cls-28,.cls-31{fill:#fff;}.cls-12,.cls-20,.cls-23,.cls-28,.cls-41,.cls-49{font-weight:700;}.cls-13{letter-spacing:-0.02em;}.cls-14{letter-spacing:0em;}.cls-15{letter-spacing:-0.01em;}.cls-16{letter-spacing:-0.02em;}.cls-17{letter-spacing:-0.02em;}.cls-18,.cls-48,.cls-56{fill:none;}.cls-18,.cls-48{stroke:#fff;stroke-miterlimit:10;}.cls-18{stroke-width:3.74px;}.cls-19{fill:#c8e593;}.cls-20,.cls-41,.cls-49{font-size:18px;}.cls-20,.cls-23,.cls-28,.cls-41{font-family:FiraSans-BoldItalic, Fira Sans;}.cls-20,.cls-23,.cls-28,.cls-31,.cls-41{font-style:italic;}.cls-21{letter-spacing:-0.01em;}.cls-22{letter-spacing:-0.02em;}.cls-23{font-size:36px;}.cls-24{letter-spacing:-0.01em;}.cls-25{letter-spacing:0em;}.cls-26{letter-spacing:-0.02em;}.cls-27{letter-spacing:-0.02em;}.cls-28,.cls-31{font-size:21px;}.cls-29{letter-spacing:-0.03em;}.cls-30{letter-spacing:-0.02em;}.cls-31{font-family:FiraSans-Italic, FiraSans Italic;}.cls-32{letter-spacing:0.01em;}.cls-33{letter-spacing:-0.01em;}.cls-34{letter-spacing:0.01em;}.cls-35{letter-spacing:-0.03em;}.cls-36{letter-spacing:-0.01em;}.cls-37{letter-spacing:-0.01em;}.cls-38{letter-spacing:-0.02em;}.cls-39{letter-spacing:-0.02em;}.cls-40{letter-spacing:-0.01em;}.cls-42{letter-spacing:0.01em;}.cls-43{letter-spacing:-0.02em;}.cls-44{letter-spacing:-0.01em;}.cls-45{letter-spacing:-0.05em;}.cls-46{letter-spacing:-0.06em;}.cls-47{letter-spacing:-0.07em;}.cls-48{stroke-dasharray:12;}.cls-49{fill:#e3f1c9;font-family:FiraSans-SemiBold, Fira Sans;}.cls-50{letter-spacing:0em;}.cls-51{letter-spacing:-0.01em;}.cls-52{letter-spacing:-0.01em;}.cls-53{letter-spacing:-0.05em;}.cls-54{letter-spacing:0em;}.cls-55{letter-spacing:-0.05em;}</style></defs><title>prod_growth</title><g id="Livello_2" data-name="Livello 2"><g id="Livello_1-2" data-name="Livello 1"><path class="cls-1" d="M381,772.12c76.82,0,76.82-1.88,153.64-1.88s76.82,3.45,153.63,3.45c77,0,77-10.11,154.06-10.11,76.82,0,76.82-13.49,153.64-13.49s76.82,4,153.63,4,76.82-8.24,153.64-8.24c77,0,77-.19,154.06-.19,76.82,0,76.82-15,153.64-15s76.81,12.24,153.63,12.24,76.82-3.53,153.64-3.53v32.5c-76.82,0-76.82,1.06-153.64,1.06s-76.82-16.23-153.63-16.23-76.82,15.18-153.64,15.18c-77,0-77,.59-154.06.59-76.82,0-76.82,8.32-153.64,8.32s-76.81-5.17-153.63-5.17S919.15,786.7,842.33,786.7c-77,0-77,11.46-154.06,11.46-76.81,0-76.81-2.31-153.63-2.31s-76.82,3.6-153.64,3.6Z"/><path class="cls-2" d="M381,738c76.82,0,76.82-2.65,153.64-2.65s76.82,17.92,153.63,17.92c77,0,77-28.33,154.06-28.33,76.82,0,76.82-2.55,153.64-2.55s76.82,5.66,153.63,5.66,76.82-8.86,153.64-8.86c77,0,77-1,154.06-1,76.82,0,76.82-14.21,153.64-14.21s76.81,14.54,153.63,14.54,76.82-2.06,153.64-2.06V739.3c-76.82,0-76.82,3.53-153.64,3.53s-76.82-12.24-153.63-12.24-76.82,15-153.64,15c-77,0-77,.19-154.06.19-76.82,0-76.82,8.24-153.64,8.24s-76.81-4-153.63-4-76.82,13.49-153.64,13.49c-77,0-77,10.11-154.06,10.11-76.81,0-76.81-3.45-153.63-3.45s-76.82,1.88-153.64,1.88Z"/><path class="cls-3" d="M381,816.73c76.82,0,76.82-5.31,153.64-5.31s76.82,4,153.63,4c77,0,77-4.53,154.06-4.53,76.82,0,76.82-1.66,153.64-1.66s76.82-3.65,153.63-3.65,76.82-5.37,153.64-5.37c77,0,77,1.21,154.06,1.21,76.82,0,76.82-8.38,153.64-8.38s76.81,2.55,153.63,2.55,76.82,5.52,153.64,5.52V821.5c-76.82,0-76.82-6.35-153.64-6.35s-76.82-2.88-153.63-2.88S1534.12,820,1457.3,820c-77,0-77-1.87-154.06-1.87-76.82,0-76.82,4.87-153.64,4.87S1072.79,826.3,996,826.3s-76.82,1.16-153.64,1.16c-77,0-77,3.71-154.06,3.71-76.81,0-76.81-4.46-153.63-4.46s-76.82,5-153.64,5Z"/><path class="cls-4" d="M381,665.11c76.82,0,76.82,5.93,153.64,5.93s76.82,34.19,153.63,34.19c77,0,77-56.69,154.06-56.69C919.15,648.54,919.15,662,996,662s76.82-3.81,153.63-3.81,76.82-21,153.64-21c77,0,77,4.39,154.06,4.39,76.82,0,76.82-15.33,153.64-15.33s76.81,7,153.63,7,76.82,3.09,153.64,3.09v51.44c-76.82,0-76.82-3-153.64-3s-76.82-10.54-153.63-10.54-76.82,16.38-153.64,16.38c-77,0-77-11-154.06-11-76.82,0-76.82,14.36-153.64,14.36s-76.81,2.2-153.63,2.2S919.15,680,842.33,680c-77,0-77,55.85-154.06,55.85-76.81,0-76.81-32.53-153.63-32.53S457.82,697,381,697Z"/><path class="cls-5" d="M381,570.51c76.82,0,76.82,16.28,153.64,16.28s76.82,23.92,153.63,23.92c77,0,77-61.81,154.06-61.81,76.82,0,76.82-2.31,153.64-2.31s76.82-18.85,153.63-18.85,76.82-32.33,153.64-32.33c77,0,77-14.41,154.06-14.41,76.82,0,76.82-35.13,153.64-35.13s76.81-24.75,153.63-24.75S1841.39,410,1918.21,410v100c-76.82,0-76.82-1.31-153.64-1.31s-76.82,8.43-153.63,8.43-76.82,28.37-153.64,28.37c-77,0-77-1.81-154.06-1.81-76.82,0-76.82,33.17-153.64,33.17S1072.79,594.06,996,594.06s-76.82-14.51-153.64-14.51c-77,0-77,62.43-154.06,62.43-76.81,0-76.81-24.69-153.63-24.69S457.82,606.48,381,606.48Z"/><path class="cls-3" d="M381,865.76c76.82,0,76.82-.08,153.64-.08s76.82.13,153.63.13c77,0,77,0,154.06,0,76.82,0,76.82-.17,153.64-.17s76.82.34,153.63.34,76.82-.27,153.64-.27c77,0,77,.27,154.06.27,76.82,0,76.82-.5,153.64-.5s76.81.88,153.63.88,76.82,1.43,153.64,1.43v2.68H381Z"/><path class="cls-6" d="M381,606.48c76.82,0,76.82,10.81,153.64,10.81S611.46,642,688.27,642c77,0,77-62.43,154.06-62.43,76.82,0,76.82,14.51,153.64,14.51s76.82-17.27,153.63-17.27,76.82-33.17,153.64-33.17c77,0,77,1.81,154.06,1.81,76.82,0,76.82-28.37,153.64-28.37s76.81-8.43,153.63-8.43,76.82,1.31,153.64,1.31v50.69c-76.82,0-76.82,11.59-153.64,11.59s-76.82-4.07-153.63-4.07-76.82,25.47-153.64,25.47c-77,0-77-1.1-154.06-1.1-76.82,0-76.82,30.15-153.64,30.15s-76.81,8.67-153.63,8.67-76.82-9-153.64-9c-77,0-77,60.2-154.06,60.2-76.81,0-76.81-31.77-153.63-31.77s-76.82-4.53-153.64-4.53Z"/><path class="cls-7" d="M381,851.65c76.82,0,76.82-.25,153.64-.25S611.46,857,688.27,857c77,0,77-5.34,154.06-5.34,76.82,0,76.82,2.39,153.64,2.39s76.82-.62,153.63-.62,76.82-.63,153.64-.63c77,0,77-.15,154.06-.15,76.82,0,76.82-2.33,153.64-2.33s76.81.55,153.63.55h153.64v16.88c-76.82,0-76.82-1.43-153.64-1.43s-76.82-.88-153.63-.88-76.82.5-153.64.5c-77,0-77-.27-154.06-.27-76.82,0-76.82.27-153.64.27s-76.81-.34-153.63-.34-76.82.17-153.64.17c-77,0-77,0-154.06,0-76.81,0-76.81-.13-153.63-.13s-76.82.08-153.64.08Z"/><path class="cls-8" d="M381,799.45c76.82,0,76.82-3.6,153.64-3.6s76.82,2.31,153.63,2.31c77,0,77-11.46,154.06-11.46,76.82,0,76.82-11.15,153.64-11.15s76.82,5.17,153.63,5.17,76.82-8.32,153.64-8.32c77,0,77-.59,154.06-.59,76.82,0,76.82-15.18,153.64-15.18s76.81,16.23,153.63,16.23,76.82-1.06,153.64-1.06v29.26c-76.82,0-76.82-5.52-153.64-5.52S1687.75,793,1610.94,793s-76.82,8.38-153.64,8.38c-77,0-77-1.21-154.06-1.21-76.82,0-76.82,5.37-153.64,5.37s-76.81,3.65-153.63,3.65-76.82,1.66-153.64,1.66c-77,0-77,4.53-154.06,4.53-76.81,0-76.81-4-153.63-4s-76.82,5.31-153.64,5.31Z"/><path class="cls-7" d="M381,382c76.82,0,76.82,14.85,153.64,14.85s76.82,20.67,153.63,20.67c77,0,77-73.2,154.06-73.2,76.82,0,76.82,18.27,153.64,18.27s76.82-44.95,153.63-44.95,76.82-41,153.64-41c77,0,77-39.62,154.06-39.62,76.82,0,76.82-43.93,153.64-43.93s76.81-45.28,153.63-45.28,76.82-51.89,153.64-51.89V410c-76.82,0-76.82,11.14-153.64,11.14s-76.82,24.75-153.63,24.75S1534.12,481,1457.3,481c-77,0-77,14.41-154.06,14.41-76.82,0-76.82,32.33-153.64,32.33S1072.79,546.59,996,546.59s-76.82,2.31-153.64,2.31c-77,0-77,61.81-154.06,61.81-76.81,0-76.81-23.92-153.63-23.92S457.82,570.51,381,570.51Z"/><path class="cls-1" d="M381,646.28c76.82,0,76.82,4.53,153.64,4.53s76.82,31.77,153.63,31.77c77,0,77-60.2,154.06-60.2,76.82,0,76.82,9,153.64,9s76.82-8.67,153.63-8.67,76.82-30.15,153.64-30.15c77,0,77,1.1,154.06,1.1,76.82,0,76.82-25.47,153.64-25.47s76.81,4.07,153.63,4.07,76.82-11.59,153.64-11.59v75.7c-76.82,0-76.82-3.09-153.64-3.09s-76.82-7-153.63-7-76.82,15.33-153.64,15.33c-77,0-77-4.39-154.06-4.39-76.82,0-76.82,21-153.64,21S1072.79,662,996,662s-76.82-13.45-153.64-13.45c-77,0-77,56.69-154.06,56.69-76.81,0-76.81-34.19-153.63-34.19s-76.82-5.93-153.64-5.93Z"/><path class="cls-9" d="M381,841.44c76.82,0,76.82-.88,153.64-.88s76.82,2.54,153.63,2.54c77,0,77-4.22,154.06-4.22,76.82,0,76.82,1.32,153.64,1.32s76.82.62,153.63.62,76.82-3.27,153.64-3.27c77,0,77,1.16,154.06,1.16,76.82,0,76.82-6.23,153.64-6.23s76.81,4,153.63,4,76.82,0,153.64,0v14.37H1764.57c-76.82,0-76.82-.55-153.63-.55s-76.82,2.33-153.64,2.33c-77,0-77,.15-154.06.15-76.82,0-76.82.63-153.64.63S1072.79,854,996,854s-76.82-2.39-153.64-2.39c-77,0-77,5.34-154.06,5.34-76.81,0-76.81-5.58-153.63-5.58s-76.82.25-153.64.25Z"/><path class="cls-10" d="M381,697c76.82,0,76.82,6.31,153.64,6.31s76.82,32.53,153.63,32.53c77,0,77-55.85,154.06-55.85,76.82,0,76.82,16.17,153.64,16.17s76.82-2.2,153.63-2.2,76.82-14.36,153.64-14.36c77,0,77,11,154.06,11,76.82,0,76.82-16.38,153.64-16.38s76.81,10.54,153.63,10.54,76.82,3,153.64,3v28.7c-76.82,0-76.82,2.06-153.64,2.06S1687.75,704,1610.94,704s-76.82,14.21-153.64,14.21c-77,0-77,1-154.06,1-76.82,0-76.82,8.86-153.64,8.86s-76.81-5.66-153.63-5.66S919.15,725,842.33,725c-77,0-77,28.33-154.06,28.33-76.81,0-76.81-17.92-153.63-17.92S457.82,738,381,738Z"/><path class="cls-11" d="M381,831.69c76.82,0,76.82-5,153.64-5s76.82,4.46,153.63,4.46c77,0,77-3.71,154.06-3.71,76.82,0,76.82-1.16,153.64-1.16S1072.79,823,1149.6,823s76.82-4.87,153.64-4.87c77,0,77,1.87,154.06,1.87,76.82,0,76.82-7.71,153.64-7.71s76.81,2.88,153.63,2.88,76.82,6.35,153.64,6.35v15c-76.82,0-76.82,0-153.64,0s-76.82-4-153.63-4-76.82,6.23-153.64,6.23c-77,0-77-1.16-154.06-1.16-76.82,0-76.82,3.27-153.64,3.27s-76.81-.62-153.63-.62-76.82-1.32-153.64-1.32c-77,0-77,4.22-154.06,4.22-76.81,0-76.81-2.54-153.63-2.54s-76.82.88-153.64.88Z"/><text class="cls-12" transform="translate(511.09 948.73) scale(0.97 1)">20<tspan class="cls-13" x="22.37" y="0">0</tspan><tspan class="cls-14" x="33.84" y="0">7</tspan></text><text class="cls-12" transform="translate(664.32 948.73) scale(0.97 1)">2008</text><text class="cls-12" transform="translate(819.17 948.73) scale(0.97 1)">20<tspan class="cls-15" x="22.37" y="0">0</tspan><tspan x="34.05" y="0">9</tspan></text><text class="cls-12" transform="translate(974.78 948.73) scale(0.97 1)">2<tspan class="cls-16" x="10.5" y="0">0</tspan><tspan x="21.93" y="0">10</tspan></text><text class="cls-12" transform="translate(1132.29 948.73) scale(0.97 1)">2<tspan class="cls-16" x="10.5" y="0">0</tspan><tspan class="cls-17" x="21.93" y="0">1</tspan><tspan x="30.98" y="0">1</tspan></text><text class="cls-12" transform="translate(1284.54 948.73) scale(0.97 1)">2<tspan class="cls-16" x="10.5" y="0">0</tspan><tspan x="21.93" y="0">12</tspan></text><text class="cls-12" transform="translate(1439.85 948.73) scale(0.97 1)">2<tspan class="cls-16" x="10.5" y="0">0</tspan><tspan x="21.93" y="0">13</tspan></text><text class="cls-12" transform="translate(1593.15 948.73) scale(0.97 1)">2<tspan class="cls-16" x="10.5" y="0">0</tspan><tspan x="21.93" y="0">14</tspan></text><text class="cls-12" transform="translate(1748.77 948.73) scale(0.97 1)">2<tspan class="cls-16" x="10.5" y="0">0</tspan><tspan x="21.93" y="0">15</tspan></text><line class="cls-18" x1="377" y1="898.99" x2="1939" y2="898.99"/><ellipse class="cls-19" cx="532.18" cy="898.43" rx="9.8" ry="10.07"/><ellipse class="cls-19" cx="686.72" cy="898.43" rx="9.8" ry="10.07"/><ellipse class="cls-19" cx="841.27" cy="899.25" rx="9.8" ry="10.07"/><ellipse class="cls-19" cx="995.81" cy="899.25" rx="9.8" ry="10.07"/><ellipse class="cls-19" cx="1151.95" cy="898.43" rx="9.8" ry="10.07"/><ellipse class="cls-19" cx="1304.9" cy="899.25" rx="9.8" ry="10.07"/><ellipse class="cls-19" cx="1460.24" cy="899.25" rx="9.8" ry="10.07"/><ellipse class="cls-19" cx="1613.98" cy="899.25" rx="9.8" ry="10.07"/><ellipse class="cls-19" cx="1769.32" cy="899.25" rx="9.8" ry="10.07"/><text class="cls-20" transform="translate(151.11 89.46)">M<tspan class="cls-21" x="13.95" y="0">e</tspan><tspan x="23.4" y="0">xi</tspan><tspan class="cls-22" x="37.46" y="0">c</tspan><tspan x="45.56" y="0">o</tspan></text><text class="cls-23" transform="translate(1013.7 78.2)">4<tspan class="cls-24" x="19.98" y="0">,</tspan><tspan class="cls-25" x="28.3" y="0">6</tspan><tspan class="cls-26" x="48.1" y="0">5</tspan><tspan x="66.49" y="0">9,222 </tspan><tspan class="cls-27" x="157.89" y="0">t</tspan><tspan x="170.71" y="0">onns</tspan></text><text class="cls-28" transform="translate(353.46 870.49) rotate(-90)">p<tspan class="cls-29" x="12.2" y="0">r</tspan><tspan x="19.8" y="0">oduction in </tspan><tspan class="cls-30" x="130.81" y="0">t</tspan><tspan x="138.28" y="0">onns</tspan></text><text class="cls-31" transform="translate(237.65 38.82)"><tspan class="cls-32">I</tspan><tspan x="5.23" y="0">nc</tspan><tspan class="cls-33" x="26.29" y="0">r</tspan><tspan x="32.95" y="0">ease of p</tspan><tspan class="cls-33" x="110.94" y="0">r</tspan><tspan x="117.6" y="0">odu</tspan><tspan class="cls-34" x="152.54" y="0">c</tspan><tspan x="162.22" y="0">tion %</tspan></text><text class="cls-20" transform="translate(121.34 137.92)">Domini<tspan class="cls-22" x="57.04" y="0">c</tspan><tspan x="65.14" y="0">an </tspan><tspan class="cls-26" x="15.75" y="21.6">R</tspan><tspan x="26.41" y="21.6">epublic</tspan></text><text class="cls-20" transform="translate(127.06 210.39)">Indonesia</text><text class="cls-20" transform="translate(170.14 270.85)"><tspan class="cls-35">P</tspan><tspan x="10.1" y="0">eru</tspan></text><text class="cls-20" transform="translate(130.73 331.31)"><tspan class="cls-22">C</tspan><tspan x="9.81" y="0">o</tspan><tspan class="cls-25" x="20.14" y="0">l</tspan><tspan x="25.24" y="0">ombia</tspan></text><text class="cls-20" transform="translate(175.09 391.77)"><tspan class="cls-36">U</tspan><tspan class="cls-25" x="11.43" y="0">S</tspan><tspan x="21.46" y="0">A</tspan></text><text class="cls-20" transform="translate(167.13 452.23)"><tspan class="cls-37">C</tspan><tspan x="9.99" y="0">hi</tspan><tspan class="cls-25" x="25.18" y="0">l</tspan><tspan x="30.28" y="0">e</tspan></text><text class="cls-20" transform="translate(161.01 512.69)">B<tspan class="cls-35" x="10.93" y="0">r</tspan><tspan x="17.44" y="0">azil</tspan></text><text class="cls-20" transform="translate(157.12 573.15)"><tspan class="cls-38">K</tspan><tspan x="10.89" y="0">e</tspan><tspan class="cls-36" x="20.48" y="0">n</tspan><tspan class="cls-21" x="30.6" y="0">y</tspan><tspan x="39.58" y="0">a</tspan></text><text class="cls-20" transform="translate(161.3 633.62)"><tspan class="cls-37">C</tspan><tspan x="9.99" y="0">hina</tspan></text><text class="cls-20" transform="translate(125.03 694.08)"><tspan class="cls-39">V</tspan><tspan x="9.65" y="0">en</tspan><tspan class="cls-25" x="29.47" y="0">e</tspan><tspan class="cls-40" x="38.97" y="0">z</tspan><tspan x="46.87" y="0">ue</tspan><tspan class="cls-25" x="66.58" y="0">l</tspan><tspan x="71.68" y="0">a</tspan></text><text class="cls-20" transform="translate(159.46 754.54)">South <tspan x="0.41" y="21.6">Afri</tspan><tspan class="cls-22" x="29.14" y="21.6">c</tspan><tspan x="37.24" y="21.6">a</tspan></text><text class="cls-20" transform="translate(161.68 815)">Is<tspan class="cls-35" x="13.73" y="0">r</tspan><tspan x="20.25" y="0">ael</tspan></text><text class="cls-20" transform="translate(141.43 875.46)"><tspan class="cls-22">E</tspan><tspan class="cls-37" x="8.95" y="0">c</tspan><tspan x="17.23" y="0">uador</tspan></text><text class="cls-41" transform="translate(219.73 89.46)"><tspan class="cls-39">6</tspan><tspan class="cls-42" x="9.54" y="0">7</tspan><tspan x="17.96" y="0">%</tspan></text><text class="cls-41" transform="translate(219.73 137.92)">1<tspan class="cls-43" x="8.17" y="0">7</tspan><tspan x="16.11" y="0">8%</tspan></text><text class="cls-41" transform="translate(219.73 210.39)"><tspan class="cls-37">2</tspan><tspan class="cls-42" x="8.95" y="0">7</tspan><tspan x="17.37" y="0">%</tspan></text><text class="cls-41" transform="translate(219.73 270.85)">3<tspan class="cls-44" x="9.18" y="0">0</tspan><tspan x="19.35" y="0">2%</tspan></text><text class="cls-41" transform="translate(219.73 331.31)"><tspan class="cls-45">6</tspan><tspan x="9" y="0">1%</tspan></text><text class="cls-41" transform="translate(219.73 391.77)"><tspan class="cls-46">-</tspan><tspan x="6.08" y="0">30%</tspan></text><text class="cls-41" transform="translate(219.73 452.23)"><tspan class="cls-46">-</tspan><tspan x="6.08" y="0">33%</tspan></text><text class="cls-41" transform="translate(219.73 512.69)">19%</text><text class="cls-41" transform="translate(219.73 573.15)"><tspan class="cls-26">6</tspan><tspan x="9.72" y="0">9%</tspan></text><text class="cls-41" transform="translate(219.73 633.62)"><tspan class="cls-25">3</tspan><tspan class="cls-42" x="9.09" y="0">7</tspan><tspan x="17.51" y="0">%</tspan></text><text class="cls-41" transform="translate(219.73 694.08)"><tspan class="cls-46">-</tspan><tspan x="6.08" y="0">30%</tspan></text><text class="cls-41" transform="translate(219.73 754.54)"><tspan class="cls-47">4</tspan><tspan x="8.71" y="0">1%</tspan></text><text class="cls-41" transform="translate(219.73 815)">20%</text><text class="cls-41" transform="translate(219.73 875.46)"><tspan class="cls-37">-</tspan><tspan class="cls-22" x="6.98" y="0">4</tspan><tspan x="16.61" y="0">2%</tspan></text><line class="cls-48" x1="1918" y1="95.91" x2="1018.5" y2="95.91"/><text class="cls-49" transform="translate(808.47 998.01)">P<tspan class="cls-37" x="10.71" y="0">r</tspan><tspan x="17.68" y="0">oduction g</tspan><tspan class="cls-37" x="104.94" y="0">ro</tspan><tspan x="122.24" y="0">wth bet</tspan><tspan class="cls-37" x="184.75" y="0">w</tspan><tspan class="cls-50" x="197.91" y="0">een 2006 and 2</tspan><tspan class="cls-37" x="321.75" y="0">0</tspan><tspan x="331.99" y="0">16 </tspan><tspan class="cls-37" x="354.6" y="0">f</tspan><tspan x="360.73" y="0">or 15 main p</tspan><tspan class="cls-37" x="460.6" y="0">r</tspan><tspan x="467.56" y="0">odu</tspan><tspan class="cls-51" x="499.19" y="0">c</tspan><tspan x="507.61" y="0">e</tspan><tspan class="cls-52" x="517.57" y="0">r</tspan><tspan x="524.53" y="0">s - </tspan><tspan class="cls-53" x="549.25" y="0">F</tspan><tspan class="cls-35" x="557.13" y="0">A</tspan><tspan class="cls-54" x="567.14" y="0">O</tspan><tspan class="cls-52" x="579.49" y="0">S</tspan><tspan class="cls-46" x="589.47" y="0">T</tspan><tspan class="cls-55" x="598.01" y="0">A</tspan><tspan x="607.66" y="0">T</tspan></text><rect class="cls-56" width="1920" height="1040"/></g></g></svg>