<svg xmlns="http://www.w3.org/2000/svg" viewBox="0 0 1922 946.87"><defs><style>.cls-1{isolation:isolate;font-size:18px;fill:#e3f1c9;font-family:FiraSans-SemiBold, Fira Sans;}.cls-1,.cls-36,.cls-42{font-weight:700;}.cls-2{letter-spacing:-0.02em;}.cls-3{letter-spacing:-0.01em;}.cls-4{letter-spacing:-0.01em;}.cls-5{letter-spacing:-0.01em;}.cls-6{letter-spacing:0em;}.cls-7{letter-spacing:0em;}.cls-8{letter-spacing:-0.05em;}.cls-9{letter-spacing:-0.03em;}.cls-10{letter-spacing:0em;}.cls-11{letter-spacing:-0.06em;}.cls-12{letter-spacing:-0.05em;}.cls-13{font-size:24px;font-family:FiraSans-Medium, Fira Sans;}.cls-13,.cls-42{fill:#fff;}.cls-14{letter-spacing:-0.01em;}.cls-15{letter-spacing:-0.02em;}.cls-16{letter-spacing:0em;}.cls-17{letter-spacing:1.11em;}.cls-18{letter-spacing:1.25em;}.cls-19{letter-spacing:0em;}.cls-20{letter-spacing:-0.01em;}.cls-21{letter-spacing:-0.01em;}.cls-22{letter-spacing:-0.03em;}.cls-23{letter-spacing:0em;}.cls-24{letter-spacing:-0.03em;}.cls-25{letter-spacing:-0.02em;}.cls-26{letter-spacing:-0.01em;}.cls-27{letter-spacing:-0.02em;}.cls-28{letter-spacing:-0.02em;}.cls-29{letter-spacing:-0.01em;}.cls-30{letter-spacing:-0.01em;}.cls-31{letter-spacing:-0.03em;}.cls-32{letter-spacing:-0.02em;}.cls-33,.cls-36{fill:#c8dc94;}.cls-34{fill:#85a237;}.cls-35,.cls-47{fill:none;}.cls-35{stroke:#c8dc94;stroke-miterlimit:10;stroke-width:3px;}.cls-36{font-size:36px;}.cls-36,.cls-42{font-family:FiraSans-BoldItalic, Fira Sans;font-style:italic;}.cls-37{letter-spacing:-0.02em;}.cls-38{letter-spacing:-0.03em;}.cls-39{letter-spacing:-0.01em;}.cls-40{letter-spacing:-0.05em;}.cls-41{letter-spacing:-0.01em;}.cls-42{font-size:21px;}.cls-43{letter-spacing:-0.02em;}.cls-44{letter-spacing:-0.03em;}.cls-45{letter-spacing:-0.01em;}.cls-46{letter-spacing:-0.01em;}</style></defs><title>prod_gr</title><g id="Livello_2" data-name="Livello 2"><g id="Livello_1-2" data-name="Livello 1"><text class="cls-1" transform="translate(255.47 822.09)"><tspan class="cls-2">P</tspan><tspan x="10.35" y="0">e</tspan><tspan class="cls-3" x="20.3" y="0">rc</tspan><tspan x="35.69" y="0">enta</tspan><tspan class="cls-4" x="72.75" y="0">g</tspan><tspan x="82.28" y="0">e on the </tspan><tspan class="cls-3" x="153.56" y="0">w</tspan><tspan x="166.71" y="0">or</tspan><tspan class="cls-5" x="184.37" y="0">l</tspan><tspan x="189.52" y="0">d p</tspan><tspan class="cls-3" x="215.42" y="0">r</tspan><tspan class="cls-6" x="222.39" y="0">oduction </tspan><tspan class="cls-5" x="299.86" y="0">f</tspan><tspan class="cls-6" x="306" y="0">or the 19 big</tspan><tspan class="cls-4" x="407.78" y="0">g</tspan><tspan class="cls-7" x="417.31" y="0">est p</tspan><tspan class="cls-3" x="457.84" y="0">r</tspan><tspan x="464.81" y="0">odu</tspan><tspan class="cls-3" x="496.43" y="0">c</tspan><tspan x="504.86" y="0">e</tspan><tspan class="cls-3" x="514.81" y="0">r</tspan><tspan class="cls-7" x="521.78" y="0">s - </tspan><tspan class="cls-8" x="546.49" y="0">F</tspan><tspan class="cls-9" x="554.37" y="0">A</tspan><tspan class="cls-10" x="564.38" y="0">O</tspan><tspan class="cls-3" x="576.73" y="0">S</tspan><tspan class="cls-11" x="586.72" y="0">T</tspan><tspan class="cls-12" x="595.25" y="0">A</tspan><tspan x="604.9" y="0">T</tspan></text><text class="cls-13" transform="translate(252 196.99)">M<tspan class="cls-14" x="18.77" y="0">e</tspan><tspan x="31.68" y="0">xi</tspan><tspan class="cls-15" x="50.45" y="0">c</tspan><tspan class="cls-16" x="61.44" y="0">o</tspan><tspan class="cls-17" x="75.46" y="0">	</tspan><tspan class="cls-18" x="108" y="0" xml:space="preserve">						</tspan><tspan class="cls-19" x="324" y="0">ciao&amp;</tspan><tspan x="0" y="32">Domini</tspan><tspan class="cls-20" x="77.45" y="32">c</tspan><tspan x="88.68" y="32">an </tspan><tspan class="cls-21" x="121.73" y="32">R</tspan><tspan x="136.03" y="32">epublic</tspan><tspan class="cls-22" x="0" y="64">P</tspan><tspan x="13.46" y="64">eru</tspan><tspan class="cls-15" x="0" y="96">C</tspan><tspan class="cls-16" x="13.15" y="96">o</tspan><tspan class="cls-23" x="27.17" y="96">l</tspan><tspan x="34.13" y="96">ombia</tspan><tspan x="0" y="128">Indonesia</tspan><tspan x="0" y="160">B</tspan><tspan class="cls-24" x="14.71" y="160">r</tspan><tspan x="23.33" y="160">azil</tspan><tspan class="cls-25" x="0" y="192">K</tspan><tspan x="14.33" y="192">e</tspan><tspan class="cls-26" x="27.5" y="192">n</tspan><tspan class="cls-27" x="41.3" y="192">y</tspan><tspan x="52.99" y="192">a</tspan><tspan class="cls-26" x="0" y="224">U</tspan><tspan class="cls-23" x="15.6" y="224">S</tspan><tspan x="28.92" y="224">A</tspan><tspan class="cls-20" x="0" y="256">C</tspan><tspan x="13.39" y="256">hi</tspan><tspan class="cls-23" x="34.1" y="256">l</tspan><tspan x="41.06" y="256">e</tspan><tspan class="cls-20" x="0" y="288">C</tspan><tspan x="13.39" y="288">hina</tspan><tspan x="0" y="320">Is</tspan><tspan class="cls-24" x="18.48" y="320">r</tspan><tspan x="27.1" y="320">ael</tspan><tspan x="0" y="352">Haiti</tspan><tspan class="cls-28" x="0" y="384">V</tspan><tspan x="12.94" y="384">en</tspan><tspan class="cls-29" x="40.06" y="384">e</tspan><tspan class="cls-30" x="53.04" y="384">z</tspan><tspan x="63.58" y="384">ue</tspan><tspan class="cls-23" x="90.6" y="384">l</tspan><tspan x="97.56" y="384">a</tspan><tspan x="0" y="416">S</tspan><tspan class="cls-20" x="13.44" y="416">p</tspan><tspan x="27.5" y="416">ain</tspan><tspan x="0" y="448">South Afri</tspan><tspan class="cls-20" x="108.79" y="448">c</tspan><tspan x="120.02" y="448">a</tspan><tspan class="cls-20" x="0" y="480">C</tspan><tspan x="13.39" y="480">ame</tspan><tspan class="cls-31" x="60.07" y="480">r</tspan><tspan x="68.81" y="480">oon</tspan><tspan x="0" y="512">Aust</tspan><tspan class="cls-24" x="48.26" y="512">r</tspan><tspan class="cls-20" x="56.88" y="512">a</tspan><tspan x="69.74" y="512">lia</tspan><tspan x="0" y="544">DR of the </tspan><tspan class="cls-32" x="106.68" y="544">C</tspan><tspan class="cls-19" x="119.83" y="544">on</tspan><tspan class="cls-27" x="147.79" y="544">g</tspan><tspan x="160.22" y="544">o</tspan><tspan class="cls-25" x="0" y="576">E</tspan><tspan x="12.34" y="576">thiopia</tspan></text><rect class="cls-33" x="1067.63" y="6.62" width="498.38" height="498.38" rx="249.19" ry="249.19" transform="translate(566.57 -856.2) rotate(45)"/><rect class="cls-34" x="1184.5" y="255.5" width="250.63" height="250.63" rx="125.31" ry="125.31" transform="translate(652.91 -814.64) rotate(45)"/><polyline class="cls-35" points="1577 538 1629 538 1629 40 1577 40"/><polyline class="cls-35" points="1191 583 1191 622 1441 622 1441 583"/><text class="cls-36" transform="translate(254 99.32)"><tspan class="cls-37">C</tspan><tspan x="19.62" y="0">OUNT</tspan><tspan class="cls-38" x="109.83" y="0">R</tspan><tspan x="130.53" y="0">Y</tspan></text><text class="cls-36" transform="translate(563 99.32)">PE<tspan class="cls-39" x="39.89" y="0">R</tspan><tspan x="61.27" y="0">CEN</tspan><tspan class="cls-40" x="123.77" y="0">T</tspan><tspan class="cls-41" x="141.05" y="0">A</tspan><tspan x="161.6" y="0">GE</tspan></text><text class="cls-42" transform="translate(1277.18 670.95)"><tspan class="cls-43">C</tspan><tspan x="11.44" y="0">OUNT</tspan><tspan class="cls-44" x="64.07" y="0">R</tspan><tspan x="76.15" y="0">Y</tspan><tspan x="-17.31" y="25.2">P</tspan><tspan class="cls-45" x="-4.9" y="25.2">R</tspan><tspan x="7.57" y="25.2">ODU</tspan><tspan class="cls-46" x="48.81" y="25.2">C</tspan><tspan x="60.47" y="25.2">TION</tspan></text><text class="cls-42" transform="translate(1665 216.95)"><tspan class="cls-24">TO</tspan><tspan class="cls-12" x="23.96" y="0">T</tspan><tspan x="34.04" y="0">AL</tspan><tspan x="0" y="25.2">P</tspan><tspan class="cls-45" x="12.41" y="25.2">R</tspan><tspan x="24.89" y="25.2">ODU</tspan><tspan class="cls-46" x="66.13" y="25.2">C</tspan><tspan x="77.78" y="25.2">TION</tspan></text><rect class="cls-47" width="1922" height="922"/></g></g></svg>