<svg xmlns="http://www.w3.org/2000/svg" viewBox="0 0 1919 719"><defs><style>.cls-1,.cls-13,.cls-2,.cls-20{fill:#c8e593;}.cls-13,.cls-2,.cls-20{opacity:0.6;font-size:24px;}.cls-13,.cls-2{font-family:FiraSans-Regular, Fira Sans;}.cls-3{letter-spacing:-0.01em;}.cls-4{letter-spacing:0em;}.cls-5{letter-spacing:-0.01em;}.cls-6{letter-spacing:0em;}.cls-7{letter-spacing:-0.02em;}.cls-8{letter-spacing:-0.01em;}.cls-9{letter-spacing:-0.01em;}.cls-10{letter-spacing:0em;}.cls-11{letter-spacing:-0.03em;}.cls-12{letter-spacing:-0.03em;}.cls-13,.cls-19{letter-spacing:-0.01em;}.cls-14{letter-spacing:0em;}.cls-15{letter-spacing:-0.02em;}.cls-16{letter-spacing:-0.01em;}.cls-17{letter-spacing:-0.03em;}.cls-18{letter-spacing:-0.03em;}.cls-20,.cls-23,.cls-28,.cls-36,.cls-39,.cls-44,.cls-53{font-family:FiraSans-Bold, Fira Sans;font-weight:700;}.cls-21{letter-spacing:-0.01em;}.cls-22{letter-spacing:-0.02em;}.cls-23{font-size:36px;}.cls-23,.cls-28,.cls-36,.cls-39,.cls-44,.cls-53{fill:#333;}.cls-24{letter-spacing:-0.02em;}.cls-25{letter-spacing:0em;}.cls-26{letter-spacing:0.02em;}.cls-27{letter-spacing:-0.02em;}.cls-28{font-size:21px;}.cls-29{letter-spacing:-0.02em;}.cls-30{letter-spacing:0.02em;}.cls-31{letter-spacing:0em;}.cls-32{letter-spacing:-0.02em;}.cls-33{letter-spacing:0em;}.cls-34{letter-spacing:-0.02em;}.cls-35{letter-spacing:0em;}.cls-36{font-size:18px;}.cls-37{letter-spacing:0em;}.cls-38{letter-spacing:-0.01em;}.cls-39{font-size:15px;}.cls-40{letter-spacing:-0.01em;}.cls-41{letter-spacing:-0.02em;}.cls-42{letter-spacing:-0.02em;}.cls-43{letter-spacing:0em;}.cls-44{font-size:14px;}.cls-45{letter-spacing:-0.02em;}.cls-46{letter-spacing:-0.02em;}.cls-47{letter-spacing:-0.02em;}.cls-48{letter-spacing:-0.02em;}.cls-49{letter-spacing:-0.02em;}.cls-50{letter-spacing:-0.02em;}.cls-51{letter-spacing:-0.01em;}.cls-52{letter-spacing:-0.01em;}.cls-53{font-size:13px;}.cls-54{letter-spacing:-0.02em;}.cls-55{letter-spacing:-0.01em;}.cls-56{letter-spacing:-0.01em;}.cls-57{letter-spacing:-0.02em;}.cls-58{letter-spacing:0em;}.cls-59{fill:none;}</style></defs><title>prod_world_1</title><g id="Livello_2" data-name="Livello 2"><g id="Livello_1-2" data-name="Livello 1"><text></text><circle class="cls-1" cx="432.53" cy="260.76" r="139"/><circle class="cls-1" cx="655.63" cy="249.77" r="78.51"/><text class="cls-2" transform="translate(647.52 121.37)">Domini<tspan class="cls-3" x="77.64" y="0">c</tspan><tspan class="cls-4" x="88.87" y="0">an </tspan><tspan class="cls-5"><tspan x="0" y="28.8">R</tspan><tspan class="cls-6" x="14.16" y="28.8">epublic</tspan></tspan></text><circle class="cls-1" cx="586.21" cy="342.41" r="30.91"/><circle class="cls-1" cx="1624.95" cy="481.46" r="26.32"/><circle class="cls-1" cx="1080.34" cy="358.24" r="26.75"/><circle class="cls-1" cx="489.25" cy="669.92" r="37.52"/><circle class="cls-1" cx="1520.26" cy="285.78" r="35.5"/><circle class="cls-1" cx="1098.85" cy="424.63" r="25.9"/><circle class="cls-1" cx="526.77" cy="589.11" r="44.76"/><circle class="cls-1" cx="1568.48" cy="411.17" r="55.91"/><circle class="cls-1" cx="428.98" cy="476.13" r="68.32"/><circle class="cls-1" cx="1139.92" cy="242.75" r="32.25"/><circle class="cls-1" cx="1123.49" cy="495.25" r="29.77"/><circle class="cls-1" cx="1041.85" cy="214.31" r="30.04"/><circle class="cls-1" cx="441.78" cy="66.84" r="42.06"/><circle class="cls-1" cx="1168.93" cy="394.65" r="42.48"/><circle class="cls-1" cx="1204.08" cy="328.28" r="25.81"/><circle class="cls-1" cx="647.52" cy="424.63" r="30.41"/><text class="cls-2" transform="translate(694.28 431.32)"><tspan class="cls-7">V</tspan><tspan x="12.74" y="0">en</tspan><tspan class="cls-8" x="39.89" y="0">e</tspan><tspan class="cls-9" x="52.8" y="0">z</tspan><tspan x="63.05" y="0">ue</tspan><tspan class="cls-10" x="90.1" y="0">l</tspan><tspan x="97.01" y="0">a</tspan></text><text class="cls-2" transform="translate(617.11 373.32)">Haiti</text><text class="cls-2" transform="translate(1611.94 544.35)">Aust<tspan class="cls-11" x="47.59" y="0">r</tspan><tspan class="cls-3" x="56.02" y="0">a</tspan><tspan x="68.83" y="0">lia</tspan></text><text class="cls-2" transform="translate(929.44 355.26)"><tspan class="cls-9">C</tspan><tspan class="cls-6" x="13.2" y="0">ame</tspan><tspan class="cls-12" x="59.9" y="0">r</tspan><tspan x="68.45" y="0">oon</tspan></text><text class="cls-2" transform="translate(543.58 676)"><tspan class="cls-9">C</tspan><tspan x="13.2" y="0">hi</tspan><tspan class="cls-10" x="34.03" y="0">l</tspan><tspan x="40.94" y="0">e</tspan></text><text class="cls-13" transform="translate(1568.48 290.65)">C<tspan class="cls-14" x="13.2" y="0">hina</tspan></text><circle class="cls-1" cx="555.3" cy="431.32" r="56.32"/><text class="cls-2" transform="translate(603.38 498.78)"><tspan class="cls-15">C</tspan><tspan x="12.96" y="0">o</tspan><tspan class="cls-10" x="26.98" y="0">l</tspan><tspan class="cls-6" x="33.89" y="0">ombia</tspan></text><text class="cls-2" transform="translate(1012.04 431.32)">D<tspan class="cls-16" x="15.46" y="0">R</tspan><tspan x="29.76" y="0">C</tspan></text><text class="cls-2" transform="translate(586.21 598.23)">B<tspan class="cls-17" x="14.59" y="0">r</tspan><tspan x="23.02" y="0">azil</tspan></text><text class="cls-2" transform="translate(1624.39 373.32)">Indonesia</text><text class="cls-2" transform="translate(293.72 499.84)"><tspan class="cls-18">P</tspan><tspan x="13.22" y="0">eru</tspan></text><text class="cls-2" transform="translate(1175.63 215.95)">Is<tspan class="cls-17" x="18.29" y="0">r</tspan><tspan x="26.71" y="0">ael</tspan></text><text class="cls-2" transform="translate(1168.93 499.51)">South Afri<tspan class="cls-19" x="107.97" y="0">c</tspan><tspan x="119.21" y="0">a</tspan></text><text class="cls-2" transform="translate(1063.69 179.03)">S<tspan class="cls-3" x="13.08" y="0">p</tspan><tspan x="27.1" y="0">ain</tspan></text><text class="cls-2" transform="translate(462.96 24.77)"><tspan class="cls-8">U</tspan><tspan class="cls-10" x="15.72" y="0">S</tspan><tspan x="28.68" y="0">A</tspan></text><text class="cls-20" transform="translate(225.26 170.19)">M<tspan class="cls-21" x="18.86" y="0">e</tspan><tspan x="31.8" y="0">xi</tspan><tspan class="cls-22" x="50.86" y="0">c</tspan><tspan x="61.87" y="0">o</tspan></text><text class="cls-23" transform="translate(316.26 281.19)">1,8<tspan class="cls-24" x="46.26" y="0">8</tspan><tspan class="cls-25" x="66.6" y="0">9</tspan><tspan class="cls-26" x="86.76" y="0">,</tspan><tspan class="cls-25" x="95.97" y="0">354 </tspan><tspan class="cls-27" x="162.86" y="0">t</tspan><tspan x="176.11" y="0">ons</tspan></text><text class="cls-28" transform="translate(597.26 262.19)">6<tspan class="cls-29" x="11.84" y="0">0</tspan><tspan x="23.67" y="0">1</tspan><tspan class="cls-30" x="33.41" y="0">,</tspan><tspan class="cls-31" x="38.79" y="0">3</tspan><tspan class="cls-32" x="49.66" y="0">4</tspan><tspan class="cls-33" x="61.11" y="0">9 </tspan><tspan class="cls-34" x="77.85" y="0">t</tspan><tspan class="cls-35" x="85.57" y="0">ons</tspan></text><text class="cls-36" transform="translate(379.26 486.19)"><tspan class="cls-3">4</tspan><tspan class="cls-37" x="9.99" y="0">5</tspan><tspan x="19.55" y="0">5</tspan><tspan class="cls-26" x="29.2" y="0">,</tspan><tspan class="cls-38" x="33.8" y="0">3</tspan><tspan class="cls-3" x="42.97" y="0">9</tspan><tspan x="52.87" y="0">4 </tspan><tspan class="cls-27" x="67.3" y="0">t</tspan><tspan x="73.93" y="0">ons</tspan></text><text class="cls-39" transform="translate(515.26 439.19)">3<tspan class="cls-40" x="7.8" y="0">0</tspan><tspan x="16.42" y="0">9</tspan><tspan class="cls-29" x="24.82" y="0">,</tspan><tspan class="cls-41" x="28.09" y="0">4</tspan><tspan class="cls-29" x="36.33" y="0">3</tspan><tspan x="43.8" y="0">1 </tspan><tspan class="cls-42" x="54.31" y="0">t</tspan><tspan class="cls-43" x="59.83" y="0">ons</tspan></text><text class="cls-44" transform="translate(488.26 595.19)">195<tspan class="cls-45" x="21.84" y="0">,</tspan><tspan class="cls-46" x="24.89" y="0">4</tspan><tspan class="cls-47" x="32.52" y="0">9</tspan><tspan x="40.07" y="0">2 </tspan><tspan class="cls-48" x="50.62" y="0">t</tspan><tspan x="55.78" y="0">ons</tspan></text><text class="cls-44" transform="translate(1526.21 419.69)">304<tspan class="cls-29" x="23.38" y="0">,</tspan><tspan class="cls-49" x="26.43" y="0">9</tspan><tspan x="33.99" y="0">38 </tspan><tspan class="cls-50" x="52.72" y="0">t</tspan><tspan x="57.88" y="0">ons</tspan></text><text class="cls-2" transform="translate(1229.89 394.65)"><tspan class="cls-51">K</tspan><tspan x="13.8" y="0">e</tspan><tspan class="cls-52" x="26.88" y="0">n</tspan><tspan class="cls-24" x="40.78" y="0">y</tspan><tspan x="52.2" y="0">a</tspan></text><text class="cls-2" transform="translate(1245.64 331.49)"><tspan class="cls-51">E</tspan><tspan x="12.5" y="0">thiopia</tspan></text><text class="cls-53" transform="translate(1131.76 400.19)">1<tspan class="cls-54" x="6.03" y="0">7</tspan><tspan x="11.88" y="0">6</tspan><tspan class="cls-55" x="19.21" y="0">,</tspan><tspan x="22.15" y="0">0</tspan><tspan class="cls-56" x="29.76" y="0">4</tspan><tspan x="36.97" y="0">5 </tspan><tspan class="cls-57" x="47.02" y="0">t</tspan><tspan class="cls-58" x="51.8" y="0">ons</tspan></text><rect class="cls-59" width="1919" height="719"/></g></g></svg>