<svg xmlns="http://www.w3.org/2000/svg" viewBox="0 0 1730.81 926.38"><defs><style>.cls-1{font-size:60px;}.cls-1,.cls-2{fill:#f2f2f2;font-family:FiraSans-Bold, Fira Sans;}.cls-1,.cls-11,.cls-12,.cls-2{font-weight:700;}.cls-2,.cls-5{font-size:36px;}.cls-3{letter-spacing:-0.05em;}.cls-4{letter-spacing:-0.03em;}.cls-6{letter-spacing:-0.04em;}.cls-7{letter-spacing:-0.07em;}.cls-11,.cls-19,.cls-8{fill:#93833f;}.cls-8,.cls-9{opacity:0.8;}.cls-12,.cls-9{fill:#329690;}.cls-10{fill:none;stroke:#f2f2f2;stroke-miterlimit:10;stroke-width:2px;stroke-dasharray:6;}.cls-11,.cls-12{font-size:30px;font-family:FiraSans-SemiBoldItalic, Fira Sans;font-style:italic;}.cls-13{letter-spacing:-0.01em;}.cls-14{letter-spacing:-0.02em;}.cls-15{letter-spacing:-0.02em;}.cls-16{letter-spacing:-0.05em;}.cls-17{fill:#d6c570;}.cls-18{fill:#efeead;}.cls-20{fill:#edf1c6;}</style></defs><title>Risorsa 2</title><g id="Livello_2" data-name="Livello 2"><g id="Livello_1-2" data-name="Livello 1"><text class="cls-1" transform="translate(0.47 589.8)">1.6 m</text><text class="cls-1" transform="translate(141.47 569.82) scale(0.58)">2</text><text class="cls-2" transform="translate(0.47 633)"><tspan class="cls-3">A</tspan><tspan x="19.62" y="0">VER</tspan><tspan class="cls-4" x="81.29" y="0">A</tspan><tspan x="101.45" y="0">GE</tspan></text><text class="cls-1" transform="translate(0.47 744.8)">1.6 m<tspan class="cls-5"><tspan class="cls-6" x="0" y="43.2">T</tspan><tspan x="18.14" y="43.2">OILET </tspan><tspan class="cls-7" x="118.98" y="43.2">P</tspan><tspan x="138.06" y="43.2">APER</tspan></tspan></text><path class="cls-8" d="M790.69,370.59a71,71,0,0,1,67-70.88V108.6A63.22,63.22,0,0,0,814,127.74h0c-16.61,17-18.68,41.08-25.82,69.69-7.07,28.35-12.41,55.82-38.1,107.82-5.66,11.47-11.24,22.77-14.26,34.89h0c-10.72,43.06.4,90.62,33.38,124.31h0a125.71,125.71,0,0,0,88.45,38.12v-61.1A71,71,0,0,1,790.69,370.59Z"/><path class="cls-9" d="M988.41,340.14h0c-3-12.12-8.6-23.42-14.26-34.89-25.69-52-31-79.47-38.1-107.82-7.14-28.61-9.21-52.72-25.82-69.69h0a63.22,63.22,0,0,0-42.54-19.11V299.88a71,71,0,0,1,0,141.42v61.24A125.69,125.69,0,0,0,955,464.45h0C988,430.76,999.13,383.2,988.41,340.14Z"/><line class="cls-10" x1="951.69" y1="502.59" x2="1721.69" y2="502.59"/><line class="cls-10" x1="1.69" y1="504.59" x2="786.69" y2="504.59"/><text class="cls-1" transform="translate(1597.21 289.24)">70 lt<tspan class="cls-5"><tspan class="cls-3" x="-25.22" y="43.2">A</tspan><tspan x="-5.6" y="43.2">VER</tspan><tspan class="cls-4" x="56.06" y="43.2">A</tspan><tspan x="76.22" y="43.2">GE</tspan></tspan></text><text class="cls-11" transform="translate(804.65 25.38)">Soil</text><text class="cls-12" transform="translate(868.69 25.38)"><tspan class="cls-13">W</tspan><tspan x="24.69" y="0">a</tspan><tspan class="cls-14" x="41.82" y="0">t</tspan><tspan x="52.35" y="0">er</tspan></text><text class="cls-1" transform="translate(1653.23 427.24)">35 <tspan class="cls-5"><tspan class="cls-15" x="-198.21" y="43.2">W</tspan><tspan class="cls-16" x="-168.44" y="43.2">A</tspan><tspan x="-149" y="43.2">TER B</tspan><tspan class="cls-15" x="-57.67" y="43.2">O</tspan><tspan x="-33.52" y="43.2">TTLES</tspan></tspan></text><path class="cls-9" d="M1146.59,890c-2.56-2-2.58-3.34.15-5.19-.65-1-1.71-1.87-1.8-2.87s.84-2,1.37-3c-1.92-1.82-2-2.46-.36-4.78-1.66-.09-1.81-1-1.68-2.42.75-8.57,5.36-14,13.33-16.83.26-.09.53-.17.78-.28a1.57,1.57,0,0,0,.3-.2c-2-2.44-1.1-5.25-.87-7.91,0-.53,1.42-1.32,2.21-1.37a75.16,75.16,0,0,1,8.88,0c.83.05,2.21.91,2.29,1.53.33,2.6,1,5.33-.93,7.81a19.45,19.45,0,0,1,10.94,7,17.38,17.38,0,0,1,3.66,11.14c0,.55-.74,1.11-1.23,1.8,1.29,2.16,1.21,2.7-.9,4.69,2.46,2.33,2.38,3.34-.42,5.46,3,2.37,2.94,3.46-.29,5.85,2.15,1.53,2.52,3.72,2.49,6.18-.08,7.72,0,15.43,0,23.15,0,4.19-1.9,6.47-6,6.52q-13.93.19-27.89,0c-3.84,0-5.9-2.13-5.95-6-.12-8.33-.13-16.67.06-25C1144.74,893.59,1145.89,891.88,1146.59,890Z"/><path class="cls-9" d="M1096.82,890c-2.55-2-2.57-3.34.15-5.19-.65-1-1.7-1.87-1.8-2.87s.85-2,1.37-3c-1.92-1.82-2-2.46-.36-4.78-1.65-.09-1.8-1-1.68-2.42.75-8.57,5.36-14,13.34-16.83.26-.09.52-.17.77-.28a1.65,1.65,0,0,0,.31-.2c-2-2.44-1.11-5.25-.88-7.91,0-.53,1.42-1.32,2.22-1.37a75,75,0,0,1,8.87,0c.83.05,2.21.91,2.29,1.53.34,2.6,1,5.33-.93,7.81a19.42,19.42,0,0,1,10.94,7,17.38,17.38,0,0,1,3.66,11.14c0,.55-.74,1.11-1.23,1.8,1.29,2.16,1.22,2.7-.9,4.69,2.46,2.33,2.39,3.34-.41,5.46,3,2.37,2.93,3.46-.29,5.85,2.15,1.53,2.51,3.72,2.49,6.18-.09,7.72,0,15.43,0,23.15,0,4.19-1.9,6.47-6,6.52q-14,.19-27.9,0c-3.84,0-5.89-2.13-6-6-.12-8.33-.13-16.67.07-25C1095,893.59,1096.12,891.88,1096.82,890Z"/><path class="cls-9" d="M1047.05,890c-2.55-2-2.57-3.34.15-5.19-.64-1-1.7-1.87-1.8-2.87s.85-2,1.38-3c-1.93-1.82-2-2.46-.37-4.78-1.65-.09-1.8-1-1.68-2.42.75-8.57,5.37-14,13.34-16.83.26-.09.52-.17.78-.28a2,2,0,0,0,.3-.2c-2-2.44-1.11-5.25-.88-7.91,0-.53,1.42-1.32,2.22-1.37a75.17,75.17,0,0,1,8.88,0c.82.05,2.2.91,2.28,1.53.34,2.6,1,5.33-.93,7.81a19.48,19.48,0,0,1,11,7,17.37,17.37,0,0,1,3.65,11.14c0,.55-.73,1.11-1.23,1.8,1.29,2.16,1.22,2.7-.9,4.69,2.47,2.33,2.39,3.34-.41,5.46,3,2.37,2.93,3.46-.29,5.85,2.15,1.53,2.51,3.72,2.49,6.18-.08,7.72,0,15.43,0,23.15,0,4.19-1.9,6.47-6,6.52q-14,.19-27.9,0c-3.84,0-5.89-2.13-5.94-6-.12-8.33-.14-16.67.06-25C1045.21,893.59,1046.36,891.88,1047.05,890Z"/><path class="cls-9" d="M997.28,890c-2.55-2-2.57-3.34.16-5.19-.65-1-1.71-1.87-1.81-2.87s.85-2,1.38-3c-1.92-1.82-2-2.46-.36-4.78-1.66-.09-1.81-1-1.68-2.42.74-8.57,5.36-14,13.33-16.83.26-.09.53-.17.78-.28a1.57,1.57,0,0,0,.3-.2c-2-2.44-1.1-5.25-.87-7.91,0-.53,1.42-1.32,2.21-1.37a75.16,75.16,0,0,1,8.88,0c.83.05,2.2.91,2.29,1.53.33,2.6,1,5.33-.93,7.81a19.45,19.45,0,0,1,10.94,7,17.38,17.38,0,0,1,3.66,11.14c0,.55-.74,1.11-1.23,1.8,1.29,2.16,1.21,2.7-.9,4.69,2.46,2.33,2.38,3.34-.42,5.46,3,2.37,2.93,3.46-.29,5.85,2.15,1.53,2.52,3.72,2.49,6.18-.08,7.72,0,15.43,0,23.15,0,4.19-1.9,6.47-6,6.52q-14,.19-27.89,0c-3.84,0-5.9-2.13-5.95-6-.12-8.33-.14-16.67.06-25C995.44,893.59,996.59,891.88,997.28,890Z"/><path class="cls-9" d="M947.52,890c-2.55-2-2.58-3.34.15-5.19-.65-1-1.7-1.87-1.8-2.87s.85-2,1.37-3c-1.92-1.82-2-2.46-.36-4.78-1.65-.09-1.8-1-1.68-2.42.75-8.57,5.36-14,13.34-16.83.25-.09.52-.17.77-.28a1.31,1.31,0,0,0,.3-.2c-2-2.44-1.1-5.25-.87-7.91,0-.53,1.42-1.32,2.22-1.37a75,75,0,0,1,8.87,0c.83.05,2.21.91,2.29,1.53.34,2.6,1,5.33-.93,7.81a19.42,19.42,0,0,1,10.94,7,17.38,17.38,0,0,1,3.66,11.14c0,.55-.74,1.11-1.23,1.8,1.29,2.16,1.21,2.7-.9,4.69,2.46,2.33,2.39,3.34-.42,5.46,3,2.37,2.94,3.46-.28,5.85,2.15,1.53,2.51,3.72,2.48,6.18-.08,7.72,0,15.43,0,23.15,0,4.19-1.9,6.47-6,6.52q-13.93.19-27.89,0c-3.84,0-5.89-2.13-5.95-6-.12-8.33-.13-16.67.06-25C945.68,893.59,946.82,891.88,947.52,890Z"/><path class="cls-9" d="M1395.42,790.47c-2.55-2-2.57-3.34.15-5.2-.64-1-1.7-1.86-1.8-2.87s.85-1.95,1.38-3c-1.93-1.82-2-2.47-.37-4.78-1.65-.09-1.8-1-1.68-2.43.75-8.57,5.36-14,13.34-16.82l.78-.28a2,2,0,0,0,.3-.21c-2-2.43-1.11-5.25-.88-7.9,0-.54,1.42-1.33,2.22-1.37a75.17,75.17,0,0,1,8.88,0c.82,0,2.2.91,2.28,1.53.34,2.59,1,5.32-.93,7.8a19.48,19.48,0,0,1,11,7,17.41,17.41,0,0,1,3.65,11.14c0,.56-.73,1.12-1.23,1.81,1.29,2.16,1.22,2.7-.9,4.69,2.47,2.33,2.39,3.34-.41,5.46,3,2.37,2.93,3.46-.29,5.84,2.15,1.54,2.51,3.72,2.49,6.19-.08,7.71,0,15.43,0,23.14,0,4.2-1.9,6.47-6,6.53q-14,.19-27.9,0c-3.84,0-5.89-2.14-5.94-6-.12-8.33-.14-16.67.06-25C1393.58,794.06,1394.72,792.35,1395.42,790.47Z"/><path class="cls-9" d="M1345.65,790.47c-2.55-2-2.57-3.34.15-5.2-.64-1-1.7-1.86-1.8-2.87s.85-1.95,1.38-3c-1.92-1.82-2-2.47-.36-4.78-1.66-.09-1.81-1-1.68-2.43.74-8.57,5.36-14,13.33-16.82.26-.09.53-.18.78-.28a1.61,1.61,0,0,0,.3-.21c-2-2.43-1.1-5.25-.87-7.9,0-.54,1.42-1.33,2.21-1.37a75.17,75.17,0,0,1,8.88,0c.83,0,2.2.91,2.29,1.53.33,2.59,1,5.32-.93,7.8a19.45,19.45,0,0,1,10.94,7,17.35,17.35,0,0,1,3.65,11.14c0,.56-.73,1.12-1.22,1.81,1.29,2.16,1.21,2.7-.9,4.69,2.46,2.33,2.38,3.34-.42,5.46,3,2.37,2.93,3.46-.29,5.84,2.15,1.54,2.52,3.72,2.49,6.19-.08,7.71,0,15.43,0,23.14,0,4.2-1.9,6.47-6,6.53q-14,.19-27.89,0c-3.84,0-5.9-2.14-6-6-.12-8.33-.14-16.67.06-25C1343.81,794.06,1345,792.35,1345.65,790.47Z"/><path class="cls-9" d="M1295.89,790.47c-2.55-2-2.58-3.34.15-5.2-.65-1-1.71-1.86-1.8-2.87s.85-1.95,1.37-3c-1.92-1.82-2-2.47-.36-4.78-1.65-.09-1.8-1-1.68-2.43.75-8.57,5.36-14,13.33-16.82.26-.09.53-.18.78-.28a1.34,1.34,0,0,0,.3-.21c-2-2.43-1.1-5.25-.87-7.9.05-.54,1.42-1.33,2.22-1.37a75,75,0,0,1,8.87,0c.83,0,2.21.91,2.29,1.53.34,2.59,1,5.32-.93,7.8a19.42,19.42,0,0,1,10.94,7,17.42,17.42,0,0,1,3.66,11.14c0,.56-.74,1.12-1.23,1.81,1.29,2.16,1.21,2.7-.9,4.69,2.46,2.33,2.39,3.34-.42,5.46,3,2.37,2.94,3.46-.28,5.84,2.15,1.54,2.51,3.72,2.48,6.19-.08,7.71,0,15.43,0,23.14,0,4.2-1.9,6.47-6,6.53q-13.93.19-27.89,0c-3.84,0-5.89-2.14-6-6-.12-8.33-.13-16.67.06-25C1294.05,794.06,1295.19,792.35,1295.89,790.47Z"/><path class="cls-9" d="M1246.12,790.47c-2.55-2-2.57-3.34.15-5.2-.64-1-1.7-1.86-1.8-2.87s.85-1.95,1.38-3c-1.93-1.82-2-2.47-.37-4.78-1.65-.09-1.8-1-1.68-2.43.75-8.57,5.36-14,13.34-16.82l.78-.28a2,2,0,0,0,.3-.21c-2-2.43-1.11-5.25-.88-7.9.05-.54,1.42-1.33,2.22-1.37a75.17,75.17,0,0,1,8.88,0c.82,0,2.2.91,2.28,1.53.34,2.59,1,5.32-.93,7.8a19.48,19.48,0,0,1,11,7,17.47,17.47,0,0,1,3.65,11.14c0,.56-.73,1.12-1.23,1.81,1.29,2.16,1.22,2.7-.9,4.69,2.46,2.33,2.39,3.34-.41,5.46,3,2.37,2.93,3.46-.29,5.84,2.15,1.54,2.51,3.72,2.49,6.19-.09,7.71,0,15.43,0,23.14,0,4.2-1.9,6.47-6,6.53q-13.95.19-27.9,0c-3.84,0-5.89-2.14-5.95-6-.12-8.33-.13-16.67.07-25C1244.28,794.06,1245.42,792.35,1246.12,790.47Z"/><path class="cls-9" d="M1196.35,790.47c-2.55-2-2.57-3.34.15-5.2-.64-1-1.7-1.86-1.8-2.87s.85-1.95,1.38-3c-1.93-1.82-2-2.47-.37-4.78-1.65-.09-1.8-1-1.68-2.43.75-8.57,5.37-14,13.34-16.82l.78-.28a1.61,1.61,0,0,0,.3-.21c-2-2.43-1.11-5.25-.88-7.9,0-.54,1.42-1.33,2.22-1.37a75.17,75.17,0,0,1,8.88,0c.82,0,2.2.91,2.28,1.53.34,2.59,1,5.32-.93,7.8a19.45,19.45,0,0,1,11,7,17.41,17.41,0,0,1,3.65,11.14c0,.56-.73,1.12-1.22,1.81,1.29,2.16,1.21,2.7-.91,4.69,2.47,2.33,2.39,3.34-.41,5.46,3,2.37,2.93,3.46-.29,5.84,2.15,1.54,2.52,3.72,2.49,6.19-.08,7.71,0,15.43,0,23.14,0,4.2-1.9,6.47-6,6.53q-13.95.19-27.89,0c-3.84,0-5.9-2.14-5.95-6-.12-8.33-.14-16.67.06-25C1194.51,794.06,1195.66,792.35,1196.35,790.47Z"/><path class="cls-9" d="M1146.59,790.47c-2.56-2-2.58-3.34.15-5.2-.65-1-1.71-1.86-1.8-2.87s.84-1.95,1.37-3c-1.92-1.82-2-2.47-.36-4.78-1.66-.09-1.81-1-1.68-2.43.75-8.57,5.36-14,13.33-16.82.26-.09.53-.18.78-.28a1.61,1.61,0,0,0,.3-.21c-2-2.43-1.1-5.25-.87-7.9,0-.54,1.42-1.33,2.21-1.37a75.16,75.16,0,0,1,8.88,0c.83,0,2.21.91,2.29,1.53.33,2.59,1,5.32-.93,7.8a19.45,19.45,0,0,1,10.94,7,17.42,17.42,0,0,1,3.66,11.14c0,.56-.74,1.12-1.23,1.81,1.29,2.16,1.21,2.7-.9,4.69,2.46,2.33,2.38,3.34-.42,5.46,3,2.37,2.94,3.46-.29,5.84,2.15,1.54,2.52,3.72,2.49,6.19-.08,7.71,0,15.43,0,23.14,0,4.2-1.9,6.47-6,6.53q-13.93.19-27.89,0c-3.84,0-5.9-2.14-5.95-6-.12-8.33-.13-16.67.06-25C1144.74,794.06,1145.89,792.35,1146.59,790.47Z"/><path class="cls-9" d="M1096.82,790.47c-2.55-2-2.57-3.34.15-5.2-.65-1-1.7-1.86-1.8-2.87s.85-1.95,1.37-3c-1.92-1.82-2-2.47-.36-4.78-1.65-.09-1.8-1-1.68-2.43.75-8.57,5.36-14,13.34-16.82l.77-.28a1.69,1.69,0,0,0,.31-.21c-2-2.43-1.11-5.25-.88-7.9,0-.54,1.42-1.33,2.22-1.37a75,75,0,0,1,8.87,0c.83,0,2.21.91,2.29,1.53.34,2.59,1,5.32-.93,7.8a19.42,19.42,0,0,1,10.94,7,17.42,17.42,0,0,1,3.66,11.14c0,.56-.74,1.12-1.23,1.81,1.29,2.16,1.22,2.7-.9,4.69,2.46,2.33,2.39,3.34-.41,5.46,3,2.37,2.93,3.46-.29,5.84,2.15,1.54,2.51,3.72,2.49,6.19-.09,7.71,0,15.43,0,23.14,0,4.2-1.9,6.47-6,6.53q-14,.19-27.9,0c-3.84,0-5.89-2.14-6-6-.12-8.33-.13-16.67.07-25C1095,794.06,1096.12,792.35,1096.82,790.47Z"/><path class="cls-9" d="M1047.05,790.47c-2.55-2-2.57-3.34.15-5.2-.64-1-1.7-1.86-1.8-2.87s.85-1.95,1.38-3c-1.93-1.82-2-2.47-.37-4.78-1.65-.09-1.8-1-1.68-2.43.75-8.57,5.37-14,13.34-16.82l.78-.28a2,2,0,0,0,.3-.21c-2-2.43-1.11-5.25-.88-7.9,0-.54,1.42-1.33,2.22-1.37a75.17,75.17,0,0,1,8.88,0c.82,0,2.2.91,2.28,1.53.34,2.59,1,5.32-.93,7.8a19.48,19.48,0,0,1,11,7,17.41,17.41,0,0,1,3.65,11.14c0,.56-.73,1.12-1.23,1.81,1.29,2.16,1.22,2.7-.9,4.69,2.47,2.33,2.39,3.34-.41,5.46,3,2.37,2.93,3.46-.29,5.84,2.15,1.54,2.51,3.72,2.49,6.19-.08,7.71,0,15.43,0,23.14,0,4.2-1.9,6.47-6,6.53q-14,.19-27.9,0c-3.84,0-5.89-2.14-5.94-6-.12-8.33-.14-16.67.06-25C1045.21,794.06,1046.36,792.35,1047.05,790.47Z"/><path class="cls-9" d="M997.28,790.47c-2.55-2-2.57-3.34.16-5.2-.65-1-1.71-1.86-1.81-2.87s.85-1.95,1.38-3c-1.92-1.82-2-2.47-.36-4.78-1.66-.09-1.81-1-1.68-2.43.74-8.57,5.36-14,13.33-16.82.26-.09.53-.18.78-.28a1.61,1.61,0,0,0,.3-.21c-2-2.43-1.1-5.25-.87-7.9,0-.54,1.42-1.33,2.21-1.37a75.16,75.16,0,0,1,8.88,0c.83,0,2.2.91,2.29,1.53.33,2.59,1,5.32-.93,7.8a19.45,19.45,0,0,1,10.94,7,17.42,17.42,0,0,1,3.66,11.14c0,.56-.74,1.12-1.23,1.81,1.29,2.16,1.21,2.7-.9,4.69,2.46,2.33,2.38,3.34-.42,5.46,3,2.37,2.93,3.46-.29,5.84,2.15,1.54,2.52,3.72,2.49,6.19-.08,7.71,0,15.43,0,23.14,0,4.2-1.9,6.47-6,6.53q-14,.19-27.89,0c-3.84,0-5.9-2.14-5.95-6-.12-8.33-.14-16.67.06-25C995.44,794.06,996.59,792.35,997.28,790.47Z"/><path class="cls-9" d="M947.52,790.47c-2.55-2-2.58-3.34.15-5.2-.65-1-1.7-1.86-1.8-2.87s.85-1.95,1.37-3c-1.92-1.82-2-2.47-.36-4.78-1.65-.09-1.8-1-1.68-2.43.75-8.57,5.36-14,13.34-16.82l.77-.28a1.34,1.34,0,0,0,.3-.21c-2-2.43-1.1-5.25-.87-7.9,0-.54,1.42-1.33,2.22-1.37a75,75,0,0,1,8.87,0c.83,0,2.21.91,2.29,1.53.34,2.59,1,5.32-.93,7.8a19.42,19.42,0,0,1,10.94,7,17.42,17.42,0,0,1,3.66,11.14c0,.56-.74,1.12-1.23,1.81,1.29,2.16,1.21,2.7-.9,4.69,2.46,2.33,2.39,3.34-.42,5.46,3,2.37,2.94,3.46-.28,5.84,2.15,1.54,2.51,3.72,2.48,6.19-.08,7.71,0,15.43,0,23.14,0,4.2-1.9,6.47-6,6.53q-13.93.19-27.89,0c-3.84,0-5.89-2.14-5.95-6-.12-8.33-.13-16.67.06-25C945.68,794.06,946.82,792.35,947.52,790.47Z"/><path class="cls-9" d="M1395.42,690.93c-2.55-2-2.57-3.34.15-5.19-.64-1-1.7-1.87-1.8-2.87s.85-2,1.38-3c-1.93-1.82-2-2.46-.37-4.78-1.65-.09-1.8-1-1.68-2.42.75-8.57,5.36-14,13.34-16.83l.78-.27a2,2,0,0,0,.3-.21c-2-2.44-1.11-5.25-.88-7.9,0-.54,1.42-1.33,2.22-1.37a75.17,75.17,0,0,1,8.88,0c.82,0,2.2.91,2.28,1.54.34,2.59,1,5.32-.93,7.8a19.48,19.48,0,0,1,11,7,17.37,17.37,0,0,1,3.65,11.14c0,.56-.73,1.11-1.23,1.81,1.29,2.15,1.22,2.7-.9,4.68,2.47,2.33,2.39,3.34-.41,5.46,3,2.37,2.93,3.46-.29,5.85,2.15,1.54,2.51,3.72,2.49,6.18-.08,7.72,0,15.43,0,23.15,0,4.19-1.9,6.47-6,6.52q-14,.19-27.9,0c-3.84-.06-5.89-2.14-5.94-6-.12-8.34-.14-16.67.06-25C1393.58,694.52,1394.72,692.81,1395.42,690.93Z"/><path class="cls-9" d="M1345.65,690.93c-2.55-2-2.57-3.34.15-5.19-.64-1-1.7-1.87-1.8-2.87s.85-2,1.38-3c-1.92-1.82-2-2.46-.36-4.78-1.66-.09-1.81-1-1.68-2.42.74-8.57,5.36-14,13.33-16.83.26-.09.53-.17.78-.27a1.61,1.61,0,0,0,.3-.21c-2-2.44-1.1-5.25-.87-7.9,0-.54,1.42-1.33,2.21-1.37a75.17,75.17,0,0,1,8.88,0c.83,0,2.2.91,2.29,1.54.33,2.59,1,5.32-.93,7.8a19.45,19.45,0,0,1,10.94,7,17.31,17.31,0,0,1,3.65,11.14c0,.56-.73,1.11-1.22,1.81,1.29,2.15,1.21,2.7-.9,4.68,2.46,2.33,2.38,3.34-.42,5.46,3,2.37,2.93,3.46-.29,5.85,2.15,1.54,2.52,3.72,2.49,6.18-.08,7.72,0,15.43,0,23.15,0,4.19-1.9,6.47-6,6.52q-14,.19-27.89,0c-3.84-.06-5.9-2.14-6-6-.12-8.34-.14-16.67.06-25C1343.81,694.52,1345,692.81,1345.65,690.93Z"/><path class="cls-9" d="M1295.89,690.93c-2.55-2-2.58-3.34.15-5.19-.65-1-1.71-1.87-1.8-2.87s.85-2,1.37-3c-1.92-1.82-2-2.46-.36-4.78-1.65-.09-1.8-1-1.68-2.42.75-8.57,5.36-14,13.33-16.83.26-.09.53-.17.78-.27a1.34,1.34,0,0,0,.3-.21c-2-2.44-1.1-5.25-.87-7.9.05-.54,1.42-1.33,2.22-1.37a75,75,0,0,1,8.87,0c.83,0,2.21.91,2.29,1.54.34,2.59,1,5.32-.93,7.8a19.42,19.42,0,0,1,10.94,7,17.38,17.38,0,0,1,3.66,11.14c0,.56-.74,1.11-1.23,1.81,1.29,2.15,1.21,2.7-.9,4.68,2.46,2.33,2.39,3.34-.42,5.46,3,2.37,2.94,3.46-.28,5.85,2.15,1.54,2.51,3.72,2.48,6.18-.08,7.72,0,15.43,0,23.15,0,4.19-1.9,6.47-6,6.52q-13.93.19-27.89,0c-3.84-.06-5.89-2.14-6-6-.12-8.34-.13-16.67.06-25C1294.05,694.52,1295.19,692.81,1295.89,690.93Z"/><path class="cls-9" d="M1246.12,690.93c-2.55-2-2.57-3.34.15-5.19-.64-1-1.7-1.87-1.8-2.87s.85-2,1.38-3c-1.93-1.82-2-2.46-.37-4.78-1.65-.09-1.8-1-1.68-2.42.75-8.57,5.36-14,13.34-16.83l.78-.27a2,2,0,0,0,.3-.21c-2-2.44-1.11-5.25-.88-7.9.05-.54,1.42-1.33,2.22-1.37a75.17,75.17,0,0,1,8.88,0c.82,0,2.2.91,2.28,1.54.34,2.59,1,5.32-.93,7.8a19.48,19.48,0,0,1,11,7,17.43,17.43,0,0,1,3.65,11.14c0,.56-.73,1.11-1.23,1.81,1.29,2.15,1.22,2.7-.9,4.68,2.46,2.33,2.39,3.34-.41,5.46,3,2.37,2.93,3.46-.29,5.85,2.15,1.54,2.51,3.72,2.49,6.18-.09,7.72,0,15.43,0,23.15,0,4.19-1.9,6.47-6,6.52q-13.95.19-27.9,0c-3.84-.06-5.89-2.14-5.95-6-.12-8.34-.13-16.67.07-25C1244.28,694.52,1245.42,692.81,1246.12,690.93Z"/><path class="cls-9" d="M1196.35,690.93c-2.55-2-2.57-3.34.15-5.19-.64-1-1.7-1.87-1.8-2.87s.85-2,1.38-3c-1.93-1.82-2-2.46-.37-4.78-1.65-.09-1.8-1-1.68-2.42.75-8.57,5.37-14,13.34-16.83l.78-.27a1.61,1.61,0,0,0,.3-.21c-2-2.44-1.11-5.25-.88-7.9,0-.54,1.42-1.33,2.22-1.37a75.17,75.17,0,0,1,8.88,0c.82,0,2.2.91,2.28,1.54.34,2.59,1,5.32-.93,7.8a19.45,19.45,0,0,1,11,7,17.37,17.37,0,0,1,3.65,11.14c0,.56-.73,1.11-1.22,1.81,1.29,2.15,1.21,2.7-.91,4.68,2.47,2.33,2.39,3.34-.41,5.46,3,2.37,2.93,3.46-.29,5.85,2.15,1.54,2.52,3.72,2.49,6.18-.08,7.72,0,15.43,0,23.15,0,4.19-1.9,6.47-6,6.52q-13.95.19-27.89,0c-3.84-.06-5.9-2.14-5.95-6-.12-8.34-.14-16.67.06-25C1194.51,694.52,1195.66,692.81,1196.35,690.93Z"/><path class="cls-9" d="M1146.59,690.93c-2.56-2-2.58-3.34.15-5.19-.65-1-1.71-1.87-1.8-2.87s.84-2,1.37-3c-1.92-1.82-2-2.46-.36-4.78-1.66-.09-1.81-1-1.68-2.42.75-8.57,5.36-14,13.33-16.83.26-.09.53-.17.78-.27a1.61,1.61,0,0,0,.3-.21c-2-2.44-1.1-5.25-.87-7.9,0-.54,1.42-1.33,2.21-1.37a75.17,75.17,0,0,1,8.88,0c.83,0,2.21.91,2.29,1.54.33,2.59,1,5.32-.93,7.8a19.45,19.45,0,0,1,10.94,7,17.38,17.38,0,0,1,3.66,11.14c0,.56-.74,1.11-1.23,1.81,1.29,2.15,1.21,2.7-.9,4.68,2.46,2.33,2.38,3.34-.42,5.46,3,2.37,2.94,3.46-.29,5.85,2.15,1.54,2.52,3.72,2.49,6.18-.08,7.72,0,15.43,0,23.15,0,4.19-1.9,6.47-6,6.52q-13.93.19-27.89,0c-3.84-.06-5.9-2.14-5.95-6-.12-8.34-.13-16.67.06-25C1144.74,694.52,1145.89,692.81,1146.59,690.93Z"/><path class="cls-9" d="M1096.82,690.93c-2.55-2-2.57-3.34.15-5.19-.65-1-1.7-1.87-1.8-2.87s.85-2,1.37-3c-1.92-1.82-2-2.46-.36-4.78-1.65-.09-1.8-1-1.68-2.42.75-8.57,5.36-14,13.34-16.83.26-.09.52-.17.77-.27a1.69,1.69,0,0,0,.31-.21c-2-2.44-1.11-5.25-.88-7.9,0-.54,1.42-1.33,2.22-1.37a75,75,0,0,1,8.87,0c.83,0,2.21.91,2.29,1.54.34,2.59,1,5.32-.93,7.8a19.42,19.42,0,0,1,10.94,7,17.38,17.38,0,0,1,3.66,11.14c0,.56-.74,1.11-1.23,1.81,1.29,2.15,1.22,2.7-.9,4.68,2.46,2.33,2.39,3.34-.41,5.46,3,2.37,2.93,3.46-.29,5.85,2.15,1.54,2.51,3.72,2.49,6.18-.09,7.72,0,15.43,0,23.15,0,4.19-1.9,6.47-6,6.52q-14,.19-27.9,0c-3.84-.06-5.89-2.14-6-6-.12-8.34-.13-16.67.07-25C1095,694.52,1096.12,692.81,1096.82,690.93Z"/><path class="cls-9" d="M1047.05,690.93c-2.55-2-2.57-3.34.15-5.19-.64-1-1.7-1.87-1.8-2.87s.85-2,1.38-3c-1.93-1.82-2-2.46-.37-4.78-1.65-.09-1.8-1-1.68-2.42.75-8.57,5.37-14,13.34-16.83l.78-.27a2,2,0,0,0,.3-.21c-2-2.44-1.11-5.25-.88-7.9,0-.54,1.42-1.33,2.22-1.37a75.17,75.17,0,0,1,8.88,0c.82,0,2.2.91,2.28,1.54.34,2.59,1,5.32-.93,7.8a19.48,19.48,0,0,1,11,7,17.37,17.37,0,0,1,3.65,11.14c0,.56-.73,1.11-1.23,1.81,1.29,2.15,1.22,2.7-.9,4.68,2.47,2.33,2.39,3.34-.41,5.46,3,2.37,2.93,3.46-.29,5.85,2.15,1.54,2.51,3.72,2.49,6.18-.08,7.72,0,15.43,0,23.15,0,4.19-1.9,6.47-6,6.52q-14,.19-27.9,0c-3.84-.06-5.89-2.14-5.94-6-.12-8.34-.14-16.67.06-25C1045.21,694.52,1046.36,692.81,1047.05,690.93Z"/><path class="cls-9" d="M997.28,690.93c-2.55-2-2.57-3.34.16-5.19-.65-1-1.71-1.87-1.81-2.87s.85-2,1.38-3c-1.92-1.82-2-2.46-.36-4.78-1.66-.09-1.81-1-1.68-2.42.74-8.57,5.36-14,13.33-16.83.26-.09.53-.17.78-.27a1.61,1.61,0,0,0,.3-.21c-2-2.44-1.1-5.25-.87-7.9,0-.54,1.42-1.33,2.21-1.37a75.17,75.17,0,0,1,8.88,0c.83,0,2.2.91,2.29,1.54.33,2.59,1,5.32-.93,7.8a19.45,19.45,0,0,1,10.94,7,17.38,17.38,0,0,1,3.66,11.14c0,.56-.74,1.11-1.23,1.81,1.29,2.15,1.21,2.7-.9,4.68,2.46,2.33,2.38,3.34-.42,5.46,3,2.37,2.93,3.46-.29,5.85,2.15,1.54,2.52,3.72,2.49,6.18-.08,7.72,0,15.43,0,23.15,0,4.19-1.9,6.47-6,6.52q-14,.19-27.89,0c-3.84-.06-5.9-2.14-5.95-6-.12-8.34-.14-16.67.06-25C995.44,694.52,996.59,692.81,997.28,690.93Z"/><path class="cls-9" d="M947.52,690.93c-2.55-2-2.58-3.34.15-5.19-.65-1-1.7-1.87-1.8-2.87s.85-2,1.37-3c-1.92-1.82-2-2.46-.36-4.78-1.65-.09-1.8-1-1.68-2.42.75-8.57,5.36-14,13.34-16.83.25-.09.52-.17.77-.27a1.34,1.34,0,0,0,.3-.21c-2-2.44-1.1-5.25-.87-7.9,0-.54,1.42-1.33,2.22-1.37a75,75,0,0,1,8.87,0c.83,0,2.21.91,2.29,1.54.34,2.59,1,5.32-.93,7.8a19.42,19.42,0,0,1,10.94,7,17.38,17.38,0,0,1,3.66,11.14c0,.56-.74,1.11-1.23,1.81,1.29,2.15,1.21,2.7-.9,4.68,2.46,2.33,2.39,3.34-.42,5.46,3,2.37,2.94,3.46-.28,5.85,2.15,1.54,2.51,3.72,2.48,6.18-.08,7.72,0,15.43,0,23.15,0,4.19-1.9,6.47-6,6.52q-13.93.19-27.89,0c-3.84-.06-5.89-2.14-5.95-6-.12-8.34-.13-16.67.06-25C945.68,694.52,946.82,692.81,947.52,690.93Z"/><path class="cls-9" d="M1395.42,591.4c-2.55-2-2.57-3.34.15-5.2-.64-1-1.7-1.86-1.8-2.87s.85-2,1.38-3c-1.93-1.82-2-2.47-.37-4.78-1.65-.09-1.8-1-1.68-2.42.75-8.58,5.36-14,13.34-16.83.26-.09.52-.17.78-.28a1.48,1.48,0,0,0,.3-.21c-2-2.43-1.11-5.24-.88-7.9,0-.54,1.42-1.32,2.22-1.37a75.17,75.17,0,0,1,8.88,0c.82.05,2.2.91,2.28,1.53.34,2.59,1,5.33-.93,7.8a19.48,19.48,0,0,1,11,7,17.42,17.42,0,0,1,3.65,11.15c0,.55-.73,1.11-1.23,1.8,1.29,2.16,1.22,2.7-.9,4.69,2.47,2.33,2.39,3.34-.41,5.46,3,2.37,2.93,3.46-.29,5.85,2.15,1.53,2.51,3.72,2.49,6.18-.08,7.71,0,15.43,0,23.14,0,4.2-1.9,6.47-6,6.53q-14,.19-27.9,0c-3.84,0-5.89-2.13-5.94-6-.12-8.33-.14-16.67.06-25C1393.58,595,1394.72,593.28,1395.42,591.4Z"/><path class="cls-9" d="M1345.65,591.4c-2.55-2-2.57-3.34.15-5.2-.64-1-1.7-1.86-1.8-2.87s.85-2,1.38-3c-1.92-1.82-2-2.47-.36-4.78-1.66-.09-1.81-1-1.68-2.42.74-8.58,5.36-14,13.33-16.83.26-.09.53-.17.78-.28a1.25,1.25,0,0,0,.3-.21c-2-2.43-1.1-5.24-.87-7.9,0-.54,1.42-1.32,2.21-1.37a75.17,75.17,0,0,1,8.88,0c.83.05,2.2.91,2.29,1.53.33,2.59,1,5.33-.93,7.8a19.45,19.45,0,0,1,10.94,7,17.36,17.36,0,0,1,3.65,11.15c0,.55-.73,1.11-1.22,1.8,1.29,2.16,1.21,2.7-.9,4.69,2.46,2.33,2.38,3.34-.42,5.46,3,2.37,2.93,3.46-.29,5.85,2.15,1.53,2.52,3.72,2.49,6.18-.08,7.71,0,15.43,0,23.14,0,4.2-1.9,6.47-6,6.53q-14,.19-27.89,0c-3.84,0-5.9-2.13-6-6-.12-8.33-.14-16.67.06-25C1343.81,595,1345,593.28,1345.65,591.4Z"/><path class="cls-9" d="M1295.89,591.4c-2.55-2-2.58-3.34.15-5.2-.65-1-1.71-1.86-1.8-2.87s.85-2,1.37-3c-1.92-1.82-2-2.47-.36-4.78-1.65-.09-1.8-1-1.68-2.42.75-8.58,5.36-14,13.33-16.83.26-.09.53-.17.78-.28a1.08,1.08,0,0,0,.3-.21c-2-2.43-1.1-5.24-.87-7.9.05-.54,1.42-1.32,2.22-1.37a75,75,0,0,1,8.87,0c.83.05,2.21.91,2.29,1.53.34,2.59,1,5.33-.93,7.8a19.42,19.42,0,0,1,10.94,7,17.43,17.43,0,0,1,3.66,11.15c0,.55-.74,1.11-1.23,1.8,1.29,2.16,1.21,2.7-.9,4.69,2.46,2.33,2.39,3.34-.42,5.46,3,2.37,2.94,3.46-.28,5.85,2.15,1.53,2.51,3.72,2.48,6.18-.08,7.71,0,15.43,0,23.14,0,4.2-1.9,6.47-6,6.53q-13.93.19-27.89,0c-3.84,0-5.89-2.13-6-6-.12-8.33-.13-16.67.06-25C1294.05,595,1295.19,593.28,1295.89,591.4Z"/><path class="cls-9" d="M1246.12,591.4c-2.55-2-2.57-3.34.15-5.2-.64-1-1.7-1.86-1.8-2.87s.85-2,1.38-3c-1.93-1.82-2-2.47-.37-4.78-1.65-.09-1.8-1-1.68-2.42.75-8.58,5.36-14,13.34-16.83.26-.09.52-.17.78-.28a1.48,1.48,0,0,0,.3-.21c-2-2.43-1.11-5.24-.88-7.9.05-.54,1.42-1.32,2.22-1.37a75.17,75.17,0,0,1,8.88,0c.82.05,2.2.91,2.28,1.53.34,2.59,1,5.33-.93,7.8a19.48,19.48,0,0,1,11,7,17.48,17.48,0,0,1,3.65,11.15c0,.55-.73,1.11-1.23,1.8,1.29,2.16,1.22,2.7-.9,4.69,2.46,2.33,2.39,3.34-.41,5.46,3,2.37,2.93,3.46-.29,5.85,2.15,1.53,2.51,3.72,2.49,6.18-.09,7.71,0,15.43,0,23.14,0,4.2-1.9,6.47-6,6.53q-13.95.19-27.9,0c-3.84,0-5.89-2.13-5.95-6-.12-8.33-.13-16.67.07-25C1244.28,595,1245.42,593.28,1246.12,591.4Z"/><path class="cls-9" d="M1196.35,591.4c-2.55-2-2.57-3.34.15-5.2-.64-1-1.7-1.86-1.8-2.87s.85-2,1.38-3c-1.93-1.82-2-2.47-.37-4.78-1.65-.09-1.8-1-1.68-2.42.75-8.58,5.37-14,13.34-16.83.26-.09.52-.17.78-.28a1.25,1.25,0,0,0,.3-.21c-2-2.43-1.11-5.24-.88-7.9,0-.54,1.42-1.32,2.22-1.37a75.17,75.17,0,0,1,8.88,0c.82.05,2.2.91,2.28,1.53.34,2.59,1,5.33-.93,7.8a19.45,19.45,0,0,1,11,7,17.42,17.42,0,0,1,3.65,11.15c0,.55-.73,1.11-1.22,1.8,1.29,2.16,1.21,2.7-.91,4.69,2.47,2.33,2.39,3.34-.41,5.46,3,2.37,2.93,3.46-.29,5.85,2.15,1.53,2.52,3.72,2.49,6.18-.08,7.71,0,15.43,0,23.14,0,4.2-1.9,6.47-6,6.53q-13.95.19-27.89,0c-3.84,0-5.9-2.13-5.95-6-.12-8.33-.14-16.67.06-25C1194.51,595,1195.66,593.28,1196.35,591.4Z"/><path class="cls-9" d="M1146.59,591.4c-2.56-2-2.58-3.34.15-5.2-.65-1-1.71-1.86-1.8-2.87s.84-2,1.37-3c-1.92-1.82-2-2.47-.36-4.78-1.66-.09-1.81-1-1.68-2.42.75-8.58,5.36-14,13.33-16.83.26-.09.53-.17.78-.28a1.25,1.25,0,0,0,.3-.21c-2-2.43-1.1-5.24-.87-7.9,0-.54,1.42-1.32,2.21-1.37a75.16,75.16,0,0,1,8.88,0c.83.05,2.21.91,2.29,1.53.33,2.59,1,5.33-.93,7.8a19.45,19.45,0,0,1,10.94,7,17.43,17.43,0,0,1,3.66,11.15c0,.55-.74,1.11-1.23,1.8,1.29,2.16,1.21,2.7-.9,4.69,2.46,2.33,2.38,3.34-.42,5.46,3,2.37,2.94,3.46-.29,5.85,2.15,1.53,2.52,3.72,2.49,6.18-.08,7.71,0,15.43,0,23.14,0,4.2-1.9,6.47-6,6.53q-13.93.19-27.89,0c-3.84,0-5.9-2.13-5.95-6-.12-8.33-.13-16.67.06-25C1144.74,595,1145.89,593.28,1146.59,591.4Z"/><path class="cls-9" d="M1096.82,591.4c-2.55-2-2.57-3.34.15-5.2-.65-1-1.7-1.86-1.8-2.87s.85-2,1.37-3c-1.92-1.82-2-2.47-.36-4.78-1.65-.09-1.8-1-1.68-2.42.75-8.58,5.36-14,13.34-16.83.26-.09.52-.17.77-.28a1.3,1.3,0,0,0,.31-.21c-2-2.43-1.11-5.24-.88-7.9,0-.54,1.42-1.32,2.22-1.37a75,75,0,0,1,8.87,0c.83.05,2.21.91,2.29,1.53.34,2.59,1,5.33-.93,7.8a19.42,19.42,0,0,1,10.94,7,17.43,17.43,0,0,1,3.66,11.15c0,.55-.74,1.11-1.23,1.8,1.29,2.16,1.22,2.7-.9,4.69,2.46,2.33,2.39,3.34-.41,5.46,3,2.37,2.93,3.46-.29,5.85,2.15,1.53,2.51,3.72,2.49,6.18-.09,7.71,0,15.43,0,23.14,0,4.2-1.9,6.47-6,6.53q-14,.19-27.9,0c-3.84,0-5.89-2.13-6-6-.12-8.33-.13-16.67.07-25C1095,595,1096.12,593.28,1096.82,591.4Z"/><path class="cls-9" d="M1047.05,591.4c-2.55-2-2.57-3.34.15-5.2-.64-1-1.7-1.86-1.8-2.87s.85-2,1.38-3c-1.93-1.82-2-2.47-.37-4.78-1.65-.09-1.8-1-1.68-2.42.75-8.58,5.37-14,13.34-16.83.26-.09.52-.17.78-.28a1.48,1.48,0,0,0,.3-.21c-2-2.43-1.11-5.24-.88-7.9,0-.54,1.42-1.32,2.22-1.37a75.17,75.17,0,0,1,8.88,0c.82.05,2.2.91,2.28,1.53.34,2.59,1,5.33-.93,7.8a19.48,19.48,0,0,1,11,7,17.42,17.42,0,0,1,3.65,11.15c0,.55-.73,1.11-1.23,1.8,1.29,2.16,1.22,2.7-.9,4.69,2.47,2.33,2.39,3.34-.41,5.46,3,2.37,2.93,3.46-.29,5.85,2.15,1.53,2.51,3.72,2.49,6.18-.08,7.71,0,15.43,0,23.14,0,4.2-1.9,6.47-6,6.53q-14,.19-27.9,0c-3.84,0-5.89-2.13-5.94-6-.12-8.33-.14-16.67.06-25C1045.21,595,1046.36,593.28,1047.05,591.4Z"/><path class="cls-9" d="M997.28,591.4c-2.55-2-2.57-3.34.16-5.2-.65-1-1.71-1.86-1.81-2.87s.85-2,1.38-3c-1.92-1.82-2-2.47-.36-4.78-1.66-.09-1.81-1-1.68-2.42.74-8.58,5.36-14,13.33-16.83.26-.09.53-.17.78-.28a1.25,1.25,0,0,0,.3-.21c-2-2.43-1.1-5.24-.87-7.9,0-.54,1.42-1.32,2.21-1.37a75.16,75.16,0,0,1,8.88,0c.83.05,2.2.91,2.29,1.53.33,2.59,1,5.33-.93,7.8a19.45,19.45,0,0,1,10.94,7,17.43,17.43,0,0,1,3.66,11.15c0,.55-.74,1.11-1.23,1.8,1.29,2.16,1.21,2.7-.9,4.69,2.46,2.33,2.38,3.34-.42,5.46,3,2.37,2.93,3.46-.29,5.85,2.15,1.53,2.52,3.72,2.49,6.18-.08,7.71,0,15.43,0,23.14,0,4.2-1.9,6.47-6,6.53q-14,.19-27.89,0c-3.84,0-5.9-2.13-5.95-6-.12-8.33-.14-16.67.06-25C995.44,595,996.59,593.28,997.28,591.4Z"/><path class="cls-9" d="M947.52,591.4c-2.55-2-2.58-3.34.15-5.2-.65-1-1.7-1.86-1.8-2.87s.85-2,1.37-3c-1.92-1.82-2-2.47-.36-4.78-1.65-.09-1.8-1-1.68-2.42.75-8.58,5.36-14,13.34-16.83.25-.09.52-.17.77-.28a1.08,1.08,0,0,0,.3-.21c-2-2.43-1.1-5.24-.87-7.9,0-.54,1.42-1.32,2.22-1.37a75,75,0,0,1,8.87,0c.83.05,2.21.91,2.29,1.53.34,2.59,1,5.33-.93,7.8a19.42,19.42,0,0,1,10.94,7A17.43,17.43,0,0,1,985.79,574c0,.55-.74,1.11-1.23,1.8,1.29,2.16,1.21,2.7-.9,4.69,2.46,2.33,2.39,3.34-.42,5.46,3,2.37,2.94,3.46-.28,5.85,2.15,1.53,2.51,3.72,2.48,6.18-.08,7.71,0,15.43,0,23.14,0,4.2-1.9,6.47-6,6.53q-13.93.19-27.89,0c-3.84,0-5.89-2.13-5.95-6-.12-8.33-.13-16.67.06-25C945.68,595,946.82,593.28,947.52,591.4Z"/><path class="cls-17" d="M135.19,310.89c21,0,38,7.54,38,16.86v50.57H588.69V310.89Z"/><ellipse class="cls-18" cx="135.36" cy="328" rx="38.88" ry="17.26"/><ellipse class="cls-19" cx="135.36" cy="328" rx="15.36" ry="6.82"/><path class="cls-20" d="M135.36,345.26c-21.47,0-38.88-7.72-38.88-17.26v69.05c0,9.54,17.41,17.27,38.88,17.27s38.88-7.73,38.88-17.27V328C174.24,337.54,156.83,345.26,135.36,345.26Z"/></g></g></svg>