<svg xmlns="http://www.w3.org/2000/svg" xmlns:xlink="http://www.w3.org/1999/xlink" viewBox="0 0 1926 1481"><defs><style>.cls-1,.cls-70,.cls-71,.cls-72,.cls-73,.cls-74{fill:none;}.cls-2{font-size:20px;font-family:FiraSans-BoldItalic, Fira Sans;}.cls-2,.cls-29,.cls-33,.cls-36,.cls-37,.cls-45,.cls-46,.cls-47,.cls-56{fill:#fff;}.cls-2,.cls-32,.cls-38,.cls-44,.cls-64,.cls-69{font-weight:700;}.cls-17,.cls-2,.cls-32,.cls-38,.cls-44,.cls-48,.cls-64,.cls-69{font-style:italic;}.cls-3{letter-spacing:-0.02em;}.cls-4{letter-spacing:-0.03em;}.cls-5{letter-spacing:0em;}.cls-6{letter-spacing:-0.04em;}.cls-7{letter-spacing:-0.03em;}.cls-8{letter-spacing:0em;}.cls-9{letter-spacing:0em;}.cls-10{letter-spacing:-0.01em;}.cls-11{letter-spacing:-0.01em;}.cls-12{letter-spacing:-0.01em;}.cls-13{letter-spacing:-0.02em;}.cls-14{clip-path:url(#clip-path);}.cls-15{fill:#67baa7;}.cls-16,.cls-32{fill:#319690;}.cls-17{font-size:9.69px;font-family:SolferinoText-Italic, Solferino Text;}.cls-17,.cls-59,.cls-60,.cls-66{fill:#585756;}.cls-18{fill:#97ceda;}.cls-19{clip-path:url(#clip-path-2);}.cls-20{clip-path:url(#clip-path-3);}.cls-21{fill:#31958f;}.cls-22{clip-path:url(#clip-path-4);}.cls-23{clip-path:url(#clip-path-5);}.cls-24{clip-path:url(#clip-path-6);}.cls-25{clip-path:url(#clip-path-7);}.cls-26{clip-path:url(#clip-path-8);}.cls-27{clip-path:url(#clip-path-9);}.cls-28{clip-path:url(#clip-path-10);}.cls-30{clip-path:url(#clip-path-11);}.cls-31{clip-path:url(#clip-path-12);}.cls-32,.cls-33,.cls-37,.cls-38,.cls-56,.cls-59,.cls-64,.cls-66,.cls-69{font-size:18px;}.cls-32,.cls-38,.cls-44,.cls-64,.cls-69{font-family:FiraSans-SemiBoldItalic, Fira Sans;}.cls-33,.cls-36,.cls-45,.cls-46,.cls-49,.cls-56,.cls-59{font-family:FiraSans-Light, Fira Sans;}.cls-34{clip-path:url(#clip-path-13);}.cls-35{clip-path:url(#clip-path-14);}.cls-36{font-size:15.9px;}.cls-37{font-family:FiraSans-Regular, Fira Sans;}.cls-38,.cls-43,.cls-64,.cls-69{fill:#93833f;}.cls-39{letter-spacing:-0.01em;}.cls-40{letter-spacing:-0.03em;}.cls-41{clip-path:url(#clip-path-15);}.cls-42{fill:#d6c570;}.cls-44{font-size:12.05px;}.cls-44,.cls-50{fill:#b3b3b3;}.cls-45{font-size:9.04px;}.cls-46,.cls-47{font-size:14px;}.cls-47{font-family:FiraSans-LightItalic, FiraSans LightItalic;}.cls-51{fill:#4d4d4d;}.cls-52{clip-path:url(#clip-path-16);}.cls-53,.cls-62{fill:#92823e;}.cls-54{letter-spacing:-0.05em;}.cls-55{letter-spacing:-0.02em;}.cls-56{letter-spacing:-0.05em;}.cls-57{letter-spacing:-0.05em;}.cls-58{fill:#ab5117;}.cls-60{font-size:13.21px;}.cls-60,.cls-66{font-family:FiraSans-Medium, Fira Sans;}.cls-61{letter-spacing:-0.01em;}.cls-62{opacity:0.5;}.cls-63{letter-spacing:-0.02em;}.cls-64{letter-spacing:-0.01em;}.cls-65{letter-spacing:0em;}.cls-66,.cls-70,.cls-71,.cls-72,.cls-73,.cls-74{stroke:#fff;stroke-miterlimit:10;}.cls-66{stroke-width:1.46px;}.cls-67{letter-spacing:-0.02em;}.cls-68{letter-spacing:-0.01em;}.cls-69{letter-spacing:-0.04em;}.cls-71{stroke-dasharray:4.02 4.02;}.cls-72,.cls-73,.cls-74{stroke-width:0.75px;}.cls-73{stroke-dasharray:3.95 3.95;}.cls-74{stroke-dasharray:3.92 3.92;}</style><clipPath id="clip-path"><rect class="cls-1" x="1038.18" y="373.09" width="181.8" height="181.8"/></clipPath><clipPath id="clip-path-2"><rect class="cls-1" x="1424.35" y="560.11" width="15.11" height="15.12"/></clipPath><clipPath id="clip-path-3"><rect class="cls-1" x="1107.24" y="670.77" width="43.79" height="43.79"/></clipPath><clipPath id="clip-path-4"><rect class="cls-1" x="1425.99" y="685.09" width="11.84" height="11.83"/></clipPath><clipPath id="clip-path-5"><rect class="cls-1" x="1692.03" y="687.28" width="8.93" height="8.93"/></clipPath><clipPath id="clip-path-6"><rect class="cls-1" x="1124.99" y="867.87" width="8.28" height="8.28"/></clipPath><clipPath id="clip-path-7"><rect class="cls-1" x="1429.67" y="870.41" width="4.47" height="4.47"/></clipPath><clipPath id="clip-path-8"><rect class="cls-1" x="1689.17" y="860.69" width="14.65" height="14.65"/></clipPath><clipPath id="clip-path-9"><rect class="cls-1" x="1428.29" y="1029.68" width="7.24" height="7.23"/></clipPath><clipPath id="clip-path-10"><rect class="cls-1" x="1693.63" y="1029.63" width="5.73" height="5.74"/></clipPath><clipPath id="clip-path-11"><rect class="cls-1" x="1428.77" y="1190.7" width="6.28" height="6.28"/></clipPath><clipPath id="clip-path-12"><rect class="cls-1" x="1693.71" y="1191.52" width="5.57" height="5.57"/></clipPath><clipPath id="clip-path-13"><rect class="cls-1" x="1121.66" y="1341.25" width="14.94" height="14.94"/></clipPath><clipPath id="clip-path-14"><rect class="cls-1" x="1430" y="1352.38" width="3.82" height="3.81"/></clipPath><clipPath id="clip-path-15"><rect class="cls-1" x="181" y="378.83" width="175.87" height="175.88"/></clipPath><clipPath id="clip-path-16"><rect class="cls-1" x="510.83" y="397.24" width="27.19" height="27.19"/></clipPath></defs><title>risorsa_02</title><g id="Livello_2" data-name="Livello 2"><g id="Livello_1-2" data-name="Livello 1"><text class="cls-2" transform="translate(1010.23 32.6)">A wa<tspan class="cls-3" x="42.38" y="0">t</tspan><tspan x="49.5" y="0">er or soil </tspan><tspan class="cls-4" x="133.18" y="0">r</tspan><tspan class="cls-5" x="140.42" y="0">esou</tspan><tspan class="cls-4" x="183.26" y="0">r</tspan><tspan class="cls-3" x="190.5" y="0">c</tspan><tspan x="199.5" y="0">e of the </tspan><tspan class="cls-3" x="271.7" y="0">c</tspan><tspan x="280.7" y="0">ountr</tspan><tspan class="cls-6" x="330.14" y="0">y</tspan><tspan x="339.48" y="0">,</tspan><tspan class="cls-3" x="0" y="24">c</tspan><tspan x="9" y="24">ompa</tspan><tspan class="cls-7" x="60.16" y="24">r</tspan><tspan class="cls-8" x="67.4" y="24">ab</tspan><tspan class="cls-9" x="90.46" y="24">l</tspan><tspan x="96.12" y="24">e </tspan><tspan class="cls-3" x="111.32" y="24">t</tspan><tspan x="118.44" y="24" xml:space="preserve">o the usage of  that </tspan><tspan class="cls-7" x="297.24" y="24">r</tspan><tspan x="304.48" y="24">esou</tspan><tspan class="cls-4" x="347.32" y="24">r</tspan><tspan class="cls-3" x="354.56" y="24">c</tspan><tspan x="363.56" y="24">e </tspan><tspan class="cls-10" x="378.76" y="24">f</tspan><tspan x="385.48" y="24">or p</tspan><tspan class="cls-4" x="420.96" y="24">r</tspan><tspan x="428.19" y="24">oduction</tspan></text><text class="cls-2" transform="translate(1010.23 93.6)">Amount of wa<tspan class="cls-3" x="123.54" y="0">t</tspan><tspan x="130.66" y="0">er or soil us</tspan><tspan class="cls-11" x="235.04" y="0">e</tspan><tspan x="245.54" y="0">d </tspan><tspan class="cls-12" x="261.8" y="0">f</tspan><tspan x="268.52" y="0">or p</tspan><tspan class="cls-7" x="304" y="0">r</tspan><tspan x="311.24" y="0">oduction</tspan></text><text class="cls-2" transform="translate(1010.23 178.6)">I<tspan class="cls-3" x="5.8" y="0">t</tspan><tspan x="12.92" y="0">alian </tspan><tspan class="cls-13" x="63" y="0">c</tspan><tspan class="cls-8" x="72" y="0">ommon </tspan><tspan class="cls-13" x="144.1" y="0">c</tspan><tspan x="153.1" y="0">omparison:</tspan></text><g class="cls-14"><path class="cls-15" d="M1220,464a90.9,90.9,0,1,1-90.9-90.9A90.9,90.9,0,0,1,1220,464"/></g><path class="cls-16" d="M1174.84,509.23a45.76,45.76,0,1,1-45.76-45.76,45.76,45.76,0,0,1,45.76,45.76"/><text class="cls-17" transform="matrix(1, 0, 0, 1, 1430.83, 1064.57)"> </text><path class="cls-18" d="M1439,415.63a7,7,0,1,1-7-7,7.05,7.05,0,0,1,7,7"/><path class="cls-16" d="M1439,415.63a7,7,0,1,1-7-7,7.05,7.05,0,0,1,7,7"/><path class="cls-18" d="M1706.41,412.76a9.92,9.92,0,1,1-9.91-9.91,9.92,9.92,0,0,1,9.91,9.91"/><path class="cls-16" d="M1706.41,412.76a9.92,9.92,0,1,1-9.91-9.91,9.92,9.92,0,0,1,9.91,9.91"/><g class="cls-19"><path class="cls-15" d="M1439.47,567.66a7.56,7.56,0,1,1-7.56-7.55,7.55,7.55,0,0,1,7.56,7.55"/></g><path class="cls-16" d="M1438.87,568.27a7,7,0,1,1-7-7,7,7,0,0,1,7,7"/><path class="cls-16" d="M1700.37,571.36a3.87,3.87,0,1,1-3.87-3.87,3.87,3.87,0,0,1,3.87,3.87"/><g class="cls-20"><path class="cls-15" d="M1151,692.66a21.9,21.9,0,1,1-21.9-21.9,21.9,21.9,0,0,1,21.9,21.9"/></g><path class="cls-21" d="M1134.05,709.71a4.92,4.92,0,1,1-4.92-4.91,4.92,4.92,0,0,1,4.92,4.91"/><g class="cls-22"><path class="cls-18" d="M1437.83,691a5.92,5.92,0,1,1-5.92-5.91,5.92,5.92,0,0,1,5.92,5.91"/><path class="cls-15" d="M1437.83,691a5.92,5.92,0,1,1-5.92-5.91,5.92,5.92,0,0,1,5.92,5.91"/></g><path class="cls-21" d="M1437.36,691.47a5.45,5.45,0,1,1-5.45-5.46,5.45,5.45,0,0,1,5.45,5.46"/><g class="cls-23"><path class="cls-18" d="M1701,691.74a4.47,4.47,0,1,1-4.46-4.46,4.46,4.46,0,0,1,4.46,4.46"/><path class="cls-15" d="M1701,691.74a4.47,4.47,0,1,1-4.46-4.46,4.46,4.46,0,0,1,4.46,4.46"/></g><path class="cls-21" d="M1699.27,693.43a2.77,2.77,0,1,1-2.77-2.77,2.77,2.77,0,0,1,2.77,2.77"/><g class="cls-24"><path class="cls-15" d="M1133.27,872a4.14,4.14,0,1,1-4.14-4.15,4.15,4.15,0,0,1,4.14,4.15"/></g><path class="cls-21" d="M1132.63,872.64a3.5,3.5,0,1,1-3.5-3.5,3.5,3.5,0,0,1,3.5,3.5"/><g class="cls-25"><path class="cls-15" d="M1434.15,872.65a2.24,2.24,0,1,1-2.23-2.24,2.24,2.24,0,0,1,2.23,2.24"/></g><path class="cls-21" d="M1434,872.83a2.06,2.06,0,1,1-2.06-2.06,2.05,2.05,0,0,1,2.06,2.06"/><g class="cls-26"><path class="cls-15" d="M1703.82,868a7.33,7.33,0,1,1-7.32-7.33,7.32,7.32,0,0,1,7.32,7.33"/></g><path class="cls-21" d="M1700,871.83a3.52,3.52,0,1,1-3.51-3.52,3.51,3.51,0,0,1,3.51,3.52"/><path class="cls-18" d="M1132.38,1031.48a3.25,3.25,0,1,1-3.25-3.24,3.25,3.25,0,0,1,3.25,3.24"/><g class="cls-27"><path class="cls-18" d="M1435.52,1033.29a3.62,3.62,0,1,1-3.61-3.61,3.61,3.61,0,0,1,3.61,3.61"/><path class="cls-15" d="M1435.52,1033.29a3.62,3.62,0,1,1-3.61-3.61,3.61,3.61,0,0,1,3.61,3.61"/></g><path class="cls-21" d="M1435.24,1033.48a3.33,3.33,0,1,1-3.33-3.33,3.34,3.34,0,0,1,3.33,3.33"/><g class="cls-28"><path class="cls-15" d="M1699.37,1032.5a2.87,2.87,0,1,1-2.87-2.87,2.88,2.88,0,0,1,2.87,2.87"/></g><path class="cls-16" d="M1699.06,1032.81a2.56,2.56,0,1,1-2.56-2.56,2.56,2.56,0,0,1,2.56,2.56"/><path class="cls-29" d="M1431.94,423.2h0a13.19,13.19,0,0,1-3.44-.44l.27-1a12.47,12.47,0,0,0,3.17.41Zm3.47-.46-.27-1a12.38,12.38,0,0,0,3-1.25l.53.92A13.34,13.34,0,0,1,1435.41,422.74Zm-10.18-1.31a13.75,13.75,0,0,1-2.79-2.13l.75-.74a12.12,12.12,0,0,0,2.56,1.95Zm16.19-2.17-.74-.75a12.52,12.52,0,0,0,2-2.56l.91.53A13.34,13.34,0,0,1,1441.42,419.26Zm-21.12-2.73a13.5,13.5,0,0,1-1.36-3.23l1-.27a11.93,11.93,0,0,0,1.25,3Zm24.59-3.29-1-.27a12.76,12.76,0,0,0,.41-3.2l1.06-.13v.13A13.55,13.55,0,0,1,1444.89,413.24Zm-26.42-3.41v-.06a13.46,13.46,0,0,1,.44-3.41l1,.27a12.23,12.23,0,0,0-.4,3.14Zm25.38-3.38a12.37,12.37,0,0,0-1.27-3l.91-.53a13.07,13.07,0,0,1,1.37,3.22Zm-22.7-2.81-.91-.53a13.93,13.93,0,0,1,2.11-2.79l.75.74A12.59,12.59,0,0,0,1421.15,403.64Zm19.44-2.7A12.81,12.81,0,0,0,1438,399l.52-.91a13.56,13.56,0,0,1,2.79,2.11Zm-14.94-1.86-.53-.91a13.43,13.43,0,0,1,3.22-1.36l.28,1A12.31,12.31,0,0,0,1425.65,399.08Zm9.38-1.3a12.64,12.64,0,0,0-3.12-.39l-.09-1.06h.09a13.74,13.74,0,0,1,3.38.43Z"/><path class="cls-29" d="M1696.53,423.21h0a13.2,13.2,0,0,1-3.44-.45l.27-1a12.47,12.47,0,0,0,3.17.41Zm3.47-.46-.27-1a12.52,12.52,0,0,0,3-1.24l.53.91A13.54,13.54,0,0,1,1700,422.75Zm-10.18-1.32a13.14,13.14,0,0,1-2.79-2.13l.75-.74a12.52,12.52,0,0,0,2.56,2Zm16.19-2.17-.75-.74a12.28,12.28,0,0,0,2-2.57l.91.53A13.42,13.42,0,0,1,1706,419.26Zm-21.12-2.72a13.17,13.17,0,0,1-1.36-3.24l1-.27a11.93,11.93,0,0,0,1.25,3Zm24.59-3.3-1-.27a12.27,12.27,0,0,0,.42-3.2l1-.13v.13A13.43,13.43,0,0,1,1709.48,413.24Zm-26.42-3.41v-.06a13.46,13.46,0,0,1,.44-3.41l1,.27a12.24,12.24,0,0,0-.41,3.14Zm25.37-3.38a12.34,12.34,0,0,0-1.26-3l.91-.53a13.87,13.87,0,0,1,1.37,3.22Zm-22.69-2.81-.92-.52a13.09,13.09,0,0,1,2.12-2.79l.75.74A12.18,12.18,0,0,0,1685.74,403.64Zm19.44-2.7a12.59,12.59,0,0,0-2.58-1.95l.52-.91a13.71,13.71,0,0,1,2.8,2.11Zm-14.94-1.86-.54-.9a13.13,13.13,0,0,1,3.23-1.37l.28,1A12.31,12.31,0,0,0,1690.24,399.08Zm9.37-1.3a12.5,12.5,0,0,0-3.11-.39l-.1-1.06h.1a13.74,13.74,0,0,1,3.38.43Z"/><path class="cls-15" d="M1145.45,1180.76a16.32,16.32,0,1,1-16.32-16.33,16.32,16.32,0,0,1,16.32,16.33"/><path class="cls-21" d="M1135.58,1190.63a6.45,6.45,0,1,1-6.45-6.45,6.45,6.45,0,0,1,6.45,6.45"/><path class="cls-29" d="M1129.16,1197.62h0a13.26,13.26,0,0,1-3.44-.45l.27-1a12,12,0,0,0,3.17.42Zm3.47-.46-.27-1a12.52,12.52,0,0,0,3-1.24l.53.91A13.54,13.54,0,0,1,1132.63,1197.16Zm-10.18-1.32a13.64,13.64,0,0,1-2.78-2.12l.74-.75a12.79,12.79,0,0,0,2.56,2Zm16.19-2.17-.75-.74a12.48,12.48,0,0,0,2-2.56l.91.52A13.08,13.08,0,0,1,1138.64,1193.67Zm-21.12-2.72a13.24,13.24,0,0,1-1.35-3.23l1-.28a12.15,12.15,0,0,0,1.25,3Zm24.59-3.29-1-.28a12.65,12.65,0,0,0,.41-3.2l.73-.08.33.06A13.61,13.61,0,0,1,1142.11,1187.66Zm-26.41-3.42v-.06a13.51,13.51,0,0,1,.43-3.41l1,.27a12.29,12.29,0,0,0-.4,3.14Zm25.37-3.37a12.37,12.37,0,0,0-1.27-3l.91-.54a13.13,13.13,0,0,1,1.37,3.23Zm-22.7-2.82-.91-.52a13,13,0,0,1,2.11-2.79l.75.74A12.18,12.18,0,0,0,1118.37,1178.05Zm19.44-2.7a12.48,12.48,0,0,0-2.57-1.94l.52-.92a13.39,13.39,0,0,1,2.79,2.11Zm-14.94-1.85-.53-.91a13.13,13.13,0,0,1,3.23-1.37l.28,1A12.25,12.25,0,0,0,1122.87,1173.5Zm9.38-1.3a12.08,12.08,0,0,0-3.12-.4l-.06-.72,0-.33h0a13.69,13.69,0,0,1,3.39.42Z"/><g class="cls-30"><path class="cls-15" d="M1435.05,1193.83a3.14,3.14,0,1,1-3.14-3.13,3.14,3.14,0,0,1,3.14,3.13"/></g><path class="cls-16" d="M1434.15,1194.85a2.24,2.24,0,1,1-2.24-2.24,2.24,2.24,0,0,1,2.24,2.24"/><path class="cls-29" d="M1431.94,1197.62h0a13.31,13.31,0,0,1-3.44-.45l.27-1a12.53,12.53,0,0,0,3.17.41Zm3.48-.46-.28-1a12.35,12.35,0,0,0,3-1.24l.53.91A13.64,13.64,0,0,1,1435.42,1197.16Zm-10.19-1.32a13.61,13.61,0,0,1-2.79-2.12l.75-.75a12.79,12.79,0,0,0,2.56,2Zm16.19-2.17-.74-.74a12.79,12.79,0,0,0,2-2.56l.91.52A13.08,13.08,0,0,1,1441.42,1193.67ZM1420.3,1191a13.5,13.5,0,0,1-1.36-3.23l1-.28a12,12,0,0,0,1.25,3Zm24.59-3.3-1-.27a12.65,12.65,0,0,0,.41-3.2l1.06-.12v.12A13.44,13.44,0,0,1,1444.89,1187.65Zm-26.42-3.4v-.07a13.52,13.52,0,0,1,.44-3.41l1,.27a12.29,12.29,0,0,0-.4,3.14Zm25.37-3.38a12.58,12.58,0,0,0-1.26-3l.91-.53a13.46,13.46,0,0,1,1.37,3.22Zm-22.69-2.82-.92-.52a13.43,13.43,0,0,1,2.12-2.79l.75.74A12.18,12.18,0,0,0,1421.15,1178.05Zm19.44-2.7a12.4,12.4,0,0,0-2.57-1.94l.52-.92a13.93,13.93,0,0,1,2.79,2.11Zm-14.94-1.85-.54-.91a13.53,13.53,0,0,1,3.23-1.37l.28,1A12.34,12.34,0,0,0,1425.65,1173.5Zm9.37-1.31a12.5,12.5,0,0,0-3.11-.39l-.09-1h.09a13.73,13.73,0,0,1,3.38.42Z"/><path class="cls-29" d="M1696.53,575.75h0a13.2,13.2,0,0,1-3.44-.45l.27-1a12.41,12.41,0,0,0,3.17.41Zm3.47-.46-.27-1a12.52,12.52,0,0,0,3-1.24l.53.91A13.71,13.71,0,0,1,1700,575.29ZM1689.82,574a13.35,13.35,0,0,1-2.79-2.12l.74-.75a12.85,12.85,0,0,0,2.57,2ZM1706,571.8l-.75-.74a12.48,12.48,0,0,0,2-2.56l.91.52A13.42,13.42,0,0,1,1706,571.8Zm-21.12-2.72a13.27,13.27,0,0,1-1.36-3.23l1-.28a12.15,12.15,0,0,0,1.25,3Zm24.59-3.29-1-.28a12.22,12.22,0,0,0,.42-3.2l.73-.08.32.06A13.6,13.6,0,0,1,1709.48,565.79Zm-26.42-3.42v-.06a13.52,13.52,0,0,1,.44-3.41l1,.27a12.29,12.29,0,0,0-.4,3.14Zm25.37-3.37a12.34,12.34,0,0,0-1.26-3l.91-.54a13.94,13.94,0,0,1,1.37,3.23Zm-22.69-2.82-.92-.52a13.43,13.43,0,0,1,2.12-2.79l.75.74A12.44,12.44,0,0,0,1685.74,556.18Zm19.44-2.69a12.18,12.18,0,0,0-2.57-2l.52-.92a13.39,13.39,0,0,1,2.79,2.11Zm-14.94-1.86-.53-.91a13.07,13.07,0,0,1,3.22-1.37l.28,1A12.34,12.34,0,0,0,1690.24,551.63Zm9.37-1.3a12.06,12.06,0,0,0-3.11-.4l-.06-.72,0-.33h0a13.24,13.24,0,0,1,3.39.43Z"/><path class="cls-29" d="M1431.94,575.75h0a13.63,13.63,0,0,1-3.44-.44l.27-1a12.47,12.47,0,0,0,3.17.41Zm3.47-.46-.27-1a12.35,12.35,0,0,0,3-1.24l.53.91A13.54,13.54,0,0,1,1435.41,575.29ZM1425.23,574a13.35,13.35,0,0,1-2.79-2.12l.75-.75a12.52,12.52,0,0,0,2.56,2Zm16.19-2.16-.74-.75a12.79,12.79,0,0,0,2-2.56l.91.53A13.6,13.6,0,0,1,1441.42,571.81Zm-21.12-2.73a13.5,13.5,0,0,1-1.36-3.23l1-.28a12.15,12.15,0,0,0,1.25,3Zm24.59-3.29-1-.27a12.33,12.33,0,0,0,.42-3.2l.72-.09.34.07A13.59,13.59,0,0,1,1444.89,565.79Zm-26.41-3.41v-.06a13.53,13.53,0,0,1,.43-3.42l1,.27a12.31,12.31,0,0,0-.4,3.15Zm25.37-3.38a12.37,12.37,0,0,0-1.27-3l.91-.53a13.07,13.07,0,0,1,1.37,3.22Zm-22.7-2.82-.91-.52a13.35,13.35,0,0,1,2.12-2.79l.74.74A12.81,12.81,0,0,0,1421.15,556.18Zm19.44-2.69a12.18,12.18,0,0,0-2.57-2l.52-.91a12.73,12.73,0,0,1,2.79,2.11Zm-14.94-1.86-.53-.91a13.1,13.1,0,0,1,3.23-1.36l.28,1A12.58,12.58,0,0,0,1425.65,551.63Zm9.38-1.3a12.53,12.53,0,0,0-3.12-.4l-.09-1h.09a13.22,13.22,0,0,1,3.38.43Z"/><path class="cls-29" d="M1431.94,697h0a13.63,13.63,0,0,1-3.44-.44l.27-1a12.47,12.47,0,0,0,3.17.41Zm3.47-.46-.27-1a12.38,12.38,0,0,0,3-1.25l.53.91A13,13,0,0,1,1435.41,696.5Zm-10.18-1.31a13.48,13.48,0,0,1-2.79-2.13l.74-.75a12.49,12.49,0,0,0,2.57,2Zm16.19-2.17-.74-.75a12.52,12.52,0,0,0,2-2.56l.91.53A13.34,13.34,0,0,1,1441.42,693Zm-21.12-2.73a13.5,13.5,0,0,1-1.36-3.23l1-.27a11.93,11.93,0,0,0,1.25,3Zm24.59-3.29-1-.27a12.76,12.76,0,0,0,.41-3.2l1.06-.13v.13A13.55,13.55,0,0,1,1444.89,687Zm-26.42-3.41v-.06a13.4,13.4,0,0,1,.44-3.41l1,.26a12.31,12.31,0,0,0-.4,3.15Zm25.38-3.38a12.37,12.37,0,0,0-1.27-3l.91-.53a13.07,13.07,0,0,1,1.37,3.22Zm-22.7-2.82-.91-.52a13.93,13.93,0,0,1,2.11-2.79l.75.74A12.81,12.81,0,0,0,1421.15,677.39Zm19.44-2.69a12.44,12.44,0,0,0-2.57-2l.52-.91a13.22,13.22,0,0,1,2.79,2.11Zm-14.94-1.86-.53-.91a13.5,13.5,0,0,1,3.23-1.36l.28,1A12.25,12.25,0,0,0,1425.65,672.84Zm9.38-1.3a12.59,12.59,0,0,0-3.12-.4l-.09-1h.09a13.74,13.74,0,0,1,3.38.43Z"/><path class="cls-29" d="M1696.53,696.73h0a13.63,13.63,0,0,1-3.44-.44l.27-1a12.47,12.47,0,0,0,3.17.41Zm3.47-.46-.27-1a12.52,12.52,0,0,0,3-1.24l.53.91A13.71,13.71,0,0,1,1700,696.27ZM1689.82,695a13.35,13.35,0,0,1-2.79-2.12l.74-.75a12.85,12.85,0,0,0,2.57,2Zm16.19-2.16-.75-.75a12.22,12.22,0,0,0,2-2.56l.91.53A13.69,13.69,0,0,1,1706,692.79Zm-21.12-2.73a13.5,13.5,0,0,1-1.36-3.23l1-.28a12,12,0,0,0,1.25,3Zm24.59-3.29-1-.28a12.22,12.22,0,0,0,.42-3.2l.73-.08.32.06A13.6,13.6,0,0,1,1709.48,686.77Zm-26.42-3.41v-.07a13.52,13.52,0,0,1,.44-3.41l1,.27a12.29,12.29,0,0,0-.4,3.14Zm25.37-3.38a12.34,12.34,0,0,0-1.26-3l.91-.54a13.94,13.94,0,0,1,1.37,3.23Zm-22.69-2.82-.92-.52a14,14,0,0,1,2.12-2.79l.75.74A12.44,12.44,0,0,0,1685.74,677.16Zm19.44-2.69a12.18,12.18,0,0,0-2.57-2l.52-.92a13.39,13.39,0,0,1,2.79,2.11Zm-14.94-1.86-.53-.91a13.43,13.43,0,0,1,3.22-1.36l.28,1A12.34,12.34,0,0,0,1690.24,672.61Zm9.37-1.3a12.06,12.06,0,0,0-3.11-.4l-.09-1h.09a13.27,13.27,0,0,1,3.38.43Z"/><g class="cls-31"><path class="cls-15" d="M1699.28,1194.31a2.79,2.79,0,1,1-2.78-2.79,2.79,2.79,0,0,1,2.78,2.79"/></g><path class="cls-21" d="M1698.67,1194.91a2.18,2.18,0,1,1-2.17-2.17,2.17,2.17,0,0,1,2.17,2.17"/><path class="cls-29" d="M1696.53,1197.62h0a13.2,13.2,0,0,1-3.44-.45l.27-1a12,12,0,0,0,3.17.42Zm3.47-.46-.27-1a12.52,12.52,0,0,0,3-1.24l.53.91A13.71,13.71,0,0,1,1700,1197.16Zm-10.18-1.32a13.7,13.7,0,0,1-2.79-2.12l.74-.75a12.85,12.85,0,0,0,2.57,2Zm16.19-2.17-.75-.74a12.48,12.48,0,0,0,2-2.56l.91.52A13.42,13.42,0,0,1,1706,1193.67Zm-21.12-2.72a13.5,13.5,0,0,1-1.36-3.23l1-.28a12.15,12.15,0,0,0,1.25,3Zm24.59-3.3-1-.27a12.22,12.22,0,0,0,.42-3.2l.73-.08.32.06A13.47,13.47,0,0,1,1709.48,1187.65Zm-26.42-3.41v-.06a13.52,13.52,0,0,1,.44-3.41l1,.27a12.29,12.29,0,0,0-.4,3.14Zm25.37-3.37a12.34,12.34,0,0,0-1.26-3l.91-.54a13.94,13.94,0,0,1,1.37,3.23Zm-22.69-2.82-.92-.52a13.43,13.43,0,0,1,2.12-2.79l.75.74A12.18,12.18,0,0,0,1685.74,1178.05Zm19.44-2.7a12.48,12.48,0,0,0-2.57-1.94l.52-.92a13.39,13.39,0,0,1,2.79,2.11Zm-14.94-1.85-.53-.91a13.46,13.46,0,0,1,3.22-1.37l.28,1A12.34,12.34,0,0,0,1690.24,1173.5Zm9.37-1.31a12.5,12.5,0,0,0-3.11-.39l-.09-1h.09a13.73,13.73,0,0,1,3.38.42Z"/><path class="cls-29" d="M1129.16,715.09h0a13.2,13.2,0,0,1-3.44-.45l.27-1a12.47,12.47,0,0,0,3.17.41Zm3.47-.47-.27-1a12.35,12.35,0,0,0,3-1.24l.53.91A13.34,13.34,0,0,1,1132.63,714.62Zm-10.18-1.31a13.39,13.39,0,0,1-2.79-2.13l.75-.74a12.12,12.12,0,0,0,2.56,1.95Zm16.19-2.17-.74-.74a12.58,12.58,0,0,0,2-2.57l.91.53A13.34,13.34,0,0,1,1138.64,711.14Zm-21.12-2.73a13.5,13.5,0,0,1-1.36-3.23l1-.27a11.93,11.93,0,0,0,1.25,3Zm24.59-3.29-1-.27a12.76,12.76,0,0,0,.41-3.2l.72-.08.34.07A13.51,13.51,0,0,1,1142.11,705.12Zm-26.41-3.41v-.06a13.45,13.45,0,0,1,.43-3.41l1,.26a12.37,12.37,0,0,0-.4,3.15Zm25.37-3.37a12.37,12.37,0,0,0-1.27-3l.91-.54a13.13,13.13,0,0,1,1.37,3.23Zm-22.7-2.82-.91-.53a13.61,13.61,0,0,1,2.12-2.79l.75.75A12.23,12.23,0,0,0,1118.37,695.52Zm19.44-2.7a12.14,12.14,0,0,0-2.57-1.94l.52-.92a13.39,13.39,0,0,1,2.79,2.11ZM1122.87,691l-.53-.91a13.5,13.5,0,0,1,3.23-1.36l.28,1A12.55,12.55,0,0,0,1122.87,691Zm9.38-1.3a12.52,12.52,0,0,0-3.12-.39l-.09-1.06h.09a13.68,13.68,0,0,1,3.38.43Z"/><path class="cls-29" d="M1129.16,875.93h0a13.69,13.69,0,0,1-3.44-.44l.27-1a12.47,12.47,0,0,0,3.17.41Zm3.48-.46-.28-1a12.35,12.35,0,0,0,3-1.24l.53.91A13.47,13.47,0,0,1,1132.64,875.47Zm-10.19-1.31a13.75,13.75,0,0,1-2.79-2.13l.75-.75a12.52,12.52,0,0,0,2.56,2Zm16.19-2.17-.74-.75a12.79,12.79,0,0,0,2-2.56l.91.53A13.6,13.6,0,0,1,1138.64,872Zm-21.12-2.73a13.5,13.5,0,0,1-1.36-3.23l1-.28a12.38,12.38,0,0,0,1.25,3Zm24.59-3.29-1-.27a12.78,12.78,0,0,0,.41-3.21l.72-.08.34.07A13.16,13.16,0,0,1,1142.11,866Zm-26.41-3.41v-.07a13.37,13.37,0,0,1,.43-3.4l1,.26a12.29,12.29,0,0,0-.4,3.14Zm25.36-3.38a12,12,0,0,0-1.26-3l.91-.54a13.13,13.13,0,0,1,1.37,3.23Zm-22.69-2.82-.91-.52a13.65,13.65,0,0,1,2.11-2.79l.75.74A12.81,12.81,0,0,0,1118.37,856.36Zm19.44-2.69a12.44,12.44,0,0,0-2.57-1.95l.52-.92a13.61,13.61,0,0,1,2.79,2.12Zm-14.94-1.86-.53-.91a13.33,13.33,0,0,1,3.23-1.36l.27,1A12.34,12.34,0,0,0,1122.87,851.81Zm9.38-1.3a12.59,12.59,0,0,0-3.12-.4l-.09-1.05h.09a13.27,13.27,0,0,1,3.38.43Z"/><path class="cls-29" d="M1431.94,875.72h0a13.2,13.2,0,0,1-3.44-.45l.27-1a12,12,0,0,0,3.17.41Zm3.47-.46-.27-1a12.35,12.35,0,0,0,3-1.24l.53.91A13.37,13.37,0,0,1,1435.41,875.26Zm-10.18-1.32a13.7,13.7,0,0,1-2.79-2.12l.75-.75a12.52,12.52,0,0,0,2.56,2Zm16.19-2.17-.74-.74a12.58,12.58,0,0,0,2-2.57l.91.53A13.34,13.34,0,0,1,1441.42,871.77Zm-21.12-2.72a13.67,13.67,0,0,1-1.36-3.23l1-.28a12.15,12.15,0,0,0,1.25,3Zm24.59-3.3-1-.27a12.71,12.71,0,0,0,.41-3.2l1.06-.12v.12A13.44,13.44,0,0,1,1444.89,865.75Zm-26.42-3.41v-.06a13.52,13.52,0,0,1,.44-3.41l1,.27a12.29,12.29,0,0,0-.4,3.14Zm25.38-3.37a12.37,12.37,0,0,0-1.27-3l.91-.54a13.23,13.23,0,0,1,1.37,3.22Zm-22.7-2.82-.91-.52a13.39,13.39,0,0,1,2.11-2.79l.75.74A12.53,12.53,0,0,0,1421.15,856.15Zm19.44-2.7a12.4,12.4,0,0,0-2.57-1.94l.52-.92a13.93,13.93,0,0,1,2.79,2.11Zm-14.94-1.85-.53-.91a13.07,13.07,0,0,1,3.22-1.37l.28,1A12.34,12.34,0,0,0,1425.65,851.6Zm9.38-1.31a12.64,12.64,0,0,0-3.12-.39l-.09-1h.09a13.73,13.73,0,0,1,3.38.42Z"/><path class="cls-29" d="M1696.53,875.57h0a13.2,13.2,0,0,1-3.44-.45l.27-1a12,12,0,0,0,3.17.41Zm3.47-.46-.27-1a12.52,12.52,0,0,0,3-1.24l.53.91A13.71,13.71,0,0,1,1700,875.11Zm-10.18-1.32a13.7,13.7,0,0,1-2.79-2.12l.74-.75a12.85,12.85,0,0,0,2.57,2Zm16.19-2.17-.75-.74a12.28,12.28,0,0,0,2-2.57l.91.53A13.42,13.42,0,0,1,1706,871.62Zm-21.12-2.72a13.27,13.27,0,0,1-1.36-3.23l1-.28a11.93,11.93,0,0,0,1.25,3Zm24.59-3.29-1-.28a12.22,12.22,0,0,0,.42-3.2l1-.12v.12A13.56,13.56,0,0,1,1709.48,865.61Zm-26.42-3.42v-.06a13.52,13.52,0,0,1,.44-3.41l1,.27a12.29,12.29,0,0,0-.4,3.14Zm25.37-3.37a12.34,12.34,0,0,0-1.26-3l.91-.54a13.94,13.94,0,0,1,1.37,3.23ZM1685.74,856l-.92-.52a13.43,13.43,0,0,1,2.12-2.79l.75.74A12.18,12.18,0,0,0,1685.74,856Zm19.44-2.7a12.48,12.48,0,0,0-2.57-1.94l.52-.92a13.39,13.39,0,0,1,2.79,2.11Zm-14.94-1.86-.53-.9a13.13,13.13,0,0,1,3.23-1.37l.27,1A12.31,12.31,0,0,0,1690.24,851.44Zm9.38-1.3a12.64,12.64,0,0,0-3.12-.39l-.06-.73,0-.32h0a13.69,13.69,0,0,1,3.39.42Z"/><path class="cls-29" d="M1696.53,1035.93h0a13.63,13.63,0,0,1-3.44-.44l.27-1a12.47,12.47,0,0,0,3.17.41Zm3.47-.46-.27-1a12.52,12.52,0,0,0,3-1.24l.53.91A13.31,13.31,0,0,1,1700,1035.47Zm-10.18-1.31A13.75,13.75,0,0,1,1687,1032l.74-.75a12.15,12.15,0,0,0,2.57,2ZM1706,1032l-.75-.75a12,12,0,0,0,2-2.56l.91.53A13.69,13.69,0,0,1,1706,1032Zm-21.12-2.73a13.5,13.5,0,0,1-1.36-3.23l1-.28a11.84,11.84,0,0,0,1.25,3Zm24.59-3.29-1-.27a12.33,12.33,0,0,0,.42-3.2l1-.13v.13A13.48,13.48,0,0,1,1709.48,1026Zm-26.42-3.41v-.06a13.4,13.4,0,0,1,.44-3.41l1,.26a12.31,12.31,0,0,0-.4,3.15Zm25.37-3.38a12.34,12.34,0,0,0-1.26-3l.91-.53a13.87,13.87,0,0,1,1.37,3.22Zm-22.69-2.82-.92-.52a14,14,0,0,1,2.12-2.79l.75.74A12.44,12.44,0,0,0,1685.74,1016.36Zm19.44-2.69a12.53,12.53,0,0,0-2.57-1.95l.52-.91a12.73,12.73,0,0,1,2.79,2.11Zm-14.94-1.86-.53-.91a13.43,13.43,0,0,1,3.22-1.36l.28,1A11.93,11.93,0,0,0,1690.24,1011.81Zm9.37-1.3a12.51,12.51,0,0,0-3.11-.4l-.09-1.05h.09a13.27,13.27,0,0,1,3.38.43Z"/><path class="cls-29" d="M1431.94,1037.43h0a13.63,13.63,0,0,1-3.44-.44l.27-1a12.47,12.47,0,0,0,3.17.41Zm3.47-.46-.27-1a12.38,12.38,0,0,0,3-1.25l.53.92A13.51,13.51,0,0,1,1435.41,1037Zm-10.18-1.31a13.75,13.75,0,0,1-2.79-2.13l.75-.75a11.84,11.84,0,0,0,2.56,2Zm16.19-2.17-.74-.75a12.52,12.52,0,0,0,2-2.56l.91.53A13.34,13.34,0,0,1,1441.42,1033.49Zm-21.12-2.73a13.5,13.5,0,0,1-1.36-3.23l1-.28a11.84,11.84,0,0,0,1.25,3Zm24.59-3.29-1-.27a12.33,12.33,0,0,0,.42-3.2l.72-.09.34.08A13.57,13.57,0,0,1,1444.89,1027.47Zm-26.41-3.41V1024a13.39,13.39,0,0,1,.43-3.41l1,.26a12.31,12.31,0,0,0-.4,3.15Zm25.36-3.38a12.12,12.12,0,0,0-1.26-3l.91-.53a13.07,13.07,0,0,1,1.37,3.22Zm-22.69-2.81-.91-.53a13.61,13.61,0,0,1,2.12-2.79l.74.74A12.59,12.59,0,0,0,1421.15,1017.87Zm19.44-2.7a12.53,12.53,0,0,0-2.57-1.95l.52-.91a13.39,13.39,0,0,1,2.79,2.11Zm-14.94-1.86-.53-.91a13.5,13.5,0,0,1,3.23-1.36l.27,1A12.25,12.25,0,0,0,1425.65,1013.31Zm9.38-1.3a12.59,12.59,0,0,0-3.12-.4l-.06-.72.05-.33h0a13.69,13.69,0,0,1,3.39.43Z"/><path class="cls-29" d="M1129.16,1035.72h0a13.63,13.63,0,0,1-3.44-.44l.27-1a12.47,12.47,0,0,0,3.17.41Zm3.47-.46-.27-1a12.52,12.52,0,0,0,3-1.24l.53.91A13.14,13.14,0,0,1,1132.63,1035.26Zm-10.18-1.31a13.75,13.75,0,0,1-2.79-2.13l.75-.75a12.52,12.52,0,0,0,2.56,2Zm16.19-2.17-.74-.75a12.52,12.52,0,0,0,2-2.56l.91.53A13.34,13.34,0,0,1,1138.64,1031.78Zm-21.12-2.73a13.5,13.5,0,0,1-1.36-3.23l1-.28a12.22,12.22,0,0,0,1.25,3Zm24.59-3.29-1-.27a12.76,12.76,0,0,0,.41-3.2l.72-.09.34.08A13.14,13.14,0,0,1,1142.11,1025.76Zm-26.41-3.41v-.06a13.39,13.39,0,0,1,.43-3.41l1,.26a12.31,12.31,0,0,0-.4,3.15Zm25.37-3.38a12.37,12.37,0,0,0-1.27-3l.91-.53a13.07,13.07,0,0,1,1.37,3.22Zm-22.7-2.82-.91-.52a13.61,13.61,0,0,1,2.12-2.79l.74.74A12.81,12.81,0,0,0,1118.37,1016.15Zm19.44-2.69a12.53,12.53,0,0,0-2.57-2l.52-.91a13,13,0,0,1,2.79,2.11Zm-14.94-1.86-.53-.91a13.5,13.5,0,0,1,3.23-1.36l.27,1A12.25,12.25,0,0,0,1122.87,1011.6Zm9.38-1.3a12.59,12.59,0,0,0-3.12-.4l-.06-.72,0-.33h0a13.24,13.24,0,0,1,3.39.43Z"/><text class="cls-32" transform="matrix(1, 0, 0, 1, 1100.95, 583.83)">Mexico</text><text class="cls-33" transform="matrix(1, 0, 0, 1, 974.12, 610.35)">Lago de Chapala, Mexico’s biggest lake</text><text class="cls-32" transform="matrix(1, 0, 0, 1, 1113.11, 751.4)">USA</text><text class="cls-33" transform="matrix(1, 0, 0, 1, 1077.86, 775.65)">Lake St. Clair</text><text class="cls-32" transform="matrix(1, 0, 0, 1, 1408.99, 909.97)">Spain</text><text class="cls-33" transform="matrix(1, 0, 0, 1, 1375.46, 937.78)">Sanabria Lake</text><g class="cls-34"><path class="cls-15" d="M1136.6,1348.72a7.47,7.47,0,1,1-7.47-7.47,7.46,7.46,0,0,1,7.47,7.47"/></g><path class="cls-21" d="M1132.72,1352.6a3.59,3.59,0,1,1-3.59-3.58,3.59,3.59,0,0,1,3.59,3.58"/><path class="cls-29" d="M1129.16,1356.72h0a13.26,13.26,0,0,1-3.44-.45l.27-1a12.47,12.47,0,0,0,3.17.41Zm3.48-.46-.28-1a12.35,12.35,0,0,0,3-1.24l.53.91A13.47,13.47,0,0,1,1132.64,1356.26Zm-10.19-1.32a13.7,13.7,0,0,1-2.79-2.12l.75-.75a12.79,12.79,0,0,0,2.56,2Zm16.19-2.17-.74-.74a12.58,12.58,0,0,0,2-2.57l.91.53A13.08,13.08,0,0,1,1138.64,1352.77Zm-21.12-2.72a13.67,13.67,0,0,1-1.36-3.23l1-.28a11.93,11.93,0,0,0,1.25,3Zm24.59-3.3-1-.27a12.71,12.71,0,0,0,.41-3.2l1.06-.12v.12A13.44,13.44,0,0,1,1142.11,1346.75Zm-26.42-3.41v-.06a13.46,13.46,0,0,1,.44-3.41l1,.27a12.23,12.23,0,0,0-.4,3.14Zm25.38-3.37a12.62,12.62,0,0,0-1.27-3l.91-.53a13.07,13.07,0,0,1,1.37,3.22Zm-22.7-2.82-.92-.52a13.43,13.43,0,0,1,2.12-2.79l.75.74A12.18,12.18,0,0,0,1118.37,1337.15Zm19.44-2.7a12.53,12.53,0,0,0-2.57-2l.52-.91a13.39,13.39,0,0,1,2.79,2.11Zm-14.94-1.86-.53-.9a13.07,13.07,0,0,1,3.22-1.37l.29,1A12.22,12.22,0,0,0,1122.87,1332.59Zm9.38-1.3a12.58,12.58,0,0,0-3.12-.39l-.09-1.06h.09a13.74,13.74,0,0,1,3.38.43Z"/><g class="cls-35"><path class="cls-15" d="M1433.81,1354.29a1.9,1.9,0,1,1-1.9-1.91,1.9,1.9,0,0,1,1.9,1.91"/></g><path class="cls-21" d="M1433.55,1354.55a1.64,1.64,0,1,1-1.64-1.65,1.64,1.64,0,0,1,1.64,1.65"/><path class="cls-29" d="M1431.94,1356.72h0a13.26,13.26,0,0,1-3.44-.45l.27-1a12.47,12.47,0,0,0,3.17.41Zm3.48-.46-.28-1a12.35,12.35,0,0,0,3-1.24l.53.91A13.64,13.64,0,0,1,1435.42,1356.26Zm-10.19-1.32a13.7,13.7,0,0,1-2.79-2.12l.75-.75a12.79,12.79,0,0,0,2.56,2Zm16.19-2.17-.74-.74a12.58,12.58,0,0,0,2-2.57l.91.53A13.08,13.08,0,0,1,1441.42,1352.77Zm-21.12-2.72a13.67,13.67,0,0,1-1.36-3.23l1-.28a11.93,11.93,0,0,0,1.25,3Zm24.59-3.3-1-.27a12.71,12.71,0,0,0,.41-3.2l1.06-.12v.12A13.44,13.44,0,0,1,1444.89,1346.75Zm-26.42-3.41v-.06a13.46,13.46,0,0,1,.44-3.41l1,.27a12.23,12.23,0,0,0-.4,3.14Zm25.37-3.38a12.34,12.34,0,0,0-1.26-3l.91-.53a13.46,13.46,0,0,1,1.37,3.22Zm-22.69-2.81-.92-.52a13.43,13.43,0,0,1,2.12-2.79l.75.73A12.51,12.51,0,0,0,1421.15,1337.15Zm19.44-2.7a12.53,12.53,0,0,0-2.57-2l.52-.91a13.39,13.39,0,0,1,2.79,2.11Zm-14.94-1.86-.54-.9a13.3,13.3,0,0,1,3.23-1.37l.28,1A12.31,12.31,0,0,0,1425.65,1332.59Zm9.38-1.3a12.64,12.64,0,0,0-3.12-.39l-.06-.73,0-.33h0a13.76,13.76,0,0,1,3.39.43Z"/><text class="cls-32" transform="matrix(1, 0, 0, 1, 1079.16, 1393)">South Africa</text><text class="cls-33" transform="matrix(1, 0, 0, 1, 1079.04, 1419.27)">Lake Sibhayi</text><text class="cls-32" transform="matrix(1, 0, 0, 1, 1398.49, 1393)">Ethiopia</text><text class="cls-33" transform="matrix(1, 0, 0, 1, 1350.78, 1419.17)">100 times Hayk Lake</text><text class="cls-32" transform="matrix(1, 0, 0, 1, 1655.22, 1071.72)">Venezuela</text><text class="cls-33" transform="matrix(1, 0, 0, 1, 1585.22, 1099.77)">500 times El pueblito’s dam</text><text class="cls-32" transform="matrix(1, 0, 0, 1, 1395.57, 1071.72)">Australia</text><text class="cls-33" transform="matrix(1, 0, 0, 1, 1328.6, 1099.79)">5 times lake Burley Griffin</text><text class="cls-32" transform="matrix(1, 0, 0, 1, 1087.65, 1071.72)">Cameroon</text><text class="cls-33" transform="matrix(1, 0, 0, 1, 1086.13, 1099.99)">Lake Nylos</text><text class="cls-32" transform="matrix(1, 0, 0, 1, 1109.6, 909.97)">Haiti</text><text class="cls-36" transform="matrix(1.2, 0, 0, 1, 1078.74, 936.18)">One month <tspan x="-53.02" y="19.08">Artiboide river’s water flow</tspan></text><text class="cls-32" transform="matrix(1, 0, 0, 1, 1351.86, 452.75)">Dominican Republic</text><text class="cls-37" transform="matrix(1, 0, 0, 1, 1341.67, 482.43)">2 times Tavera’s dam, <tspan x="-37.2" y="21.6">main idric resource in Santiago</tspan></text><text class="cls-32" transform="matrix(1, 0, 0, 1, 1673.28, 596.46)">Brazil</text><text class="cls-37" transform="matrix(1, 0, 0, 1, 1625.21, 622.28)">30 times Rodrigo <tspan x="-1.11" y="21.6">de Freitas’ laguna</tspan></text><text class="cls-32" transform="matrix(1, 0, 0, 1, 1631.69, 909.97)">DR of the Congo</text><text class="cls-33" transform="matrix(1, 0, 0, 1, 1578.62, 937.78)">100 times the irrigated water <tspan x="9.58" y="20">withdrawal area each year </tspan><tspan x="54.15" y="40">in Nile in Congo</tspan></text><text class="cls-32" transform="matrix(1, 0, 0, 1, 1677.84, 453.22)">Peru</text><text class="cls-37" transform="matrix(1, 0, 0, 1, 1615.64, 482.31)">100 times Blue Lake</text><text class="cls-32" transform="matrix(1, 0, 0, 1, 1391.93, 596.21)">Indonesia</text><text class="cls-37" transform="matrix(1, 0, 0, 1, 1388.29, 622.18)">Lake Batur</text><text class="cls-32" transform="matrix(1, 0, 0, 1, 1090.72, 1233.12)">Colombia</text><text class="cls-33" transform="matrix(1, 0, 0, 1, 1042.4, 1259.51)">El Quimbo water dam</text><text class="cls-32" transform="matrix(1, 0, 0, 1, 1406.83, 1233.12)">Kenya</text><text class="cls-33" transform="matrix(1, 0, 0, 1, 1345.2, 1260.36)">Total annual avaiable<tspan x="26.76" y="21">water resource</tspan></text><text class="cls-32" transform="matrix(1, 0, 0, 1, 1673.62, 1233.11)">Israel</text><text class="cls-33" transform="matrix(1, 0, 0, 1, 1658.77, 1259.79)">4 months<tspan x="-34.75" y="21">Jordan river’s flow</tspan></text><text class="cls-32" transform="matrix(1, 0, 0, 1, 1673.51, 751.37)">China</text><text class="cls-33" transform="matrix(1, 0, 0, 1, 1663.17, 775.67)">10 times<tspan x="-6.85" y="21.6">West Lake</tspan></text><text class="cls-32" transform="matrix(1, 0, 0, 1, 1411.84, 750.53)">Chile</text><text class="cls-33" transform="matrix(1, 0, 0, 1, 1345.35, 775.65)">15 years of water flow<tspan x="30.44" y="21.6">in Rio Petorca</tspan></text><path class="cls-29" d="M1129.11,555.51h0a13.75,13.75,0,0,1-3.44-.44l.27-1a12.53,12.53,0,0,0,3.17.41Zm3.48-.46-.28-1a12.19,12.19,0,0,0,3-1.24l.53.91A13.08,13.08,0,0,1,1132.59,555.05Zm-10.19-1.31a13.42,13.42,0,0,1-2.78-2.13l.74-.75a12.58,12.58,0,0,0,2.57,2Zm16.2-2.17-.75-.75a12.56,12.56,0,0,0,2-2.56l.91.53A14,14,0,0,1,1138.6,551.57Zm-21.13-2.73a13.47,13.47,0,0,1-1.35-3.23l1-.28a12.62,12.62,0,0,0,1.25,3Zm24.6-3.29-1-.27a12.33,12.33,0,0,0,.42-3.2l.71-.09.34.08A13.56,13.56,0,0,1,1142.07,545.55Zm-26.13-3.43-.29,0a13.43,13.43,0,0,1,.43-3.43l1,.26a12.77,12.77,0,0,0-.4,3.15Zm25.08-3.36a12.37,12.37,0,0,0-1.27-3l.91-.53a13.07,13.07,0,0,1,1.37,3.22Zm-22.7-2.82-.91-.52a13.61,13.61,0,0,1,2.12-2.79l.75.74A12.49,12.49,0,0,0,1118.32,535.94Zm19.45-2.69a12.51,12.51,0,0,0-2.58-2l.52-.92a13.41,13.41,0,0,1,2.8,2.12Zm-15-1.86-.53-.91a13.5,13.5,0,0,1,3.23-1.36l.28,1A12.58,12.58,0,0,0,1122.82,531.39Zm9.38-1.3a12.53,12.53,0,0,0-3.12-.4l-.09-1.05h.09a13.22,13.22,0,0,1,3.38.43Z"/><path class="cls-16" d="M1132.38,1031.48a3.25,3.25,0,1,1-3.25-3.24,3.25,3.25,0,0,1,3.25,3.24"/><text class="cls-38" transform="matrix(1, 0, 0, 1, 239.92, 583.93)">M<tspan class="cls-39" x="13.93" y="0">e</tspan><tspan x="23.22" y="0">xi</tspan><tspan class="cls-40" x="37.19" y="0">c</tspan><tspan x="45.2" y="0">o</tspan></text><text class="cls-33" transform="matrix(1, 0, 0, 1, 191.34, 612.41)">2 times Mexico City</text><g class="cls-41"><path class="cls-42" d="M356.87,466.76a87.94,87.94,0,1,1-87.94-87.93,87.94,87.94,0,0,1,87.94,87.93"/></g><path class="cls-43" d="M337.5,486.14a68.57,68.57,0,1,1-68.57-68.56,68.56,68.56,0,0,1,68.57,68.56"/><path class="cls-29" d="M267.36,554.63c-.48,0-1,0-1.43,0l0-.87a26.9,26.9,0,0,0,2.84,0l0,.87C268.36,554.62,267.86,554.63,267.36,554.63Zm-4.35-.35a25.57,25.57,0,0,1-2.86-.62l.24-.85a23.41,23.41,0,0,0,2.76.61Zm8.76,0-.15-.86a25.26,25.26,0,0,0,2.77-.61l.23.84A27.29,27.29,0,0,1,271.77,554.27Zm-14.4-1.54a29.09,29.09,0,0,1-2.66-1.23l.41-.77a25,25,0,0,0,2.58,1.18Zm20,0-.33-.81a27.42,27.42,0,0,0,2.58-1.2l.41.77A26.72,26.72,0,0,1,277.4,552.71ZM252.2,550a28,28,0,0,1-2.33-1.77l.56-.67a27.93,27.93,0,0,0,2.26,1.71Zm30.36,0-.49-.72a26.91,26.91,0,0,0,2.26-1.72l.56.66A27,27,0,0,1,282.56,550Zm-34.82-3.76a26.8,26.8,0,0,1-1.9-2.22l.69-.53c.58.74,1.19,1.47,1.84,2.15Zm39.28,0-.64-.6c.65-.69,1.27-1.42,1.84-2.16l.7.53A28.68,28.68,0,0,1,287,546.17Zm-42.83-4.61a29.24,29.24,0,0,1-1.38-2.59l.8-.37a24.08,24.08,0,0,0,1.33,2.51Zm46.37,0-.75-.45c.48-.8.93-1.65,1.33-2.5l.79.37A27.65,27.65,0,0,1,290.56,541.51Zm-48.84-5.26a27.36,27.36,0,0,1-.78-2.82l.85-.19a25,25,0,0,0,.76,2.73Zm51.3,0-.83-.27c.3-.9.55-1.82.76-2.74l.85.19A27.36,27.36,0,0,1,293,536.2Zm-52.56-5.66a28.26,28.26,0,0,1-.16-2.92h.87c0,.94.06,1.9.16,2.83Zm53.81,0-.87-.09a27,27,0,0,0,.15-2.83l.88-.11v.11A28.57,28.57,0,0,1,294.27,530.49Zm-52.95-5.7-.87-.09a28,28,0,0,1,.46-2.89l.86.18A26.33,26.33,0,0,0,241.32,524.79Zm52.07-.16a24.25,24.25,0,0,0-.47-2.79l.86-.19a28.35,28.35,0,0,1,.48,2.88Zm-50.87-5.37-.83-.28a25.82,25.82,0,0,1,1.08-2.73l.79.37A26.31,26.31,0,0,0,242.52,519.26Zm49.64-.15c-.31-.9-.67-1.78-1.06-2.63l.79-.37a29,29,0,0,1,1.1,2.71Zm-47.27-5-.75-.45a26.36,26.36,0,0,1,1.64-2.42l.69.53A25.93,25.93,0,0,0,244.89,514.11Zm44.87-.13c-.49-.8-1-1.59-1.6-2.34l.69-.53a26.46,26.46,0,0,1,1.65,2.42Zm-41.45-4.38-.64-.6a29,29,0,0,1,2.12-2l.57.67A25.23,25.23,0,0,0,248.31,509.6Zm38-.11a23.53,23.53,0,0,0-2.06-1.94l.56-.67a27,27,0,0,1,2.14,2Zm-33.7-3.57-.49-.72a26.42,26.42,0,0,1,2.5-1.52l.41.77C254.2,504.9,253.39,505.39,252.61,505.92Zm29.38-.08a27.42,27.42,0,0,0-2.43-1.46l.4-.77a27.88,27.88,0,0,1,2.52,1.5Zm-24.39-2.58-.33-.81a27.6,27.6,0,0,1,2.78-.95l.23.84A27.3,27.3,0,0,0,257.6,503.26ZM277,503.2a25,25,0,0,0-2.69-.9l.23-.84a26.66,26.66,0,0,1,2.78.93Zm-13.93-1.47-.14-.86a25.89,25.89,0,0,1,2.91-.32l0,.87A26.53,26.53,0,0,0,263.05,501.73Zm8.47,0a26.69,26.69,0,0,0-2.82-.3l.05-.87a28.4,28.4,0,0,1,2.91.3Z"/><text class="cls-44" transform="matrix(1, 0, 0, 1, 709.92, 245.93)">Country</text><text class="cls-45" transform="matrix(1, 0, 0, 1, 673.62, 257.41)">Country internal comparison</text><text class="cls-46" transform="matrix(1, 0, 0, 1, 105.62, 381.41)">297,000 ha</text><text class="cls-46" transform="matrix(1, 0, 0, 1, 105.62, 417.41)">180,536 ha</text><text class="cls-47" transform="matrix(1, 0, 0, 1, 105.62, 534.41)"><tspan class="cls-48">Grand Paradiso <tspan x="0" y="16.8">National Park</tspan></tspan><tspan class="cls-49"><tspan x="0" y="33.6">71,040 ha</tspan></tspan></text><text class="cls-46" transform="matrix(1, 0, 0, 1, 953.62, 381.41)">8,300,000,000 m</text><text class="cls-46" transform="matrix(0.58, 0, 0, 0.58, 1054.11, 377.08)">3</text><text class="cls-46" transform="matrix(1, 0, 0, 1, 953.62, 471.41)">2,099,072,294 m</text><text class="cls-46" transform="matrix(0.58, 0, 0, 0.58, 1048.81, 467.06)">3</text><text class="cls-46" transform="matrix(1, 0, 0, 1, 953.62, 547.41)">Trasimeno Lake<tspan x="0" y="16.8">586,000,000 m</tspan></text><text class="cls-46" transform="matrix(0.58, 0, 0, 0.58, 1043.1, 559.85)">3</text><path class="cls-50" d="M819.87,135.76a87.94,87.94,0,1,1-87.94-87.93,87.94,87.94,0,0,1,87.94,87.93"/><rect class="cls-1" x="644" y="47.83" width="175.87" height="175.88"/><path class="cls-51" d="M800.5,155.14a68.57,68.57,0,1,1-68.57-68.56,68.56,68.56,0,0,1,68.57,68.56"/><path class="cls-29" d="M730.36,223.63c-.48,0-1,0-1.43,0l0-.87a26.9,26.9,0,0,0,2.84,0l0,.87C731.36,223.62,730.86,223.63,730.36,223.63Zm-4.35-.35a25.57,25.57,0,0,1-2.86-.62l.24-.85a23.41,23.41,0,0,0,2.76.61Zm8.76,0-.15-.86a25.26,25.26,0,0,0,2.77-.61l.23.84A27.29,27.29,0,0,1,734.77,223.27Zm-14.4-1.54a29.09,29.09,0,0,1-2.66-1.23l.41-.77a25,25,0,0,0,2.58,1.18Zm20,0-.33-.81a27.42,27.42,0,0,0,2.58-1.2l.41.77A26.72,26.72,0,0,1,740.4,221.71ZM715.2,219a28,28,0,0,1-2.33-1.77l.56-.67a27.93,27.93,0,0,0,2.26,1.71Zm30.36,0-.49-.72a26.91,26.91,0,0,0,2.26-1.72l.56.66A27,27,0,0,1,745.56,219Zm-34.82-3.76a26.8,26.8,0,0,1-1.9-2.22l.69-.53c.58.74,1.19,1.47,1.84,2.15Zm39.28,0-.64-.6c.65-.69,1.27-1.42,1.84-2.16l.7.53A28.68,28.68,0,0,1,750,215.17Zm-42.83-4.61a29.24,29.24,0,0,1-1.38-2.59l.8-.37a24.08,24.08,0,0,0,1.33,2.51Zm46.37-.05-.75-.45c.48-.8.93-1.65,1.33-2.5l.79.37A27.65,27.65,0,0,1,753.56,210.51Zm-48.84-5.26a27.36,27.36,0,0,1-.78-2.82l.85-.19a25,25,0,0,0,.76,2.73Zm51.3-.05-.83-.27c.3-.9.55-1.82.76-2.74l.85.19A27.36,27.36,0,0,1,756,205.2Zm-52.56-5.66a28.26,28.26,0,0,1-.16-2.92h.87c0,.94.06,1.9.16,2.83Zm53.81,0-.87-.09a27,27,0,0,0,.15-2.83l.88-.11v.11A28.57,28.57,0,0,1,757.27,199.49Zm-52.95-5.7-.87-.09a28,28,0,0,1,.46-2.89l.86.18A26.33,26.33,0,0,0,704.32,193.79Zm52.07-.16a24.25,24.25,0,0,0-.47-2.79l.86-.19a28.35,28.35,0,0,1,.48,2.88Zm-50.87-5.37-.83-.28a25.82,25.82,0,0,1,1.08-2.73l.79.37A26.31,26.31,0,0,0,705.52,188.26Zm49.64-.15c-.31-.9-.67-1.78-1.06-2.63l.79-.37a29,29,0,0,1,1.1,2.71Zm-47.27-5-.75-.45a26.36,26.36,0,0,1,1.64-2.42l.69.53A25.93,25.93,0,0,0,707.89,183.11Zm44.87-.13c-.49-.8-1-1.59-1.6-2.34l.69-.53a26.46,26.46,0,0,1,1.65,2.42Zm-41.45-4.38-.64-.6a29,29,0,0,1,2.12-2l.57.67A25.23,25.23,0,0,0,711.31,178.6Zm38-.11a23.53,23.53,0,0,0-2.06-1.94l.56-.67a27,27,0,0,1,2.14,2Zm-33.7-3.57-.49-.72a26.42,26.42,0,0,1,2.5-1.52l.41.77C717.2,173.9,716.39,174.39,715.61,174.92Zm29.38-.08a27.42,27.42,0,0,0-2.43-1.46l.4-.77a27.88,27.88,0,0,1,2.52,1.5Zm-24.39-2.58-.33-.81a27.6,27.6,0,0,1,2.78-.95l.23.84A27.3,27.3,0,0,0,720.6,172.26ZM740,172.2a25,25,0,0,0-2.69-.9l.23-.84a26.66,26.66,0,0,1,2.78.93Zm-13.93-1.47-.14-.86a25.89,25.89,0,0,1,2.91-.32l0,.87A26.53,26.53,0,0,0,726.05,170.73Zm8.47,0a26.69,26.69,0,0,0-2.82-.3l0-.87a28.4,28.4,0,0,1,2.91.3Z"/><text class="cls-38" transform="matrix(1, 0, 0, 1, 442.93, 452.09)">Dominican Republic</text><text class="cls-37" transform="matrix(1, 0, 0, 1, 419.39, 480.99)">Los Haities National Park </text><g class="cls-52"><path class="cls-42" d="M538,410.83a13.59,13.59,0,1,1-13.59-13.59A13.59,13.59,0,0,1,538,410.83"/></g><path class="cls-53" d="M529.91,419a5.48,5.48,0,1,1-5.48-5.48,5.49,5.49,0,0,1,5.48,5.48"/><path class="cls-29" d="M524.43,424.3c-.48,0-1,0-1.44,0l0-.87a26.72,26.72,0,0,0,2.83,0l0,.87C525.43,424.29,524.93,424.3,524.43,424.3Zm-4.35-.35a25.57,25.57,0,0,1-2.86-.62l.23-.84a26.28,26.28,0,0,0,2.77.6Zm8.75,0-.14-.86a26.32,26.32,0,0,0,2.77-.61l.23.85A26.9,26.9,0,0,1,528.83,423.94Zm-14.39-1.54a27.9,27.9,0,0,1-2.66-1.23l.41-.77a24.8,24.8,0,0,0,2.57,1.18Zm20,0-.33-.81a26.13,26.13,0,0,0,2.57-1.2l.41.77A26.56,26.56,0,0,1,534.47,422.38Zm-25.2-2.72a26.46,26.46,0,0,1-2.33-1.77l.56-.67a26.91,26.91,0,0,0,2.26,1.72Zm30.36,0-.49-.72a25.23,25.23,0,0,0,2.25-1.72l.57.67A28.56,28.56,0,0,1,539.63,419.63Zm-34.82-3.75a28.68,28.68,0,0,1-1.9-2.23l.69-.53a25.13,25.13,0,0,0,1.84,2.15Zm39.28,0-.64-.6c.65-.69,1.27-1.42,1.84-2.16l.69.53A26.53,26.53,0,0,1,544.09,415.84Zm-42.83-4.61a27.91,27.91,0,0,1-1.38-2.59l.8-.36a25,25,0,0,0,1.33,2.5Zm46.37,0-.75-.46a27.07,27.07,0,0,0,1.33-2.5l.79.37A29.14,29.14,0,0,1,547.63,411.19Zm-48.84-5.27c-.31-.92-.57-1.87-.79-2.82l.86-.19a25,25,0,0,0,.76,2.73Zm51.29,0-.82-.28a25.79,25.79,0,0,0,.75-2.74l.86.19A28.32,28.32,0,0,1,550.08,405.88Zm-52.55-5.67a25.72,25.72,0,0,1-.16-2.92h.87a24.28,24.28,0,0,0,.16,2.83Zm53.81,0-.87-.09a26.83,26.83,0,0,0,.15-2.83l.6-.08.27.06A28.65,28.65,0,0,1,551.34,400.16Zm-53-5.7-.87-.09a25.56,25.56,0,0,1,.46-2.89l.86.18A24,24,0,0,0,498.39,394.46Zm52.07-.16a26.63,26.63,0,0,0-.47-2.79l.85-.19a25.64,25.64,0,0,1,.49,2.89Zm-50.87-5.37-.83-.28a25.82,25.82,0,0,1,1.08-2.73l.79.37A26.31,26.31,0,0,0,499.59,388.93Zm49.63-.15a24.07,24.07,0,0,0-1.06-2.63l.79-.37a25.77,25.77,0,0,1,1.1,2.72Zm-47.27-5-.74-.45a24.49,24.49,0,0,1,1.64-2.42l.69.53C503,382.19,502.44,383,502,383.78Zm44.87-.13a25.5,25.5,0,0,0-1.6-2.34l.7-.53a27.91,27.91,0,0,1,1.65,2.42Zm-41.45-4.38-.63-.6a29,29,0,0,1,2.12-2l.57.67A27.12,27.12,0,0,0,505.37,379.27Zm38-.11a26.88,26.88,0,0,0-2.06-1.94l.56-.67a26.93,26.93,0,0,1,2.13,2Zm-33.7-3.57-.49-.72a26.42,26.42,0,0,1,2.5-1.52l.41.78A25.9,25.9,0,0,0,509.68,375.59Zm29.38-.08a27.58,27.58,0,0,0-2.44-1.46l.41-.77a27.88,27.88,0,0,1,2.52,1.5Zm-24.39-2.58-.33-.81a27.42,27.42,0,0,1,2.77-.95l.24.84A27.3,27.3,0,0,0,514.67,372.93Zm19.38-.06a25.72,25.72,0,0,0-2.69-.9l.23-.84a26.66,26.66,0,0,1,2.78.93Zm-13.93-1.47-.14-.86a25.64,25.64,0,0,1,2.91-.32l0,.87A26.53,26.53,0,0,0,520.12,371.4Zm8.47,0a26.69,26.69,0,0,0-2.82-.3l0-.87a28.4,28.4,0,0,1,2.91.3Z"/><text class="cls-38" transform="matrix(1, 0, 0, 1, 483.55, 596.26)">Indonesia</text><text class="cls-37" transform="matrix(1, 0, 0, 1, 495.17, 619.98)">Jakarta</text><path class="cls-42" d="M539.52,560.24A15.57,15.57,0,1,1,524,544.68a15.57,15.57,0,0,1,15.57,15.56"/><path class="cls-53" d="M533.18,566.58a9.23,9.23,0,1,1-9.23-9.23,9.23,9.23,0,0,1,9.23,9.23"/><path class="cls-29" d="M524,576.25c-.48,0-1,0-1.44,0l0-.87a26.71,26.71,0,0,0,2.83,0l.05.88C525,576.23,524.45,576.25,524,576.25Zm-4.35-.35c-1-.16-1.92-.37-2.86-.62l.23-.85a26.32,26.32,0,0,0,2.77.61Zm8.75,0-.14-.86c.93-.16,1.87-.36,2.77-.61l.23.84A26.92,26.92,0,0,1,528.35,575.89ZM514,574.34a26.64,26.64,0,0,1-2.66-1.23l.41-.77a27.17,27.17,0,0,0,2.57,1.19Zm20,0-.33-.81a26.06,26.06,0,0,0,2.57-1.19l.41.77A26.48,26.48,0,0,1,534,574.32Zm-25.2-2.71a26.57,26.57,0,0,1-2.33-1.78l.56-.66a24.82,24.82,0,0,0,2.26,1.71Zm30.36,0-.49-.73a25.12,25.12,0,0,0,2.25-1.71l.57.66A27,27,0,0,1,539.15,571.58Zm-34.82-3.76a25.39,25.39,0,0,1-1.9-2.23l.69-.53a25.27,25.27,0,0,0,1.84,2.16Zm39.28,0-.64-.6a27,27,0,0,0,1.84-2.17l.69.53A26.66,26.66,0,0,1,543.61,567.79Zm-42.83-4.62a27.74,27.74,0,0,1-1.38-2.58l.8-.37a23.94,23.94,0,0,0,1.33,2.5Zm46.37,0-.75-.45c.48-.81.93-1.65,1.33-2.5l.79.36A26.61,26.61,0,0,1,547.15,563.13Zm-48.84-5.26a27.36,27.36,0,0,1-.78-2.82l.85-.19a25.66,25.66,0,0,0,.76,2.73Zm51.3,0-.83-.28a25.62,25.62,0,0,0,.75-2.73l.86.19A27.36,27.36,0,0,1,549.61,557.82Zm-52.56-5.66a25.85,25.85,0,0,1-.16-2.92h.87a24.41,24.41,0,0,0,.16,2.83Zm53.81,0L550,552a26.83,26.83,0,0,0,.15-2.83v-.11H551v.11A28.75,28.75,0,0,1,550.86,552.11Zm-52.95-5.71-.87-.09a26.3,26.3,0,0,1,.46-2.89l.86.19A22.2,22.2,0,0,0,497.91,546.4Zm52.07-.16a26.63,26.63,0,0,0-.47-2.79l.86-.19a28.09,28.09,0,0,1,.48,2.89Zm-50.87-5.37-.83-.27a25.82,25.82,0,0,1,1.08-2.73l.79.37A27.11,27.11,0,0,0,499.11,540.87Zm49.63-.15a24.91,24.91,0,0,0-1.06-2.63l.8-.37a26.59,26.59,0,0,1,1.09,2.72Zm-47.27-5-.74-.45a26.36,26.36,0,0,1,1.64-2.42l.69.52A26.89,26.89,0,0,0,501.47,535.73Zm44.87-.13a23,23,0,0,0-1.6-2.34l.7-.53a26.31,26.31,0,0,1,1.65,2.41Zm-41.45-4.38-.63-.6a27.11,27.11,0,0,1,2.12-2l.57.66A27.35,27.35,0,0,0,504.89,531.22Zm38-.11a27,27,0,0,0-2.06-2l.56-.66a25.09,25.09,0,0,1,2.13,2Zm-33.7-3.57-.5-.72a27.92,27.92,0,0,1,2.51-1.52l.41.77A26.87,26.87,0,0,0,509.2,527.54Zm29.37-.09c-.78-.52-1.6-1-2.43-1.45l.41-.78a27.82,27.82,0,0,1,2.51,1.51Zm-24.38-2.58-.33-.81a27.36,27.36,0,0,1,2.77-.94l.24.84A27.24,27.24,0,0,0,514.19,524.87Zm19.38,0a25.72,25.72,0,0,0-2.69-.9l.23-.84a25.13,25.13,0,0,1,2.78.92Zm-13.93-1.47-.15-.87a28.45,28.45,0,0,1,2.91-.32l.05.87A26.55,26.55,0,0,0,519.64,523.35Zm8.47,0a24.28,24.28,0,0,0-2.82-.29l0-.88a27.84,27.84,0,0,1,2.91.31Z"/><text class="cls-38" transform="matrix(1, 0, 0, 1, 229.27, 1232.81)">Colombia</text><text class="cls-33" transform="matrix(1, 0, 0, 1, 201.7, 1258.76)">Serranilla Island</text><path class="cls-42" d="M291.55,1172.76a23.88,23.88,0,1,1-23.88-23.87,23.88,23.88,0,0,1,23.88,23.87"/><path class="cls-53" d="M280.59,1183.72a12.92,12.92,0,1,1-12.92-12.91,12.91,12.91,0,0,1,12.92,12.91"/><path class="cls-29" d="M267.67,1197.08c-.48,0-1,0-1.44,0l0-.87a26.9,26.9,0,0,0,2.84,0l0,.88C268.67,1197.06,268.17,1197.08,267.67,1197.08Zm-4.35-.35a28.06,28.06,0,0,1-2.86-.63l.23-.84a26.32,26.32,0,0,0,2.77.61Zm8.76,0-.15-.86c.93-.16,1.87-.36,2.77-.61l.23.84A27.29,27.29,0,0,1,272.08,1196.72Zm-14.4-1.55A29,29,0,0,1,255,1194l.41-.78a26.23,26.23,0,0,0,2.58,1.19Zm20,0-.33-.81a27.34,27.34,0,0,0,2.58-1.19l.41.77A26.64,26.64,0,0,1,277.71,1195.15Zm-25.2-2.71c-.8-.55-1.58-1.14-2.33-1.77l.56-.67a27.93,27.93,0,0,0,2.26,1.71Zm30.36,0-.49-.73a26.79,26.79,0,0,0,2.26-1.71l.56.66A27,27,0,0,1,282.87,1192.41Zm-34.82-3.76a25.39,25.39,0,0,1-1.9-2.23l.69-.53a27.21,27.21,0,0,0,1.84,2.16Zm39.28,0-.64-.6c.65-.69,1.27-1.42,1.84-2.16l.7.52A27.08,27.08,0,0,1,287.33,1188.62ZM244.5,1184a29.24,29.24,0,0,1-1.38-2.59l.8-.37a23.94,23.94,0,0,0,1.33,2.5Zm46.37,0-.75-.45c.48-.8.93-1.65,1.33-2.5l.79.36A26.61,26.61,0,0,1,290.87,1184ZM242,1178.7a27.36,27.36,0,0,1-.78-2.82l.85-.19a25.66,25.66,0,0,0,.76,2.73Zm51.3,0-.83-.28a28.27,28.27,0,0,0,.76-2.73l.85.19A27.36,27.36,0,0,1,293.33,1178.65ZM240.77,1173a28.41,28.41,0,0,1-.16-2.92h.87c0,.94.06,1.89.16,2.83Zm53.81,0-.87-.1a26.83,26.83,0,0,0,.15-2.83l.88-.11v.11A28.76,28.76,0,0,1,294.58,1172.94Zm-52.95-5.7-.87-.1a28.92,28.92,0,0,1,.46-2.89l.86.19A26.33,26.33,0,0,0,241.63,1167.24Zm52.07-.16a26.38,26.38,0,0,0-.47-2.8l.86-.19a28.09,28.09,0,0,1,.48,2.89Zm-50.87-5.38-.83-.27a25.82,25.82,0,0,1,1.08-2.73l.79.37A27.11,27.11,0,0,0,242.83,1161.7Zm49.64-.15c-.31-.89-.67-1.78-1.06-2.63l.79-.37a29.17,29.17,0,0,1,1.1,2.72Zm-47.27-5-.75-.45a28,28,0,0,1,1.64-2.43l.69.53A24.73,24.73,0,0,0,245.2,1156.56Zm44.87-.13a26.83,26.83,0,0,0-1.6-2.34l.69-.53a26.31,26.31,0,0,1,1.65,2.41Zm-41.45-4.38-.64-.6a29,29,0,0,1,2.12-2l.57.66A27.2,27.2,0,0,0,248.62,1152.05Zm38-.11a27,27,0,0,0-2.06-2l.56-.66a25.09,25.09,0,0,1,2.13,2Zm-33.7-3.57-.49-.72a26.42,26.42,0,0,1,2.5-1.52l.41.77A26.87,26.87,0,0,0,252.92,1148.37Zm29.38-.09c-.79-.52-1.6-1-2.44-1.45l.41-.77a25.73,25.73,0,0,1,2.52,1.5Zm-24.39-2.58-.33-.81a27.36,27.36,0,0,1,2.77-.94l.24.84A27.24,27.24,0,0,0,257.91,1145.7Zm19.38,0a25.72,25.72,0,0,0-2.69-.9l.23-.84a24.45,24.45,0,0,1,2.78.92Zm-13.93-1.47-.14-.86a28.15,28.15,0,0,1,2.91-.33l0,.88A24.14,24.14,0,0,0,263.36,1144.18Zm8.47,0a26.41,26.41,0,0,0-2.82-.29l0-.88a27.84,27.84,0,0,1,2.91.31Z"/><text class="cls-38" transform="matrix(1, 0, 0, 1, 499.93, 1232.86)"><tspan class="cls-54">K</tspan><tspan x="10.17" y="0">e</tspan><tspan class="cls-55" x="19.69" y="0">n</tspan><tspan x="29.57" y="0">ya</tspan></text><text class="cls-56" transform="matrix(1, 0, 0, 1, 475.41, 1258.76)">National Park<tspan class="cls-57"><tspan x="7.42" y="21.6">Masai Mara</tspan></tspan></text><path class="cls-42" d="M532.52,1188.68a8.13,8.13,0,1,1-8.13-8.13,8.13,8.13,0,0,1,8.13,8.13"/><path class="cls-58" d="M529,1192.2a4.61,4.61,0,1,1-4.61-4.62,4.61,4.61,0,0,1,4.61,4.62"/><path class="cls-58" d="M529,1192.2a4.61,4.61,0,1,1-4.61-4.62,4.61,4.61,0,0,1,4.61,4.62"/><path class="cls-58" d="M529,1192.2a4.61,4.61,0,1,1-4.61-4.62,4.61,4.61,0,0,1,4.61,4.62"/><path class="cls-58" d="M529,1192.2a4.61,4.61,0,1,1-4.61-4.62,4.61,4.61,0,0,1,4.61,4.62"/><path class="cls-58" d="M529,1192.2a4.61,4.61,0,1,1-4.61-4.62,4.61,4.61,0,0,1,4.61,4.62"/><path class="cls-58" d="M529,1192.2a4.61,4.61,0,1,1-4.61-4.62,4.61,4.61,0,0,1,4.61,4.62"/><path class="cls-58" d="M529,1192.2a4.61,4.61,0,1,1-4.61-4.62,4.61,4.61,0,0,1,4.61,4.62"/><path class="cls-58" d="M529,1192.2a4.61,4.61,0,1,1-4.61-4.62,4.61,4.61,0,0,1,4.61,4.62"/><path class="cls-58" d="M529,1192.2a4.61,4.61,0,1,1-4.61-4.62,4.61,4.61,0,0,1,4.61,4.62"/><path class="cls-58" d="M529,1192.2a4.61,4.61,0,1,1-4.61-4.62,4.61,4.61,0,0,1,4.61,4.62"/><path class="cls-58" d="M529,1192.2a4.61,4.61,0,1,1-4.61-4.62,4.61,4.61,0,0,1,4.61,4.62"/><path class="cls-53" d="M529,1192.2a4.61,4.61,0,1,1-4.61-4.62,4.61,4.61,0,0,1,4.61,4.62"/><path class="cls-29" d="M524.39,1197.25c-.48,0-1,0-1.44,0l0-.87a26.72,26.72,0,0,0,2.83,0l0,.88C525.39,1197.23,524.89,1197.25,524.39,1197.25Zm-4.35-.35a28.06,28.06,0,0,1-2.86-.63l.23-.84a26.28,26.28,0,0,0,2.77.6Zm8.75,0-.14-.86c.93-.16,1.86-.36,2.77-.61l.23.84A26.92,26.92,0,0,1,528.79,1196.89Zm-14.39-1.55a25.64,25.64,0,0,1-2.66-1.23l.41-.77a27.17,27.17,0,0,0,2.57,1.19Zm20,0-.33-.81a26.06,26.06,0,0,0,2.57-1.19l.41.77A26.48,26.48,0,0,1,534.43,1195.32Zm-25.2-2.71a26.57,26.57,0,0,1-2.33-1.78l.56-.66a24.82,24.82,0,0,0,2.26,1.71Zm30.36,0-.49-.73a25.12,25.12,0,0,0,2.25-1.71l.57.66A28.68,28.68,0,0,1,539.59,1192.58Zm-34.82-3.76a25.39,25.39,0,0,1-1.9-2.23l.69-.53a25.27,25.27,0,0,0,1.84,2.16Zm39.27,0-.63-.6a25,25,0,0,0,1.83-2.17l.7.53A25,25,0,0,1,544,1188.79Zm-42.82-4.62a25.55,25.55,0,0,1-1.38-2.58l.79-.37a27.32,27.32,0,0,0,1.34,2.5Zm46.36,0-.74-.45a25.9,25.9,0,0,0,1.32-2.5l.8.36A26.69,26.69,0,0,1,547.58,1184.13Zm-48.83-5.26a27.41,27.41,0,0,1-.79-2.82l.86-.19a25.66,25.66,0,0,0,.76,2.73Zm51.29,0-.83-.28a23.5,23.5,0,0,0,.76-2.73l.86.19A27.41,27.41,0,0,1,550,1178.82Zm-52.55-5.66a26,26,0,0,1-.16-2.92h.87a24.16,24.16,0,0,0,.16,2.83Zm53.81-.05-.87-.1a26.83,26.83,0,0,0,.15-2.83l.87-.1v.1A28.75,28.75,0,0,1,551.3,1173.11Zm-52.95-5.71-.87-.09a25.92,25.92,0,0,1,.46-2.89l.85.19A24.15,24.15,0,0,0,498.35,1167.4Zm52.07-.15a26.38,26.38,0,0,0-.47-2.8l.85-.19a26,26,0,0,1,.48,2.89Zm-50.87-5.38-.83-.27a25.82,25.82,0,0,1,1.08-2.73l.79.37A26.14,26.14,0,0,0,499.55,1161.87Zm49.63-.15a23.91,23.91,0,0,0-1.06-2.62l.79-.37a25.6,25.6,0,0,1,1.1,2.71Zm-47.27-5-.74-.45a25.86,25.86,0,0,1,1.64-2.43l.69.53A26.89,26.89,0,0,0,501.91,1156.73Zm44.87-.13a24.2,24.2,0,0,0-1.6-2.34l.7-.53a26.46,26.46,0,0,1,1.65,2.42Zm-41.45-4.38-.63-.6a23.84,23.84,0,0,1,2.12-2l.57.66A27.35,27.35,0,0,0,505.33,1152.22Zm38-.11a27,27,0,0,0-2.06-1.95l.56-.66a26.81,26.81,0,0,1,2.13,2Zm-33.7-3.57-.5-.72a26.58,26.58,0,0,1,2.51-1.52l.41.77A24.75,24.75,0,0,0,509.64,1148.54Zm29.37-.09c-.78-.52-1.6-1-2.43-1.45l.41-.77a25.58,25.58,0,0,1,2.51,1.5Zm-24.38-2.58-.33-.81a27.36,27.36,0,0,1,2.77-.94l.24.84A27.24,27.24,0,0,0,514.63,1145.87Zm19.38,0a25.72,25.72,0,0,0-2.69-.9l.23-.84a25.13,25.13,0,0,1,2.78.92Zm-13.94-1.47-.14-.87a28.45,28.45,0,0,1,2.91-.32l0,.87A27,27,0,0,0,520.07,1144.35Zm8.48,0a24.28,24.28,0,0,0-2.82-.29l0-.88a25.87,25.87,0,0,1,2.91.31Z"/><text class="cls-38" transform="matrix(1, 0, 0, 1, 504.31, 750.41)">Chile</text><text class="cls-33" transform="matrix(1, 0, 0, 1, 472.39, 776.3)">Easter Island</text><text class="cls-38" transform="matrix(1, 0, 0, 1, 251.65, 750.43)">USA</text><text class="cls-33" transform="matrix(1, 0, 0, 1, 178.24, 775.84)">Sequoia National Park</text><text class="cls-59" transform="translate(521.88 746.48)"> </text><path class="cls-42" d="M552.44,689.32a28.05,28.05,0,1,1-28.05-28.05,28,28,0,0,1,28.05,28.05"/><path class="cls-53" d="M536.39,705.37a12,12,0,1,1-12-12,12,12,0,0,1,12,12"/><path class="cls-29" d="M524.42,717.8c-.48,0-1,0-1.44,0l0-.87a26.72,26.72,0,0,0,2.83,0l0,.87C525.42,717.79,524.92,717.8,524.42,717.8Zm-4.35-.34a28.06,28.06,0,0,1-2.86-.63l.23-.84a26.28,26.28,0,0,0,2.77.6Zm8.75,0-.14-.86c.93-.16,1.86-.36,2.77-.61l.23.84A28.06,28.06,0,0,1,528.82,717.44Zm-14.39-1.54a25.57,25.57,0,0,1-2.66-1.22l.41-.77a27.09,27.09,0,0,0,2.57,1.18Zm20,0-.33-.81c.88-.36,1.74-.76,2.57-1.2l.41.77A27.8,27.8,0,0,1,534.46,715.87Zm-25.2-2.7a25.19,25.19,0,0,1-2.34-1.77l.57-.66a25.74,25.74,0,0,0,2.26,1.71Zm30.36-.06-.5-.72a26.91,26.91,0,0,0,2.26-1.72l.56.67A26.31,26.31,0,0,1,539.62,713.11Zm-34.83-3.71a25.39,25.39,0,0,1-1.9-2.23l.69-.53c.58.75,1.2,1.47,1.84,2.15Zm39.27-.08-.63-.6a26.78,26.78,0,0,0,1.83-2.16l.7.53A28.68,28.68,0,0,1,544.06,709.32Zm-42.83-4.57a27.74,27.74,0,0,1-1.38-2.58l.79-.37a27.32,27.32,0,0,0,1.34,2.5Zm46.37-.09-.75-.45a25.14,25.14,0,0,0,1.33-2.51l.79.37A24.7,24.7,0,0,1,547.6,704.66Zm-48.84-5.21a25.1,25.1,0,0,1-.79-2.82l.85-.19a26.4,26.4,0,0,0,.77,2.73Zm51.29-.1-.82-.28a25.79,25.79,0,0,0,.75-2.74l.85.19A25.81,25.81,0,0,1,550.05,699.35Zm-52.56-5.61a26,26,0,0,1-.16-2.92h.87a26.84,26.84,0,0,0,.16,2.83Zm53.81-.11-.87-.09a26.26,26.26,0,0,0,.15-2.8v-.13H551l.44.08A28.22,28.22,0,0,1,551.3,693.63Zm-53-5.64-.87-.1a28.51,28.51,0,0,1,.47-2.89l.85.19A26.33,26.33,0,0,0,498.34,688Zm52.07-.21a23.54,23.54,0,0,0-.47-2.79l.86-.19a27.46,27.46,0,0,1,.48,2.88Zm-50.87-5.33-.83-.27a27.64,27.64,0,0,1,1.08-2.73l.79.37A28.16,28.16,0,0,0,499.54,682.45Zm49.64-.19a25.88,25.88,0,0,0-1.07-2.63l.79-.37A24.55,24.55,0,0,1,550,682Zm-47.28-5-.75-.45a25.2,25.2,0,0,1,1.64-2.43l.7.53A26.89,26.89,0,0,0,501.9,677.31Zm44.87-.17a24.2,24.2,0,0,0-1.6-2.34l.69-.53a27.19,27.19,0,0,1,1.66,2.41Zm-41.45-4.35-.64-.6a28.9,28.9,0,0,1,2.12-2l.57.67A25.23,25.23,0,0,0,505.32,672.79Zm38-.14a27,27,0,0,0-2.06-1.94l.56-.67a26.92,26.92,0,0,1,2.13,2Zm-33.71-3.54-.49-.72a26.42,26.42,0,0,1,2.5-1.52l.41.77A26,26,0,0,0,509.61,669.11ZM539,669a24,24,0,0,0-2.43-1.45l.41-.78a29.17,29.17,0,0,1,2.51,1.5Zm-24.39-2.56-.32-.81a26.59,26.59,0,0,1,2.77-1l.24.84A27.48,27.48,0,0,0,514.6,666.44Zm19.38-.07a25,25,0,0,0-2.69-.9l.23-.84a29.18,29.18,0,0,1,2.78.92Zm-13.93-1.46-.14-.87a25.39,25.39,0,0,1,2.91-.32l0,.87A26.74,26.74,0,0,0,520.05,664.91Zm8.47,0a26.42,26.42,0,0,0-2.82-.3l0-.87a28.4,28.4,0,0,1,2.91.3Z"/><path class="cls-42" d="M292.3,691.51a24.63,24.63,0,1,1-24.63-24.63,24.62,24.62,0,0,1,24.63,24.63"/><path class="cls-53" d="M276.86,707a9.19,9.19,0,1,1-9.19-9.19,9.18,9.18,0,0,1,9.19,9.19"/><path class="cls-29" d="M267.67,716.58c-.48,0-1,0-1.44,0l0-.87a26.9,26.9,0,0,0,2.84,0l0,.87C268.67,716.57,268.17,716.58,267.67,716.58Zm-4.35-.35a25.57,25.57,0,0,1-2.86-.62l.24-.84a25.57,25.57,0,0,0,2.76.6Zm8.76,0-.15-.86a25.26,25.26,0,0,0,2.77-.61l.23.85A24.93,24.93,0,0,1,272.08,716.22Zm-14.4-1.54a29.09,29.09,0,0,1-2.66-1.23l.41-.77a24,24,0,0,0,2.58,1.18Zm20,0-.32-.81a26,26,0,0,0,2.57-1.2l.41.77A26.72,26.72,0,0,1,277.71,714.66Zm-25.2-2.72a28,28,0,0,1-2.33-1.77l.56-.67c.73.61,1.49,1.19,2.26,1.72Zm30.36,0-.49-.72a26.91,26.91,0,0,0,2.26-1.72l.56.67A26.93,26.93,0,0,1,282.87,711.91Zm-34.82-3.75a28.68,28.68,0,0,1-1.9-2.23l.7-.53a23.46,23.46,0,0,0,1.84,2.15Zm39.28,0-.64-.6a25,25,0,0,0,1.84-2.16l.7.53A28.68,28.68,0,0,1,287.33,708.12Zm-42.83-4.61c-.5-.84-1-1.7-1.38-2.59l.8-.36a25,25,0,0,0,1.33,2.5Zm46.37,0-.75-.45a26.15,26.15,0,0,0,1.33-2.51l.79.37A29.14,29.14,0,0,1,290.87,703.47ZM242,698.21a27.54,27.54,0,0,1-.78-2.83l.85-.19a25.84,25.84,0,0,0,.76,2.74Zm51.3-.05-.83-.28c.3-.9.55-1.81.76-2.74l.85.19A28.26,28.26,0,0,1,293.33,698.16Zm-52.56-5.67a25.72,25.72,0,0,1-.16-2.92h.87a26.69,26.69,0,0,0,.16,2.83Zm53.81,0-.87-.09a26.83,26.83,0,0,0,.15-2.83l.88-.11v.11A28.57,28.57,0,0,1,294.58,692.44Zm-52.95-5.7-.87-.09a28,28,0,0,1,.46-2.89l.86.18A26.33,26.33,0,0,0,241.63,686.74Zm52.07-.16a24.25,24.25,0,0,0-.47-2.79l.86-.19a28.09,28.09,0,0,1,.48,2.89Zm-50.87-5.37-.83-.28a25.65,25.65,0,0,1,1.08-2.72l.79.36A26.31,26.31,0,0,0,242.83,681.21Zm49.64-.15c-.31-.9-.67-1.78-1.06-2.63l.79-.37a25.71,25.71,0,0,1,1.09,2.72Zm-47.27-5-.75-.44a25.2,25.2,0,0,1,1.64-2.43l.7.53A26,26,0,0,0,245.2,676.06Zm44.87-.13c-.49-.8-1-1.59-1.6-2.34l.69-.53c.59.78,1.15,1.59,1.66,2.42Zm-41.45-4.38L248,671a29,29,0,0,1,2.12-2l.57.67A25.23,25.23,0,0,0,248.62,671.55Zm38-.11a27,27,0,0,0-2.07-1.94l.56-.67a28.93,28.93,0,0,1,2.14,2Zm-33.71-3.57-.49-.72a26.42,26.42,0,0,1,2.5-1.52l.41.78A25.9,25.9,0,0,0,252.92,667.87Zm29.38-.08a26.05,26.05,0,0,0-2.43-1.46l.4-.77a27.88,27.88,0,0,1,2.52,1.5Zm-24.39-2.58-.33-.81a27.6,27.6,0,0,1,2.78-.95l.24.85A25,25,0,0,0,257.91,665.21Zm19.38-.06a25,25,0,0,0-2.69-.9l.23-.84a26.66,26.66,0,0,1,2.78.93Zm-13.93-1.47-.14-.86a25.89,25.89,0,0,1,2.91-.32l.05.87A26.72,26.72,0,0,0,263.36,663.68Zm8.47,0a26.69,26.69,0,0,0-2.82-.3l.05-.87a28.4,28.4,0,0,1,2.91.3Z"/><text class="cls-38" transform="matrix(1, 0, 0, 1, 248.14, 910.63)">Haiti</text><text class="cls-33" transform="matrix(1, 0, 0, 1, 145.4, 938.17)">6 times La Visite National Park</text><text class="cls-38" transform="matrix(1, 0, 0, 1, 501.47, 910.62)">Spain</text><text class="cls-33" transform="matrix(1, 0, 0, 1, 443.31, 938.3)">Cabrera archipelago</text><text class="cls-60" transform="translate(522.74 864.72)"> </text><path class="cls-42" d="M274.21,870a6.54,6.54,0,1,1-6.54-6.54,6.54,6.54,0,0,1,6.54,6.54"/><path class="cls-53" d="M273.79,870.42a6.12,6.12,0,1,1-6.12-6.12,6.12,6.12,0,0,1,6.12,6.12"/><path class="cls-42" d="M530.27,870.61a5.88,5.88,0,1,1-5.88-5.87,5.88,5.88,0,0,1,5.88,5.87"/><path class="cls-53" d="M528.7,872.08a4.31,4.31,0,1,1-4.31-4.31,4.3,4.3,0,0,1,4.31,4.31"/><path class="cls-29" d="M267.67,877c-.48,0-1,0-1.43,0l0-.87a26.9,26.9,0,0,0,2.84,0l0,.88C268.67,877,268.18,877,267.67,877Zm-4.35-.35a28.06,28.06,0,0,1-2.86-.63l.24-.84a25.57,25.57,0,0,0,2.76.6Zm8.76,0-.15-.86a27.81,27.81,0,0,0,2.77-.61l.24.84A28.06,28.06,0,0,1,272.08,876.66Zm-14.4-1.55a26.64,26.64,0,0,1-2.66-1.23l.41-.77A27.34,27.34,0,0,0,258,874.3Zm20,0-.32-.81a27.17,27.17,0,0,0,2.57-1.19l.41.77A26.64,26.64,0,0,1,277.71,875.09Zm-25.2-2.71a28.15,28.15,0,0,1-2.33-1.78l.57-.66a26.14,26.14,0,0,0,2.25,1.71Zm30.37,0-.5-.73a26.79,26.79,0,0,0,2.26-1.71l.56.66A28.52,28.52,0,0,1,282.88,872.35Zm-34.83-3.76a25.39,25.39,0,0,1-1.9-2.23l.7-.53a25.27,25.27,0,0,0,1.84,2.16Zm39.28,0-.64-.6a25.13,25.13,0,0,0,1.84-2.17l.7.53A28.83,28.83,0,0,1,287.33,868.56Zm-42.83-4.62c-.5-.83-1-1.7-1.38-2.58l.8-.37a23.94,23.94,0,0,0,1.33,2.5Zm46.37,0-.75-.45a26,26,0,0,0,1.33-2.5l.79.36A26.61,26.61,0,0,1,290.87,863.9ZM242,858.64a27.36,27.36,0,0,1-.78-2.82l.85-.19a25.66,25.66,0,0,0,.76,2.73Zm51.3,0-.83-.28a28.27,28.27,0,0,0,.76-2.73l.85.19A27.36,27.36,0,0,1,293.33,858.59Zm-52.56-5.66a25.85,25.85,0,0,1-.16-2.92h.87a26.84,26.84,0,0,0,.16,2.83Zm53.81,0-.87-.1a26.83,26.83,0,0,0,.15-2.83l.88-.11V850A28.76,28.76,0,0,1,294.58,852.88Zm-52.95-5.71-.87-.09a28.92,28.92,0,0,1,.46-2.89l.86.19A26.56,26.56,0,0,0,241.63,847.17ZM293.7,847a24.06,24.06,0,0,0-.47-2.8l.86-.19a28.09,28.09,0,0,1,.48,2.89Zm-50.87-5.38-.83-.27a25.82,25.82,0,0,1,1.08-2.73l.79.37A26.14,26.14,0,0,0,242.83,841.64Zm49.64-.15c-.31-.89-.67-1.78-1.06-2.63l.79-.37a26.59,26.59,0,0,1,1.09,2.72Zm-47.27-5-.75-.45a28,28,0,0,1,1.64-2.43l.7.53A24.83,24.83,0,0,0,245.2,836.5Zm44.87-.13a26.83,26.83,0,0,0-1.6-2.34l.69-.53a26.31,26.31,0,0,1,1.65,2.41ZM248.62,832l-.64-.6a29,29,0,0,1,2.12-2l.57.66A27.2,27.2,0,0,0,248.62,832Zm38-.11c-.66-.69-1.36-1.34-2.07-2l.56-.66a26.82,26.82,0,0,1,2.14,2Zm-33.71-3.57-.49-.72a26.42,26.42,0,0,1,2.5-1.52l.41.77C254.51,827.29,253.7,827.78,252.92,828.31Zm29.38-.09c-.79-.52-1.6-1-2.43-1.45l.4-.78a28,28,0,0,1,2.52,1.51Zm-24.39-2.58-.33-.81a27.53,27.53,0,0,1,2.78-.94l.23.84A28.16,28.16,0,0,0,257.91,825.64Zm19.38,0a25.72,25.72,0,0,0-2.69-.9l.23-.84a24.45,24.45,0,0,1,2.78.92Zm-13.93-1.47-.14-.87a28.45,28.45,0,0,1,2.91-.32l0,.87A26.85,26.85,0,0,0,263.36,824.12Zm8.47,0a24.05,24.05,0,0,0-2.82-.29l0-.88a27.84,27.84,0,0,1,2.91.31Z"/><path class="cls-29" d="M524.39,876.88c-.48,0-1,0-1.44,0l0-.87a26.72,26.72,0,0,0,2.83,0l0,.87C525.39,876.87,524.89,876.88,524.39,876.88Zm-4.35-.35a25.57,25.57,0,0,1-2.86-.62l.23-.84a26.28,26.28,0,0,0,2.77.6Zm8.75,0-.14-.86a26.32,26.32,0,0,0,2.77-.61l.23.84A24.66,24.66,0,0,1,528.79,876.52ZM514.4,875a25.64,25.64,0,0,1-2.66-1.23l.41-.77a27.17,27.17,0,0,0,2.57,1.19Zm20,0-.33-.81a26.13,26.13,0,0,0,2.57-1.2l.41.77A26.56,26.56,0,0,1,534.43,875Zm-25.2-2.72a26.46,26.46,0,0,1-2.33-1.77l.56-.67a26.91,26.91,0,0,0,2.26,1.72Zm30.36,0-.49-.72a25.23,25.23,0,0,0,2.25-1.72l.57.67A28.56,28.56,0,0,1,539.59,872.21Zm-34.82-3.75a28.68,28.68,0,0,1-1.9-2.23l.69-.53a25.13,25.13,0,0,0,1.84,2.15Zm39.27,0-.63-.6a26.47,26.47,0,0,0,1.83-2.16l.7.53A26.65,26.65,0,0,1,544,868.42Zm-42.82-4.61a26.83,26.83,0,0,1-1.38-2.59l.79-.36a27.32,27.32,0,0,0,1.34,2.5Zm46.36,0-.74-.46a27.07,27.07,0,0,0,1.33-2.5l.79.37A26.83,26.83,0,0,1,547.58,863.77Zm-48.83-5.26a27.59,27.59,0,0,1-.79-2.83l.86-.19a25,25,0,0,0,.76,2.73Zm51.29,0-.82-.28a26.46,26.46,0,0,0,.75-2.74l.86.19A28.32,28.32,0,0,1,550,858.46Zm-52.55-5.67a25.72,25.72,0,0,1-.16-2.92h.87a24.28,24.28,0,0,0,.16,2.83Zm53.81,0-.87-.09a26.83,26.83,0,0,0,.15-2.83l.87-.11v.11A28.55,28.55,0,0,1,551.3,852.74ZM498.35,847l-.88-.09a28.06,28.06,0,0,1,.47-2.89l.85.18A24,24,0,0,0,498.35,847Zm52.07-.16a26.63,26.63,0,0,0-.47-2.79l.85-.2a24.19,24.19,0,0,1,.48,2.89Zm-50.88-5.37-.82-.28a26.63,26.63,0,0,1,1.07-2.73l.8.37A26.37,26.37,0,0,0,499.54,841.51Zm49.64-.15a24.07,24.07,0,0,0-1.06-2.63l.79-.37a26.49,26.49,0,0,1,1.1,2.71Zm-47.27-5-.75-.45a25.3,25.3,0,0,1,1.65-2.43l.69.53A26.89,26.89,0,0,0,501.91,836.37Zm44.87-.14a24.2,24.2,0,0,0-1.6-2.34l.7-.53a26.46,26.46,0,0,1,1.65,2.42Zm-41.45-4.38-.64-.6a29.15,29.15,0,0,1,2.13-2l.56.67A25.23,25.23,0,0,0,505.33,831.85Zm38-.11a26.88,26.88,0,0,0-2.06-1.94l.56-.67a25.21,25.21,0,0,1,2.13,2Zm-33.71-3.57-.49-.72a26.58,26.58,0,0,1,2.51-1.52l.41.78A26.05,26.05,0,0,0,509.63,828.17Zm29.38-.08a26.05,26.05,0,0,0-2.43-1.46l.41-.77a27.72,27.72,0,0,1,2.51,1.5Zm-24.38-2.58-.33-.81a27.42,27.42,0,0,1,2.77-1l.24.84A27.3,27.3,0,0,0,514.63,825.51Zm19.38-.06a25.72,25.72,0,0,0-2.69-.9l.23-.84a27.47,27.47,0,0,1,2.78.93ZM520.07,824l-.14-.86a25.89,25.89,0,0,1,2.91-.32l0,.87A26.72,26.72,0,0,0,520.07,824Zm8.47,0a26.51,26.51,0,0,0-2.81-.3l0-.87a28.4,28.4,0,0,1,2.91.3Z"/><text class="cls-38" transform="matrix(1, 0, 0, 1, 218.31, 1393.16)">South Afri<tspan class="cls-61" x="80.32" y="0">c</tspan><tspan x="88.63" y="0">a</tspan></text><text class="cls-33" transform="matrix(1, 0, 0, 1, 212.84, 1419.25)">Karloof forest</text><text class="cls-38" transform="matrix(1, 0, 0, 1, 490.67, 1393.21)">Ethiopia</text><text class="cls-33" transform="matrix(1, 0, 0, 1, 400.48, 1419.03)">Simie Mountains National Park</text><path class="cls-53" d="M274.15,1351.33a6.48,6.48,0,1,1-6.48-6.48,6.48,6.48,0,0,1,6.48,6.48"/><path class="cls-53" d="M274.15,1351.33a6.48,6.48,0,1,1-6.48-6.48,6.48,6.48,0,0,1,6.48,6.48"/><path class="cls-62" d="M535.17,1346.86a10.79,10.79,0,1,1-10.78-10.78,10.79,10.79,0,0,1,10.78,10.78"/><path class="cls-53" d="M531.41,1350.63a7,7,0,1,1-7-7,7,7,0,0,1,7,7"/><path class="cls-29" d="M267.67,1358c-.48,0-1,0-1.44,0l0-.87a26.9,26.9,0,0,0,2.84,0l0,.87C268.67,1358,268.17,1358,267.67,1358Zm-4.35-.35a25.57,25.57,0,0,1-2.86-.62l.23-.84a26.28,26.28,0,0,0,2.77.6Zm8.76,0-.15-.86a25.78,25.78,0,0,0,2.77-.61l.23.84A25,25,0,0,1,272.08,1357.65Zm-14.4-1.54a29.09,29.09,0,0,1-2.66-1.23l.41-.77a24,24,0,0,0,2.58,1.18Zm20,0-.32-.81c.87-.35,1.73-.76,2.57-1.2l.41.77A26.72,26.72,0,0,1,277.71,1356.09Zm-25.2-2.72a28.56,28.56,0,0,1-2.33-1.77l.56-.67a26.28,26.28,0,0,0,2.26,1.71Zm30.36,0-.49-.72a26.91,26.91,0,0,0,2.26-1.72l.56.67A26.93,26.93,0,0,1,282.87,1353.34Zm-34.82-3.75a28.68,28.68,0,0,1-1.9-2.23l.7-.53a26.77,26.77,0,0,0,1.84,2.15Zm39.28,0-.64-.6c.65-.69,1.27-1.42,1.84-2.16l.7.53A28.68,28.68,0,0,1,287.33,1349.55Zm-42.83-4.61c-.5-.84-1-1.71-1.38-2.59l.8-.37a23,23,0,0,0,1.33,2.5Zm46.37,0-.75-.46a27.07,27.07,0,0,0,1.33-2.5l.79.37A29.14,29.14,0,0,1,290.87,1344.9ZM242,1339.63a27.36,27.36,0,0,1-.78-2.82l.85-.19a25.66,25.66,0,0,0,.76,2.73Zm51.3,0-.83-.28c.3-.9.55-1.82.76-2.74l.85.19A28.26,28.26,0,0,1,293.33,1339.59Zm-52.56-5.67a28.26,28.26,0,0,1-.16-2.92h.87c0,.94.06,1.89.16,2.83Zm53.81-.05-.87-.09a26.83,26.83,0,0,0,.15-2.83l.6-.08.28.06A28.65,28.65,0,0,1,294.58,1333.87Zm-52.95-5.7-.87-.09a28.66,28.66,0,0,1,.46-2.9l.86.19A26.33,26.33,0,0,0,241.63,1328.17Zm52.07-.16a24.25,24.25,0,0,0-.47-2.79l.86-.19a28.09,28.09,0,0,1,.48,2.89Zm-50.87-5.37-.83-.28a25.82,25.82,0,0,1,1.08-2.73l.79.37A26.31,26.31,0,0,0,242.83,1322.64Zm49.64-.15c-.31-.9-.67-1.78-1.06-2.63l.79-.37a28.1,28.1,0,0,1,1.1,2.72Zm-47.27-5-.75-.45a26.36,26.36,0,0,1,1.64-2.42l.7.53A26,26,0,0,0,245.2,1317.49Zm44.87-.13c-.49-.8-1-1.58-1.6-2.34l.69-.53a28,28,0,0,1,1.66,2.42ZM248.62,1313l-.64-.6a29,29,0,0,1,2.12-2l.57.67A25.23,25.23,0,0,0,248.62,1313Zm38-.11a27,27,0,0,0-2.07-1.94l.56-.67a28.93,28.93,0,0,1,2.14,2Zm-33.71-3.57-.49-.72a26.42,26.42,0,0,1,2.5-1.52l.42.77A27,27,0,0,0,252.92,1309.3Zm29.38-.08a26.05,26.05,0,0,0-2.43-1.46l.4-.77a27.88,27.88,0,0,1,2.52,1.5Zm-24.39-2.58-.33-.81a27.6,27.6,0,0,1,2.78-.95l.23.85A25.61,25.61,0,0,0,257.91,1306.64Zm19.38-.06a25,25,0,0,0-2.69-.9l.23-.84a26.66,26.66,0,0,1,2.78.93Zm-13.93-1.47-.14-.86a25.89,25.89,0,0,1,2.91-.32l.05.87A26.72,26.72,0,0,0,263.36,1305.11Zm8.47,0a26.69,26.69,0,0,0-2.82-.3l.05-.87a28.4,28.4,0,0,1,2.91.3Z"/><path class="cls-29" d="M524.39,1358.08l-1.44,0,0-.88a26.72,26.72,0,0,0,2.83,0l0,.87C525.39,1358.07,524.89,1358.08,524.39,1358.08Zm-4.35-.34a28.06,28.06,0,0,1-2.86-.63l.23-.84a26.28,26.28,0,0,0,2.77.6Zm8.75,0-.14-.87a26.28,26.28,0,0,0,2.77-.6l.23.84A26.92,26.92,0,0,1,528.79,1357.73Zm-14.39-1.55a25.64,25.64,0,0,1-2.66-1.23l.41-.77a27.17,27.17,0,0,0,2.57,1.19Zm20,0-.33-.81a26.06,26.06,0,0,0,2.57-1.19l.41.77A28.91,28.91,0,0,1,534.43,1356.16Zm-25.2-2.72a26.46,26.46,0,0,1-2.33-1.77l.56-.67a24.93,24.93,0,0,0,2.26,1.72Zm30.36,0-.49-.72a26.76,26.76,0,0,0,2.25-1.72l.57.67A26.46,26.46,0,0,1,539.59,1353.41Zm-34.82-3.75a28.68,28.68,0,0,1-1.9-2.23l.69-.53a26.91,26.91,0,0,0,1.84,2.16Zm39.28,0-.64-.6a26.91,26.91,0,0,0,1.84-2.16l.69.53A26.53,26.53,0,0,1,544.05,1349.62ZM501.22,1345a25.55,25.55,0,0,1-1.38-2.58l.79-.37a27.32,27.32,0,0,0,1.34,2.5Zm46.36,0-.74-.45c.48-.81.93-1.65,1.33-2.51l.79.37A25.71,25.71,0,0,1,547.58,1345Zm-48.83-5.26a27.41,27.41,0,0,1-.79-2.82l.86-.19a25.66,25.66,0,0,0,.76,2.73Zm51.29,0-.82-.28a25.62,25.62,0,0,0,.75-2.73l.86.18A26.9,26.9,0,0,1,550,1339.66ZM497.49,1334a26,26,0,0,1-.16-2.93h.87a24.16,24.16,0,0,0,.16,2.83Zm53.81-.06-.87-.09a26.83,26.83,0,0,0,.15-2.83l.87-.11v.11A28.55,28.55,0,0,1,551.3,1333.94Zm-52.95-5.7-.88-.09a28.06,28.06,0,0,1,.47-2.89l.85.18A24.66,24.66,0,0,0,498.35,1328.24Zm52.07-.16a26.63,26.63,0,0,0-.47-2.79l.85-.19a23.54,23.54,0,0,1,.48,2.89Zm-50.87-5.37-.83-.28a25.65,25.65,0,0,1,1.08-2.72l.79.36A27.29,27.29,0,0,0,499.55,1322.71Zm49.63-.15a24.91,24.91,0,0,0-1.06-2.63l.79-.37a25.77,25.77,0,0,1,1.1,2.72Zm-47.27-5-.75-.45a26.61,26.61,0,0,1,1.65-2.43l.69.53A26.89,26.89,0,0,0,501.91,1317.57Zm44.87-.14a22.9,22.9,0,0,0-1.6-2.33l.7-.54a27.91,27.91,0,0,1,1.65,2.42Zm-41.45-4.38-.63-.6a27.11,27.11,0,0,1,2.12-2l.57.67A25.45,25.45,0,0,0,505.33,1313.05Zm38-.11a26.88,26.88,0,0,0-2.06-1.94l.56-.67a26.93,26.93,0,0,1,2.13,2Zm-33.71-3.56-.49-.73a28.77,28.77,0,0,1,2.51-1.51l.41.77A26.15,26.15,0,0,0,509.63,1309.38Zm29.38-.09a26.05,26.05,0,0,0-2.43-1.46l.41-.77a25.68,25.68,0,0,1,2.51,1.51Zm-24.38-2.58-.33-.81a27.36,27.36,0,0,1,2.77-.94l.24.84A24.85,24.85,0,0,0,514.63,1306.71Zm19.38-.06a25.66,25.66,0,0,0-2.69-.89l.23-.85a27.47,27.47,0,0,1,2.78.93Zm-13.94-1.47-.14-.86a25.89,25.89,0,0,1,2.91-.32l0,.87A26.72,26.72,0,0,0,520.07,1305.18Zm8.48,0a26.69,26.69,0,0,0-2.82-.3l0-.87a28.4,28.4,0,0,1,2.91.3Z"/><text class="cls-38" transform="matrix(1, 0, 0, 1, 226.39, 1069.59)">Came<tspan class="cls-63" x="44.96" y="0">r</tspan><tspan x="51.57" y="0">oon</tspan></text><text class="cls-33" transform="matrix(1, 0, 0, 1, 237.69, 1098.49)">Yaoude</text><text class="cls-64" transform="matrix(1, 0, 0, 1, 488.15, 1069.6)">A<tspan class="cls-65" x="10.19" y="0">ustralia</tspan></text><text class="cls-33" transform="matrix(1, 0, 0, 1, 409.59, 1098.21)">2 times Barool National Park</text><text class="cls-59" transform="matrix(1, 0, 0, 1, 521.86, 1064.59)"> </text><path class="cls-62" d="M274.83,1028.86a7.16,7.16,0,1,1-7.16-7.15,7.16,7.16,0,0,1,7.16,7.15"/><path class="cls-53" d="M274.53,1029.13a6.86,6.86,0,1,1-6.86-6.86,6.86,6.86,0,0,1,6.86,6.86"/><path class="cls-42" d="M531.4,1029.5a7,7,0,1,1-7-7,7,7,0,0,1,7,7"/><path class="cls-53" d="M530,1031a5.57,5.57,0,1,1-5.57-5.57A5.57,5.57,0,0,1,530,1031"/><text class="cls-66" transform="translate(771.27 935.89)"> </text><text class="cls-38" transform="matrix(1, 0, 0, 1, 754.56, 452.3)">Peru</text><text class="cls-37" transform="matrix(1, 0, 0, 1, 690.43, 480.95)">2 times Nacional de <tspan x="-13.95" y="21.6">Tumbes natural reserve</tspan></text><path class="cls-53" d="M788.05,408.42a14.8,14.8,0,1,1-14.8-14.8,14.8,14.8,0,0,1,14.8,14.8"/><path class="cls-29" d="M773.25,423.66c-.48,0-1,0-1.44,0l.05-.87a26.72,26.72,0,0,0,2.83,0l0,.88C774.24,423.64,773.75,423.66,773.25,423.66Zm-4.35-.35c-1-.16-1.92-.37-2.86-.62l.23-.85a26.32,26.32,0,0,0,2.77.61Zm8.75,0-.14-.86c.93-.16,1.86-.36,2.77-.61l.23.84A27.48,27.48,0,0,1,777.65,423.3Zm-14.39-1.55a25.64,25.64,0,0,1-2.66-1.23l.41-.77a27.17,27.17,0,0,0,2.57,1.19Zm20,0-.32-.81a27.17,27.17,0,0,0,2.57-1.19l.41.77A25.64,25.64,0,0,1,783.28,421.73ZM758.09,419a26.71,26.71,0,0,1-2.34-1.78l.57-.66a24.82,24.82,0,0,0,2.26,1.71Zm30.36,0-.49-.73a26.64,26.64,0,0,0,2.25-1.71l.57.66A28.68,28.68,0,0,1,788.45,419Zm-34.83-3.76a25.39,25.39,0,0,1-1.9-2.23l.7-.53a25.27,25.27,0,0,0,1.84,2.16Zm39.28,0-.63-.6a25,25,0,0,0,1.83-2.17l.7.53A26.79,26.79,0,0,1,792.9,415.2Zm-42.82-4.62A25.55,25.55,0,0,1,748.7,408l.79-.37c.4.85.85,1.7,1.33,2.5Zm46.36,0-.75-.45a25,25,0,0,0,1.33-2.5l.8.36A24.67,24.67,0,0,1,796.44,410.54Zm-48.83-5.26a27.41,27.41,0,0,1-.79-2.82l.86-.19a25.66,25.66,0,0,0,.76,2.73Zm51.29,0-.83-.28a25.66,25.66,0,0,0,.76-2.73l.85.19A25,25,0,0,1,798.9,405.23Zm-52.55-5.66a25.85,25.85,0,0,1-.17-2.92h.88a26.83,26.83,0,0,0,.15,2.83Zm53.8-.05-.86-.1a26.83,26.83,0,0,0,.15-2.83l.87-.11v.11A26.15,26.15,0,0,1,800.15,399.52Zm-52.95-5.7-.87-.1a29,29,0,0,1,.47-2.89l.85.19A26.33,26.33,0,0,0,747.2,393.82Zm52.07-.16a26.35,26.35,0,0,0-.46-2.8l.85-.19a25.61,25.61,0,0,1,.48,2.89Zm-50.87-5.38-.83-.27a28.16,28.16,0,0,1,1.08-2.73l.8.37A24.84,24.84,0,0,0,748.4,388.28Zm49.64-.15A27.25,27.25,0,0,0,797,385.5l.79-.37a29.17,29.17,0,0,1,1.1,2.72Zm-47.27-5-.75-.45a28,28,0,0,1,1.64-2.43l.7.53A26.89,26.89,0,0,0,750.77,383.14Zm44.87-.13a26.83,26.83,0,0,0-1.6-2.34l.69-.53a26.41,26.41,0,0,1,1.66,2.41Zm-41.45-4.38-.64-.6a25.42,25.42,0,0,1,2.13-2l.56.66A27.2,27.2,0,0,0,754.19,378.63Zm38-.11a27.15,27.15,0,0,0-2.07-1.95l.57-.66a26.69,26.69,0,0,1,2.13,2ZM758.49,375l-.49-.72a26.58,26.58,0,0,1,2.51-1.52l.41.77C760.09,373.93,759.27,374.42,758.49,375Zm29.38-.09c-.78-.52-1.6-1-2.43-1.45l.41-.77a26.82,26.82,0,0,1,2.51,1.5Zm-24.39-2.58-.32-.81a26.54,26.54,0,0,1,2.77-.94l.24.84A28.35,28.35,0,0,0,763.48,372.28Zm19.38,0a25,25,0,0,0-2.69-.9l.24-.84a25.13,25.13,0,0,1,2.78.92Zm-13.93-1.47-.14-.87c1-.15,1.94-.26,2.91-.32l0,.88A24.31,24.31,0,0,0,768.93,370.76Zm8.47,0a23.83,23.83,0,0,0-2.82-.29l0-.88a27.84,27.84,0,0,1,2.91.31Z"/><text class="cls-38" transform="matrix(1, 0, 0, 1, 750.28, 596.32)">Brazil</text><text class="cls-37" transform="matrix(1, 0, 0, 1, 759.99, 620.04)">Rio</text><path class="cls-42" d="M787.36,561.69a14.12,14.12,0,1,1-14.11-14.11,14.12,14.12,0,0,1,14.11,14.11"/><path class="cls-53" d="M777.4,571.66a4.15,4.15,0,1,1-4.15-4.15,4.15,4.15,0,0,1,4.15,4.15"/><path class="cls-29" d="M773.25,576.25c-.48,0-1,0-1.44,0l0-.87a26.89,26.89,0,0,0,2.84,0l0,.88C774.24,576.23,773.75,576.25,773.25,576.25Zm-4.35-.35a27.48,27.48,0,0,1-2.86-.63l.23-.84A26.32,26.32,0,0,0,769,575Zm8.75,0-.14-.86a28.24,28.24,0,0,0,2.76-.61l.24.84A28.06,28.06,0,0,1,777.65,575.89Zm-14.39-1.55a25.64,25.64,0,0,1-2.66-1.23l.41-.77a26.06,26.06,0,0,0,2.57,1.19Zm20,0-.32-.81a27.17,27.17,0,0,0,2.57-1.19l.41.77A25.64,25.64,0,0,1,783.28,574.32Zm-25.19-2.71a26.71,26.71,0,0,1-2.34-1.78l.57-.66a24.82,24.82,0,0,0,2.26,1.71Zm30.36,0-.49-.73c.77-.53,1.53-1.1,2.25-1.71l.57.66A28.68,28.68,0,0,1,788.45,571.58Zm-34.83-3.76a25.39,25.39,0,0,1-1.9-2.23l.7-.53a25.27,25.27,0,0,0,1.84,2.16Zm39.28,0-.63-.6A25,25,0,0,0,794.1,565l.7.53A26.79,26.79,0,0,1,792.9,567.79Zm-42.83-4.62a27.65,27.65,0,0,1-1.37-2.58l.79-.37c.4.85.85,1.7,1.33,2.5Zm46.37,0-.75-.45a25,25,0,0,0,1.33-2.5l.8.36A26.69,26.69,0,0,1,796.44,563.13Zm-48.83-5.26a27.41,27.41,0,0,1-.79-2.82l.85-.19a25.71,25.71,0,0,0,.77,2.73Zm51.29,0-.83-.28a25.66,25.66,0,0,0,.76-2.73l.85.19A27.36,27.36,0,0,1,798.9,557.82Zm-52.55-5.66a28.42,28.42,0,0,1-.17-2.92h.88a26.83,26.83,0,0,0,.15,2.83Zm53.8,0-.86-.1c.09-.94.15-1.89.15-2.83l.87-.11v.11A26.15,26.15,0,0,1,800.15,552.11ZM747.2,546.4l-.87-.09a26.34,26.34,0,0,1,.47-2.89l.85.19A26.56,26.56,0,0,0,747.2,546.4Zm52.07-.15a26.35,26.35,0,0,0-.46-2.8l.85-.19a28.09,28.09,0,0,1,.48,2.89Zm-50.87-5.38-.83-.27a28.16,28.16,0,0,1,1.08-2.73l.8.37A24,24,0,0,0,748.4,540.87Zm49.64-.15a24.91,24.91,0,0,0-1.06-2.63l.79-.37a29.17,29.17,0,0,1,1.1,2.72Zm-47.27-5-.75-.45a28,28,0,0,1,1.64-2.43l.7.53A24.83,24.83,0,0,0,750.77,535.73Zm44.87-.13a26.83,26.83,0,0,0-1.6-2.34l.69-.53a26.41,26.41,0,0,1,1.66,2.41Zm-41.45-4.38-.64-.6c.67-.7,1.38-1.38,2.12-2l.57.66A27.2,27.2,0,0,0,754.19,531.22Zm38-.11a27.15,27.15,0,0,0-2.07-2l.57-.66a28.52,28.52,0,0,1,2.13,2Zm-33.71-3.57-.49-.72a26.42,26.42,0,0,1,2.5-1.52l.42.77A27,27,0,0,0,758.49,527.54Zm29.38-.09c-.78-.52-1.6-1-2.43-1.45l.41-.78a27.82,27.82,0,0,1,2.51,1.51Zm-24.39-2.58-.32-.81a26.54,26.54,0,0,1,2.77-.94l.24.84A28.35,28.35,0,0,0,763.48,524.87Zm19.38,0a25,25,0,0,0-2.69-.9l.23-.84a24.45,24.45,0,0,1,2.78.92Zm-13.93-1.47-.14-.87c1-.15,1.94-.26,2.91-.32l0,.88A24.31,24.31,0,0,0,768.93,523.35Zm8.47,0a23.83,23.83,0,0,0-2.82-.29l0-.88a28.13,28.13,0,0,1,2.91.31Z"/><text class="cls-38" transform="matrix(1, 0, 0, 1, 750.64, 1232.86)">Israel</text><text class="cls-33" transform="matrix(1, 0, 0, 1, 733.43, 1258.76)">Jerusalem</text><path class="cls-42" d="M777.45,1193a3.93,3.93,0,1,1-3.93-3.93,3.93,3.93,0,0,1,3.93,3.93"/><path class="cls-53" d="M776.7,1193.76a3.18,3.18,0,1,1-3.18-3.18,3.18,3.18,0,0,1,3.18,3.18"/><path class="cls-29" d="M773.52,1197.38c-.49,0-1,0-1.44,0l0-.87a26.9,26.9,0,0,0,2.84,0l0,.87C774.51,1197.37,774,1197.38,773.52,1197.38Zm-4.35-.35a25.09,25.09,0,0,1-2.86-.62l.23-.84a26.28,26.28,0,0,0,2.77.6Zm8.75,0-.14-.86a25.6,25.6,0,0,0,2.76-.61l.24.85A28,28,0,0,1,777.92,1197Zm-14.39-1.54a25.64,25.64,0,0,1-2.66-1.23l.41-.77a26.06,26.06,0,0,0,2.57,1.19Zm20,0-.32-.81a27.25,27.25,0,0,0,2.57-1.2l.41.77A25.71,25.71,0,0,1,783.55,1195.46Zm-25.19-2.72A26.6,26.6,0,0,1,756,1191l.57-.67a26.91,26.91,0,0,0,2.26,1.72Zm30.36,0-.5-.72a26.91,26.91,0,0,0,2.26-1.72l.57.67A28.56,28.56,0,0,1,788.72,1192.71ZM753.89,1189a28.68,28.68,0,0,1-1.9-2.23l.7-.53a26.91,26.91,0,0,0,1.84,2.16Zm39.28,0-.63-.6a26.47,26.47,0,0,0,1.83-2.16l.7.53A26.65,26.65,0,0,1,793.17,1188.92Zm-42.83-4.61a27.65,27.65,0,0,1-1.37-2.58l.79-.37a27.23,27.23,0,0,0,1.33,2.5Zm46.37,0-.75-.46a23,23,0,0,0,1.33-2.5l.8.37A29.24,29.24,0,0,1,796.71,1184.27ZM747.88,1179a27.41,27.41,0,0,1-.79-2.82l.86-.19a23.5,23.5,0,0,0,.76,2.73Zm51.29,0-.83-.28a25.84,25.84,0,0,0,.76-2.74l.85.19A28.26,28.26,0,0,1,799.17,1179Zm-52.56-5.66a28.61,28.61,0,0,1-.16-2.93h.88a26.69,26.69,0,0,0,.15,2.83Zm53.81-.06-.87-.09a26.84,26.84,0,0,0,.16-2.83v-.11h.87v.11A26,26,0,0,1,800.42,1173.24Zm-52.95-5.7-.87-.09a25.59,25.59,0,0,1,.47-2.89l.85.18A26.74,26.74,0,0,0,747.47,1167.54Zm52.07-.16a27.22,27.22,0,0,0-.46-2.8l.85-.19a29,29,0,0,1,.48,2.89ZM748.67,1162l-.83-.28a28,28,0,0,1,1.08-2.72l.8.36A24.17,24.17,0,0,0,748.67,1162Zm49.64-.15a26.25,26.25,0,0,0-1.06-2.63l.79-.37a29,29,0,0,1,1.1,2.71Zm-47.27-5-.75-.45a26.51,26.51,0,0,1,1.64-2.43l.7.53A26.89,26.89,0,0,0,751,1156.87Zm44.87-.14c-.49-.8-1-1.59-1.6-2.34l.69-.53a28.75,28.75,0,0,1,1.66,2.42Zm-41.45-4.38-.64-.6c.67-.7,1.38-1.38,2.12-2l.57.67A25.23,25.23,0,0,0,754.46,1152.35Zm38-.11a25.16,25.16,0,0,0-2.07-1.94l.57-.67a28.67,28.67,0,0,1,2.13,2Zm-33.71-3.56-.49-.73a28.69,28.69,0,0,1,2.5-1.52l.42.78A24.9,24.9,0,0,0,758.76,1148.68Zm29.38-.09a26.05,26.05,0,0,0-2.43-1.46l.4-.77a27.88,27.88,0,0,1,2.52,1.5ZM763.75,1146l-.32-.81a26.59,26.59,0,0,1,2.77-1l.23.85A25.61,25.61,0,0,0,763.75,1146Zm19.38-.06a25,25,0,0,0-2.69-.9l.23-.84a26.66,26.66,0,0,1,2.78.93Zm-13.93-1.47-.14-.86a25.89,25.89,0,0,1,2.91-.32l0,.87A26.72,26.72,0,0,0,769.2,1144.48Zm8.47,0a26.14,26.14,0,0,0-2.82-.3l0-.87a28.12,28.12,0,0,1,2.91.3Z"/><text class="cls-38" transform="matrix(1, 0, 0, 1, 750.52, 749.4)">China</text><text class="cls-33" transform="matrix(1, 0, 0, 1, 706.35, 775.31)">Jiuzhaigou valley</text><path class="cls-42" d="M783,706.68a8.55,8.55,0,1,1-8.54-8.55,8.54,8.54,0,0,1,8.54,8.55"/><path class="cls-53" d="M782.3,707.41a7.82,7.82,0,1,1-7.81-7.81,7.82,7.82,0,0,1,7.81,7.81"/><path class="cls-29" d="M773.55,715.58c-.52,0-1,0-1.47,0l0-.87,1.43,0c.47,0,.94,0,1.41,0l0,.87C774.52,715.57,774,715.58,773.55,715.58Zm-4.38-.35a25.09,25.09,0,0,1-2.86-.62l.23-.84a26.28,26.28,0,0,0,2.77.6Zm8.75,0-.14-.86a25.6,25.6,0,0,0,2.76-.61l.24.84A25.61,25.61,0,0,1,777.92,715.22Zm-14.39-1.54a26.81,26.81,0,0,1-2.66-1.23l.4-.77a25,25,0,0,0,2.58,1.18Zm20,0-.32-.81a27.25,27.25,0,0,0,2.57-1.2l.41.77A25.71,25.71,0,0,1,783.55,713.66Zm-25.19-2.72a28.71,28.71,0,0,1-2.34-1.77l.57-.67a24.82,24.82,0,0,0,2.26,1.71Zm30.36,0-.5-.72a26.91,26.91,0,0,0,2.26-1.72l.57.66A28.68,28.68,0,0,1,788.72,710.91Zm-34.83-3.75a28.68,28.68,0,0,1-1.9-2.23l.7-.53a26.77,26.77,0,0,0,1.84,2.15Zm39.28,0-.63-.6c.65-.69,1.26-1.42,1.83-2.16l.7.53A28.68,28.68,0,0,1,793.17,707.12Zm-42.83-4.61a29.14,29.14,0,0,1-1.37-2.59l.79-.37a24.85,24.85,0,0,0,1.33,2.5Zm46.37,0L796,702a23.94,23.94,0,0,0,1.33-2.5l.8.37A27.74,27.74,0,0,1,796.71,702.46Zm-48.83-5.25a27.59,27.59,0,0,1-.79-2.83l.85-.19a25.06,25.06,0,0,0,.77,2.73Zm51.29-.05-.83-.28a26.52,26.52,0,0,0,.76-2.74l.85.19A28.26,28.26,0,0,1,799.17,697.16Zm-52.56-5.67a28.26,28.26,0,0,1-.16-2.92h.88a26.69,26.69,0,0,0,.15,2.83Zm53.81,0-.87-.09a26.84,26.84,0,0,0,.16-2.83l.87-.11v.11A26,26,0,0,1,800.42,691.44Zm-52.95-5.7-.87-.09a25.59,25.59,0,0,1,.47-2.89l.85.18A26.33,26.33,0,0,0,747.47,685.74Zm52.07-.16a27.22,27.22,0,0,0-.46-2.8l.85-.19a29,29,0,0,1,.48,2.89Zm-50.87-5.37-.83-.28a28.16,28.16,0,0,1,1.08-2.73l.8.37A24.17,24.17,0,0,0,748.67,680.21Zm49.64-.15a26.25,26.25,0,0,0-1.06-2.63l.79-.37a29,29,0,0,1,1.1,2.71Zm-47.27-5-.75-.45a26.36,26.36,0,0,1,1.64-2.42l.7.53C752.06,673.47,751.53,674.26,751,675.06Zm44.87-.13c-.49-.8-1-1.59-1.6-2.34l.69-.53a26.56,26.56,0,0,1,1.66,2.42Zm-41.45-4.38-.64-.6c.67-.7,1.38-1.38,2.12-2l.57.67A25.23,25.23,0,0,0,754.46,670.55Zm38-.11a25.16,25.16,0,0,0-2.07-1.94l.57-.67c.73.62,1.45,1.3,2.13,2Zm-33.71-3.57-.49-.72a26.42,26.42,0,0,1,2.5-1.52l.42.77A27,27,0,0,0,758.76,666.87Zm29.38-.08a26.05,26.05,0,0,0-2.43-1.46l.41-.77a27.72,27.72,0,0,1,2.51,1.5Zm-24.39-2.58-.32-.81a26.59,26.59,0,0,1,2.77-.95l.23.85A25.61,25.61,0,0,0,763.75,664.21Zm19.38-.06a25,25,0,0,0-2.69-.9l.23-.84a26.66,26.66,0,0,1,2.78.93Zm-13.93-1.47-.14-.86a25.89,25.89,0,0,1,2.91-.32l0,.87A26.72,26.72,0,0,0,769.2,662.68Zm8.47,0c-.92-.14-1.87-.24-2.82-.29l0-.87a28.12,28.12,0,0,1,2.91.3Z"/><text class="cls-38" transform="matrix(1, 0, 0, 1, 709.05, 910.48)">DR of the <tspan class="cls-67" x="78.1" y="0">C</tspan><tspan class="cls-65" x="87.8" y="0">on</tspan><tspan class="cls-68" x="108.41" y="0">g</tspan><tspan x="118.55" y="0">o</tspan></text><text class="cls-33" transform="matrix(1, 0, 0, 1, 716.24, 938.38)">2 times Gomal</text><path class="cls-42" d="M778,871.11a4.45,4.45,0,1,1-4.44-4.44,4.44,4.44,0,0,1,4.44,4.44"/><path class="cls-53" d="M777,872.1a3.46,3.46,0,1,1-3.45-3.45A3.46,3.46,0,0,1,777,872.1"/><path class="cls-29" d="M773.52,876.13c-.49,0-1,0-1.44,0l0-.88a24.46,24.46,0,0,0,2.84,0l0,.88C774.51,876.11,774,876.13,773.52,876.13Zm-4.35-.35a27.48,27.48,0,0,1-2.86-.63l.23-.84a24,24,0,0,0,2.77.6Zm8.75,0-.14-.86a28.24,28.24,0,0,0,2.76-.61l.24.84A28.06,28.06,0,0,1,777.92,875.77Zm-14.39-1.55a25.64,25.64,0,0,1-2.66-1.23l.41-.77a26.06,26.06,0,0,0,2.57,1.19Zm20,0-.32-.81a27.17,27.17,0,0,0,2.57-1.19l.41.77A25.64,25.64,0,0,1,783.55,874.2Zm-25.19-2.71a26.71,26.71,0,0,1-2.34-1.78l.57-.66a24.82,24.82,0,0,0,2.26,1.71Zm30.36,0-.5-.73a26.91,26.91,0,0,0,2.26-1.72l.57.67A28.68,28.68,0,0,1,788.72,871.46Zm-34.83-3.76a25.39,25.39,0,0,1-1.9-2.23l.7-.53a25.27,25.27,0,0,0,1.84,2.16Zm39.28,0-.63-.6a25,25,0,0,0,1.83-2.17l.7.53A28.5,28.5,0,0,1,793.17,867.67Zm-42.83-4.62a27.65,27.65,0,0,1-1.37-2.58l.79-.37a27.23,27.23,0,0,0,1.33,2.5Zm46.37,0-.75-.45a25,25,0,0,0,1.33-2.5l.8.36A26.69,26.69,0,0,1,796.71,863Zm-48.83-5.26a27.41,27.41,0,0,1-.79-2.82l.86-.19a23.5,23.5,0,0,0,.76,2.73Zm51.29,0-.83-.28a25.66,25.66,0,0,0,.76-2.73l.85.19A27.36,27.36,0,0,1,799.17,857.7ZM746.61,852a28.41,28.41,0,0,1-.16-2.92h.88a26.83,26.83,0,0,0,.15,2.83Zm53.81,0-.87-.1a26.84,26.84,0,0,0,.16-2.83V849h.87v.11A26.15,26.15,0,0,1,800.42,852Zm-52.95-5.71-.87-.09a26.34,26.34,0,0,1,.47-2.89l.85.19A26.56,26.56,0,0,0,747.47,846.28Zm52.07-.16a26.59,26.59,0,0,0-.46-2.79l.85-.19a28.09,28.09,0,0,1,.48,2.89Zm-50.87-5.37-.83-.27a28.16,28.16,0,0,1,1.08-2.73l.8.37A24.84,24.84,0,0,0,748.67,840.75Zm49.64-.15a27.25,27.25,0,0,0-1.06-2.63l.79-.37a29.17,29.17,0,0,1,1.1,2.72Zm-47.27-5-.75-.45a28,28,0,0,1,1.64-2.43l.7.53A26.89,26.89,0,0,0,751,835.61Zm44.87-.13a26.83,26.83,0,0,0-1.6-2.34l.69-.53a28.59,28.59,0,0,1,1.66,2.41Zm-41.45-4.38-.64-.6a26.93,26.93,0,0,1,2.12-2l.57.66A27.2,27.2,0,0,0,754.46,831.1Zm38-.11a27.15,27.15,0,0,0-2.07-2l.57-.67c.73.63,1.45,1.3,2.13,2Zm-33.71-3.57-.49-.72a26.42,26.42,0,0,1,2.5-1.52l.42.77A27,27,0,0,0,758.76,827.42Zm29.38-.09a24,24,0,0,0-2.43-1.45l.4-.78a28,28,0,0,1,2.52,1.51Zm-24.39-2.58-.32-.81a26.54,26.54,0,0,1,2.77-.94l.23.84A28.16,28.16,0,0,0,763.75,824.75Zm19.38-.06a27.32,27.32,0,0,0-2.69-.89l.23-.85a26.66,26.66,0,0,1,2.78.93Zm-13.93-1.46-.14-.87A28.45,28.45,0,0,1,772,822l0,.87A26.74,26.74,0,0,0,769.2,823.23Zm8.47,0a23.83,23.83,0,0,0-2.82-.29l0-.88a28.13,28.13,0,0,1,2.91.31Z"/><text class="cls-69" transform="matrix(1, 0, 0, 1, 732.61, 1069.59)">V<tspan class="cls-65" x="9.31" y="0">enezuela</tspan></text><text class="cls-33" transform="matrix(1, 0, 0, 1, 715.8, 1098.39)">Tortuga Island</text><path class="cls-42" d="M778.47,1032.27a5,5,0,1,1-5-5,5,5,0,0,1,5,5"/><path class="cls-53" d="M776.64,1034.1a3.13,3.13,0,1,1-3.12-3.13,3.13,3.13,0,0,1,3.12,3.13"/><path class="cls-29" d="M773.52,1036.66q-.74,0-1.44,0l0-.88a26.9,26.9,0,0,0,2.84,0l0,.87C774.51,1036.65,774,1036.66,773.52,1036.66Zm-4.35-.34a27.66,27.66,0,0,1-2.87-.63l.24-.84a25.74,25.74,0,0,0,2.77.6Zm8.75,0-.14-.87a25.57,25.57,0,0,0,2.76-.6l.24.84A28.06,28.06,0,0,1,777.92,1036.31Zm-14.4-1.55a25.48,25.48,0,0,1-2.65-1.23l.41-.77a26.06,26.06,0,0,0,2.57,1.19Zm20,0-.32-.81a27.17,27.17,0,0,0,2.57-1.19l.41.77A27.9,27.9,0,0,1,783.55,1034.74ZM758.36,1032a26.6,26.6,0,0,1-2.34-1.77l.57-.67a26.91,26.91,0,0,0,2.26,1.72Zm30.36,0-.49-.72a26.76,26.76,0,0,0,2.25-1.72l.57.67A26.46,26.46,0,0,1,788.72,1032Zm-34.83-3.75A28.68,28.68,0,0,1,752,1026l.7-.53a26.91,26.91,0,0,0,1.84,2.16Zm39.28,0-.63-.6a24.88,24.88,0,0,0,1.83-2.16l.7.53A28.68,28.68,0,0,1,793.17,1028.2Zm-42.82-4.61A25.55,25.55,0,0,1,749,1021l.79-.37c.4.85.85,1.69,1.33,2.5Zm46.36,0-.75-.45a26.15,26.15,0,0,0,1.33-2.51l.8.37A27.91,27.91,0,0,1,796.71,1023.55Zm-48.83-5.26a27.41,27.41,0,0,1-.79-2.82l.85-.19a25.71,25.71,0,0,0,.77,2.73Zm51.29,0-.83-.28a25.66,25.66,0,0,0,.76-2.73l.85.18A26.86,26.86,0,0,1,799.17,1018.24Zm-52.55-5.66a26,26,0,0,1-.17-2.93h.88a26.55,26.55,0,0,0,.15,2.83Zm53.8-.06-.87-.09a26.84,26.84,0,0,0,.16-2.83l.59-.07.28.05A26.07,26.07,0,0,1,800.42,1012.52Zm-52.95-5.7-.87-.09a28.06,28.06,0,0,1,.47-2.89l.85.18A27.17,27.17,0,0,0,747.47,1006.82Zm52.07-.16a27,27,0,0,0-.46-2.79l.85-.19a26.38,26.38,0,0,1,.48,2.89Zm-50.87-5.37-.83-.28a28,28,0,0,1,1.08-2.72l.8.36A24.17,24.17,0,0,0,748.67,1001.29Zm49.64-.15a27.25,27.25,0,0,0-1.06-2.63l.79-.37a28.1,28.1,0,0,1,1.1,2.72Zm-47.27-5-.75-.45a26.51,26.51,0,0,1,1.64-2.43l.7.53A26.89,26.89,0,0,0,751,996.15Zm44.87-.13a24.2,24.2,0,0,0-1.6-2.34l.7-.53a26.31,26.31,0,0,1,1.65,2.41Zm-41.45-4.39-.64-.59a29,29,0,0,1,2.12-2l.57.67A27.08,27.08,0,0,0,754.46,991.63Zm38-.11c-.66-.68-1.35-1.33-2.07-1.94l.57-.67a28.79,28.79,0,0,1,2.13,2ZM758.76,988l-.49-.73a28.77,28.77,0,0,1,2.51-1.51l.41.77A26.15,26.15,0,0,0,758.76,988Zm29.38-.09a24,24,0,0,0-2.43-1.45l.41-.78a25.68,25.68,0,0,1,2.51,1.51Zm-24.39-2.58-.32-.81a26.54,26.54,0,0,1,2.77-.94l.24.84A25.78,25.78,0,0,0,763.75,985.29Zm19.39-.06a26.46,26.46,0,0,0-2.69-.89l.23-.85a27.47,27.47,0,0,1,2.78.93Zm-13.94-1.47-.14-.86a25.89,25.89,0,0,1,2.91-.32l0,.87A26.72,26.72,0,0,0,769.2,983.76Zm8.47,0a26.69,26.69,0,0,0-2.82-.3l0-.87a28.4,28.4,0,0,1,2.91.3Z"/><path class="cls-29" d="M524.43,1037c-.51,0-1,0-1.48,0l0-.87c.47,0,1,0,1.43,0s.94,0,1.4,0l0,.87C525.4,1036.94,524.91,1037,524.43,1037Zm-4.39-.35a25.57,25.57,0,0,1-2.86-.62l.23-.84a26.28,26.28,0,0,0,2.77.6Zm8.75,0-.14-.86a26.32,26.32,0,0,0,2.77-.61l.23.85A24.64,24.64,0,0,1,528.79,1036.59Zm-14.39-1.54a25.64,25.64,0,0,1-2.66-1.23l.41-.77a27.17,27.17,0,0,0,2.57,1.19Zm20,0-.33-.81a24,24,0,0,0,2.57-1.2l.41.77A26.56,26.56,0,0,1,534.43,1035Zm-25.2-2.72a26.46,26.46,0,0,1-2.33-1.77l.56-.67a26.91,26.91,0,0,0,2.26,1.72Zm30.36,0-.49-.72a25.23,25.23,0,0,0,2.25-1.72l.57.67A28.56,28.56,0,0,1,539.59,1032.28Zm-34.82-3.75a26.65,26.65,0,0,1-1.9-2.23l.69-.53a26.91,26.91,0,0,0,1.84,2.16Zm39.28,0-.64-.6a26.91,26.91,0,0,0,1.84-2.16l.69.53A26.53,26.53,0,0,1,544.05,1028.49Zm-42.83-4.61a24.67,24.67,0,0,1-1.38-2.59l.79-.36a27.32,27.32,0,0,0,1.34,2.5Zm46.36,0-.74-.45c.48-.81.93-1.65,1.33-2.51l.79.37A26.83,26.83,0,0,1,547.58,1023.84Zm-48.83-5.26a27.41,27.41,0,0,1-.79-2.82l.86-.19a25.66,25.66,0,0,0,.76,2.73Zm51.29-.05-.82-.28a25.79,25.79,0,0,0,.75-2.74l.86.19A28.32,28.32,0,0,1,550,1018.53Zm-52.55-5.66a26,26,0,0,1-.16-2.93h.87a24.16,24.16,0,0,0,.16,2.83Zm53.81-.06-.87-.09a26.83,26.83,0,0,0,.15-2.83l.87-.11v.11A28.55,28.55,0,0,1,551.3,1012.81Zm-52.95-5.7-.88-.09a28.06,28.06,0,0,1,.47-2.89l.85.18A24.66,24.66,0,0,0,498.35,1007.11Zm52.07-.16a26.63,26.63,0,0,0-.47-2.79l.85-.2a24.19,24.19,0,0,1,.48,2.89Zm-50.88-5.37-.82-.28a25.59,25.59,0,0,1,1.07-2.72l.8.36A26.37,26.37,0,0,0,499.54,1001.58Zm49.64-.15a24.07,24.07,0,0,0-1.06-2.63l.8-.37a26.43,26.43,0,0,1,1.09,2.71Zm-47.27-5-.75-.45a26.61,26.61,0,0,1,1.65-2.43l.69.53A26.89,26.89,0,0,0,501.91,996.44Zm44.87-.14a24.2,24.2,0,0,0-1.6-2.34l.7-.53a26.46,26.46,0,0,1,1.65,2.42Zm-41.45-4.38-.63-.6a27.11,27.11,0,0,1,2.12-2l.57.67A23.82,23.82,0,0,0,505.33,991.92Zm38-.11a25.16,25.16,0,0,0-2.07-1.94l.57-.67a26.83,26.83,0,0,1,2.13,2Zm-33.7-3.56-.5-.73a27.82,27.82,0,0,1,2.51-1.51l.41.77A24.75,24.75,0,0,0,509.64,988.25Zm29.37-.09a26.05,26.05,0,0,0-2.43-1.46l.41-.77a27.72,27.72,0,0,1,2.51,1.5Zm-24.38-2.58-.33-.81a29.15,29.15,0,0,1,2.77-.95l.24.85A24.85,24.85,0,0,0,514.63,985.58Zm19.38-.06a25.72,25.72,0,0,0-2.69-.9l.23-.84a27.47,27.47,0,0,1,2.78.93Zm-13.94-1.47-.14-.86a25.89,25.89,0,0,1,2.91-.32l0,.87A26.72,26.72,0,0,0,520.07,984.05Zm8.47,0a26.23,26.23,0,0,0-2.81-.3l0-.87a27.84,27.84,0,0,1,2.91.3Z"/><path class="cls-29" d="M267.67,1037.08l-1.44,0,0-.88a26.9,26.9,0,0,0,2.84,0l0,.87C268.67,1037.07,268.17,1037.08,267.67,1037.08Zm-4.35-.34a28.06,28.06,0,0,1-2.86-.63l.24-.84a25.57,25.57,0,0,0,2.76.6Zm8.76,0-.15-.87a25.23,25.23,0,0,0,2.77-.6l.23.84A27.29,27.29,0,0,1,272.08,1036.73Zm-14.4-1.55A26.64,26.64,0,0,1,255,1034l.41-.77a26.23,26.23,0,0,0,2.58,1.19Zm20,0-.32-.81c.87-.35,1.73-.75,2.57-1.19l.41.77A29.09,29.09,0,0,1,277.71,1035.16Zm-25.2-2.72a28,28,0,0,1-2.33-1.77l.56-.67a28.07,28.07,0,0,0,2.26,1.72Zm30.36,0-.49-.72a26.91,26.91,0,0,0,2.26-1.72l.56.67A25.05,25.05,0,0,1,282.87,1032.41Zm-34.82-3.75a28.68,28.68,0,0,1-1.9-2.23l.7-.53a25,25,0,0,0,1.84,2.16Zm39.28,0-.64-.6a25,25,0,0,0,1.84-2.16l.7.53A28.68,28.68,0,0,1,287.33,1028.62ZM244.5,1024c-.5-.83-1-1.7-1.38-2.58l.8-.37a25,25,0,0,0,1.33,2.5Zm46.37,0-.75-.45a26.15,26.15,0,0,0,1.33-2.51l.79.37A27.82,27.82,0,0,1,290.87,1024ZM242,1018.71a27.36,27.36,0,0,1-.78-2.82l.85-.19a25.66,25.66,0,0,0,.76,2.73Zm51.3-.05-.83-.28a28.27,28.27,0,0,0,.76-2.73l.85.18A26.86,26.86,0,0,1,293.33,1018.66ZM240.77,1013a26,26,0,0,1-.16-2.93h.87a26.54,26.54,0,0,0,.16,2.83Zm53.81-.06-.87-.09a26.83,26.83,0,0,0,.15-2.83l.88-.11v.11A28.57,28.57,0,0,1,294.58,1012.94Zm-52.95-5.7-.87-.09a28,28,0,0,1,.46-2.89l.86.18A27.17,27.17,0,0,0,241.63,1007.24Zm52.07-.16a24.25,24.25,0,0,0-.47-2.79l.86-.19a28.09,28.09,0,0,1,.48,2.89Zm-50.87-5.37-.83-.28a25.65,25.65,0,0,1,1.08-2.72l.79.36A27.29,27.29,0,0,0,242.83,1001.71Zm49.64-.15c-.31-.89-.67-1.78-1.06-2.63l.79-.37a25.71,25.71,0,0,1,1.09,2.72Zm-47.27-5-.75-.45a26.51,26.51,0,0,1,1.64-2.43l.7.53A24.83,24.83,0,0,0,245.2,996.57Zm44.87-.13a25.4,25.4,0,0,0-1.6-2.34l.69-.54c.59.78,1.15,1.59,1.66,2.42Zm-41.45-4.39-.64-.6a29,29,0,0,1,2.12-2l.57.67A27.08,27.08,0,0,0,248.62,992.05Zm38-.11a27,27,0,0,0-2.07-1.94l.56-.67a28.93,28.93,0,0,1,2.14,2Zm-33.71-3.56-.49-.73a28.6,28.6,0,0,1,2.5-1.51l.41.77A26,26,0,0,0,252.92,988.38Zm29.38-.09a24,24,0,0,0-2.43-1.45l.4-.78a28,28,0,0,1,2.52,1.51Zm-24.39-2.58-.33-.81a27.53,27.53,0,0,1,2.78-.94l.24.84A25,25,0,0,0,257.91,985.71Zm19.38-.06a24.91,24.91,0,0,0-2.69-.89l.23-.85a26.66,26.66,0,0,1,2.78.93Zm-13.93-1.47-.14-.86a25.89,25.89,0,0,1,2.91-.32l.05.87A26.72,26.72,0,0,0,263.36,984.18Zm8.47,0a26.69,26.69,0,0,0-2.82-.3l.05-.87a28.4,28.4,0,0,1,2.91.3Z"/><line class="cls-70" x1="730" y1="47.5" x2="732" y2="47.5"/><line class="cls-71" x1="736.02" y1="47.5" x2="958.99" y2="47.5"/><line class="cls-70" x1="961" y1="47.5" x2="963" y2="47.5"/><line class="cls-70" x1="730" y1="86.5" x2="732" y2="86.5"/><line class="cls-71" x1="736.02" y1="86.5" x2="958.99" y2="86.5"/><line class="cls-70" x1="961" y1="86.5" x2="963" y2="86.5"/><line class="cls-70" x1="730" y1="170.5" x2="732" y2="170.5"/><line class="cls-71" x1="736.02" y1="170.5" x2="958.99" y2="170.5"/><line class="cls-70" x1="961" y1="170.5" x2="963" y2="170.5"/><line class="cls-72" x1="266" y1="501" x2="264" y2="501"/><line class="cls-73" x1="260.05" y1="501" x2="111.97" y2="501"/><line class="cls-72" x1="110" y1="501" x2="108" y2="501"/><line class="cls-72" x1="1129" y1="529.5" x2="1127" y2="529.5"/><line class="cls-74" x1="1123.08" y1="529.5" x2="960.46" y2="529.5"/><line class="cls-72" x1="958.5" y1="529.5" x2="956.5" y2="529.5"/><rect class="cls-1" width="1926" height="1481"/></g></g></svg>