<svg xmlns="http://www.w3.org/2000/svg" viewBox="0 0 1919 403"><defs><style>.cls-1,.cls-14,.cls-15,.cls-8{fill:none;}.cls-2{font-size:15.64px;fill:#fff;font-family:FiraSans-BoldItalic, Fira Sans;}.cls-17,.cls-18,.cls-2,.cls-9{font-weight:700;font-style:italic;}.cls-3{letter-spacing:-0.02em;}.cls-4{letter-spacing:-0.01em;}.cls-5{letter-spacing:0em;}.cls-6{letter-spacing:-0.02em;}.cls-7,.cls-9{fill:#91bf3e;}.cls-16,.cls-17,.cls-7,.cls-9{opacity:0.74;}.cls-8{stroke:#a6a8ab;}.cls-14,.cls-15,.cls-8{stroke-miterlimit:10;}.cls-17,.cls-18,.cls-9{font-size:36px;font-family:FiraSans-SemiBoldItalic, Fira Sans;}.cls-10{letter-spacing:-0.03em;}.cls-11{letter-spacing:-0.01em;}.cls-12{letter-spacing:0em;}.cls-13{letter-spacing:-0.01em;}.cls-14,.cls-15{stroke:#231f20;stroke-width:0.25px;}.cls-15{stroke-dasharray:1.98 1.98;}.cls-16,.cls-17{fill:#329690;}.cls-18,.cls-20{opacity:0.7;fill:#d8d8d7;}.cls-19{letter-spacing:0em;}</style></defs><title>risorsa_03_1</title><g id="Livello_2" data-name="Livello 2"><g id="Livello_1-2" data-name="Livello 1"><line class="cls-1" x1="1281.68" y1="227.8" x2="1281.06" y2="229.04"/><text class="cls-2" transform="translate(455.39 127.35)">0</text><text class="cls-2" transform="translate(402.71 127.35)">0.2</text><text class="cls-2" transform="translate(366.97 127.35)">0<tspan class="cls-3" x="9.01" y="0">.</tspan><tspan x="12.4" y="0">4</tspan></text><text class="cls-2" transform="translate(329.92 127.35)">0<tspan class="cls-4" x="9.01" y="0">.</tspan><tspan class="cls-5" x="12.6" y="0">6</tspan></text><text class="cls-2" transform="translate(294.84 127.35)">0.8</text><text class="cls-2" transform="translate(480.29 127.35)">billion <tspan class="cls-6" x="48.16" y="0">t</tspan><tspan x="53.73" y="0">onns</tspan></text><path class="cls-7" d="M356.64,170.08c23-30.46,106.56-25.89,106.56-25.89s26.7,78.64,3.72,109.09a69.07,69.07,0,0,1-110.28-83.2Z"/><path class="cls-8" d="M355.89,190.74a111.4,111.4,0,0,1-7-46.71l-36.09,0a147.32,147.32,0,0,0,9.43,59.45c27.71,73,107.31,111.4,181,89.21l-9.33-34.8A112.12,112.12,0,0,1,355.89,190.74Z"/><path class="cls-8" d="M493.86,257.93,484.49,223a75.7,75.7,0,0,1-99.43-79l-36.2,0a111.9,111.9,0,0,0,145,113.9Z"/><path class="cls-8" d="M474.77,188.35A39.86,39.86,0,0,1,421.35,144l-36.29,0a75.7,75.7,0,0,0,99.43,79l-9.34-34.84Z"/><path class="cls-8" d="M474.77,188.35l.38-.17-11.88-44.27-41.92,0a39.86,39.86,0,0,0,53.42,44.4Z"/><text class="cls-9" transform="translate(307.46 366.22)">G<tspan class="cls-10" x="22.75" y="0">r</tspan><tspan class="cls-11" x="35.71" y="0">e</tspan><tspan class="cls-12" x="54.5" y="0">en </tspan><tspan class="cls-13" x="102.53" y="0">f</tspan><tspan x="114.48" y="0">ootprint</tspan></text><text class="cls-2" transform="translate(880.89 127.35)">0</text><text class="cls-2" transform="translate(828.21 127.35)">0.2</text><text class="cls-2" transform="translate(792.47 127.35)">0<tspan class="cls-3" x="9.01" y="0">.</tspan><tspan x="12.4" y="0">4</tspan></text><text class="cls-2" transform="translate(755.42 127.35)">0<tspan class="cls-4" x="9.01" y="0">.</tspan><tspan class="cls-5" x="12.6" y="0">6</tspan></text><text class="cls-2" transform="translate(720.34 127.35)">0.8</text><text class="cls-2" transform="translate(905.79 127.35)">billion <tspan class="cls-6" x="48.16" y="0">t</tspan><tspan x="53.73" y="0">onns</tspan></text><line class="cls-14" x1="860.82" y1="300.51" x2="861.46" y2="299.75"/><line class="cls-15" x1="862.74" y1="298.23" x2="987.39" y2="150.76"/><line class="cls-14" x1="988.03" y1="150" x2="988.68" y2="149.24"/><path class="cls-16" d="M781.14,170.08c23-30.46,106.56-25.89,106.56-25.89s26.7,78.64,3.72,109.09a69.07,69.07,0,0,1-110.28-83.2Z"/><path class="cls-8" d="M780.39,190.74a111.4,111.4,0,0,1-7-46.71l-36.09,0a147.32,147.32,0,0,0,9.43,59.45c27.71,73,107.31,111.4,181,89.21l-9.33-34.8A112.12,112.12,0,0,1,780.39,190.74Z"/><path class="cls-8" d="M918.36,257.93,909,223a75.7,75.7,0,0,1-99.43-79l-36.2,0a111.9,111.9,0,0,0,145,113.9Z"/><path class="cls-8" d="M899.27,188.35A39.86,39.86,0,0,1,845.85,144l-36.29,0A75.7,75.7,0,0,0,909,223l-9.34-34.84Z"/><path class="cls-8" d="M899.27,188.35l.38-.17-11.88-44.27-41.92,0a39.86,39.86,0,0,0,53.42,44.4Z"/><text class="cls-17" transform="translate(743.2 366.22)">Blue <tspan class="cls-13" x="80.06" y="0">f</tspan><tspan x="92.01" y="0">ootprint</tspan></text><text class="cls-2" transform="translate(1311.39 127.35)">0</text><text class="cls-2" transform="translate(1258.71 127.35)">0.2</text><text class="cls-2" transform="translate(1222.97 127.35)">0<tspan class="cls-3" x="9.01" y="0">.</tspan><tspan x="12.4" y="0">4</tspan></text><text class="cls-2" transform="translate(1185.92 127.35)">0<tspan class="cls-4" x="9.01" y="0">.</tspan><tspan class="cls-5" x="12.6" y="0">6</tspan></text><text class="cls-2" transform="translate(1150.84 127.35)">0.8</text><text class="cls-2" transform="translate(1336.29 127.35)">billion <tspan class="cls-6" x="48.16" y="0">t</tspan><tspan x="53.73" y="0">onns</tspan></text><text class="cls-18" transform="translate(1168.17 366.22)">G<tspan class="cls-10" x="22.75" y="0">r</tspan><tspan class="cls-19" x="35.71" y="0">e</tspan><tspan x="54.58" y="0">y </tspan><tspan class="cls-13" x="81.11" y="0">f</tspan><tspan x="93.06" y="0">ootprint</tspan></text><path class="cls-8" d="M1205.89,190.74a111.4,111.4,0,0,1-7-46.71l-36.09,0a147.32,147.32,0,0,0,9.43,59.45c27.71,73,107.31,111.4,181,89.21l-9.33-34.8A112.12,112.12,0,0,1,1205.89,190.74Z"/><path class="cls-8" d="M1343.86,257.93,1334.49,223a75.7,75.7,0,0,1-99.43-79l-36.2,0a111.9,111.9,0,0,0,145,113.9Z"/><path class="cls-8" d="M1324.77,188.35a39.86,39.86,0,0,1-53.42-44.4l-36.29,0a75.7,75.7,0,0,0,99.43,79l-9.34-34.84Z"/><path class="cls-8" d="M1324.77,188.35l.38-.17-11.88-44.27-41.92,0a39.86,39.86,0,0,0,53.42,44.4Z"/><path class="cls-20" d="M1206.64,170.08c23-30.46,106.56-25.89,106.56-25.89s26.7,78.64,3.72,109.09a69.07,69.07,0,0,1-110.28-83.2Z"/><rect class="cls-1" width="1919" height="403"/></g></g></svg>