<svg xmlns="http://www.w3.org/2000/svg" viewBox="0 0 1950 1028"><defs><style>.cls-1,.cls-30,.cls-31{opacity:0.7;}.cls-1,.cls-16{font-size:20px;font-family:FiraSans-Bold, Fira Sans;}.cls-1{fill:#57ffef;}.cls-1,.cls-16,.cls-20,.cls-33,.cls-34,.cls-35,.cls-40{font-weight:700;}.cls-2{letter-spacing:-0.05em;}.cls-3{letter-spacing:-0.01em;}.cls-4{letter-spacing:-0.01em;}.cls-5{letter-spacing:0em;}.cls-6{letter-spacing:-0.01em;}.cls-7{letter-spacing:-0.02em;}.cls-8{font-size:29px;}.cls-9{letter-spacing:-0.07em;}.cls-10{letter-spacing:0em;}.cls-11{letter-spacing:0em;}.cls-12{letter-spacing:-0.02em;}.cls-13{letter-spacing:-0.01em;}.cls-14{letter-spacing:-0.01em;}.cls-15{letter-spacing:0em;}.cls-16,.cls-32,.cls-35,.cls-40{fill:#c8dc94;}.cls-17{letter-spacing:-0.01em;}.cls-18{letter-spacing:-0.01em;}.cls-19{letter-spacing:-0.04em;}.cls-20{isolation:isolate;font-size:18px;fill:#e3f1c9;font-family:FiraSans-SemiBold, Fira Sans;}.cls-21{letter-spacing:-0.01em;}.cls-22{letter-spacing:-0.01em;}.cls-23{letter-spacing:0em;}.cls-24{letter-spacing:-0.05em;}.cls-25{letter-spacing:-0.03em;}.cls-26{letter-spacing:0em;}.cls-27{letter-spacing:-0.06em;}.cls-28{letter-spacing:-0.05em;}.cls-29,.cls-40{letter-spacing:-0.02em;}.cls-30{fill:#329690;}.cls-31{fill:#93833f;}.cls-33,.cls-34,.cls-35,.cls-40{font-size:16px;font-family:FiraSans-BoldItalic, Fira Sans;font-style:italic;}.cls-33{fill:#6ab2ae;}.cls-34{fill:#a89957;}.cls-36{letter-spacing:-0.02em;}.cls-37{letter-spacing:-0.01em;}.cls-38{letter-spacing:-0.03em;}.cls-39{letter-spacing:0em;}.cls-41{letter-spacing:0em;}.cls-42{letter-spacing:-0.03em;}.cls-43{letter-spacing:-0.02em;}.cls-44{letter-spacing:-0.02em;}.cls-45{letter-spacing:0em;}.cls-46{letter-spacing:-0.01em;}.cls-47{letter-spacing:-0.01em;}.cls-48{letter-spacing:-0.04em;}.cls-49{letter-spacing:-0.01em;}.cls-50{letter-spacing:-0.01em;}.cls-51{letter-spacing:-0.01em;}.cls-52{letter-spacing:-0.01em;}.cls-53{letter-spacing:-0.03em;}.cls-54{letter-spacing:0.01em;}.cls-55{letter-spacing:-0.01em;}.cls-56{letter-spacing:-0.02em;}.cls-57{letter-spacing:0em;}.cls-58{fill:none;}</style></defs><title>soil_wat_flow</title><g id="Livello_2" data-name="Livello 2"><g id="Livello_1-2" data-name="Livello 1"><text class="cls-1" transform="translate(1582.61 453.72)"><tspan class="cls-2">T</tspan><tspan x="9.7" y="0">o</tspan><tspan class="cls-3" x="21.38" y="0">t</tspan><tspan class="cls-4" x="28.86" y="0">a</tspan><tspan class="cls-5" x="39.62" y="0">l amount of </tspan><tspan class="cls-6" x="148.82" y="0">w</tspan><tspan x="163.52" y="0">a</tspan><tspan class="cls-7" x="174.48" y="0">t</tspan><tspan x="181.84" y="0">er </tspan><tspan class="cls-8"><tspan x="0" y="34.8">5</tspan><tspan class="cls-9" x="15.54" y="34.8">4</tspan><tspan x="29.84" y="34.8">1</tspan><tspan class="cls-10" x="43.3" y="34.8">3</tspan><tspan class="cls-9" x="58.32" y="34.8">4</tspan><tspan class="cls-11" x="72.62" y="34.8">1</tspan><tspan class="cls-12" x="86.07" y="34.8">7</tspan><tspan class="cls-13" x="99.15" y="34.8">8</tspan><tspan class="cls-14" x="115.56" y="34.8">7</tspan><tspan x="128.76" y="34.8">9 </tspan><tspan class="cls-15" x="151.87" y="34.8">m</tspan><tspan x="176.23" y="34.8">³</tspan></tspan></text><text class="cls-16" transform="translate(1582.61 159.72)"><tspan class="cls-2">T</tspan><tspan x="9.7" y="0">o</tspan><tspan class="cls-3" x="21.38" y="0">t</tspan><tspan class="cls-4" x="28.86" y="0">a</tspan><tspan class="cls-5" x="39.62" y="0">l amount of soil</tspan><tspan class="cls-8"><tspan x="0" y="34.8">5</tspan><tspan class="cls-17" x="15.54" y="34.8">0</tspan><tspan class="cls-18" x="32.19" y="34.8">2</tspan><tspan class="cls-19" x="46.89" y="34.8">7</tspan><tspan x="59.3" y="34.8">40 ha</tspan></tspan></text><text class="cls-20" transform="translate(563.6 925.63)">Use of <tspan class="cls-21" x="55.96" y="0">r</tspan><tspan x="62.93" y="0">esou</tspan><tspan class="cls-21" x="102.35" y="0">rc</tspan><tspan x="117.74" y="0">es </tspan><tspan class="cls-22" x="140.7" y="0">f</tspan><tspan x="146.84" y="0">or 19 main p</tspan><tspan class="cls-21" x="247.15" y="0">r</tspan><tspan x="254.12" y="0">odu</tspan><tspan class="cls-21" x="285.75" y="0">c</tspan><tspan x="294.17" y="0">e</tspan><tspan class="cls-21" x="304.12" y="0">r</tspan><tspan x="311.09" y="0">s, ca</tspan><tspan class="cls-22" x="346.87" y="0">l</tspan><tspan class="cls-23" x="352.02" y="0">cula</tspan><tspan class="cls-22" x="386.13" y="0">t</tspan><tspan x="392.79" y="0">ed with </tspan><tspan class="cls-24" x="457.99" y="0">F</tspan><tspan class="cls-25" x="465.87" y="0">A</tspan><tspan class="cls-26" x="475.88" y="0">O</tspan><tspan class="cls-21" x="488.23" y="0">S</tspan><tspan class="cls-27" x="498.22" y="0">T</tspan><tspan class="cls-28" x="506.75" y="0">A</tspan><tspan x="516.4" y="0">T and </tspan><tspan class="cls-29" x="565.84" y="0">W</tspan><tspan class="cls-28" x="580.64" y="0">A</tspan><tspan x="590.29" y="0">TER</tspan><tspan class="cls-21" x="620.45" y="0">S</tspan><tspan class="cls-27" x="630.44" y="0">T</tspan><tspan class="cls-28" x="638.97" y="0">A</tspan><tspan x="648.62" y="0">T </tspan><tspan class="cls-21" x="662.63" y="0">r</tspan><tspan x="669.59" y="0">esou</tspan><tspan class="cls-21" x="709.01" y="0">rc</tspan><tspan x="724.4" y="0">es</tspan></text><path class="cls-30" d="M1545.18,828.51c-165.07,0-330.69,12.3-490.86,24.19s-325.78,24.19-490.84,24.19v.33c165.07,0,330.69-12.29,490.86-24.19s325.79-24.18,490.84-24.18Z"/><path class="cls-31" d="M1545.18,423.72c-39.7,0-80.1,6.38-123.52,19.5-38.67,11.69-78.86,28.5-122.87,51.4-81.74,42.52-164.56,100.17-244.65,155.91C894,762,728.44,877.22,563.48,877.22v.67c39.7,0,80.11-6.37,123.52-19.5,38.67-11.68,78.87-28.5,122.87-51.39,81.74-42.53,164.56-100.17,244.65-155.92,160.13-111.45,325.71-226.69,490.66-226.69Z"/><rect class="cls-32" x="543.47" y="875.55" width="3.33" height="1.01"/><text class="cls-33" transform="matrix(1, 0, 0, 1, 356.98, 880.17)">1%</text><text class="cls-34" transform="matrix(1, 0, 0, 1, 433.98, 880.17)">3%</text><text class="cls-35" transform="matrix(1, 0, 0, 1, 244.87, 879.99)"><tspan class="cls-36">E</tspan><tspan x="7.98" y="0">thiopia</tspan></text><path class="cls-30" d="M1545.18,828.18c-165.07,0-330.7,9.92-490.87,19.51S728.53,867.2,563.48,867.2v.67c165.07,0,330.7-9.92,490.87-19.51s325.78-19.51,490.83-19.51Z"/><path class="cls-31" d="M1545.18,422.37c-39.73,0-80.17,6.27-123.61,19.16-38.69,11.48-78.9,28-122.93,50.47-81.76,41.76-164.59,98.35-244.69,153.07C893.87,754.44,728.34,867.54,563.48,867.54v1.34c39.73,0,80.17-6.26,123.62-19.15,38.69-11.48,78.9-28,122.93-50.48,81.75-41.75,164.58-98.34,244.68-153.07,160.08-109.37,325.62-222.46,490.47-222.46Z"/><rect class="cls-32" x="543.47" y="866.87" width="3.33" height="1.35"/><text class="cls-33" transform="translate(356.96 831.61)">1%</text><text class="cls-34" transform="translate(433.96 831.61)">2%</text><text class="cls-35" transform="translate(276.09 831.61)">D<tspan class="cls-37" x="10.27" y="0">R</tspan><tspan x="19.78" y="0">C</tspan></text><path class="cls-30" d="M1545.18,827.84c-165.07,0-330.69,7.71-490.86,15.17s-325.78,15.18-490.84,15.18v.67c165.07,0,330.7-7.71,490.87-15.17s325.78-15.18,490.83-15.18Z"/><path class="cls-31" d="M1545.18,421.7c-39.7,0-80.1,6.15-123.52,18.8C1383,451.77,1342.8,468,1298.79,490c-81.73,41-164.55,96.56-244.65,150.3C894,747.77,728.44,858.86,563.48,858.86v.67c39.7,0,80.1-6.14,123.52-18.79,38.67-11.27,78.86-27.48,122.87-49.55,81.74-41,164.56-96.56,244.65-150.29,160.12-107.44,325.7-218.53,490.66-218.53Z"/><rect class="cls-32" x="543.47" y="856.86" width="3.33" height="1.35"/><text class="cls-33" transform="translate(357.78 789.67)">2%</text><text class="cls-34" transform="translate(434.78 789.67)">3%</text><text class="cls-35" transform="translate(240.47 789.67)">Aust<tspan class="cls-38" x="31.87" y="0">r</tspan><tspan class="cls-39" x="37.66" y="0">alia</tspan></text><path class="cls-30" d="M1545.18,827.17c-165.07,0-330.69,5.51-490.86,10.83s-325.78,10.84-490.84,10.84v.67c165.07,0,330.69-5.51,490.86-10.83s325.79-10.84,490.84-10.84Z"/><path class="cls-31" d="M1545.18,421c-39.7,0-80.1,6-123.51,18.42C1383,450.5,1342.8,466.38,1298.8,488c-81.74,40.18-164.56,94.65-244.65,147.32C894,740.63,728.44,849.51,563.48,849.51v.68c39.7,0,80.1-6,123.52-18.43,38.67-11,78.86-26.93,122.87-48.56C891.6,743,974.42,688.56,1054.52,635.89c160.12-105.3,325.7-214.19,490.66-214.19Z"/><rect class="cls-32" x="543.47" y="848.17" width="3.33" height="1.35"/><text class="cls-33" transform="translate(356.96 741.02)">2%</text><text class="cls-34" transform="translate(433.96 741.02)">3%</text><text class="cls-40" transform="translate(233.53 741.02)">C<tspan class="cls-41" x="8.72" y="0">ame</tspan><tspan class="cls-42" x="39.7" y="0">r</tspan><tspan class="cls-41" x="45.49" y="0">oon</tspan></text><path class="cls-30" d="M1545.18,826.16c-165.06,0-330.69,3.3-490.86,6.5s-325.78,6.5-490.84,6.5v1c165.07,0,330.69-3.31,490.86-6.5s325.79-6.5,490.84-6.5Z"/><path class="cls-31" d="M1545.18,420.36c-39.7,0-80.1,5.9-123.51,18.05C1383,449.23,1342.81,464.79,1298.8,486c-81.74,39.37-164.56,92.73-244.65,144.33C894,733.48,728.44,840.17,563.48,840.17v.67c39.7,0,80.1-5.91,123.52-18.05,38.67-10.82,78.86-26.39,122.87-47.58,81.73-39.37,164.55-92.73,244.64-144.33C1214.64,527.71,1380.22,421,1545.18,421Z"/><rect class="cls-32" x="543.47" y="837.82" width="3.33" height="1.68"/><text class="cls-33" transform="matrix(1, 0, 0, 1, 357.24, 694.62)">2%</text><text class="cls-34" transform="matrix(1, 0, 0, 1, 434.24, 694.62)">3%</text><text class="cls-35" transform="matrix(1, 0, 0, 1, 216.65, 694.36)">South Afri<tspan class="cls-43" x="71.42" y="0">c</tspan><tspan class="cls-39" x="78.62" y="0">a</tspan></text><path class="cls-30" d="M1545.18,825.49c-165.06,0-330.68,1-490.85,2s-325.79,2-490.85,2v.68c165.06,0,330.69-1,490.85-2s325.79-2,490.85-2Z"/><path class="cls-31" d="M1545.18,419.35c-39.71,0-80.13,5.78-123.56,17.67-38.67,10.59-78.87,25.82-122.89,46.56-81.75,38.53-164.57,90.75-244.67,141.24C894,725.77,728.4,830.15,563.48,830.15v1c39.71,0,80.13-5.78,123.56-17.67,38.68-10.59,78.88-25.82,122.89-46.56,81.75-38.53,164.57-90.74,244.67-141.24,160.11-100.95,325.67-205.32,490.58-205.32Z"/><rect class="cls-32" x="543.47" y="828.81" width="3.33" height="1.68"/><text class="cls-33" transform="translate(356.96 646.26)">2%</text><text class="cls-34" transform="translate(433.96 646.26)">2%</text><text class="cls-35" transform="translate(232.61 646.26)"><tspan class="cls-44">V</tspan><tspan class="cls-39" x="8.58" y="0">en</tspan><tspan class="cls-45" x="26.19" y="0">e</tspan><tspan class="cls-46" x="34.64" y="0">z</tspan><tspan class="cls-39" x="41.66" y="0">ue</tspan><tspan class="cls-47" x="59.18" y="0">l</tspan><tspan x="63.71" y="0">a</tspan></text><path class="cls-30" d="M563.48,819.79v.33c165.06,0,330.68,1.37,490.85,2.69s325.79,2.68,490.85,2.68v-.34c-165.06,0-330.68-1.36-490.85-2.68S728.54,819.79,563.48,819.79Z"/><path class="cls-31" d="M1545.18,418c-39.73,0-80.15,5.66-123.6,17.3-38.68,10.37-78.89,25.29-122.92,45.6-81.75,37.71-164.58,88.83-244.68,138.26-160.09,98.8-325.63,201-490.5,201v1.35c39.73,0,80.16-5.66,123.6-17.3C725.77,793.8,766,778.89,810,758.58c81.76-37.72,164.58-88.84,244.68-138.27,160.09-98.8,325.63-201,490.5-201Z"/><rect class="cls-32" x="543.47" y="819.05" width="3.33" height="1.68" transform="translate(-2.43 1.62) rotate(-0.17)"/><text class="cls-33" transform="translate(357.22 601.43)">1%</text><text class="cls-34" transform="translate(434.22 601.43)">2%</text><text class="cls-35" transform="translate(264.51 601.43)">Spain</text><path class="cls-30" d="M563.48,809.1v1c165.06,0,330.68,3.83,490.84,7.53s325.79,7.52,490.86,7.52v-1c-165,0-330.67-3.82-490.84-7.52S728.55,809.1,563.48,809.1Z"/><path class="cls-31" d="M1545.18,416.32c-39.74,0-80.18,5.54-123.64,16.95-38.69,10.15-78.91,24.76-122.94,44.65-81.77,36.94-164.6,87-244.7,135.41C893.83,710.07,728.31,810.1,563.48,810.1v1.69c39.74,0,80.18-5.55,123.64-16.95,38.7-10.16,78.91-24.77,123-44.66,81.76-36.94,164.59-87,244.7-135.41C1214.84,518,1380.35,418,1545.18,418Z"/><rect class="cls-32" x="543.47" y="809.1" width="3.33" height="2.69"/><text class="cls-33" transform="translate(356.96 556.9)">2%</text><text class="cls-34" transform="translate(433.96 556.9)">3%</text><text class="cls-35" transform="translate(270.66 556.9)">Haiti</text><path class="cls-30" d="M563.48,798.07v1.34c165,0,330.66,6.29,490.83,12.37s325.8,12.36,490.87,12.36V822.8c-165,0-330.66-6.29-490.82-12.37S728.56,798.07,563.48,798.07Z"/><path class="cls-31" d="M1545.18,414.64c-39.74,0-80.18,5.42-123.63,16.56-38.7,9.92-78.91,24.19-123,43.63-81.76,36.09-164.59,85-244.7,132.31C893.83,701.67,728.31,799.41,563.48,799.41v1.68c39.74,0,80.18-5.41,123.63-16.56,38.7-9.92,78.92-24.19,122.95-43.63,81.76-36.09,164.59-85,244.7-132.31,160.07-94.53,325.59-192.27,490.42-192.27Z"/><rect class="cls-32" x="543.47" y="798.07" width="3.33" height="3.03"/><text class="cls-33" transform="translate(356.96 506.85)">1%</text><text class="cls-34" transform="translate(433.96 506.85)">2%</text><text class="cls-35" transform="translate(265.19 506.85)">Is<tspan class="cls-42" x="12.21" y="0">r</tspan><tspan class="cls-39" x="18" y="0">ael</tspan></text><path class="cls-30" d="M563.48,786.7v1.35c165,0,330.66,8.83,490.82,17.37s325.8,17.38,490.88,17.38v-1.35c-165,0-330.65-8.83-490.81-17.37S728.56,786.7,563.48,786.7Z"/><path class="cls-31" d="M1545.18,412.62c-39.75,0-80.2,5.29-123.67,16.16-38.7,9.69-78.92,23.62-123,42.58-81.78,35.22-164.61,82.95-244.72,129.11-160,92.22-325.56,187.58-490.35,187.58v2c39.75,0,80.2-5.28,123.67-16.16,38.7-9.68,78.93-23.61,123-42.58,81.77-35.22,164.61-83,244.72-129.1,160.05-92.22,325.55-187.58,490.34-187.58Z"/><rect class="cls-32" x="543.47" y="787.37" width="3.33" height="3.36"/><text class="cls-33" transform="translate(356.96 462.73)">2%</text><text class="cls-34" transform="translate(433.96 462.73)"><tspan class="cls-48">4</tspan><tspan x="8.24" y="0">%</tspan></text><text class="cls-35" transform="translate(264.85 462.73)"><tspan class="cls-49">C</tspan><tspan x="8.88" y="0">hina</tspan></text><path class="cls-30" d="M563.48,774.66V776c165,0,330.65,11.55,490.8,22.72s325.82,22.72,490.9,22.72v-1.34c-165,0-330.65-11.55-490.8-22.72S728.57,774.66,563.48,774.66Z"/><path class="cls-31" d="M1545.18,409.93c-39.77,0-80.25,5.16-123.74,15.77-38.72,9.45-79,23-123,41.54-81.79,34.35-164.63,80.89-244.75,125.9C893.66,683,728.19,776,563.48,776v2.69c39.78,0,80.25-5.16,123.74-15.77,38.72-9.45,79-23,123-41.54C892,687,974.87,640.5,1055,595.49c160-89.91,325.48-182.87,490.19-182.87Z"/><rect class="cls-32" x="543.47" y="775.33" width="3.33" height="4.04"/><text class="cls-33" transform="translate(356.96 415.96)">3%</text><text class="cls-34" transform="translate(433.96 415.96)">6%</text><text class="cls-35" transform="translate(269.03 415.96)"><tspan class="cls-49">C</tspan><tspan x="8.88" y="0">hi</tspan><tspan class="cls-45" x="22.38" y="0">l</tspan><tspan x="26.91" y="0">e</tspan></text><path class="cls-30" d="M563.48,761.62v2.69c165,0,330.6,14.18,490.74,27.89s325.84,27.91,491,27.91v-2.69c-165,0-330.59-14.19-490.73-27.9S728.6,761.62,563.48,761.62Z"/><path class="cls-31" d="M1545.18,407.58c-39.76,0-80.22,5-123.69,15.36-38.71,9.2-78.94,22.44-123,40.46-81.78,33.47-164.62,78.83-244.73,122.69-160,87.61-325.53,178.22-490.29,178.22v2.35c39.76,0,80.22-5,123.7-15.36,38.71-9.2,78.94-22.44,123-40.47C891.94,677.36,974.78,632,1054.9,588.15c160-87.62,325.52-178.22,490.28-178.22Z"/><rect class="cls-32" x="543.47" y="761.62" width="3.33" height="5.04"/><text class="cls-33" transform="translate(356.96 368.32)">1%</text><text class="cls-34" transform="translate(433.96 368.32)">2%</text><text class="cls-35" transform="translate(259.14 368.32)"><tspan class="cls-36">K</tspan><tspan x="9.68" y="0">e</tspan><tspan class="cls-50" x="18.21" y="0">n</tspan><tspan class="cls-51" x="27.2" y="0">y</tspan><tspan x="35.18" y="0">a</tspan></text><path class="cls-30" d="M563.48,746.89v2.69c165,0,330.58,17.24,490.71,33.91s325.86,33.93,491,33.93v-2.69c-165,0-330.58-17.24-490.71-33.92S728.61,746.89,563.48,746.89Z"/><path class="cls-31" d="M1545.18,403.54c-39.82,0-80.34,4.88-123.88,14.92-38.75,8.94-79,21.79-123.1,39.29-81.82,32.48-164.68,76.49-244.81,119C893.44,661.74,728,749.58,563.48,749.58v4c39.82,0,80.34-4.88,123.88-14.92,38.75-8.93,79-21.79,123.1-39.29,81.83-32.48,164.69-76.48,244.82-119,160-84.95,325.34-172.78,489.9-172.78Z"/><rect class="cls-32" x="543.47" y="747.55" width="3.33" height="6.73"/><text class="cls-33" transform="translate(356.96 322.55)">3%</text><text class="cls-34" transform="translate(433.96 322.55)"><tspan class="cls-48">4</tspan><tspan x="8.24" y="0">%</tspan></text><text class="cls-35" transform="translate(275.11 322.55)"><tspan class="cls-52">U</tspan><tspan class="cls-47" x="10.16" y="0">S</tspan><tspan x="19.07" y="0">A</tspan></text><path class="cls-30" d="M563.48,729.14v3.37c165,0,330.52,20.89,490.64,41.09s325.89,41.13,491.06,41.13v-3.37c-165,0-330.52-20.89-490.64-41.09S728.65,729.14,563.48,729.14Z"/><path class="cls-31" d="M1545.18,398.5c-39.85,0-80.4,4.71-124,14.41-38.77,8.63-79.06,21-123.17,37.94-81.84,31.37-164.72,73.85-244.86,114.93-159.9,82-325.25,166.73-489.7,166.73v5c39.86,0,80.41-4.71,124-14.41,38.78-8.63,79.06-21,123.17-37.95,81.85-31.36,164.72-73.84,244.86-114.92,159.9-82,325.25-166.73,489.7-166.73Z"/><rect class="cls-32" x="543.47" y="727.81" width="3.33" height="8.41"/><text class="cls-33" transform="translate(356.96 275.14)">2%</text><text class="cls-34" transform="translate(433.96 275.14)">2%</text><text class="cls-35" transform="translate(263.59 275.14)">B<tspan class="cls-53" x="9.71" y="0">r</tspan><tspan x="15.5" y="0">azil</tspan></text><path class="cls-30" d="M563.48,704.66v8.07c164.76,0,330.23,25,490.25,49.27,160.31,24.27,326.09,49.36,491.45,49.36v-8.07c-164.76,0-330.22-25-490.24-49.27C894.62,729.76,728.85,704.66,563.48,704.66Z"/><path class="cls-31" d="M1545.18,390.09c-40,0-80.63,4.57-124.31,14-38.84,8.35-79.21,20.36-123.39,36.72-81.92,30.32-164.83,71.38-245,111.08-159.74,79.1-324.91,160.88-489,160.88v8.41c40,0,80.63-4.57,124.31-14,38.85-8.35,79.21-20.36,123.39-36.71,81.92-30.33,164.84-71.38,245-111.09,159.73-79.09,324.9-160.88,489-160.88Z"/><rect class="cls-32" x="543.47" y="704.66" width="3.33" height="16.48"/><text class="cls-33" transform="translate(356.96 229.37)"><tspan class="cls-48">4</tspan><tspan x="8.24" y="0">%</tspan></text><text class="cls-34" transform="translate(433.96 229.37)"><tspan class="cls-29">5</tspan><tspan x="8.1" y="0">%</tspan></text><text class="cls-35" transform="translate(234.42 229.37)">Indonesia</text><rect class="cls-32" x="543.47" y="675.49" width="3.33" height="19.84"/><path class="cls-30" d="M563.48,675.49v7.06c164.74,0,330.2,30.66,490.21,60.31,160.32,29.71,326.11,60.43,491.49,60.43v-7.06c-164.74,0-330.19-30.66-490.2-60.31C894.65,706.21,728.87,675.49,563.48,675.49Z"/><path class="cls-31" d="M1545.18,377.31c-74.78,0-156,15.72-248.35,48.06-82,28.72-165,67.58-245.21,105.16-159.53,74.74-324.5,152-488.14,152v12.78c74.78,0,156-15.72,248.35-48.06,82-28.72,165-67.58,245.21-105.16,159.54-74.74,324.5-152,488.14-152Z"/><text class="cls-33" transform="translate(356.96 182.79)"><tspan class="cls-48">4</tspan><tspan x="8.24" y="0">%</tspan></text><text class="cls-34" transform="translate(433.96 182.79)"><tspan class="cls-54">7</tspan><tspan x="7.49" y="0">%</tspan></text><text class="cls-35" transform="translate(237.68 182.79)"><tspan class="cls-29">C</tspan><tspan class="cls-41" x="8.72" y="0">o</tspan><tspan class="cls-55" x="17.9" y="0">l</tspan><tspan x="22.43" y="0">ombia</tspan></text><rect class="cls-32" x="543.47" y="641.26" width="3.33" height="25.56"/><path class="cls-30" d="M563.48,639.26v16.48c164.18,0,329.37,35.61,489.12,70.06,160.58,34.63,326.64,70.43,492.58,70.43V779.75c-164.18,0-329.37-35.61-489.11-70.06C895.48,675.07,729.42,639.26,563.48,639.26Z"/><path class="cls-31" d="M1545.18,368.24c-74.54,0-155.55,14.76-247.66,45.15-81.93,27-164.84,63.6-245,99-159.74,70.49-324.91,143.37-489,143.37v9.08c74.54,0,155.55-14.77,247.66-45.15,81.93-27,164.84-63.61,245-99,159.74-70.48,324.92-143.37,489-143.37Z"/><text class="cls-33" transform="translate(356.96 135.61)"><tspan class="cls-54">7</tspan><tspan x="7.49" y="0">%</tspan></text><text class="cls-34" transform="translate(433.96 135.61)"><tspan class="cls-54">7</tspan><tspan x="7.49" y="0">%</tspan></text><text class="cls-35" transform="translate(272.71 135.61)"><tspan class="cls-53">P</tspan><tspan x="8.98" y="0">eru</tspan></text><rect class="cls-32" x="543.47" y="590.26" width="3.33" height="37.66"/><path class="cls-30" d="M563.48,589.59v18.16c163.88,0,328.93,43.57,488.53,85.7,80.22,21.18,163.18,43.08,245.18,59.26,92.23,18.2,173.35,27,248,27V761.6c-163.88,0-328.92-43.57-488.53-85.7-80.22-21.18-163.17-43.08-245.17-59.26C719.24,598.44,638.12,589.59,563.48,589.59Z"/><path class="cls-31" d="M1545.18,348.73c-75,0-156.45,13.37-249,40.88C1214,414,1131,447,1050.73,478.93,891.41,542.26,726.68,607.75,563.48,607.75v19.51c75,0,156.46-13.37,249-40.88C894.63,562,977.65,529,1057.93,497.06c159.32-63.34,324.06-128.82,487.25-128.82Z"/><text class="cls-33" transform="translate(356.96 90.2)"><tspan class="cls-29">5</tspan><tspan x="8.1" y="0">%</tspan></text><text class="cls-34" transform="translate(433.96 90.2)">3%</text><text class="cls-35" transform="translate(163.17 90.2)">Domini<tspan class="cls-43" x="50.7" y="0">c</tspan><tspan x="57.9" y="0">an </tspan><tspan class="cls-56" x="79.78" y="0">R</tspan><tspan x="89.25" y="0">epublic</tspan></text><path class="cls-31" d="M1545.18,141.26c-181.77,0-355.46,57.45-523.43,113C862.37,307,711.83,356.78,563.48,356.78V564.25c181.77,0,355.46-57.45,523.43-113,159.38-52.71,309.92-102.51,458.27-102.51Z"/><path class="cls-30" d="M563.48,27.58v329.2c118.09,0,257,86.28,404,177.62,84.25,52.34,171.37,106.47,262.14,148.63,52.62,24.43,101.44,42.58,149.27,55.49,56.76,15.31,112.71,23.08,166.3,23.08V432.39c-118.09,0-257-86.27-404-177.62-84.26-52.34-171.38-106.47-262.15-148.63C826.44,81.71,777.61,63.56,729.78,50.65,673,35.34,617.07,27.58,563.48,27.58Z"/><rect class="cls-32" x="543.47" y="26.24" width="3.33" height="536.68"/><text class="cls-33" transform="translate(356.96 44.2)"><tspan class="cls-46">2</tspan><tspan x="7.95" y="0">9%</tspan></text><text class="cls-34" transform="translate(433.96 44.2)"><tspan class="cls-57">3</tspan><tspan class="cls-48" x="8.13" y="0">4</tspan><tspan x="16.37" y="0">%</tspan></text><g id="mexico"><path class="cls-32" d="M286,44.28h-3l.48-5.2q.3-3.21.72-5.6l-3.29,9.41h-3l-.87-9.37c0,1-.11,2-.22,2.88s-.26,1.82-.45,2.8l-.91,5.08h-3l2.84-13.2h3.76l.7,9.16,3.09-9.16h4Z"/><path class="cls-32" d="M295.53,39.42a13.58,13.58,0,0,1-4.7,1.19,1.65,1.65,0,0,0,1.81,1.79,3.63,3.63,0,0,0,1.25-.23,5.94,5.94,0,0,0,1.32-.71l1.07,1.79a6.65,6.65,0,0,1-4,1.36A4.39,4.39,0,0,1,289,43.45a4.27,4.27,0,0,1-1.12-3.13,8.13,8.13,0,0,1,.58-3,5.66,5.66,0,0,1,1.88-2.48,5.23,5.23,0,0,1,3.28-1,4.33,4.33,0,0,1,2.75.78,2.43,2.43,0,0,1,1,2A3,3,0,0,1,295.53,39.42Zm-2-1.32a1.64,1.64,0,0,0,.8-1.36,1,1,0,0,0-.23-.63.92.92,0,0,0-.74-.27,1.83,1.83,0,0,0-1.58.84,5.11,5.11,0,0,0-.82,2.1A5.13,5.13,0,0,0,293.54,38.1Z"/><path class="cls-32" d="M307.35,34.17,304,39l2.44,5.31H303.2L302,40.57l-2.23,3.71h-3.3l3.95-5.39-2.21-4.72h3.22l.95,3.25,1.81-3.25Z"/><path class="cls-32" d="M311.77,34.17l-1.41,10.11h-2.95l1.41-10.11Zm-2.3-2.34a1.43,1.43,0,0,1-.44-1.09,1.78,1.78,0,0,1,.56-1.36,2,2,0,0,1,1.4-.53,1.57,1.57,0,0,1,1.14.42,1.41,1.41,0,0,1,.44,1.09,1.83,1.83,0,0,1-.56,1.36,2,2,0,0,1-1.4.54A1.54,1.54,0,0,1,309.47,31.83Z"/><path class="cls-32" d="M321.64,35.14l-1.47,1.71a2.48,2.48,0,0,0-1.75-.7,2,2,0,0,0-2,1.28,7,7,0,0,0-.59,2.93,2.08,2.08,0,0,0,.41,1.44,1.56,1.56,0,0,0,1.17.43,2.67,2.67,0,0,0,.95-.17,5.86,5.86,0,0,0,1.05-.54l1.11,1.93a5.81,5.81,0,0,1-3.49,1.16,4.2,4.2,0,0,1-3.16-1.17,4.37,4.37,0,0,1-1.15-3.2,7.89,7.89,0,0,1,.59-2.92,6,6,0,0,1,1.87-2.48,5.07,5.07,0,0,1,3.2-1A4.3,4.3,0,0,1,321.64,35.14Z"/><path class="cls-32" d="M322.45,43.46a4.33,4.33,0,0,1-1.11-3.16,8.6,8.6,0,0,1,.55-3,5.44,5.44,0,0,1,1.82-2.45,5.25,5.25,0,0,1,3.27-1,4.12,4.12,0,0,1,3.1,1.15,4.22,4.22,0,0,1,1.13,3.1,8.66,8.66,0,0,1-.56,3,5.53,5.53,0,0,1-1.82,2.48,5.13,5.13,0,0,1-3.26,1A4.12,4.12,0,0,1,322.45,43.46ZM327.62,41a8.87,8.87,0,0,0,.56-3,2.34,2.34,0,0,0-.36-1.45,1.22,1.22,0,0,0-1.05-.46,1.9,1.9,0,0,0-1.86,1.41,8.4,8.4,0,0,0-.54,3,2.42,2.42,0,0,0,.34,1.45,1.26,1.26,0,0,0,1.07.46A1.88,1.88,0,0,0,327.62,41Z"/></g><rect class="cls-58" width="1950" height="1028"/></g></g></svg>