<svg xmlns="http://www.w3.org/2000/svg" viewBox="0 0 848.5 520.35"><defs><style>.cls-1{fill:#fff;opacity:0.3;}.cls-2,.cls-3,.cls-4{fill:#e3f1c9;}.cls-3{stroke:#f2f2f2;stroke-width:0.25px;}.cls-3,.cls-5{stroke-miterlimit:10;}.cls-4{isolation:isolate;font-size:10px;font-family:ArialMT, Arial;}.cls-5{fill:none;stroke:#329690;stroke-width:2px;stroke-dasharray:6;}</style></defs><title>super_graph</title><g id="Livello_2" data-name="Livello 2"><g id="Livello_1-2" data-name="Livello 1"><path class="cls-1" d="M0,175.57c8.31,0,8.31,22.29,16.63,22.29s8.31,6.49,16.62,6.49,8.32,12.7,16.63,12.7,8.32-15,16.63-15S74.82,66,83.14,66s8.31,122.47,16.62,122.47,8.32,28.44,16.63,28.44,8.32-31,16.63-31,8.31,13.46,16.63,13.46,8.31-10.15,16.62-10.15,8.32.3,16.63.3,8.32,3.14,16.63,3.14,8.31,17.52,16.63,17.52,8.31-22.58,16.62-22.58,8.32-6.85,16.63-6.85,8.32-16.57,16.63-16.57S274.35,139,282.67,139,291,112.2,299.29,112.2s8.32,49.64,16.63,49.64,8.32,22.9,16.63,22.9S340.86,161,349.18,161s8.31-1.64,16.62-1.64,8.32,36,16.63,36,8.32-22.53,16.63-22.53,8.31,14.5,16.63,14.5,8.31-26.15,16.62-26.15,8.32,34.28,16.63,34.28,8.31,22.55,16.63,22.55,8.31,2.46,16.63,2.46,8.31,8.81,16.62,8.81,8.32-20.28,16.63-20.28,8.31-4.39,16.63-4.39,8.31,6.15,16.63,6.15,8.31-3.11,16.62-3.11,8.32-24.29,16.63-24.29,8.31,23.26,16.63,23.26,8.31,21.54,16.63,21.54,8.31,8.06,16.62,8.06,8.32,5.35,16.63,5.35,8.31,5.86,16.63,5.86,8.31,8.92,16.63,8.92,8.31,22.87,16.62,22.87,8.32,29,16.63,29,8.31-11.81,16.63-11.81,8.31-11.93,16.63-11.93,8.31-7.09,16.62-7.09,8.32,16,16.63,16,8.31-67.37,16.63-67.37,8.31,11.83,16.63,11.83,8.31,4,16.62,4,8.32-5.45,16.63-5.45V471H0Z"/><path class="cls-2" d="M.5,477v-5.5h848V477"/><line class="cls-3" x1="69.29" y1="483" x2="69.29" y2="489"/><text class="cls-4" transform="translate(49.28 517.1)">February</text><line class="cls-3" x1="138.17" y1="483" x2="138.17" y2="489"/><text class="cls-4" transform="translate(124.28 517.1)">March</text><line class="cls-3" x1="211.71" y1="483" x2="211.71" y2="489"/><text class="cls-4" transform="translate(201.71 517.1)">April</text><line class="cls-3" x1="282.97" y1="483" x2="282.97" y2="489"/><text class="cls-4" transform="translate(273.52 517.1)">May</text><line class="cls-3" x1="356.6" y1="483" x2="356.6" y2="489"/><text class="cls-4" transform="translate(345.76 517.1)">June</text><line class="cls-3" x1="427.87" y1="483" x2="427.87" y2="489"/><text class="cls-4" transform="translate(418.97 517.1)">July</text><line class="cls-3" x1="501.5" y1="483" x2="501.5" y2="489"/><text class="cls-4" transform="translate(485.93 517.1)">August</text><line class="cls-3" x1="575.14" y1="483" x2="575.14" y2="489"/><text class="cls-4" transform="translate(550.68 517.1)">September</text><line class="cls-3" x1="646.4" y1="483" x2="646.4" y2="489"/><text class="cls-4" transform="translate(628.61 517.1)">October</text><line class="cls-3" x1="720.13" y1="483" x2="720.13" y2="489"/><text class="cls-4" transform="translate(697.07 517.1)">November</text><line class="cls-3" x1="791.39" y1="483" x2="791.39" y2="489"/><text class="cls-4" transform="translate(768.33 517.1)">December</text><circle class="cls-5" cx="83" cy="66" r="65"/></g></g></svg>