<svg xmlns="http://www.w3.org/2000/svg" viewBox="0 0 1913.27 956.58"><defs><style>.cls-1{fill:#50690e;}.cls-2{fill:#aec071;}.cls-3{fill:#9ac31c;}.cls-4{fill:#bccf00;}.cls-5{fill:#8baf1a;}.cls-6{fill:#aac25b;}.cls-7{fill:#435124;}.cls-8{fill:#869603;}.cls-9{fill:#616f03;}.cls-10{fill:#65833f;}.cls-11{fill:#c3ca7a;}.cls-12,.cls-36{isolation:isolate;}.cls-12{font-size:20.3px;font-family:FiraSans-Bold, Fira Sans;}.cls-12,.cls-20,.cls-23{fill:#fff;}.cls-12,.cls-20,.cls-23,.cls-36{font-weight:700;}.cls-13{letter-spacing:-0.02em;}.cls-14{letter-spacing:0em;}.cls-15{letter-spacing:-0.01em;}.cls-16{letter-spacing:-0.02em;}.cls-17{letter-spacing:-0.02em;}.cls-18,.cls-35{fill:none;stroke:#fff;stroke-miterlimit:10;}.cls-18{stroke-width:3.74px;}.cls-19{fill:#c8e593;}.cls-20,.cls-36{font-size:18px;}.cls-20,.cls-23{font-family:FiraSans-BoldItalic, Fira Sans;font-style:italic;}.cls-21{letter-spacing:-0.01em;}.cls-22{letter-spacing:-0.02em;}.cls-23{font-size:36px;}.cls-24{letter-spacing:-0.01em;}.cls-25{letter-spacing:-0.02em;}.cls-26{letter-spacing:-0.1em;}.cls-27{letter-spacing:-0.02em;}.cls-28{letter-spacing:-0.03em;}.cls-29{letter-spacing:0em;}.cls-30{letter-spacing:-0.01em;}.cls-31{letter-spacing:-0.01em;}.cls-32{letter-spacing:-0.02em;}.cls-33{letter-spacing:-0.02em;}.cls-34{letter-spacing:-0.01em;}.cls-35{stroke-dasharray:12;}.cls-36{fill:#e3f1c9;font-family:FiraSans-SemiBold, Fira Sans;}.cls-37{letter-spacing:0em;}.cls-38{letter-spacing:-0.01em;}.cls-39{letter-spacing:-0.01em;}.cls-40{letter-spacing:-0.05em;}.cls-41{letter-spacing:0em;}.cls-42{letter-spacing:-0.06em;}.cls-43{letter-spacing:-0.05em;}</style></defs><title>value_growth</title><g id="Livello_2" data-name="Livello 2"><g id="Livello_1-2" data-name="Livello 1"><path class="cls-1" d="M355.27,724.39c76.82,0,76.82-1.88,153.64-1.88S585.73,726,662.54,726c77,0,77-10.12,154.06-10.12,76.82,0,76.82-13.49,153.64-13.49s76.82,4,153.63,4,76.82-8.23,153.64-8.23c77,0,77-.19,154.06-.19,76.82,0,76.82-15,153.64-15s76.81,12.25,153.63,12.25,76.82-3.54,153.64-3.54v32.5c-76.82,0-76.82,1.07-153.64,1.07s-76.82-16.23-153.63-16.23-76.82,15.17-153.64,15.17c-77,0-77,.6-154.06.6-76.82,0-76.82,8.31-153.64,8.31s-76.81-5.16-153.63-5.16S893.42,739,816.6,739c-77,0-77,11.46-154.06,11.46-76.81,0-76.81-2.32-153.63-2.32s-76.82,3.6-153.64,3.6Z"/><path class="cls-2" d="M355.27,690.31c76.82,0,76.82-2.65,153.64-2.65s76.82,17.92,153.63,17.92c77,0,77-28.32,154.06-28.32,76.82,0,76.82-2.55,153.64-2.55s76.82,5.65,153.63,5.65,76.82-8.86,153.64-8.86c77,0,77-1,154.06-1,76.82,0,76.82-14.22,153.64-14.22S1662,670.8,1738.84,670.8s76.82-2.06,153.64-2.06v22.83c-76.82,0-76.82,3.54-153.64,3.54s-76.82-12.25-153.63-12.25-76.82,15-153.64,15c-77,0-77,.19-154.06.19-76.82,0-76.82,8.23-153.64,8.23s-76.81-4-153.63-4-76.82,13.49-153.64,13.49c-77,0-77,10.12-154.06,10.12-76.81,0-76.81-3.46-153.63-3.46s-76.82,1.88-153.64,1.88Z"/><path class="cls-3" d="M355.27,769c76.82,0,76.82-5.31,153.64-5.31s76.82,4,153.63,4c77,0,77-4.54,154.06-4.54,76.82,0,76.82-1.65,153.64-1.65s76.82-3.66,153.63-3.66,76.82-5.37,153.64-5.37c77,0,77,1.21,154.06,1.21,76.82,0,76.82-8.38,153.64-8.38s76.81,2.55,153.63,2.55,76.82,5.52,153.64,5.52v20.44c-76.82,0-76.82-6.35-153.64-6.35s-76.82-2.88-153.63-2.88-76.82,7.72-153.64,7.72c-77,0-77-1.88-154.06-1.88-76.82,0-76.82,4.87-153.64,4.87s-76.81,3.33-153.63,3.33-76.82,1.16-153.64,1.16c-77,0-77,3.7-154.06,3.7-76.81,0-76.81-4.46-153.63-4.46s-76.82,5-153.64,5Z"/><path class="cls-4" d="M355.27,617.38c76.82,0,76.82,5.93,153.64,5.93s76.82,34.2,153.63,34.2c77,0,77-56.69,154.06-56.69,76.82,0,76.82,13.45,153.64,13.45s76.82-3.81,153.63-3.81,76.82-21,153.64-21c77,0,77,4.4,154.06,4.4,76.82,0,76.82-15.34,153.64-15.34s76.81,7,153.63,7,76.82,3.09,153.64,3.09V640c-76.82,0-76.82-3-153.64-3s-76.82-10.53-153.63-10.53-76.82,16.38-153.64,16.38c-77,0-77-11-154.06-11-76.82,0-76.82,14.36-153.64,14.36s-76.81,2.21-153.63,2.21-76.82-16.18-153.64-16.18c-77,0-77,55.85-154.06,55.85-76.81,0-76.81-32.53-153.63-32.53s-76.82-6.31-153.64-6.31Z"/><path class="cls-5" d="M355.27,522.78c76.82,0,76.82,16.28,153.64,16.28S585.73,563,662.54,563c77,0,77-61.8,154.06-61.8,76.82,0,76.82-2.32,153.64-2.32S1047.06,480,1123.87,480s76.82-32.34,153.64-32.34c77,0,77-14.4,154.06-14.4,76.82,0,76.82-35.14,153.64-35.14s76.81-24.75,153.63-24.75,76.82-11.14,153.64-11.14v100c-76.82,0-76.82-1.32-153.64-1.32s-76.82,8.44-153.63,8.44-76.82,28.36-153.64,28.36c-77,0-77-1.81-154.06-1.81-76.82,0-76.82,33.18-153.64,33.18s-76.81,17.27-153.63,17.27-76.82-14.52-153.64-14.52c-77,0-77,62.43-154.06,62.43-76.81,0-76.81-24.69-153.63-24.69s-76.82-10.81-153.64-10.81Z"/><path class="cls-3" d="M355.27,818c76.82,0,76.82-.08,153.64-.08s76.82.14,153.63.14c77,0,77-.06,154.06-.06,76.82,0,76.82-.16,153.64-.16s76.82.33,153.63.33,76.82-.27,153.64-.27c77,0,77,.27,154.06.27,76.82,0,76.82-.5,153.64-.5s76.81.88,153.63.88,76.82,1.43,153.64,1.43v2.68H355.27Z"/><path class="cls-6" d="M355.27,558.75c76.82,0,76.82,10.81,153.64,10.81s76.82,24.69,153.63,24.69c77,0,77-62.43,154.06-62.43,76.82,0,76.82,14.52,153.64,14.52s76.82-17.27,153.63-17.27,76.82-33.18,153.64-33.18c77,0,77,1.81,154.06,1.81,76.82,0,76.82-28.36,153.64-28.36s76.81-8.44,153.63-8.44,76.82,1.32,153.64,1.32v50.69c-76.82,0-76.82,11.58-153.64,11.58s-76.82-4.07-153.63-4.07-76.82,25.47-153.64,25.47c-77,0-77-1.09-154.06-1.09-76.82,0-76.82,30.14-153.64,30.14s-76.81,8.68-153.63,8.68-76.82-9-153.64-9c-77,0-77,60.2-154.06,60.2-76.81,0-76.81-31.77-153.63-31.77s-76.82-4.52-153.64-4.52Z"/><path class="cls-7" d="M355.27,803.92c76.82,0,76.82-.25,153.64-.25s76.82,5.58,153.63,5.58c77,0,77-5.34,154.06-5.34,76.82,0,76.82,2.4,153.64,2.4s76.82-.62,153.63-.62,76.82-.64,153.64-.64c77,0,77-.15,154.06-.15,76.82,0,76.82-2.33,153.64-2.33s76.81.55,153.63.55l153.64,0V820c-76.82,0-76.82-1.43-153.64-1.43s-76.82-.88-153.63-.88-76.82.5-153.64.5c-77,0-77-.27-154.06-.27-76.82,0-76.82.27-153.64.27s-76.81-.33-153.63-.33-76.82.16-153.64.16c-77,0-77,.06-154.06.06-76.81,0-76.81-.14-153.63-.14s-76.82.08-153.64.08Z"/><path class="cls-8" d="M355.27,751.72c76.82,0,76.82-3.6,153.64-3.6s76.82,2.32,153.63,2.32c77,0,77-11.46,154.06-11.46,76.82,0,76.82-11.15,153.64-11.15s76.82,5.16,153.63,5.16,76.82-8.31,153.64-8.31c77,0,77-.6,154.06-.6,76.82,0,76.82-15.17,153.64-15.17s76.81,16.23,153.63,16.23,76.82-1.07,153.64-1.07v29.26c-76.82,0-76.82-5.52-153.64-5.52s-76.82-2.55-153.63-2.55-76.82,8.38-153.64,8.38c-77,0-77-1.21-154.06-1.21-76.82,0-76.82,5.37-153.64,5.37s-76.81,3.66-153.63,3.66-76.82,1.65-153.64,1.65c-77,0-77,4.54-154.06,4.54-76.81,0-76.81-4-153.63-4S432.09,769,355.27,769Z"/><path class="cls-7" d="M355.27,334.24c76.82,0,76.82,14.84,153.64,14.84s76.82,20.67,153.63,20.67c77,0,77-73.2,154.06-73.2,76.82,0,76.82,18.27,153.64,18.27s76.82-44.94,153.63-44.94,76.82-41,153.64-41c77,0,77-39.63,154.06-39.63,76.82,0,76.82-43.93,153.64-43.93s76.81-45.28,153.63-45.28,76.82-51.88,153.64-51.88V362.25c-76.82,0-76.82,11.14-153.64,11.14s-76.82,24.75-153.63,24.75-76.82,35.14-153.64,35.14c-77,0-77,14.4-154.06,14.4-76.82,0-76.82,32.34-153.64,32.34s-76.81,18.84-153.63,18.84-76.82,2.32-153.64,2.32c-77,0-77,61.8-154.06,61.8-76.81,0-76.81-23.92-153.63-23.92s-76.82-16.28-153.64-16.28Z"/><path class="cls-1" d="M355.27,598.56c76.82,0,76.82,4.52,153.64,4.52s76.82,31.77,153.63,31.77c77,0,77-60.2,154.06-60.2,76.82,0,76.82,9,153.64,9s76.82-8.68,153.63-8.68,76.82-30.14,153.64-30.14c77,0,77,1.09,154.06,1.09,76.82,0,76.82-25.47,153.64-25.47s76.81,4.07,153.63,4.07,76.82-11.58,153.64-11.58v75.7c-76.82,0-76.82-3.09-153.64-3.09s-76.82-7-153.63-7-76.82,15.34-153.64,15.34c-77,0-77-4.4-154.06-4.4-76.82,0-76.82,21-153.64,21s-76.81,3.81-153.63,3.81-76.82-13.45-153.64-13.45c-77,0-77,56.69-154.06,56.69-76.81,0-76.81-34.2-153.63-34.2s-76.82-5.93-153.64-5.93Z"/><path class="cls-9" d="M355.27,793.71c76.82,0,76.82-.88,153.64-.88s76.82,2.54,153.63,2.54c77,0,77-4.21,154.06-4.21,76.82,0,76.82,1.32,153.64,1.32s76.82.61,153.63.61,76.82-3.27,153.64-3.27c77,0,77,1.17,154.06,1.17,76.82,0,76.82-6.24,153.64-6.24s76.81,4,153.63,4,76.82,0,153.64,0v14.38l-153.64,0c-76.82,0-76.82-.55-153.63-.55s-76.82,2.33-153.64,2.33c-77,0-77,.15-154.06.15-76.82,0-76.82.64-153.64.64s-76.81.62-153.63.62-76.82-2.4-153.64-2.4c-77,0-77,5.34-154.06,5.34-76.81,0-76.81-5.58-153.63-5.58s-76.82.25-153.64.25Z"/><path class="cls-10" d="M355.27,649.25c76.82,0,76.82,6.31,153.64,6.31s76.82,32.53,153.63,32.53c77,0,77-55.85,154.06-55.85,76.82,0,76.82,16.18,153.64,16.18s76.82-2.21,153.63-2.21,76.82-14.36,153.64-14.36c77,0,77,11,154.06,11,76.82,0,76.82-16.38,153.64-16.38S1662,637,1738.84,637s76.82,3,153.64,3v28.7c-76.82,0-76.82,2.06-153.64,2.06s-76.82-14.54-153.63-14.54-76.82,14.22-153.64,14.22c-77,0-77,1-154.06,1-76.82,0-76.82,8.86-153.64,8.86s-76.81-5.65-153.63-5.65-76.82,2.55-153.64,2.55c-77,0-77,28.32-154.06,28.32-76.81,0-76.81-17.92-153.63-17.92s-76.82,2.65-153.64,2.65Z"/><path class="cls-11" d="M355.27,784c76.82,0,76.82-5,153.64-5s76.82,4.46,153.63,4.46c77,0,77-3.7,154.06-3.7,76.82,0,76.82-1.16,153.64-1.16s76.82-3.33,153.63-3.33,76.82-4.87,153.64-4.87c77,0,77,1.88,154.06,1.88,76.82,0,76.82-7.72,153.64-7.72s76.81,2.88,153.63,2.88,76.82,6.35,153.64,6.35v15c-76.82,0-76.82,0-153.64,0s-76.82-4-153.63-4S1508.39,791,1431.57,791c-77,0-77-1.17-154.06-1.17-76.82,0-76.82,3.27-153.64,3.27s-76.81-.61-153.63-.61-76.82-1.32-153.64-1.32c-77,0-77,4.21-154.06,4.21-76.81,0-76.81-2.54-153.63-2.54s-76.82.88-153.64.88Z"/><text class="cls-12" transform="translate(485.36 901) scale(0.97 1)">20<tspan class="cls-13" x="22.37" y="0">0</tspan><tspan class="cls-14" x="33.84" y="0">7</tspan></text><text class="cls-12" transform="translate(638.59 901) scale(0.97 1)">2008</text><text class="cls-12" transform="translate(793.44 901) scale(0.97 1)">20<tspan class="cls-15" x="22.37" y="0">0</tspan><tspan x="34.05" y="0">9</tspan></text><text class="cls-12" transform="translate(949.05 901) scale(0.97 1)">2<tspan class="cls-16" x="10.5" y="0">0</tspan><tspan x="21.93" y="0">10</tspan></text><text class="cls-12" transform="translate(1106.56 901) scale(0.97 1)">2<tspan class="cls-16" x="10.5" y="0">0</tspan><tspan class="cls-17" x="21.93" y="0">1</tspan><tspan x="30.98" y="0">1</tspan></text><text class="cls-12" transform="translate(1258.81 901) scale(0.97 1)">2<tspan class="cls-16" x="10.5" y="0">0</tspan><tspan x="21.93" y="0">12</tspan></text><text class="cls-12" transform="translate(1414.12 901) scale(0.97 1)">2<tspan class="cls-16" x="10.5" y="0">0</tspan><tspan x="21.93" y="0">13</tspan></text><text class="cls-12" transform="translate(1567.42 901) scale(0.97 1)">2<tspan class="cls-16" x="10.5" y="0">0</tspan><tspan x="21.93" y="0">14</tspan></text><text class="cls-12" transform="translate(1723.04 901) scale(0.97 1)">2<tspan class="cls-16" x="10.5" y="0">0</tspan><tspan x="21.93" y="0">15</tspan></text><line class="cls-18" x1="351.27" y1="851.26" x2="1913.27" y2="851.26"/><ellipse class="cls-19" cx="506.45" cy="850.7" rx="9.8" ry="10.07"/><ellipse class="cls-19" cx="660.99" cy="850.7" rx="9.8" ry="10.07"/><ellipse class="cls-19" cx="815.54" cy="851.52" rx="9.8" ry="10.07"/><ellipse class="cls-19" cx="970.08" cy="851.52" rx="9.8" ry="10.07"/><ellipse class="cls-19" cx="1126.22" cy="850.7" rx="9.8" ry="10.07"/><ellipse class="cls-19" cx="1279.17" cy="851.52" rx="9.8" ry="10.07"/><ellipse class="cls-19" cx="1434.51" cy="851.52" rx="9.8" ry="10.07"/><ellipse class="cls-19" cx="1588.25" cy="851.52" rx="9.8" ry="10.07"/><ellipse class="cls-19" cx="1743.59" cy="851.52" rx="9.8" ry="10.07"/><text class="cls-20" transform="translate(125.38 41.74)">M<tspan class="cls-21" x="13.95" y="0">e</tspan><tspan x="23.4" y="0">xi</tspan><tspan class="cls-22" x="37.46" y="0">c</tspan><tspan x="45.56" y="0">o</tspan></text><text class="cls-23" transform="translate(417.52 30.47)">4<tspan class="cls-24" x="19.98" y="0">,</tspan><tspan x="28.3" y="0">6</tspan><tspan class="cls-25" x="48.28" y="0">4</tspan><tspan x="67.68" y="0">3</tspan><tspan class="cls-26" x="86.04" y="0">,</tspan><tspan x="91.12" y="0">104 </tspan><tspan class="cls-22" x="156.35" y="0">t</tspan><tspan x="169.16" y="0">onns </tspan></text><text class="cls-20" transform="translate(95.61 90.2)">Domini<tspan class="cls-22" x="57.04" y="0">c</tspan><tspan x="65.14" y="0">an </tspan><tspan class="cls-27" x="15.75" y="21.6">R</tspan><tspan x="26.41" y="21.6">epublic</tspan></text><text class="cls-20" transform="translate(101.33 162.66)">Indonesia</text><text class="cls-20" transform="translate(144.41 223.12)"><tspan class="cls-28">P</tspan><tspan x="10.1" y="0">eru</tspan></text><text class="cls-20" transform="translate(105 283.58)"><tspan class="cls-22">C</tspan><tspan x="9.81" y="0">o</tspan><tspan class="cls-29" x="20.14" y="0">l</tspan><tspan x="25.24" y="0">ombia</tspan></text><text class="cls-20" transform="translate(149.36 344.04)"><tspan class="cls-30">U</tspan><tspan class="cls-29" x="11.43" y="0">S</tspan><tspan x="21.46" y="0">A</tspan></text><text class="cls-20" transform="translate(141.4 404.5)"><tspan class="cls-31">C</tspan><tspan x="9.99" y="0">hi</tspan><tspan class="cls-29" x="25.18" y="0">l</tspan><tspan x="30.28" y="0">e</tspan></text><text class="cls-20" transform="translate(135.28 464.97)">B<tspan class="cls-28" x="10.93" y="0">r</tspan><tspan x="17.44" y="0">azil</tspan></text><text class="cls-20" transform="translate(131.39 525.43)"><tspan class="cls-32">K</tspan><tspan x="10.89" y="0">e</tspan><tspan class="cls-30" x="20.48" y="0">n</tspan><tspan class="cls-21" x="30.6" y="0">y</tspan><tspan x="39.58" y="0">a</tspan></text><text class="cls-20" transform="translate(135.57 585.89)"><tspan class="cls-31">C</tspan><tspan x="9.99" y="0">hina</tspan></text><text class="cls-20" transform="translate(99.3 646.35)"><tspan class="cls-33">V</tspan><tspan x="9.65" y="0">en</tspan><tspan class="cls-29" x="29.47" y="0">e</tspan><tspan class="cls-34" x="38.97" y="0">z</tspan><tspan x="46.87" y="0">ue</tspan><tspan class="cls-29" x="66.58" y="0">l</tspan><tspan x="71.68" y="0">a</tspan></text><text class="cls-20" transform="translate(82.52 706.81)">South Afri<tspan class="cls-22" x="80.35" y="0">c</tspan><tspan x="88.45" y="0">a</tspan></text><text class="cls-20" transform="translate(135.95 767.27)">Is<tspan class="cls-28" x="13.73" y="0">r</tspan><tspan x="20.25" y="0">ael</tspan></text><text class="cls-20" transform="translate(115.7 827.74)"><tspan class="cls-22">E</tspan><tspan class="cls-31" x="8.95" y="0">c</tspan><tspan x="17.23" y="0">uador</tspan></text><line class="cls-35" x1="1892.27" y1="48.19" x2="418.27" y2="48.19"/><text class="cls-36" transform="translate(782.74 950.28)">P<tspan class="cls-31" x="10.71" y="0">r</tspan><tspan x="17.68" y="0">oduction g</tspan><tspan class="cls-31" x="104.94" y="0">ro</tspan><tspan x="122.24" y="0">wth bet</tspan><tspan class="cls-31" x="184.75" y="0">w</tspan><tspan class="cls-37" x="197.91" y="0">een 2006 and 2</tspan><tspan class="cls-31" x="321.75" y="0">0</tspan><tspan x="331.99" y="0">16 </tspan><tspan class="cls-31" x="354.6" y="0">f</tspan><tspan x="360.73" y="0">or 15 main p</tspan><tspan class="cls-31" x="460.6" y="0">r</tspan><tspan x="467.56" y="0">odu</tspan><tspan class="cls-38" x="499.19" y="0">c</tspan><tspan x="507.61" y="0">e</tspan><tspan class="cls-39" x="517.57" y="0">r</tspan><tspan x="524.53" y="0">s - </tspan><tspan class="cls-40" x="549.25" y="0">F</tspan><tspan class="cls-28" x="557.13" y="0">A</tspan><tspan class="cls-41" x="567.14" y="0">O</tspan><tspan class="cls-39" x="579.49" y="0">S</tspan><tspan class="cls-42" x="589.47" y="0">T</tspan><tspan class="cls-43" x="598.01" y="0">A</tspan><tspan x="607.66" y="0">T</tspan></text></g></g></svg>