<svg xmlns="http://www.w3.org/2000/svg" xmlns:xlink="http://www.w3.org/1999/xlink" viewBox="0 0 1918 1483"><defs><style>.cls-1,.cls-70,.cls-71,.cls-72,.cls-73,.cls-74{fill:none;}.cls-2{font-size:20px;font-family:FiraSans-BoldItalic, Fira Sans;}.cls-2,.cls-29,.cls-33,.cls-36,.cls-37,.cls-45,.cls-46,.cls-47,.cls-56{fill:#fff;}.cls-2,.cls-32,.cls-38,.cls-44,.cls-64,.cls-69{font-weight:700;}.cls-17,.cls-2,.cls-32,.cls-38,.cls-44,.cls-48,.cls-64,.cls-69{font-style:italic;}.cls-3{letter-spacing:-0.02em;}.cls-4{letter-spacing:-0.03em;}.cls-5{letter-spacing:0em;}.cls-6{letter-spacing:-0.04em;}.cls-7{letter-spacing:-0.03em;}.cls-8{letter-spacing:0em;}.cls-9{letter-spacing:0em;}.cls-10{letter-spacing:-0.01em;}.cls-11{letter-spacing:-0.01em;}.cls-12{letter-spacing:-0.01em;}.cls-13{letter-spacing:-0.02em;}.cls-14{clip-path:url(#clip-path);}.cls-15{fill:#67baa7;}.cls-16,.cls-32{fill:#319690;}.cls-17{font-size:9.69px;font-family:SolferinoText-Italic, Solferino Text;}.cls-17,.cls-59,.cls-60,.cls-66{fill:#585756;}.cls-18{fill:#97ceda;}.cls-19{clip-path:url(#clip-path-2);}.cls-20{clip-path:url(#clip-path-3);}.cls-21{fill:#31958f;}.cls-22{clip-path:url(#clip-path-4);}.cls-23{clip-path:url(#clip-path-5);}.cls-24{clip-path:url(#clip-path-6);}.cls-25{clip-path:url(#clip-path-7);}.cls-26{clip-path:url(#clip-path-8);}.cls-27{clip-path:url(#clip-path-9);}.cls-28{clip-path:url(#clip-path-10);}.cls-30{clip-path:url(#clip-path-11);}.cls-31{clip-path:url(#clip-path-12);}.cls-32,.cls-33,.cls-37,.cls-38,.cls-56,.cls-59,.cls-64,.cls-66,.cls-69{font-size:18px;}.cls-32,.cls-38,.cls-44,.cls-64,.cls-69{font-family:FiraSans-SemiBoldItalic, Fira Sans;}.cls-33,.cls-36,.cls-45,.cls-46,.cls-49,.cls-56,.cls-59{font-family:FiraSans-Light, Fira Sans;}.cls-34{clip-path:url(#clip-path-13);}.cls-35{clip-path:url(#clip-path-14);}.cls-36{font-size:15.9px;}.cls-37{font-family:FiraSans-Regular, Fira Sans;}.cls-38,.cls-43,.cls-64,.cls-69{fill:#93833f;}.cls-39{letter-spacing:-0.01em;}.cls-40{letter-spacing:-0.03em;}.cls-41{clip-path:url(#clip-path-15);}.cls-42{fill:#d6c570;}.cls-44{font-size:12.05px;}.cls-44,.cls-50{fill:#b3b3b3;}.cls-45{font-size:9.04px;}.cls-46,.cls-47{font-size:14px;}.cls-47{font-family:FiraSans-LightItalic, Fira Sans;}.cls-51{fill:#4d4d4d;}.cls-52{clip-path:url(#clip-path-16);}.cls-53,.cls-62{fill:#92823e;}.cls-54{letter-spacing:-0.05em;}.cls-55{letter-spacing:-0.02em;}.cls-56{letter-spacing:-0.05em;}.cls-57{letter-spacing:-0.05em;}.cls-58{fill:#ab5117;}.cls-60{font-size:13.21px;}.cls-60,.cls-66{font-family:FiraSans-Medium, Fira Sans;}.cls-61{letter-spacing:-0.01em;}.cls-62{opacity:0.5;}.cls-63{letter-spacing:-0.02em;}.cls-64{letter-spacing:-0.01em;}.cls-65{letter-spacing:0em;}.cls-66,.cls-70,.cls-71,.cls-72,.cls-73,.cls-74{stroke:#fff;stroke-miterlimit:10;}.cls-66{stroke-width:1.46px;}.cls-67{letter-spacing:-0.02em;}.cls-68{letter-spacing:-0.01em;}.cls-69{letter-spacing:-0.04em;}.cls-71{stroke-dasharray:4.02 4.02;}.cls-72,.cls-73,.cls-74{stroke-width:0.75px;}.cls-73{stroke-dasharray:3.95 3.95;}.cls-74{stroke-dasharray:3.92 3.92;}</style><clipPath id="clip-path"><rect class="cls-1" x="1037.68" y="392.59" width="181.8" height="181.8"/></clipPath><clipPath id="clip-path-2"><rect class="cls-1" x="1423.85" y="579.61" width="15.11" height="15.12"/></clipPath><clipPath id="clip-path-3"><rect class="cls-1" x="1106.74" y="690.27" width="43.79" height="43.79"/></clipPath><clipPath id="clip-path-4"><rect class="cls-1" x="1425.49" y="704.59" width="11.84" height="11.83"/></clipPath><clipPath id="clip-path-5"><rect class="cls-1" x="1691.53" y="706.78" width="8.93" height="8.93"/></clipPath><clipPath id="clip-path-6"><rect class="cls-1" x="1124.49" y="887.37" width="8.28" height="8.28"/></clipPath><clipPath id="clip-path-7"><rect class="cls-1" x="1429.17" y="889.91" width="4.47" height="4.47"/></clipPath><clipPath id="clip-path-8"><rect class="cls-1" x="1688.67" y="880.19" width="14.65" height="14.65"/></clipPath><clipPath id="clip-path-9"><rect class="cls-1" x="1427.79" y="1049.18" width="7.24" height="7.23"/></clipPath><clipPath id="clip-path-10"><rect class="cls-1" x="1693.13" y="1049.13" width="5.73" height="5.74"/></clipPath><clipPath id="clip-path-11"><rect class="cls-1" x="1428.27" y="1210.2" width="6.28" height="6.28"/></clipPath><clipPath id="clip-path-12"><rect class="cls-1" x="1693.21" y="1211.02" width="5.57" height="5.57"/></clipPath><clipPath id="clip-path-13"><rect class="cls-1" x="1121.16" y="1360.75" width="14.94" height="14.94"/></clipPath><clipPath id="clip-path-14"><rect class="cls-1" x="1429.5" y="1371.88" width="3.82" height="3.81"/></clipPath><clipPath id="clip-path-15"><rect class="cls-1" x="180.5" y="398.33" width="175.87" height="175.88"/></clipPath><clipPath id="clip-path-16"><rect class="cls-1" x="510.33" y="416.74" width="27.19" height="27.19"/></clipPath></defs><title>water_foot</title><g id="Livello_2" data-name="Livello 2"><g id="Livello_1-2" data-name="Livello 1"><text class="cls-2" transform="translate(1009.73 52.1)">A wa<tspan class="cls-3" x="42.38" y="0">t</tspan><tspan x="49.5" y="0">er or soil </tspan><tspan class="cls-4" x="133.18" y="0">r</tspan><tspan class="cls-5" x="140.42" y="0">esou</tspan><tspan class="cls-4" x="183.26" y="0">r</tspan><tspan class="cls-3" x="190.5" y="0">c</tspan><tspan x="199.5" y="0">e of the </tspan><tspan class="cls-3" x="271.7" y="0">c</tspan><tspan x="280.7" y="0">ountr</tspan><tspan class="cls-6" x="330.14" y="0">y</tspan><tspan x="339.48" y="0">,</tspan><tspan class="cls-3" x="0" y="24">c</tspan><tspan x="9" y="24">ompa</tspan><tspan class="cls-7" x="60.16" y="24">r</tspan><tspan class="cls-8" x="67.4" y="24">ab</tspan><tspan class="cls-9" x="90.46" y="24">l</tspan><tspan x="96.12" y="24">e </tspan><tspan class="cls-3" x="111.32" y="24">t</tspan><tspan x="118.44" y="24" xml:space="preserve">o the usage of  that </tspan><tspan class="cls-7" x="297.24" y="24">r</tspan><tspan x="304.48" y="24">esou</tspan><tspan class="cls-4" x="347.32" y="24">r</tspan><tspan class="cls-3" x="354.56" y="24">c</tspan><tspan x="363.56" y="24">e </tspan><tspan class="cls-10" x="378.76" y="24">f</tspan><tspan x="385.48" y="24">or p</tspan><tspan class="cls-4" x="420.96" y="24">r</tspan><tspan x="428.19" y="24">oduction</tspan></text><text class="cls-2" transform="translate(1009.73 113.1)">Amount of wa<tspan class="cls-3" x="123.54" y="0">t</tspan><tspan x="130.66" y="0">er or soil us</tspan><tspan class="cls-11" x="235.04" y="0">e</tspan><tspan x="245.54" y="0">d </tspan><tspan class="cls-12" x="261.8" y="0">f</tspan><tspan x="268.52" y="0">or p</tspan><tspan class="cls-7" x="304" y="0">r</tspan><tspan x="311.24" y="0">oduction</tspan></text><text class="cls-2" transform="translate(1009.73 198.1)">I<tspan class="cls-3" x="5.8" y="0">t</tspan><tspan x="12.92" y="0">alian </tspan><tspan class="cls-13" x="63" y="0">c</tspan><tspan class="cls-8" x="72" y="0">ommon </tspan><tspan class="cls-13" x="144.1" y="0">c</tspan><tspan x="153.1" y="0">omparison:</tspan></text><g class="cls-14"><path class="cls-15" d="M1219.48,483.49a90.9,90.9,0,1,1-90.9-90.9,90.9,90.9,0,0,1,90.9,90.9"/></g><path class="cls-16" d="M1174.34,528.73A45.76,45.76,0,1,1,1128.58,483a45.76,45.76,0,0,1,45.76,45.76"/><text class="cls-17" transform="matrix(1, 0, 0, 1, 1430.33, 1084.07)"> </text><path class="cls-18" d="M1438.46,435.13a7,7,0,1,1-7-7,7.05,7.05,0,0,1,7,7"/><path class="cls-16" d="M1438.46,435.13a7,7,0,1,1-7-7,7.05,7.05,0,0,1,7,7"/><path class="cls-18" d="M1705.91,432.26a9.92,9.92,0,1,1-9.91-9.91,9.92,9.92,0,0,1,9.91,9.91"/><path class="cls-16" d="M1705.91,432.26a9.92,9.92,0,1,1-9.91-9.91,9.92,9.92,0,0,1,9.91,9.91"/><g class="cls-19"><path class="cls-15" d="M1439,587.16a7.56,7.56,0,1,1-7.56-7.55,7.55,7.55,0,0,1,7.56,7.55"/></g><path class="cls-16" d="M1438.37,587.77a7,7,0,1,1-7-7,7,7,0,0,1,7,7"/><path class="cls-16" d="M1699.87,590.86A3.87,3.87,0,1,1,1696,587a3.87,3.87,0,0,1,3.87,3.87"/><g class="cls-20"><path class="cls-15" d="M1150.53,712.16a21.9,21.9,0,1,1-21.9-21.9,21.9,21.9,0,0,1,21.9,21.9"/></g><path class="cls-21" d="M1133.55,729.21a4.92,4.92,0,1,1-4.92-4.91,4.92,4.92,0,0,1,4.92,4.91"/><g class="cls-22"><path class="cls-18" d="M1437.33,710.5a5.92,5.92,0,1,1-5.92-5.91,5.92,5.92,0,0,1,5.92,5.91"/><path class="cls-15" d="M1437.33,710.5a5.92,5.92,0,1,1-5.92-5.91,5.92,5.92,0,0,1,5.92,5.91"/></g><path class="cls-21" d="M1436.86,711a5.45,5.45,0,1,1-5.45-5.46,5.45,5.45,0,0,1,5.45,5.46"/><g class="cls-23"><path class="cls-18" d="M1700.46,711.24a4.47,4.47,0,1,1-4.46-4.46,4.46,4.46,0,0,1,4.46,4.46"/><path class="cls-15" d="M1700.46,711.24a4.47,4.47,0,1,1-4.46-4.46,4.46,4.46,0,0,1,4.46,4.46"/></g><path class="cls-21" d="M1698.77,712.93a2.77,2.77,0,1,1-2.77-2.77,2.77,2.77,0,0,1,2.77,2.77"/><g class="cls-24"><path class="cls-15" d="M1132.77,891.51a4.14,4.14,0,1,1-4.14-4.15,4.15,4.15,0,0,1,4.14,4.15"/></g><path class="cls-21" d="M1132.13,892.14a3.5,3.5,0,1,1-3.5-3.5,3.5,3.5,0,0,1,3.5,3.5"/><g class="cls-25"><path class="cls-15" d="M1433.65,892.15a2.24,2.24,0,1,1-2.23-2.24,2.24,2.24,0,0,1,2.23,2.24"/></g><path class="cls-21" d="M1433.47,892.33a2.06,2.06,0,1,1-2.06-2.06,2.05,2.05,0,0,1,2.06,2.06"/><g class="cls-26"><path class="cls-15" d="M1703.32,887.52a7.33,7.33,0,1,1-7.32-7.33,7.32,7.32,0,0,1,7.32,7.33"/></g><path class="cls-21" d="M1699.51,891.33a3.52,3.52,0,1,1-3.51-3.52,3.51,3.51,0,0,1,3.51,3.52"/><path class="cls-18" d="M1131.88,1051a3.25,3.25,0,1,1-3.25-3.24,3.25,3.25,0,0,1,3.25,3.24"/><g class="cls-27"><path class="cls-18" d="M1435,1052.79a3.62,3.62,0,1,1-3.61-3.61,3.61,3.61,0,0,1,3.61,3.61"/><path class="cls-15" d="M1435,1052.79a3.62,3.62,0,1,1-3.61-3.61,3.61,3.61,0,0,1,3.61,3.61"/></g><path class="cls-21" d="M1434.74,1053a3.33,3.33,0,1,1-3.33-3.33,3.34,3.34,0,0,1,3.33,3.33"/><g class="cls-28"><path class="cls-15" d="M1698.87,1052a2.87,2.87,0,1,1-2.87-2.87,2.88,2.88,0,0,1,2.87,2.87"/></g><path class="cls-16" d="M1698.56,1052.31a2.56,2.56,0,1,1-2.56-2.56,2.56,2.56,0,0,1,2.56,2.56"/><path class="cls-29" d="M1431.44,442.7h0a13.19,13.19,0,0,1-3.44-.44l.27-1a12.47,12.47,0,0,0,3.17.41Zm3.47-.46-.27-1a12.38,12.38,0,0,0,3-1.25l.53.92A13.34,13.34,0,0,1,1434.91,442.24Zm-10.18-1.31a13.75,13.75,0,0,1-2.79-2.13l.75-.74a12.12,12.12,0,0,0,2.56,1.95Zm16.19-2.17-.74-.75a12.52,12.52,0,0,0,2-2.56l.91.53A13.34,13.34,0,0,1,1440.92,438.76ZM1419.8,436a13.5,13.5,0,0,1-1.36-3.23l1-.27a11.93,11.93,0,0,0,1.25,3Zm24.59-3.29-1-.27a12.76,12.76,0,0,0,.41-3.2l1.06-.13v.13A13.55,13.55,0,0,1,1444.39,432.74ZM1418,429.33v-.06a13.46,13.46,0,0,1,.44-3.41l1,.27a12.23,12.23,0,0,0-.4,3.14Zm25.38-3.38a12.37,12.37,0,0,0-1.27-3l.91-.53a13.07,13.07,0,0,1,1.37,3.22Zm-22.7-2.81-.91-.53a13.93,13.93,0,0,1,2.11-2.79l.75.74A12.59,12.59,0,0,0,1420.65,423.14Zm19.44-2.7a12.81,12.81,0,0,0-2.57-1.95l.52-.91a13.56,13.56,0,0,1,2.79,2.11Zm-14.94-1.86-.53-.91a13.43,13.43,0,0,1,3.22-1.36l.28,1A12.31,12.31,0,0,0,1425.15,418.58Zm9.38-1.3a12.64,12.64,0,0,0-3.12-.39l-.09-1.06h.09a13.74,13.74,0,0,1,3.38.43Z"/><path class="cls-29" d="M1696,442.71h0a13.2,13.2,0,0,1-3.44-.45l.27-1a12.47,12.47,0,0,0,3.17.41Zm3.47-.46-.27-1a12.52,12.52,0,0,0,3-1.24l.53.91A13.54,13.54,0,0,1,1699.5,442.25Zm-10.18-1.32a13.14,13.14,0,0,1-2.79-2.13l.75-.74a12.52,12.52,0,0,0,2.56,2Zm16.19-2.17-.75-.74a12.28,12.28,0,0,0,2-2.57l.91.53A13.42,13.42,0,0,1,1705.51,438.76ZM1684.39,436a13.17,13.17,0,0,1-1.36-3.24l1-.27a11.93,11.93,0,0,0,1.25,3Zm24.59-3.3-1-.27a12.27,12.27,0,0,0,.42-3.2l1-.13v.13A13.43,13.43,0,0,1,1709,432.74Zm-26.42-3.41v-.06a13.46,13.46,0,0,1,.44-3.41l1,.27a12.24,12.24,0,0,0-.41,3.14Zm25.37-3.38a12.34,12.34,0,0,0-1.26-3l.91-.53a13.87,13.87,0,0,1,1.37,3.22Zm-22.69-2.81-.92-.52a13.09,13.09,0,0,1,2.12-2.79l.75.74A12.18,12.18,0,0,0,1685.24,423.14Zm19.44-2.7a12.59,12.59,0,0,0-2.58-1.95l.52-.91a13.71,13.71,0,0,1,2.8,2.11Zm-14.94-1.86-.54-.9a13.13,13.13,0,0,1,3.23-1.37l.28,1A12.31,12.31,0,0,0,1689.74,418.58Zm9.37-1.3a12.5,12.5,0,0,0-3.11-.39l-.1-1.06h.1a13.74,13.74,0,0,1,3.38.43Z"/><path class="cls-15" d="M1145,1200.26a16.32,16.32,0,1,1-16.32-16.33,16.32,16.32,0,0,1,16.32,16.33"/><path class="cls-21" d="M1135.08,1210.13a6.45,6.45,0,1,1-6.45-6.45,6.45,6.45,0,0,1,6.45,6.45"/><path class="cls-29" d="M1128.66,1217.12h0a13.26,13.26,0,0,1-3.44-.45l.27-1a12,12,0,0,0,3.17.42Zm3.47-.46-.27-1a12.52,12.52,0,0,0,3-1.24l.53.91A13.54,13.54,0,0,1,1132.13,1216.66Zm-10.18-1.32a13.64,13.64,0,0,1-2.78-2.12l.74-.75a12.79,12.79,0,0,0,2.56,2Zm16.19-2.17-.75-.74a12.48,12.48,0,0,0,2-2.56l.91.52A13.08,13.08,0,0,1,1138.14,1213.17Zm-21.12-2.72a13.24,13.24,0,0,1-1.35-3.23l1-.28a12.15,12.15,0,0,0,1.25,3Zm24.59-3.29-1-.28a12.65,12.65,0,0,0,.41-3.2l.73-.08.33.06A13.61,13.61,0,0,1,1141.61,1207.16Zm-26.41-3.42v-.06a13.51,13.51,0,0,1,.43-3.41l1,.27a12.29,12.29,0,0,0-.4,3.14Zm25.37-3.37a12.37,12.37,0,0,0-1.27-3l.91-.54a13.13,13.13,0,0,1,1.37,3.23Zm-22.7-2.82-.91-.52a13,13,0,0,1,2.11-2.79l.75.74A12.18,12.18,0,0,0,1117.87,1197.55Zm19.44-2.7a12.48,12.48,0,0,0-2.57-1.94l.52-.92a13.39,13.39,0,0,1,2.79,2.11Zm-14.94-1.85-.53-.91a13.13,13.13,0,0,1,3.23-1.37l.28,1A12.25,12.25,0,0,0,1122.37,1193Zm9.38-1.3a12.08,12.08,0,0,0-3.12-.4l-.06-.72,0-.33h0a13.69,13.69,0,0,1,3.39.42Z"/><g class="cls-30"><path class="cls-15" d="M1434.55,1213.33a3.14,3.14,0,1,1-3.14-3.13,3.14,3.14,0,0,1,3.14,3.13"/></g><path class="cls-16" d="M1433.65,1214.35a2.24,2.24,0,1,1-2.24-2.24,2.24,2.24,0,0,1,2.24,2.24"/><path class="cls-29" d="M1431.44,1217.12h0a13.31,13.31,0,0,1-3.44-.45l.27-1a12.53,12.53,0,0,0,3.17.41Zm3.48-.46-.28-1a12.35,12.35,0,0,0,3-1.24l.53.91A13.64,13.64,0,0,1,1434.92,1216.66Zm-10.19-1.32a13.61,13.61,0,0,1-2.79-2.12l.75-.75a12.79,12.79,0,0,0,2.56,2Zm16.19-2.17-.74-.74a12.79,12.79,0,0,0,2-2.56l.91.52A13.08,13.08,0,0,1,1440.92,1213.17Zm-21.12-2.72a13.5,13.5,0,0,1-1.36-3.23l1-.28a12,12,0,0,0,1.25,3Zm24.59-3.3-1-.27a12.65,12.65,0,0,0,.41-3.2l1.06-.12v.12A13.44,13.44,0,0,1,1444.39,1207.15Zm-26.42-3.4v-.07a13.52,13.52,0,0,1,.44-3.41l1,.27a12.29,12.29,0,0,0-.4,3.14Zm25.37-3.38a12.58,12.58,0,0,0-1.26-3l.91-.53a13.46,13.46,0,0,1,1.37,3.22Zm-22.69-2.82-.92-.52a13.43,13.43,0,0,1,2.12-2.79l.75.74A12.18,12.18,0,0,0,1420.65,1197.55Zm19.44-2.7a12.4,12.4,0,0,0-2.57-1.94l.52-.92a13.93,13.93,0,0,1,2.79,2.11Zm-14.94-1.85-.54-.91a13.53,13.53,0,0,1,3.23-1.37l.28,1A12.34,12.34,0,0,0,1425.15,1193Zm9.37-1.31a12.5,12.5,0,0,0-3.11-.39l-.09-1h.09a13.73,13.73,0,0,1,3.38.42Z"/><path class="cls-29" d="M1696,595.25h0a13.2,13.2,0,0,1-3.44-.45l.27-1a12.41,12.41,0,0,0,3.17.41Zm3.47-.46-.27-1a12.52,12.52,0,0,0,3-1.24l.53.91A13.71,13.71,0,0,1,1699.5,594.79Zm-10.18-1.32a13.35,13.35,0,0,1-2.79-2.12l.74-.75a12.85,12.85,0,0,0,2.57,2Zm16.19-2.17-.75-.74a12.48,12.48,0,0,0,2-2.56l.91.52A13.42,13.42,0,0,1,1705.51,591.3Zm-21.12-2.72a13.27,13.27,0,0,1-1.36-3.23l1-.28a12.15,12.15,0,0,0,1.25,3Zm24.59-3.29-1-.28a12.22,12.22,0,0,0,.42-3.2l.73-.08.32.06A13.6,13.6,0,0,1,1709,585.29Zm-26.42-3.42v-.06a13.52,13.52,0,0,1,.44-3.41l1,.27a12.29,12.29,0,0,0-.4,3.14Zm25.37-3.37a12.34,12.34,0,0,0-1.26-3l.91-.54a13.94,13.94,0,0,1,1.37,3.23Zm-22.69-2.82-.92-.52a13.43,13.43,0,0,1,2.12-2.79l.75.74A12.44,12.44,0,0,0,1685.24,575.68Zm19.44-2.69a12.18,12.18,0,0,0-2.57-2l.52-.92a13.39,13.39,0,0,1,2.79,2.11Zm-14.94-1.86-.53-.91a13.07,13.07,0,0,1,3.22-1.37l.28,1A12.34,12.34,0,0,0,1689.74,571.13Zm9.37-1.3a12.06,12.06,0,0,0-3.11-.4l-.06-.72,0-.33h0a13.24,13.24,0,0,1,3.39.43Z"/><path class="cls-29" d="M1431.44,595.25h0a13.63,13.63,0,0,1-3.44-.44l.27-1a12.47,12.47,0,0,0,3.17.41Zm3.47-.46-.27-1a12.35,12.35,0,0,0,3-1.24l.53.91A13.54,13.54,0,0,1,1434.91,594.79Zm-10.18-1.32a13.35,13.35,0,0,1-2.79-2.12l.75-.75a12.52,12.52,0,0,0,2.56,2Zm16.19-2.16-.74-.75a12.79,12.79,0,0,0,2-2.56l.91.53A13.6,13.6,0,0,1,1440.92,591.31Zm-21.12-2.73a13.5,13.5,0,0,1-1.36-3.23l1-.28a12.15,12.15,0,0,0,1.25,3Zm24.59-3.29-1-.27a12.33,12.33,0,0,0,.42-3.2l.72-.09.34.07A13.59,13.59,0,0,1,1444.39,585.29ZM1418,581.88v-.06a13.53,13.53,0,0,1,.43-3.42l1,.27a12.31,12.31,0,0,0-.4,3.15Zm25.37-3.38a12.37,12.37,0,0,0-1.27-3l.91-.53a13.07,13.07,0,0,1,1.37,3.22Zm-22.7-2.82-.91-.52a13.35,13.35,0,0,1,2.12-2.79l.74.74A12.81,12.81,0,0,0,1420.65,575.68Zm19.44-2.69a12.18,12.18,0,0,0-2.57-2l.52-.91a12.73,12.73,0,0,1,2.79,2.11Zm-14.94-1.86-.53-.91a13.1,13.1,0,0,1,3.23-1.36l.28,1A12.58,12.58,0,0,0,1425.15,571.13Zm9.38-1.3a12.53,12.53,0,0,0-3.12-.4l-.09-1h.09a13.22,13.22,0,0,1,3.38.43Z"/><path class="cls-29" d="M1431.44,716.46h0A13.63,13.63,0,0,1,1428,716l.27-1a12.47,12.47,0,0,0,3.17.41Zm3.47-.46-.27-1a12.38,12.38,0,0,0,3-1.25l.53.91A13,13,0,0,1,1434.91,716Zm-10.18-1.31a13.48,13.48,0,0,1-2.79-2.13l.74-.75a12.49,12.49,0,0,0,2.57,2Zm16.19-2.17-.74-.75a12.52,12.52,0,0,0,2-2.56l.91.53A13.34,13.34,0,0,1,1440.92,712.52Zm-21.12-2.73a13.5,13.5,0,0,1-1.36-3.23l1-.27a11.93,11.93,0,0,0,1.25,3Zm24.59-3.29-1-.27a12.76,12.76,0,0,0,.41-3.2l1.06-.13V703A13.55,13.55,0,0,1,1444.39,706.5ZM1418,703.09V703a13.4,13.4,0,0,1,.44-3.41l1,.26a12.31,12.31,0,0,0-.4,3.15Zm25.38-3.38a12.37,12.37,0,0,0-1.27-3l.91-.53a13.07,13.07,0,0,1,1.37,3.22Zm-22.7-2.82-.91-.52a13.93,13.93,0,0,1,2.11-2.79l.75.74A12.81,12.81,0,0,0,1420.65,696.89Zm19.44-2.69a12.44,12.44,0,0,0-2.57-2l.52-.91a13.22,13.22,0,0,1,2.79,2.11Zm-14.94-1.86-.53-.91a13.5,13.5,0,0,1,3.23-1.36l.28,1A12.25,12.25,0,0,0,1425.15,692.34Zm9.38-1.3a12.59,12.59,0,0,0-3.12-.4l-.09-1h.09a13.74,13.74,0,0,1,3.38.43Z"/><path class="cls-29" d="M1696,716.23h0a13.63,13.63,0,0,1-3.44-.44l.27-1a12.47,12.47,0,0,0,3.17.41Zm3.47-.46-.27-1a12.52,12.52,0,0,0,3-1.24l.53.91A13.71,13.71,0,0,1,1699.5,715.77Zm-10.18-1.32a13.35,13.35,0,0,1-2.79-2.12l.74-.75a12.85,12.85,0,0,0,2.57,2Zm16.19-2.16-.75-.75a12.22,12.22,0,0,0,2-2.56l.91.53A13.69,13.69,0,0,1,1705.51,712.29Zm-21.12-2.73a13.5,13.5,0,0,1-1.36-3.23l1-.28a12,12,0,0,0,1.25,3Zm24.59-3.29-1-.28a12.22,12.22,0,0,0,.42-3.2l.73-.08.32.06A13.6,13.6,0,0,1,1709,706.27Zm-26.42-3.41v-.07a13.52,13.52,0,0,1,.44-3.41l1,.27a12.29,12.29,0,0,0-.4,3.14Zm25.37-3.38a12.34,12.34,0,0,0-1.26-3l.91-.54a13.94,13.94,0,0,1,1.37,3.23Zm-22.69-2.82-.92-.52a14,14,0,0,1,2.12-2.79l.75.74A12.44,12.44,0,0,0,1685.24,696.66Zm19.44-2.69a12.18,12.18,0,0,0-2.57-2l.52-.92a13.39,13.39,0,0,1,2.79,2.11Zm-14.94-1.86-.53-.91a13.43,13.43,0,0,1,3.22-1.36l.28,1A12.34,12.34,0,0,0,1689.74,692.11Zm9.37-1.3a12.06,12.06,0,0,0-3.11-.4l-.09-1h.09a13.27,13.27,0,0,1,3.38.43Z"/><g class="cls-31"><path class="cls-15" d="M1698.78,1213.81A2.79,2.79,0,1,1,1696,1211a2.79,2.79,0,0,1,2.78,2.79"/></g><path class="cls-21" d="M1698.17,1214.41a2.18,2.18,0,1,1-2.17-2.17,2.17,2.17,0,0,1,2.17,2.17"/><path class="cls-29" d="M1696,1217.12h0a13.2,13.2,0,0,1-3.44-.45l.27-1a12,12,0,0,0,3.17.42Zm3.47-.46-.27-1a12.52,12.52,0,0,0,3-1.24l.53.91A13.71,13.71,0,0,1,1699.5,1216.66Zm-10.18-1.32a13.7,13.7,0,0,1-2.79-2.12l.74-.75a12.85,12.85,0,0,0,2.57,2Zm16.19-2.17-.75-.74a12.48,12.48,0,0,0,2-2.56l.91.52A13.42,13.42,0,0,1,1705.51,1213.17Zm-21.12-2.72a13.5,13.5,0,0,1-1.36-3.23l1-.28a12.15,12.15,0,0,0,1.25,3Zm24.59-3.3-1-.27a12.22,12.22,0,0,0,.42-3.2l.73-.08.32.06A13.47,13.47,0,0,1,1709,1207.15Zm-26.42-3.41v-.06a13.52,13.52,0,0,1,.44-3.41l1,.27a12.29,12.29,0,0,0-.4,3.14Zm25.37-3.37a12.34,12.34,0,0,0-1.26-3l.91-.54a13.94,13.94,0,0,1,1.37,3.23Zm-22.69-2.82-.92-.52a13.43,13.43,0,0,1,2.12-2.79l.75.74A12.18,12.18,0,0,0,1685.24,1197.55Zm19.44-2.7a12.48,12.48,0,0,0-2.57-1.94l.52-.92a13.39,13.39,0,0,1,2.79,2.11Zm-14.94-1.85-.53-.91a13.46,13.46,0,0,1,3.22-1.37l.28,1A12.34,12.34,0,0,0,1689.74,1193Zm9.37-1.31a12.5,12.5,0,0,0-3.11-.39l-.09-1h.09a13.73,13.73,0,0,1,3.38.42Z"/><path class="cls-29" d="M1128.66,734.59h0a13.2,13.2,0,0,1-3.44-.45l.27-1a12.47,12.47,0,0,0,3.17.41Zm3.47-.47-.27-1a12.35,12.35,0,0,0,3-1.24l.53.91A13.34,13.34,0,0,1,1132.13,734.12ZM1122,732.81a13.39,13.39,0,0,1-2.79-2.13l.75-.74a12.12,12.12,0,0,0,2.56,1.95Zm16.19-2.17-.74-.74a12.58,12.58,0,0,0,2-2.57l.91.53A13.34,13.34,0,0,1,1138.14,730.64ZM1117,727.91a13.5,13.5,0,0,1-1.36-3.23l1-.27a11.93,11.93,0,0,0,1.25,3Zm24.59-3.29-1-.27a12.76,12.76,0,0,0,.41-3.2l.72-.08.34.07A13.51,13.51,0,0,1,1141.61,724.62Zm-26.41-3.41v-.06a13.45,13.45,0,0,1,.43-3.41l1,.26a12.37,12.37,0,0,0-.4,3.15Zm25.37-3.37a12.37,12.37,0,0,0-1.27-3l.91-.54a13.13,13.13,0,0,1,1.37,3.23Zm-22.7-2.82-.91-.53a13.61,13.61,0,0,1,2.12-2.79l.75.75A12.23,12.23,0,0,0,1117.87,715Zm19.44-2.7a12.14,12.14,0,0,0-2.57-1.94l.52-.92a13.39,13.39,0,0,1,2.79,2.11Zm-14.94-1.86-.53-.91a13.5,13.5,0,0,1,3.23-1.36l.28,1A12.55,12.55,0,0,0,1122.37,710.46Zm9.38-1.3a12.52,12.52,0,0,0-3.12-.39l-.09-1.06h.09a13.68,13.68,0,0,1,3.38.43Z"/><path class="cls-29" d="M1128.66,895.43h0a13.69,13.69,0,0,1-3.44-.44l.27-1a12.47,12.47,0,0,0,3.17.41Zm3.48-.46-.28-1a12.35,12.35,0,0,0,3-1.24l.53.91A13.47,13.47,0,0,1,1132.14,895ZM1122,893.66a13.75,13.75,0,0,1-2.79-2.13l.75-.75a12.52,12.52,0,0,0,2.56,2Zm16.19-2.17-.74-.75a12.79,12.79,0,0,0,2-2.56l.91.53A13.6,13.6,0,0,1,1138.14,891.49ZM1117,888.76a13.5,13.5,0,0,1-1.36-3.23l1-.28a12.38,12.38,0,0,0,1.25,3Zm24.59-3.29-1-.27A12.78,12.78,0,0,0,1141,882l.72-.08.34.07A13.16,13.16,0,0,1,1141.61,885.47Zm-26.41-3.41V882a13.37,13.37,0,0,1,.43-3.4l1,.26a12.29,12.29,0,0,0-.4,3.14Zm25.36-3.38a12,12,0,0,0-1.26-3l.91-.54a13.13,13.13,0,0,1,1.37,3.23Zm-22.69-2.82-.91-.52a13.65,13.65,0,0,1,2.11-2.79l.75.74A12.81,12.81,0,0,0,1117.87,875.86Zm19.44-2.69a12.44,12.44,0,0,0-2.57-1.95l.52-.92a13.61,13.61,0,0,1,2.79,2.12Zm-14.94-1.86-.53-.91a13.33,13.33,0,0,1,3.23-1.36l.27,1A12.34,12.34,0,0,0,1122.37,871.31Zm9.38-1.3a12.59,12.59,0,0,0-3.12-.4l-.09-1.05h.09a13.27,13.27,0,0,1,3.38.43Z"/><path class="cls-29" d="M1431.44,895.22h0a13.2,13.2,0,0,1-3.44-.45l.27-1a12,12,0,0,0,3.17.41Zm3.47-.46-.27-1a12.35,12.35,0,0,0,3-1.24l.53.91A13.37,13.37,0,0,1,1434.91,894.76Zm-10.18-1.32a13.7,13.7,0,0,1-2.79-2.12l.75-.75a12.52,12.52,0,0,0,2.56,2Zm16.19-2.17-.74-.74a12.58,12.58,0,0,0,2-2.57l.91.53A13.34,13.34,0,0,1,1440.92,891.27Zm-21.12-2.72a13.67,13.67,0,0,1-1.36-3.23l1-.28a12.15,12.15,0,0,0,1.25,3Zm24.59-3.3-1-.27a12.71,12.71,0,0,0,.41-3.2l1.06-.12v.12A13.44,13.44,0,0,1,1444.39,885.25ZM1418,881.84v-.06a13.52,13.52,0,0,1,.44-3.41l1,.27a12.29,12.29,0,0,0-.4,3.14Zm25.38-3.37a12.37,12.37,0,0,0-1.27-3l.91-.54a13.23,13.23,0,0,1,1.37,3.22Zm-22.7-2.82-.91-.52a13.39,13.39,0,0,1,2.11-2.79l.75.74A12.53,12.53,0,0,0,1420.65,875.65Zm19.44-2.7a12.4,12.4,0,0,0-2.57-1.94l.52-.92a13.93,13.93,0,0,1,2.79,2.11Zm-14.94-1.85-.53-.91a13.07,13.07,0,0,1,3.22-1.37l.28,1A12.34,12.34,0,0,0,1425.15,871.1Zm9.38-1.31a12.64,12.64,0,0,0-3.12-.39l-.09-1h.09a13.73,13.73,0,0,1,3.38.42Z"/><path class="cls-29" d="M1696,895.07h0a13.2,13.2,0,0,1-3.44-.45l.27-1a12,12,0,0,0,3.17.41Zm3.47-.46-.27-1a12.52,12.52,0,0,0,3-1.24l.53.91A13.71,13.71,0,0,1,1699.5,894.61Zm-10.18-1.32a13.7,13.7,0,0,1-2.79-2.12l.74-.75a12.85,12.85,0,0,0,2.57,2Zm16.19-2.17-.75-.74a12.28,12.28,0,0,0,2-2.57l.91.53A13.42,13.42,0,0,1,1705.51,891.12Zm-21.12-2.72a13.27,13.27,0,0,1-1.36-3.23l1-.28a11.93,11.93,0,0,0,1.25,3Zm24.59-3.29-1-.28a12.22,12.22,0,0,0,.42-3.2l1-.12v.12A13.56,13.56,0,0,1,1709,885.11Zm-26.42-3.42v-.06a13.52,13.52,0,0,1,.44-3.41l1,.27a12.29,12.29,0,0,0-.4,3.14Zm25.37-3.37a12.34,12.34,0,0,0-1.26-3l.91-.54A13.94,13.94,0,0,1,1709,878Zm-22.69-2.82-.92-.52a13.43,13.43,0,0,1,2.12-2.79l.75.74A12.18,12.18,0,0,0,1685.24,875.5Zm19.44-2.7a12.48,12.48,0,0,0-2.57-1.94l.52-.92a13.39,13.39,0,0,1,2.79,2.11Zm-14.94-1.86-.53-.9a13.13,13.13,0,0,1,3.23-1.37l.27,1A12.31,12.31,0,0,0,1689.74,870.94Zm9.38-1.3a12.64,12.64,0,0,0-3.12-.39l-.06-.73,0-.32h0a13.69,13.69,0,0,1,3.39.42Z"/><path class="cls-29" d="M1696,1055.43h0a13.63,13.63,0,0,1-3.44-.44l.27-1a12.47,12.47,0,0,0,3.17.41Zm3.47-.46-.27-1a12.52,12.52,0,0,0,3-1.24l.53.91A13.31,13.31,0,0,1,1699.5,1055Zm-10.18-1.31a13.75,13.75,0,0,1-2.79-2.13l.74-.75a12.15,12.15,0,0,0,2.57,2Zm16.19-2.17-.75-.75a12,12,0,0,0,2-2.56l.91.53A13.69,13.69,0,0,1,1705.51,1051.49Zm-21.12-2.73a13.5,13.5,0,0,1-1.36-3.23l1-.28a11.84,11.84,0,0,0,1.25,3Zm24.59-3.29-1-.27a12.33,12.33,0,0,0,.42-3.2l1-.13v.13A13.48,13.48,0,0,1,1709,1045.47Zm-26.42-3.41V1042a13.4,13.4,0,0,1,.44-3.41l1,.26a12.31,12.31,0,0,0-.4,3.15Zm25.37-3.38a12.34,12.34,0,0,0-1.26-3l.91-.53a13.87,13.87,0,0,1,1.37,3.22Zm-22.69-2.82-.92-.52a14,14,0,0,1,2.12-2.79l.75.74A12.44,12.44,0,0,0,1685.24,1035.86Zm19.44-2.69a12.53,12.53,0,0,0-2.57-2l.52-.91a12.73,12.73,0,0,1,2.79,2.11Zm-14.94-1.86-.53-.91a13.43,13.43,0,0,1,3.22-1.36l.28,1A11.93,11.93,0,0,0,1689.74,1031.31Zm9.37-1.3a12.51,12.51,0,0,0-3.11-.4l-.09-1h.09a13.27,13.27,0,0,1,3.38.43Z"/><path class="cls-29" d="M1431.44,1056.93h0a13.63,13.63,0,0,1-3.44-.44l.27-1a12.47,12.47,0,0,0,3.17.41Zm3.47-.46-.27-1a12.38,12.38,0,0,0,3-1.25l.53.92A13.51,13.51,0,0,1,1434.91,1056.47Zm-10.18-1.31a13.75,13.75,0,0,1-2.79-2.13l.75-.75a11.84,11.84,0,0,0,2.56,2Zm16.19-2.17-.74-.75a12.52,12.52,0,0,0,2-2.56l.91.53A13.34,13.34,0,0,1,1440.92,1053Zm-21.12-2.73a13.5,13.5,0,0,1-1.36-3.23l1-.28a11.84,11.84,0,0,0,1.25,3Zm24.59-3.29-1-.27a12.33,12.33,0,0,0,.42-3.2l.72-.09.34.08A13.57,13.57,0,0,1,1444.39,1047Zm-26.41-3.41v-.06a13.39,13.39,0,0,1,.43-3.41l1,.26a12.31,12.31,0,0,0-.4,3.15Zm25.36-3.38a12.12,12.12,0,0,0-1.26-3l.91-.53a13.07,13.07,0,0,1,1.37,3.22Zm-22.69-2.81-.91-.53a13.61,13.61,0,0,1,2.12-2.79l.74.74A12.59,12.59,0,0,0,1420.65,1037.37Zm19.44-2.7a12.53,12.53,0,0,0-2.57-2l.52-.91a13.39,13.39,0,0,1,2.79,2.11Zm-14.94-1.86-.53-.91a13.5,13.5,0,0,1,3.23-1.36l.27,1A12.25,12.25,0,0,0,1425.15,1032.81Zm9.38-1.3a12.59,12.59,0,0,0-3.12-.4l-.06-.72.05-.33h0a13.69,13.69,0,0,1,3.39.43Z"/><path class="cls-29" d="M1128.66,1055.22h0a13.63,13.63,0,0,1-3.44-.44l.27-1a12.47,12.47,0,0,0,3.17.41Zm3.47-.46-.27-1a12.52,12.52,0,0,0,3-1.24l.53.91A13.14,13.14,0,0,1,1132.13,1054.76Zm-10.18-1.31a13.75,13.75,0,0,1-2.79-2.13l.75-.75a12.52,12.52,0,0,0,2.56,2Zm16.19-2.17-.74-.75a12.52,12.52,0,0,0,2-2.56l.91.53A13.34,13.34,0,0,1,1138.14,1051.28Zm-21.12-2.73a13.5,13.5,0,0,1-1.36-3.23l1-.28a12.22,12.22,0,0,0,1.25,3Zm24.59-3.29-1-.27a12.76,12.76,0,0,0,.41-3.2l.72-.09.34.08A13.14,13.14,0,0,1,1141.61,1045.26Zm-26.41-3.41v-.06a13.39,13.39,0,0,1,.43-3.41l1,.26a12.31,12.31,0,0,0-.4,3.15Zm25.37-3.38a12.37,12.37,0,0,0-1.27-3l.91-.53a13.07,13.07,0,0,1,1.37,3.22Zm-22.7-2.82-.91-.52a13.61,13.61,0,0,1,2.12-2.79l.74.74A12.81,12.81,0,0,0,1117.87,1035.65Zm19.44-2.69a12.53,12.53,0,0,0-2.57-2l.52-.91a13,13,0,0,1,2.79,2.11Zm-14.94-1.86-.53-.91a13.5,13.5,0,0,1,3.23-1.36l.27,1A12.25,12.25,0,0,0,1122.37,1031.1Zm9.38-1.3a12.59,12.59,0,0,0-3.12-.4l-.06-.72,0-.33h0a13.24,13.24,0,0,1,3.39.43Z"/><text class="cls-32" transform="matrix(1, 0, 0, 1, 1100.45, 603.33)">Mexico</text><text class="cls-33" transform="matrix(1, 0, 0, 1, 973.62, 629.85)">Lago de Chapala, Mexico’s biggest lake</text><text class="cls-32" transform="matrix(1, 0, 0, 1, 1112.61, 770.9)">USA</text><text class="cls-33" transform="matrix(1, 0, 0, 1, 1077.36, 795.15)">Lake St. Clair</text><text class="cls-32" transform="matrix(1, 0, 0, 1, 1408.49, 929.47)">Spain</text><text class="cls-33" transform="matrix(1, 0, 0, 1, 1374.96, 957.28)">Sanabria Lake</text><g class="cls-34"><path class="cls-15" d="M1136.1,1368.22a7.47,7.47,0,1,1-7.47-7.47,7.46,7.46,0,0,1,7.47,7.47"/></g><path class="cls-21" d="M1132.22,1372.1a3.59,3.59,0,1,1-3.59-3.58,3.59,3.59,0,0,1,3.59,3.58"/><path class="cls-29" d="M1128.66,1376.22h0a13.26,13.26,0,0,1-3.44-.45l.27-1a12.47,12.47,0,0,0,3.17.41Zm3.48-.46-.28-1a12.35,12.35,0,0,0,3-1.24l.53.91A13.47,13.47,0,0,1,1132.14,1375.76Zm-10.19-1.32a13.7,13.7,0,0,1-2.79-2.12l.75-.75a12.79,12.79,0,0,0,2.56,2Zm16.19-2.17-.74-.74a12.58,12.58,0,0,0,2-2.57l.91.53A13.08,13.08,0,0,1,1138.14,1372.27Zm-21.12-2.72a13.67,13.67,0,0,1-1.36-3.23l1-.28a11.93,11.93,0,0,0,1.25,3Zm24.59-3.3-1-.27a12.71,12.71,0,0,0,.41-3.2l1.06-.12v.12A13.44,13.44,0,0,1,1141.61,1366.25Zm-26.42-3.41v-.06a13.46,13.46,0,0,1,.44-3.41l1,.27a12.23,12.23,0,0,0-.4,3.14Zm25.38-3.37a12.62,12.62,0,0,0-1.27-3l.91-.53a13.07,13.07,0,0,1,1.37,3.22Zm-22.7-2.82-.92-.52a13.43,13.43,0,0,1,2.12-2.79l.75.74A12.18,12.18,0,0,0,1117.87,1356.65Zm19.44-2.7a12.53,12.53,0,0,0-2.57-2l.52-.91a13.39,13.39,0,0,1,2.79,2.11Zm-14.94-1.86-.53-.9a13.07,13.07,0,0,1,3.22-1.37l.29,1A12.22,12.22,0,0,0,1122.37,1352.09Zm9.38-1.3a12.58,12.58,0,0,0-3.12-.39l-.09-1.06h.09a13.74,13.74,0,0,1,3.38.43Z"/><g class="cls-35"><path class="cls-15" d="M1433.31,1373.79a1.9,1.9,0,1,1-1.9-1.91,1.9,1.9,0,0,1,1.9,1.91"/></g><path class="cls-21" d="M1433.05,1374.05a1.64,1.64,0,1,1-1.64-1.65,1.64,1.64,0,0,1,1.64,1.65"/><path class="cls-29" d="M1431.44,1376.22h0a13.26,13.26,0,0,1-3.44-.45l.27-1a12.47,12.47,0,0,0,3.17.41Zm3.48-.46-.28-1a12.35,12.35,0,0,0,3-1.24l.53.91A13.64,13.64,0,0,1,1434.92,1375.76Zm-10.19-1.32a13.7,13.7,0,0,1-2.79-2.12l.75-.75a12.79,12.79,0,0,0,2.56,2Zm16.19-2.17-.74-.74a12.58,12.58,0,0,0,2-2.57l.91.53A13.08,13.08,0,0,1,1440.92,1372.27Zm-21.12-2.72a13.67,13.67,0,0,1-1.36-3.23l1-.28a11.93,11.93,0,0,0,1.25,3Zm24.59-3.3-1-.27a12.71,12.71,0,0,0,.41-3.2l1.06-.12v.12A13.44,13.44,0,0,1,1444.39,1366.25Zm-26.42-3.41v-.06a13.46,13.46,0,0,1,.44-3.41l1,.27a12.23,12.23,0,0,0-.4,3.14Zm25.37-3.38a12.34,12.34,0,0,0-1.26-3l.91-.53a13.46,13.46,0,0,1,1.37,3.22Zm-22.69-2.81-.92-.52a13.43,13.43,0,0,1,2.12-2.79l.75.73A12.51,12.51,0,0,0,1420.65,1356.65Zm19.44-2.7a12.53,12.53,0,0,0-2.57-2l.52-.91a13.39,13.39,0,0,1,2.79,2.11Zm-14.94-1.86-.54-.9a13.3,13.3,0,0,1,3.23-1.37l.28,1A12.31,12.31,0,0,0,1425.15,1352.09Zm9.38-1.3a12.64,12.64,0,0,0-3.12-.39l-.06-.73,0-.33h0a13.76,13.76,0,0,1,3.39.43Z"/><text class="cls-32" transform="matrix(1, 0, 0, 1, 1078.66, 1412.5)">South Africa</text><text class="cls-33" transform="matrix(1, 0, 0, 1, 1078.54, 1438.77)">Lake Sibhayi</text><text class="cls-32" transform="matrix(1, 0, 0, 1, 1397.99, 1412.5)">Ethiopia</text><text class="cls-33" transform="matrix(1, 0, 0, 1, 1350.28, 1438.67)">100 times Hayk Lake</text><text class="cls-32" transform="matrix(1, 0, 0, 1, 1654.72, 1091.22)">Venezuela</text><text class="cls-33" transform="matrix(1, 0, 0, 1, 1584.72, 1119.27)">500 times El pueblito’s dam</text><text class="cls-32" transform="matrix(1, 0, 0, 1, 1395.07, 1091.22)">Australia</text><text class="cls-33" transform="matrix(1, 0, 0, 1, 1328.1, 1119.29)">5 times lake Burley Griffin</text><text class="cls-32" transform="matrix(1, 0, 0, 1, 1087.15, 1091.22)">Cameroon</text><text class="cls-33" transform="matrix(1, 0, 0, 1, 1085.63, 1119.49)">Lake Nylos</text><text class="cls-32" transform="matrix(1, 0, 0, 1, 1109.1, 929.47)">Haiti</text><text class="cls-36" transform="matrix(1.2, 0, 0, 1, 1078.24, 955.68)">One month <tspan x="-53.02" y="19.08">Artiboide river’s water flow</tspan></text><text class="cls-32" transform="matrix(1, 0, 0, 1, 1351.36, 472.25)">Dominican Republic</text><text class="cls-37" transform="matrix(1, 0, 0, 1, 1341.17, 501.93)">2 times Tavera’s dam, <tspan x="-37.2" y="21.6">main idric resource in Santiago</tspan></text><text class="cls-32" transform="matrix(1, 0, 0, 1, 1672.78, 615.96)">Brazil</text><text class="cls-37" transform="matrix(1, 0, 0, 1, 1624.71, 641.78)">30 times Rodrigo <tspan x="-1.11" y="21.6">de Freitas’ laguna</tspan></text><text class="cls-32" transform="matrix(1, 0, 0, 1, 1631.19, 929.47)">DR of the Congo</text><text class="cls-33" transform="matrix(1, 0, 0, 1, 1578.12, 957.28)">100 times the irrigated water <tspan x="9.58" y="20">withdrawal area each year </tspan><tspan x="54.15" y="40">in Nile in Congo</tspan></text><text class="cls-32" transform="matrix(1, 0, 0, 1, 1677.34, 472.72)">Peru</text><text class="cls-37" transform="matrix(1, 0, 0, 1, 1615.14, 501.81)">100 times Blue Lake</text><text class="cls-32" transform="matrix(1, 0, 0, 1, 1391.43, 615.71)">Indonesia</text><text class="cls-37" transform="matrix(1, 0, 0, 1, 1387.79, 641.68)">Lake Batur</text><text class="cls-32" transform="matrix(1, 0, 0, 1, 1090.22, 1252.62)">Colombia</text><text class="cls-33" transform="matrix(1, 0, 0, 1, 1041.9, 1279.01)">El Quimbo water dam</text><text class="cls-32" transform="matrix(1, 0, 0, 1, 1406.33, 1252.62)">Kenya</text><text class="cls-33" transform="matrix(1, 0, 0, 1, 1344.7, 1279.86)">Total annual avaiable<tspan x="26.76" y="21">water resource</tspan></text><text class="cls-32" transform="matrix(1, 0, 0, 1, 1673.12, 1252.61)">Israel</text><text class="cls-33" transform="matrix(1, 0, 0, 1, 1658.27, 1279.29)">4 months<tspan x="-34.75" y="21">Jordan river’s flow</tspan></text><text class="cls-32" transform="matrix(1, 0, 0, 1, 1673.01, 770.87)">China</text><text class="cls-33" transform="matrix(1, 0, 0, 1, 1662.67, 795.17)">10 times<tspan x="-6.85" y="21.6">West Lake</tspan></text><text class="cls-32" transform="matrix(1, 0, 0, 1, 1411.34, 770.03)">Chile</text><text class="cls-33" transform="matrix(1, 0, 0, 1, 1344.85, 795.15)">15 years of water flow<tspan x="30.44" y="21.6">in Rio Petorca</tspan></text><path class="cls-29" d="M1128.61,575h0a13.75,13.75,0,0,1-3.44-.44l.27-1a12.53,12.53,0,0,0,3.17.41Zm3.48-.46-.28-1a12.19,12.19,0,0,0,3-1.24l.53.91A13.08,13.08,0,0,1,1132.09,574.55Zm-10.19-1.31a13.42,13.42,0,0,1-2.78-2.13l.74-.75a12.58,12.58,0,0,0,2.57,2Zm16.2-2.17-.75-.75a12.56,12.56,0,0,0,2-2.56l.91.53A14,14,0,0,1,1138.1,571.07ZM1117,568.34a13.47,13.47,0,0,1-1.35-3.23l1-.28a12.62,12.62,0,0,0,1.25,3Zm24.6-3.29-1-.27a12.33,12.33,0,0,0,.42-3.2l.71-.09.34.08A13.56,13.56,0,0,1,1141.57,565.05Zm-26.13-3.43-.29,0a13.43,13.43,0,0,1,.43-3.43l1,.26a12.77,12.77,0,0,0-.4,3.15Zm25.08-3.36a12.37,12.37,0,0,0-1.27-3l.91-.53a13.07,13.07,0,0,1,1.37,3.22Zm-22.7-2.82-.91-.52a13.61,13.61,0,0,1,2.12-2.79l.75.74A12.49,12.49,0,0,0,1117.82,555.44Zm19.45-2.69a12.51,12.51,0,0,0-2.58-2l.52-.92A13.41,13.41,0,0,1,1138,552Zm-15-1.86-.53-.91a13.5,13.5,0,0,1,3.23-1.36l.28,1A12.58,12.58,0,0,0,1122.32,550.89Zm9.38-1.3a12.53,12.53,0,0,0-3.12-.4l-.09-1.05h.09a13.22,13.22,0,0,1,3.38.43Z"/><path class="cls-16" d="M1131.88,1051a3.25,3.25,0,1,1-3.25-3.24,3.25,3.25,0,0,1,3.25,3.24"/><text class="cls-38" transform="matrix(1, 0, 0, 1, 239.42, 603.43)">M<tspan class="cls-39" x="13.93" y="0">e</tspan><tspan x="23.22" y="0">xi</tspan><tspan class="cls-40" x="37.19" y="0">c</tspan><tspan x="45.2" y="0">o</tspan></text><text class="cls-33" transform="matrix(1, 0, 0, 1, 190.84, 631.91)">2 times Mexico City</text><g class="cls-41"><path class="cls-42" d="M356.37,486.26a87.94,87.94,0,1,1-87.94-87.93,87.94,87.94,0,0,1,87.94,87.93"/></g><path class="cls-43" d="M337,505.64a68.57,68.57,0,1,1-68.57-68.56A68.56,68.56,0,0,1,337,505.64"/><path class="cls-29" d="M266.86,574.13c-.48,0-1,0-1.43,0l0-.87a26.9,26.9,0,0,0,2.84,0l0,.87C267.86,574.12,267.36,574.13,266.86,574.13Zm-4.35-.35a25.57,25.57,0,0,1-2.86-.62l.24-.85a23.41,23.41,0,0,0,2.76.61Zm8.76,0-.15-.86a25.26,25.26,0,0,0,2.77-.61l.23.84A27.29,27.29,0,0,1,271.27,573.77Zm-14.4-1.54a29.09,29.09,0,0,1-2.66-1.23l.41-.77a25,25,0,0,0,2.58,1.18Zm20,0-.33-.81a27.42,27.42,0,0,0,2.58-1.2l.41.77A26.72,26.72,0,0,1,276.9,572.21Zm-25.2-2.72a28,28,0,0,1-2.33-1.77l.56-.67a27.93,27.93,0,0,0,2.26,1.71Zm30.36,0-.49-.72a26.91,26.91,0,0,0,2.26-1.72l.56.66A27,27,0,0,1,282.06,569.46Zm-34.82-3.76a26.8,26.8,0,0,1-1.9-2.22L246,563c.58.74,1.19,1.47,1.84,2.15Zm39.28,0-.64-.6c.65-.69,1.27-1.42,1.84-2.16l.7.53A28.68,28.68,0,0,1,286.52,565.67Zm-42.83-4.61a29.24,29.24,0,0,1-1.38-2.59l.8-.37a24.08,24.08,0,0,0,1.33,2.51Zm46.37,0-.75-.45c.48-.8.93-1.65,1.33-2.5l.79.37A27.65,27.65,0,0,1,290.06,561Zm-48.84-5.26a27.36,27.36,0,0,1-.78-2.82l.85-.19a25,25,0,0,0,.76,2.73Zm51.3,0-.83-.27c.3-.9.55-1.82.76-2.74l.85.19A27.36,27.36,0,0,1,292.52,555.7ZM240,550a28.26,28.26,0,0,1-.16-2.92h.87c0,.94.06,1.9.16,2.83Zm53.81,0-.87-.09a27,27,0,0,0,.15-2.83l.88-.11v.11A28.57,28.57,0,0,1,293.77,550Zm-52.95-5.7-.87-.09a28,28,0,0,1,.46-2.89l.86.18A26.33,26.33,0,0,0,240.82,544.29Zm52.07-.16a24.25,24.25,0,0,0-.47-2.79l.86-.19a28.35,28.35,0,0,1,.48,2.88ZM242,538.76l-.83-.28a25.82,25.82,0,0,1,1.08-2.73l.79.37A26.31,26.31,0,0,0,242,538.76Zm49.64-.15c-.31-.9-.67-1.78-1.06-2.63l.79-.37a29,29,0,0,1,1.1,2.71Zm-47.27-5-.75-.45a26.36,26.36,0,0,1,1.64-2.42l.69.53A25.93,25.93,0,0,0,244.39,533.61Zm44.87-.13c-.49-.8-1-1.59-1.6-2.34l.69-.53A26.46,26.46,0,0,1,290,533Zm-41.45-4.38-.64-.6a29,29,0,0,1,2.12-2l.57.67A25.23,25.23,0,0,0,247.81,529.1Zm38-.11a23.53,23.53,0,0,0-2.06-1.94l.56-.67a27,27,0,0,1,2.14,2Zm-33.7-3.57-.49-.72a26.42,26.42,0,0,1,2.5-1.52l.41.77C253.7,524.4,252.89,524.89,252.11,525.42Zm29.38-.08a27.42,27.42,0,0,0-2.43-1.46l.4-.77a27.88,27.88,0,0,1,2.52,1.5Zm-24.39-2.58-.33-.81a27.6,27.6,0,0,1,2.78-1l.23.84A27.3,27.3,0,0,0,257.1,522.76Zm19.38-.06a25,25,0,0,0-2.69-.9L274,521a26.66,26.66,0,0,1,2.78.93Zm-13.93-1.47-.14-.86a25.89,25.89,0,0,1,2.91-.32l0,.87A26.53,26.53,0,0,0,262.55,521.23Zm8.47,0a26.69,26.69,0,0,0-2.82-.3l.05-.87a28.4,28.4,0,0,1,2.91.3Z"/><text class="cls-44" transform="matrix(1, 0, 0, 1, 709.42, 265.43)">Country</text><text class="cls-45" transform="matrix(1, 0, 0, 1, 673.12, 276.91)">Country internal comparison</text><text class="cls-46" transform="matrix(1, 0, 0, 1, 105.12, 400.91)">297,000 ha</text><text class="cls-46" transform="matrix(1, 0, 0, 1, 105.12, 436.91)">180,536 ha</text><text class="cls-47" transform="matrix(1, 0, 0, 1, 105.12, 553.91)"><tspan class="cls-48">Grand Paradiso <tspan x="0" y="16.8">National Park</tspan></tspan><tspan class="cls-49"><tspan x="0" y="33.6">71,040 ha</tspan></tspan></text><text class="cls-46" transform="matrix(1, 0, 0, 1, 953.12, 400.91)">8,300,000,000 m</text><text class="cls-46" transform="matrix(0.58, 0, 0, 0.58, 1053.61, 396.58)">3</text><text class="cls-46" transform="matrix(1, 0, 0, 1, 953.12, 490.91)">2,099,072,294 m</text><text class="cls-46" transform="matrix(0.58, 0, 0, 0.58, 1048.31, 486.56)">3</text><text class="cls-46" transform="matrix(1, 0, 0, 1, 953.12, 566.91)">Trasimeno Lake<tspan x="0" y="16.8">586,000,000 m</tspan></text><text class="cls-46" transform="matrix(0.58, 0, 0, 0.58, 1042.6, 579.35)">3</text><path class="cls-50" d="M819.37,155.26a87.94,87.94,0,1,1-87.94-87.93,87.94,87.94,0,0,1,87.94,87.93"/><rect class="cls-1" x="643.5" y="67.33" width="175.87" height="175.88"/><path class="cls-51" d="M800,174.64a68.57,68.57,0,1,1-68.57-68.56A68.56,68.56,0,0,1,800,174.64"/><path class="cls-29" d="M729.86,243.13c-.48,0-1,0-1.43,0l0-.87a26.9,26.9,0,0,0,2.84,0l0,.87C730.86,243.12,730.36,243.13,729.86,243.13Zm-4.35-.35a25.57,25.57,0,0,1-2.86-.62l.24-.85a23.41,23.41,0,0,0,2.76.61Zm8.76,0-.15-.86a25.26,25.26,0,0,0,2.77-.61l.23.84A27.29,27.29,0,0,1,734.27,242.77Zm-14.4-1.54a29.09,29.09,0,0,1-2.66-1.23l.41-.77a25,25,0,0,0,2.58,1.18Zm20,0-.33-.81a27.42,27.42,0,0,0,2.58-1.2l.41.77A26.72,26.72,0,0,1,739.9,241.21Zm-25.2-2.72a28,28,0,0,1-2.33-1.77l.56-.67a27.93,27.93,0,0,0,2.26,1.71Zm30.36,0-.49-.72a26.91,26.91,0,0,0,2.26-1.72l.56.66A27,27,0,0,1,745.06,238.46Zm-34.82-3.76a26.8,26.8,0,0,1-1.9-2.22L709,232c.58.74,1.19,1.47,1.84,2.15Zm39.28,0-.64-.6c.65-.69,1.27-1.42,1.84-2.16l.7.53A28.68,28.68,0,0,1,749.52,234.67Zm-42.83-4.61a29.24,29.24,0,0,1-1.38-2.59l.8-.37a24.08,24.08,0,0,0,1.33,2.51Zm46.37-.05-.75-.45c.48-.8.93-1.65,1.33-2.5l.79.37A27.65,27.65,0,0,1,753.06,230Zm-48.84-5.26a27.36,27.36,0,0,1-.78-2.82l.85-.19a25,25,0,0,0,.76,2.73Zm51.3-.05-.83-.27c.3-.9.55-1.82.76-2.74l.85.19A27.36,27.36,0,0,1,755.52,224.7ZM703,219a28.26,28.26,0,0,1-.16-2.92h.87c0,.94.06,1.9.16,2.83Zm53.81,0-.87-.09a27,27,0,0,0,.15-2.83l.88-.11v.11A28.57,28.57,0,0,1,756.77,219Zm-52.95-5.7-.87-.09a28,28,0,0,1,.46-2.89l.86.18A26.33,26.33,0,0,0,703.82,213.29Zm52.07-.16a24.25,24.25,0,0,0-.47-2.79l.86-.19a28.35,28.35,0,0,1,.48,2.88ZM705,207.76l-.83-.28a25.82,25.82,0,0,1,1.08-2.73l.79.37A26.31,26.31,0,0,0,705,207.76Zm49.64-.15c-.31-.9-.67-1.78-1.06-2.63l.79-.37a29,29,0,0,1,1.1,2.71Zm-47.27-5-.75-.45a26.36,26.36,0,0,1,1.64-2.42l.69.53A25.93,25.93,0,0,0,707.39,202.61Zm44.87-.13c-.49-.8-1-1.59-1.6-2.34l.69-.53A26.46,26.46,0,0,1,753,202Zm-41.45-4.38-.64-.6a29,29,0,0,1,2.12-2l.57.67A25.23,25.23,0,0,0,710.81,198.1Zm38-.11a23.53,23.53,0,0,0-2.06-1.94l.56-.67a27,27,0,0,1,2.14,2Zm-33.7-3.57-.49-.72a26.42,26.42,0,0,1,2.5-1.52l.41.77C716.7,193.4,715.89,193.89,715.11,194.42Zm29.38-.08a27.42,27.42,0,0,0-2.43-1.46l.4-.77a27.88,27.88,0,0,1,2.52,1.5Zm-24.39-2.58-.33-.81a27.6,27.6,0,0,1,2.78-.95l.23.84A27.3,27.3,0,0,0,720.1,191.76Zm19.38-.06a25,25,0,0,0-2.69-.9L737,190a26.66,26.66,0,0,1,2.78.93Zm-13.93-1.47-.14-.86a25.89,25.89,0,0,1,2.91-.32l0,.87A26.53,26.53,0,0,0,725.55,190.23Zm8.47,0a26.69,26.69,0,0,0-2.82-.3l0-.87a28.4,28.4,0,0,1,2.91.3Z"/><text class="cls-38" transform="matrix(1, 0, 0, 1, 442.43, 471.59)">Dominican Republic</text><text class="cls-37" transform="matrix(1, 0, 0, 1, 418.89, 500.49)">Los Haities National Park </text><g class="cls-52"><path class="cls-42" d="M537.52,430.33a13.59,13.59,0,1,1-13.59-13.59,13.59,13.59,0,0,1,13.59,13.59"/></g><path class="cls-53" d="M529.41,438.45a5.48,5.48,0,1,1-5.48-5.48,5.49,5.49,0,0,1,5.48,5.48"/><path class="cls-29" d="M523.93,443.8c-.48,0-1,0-1.44,0l0-.87a26.72,26.72,0,0,0,2.83,0l0,.87C524.93,443.79,524.43,443.8,523.93,443.8Zm-4.35-.35a25.57,25.57,0,0,1-2.86-.62L517,442a26.28,26.28,0,0,0,2.77.6Zm8.75,0-.14-.86A26.32,26.32,0,0,0,531,442l.23.85A26.9,26.9,0,0,1,528.33,443.44Zm-14.39-1.54a27.9,27.9,0,0,1-2.66-1.23l.41-.77a24.8,24.8,0,0,0,2.57,1.18Zm20,0-.33-.81a26.13,26.13,0,0,0,2.57-1.2l.41.77A26.56,26.56,0,0,1,534,441.88Zm-25.2-2.72a26.46,26.46,0,0,1-2.33-1.77l.56-.67a26.91,26.91,0,0,0,2.26,1.72Zm30.36,0-.49-.72a25.23,25.23,0,0,0,2.25-1.72l.57.67A28.56,28.56,0,0,1,539.13,439.13Zm-34.82-3.75a28.68,28.68,0,0,1-1.9-2.23l.69-.53a25.13,25.13,0,0,0,1.84,2.15Zm39.28,0-.64-.6c.65-.69,1.27-1.42,1.84-2.16l.69.53A26.53,26.53,0,0,1,543.59,435.34Zm-42.83-4.61a27.91,27.91,0,0,1-1.38-2.59l.8-.36a25,25,0,0,0,1.33,2.5Zm46.37,0-.75-.46a27.07,27.07,0,0,0,1.33-2.5l.79.37A29.14,29.14,0,0,1,547.13,430.69Zm-48.84-5.27c-.31-.92-.57-1.87-.79-2.82l.86-.19a25,25,0,0,0,.76,2.73Zm51.29,0-.82-.28a25.79,25.79,0,0,0,.75-2.74l.86.19A28.32,28.32,0,0,1,549.58,425.38ZM497,419.71a25.72,25.72,0,0,1-.16-2.92h.87a24.28,24.28,0,0,0,.16,2.83Zm53.81,0-.87-.09a26.83,26.83,0,0,0,.15-2.83l.6-.08.27.06A28.65,28.65,0,0,1,550.84,419.66Zm-53-5.7-.87-.09a25.56,25.56,0,0,1,.46-2.89l.86.18A24,24,0,0,0,497.89,414ZM550,413.8a26.63,26.63,0,0,0-.47-2.79l.85-.19a25.64,25.64,0,0,1,.49,2.89Zm-50.87-5.37-.83-.28a25.82,25.82,0,0,1,1.08-2.73l.79.37A26.31,26.31,0,0,0,499.09,408.43Zm49.63-.15a24.07,24.07,0,0,0-1.06-2.63l.79-.37a25.77,25.77,0,0,1,1.1,2.72Zm-47.27-5-.74-.45a24.49,24.49,0,0,1,1.64-2.42l.69.53C502.47,401.69,501.94,402.48,501.45,403.28Zm44.87-.13a25.5,25.5,0,0,0-1.6-2.34l.7-.53a27.91,27.91,0,0,1,1.65,2.42Zm-41.45-4.38-.63-.6a29,29,0,0,1,2.12-2l.57.67A27.12,27.12,0,0,0,504.87,398.77Zm38-.11a26.88,26.88,0,0,0-2.06-1.94l.56-.67a26.93,26.93,0,0,1,2.13,2Zm-33.7-3.57-.49-.72a26.42,26.42,0,0,1,2.5-1.52l.41.78A25.9,25.9,0,0,0,509.18,395.09Zm29.38-.08a27.58,27.58,0,0,0-2.44-1.46l.41-.77a27.88,27.88,0,0,1,2.52,1.5Zm-24.39-2.58-.33-.81a27.42,27.42,0,0,1,2.77-.95l.24.84A27.3,27.3,0,0,0,514.17,392.43Zm19.38-.06a25.72,25.72,0,0,0-2.69-.9l.23-.84a26.66,26.66,0,0,1,2.78.93Zm-13.93-1.47-.14-.86a25.64,25.64,0,0,1,2.91-.32l0,.87A26.53,26.53,0,0,0,519.62,390.9Zm8.47,0a26.69,26.69,0,0,0-2.82-.3l0-.87a28.4,28.4,0,0,1,2.91.3Z"/><text class="cls-38" transform="matrix(1, 0, 0, 1, 483.05, 615.76)">Indonesia</text><text class="cls-37" transform="matrix(1, 0, 0, 1, 494.67, 639.48)">Jakarta</text><path class="cls-42" d="M539,579.74a15.57,15.57,0,1,1-15.57-15.56A15.57,15.57,0,0,1,539,579.74"/><path class="cls-53" d="M532.68,586.08a9.23,9.23,0,1,1-9.23-9.23,9.23,9.23,0,0,1,9.23,9.23"/><path class="cls-29" d="M523.45,595.75c-.48,0-1,0-1.44,0l0-.87a26.71,26.71,0,0,0,2.83,0l.05.88C524.45,595.73,524,595.75,523.45,595.75Zm-4.35-.35c-1-.16-1.92-.37-2.86-.62l.23-.85a26.32,26.32,0,0,0,2.77.61Zm8.75,0-.14-.86c.93-.16,1.87-.36,2.77-.61l.23.84A26.92,26.92,0,0,1,527.85,595.39Zm-14.39-1.55a26.64,26.64,0,0,1-2.66-1.23l.41-.77a27.17,27.17,0,0,0,2.57,1.19Zm20,0-.33-.81a26.06,26.06,0,0,0,2.57-1.19l.41.77A26.48,26.48,0,0,1,533.49,593.82Zm-25.2-2.71a26.57,26.57,0,0,1-2.33-1.78l.56-.66a24.82,24.82,0,0,0,2.26,1.71Zm30.36,0-.49-.73a25.12,25.12,0,0,0,2.25-1.71l.57.66A27,27,0,0,1,538.65,591.08Zm-34.82-3.76a25.39,25.39,0,0,1-1.9-2.23l.69-.53a25.27,25.27,0,0,0,1.84,2.16Zm39.28,0-.64-.6a27,27,0,0,0,1.84-2.17l.69.53A26.66,26.66,0,0,1,543.11,587.29Zm-42.83-4.62a27.74,27.74,0,0,1-1.38-2.58l.8-.37a23.94,23.94,0,0,0,1.33,2.5Zm46.37,0-.75-.45c.48-.81.93-1.65,1.33-2.5l.79.36A26.61,26.61,0,0,1,546.65,582.63Zm-48.84-5.26a27.36,27.36,0,0,1-.78-2.82l.85-.19a25.66,25.66,0,0,0,.76,2.73Zm51.3,0-.83-.28a25.62,25.62,0,0,0,.75-2.73l.86.19A27.36,27.36,0,0,1,549.11,577.32Zm-52.56-5.66a25.85,25.85,0,0,1-.16-2.92h.87a24.41,24.41,0,0,0,.16,2.83Zm53.81,0-.87-.1a26.83,26.83,0,0,0,.15-2.83v-.11h.87v.11A28.75,28.75,0,0,1,550.36,571.61Zm-52.95-5.71-.87-.09a26.3,26.3,0,0,1,.46-2.89l.86.19A22.2,22.2,0,0,0,497.41,565.9Zm52.07-.16A26.63,26.63,0,0,0,549,563l.86-.19a28.09,28.09,0,0,1,.48,2.89Zm-50.87-5.37-.83-.27a25.82,25.82,0,0,1,1.08-2.73l.79.37A27.11,27.11,0,0,0,498.61,560.37Zm49.63-.15a24.91,24.91,0,0,0-1.06-2.63l.8-.37a26.59,26.59,0,0,1,1.09,2.72Zm-47.27-5-.74-.45a26.36,26.36,0,0,1,1.64-2.42l.69.52A26.89,26.89,0,0,0,501,555.23Zm44.87-.13a23,23,0,0,0-1.6-2.34l.7-.53a26.31,26.31,0,0,1,1.65,2.41Zm-41.45-4.38-.63-.6a27.11,27.11,0,0,1,2.12-2l.57.66A27.35,27.35,0,0,0,504.39,550.72Zm38-.11a27,27,0,0,0-2.06-2l.56-.66a25.09,25.09,0,0,1,2.13,2ZM508.7,547l-.5-.72a27.92,27.92,0,0,1,2.51-1.52l.41.77A26.87,26.87,0,0,0,508.7,547Zm29.37-.09c-.78-.52-1.6-1-2.43-1.45l.41-.78a27.82,27.82,0,0,1,2.51,1.51Zm-24.38-2.58-.33-.81a27.36,27.36,0,0,1,2.77-.94l.24.84A27.24,27.24,0,0,0,513.69,544.37Zm19.38,0a25.72,25.72,0,0,0-2.69-.9l.23-.84a25.13,25.13,0,0,1,2.78.92Zm-13.93-1.47L519,542a28.45,28.45,0,0,1,2.91-.32l.05.87A26.55,26.55,0,0,0,519.14,542.85Zm8.47,0a24.28,24.28,0,0,0-2.82-.29l0-.88a27.84,27.84,0,0,1,2.91.31Z"/><text class="cls-38" transform="matrix(1, 0, 0, 1, 228.77, 1252.31)">Colombia</text><text class="cls-33" transform="matrix(1, 0, 0, 1, 201.2, 1278.26)">Serranilla Island</text><path class="cls-42" d="M291.05,1192.26a23.88,23.88,0,1,1-23.88-23.87,23.88,23.88,0,0,1,23.88,23.87"/><path class="cls-53" d="M280.09,1203.22a12.92,12.92,0,1,1-12.92-12.91,12.91,12.91,0,0,1,12.92,12.91"/><path class="cls-29" d="M267.17,1216.58c-.48,0-1,0-1.44,0l0-.87a26.9,26.9,0,0,0,2.84,0l0,.88C268.17,1216.56,267.67,1216.58,267.17,1216.58Zm-4.35-.35a28.06,28.06,0,0,1-2.86-.63l.23-.84a26.32,26.32,0,0,0,2.77.61Zm8.76,0-.15-.86c.93-.16,1.87-.36,2.77-.61l.23.84A27.29,27.29,0,0,1,271.58,1216.22Zm-14.4-1.55a29,29,0,0,1-2.66-1.22l.41-.78a26.23,26.23,0,0,0,2.58,1.19Zm20,0-.33-.81a27.34,27.34,0,0,0,2.58-1.19l.41.77A26.64,26.64,0,0,1,277.21,1214.65Zm-25.2-2.71c-.8-.55-1.58-1.14-2.33-1.77l.56-.67a27.93,27.93,0,0,0,2.26,1.71Zm30.36,0-.49-.73a26.79,26.79,0,0,0,2.26-1.71l.56.66A27,27,0,0,1,282.37,1211.91Zm-34.82-3.76a25.39,25.39,0,0,1-1.9-2.23l.69-.53a27.21,27.21,0,0,0,1.84,2.16Zm39.28,0-.64-.6c.65-.69,1.27-1.42,1.84-2.16l.7.52A27.08,27.08,0,0,1,286.83,1208.12ZM244,1203.51a29.24,29.24,0,0,1-1.38-2.59l.8-.37a23.94,23.94,0,0,0,1.33,2.5Zm46.37,0-.75-.45c.48-.8.93-1.65,1.33-2.5l.79.36A26.61,26.61,0,0,1,290.37,1203.46Zm-48.84-5.26a27.36,27.36,0,0,1-.78-2.82l.85-.19a25.66,25.66,0,0,0,.76,2.73Zm51.3,0-.83-.28a28.27,28.27,0,0,0,.76-2.73l.85.19A27.36,27.36,0,0,1,292.83,1198.15Zm-52.56-5.66a28.41,28.41,0,0,1-.16-2.92H241c0,.94.06,1.89.16,2.83Zm53.81,0-.87-.1a26.83,26.83,0,0,0,.15-2.83l.88-.11v.11A28.76,28.76,0,0,1,294.08,1192.44Zm-52.95-5.7-.87-.1a28.92,28.92,0,0,1,.46-2.89l.86.19A26.33,26.33,0,0,0,241.13,1186.74Zm52.07-.16a26.38,26.38,0,0,0-.47-2.8l.86-.19a28.09,28.09,0,0,1,.48,2.89Zm-50.87-5.38-.83-.27a25.82,25.82,0,0,1,1.08-2.73l.79.37A27.11,27.11,0,0,0,242.33,1181.2Zm49.64-.15c-.31-.89-.67-1.78-1.06-2.63l.79-.37a29.17,29.17,0,0,1,1.1,2.72Zm-47.27-5-.75-.45a28,28,0,0,1,1.64-2.43l.69.53A24.73,24.73,0,0,0,244.7,1176.06Zm44.87-.13a26.83,26.83,0,0,0-1.6-2.34l.69-.53a26.31,26.31,0,0,1,1.65,2.41Zm-41.45-4.38-.64-.6a29,29,0,0,1,2.12-2l.57.66A27.2,27.2,0,0,0,248.12,1171.55Zm38-.11a27,27,0,0,0-2.06-2l.56-.66a25.09,25.09,0,0,1,2.13,2Zm-33.7-3.57-.49-.72a26.42,26.42,0,0,1,2.5-1.52l.41.77A26.87,26.87,0,0,0,252.42,1167.87Zm29.38-.09c-.79-.52-1.6-1-2.44-1.45l.41-.77a25.73,25.73,0,0,1,2.52,1.5Zm-24.39-2.58-.33-.81a27.36,27.36,0,0,1,2.77-.94l.24.84A27.24,27.24,0,0,0,257.41,1165.2Zm19.38,0a25.72,25.72,0,0,0-2.69-.9l.23-.84a24.45,24.45,0,0,1,2.78.92Zm-13.93-1.47-.14-.86a28.15,28.15,0,0,1,2.91-.33l0,.88A24.14,24.14,0,0,0,262.86,1163.68Zm8.47,0a26.41,26.41,0,0,0-2.82-.29l0-.88a27.84,27.84,0,0,1,2.91.31Z"/><text class="cls-38" transform="matrix(1, 0, 0, 1, 499.43, 1252.36)"><tspan class="cls-54">K</tspan><tspan x="10.17" y="0">e</tspan><tspan class="cls-55" x="19.69" y="0">n</tspan><tspan x="29.57" y="0">ya</tspan></text><text class="cls-56" transform="matrix(1, 0, 0, 1, 474.91, 1278.26)">National Park<tspan class="cls-57"><tspan x="7.42" y="21.6">Masai Mara</tspan></tspan></text><path class="cls-42" d="M532,1208.18a8.13,8.13,0,1,1-8.13-8.13,8.13,8.13,0,0,1,8.13,8.13"/><path class="cls-58" d="M528.5,1211.7a4.61,4.61,0,1,1-4.61-4.62,4.61,4.61,0,0,1,4.61,4.62"/><path class="cls-58" d="M528.5,1211.7a4.61,4.61,0,1,1-4.61-4.62,4.61,4.61,0,0,1,4.61,4.62"/><path class="cls-58" d="M528.5,1211.7a4.61,4.61,0,1,1-4.61-4.62,4.61,4.61,0,0,1,4.61,4.62"/><path class="cls-58" d="M528.5,1211.7a4.61,4.61,0,1,1-4.61-4.62,4.61,4.61,0,0,1,4.61,4.62"/><path class="cls-58" d="M528.5,1211.7a4.61,4.61,0,1,1-4.61-4.62,4.61,4.61,0,0,1,4.61,4.62"/><path class="cls-58" d="M528.5,1211.7a4.61,4.61,0,1,1-4.61-4.62,4.61,4.61,0,0,1,4.61,4.62"/><path class="cls-58" d="M528.5,1211.7a4.61,4.61,0,1,1-4.61-4.62,4.61,4.61,0,0,1,4.61,4.62"/><path class="cls-58" d="M528.5,1211.7a4.61,4.61,0,1,1-4.61-4.62,4.61,4.61,0,0,1,4.61,4.62"/><path class="cls-58" d="M528.5,1211.7a4.61,4.61,0,1,1-4.61-4.62,4.61,4.61,0,0,1,4.61,4.62"/><path class="cls-58" d="M528.5,1211.7a4.61,4.61,0,1,1-4.61-4.62,4.61,4.61,0,0,1,4.61,4.62"/><path class="cls-58" d="M528.5,1211.7a4.61,4.61,0,1,1-4.61-4.62,4.61,4.61,0,0,1,4.61,4.62"/><path class="cls-53" d="M528.5,1211.7a4.61,4.61,0,1,1-4.61-4.62,4.61,4.61,0,0,1,4.61,4.62"/><path class="cls-29" d="M523.89,1216.75c-.48,0-1,0-1.44,0l0-.87a26.72,26.72,0,0,0,2.83,0l0,.88C524.89,1216.73,524.39,1216.75,523.89,1216.75Zm-4.35-.35a28.06,28.06,0,0,1-2.86-.63l.23-.84a26.28,26.28,0,0,0,2.77.6Zm8.75,0-.14-.86c.93-.16,1.86-.36,2.77-.61l.23.84A26.92,26.92,0,0,1,528.29,1216.39Zm-14.39-1.55a25.64,25.64,0,0,1-2.66-1.23l.41-.77a27.17,27.17,0,0,0,2.57,1.19Zm20,0-.33-.81a26.06,26.06,0,0,0,2.57-1.19l.41.77A26.48,26.48,0,0,1,533.93,1214.82Zm-25.2-2.71a26.57,26.57,0,0,1-2.33-1.78l.56-.66a24.82,24.82,0,0,0,2.26,1.71Zm30.36,0-.49-.73a25.12,25.12,0,0,0,2.25-1.71l.57.66A28.68,28.68,0,0,1,539.09,1212.08Zm-34.82-3.76a25.39,25.39,0,0,1-1.9-2.23l.69-.53a25.27,25.27,0,0,0,1.84,2.16Zm39.27,0-.63-.6a25,25,0,0,0,1.83-2.17l.7.53A25,25,0,0,1,543.54,1208.29Zm-42.82-4.62a25.55,25.55,0,0,1-1.38-2.58l.79-.37a27.32,27.32,0,0,0,1.34,2.5Zm46.36,0-.74-.45a25.9,25.9,0,0,0,1.32-2.5l.8.36A26.69,26.69,0,0,1,547.08,1203.63Zm-48.83-5.26a27.41,27.41,0,0,1-.79-2.82l.86-.19a25.66,25.66,0,0,0,.76,2.73Zm51.29,0-.83-.28a23.5,23.5,0,0,0,.76-2.73l.86.19A27.41,27.41,0,0,1,549.54,1198.32ZM497,1192.66a26,26,0,0,1-.16-2.92h.87a24.16,24.16,0,0,0,.16,2.83Zm53.81-.05-.87-.1a26.83,26.83,0,0,0,.15-2.83l.87-.1v.1A28.75,28.75,0,0,1,550.8,1192.61Zm-52.95-5.71-.87-.09a25.92,25.92,0,0,1,.46-2.89l.85.19A24.15,24.15,0,0,0,497.85,1186.9Zm52.07-.15a26.38,26.38,0,0,0-.47-2.8l.85-.19a26,26,0,0,1,.48,2.89Zm-50.87-5.38-.83-.27a25.82,25.82,0,0,1,1.08-2.73l.79.37A26.14,26.14,0,0,0,499.05,1181.37Zm49.63-.15a23.91,23.91,0,0,0-1.06-2.62l.79-.37a25.6,25.6,0,0,1,1.1,2.71Zm-47.27-5-.74-.45a25.86,25.86,0,0,1,1.64-2.43l.69.53A26.89,26.89,0,0,0,501.41,1176.23Zm44.87-.13a24.2,24.2,0,0,0-1.6-2.34l.7-.53a26.46,26.46,0,0,1,1.65,2.42Zm-41.45-4.38-.63-.6a23.84,23.84,0,0,1,2.12-2l.57.66A27.35,27.35,0,0,0,504.83,1171.72Zm38-.11a27,27,0,0,0-2.06-1.95l.56-.66a26.81,26.81,0,0,1,2.13,2Zm-33.7-3.57-.5-.72a26.58,26.58,0,0,1,2.51-1.52l.41.77A24.75,24.75,0,0,0,509.14,1168Zm29.37-.09c-.78-.52-1.6-1-2.43-1.45l.41-.77a25.58,25.58,0,0,1,2.51,1.5Zm-24.38-2.58-.33-.81a27.36,27.36,0,0,1,2.77-.94l.24.84A27.24,27.24,0,0,0,514.13,1165.37Zm19.38,0a25.72,25.72,0,0,0-2.69-.9l.23-.84a25.13,25.13,0,0,1,2.78.92Zm-13.94-1.47-.14-.87a28.45,28.45,0,0,1,2.91-.32l0,.87A27,27,0,0,0,519.57,1163.85Zm8.48,0a24.28,24.28,0,0,0-2.82-.29l0-.88a25.87,25.87,0,0,1,2.91.31Z"/><text class="cls-38" transform="matrix(1, 0, 0, 1, 503.81, 769.91)">Chile</text><text class="cls-33" transform="matrix(1, 0, 0, 1, 471.89, 795.8)">Easter Island</text><text class="cls-38" transform="matrix(1, 0, 0, 1, 251.15, 769.93)">USA</text><text class="cls-33" transform="matrix(1, 0, 0, 1, 177.74, 795.34)">Sequoia National Park</text><text class="cls-59" transform="translate(521.38 765.98)"> </text><path class="cls-42" d="M551.94,708.82a28.05,28.05,0,1,1-28.05-28.05,28,28,0,0,1,28.05,28.05"/><path class="cls-53" d="M535.89,724.87a12,12,0,1,1-12-12,12,12,0,0,1,12,12"/><path class="cls-29" d="M523.92,737.3c-.48,0-1,0-1.44,0l0-.87a26.72,26.72,0,0,0,2.83,0l0,.87C524.92,737.29,524.42,737.3,523.92,737.3Zm-4.35-.34a28.06,28.06,0,0,1-2.86-.63l.23-.84a26.28,26.28,0,0,0,2.77.6Zm8.75,0-.14-.86c.93-.16,1.86-.36,2.77-.61l.23.84A28.06,28.06,0,0,1,528.32,736.94Zm-14.39-1.54a25.57,25.57,0,0,1-2.66-1.22l.41-.77a27.09,27.09,0,0,0,2.57,1.18Zm20,0-.33-.81c.88-.36,1.74-.76,2.57-1.2l.41.77A27.8,27.8,0,0,1,534,735.37Zm-25.2-2.7a25.19,25.19,0,0,1-2.34-1.77l.57-.66a25.74,25.74,0,0,0,2.26,1.71Zm30.36-.06-.5-.72a26.91,26.91,0,0,0,2.26-1.72l.56.67A26.31,26.31,0,0,1,539.12,732.61Zm-34.83-3.71a25.39,25.39,0,0,1-1.9-2.23l.69-.53c.58.75,1.2,1.47,1.84,2.15Zm39.27-.08-.63-.6a26.78,26.78,0,0,0,1.83-2.16l.7.53A28.68,28.68,0,0,1,543.56,728.82Zm-42.83-4.57a27.74,27.74,0,0,1-1.38-2.58l.79-.37a27.32,27.32,0,0,0,1.34,2.5Zm46.37-.09-.75-.45a25.14,25.14,0,0,0,1.33-2.51l.79.37A24.7,24.7,0,0,1,547.1,724.16ZM498.26,719a25.1,25.1,0,0,1-.79-2.82l.85-.19a26.4,26.4,0,0,0,.77,2.73Zm51.29-.1-.82-.28a25.79,25.79,0,0,0,.75-2.74l.85.19A25.81,25.81,0,0,1,549.55,718.85ZM497,713.24a26,26,0,0,1-.16-2.92h.87a26.84,26.84,0,0,0,.16,2.83Zm53.81-.11-.87-.09a26.26,26.26,0,0,0,.15-2.8v-.13h.43l.44.08A28.22,28.22,0,0,1,550.8,713.13Zm-53-5.64-.87-.1a28.51,28.51,0,0,1,.47-2.89l.85.19A26.33,26.33,0,0,0,497.84,707.49Zm52.07-.21a23.54,23.54,0,0,0-.47-2.79l.86-.19a27.46,27.46,0,0,1,.48,2.88ZM499,702l-.83-.27a27.64,27.64,0,0,1,1.08-2.73l.79.37A28.16,28.16,0,0,0,499,702Zm49.64-.19a25.88,25.88,0,0,0-1.07-2.63l.79-.37a24.55,24.55,0,0,1,1.1,2.72Zm-47.28-5-.75-.45a25.2,25.2,0,0,1,1.64-2.43l.7.53A26.89,26.89,0,0,0,501.4,696.81Zm44.87-.17a24.2,24.2,0,0,0-1.6-2.34l.69-.53a27.19,27.19,0,0,1,1.66,2.41Zm-41.45-4.35-.64-.6a28.9,28.9,0,0,1,2.12-2l.57.67A25.23,25.23,0,0,0,504.82,692.29Zm38-.14a27,27,0,0,0-2.06-1.94l.56-.67a26.92,26.92,0,0,1,2.13,2Zm-33.71-3.54-.49-.72a26.42,26.42,0,0,1,2.5-1.52l.41.77A26,26,0,0,0,509.11,688.61Zm29.38-.11a24,24,0,0,0-2.43-1.45l.41-.78a29.17,29.17,0,0,1,2.51,1.5Zm-24.39-2.56-.32-.81a26.59,26.59,0,0,1,2.77-1l.24.84A27.48,27.48,0,0,0,514.1,685.94Zm19.38-.07a25,25,0,0,0-2.69-.9l.23-.84a29.18,29.18,0,0,1,2.78.92Zm-13.93-1.46-.14-.87a25.39,25.39,0,0,1,2.91-.32l0,.87A26.74,26.74,0,0,0,519.55,684.41Zm8.47,0a26.42,26.42,0,0,0-2.82-.3l0-.87a28.4,28.4,0,0,1,2.91.3Z"/><path class="cls-42" d="M291.8,711a24.63,24.63,0,1,1-24.63-24.63A24.62,24.62,0,0,1,291.8,711"/><path class="cls-53" d="M276.36,726.45a9.19,9.19,0,1,1-9.19-9.19,9.18,9.18,0,0,1,9.19,9.19"/><path class="cls-29" d="M267.17,736.08c-.48,0-1,0-1.44,0l0-.87a26.9,26.9,0,0,0,2.84,0l0,.87C268.17,736.07,267.67,736.08,267.17,736.08Zm-4.35-.35a25.57,25.57,0,0,1-2.86-.62l.24-.84a25.57,25.57,0,0,0,2.76.6Zm8.76,0-.15-.86a25.26,25.26,0,0,0,2.77-.61l.23.85A24.93,24.93,0,0,1,271.58,735.72Zm-14.4-1.54a29.09,29.09,0,0,1-2.66-1.23l.41-.77a24,24,0,0,0,2.58,1.18Zm20,0-.32-.81a26,26,0,0,0,2.57-1.2l.41.77A26.72,26.72,0,0,1,277.21,734.16ZM252,731.44a28,28,0,0,1-2.33-1.77l.56-.67c.73.61,1.49,1.19,2.26,1.72Zm30.36,0-.49-.72a26.91,26.91,0,0,0,2.26-1.72l.56.67A26.93,26.93,0,0,1,282.37,731.41Zm-34.82-3.75a28.68,28.68,0,0,1-1.9-2.23l.7-.53a23.46,23.46,0,0,0,1.84,2.15Zm39.28,0-.64-.6a25,25,0,0,0,1.84-2.16l.7.53A28.68,28.68,0,0,1,286.83,727.62ZM244,723c-.5-.84-1-1.7-1.38-2.59l.8-.36a25,25,0,0,0,1.33,2.5Zm46.37,0-.75-.45A26.15,26.15,0,0,0,291,720l.79.37A29.14,29.14,0,0,1,290.37,723Zm-48.84-5.26a27.54,27.54,0,0,1-.78-2.83l.85-.19a25.84,25.84,0,0,0,.76,2.74Zm51.3-.05-.83-.28c.3-.9.55-1.81.76-2.74l.85.19A28.26,28.26,0,0,1,292.83,717.66ZM240.27,712a25.72,25.72,0,0,1-.16-2.92H241a26.69,26.69,0,0,0,.16,2.83Zm53.81,0-.87-.09a26.83,26.83,0,0,0,.15-2.83l.88-.11V709A28.57,28.57,0,0,1,294.08,711.94Zm-52.95-5.7-.87-.09a28,28,0,0,1,.46-2.89l.86.18A26.33,26.33,0,0,0,241.13,706.24Zm52.07-.16a24.25,24.25,0,0,0-.47-2.79l.86-.19a28.09,28.09,0,0,1,.48,2.89Zm-50.87-5.37-.83-.28a25.65,25.65,0,0,1,1.08-2.72l.79.36A26.31,26.31,0,0,0,242.33,700.71Zm49.64-.15c-.31-.9-.67-1.78-1.06-2.63l.79-.37a25.71,25.71,0,0,1,1.09,2.72Zm-47.27-5-.75-.44a25.2,25.2,0,0,1,1.64-2.43l.7.53A26,26,0,0,0,244.7,695.56Zm44.87-.13c-.49-.8-1-1.59-1.6-2.34l.69-.53c.59.78,1.15,1.59,1.66,2.42Zm-41.45-4.38-.64-.6a29,29,0,0,1,2.12-2l.57.67A25.23,25.23,0,0,0,248.12,691.05Zm38-.11a27,27,0,0,0-2.07-1.94l.56-.67a28.93,28.93,0,0,1,2.14,2Zm-33.71-3.57-.49-.72a26.42,26.42,0,0,1,2.5-1.52l.41.78A25.9,25.9,0,0,0,252.42,687.37Zm29.38-.08a26.05,26.05,0,0,0-2.43-1.46l.4-.77a27.88,27.88,0,0,1,2.52,1.5Zm-24.39-2.58-.33-.81a27.6,27.6,0,0,1,2.78-.95l.24.85A25,25,0,0,0,257.41,684.71Zm19.38-.06a25,25,0,0,0-2.69-.9l.23-.84a26.66,26.66,0,0,1,2.78.93Zm-13.93-1.47-.14-.86a25.89,25.89,0,0,1,2.91-.32l.05.87A26.72,26.72,0,0,0,262.86,683.18Zm8.47,0a26.69,26.69,0,0,0-2.82-.3l.05-.87a28.4,28.4,0,0,1,2.91.3Z"/><text class="cls-38" transform="matrix(1, 0, 0, 1, 247.64, 930.13)">Haiti</text><text class="cls-33" transform="matrix(1, 0, 0, 1, 144.9, 957.67)">6 times La Visite National Park</text><text class="cls-38" transform="matrix(1, 0, 0, 1, 500.97, 930.12)">Spain</text><text class="cls-33" transform="matrix(1, 0, 0, 1, 442.81, 957.8)">Cabrera archipelago</text><text class="cls-60" transform="translate(522.24 884.22)"> </text><path class="cls-42" d="M273.71,889.51a6.54,6.54,0,1,1-6.54-6.54,6.54,6.54,0,0,1,6.54,6.54"/><path class="cls-53" d="M273.29,889.92a6.12,6.12,0,1,1-6.12-6.12,6.12,6.12,0,0,1,6.12,6.12"/><path class="cls-42" d="M529.77,890.11a5.88,5.88,0,1,1-5.88-5.87,5.88,5.88,0,0,1,5.88,5.87"/><path class="cls-53" d="M528.2,891.58a4.31,4.31,0,1,1-4.31-4.31,4.3,4.3,0,0,1,4.31,4.31"/><path class="cls-29" d="M267.17,896.52c-.48,0-1,0-1.43,0l0-.87a26.9,26.9,0,0,0,2.84,0l0,.88C268.17,896.5,267.68,896.52,267.17,896.52Zm-4.35-.35a28.06,28.06,0,0,1-2.86-.63l.24-.84a25.57,25.57,0,0,0,2.76.6Zm8.76,0-.15-.86a27.81,27.81,0,0,0,2.77-.61l.24.84A28.06,28.06,0,0,1,271.58,896.16Zm-14.4-1.55a26.64,26.64,0,0,1-2.66-1.23l.41-.77a27.34,27.34,0,0,0,2.58,1.19Zm20,0-.32-.81a27.17,27.17,0,0,0,2.57-1.19l.41.77A26.64,26.64,0,0,1,277.21,894.59ZM252,891.88a28.15,28.15,0,0,1-2.33-1.78l.57-.66a26.14,26.14,0,0,0,2.25,1.71Zm30.37,0-.5-.73a26.79,26.79,0,0,0,2.26-1.71l.56.66A28.52,28.52,0,0,1,282.38,891.85Zm-34.83-3.76a25.39,25.39,0,0,1-1.9-2.23l.7-.53a25.27,25.27,0,0,0,1.84,2.16Zm39.28,0-.64-.6a25.13,25.13,0,0,0,1.84-2.17l.7.53A28.83,28.83,0,0,1,286.83,888.06ZM244,883.44c-.5-.83-1-1.7-1.38-2.58l.8-.37a23.94,23.94,0,0,0,1.33,2.5Zm46.37,0-.75-.45a26,26,0,0,0,1.33-2.5l.79.36A26.61,26.61,0,0,1,290.37,883.4Zm-48.84-5.26a27.36,27.36,0,0,1-.78-2.82l.85-.19a25.66,25.66,0,0,0,.76,2.73Zm51.3,0-.83-.28a28.27,28.27,0,0,0,.76-2.73l.85.19A27.36,27.36,0,0,1,292.83,878.09Zm-52.56-5.66a25.85,25.85,0,0,1-.16-2.92H241a26.84,26.84,0,0,0,.16,2.83Zm53.81,0-.87-.1a26.83,26.83,0,0,0,.15-2.83l.88-.11v.11A28.76,28.76,0,0,1,294.08,872.38Zm-52.95-5.71-.87-.09a28.92,28.92,0,0,1,.46-2.89l.86.19A26.56,26.56,0,0,0,241.13,866.67Zm52.07-.15a24.06,24.06,0,0,0-.47-2.8l.86-.19a28.09,28.09,0,0,1,.48,2.89Zm-50.87-5.38-.83-.27a25.82,25.82,0,0,1,1.08-2.73l.79.37A26.14,26.14,0,0,0,242.33,861.14ZM292,861c-.31-.89-.67-1.78-1.06-2.63l.79-.37a26.59,26.59,0,0,1,1.09,2.72Zm-47.27-5-.75-.45a28,28,0,0,1,1.64-2.43l.7.53A24.83,24.83,0,0,0,244.7,856Zm44.87-.13a26.83,26.83,0,0,0-1.6-2.34l.69-.53a26.31,26.31,0,0,1,1.65,2.41Zm-41.45-4.38-.64-.6a29,29,0,0,1,2.12-2l.57.66A27.2,27.2,0,0,0,248.12,851.49Zm38-.11c-.66-.69-1.36-1.34-2.07-2l.56-.66a26.82,26.82,0,0,1,2.14,2Zm-33.71-3.57-.49-.72a26.42,26.42,0,0,1,2.5-1.52l.41.77C254,846.79,253.2,847.28,252.42,847.81Zm29.38-.09c-.79-.52-1.6-1-2.43-1.45l.4-.78a28,28,0,0,1,2.52,1.51Zm-24.39-2.58-.33-.81a27.53,27.53,0,0,1,2.78-.94l.23.84A28.16,28.16,0,0,0,257.41,845.14Zm19.38,0a25.72,25.72,0,0,0-2.69-.9l.23-.84a24.45,24.45,0,0,1,2.78.92Zm-13.93-1.47-.14-.87a28.45,28.45,0,0,1,2.91-.32l0,.87A26.85,26.85,0,0,0,262.86,843.62Zm8.47,0a24.05,24.05,0,0,0-2.82-.29l0-.88a27.84,27.84,0,0,1,2.91.31Z"/><path class="cls-29" d="M523.89,896.38c-.48,0-1,0-1.44,0l0-.87a26.72,26.72,0,0,0,2.83,0l0,.87C524.89,896.37,524.39,896.38,523.89,896.38Zm-4.35-.35a25.57,25.57,0,0,1-2.86-.62l.23-.84a26.28,26.28,0,0,0,2.77.6Zm8.75,0-.14-.86a26.32,26.32,0,0,0,2.77-.61l.23.84A24.66,24.66,0,0,1,528.29,896Zm-14.39-1.54a25.64,25.64,0,0,1-2.66-1.23l.41-.77a27.17,27.17,0,0,0,2.57,1.19Zm20,0-.33-.81a26.13,26.13,0,0,0,2.57-1.2l.41.77A26.56,26.56,0,0,1,533.93,894.46Zm-25.2-2.72A26.46,26.46,0,0,1,506.4,890l.56-.67a26.91,26.91,0,0,0,2.26,1.72Zm30.36,0-.49-.72a25.23,25.23,0,0,0,2.25-1.72l.57.67A28.56,28.56,0,0,1,539.09,891.71ZM504.27,888a28.68,28.68,0,0,1-1.9-2.23l.69-.53a25.13,25.13,0,0,0,1.84,2.15Zm39.27,0-.63-.6a26.47,26.47,0,0,0,1.83-2.16l.7.53A26.65,26.65,0,0,1,543.54,887.92Zm-42.82-4.61a26.83,26.83,0,0,1-1.38-2.59l.79-.36a27.32,27.32,0,0,0,1.34,2.5Zm46.36,0-.74-.46a27.07,27.07,0,0,0,1.33-2.5l.79.37A26.83,26.83,0,0,1,547.08,883.27ZM498.25,878a27.59,27.59,0,0,1-.79-2.83l.86-.19a25,25,0,0,0,.76,2.73Zm51.29,0-.82-.28a26.46,26.46,0,0,0,.75-2.74l.86.19A28.32,28.32,0,0,1,549.54,878ZM497,872.29a25.72,25.72,0,0,1-.16-2.92h.87a24.28,24.28,0,0,0,.16,2.83Zm53.81,0-.87-.09a26.83,26.83,0,0,0,.15-2.83l.87-.11v.11A28.55,28.55,0,0,1,550.8,872.24Zm-52.95-5.7-.88-.09a28.06,28.06,0,0,1,.47-2.89l.85.18A24,24,0,0,0,497.85,866.54Zm52.07-.16a26.63,26.63,0,0,0-.47-2.79l.85-.2a24.19,24.19,0,0,1,.48,2.89ZM499,861l-.82-.28a26.63,26.63,0,0,1,1.07-2.73l.8.37A26.37,26.37,0,0,0,499,861Zm49.64-.15a24.07,24.07,0,0,0-1.06-2.63l.79-.37a26.49,26.49,0,0,1,1.1,2.71Zm-47.27-5-.75-.45a25.3,25.3,0,0,1,1.65-2.43l.69.53A26.89,26.89,0,0,0,501.41,855.87Zm44.87-.14a24.2,24.2,0,0,0-1.6-2.34l.7-.53a26.46,26.46,0,0,1,1.65,2.42Zm-41.45-4.38-.64-.6a29.15,29.15,0,0,1,2.13-2l.56.67A25.23,25.23,0,0,0,504.83,851.35Zm38-.11a26.88,26.88,0,0,0-2.06-1.94l.56-.67a25.21,25.21,0,0,1,2.13,2Zm-33.71-3.57-.49-.72a26.58,26.58,0,0,1,2.51-1.52l.41.78A26.05,26.05,0,0,0,509.13,847.67Zm29.38-.08a26.05,26.05,0,0,0-2.43-1.46l.41-.77a27.72,27.72,0,0,1,2.51,1.5ZM514.13,845l-.33-.81a27.42,27.42,0,0,1,2.77-1l.24.84A27.3,27.3,0,0,0,514.13,845Zm19.38-.06a25.72,25.72,0,0,0-2.69-.9l.23-.84a27.47,27.47,0,0,1,2.78.93Zm-13.94-1.47-.14-.86a25.89,25.89,0,0,1,2.91-.32l0,.87A26.72,26.72,0,0,0,519.57,843.48Zm8.47,0a26.51,26.51,0,0,0-2.81-.3l0-.87a28.4,28.4,0,0,1,2.91.3Z"/><text class="cls-38" transform="matrix(1, 0, 0, 1, 217.81, 1412.66)">South Afri<tspan class="cls-61" x="80.32" y="0">c</tspan><tspan x="88.63" y="0">a</tspan></text><text class="cls-33" transform="matrix(1, 0, 0, 1, 212.34, 1438.75)">Karloof forest</text><text class="cls-38" transform="matrix(1, 0, 0, 1, 490.17, 1412.71)">Ethiopia</text><text class="cls-33" transform="matrix(1, 0, 0, 1, 399.98, 1438.53)">Simie Mountains National Park</text><path class="cls-53" d="M273.65,1370.83a6.48,6.48,0,1,1-6.48-6.48,6.48,6.48,0,0,1,6.48,6.48"/><path class="cls-53" d="M273.65,1370.83a6.48,6.48,0,1,1-6.48-6.48,6.48,6.48,0,0,1,6.48,6.48"/><path class="cls-62" d="M534.67,1366.36a10.79,10.79,0,1,1-10.78-10.78,10.79,10.79,0,0,1,10.78,10.78"/><path class="cls-53" d="M530.91,1370.13a7,7,0,1,1-7-7,7,7,0,0,1,7,7"/><path class="cls-29" d="M267.17,1377.51c-.48,0-1,0-1.44,0l0-.87a26.9,26.9,0,0,0,2.84,0l0,.87C268.17,1377.5,267.67,1377.51,267.17,1377.51Zm-4.35-.35a25.57,25.57,0,0,1-2.86-.62l.23-.84a26.28,26.28,0,0,0,2.77.6Zm8.76,0-.15-.86a25.78,25.78,0,0,0,2.77-.61l.23.84A25,25,0,0,1,271.58,1377.15Zm-14.4-1.54a29.09,29.09,0,0,1-2.66-1.23l.41-.77a24,24,0,0,0,2.58,1.18Zm20,0-.32-.81c.87-.35,1.73-.76,2.57-1.2l.41.77A26.72,26.72,0,0,1,277.21,1375.59Zm-25.2-2.72a28.56,28.56,0,0,1-2.33-1.77l.56-.67a26.28,26.28,0,0,0,2.26,1.71Zm30.36,0-.49-.72a26.91,26.91,0,0,0,2.26-1.72l.56.67A26.93,26.93,0,0,1,282.37,1372.84Zm-34.82-3.75a28.68,28.68,0,0,1-1.9-2.23l.7-.53a26.77,26.77,0,0,0,1.84,2.15Zm39.28,0-.64-.6c.65-.69,1.27-1.42,1.84-2.16l.7.53A28.68,28.68,0,0,1,286.83,1369.05ZM244,1364.44c-.5-.84-1-1.71-1.38-2.59l.8-.37a23,23,0,0,0,1.33,2.5Zm46.37,0-.75-.46a27.07,27.07,0,0,0,1.33-2.5l.79.37A29.14,29.14,0,0,1,290.37,1364.4Zm-48.84-5.27a27.36,27.36,0,0,1-.78-2.82l.85-.19a25.66,25.66,0,0,0,.76,2.73Zm51.3,0-.83-.28c.3-.9.55-1.82.76-2.74l.85.19A28.26,28.26,0,0,1,292.83,1359.09Zm-52.56-5.67a28.26,28.26,0,0,1-.16-2.92H241c0,.94.06,1.89.16,2.83Zm53.81-.05-.87-.09a26.83,26.83,0,0,0,.15-2.83l.6-.08.28.06A28.65,28.65,0,0,1,294.08,1353.37Zm-52.95-5.7-.87-.09a28.66,28.66,0,0,1,.46-2.9l.86.19A26.33,26.33,0,0,0,241.13,1347.67Zm52.07-.16a24.25,24.25,0,0,0-.47-2.79l.86-.19a28.09,28.09,0,0,1,.48,2.89Zm-50.87-5.37-.83-.28a25.82,25.82,0,0,1,1.08-2.73l.79.37A26.31,26.31,0,0,0,242.33,1342.14ZM292,1342c-.31-.9-.67-1.78-1.06-2.63l.79-.37a28.1,28.1,0,0,1,1.1,2.72Zm-47.27-5-.75-.45a26.36,26.36,0,0,1,1.64-2.42l.7.53A26,26,0,0,0,244.7,1337Zm44.87-.13c-.49-.8-1-1.58-1.6-2.34l.69-.53a28,28,0,0,1,1.66,2.42Zm-41.45-4.38-.64-.6a29,29,0,0,1,2.12-2l.57.67A25.23,25.23,0,0,0,248.12,1332.48Zm38-.11a27,27,0,0,0-2.07-1.94l.56-.67a28.93,28.93,0,0,1,2.14,2Zm-33.71-3.57-.49-.72a26.42,26.42,0,0,1,2.5-1.52l.42.77A27,27,0,0,0,252.42,1328.8Zm29.38-.08a26.05,26.05,0,0,0-2.43-1.46l.4-.77a27.88,27.88,0,0,1,2.52,1.5Zm-24.39-2.58-.33-.81a27.6,27.6,0,0,1,2.78-.95l.23.85A25.61,25.61,0,0,0,257.41,1326.14Zm19.38-.06a25,25,0,0,0-2.69-.9l.23-.84a26.66,26.66,0,0,1,2.78.93Zm-13.93-1.47-.14-.86a25.89,25.89,0,0,1,2.91-.32l.05.87A26.72,26.72,0,0,0,262.86,1324.61Zm8.47,0a26.69,26.69,0,0,0-2.82-.3l.05-.87a28.4,28.4,0,0,1,2.91.3Z"/><path class="cls-29" d="M523.89,1377.58l-1.44,0,0-.88a26.72,26.72,0,0,0,2.83,0l0,.87C524.89,1377.57,524.39,1377.58,523.89,1377.58Zm-4.35-.34a28.06,28.06,0,0,1-2.86-.63l.23-.84a26.28,26.28,0,0,0,2.77.6Zm8.75,0-.14-.87a26.28,26.28,0,0,0,2.77-.6l.23.84A26.92,26.92,0,0,1,528.29,1377.23Zm-14.39-1.55a25.64,25.64,0,0,1-2.66-1.23l.41-.77a27.17,27.17,0,0,0,2.57,1.19Zm20,0-.33-.81a26.06,26.06,0,0,0,2.57-1.19l.41.77A28.91,28.91,0,0,1,533.93,1375.66Zm-25.2-2.72a26.46,26.46,0,0,1-2.33-1.77l.56-.67a24.93,24.93,0,0,0,2.26,1.72Zm30.36,0-.49-.72a26.76,26.76,0,0,0,2.25-1.72l.57.67A26.46,26.46,0,0,1,539.09,1372.91Zm-34.82-3.75a28.68,28.68,0,0,1-1.9-2.23l.69-.53a26.91,26.91,0,0,0,1.84,2.16Zm39.28,0-.64-.6a26.91,26.91,0,0,0,1.84-2.16l.69.53A26.53,26.53,0,0,1,543.55,1369.12Zm-42.83-4.61a25.55,25.55,0,0,1-1.38-2.58l.79-.37a27.32,27.32,0,0,0,1.34,2.5Zm46.36,0-.74-.45c.48-.81.93-1.65,1.33-2.51l.79.37A25.71,25.71,0,0,1,547.08,1364.47Zm-48.83-5.26a27.41,27.41,0,0,1-.79-2.82l.86-.19a25.66,25.66,0,0,0,.76,2.73Zm51.29,0-.82-.28a25.62,25.62,0,0,0,.75-2.73l.86.18A26.9,26.9,0,0,1,549.54,1359.16ZM497,1353.5a26,26,0,0,1-.16-2.93h.87a24.16,24.16,0,0,0,.16,2.83Zm53.81-.06-.87-.09a26.83,26.83,0,0,0,.15-2.83l.87-.11v.11A28.55,28.55,0,0,1,550.8,1353.44Zm-52.95-5.7-.88-.09a28.06,28.06,0,0,1,.47-2.89l.85.18A24.66,24.66,0,0,0,497.85,1347.74Zm52.07-.16a26.63,26.63,0,0,0-.47-2.79l.85-.19a23.54,23.54,0,0,1,.48,2.89Zm-50.87-5.37-.83-.28a25.65,25.65,0,0,1,1.08-2.72l.79.36A27.29,27.29,0,0,0,499.05,1342.21Zm49.63-.15a24.91,24.91,0,0,0-1.06-2.63l.79-.37a25.77,25.77,0,0,1,1.1,2.72Zm-47.27-5-.75-.45a26.61,26.61,0,0,1,1.65-2.43l.69.53A26.89,26.89,0,0,0,501.41,1337.07Zm44.87-.14a22.9,22.9,0,0,0-1.6-2.33l.7-.54a27.91,27.91,0,0,1,1.65,2.42Zm-41.45-4.38-.63-.6a27.11,27.11,0,0,1,2.12-2l.57.67A25.45,25.45,0,0,0,504.83,1332.55Zm38-.11a26.88,26.88,0,0,0-2.06-1.94l.56-.67a26.93,26.93,0,0,1,2.13,2Zm-33.71-3.56-.49-.73a28.77,28.77,0,0,1,2.51-1.51l.41.77A26.15,26.15,0,0,0,509.13,1328.88Zm29.38-.09a26.05,26.05,0,0,0-2.43-1.46l.41-.77a25.68,25.68,0,0,1,2.51,1.51Zm-24.38-2.58-.33-.81a27.36,27.36,0,0,1,2.77-.94l.24.84A24.85,24.85,0,0,0,514.13,1326.21Zm19.38-.06a25.66,25.66,0,0,0-2.69-.89l.23-.85a27.47,27.47,0,0,1,2.78.93Zm-13.94-1.47-.14-.86a25.89,25.89,0,0,1,2.91-.32l0,.87A26.72,26.72,0,0,0,519.57,1324.68Zm8.48,0a26.69,26.69,0,0,0-2.82-.3l0-.87a28.4,28.4,0,0,1,2.91.3Z"/><text class="cls-38" transform="matrix(1, 0, 0, 1, 225.89, 1089.09)">Came<tspan class="cls-63" x="44.96" y="0">r</tspan><tspan x="51.57" y="0">oon</tspan></text><text class="cls-33" transform="matrix(1, 0, 0, 1, 237.19, 1117.99)">Yaoude</text><text class="cls-64" transform="matrix(1, 0, 0, 1, 487.65, 1089.1)">A<tspan class="cls-65" x="10.19" y="0">ustralia</tspan></text><text class="cls-33" transform="matrix(1, 0, 0, 1, 409.09, 1117.71)">2 times Barool National Park</text><text class="cls-59" transform="matrix(1, 0, 0, 1, 521.36, 1084.09)"> </text><path class="cls-62" d="M274.33,1048.36a7.16,7.16,0,1,1-7.16-7.15,7.16,7.16,0,0,1,7.16,7.15"/><path class="cls-53" d="M274,1048.63a6.86,6.86,0,1,1-6.86-6.86,6.86,6.86,0,0,1,6.86,6.86"/><path class="cls-42" d="M530.9,1049a7,7,0,1,1-7-7,7,7,0,0,1,7,7"/><path class="cls-53" d="M529.46,1050.45a5.57,5.57,0,1,1-5.57-5.57,5.57,5.57,0,0,1,5.57,5.57"/><text class="cls-66" transform="translate(770.77 955.39)"> </text><text class="cls-38" transform="matrix(1, 0, 0, 1, 754.06, 471.8)">Peru</text><text class="cls-37" transform="matrix(1, 0, 0, 1, 689.93, 500.45)">2 times Nacional de <tspan x="-13.95" y="21.6">Tumbes natural reserve</tspan></text><path class="cls-53" d="M787.55,427.92a14.8,14.8,0,1,1-14.8-14.8,14.8,14.8,0,0,1,14.8,14.8"/><path class="cls-29" d="M772.75,443.16c-.48,0-1,0-1.44,0l.05-.87a26.72,26.72,0,0,0,2.83,0l0,.88C773.74,443.14,773.25,443.16,772.75,443.16Zm-4.35-.35c-1-.16-1.92-.37-2.86-.62l.23-.85a26.32,26.32,0,0,0,2.77.61Zm8.75,0-.14-.86c.93-.16,1.86-.36,2.77-.61l.23.84A27.48,27.48,0,0,1,777.15,442.8Zm-14.39-1.55A25.64,25.64,0,0,1,760.1,440l.41-.77a27.17,27.17,0,0,0,2.57,1.19Zm20,0-.32-.81a27.17,27.17,0,0,0,2.57-1.19l.41.77A25.64,25.64,0,0,1,782.78,441.23Zm-25.19-2.71a26.71,26.71,0,0,1-2.34-1.78l.57-.66a24.82,24.82,0,0,0,2.26,1.71Zm30.36,0-.49-.73a26.64,26.64,0,0,0,2.25-1.71l.57.66A28.68,28.68,0,0,1,788,438.49Zm-34.83-3.76a25.39,25.39,0,0,1-1.9-2.23l.7-.53a25.27,25.27,0,0,0,1.84,2.16Zm39.28,0-.63-.6a25,25,0,0,0,1.83-2.17l.7.53A26.79,26.79,0,0,1,792.4,434.7Zm-42.82-4.62a25.55,25.55,0,0,1-1.38-2.58l.79-.37c.4.85.85,1.7,1.33,2.5Zm46.36,0-.75-.45a25,25,0,0,0,1.33-2.5l.8.36A24.67,24.67,0,0,1,795.94,430Zm-48.83-5.26a27.41,27.41,0,0,1-.79-2.82l.86-.19a25.66,25.66,0,0,0,.76,2.73Zm51.29,0-.83-.28a25.66,25.66,0,0,0,.76-2.73l.85.19A25,25,0,0,1,798.4,424.73Zm-52.55-5.66a25.85,25.85,0,0,1-.17-2.92h.88a26.83,26.83,0,0,0,.15,2.83Zm53.8-.05-.86-.1a26.83,26.83,0,0,0,.15-2.83l.87-.11v.11A26.15,26.15,0,0,1,799.65,419Zm-52.95-5.7-.87-.1a29,29,0,0,1,.47-2.89l.85.19A26.33,26.33,0,0,0,746.7,413.32Zm52.07-.16a26.35,26.35,0,0,0-.46-2.8l.85-.19a25.61,25.61,0,0,1,.48,2.89Zm-50.87-5.38-.83-.27a28.16,28.16,0,0,1,1.08-2.73l.8.37A24.84,24.84,0,0,0,747.9,407.78Zm49.64-.15a27.25,27.25,0,0,0-1.06-2.63l.79-.37a29.17,29.17,0,0,1,1.1,2.72Zm-47.27-5-.75-.45a28,28,0,0,1,1.64-2.43l.7.53A26.89,26.89,0,0,0,750.27,402.64Zm44.87-.13a26.83,26.83,0,0,0-1.6-2.34l.69-.53a26.41,26.41,0,0,1,1.66,2.41Zm-41.45-4.38-.64-.6a25.42,25.42,0,0,1,2.13-2l.56.66A27.2,27.2,0,0,0,753.69,398.13Zm38-.11a27.15,27.15,0,0,0-2.07-1.95l.57-.66a26.69,26.69,0,0,1,2.13,2ZM758,394.45l-.49-.72a26.58,26.58,0,0,1,2.51-1.52l.41.77C759.59,393.43,758.77,393.92,758,394.45Zm29.38-.09c-.78-.52-1.6-1-2.43-1.45l.41-.77a26.82,26.82,0,0,1,2.51,1.5ZM763,391.78l-.32-.81a26.54,26.54,0,0,1,2.77-.94l.24.84A28.35,28.35,0,0,0,763,391.78Zm19.38,0a25,25,0,0,0-2.69-.9l.24-.84a25.13,25.13,0,0,1,2.78.92Zm-13.93-1.47-.14-.87c1-.15,1.94-.26,2.91-.32l0,.88A24.31,24.31,0,0,0,768.43,390.26Zm8.47,0a23.83,23.83,0,0,0-2.82-.29l0-.88a27.84,27.84,0,0,1,2.91.31Z"/><text class="cls-38" transform="matrix(1, 0, 0, 1, 749.78, 615.82)">Brazil</text><text class="cls-37" transform="matrix(1, 0, 0, 1, 759.49, 639.54)">Rio</text><path class="cls-42" d="M786.86,581.19a14.12,14.12,0,1,1-14.11-14.11,14.12,14.12,0,0,1,14.11,14.11"/><path class="cls-53" d="M776.9,591.16a4.15,4.15,0,1,1-4.15-4.15,4.15,4.15,0,0,1,4.15,4.15"/><path class="cls-29" d="M772.75,595.75c-.48,0-1,0-1.44,0l0-.87a26.89,26.89,0,0,0,2.84,0l0,.88C773.74,595.73,773.25,595.75,772.75,595.75Zm-4.35-.35a27.48,27.48,0,0,1-2.86-.63l.23-.84a26.32,26.32,0,0,0,2.77.61Zm8.75,0-.14-.86a28.24,28.24,0,0,0,2.76-.61l.24.84A28.06,28.06,0,0,1,777.15,595.39Zm-14.39-1.55a25.64,25.64,0,0,1-2.66-1.23l.41-.77a26.06,26.06,0,0,0,2.57,1.19Zm20,0-.32-.81a27.17,27.17,0,0,0,2.57-1.19l.41.77A25.64,25.64,0,0,1,782.78,593.82Zm-25.19-2.71a26.71,26.71,0,0,1-2.34-1.78l.57-.66a24.82,24.82,0,0,0,2.26,1.71Zm30.36,0-.49-.73c.77-.53,1.53-1.1,2.25-1.71l.57.66A28.68,28.68,0,0,1,788,591.08Zm-34.83-3.76a25.39,25.39,0,0,1-1.9-2.23l.7-.53a25.27,25.27,0,0,0,1.84,2.16Zm39.28,0-.63-.6a25,25,0,0,0,1.83-2.17l.7.53A26.79,26.79,0,0,1,792.4,587.29Zm-42.83-4.62a27.65,27.65,0,0,1-1.37-2.58l.79-.37c.4.85.85,1.7,1.33,2.5Zm46.37,0-.75-.45a25,25,0,0,0,1.33-2.5l.8.36A26.69,26.69,0,0,1,795.94,582.63Zm-48.83-5.26a27.41,27.41,0,0,1-.79-2.82l.85-.19a25.71,25.71,0,0,0,.77,2.73Zm51.29,0-.83-.28a25.66,25.66,0,0,0,.76-2.73l.85.19A27.36,27.36,0,0,1,798.4,577.32Zm-52.55-5.66a28.42,28.42,0,0,1-.17-2.92h.88a26.83,26.83,0,0,0,.15,2.83Zm53.8,0-.86-.1c.09-.94.15-1.89.15-2.83l.87-.11v.11A26.15,26.15,0,0,1,799.65,571.61ZM746.7,565.9l-.87-.09a26.34,26.34,0,0,1,.47-2.89l.85.19A26.56,26.56,0,0,0,746.7,565.9Zm52.07-.15a26.35,26.35,0,0,0-.46-2.8l.85-.19a28.09,28.09,0,0,1,.48,2.89Zm-50.87-5.38-.83-.27a28.16,28.16,0,0,1,1.08-2.73l.8.37A24,24,0,0,0,747.9,560.37Zm49.64-.15a24.91,24.91,0,0,0-1.06-2.63l.79-.37a29.17,29.17,0,0,1,1.1,2.72Zm-47.27-5-.75-.45a28,28,0,0,1,1.64-2.43l.7.53A24.83,24.83,0,0,0,750.27,555.23Zm44.87-.13a26.83,26.83,0,0,0-1.6-2.34l.69-.53a26.41,26.41,0,0,1,1.66,2.41Zm-41.45-4.38-.64-.6c.67-.7,1.38-1.38,2.12-2l.57.66A27.2,27.2,0,0,0,753.69,550.72Zm38-.11a27.15,27.15,0,0,0-2.07-2l.57-.66a28.52,28.52,0,0,1,2.13,2ZM758,547l-.49-.72a26.42,26.42,0,0,1,2.5-1.52l.42.77A27,27,0,0,0,758,547Zm29.38-.09c-.78-.52-1.6-1-2.43-1.45l.41-.78a27.82,27.82,0,0,1,2.51,1.51ZM763,544.37l-.32-.81a26.54,26.54,0,0,1,2.77-.94l.24.84A28.35,28.35,0,0,0,763,544.37Zm19.38,0a25,25,0,0,0-2.69-.9l.23-.84a24.45,24.45,0,0,1,2.78.92Zm-13.93-1.47-.14-.87c1-.15,1.94-.26,2.91-.32l0,.88A24.31,24.31,0,0,0,768.43,542.85Zm8.47,0a23.83,23.83,0,0,0-2.82-.29l0-.88A28.13,28.13,0,0,1,777,542Z"/><text class="cls-38" transform="matrix(1, 0, 0, 1, 750.14, 1252.36)">Israel</text><text class="cls-33" transform="matrix(1, 0, 0, 1, 732.93, 1278.26)">Jerusalem</text><path class="cls-42" d="M777,1212.51a3.93,3.93,0,1,1-3.93-3.93,3.93,3.93,0,0,1,3.93,3.93"/><path class="cls-53" d="M776.2,1213.26a3.18,3.18,0,1,1-3.18-3.18,3.18,3.18,0,0,1,3.18,3.18"/><path class="cls-29" d="M773,1216.88c-.49,0-1,0-1.44,0l0-.87a26.9,26.9,0,0,0,2.84,0l0,.87C774,1216.87,773.52,1216.88,773,1216.88Zm-4.35-.35a25.09,25.09,0,0,1-2.86-.62l.23-.84a26.28,26.28,0,0,0,2.77.6Zm8.75,0-.14-.86a25.6,25.6,0,0,0,2.76-.61l.24.85A28,28,0,0,1,777.42,1216.52ZM763,1215a25.64,25.64,0,0,1-2.66-1.23l.41-.77a26.06,26.06,0,0,0,2.57,1.19Zm20,0-.32-.81a27.25,27.25,0,0,0,2.57-1.2l.41.77A25.71,25.71,0,0,1,783.05,1215Zm-25.19-2.72a26.6,26.6,0,0,1-2.34-1.77l.57-.67a26.91,26.91,0,0,0,2.26,1.72Zm30.36,0-.5-.72a26.91,26.91,0,0,0,2.26-1.72l.57.67A28.56,28.56,0,0,1,788.22,1212.21Zm-34.83-3.75a28.68,28.68,0,0,1-1.9-2.23l.7-.53a26.91,26.91,0,0,0,1.84,2.16Zm39.28,0-.63-.6a26.47,26.47,0,0,0,1.83-2.16l.7.53A26.65,26.65,0,0,1,792.67,1208.42Zm-42.83-4.61a27.65,27.65,0,0,1-1.37-2.58l.79-.37a27.23,27.23,0,0,0,1.33,2.5Zm46.37,0-.75-.46a23,23,0,0,0,1.33-2.5l.8.37A29.24,29.24,0,0,1,796.21,1203.77Zm-48.83-5.26a27.41,27.41,0,0,1-.79-2.82l.86-.19a23.5,23.5,0,0,0,.76,2.73Zm51.29,0-.83-.28a25.84,25.84,0,0,0,.76-2.74l.85.19A28.26,28.26,0,0,1,798.67,1198.46Zm-52.56-5.66a28.61,28.61,0,0,1-.16-2.93h.88a26.69,26.69,0,0,0,.15,2.83Zm53.81-.06-.87-.09a26.84,26.84,0,0,0,.16-2.83v-.11h.87v.11A26,26,0,0,1,799.92,1192.74ZM747,1187l-.87-.09a25.59,25.59,0,0,1,.47-2.89l.85.18A26.74,26.74,0,0,0,747,1187Zm52.07-.16a27.22,27.22,0,0,0-.46-2.8l.85-.19a29,29,0,0,1,.48,2.89Zm-50.87-5.37-.83-.28a28,28,0,0,1,1.08-2.72l.8.36A24.17,24.17,0,0,0,748.17,1181.51Zm49.64-.15a26.25,26.25,0,0,0-1.06-2.63l.79-.37a29,29,0,0,1,1.1,2.71Zm-47.27-5-.75-.45a26.51,26.51,0,0,1,1.64-2.43l.7.53A26.89,26.89,0,0,0,750.54,1176.37Zm44.87-.14c-.49-.8-1-1.59-1.6-2.34l.69-.53a28.75,28.75,0,0,1,1.66,2.42ZM754,1171.85l-.64-.6c.67-.7,1.38-1.38,2.12-2l.57.67A25.23,25.23,0,0,0,754,1171.85Zm38-.11a25.16,25.16,0,0,0-2.07-1.94l.57-.67a28.67,28.67,0,0,1,2.13,2Zm-33.71-3.56-.49-.73a28.69,28.69,0,0,1,2.5-1.52l.42.78A24.9,24.9,0,0,0,758.26,1168.18Zm29.38-.09a26.05,26.05,0,0,0-2.43-1.46l.4-.77a27.88,27.88,0,0,1,2.52,1.5Zm-24.39-2.58-.32-.81a26.59,26.59,0,0,1,2.77-1l.23.85A25.61,25.61,0,0,0,763.25,1165.51Zm19.38-.06a25,25,0,0,0-2.69-.9l.23-.84a26.66,26.66,0,0,1,2.78.93ZM768.7,1164l-.14-.86a25.89,25.89,0,0,1,2.91-.32l0,.87A26.72,26.72,0,0,0,768.7,1164Zm8.47,0a26.14,26.14,0,0,0-2.82-.3l0-.87a28.12,28.12,0,0,1,2.91.3Z"/><text class="cls-38" transform="matrix(1, 0, 0, 1, 750.02, 768.9)">China</text><text class="cls-33" transform="matrix(1, 0, 0, 1, 705.85, 794.81)">Jiuzhaigou valley</text><path class="cls-42" d="M782.53,726.18a8.55,8.55,0,1,1-8.54-8.55,8.54,8.54,0,0,1,8.54,8.55"/><path class="cls-53" d="M781.8,726.91A7.82,7.82,0,1,1,774,719.1a7.82,7.82,0,0,1,7.81,7.81"/><path class="cls-29" d="M773.05,735.08c-.52,0-1,0-1.47,0l0-.87,1.43,0c.47,0,.94,0,1.41,0l0,.87C774,735.07,773.54,735.08,773.05,735.08Zm-4.38-.35a25.09,25.09,0,0,1-2.86-.62l.23-.84a26.28,26.28,0,0,0,2.77.6Zm8.75,0-.14-.86a25.6,25.6,0,0,0,2.76-.61l.24.84A25.61,25.61,0,0,1,777.42,734.72ZM763,733.18a26.81,26.81,0,0,1-2.66-1.23l.4-.77a25,25,0,0,0,2.58,1.18Zm20,0-.32-.81a27.25,27.25,0,0,0,2.57-1.2l.41.77A25.71,25.71,0,0,1,783.05,733.16Zm-25.19-2.72a28.71,28.71,0,0,1-2.34-1.77l.57-.67a24.82,24.82,0,0,0,2.26,1.71Zm30.36,0-.5-.72A26.91,26.91,0,0,0,790,728l.57.66A28.68,28.68,0,0,1,788.22,730.41Zm-34.83-3.75a28.68,28.68,0,0,1-1.9-2.23l.7-.53a26.77,26.77,0,0,0,1.84,2.15Zm39.28,0L792,726c.65-.69,1.26-1.42,1.83-2.16l.7.53A28.68,28.68,0,0,1,792.67,726.62ZM749.84,722a29.14,29.14,0,0,1-1.37-2.59l.79-.37a24.85,24.85,0,0,0,1.33,2.5Zm46.37,0-.75-.45a23.94,23.94,0,0,0,1.33-2.5l.8.37A27.74,27.74,0,0,1,796.21,722Zm-48.83-5.25a27.59,27.59,0,0,1-.79-2.83l.85-.19a25.06,25.06,0,0,0,.77,2.73Zm51.29-.05-.83-.28a26.52,26.52,0,0,0,.76-2.74l.85.19A28.26,28.26,0,0,1,798.67,716.66ZM746.11,711a28.26,28.26,0,0,1-.16-2.92h.88a26.69,26.69,0,0,0,.15,2.83Zm53.81,0-.87-.09a26.84,26.84,0,0,0,.16-2.83l.87-.11V708A26,26,0,0,1,799.92,710.94ZM747,705.24l-.87-.09a25.59,25.59,0,0,1,.47-2.89l.85.18A26.33,26.33,0,0,0,747,705.24Zm52.07-.16a27.22,27.22,0,0,0-.46-2.8l.85-.19a29,29,0,0,1,.48,2.89Zm-50.87-5.37-.83-.28a28.16,28.16,0,0,1,1.08-2.73l.8.37A24.17,24.17,0,0,0,748.17,699.71Zm49.64-.15a26.25,26.25,0,0,0-1.06-2.63l.79-.37a29,29,0,0,1,1.1,2.71Zm-47.27-5-.75-.45a26.36,26.36,0,0,1,1.64-2.42l.7.53C751.56,693,751,693.76,750.54,694.56Zm44.87-.13c-.49-.8-1-1.59-1.6-2.34l.69-.53a26.56,26.56,0,0,1,1.66,2.42ZM754,690.05l-.64-.6c.67-.7,1.38-1.38,2.12-2l.57.67A25.23,25.23,0,0,0,754,690.05Zm38-.11A25.16,25.16,0,0,0,789.9,688l.57-.67c.73.62,1.45,1.3,2.13,2Zm-33.71-3.57-.49-.72a26.42,26.42,0,0,1,2.5-1.52l.42.77A27,27,0,0,0,758.26,686.37Zm29.38-.08a26.05,26.05,0,0,0-2.43-1.46l.41-.77a27.72,27.72,0,0,1,2.51,1.5Zm-24.39-2.58-.32-.81a26.59,26.59,0,0,1,2.77-.95l.23.85A25.61,25.61,0,0,0,763.25,683.71Zm19.38-.06a25,25,0,0,0-2.69-.9l.23-.84a26.66,26.66,0,0,1,2.78.93Zm-13.93-1.47-.14-.86a25.89,25.89,0,0,1,2.91-.32l0,.87A26.72,26.72,0,0,0,768.7,682.18Zm8.47,0c-.92-.14-1.87-.24-2.82-.29l0-.87a28.12,28.12,0,0,1,2.91.3Z"/><text class="cls-38" transform="matrix(1, 0, 0, 1, 708.55, 929.98)">DR of the <tspan class="cls-67" x="78.1" y="0">C</tspan><tspan class="cls-65" x="87.8" y="0">on</tspan><tspan class="cls-68" x="108.41" y="0">g</tspan><tspan x="118.55" y="0">o</tspan></text><text class="cls-33" transform="matrix(1, 0, 0, 1, 715.74, 957.88)">2 times Gomal</text><path class="cls-42" d="M777.46,890.61a4.45,4.45,0,1,1-4.44-4.44,4.44,4.44,0,0,1,4.44,4.44"/><path class="cls-53" d="M776.47,891.6a3.46,3.46,0,1,1-3.45-3.45,3.46,3.46,0,0,1,3.45,3.45"/><path class="cls-29" d="M773,895.63c-.49,0-1,0-1.44,0l0-.88a24.46,24.46,0,0,0,2.84,0l0,.88C774,895.61,773.52,895.63,773,895.63Zm-4.35-.35a27.48,27.48,0,0,1-2.86-.63l.23-.84a24,24,0,0,0,2.77.6Zm8.75,0-.14-.86a28.24,28.24,0,0,0,2.76-.61l.24.84A28.06,28.06,0,0,1,777.42,895.27ZM763,893.72a25.64,25.64,0,0,1-2.66-1.23l.41-.77a26.06,26.06,0,0,0,2.57,1.19Zm20,0-.32-.81a27.17,27.17,0,0,0,2.57-1.19l.41.77A25.64,25.64,0,0,1,783.05,893.7ZM757.86,891a26.71,26.71,0,0,1-2.34-1.78l.57-.66a24.82,24.82,0,0,0,2.26,1.71Zm30.36,0-.5-.73a26.91,26.91,0,0,0,2.26-1.72l.57.67A28.68,28.68,0,0,1,788.22,891Zm-34.83-3.76a25.39,25.39,0,0,1-1.9-2.23l.7-.53A25.27,25.27,0,0,0,754,886.6Zm39.28,0-.63-.6a25,25,0,0,0,1.83-2.17l.7.53A28.5,28.5,0,0,1,792.67,887.17Zm-42.83-4.62a27.65,27.65,0,0,1-1.37-2.58l.79-.37a27.23,27.23,0,0,0,1.33,2.5Zm46.37,0-.75-.45a25,25,0,0,0,1.33-2.5l.8.36A26.69,26.69,0,0,1,796.21,882.51Zm-48.83-5.26a27.41,27.41,0,0,1-.79-2.82l.86-.19a23.5,23.5,0,0,0,.76,2.73Zm51.29,0-.83-.28a25.66,25.66,0,0,0,.76-2.73l.85.19A27.36,27.36,0,0,1,798.67,877.2Zm-52.56-5.66a28.41,28.41,0,0,1-.16-2.92h.88a26.83,26.83,0,0,0,.15,2.83Zm53.81,0-.87-.1a26.84,26.84,0,0,0,.16-2.83v-.11h.87v.11A26.15,26.15,0,0,1,799.92,871.49ZM747,865.78l-.87-.09a26.34,26.34,0,0,1,.47-2.89l.85.19A26.56,26.56,0,0,0,747,865.78Zm52.07-.16a26.59,26.59,0,0,0-.46-2.79l.85-.19a28.09,28.09,0,0,1,.48,2.89Zm-50.87-5.37-.83-.27a28.16,28.16,0,0,1,1.08-2.73l.8.37A24.84,24.84,0,0,0,748.17,860.25Zm49.64-.15a27.25,27.25,0,0,0-1.06-2.63l.79-.37a29.17,29.17,0,0,1,1.1,2.72Zm-47.27-5-.75-.45a28,28,0,0,1,1.64-2.43l.7.53A26.89,26.89,0,0,0,750.54,855.11Zm44.87-.13a26.83,26.83,0,0,0-1.6-2.34l.69-.53a28.59,28.59,0,0,1,1.66,2.41ZM754,850.6l-.64-.6a26.93,26.93,0,0,1,2.12-2l.57.66A27.2,27.2,0,0,0,754,850.6Zm38-.11a27.15,27.15,0,0,0-2.07-2l.57-.67c.73.63,1.45,1.3,2.13,2Zm-33.71-3.57-.49-.72a26.42,26.42,0,0,1,2.5-1.52l.42.77A27,27,0,0,0,758.26,846.92Zm29.38-.09a24,24,0,0,0-2.43-1.45l.4-.78a28,28,0,0,1,2.52,1.51Zm-24.39-2.58-.32-.81a26.54,26.54,0,0,1,2.77-.94l.23.84A28.16,28.16,0,0,0,763.25,844.25Zm19.38-.06a27.32,27.32,0,0,0-2.69-.89l.23-.85a26.66,26.66,0,0,1,2.78.93Zm-13.93-1.46-.14-.87a28.45,28.45,0,0,1,2.91-.32l0,.87A26.74,26.74,0,0,0,768.7,842.73Zm8.47,0a23.83,23.83,0,0,0-2.82-.29l0-.88a28.13,28.13,0,0,1,2.91.31Z"/><text class="cls-69" transform="matrix(1, 0, 0, 1, 732.11, 1089.09)">V<tspan class="cls-65" x="9.31" y="0">enezuela</tspan></text><text class="cls-33" transform="matrix(1, 0, 0, 1, 715.3, 1117.89)">Tortuga Island</text><path class="cls-42" d="M778,1051.77a5,5,0,1,1-5-5,5,5,0,0,1,5,5"/><path class="cls-53" d="M776.14,1053.6a3.13,3.13,0,1,1-3.12-3.13,3.13,3.13,0,0,1,3.12,3.13"/><path class="cls-29" d="M773,1056.16q-.74,0-1.44,0l0-.88a26.9,26.9,0,0,0,2.84,0l0,.87C774,1056.15,773.52,1056.16,773,1056.16Zm-4.35-.34a27.66,27.66,0,0,1-2.87-.63l.24-.84a25.74,25.74,0,0,0,2.77.6Zm8.75,0-.14-.87a25.57,25.57,0,0,0,2.76-.6l.24.84A28.06,28.06,0,0,1,777.42,1055.81Zm-14.4-1.55a25.48,25.48,0,0,1-2.65-1.23l.41-.77a26.06,26.06,0,0,0,2.57,1.19Zm20,0-.32-.81a27.17,27.17,0,0,0,2.57-1.19l.41.77A27.9,27.9,0,0,1,783.05,1054.24Zm-25.19-2.72a26.6,26.6,0,0,1-2.34-1.77l.57-.67a26.91,26.91,0,0,0,2.26,1.72Zm30.36,0-.49-.72a26.76,26.76,0,0,0,2.25-1.72l.57.67A26.46,26.46,0,0,1,788.22,1051.49Zm-34.83-3.75a28.68,28.68,0,0,1-1.9-2.23l.7-.53a26.91,26.91,0,0,0,1.84,2.16Zm39.28,0-.63-.6a24.88,24.88,0,0,0,1.83-2.16l.7.53A28.68,28.68,0,0,1,792.67,1047.7Zm-42.82-4.61a25.55,25.55,0,0,1-1.38-2.58l.79-.37c.4.85.85,1.69,1.33,2.5Zm46.36,0-.75-.45a26.15,26.15,0,0,0,1.33-2.51l.8.37A27.91,27.91,0,0,1,796.21,1043.05Zm-48.83-5.26a27.41,27.41,0,0,1-.79-2.82l.85-.19a25.71,25.71,0,0,0,.77,2.73Zm51.29,0-.83-.28a25.66,25.66,0,0,0,.76-2.73l.85.18A26.86,26.86,0,0,1,798.67,1037.74Zm-52.55-5.66a26,26,0,0,1-.17-2.93h.88A26.55,26.55,0,0,0,747,1032Zm53.8-.06-.87-.09a26.84,26.84,0,0,0,.16-2.83l.59-.07.28,0A26.07,26.07,0,0,1,799.92,1032Zm-52.95-5.7-.87-.09a28.06,28.06,0,0,1,.47-2.89l.85.18A27.17,27.17,0,0,0,747,1026.32Zm52.07-.16a27,27,0,0,0-.46-2.79l.85-.19a26.38,26.38,0,0,1,.48,2.89Zm-50.87-5.37-.83-.28a28,28,0,0,1,1.08-2.72l.8.36A24.17,24.17,0,0,0,748.17,1020.79Zm49.64-.15a27.25,27.25,0,0,0-1.06-2.63l.79-.37a28.1,28.1,0,0,1,1.1,2.72Zm-47.27-5-.75-.45a26.51,26.51,0,0,1,1.64-2.43l.7.53A26.89,26.89,0,0,0,750.54,1015.65Zm44.87-.13a24.2,24.2,0,0,0-1.6-2.34l.7-.53a26.31,26.31,0,0,1,1.65,2.41ZM754,1011.13l-.64-.59a29,29,0,0,1,2.12-2l.57.67A27.08,27.08,0,0,0,754,1011.13Zm38-.11c-.66-.68-1.35-1.33-2.07-1.94l.57-.67a28.79,28.79,0,0,1,2.13,2Zm-33.71-3.56-.49-.73a28.77,28.77,0,0,1,2.51-1.51l.41.77A26.15,26.15,0,0,0,758.26,1007.46Zm29.38-.09a24,24,0,0,0-2.43-1.45l.41-.78a25.68,25.68,0,0,1,2.51,1.51Zm-24.39-2.58-.32-.81a26.54,26.54,0,0,1,2.77-.94l.24.84A25.78,25.78,0,0,0,763.25,1004.79Zm19.39-.06a26.46,26.46,0,0,0-2.69-.89l.23-.85a27.47,27.47,0,0,1,2.78.93Zm-13.94-1.47-.14-.86a25.89,25.89,0,0,1,2.91-.32l0,.87A26.72,26.72,0,0,0,768.7,1003.26Zm8.47,0a26.69,26.69,0,0,0-2.82-.3l0-.87a28.4,28.4,0,0,1,2.91.3Z"/><path class="cls-29" d="M523.93,1056.45c-.51,0-1,0-1.48,0l0-.87c.47,0,1,0,1.43,0s.94,0,1.4,0l0,.87C524.9,1056.44,524.41,1056.45,523.93,1056.45Zm-4.39-.35a25.57,25.57,0,0,1-2.86-.62l.23-.84a26.28,26.28,0,0,0,2.77.6Zm8.75,0-.14-.86a26.32,26.32,0,0,0,2.77-.61l.23.85A24.64,24.64,0,0,1,528.29,1056.09Zm-14.39-1.54a25.64,25.64,0,0,1-2.66-1.23l.41-.77a27.17,27.17,0,0,0,2.57,1.19Zm20,0-.33-.81a24,24,0,0,0,2.57-1.2l.41.77A26.56,26.56,0,0,1,533.93,1054.53Zm-25.2-2.72a26.46,26.46,0,0,1-2.33-1.77l.56-.67a26.91,26.91,0,0,0,2.26,1.72Zm30.36,0-.49-.72a25.23,25.23,0,0,0,2.25-1.72l.57.67A28.56,28.56,0,0,1,539.09,1051.78ZM504.27,1048a26.65,26.65,0,0,1-1.9-2.23l.69-.53a26.91,26.91,0,0,0,1.84,2.16Zm39.28,0-.64-.6a26.91,26.91,0,0,0,1.84-2.16l.69.53A26.53,26.53,0,0,1,543.55,1048Zm-42.83-4.61a24.67,24.67,0,0,1-1.38-2.59l.79-.36a27.32,27.32,0,0,0,1.34,2.5Zm46.36,0-.74-.45c.48-.81.93-1.65,1.33-2.51l.79.37A26.83,26.83,0,0,1,547.08,1043.34Zm-48.83-5.26a27.41,27.41,0,0,1-.79-2.82l.86-.19a25.66,25.66,0,0,0,.76,2.73Zm51.29,0-.82-.28a25.79,25.79,0,0,0,.75-2.74l.86.19A28.32,28.32,0,0,1,549.54,1038ZM497,1032.37a26,26,0,0,1-.16-2.93h.87a24.16,24.16,0,0,0,.16,2.83Zm53.81-.06-.87-.09a26.83,26.83,0,0,0,.15-2.83l.87-.11v.11A28.55,28.55,0,0,1,550.8,1032.31Zm-52.95-5.7-.88-.09a28.06,28.06,0,0,1,.47-2.89l.85.18A24.66,24.66,0,0,0,497.85,1026.61Zm52.07-.16a26.63,26.63,0,0,0-.47-2.79l.85-.2a24.19,24.19,0,0,1,.48,2.89ZM499,1021.08l-.82-.28a25.59,25.59,0,0,1,1.07-2.72l.8.36A26.37,26.37,0,0,0,499,1021.08Zm49.64-.15a24.07,24.07,0,0,0-1.06-2.63l.8-.37a26.43,26.43,0,0,1,1.09,2.71Zm-47.27-5-.75-.45a26.61,26.61,0,0,1,1.65-2.43l.69.53A26.89,26.89,0,0,0,501.41,1015.94Zm44.87-.14a24.2,24.2,0,0,0-1.6-2.34l.7-.53a26.46,26.46,0,0,1,1.65,2.42Zm-41.45-4.38-.63-.6a27.11,27.11,0,0,1,2.12-2l.57.67A23.82,23.82,0,0,0,504.83,1011.42Zm38-.11a25.16,25.16,0,0,0-2.07-1.94l.57-.67a26.83,26.83,0,0,1,2.13,2Zm-33.7-3.56-.5-.73a27.82,27.82,0,0,1,2.51-1.51l.41.77A24.75,24.75,0,0,0,509.14,1007.75Zm29.37-.09a26.05,26.05,0,0,0-2.43-1.46l.41-.77a27.72,27.72,0,0,1,2.51,1.5Zm-24.38-2.58-.33-.81a29.15,29.15,0,0,1,2.77-.95l.24.85A24.85,24.85,0,0,0,514.13,1005.08Zm19.38-.06a25.72,25.72,0,0,0-2.69-.9l.23-.84a27.47,27.47,0,0,1,2.78.93Zm-13.94-1.47-.14-.86a25.89,25.89,0,0,1,2.91-.32l0,.87A26.72,26.72,0,0,0,519.57,1003.55Zm8.47,0a26.23,26.23,0,0,0-2.81-.3l0-.87a27.84,27.84,0,0,1,2.91.3Z"/><path class="cls-29" d="M267.17,1056.58l-1.44,0,0-.88a26.9,26.9,0,0,0,2.84,0l0,.87C268.17,1056.57,267.67,1056.58,267.17,1056.58Zm-4.35-.34a28.06,28.06,0,0,1-2.86-.63l.24-.84a25.57,25.57,0,0,0,2.76.6Zm8.76,0-.15-.87a25.23,25.23,0,0,0,2.77-.6l.23.84A27.29,27.29,0,0,1,271.58,1056.23Zm-14.4-1.55a26.64,26.64,0,0,1-2.66-1.23l.41-.77a26.23,26.23,0,0,0,2.58,1.19Zm20,0-.32-.81c.87-.35,1.73-.75,2.57-1.19l.41.77A29.09,29.09,0,0,1,277.21,1054.66Zm-25.2-2.72a28,28,0,0,1-2.33-1.77l.56-.67a28.07,28.07,0,0,0,2.26,1.72Zm30.36,0-.49-.72a26.91,26.91,0,0,0,2.26-1.72l.56.67A25.05,25.05,0,0,1,282.37,1051.91Zm-34.82-3.75a28.68,28.68,0,0,1-1.9-2.23l.7-.53a25,25,0,0,0,1.84,2.16Zm39.28,0-.64-.6a25,25,0,0,0,1.84-2.16l.7.53A28.68,28.68,0,0,1,286.83,1048.12ZM244,1043.51c-.5-.83-1-1.7-1.38-2.58l.8-.37a25,25,0,0,0,1.33,2.5Zm46.37,0-.75-.45a26.15,26.15,0,0,0,1.33-2.51l.79.37A27.82,27.82,0,0,1,290.37,1043.47Zm-48.84-5.26a27.36,27.36,0,0,1-.78-2.82l.85-.19a25.66,25.66,0,0,0,.76,2.73Zm51.3,0-.83-.28a28.27,28.27,0,0,0,.76-2.73l.85.18A26.86,26.86,0,0,1,292.83,1038.16Zm-52.56-5.66a26,26,0,0,1-.16-2.93H241a26.54,26.54,0,0,0,.16,2.83Zm53.81-.06-.87-.09a26.83,26.83,0,0,0,.15-2.83l.88-.11v.11A28.57,28.57,0,0,1,294.08,1032.44Zm-52.95-5.7-.87-.09a28,28,0,0,1,.46-2.89l.86.18A27.17,27.17,0,0,0,241.13,1026.74Zm52.07-.16a24.25,24.25,0,0,0-.47-2.79l.86-.19a28.09,28.09,0,0,1,.48,2.89Zm-50.87-5.37-.83-.28a25.65,25.65,0,0,1,1.08-2.72l.79.36A27.29,27.29,0,0,0,242.33,1021.21Zm49.64-.15c-.31-.89-.67-1.78-1.06-2.63l.79-.37a25.71,25.71,0,0,1,1.09,2.72Zm-47.27-5-.75-.45a26.51,26.51,0,0,1,1.64-2.43l.7.53A24.83,24.83,0,0,0,244.7,1016.07Zm44.87-.13a25.4,25.4,0,0,0-1.6-2.34l.69-.54c.59.78,1.15,1.59,1.66,2.42Zm-41.45-4.39-.64-.6a29,29,0,0,1,2.12-2l.57.67A27.08,27.08,0,0,0,248.12,1011.55Zm38-.11a27,27,0,0,0-2.07-1.94l.56-.67a28.93,28.93,0,0,1,2.14,2Zm-33.71-3.56-.49-.73a28.6,28.6,0,0,1,2.5-1.51l.41.77A26,26,0,0,0,252.42,1007.88Zm29.38-.09a24,24,0,0,0-2.43-1.45l.4-.78a28,28,0,0,1,2.52,1.51Zm-24.39-2.58-.33-.81a27.53,27.53,0,0,1,2.78-.94l.24.84A25,25,0,0,0,257.41,1005.21Zm19.38-.06a24.91,24.91,0,0,0-2.69-.89l.23-.85a26.66,26.66,0,0,1,2.78.93Zm-13.93-1.47-.14-.86a25.89,25.89,0,0,1,2.91-.32l.05.87A26.72,26.72,0,0,0,262.86,1003.68Zm8.47,0a26.69,26.69,0,0,0-2.82-.3l.05-.87a28.4,28.4,0,0,1,2.91.3Z"/><line class="cls-70" x1="729.5" y1="67" x2="731.5" y2="67"/><line class="cls-71" x1="735.52" y1="67" x2="958.49" y2="67"/><line class="cls-70" x1="960.5" y1="67" x2="962.5" y2="67"/><line class="cls-70" x1="729.5" y1="106" x2="731.5" y2="106"/><line class="cls-71" x1="735.52" y1="106" x2="958.49" y2="106"/><line class="cls-70" x1="960.5" y1="106" x2="962.5" y2="106"/><line class="cls-70" x1="729.5" y1="190" x2="731.5" y2="190"/><line class="cls-71" x1="735.52" y1="190" x2="958.49" y2="190"/><line class="cls-70" x1="960.5" y1="190" x2="962.5" y2="190"/><line class="cls-72" x1="265.5" y1="520.5" x2="263.5" y2="520.5"/><line class="cls-73" x1="259.55" y1="520.5" x2="111.47" y2="520.5"/><line class="cls-72" x1="109.5" y1="520.5" x2="107.5" y2="520.5"/><line class="cls-72" x1="1128.5" y1="549" x2="1126.5" y2="549"/><line class="cls-74" x1="1122.58" y1="549" x2="959.96" y2="549"/><line class="cls-72" x1="958" y1="549" x2="956" y2="549"/><rect class="cls-1" width="1918" height="1483"/></g></g></svg>