<svg xmlns="http://www.w3.org/2000/svg" viewBox="0 0 1507.18 959.03"><defs><style>.cls-1,.cls-10{font-size:60px;font-family:FiraSans-Bold, Fira Sans;font-weight:700;}.cls-1,.cls-10,.cls-11{fill:#333;}.cls-2{letter-spacing:-0.07em;}.cls-3{letter-spacing:-0.02em;}.cls-4{letter-spacing:-0.02em;}.cls-5{letter-spacing:-0.01em;}.cls-6{letter-spacing:-0.07em;}.cls-7{letter-spacing:-0.01em;}.cls-8{letter-spacing:-0.01em;}.cls-9{letter-spacing:0em;}.cls-10{letter-spacing:0em;}.cls-11{font-size:36px;font-family:FiraSans-Medium, Fira Sans;}.cls-12{letter-spacing:-0.03em;}.cls-13{letter-spacing:-0.06em;}.cls-14{letter-spacing:-0.09em;}.cls-15{letter-spacing:-0.02em;}.cls-16{letter-spacing:-0.01em;}.cls-17{letter-spacing:0em;}.cls-18{letter-spacing:-0.01em;}.cls-19,.cls-24{fill:none;stroke:#333;}.cls-19,.cls-21,.cls-24{stroke-miterlimit:10;}.cls-19{stroke-width:8px;}.cls-20{letter-spacing:-0.01em;}.cls-21{fill:#f2f2f2;stroke:#fff;}.cls-22{fill:#67baa7;}.cls-23{fill:#329690;}.cls-24{stroke-width:3px;}.cls-25{letter-spacing:-0.02em;}.cls-26{fill:#a4dd7f;}.cls-27{fill:#85c68a;}.cls-28{fill:#4c936e;}.cls-29{fill:#54a07a;}.cls-30{fill:#352b2b;}.cls-31{fill:#61af86;}.cls-32{fill:#91ce6a;}</style></defs><title>week_res</title><g id="Livello_2" data-name="Livello 2"><g id="Livello_1-2" data-name="Livello 1"><text class="cls-1" transform="translate(4.49 226.65)"><tspan class="cls-2">4</tspan><tspan x="29.58" y="0">1,</tspan><tspan class="cls-3" x="71.82" y="0">8</tspan><tspan class="cls-4" x="105.72" y="0">9</tspan><tspan x="138.06" y="0">2</tspan><tspan class="cls-5" x="169.08" y="0">,</tspan><tspan x="182.88" y="0">6</tspan><tspan class="cls-6" x="216.72" y="0">4</tspan><tspan x="246.3" y="0" xml:space="preserve">1,777  l</tspan></text><text class="cls-1" transform="translate(1037.58 682.5) rotate(0.34)">95,<tspan class="cls-7" x="80.16" y="0">7</tspan><tspan x="107.52" y="0">54</tspan><tspan class="cls-5" x="173.58" y="0">,</tspan><tspan x="187.38" y="0">6</tspan><tspan class="cls-8" x="221.22" y="0">0</tspan><tspan class="cls-9" x="255.72" y="0" xml:space="preserve">9  m</tspan></text><text class="cls-10" transform="matrix(0.58, 0, 0, 0.58, 1406.14, 664.67)">2</text><text class="cls-11" transform="translate(1244.31 742.11) rotate(0.34)">NEW <tspan class="cls-12" x="82.4" y="0">Y</tspan><tspan x="101.84" y="0">ORK </tspan><tspan x="-57.38" y="44">CENTRAL </tspan><tspan class="cls-13" x="95.62" y="44">P</tspan><tspan x="114.73" y="44">ARK</tspan></text><text class="cls-11" transform="translate(0.24 282.29) rotate(0.24)">O<tspan class="cls-14" x="24.88" y="0">L</tspan><tspan class="cls-15" x="39.85" y="0">Y</tspan><tspan x="59.83" y="0">MPIC </tspan><tspan class="cls-16" x="0" y="44">S</tspan><tspan class="cls-17" x="19.8" y="44">WIMMING POO</tspan><tspan class="cls-18" x="254.59" y="44">L</tspan><tspan x="272.34" y="44">S</tspan></text><line class="cls-19" x1="6.18" y1="78.03" x2="137.18" y2="78.03"/><text class="cls-1" transform="translate(5.82 50.79)">1 WEEK P<tspan class="cls-20" x="244.2" y="0">R</tspan><tspan x="280.44" y="0">ODU</tspan><tspan class="cls-5" x="400.01" y="0">C</tspan><tspan x="433.91" y="0">TION</tspan></text><polygon class="cls-21" points="1064.68 8.53 1370.18 130.03 1072.18 459.02 764.18 312.02 1064.68 8.53"/><polygon class="cls-22" points="804.18 302.02 1063.78 36.02 1329.18 145.03 1073.18 424.02 804.18 302.02"/><polygon class="cls-23" points="1063.78 64.03 825.36 311.63 804.18 302.02 1064.18 36.02 1063.78 64.03"/><polygon class="cls-23" points="1311.45 164.35 1064.18 64.03 1064.18 36.02 1329.18 145.03 1311.45 164.35"/><path class="cls-24" d="M994.53,79.38S1010.18,61,1016.18,79v46"/><path class="cls-24" d="M1007.53,66.88s15.65-18.35,21.65-.35v46"/><text class="cls-1" transform="translate(1227.18 379.56)">x 2<tspan class="cls-25" x="75.96" y="0">2</tspan><tspan x="105.66" y="0">166</tspan></text><text class="cls-1" transform="translate(619.18 819.56)">x 28</text><path class="cls-26" d="M323.72,585.81c-47.51-28.17-104-36-156.38-20C113.65,582.14,59.42,623.1,55.11,721.55,47,907.9,135.3,1039.67,312.86,902a215.55,215.55,0,0,1,75.57-38.09l122.3.15c34.26-9.28,61.47-36.47,71.92-71.84h0c16.83-56.92-14.12-117.24-68.76-134L405.63,634.37Z"/><path class="cls-27" d="M210.49,719.83S228,695.43,253,695.43s36.75,23.1,36.75,23.1Z"/><path class="cls-27" d="M386.13,764.81s17.48-24.4,42.54-24.4,36.75,23.1,36.75,23.1Z"/><circle class="cls-28" cx="177.26" cy="605.45" r="31.34" transform="translate(-452.77 637.83) rotate(-76.62)"/><circle class="cls-29" cx="218.63" cy="526.7" r="74.47" transform="translate(-336.55 657.04) rotate(-80.67)"/><path class="cls-30" d="M195.3,528.3l27.54,24.9a2.94,2.94,0,1,1-4,4.36l-.22-.22L194,529.65a1,1,0,0,1,.08-1.35A1,1,0,0,1,195.3,528.3Z"/><path class="cls-30" d="M191.5,610.38l29.25,28.49a2.94,2.94,0,1,1-4.1,4.21l-.14-.14-27.24-30.42a1.55,1.55,0,0,1,2.23-2.14Z"/><path class="cls-30" d="M240.83,552.57l-17,20.48a2.94,2.94,0,0,1-4.53-3.76,2.13,2.13,0,0,1,.29-.31l19.75-17.86a1,1,0,0,1,1.5,1.45Z"/><path class="cls-30" d="M202.55,626l-18.7-1.13a.7.7,0,0,1-.65-.74.68.68,0,0,1,.65-.65l18.7-1.14a1.83,1.83,0,1,1,.22,3.66Z"/><path class="cls-31" d="M169.08,500.85s.78,16.33,20.41,22C189.49,522.81,190.27,505.32,169.08,500.85Z"/><path class="cls-31" d="M206.37,480.5s-17.49,14.2-7.72,40.59C198.65,521.09,218.7,507.67,206.37,480.5Z"/><path class="cls-31" d="M161.61,535.76s12.41,9.75,28.93-1C190.54,534.74,178.26,523.12,161.61,535.76Z"/><path class="cls-31" d="M241.34,560.74s9.28,5.28,19.27-3.58C260.61,557.16,251.23,550.61,241.34,560.74Z"/><path class="cls-31" d="M239.26,519s-11.8,9.58-5.21,27.38C234.05,546.4,247.58,537.35,239.26,519Z"/><path class="cls-30" d="M222.7,511.62a1.95,1.95,0,0,0-3.89,0L212.2,700.76h17.11Z"/><path class="cls-32" d="M151,730.08s29.12-42.66,70.84-42.66S283,727.81,283,727.81Z"/><path class="cls-32" d="M125.93,730.1s11.07-18.48,26.93-18.48,23.25,17.5,23.25,17.5Z"/></g></g></svg>