<?xml version="1.0" encoding="utf-8"?>
<!-- Generator: Adobe Illustrator 21.1.0, SVG Export Plug-In . SVG Version: 6.00 Build 0) -->
<svg id="typeof_opioids" version="1.1" xmlns="http://www.w3.org/2000/svg" xmlns:xlink="http://www.w3.org/1999/xlink" x="0px" y="0px" viewBox="0 0 1174.4 899.2" style="enable-background:new 0 0 1174.4 899.2;" xml:space="preserve">

	<g id="struttura">
		<g>
			<line class="st0" x1="279.1" y1="410.6" x2="897.4" y2="410.6"/>
			<line class="st1" x1="587.7" y1="410.6" x2="892.1" y2="467.5"/>
			<line class="st1" x1="587.7" y1="410.6" x2="876.6" y2="522.4"/>
			<line class="st1" x1="587.7" y1="410.6" x2="851.1" y2="573.6"/>
			<line class="st1" x1="587.7" y1="410.6" x2="816.7" y2="619.1"/>
			<line class="st1" x1="587.7" y1="410.6" x2="774.5" y2="657.6"/>
			<line class="st1" x1="587.7" y1="410.6" x2="726" y2="687.8"/>
			<line class="st1" x1="587.7" y1="410.6" x2="672.8" y2="708.4"/>
			<line class="st1" x1="587.7" y1="410.6" x2="616.6" y2="718.8"/>
			<line class="st1" x1="587.7" y1="410.6" x2="559.6" y2="718.8"/>
			<line class="st1" x1="587.7" y1="410.6" x2="503.5" y2="708.4"/>
			<line class="st1" x1="587.7" y1="410.6" x2="450.3" y2="687.6"/>
			<line class="st1" x1="587.7" y1="410.6" x2="401.9" y2="657.5"/>
			<line class="st1" x1="587.7" y1="410.6" x2="359.9" y2="619.1"/>
			<line class="st1" x1="587.7" y1="410.6" x2="325.4" y2="573.8"/>
			<line class="st1" x1="587.7" y1="410.6" x2="300" y2="522.8"/>
			<line class="st1" x1="587.7" y1="410.6" x2="284.4" y2="468"/>
			<line class="st2" x1="587.7" y1="410.6" x2="279.2" y2="410.6"/>
		</g>
		<path class="st3" d="M896.7,410.3"/>
		<g>
			<path id="SVGID_x5F_1_x5F_" class="st4" d="M587.2,410.3h360.7"/>
			<text>
				<textPath xlink:href="#SVGID_x5F_1_x5F_" startOffset="72.974%">
					<tspan class="st5" style="font-family:'BaiJamjuree-Bold'; font-size:14.1996px;">2016</tspan>
				</textPath>
			</text>
			<g>
				<path id="SVGID_x5F_2_x5F_" class="st4" d="M587.2,410.3l354.5,66.2"/>
				<text>
					<textPath xlink:href="#SVGID_x5F_2_x5F_" startOffset="72.844%">
						<tspan class="st5" style="font-family:'BaiJamjuree-Bold'; font-size:14.1996px;">2015</tspan>
					</textPath>
				</text>
			</g>
			<g>
				<path id="SVGID_x5F_3_x5F_" class="st4" d="M587.2,410.3l336.3,130.2"/>
				<text>
					<textPath xlink:href="#SVGID_x5F_3_x5F_" startOffset="75.964%">
						<tspan class="st5" style="font-family:'BaiJamjuree-Bold'; font-size:14.1996px;">2014</tspan>
					</textPath>
				</text>
			</g>
			<g>
				<path id="SVGID_x5F_4_x5F_" class="st4" d="M587.2,410.3L894,600"/>
				<text>
					<textPath xlink:href="#SVGID_x5F_4_x5F_" startOffset="77.087%">
						<tspan class="st5" style="font-family:'BaiJamjuree-Bold'; font-size:14.1996px;">2013</tspan>
					</textPath>
				</text>
			</g>
			<g>
				<path id="SVGID_x5F_5_x5F_" class="st4" d="M587.2,410.3l266.7,242.8"/>
				<text>
					<textPath xlink:href="#SVGID_x5F_5_x5F_" startOffset="76.575%">
						<tspan class="st5" style="font-family:'BaiJamjuree-Bold'; font-size:14.1996px;">2012</tspan>
					</textPath>
				</text>
			</g>
			<g>
				<path id="SVGID_x5F_6_x5F_" class="st4" d="M587.2,410.3l217.6,287.7"/>
				<text>
					<textPath xlink:href="#SVGID_x5F_6_x5F_" startOffset="74.512%">
						<tspan class="st5" style="font-family:'BaiJamjuree-Bold'; font-size:14.1996px;">2011</tspan>
					</textPath>
				</text>
			</g>
			<g>
				<path id="SVGID_x5F_7_x5F_" class="st4" d="M587.2,410.3l161,322.7"/>
				<text>
					<textPath xlink:href="#SVGID_x5F_7_x5F_" startOffset="75.432%">
						<tspan class="st5" style="font-family:'BaiJamjuree-Bold'; font-size:14.1996px;">2010</tspan>
					</textPath>
				</text>
			</g>
			<g>
				<path id="SVGID_x5F_8_x5F_" class="st4" d="M587.2,410.3l99.1,346.8"/>
				<text>
					<textPath xlink:href="#SVGID_x5F_8_x5F_" startOffset="76.721%">
						<tspan class="st5" style="font-family:'BaiJamjuree-Bold'; font-size:14.1996px;">2009</tspan>
					</textPath>
				</text>
			</g>
			<g>
				<path id="SVGID_x5F_9_x5F_" class="st4" d="M587.2,410.3l33.7,359.1"/>
				<text>
					<textPath xlink:href="#SVGID_x5F_9_x5F_" startOffset="74.866%">
						<tspan class="st5" style="font-family:'BaiJamjuree-Bold'; font-size:14.1996px;">2008</tspan>
					</textPath>
				</text>
			</g>
			<g>
				<path id="SVGID_x5F_10_x5F_" class="st4" d="M587.2,410.3l-32.8,359.2"/>
				<text>
					<textPath xlink:href="#SVGID_x5F_10_x5F_" startOffset="72.742%">
						<tspan class="st5" style="font-family:'BaiJamjuree-Bold'; font-size:14.1996px;">2007</tspan>
					</textPath>
				</text>
			</g>
			<g>
				<path id="SVGID_x5F_11_x5F_" class="st4" d="M587.2,410.3l-98.2,347"/>
				<text>
					<textPath xlink:href="#SVGID_x5F_11_x5F_" startOffset="74.817%">
						<tspan class="st5" style="font-family:'BaiJamjuree-Bold'; font-size:14.1996px;">2006</tspan>
					</textPath>
				</text>
			</g>
			<g>
				<path id="SVGID_x5F_12_x5F_" class="st4" d="M587.2,410.3L427,733.4"/>
				<text>
					<textPath xlink:href="#SVGID_x5F_12_x5F_" startOffset="72.681%">
						<tspan class="st5" style="font-family:'BaiJamjuree-Bold'; font-size:14.1996px;">2005</tspan>
					</textPath>
				</text>
			</g>
			<g>
				<path id="SVGID_x5F_13_x5F_" class="st4" d="M587.2,410.3L370.4,698.5"/>
				<text>
					<textPath xlink:href="#SVGID_x5F_13_x5F_" startOffset="74.408%">
						<tspan class="st5" style="font-family:'BaiJamjuree-Bold'; font-size:14.1996px;">2004</tspan>
					</textPath>
				</text>
			</g>
			<g>
				<path id="SVGID_x5F_14_x5F_" class="st4" d="M587.2,410.3L321.2,653.7"/>
				<text>
					<textPath xlink:href="#SVGID_x5F_14_x5F_" startOffset="72.803%">
						<tspan class="st5" style="font-family:'BaiJamjuree-Bold'; font-size:14.1996px;">2003</tspan>
					</textPath>
				</text>
			</g>
			<g>
				<path id="SVGID_x5F_15_x5F_" class="st4" d="M587.2,410.3L281,600.7"/>
				<text>
					<textPath xlink:href="#SVGID_x5F_15_x5F_" startOffset="72.607%">
						<tspan class="st5" style="font-family:'BaiJamjuree-Bold'; font-size:14.1996px;">2002</tspan>
					</textPath>
				</text>
			</g>
			<g>
				<path id="SVGID_x5F_16_x5F_" class="st4" d="M587.2,410.3l-336,131"/>
				<text>
					<textPath xlink:href="#SVGID_x5F_16_x5F_" startOffset="72.473%">
						<tspan class="st5" style="font-family:'BaiJamjuree-Bold'; font-size:14.1996px;">2001</tspan>
					</textPath>
				</text>
			</g>
			<path id="SVGID_x5F_17_x5F_" class="st4" d="M587.2,410.3l-354.4,67.1"/>
			<text>
				<textPath xlink:href="#SVGID_x5F_17_x5F_" startOffset="72.839%">
					<tspan class="st5" style="font-family:'BaiJamjuree-Bold'; font-size:14.1996px;">2000</tspan>
				</textPath>
			</text>
			<g>
				<g>
					<path class="st5" d="M229.6,403.3l-2.7,1.2l0-1.8l3.2-1.5l1.7,0l0,9.9l-2.3,0L229.6,403.3z"/>
					<path
						class="st5"
						d="M235.6,410.9c-0.6-0.2-1-0.6-1.3-1c-0.3-0.4-0.5-0.9-0.5-1.5l2.3,0c0,0.3,0.1,0.6,0.4,0.8
					c0.3,0.2,0.6,0.3,1,0.3l1.4,0c0.5,0,0.9-0.1,1.1-0.4s0.4-0.6,0.4-1l0-1.1c-0.3,0.2-0.6,0.4-1,0.5c-0.4,0.1-0.8,0.2-1.1,0.2
					l-1.1,0c-0.8,0-1.4-0.1-2-0.4c-0.6-0.2-1-0.6-1.3-1.1c-0.3-0.5-0.5-1-0.5-1.6l0-0.6c0-0.6,0.2-1.1,0.5-1.6
					c0.3-0.5,0.8-0.8,1.5-1.1c0.6-0.3,1.4-0.4,2.2-0.4l1.2,0c0.8,0,1.5,0.1,2.1,0.4c0.6,0.3,1.1,0.6,1.4,1.1c0.3,0.5,0.5,1,0.5,1.6
					l0,4c0,0.6-0.2,1.2-0.5,1.6c-0.3,0.5-0.8,0.8-1.4,1.1c-0.6,0.3-1.3,0.4-2,0.4l-1.4,0C236.8,411.2,236.2,411.1,235.6,410.9z
					 M238.5,406c0.5,0,0.9-0.1,1.3-0.4c0.4-0.2,0.6-0.6,0.8-1l0-0.7c0-0.4-0.2-0.7-0.5-0.9c-0.3-0.2-0.7-0.4-1.2-0.4l-1.2,0
					c-0.6,0-1,0.1-1.3,0.4s-0.5,0.6-0.5,1l0,0.6c0,0.4,0.1,0.7,0.4,1c0.3,0.3,0.6,0.4,1.1,0.4L238.5,406z"/>
					<path
						class="st5"
						d="M246.2,410.9c-0.6-0.2-1-0.6-1.3-1c-0.3-0.4-0.5-0.9-0.5-1.5l2.3,0c0,0.3,0.1,0.6,0.4,0.8
					c0.3,0.2,0.6,0.3,1,0.3l1.4,0c0.5,0,0.9-0.1,1.1-0.4s0.4-0.6,0.4-1l0-1.1c-0.3,0.2-0.6,0.4-1,0.5c-0.4,0.1-0.8,0.2-1.1,0.2
					l-1.1,0c-0.8,0-1.4-0.1-2-0.4c-0.6-0.2-1-0.6-1.3-1.1c-0.3-0.5-0.5-1-0.5-1.6l0-0.6c0-0.6,0.2-1.1,0.5-1.6s0.8-0.8,1.5-1.1
					c0.6-0.3,1.4-0.4,2.2-0.4l1.2,0c0.8,0,1.5,0.1,2.1,0.4c0.6,0.3,1.1,0.6,1.4,1.1c0.3,0.5,0.5,1,0.5,1.6l0,4
					c0,0.6-0.2,1.2-0.5,1.6c-0.3,0.5-0.8,0.8-1.4,1.1c-0.6,0.3-1.3,0.4-2,0.4l-1.4,0C247.4,411.2,246.8,411.1,246.2,410.9z
					 M249.1,406c0.5,0,0.9-0.1,1.3-0.4c0.4-0.2,0.6-0.6,0.8-1l0-0.7c0-0.4-0.2-0.7-0.5-0.9c-0.3-0.2-0.7-0.4-1.2-0.4l-1.2,0
					c-0.6,0-1,0.1-1.3,0.4s-0.5,0.6-0.5,1l0,0.6c0,0.4,0.1,0.7,0.4,1c0.3,0.3,0.6,0.4,1.1,0.4L249.1,406z"/>
					<path
						class="st5"
						d="M256.8,410.8c-0.6-0.2-1-0.6-1.3-1c-0.3-0.4-0.5-0.9-0.5-1.5l2.3,0c0,0.3,0.1,0.6,0.4,0.8
					c0.3,0.2,0.6,0.3,1,0.3l1.4,0c0.5,0,0.9-0.1,1.1-0.4s0.4-0.6,0.4-1l0-1.1c-0.3,0.2-0.6,0.4-1,0.5c-0.4,0.1-0.8,0.2-1.1,0.2
					l-1.1,0c-0.8,0-1.4-0.1-2-0.4c-0.6-0.2-1-0.6-1.3-1.1c-0.3-0.5-0.5-1-0.5-1.6l0-0.6c0-0.6,0.2-1.1,0.5-1.6s0.8-0.8,1.5-1.1
					c0.6-0.3,1.4-0.4,2.2-0.4l1.2,0c0.8,0,1.5,0.1,2.1,0.4c0.6,0.3,1.1,0.6,1.4,1.1c0.3,0.5,0.5,1,0.5,1.6l0,4
					c0,0.6-0.2,1.2-0.5,1.6c-0.3,0.5-0.8,0.8-1.4,1.1c-0.6,0.3-1.3,0.4-2,0.4l-1.4,0C258,411.2,257.4,411.1,256.8,410.8z M259.7,406
					c0.5,0,0.9-0.1,1.3-0.4c0.4-0.2,0.6-0.6,0.8-1l0-0.7c0-0.4-0.2-0.7-0.5-0.9c-0.3-0.2-0.7-0.4-1.2-0.4l-1.2,0
					c-0.6,0-1,0.1-1.3,0.4s-0.5,0.6-0.5,1l0,0.6c0,0.4,0.1,0.7,0.4,1c0.3,0.3,0.6,0.4,1.1,0.4L259.7,406z"/>
				</g>
			</g>
		</g>
		<path class="st6" d="M897.4,410.3"/>
		<circle class="st7" cx="587.2" cy="411.1" r="295.1"/>
		<line class="st8" x1="279.1" y1="410.6" x2="897.4" y2="410.6"/>
		<line class="st2" x1="587.7" y1="410.6" x2="897.2" y2="410.6"/>
		<line class="st3" x1="587.7" y1="410.6" x2="892.1" y2="467.5"/>
		<line class="st3" x1="587.7" y1="410.6" x2="876.6" y2="522.4"/>
		<line class="st3" x1="587.7" y1="410.6" x2="851.1" y2="573.6"/>
		<line class="st3" x1="587.7" y1="410.6" x2="816.7" y2="619.1"/>
		<line class="st3" x1="587.7" y1="410.6" x2="774.5" y2="657.6"/>
		<line class="st3" x1="587.7" y1="410.6" x2="726" y2="687.8"/>
		<line class="st3" x1="587.7" y1="410.6" x2="672.8" y2="708.4"/>
		<line class="st3" x1="587.7" y1="410.6" x2="616.6" y2="718.8"/>
		<line class="st3" x1="587.7" y1="410.6" x2="559.6" y2="718.8"/>
		<line class="st3" x1="587.7" y1="410.6" x2="503.5" y2="708.4"/>
		<line class="st3" x1="587.7" y1="410.6" x2="450.3" y2="687.6"/>
		<line class="st3" x1="587.7" y1="410.6" x2="401.9" y2="657.5"/>
		<line class="st3" x1="587.7" y1="410.6" x2="359.9" y2="619.1"/>
		<line class="st3" x1="587.7" y1="410.6" x2="325.4" y2="573.8"/>
		<line class="st3" x1="587.7" y1="410.6" x2="300" y2="522.8"/>
		<line class="st3" x1="587.7" y1="410.6" x2="284.4" y2="468"/>
		<line class="st2" x1="587.7" y1="410.6" x2="279.2" y2="410.6"/>
		<g class="st9">
			<path class="st10" d="M897.2,410.6c0,79.5-30.1,153.6-80.5,208.5c-25.8,28.1-56.6,51.6-90.7,68.6c-42.3,21.1-89.7,32.4-137.8,32.4
			c-170.7,0-309-138.8-309-309.5"/>
			<path class="st10" d="M858.4,410.6c0,69.6-26.4,134.4-70.4,182.5c-22.6,24.6-49.5,45.2-79.4,60.1c-37,18.5-78.5,28.3-120.6,28.3
			c-149.3,0-270.4-121.5-270.4-270.8"/>
			<path class="st10" d="M819.7,410.6c0,59.6-22.6,115.2-60.4,156.4c-19.3,21.1-42.4,38.7-68,51.5c-31.7,15.8-67.3,24.3-103.4,24.3
			c-128,0-231.8-104.1-231.8-232.1"/>
			<path class="st10" d="M780.9,410.6c0,49.7-18.8,96-50.3,130.3c-16.1,17.5-35.4,32.3-56.7,42.9c-26.5,13.2-56.1,20.2-86.1,20.2
			c-106.7,0-193.1-86.8-193.1-193.4"/>
			<path class="st10" d="M742.1,410.6c0,39.8-15.1,76.8-40.3,104.3c-12.9,14-28.3,25.8-45.3,34.3c-21.2,10.5-44.9,16.2-68.9,16.2
			c-85.3,0-154.5-69.4-154.5-154.8"/>
			<path class="st10" d="M703.4,410.6c0,29.8-11.3,57.6-30.2,78.2c-9.7,10.5-21.2,19.4-34,25.7c-15.9,7.9-33.6,12.1-51.7,12.1
			c-64,0-115.9-52.1-115.9-116.1"/>
			<path class="st10" d="M664.6,410.6c0,19.9-7.5,38.4-20.1,52.1c-6.4,7-14.1,12.9-22.7,17.2c-10.6,5.3-22.4,8.1-34.5,8.1
			c-42.7,0-77.2-34.7-77.2-77.4"/>
			<path class="st10" d="M625.8,410.6c0,9.9-3.8,19.2-10.1,26.1c-3.2,3.5-7.1,6.5-11.3,8.6c-5.3,2.6-11.2,4-17.2,4
			c-21.3,0-38.6-17.4-38.6-38.7"/>
			<polyline class="st10" points="587,410.6 587,410.6 587,410.6 		"/>
		</g>
		<polygon class="st11" points="575.9,411 575.6,413.2 573.6,416.3 570.2,421.6 571.2,425.8 571.6,431.9 575.1,435.6 575.7,452.3
		584.2,446 590.8,447.6 600.3,456.2 608.9,454 613.2,445.1 618.6,439.4 629.8,437.2 670.2,443 737.9,439.1 897.2,411 	"/>
		<polygon
			class="st11"
			points="543.5,410.5 541.7,419.2 535.8,430.8 527.8,447.9 530.4,463.2 537.6,477.4 547,493.2 557.5,518.4
		576.2,540 601.6,555.1 630.6,559.4 665.8,566.2 700.2,558.7 718.9,529.6 741.3,505.2 768,480.1 786.6,447.5 818,410.4 587.4,410.5
			"/>
		<polygon class="st11" points="575.2,410.9 572.2,413.8 566.1,419.3 555.8,430.7 552.7,442.9 550.8,459.9 556.1,474.6 564.2,493.8
		579.7,498.5 595,489.1 608.2,482.9 620.2,476.2 630.2,467.1 634,453.1 636.3,441 638.2,430.4 639.4,420.6 641.4,410.9 	"/>
	</g>
	<g id="NOMI">
		<g class="st12">
			<g>
				<text transform="matrix(1 0 0 1 511.4575 130.3006)">
					<tspan x="0" y="0" class="st5 st13 st14">NATURAL AND
					</tspan>
					<tspan x="-9.5" y="25.8" class="st5 st13 st14">SEMISYNTHETIC
					</tspan>
					<tspan x="34" y="51.7" class="st5 st13 st14">OPIOIDS</tspan>
					<tspan x="73.3" y="77.5" class="st5 st13 st14"></tspan>
				</text>
			</g>
			<rect x="456.2" y="117.4" class="st4" width="263" height="162"/>
		</g>
		<g class="st12">
			<g>
				<text transform="matrix(1 0 0 1 213.9702 155.8694)">
					<tspan x="0" y="0" class="st5 st13 st14">SYNTHETIC</tspan>
					<tspan x="15.6" y="25.8" class="st5 st13 st14">OPIOIDS</tspan>
					<tspan x="54.9" y="51.7" class="st5 st13 st14"></tspan>
				</text>
			</g>
			<rect x="140.3" y="115" class="st4" width="263" height="162"/>
		</g>
		<g class="st12">
			<text transform="matrix(1 0 0 1 838.9995 182.0257)">
				<tspan x="0" y="0" class="st5 st13 st14">METHADONE</tspan>
				<tspan x="62" y="25" class="st5 st13 st15"></tspan>
			</text>
			<rect x="772.3" y="115" class="st4" width="263" height="123.3"/>
		</g>
	</g>
	<g id="NATURAL" class="centro">
		<polygon
			class="st16"
			points="543.5,411.5 541.7,420.2 535.8,431.8 527.8,448.9 530.4,464.2 537.6,478.4 547,494.2 557.5,519.4
		576.2,541 601.6,556.1 630.6,560.4 665.8,567.2 700.2,559.7 718.9,530.6 741.3,506.2 768,481.1 786.6,448.5 818,411.4 587.4,411.5
			"/>
		<text transform="matrix(1 0 0 1 530.2735 342.5965)">
			<tspan x="0" y="0" class="st17 st13 st18">147.957</tspan>
			<tspan x="4.2" y="37.3" class="st17 st19 st20">deaths</tspan>
			<tspan x="102.6" y="37.3" class="st17 st21 st20"></tspan>
		</text>
		<g>
			<text transform="matrix(1 0 0 1 511.4575 130.3006)">
				<tspan x="0" y="0" class="st5 st13 st14">NATURAL AND
				</tspan>
				<tspan x="-9.5" y="25.8" class="st5 st13 st14">SEMISYNTHETIC
				</tspan>
				<tspan x="34" y="51.7" class="st5 st13 st14">OPIOIDS</tspan>
				<tspan x="73.4" y="76.6" class="st5 st13 st15"></tspan>
			</text>
			<rect x="406.4" y="214" class="st4" width="361.6" height="56.5"/>
			<text transform="matrix(1 0 0 1 414.1823 225.4149)">
				<tspan x="0" y="0" class="st5 st19 st22">morphine . codeine . oxycodone . hydrocodone
				</tspan>
				<tspan x="56.7" y="19.6" class="st5 st19 st22">hydromorphone . oxymorphone</tspan>
			</text>
			<rect x="456.2" y="117.4" class="st4" width="263" height="162"/>
			<line class="st23" x1="518.4" y1="192.5" x2="656.9" y2="192.5"/>
		</g>
	</g>
	<g id="METHADONE" class="destra">
		<polygon class="st16" points="575.2,411.4 572.2,414.3 566.1,419.8 555.8,431.2 552.7,443.4 550.8,460.4 556.1,475.1 564.2,494.3
		579.7,499 595,489.6 608.2,483.4 620.2,476.7 630.2,467.6 634,453.6 636.3,441.5 638.2,430.9 639.4,421.1 641.4,411.4 	"/>
		<text transform="matrix(1 0 0 1 534.1856 342.5965)">
			<tspan x="0" y="0" class="st17 st13 st18">63.997</tspan>
			<tspan x="0.3" y="37.3" class="st17 st19 st20">deaths</tspan>
			<tspan x="98.7" y="37.3" class="st17 st21 st20"></tspan>
		</text>
		<g>
			<text transform="matrix(1 0 0 1 838.9995 182.0257)">
				<tspan x="0" y="0" class="st5 st13 st14" >METHADONE</tspan>
				<tspan x="62" y="25" class="st5 st13 st15"></tspan>
			</text>
			<rect x="772.3" y="115" class="st4" width="263" height="123.3"/>
			<line class="st23" x1="834.6" y1="192.5" x2="973.1" y2="192.5"/>
		</g>
	</g>
	<g id="SYNTETIC" class="sinistra">
		<polygon
			class="st16"
			points="575.9,411.5 575.6,413.7 573.6,416.8 570.2,422.1 571.2,426.3 571.6,432.4 575.1,436.1 575.7,452.8
		584.2,446.5 590.8,448.1 600.3,456.7 608.9,454.5 613.2,445.6 618.6,439.9 629.8,437.7 670.2,443.5 737.9,439.6 897.2,411.5 	"/>
		<text transform="matrix(1 0 0 1 533.0967 342.5965)">
			<tspan x="0" y="0" class="st17 st13 st18">64.685</tspan>
			<tspan x="1.4" y="37.3" class="st17 st19 st20">deaths</tspan>
			<tspan x="99.8" y="37.3" class="st17 st21 st20"></tspan>
		</text>
		<g>
			<text transform="matrix(1 0 0 1 213.9702 155.8694)">
				<tspan x="0" y="0" class="st5 st13 st14">SYNTHETIC</tspan>
				<tspan x="15.6" y="25.8" class="st5 st13 st14">OPIOIDS</tspan>
				<tspan x="55" y="50.8" class="st5 st13 st15"></tspan>
			</text>
			<rect x="194.5" y="211.6" class="st4" width="154.5" height="28.2"/>
			<text transform="matrix(1 0 0 1 200.8764 223.6468)">
				<tspan x="0" y="0" class="st5 st19 st22">fentanyl . tramadol</tspan>
				<tspan x="141.8" y="0" class="st5 st21 st22"></tspan>
			</text>
			<rect x="140.3" y="115" class="st4" width="263" height="162"/>
			<line class="st23" x1="201.9" y1="192.5" x2="340.4" y2="192.5"/>
		</g>
	</g>
</svg>
