<?xml version="1.0" encoding="utf-8"?>
<!-- Generator: Adobe Illustrator 21.1.0, SVG Export Plug-In . SVG Version: 6.00 Build 0) -->
<svg id="whopaidwho" version="1.1" xmlns="http://www.w3.org/2000/svg" xmlns:xlink="http://www.w3.org/1999/xlink" x="0px" y="0px" viewBox="0 0 1209 1659" style="enable-background:new 0 0 1209 1659;" xml:space="preserve">

	<g id="Hydrocodone">
		<path class="st0" d="M954.6,399.9c0,271.3-165.4,271.3-165.4,542.6"/>
		<path class="st0" d="M727.9,399.9c0,271.3,61.2,271.3,61.2,542.6"/>
		<path class="st0" d="M647.8,399.9c0,271.3,141.3,271.3,141.3,542.6"/>
		<path class="st1" d="M535.7,399.8c0,271.3,206.1,271.3,206.1,542.6"/>
		<path class="st0" d="M308.9,399.7c0,271.3,385.6,271.3,385.6,542.6"/>
		<path class="st0" d="M967.8,399.9c0,271.3-178.6,271.3-178.6,542.6"/>
		<path class="st0" d="M433.9,399.9c0,271.3,260.8,271.3,260.8,542.6"/>
		<path class="st0" d="M392.6,400c0,271.3,302.1,271.3,302.1,542.6"/>
		<path class="st0" d="M352.9,399.9c0,271.3,341.6,271.3,341.6,542.6"/>
		<g class="st2">
			<polygon class="st3" points="738.6,1470.8 738.6,1473.3 736.5,1474.5 734.4,1473.3 734.4,1470.8 736.5,1469.6 		"/>
			<polygon class="st3" points="739.3,1463.3 738.4,1466.1 735.7,1466.7 733.7,1464.7 734.5,1461.9 737.3,1461.3 		"/>
			<polygon class="st3" points="739.7,1424.2 740.8,1428.6 737.5,1431.6 733.2,1430.3 732.2,1426 735.5,1422.9 		"/>
			<polygon class="st3" points="743.6,1414.8 743,1419.9 738.3,1421.9 734.2,1418.8 734.8,1413.7 739.5,1411.7 		"/>
			<polygon class="st3" points="739.4,1405.1 738.7,1410.5 733.7,1412.7 729.4,1409.4 730,1404 735,1401.8 		"/>
			<polygon class="st3" points="741.1,1388.9 742.4,1394.9 737.9,1399.1 732,1397.3 730.7,1391.2 735.2,1387 		"/>
			<polygon class="st3" points="734.2,1376.5 733.5,1383.3 727.4,1386.2 721.8,1382.3 722.4,1375.4 728.6,1372.5 		"/>
			<polygon class="st3" points="747.4,1371.6 746.8,1378.4 740.6,1381.3 735,1377.4 735.6,1370.5 741.8,1367.6 		"/>
			<polygon class="st3" points="733.4,1359.9 735.2,1366.9 730.1,1371.9 723.2,1370 721.4,1363 726.5,1358 		"/>
			<polygon class="st3" points="746.6,1351.9 747.7,1359.6 741.7,1364.4 734.5,1361.6 733.3,1353.9 739.4,1349 		"/>
			<polygon class="st3" points="734.5,1339.4 737.3,1347.3 731.9,1353.6 723.8,1352.1 721,1344.2 726.4,1337.9 		"/>
			<polygon class="st3" points="721.4,1338.6 719.4,1347.1 711.1,1349.5 704.8,1343.5 706.9,1335 715.2,1332.6 		"/>
			<polygon class="st3" points="751.6,1335.7 747.8,1343.5 739.1,1344.1 734.4,1336.8 738.2,1329 746.8,1328.5 		"/>
			<polygon class="st3" points="763.4,1348.3 759.5,1356.1 750.9,1356.7 746.1,1349.4 750,1341.6 758.6,1341.1 		"/>
			<polygon class="st3" points="736,1318.1 738,1327.3 731.2,1333.7 722.3,1330.9 720.2,1321.7 727.1,1315.3 		"/>
			<polygon class="st3" points="753.9,1312.5 748.1,1321 737.8,1320.3 733.3,1310.9 739.1,1302.3 749.4,1303.1 		"/>
			<polygon class="st3" points="760.2,1365.9 757,1372.3 749.9,1372.8 745.9,1366.8 749.1,1360.3 756.3,1359.8 		"/>
		</g>
	</g>
	<g id="Tapentadol">
		<path class="st4" d="M917.2,399.8c0,271.3-476.4,271.3-476.4,542.6"/>
		<g class="st2">
			<polygon class="st3" points="429,1347.8 433.9,1353.8 431.2,1361 423.5,1362.2 418.6,1356.3 421.4,1349 		"/>
			<polygon class="st3" points="443.8,1337.2 446.7,1345.3 441.2,1351.9 432.7,1350.4 429.8,1342.3 435.3,1335.7 		"/>
			<polygon class="st3" points="435.1,1322.7 437.3,1331.6 430.7,1338 421.9,1335.5 419.6,1326.6 426.2,1320.2 		"/>
			<polygon class="st3" points="431.9,1301.1 434.5,1311.2 427,1318.4 417,1315.6 414.5,1305.5 422,1298.3 		"/>
			<polygon class="st3" points="454.7,1300.7 448.6,1309.7 437.7,1308.9 433,1299.1 439.2,1290.1 450,1290.9 		"/>
			<polygon class="st3" points="435.2,1277.3 438,1288.3 429.9,1296.2 418.9,1293.1 416.2,1282.1 424.3,1274.2 		"/>
			<polygon class="st3" points="453.1,1259 452.3,1271.7 440.9,1277.3 430.3,1270.3 431.1,1257.6 442.5,1251.9 		"/>
			<polygon class="st3" points="428.1,1259.7 425.2,1272.1 413,1275.8 403.7,1267.1 406.6,1254.7 418.8,1251 		"/>
			<polygon class="st3" points="446.4,1185.1 442.3,1202.6 426.1,1208 414,1196 418.1,1178.5 434.3,1173.1 		"/>
			<polygon class="st3" points="454.1,992.2 428.4,985.6 409.8,1004.5 416.9,1030.1 442.6,1036.7 461.2,1017.8 		"/>
		</g>
		<path class="st0" d="M829.1,399.9c0,271.3-412.6,271.3-412.6,542.6"/>
		<path class="st5" d="M804.8,399.9c0,271.3-399.5,271.3-399.5,542.6"/>
		<path class="st0" d="M754.4,399.9c0,271.3-359.9,271.3-359.9,542.6"/>
		<path class="st0" d="M780.7,399.9c0,271.3-386.3,271.3-386.3,542.6"/>
	</g>
	<g id="Morphine">
		<path class="st6" d="M694.5,399.8c0,271.3-196.1,271.3-196.1,542.6"/>
		<path class="st0" d="M661.1,399.8c0,271.3-182.9,271.3-182.9,542.6"/>
		<path class="st0" d="M379.5,399.9c0,271.3,98.7,271.3,98.7,542.6"/>
	</g>
	<g id="Methadone">
		<path class="st0" d="M741.1,399.8c0,271.3-209.3,271.3-209.3,542.6"/>
		<path class="st0" d="M379.4,399.9c0,271.3,152.5,271.3,152.5,542.6"/>
	</g>
	<g id="Fentanyl">
		<path class="st0" d="M842.2,399.9c0,271.3-266.3,271.3-266.3,542.6"/>
		<path class="st0" d="M366.2,399.9c0,271.3,209.7,271.3,209.7,542.6"/>
		<path class="st7" d="M337.5,399.9c0,271.3,223,271.3,223,542.6"/>
		<g class="st2">
			<polygon class="st3" points="560.2,1469.7 558.7,1472.1 555.9,1472.1 554.5,1469.7 555.9,1467.2 558.7,1467.2 		"/>
			<polygon class="st3" points="567.9,1414.9 567.9,1420.1 563.4,1422.7 558.9,1420.1 558.9,1414.9 563.4,1412.3 		"/>
			<polygon class="st3" points="552.3,1414.7 553.7,1419.7 550.1,1423.4 545.1,1422.1 543.7,1417.1 547.3,1413.4 		"/>
			<polygon class="st3" points="555.6,1405.4 560.1,1408 560.1,1413.2 555.6,1415.7 551.1,1413.2 551.1,1408 		"/>
			<polygon class="st3" points="548.5,1396.5 553.4,1399.3 553.4,1405.1 548.5,1408 543.5,1405.1 543.5,1399.3 		"/>
			<polygon class="st3" points="559.7,1394.2 564.7,1397 564.7,1402.8 559.7,1405.7 554.8,1402.8 554.8,1397 		"/>
			<polygon class="st3" points="570.4,1402.7 574.2,1407 572.4,1412.5 566.7,1413.6 562.9,1409.3 564.8,1403.9 		"/>
			<polygon class="st3" points="561.6,1358.3 562.8,1365.6 557,1370.3 550.1,1367.7 548.9,1360.3 554.7,1355.6 		"/>
			<polygon class="st3" points="564.7,1317.4 566.2,1326.7 558.8,1332.7 550,1329.3 548.5,1320 555.8,1314 		"/>
			<polygon class="st3" points="565.5,1292.4 568,1303 560.2,1310.4 549.8,1307.4 547.3,1296.9 555.1,1289.4 		"/>
			<polygon class="st3" points="566,1368.8 571,1374.5 568.6,1381.7 561.2,1383.2 556.2,1377.5 558.6,1370.3 		"/>
			<polygon class="st3" points="552.8,1378 558.6,1381.3 558.6,1388.1 552.8,1391.4 547,1388.1 547,1381.3 		"/>
		</g>
	</g>
	<g id="Codeine">
		<path class="st8" d="M380.1,399.8c-0.8,271.3,209.8,271.6,209.1,542.9"/>
	</g>
	<g id="Oxymorphone">
		<polygon class="st9" points="594.8,1421.5 592.3,1425.9 587.1,1425.9 584.6,1421.5 587.1,1417 592.3,1417 	"/>
		<path class="st10" d="M861,399.9c0,271.3-253.2,271.3-253.2,542.6"/>
	</g>
	<g id="Oxycodone">
		<path class="st0" d="M879.7,399.8c0,271.3-211.7,271.3-211.7,542.6"/>
		<path class="st11" d="M467.7,399.8c0,271.3,179.6,271.3,179.6,542.6"/>
		<path class="st0" d="M433.8,399.9c0,271.3,192.8,271.3,192.8,542.6"/>
	</g>
	<g id="Hydromorphone">
		<path class="st0" d="M741.1,399.8c0,271.3-59.8,271.3-59.8,542.6"/>
	</g>
	<g id="Buprenorphine">
		<path class="st0" d="M647.8,399.9c0,271.3,234.3,271.3,234.3,542.6"/>
		<path class="st12" d="M608.8,399.8c0,271.3,247.5,271.3,247.5,542.6"/>
		<path class="st0" d="M433.9,399.9c0,271.3,396.6,271.3,396.6,542.6"/>
		<path class="st13" d="M406.6,400c0,271.3,409.7,271.3,409.7,542.6"/>
		<g class="st2">
			<polygon class="st3" points="846.3,1416.7 847.4,1421.6 843.6,1425 838.8,1423.4 837.8,1418.5 841.5,1415.1 		"/>
			<polygon class="st3" points="851.8,1407.3 853.8,1411.9 850.8,1416 845.8,1415.4 843.8,1410.8 846.8,1406.7 		"/>
			<polygon class="st3" points="841.1,1398 843.4,1403.3 840,1407.9 834.3,1407.3 832,1402 835.4,1397.4 		"/>
			<polygon class="st3" points="852.4,1393.2 853,1398.9 848.3,1402.3 843,1399.9 842.5,1394.2 847.2,1390.8 		"/>
			<polygon class="st3" points="848,1380.7 848.7,1387.3 843.3,1391.2 837.2,1388.5 836.5,1381.8 842,1377.9 		"/>
			<polygon class="st3" points="835.6,1385.1 832.2,1390.9 825.6,1390.9 822.2,1385.1 825.6,1379.3 832.2,1379.3 		"/>
			<polygon class="st3" points="857.3,1372.9 853.8,1379 846.8,1379 843.3,1372.9 846.8,1366.9 853.8,1366.9 		"/>
			<polygon class="st3" points="850.9,1336.8 844.5,1343.2 835.8,1340.8 833.4,1332.1 839.8,1325.7 848.5,1328.1 		"/>
			<polygon class="st3" points="853,1292.4 848.9,1302.7 837.7,1304.2 830.7,1295.4 834.9,1285.1 846.1,1283.6 		"/>
			<polygon class="st3" points="838.8,1411 838.8,1416.1 834.4,1418.6 830,1416.1 830,1411 834.4,1408.5 		"/>
		</g>
	</g>
	<g id="Livello_1">
		<text transform="matrix(0.453 -0.8915 0.8915 0.453 970.4249 388.8175)" class="st3 st14 st15">ABBVIE, INC.</text>
		<rect x="967.8" y="395.3" class="st3" width="0" height="4.7"/>
		<rect x="967.1" y="395.3" class="st3" width="1.3" height="4.7"/>
		<g>
			<rect x="690.5" y="942.4" class="st3" width="103.1" height="4.7"/>
		</g>
		<g>
			<text transform="matrix(1 0 0 1 716.1318 1313.6235)" class="st3 st16 st17">JAYDEEP JOSHI</text>
		</g>
		<text transform="matrix(0 0.8084 -1 0 736.1602 876.6099)" class="st3 st18 st19">Hydrocodone</text>
		<g>
			<text transform="matrix(0.4671 -0.8842 0.8842 0.4671 956.6925 388.9651)" class="st3 st14 st15">BANNER LIFE SCIENCES, LLC</text>
		</g>
		<rect x="954.6" y="395.3" class="st3" width="0" height="4.7"/>
		<rect x="953.9" y="395.3" class="st3" width="1.3" height="4.7"/>
		<g>
			<rect x="690.5" y="942.4" class="st3" width="103.1" height="4.7"/>
		</g>
		<text transform="matrix(0.4553 -0.8903 0.8903 0.4553 920.184 388.8752)" class="st3 st14 st15">DEPOMED, INC.</text>
		<g>
			<text transform="matrix(1 0 0 1 403.751 1014.5625)" class="st3 st16 st17">MICHELLE BROWN</text>
		</g>
		<g>
			<rect x="393.9" y="942.3" class="st3" width="69.1" height="4.7"/>
		</g>
		<text transform="matrix(0 0.8084 -1 0 428.5635 885.8973)" class="st3 st18 st19">Tapentadol</text>
		<rect x="895.1" y="395.2" class="st3" width="44" height="4.7"/>
		<text transform="matrix(0.4435 -0.8963 0.8963 0.4435 882.2047 389.1792)" class="st3 st14 st15">EGALET US INC</text>
		<rect x="879" y="395.2" class="st3" width="1.3" height="4.7"/>
		<g>
			<rect x="625.9" y="942.4" class="st3" width="42.7" height="4.7"/>
		</g>
		<text transform="matrix(0 0.8084 -1 0 643.5317 884.7642)" class="st3 st18 st19">Oxycodone</text>
		<text transform="matrix(0.472 -0.8816 0.8816 0.472 863.0869 389.8032)" class="st3 st14 st15">ENDO PHARMACEUTICALS INC.</text>
		<rect x="856.3" y="395.3" class="st3" width="9.5" height="4.7"/>
		<g>
			<rect x="603" y="942.4" class="st3" width="9.6" height="4.7"/>
		</g>
		<text transform="matrix(0 0.8084 -1 0 605.4795 873.9783)" class="st3 st18 st19">Oxymorphone</text>
		<text transform="matrix(0.4687 -0.8834 0.8834 0.4687 844.2523 389.7854)" class="st3 st14 st15">GALENA BIOPHARMA, INC.</text>
		<rect x="841.6" y="395.2" class="st3" width="1.3" height="4.7"/>
		<g>
			<text transform="matrix(1 0 0 1 532.1948 1302.9824)" class="st3 st16 st17">STEVEN SIMON</text>
		</g>
		<g>
			<rect x="546.6" y="942.4" class="st3" width="29.9" height="4.7"/>
		</g>
		<text transform="matrix(0 0.8084 -1 0 556.3545 896.0445)" class="st3 st18 st19">Fentanyl</text>
		<text transform="matrix(0.486 -0.8739 0.8739 0.486 830.3681 389.8132)" class="st3 st14 st15">JANSSEN BIOTECH, INC.</text>
		<rect x="828.5" y="395.3" class="st3" width="1.3" height="4.7"/>
		<g>
			<rect x="393.9" y="942.5" class="st3" width="69.1" height="4.7"/>
		</g>
		<text transform="matrix(0.4791 -0.8778 0.8778 0.4791 806.451 389.7406)" class="st3 st14 st15">JANSSEN PHARMACEUTICALS, INC</text>
		<rect x="795" y="395.3" class="st3" width="19.6" height="4.7"/>
		<g>
			<rect x="393.8" y="942.4" class="st3" width="69.1" height="4.7"/>
		</g>
		<text transform="matrix(0.4736 -0.8807 0.8807 0.4736 781.4661 389.517)">
			<tspan x="0" y="0" class="st3 st18 st17">J</tspan>
			<tspan x="4.8" y="0" class="st3 st14 st15">ANSSEN RESEARCH &amp; DEVELOPMENT, LLC</tspan>
		</text>
		<rect x="780.7" y="395.2" class="st3" width="0" height="4.7"/>
		<rect x="780.1" y="395.3" class="st3" width="1.3" height="4.7"/>
		<g>
			<rect x="393.8" y="942.4" class="st3" width="69.1" height="4.7"/>
		</g>
		<text transform="matrix(0.462 -0.8869 0.8869 0.462 754.7864 389.243)" class="st3 st14 st15">JOHNSON &amp; JOHNSON HEALTH CARE SYSTEMS INC.</text>
		<rect x="754.4" y="395.2" class="st3" width="0" height="4.7"/>
		<rect x="753.7" y="395.3" class="st3" width="1.3" height="4.7"/>
		<g>
			<rect x="393.8" y="942.4" class="st3" width="69.1" height="4.7"/>
		</g>
		<text transform="matrix(0.4534 -0.8913 0.8913 0.4534 742.4549 389.035)" class="st3 st14 st15">MALLINCKRODT LLC</text>
		<rect x="741.2" y="395.2" class="st3" width="0" height="4.7"/>
		<rect x="740.4" y="395.2" class="st3" width="1.3" height="4.7"/>
		<g>
			<rect x="681.4" y="942.3" class="st3" width="0" height="4.7"/>
		</g>
		<g>
			<rect x="531.8" y="942.3" class="st3" width="0" height="4.7"/>
		</g>
		<rect x="680.6" y="942.3" class="st3" width="1.3" height="4.7"/>
		<rect x="531.1" y="942.3" class="st3" width="1.3" height="4.7"/>
		<text transform="matrix(0 0.8084 -1 0 678.6504 865.1522)" class="st3 st18 st19">Hydromorphone</text>
		<text transform="matrix(0 0.8084 -1 0 529.0977 884.658)" class="st3 st18 st19">Methadone</text>
		<text transform="matrix(0.4607 -0.8876 0.8876 0.4607 729.1993 389.2282)" class="st3 st14 st15">PERNIX THERAPEUTICS HOLDINGS, INC.</text>
		<rect x="727.2" y="395.3" class="st3" width="1.3" height="4.7"/>
		<g>
			<rect x="690.5" y="942.4" class="st3" width="103.1" height="4.7"/>
		</g>
		<text transform="matrix(0.4612 -0.8873 0.8873 0.4612 694.488 389.4532)" class="st3 st14 st15">PFIZER INC.</text>
		<rect x="676.2" y="395.2" class="st3" width="36.4" height="4.7"/>
		<g>
			<rect x="531.7" y="942.3" class="st3" width="0" height="4.7"/>
		</g>
		<g>
			<rect x="477.4" y="942.3" class="st3" width="39.3" height="4.7"/>
		</g>
		<text transform="matrix(0 0.8084 -1 0 495.8691 892.076)" class="st3 st18 st19">Morphine</text>
		<text transform="matrix(0.4388 -0.8986 0.8986 0.4388 662.3608 389.4286)" class="st3 st14 st15">PFIZER PHARMACEUTICALS LLC</text>
		<rect x="660.9" y="395.1" class="st3" width="0" height="4.7"/>
		<rect x="660.4" y="395.1" class="st3" width="1.3" height="4.7"/>
		<g>
			<rect x="477.4" y="942.2" class="st3" width="39.3" height="4.7"/>
		</g>
		<text transform="matrix(0.4381 -0.8989 0.8989 0.4381 648.9423 389.3759)" class="st3 st14 st15">PURDUE PHARMA</text>
		<rect x="647.8" y="395.3" class="st3" width="0" height="4.7"/>
		<rect x="647.1" y="395.3" class="st3" width="1.3" height="4.7"/>
		<g>
			<text transform="matrix(1 0 0 1 811.6772 1298.0056)" class="st3 st16 st17">JOSEPH PERGOLIZZI</text>
		</g>
		<g>
			<rect x="803.6" y="942.4" class="st3" width="79" height="4.7"/>
		</g>
		<text transform="matrix(0 0.8084 -1 0 841.9033 870.9766)" class="st3 st18 st19">Buprenorphine</text>
		<g>
			<rect x="690.5" y="942.4" class="st3" width="103.1" height="4.7"/>
		</g>
		<text transform="matrix(0.4553 -0.8903 0.8903 0.4553 557.8344 389.7178)" class="st3 st14 st15">PURDUE PHARMA L.P.</text>
		<rect x="448.6" y="395.2" class="st3" width="184.1" height="4.7"/>
		<g>
			<rect x="803.6" y="942.4" class="st3" width="79" height="4.7"/>
		</g>
		<g>
			<rect x="625.9" y="942.4" class="st3" width="42.7" height="4.7"/>
		</g>
		<g>
			<rect x="690.5" y="942.4" class="st3" width="103.1" height="4.7"/>
		</g>
		<text transform="matrix(0.469 -0.8832 0.8832 0.469 436.2234 389.0762)" class="st3 st14 st15">PURDUE PHARMA OF PUERTO RICO</text>
		<rect x="433.9" y="395.3" class="st3" width="0" height="4.7"/>
		<rect x="433.2" y="395.3" class="st3" width="1.3" height="4.7"/>
		<g>
			<rect x="803.7" y="942.4" class="st3" width="79" height="4.7"/>
		</g>
		<g>
			<rect x="681.4" y="942.4" class="st3" width="0" height="4.7"/>
		</g>
		<g>
			<rect x="626" y="942.4" class="st3" width="42.7" height="4.7"/>
		</g>
		<rect x="680.6" y="942.4" class="st3" width="1.3" height="4.7"/>
		<g>
			<rect x="690.5" y="942.4" class="st3" width="103.1" height="4.7"/>
		</g>
		<text transform="matrix(0.4798 -0.8774 0.8774 0.4798 408.8572 388.7655)" class="st3 st14 st15">PURDUE TRANSDERMAL TECHNOLOGIES L.P.</text>
		<rect x="392" y="395.4" class="st3" width="27.2" height="4.7"/>
		<g>
			<rect x="803.6" y="942.5" class="st3" width="79" height="4.7"/>
		</g>
		<g>
			<rect x="690.5" y="942.5" class="st3" width="103.1" height="4.7"/>
		</g>
		<text transform="matrix(0.4809 -0.8768 0.8768 0.4809 382.9249 388.8073)" class="st3 st14 st15">ROXANE LABORATORIES, INC.</text>
		<rect x="379.4" y="395.2" class="st3" width="0" height="4.7"/>
		<rect x="378.7" y="395.2" class="st3" width="1.9" height="4.7"/>
		<g>
			<text transform="matrix(1 0 0 1 571.958 1423.9976)" class="st3 st16 st17">DONALD FORTIN</text>
		</g>
		<g>
			<rect x="477.5" y="942.4" class="st3" width="39.3" height="4.7"/>
		</g>
		<rect x="588.5" y="942.4" class="st3" width="1.3" height="4.7"/>
		<rect x="531.2" y="942.4" class="st3" width="1.3" height="4.7"/>
		<text transform="matrix(0 0.8084 -1 0 585.3369 898.5005)" class="st3 st18 st19">Codeine</text>
		<text transform="matrix(0.4805 -0.877 0.877 0.4805 368.0639 389.7133)" class="st3 st14 st15">SENTYNL THERAPEUTICS, INC.</text>
		<rect x="366.1" y="395.3" class="st3" width="0" height="4.7"/>
		<rect x="365.6" y="395.3" class="st3" width="1.3" height="4.7"/>
		<g>
			<rect x="546.6" y="942.5" class="st3" width="29.9" height="4.7"/>
		</g>
		<text transform="matrix(0.475 -0.88 0.88 0.475 336.2064 390.1072)" class="st3 st14 st15">TEVA PHARMACEUTICALS USA, INC.</text>
		<g>
			<rect x="323.6" y="395.3" class="st3" width="30" height="4.7"/>
		</g>
		<g>
			<rect x="690.5" y="942.4" class="st3" width="103.1" height="4.7"/>
		</g>
		<g>
			<rect x="546.6" y="942.4" class="st3" width="29.9" height="4.7"/>
		</g>
		<text transform="matrix(0.4655 -0.8851 0.8851 0.4655 311.8177 388.2198)" class="st3 st14 st15">ZOGENIX INC.</text>
		<g>
			<rect x="690.4" y="942.2" class="st3" width="103.1" height="4.7"/>
		</g>
		<rect x="308.2" y="395" class="st3" width="1.3" height="4.7"/>
		<g>
			<text transform="matrix(0 -1 1 0 356.1714 1486.3936)" class="st3 st20 st19">40,000</text>
		</g>
		<g>
			<text transform="matrix(0 -1 1 0 356.1714 1424.5488)" class="st3 st20 st19">80,000</text>
		</g>
		<g>
			<text transform="matrix(0 -1 1 0 356.1714 1365.7246)" class="st3 st20 st19">120,000</text>
		</g>
		<g>
			<text transform="matrix(0 -1 1 0 356.1714 1303.8799)" class="st3 st20 st19">160,000</text>
		</g>
		<g>
			<text transform="matrix(0 -1 1 0 356.1714 1242.0352)" class="st3 st20 st19">200,000</text>
		</g>
		<text transform="matrix(0 -1 1 0 356.1714 1180.1904)" class="st3 st20 st19">240,000</text>
		<text transform="matrix(0 -1 1 0 356.1714 1118.3457)" class="st3 st20 st19">280,000</text>
		<text transform="matrix(0 -1 1 0 356.1714 1056.5)">
			<tspan x="0" y="0" class="st3 st20 st19">320,00</tspan>
			<tspan x="35.4" y="0" class="st3 st21 st19">0</tspan>
		</text>
		<rect x="347.4" y="1007.1" class="st22" width="13" height="7.9"/>
		<text transform="matrix(-1 0 0 1 352.376 1007.1493)" class="st20 st23">$</text>
		<line class="st24" x1="363.1" y1="1007.9" x2="363.1" y2="1468.7"/>
		<line class="st24" x1="367.8" y1="1468" x2="363.2" y2="1468"/>
		<line class="st24" x1="367.8" y1="1406.2" x2="363.2" y2="1406.2"/>
		<line class="st24" x1="367.8" y1="1344.4" x2="363.2" y2="1344.4"/>
		<line class="st24" x1="367.8" y1="1282.5" x2="363.2" y2="1282.5"/>
		<line class="st24" x1="367.8" y1="1220.7" x2="363.2" y2="1220.7"/>
		<line class="st24" x1="367.8" y1="1158.8" x2="363.2" y2="1158.8"/>
		<line class="st24" x1="367.8" y1="1097" x2="363.2" y2="1097"/>
		<line class="st24" x1="367.8" y1="1035.1" x2="363.2" y2="1035.1"/>
		<g class="st25">
			<g>
				<line class="st26" x1="366.6" y1="1468.2" x2="367.6" y2="1468.2"/>
				<line class="st27" x1="369.6" y1="1468.2" x2="935.6" y2="1468.2"/>
				<line class="st26" x1="936.6" y1="1468.2" x2="937.6" y2="1468.2"/>
			</g>
		</g>
		<g class="st25">
			<g>
				<line class="st26" x1="366.6" y1="1405.7" x2="367.6" y2="1405.7"/>
				<line class="st27" x1="369.6" y1="1405.7" x2="935.6" y2="1405.7"/>
				<line class="st26" x1="936.6" y1="1405.7" x2="937.6" y2="1405.7"/>
			</g>
		</g>
		<g class="st25">
			<g>
				<line class="st26" x1="366.6" y1="1344.1" x2="367.6" y2="1344.1"/>
				<line class="st27" x1="369.6" y1="1344.1" x2="935.6" y2="1344.1"/>
				<line class="st26" x1="936.6" y1="1344.1" x2="937.6" y2="1344.1"/>
			</g>
		</g>
		<g class="st25">
			<g>
				<line class="st26" x1="366.6" y1="1282.2" x2="367.6" y2="1282.2"/>
				<line class="st27" x1="369.6" y1="1282.2" x2="935.6" y2="1282.2"/>
				<line class="st26" x1="936.6" y1="1282.2" x2="937.6" y2="1282.2"/>
			</g>
		</g>
		<g class="st25">
			<g>
				<line class="st26" x1="367.1" y1="1220.5" x2="368.1" y2="1220.5"/>
				<line class="st27" x1="370.1" y1="1220.5" x2="936.2" y2="1220.5"/>
				<line class="st26" x1="937.2" y1="1220.5" x2="938.2" y2="1220.5"/>
			</g>
		</g>
		<g class="st25">
			<g>
				<line class="st26" x1="367.7" y1="1158.6" x2="368.7" y2="1158.6"/>
				<line class="st27" x1="370.7" y1="1158.6" x2="936.7" y2="1158.6"/>
				<line class="st26" x1="937.7" y1="1158.6" x2="938.7" y2="1158.6"/>
			</g>
		</g>
		<g class="st25">
			<g>
				<line class="st26" x1="367.1" y1="1096.7" x2="368.1" y2="1096.7"/>
				<line class="st27" x1="370.1" y1="1096.7" x2="936.2" y2="1096.7"/>
				<line class="st26" x1="937.2" y1="1096.7" x2="938.2" y2="1096.7"/>
			</g>
		</g>
		<g class="st25">
			<g>
				<line class="st26" x1="367.7" y1="1035.4" x2="368.7" y2="1035.4"/>
				<line class="st27" x1="370.7" y1="1035.4" x2="936.7" y2="1035.4"/>
				<line class="st26" x1="937.7" y1="1035.4" x2="938.7" y2="1035.4"/>
			</g>
		</g>
	</g>
</svg>
