<?xml version="1.0" encoding="utf-8"?>
<!-- Generator: Adobe Illustrator 23.0.1, SVG Export Plug-In . SVG Version: 6.00 Build 0)  -->
<svg version="1.1" id="Livello_1" xmlns="http://www.w3.org/2000/svg" xmlns:xlink="http://www.w3.org/1999/xlink" x="0px" y="0px"
	 viewBox="0 0 110.1 63.7" style="enable-background:new 0 0 110.1 63.7;" xml:space="preserve">
<style type="text/css">
	.st0{fill:#FFFFFF;}
	.st1{fill:#178D9A;}
	.st2{enable-background:new    ;}
</style>
<title>Risorsa 2</title>
<g>
	<g>
		<circle class="st0" cx="54.9" cy="19" r="18"/>
		<path class="st0" d="M54.9,2c9.4,0,17,7.6,17,17s-7.6,17-17,17s-17-7.6-17-17C37.9,9.6,45.5,2,54.9,2C54.9,2,54.9,2,54.9,2
			 M54.9,0c-10.5,0-19,8.5-19,19s8.5,19,19,19s19-8.5,19-19C73.9,8.5,65.4,0,54.9,0z"/>
	</g>
	<g>
		<path class="st1" d="M66.6,9.9c-0.8,1.1-0.9,2.5-0.2,3.7c1.1,2.1,1.5,4.6,1.2,6.9c-0.7,7-7,12-14,11.3c-0.5-0.1-1-0.1-1.4-0.2
			c-1.5-0.4-3-1-4.4-1.6c0,0,0,0-0.1,0.1c-0.1,0.4-0.2,0.7-0.4,1.1c-0.2,0.5,0,0.8,0.4,1C51,34,55,34.5,58.8,33.4
			c6.2-1.9,9.8-6.1,10.8-12.6C70.1,16.9,69,13,66.6,9.9z"/>
		<path class="st1" d="M61.8,7.9c0.1-0.2,0.2-0.4,0.3-0.6c0.5-0.9,0.2-1.3-0.6-1.7C57,3.4,51.8,3.6,47.6,6
			c-5.5,3.1-8.5,9.4-7.3,15.6c0.3,2.2,1.3,4.4,2.7,6.1c0.1-1,1.1-1.7,0.5-2.8c-1.2-2.3-1.7-5-1.3-7.6c0.8-7.1,8.1-12.5,15-10.9
			C58.7,6.7,60.2,7.4,61.8,7.9z"/>
		<path class="st1" d="M46.5,31.2c1.7-4.7,3.4-9.4,5.1-14l0.3,0c0.2,0.4,0.4,0.8,0.5,1.2c0.6,1.5,1.2,3,1.9,4.4c0.5,0.8,1.2,1.5,2,2
			c1.8,0.9,3.8-0.1,4.6-2.3c1.6-4.2,3.2-8.5,4.8-12.7c0.3-0.7,0-1-0.6-1.3c-0.1,0.3-0.2,0.6-0.4,0.9c-1.6,4.2-3.1,8.4-4.7,12.6
			c-0.4,1.4-1.8,2.3-3.2,1.9c-0.9-0.2-1.6-0.9-1.9-1.8c-0.7-1.5-1.3-3.1-1.9-4.6c-0.1-0.4-0.3-0.7-0.6-1.1c-0.3-0.5-0.9-0.6-1.3-0.3
			c-0.1,0.1-0.3,0.2-0.3,0.3c-0.2,0.3-0.4,0.6-0.5,0.9c-1.5,4.2-3,8.4-4.6,12.6C45.6,30.5,45.7,30.9,46.5,31.2z"/>
		<path class="st1" d="M44.3,29.3c0.8-2.3,1.6-4.5,2.5-6.7c0.9-2.3,1.7-4.6,2.6-6.9c0.3-1,1.2-1.7,2.3-1.7c1,0,1.9,0.5,2.4,1.4
			c0.2,0.4,0.4,0.8,0.6,1.2c0.6,1.5,1.1,2.9,1.8,4.3c0.2,0.5,0.8,1.1,1.2,1.1c0.4,0,0.8-0.7,1.2-1.1c0.1-0.2,0.2-0.3,0.2-0.5
			c0.9-2.5,1.8-5.1,2.8-7.6c0.7-1.9,1.4-3.8,2.1-5.7L63,6.6c-0.1,0.2-0.2,0.4-0.2,0.6c-1.6,4.3-3.1,8.5-4.7,12.8
			c-0.1,0.3-0.3,0.5-0.5,0.7c-0.2-0.2-0.3-0.4-0.5-0.6c-0.6-1.5-1.2-3.1-1.9-4.6c-0.5-1.5-2-2.5-3.6-2.5c-1.6,0.1-2.9,1.2-3.4,2.7
			c-1.5,4-3,8.1-4.5,12.1c-0.3,0.5-0.1,1.1,0.4,1.4C44.2,29.2,44.2,29.3,44.3,29.3z"/>
		<path class="st1" d="M64.6,7.6l-0.3,0c-0.1,0.3-0.3,0.6-0.4,0.9c-1.4,3.9-2.8,7.9-4.3,11.8c-0.2,0.5-0.4,1-0.7,1.5
			c-0.3,0.7-1.2,1-1.9,0.6c-0.3-0.1-0.5-0.3-0.6-0.6c-0.3-0.5-0.6-1-0.8-1.6c-0.7-1.6-1.3-3.1-2-4.7c-0.3-0.8-1.1-1.2-1.9-1.1
			c-0.8,0.1-1.6,0.6-1.8,1.4c-1.7,4.4-3.3,8.9-5,13.3c-0.1,0.3,0.1,0.6,0.1,0.9l0.3,0c0.1-0.2,0.2-0.5,0.3-0.7c1.5-4,2.9-8,4.4-12.1
			c0.3-1,0.7-2.1,1.9-2c1.1,0,1.5,1.1,1.9,2c0.6,1.6,1.3,3.1,2,4.7c0.4,1.1,1.6,1.7,2.7,1.3c0.6-0.2,1.1-0.7,1.3-1.4
			c1.7-4.5,3.4-9,5-13.5C64.7,8.2,64.6,7.9,64.6,7.6z"/>
		<path class="st1" d="M66.6,9.9c2.4,3.1,3.5,7,2.9,10.9c-0.9,6.5-4.6,10.7-10.8,12.6C55,34.5,51,34,47.7,32.1
			c-0.5-0.2-0.7-0.5-0.4-1c0.2-0.3,0.3-0.7,0.4-1.1c0-0.1,0.1-0.1,0.1-0.1c1.4,0.6,2.9,1.1,4.4,1.6c6.8,1.5,13.6-2.7,15.2-9.6
			c0.1-0.5,0.2-1,0.2-1.4c0.4-2.4-0.1-4.8-1.2-6.9C65.7,12.4,65.8,10.9,66.6,9.9z"/>
		<path class="st1" d="M61.8,7.9c-1.6-0.5-3-1.2-4.6-1.5c-6.9-1.6-14.2,3.8-15,10.9c-0.3,2.6,0.1,5.2,1.3,7.6
			c0.6,1.1-0.4,1.9-0.5,2.8c-1.4-1.8-2.4-3.9-2.7-6.1C39.1,15.4,42.1,9.1,47.6,6c4.2-2.5,9.4-2.6,13.8-0.4C62.2,6,62.5,6.4,62,7.3
			C61.9,7.5,61.8,7.7,61.8,7.9z"/>
		<path class="st1" d="M46.5,31.2c-0.7-0.3-0.8-0.7-0.6-1.3c1.5-4.2,3-8.4,4.6-12.6c0.1-0.3,0.3-0.6,0.5-0.9
			c0.3-0.5,0.9-0.6,1.3-0.4c0.1,0.1,0.3,0.2,0.3,0.3c0.2,0.3,0.4,0.7,0.6,1.1c0.6,1.5,1.2,3.1,1.9,4.6c0.4,1.4,1.9,2.2,3.3,1.8
			c0.9-0.3,1.6-1,1.8-1.9c1.6-4.2,3.1-8.4,4.7-12.6c0.1-0.3,0.2-0.6,0.4-0.9c0.6,0.3,0.8,0.7,0.6,1.3c-1.6,4.2-3.1,8.5-4.8,12.7
			c-0.8,2.2-2.8,3.1-4.6,2.3c-0.8-0.4-1.5-1.1-2-2c-0.7-1.4-1.4-2.9-1.9-4.4c-0.2-0.4-0.4-0.8-0.5-1.2l-0.3,0
			C49.9,21.8,48.2,26.5,46.5,31.2z"/>
		<path class="st1" d="M44.3,29.3c-0.5-0.2-0.8-0.8-0.6-1.3c0-0.1,0-0.1,0.1-0.2c1.5-4,3-8.1,4.5-12.1c0.4-1.5,1.8-2.6,3.4-2.7
			c1.6-0.1,3,0.9,3.6,2.5c0.7,1.5,1.3,3.1,1.9,4.6c0.1,0.2,0.3,0.5,0.5,0.6c0.2-0.2,0.4-0.4,0.5-0.7c1.6-4.3,3.1-8.5,4.7-12.8
			C62.9,7,62.9,6.9,63,6.6l0.8,0.5c-0.7,1.9-1.4,3.8-2.1,5.7c-0.9,2.5-1.8,5.1-2.8,7.6c0,0.2-0.1,0.4-0.2,0.5
			c-0.4,0.4-0.8,1.1-1.2,1.1c-0.4,0-1-0.6-1.2-1.1c-0.7-1.4-1.2-2.9-1.8-4.3c-0.2-0.4-0.4-0.8-0.6-1.2c-0.4-0.9-1.4-1.5-2.4-1.4
			c-1,0-1.9,0.7-2.3,1.7c-0.9,2.3-1.8,4.6-2.6,6.9C45.9,24.8,45.1,27,44.3,29.3z"/>
		<path class="st1" d="M64.6,7.6c0,0.3,0.2,0.6,0.1,0.8c-1.7,4.5-3.3,9-5,13.5c-0.3,1.1-1.5,1.8-2.6,1.4c-0.7-0.2-1.2-0.7-1.4-1.3
			c-0.7-1.5-1.3-3.1-2-4.7c-0.4-0.9-0.8-2-1.9-2c-1.2,0-1.6,1.1-1.9,2c-1.5,4-2.9,8-4.4,12.1c-0.1,0.2-0.2,0.5-0.3,0.7l-0.3,0
			c0-0.3-0.2-0.7-0.1-0.9c1.6-4.5,3.3-8.9,5-13.3c0.3-0.8,1-1.4,1.8-1.4c0.8-0.1,1.6,0.4,1.9,1.1c0.7,1.5,1.4,3.1,2,4.7
			c0.2,0.6,0.5,1.1,0.8,1.6c0.4,0.7,1.2,0.9,1.9,0.6c0.3-0.1,0.5-0.3,0.6-0.6c0.3-0.5,0.6-1,0.7-1.5c1.4-3.9,2.9-7.9,4.3-11.8
			c0.1-0.3,0.2-0.6,0.4-0.9L64.6,7.6z"/>
	</g>
</g>
<g class="st2">
	<path class="st0" d="M4,55l-1-2h0v7H1.1v-9.8h2l2.9,5l1,2h0v-7h1.8V60h-2L4,55z"/>
	<path class="st0" d="M10.8,55.1c0-3.3,1.7-5.1,4.3-5.1c2.6,0,4.3,1.8,4.3,5.1s-1.7,5.1-4.3,5.1C12.5,60.2,10.8,58.4,10.8,55.1z
		 M17.3,55.9v-1.5c0-1.7-0.9-2.7-2.3-2.7c-1.4,0-2.3,1-2.3,2.7v1.5c0,1.7,0.9,2.7,2.3,2.7C16.5,58.5,17.3,57.5,17.3,55.9z"/>
</g>
<g class="st2">
	<path class="st0" d="M23,60h-1.8v-9.8h4.4c1.8,0,2.9,1.2,2.9,3c0,1.3-0.6,2.4-1.8,2.8l2,4h-2.1l-1.8-3.8H23V60z M25.4,54.7
		c0.7,0,1.1-0.4,1.1-1.1v-0.6c0-0.7-0.4-1.1-1.1-1.1H23v2.8H25.4z"/>
</g>
<g class="st2">
	<path class="st0" d="M34,51.9V60h-1.8v-8.1h-2.8v-1.6h7.4v1.6H34z"/>
	<path class="st0" d="M38.3,60v-9.8h6.4v1.6h-4.6v2.4h4.1v1.6h-4.1v2.5h4.6V60H38.3z"/>
	<path class="st0" d="M50,60v-9.8h6.4v1.6h-4.6v2.4h4.1v1.6h-4.1v2.5h4.6V60H50z"/>
	<path class="st0" d="M61.2,55l-1-2h0v7h-1.8v-9.8h2l2.9,5l1,2h0v-7h1.8V60h-2L61.2,55z"/>
	<path class="st0" d="M68.4,60v-9.8h6.4v1.6h-4.6v2.4h4.1v1.6h-4.1v2.5h4.6V60H68.4z"/>
</g>
<g class="st2">
	<path class="st0" d="M78.7,60h-1.8v-9.8h4.4c1.8,0,2.9,1.2,2.9,3c0,1.3-0.6,2.4-1.8,2.8l2,4h-2.1l-1.8-3.8h-1.8V60z M81.1,54.7
		c0.7,0,1.1-0.4,1.1-1.1v-0.6c0-0.7-0.4-1.1-1.1-1.1h-2.4v2.8H81.1z"/>
</g>
<g class="st2">
	<path class="st0" d="M92.2,58.5L92.2,58.5c-0.2,1-1.1,1.7-2.6,1.7c-2.3,0-4-1.8-4-5c0-3.3,1.8-5.1,4.4-5.1c1.7,0,3,0.8,3.7,2.2
		l-1.5,0.9c-0.4-0.8-1-1.5-2.2-1.5c-1.4,0-2.4,0.9-2.4,2.6v1.6c0,1.7,1,2.6,2.4,2.6c1.1,0,2.1-0.6,2.1-1.7v-0.6h-1.9v-1.6h3.7V60
		h-1.6V58.5z"/>
	<path class="st0" d="M95.5,60v-1.5h1.3v-6.8h-1.3v-1.5h4.4v1.5h-1.3v6.8h1.3V60H95.5z"/>
	<path class="st0" d="M107.9,60l-0.8-2.5h-3.5l-0.8,2.5H101l3.3-9.8h2.3l3.2,9.8H107.9z M105.4,51.9L105.4,51.9l-1.3,4h2.6
		L105.4,51.9z"/>
</g>
</svg>
