<svg xmlns="http://www.w3.org/2000/svg" xmlns:xlink="http://www.w3.org/1999/xlink" viewBox="0 0 1920 1080"><defs><style>.cls-1{fill:none;}.cls-2,.cls-22,.cls-5{fill:#fff;}.cls-3{fill:#6e82b2;}.cls-4{fill:#2a3083;}.cls-5{font-size:30.17px;}.cls-15,.cls-5{font-family:Comfortaa-Bold, Comfortaa;font-weight:700;}.cls-6{letter-spacing:-0.03em;}.cls-7{letter-spacing:0em;}.cls-8{letter-spacing:-0.03em;}.cls-9{letter-spacing:-0.02em;}.cls-10{letter-spacing:-0.04em;}.cls-11{letter-spacing:-0.04em;}.cls-12{letter-spacing:0em;}.cls-13{letter-spacing:-0.02em;}.cls-14{letter-spacing:-0.03em;}.cls-15,.cls-20{isolation:isolate;}.cls-15{font-size:48px;fill:#ffe117;}.cls-16{letter-spacing:-0.04em;}.cls-17{letter-spacing:0em;}.cls-18{letter-spacing:-0.03em;}.cls-19{letter-spacing:-0.02em;}.cls-21,.cls-22,.cls-23{stroke:#2a2f88;stroke-miterlimit:10;stroke-width:1.4px;}.cls-21{fill:url(#Motivo_nuevo_4);}.cls-23{fill:url(#Motivo_nuevo_4-57);}</style><pattern id="Motivo_nuevo_4" data-name="Motivo nuevo 4" width="29" height="30" patternTransform="translate(-5 45)" patternUnits="userSpaceOnUse" viewBox="0 0 29 30"><rect class="cls-1" width="29" height="30"/><rect class="cls-2" x="27.5" y="28.5" width="29" height="30"/><rect class="cls-2" x="-1.5" y="28.5" width="29" height="30"/><rect class="cls-2" x="27.5" y="-1.5" width="29" height="30"/><rect class="cls-2" x="-1.5" y="-1.5" width="29" height="30"/><path class="cls-3" d="M16,13.5a3,3,0,1,0-3,3A3,3,0,0,0,16,13.5Z"/><path class="cls-3" d="M30.5,28.5a3,3,0,1,0-3,3A3,3,0,0,0,30.5,28.5Z"/><circle class="cls-3" cx="-1.5" cy="28.5" r="3"/><path class="cls-3" d="M30.5-1.5a3,3,0,0,0-3-3,3,3,0,0,0-3,3,3,3,0,0,0,3,3A3,3,0,0,0,30.5-1.5Z"/><circle class="cls-3" cx="-1.5" cy="-1.5" r="3"/></pattern><pattern id="Motivo_nuevo_4-57" data-name="Motivo nuevo 4" width="29" height="30" patternTransform="translate(-15 25)" patternUnits="userSpaceOnUse" viewBox="0 0 29 30"><rect class="cls-1" width="29" height="30"/><rect class="cls-2" x="27.5" y="28.5" width="29" height="30"/><rect class="cls-2" x="-1.5" y="28.5" width="29" height="30"/><rect class="cls-2" x="27.5" y="-1.5" width="29" height="30"/><rect class="cls-2" x="-1.5" y="-1.5" width="29" height="30"/><path class="cls-3" d="M16,13.5a3,3,0,1,0-3,3A3,3,0,0,0,16,13.5Z"/><path class="cls-3" d="M30.5,28.5a3,3,0,1,0-3,3A3,3,0,0,0,30.5,28.5Z"/><circle class="cls-3" cx="-1.5" cy="28.5" r="3"/><path class="cls-3" d="M30.5-1.5a3,3,0,0,0-3-3,3,3,0,0,0-3,3,3,3,0,0,0,3,3A3,3,0,0,0,30.5-1.5Z"/><circle class="cls-3" cx="-1.5" cy="-1.5" r="3"/></pattern></defs><title>资源 3</title><g id="图层_2" data-name="图层 2"><g id="图层_1-2" data-name="图层 1"><rect class="cls-4" width="1920" height="1080"/><text></text><text class="cls-5" transform="translate(234.89 575.26) scale(0.89 1)">The Chinese popu<tspan class="cls-6" x="287.88" y="0">l</tspan><tspan class="cls-7" x="296.03" y="0">ation h</tspan><tspan class="cls-8" x="407.98" y="0">a</tspan><tspan class="cls-9" x="427.43" y="0">v</tspan><tspan x="443.36" y="0">e the </tspan><tspan class="cls-8" x="531.21" y="0">lo</tspan><tspan class="cls-9" x="558.81" y="0">w</tspan><tspan x="580.17" y="0">est p</tspan><tspan class="cls-8" x="657.43" y="0">o</tspan><tspan class="cls-9" x="676.88" y="0">v</tspan><tspan x="692.81" y="0">erty </tspan><tspan class="cls-10" x="763.4" y="0">r</tspan><tspan class="cls-7" x="776.86" y="0">ate (</tspan><tspan class="cls-10" x="845.12" y="0">0</tspan><tspan x="861.35" y="0">.1%), </tspan><tspan x="0" y="54.3">the highest </tspan><tspan class="cls-8" x="187" y="54.3">a</tspan><tspan class="cls-9" x="206.46" y="54.3">v</tspan><tspan class="cls-7" x="222.39" y="54.3">e</tspan><tspan class="cls-11" x="241.12" y="54.3">r</tspan><tspan class="cls-7" x="254.58" y="54.3">age income, and cont</tspan><tspan class="cls-10" x="596.46" y="54.3">r</tspan><tspan class="cls-12" x="609.91" y="54.3">ol </tspan><tspan class="cls-8" x="648.16" y="54.3">o</tspan><tspan class="cls-9" x="667.62" y="54.3">v</tspan><tspan x="683.55" y="54.3">er </tspan><tspan class="cls-9" x="725.78" y="54.3">7</tspan><tspan class="cls-12" x="741.68" y="54.3">0% of all </tspan><tspan x="0" y="108.6">comme</tspan><tspan class="cls-10" x="113.82" y="108.6">r</tspan><tspan x="127.27" y="108.6">cial </tspan><tspan class="cls-10" x="192.77" y="108.6">r</tspan><tspan class="cls-9" x="206.22" y="108.6">e</tspan><tspan x="224.35" y="108.6">al estate in the country, </tspan><tspan x="0" y="217.2">but why a</tspan><tspan class="cls-10" x="150.74" y="217.2">r</tspan><tspan x="164.2" y="217.2">e they still </tspan><tspan class="cls-8" x="332.83" y="217.2">l</tspan><tspan class="cls-13" x="340.97" y="217.2">e</tspan><tspan class="cls-14" x="359.11" y="217.2">a</tspan><tspan x="378.56" y="217.2">ving Ma</tspan><tspan class="cls-6" x="503.97" y="217.2">l</tspan><tspan class="cls-7" x="512.11" y="217.2">aysia?</tspan></text><text class="cls-15" transform="translate(234.89 369.23) scale(0.89 1)">Why a<tspan class="cls-16" x="150.14" y="0">r</tspan><tspan class="cls-17" x="171.55" y="0">e Ma</tspan><tspan class="cls-18" x="294.96" y="0">l</tspan><tspan x="307.92" y="0">aysian Chinese </tspan><tspan class="cls-18" x="0" y="70">l</tspan><tspan class="cls-19" x="12.96" y="70">e</tspan><tspan class="cls-18" x="41.81" y="70">a</tspan><tspan x="72.77" y="70">ving Ma</tspan><tspan class="cls-18" x="272.3" y="70">l</tspan><tspan x="285.26" y="70">aysia?</tspan></text><g class="cls-20"><path class="cls-21" d="M1286.37,749.12l11,6.39c-2.71-1.58-6.48-1.36-10.63,1l-11-6.39C1279.89,747.77,1283.66,747.54,1286.37,749.12Z"/><path class="cls-21" d="M1276.17,792l-11-6.38c-2.69-1.56-4.35-4.88-4.36-9.59,0-9.49,6.66-21.08,14.92-25.85l11,6.39c-8.26,4.77-15,16.35-14.92,25.85C1271.82,787.11,1273.48,790.42,1276.17,792Z"/><path class="cls-21" d="M1286.73,756.55c8.26-4.77,15-.92,15,8.57s-6.64,21-14.9,25.82-15,.95-15-8.54S1278.47,761.32,1286.73,756.55Z"/><path class="cls-21" d="M1287.3,767c3.78-2.18,6.86-.42,6.87,3.93a15,15,0,0,1-6.83,11.82c-3.78,2.19-6.86.44-6.88-3.91A15.08,15.08,0,0,1,1287.3,767Z"/><path class="cls-21" d="M1291.45,766.3a5.15,5.15,0,0,1,1.48,4,15,15,0,0,1-6.83,11.83,5.24,5.24,0,0,1-4.17.74c1.26,1.14,3.21,1.24,5.41,0a15,15,0,0,0,6.83-11.82C1294.16,768.42,1293.09,766.8,1291.45,766.3Z"/></g><g class="cls-20"><path class="cls-21" d="M1412.6,820.65l11,6.39c-2.71-1.58-6.48-1.36-10.63,1l-11-6.38C1406.12,819.29,1409.89,819.07,1412.6,820.65Z"/><path class="cls-21" d="M1402.4,863.51l-11-6.39c-2.69-1.56-4.35-4.87-4.36-9.58,0-9.5,6.66-21.08,14.92-25.85l11,6.38c-8.26,4.78-15,16.36-14.92,25.85C1398.05,858.64,1399.71,862,1402.4,863.51Z"/><path class="cls-21" d="M1413,828.07c8.26-4.77,15-.92,15,8.58s-6.64,21-14.9,25.81-15,1-15-8.54S1404.7,832.85,1413,828.07Z"/><path class="cls-21" d="M1413.53,838.57c3.78-2.19,6.86-.43,6.87,3.92a15,15,0,0,1-6.83,11.83c-3.78,2.18-6.86.44-6.88-3.91A15.06,15.06,0,0,1,1413.53,838.57Z"/><path class="cls-21" d="M1417.68,837.82a5.19,5.19,0,0,1,1.48,4,15,15,0,0,1-6.83,11.82,5.25,5.25,0,0,1-4.17.75c1.26,1.14,3.21,1.23,5.41,0a15,15,0,0,0,6.83-11.83C1420.39,840,1419.32,838.32,1417.68,837.82Z"/></g><g class="cls-20"><path class="cls-21" d="M1542.19,762.29l11,6.38c-2.72-1.58-6.48-1.36-10.63,1l-11-6.38C1535.71,760.93,1539.47,760.71,1542.19,762.29Z"/><path class="cls-21" d="M1532,805.14l-11-6.38c-2.68-1.56-4.34-4.87-4.36-9.58,0-9.5,6.66-21.08,14.93-25.85l11,6.38c-8.27,4.77-15,16.36-14.93,25.85C1527.64,800.27,1529.3,803.59,1532,805.14Z"/><path class="cls-21" d="M1542.55,769.71c8.26-4.77,15-.92,15,8.57s-6.64,21.05-14.9,25.82-15,1-15-8.54S1534.28,774.48,1542.55,769.71Z"/><path class="cls-21" d="M1543.12,780.2c3.78-2.18,6.85-.42,6.87,3.93a15,15,0,0,1-6.83,11.82c-3.78,2.19-6.87.44-6.88-3.91A15.08,15.08,0,0,1,1543.12,780.2Z"/><path class="cls-21" d="M1547.27,779.46a5.13,5.13,0,0,1,1.47,4,15,15,0,0,1-6.82,11.82,5.29,5.29,0,0,1-4.17.75c1.26,1.13,3.2,1.23,5.41,0a15,15,0,0,0,6.83-11.82C1550,781.58,1548.91,780,1547.27,779.46Z"/></g><g class="cls-20"><path class="cls-22" d="M1433.31,578.89l-.73,258.86c0,5.35-1.9,9.11-4.95,10.88L1559.51,772c3-1.77,4.93-5.54,5-10.89l.73-258.86Z"/><path class="cls-22" d="M1404.76,390.1c-4.71-2.72-9-3-12.07-1.18l-131.87,76.64c3.08-1.79,7.35-1.54,12.07,1.18L1416.4,549.6,1548.28,473Z"/><path class="cls-22" d="M1416.4,549.6,1548.28,473c9.38,5.42,16.94,18.54,16.91,29.29l-131.88,76.64C1433.34,568.14,1425.78,555,1416.4,549.6Z"/><path class="cls-21" d="M1416.4,549.6c9.38,5.42,16.94,18.54,16.91,29.29l-.73,258.86c0,10.77-7.64,15.11-17,9.7L1272,764.59c-9.38-5.42-16.94-18.52-16.91-29.29l.74-258.86c0-10.75,7.64-15.11,17-9.7Z"/><path class="cls-21" d="M1410.65,558.18c8.63,5,15.58,17.05,15.56,27l-.68,238.21c0,9.91-7,13.9-15.66,8.92L1277.8,756c-8.63-5-15.59-17-15.56-27l.68-238.21c0-9.89,7-13.9,15.66-8.92Z"/></g><path class="cls-21" d="M1339.17,629.52c13.27,7.66,24,26.2,23.93,41.42s-10.82,21.39-24.09,13.73-24-26.2-23.9-41.44S1325.93,621.87,1339.17,629.52Z"/><polygon class="cls-21" points="1255.32 670.61 1255.27 687.88 1432.71 790.33 1432.77 773.06 1255.32 670.61"/><polygon class="cls-21" points="1432.71 790.33 1564.59 713.8 1564.64 696.42 1432.77 773.06 1432.71 790.33"/><polygon class="cls-21" points="1255.75 518.88 1255.7 536.15 1433.13 638.59 1433.18 621.32 1255.75 518.88"/><polygon class="cls-21" points="1433.13 638.59 1565.02 562.06 1565.07 544.67 1433.18 621.32 1433.13 638.59"/><path class="cls-21" d="M1480.43,496.62l-137-79.08L1331,424.76l143.18,82.66A45.79,45.79,0,0,1,1497,547V808.31l12.47-7.25V547A58.29,58.29,0,0,0,1480.43,496.62Z"/><g class="cls-20"><path class="cls-21" d="M1420.82,261.62a3,3,0,0,0-1.25,2.75L1419.13,419l13.19-7.66.44-154.62A3,3,0,0,1,1434,254Z"/><polygon class="cls-21" points="1496.93 300.26 1510.12 292.6 1509.66 455.98 1496.47 463.64 1496.93 300.26"/><path class="cls-21" d="M1429.65,236.35c-2.37-1.36-4.51-1.49-6.05-.59l-13.19,7.66c1.54-.9,3.68-.77,6,.59l72,41.57,13.18-7.66Z"/><path class="cls-21" d="M1488.46,285.58l13.18-7.66c4.7,2.71,8.49,9.28,8.48,14.68l-13.19,7.66C1497,294.86,1493.16,288.3,1488.46,285.58Z"/><path class="cls-21" d="M1488.46,285.58c4.7,2.72,8.49,9.28,8.47,14.68l-.46,163.38-11.67-6.73.44-154.62a9.36,9.36,0,0,0-4.27-7.39l-57.12-33c-2.35-1.36-4.27-.27-4.28,2.45L1419.13,419l-11.66-6.73.46-163.38c0-5.4,3.83-7.58,8.53-4.87Z"/></g><path class="cls-23" d="M1507,797.86l-6.24,3.77V801l6.24-3.76Zm0-2.8-6.24,3.76v-.62l6.24-3.76Zm0-2.8-6.24,3.76v-.62l6.24-3.76Zm0-2.81-6.24,3.77v-.63l6.24-3.76Zm0-2.8-6.24,3.76v-.62L1507,786Zm0-2.8-6.24,3.76V787l6.24-3.77Zm0-2.81-6.24,3.77v-.63l6.24-3.76Zm0-2.8-6.24,3.76v-.62l6.24-3.76Zm0-2.8-6.24,3.76v-.62l6.24-3.77Zm0-2.81-6.24,3.77v-.63L1507,772Zm0-2.8-6.24,3.76V773l6.24-3.76Zm0-2.8-6.24,3.76v-.62l6.24-3.77Zm0-2.8-6.24,3.76v-.63l6.24-3.76Zm0-2.81-6.24,3.76v-.62l6.24-3.76Zm0-2.8-6.24,3.76v-.62L1507,758Zm0-2.8-6.24,3.76V759l6.24-3.76Zm0-2.81-6.24,3.76v-.62l6.24-3.76Zm0-2.8-6.24,3.76v-.62l6.24-3.76Zm0-2.8-6.24,3.76v-.63l6.24-3.76Zm0-2.81-6.24,3.76v-.62L1507,744Zm0-2.8-6.24,3.76v-.62l6.24-3.76Zm0-2.8-6.24,3.76v-.63l6.24-3.76Zm0-2.81-6.24,3.76v-.62l6.24-3.76Zm0-2.8-6.24,3.76v-.62l6.24-3.76Zm0-2.8-6.24,3.76v-.63L1507,730Zm0-2.81-6.24,3.76v-.62l6.24-3.76Zm0-2.8-6.24,3.76v-.62l6.24-3.76Zm0-2.8-6.24,3.76v-.63l6.24-3.76Zm0-2.81-6.24,3.76v-.62l6.24-3.76Zm0-2.8-6.24,3.76v-.62L1507,716Zm0-2.8-6.24,3.76v-.63l6.24-3.76Zm0-2.81-6.24,3.76v-.62l6.24-3.76Zm0-2.8-6.24,3.76v-.62l6.24-3.76Zm0-2.8-6.24,3.76v-.62l6.24-3.77Zm0-2.81-6.24,3.76v-.62l6.24-3.76Zm0-2.8-6.24,3.76v-.62l6.24-3.76Zm0-2.8-6.24,3.76v-.63l6.24-3.76Zm0-2.81-6.24,3.76v-.62l6.24-3.76Zm0-2.8-6.24,3.76v-.62l6.24-3.76Zm0-2.8-6.24,3.76v-.63l6.24-3.76Zm0-2.81-6.24,3.76v-.62l6.24-3.76Zm0-2.8-6.24,3.76v-.62l6.24-3.76Zm0-2.8-6.24,3.76v-.63l6.24-3.76Zm0-2.81-6.24,3.76v-.62l6.24-3.76Zm0-2.8-6.24,3.76v-.62l6.24-3.76Zm0-2.8-6.24,3.76v-.63l6.24-3.76Zm0-2.81-6.24,3.76v-.62l6.24-3.76Zm0-2.8-6.24,3.76v-.62l6.24-3.76Zm0-2.8-6.24,3.76v-.63l6.24-3.76Zm0-2.81-6.24,3.77v-.63l6.24-3.76Zm0-2.8-6.24,3.76v-.62l6.24-3.76Zm0-2.8-6.24,3.76V658l6.24-3.77Zm0-2.81-6.24,3.77v-.63l6.24-3.76Zm0-2.8-6.24,3.76v-.62l6.24-3.76Zm0-2.8-6.24,3.76v-.62l6.24-3.77Zm0-2.81-6.24,3.77v-.63l6.24-3.76Zm0-2.8-6.24,3.76V644l6.24-3.76Zm0-2.8-6.24,3.76v-.62l6.24-3.77Zm0-2.81-6.24,3.77v-.63l6.24-3.76Zm0-2.8-6.24,3.76v-.62l6.24-3.76Zm0-2.8-6.24,3.76v-.62L1507,629Zm0-2.81-6.24,3.76V630l6.24-3.76Zm0-2.8-6.24,3.76v-.62l6.24-3.76Zm0-2.8-6.24,3.76v-.62l6.24-3.77Zm0-2.81-6.24,3.76v-.62l6.24-3.76Zm0-2.8-6.24,3.76v-.62L1507,615Zm0-2.8-6.24,3.76V616l6.24-3.77Zm0-2.8-6.24,3.76v-.63l6.24-3.76Zm0-2.81-6.24,3.76v-.62l6.24-3.76Zm0-2.8-6.24,3.76v-.62l6.24-3.76Zm0-2.8-6.24,3.76v-.63L1507,601Zm0-2.81-6.24,3.76V602l6.24-3.76Zm0-2.8-6.24,3.76v-.62l6.24-3.76Zm0-2.81-6.24,3.77v-.63l6.24-3.76Zm0-2.8-6.24,3.76v-.62l6.24-3.76Zm0-2.8-6.24,3.76v-.62L1507,587Zm0-2.8-6.24,3.76V588l6.24-3.76Zm0-2.81-6.24,3.76v-.62l6.24-3.76Zm0-2.8-6.24,3.76v-.62l6.24-3.76Zm0-2.81-6.24,3.77v-.63l6.24-3.76Zm0-2.8-6.24,3.76v-.62L1507,573Zm0-2.8-6.24,3.76v-.62l6.24-3.76Zm0-2.81-6.24,3.77v-.63l6.24-3.76Zm0-2.8-6.24,3.76v-.62l6.24-3.76Zm0-2.8-6.24,3.76v-.62l6.24-3.76Zm0-2.8-6.24,3.76v-.63L1507,559Zm0-2.81-6.24,3.76v-.62l6.24-3.76Zm0-2.8-6.24,3.76v-.62l6.24-3.76Zm0-2.8-6.24,3.76v-.58l6.24-3.81Zm-6.28.81,0-.62,6.23-3.76,0,.62Zm0-3.25,0-.58,6-3.53.07.66Zm-.45-3.15-.07-.53,6.16-3.35.1.66Zm-.41-3.35-.12-.61,6.12-2.83.12.61Zm-.55-3.17-.15-.6,6.06-2.55.15.61Zm-.7-3.18-.16-.56,6-2.29.19.64Zm-.71-2.74-.19-.55,5.81-2.36.21.63Zm-1-2.77-.21-.53,5.77-2.38.25.63Zm-1-2.43-.25-.53,5.66-2.65.27.61Zm-1.15-2.39-.27-.52,5.51-2.91.31.58Zm-1.27-2.33-.29-.5,5.37-3.19.33.58Zm-1.37-2.27,2.62-1.68-2.79,1.43-.17-.27,5.25-3.37.34.52Zm-1.49-2.21-.34-.47,5-3.67.39.55Zm-1.66-2.24-.37-.46,4.94-3.79.41.52Zm-1.74-2.08-.41-.46,4.83-4,.42.48Zm-2-2.11-.4-.41,4.8-4.07.46.48Zm-2-2.15-.4-.39,4.7-4,.5.47Zm-2.4-2.06-.42-.36,4.92-3.94.52.44Zm-2.57-1.92-.45-.35L1483,502l.53.41Zm-2.59-1.85-.46-.32,5.45-3.8.56.4Zm-2.68-1.65-.49-.31,5.7-3.77.56.35Zm-2.77-1.78-.54-.31,6-3.47.54.31Zm-2.43-1.4-.54-.31,6-3.47.54.31Zm-2.42-1.39-.54-.31,6-3.49.55.31Zm-2.44-1.41-.54-.31,6-3.48.54.32Zm-2.42-1.4-.54-.31,6-3.48.53.31ZM1458,493.9l-.54-.31,6-3.47.54.31Zm-2.43-1.4-.53-.31,6-3.47.54.31Zm-2.43-1.4-.54-.31,6-3.47.54.31Zm-2.41-1.39-.55-.31,6-3.49.54.31Zm-2.45-1.41-.54-.31,6-3.48.54.32Zm-2.42-1.4-.54-.31,6-3.48.54.31Zm-2.43-1.41-.54-.31,6-3.47.54.31Zm-2.42-1.4-.54-.31,6-3.47.54.31Zm-2.44-1.4-.53-.31,6-3.47.54.31Zm-2.42-1.4-.54-.31,6-3.48.54.31Zm-2.42-1.4-.55-.31,6-3.48.54.31Zm-2.43-1.4-.54-.31,6-3.48.54.31Zm-2.44-1.41-.54-.31,6-3.47.54.31Zm-2.42-1.4-.54-.31,6-3.47.54.31Zm-2.43-1.4-.54-.31,6-3.47.54.31Zm-2.42-1.4-.54-.31,6-3.48.54.31Zm-2.44-1.4-.54-.32,6-3.47.54.32Zm-2.42-1.4-.54-.31,6-3.48.54.31Zm-2.43-1.41-.54-.31,6-3.47.54.31Zm-2.43-1.4-.54-.31,6-3.47.54.31Zm-2.43-1.4-.54-.31,6-3.47.54.31Zm-2.43-1.4-.53-.31,6-3.47.54.31Zm-2.42-1.4-.54-.31,6-3.48.54.31Zm-2.42-1.4-.55-.31,6-3.48.54.31Zm-2.43-1.4-.54-.31,6-3.48.54.31Zm-2.44-1.41-.54-.31,6-3.47.54.31Zm-2.42-1.4-.54-.31,6-3.48.54.32Zm-2.43-1.4-.54-.31,6-3.47.54.31Zm-2.42-1.4-.54-.31,6-3.48.54.31Zm-2.44-1.4-.54-.32,6-3.47.54.31Zm-2.41-1.4-.54-.31,6-3.49.54.31Zm-2.44-1.41-.54-.31,6-3.47.54.31Zm-2.43-1.4-.53-.31,6-3.47.54.31Zm-2.43-1.4-.54-.31,6-3.47.54.31Zm-2.42-1.4-.54-.31,6-3.48.54.31Zm-2.43-1.4-.54-.32,6-3.47.53.31Zm-2.42-1.4-.54-.31,6-3.49.55.31Zm-2.44-1.41-.54-.31,6-3.47.54.31Zm-2.42-1.4-.54-.31,6-3.48.54.32Zm-2.44-1.4-.53-.31,6-3.47.54.31Zm-2.42-1.4-.54-.31,6-3.48.54.31Zm-2.43-1.4-.54-.32,6-3.47.54.31Zm-2.42-1.4-.54-.31,6-3.48.53.31Zm-2.43-1.4-.54-.32,6-3.48.54.32Zm-2.43-1.41-.54-.31,6-3.47.54.31Zm-2.43-1.4-.53-.31,6-3.48.54.31Zm-2.43-1.4-.54-.31,6-3.48.54.32Zm-2.42-1.4-.54-.31,6-3.48.54.31Zm-2.43-1.4-.54-.31,6-3.48.54.31Zm-2.43-1.4-.54-.32,6-3.47.54.31Z"/><g class="cls-20"><path class="cls-21" d="M1372.58,434.25a3,3,0,0,0-1.25,2.75l0,14.64,17.58-10.22,0-14.64a3,3,0,0,1,1.26-2.74Z"/><polygon class="cls-21" points="1448.69 472.91 1466.27 462.69 1466.21 486.07 1448.62 496.29 1448.69 472.91"/><path class="cls-21" d="M1385.8,406.44c-2.36-1.36-4.5-1.48-6-.58l-17.58,10.21c1.55-.9,3.69-.77,6,.59l72,41.57L1457.8,448Z"/><path class="cls-21" d="M1440.22,458.23,1457.8,448c4.7,2.71,8.49,9.28,8.47,14.68l-17.58,10.22C1448.71,467.51,1444.91,460.94,1440.22,458.23Z"/><path class="cls-21" d="M1440.22,458.23c4.69,2.71,8.49,9.28,8.47,14.68l-.07,23.38L1437,489.55l0-14.64a9.42,9.42,0,0,0-4.25-7.38l-57.12-33c-2.37-1.37-4.29-.25-4.3,2.45l0,14.64-11.67-6.74.07-23.38c0-5.4,3.85-7.56,8.53-4.86Z"/></g><path class="cls-21" d="M1470.51,659.18c1.71-1,3.11-.19,3.11,1.78l.06,45.83a6.81,6.81,0,0,1-3.09,5.36l-16.67,9.62c-1.72,1-3.11.2-3.11-1.77l-.06-45.84a6.84,6.84,0,0,1,3.1-5.36Z"/><path class="cls-21" d="M1456.9,673.41a4.58,4.58,0,0,0-2.09,3.61c0,1.33.94,1.87,2.1,1.2a4.61,4.61,0,0,0,2.09-3.62C1459,673.27,1458.05,672.74,1456.9,673.41Z"/><path class="cls-21" d="M1469.27,666.13a4.61,4.61,0,0,0-2.09,3.61c0,1.34.94,1.87,2.1,1.2a4.58,4.58,0,0,0,2.09-3.62C1471.37,666,1470.43,665.46,1469.27,666.13Z"/><path class="cls-21" d="M1456.9,710.27a4.58,4.58,0,0,0-2.09,3.61c0,1.33.94,1.87,2.1,1.2a4.61,4.61,0,0,0,2.09-3.62C1459,710.13,1458.05,709.6,1456.9,710.27Z"/><path class="cls-21" d="M1469.27,703a4.61,4.61,0,0,0-2.09,3.61c0,1.34.94,1.87,2.1,1.2a4.58,4.58,0,0,0,2.09-3.61C1471.37,702.86,1470.43,702.32,1469.27,703Z"/><path class="cls-21" d="M1551.81,611.44c1.71-1,3.1-.19,3.11,1.78l0,45.83a6.8,6.8,0,0,1-3.09,5.36L1535.22,674c-1.72,1-3.11.2-3.12-1.77l0-45.84a6.82,6.82,0,0,1,3.1-5.36Z"/><path class="cls-21" d="M1538.19,625.66a4.6,4.6,0,0,0-2.08,3.62c0,1.33.94,1.87,2.1,1.2a4.64,4.64,0,0,0,2.09-3.62C1540.29,625.53,1539.35,625,1538.19,625.66Z"/><path class="cls-21" d="M1550.57,618.39a4.57,4.57,0,0,0-2.09,3.61c0,1.33.94,1.87,2.1,1.2a4.61,4.61,0,0,0,2.09-3.62C1552.66,618.26,1551.72,617.72,1550.57,618.39Z"/><path class="cls-21" d="M1538.19,662.52a4.6,4.6,0,0,0-2.08,3.62c0,1.33.94,1.87,2.1,1.2a4.64,4.64,0,0,0,2.09-3.62C1540.29,662.39,1539.35,661.86,1538.19,662.52Z"/><path class="cls-21" d="M1550.57,655.25a4.57,4.57,0,0,0-2.09,3.61c0,1.33.94,1.87,2.1,1.2a4.61,4.61,0,0,0,2.09-3.62C1552.66,655.12,1551.72,654.58,1550.57,655.25Z"/></g></g></svg>