<?xml version="1.0" encoding="utf-8"?>
<!-- Generator: Adobe Illustrator 22.1.0, SVG Export Plug-In . SVG Version: 6.00 Build 0)  -->
<svg version="1.1" id="图层_1" xmlns="http://www.w3.org/2000/svg" xmlns:xlink="http://www.w3.org/1999/xlink" x="0px" y="0px"
	 viewBox="0 0 1920 1080" style="enable-background:new 0 0 1920 1080;" xml:space="preserve">
<style type="text/css">
	.st0{fill:none;}
	.st1{fill:#FFFFFF;}
	.st2{fill:#6E82B2;}
	.st3{fill:#2A3083;}
	.st4{fill:#FFE117;}
	.st5{fill:url(#SVGID_1_);stroke:#2A2F88;stroke-width:1.4;stroke-miterlimit:10;}
	.st6{font-family:'Comfortaa-Bold';}
	.st7{font-size:48px;}
	.st8{letter-spacing:-1.1;}
	.st9{font-size:24px;}
	.st10{letter-spacing:-2.2;}
	.st11{fill:#A23F43;}
	.st12{fill:#B16268;}
	.st13{fill:#8193BB;}
	.st14{fill:#C58A8C;}
	.st15{fill:#DCB9BA;}
	.st16{fill:#667EAD;}
	.st17{fill:#395F9C;}
	.st18{fill:#231815;}
	.st19{font-size:17.78px;}
	.st20{fill:none;stroke:#221714;stroke-width:0.56;stroke-miterlimit:10;}
	.st21{font-size:12.22px;}
	.st22{fill:none;stroke:#221714;stroke-width:0.56;stroke-miterlimit:10;stroke-dasharray:3.33;}
	.st23{fill:#706E6D;}
	.st24{font-size:14.4px;}
	.st25{font-size:19.21px;}
	.st26{fill:none;stroke:#A23F43;stroke-width:1.2;stroke-miterlimit:10;}
	.st27{fill:none;stroke:#706E6D;stroke-width:1.2;stroke-miterlimit:10;}
	.st28{font-family:'AdobeSongStd-Light-GBpc-EUC-H';}
	.st29{letter-spacing:-3;}
</style>
<pattern  y="1080" width="29" height="30" patternUnits="userSpaceOnUse" id="Motivo_nuevo_4" viewBox="4.5 -34.5 29 30" style="overflow:visible;">
	<g>
		<rect x="4.5" y="-34.5" class="st0" width="29" height="30"/>
		<rect x="4.5" y="-34.5" class="st0" width="29" height="30"/>
		<rect x="32" y="-63" class="st1" width="29" height="30"/>
		<rect x="3" y="-63" class="st1" width="29" height="30"/>
		<rect x="32" y="-33" class="st1" width="29" height="30"/>
		<rect x="3" y="-33" class="st1" width="29" height="30"/>
		<path class="st2" d="M20.5-18c0,1.7-1.3,3-3,3s-3-1.3-3-3s1.3-3,3-3S20.5-19.7,20.5-18z"/>
		<path class="st2" d="M35-33c0,1.7-1.3,3-3,3c-1.7,0-3-1.3-3-3c0-1.7,1.3-3,3-3C33.7-36,35-34.7,35-33z"/>
		<circle class="st2" cx="3" cy="-33" r="3"/>
		<path class="st2" d="M35-3c0,1.7-1.3,3-3,3c-1.7,0-3-1.3-3-3s1.3-3,3-3C33.7-6,35-4.7,35-3z"/>
		<circle class="st2" cx="3" cy="-3" r="3"/>
	</g>
</pattern>
<title>资源 4</title>
<g id="图层_2_1_">
	<g id="图层_1-2">
		<rect class="st1" width="1920" height="1080"/>
		<rect y="-46.2" class="st3" width="1920" height="644.2"/>
		<circle class="st4" cx="655.6" cy="114.8" r="37"/>
		<pattern  id="SVGID_1_" xlink:href="#Motivo_nuevo_4" patternTransform="matrix(1 0 0 -1 -5 -16498)">
		</pattern>
		<circle class="st5" cx="637.5" cy="121.7" r="37.3"/>
		<text transform="matrix(0.89 0 0 1 711.02 111.54)" class="st4 st6 st7">P</text>
		<text transform="matrix(0.89 0 0 1 736.7769 111.54)" class="st4 st6 st7">opu</text>
		<text transform="matrix(0.89 0 0 1 824.7798 111.54)" class="st4 st6 st7 st8">l</text>
		<text transform="matrix(0.89 0 0 1 836.3145 111.54)" class="st4 st6 st7">ation Distribution of   </text>
		<text transform="matrix(0.89 0 0 1 711.02 181.54)" class="st4 st6 st7"> Chinese and Ma</text>
		<text transform="matrix(0.89 0 0 1 1088.0156 181.54)" class="st4 st6 st7 st8">l</text>
		<text transform="matrix(0.89 0 0 1 1099.5498 181.54)" class="st4 st6 st7">ay</text>
		<text transform="matrix(0.89 0 0 1 757.77 261.3799)" class="st1 st6 st9">F</text>
		<text transform="matrix(0.89 0 0 1 771.1201 261.3799)" class="st1 st6 st9">r</text>
		<text transform="matrix(0.89 0 0 1 780.6431 261.3799)" class="st1 st6 st9">om the g</text>
		<text transform="matrix(0.89 0 0 1 878.4541 261.3799)" class="st1 st6 st9">e</text>
		<text transform="matrix(0.89 0 0 1 891.2881 261.3799)" class="st1 st6 st9">og</text>
		<text transform="matrix(0.89 0 0 1 920.124 261.3799)" class="st1 st6 st9">r</text>
		<text transform="matrix(0.89 0 0 1 929.6558 261.3799)" class="st1 st6 st9">aphical point of vi</text>
		<text transform="matrix(0.89 0 0 1 1131.9883 261.3799)" class="st1 st6 st9">e</text>
		<text transform="matrix(0.89 0 0 1 1144.8311 261.3799)" class="st1 st6 st9 st10">w</text>
		<text transform="matrix(0.89 0 0 1 1158.0293 261.3799)" class="st1 st6 st9">,</text>
		<text transform="matrix(0.89 0 0 1 719.7139 297.3799)" class="st1 st6 st9">the a</text>
		<text transform="matrix(0.89 0 0 1 776.8164 297.3799)" class="st1 st6 st9">r</text>
		<text transform="matrix(0.89 0 0 1 786.3389 297.3799)" class="st1 st6 st9">e</text>
		<text transform="matrix(0.89 0 0 1 799.1729 297.3799)" class="st1 st6 st9">a whe</text>
		<text transform="matrix(0.89 0 0 1 863.2529 297.3799)" class="st1 st6 st9">r</text>
		<text transform="matrix(0.89 0 0 1 872.7847 297.3799)" class="st1 st6 st9">e they li</text>
		<text transform="matrix(0.89 0 0 1 959.355 297.3799)" class="st1 st6 st9">v</text>
		<text transform="matrix(0.89 0 0 1 970.6309 297.3799)" class="st1 st6 st9">e is almost sepa</text>
		<text transform="matrix(0.89 0 0 1 1150.4561 297.3799)" class="st1 st6 st9">r</text>
		<text transform="matrix(0.89 0 0 1 1159.9883 297.3799)" class="st1 st6 st9">ate.</text>
		<path class="st1" d="M1920,64.8c-154.2-38.2-274.2,11.6-309.3,116.9c-34.4,103-223.3,63.9-324.7,121.2
			c-159.3,90-99.8,212.6-325.9,212.6S794.6,392.9,634.1,302.9c-101.8-57.1-290.4-18.2-324.7-121.2C274.2,76.4,154.2,26.6,0,64.8V695
			h1920V64.8z"/>
		<path class="st11" d="M1387.6,450.4c2.7,0,4.9-2.1,5-4.8c0-2.7-2.1-4.9-4.8-5c-2.7,0-4.9,2.1-5,4.8c0,0,0,0.1,0,0.1
			C1382.8,448.2,1384.9,450.4,1387.6,450.4C1387.6,450.4,1387.6,450.4,1387.6,450.4z"/>
		<path class="st12" d="M1407.1,450.4c2.7,0,4.9-2.1,5-4.8c0-2.7-2.1-4.9-4.8-5c-2.7,0-4.9,2.1-5,4.8c0,0,0,0.1,0,0.1
			C1402.2,448.2,1404.4,450.4,1407.1,450.4C1407.1,450.4,1407.1,450.4,1407.1,450.4z"/>
		<path class="st13" d="M491.8,470.2c2.7,0,4.9-2.1,5-4.8c0-2.7-2.1-4.9-4.8-5c-2.7,0-4.9,2.1-5,4.8c0,0,0,0,0,0.1
			C487,468,489.1,470.2,491.8,470.2C491.8,470.2,491.8,470.2,491.8,470.2z"/>
		<path class="st13" d="M511.3,470.2c2.7,0,4.9-2.1,5-4.8c0-2.7-2.1-4.9-4.8-5c-2.7,0-4.9,2.1-5,4.8c0,0,0,0,0,0.1
			C506.4,468,508.6,470.2,511.3,470.2z"/>
		<path class="st13" d="M491.8,490c2.7,0,4.9-2.1,5-4.8c0-2.7-2.1-4.9-4.8-5c-2.7,0-4.9,2.1-5,4.8c0,0,0,0.1,0,0.1
			C487,487.8,489.1,490,491.8,490C491.8,490,491.8,490,491.8,490z"/>
		<path class="st13" d="M511.3,490c2.7,0,4.9-2.1,5-4.8c0-2.7-2.1-4.9-4.8-5c-2.7,0-4.9,2.1-5,4.8c0,0,0,0.1,0,0.1
			C506.4,487.8,508.6,490,511.3,490C511.3,490,511.3,490,511.3,490z"/>
		<path class="st13" d="M1329.2,490c2.7,0,4.9-2.1,5-4.8c0-2.7-2.1-4.9-4.8-5c-2.7,0-4.9,2.1-5,4.8c0,0,0,0.1,0,0.1
			C1324.3,487.8,1326.5,490,1329.2,490C1329.2,490,1329.2,490,1329.2,490z"/>
		<path class="st13" d="M1329.2,509.7c2.7,0,4.9-2.1,5-4.8c0-2.7-2.1-4.9-4.8-5c-2.7,0-4.9,2.1-5,4.8c0,0,0,0,0,0.1
			C1324.3,507.5,1326.5,509.7,1329.2,509.7C1329.2,509.7,1329.2,509.7,1329.2,509.7z"/>
		<path class="st13" d="M589.2,529.5c2.7,0,4.9-2.1,5-4.8c0-2.7-2.1-4.9-4.8-5c-2.7,0-4.9,2.1-5,4.8c0,0,0,0,0,0.1
			C584.3,527.3,586.5,529.5,589.2,529.5C589.2,529.5,589.2,529.5,589.2,529.5z"/>
		<path class="st13" d="M608.6,529.5c2.7,0,4.9-2.1,5-4.8c0-2.7-2.1-4.9-4.8-5c-2.7,0-4.9,2.1-5,4.8c0,0,0,0,0,0.1
			C603.8,527.3,606,529.5,608.6,529.5C608.6,529.5,608.6,529.5,608.6,529.5z"/>
		<path class="st13" d="M628.1,529.5c2.7,0,4.9-2.1,5-4.8c0-2.7-2.1-4.9-4.8-5c-2.7,0-4.9,2.1-5,4.8c0,0,0,0,0,0.1
			C623.3,527.3,625.4,529.5,628.1,529.5C628.1,529.5,628.1,529.5,628.1,529.5z"/>
		<path class="st13" d="M1309.7,529.5c2.7,0,4.9-2.1,5-4.8s-2.1-4.9-4.8-5c-2.7,0-4.9,2.1-5,4.8c0,0,0,0,0,0.1
			C1304.9,527.3,1307,529.5,1309.7,529.5C1309.7,529.5,1309.7,529.5,1309.7,529.5z"/>
		<path class="st13" d="M1329.2,529.5c2.7,0,4.9-2.1,5-4.8s-2.1-4.9-4.8-5c-2.7,0-4.9,2.1-5,4.8c0,0,0,0,0,0.1
			C1324.3,527.3,1326.5,529.5,1329.2,529.5C1329.2,529.5,1329.2,529.5,1329.2,529.5z"/>
		<path class="st13" d="M589.2,549.3c2.7,0,4.9-2.1,5-4.8c0-2.7-2.1-4.9-4.8-5c-2.7,0-4.9,2.1-5,4.8c0,0,0,0,0,0.1
			C584.3,547.1,586.5,549.2,589.2,549.3z"/>
		<path class="st13" d="M608.6,549.3c2.7,0,4.9-2.1,5-4.8c0-2.7-2.1-4.9-4.8-5c-2.7,0-4.9,2.1-5,4.8c0,0,0,0,0,0.1
			C603.8,547.1,606,549.2,608.6,549.3z"/>
		<path class="st13" d="M628.1,549.3c2.7,0,4.9-2.1,5-4.8c0-2.7-2.1-4.9-4.8-5c-2.7,0-4.9,2.1-5,4.8c0,0,0,0,0,0.1
			C623.3,547,625.4,549.2,628.1,549.3C628.1,549.3,628.1,549.3,628.1,549.3z"/>
		<path class="st13" d="M1329.2,549.3c2.7,0,4.9-2.1,5-4.8s-2.1-4.9-4.8-5c-2.7,0-4.9,2.1-5,4.8c0,0,0,0,0,0.1
			C1324.3,547,1326.5,549.2,1329.2,549.3C1329.2,549.3,1329.2,549.3,1329.2,549.3z"/>
		<path class="st13" d="M1348.7,549.3c2.7,0,4.9-2.1,5-4.8s-2.1-4.9-4.8-5c-2.7,0-4.9,2.1-5,4.8c0,0,0,0,0,0.1
			C1343.8,547.1,1346,549.2,1348.7,549.3z"/>
		<path class="st13" d="M1368.1,549.3c2.7,0,4.9-2.1,5-4.8c0-2.7-2.1-4.9-4.8-5s-4.9,2.1-5,4.8c0,0,0,0.1,0,0.1
			C1363.3,547,1365.5,549.2,1368.1,549.3C1368.1,549.3,1368.1,549.3,1368.1,549.3z"/>
		<path class="st13" d="M589.2,569c2.7,0,4.9-2.1,5-4.8c0-2.7-2.1-4.9-4.8-5c-2.7,0-4.9,2.1-5,4.8c0,0,0,0,0,0.1
			C584.3,566.8,586.5,569,589.2,569z"/>
		<path class="st13" d="M608.6,569c2.7,0,4.9-2.1,5-4.8c0-2.7-2.1-4.9-4.8-5c-2.7,0-4.9,2.1-5,4.8c0,0,0,0,0,0.1
			C603.8,566.8,606,569,608.6,569z"/>
		<path class="st13" d="M628.1,569c2.7,0,4.9-2.1,5-4.8c0-2.7-2.1-4.9-4.8-5c-2.7,0-4.9,2.1-5,4.8c0,0,0,0,0,0.1
			C623.3,566.8,625.4,569,628.1,569C628.1,569,628.1,569,628.1,569z"/>
		<path class="st13" d="M647.6,569c2.7,0,4.9-2.1,5-4.8c0-2.7-2.1-4.9-4.8-5c-2.7,0-4.9,2.1-5,4.8c0,0,0,0,0,0.1
			C642.8,566.8,644.9,569,647.6,569z"/>
		<path class="st13" d="M1368.1,569c2.7,0,4.9-2.1,5-4.8c0-2.7-2.1-4.9-4.8-5s-4.9,2.1-5,4.8c0,0,0,0.1,0,0.1
			C1363.3,566.8,1365.5,569,1368.1,569C1368.1,569,1368.1,569,1368.1,569z"/>
		<path class="st11" d="M530.7,608.5c2.7,0,4.9-2.1,5-4.8c0-2.7-2.1-4.9-4.8-5c-2.7,0-4.9,2.1-5,4.8c0,0,0,0,0,0.1
			C525.9,606.3,528.1,608.5,530.7,608.5C530.7,608.5,530.7,608.5,530.7,608.5z"/>
		<path class="st11" d="M1134.4,648.1c2.7,0,4.9-2.1,5-4.8s-2.1-4.9-4.8-5c-2.7,0-4.9,2.1-5,4.8c0,0,0,0,0,0.1
			C1129.6,645.9,1131.8,648.1,1134.4,648.1z"/>
		<path class="st13" d="M706,667.8c2.7,0,4.9-2.1,5-4.8c0-2.7-2.1-4.9-4.8-5c-2.7,0-4.9,2.1-5,4.8c0,0,0,0,0,0.1
			C701.2,665.6,703.3,667.8,706,667.8z"/>
		<path class="st11" d="M1134.4,667.8c2.7,0,4.9-2.1,5-4.8s-2.1-4.9-4.8-5c-2.7,0-4.9,2.1-5,4.8c0,0,0,0,0,0.1
			C1129.6,665.6,1131.8,667.8,1134.4,667.8z"/>
		<path class="st11" d="M1153.9,667.8c2.7,0,4.9-2.1,5-4.8s-2.1-4.9-4.8-5c-2.7,0-4.9,2.1-5,4.8c0,0,0,0,0,0.1
			C1149.1,665.6,1151.2,667.8,1153.9,667.8z"/>
		<path class="st13" d="M686.5,687.6c2.7,0,4.9-2.1,5-4.8c0-2.7-2.1-4.9-4.8-5c-2.7,0-4.9,2.1-5,4.8c0,0,0,0,0,0.1
			C681.7,685.4,683.9,687.6,686.5,687.6z"/>
		<path class="st13" d="M706,687.6c2.7,0,4.9-2.1,5-4.8c0-2.7-2.1-4.9-4.8-5c-2.7,0-4.9,2.1-5,4.8c0,0,0,0,0,0.1
			C701.2,685.4,703.3,687.6,706,687.6z"/>
		<path class="st13" d="M726.5,707.4c2.7,0,4.9-2.1,5-4.8c0-2.7-2.1-4.9-4.8-5c-2.7,0-4.9,2.1-5,4.8c0,0,0,0,0,0.1
			C721.7,705.2,723.8,707.4,726.5,707.4z"/>
		<path class="st12" d="M491.8,529.5c2.7,0,4.9-2.1,5-4.8c0-2.7-2.1-4.9-4.8-5c-2.7,0-4.9,2.1-5,4.8c0,0,0,0.1,0,0.1
			C487,527.3,489.1,529.5,491.8,529.5C491.8,529.5,491.8,529.5,491.8,529.5z"/>
		<path class="st12" d="M530.7,549.3c2.7,0,4.9-2.1,5-4.8c0-2.7-2.1-4.9-4.8-5c-2.7,0-4.9,2.1-5,4.8c0,0,0,0,0,0.1
			C525.9,547,528.1,549.2,530.7,549.3C530.7,549.3,530.7,549.3,530.7,549.3z"/>
		<path class="st12" d="M530.7,569c2.7,0,4.9-2.1,5-4.8c0-2.7-2.1-4.9-4.8-5c-2.7,0-4.9,2.1-5,4.8c0,0,0,0,0,0.1
			C525.9,566.8,528.1,569,530.7,569C530.7,569,530.7,569,530.7,569z"/>
		<path class="st12" d="M550.2,569c2.7,0,4.9-2.1,5-4.8c0-2.7-2.1-4.9-4.8-5c-2.7,0-4.9,2.1-5,4.8c0,0,0,0,0,0.1
			C545.4,566.8,547.5,569,550.2,569z"/>
		<path class="st12" d="M550.2,588.8c2.7,0,4.9-2.1,5-4.8c0-2.7-2.1-4.9-4.8-5c-2.7,0-4.9,2.1-5,4.8c0,0,0,0,0,0.1
			C545.4,586.6,547.5,588.8,550.2,588.8z"/>
		<path class="st12" d="M608.6,648.1c2.7,0,4.9-2.1,5-4.8c0-2.7-2.1-4.9-4.8-5c-2.7,0-4.9,2.1-5,4.8c0,0,0,0,0,0.1
			C603.8,645.9,606,648.1,608.6,648.1z"/>
		<path class="st12" d="M628.1,648.1c2.7,0,4.9-2.1,5-4.8c0-2.7-2.1-4.9-4.8-5c-2.7,0-4.9,2.1-5,4.8c0,0,0,0,0,0.1
			C623.3,645.9,625.4,648.1,628.1,648.1C628.1,648.1,628.1,648.1,628.1,648.1z"/>
		<path class="st12" d="M647.6,648.1c2.7,0,4.9-2.1,5-4.8c0-2.7-2.1-4.9-4.8-5c-2.7,0-4.9,2.1-5,4.8c0,0,0,0,0,0.1
			C642.8,645.9,644.9,648.1,647.6,648.1z"/>
		<path class="st12" d="M628.1,667.8c2.7,0,4.9-2.1,5-4.8c0-2.7-2.1-4.9-4.8-5c-2.7,0-4.9,2.1-5,4.8c0,0,0,0.1,0,0.1
			C623.3,665.7,625.5,667.8,628.1,667.8z"/>
		<path class="st12" d="M647.6,667.8c2.7,0,4.9-2.1,5-4.8c0-2.7-2.1-4.9-4.8-5c-2.7,0-4.9,2.1-5,4.8c0,0,0,0,0,0.1
			C642.8,665.6,644.9,667.8,647.6,667.8z"/>
		<path class="st12" d="M667.1,667.8c2.7,0,4.9-2.1,5-4.8c0-2.7-2.1-4.9-4.8-5c-2.7,0-4.9,2.1-5,4.8c0,0,0,0,0,0.1
			C662.2,665.6,664.4,667.8,667.1,667.8z"/>
		<path class="st12" d="M647.6,687.6c2.7,0,4.9-2.1,5-4.8c0-2.7-2.1-4.9-4.8-5c-2.7,0-4.9,2.1-5,4.8c0,0,0,0,0,0.1
			C642.8,685.4,644.9,687.6,647.6,687.6z"/>
		<path class="st12" d="M667.1,687.6c2.7,0,4.9-2.1,5-4.8c0-2.7-2.1-4.9-4.8-5c-2.7,0-4.9,2.1-5,4.8c0,0,0,0,0,0.1
			C662.2,685.4,664.4,687.6,667.1,687.6z"/>
		<path class="st12" d="M667.1,707.4c2.7,0,4.9-2.1,5-4.8c0-2.7-2.1-4.9-4.8-5c-2.7,0-4.9,2.1-5,4.8c0,0,0,0,0,0.1
			C662.2,705.2,664.4,707.4,667.1,707.4z"/>
		<path class="st14" d="M491.8,509.7c2.7,0,4.9-2.1,5-4.8c0-2.7-2.1-4.9-4.8-5c-2.7,0-4.9,2.1-5,4.8c0,0,0,0,0,0.1
			C487,507.5,489.1,509.7,491.8,509.7C491.8,509.7,491.8,509.7,491.8,509.7z"/>
		<path class="st14" d="M491.8,549.3c2.7,0,4.9-2.1,5-4.8c0-2.7-2.1-4.9-4.8-5s-4.9,2.1-5,4.8c0,0,0,0,0,0.1
			C487,547,489.1,549.2,491.8,549.3C491.8,549.3,491.8,549.3,491.8,549.3z"/>
		<path class="st14" d="M511.3,549.3c2.7,0,4.9-2.1,5-4.8c0-2.7-2.1-4.9-4.8-5c-2.7,0-4.9,2.1-5,4.8c0,0,0,0,0,0.1
			C506.4,547.1,508.6,549.2,511.3,549.3z"/>
		<path class="st14" d="M511.3,569c2.7,0,4.9-2.1,5-4.8c0-2.7-2.1-4.9-4.8-5c-2.7,0-4.9,2.1-5,4.8c0,0,0,0,0,0.1
			C506.4,566.8,508.6,569,511.3,569z"/>
		<path class="st14" d="M530.7,588.8c2.7,0,4.9-2.1,5-4.8c0-2.7-2.1-4.9-4.8-5c-2.7,0-4.9,2.1-5,4.8c0,0,0,0,0,0.1
			C525.9,586.6,528.1,588.8,530.7,588.8C530.7,588.8,530.7,588.8,530.7,588.8z"/>
		<path class="st14" d="M550.2,608.5c2.7,0,4.9-2.1,5-4.8c0-2.7-2.1-4.9-4.8-5c-2.7,0-4.9,2.1-5,4.8c0,0,0,0,0,0.1
			C545.4,606.3,547.5,608.5,550.2,608.5z"/>
		<path class="st14" d="M569.7,608.5c2.7,0,4.9-2.1,5-4.8c0-2.7-2.1-4.9-4.8-5c-2.7,0-4.9,2.1-5,4.8c0,0,0,0,0,0.1
			C564.9,606.3,567,608.5,569.7,608.5z"/>
		<path class="st14" d="M686.5,707.4c2.7,0,4.9-2.1,5-4.8c0-2.7-2.1-4.9-4.8-5c-2.7,0-4.9,2.1-5,4.8c0,0,0,0,0,0.1
			C681.7,705.2,683.9,707.4,686.5,707.4z"/>
		<path class="st14" d="M686.8,726.1c2.7,0,4.9-2.1,5-4.8c0-2.7-2.1-4.9-4.8-5c-2.7,0-4.9,2.1-5,4.8c0,0,0,0.1,0,0.1
			C681.9,723.8,684.1,726,686.8,726.1C686.8,726.1,686.8,726.1,686.8,726.1z"/>
		<path class="st14" d="M706,707.4c2.7,0,4.9-2.1,5-4.8c0-2.7-2.1-4.9-4.8-5c-2.7,0-4.9,2.1-5,4.8c0,0,0,0,0,0.1
			C701.2,705.2,703.3,707.4,706,707.4z"/>
		<path class="st15" d="M511.3,509.7c2.7,0,4.9-2.1,5-4.8c0-2.7-2.1-4.9-4.8-5c-2.7,0-4.9,2.1-5,4.8c0,0,0,0,0,0.1
			C506.4,507.5,508.6,509.7,511.3,509.7z"/>
		<path class="st15" d="M511.3,529.5c2.7,0,4.9-2.1,5-4.8c0-2.7-2.1-4.9-4.8-5c-2.7,0-4.9,2.1-5,4.8c0,0,0,0,0,0.1
			C506.4,527.3,508.6,529.5,511.3,529.5C511.3,529.5,511.3,529.5,511.3,529.5z"/>
		<path class="st15" d="M530.7,529.5c2.7,0,4.9-2.1,5-4.8c0-2.7-2.1-4.9-4.8-5c-2.7,0-4.9,2.1-5,4.8c0,0,0,0,0,0.1
			C525.9,527.3,528,529.5,530.7,529.5C530.7,529.5,530.7,529.5,530.7,529.5z"/>
		<path class="st15" d="M550.2,529.5c2.7,0,4.9-2.1,5-4.8c0-2.7-2.1-4.9-4.8-5c-2.7,0-4.9,2.1-5,4.8c0,0,0,0,0,0.1
			C545.4,527.3,547.5,529.5,550.2,529.5C550.2,529.5,550.2,529.5,550.2,529.5z"/>
		<path class="st15" d="M550.2,549.3c2.7,0,4.9-2.1,5-4.8c0-2.7-2.1-4.9-4.8-5c-2.7,0-4.9,2.1-5,4.8c0,0,0,0,0,0.1
			C545.4,547.1,547.5,549.2,550.2,549.3z"/>
		<path class="st15" d="M569.7,569c2.7,0,4.9-2.1,5-4.8c0-2.7-2.1-4.9-4.8-5c-2.7,0-4.9,2.1-5,4.8c0,0,0,0,0,0.1
			C564.9,566.8,567,569,569.7,569z"/>
		<path class="st15" d="M569.7,588.8c2.7,0,4.9-2.1,5-4.8c0-2.7-2.1-4.9-4.8-5c-2.7,0-4.9,2.1-5,4.8c0,0,0,0,0,0.1
			C564.9,586.6,567,588.8,569.7,588.8z"/>
		<path class="st15" d="M589.2,608.5c2.7,0,4.9-2.1,5-4.8c0-2.7-2.1-4.9-4.8-5c-2.7,0-4.9,2.1-5,4.8c0,0,0,0,0,0.1
			C584.3,606.3,586.5,608.5,589.2,608.5z"/>
		<path class="st15" d="M550.2,628.3c2.7,0,4.9-2.1,5-4.8c0-2.7-2.1-4.9-4.8-5c-2.7,0-4.9,2.1-5,4.8c0,0,0,0,0,0.1
			C545.4,626.1,547.5,628.3,550.2,628.3z"/>
		<path class="st15" d="M550.2,648.1c2.7,0,4.9-2.1,5-4.8c0-2.7-2.1-4.9-4.8-5c-2.7,0-4.9,2.1-5,4.8c0,0,0,0,0,0.1
			C545.4,645.9,547.5,648.1,550.2,648.1z"/>
		<path class="st15" d="M569.7,648.1c2.7,0,4.9-2.1,5-4.8c0-2.7-2.1-4.9-4.8-5c-2.7,0-4.9,2.1-5,4.8c0,0,0,0,0,0.1
			C564.9,645.9,567,648.1,569.7,648.1z"/>
		<path class="st15" d="M706.6,726.1c2.7,0,4.9-2.1,5-4.8c0-2.7-2.1-4.9-4.8-5c-2.7,0-4.9,2.1-5,4.8c0,0,0,0.1,0,0.1
			C701.7,723.8,703.9,726,706.6,726.1C706.6,726.1,706.6,726.1,706.6,726.1z"/>
		<path class="st12" d="M1056.6,707.4c2.7,0,4.9-2.1,4.9-4.8c0-2.7-2.1-4.9-4.8-4.9c-2.7,0-4.9,2.1-4.9,4.8c0,0,0,0,0,0.1
			C1051.7,705.2,1053.9,707.4,1056.6,707.4L1056.6,707.4z"/>
		<path class="st13" d="M1095.5,707.4c2.7,0,4.9-2.1,5-4.8s-2.1-4.9-4.8-5c-2.7,0-4.9,2.1-5,4.8c0,0,0,0,0,0.1
			C1090.7,705.2,1092.8,707.4,1095.5,707.4C1095.5,707.4,1095.5,707.4,1095.5,707.4z"/>
		<path class="st13" d="M1115,707.4c2.7,0,4.9-2.1,5-4.8s-2.1-4.9-4.8-5c-2.7,0-4.9,2.1-5,4.8c0,0,0,0,0,0.1
			C1110.2,705.2,1112.3,707.4,1115,707.4z"/>
		<path class="st16" d="M1485,450.4c2.7,0,4.9-2.1,5-4.8c0-2.7-2.1-4.9-4.8-5c-2.7,0-4.9,2.1-5,4.8c0,0,0,0.1,0,0.1
			C1480.2,448.2,1482.3,450.4,1485,450.4C1485,450.4,1485,450.4,1485,450.4z"/>
		<path class="st16" d="M1504.4,450.4c2.7,0,4.9-2.1,5-4.8c0-2.7-2.1-4.9-4.8-5c-2.7,0-4.9,2.1-5,4.8c0,0,0,0.1,0,0.1
			C1499.6,448.2,1501.8,450.4,1504.4,450.4C1504.4,450.4,1504.4,450.4,1504.4,450.4z"/>
		<path class="st16" d="M452.9,470.2c2.7,0,4.9-2.1,5-4.8c0-2.7-2.1-4.9-4.8-5c-2.7,0-4.9,2.1-5,4.8c0,0,0,0,0,0.1
			C448,468,450.2,470.2,452.9,470.2z"/>
		<path class="st16" d="M550.2,470.2c2.7,0,4.9-2.1,5-4.8c0-2.7-2.1-4.9-4.8-5c-2.7,0-4.9,2.1-5,4.8c0,0,0,0,0,0.1
			C545.4,468,547.5,470.2,550.2,470.2z"/>
		<path class="st16" d="M1504.4,470.2c2.7,0,4.9-2.1,5-4.8c0-2.7-2.1-4.9-4.8-5c-2.7,0-4.9,2.1-5,4.8c0,0,0,0,0,0.1
			C1499.6,468,1501.8,470.2,1504.4,470.2z"/>
		<path class="st12" d="M452.9,490c2.7,0,4.9-2.1,5-4.8c0-2.7-2.1-4.9-4.8-5c-2.7,0-4.9,2.1-5,4.8c0,0,0,0.1,0,0.1
			C448,487.8,450.2,490,452.9,490C452.8,490,452.8,490,452.9,490z"/>
		<path class="st16" d="M530.7,490c2.7,0,4.9-2.1,5-4.8c0-2.7-2.1-4.9-4.8-5c-2.7,0-4.9,2.1-5,4.8c0,0,0,0.1,0,0.1
			C525.9,487.8,528,490,530.7,490C530.7,490,530.7,490,530.7,490z"/>
		<path class="st16" d="M550.2,490c2.7,0,4.9-2.1,5-4.8c0-2.7-2.1-4.9-4.8-5c-2.7,0-4.9,2.1-5,4.8c0,0,0,0.1,0,0.1
			C545.4,487.8,547.5,490,550.2,490C550.2,490,550.2,490,550.2,490z"/>
		<path class="st16" d="M569.7,490c2.7,0,4.9-2.1,5-4.8c0-2.7-2.1-4.9-4.8-5c-2.7,0-4.9,2.1-5,4.8c0,0,0,0.1,0,0.1
			C564.8,487.8,567,490,569.7,490C569.7,490,569.7,490,569.7,490z"/>
		<path class="st16" d="M589.2,490c2.7,0,4.9-2.1,5-4.8c0-2.7-2.1-4.9-4.8-5c-2.7,0-4.9,2.1-5,4.8c0,0,0,0.1,0,0.1
			C584.3,487.8,586.5,490,589.2,490C589.2,490,589.2,490,589.2,490z"/>
		<path class="st16" d="M1387.6,490c2.7,0,4.9-2.1,5-4.8c0-2.7-2.1-4.9-4.8-5c-2.7,0-4.9,2.1-5,4.8c0,0,0,0.1,0,0.1
			C1382.8,487.8,1384.9,490,1387.6,490C1387.6,490,1387.6,490,1387.6,490z"/>
		<path class="st16" d="M530.7,509.7c2.7,0,4.9-2.1,5-4.8c0-2.7-2.1-4.9-4.8-5c-2.7,0-4.9,2.1-5,4.8c0,0,0,0,0,0.1
			C525.9,507.5,528.1,509.7,530.7,509.7C530.7,509.7,530.7,509.7,530.7,509.7z"/>
		<path class="st16" d="M550.2,509.7c2.7,0,4.9-2.1,5-4.8c0-2.7-2.1-4.9-4.8-5c-2.7,0-4.9,2.1-5,4.8c0,0,0,0,0,0.1
			C545.4,507.5,547.5,509.7,550.2,509.7z"/>
		<path class="st16" d="M569.7,509.7c2.7,0,4.9-2.1,5-4.8c0-2.7-2.1-4.9-4.8-5c-2.7,0-4.9,2.1-5,4.8c0,0,0,0,0,0.1
			C564.9,507.5,567,509.7,569.7,509.7z"/>
		<path class="st16" d="M589.2,509.7c2.7,0,4.9-2.1,5-4.8c0-2.7-2.1-4.9-4.8-5c-2.7,0-4.9,2.1-5,4.8c0,0,0,0,0,0.1
			C584.3,507.5,586.5,509.7,589.2,509.7z"/>
		<path class="st16" d="M1387.6,509.7c2.7,0,4.9-2.1,5-4.8c0-2.7-2.1-4.9-4.8-5c-2.7,0-4.9,2.1-5,4.8c0,0,0,0,0,0.1
			C1382.8,507.5,1384.9,509.7,1387.6,509.7z"/>
		<path class="st16" d="M569.7,529.5c2.7,0,4.9-2.1,5-4.8c0-2.7-2.1-4.9-4.8-5c-2.7,0-4.9,2.1-5,4.8c0,0,0,0,0,0.1
			C564.8,527.3,567,529.5,569.7,529.5C569.7,529.5,569.7,529.5,569.7,529.5z"/>
		<path class="st16" d="M1485,529.5c2.7,0,4.9-2.1,5-4.8s-2.1-4.9-4.8-5c-2.7,0-4.9,2.1-5,4.8c0,0,0,0,0,0.1
			C1480.2,527.3,1482.3,529.5,1485,529.5C1485,529.5,1485,529.5,1485,529.5z"/>
		<path class="st16" d="M1504.4,529.5c2.7,0,4.9-2.1,5-4.8s-2.1-4.9-4.8-5c-2.7,0-4.9,2.1-5,4.8c0,0,0,0,0,0.1
			C1499.6,527.3,1501.8,529.5,1504.4,529.5C1504.4,529.5,1504.4,529.5,1504.4,529.5z"/>
		<path class="st16" d="M569.7,549.3c2.7,0,4.9-2.1,5-4.8c0-2.7-2.1-4.9-4.8-5c-2.7,0-4.9,2.1-5,4.8c0,0,0,0,0,0.1
			C564.9,547.1,567,549.2,569.7,549.3z"/>
		<path class="st16" d="M1485,549.3c2.7,0,4.9-2.1,5-4.8s-2.1-4.9-4.8-5c-2.7,0-4.9,2.1-5,4.8c0,0,0,0,0,0.1
			C1480.2,547.1,1482.3,549.2,1485,549.3z"/>
		<path class="st16" d="M1504.4,549.3c2.7,0,4.9-2.1,5-4.8s-2.1-4.9-4.8-5c-2.7,0-4.9,2.1-5,4.8c0,0,0,0,0,0.1
			C1499.6,547.1,1501.8,549.2,1504.4,549.3z"/>
		<path class="st16" d="M491.8,569c2.7,0,4.9-2.1,5-4.8c0-2.7-2.1-4.9-4.8-5s-4.9,2.1-5,4.8c0,0,0,0,0,0.1
			C487,566.8,489.1,569,491.8,569C491.8,569,491.8,569,491.8,569z"/>
		<path class="st16" d="M1231.8,588.8c2.7,0,4.9-2.1,5-4.8s-2.1-4.9-4.8-5c-2.7,0-4.9,2.1-5,4.8c0,0,0,0,0,0.1
			C1227,586.6,1229.1,588.8,1231.8,588.8z"/>
		<path class="st16" d="M1251.3,588.8c2.7,0,4.9-2.1,5-4.8s-2.1-4.9-4.8-5c-2.7,0-4.9,2.1-5,4.8c0,0,0,0,0,0.1
			C1246.5,586.6,1248.6,588.8,1251.3,588.8z"/>
		<path class="st16" d="M1270.8,588.8c2.7,0,4.9-2.1,5-4.8s-2.1-4.9-4.8-5c-2.7,0-4.9,2.1-5,4.8c0,0,0,0,0,0.1
			C1265.9,586.6,1268.1,588.8,1270.8,588.8C1270.8,588.8,1270.8,588.8,1270.8,588.8z"/>
		<path class="st16" d="M1348.7,588.8c2.7,0,4.9-2.1,5-4.8s-2.1-4.9-4.8-5c-2.7,0-4.9,2.1-5,4.8c0,0,0,0,0,0.1
			C1343.8,586.6,1346,588.8,1348.7,588.8z"/>
		<path class="st16" d="M1368.1,588.8c2.7,0,4.9-2.1,5-4.8c0-2.7-2.1-4.9-4.8-5s-4.9,2.1-5,4.8c0,0,0,0.1,0,0.1
			C1363.3,586.6,1365.5,588.8,1368.1,588.8C1368.1,588.8,1368.1,588.8,1368.1,588.8z"/>
		<path class="st16" d="M1212.3,608.5c2.7,0,4.9-2.1,5-4.8s-2.1-4.9-4.8-5c-2.7,0-4.9,2.1-5,4.8c0,0,0,0,0,0.1
			C1207.5,606.3,1209.7,608.5,1212.3,608.5z"/>
		<path class="st16" d="M1231.8,608.5c2.7,0,4.9-2.1,5-4.8s-2.1-4.9-4.8-5c-2.7,0-4.9,2.1-5,4.8c0,0,0,0,0,0.1
			C1227,606.3,1229.1,608.5,1231.8,608.5z"/>
		<path class="st16" d="M1251.3,608.5c2.7,0,4.9-2.1,5-4.8s-2.1-4.9-4.8-5c-2.7,0-4.9,2.1-5,4.8c0,0,0,0,0,0.1
			C1246.5,606.3,1248.6,608.5,1251.3,608.5z"/>
		<path class="st16" d="M530.7,628.3c2.7,0,4.9-2.1,5-4.8c0-2.7-2.1-4.9-4.8-5c-2.7,0-4.9,2.1-5,4.8c0,0,0,0,0,0.1
			C525.9,626.1,528.1,628.3,530.7,628.3C530.7,628.3,530.7,628.3,530.7,628.3z"/>
		<path class="st16" d="M1212.3,628.3c2.7,0,4.9-2.1,5-4.8s-2.1-4.9-4.8-5c-2.7,0-4.9,2.1-5,4.8c0,0,0,0,0,0.1
			C1207.5,626.1,1209.7,628.3,1212.3,628.3z"/>
		<path class="st16" d="M1231.8,628.3c2.7,0,4.9-2.1,5-4.8s-2.1-4.9-4.8-5c-2.7,0-4.9,2.1-5,4.8c0,0,0,0,0,0.1
			C1227,626.1,1229.1,628.3,1231.8,628.3z"/>
		<path class="st16" d="M1251.3,628.3c2.7,0,4.9-2.1,5-4.8s-2.1-4.9-4.8-5c-2.7,0-4.9,2.1-5,4.8c0,0,0,0,0,0.1
			C1246.5,626.1,1248.6,628.3,1251.3,628.3z"/>
		<path class="st16" d="M589.2,667.8c2.7,0,4.9-2.1,5-4.8c0-2.7-2.1-4.9-4.8-5c-2.7,0-4.9,2.1-5,4.8c0,0,0,0,0,0.1
			C584.3,665.6,586.5,667.8,589.2,667.8z"/>
		<path class="st16" d="M608.6,667.8c2.7,0,4.9-2.1,5-4.8c0-2.7-2.1-4.9-4.8-5c-2.7,0-4.9,2.1-5,4.8c0,0,0,0,0,0.1
			C603.8,665.6,606,667.8,608.6,667.8z"/>
		<path class="st16" d="M608.6,687.6c2.7,0,4.9-2.1,5-4.8c0-2.7-2.1-4.9-4.8-5c-2.7,0-4.9,2.1-5,4.8c0,0,0,0,0,0.1
			C603.8,685.4,606,687.6,608.6,687.6z"/>
		<path class="st16" d="M628.1,687.6c2.7,0,4.9-2.1,5-4.8c0-2.7-2.1-4.9-4.8-5c-2.7,0-4.9,2.1-5,4.8c0,0,0,0,0,0.1
			C623.3,685.4,625.4,687.6,628.1,687.6C628.1,687.6,628.1,687.6,628.1,687.6z"/>
		<path class="st16" d="M1056.6,727.1c2.7,0,4.9-2.1,4.9-4.8c0-2.7-2.1-4.9-4.8-4.9c-2.7,0-4.9,2.1-4.9,4.8c0,0,0,0,0,0.1
			C1051.7,724.9,1053.9,727.1,1056.6,727.1L1056.6,727.1z"/>
		<path class="st13" d="M1095.5,727.1c2.7,0,4.9-2.1,5-4.8s-2.1-4.9-4.8-5c-2.7,0-4.9,2.1-5,4.8c0,0,0,0,0,0.1
			C1090.7,724.9,1092.8,727.1,1095.5,727.1C1095.5,727.1,1095.5,727.1,1095.5,727.1z"/>
		<path class="st13" d="M1115,727.1c2.7,0,4.9-2.1,5-4.8s-2.1-4.9-4.8-5c-2.7,0-4.9,2.1-5,4.8c0,0,0,0,0,0.1
			C1110.2,724.9,1112.3,727.1,1115,727.1z"/>
		<path class="st17" d="M1426.6,371.4c2.7,0,4.9-2.1,5-4.8s-2.1-4.9-4.8-5c-2.7,0-4.9,2.1-5,4.8c0,0,0,0.1,0,0.1
			C1421.7,369.2,1423.9,371.4,1426.6,371.4C1426.6,371.4,1426.6,371.4,1426.6,371.4z"/>
		<path class="st17" d="M1446,371.4c2.7,0,4.9-2.1,5-4.8s-2.1-4.9-4.8-5c-2.7,0-4.9,2.1-5,4.8c0,0,0,0.1,0,0.1
			C1441.2,369.2,1443.3,371.4,1446,371.4z"/>
		<path class="st17" d="M1426.6,391.1c2.7,0,4.9-2.1,5-4.8c0-2.7-2.1-4.9-4.8-5c-2.7,0-4.9,2.1-5,4.8c0,0,0,0,0,0.1
			C1421.7,388.9,1423.9,391.1,1426.6,391.1C1426.6,391.1,1426.6,391.1,1426.6,391.1z"/>
		<path class="st17" d="M1446,391.1c2.7,0,4.9-2.1,5-4.8c0-2.7-2.1-4.9-4.8-5c-2.7,0-4.9,2.1-5,4.8c0,0,0,0,0,0.1
			C1441.2,388.9,1443.3,391.1,1446,391.1z"/>
		<path class="st17" d="M452.9,410.9c2.7,0,4.9-2.1,4.9-4.8c0-2.7-2.1-4.9-4.8-4.9c-2.7,0-4.9,2.1-4.9,4.8c0,0,0,0,0,0
			C448,408.7,450.1,410.9,452.9,410.9C452.8,410.9,452.8,410.9,452.9,410.9z"/>
		<path class="st17" d="M431.1,410.9c2.7,0,4.9-2.1,5-4.8c0-2.7-2.1-4.9-4.8-5c-2.7,0-4.9,2.1-5,4.8c0,0,0,0.1,0,0.1
			C426.2,408.7,428.4,410.9,431.1,410.9C431.1,410.9,431.1,410.9,431.1,410.9z"/>
		<path class="st17" d="M472.3,410.9c2.7,0,4.9-2.1,5-4.8c0-2.7-2.1-4.9-4.8-5c-2.7,0-4.9,2.1-5,4.8c0,0,0,0.1,0,0.1
			C467.5,408.7,469.6,410.9,472.3,410.9C472.3,410.9,472.3,410.9,472.3,410.9z"/>
		<path class="st17" d="M452.6,391.1c2.7,0,4.9-2.1,5-4.8c0-2.7-2.1-4.9-4.8-5c-2.7,0-4.9,2.1-5,4.8c0,0,0,0,0,0.1
			C447.8,388.9,449.9,391.1,452.6,391.1C452.6,391.1,452.6,391.1,452.6,391.1z"/>
		<path class="st17" d="M491.8,410.9c2.7,0.1,4.9-2.1,5-4.8c0.1-2.7-2.1-4.9-4.8-5c-2.7-0.1-4.9,2.1-5,4.8c0,0,0,0.1,0,0.1
			C487,408.7,489.1,410.9,491.8,410.9C491.8,410.9,491.8,410.9,491.8,410.9z"/>
		<path class="st17" d="M1407.1,410.9c2.7,0,4.9-2.1,5-4.8c0-2.7-2.1-4.9-4.8-5c-2.7,0-4.9,2.1-5,4.8c0,0,0,0.1,0,0.1
			C1402.2,408.7,1404.4,410.9,1407.1,410.9C1407.1,410.9,1407.1,410.9,1407.1,410.9z"/>
		<path class="st17" d="M1426.6,410.9c2.7,0,4.9-2.1,5-4.8c0-2.7-2.1-4.9-4.8-5c-2.7,0-4.9,2.1-5,4.8c0,0,0,0.1,0,0.1
			C1421.7,408.7,1423.9,410.9,1426.6,410.9C1426.5,410.9,1426.6,410.9,1426.6,410.9z"/>
		<path class="st17" d="M1446,410.9c2.7,0,4.9-2.1,5-4.8c0-2.7-2.1-4.9-4.8-5c-2.7,0-4.9,2.1-5,4.8c0,0,0,0.1,0,0.1
			C1441.2,408.7,1443.3,410.9,1446,410.9C1446,410.9,1446,410.9,1446,410.9z"/>
		<path class="st17" d="M452.9,430.7c2.7,0,4.9-2.1,5-4.8c0-2.7-2.1-4.9-4.8-5c-2.7,0-4.9,2.1-5,4.8c0,0,0,0,0,0.1
			C448,428.5,450.2,430.6,452.9,430.7z"/>
		<path class="st17" d="M430.2,430.9c2.7,0,4.9-2.1,5-4.8c0-2.7-2.1-4.9-4.8-5c-2.7,0-4.9,2.1-5,4.8c0,0,0,0,0,0.1
			C425.4,428.7,427.5,430.9,430.2,430.9z"/>
		<path class="st17" d="M472.3,430.7c2.7,0,4.9-2.1,5-4.8c0-2.7-2.1-4.9-4.8-5c-2.7,0-4.9,2.1-5,4.8c0,0,0,0,0,0.1
			C467.5,428.5,469.6,430.6,472.3,430.7z"/>
		<path class="st17" d="M491.8,430.7c2.7,0,4.9-2.1,5-4.8c0-2.7-2.1-4.9-4.8-5c-2.7,0-4.9,2.1-5,4.8c0,0,0,0,0,0.1
			C487,428.5,489.1,430.6,491.8,430.7C491.8,430.7,491.8,430.7,491.8,430.7z"/>
		<path class="st17" d="M511.3,430.7c2.7,0,4.9-2.1,5-4.8c0-2.7-2.1-4.9-4.8-5c-2.7,0-4.9,2.1-5,4.8c0,0,0,0,0,0.1
			C506.4,428.5,508.6,430.6,511.3,430.7z"/>
		<path class="st17" d="M530.7,430.7c2.7,0,4.9-2.1,5-4.8c0-2.7-2.1-4.9-4.8-5c-2.7,0-4.9,2.1-5,4.8c0,0,0,0,0,0.1
			C525.9,428.5,528.1,430.6,530.7,430.7C530.7,430.7,530.7,430.7,530.7,430.7z"/>
		<path class="st17" d="M1387.6,430.7c2.7,0,4.9-2.1,5-4.8c0-2.7-2.1-4.9-4.8-5c-2.7,0-4.9,2.1-5,4.8c0,0,0,0,0,0.1
			C1382.8,428.5,1384.9,430.6,1387.6,430.7z"/>
		<path class="st17" d="M1407.1,430.7c2.7,0,4.9-2.1,5-4.8c0-2.7-2.1-4.9-4.8-5c-2.7,0-4.9,2.1-5,4.8c0,0,0,0,0,0.1
			C1402.2,428.5,1404.4,430.6,1407.1,430.7z"/>
		<path class="st17" d="M1426.6,430.7c2.7,0,4.9-2.1,5-4.8c0-2.7-2.1-4.9-4.8-5c-2.7,0-4.9,2.1-5,4.8c0,0,0,0,0,0.1
			C1421.7,428.5,1423.9,430.6,1426.6,430.7C1426.6,430.7,1426.6,430.7,1426.6,430.7z"/>
		<path class="st17" d="M1446,430.7c2.7,0,4.9-2.1,5-4.8c0-2.7-2.1-4.9-4.8-5c-2.7,0-4.9,2.1-5,4.8c0,0,0,0,0,0.1
			C1441.2,428.5,1443.3,430.6,1446,430.7z"/>
		<path class="st17" d="M1465.5,430.7c2.7,0,4.9-2.1,5-4.8c0-2.7-2.1-4.9-4.8-5c-2.7,0-4.9,2.1-5,4.8c0,0,0,0,0,0.1
			C1460.7,428.5,1462.8,430.6,1465.5,430.7z"/>
		<path class="st17" d="M1485,430.7c2.7,0,4.9-2.1,5-4.8c0-2.7-2.1-4.9-4.8-5c-2.7,0-4.9,2.1-5,4.8c0,0,0,0,0,0.1
			C1480.2,428.5,1482.3,430.6,1485,430.7z"/>
		<path class="st17" d="M452.9,450.4c2.7,0,4.9-2.1,5-4.8c0-2.7-2.1-4.9-4.8-5c-2.7,0-4.9,2.1-5,4.8c0,0,0,0.1,0,0.1
			C448,448.2,450.2,450.4,452.9,450.4C452.8,450.4,452.8,450.4,452.9,450.4z"/>
		<path class="st17" d="M472.3,450.4c2.7,0,4.9-2.1,5-4.8c0-2.7-2.1-4.9-4.8-5c-2.7,0-4.9,2.1-5,4.8c0,0,0,0.1,0,0.1
			C467.5,448.2,469.6,450.4,472.3,450.4C472.3,450.4,472.3,450.4,472.3,450.4z"/>
		<path class="st17" d="M491.8,450.4c2.7,0,4.9-2.1,5-4.8c0-2.7-2.1-4.9-4.8-5c-2.7,0-4.9,2.1-5,4.8c0,0,0,0.1,0,0.1
			C487,448.2,489.1,450.4,491.8,450.4C491.8,450.4,491.8,450.4,491.8,450.4z"/>
		<path class="st17" d="M511.3,450.4c2.7,0,4.9-2.1,5-4.8c0-2.7-2.1-4.9-4.8-5c-2.7,0-4.9,2.1-5,4.8c0,0,0,0.1,0,0.1
			C506.4,448.2,508.6,450.4,511.3,450.4C511.3,450.4,511.3,450.4,511.3,450.4z"/>
		<path class="st17" d="M530.7,450.4c2.7,0,4.9-2.1,5-4.8c0-2.7-2.1-4.9-4.8-5c-2.7,0-4.9,2.1-5,4.8c0,0,0,0.1,0,0.1
			C525.9,448.2,528,450.4,530.7,450.4C530.7,450.4,530.7,450.4,530.7,450.4z"/>
		<path class="st17" d="M550.2,450.4c2.7,0,4.9-2.1,5-4.8c0-2.7-2.1-4.9-4.8-5c-2.7,0-4.9,2.1-5,4.8c0,0,0,0.1,0,0.1
			C545.4,448.2,547.5,450.4,550.2,450.4C550.2,450.4,550.2,450.4,550.2,450.4z"/>
		<path class="st17" d="M569.7,450.4c2.7,0,4.9-2.1,5-4.8c0-2.7-2.1-4.9-4.8-5c-2.7,0-4.9,2.1-5,4.8c0,0,0,0.1,0,0.1
			C564.8,448.2,567,450.4,569.7,450.4C569.7,450.4,569.7,450.4,569.7,450.4z"/>
		<path class="st17" d="M589.2,450.4c2.7,0,4.9-2.1,5-4.8c0-2.7-2.1-4.9-4.8-5c-2.7,0-4.9,2.1-5,4.8c0,0,0,0.1,0,0.1
			C584.3,448.2,586.5,450.4,589.2,450.4C589.2,450.4,589.2,450.4,589.2,450.4z"/>
		<path class="st17" d="M608.6,450.4c2.7,0,4.9-2.1,5-4.8c0-2.7-2.1-4.9-4.8-5c-2.7,0-4.9,2.1-5,4.8c0,0,0,0.1,0,0.1
			C603.8,448.2,606,450.4,608.6,450.4C608.6,450.4,608.6,450.4,608.6,450.4z"/>
		<path class="st17" d="M589.3,430.9c2.7,0,4.9-2.1,5-4.8c0-2.7-2.1-4.9-4.8-5c-2.7,0-4.9,2.1-5,4.8c0,0,0,0,0,0.1
			C584.5,428.7,586.6,430.9,589.3,430.9C589.3,430.9,589.3,430.9,589.3,430.9z"/>
		<path class="st17" d="M1426.6,450.4c2.7,0,4.9-2.1,5-4.8c0-2.7-2.1-4.9-4.8-5c-2.7,0-4.9,2.1-5,4.8c0,0,0,0.1,0,0.1
			C1421.7,448.2,1423.9,450.4,1426.6,450.4C1426.5,450.4,1426.6,450.4,1426.6,450.4z"/>
		<path class="st17" d="M1446,450.4c2.7,0,4.9-2.1,5-4.8c0-2.7-2.1-4.9-4.8-5c-2.7,0-4.9,2.1-5,4.8c0,0,0,0.1,0,0.1
			C1441.2,448.2,1443.3,450.4,1446,450.4C1446,450.4,1446,450.4,1446,450.4z"/>
		<path class="st17" d="M1465.5,450.4c2.7,0,4.9-2.1,5-4.8c0-2.7-2.1-4.9-4.8-5c-2.7,0-4.9,2.1-5,4.8c0,0,0,0.1,0,0.1
			C1460.7,448.2,1462.8,450.4,1465.5,450.4C1465.5,450.4,1465.5,450.4,1465.5,450.4z"/>
		<path class="st17" d="M472.3,470.2c2.7,0,4.9-2.1,5-4.8c0-2.7-2.1-4.9-4.8-5c-2.7,0-4.9,2.1-5,4.8c0,0,0,0,0,0.1
			C467.5,468,469.6,470.2,472.3,470.2z"/>
		<path class="st17" d="M530.7,470.2c2.7,0,4.9-2.1,5-4.8c0-2.7-2.1-4.9-4.8-5c-2.7,0-4.9,2.1-5,4.8c0,0,0,0,0,0.1
			C525.9,468,528.1,470.2,530.7,470.2C530.7,470.2,530.7,470.2,530.7,470.2z"/>
		<ellipse class="st17" cx="569.7" cy="465.3" rx="4.8" ry="4.9"/>
		<path class="st17" d="M589.2,470.2c2.7,0,4.9-2.1,5-4.8c0-2.7-2.1-4.9-4.8-5c-2.7,0-4.9,2.1-5,4.8c0,0,0,0,0,0.1
			C584.3,468,586.5,470.2,589.2,470.2z"/>
		<path class="st17" d="M608.6,470.2c2.7,0,4.9-2.1,5-4.8c0-2.7-2.1-4.9-4.8-5c-2.7,0-4.9,2.1-5,4.8c0,0,0,0,0,0.1
			C603.8,468,606,470.2,608.6,470.2z"/>
		<path class="st17" d="M628.1,470.2c2.7,0,4.9-2.1,5-4.8c0-2.7-2.1-4.9-4.8-5c-2.7,0-4.9,2.1-5,4.8c0,0,0,0,0,0.1
			C623.3,468,625.4,470.2,628.1,470.2C628.1,470.2,628.1,470.2,628.1,470.2z"/>
		<path class="st17" d="M1368.1,470.2c2.7,0,4.9-2.1,5-4.8c0-2.7-2.1-4.9-4.8-5s-4.9,2.1-5,4.8c0,0,0,0.1,0,0.1
			C1363.3,468,1365.5,470.2,1368.1,470.2C1368.1,470.2,1368.1,470.2,1368.1,470.2z"/>
		<path class="st17" d="M1387.6,470.2c2.7,0,4.9-2.1,5-4.8c0-2.7-2.1-4.9-4.8-5c-2.7,0-4.9,2.1-5,4.8c0,0,0,0,0,0.1
			C1382.8,468,1384.9,470.2,1387.6,470.2z"/>
		<path class="st17" d="M1407.1,470.2c2.7,0,4.9-2.1,5-4.8c0-2.7-2.1-4.9-4.8-5c-2.7,0-4.9,2.1-5,4.8c0,0,0,0,0,0.1
			C1402.2,468,1404.4,470.2,1407.1,470.2z"/>
		<path class="st17" d="M1426.6,470.2c2.7,0,4.9-2.1,5-4.8c0-2.7-2.1-4.9-4.8-5c-2.7,0-4.9,2.1-5,4.8c0,0,0,0,0,0.1
			C1421.7,468,1423.9,470.2,1426.6,470.2C1426.6,470.2,1426.6,470.2,1426.6,470.2z"/>
		<path class="st17" d="M1446,470.2c2.7,0,4.9-2.1,5-4.8c0-2.7-2.1-4.9-4.8-5c-2.7,0-4.9,2.1-5,4.8c0,0,0,0,0,0.1
			C1441.2,468,1443.3,470.2,1446,470.2z"/>
		<path class="st17" d="M1465.5,470.2c2.7,0,4.9-2.1,5-4.8c0-2.7-2.1-4.9-4.8-5c-2.7,0-4.9,2.1-5,4.8c0,0,0,0,0,0.1
			C1460.7,468,1462.8,470.2,1465.5,470.2z"/>
		<ellipse class="st17" cx="1485" cy="465.3" rx="4.8" ry="4.9"/>
		<path class="st17" d="M1523.9,470.2c2.7,0,4.9-2.1,5-4.8c0-2.7-2.1-4.9-4.8-5c-2.7,0-4.9,2.1-5,4.8c0,0,0,0,0,0.1
			C1519.1,468,1521.2,470.2,1523.9,470.2z"/>
		<path class="st17" d="M472.3,490c2.7,0,4.9-2.1,5-4.8c0-2.7-2.1-4.9-4.8-5c-2.7,0-4.9,2.1-5,4.8c0,0,0,0.1,0,0.1
			C467.5,487.8,469.6,490,472.3,490C472.3,490,472.3,490,472.3,490z"/>
		<path class="st17" d="M608.6,490c2.7,0,4.9-2.1,5-4.8c0-2.7-2.1-4.9-4.8-5c-2.7,0-4.9,2.1-5,4.8c0,0,0,0.1,0,0.1
			C603.8,487.8,606,490,608.6,490C608.6,490,608.6,490,608.6,490z"/>
		<path class="st17" d="M628.1,490c2.7,0,4.9-2.1,5-4.8c0-2.7-2.1-4.9-4.8-5c-2.7,0-4.9,2.1-5,4.8c0,0,0,0.1,0,0.1
			C623.3,487.8,625.4,490,628.1,490C628.1,490,628.1,490,628.1,490z"/>
		<path class="st17" d="M647.6,490c2.7,0,4.9-2.1,5-4.8c0-2.7-2.1-4.9-4.8-5c-2.7,0-4.9,2.1-5,4.8c0,0,0,0.1,0,0.1
			C642.7,487.8,644.9,490,647.6,490C647.6,490,647.6,490,647.6,490z"/>
		<path class="st17" d="M1348.7,490c2.7,0,4.9-2.1,5-4.8c0-2.7-2.1-4.9-4.8-5c-2.7,0-4.9,2.1-5,4.8c0,0,0,0.1,0,0.1
			C1343.8,487.8,1346,490,1348.7,490C1348.7,490,1348.7,490,1348.7,490z"/>
		<path class="st17" d="M1368.1,490c2.7,0,4.9-2.1,5-4.8s-2.1-4.9-4.8-5c-2.7,0-4.9,2.1-5,4.8c0,0,0,0.1,0,0.1
			C1363.3,487.8,1365.4,490,1368.1,490C1368.1,490,1368.1,490,1368.1,490z"/>
		<path class="st17" d="M1407.1,490c2.7,0,4.9-2.1,5-4.8c0-2.7-2.1-4.9-4.8-5c-2.7,0-4.9,2.1-5,4.8c0,0,0,0.1,0,0.1
			C1402.2,487.8,1404.4,490,1407.1,490C1407.1,490,1407.1,490,1407.1,490z"/>
		<path class="st17" d="M1426.6,490c2.7,0,4.9-2.1,5-4.8c0-2.7-2.1-4.9-4.8-5c-2.7,0-4.9,2.1-5,4.8c0,0,0,0.1,0,0.1
			C1421.7,487.8,1423.9,490,1426.6,490C1426.5,490,1426.6,490,1426.6,490z"/>
		<path class="st17" d="M1446,490c2.7,0,4.9-2.1,5-4.8c0-2.7-2.1-4.9-4.8-5c-2.7,0-4.9,2.1-5,4.8c0,0,0,0.1,0,0.1
			C1441.2,487.8,1443.3,490,1446,490C1446,490,1446,490,1446,490z"/>
		<path class="st17" d="M1465.5,490c2.7,0,4.9-2.1,5-4.8c0-2.7-2.1-4.9-4.8-5c-2.7,0-4.9,2.1-5,4.8c0,0,0,0.1,0,0.1
			C1460.7,487.8,1462.8,490,1465.5,490C1465.5,490,1465.5,490,1465.5,490z"/>
		<path class="st17" d="M1485,490c2.7,0,4.9-2.1,5-4.8c0-2.7-2.1-4.9-4.8-5c-2.7,0-4.9,2.1-5,4.8c0,0,0,0.1,0,0.1
			C1480.2,487.8,1482.3,490,1485,490C1485,490,1485,490,1485,490z"/>
		<path class="st17" d="M1504.4,490c2.7,0,4.9-2.1,5-4.8c0-2.7-2.1-4.9-4.8-5c-2.7,0-4.9,2.1-5,4.8c0,0,0,0.1,0,0.1
			C1499.6,487.8,1501.8,490,1504.4,490C1504.4,490,1504.4,490,1504.4,490z"/>
		<path class="st17" d="M1523.9,490c2.7,0,4.9-2.1,5-4.8c0-2.7-2.1-4.9-4.8-5c-2.7,0-4.9,2.1-5,4.8c0,0,0,0.1,0,0.1
			C1519.1,487.8,1521.2,490,1523.9,490C1523.9,490,1523.9,490,1523.9,490z"/>
		<path class="st17" d="M1543.4,490c2.7,0,4.9-2.1,5-4.8c0-2.7-2.1-4.9-4.8-5c-2.7,0-4.9,2.1-5,4.8c0,0,0,0.1,0,0.1
			C1538.6,487.8,1540.7,490,1543.4,490C1543.4,490,1543.4,490,1543.4,490z"/>
		<path class="st17" d="M1562.9,490c2.7,0,4.9-2.1,5-4.8c0-2.7-2.1-4.9-4.8-5c-2.7,0-4.9,2.1-5,4.8c0,0,0,0.1,0,0.1
			C1558,487.8,1560.2,490,1562.9,490C1562.9,490,1562.9,490,1562.9,490z"/>
		<path class="st17" d="M608.6,509.7c2.7,0,4.9-2.1,5-4.8c0-2.7-2.1-4.9-4.8-5c-2.7,0-4.9,2.1-5,4.8c0,0,0,0,0,0.1
			C603.8,507.5,606,509.7,608.6,509.7z"/>
		<path class="st17" d="M628.1,509.7c2.7,0,4.9-2.1,5-4.8c0-2.7-2.1-4.9-4.8-5c-2.7,0-4.9,2.1-5,4.8c0,0,0,0,0,0.1
			C623.3,507.5,625.4,509.7,628.1,509.7C628.1,509.7,628.1,509.7,628.1,509.7z"/>
		<path class="st17" d="M647.6,509.7c2.7,0,4.9-2.1,5-4.8c0-2.7-2.1-4.9-4.8-5c-2.7,0-4.9,2.1-5,4.8c0,0,0,0,0,0.1
			C642.8,507.5,644.9,509.7,647.6,509.7z"/>
		<path class="st17" d="M1348.7,509.7c2.7,0,4.9-2.1,5-4.8c0-2.7-2.1-4.9-4.8-5c-2.7,0-4.9,2.1-5,4.8c0,0,0,0,0,0.1
			C1343.8,507.5,1346,509.7,1348.7,509.7z"/>
		<path class="st17" d="M1368.1,509.7c2.7,0,4.9-2.1,5-4.8c0-2.7-2.1-4.9-4.8-5s-4.9,2.1-5,4.8c0,0,0,0.1,0,0.1
			C1363.3,507.5,1365.5,509.7,1368.1,509.7C1368.1,509.7,1368.1,509.7,1368.1,509.7z"/>
		<path class="st17" d="M1407.1,509.7c2.7,0,4.9-2.1,5-4.8c0-2.7-2.1-4.9-4.8-5c-2.7,0-4.9,2.1-5,4.8c0,0,0,0,0,0.1
			C1402.2,507.5,1404.4,509.7,1407.1,509.7z"/>
		<path class="st17" d="M1426.6,509.7c2.7,0,4.9-2.1,5-4.8c0-2.7-2.1-4.9-4.8-5c-2.7,0-4.9,2.1-5,4.8c0,0,0,0,0,0.1
			C1421.7,507.5,1423.9,509.7,1426.6,509.7C1426.6,509.7,1426.6,509.7,1426.6,509.7z"/>
		<path class="st17" d="M1446,509.7c2.7,0,4.9-2.1,5-4.8c0-2.7-2.1-4.9-4.8-5c-2.7,0-4.9,2.1-5,4.8c0,0,0,0,0,0.1
			C1441.2,507.5,1443.3,509.7,1446,509.7z"/>
		<path class="st17" d="M1465.5,509.7c2.7,0,4.9-2.1,5-4.8c0-2.7-2.1-4.9-4.8-5c-2.7,0-4.9,2.1-5,4.8c0,0,0,0,0,0.1
			C1460.7,507.5,1462.8,509.7,1465.5,509.7z"/>
		<path class="st17" d="M1485,509.7c2.7,0,4.9-2.1,5-4.8c0-2.7-2.1-4.9-4.8-5c-2.7,0-4.9,2.1-5,4.8c0,0,0,0,0,0.1
			C1480.2,507.5,1482.3,509.7,1485,509.7z"/>
		<path class="st17" d="M1504.4,509.7c2.7,0,4.9-2.1,5-4.8c0-2.7-2.1-4.9-4.8-5c-2.7,0-4.9,2.1-5,4.8c0,0,0,0,0,0.1
			C1499.6,507.5,1501.8,509.7,1504.4,509.7z"/>
		<path class="st17" d="M1523.9,509.7c2.7,0,4.9-2.1,5-4.8c0-2.7-2.1-4.9-4.8-5c-2.7,0-4.9,2.1-5,4.8c0,0,0,0,0,0.1
			C1519.1,507.5,1521.2,509.7,1523.9,509.7z"/>
		<path class="st17" d="M1543.4,509.7c2.7,0,4.9-2.1,5-4.8c0-2.7-2.1-4.9-4.8-5c-2.7,0-4.9,2.1-5,4.8c0,0,0,0,0,0.1
			C1538.6,507.5,1540.7,509.7,1543.4,509.7z"/>
		<path class="st17" d="M1562.9,509.7c2.7,0,4.9-2.1,5-4.8c0-2.7-2.1-4.9-4.8-5c-2.7,0-4.9,2.1-5,4.8c0,0,0,0,0,0.1
			C1558,507.5,1560.2,509.7,1562.9,509.7z"/>
		<path class="st17" d="M647.6,529.5c2.7,0,4.9-2.1,5-4.8c0-2.7-2.1-4.9-4.8-5c-2.7,0-4.9,2.1-5,4.8c0,0,0,0,0,0.1
			C642.7,527.3,644.9,529.5,647.6,529.5C647.6,529.5,647.6,529.5,647.6,529.5z"/>
		<path class="st17" d="M667.1,529.5c2.7,0,4.9-2.1,5-4.8c0-2.7-2.1-4.9-4.8-5c-2.7,0-4.9,2.1-5,4.8c0,0,0,0,0,0.1
			C662.2,527.3,664.4,529.5,667.1,529.5C667.1,529.5,667.1,529.5,667.1,529.5z"/>
		<path class="st17" d="M1270.8,529.5c2.7,0,4.9-2.1,5-4.8s-2.1-4.9-4.8-5c-2.7,0-4.9,2.1-5,4.8c0,0,0,0,0,0.1
			C1265.9,527.3,1268.1,529.5,1270.8,529.5C1270.7,529.5,1270.7,529.5,1270.8,529.5z"/>
		<path class="st17" d="M1290.2,529.5c2.7,0,4.9-2.1,5-4.8s-2.1-4.9-4.8-5c-2.7,0-4.9,2.1-5,4.8c0,0,0,0,0,0.1
			C1285.4,527.3,1287.6,529.5,1290.2,529.5C1290.2,529.5,1290.2,529.5,1290.2,529.5z"/>
		<path class="st17" d="M1270.8,509.7c2.7,0,4.9-2.1,5-4.8c0-2.7-2.1-4.9-4.8-5c-2.7,0-4.9,2.1-5,4.8c0,0,0,0,0,0.1
			C1265.9,507.5,1268.1,509.7,1270.8,509.7z"/>
		<path class="st17" d="M1348.7,529.5c2.7,0,4.9-2.1,5-4.8s-2.1-4.9-4.8-5c-2.7,0-4.9,2.1-5,4.8c0,0,0,0,0,0.1
			C1343.8,527.3,1346,529.5,1348.7,529.5C1348.7,529.5,1348.7,529.5,1348.7,529.5z"/>
		<path class="st17" d="M1368.1,529.5c2.7,0,4.9-2.1,5-4.8c0-2.7-2.1-4.9-4.8-5s-4.9,2.1-5,4.8c0,0,0,0.1,0,0.1
			C1363.3,527.3,1365.4,529.5,1368.1,529.5C1368.1,529.5,1368.1,529.5,1368.1,529.5z"/>
		<path class="st17" d="M1387.6,529.5c2.7,0,4.9-2.1,5-4.8s-2.1-4.9-4.8-5c-2.7,0-4.9,2.1-5,4.8c0,0,0,0,0,0.1
			C1382.8,527.3,1384.9,529.5,1387.6,529.5C1387.6,529.5,1387.6,529.5,1387.6,529.5z"/>
		<path class="st17" d="M1407.1,529.5c2.7,0,4.9-2.1,5-4.8s-2.1-4.9-4.8-5c-2.7,0-4.9,2.1-5,4.8c0,0,0,0,0,0.1
			C1402.2,527.3,1404.4,529.5,1407.1,529.5C1407.1,529.5,1407.1,529.5,1407.1,529.5z"/>
		<path class="st17" d="M1426.6,529.5c2.7,0,4.9-2.1,5-4.8s-2.1-4.9-4.8-5c-2.7,0-4.9,2.1-5,4.8c0,0,0,0,0,0.1
			C1421.7,527.3,1423.9,529.5,1426.6,529.5C1426.5,529.5,1426.5,529.5,1426.6,529.5z"/>
		<path class="st17" d="M1446,529.5c2.7,0,4.9-2.1,5-4.8s-2.1-4.9-4.8-5c-2.7,0-4.9,2.1-5,4.8c0,0,0,0,0,0.1
			C1441.2,527.3,1443.3,529.5,1446,529.5C1446,529.5,1446,529.5,1446,529.5z"/>
		<path class="st17" d="M1465.5,529.5c2.7,0,4.9-2.1,5-4.8s-2.1-4.9-4.8-5c-2.7,0-4.9,2.1-5,4.8c0,0,0,0,0,0.1
			C1460.7,527.3,1462.8,529.5,1465.5,529.5C1465.5,529.5,1465.5,529.5,1465.5,529.5z"/>
		<path class="st17" d="M1523.9,529.5c2.7,0,4.9-2.1,5-4.8s-2.1-4.9-4.8-5c-2.7,0-4.9,2.1-5,4.8c0,0,0,0,0,0.1
			C1519.1,527.3,1521.2,529.5,1523.9,529.5C1523.9,529.5,1523.9,529.5,1523.9,529.5z"/>
		<path class="st17" d="M647.6,549.3c2.7,0,4.9-2.1,5-4.8c0-2.7-2.1-4.9-4.8-5c-2.7,0-4.9,2.1-5,4.8c0,0,0,0,0,0.1
			C642.8,547.1,644.9,549.2,647.6,549.3z"/>
		<path class="st17" d="M1251.3,549.3c2.7,0,4.9-2.1,5-4.8s-2.1-4.9-4.8-5c-2.7,0-4.9,2.1-5,4.8c0,0,0,0,0,0.1
			C1246.5,547.1,1248.6,549.2,1251.3,549.3z"/>
		<path class="st17" d="M1270.8,549.3c2.7,0,4.9-2.1,5-4.8s-2.1-4.9-4.8-5c-2.7,0-4.9,2.1-5,4.8c0,0,0,0,0,0.1
			C1265.9,547,1268.1,549.2,1270.8,549.3C1270.8,549.3,1270.8,549.3,1270.8,549.3z"/>
		<path class="st17" d="M1290.2,549.3c2.7,0,4.9-2.1,5-4.8s-2.1-4.9-4.8-5c-2.7,0-4.9,2.1-5,4.8c0,0,0,0,0,0.1
			C1285.4,547.1,1287.6,549.2,1290.2,549.3z"/>
		<path class="st17" d="M1309.7,549.3c2.7,0,4.9-2.1,5-4.8s-2.1-4.9-4.8-5c-2.7,0-4.9,2.1-5,4.8c0,0,0,0,0,0.1
			C1304.9,547.1,1307,549.2,1309.7,549.3z"/>
		<path class="st17" d="M1387.6,549.3c2.7,0,4.9-2.1,5-4.8s-2.1-4.9-4.8-5c-2.7,0-4.9,2.1-5,4.8c0,0,0,0,0,0.1
			C1382.8,547.1,1384.9,549.2,1387.6,549.3z"/>
		<path class="st17" d="M1407.1,549.3c2.7,0,4.9-2.1,5-4.8s-2.1-4.9-4.8-5c-2.7,0-4.9,2.1-5,4.8c0,0,0,0,0,0.1
			C1402.2,547.1,1404.4,549.2,1407.1,549.3z"/>
		<path class="st17" d="M1426.6,549.3c2.7,0,4.9-2.1,5-4.8s-2.1-4.9-4.8-5c-2.7,0-4.9,2.1-5,4.8c0,0,0,0,0,0.1
			C1421.7,547,1423.9,549.2,1426.6,549.3C1426.6,549.3,1426.6,549.3,1426.6,549.3z"/>
		<path class="st17" d="M1446,549.3c2.7,0,4.9-2.1,5-4.8s-2.1-4.9-4.8-5c-2.7,0-4.9,2.1-5,4.8c0,0,0,0,0,0.1
			C1441.2,547.1,1443.3,549.2,1446,549.3z"/>
		<path class="st17" d="M1465.5,549.3c2.7,0,4.9-2.1,5-4.8s-2.1-4.9-4.8-5c-2.7,0-4.9,2.1-5,4.8c0,0,0,0,0,0.1
			C1460.7,547.1,1462.8,549.2,1465.5,549.3z"/>
		<path class="st17" d="M1523.9,549.3c2.7,0,4.9-2.1,5-4.8s-2.1-4.9-4.8-5c-2.7,0-4.9,2.1-5,4.8c0,0,0,0,0,0.1
			C1519.1,547.1,1521.2,549.2,1523.9,549.3z"/>
		<path class="st17" d="M1251.3,569c2.7,0,4.9-2.1,5-4.8s-2.1-4.9-4.8-5c-2.7,0-4.9,2.1-5,4.8c0,0,0,0,0,0.1
			C1246.5,566.8,1248.6,569,1251.3,569z"/>
		<path class="st17" d="M1250.4,529.7c2.7,0,4.9-2.1,5-4.8s-2.1-4.9-4.8-5c-2.7,0-4.9,2.1-5,4.8c0,0,0,0,0,0.1
			C1245.5,527.5,1247.7,529.7,1250.4,529.7z"/>
		<path class="st17" d="M1270.8,569c2.7,0,4.9-2.1,5-4.8s-2.1-4.9-4.8-5c-2.7,0-4.9,2.1-5,4.8c0,0,0,0,0,0.1
			C1265.9,566.8,1268.1,569,1270.8,569C1270.8,569,1270.8,569,1270.8,569z"/>
		<path class="st17" d="M1290.2,569c2.7,0,4.9-2.1,5-4.8s-2.1-4.9-4.8-5c-2.7,0-4.9,2.1-5,4.8c0,0,0,0,0,0.1
			C1285.4,566.8,1287.6,569,1290.2,569z"/>
		<path class="st17" d="M1309.7,569c2.7,0,4.9-2.1,5-4.8s-2.1-4.9-4.8-5c-2.7,0-4.9,2.1-5,4.8c0,0,0,0,0,0.1
			C1304.9,566.8,1307,569,1309.7,569z"/>
		<path class="st17" d="M1329.2,569c2.7,0,4.9-2.1,5-4.8s-2.1-4.9-4.8-5c-2.7,0-4.9,2.1-5,4.8c0,0,0,0,0,0.1
			C1324.3,566.8,1326.5,569,1329.2,569C1329.2,569,1329.2,569,1329.2,569z"/>
		<path class="st17" d="M1348.7,569c2.7,0,4.9-2.1,5-4.8s-2.1-4.9-4.8-5c-2.7,0-4.9,2.1-5,4.8c0,0,0,0,0,0.1
			C1343.8,566.8,1346,569,1348.7,569z"/>
		<path class="st17" d="M511.3,588.8c2.7,0,4.9-2.1,5-4.8c0-2.7-2.1-4.9-4.8-5c-2.7,0-4.9,2.1-5,4.8c0,0,0,0,0,0.1
			C506.4,586.6,508.6,588.8,511.3,588.8z"/>
		<path class="st17" d="M589.2,588.8c2.7,0,4.9-2.1,5-4.8c0-2.7-2.1-4.9-4.8-5c-2.7,0-4.9,2.1-5,4.8c0,0,0,0,0,0.1
			C584.3,586.6,586.5,588.8,589.2,588.8z"/>
		<path class="st17" d="M608.6,588.8c2.7,0,4.9-2.1,5-4.8c0-2.7-2.1-4.9-4.8-5c-2.7,0-4.9,2.1-5,4.8c0,0,0,0,0,0.1
			C603.8,586.6,606,588.8,608.6,588.8z"/>
		<path class="st17" d="M628.1,588.8c2.7,0,4.9-2.1,5-4.8c0-2.7-2.1-4.9-4.8-5c-2.7,0-4.9,2.1-5,4.8c0,0,0,0,0,0.1
			C623.3,586.6,625.4,588.8,628.1,588.8C628.1,588.8,628.1,588.8,628.1,588.8z"/>
		<path class="st17" d="M647.6,588.8c2.7,0,4.9-2.1,5-4.8c0-2.7-2.1-4.9-4.8-5c-2.7,0-4.9,2.1-5,4.8c0,0,0,0,0,0.1
			C642.8,586.6,644.9,588.8,647.6,588.8z"/>
		<path class="st17" d="M667.1,588.8c2.7,0,4.9-2.1,5-4.8c0-2.7-2.1-4.9-4.8-5c-2.7,0-4.9,2.1-5,4.8c0,0,0,0,0,0.1
			C662.2,586.6,664.4,588.8,667.1,588.8z"/>
		<path class="st17" d="M1290.2,588.8c2.7,0,4.9-2.1,5-4.8s-2.1-4.9-4.8-5c-2.7,0-4.9,2.1-5,4.8c0,0,0,0,0,0.1
			C1285.4,586.6,1287.6,588.8,1290.2,588.8z"/>
		<path class="st17" d="M1309.7,588.8c2.7,0,4.9-2.1,5-4.8s-2.1-4.9-4.8-5c-2.7,0-4.9,2.1-5,4.8c0,0,0,0,0,0.1
			C1304.9,586.6,1307,588.8,1309.7,588.8z"/>
		<path class="st17" d="M1329.2,588.8c2.7,0,4.9-2.1,5-4.8s-2.1-4.9-4.8-5c-2.7,0-4.9,2.1-5,4.8c0,0,0,0,0,0.1
			C1324.3,586.6,1326.5,588.8,1329.2,588.8C1329.2,588.8,1329.2,588.8,1329.2,588.8z"/>
		<path class="st17" d="M608.6,608.5c2.7,0,4.9-2.1,5-4.8c0-2.7-2.1-4.9-4.8-5c-2.7,0-4.9,2.1-5,4.8c0,0,0,0,0,0.1
			C603.8,606.3,606,608.5,608.6,608.5z"/>
		<path class="st17" d="M628.1,608.5c2.7,0,4.9-2.1,5-4.8c0-2.7-2.1-4.9-4.8-5c-2.7,0-4.9,2.1-5,4.8c0,0,0,0,0,0.1
			C623.3,606.3,625.4,608.5,628.1,608.5C628.1,608.5,628.1,608.5,628.1,608.5z"/>
		<path class="st17" d="M647.6,608.5c2.7,0,4.9-2.1,5-4.8c0-2.7-2.1-4.9-4.8-5c-2.7,0-4.9,2.1-5,4.8c0,0,0,0,0,0.1
			C642.8,606.3,644.9,608.5,647.6,608.5z"/>
		<path class="st17" d="M667.1,608.5c2.7,0,4.9-2.1,5-4.8c0-2.7-2.1-4.9-4.8-5c-2.7,0-4.9,2.1-5,4.8c0,0,0,0,0,0.1
			C662.2,606.3,664.4,608.5,667.1,608.5z"/>
		<path class="st17" d="M1270.8,608.5c2.7,0,4.9-2.1,5-4.8s-2.1-4.9-4.8-5c-2.7,0-4.9,2.1-5,4.8c0,0,0,0,0,0.1
			C1265.9,606.3,1268.1,608.5,1270.8,608.5C1270.8,608.5,1270.8,608.5,1270.8,608.5z"/>
		<path class="st17" d="M1290.2,608.5c2.7,0,4.9-2.1,5-4.8s-2.1-4.9-4.8-5c-2.7,0-4.9,2.1-5,4.8c0,0,0,0,0,0.1
			C1285.4,606.3,1287.6,608.5,1290.2,608.5z"/>
		<path class="st17" d="M1309.7,608.5c2.7,0,4.9-2.1,5-4.8s-2.1-4.9-4.8-5c-2.7,0-4.9,2.1-5,4.8c0,0,0,0,0,0.1
			C1304.9,606.3,1307,608.5,1309.7,608.5z"/>
		<path class="st17" d="M1329.2,608.5c2.7,0,4.9-2.1,5-4.8s-2.1-4.9-4.8-5c-2.7,0-4.9,2.1-5,4.8c0,0,0,0,0,0.1
			C1324.3,606.3,1326.5,608.5,1329.2,608.5C1329.2,608.5,1329.2,608.5,1329.2,608.5z"/>
		<path class="st17" d="M1348.7,608.5c2.7,0,4.9-2.1,5-4.8s-2.1-4.9-4.8-5c-2.7,0-4.9,2.1-5,4.8c0,0,0,0,0,0.1
			C1343.8,606.3,1346,608.5,1348.7,608.5z"/>
		<path class="st17" d="M1368.1,608.5c2.7,0,4.9-2.1,5-4.8c0-2.7-2.1-4.9-4.8-5s-4.9,2.1-5,4.8c0,0,0,0.1,0,0.1
			C1363.3,606.3,1365.5,608.5,1368.1,608.5C1368.1,608.5,1368.1,608.5,1368.1,608.5z"/>
		<path class="st17" d="M569.7,628.3c2.7,0,4.9-2.1,5-4.8c0-2.7-2.1-4.9-4.8-5c-2.7,0-4.9,2.1-5,4.8c0,0,0,0,0,0.1
			C564.9,626.1,567,628.3,569.7,628.3z"/>
		<path class="st17" d="M589.2,628.3c2.7,0,4.9-2.1,5-4.8c0-2.7-2.1-4.9-4.8-5c-2.7,0-4.9,2.1-5,4.8c0,0,0,0,0,0.1
			C584.3,626.1,586.5,628.3,589.2,628.3z"/>
		<path class="st17" d="M608.6,628.3c2.7,0,4.9-2.1,5-4.8c0-2.7-2.1-4.9-4.8-5c-2.7,0-4.9,2.1-5,4.8c0,0,0,0,0,0.1
			C603.8,626.1,606,628.3,608.6,628.3z"/>
		<path class="st17" d="M628.1,628.3c2.7,0,4.9-2.1,5-4.8c0-2.7-2.1-4.9-4.8-5c-2.7,0-4.9,2.1-5,4.8c0,0,0,0,0,0.1
			C623.3,626.1,625.4,628.3,628.1,628.3C628.1,628.3,628.1,628.3,628.1,628.3z"/>
		<path class="st17" d="M647.6,628.3c2.7,0,4.9-2.1,5-4.8c0-2.7-2.1-4.9-4.8-5c-2.7,0-4.9,2.1-5,4.8c0,0,0,0,0,0.1
			C642.8,626.1,644.9,628.3,647.6,628.3z"/>
		<path class="st17" d="M667.1,628.3c2.7,0,4.9-2.1,5-4.8c0-2.7-2.1-4.9-4.8-5c-2.7,0-4.9,2.1-5,4.8c0,0,0,0,0,0.1
			C662.2,626.1,664.4,628.3,667.1,628.3z"/>
		<path class="st17" d="M686.5,628.3c2.7,0,4.9-2.1,5-4.8c0-2.7-2.1-4.9-4.8-5c-2.7,0-4.9,2.1-5,4.8c0,0,0,0,0,0.1
			C681.7,626.1,683.9,628.3,686.5,628.3z"/>
		<path class="st17" d="M1153.9,628.3c2.7,0,4.9-2.1,5-4.8s-2.1-4.9-4.8-5c-2.7,0-4.9,2.1-5,4.8c0,0,0,0,0,0.1
			C1149.1,626.1,1151.2,628.3,1153.9,628.3z"/>
		<path class="st17" d="M1173.4,628.3c2.7,0,4.9-2.1,5-4.8s-2.1-4.9-4.8-5c-2.7,0-4.9,2.1-5,4.8c0,0,0,0,0,0.1
			C1168.6,626.1,1170.7,628.3,1173.4,628.3z"/>
		<path class="st17" d="M1192.9,628.3c2.7,0,4.9-2.1,4.9-4.8c0-2.7-2.1-4.9-4.8-4.9c-2.7,0-4.9,2.1-4.9,4.8c0,0,0,0,0,0.1
			C1188,626.1,1190.2,628.3,1192.9,628.3L1192.9,628.3z"/>
		<path class="st17" d="M1270.8,628.3c2.7,0,4.9-2.1,5-4.8s-2.1-4.9-4.8-5c-2.7,0-4.9,2.1-5,4.8c0,0,0,0,0,0.1
			C1265.9,626.1,1268.1,628.3,1270.8,628.3C1270.8,628.3,1270.8,628.3,1270.8,628.3z"/>
		<path class="st17" d="M1290.2,628.3c2.7,0,4.9-2.1,5-4.8s-2.1-4.9-4.8-5c-2.7,0-4.9,2.1-5,4.8c0,0,0,0,0,0.1
			C1285.4,626.1,1287.6,628.3,1290.2,628.3z"/>
		<path class="st17" d="M1309.7,628.3c2.7,0,4.9-2.1,5-4.8s-2.1-4.9-4.8-5c-2.7,0-4.9,2.1-5,4.8c0,0,0,0,0,0.1
			C1304.9,626.1,1307,628.3,1309.7,628.3z"/>
		<path class="st17" d="M1329.2,628.3c2.7,0,4.9-2.1,5-4.8s-2.1-4.9-4.8-5c-2.7,0-4.9,2.1-5,4.8c0,0,0,0,0,0.1
			C1324.3,626.1,1326.5,628.3,1329.2,628.3C1329.2,628.3,1329.2,628.3,1329.2,628.3z"/>
		<path class="st17" d="M1348.7,628.3c2.7,0,4.9-2.1,5-4.8s-2.1-4.9-4.8-5c-2.7,0-4.9,2.1-5,4.8c0,0,0,0,0,0.1
			C1343.8,626.1,1346,628.3,1348.7,628.3z"/>
		<path class="st17" d="M589.2,648.1c2.7,0,4.9-2.1,5-4.8c0-2.7-2.1-4.9-4.8-5c-2.7,0-4.9,2.1-5,4.8c0,0,0,0,0,0.1
			C584.3,645.9,586.5,648.1,589.2,648.1z"/>
		<path class="st17" d="M667.1,648.1c2.7,0,4.9-2.1,5-4.8c0-2.7-2.1-4.9-4.8-5c-2.7,0-4.9,2.1-5,4.8c0,0,0,0,0,0.1
			C662.2,645.9,664.4,648.1,667.1,648.1z"/>
		<path class="st17" d="M686.5,648.1c2.7,0,4.9-2.1,5-4.8c0-2.7-2.1-4.9-4.8-5c-2.7,0-4.9,2.1-5,4.8c0,0,0,0,0,0.1
			C681.7,645.9,683.9,648.1,686.5,648.1z"/>
		<path class="st17" d="M1115,648.1c2.7,0,4.9-2.1,5-4.8s-2.1-4.9-4.8-5c-2.7,0-4.9,2.1-5,4.8c0,0,0,0,0,0.1
			C1110.2,645.9,1112.3,648.1,1115,648.1z"/>
		<path class="st17" d="M1153.9,648.1c2.7,0,4.9-2.1,5-4.8s-2.1-4.9-4.8-5c-2.7,0-4.9,2.1-5,4.8c0,0,0,0,0,0.1
			C1149.1,645.9,1151.2,648.1,1153.9,648.1z"/>
		<path class="st17" d="M1173.4,648.1c2.7,0,4.9-2.1,5-4.8s-2.1-4.9-4.8-5c-2.7,0-4.9,2.1-5,4.8c0,0,0,0,0,0.1
			C1168.6,645.9,1170.7,648.1,1173.4,648.1z"/>
		<path class="st17" d="M1192.9,648.1c2.7,0,4.9-2.1,4.9-4.8c0-2.7-2.1-4.9-4.8-4.9c-2.7,0-4.9,2.1-4.9,4.8c0,0,0,0,0,0.1
			C1188,645.9,1190.2,648.1,1192.9,648.1L1192.9,648.1z"/>
		<path class="st17" d="M1212.3,648.1c2.7,0,4.9-2.1,5-4.8s-2.1-4.9-4.8-5c-2.7,0-4.9,2.1-5,4.8c0,0,0,0,0,0.1
			C1207.5,645.9,1209.7,648.1,1212.3,648.1z"/>
		<path class="st17" d="M1231.8,648.1c2.7,0,4.9-2.1,5-4.8s-2.1-4.9-4.8-5c-2.7,0-4.9,2.1-5,4.8c0,0,0,0,0,0.1
			C1227,645.9,1229.1,648.1,1231.8,648.1z"/>
		<path class="st17" d="M1251.3,648.1c2.7,0,4.9-2.1,5-4.8s-2.1-4.9-4.8-5c-2.7,0-4.9,2.1-5,4.8c0,0,0,0,0,0.1
			C1246.5,645.9,1248.6,648.1,1251.3,648.1z"/>
		<path class="st17" d="M1270.8,648.1c2.7,0,4.9-2.1,5-4.8s-2.1-4.9-4.8-5c-2.7,0-4.9,2.1-5,4.8c0,0,0,0,0,0.1
			C1265.9,645.9,1268.1,648.1,1270.8,648.1C1270.8,648.1,1270.8,648.1,1270.8,648.1z"/>
		<path class="st17" d="M1290.2,648.1c2.7,0,4.9-2.1,5-4.8s-2.1-4.9-4.8-5c-2.7,0-4.9,2.1-5,4.8c0,0,0,0,0,0.1
			C1285.4,645.9,1287.6,648.1,1290.2,648.1z"/>
		<path class="st17" d="M1309.7,648.1c2.7,0,4.9-2.1,5-4.8s-2.1-4.9-4.8-5c-2.7,0-4.9,2.1-5,4.8c0,0,0,0,0,0.1
			C1304.9,645.9,1307,648.1,1309.7,648.1z"/>
		<path class="st17" d="M1329.2,648.1c2.7,0,4.9-2.1,5-4.8s-2.1-4.9-4.8-5c-2.7,0-4.9,2.1-5,4.8c0,0,0,0,0,0.1
			C1324.3,645.9,1326.5,648.1,1329.2,648.1C1329.2,648.1,1329.2,648.1,1329.2,648.1z"/>
		<path class="st17" d="M1348.7,648.1c2.7,0,4.9-2.1,5-4.8s-2.1-4.9-4.8-5c-2.7,0-4.9,2.1-5,4.8c0,0,0,0,0,0.1
			C1343.8,645.9,1346,648.1,1348.7,648.1z"/>
		<path class="st17" d="M686.5,667.8c2.7,0,4.9-2.1,5-4.8c0-2.7-2.1-4.9-4.8-5c-2.7,0-4.9,2.1-5,4.8c0,0,0,0,0,0.1
			C681.7,665.6,683.9,667.8,686.5,667.8z"/>
		<path class="st17" d="M1115,667.8c2.7,0,4.9-2.1,5-4.8s-2.1-4.9-4.8-5c-2.7,0-4.9,2.1-5,4.8c0,0,0,0,0,0.1
			C1110.2,665.6,1112.3,667.8,1115,667.8z"/>
		<path class="st17" d="M1173.4,667.8c2.7,0,4.9-2.1,5-4.8s-2.1-4.9-4.8-5c-2.7,0-4.9,2.1-5,4.8c0,0,0,0,0,0.1
			C1168.6,665.6,1170.7,667.8,1173.4,667.8z"/>
		<path class="st17" d="M1192.9,667.8c2.7,0,4.9-2.2,4.9-4.9s-2.2-4.9-4.9-4.9c-2.7,0-4.9,2.2-4.9,4.9c0,0,0,0,0,0.1
			C1188,665.7,1190.2,667.9,1192.9,667.8z"/>
		<path class="st17" d="M1212.3,667.8c2.7,0,4.9-2.1,5-4.8s-2.1-4.9-4.8-5c-2.7,0-4.9,2.1-5,4.8c0,0,0,0,0,0.1
			C1207.5,665.6,1209.7,667.8,1212.3,667.8z"/>
		<path class="st17" d="M1231.8,667.8c2.7,0,4.9-2.1,5-4.8s-2.1-4.9-4.8-5s-4.9,2.1-5,4.8c0,0,0,0.1,0,0.1
			C1227,665.7,1229.1,667.8,1231.8,667.8z"/>
		<path class="st17" d="M1251.3,667.8c2.7,0,4.9-2.1,5-4.8s-2.1-4.9-4.8-5c-2.7,0-4.9,2.1-5,4.8c0,0,0,0,0,0.1
			C1246.5,665.6,1248.6,667.8,1251.3,667.8z"/>
		<path class="st17" d="M1270.8,667.8c2.7,0,4.9-2.1,5-4.8s-2.1-4.9-4.8-5c-2.7,0-4.9,2.1-5,4.8c0,0,0,0,0,0.1
			C1265.9,665.6,1268.1,667.8,1270.8,667.8C1270.8,667.8,1270.8,667.8,1270.8,667.8z"/>
		<path class="st17" d="M1290.2,667.8c2.7,0,4.9-2.1,5-4.8s-2.1-4.9-4.8-5c-2.7,0-4.9,2.1-5,4.8c0,0,0,0,0,0.1
			C1285.4,665.6,1287.6,667.8,1290.2,667.8z"/>
		<path class="st17" d="M1309.7,667.8c2.7,0,4.9-2.1,5-4.8s-2.1-4.9-4.8-5c-2.7,0-4.9,2.1-5,4.8c0,0,0,0,0,0.1
			C1304.9,665.6,1307,667.8,1309.7,667.8z"/>
		<path class="st17" d="M1329.2,667.8c2.7,0,4.9-2.1,5-4.8s-2.1-4.9-4.8-5c-2.7,0-4.9,2.1-5,4.8c0,0,0,0,0,0.1
			C1324.3,665.6,1326.5,667.8,1329.2,667.8C1329.2,667.8,1329.2,667.8,1329.2,667.8z"/>
		<path class="st17" d="M1017.6,687.6c2.7,0,4.9-2.1,5-4.8c0-2.7-2.1-4.9-4.8-5c-2.7,0-4.9,2.1-5,4.8c0,0,0,0,0,0.1
			C1012.8,685.4,1014.9,687.6,1017.6,687.6z"/>
		<path class="st17" d="M1037.1,687.6c2.7,0,4.9-2.1,5-4.8s-2.1-4.9-4.8-5c-2.7,0-4.9,2.1-5,4.8c0,0,0,0,0,0.1
			C1032.2,685.4,1034.4,687.6,1037.1,687.6z"/>
		<path class="st17" d="M1115,687.6c2.7,0,4.9-2.1,5-4.8s-2.1-4.9-4.8-5c-2.7,0-4.9,2.1-5,4.8c0,0,0,0,0,0.1
			C1110.2,685.4,1112.3,687.6,1115,687.6z"/>
		<path class="st17" d="M1134.4,687.6c2.7,0,4.9-2.1,5-4.8s-2.1-4.9-4.8-5c-2.7,0-4.9,2.1-5,4.8c0,0,0,0,0,0.1
			C1129.6,685.4,1131.8,687.6,1134.4,687.6z"/>
		<path class="st17" d="M1153.9,687.6c2.7,0,4.9-2.1,5-4.8s-2.1-4.9-4.8-5c-2.7,0-4.9,2.1-5,4.8c0,0,0,0,0,0.1
			C1149.1,685.4,1151.2,687.6,1153.9,687.6z"/>
		<path class="st17" d="M1173.4,687.6c2.7,0,4.9-2.1,5-4.8s-2.1-4.9-4.8-5c-2.7,0-4.9,2.1-5,4.8c0,0,0,0,0,0.1
			C1168.6,685.4,1170.7,687.6,1173.4,687.6z"/>
		<path class="st17" d="M1192.9,687.6c2.7,0,4.9-2.1,4.9-4.8c0-2.7-2.1-4.9-4.8-4.9c-2.7,0-4.9,2.1-4.9,4.8c0,0,0,0,0,0.1
			C1188,685.4,1190.2,687.6,1192.9,687.6L1192.9,687.6z"/>
		<path class="st17" d="M1212.3,687.6c2.7,0,4.9-2.1,5-4.8s-2.1-4.9-4.8-5c-2.7,0-4.9,2.1-5,4.8c0,0,0,0,0,0.1
			C1207.5,685.4,1209.7,687.6,1212.3,687.6z"/>
		<path class="st17" d="M1231.8,687.6c2.7,0,4.9-2.1,5-4.8s-2.1-4.9-4.8-5c-2.7,0-4.9,2.1-5,4.8c0,0,0,0,0,0.1
			C1227,685.4,1229.1,687.6,1231.8,687.6z"/>
		<path class="st17" d="M1251.3,687.6c2.7,0,4.9-2.1,5-4.8s-2.1-4.9-4.8-5c-2.7,0-4.9,2.1-5,4.8c0,0,0,0,0,0.1
			C1246.5,685.4,1248.6,687.6,1251.3,687.6z"/>
		<path class="st17" d="M1270.8,687.6c2.7,0,4.9-2.1,5-4.8s-2.1-4.9-4.8-5c-2.7,0-4.9,2.1-5,4.8c0,0,0,0,0,0.1
			C1265.9,685.4,1268.1,687.6,1270.8,687.6C1270.8,687.6,1270.8,687.6,1270.8,687.6z"/>
		<path class="st17" d="M1290.2,687.6c2.7,0,4.9-2.1,5-4.8s-2.1-4.9-4.8-5c-2.7,0-4.9,2.1-5,4.8c0,0,0,0,0,0.1
			C1285.4,685.4,1287.6,687.6,1290.2,687.6z"/>
		<path class="st17" d="M1309.7,687.6c2.7,0,4.9-2.1,5-4.8s-2.1-4.9-4.8-5c-2.7,0-4.9,2.1-5,4.8c0,0,0,0,0,0.1
			C1304.9,685.4,1307,687.6,1309.7,687.6z"/>
		<path class="st17" d="M726.2,726.1c2.7,0,4.9-2.1,5-4.8c0-2.7-2.1-4.9-4.8-5c-2.7,0-4.9,2.1-5,4.8c0,0,0,0.1,0,0.1
			C721.4,723.8,723.6,726,726.2,726.1C726.2,726.1,726.2,726.1,726.2,726.1z"/>
		<path class="st17" d="M1037.1,707.4c2.7,0,4.9-2.1,5-4.8s-2.1-4.9-4.8-5c-2.7,0-4.9,2.1-5,4.8c0,0,0,0,0,0.1
			C1032.2,705.2,1034.4,707.4,1037.1,707.4z"/>
		<path class="st17" d="M1076,707.4c2.7,0,4.9-2.1,5-4.8s-2.1-4.9-4.8-5c-2.7,0-4.9,2.1-5,4.8c0,0,0,0,0,0.1
			C1071.2,705.2,1073.3,707.4,1076,707.4z"/>
		<path class="st17" d="M1134.4,707.4c2.7,0,4.9-2.1,5-4.8s-2.1-4.9-4.8-5c-2.7,0-4.9,2.1-5,4.8c0,0,0,0,0,0.1
			C1129.6,705.2,1131.8,707.4,1134.4,707.4z"/>
		<path class="st17" d="M1153.9,707.4c2.7,0,4.9-2.1,5-4.8s-2.1-4.9-4.8-5c-2.7,0-4.9,2.1-5,4.8c0,0,0,0,0,0.1
			C1149.1,705.2,1151.2,707.4,1153.9,707.4z"/>
		<path class="st17" d="M1173.4,707.4c2.7,0,4.9-2.1,5-4.8s-2.1-4.9-4.8-5c-2.7,0-4.9,2.1-5,4.8c0,0,0,0,0,0.1
			C1168.6,705.2,1170.7,707.4,1173.4,707.4z"/>
		<path class="st17" d="M1192.9,707.4c2.7,0,4.9-2.1,4.9-4.8c0-2.7-2.1-4.9-4.8-4.9c-2.7,0-4.9,2.1-4.9,4.8c0,0,0,0,0,0.1
			C1188,705.2,1190.2,707.4,1192.9,707.4L1192.9,707.4z"/>
		<path class="st17" d="M1212.3,707.4c2.7,0,4.9-2.1,5-4.8s-2.1-4.9-4.8-5c-2.7,0-4.9,2.1-5,4.8c0,0,0,0,0,0.1
			C1207.5,705.2,1209.7,707.4,1212.3,707.4z"/>
		<path class="st17" d="M1231.8,707.4c2.7,0,4.9-2.1,5-4.8s-2.1-4.9-4.8-5c-2.7,0-4.9,2.1-5,4.8c0,0,0,0,0,0.1
			C1227,705.2,1229.1,707.4,1231.8,707.4z"/>
		<path class="st17" d="M1251.3,707.4c2.7,0,4.9-2.1,5-4.8s-2.1-4.9-4.8-5c-2.7,0-4.9,2.1-5,4.8c0,0,0,0,0,0.1
			C1246.5,705.2,1248.6,707.4,1251.3,707.4z"/>
		<path class="st17" d="M1270.8,707.4c2.7,0,4.9-2.1,5-4.8s-2.1-4.9-4.8-5c-2.7,0-4.9,2.1-5,4.8c0,0,0,0,0,0.1
			C1265.9,705.2,1268.1,707.4,1270.8,707.4C1270.8,707.4,1270.8,707.4,1270.8,707.4z"/>
		<path class="st17" d="M1290.2,707.4c2.7,0,4.9-2.1,5-4.8s-2.1-4.9-4.8-5c-2.7,0-4.9,2.1-5,4.8c0,0,0,0,0,0.1
			C1285.4,705.2,1287.6,707.4,1290.2,707.4z"/>
		<path class="st17" d="M1309.7,707.4c2.7,0,4.9-2.1,5-4.8s-2.1-4.9-4.8-5c-2.7,0-4.9,2.1-5,4.8c0,0,0,0,0,0.1
			C1304.9,705.2,1307,707.4,1309.7,707.4z"/>
		<path class="st17" d="M1076,727.1c2.7,0,4.9-2.1,5-4.8s-2.1-4.9-4.8-5c-2.7,0-4.9,2.1-5,4.8c0,0,0,0,0,0.1
			C1071.2,724.9,1073.3,727.1,1076,727.1z"/>
		<path class="st17" d="M1134.4,727.1c2.7,0,4.9-2.1,5-4.8s-2.1-4.9-4.8-5c-2.7,0-4.9,2.1-5,4.8c0,0,0,0,0,0.1
			C1129.6,724.9,1131.8,727.1,1134.4,727.1z"/>
		<path class="st17" d="M1153.9,727.1c2.7,0,4.9-2.1,5-4.8s-2.1-4.9-4.8-5c-2.7,0-4.9,2.1-5,4.8c0,0,0,0,0,0.1
			C1149.1,724.9,1151.2,727.1,1153.9,727.1z"/>
		<path class="st17" d="M1173.4,727.1c2.7,0,4.9-2.1,5-4.8s-2.1-4.9-4.8-5c-2.7,0-4.9,2.1-5,4.8c0,0,0,0,0,0.1
			C1168.6,724.9,1170.7,727.1,1173.4,727.1z"/>
		<path class="st17" d="M1192.9,727.1c2.7,0,4.9-2.1,4.9-4.8c0-2.7-2.1-4.9-4.8-4.9c-2.7,0-4.9,2.1-4.9,4.8c0,0,0,0,0,0.1
			C1188,724.9,1190.2,727.1,1192.9,727.1L1192.9,727.1z"/>
		<path class="st17" d="M1231.8,727.1c2.7,0,4.9-2.1,5-4.8s-2.1-4.9-4.8-5c-2.7,0-4.9,2.1-5,4.8c0,0,0,0,0,0.1
			C1227,724.9,1229.1,727.1,1231.8,727.1z"/>
		<ellipse class="st17" cx="1251.3" cy="722.2" rx="4.8" ry="4.9"/>
		<ellipse class="st17" cx="1270.8" cy="722.2" rx="4.8" ry="4.9"/>
		<path class="st17" d="M1076,746.9c2.7,0,4.9-2.1,5-4.8c0-2.7-2.1-4.9-4.8-5c-2.7,0-4.9,2.1-5,4.8c0,0,0,0.1,0,0.1
			C1071.2,744.7,1073.3,746.9,1076,746.9z"/>
		<path class="st17" d="M1095.5,746.9c2.7,0,4.9-2.1,5-4.8c0-2.7-2.1-4.9-4.8-5c-2.7,0-4.9,2.1-5,4.8c0,0,0,0.1,0,0.1
			C1090.7,744.7,1092.8,746.9,1095.5,746.9C1095.5,746.9,1095.5,746.9,1095.5,746.9z"/>
		<text transform="matrix(1 0 0 1 530.27 852.46)" class="st18 st6 st19">Chinese popu</text>
		<text transform="matrix(1 0 0 1 659.77 852.46)" class="st18 st6 st19">l</text>
		<text transform="matrix(1 0 0 1 664.56 852.46)" class="st18 st6 st19">ation </text>
		<text transform="matrix(1 0 0 1 569.22 873.79)" class="st18 st6 st19">P</text>
		<text transform="matrix(1 0 0 1 580.29 873.79)" class="st18 st6 st19">r</text>
		<text transform="matrix(1 0 0 1 588.22 873.79)" class="st18 st6 st19">esentage</text>
		<text transform="matrix(1 0 0 1 1152.35 852.46)" class="st18 st6 st19">Ma</text>
		<text transform="matrix(1 0 0 1 1181.7999 852.46)" class="st18 st6 st19">l</text>
		<text transform="matrix(1 0 0 1 1186.6 852.46)" class="st18 st6 st19">ays popu</text>
		<text transform="matrix(1 0 0 1 1272.1599 852.46)" class="st18 st6 st19">l</text>
		<text transform="matrix(1 0 0 1 1276.96 852.46)" class="st18 st6 st19">ation </text>
		<text transform="matrix(1 0 0 1 1189.0599 873.79)" class="st18 st6 st19">P</text>
		<text transform="matrix(1 0 0 1 1200.13 873.79)" class="st18 st6 st19">r</text>
		<text transform="matrix(1 0 0 1 1208.0599 873.79)" class="st18 st6 st19">esentage</text>
		<circle class="st11" cx="770" cy="876.1" r="8.9"/>
		<circle class="st14" cx="834.8" cy="876.1" r="8.9"/>
		<circle class="st15" cx="899.5" cy="876.1" r="8.9"/>
		<circle class="st13" cx="964.2" cy="876.1" r="8.9"/>
		<circle class="st16" cx="1029" cy="876.1" r="8.9"/>
		<circle class="st17" cx="1093.7" cy="876.1" r="8.9"/>
		<line class="st20" x1="742" y1="852" x2="900.8" y2="852"/>
		<text transform="matrix(1 0 0 1 740.42 845.61)" class="st18 st6 st21">100%</text>
		<text transform="matrix(1 0 0 1 878.19 845.61)" class="st18 st6 st21">50%</text>
		<text transform="matrix(1 0 0 1 1095.9399 845.61)" class="st18 st6 st21">100%</text>
		<text transform="matrix(1 0 0 1 965.96 845.61)" class="st18 st6 st21">50%</text>
		<line class="st20" x1="965.8" y1="852" x2="1124.7" y2="852"/>
		<line class="st22" x1="915.8" y1="852" x2="950.8" y2="852"/>
		<text transform="matrix(1 0 0 1 274.17 459.22)" class="st23 st6 st24">Bukit Merta</text>
		<text transform="matrix(1 0 0 1 362.54 459.22)" class="st23 st6 st24">-</text>
		<text transform="matrix(1 0 0 1 957.92 606.34)" class="st11 st6 st25">Sibu Sa</text>
		<text transform="matrix(1 0 0 1 1035.34 606.34)" class="st11 st6 st25">r</text>
		<text transform="matrix(1 0 0 1 1043.9 606.34)" class="st11 st6 st25">a</text>
		<text transform="matrix(1 0 0 1 1056.29 606.34)" class="st11 st6 st25">w</text>
		<text transform="matrix(1 0 0 1 1069.89 606.34)" class="st11 st6 st25">ak</text>
		<text transform="matrix(1 0 0 1 334.19 503.63)" class="st23 st6 st24">Butter</text>
		<text transform="matrix(1 0 0 1 381.92 503.63)" class="st23 st6 st24">w</text>
		<text transform="matrix(1 0 0 1 392.12 503.63)" class="st23 st6 st24">orth</text>
		<text transform="matrix(1 0 0 1 527.45 713.69)" class="st23 st6 st24">Nusa</text>
		<text transform="matrix(1 0 0 1 566.77 713.69)" class="st23 st6 st24">j</text>
		<text transform="matrix(1 0 0 1 570.33 713.69)" class="st23 st6 st24">a</text>
		<text transform="matrix(1 0 0 1 580.05 713.69)" class="st23 st6 st24">y</text>
		<text transform="matrix(1 0 0 1 587.53 713.69)" class="st23 st6 st24">a</text>
		<text transform="matrix(1 0 0 1 284.52 568.35)" class="st11 st6 st25">K</text>
		<text transform="matrix(1 0 0 1 296.75 568.35)" class="st11 st6 st25">ua</text>
		<text transform="matrix(1 0 0 1 322.82 568.35)" class="st11 st6 st25">l</text>
		<text transform="matrix(1 0 0 1 328 568.35)" class="st11 st6 st25">a Lumpur</text>
		<text transform="matrix(1 0 0 1 1258.01 417.88)" class="st11 st6 st25">Sabah</text>
		<polyline class="st26" points="505.4,604.1 423.8,576.5 277.3,577.1 		"/>
		<polyline class="st27" points="648.8,710.3 614,719.9 522.2,719.9 		"/>
		<polyline class="st27" points="429.8,481 391.4,465.4 270.1,465.4 		"/>
		<polyline class="st27" points="471.8,525.4 433.4,509.8 331.3,509.8 		"/>
		<polyline class="st26" points="1128.4,631.1 1090,613.1 953.1,613.1 		"/>
		<polyline class="st26" points="1376.8,440.9 1335.8,423.4 1253.2,423.4 		"/>
		<text transform="matrix(1 0 0 1 391.28 997.81)" class="st3 st6 st9">The Chinese, who </text>
		<text transform="matrix(1 0 0 1 616.97 997.81)" class="st3 st6 st9">l</text>
		<text transform="matrix(1 0 0 1 623.45 997.81)" class="st3 st6 st9">a</text>
		<text transform="matrix(1 0 0 1 639.65 997.81)" class="st3 st6 st9">r</text>
		<text transform="matrix(1 0 0 1 650.36 997.81)" class="st3 st6 st9">gely sett</text>
		<text transform="matrix(1 0 0 1 755.81 997.81)" class="st3 st6 st9">l</text>
		<text transform="matrix(1 0 0 1 762.29 997.81)" class="st3 st6 st9">e</text>
		<text transform="matrix(1 0 0 1 776.71 997.81)" class="st3 st6 st9">d in urban a</text>
		<text transform="matrix(1 0 0 1 931.97 997.81)" class="st3 st6 st9">r</text>
		<text transform="matrix(1 0 0 1 942.67 997.81)" class="st3 st6 st9">e</text>
		<text transform="matrix(1 0 0 1 957.1 997.81)" class="st3 st6 st9">as</text>
		<text transform="matrix(1 0 0 1 986.33 997.558)" class="st3 st28 st9">；</text>
		<text transform="matrix(1 0 0 1 1010.33 997.81)" class="st3 st6 st9">h</text>
		<text transform="matrix(1 0 0 1 1026.72 997.81)" class="st3 st6 st9">o</text>
		<text transform="matrix(1 0 0 1 1042.2 997.81)" class="st3 st6 st9">wev</text>
		<text transform="matrix(1 0 0 1 1086.29 997.81)" class="st3 st6 st9">e</text>
		<text transform="matrix(1 0 0 1 1101.1899 997.81)" class="st3 st6 st9 st29">r</text>
		<text transform="matrix(1 0 0 1 1109.02 997.81)" class="st3 st6 st9">, Ma</text>
		<text transform="matrix(1 0 0 1 1161.7 997.81)" class="st3 st6 st9">l</text>
		<text transform="matrix(1 0 0 1 1168.17 997.81)" class="st3 st6 st9">ays mostly li</text>
		<text transform="matrix(1 0 0 1 1320.36 997.81)" class="st3 st6 st9">ve</text>
		<text transform="matrix(1 0 0 1 1347.45 997.81)" class="st3 st6 st9">d in ru</text>
		<text transform="matrix(1 0 0 1 1430.03 997.81)" class="st3 st6 st9">r</text>
		<text transform="matrix(1 0 0 1 1440.74 997.81)" class="st3 st6 st9">al a</text>
		<text transform="matrix(1 0 0 1 1487.37 997.81)" class="st3 st6 st9">r</text>
		<text transform="matrix(1 0 0 1 1498.0701 997.81)" class="st3 st6 st9">e</text>
		<text transform="matrix(1 0 0 1 1512.5 997.81)" class="st3 st6 st9">as.</text>
	</g>
</g>
</svg>
