<svg xmlns="http://www.w3.org/2000/svg" viewBox="0 0 1920 1080"><defs><style>.cls-1,.cls-26{fill:#fff;}.cls-2{opacity:0.5;}.cls-11,.cls-3{fill:#d62323;}.cls-10,.cls-4{fill:#eac027;}.cls-11,.cls-4{opacity:0.4;}.cls-22,.cls-23,.cls-24,.cls-5,.cls-6,.cls-9{fill:none;stroke-miterlimit:10;}.cls-5,.cls-6{stroke:#eac027;stroke-opacity:0.4;}.cls-5{stroke-width:2px;}.cls-6{stroke-width:0.5px;}.cls-7{fill:#d4266d;}.cls-12,.cls-15,.cls-8{fill:#272d7f;}.cls-9{stroke:#d62323;stroke-width:0.39px;}.cls-12{font-size:19.28px;}.cls-12,.cls-15,.cls-26{font-family:Comfortaa-Bold, Comfortaa;font-weight:700;}.cls-13{letter-spacing:-0.03em;}.cls-14{letter-spacing:0em;}.cls-15,.cls-26{font-size:12px;}.cls-16{letter-spacing:-0.04em;}.cls-17{letter-spacing:0em;}.cls-18{letter-spacing:-0.02em;}.cls-19{letter-spacing:-0.15em;}.cls-20{letter-spacing:-0.04em;}.cls-21{letter-spacing:0em;}.cls-22,.cls-23,.cls-24{stroke:#272d7f;}.cls-22{stroke-width:0.77px;}.cls-23{stroke-width:0.74px;}.cls-24{stroke-width:0.33px;}.cls-25{fill:#272d80;}.cls-27{letter-spacing:-0.03em;}.cls-28{letter-spacing:-0.07em;}</style></defs><title>资源9</title><g id="图层_2" data-name="图层 2"><g id="图层_1-2" data-name="图层 1"><rect class="cls-1" width="1920" height="1080"/><g class="cls-2"><path class="cls-3" d="M566.83,284.66c37.79-.48,75.57-.58,113.35-1.17,18.88-.22,37.77-.36,56.66-.69l28.33-.43,14.17-.22,14.16-.28c37.77-.77,75.54-1.47,113.31-2.53l28.32-.78,28.32-.86,56.64-1.82c75.53-2.29,151.09-4.41,226.66-5.23l14.17-.18,14.17-.1,28.34-.21c18.89-.17,37.78-.18,56.67-.22s37.79,0,56.68.1l56.68.32c-37.79.48-75.57.58-113.35,1.17-18.89.22-37.77.36-56.66.69l-28.33.43-14.17.22-14.16.28c-37.77.78-75.54,1.46-113.31,2.53s-75.52,2.24-113.28,3.45c-75.53,2.29-151.09,4.42-226.66,5.23l-14.17.17-14.17.11-28.34.21c-18.89.17-37.78.19-56.67.22s-37.79,0-56.68-.1Z"/></g><g class="cls-2"><path class="cls-3" d="M566.24,288.18c37.78-.48,75.57-.58,113.34-1.17,18.89-.22,37.78-.36,56.67-.69l28.33-.43,14.17-.21,14.16-.29c37.77-.77,75.54-1.46,113.31-2.53l28.32-.77,28.32-.87,56.64-1.81c75.53-2.3,151.09-4.41,226.66-5.24l14.17-.17,14.17-.1,28.33-.21c18.9-.18,37.79-.19,56.68-.23s37.79,0,56.68.1l56.67.32c-37.78.48-75.56.58-113.34,1.18-18.89.21-37.78.35-56.66.68l-28.34.44-14.16.21-14.17.29c-37.77.77-75.54,1.46-113.3,2.52s-75.52,2.25-113.29,3.46c-75.53,2.28-151.08,4.41-226.65,5.23l-14.17.17-14.17.1-28.34.21c-18.89.18-37.78.19-56.68.23s-37.78,0-56.67-.1Z"/></g><g class="cls-2"><path class="cls-3" d="M566.24,292c37.78-.48,75.57-.58,113.34-1.17,18.89-.22,37.78-.36,56.67-.69l28.33-.43,14.17-.22,14.16-.28c37.77-.77,75.54-1.47,113.31-2.53l28.32-.78,28.32-.86,56.64-1.82c75.53-2.29,151.09-4.41,226.66-5.23l14.17-.18,14.17-.1,28.33-.21c18.9-.17,37.79-.18,56.68-.22s37.79,0,56.68.1l56.67.32c-37.78.48-75.56.58-113.34,1.17-18.89.22-37.78.36-56.66.69l-28.34.43-14.16.22-14.17.28c-37.77.78-75.54,1.46-113.3,2.53s-75.52,2.24-113.29,3.45c-75.53,2.29-151.08,4.42-226.65,5.23l-14.17.17-14.17.11-28.34.21c-18.89.17-37.78.19-56.68.22s-37.78,0-56.67-.1Z"/></g><g class="cls-2"><path class="cls-3" d="M566.24,281.87c75.62-.21,151.24-1,226.81-3.51,37.78-1.29,75.56-2.92,113.3-5.11l28.31-1.64,28.3-1.84c18.86-1.19,37.72-2.57,56.58-3.85s37.71-2.63,56.58-3.8l28.3-1.8,28.31-1.61c37.75-2.15,75.53-3.74,113.32-5,75.58-2.44,151.2-3.13,226.81-3.26-75.61.21-151.23,1-226.8,3.52-37.79,1.29-75.56,2.91-113.31,5.11l-28.3,1.63-28.3,1.84c-18.87,1.19-37.72,2.58-56.58,3.86S981.85,269,963,270.21l-28.3,1.8-28.31,1.61c-37.75,2.15-75.52,3.74-113.31,5C717.48,281.05,641.86,281.75,566.24,281.87Z"/></g><path class="cls-4" d="M566.24,250.24c38.34,0,76.7.68,115,2.74,38.29,2.24,76.52,5.75,114.52,11s75.74,12.48,113.07,21.35,74.2,19.57,111,30.32,73.61,21.51,110.87,30.48c18.64,4.39,37.35,8.57,56.18,12.11l14.12,2.65c2.35.47,4.71.85,7.07,1.24l7.09,1.17,14.18,2.36c4.73.75,9.48,1.37,14.22,2.07,37.93,5.46,76.11,9.14,114.36,11.59s76.6,3.36,114.94,3.7c-38.34,0-76.69-.67-115-2.73-38.29-2.25-76.52-5.75-114.52-11s-75.74-12.48-113.07-21.35-74.2-19.57-111-30.33-73.6-21.51-110.86-30.47S833.48,271,795.55,265.54,719.44,256.4,681.19,254,604.58,250.59,566.24,250.24Z"/><path class="cls-4" d="M566.24,252.56c38.34,0,76.7.68,115,2.73,38.29,2.25,76.52,5.76,114.52,11s75.74,12.47,113.07,21.35,74.2,19.57,111,30.32,73.61,21.51,110.87,30.47c18.64,4.39,37.35,8.58,56.18,12.11l14.12,2.66c2.35.46,4.71.85,7.07,1.23l7.09,1.17,14.18,2.36c4.73.76,9.48,1.38,14.22,2.07,37.93,5.47,76.11,9.14,114.36,11.59s76.6,3.36,114.94,3.71c-38.34,0-76.69-.68-115-2.73-38.29-2.25-76.52-5.76-114.52-11s-75.74-12.48-113.07-21.35-74.2-19.57-111-30.32-73.6-21.51-110.86-30.48-74.93-16.13-112.86-21.6-76.11-9.14-114.36-11.59S604.58,252.9,566.24,252.56Z"/><path class="cls-4" d="M566.24,254.76c38.34,0,76.7.68,115,2.74,38.29,2.24,76.52,5.75,114.52,11S871.5,281,908.83,289.89s74.2,19.57,111,30.32,73.61,21.51,110.87,30.48c18.64,4.39,37.35,8.57,56.18,12.11l14.12,2.65c2.35.47,4.71.85,7.07,1.24l7.09,1.17,14.18,2.35c4.73.76,9.48,1.38,14.22,2.07,37.93,5.47,76.11,9.15,114.36,11.6s76.6,3.36,114.94,3.7c-38.34,0-76.69-.67-115-2.73-38.29-2.25-76.52-5.75-114.52-11s-75.74-12.48-113.07-21.35-74.2-19.57-111-30.33-73.6-21.51-110.86-30.47-74.93-16.13-112.86-21.6-76.11-9.14-114.36-11.59S604.58,255.11,566.24,254.76Z"/><path class="cls-4" d="M566.24,257.08c38.34,0,76.7.68,115,2.73,38.29,2.25,76.52,5.76,114.52,11.05s75.74,12.47,113.07,21.34,74.2,19.58,111,30.33S1093.44,344,1130.7,353c18.64,4.39,37.35,8.57,56.18,12.11l14.12,2.66c2.35.46,4.71.85,7.07,1.23l7.09,1.17,14.18,2.36c4.73.76,9.48,1.37,14.22,2.07,37.93,5.47,76.11,9.14,114.36,11.59s76.6,3.36,114.94,3.71c-38.34,0-76.69-.68-115-2.73-38.29-2.25-76.52-5.76-114.52-11.05s-75.74-12.48-113.07-21.35-74.2-19.57-111-30.32S945.67,302.94,908.41,294s-74.93-16.13-112.86-21.6-76.11-9.14-114.36-11.59S604.58,257.42,566.24,257.08Z"/><path class="cls-4" d="M566.24,259.39c38.34,0,76.7.68,115,2.74,38.29,2.24,76.52,5.75,114.52,11s75.74,12.48,113.07,21.35,74.2,19.57,111,30.32,73.61,21.51,110.87,30.48c18.64,4.39,37.35,8.57,56.18,12.11l14.12,2.65c2.35.47,4.71.85,7.07,1.23l7.09,1.18,14.18,2.35c4.73.76,9.48,1.38,14.22,2.07,37.93,5.47,76.11,9.15,114.36,11.59s76.6,3.37,114.94,3.71c-38.34,0-76.69-.67-115-2.73-38.29-2.25-76.52-5.75-114.52-11S1167.6,366,1130.27,357.09s-74.2-19.57-111-30.33-73.6-21.51-110.86-30.47-74.93-16.13-112.86-21.6-76.11-9.14-114.36-11.59S604.58,259.74,566.24,259.39Z"/><path class="cls-4" d="M566.24,261.6c38.34,0,76.7.67,115,2.73,38.29,2.25,76.52,5.76,114.52,11.05s75.74,12.47,113.07,21.34,74.2,19.58,111,30.33,73.61,21.51,110.87,30.47c18.64,4.39,37.35,8.57,56.18,12.11l14.12,2.66c2.35.46,4.71.84,7.07,1.23l7.09,1.17,14.18,2.36c4.73.76,9.48,1.37,14.22,2.07,37.93,5.47,76.11,9.14,114.36,11.59s76.6,3.36,114.94,3.71c-38.34,0-76.69-.68-115-2.73-38.29-2.25-76.52-5.76-114.52-11.05s-75.74-12.48-113.07-21.35-74.2-19.57-111-30.33-73.6-21.5-110.86-30.47-74.93-16.13-112.86-21.6-76.11-9.14-114.36-11.59S604.58,261.94,566.24,261.6Z"/><path class="cls-4" d="M566.24,263.91c38.34,0,76.7.68,115,2.73,38.29,2.25,76.52,5.76,114.52,11.05S871.5,290.16,908.83,299s74.2,19.57,111,30.32,73.61,21.51,110.87,30.48c18.64,4.39,37.35,8.57,56.18,12.1L1201,374.6c2.35.47,4.71.85,7.07,1.23l7.09,1.18,14.18,2.35c4.73.76,9.48,1.38,14.22,2.07,37.93,5.47,76.11,9.14,114.36,11.59s76.6,3.37,114.94,3.71c-38.34,0-76.69-.68-115-2.73-38.29-2.25-76.52-5.75-114.52-11s-75.74-12.48-113.07-21.35-74.2-19.57-111-30.33-73.6-21.51-110.86-30.48-74.93-16.13-112.86-21.59-76.11-9.14-114.36-11.59S604.58,264.26,566.24,263.91Z"/><path class="cls-4" d="M566.24,266.23c38.34,0,76.7.67,115,2.73,38.29,2.25,76.52,5.76,114.52,11s75.74,12.48,113.07,21.35,74.2,19.58,111,30.33,73.61,21.51,110.87,30.47c18.64,4.39,37.35,8.57,56.18,12.11l14.12,2.66c2.35.46,4.71.84,7.07,1.23l7.09,1.17,14.18,2.36c4.73.76,9.48,1.37,14.22,2.07,37.93,5.47,76.11,9.14,114.36,11.59s76.6,3.36,114.94,3.71c-38.34,0-76.69-.68-115-2.73-38.29-2.25-76.52-5.76-114.52-11.05s-75.74-12.48-113.07-21.35-74.2-19.57-111-30.33-73.6-21.51-110.86-30.47S833.48,287,795.55,281.52s-76.11-9.14-114.36-11.59S604.58,266.57,566.24,266.23Z"/><path class="cls-4" d="M566.24,268.43c38.34,0,76.7.68,115,2.73,38.29,2.25,76.52,5.76,114.52,11s75.74,12.47,113.07,21.35,74.2,19.57,111,30.32,73.61,21.51,110.87,30.47c18.64,4.39,37.35,8.58,56.18,12.11l14.12,2.66c2.35.46,4.71.85,7.07,1.23l7.09,1.17,14.18,2.36c4.73.76,9.48,1.38,14.22,2.07,37.93,5.47,76.11,9.14,114.36,11.59s76.6,3.36,114.94,3.71c-38.34,0-76.69-.68-115-2.73-38.29-2.25-76.52-5.76-114.52-11S1167.6,375,1130.27,366.12s-74.2-19.57-111-30.32-73.6-21.51-110.86-30.48-74.93-16.13-112.86-21.59-76.11-9.14-114.36-11.6S604.58,268.77,566.24,268.43Z"/><path class="cls-4" d="M566.24,270.75c38.34,0,76.7.67,115,2.73,38.29,2.25,76.52,5.75,114.52,11S871.5,297,908.83,305.87s74.2,19.57,111,30.33,73.61,21.5,110.87,30.47c18.64,4.39,37.35,8.57,56.18,12.11l14.12,2.66c2.35.46,4.71.84,7.07,1.23l7.09,1.17,14.18,2.36c4.73.75,9.48,1.37,14.22,2.07,37.93,5.46,76.11,9.14,114.36,11.59s76.6,3.36,114.94,3.7c-38.34,0-76.69-.67-115-2.73-38.29-2.24-76.52-5.75-114.52-11s-75.74-12.48-113.07-21.35-74.2-19.57-111-30.33-73.6-21.51-110.86-30.47S833.48,291.51,795.55,286s-76.11-9.14-114.36-11.59S604.58,271.09,566.24,270.75Z"/><path class="cls-5" d="M566,247.64c453.32,0,453.32,19.72,906.63,19.72"/><path class="cls-6" d="M566.24,244.94c453.31,0,453.31,5.41,906.62,5.41"/><g class="cls-2"><path class="cls-7" d="M566.24,342.53l56.85-.93,14.21-.21c4.74-.08,9.47-.12,14.21-.32l28.4-1,28.41-.91,7.1-.23c2.37-.07,4.73-.24,7.1-.35l14.18-.76,28.38-1.51,14.19-.75,14.17-1.07,28.33-2.14,14.16-1.05L850.08,330l28.28-2.68,7.07-.67,7.06-.8,14.11-1.61c9.41-1.09,18.83-2.12,28.23-3.27L963,317.28l14.09-1.84,14.07-1.94,28.16-3.88,28.17-3.82,14.09-1.91,14.11-1.79,28.21-3.59c9.41-1.12,18.84-2.13,28.26-3.2l14.14-1.58,7.06-.78,7.09-.65,28.32-2.61,14.16-1.31,14.19-1,28.37-1.92,14.19-1,14.21-.64,28.41-1.29,14.2-.64c2.37-.1,4.74-.24,7.1-.3l7.11-.17,28.43-.68,28.42-.62c4.74-.14,9.48-.12,14.22-.13l14.22,0,56.85-.07-56.84.93-14.21.22c-4.74.07-9.48.12-14.21.32l-28.41,1-28.4.91-7.1.23c-2.37.07-4.73.24-7.1.35l-14.19.76L1274,286.14l-14.18.75L1245.67,288l-28.33,2.14-14.17,1L1189,292.49l-28.28,2.68-7.08.67-7.05.8-14.12,1.62c-9.4,1.09-18.82,2.12-28.22,3.27l-28.18,3.65L1062,307,1047.93,309l-28.15,3.88-28.18,3.81-14.09,1.91-14.1,1.79-28.21,3.59c-9.42,1.12-18.85,2.13-28.27,3.2l-14.13,1.58-7.07.78-7.08.65-28.32,2.61-14.17,1.31-14.18,1L793.6,337l-14.19.95-14.2.65-28.41,1.29c-18.93,1-37.89,1.32-56.84,1.79l-28.43.62c-4.74.14-9.48.13-14.21.14l-14.22,0Z"/></g><g class="cls-2"><path class="cls-7" d="M566.24,340.36c38-.15,76.08-.69,114.09-2.21s76-4,113.84-7.61,75.6-8.47,113.15-14.54,74.88-13.42,112.18-20.83,74.66-14.69,112.22-20.72S1207,263.6,1244.91,260s75.86-6,113.86-7.49,76.06-2,114.09-2.09c-38,.15-76.07.7-114.08,2.21s-76,4-113.84,7.61-75.61,8.47-113.16,14.54-74.87,13.43-112.18,20.84S945,310.35,907.38,316.37s-75.31,10.86-113.19,14.42-75.85,5.94-113.86,7.49S604.28,340.25,566.24,340.36Z"/></g><path class="cls-7" d="M566.24,381.93l28.6,0c4.76,0,9.53,0,14.3,0l14.3.23,14.29.23c4.77.07,9.54.15,14.3.33l28.59.92c38.11,1.66,76.18,4.3,114.12,8.33s75.73,9.62,113.25,16.55,74.76,15.37,111.93,23.84,74.3,17.07,111.74,24.11c18.72,3.46,37.49,6.75,56.33,9.51l14.13,2.09c4.71.68,9.44,1.24,14.16,1.88l14.16,1.87,14.2,1.63c37.85,4.33,75.86,7.24,113.92,9.22s76.18,2.78,114.3,3.29l-28.59,0c-4.77,0-9.54,0-14.3,0l-14.3-.23-14.3-.23c-4.77-.07-9.53-.14-14.3-.33l-28.59-.92c-38.1-1.65-76.17-4.29-114.12-8.32s-75.72-9.64-113.25-16.56-74.75-15.36-111.92-23.85-74.3-17.06-111.74-24.1c-18.73-3.46-37.49-6.75-56.33-9.51L837,399.81c-4.72-.67-9.45-1.23-14.16-1.87l-14.17-1.88-14.19-1.62c-37.85-4.33-75.86-7.24-113.92-9.23S604.37,382.44,566.24,381.93Z"/><path class="cls-7" d="M566.24,377.15l28.6,0c4.76,0,9.53,0,14.3,0l14.3.23,14.29.23c4.77.07,9.54.14,14.3.33l28.59.92c38.11,1.65,76.18,4.29,114.12,8.33s75.73,9.62,113.25,16.55,74.76,15.37,111.93,23.84,74.3,17.07,111.74,24.1c18.72,3.47,37.49,6.76,56.33,9.52l14.13,2.09c4.71.68,9.44,1.24,14.16,1.88l14.16,1.87,14.2,1.63c37.85,4.32,75.86,7.24,113.92,9.22s76.18,2.77,114.3,3.29l-28.59,0c-4.77,0-9.54,0-14.3,0l-14.3-.23-14.3-.23c-4.77-.07-9.53-.15-14.3-.33l-28.59-.92c-38.1-1.66-76.17-4.29-114.12-8.32s-75.72-9.64-113.25-16.56-74.75-15.37-111.92-23.85-74.3-17.06-111.74-24.1c-18.73-3.46-37.49-6.75-56.33-9.52L837,395c-4.72-.68-9.45-1.23-14.16-1.88l-14.17-1.87-14.19-1.63c-37.85-4.32-75.86-7.23-113.92-9.22S604.37,377.67,566.24,377.15Z"/><path class="cls-7" d="M566.24,372.26l28.6,0c4.76,0,9.53,0,14.3,0l14.3.23,14.29.23c4.77.07,9.54.14,14.3.33l28.59.92c38.11,1.65,76.18,4.29,114.12,8.32s75.73,9.63,113.25,16.56,74.76,15.37,111.93,23.84,74.3,17.07,111.74,24.1c18.72,3.46,37.49,6.76,56.33,9.52l14.13,2.09c4.71.68,9.44,1.24,14.16,1.87l14.16,1.88,14.2,1.63c37.85,4.32,75.86,7.24,113.92,9.22s76.18,2.77,114.3,3.29l-28.59,0c-4.77,0-9.54,0-14.3,0l-14.3-.23-14.3-.23c-4.77-.06-9.53-.14-14.3-.32l-28.59-.92c-38.1-1.66-76.17-4.29-114.12-8.32s-75.72-9.64-113.25-16.56-74.75-15.37-111.92-23.85-74.3-17.06-111.74-24.1c-18.73-3.46-37.49-6.76-56.33-9.52L837,390.15c-4.72-.68-9.45-1.23-14.16-1.88l-14.17-1.87-14.19-1.63c-37.85-4.32-75.86-7.24-113.92-9.22S604.37,372.78,566.24,372.26Z"/><path class="cls-7" d="M566.24,367.49l28.6,0c4.76,0,9.53,0,14.3,0l14.3.23,14.29.23c4.77.07,9.54.14,14.3.32l28.59.92c38.11,1.66,76.18,4.3,114.12,8.33s75.73,9.63,113.25,16.56,74.76,15.37,111.93,23.84,74.3,17.06,111.74,24.1c18.72,3.46,37.49,6.75,56.33,9.52l14.13,2.09c4.71.68,9.44,1.23,14.16,1.87l14.16,1.88,14.2,1.62c37.85,4.33,75.86,7.25,113.92,9.23s76.18,2.77,114.3,3.29l-28.59,0c-4.77,0-9.54,0-14.3,0l-14.3-.23-14.3-.23c-4.77-.07-9.53-.14-14.3-.32l-28.59-.92c-38.1-1.66-76.17-4.3-114.12-8.33s-75.72-9.63-113.25-16.56-74.75-15.36-111.92-23.84S944.89,404,907.45,397c-18.73-3.47-37.49-6.76-56.33-9.52L837,385.38c-4.72-.68-9.45-1.23-14.16-1.88l-14.17-1.87L794.47,380c-37.85-4.33-75.86-7.24-113.92-9.22S604.37,368,566.24,367.49Z"/><path class="cls-7" d="M566.24,362.72l28.6,0c4.76,0,9.53,0,14.3,0l14.3.23,14.29.23c4.77.07,9.54.14,14.3.32l28.59.92c38.11,1.66,76.18,4.3,114.12,8.33s75.73,9.63,113.25,16.56,74.76,15.36,111.93,23.84,74.3,17.06,111.74,24.1c18.72,3.46,37.49,6.75,56.33,9.51l14.13,2.1c4.71.67,9.44,1.23,14.16,1.87l14.16,1.87,14.2,1.63c37.85,4.33,75.86,7.24,113.92,9.22s76.18,2.78,114.3,3.3l-28.59,0c-4.77,0-9.54,0-14.3,0l-14.3-.23-14.3-.23c-4.77-.07-9.53-.14-14.3-.32l-28.59-.92c-38.1-1.66-76.17-4.3-114.12-8.33s-75.72-9.63-113.25-16.56-74.75-15.36-111.92-23.84-74.3-17.07-111.74-24.11c-18.73-3.46-37.49-6.75-56.33-9.51L837,380.61c-4.72-.68-9.45-1.24-14.16-1.88l-14.17-1.88-14.19-1.62C756.62,370.9,718.61,368,680.55,366S604.37,363.23,566.24,362.72Z"/><path class="cls-7" d="M566.24,358l28.6,0c4.76,0,9.53,0,14.3,0l14.3.23,14.29.23c4.77.07,9.54.14,14.3.32l28.59.92c38.11,1.66,76.18,4.3,114.12,8.33s75.73,9.63,113.25,16.55,74.76,15.37,111.93,23.85,74.3,17.06,111.74,24.1c18.72,3.46,37.49,6.75,56.33,9.51l14.13,2.09c4.71.68,9.44,1.24,14.16,1.88l14.16,1.87,14.2,1.63c37.85,4.33,75.86,7.24,113.92,9.22s76.18,2.78,114.3,3.3l-28.59,0c-4.77,0-9.54,0-14.3,0l-14.3-.23-14.3-.23c-4.77-.07-9.53-.14-14.3-.33l-28.59-.91c-38.1-1.66-76.17-4.3-114.12-8.33s-75.72-9.64-113.25-16.56-74.75-15.36-111.92-23.84-74.3-17.07-111.74-24.11c-18.73-3.46-37.49-6.75-56.33-9.51L837,375.84c-4.72-.68-9.45-1.24-14.16-1.88l-14.17-1.88-14.19-1.62c-37.85-4.33-75.86-7.24-113.92-9.22S604.37,358.46,566.24,358Z"/><path class="cls-7" d="M566.24,353.17l28.6,0c4.76,0,9.53,0,14.3,0l14.3.23,14.29.23c4.77.07,9.54.14,14.3.33l28.59.92c38.11,1.65,76.18,4.3,114.12,8.33s75.73,9.62,113.25,16.55,74.76,15.37,111.93,23.84,74.3,17.07,111.74,24.11c18.72,3.46,37.49,6.75,56.33,9.51l14.13,2.09c4.71.68,9.44,1.24,14.16,1.88l14.16,1.87,14.2,1.63c37.85,4.32,75.86,7.24,113.92,9.22s76.18,2.77,114.3,3.29l-28.59,0c-4.77,0-9.54,0-14.3,0l-14.3-.23-14.3-.23c-4.77-.07-9.53-.14-14.3-.33l-28.59-.92c-38.1-1.65-76.17-4.29-114.12-8.32s-75.72-9.64-113.25-16.56-74.75-15.36-111.92-23.85-74.3-17.06-111.74-24.1c-18.73-3.46-37.49-6.75-56.33-9.51L837,371.06c-4.72-.68-9.45-1.23-14.16-1.88l-14.17-1.87-14.19-1.63c-37.85-4.32-75.86-7.23-113.92-9.22S604.37,353.69,566.24,353.17Z"/><path class="cls-7" d="M566.24,348.4l28.6,0c4.76,0,9.53,0,14.3,0l14.3.23,14.29.23c4.77.07,9.54.14,14.3.33l28.59.92c38.11,1.65,76.18,4.29,114.12,8.32S870.47,368.06,908,375s74.76,15.37,111.93,23.84,74.3,17.07,111.74,24.1c18.72,3.46,37.49,6.76,56.33,9.52l14.13,2.09c4.71.68,9.44,1.24,14.16,1.88l14.16,1.87,14.2,1.63c37.85,4.32,75.86,7.24,113.92,9.22s76.18,2.77,114.3,3.29l-28.59,0c-4.77,0-9.54,0-14.3,0l-14.3-.23-14.3-.22c-4.77-.07-9.53-.15-14.3-.33l-28.59-.92c-38.1-1.66-76.17-4.29-114.12-8.32s-75.72-9.64-113.25-16.56-74.75-15.37-111.92-23.85-74.3-17.06-111.74-24.1c-18.73-3.46-37.49-6.75-56.33-9.52L837,366.29c-4.72-.68-9.45-1.23-14.16-1.88l-14.17-1.87-14.19-1.63c-37.85-4.32-75.86-7.24-113.92-9.22S604.37,348.92,566.24,348.4Z"/><path class="cls-7" d="M566.24,343.51l28.6,0c4.76,0,9.53,0,14.3,0l14.3.23,14.29.23c4.77.07,9.54.14,14.3.33l28.59.92c38.11,1.65,76.18,4.29,114.12,8.32S870.47,363.17,908,370.1s74.76,15.37,111.93,23.84,74.3,17.06,111.74,24.1c18.72,3.46,37.49,6.75,56.33,9.52l14.13,2.09c4.71.68,9.44,1.23,14.16,1.87l14.16,1.88,14.2,1.62c37.85,4.33,75.86,7.25,113.92,9.23s76.18,2.77,114.3,3.29l-28.59,0c-4.77,0-9.54,0-14.3,0l-14.3-.23-14.3-.23c-4.77-.07-9.53-.14-14.3-.32l-28.59-.92c-38.1-1.66-76.17-4.29-114.12-8.33s-75.72-9.63-113.25-16.56-74.75-15.36-111.92-23.84S944.89,380,907.45,373c-18.73-3.46-37.49-6.76-56.33-9.52L837,361.4c-4.72-.68-9.45-1.23-14.16-1.88l-14.17-1.87L794.47,356c-37.85-4.33-75.86-7.24-113.92-9.22S604.37,344,566.24,343.51Z"/><path class="cls-7" d="M566.24,338.74l28.6,0c4.76,0,9.53,0,14.3,0l14.3.23,14.29.23c4.77.07,9.54.14,14.3.32l28.59.92c38.11,1.66,76.18,4.3,114.12,8.33S870.47,358.4,908,365.33s74.76,15.36,111.93,23.84,74.3,17.06,111.74,24.1c18.72,3.46,37.49,6.75,56.33,9.51l14.13,2.1c4.71.68,9.44,1.23,14.16,1.87l14.16,1.88,14.2,1.62c37.85,4.33,75.86,7.24,113.92,9.22s76.18,2.78,114.3,3.3l-28.59,0c-4.77,0-9.54,0-14.3,0l-14.3-.23-14.3-.23c-4.77-.07-9.53-.14-14.3-.32l-28.59-.92c-38.1-1.66-76.17-4.3-114.12-8.33s-75.72-9.63-113.25-16.56-74.75-15.36-111.92-23.84-74.3-17.07-111.74-24.11c-18.73-3.46-37.49-6.75-56.33-9.51L837,356.63c-4.72-.68-9.45-1.24-14.16-1.88l-14.17-1.87-14.19-1.63c-37.85-4.33-75.86-7.24-113.92-9.22S604.37,339.26,566.24,338.74Z"/><path class="cls-8" d="M566.24,492l226.65-1.83,113.32-1.1,113.32-1.4,113.33-1.11,56.67-.42c18.89-.17,37.78-.18,56.67-.22h113.33l56.67.27,56.66.38-226.65,1.84-113.32,1.1-113.32,1.4L906.24,492c-37.77.3-75.55.61-113.33.63s-75.56.08-113.34,0l-56.66-.26Z"/><path class="cls-8" d="M566.24,498l226.65-1.83L906.21,495l113.32-1.41,113.33-1.11,56.67-.42c18.89-.16,37.78-.17,56.67-.22l113.33,0,56.67.26,56.66.39-226.65,1.84-113.32,1.1-113.32,1.4L906.24,498c-37.77.3-75.55.62-113.33.64s-75.56.08-113.34,0l-56.66-.27Z"/><path class="cls-8" d="M566.24,503.92l226.65-1.82L906.21,501l113.32-1.4,113.33-1.11,56.67-.42c18.89-.16,37.78-.18,56.67-.22h113.33l56.67.27,56.66.39-226.65,1.83-113.32,1.1-113.32,1.4L906.24,504c-37.77.3-75.55.61-113.33.64s-75.56.08-113.34,0l-56.66-.27Z"/><path class="cls-8" d="M566.24,509.88l226.65-1.83L906.21,507l113.32-1.4,113.33-1.11,56.67-.42c18.89-.16,37.78-.18,56.67-.22h113.33l56.67.27,56.66.39-226.65,1.83-113.32,1.1-113.32,1.4-113.33,1.11c-37.77.3-75.55.61-113.33.64s-75.56.08-113.34,0l-56.66-.26Z"/><path class="cls-8" d="M566.24,515.84,792.89,514l113.32-1.1,113.32-1.4,113.33-1.11,56.67-.42c18.89-.17,37.78-.18,56.67-.22h113.33l56.67.27,56.66.38-226.65,1.84-113.32,1.1-113.32,1.4-113.33,1.11c-37.77.3-75.55.61-113.33.63s-75.56.08-113.34,0l-56.66-.26Z"/><path class="cls-8" d="M566.24,521.8,792.89,520l113.32-1.1,113.32-1.41,113.33-1.11,56.67-.41c18.89-.17,37.78-.18,56.67-.23l113.33,0,56.67.26,56.66.39-226.65,1.84-113.32,1.1-113.32,1.4-113.33,1.1c-37.77.3-75.55.62-113.33.64s-75.56.08-113.34,0l-56.66-.27Z"/><path class="cls-8" d="M566.24,527.75l226.65-1.82,113.32-1.11,113.32-1.4,113.33-1.11,56.67-.42c18.89-.16,37.78-.18,56.67-.22h113.33l56.67.27,56.66.39-226.65,1.83-113.32,1.1-113.32,1.4-113.33,1.11c-37.77.3-75.55.61-113.33.64s-75.56.08-113.34,0l-56.66-.27Z"/><path class="cls-8" d="M566.24,533.71l226.65-1.83,113.32-1.1,113.32-1.4,113.33-1.11,56.67-.42c18.89-.16,37.78-.18,56.67-.22h113.33l56.67.27,56.66.39-226.65,1.83-113.32,1.1-113.32,1.4-113.33,1.11c-37.77.3-75.55.61-113.33.64s-75.56.08-113.34,0l-56.66-.26Z"/><path class="cls-8" d="M566.24,539.67l226.65-1.83,113.32-1.1,113.32-1.4,113.33-1.11,56.67-.42c18.89-.17,37.78-.18,56.67-.22h113.33l56.67.27,56.66.38-226.65,1.84-113.32,1.1-113.32,1.4L906.24,539.7c-37.77.3-75.55.61-113.33.63s-75.56.08-113.34,0l-56.66-.26Z"/><path class="cls-8" d="M566.24,545.63l226.65-1.83,113.32-1.1,113.32-1.41,113.33-1.11,56.67-.41c18.89-.17,37.78-.18,56.67-.23l113.33,0,56.67.26,56.66.39-226.65,1.84-113.32,1.1-113.32,1.4-113.33,1.1c-37.77.3-75.55.62-113.33.64s-75.56.08-113.34,0L622.91,546Z"/><path class="cls-8" d="M566.24,551.58l226.65-1.82,113.32-1.11,113.32-1.4,113.33-1.11,56.67-.42c18.89-.16,37.78-.18,56.67-.22h113.33l56.67.27,56.66.39L1246.21,548l-113.32,1.1-113.32,1.4-113.33,1.11c-37.77.3-75.55.61-113.33.64s-75.56.08-113.34,0L622.91,552Z"/><path class="cls-8" d="M566.24,557.54l226.65-1.83,113.32-1.1,113.32-1.4,113.33-1.11,56.67-.42c18.89-.16,37.78-.18,56.67-.22h113.33l56.67.27,56.66.39L1246.21,554l-113.32,1.1-113.32,1.4-113.33,1.11c-37.77.3-75.55.61-113.33.64s-75.56.08-113.34,0l-56.66-.26Z"/><path class="cls-8" d="M566.24,563.5l226.65-1.83,113.32-1.1,113.32-1.4,113.33-1.11,56.67-.42c18.89-.17,37.78-.18,56.67-.22h113.33l56.67.27,56.66.38-226.65,1.84L1132.89,561l-113.32,1.4-113.33,1.11c-37.77.3-75.55.61-113.33.63s-75.56.08-113.34,0l-56.66-.26Z"/><path class="cls-8" d="M566.24,569.46l226.65-1.83,113.32-1.1,113.32-1.41L1132.86,564l56.67-.42c18.89-.16,37.78-.17,56.67-.22l113.33,0,56.67.26,56.66.39-226.65,1.84L1132.89,567l-113.32,1.4-113.33,1.1c-37.77.3-75.55.62-113.33.64s-75.56.08-113.34,0l-56.66-.27Z"/><path class="cls-8" d="M566.24,575.42l226.65-1.84,113.32-1.1,113.32-1.4L1132.86,570l56.67-.42c18.89-.16,37.78-.18,56.67-.22h113.33l56.67.27,56.66.39-226.65,1.83-113.32,1.1-113.32,1.4-113.33,1.11c-37.77.3-75.55.61-113.33.64s-75.56.08-113.34,0l-56.66-.27Z"/><path class="cls-8" d="M566.24,581.37l226.65-1.83,113.32-1.1,113.32-1.4,113.33-1.11,56.67-.42c18.89-.16,37.78-.18,56.67-.22h113.33l56.67.27,56.66.39-226.65,1.83-113.32,1.1-113.32,1.4L906.24,581.4c-37.77.3-75.55.61-113.33.64s-75.56.08-113.34,0l-56.66-.26Z"/><path class="cls-8" d="M566.24,587.33l226.65-1.83,113.32-1.1,113.32-1.4,113.33-1.11,56.67-.42c18.89-.17,37.78-.18,56.67-.22h113.33l56.67.27,56.66.38-226.65,1.84-113.32,1.1-113.32,1.4-113.33,1.1c-37.77.31-75.55.62-113.33.64s-75.56.08-113.34,0l-56.66-.26Z"/><path class="cls-8" d="M566.24,593.29l226.65-1.83,113.32-1.1L1019.53,589l113.33-1.11,56.67-.42c18.89-.16,37.78-.17,56.67-.22l113.33,0,56.67.26,56.66.39-226.65,1.84-113.32,1.1-113.32,1.4-113.33,1.1c-37.77.3-75.55.62-113.33.64s-75.56.08-113.34,0l-56.66-.27Z"/><path class="cls-8" d="M566.24,599.25l226.65-1.83,113.32-1.11,113.32-1.4,113.33-1.11,56.67-.42c18.89-.16,37.78-.18,56.67-.22h113.33l56.67.27,56.66.39-226.65,1.83-113.32,1.1-113.32,1.4-113.33,1.11c-37.77.3-75.55.61-113.33.64s-75.56.08-113.34,0l-56.66-.27Z"/><path class="cls-8" d="M566.24,605.2l226.65-1.83,113.32-1.1,113.32-1.4,113.33-1.11,56.67-.42c18.89-.16,37.78-.18,56.67-.22h113.33l56.67.27,56.66.39-226.65,1.83-113.32,1.1-113.32,1.4-113.33,1.11c-37.77.3-75.55.61-113.33.64s-75.56.08-113.34,0l-56.66-.26Z"/><path class="cls-8" d="M566.24,611.16l226.65-1.83,113.32-1.1,113.32-1.4,113.33-1.11,56.67-.42c18.89-.17,37.78-.18,56.67-.22h113.33l56.67.27,56.66.38-226.65,1.84-113.32,1.1-113.32,1.4-113.33,1.11c-37.77.3-75.55.61-113.33.63s-75.56.08-113.34,0l-56.66-.26Z"/><path class="cls-8" d="M566.24,617.12l226.65-1.83,113.32-1.1,113.32-1.41,113.33-1.11,56.67-.42c18.89-.16,37.78-.17,56.67-.22l113.33,0,56.67.26,56.66.39-226.65,1.84-113.32,1.1L1019.57,616l-113.33,1.1c-37.77.3-75.55.62-113.33.64s-75.56.08-113.34,0l-56.66-.27Z"/><path class="cls-8" d="M566.24,623.07l226.65-1.82,113.32-1.11,113.32-1.4,113.33-1.11,56.67-.42c18.89-.16,37.78-.18,56.67-.22h113.33l56.67.27,56.66.39-226.65,1.83-113.32,1.1L1019.57,622,906.24,623.1c-37.77.3-75.55.61-113.33.64s-75.56.08-113.34,0l-56.66-.27Z"/><path class="cls-8" d="M566.24,629l226.65-1.83,113.32-1.1,113.32-1.4,113.33-1.11,56.67-.42c18.89-.16,37.78-.18,56.67-.22h113.33l56.67.27,56.66.39-226.65,1.83-113.32,1.1L1019.57,628l-113.33,1.11c-37.77.3-75.55.61-113.33.64s-75.56.08-113.34,0l-56.66-.26Z"/><path class="cls-8" d="M566.24,635l226.65-1.83,113.32-1.1,113.32-1.4,113.33-1.11,56.67-.42c18.89-.17,37.78-.18,56.67-.22h113.33l56.67.27,56.66.38-226.65,1.84-113.32,1.1-113.32,1.4L906.24,635c-37.77.3-75.55.61-113.33.63s-75.56.08-113.34,0l-56.66-.26Z"/><path class="cls-8" d="M566.24,641l226.65-1.83L906.21,638l113.32-1.41,113.33-1.11,56.67-.42c18.89-.16,37.78-.17,56.67-.22l113.33,0,56.67.26,56.66.39-226.65,1.84-113.32,1.1-113.32,1.4L906.24,641c-37.77.3-75.55.62-113.33.64s-75.56.08-113.34,0l-56.66-.27Z"/><path class="cls-8" d="M566.24,646.8,792.89,645l113.32-1.11,113.32-1.4,113.33-1.11,56.67-.42c18.89-.16,37.78-.18,56.67-.22l113.33,0,56.67.26,56.66.39-226.65,1.84-113.32,1.1-113.32,1.39-113.33,1.11c-37.77.3-75.55.62-113.33.64s-75.56.08-113.34,0l-56.66-.27Z"/><path class="cls-8" d="M566.24,652.75l226.65-1.83,113.32-1.1,113.32-1.4,113.33-1.11,56.67-.42c18.89-.16,37.78-.18,56.67-.22h113.33l56.67.27,56.66.39-226.65,1.83-113.32,1.1-113.32,1.4-113.33,1.11c-37.77.3-75.55.61-113.33.64s-75.56.08-113.34,0l-56.66-.27Z"/><path class="cls-8" d="M566.24,658.71l226.65-1.83,113.32-1.1,113.32-1.4,113.33-1.11,56.67-.42c18.89-.16,37.78-.18,56.67-.22h113.33l56.67.27,56.66.39-226.65,1.83-113.32,1.1-113.32,1.4-113.33,1.11c-37.77.3-75.55.61-113.33.63s-75.56.08-113.34,0l-56.66-.26Z"/><path class="cls-8" d="M566.24,664.67l226.65-1.83,113.32-1.1,113.32-1.4,113.33-1.11,56.67-.42c18.89-.17,37.78-.18,56.67-.23l113.33,0,56.67.26,56.66.39-226.65,1.84-113.32,1.1-113.32,1.4-113.33,1.1c-37.77.31-75.55.62-113.33.64s-75.56.08-113.34,0l-56.66-.26Z"/><path class="cls-8" d="M566.24,670.63l226.65-1.83,113.32-1.11,113.32-1.4,113.33-1.11,56.67-.42c18.89-.16,37.78-.18,56.67-.22h113.33l56.67.27,56.66.39-226.65,1.84-113.32,1.1-113.32,1.39-113.33,1.11c-37.77.3-75.55.62-113.33.64s-75.56.08-113.34,0L622.91,671Z"/><path class="cls-8" d="M566.24,676.58l226.65-1.83,113.32-1.1,113.32-1.4,113.33-1.11,56.67-.42c18.89-.16,37.78-.18,56.67-.22h113.33l56.67.27,56.66.39L1246.21,673l-113.32,1.1-113.32,1.4-113.33,1.11c-37.77.3-75.55.61-113.33.64s-75.56.08-113.34,0L622.91,677Z"/><path class="cls-8" d="M566.24,682.54l226.65-1.83,113.32-1.1,113.32-1.4,113.33-1.11,56.67-.42c18.89-.16,37.78-.18,56.67-.22h113.33l56.67.27,56.66.39L1246.21,679l-113.32,1.1-113.32,1.4-113.33,1.11c-37.77.3-75.55.61-113.33.63s-75.56.08-113.34,0l-56.66-.26Z"/><path class="cls-8" d="M566.24,688.5l226.65-1.83,113.32-1.1,113.32-1.4,113.33-1.11,56.67-.42c18.89-.17,37.78-.18,56.67-.23l113.33,0,56.67.26,56.66.39-226.65,1.84L1132.89,686l-113.32,1.4-113.33,1.1c-37.77.31-75.55.62-113.33.64s-75.56.08-113.34,0l-56.66-.26Z"/><path class="cls-8" d="M566.24,694.46l226.65-1.83,113.32-1.11,113.32-1.4L1132.86,689l56.67-.42c18.89-.16,37.78-.17,56.67-.22h113.33l56.67.27,56.66.39-226.65,1.84L1132.89,692l-113.32,1.39-113.33,1.11c-37.77.3-75.55.62-113.33.64s-75.56.08-113.34,0l-56.66-.27Z"/><path class="cls-8" d="M566.24,700.41l226.65-1.83,113.32-1.1,113.32-1.4L1132.86,695l56.67-.42c18.89-.16,37.78-.18,56.67-.22h113.33l56.67.27,56.66.39-226.65,1.83-113.32,1.1-113.32,1.4-113.33,1.11c-37.77.3-75.55.61-113.33.64s-75.56.08-113.34,0l-56.66-.27Z"/><path class="cls-8" d="M566.24,706.37l226.65-1.83,113.32-1.1,113.32-1.4,113.33-1.11,56.67-.42c18.89-.17,37.78-.18,56.67-.22h113.33l56.67.27,56.66.39-226.65,1.83-113.32,1.1-113.32,1.4L906.24,706.4c-37.77.3-75.55.61-113.33.63s-75.56.08-113.34,0l-56.66-.26Z"/><path class="cls-8" d="M566.24,712.33l226.65-1.83,113.32-1.1,113.32-1.4,113.33-1.11,56.67-.42c18.89-.17,37.78-.18,56.67-.23l113.33,0,56.67.26,56.66.39-226.65,1.84-113.32,1.1-113.32,1.4-113.33,1.1c-37.77.31-75.55.62-113.33.64s-75.56.08-113.34,0l-56.66-.27Z"/><path class="cls-8" d="M566.24,718.29l226.65-1.83,113.32-1.11,113.32-1.4,113.33-1.11,56.67-.42c18.89-.16,37.78-.18,56.67-.22h113.33l56.67.27,56.66.39-226.65,1.84-113.32,1.1-113.32,1.39-113.33,1.11c-37.77.3-75.55.62-113.33.64s-75.56.08-113.34,0l-56.66-.27Z"/><path class="cls-8" d="M566.24,724.24l226.65-1.83,113.32-1.1,113.32-1.4,113.33-1.11,56.67-.42c18.89-.16,37.78-.18,56.67-.22h113.33l56.67.27,56.66.39-226.65,1.83-113.32,1.1-113.32,1.4-113.33,1.11c-37.77.3-75.55.61-113.33.64s-75.56.08-113.34,0l-56.66-.27Z"/><path class="cls-8" d="M566.24,730.2l226.65-1.83,113.32-1.1,113.32-1.4,113.33-1.11,56.67-.42c18.89-.17,37.78-.18,56.67-.22h113.33l56.67.27,56.66.39-226.65,1.83-113.32,1.1-113.32,1.4-113.33,1.11c-37.77.3-75.55.61-113.33.63s-75.56.08-113.34,0l-56.66-.26Z"/><path class="cls-8" d="M566.24,736.16l226.65-1.83,113.32-1.1,113.32-1.4,113.33-1.12,56.67-.41c18.89-.17,37.78-.18,56.67-.23l113.33,0,56.67.26,56.66.39-226.65,1.84-113.32,1.1-113.32,1.4-113.33,1.1c-37.77.31-75.55.62-113.33.64s-75.56.08-113.34,0l-56.66-.27Z"/><path class="cls-8" d="M566.24,742.12l226.65-1.83,113.32-1.11,113.32-1.4,113.33-1.11,56.67-.42c18.89-.16,37.78-.18,56.67-.22h113.33l56.67.27,56.66.39-226.65,1.84-113.32,1.1L1019.57,741l-113.33,1.11c-37.77.3-75.55.62-113.33.64s-75.56.08-113.34,0l-56.66-.27Z"/><path class="cls-8" d="M566.24,748.07l226.65-1.83,113.32-1.1,113.32-1.4,113.33-1.11,56.67-.42c18.89-.16,37.78-.18,56.67-.22h113.33l56.67.27,56.66.39-226.65,1.83-113.32,1.1L1019.57,747,906.24,748.1c-37.77.3-75.55.61-113.33.64s-75.56.08-113.34,0l-56.66-.27Z"/><path class="cls-8" d="M566.24,754l226.65-1.83,113.32-1.1,113.32-1.4,113.33-1.11,56.67-.42c18.89-.17,37.78-.18,56.67-.22h113.33l56.67.27,56.66.39-226.65,1.83-113.32,1.1L1019.57,753l-113.33,1.11c-37.77.3-75.55.61-113.33.63s-75.56.08-113.34,0l-56.66-.26Z"/><path class="cls-8" d="M566.24,760l226.65-1.83,113.32-1.1,113.32-1.4,113.33-1.12,56.67-.41c18.89-.17,37.78-.18,56.67-.23l113.33,0,56.67.27,56.66.38-226.65,1.84-113.32,1.1-113.32,1.4L906.24,760c-37.77.31-75.55.62-113.33.64s-75.56.08-113.34,0l-56.66-.26Z"/><path class="cls-8" d="M566.24,766l226.65-1.83L906.21,763l113.32-1.4,113.33-1.11,56.67-.42c18.89-.16,37.78-.18,56.67-.22l113.33,0,56.67.26,56.66.39-226.65,1.84-113.32,1.1-113.32,1.39L906.24,766c-37.77.3-75.55.62-113.33.64s-75.56.08-113.34,0l-56.66-.27Z"/><path class="cls-8" d="M566.24,771.9l226.65-1.83L906.21,769l113.32-1.4,113.33-1.11,56.67-.42c18.89-.16,37.78-.18,56.67-.22h113.33l56.67.27,56.66.39-226.65,1.83-113.32,1.1-113.32,1.4-113.33,1.11c-37.77.3-75.55.61-113.33.64s-75.56.08-113.34,0l-56.66-.27Z"/><path class="cls-8" d="M566.24,777.86,792.89,776l113.32-1.1,113.32-1.4,113.33-1.11,56.67-.42c18.89-.17,37.78-.18,56.67-.22h113.33l56.67.27,56.66.39-226.65,1.83-113.32,1.1-113.32,1.4-113.33,1.11c-37.77.3-75.55.61-113.33.63s-75.56.08-113.34,0l-56.66-.26Z"/><path class="cls-8" d="M566.24,783.82,792.89,782l113.32-1.1,113.32-1.4,113.33-1.11,56.67-.42c18.89-.17,37.78-.18,56.67-.23l113.33,0,56.67.26,56.66.39-226.65,1.84-113.32,1.1-113.32,1.4-113.33,1.1c-37.77.31-75.55.62-113.33.64s-75.56.08-113.34,0l-56.66-.26Z"/><path class="cls-8" d="M566.24,789.78,792.89,788l113.32-1.11,113.32-1.4,113.33-1.11,56.67-.42c18.89-.16,37.78-.18,56.67-.22h113.33l56.67.27,56.66.39-226.65,1.84-113.32,1.1-113.32,1.39L906.24,789.8c-37.77.3-75.55.62-113.33.64s-75.56.08-113.34,0l-56.66-.27Z"/><path class="cls-8" d="M566.24,795.73l226.65-1.83,113.32-1.1,113.32-1.4,113.33-1.11,56.67-.42c18.89-.16,37.78-.18,56.67-.22h113.33l56.67.27,56.66.39-226.65,1.83-113.32,1.1-113.32,1.4-113.33,1.11c-37.77.3-75.55.61-113.33.64s-75.56.08-113.34,0l-56.66-.27Z"/><path class="cls-8" d="M517,395.82A207.28,207.28,0,0,0,479,401a201,201,0,0,0-98.52,56.13,201.22,201.22,0,0,0-41.36,63.75,198.8,198.8,0,0,0,17.63,182.9,205.94,205.94,0,0,0,23.73,29.91A200.92,200.92,0,0,0,479,789.86a206.41,206.41,0,0,0,38,5.2,198,198,0,0,1-75-16.06,199.91,199.91,0,0,1-105.7-259.21A198.59,198.59,0,0,1,517,395.82Z"/><path class="cls-8" d="M517,395.82A207.28,207.28,0,0,0,479,401a201,201,0,0,0-98.52,56.13,201.22,201.22,0,0,0-41.36,63.75,198.8,198.8,0,0,0,17.63,182.9,205.94,205.94,0,0,0,23.73,29.91A200.92,200.92,0,0,0,479,789.86a206.41,206.41,0,0,0,38,5.2,198,198,0,0,1-75-16.06,199.91,199.91,0,0,1-105.7-259.21A198.59,198.59,0,0,1,517,395.82Z"/><path class="cls-8" d="M528.66,395.82a207.16,207.16,0,0,0-38,5.21,201,201,0,0,0-98.53,56.13,201.39,201.39,0,0,0-41.36,63.75,198.83,198.83,0,0,0,17.64,182.9,205.94,205.94,0,0,0,23.73,29.91,200.92,200.92,0,0,0,98.52,56.14,206.29,206.29,0,0,0,38,5.2,197.93,197.93,0,0,1-75-16.06,200,200,0,0,1,0-367.1A198,198,0,0,1,528.66,395.82Z"/><path class="cls-8" d="M540.27,395.82a207.28,207.28,0,0,0-38,5.21,201.09,201.09,0,0,0-98.52,56.13,201.22,201.22,0,0,0-41.36,63.75A198.8,198.8,0,0,0,380,703.81a206.62,206.62,0,0,0,23.73,29.91,201,201,0,0,0,98.52,56.14,206.41,206.41,0,0,0,38,5.2,198,198,0,0,1-75-16.06,200,200,0,0,1,0-367.1A197.9,197.9,0,0,1,540.27,395.82Z"/><path class="cls-8" d="M551.89,395.82a207.28,207.28,0,0,0-38,5.21,201,201,0,0,0-98.52,56.13A201.22,201.22,0,0,0,374,520.91a198.8,198.8,0,0,0,17.63,182.9,205.94,205.94,0,0,0,23.73,29.91,200.92,200.92,0,0,0,98.52,56.14,206.41,206.41,0,0,0,38,5.2,198,198,0,0,1-75-16.06,199.91,199.91,0,0,1-105.7-259.21,198.59,198.59,0,0,1,180.66-124Z"/><path class="cls-8" d="M563.51,395.82a207.16,207.16,0,0,0-38,5.21,201,201,0,0,0-98.53,56.13,201.39,201.39,0,0,0-41.36,63.75,198.83,198.83,0,0,0,17.64,182.9A205.94,205.94,0,0,0,427,733.72a200.92,200.92,0,0,0,98.52,56.14,206.29,206.29,0,0,0,38,5.2,197.93,197.93,0,0,1-75-16.06,200,200,0,0,1,0-367.1A198,198,0,0,1,563.51,395.82Z"/><path class="cls-8" d="M575.12,395.82a207.28,207.28,0,0,0-38,5.21,201.09,201.09,0,0,0-98.52,56.13,201.22,201.22,0,0,0-41.36,63.75,198.8,198.8,0,0,0,17.63,182.9,206.62,206.62,0,0,0,23.73,29.91,201,201,0,0,0,98.52,56.14,206.41,206.41,0,0,0,38,5.2,198,198,0,0,1-75-16.06,200,200,0,0,1,0-367.1A197.9,197.9,0,0,1,575.12,395.82Z"/><path class="cls-8" d="M586.74,395.82a207.28,207.28,0,0,0-38,5.21,201,201,0,0,0-98.52,56.13,201.22,201.22,0,0,0-41.36,63.75,198.8,198.8,0,0,0,17.63,182.9,205.94,205.94,0,0,0,23.73,29.91,200.92,200.92,0,0,0,98.52,56.14,206.41,206.41,0,0,0,38,5.2,198,198,0,0,1-75-16.06,199.91,199.91,0,0,1-105.7-259.21,198.59,198.59,0,0,1,180.66-124Z"/><path class="cls-8" d="M598.36,395.82a207.16,207.16,0,0,0-38,5.21,201,201,0,0,0-98.53,56.13,201.39,201.39,0,0,0-41.36,63.75,198.83,198.83,0,0,0,17.64,182.9,205.94,205.94,0,0,0,23.73,29.91,200.92,200.92,0,0,0,98.52,56.14,206.29,206.29,0,0,0,38,5.2,197.93,197.93,0,0,1-75-16.06,200,200,0,0,1,0-367.1A198,198,0,0,1,598.36,395.82Z"/><path class="cls-8" d="M610,395.82a207.28,207.28,0,0,0-38,5.21,201.09,201.09,0,0,0-98.52,56.13,201.22,201.22,0,0,0-41.36,63.75,198.8,198.8,0,0,0,17.63,182.9,206.62,206.62,0,0,0,23.73,29.91,201,201,0,0,0,98.52,56.14,206.41,206.41,0,0,0,38,5.2A198,198,0,0,1,535,779a200,200,0,0,1,0-367.1A197.9,197.9,0,0,1,610,395.82Z"/><path class="cls-8" d="M621.59,395.82a207.28,207.28,0,0,0-38,5.21A201,201,0,0,0,485,457.16a201.22,201.22,0,0,0-41.36,63.75,198.8,198.8,0,0,0,17.63,182.9A205.94,205.94,0,0,0,485,733.72a200.92,200.92,0,0,0,98.52,56.14,206.41,206.41,0,0,0,38,5.2,198,198,0,0,1-75-16.06,199.91,199.91,0,0,1-105.7-259.21,198.59,198.59,0,0,1,180.66-124Z"/><path class="cls-8" d="M633.21,395.82a207.16,207.16,0,0,0-38,5.21,201,201,0,0,0-98.53,56.13,201.39,201.39,0,0,0-41.36,63.75,198.83,198.83,0,0,0,17.64,182.9,205.94,205.94,0,0,0,23.73,29.91,200.92,200.92,0,0,0,98.52,56.14,206.29,206.29,0,0,0,38,5.2,197.93,197.93,0,0,1-75-16.06,200,200,0,0,1,0-367.1A198,198,0,0,1,633.21,395.82Z"/><path class="cls-8" d="M644.82,395.82a207.28,207.28,0,0,0-38,5.21,201,201,0,0,0-98.52,56.13,201.22,201.22,0,0,0-41.36,63.75,198.8,198.8,0,0,0,17.63,182.9,206.62,206.62,0,0,0,23.73,29.91,201,201,0,0,0,98.52,56.14,206.41,206.41,0,0,0,38,5.2,198,198,0,0,1-75-16.06,200,200,0,0,1,0-367.1A197.9,197.9,0,0,1,644.82,395.82Z"/><path class="cls-8" d="M656.44,395.82a207.28,207.28,0,0,0-38,5.21,201,201,0,0,0-98.52,56.13,201.22,201.22,0,0,0-41.36,63.75,198.8,198.8,0,0,0,17.63,182.9,205.94,205.94,0,0,0,23.73,29.91,200.92,200.92,0,0,0,98.52,56.14,206.41,206.41,0,0,0,38,5.2,198,198,0,0,1-75-16.06,199.91,199.91,0,0,1-105.7-259.21,198.59,198.59,0,0,1,180.66-124Z"/><path class="cls-8" d="M668.06,395.82A207.16,207.16,0,0,0,630,401a201,201,0,0,0-98.53,56.13,201.39,201.39,0,0,0-41.36,63.75,198.83,198.83,0,0,0,17.64,182.9,205.94,205.94,0,0,0,23.73,29.91A200.92,200.92,0,0,0,630,789.86a206.29,206.29,0,0,0,38,5.2,197.93,197.93,0,0,1-75-16.06,200,200,0,0,1,0-367.1A198,198,0,0,1,668.06,395.82Z"/><path class="cls-8" d="M679.67,395.82a207.28,207.28,0,0,0-38,5.21,201,201,0,0,0-98.52,56.13,201.22,201.22,0,0,0-41.36,63.75,198.8,198.8,0,0,0,17.63,182.9,206.62,206.62,0,0,0,23.73,29.91,201,201,0,0,0,98.52,56.14,206.41,206.41,0,0,0,38,5.2,198,198,0,0,1-75-16.06,200,200,0,0,1,0-367.1A197.9,197.9,0,0,1,679.67,395.82Z"/><path class="cls-8" d="M691.29,395.82a207.28,207.28,0,0,0-38,5.21,201,201,0,0,0-98.52,56.13,201.22,201.22,0,0,0-41.36,63.75A198.8,198.8,0,0,0,531,703.81a205.94,205.94,0,0,0,23.73,29.91,200.92,200.92,0,0,0,98.52,56.14,206.41,206.41,0,0,0,38,5.2,197.93,197.93,0,0,1-75-16.06,199.91,199.91,0,0,1-105.7-259.21,198.59,198.59,0,0,1,180.66-124Z"/><path class="cls-8" d="M702.91,395.82a207.16,207.16,0,0,0-38,5.21,201,201,0,0,0-98.53,56.13A201.39,201.39,0,0,0,525,520.91a198.83,198.83,0,0,0,17.64,182.9,205.94,205.94,0,0,0,23.73,29.91,200.92,200.92,0,0,0,98.52,56.14,206.29,206.29,0,0,0,38,5.2A197.93,197.93,0,0,1,628,779a200,200,0,0,1,0-367.1A198,198,0,0,1,702.91,395.82Z"/><path class="cls-8" d="M714.52,395.82a207.28,207.28,0,0,0-38,5.21A201,201,0,0,0,578,457.16a201.22,201.22,0,0,0-41.36,63.75,198.8,198.8,0,0,0,17.63,182.9A206.62,206.62,0,0,0,578,733.72a201,201,0,0,0,98.52,56.14,206.41,206.41,0,0,0,38,5.2,198,198,0,0,1-75-16.06,200,200,0,0,1,0-367.1A197.9,197.9,0,0,1,714.52,395.82Z"/><path class="cls-8" d="M726.14,395.82a207.28,207.28,0,0,0-38,5.21,201,201,0,0,0-98.52,56.13,201.22,201.22,0,0,0-41.36,63.75,198.8,198.8,0,0,0,17.63,182.9,205.94,205.94,0,0,0,23.73,29.91,200.92,200.92,0,0,0,98.52,56.14,206.41,206.41,0,0,0,38,5.2,197.93,197.93,0,0,1-75-16.06,199.91,199.91,0,0,1-105.7-259.21,198.59,198.59,0,0,1,180.66-124Z"/><path class="cls-8" d="M737.76,395.82a207.16,207.16,0,0,0-38,5.21,201,201,0,0,0-98.53,56.13,201.39,201.39,0,0,0-41.36,63.75,198.83,198.83,0,0,0,17.64,182.9,205.94,205.94,0,0,0,23.73,29.91,200.92,200.92,0,0,0,98.52,56.14,206.29,206.29,0,0,0,38,5.2,197.93,197.93,0,0,1-75-16.06,200,200,0,0,1,0-367.1A198,198,0,0,1,737.76,395.82Z"/><path class="cls-8" d="M749.37,395.82a207.28,207.28,0,0,0-38,5.21,201,201,0,0,0-98.52,56.13,201.22,201.22,0,0,0-41.36,63.75,198.8,198.8,0,0,0,17.63,182.9,206.62,206.62,0,0,0,23.73,29.91,201,201,0,0,0,98.52,56.14,206.41,206.41,0,0,0,38,5.2,198,198,0,0,1-75-16.06,200,200,0,0,1,0-367.1A197.9,197.9,0,0,1,749.37,395.82Z"/><path class="cls-8" d="M761,395.82A207.28,207.28,0,0,0,723,401a201,201,0,0,0-98.52,56.13,201.22,201.22,0,0,0-41.36,63.75,198.8,198.8,0,0,0,17.63,182.9,205.94,205.94,0,0,0,23.73,29.91A200.92,200.92,0,0,0,723,789.86a206.41,206.41,0,0,0,38,5.2A197.93,197.93,0,0,1,686,779a199.91,199.91,0,0,1-105.7-259.21A198.59,198.59,0,0,1,761,395.82Z"/><path class="cls-8" d="M566.36,402.85c38.22-.53,76.44-1.4,114.59-3.64s76.22-5.53,114.1-10.44c4.73-.62,9.47-1.19,14.2-1.85l14.16-2.11c4.72-.74,9.45-1.35,14.16-2.14l14.12-2.37c18.84-3.14,37.57-6.87,56.25-10.78,37.35-8,74.34-17.56,111.32-27.23s74.07-19.08,111.52-27S1206,301,1244,296.47s76.13-7.64,114.33-9.55l28.66-1.07c2.39-.08,4.77-.2,7.16-.25l7.17-.14,14.34-.27,14.33-.27c4.78-.07,9.56,0,14.34-.06H1473c-38.22.54-76.44,1.41-114.59,3.64s-76.22,5.54-114.1,10.45c-4.73.62-9.47,1.19-14.2,1.85l-14.16,2.11c-4.72.73-9.46,1.35-14.16,2.14l-14.13,2.37c-18.83,3.13-37.56,6.86-56.25,10.78-37.34,8-74.33,17.56-111.31,27.23s-74.08,19.07-111.52,27-75.21,14.29-113.2,18.84S719.22,398.89,681,400.8l-28.66,1.07c-2.39.08-4.78.2-7.17.25l-7.16.13-14.34.28-14.34.27c-4.77.07-9.55,0-14.33.06Z"/><path class="cls-8" d="M566.83,400.66c38.5-.56,77-1.68,115.37-4.45s76.65-7.07,114.59-13.33l7.12-1.16c2.37-.38,4.75-.74,7.11-1.22l14.16-2.68,7.09-1.33,3.54-.67,3.53-.75,14.1-3,7-1.5c2.35-.51,4.68-1.1,7-1.65l14-3.35c4.69-1.07,9.33-2.34,14-3.55l13.94-3.66c37.1-10.15,73.66-22.16,110.18-34.32s73.22-24,110.43-34.09a1063.33,1063.33,0,0,1,113-24.13c38.08-6,76.44-9.93,114.88-12.45l28.85-1.42,7.22-.34,7.22-.19,14.43-.38,14.44-.38c4.81-.11,9.63-.06,14.44-.1l28.88-.06c-38.5.57-77,1.69-115.37,4.46s-76.65,7.07-114.59,13.33l-7.12,1.16c-2.37.39-4.75.75-7.1,1.22l-14.17,2.68-7.09,1.33-3.54.66-3.53.76-14.1,3-7,1.5c-2.35.51-4.68,1.1-7,1.65l-14,3.35c-4.69,1.07-9.33,2.34-14,3.55l-13.94,3.66c-37.1,10.15-73.66,22.17-110.18,34.32s-73.22,24-110.43,34.08a1061.39,1061.39,0,0,1-113,24.13c-38.08,6-76.44,9.94-114.88,12.45l-28.86,1.42-7.21.35-7.22.19-14.43.37-14.44.38c-4.81.11-9.63.07-14.44.1Z"/><path class="cls-8" d="M566.83,488.05c38.23-.53,76.44-1.4,114.59-3.63s76.23-5.54,114.1-10.45c4.74-.62,9.48-1.19,14.2-1.85L823.89,470c4.71-.74,9.45-1.35,14.16-2.14l14.12-2.37c18.83-3.14,37.56-6.87,56.25-10.78,37.35-8,74.34-17.56,111.32-27.23s74.07-19.08,111.51-27,75.21-14.29,113.2-18.84,76.14-7.64,114.33-9.55l28.66-1.07c2.39-.08,4.78-.2,7.17-.25l7.17-.13,14.33-.28,14.34-.27c4.78-.07,9.56,0,14.33-.06h28.68c-38.23.54-76.44,1.41-114.59,3.65s-76.23,5.53-114.1,10.44c-4.74.62-9.48,1.19-14.2,1.85l-14.17,2.12c-4.72.72-9.45,1.34-14.16,2.13l-14.12,2.37c-18.83,3.14-37.56,6.86-56.25,10.78-37.35,8-74.34,17.56-111.32,27.23s-74.07,19.07-111.52,27-75.21,14.29-113.2,18.84S719.7,484.09,681.51,486l-28.66,1.07c-2.39.08-4.78.2-7.17.25l-7.17.14-14.33.27-14.34.27c-4.78.08-9.56,0-14.34.06Z"/><path class="cls-8" d="M566.83,482.37c38.23-.53,76.44-1.4,114.59-3.63s76.23-5.54,114.1-10.45c4.74-.62,9.48-1.19,14.2-1.85l14.17-2.11c4.71-.74,9.45-1.35,14.16-2.14l14.12-2.37C871,456.68,889.73,453,908.42,449c37.35-8,74.34-17.56,111.32-27.23s74.07-19.08,111.51-27,75.21-14.29,113.2-18.84,76.14-7.64,114.33-9.55l28.66-1.07c2.39-.08,4.78-.2,7.17-.25l7.17-.13,14.33-.28,14.34-.27c4.78-.07,9.56,0,14.33-.06h28.68c-38.23.54-76.44,1.41-114.59,3.65s-76.23,5.53-114.1,10.44c-4.74.62-9.48,1.19-14.2,1.85l-14.17,2.12c-4.72.72-9.45,1.34-14.16,2.13L1188.12,387c-18.83,3.14-37.56,6.86-56.25,10.78-37.35,8-74.34,17.56-111.32,27.23S946.48,444,909,451.93s-75.21,14.29-113.2,18.84-76.13,7.64-114.32,9.55l-28.66,1.07c-2.39.08-4.78.2-7.17.25l-7.17.14-14.33.27-14.34.27c-4.78.08-9.56,0-14.34.06Z"/><path class="cls-8" d="M566.83,476.69c38.23-.53,76.44-1.4,114.59-3.63s76.23-5.54,114.1-10.45c4.74-.62,9.48-1.19,14.2-1.85l14.17-2.11c4.71-.74,9.45-1.35,14.16-2.14l14.12-2.37c18.83-3.14,37.56-6.87,56.25-10.78,37.35-8,74.34-17.56,111.32-27.23s74.07-19.08,111.51-27,75.21-14.29,113.2-18.84,76.14-7.64,114.33-9.55l28.66-1.07c2.39-.08,4.78-.2,7.17-.25l7.17-.13,14.33-.28,14.34-.27c4.78-.07,9.56,0,14.33-.06h28.68c-38.23.54-76.44,1.41-114.59,3.64s-76.23,5.54-114.1,10.45c-4.74.62-9.48,1.19-14.2,1.85l-14.17,2.12c-4.72.72-9.45,1.34-14.16,2.13l-14.12,2.37c-18.83,3.14-37.56,6.86-56.25,10.78-37.35,8-74.34,17.56-111.32,27.23s-74.07,19.07-111.52,27-75.21,14.29-113.2,18.84-76.13,7.64-114.32,9.55l-28.66,1.07c-2.39.08-4.78.2-7.17.25l-7.17.14-14.33.27-14.34.27c-4.78.07-9.56,0-14.34.06Z"/><path class="cls-8" d="M566.83,471c38.23-.53,76.44-1.4,114.59-3.63s76.23-5.54,114.1-10.45c4.74-.62,9.48-1.19,14.2-1.85L823.89,453c4.71-.74,9.45-1.35,14.16-2.14l14.12-2.37c18.83-3.14,37.56-6.87,56.25-10.78,37.35-8,74.34-17.56,111.32-27.23s74.07-19.08,111.51-27,75.21-14.29,113.2-18.84,76.14-7.64,114.33-9.55l28.66-1.07c2.39-.08,4.78-.2,7.17-.25l7.17-.13,14.33-.28,14.34-.27c4.78-.07,9.56,0,14.33-.06h28.68c-38.23.54-76.44,1.41-114.59,3.64s-76.23,5.54-114.1,10.45c-4.74.62-9.48,1.19-14.2,1.85l-14.17,2.11c-4.72.73-9.45,1.35-14.16,2.14l-14.12,2.37c-18.83,3.14-37.56,6.86-56.25,10.78-37.35,8-74.34,17.56-111.32,27.23s-74.07,19.07-111.52,27-75.21,14.29-113.2,18.84S719.7,467.05,681.51,469L652.85,470c-2.39.08-4.78.2-7.17.25l-7.17.14-14.33.27-14.34.27c-4.78.07-9.56,0-14.34.06Z"/><path class="cls-8" d="M566.83,465.33c38.23-.53,76.44-1.4,114.59-3.64s76.23-5.53,114.1-10.44c4.74-.62,9.48-1.19,14.2-1.85l14.17-2.11c4.71-.74,9.45-1.35,14.16-2.14l14.12-2.37c18.83-3.14,37.56-6.87,56.25-10.78,37.35-8,74.34-17.56,111.32-27.23s74.07-19.08,111.51-27,75.21-14.29,113.2-18.84,76.14-7.64,114.33-9.55l28.66-1.07c2.39-.08,4.78-.2,7.17-.25l7.17-.13,14.33-.28,14.34-.27c4.78-.07,9.56,0,14.33-.06h28.68c-38.23.54-76.44,1.41-114.59,3.64s-76.23,5.54-114.1,10.45c-4.74.62-9.48,1.19-14.2,1.85l-14.17,2.12c-4.72.72-9.45,1.34-14.16,2.13l-14.12,2.37c-18.83,3.14-37.56,6.86-56.25,10.78-37.35,8-74.34,17.56-111.32,27.23S946.48,427,909,434.89s-75.21,14.29-113.2,18.84-76.13,7.64-114.32,9.55l-28.66,1.07c-2.39.08-4.78.2-7.17.25l-7.17.14-14.33.27-14.34.27c-4.78.07-9.56,0-14.34.06Z"/><path class="cls-8" d="M566.83,459.65c38.23-.53,76.44-1.4,114.59-3.64s76.23-5.53,114.1-10.44c4.74-.62,9.48-1.19,14.2-1.85l14.17-2.11c4.71-.74,9.45-1.35,14.16-2.14l14.12-2.37c18.83-3.14,37.56-6.87,56.25-10.78,37.35-8,74.34-17.56,111.32-27.23s74.07-19.08,111.51-27,75.21-14.3,113.2-18.84,76.14-7.64,114.33-9.55l28.66-1.07c2.39-.08,4.78-.2,7.17-.25l7.17-.13,14.33-.28,14.34-.27c4.78-.07,9.56,0,14.33-.06h28.68c-38.23.54-76.44,1.41-114.59,3.64s-76.23,5.54-114.1,10.45c-4.74.62-9.48,1.19-14.2,1.85l-14.17,2.12c-4.72.72-9.45,1.34-14.16,2.13l-14.12,2.37c-18.83,3.14-37.56,6.86-56.25,10.78-37.35,8-74.34,17.56-111.32,27.23s-74.07,19.07-111.52,27-75.21,14.29-113.2,18.84-76.13,7.64-114.32,9.55l-28.66,1.07c-2.39.08-4.78.2-7.17.25l-7.17.14-14.33.27-14.34.27c-4.78.07-9.56,0-14.34.06Z"/><path class="cls-8" d="M566.83,454c38.23-.53,76.44-1.4,114.59-3.64s76.23-5.53,114.1-10.44c4.74-.62,9.48-1.19,14.2-1.85l14.17-2.11c4.71-.74,9.45-1.35,14.16-2.14l14.12-2.37c18.83-3.14,37.56-6.87,56.25-10.78,37.35-8,74.34-17.56,111.32-27.23s74.07-19.08,111.51-27,75.21-14.3,113.2-18.84,76.14-7.64,114.33-9.55l28.66-1.07c2.39-.08,4.78-.2,7.17-.25l7.17-.13,14.33-.28,14.34-.27c4.78-.07,9.56,0,14.33-.06h28.68c-38.23.54-76.44,1.41-114.59,3.64s-76.23,5.54-114.1,10.45c-4.74.62-9.48,1.19-14.2,1.85L1216.4,354c-4.72.73-9.45,1.35-14.16,2.14l-14.12,2.37c-18.83,3.14-37.56,6.86-56.25,10.78-37.35,8-74.34,17.56-111.32,27.23s-74.07,19.07-111.52,27-75.21,14.29-113.2,18.84S719.7,450,681.51,451.92L652.85,453c-2.39.08-4.78.2-7.17.25l-7.17.14-14.33.27-14.34.27c-4.78.07-9.56,0-14.34.06Z"/><path class="cls-8" d="M566.83,448.29c38.23-.53,76.44-1.4,114.59-3.64s76.23-5.53,114.1-10.44c4.74-.62,9.48-1.19,14.2-1.85l14.17-2.11c4.71-.74,9.45-1.35,14.16-2.14l14.12-2.37c18.83-3.14,37.56-6.87,56.25-10.78,37.35-8,74.34-17.56,111.32-27.23s74.07-19.08,111.51-27,75.21-14.3,113.2-18.84,76.14-7.64,114.33-9.55l28.66-1.07c2.39-.08,4.78-.2,7.17-.25l7.17-.13,14.33-.28,14.34-.27c4.78-.07,9.56,0,14.33-.06h28.68c-38.23.54-76.44,1.41-114.59,3.64s-76.23,5.54-114.1,10.45c-4.74.62-9.48,1.19-14.2,1.85l-14.17,2.11c-4.72.73-9.45,1.35-14.16,2.14l-14.12,2.37c-18.83,3.14-37.56,6.86-56.25,10.78-37.35,8-74.34,17.56-111.32,27.23S946.48,410,909,417.85s-75.21,14.29-113.2,18.84-76.13,7.64-114.32,9.55l-28.66,1.07c-2.39.08-4.78.2-7.17.25l-7.17.14-14.33.27-14.34.27c-4.78.07-9.56,0-14.34.06Z"/><path class="cls-8" d="M566.83,442.61c38.23-.53,76.44-1.4,114.59-3.64s76.23-5.53,114.1-10.44c4.74-.62,9.48-1.19,14.2-1.85l14.17-2.11c4.71-.74,9.45-1.35,14.16-2.14l14.12-2.37c18.83-3.14,37.56-6.87,56.25-10.78,37.35-8,74.34-17.56,111.32-27.23s74.07-19.08,111.51-27,75.21-14.3,113.2-18.84,76.14-7.64,114.33-9.55l28.66-1.07c2.39-.08,4.78-.2,7.17-.25l7.17-.13,14.33-.28,14.34-.27c4.78-.07,9.56,0,14.33-.06h28.68c-38.23.54-76.44,1.41-114.59,3.64s-76.23,5.54-114.1,10.45c-4.74.62-9.48,1.19-14.2,1.85l-14.17,2.11c-4.72.73-9.45,1.35-14.16,2.14l-14.12,2.37c-18.83,3.14-37.56,6.86-56.25,10.78-37.35,8-74.34,17.56-111.32,27.23s-74.07,19.07-111.52,27S833.82,426.46,795.83,431s-76.13,7.64-114.32,9.55l-28.66,1.07c-2.39.08-4.78.2-7.17.25l-7.17.14-14.33.27-14.34.27c-4.78.07-9.56,0-14.34.06Z"/><path class="cls-8" d="M566.83,436.93c38.23-.53,76.44-1.4,114.59-3.64s76.23-5.53,114.1-10.44c4.74-.62,9.48-1.19,14.2-1.85l14.17-2.11c4.71-.74,9.45-1.35,14.16-2.14l14.12-2.37c18.83-3.14,37.56-6.87,56.25-10.78,37.35-8,74.34-17.56,111.32-27.23s74.07-19.08,111.51-27,75.21-14.3,113.2-18.84,76.14-7.64,114.33-9.55l28.66-1.07c2.39-.08,4.78-.2,7.17-.25l7.17-.13,14.33-.28,14.34-.27c4.78-.07,9.56,0,14.33-.06h28.68c-38.23.54-76.44,1.41-114.59,3.64s-76.23,5.54-114.1,10.45c-4.74.62-9.48,1.19-14.2,1.85L1216.4,337c-4.72.73-9.45,1.35-14.16,2.14l-14.12,2.37c-18.83,3.14-37.56,6.86-56.25,10.78-37.35,8-74.34,17.56-111.32,27.23s-74.07,19.07-111.52,27-75.21,14.29-113.2,18.84S719.7,433,681.51,434.88L652.85,436c-2.39.08-4.78.2-7.17.25l-7.17.14-14.33.27-14.34.27c-4.78.07-9.56,0-14.34.06Z"/><path class="cls-8" d="M566.83,431.25c38.23-.53,76.44-1.4,114.59-3.64s76.23-5.53,114.1-10.44c4.74-.62,9.48-1.19,14.2-1.85l14.17-2.11c4.71-.74,9.45-1.35,14.16-2.14l14.12-2.37c18.83-3.14,37.56-6.87,56.25-10.78,37.35-8,74.34-17.56,111.32-27.23s74.07-19.08,111.51-27,75.21-14.3,113.2-18.84,76.14-7.64,114.33-9.55l28.66-1.07c2.39-.08,4.78-.2,7.17-.25l7.17-.13,14.33-.28,14.34-.27c4.78-.07,9.56,0,14.33-.06h28.68c-38.23.54-76.44,1.41-114.59,3.64s-76.23,5.54-114.1,10.45c-4.74.62-9.48,1.19-14.2,1.85l-14.17,2.11c-4.72.73-9.45,1.35-14.16,2.14l-14.12,2.37c-18.83,3.14-37.56,6.86-56.25,10.78-37.35,8-74.34,17.56-111.32,27.23s-74.07,19.07-111.52,27-75.21,14.29-113.2,18.84-76.13,7.64-114.32,9.55l-28.66,1.07c-2.39.08-4.78.2-7.17.25l-7.17.14-14.33.27-14.34.27c-4.78.07-9.56,0-14.34.06Z"/><path class="cls-8" d="M566.83,425.57c38.23-.53,76.44-1.4,114.59-3.64s76.23-5.53,114.1-10.44c4.74-.62,9.48-1.19,14.2-1.85l14.17-2.11c4.71-.74,9.45-1.35,14.16-2.14L852.17,403c18.83-3.14,37.56-6.87,56.25-10.78,37.35-8,74.34-17.56,111.32-27.23s74.07-19.08,111.51-27,75.21-14.3,113.2-18.84,76.14-7.64,114.33-9.55l28.66-1.07c2.39-.08,4.78-.2,7.17-.25l7.17-.13,14.33-.28,14.34-.27c4.78-.07,9.56,0,14.33-.06h28.68c-38.23.54-76.44,1.41-114.59,3.64s-76.23,5.54-114.1,10.45c-4.74.62-9.48,1.19-14.2,1.85l-14.17,2.11c-4.72.73-9.45,1.35-14.16,2.14l-14.12,2.37c-18.83,3.14-37.56,6.86-56.25,10.78-37.35,8-74.34,17.56-111.32,27.23s-74.07,19.07-111.52,27S833.82,409.42,795.83,414s-76.13,7.64-114.32,9.55l-28.66,1.07c-2.39.08-4.78.2-7.17.25l-7.17.14-14.33.27-14.34.27c-4.78.07-9.56,0-14.34.06Z"/><path class="cls-8" d="M566.83,419.89c38.23-.53,76.44-1.4,114.59-3.64s76.23-5.53,114.1-10.44c4.74-.62,9.48-1.19,14.2-1.85l14.17-2.11c4.71-.74,9.45-1.35,14.16-2.14l14.12-2.37c18.83-3.14,37.56-6.87,56.25-10.78,37.35-8,74.34-17.56,111.32-27.23s74.07-19.08,111.51-27,75.21-14.3,113.2-18.84,76.14-7.64,114.33-9.55l28.66-1.07c2.39-.08,4.78-.2,7.17-.25l7.17-.13,14.33-.28,14.34-.27c4.78-.07,9.56,0,14.33-.06h28.68c-38.23.54-76.44,1.41-114.59,3.64s-76.23,5.54-114.1,10.45c-4.74.62-9.48,1.19-14.2,1.85L1216.4,320c-4.72.73-9.45,1.35-14.16,2.14l-14.12,2.37c-18.83,3.13-37.56,6.86-56.25,10.78-37.35,8-74.34,17.56-111.32,27.23s-74.07,19.07-111.52,27-75.21,14.29-113.2,18.84-76.13,7.64-114.32,9.55l-28.66,1.07c-2.39.08-4.78.2-7.17.25l-7.17.13-14.33.28-14.34.27c-4.78.07-9.56,0-14.34.06Z"/><path class="cls-8" d="M566.83,414.21c38.23-.53,76.44-1.4,114.59-3.64s76.23-5.53,114.1-10.44c4.74-.62,9.48-1.19,14.2-1.85l14.17-2.11c4.71-.74,9.45-1.35,14.16-2.14l14.12-2.37c18.83-3.14,37.56-6.87,56.25-10.78,37.35-8,74.34-17.56,111.32-27.23s74.07-19.08,111.51-27,75.21-14.3,113.2-18.84,76.14-7.64,114.33-9.55l28.66-1.07c2.39-.08,4.78-.2,7.17-.25l7.17-.13,14.33-.28,14.34-.27c4.78-.07,9.56,0,14.33-.06h28.68c-38.23.54-76.44,1.41-114.59,3.64s-76.23,5.54-114.1,10.45c-4.74.62-9.48,1.19-14.2,1.85l-14.17,2.11c-4.72.73-9.45,1.35-14.16,2.14l-14.12,2.37c-18.83,3.13-37.56,6.86-56.25,10.78-37.35,8-74.34,17.56-111.32,27.23s-74.07,19.07-111.52,27-75.21,14.29-113.2,18.84-76.13,7.64-114.32,9.55l-28.66,1.07c-2.39.08-4.78.2-7.17.25l-7.17.14-14.33.27-14.34.27c-4.78.07-9.56,0-14.34.06Z"/><path class="cls-8" d="M566.83,408.53c38.23-.53,76.44-1.4,114.59-3.64s76.23-5.53,114.1-10.44c4.74-.62,9.48-1.19,14.2-1.85l14.17-2.11c4.71-.74,9.45-1.35,14.16-2.14L852.17,386c18.83-3.14,37.56-6.87,56.25-10.78,37.35-8,74.34-17.56,111.32-27.23s74.07-19.08,111.51-27,75.21-14.3,113.2-18.84,76.14-7.64,114.33-9.55l28.66-1.07c2.39-.08,4.78-.2,7.17-.25l7.17-.13,14.33-.28,14.34-.27c4.78-.07,9.56,0,14.33-.06h28.68c-38.23.54-76.44,1.41-114.59,3.64s-76.23,5.54-114.1,10.45c-4.74.62-9.48,1.19-14.2,1.85l-14.17,2.11c-4.72.73-9.45,1.35-14.16,2.14l-14.12,2.37c-18.83,3.13-37.56,6.86-56.25,10.78-37.35,8-74.34,17.56-111.32,27.23s-74.07,19.07-111.52,27-75.21,14.29-113.2,18.84-76.13,7.64-114.32,9.55l-28.66,1.07c-2.39.08-4.78.2-7.17.25l-7.17.14-14.33.27-14.34.27c-4.78.07-9.56,0-14.34.06Z"/><path class="cls-9" d="M570.72,281.66a24.11,24.11,0,0,0,0,48.2"/><path class="cls-9" d="M570.72,281.66a24.11,24.11,0,0,0,0,48.2"/><path class="cls-9" d="M572.12,281.66a24.11,24.11,0,0,0,0,48.2"/><path class="cls-9" d="M573.53,281.66a24.11,24.11,0,0,0,0,48.2"/><path class="cls-9" d="M574.93,281.66a24.11,24.11,0,0,0,0,48.2"/><path class="cls-9" d="M576.33,281.66a24.11,24.11,0,0,0,0,48.2"/><path class="cls-9" d="M577.73,281.66a24.11,24.11,0,0,0,0,48.2"/><path class="cls-9" d="M579.14,281.66a24.11,24.11,0,0,0,0,48.2"/><path class="cls-9" d="M580.54,281.66a24.11,24.11,0,0,0,0,48.2"/><path class="cls-9" d="M581.94,281.66a24.11,24.11,0,0,0,0,48.2"/><path class="cls-9" d="M583.34,281.66a24.11,24.11,0,0,0,0,48.2"/><path class="cls-9" d="M584.75,281.66a24.11,24.11,0,0,0,0,48.2"/><path class="cls-9" d="M586.15,281.66a24.11,24.11,0,0,0,0,48.2"/><path class="cls-9" d="M587.55,281.66a24.11,24.11,0,0,0,0,48.2"/><path class="cls-9" d="M589,281.66a24.11,24.11,0,0,0,0,48.2"/><path class="cls-9" d="M590.36,281.66a24.11,24.11,0,0,0,0,48.2"/><path class="cls-9" d="M591.76,281.66a24.11,24.11,0,0,0,0,48.2"/><path class="cls-9" d="M593.16,281.66a24.11,24.11,0,0,0,0,48.2"/><path class="cls-9" d="M594.56,281.66a24.11,24.11,0,0,0,0,48.2"/><path class="cls-9" d="M596,281.66a24.11,24.11,0,0,0,0,48.2"/><path class="cls-9" d="M597.37,281.66a24.11,24.11,0,0,0,0,48.2"/><path class="cls-9" d="M598.77,281.66a24.11,24.11,0,0,0,0,48.2"/><path class="cls-9" d="M600.17,281.66a24.11,24.11,0,0,0,0,48.2"/><path class="cls-10" d="M563.34,244.32a13.58,13.58,0,0,0-9.17,4.11,13.45,13.45,0,0,0,0,18.57,13.64,13.64,0,0,0,9.17,4.12,13.29,13.29,0,0,1-9.29-4,13.4,13.4,0,0,1,0-18.8A13.25,13.25,0,0,1,563.34,244.32Z"/><path class="cls-10" d="M563.34,244.32a13.58,13.58,0,0,0-9.17,4.11,13.45,13.45,0,0,0,0,18.57,13.64,13.64,0,0,0,9.17,4.12,13.29,13.29,0,0,1-9.29-4,13.4,13.4,0,0,1,0-18.8A13.25,13.25,0,0,1,563.34,244.32Z"/><path class="cls-10" d="M564.12,244.32a13.58,13.58,0,0,0-9.17,4.11A13.45,13.45,0,0,0,555,267a13.64,13.64,0,0,0,9.17,4.12,13.29,13.29,0,0,1-9.29-4,13.4,13.4,0,0,1,0-18.8A13.25,13.25,0,0,1,564.12,244.32Z"/><path class="cls-10" d="M564.9,244.32a13.58,13.58,0,0,0-9.17,4.11,13.45,13.45,0,0,0,0,18.57,13.64,13.64,0,0,0,9.17,4.12,13.29,13.29,0,0,1-9.29-4,13.4,13.4,0,0,1,0-18.8A13.25,13.25,0,0,1,564.9,244.32Z"/><path class="cls-10" d="M565.68,244.32a13.58,13.58,0,0,0-9.17,4.11,13.45,13.45,0,0,0,0,18.57,13.64,13.64,0,0,0,9.17,4.12,13.29,13.29,0,0,1-9.29-4,13.4,13.4,0,0,1,0-18.8A13.25,13.25,0,0,1,565.68,244.32Z"/><path class="cls-10" d="M566.46,244.32a13.58,13.58,0,0,0-9.17,4.11,13.45,13.45,0,0,0,0,18.57,13.64,13.64,0,0,0,9.17,4.12,13.29,13.29,0,0,1-9.29-4,13.4,13.4,0,0,1,0-18.8A13.25,13.25,0,0,1,566.46,244.32Z"/><path class="cls-10" d="M567.24,244.32a13.58,13.58,0,0,0-9.17,4.11,13.45,13.45,0,0,0,0,18.57,13.64,13.64,0,0,0,9.17,4.12,13.29,13.29,0,0,1-9.29-4,13.4,13.4,0,0,1,0-18.8A13.25,13.25,0,0,1,567.24,244.32Z"/><path class="cls-10" d="M568,244.32a13.58,13.58,0,0,0-9.17,4.11,13.45,13.45,0,0,0,0,18.57,13.64,13.64,0,0,0,9.17,4.12,13.29,13.29,0,0,1-9.29-4,13.4,13.4,0,0,1,0-18.8A13.25,13.25,0,0,1,568,244.32Z"/><path class="cls-10" d="M568.8,244.32a13.58,13.58,0,0,0-9.17,4.11,13.45,13.45,0,0,0,0,18.57,13.64,13.64,0,0,0,9.17,4.12,13.29,13.29,0,0,1-9.29-4,13.4,13.4,0,0,1,0-18.8A13.25,13.25,0,0,1,568.8,244.32Z"/><path class="cls-10" d="M569.58,244.32a13.58,13.58,0,0,0-9.17,4.11,13.45,13.45,0,0,0,0,18.57,13.64,13.64,0,0,0,9.17,4.12,13.29,13.29,0,0,1-9.29-4,13.4,13.4,0,0,1,0-18.8A13.25,13.25,0,0,1,569.58,244.32Z"/><path class="cls-10" d="M570.36,244.32a13.58,13.58,0,0,0-9.17,4.11,13.45,13.45,0,0,0,0,18.57,13.64,13.64,0,0,0,9.17,4.12,13.29,13.29,0,0,1-9.29-4,13.4,13.4,0,0,1,0-18.8A13.25,13.25,0,0,1,570.36,244.32Z"/><path class="cls-10" d="M571.14,244.32a13.58,13.58,0,0,0-9.17,4.11A13.45,13.45,0,0,0,562,267a13.64,13.64,0,0,0,9.17,4.12,13.29,13.29,0,0,1-9.29-4,13.4,13.4,0,0,1,0-18.8A13.25,13.25,0,0,1,571.14,244.32Z"/><path class="cls-10" d="M571.92,244.32a13.56,13.56,0,0,0-9.17,4.11,13.45,13.45,0,0,0,0,18.57,13.64,13.64,0,0,0,9.17,4.12,13.29,13.29,0,0,1-9.29-4,13.4,13.4,0,0,1,0-18.8A13.25,13.25,0,0,1,571.92,244.32Z"/><path class="cls-10" d="M572.7,244.32a13.56,13.56,0,0,0-9.17,4.11,13.45,13.45,0,0,0,0,18.57,13.64,13.64,0,0,0,9.17,4.12,13.29,13.29,0,0,1-9.29-4,13.4,13.4,0,0,1,0-18.8A13.25,13.25,0,0,1,572.7,244.32Z"/><path class="cls-10" d="M573.48,244.32a13.56,13.56,0,0,0-9.17,4.11,13.45,13.45,0,0,0,0,18.57,13.62,13.62,0,0,0,9.17,4.12,13.29,13.29,0,0,1-9.29-4,13.4,13.4,0,0,1,0-18.8A13.25,13.25,0,0,1,573.48,244.32Z"/><path class="cls-10" d="M574.26,244.32a13.56,13.56,0,0,0-9.17,4.11,13.45,13.45,0,0,0,0,18.57,13.62,13.62,0,0,0,9.17,4.12,13.29,13.29,0,0,1-9.29-4,13.4,13.4,0,0,1,0-18.8A13.25,13.25,0,0,1,574.26,244.32Z"/><path class="cls-10" d="M575,244.32a13.56,13.56,0,0,0-9.17,4.11,13.45,13.45,0,0,0,0,18.57,13.62,13.62,0,0,0,9.17,4.12,13.29,13.29,0,0,1-9.29-4,13.4,13.4,0,0,1,0-18.8A13.25,13.25,0,0,1,575,244.32Z"/><path class="cls-10" d="M575.82,244.32a13.56,13.56,0,0,0-9.17,4.11,13.45,13.45,0,0,0,0,18.57,13.62,13.62,0,0,0,9.17,4.12,13.29,13.29,0,0,1-9.29-4,13.4,13.4,0,0,1,0-18.8A13.25,13.25,0,0,1,575.82,244.32Z"/><path class="cls-10" d="M576.6,244.32a13.56,13.56,0,0,0-9.17,4.11,13.45,13.45,0,0,0,0,18.57,13.62,13.62,0,0,0,9.17,4.12,13.29,13.29,0,0,1-9.29-4,13.4,13.4,0,0,1,0-18.8A13.25,13.25,0,0,1,576.6,244.32Z"/><path class="cls-10" d="M577.38,244.32a13.56,13.56,0,0,0-9.17,4.11,13.45,13.45,0,0,0,0,18.57,13.62,13.62,0,0,0,9.17,4.12,13.29,13.29,0,0,1-9.29-4,13.4,13.4,0,0,1,0-18.8A13.25,13.25,0,0,1,577.38,244.32Z"/><path class="cls-10" d="M578.16,244.32a13.56,13.56,0,0,0-9.17,4.11A13.45,13.45,0,0,0,569,267a13.62,13.62,0,0,0,9.17,4.12,13.29,13.29,0,0,1-9.29-4,13.4,13.4,0,0,1,0-18.8A13.25,13.25,0,0,1,578.16,244.32Z"/><path class="cls-10" d="M578.94,244.32a13.56,13.56,0,0,0-9.17,4.11,13.45,13.45,0,0,0,0,18.57,13.62,13.62,0,0,0,9.17,4.12,13.29,13.29,0,0,1-9.29-4,13.4,13.4,0,0,1,0-18.8A13.25,13.25,0,0,1,578.94,244.32Z"/><path class="cls-10" d="M579.72,244.32a13.56,13.56,0,0,0-9.17,4.11,13.45,13.45,0,0,0,0,18.57,13.62,13.62,0,0,0,9.17,4.12,13.29,13.29,0,0,1-9.29-4,13.4,13.4,0,0,1,0-18.8A13.25,13.25,0,0,1,579.72,244.32Z"/><path class="cls-7" d="M560.39,339.4A21.87,21.87,0,0,0,545.64,346a21.59,21.59,0,0,0,0,29.85,21.87,21.87,0,0,0,14.75,6.62,21.55,21.55,0,0,1,0-43.09Z"/><path class="cls-7" d="M560.39,339.4A21.87,21.87,0,0,0,545.64,346a21.59,21.59,0,0,0,0,29.85,21.87,21.87,0,0,0,14.75,6.62,21.55,21.55,0,0,1,0-43.09Z"/><path class="cls-7" d="M561.64,339.4A21.87,21.87,0,0,0,546.9,346a21.56,21.56,0,0,0,0,29.85,21.87,21.87,0,0,0,14.74,6.62,21.55,21.55,0,0,1,0-43.09Z"/><path class="cls-7" d="M562.89,339.4A21.87,21.87,0,0,0,548.15,346a21.59,21.59,0,0,0,0,29.85,21.87,21.87,0,0,0,14.74,6.62,21.55,21.55,0,0,1,0-43.09Z"/><path class="cls-7" d="M564.15,339.4A21.89,21.89,0,0,0,549.4,346a21.59,21.59,0,0,0,0,29.85,21.89,21.89,0,0,0,14.75,6.62,21.55,21.55,0,0,1,0-43.09Z"/><path class="cls-7" d="M565.4,339.4A21.87,21.87,0,0,0,550.66,346a21.56,21.56,0,0,0,0,29.85,21.87,21.87,0,0,0,14.74,6.62,21.55,21.55,0,0,1,0-43.09Z"/><path class="cls-7" d="M566.65,339.4A21.87,21.87,0,0,0,551.91,346a21.59,21.59,0,0,0,0,29.85,21.87,21.87,0,0,0,14.74,6.62,21.55,21.55,0,0,1,0-43.09Z"/><path class="cls-7" d="M567.91,339.4A21.85,21.85,0,0,0,553.17,346a21.56,21.56,0,0,0,0,29.85,21.85,21.85,0,0,0,14.74,6.62,21.55,21.55,0,0,1,0-43.09Z"/><path class="cls-7" d="M569.16,339.4A21.87,21.87,0,0,0,554.42,346a21.59,21.59,0,0,0,0,29.85,21.87,21.87,0,0,0,14.74,6.62,21.55,21.55,0,0,1,0-43.09Z"/><path class="cls-7" d="M570.42,339.4A21.87,21.87,0,0,0,555.67,346a21.59,21.59,0,0,0,0,29.85,21.87,21.87,0,0,0,14.75,6.62,21.55,21.55,0,0,1,0-43.09Z"/><path class="cls-7" d="M571.67,339.4A21.87,21.87,0,0,0,556.93,346a21.56,21.56,0,0,0,0,29.85,21.87,21.87,0,0,0,14.74,6.62,21.55,21.55,0,0,1,0-43.09Z"/><path class="cls-7" d="M572.92,339.4A21.87,21.87,0,0,0,558.18,346a21.59,21.59,0,0,0,0,29.85,21.87,21.87,0,0,0,14.74,6.62,21.55,21.55,0,0,1,0-43.09Z"/><path class="cls-7" d="M574.18,339.4A21.89,21.89,0,0,0,559.43,346a21.59,21.59,0,0,0,0,29.85,21.89,21.89,0,0,0,14.75,6.62,21.55,21.55,0,0,1,0-43.09Z"/><path class="cls-7" d="M575.43,339.4A21.87,21.87,0,0,0,560.69,346a21.56,21.56,0,0,0,0,29.85,21.87,21.87,0,0,0,14.74,6.62,21.55,21.55,0,0,1,0-43.09Z"/><path class="cls-7" d="M576.68,339.4A21.87,21.87,0,0,0,561.94,346a21.59,21.59,0,0,0,0,29.85,21.87,21.87,0,0,0,14.74,6.62,21.55,21.55,0,0,1,0-43.09Z"/><path class="cls-7" d="M577.94,339.4A21.89,21.89,0,0,0,563.19,346a21.58,21.58,0,0,0,0,29.85,21.85,21.85,0,0,0,14.74,6.62,21.55,21.55,0,0,1,0-43.09Z"/><path class="cls-7" d="M579.19,339.4A21.87,21.87,0,0,0,564.45,346a21.56,21.56,0,0,0,0,29.85,21.87,21.87,0,0,0,14.74,6.62,21.55,21.55,0,0,1,0-43.09Z"/><path class="cls-7" d="M580.44,339.4A21.87,21.87,0,0,0,565.7,346a21.59,21.59,0,0,0,0,29.85,21.87,21.87,0,0,0,14.74,6.62,21.55,21.55,0,0,1,0-43.09Z"/><path class="cls-7" d="M581.7,339.4A21.87,21.87,0,0,0,567,346a21.56,21.56,0,0,0,0,29.85,21.87,21.87,0,0,0,14.74,6.62,21.55,21.55,0,0,1,0-43.09Z"/><path class="cls-7" d="M583,339.4A21.87,21.87,0,0,0,568.21,346a21.59,21.59,0,0,0,0,29.85A21.87,21.87,0,0,0,583,382.49a21.55,21.55,0,0,1,0-43.09Z"/><path class="cls-7" d="M584.21,339.4A21.87,21.87,0,0,0,569.46,346a21.59,21.59,0,0,0,0,29.85,21.87,21.87,0,0,0,14.75,6.62,21.55,21.55,0,0,1,0-43.09Z"/><path class="cls-7" d="M585.46,339.4A21.87,21.87,0,0,0,570.72,346a21.56,21.56,0,0,0,0,29.85,21.87,21.87,0,0,0,14.74,6.62,21.55,21.55,0,0,1,0-43.09Z"/><path class="cls-7" d="M586.71,339.4A21.87,21.87,0,0,0,572,346a21.59,21.59,0,0,0,0,29.85,21.87,21.87,0,0,0,14.74,6.62,21.55,21.55,0,0,1,0-43.09Z"/><path class="cls-11" d="M559.16,330.23l28.64,0c4.77,0,9.54,0,14.32,0l14.31.26,14.32.25,7.16.13c2.39,0,4.77.16,7.16.23l28.63,1c38.15,1.8,76.26,4.65,114.23,9s75.74,10.36,113.22,17.79,74.63,16.48,111.71,25.55,74.13,18.25,111.52,25.8c18.7,3.71,37.45,7.24,56.29,10.2l14.12,2.24c4.71.74,9.45,1.33,14.16,2l14.17,2,14.19,1.74c37.87,4.64,75.92,7.77,114,9.88s76.28,3,114.45,3.49l-28.63,0c-4.77,0-9.55,0-14.32-.05l-14.32-.25-14.32-.25-7.16-.13c-2.38,0-4.77-.16-7.15-.23l-28.63-1c-38.15-1.8-76.27-4.65-114.23-9s-75.74-10.36-113.23-17.8-74.62-16.46-111.71-25.54S938,369.35,900.57,361.8c-18.71-3.7-37.45-7.23-56.29-10.2l-14.13-2.24c-4.71-.74-9.44-1.33-14.16-2l-14.16-2-14.2-1.74c-37.86-4.64-75.91-7.76-114-9.88S597.34,330.75,559.16,330.23Z"/><path class="cls-11" d="M559.16,326.8l28.64,0c4.77,0,9.54,0,14.32.05l14.31.25,14.32.26,7.16.12c2.39.05,4.77.16,7.16.23l28.63,1c38.15,1.79,76.26,4.64,114.23,9S863.67,348,901.15,355.48,975.78,372,1012.86,381s74.13,18.26,111.52,25.8c18.7,3.71,37.45,7.24,56.29,10.21l14.12,2.24c4.71.74,9.45,1.33,14.16,2l14.17,2,14.19,1.75c37.87,4.64,75.92,7.76,114,9.88s76.28,2.95,114.45,3.48l-28.63,0c-4.77,0-9.55,0-14.32,0l-14.32-.26-14.32-.25-7.16-.13c-2.38,0-4.77-.15-7.15-.23l-28.63-1c-38.15-1.79-76.27-4.64-114.23-9s-75.74-10.36-113.23-17.79-74.62-16.47-111.71-25.55S938,365.93,900.57,358.38c-18.71-3.71-37.45-7.24-56.29-10.2l-14.13-2.25c-4.71-.73-9.44-1.32-14.16-2l-14.16-2-14.2-1.75c-37.86-4.64-75.91-7.76-114-9.88S597.34,327.33,559.16,326.8Z"/><path class="cls-11" d="M559.16,323.49l28.64,0c4.77,0,9.54,0,14.32,0l14.31.26,14.32.25,7.16.13c2.39,0,4.77.16,7.16.23l28.63,1c38.15,1.8,76.26,4.65,114.23,9s75.74,10.36,113.22,17.79,74.63,16.47,111.71,25.55S1087,396,1124.38,403.51c18.7,3.71,37.45,7.24,56.29,10.2l14.12,2.24c4.71.74,9.45,1.33,14.16,2l14.17,2,14.19,1.74c37.87,4.64,75.92,7.77,114,9.88s76.28,3,114.45,3.49l-28.63,0c-4.77,0-9.55,0-14.32-.05l-14.32-.25-14.32-.25-7.16-.13c-2.38,0-4.77-.16-7.15-.23l-28.63-1c-38.15-1.8-76.27-4.65-114.23-9s-75.74-10.36-113.23-17.8-74.62-16.46-111.71-25.54S938,362.61,900.57,355.06c-18.71-3.7-37.45-7.23-56.29-10.2l-14.13-2.24c-4.71-.74-9.44-1.33-14.16-2l-14.16-2-14.2-1.74c-37.86-4.64-75.91-7.76-114-9.88S597.34,324,559.16,323.49Z"/><path class="cls-11" d="M559.16,320.06l28.64,0c4.77,0,9.54,0,14.32,0l14.31.25,14.32.26,7.16.12c2.39,0,4.77.16,7.16.23l28.63,1c38.15,1.79,76.26,4.64,114.23,9s75.74,10.35,113.22,17.79,74.63,16.47,111.71,25.54,74.13,18.26,111.52,25.8c18.7,3.71,37.45,7.24,56.29,10.21l14.12,2.24c4.71.74,9.45,1.33,14.16,2l14.17,2,14.19,1.75c37.87,4.64,75.92,7.76,114,9.88s76.28,2.95,114.45,3.48l-28.63,0c-4.77,0-9.55,0-14.32,0l-14.32-.26-14.32-.25L1387,431c-2.38,0-4.77-.15-7.15-.23l-28.63-1c-38.15-1.79-76.27-4.64-114.23-9s-75.74-10.36-113.23-17.79-74.62-16.47-111.71-25.55S938,359.19,900.57,351.64c-18.71-3.71-37.45-7.24-56.29-10.2l-14.13-2.25c-4.71-.73-9.44-1.32-14.16-2l-14.16-2-14.2-1.75c-37.86-4.64-75.91-7.76-114-9.88S597.34,320.59,559.16,320.06Z"/><path class="cls-11" d="M559.16,316.64l28.64,0c4.77,0,9.54,0,14.32,0l14.31.26,14.32.25,7.16.13c2.39,0,4.77.15,7.16.23l28.63,1c38.15,1.79,76.26,4.65,114.23,9s75.74,10.36,113.22,17.79,74.63,16.47,111.71,25.55,74.13,18.25,111.52,25.8c18.7,3.71,37.45,7.24,56.29,10.2l14.12,2.24c4.71.74,9.45,1.33,14.16,2l14.17,2,14.19,1.75c37.87,4.64,75.92,7.77,114,9.88s76.28,3,114.45,3.49l-28.63,0c-4.77,0-9.55,0-14.32-.05l-14.32-.25-14.32-.25-7.16-.13c-2.38,0-4.77-.16-7.15-.23l-28.63-1c-38.15-1.8-76.27-4.65-114.23-9s-75.74-10.37-113.23-17.8S1049.17,383.1,1012.08,374,938,355.76,900.57,348.21c-18.71-3.7-37.45-7.23-56.29-10.2l-14.13-2.24c-4.71-.74-9.44-1.33-14.16-2l-14.16-2L787.63,330c-37.86-4.64-75.91-7.76-114-9.88S597.34,317.16,559.16,316.64Z"/><path class="cls-11" d="M559.16,313.32l28.64,0c4.77,0,9.54,0,14.32.05l14.31.25,14.32.26,7.16.12c2.39,0,4.77.16,7.16.23l28.63,1c38.15,1.79,76.26,4.64,114.23,9S863.67,334.56,901.15,342s74.63,16.47,111.71,25.54,74.13,18.26,111.52,25.8c18.7,3.71,37.45,7.24,56.29,10.21l14.12,2.24c4.71.74,9.45,1.33,14.16,2l14.17,2,14.19,1.75c37.87,4.64,75.92,7.76,114,9.88s76.28,2.95,114.45,3.48l-28.63,0c-4.77,0-9.55,0-14.32,0l-14.32-.26-14.32-.25-7.16-.13c-2.38,0-4.77-.15-7.15-.23l-28.63-1c-38.15-1.79-76.27-4.64-114.23-9s-75.74-10.36-113.23-17.79-74.62-16.47-111.71-25.55S938,352.45,900.57,344.9c-18.71-3.71-37.45-7.24-56.29-10.2l-14.13-2.25c-4.71-.73-9.44-1.32-14.16-2l-14.16-2-14.2-1.75c-37.86-4.64-75.91-7.76-114-9.88S597.34,313.85,559.16,313.32Z"/><path class="cls-11" d="M559.16,309.9l28.64,0c4.77,0,9.54,0,14.32,0l14.31.26,14.32.25,7.16.13c2.39,0,4.77.15,7.16.23l28.63,1c38.15,1.79,76.26,4.65,114.23,9s75.74,10.36,113.22,17.79,74.63,16.47,111.71,25.55,74.13,18.25,111.52,25.8c18.7,3.71,37.45,7.24,56.29,10.2l14.12,2.24c4.71.74,9.45,1.33,14.16,2l14.17,2,14.19,1.74c37.87,4.64,75.92,7.77,114,9.88s76.28,3,114.45,3.49l-28.63,0c-4.77,0-9.55,0-14.32,0l-14.32-.25-14.32-.25-7.16-.13c-2.38,0-4.77-.16-7.15-.23l-28.63-1c-38.15-1.8-76.27-4.65-114.23-9s-75.74-10.37-113.23-17.8-74.62-16.46-111.71-25.54S938,349,900.57,341.47c-18.71-3.7-37.45-7.23-56.29-10.2L830.15,329c-4.71-.74-9.44-1.33-14.16-2l-14.16-2-14.2-1.74c-37.86-4.64-75.91-7.76-114-9.88S597.34,310.42,559.16,309.9Z"/><path class="cls-11" d="M559.16,306.58l28.64,0c4.77,0,9.54,0,14.32.05l14.31.25,14.32.26,7.16.12c2.39.05,4.77.16,7.16.23l28.63,1c38.15,1.79,76.26,4.64,114.23,9s75.74,10.35,113.22,17.79,74.63,16.47,111.71,25.54,74.13,18.26,111.52,25.8c18.7,3.71,37.45,7.24,56.29,10.21l14.12,2.24c4.71.74,9.45,1.33,14.16,2l14.17,2,14.19,1.75c37.87,4.64,75.92,7.76,114,9.88s76.28,2.95,114.45,3.48l-28.63,0c-4.77,0-9.55,0-14.32,0l-14.32-.26-14.32-.25-7.16-.13c-2.38,0-4.77-.15-7.15-.23l-28.63-1c-38.15-1.79-76.27-4.64-114.23-9s-75.74-10.36-113.23-17.79S1049.17,373,1012.08,364,938,345.71,900.57,338.16c-18.71-3.71-37.45-7.24-56.29-10.2l-14.13-2.25c-4.71-.73-9.44-1.32-14.16-2l-14.16-2-14.2-1.75c-37.86-4.64-75.91-7.76-114-9.88S597.34,307.11,559.16,306.58Z"/><path class="cls-11" d="M559.16,303.16l28.64,0c4.77,0,9.54,0,14.32,0l14.31.26,14.32.25,7.16.13c2.39,0,4.77.16,7.16.23l28.63,1c38.15,1.79,76.26,4.65,114.23,9s75.74,10.36,113.22,17.79,74.63,16.47,111.71,25.55,74.13,18.25,111.52,25.8c18.7,3.71,37.45,7.24,56.29,10.2l14.12,2.24c4.71.74,9.45,1.33,14.16,2l14.17,2,14.19,1.74c37.87,4.64,75.92,7.77,114,9.88s76.28,3,114.45,3.49l-28.63,0c-4.77,0-9.55,0-14.32,0l-14.32-.25-14.32-.25-7.16-.13c-2.38,0-4.77-.16-7.15-.23l-28.63-1c-38.15-1.8-76.27-4.65-114.23-9s-75.74-10.36-113.23-17.8-74.62-16.46-111.71-25.54S938,342.28,900.57,334.73c-18.71-3.7-37.45-7.23-56.29-10.2l-14.13-2.24c-4.71-.74-9.44-1.33-14.16-2l-14.16-2-14.2-1.74c-37.86-4.64-75.91-7.76-114-9.88S597.34,303.68,559.16,303.16Z"/><path class="cls-11" d="M559.16,299.73l28.64,0c4.77,0,9.54,0,14.32.05l14.31.25,14.32.26,7.16.12c2.39.05,4.77.16,7.16.23l28.63,1c38.15,1.79,76.26,4.64,114.23,9S863.67,321,901.15,328.41s74.63,16.47,111.71,25.54,74.13,18.26,111.52,25.8c18.7,3.71,37.45,7.24,56.29,10.21l14.12,2.24c4.71.74,9.45,1.33,14.16,2l14.17,2,14.19,1.75c37.87,4.64,75.92,7.76,114,9.88s76.28,2.95,114.45,3.48l-28.63,0c-4.77,0-9.55,0-14.32,0l-14.32-.26-14.32-.25-7.16-.13c-2.38,0-4.77-.15-7.15-.23l-28.63-1c-38.15-1.79-76.27-4.64-114.23-9s-75.74-10.36-113.23-17.79-74.62-16.47-111.71-25.55S938,338.86,900.57,331.31c-18.71-3.71-37.45-7.24-56.29-10.2l-14.13-2.25c-4.71-.73-9.44-1.32-14.16-2l-14.16-2-14.2-1.75c-37.86-4.64-75.91-7.76-114-9.88S597.34,300.26,559.16,299.73Z"/><path class="cls-11" d="M559.16,296.42l28.64,0c4.77,0,9.54,0,14.32,0l14.31.26,14.32.25,7.16.13c2.39,0,4.77.15,7.16.23l28.63,1c38.15,1.79,76.26,4.65,114.23,9s75.74,10.36,113.22,17.79,74.63,16.47,111.71,25.55,74.13,18.25,111.52,25.8c18.7,3.71,37.45,7.24,56.29,10.2l14.12,2.24c4.71.74,9.45,1.33,14.16,2l14.17,2,14.19,1.74c37.87,4.64,75.92,7.77,114,9.88s76.28,3,114.45,3.49l-28.63,0c-4.77,0-9.55,0-14.32-.05l-14.32-.25-14.32-.25-7.16-.13c-2.38,0-4.77-.16-7.15-.23l-28.63-1c-38.15-1.8-76.27-4.65-114.23-9s-75.74-10.37-113.23-17.8-74.62-16.46-111.71-25.54S938,335.54,900.57,328c-18.71-3.7-37.45-7.23-56.29-10.2l-14.13-2.24c-4.71-.74-9.44-1.33-14.16-2l-14.16-2-14.2-1.74c-37.86-4.64-75.91-7.76-114-9.88S597.34,296.94,559.16,296.42Z"/><path class="cls-11" d="M559.16,293l28.64,0c4.77,0,9.54,0,14.32,0l14.31.25,14.32.26,7.16.12c2.39.05,4.77.16,7.16.23l28.63,1c38.15,1.79,76.26,4.64,114.23,9s75.74,10.35,113.22,17.79,74.63,16.47,111.71,25.54S1087,365.47,1124.38,373c18.7,3.71,37.45,7.24,56.29,10.21l14.12,2.24c4.71.74,9.45,1.33,14.16,2l14.17,2,14.19,1.75c37.87,4.64,75.92,7.76,114,9.88s76.28,2.95,114.45,3.48l-28.63,0c-4.77,0-9.55,0-14.32,0l-14.32-.26-14.32-.25-7.16-.13c-2.38,0-4.77-.15-7.15-.23l-28.63-1c-38.15-1.79-76.27-4.64-114.23-9s-75.74-10.36-113.23-17.79-74.62-16.47-111.71-25.55S938,332.12,900.57,324.57c-18.71-3.71-37.45-7.24-56.29-10.2l-14.13-2.25c-4.71-.73-9.44-1.32-14.16-2l-14.16-2-14.2-1.75c-37.86-4.64-75.91-7.76-114-9.88S597.34,293.52,559.16,293Z"/><text class="cls-12" transform="translate(172.69 585.71)">Ma<tspan class="cls-13" x="31.95" y="0">l</tspan><tspan class="cls-14" x="37.15" y="0">ay</tspan></text><text class="cls-12" transform="translate(172.69 364.19)">Other</text><text class="cls-12" transform="translate(147.19 309.49)">Chinese</text><text class="cls-12" transform="translate(167 262.05)">Indian</text><text class="cls-15" transform="translate(1483.04 326.81)"><tspan xml:space="preserve"> Management&amp;P</tspan><tspan class="cls-16" x="103.19" y="0">r</tspan><tspan class="cls-17" x="108.54" y="0">o</tspan><tspan class="cls-18" x="116.64" y="0">f</tspan><tspan x="120.8" y="0">essional G</tspan><tspan class="cls-16" x="185.73" y="0">r</tspan><tspan class="cls-17" x="191.08" y="0">oup</tspan></text><text class="cls-15" transform="translate(1479.04 253.17)"><tspan class="cls-19">T</tspan><tspan x="6.13" y="0">op Management G</tspan><tspan class="cls-20" x="122.45" y="0">r</tspan><tspan x="127.8" y="0">oup </tspan></text><text class="cls-15" transform="translate(1485.57 640.95)">Support G<tspan class="cls-20" x="64.9" y="0">r</tspan><tspan class="cls-21" x="70.25" y="0">oup</tspan></text><line class="cls-22" x1="541.96" y1="255.33" x2="240.56" y2="255.33"/><line class="cls-22" x1="541.96" y1="302.89" x2="240.56" y2="302.89"/><line class="cls-23" x1="528.66" y1="357.59" x2="240.56" y2="357.59"/><line class="cls-24" x1="297.27" y1="575.96" x2="240.56" y2="575.96"/><circle class="cls-8" cx="541.96" cy="255.33" r="3.76"/><circle class="cls-8" cx="541.96" cy="302.89" r="3.76"/><circle class="cls-8" cx="528.66" cy="357.59" r="3.76"/><circle class="cls-8" cx="297.27" cy="575.96" r="3.76"/><rect class="cls-8" x="1469.34" y="381.42" width="6.09" height="408.9"/><rect class="cls-8" x="1469.53" y="265.26" width="6.23" height="104.82"/><rect class="cls-8" x="1469.27" y="248.76" width="6.23" height="2.97"/><rect class="cls-25" x="1643.33" y="235.67" width="96.33" height="23.73"/><rect class="cls-25" x="1707.67" y="312.33" width="96.33" height="23.73"/><rect class="cls-25" x="1589.67" y="623.33" width="96.33" height="23.73"/><text class="cls-26" transform="translate(1651.4 253.17)">Ma<tspan class="cls-27" x="19.88" y="0">l</tspan><tspan class="cls-17" x="23.12" y="0">ay 83</tspan><tspan class="cls-28" x="55.37" y="0">.</tspan><tspan x="57.38" y="0">95%</tspan></text><text class="cls-26" transform="translate(1715 328.01)">Ma<tspan class="cls-27" x="19.88" y="0">l</tspan><tspan class="cls-17" x="23.12" y="0">ay 81.65%</tspan></text><text class="cls-26" transform="translate(1599.03 639.41)">Ma<tspan class="cls-27" x="19.88" y="0">l</tspan><tspan class="cls-17" x="23.12" y="0">ay 75.77%</tspan></text></g></g></svg>