<svg xmlns="http://www.w3.org/2000/svg" viewBox="0 0 1920 293.95"><defs><style>.cls-1{font-size:22px;}.cls-1,.cls-6{fill:#252f7c;font-family:Comfortaa-Bold, Comfortaa;font-weight:700;}.cls-2{letter-spacing:-0.04em;}.cls-3{letter-spacing:0em;}.cls-4{letter-spacing:-0.03em;}.cls-5{fill:#fff;}.cls-6{font-size:26.13px;}.cls-7{letter-spacing:-0.02em;}.cls-8{letter-spacing:0em;}.cls-9{letter-spacing:-0.04em;}.cls-10{letter-spacing:-0.03em;}.cls-11{letter-spacing:-0.03em;}.cls-12{letter-spacing:-0.02em;}.cls-13{letter-spacing:0em;}.cls-14{letter-spacing:-0.13em;}</style></defs><title>资源 10</title><g id="图层_2" data-name="图层 2"><g id="图层_1-2" data-name="图层 1"><text class="cls-1" transform="translate(149.53 153.22)">Emig<tspan class="cls-2" x="57.53" y="0">r</tspan><tspan class="cls-3" x="67.34" y="0">ate of Ma</tspan><tspan class="cls-4" x="176.94" y="0">l</tspan><tspan x="182.88" y="0">aysian Chinese</tspan></text><rect class="cls-5" width="1920" height="293.95"/><text class="cls-6" transform="translate(72 128.69)">These situation has caus<tspan class="cls-7" x="341.57" y="0">e</tspan><tspan class="cls-8" x="357.27" y="0">d </tspan><tspan x="0" y="46.32">the emig</tspan><tspan class="cls-9" x="118.46" y="46.32">r</tspan><tspan x="130.12" y="46.32">ate </tspan><tspan class="cls-9" x="182.11" y="46.32">r</tspan><tspan x="193.76" y="46.32">ate of Ma</tspan><tspan class="cls-10" x="323.93" y="46.32">l</tspan><tspan x="330.99" y="46.32">aysian Chinese to m</tspan><tspan class="cls-11" x="606.32" y="46.32">o</tspan><tspan class="cls-12" x="623.18" y="46.32">v</tspan><tspan class="cls-13" x="636.97" y="46.32">e out of Ma</tspan><tspan class="cls-10" x="792.62" y="46.32">l</tspan><tspan class="cls-8" x="799.67" y="46.32">aysia to inc</tspan><tspan class="cls-9" x="955.94" y="46.32">r</tspan><tspan class="cls-7" x="967.6" y="46.32">e</tspan><tspan x="983.3" y="46.32">ase </tspan><tspan class="cls-7" x="1039" y="46.32">ye</tspan><tspan class="cls-8" x="1068.27" y="46.32">ar </tspan><tspan class="cls-11" x="1106.26" y="46.32">b</tspan><tspan x="1123.84" y="46.32">y </tspan><tspan class="cls-7" x="1145.58" y="46.32">ye</tspan><tspan x="1174.84" y="46.32">a</tspan><tspan class="cls-14" x="1192.48" y="46.32">r</tspan><tspan x="1201.78" y="46.32">.</tspan></text></g></g></svg>