<svg xmlns="http://www.w3.org/2000/svg" xmlns:xlink="http://www.w3.org/1999/xlink" viewBox="0 0 1920 750"><defs><style>.cls-1{fill:none;}.cls-2{fill:#fff;}.cls-3{fill:#6e82b2;}.cls-4{font-size:48px;fill:#2a2f88;}.cls-15,.cls-4,.cls-9{font-family:Comfortaa-Bold, Comfortaa;font-weight:700;}.cls-5{letter-spacing:-0.02em;}.cls-6{font-size:25.38px;fill:#2a2f89;font-family:MyriadPro-It, Myriad Pro;font-style:italic;}.cls-7{letter-spacing:0.02em;}.cls-8{letter-spacing:-0.01em;}.cls-9{font-size:20px;}.cls-15,.cls-9{fill:#252f7c;}.cls-10{letter-spacing:-0.04em;}.cls-11{letter-spacing:-0.02em;}.cls-12{letter-spacing:-0.03em;}.cls-13{letter-spacing:-0.02em;}.cls-14{letter-spacing:-0.03em;}.cls-15{font-size:22px;}.cls-16{letter-spacing:-0.04em;}.cls-17{letter-spacing:-0.02em;}.cls-18{letter-spacing:-0.02em;}.cls-19{letter-spacing:-0.03em;}.cls-20{letter-spacing:-0.03em;}.cls-21{letter-spacing:0em;}.cls-22{letter-spacing:-0.04em;}.cls-23{fill:#ffe117;}.cls-24{stroke:#2a2f88;stroke-miterlimit:10;stroke-width:1.4px;fill:url(#Motivo_nuevo_4);}</style><pattern id="Motivo_nuevo_4" data-name="Motivo nuevo 4" width="29" height="30" patternTransform="translate(-5 45)" patternUnits="userSpaceOnUse" viewBox="0 0 29 30"><rect class="cls-1" width="29" height="30"/><rect class="cls-2" x="27.5" y="28.5" width="29" height="30"/><rect class="cls-2" x="-1.5" y="28.5" width="29" height="30"/><rect class="cls-2" x="27.5" y="-1.5" width="29" height="30"/><rect class="cls-2" x="-1.5" y="-1.5" width="29" height="30"/><path class="cls-3" d="M16,13.5a3,3,0,1,0-3,3A3,3,0,0,0,16,13.5Z"/><path class="cls-3" d="M30.5,28.5a3,3,0,1,0-3,3A3,3,0,0,0,30.5,28.5Z"/><circle class="cls-3" cx="-1.5" cy="28.5" r="3"/><path class="cls-3" d="M30.5-1.5a3,3,0,0,0-3-3,3,3,0,0,0-3,3,3,3,0,0,0,3,3A3,3,0,0,0,30.5-1.5Z"/><circle class="cls-3" cx="-1.5" cy="-1.5" r="3"/></pattern></defs><title>资源8</title><g id="图层_2" data-name="图层 2"><g id="图层_1-2" data-name="图层 1"><rect class="cls-2" width="1920" height="750"/><text class="cls-4" transform="translate(303.29 177.14) scale(0.89 1)"><tspan class="cls-5">P</tspan><tspan x="28.94" y="0" xml:space="preserve">olitical    </tspan><tspan class="cls-5" x="0" y="70">P</tspan><tspan x="28.94" y="70">articipation</tspan></text><text class="cls-6" transform="translate(301.52 303.04)">Civil se<tspan class="cls-7" x="68.66" y="0">r</tspan><tspan x="77.24" y="0">vi</tspan><tspan class="cls-8" x="94.6" y="0">c</tspan><tspan x="105.1" y="0">e</tspan></text><text class="cls-9" transform="translate(1165.95 463.8)">Another ma<tspan class="cls-10" x="123.14" y="0">j</tspan><tspan x="128.08" y="0">or point of contention </tspan><tspan class="cls-11" x="365.27" y="0">f</tspan><tspan x="372.21" y="0">or the </tspan><tspan x="0" y="27">Chinese minority is g</tspan><tspan class="cls-12" x="219.06" y="27">o</tspan><tspan class="cls-13" x="231.96" y="27">v</tspan><tspan x="242.52" y="27">ernmental and po</tspan><tspan x="431.11" y="27">-</tspan><tspan x="0" y="54">litical </tspan><tspan class="cls-10" x="63.48" y="54">r</tspan><tspan x="72.4" y="54">ep</tspan><tspan class="cls-10" x="98.88" y="54">r</tspan><tspan x="107.8" y="54">esentation. </tspan><tspan x="0" y="81">Despite making up almost a quarter of the </tspan><tspan x="0" y="108">popu</tspan><tspan class="cls-12" x="55.26" y="108">l</tspan><tspan x="60.66" y="108">ation, in 2</tspan><tspan class="cls-10" x="163.42" y="108">0</tspan><tspan x="174.18" y="108">10 only 5.8% of Ma</tspan><tspan class="cls-14" x="361.07" y="108">l</tspan><tspan x="366.47" y="108">ay’s </tspan><tspan x="0" y="135">civil service </tspan><tspan class="cls-13" x="127.22" y="135">w</tspan><tspan x="141.38" y="135">as ethnically Chinese. </tspan></text><text class="cls-15" transform="translate(304.77 465.58)">F<tspan class="cls-16" x="13.75" y="0">r</tspan><tspan x="23.56" y="0">om the persp</tspan><tspan class="cls-17" x="176.68" y="0">e</tspan><tspan x="189.9" y="0">cti</tspan><tspan class="cls-18" x="218.59" y="0">v</tspan><tspan x="230.2" y="0">e of </tspan><tspan x="0" y="27">political participation, the </tspan><tspan x="0" y="54">distribution of </tspan><tspan class="cls-17" x="171.82" y="54">v</tspan><tspan x="183.43" y="54">arious </tspan><tspan x="0" y="81">ethnic g</tspan><tspan class="cls-16" x="93.67" y="81">r</tspan><tspan x="103.49" y="81">oups is also mo</tspan><tspan class="cls-16" x="282.41" y="81">r</tspan><tspan x="292.22" y="81">e </tspan><tspan x="0" y="108">o</tspan><tspan class="cls-19" x="14.85" y="108">b</tspan><tspan x="29.66" y="108">vious.</tspan></text><text class="cls-15" transform="translate(771.47 465.58)">most of the politics a<tspan class="cls-16" x="241.51" y="0">r</tspan><tspan x="251.32" y="0">e </tspan><tspan x="0" y="27">dominat</tspan><tspan class="cls-17" x="96.27" y="27">e</tspan><tspan x="109.49" y="27">d </tspan><tspan class="cls-20" x="131.4" y="27">b</tspan><tspan x="146.21" y="27">y the Ma</tspan><tspan class="cls-19" x="244.92" y="27">l</tspan><tspan x="250.86" y="27">ays, </tspan><tspan x="0" y="54">h</tspan><tspan class="cls-19" x="15.03" y="54">o</tspan><tspan class="cls-18" x="29.22" y="54">wev</tspan><tspan class="cls-21" x="69.63" y="54">er Chinese a</tspan><tspan class="cls-22" x="214.76" y="54">r</tspan><tspan x="224.57" y="54">e mostly</tspan><tspan x="0" y="81">engag</tspan><tspan class="cls-17" x="73.21" y="81">e</tspan><tspan x="86.44" y="81">d in high-skil</tspan><tspan class="cls-20" x="234.29" y="81">l</tspan><tspan class="cls-17" x="240.23" y="81">e</tspan><tspan x="253.46" y="81">d </tspan><tspan class="cls-16" x="0" y="108">j</tspan><tspan x="5.43" y="108">obs.</tspan></text><circle class="cls-23" cx="253.54" cy="170.51" r="36.95"/><circle class="cls-24" cx="232.04" cy="177.87" r="37.33"/></g></g></svg>