<svg id="Livello_1" data-name="Livello 1" xmlns="http://www.w3.org/2000/svg" viewBox="0 0 1005.78 1046.09"><defs><style>.cls-1,.cls-10,.cls-13,.cls-14,.cls-15,.cls-18,.cls-2,.cls-21,.cls-22,.cls-3,.cls-4,.cls-5,.cls-6,.cls-7,.cls-8{isolation:isolate;}.cls-2,.cls-3,.cls-4,.cls-5,.cls-6{font-size:21px;fill:#fff;}.cls-13,.cls-14,.cls-15,.cls-18,.cls-2,.cls-21,.cls-22,.cls-3,.cls-4,.cls-5,.cls-6{font-family:FiraSans-Bold, Fira Sans;}.cls-13,.cls-14,.cls-15,.cls-18,.cls-2,.cls-21,.cls-22,.cls-3,.cls-4,.cls-5,.cls-6,.cls-7,.cls-8{font-weight:700;}.cls-2{letter-spacing:-0.01em;}.cls-4{letter-spacing:-0.01em;}.cls-5{letter-spacing:-0.02em;}.cls-6{letter-spacing:-0.1em;}.cls-7,.cls-8{font-size:37px;font-family:Merriweather-Bold, Merriweather;}.cls-7,.cls-9{fill:#c8e593;}.cls-8{fill:#329690;}.cls-10{fill:#666;opacity:0.5;}.cls-11,.cls-13,.cls-14,.cls-15,.cls-18,.cls-21,.cls-22{fill:#e3f1c9;}.cls-12,.cls-23{fill:none;stroke-miterlimit:10;}.cls-12{stroke:#f2f2f2;stroke-width:3px;}.cls-13,.cls-14,.cls-15,.cls-18,.cls-21,.cls-22{font-size:18px;}.cls-13{letter-spacing:-0.02em;}.cls-15{letter-spacing:0.02em;}.cls-16{letter-spacing:0em;}.cls-17{letter-spacing:-0.01em;}.cls-18{letter-spacing:-0.01em;}.cls-19{letter-spacing:-0.01em;}.cls-20{letter-spacing:-0.01em;}.cls-21{letter-spacing:-0.03em;}.cls-22{letter-spacing:-0.01em;}.cls-23{stroke:#329690;stroke-width:2px;stroke-dasharray:6;}</style></defs><title>guacamole_gr</title><g id="Livello_2" data-name="Livello 2"><g id="Livello_1-2" data-name="Livello 1-2"><g class="cls-1"><text class="cls-2" transform="translate(619.08 476.09)">5</text><text class="cls-3" transform="translate(630.04 476.09)">2,288</text><text class="cls-4" transform="translate(681.2 476.09)">,</text><text class="cls-2" transform="translate(686.03 476.09)">6</text><text class="cls-2" transform="translate(697.56 476.09)">9</text><text class="cls-3" transform="translate(709.06 476.09)">7.</text><text class="cls-5" transform="translate(723.93 476.09)">8</text><text class="cls-3" transform="translate(735.8 476.09)">9</text></g><g class="cls-1"><text class="cls-3" transform="translate(0.08 591.09)">38</text><text class="cls-6" transform="translate(23.2 591.09)">,</text><text class="cls-3" transform="translate(26.14 591.09)">1</text><text class="cls-5" transform="translate(35.88 591.09)">4</text><text class="cls-3" transform="translate(47.33 591.09)">2</text><text class="cls-4" transform="translate(58.19 591.09)">,</text><text class="cls-3" transform="translate(62.93 591.09)">088</text><text class="cls-4" transform="translate(99.62 591.09)">.</text><text class="cls-3" transform="translate(104.36 591.09)">04</text></g><g class="cls-1"><text class="cls-7" transform="translate(137.4 53.33)">Guacamole became a Super Bowl ritual. </text><text class="cls-7" transform="translate(137.4 97.73)">Over 105 million pounds of avocados are </text><text class="cls-7" transform="translate(137.4 142.13)">now consumed on </text><text class="cls-8" transform="translate(488.67 142.13)">Super Bowl Sunday</text><text class="cls-7" transform="translate(848.08 142.13)">, </text><text class="cls-7" transform="translate(137.4 186.53)">making it the biggest avocado day of </text><text class="cls-7" transform="translate(137.4 230.93)">the year.</text></g><path class="cls-9" d="M61.39,66.66q-3.82-2.34-9.5-6a60.06,60.06,0,0,1-10.74-9,52.25,52.25,0,0,1-8.4-11.77,31,31,0,0,1-3.45-14.6Q29.3,14,33.86,7T49.05,0q6.78,0,10.68,4.51a14.53,14.53,0,0,1,3.88,9.69q0,7.28-4.38,11T47.2,29H41.27a35.28,35.28,0,0,0,2.59,10.46,29.17,29.17,0,0,0,5.31,7.75,44.4,44.4,0,0,0,7.28,6.34q3.59,2.39,9.39,5.72Zm45.68,0c-2.56-1.56-5.72-3.58-9.51-6a61.27,61.27,0,0,1-10.74-9,51.68,51.68,0,0,1-8.39-11.77A30.88,30.88,0,0,1,75,25.26Q75,13.92,79.54,7T94.72,0q6.8,0,10.68,4.51a14.59,14.59,0,0,1,3.89,9.69q0,7.28-4.38,11t-12,3.8H86.94a35.92,35.92,0,0,0,2.54,10.4,28.65,28.65,0,0,0,5.36,7.81,43.6,43.6,0,0,0,7.29,6.34q3.57,2.39,9.38,5.72Z"/><path class="cls-10" d="M137.78,600.27c8.49,0,8.49,22.76,17,22.76s8.49,6.63,17,6.63,8.49,13,17,13,8.49-15.3,17-15.3,8.49-139,17-139,8.49,125.07,17,125.07,8.49,29,17,29,8.49-31.61,17-31.61,8.49,13.74,17,13.74,8.49-10.36,17-10.36,8.49.31,17,.31,8.49,3.2,17,3.2,8.49,17.89,17,17.89,8.49-23.06,17-23.06,8.49-7,17-7,8.49-16.93,17-16.93,8.49-25.78,17-25.78,8.49-27.34,17-27.34,8.49,50.69,17,50.69,8.49,23.39,17,23.39,8.49-24.21,17-24.21,8.49-1.68,17-1.68,8.49,36.79,17,36.79,8.49-23,17-23,8.49,14.81,17,14.81,8.49-26.7,17-26.7,8.49,35,17,35,8.49,23,17,23,8.49,2.5,17,2.5,8.49,9,17,9,8.49-20.71,17-20.71,8.49-4.47,17-4.47,8.49,6.28,17,6.28,8.49-3.18,17-3.18,8.49-24.81,17-24.81,8.49,23.76,17,23.76,8.5,22,17,22,8.49,8.24,17,8.24,8.49,5.45,17,5.45,8.49,6,17,6,8.49,9.1,17,9.1,8.49,23.36,17,23.36,8.49,29.61,17,29.61,8.49-12.06,17-12.06,8.49-12.19,17-12.19,8.49-7.23,17-7.23,8.49,16.35,17,16.35,8.49-68.8,17-68.8,8.49,12.08,17,12.08,8.49,4,17,4,8.49-5.57,17-5.57V902h-866Z"/><path class="cls-11" d="M138.29,908.09v-5.62h866v5.62"/><line class="cls-12" x1="208.53" y1="916.85" x2="208.53" y2="930.1"/><g class="cls-1"><text class="cls-13" transform="translate(211.26 1028.53) rotate(-90)">F</text><text class="cls-14" transform="translate(211.26 1020.11) rotate(-90)">ebrua</text><text class="cls-15" transform="translate(211.26 972.1) rotate(-90)">r</text><text class="cls-14" transform="translate(211.26 964.61) rotate(-90)">y</text></g><g class="cls-1"><text class="cls-14" transform="translate(114.26 909.02) rotate(-90)"><tspan class="cls-16">U</tspan><tspan class="cls-17" x="11.63" y="0">s</tspan><tspan x="20.14" y="0">a </tspan></text><text class="cls-18" transform="translate(114.26 874.39) rotate(-90)">a</text><text class="cls-18" transform="translate(114.26 864.79) rotate(-90)">v</text><text class="cls-14" transform="translate(114.26 855.83) rotate(-90)">o<tspan class="cls-19" x="10.51" y="0">c</tspan><tspan x="18.95" y="0">a</tspan></text><text class="cls-18" transform="translate(114.26 826.87) rotate(-90)">d</text><text class="cls-14" transform="translate(114.26 816.27) rotate(-90)">o </text><text class="cls-18" transform="translate(114.26 801.36) rotate(-90)">r</text><text class="cls-14" transform="translate(114.26 794.4) rotate(-90)">e<tspan class="cls-20" x="9.94" y="0">t</tspan><tspan x="16.67" y="0">ail in 2</tspan></text><text class="cls-18" transform="translate(114.26 723.86) rotate(-90)">0</text><text class="cls-14" transform="translate(114.26 713.61) rotate(-90)">16</text></g><line class="cls-12" x1="278.88" y1="916.85" x2="278.88" y2="930.1"/><g class="cls-1"><text class="cls-14" transform="translate(281.6 1005.53) rotate(-90)">Ma</text><text class="cls-18" transform="translate(281.6 981.39) rotate(-90)">r</text><text class="cls-14" transform="translate(281.6 974.43) rotate(-90)">ch</text></g><line class="cls-12" x1="353.98" y1="916.85" x2="353.98" y2="930.1"/><text class="cls-14" transform="translate(356.69 994.22) rotate(-90)">April</text><line class="cls-12" x1="426.75" y1="916.85" x2="426.75" y2="930.1"/><g class="cls-1"><text class="cls-14" transform="translate(429.47 988.57) rotate(-90)">M</text><text class="cls-18" transform="translate(429.47 974.28) rotate(-90)">a</text><text class="cls-14" transform="translate(429.47 964.61) rotate(-90)">y</text></g><line class="cls-12" x1="501.95" y1="916.85" x2="501.95" y2="930.1"/><text class="cls-14" transform="translate(504.67 991.75) rotate(-90)">June</text><line class="cls-12" x1="574.72" y1="916.85" x2="574.72" y2="930.1"/><text class="cls-14" transform="translate(577.44 985.92) rotate(-90)">Ju<tspan class="cls-17" x="16" y="0">l</tspan><tspan x="21.17" y="0">y</tspan></text><line class="cls-12" x1="649.92" y1="916.85" x2="649.92" y2="930.1"/><g class="cls-1"><text class="cls-18" transform="translate(652.63 1011.73) rotate(-90)">A</text><text class="cls-14" transform="translate(652.63 1001.31) rotate(-90)">u<tspan class="cls-17" x="10.3" y="0">g</tspan><tspan x="20.03" y="0">ust</tspan></text></g><line class="cls-12" x1="725.12" y1="916.85" x2="725.12" y2="930.1"/><g class="cls-1"><text class="cls-14" transform="translate(727.91 1046.09) rotate(-90)">Sep</text><text class="cls-18" transform="translate(727.91 1015.24) rotate(-90)">t</text><text class="cls-14" transform="translate(727.91 1008.58) rotate(-90)">ember</text></g><line class="cls-12" x1="797.89" y1="916.85" x2="797.89" y2="930.1"/><g class="cls-1"><text class="cls-14" transform="translate(800.68 1021.58) rotate(-90)">Oc</text><text class="cls-18" transform="translate(800.68 1000.54) rotate(-90)">t</text><text class="cls-14" transform="translate(800.68 993.88) rotate(-90)">ober</text></g><line class="cls-12" x1="873.19" y1="916.85" x2="873.19" y2="930.1"/><g class="cls-1"><text class="cls-14" transform="translate(875.98 1039.63) rotate(-90)">N</text><text class="cls-21" transform="translate(875.98 1027.61) rotate(-90)">o</text><text class="cls-18" transform="translate(875.98 1017.54) rotate(-90)">v</text><text class="cls-14" transform="translate(875.98 1008.58) rotate(-90)">ember</text></g><line class="cls-12" x1="945.96" y1="916.85" x2="945.96" y2="930.1"/><g class="cls-1"><text class="cls-14" transform="translate(948.75 1038.66) rotate(-90)">De</text><text class="cls-22" transform="translate(948.75 1017.01) rotate(-90)">c</text><text class="cls-14" transform="translate(948.75 1008.58) rotate(-90)">ember</text></g><circle class="cls-23" cx="222.78" cy="498.01" r="65"/><line class="cls-23" x1="490.78" y1="151.51" x2="849.78" y2="151.51"/><line class="cls-23" x1="490.78" y1="151.01" x2="490.78" y2="472.01"/><line class="cls-23" x1="282.78" y1="472.01" x2="490.78" y2="472.01"/><line class="cls-23" x1="222.78" y1="491.01" x2="749.78" y2="491.01"/><line class="cls-23" x1="137.78" y1="595.01" x2="1001.78" y2="595.01"/></g></g></svg>